<?xml version="1.0" encoding="UTF-8" ?>
<!DOCTYPE svg PUBLIC "-//W3C//DTD SVG 1.1//EN" "http://www.w3.org/Graphics/SVG/1.1/DTD/svg11.dtd">
<svg width="224pt" height="56pt" viewBox="0 0 224 56" version="1.1" xmlns="http://www.w3.org/2000/svg">
<g id="#3c6bbeff">
<path fill="#3c6bbe" opacity="1.00" d=" M 0.00 0.00 L 25.40 0.00 C 26.51 1.08 27.57 2.20 28.64 3.33 C 22.02 4.17 14.97 5.82 8.50 3.37 C 9.45 5.16 10.45 6.96 11.00 8.93 C 9.01 11.15 6.44 12.74 4.14 14.60 C 8.04 14.27 11.95 14.12 15.86 14.17 C 14.59 12.49 13.24 10.85 12.31 8.94 C 14.41 4.03 20.37 6.48 24.43 6.03 C 30.17 4.77 35.85 3.14 41.71 2.45 L 41.51 3.33 C 41.09 5.15 40.65 6.98 40.20 8.80 C 40.62 9.07 41.45 9.61 41.87 9.88 C 42.47 10.21 43.67 10.87 44.27 11.20 C 43.22 11.44 42.16 11.68 41.11 11.90 C 41.16 12.80 41.22 13.69 41.28 14.58 C 40.97 15.98 40.61 17.36 40.25 18.75 C 34.33 17.20 28.34 18.92 22.39 19.32 C 23.97 20.97 28.74 22.57 26.18 25.17 C 23.54 27.44 19.74 27.28 16.47 27.69 C 17.59 29.51 18.64 31.38 19.71 33.24 C 13.38 35.70 6.68 36.94 0.00 38.03 L 0.00 31.09 C 3.83 29.63 7.68 28.20 11.56 26.86 C 11.92 24.83 11.23 21.91 13.52 20.84 C 15.58 19.62 17.80 18.73 19.98 17.77 C 13.35 19.33 6.39 20.62 0.00 17.42 L 0.00 0.00 Z" />
<path fill="#3c6bbe" opacity="1.00" d=" M 56.25 0.00 L 97.07 0.00 C 96.64 1.39 98.02 2.32 99.08 2.85 L 99.15 3.62 C 87.69 1.85 76.14 3.91 64.68 2.33 C 65.54 4.16 66.45 5.98 66.91 7.96 C 64.98 10.19 62.40 11.73 60.15 13.61 C 64.04 13.27 67.95 13.11 71.86 13.17 C 70.59 11.49 69.24 9.84 68.31 7.94 C 69.84 4.03 74.54 4.58 77.91 5.00 C 84.92 5.92 91.95 4.92 98.94 4.34 L 98.72 5.09 C 98.33 6.21 97.91 7.32 97.49 8.43 C 97.98 8.98 98.47 9.53 98.96 10.09 C 99.27 10.34 99.89 10.85 100.19 11.10 C 99.16 11.99 98.30 13.13 98.05 14.51 C 96.07 21.30 97.09 28.56 95.32 35.39 C 93.89 39.12 90.43 41.52 87.51 44.04 C 86.99 42.15 86.48 40.26 86.00 38.35 C 88.39 36.97 91.46 36.50 93.59 34.61 C 94.96 32.32 94.74 29.46 95.28 26.89 C 88.26 25.48 80.91 23.93 74.07 26.89 C 73.20 29.55 73.91 33.47 70.93 34.71 C 67.53 36.11 63.94 37.02 60.43 38.12 C 62.73 41.29 64.92 44.53 66.98 47.86 L 67.50 48.70 C 66.90 48.96 65.68 49.48 65.07 49.74 L 64.26 50.65 C 63.55 50.67 62.11 50.71 61.39 50.74 C 61.45 48.76 61.84 46.81 62.32 44.90 C 60.66 45.70 58.98 46.46 57.31 47.24 C 57.76 48.36 58.22 49.48 58.67 50.60 C 57.92 50.52 56.42 50.38 55.67 50.31 L 55.69 49.21 C 55.79 44.76 55.88 40.31 55.99 35.86 L 56.01 34.95 C 56.00 34.22 55.98 32.75 55.97 32.02 C 55.95 31.42 55.92 30.21 55.90 29.61 C 59.96 28.32 63.75 26.32 67.64 24.61 C 68.06 22.23 68.64 19.88 69.35 17.56 C 64.76 19.04 60.09 17.77 55.63 16.44 C 55.63 15.08 55.62 13.73 55.60 12.37 C 55.78 8.25 55.99 4.12 56.25 0.00 Z" />
<path fill="#3c6bbe" opacity="1.00" d=" M 112.23 0.00 L 138.26 0.00 C 137.68 0.61 136.52 1.82 135.94 2.43 C 130.85 2.07 125.75 1.83 120.67 1.27 C 121.53 3.12 122.43 4.97 122.91 6.96 C 120.98 9.19 118.40 10.73 116.15 12.61 C 120.04 12.27 123.95 12.11 127.86 12.17 C 126.59 10.49 125.24 8.84 124.31 6.94 C 125.68 3.34 129.95 3.49 133.11 3.92 C 140.38 4.89 147.70 3.68 154.98 4.32 L 155.28 5.03 C 154.64 6.15 153.99 7.27 153.34 8.38 C 153.91 8.96 154.49 9.55 155.07 10.13 C 155.38 10.37 156.00 10.85 156.32 11.09 C 155.15 11.80 153.83 12.76 154.05 14.32 C 154.41 22.56 155.07 31.29 151.82 39.09 C 150.10 42.93 145.80 44.34 142.12 45.56 C 141.80 42.72 141.53 39.88 141.38 37.03 C 144.64 36.12 147.92 35.18 151.15 34.15 C 151.09 31.42 151.03 28.69 150.95 25.96 C 145.64 24.20 139.78 22.00 134.23 24.13 C 129.89 25.35 128.86 30.20 126.63 33.57 C 131.11 35.04 135.61 36.51 139.92 38.47 C 132.75 40.94 125.39 43.17 117.71 42.88 C 119.60 44.67 121.47 46.50 123.48 48.18 C 123.01 48.52 122.08 49.22 121.61 49.57 L 120.81 50.36 C 117.77 50.79 114.71 50.70 111.66 50.45 L 111.69 49.30 C 111.79 44.82 111.88 40.35 111.99 35.87 L 112.01 34.96 C 111.98 34.23 111.91 32.76 111.88 32.03 C 111.89 30.68 111.91 29.34 111.94 28.00 C 115.88 26.04 119.85 24.13 123.96 22.56 C 123.94 20.84 123.86 19.13 123.88 17.41 C 126.64 16.19 129.42 15.00 132.13 13.66 C 125.53 16.31 118.56 18.52 111.68 15.48 C 111.65 14.71 111.60 13.18 111.57 12.41 C 111.75 8.27 111.97 4.13 112.23 0.00 M 114.61 36.94 C 114.39 37.52 114.18 38.10 113.97 38.68 C 115.21 38.86 116.45 39.05 117.69 39.24 C 117.59 39.69 117.39 40.58 117.28 41.03 C 121.21 38.86 125.33 37.07 129.38 35.16 C 124.48 35.92 119.61 37.62 114.61 36.94 Z" />
<path fill="#3c6bbe" opacity="1.00" d=" M 142.66 0.00 L 153.11 0.00 C 152.59 1.31 153.83 2.32 154.79 2.95 L 154.73 3.76 C 151.14 2.09 147.13 1.91 143.24 2.30 C 143.10 1.73 142.80 0.58 142.66 0.00 Z" />
<path fill="#3c6bbe" opacity="1.00" d=" M 168.25 0.00 L 209.07 0.00 C 208.64 1.39 210.02 2.32 211.08 2.85 L 211.15 3.61 C 200.27 2.45 189.22 2.21 178.45 4.42 C 178.46 6.05 178.46 7.69 178.46 9.33 C 176.25 10.69 174.05 12.05 171.85 13.42 C 175.85 13.22 179.86 13.10 183.87 13.21 C 182.60 11.51 181.24 9.85 180.31 7.94 C 181.84 4.03 186.54 4.59 189.91 5.00 C 196.92 5.92 203.95 4.92 210.94 4.34 L 210.72 5.10 C 210.32 6.21 209.91 7.32 209.49 8.43 C 209.98 8.98 210.47 9.53 210.96 10.09 C 211.27 10.34 211.89 10.85 212.19 11.10 C 211.16 11.99 210.30 13.13 210.04 14.50 C 208.75 18.71 208.71 23.14 208.51 27.50 C 201.16 25.64 193.34 23.73 186.07 26.89 C 185.20 29.55 185.91 33.47 182.93 34.71 C 179.52 36.11 175.94 37.02 172.43 38.12 C 174.73 41.29 176.92 44.53 178.98 47.86 L 179.50 48.70 C 178.90 48.96 177.68 49.48 177.07 49.74 L 176.27 50.65 C 175.55 50.67 174.11 50.71 173.39 50.74 C 173.45 48.76 173.84 46.81 174.32 44.90 C 172.66 45.70 170.98 46.46 169.31 47.24 C 169.76 48.36 170.22 49.48 170.67 50.60 C 169.91 50.53 168.39 50.38 167.63 50.31 L 167.63 49.22 C 167.65 44.71 167.56 40.20 167.69 35.69 L 167.87 34.88 C 167.90 34.16 167.97 32.71 168.01 31.98 C 167.98 31.39 167.94 30.20 167.92 29.61 C 171.98 28.31 175.75 26.32 179.64 24.61 C 180.06 22.23 180.64 19.88 181.35 17.56 C 176.76 19.04 172.09 17.77 167.63 16.44 C 167.63 15.08 167.62 13.73 167.60 12.37 C 167.77 8.25 167.99 4.12 168.25 0.00 Z" />
<path fill="#3c6bbe" opacity="1.00" d=" M 111.73 17.52 C 115.42 18.38 119.06 19.49 122.52 21.03 C 118.99 22.67 115.37 24.13 111.99 26.08 C 111.98 25.30 111.96 23.73 111.95 22.94 C 111.92 22.26 111.85 20.89 111.81 20.21 C 111.79 19.54 111.75 18.19 111.73 17.52 Z" />
<path fill="#3c6bbe" opacity="1.00" d=" M 206.22 28.98 C 208.01 28.65 208.01 32.35 206.22 32.02 C 205.16 31.43 205.16 29.57 206.22 28.98 Z" />
<path fill="#3c6bbe" opacity="1.00" d=" M 197.74 37.34 C 200.49 36.71 203.31 36.06 206.04 35.30 C 206.34 35.91 206.65 36.52 206.95 37.13 C 204.25 38.81 201.61 40.58 198.97 42.33 C 198.55 40.67 198.14 39.01 197.74 37.34 Z" />
<path fill="#3c6bbe" opacity="1.00" d=" M 29.40 42.28 C 30.55 37.42 34.49 34.86 39.78 36.19 C 36.73 38.85 33.04 40.59 29.40 42.28 Z" />
<path fill="#3c6bbe" opacity="1.00" d=" M 0.00 38.37 C 2.29 38.89 4.71 39.13 6.85 40.15 C 8.58 41.71 9.52 43.93 10.67 45.92 C 11.09 46.71 11.50 47.50 11.91 48.29 C 9.91 49.20 7.85 49.98 5.75 50.64 C 6.35 49.25 6.97 47.88 7.58 46.50 C 5.88 47.03 4.19 47.57 2.50 48.11 C 2.35 48.67 2.07 49.79 1.92 50.35 C 1.27 50.82 0.63 51.31 -0.00 51.80 L 0.00 38.37 Z" />
</g>
<g id="#3f79caff">
<path fill="#3f79ca" opacity="1.00" d=" M 25.40 0.00 L 43.27 0.00 L 43.39 0.88 C 42.97 1.27 42.13 2.06 41.71 2.45 C 35.85 3.14 30.17 4.77 24.43 6.03 C 20.37 6.48 14.41 4.03 12.31 8.94 C 13.24 10.85 14.59 12.49 15.86 14.17 C 11.95 14.12 8.04 14.27 4.14 14.60 C 6.44 12.74 9.01 11.15 11.00 8.93 C 10.45 6.96 9.45 5.16 8.50 3.37 C 14.97 5.82 22.02 4.17 28.64 3.33 C 27.57 2.20 26.51 1.08 25.40 0.00 Z" />
</g>
<g id="#565249ff">
<path fill="#565249" opacity="1.00" d=" M 43.27 0.00 L 45.71 0.00 C 46.36 1.39 46.94 2.82 47.53 4.24 C 46.24 4.35 44.96 4.47 43.68 4.60 C 43.83 3.35 43.74 2.11 43.39 0.88 L 43.27 0.00 Z" />
</g>
<g id="#322e2aff">
<path fill="#322e2a" opacity="1.00" d=" M 45.71 0.00 L 48.06 0.00 C 48.19 2.22 48.32 4.44 48.44 6.66 C 47.42 7.91 46.41 9.16 45.45 10.46 C 44.43 8.53 43.40 6.62 42.30 4.74 C 42.64 4.70 43.33 4.64 43.68 4.60 C 44.96 4.47 46.24 4.35 47.53 4.24 C 46.94 2.82 46.36 1.39 45.71 0.00 Z" />
<path fill="#322e2a" opacity="1.00" d=" M 101.82 0.00 L 104.82 0.00 C 104.62 3.64 103.93 7.30 101.50 10.10 L 101.12 9.43 C 100.31 7.99 99.49 6.56 98.72 5.09 L 98.94 4.34 L 99.15 3.62 C 100.60 4.08 102.05 4.54 103.50 4.99 C 102.97 3.32 102.44 1.64 101.82 0.00 Z" />
<path fill="#322e2a" opacity="1.00" d=" M 157.80 0.00 L 160.82 0.00 C 160.57 3.60 159.92 7.24 157.58 10.08 L 157.25 9.39 C 156.57 7.95 155.90 6.50 155.28 5.03 L 154.98 4.32 L 154.73 3.76 C 156.33 4.15 157.93 4.54 159.54 4.93 C 158.98 3.28 158.44 1.62 157.80 0.00 Z" />
<path fill="#322e2a" opacity="1.00" d=" M 213.82 0.00 L 216.81 0.00 C 216.61 3.64 215.93 7.30 213.50 10.10 L 213.12 9.43 C 212.31 7.99 211.49 6.56 210.72 5.10 L 210.94 4.34 L 211.15 3.61 C 212.60 4.08 214.05 4.54 215.50 4.99 C 214.97 3.32 214.44 1.64 213.82 0.00 Z" />
</g>
<g id="#545948ff">
<path fill="#545948" opacity="1.00" d=" M 48.06 0.00 L 49.16 0.00 C 49.79 3.57 49.70 7.21 49.20 10.79 C 50.13 9.78 51.06 8.78 51.94 7.73 C 52.23 8.28 52.79 9.39 53.07 9.94 C 53.68 10.49 54.27 11.05 54.86 11.62 C 54.77 12.64 54.70 13.65 54.66 14.67 C 52.68 13.65 50.61 12.86 48.55 12.05 C 48.10 11.87 47.22 11.50 46.78 11.31 C 46.97 12.73 47.17 14.14 47.38 15.55 C 47.48 16.09 47.66 17.15 47.76 17.69 C 46.83 16.33 45.86 14.99 44.90 13.66 C 44.95 13.00 45.05 11.68 45.10 11.02 L 45.45 10.46 C 46.41 9.16 47.42 7.91 48.44 6.66 C 48.32 4.44 48.19 2.22 48.06 0.00 Z" />
</g>
<g id="#6e9b59ff">
<path fill="#6e9b59" opacity="1.00" d=" M 49.16 0.00 L 55.80 0.00 C 54.51 2.58 53.42 5.25 51.94 7.73 C 51.06 8.78 50.13 9.78 49.20 10.79 C 49.70 7.21 49.79 3.57 49.16 0.00 Z" />
<path fill="#6e9b59" opacity="1.00" d=" M 105.29 0.00 L 111.80 0.00 C 110.51 2.57 109.42 5.24 107.95 7.72 C 107.06 8.77 106.13 9.78 105.20 10.79 C 105.67 7.21 105.78 3.59 105.29 0.00 Z" />
<path fill="#6e9b59" opacity="1.00" d=" M 161.29 0.00 L 167.80 0.00 C 166.51 2.58 165.41 5.25 163.94 7.73 C 163.06 8.78 162.13 9.78 161.20 10.79 C 161.67 7.21 161.78 3.59 161.29 0.00 Z" />
<path fill="#6e9b59" opacity="1.00" d=" M 217.29 0.00 L 223.20 0.00 C 222.27 1.21 222.53 2.11 224.00 2.72 L 224.00 6.51 C 223.90 5.81 223.69 4.41 223.59 3.72 C 222.35 5.04 221.12 6.37 219.89 7.70 C 218.97 8.68 218.05 9.66 217.13 10.64 C 217.71 7.12 217.78 3.54 217.29 0.00 Z" />
</g>
<g id="#85b061ff">
<path fill="#85b061" opacity="1.00" d=" M 55.80 0.00 L 56.25 0.00 C 55.99 4.12 55.78 8.25 55.60 12.37 L 54.86 11.62 C 54.27 11.05 53.68 10.49 53.07 9.94 C 54.63 9.24 53.41 6.94 51.94 7.73 C 53.42 5.25 54.51 2.58 55.80 0.00 Z" />
<path fill="#85b061" opacity="1.00" d=" M 111.80 0.00 L 112.23 0.00 C 111.97 4.13 111.75 8.27 111.57 12.41 L 110.82 11.63 C 110.25 11.06 109.66 10.50 109.07 9.94 C 110.63 9.26 109.42 6.94 107.95 7.72 C 109.42 5.24 110.51 2.57 111.80 0.00 Z" />
<path fill="#85b061" opacity="1.00" d=" M 167.80 0.00 L 168.25 0.00 C 167.99 4.12 167.77 8.25 167.60 12.37 L 166.85 11.62 C 166.27 11.05 165.67 10.49 165.07 9.94 C 166.63 9.25 165.41 6.94 163.94 7.73 C 165.41 5.25 166.51 2.58 167.80 0.00 Z" />
</g>
<g id="#268ed9ff">
<path fill="#268ed9" opacity="1.00" d=" M 97.07 0.00 L 98.59 0.00 C 98.71 0.71 98.95 2.14 99.08 2.85 C 98.02 2.32 96.64 1.39 97.07 0.00 Z" />
<path fill="#268ed9" opacity="1.00" d=" M 153.11 0.00 L 154.60 0.00 C 154.64 0.74 154.74 2.21 154.79 2.95 C 153.83 2.32 152.59 1.31 153.11 0.00 Z" />
<path fill="#268ed9" opacity="1.00" d=" M 209.07 0.00 L 210.59 0.00 C 210.71 0.71 210.96 2.13 211.08 2.85 C 210.02 2.32 208.64 1.39 209.07 0.00 Z" />
<path fill="#268ed9" opacity="1.00" d=" M 97.49 8.43 C 97.91 7.32 98.33 6.21 98.72 5.09 C 99.49 6.56 100.31 7.99 101.12 9.43 C 100.58 9.59 99.50 9.92 98.96 10.09 C 98.47 9.53 97.98 8.98 97.49 8.43 Z" />
<path fill="#268ed9" opacity="1.00" d=" M 153.34 8.38 C 153.99 7.27 154.64 6.15 155.28 5.03 C 155.90 6.50 156.57 7.95 157.25 9.39 C 156.71 9.58 155.61 9.94 155.07 10.13 C 154.49 9.55 153.91 8.96 153.34 8.38 Z" />
<path fill="#268ed9" opacity="1.00" d=" M 209.49 8.43 C 209.91 7.32 210.32 6.21 210.72 5.10 C 211.49 6.56 212.31 7.99 213.12 9.43 C 212.58 9.59 211.50 9.92 210.96 10.09 C 210.47 9.53 209.98 8.98 209.49 8.43 Z" />
</g>
<g id="#605f59ff">
<path fill="#605f59" opacity="1.00" d=" M 98.59 0.00 L 101.82 0.00 C 102.44 1.64 102.97 3.32 103.50 4.99 C 102.05 4.54 100.60 4.08 99.15 3.62 L 99.08 2.85 C 98.95 2.14 98.71 0.71 98.59 0.00 Z" />
<path fill="#605f59" opacity="1.00" d=" M 154.60 0.00 L 157.80 0.00 C 158.44 1.62 158.98 3.28 159.54 4.93 C 157.93 4.54 156.33 4.15 154.73 3.76 L 154.79 2.95 C 154.74 2.21 154.64 0.74 154.60 0.00 Z" />
<path fill="#605f59" opacity="1.00" d=" M 210.59 0.00 L 213.82 0.00 C 214.44 1.64 214.97 3.32 215.50 4.99 C 214.05 4.54 212.60 4.08 211.15 3.61 L 211.08 2.85 C 210.96 2.13 210.71 0.71 210.59 0.00 Z" />
</g>
<g id="#4f5546ff">
<path fill="#4f5546" opacity="1.00" d=" M 104.82 0.00 L 105.29 0.00 C 105.78 3.59 105.67 7.21 105.20 10.79 C 106.13 9.78 107.06 8.77 107.95 7.72 C 108.23 8.28 108.79 9.39 109.07 9.94 C 109.66 10.50 110.25 11.06 110.82 11.63 C 110.74 12.62 110.67 13.62 110.62 14.61 C 108.74 13.46 106.73 12.54 104.65 11.80 C 103.76 12.42 102.88 13.07 102.03 13.75 L 101.49 14.21 C 101.35 13.06 101.20 11.91 101.04 10.77 L 101.50 10.10 C 103.93 7.30 104.62 3.64 104.82 0.00 Z" />
<path fill="#4f5546" opacity="1.00" d=" M 160.82 0.00 L 161.29 0.00 C 161.78 3.59 161.67 7.21 161.20 10.79 C 162.13 9.78 163.06 8.78 163.94 7.73 C 164.23 8.28 164.79 9.39 165.07 9.94 C 165.67 10.49 166.27 11.05 166.85 11.62 C 166.77 12.61 166.71 13.60 166.67 14.60 C 164.79 13.47 162.77 12.56 160.70 11.85 C 159.75 12.42 158.82 13.02 157.92 13.65 L 157.35 14.08 C 157.29 12.97 157.22 11.86 157.14 10.74 L 157.58 10.08 C 159.92 7.24 160.57 3.60 160.82 0.00 Z" />
<path fill="#4f5546" opacity="1.00" d=" M 216.81 0.00 L 217.29 0.00 C 217.78 3.54 217.71 7.12 217.13 10.64 C 218.05 9.66 218.97 8.68 219.89 7.70 C 220.17 8.24 220.73 9.33 221.01 9.87 C 221.79 10.55 222.56 11.25 223.32 11.96 C 222.88 12.81 222.45 13.66 222.02 14.51 C 220.37 13.35 218.54 12.48 216.67 11.74 C 215.75 12.40 214.86 13.09 213.99 13.80 L 213.50 14.23 C 213.35 13.08 213.20 11.92 213.04 10.76 L 213.50 10.10 C 215.93 7.30 216.61 3.64 216.81 0.00 Z" />
</g>
<g id="#4277caff">
<path fill="#4277ca" opacity="1.00" d=" M 138.26 0.00 L 142.66 0.00 C 142.80 0.58 143.10 1.73 143.24 2.30 C 147.13 1.91 151.14 2.09 154.73 3.76 L 154.98 4.32 C 147.70 3.68 140.38 4.89 133.11 3.92 C 129.95 3.49 125.68 3.34 124.31 6.94 C 125.24 8.84 126.59 10.49 127.86 12.17 C 123.95 12.11 120.04 12.27 116.15 12.61 C 118.40 10.73 120.98 9.19 122.91 6.96 C 122.43 4.97 121.53 3.12 120.67 1.27 C 125.75 1.83 130.85 2.07 135.94 2.43 C 136.52 1.82 137.68 0.61 138.26 0.00 Z" />
</g>
<g id="#91bc69ff">
<path fill="#91bc69" opacity="1.00" d=" M 223.20 0.00 L 224.00 0.00 L 224.00 2.72 C 222.53 2.11 222.27 1.21 223.20 0.00 Z" />
</g>
<g id="#a0b6cbff">
<path fill="#a0b6cb" opacity="1.00" d=" M 41.71 2.45 C 42.13 2.06 42.97 1.27 43.39 0.88 C 43.74 2.11 43.83 3.35 43.68 4.60 C 43.33 4.64 42.64 4.70 42.30 4.74 C 42.10 4.39 41.71 3.68 41.51 3.33 L 41.71 2.45 Z" />
</g>
<g id="#4278caff">
<path fill="#4278ca" opacity="1.00" d=" M 64.68 2.33 C 76.14 3.91 87.69 1.85 99.15 3.62 L 98.94 4.34 C 91.95 4.92 84.92 5.92 77.91 5.00 C 74.54 4.58 69.84 4.03 68.31 7.94 C 69.24 9.84 70.59 11.49 71.86 13.17 C 67.95 13.11 64.04 13.27 60.15 13.61 C 62.40 11.73 64.98 10.19 66.91 7.96 C 66.45 5.98 65.54 4.16 64.68 2.33 Z" />
<path fill="#4278ca" opacity="1.00" d=" M 178.45 4.42 C 189.22 2.21 200.27 2.45 211.15 3.61 L 210.94 4.34 C 203.95 4.92 196.92 5.92 189.91 5.00 C 186.54 4.59 181.84 4.03 180.31 7.94 C 181.24 9.85 182.60 11.51 183.87 13.21 C 179.86 13.10 175.85 13.22 171.85 13.42 C 174.05 12.05 176.25 10.69 178.46 9.33 C 178.46 7.69 178.46 6.05 178.45 4.42 Z" />
</g>
<g id="#278bd7ff">
<path fill="#278bd7" opacity="1.00" d=" M 40.20 8.80 C 40.65 6.98 41.09 5.15 41.51 3.33 C 41.71 3.68 42.10 4.39 42.30 4.74 C 43.40 6.62 44.43 8.53 45.45 10.46 C 44.88 8.89 42.81 8.32 41.87 9.88 C 41.45 9.61 40.62 9.07 40.20 8.80 Z" />
</g>
<g id="#87b262ff">
<path fill="#87b262" opacity="1.00" d=" M 219.89 7.70 C 221.12 6.37 222.35 5.04 223.59 3.72 C 223.69 4.41 223.90 5.81 224.00 6.51 L 224.00 12.65 L 223.32 11.96 C 222.56 11.25 221.79 10.55 221.01 9.87 C 222.57 9.18 221.35 6.87 219.89 7.70 Z" />
</g>
<g id="#84a9b8ff">
<path fill="#84a9b8" opacity="1.00" d=" M 41.87 9.88 C 42.81 8.32 44.88 8.89 45.45 10.46 L 45.10 11.02 L 44.27 11.20 C 43.67 10.87 42.47 10.21 41.87 9.88 Z" />
</g>
<g id="#6c9c64ff">
<path fill="#6c9c64" opacity="1.00" d=" M 51.94 7.73 C 53.41 6.94 54.63 9.24 53.07 9.94 C 52.79 9.39 52.23 8.28 51.94 7.73 Z" />
<path fill="#6c9c64" opacity="1.00" d=" M 107.95 7.72 C 109.42 6.94 110.63 9.26 109.07 9.94 C 108.79 9.39 108.23 8.28 107.95 7.72 Z" />
<path fill="#6c9c64" opacity="1.00" d=" M 163.94 7.73 C 165.41 6.94 166.63 9.25 165.07 9.94 C 164.79 9.39 164.23 8.28 163.94 7.73 Z" />
<path fill="#6c9c64" opacity="1.00" d=" M 219.89 7.70 C 221.35 6.87 222.57 9.18 221.01 9.87 C 220.73 9.33 220.17 8.24 219.89 7.70 Z" />
</g>
<g id="#6fafb9ff">
<path fill="#6fafb9" opacity="1.00" d=" M 98.96 10.09 C 99.50 9.92 100.58 9.59 101.12 9.43 L 101.50 10.10 L 101.04 10.77 L 100.19 11.10 C 99.89 10.85 99.27 10.34 98.96 10.09 Z" />
<path fill="#6fafb9" opacity="1.00" d=" M 155.07 10.13 C 155.61 9.94 156.71 9.58 157.25 9.39 L 157.58 10.08 L 157.14 10.74 L 156.32 11.09 C 156.00 10.85 155.38 10.37 155.07 10.13 Z" />
<path fill="#6fafb9" opacity="1.00" d=" M 210.96 10.09 C 211.50 9.92 212.58 9.59 213.12 9.43 L 213.50 10.10 L 213.04 10.76 L 212.19 11.10 C 211.89 10.85 211.27 10.34 210.96 10.09 Z" />
</g>
<g id="#1aa9c1ff">
<path fill="#1aa9c1" opacity="1.00" d=" M 41.11 11.90 C 42.16 11.68 43.22 11.44 44.27 11.20 L 45.10 11.02 C 45.05 11.68 44.95 13.00 44.90 13.66 L 44.90 14.62 C 44.70 21.21 45.33 27.78 45.56 34.36 C 45.46 34.77 45.27 35.60 45.18 36.02 C 42.51 39.58 39.75 43.93 35.10 44.95 C 29.55 45.57 23.93 44.47 18.39 45.24 C 16.57 45.95 14.85 46.86 13.10 47.72 C 12.80 47.86 12.21 48.14 11.91 48.29 C 11.50 47.50 11.09 46.71 10.67 45.92 C 11.25 45.78 12.39 45.49 12.96 45.35 C 13.19 45.29 13.66 45.17 13.89 45.11 C 13.99 43.91 14.03 42.69 14.09 41.48 C 21.51 41.34 29.52 45.17 36.81 42.77 C 45.86 36.16 43.38 23.87 41.28 14.58 C 41.22 13.69 41.16 12.80 41.11 11.90 Z" />
</g>
<g id="#1aa8c0ff">
<path fill="#1aa8c0" opacity="1.00" d=" M 98.05 14.51 C 98.30 13.13 99.16 11.99 100.19 11.10 L 101.04 10.77 C 101.20 11.91 101.35 13.06 101.49 14.21 L 101.57 14.94 C 101.70 20.66 103.14 26.47 102.08 32.16 C 99.95 38.71 95.58 45.43 88.42 47.12 C 83.70 47.38 79.10 45.78 74.38 45.77 C 72.85 46.76 71.41 47.89 69.98 49.03 L 69.48 49.43 L 69.04 49.89 C 68.77 49.75 68.22 49.48 67.95 49.34 L 67.50 48.70 L 66.98 47.86 C 72.66 40.25 83.16 45.10 90.99 43.84 C 95.98 40.81 99.53 35.62 100.77 29.95 C 100.84 24.69 98.85 19.65 98.05 14.51 Z" />
<path fill="#1aa8c0" opacity="1.00" d=" M 210.04 14.50 C 210.30 13.13 211.16 11.99 212.19 11.10 L 213.04 10.76 C 213.20 11.92 213.35 13.08 213.50 14.23 L 213.57 14.95 C 213.70 20.67 215.14 26.47 214.08 32.16 C 211.95 38.71 207.58 45.43 200.42 47.12 C 195.70 47.38 191.10 45.78 186.38 45.77 C 184.85 46.76 183.41 47.89 181.98 49.03 L 181.48 49.43 L 181.04 49.89 C 180.77 49.75 180.22 49.48 179.95 49.34 L 179.50 48.70 L 178.98 47.86 C 184.66 40.25 195.16 45.10 202.99 43.84 C 207.98 40.81 211.53 35.62 212.77 29.95 C 212.85 24.69 210.85 19.64 210.04 14.50 Z" />
</g>
<g id="#1ba5c1ff">
<path fill="#1ba5c1" opacity="1.00" d=" M 154.05 14.32 C 153.83 12.76 155.15 11.80 156.32 11.09 L 157.14 10.74 C 157.22 11.86 157.29 12.97 157.35 14.08 L 157.37 14.78 C 157.37 16.60 157.31 18.41 157.34 20.22 C 156.26 18.25 155.08 16.33 154.05 14.32 Z" />
</g>
<g id="#d8d389ff">
<path fill="#d8d389" opacity="1.00" d=" M 46.78 11.31 C 47.22 11.50 48.10 11.87 48.55 12.05 C 50.88 14.00 53.11 16.05 55.28 18.17 C 55.36 18.61 55.52 19.49 55.60 19.93 C 55.61 20.59 55.62 21.90 55.62 22.56 C 55.03 27.04 54.40 31.52 54.02 36.03 C 53.84 37.89 53.60 39.75 53.22 41.58 C 52.93 40.03 52.66 38.47 52.41 36.91 C 49.49 41.76 46.18 46.54 41.50 49.84 C 43.83 46.88 46.18 43.94 48.40 40.89 C 47.17 41.60 45.93 42.29 44.72 43.04 C 46.21 40.46 47.55 37.80 49.03 35.21 C 49.78 34.02 50.42 32.70 50.44 31.26 C 50.48 30.78 50.57 29.82 50.62 29.34 C 51.28 24.48 51.23 19.14 47.38 15.55 C 47.17 14.14 46.97 12.73 46.78 11.31 Z" />
<path fill="#d8d389" opacity="1.00" d=" M 157.92 13.65 C 158.82 13.02 159.75 12.42 160.70 11.85 C 162.82 14.06 165.11 16.10 167.30 18.26 C 167.38 18.68 167.53 19.52 167.61 19.94 C 167.61 20.59 167.63 21.91 167.63 22.56 C 166.14 27.73 165.32 33.15 166.63 38.45 C 166.19 39.54 165.73 40.63 165.27 41.70 C 164.96 40.10 164.66 38.49 164.39 36.88 C 161.11 42.09 157.32 46.95 153.51 51.77 C 155.25 51.64 156.99 51.50 158.74 51.37 C 155.18 53.30 151.32 54.57 147.34 55.24 C 140.29 54.60 132.17 56.11 126.70 50.54 L 126.03 49.48 L 127.19 49.35 C 128.63 50.00 130.05 50.70 131.47 51.39 C 137.44 54.62 145.23 54.83 150.44 50.07 C 151.31 49.44 152.14 48.76 152.97 48.06 C 155.54 45.92 158.13 43.80 160.67 41.62 C 159.88 41.59 158.31 41.53 157.52 41.50 C 157.76 41.16 158.24 40.48 158.48 40.14 C 159.86 38.40 161.33 36.75 162.78 35.08 C 163.84 34.08 164.38 32.54 163.98 31.10 C 163.60 28.77 163.18 26.44 162.78 24.11 C 163.28 22.75 163.43 21.07 162.27 19.99 C 160.72 17.95 159.30 15.81 157.92 13.65 Z" />
</g>
<g id="#a9a16aff">
<path fill="#a9a16a" opacity="1.00" d=" M 48.55 12.05 C 50.61 12.86 52.68 13.65 54.66 14.67 C 54.86 15.84 55.07 17.00 55.28 18.17 C 53.11 16.05 50.88 14.00 48.55 12.05 Z" />
<path fill="#a9a16a" opacity="1.00" d=" M 104.65 11.80 C 106.73 12.54 108.74 13.46 110.62 14.61 C 110.85 15.83 111.09 17.04 111.35 18.25 C 109.13 16.09 106.81 14.03 104.65 11.80 Z" />
<path fill="#a9a16a" opacity="1.00" d=" M 160.70 11.85 C 162.77 12.56 164.79 13.47 166.67 14.60 C 166.87 15.82 167.08 17.04 167.30 18.26 C 165.11 16.10 162.82 14.06 160.70 11.85 Z" />
<path fill="#a9a16a" opacity="1.00" d=" M 216.67 11.74 C 218.54 12.48 220.37 13.35 222.02 14.51 C 222.47 15.76 222.90 17.02 223.32 18.28 C 221.10 16.10 218.79 14.02 216.67 11.74 Z" />
</g>
<g id="#6a9a61ff">
<path fill="#6a9a61" opacity="1.00" d=" M 54.86 11.62 L 55.60 12.37 C 55.62 13.73 55.63 15.08 55.63 16.44 C 55.63 16.99 55.62 18.10 55.61 18.65 L 55.60 19.93 C 55.52 19.49 55.36 18.61 55.28 18.17 C 55.07 17.00 54.86 15.84 54.66 14.67 C 54.70 13.65 54.77 12.64 54.86 11.62 Z" />
<path fill="#6a9a61" opacity="1.00" d=" M 110.82 11.63 L 111.57 12.41 C 111.60 13.18 111.65 14.71 111.68 15.48 C 111.69 15.99 111.72 17.01 111.73 17.52 C 111.75 18.19 111.79 19.54 111.81 20.21 C 111.70 19.72 111.47 18.74 111.35 18.25 C 111.09 17.04 110.85 15.83 110.62 14.61 C 110.67 13.62 110.74 12.62 110.82 11.63 Z" />
<path fill="#6a9a61" opacity="1.00" d=" M 166.85 11.62 L 167.60 12.37 C 167.62 13.73 167.63 15.08 167.63 16.44 C 167.62 16.98 167.62 18.06 167.61 18.60 L 167.61 19.94 C 167.53 19.52 167.38 18.68 167.30 18.26 C 167.08 17.04 166.87 15.82 166.67 14.60 C 166.71 13.60 166.77 12.61 166.85 11.62 Z" />
<path fill="#6a9a61" opacity="1.00" d=" M 223.32 11.96 L 224.00 12.65 L 224.00 20.47 C 223.83 19.93 223.49 18.83 223.32 18.28 C 222.90 17.02 222.47 15.76 222.02 14.51 C 222.45 13.66 222.88 12.81 223.32 11.96 Z" />
</g>
<g id="#cbc686ff">
<path fill="#cbc686" opacity="1.00" d=" M 102.03 13.75 C 102.88 13.07 103.76 12.42 104.65 11.80 C 106.81 14.03 109.13 16.09 111.35 18.25 C 111.47 18.74 111.70 19.72 111.81 20.21 C 111.85 20.89 111.92 22.26 111.95 22.94 C 111.38 23.27 110.23 23.93 109.66 24.26 C 109.40 22.31 109.16 20.34 108.64 18.43 C 107.60 18.05 105.52 17.28 104.48 16.89 C 103.65 15.85 102.84 14.80 102.03 13.75 Z" />
<path fill="#cbc686" opacity="1.00" d=" M 213.99 13.80 C 214.86 13.09 215.75 12.40 216.67 11.74 C 218.79 14.02 221.10 16.10 223.32 18.28 C 223.49 18.83 223.83 19.93 224.00 20.47 L 224.00 22.80 C 223.43 23.16 222.29 23.88 221.73 24.25 C 221.57 20.92 220.64 17.47 216.68 16.66 C 215.77 15.72 214.87 14.76 213.99 13.80 Z" />
</g>
<g id="#4279caff">
<path fill="#4279ca" opacity="1.00" d=" M 111.68 15.48 C 118.56 18.52 125.53 16.31 132.13 13.66 C 129.42 15.00 126.64 16.19 123.88 17.41 C 123.86 19.13 123.94 20.84 123.96 22.56 C 119.85 24.13 115.88 26.04 111.94 28.00 C 111.95 27.52 111.98 26.56 111.99 26.08 C 115.37 24.13 118.99 22.67 122.52 21.03 C 119.06 19.49 115.42 18.38 111.73 17.52 C 111.72 17.01 111.69 15.99 111.68 15.48 Z" />
</g>
<g id="#a1e0a2ff">
<path fill="#a1e0a2" opacity="1.00" d=" M 44.90 13.66 C 45.86 14.99 46.83 16.33 47.76 17.69 C 48.93 21.51 49.90 25.40 50.62 29.34 C 50.57 29.82 50.48 30.78 50.44 31.26 C 48.41 31.39 47.46 33.84 49.03 35.21 C 47.55 37.80 46.21 40.46 44.72 43.04 C 43.61 44.58 42.53 46.15 41.49 47.74 C 41.10 48.02 40.30 48.57 39.91 48.84 C 32.11 49.50 24.26 49.57 16.45 48.97 C 15.50 48.87 14.55 48.75 13.61 48.60 L 13.10 47.72 C 14.85 46.86 16.57 45.95 18.39 45.24 C 24.56 47.65 31.72 48.75 38.00 46.05 C 42.09 44.42 43.53 39.75 45.18 36.02 C 45.27 35.60 45.46 34.77 45.56 34.36 C 46.55 27.80 45.85 21.14 44.90 14.62 L 44.90 13.66 Z" />
</g>
<g id="#a1e1a3ff">
<path fill="#a1e1a3" opacity="1.00" d=" M 101.49 14.21 L 102.03 13.75 C 102.84 14.80 103.65 15.85 104.48 16.89 C 105.04 17.93 105.51 19.01 105.92 20.12 C 106.28 23.19 106.63 26.27 106.83 29.36 C 106.44 37.27 100.50 43.09 95.59 48.65 C 92.50 49.64 89.30 50.30 86.05 50.37 C 93.05 47.62 99.66 42.90 102.98 35.97 C 105.10 29.00 103.23 21.77 101.57 14.94 L 101.49 14.21 Z" />
<path fill="#a1e1a3" opacity="1.00" d=" M 213.50 14.23 L 213.99 13.80 C 214.87 14.76 215.77 15.72 216.68 16.66 C 217.15 17.78 217.56 18.94 217.90 20.12 C 218.26 23.19 218.63 26.27 218.83 29.36 C 218.43 37.27 212.50 43.09 207.59 48.65 C 204.50 49.64 201.30 50.30 198.05 50.37 C 205.05 47.62 211.66 42.90 214.98 35.97 C 217.09 29.00 215.24 21.78 213.57 14.95 L 213.50 14.23 Z" />
</g>
<g id="#a2dfa1fe">
<path fill="#a2dfa1" opacity="1.00" d=" M 157.35 14.08 L 157.92 13.65 C 159.30 15.81 160.72 17.95 162.27 19.99 C 161.03 21.20 161.83 23.01 162.78 24.11 C 163.18 26.44 163.60 28.77 163.98 31.10 C 162.21 31.56 161.47 33.74 162.78 35.08 C 161.33 36.75 159.86 38.40 158.48 40.14 L 158.26 39.18 C 159.39 38.42 159.80 37.37 159.50 36.02 C 159.53 35.59 159.58 34.75 159.61 34.32 C 160.95 27.66 159.19 21.17 157.37 14.78 L 157.35 14.08 Z" />
</g>
<g id="#4378cbff">
<path fill="#4378cb" opacity="1.00" d=" M 41.28 14.58 C 43.38 23.87 45.86 36.16 36.81 42.77 C 29.52 45.17 21.51 41.34 14.09 41.48 C 18.11 40.34 22.18 39.36 26.24 38.33 C 23.24 37.56 20.25 36.44 17.12 36.45 C 13.93 36.70 11.12 38.43 8.32 39.83 C 9.82 41.70 11.31 43.59 12.96 45.35 C 12.39 45.49 11.25 45.78 10.67 45.92 C 9.52 43.93 8.58 41.71 6.85 40.15 C 4.71 39.13 2.29 38.89 0.00 38.37 L 0.00 38.03 C 6.68 36.94 13.38 35.70 19.71 33.24 C 18.64 31.38 17.59 29.51 16.47 27.69 C 19.74 27.28 23.54 27.44 26.18 25.17 C 28.74 22.57 23.97 20.97 22.39 19.32 C 28.34 18.92 34.33 17.20 40.25 18.75 C 40.61 17.36 40.97 15.98 41.28 14.58 M 27.56 23.08 C 28.33 24.47 29.13 25.86 29.94 27.24 C 26.42 27.22 23.00 28.12 19.84 29.65 C 19.87 30.53 19.93 32.29 19.96 33.17 C 22.26 34.19 24.50 35.46 27.01 35.84 C 29.67 35.64 32.01 34.21 34.40 33.15 C 33.69 31.32 32.99 29.50 32.31 27.66 C 33.17 28.15 34.04 28.65 34.90 29.14 C 35.19 32.20 36.88 34.73 39.79 35.89 C 40.03 30.78 40.01 25.67 40.09 20.55 C 35.71 19.81 31.38 20.93 27.56 23.08 M 29.40 42.28 C 33.04 40.59 36.73 38.85 39.78 36.19 C 34.49 34.86 30.55 37.42 29.40 42.28 Z" />
</g>
<g id="#3fcdbeff">
<path fill="#3fcdbe" opacity="1.00" d=" M 45.56 34.36 C 45.33 27.78 44.70 21.21 44.90 14.62 C 45.85 21.14 46.55 27.80 45.56 34.36 Z" />
</g>
<g id="#4377cbff">
<path fill="#4377cb" opacity="1.00" d=" M 98.05 14.51 C 98.85 19.65 100.84 24.69 100.77 29.95 C 99.53 35.62 95.98 40.81 90.99 43.84 C 83.16 45.10 72.66 40.25 66.98 47.86 C 64.92 44.53 62.73 41.29 60.43 38.12 C 63.94 37.02 67.53 36.11 70.93 34.71 C 73.91 33.47 73.20 29.55 74.07 26.89 C 80.91 23.93 88.26 25.48 95.28 26.89 C 94.74 29.46 94.96 32.32 93.59 34.61 C 91.46 36.50 88.39 36.97 86.00 38.35 C 86.48 40.26 86.99 42.15 87.51 44.04 C 90.43 41.52 93.89 39.12 95.32 35.39 C 97.09 28.56 96.07 21.30 98.05 14.51 M 73.89 31.93 C 80.24 35.79 87.69 35.27 94.14 31.96 C 90.90 23.70 77.14 23.68 73.89 31.93 M 63.76 39.41 C 64.37 41.17 65.18 42.84 66.13 44.44 C 71.41 42.91 76.53 40.86 81.85 39.48 C 81.90 38.83 81.99 37.54 82.03 36.89 C 75.71 34.31 69.48 36.73 63.76 39.41 Z" />
<path fill="#4377cb" opacity="1.00" d=" M 210.04 14.50 C 210.85 19.64 212.85 24.69 212.77 29.95 C 211.53 35.62 207.98 40.81 202.99 43.84 C 195.16 45.10 184.66 40.25 178.98 47.86 C 176.92 44.53 174.73 41.29 172.43 38.12 C 175.94 37.02 179.52 36.11 182.93 34.71 C 185.91 33.47 185.20 29.55 186.07 26.89 C 193.34 23.73 201.16 25.64 208.51 27.50 C 208.71 23.14 208.75 18.71 210.04 14.50 M 186.86 28.68 C 186.87 29.59 186.89 31.40 186.90 32.31 C 192.45 36.33 199.55 36.32 205.11 32.30 C 205.11 31.41 205.11 29.63 205.11 28.73 C 199.57 25.06 192.53 25.54 186.86 28.68 M 206.22 28.98 C 205.16 29.57 205.16 31.43 206.22 32.02 C 208.01 32.35 208.01 28.65 206.22 28.98 M 176.15 39.10 C 176.05 39.94 175.83 41.62 175.73 42.46 C 181.95 45.76 187.57 39.18 193.87 39.30 C 193.91 38.70 193.98 37.50 194.02 36.90 C 187.89 34.49 181.75 36.48 176.15 39.10 M 197.74 37.34 C 198.14 39.01 198.55 40.67 198.97 42.33 C 201.61 40.58 204.25 38.81 206.95 37.13 C 206.65 36.52 206.34 35.91 206.04 35.30 C 203.31 36.06 200.49 36.71 197.74 37.34 Z" />
</g>
<g id="#40cebeff">
<path fill="#40cebe" opacity="1.00" d=" M 102.08 32.16 C 103.14 26.47 101.70 20.66 101.57 14.94 C 103.23 21.77 105.10 29.00 102.98 35.97 C 99.66 42.90 93.05 47.62 86.05 50.37 L 85.27 50.37 C 81.58 49.00 77.97 47.39 74.38 45.77 C 79.10 45.78 83.70 47.38 88.42 47.12 C 95.58 45.43 99.95 38.71 102.08 32.16 Z" />
<path fill="#40cebe" opacity="1.00" d=" M 214.08 32.16 C 215.14 26.47 213.70 20.67 213.57 14.95 C 215.24 21.78 217.09 29.00 214.98 35.97 C 211.66 42.90 205.05 47.62 198.05 50.37 L 197.27 50.37 C 193.58 49.00 189.97 47.39 186.38 45.77 C 191.10 45.78 195.70 47.38 200.42 47.12 C 207.58 45.43 211.95 38.71 214.08 32.16 Z" />
</g>
<g id="#4377caff">
<path fill="#4377ca" opacity="1.00" d=" M 151.82 39.09 C 155.07 31.29 154.41 22.56 154.05 14.32 C 155.08 16.33 156.26 18.25 157.34 20.22 L 157.44 20.96 C 157.26 25.73 157.47 30.55 156.80 35.29 C 156.23 39.70 152.26 42.55 148.98 45.04 C 143.82 48.73 137.47 44.32 131.98 44.29 C 128.57 43.45 125.57 45.76 123.96 48.57 L 123.48 48.18 C 121.47 46.50 119.60 44.67 117.71 42.88 C 125.39 43.17 132.75 40.94 139.92 38.47 C 135.61 36.51 131.11 35.04 126.63 33.57 C 128.86 30.20 129.89 25.35 134.23 24.13 C 139.78 22.00 145.64 24.20 150.95 25.96 C 151.03 28.69 151.09 31.42 151.15 34.15 C 147.92 35.18 144.64 36.12 141.38 37.03 C 141.53 39.88 141.80 42.72 142.12 45.56 C 145.80 44.34 150.10 42.93 151.82 39.09 M 129.85 27.68 C 129.88 28.56 129.93 30.31 129.96 31.18 C 136.29 34.36 143.70 34.36 150.04 31.18 C 150.07 30.31 150.12 28.56 150.15 27.68 C 143.91 24.26 136.09 24.26 129.85 27.68 Z" />
</g>
<g id="#40cfbeff">
<path fill="#40cfbe" opacity="1.00" d=" M 157.34 20.22 C 157.31 18.41 157.37 16.60 157.37 14.78 C 159.19 21.17 160.95 27.66 159.61 34.32 C 159.10 29.83 158.27 25.40 157.44 20.96 L 157.34 20.22 Z" />
<path fill="#40cfbe" opacity="1.00" d=" M 124.04 50.08 C 126.99 48.54 130.01 46.25 133.53 46.65 C 137.56 47.19 141.43 48.54 145.35 49.56 C 143.67 49.96 141.98 50.27 140.26 50.42 C 139.25 50.37 138.25 50.30 137.25 50.20 C 133.95 49.49 130.57 48.75 127.19 49.35 L 126.03 49.48 C 125.53 49.63 124.53 49.93 124.04 50.08 Z" />
</g>
<g id="#ecefa8ff">
<path fill="#ecefa8" opacity="1.00" d=" M 47.38 15.55 C 51.23 19.14 51.28 24.48 50.62 29.34 C 49.90 25.40 48.93 21.51 47.76 17.69 C 47.66 17.15 47.48 16.09 47.38 15.55 Z" />
</g>
<g id="#427acbff">
<path fill="#427acb" opacity="1.00" d=" M 55.63 16.44 C 60.09 17.77 64.76 19.04 69.35 17.56 C 68.64 19.88 68.06 22.23 67.64 24.61 C 63.75 26.32 59.96 28.32 55.90 29.61 C 55.89 29.12 55.86 28.12 55.85 27.62 C 59.60 25.85 63.45 24.26 67.02 22.12 C 63.36 20.53 59.54 19.36 55.61 18.65 C 55.62 18.10 55.63 16.99 55.63 16.44 Z" />
<path fill="#427acb" opacity="1.00" d=" M 167.63 16.44 C 172.09 17.77 176.76 19.04 181.35 17.56 C 180.64 19.88 180.06 22.23 179.64 24.61 C 175.75 26.32 171.98 28.31 167.92 29.61 C 167.90 29.09 167.88 28.07 167.86 27.55 C 171.56 25.87 175.34 24.34 178.97 22.51 C 175.45 20.52 171.57 19.33 167.61 18.60 C 167.62 18.06 167.62 16.98 167.63 16.44 Z" />
<path fill="#427acb" opacity="1.00" d=" M 0.00 17.42 C 6.39 20.62 13.35 19.33 19.98 17.77 C 17.80 18.73 15.58 19.62 13.52 20.84 C 11.23 21.91 11.92 24.83 11.56 26.86 C 7.68 28.20 3.83 29.63 0.00 31.09 L 0.00 29.19 C 3.85 27.59 7.76 26.10 11.38 23.99 C 7.77 21.90 3.86 20.42 0.00 18.86 L 0.00 17.42 Z" />
</g>
<g id="#ded98bff">
<path fill="#ded98b" opacity="1.00" d=" M 104.48 16.89 C 105.52 17.28 107.60 18.05 108.64 18.43 C 109.16 20.34 109.40 22.31 109.66 24.26 C 110.00 28.18 110.15 32.11 110.19 36.04 C 110.09 37.88 109.84 39.72 109.36 41.51 C 108.80 39.76 108.27 38.00 107.69 36.26 C 105.91 41.50 102.42 45.92 98.30 49.54 C 96.57 51.15 94.96 52.89 93.36 54.62 C 92.85 54.66 91.82 54.75 91.31 54.79 C 84.24 54.93 76.44 55.79 70.64 50.94 C 70.35 50.56 69.77 49.81 69.48 49.43 L 69.98 49.03 C 71.72 49.29 73.43 49.64 75.17 49.91 C 80.31 56.13 90.69 54.38 95.59 48.65 C 100.50 43.09 106.44 37.27 106.83 29.36 C 107.13 26.25 106.51 23.16 105.92 20.12 C 105.51 19.01 105.04 17.93 104.48 16.89 M 103.08 41.31 C 101.66 41.24 101.40 43.68 102.92 43.69 C 104.33 43.76 104.60 41.32 103.08 41.31 Z" />
<path fill="#ded98b" opacity="1.00" d=" M 216.68 16.66 C 220.64 17.47 221.57 20.92 221.73 24.25 C 222.08 28.45 222.50 32.65 222.97 36.85 C 222.40 38.41 221.87 39.98 221.31 41.54 C 220.77 39.78 220.26 38.01 219.70 36.25 C 217.92 41.49 214.43 45.92 210.30 49.54 C 208.57 51.15 206.96 52.89 205.36 54.62 C 204.85 54.66 203.82 54.75 203.31 54.79 C 196.24 54.93 188.44 55.79 182.64 50.94 C 182.35 50.56 181.77 49.81 181.48 49.43 L 181.98 49.03 C 183.71 49.29 185.43 49.64 187.17 49.91 C 192.31 56.13 202.69 54.38 207.59 48.65 C 212.50 43.09 218.43 37.27 218.83 29.36 C 219.13 26.25 218.49 23.16 217.90 20.12 C 217.56 18.94 217.15 17.78 216.68 16.66 M 215.08 41.31 C 213.66 41.24 213.39 43.68 214.92 43.69 C 216.33 43.76 216.60 41.32 215.08 41.31 Z" />
</g>
<g id="#3c6abefe">
<path fill="#3c6abe" opacity="1.00" d=" M 55.61 18.65 C 59.54 19.36 63.36 20.53 67.02 22.12 C 63.45 24.26 59.60 25.85 55.85 27.62 C 55.77 25.94 55.69 24.25 55.62 22.56 C 55.62 21.90 55.61 20.59 55.60 19.93 L 55.61 18.65 Z" />
<path fill="#3c6abe" opacity="1.00" d=" M 167.61 18.60 C 171.57 19.33 175.45 20.52 178.97 22.51 C 175.34 24.34 171.56 25.87 167.86 27.55 C 167.78 25.89 167.70 24.23 167.63 22.56 C 167.63 21.91 167.61 20.59 167.61 19.94 L 167.61 18.60 Z" />
</g>
<g id="#3c6abeff">
<path fill="#3c6abe" opacity="1.00" d=" M 0.00 18.86 C 3.86 20.42 7.77 21.90 11.38 23.99 C 7.76 26.10 3.85 27.59 0.00 29.19 L 0.00 18.86 Z" />
<path fill="#3c6abe" opacity="1.00" d=" M 176.15 39.10 C 181.75 36.48 187.89 34.49 194.02 36.90 C 193.98 37.50 193.91 38.70 193.87 39.30 C 187.57 39.18 181.95 45.76 175.73 42.46 C 175.83 41.62 176.05 39.94 176.15 39.10 Z" />
</g>
<g id="#3c6bbdff">
<path fill="#3c6bbd" opacity="1.00" d=" M 27.56 23.08 C 31.38 20.93 35.71 19.81 40.09 20.55 C 40.01 25.67 40.03 30.78 39.79 35.89 C 36.88 34.73 35.19 32.20 34.90 29.14 C 34.04 28.65 33.17 28.15 32.31 27.66 C 32.99 29.50 33.69 31.32 34.40 33.15 C 32.01 34.21 29.67 35.64 27.01 35.84 C 24.50 35.46 22.26 34.19 19.96 33.17 C 19.93 32.29 19.87 30.53 19.84 29.65 C 23.00 28.12 26.42 27.22 29.94 27.24 C 29.13 25.86 28.33 24.47 27.56 23.08 Z" />
<path fill="#3c6bbd" opacity="1.00" d=" M 129.85 27.68 C 136.09 24.26 143.91 24.26 150.15 27.68 C 150.12 28.56 150.07 30.31 150.04 31.18 C 143.70 34.36 136.29 34.36 129.96 31.18 C 129.93 30.31 129.88 28.56 129.85 27.68 Z" />
<path fill="#3c6bbd" opacity="1.00" d=" M 73.89 31.93 C 77.14 23.68 90.90 23.70 94.14 31.96 C 87.69 35.27 80.24 35.79 73.89 31.93 Z" />
<path fill="#3c6bbd" opacity="1.00" d=" M 63.76 39.41 C 69.48 36.73 75.71 34.31 82.03 36.89 C 81.99 37.54 81.90 38.83 81.85 39.48 C 76.53 40.86 71.41 42.91 66.13 44.44 C 65.18 42.84 64.37 41.17 63.76 39.41 Z" />
</g>
<g id="#eef1adff">
<path fill="#eef1ad" opacity="1.00" d=" M 105.92 20.12 C 106.51 23.16 107.13 26.25 106.83 29.36 C 106.63 26.27 106.28 23.19 105.92 20.12 Z" />
<path fill="#eef1ad" opacity="1.00" d=" M 217.90 20.12 C 218.49 23.16 219.13 26.25 218.83 29.36 C 218.63 26.27 218.26 23.19 217.90 20.12 Z" />
<path fill="#eef1ad" opacity="1.00" d=" M 44.72 43.04 C 45.93 42.29 47.17 41.60 48.40 40.89 C 46.18 43.94 43.83 46.88 41.50 49.84 L 41.12 48.52 L 41.49 47.74 C 42.53 46.15 43.61 44.58 44.72 43.04 Z" />
<path fill="#eef1ad" opacity="1.00" d=" M 157.52 41.50 C 158.31 41.53 159.88 41.59 160.67 41.62 C 158.13 43.80 155.54 45.92 152.97 48.06 C 154.53 45.91 156.01 43.69 157.52 41.50 Z" />
</g>
<g id="#eef2adff">
<path fill="#eef2ad" opacity="1.00" d=" M 162.27 19.99 C 163.43 21.07 163.28 22.75 162.78 24.11 C 161.83 23.01 161.03 21.20 162.27 19.99 Z" />
<path fill="#eef2ad" opacity="1.00" d=" M 49.03 35.21 C 47.46 33.84 48.41 31.39 50.44 31.26 C 50.42 32.70 49.78 34.02 49.03 35.21 Z" />
<path fill="#eef2ad" opacity="1.00" d=" M 162.78 35.08 C 161.47 33.74 162.21 31.56 163.98 31.10 C 164.38 32.54 163.84 34.08 162.78 35.08 Z" />
<path fill="#eef2ad" opacity="1.00" d=" M 103.08 41.31 C 104.60 41.32 104.33 43.76 102.92 43.69 C 101.40 43.68 101.66 41.24 103.08 41.31 Z" />
<path fill="#eef2ad" opacity="1.00" d=" M 215.08 41.31 C 216.60 41.32 216.33 43.76 214.92 43.69 C 213.39 43.68 213.66 41.24 215.08 41.31 Z" />
</g>
<g id="#1ca9c0ff">
<path fill="#1ca9c0" opacity="1.00" d=" M 157.44 20.96 C 158.27 25.40 159.10 29.83 159.61 34.32 C 159.58 34.75 159.53 35.59 159.50 36.02 C 158.17 36.72 157.76 37.78 158.26 39.18 L 158.48 40.14 L 157.78 40.67 C 155.81 42.11 153.95 43.68 152.10 45.26 C 150.04 46.96 147.75 48.38 145.35 49.56 C 141.43 48.54 137.56 47.19 133.53 46.65 C 130.01 46.25 126.99 48.54 124.04 50.08 C 124.02 49.71 123.98 48.95 123.96 48.57 C 125.57 45.76 128.57 43.45 131.98 44.29 C 137.47 44.32 143.82 48.73 148.98 45.04 C 152.26 42.55 156.23 39.70 156.80 35.29 C 157.47 30.55 157.26 25.73 157.44 20.96 Z" />
</g>
<g id="#b0ae6eff">
<path fill="#b0ae6e" opacity="1.00" d=" M 54.02 36.03 C 54.40 31.52 55.03 27.04 55.62 22.56 C 55.69 24.25 55.77 25.94 55.85 27.62 C 55.86 28.12 55.89 29.12 55.90 29.61 C 55.92 30.21 55.95 31.42 55.97 32.02 C 54.36 32.41 54.38 34.61 56.01 34.95 L 55.99 35.86 C 55.50 35.90 54.51 35.99 54.02 36.03 Z" />
<path fill="#b0ae6e" opacity="1.00" d=" M 109.66 24.26 C 110.23 23.93 111.38 23.27 111.95 22.94 C 111.96 23.73 111.98 25.30 111.99 26.08 C 111.98 26.56 111.95 27.52 111.94 28.00 C 111.91 29.34 111.89 30.68 111.88 32.03 C 110.30 32.49 110.37 34.67 112.01 34.96 L 111.99 35.87 C 111.54 35.91 110.64 36.00 110.19 36.04 C 110.15 32.11 110.00 28.18 109.66 24.26 Z" />
<path fill="#b0ae6e" opacity="1.00" d=" M 221.73 24.25 C 222.29 23.88 223.43 23.16 224.00 22.80 L 224.00 31.98 C 222.12 31.97 222.08 34.69 224.00 34.61 L 224.00 34.93 C 223.74 35.41 223.23 36.37 222.97 36.85 C 222.50 32.65 222.08 28.45 221.73 24.25 Z" />
</g>
<g id="#adaa6aff">
<path fill="#adaa6a" opacity="1.00" d=" M 166.63 38.45 C 165.32 33.15 166.14 27.73 167.63 22.56 C 167.70 24.23 167.78 25.89 167.86 27.55 C 167.88 28.07 167.90 29.09 167.92 29.61 C 167.94 30.20 167.98 31.39 168.01 31.98 C 166.40 32.28 166.25 34.46 167.87 34.88 L 167.69 35.69 C 167.42 36.38 166.89 37.76 166.63 38.45 Z" />
</g>
<g id="#3d6bbdff">
<path fill="#3d6bbd" opacity="1.00" d=" M 186.86 28.68 C 192.53 25.54 199.57 25.06 205.11 28.73 C 205.11 29.63 205.11 31.41 205.11 32.30 C 199.55 36.32 192.45 36.33 186.90 32.31 C 186.89 31.40 186.87 29.59 186.86 28.68 Z" />
</g>
<g id="#596753ff">
<path fill="#596753" opacity="1.00" d=" M 56.01 34.95 C 54.38 34.61 54.36 32.41 55.97 32.02 C 55.98 32.75 56.00 34.22 56.01 34.95 Z" />
<path fill="#596753" opacity="1.00" d=" M 112.01 34.96 C 110.37 34.67 110.30 32.49 111.88 32.03 C 111.91 32.76 111.98 34.23 112.01 34.96 Z" />
<path fill="#596753" opacity="1.00" d=" M 167.87 34.88 C 166.25 34.46 166.40 32.28 168.01 31.98 C 167.97 32.71 167.90 34.16 167.87 34.88 Z" />
<path fill="#596753" opacity="1.00" d=" M 224.00 34.61 C 222.08 34.69 222.12 31.97 224.00 31.98 L 224.00 34.61 Z" />
</g>
<g id="#4379caff">
<path fill="#4379ca" opacity="1.00" d=" M 114.61 36.94 C 119.61 37.62 124.48 35.92 129.38 35.16 C 125.33 37.07 121.21 38.86 117.28 41.03 C 117.39 40.58 117.59 39.69 117.69 39.24 C 116.45 39.05 115.21 38.86 113.97 38.68 C 114.18 38.10 114.39 37.52 114.61 36.94 Z" />
</g>
<g id="#3b6cbeff">
<path fill="#3b6cbe" opacity="1.00" d=" M 8.32 39.83 C 11.12 38.43 13.93 36.70 17.12 36.45 C 20.25 36.44 23.24 37.56 26.24 38.33 C 22.18 39.36 18.11 40.34 14.09 41.48 C 14.03 42.69 13.99 43.91 13.89 45.11 C 13.66 45.17 13.19 45.29 12.96 45.35 C 11.31 43.59 9.82 41.70 8.32 39.83 Z" />
</g>
<g id="#40cebefe">
<path fill="#40cebe" opacity="1.00" d=" M 35.10 44.95 C 39.75 43.93 42.51 39.58 45.18 36.02 C 43.53 39.75 42.09 44.42 38.00 46.05 C 31.72 48.75 24.56 47.65 18.39 45.24 C 23.93 44.47 29.55 45.57 35.10 44.95 Z" />
</g>
<g id="#85ae5fff">
<path fill="#85ae5f" opacity="1.00" d=" M 54.02 36.03 C 54.51 35.99 55.50 35.90 55.99 35.86 C 55.88 40.31 55.79 44.76 55.69 49.21 C 54.70 49.74 53.71 50.26 52.71 50.78 C 51.94 49.91 51.16 49.05 50.38 48.18 C 51.43 50.15 52.54 52.08 53.70 53.98 C 51.38 53.93 49.05 53.89 46.73 53.86 C 48.02 54.59 49.30 55.32 50.61 56.00 L 36.05 56.00 C 36.05 55.68 36.07 55.04 36.08 54.72 C 36.55 54.70 37.49 54.65 37.96 54.62 C 41.08 54.21 43.97 52.85 46.74 51.44 C 47.97 49.75 49.04 47.96 50.10 46.16 C 51.54 46.25 52.39 45.63 52.64 44.31 C 52.84 43.40 53.03 42.49 53.22 41.58 C 53.60 39.75 53.84 37.89 54.02 36.03 Z" />
<path fill="#85ae5f" opacity="1.00" d=" M 110.19 36.04 C 110.64 36.00 111.54 35.91 111.99 35.87 C 111.88 40.35 111.79 44.82 111.69 49.30 C 110.69 49.79 109.70 50.28 108.70 50.76 C 107.93 49.90 107.16 49.04 106.38 48.19 C 107.43 50.15 108.54 52.08 109.70 53.98 C 107.38 53.93 105.05 53.89 102.73 53.86 C 104.02 54.59 105.31 55.32 106.62 56.00 L 93.33 56.00 C 92.83 55.70 91.81 55.09 91.31 54.79 C 91.82 54.75 92.85 54.66 93.36 54.62 C 96.69 54.29 99.81 52.99 102.74 51.43 C 103.94 49.79 105.02 48.06 106.10 46.33 C 107.54 46.25 108.37 45.51 108.61 44.11 C 108.87 43.25 109.12 42.38 109.36 41.51 C 109.84 39.72 110.09 37.88 110.19 36.04 Z" />
<path fill="#85ae5f" opacity="1.00" d=" M 222.97 36.85 C 223.23 36.37 223.74 35.41 224.00 34.93 L 224.00 48.44 C 223.02 49.38 222.01 50.28 221.00 51.18 C 220.12 50.16 219.25 49.15 218.37 48.15 C 219.41 50.13 220.53 52.07 221.70 53.98 C 219.38 53.93 217.05 53.89 214.73 53.86 C 216.03 54.59 217.33 55.32 218.66 56.00 L 205.33 56.00 C 204.83 55.70 203.81 55.09 203.31 54.79 C 203.82 54.75 204.85 54.66 205.36 54.62 C 208.69 54.29 211.81 53.00 214.73 51.43 C 215.93 49.80 217.01 48.09 218.09 46.39 C 219.50 46.22 220.29 45.43 220.46 44.02 C 220.73 43.19 221.02 42.36 221.31 41.54 C 221.87 39.98 222.40 38.41 222.97 36.85 Z" />
</g>
<g id="#a39e6aff">
<path fill="#a39e6a" opacity="1.00" d=" M 107.69 36.26 C 108.27 38.00 108.80 39.76 109.36 41.51 C 109.12 42.38 108.87 43.25 108.61 44.11 C 107.20 44.18 106.36 44.92 106.10 46.33 C 105.02 48.06 103.94 49.79 102.74 51.43 C 101.19 51.57 99.64 51.70 98.10 51.83 C 98.15 51.26 98.25 50.11 98.30 49.54 C 102.42 45.92 105.91 41.50 107.69 36.26 Z" />
<path fill="#a39e6a" opacity="1.00" d=" M 219.70 36.25 C 220.26 38.01 220.77 39.78 221.31 41.54 C 221.02 42.36 220.73 43.19 220.46 44.02 C 219.04 44.17 218.25 44.96 218.09 46.39 C 217.01 48.09 215.93 49.80 214.73 51.43 C 213.19 51.57 211.64 51.70 210.10 51.83 C 210.15 51.26 210.25 50.11 210.30 49.54 C 214.43 45.92 217.92 41.49 219.70 36.25 Z" />
</g>
<g id="#41cfbeff">
<path fill="#41cfbe" opacity="1.00" d=" M 158.26 39.18 C 157.76 37.78 158.17 36.72 159.50 36.02 C 159.80 37.37 159.39 38.42 158.26 39.18 Z" />
</g>
<g id="#85ae60ff">
<path fill="#85ae60" opacity="1.00" d=" M 166.63 38.45 C 166.89 37.76 167.42 36.38 167.69 35.69 C 167.56 40.20 167.65 44.71 167.63 49.22 C 166.66 49.75 165.69 50.27 164.72 50.79 C 163.94 49.92 163.16 49.05 162.38 48.18 C 163.43 50.15 164.54 52.08 165.70 53.98 C 163.38 53.93 161.05 53.89 158.73 53.86 C 160.02 54.59 161.31 55.32 162.63 56.00 L 149.66 56.00 C 149.08 55.81 147.92 55.43 147.34 55.24 C 151.32 54.57 155.18 53.30 158.74 51.37 C 159.94 49.78 161.02 48.10 162.12 46.44 C 163.50 46.16 164.23 45.31 164.33 43.90 C 164.64 43.17 164.95 42.44 165.27 41.70 C 165.73 40.63 166.19 39.54 166.63 38.45 Z" />
</g>
<g id="#a29d6aff">
<path fill="#a29d6a" opacity="1.00" d=" M 41.50 49.84 C 46.18 46.54 49.49 41.76 52.41 36.91 C 52.66 38.47 52.93 40.03 53.22 41.58 C 53.03 42.49 52.84 43.40 52.64 44.31 C 51.29 44.09 50.45 44.71 50.10 46.16 C 49.04 47.96 47.97 49.75 46.74 51.44 C 45.20 51.58 43.65 51.72 42.10 51.87 C 41.95 51.36 41.65 50.35 41.50 49.84 Z" />
<path fill="#a29d6a" opacity="1.00" d=" M 153.51 51.77 C 157.32 46.95 161.11 42.09 164.39 36.88 C 164.66 38.49 164.96 40.10 165.27 41.70 C 164.95 42.44 164.64 43.17 164.33 43.90 C 162.91 44.14 162.17 44.99 162.12 46.44 C 161.02 48.10 159.94 49.78 158.74 51.37 C 156.99 51.50 155.25 51.64 153.51 51.77 Z" />
</g>
<g id="#47ccbbff">
<path fill="#47ccbb" opacity="1.00" d=" M 152.10 45.26 C 153.95 43.68 155.81 42.11 157.78 40.67 C 155.87 42.18 154.01 43.75 152.10 45.26 Z" />
</g>
<g id="#a3e1a3ff">
<path fill="#a3e1a3" opacity="1.00" d=" M 157.78 40.67 L 158.48 40.14 C 158.24 40.48 157.76 41.16 157.52 41.50 C 156.01 43.69 154.53 45.91 152.97 48.06 C 152.14 48.76 151.31 49.44 150.44 50.07 C 147.07 50.56 143.65 50.66 140.26 50.42 C 141.98 50.27 143.67 49.96 145.35 49.56 C 147.75 48.38 150.04 46.96 152.10 45.26 C 154.01 43.75 155.87 42.18 157.78 40.67 Z" />
</g>
<g id="#60574aff">
<path fill="#60574a" opacity="1.00" d=" M 50.10 46.16 C 50.45 44.71 51.29 44.09 52.64 44.31 C 52.39 45.63 51.54 46.25 50.10 46.16 Z" />
<path fill="#60574a" opacity="1.00" d=" M 106.10 46.33 C 106.36 44.92 107.20 44.18 108.61 44.11 C 108.37 45.51 107.54 46.25 106.10 46.33 Z" />
<path fill="#60574a" opacity="1.00" d=" M 162.12 46.44 C 162.17 44.99 162.91 44.14 164.33 43.90 C 164.23 45.31 163.50 46.16 162.12 46.44 Z" />
<path fill="#60574a" opacity="1.00" d=" M 218.09 46.39 C 218.25 44.96 219.04 44.17 220.46 44.02 C 220.29 45.43 219.50 46.22 218.09 46.39 Z" />
</g>
<g id="#417bcbff">
<path fill="#417bcb" opacity="1.00" d=" M 57.31 47.24 C 58.98 46.46 60.66 45.70 62.32 44.90 C 61.84 46.81 61.45 48.76 61.39 50.74 C 60.48 50.74 59.57 50.67 58.67 50.60 C 58.22 49.48 57.76 48.36 57.31 47.24 Z" />
<path fill="#417bcb" opacity="1.00" d=" M 169.31 47.24 C 170.98 46.46 172.66 45.70 174.32 44.90 C 173.84 46.81 173.45 48.76 173.39 50.74 C 172.48 50.74 171.57 50.67 170.67 50.60 C 170.22 49.48 169.76 48.36 169.31 47.24 Z" />
</g>
<g id="#a0e0a2ff">
<path fill="#a0e0a2" opacity="1.00" d=" M 69.98 49.03 C 71.41 47.89 72.85 46.76 74.38 45.77 C 77.97 47.39 81.58 49.00 85.27 50.37 C 81.90 50.27 78.53 50.19 75.17 49.91 C 73.43 49.64 71.72 49.29 69.98 49.03 Z" />
<path fill="#a0e0a2" opacity="1.00" d=" M 181.98 49.03 C 183.41 47.89 184.85 46.76 186.38 45.77 C 189.97 47.39 193.58 49.00 197.27 50.37 C 193.89 50.27 190.53 50.19 187.17 49.91 C 185.43 49.64 183.71 49.29 181.98 49.03 Z" />
<path fill="#a0e0a2" opacity="1.00" d=" M 127.19 49.35 C 130.57 48.75 133.95 49.49 137.25 50.20 C 135.31 50.52 133.39 50.96 131.47 51.39 C 130.05 50.70 128.63 50.00 127.19 49.35 Z" />
</g>
<g id="#407eccfe">
<path fill="#407ecc" opacity="1.00" d=" M 2.50 48.11 C 4.19 47.57 5.88 47.03 7.58 46.50 C 6.97 47.88 6.35 49.25 5.75 50.64 C 4.47 50.64 3.19 50.48 1.92 50.35 C 2.07 49.79 2.35 48.67 2.50 48.11 Z" />
</g>
<g id="#454a3aff">
<path fill="#454a3a" opacity="1.00" d=" M 11.91 48.29 C 12.21 48.14 12.80 47.86 13.10 47.72 L 13.61 48.60 L 14.06 49.45 C 12.89 50.63 11.68 51.78 10.42 52.87 L 9.48 52.80 C 6.32 52.52 3.16 52.28 0.00 52.11 L 0.00 51.80 C 0.63 51.31 1.27 50.82 1.92 50.35 C 3.19 50.48 4.47 50.64 5.75 50.64 C 7.85 49.98 9.91 49.20 11.91 48.29 Z" />
</g>
<g id="#dfd889ff">
<path fill="#dfd889" opacity="1.00" d=" M 13.61 48.60 C 14.55 48.75 15.50 48.87 16.45 48.97 C 18.92 50.81 21.52 52.68 24.63 53.18 C 30.29 55.19 35.56 52.04 39.91 48.84 C 40.30 48.57 41.10 48.02 41.49 47.74 L 41.12 48.52 C 40.10 50.57 39.04 52.60 37.96 54.62 C 37.49 54.65 36.55 54.70 36.08 54.72 C 28.91 54.68 20.76 56.22 14.93 51.04 C 14.71 50.64 14.27 49.85 14.06 49.45 L 13.61 48.60 Z" />
</g>
<g id="#edf0abff">
<path fill="#edf0ab" opacity="1.00" d=" M 16.45 48.97 C 24.26 49.57 32.11 49.50 39.91 48.84 C 35.56 52.04 30.29 55.19 24.63 53.18 C 21.52 52.68 18.92 50.81 16.45 48.97 Z" />
</g>
<g id="#6a995cff">
<path fill="#6a995c" opacity="1.00" d=" M 50.38 48.18 C 51.16 49.05 51.94 49.91 52.71 50.78 C 53.71 50.26 54.70 49.74 55.69 49.21 L 55.67 50.31 C 55.67 50.78 55.65 51.72 55.65 52.19 C 55.16 54.61 58.84 54.21 58.82 52.12 C 60.15 52.31 61.49 52.39 62.82 52.41 L 64.05 52.09 C 63.20 53.41 62.34 54.73 61.41 56.00 L 55.53 56.00 C 55.73 53.85 52.26 53.84 52.46 56.00 L 50.61 56.00 C 49.30 55.32 48.02 54.59 46.73 53.86 C 49.05 53.89 51.38 53.93 53.70 53.98 C 52.54 52.08 51.43 50.15 50.38 48.18 Z" />
<path fill="#6a995c" opacity="1.00" d=" M 106.38 48.19 C 107.16 49.04 107.93 49.90 108.70 50.76 C 109.70 50.28 110.69 49.79 111.69 49.30 L 111.66 50.45 C 111.66 50.88 111.65 51.76 111.64 52.20 C 111.16 54.62 114.84 54.21 114.81 52.11 C 116.12 52.32 117.45 52.43 118.78 52.48 L 119.89 52.13 C 119.10 53.43 118.30 54.74 117.44 56.00 L 111.53 56.00 C 111.73 53.85 108.26 53.84 108.46 56.00 L 106.62 56.00 C 105.31 55.32 104.02 54.59 102.73 53.86 C 105.05 53.89 107.38 53.93 109.70 53.98 C 108.54 52.08 107.43 50.15 106.38 48.19 Z" />
<path fill="#6a995c" opacity="1.00" d=" M 162.38 48.18 C 163.16 49.05 163.94 49.92 164.72 50.79 C 165.69 50.27 166.66 49.75 167.63 49.22 L 167.63 50.31 C 167.63 50.78 167.64 51.73 167.64 52.20 C 167.19 54.61 170.85 54.21 170.83 52.12 C 172.15 52.31 173.48 52.39 174.82 52.41 L 176.05 52.09 C 175.20 53.41 174.34 54.73 173.41 56.00 L 167.53 56.00 C 167.73 53.85 164.26 53.84 164.46 56.00 L 162.63 56.00 C 161.31 55.32 160.02 54.59 158.73 53.86 C 161.05 53.89 163.38 53.93 165.70 53.98 C 164.54 52.08 163.43 50.15 162.38 48.18 Z" />
</g>
<g id="#edf1abff">
<path fill="#edf1ab" opacity="1.00" d=" M 86.05 50.37 C 89.30 50.30 92.50 49.64 95.59 48.65 C 90.69 54.38 80.31 56.13 75.17 49.91 C 78.53 50.19 81.90 50.27 85.27 50.37 L 86.05 50.37 Z" />
<path fill="#edf1ab" opacity="1.00" d=" M 198.05 50.37 C 201.30 50.30 204.50 49.64 207.59 48.65 C 202.69 54.38 192.31 56.13 187.17 49.91 C 190.53 50.19 193.89 50.27 197.27 50.37 L 198.05 50.37 Z" />
</g>
<g id="#68975cfe">
<path fill="#68975c" opacity="1.00" d=" M 218.37 48.15 C 219.25 49.15 220.12 50.16 221.00 51.18 C 222.01 50.28 223.02 49.38 224.00 48.44 L 224.00 55.31 C 223.17 54.01 220.70 54.25 220.73 56.00 L 218.66 56.00 C 217.33 55.32 216.03 54.59 214.73 53.86 C 217.05 53.89 219.38 53.93 221.70 53.98 C 220.53 52.07 219.41 50.13 218.37 48.15 Z" />
</g>
<g id="#ccc887ff">
<path fill="#ccc887" opacity="1.00" d=" M 41.12 48.52 L 41.50 49.84 C 41.65 50.35 41.95 51.36 42.10 51.87 C 43.65 51.72 45.20 51.58 46.74 51.44 C 43.97 52.85 41.08 54.21 37.96 54.62 C 39.04 52.60 40.10 50.57 41.12 48.52 Z" />
<path fill="#ccc887" opacity="1.00" d=" M 93.36 54.62 C 94.96 52.89 96.57 51.15 98.30 49.54 C 98.25 50.11 98.15 51.26 98.10 51.83 C 99.64 51.70 101.19 51.57 102.74 51.43 C 99.81 52.99 96.69 54.29 93.36 54.62 Z" />
<path fill="#ccc887" opacity="1.00" d=" M 205.36 54.62 C 206.96 52.89 208.57 51.15 210.30 49.54 C 210.25 50.11 210.15 51.26 210.10 51.83 C 211.64 51.70 213.19 51.57 214.73 51.43 C 211.81 53.00 208.69 54.29 205.36 54.62 Z" />
</g>
<g id="#332e2aff">
<path fill="#332e2a" opacity="1.00" d=" M 65.07 49.74 C 65.68 49.48 66.90 48.96 67.50 48.70 L 67.95 49.34 C 67.05 50.33 66.09 50.46 65.07 49.74 Z" />
<path fill="#332e2a" opacity="1.00" d=" M 177.07 49.74 C 177.68 49.48 178.90 48.96 179.50 48.70 L 179.95 49.34 C 179.05 50.33 178.09 50.46 177.07 49.74 Z" />
<path fill="#332e2a" opacity="1.00" d=" M 64.05 52.09 C 65.21 51.39 66.15 51.54 66.87 52.54 L 66.38 53.17 L 65.39 53.16 C 65.05 52.89 64.39 52.36 64.05 52.09 Z" />
<path fill="#332e2a" opacity="1.00" d=" M 119.89 52.13 C 120.90 51.41 121.80 51.47 122.59 52.30 L 122.35 53.07 L 121.38 53.21 C 121.01 52.94 120.26 52.40 119.89 52.13 Z" />
<path fill="#332e2a" opacity="1.00" d=" M 176.05 52.09 C 177.20 51.39 178.14 51.54 178.87 52.54 L 178.38 53.17 L 177.39 53.16 C 177.05 52.89 176.39 52.36 176.05 52.09 Z" />
</g>
<g id="#4d4d42ff">
<path fill="#4d4d42" opacity="1.00" d=" M 67.95 49.34 C 68.22 49.48 68.77 49.75 69.04 49.89 C 68.30 50.76 67.58 51.64 66.87 52.54 C 66.15 51.54 65.21 51.39 64.05 52.09 L 62.82 52.41 C 63.30 51.82 63.78 51.23 64.26 50.65 L 65.07 49.74 C 66.09 50.46 67.05 50.33 67.95 49.34 Z" />
<path fill="#4d4d42" opacity="1.00" d=" M 179.95 49.34 C 180.22 49.48 180.77 49.75 181.04 49.89 C 180.30 50.76 179.57 51.64 178.87 52.54 C 178.14 51.54 177.20 51.39 176.05 52.09 L 174.82 52.41 C 175.30 51.82 175.78 51.23 176.27 50.65 L 177.07 49.74 C 178.09 50.46 179.05 50.33 179.95 49.34 Z" />
</g>
<g id="#3a3530ff">
<path fill="#3a3530" opacity="1.00" d=" M 121.61 49.57 C 122.08 49.22 123.01 48.52 123.48 48.18 L 123.96 48.57 C 123.98 48.95 124.02 49.71 124.04 50.08 C 123.72 50.47 123.10 51.24 122.79 51.62 C 122.49 51.11 121.91 50.08 121.61 49.57 Z" />
</g>
<g id="#afa66cfe">
<path fill="#afa66c" opacity="1.00" d=" M 10.42 52.87 C 11.68 51.78 12.89 50.63 14.06 49.45 C 14.27 49.85 14.71 50.64 14.93 51.04 C 15.69 52.42 16.45 53.79 17.27 55.14 C 15.07 54.14 12.82 53.21 10.42 52.87 Z" />
</g>
<g id="#415141fe">
<path fill="#415141" opacity="1.00" d=" M 55.67 50.31 C 56.42 50.38 57.92 50.52 58.67 50.60 C 59.57 50.67 60.48 50.74 61.39 50.74 C 62.11 50.71 63.55 50.67 64.26 50.65 C 63.78 51.23 63.30 51.82 62.82 52.41 C 61.49 52.39 60.15 52.31 58.82 52.12 C 57.73 51.69 56.67 51.71 55.65 52.19 C 55.65 51.72 55.67 50.78 55.67 50.31 Z" />
<path fill="#415141" opacity="1.00" d=" M 111.66 50.45 C 114.71 50.70 117.77 50.79 120.81 50.36 C 120.13 51.06 119.45 51.77 118.78 52.48 C 117.45 52.43 116.12 52.32 114.81 52.11 C 113.72 51.69 112.66 51.72 111.64 52.20 C 111.65 51.76 111.66 50.88 111.66 50.45 Z" />
<path fill="#415141" opacity="1.00" d=" M 167.63 50.31 C 168.39 50.38 169.91 50.53 170.67 50.60 C 171.57 50.67 172.48 50.74 173.39 50.74 C 174.11 50.71 175.55 50.67 176.27 50.65 C 175.78 51.23 175.30 51.82 174.82 52.41 C 173.48 52.39 172.15 52.31 170.83 52.12 C 169.73 51.68 168.67 51.71 167.64 52.20 C 167.64 51.73 167.63 50.78 167.63 50.31 Z" />
</g>
<g id="#afa66cff">
<path fill="#afa66c" opacity="1.00" d=" M 69.04 49.89 L 69.48 49.43 C 69.77 49.81 70.35 50.56 70.64 50.94 C 71.61 52.29 72.52 53.69 73.49 55.05 C 71.23 54.09 68.86 53.28 66.38 53.17 L 66.87 52.54 C 67.58 51.64 68.30 50.76 69.04 49.89 Z" />
<path fill="#afa66c" opacity="1.00" d=" M 124.04 50.08 C 124.53 49.93 125.53 49.63 126.03 49.48 L 126.70 50.54 C 127.62 52.06 128.49 53.60 129.42 55.12 C 127.17 54.12 124.82 53.26 122.35 53.07 L 122.59 52.30 L 122.79 51.62 C 123.10 51.24 123.72 50.47 124.04 50.08 Z" />
<path fill="#afa66c" opacity="1.00" d=" M 181.04 49.89 L 181.48 49.43 C 181.77 49.81 182.35 50.56 182.64 50.94 C 183.61 52.29 184.52 53.69 185.49 55.05 C 183.22 54.09 180.86 53.28 178.38 53.17 L 178.87 52.54 C 179.57 51.64 180.30 50.76 181.04 49.89 Z" />
</g>
<g id="#4f5044ff">
<path fill="#4f5044" opacity="1.00" d=" M 120.81 50.36 L 121.61 49.57 C 121.91 50.08 122.49 51.11 122.79 51.62 L 122.59 52.30 C 121.80 51.47 120.90 51.41 119.89 52.13 L 118.78 52.48 C 119.45 51.77 120.13 51.06 120.81 50.36 Z" />
</g>
<g id="#edf1acff">
<path fill="#edf1ac" opacity="1.00" d=" M 131.47 51.39 C 133.39 50.96 135.31 50.52 137.25 50.20 C 138.25 50.30 139.25 50.37 140.26 50.42 C 143.65 50.66 147.07 50.56 150.44 50.07 C 145.23 54.83 137.44 54.62 131.47 51.39 Z" />
</g>
<g id="#ccc787ff">
<path fill="#ccc787" opacity="1.00" d=" M 14.93 51.04 C 20.76 56.22 28.91 54.68 36.08 54.72 C 36.07 55.04 36.05 55.68 36.05 56.00 L 19.07 56.00 C 18.62 55.78 17.72 55.35 17.27 55.14 C 16.45 53.79 15.69 52.42 14.93 51.04 Z" />
</g>
<g id="#87b05cff">
<path fill="#87b05c" opacity="1.00" d=" M 55.65 52.19 C 56.67 51.71 57.73 51.69 58.82 52.12 C 58.84 54.21 55.16 54.61 55.65 52.19 Z" />
<path fill="#87b05c" opacity="1.00" d=" M 111.64 52.20 C 112.66 51.72 113.72 51.69 114.81 52.11 C 114.84 54.21 111.16 54.62 111.64 52.20 Z" />
<path fill="#87b05c" opacity="1.00" d=" M 167.64 52.20 C 168.67 51.71 169.73 51.68 170.83 52.12 C 170.85 54.21 167.19 54.61 167.64 52.20 Z" />
</g>
<g id="#cdc988ff">
<path fill="#cdc988" opacity="1.00" d=" M 70.64 50.94 C 76.44 55.79 84.24 54.93 91.31 54.79 C 91.81 55.09 92.83 55.70 93.33 56.00 L 75.32 56.00 C 74.86 55.76 73.95 55.29 73.49 55.05 C 72.52 53.69 71.61 52.29 70.64 50.94 Z" />
<path fill="#cdc988" opacity="1.00" d=" M 126.70 50.54 C 132.17 56.11 140.29 54.60 147.34 55.24 C 147.92 55.43 149.08 55.81 149.66 56.00 L 131.26 56.00 C 130.80 55.78 129.88 55.34 129.42 55.12 C 128.49 53.60 127.62 52.06 126.70 50.54 Z" />
<path fill="#cdc988" opacity="1.00" d=" M 182.64 50.94 C 188.44 55.79 196.24 54.93 203.31 54.79 C 203.81 55.09 204.83 55.70 205.33 56.00 L 187.32 56.00 C 186.86 55.76 185.95 55.29 185.49 55.05 C 184.52 53.69 183.61 52.29 182.64 50.94 Z" />
</g>
<g id="#77a35eff">
<path fill="#77a35e" opacity="1.00" d=" M 0.00 52.11 C 3.16 52.28 6.32 52.52 9.48 52.80 C 11.35 53.83 13.17 54.96 15.03 56.00 L 0.00 56.00 L 0.00 52.11 Z" />
</g>
<g id="#476e47ff">
<path fill="#476e47" opacity="1.00" d=" M 10.42 52.87 C 12.82 53.21 15.07 54.14 17.27 55.14 C 17.72 55.35 18.62 55.78 19.07 56.00 L 15.03 56.00 C 13.17 54.96 11.35 53.83 9.48 52.80 L 10.42 52.87 Z" />
<path fill="#476e47" opacity="1.00" d=" M 66.38 53.17 C 68.86 53.28 71.23 54.09 73.49 55.05 C 73.95 55.29 74.86 55.76 75.32 56.00 L 70.88 56.00 C 69.01 55.12 67.19 54.16 65.39 53.16 L 66.38 53.17 Z" />
<path fill="#476e47" opacity="1.00" d=" M 122.35 53.07 C 124.82 53.26 127.17 54.12 129.42 55.12 C 129.88 55.34 130.80 55.78 131.26 56.00 L 126.94 56.00 C 125.06 55.12 123.22 54.17 121.38 53.21 L 122.35 53.07 Z" />
<path fill="#476e47" opacity="1.00" d=" M 178.38 53.17 C 180.86 53.28 183.22 54.09 185.49 55.05 C 185.95 55.29 186.86 55.76 187.32 56.00 L 182.88 56.00 C 181.01 55.12 179.19 54.16 177.39 53.16 L 178.38 53.17 Z" />
</g>
<g id="#7faa61ff">
<path fill="#7faa61" opacity="1.00" d=" M 64.05 52.09 C 64.39 52.36 65.05 52.89 65.39 53.16 C 67.19 54.16 69.01 55.12 70.88 56.00 L 61.41 56.00 C 62.34 54.73 63.20 53.41 64.05 52.09 Z" />
<path fill="#7faa61" opacity="1.00" d=" M 119.89 52.13 C 120.26 52.40 121.01 52.94 121.38 53.21 C 123.22 54.17 125.06 55.12 126.94 56.00 L 117.44 56.00 C 118.30 54.74 119.10 53.43 119.89 52.13 Z" />
<path fill="#7faa61" opacity="1.00" d=" M 176.05 52.09 C 176.39 52.36 177.05 52.89 177.39 53.16 C 179.19 54.16 181.01 55.12 182.88 56.00 L 173.41 56.00 C 174.34 54.73 175.20 53.41 176.05 52.09 Z" />
</g>
<g id="#8fb966ff">
<path fill="#8fb966" opacity="1.00" d=" M 52.46 56.00 C 52.26 53.84 55.73 53.85 55.53 56.00 L 52.46 56.00 Z" />
<path fill="#8fb966" opacity="1.00" d=" M 108.46 56.00 C 108.26 53.84 111.73 53.85 111.53 56.00 L 108.46 56.00 Z" />
<path fill="#8fb966" opacity="1.00" d=" M 164.46 56.00 C 164.26 53.84 167.73 53.85 167.53 56.00 L 164.46 56.00 Z" />
<path fill="#8fb966" opacity="1.00" d=" M 220.73 56.00 C 220.70 54.25 223.17 54.01 224.00 55.31 L 224.00 56.00 L 220.73 56.00 Z" />
</g>
</svg>
