<?xml version="1.0" encoding="UTF-8" ?>
<!DOCTYPE svg PUBLIC "-//W3C//DTD SVG 1.1//EN" "http://www.w3.org/Graphics/SVG/1.1/DTD/svg11.dtd">
<svg width="224pt" height="56pt" viewBox="0 0 224 56" version="1.1" xmlns="http://www.w3.org/2000/svg">
<g id="#91bc69ff">
<path fill="#91bc69" opacity="1.00" d=" M 0.00 0.00 L 0.80 0.00 C 1.73 1.21 1.46 2.12 0.00 2.72 L 0.00 0.00 Z" />
</g>
<g id="#6c9959ff">
<path fill="#6c9959" opacity="1.00" d=" M 0.80 0.00 L 6.86 0.00 C 6.00 7.18 7.05 14.46 5.52 21.59 C 4.17 18.47 2.90 15.30 1.72 12.10 C 2.56 9.20 2.77 6.16 2.00 3.22 C 1.50 4.04 0.50 5.69 0.00 6.52 L 0.00 2.72 C 1.46 2.12 1.73 1.21 0.80 0.00 M 3.40 3.15 C 2.97 4.55 3.45 5.03 4.85 4.60 C 5.29 3.20 4.80 2.71 3.40 3.15 Z" />
</g>
<g id="#475943ff">
<path fill="#475943" opacity="1.00" d=" M 6.86 0.00 L 7.74 0.00 C 7.97 6.76 8.80 13.48 9.47 20.20 C 9.56 21.18 9.64 22.17 9.71 23.15 C 8.29 22.69 6.91 22.14 5.52 21.59 C 7.05 14.46 6.00 7.18 6.86 0.00 Z" />
<path fill="#475943" opacity="1.00" d=" M 62.84 0.00 L 63.72 0.00 C 63.97 6.76 64.80 13.47 65.47 20.20 C 65.57 21.18 65.65 22.16 65.73 23.14 C 64.28 22.70 62.87 22.15 61.45 21.63 C 63.09 14.50 62.00 7.19 62.84 0.00 Z" />
<path fill="#475943" opacity="1.00" d=" M 118.85 0.00 L 119.74 0.00 C 119.96 6.76 120.80 13.48 121.49 20.20 C 121.58 21.20 121.66 22.20 121.73 23.20 C 120.28 22.74 118.87 22.17 117.45 21.61 C 119.09 14.48 117.98 7.19 118.85 0.00 Z" />
<path fill="#475943" opacity="1.00" d=" M 174.84 0.00 L 175.72 0.00 C 175.97 6.76 176.80 13.47 177.47 20.20 C 177.56 21.18 177.65 22.16 177.73 23.14 C 176.28 22.70 174.87 22.15 173.45 21.63 C 175.09 14.50 174.00 7.19 174.84 0.00 Z" />
</g>
<g id="#322e2aff">
<path fill="#322e2a" opacity="1.00" d=" M 7.74 0.00 L 10.22 0.00 C 9.63 1.40 9.10 2.83 8.57 4.26 C 9.79 4.30 11.01 4.35 12.24 4.41 C 12.58 4.44 13.26 4.49 13.60 4.51 C 12.64 6.30 11.78 8.14 11.19 10.08 C 11.15 11.40 11.16 12.71 11.22 14.03 C 11.74 15.98 12.42 17.89 13.12 19.78 C 12.21 19.88 10.38 20.10 9.47 20.20 C 8.80 13.48 7.97 6.76 7.74 0.00 Z" />
<path fill="#322e2a" opacity="1.00" d=" M 63.72 0.00 L 65.66 0.00 C 65.42 1.43 65.19 2.87 64.96 4.30 C 66.02 4.38 67.08 4.47 68.14 4.56 C 68.47 4.60 69.14 4.67 69.48 4.71 C 68.39 7.05 67.70 9.54 67.10 12.04 C 67.12 12.62 67.15 13.78 67.16 14.36 C 67.77 16.19 68.44 17.99 69.09 19.80 C 68.19 19.90 66.38 20.10 65.47 20.20 C 64.80 13.47 63.97 6.76 63.72 0.00 Z" />
<path fill="#322e2a" opacity="1.00" d=" M 119.74 0.00 L 121.88 0.00 C 121.56 1.43 121.24 2.86 120.93 4.29 C 121.93 4.44 122.93 4.60 123.92 4.77 C 124.28 4.82 124.99 4.93 125.34 4.99 C 124.35 7.21 123.74 9.58 123.17 11.94 C 122.80 13.04 122.86 14.11 123.35 15.16 C 123.91 16.67 124.45 18.19 124.97 19.71 C 124.10 19.84 122.36 20.08 121.49 20.20 C 120.80 13.48 119.96 6.76 119.74 0.00 Z" />
<path fill="#322e2a" opacity="1.00" d=" M 175.72 0.00 L 177.66 0.00 C 177.42 1.43 177.19 2.87 176.96 4.30 C 178.02 4.38 179.08 4.47 180.14 4.56 C 180.47 4.60 181.14 4.67 181.48 4.71 C 180.39 7.05 179.69 9.54 179.10 12.04 C 179.12 12.62 179.15 13.78 179.16 14.36 C 179.77 16.19 180.44 17.99 181.09 19.80 C 180.19 19.90 178.38 20.10 177.47 20.20 C 176.80 13.47 175.97 6.76 175.72 0.00 Z" />
</g>
<g id="#565249ff">
<path fill="#565249" opacity="1.00" d=" M 10.22 0.00 L 13.26 0.00 L 12.92 0.81 C 12.34 1.95 12.11 3.15 12.24 4.41 C 11.01 4.35 9.79 4.30 8.57 4.26 C 9.10 2.83 9.63 1.40 10.22 0.00 Z" />
<path fill="#565249" opacity="1.00" d=" M 7.04 35.00 C 8.79 35.04 10.53 35.09 12.28 35.14 C 10.51 36.14 8.73 37.13 6.96 38.12 C 6.98 37.34 7.02 35.78 7.04 35.00 Z" />
<path fill="#565249" opacity="1.00" d=" M 63.04 35.00 C 64.79 35.04 66.53 35.09 68.28 35.14 C 66.51 36.14 64.73 37.13 62.96 38.12 C 62.98 37.34 63.02 35.78 63.04 35.00 Z" />
<path fill="#565249" opacity="1.00" d=" M 119.04 35.00 C 120.79 35.04 122.53 35.09 124.28 35.14 C 122.51 36.14 120.73 37.13 118.96 38.12 C 118.98 37.34 119.02 35.78 119.04 35.00 Z" />
<path fill="#565249" opacity="1.00" d=" M 175.04 35.00 C 176.79 35.04 178.53 35.09 180.28 35.14 C 178.51 36.14 176.73 37.13 174.96 38.12 C 174.98 37.34 175.02 35.78 175.04 35.00 Z" />
<path fill="#565249" opacity="1.00" d=" M 11.05 39.78 C 8.74 39.16 10.30 36.05 11.78 38.26 C 11.59 38.64 11.23 39.40 11.05 39.78 Z" />
<path fill="#565249" opacity="1.00" d=" M 66.73 39.41 C 64.24 39.16 65.72 36.46 67.56 37.75 C 67.36 38.17 66.94 39.00 66.73 39.41 Z" />
<path fill="#565249" opacity="1.00" d=" M 123.21 39.76 C 120.90 39.41 121.93 36.10 123.69 38.13 C 123.57 38.54 123.33 39.35 123.21 39.76 Z" />
<path fill="#565249" opacity="1.00" d=" M 178.73 39.41 C 176.24 39.16 177.72 36.46 179.56 37.75 C 179.36 38.17 178.94 39.00 178.73 39.41 Z" />
</g>
<g id="#268ed9ff">
<path fill="#268ed9" opacity="1.00" d=" M 13.26 0.00 L 15.69 0.00 C 15.71 1.02 15.15 1.90 14.70 2.77 C 14.25 2.28 13.37 1.30 12.92 0.81 L 13.26 0.00 Z" />
<path fill="#268ed9" opacity="1.00" d=" M 123.96 0.00 L 125.54 0.00 C 126.72 0.65 126.68 2.07 126.48 3.21 C 126.10 3.09 125.33 2.86 124.95 2.74 C 124.70 2.05 124.21 0.68 123.96 0.00 Z" />
<path fill="#268ed9" opacity="1.00" d=" M 11.85 23.63 C 12.51 23.89 13.83 24.42 14.49 24.68 C 14.98 27.22 15.37 29.91 14.36 32.39 C 13.83 30.86 13.28 29.34 12.79 27.80 C 12.47 26.41 12.15 25.02 11.85 23.63 Z" />
<path fill="#268ed9" opacity="1.00" d=" M 14.14 50.59 C 14.92 52.14 15.60 53.74 16.23 55.37 L 15.47 56.00 L 12.09 56.00 C 12.41 55.45 13.06 54.34 13.39 53.78 C 14.03 52.81 14.28 51.75 14.14 50.59 Z" />
</g>
<g id="#3c6bbeff">
<path fill="#3c6bbe" opacity="1.00" d=" M 15.69 0.00 L 25.54 0.00 C 26.58 1.13 27.57 2.31 28.56 3.49 C 24.62 4.12 20.63 4.15 16.65 4.43 C 19.06 5.22 21.42 6.48 23.99 6.57 C 27.64 5.50 30.97 3.35 34.92 3.28 C 38.24 4.02 41.18 5.97 44.51 6.69 C 48.34 6.99 52.19 6.49 56.01 6.25 C 56.03 7.78 56.05 9.31 56.05 10.85 C 51.93 10.69 47.80 10.50 43.67 10.35 C 43.92 11.43 44.18 12.51 44.43 13.59 C 42.87 14.53 41.31 15.48 39.76 16.43 C 45.24 15.69 50.59 14.21 56.05 13.34 C 56.04 16.92 56.05 20.51 56.01 24.09 C 55.99 25.52 55.95 26.94 55.91 28.37 C 51.21 29.00 46.33 28.11 44.01 23.65 C 46.75 22.11 49.53 20.64 52.28 19.13 C 48.81 19.82 45.35 20.56 41.89 21.27 C 44.07 26.14 49.62 30.28 47.65 36.10 C 45.44 35.13 43.24 34.16 41.04 33.18 C 40.77 34.10 40.49 35.01 40.22 35.93 C 44.90 37.87 49.80 39.15 54.70 40.38 C 52.73 38.21 50.75 36.05 49.06 33.64 C 51.35 32.32 53.65 31.00 55.86 29.55 C 55.85 35.13 55.98 40.71 55.98 46.29 C 51.86 46.13 46.15 46.10 46.34 40.77 C 42.01 44.69 35.69 42.92 30.54 44.89 C 34.93 45.33 39.12 46.72 43.36 47.81 C 47.55 47.33 51.76 47.00 55.98 46.89 C 55.98 48.05 55.97 49.20 55.97 50.36 C 52.54 51.30 48.94 52.02 45.92 54.01 C 46.50 52.94 47.06 51.86 47.60 50.77 L 46.44 51.01 C 45.21 51.21 43.99 51.41 42.76 51.59 C 42.54 52.23 42.10 53.52 41.89 54.16 C 41.72 54.62 41.38 55.54 41.21 56.00 L 32.81 56.00 C 30.08 53.73 27.27 51.55 24.18 49.78 C 29.11 45.19 30.12 35.91 38.30 35.54 C 36.45 32.80 34.69 29.99 32.82 27.27 C 33.25 29.31 33.68 31.36 34.11 33.41 C 31.81 34.34 29.53 35.54 27.02 35.72 C 24.09 35.41 21.49 33.86 18.83 32.72 C 20.81 28.75 24.85 27.15 29.09 27.19 C 29.05 25.44 28.11 23.16 29.91 21.97 C 33.22 19.82 37.42 20.56 41.15 20.54 C 39.05 19.51 36.97 18.46 34.89 17.40 C 30.90 18.91 26.59 19.33 22.35 19.30 C 24.32 20.97 26.22 22.74 28.01 24.61 C 24.78 25.94 21.52 27.20 18.20 28.32 C 18.11 30.67 17.91 33.02 17.59 35.36 C 16.41 34.62 15.22 33.89 14.04 33.16 L 14.36 32.39 C 15.37 29.91 14.98 27.22 14.49 24.68 L 14.79 24.04 C 15.40 22.72 16.01 21.39 16.62 20.07 C 16.06 18.60 15.48 17.14 14.93 15.67 C 15.97 11.63 15.42 7.44 14.73 3.39 L 14.70 2.77 C 15.15 1.90 15.71 1.02 15.69 0.00 Z" />
<path fill="#3c6bbe" opacity="1.00" d=" M 30.48 0.00 L 55.82 0.00 C 55.85 0.83 55.91 2.48 55.94 3.30 C 47.33 5.75 38.56 3.05 30.48 0.00 Z" />
<path fill="#3c6bbe" opacity="1.00" d=" M 67.29 0.00 L 85.31 0.00 C 81.97 3.55 77.15 3.44 72.69 3.38 C 75.11 4.25 77.47 5.47 80.05 5.77 C 83.74 4.16 86.63 0.73 91.06 0.93 C 95.17 1.71 98.02 5.75 102.36 5.77 C 105.56 6.02 108.78 6.16 112.00 6.25 C 112.02 7.37 112.04 8.49 112.05 9.61 C 108.55 9.81 104.89 9.39 101.53 10.48 C 99.38 11.79 97.78 13.77 95.98 15.48 C 101.33 14.38 106.61 12.80 112.07 12.27 C 112.05 16.22 112.07 20.17 112.00 24.12 C 111.97 24.93 111.93 26.55 111.91 27.37 C 107.21 28.00 102.33 27.12 100.01 22.65 C 102.75 21.11 105.53 19.64 108.28 18.13 C 104.81 18.82 101.35 19.56 97.89 20.27 C 100.07 25.14 105.61 29.28 103.65 35.10 C 101.44 34.13 99.24 33.16 97.04 32.18 C 96.77 33.10 96.49 34.01 96.22 34.93 C 100.90 36.87 105.80 38.15 110.70 39.38 C 108.73 37.21 106.75 35.05 105.07 32.64 C 107.35 31.31 109.65 30.00 111.86 28.54 C 111.84 34.03 111.98 39.51 111.99 45.00 C 109.32 44.99 106.64 44.98 103.97 44.97 C 103.70 42.91 103.44 40.84 103.14 38.79 C 102.36 40.57 101.58 42.35 100.82 44.14 C 96.07 43.68 91.27 43.23 86.55 44.19 C 89.87 45.15 93.24 45.96 96.63 46.66 C 101.70 47.97 106.91 46.19 111.99 45.97 C 111.98 47.58 111.97 49.19 111.97 50.79 C 108.96 51.24 105.99 51.82 102.97 52.13 C 102.65 52.02 102.00 51.81 101.68 51.70 C 100.25 53.12 98.83 54.55 97.43 56.00 L 93.25 56.00 C 88.40 53.96 83.80 51.39 79.22 48.82 C 83.71 43.38 86.98 36.13 94.38 33.99 C 93.01 31.40 91.48 28.91 90.07 26.36 C 89.94 28.75 91.37 32.25 88.67 33.67 C 83.84 36.14 78.32 33.24 73.57 32.00 C 76.03 26.88 81.49 25.90 86.73 26.30 C 86.17 24.99 85.60 23.67 85.05 22.36 C 87.02 20.65 88.99 18.95 91.00 17.28 C 86.73 18.06 82.35 17.89 78.12 16.94 C 80.86 18.67 83.36 20.78 85.15 23.51 C 81.10 24.87 77.06 26.23 72.95 27.36 C 73.25 29.66 73.25 32.03 73.99 34.24 C 76.12 36.65 79.90 36.74 82.44 38.37 C 80.91 42.31 78.52 45.86 75.38 48.69 C 75.96 48.87 77.13 49.25 77.71 49.44 C 75.58 51.65 73.46 53.88 71.23 56.00 L 70.65 56.00 C 71.89 45.61 71.20 35.18 70.60 24.79 L 70.67 24.08 C 71.23 17.21 70.70 10.30 70.31 3.43 C 70.36 2.31 69.91 1.48 68.95 0.96 C 68.54 0.72 67.70 0.24 67.29 0.00 Z" />
<path fill="#3c6bbe" opacity="1.00" d=" M 154.20 0.00 L 167.79 0.00 C 167.82 0.88 167.89 2.64 167.92 3.52 C 163.06 3.69 157.72 4.00 154.20 0.00 Z" />
<path fill="#3c6bbe" opacity="1.00" d=" M 179.29 0.00 L 197.31 0.00 C 193.97 3.55 189.15 3.44 184.69 3.38 C 187.10 4.25 189.47 5.47 192.05 5.77 C 195.74 4.16 198.63 0.73 203.06 0.93 C 206.39 1.63 208.87 4.25 212.02 5.38 C 215.97 6.09 220.03 5.93 224.00 6.53 L 224.00 9.35 C 220.50 9.62 216.89 9.53 213.50 10.48 C 211.32 11.72 209.81 13.81 208.04 15.53 C 213.51 14.98 218.48 12.13 224.00 11.91 L 224.00 27.68 C 219.30 27.98 214.38 27.10 212.00 22.66 C 214.74 21.11 217.52 19.64 220.28 18.13 C 216.81 18.82 213.35 19.56 209.89 20.27 C 212.07 25.14 217.61 29.28 215.65 35.10 C 213.44 34.13 211.24 33.16 209.04 32.18 C 208.76 33.10 208.49 34.01 208.22 34.93 C 212.90 36.87 217.80 38.15 222.70 39.38 C 220.75 37.23 218.78 35.08 217.10 32.70 C 219.41 31.26 221.74 29.85 224.00 28.32 L 224.00 45.15 C 215.54 44.83 207.01 42.48 198.57 44.20 C 201.89 45.15 205.25 45.96 208.63 46.67 C 213.71 48.01 218.93 46.14 224.00 45.82 L 224.00 50.54 C 220.99 51.14 218.02 51.82 214.98 52.20 C 214.66 52.07 214.01 51.83 213.68 51.71 C 212.25 53.13 210.83 54.55 209.43 56.00 L 205.25 56.00 C 200.40 53.96 195.80 51.39 191.22 48.82 C 195.70 43.37 198.98 36.16 206.34 33.97 C 204.99 31.29 203.51 28.67 201.92 26.12 C 202.30 28.19 202.66 30.27 203.01 32.34 C 200.10 33.60 197.15 35.32 193.89 35.22 C 191.01 34.47 188.40 32.92 185.66 31.82 C 188.15 26.80 193.59 25.96 198.73 26.30 C 198.17 24.99 197.60 23.67 197.05 22.36 C 199.01 20.65 200.99 18.95 203.00 17.28 C 198.72 18.06 194.35 17.89 190.12 16.94 C 192.86 18.67 195.36 20.78 197.15 23.51 C 193.10 24.87 189.06 26.23 184.95 27.36 C 185.25 29.66 185.25 32.03 185.99 34.24 C 188.12 36.65 191.88 36.74 194.44 38.37 C 192.91 42.31 190.52 45.86 187.38 48.69 C 187.96 48.87 189.13 49.25 189.71 49.44 C 187.58 51.65 185.46 53.88 183.23 56.00 L 182.65 56.00 C 183.89 45.61 183.20 35.18 182.60 24.79 L 182.67 24.08 C 183.23 17.21 182.70 10.30 182.31 3.43 C 182.36 2.31 181.91 1.48 180.95 0.96 C 180.54 0.72 179.70 0.24 179.29 0.00 Z" />
<path fill="#3c6bbe" opacity="1.00" d=" M 16.41 36.25 C 20.83 36.15 24.80 38.35 28.25 40.90 C 25.81 42.72 23.27 44.39 20.64 45.92 C 21.02 47.50 21.41 49.09 21.78 50.68 C 19.92 52.23 18.08 53.80 16.23 55.37 C 15.60 53.74 14.92 52.14 14.14 50.59 C 13.89 50.29 13.40 49.68 13.15 49.38 C 14.36 48.10 15.55 46.81 16.75 45.52 C 16.33 45.34 15.51 44.98 15.10 44.80 L 14.45 44.47 C 14.35 42.88 14.16 39.72 14.06 38.14 C 14.84 37.51 15.63 36.88 16.41 36.25 Z" />
<path fill="#3c6bbe" opacity="1.00" d=" M 62.20 50.82 C 61.83 49.57 62.50 47.90 64.00 48.01 C 63.94 48.63 63.81 49.86 63.75 50.48 C 63.36 50.56 62.58 50.73 62.20 50.82 Z" />
<path fill="#3c6bbe" opacity="1.00" d=" M 118.18 50.81 C 117.83 49.56 118.49 47.89 120.00 48.00 C 119.93 48.61 119.80 49.85 119.73 50.46 C 119.35 50.55 118.57 50.72 118.18 50.81 Z" />
<path fill="#3c6bbe" opacity="1.00" d=" M 174.20 50.82 C 173.83 49.57 174.50 47.90 176.00 48.01 C 175.94 48.63 175.81 49.86 175.75 50.48 C 175.36 50.56 174.58 50.73 174.20 50.82 Z" />
<path fill="#3c6bbe" opacity="1.00" d=" M 65.80 50.23 C 66.33 50.41 67.39 50.75 67.92 50.92 C 67.56 51.18 66.85 51.70 66.49 51.96 C 66.22 51.71 65.68 51.19 65.41 50.93 L 65.80 50.23 Z" />
<path fill="#3c6bbe" opacity="1.00" d=" M 121.78 50.23 C 122.30 50.41 123.35 50.76 123.87 50.94 C 123.51 51.20 122.79 51.71 122.43 51.97 C 122.16 51.71 121.64 51.18 121.38 50.92 L 121.78 50.23 Z" />
<path fill="#3c6bbe" opacity="1.00" d=" M 177.80 50.23 C 178.33 50.41 179.39 50.75 179.92 50.92 C 179.56 51.18 178.85 51.70 178.49 51.96 C 178.22 51.71 177.68 51.19 177.41 50.93 L 177.80 50.23 Z" />
<path fill="#3c6bbe" opacity="1.00" d=" M 72.04 56.00 C 74.40 54.41 76.52 52.38 79.21 51.33 C 82.20 51.60 84.95 53.08 87.82 53.87 C 86.35 54.60 84.88 55.33 83.38 56.00 L 72.04 56.00 Z" />
<path fill="#3c6bbe" opacity="1.00" d=" M 184.04 56.00 C 186.40 54.41 188.52 52.38 191.21 51.33 C 194.20 51.60 196.94 53.08 199.82 53.87 C 198.35 54.60 196.88 55.33 195.38 56.00 L 184.04 56.00 Z" />
<path fill="#3c6bbe" opacity="1.00" d=" M 16.94 56.00 C 19.88 54.42 22.67 51.94 26.33 52.67 C 28.26 53.51 29.89 54.86 31.64 56.00 L 16.94 56.00 Z" />
<path fill="#3c6bbe" opacity="1.00" d=" M 63.48 52.74 L 64.24 52.65 L 64.53 53.33 C 64.33 54.00 63.92 55.33 63.72 56.00 L 62.18 56.00 L 61.97 55.38 C 62.84 54.72 63.34 53.84 63.48 52.74 Z" />
<path fill="#3c6bbe" opacity="1.00" d=" M 119.45 52.74 L 120.20 52.65 L 120.49 53.34 C 120.30 54.00 119.92 55.33 119.72 56.00 L 118.18 56.00 L 117.96 55.38 C 118.82 54.72 119.32 53.83 119.45 52.74 Z" />
<path fill="#3c6bbe" opacity="1.00" d=" M 175.48 52.74 L 176.24 52.65 L 176.53 53.33 C 176.33 54.00 175.92 55.33 175.72 56.00 L 174.18 56.00 L 173.97 55.38 C 174.84 54.72 175.34 53.84 175.48 52.74 Z" />
</g>
<g id="#4079ccff">
<path fill="#4079cc" opacity="1.00" d=" M 25.54 0.00 L 30.48 0.00 C 38.56 3.05 47.33 5.75 55.94 3.30 C 55.96 4.04 55.99 5.51 56.01 6.25 C 52.19 6.49 48.34 6.99 44.51 6.69 C 41.18 5.97 38.24 4.02 34.92 3.28 C 30.97 3.35 27.64 5.50 23.99 6.57 C 21.42 6.48 19.06 5.22 16.65 4.43 C 20.63 4.15 24.62 4.12 28.56 3.49 C 27.57 2.31 26.58 1.13 25.54 0.00 Z" />
<path fill="#4079cc" opacity="1.00" d=" M 151.54 0.00 L 154.20 0.00 C 157.72 4.00 163.06 3.69 167.92 3.52 C 167.94 4.24 167.98 5.66 168.00 6.37 C 163.81 6.12 159.56 5.92 155.47 4.96 C 153.78 3.65 152.71 1.75 151.54 0.00 Z" />
</g>
<g id="#85af5fff">
<path fill="#85af5f" opacity="1.00" d=" M 55.82 0.00 L 56.23 0.00 C 57.93 1.51 59.58 3.08 61.23 4.65 C 60.39 4.48 59.55 4.30 58.71 4.13 C 57.69 10.13 58.00 16.31 61.45 21.63 C 61.73 22.17 62.28 23.26 62.55 23.80 C 61.29 23.50 60.02 23.25 58.76 22.99 C 58.52 23.87 58.29 24.76 58.06 25.64 C 57.37 25.13 56.69 24.61 56.01 24.09 C 56.05 20.51 56.04 16.92 56.05 13.34 C 56.05 12.72 56.05 11.47 56.05 10.85 C 56.05 9.31 56.03 7.78 56.01 6.25 C 55.99 5.51 55.96 4.04 55.94 3.30 C 55.91 2.48 55.85 0.83 55.82 0.00 M 57.29 20.53 C 56.42 21.76 58.53 23.05 59.33 21.85 C 60.15 20.65 58.07 19.38 57.29 20.53 Z" />
<path fill="#85af5f" opacity="1.00" d=" M 111.78 0.00 L 112.22 0.00 C 113.92 1.51 115.58 3.08 117.23 4.65 C 116.39 4.48 115.55 4.30 114.71 4.13 C 113.70 10.13 114.00 16.30 117.45 21.61 C 117.73 22.16 118.28 23.25 118.56 23.79 C 117.29 23.50 116.02 23.25 114.76 22.99 C 114.52 23.87 114.28 24.75 114.04 25.62 C 113.36 25.13 112.68 24.62 112.00 24.12 C 112.07 20.17 112.05 16.22 112.07 12.27 C 112.06 11.61 112.06 10.28 112.05 9.61 C 112.04 8.49 112.02 7.37 112.00 6.25 C 111.98 5.54 111.93 4.12 111.91 3.41 C 111.88 2.56 111.81 0.85 111.78 0.00 M 113.29 20.53 C 112.42 21.76 114.53 23.05 115.33 21.85 C 116.15 20.65 114.07 19.38 113.29 20.53 Z" />
<path fill="#85af5f" opacity="1.00" d=" M 167.79 0.00 L 168.23 0.00 C 169.93 1.51 171.58 3.08 173.23 4.65 C 172.39 4.48 171.55 4.30 170.71 4.12 C 169.70 10.13 169.99 16.32 173.45 21.63 C 173.73 22.17 174.28 23.26 174.55 23.80 C 173.29 23.50 172.02 23.25 170.75 23.00 C 170.52 23.86 170.29 24.73 170.07 25.60 C 169.37 25.15 168.68 24.69 167.99 24.24 C 168.03 19.98 168.06 15.71 168.06 11.45 C 168.06 10.83 168.05 9.59 168.05 8.97 C 168.03 8.32 168.01 7.02 168.00 6.37 C 167.98 5.66 167.94 4.24 167.92 3.52 C 167.89 2.64 167.82 0.88 167.79 0.00 M 169.29 20.53 C 168.42 21.76 170.53 23.05 171.33 21.85 C 172.15 20.65 170.07 19.38 169.29 20.53 Z" />
</g>
<g id="#6b9959ff">
<path fill="#6b9959" opacity="1.00" d=" M 56.23 0.00 L 62.84 0.00 C 62.00 7.19 63.09 14.50 61.45 21.63 C 58.00 16.31 57.69 10.13 58.71 4.13 C 59.55 4.30 60.39 4.48 61.23 4.65 C 59.58 3.08 57.93 1.51 56.23 0.00 Z" />
<path fill="#6b9959" opacity="1.00" d=" M 112.22 0.00 L 118.85 0.00 C 117.98 7.19 119.09 14.48 117.45 21.61 C 114.00 16.30 113.70 10.13 114.71 4.13 C 115.55 4.30 116.39 4.48 117.23 4.65 C 115.58 3.08 113.92 1.51 112.22 0.00 Z" />
<path fill="#6b9959" opacity="1.00" d=" M 168.23 0.00 L 174.84 0.00 C 174.00 7.19 175.09 14.50 173.45 21.63 C 169.99 16.32 169.70 10.13 170.71 4.12 C 171.55 4.30 172.39 4.48 173.23 4.65 C 171.58 3.08 169.93 1.51 168.23 0.00 Z" />
</g>
<g id="#565248fe">
<path fill="#565248" opacity="1.00" d=" M 65.66 0.00 L 67.29 0.00 C 67.70 0.24 68.54 0.72 68.95 0.96 C 68.24 2.07 67.97 3.27 68.14 4.56 C 67.08 4.47 66.02 4.38 64.96 4.30 C 65.19 2.87 65.42 1.43 65.66 0.00 Z" />
<path fill="#565248" opacity="1.00" d=" M 121.88 0.00 L 123.96 0.00 C 124.21 0.68 124.70 2.05 124.95 2.74 C 124.69 3.24 124.18 4.26 123.92 4.77 C 122.93 4.60 121.93 4.44 120.93 4.29 C 121.24 2.86 121.56 1.43 121.88 0.00 Z" />
<path fill="#565248" opacity="1.00" d=" M 177.66 0.00 L 179.29 0.00 C 179.70 0.24 180.54 0.72 180.95 0.96 C 180.24 2.07 179.96 3.27 180.14 4.56 C 179.08 4.47 178.02 4.38 176.96 4.30 C 177.19 2.87 177.42 1.43 177.66 0.00 Z" />
</g>
<g id="#4179cbff">
<path fill="#4179cb" opacity="1.00" d=" M 85.31 0.00 L 93.94 0.00 C 99.21 3.75 105.71 3.53 111.91 3.41 C 111.93 4.12 111.98 5.54 112.00 6.25 C 108.78 6.16 105.56 6.02 102.36 5.77 C 98.02 5.75 95.17 1.71 91.06 0.93 C 86.63 0.73 83.74 4.16 80.05 5.77 C 77.47 5.47 75.11 4.25 72.69 3.38 C 77.15 3.44 81.97 3.55 85.31 0.00 Z" />
<path fill="#4179cb" opacity="1.00" d=" M 197.31 0.00 L 205.93 0.00 C 211.25 3.71 217.77 3.53 224.00 3.62 L 224.00 6.53 C 220.03 5.93 215.97 6.09 212.02 5.38 C 208.87 4.25 206.39 1.63 203.06 0.93 C 198.63 0.73 195.74 4.16 192.05 5.77 C 189.47 5.47 187.10 4.25 184.69 3.38 C 189.15 3.44 193.97 3.55 197.31 0.00 Z" />
</g>
<g id="#3c6abefe">
<path fill="#3c6abe" opacity="1.00" d=" M 93.94 0.00 L 111.78 0.00 C 111.81 0.85 111.88 2.56 111.91 3.41 C 105.71 3.53 99.21 3.75 93.94 0.00 Z" />
<path fill="#3c6abe" opacity="1.00" d=" M 205.93 0.00 L 224.00 0.00 L 224.00 3.62 C 217.77 3.53 211.25 3.71 205.93 0.00 Z" />
</g>
<g id="#3c6bbefe">
<path fill="#3c6bbe" opacity="1.00" d=" M 125.54 0.00 L 138.29 0.00 C 137.72 0.57 136.60 1.70 136.04 2.27 C 133.58 2.21 131.12 2.14 128.66 2.22 C 131.27 3.27 133.83 4.63 136.64 5.06 C 138.43 3.62 139.75 1.70 141.27 0.00 L 151.54 0.00 C 152.71 1.75 153.78 3.65 155.47 4.96 C 159.56 5.92 163.81 6.12 168.00 6.37 C 168.01 7.02 168.03 8.32 168.05 8.97 C 162.60 9.46 156.26 8.88 152.48 13.71 C 157.67 12.94 162.83 11.95 168.06 11.45 C 168.06 15.71 168.03 19.98 167.99 24.24 C 167.97 24.77 167.94 25.84 167.93 26.37 C 163.23 27.00 158.33 26.13 156.01 21.65 C 158.75 20.11 161.53 18.64 164.28 17.13 C 160.81 17.82 157.35 18.56 153.89 19.27 C 156.04 24.04 161.30 28.08 159.80 33.77 C 156.92 33.00 153.85 32.74 151.13 31.47 C 149.24 29.79 148.24 27.36 146.80 25.32 C 147.24 27.35 147.67 29.38 148.11 31.42 C 142.58 34.14 135.05 35.20 130.18 30.65 C 129.22 28.44 131.12 26.71 133.12 26.22 C 136.90 25.31 140.83 25.36 144.68 24.90 C 139.50 22.54 133.95 23.85 129.01 26.08 C 128.99 28.67 128.98 31.26 128.98 33.85 C 132.26 35.21 136.06 35.77 138.79 38.15 C 138.42 41.17 137.38 44.05 136.60 46.97 C 140.59 44.13 141.28 38.82 144.71 35.65 C 151.98 32.34 159.59 36.75 166.70 38.43 C 164.74 36.24 162.76 34.06 161.08 31.64 C 163.37 30.30 165.66 28.98 167.88 27.53 C 167.78 33.10 167.74 38.67 167.71 44.25 C 166.53 43.78 164.85 43.15 163.83 44.24 C 163.93 46.04 166.64 45.26 167.71 44.76 C 167.76 46.70 167.84 48.64 167.92 50.58 C 164.55 51.39 161.23 52.31 157.90 53.21 C 156.25 53.38 154.55 54.22 154.24 56.00 L 150.24 56.00 C 145.10 51.79 138.89 49.29 133.51 45.47 C 132.65 46.08 131.81 46.72 130.98 47.37 C 131.68 47.63 133.09 48.16 133.80 48.42 C 132.06 50.14 130.32 51.85 128.59 53.58 C 133.73 50.17 140.27 50.06 145.63 53.03 C 143.57 53.36 139.46 54.02 137.40 54.35 C 138.01 54.76 139.22 55.59 139.83 56.00 L 126.85 56.00 C 128.05 38.60 126.27 21.20 126.46 3.78 L 126.48 3.21 C 126.68 2.07 126.72 0.65 125.54 0.00 M 138.70 9.44 C 141.11 10.62 143.57 11.70 146.06 12.72 C 145.40 14.03 144.71 15.34 144.03 16.64 C 147.06 16.49 150.10 16.59 153.13 16.76 C 149.05 15.62 146.22 12.67 144.69 8.78 C 142.70 9.04 140.69 9.23 138.70 9.44 M 154.18 44.34 C 152.14 44.67 150.40 43.24 148.62 42.49 C 148.42 43.22 148.22 43.95 148.03 44.68 C 152.35 46.50 157.06 47.88 161.36 45.15 C 161.04 43.16 160.79 41.16 160.61 39.15 C 158.76 41.15 157.17 44.02 154.18 44.34 Z" />
</g>
<g id="#4476cbff">
<path fill="#4476cb" opacity="1.00" d=" M 138.29 0.00 L 141.27 0.00 C 139.75 1.70 138.43 3.62 136.64 5.06 C 133.83 4.63 131.27 3.27 128.66 2.22 C 131.12 2.14 133.58 2.21 136.04 2.27 C 136.60 1.70 137.72 0.57 138.29 0.00 Z" />
</g>
<g id="#a0b6cbff">
<path fill="#a0b6cb" opacity="1.00" d=" M 12.92 0.81 C 13.37 1.30 14.25 2.28 14.70 2.77 L 14.73 3.39 C 14.45 3.67 13.88 4.23 13.60 4.51 C 13.26 4.49 12.58 4.44 12.24 4.41 C 12.11 3.15 12.34 1.95 12.92 0.81 Z" />
<path fill="#a0b6cb" opacity="1.00" d=" M 68.95 0.96 C 69.91 1.48 70.36 2.31 70.31 3.43 C 70.10 3.75 69.69 4.39 69.48 4.71 C 69.14 4.67 68.47 4.60 68.14 4.56 C 67.97 3.27 68.24 2.07 68.95 0.96 Z" />
<path fill="#a0b6cb" opacity="1.00" d=" M 180.95 0.96 C 181.91 1.48 182.36 2.31 182.31 3.43 C 182.10 3.75 181.69 4.39 181.48 4.71 C 181.14 4.67 180.47 4.60 180.14 4.56 C 179.96 3.27 180.24 2.07 180.95 0.96 Z" />
</g>
<g id="#86a0b1ff">
<path fill="#86a0b1" opacity="1.00" d=" M 123.92 4.77 C 124.18 4.26 124.69 3.24 124.95 2.74 C 125.33 2.86 126.10 3.09 126.48 3.21 L 126.46 3.78 C 126.18 4.08 125.62 4.69 125.34 4.99 C 124.99 4.93 124.28 4.82 123.92 4.77 Z" />
<path fill="#86a0b1" opacity="1.00" d=" M 124.11 22.76 C 124.55 22.65 125.42 22.44 125.86 22.33 C 126.89 23.59 125.04 25.10 124.14 23.60 L 124.11 22.76 Z" />
<path fill="#86a0b1" opacity="1.00" d=" M 67.56 37.75 C 67.95 37.75 68.73 37.74 69.12 37.74 C 69.40 38.98 68.35 40.25 67.05 40.03 L 66.73 39.41 C 66.94 39.00 67.36 38.17 67.56 37.75 Z" />
<path fill="#86a0b1" opacity="1.00" d=" M 179.56 37.75 C 179.95 37.75 180.73 37.74 181.12 37.74 C 181.39 38.98 180.34 40.25 179.05 40.03 L 178.73 39.41 C 178.94 39.00 179.36 38.17 179.56 37.75 Z" />
<path fill="#86a0b1" opacity="1.00" d=" M 68.75 43.58 C 69.68 44.85 69.18 46.95 67.62 47.45 C 67.04 46.11 67.15 44.15 68.75 43.58 Z" />
<path fill="#86a0b1" opacity="1.00" d=" M 180.75 43.58 C 181.68 44.85 181.18 46.95 179.62 47.45 C 179.04 46.11 179.15 44.15 180.75 43.58 Z" />
<path fill="#86a0b1" opacity="1.00" d=" M 12.70 49.85 L 13.15 49.38 C 13.40 49.68 13.89 50.29 14.14 50.59 C 14.28 51.75 14.03 52.81 13.39 53.78 L 12.92 53.72 C 12.85 53.27 12.71 52.38 12.64 51.94 C 12.66 51.41 12.69 50.37 12.70 49.85 Z" />
<path fill="#86a0b1" opacity="1.00" d=" M 123.87 50.94 L 124.35 51.46 C 124.37 51.84 124.42 52.62 124.45 53.01 C 123.98 52.94 123.05 52.81 122.58 52.74 L 122.43 51.97 C 122.79 51.71 123.51 51.20 123.87 50.94 Z" />
</g>
<g id="#87b05cff">
<path fill="#87b05c" opacity="1.00" d=" M 3.40 3.15 C 4.80 2.71 5.29 3.20 4.85 4.60 C 3.45 5.03 2.97 4.55 3.40 3.15 Z" />
</g>
<g id="#86b05fff">
<path fill="#86b05f" opacity="1.00" d=" M 2.00 3.22 C 2.77 6.16 2.56 9.20 1.72 12.10 C 2.90 15.30 4.17 18.47 5.52 21.59 C 5.79 22.14 6.31 23.24 6.57 23.79 C 5.31 23.50 4.04 23.24 2.77 22.99 C 2.54 23.88 2.30 24.78 2.07 25.67 C 1.38 25.14 0.69 24.62 0.00 24.09 L 0.00 6.52 C 0.50 5.69 1.50 4.04 2.00 3.22 M 1.29 20.53 C 0.42 21.76 2.53 23.05 3.33 21.85 C 4.15 20.65 2.07 19.38 1.29 20.53 Z" />
</g>
<g id="#2f8bd3fe">
<path fill="#2f8bd3" opacity="1.00" d=" M 14.73 3.39 C 15.42 7.44 15.97 11.63 14.93 15.67 C 14.43 15.45 13.44 15.01 12.94 14.79 C 13.29 12.50 13.60 10.20 13.91 7.91 C 13.00 8.63 12.10 9.36 11.19 10.08 C 11.78 8.14 12.64 6.30 13.60 4.51 C 13.88 4.23 14.45 3.67 14.73 3.39 Z" />
</g>
<g id="#2c8ed7ff">
<path fill="#2c8ed7" opacity="1.00" d=" M 70.31 3.43 C 70.70 10.30 71.23 17.21 70.67 24.08 C 70.52 23.68 70.23 22.88 70.09 22.48 C 69.84 21.81 69.34 20.47 69.09 19.80 C 68.44 17.99 67.77 16.19 67.16 14.36 C 69.69 15.56 69.31 11.90 67.10 12.04 C 67.70 9.54 68.39 7.05 69.48 4.71 C 69.69 4.39 70.10 3.75 70.31 3.43 Z" />
<path fill="#2c8ed7" opacity="1.00" d=" M 182.31 3.43 C 182.70 10.30 183.23 17.21 182.67 24.08 C 182.52 23.68 182.23 22.88 182.09 22.48 C 181.84 21.81 181.34 20.47 181.09 19.80 C 180.44 17.99 179.77 16.19 179.16 14.36 C 181.69 15.56 181.31 11.90 179.10 12.04 C 179.69 9.54 180.39 7.05 181.48 4.71 C 181.69 4.39 182.10 3.75 182.31 3.43 Z" />
</g>
<g id="#288dd7ff">
<path fill="#288dd7" opacity="1.00" d=" M 126.46 3.78 C 126.27 21.20 128.05 38.60 126.85 56.00 L 125.54 56.00 C 125.33 55.44 124.92 54.33 124.72 53.78 L 124.45 53.01 C 124.42 52.62 124.37 51.84 124.35 51.46 C 124.01 47.55 123.53 43.66 123.21 39.76 C 123.33 39.35 123.57 38.54 123.69 38.13 C 124.08 36.36 124.44 34.58 124.70 32.79 C 124.72 31.87 124.71 30.95 124.67 30.03 C 124.54 27.88 124.27 25.75 124.14 23.60 C 125.04 25.10 126.89 23.59 125.86 22.33 C 125.56 21.46 125.26 20.58 124.97 19.71 C 124.45 18.19 123.91 16.67 123.35 15.16 C 125.36 14.96 124.86 12.25 123.17 11.94 C 123.74 9.58 124.35 7.21 125.34 4.99 C 125.62 4.69 126.18 4.08 126.46 3.78 Z" />
</g>
<g id="#a5bbd1ff">
<path fill="#a5bbd1" opacity="1.00" d=" M 11.19 10.08 C 12.10 9.36 13.00 8.63 13.91 7.91 C 13.60 10.20 13.29 12.50 12.94 14.79 C 12.51 14.60 11.65 14.22 11.22 14.03 C 11.16 12.71 11.15 11.40 11.19 10.08 Z" />
</g>
<g id="#4377caff">
<path fill="#4377ca" opacity="1.00" d=" M 138.70 9.44 C 140.69 9.23 142.70 9.04 144.69 8.78 C 146.22 12.67 149.05 15.62 153.13 16.76 C 150.10 16.59 147.06 16.49 144.03 16.64 C 144.71 15.34 145.40 14.03 146.06 12.72 C 143.57 11.70 141.11 10.62 138.70 9.44 Z" />
</g>
<g id="#3f7bccff">
<path fill="#3f7bcc" opacity="1.00" d=" M 152.48 13.71 C 156.26 8.88 162.60 9.46 168.05 8.97 C 168.05 9.59 168.06 10.83 168.06 11.45 C 162.83 11.95 157.67 12.94 152.48 13.71 Z" />
</g>
<g id="#427bcbff">
<path fill="#427bcb" opacity="1.00" d=" M 101.53 10.48 C 104.89 9.39 108.55 9.81 112.05 9.61 C 112.06 10.28 112.06 11.61 112.07 12.27 C 106.61 12.80 101.33 14.38 95.98 15.48 C 97.78 13.77 99.38 11.79 101.53 10.48 Z" />
<path fill="#427bcb" opacity="1.00" d=" M 213.50 10.48 C 216.89 9.53 220.50 9.62 224.00 9.35 L 224.00 11.91 C 218.48 12.13 213.51 14.98 208.04 15.53 C 209.81 13.81 211.32 11.72 213.50 10.48 Z" />
</g>
<g id="#437cccff">
<path fill="#437ccc" opacity="1.00" d=" M 43.67 10.35 C 47.80 10.50 51.93 10.69 56.05 10.85 C 56.05 11.47 56.05 12.72 56.05 13.34 C 50.59 14.21 45.24 15.69 39.76 16.43 C 41.31 15.48 42.87 14.53 44.43 13.59 C 44.18 12.51 43.92 11.43 43.67 10.35 Z" />
</g>
<g id="#8bb5d9ff">
<path fill="#8bb5d9" opacity="1.00" d=" M 67.16 14.36 C 67.15 13.78 67.12 12.62 67.10 12.04 C 69.31 11.90 69.69 15.56 67.16 14.36 Z" />
<path fill="#8bb5d9" opacity="1.00" d=" M 179.16 14.36 C 179.15 13.78 179.12 12.62 179.10 12.04 C 181.31 11.90 181.69 15.56 179.16 14.36 Z" />
</g>
<g id="#6e9bbbff">
<path fill="#6e9bbb" opacity="1.00" d=" M 123.35 15.16 C 122.86 14.11 122.80 13.04 123.17 11.94 C 124.86 12.25 125.36 14.96 123.35 15.16 Z" />
</g>
<g id="#2a8ed7ff">
<path fill="#2a8ed7" opacity="1.00" d=" M 11.22 14.03 C 11.65 14.22 12.51 14.60 12.94 14.79 C 13.44 15.01 14.43 15.45 14.93 15.67 C 15.48 17.14 16.06 18.60 16.62 20.07 C 16.01 21.39 15.40 22.72 14.79 24.04 C 14.64 23.65 14.35 22.86 14.20 22.47 C 13.93 21.80 13.39 20.45 13.12 19.78 C 12.42 17.89 11.74 15.98 11.22 14.03 Z" />
</g>
<g id="#427acbff">
<path fill="#427acb" opacity="1.00" d=" M 34.89 17.40 C 36.97 18.46 39.05 19.51 41.15 20.54 C 37.42 20.56 33.22 19.82 29.91 21.97 C 28.11 23.16 29.05 25.44 29.09 27.19 C 24.85 27.15 20.81 28.75 18.83 32.72 C 21.49 33.86 24.09 35.41 27.02 35.72 C 29.53 35.54 31.81 34.34 34.11 33.41 C 33.68 31.36 33.25 29.31 32.82 27.27 C 34.69 29.99 36.45 32.80 38.30 35.54 C 30.12 35.91 29.11 45.19 24.18 49.78 C 27.27 51.55 30.08 53.73 32.81 56.00 L 31.64 56.00 C 29.89 54.86 28.26 53.51 26.33 52.67 C 22.67 51.94 19.88 54.42 16.94 56.00 L 15.47 56.00 L 16.23 55.37 C 18.08 53.80 19.92 52.23 21.78 50.68 C 21.41 49.09 21.02 47.50 20.64 45.92 C 23.27 44.39 25.81 42.72 28.25 40.90 C 24.80 38.35 20.83 36.15 16.41 36.25 C 15.14 36.28 13.88 36.33 12.61 36.40 C 12.75 36.09 13.02 35.46 13.16 35.15 C 13.38 34.65 13.82 33.66 14.04 33.16 C 15.22 33.89 16.41 34.62 17.59 35.36 C 17.91 33.02 18.11 30.67 18.20 28.32 C 21.52 27.20 24.78 25.94 28.01 24.61 C 26.22 22.74 24.32 20.97 22.35 19.30 C 26.59 19.33 30.90 18.91 34.89 17.40 Z" />
</g>
<g id="#4279cbff">
<path fill="#4279cb" opacity="1.00" d=" M 78.12 16.94 C 82.35 17.89 86.73 18.06 91.00 17.28 C 88.99 18.95 87.02 20.65 85.05 22.36 C 85.60 23.67 86.17 24.99 86.73 26.30 C 81.49 25.90 76.03 26.88 73.57 32.00 C 78.32 33.24 83.84 36.14 88.67 33.67 C 91.37 32.25 89.94 28.75 90.07 26.36 C 91.48 28.91 93.01 31.40 94.38 33.99 C 86.98 36.13 83.71 43.38 79.22 48.82 C 83.80 51.39 88.40 53.96 93.25 56.00 L 83.38 56.00 C 84.88 55.33 86.35 54.60 87.82 53.87 C 84.95 53.08 82.20 51.60 79.21 51.33 C 76.52 52.38 74.40 54.41 72.04 56.00 L 71.23 56.00 C 73.46 53.88 75.58 51.65 77.71 49.44 C 77.13 49.25 75.96 48.87 75.38 48.69 C 78.52 45.86 80.91 42.31 82.44 38.37 C 79.90 36.74 76.12 36.65 73.99 34.24 C 73.25 32.03 73.25 29.66 72.95 27.36 C 77.06 26.23 81.10 24.87 85.15 23.51 C 83.36 20.78 80.86 18.67 78.12 16.94 Z" />
<path fill="#4279cb" opacity="1.00" d=" M 190.12 16.94 C 194.35 17.89 198.72 18.06 203.00 17.28 C 200.99 18.95 199.01 20.65 197.05 22.36 C 197.60 23.67 198.17 24.99 198.73 26.30 C 193.59 25.96 188.15 26.80 185.66 31.82 C 188.40 32.92 191.01 34.47 193.89 35.22 C 197.15 35.32 200.10 33.60 203.01 32.34 C 202.66 30.27 202.30 28.19 201.92 26.12 C 203.51 28.67 204.99 31.29 206.34 33.97 C 198.98 36.16 195.70 43.37 191.22 48.82 C 195.80 51.39 200.40 53.96 205.25 56.00 L 195.38 56.00 C 196.88 55.33 198.35 54.60 199.82 53.87 C 196.94 53.08 194.20 51.60 191.21 51.33 C 188.52 52.38 186.40 54.41 184.04 56.00 L 183.23 56.00 C 185.46 53.88 187.58 51.65 189.71 49.44 C 189.13 49.25 187.96 48.87 187.38 48.69 C 190.52 45.86 192.91 42.31 194.44 38.37 C 191.88 36.74 188.12 36.65 185.99 34.24 C 185.25 32.03 185.25 29.66 184.95 27.36 C 189.06 26.23 193.10 24.87 197.15 23.51 C 195.36 20.78 192.86 18.67 190.12 16.94 Z" />
<path fill="#4279cb" opacity="1.00" d=" M 154.18 44.34 C 157.17 44.02 158.76 41.15 160.61 39.15 C 160.79 41.16 161.04 43.16 161.36 45.15 C 157.06 47.88 152.35 46.50 148.03 44.68 C 148.22 43.95 148.42 43.22 148.62 42.49 C 150.40 43.24 152.14 44.67 154.18 44.34 Z" />
</g>
<g id="#437acaff">
<path fill="#437aca" opacity="1.00" d=" M 153.89 19.27 C 157.35 18.56 160.81 17.82 164.28 17.13 C 161.53 18.64 158.75 20.11 156.01 21.65 C 158.33 26.13 163.23 27.00 167.93 26.37 C 167.91 26.66 167.89 27.24 167.88 27.53 C 165.66 28.98 163.37 30.30 161.08 31.64 C 162.76 34.06 164.74 36.24 166.70 38.43 C 159.59 36.75 151.98 32.34 144.71 35.65 C 141.28 38.82 140.59 44.13 136.60 46.97 C 137.38 44.05 138.42 41.17 138.79 38.15 C 136.06 35.77 132.26 35.21 128.98 33.85 C 128.98 31.26 128.99 28.67 129.01 26.08 C 133.95 23.85 139.50 22.54 144.68 24.90 C 140.83 25.36 136.90 25.31 133.12 26.22 C 131.12 26.71 129.22 28.44 130.18 30.65 C 135.05 35.20 142.58 34.14 148.11 31.42 C 147.67 29.38 147.24 27.35 146.80 25.32 C 148.24 27.36 149.24 29.79 151.13 31.47 C 153.85 32.74 156.92 33.00 159.80 33.77 C 161.30 28.08 156.04 24.04 153.89 19.27 Z" />
</g>
<g id="#4379caff">
<path fill="#4379ca" opacity="1.00" d=" M 97.89 20.27 C 101.35 19.56 104.81 18.82 108.28 18.13 C 105.53 19.64 102.75 21.11 100.01 22.65 C 102.33 27.12 107.21 28.00 111.91 27.37 C 111.89 27.66 111.87 28.25 111.86 28.54 C 109.65 30.00 107.35 31.31 105.07 32.64 C 106.75 35.05 108.73 37.21 110.70 39.38 C 105.80 38.15 100.90 36.87 96.22 34.93 C 96.49 34.01 96.77 33.10 97.04 32.18 C 99.24 33.16 101.44 34.13 103.65 35.10 C 105.61 29.28 100.07 25.14 97.89 20.27 Z" />
<path fill="#4379ca" opacity="1.00" d=" M 209.89 20.27 C 213.35 19.56 216.81 18.82 220.28 18.13 C 217.52 19.64 214.74 21.11 212.00 22.66 C 214.38 27.10 219.30 27.98 224.00 27.68 L 224.00 28.32 C 221.74 29.85 219.41 31.26 217.10 32.70 C 218.78 35.08 220.75 37.23 222.70 39.38 C 217.80 38.15 212.90 36.87 208.22 34.93 C 208.49 34.01 208.76 33.10 209.04 32.18 C 211.24 33.16 213.44 34.13 215.65 35.10 C 217.61 29.28 212.07 25.14 209.89 20.27 Z" />
<path fill="#4379ca" opacity="1.00" d=" M 41.89 21.27 C 45.35 20.56 48.81 19.82 52.28 19.13 C 49.53 20.64 46.75 22.11 44.01 23.65 C 46.33 28.11 51.21 29.00 55.91 28.37 C 55.90 28.66 55.87 29.25 55.86 29.55 C 53.65 31.00 51.35 32.32 49.06 33.64 C 50.75 36.05 52.73 38.21 54.70 40.38 C 49.80 39.15 44.90 37.87 40.22 35.93 C 40.49 35.01 40.77 34.10 41.04 33.18 C 43.24 34.16 45.44 35.13 47.65 36.10 C 49.62 30.28 44.07 26.14 41.89 21.27 Z" />
</g>
<g id="#67965dff">
<path fill="#67965d" opacity="1.00" d=" M 1.29 20.53 C 2.07 19.38 4.15 20.65 3.33 21.85 C 2.53 23.05 0.42 21.76 1.29 20.53 Z" />
<path fill="#67965d" opacity="1.00" d=" M 57.29 20.53 C 58.07 19.38 60.15 20.65 59.33 21.85 C 58.53 23.05 56.42 21.76 57.29 20.53 Z" />
<path fill="#67965d" opacity="1.00" d=" M 113.29 20.53 C 114.07 19.38 116.15 20.65 115.33 21.85 C 114.53 23.05 112.42 21.76 113.29 20.53 Z" />
<path fill="#67965d" opacity="1.00" d=" M 169.29 20.53 C 170.07 19.38 172.15 20.65 171.33 21.85 C 170.53 23.05 168.42 21.76 169.29 20.53 Z" />
</g>
<g id="#6c5e4cff">
<path fill="#6c5e4c" opacity="1.00" d=" M 9.47 20.20 C 10.38 20.10 12.21 19.88 13.12 19.78 C 13.39 20.45 13.93 21.80 14.20 22.47 C 13.58 22.57 12.33 22.78 11.70 22.88 C 11.20 22.95 10.21 23.08 9.71 23.15 C 9.64 22.17 9.56 21.18 9.47 20.20 Z" />
<path fill="#6c5e4c" opacity="1.00" d=" M 65.47 20.20 C 66.38 20.10 68.19 19.90 69.09 19.80 C 69.34 20.47 69.84 21.81 70.09 22.48 C 69.51 22.59 68.34 22.82 67.75 22.94 C 67.25 22.99 66.24 23.09 65.73 23.14 C 65.65 22.16 65.57 21.18 65.47 20.20 Z" />
<path fill="#6c5e4c" opacity="1.00" d=" M 121.49 20.20 C 122.36 20.08 124.10 19.84 124.97 19.71 C 125.26 20.58 125.56 21.46 125.86 22.33 C 125.42 22.44 124.55 22.65 124.11 22.76 C 123.51 22.87 122.32 23.09 121.73 23.20 C 121.66 22.20 121.58 21.20 121.49 20.20 Z" />
<path fill="#6c5e4c" opacity="1.00" d=" M 177.47 20.20 C 178.38 20.10 180.19 19.90 181.09 19.80 C 181.34 20.47 181.84 21.81 182.09 22.48 C 181.51 22.59 180.34 22.82 179.75 22.94 C 179.25 22.99 178.24 23.09 177.73 23.14 C 177.65 22.16 177.56 21.18 177.47 20.20 Z" />
</g>
<g id="#332f2aff">
<path fill="#332f2a" opacity="1.00" d=" M 5.52 21.59 C 6.91 22.14 8.29 22.69 9.71 23.15 C 10.21 23.08 11.20 22.95 11.70 22.88 L 11.85 23.63 C 12.15 25.02 12.47 26.41 12.79 27.80 C 12.84 28.36 12.94 29.48 12.99 30.04 C 11.43 29.17 9.86 28.30 8.29 27.45 C 8.81 28.47 9.32 29.49 9.84 30.51 C 8.28 30.07 6.72 29.63 5.18 29.14 C 5.15 29.01 5.11 28.75 5.09 28.62 C 6.76 28.28 8.45 26.40 7.14 24.78 C 7.00 24.53 6.71 24.04 6.57 23.79 C 6.31 23.24 5.79 22.14 5.52 21.59 Z" />
<path fill="#332f2a" opacity="1.00" d=" M 117.45 21.61 C 118.87 22.17 120.28 22.74 121.73 23.20 C 122.32 23.09 123.51 22.87 124.11 22.76 L 124.14 23.60 C 124.27 25.75 124.54 27.88 124.67 30.03 C 123.22 29.14 121.76 28.26 120.30 27.40 C 120.81 28.44 121.32 29.48 121.84 30.52 C 120.28 30.08 118.71 29.64 117.17 29.14 C 117.15 29.01 117.10 28.75 117.07 28.61 C 118.73 28.27 120.47 26.41 119.15 24.78 C 119.00 24.53 118.70 24.04 118.56 23.79 C 118.28 23.25 117.73 22.16 117.45 21.61 Z" />
</g>
<g id="#383632ff">
<path fill="#383632" opacity="1.00" d=" M 61.45 21.63 C 62.87 22.15 64.28 22.70 65.73 23.14 C 66.24 23.09 67.25 22.99 67.75 22.94 L 67.86 23.74 C 68.26 26.45 68.64 29.17 68.93 31.90 C 67.67 30.15 66.22 28.55 64.74 26.97 C 65.05 28.17 65.36 29.37 65.68 30.57 C 64.18 30.10 62.66 29.64 61.17 29.13 C 61.15 29.00 61.10 28.74 61.08 28.61 C 62.73 28.27 64.48 26.40 63.15 24.78 C 63.00 24.54 62.70 24.04 62.55 23.80 C 62.28 23.26 61.73 22.17 61.45 21.63 Z" />
<path fill="#383632" opacity="1.00" d=" M 173.45 21.63 C 174.87 22.15 176.28 22.70 177.73 23.14 C 178.24 23.09 179.25 22.99 179.75 22.94 L 179.86 23.74 C 180.26 26.45 180.64 29.17 180.93 31.90 C 179.67 30.15 178.21 28.55 176.74 26.97 C 177.05 28.17 177.36 29.37 177.68 30.57 C 176.17 30.10 174.66 29.64 173.17 29.13 C 173.15 29.00 173.10 28.74 173.08 28.61 C 174.73 28.27 176.48 26.40 175.15 24.78 C 175.00 24.54 174.70 24.04 174.55 23.80 C 174.28 23.26 173.73 22.17 173.45 21.63 Z" />
</g>
<g id="#9db4c9ff">
<path fill="#9db4c9" opacity="1.00" d=" M 11.70 22.88 C 12.33 22.78 13.58 22.57 14.20 22.47 C 14.35 22.86 14.64 23.65 14.79 24.04 L 14.49 24.68 C 13.83 24.42 12.51 23.89 11.85 23.63 L 11.70 22.88 Z" />
<path fill="#9db4c9" opacity="1.00" d=" M 67.75 22.94 C 68.34 22.82 69.51 22.59 70.09 22.48 C 70.23 22.88 70.52 23.68 70.67 24.08 L 70.60 24.79 C 69.91 24.53 68.55 24.00 67.86 23.74 L 67.75 22.94 Z" />
<path fill="#9db4c9" opacity="1.00" d=" M 179.75 22.94 C 180.34 22.82 181.51 22.59 182.09 22.48 C 182.23 22.88 182.52 23.68 182.67 24.08 L 182.60 24.79 C 181.91 24.53 180.55 24.00 179.86 23.74 L 179.75 22.94 Z" />
</g>
<g id="#79a55dff">
<path fill="#79a55d" opacity="1.00" d=" M 2.77 22.99 C 4.04 23.24 5.31 23.50 6.57 23.79 C 6.71 24.04 7.00 24.53 7.14 24.78 C 5.77 25.52 4.50 26.96 5.09 28.62 C 5.11 28.75 5.15 29.01 5.18 29.14 C 5.36 30.36 5.52 31.59 5.68 32.82 L 5.82 33.90 C 4.94 33.24 4.08 32.57 3.21 31.91 C 4.25 38.30 5.71 44.68 5.76 51.19 C 5.77 51.47 5.81 52.05 5.82 52.34 C 5.92 53.56 6.02 54.78 6.11 56.00 L 0.00 56.00 L 0.00 24.09 C 0.69 24.62 1.38 25.14 2.07 25.67 C 2.30 24.78 2.54 23.88 2.77 22.99 Z" />
</g>
<g id="#78a55dff">
<path fill="#78a55d" opacity="1.00" d=" M 58.76 22.99 C 60.02 23.25 61.29 23.50 62.55 23.80 C 62.70 24.04 63.00 24.54 63.15 24.78 C 61.79 25.52 60.49 26.95 61.08 28.61 C 61.10 28.74 61.15 29.00 61.17 29.13 C 61.37 30.37 61.55 31.62 61.74 32.88 L 61.89 33.92 C 61.00 33.26 60.11 32.59 59.22 31.91 C 60.53 38.32 61.07 44.85 62.22 51.28 C 62.34 51.60 62.58 52.23 62.70 52.55 C 62.52 53.26 62.15 54.67 61.97 55.38 L 62.18 56.00 L 47.84 56.00 C 50.57 54.15 53.26 52.24 55.97 50.36 C 55.97 49.20 55.98 48.05 55.98 46.89 L 55.98 46.29 C 55.98 40.71 55.85 35.13 55.86 29.55 C 55.87 29.25 55.90 28.66 55.91 28.37 C 55.95 26.94 55.99 25.52 56.01 24.09 C 56.69 24.61 57.37 25.13 58.06 25.64 C 58.29 24.76 58.52 23.87 58.76 22.99 Z" />
<path fill="#78a55d" opacity="1.00" d=" M 114.76 22.99 C 116.02 23.25 117.29 23.50 118.56 23.79 C 118.70 24.04 119.00 24.53 119.15 24.78 C 117.79 25.52 116.48 26.95 117.07 28.61 C 117.10 28.75 117.15 29.01 117.17 29.14 C 117.37 30.38 117.55 31.62 117.74 32.85 L 117.89 33.91 C 117.00 33.25 116.10 32.59 115.22 31.91 C 116.52 38.32 117.09 44.85 118.21 51.28 C 118.32 51.59 118.56 52.23 118.67 52.55 C 118.50 53.26 118.14 54.67 117.96 55.38 L 118.18 56.00 L 103.80 56.00 C 106.52 54.25 109.22 52.50 111.97 50.79 C 111.97 49.19 111.98 47.58 111.99 45.97 L 111.99 45.00 C 111.98 39.51 111.84 34.03 111.86 28.54 C 111.87 28.25 111.89 27.66 111.91 27.37 C 111.93 26.55 111.97 24.93 112.00 24.12 C 112.68 24.62 113.36 25.13 114.04 25.62 C 114.28 24.75 114.52 23.87 114.76 22.99 Z" />
<path fill="#78a55d" opacity="1.00" d=" M 170.75 23.00 C 172.02 23.25 173.29 23.50 174.55 23.80 C 174.70 24.04 175.00 24.54 175.15 24.78 C 173.79 25.52 172.49 26.95 173.08 28.61 C 173.10 28.74 173.15 29.00 173.17 29.13 C 173.37 30.37 173.55 31.63 173.74 32.88 L 173.89 33.92 C 173.00 33.26 172.10 32.59 171.22 31.91 C 172.53 38.32 173.07 44.85 174.22 51.28 C 174.34 51.60 174.58 52.23 174.70 52.55 C 174.52 53.26 174.15 54.67 173.97 55.38 L 174.18 56.00 L 159.84 56.00 C 162.54 54.20 165.21 52.37 167.92 50.58 C 167.84 48.64 167.76 46.70 167.71 44.76 L 167.71 44.25 C 167.74 38.67 167.78 33.10 167.88 27.53 C 167.89 27.24 167.91 26.66 167.93 26.37 C 167.94 25.84 167.97 24.77 167.99 24.24 C 168.68 24.69 169.37 25.15 170.07 25.60 C 170.29 24.73 170.52 23.86 170.75 23.00 Z" />
</g>
<g id="#298ed7ff">
<path fill="#298ed7" opacity="1.00" d=" M 67.86 23.74 C 68.55 24.00 69.91 24.53 70.60 24.79 C 71.20 35.18 71.89 45.61 70.65 56.00 L 69.16 56.00 C 69.06 55.43 68.84 54.29 68.74 53.72 L 68.59 52.95 C 68.55 52.57 68.46 51.81 68.41 51.42 C 68.19 50.09 67.93 48.77 67.62 47.45 C 69.18 46.95 69.68 44.85 68.75 43.58 C 68.17 42.40 67.62 41.21 67.05 40.03 C 68.35 40.25 69.40 38.98 69.12 37.74 C 69.12 36.06 69.08 34.38 69.02 32.70 L 68.93 31.90 C 68.64 29.17 68.26 26.45 67.86 23.74 Z" />
<path fill="#298ed7" opacity="1.00" d=" M 179.86 23.74 C 180.55 24.00 181.91 24.53 182.60 24.79 C 183.20 35.18 183.89 45.61 182.65 56.00 L 181.16 56.00 C 181.06 55.43 180.84 54.29 180.74 53.72 L 180.59 52.95 C 180.55 52.57 180.46 51.81 180.41 51.42 C 180.19 50.09 179.93 48.77 179.62 47.45 C 181.18 46.95 181.68 44.85 180.75 43.58 C 180.17 42.40 179.62 41.21 179.05 40.03 C 180.34 40.25 181.39 38.98 181.12 37.74 C 181.11 36.06 181.08 34.38 181.02 32.70 L 180.93 31.90 C 180.64 29.17 180.26 26.45 179.86 23.74 Z" />
</g>
<g id="#416845ff">
<path fill="#416845" opacity="1.00" d=" M 7.14 24.78 C 8.45 26.40 6.76 28.28 5.09 28.62 C 4.50 26.96 5.77 25.52 7.14 24.78 Z" />
<path fill="#416845" opacity="1.00" d=" M 63.15 24.78 C 64.48 26.40 62.73 28.27 61.08 28.61 C 60.49 26.95 61.79 25.52 63.15 24.78 Z" />
<path fill="#416845" opacity="1.00" d=" M 119.15 24.78 C 120.47 26.41 118.73 28.27 117.07 28.61 C 116.48 26.95 117.79 25.52 119.15 24.78 Z" />
<path fill="#416845" opacity="1.00" d=" M 175.15 24.78 C 176.48 26.40 174.73 28.27 173.08 28.61 C 172.49 26.95 173.79 25.52 175.15 24.78 Z" />
<path fill="#416845" opacity="1.00" d=" M 62.70 52.55 L 63.48 52.74 C 63.34 53.84 62.84 54.72 61.97 55.38 C 62.15 54.67 62.52 53.26 62.70 52.55 Z" />
<path fill="#416845" opacity="1.00" d=" M 118.67 52.55 L 119.45 52.74 C 119.32 53.83 118.82 54.72 117.96 55.38 C 118.14 54.67 118.50 53.26 118.67 52.55 Z" />
<path fill="#416845" opacity="1.00" d=" M 174.70 52.55 L 175.48 52.74 C 175.34 53.84 174.84 54.72 173.97 55.38 C 174.15 54.67 174.52 53.26 174.70 52.55 Z" />
</g>
<g id="#525548ff">
<path fill="#525548" opacity="1.00" d=" M 8.29 27.45 C 9.86 28.30 11.43 29.17 12.99 30.04 C 13.05 30.99 13.10 31.94 13.14 32.89 C 10.65 32.83 8.17 32.81 5.68 32.82 C 5.52 31.59 5.36 30.36 5.18 29.14 C 6.72 29.63 8.28 30.07 9.84 30.51 C 9.32 29.49 8.81 28.47 8.29 27.45 Z" />
<path fill="#525548" opacity="1.00" d=" M 64.74 26.97 C 66.22 28.55 67.67 30.15 68.93 31.90 L 69.02 32.70 C 66.59 32.74 64.17 32.79 61.74 32.88 C 61.55 31.62 61.37 30.37 61.17 29.13 C 62.66 29.64 64.18 30.10 65.68 30.57 C 65.36 29.37 65.05 28.17 64.74 26.97 Z" />
<path fill="#525548" opacity="1.00" d=" M 120.30 27.40 C 121.76 28.26 123.22 29.14 124.67 30.03 C 124.71 30.95 124.72 31.87 124.70 32.79 C 122.38 32.80 120.06 32.81 117.74 32.85 C 117.55 31.62 117.37 30.38 117.17 29.14 C 118.71 29.64 120.28 30.08 121.84 30.52 C 121.32 29.48 120.81 28.44 120.30 27.40 Z" />
<path fill="#525548" opacity="1.00" d=" M 176.74 26.97 C 178.21 28.55 179.67 30.15 180.93 31.90 L 181.02 32.70 C 178.59 32.74 176.16 32.79 173.74 32.88 C 173.55 31.63 173.37 30.37 173.17 29.13 C 174.66 29.64 176.17 30.10 177.68 30.57 C 177.36 29.37 177.05 28.17 176.74 26.97 Z" />
</g>
<g id="#8aa3b5ff">
<path fill="#8aa3b5" opacity="1.00" d=" M 12.79 27.80 C 13.28 29.34 13.83 30.86 14.36 32.39 L 14.04 33.16 C 13.82 33.66 13.38 34.65 13.16 35.15 C 13.15 34.59 13.14 33.45 13.14 32.89 C 13.10 31.94 13.05 30.99 12.99 30.04 C 12.94 29.48 12.84 28.36 12.79 27.80 Z" />
</g>
<g id="#525b48ff">
<path fill="#525b48" opacity="1.00" d=" M 3.21 31.91 C 4.08 32.57 4.94 33.24 5.82 33.90 C 6.51 39.94 6.70 47.24 12.01 51.34 C 10.29 51.86 11.47 54.06 12.92 53.72 L 13.39 53.78 C 11.84 53.90 10.28 54.02 8.73 54.12 C 8.26 54.59 7.33 55.53 6.86 56.00 L 6.11 56.00 C 6.02 54.78 5.92 53.56 5.82 52.34 C 6.89 52.56 8.91 52.81 9.13 51.33 C 8.40 50.14 6.75 50.73 5.76 51.19 C 5.71 44.68 4.25 38.30 3.21 31.91 Z" />
</g>
<g id="#322f2cff">
<path fill="#322f2c" opacity="1.00" d=" M 5.68 32.82 C 8.17 32.81 10.65 32.83 13.14 32.89 C 13.14 33.45 13.15 34.59 13.16 35.15 C 13.02 35.46 12.75 36.09 12.61 36.40 C 12.40 36.86 11.98 37.79 11.78 38.26 C 10.30 36.05 8.74 39.16 11.05 39.78 L 11.14 40.45 C 11.28 41.62 11.43 42.79 11.55 43.96 C 11.62 45.13 11.82 46.28 12.14 47.41 C 12.28 48.02 12.56 49.24 12.70 49.85 C 12.69 50.37 12.66 51.41 12.64 51.94 L 12.01 51.34 C 6.70 47.24 6.51 39.94 5.82 33.90 L 5.68 32.82 M 7.04 35.00 C 7.02 35.78 6.98 37.34 6.96 38.12 C 8.73 37.13 10.51 36.14 12.28 35.14 C 10.53 35.09 8.79 35.04 7.04 35.00 Z" />
<path fill="#322f2c" opacity="1.00" d=" M 61.74 32.88 C 64.17 32.79 66.59 32.74 69.02 32.70 C 69.08 34.38 69.12 36.06 69.12 37.74 C 68.73 37.74 67.95 37.75 67.56 37.75 C 65.72 36.46 64.24 39.16 66.73 39.41 L 67.05 40.03 C 67.62 41.21 68.17 42.40 68.75 43.58 C 67.15 44.15 67.04 46.11 67.62 47.45 C 67.93 48.77 68.19 50.09 68.41 51.42 L 67.92 50.92 C 67.39 50.75 66.33 50.41 65.80 50.23 C 65.63 49.14 65.03 48.40 64.00 48.01 C 63.25 43.32 62.52 38.63 61.89 33.92 L 61.74 32.88 M 63.04 35.00 C 63.02 35.78 62.98 37.34 62.96 38.12 C 64.73 37.13 66.51 36.14 68.28 35.14 C 66.53 35.09 64.79 35.04 63.04 35.00 Z" />
<path fill="#322f2c" opacity="1.00" d=" M 117.74 32.85 C 120.06 32.81 122.38 32.80 124.70 32.79 C 124.44 34.58 124.08 36.36 123.69 38.13 C 121.93 36.10 120.90 39.41 123.21 39.76 C 123.53 43.66 124.01 47.55 124.35 51.46 L 123.87 50.94 C 123.35 50.76 122.30 50.41 121.78 50.23 C 121.63 49.13 121.03 48.39 120.00 48.00 C 119.25 43.31 118.52 38.62 117.89 33.91 L 117.74 32.85 M 119.04 35.00 C 119.02 35.78 118.98 37.34 118.96 38.12 C 120.73 37.13 122.51 36.14 124.28 35.14 C 122.53 35.09 120.79 35.04 119.04 35.00 Z" />
<path fill="#322f2c" opacity="1.00" d=" M 173.74 32.88 C 176.16 32.79 178.59 32.74 181.02 32.70 C 181.08 34.38 181.11 36.06 181.12 37.74 C 180.73 37.74 179.95 37.75 179.56 37.75 C 177.72 36.46 176.24 39.16 178.73 39.41 L 179.05 40.03 C 179.62 41.21 180.17 42.40 180.75 43.58 C 179.15 44.15 179.04 46.11 179.62 47.45 C 179.93 48.77 180.19 50.09 180.41 51.42 L 179.92 50.92 C 179.39 50.75 178.33 50.41 177.80 50.23 C 177.63 49.14 177.03 48.40 176.00 48.01 C 175.25 43.32 174.52 38.63 173.89 33.92 L 173.74 32.88 M 175.04 35.00 C 175.02 35.78 174.98 37.34 174.96 38.12 C 176.73 37.13 178.51 36.14 180.28 35.14 C 178.53 35.09 176.79 35.04 175.04 35.00 Z" />
</g>
<g id="#4b6148ff">
<path fill="#4b6148" opacity="1.00" d=" M 59.22 31.91 C 60.11 32.59 61.00 33.26 61.89 33.92 C 62.52 38.63 63.25 43.32 64.00 48.01 C 62.50 47.90 61.83 49.57 62.20 50.82 L 62.22 51.28 C 61.07 44.85 60.53 38.32 59.22 31.91 Z" />
<path fill="#4b6148" opacity="1.00" d=" M 115.22 31.91 C 116.10 32.59 117.00 33.25 117.89 33.91 C 118.52 38.62 119.25 43.31 120.00 48.00 C 118.49 47.89 117.83 49.56 118.18 50.81 L 118.21 51.28 C 117.09 44.85 116.52 38.32 115.22 31.91 Z" />
<path fill="#4b6148" opacity="1.00" d=" M 171.22 31.91 C 172.10 32.59 173.00 33.26 173.89 33.92 C 174.52 38.63 175.25 43.32 176.00 48.01 C 174.50 47.90 173.83 49.57 174.20 50.82 L 174.22 51.28 C 173.07 44.85 172.53 38.32 171.22 31.91 Z" />
</g>
<g id="#7b9eb5ff">
<path fill="#7b9eb5" opacity="1.00" d=" M 12.61 36.40 C 13.88 36.33 15.14 36.28 16.41 36.25 C 15.63 36.88 14.84 37.51 14.06 38.14 C 13.09 38.91 12.11 39.68 11.14 40.45 L 11.05 39.78 C 11.23 39.40 11.59 38.64 11.78 38.26 C 11.98 37.79 12.40 36.86 12.61 36.40 Z" />
</g>
<g id="#3490d2ff">
<path fill="#3490d2" opacity="1.00" d=" M 11.14 40.45 C 12.11 39.68 13.09 38.91 14.06 38.14 C 14.16 39.72 14.35 42.88 14.45 44.47 C 13.73 44.34 12.28 44.09 11.55 43.96 C 11.43 42.79 11.28 41.62 11.14 40.45 Z" />
</g>
<g id="#4378cbff">
<path fill="#4378cb" opacity="1.00" d=" M 103.14 38.79 C 103.44 40.84 103.70 42.91 103.97 44.97 C 106.64 44.98 109.32 44.99 111.99 45.00 L 111.99 45.97 C 106.91 46.19 101.70 47.97 96.63 46.66 C 93.24 45.96 89.87 45.15 86.55 44.19 C 91.27 43.23 96.07 43.68 100.82 44.14 C 101.58 42.35 102.36 40.57 103.14 38.79 Z" />
<path fill="#4378cb" opacity="1.00" d=" M 30.54 44.89 C 35.69 42.92 42.01 44.69 46.34 40.77 C 46.15 46.10 51.86 46.13 55.98 46.29 L 55.98 46.89 C 51.76 47.00 47.55 47.33 43.36 47.81 C 39.12 46.72 34.93 45.33 30.54 44.89 Z" />
</g>
<g id="#4379cbff">
<path fill="#4379cb" opacity="1.00" d=" M 198.57 44.20 C 207.01 42.48 215.54 44.83 224.00 45.15 L 224.00 45.82 C 218.93 46.14 213.71 48.01 208.63 46.67 C 205.25 45.96 201.89 45.15 198.57 44.20 Z" />
</g>
<g id="#86a0b0fe">
<path fill="#86a0b0" opacity="1.00" d=" M 11.55 43.96 C 12.28 44.09 13.73 44.34 14.45 44.47 L 15.10 44.80 C 14.25 45.81 13.30 46.75 12.14 47.41 C 11.82 46.28 11.62 45.13 11.55 43.96 Z" />
</g>
<g id="#4575cbff">
<path fill="#4575cb" opacity="1.00" d=" M 163.83 44.24 C 164.85 43.15 166.53 43.78 167.71 44.25 L 167.71 44.76 C 166.64 45.26 163.93 46.04 163.83 44.24 Z" />
</g>
<g id="#288ad6ff">
<path fill="#288ad6" opacity="1.00" d=" M 15.10 44.80 C 15.51 44.98 16.33 45.34 16.75 45.52 C 15.55 46.81 14.36 48.10 13.15 49.38 L 12.70 49.85 C 12.56 49.24 12.28 48.02 12.14 47.41 C 13.30 46.75 14.25 45.81 15.10 44.80 Z" />
</g>
<g id="#417acbff">
<path fill="#417acb" opacity="1.00" d=" M 130.98 47.37 C 131.81 46.72 132.65 46.08 133.51 45.47 C 138.89 49.29 145.10 51.79 150.24 56.00 L 139.83 56.00 C 139.22 55.59 138.01 54.76 137.40 54.35 C 139.46 54.02 143.57 53.36 145.63 53.03 C 140.27 50.06 133.73 50.17 128.59 53.58 C 130.32 51.85 132.06 50.14 133.80 48.42 C 133.09 48.16 131.68 47.63 130.98 47.37 Z" />
</g>
<g id="#75634eff">
<path fill="#75634e" opacity="1.00" d=" M 64.00 48.01 C 65.03 48.40 65.63 49.14 65.80 50.23 L 65.41 50.93 C 64.99 50.82 64.17 50.59 63.75 50.48 C 63.81 49.86 63.94 48.63 64.00 48.01 Z" />
<path fill="#75634e" opacity="1.00" d=" M 120.00 48.00 C 121.03 48.39 121.63 49.13 121.78 50.23 L 121.38 50.92 C 120.97 50.80 120.14 50.58 119.73 50.46 C 119.80 49.85 119.93 48.61 120.00 48.00 Z" />
<path fill="#75634e" opacity="1.00" d=" M 176.00 48.01 C 177.03 48.40 177.63 49.14 177.80 50.23 L 177.41 50.93 C 176.99 50.82 176.17 50.59 175.75 50.48 C 175.81 49.86 175.94 48.63 176.00 48.01 Z" />
<path fill="#75634e" opacity="1.00" d=" M 64.24 52.65 C 64.80 52.48 65.93 52.14 66.49 51.96 L 66.67 52.71 C 66.28 52.99 65.49 53.54 65.10 53.81 L 64.53 53.33 L 64.24 52.65 Z" />
<path fill="#75634e" opacity="1.00" d=" M 120.20 52.65 C 120.76 52.48 121.87 52.14 122.43 51.97 L 122.58 52.74 C 122.20 53.02 121.44 53.56 121.06 53.84 L 120.49 53.34 L 120.20 52.65 Z" />
<path fill="#75634e" opacity="1.00" d=" M 176.24 52.65 C 176.80 52.48 177.93 52.14 178.49 51.96 L 178.67 52.71 C 178.28 52.99 177.49 53.54 177.10 53.81 L 176.53 53.33 L 176.24 52.65 Z" />
</g>
<g id="#332e2aff">
<path fill="#332e2a" opacity="1.00" d=" M 5.76 51.19 C 6.75 50.73 8.40 50.14 9.13 51.33 C 8.91 52.81 6.89 52.56 5.82 52.34 C 5.81 52.05 5.77 51.47 5.76 51.19 Z" />
<path fill="#332e2a" opacity="1.00" d=" M 45.92 54.01 C 48.94 52.02 52.54 51.30 55.97 50.36 C 53.26 52.24 50.57 54.15 47.84 56.00 L 43.95 56.00 C 44.44 55.50 45.43 54.51 45.92 54.01 Z" />
<path fill="#332e2a" opacity="1.00" d=" M 62.22 51.28 L 62.20 50.82 C 62.58 50.73 63.36 50.56 63.75 50.48 C 64.17 50.59 64.99 50.82 65.41 50.93 C 65.68 51.19 66.22 51.71 66.49 51.96 C 65.93 52.14 64.80 52.48 64.24 52.65 L 63.48 52.74 L 62.70 52.55 C 62.58 52.23 62.34 51.60 62.22 51.28 Z" />
<path fill="#332e2a" opacity="1.00" d=" M 102.97 52.13 C 105.99 51.82 108.96 51.24 111.97 50.79 C 109.22 52.50 106.52 54.25 103.80 56.00 L 100.88 56.00 L 100.86 55.52 C 101.90 54.58 102.61 53.45 102.97 52.13 Z" />
<path fill="#332e2a" opacity="1.00" d=" M 118.21 51.28 L 118.18 50.81 C 118.57 50.72 119.35 50.55 119.73 50.46 C 120.14 50.58 120.97 50.80 121.38 50.92 C 121.64 51.18 122.16 51.71 122.43 51.97 C 121.87 52.14 120.76 52.48 120.20 52.65 L 119.45 52.74 L 118.67 52.55 C 118.56 52.23 118.32 51.59 118.21 51.28 Z" />
<path fill="#332e2a" opacity="1.00" d=" M 157.90 53.21 C 161.23 52.31 164.55 51.39 167.92 50.58 C 165.21 52.37 162.54 54.20 159.84 56.00 L 156.64 56.00 C 156.95 55.30 157.58 53.91 157.90 53.21 Z" />
<path fill="#332e2a" opacity="1.00" d=" M 174.22 51.28 L 174.20 50.82 C 174.58 50.73 175.36 50.56 175.75 50.48 C 176.17 50.59 176.99 50.82 177.41 50.93 C 177.68 51.19 178.22 51.71 178.49 51.96 C 177.93 52.14 176.80 52.48 176.24 52.65 L 175.48 52.74 L 174.70 52.55 C 174.58 52.23 174.34 51.60 174.22 51.28 Z" />
<path fill="#332e2a" opacity="1.00" d=" M 214.98 52.20 C 218.02 51.82 220.99 51.14 224.00 50.54 L 224.00 51.08 C 221.22 52.71 218.48 54.38 215.70 56.00 L 212.87 56.00 L 212.85 55.52 C 213.89 54.60 214.60 53.49 214.98 52.20 Z" />
<path fill="#332e2a" opacity="1.00" d=" M 8.73 54.12 C 10.28 54.02 11.84 53.90 13.39 53.78 C 13.06 54.34 12.41 55.45 12.09 56.00 L 6.86 56.00 C 7.33 55.53 8.26 54.59 8.73 54.12 Z" />
<path fill="#332e2a" opacity="1.00" d=" M 64.53 53.33 L 65.10 53.81 C 65.71 55.84 68.46 56.13 68.74 53.72 C 68.84 54.29 69.06 55.43 69.16 56.00 L 63.72 56.00 C 63.92 55.33 64.33 54.00 64.53 53.33 Z" />
<path fill="#332e2a" opacity="1.00" d=" M 120.49 53.34 L 121.06 53.84 C 121.69 55.78 124.48 56.24 124.72 53.78 C 124.92 54.33 125.33 55.44 125.54 56.00 L 119.72 56.00 C 119.92 55.33 120.30 54.00 120.49 53.34 Z" />
<path fill="#332e2a" opacity="1.00" d=" M 176.53 53.33 L 177.10 53.81 C 177.71 55.84 180.45 56.13 180.74 53.72 C 180.84 54.29 181.06 55.43 181.16 56.00 L 175.72 56.00 C 175.92 55.33 176.33 54.00 176.53 53.33 Z" />
</g>
<g id="#adc2d9ff">
<path fill="#adc2d9" opacity="1.00" d=" M 12.01 51.34 L 12.64 51.94 C 12.71 52.38 12.85 53.27 12.92 53.72 C 11.47 54.06 10.29 51.86 12.01 51.34 Z" />
<path fill="#adc2d9" opacity="1.00" d=" M 67.92 50.92 L 68.41 51.42 C 68.46 51.81 68.55 52.57 68.59 52.95 C 68.11 52.89 67.15 52.77 66.67 52.71 L 66.49 51.96 C 66.85 51.70 67.56 51.18 67.92 50.92 Z" />
<path fill="#adc2d9" opacity="1.00" d=" M 179.92 50.92 L 180.41 51.42 C 180.46 51.81 180.55 52.57 180.59 52.95 C 180.11 52.89 179.15 52.77 178.67 52.71 L 178.49 51.96 C 178.85 51.70 179.56 51.18 179.92 50.92 Z" />
</g>
<g id="#3686d0ff">
<path fill="#3686d0" opacity="1.00" d=" M 42.76 51.59 C 43.99 51.41 45.21 51.21 46.44 51.01 C 44.86 51.98 43.35 53.03 41.89 54.16 C 42.10 53.52 42.54 52.23 42.76 51.59 Z" />
</g>
<g id="#809db3ff">
<path fill="#809db3" opacity="1.00" d=" M 46.44 51.01 L 47.60 50.77 C 47.06 51.86 46.50 52.94 45.92 54.01 C 45.43 54.51 44.44 55.50 43.95 56.00 L 41.21 56.00 C 41.38 55.54 41.72 54.62 41.89 54.16 C 43.35 53.03 44.86 51.98 46.44 51.01 Z" />
</g>
<g id="#2e83d0ff">
<path fill="#2e83d0" opacity="1.00" d=" M 97.43 56.00 C 98.83 54.55 100.25 53.12 101.68 51.70 C 100.35 52.55 100.62 54.21 100.86 55.52 L 100.88 56.00 L 97.43 56.00 Z" />
<path fill="#2e83d0" opacity="1.00" d=" M 209.43 56.00 C 210.83 54.55 212.25 53.13 213.68 51.71 C 212.35 52.55 212.62 54.22 212.85 55.52 L 212.87 56.00 L 209.43 56.00 Z" />
</g>
<g id="#67839bff">
<path fill="#67839b" opacity="1.00" d=" M 101.68 51.70 C 102.00 51.81 102.65 52.02 102.97 52.13 C 102.61 53.45 101.90 54.58 100.86 55.52 C 100.62 54.21 100.35 52.55 101.68 51.70 Z" />
<path fill="#67839b" opacity="1.00" d=" M 213.68 51.71 C 214.01 51.83 214.66 52.07 214.98 52.20 C 214.60 53.49 213.89 54.60 212.85 55.52 C 212.62 54.22 212.35 52.55 213.68 51.71 Z" />
</g>
<g id="#74a05cff">
<path fill="#74a05c" opacity="1.00" d=" M 215.70 56.00 C 218.48 54.38 221.22 52.71 224.00 51.08 L 224.00 56.00 L 215.70 56.00 Z" />
</g>
<g id="#3b6bbefe">
<path fill="#3b6bbe" opacity="1.00" d=" M 65.10 53.81 C 65.49 53.54 66.28 52.99 66.67 52.71 C 67.15 52.77 68.11 52.89 68.59 52.95 L 68.74 53.72 C 68.46 56.13 65.71 55.84 65.10 53.81 Z" />
<path fill="#3b6bbe" opacity="1.00" d=" M 121.06 53.84 C 121.44 53.56 122.20 53.02 122.58 52.74 C 123.05 52.81 123.98 52.94 124.45 53.01 L 124.72 53.78 C 124.48 56.24 121.69 55.78 121.06 53.84 Z" />
<path fill="#3b6bbe" opacity="1.00" d=" M 177.10 53.81 C 177.49 53.54 178.28 52.99 178.67 52.71 C 179.15 52.77 180.11 52.89 180.59 52.95 L 180.74 53.72 C 180.45 56.13 177.71 55.84 177.10 53.81 Z" />
</g>
<g id="#2e86d2ff">
<path fill="#2e86d2" opacity="1.00" d=" M 154.24 56.00 C 154.55 54.22 156.25 53.38 157.90 53.21 C 157.58 53.91 156.95 55.30 156.64 56.00 L 154.24 56.00 Z" />
</g>
</svg>
