<?xml version="1.0" encoding="UTF-8" ?>
<!DOCTYPE svg PUBLIC "-//W3C//DTD SVG 1.1//EN" "http://www.w3.org/Graphics/SVG/1.1/DTD/svg11.dtd">
<svg width="224pt" height="56pt" viewBox="0 0 224 56" version="1.1" xmlns="http://www.w3.org/2000/svg">
<g id="#81ab59fe">
<path fill="#81ab59" opacity="1.00" d=" M 0.00 0.00 L 10.12 0.00 C 10.03 0.45 9.84 1.34 9.74 1.79 C 6.36 2.84 3.41 4.86 1.63 7.97 C 1.40 7.96 0.95 7.92 0.72 7.90 C 2.24 6.89 1.30 4.95 0.00 4.29 L 0.00 0.00 Z" />
<path fill="#81ab59" opacity="1.00" d=" M 55.37 0.00 L 66.22 0.00 C 66.10 0.57 65.87 1.70 65.76 2.27 C 63.77 2.81 61.77 3.32 59.77 3.81 C 59.25 5.26 58.73 6.71 58.22 8.16 C 57.80 8.15 56.95 8.12 56.53 8.11 C 57.70 7.11 57.26 5.48 56.70 4.30 L 56.45 3.48 C 56.18 2.61 55.64 0.87 55.37 0.00 Z" />
<path fill="#81ab59" opacity="1.00" d=" M 111.81 0.00 L 122.22 0.00 C 122.10 0.57 121.88 1.70 121.76 2.26 C 119.77 2.80 117.77 3.32 115.77 3.81 C 115.25 5.26 114.73 6.71 114.22 8.16 C 113.78 8.15 112.90 8.12 112.46 8.11 C 113.60 7.08 113.07 5.48 112.47 4.34 L 112.35 3.56 C 112.21 2.67 111.94 0.89 111.81 0.00 Z" />
<path fill="#81ab59" opacity="1.00" d=" M 167.83 0.00 L 178.53 0.00 C 178.38 0.57 178.08 1.72 177.93 2.29 C 175.87 2.80 173.82 3.31 171.76 3.80 C 171.23 5.30 170.72 6.80 170.21 8.30 C 169.79 8.28 168.96 8.24 168.54 8.23 C 169.67 7.16 169.09 5.55 168.47 4.39 L 168.36 3.66 C 168.23 2.74 167.97 0.91 167.83 0.00 Z" />
</g>
<g id="#342f2aff">
<path fill="#342f2a" opacity="1.00" d=" M 10.12 0.00 L 13.36 0.00 C 13.26 0.56 13.06 1.67 12.96 2.23 C 12.33 5.72 11.54 9.22 11.62 12.79 C 12.27 10.50 12.93 8.19 13.30 5.83 C 14.13 10.20 13.13 14.49 12.05 18.69 L 11.95 19.10 C 11.60 19.35 10.90 19.84 10.55 20.09 C 10.25 16.35 9.67 12.65 9.06 8.96 C 8.35 9.09 6.94 9.35 6.24 9.48 C 6.87 13.61 7.53 17.73 8.08 21.87 C 7.56 22.25 6.54 23.01 6.02 23.39 C 5.72 22.79 5.11 21.58 4.81 20.98 C 5.56 19.11 3.58 15.89 2.44 18.98 C 2.28 19.28 1.95 19.87 1.79 20.17 C 1.34 20.26 0.45 20.44 0.00 20.53 L 0.00 7.83 L 0.72 7.90 C 0.95 7.92 1.40 7.96 1.63 7.97 C 4.10 8.11 6.57 8.06 9.04 8.05 C 9.23 5.96 9.41 3.86 9.74 1.79 C 9.84 1.34 10.03 0.45 10.12 0.00 M 3.95 11.49 C 4.75 14.21 5.85 16.83 7.10 19.38 C 6.67 16.52 5.46 13.91 3.95 11.49 Z" />
<path fill="#342f2a" opacity="1.00" d=" M 66.22 0.00 L 68.98 0.00 C 68.98 0.56 69.00 1.68 69.00 2.24 C 68.44 5.74 67.65 9.22 67.59 12.78 C 68.27 10.48 68.95 8.17 69.35 5.81 C 70.28 9.72 69.35 13.57 67.93 17.19 L 67.79 17.60 C 67.42 18.56 67.05 19.51 66.68 20.47 C 66.50 16.59 65.74 12.76 65.05 8.95 C 64.30 9.09 62.80 9.38 62.05 9.53 C 62.84 13.28 63.58 17.04 64.55 20.75 C 63.84 21.07 62.43 21.73 61.72 22.06 C 61.54 21.48 61.18 20.32 61.00 19.74 C 61.27 17.49 58.01 16.54 58.95 19.42 L 58.34 19.08 C 57.46 18.55 56.59 18.01 55.73 17.46 C 55.78 16.43 55.88 14.38 55.93 13.36 C 55.94 12.72 55.96 11.43 55.96 10.79 C 55.94 10.11 55.88 8.75 55.86 8.08 L 56.53 8.11 C 56.95 8.12 57.80 8.15 58.22 8.16 C 60.48 8.17 62.74 8.05 65.00 7.98 C 65.24 6.08 65.46 4.17 65.76 2.27 C 65.87 1.70 66.10 0.57 66.22 0.00 M 59.95 11.49 C 60.75 14.21 61.85 16.83 63.10 19.38 C 62.66 16.52 61.46 13.91 59.95 11.49 Z" />
<path fill="#342f2a" opacity="1.00" d=" M 178.53 0.00 L 180.98 0.00 C 180.99 0.56 181.00 1.68 181.00 2.24 C 180.43 5.74 179.66 9.22 179.59 12.78 C 180.27 10.48 180.95 8.17 181.35 5.81 C 182.28 9.72 181.35 13.57 179.93 17.19 L 179.78 17.61 C 179.40 18.58 179.02 19.56 178.64 20.54 C 178.49 16.63 177.75 12.79 177.06 8.95 C 176.31 9.09 174.80 9.38 174.05 9.53 C 174.85 13.29 175.55 17.07 176.53 20.79 C 175.85 21.08 174.48 21.65 173.80 21.93 C 173.59 21.36 173.18 20.21 172.97 19.64 C 173.13 17.41 169.91 16.60 170.82 19.40 L 170.08 19.26 C 169.61 19.24 168.68 19.20 168.21 19.18 C 168.19 17.24 168.14 13.37 168.12 11.44 C 168.07 10.82 167.99 9.59 167.95 8.98 L 167.86 8.18 L 168.54 8.23 C 168.96 8.24 169.79 8.28 170.21 8.30 C 171.81 8.30 173.44 8.28 175.01 7.90 C 177.73 7.69 177.20 4.20 177.93 2.29 C 178.08 1.72 178.38 0.57 178.53 0.00 M 171.95 11.49 C 172.75 14.21 173.85 16.83 175.10 19.38 C 174.65 16.52 173.47 13.91 171.95 11.49 Z" />
</g>
<g id="#268dd9ff">
<path fill="#268dd9" opacity="1.00" d=" M 13.36 0.00 L 16.08 0.00 L 15.28 0.85 C 13.41 1.90 13.97 4.62 16.23 4.50 C 16.57 8.35 16.90 12.20 17.22 16.06 C 16.63 15.18 16.04 14.31 15.46 13.43 C 15.35 13.57 15.13 13.84 15.01 13.98 C 13.64 15.28 12.39 16.77 12.05 18.69 C 13.13 14.49 14.13 10.20 13.30 5.83 C 13.20 4.63 13.09 3.43 12.96 2.23 C 13.06 1.67 13.26 0.56 13.36 0.00 Z" />
<path fill="#268dd9" opacity="1.00" d=" M 68.98 0.00 L 70.20 0.00 C 70.43 0.36 70.90 1.07 71.14 1.43 C 70.28 2.59 70.28 5.11 72.27 4.87 C 72.00 8.08 71.71 11.30 71.47 14.52 C 70.09 15.10 68.90 16.04 67.93 17.19 C 69.35 13.57 70.28 9.72 69.35 5.81 C 69.25 4.62 69.13 3.43 69.00 2.24 C 69.00 1.68 68.98 0.56 68.98 0.00 Z" />
<path fill="#268dd9" opacity="1.00" d=" M 180.98 0.00 L 182.20 0.00 C 182.44 0.36 182.92 1.07 183.16 1.43 C 182.29 2.60 182.28 5.10 184.29 4.87 C 184.02 8.08 183.66 11.27 183.42 14.48 C 182.05 15.08 180.88 16.04 179.93 17.19 C 181.35 13.57 182.28 9.72 181.35 5.81 C 181.25 4.62 181.13 3.43 181.00 2.24 C 181.00 1.68 180.99 0.56 180.98 0.00 Z" />
</g>
<g id="#3c6bbeff">
<path fill="#3c6bbe" opacity="1.00" d=" M 16.08 0.00 L 25.76 0.00 C 26.66 1.32 27.48 2.69 28.29 4.06 C 24.18 4.48 19.89 4.42 16.06 2.66 C 15.87 2.21 15.48 1.30 15.28 0.85 L 16.08 0.00 Z" />
<path fill="#3c6bbe" opacity="1.00" d=" M 30.47 0.00 L 55.37 0.00 C 55.64 0.87 56.18 2.61 56.45 3.48 C 47.62 5.44 38.73 3.23 30.47 0.00 Z" />
<path fill="#3c6bbe" opacity="1.00" d=" M 154.13 0.00 L 167.83 0.00 C 167.97 0.91 168.23 2.74 168.36 3.66 C 163.36 3.69 157.90 3.83 154.13 0.00 Z" />
</g>
<g id="#407accff">
<path fill="#407acc" opacity="1.00" d=" M 25.76 0.00 L 30.47 0.00 C 38.73 3.23 47.62 5.44 56.45 3.48 L 56.70 4.30 C 56.47 4.74 56.02 5.62 55.80 6.06 C 49.20 7.09 42.49 6.98 36.25 4.33 C 31.68 1.51 27.94 5.79 23.69 6.55 C 21.09 6.45 18.63 5.41 16.23 4.50 C 16.19 4.04 16.10 3.12 16.06 2.66 C 19.89 4.42 24.18 4.48 28.29 4.06 C 27.48 2.69 26.66 1.32 25.76 0.00 Z" />
</g>
<g id="#3c6cbfff">
<path fill="#3c6cbf" opacity="1.00" d=" M 70.20 0.00 L 85.36 0.00 C 81.95 3.43 77.15 3.43 72.67 3.46 C 75.09 4.26 77.46 5.45 80.03 5.68 C 83.73 4.15 86.70 0.91 91.05 0.97 C 95.13 1.79 98.04 5.65 102.34 5.76 C 105.43 6.02 108.53 6.11 111.63 6.07 C 111.67 6.57 111.74 7.57 111.78 8.07 C 111.82 8.44 111.90 9.17 111.94 9.54 C 108.69 9.70 105.39 9.64 102.20 10.31 C 99.65 11.32 97.96 13.65 95.93 15.39 C 101.35 14.38 106.68 12.81 112.19 12.29 C 112.38 14.34 112.57 16.39 112.78 18.43 C 112.64 20.29 114.09 21.64 115.69 22.30 C 114.70 22.60 113.72 22.92 112.75 23.25 C 114.65 24.12 116.56 24.97 118.47 25.81 C 118.55 24.40 118.67 23.00 118.81 21.60 C 120.74 21.21 122.67 20.81 124.60 20.41 C 124.56 21.21 124.49 22.81 124.45 23.61 C 128.05 16.23 129.67 7.73 126.20 0.00 L 138.34 0.00 C 137.75 0.56 136.58 1.67 135.99 2.22 C 133.54 2.19 131.09 2.16 128.64 2.26 C 131.25 3.27 133.80 4.62 136.60 4.99 C 138.44 3.58 139.81 1.69 141.36 0.00 L 151.43 0.00 C 152.83 1.77 153.88 4.11 156.01 5.12 C 159.86 5.81 163.78 6.11 167.69 6.16 C 167.74 6.67 167.82 7.68 167.86 8.18 L 167.95 8.98 C 162.50 9.36 156.33 9.09 152.42 13.65 C 157.66 12.96 162.86 11.97 168.12 11.44 C 168.14 13.37 168.19 17.24 168.21 19.18 C 168.41 19.71 168.82 20.77 169.03 21.30 C 169.81 22.08 170.72 22.69 171.75 23.11 C 170.73 23.51 169.71 23.93 168.70 24.35 C 170.67 25.14 172.64 25.95 174.60 26.76 C 174.72 25.84 174.85 24.93 174.94 24.00 C 174.73 23.76 174.30 23.28 174.09 23.04 C 175.76 23.18 177.35 22.54 178.75 21.68 C 180.30 22.47 181.93 23.07 183.59 23.56 C 183.45 21.31 183.28 19.05 183.28 16.79 C 183.31 16.21 183.38 15.06 183.42 14.48 C 183.66 11.27 184.02 8.08 184.29 4.87 C 184.44 3.57 184.06 2.43 183.16 1.43 C 182.92 1.07 182.44 0.36 182.20 0.00 L 197.36 0.00 C 193.95 3.43 189.15 3.43 184.67 3.46 C 187.09 4.26 189.46 5.45 192.03 5.68 C 195.73 4.15 198.70 0.91 203.04 0.97 C 207.12 1.81 210.05 5.61 214.34 5.70 C 217.56 6.00 220.79 6.12 224.00 6.55 L 224.00 9.31 C 220.51 9.63 216.88 9.54 213.51 10.54 C 211.30 11.74 209.80 13.84 208.00 15.52 C 213.47 14.89 218.49 12.24 224.00 11.89 L 224.00 27.70 C 219.32 27.95 214.44 26.99 211.93 22.69 C 214.68 21.12 217.51 19.66 220.29 18.13 C 216.82 18.83 213.36 19.55 209.89 20.26 C 212.21 25.08 217.28 29.33 215.77 35.13 C 213.51 34.17 211.27 33.18 209.04 32.18 C 208.76 33.10 208.48 34.02 208.21 34.94 C 212.92 36.87 217.85 38.14 222.78 39.38 C 221.14 37.89 219.43 36.44 218.13 34.63 C 217.87 31.27 222.04 29.97 224.00 27.88 L 224.00 45.14 C 215.55 44.85 206.98 42.39 198.56 44.33 C 201.90 45.21 205.28 45.96 208.66 46.66 C 213.73 47.91 218.94 46.21 224.00 45.89 L 224.00 56.00 L 205.36 56.00 C 200.46 53.89 195.88 51.18 191.24 48.58 C 196.15 43.49 198.92 36.02 206.38 33.92 C 204.91 31.33 203.56 28.67 201.92 26.17 C 202.28 28.29 202.70 30.39 203.14 32.50 C 198.40 35.01 192.86 35.05 187.96 32.87 C 185.53 24.95 194.45 27.28 198.70 26.26 C 198.15 24.96 197.60 23.65 197.07 22.34 C 199.02 20.65 200.99 18.97 202.99 17.33 C 198.72 18.01 194.39 17.83 190.16 16.94 C 192.81 18.78 195.31 20.85 197.22 23.47 C 193.28 24.84 189.31 26.10 185.31 27.28 C 185.59 30.06 185.88 32.84 186.17 35.62 C 189.11 35.89 192.05 36.16 195.00 36.42 C 195.03 41.72 191.60 45.48 187.80 48.52 C 191.66 50.65 195.63 52.61 199.48 54.77 C 198.11 55.20 196.74 55.61 195.37 56.00 L 181.27 56.00 C 179.44 53.81 177.54 51.66 175.29 49.90 C 173.59 49.93 170.20 49.97 168.51 50.00 C 168.41 50.39 168.22 51.17 168.13 51.56 C 167.82 53.04 167.51 54.52 167.23 56.00 L 150.17 56.00 C 144.06 51.80 138.03 46.41 130.17 46.39 C 132.73 48.88 135.35 51.32 138.01 53.71 C 138.14 52.40 138.28 51.10 138.42 49.80 C 140.84 51.01 143.24 52.26 145.62 53.54 C 144.00 54.16 140.75 55.39 139.13 56.00 L 124.63 56.00 L 124.16 55.03 C 123.29 53.42 122.81 51.48 121.50 50.16 C 118.67 49.52 115.71 49.92 112.85 49.94 L 112.64 50.57 L 112.32 51.63 C 112.08 52.49 111.60 54.19 111.36 55.04 L 111.03 56.00 L 69.61 56.00 C 67.53 54.16 65.47 52.26 63.06 50.85 C 61.83 50.32 60.60 49.83 59.34 49.39 C 60.61 48.49 61.83 47.53 63.06 46.59 C 61.94 45.75 60.83 44.90 59.71 44.07 C 58.93 45.94 58.12 47.80 57.34 49.67 C 57.07 50.32 56.80 50.98 56.54 51.64 C 55.98 53.10 55.40 54.55 54.80 56.00 L 28.06 56.00 C 27.94 54.24 27.83 52.47 27.70 50.71 C 26.98 52.47 26.26 54.23 25.55 56.00 L 15.57 56.00 C 13.01 53.82 10.50 51.58 7.79 49.58 C 7.75 48.93 7.70 48.28 7.66 47.63 C 9.19 47.46 12.24 47.12 13.77 46.94 C 12.53 45.21 11.27 43.50 10.04 41.76 C 10.62 39.81 11.21 37.88 11.81 35.94 C 7.87 36.32 3.94 36.75 0.00 37.11 L 0.00 22.18 L 0.67 22.42 C 1.62 22.75 2.58 23.08 3.53 23.41 C 2.68 24.31 1.82 25.22 0.97 26.12 C 3.27 26.20 5.58 26.29 7.89 26.36 C 7.56 25.66 6.92 24.26 6.59 23.56 C 8.18 23.20 9.75 22.75 11.31 22.28 L 11.63 22.60 L 12.10 23.06 C 13.11 24.02 14.16 24.94 15.20 25.87 C 15.27 22.75 15.28 19.64 15.15 16.53 C 15.12 15.89 15.05 14.62 15.01 13.98 C 15.13 13.84 15.35 13.57 15.46 13.43 C 16.04 14.31 16.63 15.18 17.22 16.06 C 16.90 12.20 16.57 8.35 16.23 4.50 C 18.63 5.41 21.09 6.45 23.69 6.55 C 27.94 5.79 31.68 1.51 36.25 4.33 C 42.49 6.98 49.20 7.09 55.80 6.06 C 55.81 6.56 55.84 7.57 55.86 8.08 C 55.88 8.75 55.94 10.11 55.96 10.79 C 52.25 10.65 48.53 10.59 44.81 10.47 C 43.68 12.84 42.03 14.90 40.45 16.97 C 45.58 15.64 50.67 14.10 55.93 13.36 C 55.88 14.38 55.78 16.43 55.73 17.46 C 51.11 18.69 46.53 20.04 41.92 21.32 C 44.23 26.12 49.30 30.35 47.77 36.14 C 45.51 35.17 43.27 34.17 41.04 33.17 C 40.76 34.10 40.48 35.02 40.20 35.94 C 44.92 37.86 49.84 39.13 54.76 40.39 C 52.88 38.35 49.57 36.59 50.06 33.36 C 53.38 30.72 57.17 28.77 60.90 26.80 C 56.66 27.28 52.37 28.43 48.09 27.91 C 45.56 27.57 43.58 23.75 46.16 22.19 C 50.18 18.91 55.42 21.78 59.68 23.14 C 58.63 23.70 57.58 24.28 56.55 24.88 C 59.19 25.05 61.83 25.16 64.47 25.16 C 63.86 24.64 62.62 23.60 62.01 23.08 C 63.70 23.07 65.30 22.48 66.75 21.64 C 67.65 22.33 68.56 23.03 69.47 23.72 C 70.14 23.36 70.81 23.00 71.48 22.64 C 71.39 20.69 71.29 18.75 71.30 16.80 C 71.34 16.23 71.43 15.09 71.47 14.52 C 71.71 11.30 72.00 8.08 72.27 4.87 C 72.43 3.57 72.05 2.42 71.14 1.43 C 70.90 1.07 70.43 0.36 70.20 0.00 M 138.71 9.43 C 141.11 10.63 143.58 11.70 146.06 12.74 C 145.39 14.03 144.71 15.32 144.03 16.60 C 147.05 16.51 150.07 16.59 153.09 16.78 C 149.07 15.54 146.25 12.60 144.61 8.80 C 142.65 9.06 140.68 9.23 138.71 9.43 M 21.87 19.20 C 23.54 20.21 25.22 21.21 26.90 22.20 C 26.93 22.88 26.99 24.25 27.02 24.93 C 23.97 26.30 20.94 27.71 17.89 29.09 C 18.21 29.57 18.85 30.54 19.16 31.03 C 22.27 28.64 25.91 26.92 29.92 27.28 C 29.17 25.87 28.37 24.48 27.58 23.09 C 31.66 20.64 36.42 19.80 41.09 20.76 C 38.93 19.55 36.80 18.29 34.70 16.97 C 31.39 20.81 26.35 19.50 21.87 19.20 M 77.77 17.11 C 79.82 18.17 81.87 19.20 83.93 20.23 C 83.98 21.49 84.02 22.75 84.07 24.02 C 80.53 25.08 77.01 26.18 73.46 27.21 C 73.75 30.08 73.98 32.94 74.20 35.82 C 76.69 35.97 79.18 36.11 81.67 36.25 C 82.16 39.31 82.64 42.37 83.16 45.42 C 84.99 40.22 88.16 35.13 94.29 34.47 C 93.41 32.45 92.65 30.39 91.98 28.31 C 91.20 27.73 90.42 27.16 89.64 26.59 C 90.09 28.32 90.59 30.04 90.75 31.82 C 86.87 36.62 80.31 33.69 75.33 32.94 C 74.20 25.47 82.18 26.29 86.60 26.59 C 83.63 22.52 88.03 19.38 91.01 17.10 C 86.66 18.39 82.16 17.90 77.77 17.11 M 154.04 19.05 C 155.29 23.03 157.86 26.22 160.54 29.33 C 160.36 30.82 159.78 32.23 159.32 33.64 C 156.48 32.62 153.51 31.84 150.47 32.36 C 149.91 30.66 149.47 28.93 149.10 27.19 C 148.18 26.67 147.25 26.16 146.33 25.65 C 147.01 27.49 147.69 29.32 148.35 31.16 C 142.29 35.11 134.90 33.98 128.66 31.15 C 129.55 32.66 130.42 34.18 131.24 35.74 C 132.97 35.87 136.43 36.13 138.16 36.26 C 137.64 39.36 137.13 42.46 136.60 45.56 C 137.72 45.60 138.85 45.65 139.98 45.70 C 140.98 40.90 142.30 34.89 148.19 34.21 C 154.57 34.64 160.71 36.93 166.98 38.20 C 164.89 36.38 160.91 34.77 162.17 31.32 C 164.29 27.52 168.78 28.63 172.12 29.73 C 172.06 29.08 171.93 27.77 171.86 27.11 C 167.95 26.70 163.94 26.75 160.10 25.83 C 158.05 25.34 156.44 23.46 157.07 21.28 C 159.19 19.56 161.77 18.60 164.21 17.42 C 160.81 17.96 157.43 18.51 154.04 19.05 M 98.04 20.06 C 99.29 24.04 101.86 27.23 104.56 30.34 C 104.33 31.98 103.67 33.51 103.15 35.07 C 101.14 34.09 99.13 33.09 97.13 32.07 C 96.81 32.99 96.49 33.91 96.18 34.83 C 100.85 37.09 105.92 38.17 110.98 39.16 C 108.81 37.37 105.06 35.81 106.11 32.32 C 108.54 30.34 111.34 28.88 114.01 27.26 C 109.20 27.49 104.24 27.53 99.99 24.93 C 101.51 21.46 104.87 19.74 108.19 18.40 C 104.81 18.94 101.43 19.51 98.04 20.06 M 122.14 22.11 C 120.82 22.80 120.81 23.47 122.11 24.14 C 123.43 23.46 123.44 22.78 122.14 22.11 M 66.14 23.11 C 64.82 23.80 64.81 24.47 66.11 25.14 C 67.43 24.46 67.44 23.78 66.14 23.11 M 178.14 23.11 C 176.82 23.80 176.81 24.47 178.11 25.14 C 179.43 24.46 179.44 23.78 178.14 23.11 M 10.14 24.11 C 8.82 24.80 8.81 25.47 10.11 26.14 C 11.43 25.46 11.44 24.78 10.14 24.11 M 32.34 27.61 C 33.02 29.47 33.69 31.32 34.37 33.18 C 30.38 35.99 25.70 35.39 21.36 33.82 C 18.74 32.50 16.55 34.80 14.45 36.06 C 18.95 37.20 23.47 38.30 27.92 39.63 C 26.85 41.72 25.83 43.82 24.87 45.96 C 28.83 45.74 30.31 42.17 31.23 38.88 C 31.85 35.66 36.33 36.75 38.37 35.80 C 36.72 33.88 35.51 31.64 34.83 29.20 C 34.01 28.66 33.17 28.14 32.34 27.61 M 60.09 39.01 C 62.21 41.34 64.55 43.45 67.03 45.39 C 65.93 43.16 64.75 40.97 63.64 38.73 C 64.57 38.58 65.50 38.43 66.43 38.28 C 66.58 37.59 66.86 36.21 67.01 35.51 C 64.68 36.63 62.35 37.74 60.09 39.01 M 171.39 40.75 C 174.27 42.31 177.09 44.17 180.39 44.68 C 179.16 43.94 177.93 43.21 176.69 42.49 C 177.76 40.06 178.93 37.68 180.04 35.27 C 176.26 35.50 173.10 37.52 171.39 40.75 M 13.20 38.31 C 11.73 38.29 11.73 40.71 13.20 40.69 C 14.67 40.75 14.67 38.25 13.20 38.31 M 103.26 38.66 C 102.45 40.58 101.65 42.51 100.81 44.43 C 96.07 43.93 91.20 42.61 86.55 44.47 C 90.96 45.32 95.52 45.72 99.60 47.75 C 103.76 46.57 108.04 45.90 112.32 45.33 C 109.33 44.92 106.32 44.56 103.34 44.13 C 103.37 42.30 103.33 40.48 103.26 38.66 M 155.01 44.16 C 152.71 44.91 150.62 43.40 148.60 42.55 C 148.41 43.27 148.22 43.99 148.03 44.71 C 152.35 46.51 157.06 47.80 161.38 45.18 C 161.05 43.19 160.80 41.19 160.62 39.18 C 158.92 40.98 157.50 43.41 155.01 44.16 M 34.87 42.81 C 33.56 43.78 32.24 44.74 30.90 45.68 C 35.54 44.94 40.51 45.61 43.82 49.25 C 44.61 48.30 45.40 47.36 46.20 46.42 C 49.61 46.67 53.01 46.72 56.43 46.78 C 52.92 45.99 49.42 45.13 45.94 44.24 C 46.29 42.86 46.66 41.49 47.04 40.12 C 44.13 43.74 38.96 45.63 34.87 42.81 M 113.52 43.53 C 113.40 45.02 113.26 46.51 113.12 48.00 C 114.56 47.95 116.00 47.89 117.44 47.83 C 116.17 46.36 114.86 44.93 113.52 43.53 M 163.97 44.22 C 163.65 46.01 167.35 46.01 167.03 44.22 C 166.42 43.17 164.57 43.17 163.97 44.22 Z" />
</g>
<g id="#4179cbff">
<path fill="#4179cb" opacity="1.00" d=" M 85.36 0.00 L 93.88 0.00 C 99.35 3.69 106.00 3.48 112.35 3.56 L 112.47 4.34 C 112.26 4.77 111.84 5.63 111.63 6.07 C 108.53 6.11 105.43 6.02 102.34 5.76 C 98.04 5.65 95.13 1.79 91.05 0.97 C 86.70 0.91 83.73 4.15 80.03 5.68 C 77.46 5.45 75.09 4.26 72.67 3.46 C 77.15 3.43 81.95 3.43 85.36 0.00 Z" />
<path fill="#4179cb" opacity="1.00" d=" M 197.36 0.00 L 205.88 0.00 C 211.25 3.60 217.77 3.49 224.00 3.66 L 224.00 6.55 C 220.79 6.12 217.56 6.00 214.34 5.70 C 210.05 5.61 207.12 1.81 203.04 0.97 C 198.70 0.91 195.73 4.15 192.03 5.68 C 189.46 5.45 187.09 4.26 184.67 3.46 C 189.15 3.43 193.95 3.43 197.36 0.00 Z" />
</g>
<g id="#3c6abefe">
<path fill="#3c6abe" opacity="1.00" d=" M 93.88 0.00 L 111.81 0.00 C 111.94 0.89 112.21 2.67 112.35 3.56 C 106.00 3.48 99.35 3.69 93.88 0.00 Z" />
<path fill="#3c6abe" opacity="1.00" d=" M 205.88 0.00 L 224.00 0.00 L 224.00 3.66 C 217.77 3.49 211.25 3.60 205.88 0.00 Z" />
</g>
<g id="#332e2aff">
<path fill="#332e2a" opacity="1.00" d=" M 122.22 0.00 L 124.94 0.00 C 124.91 0.56 124.85 1.68 124.81 2.25 C 124.34 5.74 123.69 9.22 123.59 12.76 C 124.28 10.45 124.99 8.15 125.44 5.78 C 125.67 7.04 126.12 9.57 126.35 10.84 C 125.75 12.40 125.04 13.91 124.30 15.41 C 124.06 15.75 123.57 16.43 123.33 16.77 C 122.38 14.22 121.47 11.66 120.59 9.09 C 119.98 9.20 118.78 9.40 118.18 9.50 C 118.79 12.94 119.44 16.38 120.04 19.82 C 119.49 20.25 118.39 21.11 117.84 21.54 C 117.60 20.94 117.11 19.73 116.87 19.12 C 117.26 17.52 115.37 16.61 114.31 17.83 L 113.96 17.98 C 113.66 18.09 113.07 18.32 112.78 18.43 C 112.57 16.39 112.38 14.34 112.19 12.29 C 112.13 11.60 112.00 10.23 111.94 9.54 C 111.90 9.17 111.82 8.44 111.78 8.07 L 112.46 8.11 C 112.90 8.12 113.78 8.15 114.22 8.16 C 116.48 8.17 118.74 8.05 120.99 7.97 C 121.24 6.07 121.46 4.16 121.76 2.26 C 121.88 1.70 122.10 0.57 122.22 0.00 M 115.95 11.49 C 116.75 14.21 117.85 16.83 119.10 19.38 C 118.66 16.52 117.47 13.91 115.95 11.49 Z" />
</g>
<g id="#268dd8ff">
<path fill="#268dd8" opacity="1.00" d=" M 124.94 0.00 L 126.20 0.00 C 129.67 7.73 128.05 16.23 124.45 23.61 C 124.49 22.81 124.56 21.21 124.60 20.41 C 124.77 18.14 125.19 15.90 125.57 13.66 C 125.25 14.10 124.62 14.97 124.30 15.41 C 125.04 13.91 125.75 12.40 126.35 10.84 C 126.12 9.57 125.67 7.04 125.44 5.78 C 125.22 4.60 125.02 3.42 124.81 2.25 C 124.85 1.68 124.91 0.56 124.94 0.00 Z" />
</g>
<g id="#4476cbff">
<path fill="#4476cb" opacity="1.00" d=" M 138.34 0.00 L 141.36 0.00 C 139.81 1.69 138.44 3.58 136.60 4.99 C 133.80 4.62 131.25 3.27 128.64 2.26 C 131.09 2.16 133.54 2.19 135.99 2.22 C 136.58 1.67 137.75 0.56 138.34 0.00 Z" />
</g>
<g id="#4079ccff">
<path fill="#4079cc" opacity="1.00" d=" M 151.43 0.00 L 154.13 0.00 C 157.90 3.83 163.36 3.69 168.36 3.66 L 168.47 4.39 C 168.28 4.83 167.89 5.72 167.69 6.16 C 163.78 6.11 159.86 5.81 156.01 5.12 C 153.88 4.11 152.83 1.77 151.43 0.00 Z" />
</g>
<g id="#86a0b1ff">
<path fill="#86a0b1" opacity="1.00" d=" M 16.23 4.50 C 13.97 4.62 13.41 1.90 15.28 0.85 C 15.48 1.30 15.87 2.21 16.06 2.66 C 16.10 3.12 16.19 4.04 16.23 4.50 Z" />
</g>
<g id="#709e5cff">
<path fill="#709e5c" opacity="1.00" d=" M 1.63 7.97 C 3.41 4.86 6.36 2.84 9.74 1.79 C 9.41 3.86 9.23 5.96 9.04 8.05 C 6.57 8.06 4.10 8.11 1.63 7.97 Z" />
<path fill="#709e5c" opacity="1.00" d=" M 59.77 3.81 C 61.77 3.32 63.77 2.81 65.76 2.27 C 65.46 4.17 65.24 6.08 65.00 7.98 C 62.74 8.05 60.48 8.17 58.22 8.16 C 58.73 6.71 59.25 5.26 59.77 3.81 Z" />
<path fill="#709e5c" opacity="1.00" d=" M 115.77 3.81 C 117.77 3.32 119.77 2.80 121.76 2.26 C 121.46 4.16 121.24 6.07 120.99 7.97 C 118.74 8.05 116.48 8.17 114.22 8.16 C 114.73 6.71 115.25 5.26 115.77 3.81 Z" />
<path fill="#709e5c" opacity="1.00" d=" M 171.76 3.80 C 173.82 3.31 175.87 2.80 177.93 2.29 C 177.20 4.20 177.73 7.69 175.01 7.90 C 173.44 8.28 171.81 8.30 170.21 8.30 C 170.72 6.80 171.23 5.30 171.76 3.80 Z" />
</g>
<g id="#7392b4ff">
<path fill="#7392b4" opacity="1.00" d=" M 72.27 4.87 C 70.28 5.11 70.28 2.59 71.14 1.43 C 72.05 2.42 72.43 3.57 72.27 4.87 Z" />
<path fill="#7392b4" opacity="1.00" d=" M 184.29 4.87 C 182.28 5.10 182.29 2.60 183.16 1.43 C 184.06 2.43 184.44 3.57 184.29 4.87 Z" />
</g>
<g id="#645a4bff">
<path fill="#645a4b" opacity="1.00" d=" M 11.62 12.79 C 11.54 9.22 12.33 5.72 12.96 2.23 C 13.09 3.43 13.20 4.63 13.30 5.83 C 12.93 8.19 12.27 10.50 11.62 12.79 Z" />
<path fill="#645a4b" opacity="1.00" d=" M 67.59 12.78 C 67.65 9.22 68.44 5.74 69.00 2.24 C 69.13 3.43 69.25 4.62 69.35 5.81 C 68.95 8.17 68.27 10.48 67.59 12.78 Z" />
<path fill="#645a4b" opacity="1.00" d=" M 123.59 12.76 C 123.69 9.22 124.34 5.74 124.81 2.25 C 125.02 3.42 125.22 4.60 125.44 5.78 C 124.99 8.15 124.28 10.45 123.59 12.76 Z" />
<path fill="#645a4b" opacity="1.00" d=" M 179.59 12.78 C 179.66 9.22 180.43 5.74 181.00 2.24 C 181.13 3.43 181.25 4.62 181.35 5.81 C 180.95 8.17 180.27 10.48 179.59 12.78 Z" />
</g>
<g id="#5c8260ff">
<path fill="#5c8260" opacity="1.00" d=" M 0.00 4.29 C 1.30 4.95 2.24 6.89 0.72 7.90 L 0.00 7.83 L 0.00 4.29 Z" />
<path fill="#5c8260" opacity="1.00" d=" M 56.70 4.30 C 57.26 5.48 57.70 7.11 56.53 8.11 L 55.86 8.08 C 55.84 7.57 55.81 6.56 55.80 6.06 C 56.02 5.62 56.47 4.74 56.70 4.30 Z" />
<path fill="#5c8260" opacity="1.00" d=" M 112.47 4.34 C 113.07 5.48 113.60 7.08 112.46 8.11 L 111.78 8.07 C 111.74 7.57 111.67 6.57 111.63 6.07 C 111.84 5.63 112.26 4.77 112.47 4.34 Z" />
<path fill="#5c8260" opacity="1.00" d=" M 168.47 4.39 C 169.09 5.55 169.67 7.16 168.54 8.23 L 167.86 8.18 C 167.82 7.68 167.74 6.67 167.69 6.16 C 167.89 5.72 168.28 4.83 168.47 4.39 Z" />
</g>
<g id="#4377caff">
<path fill="#4377ca" opacity="1.00" d=" M 138.71 9.43 C 140.68 9.23 142.65 9.06 144.61 8.80 C 146.25 12.60 149.07 15.54 153.09 16.78 C 150.07 16.59 147.05 16.51 144.03 16.60 C 144.71 15.32 145.39 14.03 146.06 12.74 C 143.58 11.70 141.11 10.63 138.71 9.43 Z" />
</g>
<g id="#3f7bccff">
<path fill="#3f7bcc" opacity="1.00" d=" M 152.42 13.65 C 156.33 9.09 162.50 9.36 167.95 8.98 C 167.99 9.59 168.07 10.82 168.12 11.44 C 162.86 11.97 157.66 12.96 152.42 13.65 Z" />
</g>
<g id="#6c604cff">
<path fill="#6c604c" opacity="1.00" d=" M 6.24 9.48 C 6.94 9.35 8.35 9.09 9.06 8.96 C 9.67 12.65 10.25 16.35 10.55 20.09 L 9.75 20.66 C 9.33 20.96 8.50 21.57 8.08 21.87 C 7.53 17.73 6.87 13.61 6.24 9.48 Z" />
<path fill="#6c604c" opacity="1.00" d=" M 62.05 9.53 C 62.80 9.38 64.30 9.09 65.05 8.95 C 65.74 12.76 66.50 16.59 66.68 20.47 L 66.37 21.34 C 65.92 21.19 65.01 20.90 64.55 20.75 C 63.58 17.04 62.84 13.28 62.05 9.53 Z" />
<path fill="#6c604c" opacity="1.00" d=" M 174.05 9.53 C 174.80 9.38 176.31 9.09 177.06 8.95 C 177.75 12.79 178.49 16.63 178.64 20.54 L 178.32 21.46 C 177.87 21.29 176.98 20.96 176.53 20.79 C 175.55 17.07 174.85 13.29 174.05 9.53 Z" />
</g>
<g id="#427bcbff">
<path fill="#427bcb" opacity="1.00" d=" M 102.20 10.31 C 105.39 9.64 108.69 9.70 111.94 9.54 C 112.00 10.23 112.13 11.60 112.19 12.29 C 106.68 12.81 101.35 14.38 95.93 15.39 C 97.96 13.65 99.65 11.32 102.20 10.31 Z" />
<path fill="#427bcb" opacity="1.00" d=" M 213.51 10.54 C 216.88 9.54 220.51 9.63 224.00 9.31 L 224.00 11.89 C 218.49 12.24 213.47 14.89 208.00 15.52 C 209.80 13.84 211.30 11.74 213.51 10.54 Z" />
</g>
<g id="#6c5f4bff">
<path fill="#6c5f4b" opacity="1.00" d=" M 118.18 9.50 C 118.78 9.40 119.98 9.20 120.59 9.09 C 121.47 11.66 122.38 14.22 123.33 16.77 C 122.32 17.88 121.21 18.89 120.04 19.82 C 119.44 16.38 118.79 12.94 118.18 9.50 Z" />
</g>
<g id="#437cccff">
<path fill="#437ccc" opacity="1.00" d=" M 44.81 10.47 C 48.53 10.59 52.25 10.65 55.96 10.79 C 55.96 11.43 55.94 12.72 55.93 13.36 C 50.67 14.10 45.58 15.64 40.45 16.97 C 42.03 14.90 43.68 12.84 44.81 10.47 Z" />
</g>
<g id="#565249ff">
<path fill="#565249" opacity="1.00" d=" M 3.95 11.49 C 5.46 13.91 6.67 16.52 7.10 19.38 C 5.85 16.83 4.75 14.21 3.95 11.49 Z" />
<path fill="#565249" opacity="1.00" d=" M 59.95 11.49 C 61.46 13.91 62.66 16.52 63.10 19.38 C 61.85 16.83 60.75 14.21 59.95 11.49 Z" />
<path fill="#565249" opacity="1.00" d=" M 115.95 11.49 C 117.47 13.91 118.66 16.52 119.10 19.38 C 117.85 16.83 116.75 14.21 115.95 11.49 Z" />
<path fill="#565249" opacity="1.00" d=" M 171.95 11.49 C 173.47 13.91 174.65 16.52 175.10 19.38 C 173.85 16.83 172.75 14.21 171.95 11.49 Z" />
<path fill="#565249" opacity="1.00" d=" M 2.44 18.98 C 3.58 15.89 5.56 19.11 4.81 20.98 C 4.42 20.93 3.65 20.84 3.26 20.79 C 3.05 20.34 2.65 19.43 2.44 18.98 Z" />
<path fill="#565249" opacity="1.00" d=" M 58.95 19.42 C 58.01 16.54 61.27 17.49 61.00 19.74 C 60.64 19.81 59.93 19.93 59.57 19.99 L 58.95 19.42 Z" />
<path fill="#565249" opacity="1.00" d=" M 170.82 19.40 C 169.91 16.60 173.13 17.41 172.97 19.64 C 172.61 19.70 171.90 19.84 171.54 19.91 L 170.82 19.40 Z" />
</g>
<g id="#709fc2fe">
<path fill="#709fc2" opacity="1.00" d=" M 12.05 18.69 C 12.39 16.77 13.64 15.28 15.01 13.98 C 15.05 14.62 15.12 15.89 15.15 16.53 C 14.45 17.78 13.12 18.39 11.95 19.10 L 12.05 18.69 Z" />
</g>
<g id="#7ca2beff">
<path fill="#7ca2be" opacity="1.00" d=" M 67.93 17.19 C 68.90 16.04 70.09 15.10 71.47 14.52 C 71.43 15.09 71.34 16.23 71.30 16.80 C 70.24 17.48 69.06 17.75 67.79 17.60 L 67.93 17.19 Z" />
<path fill="#7ca2be" opacity="1.00" d=" M 179.93 17.19 C 180.88 16.04 182.05 15.08 183.42 14.48 C 183.38 15.06 183.31 16.21 183.28 16.79 C 182.22 17.48 181.05 17.75 179.78 17.61 L 179.93 17.19 Z" />
</g>
<g id="#7fa1b9ff">
<path fill="#7fa1b9" opacity="1.00" d=" M 124.30 15.41 C 124.62 14.97 125.25 14.10 125.57 13.66 C 125.19 15.90 124.77 18.14 124.60 20.41 C 122.67 20.81 120.74 21.21 118.81 21.60 L 117.41 21.89 L 117.84 21.54 C 118.39 21.11 119.49 20.25 120.04 19.82 C 121.21 18.89 122.32 17.88 123.33 16.77 C 123.57 16.43 124.06 15.75 124.30 15.41 Z" />
</g>
<g id="#4378c9ff">
<path fill="#4378c9" opacity="1.00" d=" M 21.87 19.20 C 26.35 19.50 31.39 20.81 34.70 16.97 C 36.80 18.29 38.93 19.55 41.09 20.76 C 36.42 19.80 31.66 20.64 27.58 23.09 C 28.37 24.48 29.17 25.87 29.92 27.28 C 25.91 26.92 22.27 28.64 19.16 31.03 C 18.85 30.54 18.21 29.57 17.89 29.09 C 20.94 27.71 23.97 26.30 27.02 24.93 C 26.99 24.25 26.93 22.88 26.90 22.20 C 25.22 21.21 23.54 20.21 21.87 19.20 Z" />
</g>
<g id="#2a8ad7ff">
<path fill="#2a8ad7" opacity="1.00" d=" M 11.95 19.10 C 13.12 18.39 14.45 17.78 15.15 16.53 C 15.28 19.64 15.27 22.75 15.20 25.87 C 14.16 24.94 13.11 24.02 12.10 23.06 C 13.36 22.97 13.96 22.35 13.89 21.20 C 13.06 19.69 11.43 21.45 11.63 22.60 L 11.31 22.28 C 10.92 21.87 10.14 21.06 9.75 20.66 L 10.55 20.09 C 10.90 19.84 11.60 19.35 11.95 19.10 Z" />
</g>
<g id="#417acbff">
<path fill="#417acb" opacity="1.00" d=" M 41.92 21.32 C 46.53 20.04 51.11 18.69 55.73 17.46 C 56.59 18.01 57.46 18.55 58.34 19.08 C 56.36 20.37 57.74 22.81 59.68 23.14 C 55.42 21.78 50.18 18.91 46.16 22.19 C 43.58 23.75 45.56 27.57 48.09 27.91 C 52.37 28.43 56.66 27.28 60.90 26.80 C 57.17 28.77 53.38 30.72 50.06 33.36 C 49.57 36.59 52.88 38.35 54.76 40.39 C 49.84 39.13 44.92 37.86 40.20 35.94 C 40.48 35.02 40.76 34.10 41.04 33.17 C 43.27 34.17 45.51 35.17 47.77 36.14 C 49.30 30.35 44.23 26.12 41.92 21.32 Z" />
</g>
<g id="#3893d8ff">
<path fill="#3893d8" opacity="1.00" d=" M 67.79 17.60 C 69.06 17.75 70.24 17.48 71.30 16.80 C 71.29 18.75 71.39 20.69 71.48 22.64 C 70.81 23.00 70.14 23.36 69.47 23.72 C 68.56 23.03 67.65 22.33 66.75 21.64 L 66.37 21.34 L 66.68 20.47 C 67.05 19.51 67.42 18.56 67.79 17.60 Z" />
<path fill="#3893d8" opacity="1.00" d=" M 179.78 17.61 C 181.05 17.75 182.22 17.48 183.28 16.79 C 183.28 19.05 183.45 21.31 183.59 23.56 C 181.93 23.07 180.30 22.47 178.75 21.68 L 178.32 21.46 L 178.64 20.54 C 179.02 19.56 179.40 18.58 179.78 17.61 Z" />
</g>
<g id="#4478caff">
<path fill="#4478ca" opacity="1.00" d=" M 77.77 17.11 C 82.16 17.90 86.66 18.39 91.01 17.10 C 88.03 19.38 83.63 22.52 86.60 26.59 C 82.18 26.29 74.20 25.47 75.33 32.94 C 80.31 33.69 86.87 36.62 90.75 31.82 C 90.59 30.04 90.09 28.32 89.64 26.59 C 90.42 27.16 91.20 27.73 91.98 28.31 C 92.65 30.39 93.41 32.45 94.29 34.47 C 88.16 35.13 84.99 40.22 83.16 45.42 C 82.64 42.37 82.16 39.31 81.67 36.25 C 79.18 36.11 76.69 35.97 74.20 35.82 C 73.98 32.94 73.75 30.08 73.46 27.21 C 77.01 26.18 80.53 25.08 84.07 24.02 C 84.02 22.75 83.98 21.49 83.93 20.23 C 81.87 19.20 79.82 18.17 77.77 17.11 Z" />
</g>
<g id="#4a463eff">
<path fill="#4a463e" opacity="1.00" d=" M 114.31 17.83 C 115.37 16.61 117.26 17.52 116.87 19.12 C 116.23 18.80 114.95 18.15 114.31 17.83 Z" />
</g>
<g id="#4479cbff">
<path fill="#4479cb" opacity="1.00" d=" M 154.04 19.05 C 157.43 18.51 160.81 17.96 164.21 17.42 C 161.77 18.60 159.19 19.56 157.07 21.28 C 156.44 23.46 158.05 25.34 160.10 25.83 C 163.94 26.75 167.95 26.70 171.86 27.11 C 171.93 27.77 172.06 29.08 172.12 29.73 C 168.78 28.63 164.29 27.52 162.17 31.32 C 160.91 34.77 164.89 36.38 166.98 38.20 C 160.71 36.93 154.57 34.64 148.19 34.21 C 142.30 34.89 140.98 40.90 139.98 45.70 C 138.85 45.65 137.72 45.60 136.60 45.56 C 137.13 42.46 137.64 39.36 138.16 36.26 C 136.43 36.13 132.97 35.87 131.24 35.74 C 130.42 34.18 129.55 32.66 128.66 31.15 C 134.90 33.98 142.29 35.11 148.35 31.16 C 147.69 29.32 147.01 27.49 146.33 25.65 C 147.25 26.16 148.18 26.67 149.10 27.19 C 149.47 28.93 149.91 30.66 150.47 32.36 C 153.51 31.84 156.48 32.62 159.32 33.64 C 159.78 32.23 160.36 30.82 160.54 29.33 C 157.86 26.22 155.29 23.03 154.04 19.05 Z" />
</g>
<g id="#4378caff">
<path fill="#4378ca" opacity="1.00" d=" M 190.16 16.94 C 194.39 17.83 198.72 18.01 202.99 17.33 C 200.99 18.97 199.02 20.65 197.07 22.34 C 197.60 23.65 198.15 24.96 198.70 26.26 C 194.45 27.28 185.53 24.95 187.96 32.87 C 192.86 35.05 198.40 35.01 203.14 32.50 C 202.70 30.39 202.28 28.29 201.92 26.17 C 203.56 28.67 204.91 31.33 206.38 33.92 C 198.92 36.02 196.15 43.49 191.24 48.58 C 195.88 51.18 200.46 53.89 205.36 56.00 L 195.37 56.00 C 196.74 55.61 198.11 55.20 199.48 54.77 C 195.63 52.61 191.66 50.65 187.80 48.52 C 191.60 45.48 195.03 41.72 195.00 36.42 C 192.05 36.16 189.11 35.89 186.17 35.62 C 185.88 32.84 185.59 30.06 185.31 27.28 C 189.31 26.10 193.28 24.84 197.22 23.47 C 195.31 20.85 192.81 18.78 190.16 16.94 Z" />
</g>
<g id="#4379caff">
<path fill="#4379ca" opacity="1.00" d=" M 98.04 20.06 C 101.43 19.51 104.81 18.94 108.19 18.40 C 104.87 19.74 101.51 21.46 99.99 24.93 C 104.24 27.53 109.20 27.49 114.01 27.26 C 111.34 28.88 108.54 30.34 106.11 32.32 C 105.06 35.81 108.81 37.37 110.98 39.16 C 105.92 38.17 100.85 37.09 96.18 34.83 C 96.49 33.91 96.81 32.99 97.13 32.07 C 99.13 33.09 101.14 34.09 103.15 35.07 C 103.67 33.51 104.33 31.98 104.56 30.34 C 101.86 27.23 99.29 24.04 98.04 20.06 Z" />
<path fill="#4379ca" opacity="1.00" d=" M 209.89 20.26 C 213.36 19.55 216.82 18.83 220.29 18.13 C 217.51 19.66 214.68 21.12 211.93 22.69 C 214.44 26.99 219.32 27.95 224.00 27.70 L 224.00 27.88 C 222.04 29.97 217.87 31.27 218.13 34.63 C 219.43 36.44 221.14 37.89 222.78 39.38 C 217.85 38.14 212.92 36.87 208.21 34.94 C 208.48 34.02 208.76 33.10 209.04 32.18 C 211.27 33.18 213.51 34.17 215.77 35.13 C 217.28 29.33 212.21 25.08 209.89 20.26 Z" />
</g>
<g id="#9cb3c7fe">
<path fill="#9cb3c7" opacity="1.00" d=" M 112.78 18.43 C 113.07 18.32 113.66 18.09 113.96 17.98 C 114.90 19.25 115.52 20.72 116.13 22.17 L 115.69 22.30 C 114.09 21.64 112.64 20.29 112.78 18.43 Z" />
<path fill="#9cb3c7" opacity="1.00" d=" M 58.34 19.08 L 58.95 19.42 L 59.57 19.99 C 59.59 21.00 59.78 21.98 60.14 22.93 L 59.68 23.14 C 57.74 22.81 56.36 20.37 58.34 19.08 Z" />
<path fill="#9cb3c7" opacity="1.00" d=" M 170.08 19.26 L 170.82 19.40 L 171.54 19.91 C 171.70 20.93 171.94 21.94 172.28 22.92 L 171.75 23.11 C 170.72 22.69 169.81 22.08 169.03 21.30 C 169.29 20.79 169.82 19.77 170.08 19.26 Z" />
</g>
<g id="#5688bafe">
<path fill="#5688ba" opacity="1.00" d=" M 113.96 17.98 L 114.31 17.83 C 114.95 18.15 116.23 18.80 116.87 19.12 C 117.11 19.73 117.60 20.94 117.84 21.54 L 117.41 21.89 C 117.09 21.96 116.45 22.10 116.13 22.17 C 115.52 20.72 114.90 19.25 113.96 17.98 Z" />
</g>
<g id="#9eb5caff">
<path fill="#9eb5ca" opacity="1.00" d=" M 1.79 20.17 C 1.95 19.87 2.28 19.28 2.44 18.98 C 2.65 19.43 3.05 20.34 3.26 20.79 C 3.51 21.76 3.83 22.70 4.21 23.62 L 3.53 23.41 C 2.58 23.08 1.62 22.75 0.67 22.42 C 0.95 21.85 1.51 20.73 1.79 20.17 Z" />
</g>
<g id="#268ed9ff">
<path fill="#268ed9" opacity="1.00" d=" M 168.21 19.18 C 168.68 19.20 169.61 19.24 170.08 19.26 C 169.82 19.77 169.29 20.79 169.03 21.30 C 168.82 20.77 168.41 19.71 168.21 19.18 Z" />
<path fill="#268ed9" opacity="1.00" d=" M 0.00 20.53 C 0.45 20.44 1.34 20.26 1.79 20.17 C 1.51 20.73 0.95 21.85 0.67 22.42 L 0.00 22.18 L 0.00 20.53 Z" />
</g>
<g id="#adc2d9ff">
<path fill="#adc2d9" opacity="1.00" d=" M 11.63 22.60 C 11.43 21.45 13.06 19.69 13.89 21.20 C 13.96 22.35 13.36 22.97 12.10 23.06 L 11.63 22.60 Z" />
</g>
<g id="#4f7baeff">
<path fill="#4f7bae" opacity="1.00" d=" M 59.57 19.99 C 59.93 19.93 60.64 19.81 61.00 19.74 C 61.18 20.32 61.54 21.48 61.72 22.06 L 61.49 22.68 C 61.15 22.74 60.47 22.86 60.14 22.93 C 59.78 21.98 59.59 21.00 59.57 19.99 Z" />
<path fill="#4f7bae" opacity="1.00" d=" M 171.54 19.91 C 171.90 19.84 172.61 19.70 172.97 19.64 C 173.18 20.21 173.59 21.36 173.80 21.93 L 173.59 22.57 C 173.26 22.65 172.60 22.83 172.28 22.92 C 171.94 21.94 171.70 20.93 171.54 19.91 Z" />
<path fill="#4f7bae" opacity="1.00" d=" M 3.26 20.79 C 3.65 20.84 4.42 20.93 4.81 20.98 C 5.11 21.58 5.72 22.79 6.02 23.39 L 5.60 23.73 C 5.25 23.70 4.56 23.65 4.21 23.62 C 3.83 22.70 3.51 21.76 3.26 20.79 Z" />
</g>
<g id="#8ea7b9ff">
<path fill="#8ea7b9" opacity="1.00" d=" M 8.08 21.87 C 8.50 21.57 9.33 20.96 9.75 20.66 C 10.14 21.06 10.92 21.87 11.31 22.28 C 9.75 22.75 8.18 23.20 6.59 23.56 L 5.60 23.73 L 6.02 23.39 C 6.54 23.01 7.56 22.25 8.08 21.87 Z" />
</g>
<g id="#8ba4b6fe">
<path fill="#8ba4b6" opacity="1.00" d=" M 61.72 22.06 C 62.43 21.73 63.84 21.07 64.55 20.75 C 65.01 20.90 65.92 21.19 66.37 21.34 L 66.75 21.64 C 65.30 22.48 63.70 23.07 62.01 23.08 L 61.49 22.68 L 61.72 22.06 Z" />
<path fill="#8ba4b6" opacity="1.00" d=" M 173.80 21.93 C 174.48 21.65 175.85 21.08 176.53 20.79 C 176.98 20.96 177.87 21.29 178.32 21.46 L 178.75 21.68 C 177.35 22.54 175.76 23.18 174.09 23.04 L 173.59 22.57 L 173.80 21.93 Z" />
</g>
<g id="#65569cff">
<path fill="#65569c" opacity="1.00" d=" M 115.69 22.30 L 116.13 22.17 C 116.45 22.10 117.09 21.96 117.41 21.89 L 118.81 21.60 C 118.67 23.00 118.55 24.40 118.47 25.81 C 116.56 24.97 114.65 24.12 112.75 23.25 C 113.72 22.92 114.70 22.60 115.69 22.30 Z" />
<path fill="#65569c" opacity="1.00" d=" M 122.14 22.11 C 123.44 22.78 123.43 23.46 122.11 24.14 C 120.81 23.47 120.82 22.80 122.14 22.11 Z" />
<path fill="#65569c" opacity="1.00" d=" M 59.68 23.14 L 60.14 22.93 C 60.47 22.86 61.15 22.74 61.49 22.68 L 62.01 23.08 C 62.62 23.60 63.86 24.64 64.47 25.16 C 61.83 25.16 59.19 25.05 56.55 24.88 C 57.58 24.28 58.63 23.70 59.68 23.14 Z" />
<path fill="#65569c" opacity="1.00" d=" M 66.14 23.11 C 67.44 23.78 67.43 24.46 66.11 25.14 C 64.81 24.47 64.82 23.80 66.14 23.11 Z" />
<path fill="#65569c" opacity="1.00" d=" M 171.75 23.11 L 172.28 22.92 C 172.60 22.83 173.26 22.65 173.59 22.57 L 174.09 23.04 C 174.30 23.28 174.73 23.76 174.94 24.00 C 174.85 24.93 174.72 25.84 174.60 26.76 C 172.64 25.95 170.67 25.14 168.70 24.35 C 169.71 23.93 170.73 23.51 171.75 23.11 Z" />
<path fill="#65569c" opacity="1.00" d=" M 178.14 23.11 C 179.44 23.78 179.43 24.46 178.11 25.14 C 176.81 24.47 176.82 23.80 178.14 23.11 Z" />
<path fill="#65569c" opacity="1.00" d=" M 3.53 23.41 L 4.21 23.62 C 4.56 23.65 5.25 23.70 5.60 23.73 L 6.59 23.56 C 6.92 24.26 7.56 25.66 7.89 26.36 C 5.58 26.29 3.27 26.20 0.97 26.12 C 1.82 25.22 2.68 24.31 3.53 23.41 Z" />
<path fill="#65569c" opacity="1.00" d=" M 10.14 24.11 C 11.44 24.78 11.43 25.46 10.11 26.14 C 8.81 25.47 8.82 24.80 10.14 24.11 Z" />
</g>
<g id="#4578c9ff">
<path fill="#4578c9" opacity="1.00" d=" M 32.34 27.61 C 33.17 28.14 34.01 28.66 34.83 29.20 C 35.51 31.64 36.72 33.88 38.37 35.80 C 36.33 36.75 31.85 35.66 31.23 38.88 C 30.31 42.17 28.83 45.74 24.87 45.96 C 25.83 43.82 26.85 41.72 27.92 39.63 C 23.47 38.30 18.95 37.20 14.45 36.06 C 16.55 34.80 18.74 32.50 21.36 33.82 C 25.70 35.39 30.38 35.99 34.37 33.18 C 33.69 31.32 33.02 29.47 32.34 27.61 Z" />
</g>
<g id="#406fc5ff">
<path fill="#406fc5" opacity="1.00" d=" M 0.00 37.11 C 3.94 36.75 7.87 36.32 11.81 35.94 C 11.21 37.88 10.62 39.81 10.04 41.76 C 11.27 43.50 12.53 45.21 13.77 46.94 C 12.24 47.12 9.19 47.46 7.66 47.63 C 7.70 48.28 7.75 48.93 7.79 49.58 C 5.19 49.41 2.60 49.24 0.00 49.05 L 0.00 37.11 Z" />
</g>
<g id="#4878cbff">
<path fill="#4878cb" opacity="1.00" d=" M 60.09 39.01 C 62.35 37.74 64.68 36.63 67.01 35.51 C 66.86 36.21 66.58 37.59 66.43 38.28 C 65.50 38.43 64.57 38.58 63.64 38.73 C 64.75 40.97 65.93 43.16 67.03 45.39 C 64.55 43.45 62.21 41.34 60.09 39.01 Z" />
</g>
<g id="#4374c9ff">
<path fill="#4374c9" opacity="1.00" d=" M 171.39 40.75 C 173.10 37.52 176.26 35.50 180.04 35.27 C 178.93 37.68 177.76 40.06 176.69 42.49 C 177.93 43.21 179.16 43.94 180.39 44.68 C 177.09 44.17 174.27 42.31 171.39 40.75 Z" />
</g>
<g id="#4070c4ff">
<path fill="#4070c4" opacity="1.00" d=" M 13.20 38.31 C 14.67 38.25 14.67 40.75 13.20 40.69 C 11.73 40.71 11.73 38.29 13.20 38.31 Z" />
</g>
<g id="#4378cbff">
<path fill="#4378cb" opacity="1.00" d=" M 103.26 38.66 C 103.33 40.48 103.37 42.30 103.34 44.13 C 106.32 44.56 109.33 44.92 112.32 45.33 C 108.04 45.90 103.76 46.57 99.60 47.75 C 95.52 45.72 90.96 45.32 86.55 44.47 C 91.20 42.61 96.07 43.93 100.81 44.43 C 101.65 42.51 102.45 40.58 103.26 38.66 Z" />
<path fill="#4378cb" opacity="1.00" d=" M 34.87 42.81 C 38.96 45.63 44.13 43.74 47.04 40.12 C 46.66 41.49 46.29 42.86 45.94 44.24 C 49.42 45.13 52.92 45.99 56.43 46.78 C 53.01 46.72 49.61 46.67 46.20 46.42 C 45.40 47.36 44.61 48.30 43.82 49.25 C 40.51 45.61 35.54 44.94 30.90 45.68 C 32.24 44.74 33.56 43.78 34.87 42.81 Z" />
</g>
<g id="#4279cbff">
<path fill="#4279cb" opacity="1.00" d=" M 155.01 44.16 C 157.50 43.41 158.92 40.98 160.62 39.18 C 160.80 41.19 161.05 43.19 161.38 45.18 C 157.06 47.80 152.35 46.51 148.03 44.71 C 148.22 43.99 148.41 43.27 148.60 42.55 C 150.62 43.40 152.71 44.91 155.01 44.16 Z" />
</g>
<g id="#4379cbff">
<path fill="#4379cb" opacity="1.00" d=" M 198.56 44.33 C 206.98 42.39 215.55 44.85 224.00 45.14 L 224.00 45.89 C 218.94 46.21 213.73 47.91 208.66 46.66 C 205.28 45.96 201.90 45.21 198.56 44.33 Z" />
</g>
<g id="#4c77caff">
<path fill="#4c77ca" opacity="1.00" d=" M 59.71 44.07 C 60.83 44.90 61.94 45.75 63.06 46.59 C 61.83 47.53 60.61 48.49 59.34 49.39 C 58.84 49.46 57.84 49.60 57.34 49.67 C 58.12 47.80 58.93 45.94 59.71 44.07 Z" />
</g>
<g id="#4778d1ff">
<path fill="#4778d1" opacity="1.00" d=" M 113.52 43.53 C 114.86 44.93 116.17 46.36 117.44 47.83 C 116.00 47.89 114.56 47.95 113.12 48.00 C 113.26 46.51 113.40 45.02 113.52 43.53 Z" />
</g>
<g id="#4575cbff">
<path fill="#4575cb" opacity="1.00" d=" M 163.97 44.22 C 164.57 43.17 166.42 43.17 167.03 44.22 C 167.35 46.01 163.65 46.01 163.97 44.22 Z" />
</g>
<g id="#4177ccff">
<path fill="#4177cc" opacity="1.00" d=" M 130.17 46.39 C 138.03 46.41 144.06 51.80 150.17 56.00 L 139.13 56.00 C 140.75 55.39 144.00 54.16 145.62 53.54 C 143.24 52.26 140.84 51.01 138.42 49.80 C 138.28 51.10 138.14 52.40 138.01 53.71 C 135.35 51.32 132.73 48.88 130.17 46.39 Z" />
</g>
<g id="#536ea1ff">
<path fill="#536ea1" opacity="1.00" d=" M 0.00 49.05 C 2.60 49.24 5.19 49.41 7.79 49.58 C 9.02 51.51 10.25 53.43 11.58 55.30 C 8.18 52.64 3.99 51.48 0.00 50.03 L 0.00 49.05 Z" />
</g>
<g id="#42689dff">
<path fill="#42689d" opacity="1.00" d=" M 112.85 49.94 C 115.71 49.92 118.67 49.52 121.50 50.16 C 122.81 51.48 123.29 53.42 124.16 55.03 C 120.61 52.88 116.63 51.61 112.64 50.57 L 112.85 49.94 Z" />
</g>
<g id="#6894c6ff">
<path fill="#6894c6" opacity="1.00" d=" M 7.79 49.58 C 10.50 51.58 13.01 53.82 15.57 56.00 L 12.58 56.00 L 11.58 55.30 C 10.25 53.43 9.02 51.51 7.79 49.58 Z" />
</g>
<g id="#315a8cff">
<path fill="#315a8c" opacity="1.00" d=" M 56.54 51.64 C 56.80 50.98 57.07 50.32 57.34 49.67 C 57.84 49.60 58.84 49.46 59.34 49.39 C 60.60 49.83 61.83 50.32 63.06 50.85 C 61.59 51.03 58.67 51.40 57.21 51.59 L 56.54 51.64 Z" />
</g>
<g id="#2f5b84ff">
<path fill="#2f5b84" opacity="1.00" d=" M 168.51 50.00 C 170.20 49.97 173.59 49.93 175.29 49.90 L 174.42 50.76 C 173.08 50.94 170.40 51.31 169.06 51.49 L 168.13 51.56 C 168.22 51.17 168.41 50.39 168.51 50.00 Z" />
</g>
<g id="#607aafff">
<path fill="#607aaf" opacity="1.00" d=" M 175.29 49.90 C 177.54 51.66 179.44 53.81 181.27 56.00 L 179.91 56.00 C 177.94 54.40 176.09 52.66 174.42 50.76 L 175.29 49.90 Z" />
</g>
<g id="#24393dff">
<path fill="#24393d" opacity="1.00" d=" M 0.00 50.03 C 3.99 51.48 8.18 52.64 11.58 55.30 L 12.58 56.00 L 7.73 56.00 C 5.15 54.32 2.57 52.65 0.00 50.97 L 0.00 50.03 Z" />
</g>
<g id="#446da3ff">
<path fill="#446da3" opacity="1.00" d=" M 25.55 56.00 C 26.26 54.23 26.98 52.47 27.70 50.71 C 27.83 52.47 27.94 54.24 28.06 56.00 L 25.55 56.00 Z" />
</g>
<g id="#203b3cff">
<path fill="#203b3c" opacity="1.00" d=" M 57.21 51.59 C 58.67 51.40 61.59 51.03 63.06 50.85 C 64.65 52.63 66.30 54.38 68.06 56.00 L 64.63 56.00 C 63.91 55.43 62.48 54.30 61.76 53.74 C 60.36 52.80 58.79 52.15 57.21 51.59 Z" />
</g>
<g id="#6286a8ff">
<path fill="#6286a8" opacity="1.00" d=" M 63.06 50.85 C 65.47 52.26 67.53 54.16 69.61 56.00 L 68.06 56.00 C 66.30 54.38 64.65 52.63 63.06 50.85 Z" />
</g>
<g id="#244048ff">
<path fill="#244048" opacity="1.00" d=" M 112.64 50.57 C 116.63 51.61 120.61 52.88 124.16 55.03 L 124.63 56.00 L 119.27 56.00 C 118.46 54.95 117.66 53.88 116.88 52.81 C 115.36 52.41 113.84 52.02 112.32 51.63 L 112.64 50.57 Z" />
</g>
<g id="#203b43ff">
<path fill="#203b43" opacity="1.00" d=" M 169.06 51.49 C 170.40 51.31 173.08 50.94 174.42 50.76 C 176.09 52.66 177.94 54.40 179.91 56.00 L 176.61 56.00 C 174.23 54.29 171.84 52.52 169.06 51.49 Z" />
</g>
<g id="#7c9c74ff">
<path fill="#7c9c74" opacity="1.00" d=" M 0.00 50.97 C 2.57 52.65 5.15 54.32 7.73 56.00 L 6.50 56.00 C 4.35 54.90 2.21 53.77 0.00 52.78 L 0.00 50.97 Z" />
</g>
<g id="#709d86ff">
<path fill="#709d86" opacity="1.00" d=" M 56.54 51.64 L 57.21 51.59 C 58.79 52.15 60.36 52.80 61.76 53.74 C 60.60 53.63 59.45 53.53 58.30 53.42 C 57.48 54.29 56.64 55.15 55.80 56.00 L 54.80 56.00 C 55.40 54.55 55.98 53.10 56.54 51.64 Z" />
</g>
<g id="#6e9a88ff">
<path fill="#6e9a88" opacity="1.00" d=" M 112.32 51.63 C 113.84 52.02 115.36 52.41 116.88 52.81 C 115.02 53.50 113.16 54.20 111.36 55.04 C 111.60 54.19 112.08 52.49 112.32 51.63 Z" />
</g>
<g id="#72a072ff">
<path fill="#72a072" opacity="1.00" d=" M 168.13 51.56 L 169.06 51.49 C 171.84 52.52 174.23 54.29 176.61 56.00 L 174.06 56.00 C 173.11 55.25 172.17 54.50 171.25 53.73 C 170.20 54.49 169.15 55.26 168.08 56.00 L 167.23 56.00 C 167.51 54.52 167.82 53.04 168.13 51.56 Z" />
</g>
<g id="#759d51ff">
<path fill="#759d51" opacity="1.00" d=" M 0.00 52.78 C 2.21 53.77 4.35 54.90 6.50 56.00 L 0.00 56.00 L 0.00 52.78 Z" />
</g>
<g id="#6e9b56fe">
<path fill="#6e9b56" opacity="1.00" d=" M 55.80 56.00 C 56.64 55.15 57.48 54.29 58.30 53.42 C 59.45 53.53 60.60 53.63 61.76 53.74 C 62.48 54.30 63.91 55.43 64.63 56.00 L 55.80 56.00 Z" />
</g>
<g id="#75a064ff">
<path fill="#75a064" opacity="1.00" d=" M 111.36 55.04 C 113.16 54.20 115.02 53.50 116.88 52.81 C 117.66 53.88 118.46 54.95 119.27 56.00 L 111.03 56.00 L 111.36 55.04 Z" />
</g>
<g id="#669946ff">
<path fill="#669946" opacity="1.00" d=" M 168.08 56.00 C 169.15 55.26 170.20 54.49 171.25 53.73 C 172.17 54.50 173.11 55.25 174.06 56.00 L 168.08 56.00 Z" />
</g>
</svg>
