<?xml version="1.0" encoding="UTF-8" ?>
<!DOCTYPE svg PUBLIC "-//W3C//DTD SVG 1.1//EN" "http://www.w3.org/Graphics/SVG/1.1/DTD/svg11.dtd">
<svg width="224pt" height="56pt" viewBox="0 0 224 56" version="1.1" xmlns="http://www.w3.org/2000/svg">
<g id="#3d6cbfff">
<path fill="#3d6cbf" opacity="1.00" d=" M 0.00 0.00 L 25.60 0.00 C 26.60 1.11 27.55 2.26 28.50 3.40 C 21.89 3.97 14.78 6.12 8.44 3.24 C 9.37 5.02 10.39 6.79 10.91 8.75 C 8.98 11.24 6.35 13.03 3.92 14.97 C 5.79 14.46 7.67 13.94 9.55 13.44 C 7.76 15.00 5.92 16.51 4.10 18.03 C 4.60 18.02 5.60 18.02 6.11 18.01 C 4.90 19.07 3.71 20.14 2.54 21.24 C 7.69 24.83 14.17 28.22 20.25 24.57 C 20.62 24.43 21.36 24.16 21.73 24.03 C 23.93 23.22 26.14 22.44 28.34 21.60 C 27.99 21.39 27.30 20.95 26.95 20.74 C 26.57 20.48 25.82 19.98 25.44 19.72 L 24.67 19.12 L 25.54 19.40 C 28.54 20.36 31.58 21.27 34.40 22.69 C 33.23 24.84 32.06 26.98 30.90 29.14 C 29.13 28.77 27.36 28.45 25.58 28.11 C 24.84 29.43 24.11 30.76 23.38 32.09 C 23.16 32.53 22.71 33.42 22.49 33.86 C 22.05 32.88 21.61 31.90 21.16 30.92 C 16.96 34.05 13.68 38.15 10.21 42.01 C 9.84 42.31 9.12 42.89 8.76 43.18 C 13.84 45.56 18.78 48.72 24.45 49.45 C 27.46 49.32 29.65 46.84 32.22 45.56 C 33.07 46.30 33.92 47.04 34.78 47.76 L 35.23 48.11 C 33.31 47.78 31.36 47.57 29.42 47.39 C 32.44 48.52 35.60 49.18 38.84 49.22 C 39.45 49.03 40.67 48.66 41.28 48.47 C 46.03 46.55 51.16 46.69 56.19 46.73 C 53.15 46.17 50.12 45.57 47.09 44.98 C 46.83 43.51 46.58 42.03 46.31 40.55 C 45.54 40.44 44.76 40.32 43.99 40.20 C 43.75 41.83 43.48 43.46 43.05 45.05 C 42.39 44.49 41.73 43.93 41.08 43.36 C 42.16 42.35 41.69 40.74 40.84 39.75 C 39.72 37.96 38.72 36.08 37.73 34.21 C 39.14 34.34 40.55 34.46 41.95 34.64 C 41.41 35.12 40.32 36.08 39.78 36.56 C 43.33 36.54 46.89 36.44 50.44 36.20 C 48.50 35.87 46.56 35.51 44.62 35.17 C 45.23 34.83 46.46 34.14 47.07 33.79 C 46.36 32.25 45.46 30.80 44.61 29.34 C 42.99 29.90 41.38 30.60 39.65 30.76 C 37.97 30.04 37.18 28.27 36.46 26.71 L 36.21 25.56 C 36.09 25.04 35.85 23.99 35.73 23.47 C 37.38 22.81 39.04 22.14 40.67 21.42 C 40.05 22.41 39.44 23.40 38.85 24.40 C 41.56 23.32 44.21 22.10 46.84 20.83 C 50.79 20.09 54.78 19.50 58.73 18.73 C 60.76 23.10 65.25 26.12 70.04 26.41 C 72.41 26.06 74.41 24.61 76.51 23.58 C 76.76 23.49 77.26 23.31 77.50 23.22 C 79.80 22.72 82.11 22.29 84.41 21.81 C 83.00 21.50 81.60 21.21 80.20 20.91 L 80.74 20.45 C 81.15 20.12 81.99 19.45 82.40 19.11 C 85.33 19.91 88.09 21.16 90.83 22.44 C 89.40 24.61 88.09 26.85 86.79 29.10 C 85.06 28.75 83.32 28.44 81.58 28.12 C 80.84 29.43 80.11 30.76 79.38 32.08 C 79.16 32.52 78.71 33.41 78.49 33.85 C 78.15 33.05 77.81 32.25 77.47 31.45 C 75.36 32.71 73.23 33.96 70.90 34.78 C 67.35 36.00 63.74 37.02 60.17 38.14 C 62.39 41.34 64.61 45.26 68.95 45.63 C 73.39 46.82 78.18 47.65 81.95 50.47 C 83.85 51.97 85.65 53.58 87.44 55.21 C 85.97 55.41 83.03 55.80 81.56 56.00 L 0.00 56.00 L 0.00 0.00 M 43.79 24.32 C 43.66 25.12 43.53 25.92 43.39 26.72 C 45.71 28.59 48.00 30.48 50.26 32.42 C 54.57 30.35 60.18 29.79 62.69 25.15 C 58.62 26.47 54.73 28.49 50.35 28.60 C 47.69 28.06 45.77 26.01 43.79 24.32 M 2.85 47.79 C 3.03 49.94 3.13 52.10 2.89 54.25 C 5.64 54.48 8.38 54.75 11.13 54.98 C 9.01 53.54 6.85 52.15 4.74 50.69 C 5.78 49.33 6.82 47.98 7.86 46.63 C 6.19 47.01 4.52 47.39 2.85 47.79 Z" />
</g>
<g id="#4178caff">
<path fill="#4178ca" opacity="1.00" d=" M 25.60 0.00 L 30.60 0.00 C 33.91 0.91 37.21 1.93 40.46 3.06 C 35.95 3.39 31.38 3.55 27.07 5.02 C 22.99 6.48 18.56 5.16 14.45 6.37 C 12.17 8.42 11.31 11.50 10.18 14.26 C 9.66 15.49 9.16 16.73 8.66 17.96 C 8.02 17.98 6.75 18.00 6.11 18.01 C 5.60 18.02 4.60 18.02 4.10 18.03 C 5.92 16.51 7.76 15.00 9.55 13.44 C 7.67 13.94 5.79 14.46 3.92 14.97 C 6.35 13.03 8.98 11.24 10.91 8.75 C 10.39 6.79 9.37 5.02 8.44 3.24 C 14.78 6.12 21.89 3.97 28.50 3.40 C 27.55 2.26 26.60 1.11 25.60 0.00 Z" />
</g>
<g id="#3c6cbeff">
<path fill="#3c6cbe" opacity="1.00" d=" M 30.60 0.00 L 85.29 0.00 C 79.76 5.69 71.37 2.58 64.57 2.21 C 65.47 4.04 66.41 5.88 66.93 7.86 C 64.97 10.34 62.46 12.32 60.19 14.51 C 62.09 13.60 64.03 12.76 65.81 11.63 C 68.45 9.94 69.30 6.52 71.89 4.81 C 74.81 3.98 77.77 5.28 80.61 5.89 C 83.69 3.51 86.75 0.52 91.07 0.94 C 94.61 0.73 97.03 3.87 98.99 6.39 C 95.93 6.02 92.87 5.63 89.80 5.47 L 88.86 5.45 C 84.67 8.82 80.97 12.73 77.07 16.43 L 76.53 16.97 C 74.89 14.92 73.22 12.89 71.69 10.75 L 71.38 9.83 C 71.19 10.08 70.80 10.58 70.61 10.83 C 67.99 13.59 65.08 16.04 62.14 18.43 C 61.90 18.39 61.42 18.31 61.19 18.26 C 56.52 16.31 51.72 18.10 47.59 20.44 C 47.84 19.86 48.33 18.70 48.58 18.12 C 46.62 18.87 44.66 19.65 42.73 20.48 C 43.66 19.37 43.78 17.90 43.70 16.52 C 43.70 16.13 43.71 15.35 43.71 14.96 C 45.21 14.58 46.71 14.18 48.21 13.79 C 48.89 13.88 50.24 14.06 50.92 14.15 C 51.99 14.08 53.75 14.54 54.25 13.25 C 53.54 11.94 51.77 12.13 50.50 11.98 C 50.06 12.00 49.17 12.03 48.73 12.05 L 47.61 12.18 C 47.20 12.14 46.38 12.06 45.97 12.02 C 45.19 10.57 44.42 9.12 43.68 7.66 C 47.07 7.13 50.54 7.00 53.86 6.09 C 56.15 5.00 57.58 2.74 59.33 0.99 C 53.91 3.46 48.06 4.62 42.11 4.67 C 42.41 5.22 42.70 5.77 42.99 6.33 C 39.96 6.06 36.94 5.75 33.90 5.67 L 33.06 5.71 C 32.55 5.83 31.53 6.05 31.02 6.17 C 29.10 6.66 27.20 7.25 25.31 7.84 C 24.80 9.82 24.30 11.81 23.63 13.74 C 22.85 14.63 22.09 15.53 21.33 16.43 L 20.72 17.17 C 19.02 15.10 17.35 13.01 15.88 10.76 L 15.45 9.87 C 15.20 10.10 14.71 10.54 14.47 10.76 C 13.07 11.96 11.60 13.07 10.18 14.26 C 11.31 11.50 12.17 8.42 14.45 6.37 C 18.56 5.16 22.99 6.48 27.07 5.02 C 31.38 3.55 35.95 3.39 40.46 3.06 C 37.21 1.93 33.91 0.91 30.60 0.00 Z" />
<path fill="#3c6cbe" opacity="1.00" d=" M 198.31 42.92 C 198.42 42.49 198.63 41.62 198.74 41.19 C 199.75 41.50 200.76 41.77 201.79 42.01 L 202.65 42.18 C 201.86 43.17 201.22 44.28 200.67 45.43 C 200.40 45.95 199.85 46.98 199.58 47.50 C 202.46 47.93 205.33 48.30 208.23 48.66 C 208.90 47.95 209.56 47.24 210.23 46.53 C 210.42 48.42 212.55 48.21 213.82 47.64 C 217.17 46.78 220.59 46.28 224.00 45.70 L 224.00 56.00 L 205.22 56.00 C 201.78 54.76 196.49 53.00 196.79 48.38 C 197.21 46.54 197.77 44.73 198.31 42.92 Z" />
</g>
<g id="#4179cbff">
<path fill="#4179cb" opacity="1.00" d=" M 85.29 0.00 L 93.93 0.00 C 99.30 3.71 105.87 3.47 112.14 3.58 C 111.93 4.60 111.71 5.62 111.50 6.64 C 108.42 6.15 105.35 5.55 102.27 5.05 C 101.46 5.92 100.65 6.79 99.85 7.65 C 99.63 7.34 99.20 6.70 98.99 6.39 C 97.03 3.87 94.61 0.73 91.07 0.94 C 86.75 0.52 83.69 3.51 80.61 5.89 C 77.77 5.28 74.81 3.98 71.89 4.81 C 69.30 6.52 68.45 9.94 65.81 11.63 C 64.03 12.76 62.09 13.60 60.19 14.51 C 62.46 12.32 64.97 10.34 66.93 7.86 C 66.41 5.88 65.47 4.04 64.57 2.21 C 71.37 2.58 79.76 5.69 85.29 0.00 Z" />
<path fill="#4179cb" opacity="1.00" d=" M 197.32 0.00 L 205.95 0.00 C 211.25 3.73 217.77 3.53 224.00 3.62 L 224.00 6.61 C 219.89 5.49 215.42 5.02 211.49 7.03 C 211.37 6.86 211.12 6.51 211.00 6.34 C 208.98 3.89 206.60 0.74 203.07 0.94 C 198.75 0.52 195.69 3.51 192.61 5.89 C 189.77 5.28 186.81 3.98 183.89 4.81 C 181.31 6.53 180.44 9.93 177.80 11.61 C 176.06 12.75 174.19 13.64 172.34 14.58 C 175.31 11.56 177.47 7.89 179.98 4.53 C 185.47 1.78 192.74 5.19 197.32 0.00 Z" />
</g>
<g id="#3d6cbffe">
<path fill="#3d6cbf" opacity="1.00" d=" M 93.93 0.00 L 138.31 0.00 C 137.73 0.60 136.58 1.80 136.00 2.40 C 130.85 2.12 125.70 1.85 120.58 1.26 C 121.48 3.08 122.43 4.91 122.97 6.89 C 120.99 9.31 118.40 11.14 116.10 13.23 C 118.63 12.26 121.17 11.30 123.72 10.35 C 124.52 8.29 125.15 6.12 126.49 4.33 C 129.84 2.63 133.54 4.81 137.04 4.51 C 138.72 3.26 139.93 1.53 141.34 0.00 L 152.09 0.00 C 153.12 2.20 154.20 4.38 155.34 6.53 C 152.21 5.95 149.03 5.66 145.85 5.46 L 144.95 5.42 C 140.37 9.17 136.31 13.50 131.63 17.12 C 130.45 14.99 129.29 12.85 128.10 10.73 L 127.42 11.25 C 125.24 12.72 123.03 14.16 120.87 15.68 C 119.43 16.20 117.97 16.67 116.51 17.12 C 112.23 14.97 107.95 17.31 104.44 19.77 C 108.19 19.09 111.95 18.43 115.63 17.38 C 115.62 18.53 115.61 19.68 115.61 20.82 C 119.59 22.34 123.88 25.03 128.21 23.12 C 128.67 23.00 129.60 22.77 130.06 22.65 C 131.02 22.47 131.99 22.30 132.97 22.13 C 134.58 22.07 136.17 21.25 136.77 19.67 C 137.50 18.52 138.08 17.28 138.44 15.97 C 139.36 16.13 140.28 16.31 141.20 16.48 C 142.92 18.71 144.65 20.94 146.52 23.05 C 145.16 25.00 143.97 27.05 142.77 29.09 C 141.04 28.74 139.31 28.44 137.58 28.12 C 136.84 29.43 136.11 30.76 135.38 32.08 C 135.16 32.52 134.72 33.41 134.49 33.85 C 134.10 32.95 133.71 32.06 133.31 31.16 C 130.90 32.82 128.37 34.33 126.17 36.27 C 123.79 36.10 121.40 36.09 119.03 36.40 C 117.16 36.62 115.30 36.96 113.46 37.32 C 116.05 39.94 119.53 40.75 122.95 39.27 L 123.21 39.48 C 123.92 41.19 124.62 42.92 125.29 44.65 C 128.63 46.24 131.94 49.21 135.91 48.10 C 139.34 47.84 141.13 44.66 143.01 42.24 C 144.44 43.51 145.83 44.81 147.29 46.04 C 145.36 45.57 143.41 45.23 141.46 44.89 C 143.79 48.08 147.23 50.22 151.28 50.60 C 149.87 49.87 148.45 49.15 147.03 48.44 C 148.45 48.09 149.87 47.74 151.28 47.35 C 151.99 47.14 153.39 46.72 154.10 46.50 C 155.66 45.41 157.05 44.09 158.34 42.70 C 160.11 41.15 157.63 39.10 155.91 39.85 L 155.54 39.88 C 154.28 39.64 153.03 39.36 151.78 39.09 C 151.23 37.60 150.64 36.12 150.06 34.64 C 154.17 35.79 158.42 36.56 162.70 36.46 C 160.24 35.52 157.75 34.65 155.24 33.85 C 156.26 35.37 158.49 34.37 158.00 32.61 C 158.24 31.31 157.82 30.44 156.71 30.00 C 153.31 30.93 149.44 30.72 148.03 26.86 L 148.20 25.78 C 148.31 25.08 148.53 23.69 148.65 22.99 L 148.81 22.08 C 149.24 20.74 149.73 19.42 150.26 18.12 C 150.50 17.90 150.98 17.46 151.22 17.24 C 151.80 16.87 152.95 16.15 153.52 15.79 C 153.91 15.14 154.28 14.49 154.66 13.84 C 154.94 13.90 155.50 14.02 155.78 14.08 C 156.45 15.17 157.10 16.28 157.74 17.40 C 154.04 18.07 151.70 21.07 149.69 23.99 C 151.67 23.69 153.65 23.37 155.62 23.06 C 157.79 26.28 160.16 29.45 161.27 33.22 C 163.86 27.22 171.17 30.28 175.00 25.96 C 168.68 25.98 159.71 29.06 156.45 21.66 C 157.84 19.57 159.01 17.24 158.85 14.66 C 158.88 14.06 158.94 12.85 158.96 12.25 C 159.92 13.87 162.06 13.71 163.38 12.66 C 164.47 13.21 165.59 13.72 166.71 14.23 C 166.44 13.26 166.17 12.29 165.90 11.33 C 167.44 12.09 168.98 12.85 170.54 13.56 C 169.46 12.10 168.51 10.47 167.03 9.37 C 163.93 8.89 160.84 10.01 157.78 10.39 C 157.49 10.41 157.20 10.42 156.92 10.44 C 156.75 9.90 156.41 8.81 156.24 8.27 C 156.05 7.47 155.67 5.89 155.48 5.10 C 159.50 5.48 163.51 6.04 167.52 6.57 C 167.73 5.48 167.95 4.39 168.16 3.30 C 164.91 3.52 161.65 3.71 158.39 3.89 C 157.20 2.59 156.03 1.28 154.82 0.00 L 197.32 0.00 C 192.74 5.19 185.47 1.78 179.98 4.53 C 177.47 7.89 175.31 11.56 172.34 14.58 C 174.19 13.64 176.06 12.75 177.80 11.61 C 180.44 9.93 181.31 6.53 183.89 4.81 C 186.81 3.98 189.77 5.28 192.61 5.89 C 195.69 3.51 198.75 0.52 203.07 0.94 C 206.60 0.74 208.98 3.89 211.00 6.34 C 207.92 6.00 204.85 5.63 201.76 5.48 L 200.78 5.46 C 196.79 8.82 193.32 12.73 189.41 16.19 L 188.90 16.63 C 186.96 14.85 185.20 12.89 183.58 10.82 L 183.24 9.84 C 183.04 10.10 182.63 10.62 182.43 10.88 C 180.02 13.60 177.33 16.09 174.46 18.31 C 174.13 18.35 173.47 18.43 173.14 18.46 C 170.42 17.43 167.86 15.53 164.86 15.55 C 163.12 16.12 161.87 17.57 160.43 18.63 C 163.87 18.70 167.31 18.87 170.75 18.72 C 173.60 25.36 182.62 28.91 188.39 23.61 C 188.77 23.52 189.53 23.33 189.91 23.23 C 192.02 22.76 194.15 22.32 196.26 21.82 C 195.76 21.39 194.75 20.52 194.25 20.09 L 193.65 19.59 C 196.91 19.75 199.96 20.92 202.85 22.36 C 201.42 24.56 200.11 26.83 198.80 29.10 C 197.06 28.75 195.32 28.44 193.58 28.12 C 192.84 29.43 192.11 30.76 191.38 32.08 C 191.16 32.52 190.72 33.41 190.50 33.85 C 190.15 33.03 189.81 32.23 189.46 31.42 C 187.36 32.71 185.22 33.99 182.88 34.82 C 179.49 35.99 176.02 36.92 172.59 37.96 C 173.07 38.74 173.56 39.53 174.03 40.32 C 174.42 41.78 176.28 41.79 177.00 40.60 C 178.56 39.21 180.19 37.91 181.75 36.53 C 180.93 38.00 180.16 39.50 179.36 41.00 C 178.93 41.81 178.50 42.63 178.06 43.45 C 182.88 46.68 188.78 47.46 193.79 50.24 C 195.74 51.82 197.58 53.53 199.41 55.23 C 197.95 55.43 195.02 55.81 193.56 56.00 L 143.91 56.00 C 145.42 53.39 140.58 53.39 142.09 56.00 L 93.21 56.00 C 88.94 55.17 85.60 52.25 83.95 48.34 C 85.04 47.17 86.12 45.99 87.18 44.80 C 86.87 44.27 86.27 43.21 85.97 42.69 L 86.14 41.91 L 86.90 41.50 C 88.02 42.13 89.15 42.75 90.28 43.37 C 90.50 44.04 90.93 45.39 91.14 46.06 C 89.54 46.20 87.94 46.38 86.35 46.60 C 89.43 47.58 92.62 48.08 95.86 48.12 C 97.08 48.00 98.30 47.82 99.51 47.57 C 103.23 46.79 106.99 46.21 110.77 45.76 C 112.06 46.98 113.32 48.25 114.60 49.51 C 115.36 48.11 116.10 46.70 116.85 45.29 C 112.07 45.19 107.28 44.91 102.51 44.70 C 102.85 42.74 103.18 40.77 103.46 38.79 C 103.15 39.31 102.55 40.35 102.25 40.86 C 101.16 40.56 100.08 40.26 99.00 39.94 C 99.29 41.73 99.48 43.53 99.48 45.34 L 98.65 45.21 C 97.15 42.01 95.66 38.79 94.54 35.43 L 95.11 35.53 C 98.87 36.26 103.16 37.69 105.69 33.94 C 109.52 30.53 113.60 27.43 117.54 24.16 C 113.24 25.49 108.71 28.24 104.09 27.05 C 100.99 26.17 101.16 22.66 101.66 20.13 C 102.44 18.08 103.06 15.98 103.62 13.85 C 103.72 13.50 103.90 12.79 104.00 12.43 C 104.64 12.66 105.93 13.11 106.58 13.33 C 109.82 13.60 112.88 12.49 115.15 10.15 C 111.09 9.79 107.06 10.31 103.06 10.97 L 102.06 11.07 C 101.33 9.93 100.59 8.79 99.85 7.65 C 100.65 6.79 101.46 5.92 102.27 5.05 C 105.35 5.55 108.42 6.15 111.50 6.64 C 111.71 5.62 111.93 4.60 112.14 3.58 C 105.87 3.47 99.30 3.71 93.93 0.00 M 139.14 19.11 C 137.82 19.80 137.81 20.47 139.11 21.14 C 140.43 20.46 140.44 19.78 139.14 19.11 M 113.52 51.44 C 116.81 51.96 120.11 52.51 123.43 52.87 C 120.47 50.76 116.92 49.52 113.52 51.44 Z" />
</g>
<g id="#4378caff">
<path fill="#4378ca" opacity="1.00" d=" M 138.31 0.00 L 141.34 0.00 C 139.93 1.53 138.72 3.26 137.04 4.51 C 133.54 4.81 129.84 2.63 126.49 4.33 C 125.15 6.12 124.52 8.29 123.72 10.35 C 121.17 11.30 118.63 12.26 116.10 13.23 C 118.40 11.14 120.99 9.31 122.97 6.89 C 122.43 4.91 121.48 3.08 120.58 1.26 C 125.70 1.85 130.85 2.12 136.00 2.40 C 136.58 1.80 137.73 0.60 138.31 0.00 Z" />
<path fill="#4378ca" opacity="1.00" d=" M 101.66 20.13 C 101.16 22.66 100.99 26.17 104.09 27.05 C 108.71 28.24 113.24 25.49 117.54 24.16 C 113.60 27.43 109.52 30.53 105.69 33.94 L 104.91 34.59 C 104.79 34.23 104.55 33.51 104.43 33.15 C 103.22 29.39 101.02 26.07 99.16 22.63 C 100.02 21.82 100.85 20.99 101.66 20.13 Z" />
<path fill="#4378ca" opacity="1.00" d=" M 211.28 22.84 C 211.97 22.29 212.65 21.71 213.30 21.10 C 213.69 22.94 213.18 25.84 215.40 26.56 C 218.16 27.49 221.12 27.34 224.00 27.63 L 224.00 27.89 C 221.90 29.86 219.74 31.77 217.80 33.91 L 217.11 34.64 C 216.97 34.25 216.70 33.47 216.56 33.09 L 216.24 32.25 C 214.86 28.98 212.96 25.96 211.28 22.84 Z" />
</g>
<g id="#4079ccff">
<path fill="#4079cc" opacity="1.00" d=" M 152.09 0.00 L 154.82 0.00 C 156.03 1.28 157.20 2.59 158.39 3.89 C 161.65 3.71 164.91 3.52 168.16 3.30 C 167.95 4.39 167.73 5.48 167.52 6.57 C 163.51 6.04 159.50 5.48 155.48 5.10 C 155.67 5.89 156.05 7.47 156.24 8.27 C 156.02 7.83 155.57 6.96 155.34 6.53 C 154.20 4.38 153.12 2.20 152.09 0.00 Z" />
</g>
<g id="#3c6abefe">
<path fill="#3c6abe" opacity="1.00" d=" M 205.95 0.00 L 224.00 0.00 L 224.00 3.62 C 217.77 3.53 211.25 3.73 205.95 0.00 Z" />
</g>
<g id="#407accff">
<path fill="#407acc" opacity="1.00" d=" M 42.11 4.67 C 48.06 4.62 53.91 3.46 59.33 0.99 C 57.58 2.74 56.15 5.00 53.86 6.09 C 50.54 7.00 47.07 7.13 43.68 7.66 C 43.51 7.33 43.16 6.66 42.99 6.33 C 42.70 5.77 42.41 5.22 42.11 4.67 Z" />
</g>
<g id="#464138ff">
<path fill="#464138" opacity="1.00" d=" M 33.90 5.67 C 36.94 5.75 39.96 6.06 42.99 6.33 C 43.16 6.66 43.51 7.33 43.68 7.66 C 44.42 9.12 45.19 10.57 45.97 12.02 C 44.97 11.88 43.97 11.75 42.98 11.51 C 41.96 8.77 40.15 6.27 37.12 5.61 C 36.31 5.63 34.70 5.66 33.90 5.67 Z" />
</g>
<g id="#423e38ff">
<path fill="#423e38" opacity="1.00" d=" M 89.80 5.47 C 92.87 5.63 95.93 6.02 98.99 6.39 C 99.20 6.70 99.63 7.34 99.85 7.65 C 100.59 8.79 101.33 9.93 102.06 11.07 L 101.16 11.14 C 100.48 11.17 99.81 11.20 99.13 11.17 C 97.81 8.67 95.96 6.38 93.13 5.57 C 92.30 5.54 90.63 5.49 89.80 5.47 Z" />
</g>
<g id="#403d3afe">
<path fill="#403d3a" opacity="1.00" d=" M 145.85 5.46 C 149.03 5.66 152.21 5.95 155.34 6.53 C 155.57 6.96 156.02 7.83 156.24 8.27 C 156.41 8.81 156.75 9.90 156.92 10.44 C 154.45 8.62 151.89 6.92 149.07 5.69 C 148.27 5.63 146.66 5.51 145.85 5.46 Z" />
</g>
<g id="#45403aff">
<path fill="#45403a" opacity="1.00" d=" M 201.76 5.48 C 204.85 5.63 207.92 6.00 211.00 6.34 C 211.12 6.51 211.37 6.86 211.49 7.03 C 212.41 8.39 213.31 9.75 214.22 11.11 C 213.37 11.68 212.54 12.27 211.77 12.93 C 211.62 12.53 211.31 11.73 211.16 11.33 C 210.21 8.51 208.00 6.38 205.12 5.58 C 204.28 5.55 202.60 5.50 201.76 5.48 Z" />
</g>
<g id="#3e6cbeff">
<path fill="#3e6cbe" opacity="1.00" d=" M 211.49 7.03 C 215.42 5.02 219.89 5.49 224.00 6.61 L 224.00 9.26 C 220.97 9.68 217.94 10.21 214.96 10.84 L 214.22 11.11 C 213.31 9.75 212.41 8.39 211.49 7.03 Z" />
</g>
<g id="#4279c9ff">
<path fill="#4279c9" opacity="1.00" d=" M 25.31 7.84 C 27.20 7.25 29.10 6.66 31.02 6.17 C 28.54 8.68 26.06 11.19 23.63 13.74 C 24.30 11.81 24.80 9.82 25.31 7.84 Z" />
</g>
<g id="#383531fe">
<path fill="#383531" opacity="1.00" d=" M 31.02 6.17 C 31.53 6.05 32.55 5.83 33.06 5.71 C 33.06 6.22 33.07 7.23 33.07 7.74 C 32.45 8.06 31.20 8.71 30.57 9.04 C 30.12 9.61 29.68 10.19 29.24 10.76 C 30.15 12.51 31.05 14.26 31.93 16.02 C 30.27 15.54 30.00 17.76 31.27 18.39 L 31.69 18.88 C 29.64 19.07 27.59 19.28 25.54 19.40 L 24.67 19.12 C 23.53 18.25 22.43 17.34 21.33 16.43 C 22.09 15.53 22.85 14.63 23.63 13.74 C 26.06 11.19 28.54 8.68 31.02 6.17 M 27.17 13.17 C 26.65 14.80 27.20 15.35 28.83 14.83 C 29.35 13.20 28.80 12.65 27.17 13.17 M 24.17 15.17 C 23.65 16.80 24.20 17.35 25.83 16.83 C 26.35 15.20 25.80 14.65 24.17 15.17 Z" />
</g>
<g id="#61584aff">
<path fill="#61584a" opacity="1.00" d=" M 33.06 5.71 L 33.90 5.67 C 34.70 5.66 36.31 5.63 37.12 5.61 C 36.29 6.61 35.45 7.60 34.62 8.60 C 37.35 9.73 40.13 10.75 42.98 11.51 C 43.97 11.75 44.97 11.88 45.97 12.02 C 46.38 12.06 47.20 12.14 47.61 12.18 C 46.24 13.01 44.92 13.92 43.71 14.96 C 43.71 15.35 43.70 16.13 43.70 16.52 C 42.41 17.47 41.08 18.82 41.30 20.57 L 40.02 20.15 C 39.54 20.01 38.58 19.73 38.10 19.59 C 37.48 19.34 36.25 18.83 35.63 18.58 C 36.72 17.17 37.84 15.78 39.06 14.47 C 39.11 16.08 39.17 17.68 39.23 19.29 C 40.25 17.84 41.26 16.39 42.27 14.94 C 41.76 14.78 40.75 14.48 40.24 14.33 C 38.04 13.58 35.88 12.74 33.70 11.93 C 33.48 13.81 33.26 15.70 32.93 17.57 L 32.32 16.76 L 31.93 16.02 C 31.05 14.26 30.15 12.51 29.24 10.76 C 29.68 10.19 30.12 9.61 30.57 9.04 C 31.24 11.06 33.82 9.37 33.07 7.74 C 33.07 7.23 33.06 6.22 33.06 5.71 Z" />
</g>
<g id="#9a884eff">
<path fill="#9a884e" opacity="1.00" d=" M 37.12 5.61 C 40.15 6.27 41.96 8.77 42.98 11.51 C 40.13 10.75 37.35 9.73 34.62 8.60 C 35.45 7.60 36.29 6.61 37.12 5.61 Z" />
<path fill="#9a884e" opacity="1.00" d=" M 93.13 5.57 C 95.96 6.38 97.81 8.67 99.13 11.17 C 96.18 10.72 93.35 9.75 90.57 8.72 C 91.42 7.67 92.27 6.62 93.13 5.57 Z" />
<path fill="#9a884e" opacity="1.00" d=" M 205.12 5.58 C 208.00 6.38 210.21 8.51 211.16 11.33 C 208.27 10.58 205.42 9.67 202.61 8.67 C 203.44 7.64 204.28 6.61 205.12 5.58 Z" />
</g>
<g id="#35302cff">
<path fill="#35302c" opacity="1.00" d=" M 77.07 16.43 C 80.97 12.73 84.67 8.82 88.86 5.45 C 88.92 6.07 89.04 7.31 89.10 7.93 C 88.48 8.17 87.24 8.65 86.62 8.89 C 86.06 9.59 85.50 10.29 84.94 10.99 C 85.83 11.94 86.72 12.88 87.62 13.82 C 87.06 14.91 86.22 16.31 86.90 17.52 L 87.22 18.15 C 86.78 17.91 85.90 17.44 85.46 17.20 C 84.22 15.53 81.05 16.92 83.17 18.63 L 82.40 19.11 C 81.99 19.45 81.15 20.12 80.74 20.45 C 80.19 19.57 79.65 18.67 79.12 17.78 C 78.61 17.44 77.59 16.77 77.07 16.43 M 83.17 13.17 C 82.65 14.80 83.20 15.35 84.83 14.83 C 85.35 13.20 84.80 12.65 83.17 13.17 M 80.17 15.17 C 79.65 16.80 80.20 17.35 81.83 16.83 C 82.35 15.20 81.80 14.65 80.17 15.17 Z" />
</g>
<g id="#655a4bff">
<path fill="#655a4b" opacity="1.00" d=" M 88.86 5.45 L 89.80 5.47 C 90.63 5.49 92.30 5.54 93.13 5.57 C 92.27 6.62 91.42 7.67 90.57 8.72 C 93.35 9.75 96.18 10.72 99.13 11.17 C 99.81 11.20 100.48 11.17 101.16 11.14 C 100.12 12.55 99.08 13.95 98.09 15.39 L 97.64 16.06 C 97.22 15.79 96.39 15.24 95.97 14.96 C 93.87 13.43 91.26 12.50 88.73 13.52 C 88.45 13.59 87.90 13.74 87.62 13.82 C 86.72 12.88 85.83 11.94 84.94 10.99 C 85.50 10.29 86.06 9.59 86.62 8.89 C 87.07 10.86 89.97 9.66 89.10 7.93 C 89.04 7.31 88.92 6.07 88.86 5.45 Z" />
<path fill="#655a4b" opacity="1.00" d=" M 143.83 41.42 C 142.88 40.72 142.60 39.82 142.99 38.71 C 143.54 38.95 144.63 39.44 145.18 39.69 L 145.05 40.36 C 144.74 40.63 144.13 41.15 143.83 41.42 Z" />
</g>
<g id="#3c3732ff">
<path fill="#3c3732" opacity="1.00" d=" M 131.63 17.12 C 136.31 13.50 140.37 9.17 144.95 5.42 C 144.99 6.06 145.07 7.33 145.11 7.96 C 144.48 8.18 143.22 8.61 142.59 8.83 C 142.19 9.26 141.40 10.13 141.00 10.57 C 141.90 11.83 142.81 13.08 143.74 14.31 C 142.22 13.76 141.44 16.09 143.16 16.32 L 142.58 16.73 C 142.24 16.67 141.55 16.54 141.20 16.48 C 140.28 16.31 139.36 16.13 138.44 15.97 C 137.30 15.60 136.11 16.11 135.34 16.96 C 134.69 17.50 134.05 18.05 133.37 18.55 C 131.96 19.01 130.54 19.42 129.11 19.81 C 129.06 18.51 128.98 17.20 128.84 15.91 C 128.63 14.18 128.35 12.46 128.10 10.73 C 129.29 12.85 130.45 14.99 131.63 17.12 M 139.17 13.17 C 138.65 14.80 139.20 15.35 140.83 14.83 C 141.35 13.20 140.80 12.65 139.17 13.17 Z" />
</g>
<g id="#675d4fff">
<path fill="#675d4f" opacity="1.00" d=" M 144.95 5.42 L 145.85 5.46 C 146.66 5.51 148.27 5.63 149.07 5.69 C 148.25 6.67 147.43 7.66 146.61 8.65 C 149.51 9.74 152.44 10.82 155.50 11.37 C 154.71 11.91 153.92 12.45 153.13 12.97 C 153.51 13.19 154.28 13.63 154.66 13.84 C 154.28 14.49 153.91 15.14 153.52 15.79 C 153.19 15.51 152.53 14.95 152.20 14.67 C 149.89 13.70 147.57 12.77 145.27 11.80 C 145.12 12.70 144.80 14.50 144.65 15.40 L 144.24 14.95 L 143.74 14.31 C 142.81 13.08 141.90 11.83 141.00 10.57 C 141.40 10.13 142.19 9.26 142.59 8.83 C 142.96 10.81 145.92 9.74 145.11 7.96 C 145.07 7.33 144.99 6.06 144.95 5.42 Z" />
</g>
<g id="#978751fe">
<path fill="#978751" opacity="1.00" d=" M 149.07 5.69 C 151.89 6.92 154.45 8.62 156.92 10.44 C 156.56 10.67 155.86 11.14 155.50 11.37 C 152.44 10.82 149.51 9.74 146.61 8.65 C 147.43 7.66 148.25 6.67 149.07 5.69 Z" />
</g>
<g id="#38332fff">
<path fill="#38332f" opacity="1.00" d=" M 189.41 16.19 C 193.32 12.73 196.79 8.82 200.78 5.46 C 200.80 6.05 200.86 7.23 200.88 7.82 C 200.27 8.09 199.03 8.62 198.41 8.89 C 197.40 11.23 198.81 13.45 200.05 15.36 C 198.58 14.72 197.65 17.02 199.34 17.35 L 198.55 17.86 C 198.21 17.69 197.53 17.36 197.19 17.19 C 196.07 16.05 194.16 17.73 195.35 18.92 C 194.93 19.09 194.08 19.43 193.65 19.59 C 193.24 19.87 192.42 20.43 192.01 20.70 C 191.81 19.76 191.62 18.82 191.34 17.91 C 190.86 17.48 189.90 16.62 189.41 16.19 M 195.17 13.17 C 194.65 14.80 195.20 15.35 196.83 14.83 C 197.35 13.20 196.79 12.65 195.17 13.17 M 192.17 15.17 C 191.65 16.80 192.20 17.35 193.83 16.83 C 194.35 15.20 193.79 14.65 192.17 15.17 Z" />
</g>
<g id="#645b4dff">
<path fill="#645b4d" opacity="1.00" d=" M 200.78 5.46 L 201.76 5.48 C 202.60 5.50 204.28 5.55 205.12 5.58 C 204.28 6.61 203.44 7.64 202.61 8.67 C 205.42 9.67 208.27 10.58 211.16 11.33 C 211.31 11.73 211.62 12.53 211.77 12.93 C 211.55 13.18 211.13 13.69 210.92 13.95 L 210.37 14.59 L 209.92 15.11 C 209.63 14.99 209.04 14.77 208.74 14.65 C 206.37 13.74 204.01 12.80 201.64 11.90 C 201.47 13.54 201.33 15.19 201.10 16.83 L 200.50 16.06 L 200.05 15.36 C 198.81 13.45 197.40 11.23 198.41 8.89 C 199.02 10.74 201.64 9.48 200.88 7.82 C 200.86 7.23 200.80 6.05 200.78 5.46 Z" />
</g>
<g id="#9c8a4eff">
<path fill="#9c8a4e" opacity="1.00" d=" M 30.57 9.04 C 31.20 8.71 32.45 8.06 33.07 7.74 C 33.82 9.37 31.24 11.06 30.57 9.04 Z" />
<path fill="#9c8a4e" opacity="1.00" d=" M 86.62 8.89 C 87.24 8.65 88.48 8.17 89.10 7.93 C 89.97 9.66 87.07 10.86 86.62 8.89 Z" />
<path fill="#9c8a4e" opacity="1.00" d=" M 142.59 8.83 C 143.22 8.61 144.48 8.18 145.11 7.96 C 145.92 9.74 142.96 10.81 142.59 8.83 Z" />
<path fill="#9c8a4e" opacity="1.00" d=" M 198.41 8.89 C 199.03 8.62 200.27 8.09 200.88 7.82 C 201.64 9.48 199.02 10.74 198.41 8.89 Z" />
<path fill="#9c8a4e" opacity="1.00" d=" M 127.42 11.25 L 128.10 10.73 C 128.35 12.46 128.63 14.18 128.84 15.91 C 128.08 15.92 126.57 15.94 125.81 15.95 C 126.50 14.82 126.61 13.64 126.12 12.40 C 126.45 12.11 127.10 11.54 127.42 11.25 Z" />
<path fill="#9c8a4e" opacity="1.00" d=" M 151.22 17.24 C 151.47 16.60 151.96 15.31 152.20 14.67 C 152.53 14.95 153.19 15.51 153.52 15.79 C 152.95 16.15 151.80 16.87 151.22 17.24 Z" />
<path fill="#9c8a4e" opacity="1.00" d=" M 74.65 18.85 C 73.22 20.93 71.45 17.51 73.90 17.39 C 74.08 17.75 74.46 18.48 74.65 18.85 Z" />
<path fill="#9c8a4e" opacity="1.00" d=" M 186.70 18.80 C 185.33 20.93 183.45 17.57 185.90 17.37 C 186.10 17.73 186.50 18.44 186.70 18.80 Z" />
<path fill="#9c8a4e" opacity="1.00" d=" M 32.44 28.45 C 32.80 27.97 33.52 27.02 33.89 26.55 C 35.31 27.47 33.70 29.47 32.44 28.45 Z" />
<path fill="#9c8a4e" opacity="1.00" d=" M 88.99 26.74 L 89.75 26.49 C 91.25 27.31 89.80 29.43 88.48 28.42 C 88.61 28.00 88.86 27.16 88.99 26.74 Z" />
<path fill="#9c8a4e" opacity="1.00" d=" M 144.99 26.72 L 145.75 26.49 C 147.24 27.31 145.79 29.42 144.48 28.40 C 144.61 27.98 144.86 27.14 144.99 26.72 Z" />
<path fill="#9c8a4e" opacity="1.00" d=" M 200.99 26.73 L 201.75 26.50 C 203.24 27.31 201.79 29.43 200.48 28.41 C 200.61 27.99 200.86 27.15 200.99 26.73 Z" />
</g>
<g id="#3e7bcdff">
<path fill="#3e7bcd" opacity="1.00" d=" M 157.78 10.39 C 160.84 10.01 163.93 8.89 167.03 9.37 C 168.51 10.47 169.46 12.10 170.54 13.56 C 168.98 12.85 167.44 12.09 165.90 11.33 C 166.17 12.29 166.44 13.26 166.71 14.23 C 165.59 13.72 164.47 13.21 163.38 12.66 C 161.99 11.91 160.65 11.02 159.09 10.71 C 158.76 10.63 158.10 10.47 157.78 10.39 Z" />
</g>
<g id="#4079cdff">
<path fill="#4079cd" opacity="1.00" d=" M 103.06 10.97 C 107.06 10.31 111.09 9.79 115.15 10.15 C 112.88 12.49 109.82 13.60 106.58 13.33 C 107.04 12.01 105.75 10.43 104.35 10.88 L 103.06 10.97 Z" />
</g>
<g id="#4b81c6ff">
<path fill="#4b81c6" opacity="1.00" d=" M 214.96 10.84 C 217.94 10.21 220.97 9.68 224.00 9.26 L 224.00 13.80 C 221.19 13.54 218.38 13.29 215.60 12.84 C 215.44 12.34 215.12 11.34 214.96 10.84 Z" />
</g>
<g id="#98864eff">
<path fill="#98864e" opacity="1.00" d=" M 14.47 10.76 C 14.71 10.54 15.20 10.10 15.45 9.87 L 15.88 10.76 C 16.51 12.47 17.07 14.21 17.56 15.96 C 16.65 15.88 14.84 15.71 13.93 15.62 C 14.03 14.57 14.14 13.53 14.25 12.48 C 14.31 12.05 14.42 11.19 14.47 10.76 Z" />
<path fill="#98864e" opacity="1.00" d=" M 70.61 10.83 C 70.80 10.58 71.19 10.08 71.38 9.83 L 71.69 10.75 C 72.22 12.62 72.66 14.51 73.20 16.38 C 72.42 16.02 70.88 15.30 70.11 14.94 C 70.19 14.13 70.28 13.32 70.38 12.51 C 70.44 12.09 70.55 11.25 70.61 10.83 Z" />
<path fill="#98864e" opacity="1.00" d=" M 182.43 10.88 C 182.63 10.62 183.04 10.10 183.24 9.84 L 183.58 10.82 C 184.14 12.67 184.62 14.54 185.19 16.39 C 184.44 16.03 182.95 15.30 182.20 14.93 C 182.24 14.15 182.28 13.36 182.32 12.57 C 182.35 12.15 182.40 11.30 182.43 10.88 Z" />
</g>
<g id="#a0b4c8ff">
<path fill="#a0b4c8" opacity="1.00" d=" M 156.92 10.44 C 157.20 10.42 157.49 10.41 157.78 10.39 C 158.10 10.47 158.76 10.63 159.09 10.71 C 159.06 11.09 158.99 11.86 158.96 12.25 C 158.94 12.85 158.88 14.06 158.85 14.66 C 158.08 14.51 156.55 14.23 155.78 14.08 C 155.50 14.02 154.94 13.90 154.66 13.84 C 154.28 13.63 153.51 13.19 153.13 12.97 C 153.92 12.45 154.71 11.91 155.50 11.37 C 155.86 11.14 156.56 10.67 156.92 10.44 Z" />
</g>
<g id="#3b3734ff">
<path fill="#3b3734" opacity="1.00" d=" M 10.18 14.26 C 11.60 13.07 13.07 11.96 14.47 10.76 C 14.42 11.19 14.31 12.05 14.25 12.48 C 12.90 16.61 14.10 20.68 17.32 23.42 L 17.85 23.93 L 18.50 24.52 C 16.66 24.45 14.82 24.37 12.99 24.14 L 12.86 23.56 C 12.78 22.05 12.10 20.91 10.81 20.17 C 11.66 19.12 11.92 17.78 12.05 16.48 C 11.16 16.91 10.28 17.38 9.43 17.90 L 8.66 17.96 C 9.16 16.73 9.66 15.49 10.18 14.26 Z" />
</g>
<g id="#38332eff">
<path fill="#38332e" opacity="1.00" d=" M 15.88 10.76 C 17.35 13.01 19.02 15.10 20.72 17.17 C 21.17 17.74 21.62 18.30 22.07 18.87 C 21.83 19.45 21.34 20.63 21.09 21.22 C 19.73 21.13 18.28 21.53 17.39 22.63 C 17.63 20.42 17.79 18.18 17.56 15.96 C 17.07 14.21 16.51 12.47 15.88 10.76 Z" />
</g>
<g id="#3c3733ff">
<path fill="#3c3733" opacity="1.00" d=" M 62.14 18.43 C 65.08 16.04 67.99 13.59 70.61 10.83 C 70.55 11.25 70.44 12.09 70.38 12.51 C 70.13 14.95 69.88 17.39 69.71 19.85 C 69.65 21.03 69.59 22.21 69.53 23.39 L 69.01 23.20 L 68.49 22.96 C 68.32 21.32 67.76 19.03 65.73 18.97 C 64.53 18.79 63.34 18.61 62.14 18.43 Z" />
</g>
<g id="#3a342fff">
<path fill="#3a342f" opacity="1.00" d=" M 71.69 10.75 C 73.22 12.89 74.89 14.92 76.53 16.97 C 77.06 17.31 78.13 17.99 78.66 18.32 C 78.25 18.79 77.45 19.73 77.05 20.19 C 76.60 20.27 75.70 20.42 75.25 20.50 C 75.10 20.09 74.80 19.26 74.65 18.85 C 74.46 18.48 74.08 17.75 73.90 17.39 C 73.72 17.14 73.37 16.63 73.20 16.38 C 72.66 14.51 72.22 12.62 71.69 10.75 Z" />
<path fill="#3a342f" opacity="1.00" d=" M 183.58 10.82 C 185.20 12.89 186.96 14.85 188.90 16.63 C 189.00 17.66 189.39 18.62 189.89 19.51 C 189.30 19.81 188.10 20.41 187.50 20.71 C 187.30 20.23 186.90 19.28 186.70 18.80 C 186.50 18.44 186.10 17.73 185.90 17.37 C 185.72 17.12 185.36 16.64 185.19 16.39 C 184.62 14.54 184.14 12.67 183.58 10.82 Z" />
</g>
<g id="#9db4cfff">
<path fill="#9db4cf" opacity="1.00" d=" M 101.16 11.14 L 102.06 11.07 L 103.06 10.97 L 104.35 10.88 C 104.26 11.26 104.08 12.04 104.00 12.43 C 103.90 12.79 103.72 13.50 103.62 13.85 C 102.04 14.31 100.44 14.71 98.86 15.16 L 98.09 15.39 C 99.08 13.95 100.12 12.55 101.16 11.14 Z" />
</g>
<g id="#5a7d95ff">
<path fill="#5a7d95" opacity="1.00" d=" M 104.35 10.88 C 105.75 10.43 107.04 12.01 106.58 13.33 C 105.93 13.11 104.64 12.66 104.00 12.43 C 104.08 12.04 104.26 11.26 104.35 10.88 Z" />
<path fill="#5a7d95" opacity="1.00" d=" M 48.73 12.05 C 49.17 12.03 50.06 12.00 50.50 11.98 C 50.61 12.52 50.82 13.61 50.92 14.15 C 50.24 14.06 48.89 13.88 48.21 13.79 C 48.34 13.35 48.60 12.48 48.73 12.05 Z" />
</g>
<g id="#393635ff">
<path fill="#393635" opacity="1.00" d=" M 120.87 15.68 C 123.03 14.16 125.24 12.72 127.42 11.25 C 127.10 11.54 126.45 12.11 126.12 12.40 C 124.99 13.15 124.41 14.72 125.12 15.96 L 125.46 16.91 C 124.25 17.83 123.04 18.75 121.83 19.65 C 120.76 19.01 119.69 18.37 118.62 17.73 C 119.36 17.04 120.12 16.35 120.87 15.68 M 122.40 16.15 C 121.97 17.55 122.45 18.03 123.85 17.60 C 124.29 16.20 123.80 15.71 122.40 16.15 Z" />
</g>
<g id="#8598a8fe">
<path fill="#8598a8" opacity="1.00" d=" M 159.09 10.71 C 160.65 11.02 161.99 11.91 163.38 12.66 C 162.06 13.71 159.92 13.87 158.96 12.25 C 158.99 11.86 159.06 11.09 159.09 10.71 Z" />
</g>
<g id="#352f2bfe">
<path fill="#352f2b" opacity="1.00" d=" M 174.46 18.31 C 177.33 16.09 180.02 13.60 182.43 10.88 C 182.40 11.30 182.35 12.15 182.32 12.57 C 182.31 15.17 182.27 17.79 182.87 20.34 C 182.14 21.29 181.74 22.36 181.66 23.55 L 180.99 23.24 C 180.57 21.44 180.22 19.63 179.95 17.81 C 180.22 15.23 176.78 16.70 178.47 18.45 L 177.81 18.64 C 176.71 18.16 175.59 18.05 174.46 18.31 Z" />
</g>
<g id="#a1b9d7ff">
<path fill="#a1b9d7" opacity="1.00" d=" M 214.22 11.11 L 214.96 10.84 C 215.12 11.34 215.44 12.34 215.60 12.84 C 215.23 13.30 214.49 14.24 214.12 14.70 C 213.32 14.51 211.72 14.14 210.92 13.95 C 211.13 13.69 211.55 13.18 211.77 12.93 C 212.54 12.27 213.37 11.68 214.22 11.11 Z" />
</g>
<g id="#322e2aff">
<path fill="#322e2a" opacity="1.00" d=" M 33.70 11.93 C 35.88 12.74 38.04 13.58 40.24 14.33 L 39.06 14.47 C 37.84 15.78 36.72 17.17 35.63 18.58 C 35.45 18.91 35.08 19.57 34.90 19.90 C 34.22 19.14 33.57 18.36 32.93 17.57 C 33.26 15.70 33.48 13.81 33.70 11.93 Z" />
</g>
<g id="#98b0ccff">
<path fill="#98b0cc" opacity="1.00" d=" M 43.71 14.96 C 44.92 13.92 46.24 13.01 47.61 12.18 L 48.73 12.05 C 48.60 12.48 48.34 13.35 48.21 13.79 C 46.71 14.18 45.21 14.58 43.71 14.96 Z" />
</g>
<g id="#268ed9ff">
<path fill="#268ed9" opacity="1.00" d=" M 50.50 11.98 C 51.77 12.13 53.54 11.94 54.25 13.25 C 53.75 14.54 51.99 14.08 50.92 14.15 C 50.82 13.61 50.61 12.52 50.50 11.98 Z" />
<path fill="#268ed9" opacity="1.00" d=" M 139.14 19.11 C 140.44 19.78 140.43 20.46 139.11 21.14 C 137.81 20.47 137.82 19.80 139.14 19.11 Z" />
<path fill="#268ed9" opacity="1.00" d=" M 208.83 37.81 C 209.36 36.42 209.92 35.02 210.49 33.64 L 211.66 34.07 C 212.74 34.48 214.89 35.31 215.96 35.72 C 216.25 35.45 216.82 34.91 217.11 34.64 L 217.80 33.91 C 215.77 36.78 212.26 37.73 208.83 37.81 Z" />
<path fill="#268ed9" opacity="1.00" d=" M 142.09 56.00 C 140.58 53.39 145.42 53.39 143.91 56.00 L 142.09 56.00 Z" />
</g>
<g id="#342f2bff">
<path fill="#342f2b" opacity="1.00" d=" M 88.73 13.52 C 91.26 12.50 93.87 13.43 95.97 14.96 L 95.23 14.71 C 93.27 13.93 92.29 16.45 91.69 17.85 C 91.54 18.07 91.24 18.50 91.09 18.72 C 90.23 18.06 89.41 17.35 88.59 16.65 C 88.81 15.61 88.86 14.57 88.73 13.52 Z" />
</g>
<g id="#423f3bff">
<path fill="#423f3b" opacity="1.00" d=" M 145.27 11.80 C 147.57 12.77 149.89 13.70 152.20 14.67 C 151.96 15.31 151.47 16.60 151.22 17.24 C 150.98 17.46 150.50 17.90 150.26 18.12 L 149.41 18.22 C 151.10 16.33 147.61 15.42 147.89 17.83 C 146.76 17.08 145.67 16.28 144.65 15.40 C 144.80 14.50 145.12 12.70 145.27 11.80 Z" />
</g>
<g id="#373331ff">
<path fill="#373331" opacity="1.00" d=" M 201.64 11.90 C 204.01 12.80 206.37 13.74 208.74 14.65 C 208.42 14.86 207.77 15.27 207.45 15.48 C 206.23 16.20 205.00 16.88 203.81 17.65 C 203.57 17.98 203.08 18.64 202.84 18.97 C 202.25 18.26 201.67 17.55 201.10 16.83 C 201.33 15.19 201.47 13.54 201.64 11.90 Z" />
</g>
<g id="#6f624cff">
<path fill="#6f624c" opacity="1.00" d=" M 17.32 23.42 C 14.10 20.68 12.90 16.61 14.25 12.48 C 14.14 13.53 14.03 14.57 13.93 15.62 C 14.84 15.71 16.65 15.88 17.56 15.96 C 17.79 18.18 17.63 20.42 17.39 22.63 L 17.32 23.42 Z" />
</g>
<g id="#565249ff">
<path fill="#565249" opacity="1.00" d=" M 27.17 13.17 C 28.80 12.65 29.35 13.20 28.83 14.83 C 27.20 15.35 26.65 14.80 27.17 13.17 Z" />
<path fill="#565249" opacity="1.00" d=" M 83.17 13.17 C 84.80 12.65 85.35 13.20 84.83 14.83 C 83.20 15.35 82.65 14.80 83.17 13.17 Z" />
<path fill="#565249" opacity="1.00" d=" M 195.17 13.17 C 196.79 12.65 197.35 13.20 196.83 14.83 C 195.20 15.35 194.65 14.80 195.17 13.17 Z" />
<path fill="#565249" opacity="1.00" d=" M 24.17 15.17 C 25.80 14.65 26.35 15.20 25.83 16.83 C 24.20 17.35 23.65 16.80 24.17 15.17 Z" />
<path fill="#565249" opacity="1.00" d=" M 80.17 15.17 C 81.80 14.65 82.35 15.20 81.83 16.83 C 80.20 17.35 79.65 16.80 80.17 15.17 Z" />
<path fill="#565249" opacity="1.00" d=" M 192.17 15.17 C 193.79 14.65 194.35 15.20 193.83 16.83 C 192.20 17.35 191.65 16.80 192.17 15.17 Z" />
<path fill="#565249" opacity="1.00" d=" M 9.43 17.90 C 10.28 17.38 11.16 16.91 12.05 16.48 C 11.92 17.78 11.66 19.12 10.81 20.17 L 10.10 20.25 C 9.91 19.88 9.53 19.14 9.34 18.77 L 9.43 17.90 Z" />
<path fill="#565249" opacity="1.00" d=" M 76.53 16.97 L 77.07 16.43 C 77.59 16.77 78.61 17.44 79.12 17.78 L 78.66 18.32 C 78.13 17.99 77.06 17.31 76.53 16.97 Z" />
<path fill="#565249" opacity="1.00" d=" M 178.47 18.45 C 176.78 16.70 180.22 15.23 179.95 17.81 C 179.58 17.97 178.84 18.29 178.47 18.45 Z" />
<path fill="#565249" opacity="1.00" d=" M 28.14 29.11 C 29.44 29.78 29.43 30.46 28.11 31.14 C 26.81 30.47 26.82 29.80 28.14 29.11 Z" />
<path fill="#565249" opacity="1.00" d=" M 84.14 29.11 C 85.44 29.78 85.43 30.46 84.11 31.14 C 82.81 30.47 82.82 29.80 84.14 29.11 Z" />
<path fill="#565249" opacity="1.00" d=" M 140.14 29.11 C 141.44 29.78 141.43 30.46 140.11 31.14 C 138.81 30.47 138.82 29.80 140.14 29.11 Z" />
<path fill="#565249" opacity="1.00" d=" M 196.14 29.11 C 197.44 29.78 197.43 30.46 196.11 31.14 C 194.81 30.47 194.82 29.80 196.14 29.11 Z" />
<path fill="#565249" opacity="1.00" d=" M 211.43 33.41 C 210.47 32.16 210.63 29.83 212.72 30.41 C 212.97 30.60 213.46 30.99 213.71 31.18 C 213.14 31.74 212.00 32.85 211.43 33.41 Z" />
<path fill="#565249" opacity="1.00" d=" M 38.36 43.35 C 40.06 42.39 41.02 44.97 40.88 46.30 L 40.29 46.48 C 39.22 45.94 37.49 44.74 38.36 43.35 Z" />
<path fill="#565249" opacity="1.00" d=" M 206.26 43.23 C 207.91 42.20 209.01 44.65 208.79 46.00 L 208.17 46.14 C 207.08 45.74 205.29 44.57 206.26 43.23 Z" />
</g>
<g id="#695c4aff">
<path fill="#695c4a" opacity="1.00" d=" M 69.71 19.85 C 69.88 17.39 70.13 14.95 70.38 12.51 C 70.28 13.32 70.19 14.13 70.11 14.94 C 70.88 15.30 72.42 16.02 73.20 16.38 C 73.37 16.63 73.72 17.14 73.90 17.39 C 71.45 17.51 73.22 20.93 74.65 18.85 C 74.80 19.26 75.10 20.09 75.25 20.50 C 73.39 20.38 71.55 20.11 69.71 19.85 Z" />
</g>
<g id="#73726eff">
<path fill="#73726e" opacity="1.00" d=" M 125.12 15.96 C 124.41 14.72 124.99 13.15 126.12 12.40 C 126.61 13.64 126.50 14.82 125.81 15.95 L 125.12 15.96 Z" />
</g>
<g id="#6b6e6dff">
<path fill="#6b6e6d" opacity="1.00" d=" M 139.17 13.17 C 140.80 12.65 141.35 13.20 140.83 14.83 C 139.20 15.35 138.65 14.80 139.17 13.17 Z" />
</g>
<g id="#6b5f50ff">
<path fill="#6b5f50" opacity="1.00" d=" M 182.87 20.34 C 182.27 17.79 182.31 15.17 182.32 12.57 C 182.28 13.36 182.24 14.15 182.20 14.93 C 182.95 15.30 184.44 16.03 185.19 16.39 C 185.36 16.64 185.72 17.12 185.90 17.37 C 183.45 17.57 185.33 20.93 186.70 18.80 C 186.90 19.28 187.30 20.23 187.50 20.71 C 186.70 21.10 185.89 21.47 185.08 21.82 L 184.04 22.21 C 183.75 21.74 183.16 20.80 182.87 20.34 Z" />
</g>
<g id="#8aa2b5ff">
<path fill="#8aa2b5" opacity="1.00" d=" M 214.12 14.70 C 214.49 14.24 215.23 13.30 215.60 12.84 C 215.63 13.38 215.70 14.46 215.73 15.00 C 215.33 14.93 214.53 14.78 214.12 14.70 Z" />
<path fill="#8aa2b5" opacity="1.00" d=" M 195.35 18.92 C 194.16 17.73 196.07 16.05 197.19 17.19 C 196.73 17.63 195.81 18.49 195.35 18.92 Z" />
</g>
<g id="#3c6dbfff">
<path fill="#3c6dbf" opacity="1.00" d=" M 215.60 12.84 C 218.38 13.29 221.19 13.54 224.00 13.80 L 224.00 27.63 C 221.12 27.34 218.16 27.49 215.40 26.56 C 213.18 25.84 213.69 22.94 213.30 21.10 C 214.13 19.08 214.96 17.05 215.73 15.00 C 215.70 14.46 215.63 13.38 215.60 12.84 Z" />
</g>
<g id="#adc2d9ff">
<path fill="#adc2d9" opacity="1.00" d=" M 88.73 13.52 C 88.86 14.57 88.81 15.61 88.59 16.65 C 88.17 16.87 87.32 17.30 86.90 17.52 C 86.22 16.31 87.06 14.91 87.62 13.82 C 87.90 13.74 88.45 13.59 88.73 13.52 Z" />
<path fill="#adc2d9" opacity="1.00" d=" M 143.16 16.32 C 141.44 16.09 142.22 13.76 143.74 14.31 L 144.24 14.95 C 143.97 15.29 143.43 15.97 143.16 16.32 Z" />
<path fill="#adc2d9" opacity="1.00" d=" M 199.34 17.35 C 197.65 17.02 198.58 14.72 200.05 15.36 L 200.50 16.06 C 200.21 16.38 199.63 17.02 199.34 17.35 Z" />
<path fill="#adc2d9" opacity="1.00" d=" M 31.27 18.39 C 30.00 17.76 30.27 15.54 31.93 16.02 L 32.32 16.76 C 32.05 17.16 31.53 17.98 31.27 18.39 Z" />
<path fill="#adc2d9" opacity="1.00" d=" M 147.89 17.83 C 147.61 15.42 151.10 16.33 149.41 18.22 C 149.03 18.12 148.27 17.93 147.89 17.83 Z" />
<path fill="#adc2d9" opacity="1.00" d=" M 202.84 18.97 C 203.08 18.64 203.57 17.98 203.81 17.65 C 205.17 17.47 206.19 19.04 205.23 20.12 C 204.63 19.83 203.44 19.26 202.84 18.97 Z" />
<path fill="#adc2d9" opacity="1.00" d=" M 34.90 19.90 C 35.08 19.57 35.45 18.91 35.63 18.58 C 36.25 18.83 37.48 19.34 38.10 19.59 C 37.87 19.95 37.43 20.69 37.21 21.06 C 36.63 20.77 35.47 20.19 34.90 19.90 Z" />
<path fill="#adc2d9" opacity="1.00" d=" M 67.50 40.34 C 66.02 38.58 68.18 35.76 69.89 37.89 C 69.53 39.10 68.73 39.91 67.50 40.34 Z" />
<path fill="#adc2d9" opacity="1.00" d=" M 71.18 40.59 C 72.01 39.68 72.82 38.74 73.61 37.79 C 74.21 38.40 74.81 39.01 75.42 39.63 L 75.99 40.22 C 74.39 40.33 72.78 40.42 71.18 40.59 Z" />
<path fill="#adc2d9" opacity="1.00" d=" M 17.69 39.88 L 18.34 39.95 C 18.51 40.33 18.83 41.08 19.00 41.45 L 18.32 42.11 L 17.46 42.08 L 17.14 41.44 C 17.28 41.05 17.55 40.27 17.69 39.88 Z" />
<path fill="#adc2d9" opacity="1.00" d=" M 79.16 40.53 C 79.60 40.95 80.48 41.78 80.92 42.20 C 80.83 42.55 80.66 43.25 80.58 43.59 C 80.06 43.39 79.03 42.98 78.52 42.77 C 78.66 42.00 78.87 41.26 79.16 40.53 Z" />
<path fill="#adc2d9" opacity="1.00" d=" M 81.74 41.08 C 82.17 39.48 84.76 39.07 84.72 41.16 L 84.12 41.66 C 83.53 41.52 82.33 41.23 81.74 41.08 Z" />
<path fill="#adc2d9" opacity="1.00" d=" M 145.18 39.69 C 146.38 40.20 148.84 41.13 147.83 42.82 C 146.27 43.72 145.30 41.54 145.05 40.36 L 145.18 39.69 Z" />
<path fill="#adc2d9" opacity="1.00" d=" M 174.03 40.32 C 174.77 40.39 176.26 40.53 177.00 40.60 C 176.28 41.79 174.42 41.78 174.03 40.32 Z" />
<path fill="#adc2d9" opacity="1.00" d=" M 188.16 41.53 C 189.15 41.34 190.11 41.06 191.05 40.68 C 191.71 41.33 192.37 41.98 193.04 42.62 C 192.78 43.13 192.27 44.14 192.01 44.65 C 190.76 43.56 189.47 42.53 188.16 41.53 Z" />
<path fill="#adc2d9" opacity="1.00" d=" M 197.67 43.35 C 196.93 42.47 196.62 41.43 196.74 40.23 C 197.24 40.47 198.24 40.95 198.74 41.19 C 198.63 41.62 198.42 42.49 198.31 42.92 L 197.67 43.35 Z" />
<path fill="#adc2d9" opacity="1.00" d=" M 203.14 42.26 C 205.14 41.95 205.89 44.76 203.86 45.31 C 203.44 44.34 203.19 43.32 203.14 42.26 Z" />
</g>
<g id="#2e89d4ff">
<path fill="#2e89d4" opacity="1.00" d=" M 98.86 15.16 C 100.44 14.71 102.04 14.31 103.62 13.85 C 103.06 15.98 102.44 18.08 101.66 20.13 C 100.85 20.99 100.02 21.82 99.16 22.63 C 98.08 23.37 96.96 24.05 95.85 24.74 C 95.96 22.95 96.03 21.16 96.08 19.37 C 97.18 18.91 98.28 18.45 99.38 17.99 C 101.65 17.69 100.78 15.13 98.86 15.16 Z" />
</g>
<g id="#268cd8ff">
<path fill="#268cd8" opacity="1.00" d=" M 155.78 14.08 C 156.55 14.23 158.08 14.51 158.85 14.66 C 159.01 17.24 157.84 19.57 156.45 21.66 C 156.24 22.01 155.83 22.71 155.62 23.06 C 153.65 23.37 151.67 23.69 149.69 23.99 C 151.70 21.07 154.04 18.07 157.74 17.40 C 157.10 16.28 156.45 15.17 155.78 14.08 Z" />
</g>
<g id="#2f88d4ff">
<path fill="#2f88d4" opacity="1.00" d=" M 210.92 13.95 C 211.72 14.14 213.32 14.51 214.12 14.70 C 214.53 14.78 215.33 14.93 215.73 15.00 C 214.96 17.05 214.13 19.08 213.30 21.10 C 212.65 21.71 211.97 22.29 211.28 22.84 C 209.95 23.51 208.56 24.06 207.19 24.62 C 207.73 23.04 208.27 21.47 208.88 19.92 C 209.22 19.56 209.89 18.83 210.22 18.47 L 210.62 18.21 C 212.92 17.68 212.93 14.60 210.37 14.59 L 210.92 13.95 Z" />
</g>
<g id="#a09870ff">
<path fill="#a09870" opacity="1.00" d=" M 39.06 14.47 L 40.24 14.33 C 40.75 14.48 41.76 14.78 42.27 14.94 C 41.26 16.39 40.25 17.84 39.23 19.29 C 39.17 17.68 39.11 16.08 39.06 14.47 Z" />
</g>
<g id="#5c554aff">
<path fill="#5c554a" opacity="1.00" d=" M 91.69 17.85 C 92.29 16.45 93.27 13.93 95.23 14.71 C 94.95 16.50 93.16 17.23 91.69 17.85 Z" />
</g>
<g id="#a8baceff">
<path fill="#a8bace" opacity="1.00" d=" M 95.23 14.71 L 95.97 14.96 C 96.39 15.24 97.22 15.79 97.64 16.06 L 97.98 16.89 C 96.23 17.74 94.55 18.71 92.89 19.71 C 92.44 19.46 91.54 18.97 91.09 18.72 C 91.24 18.50 91.54 18.07 91.69 17.85 C 93.16 17.23 94.95 16.50 95.23 14.71 Z" />
</g>
<g id="#38342fff">
<path fill="#38342f" opacity="1.00" d=" M 98.09 15.39 L 98.86 15.16 C 100.78 15.13 101.65 17.69 99.38 17.99 C 99.03 17.72 98.33 17.16 97.98 16.89 L 97.64 16.06 L 98.09 15.39 Z" />
<path fill="#38342f" opacity="1.00" d=" M 209.92 15.11 L 210.37 14.59 C 212.93 14.60 212.92 17.68 210.62 18.21 C 210.29 17.20 210.06 16.16 209.92 15.11 Z" />
</g>
<g id="#4379cbff">
<path fill="#4379cb" opacity="1.00" d=" M 104.44 19.77 C 107.95 17.31 112.23 14.97 116.51 17.12 L 115.63 17.38 C 111.95 18.43 108.19 19.09 104.44 19.77 Z" />
</g>
<g id="#4c4740fe">
<path fill="#4c4740" opacity="1.00" d=" M 135.34 16.96 C 136.11 16.11 137.30 15.60 138.44 15.97 C 138.08 17.28 137.50 18.52 136.77 19.67 L 136.24 19.40 C 136.01 18.79 135.56 17.57 135.34 16.96 Z" />
</g>
<g id="#7590a4ff">
<path fill="#7590a4" opacity="1.00" d=" M 144.24 14.95 L 144.65 15.40 C 145.67 16.28 146.76 17.08 147.89 17.83 C 148.27 17.93 149.03 18.12 149.41 18.22 L 150.26 18.12 C 149.73 19.42 149.24 20.74 148.81 22.08 C 147.09 19.91 144.91 18.19 142.58 16.73 L 143.16 16.32 C 143.43 15.97 143.97 15.29 144.24 14.95 Z" />
</g>
<g id="#4379caff">
<path fill="#4379ca" opacity="1.00" d=" M 160.43 18.63 C 161.87 17.57 163.12 16.12 164.86 15.55 C 167.86 15.53 170.42 17.43 173.14 18.46 C 172.54 18.53 171.34 18.65 170.75 18.72 C 167.31 18.87 163.87 18.70 160.43 18.63 Z" />
<path fill="#4379ca" opacity="1.00" d=" M 155.62 23.06 C 155.83 22.71 156.24 22.01 156.45 21.66 C 159.71 29.06 168.68 25.98 175.00 25.96 C 171.17 30.28 163.86 27.22 161.27 33.22 C 160.16 29.45 157.79 26.28 155.62 23.06 Z" />
<path fill="#4379ca" opacity="1.00" d=" M 43.79 24.32 C 45.77 26.01 47.69 28.06 50.35 28.60 C 54.73 28.49 58.62 26.47 62.69 25.15 C 60.18 29.79 54.57 30.35 50.26 32.42 C 48.00 30.48 45.71 28.59 43.39 26.72 C 43.53 25.92 43.66 25.12 43.79 24.32 Z" />
</g>
<g id="#5a554cff">
<path fill="#5a554c" opacity="1.00" d=" M 203.81 17.65 C 205.00 16.88 206.23 16.20 207.45 15.48 L 207.43 16.30 C 207.39 17.54 207.41 18.78 207.47 20.03 L 206.47 20.08 L 205.23 20.12 C 206.19 19.04 205.17 17.47 203.81 17.65 Z" />
</g>
<g id="#8c7c4dfe">
<path fill="#8c7c4d" opacity="1.00" d=" M 208.74 14.65 C 209.04 14.77 209.63 14.99 209.92 15.11 C 210.06 16.16 210.29 17.20 210.62 18.21 L 210.22 18.47 C 209.20 17.85 208.27 17.13 207.43 16.30 L 207.45 15.48 C 207.77 15.27 208.42 14.86 208.74 14.65 Z" />
</g>
<g id="#514d45ff">
<path fill="#514d45" opacity="1.00" d=" M 20.72 17.17 L 21.33 16.43 C 22.43 17.34 23.53 18.25 24.67 19.12 L 25.44 19.72 C 24.32 19.42 23.20 19.13 22.07 18.87 C 21.62 18.30 21.17 17.74 20.72 17.17 Z" />
</g>
<g id="#437acbff">
<path fill="#437acb" opacity="1.00" d=" M 47.59 20.44 C 51.72 18.10 56.52 16.31 61.19 18.26 C 60.57 18.38 59.34 18.61 58.73 18.73 C 54.78 19.50 50.79 20.09 46.84 20.83 L 47.59 20.44 Z" />
<path fill="#437acb" opacity="1.00" d=" M 113.46 37.32 C 115.30 36.96 117.16 36.62 119.03 36.40 C 120.41 37.25 121.73 38.20 122.95 39.27 C 119.53 40.75 116.05 39.94 113.46 37.32 Z" />
</g>
<g id="#9fb6cbff">
<path fill="#9fb6cb" opacity="1.00" d=" M 83.17 18.63 C 81.05 16.92 84.22 15.53 85.46 17.20 C 84.89 17.56 83.74 18.27 83.17 18.63 Z" />
</g>
<g id="#7490a4ff">
<path fill="#7490a4" opacity="1.00" d=" M 86.90 17.52 C 87.32 17.30 88.17 16.87 88.59 16.65 C 89.41 17.35 90.23 18.06 91.09 18.72 C 91.54 18.97 92.44 19.46 92.89 19.71 L 94.06 20.21 C 93.64 21.23 93.26 22.28 92.91 23.33 C 91.02 21.60 89.13 19.86 87.22 18.15 L 86.90 17.52 Z" />
<path fill="#7490a4" opacity="1.00" d=" M 200.50 16.06 L 201.10 16.83 C 201.67 17.55 202.25 18.26 202.84 18.97 C 203.44 19.26 204.63 19.83 205.23 20.12 L 206.47 20.08 C 205.85 21.09 205.23 22.09 204.61 23.09 C 202.66 21.27 200.70 19.45 198.55 17.86 L 199.34 17.35 C 199.63 17.02 200.21 16.38 200.50 16.06 Z" />
</g>
<g id="#278bd7ff">
<path fill="#278bd7" opacity="1.00" d=" M 116.51 17.12 C 117.97 16.67 119.43 16.20 120.87 15.68 C 120.12 16.35 119.36 17.04 118.62 17.73 C 118.77 18.53 119.06 20.12 119.21 20.92 C 121.08 21.43 122.96 21.95 124.85 22.42 C 125.96 22.68 127.08 22.92 128.21 23.12 C 123.88 25.03 119.59 22.34 115.61 20.82 C 115.61 19.68 115.62 18.53 115.63 17.38 L 116.51 17.12 Z" />
<path fill="#278bd7" opacity="1.00" d=" M 173.14 18.46 C 173.47 18.43 174.13 18.35 174.46 18.31 C 174.50 18.69 174.59 19.44 174.63 19.81 C 174.75 20.09 174.97 20.65 175.09 20.92 C 177.00 21.81 179.02 22.47 180.99 23.24 L 181.66 23.55 C 181.94 23.67 182.50 23.91 182.77 24.04 C 184.23 25.03 185.81 23.90 186.56 22.59 C 187.02 22.85 187.93 23.36 188.39 23.61 C 182.62 28.91 173.60 25.36 170.75 18.72 C 171.34 18.65 172.54 18.53 173.14 18.46 Z" />
</g>
<g id="#909ca9ff">
<path fill="#909ca9" opacity="1.00" d=" M 122.40 16.15 C 123.80 15.71 124.29 16.20 123.85 17.60 C 122.45 18.03 121.97 17.55 122.40 16.15 Z" />
</g>
<g id="#75644dff">
<path fill="#75644d" opacity="1.00" d=" M 125.12 15.96 L 125.81 15.95 C 126.57 15.94 128.08 15.92 128.84 15.91 C 128.98 17.20 129.06 18.51 129.11 19.81 C 128.72 19.91 127.95 20.12 127.56 20.23 C 127.20 19.83 126.48 19.04 126.12 18.65 C 125.95 18.21 125.62 17.34 125.46 16.91 L 125.12 15.96 Z" />
</g>
<g id="#5d5f5bff">
<path fill="#5d5f5b" opacity="1.00" d=" M 188.90 16.63 L 189.41 16.19 C 189.90 16.62 190.86 17.48 191.34 17.91 C 190.98 18.31 190.26 19.11 189.89 19.51 C 189.39 18.62 189.00 17.66 188.90 16.63 Z" />
</g>
<g id="#7090a7ff">
<path fill="#7090a7" opacity="1.00" d=" M 32.32 16.76 L 32.93 17.57 C 33.57 18.36 34.22 19.14 34.90 19.90 C 35.47 20.19 36.63 20.77 37.21 21.06 C 38.38 21.48 39.32 21.17 40.02 20.15 L 41.30 20.57 L 41.99 20.80 C 41.66 20.96 41.00 21.27 40.67 21.42 C 39.04 22.14 37.38 22.81 35.73 23.47 C 34.37 21.95 33.03 20.42 31.69 18.88 L 31.27 18.39 C 31.53 17.98 32.05 17.16 32.32 16.76 Z" />
</g>
<g id="#9ab3d4ff">
<path fill="#9ab3d4" opacity="1.00" d=" M 41.30 20.57 C 41.08 18.82 42.41 17.47 43.70 16.52 C 43.78 17.90 43.66 19.37 42.73 20.48 L 41.99 20.80 L 41.30 20.57 Z" />
</g>
<g id="#636867ff">
<path fill="#636867" opacity="1.00" d=" M 92.89 19.71 C 94.55 18.71 96.23 17.74 97.98 16.89 C 98.33 17.16 99.03 17.72 99.38 17.99 C 98.28 18.45 97.18 18.91 96.08 19.37 C 95.57 19.58 94.56 20.00 94.06 20.21 L 92.89 19.71 Z" />
</g>
<g id="#84909eff">
<path fill="#84909e" opacity="1.00" d=" M 125.46 16.91 C 125.62 17.34 125.95 18.21 126.12 18.65 C 125.86 19.41 125.33 20.92 125.07 21.67 C 124.00 20.98 122.91 20.32 121.83 19.65 C 123.04 18.75 124.25 17.83 125.46 16.91 Z" />
<path fill="#84909e" opacity="1.00" d=" M 65.73 18.97 C 67.76 19.03 68.32 21.32 68.49 22.96 C 66.81 22.43 65.28 20.85 65.73 18.97 Z" />
<path fill="#84909e" opacity="1.00" d=" M 10.10 20.25 L 10.81 20.17 C 12.10 20.91 12.78 22.05 12.86 23.56 C 11.21 23.53 9.28 22.07 10.10 20.25 Z" />
</g>
<g id="#7696abff">
<path fill="#7696ab" opacity="1.00" d=" M 133.37 18.55 C 134.05 18.05 134.69 17.50 135.34 16.96 C 135.56 17.57 136.01 18.79 136.24 19.40 C 134.68 19.53 133.43 20.68 132.97 22.13 C 131.99 22.30 131.02 22.47 130.06 22.65 L 129.09 21.74 C 130.55 20.72 131.96 19.64 133.37 18.55 Z" />
</g>
<g id="#278dd8ff">
<path fill="#278dd8" opacity="1.00" d=" M 141.20 16.48 C 141.55 16.54 142.24 16.67 142.58 16.73 C 144.91 18.19 147.09 19.91 148.81 22.08 L 148.65 22.99 C 148.11 23.01 147.05 23.04 146.52 23.05 C 144.65 20.94 142.92 18.71 141.20 16.48 Z" />
<path fill="#278dd8" opacity="1.00" d=" M 83.17 18.63 C 83.74 18.27 84.89 17.56 85.46 17.20 C 85.90 17.44 86.78 17.91 87.22 18.15 C 89.13 19.86 91.02 21.60 92.91 23.33 C 92.39 23.11 91.35 22.66 90.83 22.44 C 88.09 21.16 85.33 19.91 82.40 19.11 L 83.17 18.63 Z" />
<path fill="#278dd8" opacity="1.00" d=" M 195.35 18.92 C 195.81 18.49 196.73 17.63 197.19 17.19 C 197.53 17.36 198.21 17.69 198.55 17.86 C 200.70 19.45 202.66 21.27 204.61 23.09 C 204.17 22.91 203.29 22.54 202.85 22.36 C 199.96 20.92 196.91 19.75 193.65 19.59 C 194.08 19.43 194.93 19.09 195.35 18.92 Z" />
</g>
<g id="#7392a6ff">
<path fill="#7392a6" opacity="1.00" d=" M 207.43 16.30 C 208.27 17.13 209.20 17.85 210.22 18.47 C 209.89 18.83 209.22 19.56 208.88 19.92 C 208.53 19.94 207.83 20.00 207.47 20.03 C 207.41 18.78 207.39 17.54 207.43 16.30 Z" />
</g>
<g id="#278cd7ff">
<path fill="#278cd7" opacity="1.00" d=" M 6.11 18.01 C 6.75 18.00 8.02 17.98 8.66 17.96 L 9.43 17.90 L 9.34 18.77 C 8.72 18.94 7.48 19.30 6.86 19.47 L 6.90 20.20 C 6.93 20.91 7.00 22.34 7.03 23.05 C 9.01 23.44 10.99 23.84 12.99 24.14 C 14.82 24.37 16.66 24.45 18.50 24.52 C 18.94 24.53 19.82 24.56 20.25 24.57 C 14.17 28.22 7.69 24.83 2.54 21.24 C 3.71 20.14 4.90 19.07 6.11 18.01 Z" />
<path fill="#278cd7" opacity="1.00" d=" M 150.06 34.64 C 151.77 34.30 153.50 34.00 155.24 33.85 C 157.75 34.65 160.24 35.52 162.70 36.46 C 158.42 36.56 154.17 35.79 150.06 34.64 Z" />
</g>
<g id="#2988d4ff">
<path fill="#2988d4" opacity="1.00" d=" M 42.73 20.48 C 44.66 19.65 46.62 18.87 48.58 18.12 C 48.33 18.70 47.84 19.86 47.59 20.44 L 46.84 20.83 C 44.21 22.10 41.56 23.32 38.85 24.40 C 39.44 23.40 40.05 22.41 40.67 21.42 C 41.00 21.27 41.66 20.96 41.99 20.80 L 42.73 20.48 Z" />
</g>
<g id="#268cd7ff">
<path fill="#268cd7" opacity="1.00" d=" M 61.19 18.26 C 61.42 18.31 61.90 18.39 62.14 18.43 C 63.58 21.08 66.14 22.56 69.01 23.20 L 69.53 23.39 C 69.71 23.45 70.07 23.57 70.25 23.63 C 71.67 24.21 73.26 24.57 74.75 24.00 C 75.19 23.90 76.07 23.69 76.51 23.58 C 74.41 24.61 72.41 26.06 70.04 26.41 C 65.25 26.12 60.76 23.10 58.73 18.73 C 59.34 18.61 60.57 18.38 61.19 18.26 Z" />
</g>
<g id="#72889bfe">
<path fill="#72889b" opacity="1.00" d=" M 62.14 18.43 C 63.34 18.61 64.53 18.79 65.73 18.97 C 65.28 20.85 66.81 22.43 68.49 22.96 L 69.01 23.20 C 66.14 22.56 63.58 21.08 62.14 18.43 Z" />
</g>
<g id="#7391a4ff">
<path fill="#7391a4" opacity="1.00" d=" M 78.66 18.32 L 79.12 17.78 C 79.65 18.67 80.19 19.57 80.74 20.45 L 80.20 20.91 C 79.30 21.68 78.41 22.46 77.50 23.22 C 77.26 23.31 76.76 23.49 76.51 23.58 C 76.07 23.69 75.19 23.90 74.75 24.00 L 75.05 23.46 C 75.67 22.35 76.33 21.25 77.05 20.19 C 77.45 19.73 78.25 18.79 78.66 18.32 Z" />
</g>
<g id="#718a9fff">
<path fill="#718a9f" opacity="1.00" d=" M 118.62 17.73 C 119.69 18.37 120.76 19.01 121.83 19.65 C 122.91 20.32 124.00 20.98 125.07 21.67 L 124.85 22.42 C 122.96 21.95 121.08 21.43 119.21 20.92 C 119.06 20.12 118.77 18.53 118.62 17.73 Z" />
<path fill="#718a9f" opacity="1.00" d=" M 6.90 20.20 C 7.98 20.99 9.04 21.00 10.10 20.25 C 9.28 22.07 11.21 23.53 12.86 23.56 L 12.99 24.14 C 10.99 23.84 9.01 23.44 7.03 23.05 C 7.00 22.34 6.93 20.91 6.90 20.20 Z" />
</g>
<g id="#93a7b9ff">
<path fill="#93a7b9" opacity="1.00" d=" M 129.11 19.81 C 130.54 19.42 131.96 19.01 133.37 18.55 C 131.96 19.64 130.55 20.72 129.09 21.74 C 128.71 21.36 127.94 20.60 127.56 20.23 C 127.95 20.12 128.72 19.91 129.11 19.81 Z" />
</g>
<g id="#7993a3ff">
<path fill="#7993a3" opacity="1.00" d=" M 174.46 18.31 C 175.59 18.05 176.71 18.16 177.81 18.64 C 176.88 19.45 175.82 19.84 174.63 19.81 C 174.59 19.44 174.50 18.69 174.46 18.31 Z" />
<path fill="#7993a3" opacity="1.00" d=" M 33.54 42.23 C 36.21 40.50 37.34 43.99 34.28 44.46 C 34.09 43.90 33.73 42.79 33.54 42.23 Z" />
<path fill="#7993a3" opacity="1.00" d=" M 84.12 41.66 L 84.72 41.16 C 85.07 41.34 85.78 41.72 86.14 41.91 L 85.97 42.69 L 85.18 43.29 L 84.46 43.06 C 84.37 42.71 84.21 42.01 84.12 41.66 Z" />
<path fill="#7993a3" opacity="1.00" d=" M 180.97 41.62 C 181.57 41.32 182.76 40.72 183.36 40.42 L 183.91 40.96 C 183.23 42.14 182.24 42.36 180.97 41.62 Z" />
<path fill="#7993a3" opacity="1.00" d=" M 27.08 44.19 C 27.43 42.63 28.98 41.92 30.33 42.85 L 30.23 43.48 L 29.27 44.06 C 28.72 44.09 27.63 44.15 27.08 44.19 Z" />
</g>
<g id="#9eb2c7ff">
<path fill="#9eb2c7" opacity="1.00" d=" M 178.47 18.45 C 178.84 18.29 179.58 17.97 179.95 17.81 C 180.22 19.63 180.57 21.44 180.99 23.24 C 179.02 22.47 177.00 21.81 175.09 20.92 C 174.97 20.65 174.75 20.09 174.63 19.81 C 175.82 19.84 176.88 19.45 177.81 18.64 L 178.47 18.45 Z" />
</g>
<g id="#95a9bcff">
<path fill="#95a9bc" opacity="1.00" d=" M 191.34 17.91 C 191.62 18.82 191.81 19.76 192.01 20.70 L 192.15 21.51 L 190.83 21.54 C 189.26 21.56 187.72 21.80 186.17 21.98 L 185.08 21.82 C 185.89 21.47 186.70 21.10 187.50 20.71 C 188.10 20.41 189.30 19.81 189.89 19.51 C 190.26 19.11 190.98 18.31 191.34 17.91 Z" />
</g>
<g id="#332e2aff">
<path fill="#332e2a" opacity="1.00" d=" M 6.86 19.47 C 7.48 19.30 8.72 18.94 9.34 18.77 C 9.53 19.14 9.91 19.88 10.10 20.25 C 9.04 21.00 7.98 20.99 6.90 20.20 L 6.86 19.47 Z" />
<path fill="#332e2a" opacity="1.00" d=" M 37.21 21.06 C 37.43 20.69 37.87 19.95 38.10 19.59 C 38.58 19.73 39.54 20.01 40.02 20.15 C 39.32 21.17 38.38 21.48 37.21 21.06 Z" />
<path fill="#332e2a" opacity="1.00" d=" M 182.77 24.04 C 183.09 23.58 183.73 22.67 184.04 22.21 L 185.08 21.82 L 186.17 21.98 L 186.56 22.59 C 185.81 23.90 184.23 25.03 182.77 24.04 Z" />
<path fill="#332e2a" opacity="1.00" d=" M 186.86 40.00 C 188.19 38.85 190.09 39.30 191.05 40.68 C 190.11 41.06 189.15 41.34 188.16 41.53 C 187.85 41.30 187.24 40.83 186.93 40.60 L 186.86 40.00 Z" />
<path fill="#332e2a" opacity="1.00" d=" M 84.72 41.16 C 85.19 40.84 86.15 40.21 86.63 39.89 C 86.69 40.30 86.83 41.10 86.90 41.50 L 86.14 41.91 C 85.78 41.72 85.07 41.34 84.72 41.16 Z" />
</g>
<g id="#6c8494ff">
<path fill="#6c8494" opacity="1.00" d=" M 22.07 18.87 C 23.20 19.13 24.32 19.42 25.44 19.72 C 25.82 19.98 26.57 20.48 26.95 20.74 C 25.19 21.80 23.48 22.95 21.73 24.03 C 21.36 24.16 20.62 24.43 20.25 24.57 C 19.82 24.56 18.94 24.53 18.50 24.52 L 17.85 23.93 C 19.39 23.83 20.66 22.67 21.09 21.22 C 21.34 20.63 21.83 19.45 22.07 18.87 Z" />
</g>
<g id="#288dd7ff">
<path fill="#288dd7" opacity="1.00" d=" M 25.54 19.40 C 27.59 19.28 29.64 19.07 31.69 18.88 C 33.03 20.42 34.37 21.95 35.73 23.47 C 35.40 23.28 34.73 22.89 34.40 22.69 C 31.58 21.27 28.54 20.36 25.54 19.40 Z" />
</g>
<g id="#a0b4c8fe">
<path fill="#a0b4c8" opacity="1.00" d=" M 69.71 19.85 C 71.55 20.11 73.39 20.38 75.25 20.50 C 75.70 20.42 76.60 20.27 77.05 20.19 C 76.33 21.25 75.67 22.35 75.05 23.46 C 73.79 21.71 71.61 22.52 70.25 23.63 C 70.07 23.57 69.71 23.45 69.53 23.39 C 69.59 22.21 69.65 21.03 69.71 19.85 Z" />
</g>
<g id="#4b4b4dff">
<path fill="#4b4b4d" opacity="1.00" d=" M 126.12 18.65 C 126.48 19.04 127.20 19.83 127.56 20.23 C 127.94 20.60 128.71 21.36 129.09 21.74 L 130.06 22.65 C 129.60 22.77 128.67 23.00 128.21 23.12 C 127.08 22.92 125.96 22.68 124.85 22.42 L 125.07 21.67 C 125.33 20.92 125.86 19.41 126.12 18.65 Z" />
</g>
<g id="#3b6abbff">
<path fill="#3b6abb" opacity="1.00" d=" M 94.06 20.21 C 94.56 20.00 95.57 19.58 96.08 19.37 C 96.03 21.16 95.96 22.95 95.85 24.74 C 96.96 24.05 98.08 23.37 99.16 22.63 C 101.02 26.07 103.22 29.39 104.43 33.15 L 103.78 32.71 C 103.28 32.34 102.26 31.61 101.76 31.25 C 101.24 30.76 100.22 29.77 99.71 29.28 C 98.64 30.27 97.59 31.26 96.54 32.26 C 95.01 30.41 93.48 28.57 91.95 26.73 L 92.23 25.72 C 92.40 25.12 92.74 23.93 92.91 23.33 C 93.26 22.28 93.64 21.23 94.06 20.21 Z" />
</g>
<g id="#2a87d3ff">
<path fill="#2a87d3" opacity="1.00" d=" M 132.97 22.13 C 133.43 20.68 134.68 19.53 136.24 19.40 L 136.77 19.67 C 136.17 21.25 134.58 22.07 132.97 22.13 Z" />
<path fill="#2a87d3" opacity="1.00" d=" M 77.50 23.22 C 78.41 22.46 79.30 21.68 80.20 20.91 C 81.60 21.21 83.00 21.50 84.41 21.81 C 82.11 22.29 79.80 22.72 77.50 23.22 Z" />
<path fill="#2a87d3" opacity="1.00" d=" M 190.83 21.54 L 192.15 21.51 C 193.33 21.69 194.03 21.21 194.25 20.09 C 194.75 20.52 195.76 21.39 196.26 21.82 C 194.15 22.32 192.02 22.76 189.91 23.23 C 190.14 22.81 190.60 21.96 190.83 21.54 Z" />
</g>
<g id="#94a4b6ff">
<path fill="#94a4b6" opacity="1.00" d=" M 182.87 20.34 C 183.16 20.80 183.75 21.74 184.04 22.21 C 183.73 22.67 183.09 23.58 182.77 24.04 C 182.50 23.91 181.94 23.67 181.66 23.55 C 181.74 22.36 182.14 21.29 182.87 20.34 Z" />
</g>
<g id="#6485acff">
<path fill="#6485ac" opacity="1.00" d=" M 192.01 20.70 C 192.42 20.43 193.24 19.87 193.65 19.59 L 194.25 20.09 C 194.03 21.21 193.33 21.69 192.15 21.51 L 192.01 20.70 Z" />
</g>
<g id="#3c6bbfff">
<path fill="#3c6bbf" opacity="1.00" d=" M 206.47 20.08 L 207.47 20.03 C 207.83 20.00 208.53 19.94 208.88 19.92 C 208.27 21.47 207.73 23.04 207.19 24.62 C 208.56 24.06 209.95 23.51 211.28 22.84 C 212.96 25.96 214.86 28.98 216.24 32.25 C 215.77 32.03 214.84 31.60 214.38 31.39 L 213.71 31.18 C 213.46 30.99 212.97 30.60 212.72 30.41 C 209.36 30.78 205.42 30.68 204.07 26.87 L 204.22 25.77 C 204.32 25.10 204.51 23.76 204.61 23.09 C 205.23 22.09 205.85 21.09 206.47 20.08 Z" />
</g>
<g id="#90a1b2ff">
<path fill="#90a1b2" opacity="1.00" d=" M 17.39 22.63 C 18.28 21.53 19.73 21.13 21.09 21.22 C 20.66 22.67 19.39 23.83 17.85 23.93 L 17.32 23.42 L 17.39 22.63 Z" />
</g>
<g id="#2b85d2ff">
<path fill="#2b85d2" opacity="1.00" d=" M 26.95 20.74 C 27.30 20.95 27.99 21.39 28.34 21.60 C 26.14 22.44 23.93 23.22 21.73 24.03 C 23.48 22.95 25.19 21.80 26.95 20.74 Z" />
<path fill="#2b85d2" opacity="1.00" d=" M 86.35 46.60 C 87.94 46.38 89.54 46.20 91.14 46.06 L 91.68 46.07 L 92.32 46.42 C 93.48 47.03 94.65 47.60 95.86 48.12 C 92.62 48.08 89.43 47.58 86.35 46.60 Z" />
<path fill="#2b85d2" opacity="1.00" d=" M 199.58 47.50 C 199.85 46.98 200.40 45.95 200.67 45.43 C 201.07 45.59 201.87 45.91 202.27 46.06 C 202.73 46.25 203.65 46.61 204.11 46.80 C 205.49 47.40 206.86 48.03 208.23 48.66 C 205.33 48.30 202.46 47.93 199.58 47.50 Z" />
</g>
<g id="#6b92acff">
<path fill="#6b92ac" opacity="1.00" d=" M 186.17 21.98 C 187.72 21.80 189.26 21.56 190.83 21.54 C 190.60 21.96 190.14 22.81 189.91 23.23 C 189.53 23.33 188.77 23.52 188.39 23.61 C 187.93 23.36 187.02 22.85 186.56 22.59 L 186.17 21.98 Z" />
</g>
<g id="#303e47ff">
<path fill="#303e47" opacity="1.00" d=" M 70.25 23.63 C 71.61 22.52 73.79 21.71 75.05 23.46 L 74.75 24.00 C 73.26 24.57 71.67 24.21 70.25 23.63 Z" />
</g>
<g id="#383430fe">
<path fill="#383430" opacity="1.00" d=" M 34.40 22.69 C 34.73 22.89 35.40 23.28 35.73 23.47 C 35.85 23.99 36.09 25.04 36.21 25.56 C 35.43 25.87 34.65 26.20 33.89 26.55 C 33.52 27.02 32.80 27.97 32.44 28.45 C 32.09 30.48 31.82 32.52 31.60 34.57 C 33.66 32.26 35.43 29.66 36.46 26.71 C 37.18 28.27 37.97 30.04 39.65 30.76 C 41.38 30.60 42.99 29.90 44.61 29.34 C 43.91 30.93 43.24 32.54 42.77 34.23 L 42.63 34.77 L 41.95 34.64 C 40.55 34.46 39.14 34.34 37.73 34.21 C 38.72 36.08 39.72 37.96 40.84 39.75 C 39.75 40.70 39.75 42.63 41.08 43.36 C 41.73 43.93 42.39 44.49 43.05 45.05 L 42.72 45.69 C 42.26 45.84 41.34 46.15 40.88 46.30 C 41.02 44.97 40.06 42.39 38.36 43.35 C 37.49 44.74 39.22 45.94 40.29 46.48 C 38.47 46.98 36.63 47.38 34.78 47.76 C 33.92 47.04 33.07 46.30 32.22 45.56 L 33.16 45.04 C 33.44 44.89 34.00 44.60 34.28 44.46 C 37.34 43.99 36.21 40.50 33.54 42.23 C 32.47 42.45 31.40 42.65 30.33 42.85 C 28.98 41.92 27.43 42.63 27.08 44.19 C 26.04 45.04 25.01 45.89 23.97 46.75 C 22.31 44.99 20.62 43.25 19.00 41.45 C 18.83 41.08 18.51 40.33 18.34 39.95 C 23.15 40.75 28.02 40.86 32.88 40.57 C 30.77 38.29 28.60 36.07 26.59 33.70 C 26.46 32.62 26.34 31.55 26.22 30.48 C 25.67 30.79 24.58 31.42 24.03 31.73 L 23.38 32.09 C 24.11 30.76 24.84 29.43 25.58 28.11 C 27.36 28.45 29.13 28.77 30.90 29.14 C 32.06 26.98 33.23 24.84 34.40 22.69 M 28.14 29.11 C 26.82 29.80 26.81 30.47 28.11 31.14 C 29.43 30.46 29.44 29.78 28.14 29.11 M 34.14 35.56 C 35.04 37.25 36.03 38.87 37.04 40.49 C 36.73 38.54 36.41 36.60 36.03 34.66 C 37.68 31.36 32.02 33.35 34.14 35.56 Z" />
</g>
<g id="#383430ff">
<path fill="#383430" opacity="1.00" d=" M 90.83 22.44 C 91.35 22.66 92.39 23.11 92.91 23.33 C 92.74 23.93 92.40 25.12 92.23 25.72 C 91.40 25.97 90.57 26.23 89.75 26.49 L 88.99 26.74 C 88.86 27.16 88.61 28.00 88.48 28.42 C 88.14 30.47 87.86 32.53 87.63 34.59 C 89.64 32.33 91.28 29.71 91.95 26.73 C 93.48 28.57 95.01 30.41 96.54 32.26 C 95.51 32.93 93.96 34.01 94.54 35.43 C 95.66 38.79 97.15 42.01 98.65 45.21 C 98.03 45.12 97.40 45.04 96.78 44.95 C 95.68 44.56 94.59 44.13 93.49 43.73 L 92.89 43.52 C 92.03 43.15 91.15 42.90 90.23 42.77 C 90.05 41.54 89.80 40.31 89.58 39.09 C 88.60 39.36 87.61 39.62 86.63 39.89 C 85.39 37.74 84.05 35.65 82.80 33.50 C 82.59 32.50 82.39 31.51 82.18 30.51 C 81.64 30.82 80.57 31.42 80.04 31.73 L 79.38 32.08 C 80.11 30.76 80.84 29.43 81.58 28.12 C 83.32 28.44 85.06 28.75 86.79 29.10 C 88.09 26.85 89.40 24.61 90.83 22.44 M 84.14 29.11 C 82.82 29.80 82.81 30.47 84.11 31.14 C 85.43 30.46 85.44 29.78 84.14 29.11 M 90.14 35.56 C 91.04 37.25 92.03 38.87 93.04 40.49 C 92.73 38.54 92.41 36.60 92.03 34.66 C 93.68 31.36 88.02 33.35 90.14 35.56 Z" />
</g>
<g id="#3d3936ff">
<path fill="#3d3936" opacity="1.00" d=" M 146.52 23.05 C 147.05 23.04 148.11 23.01 148.65 22.99 C 148.53 23.69 148.31 25.08 148.20 25.78 C 147.38 26.01 146.56 26.24 145.75 26.49 L 144.99 26.72 C 144.86 27.14 144.61 27.98 144.48 28.40 C 144.14 30.45 143.85 32.51 143.62 34.57 C 145.61 32.34 147.40 29.84 148.03 26.86 C 149.44 30.72 153.31 30.93 156.71 30.00 C 155.62 30.66 155.33 31.98 155.31 33.16 L 155.24 33.85 C 153.50 34.00 151.77 34.30 150.06 34.64 C 150.64 36.12 151.23 37.60 151.78 39.09 C 152.14 40.11 152.47 41.14 152.81 42.17 C 152.94 42.58 153.19 43.38 153.32 43.78 C 152.80 44.07 151.74 44.66 151.22 44.95 C 152.40 41.03 148.14 42.86 148.79 45.78 C 148.42 45.84 147.66 45.98 147.29 46.04 C 145.83 44.81 144.44 43.51 143.01 42.24 L 143.37 41.80 L 143.83 41.42 C 144.13 41.15 144.74 40.63 145.05 40.36 C 145.30 41.54 146.27 43.72 147.83 42.82 C 148.84 41.13 146.38 40.20 145.18 39.69 C 144.63 39.44 143.54 38.95 142.99 38.71 C 142.56 38.53 141.70 38.19 141.27 38.01 C 140.42 36.53 139.56 35.06 138.76 33.55 C 138.57 32.54 138.37 31.53 138.18 30.51 C 137.65 30.82 136.57 31.43 136.04 31.73 L 135.38 32.08 C 136.11 30.76 136.84 29.43 137.58 28.12 C 139.31 28.44 141.04 28.74 142.77 29.09 C 143.97 27.05 145.16 25.00 146.52 23.05 M 140.14 29.11 C 138.82 29.80 138.81 30.47 140.11 31.14 C 141.43 30.46 141.44 29.78 140.14 29.11 M 146.68 35.83 C 145.42 37.82 148.11 39.06 149.02 40.52 C 148.74 38.48 148.42 36.45 148.05 34.43 C 149.23 30.69 143.87 34.04 146.68 35.83 Z" />
</g>
<g id="#3a3632ff">
<path fill="#3a3632" opacity="1.00" d=" M 202.85 22.36 C 203.29 22.54 204.17 22.91 204.61 23.09 C 204.51 23.76 204.32 25.10 204.22 25.77 C 203.40 26.00 202.57 26.24 201.75 26.50 L 200.99 26.73 C 200.86 27.15 200.61 27.99 200.48 28.41 C 200.14 30.45 199.85 32.51 199.62 34.57 C 201.61 32.34 203.40 29.84 204.07 26.87 C 205.42 30.68 209.36 30.78 212.72 30.41 C 210.63 29.83 210.47 32.16 211.43 33.41 L 211.66 34.07 L 210.49 33.64 C 209.92 33.45 208.79 33.06 208.22 32.87 C 207.43 33.88 206.65 34.89 205.90 35.92 C 206.90 37.21 207.90 38.50 208.91 39.79 C 207.85 40.71 207.76 42.51 208.89 43.42 C 209.36 43.96 210.29 45.03 210.76 45.57 C 210.27 45.68 209.28 45.89 208.79 46.00 C 209.01 44.65 207.91 42.20 206.26 43.23 C 205.29 44.57 207.08 45.74 208.17 46.14 C 206.82 46.40 205.47 46.62 204.11 46.80 C 203.65 46.61 202.73 46.25 202.27 46.06 C 202.67 45.88 203.47 45.50 203.86 45.31 C 205.89 44.76 205.14 41.95 203.14 42.26 L 202.65 42.18 L 201.79 42.01 C 199.38 39.24 196.86 36.57 194.60 33.68 C 194.47 32.62 194.34 31.55 194.21 30.49 C 193.67 30.80 192.58 31.42 192.04 31.73 L 191.38 32.08 C 192.11 30.76 192.84 29.43 193.58 28.12 C 195.32 28.44 197.06 28.75 198.80 29.10 C 200.11 26.83 201.42 24.56 202.85 22.36 M 196.14 29.11 C 194.82 29.80 194.81 30.47 196.11 31.14 C 197.43 30.46 197.44 29.78 196.14 29.11 M 202.14 35.56 C 203.04 37.25 204.03 38.87 205.04 40.49 C 204.73 38.54 204.41 36.60 204.03 34.66 C 205.68 31.36 200.02 33.35 202.14 35.56 Z" />
</g>
<g id="#695d4bff">
<path fill="#695d4b" opacity="1.00" d=" M 33.89 26.55 C 34.65 26.20 35.43 25.87 36.21 25.56 L 36.46 26.71 C 35.43 29.66 33.66 32.26 31.60 34.57 C 31.82 32.52 32.09 30.48 32.44 28.45 C 33.70 29.47 35.31 27.47 33.89 26.55 Z" />
<path fill="#695d4b" opacity="1.00" d=" M 89.75 26.49 C 90.57 26.23 91.40 25.97 92.23 25.72 L 91.95 26.73 C 91.28 29.71 89.64 32.33 87.63 34.59 C 87.86 32.53 88.14 30.47 88.48 28.42 C 89.80 29.43 91.25 27.31 89.75 26.49 Z" />
<path fill="#695d4b" opacity="1.00" d=" M 145.75 26.49 C 146.56 26.24 147.38 26.01 148.20 25.78 L 148.03 26.86 C 147.40 29.84 145.61 32.34 143.62 34.57 C 143.85 32.51 144.14 30.45 144.48 28.40 C 145.79 29.42 147.24 27.31 145.75 26.49 Z" />
<path fill="#695d4b" opacity="1.00" d=" M 201.75 26.50 C 202.57 26.24 203.40 26.00 204.22 25.77 L 204.07 26.87 C 203.40 29.84 201.61 32.34 199.62 34.57 C 199.85 32.51 200.14 30.45 200.48 28.41 C 201.79 29.43 203.24 27.31 201.75 26.50 Z" />
</g>
<g id="#46413aff">
<path fill="#46413a" opacity="1.00" d=" M 96.54 32.26 C 97.59 31.26 98.64 30.27 99.71 29.28 C 100.22 29.77 101.24 30.76 101.76 31.25 C 100.34 31.62 99.49 32.52 99.18 33.96 L 98.01 33.26 C 97.64 33.01 96.90 32.51 96.54 32.26 Z" />
</g>
<g id="#3c6cbfff">
<path fill="#3c6cbf" opacity="1.00" d=" M 217.80 33.91 C 219.74 31.77 221.90 29.86 224.00 27.89 L 224.00 45.08 C 220.94 45.02 217.93 44.99 214.89 44.90 C 215.07 43.01 215.28 41.12 215.44 39.22 C 214.18 39.75 212.93 40.31 211.69 40.88 C 211.62 42.40 211.54 43.92 211.46 45.44 L 210.76 45.57 C 210.29 45.03 209.36 43.96 208.89 43.42 C 210.02 42.51 209.96 40.73 208.91 39.79 C 207.90 38.50 206.90 37.21 205.90 35.92 C 206.65 34.89 207.43 33.88 208.22 32.87 C 208.79 33.06 209.92 33.45 210.49 33.64 C 209.92 35.02 209.36 36.42 208.83 37.81 C 212.26 37.73 215.77 36.78 217.80 33.91 Z" />
</g>
<g id="#96844eff">
<path fill="#96844e" opacity="1.00" d=" M 24.03 31.73 C 24.58 31.42 25.67 30.79 26.22 30.48 C 26.34 31.55 26.46 32.62 26.59 33.70 C 26.76 35.54 26.85 37.40 26.94 39.25 C 24.97 37.51 23.05 35.70 21.06 33.99 C 21.49 34.14 22.37 34.43 22.81 34.58 C 24.73 35.72 25.62 32.64 24.03 31.73 Z" />
<path fill="#96844e" opacity="1.00" d=" M 80.04 31.73 C 80.57 31.42 81.64 30.82 82.18 30.51 C 82.39 31.51 82.59 32.50 82.80 33.50 C 82.89 35.40 82.88 37.31 82.89 39.23 C 80.95 37.50 79.07 35.72 77.10 34.04 C 77.52 34.18 78.37 34.45 78.79 34.59 C 80.71 35.70 81.62 32.65 80.04 31.73 Z" />
<path fill="#96844e" opacity="1.00" d=" M 136.04 31.73 C 136.57 31.43 137.65 30.82 138.18 30.51 C 138.37 31.53 138.57 32.54 138.76 33.55 C 138.87 35.44 138.87 37.34 138.90 39.23 C 136.95 37.50 135.05 35.71 133.07 34.01 C 133.50 34.15 134.37 34.44 134.80 34.58 C 136.72 35.71 137.62 32.64 136.04 31.73 Z" />
<path fill="#96844e" opacity="1.00" d=" M 192.04 31.73 C 192.58 31.42 193.67 30.80 194.21 30.49 C 194.34 31.55 194.47 32.62 194.60 33.68 C 194.76 35.53 194.85 37.39 194.95 39.25 C 192.96 37.50 191.03 35.69 189.01 33.98 C 189.45 34.13 190.35 34.43 190.80 34.58 C 192.72 35.72 193.61 32.65 192.04 31.73 Z" />
</g>
<g id="#484848ff">
<path fill="#484848" opacity="1.00" d=" M 42.77 34.23 C 43.24 32.54 43.91 30.93 44.61 29.34 C 45.46 30.80 46.36 32.25 47.07 33.79 C 45.74 32.77 43.91 33.04 42.77 34.23 Z" />
</g>
<g id="#4a463eff">
<path fill="#4a463e" opacity="1.00" d=" M 155.31 33.16 C 155.33 31.98 155.62 30.66 156.71 30.00 C 157.82 30.44 158.24 31.31 158.00 32.61 C 157.33 32.75 155.98 33.02 155.31 33.16 Z" />
</g>
<g id="#36312cff">
<path fill="#36312c" opacity="1.00" d=" M 10.21 42.01 C 13.68 38.15 16.96 34.05 21.16 30.92 C 21.61 31.90 22.05 32.88 22.49 33.86 L 22.81 34.58 C 22.37 34.43 21.49 34.14 21.06 33.99 C 20.87 33.85 20.50 33.58 20.31 33.45 C 19.47 35.60 18.60 37.75 17.69 39.88 C 17.55 40.27 17.28 41.05 17.14 41.44 C 15.75 40.42 13.93 41.10 13.09 42.46 C 12.37 42.35 10.93 42.13 10.21 42.01 Z" />
<path fill="#36312c" opacity="1.00" d=" M 182.88 34.82 C 185.22 33.99 187.36 32.71 189.46 31.42 C 189.81 32.23 190.15 33.03 190.50 33.85 L 190.80 34.58 C 190.35 34.43 189.45 34.13 189.01 33.98 C 188.72 33.79 188.15 33.42 187.86 33.23 C 187.48 35.19 187.07 37.15 186.82 39.13 C 185.57 38.91 184.32 38.68 183.07 38.45 C 183.14 38.94 183.28 39.92 183.36 40.42 C 182.76 40.72 181.57 41.32 180.97 41.62 C 180.57 41.46 179.77 41.15 179.36 41.00 C 180.16 39.50 180.93 38.00 181.75 36.53 C 182.04 36.10 182.60 35.24 182.88 34.82 Z" />
</g>
<g id="#3b3733ff">
<path fill="#3b3733" opacity="1.00" d=" M 70.90 34.78 C 73.23 33.96 75.36 32.71 77.47 31.45 C 77.81 32.25 78.15 33.05 78.49 33.85 L 78.79 34.59 C 78.37 34.45 77.52 34.18 77.10 34.04 C 76.98 33.96 76.75 33.80 76.64 33.72 C 75.64 35.09 74.66 36.46 73.61 37.79 C 72.82 38.74 72.01 39.68 71.18 40.59 C 70.37 40.77 69.55 40.94 68.74 41.10 C 68.46 40.99 67.91 40.79 67.63 40.69 L 67.50 40.34 C 68.73 39.91 69.53 39.10 69.89 37.89 C 70.23 36.85 70.56 35.81 70.90 34.78 Z" />
</g>
<g id="#413e3bff">
<path fill="#413e3b" opacity="1.00" d=" M 126.17 36.27 C 128.37 34.33 130.90 32.82 133.31 31.16 C 133.71 32.06 134.10 32.95 134.49 33.85 L 134.80 34.58 C 134.37 34.44 133.50 34.15 133.07 34.01 C 132.87 33.87 132.48 33.59 132.28 33.45 C 131.50 35.32 130.71 37.18 129.91 39.04 C 128.47 39.41 127.03 39.79 125.57 40.10 C 125.08 40.00 124.10 39.80 123.60 39.70 C 124.45 38.55 125.29 37.39 126.17 36.27 Z" />
</g>
<g id="#6e5f4dff">
<path fill="#6e5f4d" opacity="1.00" d=" M 23.38 32.09 L 24.03 31.73 C 25.62 32.64 24.73 35.72 22.81 34.58 L 22.49 33.86 C 22.71 33.42 23.16 32.53 23.38 32.09 Z" />
<path fill="#6e5f4d" opacity="1.00" d=" M 79.38 32.08 L 80.04 31.73 C 81.62 32.65 80.71 35.70 78.79 34.59 L 78.49 33.85 C 78.71 33.41 79.16 32.52 79.38 32.08 Z" />
<path fill="#6e5f4d" opacity="1.00" d=" M 135.38 32.08 L 136.04 31.73 C 137.62 32.64 136.72 35.71 134.80 34.58 L 134.49 33.85 C 134.72 33.41 135.16 32.52 135.38 32.08 Z" />
<path fill="#6e5f4d" opacity="1.00" d=" M 191.38 32.08 L 192.04 31.73 C 193.61 32.65 192.72 35.72 190.80 34.58 L 190.50 33.85 C 190.72 33.41 191.16 32.52 191.38 32.08 Z" />
</g>
<g id="#8e7e4dff">
<path fill="#8e7e4d" opacity="1.00" d=" M 34.14 35.56 C 32.02 33.35 37.68 31.36 36.03 34.66 C 35.56 34.89 34.61 35.34 34.14 35.56 Z" />
<path fill="#8e7e4d" opacity="1.00" d=" M 90.14 35.56 C 88.02 33.35 93.68 31.36 92.03 34.66 C 91.56 34.89 90.61 35.34 90.14 35.56 Z" />
<path fill="#8e7e4d" opacity="1.00" d=" M 146.68 35.83 C 143.87 34.04 149.23 30.69 148.05 34.43 C 147.71 34.78 147.02 35.48 146.68 35.83 Z" />
<path fill="#8e7e4d" opacity="1.00" d=" M 202.14 35.56 C 200.02 33.35 205.68 31.36 204.03 34.66 C 203.56 34.89 202.61 35.34 202.14 35.56 Z" />
</g>
<g id="#7794b0ff">
<path fill="#7794b0" opacity="1.00" d=" M 96.54 32.26 C 96.90 32.51 97.64 33.01 98.01 33.26 C 97.11 34.10 96.14 34.86 95.11 35.53 L 94.54 35.43 C 93.96 34.01 95.51 32.93 96.54 32.26 Z" />
</g>
<g id="#8fa7bafe">
<path fill="#8fa7ba" opacity="1.00" d=" M 99.18 33.96 C 99.49 32.52 100.34 31.62 101.76 31.25 C 102.26 31.61 103.28 32.34 103.78 32.71 C 102.33 33.31 100.80 34.16 99.18 33.96 Z" />
</g>
<g id="#93aabeff">
<path fill="#93aabe" opacity="1.00" d=" M 211.43 33.41 C 212.00 32.85 213.14 31.74 213.71 31.18 L 214.38 31.39 C 214.49 31.88 214.73 32.87 214.85 33.37 C 213.85 33.94 212.78 34.17 211.66 34.07 L 211.43 33.41 Z" />
<path fill="#93aabe" opacity="1.00" d=" M 42.77 34.23 C 43.91 33.04 45.74 32.77 47.07 33.79 C 46.46 34.14 45.23 34.83 44.62 35.17 C 44.12 35.07 43.13 34.87 42.63 34.77 L 42.77 34.23 Z" />
<path fill="#93aabe" opacity="1.00" d=" M 155.31 33.16 C 155.98 33.02 157.33 32.75 158.00 32.61 C 158.49 34.37 156.26 35.37 155.24 33.85 L 155.31 33.16 Z" />
</g>
<g id="#36425bff">
<path fill="#36425b" opacity="1.00" d=" M 214.38 31.39 C 214.84 31.60 215.77 32.03 216.24 32.25 L 216.56 33.09 C 216.13 33.16 215.27 33.30 214.85 33.37 C 214.73 32.87 214.49 31.88 214.38 31.39 Z" />
</g>
<g id="#645a4bfe">
<path fill="#645a4b" opacity="1.00" d=" M 20.31 33.45 C 20.50 33.58 20.87 33.85 21.06 33.99 C 23.05 35.70 24.97 37.51 26.94 39.25 C 26.85 37.40 26.76 35.54 26.59 33.70 C 28.60 36.07 30.77 38.29 32.88 40.57 C 28.02 40.86 23.15 40.75 18.34 39.95 L 17.69 39.88 C 18.60 37.75 19.47 35.60 20.31 33.45 Z" />
</g>
<g id="#685f52ff">
<path fill="#685f52" opacity="1.00" d=" M 76.64 33.72 C 76.75 33.80 76.98 33.96 77.10 34.04 C 79.07 35.72 80.95 37.50 82.89 39.23 C 82.88 37.31 82.89 35.40 82.80 33.50 C 84.05 35.65 85.39 37.74 86.63 39.89 C 86.15 40.21 85.19 40.84 84.72 41.16 C 84.76 39.07 82.17 39.48 81.74 41.08 C 81.53 41.36 81.12 41.92 80.92 42.20 C 80.48 41.78 79.60 40.95 79.16 40.53 C 77.92 40.18 76.67 39.90 75.42 39.63 C 74.81 39.01 74.21 38.40 73.61 37.79 C 74.66 36.46 75.64 35.09 76.64 33.72 Z" />
</g>
<g id="#3c66acfe">
<path fill="#3c66ac" opacity="1.00" d=" M 103.78 32.71 L 104.43 33.15 C 104.55 33.51 104.79 34.23 104.91 34.59 C 103.18 35.81 101.27 35.60 99.18 33.96 C 100.80 34.16 102.33 33.31 103.78 32.71 Z" />
</g>
<g id="#6e6659ff">
<path fill="#6e6659" opacity="1.00" d=" M 132.28 33.45 C 132.48 33.59 132.87 33.87 133.07 34.01 C 135.05 35.71 136.95 37.50 138.90 39.23 C 138.87 37.34 138.87 35.44 138.76 33.55 C 139.56 35.06 140.42 36.53 141.27 38.01 L 141.00 38.63 C 139.53 40.19 137.97 41.64 136.50 43.19 C 136.13 41.25 135.72 39.33 135.27 37.41 C 133.50 38.00 131.72 38.57 129.91 39.04 C 130.71 37.18 131.50 35.32 132.28 33.45 Z" />
</g>
<g id="#655d50ff">
<path fill="#655d50" opacity="1.00" d=" M 187.86 33.23 C 188.15 33.42 188.72 33.79 189.01 33.98 C 191.03 35.69 192.96 37.50 194.95 39.25 C 194.85 37.39 194.76 35.53 194.60 33.68 C 196.86 36.57 199.38 39.24 201.79 42.01 C 200.76 41.77 199.75 41.50 198.74 41.19 C 198.24 40.95 197.24 40.47 196.74 40.23 C 196.55 40.14 196.18 39.97 195.99 39.88 C 194.95 40.73 193.98 41.66 193.04 42.62 C 192.37 41.98 191.71 41.33 191.05 40.68 C 190.09 39.30 188.19 38.85 186.86 40.00 C 186.85 39.78 186.83 39.35 186.82 39.13 C 187.07 37.15 187.48 35.19 187.86 33.23 Z" />
</g>
<g id="#3a74c5fe">
<path fill="#3a74c5" opacity="1.00" d=" M 216.56 33.09 C 216.70 33.47 216.97 34.25 217.11 34.64 C 216.82 34.91 216.25 35.45 215.96 35.72 C 214.89 35.31 212.74 34.48 211.66 34.07 C 212.78 34.17 213.85 33.94 214.85 33.37 C 215.27 33.30 216.13 33.16 216.56 33.09 Z" />
</g>
<g id="#278cd8ff">
<path fill="#278cd8" opacity="1.00" d=" M 95.11 35.53 C 96.14 34.86 97.11 34.10 98.01 33.26 L 99.18 33.96 C 101.27 35.60 103.18 35.81 104.91 34.59 L 105.69 33.94 C 103.16 37.69 98.87 36.26 95.11 35.53 Z" />
</g>
<g id="#60574aff">
<path fill="#60574a" opacity="1.00" d=" M 34.14 35.56 C 34.61 35.34 35.56 34.89 36.03 34.66 C 36.41 36.60 36.73 38.54 37.04 40.49 C 36.03 38.87 35.04 37.25 34.14 35.56 Z" />
<path fill="#60574a" opacity="1.00" d=" M 90.14 35.56 C 90.61 35.34 91.56 34.89 92.03 34.66 C 92.41 36.60 92.73 38.54 93.04 40.49 C 92.03 38.87 91.04 37.25 90.14 35.56 Z" />
<path fill="#60574a" opacity="1.00" d=" M 202.14 35.56 C 202.61 35.34 203.56 34.89 204.03 34.66 C 204.41 36.60 204.73 38.54 205.04 40.49 C 204.03 38.87 203.04 37.25 202.14 35.56 Z" />
</g>
<g id="#298bd7ff">
<path fill="#298bd7" opacity="1.00" d=" M 39.78 36.56 C 40.32 36.08 41.41 35.12 41.95 34.64 L 42.63 34.77 C 43.13 34.87 44.12 35.07 44.62 35.17 C 46.56 35.51 48.50 35.87 50.44 36.20 C 46.89 36.44 43.33 36.54 39.78 36.56 Z" />
</g>
<g id="#4175c7ff">
<path fill="#4175c7" opacity="1.00" d=" M 60.17 38.14 C 63.74 37.02 67.35 36.00 70.90 34.78 C 70.56 35.81 70.23 36.85 69.89 37.89 C 68.18 35.76 66.02 38.58 67.50 40.34 L 67.63 40.69 C 68.10 42.32 68.52 43.97 68.95 45.63 C 64.61 45.26 62.39 41.34 60.17 38.14 Z" />
</g>
<g id="#98b2d5ff">
<path fill="#98b2d5" opacity="1.00" d=" M 119.03 36.40 C 121.40 36.09 123.79 36.10 126.17 36.27 C 125.29 37.39 124.45 38.55 123.60 39.70 L 123.21 39.48 L 122.95 39.27 C 121.73 38.20 120.41 37.25 119.03 36.40 Z" />
</g>
<g id="#615d55ff">
<path fill="#615d55" opacity="1.00" d=" M 146.68 35.83 C 147.02 35.48 147.71 34.78 148.05 34.43 C 148.42 36.45 148.74 38.48 149.02 40.52 C 148.11 39.06 145.42 37.82 146.68 35.83 Z" />
</g>
<g id="#467ccaff">
<path fill="#467cca" opacity="1.00" d=" M 172.59 37.96 C 176.02 36.92 179.49 35.99 182.88 34.82 C 182.60 35.24 182.04 36.10 181.75 36.53 C 180.19 37.91 178.56 39.21 177.00 40.60 C 176.26 40.53 174.77 40.39 174.03 40.32 C 173.56 39.53 173.07 38.74 172.59 37.96 Z" />
</g>
<g id="#9caec0ff">
<path fill="#9caec0" opacity="1.00" d=" M 129.91 39.04 C 131.72 38.57 133.50 38.00 135.27 37.41 C 135.72 39.33 136.13 41.25 136.50 43.19 L 135.95 44.12 C 135.49 42.27 133.74 41.30 131.95 41.25 C 129.82 40.88 127.69 40.48 125.57 40.10 C 127.03 39.79 128.47 39.41 129.91 39.04 Z" />
</g>
<g id="#9db0c3ff">
<path fill="#9db0c3" opacity="1.00" d=" M 141.27 38.01 C 141.70 38.19 142.56 38.53 142.99 38.71 C 142.60 39.82 142.88 40.72 143.83 41.42 L 143.37 41.80 C 142.15 42.13 140.92 42.44 139.69 42.70 C 140.11 41.34 140.53 39.98 141.00 38.63 L 141.27 38.01 Z" />
</g>
<g id="#a1b9d6ff">
<path fill="#a1b9d6" opacity="1.00" d=" M 151.78 39.09 C 153.03 39.36 154.28 39.64 155.54 39.88 C 154.62 40.64 153.71 41.40 152.81 42.17 C 152.47 41.14 152.14 40.11 151.78 39.09 Z" />
</g>
<g id="#a8bdd4ff">
<path fill="#a8bdd4" opacity="1.00" d=" M 183.07 38.45 C 184.32 38.68 185.57 38.91 186.82 39.13 C 186.83 39.35 186.85 39.78 186.86 40.00 L 186.93 40.60 L 187.13 41.78 C 186.60 42.03 186.07 42.29 185.54 42.54 C 185.00 42.02 184.45 41.49 183.91 40.96 L 183.36 40.42 C 183.28 39.92 183.14 38.94 183.07 38.45 Z" />
</g>
<g id="#4e4e50ff">
<path fill="#4e4e50" opacity="1.00" d=" M 75.42 39.63 C 76.67 39.90 77.92 40.18 79.16 40.53 C 78.87 41.26 78.66 42.00 78.52 42.77 C 77.66 41.94 76.82 41.09 75.99 40.22 L 75.42 39.63 Z" />
</g>
<g id="#728fa5ff">
<path fill="#728fa5" opacity="1.00" d=" M 86.63 39.89 C 87.61 39.62 88.60 39.36 89.58 39.09 C 89.80 40.31 90.05 41.54 90.23 42.77 L 90.28 43.37 C 89.15 42.75 88.02 42.13 86.90 41.50 C 86.83 41.10 86.69 40.30 86.63 39.89 Z" />
</g>
<g id="#3f7accff">
<path fill="#3f7acc" opacity="1.00" d=" M 103.46 38.79 C 103.18 40.77 102.85 42.74 102.51 44.70 C 107.28 44.91 112.07 45.19 116.85 45.29 C 116.10 46.70 115.36 48.11 114.60 49.51 C 113.32 48.25 112.06 46.98 110.77 45.76 C 106.99 46.21 103.23 46.79 99.51 47.57 C 99.50 46.83 99.49 46.08 99.48 45.34 C 99.48 43.53 99.29 41.73 99.00 39.94 C 100.08 40.26 101.16 40.56 102.25 40.86 C 102.55 40.35 103.15 39.31 103.46 38.79 Z" />
</g>
<g id="#37383dff">
<path fill="#37383d" opacity="1.00" d=" M 136.50 43.19 C 137.97 41.64 139.53 40.19 141.00 38.63 C 140.53 39.98 140.11 41.34 139.69 42.70 L 138.88 42.86 C 137.52 42.94 136.45 43.52 135.67 44.61 L 135.95 44.12 L 136.50 43.19 Z" />
</g>
<g id="#97b5d6ff">
<path fill="#97b5d6" opacity="1.00" d=" M 155.91 39.85 C 157.63 39.10 160.11 41.15 158.34 42.70 C 157.26 41.98 156.45 41.04 155.91 39.85 Z" />
</g>
<g id="#4e5356ff">
<path fill="#4e5356" opacity="1.00" d=" M 193.04 42.62 C 193.98 41.66 194.95 40.73 195.99 39.88 C 196.18 39.97 196.55 40.14 196.74 40.23 C 196.62 41.43 196.93 42.47 197.67 43.35 C 195.47 43.18 193.33 43.95 191.69 45.41 L 192.01 44.65 C 192.27 44.14 192.78 43.13 193.04 42.62 Z" />
</g>
<g id="#4b7ecbff">
<path fill="#4b7ecb" opacity="1.00" d=" M 215.44 39.22 C 215.28 41.12 215.07 43.01 214.89 44.90 C 217.93 44.99 220.94 45.02 224.00 45.08 L 224.00 45.70 C 220.59 46.28 217.17 46.78 213.82 47.64 C 213.33 46.56 212.55 45.82 211.46 45.44 C 211.54 43.92 211.62 42.40 211.69 40.88 C 212.93 40.31 214.18 39.75 215.44 39.22 Z" />
</g>
<g id="#3c7eceff">
<path fill="#3c7ece" opacity="1.00" d=" M 41.08 43.36 C 39.75 42.63 39.75 40.70 40.84 39.75 C 41.69 40.74 42.16 42.35 41.08 43.36 Z" />
<path fill="#3c7ece" opacity="1.00" d=" M 208.89 43.42 C 207.76 42.51 207.85 40.71 208.91 39.79 C 209.96 40.73 210.02 42.51 208.89 43.42 Z" />
</g>
<g id="#3f7ccdff">
<path fill="#3f7ccd" opacity="1.00" d=" M 43.99 40.20 C 44.76 40.32 45.54 40.44 46.31 40.55 C 46.58 42.03 46.83 43.51 47.09 44.98 C 50.12 45.57 53.15 46.17 56.19 46.73 C 51.16 46.69 46.03 46.55 41.28 48.47 C 41.77 47.55 42.25 46.62 42.72 45.69 L 43.05 45.05 C 43.48 43.46 43.75 41.83 43.99 40.20 Z" />
</g>
<g id="#7494acfe">
<path fill="#7494ac" opacity="1.00" d=" M 71.18 40.59 C 72.78 40.42 74.39 40.33 75.99 40.22 C 76.82 41.09 77.66 41.94 78.52 42.77 C 79.03 42.98 80.06 43.39 80.58 43.59 C 80.90 43.64 81.53 43.73 81.85 43.77 C 81.62 44.27 81.15 45.28 80.92 45.78 C 76.75 44.50 72.83 42.58 68.74 41.10 C 69.55 40.94 70.37 40.77 71.18 40.59 Z" />
</g>
<g id="#258dd8ff">
<path fill="#258dd8" opacity="1.00" d=" M 125.29 44.65 C 124.62 42.92 123.92 41.19 123.21 39.48 L 123.60 39.70 C 124.10 39.80 125.08 40.00 125.57 40.10 C 127.69 40.48 129.82 40.88 131.95 41.25 C 132.59 42.90 133.99 44.09 135.67 44.61 C 137.00 45.84 139.81 44.91 138.88 42.86 L 139.69 42.70 C 140.92 42.44 142.15 42.13 143.37 41.80 L 143.01 42.24 C 141.13 44.66 139.34 47.84 135.91 48.10 C 131.94 49.21 128.63 46.24 125.29 44.65 Z" />
<path fill="#258dd8" opacity="1.00" d=" M 68.95 45.63 C 68.52 43.97 68.10 42.32 67.63 40.69 C 67.91 40.79 68.46 40.99 68.74 41.10 C 72.83 42.58 76.75 44.50 80.92 45.78 C 82.76 46.37 83.99 44.34 85.18 43.29 L 85.97 42.69 C 86.27 43.21 86.87 44.27 87.18 44.80 C 86.12 45.99 85.04 47.17 83.95 48.34 C 83.29 49.06 82.62 49.76 81.95 50.47 C 78.18 47.65 73.39 46.82 68.95 45.63 Z" />
<path fill="#258dd8" opacity="1.00" d=" M 178.06 43.45 C 178.50 42.63 178.93 41.81 179.36 41.00 C 179.77 41.15 180.57 41.46 180.97 41.62 C 182.24 42.36 183.23 42.14 183.91 40.96 C 184.45 41.49 185.00 42.02 185.54 42.54 C 186.07 42.29 186.60 42.03 187.13 41.78 C 188.53 43.13 190.09 44.31 191.69 45.41 C 193.86 46.90 196.00 44.54 197.67 43.35 L 198.31 42.92 C 197.77 44.73 197.21 46.54 196.79 48.38 C 195.79 49.00 194.78 49.62 193.79 50.24 C 188.78 47.46 182.88 46.68 178.06 43.45 Z" />
<path fill="#258dd8" opacity="1.00" d=" M 8.76 43.18 C 9.12 42.89 9.84 42.31 10.21 42.01 C 10.93 42.13 12.37 42.35 13.09 42.46 C 14.55 42.85 16.07 42.61 17.46 42.08 L 18.32 42.11 C 20.19 43.67 22.00 45.31 23.97 46.75 C 25.83 46.05 27.58 45.09 29.27 44.06 L 30.23 43.48 C 31.13 44.14 32.11 44.66 33.16 45.04 L 32.22 45.56 C 29.65 46.84 27.46 49.32 24.45 49.45 C 18.78 48.72 13.84 45.56 8.76 43.18 Z" />
</g>
<g id="#397bc4ff">
<path fill="#397bc4" opacity="1.00" d=" M 155.54 39.88 L 155.91 39.85 C 156.45 41.04 157.26 41.98 158.34 42.70 C 157.05 44.09 155.66 45.41 154.10 46.50 C 153.85 45.59 153.60 44.68 153.32 43.78 C 153.19 43.38 152.94 42.58 152.81 42.17 C 153.71 41.40 154.62 40.64 155.54 39.88 Z" />
</g>
<g id="#839cadff">
<path fill="#839cad" opacity="1.00" d=" M 13.09 42.46 C 13.93 41.10 15.75 40.42 17.14 41.44 L 17.46 42.08 C 16.07 42.61 14.55 42.85 13.09 42.46 Z" />
</g>
<g id="#51595dfe">
<path fill="#51595d" opacity="1.00" d=" M 81.74 41.08 C 82.33 41.23 83.53 41.52 84.12 41.66 C 84.21 42.01 84.37 42.71 84.46 43.06 C 83.81 43.24 82.50 43.60 81.85 43.77 C 81.53 43.73 80.90 43.64 80.58 43.59 C 80.66 43.25 80.83 42.55 80.92 42.20 C 81.12 41.92 81.53 41.36 81.74 41.08 Z" />
</g>
<g id="#708ea9ff">
<path fill="#708ea9" opacity="1.00" d=" M 131.95 41.25 C 133.74 41.30 135.49 42.27 135.95 44.12 L 135.67 44.61 C 133.99 44.09 132.59 42.90 131.95 41.25 Z" />
</g>
<g id="#738fa7ff">
<path fill="#738fa7" opacity="1.00" d=" M 186.93 40.60 C 187.24 40.83 187.85 41.30 188.16 41.53 C 189.47 42.53 190.76 43.56 192.01 44.65 L 191.69 45.41 C 190.09 44.31 188.53 43.13 187.13 41.78 L 186.93 40.60 Z" />
</g>
<g id="#738fa6ff">
<path fill="#738fa6" opacity="1.00" d=" M 18.32 42.11 L 19.00 41.45 C 20.62 43.25 22.31 44.99 23.97 46.75 C 22.00 45.31 20.19 43.67 18.32 42.11 Z" />
</g>
<g id="#4470bafe">
<path fill="#4470ba" opacity="1.00" d=" M 30.33 42.85 C 31.40 42.65 32.47 42.45 33.54 42.23 C 33.73 42.79 34.09 43.90 34.28 44.46 C 34.00 44.60 33.44 44.89 33.16 45.04 C 32.11 44.66 31.13 44.14 30.23 43.48 L 30.33 42.85 Z" />
</g>
<g id="#8a9babff">
<path fill="#8a9bab" opacity="1.00" d=" M 90.23 42.77 C 91.15 42.90 92.03 43.15 92.89 43.52 C 92.58 44.15 91.98 45.43 91.68 46.07 L 91.14 46.06 C 90.93 45.39 90.50 44.04 90.28 43.37 L 90.23 42.77 Z" />
</g>
<g id="#98a9bbff">
<path fill="#98a9bb" opacity="1.00" d=" M 148.79 45.78 C 148.14 42.86 152.40 41.03 151.22 44.95 C 150.61 45.16 149.40 45.57 148.79 45.78 Z" />
</g>
<g id="#708da6fe">
<path fill="#708da6" opacity="1.00" d=" M 202.65 42.18 L 203.14 42.26 C 203.19 43.32 203.44 44.34 203.86 45.31 C 203.47 45.50 202.67 45.88 202.27 46.06 C 201.87 45.91 201.07 45.59 200.67 45.43 C 201.22 44.28 201.86 43.17 202.65 42.18 Z" />
</g>
<g id="#3e70c2ff">
<path fill="#3e70c2" opacity="1.00" d=" M 81.85 43.77 C 82.50 43.60 83.81 43.24 84.46 43.06 L 85.18 43.29 C 83.99 44.34 82.76 46.37 80.92 45.78 C 81.15 45.28 81.62 44.27 81.85 43.77 Z" />
</g>
<g id="#53524fff">
<path fill="#53524f" opacity="1.00" d=" M 93.49 43.73 C 94.59 44.13 95.68 44.56 96.78 44.95 C 95.53 45.37 94.31 45.83 93.06 46.23 C 93.88 45.51 94.02 44.68 93.49 43.73 Z" />
</g>
<g id="#4b79bdff">
<path fill="#4b79bd" opacity="1.00" d=" M 135.67 44.61 C 136.45 43.52 137.52 42.94 138.88 42.86 C 139.81 44.91 137.00 45.84 135.67 44.61 Z" />
</g>
<g id="#3e6fc1fe">
<path fill="#3e6fc1" opacity="1.00" d=" M 191.69 45.41 C 193.33 43.95 195.47 43.18 197.67 43.35 C 196.00 44.54 193.86 46.90 191.69 45.41 Z" />
</g>
<g id="#4574bdff">
<path fill="#4574bd" opacity="1.00" d=" M 23.97 46.75 C 25.01 45.89 26.04 45.04 27.08 44.19 C 27.63 44.15 28.72 44.09 29.27 44.06 C 27.58 45.09 25.83 46.05 23.97 46.75 Z" />
</g>
<g id="#869eb0ff">
<path fill="#869eb0" opacity="1.00" d=" M 91.68 46.07 C 91.98 45.43 92.58 44.15 92.89 43.52 L 93.49 43.73 C 94.02 44.68 93.88 45.51 93.06 46.23 L 92.32 46.42 L 91.68 46.07 Z" />
</g>
<g id="#7d97a7ff">
<path fill="#7d97a7" opacity="1.00" d=" M 151.22 44.95 C 151.74 44.66 152.80 44.07 153.32 43.78 C 153.60 44.68 153.85 45.59 154.10 46.50 C 153.39 46.72 151.99 47.14 151.28 47.35 C 149.95 46.90 148.63 46.45 147.29 46.04 C 147.66 45.98 148.42 45.84 148.79 45.78 C 149.40 45.57 150.61 45.16 151.22 44.95 Z" />
</g>
<g id="#7392a6fe">
<path fill="#7392a6" opacity="1.00" d=" M 96.78 44.95 C 97.40 45.04 98.03 45.12 98.65 45.21 L 99.48 45.34 C 99.49 46.08 99.50 46.83 99.51 47.57 C 98.30 47.82 97.08 48.00 95.86 48.12 C 94.65 47.60 93.48 47.03 92.32 46.42 L 93.06 46.23 C 94.31 45.83 95.53 45.37 96.78 44.95 Z" />
</g>
<g id="#2989d5ff">
<path fill="#2989d5" opacity="1.00" d=" M 141.46 44.89 C 143.41 45.23 145.36 45.57 147.29 46.04 C 148.63 46.45 149.95 46.90 151.28 47.35 C 149.87 47.74 148.45 48.09 147.03 48.44 C 148.45 49.15 149.87 49.87 151.28 50.60 C 147.23 50.22 143.79 48.08 141.46 44.89 Z" />
</g>
<g id="#7092a8ff">
<path fill="#7092a8" opacity="1.00" d=" M 210.76 45.57 L 211.46 45.44 C 211.15 45.71 210.54 46.26 210.23 46.53 C 209.56 47.24 208.90 47.95 208.23 48.66 C 206.86 48.03 205.49 47.40 204.11 46.80 C 205.47 46.62 206.82 46.40 208.17 46.14 L 208.79 46.00 C 209.28 45.89 210.27 45.68 210.76 45.57 Z" />
</g>
<g id="#6ea3d6ff">
<path fill="#6ea3d6" opacity="1.00" d=" M 211.46 45.44 C 212.55 45.82 213.33 46.56 213.82 47.64 C 212.55 48.21 210.42 48.42 210.23 46.53 C 210.54 46.26 211.15 45.71 211.46 45.44 Z" />
</g>
<g id="#859dafff">
<path fill="#859daf" opacity="1.00" d=" M 40.29 46.48 L 40.88 46.30 C 41.34 46.15 42.26 45.84 42.72 45.69 C 42.25 46.62 41.77 47.55 41.28 48.47 C 40.67 48.66 39.45 49.03 38.84 49.22 C 37.64 48.85 36.43 48.48 35.23 48.11 L 34.78 47.76 C 36.63 47.38 38.47 46.98 40.29 46.48 Z" />
</g>
<g id="#427acbff">
<path fill="#427acb" opacity="1.00" d=" M 2.85 47.79 C 4.52 47.39 6.19 47.01 7.86 46.63 C 6.82 47.98 5.78 49.33 4.74 50.69 C 6.85 52.15 9.01 53.54 11.13 54.98 C 8.38 54.75 5.64 54.48 2.89 54.25 C 3.13 52.10 3.03 49.94 2.85 47.79 Z" />
</g>
<g id="#288ad6ff">
<path fill="#288ad6" opacity="1.00" d=" M 29.42 47.39 C 31.36 47.57 33.31 47.78 35.23 48.11 C 36.43 48.48 37.64 48.85 38.84 49.22 C 35.60 49.18 32.44 48.52 29.42 47.39 Z" />
</g>
<g id="#4178cbff">
<path fill="#4178cb" opacity="1.00" d=" M 81.95 50.47 C 82.62 49.76 83.29 49.06 83.95 48.34 C 85.60 52.25 88.94 55.17 93.21 56.00 L 81.56 56.00 C 83.03 55.80 85.97 55.41 87.44 55.21 C 85.65 53.58 83.85 51.97 81.95 50.47 Z" />
<path fill="#4178cb" opacity="1.00" d=" M 193.79 50.24 C 194.78 49.62 195.79 49.00 196.79 48.38 C 196.49 53.00 201.78 54.76 205.22 56.00 L 193.56 56.00 C 195.02 55.81 197.95 55.43 199.41 55.23 C 197.58 53.53 195.74 51.82 193.79 50.24 Z" />
</g>
<g id="#4279caff">
<path fill="#4279ca" opacity="1.00" d=" M 113.52 51.44 C 116.92 49.52 120.47 50.76 123.43 52.87 C 120.11 52.51 116.81 51.96 113.52 51.44 Z" />
</g>
</svg>
