<?xml version="1.0" encoding="UTF-8" ?>
<!DOCTYPE svg PUBLIC "-//W3C//DTD SVG 1.1//EN" "http://www.w3.org/Graphics/SVG/1.1/DTD/svg11.dtd">
<svg width="224pt" height="56pt" viewBox="0 0 224 56" version="1.1" xmlns="http://www.w3.org/2000/svg">
<g id="#3c6cbeff">
<path fill="#3c6cbe" opacity="1.00" d=" M 0.00 0.00 L 25.77 0.00 C 26.69 1.15 27.56 2.34 28.43 3.53 C 23.50 4.25 18.48 3.99 13.59 5.02 C 17.21 5.53 20.84 6.68 24.52 6.40 C 28.98 4.78 34.12 1.29 38.70 4.51 C 43.38 7.47 49.29 7.81 54.47 6.10 C 56.38 4.66 57.70 2.61 59.21 0.79 C 54.76 2.65 50.31 5.35 45.25 4.42 C 40.16 3.73 35.49 1.29 30.55 0.00 L 85.15 0.00 C 79.77 6.05 71.16 2.25 64.34 2.21 C 65.42 4.36 66.42 6.55 67.38 8.75 C 66.23 10.13 65.08 11.50 63.85 12.81 C 63.53 12.89 62.90 13.05 62.59 13.13 C 61.19 11.64 57.93 12.38 59.10 14.78 C 59.19 15.07 59.39 15.65 59.49 15.94 C 59.57 16.19 59.71 16.69 59.79 16.94 C 57.72 17.28 55.65 17.55 53.59 17.87 C 52.01 16.77 50.47 15.63 48.93 14.48 C 51.74 13.81 54.60 13.49 57.46 13.17 C 57.60 12.64 57.87 11.56 58.01 11.02 C 53.23 10.65 48.44 10.50 43.66 10.28 C 43.99 11.65 44.32 13.02 44.65 14.38 C 41.01 14.31 37.36 14.14 33.76 13.54 L 33.12 13.29 C 26.50 10.97 19.91 8.49 13.09 6.83 C 11.66 6.05 10.46 7.75 11.12 9.03 C 9.20 10.94 7.38 12.96 5.44 14.85 C 4.61 15.18 3.78 15.51 2.94 15.83 L 3.58 16.29 C 4.79 17.31 5.96 18.39 7.13 19.47 C 4.73 18.74 2.31 18.09 0.00 17.12 L 0.00 0.00 M 39.53 12.12 C 39.68 12.44 39.96 13.09 40.10 13.41 C 42.70 14.02 40.95 9.94 39.53 12.12 Z" />
</g>
<g id="#4179cbff">
<path fill="#4179cb" opacity="1.00" d=" M 25.77 0.00 L 30.55 0.00 C 35.49 1.29 40.16 3.73 45.25 4.42 C 50.31 5.35 54.76 2.65 59.21 0.79 C 57.70 2.61 56.38 4.66 54.47 6.10 C 49.29 7.81 43.38 7.47 38.70 4.51 C 34.12 1.29 28.98 4.78 24.52 6.40 C 20.84 6.68 17.21 5.53 13.59 5.02 C 18.48 3.99 23.50 4.25 28.43 3.53 C 27.56 2.34 26.69 1.15 25.77 0.00 Z" />
<path fill="#4179cb" opacity="1.00" d=" M 131.01 47.36 C 131.88 46.71 132.72 46.02 133.54 45.31 C 138.43 49.77 145.36 51.11 149.97 56.00 L 139.57 56.00 C 139.09 55.54 138.13 54.62 137.65 54.16 C 139.63 53.92 143.61 53.45 145.60 53.21 C 140.18 49.55 133.49 50.49 128.08 53.63 C 129.97 51.90 131.86 50.18 133.76 48.46 C 133.07 48.18 131.70 47.63 131.01 47.36 Z" />
</g>
<g id="#417acbfe">
<path fill="#417acb" opacity="1.00" d=" M 85.15 0.00 L 94.06 0.00 C 99.29 3.99 105.88 3.60 112.14 3.49 C 111.96 4.47 111.77 5.45 111.57 6.42 C 108.51 6.16 105.46 5.98 102.40 5.81 C 97.25 6.04 94.35 0.06 88.93 0.90 C 85.53 1.14 83.22 4.06 80.69 6.01 C 76.77 4.61 71.88 3.26 68.82 7.08 C 68.46 7.50 67.74 8.34 67.38 8.75 C 66.42 6.55 65.42 4.36 64.34 2.21 C 71.16 2.25 79.77 6.05 85.15 0.00 Z" />
</g>
<g id="#3d6cbeff">
<path fill="#3d6cbe" opacity="1.00" d=" M 94.06 0.00 L 197.15 0.00 C 193.55 4.80 187.66 2.43 182.74 3.56 C 180.09 3.91 179.59 6.92 178.37 8.80 C 177.53 10.19 176.68 11.58 175.76 12.93 L 175.08 13.23 C 174.65 12.90 173.79 12.24 173.35 11.91 C 173.18 12.26 172.83 12.98 172.65 13.33 C 172.37 14.05 172.08 14.77 171.78 15.48 C 171.48 16.21 171.19 16.94 170.91 17.68 C 169.52 16.83 168.14 15.98 166.74 15.14 C 166.65 16.19 166.56 17.25 166.55 18.30 C 163.98 16.86 161.29 15.65 158.57 14.52 C 157.87 15.75 157.18 16.97 156.49 18.20 C 155.44 18.70 154.35 19.13 153.28 19.57 C 151.11 17.22 149.49 20.73 152.17 21.71 L 151.40 21.89 C 151.22 21.79 150.85 21.61 150.67 21.51 C 148.31 20.30 145.97 19.05 143.56 17.92 C 146.21 17.39 148.85 16.81 151.48 16.18 C 148.98 15.91 146.45 15.76 143.94 15.92 C 143.55 14.74 143.17 13.55 142.75 12.38 C 140.79 10.37 138.15 9.98 135.98 11.92 L 135.97 11.91 C 133.51 7.86 128.78 6.95 124.41 7.09 C 126.85 1.99 132.68 3.46 136.86 5.14 C 137.98 4.21 139.11 3.29 140.23 2.36 C 133.63 2.31 127.02 2.04 120.46 1.24 C 121.76 3.75 122.87 6.41 123.17 9.25 C 122.92 9.70 122.41 10.58 122.16 11.03 C 121.88 11.56 121.33 12.63 121.05 13.16 L 119.99 12.99 C 118.65 12.57 117.04 12.81 116.18 14.00 C 115.85 14.35 115.19 15.06 114.86 15.42 C 116.04 16.53 117.24 17.64 118.44 18.75 C 117.64 19.15 116.84 19.57 116.05 19.98 C 118.04 20.45 120.04 20.92 122.03 21.38 C 116.58 24.28 110.84 26.69 104.78 27.96 C 104.60 27.54 104.24 26.68 104.06 26.25 C 109.78 26.59 112.63 21.47 114.73 16.90 C 113.95 16.31 113.17 15.72 112.39 15.13 C 111.47 16.18 110.56 17.23 109.64 18.28 C 107.99 17.15 106.22 16.21 104.48 15.25 C 104.04 15.01 103.16 14.51 102.73 14.27 C 106.04 12.48 109.86 12.29 113.54 12.22 C 113.65 11.64 113.88 10.47 114.00 9.89 C 109.26 10.00 103.45 8.11 99.66 11.75 C 98.53 12.75 97.45 13.81 96.33 14.82 C 97.90 15.26 99.47 15.71 101.04 16.14 C 99.90 17.54 98.86 19.01 97.85 20.50 C 96.51 17.71 93.05 19.63 96.11 21.55 L 95.32 21.80 C 95.07 21.69 94.57 21.46 94.32 21.35 C 92.04 20.27 89.85 19.04 87.58 17.96 C 90.20 17.49 92.83 16.99 95.45 16.45 C 93.13 15.69 90.79 15.02 88.45 14.35 C 88.22 14.18 87.76 13.85 87.53 13.69 C 82.26 9.43 75.34 8.11 68.82 7.08 C 71.88 3.26 76.77 4.61 80.69 6.01 C 83.22 4.06 85.53 1.14 88.93 0.90 C 94.35 0.06 97.25 6.04 102.40 5.81 C 105.46 5.98 108.51 6.16 111.57 6.42 C 111.77 5.45 111.96 4.47 112.14 3.49 C 105.88 3.60 99.29 3.99 94.06 0.00 M 165.17 4.17 C 164.65 5.80 165.20 6.35 166.83 5.83 C 167.35 4.20 166.79 3.65 165.17 4.17 M 159.78 9.53 C 156.53 8.71 154.65 11.97 152.80 13.97 C 158.44 13.40 164.92 9.38 169.95 13.77 C 169.58 11.55 168.15 9.86 166.46 8.48 C 164.41 9.65 162.10 10.08 159.78 9.53 Z" />
<path fill="#3d6cbe" opacity="1.00" d=" M 217.23 34.65 C 219.34 32.26 221.66 30.08 224.00 27.92 L 224.00 45.05 C 217.27 44.36 210.51 44.20 203.75 43.83 C 206.29 42.88 208.84 41.95 211.38 41.00 C 209.79 39.79 208.21 38.59 206.62 37.39 C 206.13 37.02 205.13 36.29 204.63 35.92 C 206.42 36.10 208.22 36.20 210.02 36.38 C 214.37 37.22 218.70 38.18 223.03 39.17 C 221.09 37.67 219.15 36.16 217.23 34.65 Z" />
</g>
<g id="#417acbff">
<path fill="#417acb" opacity="1.00" d=" M 197.15 0.00 L 206.08 0.00 C 211.24 4.02 217.78 3.67 224.00 3.52 L 224.00 6.50 C 220.02 5.83 215.95 6.04 211.96 5.52 C 208.21 4.07 205.43 0.34 200.93 0.90 C 197.53 1.14 195.22 4.06 192.69 6.01 C 188.65 4.42 183.97 3.68 180.47 6.87 C 179.95 7.35 178.90 8.32 178.37 8.80 C 179.59 6.92 180.09 3.91 182.74 3.56 C 187.66 2.43 193.55 4.80 197.15 0.00 Z" />
</g>
<g id="#3c6abefe">
<path fill="#3c6abe" opacity="1.00" d=" M 206.08 0.00 L 224.00 0.00 L 224.00 3.52 C 217.78 3.67 211.24 4.02 206.08 0.00 Z" />
</g>
<g id="#4278caff">
<path fill="#4278ca" opacity="1.00" d=" M 120.46 1.24 C 127.02 2.04 133.63 2.31 140.23 2.36 C 139.11 3.29 137.98 4.21 136.86 5.14 C 132.68 3.46 126.85 1.99 124.41 7.09 C 124.10 7.63 123.48 8.71 123.17 9.25 C 122.87 6.41 121.76 3.75 120.46 1.24 Z" />
</g>
<g id="#3d6cbfff">
<path fill="#3d6cbf" opacity="1.00" d=" M 192.69 6.01 C 195.22 4.06 197.53 1.14 200.93 0.90 C 205.43 0.34 208.21 4.07 211.96 5.52 C 215.95 6.04 220.02 5.83 224.00 6.50 L 224.00 9.46 C 220.71 9.55 217.38 9.63 214.12 10.13 C 211.79 11.09 210.23 13.25 208.33 14.83 C 209.87 15.26 211.41 15.69 212.96 16.11 C 211.86 17.44 210.85 18.85 209.99 20.35 C 208.44 18.30 205.86 19.93 207.71 21.97 C 207.31 21.80 206.50 21.45 206.09 21.27 C 203.88 20.23 201.76 19.00 199.57 17.92 C 202.19 17.45 204.80 16.94 207.41 16.38 C 205.57 16.13 203.73 15.93 201.88 15.75 C 202.16 14.52 201.65 13.86 200.35 13.76 L 199.65 13.66 C 197.52 11.41 194.52 10.77 191.64 10.09 C 188.03 8.67 184.41 7.14 180.47 6.87 C 183.97 3.68 188.65 4.42 192.69 6.01 Z" />
</g>
<g id="#268ed9ff">
<path fill="#268ed9" opacity="1.00" d=" M 165.17 4.17 C 166.79 3.65 167.35 4.20 166.83 5.83 C 165.20 6.35 164.65 5.80 165.17 4.17 Z" />
<path fill="#268ed9" opacity="1.00" d=" M 191.21 16.66 C 191.66 16.74 192.57 16.92 193.03 17.00 C 192.48 17.52 191.38 18.54 190.83 19.06 C 189.26 18.39 187.70 17.71 186.10 17.10 C 187.81 17.00 189.51 16.82 191.21 16.66 Z" />
<path fill="#268ed9" opacity="1.00" d=" M 184.15 26.00 L 184.90 26.14 C 186.11 29.20 181.35 28.02 184.15 26.00 Z" />
<path fill="#268ed9" opacity="1.00" d=" M 44.11 31.11 C 45.37 30.34 46.60 29.55 47.77 28.65 C 48.44 28.95 49.79 29.56 50.46 29.86 C 47.14 31.77 43.58 33.25 39.88 34.27 L 39.88 33.53 C 41.43 33.00 42.76 32.01 44.11 31.11 Z" />
<path fill="#268ed9" opacity="1.00" d=" M 93.41 37.86 L 94.68 37.44 C 96.32 38.23 97.97 39.01 99.60 39.81 C 98.05 39.99 96.49 40.19 94.94 40.41 C 94.70 39.39 94.19 38.54 93.41 37.86 Z" />
<path fill="#268ed9" opacity="1.00" d=" M 91.38 41.00 C 91.46 40.53 91.60 39.60 91.68 39.13 C 92.19 39.51 93.22 40.28 93.73 40.66 C 93.14 40.74 91.97 40.91 91.38 41.00 Z" />
<path fill="#268ed9" opacity="1.00" d=" M 85.66 41.66 C 85.98 41.71 86.63 41.81 86.95 41.86 C 85.84 42.85 84.33 45.15 82.67 43.96 C 82.56 42.43 84.58 42.09 85.66 41.66 Z" />
<path fill="#268ed9" opacity="1.00" d=" M 29.68 42.91 C 30.02 43.02 30.71 43.23 31.06 43.33 C 29.78 44.09 28.19 46.09 26.63 44.94 C 26.46 43.40 28.58 43.14 29.68 42.91 Z" />
</g>
<g id="#427dcbff">
<path fill="#427dcb" opacity="1.00" d=" M 11.12 9.03 C 10.46 7.75 11.66 6.05 13.09 6.83 C 12.60 7.38 11.61 8.48 11.12 9.03 Z" />
</g>
<g id="#3f3b35ff">
<path fill="#3f3b35" opacity="1.00" d=" M 13.09 6.83 C 19.91 8.49 26.50 10.97 33.12 13.29 C 33.30 13.86 33.66 15.01 33.85 15.58 C 33.48 15.63 32.75 15.73 32.38 15.78 C 30.78 15.80 29.18 15.76 27.58 15.74 C 27.58 14.54 27.60 13.33 27.54 12.12 C 26.83 9.95 24.37 12.33 23.69 13.43 C 22.01 13.91 20.33 14.40 18.62 14.81 C 17.53 15.04 16.43 15.22 15.34 15.40 C 15.07 14.13 14.29 13.67 13.02 14.01 C 14.46 12.71 16.06 11.58 17.63 10.43 C 17.66 9.81 17.72 8.57 17.75 7.95 C 17.46 8.09 16.88 8.38 16.59 8.52 C 14.01 9.56 11.69 11.08 9.55 12.83 C 8.46 13.46 7.34 14.04 6.20 14.57 L 5.44 14.85 C 7.38 12.96 9.20 10.94 11.12 9.03 C 11.61 8.48 12.60 7.38 13.09 6.83 Z" />
</g>
<g id="#443e36ff">
<path fill="#443e36" opacity="1.00" d=" M 68.82 7.08 C 75.34 8.11 82.26 9.43 87.53 13.69 C 86.92 13.58 85.72 13.36 85.12 13.25 C 83.46 13.00 81.80 12.57 80.11 12.70 C 78.29 13.02 76.51 13.54 74.71 13.97 L 74.04 14.04 C 73.51 12.16 73.10 10.25 72.42 8.41 C 71.13 7.45 69.68 9.03 68.77 9.86 C 67.75 10.76 66.69 11.61 65.58 12.40 C 65.14 12.50 64.28 12.71 63.85 12.81 C 65.08 11.50 66.23 10.13 67.38 8.75 C 67.74 8.34 68.46 7.50 68.82 7.08 Z" />
</g>
<g id="#433b32ff">
<path fill="#433b32" opacity="1.00" d=" M 124.41 7.09 C 128.78 6.95 133.51 7.86 135.97 11.91 C 135.51 12.19 134.58 12.76 134.12 13.05 C 132.78 12.31 131.51 11.45 130.35 10.44 C 129.60 9.76 128.85 9.07 128.11 8.37 L 127.70 7.99 C 126.01 8.42 124.86 9.76 123.76 11.00 L 122.96 11.08 L 122.16 11.03 C 122.41 10.58 122.92 9.70 123.17 9.25 C 123.48 8.71 124.10 7.63 124.41 7.09 Z" />
</g>
<g id="#403c36ff">
<path fill="#403c36" opacity="1.00" d=" M 180.47 6.87 C 184.41 7.14 188.03 8.67 191.64 10.09 C 194.52 10.77 197.52 11.41 199.65 13.66 C 198.95 13.57 197.53 13.40 196.82 13.31 C 194.81 12.93 192.73 13.05 190.89 14.00 L 190.17 14.28 C 189.35 12.94 188.43 12.87 187.41 14.07 C 187.18 14.44 186.72 15.16 186.49 15.53 L 185.82 15.04 C 185.37 12.77 185.24 10.46 185.14 8.16 C 184.99 8.25 184.70 8.43 184.55 8.52 C 182.08 9.73 179.67 11.03 177.23 12.30 C 176.86 12.46 176.13 12.77 175.76 12.93 C 176.68 11.58 177.53 10.19 178.37 8.80 C 178.90 8.32 179.95 7.35 180.47 6.87 Z" />
</g>
<g id="#94824eff">
<path fill="#94824e" opacity="1.00" d=" M 9.55 12.83 C 11.69 11.08 14.01 9.56 16.59 8.52 C 14.31 10.06 11.99 11.55 9.55 12.83 Z" />
<path fill="#94824e" opacity="1.00" d=" M 177.23 12.30 C 179.67 11.03 182.08 9.73 184.55 8.52 C 182.30 10.13 179.86 11.44 177.23 12.30 Z" />
<path fill="#94824e" opacity="1.00" d=" M 26.15 26.72 C 26.62 26.74 27.55 26.78 28.01 26.79 C 27.64 27.79 27.15 28.72 26.53 29.58 L 25.93 29.69 C 25.20 28.58 25.27 27.59 26.15 26.72 Z" />
<path fill="#94824e" opacity="1.00" d=" M 82.20 26.61 C 82.68 26.65 83.64 26.73 84.12 26.77 C 83.70 27.82 83.04 28.70 82.15 29.40 L 81.49 29.38 C 81.14 28.26 81.37 27.34 82.20 26.61 Z" />
</g>
<g id="#5f5e55fe">
<path fill="#5f5e55" opacity="1.00" d=" M 16.59 8.52 C 16.88 8.38 17.46 8.09 17.75 7.95 C 17.72 8.57 17.66 9.81 17.63 10.43 C 16.06 11.58 14.46 12.71 13.02 14.01 C 13.15 14.37 13.43 15.09 13.57 15.44 L 14.24 16.09 C 12.98 16.01 11.72 15.99 10.45 15.99 C 9.03 15.52 7.61 15.05 6.20 14.57 C 7.34 14.04 8.46 13.46 9.55 12.83 C 11.99 11.55 14.31 10.06 16.59 8.52 Z" />
</g>
<g id="#95834eff">
<path fill="#95834e" opacity="1.00" d=" M 68.77 9.86 C 69.68 9.03 71.13 7.45 72.42 8.41 C 72.01 9.70 70.98 10.90 69.56 11.03 C 69.37 10.74 68.97 10.15 68.77 9.86 Z" />
</g>
<g id="#505048fe">
<path fill="#505048" opacity="1.00" d=" M 72.42 8.41 C 73.10 10.25 73.51 12.16 74.04 14.04 C 73.35 14.07 72.67 14.09 71.99 14.08 C 71.18 13.06 70.37 12.05 69.56 11.03 C 70.98 10.90 72.01 9.70 72.42 8.41 Z" />
</g>
<g id="#96844efe">
<path fill="#96844e" opacity="1.00" d=" M 127.70 7.99 L 128.11 8.37 C 128.10 10.64 125.67 11.57 123.76 11.00 C 124.86 9.76 126.01 8.42 127.70 7.99 Z" />
</g>
<g id="#575045ff">
<path fill="#575045" opacity="1.00" d=" M 128.11 8.37 C 128.85 9.07 129.60 9.76 130.35 10.44 C 128.15 10.63 125.95 10.81 123.76 11.00 C 125.67 11.57 128.10 10.64 128.11 8.37 Z" />
</g>
<g id="#407accff">
<path fill="#407acc" opacity="1.00" d=" M 159.78 9.53 C 162.10 10.08 164.41 9.65 166.46 8.48 C 168.15 9.86 169.58 11.55 169.95 13.77 C 164.92 9.38 158.44 13.40 152.80 13.97 C 154.65 11.97 156.53 8.71 159.78 9.53 Z" />
</g>
<g id="#595b53ff">
<path fill="#595b53" opacity="1.00" d=" M 184.55 8.52 C 184.70 8.43 184.99 8.25 185.14 8.16 C 185.24 10.46 185.37 12.77 185.82 15.04 C 185.34 14.73 184.38 14.12 183.90 13.82 C 183.43 11.06 179.38 12.12 182.08 14.18 L 182.53 14.57 C 181.10 14.89 179.67 15.19 178.23 15.45 C 176.60 14.92 174.99 14.35 173.41 13.70 C 173.83 13.58 174.67 13.35 175.08 13.23 L 175.76 12.93 C 176.13 12.77 176.86 12.46 177.23 12.30 C 179.86 11.44 182.30 10.13 184.55 8.52 Z" />
</g>
<g id="#427bcbff">
<path fill="#427bcb" opacity="1.00" d=" M 99.66 11.75 C 103.45 8.11 109.26 10.00 114.00 9.89 C 113.88 10.47 113.65 11.64 113.54 12.22 C 109.86 12.29 106.04 12.48 102.73 14.27 C 102.30 14.74 101.46 15.67 101.04 16.14 C 99.47 15.71 97.90 15.26 96.33 14.82 C 97.45 13.81 98.53 12.75 99.66 11.75 Z" />
<path fill="#427bcb" opacity="1.00" d=" M 214.12 10.13 C 217.38 9.63 220.71 9.55 224.00 9.46 L 224.00 11.99 C 220.84 11.79 217.61 12.31 214.95 14.14 C 214.45 14.63 213.46 15.62 212.96 16.11 C 211.41 15.69 209.87 15.26 208.33 14.83 C 210.23 13.25 211.79 11.09 214.12 10.13 Z" />
</g>
<g id="#4179c9ff">
<path fill="#4179c9" opacity="1.00" d=" M 43.66 10.28 C 48.44 10.50 53.23 10.65 58.01 11.02 C 57.87 11.56 57.60 12.64 57.46 13.17 C 54.60 13.49 51.74 13.81 48.93 14.48 C 48.46 14.61 47.51 14.86 47.03 14.98 C 45.18 16.99 43.44 19.09 41.69 21.18 L 41.22 21.74 L 40.48 22.59 C 39.88 22.29 38.70 21.69 38.11 21.40 C 35.94 20.26 33.82 19.06 31.62 18.00 C 33.85 17.29 36.03 16.42 38.20 15.55 C 36.72 14.87 35.25 14.18 33.76 13.54 C 37.36 14.14 41.01 14.31 44.65 14.38 C 44.32 13.02 43.99 11.65 43.66 10.28 Z" />
</g>
<g id="#a1afbdff">
<path fill="#a1afbd" opacity="1.00" d=" M 65.58 12.40 C 66.69 11.61 67.75 10.76 68.77 9.86 C 68.97 10.15 69.37 10.74 69.56 11.03 C 70.37 12.05 71.18 13.06 71.99 14.08 C 71.67 14.07 71.02 14.06 70.70 14.05 C 69.00 13.48 67.30 12.90 65.58 12.40 Z" />
</g>
<g id="#a2b8cdff">
<path fill="#a2b8cd" opacity="1.00" d=" M 130.35 10.44 C 131.51 11.45 132.78 12.31 134.12 13.05 C 132.93 13.76 131.67 14.34 130.38 14.83 C 129.61 13.59 128.65 13.30 127.50 13.93 C 127.01 14.23 126.02 14.82 125.52 15.12 C 124.37 14.83 123.21 14.57 122.06 14.31 C 121.54 13.98 120.50 13.32 119.99 12.99 L 121.05 13.16 C 122.46 13.32 123.10 12.62 122.96 11.08 L 123.76 11.00 C 125.95 10.81 128.15 10.63 130.35 10.44 Z" />
</g>
<g id="#443d30ff">
<path fill="#443d30" opacity="1.00" d=" M 135.98 11.92 C 138.15 9.98 140.79 10.37 142.75 12.38 C 142.18 12.52 141.05 12.80 140.49 12.94 C 139.15 12.05 137.53 11.90 135.98 11.92 Z" />
</g>
<g id="#7c6a4eff">
<path fill="#7c6a4e" opacity="1.00" d=" M 23.69 13.43 C 24.37 12.33 26.83 9.95 27.54 12.12 C 26.79 13.55 25.06 13.47 23.69 13.43 Z" />
</g>
<g id="#9c8a4eff">
<path fill="#9c8a4e" opacity="1.00" d=" M 122.16 11.03 L 122.96 11.08 C 123.10 12.62 122.46 13.32 121.05 13.16 C 121.33 12.63 121.88 11.56 122.16 11.03 Z" />
<path fill="#9c8a4e" opacity="1.00" d=" M 47.43 15.63 C 48.79 16.73 47.50 18.61 45.96 17.99 C 46.33 17.40 47.06 16.22 47.43 15.63 Z" />
<path fill="#9c8a4e" opacity="1.00" d=" M 103.17 15.37 C 104.46 16.22 103.99 18.07 102.47 18.24 C 102.64 17.52 103.00 16.08 103.17 15.37 Z" />
<path fill="#9c8a4e" opacity="1.00" d=" M 215.47 15.38 C 216.63 16.58 215.42 18.40 213.86 17.77 C 214.27 17.17 215.07 15.97 215.47 15.38 Z" />
<path fill="#9c8a4e" opacity="1.00" d=" M 191.65 23.38 C 191.83 24.95 192.06 26.51 192.16 28.09 C 191.21 27.44 190.26 26.80 189.31 26.16 C 190.08 25.23 190.86 24.30 191.65 23.38 Z" />
<path fill="#9c8a4e" opacity="1.00" d=" M 24.87 39.17 C 26.02 37.75 27.43 36.46 29.26 36.05 C 29.21 38.36 26.92 39.42 24.87 39.17 Z" />
<path fill="#9c8a4e" opacity="1.00" d=" M 81.51 38.06 C 82.70 37.34 83.93 36.69 85.21 36.14 C 85.87 38.55 83.13 39.32 81.51 38.06 Z" />
<path fill="#9c8a4e" opacity="1.00" d=" M 137.31 38.87 C 138.38 37.71 139.36 36.13 141.08 35.94 L 141.20 36.42 C 140.59 37.52 139.89 38.55 139.09 39.50 C 138.64 39.34 137.76 39.03 137.31 38.87 Z" />
</g>
<g id="#3d6cc0ff">
<path fill="#3d6cc0" opacity="1.00" d=" M 214.95 14.14 C 217.61 12.31 220.84 11.79 224.00 11.99 L 224.00 18.39 C 223.82 18.88 223.45 19.85 223.27 20.33 L 222.67 19.81 C 220.76 18.12 218.68 16.64 216.56 15.24 C 216.16 14.96 215.36 14.41 214.95 14.14 Z" />
</g>
<g id="#586561ff">
<path fill="#586561" opacity="1.00" d=" M 27.54 12.12 C 27.60 13.33 27.58 14.54 27.58 15.74 C 25.68 15.71 23.78 15.67 21.87 15.66 C 21.18 15.69 19.79 15.77 19.10 15.81 L 18.62 14.81 C 20.33 14.40 22.01 13.91 23.69 13.43 C 25.06 13.47 26.79 13.55 27.54 12.12 Z" />
</g>
<g id="#4575cbff">
<path fill="#4575cb" opacity="1.00" d=" M 39.53 12.12 C 40.95 9.94 42.70 14.02 40.10 13.41 C 39.96 13.09 39.68 12.44 39.53 12.12 Z" />
<path fill="#4575cb" opacity="1.00" d=" M 163.87 44.24 C 164.59 43.25 166.41 43.25 167.13 44.24 C 167.35 45.94 163.65 45.94 163.87 44.24 Z" />
</g>
<g id="#4986cdff">
<path fill="#4986cd" opacity="1.00" d=" M 59.10 14.78 C 57.93 12.38 61.19 11.64 62.59 13.13 L 62.20 13.63 C 61.26 14.30 60.23 14.68 59.10 14.78 Z" />
</g>
<g id="#5b625fff">
<path fill="#5b625f" opacity="1.00" d=" M 65.58 12.40 C 67.30 12.90 69.00 13.48 70.70 14.05 L 69.77 14.22 C 68.56 14.56 67.38 14.99 66.18 15.37 C 64.84 14.81 63.52 14.22 62.20 13.63 L 62.59 13.13 C 62.90 13.05 63.53 12.89 63.85 12.81 C 64.28 12.71 65.14 12.50 65.58 12.40 Z" />
</g>
<g id="#9fb6c9ff">
<path fill="#9fb6c9" opacity="1.00" d=" M 74.71 13.97 C 76.51 13.54 78.29 13.02 80.11 12.70 L 79.60 13.18 C 79.15 13.65 78.26 14.60 77.81 15.07 C 76.91 14.30 75.88 13.94 74.71 13.97 Z" />
</g>
<g id="#726f67ff">
<path fill="#726f67" opacity="1.00" d=" M 80.11 12.70 C 81.80 12.57 83.46 13.00 85.12 13.25 C 84.16 13.94 83.20 14.64 82.25 15.34 C 81.37 14.62 80.48 13.90 79.60 13.18 L 80.11 12.70 Z" />
</g>
<g id="#7391a5ff">
<path fill="#7391a5" opacity="1.00" d=" M 135.97 11.91 L 135.98 11.92 C 136.68 13.95 139.44 15.81 140.49 12.94 C 141.05 12.80 142.18 12.52 142.75 12.38 C 143.17 13.55 143.55 14.74 143.94 15.92 C 142.47 16.48 141.05 17.14 139.64 17.83 C 139.24 18.03 138.43 18.43 138.02 18.63 C 137.89 17.94 137.62 16.55 137.49 15.86 C 137.67 14.26 135.78 13.86 134.87 14.93 C 133.24 15.51 131.56 15.94 129.88 16.30 C 128.42 15.91 126.98 15.50 125.52 15.12 C 126.02 14.82 127.01 14.23 127.50 13.93 C 128.13 15.19 129.09 15.48 130.38 14.83 C 131.67 14.34 132.93 13.76 134.12 13.05 C 134.58 12.76 135.51 12.19 135.97 11.91 Z" />
</g>
<g id="#6c6b62fe">
<path fill="#6c6b62" opacity="1.00" d=" M 135.98 11.92 C 137.53 11.90 139.15 12.05 140.49 12.94 C 139.44 15.81 136.68 13.95 135.98 11.92 Z" />
</g>
<g id="#adc2d9ff">
<path fill="#adc2d9" opacity="1.00" d=" M 173.35 11.91 C 173.79 12.24 174.65 12.90 175.08 13.23 C 174.67 13.35 173.83 13.58 173.41 13.70 L 172.65 13.33 C 172.83 12.98 173.18 12.26 173.35 11.91 Z" />
<path fill="#adc2d9" opacity="1.00" d=" M 182.08 14.18 C 179.38 12.12 183.43 11.06 183.90 13.82 C 183.44 13.91 182.54 14.09 182.08 14.18 Z" />
<path fill="#adc2d9" opacity="1.00" d=" M 187.41 14.07 C 188.43 12.87 189.35 12.94 190.17 14.28 L 189.69 14.90 C 189.12 14.69 187.98 14.28 187.41 14.07 Z" />
<path fill="#adc2d9" opacity="1.00" d=" M 13.02 14.01 C 14.29 13.67 15.07 14.13 15.34 15.40 C 14.90 15.41 14.01 15.43 13.57 15.44 C 13.43 15.09 13.15 14.37 13.02 14.01 Z" />
<path fill="#adc2d9" opacity="1.00" d=" M 104.71 21.52 C 104.05 20.17 104.42 19.25 105.82 18.75 C 106.26 19.93 105.89 20.85 104.71 21.52 Z" />
<path fill="#adc2d9" opacity="1.00" d=" M 213.50 20.74 C 214.12 20.55 215.37 20.18 215.99 20.00 C 215.76 20.42 215.30 21.26 215.06 21.69 C 214.67 21.45 213.89 20.97 213.50 20.74 Z" />
<path fill="#adc2d9" opacity="1.00" d=" M 136.28 27.82 C 136.92 28.67 137.09 29.60 136.80 30.61 C 136.25 30.31 135.17 29.73 134.62 29.43 C 135.04 29.03 135.86 28.22 136.28 27.82 Z" />
<path fill="#adc2d9" opacity="1.00" d=" M 210.21 30.03 C 208.68 29.20 210.13 26.92 211.48 28.10 C 211.35 28.53 211.08 29.39 210.95 29.83 L 210.21 30.03 Z" />
<path fill="#adc2d9" opacity="1.00" d=" M 147.81 28.87 L 148.46 28.98 C 149.64 29.08 150.81 29.16 152.00 29.22 C 150.87 30.12 149.98 31.27 149.04 32.35 L 148.14 32.43 C 148.07 31.90 147.92 30.86 147.84 30.34 C 147.83 29.98 147.82 29.24 147.81 28.87 Z" />
<path fill="#adc2d9" opacity="1.00" d=" M 192.81 31.93 C 192.34 30.58 192.78 29.81 194.14 29.62 C 193.99 30.22 193.69 31.42 193.54 32.02 L 192.81 31.93 Z" />
<path fill="#adc2d9" opacity="1.00" d=" M 22.51 30.06 L 22.94 30.47 C 22.85 31.09 22.66 32.31 22.57 32.93 C 22.10 32.62 21.16 31.99 20.69 31.68 C 21.15 31.28 22.06 30.47 22.51 30.06 Z" />
<path fill="#adc2d9" opacity="1.00" d=" M 77.67 30.98 C 77.93 30.68 78.44 30.10 78.70 29.80 C 79.09 30.28 79.86 31.23 80.25 31.70 C 79.60 31.52 78.32 31.16 77.67 30.98 Z" />
<path fill="#adc2d9" opacity="1.00" d=" M 199.98 38.50 C 200.57 38.52 201.76 38.54 202.36 38.55 L 202.55 39.30 C 202.16 39.46 201.38 39.77 200.99 39.93 C 200.74 39.57 200.23 38.86 199.98 38.50 Z" />
<path fill="#adc2d9" opacity="1.00" d=" M 76.63 40.70 C 76.34 39.25 78.36 38.80 79.42 38.51 C 79.54 39.10 79.79 40.27 79.91 40.86 C 78.83 40.86 77.61 41.32 76.63 40.70 Z" />
</g>
<g id="#63594bff">
<path fill="#63594b" opacity="1.00" d=" M 190.89 14.00 C 192.73 13.05 194.81 12.93 196.82 13.31 C 194.84 13.49 192.85 13.69 190.89 14.00 Z" />
</g>
<g id="#7893a3fe">
<path fill="#7893a3" opacity="1.00" d=" M 116.18 14.00 C 117.04 12.81 118.65 12.57 119.99 12.99 C 120.50 13.32 121.54 13.98 122.06 14.31 C 120.10 14.70 118.04 14.87 116.18 14.00 Z" />
<path fill="#7893a3" opacity="1.00" d=" M 106.63 21.94 C 107.79 21.01 109.03 20.14 110.43 19.63 C 112.00 22.10 108.33 23.50 106.63 21.94 Z" />
<path fill="#7893a3" opacity="1.00" d=" M 221.81 19.52 L 222.67 19.81 L 223.27 20.33 C 222.88 22.44 220.47 22.32 218.83 22.27 C 219.17 21.86 219.85 21.02 220.19 20.60 C 220.60 20.33 221.41 19.79 221.81 19.52 Z" />
<path fill="#7893a3" opacity="1.00" d=" M 50.57 22.89 C 51.77 22.05 53.01 21.25 54.38 20.70 C 55.77 23.30 52.27 24.70 50.57 22.89 Z" />
</g>
<g id="#332e2aff">
<path fill="#332e2a" opacity="1.00" d=" M 127.50 13.93 C 128.65 13.30 129.61 13.59 130.38 14.83 C 129.09 15.48 128.13 15.19 127.50 13.93 Z" />
<path fill="#332e2a" opacity="1.00" d=" M 200.35 13.76 C 201.65 13.86 202.16 14.52 201.88 15.75 C 201.36 15.38 200.31 14.65 199.79 14.28 L 200.35 13.76 Z" />
<path fill="#332e2a" opacity="1.00" d=" M 199.31 28.26 C 199.78 28.19 200.73 28.06 201.20 28.00 L 200.99 28.87 C 200.65 30.14 200.35 31.41 200.12 32.71 C 199.05 32.57 197.98 32.47 196.91 32.37 C 197.71 31.00 198.51 29.63 199.31 28.26 Z" />
<path fill="#332e2a" opacity="1.00" d=" M 145.24 30.96 C 145.89 30.81 147.19 30.50 147.84 30.34 C 147.92 30.86 148.07 31.90 148.14 32.43 C 147.27 32.50 146.39 32.54 145.51 32.53 C 145.44 32.14 145.31 31.35 145.24 30.96 Z" />
<path fill="#332e2a" opacity="1.00" d=" M 139.26 30.78 C 139.85 30.98 141.05 31.36 141.64 31.56 L 141.65 32.35 L 140.89 32.66 C 140.48 32.19 139.67 31.25 139.26 30.78 Z" />
<path fill="#332e2a" opacity="1.00" d=" M 81.85 32.68 C 82.51 32.51 83.82 32.19 84.47 32.02 C 84.89 33.73 82.60 33.63 81.85 32.68 Z" />
<path fill="#332e2a" opacity="1.00" d=" M 29.45 39.16 C 30.86 39.32 32.28 39.46 33.70 39.58 C 32.31 40.42 30.97 41.32 29.59 42.16 C 29.54 41.16 29.49 40.16 29.45 39.16 Z" />
<path fill="#332e2a" opacity="1.00" d=" M 85.63 41.37 C 85.25 39.96 86.32 38.87 87.54 38.39 C 87.80 38.71 88.32 39.36 88.58 39.68 C 87.76 40.56 86.77 41.13 85.63 41.37 Z" />
<path fill="#332e2a" opacity="1.00" d=" M 197.08 40.82 C 197.71 39.61 198.68 38.84 199.98 38.50 C 200.23 38.86 200.74 39.57 200.99 39.93 C 199.80 40.65 198.44 40.87 197.08 40.82 Z" />
</g>
<g id="#2b85d2ff">
<path fill="#2b85d2" opacity="1.00" d=" M 33.12 13.29 L 33.76 13.54 C 35.25 14.18 36.72 14.87 38.20 15.55 C 36.03 16.42 33.85 17.29 31.62 18.00 C 30.31 17.85 29.01 17.71 27.70 17.59 C 29.27 17.02 30.81 16.36 32.38 15.78 C 32.75 15.73 33.48 15.63 33.85 15.58 C 33.66 15.01 33.30 13.86 33.12 13.29 Z" />
</g>
<g id="#7291a7ff">
<path fill="#7291a7" opacity="1.00" d=" M 59.10 14.78 C 60.23 14.68 61.26 14.30 62.20 13.63 C 63.52 14.22 64.84 14.81 66.18 15.37 C 65.74 15.50 64.87 15.78 64.44 15.91 C 62.79 15.94 61.14 15.97 59.49 15.94 C 59.39 15.65 59.19 15.07 59.10 14.78 Z" />
</g>
<g id="#2a87d3ff">
<path fill="#2a87d3" opacity="1.00" d=" M 66.18 15.37 C 67.38 14.99 68.56 14.56 69.77 14.22 C 70.87 15.02 71.99 15.80 73.11 16.57 C 70.22 16.31 67.34 16.08 64.44 15.91 C 64.87 15.78 65.74 15.50 66.18 15.37 Z" />
<path fill="#2a87d3" opacity="1.00" d=" M 178.23 15.45 C 179.67 15.19 181.10 14.89 182.53 14.57 C 183.35 15.30 184.18 16.03 185.01 16.75 C 182.15 16.39 179.31 16.08 176.44 15.80 C 176.89 15.71 177.78 15.53 178.23 15.45 Z" />
<path fill="#2a87d3" opacity="1.00" d=" M 10.45 15.99 C 11.72 15.99 12.98 16.01 14.24 16.09 C 15.18 16.62 16.12 17.15 17.06 17.67 C 14.16 17.39 11.25 17.19 8.35 16.88 C 8.88 16.66 9.93 16.21 10.45 15.99 Z" />
</g>
<g id="#728fa3ff">
<path fill="#728fa3" opacity="1.00" d=" M 70.70 14.05 C 71.02 14.06 71.67 14.07 71.99 14.08 C 72.67 14.09 73.35 14.07 74.04 14.04 L 74.71 13.97 C 74.48 15.77 76.92 16.76 77.81 15.07 C 78.26 14.60 79.15 13.65 79.60 13.18 C 80.48 13.90 81.37 14.62 82.25 15.34 C 83.20 14.64 84.16 13.94 85.12 13.25 C 85.72 13.36 86.92 13.58 87.53 13.69 C 87.76 13.85 88.22 14.18 88.45 14.35 C 86.60 15.47 84.77 16.65 82.89 17.73 L 82.35 18.01 L 81.63 17.87 C 81.75 16.27 80.32 14.75 78.77 15.83 C 77.27 16.36 75.74 16.84 74.20 17.24 C 73.93 17.08 73.39 16.74 73.11 16.57 C 71.99 15.80 70.87 15.02 69.77 14.22 L 70.70 14.05 Z" />
</g>
<g id="#3e678eff">
<path fill="#3e678e" opacity="1.00" d=" M 74.71 13.97 C 75.88 13.94 76.91 14.30 77.81 15.07 C 76.92 16.76 74.48 15.77 74.71 13.97 Z" />
<path fill="#3e678e" opacity="1.00" d=" M 186.49 15.53 C 186.72 15.16 187.18 14.44 187.41 14.07 C 187.98 14.28 189.12 14.69 189.69 14.90 C 189.12 16.09 187.41 16.66 186.49 15.53 Z" />
</g>
<g id="#2d85d1ff">
<path fill="#2d85d1" opacity="1.00" d=" M 88.45 14.35 C 90.79 15.02 93.13 15.69 95.45 16.45 C 92.83 16.99 90.20 17.49 87.58 17.96 C 86.02 17.86 84.46 17.76 82.89 17.73 C 84.77 16.65 86.60 15.47 88.45 14.35 Z" />
</g>
<g id="#407fcbfe">
<path fill="#407fcb" opacity="1.00" d=" M 114.86 15.42 C 115.19 15.06 115.85 14.35 116.18 14.00 C 118.04 14.87 120.10 14.70 122.06 14.31 C 123.21 14.57 124.37 14.83 125.52 15.12 C 126.98 15.50 128.42 15.91 129.88 16.30 C 130.92 16.61 131.96 16.95 133.00 17.28 C 132.25 17.62 130.75 18.31 130.00 18.65 C 131.48 19.23 132.96 19.82 134.46 20.36 C 132.93 20.59 131.41 20.81 129.88 20.98 L 129.24 21.03 C 127.82 21.01 124.99 20.95 123.58 20.93 C 123.84 21.50 124.10 22.07 124.36 22.65 C 117.15 24.97 109.70 28.19 105.29 34.69 C 107.19 36.19 109.11 37.67 111.02 39.17 C 106.74 38.24 102.44 37.37 98.25 36.05 C 96.82 35.35 95.43 34.59 93.99 33.93 L 94.57 33.62 C 98.78 33.73 102.79 32.35 106.15 29.83 C 105.09 29.05 104.02 28.27 102.96 27.49 C 102.68 27.29 102.11 26.89 101.82 26.69 C 102.13 26.38 102.75 25.77 103.06 25.47 C 104.06 24.44 105.04 23.39 106.07 22.37 L 106.63 21.94 C 108.33 23.50 112.00 22.10 110.43 19.63 C 110.23 19.30 109.84 18.62 109.64 18.28 C 110.56 17.23 111.47 16.18 112.39 15.13 C 113.17 15.72 113.95 16.31 114.73 16.90 C 112.63 21.47 109.78 26.59 104.06 26.25 C 104.24 26.68 104.60 27.54 104.78 27.96 C 110.84 26.69 116.58 24.28 122.03 21.38 C 120.04 20.92 118.04 20.45 116.05 19.98 C 116.84 19.57 117.64 19.15 118.44 18.75 C 117.24 17.64 116.04 16.53 114.86 15.42 M 119.53 16.12 C 119.68 16.44 119.96 17.09 120.10 17.41 C 122.70 18.02 120.95 13.94 119.53 16.12 Z" />
</g>
<g id="#41635fff">
<path fill="#41635f" opacity="1.00" d=" M 134.87 14.93 C 135.78 13.86 137.67 14.26 137.49 15.86 C 136.83 15.62 135.52 15.16 134.87 14.93 Z" />
<path fill="#41635f" opacity="1.00" d=" M 78.77 15.83 C 80.32 14.75 81.75 16.27 81.63 17.87 C 80.29 17.72 79.34 17.04 78.77 15.83 Z" />
<path fill="#41635f" opacity="1.00" d=" M 191.21 16.66 C 191.42 15.32 193.75 14.51 193.67 16.42 L 193.03 17.00 C 192.57 16.92 191.66 16.74 191.21 16.66 Z" />
<path fill="#41635f" opacity="1.00" d=" M 22.86 17.23 C 23.62 16.06 26.04 16.16 25.43 17.96 C 24.79 17.78 23.51 17.41 22.86 17.23 Z" />
<path fill="#41635f" opacity="1.00" d=" M 41.69 21.18 C 42.26 21.52 43.39 22.20 43.96 22.54 L 43.68 23.06 C 43.06 22.73 41.84 22.07 41.22 21.74 L 41.69 21.18 Z" />
<path fill="#41635f" opacity="1.00" d=" M 210.15 21.20 C 210.60 21.31 211.50 21.54 211.95 21.65 L 211.92 22.30 C 211.33 22.40 210.14 22.59 209.54 22.68 C 209.69 22.31 210.00 21.57 210.15 21.20 Z" />
</g>
<g id="#7893a3ff">
<path fill="#7893a3" opacity="1.00" d=" M 171.78 15.48 C 172.08 14.77 172.37 14.05 172.65 13.33 L 173.41 13.70 C 174.99 14.35 176.60 14.92 178.23 15.45 C 177.78 15.53 176.89 15.71 176.44 15.80 C 174.89 15.70 173.33 15.58 171.78 15.48 Z" />
<path fill="#7893a3" opacity="1.00" d=" M 2.94 15.83 C 3.78 15.51 4.61 15.18 5.44 14.85 L 6.20 14.57 C 7.61 15.05 9.03 15.52 10.45 15.99 C 9.93 16.21 8.88 16.66 8.35 16.88 C 6.75 16.75 5.16 16.54 3.58 16.29 L 2.94 15.83 Z" />
</g>
<g id="#7995a7ff">
<path fill="#7995a7" opacity="1.00" d=" M 182.08 14.18 C 182.54 14.09 183.44 13.91 183.90 13.82 C 184.38 14.12 185.34 14.73 185.82 15.04 L 186.49 15.53 C 187.41 16.66 189.12 16.09 189.69 14.90 L 190.17 14.28 L 190.89 14.00 C 192.85 13.69 194.84 13.49 196.82 13.31 C 197.53 13.40 198.95 13.57 199.65 13.66 L 200.35 13.76 L 199.79 14.28 C 198.20 15.63 196.53 16.85 194.81 18.01 L 194.07 18.52 C 193.97 17.99 193.77 16.95 193.67 16.42 C 193.75 14.51 191.42 15.32 191.21 16.66 C 189.51 16.82 187.81 17.00 186.10 17.10 C 185.83 17.01 185.29 16.84 185.01 16.75 C 184.18 16.03 183.35 15.30 182.53 14.57 L 182.08 14.18 Z" />
</g>
<g id="#718fa3fe">
<path fill="#718fa3" opacity="1.00" d=" M 13.57 15.44 C 14.01 15.43 14.90 15.41 15.34 15.40 C 16.43 15.22 17.53 15.04 18.62 14.81 L 19.10 15.81 C 19.32 17.60 21.67 17.28 21.87 15.66 C 23.78 15.67 25.68 15.71 27.58 15.74 C 29.18 15.76 30.78 15.80 32.38 15.78 C 30.81 16.36 29.27 17.02 27.70 17.59 C 27.36 17.65 26.70 17.78 26.36 17.84 L 25.43 17.96 C 26.04 16.16 23.62 16.06 22.86 17.23 C 21.30 17.56 19.73 17.89 18.16 18.21 C 17.89 18.08 17.34 17.80 17.06 17.67 C 16.12 17.15 15.18 16.62 14.24 16.09 L 13.57 15.44 Z" />
</g>
<g id="#625d4dfe">
<path fill="#625d4d" opacity="1.00" d=" M 41.69 21.18 C 43.44 19.09 45.18 16.99 47.03 14.98 L 47.43 15.63 C 47.06 16.22 46.33 17.40 45.96 17.99 C 45.28 19.50 44.62 21.02 43.96 22.54 C 43.39 22.20 42.26 21.52 41.69 21.18 Z" />
</g>
<g id="#605a50ff">
<path fill="#605a50" opacity="1.00" d=" M 47.03 14.98 C 47.51 14.86 48.46 14.61 48.93 14.48 C 49.19 17.40 49.19 20.32 48.94 23.23 C 47.43 22.44 45.63 22.05 43.96 22.54 C 44.62 21.02 45.28 19.50 45.96 17.99 C 47.50 18.61 48.79 16.73 47.43 15.63 L 47.03 14.98 Z" />
</g>
<g id="#3c3834ff">
<path fill="#3c3834" opacity="1.00" d=" M 48.93 14.48 C 50.47 15.63 52.01 16.77 53.59 17.87 C 53.78 18.58 54.18 20.00 54.38 20.70 C 53.01 21.25 51.77 22.05 50.57 22.89 L 49.91 23.32 L 48.92 23.69 L 48.94 23.23 C 49.19 20.32 49.19 17.40 48.93 14.48 M 51.15 18.40 C 50.30 22.38 55.14 17.58 51.15 18.40 Z" />
</g>
<g id="#407dcaff">
<path fill="#407dca" opacity="1.00" d=" M 59.49 15.94 C 61.14 15.97 62.79 15.94 64.44 15.91 C 67.34 16.08 70.22 16.31 73.11 16.57 C 73.39 16.74 73.93 17.08 74.20 17.24 C 75.67 18.20 77.10 19.21 78.58 20.16 C 74.80 20.46 71.02 20.76 67.25 21.06 C 67.58 22.21 67.92 23.37 68.27 24.52 C 62.15 27.26 55.63 29.43 50.13 33.29 C 48.99 36.68 52.95 38.28 54.90 40.26 C 48.90 38.73 42.82 37.52 36.92 35.65 C 35.78 35.31 34.63 34.97 33.49 34.63 L 34.46 34.28 C 34.77 34.17 35.39 33.95 35.70 33.84 C 36.84 34.92 38.52 34.96 39.88 34.27 C 43.58 33.25 47.14 31.77 50.46 29.86 C 49.79 29.56 48.44 28.95 47.77 28.65 C 46.54 27.97 45.03 28.06 43.82 28.76 C 43.95 28.50 44.22 27.99 44.35 27.74 C 45.22 26.95 46.11 26.20 47.03 25.47 C 47.98 24.74 48.94 24.02 49.91 23.32 L 50.57 22.89 C 52.27 24.70 55.77 23.30 54.38 20.70 C 54.18 20.00 53.78 18.58 53.59 17.87 C 55.65 17.55 57.72 17.28 59.79 16.94 C 59.71 16.69 59.57 16.19 59.49 15.94 M 56.53 18.72 C 56.13 20.26 55.31 23.34 54.91 24.88 C 52.48 25.47 50.05 26.09 47.63 26.71 C 54.12 30.70 61.02 25.72 66.54 22.31 C 63.34 20.75 59.99 19.54 56.53 18.72 Z" />
</g>
<g id="#514c40ff">
<path fill="#514c40" opacity="1.00" d=" M 101.04 16.14 C 101.46 15.67 102.30 14.74 102.73 14.27 L 103.17 15.37 C 103.00 16.08 102.64 17.52 102.47 18.24 C 100.77 19.09 99.14 20.07 97.50 21.03 L 97.85 20.50 C 98.86 19.01 99.90 17.54 101.04 16.14 Z" />
</g>
<g id="#67665cff">
<path fill="#67665c" opacity="1.00" d=" M 102.73 14.27 C 103.16 14.51 104.04 15.01 104.48 15.25 C 104.95 16.41 105.39 17.58 105.82 18.75 C 104.42 19.25 104.05 20.17 104.71 21.52 L 105.04 22.23 C 103.49 21.61 101.82 21.91 100.22 22.11 C 99.31 21.75 98.41 21.39 97.50 21.03 C 99.14 20.07 100.77 19.09 102.47 18.24 C 103.99 18.07 104.46 16.22 103.17 15.37 L 102.73 14.27 Z" />
</g>
<g id="#464442ff">
<path fill="#464442" opacity="1.00" d=" M 104.48 15.25 C 106.22 16.21 107.99 17.15 109.64 18.28 C 109.84 18.62 110.23 19.30 110.43 19.63 C 109.03 20.14 107.79 21.01 106.63 21.94 L 106.07 22.37 L 105.35 22.82 L 105.04 22.23 L 104.71 21.52 C 105.89 20.85 106.26 19.93 105.82 18.75 C 105.39 17.58 104.95 16.41 104.48 15.25 Z" />
</g>
<g id="#2f8ad0ff">
<path fill="#2f8ad0" opacity="1.00" d=" M 134.87 14.93 C 135.52 15.16 136.83 15.62 137.49 15.86 C 137.62 16.55 137.89 17.94 138.02 18.63 C 137.38 19.11 136.74 19.59 136.12 20.09 C 135.71 20.16 134.87 20.29 134.46 20.36 C 132.96 19.82 131.48 19.23 130.00 18.65 C 130.75 18.31 132.25 17.62 133.00 17.28 C 131.96 16.95 130.92 16.61 129.88 16.30 C 131.56 15.94 133.24 15.51 134.87 14.93 Z" />
</g>
<g id="#2f85d1ff">
<path fill="#2f85d1" opacity="1.00" d=" M 143.94 15.92 C 146.45 15.76 148.98 15.91 151.48 16.18 C 148.85 16.81 146.21 17.39 143.56 17.92 C 142.25 17.86 140.95 17.83 139.64 17.83 C 141.05 17.14 142.47 16.48 143.94 15.92 Z" />
</g>
<g id="#494337ff">
<path fill="#494337" opacity="1.00" d=" M 158.57 14.52 C 161.29 15.65 163.98 16.86 166.55 18.30 L 166.54 18.91 L 165.82 18.83 C 164.36 18.66 162.91 18.47 161.45 18.28 C 160.70 16.67 158.67 16.24 157.48 17.63 L 157.25 17.79 L 156.49 18.20 C 157.18 16.97 157.87 15.75 158.57 14.52 Z" />
</g>
<g id="#417dc9ff">
<path fill="#417dc9" opacity="1.00" d=" M 166.74 15.14 C 168.14 15.98 169.52 16.83 170.91 17.68 C 171.19 16.94 171.48 16.21 171.78 15.48 C 173.33 15.58 174.89 15.70 176.44 15.80 C 179.31 16.08 182.15 16.39 185.01 16.75 C 185.29 16.84 185.83 17.01 186.10 17.10 C 187.70 17.71 189.26 18.39 190.83 19.06 C 186.92 19.46 183.02 19.88 179.12 20.24 C 179.48 21.65 179.85 23.06 180.23 24.46 C 176.14 26.26 172.16 28.80 167.55 28.76 C 164.16 28.43 163.21 32.16 161.79 34.47 C 163.55 35.66 165.32 36.85 167.09 38.04 C 162.71 37.15 158.31 36.38 153.89 35.72 C 152.19 34.48 149.42 33.26 148.27 35.84 C 147.65 35.66 146.43 35.29 145.82 35.11 C 147.27 34.12 148.75 33.17 150.28 32.30 C 154.48 32.07 158.68 31.29 162.56 29.65 C 160.94 28.86 159.33 28.07 157.68 27.37 C 156.44 26.78 154.96 27.12 153.81 27.76 C 153.97 27.33 154.28 26.48 154.44 26.05 C 154.95 25.92 155.98 25.66 156.49 25.52 C 158.73 25.12 160.99 24.87 163.24 24.55 C 161.97 24.44 160.71 24.32 159.45 24.20 C 159.97 23.25 160.49 22.30 160.97 21.32 L 161.16 20.90 C 161.55 20.99 162.32 21.17 162.71 21.26 C 164.47 22.11 167.03 21.20 166.54 18.91 L 166.55 18.30 C 166.56 17.25 166.65 16.19 166.74 15.14 M 172.53 17.12 C 172.68 17.44 172.96 18.09 173.10 18.41 C 175.70 19.02 173.95 14.94 172.53 17.12 M 168.83 18.81 C 169.00 24.26 163.89 25.98 159.81 27.17 C 166.29 27.25 173.45 26.85 178.53 22.29 C 175.42 20.79 172.18 19.60 168.83 18.81 Z" />
</g>
<g id="#3181ceff">
<path fill="#3181ce" opacity="1.00" d=" M 194.81 18.01 C 196.53 16.85 198.20 15.63 199.79 14.28 C 200.31 14.65 201.36 15.38 201.88 15.75 C 203.73 15.93 205.57 16.13 207.41 16.38 C 204.80 16.94 202.19 17.45 199.57 17.92 C 197.98 17.93 196.39 17.94 194.81 18.01 Z" />
</g>
<g id="#5a5f5dff">
<path fill="#5a5f5d" opacity="1.00" d=" M 212.96 16.11 C 213.46 15.62 214.45 14.63 214.95 14.14 L 215.47 15.38 C 215.07 15.97 214.27 17.17 213.86 17.77 C 213.22 19.06 212.57 20.35 211.95 21.65 C 211.50 21.54 210.60 21.31 210.15 21.20 L 209.99 20.35 C 210.85 18.85 211.86 17.44 212.96 16.11 Z" />
</g>
<g id="#645949ff">
<path fill="#645949" opacity="1.00" d=" M 214.95 14.14 C 215.36 14.41 216.16 14.96 216.56 15.24 C 217.16 16.87 217.72 18.51 218.25 20.17 C 217.69 20.13 216.56 20.04 215.99 20.00 C 215.37 20.18 214.12 20.55 213.50 20.74 C 213.11 20.97 212.33 21.42 211.95 21.65 C 212.57 20.35 213.22 19.06 213.86 17.77 C 215.42 18.40 216.63 16.58 215.47 15.38 L 214.95 14.14 Z" />
</g>
<g id="#3f3e3aff">
<path fill="#3f3e3a" opacity="1.00" d=" M 216.56 15.24 C 218.68 16.64 220.76 18.12 222.67 19.81 L 221.81 19.52 C 220.26 17.30 216.99 19.61 220.19 20.60 C 219.85 21.02 219.17 21.86 218.83 22.27 C 218.28 22.36 217.19 22.53 216.64 22.61 C 216.24 22.38 215.46 21.92 215.06 21.69 C 215.30 21.26 215.76 20.42 215.99 20.00 C 216.56 20.04 217.69 20.13 218.25 20.17 C 217.72 18.51 217.16 16.87 216.56 15.24 Z" />
</g>
<g id="#427dcaff">
<path fill="#427dca" opacity="1.00" d=" M 3.58 16.29 C 5.16 16.54 6.75 16.75 8.35 16.88 C 11.25 17.19 14.16 17.39 17.06 17.67 C 17.34 17.80 17.89 18.08 18.16 18.21 C 19.57 18.90 20.99 19.57 22.44 20.17 C 18.73 20.57 15.02 20.99 11.31 21.46 C 11.56 23.22 11.86 24.99 12.16 26.75 C 8.12 28.19 4.07 29.59 0.00 30.95 L 0.00 28.87 C 3.93 27.76 7.90 26.53 11.18 24.00 C 7.91 21.46 3.94 20.24 0.00 19.16 L 0.00 17.12 C 2.31 18.09 4.73 18.74 7.13 19.47 C 5.96 18.39 4.79 17.31 3.58 16.29 Z" />
</g>
<g id="#3d689eff">
<path fill="#3d689e" opacity="1.00" d=" M 19.10 15.81 C 19.79 15.77 21.18 15.69 21.87 15.66 C 21.67 17.28 19.32 17.60 19.10 15.81 Z" />
</g>
<g id="#2889d5ff">
<path fill="#2889d5" opacity="1.00" d=" M 78.77 15.83 C 79.34 17.04 80.29 17.72 81.63 17.87 L 82.35 18.01 C 81.61 18.67 80.88 19.35 80.16 20.04 C 79.77 20.07 78.98 20.13 78.58 20.16 C 77.10 19.21 75.67 18.20 74.20 17.24 C 75.74 16.84 77.27 16.36 78.77 15.83 Z" />
<path fill="#2889d5" opacity="1.00" d=" M 62.60 30.39 C 65.94 29.05 69.34 27.87 72.65 26.46 C 71.90 27.62 71.13 28.78 70.40 29.96 C 68.98 30.07 67.57 30.18 66.15 30.26 C 64.97 30.29 63.78 30.34 62.60 30.39 Z" />
<path fill="#2889d5" opacity="1.00" d=" M 213.40 28.06 L 213.81 27.37 C 215.26 28.18 216.75 28.95 218.23 29.71 C 214.80 32.15 210.66 35.03 206.35 32.73 C 206.02 32.53 205.36 32.12 205.03 31.92 C 206.76 31.30 208.47 30.62 210.21 30.03 L 210.95 29.83 C 212.20 29.83 213.02 29.24 213.40 28.06 Z" />
</g>
<g id="#7993a3ff">
<path fill="#7993a3" opacity="1.00" d=" M 119.53 16.12 C 120.95 13.94 122.70 18.02 120.10 17.41 C 119.96 17.09 119.68 16.44 119.53 16.12 Z" />
<path fill="#7993a3" opacity="1.00" d=" M 165.82 18.83 L 166.54 18.91 C 167.03 21.20 164.47 22.11 162.71 21.26 C 163.60 20.27 164.64 19.46 165.82 18.83 Z" />
<path fill="#7993a3" opacity="1.00" d=" M 157.14 21.96 C 157.15 21.64 157.17 21.01 157.18 20.69 C 158.52 20.40 159.84 20.47 161.16 20.90 L 160.97 21.32 C 159.82 21.97 158.45 22.37 157.14 21.96 Z" />
<path fill="#7993a3" opacity="1.00" d=" M 100.22 22.11 C 101.82 21.91 103.49 21.61 105.04 22.23 L 105.35 22.82 C 103.74 24.34 101.61 23.40 100.22 22.11 Z" />
<path fill="#7993a3" opacity="1.00" d=" M 211.95 21.65 C 212.33 21.42 213.11 20.97 213.50 20.74 C 213.89 20.97 214.67 21.45 215.06 21.69 C 215.46 21.92 216.24 22.38 216.64 22.61 C 215.08 22.96 213.31 23.36 211.92 22.30 L 211.95 21.65 Z" />
<path fill="#7993a3" opacity="1.00" d=" M 43.96 22.54 C 45.63 22.05 47.43 22.44 48.94 23.23 L 48.92 23.69 C 47.19 24.49 45.33 23.65 43.68 23.06 L 43.96 22.54 Z" />
<path fill="#7993a3" opacity="1.00" d=" M 130.43 28.42 C 130.77 28.26 131.44 27.95 131.78 27.79 C 132.11 28.56 132.77 30.09 133.10 30.86 L 132.55 31.38 C 131.22 30.85 130.52 29.86 130.43 28.42 Z" />
<path fill="#7993a3" opacity="1.00" d=" M 211.48 28.10 C 211.96 28.09 212.92 28.07 213.40 28.06 C 213.02 29.24 212.20 29.83 210.95 29.83 C 211.08 29.39 211.35 28.53 211.48 28.10 Z" />
<path fill="#7993a3" opacity="1.00" d=" M 73.26 29.68 C 74.60 29.43 75.69 29.86 76.52 30.97 L 76.63 31.62 L 75.87 32.09 C 74.49 31.79 73.62 30.99 73.26 29.68 Z" />
<path fill="#7993a3" opacity="1.00" d=" M 16.42 30.84 C 17.64 30.65 18.64 31.01 19.44 31.94 L 19.54 32.88 L 18.91 33.51 C 17.63 33.03 16.81 32.15 16.42 30.84 Z" />
<path fill="#7993a3" opacity="1.00" d=" M 90.80 32.90 C 91.14 32.63 91.83 32.10 92.18 31.83 C 92.62 31.85 93.50 31.87 93.94 31.89 C 94.10 32.32 94.41 33.19 94.57 33.62 L 93.99 33.93 C 92.91 33.64 91.85 33.28 90.80 32.90 Z" />
<path fill="#7993a3" opacity="1.00" d=" M 35.70 33.84 C 36.86 33.26 38.08 33.01 39.37 33.10 L 39.88 33.53 L 39.88 34.27 C 38.52 34.96 36.84 34.92 35.70 33.84 Z" />
<path fill="#7993a3" opacity="1.00" d=" M 137.31 38.87 C 137.76 39.03 138.64 39.34 139.09 39.50 L 139.09 40.43 C 137.99 40.79 137.19 40.44 136.68 39.39 L 137.31 38.87 Z" />
</g>
<g id="#88764eff">
<path fill="#88764e" opacity="1.00" d=" M 157.48 17.63 C 158.67 16.24 160.70 16.67 161.45 18.28 C 160.20 19.51 158.28 19.19 157.48 17.63 Z" />
</g>
<g id="#2988d4ff">
<path fill="#2988d4" opacity="1.00" d=" M 22.86 17.23 C 23.51 17.41 24.79 17.78 25.43 17.96 L 26.36 17.84 C 25.62 18.62 24.89 19.40 24.17 20.20 C 23.74 20.20 22.87 20.18 22.44 20.17 C 20.99 19.57 19.57 18.90 18.16 18.21 C 19.73 17.89 21.30 17.56 22.86 17.23 Z" />
<path fill="#2988d4" opacity="1.00" d=" M 118.48 30.47 C 122.16 28.20 126.21 26.64 130.35 25.46 C 129.23 26.54 128.18 27.69 127.09 28.79 C 125.80 29.06 124.51 29.32 123.21 29.58 C 121.64 29.89 120.06 30.18 118.48 30.47 Z" />
</g>
<g id="#3c6bbeff">
<path fill="#3c6bbe" opacity="1.00" d=" M 172.53 17.12 C 173.95 14.94 175.70 19.02 173.10 18.41 C 172.96 18.09 172.68 17.44 172.53 17.12 Z" />
<path fill="#3c6bbe" opacity="1.00" d=" M 193.03 17.00 L 193.67 16.42 C 193.77 16.95 193.97 17.99 194.07 18.52 C 191.43 21.12 188.84 23.78 186.33 26.51 C 185.97 26.42 185.26 26.23 184.90 26.14 L 184.15 26.00 C 182.90 26.65 181.69 27.35 180.47 28.04 C 178.67 29.04 176.84 29.98 175.00 30.91 C 175.44 30.92 176.33 30.94 176.77 30.96 C 178.64 32.35 180.39 33.89 182.13 35.44 C 178.81 36.24 175.53 37.09 172.24 37.99 C 174.37 41.95 177.32 45.49 181.76 46.91 C 179.30 44.53 176.96 42.03 175.14 39.13 C 180.94 37.68 186.88 36.45 192.88 37.14 C 192.54 37.44 191.86 38.04 191.52 38.34 C 190.97 38.59 189.88 39.09 189.34 39.34 C 186.82 39.70 184.30 40.01 181.78 40.28 C 185.55 41.23 189.92 42.20 191.54 46.24 C 190.02 46.65 188.51 47.06 187.00 47.46 C 187.83 48.17 188.66 48.88 189.50 49.59 C 187.70 51.30 185.89 53.01 184.11 54.73 C 186.96 53.46 189.66 51.52 192.84 51.23 C 195.28 51.81 197.37 53.29 199.51 54.53 C 198.16 55.04 196.81 55.53 195.45 56.00 L 149.97 56.00 C 145.36 51.11 138.43 49.77 133.54 45.31 C 132.72 46.02 131.88 46.71 131.01 47.36 C 131.70 47.63 133.07 48.18 133.76 48.46 C 131.86 50.18 129.97 51.90 128.08 53.63 C 133.49 50.49 140.18 49.55 145.60 53.21 C 143.61 53.45 139.63 53.92 137.65 54.16 C 138.13 54.62 139.09 55.54 139.57 56.00 L 93.31 56.00 C 87.97 53.96 83.06 51.02 78.26 47.98 C 82.21 46.59 86.16 45.10 90.28 44.23 C 94.41 44.02 97.71 48.41 101.93 47.10 C 106.38 46.24 111.42 45.57 114.85 49.19 C 115.51 47.89 116.18 46.58 116.85 45.28 C 112.44 45.22 108.03 44.96 103.63 44.77 C 103.54 42.82 103.49 40.87 103.36 38.93 C 102.46 40.56 101.66 42.27 100.43 43.69 C 97.45 45.16 94.53 43.81 91.75 42.86 C 94.37 41.86 97.00 40.87 99.60 39.81 C 97.97 39.01 96.32 38.23 94.68 37.44 C 94.12 37.13 93.01 36.52 92.45 36.22 C 94.38 36.19 96.31 36.08 98.25 36.05 C 102.44 37.37 106.74 38.24 111.02 39.17 C 109.11 37.67 107.19 36.19 105.29 34.69 C 109.70 28.19 117.15 24.97 124.36 22.65 C 124.10 22.07 123.84 21.50 123.58 20.93 C 124.99 20.95 127.82 21.01 129.24 21.03 C 128.81 22.25 129.10 23.18 130.13 23.81 C 131.82 23.73 130.76 21.48 129.88 20.98 C 131.41 20.81 132.93 20.59 134.46 20.36 C 134.87 20.29 135.71 20.16 136.12 20.09 C 135.48 20.76 134.86 21.43 134.24 22.12 C 133.00 23.30 131.69 24.39 130.35 25.46 C 126.21 26.64 122.16 28.20 118.48 30.47 C 120.06 30.18 121.64 29.89 123.21 29.58 C 124.34 30.07 125.47 30.58 126.60 31.08 C 125.94 32.71 125.36 34.40 124.41 35.90 C 120.94 37.16 117.26 37.22 113.64 37.17 C 115.10 38.19 116.33 40.17 118.21 40.27 C 123.37 38.46 128.04 35.45 133.22 33.68 C 131.84 36.76 129.58 39.39 126.40 40.68 C 130.56 41.38 134.00 43.77 137.55 45.82 C 145.39 45.54 153.40 47.56 161.15 45.69 C 161.00 43.52 160.88 41.35 160.86 39.17 C 157.96 43.60 152.92 45.19 147.87 44.05 C 148.63 43.72 150.15 43.05 150.92 42.72 C 149.95 42.26 149.00 41.79 148.05 41.32 C 149.95 40.74 151.83 40.12 153.73 39.56 C 153.26 40.56 152.79 41.57 152.33 42.59 C 153.01 42.37 154.38 41.94 155.06 41.72 C 155.07 40.96 155.10 39.44 155.12 38.69 C 153.21 37.76 151.19 37.11 149.22 36.36 L 148.85 36.21 C 150.55 36.30 152.22 35.98 153.89 35.72 C 158.31 36.38 162.71 37.15 167.09 38.04 C 165.32 36.85 163.55 35.66 161.79 34.47 C 163.21 32.16 164.16 28.43 167.55 28.76 C 172.16 28.80 176.14 26.26 180.23 24.46 C 179.85 23.06 179.48 21.65 179.12 20.24 C 183.02 19.88 186.92 19.46 190.83 19.06 C 191.38 18.54 192.48 17.52 193.03 17.00 M 163.87 44.24 C 163.65 45.94 167.35 45.94 167.13 44.24 C 166.41 43.25 164.59 43.25 163.87 44.24 M 113.55 51.57 C 116.81 52.07 120.09 52.58 123.39 52.91 C 120.45 50.72 116.88 49.24 113.55 51.57 Z" />
<path fill="#3c6bbe" opacity="1.00" d=" M 56.53 18.72 C 59.99 19.54 63.34 20.75 66.54 22.31 C 61.02 25.72 54.12 30.70 47.63 26.71 C 50.05 26.09 52.48 25.47 54.91 24.88 C 55.31 23.34 56.13 20.26 56.53 18.72 Z" />
<path fill="#3c6bbe" opacity="1.00" d=" M 168.83 18.81 C 172.18 19.60 175.42 20.79 178.53 22.29 C 173.45 26.85 166.29 27.25 159.81 27.17 C 163.89 25.98 169.00 24.26 168.83 18.81 Z" />
<path fill="#3c6bbe" opacity="1.00" d=" M 22.44 20.17 C 22.87 20.18 23.74 20.20 24.17 20.20 C 22.36 22.23 20.43 24.17 18.22 25.76 C 17.58 26.15 16.95 26.53 16.31 26.90 C 13.22 28.30 10.05 29.49 6.91 30.73 C 7.40 30.79 8.37 30.91 8.86 30.97 C 10.81 32.46 12.60 34.13 14.36 35.85 C 9.60 36.75 4.75 37.02 0.00 37.91 L 0.00 30.95 C 4.07 29.59 8.12 28.19 12.16 26.75 C 11.86 24.99 11.56 23.22 11.31 21.46 C 15.02 20.99 18.73 20.57 22.44 20.17 Z" />
<path fill="#3c6bbe" opacity="1.00" d=" M 214.04 25.62 C 217.65 26.68 221.45 25.88 224.00 23.00 L 224.00 27.51 C 220.90 27.19 217.77 27.04 214.79 26.09 L 214.04 25.62 Z" />
<path fill="#3c6bbe" opacity="1.00" d=" M 8.44 40.08 C 12.73 36.45 18.44 35.98 23.83 36.64 C 23.94 37.50 24.05 38.36 24.17 39.22 L 23.52 39.27 C 23.17 39.29 22.47 39.34 22.13 39.36 C 19.37 39.59 16.62 39.75 13.87 39.96 C 16.55 41.25 19.19 42.60 21.81 44.01 C 21.41 46.24 21.28 48.51 21.20 50.77 C 19.46 52.56 17.71 54.35 15.82 56.00 L 0.00 56.00 L 0.00 38.56 C 2.83 39.22 6.78 38.66 8.24 41.83 C 9.87 44.81 12.66 46.74 15.80 47.89 C 13.24 45.38 10.74 42.83 8.44 40.08 M 2.33 47.90 C 2.83 49.18 3.35 50.46 3.84 51.75 C 3.29 52.55 2.74 53.34 2.19 54.14 C 5.17 54.41 8.15 54.73 11.13 55.00 C 9.00 53.57 6.88 52.14 4.77 50.70 C 5.78 49.33 6.82 47.97 7.84 46.60 C 6.00 47.04 4.17 47.47 2.33 47.90 Z" />
<path fill="#3c6bbe" opacity="1.00" d=" M 190.35 48.02 C 194.41 46.40 198.72 45.09 203.14 45.20 C 206.81 45.43 210.19 47.77 213.92 47.14 C 217.29 46.77 220.63 46.22 224.00 45.78 L 224.00 56.00 L 205.30 56.00 C 199.99 53.99 195.10 51.09 190.35 48.02 Z" />
<path fill="#3c6bbe" opacity="1.00" d=" M 16.80 56.00 C 19.79 54.32 22.65 51.75 26.43 52.46 C 28.25 53.41 29.79 54.79 31.43 56.00 L 16.80 56.00 Z" />
</g>
<g id="#3d3934ff">
<path fill="#3d3934" opacity="1.00" d=" M 26.36 17.84 C 26.70 17.78 27.36 17.65 27.70 17.59 C 29.01 17.71 30.31 17.85 31.62 18.00 C 33.82 19.06 35.94 20.26 38.11 21.40 C 38.06 21.93 37.96 23.00 37.91 23.54 C 37.84 24.16 37.70 25.40 37.63 26.02 C 38.64 26.85 39.64 27.69 40.64 28.53 C 40.42 27.35 40.20 26.17 39.98 25.00 C 41.41 25.94 42.88 26.84 44.35 27.74 C 44.22 27.99 43.95 28.50 43.82 28.76 C 43.70 29.12 43.47 29.84 43.35 30.20 C 41.64 30.45 40.08 31.49 39.37 33.10 C 38.08 33.01 36.86 33.26 35.70 33.84 C 35.39 33.95 34.77 34.17 34.46 34.28 C 32.21 34.24 29.95 34.14 27.70 34.07 C 27.40 34.04 26.81 33.98 26.51 33.95 C 26.04 33.84 25.11 33.60 24.65 33.49 C 29.91 31.05 33.47 26.36 37.01 21.96 C 35.87 21.46 34.73 20.96 33.59 20.46 C 32.04 19.78 30.50 19.10 28.96 18.41 C 27.29 19.90 25.63 21.40 24.00 22.92 C 23.84 23.07 23.52 23.35 23.36 23.50 C 22.09 24.70 20.84 25.93 19.59 27.16 C 19.25 26.81 18.56 26.11 18.22 25.76 C 20.43 24.17 22.36 22.23 24.17 20.20 C 24.89 19.40 25.62 18.62 26.36 17.84 M 34.09 26.45 L 34.34 27.23 C 33.36 28.39 32.49 29.63 31.54 30.81 C 32.57 30.99 34.65 31.35 35.69 31.53 C 36.64 30.46 37.59 29.38 38.49 28.26 C 37.03 27.63 35.55 27.06 34.09 26.45 Z" />
</g>
<g id="#565249ff">
<path fill="#565249" opacity="1.00" d=" M 51.15 18.40 C 55.14 17.58 50.30 22.38 51.15 18.40 Z" />
<path fill="#565249" opacity="1.00" d=" M 150.48 24.80 C 152.44 27.63 147.86 27.25 149.69 24.57 L 150.48 24.80 Z" />
<path fill="#565249" opacity="1.00" d=" M 34.09 26.45 C 35.55 27.06 37.03 27.63 38.49 28.26 C 37.59 29.38 36.64 30.46 35.69 31.53 C 35.22 30.10 34.80 28.66 34.34 27.23 L 34.09 26.45 Z" />
</g>
<g id="#433e39ff">
<path fill="#433e39" opacity="1.00" d=" M 82.35 18.01 L 82.89 17.73 C 84.46 17.76 86.02 17.86 87.58 17.96 C 89.85 19.04 92.04 20.27 94.32 21.35 C 94.24 22.16 94.08 23.79 94.01 24.60 C 93.67 26.01 94.02 28.36 95.93 28.19 C 97.64 27.26 95.39 25.48 94.52 24.81 C 96.39 25.58 98.24 26.41 100.13 27.12 C 99.73 27.64 98.92 28.67 98.52 29.19 C 98.19 29.45 97.53 29.99 97.20 30.25 C 96.64 28.57 94.12 29.62 94.92 31.20 L 94.18 31.28 C 93.96 30.98 93.54 30.37 93.33 30.07 C 93.92 27.88 91.68 25.30 90.00 27.82 C 89.24 28.66 88.48 29.52 87.70 30.34 C 87.39 30.32 86.77 30.26 86.46 30.23 C 88.40 27.28 90.69 24.58 92.95 21.89 C 91.84 21.40 90.73 20.91 89.61 20.43 C 88.08 19.78 86.54 19.14 84.98 18.56 C 83.19 19.88 81.55 21.38 79.98 22.94 C 79.77 23.14 79.37 23.54 79.17 23.74 C 78.21 24.83 77.29 25.95 76.35 27.06 L 76.11 27.35 C 76.02 26.50 75.92 25.66 75.82 24.82 C 77.35 23.30 78.70 21.62 80.16 20.04 C 80.88 19.35 81.61 18.67 82.35 18.01 Z" />
</g>
<g id="#403b35ff">
<path fill="#403b35" opacity="1.00" d=" M 138.02 18.63 C 138.43 18.43 139.24 18.03 139.64 17.83 C 140.95 17.83 142.25 17.86 143.56 17.92 C 145.97 19.05 148.31 20.30 150.67 21.51 C 150.43 22.28 149.94 23.80 149.69 24.57 C 147.86 27.25 152.44 27.63 150.48 24.80 C 151.80 25.20 153.12 25.62 154.44 26.05 C 154.28 26.48 153.97 27.33 153.81 27.76 C 153.71 28.15 153.52 28.91 153.42 29.30 C 153.06 29.28 152.35 29.24 152.00 29.22 C 150.81 29.16 149.64 29.08 148.46 28.98 C 146.77 26.70 147.30 23.99 148.12 21.50 C 147.12 21.04 146.11 20.60 145.10 20.17 C 143.77 19.62 142.43 19.09 141.07 18.64 C 139.17 19.95 137.38 21.40 135.62 22.88 C 135.26 23.18 134.54 23.80 134.18 24.10 C 134.19 23.61 134.23 22.61 134.24 22.12 C 134.86 21.43 135.48 20.76 136.12 20.09 C 136.74 19.59 137.38 19.11 138.02 18.63 Z" />
</g>
<g id="#476164ff">
<path fill="#476164" opacity="1.00" d=" M 153.28 19.57 C 154.35 19.13 155.44 18.70 156.49 18.20 L 157.25 17.79 C 157.23 18.52 157.20 19.97 157.18 20.69 C 157.17 21.01 157.15 21.64 157.14 21.96 C 155.94 21.73 154.74 21.49 153.57 21.14 C 153.49 20.75 153.35 19.96 153.28 19.57 Z" />
</g>
<g id="#99a7b8ff">
<path fill="#99a7b8" opacity="1.00" d=" M 157.25 17.79 L 157.48 17.63 C 158.28 19.19 160.20 19.51 161.45 18.28 C 162.91 18.47 164.36 18.66 165.82 18.83 C 164.64 19.46 163.60 20.27 162.71 21.26 C 162.32 21.17 161.55 20.99 161.16 20.90 C 159.84 20.47 158.52 20.40 157.18 20.69 C 157.20 19.97 157.23 18.52 157.25 17.79 Z" />
</g>
<g id="#44403bff">
<path fill="#44403b" opacity="1.00" d=" M 194.07 18.52 L 194.81 18.01 C 196.39 17.94 197.98 17.93 199.57 17.92 C 201.76 19.00 203.88 20.23 206.09 21.27 C 206.09 21.82 206.07 22.92 206.07 23.46 C 206.01 24.79 205.93 26.12 205.86 27.44 C 207.07 27.12 208.27 26.77 209.48 26.43 C 209.86 26.75 210.62 27.38 211.00 27.70 L 211.48 28.10 C 210.13 26.92 208.68 29.20 210.21 30.03 C 208.47 30.62 206.76 31.30 205.03 31.92 C 204.10 32.19 203.18 32.48 202.27 32.78 L 201.42 33.01 C 201.82 32.59 202.61 31.73 203.01 31.31 C 203.95 30.32 204.91 29.36 205.87 28.39 C 204.76 27.73 203.65 27.08 202.53 26.43 C 203.17 24.84 203.87 23.27 204.52 21.69 C 203.55 21.27 202.58 20.84 201.62 20.43 C 200.07 19.77 198.53 19.13 196.97 18.54 C 195.20 19.84 193.58 21.32 192.08 22.92 C 191.97 23.03 191.76 23.26 191.65 23.38 C 190.86 24.30 190.08 25.23 189.31 26.16 L 188.98 26.57 C 188.82 26.76 188.50 27.16 188.34 27.35 C 187.84 27.14 186.83 26.72 186.33 26.51 C 188.84 23.78 191.43 21.12 194.07 18.52 Z" />
</g>
<g id="#6b6e6dff">
<path fill="#6b6e6d" opacity="1.00" d=" M 220.19 20.60 C 216.99 19.61 220.26 17.30 221.81 19.52 C 221.41 19.79 220.60 20.33 220.19 20.60 Z" />
</g>
<g id="#9c894eff">
<path fill="#9c894e" opacity="1.00" d=" M 24.00 22.92 C 25.63 21.40 27.29 19.90 28.96 18.41 C 29.26 19.57 29.56 20.73 29.86 21.89 C 27.90 22.21 25.94 22.52 24.00 22.92 Z" />
<path fill="#9c894e" opacity="1.00" d=" M 79.98 22.94 C 81.55 21.38 83.19 19.88 84.98 18.56 C 85.27 19.67 85.57 20.78 85.87 21.89 C 83.90 22.21 81.93 22.53 79.98 22.94 Z" />
<path fill="#9c894e" opacity="1.00" d=" M 135.62 22.88 C 137.38 21.40 139.17 19.95 141.07 18.64 C 141.33 19.74 141.59 20.85 141.85 21.95 C 139.76 22.23 137.68 22.51 135.62 22.88 Z" />
<path fill="#9c894e" opacity="1.00" d=" M 192.08 22.92 C 193.58 21.32 195.20 19.84 196.97 18.54 C 197.26 19.65 197.57 20.77 197.87 21.88 C 195.94 22.22 193.99 22.51 192.08 22.92 Z" />
<path fill="#9c894e" opacity="1.00" d=" M 23.36 23.50 C 23.95 24.89 24.53 26.27 25.08 27.68 C 23.45 27.72 21.81 27.76 20.17 27.73 L 19.59 27.16 C 20.84 25.93 22.09 24.70 23.36 23.50 Z" />
</g>
<g id="#75644dff">
<path fill="#75644d" opacity="1.00" d=" M 28.96 18.41 C 30.50 19.10 32.04 19.78 33.59 20.46 C 31.22 22.68 28.61 24.60 26.15 26.72 C 25.27 27.59 25.20 28.58 25.93 29.69 C 24.93 29.94 23.93 30.20 22.94 30.47 L 22.51 30.06 C 21.73 29.29 20.95 28.51 20.17 27.73 C 21.81 27.76 23.45 27.72 25.08 27.68 C 24.53 26.27 23.95 24.89 23.36 23.50 C 23.52 23.35 23.84 23.07 24.00 22.92 C 25.94 22.52 27.90 22.21 29.86 21.89 C 29.56 20.73 29.26 19.57 28.96 18.41 Z" />
</g>
<g id="#766855ff">
<path fill="#766855" opacity="1.00" d=" M 84.98 18.56 C 86.54 19.14 88.08 19.78 89.61 20.43 C 87.27 22.65 84.68 24.56 82.20 26.61 C 81.37 27.34 81.14 28.26 81.49 29.38 C 81.58 30.21 81.76 31.85 81.85 32.68 C 81.45 32.43 80.65 31.95 80.25 31.70 C 79.86 31.23 79.09 30.28 78.70 29.80 L 78.94 29.26 C 79.57 27.93 80.24 26.62 80.88 25.29 C 80.45 24.90 79.60 24.13 79.17 23.74 C 79.37 23.54 79.77 23.14 79.98 22.94 C 81.93 22.53 83.90 22.21 85.87 21.89 C 85.57 20.78 85.27 19.67 84.98 18.56 Z" />
</g>
<g id="#5ca2d9ff">
<path fill="#5ca2d9" opacity="1.00" d=" M 96.11 21.55 C 93.05 19.63 96.51 17.71 97.85 20.50 L 97.50 21.03 C 97.15 21.16 96.46 21.42 96.11 21.55 Z" />
</g>
<g id="#736752ff">
<path fill="#736752" opacity="1.00" d=" M 141.07 18.64 C 142.43 19.09 143.77 19.62 145.10 20.17 C 144.17 21.59 143.20 22.98 142.32 24.44 C 141.91 26.79 141.69 29.17 141.64 31.56 C 141.05 31.36 139.85 30.98 139.26 30.78 C 138.64 30.74 137.41 30.65 136.80 30.61 C 137.09 29.60 136.92 28.67 136.28 27.82 C 137.91 26.06 136.51 23.44 134.16 24.73 L 134.18 24.10 C 134.54 23.80 135.26 23.18 135.62 22.88 C 137.68 22.51 139.76 22.23 141.85 21.95 C 141.59 20.85 141.33 19.74 141.07 18.64 Z" />
</g>
<g id="#539fd9ff">
<path fill="#539fd9" opacity="1.00" d=" M 152.17 21.71 C 149.49 20.73 151.11 17.22 153.28 19.57 C 153.35 19.96 153.49 20.75 153.57 21.14 C 153.22 21.28 152.52 21.57 152.17 21.71 Z" />
</g>
<g id="#74644dff">
<path fill="#74644d" opacity="1.00" d=" M 196.97 18.54 C 198.53 19.13 200.07 19.77 201.62 20.43 C 199.11 22.78 196.44 24.96 193.71 27.07 C 195.14 26.99 196.56 26.91 197.99 26.83 C 197.80 27.64 197.63 28.44 197.46 29.24 C 196.35 29.37 195.24 29.49 194.14 29.62 C 192.78 29.81 192.34 30.58 192.81 31.93 L 192.19 31.86 C 192.21 30.60 192.20 29.34 192.16 28.09 C 192.06 26.51 191.83 24.95 191.65 23.38 C 191.76 23.26 191.97 23.03 192.08 22.92 C 193.99 22.51 195.94 22.22 197.87 21.88 C 197.57 20.77 197.26 19.65 196.97 18.54 Z" />
</g>
<g id="#2a8ad7fe">
<path fill="#2a8ad7" opacity="1.00" d=" M 207.71 21.97 C 205.86 19.93 208.44 18.30 209.99 20.35 L 210.15 21.20 C 210.00 21.57 209.69 22.31 209.54 22.68 C 209.08 22.50 208.17 22.15 207.71 21.97 Z" />
</g>
<g id="#3587cfff">
<path fill="#3587cf" opacity="1.00" d=" M 223.27 20.33 C 223.45 19.85 223.82 18.88 224.00 18.39 L 224.00 23.00 C 221.45 25.88 217.65 26.68 214.04 25.62 C 212.52 24.66 211.06 23.63 209.54 22.68 C 210.14 22.59 211.33 22.40 211.92 22.30 C 213.31 23.36 215.08 22.96 216.64 22.61 C 217.19 22.53 218.28 22.36 218.83 22.27 C 220.47 22.32 222.88 22.44 223.27 20.33 Z" />
</g>
<g id="#3c6abeff">
<path fill="#3c6abe" opacity="1.00" d=" M 0.00 19.16 C 3.94 20.24 7.91 21.46 11.18 24.00 C 7.90 26.53 3.93 27.76 0.00 28.87 L 0.00 19.16 Z" />
</g>
<g id="#57544cff">
<path fill="#57544c" opacity="1.00" d=" M 33.59 20.46 C 34.73 20.96 35.87 21.46 37.01 21.96 C 33.47 26.36 29.91 31.05 24.65 33.49 C 24.13 33.35 23.09 33.07 22.57 32.93 C 22.66 32.31 22.85 31.09 22.94 30.47 C 23.93 30.20 24.93 29.94 25.93 29.69 L 26.53 29.58 C 27.53 29.41 28.53 29.25 29.52 29.09 C 29.66 28.57 29.93 27.51 30.06 26.99 C 29.55 26.94 28.52 26.84 28.01 26.79 C 27.55 26.78 26.62 26.74 26.15 26.72 C 28.61 24.60 31.22 22.68 33.59 20.46 Z" />
<path fill="#57544c" opacity="1.00" d=" M 89.61 20.43 C 90.73 20.91 91.84 21.40 92.95 21.89 C 90.69 24.58 88.40 27.28 86.46 30.23 C 86.14 30.73 85.49 31.72 85.16 32.22 L 84.47 32.02 C 83.82 32.19 82.51 32.51 81.85 32.68 C 81.76 31.85 81.58 30.21 81.49 29.38 L 82.15 29.40 C 83.30 29.42 84.45 29.43 85.60 29.45 C 85.70 28.84 85.90 27.62 86.00 27.02 C 85.53 26.95 84.59 26.83 84.12 26.77 C 83.64 26.73 82.68 26.65 82.20 26.61 C 84.68 24.56 87.27 22.65 89.61 20.43 Z" />
<path fill="#57544c" opacity="1.00" d=" M 145.10 20.17 C 146.11 20.60 147.12 21.04 148.12 21.50 C 147.30 23.99 146.77 26.70 148.46 28.98 L 147.81 28.87 C 146.89 28.65 145.97 28.48 145.04 28.35 C 144.85 28.12 144.49 27.67 144.30 27.44 C 143.61 26.45 142.97 25.45 142.32 24.44 C 143.20 22.98 144.17 21.59 145.10 20.17 Z" />
</g>
<g id="#3c6bbefe">
<path fill="#3c6bbe" opacity="1.00" d=" M 78.58 20.16 C 78.98 20.13 79.77 20.07 80.16 20.04 C 78.70 21.62 77.35 23.30 75.82 24.82 C 74.79 25.42 73.73 25.96 72.65 26.46 C 69.34 27.87 65.94 29.05 62.60 30.39 C 63.78 30.34 64.97 30.29 66.15 30.26 C 68.00 31.58 69.67 33.14 71.28 34.74 C 67.61 35.85 63.94 36.93 60.28 38.07 C 62.43 42.00 65.34 45.62 69.89 46.82 C 67.70 44.74 65.46 42.72 63.26 40.65 C 67.60 37.87 73.69 33.00 78.45 37.71 C 75.54 38.47 72.62 39.14 69.71 39.87 C 73.74 40.56 77.34 42.69 79.58 46.15 C 78.03 46.59 76.47 47.02 74.92 47.45 C 75.78 48.16 76.64 48.87 77.51 49.58 C 75.71 51.29 73.90 53.00 72.11 54.73 C 74.96 53.46 77.66 51.52 80.84 51.23 C 83.28 51.81 85.37 53.29 87.51 54.53 C 86.16 55.04 84.81 55.53 83.45 56.00 L 32.54 56.00 C 30.15 53.14 26.97 51.19 23.59 49.72 C 25.51 45.58 30.40 45.71 34.36 45.34 C 37.71 45.04 40.63 46.94 43.35 48.62 C 47.15 45.95 51.81 46.70 56.18 46.94 C 52.35 46.23 45.49 46.11 46.47 40.44 C 43.90 43.74 39.58 44.50 35.62 44.14 C 38.24 42.96 40.90 41.86 43.57 40.79 C 41.93 40.07 40.27 39.38 38.62 38.69 C 38.06 37.67 37.49 36.66 36.92 35.65 C 42.82 37.52 48.90 38.73 54.90 40.26 C 52.95 38.28 48.99 36.68 50.13 33.29 C 55.63 29.43 62.15 27.26 68.27 24.52 C 67.92 23.37 67.58 22.21 67.25 21.06 C 71.02 20.76 74.80 20.46 78.58 20.16 Z" />
</g>
<g id="#59554cff">
<path fill="#59554c" opacity="1.00" d=" M 201.62 20.43 C 202.58 20.84 203.55 21.27 204.52 21.69 C 203.87 23.27 203.17 24.84 202.53 26.43 C 203.65 27.08 204.76 27.73 205.87 28.39 C 204.91 29.36 203.95 30.32 203.01 31.31 L 203.15 30.75 C 204.24 29.29 203.10 27.08 201.20 28.00 C 200.73 28.06 199.78 28.19 199.31 28.26 C 198.51 29.63 197.71 31.00 196.91 32.37 C 195.78 32.26 194.66 32.15 193.54 32.02 C 193.69 31.42 193.99 30.22 194.14 29.62 C 195.24 29.49 196.35 29.37 197.46 29.24 C 197.63 28.44 197.80 27.64 197.99 26.83 C 196.56 26.91 195.14 26.99 193.71 27.07 C 196.44 24.96 199.11 22.78 201.62 20.43 Z" />
</g>
<g id="#278cd7ff">
<path fill="#278cd7" opacity="1.00" d=" M 96.11 21.55 C 96.46 21.42 97.15 21.16 97.50 21.03 C 98.41 21.39 99.31 21.75 100.22 22.11 C 101.61 23.40 103.74 24.34 105.35 22.82 L 106.07 22.37 C 105.04 23.39 104.06 24.44 103.06 25.47 C 100.46 24.28 97.90 23.02 95.32 21.80 L 96.11 21.55 Z" />
</g>
<g id="#90acd2ff">
<path fill="#90acd2" opacity="1.00" d=" M 129.24 21.03 L 129.88 20.98 C 130.76 21.48 131.82 23.73 130.13 23.81 C 129.10 23.18 128.81 22.25 129.24 21.03 Z" />
</g>
<g id="#3089c5ff">
<path fill="#3089c5" opacity="1.00" d=" M 152.17 21.71 C 152.52 21.57 153.22 21.28 153.57 21.14 C 154.74 21.49 155.94 21.73 157.14 21.96 C 158.45 22.37 159.82 21.97 160.97 21.32 C 160.49 22.30 159.97 23.25 159.45 24.20 C 160.71 24.32 161.97 24.44 163.24 24.55 C 160.99 24.87 158.73 25.12 156.49 25.52 C 154.81 24.29 153.13 23.05 151.40 21.89 L 152.17 21.71 Z" />
</g>
<g id="#40625fff">
<path fill="#40625f" opacity="1.00" d=" M 38.11 21.40 C 38.70 21.69 39.88 22.29 40.48 22.59 C 42.62 23.63 44.82 24.56 47.03 25.47 C 46.11 26.20 45.22 26.95 44.35 27.74 C 42.88 26.84 41.41 25.94 39.98 25.00 C 39.46 24.63 38.43 23.90 37.91 23.54 C 37.96 23.00 38.06 21.93 38.11 21.40 Z" />
<path fill="#40625f" opacity="1.00" d=" M 206.09 21.27 C 206.50 21.45 207.31 21.80 207.71 21.97 C 208.17 22.15 209.08 22.50 209.54 22.68 C 211.06 23.63 212.52 24.66 214.04 25.62 L 214.79 26.09 L 213.41 26.06 C 212.31 26.09 211.51 26.64 211.00 27.70 C 210.62 27.38 209.86 26.75 209.48 26.43 C 208.32 25.46 207.17 24.48 206.07 23.46 C 206.07 22.92 206.09 21.82 206.09 21.27 Z" />
</g>
<g id="#2a87ccff">
<path fill="#2a87cc" opacity="1.00" d=" M 40.48 22.59 L 41.22 21.74 C 41.84 22.07 43.06 22.73 43.68 23.06 C 45.33 23.65 47.19 24.49 48.92 23.69 L 49.91 23.32 C 48.94 24.02 47.98 24.74 47.03 25.47 C 44.82 24.56 42.62 23.63 40.48 22.59 Z" />
</g>
<g id="#466663ff">
<path fill="#466663" opacity="1.00" d=" M 94.32 21.35 C 94.57 21.46 95.07 21.69 95.32 21.80 C 97.90 23.02 100.46 24.28 103.06 25.47 C 102.75 25.77 102.13 26.38 101.82 26.69 C 101.40 26.80 100.55 27.01 100.13 27.12 C 98.24 26.41 96.39 25.58 94.52 24.81 L 94.01 24.60 C 94.08 23.79 94.24 22.16 94.32 21.35 Z" />
</g>
<g id="#a0b5c5ff">
<path fill="#a0b5c5" opacity="1.00" d=" M 130.35 25.46 C 131.69 24.39 133.00 23.30 134.24 22.12 C 134.23 22.61 134.19 23.61 134.18 24.10 L 134.16 24.73 C 134.34 25.34 134.68 26.57 134.86 27.19 C 133.82 27.34 132.79 27.54 131.78 27.79 C 131.44 27.95 130.77 28.26 130.43 28.42 C 129.60 28.51 127.93 28.70 127.09 28.79 C 128.18 27.69 129.23 26.54 130.35 25.46 Z" />
</g>
<g id="#42615dff">
<path fill="#42615d" opacity="1.00" d=" M 150.67 21.51 C 150.85 21.61 151.22 21.79 151.40 21.89 C 153.13 23.05 154.81 24.29 156.49 25.52 C 155.98 25.66 154.95 25.92 154.44 26.05 C 153.12 25.62 151.80 25.20 150.48 24.80 L 149.69 24.57 C 149.94 23.80 150.43 22.28 150.67 21.51 Z" />
</g>
<g id="#514d45ff">
<path fill="#514d45" opacity="1.00" d=" M 37.91 23.54 C 38.43 23.90 39.46 24.63 39.98 25.00 C 40.20 26.17 40.42 27.35 40.64 28.53 C 39.64 27.69 38.64 26.85 37.63 26.02 C 37.70 25.40 37.84 24.16 37.91 23.54 Z" />
</g>
<g id="#9e9160ff">
<path fill="#9e9160" opacity="1.00" d=" M 79.17 23.74 C 79.60 24.13 80.45 24.90 80.88 25.29 C 80.24 26.62 79.57 27.93 78.94 29.26 C 78.15 28.45 77.28 27.72 76.35 27.06 C 77.29 25.95 78.21 24.83 79.17 23.74 Z" />
</g>
<g id="#9c8a4efe">
<path fill="#9c8a4e" opacity="1.00" d=" M 134.16 24.73 C 136.51 23.44 137.91 26.06 136.28 27.82 C 135.92 27.66 135.21 27.35 134.86 27.19 C 134.68 26.57 134.34 25.34 134.16 24.73 Z" />
</g>
<g id="#9db2cbff">
<path fill="#9db2cb" opacity="1.00" d=" M 142.32 24.44 C 142.97 25.45 143.61 26.45 144.30 27.44 C 142.05 28.63 142.68 33.60 144.95 30.14 L 145.24 30.96 C 145.31 31.35 145.44 32.14 145.51 32.53 C 144.25 32.94 143.02 33.41 141.79 33.88 C 141.75 33.50 141.68 32.73 141.65 32.35 L 141.64 31.56 C 141.69 29.17 141.91 26.79 142.32 24.44 Z" />
</g>
<g id="#4e4a42ff">
<path fill="#4e4a42" opacity="1.00" d=" M 206.07 23.46 C 207.17 24.48 208.32 25.46 209.48 26.43 C 208.27 26.77 207.07 27.12 205.86 27.44 C 205.93 26.12 206.01 24.79 206.07 23.46 Z" />
</g>
<g id="#9db4c8ff">
<path fill="#9db4c8" opacity="1.00" d=" M 72.65 26.46 C 73.73 25.96 74.79 25.42 75.82 24.82 C 75.92 25.66 76.02 26.50 76.11 27.35 C 76.22 28.56 76.36 29.76 76.52 30.97 C 75.69 29.86 74.60 29.43 73.26 29.68 C 72.55 29.75 71.11 29.89 70.40 29.96 C 71.13 28.78 71.90 27.62 72.65 26.46 Z" />
</g>
<g id="#737779ff">
<path fill="#737779" opacity="1.00" d=" M 95.93 28.19 C 94.02 28.36 93.67 26.01 94.01 24.60 L 94.52 24.81 C 95.39 25.48 97.64 27.26 95.93 28.19 Z" />
</g>
<g id="#485454ff">
<path fill="#485454" opacity="1.00" d=" M 16.31 26.90 C 16.95 26.53 17.58 26.15 18.22 25.76 C 18.56 26.11 19.25 26.81 19.59 27.16 L 20.17 27.73 C 20.95 28.51 21.73 29.29 22.51 30.06 C 22.06 30.47 21.15 31.28 20.69 31.68 C 20.40 31.98 19.83 32.58 19.54 32.88 L 19.44 31.94 C 19.28 29.79 17.81 28.23 16.17 27.02 L 16.31 26.90 Z" />
</g>
<g id="#75634eff">
<path fill="#75634e" opacity="1.00" d=" M 28.01 26.79 C 28.52 26.84 29.55 26.94 30.06 26.99 C 29.93 27.51 29.66 28.57 29.52 29.09 C 28.53 29.25 27.53 29.41 26.53 29.58 C 27.15 28.72 27.64 27.79 28.01 26.79 Z" />
<path fill="#75634e" opacity="1.00" d=" M 84.12 26.77 C 84.59 26.83 85.53 26.95 86.00 27.02 C 85.90 27.62 85.70 28.84 85.60 29.45 C 84.45 29.43 83.30 29.42 82.15 29.40 C 83.04 28.70 83.70 27.82 84.12 26.77 Z" />
</g>
<g id="#6a6f68ff">
<path fill="#6a6f68" opacity="1.00" d=" M 131.78 27.79 C 132.79 27.54 133.82 27.34 134.86 27.19 C 135.21 27.35 135.92 27.66 136.28 27.82 C 135.86 28.22 135.04 29.03 134.62 29.43 C 134.24 29.79 133.48 30.50 133.10 30.86 C 132.77 30.09 132.11 28.56 131.78 27.79 Z" />
</g>
<g id="#99b3caff">
<path fill="#99b3ca" opacity="1.00" d=" M 180.47 28.04 C 181.69 27.35 182.90 26.65 184.15 26.00 C 181.35 28.02 186.11 29.20 184.90 26.14 C 185.26 26.23 185.97 26.42 186.33 26.51 C 186.83 26.72 187.84 27.14 188.34 27.35 C 188.15 28.38 188.08 29.41 188.13 30.45 C 187.20 30.14 186.25 30.04 185.29 30.14 C 184.83 30.18 183.90 30.27 183.44 30.31 C 182.44 29.56 181.45 28.80 180.47 28.04 Z" />
</g>
<g id="#abbccbff">
<path fill="#abbccb" opacity="1.00" d=" M 189.31 26.16 C 190.26 26.80 191.21 27.44 192.16 28.09 C 192.20 29.34 192.21 30.60 192.19 31.86 C 191.57 31.79 190.33 31.64 189.71 31.56 C 190.67 29.89 189.75 28.10 188.98 26.57 L 189.31 26.16 Z" />
</g>
<g id="#4d77baff">
<path fill="#4d77ba" opacity="1.00" d=" M 211.00 27.70 C 211.51 26.64 212.31 26.09 213.41 26.06 C 213.51 26.39 213.71 27.04 213.81 27.37 L 213.40 28.06 C 212.92 28.07 211.96 28.09 211.48 28.10 L 211.00 27.70 Z" />
</g>
<g id="#427cc9ff">
<path fill="#427cc9" opacity="1.00" d=" M 213.41 26.06 L 214.79 26.09 C 217.77 27.04 220.90 27.19 224.00 27.51 L 224.00 27.92 C 221.66 30.08 219.34 32.26 217.23 34.65 C 219.15 36.16 221.09 37.67 223.03 39.17 C 218.70 38.18 214.37 37.22 210.02 36.38 C 208.84 35.34 207.69 34.29 206.66 33.11 L 206.35 32.73 C 210.66 35.03 214.80 32.15 218.23 29.71 C 216.75 28.95 215.26 28.18 213.81 27.37 C 213.71 27.04 213.51 26.39 213.41 26.06 Z" />
</g>
<g id="#278bd7fe">
<path fill="#278bd7" opacity="1.00" d=" M 6.91 30.73 C 10.05 29.49 13.22 28.30 16.31 26.90 L 16.17 27.02 C 15.14 28.29 14.17 29.60 13.25 30.96 C 11.78 31.00 10.32 31.01 8.86 30.97 C 8.37 30.91 7.40 30.79 6.91 30.73 Z" />
<path fill="#278bd7" opacity="1.00" d=" M 149.22 36.36 C 151.19 37.11 153.21 37.76 155.12 38.69 C 152.42 39.11 149.73 39.57 147.02 39.85 C 147.75 38.69 148.49 37.52 149.22 36.36 Z" />
<path fill="#278bd7" opacity="1.00" d=" M 37.77 39.22 L 38.62 38.69 C 40.27 39.38 41.93 40.07 43.57 40.79 C 40.59 41.03 37.60 41.20 34.61 41.41 C 35.66 40.68 36.72 39.95 37.77 39.22 Z" />
</g>
<g id="#9ab1c4fe">
<path fill="#9ab1c4" opacity="1.00" d=" M 16.17 27.02 C 17.81 28.23 19.28 29.79 19.44 31.94 C 18.64 31.01 17.64 30.65 16.42 30.84 C 15.63 30.87 14.04 30.93 13.25 30.96 C 14.17 29.60 15.14 28.29 16.17 27.02 Z" />
</g>
<g id="#53544cfe">
<path fill="#53544c" opacity="1.00" d=" M 76.11 27.35 L 76.35 27.06 C 77.28 27.72 78.15 28.45 78.94 29.26 L 78.70 29.80 C 78.44 30.10 77.93 30.68 77.67 30.98 C 77.41 31.14 76.89 31.46 76.63 31.62 L 76.52 30.97 C 76.36 29.76 76.22 28.56 76.11 27.35 Z" />
<path fill="#53544c" opacity="1.00" d=" M 188.34 27.35 C 188.50 27.16 188.82 26.76 188.98 26.57 C 189.75 28.10 190.67 29.89 189.71 31.56 C 189.43 31.43 188.86 31.15 188.58 31.01 L 188.13 30.45 C 188.08 29.41 188.15 28.38 188.34 27.35 Z" />
</g>
<g id="#565149fe">
<path fill="#565149" opacity="1.00" d=" M 90.00 27.82 C 91.68 25.30 93.92 27.88 93.33 30.07 L 92.56 30.04 C 91.55 29.48 90.70 28.73 90.00 27.82 Z" />
</g>
<g id="#6f90a9ff">
<path fill="#6f90a9" opacity="1.00" d=" M 100.13 27.12 C 100.55 27.01 101.40 26.80 101.82 26.69 C 102.11 26.89 102.68 27.29 102.96 27.49 C 101.94 28.93 100.14 29.13 98.52 29.19 C 98.92 28.67 99.73 27.64 100.13 27.12 Z" />
</g>
<g id="#474647ff">
<path fill="#474647" opacity="1.00" d=" M 144.30 27.44 C 144.49 27.67 144.85 28.12 145.04 28.35 C 145.01 28.80 144.97 29.69 144.95 30.14 C 142.68 33.60 142.05 28.63 144.30 27.44 Z" />
<path fill="#474647" opacity="1.00" d=" M 85.16 32.22 C 85.49 31.72 86.14 30.73 86.46 30.23 C 86.77 30.26 87.39 30.32 87.70 30.34 C 88.54 30.45 90.21 30.67 91.04 30.78 C 91.33 31.04 91.89 31.57 92.18 31.83 C 91.83 32.10 91.14 32.63 90.80 32.90 C 90.57 33.04 90.10 33.33 89.87 33.48 C 88.28 33.11 86.71 32.69 85.16 32.22 Z" />
</g>
<g id="#708da6fe">
<path fill="#708da6" opacity="1.00" d=" M 153.81 27.76 C 154.96 27.12 156.44 26.78 157.68 27.37 C 156.57 28.41 155.38 29.35 154.12 30.20 C 153.94 29.97 153.59 29.52 153.42 29.30 C 153.52 28.91 153.71 28.15 153.81 27.76 Z" />
<path fill="#708da6" opacity="1.00" d=" M 43.82 28.76 C 45.03 28.06 46.54 27.97 47.77 28.65 C 46.60 29.55 45.37 30.34 44.11 31.11 C 43.92 30.88 43.54 30.42 43.35 30.20 C 43.47 29.84 43.70 29.12 43.82 28.76 Z" />
</g>
<g id="#278dd8ff">
<path fill="#278dd8" opacity="1.00" d=" M 157.68 27.37 C 159.33 28.07 160.94 28.86 162.56 29.65 C 158.68 31.29 154.48 32.07 150.28 32.30 L 149.52 32.33 C 151.18 31.94 152.76 31.23 154.12 30.20 C 155.38 29.35 156.57 28.41 157.68 27.37 Z" />
</g>
<g id="#82704eff">
<path fill="#82704e" opacity="1.00" d=" M 31.54 30.81 C 32.49 29.63 33.36 28.39 34.34 27.23 C 34.80 28.66 35.22 30.10 35.69 31.53 C 34.65 31.35 32.57 30.99 31.54 30.81 Z" />
<path fill="#82704e" opacity="1.00" d=" M 87.70 30.34 C 88.48 29.52 89.24 28.66 90.00 27.82 C 90.70 28.73 91.55 29.48 92.56 30.04 C 92.18 30.23 91.42 30.59 91.04 30.78 C 90.21 30.67 88.54 30.45 87.70 30.34 Z" />
</g>
<g id="#2a88d4ff">
<path fill="#2a88d4" opacity="1.00" d=" M 98.52 29.19 C 100.14 29.13 101.94 28.93 102.96 27.49 C 104.02 28.27 105.09 29.05 106.15 29.83 C 102.79 32.35 98.78 33.73 94.57 33.62 C 94.41 33.19 94.10 32.32 93.94 31.89 L 94.18 31.28 L 94.92 31.20 C 95.49 30.96 96.63 30.49 97.20 30.25 C 97.53 29.99 98.19 29.45 98.52 29.19 Z" />
</g>
<g id="#7b694eff">
<path fill="#7b694e" opacity="1.00" d=" M 145.04 28.35 C 145.97 28.48 146.89 28.65 147.81 28.87 C 147.82 29.24 147.83 29.98 147.84 30.34 C 147.19 30.50 145.89 30.81 145.24 30.96 L 144.95 30.14 C 144.97 29.69 145.01 28.80 145.04 28.35 Z" />
</g>
<g id="#2c8ed4ff">
<path fill="#2c8ed4" opacity="1.00" d=" M 175.00 30.91 C 176.84 29.98 178.67 29.04 180.47 28.04 C 181.45 28.80 182.44 29.56 183.44 30.31 C 181.77 30.47 178.44 30.80 176.77 30.96 C 176.33 30.94 175.44 30.92 175.00 30.91 Z" />
</g>
<g id="#887d69ff">
<path fill="#887d69" opacity="1.00" d=" M 201.20 28.00 C 203.10 27.08 204.24 29.29 203.15 30.75 C 202.61 30.28 201.53 29.34 200.99 28.87 L 201.20 28.00 Z" />
</g>
<g id="#9bb2c7ff">
<path fill="#9bb2c7" opacity="1.00" d=" M 94.92 31.20 C 94.12 29.62 96.64 28.57 97.20 30.25 C 96.63 30.49 95.49 30.96 94.92 31.20 Z" />
</g>
<g id="#3e7ecbff">
<path fill="#3e7ecb" opacity="1.00" d=" M 123.21 29.58 C 124.51 29.32 125.80 29.06 127.09 28.79 C 127.93 28.70 129.60 28.51 130.43 28.42 C 130.52 29.86 131.22 30.85 132.55 31.38 C 134.34 32.24 136.14 33.09 138.03 33.71 C 138.99 33.38 139.94 33.03 140.89 32.66 L 141.65 32.35 C 141.68 32.73 141.75 33.50 141.79 33.88 L 141.96 35.12 C 139.82 35.56 137.73 36.24 135.66 36.93 C 132.82 36.93 133.08 40.54 135.94 39.51 L 136.68 39.39 C 137.19 40.44 137.99 40.79 139.09 40.43 C 139.57 40.38 140.53 40.28 141.01 40.23 C 143.01 40.11 145.02 40.03 147.02 39.85 C 149.73 39.57 152.42 39.11 155.12 38.69 C 155.10 39.44 155.07 40.96 155.06 41.72 C 154.38 41.94 153.01 42.37 152.33 42.59 C 152.79 41.57 153.26 40.56 153.73 39.56 C 151.83 40.12 149.95 40.74 148.05 41.32 C 149.00 41.79 149.95 42.26 150.92 42.72 C 150.15 43.05 148.63 43.72 147.87 44.05 C 152.92 45.19 157.96 43.60 160.86 39.17 C 160.88 41.35 161.00 43.52 161.15 45.69 C 153.40 47.56 145.39 45.54 137.55 45.82 C 134.00 43.77 130.56 41.38 126.40 40.68 C 129.58 39.39 131.84 36.76 133.22 33.68 C 128.04 35.45 123.37 38.46 118.21 40.27 C 116.33 40.17 115.10 38.19 113.64 37.17 C 117.26 37.22 120.94 37.16 124.41 35.90 C 125.36 34.40 125.94 32.71 126.60 31.08 C 125.47 30.58 124.34 30.07 123.21 29.58 Z" />
</g>
<g id="#4175befe">
<path fill="#4175be" opacity="1.00" d=" M 153.42 29.30 C 153.59 29.52 153.94 29.97 154.12 30.20 C 152.76 31.23 151.18 31.94 149.52 32.33 L 149.04 32.35 C 149.98 31.27 150.87 30.12 152.00 29.22 C 152.35 29.24 153.06 29.28 153.42 29.30 Z" />
<path fill="#4175be" opacity="1.00" d=" M 43.35 30.20 C 43.54 30.42 43.92 30.88 44.11 31.11 C 42.76 32.01 41.43 33.00 39.88 33.53 L 39.37 33.10 C 40.08 31.49 41.64 30.45 43.35 30.20 Z" />
</g>
<g id="#7090a8fe">
<path fill="#7090a8" opacity="1.00" d=" M 185.29 30.14 C 186.25 30.04 187.20 30.14 188.13 30.45 L 188.58 31.01 L 188.54 31.74 C 187.07 33.71 184.56 32.46 185.29 30.14 Z" />
<path fill="#7090a8" opacity="1.00" d=" M 202.27 32.78 C 203.18 32.48 204.10 32.19 205.03 31.92 C 205.36 32.12 206.02 32.53 206.35 32.73 L 206.66 33.11 C 205.82 33.77 204.92 34.37 203.98 34.87 C 203.39 34.19 202.82 33.49 202.27 32.78 Z" />
</g>
<g id="#a5b4c5fe">
<path fill="#a5b4c5" opacity="1.00" d=" M 200.12 32.71 C 200.35 31.41 200.65 30.14 200.99 28.87 C 201.53 29.34 202.61 30.28 203.15 30.75 L 203.01 31.31 C 202.61 31.73 201.82 32.59 201.42 33.01 L 200.82 33.18 C 200.65 33.06 200.30 32.82 200.12 32.71 Z" />
</g>
<g id="#417ccaff">
<path fill="#417cca" opacity="1.00" d=" M 66.15 30.26 C 67.57 30.18 68.98 30.07 70.40 29.96 C 71.11 29.89 72.55 29.75 73.26 29.68 C 73.62 30.99 74.49 31.79 75.87 32.09 C 77.08 33.01 78.23 34.00 79.40 34.98 C 79.92 34.94 80.96 34.85 81.48 34.81 C 82.66 34.73 83.85 34.68 85.04 34.64 C 83.32 35.87 81.61 37.12 79.91 38.38 L 79.42 38.51 C 78.36 38.80 76.34 39.25 76.63 40.70 C 77.61 41.32 78.83 40.86 79.91 40.86 C 81.53 41.02 83.14 41.29 84.75 41.51 L 85.66 41.66 C 84.58 42.09 82.56 42.43 82.67 43.96 C 84.33 45.15 85.84 42.85 86.95 41.86 C 88.42 41.56 89.90 41.25 91.38 41.00 C 91.97 40.91 93.14 40.74 93.73 40.66 C 94.03 40.60 94.64 40.47 94.94 40.41 C 96.49 40.19 98.05 39.99 99.60 39.81 C 97.00 40.87 94.37 41.86 91.75 42.86 C 94.53 43.81 97.45 45.16 100.43 43.69 C 101.66 42.27 102.46 40.56 103.36 38.93 C 103.49 40.87 103.54 42.82 103.63 44.77 C 108.03 44.96 112.44 45.22 116.85 45.28 C 116.18 46.58 115.51 47.89 114.85 49.19 C 111.42 45.57 106.38 46.24 101.93 47.10 C 97.71 48.41 94.41 44.02 90.28 44.23 C 86.16 45.10 82.21 46.59 78.26 47.98 C 83.06 51.02 87.97 53.96 93.31 56.00 L 83.45 56.00 C 84.81 55.53 86.16 55.04 87.51 54.53 C 85.37 53.29 83.28 51.81 80.84 51.23 C 77.66 51.52 74.96 53.46 72.11 54.73 C 73.90 53.00 75.71 51.29 77.51 49.58 C 76.64 48.87 75.78 48.16 74.92 47.45 C 76.47 47.02 78.03 46.59 79.58 46.15 C 77.34 42.69 73.74 40.56 69.71 39.87 C 72.62 39.14 75.54 38.47 78.45 37.71 C 73.69 33.00 67.60 37.87 63.26 40.65 C 65.46 42.72 67.70 44.74 69.89 46.82 C 65.34 45.62 62.43 42.00 60.28 38.07 C 63.94 36.93 67.61 35.85 71.28 34.74 C 69.67 33.14 68.00 31.58 66.15 30.26 Z" />
</g>
<g id="#8e9dadff">
<path fill="#8e9dad" opacity="1.00" d=" M 91.04 30.78 C 91.42 30.59 92.18 30.23 92.56 30.04 L 93.33 30.07 C 93.54 30.37 93.96 30.98 94.18 31.28 L 93.94 31.89 C 93.50 31.87 92.62 31.85 92.18 31.83 C 91.89 31.57 91.33 31.04 91.04 30.78 Z" />
</g>
<g id="#298cd7ff">
<path fill="#298cd7" opacity="1.00" d=" M 133.10 30.86 C 133.48 30.50 134.24 29.79 134.62 29.43 C 135.74 30.87 136.88 32.29 138.03 33.71 C 136.14 33.09 134.34 32.24 132.55 31.38 L 133.10 30.86 Z" />
<path fill="#298cd7" opacity="1.00" d=" M 19.54 32.88 C 19.83 32.58 20.40 31.98 20.69 31.68 C 21.72 32.82 22.76 33.95 23.81 35.07 C 23.55 35.16 23.04 35.36 22.79 35.45 C 21.47 34.85 20.20 34.16 18.91 33.51 L 19.54 32.88 Z" />
</g>
<g id="#728ea6ff">
<path fill="#728ea6" opacity="1.00" d=" M 134.62 29.43 C 135.17 29.73 136.25 30.31 136.80 30.61 C 137.41 30.65 138.64 30.74 139.26 30.78 C 139.67 31.25 140.48 32.19 140.89 32.66 C 139.94 33.03 138.99 33.38 138.03 33.71 C 136.88 32.29 135.74 30.87 134.62 29.43 Z" />
</g>
<g id="#417dcaff">
<path fill="#417dca" opacity="1.00" d=" M 183.44 30.31 C 183.90 30.27 184.83 30.18 185.29 30.14 C 184.56 32.46 187.07 33.71 188.54 31.74 C 188.48 32.92 188.43 34.11 188.38 35.29 C 189.68 35.20 190.99 35.11 192.30 35.02 C 194.27 34.88 196.25 34.82 198.22 34.82 C 196.39 35.47 194.61 36.26 192.88 37.14 C 186.88 36.45 180.94 37.68 175.14 39.13 C 176.96 42.03 179.30 44.53 181.76 46.91 C 177.32 45.49 174.37 41.95 172.24 37.99 C 175.53 37.09 178.81 36.24 182.13 35.44 C 180.39 33.89 178.64 32.35 176.77 30.96 C 178.44 30.80 181.77 30.47 183.44 30.31 Z" />
</g>
<g id="#427ccaff">
<path fill="#427cca" opacity="1.00" d=" M 8.86 30.97 C 10.32 31.01 11.78 31.00 13.25 30.96 C 14.04 30.93 15.63 30.87 16.42 30.84 C 16.81 32.15 17.63 33.03 18.91 33.51 C 20.20 34.16 21.47 34.85 22.79 35.45 C 23.04 35.36 23.55 35.16 23.81 35.07 C 24.49 34.79 25.83 34.23 26.51 33.95 C 26.81 33.98 27.40 34.04 27.70 34.07 C 28.15 34.17 29.04 34.36 29.49 34.46 C 27.62 35.24 25.76 36.05 23.83 36.64 C 18.44 35.98 12.73 36.45 8.44 40.08 C 10.74 42.83 13.24 45.38 15.80 47.89 C 12.66 46.74 9.87 44.81 8.24 41.83 C 6.78 38.66 2.83 39.22 0.00 38.56 L 0.00 37.91 C 4.75 37.02 9.60 36.75 14.36 35.85 C 12.60 34.13 10.81 32.46 8.86 30.97 Z" />
</g>
<g id="#288cd7ff">
<path fill="#288cd7" opacity="1.00" d=" M 76.63 31.62 C 76.89 31.46 77.41 31.14 77.67 30.98 C 78.94 32.26 80.20 33.53 81.48 34.81 C 80.96 34.85 79.92 34.94 79.40 34.98 C 78.23 34.00 77.08 33.01 75.87 32.09 L 76.63 31.62 Z" />
<path fill="#288cd7" opacity="1.00" d=" M 197.85 42.25 C 198.32 42.16 199.26 41.97 199.74 41.87 C 197.86 44.02 195.08 44.21 192.44 44.53 C 194.23 43.75 196.01 42.92 197.85 42.25 Z" />
</g>
<g id="#728ea5ff">
<path fill="#728ea5" opacity="1.00" d=" M 77.67 30.98 C 78.32 31.16 79.60 31.52 80.25 31.70 C 80.65 31.95 81.45 32.43 81.85 32.68 C 82.60 33.63 84.89 33.73 84.47 32.02 L 85.16 32.22 C 86.71 32.69 88.28 33.11 89.87 33.48 C 89.60 33.64 89.07 33.97 88.80 34.14 L 88.15 34.52 C 87.37 34.55 85.82 34.61 85.04 34.64 C 83.85 34.68 82.66 34.73 81.48 34.81 C 80.20 33.53 78.94 32.26 77.67 30.98 Z" />
</g>
<g id="#288dd7ff">
<path fill="#288dd7" opacity="1.00" d=" M 188.58 31.01 C 188.86 31.15 189.43 31.43 189.71 31.56 C 190.63 32.67 191.47 33.84 192.30 35.02 C 190.99 35.11 189.68 35.20 188.38 35.29 C 188.43 34.11 188.48 32.92 188.54 31.74 L 188.58 31.01 Z" />
</g>
<g id="#738fa5ff">
<path fill="#738fa5" opacity="1.00" d=" M 189.71 31.56 C 190.33 31.64 191.57 31.79 192.19 31.86 L 192.81 31.93 L 193.54 32.02 C 194.66 32.15 195.78 32.26 196.91 32.37 C 197.98 32.47 199.05 32.57 200.12 32.71 C 200.30 32.82 200.65 33.06 200.82 33.18 C 201.16 33.65 201.82 34.60 202.15 35.07 L 201.24 34.84 L 200.31 34.83 C 199.79 34.83 198.74 34.82 198.22 34.82 C 196.25 34.82 194.27 34.88 192.30 35.02 C 191.47 33.84 190.63 32.67 189.71 31.56 Z" />
</g>
<g id="#718ea6ff">
<path fill="#718ea6" opacity="1.00" d=" M 20.69 31.68 C 21.16 31.99 22.10 32.62 22.57 32.93 C 23.09 33.07 24.13 33.35 24.65 33.49 C 25.11 33.60 26.04 33.84 26.51 33.95 C 25.83 34.23 24.49 34.79 23.81 35.07 C 22.76 33.95 21.72 32.82 20.69 31.68 Z" />
<path fill="#718ea6" opacity="1.00" d=" M 27.70 34.07 C 29.95 34.14 32.21 34.24 34.46 34.28 L 33.49 34.63 L 32.84 34.83 L 32.17 35.03 C 31.50 34.89 30.16 34.60 29.49 34.46 C 29.04 34.36 28.15 34.17 27.70 34.07 Z" />
</g>
<g id="#6d91aaff">
<path fill="#6d91aa" opacity="1.00" d=" M 145.51 32.53 C 146.39 32.54 147.27 32.50 148.14 32.43 L 149.04 32.35 L 149.52 32.33 L 150.28 32.30 C 148.75 33.17 147.27 34.12 145.82 35.11 L 145.28 35.48 L 144.24 35.40 C 143.67 35.33 142.53 35.19 141.96 35.12 L 141.79 33.88 C 143.02 33.41 144.25 32.94 145.51 32.53 Z" />
</g>
<g id="#2e89d4ff">
<path fill="#2e89d4" opacity="1.00" d=" M 89.87 33.48 C 90.10 33.33 90.57 33.04 90.80 32.90 C 91.85 33.28 92.91 33.64 93.99 33.93 C 95.43 34.59 96.82 35.35 98.25 36.05 C 96.31 36.08 94.38 36.19 92.45 36.22 C 91.22 35.56 90.01 34.84 88.80 34.14 C 89.07 33.97 89.60 33.64 89.87 33.48 Z" />
</g>
<g id="#2f88d4ff">
<path fill="#2f88d4" opacity="1.00" d=" M 200.82 33.18 L 201.42 33.01 L 202.27 32.78 C 202.82 33.49 203.39 34.19 203.98 34.87 C 204.92 34.37 205.82 33.77 206.66 33.11 C 207.69 34.29 208.84 35.34 210.02 36.38 C 208.22 36.20 206.42 36.10 204.63 35.92 C 203.81 35.63 202.98 35.34 202.15 35.07 C 201.82 34.60 201.16 33.65 200.82 33.18 Z" />
</g>
<g id="#268ed9fe">
<path fill="#268ed9" opacity="1.00" d=" M 148.27 35.84 C 149.42 33.26 152.19 34.48 153.89 35.72 C 152.22 35.98 150.55 36.30 148.85 36.21 L 148.27 35.84 Z" />
</g>
<g id="#474032ff">
<path fill="#474032" opacity="1.00" d=" M 23.83 36.64 C 25.76 36.05 27.62 35.24 29.49 34.46 C 30.16 34.60 31.50 34.89 32.17 35.03 C 31.20 35.37 30.23 35.70 29.26 36.05 C 27.43 36.46 26.02 37.75 24.87 39.17 L 24.17 39.22 C 24.05 38.36 23.94 37.50 23.83 36.64 Z" />
</g>
<g id="#646059ff">
<path fill="#646059" opacity="1.00" d=" M 32.17 35.03 L 32.84 34.83 C 33.40 36.39 33.96 37.95 34.49 39.52 L 33.70 39.58 C 32.28 39.46 30.86 39.32 29.45 39.16 C 29.49 40.16 29.54 41.16 29.59 42.16 L 28.72 42.67 C 27.20 42.50 25.68 42.32 24.17 42.14 C 24.25 41.11 24.04 40.15 23.52 39.27 L 24.17 39.22 L 24.87 39.17 C 26.92 39.42 29.21 38.36 29.26 36.05 C 30.23 35.70 31.20 35.37 32.17 35.03 Z" />
</g>
<g id="#38322cff">
<path fill="#38322c" opacity="1.00" d=" M 32.84 34.83 L 33.49 34.63 C 34.63 34.97 35.78 35.31 36.92 35.65 C 37.49 36.66 38.06 37.67 38.62 38.69 L 37.77 39.22 C 36.68 39.34 35.58 39.44 34.49 39.52 C 33.96 37.95 33.40 36.39 32.84 34.83 Z" />
</g>
<g id="#48494aff">
<path fill="#48494a" opacity="1.00" d=" M 79.91 38.38 C 81.61 37.12 83.32 35.87 85.04 34.64 C 85.82 34.61 87.37 34.55 88.15 34.52 C 87.18 35.09 86.21 35.63 85.21 36.14 C 83.93 36.69 82.70 37.34 81.51 38.06 C 81.11 38.14 80.31 38.30 79.91 38.38 Z" />
</g>
<g id="#6d6a62fe">
<path fill="#6d6a62" opacity="1.00" d=" M 88.15 34.52 L 88.80 34.14 C 89.36 35.55 89.94 36.95 90.39 38.40 C 89.68 37.30 88.34 37.63 87.54 38.39 C 86.32 38.87 85.25 39.96 85.63 41.37 L 84.75 41.51 C 83.14 41.29 81.53 41.02 79.91 40.86 C 79.79 40.27 79.54 39.10 79.42 38.51 L 79.91 38.38 C 80.31 38.30 81.11 38.14 81.51 38.06 C 83.13 39.32 85.87 38.55 85.21 36.14 C 86.21 35.63 87.18 35.09 88.15 34.52 Z" />
</g>
<g id="#34363aff">
<path fill="#34363a" opacity="1.00" d=" M 88.80 34.14 C 90.01 34.84 91.22 35.56 92.45 36.22 C 93.01 36.52 94.12 37.13 94.68 37.44 L 93.41 37.86 C 93.03 38.01 92.28 38.32 91.90 38.47 C 91.53 38.63 90.80 38.95 90.43 39.11 L 90.39 38.40 C 89.94 36.95 89.36 35.55 88.80 34.14 Z" />
</g>
<g id="#373b45ff">
<path fill="#373b45" opacity="1.00" d=" M 135.66 36.93 C 137.73 36.24 139.82 35.56 141.96 35.12 C 142.53 35.19 143.67 35.33 144.24 35.40 C 143.18 35.55 142.13 35.73 141.08 35.94 C 139.36 36.13 138.38 37.71 137.31 38.87 L 136.68 39.39 L 135.94 39.51 C 135.87 38.86 135.73 37.58 135.66 36.93 Z" />
</g>
<g id="#5f5951ff">
<path fill="#5f5951" opacity="1.00" d=" M 144.24 35.40 L 145.28 35.48 C 145.18 35.85 144.98 36.59 144.88 36.96 C 144.00 38.06 143.05 39.10 142.03 40.07 C 141.77 38.85 141.49 37.64 141.20 36.42 L 141.08 35.94 C 142.13 35.73 143.18 35.55 144.24 35.40 Z" />
</g>
<g id="#3c352ffe">
<path fill="#3c352f" opacity="1.00" d=" M 145.28 35.48 L 145.82 35.11 C 146.43 35.29 147.65 35.66 148.27 35.84 L 148.85 36.21 L 149.22 36.36 C 148.11 37.49 146.19 38.21 144.88 36.96 C 144.98 36.59 145.18 35.85 145.28 35.48 Z" />
</g>
<g id="#494233ff">
<path fill="#494233" opacity="1.00" d=" M 192.88 37.14 C 194.61 36.26 196.39 35.47 198.22 34.82 C 198.74 34.82 199.79 34.83 200.31 34.83 C 199.13 35.37 197.94 35.91 196.76 36.46 C 195.34 37.08 193.93 37.73 192.50 38.34 L 191.52 38.34 C 191.86 38.04 192.54 37.44 192.88 37.14 Z" />
</g>
<g id="#60574aff">
<path fill="#60574a" opacity="1.00" d=" M 200.31 34.83 L 201.24 34.84 C 201.61 36.07 202.00 37.31 202.36 38.55 C 201.76 38.54 200.57 38.52 199.98 38.50 C 198.68 38.84 197.71 39.61 197.08 40.82 L 196.60 41.46 L 196.13 41.15 C 196.08 40.74 195.99 39.93 195.94 39.52 C 196.25 38.51 196.52 37.49 196.76 36.46 C 197.94 35.91 199.13 35.37 200.31 34.83 Z" />
</g>
<g id="#39332dff">
<path fill="#39332d" opacity="1.00" d=" M 201.24 34.84 L 202.15 35.07 C 202.98 35.34 203.81 35.63 204.63 35.92 C 205.13 36.29 206.13 37.02 206.62 37.39 L 205.78 37.90 C 204.70 38.37 203.63 38.84 202.55 39.30 L 202.36 38.55 C 202.00 37.31 201.61 36.07 201.24 34.84 Z" />
</g>
<g id="#91824dfe">
<path fill="#91824d" opacity="1.00" d=" M 192.50 38.34 C 193.93 37.73 195.34 37.08 196.76 36.46 C 196.52 37.49 196.25 38.51 195.94 39.52 C 195.31 39.51 194.05 39.48 193.43 39.47 C 193.20 39.18 192.73 38.62 192.50 38.34 Z" />
</g>
<g id="#97a6b5ff">
<path fill="#97a6b5" opacity="1.00" d=" M 87.54 38.39 C 88.34 37.63 89.68 37.30 90.39 38.40 L 90.43 39.11 C 89.97 39.25 89.04 39.54 88.58 39.68 C 88.32 39.36 87.80 38.71 87.54 38.39 Z" />
</g>
<g id="#a2b8ceff">
<path fill="#a2b8ce" opacity="1.00" d=" M 135.94 39.51 C 133.08 40.54 132.82 36.93 135.66 36.93 C 135.73 37.58 135.87 38.86 135.94 39.51 Z" />
<path fill="#a2b8ce" opacity="1.00" d=" M 24.17 42.14 C 22.69 42.28 21.28 40.79 22.13 39.36 C 22.47 39.34 23.17 39.29 23.52 39.27 C 24.04 40.15 24.25 41.11 24.17 42.14 Z" />
</g>
<g id="#a2b4c7ff">
<path fill="#a2b4c7" opacity="1.00" d=" M 139.09 39.50 C 139.89 38.55 140.59 37.52 141.20 36.42 C 141.49 37.64 141.77 38.85 142.03 40.07 L 141.01 40.23 C 140.53 40.28 139.57 40.38 139.09 40.43 L 139.09 39.50 Z" />
</g>
<g id="#809bb2ff">
<path fill="#809bb2" opacity="1.00" d=" M 144.88 36.96 C 146.19 38.21 148.11 37.49 149.22 36.36 C 148.49 37.52 147.75 38.69 147.02 39.85 C 145.02 40.03 143.01 40.11 141.01 40.23 L 142.03 40.07 C 143.05 39.10 144.00 38.06 144.88 36.96 Z" />
<path fill="#809bb2" opacity="1.00" d=" M 33.70 39.58 L 34.49 39.52 C 35.58 39.44 36.68 39.34 37.77 39.22 C 36.72 39.95 35.66 40.68 34.61 41.41 C 33.41 42.03 32.22 42.65 31.06 43.33 C 30.71 43.23 30.02 43.02 29.68 42.91 L 28.72 42.67 L 29.59 42.16 C 30.97 41.32 32.31 40.42 33.70 39.58 Z" />
</g>
<g id="#92b7d9ff">
<path fill="#92b7d9" opacity="1.00" d=" M 91.90 38.47 C 92.28 38.32 93.03 38.01 93.41 37.86 C 94.19 38.54 94.70 39.39 94.94 40.41 C 94.64 40.47 94.03 40.60 93.73 40.66 C 93.22 40.28 92.19 39.51 91.68 39.13 L 91.90 38.47 Z" />
</g>
<g id="#7794b0ff">
<path fill="#7794b0" opacity="1.00" d=" M 202.55 39.30 C 203.63 38.84 204.70 38.37 205.78 37.90 C 204.70 38.98 203.67 40.09 202.59 41.17 C 201.64 41.41 200.69 41.66 199.74 41.87 C 199.26 41.97 198.32 42.16 197.85 42.25 L 196.60 41.46 L 197.08 40.82 C 198.44 40.87 199.80 40.65 200.99 39.93 C 201.38 39.77 202.16 39.46 202.55 39.30 Z" />
</g>
<g id="#288bd6ff">
<path fill="#288bd6" opacity="1.00" d=" M 205.78 37.90 L 206.62 37.39 C 208.21 38.59 209.79 39.79 211.38 41.00 C 208.45 41.02 205.51 41.00 202.59 41.17 C 203.67 40.09 204.70 38.98 205.78 37.90 Z" />
</g>
<g id="#407bcbff">
<path fill="#407bcb" opacity="1.00" d=" M 13.87 39.96 C 16.62 39.75 19.37 39.59 22.13 39.36 C 21.28 40.79 22.69 42.28 24.17 42.14 C 25.68 42.32 27.20 42.50 28.72 42.67 L 29.68 42.91 C 28.58 43.14 26.46 43.40 26.63 44.94 C 28.19 46.09 29.78 44.09 31.06 43.33 C 32.22 42.65 33.41 42.03 34.61 41.41 C 37.60 41.20 40.59 41.03 43.57 40.79 C 40.90 41.86 38.24 42.96 35.62 44.14 C 39.58 44.50 43.90 43.74 46.47 40.44 C 45.49 46.11 52.35 46.23 56.18 46.94 C 51.81 46.70 47.15 45.95 43.35 48.62 C 40.63 46.94 37.71 45.04 34.36 45.34 C 30.40 45.71 25.51 45.58 23.59 49.72 C 26.97 51.19 30.15 53.14 32.54 56.00 L 31.43 56.00 C 29.79 54.79 28.25 53.41 26.43 52.46 C 22.65 51.75 19.79 54.32 16.80 56.00 L 15.82 56.00 C 17.71 54.35 19.46 52.56 21.20 50.77 C 21.28 48.51 21.41 46.24 21.81 44.01 C 19.19 42.60 16.55 41.25 13.87 39.96 Z" />
</g>
<g id="#6b8aa9ff">
<path fill="#6b8aa9" opacity="1.00" d=" M 90.43 39.11 C 90.80 38.95 91.53 38.63 91.90 38.47 L 91.68 39.13 C 91.60 39.60 91.46 40.53 91.38 41.00 C 89.90 41.25 88.42 41.56 86.95 41.86 C 86.63 41.81 85.98 41.71 85.66 41.66 L 84.75 41.51 L 85.63 41.37 C 86.77 41.13 87.76 40.56 88.58 39.68 C 89.04 39.54 89.97 39.25 90.43 39.11 Z" />
</g>
<g id="#407ccbff">
<path fill="#407ccb" opacity="1.00" d=" M 181.78 40.28 C 184.30 40.01 186.82 39.70 189.34 39.34 C 190.44 40.02 191.64 40.53 192.91 40.85 C 193.93 41.25 195.04 41.25 196.13 41.15 L 196.60 41.46 L 197.85 42.25 C 196.01 42.92 194.23 43.75 192.44 44.53 C 195.08 44.21 197.86 44.02 199.74 41.87 C 200.69 41.66 201.64 41.41 202.59 41.17 C 205.51 41.00 208.45 41.02 211.38 41.00 C 208.84 41.95 206.29 42.88 203.75 43.83 C 210.51 44.20 217.27 44.36 224.00 45.05 L 224.00 45.78 C 220.63 46.22 217.29 46.77 213.92 47.14 C 210.19 47.77 206.81 45.43 203.14 45.20 C 198.72 45.09 194.41 46.40 190.35 48.02 C 195.10 51.09 199.99 53.99 205.30 56.00 L 195.45 56.00 C 196.81 55.53 198.16 55.04 199.51 54.53 C 197.37 53.29 195.28 51.81 192.84 51.23 C 189.66 51.52 186.96 53.46 184.11 54.73 C 185.89 53.01 187.70 51.30 189.50 49.59 C 188.66 48.88 187.83 48.17 187.00 47.46 C 188.51 47.06 190.02 46.65 191.54 46.24 C 189.92 42.20 185.55 41.23 181.78 40.28 Z" />
</g>
<g id="#98a9bbff">
<path fill="#98a9bb" opacity="1.00" d=" M 189.34 39.34 C 189.88 39.09 190.97 38.59 191.52 38.34 L 192.50 38.34 C 192.73 38.62 193.20 39.18 193.43 39.47 C 193.30 39.81 193.04 40.50 192.91 40.85 C 191.64 40.53 190.44 40.02 189.34 39.34 Z" />
</g>
<g id="#7c8f9bff">
<path fill="#7c8f9b" opacity="1.00" d=" M 193.43 39.47 C 194.05 39.48 195.31 39.51 195.94 39.52 C 195.99 39.93 196.08 40.74 196.13 41.15 C 195.04 41.25 193.93 41.25 192.91 40.85 C 193.04 40.50 193.30 39.81 193.43 39.47 Z" />
</g>
<g id="#427acbff">
<path fill="#427acb" opacity="1.00" d=" M 2.33 47.90 C 4.17 47.47 6.00 47.04 7.84 46.60 C 6.82 47.97 5.78 49.33 4.77 50.70 C 6.88 52.14 9.00 53.57 11.13 55.00 C 8.15 54.73 5.17 54.41 2.19 54.14 C 2.74 53.34 3.29 52.55 3.84 51.75 C 3.35 50.46 2.83 49.18 2.33 47.90 Z" />
</g>
<g id="#4279caff">
<path fill="#4279ca" opacity="1.00" d=" M 113.55 51.57 C 116.88 49.24 120.45 50.72 123.39 52.91 C 120.09 52.58 116.81 52.07 113.55 51.57 Z" />
</g>
</svg>
