<?xml version="1.0" encoding="UTF-8" ?>
<!DOCTYPE svg PUBLIC "-//W3C//DTD SVG 1.1//EN" "http://www.w3.org/Graphics/SVG/1.1/DTD/svg11.dtd">
<svg width="224pt" height="56pt" viewBox="0 0 224 56" version="1.1" xmlns="http://www.w3.org/2000/svg">
<g id="#3c6cbfff">
<path fill="#3c6cbf" opacity="1.00" d=" M 0.00 0.00 L 25.34 0.00 C 26.49 1.07 27.60 2.18 28.70 3.30 C 22.11 4.26 15.12 5.61 8.61 3.46 C 9.49 5.23 10.41 7.00 10.89 8.93 C 8.97 11.15 6.44 12.76 4.19 14.63 C 8.03 14.27 11.88 14.15 15.73 14.16 C 14.47 11.95 10.79 9.10 13.84 6.83 C 17.20 4.61 21.43 6.82 25.14 6.39 C 27.80 5.26 28.84 2.21 30.40 0.00 L 31.58 0.00 C 32.58 1.09 33.53 2.22 34.48 3.35 C 30.84 6.48 26.75 10.64 28.96 15.86 C 30.54 11.34 33.12 6.64 39.13 7.69 L 39.70 8.09 C 40.50 8.72 41.29 9.37 42.07 10.03 C 41.86 11.62 41.44 14.81 41.23 16.40 L 41.14 17.06 C 41.51 18.47 42.06 19.83 42.65 21.16 C 42.42 21.50 41.96 22.16 41.74 22.50 C 41.01 25.29 41.02 28.19 41.27 31.04 L 41.31 31.80 L 40.77 31.40 C 38.03 29.27 34.69 28.19 31.41 27.23 C 30.75 26.09 30.08 24.95 29.42 23.82 C 29.33 26.30 29.21 28.78 29.09 31.27 C 33.00 31.52 36.91 31.79 40.78 32.41 C 40.70 36.16 40.44 39.94 41.06 43.66 C 40.44 45.17 39.80 46.67 39.16 48.18 C 39.99 49.54 40.83 50.90 41.68 52.25 L 42.11 52.91 C 41.47 53.95 40.82 54.98 40.16 56.00 L 28.17 56.00 C 27.95 54.22 27.74 52.43 27.52 50.65 C 26.70 52.42 25.91 54.20 25.17 56.00 L 15.69 56.00 C 14.49 54.84 13.36 53.61 12.11 52.52 C 9.38 49.74 5.45 49.07 1.74 48.66 C 1.31 48.58 0.44 48.43 0.00 48.35 L 0.00 30.90 C 3.84 29.58 7.70 28.34 11.52 26.97 C 11.78 25.19 11.51 23.16 12.60 21.62 C 14.75 19.88 17.42 18.98 19.88 17.78 C 13.28 19.31 6.40 20.50 0.00 17.47 L 0.00 0.00 M 22.07 18.79 C 23.86 20.50 27.01 21.65 26.91 24.54 C 24.15 26.70 20.86 28.01 17.78 29.64 C 18.31 29.98 19.36 30.65 19.89 30.98 C 24.13 28.43 28.73 25.78 29.53 20.39 C 27.04 19.90 24.55 19.36 22.07 18.79 M 14.43 35.98 C 18.98 37.19 23.53 38.38 28.06 39.66 C 27.02 41.44 25.99 43.22 24.95 45.01 C 25.88 45.37 26.81 45.72 27.75 46.08 C 28.25 44.50 28.76 42.92 29.25 41.33 C 31.68 41.73 34.12 42.12 36.55 42.53 C 32.05 38.76 26.86 35.88 21.45 33.66 C 18.84 32.46 16.58 34.85 14.43 35.98 M 34.58 44.35 C 32.56 46.42 30.43 48.37 28.40 50.43 C 31.22 49.44 34.06 48.52 36.92 47.64 C 36.14 46.54 35.36 45.45 34.58 44.35 Z" />
<path fill="#3c6cbf" opacity="1.00" d=" M 55.93 0.00 L 91.91 0.00 C 89.05 5.27 82.36 8.21 82.85 15.13 C 85.96 11.57 89.36 8.24 93.44 5.81 C 92.99 3.87 92.57 1.93 92.06 0.00 L 97.40 0.00 C 95.76 10.19 97.03 20.54 97.55 30.76 L 97.54 31.58 C 97.54 38.49 96.70 45.44 97.46 52.34 L 97.58 53.12 C 97.76 53.84 98.13 55.28 98.32 56.00 L 69.66 56.00 C 67.55 54.23 65.46 52.42 63.09 51.00 C 61.84 50.26 60.56 49.56 59.26 48.90 C 60.64 48.12 61.96 47.26 63.29 46.41 C 62.14 45.68 60.99 44.96 59.83 44.25 C 59.07 46.07 58.27 47.89 57.32 49.63 C 57.00 49.75 56.35 50.01 56.03 50.13 L 56.04 49.57 C 55.92 42.39 56.02 35.22 55.86 28.04 C 59.89 27.30 63.81 26.11 67.72 24.88 C 68.05 22.45 68.58 20.06 69.27 17.71 C 64.70 18.83 60.13 17.62 55.72 16.34 C 55.70 15.60 55.66 14.11 55.64 13.37 L 55.85 12.51 C 55.90 12.10 56.00 11.28 56.05 10.86 C 56.04 10.34 56.03 9.30 56.02 8.78 C 55.99 5.85 55.96 2.93 55.93 0.00 M 64.42 2.29 C 65.42 4.27 67.36 6.22 66.75 8.60 C 64.70 10.55 62.24 12.01 59.97 13.68 C 63.93 12.62 68.04 12.90 72.07 13.28 C 70.66 11.23 67.05 9.03 69.27 6.34 C 72.35 2.84 77.23 4.89 80.82 6.30 C 81.92 5.29 83.03 4.30 84.14 3.31 C 77.56 3.32 70.96 3.08 64.42 2.29 M 73.41 27.02 C 73.75 29.97 73.99 32.92 74.21 35.88 C 76.69 35.97 79.16 36.07 81.64 36.17 C 82.13 39.27 82.70 42.36 83.47 45.41 C 83.60 43.66 83.88 40.16 84.01 38.41 C 86.87 39.21 89.75 39.92 92.63 40.63 C 87.82 34.77 77.48 36.34 75.05 28.39 C 78.46 27.09 81.91 25.90 85.32 24.61 C 81.33 25.35 77.36 26.13 73.41 27.02 M 86.17 27.17 C 85.65 28.80 86.20 29.35 87.83 28.83 C 88.35 27.20 87.80 26.65 86.17 27.17 M 60.11 39.07 C 62.28 41.30 64.57 43.42 67.00 45.37 C 65.87 43.10 64.69 40.86 63.59 38.58 C 64.55 38.54 65.52 38.49 66.48 38.44 C 66.59 37.72 66.82 36.27 66.94 35.54 C 64.60 36.60 62.33 37.79 60.11 39.07 Z" />
<path fill="#3c6cbf" opacity="1.00" d=" M 167.93 0.00 L 203.91 0.00 C 201.05 5.27 194.36 8.21 194.85 15.13 C 197.96 11.57 201.35 8.24 205.44 5.81 C 204.99 3.87 204.56 1.93 204.06 0.00 L 209.40 0.00 C 207.76 10.19 209.03 20.54 209.55 30.76 L 209.54 31.58 C 209.54 38.49 208.70 45.44 209.46 52.34 L 209.58 53.12 C 209.76 53.84 210.13 55.28 210.31 56.00 L 181.73 56.00 C 179.59 54.28 177.96 51.49 175.08 50.97 C 173.31 50.63 169.77 49.97 168.00 49.64 L 168.00 49.11 C 167.95 42.58 167.75 36.04 167.93 29.51 C 172.03 28.33 175.79 26.28 179.69 24.60 C 180.05 22.26 180.60 19.96 181.31 17.71 C 176.73 18.83 172.14 17.63 167.72 16.34 C 167.71 15.60 167.67 14.11 167.66 13.37 L 167.86 12.51 C 167.91 12.10 168.00 11.27 168.05 10.86 C 168.04 10.34 168.03 9.30 168.02 8.78 C 167.99 5.85 167.94 2.93 167.93 0.00 M 178.86 4.40 C 179.33 9.01 175.47 11.51 172.00 13.71 C 175.95 12.60 180.04 12.90 184.07 13.28 C 182.66 11.23 179.05 9.03 181.27 6.34 C 184.35 2.84 189.23 4.88 192.82 6.30 C 193.92 5.29 195.03 4.30 196.15 3.31 C 190.36 3.00 184.53 2.91 178.86 4.40 M 185.42 27.03 C 185.75 29.98 185.97 32.93 186.20 35.89 C 188.82 35.97 191.44 36.05 194.07 36.13 C 193.93 38.54 193.79 40.96 193.67 43.37 C 191.68 44.94 189.55 46.41 187.99 48.45 C 191.33 50.94 195.15 52.67 198.62 54.97 C 195.74 50.60 200.23 47.36 203.00 44.50 C 199.63 45.71 195.41 46.48 194.72 50.96 C 193.54 49.97 192.36 48.99 191.27 47.91 C 192.60 46.59 194.12 45.47 195.62 44.35 C 195.72 42.87 195.91 39.92 196.01 38.44 C 198.86 39.22 201.72 39.93 204.60 40.65 C 199.85 36.02 193.27 34.35 187.16 32.37 C 187.57 26.76 193.30 26.24 197.27 24.52 C 193.30 25.30 189.35 26.12 185.42 27.03 M 198.17 27.17 C 197.65 28.80 198.20 29.35 199.83 28.83 C 200.35 27.20 199.79 26.65 198.17 27.17 M 171.19 40.81 C 174.18 42.13 177.01 43.83 180.18 44.70 C 179.04 44.00 177.91 43.28 176.78 42.56 C 177.73 40.05 178.87 37.61 180.03 35.19 C 176.27 35.63 173.23 37.81 171.19 40.81 Z" />
</g>
<g id="#4278caff">
<path fill="#4278ca" opacity="1.00" d=" M 25.34 0.00 L 30.40 0.00 C 28.84 2.21 27.80 5.26 25.14 6.39 C 21.43 6.82 17.20 4.61 13.84 6.83 C 10.79 9.10 14.47 11.95 15.73 14.16 C 11.88 14.15 8.03 14.27 4.19 14.63 C 6.44 12.76 8.97 11.15 10.89 8.93 C 10.41 7.00 9.49 5.23 8.61 3.46 C 15.12 5.61 22.11 4.26 28.70 3.30 C 27.60 2.18 26.49 1.07 25.34 0.00 Z" />
<path fill="#4278ca" opacity="1.00" d=" M 138.41 0.00 L 141.68 0.00 C 140.10 1.41 138.73 3.12 136.88 4.20 C 133.28 4.84 129.10 2.65 125.84 4.83 C 122.79 7.10 126.46 9.95 127.73 12.16 C 123.88 12.14 120.04 12.27 116.21 12.64 C 118.42 10.78 120.90 9.17 122.80 6.96 C 122.39 4.98 121.57 3.14 120.78 1.30 C 125.81 1.81 130.86 2.05 135.90 2.41 C 136.52 1.81 137.78 0.60 138.41 0.00 Z" />
<path fill="#4278ca" opacity="1.00" d=" M 64.42 2.29 C 70.96 3.08 77.56 3.32 84.14 3.31 C 83.03 4.30 81.92 5.29 80.82 6.30 C 77.23 4.89 72.35 2.84 69.27 6.34 C 67.05 9.03 70.66 11.23 72.07 13.28 C 68.04 12.90 63.93 12.62 59.97 13.68 C 62.24 12.01 64.70 10.55 66.75 8.60 C 67.36 6.22 65.42 4.27 64.42 2.29 Z" />
</g>
<g id="#4579caff">
<path fill="#4579ca" opacity="1.00" d=" M 31.58 0.00 L 33.33 0.00 C 35.27 2.40 36.97 4.98 38.91 7.38 L 39.13 7.69 C 33.12 6.64 30.54 11.34 28.96 15.86 C 26.75 10.64 30.84 6.48 34.48 3.35 C 33.53 2.22 32.58 1.09 31.58 0.00 Z" />
</g>
<g id="#3c6bbeff">
<path fill="#3c6bbe" opacity="1.00" d=" M 33.33 0.00 L 40.05 0.00 C 38.98 1.64 40.45 3.28 41.58 4.37 C 41.73 4.82 42.03 5.73 42.18 6.18 C 41.04 6.45 39.95 6.85 38.91 7.38 C 36.97 4.98 35.27 2.40 33.33 0.00 Z" />
<path fill="#3c6bbe" opacity="1.00" d=" M 111.78 17.46 C 115.41 18.38 118.99 19.51 122.43 20.97 C 118.91 22.68 115.29 24.20 111.95 26.26 C 111.95 23.33 111.90 20.39 111.78 17.46 Z" />
<path fill="#3c6bbe" opacity="1.00" d=" M 48.43 22.50 C 46.06 19.77 50.47 19.66 50.03 22.66 C 49.63 22.62 48.83 22.54 48.43 22.50 Z" />
<path fill="#3c6bbe" opacity="1.00" d=" M 104.46 22.53 C 102.14 19.65 106.59 19.85 106.05 22.82 C 105.65 22.75 104.86 22.61 104.46 22.53 Z" />
<path fill="#3c6bbe" opacity="1.00" d=" M 160.46 22.43 C 158.05 19.69 162.51 19.65 162.07 22.62 C 161.67 22.57 160.87 22.47 160.46 22.43 Z" />
<path fill="#3c6bbe" opacity="1.00" d=" M 216.46 22.43 C 214.06 19.69 218.52 19.66 218.06 22.64 C 217.66 22.59 216.86 22.49 216.46 22.43 Z" />
<path fill="#3c6bbe" opacity="1.00" d=" M 44.20 22.90 C 44.82 22.78 46.04 22.54 46.65 22.43 L 46.51 23.20 C 46.22 23.41 45.65 23.84 45.37 24.06 C 45.08 23.77 44.49 23.19 44.20 22.90 Z" />
<path fill="#3c6bbe" opacity="1.00" d=" M 100.30 22.70 C 100.91 22.60 102.12 22.40 102.73 22.30 L 102.59 23.08 C 102.30 23.28 101.74 23.69 101.46 23.89 C 101.17 23.59 100.59 23.00 100.30 22.70 Z" />
<path fill="#3c6bbe" opacity="1.00" d=" M 156.25 22.70 C 156.86 22.59 158.09 22.37 158.70 22.26 L 158.56 23.03 C 158.29 23.23 157.73 23.65 157.45 23.86 C 157.15 23.57 156.55 22.99 156.25 22.70 Z" />
<path fill="#3c6bbe" opacity="1.00" d=" M 212.29 22.71 C 212.90 22.60 214.11 22.38 214.71 22.27 L 214.57 23.05 C 214.29 23.26 213.72 23.68 213.44 23.88 C 213.16 23.59 212.58 23.00 212.29 22.71 Z" />
<path fill="#3c6bbe" opacity="1.00" d=" M 47.68 24.48 L 48.46 24.46 C 48.59 25.48 49.06 26.32 49.86 26.96 C 49.59 27.28 49.06 27.90 48.80 28.22 L 48.13 27.86 C 47.96 27.19 47.62 25.85 47.45 25.17 L 47.68 24.48 Z" />
<path fill="#3c6bbe" opacity="1.00" d=" M 103.77 24.45 L 104.53 24.52 C 104.61 25.56 105.05 26.42 105.85 27.10 C 105.57 27.40 105.01 27.99 104.73 28.28 L 104.07 27.89 C 103.93 27.19 103.65 25.81 103.51 25.12 L 103.77 24.45 Z" />
<path fill="#3c6bbe" opacity="1.00" d=" M 159.78 24.36 L 160.54 24.39 C 160.63 25.42 161.08 26.28 161.86 26.96 C 161.59 27.27 161.04 27.89 160.77 28.20 L 160.11 27.82 C 159.97 27.12 159.69 25.74 159.55 25.05 L 159.78 24.36 Z" />
<path fill="#3c6bbe" opacity="1.00" d=" M 215.75 24.39 L 216.51 24.41 C 216.61 25.45 217.06 26.30 217.85 26.97 C 217.58 27.28 217.04 27.89 216.77 28.20 L 216.11 27.83 C 215.96 27.14 215.66 25.76 215.51 25.08 L 215.75 24.39 Z" />
</g>
<g id="#268ed9fe">
<path fill="#268ed9" opacity="1.00" d=" M 40.05 0.00 L 41.59 0.00 C 42.08 1.43 42.07 2.89 41.58 4.37 C 40.45 3.28 38.98 1.64 40.05 0.00 Z" />
<path fill="#268ed9" opacity="1.00" d=" M 41.27 31.04 C 41.02 28.19 41.01 25.29 41.74 22.50 C 41.97 23.53 42.34 24.51 42.83 25.45 C 42.94 26.01 43.16 27.14 43.27 27.70 L 43.44 29.10 C 42.90 29.58 41.81 30.55 41.27 31.04 Z" />
</g>
<g id="#8aa3b5ff">
<path fill="#8aa3b5" opacity="1.00" d=" M 41.59 0.00 L 42.93 0.00 C 43.22 0.56 43.82 1.69 44.11 2.26 C 43.76 3.14 43.45 4.03 43.16 4.93 C 43.03 5.57 42.77 6.86 42.64 7.50 C 42.53 7.17 42.30 6.51 42.18 6.18 C 42.03 5.73 41.73 4.82 41.58 4.37 C 42.07 2.89 42.08 1.43 41.59 0.00 Z" />
</g>
<g id="#332e2aff">
<path fill="#332e2a" opacity="1.00" d=" M 42.93 0.00 L 44.46 0.00 C 44.37 0.56 44.20 1.69 44.11 2.26 C 43.82 1.69 43.22 0.56 42.93 0.00 Z" />
<path fill="#332e2a" opacity="1.00" d=" M 48.28 0.00 L 50.55 0.00 C 50.56 0.31 50.59 0.93 50.60 1.24 C 49.41 2.04 47.94 2.17 46.54 2.12 C 47.05 1.35 47.63 0.65 48.28 0.00 Z" />
<path fill="#332e2a" opacity="1.00" d=" M 104.23 0.00 L 106.53 0.00 C 106.54 0.31 106.57 0.92 106.58 1.23 C 105.39 2.03 103.93 2.17 102.54 2.12 C 103.03 1.36 103.60 0.65 104.23 0.00 Z" />
<path fill="#332e2a" opacity="1.00" d=" M 155.16 0.00 L 156.77 0.00 C 156.40 0.60 155.67 1.80 155.31 2.40 C 155.27 1.80 155.20 0.60 155.16 0.00 Z" />
<path fill="#332e2a" opacity="1.00" d=" M 160.26 0.00 L 162.54 0.00 C 162.55 0.31 162.58 0.93 162.59 1.23 C 161.40 2.04 159.94 2.17 158.54 2.12 C 159.04 1.35 159.61 0.65 160.26 0.00 Z" />
<path fill="#332e2a" opacity="1.00" d=" M 216.23 0.00 L 218.53 0.00 C 218.54 0.31 218.57 0.92 218.59 1.23 C 217.39 2.03 215.93 2.17 214.54 2.12 C 215.03 1.36 215.60 0.65 216.23 0.00 Z" />
<path fill="#332e2a" opacity="1.00" d=" M 45.37 24.06 C 45.65 23.84 46.22 23.41 46.51 23.20 C 46.99 23.02 47.95 22.67 48.43 22.50 C 48.83 22.54 49.63 22.62 50.03 22.66 L 50.18 23.22 L 50.09 23.88 L 49.34 24.27 L 48.46 24.46 L 47.68 24.48 C 47.10 24.37 45.95 24.16 45.37 24.06 Z" />
<path fill="#332e2a" opacity="1.00" d=" M 101.46 23.89 C 101.74 23.69 102.30 23.28 102.59 23.08 C 103.06 22.94 103.99 22.67 104.46 22.53 C 104.86 22.61 105.65 22.75 106.05 22.82 L 106.20 23.46 L 106.12 24.14 L 105.40 24.42 L 104.53 24.52 L 103.77 24.45 C 103.19 24.31 102.03 24.03 101.46 23.89 Z" />
<path fill="#332e2a" opacity="1.00" d=" M 157.45 23.86 C 157.73 23.65 158.29 23.23 158.56 23.03 C 159.04 22.88 159.99 22.58 160.46 22.43 C 160.87 22.47 161.67 22.57 162.07 22.62 L 162.23 23.20 L 162.15 23.86 L 161.41 24.23 L 160.54 24.39 L 159.78 24.36 C 159.20 24.24 158.03 23.99 157.45 23.86 Z" />
<path fill="#332e2a" opacity="1.00" d=" M 213.44 23.88 C 213.72 23.68 214.29 23.26 214.57 23.05 C 215.04 22.89 215.98 22.59 216.46 22.43 C 216.86 22.49 217.66 22.59 218.06 22.64 L 218.21 23.22 L 218.12 23.88 L 217.38 24.25 L 216.51 24.41 L 215.75 24.39 C 215.17 24.26 214.02 24.01 213.44 23.88 Z" />
</g>
<g id="#525548ff">
<path fill="#525548" opacity="1.00" d=" M 44.46 0.00 L 48.28 0.00 C 47.63 0.65 47.05 1.35 46.54 2.12 C 47.94 2.17 49.41 2.04 50.60 1.24 C 50.56 2.43 50.46 3.61 50.33 4.80 C 47.94 4.79 45.55 4.83 43.16 4.93 C 43.45 4.03 43.76 3.14 44.11 2.26 C 44.20 1.69 44.37 0.56 44.46 0.00 Z" />
<path fill="#525548" opacity="1.00" d=" M 101.21 0.00 L 104.23 0.00 C 103.60 0.65 103.03 1.36 102.54 2.12 C 103.93 2.17 105.39 2.03 106.58 1.23 C 106.56 2.45 106.46 3.67 106.33 4.88 C 103.87 4.75 101.41 4.66 98.95 4.61 L 98.95 3.86 C 100.02 2.78 100.90 1.51 101.21 0.00 Z" />
<path fill="#525548" opacity="1.00" d=" M 156.77 0.00 L 160.26 0.00 C 159.61 0.65 159.04 1.35 158.54 2.12 C 159.94 2.17 161.40 2.04 162.59 1.23 C 162.56 2.44 162.46 3.65 162.33 4.85 C 160.05 4.79 157.77 4.76 155.50 4.78 C 155.42 3.99 155.36 3.19 155.31 2.40 C 155.67 1.80 156.40 0.60 156.77 0.00 Z" />
<path fill="#525548" opacity="1.00" d=" M 213.21 0.00 L 216.23 0.00 C 215.60 0.65 215.03 1.36 214.54 2.12 C 215.93 2.17 217.39 2.03 218.59 1.23 C 218.56 2.45 218.46 3.67 218.33 4.88 C 215.87 4.75 213.41 4.66 210.95 4.61 L 210.95 3.86 C 212.02 2.78 212.90 1.51 213.21 0.00 Z" />
</g>
<g id="#7da960ff">
<path fill="#7da960" opacity="1.00" d=" M 50.55 0.00 L 55.93 0.00 C 55.96 2.93 55.99 5.85 56.02 8.78 C 54.53 9.50 53.04 10.25 51.55 11.00 C 51.89 8.64 52.33 6.30 52.76 3.96 C 51.91 4.60 51.06 5.24 50.20 5.87 L 50.33 4.80 C 50.46 3.61 50.56 2.43 50.60 1.24 C 50.59 0.93 50.56 0.31 50.55 0.00 Z" />
<path fill="#7da960" opacity="1.00" d=" M 106.53 0.00 L 111.92 0.00 C 111.95 2.93 111.99 5.85 112.02 8.78 C 110.52 9.51 109.04 10.25 107.55 11.00 C 107.89 8.63 108.32 6.29 108.76 3.94 C 107.91 4.61 107.06 5.27 106.20 5.93 L 106.33 4.88 C 106.46 3.67 106.56 2.45 106.58 1.23 C 106.57 0.92 106.54 0.31 106.53 0.00 Z" />
<path fill="#7da960" opacity="1.00" d=" M 162.54 0.00 L 167.93 0.00 C 167.94 2.93 167.99 5.85 168.02 8.78 C 166.52 9.50 165.04 10.25 163.55 11.00 C 163.89 8.64 164.33 6.29 164.76 3.95 C 163.91 4.60 163.06 5.25 162.20 5.90 L 162.33 4.85 C 162.46 3.65 162.56 2.44 162.59 1.23 C 162.58 0.93 162.55 0.31 162.54 0.00 Z" />
<path fill="#7da960" opacity="1.00" d=" M 218.53 0.00 L 224.00 0.00 L 224.00 8.06 C 222.55 9.18 221.05 10.24 219.56 11.31 C 219.90 8.85 220.32 6.39 220.75 3.94 C 219.90 4.61 219.05 5.27 218.20 5.93 L 218.33 4.88 C 218.46 3.67 218.56 2.45 218.59 1.23 C 218.57 0.92 218.54 0.31 218.53 0.00 Z" />
</g>
<g id="#437acaff">
<path fill="#437aca" opacity="1.00" d=" M 91.91 0.00 L 92.06 0.00 C 92.57 1.93 92.99 3.87 93.44 5.81 C 89.36 8.24 85.96 11.57 82.85 15.13 C 82.36 8.21 89.05 5.27 91.91 0.00 Z" />
<path fill="#437aca" opacity="1.00" d=" M 203.91 0.00 L 204.06 0.00 C 204.56 1.93 204.99 3.87 205.44 5.81 C 201.35 8.24 197.96 11.57 194.85 15.13 C 194.36 8.21 201.05 5.27 203.91 0.00 Z" />
</g>
<g id="#298ed7ff">
<path fill="#298ed7" opacity="1.00" d=" M 97.40 0.00 L 99.64 0.00 C 98.90 1.17 98.67 2.45 98.95 3.86 L 98.95 4.61 C 98.96 6.35 98.97 8.09 98.97 9.82 C 98.68 11.05 99.68 12.33 101.00 12.01 C 100.38 13.23 99.78 14.46 99.17 15.69 C 98.18 16.95 98.94 19.01 100.50 19.36 C 100.20 20.62 99.94 21.89 99.70 23.16 C 99.65 23.58 99.55 24.41 99.50 24.83 L 99.42 25.58 C 99.37 26.18 99.27 27.38 99.22 27.98 C 99.24 28.26 99.29 28.82 99.31 29.10 C 98.87 29.52 97.99 30.35 97.55 30.76 C 97.03 20.54 95.76 10.19 97.40 0.00 Z" />
<path fill="#298ed7" opacity="1.00" d=" M 209.40 0.00 L 211.64 0.00 C 210.90 1.17 210.67 2.45 210.95 3.86 L 210.95 4.61 C 210.96 6.35 210.97 8.09 210.97 9.82 C 210.67 11.05 211.68 12.33 213.00 12.01 C 212.37 13.23 211.77 14.46 211.17 15.69 C 210.18 16.95 210.94 19.01 212.49 19.36 C 212.19 20.63 211.93 21.90 211.69 23.17 C 211.64 23.59 211.54 24.42 211.49 24.83 L 211.42 25.58 C 211.37 26.18 211.27 27.38 211.22 27.98 C 211.24 28.26 211.29 28.82 211.31 29.10 C 210.87 29.52 209.99 30.35 209.55 30.76 C 209.03 20.54 207.76 10.19 209.40 0.00 Z" />
</g>
<g id="#5c6268ff">
<path fill="#5c6268" opacity="1.00" d=" M 99.64 0.00 L 101.21 0.00 C 100.90 1.51 100.02 2.78 98.95 3.86 C 98.67 2.45 98.90 1.17 99.64 0.00 Z" />
<path fill="#5c6268" opacity="1.00" d=" M 211.64 0.00 L 213.21 0.00 C 212.90 1.51 212.02 2.78 210.95 3.86 C 210.67 2.45 210.90 1.17 211.64 0.00 Z" />
</g>
<g id="#3c6cbffe">
<path fill="#3c6cbf" opacity="1.00" d=" M 111.92 0.00 L 138.41 0.00 C 137.78 0.60 136.52 1.81 135.90 2.41 C 130.86 2.05 125.81 1.81 120.78 1.30 C 121.57 3.14 122.39 4.98 122.80 6.96 C 120.90 9.17 118.42 10.78 116.21 12.64 C 120.04 12.27 123.88 12.14 127.73 12.16 C 126.46 9.95 122.79 7.10 125.84 4.83 C 129.10 2.65 133.28 4.84 136.88 4.20 C 138.73 3.12 140.10 1.41 141.68 0.00 L 149.31 0.00 C 146.67 2.88 143.48 5.19 139.95 6.85 C 139.85 9.61 139.74 12.37 139.74 15.14 C 141.63 10.27 145.59 6.82 150.46 5.05 C 150.07 3.37 149.71 1.69 149.35 0.00 L 153.39 0.00 C 151.71 10.26 153.05 20.64 153.63 30.91 L 153.63 31.63 C 153.59 39.75 152.45 47.93 153.81 56.00 L 125.35 56.00 L 124.42 55.47 C 123.41 53.76 122.75 51.80 121.39 50.32 C 118.22 49.61 114.91 49.99 111.69 49.86 L 111.70 49.30 C 111.71 42.15 111.95 34.99 111.50 27.86 C 115.49 26.26 119.35 24.38 123.28 22.66 C 123.54 17.68 127.79 15.29 131.89 13.54 C 126.32 15.01 120.62 18.97 114.80 15.98 C 113.76 15.70 112.74 15.40 111.72 15.08 L 111.72 13.51 L 111.91 12.56 C 111.94 12.14 112.02 11.31 112.05 10.90 C 112.04 10.37 112.03 9.31 112.02 8.78 C 111.99 5.85 111.95 2.93 111.92 0.00 M 137.54 15.27 C 136.62 16.41 138.58 17.87 139.46 16.73 C 140.38 15.59 138.41 14.13 137.54 15.27 M 142.17 26.17 C 141.65 27.80 142.20 28.35 143.83 27.83 C 144.35 26.20 143.80 25.65 142.17 26.17 M 128.74 31.01 C 129.55 32.61 130.39 34.20 131.22 35.80 C 132.97 35.90 136.48 36.10 138.24 36.21 C 137.69 39.17 137.13 42.12 136.53 45.07 C 137.72 45.42 138.90 45.78 140.09 46.13 C 139.42 47.20 138.75 48.26 138.08 49.32 C 136.85 48.09 135.70 46.79 134.53 45.51 C 133.21 46.35 131.88 47.16 130.60 48.05 C 133.10 49.69 135.68 51.23 137.88 53.27 C 138.60 51.36 139.46 49.51 140.39 47.70 C 140.75 48.65 141.48 50.55 141.85 51.51 C 145.43 46.94 139.26 42.89 139.09 38.26 C 141.45 39.03 143.82 39.78 146.21 40.48 C 145.47 41.88 144.74 43.27 144.00 44.66 C 146.32 44.55 148.65 44.50 150.98 44.54 C 148.54 42.43 146.47 39.95 144.54 37.38 C 139.28 35.23 134.23 32.58 128.74 31.01 M 113.56 43.61 C 113.40 45.08 113.25 46.54 113.09 48.01 C 114.53 47.93 115.97 47.85 117.41 47.77 C 116.17 46.35 114.88 44.96 113.56 43.61 Z" />
</g>
<g id="#457bcbff">
<path fill="#457bcb" opacity="1.00" d=" M 149.31 0.00 L 149.35 0.00 C 149.71 1.69 150.07 3.37 150.46 5.05 C 145.59 6.82 141.63 10.27 139.74 15.14 C 139.74 12.37 139.85 9.61 139.95 6.85 C 143.48 5.19 146.67 2.88 149.31 0.00 Z" />
</g>
<g id="#278ed8ff">
<path fill="#278ed8" opacity="1.00" d=" M 153.39 0.00 L 155.16 0.00 C 155.20 0.60 155.27 1.80 155.31 2.40 C 155.36 3.19 155.42 3.99 155.50 4.78 C 155.69 6.62 155.95 8.45 156.33 10.26 C 156.53 10.64 156.94 11.39 157.15 11.76 C 156.31 15.52 156.03 19.36 155.64 23.18 C 155.63 23.60 155.60 24.43 155.58 24.85 L 155.60 25.57 C 155.67 26.33 155.81 27.86 155.88 28.62 C 155.55 28.96 154.90 29.65 154.58 29.99 C 154.34 30.22 153.87 30.68 153.63 30.91 C 153.05 20.64 151.71 10.26 153.39 0.00 Z" />
</g>
<g id="#4378caff">
<path fill="#4378ca" opacity="1.00" d=" M 178.86 4.40 C 184.53 2.91 190.36 3.00 196.15 3.31 C 195.03 4.30 193.92 5.29 192.82 6.30 C 189.23 4.88 184.35 2.84 181.27 6.34 C 179.05 9.03 182.66 11.23 184.07 13.28 C 180.04 12.90 175.95 12.60 172.00 13.71 C 175.47 11.51 179.33 9.01 178.86 4.40 Z" />
<path fill="#4378ca" opacity="1.00" d=" M 0.00 17.47 C 6.40 20.50 13.28 19.31 19.88 17.78 C 17.42 18.98 14.75 19.88 12.60 21.62 C 11.51 23.16 11.78 25.19 11.52 26.97 C 7.70 28.34 3.84 29.58 0.00 30.90 L 0.00 29.20 C 3.83 27.58 7.71 26.05 11.33 23.99 C 7.71 21.94 3.84 20.42 0.00 18.84 L 0.00 17.47 Z" />
</g>
<g id="#322f2cff">
<path fill="#322f2c" opacity="1.00" d=" M 43.16 4.93 C 45.55 4.83 47.94 4.79 50.33 4.80 L 50.20 5.87 C 49.71 11.54 48.09 16.97 46.65 22.43 C 46.04 22.54 44.82 22.78 44.20 22.90 L 43.60 23.35 C 43.50 22.92 43.30 22.05 43.20 21.61 C 43.32 21.06 43.56 19.97 43.68 19.42 C 43.98 18.25 44.14 17.05 44.18 15.85 C 44.28 14.62 44.42 13.38 44.54 12.15 L 44.62 11.27 C 47.08 11.88 46.66 8.80 44.43 9.49 C 43.94 9.33 42.96 9.02 42.48 8.87 C 42.52 8.53 42.60 7.84 42.64 7.50 C 42.77 6.86 43.03 5.57 43.16 4.93 M 43.75 7.17 C 45.50 8.14 47.25 9.12 48.99 10.11 C 48.99 9.32 48.99 7.76 48.98 6.97 C 47.24 7.04 45.49 7.10 43.75 7.17 Z" />
<path fill="#322f2c" opacity="1.00" d=" M 98.95 4.61 C 101.41 4.66 103.87 4.75 106.33 4.88 L 106.20 5.93 C 105.69 11.52 104.10 16.89 102.73 22.30 C 102.12 22.40 100.91 22.60 100.30 22.70 L 99.70 23.16 C 99.94 21.89 100.20 20.62 100.50 19.36 C 101.07 18.04 100.75 16.11 99.17 15.69 C 99.78 14.46 100.38 13.23 101.00 12.01 L 101.33 11.38 C 103.80 11.08 102.32 8.39 100.49 9.73 C 100.11 9.75 99.35 9.80 98.97 9.82 C 98.97 8.09 98.96 6.35 98.95 4.61 M 99.75 7.17 C 101.50 8.14 103.25 9.12 104.99 10.11 C 104.99 9.32 104.99 7.76 104.98 6.97 C 103.24 7.04 101.49 7.10 99.75 7.17 Z" />
<path fill="#322f2c" opacity="1.00" d=" M 155.50 4.78 C 157.77 4.76 160.05 4.79 162.33 4.85 L 162.20 5.90 C 161.70 11.49 160.12 16.86 158.70 22.26 C 158.09 22.37 156.86 22.59 156.25 22.70 L 155.64 23.18 C 156.03 19.36 156.31 15.52 157.15 11.76 C 159.24 10.99 157.70 8.10 156.33 10.26 C 155.95 8.45 155.69 6.62 155.50 4.78 M 155.75 7.17 C 157.50 8.14 159.25 9.12 160.99 10.11 C 160.99 9.32 160.99 7.76 160.98 6.97 C 159.24 7.04 157.49 7.10 155.75 7.17 Z" />
<path fill="#322f2c" opacity="1.00" d=" M 210.95 4.61 C 213.41 4.66 215.87 4.75 218.33 4.88 L 218.20 5.93 C 217.69 11.51 216.11 16.88 214.71 22.27 C 214.11 22.38 212.90 22.60 212.29 22.71 L 211.69 23.17 C 211.93 21.90 212.19 20.63 212.49 19.36 C 213.07 18.04 212.75 16.11 211.17 15.69 C 211.77 14.46 212.37 13.23 213.00 12.01 L 213.33 11.38 C 215.80 11.08 214.32 8.39 212.49 9.73 C 212.11 9.75 211.35 9.80 210.97 9.82 C 210.97 8.09 210.96 6.35 210.95 4.61 M 211.75 7.17 C 213.50 8.14 215.25 9.12 216.99 10.11 C 216.99 9.32 216.99 7.76 216.98 6.97 C 215.24 7.04 213.49 7.10 211.75 7.17 Z" />
</g>
<g id="#4f6048ff">
<path fill="#4f6048" opacity="1.00" d=" M 50.20 5.87 C 51.06 5.24 51.91 4.60 52.76 3.96 C 52.33 6.30 51.89 8.64 51.55 11.00 C 51.27 12.99 50.94 14.98 50.71 16.99 C 50.47 19.06 50.42 21.15 50.18 23.22 L 50.03 22.66 C 50.47 19.66 46.06 19.77 48.43 22.50 C 47.95 22.67 46.99 23.02 46.51 23.20 L 46.65 22.43 C 48.09 16.97 49.71 11.54 50.20 5.87 Z" />
<path fill="#4f6048" opacity="1.00" d=" M 106.20 5.93 C 107.06 5.27 107.91 4.61 108.76 3.94 C 108.32 6.29 107.89 8.63 107.55 11.00 C 107.27 12.98 106.93 14.96 106.71 16.95 C 106.46 19.11 106.43 21.29 106.20 23.46 L 106.05 22.82 C 106.59 19.85 102.14 19.65 104.46 22.53 C 103.99 22.67 103.06 22.94 102.59 23.08 L 102.73 22.30 C 104.10 16.89 105.69 11.52 106.20 5.93 Z" />
<path fill="#4f6048" opacity="1.00" d=" M 162.20 5.90 C 163.06 5.25 163.91 4.60 164.76 3.95 C 164.33 6.29 163.89 8.64 163.55 11.00 C 163.27 12.99 162.93 14.98 162.71 16.99 C 162.47 19.05 162.44 21.14 162.23 23.20 L 162.07 22.62 C 162.51 19.65 158.05 19.69 160.46 22.43 C 159.99 22.58 159.04 22.88 158.56 23.03 L 158.70 22.26 C 160.12 16.86 161.70 11.49 162.20 5.90 Z" />
<path fill="#4f6048" opacity="1.00" d=" M 218.20 5.93 C 219.05 5.27 219.90 4.61 220.75 3.94 C 220.32 6.39 219.90 8.85 219.56 11.31 C 219.29 13.21 218.94 15.09 218.72 17.00 C 218.47 19.06 218.44 21.15 218.21 23.22 L 218.06 22.64 C 218.52 19.66 214.06 19.69 216.46 22.43 C 215.98 22.59 215.04 22.89 214.57 23.05 L 214.71 22.27 C 216.11 16.88 217.69 11.51 218.20 5.93 Z" />
</g>
<g id="#268ed9ff">
<path fill="#268ed9" opacity="1.00" d=" M 38.91 7.38 C 39.95 6.85 41.04 6.45 42.18 6.18 C 42.30 6.51 42.53 7.17 42.64 7.50 C 42.60 7.84 42.52 8.53 42.48 8.87 C 41.54 8.62 40.62 8.36 39.70 8.09 L 39.13 7.69 L 38.91 7.38 Z" />
<path fill="#268ed9" opacity="1.00" d=" M 142.17 26.17 C 143.80 25.65 144.35 26.20 143.83 27.83 C 142.20 28.35 141.65 27.80 142.17 26.17 Z" />
<path fill="#268ed9" opacity="1.00" d=" M 86.17 27.17 C 87.80 26.65 88.35 27.20 87.83 28.83 C 86.20 29.35 85.65 28.80 86.17 27.17 Z" />
<path fill="#268ed9" opacity="1.00" d=" M 198.17 27.17 C 199.79 26.65 200.35 27.20 199.83 28.83 C 198.20 29.35 197.65 28.80 198.17 27.17 Z" />
<path fill="#268ed9" opacity="1.00" d=" M 42.11 52.91 C 42.69 52.57 43.85 51.89 44.43 51.55 C 43.97 53.05 43.46 54.54 42.88 56.00 L 40.16 56.00 C 40.82 54.98 41.47 53.95 42.11 52.91 Z" />
<path fill="#268ed9" opacity="1.00" d=" M 97.58 53.12 C 98.20 52.94 99.44 52.58 100.06 52.40 C 100.04 53.67 99.81 55.01 98.94 56.00 L 98.32 56.00 C 98.13 55.28 97.76 53.84 97.58 53.12 Z" />
<path fill="#268ed9" opacity="1.00" d=" M 209.58 53.12 C 210.20 52.94 211.44 52.58 212.06 52.40 C 212.04 53.67 211.81 55.01 210.94 56.00 L 210.31 56.00 C 210.13 55.28 209.76 53.84 209.58 53.12 Z" />
</g>
<g id="#565249ff">
<path fill="#565249" opacity="1.00" d=" M 43.75 7.17 C 45.49 7.10 47.24 7.04 48.98 6.97 C 48.99 7.76 48.99 9.32 48.99 10.11 C 47.25 9.12 45.50 8.14 43.75 7.17 Z" />
<path fill="#565249" opacity="1.00" d=" M 99.75 7.17 C 101.49 7.10 103.24 7.04 104.98 6.97 C 104.99 7.76 104.99 9.32 104.99 10.11 C 103.25 9.12 101.50 8.14 99.75 7.17 Z" />
<path fill="#565249" opacity="1.00" d=" M 155.75 7.17 C 157.49 7.10 159.24 7.04 160.98 6.97 C 160.99 7.76 160.99 9.32 160.99 10.11 C 159.25 9.12 157.50 8.14 155.75 7.17 Z" />
<path fill="#565249" opacity="1.00" d=" M 211.75 7.17 C 213.49 7.10 215.24 7.04 216.98 6.97 C 216.99 7.76 216.99 9.32 216.99 10.11 C 215.25 9.12 213.50 8.14 211.75 7.17 Z" />
<path fill="#565249" opacity="1.00" d=" M 44.43 9.49 C 46.66 8.80 47.08 11.88 44.62 11.27 C 44.57 10.83 44.47 9.93 44.43 9.49 Z" />
<path fill="#565249" opacity="1.00" d=" M 100.49 9.73 C 102.32 8.39 103.80 11.08 101.33 11.38 C 101.12 10.97 100.70 10.14 100.49 9.73 Z" />
<path fill="#565249" opacity="1.00" d=" M 156.33 10.26 C 157.70 8.10 159.24 10.99 157.15 11.76 C 156.94 11.39 156.53 10.64 156.33 10.26 Z" />
<path fill="#565249" opacity="1.00" d=" M 212.49 9.73 C 214.32 8.39 215.80 11.08 213.33 11.38 C 213.12 10.97 212.70 10.14 212.49 9.73 Z" />
<path fill="#565249" opacity="1.00" d=" M 43.27 27.70 C 44.43 28.36 45.61 28.98 46.78 29.61 C 46.88 30.47 46.99 31.33 47.10 32.19 C 45.98 32.30 44.87 32.42 43.75 32.56 C 43.77 31.39 43.67 30.24 43.44 29.10 L 43.27 27.70 Z" />
</g>
<g id="#7b9eb5ff">
<path fill="#7b9eb5" opacity="1.00" d=" M 39.70 8.09 C 40.62 8.36 41.54 8.62 42.48 8.87 C 42.96 9.02 43.94 9.33 44.43 9.49 C 44.47 9.93 44.57 10.83 44.62 11.27 L 44.54 12.15 C 43.72 11.44 42.90 10.73 42.07 10.03 C 41.29 9.37 40.50 8.72 39.70 8.09 Z" />
</g>
<g id="#6b995aff">
<path fill="#6b995a" opacity="1.00" d=" M 51.55 11.00 C 53.04 10.25 54.53 9.50 56.02 8.78 C 56.03 9.30 56.04 10.34 56.05 10.86 C 53.32 8.37 52.56 13.92 55.85 12.51 L 55.64 13.37 C 54.01 14.60 52.35 15.77 50.71 16.99 C 50.94 14.98 51.27 12.99 51.55 11.00 Z" />
<path fill="#6b995a" opacity="1.00" d=" M 107.55 11.00 C 109.04 10.25 110.52 9.51 112.02 8.78 C 112.03 9.31 112.04 10.37 112.05 10.90 C 109.31 8.39 108.62 13.95 111.91 12.56 L 111.72 13.51 C 110.06 14.67 108.37 15.79 106.71 16.95 C 106.93 14.96 107.27 12.98 107.55 11.00 Z" />
<path fill="#6b995a" opacity="1.00" d=" M 163.55 11.00 C 165.04 10.25 166.52 9.50 168.02 8.78 C 168.03 9.30 168.04 10.34 168.05 10.86 C 165.32 8.38 164.57 13.92 167.86 12.51 L 167.66 13.37 C 166.02 14.59 164.35 15.77 162.71 16.99 C 162.93 14.98 163.27 12.99 163.55 11.00 Z" />
<path fill="#6b995a" opacity="1.00" d=" M 219.56 11.31 C 221.05 10.24 222.55 9.18 224.00 8.06 L 224.00 10.77 C 221.00 8.46 220.82 14.21 224.00 12.38 L 224.00 12.93 C 222.26 14.31 220.47 15.63 218.72 17.00 C 218.94 15.09 219.29 13.21 219.56 11.31 Z" />
</g>
<g id="#86a0b1ff">
<path fill="#86a0b1" opacity="1.00" d=" M 98.97 9.82 C 99.35 9.80 100.11 9.75 100.49 9.73 C 100.70 10.14 101.12 10.97 101.33 11.38 L 101.00 12.01 C 99.68 12.33 98.68 11.05 98.97 9.82 Z" />
<path fill="#86a0b1" opacity="1.00" d=" M 210.97 9.82 C 211.35 9.80 212.11 9.75 212.49 9.73 C 212.70 10.14 213.12 10.97 213.33 11.38 L 213.00 12.01 C 211.68 12.33 210.67 11.05 210.97 9.82 Z" />
<path fill="#86a0b1" opacity="1.00" d=" M 100.50 19.36 C 98.94 19.01 98.18 16.95 99.17 15.69 C 100.75 16.11 101.07 18.04 100.50 19.36 Z" />
<path fill="#86a0b1" opacity="1.00" d=" M 212.49 19.36 C 210.94 19.01 210.18 16.95 211.17 15.69 C 212.75 16.11 213.07 18.04 212.49 19.36 Z" />
<path fill="#86a0b1" opacity="1.00" d=" M 42.65 21.16 L 43.20 21.61 C 43.30 22.05 43.50 22.92 43.60 23.35 C 43.53 23.76 43.41 24.57 43.35 24.97 L 42.83 25.45 C 42.34 24.51 41.97 23.53 41.74 22.50 C 41.96 22.16 42.42 21.50 42.65 21.16 Z" />
<path fill="#86a0b1" opacity="1.00" d=" M 155.64 23.18 L 156.25 22.70 C 156.55 22.99 157.15 23.57 157.45 23.86 L 157.33 24.60 C 156.89 24.66 156.02 24.79 155.58 24.85 C 155.60 24.43 155.63 23.60 155.64 23.18 Z" />
<path fill="#86a0b1" opacity="1.00" d=" M 154.58 29.99 C 154.87 30.63 155.45 31.90 155.74 32.54 C 155.41 32.61 154.75 32.76 154.42 32.83 C 154.22 32.53 153.83 31.93 153.63 31.63 L 153.63 30.91 C 153.87 30.68 154.34 30.22 154.58 29.99 Z" />
<path fill="#86a0b1" opacity="1.00" d=" M 154.19 50.33 C 154.63 50.43 155.53 50.61 155.98 50.70 L 155.95 51.52 C 155.11 53.02 153.15 51.63 154.19 50.33 Z" />
</g>
<g id="#3490d2ff">
<path fill="#3490d2" opacity="1.00" d=" M 42.07 10.03 C 42.90 10.73 43.72 11.44 44.54 12.15 C 44.42 13.38 44.28 14.62 44.18 15.85 C 43.44 15.99 41.97 16.26 41.23 16.40 C 41.44 14.81 41.86 11.62 42.07 10.03 Z" />
</g>
<g id="#8db764ff">
<path fill="#8db764" opacity="1.00" d=" M 55.85 12.51 C 52.56 13.92 53.32 8.37 56.05 10.86 C 56.00 11.28 55.90 12.10 55.85 12.51 Z" />
<path fill="#8db764" opacity="1.00" d=" M 111.91 12.56 C 108.62 13.95 109.31 8.39 112.05 10.90 C 112.02 11.31 111.94 12.14 111.91 12.56 Z" />
<path fill="#8db764" opacity="1.00" d=" M 167.86 12.51 C 164.57 13.92 165.32 8.38 168.05 10.86 C 168.00 11.27 167.91 12.10 167.86 12.51 Z" />
<path fill="#8db764" opacity="1.00" d=" M 224.00 12.38 C 220.82 14.21 221.00 8.46 224.00 10.77 L 224.00 12.38 Z" />
</g>
<g id="#4279caff">
<path fill="#4279ca" opacity="1.00" d=" M 114.80 15.98 C 120.62 18.97 126.32 15.01 131.89 13.54 C 127.79 15.29 123.54 17.68 123.28 22.66 C 119.35 24.38 115.49 26.26 111.50 27.86 L 111.70 27.16 L 111.95 26.26 C 115.29 24.20 118.91 22.68 122.43 20.97 C 118.99 19.51 115.41 18.38 111.78 17.46 C 111.76 16.86 111.73 15.67 111.72 15.08 C 112.74 15.40 113.76 15.70 114.80 15.98 Z" />
</g>
<g id="#81ac5dff">
<path fill="#81ac5d" opacity="1.00" d=" M 50.71 16.99 C 52.35 15.77 54.01 14.60 55.64 13.37 C 55.66 14.11 55.70 15.60 55.72 16.34 C 55.76 16.85 55.82 17.88 55.86 18.39 C 56.09 21.36 56.35 24.32 56.62 27.29 C 54.70 25.72 52.66 24.15 50.09 23.88 L 50.18 23.22 C 50.42 21.15 50.47 19.06 50.71 16.99 Z" />
<path fill="#81ac5d" opacity="1.00" d=" M 106.71 16.95 C 108.37 15.79 110.06 14.67 111.72 13.51 L 111.72 15.08 C 111.73 15.67 111.76 16.86 111.78 17.46 C 111.90 20.39 111.95 23.33 111.95 26.26 L 111.70 27.16 C 110.95 25.77 110.20 24.38 109.48 22.98 C 108.35 23.36 107.23 23.75 106.12 24.14 L 106.20 23.46 C 106.43 21.29 106.46 19.11 106.71 16.95 Z" />
<path fill="#81ac5d" opacity="1.00" d=" M 162.71 16.99 C 164.35 15.77 166.02 14.59 167.66 13.37 C 167.67 14.11 167.71 15.60 167.72 16.34 C 167.75 16.85 167.81 17.88 167.84 18.39 C 168.02 21.29 168.23 24.18 168.44 27.08 C 166.56 25.62 164.56 24.23 162.15 23.86 L 162.23 23.20 C 162.44 21.14 162.47 19.05 162.71 16.99 Z" />
<path fill="#81ac5d" opacity="1.00" d=" M 218.72 17.00 C 220.47 15.63 222.26 14.31 224.00 12.93 L 224.00 27.03 C 222.55 25.18 220.57 23.79 218.12 23.88 L 218.21 23.22 C 218.44 21.15 218.47 19.06 218.72 17.00 Z" />
</g>
<g id="#4478cbff">
<path fill="#4478cb" opacity="1.00" d=" M 137.54 15.27 C 138.41 14.13 140.38 15.59 139.46 16.73 C 138.58 17.87 136.62 16.41 137.54 15.27 Z" />
</g>
<g id="#86a0b0fe">
<path fill="#86a0b0" opacity="1.00" d=" M 41.23 16.40 C 41.97 16.26 43.44 15.99 44.18 15.85 C 44.14 17.05 43.98 18.25 43.68 19.42 C 42.71 18.78 41.78 18.04 41.14 17.06 L 41.23 16.40 Z" />
</g>
<g id="#427acbff">
<path fill="#427acb" opacity="1.00" d=" M 55.72 16.34 C 60.13 17.62 64.70 18.83 69.27 17.71 C 68.58 20.06 68.05 22.45 67.72 24.88 C 63.81 26.11 59.89 27.30 55.86 28.04 L 56.62 27.29 C 60.02 25.63 63.53 24.19 66.89 22.44 C 63.39 20.65 59.65 19.40 55.86 18.39 C 55.82 17.88 55.76 16.85 55.72 16.34 Z" />
</g>
<g id="#427acaff">
<path fill="#427aca" opacity="1.00" d=" M 167.72 16.34 C 172.14 17.63 176.73 18.83 181.31 17.71 C 180.60 19.96 180.05 22.26 179.69 24.60 C 175.79 26.28 172.03 28.33 167.93 29.51 L 168.00 28.06 L 168.44 27.08 C 171.97 25.61 175.53 24.22 178.95 22.50 C 175.42 20.67 171.66 19.39 167.84 18.39 C 167.81 17.88 167.75 16.85 167.72 16.34 Z" />
</g>
<g id="#2889d5ff">
<path fill="#2889d5" opacity="1.00" d=" M 42.65 21.16 C 42.06 19.83 41.51 18.47 41.14 17.06 C 41.78 18.04 42.71 18.78 43.68 19.42 C 43.56 19.97 43.32 21.06 43.20 21.61 L 42.65 21.16 Z" />
</g>
<g id="#4377c9ff">
<path fill="#4377c9" opacity="1.00" d=" M 22.07 18.79 C 24.55 19.36 27.04 19.90 29.53 20.39 C 28.73 25.78 24.13 28.43 19.89 30.98 C 19.36 30.65 18.31 29.98 17.78 29.64 C 20.86 28.01 24.15 26.70 26.91 24.54 C 27.01 21.65 23.86 20.50 22.07 18.79 Z" />
</g>
<g id="#3c6abefe">
<path fill="#3c6abe" opacity="1.00" d=" M 55.86 18.39 C 59.65 19.40 63.39 20.65 66.89 22.44 C 63.53 24.19 60.02 25.63 56.62 27.29 C 56.35 24.32 56.09 21.36 55.86 18.39 Z" />
<path fill="#3c6abe" opacity="1.00" d=" M 167.84 18.39 C 171.66 19.39 175.42 20.67 178.95 22.50 C 175.53 24.22 171.97 25.61 168.44 27.08 C 168.23 24.18 168.02 21.29 167.84 18.39 Z" />
</g>
<g id="#3c6abeff">
<path fill="#3c6abe" opacity="1.00" d=" M 0.00 18.84 C 3.84 20.42 7.71 21.94 11.33 23.99 C 7.71 26.05 3.83 27.58 0.00 29.20 L 0.00 18.84 Z" />
</g>
<g id="#adc2d9ff">
<path fill="#adc2d9" opacity="1.00" d=" M 43.60 23.35 L 44.20 22.90 C 44.49 23.19 45.08 23.77 45.37 24.06 L 45.24 24.79 C 44.77 24.83 43.82 24.92 43.35 24.97 C 43.41 24.57 43.53 23.76 43.60 23.35 Z" />
<path fill="#adc2d9" opacity="1.00" d=" M 99.70 23.16 L 100.30 22.70 C 100.59 23.00 101.17 23.59 101.46 23.89 L 101.30 24.63 C 100.85 24.68 99.95 24.78 99.50 24.83 C 99.55 24.41 99.65 23.58 99.70 23.16 Z" />
<path fill="#adc2d9" opacity="1.00" d=" M 211.69 23.17 L 212.29 22.71 C 212.58 23.00 213.16 23.59 213.44 23.88 L 213.30 24.62 C 212.85 24.68 211.94 24.78 211.49 24.83 C 211.54 24.42 211.64 23.59 211.69 23.17 Z" />
</g>
<g id="#6d9a59ff">
<path fill="#6d9a59" opacity="1.00" d=" M 50.09 23.88 C 52.66 24.15 54.70 25.72 56.62 27.29 L 55.86 28.04 C 51.88 34.80 55.32 43.17 50.54 49.78 C 48.94 42.66 50.26 35.32 48.80 28.22 C 49.06 27.90 49.59 27.28 49.86 26.96 C 49.73 26.29 49.47 24.95 49.34 24.27 L 50.09 23.88 Z" />
<path fill="#6d9a59" opacity="1.00" d=" M 106.12 24.14 C 107.23 23.75 108.35 23.36 109.48 22.98 C 110.20 24.38 110.95 25.77 111.70 27.16 L 111.50 27.86 C 108.59 34.91 110.90 42.95 106.48 49.60 C 104.93 42.56 106.33 35.28 104.73 28.28 C 105.01 27.99 105.57 27.40 105.85 27.10 C 105.74 26.43 105.52 25.09 105.40 24.42 L 106.12 24.14 Z" />
<path fill="#6d9a59" opacity="1.00" d=" M 162.15 23.86 C 164.56 24.23 166.56 25.62 168.44 27.08 L 168.00 28.06 C 164.00 34.81 167.16 43.13 162.55 49.77 C 160.93 42.65 162.29 35.29 160.77 28.20 C 161.04 27.89 161.59 27.27 161.86 26.96 C 161.75 26.28 161.52 24.92 161.41 24.23 L 162.15 23.86 Z" />
</g>
<g id="#6d9b59ff">
<path fill="#6d9b59" opacity="1.00" d=" M 218.12 23.88 C 220.57 23.79 222.55 25.18 224.00 27.03 L 224.00 28.34 C 221.96 27.87 222.25 30.88 224.00 30.92 L 224.00 34.75 C 223.53 33.87 222.59 32.11 222.13 31.23 C 221.65 37.51 222.00 43.97 218.48 49.60 C 216.95 42.53 218.29 35.24 216.77 28.20 C 217.04 27.89 217.58 27.28 217.85 26.97 C 217.74 26.29 217.50 24.93 217.38 24.25 L 218.12 23.88 Z" />
</g>
<g id="#3e7acbff">
<path fill="#3e7acb" opacity="1.00" d=" M 29.42 23.82 C 30.08 24.95 30.75 26.09 31.41 27.23 C 34.69 28.19 38.03 29.27 40.77 31.40 L 40.78 32.41 C 36.91 31.79 33.00 31.52 29.09 31.27 C 29.21 28.78 29.33 26.30 29.42 23.82 Z" />
</g>
<g id="#75634eff">
<path fill="#75634e" opacity="1.00" d=" M 45.37 24.06 C 45.95 24.16 47.10 24.37 47.68 24.48 L 47.45 25.17 L 46.87 25.74 C 46.46 25.50 45.65 25.03 45.24 24.79 L 45.37 24.06 Z" />
<path fill="#75634e" opacity="1.00" d=" M 101.46 23.89 C 102.03 24.03 103.19 24.31 103.77 24.45 L 103.51 25.12 L 102.92 25.64 C 102.52 25.39 101.71 24.88 101.30 24.63 L 101.46 23.89 Z" />
<path fill="#75634e" opacity="1.00" d=" M 157.45 23.86 C 158.03 23.99 159.20 24.24 159.78 24.36 L 159.55 25.05 L 158.97 25.59 C 158.56 25.34 157.74 24.84 157.33 24.60 L 157.45 23.86 Z" />
<path fill="#75634e" opacity="1.00" d=" M 213.44 23.88 C 214.02 24.01 215.17 24.26 215.75 24.39 L 215.51 25.08 L 214.93 25.62 C 214.52 25.37 213.71 24.87 213.30 24.62 L 213.44 23.88 Z" />
</g>
<g id="#416845ff">
<path fill="#416845" opacity="1.00" d=" M 48.46 24.46 L 49.34 24.27 C 49.47 24.95 49.73 26.29 49.86 26.96 C 49.06 26.32 48.59 25.48 48.46 24.46 Z" />
<path fill="#416845" opacity="1.00" d=" M 104.53 24.52 L 105.40 24.42 C 105.52 25.09 105.74 26.43 105.85 27.10 C 105.05 26.42 104.61 25.56 104.53 24.52 Z" />
<path fill="#416845" opacity="1.00" d=" M 160.54 24.39 L 161.41 24.23 C 161.52 24.92 161.75 26.28 161.86 26.96 C 161.08 26.28 160.63 25.42 160.54 24.39 Z" />
<path fill="#416845" opacity="1.00" d=" M 216.51 24.41 L 217.38 24.25 C 217.50 24.93 217.74 26.29 217.85 26.97 C 217.06 26.30 216.61 25.45 216.51 24.41 Z" />
<path fill="#416845" opacity="1.00" d=" M 49.26 56.00 C 48.23 55.27 47.99 53.72 48.86 52.78 C 50.02 53.66 50.89 54.84 51.74 56.00 L 49.26 56.00 Z" />
<path fill="#416845" opacity="1.00" d=" M 105.13 56.00 C 104.06 55.09 104.42 53.58 105.08 52.56 C 106.00 53.66 106.85 54.81 107.65 56.00 L 105.13 56.00 Z" />
<path fill="#416845" opacity="1.00" d=" M 161.08 56.00 C 160.26 55.09 160.21 53.67 160.99 52.72 C 162.12 53.51 163.03 54.63 163.33 56.00 L 161.08 56.00 Z" />
<path fill="#416845" opacity="1.00" d=" M 217.15 56.00 C 216.07 55.09 216.41 53.58 217.09 52.56 C 218.00 53.66 218.86 54.81 219.66 56.00 L 217.15 56.00 Z" />
</g>
<g id="#4576c9ff">
<path fill="#4576c9" opacity="1.00" d=" M 73.41 27.02 C 77.36 26.13 81.33 25.35 85.32 24.61 C 81.91 25.90 78.46 27.09 75.05 28.39 C 77.48 36.34 87.82 34.77 92.63 40.63 C 89.75 39.92 86.87 39.21 84.01 38.41 C 83.88 40.16 83.60 43.66 83.47 45.41 C 82.70 42.36 82.13 39.27 81.64 36.17 C 79.16 36.07 76.69 35.97 74.21 35.88 C 73.99 32.92 73.75 29.97 73.41 27.02 Z" />
</g>
<g id="#4477caff">
<path fill="#4477ca" opacity="1.00" d=" M 185.42 27.03 C 189.35 26.12 193.30 25.30 197.27 24.52 C 193.30 26.24 187.57 26.76 187.16 32.37 C 193.27 34.35 199.85 36.02 204.60 40.65 C 201.72 39.93 198.86 39.22 196.01 38.44 C 195.91 39.92 195.72 42.87 195.62 44.35 C 194.12 45.47 192.60 46.59 191.27 47.91 C 192.36 48.99 193.54 49.97 194.72 50.96 C 195.41 46.48 199.63 45.71 203.00 44.50 C 200.23 47.36 195.74 50.60 198.62 54.97 C 195.15 52.67 191.33 50.94 187.99 48.45 C 189.55 46.41 191.68 44.94 193.67 43.37 C 193.79 40.96 193.93 38.54 194.07 36.13 C 191.44 36.05 188.82 35.97 186.20 35.89 C 185.97 32.93 185.75 29.98 185.42 27.03 Z" />
</g>
<g id="#3b6bbefe">
<path fill="#3b6bbe" opacity="1.00" d=" M 43.35 24.97 C 43.82 24.92 44.77 24.83 45.24 24.79 C 45.65 25.03 46.46 25.50 46.87 25.74 C 46.07 27.71 42.99 27.96 42.83 25.45 L 43.35 24.97 Z" />
<path fill="#3b6bbe" opacity="1.00" d=" M 99.50 24.83 C 99.95 24.78 100.85 24.68 101.30 24.63 C 101.71 24.88 102.52 25.39 102.92 25.64 C 102.52 27.93 99.62 28.09 99.42 25.58 L 99.50 24.83 Z" />
<path fill="#3b6bbe" opacity="1.00" d=" M 155.58 24.85 C 156.02 24.79 156.89 24.66 157.33 24.60 C 157.74 24.84 158.56 25.34 158.97 25.59 C 158.75 28.03 155.73 28.15 155.60 25.57 L 155.58 24.85 Z" />
<path fill="#3b6bbe" opacity="1.00" d=" M 211.49 24.83 C 211.94 24.78 212.85 24.68 213.30 24.62 C 213.71 24.87 214.52 25.37 214.93 25.62 C 214.54 27.90 211.63 28.10 211.42 25.58 L 211.49 24.83 Z" />
</g>
<g id="#322e2aff">
<path fill="#322e2a" opacity="1.00" d=" M 46.87 25.74 L 47.45 25.17 C 47.62 25.85 47.96 27.19 48.13 27.86 C 48.26 34.68 47.22 41.43 46.57 48.19 C 45.67 48.10 43.87 47.91 42.97 47.81 C 43.58 45.90 44.20 44.00 44.67 42.06 C 44.76 40.73 44.81 39.40 44.80 38.07 C 44.22 36.22 43.41 34.45 42.50 32.74 C 42.82 32.69 43.44 32.60 43.75 32.56 C 44.87 32.42 45.98 32.30 47.10 32.19 C 46.99 31.33 46.88 30.47 46.78 29.61 C 45.61 28.98 44.43 28.36 43.27 27.70 C 43.16 27.14 42.94 26.01 42.83 25.45 C 42.99 27.96 46.07 27.71 46.87 25.74 Z" />
<path fill="#322e2a" opacity="1.00" d=" M 102.92 25.64 L 103.51 25.12 C 103.65 25.81 103.93 27.19 104.07 27.89 C 104.28 34.70 103.23 41.44 102.56 48.20 C 101.66 48.10 99.84 47.89 98.93 47.79 C 99.57 45.98 100.24 44.19 100.85 42.37 C 100.87 41.79 100.90 40.62 100.92 40.04 C 100.28 37.59 99.52 35.17 98.36 32.92 C 98.70 32.86 99.39 32.76 99.74 32.71 C 100.82 32.54 101.91 32.39 103.00 32.25 C 103.00 31.23 103.00 30.21 103.00 29.19 C 101.74 28.78 100.48 28.38 99.22 27.98 C 99.27 27.38 99.37 26.18 99.42 25.58 C 99.62 28.09 102.52 27.93 102.92 25.64 Z" />
<path fill="#322e2a" opacity="1.00" d=" M 158.97 25.59 L 159.55 25.05 C 159.69 25.74 159.97 27.12 160.11 27.82 C 160.26 34.65 159.23 41.41 158.56 48.19 C 157.68 48.08 155.92 47.86 155.05 47.75 C 155.57 46.21 156.12 44.68 156.69 43.16 C 157.19 42.10 157.24 41.02 156.86 39.92 C 156.23 37.50 155.50 35.09 154.42 32.83 C 154.75 32.76 155.41 32.61 155.74 32.54 C 156.83 32.37 157.92 32.22 159.01 32.09 C 158.98 31.08 158.96 30.08 158.94 29.08 C 157.92 28.92 156.90 28.77 155.88 28.62 C 155.81 27.86 155.67 26.33 155.60 25.57 C 155.73 28.15 158.75 28.03 158.97 25.59 Z" />
<path fill="#322e2a" opacity="1.00" d=" M 214.93 25.62 L 215.51 25.08 C 215.66 25.76 215.96 27.14 216.11 27.83 C 216.27 34.66 215.23 41.42 214.56 48.20 C 213.66 48.10 211.84 47.89 210.93 47.79 C 211.57 45.98 212.24 44.19 212.85 42.37 C 212.87 41.79 212.90 40.62 212.92 40.04 C 212.28 37.59 211.52 35.17 210.36 32.92 C 210.70 32.86 211.39 32.76 211.74 32.71 C 212.82 32.54 213.91 32.39 215.00 32.25 C 214.99 31.23 214.99 30.21 215.00 29.19 C 213.74 28.78 212.48 28.38 211.22 27.98 C 211.27 27.38 211.37 26.18 211.42 25.58 C 211.63 28.10 214.54 27.90 214.93 25.62 Z" />
</g>
<g id="#475943ff">
<path fill="#475943" opacity="1.00" d=" M 48.13 27.86 L 48.80 28.22 C 50.26 35.32 48.94 42.66 50.54 49.78 C 49.12 50.21 47.72 50.67 46.28 51.02 C 46.37 50.08 46.47 49.13 46.57 48.19 C 47.22 41.43 48.26 34.68 48.13 27.86 Z" />
<path fill="#475943" opacity="1.00" d=" M 104.07 27.89 L 104.73 28.28 C 106.33 35.28 104.93 42.56 106.48 49.60 C 105.08 50.07 103.69 50.56 102.29 50.99 C 102.38 50.06 102.47 49.13 102.56 48.20 C 103.23 41.44 104.28 34.70 104.07 27.89 Z" />
<path fill="#475943" opacity="1.00" d=" M 160.11 27.82 L 160.77 28.20 C 162.29 35.29 160.93 42.65 162.55 49.77 C 161.12 50.23 159.71 50.71 158.27 51.08 C 158.36 50.11 158.46 49.15 158.56 48.19 C 159.23 41.41 160.26 34.65 160.11 27.82 Z" />
<path fill="#475943" opacity="1.00" d=" M 216.11 27.83 L 216.77 28.20 C 218.29 35.24 216.95 42.53 218.48 49.60 C 217.08 50.07 215.69 50.56 214.29 50.99 C 214.37 50.06 214.47 49.13 214.56 48.20 C 215.23 41.42 216.27 34.66 216.11 27.83 Z" />
</g>
<g id="#85b05fff">
<path fill="#85b05f" opacity="1.00" d=" M 50.54 49.78 C 55.32 43.17 51.88 34.80 55.86 28.04 C 56.02 35.22 55.92 42.39 56.04 49.57 C 55.28 48.64 52.97 47.45 52.58 49.28 C 53.06 50.68 54.91 50.32 56.03 50.13 C 55.90 50.40 55.65 50.94 55.52 51.21 C 55.07 52.14 54.64 53.09 54.20 54.02 C 53.90 52.91 53.60 51.79 53.30 50.67 C 52.02 51.07 50.73 51.47 49.45 51.90 C 49.72 51.37 50.27 50.31 50.54 49.78 Z" />
<path fill="#85b05f" opacity="1.00" d=" M 106.48 49.60 C 110.90 42.95 108.59 34.91 111.50 27.86 C 111.95 34.99 111.71 42.15 111.70 49.30 C 110.95 48.29 108.67 47.49 108.38 49.28 C 108.82 50.68 110.67 50.26 111.69 49.86 L 112.20 50.14 L 112.86 50.58 C 111.94 51.78 111.01 52.97 110.07 54.15 C 109.82 52.99 109.59 51.84 109.35 50.68 C 108.04 51.06 106.73 51.44 105.43 51.85 C 105.69 51.29 106.22 50.16 106.48 49.60 Z" />
<path fill="#85b05f" opacity="1.00" d=" M 162.55 49.77 C 167.16 43.13 164.00 34.81 168.00 28.06 L 167.93 29.51 C 167.75 36.04 167.95 42.58 168.00 49.11 C 167.09 48.31 164.76 47.54 164.52 49.34 C 165.09 50.75 166.97 50.06 168.00 49.64 C 167.86 49.98 167.57 50.67 167.43 51.01 C 167.01 52.00 166.60 53.00 166.19 54.01 C 165.89 52.89 165.59 51.77 165.30 50.66 C 164.03 51.07 162.75 51.47 161.49 51.90 C 161.75 51.37 162.28 50.30 162.55 49.77 Z" />
</g>
<g id="#565248fe">
<path fill="#565248" opacity="1.00" d=" M 99.22 27.98 C 100.48 28.38 101.74 28.78 103.00 29.19 C 103.00 30.21 103.00 31.23 103.00 32.25 C 101.91 32.39 100.82 32.54 99.74 32.71 C 99.85 31.48 99.71 30.28 99.31 29.10 C 99.29 28.82 99.24 28.26 99.22 27.98 Z" />
<path fill="#565248" opacity="1.00" d=" M 155.88 28.62 C 156.90 28.77 157.92 28.92 158.94 29.08 C 158.96 30.08 158.98 31.08 159.01 32.09 C 157.92 32.22 156.83 32.37 155.74 32.54 C 155.45 31.90 154.87 30.63 154.58 29.99 C 154.90 29.65 155.55 28.96 155.88 28.62 Z" />
<path fill="#565248" opacity="1.00" d=" M 211.22 27.98 C 212.48 28.38 213.74 28.78 215.00 29.19 C 214.99 30.21 214.99 31.23 215.00 32.25 C 213.91 32.39 212.82 32.54 211.74 32.71 C 211.85 31.48 211.71 30.28 211.31 29.10 C 211.29 28.82 211.24 28.26 211.22 27.98 Z" />
</g>
<g id="#91bc69ff">
<path fill="#91bc69" opacity="1.00" d=" M 224.00 30.92 C 222.25 30.88 221.96 27.87 224.00 28.34 L 224.00 30.92 Z" />
</g>
<g id="#a0b6cbff">
<path fill="#a0b6cb" opacity="1.00" d=" M 41.27 31.04 C 41.81 30.55 42.90 29.58 43.44 29.10 C 43.67 30.24 43.77 31.39 43.75 32.56 C 43.44 32.60 42.82 32.69 42.50 32.74 C 42.20 32.50 41.61 32.03 41.31 31.80 L 41.27 31.04 Z" />
<path fill="#a0b6cb" opacity="1.00" d=" M 97.55 30.76 C 97.99 30.35 98.87 29.52 99.31 29.10 C 99.71 30.28 99.85 31.48 99.74 32.71 C 99.39 32.76 98.70 32.86 98.36 32.92 C 98.15 32.58 97.75 31.91 97.54 31.58 L 97.55 30.76 Z" />
<path fill="#a0b6cb" opacity="1.00" d=" M 209.55 30.76 C 209.99 30.35 210.87 29.52 211.31 29.10 C 211.71 30.28 211.85 31.48 211.74 32.71 C 211.39 32.76 210.70 32.86 210.36 32.92 C 210.15 32.58 209.75 31.91 209.54 31.58 L 209.55 30.76 Z" />
</g>
<g id="#4477cbfe">
<path fill="#4477cb" opacity="1.00" d=" M 128.74 31.01 C 134.23 32.58 139.28 35.23 144.54 37.38 C 146.47 39.95 148.54 42.43 150.98 44.54 C 148.65 44.50 146.32 44.55 144.00 44.66 C 144.74 43.27 145.47 41.88 146.21 40.48 C 143.82 39.78 141.45 39.03 139.09 38.26 C 139.26 42.89 145.43 46.94 141.85 51.51 C 141.48 50.55 140.75 48.65 140.39 47.70 C 139.46 49.51 138.60 51.36 137.88 53.27 C 135.68 51.23 133.10 49.69 130.60 48.05 C 131.88 47.16 133.21 46.35 134.53 45.51 C 135.70 46.79 136.85 48.09 138.08 49.32 C 138.75 48.26 139.42 47.20 140.09 46.13 C 138.90 45.78 137.72 45.42 136.53 45.07 C 137.13 42.12 137.69 39.17 138.24 36.21 C 136.48 36.10 132.97 35.90 131.22 35.80 C 130.39 34.20 129.55 32.61 128.74 31.01 Z" />
</g>
<g id="#2f8bd3ff">
<path fill="#2f8bd3" opacity="1.00" d=" M 40.77 31.40 L 41.31 31.80 C 41.61 32.03 42.20 32.50 42.50 32.74 C 43.41 34.45 44.22 36.22 44.80 38.07 C 43.89 37.35 42.98 36.62 42.08 35.90 C 42.41 38.20 42.72 40.49 43.05 42.79 C 42.55 43.00 41.56 43.44 41.06 43.66 C 40.44 39.94 40.70 36.16 40.78 32.41 L 40.77 31.40 Z" />
</g>
<g id="#2c8ed7ff">
<path fill="#2c8ed7" opacity="1.00" d=" M 97.46 52.34 C 96.70 45.44 97.54 38.49 97.54 31.58 C 97.75 31.91 98.15 32.58 98.36 32.92 C 99.52 35.17 100.28 37.59 100.92 40.04 C 98.70 39.83 98.36 43.42 100.85 42.37 C 100.24 44.19 99.57 45.98 98.93 47.79 C 98.69 48.47 98.22 49.82 97.98 50.50 C 97.85 50.96 97.59 51.88 97.46 52.34 Z" />
<path fill="#2c8ed7" opacity="1.00" d=" M 209.46 52.34 C 208.70 45.44 209.54 38.49 209.54 31.58 C 209.75 31.91 210.15 32.58 210.36 32.92 C 211.52 35.17 212.28 37.59 212.92 40.04 C 210.70 39.83 210.35 43.42 212.85 42.37 C 212.24 44.19 211.57 45.98 210.93 47.79 C 210.69 48.47 210.22 49.82 209.98 50.50 C 209.85 50.96 209.59 51.88 209.46 52.34 Z" />
</g>
<g id="#288cd6ff">
<path fill="#288cd6" opacity="1.00" d=" M 153.81 56.00 C 152.45 47.93 153.59 39.75 153.63 31.63 C 153.83 31.93 154.22 32.53 154.42 32.83 C 155.50 35.09 156.23 37.50 156.86 39.92 C 155.17 40.26 154.69 42.92 156.69 43.16 C 156.12 44.68 155.57 46.21 155.05 47.75 C 154.76 48.61 154.47 49.47 154.19 50.33 C 153.15 51.63 155.11 53.02 155.95 51.52 C 155.71 53.02 155.43 54.52 155.06 56.00 L 153.81 56.00 Z" />
</g>
<g id="#86b05fff">
<path fill="#86b05f" opacity="1.00" d=" M 218.48 49.60 C 222.00 43.97 221.65 37.51 222.13 31.23 C 222.59 32.11 223.53 33.87 224.00 34.75 L 224.00 49.21 C 223.12 48.36 220.81 47.55 220.50 49.32 C 221.08 50.71 222.94 50.15 224.00 49.73 L 224.00 51.25 C 223.48 52.24 222.94 53.22 222.39 54.20 C 222.01 53.03 221.64 51.86 221.27 50.69 C 219.99 51.07 218.70 51.44 217.43 51.86 C 217.69 51.29 218.21 50.16 218.48 49.60 Z" />
</g>
<g id="#4577c9ff">
<path fill="#4577c9" opacity="1.00" d=" M 14.43 35.98 C 16.58 34.85 18.84 32.46 21.45 33.66 C 26.86 35.88 32.05 38.76 36.55 42.53 C 34.12 42.12 31.68 41.73 29.25 41.33 C 28.76 42.92 28.25 44.50 27.75 46.08 C 26.81 45.72 25.88 45.37 24.95 45.01 C 25.99 43.22 27.02 41.44 28.06 39.66 C 23.53 38.38 18.98 37.19 14.43 35.98 Z" />
</g>
<g id="#a5bbd1ff">
<path fill="#a5bbd1" opacity="1.00" d=" M 42.08 35.90 C 42.98 36.62 43.89 37.35 44.80 38.07 C 44.81 39.40 44.76 40.73 44.67 42.06 C 44.27 42.24 43.45 42.60 43.05 42.79 C 42.72 40.49 42.41 38.20 42.08 35.90 Z" />
</g>
<g id="#4878cbff">
<path fill="#4878cb" opacity="1.00" d=" M 60.11 39.07 C 62.33 37.79 64.60 36.60 66.94 35.54 C 66.82 36.27 66.59 37.72 66.48 38.44 C 65.52 38.49 64.55 38.54 63.59 38.58 C 64.69 40.86 65.87 43.10 67.00 45.37 C 64.57 43.42 62.28 41.30 60.11 39.07 Z" />
</g>
<g id="#4374c9ff">
<path fill="#4374c9" opacity="1.00" d=" M 171.19 40.81 C 173.23 37.81 176.27 35.63 180.03 35.19 C 178.87 37.61 177.73 40.05 176.78 42.56 C 177.91 43.28 179.04 44.00 180.18 44.70 C 177.01 43.83 174.18 42.13 171.19 40.81 Z" />
</g>
<g id="#8bb5d9ff">
<path fill="#8bb5d9" opacity="1.00" d=" M 100.92 40.04 C 100.90 40.62 100.87 41.79 100.85 42.37 C 98.36 43.42 98.70 39.83 100.92 40.04 Z" />
<path fill="#8bb5d9" opacity="1.00" d=" M 212.92 40.04 C 212.90 40.62 212.87 41.79 212.85 42.37 C 210.35 43.42 210.70 39.83 212.92 40.04 Z" />
</g>
<g id="#6e9bbbff">
<path fill="#6e9bbb" opacity="1.00" d=" M 156.86 39.92 C 157.24 41.02 157.19 42.10 156.69 43.16 C 154.69 42.92 155.17 40.26 156.86 39.92 Z" />
</g>
<g id="#2a8ed7ff">
<path fill="#2a8ed7" opacity="1.00" d=" M 43.05 42.79 C 43.45 42.60 44.27 42.24 44.67 42.06 C 44.20 44.00 43.58 45.90 42.97 47.81 C 42.74 48.50 42.30 49.87 42.07 50.55 C 41.97 50.98 41.78 51.83 41.68 52.25 C 40.83 50.90 39.99 49.54 39.16 48.18 C 39.80 46.67 40.44 45.17 41.06 43.66 C 41.56 43.44 42.55 43.00 43.05 42.79 Z" />
</g>
<g id="#427bcbff">
<path fill="#427bcb" opacity="1.00" d=" M 34.58 44.35 C 35.36 45.45 36.14 46.54 36.92 47.64 C 34.06 48.52 31.22 49.44 28.40 50.43 C 30.43 48.37 32.56 46.42 34.58 44.35 Z" />
</g>
<g id="#4c77caff">
<path fill="#4c77ca" opacity="1.00" d=" M 59.83 44.25 C 60.99 44.96 62.14 45.68 63.29 46.41 C 61.96 47.26 60.64 48.12 59.26 48.90 C 58.78 49.08 57.81 49.44 57.32 49.63 C 58.27 47.89 59.07 46.07 59.83 44.25 Z" />
</g>
<g id="#4778d1ff">
<path fill="#4778d1" opacity="1.00" d=" M 113.56 43.61 C 114.88 44.96 116.17 46.35 117.41 47.77 C 115.97 47.85 114.53 47.93 113.09 48.01 C 113.25 46.54 113.40 45.08 113.56 43.61 Z" />
</g>
<g id="#557cc4fe">
<path fill="#557cc4" opacity="1.00" d=" M 1.74 48.66 C 5.45 49.07 9.38 49.74 12.11 52.52 C 11.59 52.33 10.56 51.94 10.05 51.74 C 9.01 51.36 7.97 50.98 6.93 50.60 C 5.64 50.12 3.04 49.15 1.74 48.66 Z" />
</g>
<g id="#6c5e4cff">
<path fill="#6c5e4c" opacity="1.00" d=" M 42.07 50.55 C 42.30 49.87 42.74 48.50 42.97 47.81 C 43.87 47.91 45.67 48.10 46.57 48.19 C 46.47 49.13 46.37 50.08 46.28 51.02 C 45.86 50.97 45.02 50.87 44.61 50.81 C 43.97 50.75 42.71 50.62 42.07 50.55 Z" />
<path fill="#6c5e4c" opacity="1.00" d=" M 97.98 50.50 C 98.22 49.82 98.69 48.47 98.93 47.79 C 99.84 47.89 101.66 48.10 102.56 48.20 C 102.47 49.13 102.38 50.06 102.29 50.99 C 101.74 51.15 100.66 51.47 100.12 51.64 C 99.58 51.35 98.51 50.78 97.98 50.50 Z" />
<path fill="#6c5e4c" opacity="1.00" d=" M 154.19 50.33 C 154.47 49.47 154.76 48.61 155.05 47.75 C 155.92 47.86 157.68 48.08 158.56 48.19 C 158.46 49.15 158.36 50.11 158.27 51.08 C 157.70 50.98 156.55 50.79 155.98 50.70 C 155.53 50.61 154.63 50.43 154.19 50.33 Z" />
<path fill="#6c5e4c" opacity="1.00" d=" M 209.98 50.50 C 210.22 49.82 210.69 48.47 210.93 47.79 C 211.84 47.89 213.66 48.10 214.56 48.20 C 214.47 49.13 214.37 50.06 214.29 50.99 C 213.74 51.15 212.66 51.47 212.12 51.64 C 211.58 51.35 210.51 50.78 209.98 50.50 Z" />
</g>
<g id="#65955fff">
<path fill="#65955f" opacity="1.00" d=" M 52.58 49.28 C 52.97 47.45 55.28 48.64 56.04 49.57 L 56.03 50.13 C 54.91 50.32 53.06 50.68 52.58 49.28 Z" />
<path fill="#65955f" opacity="1.00" d=" M 108.38 49.28 C 108.67 47.49 110.95 48.29 111.70 49.30 L 111.69 49.86 C 110.67 50.26 108.82 50.68 108.38 49.28 Z" />
<path fill="#65955f" opacity="1.00" d=" M 164.52 49.34 C 164.76 47.54 167.09 48.31 168.00 49.11 L 168.00 49.64 C 166.97 50.06 165.09 50.75 164.52 49.34 Z" />
<path fill="#65955f" opacity="1.00" d=" M 220.50 49.32 C 220.81 47.55 223.12 48.36 224.00 49.21 L 224.00 49.73 C 222.94 50.15 221.08 50.71 220.50 49.32 Z" />
</g>
<g id="#4b659eff">
<path fill="#4b659e" opacity="1.00" d=" M 0.00 48.35 C 0.44 48.43 1.31 48.58 1.74 48.66 C 3.04 49.15 5.64 50.12 6.93 50.60 C 5.20 50.63 1.73 50.68 0.00 50.71 L 0.00 48.35 Z" />
</g>
<g id="#33302bff">
<path fill="#33302b" opacity="1.00" d=" M 46.28 51.02 C 47.72 50.67 49.12 50.21 50.54 49.78 C 50.27 50.31 49.72 51.37 49.45 51.90 C 49.31 52.12 49.01 52.56 48.86 52.78 C 47.99 53.72 48.23 55.27 49.26 56.00 L 42.88 56.00 C 43.46 54.54 43.97 53.05 44.43 51.55 L 44.61 50.81 C 45.02 50.87 45.86 50.97 46.28 51.02 Z" />
<path fill="#33302b" opacity="1.00" d=" M 102.29 50.99 C 103.69 50.56 105.08 50.07 106.48 49.60 C 106.22 50.16 105.69 51.29 105.43 51.85 C 105.34 52.03 105.17 52.38 105.08 52.56 C 104.42 53.58 104.06 55.09 105.13 56.00 L 98.94 56.00 C 99.81 55.01 100.04 53.67 100.06 52.40 L 100.12 51.64 C 100.66 51.47 101.74 51.15 102.29 50.99 Z" />
<path fill="#33302b" opacity="1.00" d=" M 158.27 51.08 C 159.71 50.71 161.12 50.23 162.55 49.77 C 162.28 50.30 161.75 51.37 161.49 51.90 C 161.36 52.11 161.11 52.51 160.99 52.72 C 160.21 53.67 160.26 55.09 161.08 56.00 L 155.06 56.00 C 155.43 54.52 155.71 53.02 155.95 51.52 L 155.98 50.70 C 156.55 50.79 157.70 50.98 158.27 51.08 Z" />
<path fill="#33302b" opacity="1.00" d=" M 214.29 50.99 C 215.69 50.56 217.08 50.07 218.48 49.60 C 218.21 50.16 217.69 51.29 217.43 51.86 C 217.35 52.03 217.17 52.38 217.09 52.56 C 216.41 53.58 216.07 55.09 217.15 56.00 L 210.94 56.00 C 211.81 55.01 212.04 53.67 212.06 52.40 L 212.12 51.64 C 212.66 51.47 213.74 51.15 214.29 50.99 Z" />
</g>
<g id="#42689dff">
<path fill="#42689d" opacity="1.00" d=" M 111.69 49.86 C 114.91 49.99 118.22 49.61 121.39 50.32 C 122.75 51.80 123.41 53.76 124.42 55.47 C 120.60 53.15 116.38 51.63 112.20 50.14 L 111.69 49.86 Z" />
</g>
<g id="#9db4c9ff">
<path fill="#9db4c9" opacity="1.00" d=" M 42.07 50.55 C 42.71 50.62 43.97 50.75 44.61 50.81 L 44.43 51.55 C 43.85 51.89 42.69 52.57 42.11 52.91 L 41.68 52.25 C 41.78 51.83 41.97 50.98 42.07 50.55 Z" />
<path fill="#9db4c9" opacity="1.00" d=" M 97.98 50.50 C 98.51 50.78 99.58 51.35 100.12 51.64 L 100.06 52.40 C 99.44 52.58 98.20 52.94 97.58 53.12 L 97.46 52.34 C 97.59 51.88 97.85 50.96 97.98 50.50 Z" />
<path fill="#9db4c9" opacity="1.00" d=" M 209.98 50.50 C 210.51 50.78 211.58 51.35 212.12 51.64 L 212.06 52.40 C 211.44 52.58 210.20 52.94 209.58 53.12 L 209.46 52.34 C 209.59 51.88 209.85 50.96 209.98 50.50 Z" />
</g>
<g id="#315a8cff">
<path fill="#315a8c" opacity="1.00" d=" M 56.03 50.13 C 56.35 50.01 57.00 49.75 57.32 49.63 C 57.81 49.44 58.78 49.08 59.26 48.90 C 60.56 49.56 61.84 50.26 63.09 51.00 C 61.51 51.07 58.36 51.19 56.78 51.26 L 55.52 51.21 C 55.65 50.94 55.90 50.40 56.03 50.13 Z" />
</g>
<g id="#2f5b84ff">
<path fill="#2f5b84" opacity="1.00" d=" M 168.00 49.64 C 169.77 49.97 173.31 50.63 175.08 50.97 L 174.27 50.94 C 172.88 50.98 170.11 51.04 168.72 51.07 L 167.43 51.01 C 167.57 50.67 167.86 49.98 168.00 49.64 Z" />
</g>
<g id="#607aafff">
<path fill="#607aaf" opacity="1.00" d=" M 175.08 50.97 C 177.96 51.49 179.59 54.28 181.73 56.00 L 180.18 56.00 C 178.13 54.41 176.18 52.70 174.27 50.94 L 175.08 50.97 Z" />
</g>
<g id="#24393dff">
<path fill="#24393d" opacity="1.00" d=" M 0.00 50.71 C 1.73 50.68 5.20 50.63 6.93 50.60 C 8.42 52.48 9.96 54.31 11.65 56.00 L 7.52 56.00 C 5.12 54.26 2.57 52.72 0.00 51.24 L 0.00 50.71 Z" />
</g>
<g id="#5f7da3ff">
<path fill="#5f7da3" opacity="1.00" d=" M 6.93 50.60 C 7.97 50.98 9.01 51.36 10.05 51.74 C 10.96 53.18 11.88 54.61 12.86 56.00 L 11.65 56.00 C 9.96 54.31 8.42 52.48 6.93 50.60 Z" />
</g>
<g id="#436ca4ff">
<path fill="#436ca4" opacity="1.00" d=" M 25.17 56.00 C 25.91 54.20 26.70 52.42 27.52 50.65 C 27.74 52.43 27.95 54.22 28.17 56.00 L 25.17 56.00 Z" />
</g>
<g id="#719d5aff">
<path fill="#719d5a" opacity="1.00" d=" M 49.45 51.90 C 50.73 51.47 52.02 51.07 53.30 50.67 C 53.60 51.79 53.90 52.91 54.20 54.02 C 54.64 53.09 55.07 52.14 55.52 51.21 C 55.53 52.80 55.54 54.40 55.55 56.00 L 51.74 56.00 C 50.89 54.84 50.02 53.66 48.86 52.78 C 49.01 52.56 49.31 52.12 49.45 51.90 Z" />
<path fill="#719d5a" opacity="1.00" d=" M 105.43 51.85 C 106.73 51.44 108.04 51.06 109.35 50.68 C 109.59 51.84 109.82 52.99 110.07 54.15 C 111.01 52.97 111.94 51.78 112.86 50.58 C 112.32 52.39 111.77 54.19 111.22 56.00 L 107.65 56.00 C 106.85 54.81 106.00 53.66 105.08 52.56 C 105.17 52.38 105.34 52.03 105.43 51.85 Z" />
<path fill="#719d5a" opacity="1.00" d=" M 217.43 51.86 C 218.70 51.44 219.99 51.07 221.27 50.69 C 221.64 51.86 222.01 53.03 222.39 54.20 C 222.94 53.22 223.48 52.24 224.00 51.25 L 224.00 56.00 L 219.66 56.00 C 218.86 54.81 218.00 53.66 217.09 52.56 C 217.17 52.38 217.35 52.03 217.43 51.86 Z" />
</g>
<g id="#203b3cff">
<path fill="#203b3c" opacity="1.00" d=" M 56.78 51.26 C 58.36 51.19 61.51 51.07 63.09 51.00 C 64.72 52.73 66.39 54.42 68.16 56.00 L 64.67 56.00 C 63.94 55.46 62.48 54.37 61.75 53.83 C 60.19 52.78 58.49 51.99 56.78 51.26 Z" />
</g>
<g id="#6286a8ff">
<path fill="#6286a8" opacity="1.00" d=" M 63.09 51.00 C 65.46 52.42 67.55 54.23 69.66 56.00 L 68.16 56.00 C 66.39 54.42 64.72 52.73 63.09 51.00 Z" />
</g>
<g id="#244048ff">
<path fill="#244048" opacity="1.00" d=" M 112.20 50.14 C 116.38 51.63 120.60 53.15 124.42 55.47 L 125.35 56.00 L 119.39 56.00 C 118.45 55.04 117.54 54.07 116.64 53.08 C 115.38 52.24 114.12 51.42 112.86 50.58 L 112.20 50.14 Z" />
</g>
<g id="#719f64ff">
<path fill="#719f64" opacity="1.00" d=" M 161.49 51.90 C 162.75 51.47 164.03 51.07 165.30 50.66 C 165.59 51.77 165.89 52.89 166.19 54.01 C 166.60 53.00 167.01 52.00 167.43 51.01 L 168.72 51.07 C 171.51 52.40 174.03 54.21 176.54 56.00 L 174.13 56.00 C 173.14 55.29 172.16 54.57 171.19 53.84 C 170.08 54.57 168.98 55.30 167.86 56.00 L 163.33 56.00 C 163.03 54.63 162.12 53.51 160.99 52.72 C 161.11 52.51 161.36 52.11 161.49 51.90 Z" />
</g>
<g id="#203b43ff">
<path fill="#203b43" opacity="1.00" d=" M 168.72 51.07 C 170.11 51.04 172.88 50.98 174.27 50.94 C 176.18 52.70 178.13 54.41 180.18 56.00 L 176.54 56.00 C 174.03 54.21 171.51 52.40 168.72 51.07 Z" />
</g>
<g id="#7c9c74ff">
<path fill="#7c9c74" opacity="1.00" d=" M 0.00 51.24 C 2.57 52.72 5.12 54.26 7.52 56.00 L 6.42 56.00 C 4.32 54.88 2.21 53.76 0.00 52.87 L 0.00 51.24 Z" />
</g>
<g id="#70a0cfff">
<path fill="#70a0cf" opacity="1.00" d=" M 10.05 51.74 C 10.56 51.94 11.59 52.33 12.11 52.52 C 13.36 53.61 14.49 54.84 15.69 56.00 L 12.86 56.00 C 11.88 54.61 10.96 53.18 10.05 51.74 Z" />
</g>
<g id="#709d86ff">
<path fill="#709d86" opacity="1.00" d=" M 55.52 51.21 L 56.78 51.26 C 58.49 51.99 60.19 52.78 61.75 53.83 C 60.52 53.72 59.29 53.62 58.06 53.53 C 57.55 54.15 56.54 55.38 56.03 56.00 L 55.55 56.00 C 55.54 54.40 55.53 52.80 55.52 51.21 Z" />
</g>
<g id="#6e9b86ff">
<path fill="#6e9b86" opacity="1.00" d=" M 112.86 50.58 C 114.12 51.42 115.38 52.24 116.64 53.08 C 115.03 54.04 113.44 55.04 111.84 56.00 L 111.22 56.00 C 111.77 54.19 112.32 52.39 112.86 50.58 Z" />
</g>
<g id="#759d51ff">
<path fill="#759d51" opacity="1.00" d=" M 0.00 52.87 C 2.21 53.76 4.32 54.88 6.42 56.00 L 0.00 56.00 L 0.00 52.87 Z" />
</g>
<g id="#6e9b56fe">
<path fill="#6e9b56" opacity="1.00" d=" M 58.06 53.53 C 59.29 53.62 60.52 53.72 61.75 53.83 C 62.48 54.37 63.94 55.46 64.67 56.00 L 56.03 56.00 C 56.54 55.38 57.55 54.15 58.06 53.53 Z" />
</g>
<g id="#76a062ff">
<path fill="#76a062" opacity="1.00" d=" M 111.84 56.00 C 113.44 55.04 115.03 54.04 116.64 53.08 C 117.54 54.07 118.45 55.04 119.39 56.00 L 111.84 56.00 Z" />
</g>
<g id="#669946ff">
<path fill="#669946" opacity="1.00" d=" M 167.86 56.00 C 168.98 55.30 170.08 54.57 171.19 53.84 C 172.16 54.57 173.14 55.29 174.13 56.00 L 167.86 56.00 Z" />
</g>
</svg>
