<?xml version="1.0" encoding="UTF-8" ?>
<!DOCTYPE svg PUBLIC "-//W3C//DTD SVG 1.1//EN" "http://www.w3.org/Graphics/SVG/1.1/DTD/svg11.dtd">
<svg width="224pt" height="56pt" viewBox="0 0 224 56" version="1.1" xmlns="http://www.w3.org/2000/svg">
<g id="#91bc69ff">
<path fill="#91bc69" opacity="1.00" d=" M 0.00 0.00 L 0.80 0.00 C 1.73 1.21 1.46 2.12 0.00 2.72 L 0.00 0.00 Z" />
<path fill="#91bc69" opacity="1.00" d=" M 55.15 0.00 L 56.85 0.00 C 59.09 3.49 52.91 3.49 55.15 0.00 Z" />
<path fill="#91bc69" opacity="1.00" d=" M 111.15 0.00 L 112.85 0.00 C 115.09 3.49 108.91 3.49 111.15 0.00 Z" />
<path fill="#91bc69" opacity="1.00" d=" M 167.15 0.00 L 168.85 0.00 C 171.09 3.49 164.91 3.49 167.15 0.00 Z" />
<path fill="#91bc69" opacity="1.00" d=" M 223.20 0.00 L 224.00 0.00 L 224.00 2.72 C 222.53 2.12 222.27 1.21 223.20 0.00 Z" />
<path fill="#91bc69" opacity="1.00" d=" M 55.25 28.50 C 57.33 27.29 57.78 31.25 55.76 31.41 C 54.30 31.38 54.23 29.18 55.25 28.50 Z" />
<path fill="#91bc69" opacity="1.00" d=" M 111.25 28.50 C 113.32 27.29 113.78 31.25 111.76 31.41 C 110.30 31.38 110.23 29.18 111.25 28.50 Z" />
<path fill="#91bc69" opacity="1.00" d=" M 167.25 28.50 C 169.32 27.29 169.78 31.25 167.76 31.41 C 166.30 31.38 166.23 29.18 167.25 28.50 Z" />
<path fill="#91bc69" opacity="1.00" d=" M 224.00 30.87 C 222.12 30.86 222.12 28.17 224.00 28.17 L 224.00 30.87 Z" />
</g>
<g id="#699659ff">
<path fill="#699659" opacity="1.00" d=" M 0.80 0.00 L 3.37 0.00 C 4.27 3.37 5.45 6.66 6.58 9.96 C 6.62 10.15 6.71 10.54 6.75 10.74 C 6.43 14.36 5.89 17.96 5.50 21.58 C 4.10 18.45 2.85 15.25 1.63 12.05 C 2.67 9.21 2.95 6.17 1.89 3.29 C 1.42 4.07 0.47 5.65 0.00 6.44 L 0.00 2.72 C 1.46 2.12 1.73 1.21 0.80 0.00 Z" />
<path fill="#699659" opacity="1.00" d=" M 52.63 0.00 L 55.15 0.00 C 52.91 3.49 59.09 3.49 56.85 0.00 L 59.37 0.00 C 60.28 3.37 61.43 6.66 62.59 9.95 C 62.63 10.15 62.71 10.53 62.75 10.73 C 62.42 14.37 61.90 17.99 61.53 21.63 C 60.13 18.45 58.87 15.21 57.57 11.99 C 58.04 9.77 60.04 6.89 57.96 4.96 C 56.26 4.68 53.48 4.20 53.09 6.52 C 53.08 8.43 53.92 10.22 54.46 12.02 C 53.08 15.17 51.66 18.31 50.33 21.49 C 50.05 17.90 49.57 14.32 49.27 10.73 C 49.31 10.54 49.38 10.16 49.42 9.97 C 50.57 6.67 51.71 3.37 52.63 0.00 Z" />
<path fill="#699659" opacity="1.00" d=" M 108.63 0.00 L 111.15 0.00 C 108.91 3.49 115.09 3.49 112.85 0.00 L 115.38 0.00 C 116.31 3.37 117.41 6.68 118.49 9.99 C 118.52 10.21 118.56 10.64 118.59 10.86 C 118.45 14.46 117.91 18.04 117.54 21.62 C 116.15 18.44 114.86 15.21 113.57 11.99 C 114.04 9.78 116.04 6.89 113.96 4.96 C 112.43 4.81 109.85 4.09 109.36 6.11 C 109.10 8.65 110.33 11.19 109.67 13.72 C 108.89 16.46 107.47 18.96 106.38 21.59 C 106.05 17.96 105.58 14.35 105.26 10.72 C 105.30 10.53 105.37 10.15 105.41 9.96 C 106.57 6.67 107.72 3.37 108.63 0.00 Z" />
<path fill="#699659" opacity="1.00" d=" M 164.62 0.00 L 167.15 0.00 C 164.91 3.49 171.09 3.49 168.85 0.00 L 171.37 0.00 C 172.28 3.37 173.43 6.66 174.59 9.95 C 174.63 10.15 174.71 10.53 174.75 10.73 C 174.42 14.37 173.90 17.99 173.53 21.63 C 172.13 18.45 170.87 15.21 169.57 11.99 C 170.04 9.77 172.04 6.89 169.96 4.96 C 168.26 4.68 165.48 4.20 165.09 6.52 C 165.09 8.43 165.91 10.22 166.46 12.02 C 165.08 15.20 163.64 18.35 162.31 21.55 C 162.02 18.00 161.56 14.45 161.44 10.89 C 161.45 10.67 161.48 10.23 161.50 10.01 C 162.57 6.68 163.70 3.37 164.62 0.00 Z" />
<path fill="#699659" opacity="1.00" d=" M 220.63 0.00 L 223.20 0.00 C 222.27 1.21 222.53 2.12 224.00 2.72 L 224.00 6.46 C 223.51 5.67 222.53 4.08 222.05 3.28 C 221.52 5.76 221.50 8.29 221.78 10.79 C 222.21 14.71 219.78 18.09 218.41 21.59 C 218.07 17.96 217.57 14.35 217.25 10.73 C 217.29 10.54 217.37 10.15 217.41 9.96 C 218.54 6.66 219.73 3.38 220.63 0.00 Z" />
</g>
<g id="#84ae5cff">
<path fill="#84ae5c" opacity="1.00" d=" M 3.37 0.00 L 4.39 0.00 C 5.29 1.35 6.14 2.73 7.00 4.10 C 8.57 3.33 10.13 2.55 11.68 1.77 C 10.37 1.93 9.05 2.10 7.73 2.26 C 7.26 1.69 6.31 0.56 5.84 0.00 L 23.83 0.00 C 23.60 1.58 23.39 3.18 23.02 4.74 C 22.65 4.63 21.92 4.41 21.55 4.30 C 16.12 0.42 8.72 3.49 6.75 9.47 L 6.58 9.96 C 5.45 6.66 4.27 3.37 3.37 0.00 Z" />
<path fill="#84ae5c" opacity="1.00" d=" M 32.16 0.00 L 50.16 0.00 C 49.69 0.56 48.74 1.69 48.27 2.26 C 46.95 2.10 45.63 1.93 44.31 1.77 C 45.87 2.55 47.43 3.33 49.00 4.10 C 49.86 2.73 50.71 1.35 51.60 0.00 L 52.63 0.00 C 51.71 3.37 50.57 6.67 49.42 9.97 L 49.25 9.47 C 47.76 3.79 41.42 2.71 36.54 1.80 C 35.97 2.43 34.81 3.67 34.23 4.29 C 33.95 4.56 33.40 5.10 33.12 5.38 C 32.70 3.60 32.44 1.80 32.16 0.00 Z" />
<path fill="#84ae5c" opacity="1.00" d=" M 59.37 0.00 L 60.40 0.00 C 61.29 1.35 62.14 2.73 63.00 4.10 C 64.57 3.33 66.13 2.55 67.69 1.77 C 66.37 1.93 65.05 2.10 63.73 2.26 C 63.26 1.69 62.31 0.56 61.84 0.00 L 79.83 0.00 C 79.60 1.58 79.39 3.18 79.02 4.74 C 78.65 4.63 77.92 4.41 77.55 4.30 C 72.12 0.42 64.71 3.49 62.76 9.47 L 62.59 9.95 C 61.43 6.66 60.28 3.37 59.37 0.00 Z" />
<path fill="#84ae5c" opacity="1.00" d=" M 88.16 0.00 L 106.16 0.00 C 105.69 0.56 104.74 1.69 104.27 2.26 C 102.95 2.10 101.63 1.93 100.31 1.77 C 101.87 2.55 103.43 3.33 105.00 4.10 C 105.86 2.73 106.71 1.35 107.60 0.00 L 108.63 0.00 C 107.72 3.37 106.57 6.67 105.41 9.96 L 105.24 9.47 C 103.76 3.79 97.42 2.71 92.54 1.80 C 91.97 2.43 90.81 3.67 90.23 4.29 C 89.95 4.56 89.40 5.10 89.12 5.38 C 88.70 3.60 88.44 1.80 88.16 0.00 Z" />
<path fill="#84ae5c" opacity="1.00" d=" M 115.38 0.00 L 116.40 0.00 C 117.29 1.35 118.14 2.73 119.00 4.10 C 120.56 3.33 122.13 2.55 123.69 1.77 C 122.36 1.93 121.05 2.10 119.73 2.26 C 119.26 1.69 118.31 0.56 117.84 0.00 L 135.83 0.00 C 135.60 1.58 135.39 3.18 135.02 4.74 C 134.65 4.63 133.92 4.41 133.55 4.30 C 128.08 0.40 120.75 3.52 118.71 9.46 L 118.49 9.99 C 117.41 6.68 116.31 3.37 115.38 0.00 Z" />
<path fill="#84ae5c" opacity="1.00" d=" M 144.16 0.00 L 162.16 0.00 C 161.69 0.56 160.74 1.69 160.27 2.26 C 158.95 2.10 157.63 1.93 156.31 1.77 C 157.87 2.55 159.43 3.33 161.00 4.10 C 161.86 2.73 162.71 1.35 163.60 0.00 L 164.62 0.00 C 163.70 3.37 162.57 6.68 161.50 10.01 L 161.29 9.47 C 159.73 3.82 153.44 2.70 148.54 1.81 C 147.97 2.43 146.81 3.67 146.23 4.29 C 145.95 4.56 145.40 5.10 145.12 5.38 C 144.70 3.60 144.44 1.80 144.16 0.00 Z" />
<path fill="#84ae5c" opacity="1.00" d=" M 171.37 0.00 L 172.40 0.00 C 173.29 1.35 174.14 2.73 175.00 4.10 C 176.56 3.33 178.13 2.55 179.69 1.77 C 178.36 1.93 177.05 2.10 175.73 2.26 C 175.26 1.69 174.31 0.56 173.84 0.00 L 191.83 0.00 C 191.60 1.58 191.39 3.18 191.02 4.74 C 190.65 4.63 189.92 4.41 189.55 4.30 C 184.12 0.42 176.71 3.49 174.76 9.47 L 174.59 9.95 C 173.43 6.66 172.28 3.37 171.37 0.00 Z" />
<path fill="#84ae5c" opacity="1.00" d=" M 200.16 0.00 L 218.16 0.00 C 217.69 0.56 216.74 1.69 216.27 2.26 C 214.95 2.10 213.63 1.93 212.32 1.77 C 213.87 2.55 215.43 3.33 217.00 4.10 C 217.86 2.73 218.71 1.35 219.61 0.00 L 220.63 0.00 C 219.73 3.38 218.54 6.66 217.41 9.96 L 217.25 9.47 C 215.76 3.79 209.42 2.71 204.54 1.80 C 203.97 2.43 202.81 3.67 202.23 4.29 C 201.95 4.56 201.40 5.10 201.12 5.38 C 200.70 3.60 200.44 1.80 200.16 0.00 Z" />
</g>
<g id="#6f9a52ff">
<path fill="#6f9a52" opacity="1.00" d=" M 4.39 0.00 L 5.84 0.00 C 6.31 0.56 7.26 1.69 7.73 2.26 C 9.05 2.10 10.37 1.93 11.68 1.77 C 10.13 2.55 8.57 3.33 7.00 4.10 C 6.14 2.73 5.29 1.35 4.39 0.00 Z" />
<path fill="#6f9a52" opacity="1.00" d=" M 50.16 0.00 L 51.60 0.00 C 50.71 1.35 49.86 2.73 49.00 4.10 C 47.43 3.33 45.87 2.55 44.31 1.77 C 45.63 1.93 46.95 2.10 48.27 2.26 C 48.74 1.69 49.69 0.56 50.16 0.00 Z" />
<path fill="#6f9a52" opacity="1.00" d=" M 60.40 0.00 L 61.84 0.00 C 62.31 0.56 63.26 1.69 63.73 2.26 C 65.05 2.10 66.37 1.93 67.69 1.77 C 66.13 2.55 64.57 3.33 63.00 4.10 C 62.14 2.73 61.29 1.35 60.40 0.00 Z" />
<path fill="#6f9a52" opacity="1.00" d=" M 106.16 0.00 L 107.60 0.00 C 106.71 1.35 105.86 2.73 105.00 4.10 C 103.43 3.33 101.87 2.55 100.31 1.77 C 101.63 1.93 102.95 2.10 104.27 2.26 C 104.74 1.69 105.69 0.56 106.16 0.00 Z" />
<path fill="#6f9a52" opacity="1.00" d=" M 116.40 0.00 L 117.84 0.00 C 118.31 0.56 119.26 1.69 119.73 2.26 C 121.05 2.10 122.36 1.93 123.69 1.77 C 122.13 2.55 120.56 3.33 119.00 4.10 C 118.14 2.73 117.29 1.35 116.40 0.00 Z" />
<path fill="#6f9a52" opacity="1.00" d=" M 162.16 0.00 L 163.60 0.00 C 162.71 1.35 161.86 2.73 161.00 4.10 C 159.43 3.33 157.87 2.55 156.31 1.77 C 157.63 1.93 158.95 2.10 160.27 2.26 C 160.74 1.69 161.69 0.56 162.16 0.00 Z" />
<path fill="#6f9a52" opacity="1.00" d=" M 172.40 0.00 L 173.84 0.00 C 174.31 0.56 175.26 1.69 175.73 2.26 C 177.05 2.10 178.36 1.93 179.69 1.77 C 178.13 2.55 176.56 3.33 175.00 4.10 C 174.14 2.73 173.29 1.35 172.40 0.00 Z" />
<path fill="#6f9a52" opacity="1.00" d=" M 218.16 0.00 L 219.61 0.00 C 218.71 1.35 217.86 2.73 217.00 4.10 C 215.43 3.33 213.87 2.55 212.32 1.77 C 213.63 1.93 214.95 2.10 216.27 2.26 C 216.74 1.69 217.69 0.56 218.16 0.00 Z" />
</g>
<g id="#6e9a57ff">
<path fill="#6e9a57" opacity="1.00" d=" M 23.83 0.00 L 32.16 0.00 C 32.44 1.80 32.70 3.60 33.12 5.38 L 33.86 5.75 C 30.04 6.01 26.20 6.02 22.38 5.74 L 23.02 4.74 C 23.39 3.18 23.60 1.58 23.83 0.00 M 25.13 1.74 C 25.02 2.38 24.79 3.66 24.67 4.29 C 26.88 3.88 29.12 3.88 31.33 4.29 C 31.21 3.66 30.98 2.38 30.87 1.74 C 28.96 1.70 27.04 1.70 25.13 1.74 Z" />
<path fill="#6e9a57" opacity="1.00" d=" M 79.83 0.00 L 88.16 0.00 C 88.44 1.80 88.70 3.60 89.12 5.38 L 89.86 5.75 C 86.04 6.01 82.20 6.02 78.38 5.74 L 79.02 4.74 C 79.39 3.18 79.60 1.58 79.83 0.00 M 81.13 1.74 C 81.02 2.38 80.79 3.66 80.67 4.29 C 82.88 3.88 85.12 3.88 87.33 4.29 C 87.21 3.66 86.98 2.38 86.87 1.74 C 84.95 1.70 83.04 1.70 81.13 1.74 Z" />
<path fill="#6e9a57" opacity="1.00" d=" M 135.83 0.00 L 144.16 0.00 C 144.44 1.80 144.70 3.60 145.12 5.38 L 145.86 5.75 C 142.04 6.01 138.20 6.02 134.38 5.74 L 135.02 4.74 C 135.39 3.18 135.60 1.58 135.83 0.00 M 137.13 1.74 C 137.02 2.38 136.79 3.66 136.67 4.29 C 138.88 3.88 141.12 3.88 143.33 4.29 C 143.21 3.66 142.98 2.38 142.87 1.74 C 140.95 1.70 139.04 1.70 137.13 1.74 Z" />
<path fill="#6e9a57" opacity="1.00" d=" M 191.83 0.00 L 200.16 0.00 C 200.44 1.80 200.70 3.60 201.12 5.38 L 201.86 5.75 C 198.04 6.01 194.20 6.02 190.38 5.74 L 191.02 4.74 C 191.39 3.18 191.60 1.58 191.83 0.00 M 193.13 1.74 C 193.02 2.38 192.79 3.66 192.67 4.29 C 194.88 3.88 197.12 3.88 199.33 4.29 C 199.21 3.66 198.98 2.38 198.87 1.74 C 196.95 1.70 195.04 1.70 193.13 1.74 Z" />
</g>
<g id="#87b05cfe">
<path fill="#87b05c" opacity="1.00" d=" M 25.13 1.74 C 27.04 1.70 28.96 1.70 30.87 1.74 C 30.98 2.38 31.21 3.66 31.33 4.29 C 29.12 3.88 26.88 3.88 24.67 4.29 C 24.79 3.66 25.02 2.38 25.13 1.74 Z" />
<path fill="#87b05c" opacity="1.00" d=" M 81.13 1.74 C 83.04 1.70 84.95 1.70 86.87 1.74 C 86.98 2.38 87.21 3.66 87.33 4.29 C 85.12 3.88 82.88 3.88 80.67 4.29 C 80.79 3.66 81.02 2.38 81.13 1.74 Z" />
<path fill="#87b05c" opacity="1.00" d=" M 137.13 1.74 C 139.04 1.70 140.95 1.70 142.87 1.74 C 142.98 2.38 143.21 3.66 143.33 4.29 C 141.12 3.88 138.88 3.88 136.67 4.29 C 136.79 3.66 137.02 2.38 137.13 1.74 Z" />
<path fill="#87b05c" opacity="1.00" d=" M 193.13 1.74 C 195.04 1.70 196.95 1.70 198.87 1.74 C 198.98 2.38 199.21 3.66 199.33 4.29 C 197.12 3.88 194.88 3.88 192.67 4.29 C 192.79 3.66 193.02 2.38 193.13 1.74 Z" />
</g>
<g id="#6b9a5fff">
<path fill="#6b9a5f" opacity="1.00" d=" M 6.75 9.47 C 8.72 3.49 16.12 0.42 21.55 4.30 C 19.58 4.39 17.61 4.58 15.63 4.67 C 15.53 4.66 15.33 4.64 15.23 4.63 C 14.67 9.01 10.35 9.49 6.75 9.47 Z" />
<path fill="#6b9a5f" opacity="1.00" d=" M 34.23 4.29 C 34.81 3.67 35.97 2.43 36.54 1.80 C 41.42 2.71 47.76 3.79 49.25 9.47 C 45.66 9.48 41.32 9.01 40.77 4.62 C 40.67 4.63 40.47 4.65 40.37 4.67 C 38.32 4.58 36.28 4.39 34.23 4.29 Z" />
<path fill="#6b9a5f" opacity="1.00" d=" M 62.76 9.47 C 64.71 3.49 72.12 0.42 77.55 4.30 C 75.58 4.39 73.61 4.58 71.63 4.67 C 71.53 4.66 71.33 4.64 71.23 4.63 C 70.67 9.00 66.35 9.49 62.76 9.47 Z" />
<path fill="#6b9a5f" opacity="1.00" d=" M 90.23 4.29 C 90.81 3.67 91.97 2.43 92.54 1.80 C 97.42 2.71 103.76 3.79 105.24 9.47 C 101.65 9.48 97.32 9.01 96.77 4.62 C 96.67 4.63 96.47 4.66 96.37 4.67 C 94.32 4.58 92.28 4.39 90.23 4.29 Z" />
<path fill="#6b9a5f" opacity="1.00" d=" M 118.71 9.46 C 120.75 3.52 128.08 0.40 133.55 4.30 C 131.58 4.39 129.61 4.58 127.64 4.67 C 127.53 4.66 127.33 4.64 127.23 4.63 C 126.67 9.03 122.31 9.50 118.71 9.46 Z" />
<path fill="#6b9a5f" opacity="1.00" d=" M 146.23 4.29 C 146.81 3.67 147.97 2.43 148.54 1.81 C 153.44 2.70 159.73 3.82 161.29 9.47 C 157.69 9.49 153.32 9.03 152.77 4.62 C 152.67 4.63 152.47 4.66 152.37 4.67 C 150.32 4.58 148.28 4.39 146.23 4.29 Z" />
<path fill="#6b9a5f" opacity="1.00" d=" M 174.76 9.47 C 176.71 3.49 184.12 0.42 189.55 4.30 C 187.57 4.39 185.61 4.58 183.63 4.67 C 183.53 4.66 183.33 4.64 183.23 4.63 C 182.67 9.00 178.35 9.49 174.76 9.47 Z" />
<path fill="#6b9a5f" opacity="1.00" d=" M 202.23 4.29 C 202.81 3.67 203.97 2.43 204.54 1.80 C 209.42 2.71 215.76 3.79 217.25 9.47 C 213.66 9.48 209.32 9.01 208.77 4.62 C 208.67 4.63 208.47 4.66 208.37 4.67 C 206.32 4.58 204.28 4.39 202.23 4.29 Z" />
</g>
<g id="#86b05fff">
<path fill="#86b05f" opacity="1.00" d=" M 1.89 3.29 C 2.95 6.17 2.67 9.21 1.63 12.05 C 2.85 15.25 4.10 18.45 5.50 21.58 C 5.78 22.11 6.32 23.19 6.59 23.72 C 5.35 23.49 4.10 23.30 2.85 23.10 C 2.37 24.17 1.89 25.22 1.40 26.28 C 0.92 25.34 0.45 24.38 0.00 23.43 L 0.00 6.44 C 0.47 5.65 1.42 4.07 1.89 3.29 M 1.29 20.53 C 0.42 21.76 2.53 23.04 3.33 21.85 C 4.15 20.65 2.07 19.39 1.29 20.53 Z" />
<path fill="#86b05f" opacity="1.00" d=" M 53.09 6.52 C 53.48 4.20 56.26 4.68 57.96 4.96 C 60.04 6.89 58.04 9.77 57.57 11.99 C 58.87 15.21 60.13 18.45 61.53 21.63 C 61.73 22.06 62.12 22.92 62.31 23.35 C 58.21 24.96 53.77 25.23 49.72 23.26 C 49.87 22.82 50.18 21.94 50.33 21.49 C 51.66 18.31 53.08 15.17 54.46 12.02 C 53.92 10.22 53.08 8.43 53.09 6.52 M 51.48 21.67 C 54.50 21.67 57.53 21.58 60.54 21.39 C 57.58 20.39 54.35 20.24 51.48 21.67 Z" />
<path fill="#86b05f" opacity="1.00" d=" M 109.36 6.11 C 109.85 4.09 112.43 4.81 113.96 4.96 C 116.04 6.89 114.04 9.78 113.57 11.99 C 114.86 15.21 116.15 18.44 117.54 21.62 C 117.73 22.05 118.12 22.91 118.32 23.35 C 114.21 24.96 109.78 25.24 105.73 23.27 C 105.89 22.85 106.22 22.01 106.38 21.59 C 107.47 18.96 108.89 16.46 109.67 13.72 C 110.33 11.19 109.10 8.65 109.36 6.11 M 107.48 21.67 C 110.50 21.67 113.52 21.58 116.54 21.39 C 113.58 20.39 110.35 20.24 107.48 21.67 Z" />
<path fill="#86b05f" opacity="1.00" d=" M 165.09 6.52 C 165.48 4.20 168.26 4.68 169.96 4.96 C 172.04 6.89 170.04 9.77 169.57 11.99 C 170.87 15.21 172.13 18.45 173.53 21.63 C 173.73 22.06 174.12 22.92 174.32 23.35 C 170.21 24.95 165.77 25.24 161.73 23.26 C 161.87 22.84 162.17 21.98 162.31 21.55 C 163.64 18.35 165.08 15.20 166.46 12.02 C 165.91 10.22 165.09 8.43 165.09 6.52 M 163.48 21.67 C 166.50 21.67 169.52 21.58 172.54 21.39 C 169.58 20.39 166.35 20.24 163.48 21.67 Z" />
<path fill="#86b05f" opacity="1.00" d=" M 221.78 10.79 C 221.50 8.29 221.52 5.76 222.05 3.28 C 222.53 4.08 223.51 5.67 224.00 6.46 L 224.00 21.28 C 223.12 20.44 220.86 19.51 220.46 21.27 C 221.01 22.69 222.91 22.16 224.00 21.80 L 224.00 23.51 C 223.43 24.34 222.85 25.16 222.26 25.97 C 221.91 25.08 221.56 24.19 221.22 23.30 C 220.02 23.37 218.82 23.45 217.63 23.53 C 217.83 23.04 218.22 22.07 218.41 21.59 C 219.78 18.09 222.21 14.71 221.78 10.79 Z" />
<path fill="#86b05f" opacity="1.00" d=" M 222.38 40.07 C 221.34 37.23 221.05 34.17 222.11 31.28 C 222.58 32.08 223.53 33.68 224.00 34.49 L 224.00 49.27 C 223.12 48.43 220.85 47.51 220.46 49.27 C 221.02 50.69 222.91 50.15 224.00 49.79 L 224.00 51.45 C 223.43 52.32 222.84 53.16 222.24 54.00 C 221.88 53.01 221.52 52.02 221.18 51.03 C 219.92 51.24 218.65 51.46 217.41 51.71 C 217.66 51.17 218.17 50.09 218.43 49.55 C 219.84 46.43 221.11 43.25 222.38 40.07 Z" />
</g>
<g id="#342f2bff">
<path fill="#342f2b" opacity="1.00" d=" M 15.23 4.63 C 15.33 4.64 15.53 4.66 15.63 4.67 C 17.87 5.09 20.10 5.57 22.38 5.74 C 26.20 6.02 30.04 6.01 33.86 5.75 C 36.06 5.58 38.21 5.08 40.37 4.67 C 40.47 4.65 40.67 4.63 40.77 4.62 C 41.32 9.01 45.66 9.48 49.25 9.47 L 49.42 9.97 C 49.38 10.16 49.31 10.54 49.27 10.73 C 48.34 13.76 47.18 16.73 46.41 19.81 C 45.16 20.05 43.91 20.31 42.67 20.60 C 42.44 18.72 41.98 14.97 41.75 13.10 C 40.54 13.00 39.32 12.90 38.11 12.80 C 39.29 15.31 40.45 17.82 41.63 20.33 C 41.08 20.25 39.98 20.09 39.43 20.01 C 38.10 19.81 36.77 19.60 35.45 19.39 C 35.83 16.83 36.36 14.31 36.87 11.78 C 38.81 11.63 40.74 11.42 42.68 11.23 C 40.12 9.58 37.35 8.32 34.57 7.10 C 34.15 8.18 33.72 9.25 33.27 10.32 C 32.84 10.16 31.98 9.86 31.55 9.70 C 30.35 8.94 29.18 8.13 28.00 7.32 C 26.82 8.13 25.65 8.95 24.44 9.71 C 24.01 9.86 23.14 10.15 22.71 10.29 C 22.27 9.23 21.85 8.16 21.43 7.09 C 18.59 8.32 15.76 9.63 13.21 11.41 C 15.30 11.48 17.38 11.58 19.46 11.67 C 18.30 12.22 15.97 13.32 14.80 13.87 C 14.42 15.57 13.64 18.98 13.25 20.68 C 12.02 20.36 10.80 20.06 9.56 19.79 C 8.81 16.72 7.66 13.76 6.75 10.74 C 6.71 10.54 6.62 10.15 6.58 9.96 L 6.75 9.47 C 10.35 9.49 14.67 9.01 15.23 4.63 Z" />
<path fill="#342f2b" opacity="1.00" d=" M 71.23 4.63 C 71.33 4.64 71.53 4.66 71.63 4.67 C 73.87 5.09 76.10 5.57 78.38 5.74 C 82.20 6.02 86.04 6.01 89.86 5.75 C 92.06 5.58 94.21 5.08 96.37 4.67 C 96.47 4.66 96.67 4.63 96.77 4.62 C 97.32 9.01 101.65 9.48 105.24 9.47 L 105.41 9.96 C 105.37 10.15 105.30 10.53 105.26 10.72 C 104.33 13.87 103.12 16.95 102.45 20.17 C 101.06 20.10 99.69 20.03 98.31 19.96 L 98.20 19.11 C 98.02 17.74 97.64 14.99 97.46 13.61 C 96.28 13.21 95.09 12.83 93.90 12.48 C 95.02 14.68 96.16 16.88 97.40 19.02 C 96.90 19.00 95.90 18.95 95.40 18.92 C 94.11 18.87 92.81 18.83 91.51 18.81 C 91.92 16.46 92.40 14.12 92.89 11.79 C 94.83 11.63 96.75 11.42 98.68 11.22 C 96.12 9.59 93.35 8.32 90.58 7.10 C 90.16 8.18 89.72 9.26 89.27 10.32 C 88.84 10.17 87.99 9.86 87.56 9.70 C 86.35 8.94 85.18 8.13 84.00 7.32 C 82.82 8.13 81.65 8.94 80.44 9.71 C 80.01 9.86 79.14 10.15 78.71 10.30 C 78.26 9.24 77.84 8.17 77.43 7.09 C 74.58 8.32 71.74 9.64 69.20 11.45 C 71.24 11.47 73.28 11.50 75.32 11.53 C 74.27 12.24 72.16 13.68 71.11 14.39 C 70.79 15.57 70.15 17.92 69.83 19.10 L 69.64 19.90 C 68.28 19.99 66.92 20.09 65.56 20.19 C 64.88 16.97 63.67 13.88 62.75 10.73 C 62.71 10.53 62.63 10.15 62.59 9.95 L 62.76 9.47 C 66.35 9.49 70.67 9.00 71.23 4.63 Z" />
<path fill="#342f2b" opacity="1.00" d=" M 183.23 4.63 C 183.33 4.64 183.53 4.66 183.63 4.67 C 185.87 5.09 188.10 5.57 190.38 5.74 C 194.20 6.02 198.04 6.01 201.86 5.75 C 204.06 5.58 206.21 5.08 208.37 4.67 C 208.47 4.66 208.67 4.63 208.77 4.62 C 209.32 9.01 213.66 9.48 217.25 9.47 L 217.41 9.96 C 217.37 10.15 217.29 10.54 217.25 10.73 C 216.32 13.88 215.13 16.95 214.45 20.17 C 213.06 20.10 211.68 20.03 210.31 19.96 L 210.20 19.11 C 210.02 17.74 209.64 14.99 209.46 13.61 C 208.28 13.21 207.09 12.83 205.90 12.48 C 207.02 14.68 208.16 16.88 209.40 19.02 C 208.90 19.00 207.90 18.95 207.40 18.92 C 206.10 18.87 204.81 18.83 203.51 18.81 C 203.92 16.46 204.40 14.12 204.89 11.79 C 206.82 11.63 208.75 11.42 210.68 11.22 C 208.12 9.59 205.35 8.32 202.58 7.10 C 202.16 8.18 201.72 9.26 201.27 10.32 C 200.84 10.17 199.99 9.86 199.56 9.70 C 198.35 8.94 197.17 8.13 196.00 7.32 C 194.82 8.13 193.65 8.94 192.44 9.71 C 192.01 9.86 191.14 10.15 190.71 10.30 C 190.26 9.24 189.84 8.17 189.43 7.09 C 186.58 8.32 183.74 9.64 181.20 11.45 C 183.24 11.47 185.28 11.50 187.32 11.53 C 186.27 12.24 184.16 13.68 183.11 14.39 C 182.79 15.57 182.15 17.92 181.83 19.10 L 181.64 19.90 C 180.28 19.99 178.92 20.09 177.56 20.19 C 176.88 16.97 175.67 13.88 174.75 10.73 C 174.71 10.53 174.63 10.15 174.59 9.95 L 174.76 9.47 C 178.35 9.49 182.67 9.00 183.23 4.63 Z" />
</g>
<g id="#5d5347ff">
<path fill="#5d5347" opacity="1.00" d=" M 15.63 4.67 C 17.61 4.58 19.58 4.39 21.55 4.30 C 21.92 4.41 22.65 4.63 23.02 4.74 L 22.38 5.74 C 20.10 5.57 17.87 5.09 15.63 4.67 Z" />
<path fill="#5d5347" opacity="1.00" d=" M 33.12 5.38 C 33.40 5.10 33.95 4.56 34.23 4.29 C 36.28 4.39 38.32 4.58 40.37 4.67 C 38.21 5.08 36.06 5.58 33.86 5.75 L 33.12 5.38 Z" />
<path fill="#5d5347" opacity="1.00" d=" M 71.63 4.67 C 73.61 4.58 75.58 4.39 77.55 4.30 C 77.92 4.41 78.65 4.63 79.02 4.74 L 78.38 5.74 C 76.10 5.57 73.87 5.09 71.63 4.67 Z" />
<path fill="#5d5347" opacity="1.00" d=" M 89.12 5.38 C 89.40 5.10 89.95 4.56 90.23 4.29 C 92.28 4.39 94.32 4.58 96.37 4.67 C 94.21 5.08 92.06 5.58 89.86 5.75 L 89.12 5.38 Z" />
<path fill="#5d5347" opacity="1.00" d=" M 127.64 4.67 C 129.61 4.58 131.58 4.39 133.55 4.30 C 133.92 4.41 134.65 4.63 135.02 4.74 L 134.38 5.74 C 132.10 5.57 129.87 5.09 127.64 4.67 Z" />
<path fill="#5d5347" opacity="1.00" d=" M 145.12 5.38 C 145.40 5.10 145.95 4.56 146.23 4.29 C 148.28 4.39 150.32 4.58 152.37 4.67 C 150.21 5.08 148.06 5.58 145.86 5.75 L 145.12 5.38 Z" />
<path fill="#5d5347" opacity="1.00" d=" M 183.63 4.67 C 185.61 4.58 187.57 4.39 189.55 4.30 C 189.92 4.41 190.65 4.63 191.02 4.74 L 190.38 5.74 C 188.10 5.57 185.87 5.09 183.63 4.67 Z" />
<path fill="#5d5347" opacity="1.00" d=" M 201.12 5.38 C 201.40 5.10 201.95 4.56 202.23 4.29 C 204.28 4.39 206.32 4.58 208.37 4.67 C 206.21 5.08 204.06 5.58 201.86 5.75 L 201.12 5.38 Z" />
</g>
<g id="#342f2bfe">
<path fill="#342f2b" opacity="1.00" d=" M 127.23 4.63 C 127.33 4.64 127.53 4.66 127.64 4.67 C 129.87 5.09 132.10 5.57 134.38 5.74 C 138.20 6.02 142.04 6.01 145.86 5.75 C 148.06 5.58 150.21 5.08 152.37 4.67 C 152.47 4.66 152.67 4.63 152.77 4.62 C 153.32 9.03 157.69 9.49 161.29 9.47 L 161.50 10.01 C 161.48 10.23 161.45 10.67 161.44 10.89 C 160.15 14.51 158.46 17.97 156.29 21.13 C 155.90 20.79 155.14 20.11 154.75 19.77 C 154.66 19.22 154.49 18.14 154.40 17.60 C 154.17 16.07 153.96 14.54 153.76 13.01 C 152.37 13.04 150.98 13.06 149.60 13.09 C 150.88 14.62 152.16 16.14 153.52 17.60 C 152.92 17.61 151.72 17.65 151.12 17.66 C 149.76 17.65 148.39 17.59 147.03 17.55 C 147.76 15.65 148.49 13.75 149.23 11.85 C 151.04 11.65 152.86 11.43 154.68 11.21 C 151.83 8.82 148.06 7.44 144.43 8.85 C 141.50 8.22 138.49 8.22 135.56 8.85 C 131.86 7.38 128.01 8.85 125.22 11.42 C 127.31 11.52 129.40 11.61 131.49 11.70 C 130.17 12.14 127.52 13.03 126.20 13.47 C 126.07 14.75 125.94 16.04 125.81 17.32 C 125.74 17.98 125.61 19.31 125.54 19.97 C 125.11 20.13 124.24 20.46 123.81 20.62 C 120.85 18.18 119.64 14.42 118.59 10.86 C 118.56 10.64 118.52 10.21 118.49 9.99 L 118.71 9.46 C 122.31 9.50 126.67 9.03 127.23 4.63 Z" />
</g>
<g id="#5f584bff">
<path fill="#5f584b" opacity="1.00" d=" M 13.21 11.41 C 15.76 9.63 18.59 8.32 21.43 7.09 C 21.85 8.16 22.27 9.23 22.71 10.29 L 23.08 11.14 L 23.48 12.06 C 23.87 14.68 23.82 17.33 23.58 19.96 C 22.50 19.77 21.41 19.57 20.32 19.37 C 20.26 17.58 20.18 15.78 20.09 13.99 C 18.69 14.54 17.29 15.07 15.89 15.60 C 15.40 17.18 14.94 18.77 14.42 20.35 L 13.25 20.68 C 13.64 18.98 14.42 15.57 14.80 13.87 C 15.97 13.32 18.30 12.22 19.46 11.67 C 17.38 11.58 15.30 11.48 13.21 11.41 Z" />
</g>
<g id="#565248ff">
<path fill="#565248" opacity="1.00" d=" M 24.44 9.71 C 25.65 8.95 26.82 8.13 28.00 7.32 C 29.18 8.13 30.35 8.94 31.55 9.70 C 29.19 9.62 26.81 9.62 24.44 9.71 Z" />
<path fill="#565248" opacity="1.00" d=" M 80.44 9.71 C 81.65 8.94 82.82 8.13 84.00 7.32 C 85.18 8.13 86.35 8.94 87.56 9.70 C 85.19 9.62 82.81 9.62 80.44 9.71 Z" />
<path fill="#565248" opacity="1.00" d=" M 192.44 9.71 C 193.65 8.94 194.82 8.13 196.00 7.32 C 197.17 8.13 198.35 8.94 199.56 9.70 C 197.18 9.62 194.81 9.62 192.44 9.71 Z" />
</g>
<g id="#5b5549ff">
<path fill="#5b5549" opacity="1.00" d=" M 34.57 7.10 C 37.35 8.32 40.12 9.58 42.68 11.23 C 40.74 11.42 38.81 11.63 36.87 11.78 C 36.36 14.31 35.83 16.83 35.45 19.39 C 34.44 19.57 33.44 19.75 32.43 19.93 C 32.20 17.30 32.12 14.66 32.51 12.04 L 32.90 11.16 L 33.27 10.32 C 33.72 9.25 34.15 8.18 34.57 7.10 Z" />
</g>
<g id="#60594bff">
<path fill="#60594b" opacity="1.00" d=" M 69.20 11.45 C 71.74 9.64 74.58 8.32 77.43 7.09 C 77.84 8.17 78.26 9.24 78.71 10.30 L 79.09 11.14 L 79.50 12.05 C 79.75 14.32 79.81 16.61 79.70 18.90 C 78.59 18.85 77.47 18.81 76.36 18.78 C 76.20 16.96 75.98 15.16 75.78 13.35 C 73.89 15.06 72.09 16.87 70.27 18.67 L 69.83 19.10 C 70.15 17.92 70.79 15.57 71.11 14.39 C 72.16 13.68 74.27 12.24 75.32 11.53 C 73.28 11.50 71.24 11.47 69.20 11.45 Z" />
<path fill="#60594b" opacity="1.00" d=" M 181.20 11.45 C 183.74 9.64 186.58 8.32 189.43 7.09 C 189.84 8.17 190.26 9.24 190.71 10.30 L 191.09 11.14 L 191.50 12.05 C 191.75 14.32 191.81 16.61 191.70 18.90 C 190.58 18.85 189.47 18.81 188.36 18.78 C 188.20 16.96 187.98 15.16 187.78 13.35 C 185.88 15.06 184.09 16.87 182.27 18.67 L 181.83 19.10 C 182.15 17.92 182.79 15.57 183.11 14.39 C 184.16 13.68 186.27 12.24 187.32 11.53 C 185.28 11.50 183.24 11.47 181.20 11.45 Z" />
</g>
<g id="#5c554aff">
<path fill="#5c554a" opacity="1.00" d=" M 90.58 7.10 C 93.35 8.32 96.12 9.59 98.68 11.22 C 96.75 11.42 94.83 11.63 92.89 11.79 C 92.40 14.12 91.92 16.46 91.51 18.81 C 90.45 18.81 89.38 18.82 88.32 18.84 C 88.22 16.57 88.25 14.30 88.50 12.04 L 88.89 11.16 L 89.27 10.32 C 89.72 9.26 90.16 8.18 90.58 7.10 Z" />
<path fill="#5c554a" opacity="1.00" d=" M 202.58 7.10 C 205.35 8.32 208.12 9.59 210.68 11.22 C 208.75 11.42 206.82 11.63 204.89 11.79 C 204.40 14.12 203.92 16.46 203.51 18.81 C 202.45 18.81 201.38 18.82 200.32 18.84 C 200.22 16.57 200.25 14.30 200.50 12.04 L 200.89 11.16 L 201.27 10.32 C 201.72 9.26 202.16 8.18 202.58 7.10 Z" />
</g>
<g id="#5f574aff">
<path fill="#5f574a" opacity="1.00" d=" M 125.22 11.42 C 128.01 8.85 131.86 7.38 135.56 8.85 C 138.49 8.22 141.50 8.22 144.43 8.85 C 148.06 7.44 151.83 8.82 154.68 11.21 C 152.86 11.43 151.04 11.65 149.23 11.85 C 148.49 13.75 147.76 15.65 147.03 17.55 C 146.31 17.69 144.88 17.96 144.16 18.10 C 144.25 16.09 144.45 14.08 144.78 12.10 L 144.94 11.18 C 142.48 11.20 137.56 11.22 135.10 11.23 L 135.26 12.15 C 135.53 14.20 135.74 16.27 135.66 18.35 C 135.15 17.99 134.13 17.26 133.62 16.90 C 132.76 16.07 131.92 15.23 131.08 14.39 C 129.54 15.40 127.98 16.41 126.39 17.34 L 125.81 17.32 C 125.94 16.04 126.07 14.75 126.20 13.47 C 127.52 13.03 130.17 12.14 131.49 11.70 C 129.40 11.61 127.31 11.52 125.22 11.42 Z" />
</g>
<g id="#75634eff">
<path fill="#75634e" opacity="1.00" d=" M 22.71 10.29 C 23.14 10.15 24.01 9.86 24.44 9.71 C 26.81 9.62 29.19 9.62 31.55 9.70 C 31.98 9.86 32.84 10.16 33.27 10.32 L 32.90 11.16 C 29.63 11.22 26.35 11.28 23.08 11.14 L 22.71 10.29 Z" />
<path fill="#75634e" opacity="1.00" d=" M 78.71 10.30 C 79.14 10.15 80.01 9.86 80.44 9.71 C 82.81 9.62 85.19 9.62 87.56 9.70 C 87.99 9.86 88.84 10.17 89.27 10.32 L 88.89 11.16 C 85.62 11.23 82.36 11.29 79.09 11.14 L 78.71 10.30 Z" />
<path fill="#75634e" opacity="1.00" d=" M 190.71 10.30 C 191.14 10.15 192.01 9.86 192.44 9.71 C 194.81 9.62 197.18 9.62 199.56 9.70 C 199.99 9.86 200.84 10.17 201.27 10.32 L 200.89 11.16 C 197.61 11.23 194.36 11.29 191.09 11.14 L 190.71 10.30 Z" />
<path fill="#75634e" opacity="1.00" d=" M 64.20 47.87 C 64.97 48.53 65.50 49.34 65.80 50.29 L 65.41 50.98 C 64.97 50.85 64.09 50.59 63.64 50.46 C 63.78 49.81 64.06 48.52 64.20 47.87 Z" />
<path fill="#75634e" opacity="1.00" d=" M 120.19 47.86 C 120.97 48.52 121.49 49.33 121.78 50.28 L 121.38 50.97 C 120.94 50.84 120.07 50.58 119.63 50.45 C 119.77 49.80 120.05 48.51 120.19 47.86 Z" />
<path fill="#75634e" opacity="1.00" d=" M 176.20 47.87 C 176.97 48.53 177.50 49.34 177.80 50.29 L 177.41 50.98 C 176.97 50.85 176.09 50.59 175.64 50.46 C 175.78 49.81 176.06 48.52 176.20 47.87 Z" />
<path fill="#75634e" opacity="1.00" d=" M 64.36 52.48 C 64.91 52.35 66.02 52.09 66.57 51.96 L 66.72 52.71 C 66.31 52.97 65.50 53.48 65.09 53.73 L 64.57 53.21 L 64.36 52.48 Z" />
<path fill="#75634e" opacity="1.00" d=" M 120.33 52.48 C 120.87 52.35 121.96 52.09 122.51 51.97 L 122.64 52.74 C 122.24 52.99 121.45 53.50 121.05 53.75 L 120.54 53.21 L 120.33 52.48 Z" />
<path fill="#75634e" opacity="1.00" d=" M 176.36 52.48 C 176.91 52.35 178.02 52.09 178.57 51.96 L 178.72 52.71 C 178.31 52.97 177.50 53.48 177.09 53.73 L 176.57 53.21 L 176.36 52.48 Z" />
</g>
<g id="#4b5745ff">
<path fill="#4b5745" opacity="1.00" d=" M 5.50 21.58 C 5.89 17.96 6.43 14.36 6.75 10.74 C 7.66 13.76 8.81 16.72 9.56 19.79 C 9.65 20.86 9.73 21.92 9.79 22.99 C 8.35 22.56 6.93 22.07 5.50 21.58 Z" />
<path fill="#4b5745" opacity="1.00" d=" M 49.27 10.73 C 49.57 14.32 50.05 17.90 50.33 21.49 C 48.99 22.10 47.65 22.69 46.28 23.24 C 46.31 22.09 46.35 20.95 46.41 19.81 C 47.18 16.73 48.34 13.76 49.27 10.73 Z" />
<path fill="#4b5745" opacity="1.00" d=" M 61.53 21.63 C 61.90 17.99 62.42 14.37 62.75 10.73 C 63.67 13.88 64.88 16.97 65.56 20.19 C 65.66 21.10 65.76 22.01 65.84 22.92 C 64.39 22.53 62.96 22.09 61.53 21.63 Z" />
<path fill="#4b5745" opacity="1.00" d=" M 105.26 10.72 C 105.58 14.35 106.05 17.96 106.38 21.59 C 104.98 22.05 103.57 22.52 102.16 22.93 C 102.24 22.01 102.34 21.09 102.45 20.17 C 103.12 16.95 104.33 13.87 105.26 10.72 Z" />
<path fill="#4b5745" opacity="1.00" d=" M 173.53 21.63 C 173.90 17.99 174.42 14.37 174.75 10.73 C 175.67 13.88 176.88 16.97 177.56 20.19 C 177.66 21.10 177.76 22.01 177.84 22.92 C 176.39 22.53 174.96 22.09 173.53 21.63 Z" />
<path fill="#4b5745" opacity="1.00" d=" M 217.25 10.73 C 217.57 14.35 218.07 17.96 218.41 21.59 C 217.00 22.05 215.59 22.52 214.16 22.93 C 214.24 22.01 214.33 21.09 214.45 20.17 C 215.13 16.95 216.32 13.88 217.25 10.73 Z" />
</g>
<g id="#9c894eff">
<path fill="#9c894e" opacity="1.00" d=" M 23.08 11.14 C 26.35 11.28 29.63 11.22 32.90 11.16 L 32.51 12.04 C 29.51 12.22 26.48 12.31 23.48 12.06 L 23.08 11.14 Z" />
<path fill="#9c894e" opacity="1.00" d=" M 79.09 11.14 C 82.36 11.29 85.62 11.23 88.89 11.16 L 88.50 12.04 C 85.50 12.21 82.49 12.30 79.50 12.05 L 79.09 11.14 Z" />
<path fill="#9c894e" opacity="1.00" d=" M 135.10 11.23 C 137.56 11.22 142.48 11.20 144.94 11.18 L 144.78 12.10 C 141.61 12.28 138.43 12.33 135.26 12.15 L 135.10 11.23 Z" />
<path fill="#9c894e" opacity="1.00" d=" M 191.09 11.14 C 194.36 11.29 197.61 11.23 200.89 11.16 L 200.50 12.04 C 197.50 12.21 194.49 12.30 191.50 12.05 L 191.09 11.14 Z" />
</g>
<g id="#515946ff">
<path fill="#515946" opacity="1.00" d=" M 117.54 21.62 C 117.91 18.04 118.45 14.46 118.59 10.86 C 119.64 14.42 120.85 18.18 123.81 20.62 C 123.80 21.08 123.78 22.00 123.77 22.46 L 123.90 23.47 C 121.76 22.94 119.63 22.32 117.54 21.62 Z" />
<path fill="#515946" opacity="1.00" d=" M 161.44 10.89 C 161.56 14.45 162.02 18.00 162.31 21.55 C 160.19 22.35 158.02 22.99 155.84 23.62 L 155.50 22.75 C 155.70 22.34 156.09 21.54 156.29 21.13 C 158.46 17.97 160.15 14.51 161.44 10.89 Z" />
</g>
<g id="#76644eff">
<path fill="#76644e" opacity="1.00" d=" M 23.48 12.06 C 26.48 12.31 29.51 12.22 32.51 12.04 C 32.12 14.66 32.20 17.30 32.43 19.93 C 31.92 19.93 30.91 19.93 30.40 19.93 C 30.44 18.44 30.05 16.98 29.39 15.66 L 28.95 15.66 C 28.47 15.66 27.52 15.66 27.05 15.66 L 26.61 15.66 C 25.95 16.99 25.57 18.46 25.61 19.95 C 25.11 19.96 24.09 19.96 23.58 19.96 C 23.82 17.33 23.87 14.68 23.48 12.06 Z" />
<path fill="#76644e" opacity="1.00" d=" M 79.50 12.05 C 82.49 12.30 85.50 12.21 88.50 12.04 C 88.25 14.30 88.22 16.57 88.32 18.84 C 87.86 18.85 86.96 18.87 86.50 18.88 C 86.47 17.71 86.14 16.64 85.50 15.67 L 84.93 15.67 C 84.46 15.67 83.53 15.67 83.06 15.68 L 82.50 15.68 C 81.87 16.67 81.54 17.76 81.52 18.93 C 81.06 18.92 80.15 18.91 79.70 18.90 C 79.81 16.61 79.75 14.32 79.50 12.05 Z" />
<path fill="#76644e" opacity="1.00" d=" M 191.50 12.05 C 194.49 12.30 197.50 12.21 200.50 12.04 C 200.25 14.30 200.22 16.57 200.32 18.84 C 199.86 18.85 198.96 18.87 198.50 18.88 C 198.47 17.71 198.13 16.64 197.50 15.67 L 196.93 15.67 C 196.46 15.67 195.53 15.67 195.06 15.68 L 194.50 15.68 C 193.87 16.67 193.54 17.76 193.52 18.93 C 193.06 18.92 192.15 18.91 191.70 18.90 C 191.81 16.61 191.75 14.32 191.50 12.05 Z" />
</g>
<g id="#6f5f4dff">
<path fill="#6f5f4d" opacity="1.00" d=" M 135.26 12.15 C 138.43 12.33 141.61 12.28 144.78 12.10 C 144.45 14.08 144.25 16.09 144.16 18.10 C 143.04 18.17 141.93 18.23 140.82 18.31 C 142.93 14.63 137.03 14.76 139.20 18.37 C 138.02 18.37 136.84 18.38 135.66 18.35 C 135.74 16.27 135.53 14.20 135.26 12.15 Z" />
</g>
<g id="#716955fe">
<path fill="#716955" opacity="1.00" d=" M 38.11 12.80 C 39.32 12.90 40.54 13.00 41.75 13.10 C 41.98 14.97 42.44 18.72 42.67 20.60 L 41.63 20.33 C 40.45 17.82 39.29 15.31 38.11 12.80 Z" />
</g>
<g id="#746b56ff">
<path fill="#746b56" opacity="1.00" d=" M 93.90 12.48 C 95.09 12.83 96.28 13.21 97.46 13.61 C 97.64 14.99 98.02 17.74 98.20 19.11 L 97.40 19.02 C 96.16 16.88 95.02 14.68 93.90 12.48 Z" />
<path fill="#746b56" opacity="1.00" d=" M 205.90 12.48 C 207.09 12.83 208.28 13.21 209.46 13.61 C 209.64 14.99 210.02 17.74 210.20 19.11 L 209.40 19.02 C 208.16 16.88 207.02 14.68 205.90 12.48 Z" />
</g>
<g id="#71654bff">
<path fill="#71654b" opacity="1.00" d=" M 149.60 13.09 C 150.98 13.06 152.37 13.04 153.76 13.01 C 153.96 14.54 154.17 16.07 154.40 17.60 L 153.52 17.60 C 152.16 16.14 150.88 14.62 149.60 13.09 Z" />
</g>
<g id="#322e2aff">
<path fill="#322e2a" opacity="1.00" d=" M 15.89 15.60 C 17.29 15.07 18.69 14.54 20.09 13.99 C 20.18 15.78 20.26 17.58 20.32 19.37 C 19.09 19.58 17.86 19.79 16.62 19.99 C 16.07 20.08 14.97 20.26 14.42 20.35 C 14.94 18.77 15.40 17.18 15.89 15.60 Z" />
</g>
<g id="#332e2aff">
<path fill="#332e2a" opacity="1.00" d=" M 70.27 18.67 C 72.09 16.87 73.89 15.06 75.78 13.35 C 75.98 15.16 76.20 16.96 76.36 18.78 C 75.08 18.75 73.81 18.73 72.53 18.70 C 71.96 18.70 70.84 18.68 70.27 18.67 Z" />
<path fill="#332e2a" opacity="1.00" d=" M 126.39 17.34 C 127.98 16.41 129.54 15.40 131.08 14.39 C 131.92 15.23 132.76 16.07 133.62 16.90 C 132.04 17.15 130.47 17.39 128.89 17.56 C 128.26 17.50 127.01 17.39 126.39 17.34 Z" />
<path fill="#332e2a" opacity="1.00" d=" M 182.27 18.67 C 184.09 16.87 185.88 15.06 187.78 13.35 C 187.98 15.16 188.20 16.96 188.36 18.78 C 187.08 18.75 185.80 18.73 184.53 18.70 C 183.96 18.70 182.84 18.68 182.27 18.67 Z" />
<path fill="#332e2a" opacity="1.00" d=" M 27.05 15.66 C 27.52 15.66 28.47 15.66 28.95 15.66 C 28.56 17.04 28.44 18.51 28.73 19.92 C 28.37 19.93 27.64 19.93 27.27 19.93 C 27.56 18.51 27.44 17.05 27.05 15.66 Z" />
<path fill="#332e2a" opacity="1.00" d=" M 83.06 15.68 C 83.53 15.67 84.46 15.67 84.93 15.67 C 84.51 16.72 84.41 17.80 84.64 18.91 C 84.32 18.92 83.69 18.93 83.37 18.93 C 83.59 17.82 83.48 16.73 83.06 15.68 Z" />
<path fill="#332e2a" opacity="1.00" d=" M 139.20 18.37 C 137.03 14.76 142.93 14.63 140.82 18.31 C 140.41 18.33 139.60 18.36 139.20 18.37 Z" />
<path fill="#332e2a" opacity="1.00" d=" M 195.06 15.68 C 195.53 15.67 196.46 15.67 196.93 15.67 C 196.51 16.72 196.41 17.80 196.64 18.91 C 196.32 18.92 195.69 18.93 195.37 18.93 C 195.58 17.82 195.48 16.73 195.06 15.68 Z" />
<path fill="#332e2a" opacity="1.00" d=" M 46.28 23.24 C 47.65 22.69 48.99 22.10 50.33 21.49 C 50.18 21.94 49.87 22.82 49.72 23.26 C 49.65 23.62 49.51 24.33 49.43 24.68 C 47.93 32.45 47.19 40.34 46.52 48.22 C 45.62 48.11 43.83 47.90 42.94 47.80 C 43.59 45.88 44.24 43.96 44.73 42.00 C 44.82 40.70 44.85 39.39 44.82 38.08 C 44.22 36.19 43.44 34.36 42.44 32.64 C 42.78 32.62 43.45 32.58 43.79 32.56 C 44.93 32.49 46.07 32.43 47.22 32.37 C 47.00 31.11 46.74 29.86 46.46 28.62 C 45.38 28.46 44.30 28.31 43.23 28.15 C 43.65 26.57 44.06 25.00 44.42 23.41 L 44.55 22.75 C 44.99 22.87 45.85 23.11 46.28 23.24 Z" />
<path fill="#332e2a" opacity="1.00" d=" M 102.16 22.93 C 103.57 22.52 104.98 22.05 106.38 21.59 C 106.22 22.01 105.89 22.85 105.73 23.27 C 105.66 23.62 105.51 24.33 105.44 24.68 C 103.92 32.45 103.21 40.34 102.51 48.21 C 101.61 48.11 99.80 47.89 98.89 47.79 C 99.54 45.97 100.20 44.17 100.82 42.35 C 100.84 41.77 100.87 40.61 100.89 40.03 C 100.32 37.52 99.66 35.02 98.60 32.67 C 98.94 32.65 99.61 32.60 99.95 32.58 C 100.99 32.51 102.03 32.44 103.07 32.38 C 102.61 30.73 102.14 29.09 101.73 27.43 C 101.60 26.30 100.99 25.53 99.91 25.12 C 99.91 24.71 99.92 23.88 99.93 23.47 C 100.49 23.33 101.60 23.06 102.16 22.93 Z" />
<path fill="#332e2a" opacity="1.00" d=" M 214.16 22.93 C 215.59 22.52 217.00 22.05 218.41 21.59 C 218.22 22.07 217.83 23.04 217.63 23.53 C 217.57 23.83 217.46 24.44 217.40 24.74 C 215.95 32.50 215.20 40.36 214.51 48.21 C 213.61 48.10 211.80 47.89 210.89 47.79 C 211.54 45.97 212.20 44.17 212.82 42.35 C 212.84 41.77 212.87 40.61 212.89 40.03 C 212.32 37.52 211.66 35.02 210.60 32.67 C 210.94 32.65 211.61 32.60 211.95 32.58 C 212.99 32.51 214.03 32.44 215.07 32.38 C 214.61 30.73 214.14 29.09 213.73 27.43 C 213.59 26.30 212.98 25.53 211.91 25.12 C 211.91 24.71 211.92 23.88 211.93 23.47 C 212.48 23.33 213.60 23.06 214.16 22.93 Z" />
<path fill="#332e2a" opacity="1.00" d=" M 5.73 51.19 C 6.75 50.77 8.35 50.18 9.14 51.31 C 8.96 52.80 6.89 52.56 5.82 52.34 C 5.80 52.06 5.75 51.48 5.73 51.19 Z" />
<path fill="#332e2a" opacity="1.00" d=" M 61.63 51.38 L 61.90 50.81 C 62.33 50.72 63.21 50.55 63.64 50.46 C 64.09 50.59 64.97 50.85 65.41 50.98 C 65.70 51.23 66.28 51.72 66.57 51.96 C 66.02 52.09 64.91 52.35 64.36 52.48 L 63.65 52.50 L 62.86 52.31 L 62.07 51.89 L 61.63 51.38 Z" />
<path fill="#332e2a" opacity="1.00" d=" M 117.62 51.38 L 117.88 50.80 C 118.32 50.71 119.19 50.53 119.63 50.45 C 120.07 50.58 120.94 50.84 121.38 50.97 C 121.66 51.22 122.23 51.72 122.51 51.97 C 121.96 52.09 120.87 52.35 120.33 52.48 L 119.62 52.50 L 118.83 52.31 L 118.05 51.89 L 117.62 51.38 Z" />
<path fill="#332e2a" opacity="1.00" d=" M 173.63 51.38 L 173.90 50.81 C 174.33 50.72 175.21 50.55 175.64 50.46 C 176.09 50.59 176.97 50.85 177.41 50.98 C 177.70 51.23 178.28 51.72 178.57 51.96 C 178.02 52.09 176.91 52.35 176.36 52.48 L 175.65 52.50 L 174.86 52.31 L 174.07 51.89 L 173.63 51.38 Z" />
<path fill="#332e2a" opacity="1.00" d=" M 7.90 53.97 C 9.74 53.95 11.57 53.90 13.40 53.83 C 13.10 54.37 12.50 55.46 12.19 56.00 L 7.69 56.00 C 7.74 55.49 7.85 54.48 7.90 53.97 Z" />
<path fill="#332e2a" opacity="1.00" d=" M 64.57 53.21 L 65.09 53.73 C 65.63 55.79 68.41 56.15 68.76 53.74 C 68.85 54.31 69.03 55.44 69.12 56.00 L 63.68 56.00 C 63.90 55.30 64.35 53.90 64.57 53.21 Z" />
<path fill="#332e2a" opacity="1.00" d=" M 120.54 53.21 L 121.05 53.75 C 121.61 55.74 124.43 56.25 124.73 53.80 C 124.92 54.35 125.29 55.45 125.47 56.00 L 119.68 56.00 C 119.90 55.30 120.33 53.91 120.54 53.21 Z" />
<path fill="#332e2a" opacity="1.00" d=" M 176.57 53.21 L 177.09 53.73 C 177.63 55.79 180.41 56.15 180.76 53.74 C 180.85 54.31 181.03 55.44 181.12 56.00 L 175.68 56.00 C 175.90 55.30 176.35 53.90 176.57 53.21 Z" />
</g>
<g id="#565249ff">
<path fill="#565249" opacity="1.00" d=" M 26.61 15.66 L 27.05 15.66 C 27.44 17.05 27.56 18.51 27.27 19.93 C 26.86 19.94 26.03 19.95 25.61 19.95 C 25.57 18.46 25.95 16.99 26.61 15.66 Z" />
<path fill="#565249" opacity="1.00" d=" M 28.95 15.66 L 29.39 15.66 C 30.05 16.98 30.44 18.44 30.40 19.93 C 29.98 19.93 29.15 19.93 28.73 19.92 C 28.44 18.51 28.56 17.04 28.95 15.66 Z" />
<path fill="#565249" opacity="1.00" d=" M 82.50 15.68 L 83.06 15.68 C 83.48 16.73 83.59 17.82 83.37 18.93 C 82.90 18.93 81.98 18.93 81.52 18.93 C 81.54 17.76 81.87 16.67 82.50 15.68 Z" />
<path fill="#565249" opacity="1.00" d=" M 84.93 15.67 L 85.50 15.67 C 86.14 16.64 86.47 17.71 86.50 18.88 C 86.04 18.89 85.11 18.90 84.64 18.91 C 84.41 17.80 84.51 16.72 84.93 15.67 Z" />
<path fill="#565249" opacity="1.00" d=" M 194.50 15.68 L 195.06 15.68 C 195.48 16.73 195.58 17.82 195.37 18.93 C 194.90 18.93 193.98 18.93 193.52 18.93 C 193.54 17.76 193.87 16.67 194.50 15.68 Z" />
<path fill="#565249" opacity="1.00" d=" M 196.93 15.67 L 197.50 15.67 C 198.13 16.64 198.47 17.71 198.50 18.88 C 198.04 18.89 197.11 18.90 196.64 18.91 C 196.41 17.80 196.51 16.72 196.93 15.67 Z" />
<path fill="#565249" opacity="1.00" d=" M 43.23 28.15 C 44.30 28.31 45.38 28.46 46.46 28.62 C 46.74 29.86 47.00 31.11 47.22 32.37 C 46.07 32.43 44.93 32.49 43.79 32.56 C 43.71 31.34 43.45 30.15 43.01 29.01 L 43.23 28.15 Z" />
<path fill="#565249" opacity="1.00" d=" M 7.05 35.01 C 8.80 35.05 10.55 35.08 12.30 35.13 C 10.52 36.13 8.73 37.13 6.94 38.13 C 6.97 37.35 7.02 35.79 7.05 35.01 Z" />
<path fill="#565249" opacity="1.00" d=" M 63.05 35.01 C 64.80 35.05 66.55 35.08 68.30 35.13 C 66.52 36.13 64.73 37.13 62.94 38.13 C 62.97 37.35 63.02 35.79 63.05 35.01 Z" />
<path fill="#565249" opacity="1.00" d=" M 119.05 35.01 C 120.80 35.05 122.55 35.08 124.30 35.13 C 122.52 36.13 120.73 37.13 118.94 38.13 C 118.97 37.35 119.02 35.79 119.05 35.01 Z" />
<path fill="#565249" opacity="1.00" d=" M 175.05 35.01 C 176.80 35.05 178.55 35.08 180.30 35.13 C 178.52 36.13 176.73 37.13 174.94 38.13 C 174.97 37.35 175.02 35.79 175.05 35.01 Z" />
<path fill="#565249" opacity="1.00" d=" M 11.25 39.43 C 8.77 39.72 9.48 36.69 11.63 37.67 C 11.53 38.11 11.35 38.99 11.25 39.43 Z" />
<path fill="#565249" opacity="1.00" d=" M 66.75 39.42 C 64.25 39.22 65.69 36.49 67.55 37.74 C 67.35 38.16 66.95 39.00 66.75 39.42 Z" />
<path fill="#565249" opacity="1.00" d=" M 122.85 39.76 C 120.76 38.95 122.36 36.16 123.72 38.28 C 123.50 38.65 123.07 39.39 122.85 39.76 Z" />
<path fill="#565249" opacity="1.00" d=" M 178.75 39.42 C 176.25 39.22 177.69 36.49 179.55 37.74 C 179.35 38.16 178.95 39.00 178.75 39.42 Z" />
</g>
<g id="#2c8ad5ff">
<path fill="#2c8ad5" opacity="1.00" d=" M 125.81 17.32 L 126.39 17.34 C 127.01 17.39 128.26 17.50 128.89 17.56 C 131.14 17.86 133.40 18.13 135.66 18.35 C 136.84 18.38 138.02 18.37 139.20 18.37 C 139.60 18.36 140.41 18.33 140.82 18.31 C 141.93 18.23 143.04 18.17 144.16 18.10 C 146.48 17.95 148.80 17.80 151.12 17.66 C 151.72 17.65 152.92 17.61 153.52 17.60 L 154.40 17.60 C 154.49 18.14 154.66 19.22 154.75 19.77 C 154.41 20.89 154.66 21.89 155.50 22.75 L 155.84 23.62 C 156.37 24.97 156.89 26.32 157.41 27.67 C 156.56 28.46 155.71 29.24 154.85 30.01 C 154.59 30.23 154.08 30.68 153.82 30.90 C 153.13 28.50 152.01 26.26 151.00 23.98 C 151.87 23.91 153.62 23.78 154.49 23.71 C 154.17 23.25 153.53 22.35 153.21 21.90 C 152.98 21.59 152.52 20.99 152.28 20.68 C 145.23 19.39 137.99 19.05 130.86 19.87 C 129.28 19.92 127.99 20.89 126.79 21.80 C 126.48 22.06 125.84 22.59 125.53 22.85 C 126.32 23.21 127.92 23.94 128.71 24.31 C 127.91 26.21 126.76 28.12 126.95 30.27 C 127.58 38.84 127.30 47.43 126.83 56.00 L 125.47 56.00 C 125.29 55.45 124.92 54.35 124.73 53.80 L 124.49 53.02 C 124.47 52.63 124.44 51.84 124.42 51.44 C 124.07 47.53 123.73 43.59 122.85 39.76 C 123.07 39.39 123.50 38.65 123.72 38.28 C 124.17 36.47 124.53 34.64 124.79 32.80 C 124.77 31.89 124.73 30.98 124.67 30.07 C 124.49 27.86 124.19 25.67 123.90 23.47 L 123.77 22.46 C 124.97 22.07 125.56 21.24 125.54 19.97 C 125.61 19.31 125.74 17.98 125.81 17.32 Z" />
</g>
<g id="#8fa8baff">
<path fill="#8fa8ba" opacity="1.00" d=" M 128.89 17.56 C 130.47 17.39 132.04 17.15 133.62 16.90 C 134.13 17.26 135.15 17.99 135.66 18.35 C 133.40 18.13 131.14 17.86 128.89 17.56 Z" />
<path fill="#8fa8ba" opacity="1.00" d=" M 147.03 17.55 C 148.39 17.59 149.76 17.65 151.12 17.66 C 148.80 17.80 146.48 17.95 144.16 18.10 C 144.88 17.96 146.31 17.69 147.03 17.55 Z" />
<path fill="#8fa8ba" opacity="1.00" d=" M 72.53 18.70 C 73.81 18.73 75.08 18.75 76.36 18.78 C 77.47 18.81 78.59 18.85 79.70 18.90 C 77.31 18.85 74.92 18.78 72.53 18.70 Z" />
<path fill="#8fa8ba" opacity="1.00" d=" M 88.32 18.84 C 89.38 18.82 90.45 18.81 91.51 18.81 C 92.81 18.83 94.11 18.87 95.40 18.92 C 93.04 18.87 90.68 18.84 88.32 18.84 Z" />
<path fill="#8fa8ba" opacity="1.00" d=" M 184.53 18.70 C 185.80 18.73 187.08 18.75 188.36 18.78 C 189.47 18.81 190.58 18.85 191.70 18.90 C 189.30 18.85 186.91 18.78 184.53 18.70 Z" />
<path fill="#8fa8ba" opacity="1.00" d=" M 200.32 18.84 C 201.38 18.82 202.45 18.81 203.51 18.81 C 204.81 18.83 206.10 18.87 207.40 18.92 C 205.03 18.87 202.67 18.84 200.32 18.84 Z" />
<path fill="#8fa8ba" opacity="1.00" d=" M 16.62 19.99 C 17.86 19.79 19.09 19.58 20.32 19.37 C 21.41 19.57 22.50 19.77 23.58 19.96 C 21.26 19.97 18.94 19.98 16.62 19.99 Z" />
<path fill="#8fa8ba" opacity="1.00" d=" M 32.43 19.93 C 33.44 19.75 34.44 19.57 35.45 19.39 C 36.77 19.60 38.10 19.81 39.43 20.01 C 37.10 19.95 34.77 19.92 32.43 19.93 Z" />
</g>
<g id="#2e89d4ff">
<path fill="#2e89d4" opacity="1.00" d=" M 69.83 19.10 L 70.27 18.67 C 70.84 18.68 71.96 18.70 72.53 18.70 C 74.92 18.78 77.31 18.85 79.70 18.90 C 80.15 18.91 81.06 18.92 81.52 18.93 C 81.98 18.93 82.90 18.93 83.37 18.93 C 83.69 18.93 84.32 18.92 84.64 18.91 C 85.11 18.90 86.04 18.89 86.50 18.88 C 86.96 18.87 87.86 18.85 88.32 18.84 C 90.68 18.84 93.04 18.87 95.40 18.92 C 95.90 18.95 96.90 19.00 97.40 19.02 L 98.20 19.11 L 98.31 19.96 L 98.40 20.71 C 98.16 22.13 98.67 23.05 99.93 23.47 C 99.92 23.88 99.91 24.71 99.91 25.12 C 100.19 25.81 100.77 27.18 101.05 27.86 C 100.58 28.18 99.63 28.82 99.16 29.14 C 98.76 29.51 97.95 30.23 97.55 30.60 C 96.99 28.62 96.12 26.76 95.26 24.90 C 96.05 24.84 97.65 24.71 98.44 24.65 C 98.13 24.21 97.51 23.34 97.21 22.90 C 96.98 22.60 96.51 21.98 96.28 21.68 C 89.23 20.39 81.99 20.05 74.86 20.87 C 73.30 20.94 71.97 21.83 70.77 22.75 C 70.44 23.13 69.78 23.89 69.45 24.26 C 70.21 24.47 71.74 24.89 72.50 25.10 C 71.74 26.73 70.69 28.38 70.90 30.26 C 71.62 38.83 71.40 47.44 70.63 56.00 L 69.12 56.00 C 69.03 55.44 68.85 54.31 68.76 53.74 L 68.63 52.97 C 68.59 52.58 68.51 51.81 68.47 51.42 C 68.25 50.10 67.99 48.79 67.67 47.49 C 69.24 46.92 69.59 44.82 68.68 43.55 C 68.13 42.39 67.60 41.21 67.06 40.05 C 68.37 40.20 69.39 38.93 69.12 37.68 C 69.11 36.02 69.08 34.36 69.01 32.71 L 68.92 31.90 C 68.64 29.06 68.24 26.23 67.89 23.41 C 69.18 23.03 69.71 22.12 69.46 20.66 L 69.64 19.90 L 69.83 19.10 Z" />
<path fill="#2e89d4" opacity="1.00" d=" M 181.83 19.10 L 182.27 18.67 C 182.84 18.68 183.96 18.70 184.53 18.70 C 186.91 18.78 189.30 18.85 191.70 18.90 C 192.15 18.91 193.06 18.92 193.52 18.93 C 193.98 18.93 194.90 18.93 195.37 18.93 C 195.69 18.93 196.32 18.92 196.64 18.91 C 197.11 18.90 198.04 18.89 198.50 18.88 C 198.96 18.87 199.86 18.85 200.32 18.84 C 202.67 18.84 205.03 18.87 207.40 18.92 C 207.90 18.95 208.90 19.00 209.40 19.02 L 210.20 19.11 L 210.31 19.96 L 210.40 20.71 C 210.15 22.13 210.66 23.05 211.93 23.47 C 211.92 23.88 211.91 24.71 211.91 25.12 C 212.19 25.81 212.77 27.18 213.05 27.86 C 212.58 28.18 211.63 28.82 211.16 29.14 C 210.76 29.51 209.95 30.23 209.55 30.60 C 208.99 28.62 208.12 26.76 207.26 24.91 C 208.05 24.84 209.65 24.71 210.44 24.65 C 210.13 24.21 209.51 23.34 209.20 22.90 C 208.97 22.60 208.51 21.98 208.28 21.68 C 199.55 20.18 190.31 19.57 181.77 22.38 C 182.43 23.44 183.14 24.48 183.87 25.51 C 182.80 28.35 182.48 31.41 183.42 34.38 C 183.33 41.59 183.25 48.80 182.66 56.00 L 181.12 56.00 C 181.03 55.44 180.85 54.31 180.76 53.74 L 180.63 52.97 C 180.59 52.58 180.51 51.81 180.47 51.42 C 180.25 50.10 179.98 48.79 179.67 47.49 C 181.24 46.92 181.59 44.82 180.68 43.55 C 180.13 42.39 179.60 41.21 179.06 40.05 C 180.37 40.20 181.39 38.93 181.12 37.68 C 181.11 36.02 181.07 34.36 181.01 32.71 L 180.92 31.90 C 180.64 29.06 180.24 26.23 179.89 23.41 C 181.18 23.03 181.70 22.12 181.46 20.66 L 181.64 19.90 L 181.83 19.10 Z" />
</g>
<g id="#64569bff">
<path fill="#64569b" opacity="1.00" d=" M 130.86 19.87 C 137.99 19.05 145.23 19.39 152.28 20.68 C 152.52 20.99 152.98 21.59 153.21 21.90 C 144.42 22.59 135.57 22.75 126.79 21.80 C 127.99 20.89 129.28 19.92 130.86 19.87 Z" />
<path fill="#64569b" opacity="1.00" d=" M 74.86 20.87 C 81.99 20.05 89.23 20.39 96.28 21.68 C 96.51 21.98 96.98 22.60 97.21 22.90 C 88.41 23.56 79.55 23.81 70.77 22.75 C 71.97 21.83 73.30 20.94 74.86 20.87 Z" />
<path fill="#64569b" opacity="1.00" d=" M 181.77 22.38 C 190.31 19.57 199.55 20.18 208.28 21.68 C 208.51 21.98 208.97 22.60 209.20 22.90 C 200.08 23.46 190.81 24.13 181.77 22.38 Z" />
<path fill="#64569b" opacity="1.00" d=" M 15.00 22.17 C 23.70 21.68 32.92 20.06 41.09 24.17 C 32.53 24.02 23.91 25.14 15.39 23.81 C 15.29 23.40 15.10 22.58 15.00 22.17 Z" />
</g>
<g id="#67965dff">
<path fill="#67965d" opacity="1.00" d=" M 1.29 20.53 C 2.07 19.39 4.15 20.65 3.33 21.85 C 2.53 23.04 0.42 21.76 1.29 20.53 Z" />
</g>
<g id="#6c5e4cff">
<path fill="#6c5e4c" opacity="1.00" d=" M 9.56 19.79 C 10.80 20.06 12.02 20.36 13.25 20.68 C 13.46 21.01 13.89 21.67 14.10 22.01 C 13.51 22.39 12.32 23.16 11.72 23.55 C 11.24 23.41 10.27 23.13 9.79 22.99 C 9.73 21.92 9.65 20.86 9.56 19.79 Z" />
<path fill="#6c5e4c" opacity="1.00" d=" M 42.67 20.60 C 43.91 20.31 45.16 20.05 46.41 19.81 C 46.35 20.95 46.31 22.09 46.28 23.24 C 45.85 23.11 44.99 22.87 44.55 22.75 C 43.90 22.71 42.59 22.62 41.93 22.57 C 42.11 22.08 42.48 21.09 42.67 20.60 Z" />
<path fill="#6c5e4c" opacity="1.00" d=" M 42.01 50.53 C 42.24 49.84 42.71 48.48 42.94 47.80 C 43.83 47.90 45.62 48.11 46.52 48.22 C 46.44 49.21 46.36 50.21 46.29 51.21 C 45.85 51.13 44.98 50.98 44.54 50.90 C 43.91 50.81 42.65 50.62 42.01 50.53 Z" />
<path fill="#6c5e4c" opacity="1.00" d=" M 97.92 50.54 C 98.16 49.85 98.65 48.48 98.89 47.79 C 99.80 47.89 101.61 48.11 102.51 48.21 C 102.43 49.20 102.36 50.18 102.28 51.17 C 101.76 51.23 100.70 51.34 100.18 51.40 C 99.61 51.18 98.48 50.75 97.92 50.54 Z" />
<path fill="#6c5e4c" opacity="1.00" d=" M 154.20 50.29 C 154.48 49.43 154.76 48.57 155.05 47.71 C 155.91 47.84 157.64 48.09 158.51 48.22 C 158.43 49.24 158.36 50.27 158.29 51.29 C 157.70 51.17 156.54 50.92 155.95 50.80 C 155.51 50.67 154.64 50.42 154.20 50.29 Z" />
<path fill="#6c5e4c" opacity="1.00" d=" M 209.92 50.54 C 210.16 49.85 210.65 48.48 210.89 47.79 C 211.80 47.89 213.61 48.10 214.51 48.21 C 214.43 49.21 214.36 50.20 214.29 51.20 C 213.76 51.25 212.70 51.34 212.18 51.39 C 211.61 51.18 210.48 50.75 209.92 50.54 Z" />
</g>
<g id="#3583cffe">
<path fill="#3583cf" opacity="1.00" d=" M 13.25 20.68 L 14.42 20.35 C 14.97 20.26 16.07 20.08 16.62 19.99 C 18.94 19.98 21.26 19.97 23.58 19.96 C 24.09 19.96 25.11 19.96 25.61 19.95 C 26.03 19.95 26.86 19.94 27.27 19.93 C 27.64 19.93 28.37 19.93 28.73 19.92 C 29.15 19.93 29.98 19.93 30.40 19.93 C 30.91 19.93 31.92 19.93 32.43 19.93 C 34.77 19.92 37.10 19.95 39.43 20.01 C 39.98 20.09 41.08 20.25 41.63 20.33 L 42.67 20.60 C 42.48 21.09 42.11 22.08 41.93 22.57 C 41.88 23.03 41.78 23.96 41.73 24.42 L 41.09 24.17 C 32.92 20.06 23.70 21.68 15.00 22.17 C 15.10 22.58 15.29 23.40 15.39 23.81 C 16.11 26.70 15.71 29.74 14.57 32.47 C 13.96 30.91 13.33 29.35 12.75 27.77 C 12.45 26.61 12.16 25.44 11.89 24.27 C 13.37 25.47 15.52 23.43 14.10 22.01 C 13.89 21.67 13.46 21.01 13.25 20.68 Z" />
</g>
<g id="#65955fff">
<path fill="#65955f" opacity="1.00" d=" M 51.48 21.67 C 54.35 20.24 57.58 20.39 60.54 21.39 C 57.53 21.58 54.50 21.67 51.48 21.67 Z" />
<path fill="#65955f" opacity="1.00" d=" M 107.48 21.67 C 110.35 20.24 113.58 20.39 116.54 21.39 C 113.52 21.58 110.50 21.67 107.48 21.67 Z" />
<path fill="#65955f" opacity="1.00" d=" M 163.48 21.67 C 166.35 20.24 169.58 20.39 172.54 21.39 C 169.52 21.58 166.50 21.67 163.48 21.67 Z" />
<path fill="#65955f" opacity="1.00" d=" M 220.46 21.27 C 220.86 19.51 223.12 20.44 224.00 21.28 L 224.00 21.80 C 222.91 22.16 221.01 22.69 220.46 21.27 Z" />
<path fill="#65955f" opacity="1.00" d=" M 54.15 48.10 C 55.99 47.90 55.79 50.69 54.02 50.40 C 52.12 50.61 52.43 47.89 54.15 48.10 Z" />
<path fill="#65955f" opacity="1.00" d=" M 110.15 48.10 C 111.99 47.90 111.79 50.69 110.02 50.40 C 108.12 50.61 108.43 47.89 110.15 48.10 Z" />
<path fill="#65955f" opacity="1.00" d=" M 166.15 48.10 C 167.99 47.90 167.79 50.69 166.02 50.40 C 164.12 50.61 164.42 47.89 166.15 48.10 Z" />
<path fill="#65955f" opacity="1.00" d=" M 220.46 49.27 C 220.85 47.51 223.12 48.43 224.00 49.27 L 224.00 49.79 C 222.91 50.15 221.02 50.69 220.46 49.27 Z" />
</g>
<g id="#6e5f4cff">
<path fill="#6e5f4c" opacity="1.00" d=" M 65.56 20.19 C 66.92 20.09 68.28 19.99 69.64 19.90 L 69.46 20.66 C 68.09 21.17 67.57 22.09 67.89 23.41 C 67.37 23.28 66.35 23.04 65.84 22.92 C 65.76 22.01 65.66 21.10 65.56 20.19 Z" />
<path fill="#6e5f4c" opacity="1.00" d=" M 98.31 19.96 C 99.69 20.03 101.06 20.10 102.45 20.17 C 102.34 21.09 102.24 22.01 102.16 22.93 C 101.60 23.06 100.49 23.33 99.93 23.47 C 100.31 22.14 99.80 21.22 98.40 20.71 L 98.31 19.96 Z" />
<path fill="#6e5f4c" opacity="1.00" d=" M 177.56 20.19 C 178.92 20.09 180.28 19.99 181.64 19.90 L 181.46 20.66 C 180.09 21.17 179.57 22.09 179.89 23.41 C 179.37 23.28 178.35 23.04 177.84 22.92 C 177.76 22.01 177.66 21.10 177.56 20.19 Z" />
<path fill="#6e5f4c" opacity="1.00" d=" M 210.31 19.96 C 211.68 20.03 213.06 20.10 214.45 20.17 C 214.33 21.09 214.24 22.01 214.16 22.93 C 213.60 23.06 212.48 23.33 211.93 23.47 C 212.31 22.14 211.80 21.22 210.40 20.71 L 210.31 19.96 Z" />
</g>
<g id="#adc2d9ff">
<path fill="#adc2d9" opacity="1.00" d=" M 123.81 20.62 C 124.24 20.46 125.11 20.13 125.54 19.97 C 125.56 21.24 124.97 22.07 123.77 22.46 C 123.78 22.00 123.80 21.08 123.81 20.62 Z" />
<path fill="#adc2d9" opacity="1.00" d=" M 154.75 19.77 C 155.14 20.11 155.90 20.79 156.29 21.13 C 156.09 21.54 155.70 22.34 155.50 22.75 C 154.66 21.89 154.41 20.89 154.75 19.77 Z" />
<path fill="#adc2d9" opacity="1.00" d=" M 67.89 23.41 C 67.57 22.09 68.09 21.17 69.46 20.66 C 69.71 22.12 69.18 23.03 67.89 23.41 Z" />
<path fill="#adc2d9" opacity="1.00" d=" M 98.40 20.71 C 99.80 21.22 100.31 22.14 99.93 23.47 C 98.67 23.05 98.16 22.13 98.40 20.71 Z" />
<path fill="#adc2d9" opacity="1.00" d=" M 179.89 23.41 C 179.57 22.09 180.09 21.17 181.46 20.66 C 181.70 22.12 181.18 23.03 179.89 23.41 Z" />
<path fill="#adc2d9" opacity="1.00" d=" M 210.40 20.71 C 211.80 21.22 212.31 22.14 211.93 23.47 C 210.66 23.05 210.15 22.13 210.40 20.71 Z" />
<path fill="#adc2d9" opacity="1.00" d=" M 12.01 51.34 L 12.65 51.93 C 12.72 52.39 12.86 53.29 12.93 53.74 C 11.50 54.02 10.29 51.86 12.01 51.34 Z" />
<path fill="#adc2d9" opacity="1.00" d=" M 67.96 50.93 L 68.47 51.42 C 68.51 51.81 68.59 52.58 68.63 52.97 C 68.15 52.91 67.20 52.78 66.72 52.71 L 66.57 51.96 C 66.92 51.70 67.61 51.19 67.96 50.93 Z" />
<path fill="#adc2d9" opacity="1.00" d=" M 179.96 50.93 L 180.47 51.42 C 180.51 51.81 180.59 52.58 180.63 52.97 C 180.15 52.91 179.20 52.78 178.72 52.71 L 178.57 51.96 C 178.92 51.70 179.61 51.19 179.96 50.93 Z" />
</g>
<g id="#332f2aff">
<path fill="#332f2a" opacity="1.00" d=" M 5.50 21.58 C 6.93 22.07 8.35 22.56 9.79 22.99 C 10.27 23.13 11.24 23.41 11.72 23.55 L 11.89 24.27 C 12.16 25.44 12.45 26.61 12.75 27.77 C 12.80 28.34 12.89 29.49 12.94 30.06 C 11.38 29.16 9.82 28.27 8.25 27.40 C 8.79 28.43 9.34 29.47 9.89 30.51 C 8.32 30.08 6.76 29.65 5.21 29.16 C 5.20 29.06 5.18 28.85 5.17 28.75 C 6.51 27.96 8.61 26.41 7.20 24.71 C 7.05 24.46 6.74 23.97 6.59 23.72 C 6.32 23.19 5.78 22.11 5.50 21.58 Z" />
</g>
<g id="#3f3f3eff">
<path fill="#3f3f3e" opacity="1.00" d=" M 61.53 21.63 C 62.96 22.09 64.39 22.53 65.84 22.92 C 66.35 23.04 67.37 23.28 67.89 23.41 C 68.24 26.23 68.64 29.06 68.92 31.90 C 67.64 30.14 66.19 28.51 64.71 26.92 C 65.00 28.18 65.28 29.44 65.58 30.69 C 64.47 30.16 63.35 29.64 62.26 29.09 C 62.05 28.98 61.64 28.75 61.44 28.64 C 63.00 27.95 63.98 26.03 62.88 24.51 C 62.74 24.22 62.46 23.64 62.31 23.35 C 62.12 22.92 61.73 22.06 61.53 21.63 Z" />
<path fill="#3f3f3e" opacity="1.00" d=" M 173.53 21.63 C 174.96 22.09 176.39 22.53 177.84 22.92 C 178.35 23.04 179.37 23.28 179.89 23.41 C 180.24 26.23 180.64 29.06 180.92 31.90 C 179.64 30.14 178.19 28.51 176.71 26.92 C 176.99 28.18 177.28 29.44 177.58 30.69 C 176.46 30.16 175.35 29.64 174.26 29.09 C 174.05 28.98 173.64 28.75 173.44 28.64 C 175.00 27.95 175.98 26.03 174.88 24.51 C 174.74 24.22 174.46 23.64 174.32 23.35 C 174.12 22.92 173.73 22.06 173.53 21.63 Z" />
</g>
<g id="#373837ff">
<path fill="#373837" opacity="1.00" d=" M 117.54 21.62 C 119.63 22.32 121.76 22.94 123.90 23.47 C 124.19 25.67 124.49 27.86 124.67 30.07 C 123.22 29.15 121.77 28.24 120.31 27.35 C 120.78 28.45 121.26 29.56 121.73 30.66 C 120.57 30.14 119.40 29.64 118.26 29.09 C 118.05 28.98 117.64 28.76 117.43 28.65 C 119.00 27.96 119.97 26.04 118.88 24.51 C 118.74 24.22 118.46 23.64 118.32 23.35 C 118.12 22.91 117.73 22.05 117.54 21.62 Z" />
</g>
<g id="#4378caff">
<path fill="#4378ca" opacity="1.00" d=" M 126.79 21.80 C 135.57 22.75 144.42 22.59 153.21 21.90 C 153.53 22.35 154.17 23.25 154.49 23.71 C 153.62 23.78 151.87 23.91 151.00 23.98 C 143.86 25.47 133.51 22.82 129.22 30.45 C 133.42 32.63 137.78 34.46 142.04 36.48 C 145.87 38.10 148.15 41.81 151.04 44.61 C 148.77 44.58 146.51 44.66 144.25 44.70 C 144.79 43.25 145.36 41.82 145.92 40.39 C 143.61 39.67 141.31 38.95 139.00 38.24 C 140.29 41.67 141.81 45.04 143.79 48.14 C 143.01 49.10 142.23 50.06 141.44 51.02 C 140.84 49.16 140.23 47.30 139.62 45.44 C 138.54 45.54 137.47 45.65 136.40 45.76 C 137.41 43.30 138.48 40.83 139.00 38.21 C 135.92 36.44 132.51 35.36 129.27 33.95 C 129.38 30.88 129.71 27.81 129.60 24.74 L 128.71 24.31 C 127.92 23.94 126.32 23.21 125.53 22.85 C 125.84 22.59 126.48 22.06 126.79 21.80 Z" />
</g>
<g id="#35312dff">
<path fill="#35312d" opacity="1.00" d=" M 155.84 23.62 C 158.02 22.99 160.19 22.35 162.31 21.55 C 162.17 21.98 161.87 22.84 161.73 23.26 C 161.66 23.62 161.53 24.33 161.46 24.69 C 159.94 32.46 159.17 40.34 158.51 48.22 C 157.64 48.09 155.91 47.84 155.05 47.71 C 155.56 46.19 156.09 44.68 156.63 43.17 C 157.11 42.12 157.17 41.05 156.82 39.95 C 156.29 37.50 155.65 35.07 154.65 32.77 C 154.97 32.71 155.63 32.60 155.95 32.54 C 157.05 32.45 158.15 32.37 159.25 32.31 C 158.63 30.76 158.02 29.22 157.41 27.67 C 156.89 26.32 156.37 24.97 155.84 23.62 Z" />
</g>
<g id="#9db4c9ff">
<path fill="#9db4c9" opacity="1.00" d=" M 11.72 23.55 C 12.32 23.16 13.51 22.39 14.10 22.01 C 15.52 23.43 13.37 25.47 11.89 24.27 L 11.72 23.55 Z" />
<path fill="#9db4c9" opacity="1.00" d=" M 41.93 22.57 C 42.59 22.62 43.90 22.71 44.55 22.75 L 44.42 23.41 C 43.92 23.76 42.93 24.46 42.43 24.82 L 41.73 24.42 C 41.78 23.96 41.88 23.03 41.93 22.57 Z" />
<path fill="#9db4c9" opacity="1.00" d=" M 42.01 50.53 C 42.65 50.62 43.91 50.81 44.54 50.90 L 44.36 51.63 C 43.77 51.94 42.59 52.56 42.00 52.87 L 41.60 52.20 C 41.70 51.78 41.91 50.95 42.01 50.53 Z" />
<path fill="#9db4c9" opacity="1.00" d=" M 97.92 50.54 C 98.48 50.75 99.61 51.18 100.18 51.40 L 100.12 52.20 C 99.49 52.44 98.23 52.92 97.61 53.16 L 97.45 52.36 C 97.57 51.91 97.80 51.00 97.92 50.54 Z" />
<path fill="#9db4c9" opacity="1.00" d=" M 209.92 50.54 C 210.48 50.75 211.61 51.18 212.18 51.39 L 212.12 52.20 C 211.49 52.44 210.23 52.92 209.61 53.16 L 209.45 52.36 C 209.57 51.91 209.80 51.00 209.92 50.54 Z" />
</g>
<g id="#4278cafe">
<path fill="#4278ca" opacity="1.00" d=" M 70.77 22.75 C 79.55 23.81 88.41 23.56 97.21 22.90 C 97.51 23.34 98.13 24.21 98.44 24.65 C 97.65 24.71 96.05 24.84 95.26 24.90 C 88.11 26.17 78.02 23.80 73.84 31.62 C 80.13 34.58 87.34 35.91 92.73 40.56 C 89.96 39.95 87.19 39.35 84.43 38.71 C 82.79 42.32 81.11 45.92 79.37 49.48 C 80.46 49.78 81.55 50.09 82.65 50.39 C 84.13 46.71 87.79 45.59 91.12 44.45 C 89.16 46.53 87.13 48.53 85.08 50.51 C 85.69 51.97 86.34 53.41 86.97 54.86 C 84.72 53.46 82.55 51.79 79.97 51.05 C 76.91 51.87 74.65 54.28 72.09 56.00 L 71.26 56.00 C 73.47 53.87 75.58 51.64 77.72 49.43 C 77.12 49.22 75.92 48.82 75.32 48.61 C 78.71 45.87 81.13 42.18 82.47 38.05 C 79.26 36.85 76.08 35.63 72.93 34.29 C 73.80 31.49 74.55 28.65 75.49 25.87 C 74.49 25.62 73.49 25.36 72.50 25.10 C 71.74 24.89 70.21 24.47 69.45 24.26 C 69.78 23.89 70.44 23.13 70.77 22.75 Z" />
</g>
<g id="#4176c9ff">
<path fill="#4176c9" opacity="1.00" d=" M 181.77 22.38 C 190.81 24.13 200.08 23.46 209.20 22.90 C 209.51 23.34 210.13 24.21 210.44 24.65 C 209.65 24.71 208.05 24.84 207.26 24.91 C 200.11 26.19 189.87 23.75 185.84 31.73 C 191.90 35.21 199.44 35.71 204.73 40.56 C 201.95 39.96 199.19 39.36 196.43 38.70 C 194.79 42.32 193.11 45.92 191.37 49.48 C 192.46 49.78 193.55 50.09 194.65 50.39 C 196.13 46.71 199.79 45.59 203.12 44.45 C 201.16 46.53 199.13 48.53 197.08 50.51 C 197.69 51.97 198.34 53.41 198.97 54.86 C 196.72 53.46 194.55 51.79 191.97 51.05 C 188.90 51.87 186.65 54.28 184.09 56.00 L 183.26 56.00 C 185.47 53.87 187.58 51.64 189.72 49.43 C 189.12 49.22 187.92 48.82 187.32 48.61 C 190.85 45.78 193.31 41.91 194.61 37.58 C 190.85 36.57 187.11 35.58 183.42 34.38 C 182.48 31.41 182.80 28.35 183.87 25.51 C 183.14 24.48 182.43 23.44 181.77 22.38 Z" />
</g>
<g id="#79a55dff">
<path fill="#79a55d" opacity="1.00" d=" M 2.85 23.10 C 4.10 23.30 5.35 23.49 6.59 23.72 C 6.74 23.97 7.05 24.46 7.20 24.71 C 5.56 25.33 4.68 27.06 5.17 28.75 C 5.18 28.85 5.20 29.06 5.21 29.16 C 5.34 30.38 5.48 31.60 5.62 32.83 L 5.75 33.91 C 4.91 33.24 4.07 32.57 3.23 31.90 C 4.15 38.31 5.82 44.67 5.73 51.19 C 5.75 51.48 5.80 52.06 5.82 52.34 C 5.94 53.56 6.05 54.78 6.16 56.00 L 0.00 56.00 L 0.00 23.43 C 0.45 24.38 0.92 25.34 1.40 26.28 C 1.89 25.22 2.37 24.17 2.85 23.10 Z" />
</g>
<g id="#4177caff">
<path fill="#4177ca" opacity="1.00" d=" M 15.39 23.81 C 23.91 25.14 32.53 24.02 41.09 24.17 L 41.73 24.42 L 42.43 24.82 C 41.57 25.25 40.70 25.67 39.83 26.07 C 36.44 26.62 33.03 27.03 29.61 27.39 C 33.82 28.01 38.25 28.71 41.22 32.08 L 41.18 32.80 C 36.86 32.12 32.52 31.57 28.16 31.24 C 28.23 29.61 28.32 27.98 28.41 26.34 C 24.67 27.28 21.12 29.04 18.94 32.34 C 24.91 35.65 31.29 38.36 36.71 42.59 C 33.93 41.94 31.16 41.32 28.38 40.68 C 27.02 43.95 25.50 47.15 24.02 50.37 C 25.43 50.93 26.84 51.48 28.25 52.05 C 24.23 52.64 20.35 53.81 16.90 56.00 L 15.48 56.00 L 16.22 55.38 C 18.09 53.81 19.94 52.23 21.81 50.67 C 21.41 49.07 21.00 47.47 20.59 45.87 C 23.15 44.50 26.62 43.50 27.21 40.20 C 24.25 37.77 20.46 36.81 17.00 35.34 C 15.96 34.89 14.92 34.42 13.82 34.12 C 14.01 33.71 14.38 32.88 14.57 32.47 C 15.71 29.74 16.11 26.70 15.39 23.81 Z" />
</g>
<g id="#6d9a5aff">
<path fill="#6d9a5a" opacity="1.00" d=" M 49.72 23.26 C 53.77 25.23 58.21 24.96 62.31 23.35 C 62.46 23.64 62.74 24.22 62.88 24.51 C 60.93 25.94 59.05 27.46 57.21 29.04 C 58.38 29.39 59.54 29.73 60.71 30.08 L 60.37 30.30 C 57.91 31.85 55.40 33.32 52.88 34.76 C 55.38 39.77 52.96 45.07 50.53 49.61 C 49.39 42.26 48.63 34.67 50.53 27.37 C 50.15 26.48 49.78 25.58 49.43 24.68 C 49.51 24.33 49.65 23.62 49.72 23.26 M 55.25 28.50 C 54.23 29.18 54.30 31.38 55.76 31.41 C 57.78 31.25 57.33 27.29 55.25 28.50 Z" />
<path fill="#6d9a5a" opacity="1.00" d=" M 105.73 23.27 C 109.78 25.24 114.21 24.96 118.32 23.35 C 118.46 23.64 118.74 24.22 118.88 24.51 C 116.92 25.94 115.05 27.47 113.21 29.04 C 114.38 29.39 115.54 29.73 116.71 30.08 L 116.37 30.30 C 113.91 31.85 111.40 33.32 108.87 34.76 C 111.39 39.77 108.95 45.07 106.53 49.61 C 105.39 42.26 104.64 34.66 106.53 27.35 C 106.15 26.47 105.78 25.58 105.44 24.68 C 105.51 24.33 105.66 23.62 105.73 23.27 M 111.25 28.50 C 110.23 29.18 110.30 31.38 111.76 31.41 C 113.78 31.25 113.32 27.29 111.25 28.50 Z" />
<path fill="#6d9a5a" opacity="1.00" d=" M 161.73 23.26 C 165.77 25.24 170.21 24.95 174.32 23.35 C 174.46 23.64 174.74 24.22 174.88 24.51 C 172.93 25.94 171.05 27.46 169.21 29.04 C 170.37 29.39 171.54 29.73 172.71 30.08 L 172.37 30.30 C 169.91 31.85 167.40 33.32 164.87 34.76 C 167.39 39.77 164.95 45.05 162.53 49.58 C 161.39 42.25 160.64 34.67 162.53 27.38 C 162.16 26.49 161.79 25.59 161.46 24.69 C 161.53 24.33 161.66 23.62 161.73 23.26 M 167.25 28.50 C 166.23 29.18 166.30 31.38 167.76 31.41 C 169.78 31.25 169.32 27.29 167.25 28.50 Z" />
</g>
<g id="#6e9b59ff">
<path fill="#6e9b59" opacity="1.00" d=" M 217.63 23.53 C 218.82 23.45 220.02 23.37 221.22 23.30 C 221.56 24.19 221.91 25.08 222.26 25.97 C 222.85 25.16 223.43 24.34 224.00 23.51 L 224.00 28.17 C 222.12 28.17 222.12 30.86 224.00 30.87 L 224.00 34.49 C 223.53 33.68 222.58 32.08 222.11 31.28 C 221.05 34.17 221.34 37.23 222.38 40.07 C 221.11 43.25 219.84 46.43 218.43 49.55 C 217.46 42.21 216.61 34.64 218.54 27.36 C 218.15 26.49 217.75 25.63 217.40 24.74 C 217.46 24.44 217.57 23.83 217.63 23.53 Z" />
</g>
<g id="#268ed9fe">
<path fill="#268ed9" opacity="1.00" d=" M 42.43 24.82 C 42.93 24.46 43.92 23.76 44.42 23.41 C 44.06 25.00 43.65 26.57 43.23 28.15 L 43.01 29.01 C 42.57 29.43 41.69 30.29 41.26 30.72 C 40.86 29.14 40.34 27.61 39.83 26.07 C 40.70 25.67 41.57 25.25 42.43 24.82 Z" />
</g>
<g id="#3c6bbeff">
<path fill="#3c6bbe" opacity="1.00" d=" M 128.71 24.31 L 129.60 24.74 C 129.71 27.81 129.38 30.88 129.27 33.95 C 132.51 35.36 135.92 36.44 139.00 38.21 C 138.48 40.83 137.41 43.30 136.40 45.76 C 137.47 45.65 138.54 45.54 139.62 45.44 C 140.23 47.30 140.84 49.16 141.44 51.02 C 142.23 50.06 143.01 49.10 143.79 48.14 C 141.81 45.04 140.29 41.67 139.00 38.24 C 141.31 38.95 143.61 39.67 145.92 40.39 C 145.36 41.82 144.79 43.25 144.25 44.70 C 146.51 44.66 148.77 44.58 151.04 44.61 C 148.15 41.81 145.87 38.10 142.04 36.48 C 137.78 34.46 133.42 32.63 129.22 30.45 C 133.51 22.82 143.86 25.47 151.00 23.98 C 152.01 26.26 153.13 28.50 153.82 30.90 L 153.81 31.60 C 153.74 39.72 151.89 48.01 154.06 56.00 L 126.83 56.00 C 127.30 47.43 127.58 38.84 126.95 30.27 C 126.76 28.12 127.91 26.21 128.71 24.31 M 130.86 47.59 C 131.63 47.75 133.17 48.07 133.94 48.22 C 132.13 50.07 130.33 51.93 128.57 53.81 C 132.05 51.49 135.99 50.19 140.25 50.36 C 137.75 49.04 135.43 47.37 133.73 45.09 C 132.77 45.92 131.81 46.75 130.86 47.59 Z" />
<path fill="#3c6bbe" opacity="1.00" d=" M 72.50 25.10 C 73.49 25.36 74.49 25.62 75.49 25.87 C 74.55 28.65 73.80 31.49 72.93 34.29 C 76.08 35.63 79.26 36.85 82.47 38.05 C 81.13 42.18 78.71 45.87 75.32 48.61 C 75.92 48.82 77.12 49.22 77.72 49.43 C 75.58 51.64 73.47 53.87 71.26 56.00 L 70.63 56.00 C 71.40 47.44 71.62 38.83 70.90 30.26 C 70.69 28.38 71.74 26.73 72.50 25.10 Z" />
<path fill="#3c6bbe" opacity="1.00" d=" M 73.84 31.62 C 78.02 23.80 88.11 26.17 95.26 24.90 C 96.12 26.76 96.99 28.62 97.55 30.60 L 97.59 31.37 C 97.78 38.37 96.48 45.40 97.45 52.36 L 97.61 53.16 C 97.80 53.87 98.18 55.29 98.37 56.00 L 72.09 56.00 C 74.65 54.28 76.91 51.87 79.97 51.05 C 82.55 51.79 84.72 53.46 86.97 54.86 C 86.34 53.41 85.69 51.97 85.08 50.51 C 87.13 48.53 89.16 46.53 91.12 44.45 C 87.79 45.59 84.13 46.71 82.65 50.39 C 81.55 50.09 80.46 49.78 79.37 49.48 C 81.11 45.92 82.79 42.32 84.43 38.71 C 87.19 39.35 89.96 39.95 92.73 40.56 C 87.34 35.91 80.13 34.58 73.84 31.62 M 83.28 29.29 C 87.43 29.45 91.58 29.37 95.73 29.22 C 91.81 26.80 87.31 26.96 83.28 29.29 Z" />
<path fill="#3c6bbe" opacity="1.00" d=" M 185.84 31.73 C 189.87 23.75 200.11 26.19 207.26 24.91 C 208.12 26.76 208.99 28.62 209.55 30.60 L 209.59 31.37 C 209.78 38.37 208.48 45.40 209.45 52.36 L 209.61 53.16 C 209.80 53.87 210.18 55.29 210.37 56.00 L 184.09 56.00 C 186.65 54.28 188.90 51.87 191.97 51.05 C 194.55 51.79 196.72 53.46 198.97 54.86 C 198.34 53.41 197.69 51.97 197.08 50.51 C 199.13 48.53 201.16 46.53 203.12 44.45 C 199.79 45.59 196.13 46.71 194.65 50.39 C 193.55 50.09 192.46 49.78 191.37 49.48 C 193.11 45.92 194.79 42.32 196.43 38.70 C 199.19 39.36 201.95 39.96 204.73 40.56 C 199.44 35.71 191.90 35.21 185.84 31.73 M 195.28 29.29 C 199.43 29.45 203.58 29.37 207.73 29.22 C 203.81 26.80 199.31 26.96 195.28 29.29 Z" />
<path fill="#3c6bbe" opacity="1.00" d=" M 29.61 27.39 C 33.03 27.03 36.44 26.62 39.83 26.07 C 40.34 27.61 40.86 29.14 41.26 30.72 L 41.25 31.46 L 41.22 32.08 C 38.25 28.71 33.82 28.01 29.61 27.39 Z" />
<path fill="#3c6bbe" opacity="1.00" d=" M 183.42 34.38 C 187.11 35.58 190.85 36.57 194.61 37.58 C 193.31 41.91 190.85 45.78 187.32 48.61 C 187.92 48.82 189.12 49.22 189.72 49.43 C 187.58 51.64 185.47 53.87 183.26 56.00 L 182.66 56.00 C 183.25 48.80 183.33 41.59 183.42 34.38 Z" />
<path fill="#3c6bbe" opacity="1.00" d=" M 16.56 35.76 L 17.00 35.34 C 20.46 36.81 24.25 37.77 27.21 40.20 C 26.62 43.50 23.15 44.50 20.59 45.87 C 21.00 47.47 21.41 49.07 21.81 50.67 C 19.94 52.23 18.09 53.81 16.22 55.38 C 15.60 53.75 14.92 52.15 14.15 50.60 C 13.90 50.29 13.41 49.67 13.17 49.37 C 14.36 48.07 15.56 46.78 16.77 45.49 C 16.35 45.32 15.52 44.99 15.11 44.83 L 14.45 44.52 C 14.35 42.91 14.13 39.70 14.02 38.09 C 14.88 37.33 15.72 36.55 16.56 35.76 Z" />
<path fill="#3c6bbe" opacity="1.00" d=" M 61.90 50.81 C 62.02 49.50 62.69 47.97 64.20 47.87 C 64.06 48.52 63.78 49.81 63.64 50.46 C 63.21 50.55 62.33 50.72 61.90 50.81 Z" />
<path fill="#3c6bbe" opacity="1.00" d=" M 117.88 50.80 C 118.01 49.49 118.68 47.95 120.19 47.86 C 120.05 48.51 119.77 49.80 119.63 50.45 C 119.19 50.53 118.32 50.71 117.88 50.80 Z" />
<path fill="#3c6bbe" opacity="1.00" d=" M 173.90 50.81 C 174.02 49.50 174.69 47.97 176.20 47.87 C 176.06 48.52 175.78 49.81 175.64 50.46 C 175.21 50.55 174.33 50.72 173.90 50.81 Z" />
<path fill="#3c6bbe" opacity="1.00" d=" M 65.80 50.29 C 66.34 50.45 67.42 50.77 67.96 50.93 C 67.61 51.19 66.92 51.70 66.57 51.96 C 66.28 51.72 65.70 51.23 65.41 50.98 L 65.80 50.29 Z" />
<path fill="#3c6bbe" opacity="1.00" d=" M 121.78 50.28 C 122.32 50.45 123.39 50.78 123.93 50.94 C 123.57 51.20 122.86 51.71 122.51 51.97 C 122.23 51.72 121.66 51.22 121.38 50.97 L 121.78 50.28 Z" />
<path fill="#3c6bbe" opacity="1.00" d=" M 177.80 50.29 C 178.34 50.45 179.42 50.77 179.96 50.93 C 179.61 51.19 178.92 51.70 178.57 51.96 C 178.28 51.72 177.70 51.23 177.41 50.98 L 177.80 50.29 Z" />
<path fill="#3c6bbe" opacity="1.00" d=" M 63.65 52.50 L 64.36 52.48 L 64.57 53.21 C 64.35 53.90 63.90 55.30 63.68 56.00 L 62.25 56.00 L 62.06 55.29 C 62.92 54.55 63.45 53.62 63.65 52.50 Z" />
<path fill="#3c6bbe" opacity="1.00" d=" M 119.62 52.50 L 120.33 52.48 L 120.54 53.21 C 120.33 53.91 119.90 55.30 119.68 56.00 L 118.24 56.00 L 118.05 55.29 C 118.91 54.55 119.43 53.62 119.62 52.50 Z" />
<path fill="#3c6bbe" opacity="1.00" d=" M 175.65 52.50 L 176.36 52.48 L 176.57 53.21 C 176.35 53.90 175.90 55.30 175.68 56.00 L 174.25 56.00 L 174.06 55.29 C 174.92 54.55 175.45 53.62 175.65 52.50 Z" />
</g>
<g id="#416845ff">
<path fill="#416845" opacity="1.00" d=" M 7.20 24.71 C 8.61 26.41 6.51 27.96 5.17 28.75 C 4.68 27.06 5.56 25.33 7.20 24.71 Z" />
<path fill="#416845" opacity="1.00" d=" M 62.88 24.51 C 63.98 26.03 63.00 27.95 61.44 28.64 C 59.80 27.48 61.93 25.45 62.88 24.51 Z" />
<path fill="#416845" opacity="1.00" d=" M 118.88 24.51 C 119.97 26.04 119.00 27.96 117.43 28.65 C 115.79 27.49 117.93 25.46 118.88 24.51 Z" />
<path fill="#416845" opacity="1.00" d=" M 174.88 24.51 C 175.98 26.03 175.00 27.95 173.44 28.64 C 171.80 27.48 173.92 25.45 174.88 24.51 Z" />
<path fill="#416845" opacity="1.00" d=" M 62.86 52.31 L 63.65 52.50 C 63.45 53.62 62.92 54.55 62.06 55.29 C 62.26 54.54 62.66 53.05 62.86 52.31 Z" />
<path fill="#416845" opacity="1.00" d=" M 118.83 52.31 L 119.62 52.50 C 119.43 53.62 118.91 54.55 118.05 55.29 C 118.24 54.54 118.63 53.05 118.83 52.31 Z" />
<path fill="#416845" opacity="1.00" d=" M 174.86 52.31 L 175.65 52.50 C 175.45 53.62 174.92 54.55 174.06 55.29 C 174.26 54.54 174.66 53.05 174.86 52.31 Z" />
<path fill="#416845" opacity="1.00" d=" M 49.25 56.00 C 48.21 55.28 47.92 53.74 48.77 52.77 C 49.95 53.64 50.84 54.82 51.69 56.00 L 49.25 56.00 Z" />
<path fill="#416845" opacity="1.00" d=" M 105.24 56.00 C 104.21 55.28 103.91 53.74 104.77 52.77 C 105.94 53.64 106.83 54.82 107.69 56.00 L 105.24 56.00 Z" />
<path fill="#416845" opacity="1.00" d=" M 161.25 56.00 C 160.21 55.28 159.91 53.74 160.76 52.76 C 161.94 53.64 162.83 54.82 163.69 56.00 L 161.25 56.00 Z" />
<path fill="#416845" opacity="1.00" d=" M 217.15 56.00 C 216.05 55.16 216.22 53.64 216.94 52.63 C 217.92 53.70 218.83 54.83 219.69 56.00 L 217.15 56.00 Z" />
</g>
<g id="#465943ff">
<path fill="#465943" opacity="1.00" d=" M 46.52 48.22 C 47.19 40.34 47.93 32.45 49.43 24.68 C 49.78 25.58 50.15 26.48 50.53 27.37 C 48.63 34.67 49.39 42.26 50.53 49.61 C 49.12 50.16 47.72 50.73 46.29 51.21 C 46.36 50.21 46.44 49.21 46.52 48.22 Z" />
<path fill="#465943" opacity="1.00" d=" M 102.51 48.21 C 103.21 40.34 103.92 32.45 105.44 24.68 C 105.78 25.58 106.15 26.47 106.53 27.35 C 104.64 34.66 105.39 42.26 106.53 49.61 C 105.12 50.15 103.72 50.72 102.28 51.17 C 102.36 50.18 102.43 49.20 102.51 48.21 Z" />
<path fill="#465943" opacity="1.00" d=" M 158.51 48.22 C 159.17 40.34 159.94 32.46 161.46 24.69 C 161.79 25.59 162.16 26.49 162.53 27.38 C 160.64 34.67 161.39 42.25 162.53 49.58 C 161.12 50.17 159.72 50.78 158.29 51.29 C 158.36 50.27 158.43 49.24 158.51 48.22 Z" />
<path fill="#465943" opacity="1.00" d=" M 214.51 48.21 C 215.20 40.36 215.95 32.50 217.40 24.74 C 217.75 25.63 218.15 26.49 218.54 27.36 C 216.61 34.64 217.46 42.21 218.43 49.55 C 217.05 50.12 215.69 50.70 214.29 51.20 C 214.36 50.20 214.43 49.21 214.51 48.21 Z" />
</g>
<g id="#86af5cff">
<path fill="#86af5c" opacity="1.00" d=" M 57.21 29.04 C 59.05 27.46 60.93 25.94 62.88 24.51 C 61.93 25.45 59.80 27.48 61.44 28.64 C 61.64 28.75 62.05 28.98 62.26 29.09 C 61.87 29.34 61.10 29.83 60.71 30.08 C 59.54 29.73 58.38 29.39 57.21 29.04 Z" />
<path fill="#86af5c" opacity="1.00" d=" M 113.21 29.04 C 115.05 27.47 116.92 25.94 118.88 24.51 C 117.93 25.46 115.79 27.49 117.43 28.65 C 117.64 28.76 118.05 28.98 118.26 29.09 C 117.87 29.34 117.10 29.83 116.71 30.08 C 115.54 29.73 114.38 29.39 113.21 29.04 Z" />
<path fill="#86af5c" opacity="1.00" d=" M 169.21 29.04 C 171.05 27.46 172.93 25.94 174.88 24.51 C 173.92 25.45 171.80 27.48 173.44 28.64 C 173.64 28.75 174.05 28.98 174.26 29.09 C 173.87 29.34 173.10 29.83 172.71 30.08 C 171.54 29.73 170.37 29.39 169.21 29.04 Z" />
</g>
<g id="#86a0b1ff">
<path fill="#86a0b1" opacity="1.00" d=" M 99.91 25.12 C 100.99 25.53 101.60 26.30 101.73 27.43 L 101.05 27.86 C 100.77 27.18 100.19 25.81 99.91 25.12 Z" />
<path fill="#86a0b1" opacity="1.00" d=" M 211.91 25.12 C 212.98 25.53 213.59 26.30 213.73 27.43 L 213.05 27.86 C 212.77 27.18 212.19 25.81 211.91 25.12 Z" />
<path fill="#86a0b1" opacity="1.00" d=" M 154.85 30.01 C 155.12 30.64 155.67 31.91 155.95 32.54 C 155.63 32.60 154.97 32.71 154.65 32.77 C 154.44 32.48 154.02 31.89 153.81 31.60 L 153.82 30.90 C 154.08 30.68 154.59 30.23 154.85 30.01 Z" />
<path fill="#86a0b1" opacity="1.00" d=" M 67.55 37.74 C 67.95 37.73 68.73 37.70 69.12 37.68 C 69.39 38.93 68.37 40.20 67.06 40.05 L 66.75 39.42 C 66.95 39.00 67.35 38.16 67.55 37.74 Z" />
<path fill="#86a0b1" opacity="1.00" d=" M 179.55 37.74 C 179.95 37.73 180.73 37.70 181.12 37.68 C 181.39 38.93 180.37 40.20 179.06 40.05 L 178.75 39.42 C 178.95 39.00 179.35 38.16 179.55 37.74 Z" />
<path fill="#86a0b1" opacity="1.00" d=" M 68.68 43.55 C 69.59 44.82 69.24 46.92 67.67 47.49 C 67.08 46.16 67.08 44.17 68.68 43.55 Z" />
<path fill="#86a0b1" opacity="1.00" d=" M 180.68 43.55 C 181.59 44.82 181.24 46.92 179.67 47.49 C 179.08 46.16 179.08 44.17 180.68 43.55 Z" />
<path fill="#86a0b1" opacity="1.00" d=" M 12.72 49.83 L 13.17 49.37 C 13.41 49.67 13.90 50.29 14.15 50.60 C 14.27 51.76 14.02 52.84 13.40 53.83 L 12.93 53.74 C 12.86 53.29 12.72 52.39 12.65 51.93 C 12.67 51.41 12.71 50.36 12.72 49.83 Z" />
<path fill="#86a0b1" opacity="1.00" d=" M 154.20 50.29 C 154.64 50.42 155.51 50.67 155.95 50.80 L 155.90 51.64 C 154.92 53.08 153.20 51.53 154.20 50.29 Z" />
<path fill="#86a0b1" opacity="1.00" d=" M 123.93 50.94 L 124.42 51.44 C 124.44 51.84 124.47 52.63 124.49 53.02 C 124.02 52.95 123.10 52.81 122.64 52.74 L 122.51 51.97 C 122.86 51.71 123.57 51.20 123.93 50.94 Z" />
</g>
<g id="#3c6bbefe">
<path fill="#3c6bbe" opacity="1.00" d=" M 18.94 32.34 C 21.12 29.04 24.67 27.28 28.41 26.34 C 28.32 27.98 28.23 29.61 28.16 31.24 C 32.52 31.57 36.86 32.12 41.18 32.80 C 40.58 36.39 40.06 40.10 41.10 43.67 C 40.52 45.17 39.89 46.66 39.25 48.14 C 40.03 49.50 40.81 50.85 41.60 52.20 L 42.00 52.87 C 41.50 53.92 40.99 54.96 40.47 56.00 L 16.90 56.00 C 20.35 53.81 24.23 52.64 28.25 52.05 C 26.84 51.48 25.43 50.93 24.02 50.37 C 25.50 47.15 27.02 43.95 28.38 40.68 C 31.16 41.32 33.93 41.94 36.71 42.59 C 31.29 38.36 24.91 35.65 18.94 32.34 M 34.82 44.63 C 32.76 46.27 30.53 47.65 28.22 48.90 C 28.37 49.47 28.52 50.04 28.68 50.61 C 31.40 49.54 34.12 48.48 36.91 47.60 C 36.23 46.60 35.53 45.61 34.82 44.63 Z" />
</g>
<g id="#4280caff">
<path fill="#4280ca" opacity="1.00" d=" M 83.28 29.29 C 87.31 26.96 91.81 26.80 95.73 29.22 C 91.58 29.37 87.43 29.45 83.28 29.29 Z" />
</g>
<g id="#3e7ecbff">
<path fill="#3e7ecb" opacity="1.00" d=" M 195.28 29.29 C 199.31 26.96 203.81 26.80 207.73 29.22 C 203.58 29.37 199.43 29.45 195.28 29.29 Z" />
</g>
<g id="#525548ff">
<path fill="#525548" opacity="1.00" d=" M 8.25 27.40 C 9.82 28.27 11.38 29.16 12.94 30.06 C 12.99 31.00 13.04 31.94 13.08 32.89 C 10.59 32.80 8.11 32.79 5.62 32.83 C 5.48 31.60 5.34 30.38 5.21 29.16 C 6.76 29.65 8.32 30.08 9.89 30.51 C 9.34 29.47 8.79 28.43 8.25 27.40 Z" />
<path fill="#525548" opacity="1.00" d=" M 64.71 26.92 C 66.19 28.51 67.64 30.14 68.92 31.90 L 69.01 32.71 C 66.54 32.72 64.07 32.79 61.61 32.92 C 61.21 32.04 60.80 31.16 60.37 30.30 L 60.71 30.08 C 61.10 29.83 61.87 29.34 62.26 29.09 C 63.35 29.64 64.47 30.16 65.58 30.69 C 65.28 29.44 65.00 28.18 64.71 26.92 Z" />
<path fill="#525548" opacity="1.00" d=" M 120.31 27.35 C 121.77 28.24 123.22 29.15 124.67 30.07 C 124.73 30.98 124.77 31.89 124.79 32.80 C 122.39 32.77 119.99 32.81 117.60 32.90 C 117.21 32.02 116.80 31.16 116.37 30.30 L 116.71 30.08 C 117.10 29.83 117.87 29.34 118.26 29.09 C 119.40 29.64 120.57 30.14 121.73 30.66 C 121.26 29.56 120.78 28.45 120.31 27.35 Z" />
<path fill="#525548" opacity="1.00" d=" M 176.71 26.92 C 178.19 28.51 179.64 30.14 180.92 31.90 L 181.01 32.71 C 178.54 32.72 176.07 32.79 173.61 32.92 C 173.21 32.04 172.80 31.16 172.37 30.30 L 172.71 30.08 C 173.10 29.83 173.87 29.34 174.26 29.09 C 175.35 29.64 176.46 30.16 177.58 30.69 C 177.28 29.44 176.99 28.18 176.71 26.92 Z" />
</g>
<g id="#8aa3b5ff">
<path fill="#8aa3b5" opacity="1.00" d=" M 12.75 27.77 C 13.33 29.35 13.96 30.91 14.57 32.47 C 14.38 32.88 14.01 33.71 13.82 34.12 C 13.66 34.45 13.34 35.13 13.18 35.46 C 13.16 34.82 13.10 33.53 13.08 32.89 C 13.04 31.94 12.99 31.00 12.94 30.06 C 12.89 29.49 12.80 28.34 12.75 27.77 Z" />
</g>
<g id="#565248fe">
<path fill="#565248" opacity="1.00" d=" M 101.05 27.86 L 101.73 27.43 C 102.14 29.09 102.61 30.73 103.07 32.38 C 102.03 32.44 100.99 32.51 99.95 32.58 C 100.08 31.35 99.82 30.20 99.16 29.14 C 99.63 28.82 100.58 28.18 101.05 27.86 Z" />
<path fill="#565248" opacity="1.00" d=" M 154.85 30.01 C 155.71 29.24 156.56 28.46 157.41 27.67 C 158.02 29.22 158.63 30.76 159.25 32.31 C 158.15 32.37 157.05 32.45 155.95 32.54 C 155.67 31.91 155.12 30.64 154.85 30.01 Z" />
<path fill="#565248" opacity="1.00" d=" M 213.05 27.86 L 213.73 27.43 C 214.14 29.09 214.61 30.73 215.07 32.38 C 214.03 32.44 212.99 32.51 211.95 32.58 C 212.08 31.35 211.82 30.20 211.16 29.14 C 211.63 28.82 212.58 28.18 213.05 27.86 Z" />
</g>
<g id="#a0b6cbff">
<path fill="#a0b6cb" opacity="1.00" d=" M 41.26 30.72 C 41.69 30.29 42.57 29.43 43.01 29.01 C 43.45 30.15 43.71 31.34 43.79 32.56 C 43.45 32.58 42.78 32.62 42.44 32.64 C 42.15 32.35 41.55 31.76 41.25 31.46 L 41.26 30.72 Z" />
<path fill="#a0b6cb" opacity="1.00" d=" M 97.55 30.60 C 97.95 30.23 98.76 29.51 99.16 29.14 C 99.82 30.20 100.08 31.35 99.95 32.58 C 99.61 32.60 98.94 32.65 98.60 32.67 C 98.35 32.35 97.84 31.69 97.59 31.37 L 97.55 30.60 Z" />
<path fill="#a0b6cb" opacity="1.00" d=" M 209.55 30.60 C 209.95 30.23 210.76 29.51 211.16 29.14 C 211.82 30.20 212.08 31.35 211.95 32.58 C 211.61 32.60 210.94 32.65 210.60 32.67 C 210.35 32.35 209.84 31.69 209.59 31.37 L 209.55 30.60 Z" />
</g>
<g id="#85af5fff">
<path fill="#85af5f" opacity="1.00" d=" M 52.88 34.76 C 55.40 33.32 57.91 31.85 60.37 30.30 C 60.80 31.16 61.21 32.04 61.61 32.92 L 61.84 33.87 C 61.02 33.22 60.20 32.57 59.37 31.93 C 59.76 34.14 60.15 36.37 60.22 38.62 C 58.70 38.15 57.16 37.75 55.61 37.39 C 56.30 37.76 57.67 38.51 58.36 38.88 C 57.28 40.05 56.19 41.21 55.11 42.37 C 56.79 41.93 58.48 41.48 60.16 41.03 C 60.36 41.19 60.74 41.49 60.94 41.64 C 59.27 42.03 58.56 44.61 60.39 45.31 C 61.11 45.79 61.84 46.26 62.57 46.72 C 61.93 47.67 61.30 48.62 60.66 49.57 C 60.07 48.53 58.53 47.31 57.40 48.32 C 56.77 49.78 58.78 50.39 59.80 50.71 C 60.26 50.88 61.17 51.21 61.63 51.38 L 62.07 51.89 C 59.71 51.75 57.77 53.04 55.95 54.33 C 55.94 53.95 55.93 53.19 55.92 52.80 C 55.20 52.97 54.47 53.13 53.74 53.30 C 53.58 52.54 53.43 51.78 53.27 51.01 C 51.98 51.24 50.70 51.46 49.42 51.73 C 49.70 51.20 50.25 50.14 50.53 49.61 C 52.96 45.07 55.38 39.77 52.88 34.76 M 54.15 48.10 C 52.43 47.89 52.12 50.61 54.02 50.40 C 55.79 50.69 55.99 47.90 54.15 48.10 Z" />
<path fill="#85af5f" opacity="1.00" d=" M 108.87 34.76 C 111.40 33.32 113.91 31.85 116.37 30.30 C 116.80 31.16 117.21 32.02 117.60 32.90 L 117.84 33.86 C 117.02 33.21 116.19 32.57 115.37 31.93 C 115.76 34.14 116.15 36.37 116.22 38.62 C 114.70 38.15 113.16 37.75 111.61 37.39 C 112.30 37.76 113.67 38.51 114.36 38.88 C 113.28 40.05 112.19 41.21 111.11 42.37 C 112.79 41.93 114.47 41.48 116.16 41.03 C 116.36 41.19 116.74 41.49 116.94 41.64 C 115.27 42.03 114.56 44.61 116.39 45.31 C 117.11 45.79 117.84 46.26 118.57 46.72 C 117.93 47.67 117.30 48.62 116.66 49.57 C 116.07 48.53 114.53 47.31 113.40 48.32 C 112.77 49.78 114.77 50.39 115.80 50.71 C 116.25 50.88 117.16 51.21 117.62 51.38 L 118.05 51.89 C 115.70 51.75 113.77 53.04 111.95 54.33 C 111.94 53.95 111.93 53.19 111.92 52.80 C 111.19 52.97 110.47 53.13 109.74 53.30 C 109.58 52.54 109.42 51.78 109.27 51.02 C 107.98 51.24 106.70 51.46 105.42 51.73 C 105.70 51.20 106.25 50.14 106.53 49.61 C 108.95 45.07 111.39 39.77 108.87 34.76 M 110.15 48.10 C 108.43 47.89 108.12 50.61 110.02 50.40 C 111.79 50.69 111.99 47.90 110.15 48.10 Z" />
<path fill="#85af5f" opacity="1.00" d=" M 164.87 34.76 C 167.40 33.32 169.91 31.85 172.37 30.30 C 172.80 31.16 173.21 32.04 173.61 32.92 L 173.84 33.87 C 173.02 33.22 172.19 32.57 171.37 31.93 C 171.75 34.14 172.15 36.37 172.22 38.62 C 170.70 38.15 169.16 37.75 167.61 37.39 C 168.30 37.76 169.67 38.51 170.36 38.88 C 169.28 40.05 168.19 41.21 167.11 42.37 C 168.79 41.93 170.47 41.48 172.16 41.03 C 172.36 41.19 172.74 41.49 172.94 41.64 C 171.27 42.03 170.56 44.61 172.39 45.31 C 173.11 45.79 173.84 46.26 174.57 46.72 C 173.93 47.67 173.29 48.62 172.66 49.57 C 172.06 48.53 170.53 47.31 169.40 48.32 C 168.77 49.78 170.77 50.39 171.80 50.71 C 172.26 50.88 173.17 51.21 173.63 51.38 L 174.07 51.89 C 171.76 51.79 169.80 53.00 167.98 54.24 C 167.91 54.05 167.78 53.68 167.71 53.49 C 166.66 52.87 165.69 52.14 164.77 51.35 C 163.65 51.45 162.53 51.56 161.42 51.71 C 161.70 51.18 162.25 50.12 162.53 49.58 C 164.95 45.05 167.39 39.77 164.87 34.76 M 166.15 48.10 C 164.42 47.89 164.12 50.61 166.02 50.40 C 167.79 50.69 167.99 47.90 166.15 48.10 Z" />
</g>
<g id="#525b48ff">
<path fill="#525b48" opacity="1.00" d=" M 3.23 31.90 C 4.07 32.57 4.91 33.24 5.75 33.91 C 6.60 39.91 6.61 47.30 12.01 51.34 C 10.29 51.86 11.50 54.02 12.93 53.74 L 13.40 53.83 C 11.57 53.90 9.74 53.95 7.90 53.97 C 7.85 54.48 7.74 55.49 7.69 56.00 L 6.16 56.00 C 6.05 54.78 5.94 53.56 5.82 52.34 C 6.89 52.56 8.96 52.80 9.14 51.31 C 8.35 50.18 6.75 50.77 5.73 51.19 C 5.82 44.67 4.15 38.31 3.23 31.90 Z" />
</g>
<g id="#322f2cff">
<path fill="#322f2c" opacity="1.00" d=" M 5.62 32.83 C 8.11 32.79 10.59 32.80 13.08 32.89 C 13.10 33.53 13.16 34.82 13.18 35.46 C 13.19 35.83 13.22 36.55 13.23 36.92 C 12.83 37.11 12.03 37.48 11.63 37.67 C 9.48 36.69 8.77 39.72 11.25 39.43 L 11.31 40.38 C 11.39 41.57 11.48 42.76 11.55 43.95 C 11.56 45.12 11.76 46.28 12.11 47.39 C 12.26 48.00 12.57 49.22 12.72 49.83 C 12.71 50.36 12.67 51.41 12.65 51.93 L 12.01 51.34 C 6.61 47.30 6.60 39.91 5.75 33.91 L 5.62 32.83 M 7.05 35.01 C 7.02 35.79 6.97 37.35 6.94 38.13 C 8.73 37.13 10.52 36.13 12.30 35.13 C 10.55 35.08 8.80 35.05 7.05 35.01 Z" />
<path fill="#322f2c" opacity="1.00" d=" M 61.61 32.92 C 64.07 32.79 66.54 32.72 69.01 32.71 C 69.08 34.36 69.11 36.02 69.12 37.68 C 68.73 37.70 67.95 37.73 67.55 37.74 C 65.69 36.49 64.25 39.22 66.75 39.42 L 67.06 40.05 C 67.60 41.21 68.13 42.39 68.68 43.55 C 67.08 44.17 67.08 46.16 67.67 47.49 C 67.99 48.79 68.25 50.10 68.47 51.42 L 67.96 50.93 C 67.42 50.77 66.34 50.45 65.80 50.29 C 65.50 49.34 64.97 48.53 64.20 47.87 C 63.06 43.27 62.64 38.53 61.84 33.87 L 61.61 32.92 M 63.05 35.01 C 63.02 35.79 62.97 37.35 62.94 38.13 C 64.73 37.13 66.52 36.13 68.30 35.13 C 66.55 35.08 64.80 35.05 63.05 35.01 Z" />
<path fill="#322f2c" opacity="1.00" d=" M 117.60 32.90 C 119.99 32.81 122.39 32.77 124.79 32.80 C 124.53 34.64 124.17 36.47 123.72 38.28 C 122.36 36.16 120.76 38.95 122.85 39.76 C 123.73 43.59 124.07 47.53 124.42 51.44 L 123.93 50.94 C 123.39 50.78 122.32 50.45 121.78 50.28 C 121.49 49.33 120.97 48.52 120.19 47.86 C 119.06 43.26 118.63 38.52 117.84 33.86 L 117.60 32.90 M 119.05 35.01 C 119.02 35.79 118.97 37.35 118.94 38.13 C 120.73 37.13 122.52 36.13 124.30 35.13 C 122.55 35.08 120.80 35.05 119.05 35.01 Z" />
<path fill="#322f2c" opacity="1.00" d=" M 173.61 32.92 C 176.07 32.79 178.54 32.72 181.01 32.71 C 181.07 34.36 181.11 36.02 181.12 37.68 C 180.73 37.70 179.95 37.73 179.55 37.74 C 177.69 36.49 176.25 39.22 178.75 39.42 L 179.06 40.05 C 179.60 41.21 180.13 42.39 180.68 43.55 C 179.08 44.17 179.08 46.16 179.67 47.49 C 179.98 48.79 180.25 50.10 180.47 51.42 L 179.96 50.93 C 179.42 50.77 178.34 50.45 177.80 50.29 C 177.50 49.34 176.97 48.53 176.20 47.87 C 175.06 43.27 174.63 38.53 173.84 33.87 L 173.61 32.92 M 175.05 35.01 C 175.02 35.79 174.97 37.35 174.94 38.13 C 176.73 37.13 178.52 36.13 180.30 35.13 C 178.55 35.08 176.80 35.05 175.05 35.01 Z" />
</g>
<g id="#2f8bd3ff">
<path fill="#2f8bd3" opacity="1.00" d=" M 41.22 32.08 L 41.25 31.46 C 41.55 31.76 42.15 32.35 42.44 32.64 C 43.44 34.36 44.22 36.19 44.82 38.08 C 43.90 37.35 42.98 36.63 42.06 35.90 C 42.40 38.20 42.73 40.50 43.08 42.79 C 42.58 43.01 41.60 43.45 41.10 43.67 C 40.06 40.10 40.58 36.39 41.18 32.80 L 41.22 32.08 Z" />
</g>
<g id="#4b6148ff">
<path fill="#4b6148" opacity="1.00" d=" M 59.37 31.93 C 60.20 32.57 61.02 33.22 61.84 33.87 C 62.64 38.53 63.06 43.27 64.20 47.87 C 62.69 47.97 62.02 49.50 61.90 50.81 L 61.63 51.38 C 61.17 51.21 60.26 50.88 59.80 50.71 C 60.02 50.43 60.45 49.85 60.66 49.57 C 61.30 48.62 61.93 47.67 62.57 46.72 C 61.84 46.26 61.11 45.79 60.39 45.31 C 62.17 44.98 62.66 42.42 60.94 41.64 C 60.74 41.49 60.36 41.19 60.16 41.03 C 60.18 40.43 60.21 39.23 60.22 38.62 C 60.15 36.37 59.76 34.14 59.37 31.93 Z" />
<path fill="#4b6148" opacity="1.00" d=" M 115.37 31.93 C 116.19 32.57 117.02 33.21 117.84 33.86 C 118.63 38.52 119.06 43.26 120.19 47.86 C 118.68 47.95 118.01 49.49 117.88 50.80 L 117.62 51.38 C 117.16 51.21 116.25 50.88 115.80 50.71 C 116.02 50.43 116.45 49.85 116.66 49.57 C 117.30 48.62 117.93 47.67 118.57 46.72 C 117.84 46.26 117.11 45.79 116.39 45.31 C 118.17 44.98 118.66 42.42 116.94 41.64 C 116.74 41.49 116.36 41.19 116.16 41.03 C 116.18 40.43 116.21 39.23 116.22 38.62 C 116.15 36.37 115.76 34.14 115.37 31.93 Z" />
<path fill="#4b6148" opacity="1.00" d=" M 171.37 31.93 C 172.19 32.57 173.02 33.22 173.84 33.87 C 174.63 38.53 175.06 43.27 176.20 47.87 C 174.69 47.97 174.02 49.50 173.90 50.81 L 173.63 51.38 C 173.17 51.21 172.26 50.88 171.80 50.71 C 172.02 50.42 172.45 49.85 172.66 49.57 C 173.29 48.62 173.93 47.67 174.57 46.72 C 173.84 46.26 173.11 45.79 172.39 45.31 C 174.17 44.98 174.66 42.42 172.94 41.64 C 172.74 41.49 172.36 41.19 172.16 41.03 C 172.18 40.43 172.21 39.23 172.22 38.62 C 172.15 36.37 171.75 34.14 171.37 31.93 Z" />
</g>
<g id="#2c8ed7ff">
<path fill="#2c8ed7" opacity="1.00" d=" M 97.45 52.36 C 96.48 45.40 97.78 38.37 97.59 31.37 C 97.84 31.69 98.35 32.35 98.60 32.67 C 99.66 35.02 100.32 37.52 100.89 40.03 C 98.70 39.95 98.28 43.66 100.82 42.35 C 100.20 44.17 99.54 45.97 98.89 47.79 C 98.65 48.48 98.16 49.85 97.92 50.54 C 97.80 51.00 97.57 51.91 97.45 52.36 Z" />
<path fill="#2c8ed7" opacity="1.00" d=" M 209.45 52.36 C 208.48 45.40 209.78 38.37 209.59 31.37 C 209.84 31.69 210.35 32.35 210.60 32.67 C 211.66 35.02 212.32 37.52 212.89 40.03 C 210.70 39.95 210.28 43.66 212.82 42.35 C 212.20 44.17 211.54 45.97 210.89 47.79 C 210.65 48.48 210.16 49.85 209.92 50.54 C 209.80 51.00 209.57 51.91 209.45 52.36 Z" />
</g>
<g id="#288cd6ff">
<path fill="#288cd6" opacity="1.00" d=" M 154.06 56.00 C 151.89 48.01 153.74 39.72 153.81 31.60 C 154.02 31.89 154.44 32.48 154.65 32.77 C 155.65 35.07 156.29 37.50 156.82 39.95 C 155.13 40.28 154.58 42.96 156.63 43.17 C 156.09 44.68 155.56 46.19 155.05 47.71 C 154.76 48.57 154.48 49.43 154.20 50.29 C 153.20 51.53 154.92 53.08 155.90 51.64 C 155.76 53.10 155.58 54.55 155.40 56.00 L 154.06 56.00 Z" />
</g>
<g id="#268ed9ff">
<path fill="#268ed9" opacity="1.00" d=" M 13.82 34.12 C 14.92 34.42 15.96 34.89 17.00 35.34 L 16.56 35.76 C 15.46 36.18 14.35 36.57 13.23 36.92 C 13.22 36.55 13.19 35.83 13.18 35.46 C 13.34 35.13 13.66 34.45 13.82 34.12 Z" />
<path fill="#268ed9" opacity="1.00" d=" M 14.15 50.60 C 14.92 52.15 15.60 53.75 16.22 55.38 L 15.48 56.00 L 12.19 56.00 C 12.50 55.46 13.10 54.37 13.40 53.83 C 14.02 52.84 14.27 51.76 14.15 50.60 Z" />
<path fill="#268ed9" opacity="1.00" d=" M 42.00 52.87 C 42.59 52.56 43.77 51.94 44.36 51.63 C 43.93 53.10 43.45 54.56 42.91 56.00 L 40.47 56.00 C 40.99 54.96 41.50 53.92 42.00 52.87 Z" />
<path fill="#268ed9" opacity="1.00" d=" M 97.61 53.16 C 98.23 52.92 99.49 52.44 100.12 52.20 C 100.09 53.54 99.83 54.93 98.97 56.00 L 98.37 56.00 C 98.18 55.29 97.80 53.87 97.61 53.16 Z" />
<path fill="#268ed9" opacity="1.00" d=" M 209.61 53.16 C 210.23 52.92 211.49 52.44 212.12 52.20 C 212.09 53.54 211.83 54.92 210.97 56.00 L 210.37 56.00 C 210.18 55.29 209.80 53.87 209.61 53.16 Z" />
</g>
<g id="#7b9eb5ff">
<path fill="#7b9eb5" opacity="1.00" d=" M 13.23 36.92 C 14.35 36.57 15.46 36.18 16.56 35.76 C 15.72 36.55 14.88 37.33 14.02 38.09 C 13.13 38.86 12.22 39.62 11.31 40.38 L 11.25 39.43 C 11.35 38.99 11.53 38.11 11.63 37.67 C 12.03 37.48 12.83 37.11 13.23 36.92 Z" />
</g>
<g id="#a5bbd1ff">
<path fill="#a5bbd1" opacity="1.00" d=" M 42.06 35.90 C 42.98 36.63 43.90 37.35 44.82 38.08 C 44.85 39.39 44.82 40.70 44.73 42.00 C 44.32 42.20 43.49 42.60 43.08 42.79 C 42.73 40.50 42.40 38.20 42.06 35.90 Z" />
</g>
<g id="#699759ff">
<path fill="#699759" opacity="1.00" d=" M 55.61 37.39 C 57.16 37.75 58.70 38.15 60.22 38.62 C 60.21 39.23 60.18 40.43 60.16 41.03 C 58.48 41.48 56.79 41.93 55.11 42.37 C 56.19 41.21 57.28 40.05 58.36 38.88 C 57.67 38.51 56.30 37.76 55.61 37.39 Z" />
<path fill="#699759" opacity="1.00" d=" M 111.61 37.39 C 113.16 37.75 114.70 38.15 116.22 38.62 C 116.21 39.23 116.18 40.43 116.16 41.03 C 114.47 41.48 112.79 41.93 111.11 42.37 C 112.19 41.21 113.28 40.05 114.36 38.88 C 113.67 38.51 112.30 37.76 111.61 37.39 Z" />
<path fill="#699759" opacity="1.00" d=" M 167.61 37.39 C 169.16 37.75 170.70 38.15 172.22 38.62 C 172.21 39.23 172.18 40.43 172.16 41.03 C 170.47 41.48 168.79 41.93 167.11 42.37 C 168.19 41.21 169.28 40.05 170.36 38.88 C 169.67 38.51 168.30 37.76 167.61 37.39 Z" />
</g>
<g id="#3490d2ff">
<path fill="#3490d2" opacity="1.00" d=" M 11.31 40.38 C 12.22 39.62 13.13 38.86 14.02 38.09 C 14.13 39.70 14.35 42.91 14.45 44.52 C 13.73 44.37 12.28 44.09 11.55 43.95 C 11.48 42.76 11.39 41.57 11.31 40.38 Z" />
</g>
<g id="#8bb5d9ff">
<path fill="#8bb5d9" opacity="1.00" d=" M 100.89 40.03 C 100.87 40.61 100.84 41.77 100.82 42.35 C 98.28 43.66 98.70 39.95 100.89 40.03 Z" />
<path fill="#8bb5d9" opacity="1.00" d=" M 212.89 40.03 C 212.87 40.61 212.84 41.77 212.82 42.35 C 210.28 43.66 210.70 39.95 212.89 40.03 Z" />
</g>
<g id="#6e9bbbff">
<path fill="#6e9bbb" opacity="1.00" d=" M 156.82 39.95 C 157.17 41.05 157.11 42.12 156.63 43.17 C 154.58 42.96 155.13 40.28 156.82 39.95 Z" />
</g>
<g id="#2a8ed7ff">
<path fill="#2a8ed7" opacity="1.00" d=" M 43.08 42.79 C 43.49 42.60 44.32 42.20 44.73 42.00 C 44.24 43.96 43.59 45.88 42.94 47.80 C 42.71 48.48 42.24 49.84 42.01 50.53 C 41.91 50.95 41.70 51.78 41.60 52.20 C 40.81 50.85 40.03 49.50 39.25 48.14 C 39.89 46.66 40.52 45.17 41.10 43.67 C 41.60 43.45 42.58 43.01 43.08 42.79 Z" />
</g>
<g id="#68975bfe">
<path fill="#68975b" opacity="1.00" d=" M 60.39 45.31 C 58.56 44.61 59.27 42.03 60.94 41.64 C 62.66 42.42 62.17 44.98 60.39 45.31 Z" />
<path fill="#68975b" opacity="1.00" d=" M 116.39 45.31 C 114.56 44.61 115.27 42.03 116.94 41.64 C 118.66 42.42 118.17 44.98 116.39 45.31 Z" />
<path fill="#68975b" opacity="1.00" d=" M 172.39 45.31 C 170.56 44.61 171.27 42.03 172.94 41.64 C 174.66 42.42 174.17 44.98 172.39 45.31 Z" />
</g>
<g id="#86a0b0fe">
<path fill="#86a0b0" opacity="1.00" d=" M 11.55 43.95 C 12.28 44.09 13.73 44.37 14.45 44.52 L 15.11 44.83 C 14.23 45.82 13.27 46.75 12.11 47.39 C 11.76 46.28 11.56 45.12 11.55 43.95 Z" />
</g>
<g id="#427ccbff">
<path fill="#427ccb" opacity="1.00" d=" M 34.82 44.63 C 35.53 45.61 36.23 46.60 36.91 47.60 C 34.12 48.48 31.40 49.54 28.68 50.61 C 28.52 50.04 28.37 49.47 28.22 48.90 C 30.53 47.65 32.76 46.27 34.82 44.63 Z" />
</g>
<g id="#288ad6ff">
<path fill="#288ad6" opacity="1.00" d=" M 15.11 44.83 C 15.52 44.99 16.35 45.32 16.77 45.49 C 15.56 46.78 14.36 48.07 13.17 49.37 L 12.72 49.83 C 12.57 49.22 12.26 48.00 12.11 47.39 C 13.27 46.75 14.23 45.82 15.11 44.83 Z" />
</g>
<g id="#427acaff">
<path fill="#427aca" opacity="1.00" d=" M 130.86 47.59 C 131.81 46.75 132.77 45.92 133.73 45.09 C 135.43 47.37 137.75 49.04 140.25 50.36 C 135.99 50.19 132.05 51.49 128.57 53.81 C 130.33 51.93 132.13 50.07 133.94 48.22 C 133.17 48.07 131.63 47.75 130.86 47.59 Z" />
</g>
<g id="#6c9855ff">
<path fill="#6c9855" opacity="1.00" d=" M 57.40 48.32 C 58.53 47.31 60.07 48.53 60.66 49.57 C 60.45 49.85 60.02 50.43 59.80 50.71 C 58.78 50.39 56.77 49.78 57.40 48.32 Z" />
<path fill="#6c9855" opacity="1.00" d=" M 113.40 48.32 C 114.53 47.31 116.07 48.53 116.66 49.57 C 116.45 49.85 116.02 50.43 115.80 50.71 C 114.77 50.39 112.77 49.78 113.40 48.32 Z" />
<path fill="#6c9855" opacity="1.00" d=" M 169.40 48.32 C 170.53 47.31 172.06 48.53 172.66 49.57 C 172.45 49.85 172.02 50.42 171.80 50.71 C 170.77 50.39 168.77 49.78 169.40 48.32 Z" />
</g>
<g id="#33302bff">
<path fill="#33302b" opacity="1.00" d=" M 46.29 51.21 C 47.72 50.73 49.12 50.16 50.53 49.61 C 50.25 50.14 49.70 51.20 49.42 51.73 C 49.26 51.99 48.93 52.51 48.77 52.77 C 47.92 53.74 48.21 55.28 49.25 56.00 L 42.91 56.00 C 43.45 54.56 43.93 53.10 44.36 51.63 L 44.54 50.90 C 44.98 50.98 45.85 51.13 46.29 51.21 Z" />
<path fill="#33302b" opacity="1.00" d=" M 102.28 51.17 C 103.72 50.72 105.12 50.15 106.53 49.61 C 106.25 50.14 105.70 51.20 105.42 51.73 C 105.26 51.99 104.93 52.51 104.77 52.77 C 103.91 53.74 104.21 55.28 105.24 56.00 L 98.97 56.00 C 99.83 54.93 100.09 53.54 100.12 52.20 L 100.18 51.40 C 100.70 51.34 101.76 51.23 102.28 51.17 Z" />
<path fill="#33302b" opacity="1.00" d=" M 158.29 51.29 C 159.72 50.78 161.12 50.17 162.53 49.58 C 162.25 50.12 161.70 51.18 161.42 51.71 C 161.26 51.97 160.92 52.50 160.76 52.76 C 159.91 53.74 160.21 55.28 161.25 56.00 L 155.40 56.00 C 155.58 54.55 155.76 53.10 155.90 51.64 L 155.95 50.80 C 156.54 50.92 157.70 51.17 158.29 51.29 Z" />
<path fill="#33302b" opacity="1.00" d=" M 214.29 51.20 C 215.69 50.70 217.05 50.12 218.43 49.55 C 218.17 50.09 217.66 51.17 217.41 51.71 C 217.29 51.94 217.06 52.40 216.94 52.63 C 216.22 53.64 216.05 55.16 217.15 56.00 L 210.97 56.00 C 211.83 54.92 212.09 53.54 212.12 52.20 L 212.18 51.39 C 212.70 51.34 213.76 51.25 214.29 51.20 Z" />
</g>
<g id="#709d5aff">
<path fill="#709d5a" opacity="1.00" d=" M 49.42 51.73 C 50.70 51.46 51.98 51.24 53.27 51.01 C 53.43 51.78 53.58 52.54 53.74 53.30 C 54.47 53.13 55.20 52.97 55.92 52.80 C 55.93 53.19 55.94 53.95 55.95 54.33 C 57.77 53.04 59.71 51.75 62.07 51.89 L 62.86 52.31 C 62.66 53.05 62.26 54.54 62.06 55.29 L 62.25 56.00 L 51.69 56.00 C 50.84 54.82 49.95 53.64 48.77 52.77 C 48.93 52.51 49.26 51.99 49.42 51.73 Z" />
<path fill="#709d5a" opacity="1.00" d=" M 105.42 51.73 C 106.70 51.46 107.98 51.24 109.27 51.02 C 109.42 51.78 109.58 52.54 109.74 53.30 C 110.47 53.13 111.19 52.97 111.92 52.80 C 111.93 53.19 111.94 53.95 111.95 54.33 C 113.77 53.04 115.70 51.75 118.05 51.89 L 118.83 52.31 C 118.63 53.05 118.24 54.54 118.05 55.29 L 118.24 56.00 L 107.69 56.00 C 106.83 54.82 105.94 53.64 104.77 52.77 C 104.93 52.51 105.26 51.99 105.42 51.73 Z" />
<path fill="#709d5a" opacity="1.00" d=" M 161.42 51.71 C 162.53 51.56 163.65 51.45 164.77 51.35 C 165.69 52.14 166.66 52.87 167.71 53.49 C 167.78 53.68 167.91 54.05 167.98 54.24 C 169.80 53.00 171.76 51.79 174.07 51.89 L 174.86 52.31 C 174.66 53.05 174.26 54.54 174.06 55.29 L 174.25 56.00 L 163.69 56.00 C 162.83 54.82 161.94 53.64 160.76 52.76 C 160.92 52.50 161.26 51.97 161.42 51.71 Z" />
</g>
<g id="#719d5aff">
<path fill="#719d5a" opacity="1.00" d=" M 217.41 51.71 C 218.65 51.46 219.92 51.24 221.18 51.03 C 221.52 52.02 221.88 53.01 222.24 54.00 C 222.84 53.16 223.43 52.32 224.00 51.45 L 224.00 56.00 L 219.69 56.00 C 218.83 54.83 217.92 53.70 216.94 52.63 C 217.06 52.40 217.29 51.94 217.41 51.71 Z" />
</g>
<g id="#3b6bbefe">
<path fill="#3b6bbe" opacity="1.00" d=" M 65.09 53.73 C 65.50 53.48 66.31 52.97 66.72 52.71 C 67.20 52.78 68.15 52.91 68.63 52.97 L 68.76 53.74 C 68.41 56.15 65.63 55.79 65.09 53.73 Z" />
<path fill="#3b6bbe" opacity="1.00" d=" M 121.05 53.75 C 121.45 53.50 122.24 52.99 122.64 52.74 C 123.10 52.81 124.02 52.95 124.49 53.02 L 124.73 53.80 C 124.43 56.25 121.61 55.74 121.05 53.75 Z" />
<path fill="#3b6bbe" opacity="1.00" d=" M 177.09 53.73 C 177.50 53.48 178.31 52.97 178.72 52.71 C 179.20 52.78 180.15 52.91 180.63 52.97 L 180.76 53.74 C 180.41 56.15 177.63 55.79 177.09 53.73 Z" />
</g>
</svg>
