<?xml version="1.0" encoding="UTF-8" ?>
<!DOCTYPE svg PUBLIC "-//W3C//DTD SVG 1.1//EN" "http://www.w3.org/Graphics/SVG/1.1/DTD/svg11.dtd">
<svg width="224pt" height="56pt" viewBox="0 0 224 56" version="1.1" xmlns="http://www.w3.org/2000/svg">
<g id="#91bc69ff">
<path fill="#91bc69" opacity="1.00" d=" M 0.00 0.00 L 0.80 0.00 C 1.73 1.21 1.46 2.12 0.00 2.72 L 0.00 0.00 Z" />
</g>
<g id="#6c9959ff">
<path fill="#6c9959" opacity="1.00" d=" M 0.80 0.00 L 6.85 0.00 C 5.94 7.16 7.14 14.45 5.52 21.56 C 3.87 18.02 1.60 14.36 2.26 10.30 C 2.61 7.97 2.48 5.62 1.96 3.32 C 1.47 4.08 0.49 5.60 0.00 6.36 L 0.00 2.72 C 1.46 2.12 1.73 1.21 0.80 0.00 M 3.40 3.15 C 2.97 4.55 3.45 5.03 4.85 4.60 C 5.29 3.20 4.80 2.71 3.40 3.15 Z" />
</g>
<g id="#475943ff">
<path fill="#475943" opacity="1.00" d=" M 6.85 0.00 L 7.81 0.00 C 7.84 6.78 8.87 13.48 9.49 20.21 C 9.57 21.20 9.65 22.19 9.72 23.18 C 8.28 22.74 6.90 22.13 5.52 21.56 C 7.14 14.45 5.94 7.16 6.85 0.00 Z" />
<path fill="#475943" opacity="1.00" d=" M 62.85 0.00 L 63.79 0.00 C 63.84 6.77 64.86 13.47 65.50 20.20 C 65.58 21.20 65.66 22.20 65.73 23.19 C 64.27 22.74 62.87 22.14 61.45 21.57 C 63.19 14.46 61.92 7.16 62.85 0.00 Z" />
<path fill="#475943" opacity="1.00" d=" M 118.86 0.00 L 119.82 0.00 C 119.80 6.78 120.90 13.48 121.51 20.21 C 121.59 21.23 121.67 22.25 121.73 23.26 C 120.29 22.78 118.91 22.15 117.52 21.55 C 119.15 14.44 117.93 7.16 118.86 0.00 Z" />
<path fill="#475943" opacity="1.00" d=" M 174.85 0.00 L 175.79 0.00 C 175.84 6.77 176.86 13.47 177.50 20.20 C 177.58 21.20 177.66 22.20 177.73 23.20 C 176.29 22.74 174.91 22.14 173.52 21.56 C 175.14 14.45 173.94 7.16 174.85 0.00 Z" />
</g>
<g id="#322e2aff">
<path fill="#322e2a" opacity="1.00" d=" M 7.81 0.00 L 10.08 0.00 C 9.57 1.43 9.12 2.89 8.68 4.35 C 9.83 4.36 10.99 4.38 12.14 4.41 C 12.49 4.43 13.17 4.47 13.52 4.48 C 12.58 6.28 11.75 8.14 11.21 10.09 C 11.16 11.39 11.16 12.70 11.22 14.00 C 11.72 15.97 12.40 17.88 13.11 19.78 C 12.20 19.89 10.39 20.11 9.49 20.21 C 8.87 13.48 7.84 6.78 7.81 0.00 Z" />
<path fill="#322e2a" opacity="1.00" d=" M 63.79 0.00 L 65.64 0.00 C 65.41 1.44 65.18 2.88 64.97 4.33 C 66.00 4.40 67.03 4.48 68.06 4.57 C 68.40 4.60 69.07 4.67 69.41 4.70 C 68.35 7.04 67.68 9.52 67.12 12.02 C 67.14 12.60 67.16 13.76 67.18 14.34 C 67.78 16.18 68.43 17.99 69.08 19.81 C 68.18 19.91 66.39 20.11 65.50 20.20 C 64.86 13.47 63.84 6.77 63.79 0.00 Z" />
<path fill="#322e2a" opacity="1.00" d=" M 119.82 0.00 L 121.87 0.00 C 121.55 1.44 121.24 2.88 120.93 4.32 C 121.90 4.45 122.87 4.59 123.84 4.73 C 124.20 4.79 124.92 4.89 125.28 4.94 C 124.31 7.19 123.71 9.56 123.19 11.94 C 122.83 13.04 122.89 14.12 123.37 15.17 C 123.92 16.68 124.44 18.19 124.95 19.70 C 124.09 19.83 122.37 20.09 121.51 20.21 C 120.90 13.48 119.80 6.78 119.82 0.00 Z" />
<path fill="#322e2a" opacity="1.00" d=" M 175.79 0.00 L 177.64 0.00 C 177.41 1.44 177.18 2.88 176.97 4.33 C 178.00 4.40 179.03 4.48 180.06 4.57 C 180.40 4.60 181.07 4.67 181.41 4.70 C 180.35 7.04 179.68 9.52 179.12 12.02 C 179.14 12.60 179.16 13.76 179.18 14.34 C 179.78 16.18 180.43 17.99 181.08 19.81 C 180.18 19.91 178.39 20.11 177.50 20.20 C 176.86 13.47 175.84 6.77 175.79 0.00 Z" />
</g>
<g id="#565249ff">
<path fill="#565249" opacity="1.00" d=" M 10.08 0.00 L 13.27 0.00 L 12.93 0.81 C 12.35 1.94 12.09 3.14 12.14 4.41 C 10.99 4.38 9.83 4.36 8.68 4.35 C 9.12 2.89 9.57 1.43 10.08 0.00 Z" />
<path fill="#565249" opacity="1.00" d=" M 48.91 19.38 C 48.54 16.19 50.39 13.79 52.19 11.56 C 51.37 14.27 50.18 16.85 48.91 19.38 Z" />
<path fill="#565249" opacity="1.00" d=" M 104.91 19.38 C 104.53 16.19 106.39 13.79 108.19 11.56 C 107.37 14.27 106.18 16.85 104.91 19.38 Z" />
<path fill="#565249" opacity="1.00" d=" M 160.91 19.38 C 160.53 16.19 162.40 13.79 164.19 11.56 C 163.37 14.27 162.18 16.85 160.91 19.38 Z" />
<path fill="#565249" opacity="1.00" d=" M 216.91 19.38 C 216.52 16.19 218.40 13.79 220.19 11.56 C 219.37 14.27 218.18 16.85 216.91 19.38 Z" />
<path fill="#565249" opacity="1.00" d=" M 51.25 20.98 C 50.50 19.16 52.04 16.17 53.69 18.70 C 53.46 19.19 53.01 20.18 52.79 20.68 C 52.40 20.75 51.63 20.90 51.25 20.98 Z" />
<path fill="#565249" opacity="1.00" d=" M 107.00 19.73 C 106.72 17.50 109.93 16.49 109.11 19.38 L 108.45 19.91 C 108.08 19.86 107.36 19.78 107.00 19.73 Z" />
<path fill="#565249" opacity="1.00" d=" M 219.02 19.78 C 218.70 17.53 221.92 16.47 221.11 19.39 L 220.45 19.92 C 220.09 19.89 219.37 19.81 219.02 19.78 Z" />
<path fill="#565249" opacity="1.00" d=" M 7.06 35.02 C 8.81 35.05 10.55 35.09 12.30 35.12 C 10.51 36.12 8.73 37.13 6.93 38.12 C 6.96 37.35 7.03 35.80 7.06 35.02 Z" />
<path fill="#565249" opacity="1.00" d=" M 63.06 35.02 C 64.81 35.05 66.55 35.09 68.30 35.12 C 66.51 36.12 64.73 37.13 62.93 38.12 C 62.96 37.35 63.03 35.80 63.06 35.02 Z" />
<path fill="#565249" opacity="1.00" d=" M 119.06 35.02 C 120.80 35.05 122.55 35.09 124.30 35.12 C 122.51 36.12 120.73 37.13 118.93 38.12 C 118.96 37.35 119.03 35.80 119.06 35.02 Z" />
<path fill="#565249" opacity="1.00" d=" M 175.06 35.02 C 176.80 35.05 178.55 35.09 180.30 35.12 C 178.51 36.12 176.73 37.13 174.93 38.12 C 174.96 37.35 175.03 35.80 175.06 35.02 Z" />
<path fill="#565249" opacity="1.00" d=" M 11.04 39.76 C 8.70 39.22 10.20 36.08 11.74 38.23 C 11.57 38.62 11.22 39.38 11.04 39.76 Z" />
<path fill="#565249" opacity="1.00" d=" M 66.75 39.43 C 64.26 39.24 65.68 36.53 67.55 37.74 C 67.35 38.16 66.95 39.01 66.75 39.43 Z" />
<path fill="#565249" opacity="1.00" d=" M 123.17 39.76 C 120.86 39.41 121.95 36.08 123.67 38.14 C 123.55 38.54 123.30 39.35 123.17 39.76 Z" />
<path fill="#565249" opacity="1.00" d=" M 178.75 39.43 C 176.26 39.24 177.68 36.53 179.55 37.74 C 179.35 38.16 178.95 39.01 178.75 39.43 Z" />
</g>
<g id="#268ed9ff">
<path fill="#268ed9" opacity="1.00" d=" M 13.27 0.00 L 15.73 0.00 C 15.73 1.03 15.14 1.90 14.68 2.77 C 14.24 2.28 13.37 1.30 12.93 0.81 L 13.27 0.00 Z" />
<path fill="#268ed9" opacity="1.00" d=" M 97.80 0.00 L 98.87 0.00 C 98.96 0.49 99.15 1.48 99.25 1.97 C 99.00 3.23 98.78 4.49 98.59 5.76 C 97.13 9.79 98.69 13.63 100.20 17.28 C 99.37 15.85 98.11 14.59 96.40 14.39 C 96.11 11.22 95.94 8.04 95.75 4.87 C 97.76 5.11 97.75 2.59 96.87 1.42 C 97.10 1.06 97.57 0.35 97.80 0.00 Z" />
<path fill="#268ed9" opacity="1.00" d=" M 124.03 0.00 L 125.62 0.00 C 126.82 0.64 126.71 2.06 126.48 3.18 C 126.09 3.06 125.32 2.83 124.93 2.71 C 124.70 2.03 124.25 0.68 124.03 0.00 Z" />
<path fill="#268ed9" opacity="1.00" d=" M 209.80 0.00 L 210.87 0.00 C 210.96 0.49 211.15 1.48 211.25 1.97 C 211.00 3.23 210.78 4.49 210.59 5.76 C 209.13 9.79 210.68 13.64 212.20 17.28 C 211.37 15.85 210.11 14.59 208.40 14.39 C 208.10 11.22 207.94 8.04 207.75 4.87 C 209.76 5.11 209.75 2.59 208.87 1.42 C 209.10 1.07 209.57 0.36 209.80 0.00 Z" />
<path fill="#268ed9" opacity="1.00" d=" M 11.82 23.68 C 12.48 23.93 13.81 24.43 14.47 24.68 C 15.04 27.20 15.57 29.90 14.44 32.36 C 13.88 30.84 13.30 29.31 12.77 27.78 C 12.44 26.41 12.12 25.05 11.82 23.68 Z" />
<path fill="#268ed9" opacity="1.00" d=" M 14.15 50.60 C 14.93 52.16 15.62 53.75 16.24 55.38 L 15.50 56.00 L 12.20 56.00 C 12.50 55.45 13.11 54.35 13.41 53.80 C 14.02 52.82 14.27 51.75 14.15 50.60 Z" />
</g>
<g id="#3c6cbfff">
<path fill="#3c6cbf" opacity="1.00" d=" M 15.73 0.00 L 25.65 0.00 C 26.63 1.14 27.55 2.33 28.47 3.51 C 24.57 4.19 20.61 4.19 16.66 4.34 C 19.64 5.23 22.86 7.71 26.01 6.06 C 29.89 4.50 33.81 3.03 37.73 1.54 C 35.90 1.16 32.24 0.39 30.41 0.00 L 39.31 0.00 L 40.15 0.78 C 40.05 1.46 39.86 2.82 39.76 3.49 C 39.33 7.49 38.91 11.48 38.51 15.47 C 39.25 15.10 39.99 14.74 40.75 14.39 C 40.86 14.34 41.10 14.24 41.22 14.19 C 41.16 14.54 41.03 15.23 40.97 15.57 C 40.80 16.51 40.46 18.37 40.29 19.31 C 38.40 18.72 36.51 18.13 34.63 17.50 C 30.67 19.22 26.27 19.44 22.00 19.39 C 23.61 20.32 25.21 21.28 26.82 22.22 C 26.89 22.94 27.05 24.37 27.13 25.08 C 24.20 26.16 21.27 27.23 18.32 28.26 C 18.26 30.76 17.82 33.23 16.99 35.59 C 16.03 34.76 15.07 33.93 14.11 33.10 L 14.44 32.36 C 15.57 29.90 15.04 27.20 14.47 24.68 L 14.77 24.05 C 15.38 22.72 15.99 21.39 16.59 20.06 C 16.02 18.58 15.42 17.11 14.89 15.62 C 16.12 11.61 15.50 7.41 14.72 3.38 L 14.68 2.77 C 15.14 1.90 15.73 1.03 15.73 0.00 Z" />
</g>
<g id="#417accff">
<path fill="#417acc" opacity="1.00" d=" M 25.65 0.00 L 30.41 0.00 C 32.24 0.39 35.90 1.16 37.73 1.54 C 33.81 3.03 29.89 4.50 26.01 6.06 C 22.86 7.71 19.64 5.23 16.66 4.34 C 20.61 4.19 24.57 4.19 28.47 3.51 C 27.55 2.33 26.63 1.14 25.65 0.00 Z" />
</g>
<g id="#268dd8ff">
<path fill="#268dd8" opacity="1.00" d=" M 39.31 0.00 L 42.83 0.00 C 42.93 0.49 43.12 1.48 43.22 1.98 C 42.98 3.24 42.78 4.50 42.61 5.77 C 41.61 10.12 42.88 14.35 43.91 18.52 C 43.53 17.04 43.36 13.78 41.22 14.19 C 41.10 14.24 40.86 14.34 40.75 14.39 C 39.99 14.74 39.25 15.10 38.51 15.47 C 38.91 11.48 39.33 7.49 39.76 3.49 C 42.10 6.11 42.53 1.41 40.15 0.78 L 39.31 0.00 Z" />
<path fill="#268dd8" opacity="1.00" d=" M 153.85 0.00 L 154.92 0.00 C 155.03 0.50 155.26 1.49 155.38 1.99 C 155.08 3.23 154.80 4.48 154.54 5.73 C 154.29 6.97 153.79 9.46 153.54 10.70 C 154.15 12.33 154.89 13.90 155.68 15.45 C 155.34 15.00 154.65 14.09 154.30 13.64 C 154.78 15.90 155.28 18.15 155.53 20.45 C 155.55 21.23 155.60 22.81 155.62 23.59 C 151.17 16.50 150.54 7.65 153.85 0.00 Z" />
</g>
<g id="#342f2bff">
<path fill="#342f2b" opacity="1.00" d=" M 42.83 0.00 L 45.03 0.00 C 45.55 0.42 46.58 1.25 47.09 1.67 C 46.69 3.50 46.32 5.34 45.96 7.18 C 48.66 7.85 51.41 8.43 54.21 8.24 C 54.52 7.95 54.82 7.66 55.11 7.35 L 55.66 6.78 C 55.72 11.48 55.73 16.17 55.81 20.87 C 55.58 20.63 55.12 20.15 54.89 19.90 C 54.59 19.60 53.99 19.00 53.69 18.70 C 52.04 16.17 50.50 19.16 51.25 20.98 C 50.96 21.61 50.40 22.87 50.12 23.50 C 49.56 23.08 48.46 22.24 47.90 21.82 C 48.34 17.70 48.88 13.60 49.58 9.52 C 48.96 9.36 47.72 9.05 47.09 8.89 C 46.52 12.58 45.98 16.28 45.44 19.98 C 45.08 19.72 44.36 19.18 44.00 18.91 L 43.91 18.52 C 42.88 14.35 41.61 10.12 42.61 5.77 C 42.82 8.22 43.52 10.59 44.10 12.97 C 44.69 9.24 45.05 5.44 43.22 1.98 C 43.12 1.48 42.93 0.49 42.83 0.00 M 48.91 19.38 C 50.18 16.85 51.37 14.27 52.19 11.56 C 50.39 13.79 48.54 16.19 48.91 19.38 Z" />
<path fill="#342f2b" opacity="1.00" d=" M 98.87 0.00 L 101.02 0.00 C 101.54 0.42 102.58 1.25 103.10 1.66 C 102.69 3.50 102.32 5.34 101.96 7.18 C 104.66 7.85 107.42 8.43 110.22 8.23 C 110.52 7.95 110.82 7.66 111.11 7.36 L 111.66 6.78 C 111.76 10.85 111.85 14.92 111.92 18.99 C 111.40 19.06 110.38 19.20 109.86 19.28 L 109.11 19.38 C 109.93 16.49 106.72 17.50 107.00 19.73 C 106.81 20.31 106.43 21.48 106.25 22.06 C 105.53 21.70 104.10 21.00 103.39 20.64 C 104.20 16.94 105.00 13.23 105.79 9.52 C 105.10 9.36 103.72 9.06 103.02 8.90 C 102.45 12.71 101.74 16.51 101.35 20.34 C 101.03 19.46 100.69 18.59 100.36 17.71 L 100.20 17.28 C 98.69 13.63 97.13 9.79 98.59 5.76 C 98.81 8.21 99.53 10.59 100.10 12.97 C 100.68 9.23 101.04 5.45 99.25 1.97 C 99.15 1.48 98.96 0.49 98.87 0.00 M 104.91 19.38 C 106.18 16.85 107.37 14.27 108.19 11.56 C 106.39 13.79 104.53 16.19 104.91 19.38 Z" />
<path fill="#342f2b" opacity="1.00" d=" M 154.92 0.00 L 157.02 0.00 C 157.54 0.42 158.58 1.25 159.10 1.66 C 158.69 3.50 158.31 5.34 157.96 7.18 C 160.65 7.85 163.41 8.43 166.21 8.24 C 166.52 7.95 166.83 7.66 167.12 7.35 L 167.67 6.77 C 167.69 10.58 167.70 14.38 167.76 18.19 C 167.40 18.21 166.69 18.24 166.34 18.26 C 164.35 18.32 162.65 19.69 161.87 21.47 C 161.37 21.08 160.36 20.30 159.86 19.91 C 160.40 16.40 161.13 12.93 161.77 9.45 C 161.19 9.37 160.02 9.21 159.44 9.13 C 158.53 11.67 157.62 14.21 156.65 16.72 C 156.41 16.40 155.93 15.77 155.68 15.45 C 154.89 13.90 154.15 12.33 153.54 10.70 C 153.79 9.46 154.29 6.97 154.54 5.73 C 154.80 8.19 155.52 10.57 156.12 12.97 C 156.64 9.25 156.98 5.50 155.38 1.99 C 155.26 1.49 155.03 0.50 154.92 0.00 M 160.91 19.38 C 162.18 16.85 163.37 14.27 164.19 11.56 C 162.40 13.79 160.53 16.19 160.91 19.38 Z" />
</g>
<g id="#85ae5cff">
<path fill="#85ae5c" opacity="1.00" d=" M 45.03 0.00 L 57.32 0.00 C 56.46 2.41 55.74 4.87 55.11 7.35 C 54.82 7.66 54.52 7.95 54.21 8.24 C 52.68 5.23 50.03 3.18 47.09 1.67 C 46.58 1.25 45.55 0.42 45.03 0.00 M 51.52 1.49 C 51.03 3.44 55.03 3.82 54.78 1.76 C 54.24 0.62 52.24 0.41 51.52 1.49 Z" />
<path fill="#85ae5c" opacity="1.00" d=" M 101.02 0.00 L 113.33 0.00 C 112.45 2.41 111.74 4.88 111.11 7.36 C 110.82 7.66 110.52 7.95 110.22 8.23 C 108.67 5.24 106.03 3.18 103.10 1.66 C 102.58 1.25 101.54 0.42 101.02 0.00 M 107.52 1.49 C 107.03 3.44 111.03 3.82 110.78 1.76 C 110.24 0.62 108.24 0.41 107.52 1.49 Z" />
<path fill="#85ae5c" opacity="1.00" d=" M 157.02 0.00 L 169.32 0.00 C 168.46 2.41 167.75 4.87 167.12 7.35 C 166.83 7.66 166.52 7.95 166.21 8.24 C 164.68 5.24 162.03 3.18 159.10 1.66 C 158.58 1.25 157.54 0.42 157.02 0.00 M 163.52 1.49 C 163.03 3.44 167.03 3.82 166.78 1.76 C 166.24 0.62 164.24 0.41 163.52 1.49 Z" />
</g>
<g id="#6c995aff">
<path fill="#6c995a" opacity="1.00" d=" M 57.32 0.00 L 62.85 0.00 C 61.92 7.16 63.19 14.46 61.45 21.57 C 57.36 16.25 58.44 9.96 58.35 3.87 C 57.45 4.84 56.56 5.81 55.66 6.78 L 55.11 7.35 C 55.74 4.87 56.46 2.41 57.32 0.00 M 59.40 3.15 C 58.97 4.55 59.45 5.03 60.85 4.60 C 61.29 3.20 60.80 2.71 59.40 3.15 Z" />
<path fill="#6c995a" opacity="1.00" d=" M 113.33 0.00 L 118.86 0.00 C 117.93 7.16 119.15 14.44 117.52 21.55 C 113.32 16.27 114.45 9.96 114.35 3.87 C 113.45 4.84 112.56 5.81 111.66 6.78 L 111.11 7.36 C 111.74 4.88 112.45 2.41 113.33 0.00 M 115.40 3.15 C 114.97 4.55 115.45 5.03 116.85 4.60 C 117.29 3.20 116.80 2.71 115.40 3.15 Z" />
<path fill="#6c995a" opacity="1.00" d=" M 169.32 0.00 L 174.85 0.00 C 173.94 7.16 175.14 14.45 173.52 21.56 C 169.32 16.29 170.44 9.97 170.35 3.88 C 169.46 4.85 168.56 5.81 167.67 6.77 L 167.12 7.35 C 167.75 4.87 168.46 2.41 169.32 0.00 M 171.40 3.15 C 170.97 4.55 171.45 5.03 172.85 4.60 C 173.29 3.20 172.80 2.71 171.40 3.15 Z" />
</g>
<g id="#565248fe">
<path fill="#565248" opacity="1.00" d=" M 65.64 0.00 L 67.36 0.00 C 67.77 0.25 68.60 0.74 69.01 0.99 C 68.26 2.07 67.95 3.27 68.06 4.57 C 67.03 4.48 66.00 4.40 64.97 4.33 C 65.18 2.88 65.41 1.44 65.64 0.00 Z" />
<path fill="#565248" opacity="1.00" d=" M 121.87 0.00 L 124.03 0.00 C 124.25 0.68 124.70 2.03 124.93 2.71 C 124.66 3.21 124.12 4.23 123.84 4.73 C 122.87 4.59 121.90 4.45 120.93 4.32 C 121.24 2.88 121.55 1.44 121.87 0.00 Z" />
<path fill="#565248" opacity="1.00" d=" M 177.64 0.00 L 179.36 0.00 C 179.77 0.25 180.60 0.74 181.01 0.99 C 180.26 2.07 179.94 3.27 180.06 4.57 C 179.03 4.48 178.00 4.40 176.97 4.33 C 177.18 2.88 177.41 1.44 177.64 0.00 Z" />
</g>
<g id="#3c6bbeff">
<path fill="#3c6bbe" opacity="1.00" d=" M 67.36 0.00 L 85.41 0.00 C 81.98 3.52 77.21 3.56 72.68 3.25 C 75.19 4.06 77.70 5.97 80.39 5.73 C 85.01 2.40 90.50 0.84 96.08 0.00 L 97.80 0.00 C 97.57 0.35 97.10 1.06 96.87 1.42 C 95.99 2.42 95.61 3.57 95.75 4.87 C 95.94 8.04 96.11 11.22 96.40 14.39 C 96.45 14.74 96.55 15.44 96.61 15.78 C 97.21 18.68 97.73 21.61 98.66 24.43 C 100.50 26.52 102.83 28.09 105.05 29.75 C 104.41 31.47 103.72 33.16 102.98 34.83 C 100.99 33.95 98.99 33.09 97.01 32.19 C 96.76 33.08 96.51 33.98 96.26 34.88 C 100.89 37.00 105.85 38.19 110.80 39.30 C 108.55 37.36 106.58 35.10 105.13 32.49 C 107.38 31.15 109.67 29.87 111.95 28.59 C 111.96 34.06 112.04 39.53 112.00 45.01 C 109.33 44.99 106.66 44.98 103.99 44.97 C 103.72 42.89 103.44 40.81 103.13 38.74 C 102.36 40.59 101.55 42.42 100.75 44.26 C 96.04 43.57 91.24 43.18 86.55 44.23 C 90.84 45.33 95.12 46.51 99.50 47.17 C 103.69 47.22 107.83 46.26 112.00 45.93 C 111.98 47.52 111.96 49.11 111.94 50.71 C 108.96 51.19 106.01 51.83 103.00 52.18 C 102.68 52.06 102.04 51.84 101.72 51.73 C 100.26 53.13 98.82 54.56 97.39 56.00 L 93.25 56.00 C 88.36 54.06 83.82 51.39 79.25 48.81 C 83.92 43.57 86.74 35.76 94.47 34.18 C 93.05 31.40 91.57 28.63 89.53 26.24 C 90.01 28.29 90.53 30.33 91.06 32.36 C 85.72 35.68 79.24 34.59 73.80 31.98 C 75.90 26.56 81.55 25.96 86.71 26.40 C 86.17 25.05 85.65 23.70 85.12 22.34 C 87.07 20.62 89.01 18.89 91.00 17.21 C 86.69 18.12 82.27 17.97 77.99 16.97 C 80.97 18.42 83.55 20.53 84.94 23.60 C 81.01 24.94 77.05 26.17 73.08 27.36 C 73.31 29.68 73.25 32.04 73.86 34.30 C 76.13 36.54 79.70 36.75 82.37 38.19 C 81.11 42.28 78.72 45.89 75.37 48.56 C 75.94 48.79 77.07 49.26 77.64 49.49 C 75.53 51.67 73.47 53.90 71.28 56.00 L 70.65 56.00 C 71.86 45.62 71.28 35.19 70.56 24.81 L 70.64 24.09 C 71.34 17.23 70.69 10.31 70.33 3.44 C 70.38 2.34 69.94 1.52 69.01 0.99 C 68.60 0.74 67.77 0.25 67.36 0.00 Z" />
<path fill="#3c6bbe" opacity="1.00" d=" M 125.62 0.00 L 138.20 0.00 C 137.68 0.58 136.65 1.73 136.13 2.30 C 133.64 2.21 131.15 2.12 128.66 2.17 C 131.30 3.28 133.88 4.68 136.73 5.19 C 138.43 3.67 139.69 1.74 141.15 0.00 L 153.85 0.00 C 150.54 7.65 151.17 16.50 155.62 23.59 C 155.60 22.81 155.55 21.23 155.53 20.45 C 157.48 20.84 159.42 21.24 161.37 21.63 C 161.30 22.97 161.25 24.32 161.11 25.66 C 160.73 28.32 160.05 30.93 159.32 33.52 C 156.41 32.82 153.48 32.23 150.51 31.81 C 149.40 29.53 148.25 27.26 146.94 25.08 C 147.27 27.18 147.62 29.27 147.98 31.36 C 142.77 34.23 135.63 35.15 130.77 31.12 C 128.93 29.64 130.51 26.98 132.37 26.40 C 136.33 25.18 140.57 25.46 144.67 25.00 C 139.52 22.38 133.92 23.76 129.04 26.20 C 129.02 28.76 128.99 31.32 128.94 33.87 C 132.22 35.30 136.27 35.54 138.85 38.20 C 138.43 41.18 137.29 43.98 136.46 46.86 C 140.71 44.53 141.22 39.42 144.02 36.03 C 151.38 31.81 159.41 36.92 166.80 38.39 C 164.57 36.39 162.61 34.10 161.13 31.49 C 163.39 30.14 165.68 28.86 167.97 27.58 C 167.93 33.14 167.82 38.70 167.74 44.26 C 166.53 43.79 164.84 43.19 163.77 44.24 C 163.91 46.03 166.64 45.24 167.74 44.76 C 167.77 46.68 167.84 48.59 167.91 50.51 C 164.56 51.40 161.23 52.29 157.89 53.21 C 156.23 53.36 154.56 54.23 154.22 56.00 L 150.15 56.00 C 145.24 51.47 138.69 49.56 133.54 45.40 C 132.66 46.00 131.82 46.66 131.02 47.36 C 131.70 47.63 133.06 48.16 133.74 48.43 C 132.03 50.17 130.32 51.93 128.60 53.67 C 133.67 50.03 140.31 49.87 145.61 53.16 C 143.60 53.42 139.57 53.94 137.56 54.20 C 138.09 54.65 139.13 55.55 139.65 56.00 L 126.84 56.00 C 128.06 38.59 126.28 21.19 126.45 3.76 L 126.48 3.18 C 126.71 2.06 126.82 0.64 125.62 0.00 M 138.67 9.43 C 141.10 10.59 143.54 11.71 146.03 12.71 C 145.37 14.07 144.70 15.41 144.02 16.75 C 146.43 16.56 148.84 16.49 151.25 16.43 C 148.06 14.88 146.20 11.89 144.77 8.78 C 142.74 9.03 140.70 9.22 138.67 9.43 M 157.15 22.40 C 156.30 26.38 161.14 21.58 157.15 22.40 M 154.19 44.36 C 152.12 44.80 150.40 43.18 148.63 42.40 C 148.43 43.14 148.24 43.89 148.06 44.64 C 152.37 46.51 157.08 48.01 161.34 45.10 C 161.02 43.11 160.77 41.11 160.61 39.10 C 158.78 41.14 157.21 44.04 154.19 44.36 Z" />
<path fill="#3c6bbe" opacity="1.00" d=" M 179.36 0.00 L 197.41 0.00 C 193.98 3.52 189.21 3.56 184.68 3.25 C 187.19 4.06 189.70 5.97 192.39 5.73 C 197.01 2.40 202.50 0.84 208.08 0.00 L 209.80 0.00 C 209.57 0.36 209.10 1.07 208.87 1.42 C 207.98 2.42 207.61 3.57 207.75 4.87 C 207.94 8.04 208.10 11.22 208.40 14.39 C 208.45 14.74 208.55 15.44 208.61 15.78 C 209.20 18.68 209.74 21.62 210.66 24.43 C 212.51 26.52 214.83 28.09 217.05 29.75 C 216.41 31.47 215.71 33.16 214.98 34.83 C 212.99 33.95 210.99 33.09 209.01 32.19 C 208.76 33.08 208.51 33.98 208.26 34.88 C 212.92 37.00 217.88 38.25 222.88 39.26 C 221.13 37.28 216.85 35.73 218.32 32.51 C 219.97 30.74 222.09 29.52 224.00 28.05 L 224.00 45.11 C 215.53 45.03 207.00 42.27 198.58 44.25 C 202.86 45.33 207.13 46.51 211.50 47.18 C 215.70 47.26 219.84 46.19 224.00 45.76 L 224.00 50.55 C 221.00 51.16 218.04 51.85 215.01 52.21 C 214.69 52.09 214.04 51.85 213.72 51.73 C 212.26 53.13 210.82 54.56 209.39 56.00 L 205.25 56.00 C 200.35 54.06 195.82 51.39 191.25 48.81 C 195.92 43.58 198.72 35.78 206.44 34.19 C 205.03 31.44 203.65 28.65 201.90 26.10 C 202.23 28.15 202.61 30.20 202.97 32.26 C 200.24 33.51 197.53 35.19 194.45 35.35 C 191.39 34.87 188.75 32.93 185.89 31.86 C 187.96 26.48 193.61 26.02 198.71 26.40 C 198.17 25.05 197.65 23.70 197.12 22.34 C 199.07 20.62 201.01 18.89 203.00 17.21 C 198.69 18.12 194.27 17.97 189.99 16.97 C 192.97 18.42 195.55 20.53 196.94 23.60 C 193.01 24.94 189.05 26.17 185.08 27.36 C 185.31 29.68 185.25 32.04 185.86 34.30 C 188.13 36.54 191.69 36.75 194.37 38.19 C 193.11 42.28 190.72 45.89 187.37 48.56 C 187.94 48.79 189.07 49.26 189.64 49.49 C 187.53 51.67 185.47 53.90 183.28 56.00 L 182.65 56.00 C 183.86 45.62 183.28 35.19 182.56 24.81 L 182.64 24.09 C 183.34 17.23 182.69 10.31 182.33 3.44 C 182.38 2.34 181.94 1.52 181.01 0.99 C 180.60 0.74 179.77 0.25 179.36 0.00 Z" />
<path fill="#3c6bbe" opacity="1.00" d=" M 213.74 25.54 L 214.45 25.30 L 215.14 25.08 C 217.87 25.24 220.61 25.21 223.35 25.16 L 224.00 25.60 L 224.00 27.63 C 220.52 27.25 216.83 27.41 213.74 25.54 Z" />
<path fill="#3c6bbe" opacity="1.00" d=" M 16.41 36.26 C 20.86 36.03 24.88 38.22 28.17 41.01 C 25.76 42.77 23.25 44.39 20.68 45.91 C 21.04 47.50 21.39 49.10 21.72 50.70 C 19.88 52.25 18.07 53.82 16.24 55.38 C 15.62 53.75 14.93 52.16 14.15 50.60 C 13.91 50.29 13.42 49.67 13.17 49.36 C 14.36 48.09 15.52 46.81 16.69 45.54 C 16.30 45.36 15.50 44.99 15.11 44.81 L 14.45 44.46 C 14.35 42.88 14.16 39.72 14.06 38.14 C 14.85 37.52 15.63 36.89 16.41 36.26 Z" />
<path fill="#3c6bbe" opacity="1.00" d=" M 62.15 50.77 C 61.90 49.46 62.67 47.86 64.17 47.88 C 64.05 48.53 63.81 49.83 63.69 50.48 C 63.30 50.55 62.53 50.70 62.15 50.77 Z" />
<path fill="#3c6bbe" opacity="1.00" d=" M 118.15 50.80 C 117.83 49.55 118.51 47.92 120.01 48.03 C 119.94 48.64 119.80 49.87 119.73 50.49 C 119.34 50.57 118.55 50.72 118.15 50.80 Z" />
<path fill="#3c6bbe" opacity="1.00" d=" M 174.15 50.77 C 173.90 49.46 174.67 47.86 176.17 47.88 C 176.05 48.53 175.81 49.83 175.69 50.48 C 175.30 50.55 174.53 50.70 174.15 50.77 Z" />
<path fill="#3c6bbe" opacity="1.00" d=" M 65.79 50.29 C 66.33 50.45 67.40 50.77 67.94 50.94 C 67.58 51.20 66.87 51.72 66.52 51.98 C 66.24 51.73 65.68 51.23 65.39 50.99 L 65.79 50.29 Z" />
<path fill="#3c6bbe" opacity="1.00" d=" M 121.80 50.20 C 122.32 50.39 123.37 50.75 123.90 50.94 C 123.53 51.19 122.81 51.70 122.45 51.95 C 122.19 51.69 121.66 51.16 121.39 50.90 L 121.80 50.20 Z" />
<path fill="#3c6bbe" opacity="1.00" d=" M 177.79 50.29 C 178.33 50.45 179.40 50.77 179.94 50.94 C 179.58 51.20 178.87 51.72 178.52 51.98 C 178.24 51.73 177.68 51.23 177.39 50.99 L 177.79 50.29 Z" />
<path fill="#3c6bbe" opacity="1.00" d=" M 72.11 56.00 C 74.44 54.36 76.55 52.34 79.20 51.20 C 82.16 51.57 84.88 53.01 87.71 53.89 C 86.29 54.62 84.88 55.33 83.43 56.00 L 72.11 56.00 Z" />
<path fill="#3c6bbe" opacity="1.00" d=" M 184.11 56.00 C 186.44 54.36 188.55 52.34 191.20 51.20 C 194.16 51.57 196.88 53.01 199.71 53.89 C 198.29 54.62 196.87 55.33 195.43 56.00 L 184.11 56.00 Z" />
<path fill="#3c6bbe" opacity="1.00" d=" M 17.03 56.00 C 19.94 54.35 22.67 51.69 26.39 52.53 C 28.26 53.43 29.83 54.82 31.52 56.00 L 17.03 56.00 Z" />
<path fill="#3c6bbe" opacity="1.00" d=" M 63.46 52.73 L 64.22 52.64 L 64.51 53.31 C 64.32 53.98 63.93 55.33 63.73 56.00 L 62.19 56.00 L 61.97 55.38 C 62.84 54.72 63.34 53.83 63.46 52.73 Z" />
<path fill="#3c6bbe" opacity="1.00" d=" M 119.44 52.73 L 120.19 52.63 L 120.48 53.31 C 120.30 53.98 119.92 55.33 119.74 56.00 L 118.19 56.00 L 117.96 55.38 C 118.84 54.71 119.33 53.83 119.44 52.73 Z" />
<path fill="#3c6bbe" opacity="1.00" d=" M 175.46 52.73 L 176.22 52.64 L 176.51 53.30 C 176.32 53.98 175.93 55.33 175.73 56.00 L 174.19 56.00 L 173.97 55.38 C 174.84 54.72 175.34 53.83 175.46 52.73 Z" />
</g>
<g id="#4179cbff">
<path fill="#4179cb" opacity="1.00" d=" M 85.41 0.00 L 96.08 0.00 C 90.50 0.84 85.01 2.40 80.39 5.73 C 77.70 5.97 75.19 4.06 72.68 3.25 C 77.21 3.56 81.98 3.52 85.41 0.00 Z" />
<path fill="#4179cb" opacity="1.00" d=" M 197.41 0.00 L 208.08 0.00 C 202.50 0.84 197.01 2.40 192.39 5.73 C 189.70 5.97 187.19 4.06 184.68 3.25 C 189.21 3.56 193.98 3.52 197.41 0.00 Z" />
</g>
<g id="#4476cbff">
<path fill="#4476cb" opacity="1.00" d=" M 138.20 0.00 L 141.15 0.00 C 139.69 1.74 138.43 3.67 136.73 5.19 C 133.88 4.68 131.30 3.28 128.66 2.17 C 131.15 2.12 133.64 2.21 136.13 2.30 C 136.65 1.73 137.68 0.58 138.20 0.00 Z" />
</g>
<g id="#342f2aff">
<path fill="#342f2a" opacity="1.00" d=" M 210.87 0.00 L 213.01 0.00 C 213.50 0.40 214.49 1.21 214.98 1.61 C 214.71 3.62 214.48 5.64 214.28 7.66 C 216.93 7.94 219.60 8.17 222.27 8.05 C 222.52 8.03 223.03 8.00 223.28 7.99 L 224.00 7.93 L 224.00 18.95 C 223.47 19.03 222.40 19.19 221.86 19.27 L 221.11 19.39 C 221.92 16.47 218.70 17.53 219.02 19.78 C 218.84 20.38 218.49 21.60 218.32 22.21 C 217.59 21.83 216.15 21.06 215.42 20.68 C 216.22 16.96 217.00 13.24 217.78 9.52 C 217.09 9.36 215.71 9.06 215.02 8.90 C 214.44 12.71 213.75 16.51 213.36 20.35 C 213.03 19.47 212.70 18.59 212.36 17.71 L 212.20 17.28 C 210.68 13.64 209.13 9.79 210.59 5.76 C 210.81 8.21 211.52 10.59 212.10 12.97 C 212.68 9.23 213.04 5.45 211.25 1.97 C 211.15 1.48 210.96 0.49 210.87 0.00 M 216.91 19.38 C 218.18 16.85 219.37 14.27 220.19 11.56 C 218.40 13.79 216.52 16.19 216.91 19.38 Z" />
</g>
<g id="#84ad5aff">
<path fill="#84ad5a" opacity="1.00" d=" M 213.01 0.00 L 224.00 0.00 L 224.00 4.29 C 222.71 5.01 221.83 6.93 223.28 7.99 C 223.03 8.00 222.52 8.03 222.27 8.05 C 220.55 5.18 217.90 3.14 214.98 1.61 C 214.49 1.21 213.50 0.40 213.01 0.00 M 219.52 1.49 C 219.03 3.44 223.03 3.82 222.78 1.76 C 222.24 0.62 220.24 0.41 219.52 1.49 Z" />
</g>
<g id="#a0b6cbff">
<path fill="#a0b6cb" opacity="1.00" d=" M 12.93 0.81 C 13.37 1.30 14.24 2.28 14.68 2.77 L 14.72 3.38 C 14.42 3.66 13.82 4.21 13.52 4.48 C 13.17 4.47 12.49 4.43 12.14 4.41 C 12.09 3.14 12.35 1.94 12.93 0.81 Z" />
<path fill="#a0b6cb" opacity="1.00" d=" M 69.01 0.99 C 69.94 1.52 70.38 2.34 70.33 3.44 C 70.10 3.75 69.64 4.38 69.41 4.70 C 69.07 4.67 68.40 4.60 68.06 4.57 C 67.95 3.27 68.26 2.07 69.01 0.99 Z" />
<path fill="#a0b6cb" opacity="1.00" d=" M 181.01 0.99 C 181.94 1.52 182.38 2.34 182.33 3.44 C 182.10 3.75 181.64 4.38 181.41 4.70 C 181.07 4.67 180.40 4.60 180.06 4.57 C 179.94 3.27 180.26 2.07 181.01 0.99 Z" />
</g>
<g id="#86a0b1ff">
<path fill="#86a0b1" opacity="1.00" d=" M 40.15 0.78 C 42.53 1.41 42.10 6.11 39.76 3.49 C 39.86 2.82 40.05 1.46 40.15 0.78 Z" />
<path fill="#86a0b1" opacity="1.00" d=" M 123.84 4.73 C 124.12 4.23 124.66 3.21 124.93 2.71 C 125.32 2.83 126.09 3.06 126.48 3.18 L 126.45 3.76 C 126.16 4.06 125.57 4.65 125.28 4.94 C 124.92 4.89 124.20 4.79 123.84 4.73 Z" />
<path fill="#86a0b1" opacity="1.00" d=" M 124.07 22.85 C 124.50 22.71 125.38 22.43 125.81 22.30 C 126.81 23.51 125.12 25.11 124.12 23.69 L 124.07 22.85 Z" />
<path fill="#86a0b1" opacity="1.00" d=" M 67.55 37.74 C 67.95 37.72 68.73 37.67 69.13 37.65 C 69.38 38.90 68.37 40.19 67.05 40.05 L 66.75 39.43 C 66.95 39.01 67.35 38.16 67.55 37.74 Z" />
<path fill="#86a0b1" opacity="1.00" d=" M 179.55 37.74 C 179.95 37.72 180.73 37.67 181.13 37.65 C 181.38 38.90 180.37 40.19 179.05 40.05 L 178.75 39.43 C 178.95 39.01 179.35 38.16 179.55 37.74 Z" />
<path fill="#86a0b1" opacity="1.00" d=" M 68.64 43.53 C 69.55 44.80 69.28 46.90 67.71 47.52 C 67.11 46.18 67.05 44.20 68.64 43.53 Z" />
<path fill="#86a0b1" opacity="1.00" d=" M 180.64 43.53 C 181.55 44.80 181.28 46.90 179.71 47.52 C 179.11 46.18 179.05 44.20 180.64 43.53 Z" />
<path fill="#86a0b1" opacity="1.00" d=" M 12.72 49.83 L 13.17 49.36 C 13.42 49.67 13.91 50.29 14.15 50.60 C 14.27 51.75 14.02 52.82 13.41 53.80 L 12.94 53.72 C 12.87 53.27 12.73 52.37 12.65 51.92 C 12.67 51.40 12.70 50.35 12.72 49.83 Z" />
<path fill="#86a0b1" opacity="1.00" d=" M 123.90 50.94 L 124.38 51.44 C 124.40 51.83 124.44 52.61 124.46 53.00 C 124.00 52.93 123.07 52.79 122.60 52.72 L 122.45 51.95 C 122.81 51.70 123.53 51.19 123.90 50.94 Z" />
</g>
<g id="#6f9a52ff">
<path fill="#6f9a52" opacity="1.00" d=" M 51.52 1.49 C 52.24 0.41 54.24 0.62 54.78 1.76 C 55.03 3.82 51.03 3.44 51.52 1.49 Z" />
<path fill="#6f9a52" opacity="1.00" d=" M 107.52 1.49 C 108.24 0.41 110.24 0.62 110.78 1.76 C 111.03 3.82 107.03 3.44 107.52 1.49 Z" />
<path fill="#6f9a52" opacity="1.00" d=" M 163.52 1.49 C 164.24 0.41 166.24 0.62 166.78 1.76 C 167.03 3.82 163.03 3.44 163.52 1.49 Z" />
<path fill="#6f9a52" opacity="1.00" d=" M 219.52 1.49 C 220.24 0.41 222.24 0.62 222.78 1.76 C 223.03 3.82 219.03 3.44 219.52 1.49 Z" />
</g>
<g id="#709e5cff">
<path fill="#709e5c" opacity="1.00" d=" M 47.09 1.67 C 50.03 3.18 52.68 5.23 54.21 8.24 C 51.41 8.43 48.66 7.85 45.96 7.18 C 46.32 5.34 46.69 3.50 47.09 1.67 Z" />
<path fill="#709e5c" opacity="1.00" d=" M 103.10 1.66 C 106.03 3.18 108.67 5.24 110.22 8.23 C 107.42 8.43 104.66 7.85 101.96 7.18 C 102.32 5.34 102.69 3.50 103.10 1.66 Z" />
<path fill="#709e5c" opacity="1.00" d=" M 159.10 1.66 C 162.03 3.18 164.68 5.24 166.21 8.24 C 163.41 8.43 160.65 7.85 157.96 7.18 C 158.31 5.34 158.69 3.50 159.10 1.66 Z" />
<path fill="#709e5c" opacity="1.00" d=" M 214.98 1.61 C 217.90 3.14 220.55 5.18 222.27 8.05 C 219.60 8.17 216.93 7.94 214.28 7.66 C 214.48 5.64 214.71 3.62 214.98 1.61 Z" />
</g>
<g id="#7392b4ff">
<path fill="#7392b4" opacity="1.00" d=" M 95.75 4.87 C 95.61 3.57 95.99 2.42 96.87 1.42 C 97.75 2.59 97.76 5.11 95.75 4.87 Z" />
<path fill="#7392b4" opacity="1.00" d=" M 207.75 4.87 C 207.61 3.57 207.98 2.42 208.87 1.42 C 209.75 2.59 209.76 5.11 207.75 4.87 Z" />
</g>
<g id="#87b05cff">
<path fill="#87b05c" opacity="1.00" d=" M 3.40 3.15 C 4.80 2.71 5.29 3.20 4.85 4.60 C 3.45 5.03 2.97 4.55 3.40 3.15 Z" />
<path fill="#87b05c" opacity="1.00" d=" M 59.40 3.15 C 60.80 2.71 61.29 3.20 60.85 4.60 C 59.45 5.03 58.97 4.55 59.40 3.15 Z" />
<path fill="#87b05c" opacity="1.00" d=" M 115.40 3.15 C 116.80 2.71 117.29 3.20 116.85 4.60 C 115.45 5.03 114.97 4.55 115.40 3.15 Z" />
<path fill="#87b05c" opacity="1.00" d=" M 171.40 3.15 C 172.80 2.71 173.29 3.20 172.85 4.60 C 171.45 5.03 170.97 4.55 171.40 3.15 Z" />
</g>
<g id="#645a4bff">
<path fill="#645a4b" opacity="1.00" d=" M 43.22 1.98 C 45.05 5.44 44.69 9.24 44.10 12.97 C 43.52 10.59 42.82 8.22 42.61 5.77 C 42.78 4.50 42.98 3.24 43.22 1.98 Z" />
<path fill="#645a4b" opacity="1.00" d=" M 99.25 1.97 C 101.04 5.45 100.68 9.23 100.10 12.97 C 99.53 10.59 98.81 8.21 98.59 5.76 C 98.78 4.49 99.00 3.23 99.25 1.97 Z" />
<path fill="#645a4b" opacity="1.00" d=" M 155.38 1.99 C 156.98 5.50 156.64 9.25 156.12 12.97 C 155.52 10.57 154.80 8.19 154.54 5.73 C 154.80 4.48 155.08 3.23 155.38 1.99 Z" />
<path fill="#645a4b" opacity="1.00" d=" M 211.25 1.97 C 213.04 5.45 212.68 9.23 212.10 12.97 C 211.52 10.59 210.81 8.21 210.59 5.76 C 210.78 4.49 211.00 3.23 211.25 1.97 Z" />
</g>
<g id="#86b05fff">
<path fill="#86b05f" opacity="1.00" d=" M 1.96 3.32 C 2.48 5.62 2.61 7.97 2.26 10.30 C 1.60 14.36 3.87 18.02 5.52 21.56 C 5.72 21.95 6.13 22.73 6.33 23.12 C 4.31 23.52 2.44 24.40 0.69 25.48 C 0.46 24.79 0.23 24.11 0.00 23.42 L 0.00 6.36 C 0.49 5.60 1.47 4.08 1.96 3.32 M 1.29 20.53 C 0.42 21.76 2.53 23.04 3.33 21.85 C 4.15 20.65 2.07 19.39 1.29 20.53 Z" />
<path fill="#86b05f" opacity="1.00" d=" M 58.35 3.87 C 58.44 9.96 57.36 16.25 61.45 21.57 C 61.73 22.10 62.29 23.18 62.57 23.72 C 61.33 23.49 60.09 23.31 58.85 23.13 C 58.46 24.09 58.07 25.04 57.68 26.00 C 57.10 25.30 56.53 24.60 55.96 23.90 C 55.92 22.89 55.87 21.88 55.81 20.87 C 55.73 16.17 55.72 11.48 55.66 6.78 C 56.56 5.81 57.45 4.84 58.35 3.87 M 57.29 20.53 C 56.42 21.76 58.53 23.04 59.33 21.85 C 60.14 20.65 58.07 19.39 57.29 20.53 Z" />
<path fill="#86b05f" opacity="1.00" d=" M 114.35 3.87 C 114.45 9.96 113.32 16.27 117.52 21.55 C 117.72 21.94 118.13 22.72 118.34 23.11 C 116.45 23.55 114.67 24.31 112.98 25.25 C 112.64 24.83 112.30 24.42 111.96 24.00 C 111.95 22.33 111.94 20.66 111.92 18.99 C 111.85 14.92 111.76 10.85 111.66 6.78 C 112.56 5.81 113.45 4.84 114.35 3.87 M 113.29 20.53 C 112.42 21.76 114.53 23.04 115.33 21.85 C 116.14 20.65 114.07 19.39 113.29 20.53 Z" />
<path fill="#86b05f" opacity="1.00" d=" M 170.35 3.88 C 170.44 9.97 169.32 16.29 173.52 21.56 C 173.72 21.95 174.13 22.73 174.34 23.12 C 172.44 23.53 170.67 24.32 168.99 25.25 C 168.64 24.82 168.30 24.40 167.95 23.97 C 167.92 22.21 167.85 20.45 167.78 18.70 L 167.76 18.19 C 167.70 14.38 167.69 10.58 167.67 6.77 C 168.56 5.81 169.46 4.85 170.35 3.88 M 169.29 20.53 C 168.42 21.76 170.53 23.04 171.33 21.85 C 172.14 20.65 170.07 19.39 169.29 20.53 Z" />
</g>
<g id="#2f8bd3fe">
<path fill="#2f8bd3" opacity="1.00" d=" M 14.72 3.38 C 15.50 7.41 16.12 11.61 14.89 15.62 C 14.41 15.41 13.44 15.00 12.95 14.79 C 13.28 12.49 13.60 10.19 13.92 7.89 C 13.01 8.62 12.11 9.36 11.21 10.09 C 11.75 8.14 12.58 6.28 13.52 4.48 C 13.82 4.21 14.42 3.66 14.72 3.38 Z" />
</g>
<g id="#2c8ed7ff">
<path fill="#2c8ed7" opacity="1.00" d=" M 70.33 3.44 C 70.69 10.31 71.34 17.23 70.64 24.09 C 70.50 23.69 70.21 22.88 70.07 22.48 C 69.82 21.81 69.33 20.48 69.08 19.81 C 68.43 17.99 67.78 16.18 67.18 14.34 C 69.72 15.69 69.31 11.96 67.12 12.02 C 67.68 9.52 68.35 7.04 69.41 4.70 C 69.64 4.38 70.10 3.75 70.33 3.44 Z" />
<path fill="#2c8ed7" opacity="1.00" d=" M 182.33 3.44 C 182.69 10.31 183.34 17.23 182.64 24.09 C 182.50 23.69 182.21 22.88 182.07 22.48 C 181.82 21.81 181.33 20.48 181.08 19.81 C 180.43 17.99 179.78 16.18 179.18 14.34 C 181.71 15.69 181.31 11.96 179.12 12.02 C 179.68 9.52 180.35 7.04 181.41 4.70 C 181.64 4.38 182.10 3.75 182.33 3.44 Z" />
</g>
<g id="#288dd7ff">
<path fill="#288dd7" opacity="1.00" d=" M 126.45 3.76 C 126.28 21.19 128.06 38.59 126.84 56.00 L 125.44 56.00 C 125.25 55.44 124.89 54.33 124.71 53.78 L 124.46 53.00 C 124.44 52.61 124.40 51.83 124.38 51.44 C 124.01 47.54 123.54 43.66 123.17 39.76 C 123.30 39.35 123.55 38.54 123.67 38.14 C 124.10 36.38 124.50 34.60 124.76 32.81 C 124.76 31.89 124.74 30.97 124.70 30.05 C 124.57 27.92 124.28 25.81 124.12 23.69 C 125.12 25.11 126.81 23.51 125.81 22.30 C 125.52 21.43 125.23 20.57 124.95 19.70 C 124.44 18.19 123.92 16.68 123.37 15.17 C 125.41 14.96 124.87 12.28 123.19 11.94 C 123.71 9.56 124.31 7.19 125.28 4.94 C 125.57 4.65 126.16 4.06 126.45 3.76 Z" />
</g>
<g id="#5c8260ff">
<path fill="#5c8260" opacity="1.00" d=" M 223.28 7.99 C 221.83 6.93 222.71 5.01 224.00 4.29 L 224.00 7.93 L 223.28 7.99 Z" />
</g>
<g id="#a5bbd1ff">
<path fill="#a5bbd1" opacity="1.00" d=" M 11.21 10.09 C 12.11 9.36 13.01 8.62 13.92 7.89 C 13.60 10.19 13.28 12.49 12.95 14.79 C 12.52 14.59 11.65 14.20 11.22 14.00 C 11.16 12.70 11.16 11.39 11.21 10.09 Z" />
</g>
<g id="#4377cafe">
<path fill="#4377ca" opacity="1.00" d=" M 138.67 9.43 C 140.70 9.22 142.74 9.03 144.77 8.78 C 146.20 11.89 148.06 14.88 151.25 16.43 C 148.84 16.49 146.43 16.56 144.02 16.75 C 144.70 15.41 145.37 14.07 146.03 12.71 C 143.54 11.71 141.10 10.59 138.67 9.43 Z" />
</g>
<g id="#6c604cff">
<path fill="#6c604c" opacity="1.00" d=" M 47.09 8.89 C 47.72 9.05 48.96 9.36 49.58 9.52 C 48.88 13.60 48.34 17.70 47.90 21.82 C 47.41 21.46 46.44 20.73 45.95 20.37 L 45.44 19.98 C 45.98 16.28 46.52 12.58 47.09 8.89 Z" />
<path fill="#6c604c" opacity="1.00" d=" M 103.02 8.90 C 103.72 9.06 105.10 9.36 105.79 9.52 C 105.00 13.23 104.20 16.94 103.39 20.64 C 102.94 20.77 102.05 21.03 101.60 21.15 L 101.35 20.34 C 101.74 16.51 102.45 12.71 103.02 8.90 Z" />
<path fill="#6c604c" opacity="1.00" d=" M 215.02 8.90 C 215.71 9.06 217.09 9.36 217.78 9.52 C 217.00 13.24 216.22 16.96 215.42 20.68 C 214.97 20.80 214.06 21.04 213.61 21.16 L 213.36 20.35 C 213.75 16.51 214.44 12.71 215.02 8.90 Z" />
</g>
<g id="#6c5f4bff">
<path fill="#6c5f4b" opacity="1.00" d=" M 159.44 9.13 C 160.02 9.21 161.19 9.37 161.77 9.45 C 161.13 12.93 160.40 16.40 159.86 19.91 C 158.72 18.92 157.64 17.86 156.65 16.72 C 157.62 14.21 158.53 11.67 159.44 9.13 Z" />
</g>
<g id="#8bb5d9ff">
<path fill="#8bb5d9" opacity="1.00" d=" M 67.18 14.34 C 67.16 13.76 67.14 12.60 67.12 12.02 C 69.31 11.96 69.72 15.69 67.18 14.34 Z" />
<path fill="#8bb5d9" opacity="1.00" d=" M 179.18 14.34 C 179.16 13.76 179.14 12.60 179.12 12.02 C 181.31 11.96 181.71 15.69 179.18 14.34 Z" />
</g>
<g id="#6e9bbbff">
<path fill="#6e9bbb" opacity="1.00" d=" M 123.37 15.17 C 122.89 14.12 122.83 13.04 123.19 11.94 C 124.87 12.28 125.41 14.96 123.37 15.17 Z" />
</g>
<g id="#2a8ed7ff">
<path fill="#2a8ed7" opacity="1.00" d=" M 11.22 14.00 C 11.65 14.20 12.52 14.59 12.95 14.79 C 13.44 15.00 14.41 15.41 14.89 15.62 C 15.42 17.11 16.02 18.58 16.59 20.06 C 15.99 21.39 15.38 22.72 14.77 24.05 C 14.62 23.65 14.32 22.87 14.17 22.47 C 13.91 21.80 13.37 20.46 13.11 19.78 C 12.40 17.88 11.72 15.97 11.22 14.00 Z" />
</g>
<g id="#709fc2fe">
<path fill="#709fc2" opacity="1.00" d=" M 41.22 14.19 C 43.36 13.78 43.53 17.04 43.91 18.52 L 44.00 18.91 C 42.76 18.04 41.64 16.95 40.97 15.57 C 41.03 15.23 41.16 14.54 41.22 14.19 Z" />
</g>
<g id="#7ca2beff">
<path fill="#7ca2be" opacity="1.00" d=" M 96.40 14.39 C 98.11 14.59 99.37 15.85 100.20 17.28 L 100.36 17.71 C 98.91 17.58 97.50 16.96 96.61 15.78 C 96.55 15.44 96.45 14.74 96.40 14.39 Z" />
<path fill="#7ca2be" opacity="1.00" d=" M 208.40 14.39 C 210.11 14.59 211.37 15.85 212.20 17.28 L 212.36 17.71 C 210.91 17.58 209.50 16.96 208.61 15.78 C 208.55 15.44 208.45 14.74 208.40 14.39 Z" />
</g>
<g id="#7fa1b9ff">
<path fill="#7fa1b9" opacity="1.00" d=" M 154.30 13.64 C 154.65 14.09 155.34 15.00 155.68 15.45 C 155.93 15.77 156.41 16.40 156.65 16.72 C 157.64 17.86 158.72 18.92 159.86 19.91 C 160.36 20.30 161.37 21.08 161.87 21.47 L 162.32 21.83 L 161.37 21.63 C 159.42 21.24 157.48 20.84 155.53 20.45 C 155.28 18.15 154.78 15.90 154.30 13.64 Z" />
</g>
<g id="#427acbfe">
<path fill="#427acb" opacity="1.00" d=" M 34.63 17.50 C 36.51 18.13 38.40 18.72 40.29 19.31 C 40.20 19.78 40.01 20.71 39.92 21.18 C 35.61 19.56 31.20 20.81 27.66 23.51 C 28.38 24.74 29.10 25.97 29.82 27.20 C 25.27 27.02 20.67 28.34 18.83 32.94 C 21.83 33.82 24.68 35.50 27.83 35.81 C 30.03 35.34 32.01 34.23 34.04 33.29 C 33.63 31.27 33.22 29.25 32.83 27.22 C 34.85 30.10 36.58 33.16 38.53 36.08 C 36.40 36.37 34.26 36.64 32.12 36.91 C 30.41 41.78 27.45 45.99 24.03 49.81 C 27.23 51.42 30.12 53.54 32.73 56.00 L 31.52 56.00 C 29.83 54.82 28.26 53.43 26.39 52.53 C 22.67 51.69 19.94 54.35 17.03 56.00 L 15.50 56.00 L 16.24 55.38 C 18.07 53.82 19.88 52.25 21.72 50.70 C 21.39 49.10 21.04 47.50 20.68 45.91 C 23.25 44.39 25.76 42.77 28.17 41.01 C 24.88 38.22 20.86 36.03 16.41 36.26 C 15.13 36.29 13.85 36.34 12.58 36.42 C 12.72 36.10 13.00 35.48 13.15 35.16 C 13.39 34.65 13.87 33.62 14.11 33.10 C 15.07 33.93 16.03 34.76 16.99 35.59 C 17.82 33.23 18.26 30.76 18.32 28.26 C 21.27 27.23 24.20 26.16 27.13 25.08 C 27.05 24.37 26.89 22.94 26.82 22.22 C 25.21 21.28 23.61 20.32 22.00 19.39 C 26.27 19.44 30.67 19.22 34.63 17.50 Z" />
</g>
<g id="#298ad7ff">
<path fill="#298ad7" opacity="1.00" d=" M 40.97 15.57 C 41.64 16.95 42.76 18.04 44.00 18.91 C 44.36 19.18 45.08 19.72 45.44 19.98 L 45.95 20.37 C 45.68 20.76 45.16 21.56 44.89 21.96 L 44.48 22.59 C 44.53 21.49 42.87 19.72 42.15 21.30 C 42.19 22.48 42.84 23.10 44.11 23.17 C 43.79 23.67 43.17 24.67 42.85 25.18 C 41.74 23.94 40.82 22.57 39.92 21.18 C 40.01 20.71 40.20 19.78 40.29 19.31 C 40.46 18.37 40.80 16.51 40.97 15.57 Z" />
</g>
<g id="#3a94d8ff">
<path fill="#3a94d8" opacity="1.00" d=" M 96.61 15.78 C 97.50 16.96 98.91 17.58 100.36 17.71 C 100.69 18.59 101.03 19.46 101.35 20.34 L 101.60 21.15 L 101.28 21.51 C 100.40 22.48 99.52 23.45 98.66 24.43 C 97.73 21.61 97.21 18.68 96.61 15.78 Z" />
<path fill="#3a94d8" opacity="1.00" d=" M 208.61 15.78 C 209.50 16.96 210.91 17.58 212.36 17.71 C 212.70 18.59 213.03 19.47 213.36 20.35 L 213.61 21.16 L 213.29 21.51 C 212.41 22.48 211.53 23.45 210.66 24.43 C 209.74 21.62 209.20 18.68 208.61 15.78 Z" />
</g>
<g id="#4279cbff">
<path fill="#4279cb" opacity="1.00" d=" M 77.99 16.97 C 82.27 17.97 86.69 18.12 91.00 17.21 C 89.01 18.89 87.07 20.62 85.12 22.34 C 85.65 23.70 86.17 25.05 86.71 26.40 C 81.55 25.96 75.90 26.56 73.80 31.98 C 79.24 34.59 85.72 35.68 91.06 32.36 C 90.53 30.33 90.01 28.29 89.53 26.24 C 91.57 28.63 93.05 31.40 94.47 34.18 C 86.74 35.76 83.92 43.57 79.25 48.81 C 83.82 51.39 88.36 54.06 93.25 56.00 L 83.43 56.00 C 84.88 55.33 86.29 54.62 87.71 53.89 C 84.88 53.01 82.16 51.57 79.20 51.20 C 76.55 52.34 74.44 54.36 72.11 56.00 L 71.28 56.00 C 73.47 53.90 75.53 51.67 77.64 49.49 C 77.07 49.26 75.94 48.79 75.37 48.56 C 78.72 45.89 81.11 42.28 82.37 38.19 C 79.70 36.75 76.13 36.54 73.86 34.30 C 73.25 32.04 73.31 29.68 73.08 27.36 C 77.05 26.17 81.01 24.94 84.94 23.60 C 83.55 20.53 80.97 18.42 77.99 16.97 Z" />
<path fill="#4279cb" opacity="1.00" d=" M 189.99 16.97 C 194.27 17.97 198.69 18.12 203.00 17.21 C 201.01 18.89 199.07 20.62 197.12 22.34 C 197.65 23.70 198.17 25.05 198.71 26.40 C 193.61 26.02 187.96 26.48 185.89 31.86 C 188.75 32.93 191.39 34.87 194.45 35.35 C 197.53 35.19 200.24 33.51 202.97 32.26 C 202.61 30.20 202.23 28.15 201.90 26.10 C 203.65 28.65 205.03 31.44 206.44 34.19 C 198.72 35.78 195.92 43.58 191.25 48.81 C 195.82 51.39 200.35 54.06 205.25 56.00 L 195.43 56.00 C 196.87 55.33 198.29 54.62 199.71 53.89 C 196.88 53.01 194.16 51.57 191.20 51.20 C 188.55 52.34 186.44 54.36 184.11 56.00 L 183.28 56.00 C 185.47 53.90 187.53 51.67 189.64 49.49 C 189.07 49.26 187.94 48.79 187.37 48.56 C 190.72 45.89 193.11 42.28 194.37 38.19 C 191.69 36.75 188.13 36.54 185.86 34.30 C 185.25 32.04 185.31 29.68 185.08 27.36 C 189.05 26.17 193.01 24.94 196.94 23.60 C 195.55 20.53 192.97 18.42 189.99 16.97 Z" />
<path fill="#4279cb" opacity="1.00" d=" M 154.19 44.36 C 157.21 44.04 158.78 41.14 160.61 39.10 C 160.77 41.11 161.02 43.11 161.34 45.10 C 157.08 48.01 152.37 46.51 148.06 44.64 C 148.24 43.89 148.43 43.14 148.63 42.40 C 150.40 43.18 152.12 44.80 154.19 44.36 Z" />
</g>
<g id="#5688bafe">
<path fill="#5688ba" opacity="1.00" d=" M 161.87 21.47 C 162.65 19.69 164.35 18.32 166.34 18.26 C 165.19 19.34 164.49 20.79 163.73 22.14 C 163.38 22.06 162.67 21.90 162.32 21.83 L 161.87 21.47 Z" />
</g>
<g id="#9cb3c7fe">
<path fill="#9cb3c7" opacity="1.00" d=" M 166.34 18.26 C 166.69 18.24 167.40 18.21 167.76 18.19 L 167.78 18.70 C 167.10 20.32 165.80 21.60 164.17 22.28 L 163.73 22.14 C 164.49 20.79 165.19 19.34 166.34 18.26 Z" />
<path fill="#9cb3c7" opacity="1.00" d=" M 109.11 19.38 L 109.86 19.28 C 111.76 20.65 110.06 22.77 108.29 23.08 L 107.84 22.84 C 108.20 21.89 108.40 20.92 108.45 19.91 L 109.11 19.38 Z" />
<path fill="#9cb3c7" opacity="1.00" d=" M 221.11 19.39 L 221.86 19.27 C 223.74 20.64 222.09 22.78 220.32 23.13 L 219.88 22.88 C 220.22 21.93 220.41 20.94 220.45 19.92 L 221.11 19.39 Z" />
</g>
<g id="#9eb5c9ff">
<path fill="#9eb5c9" opacity="1.00" d=" M 53.69 18.70 C 53.99 19.00 54.59 19.60 54.89 19.90 C 54.29 21.12 53.63 22.32 52.84 23.43 L 51.92 23.63 C 52.27 22.67 52.56 21.68 52.79 20.68 C 53.01 20.18 53.46 19.19 53.69 18.70 Z" />
</g>
<g id="#4077c8ff">
<path fill="#4077c8" opacity="1.00" d=" M 109.86 19.28 C 110.38 19.20 111.40 19.06 111.92 18.99 C 111.94 20.66 111.95 22.33 111.96 24.00 C 111.96 25.53 111.95 27.06 111.95 28.59 C 109.67 29.87 107.38 31.15 105.13 32.49 C 106.58 35.10 108.55 37.36 110.80 39.30 C 105.85 38.19 100.89 37.00 96.26 34.88 C 96.51 33.98 96.76 33.08 97.01 32.19 C 98.99 33.09 100.99 33.95 102.98 34.83 C 103.72 33.16 104.41 31.47 105.05 29.75 C 102.83 28.09 100.50 26.52 98.66 24.43 C 99.52 23.45 100.40 22.48 101.28 21.51 C 102.71 22.34 104.28 23.02 105.97 23.08 C 105.38 23.61 104.22 24.68 103.63 25.21 C 106.19 25.22 108.75 25.12 111.31 24.96 C 110.31 24.32 109.30 23.69 108.29 23.08 C 110.06 22.77 111.76 20.65 109.86 19.28 M 101.15 23.40 C 100.30 27.38 105.14 22.58 101.15 23.40 Z" />
</g>
<g id="#4279caff">
<path fill="#4279ca" opacity="1.00" d=" M 164.17 22.28 C 165.80 21.60 167.10 20.32 167.78 18.70 C 167.85 20.45 167.92 22.21 167.95 23.97 C 167.97 25.17 167.97 26.37 167.97 27.58 C 165.68 28.86 163.39 30.14 161.13 31.49 C 162.61 34.10 164.57 36.39 166.80 38.39 C 159.41 36.92 151.38 31.81 144.02 36.03 C 141.22 39.42 140.71 44.53 136.46 46.86 C 137.29 43.98 138.43 41.18 138.85 38.20 C 136.27 35.54 132.22 35.30 128.94 33.87 C 128.99 31.32 129.02 28.76 129.04 26.20 C 133.92 23.76 139.52 22.38 144.67 25.00 C 140.57 25.46 136.33 25.18 132.37 26.40 C 130.51 26.98 128.93 29.64 130.77 31.12 C 135.63 35.15 142.77 34.23 147.98 31.36 C 147.62 29.27 147.27 27.18 146.94 25.08 C 148.25 27.26 149.40 29.53 150.51 31.81 C 153.48 32.23 156.41 32.82 159.32 33.52 C 160.05 30.93 160.73 28.32 161.11 25.66 C 163.14 24.89 165.16 24.12 167.18 23.34 C 166.18 22.98 165.18 22.63 164.17 22.28 Z" />
</g>
<g id="#337cccff">
<path fill="#337ccc" opacity="1.00" d=" M 221.86 19.27 C 222.40 19.19 223.47 19.03 224.00 18.95 L 224.00 25.60 L 223.35 25.16 C 222.35 24.47 221.34 23.79 220.32 23.13 C 222.09 22.78 223.74 20.64 221.86 19.27 Z" />
</g>
<g id="#67965dff">
<path fill="#67965d" opacity="1.00" d=" M 1.29 20.53 C 2.07 19.39 4.15 20.65 3.33 21.85 C 2.53 23.04 0.42 21.76 1.29 20.53 Z" />
<path fill="#67965d" opacity="1.00" d=" M 57.29 20.53 C 58.07 19.39 60.14 20.65 59.33 21.85 C 58.53 23.04 56.42 21.76 57.29 20.53 Z" />
<path fill="#67965d" opacity="1.00" d=" M 113.29 20.53 C 114.07 19.39 116.14 20.65 115.33 21.85 C 114.53 23.04 112.42 21.76 113.29 20.53 Z" />
<path fill="#67965d" opacity="1.00" d=" M 169.29 20.53 C 170.07 19.39 172.14 20.65 171.33 21.85 C 170.53 23.04 168.42 21.76 169.29 20.53 Z" />
</g>
<g id="#6c5e4cff">
<path fill="#6c5e4c" opacity="1.00" d=" M 9.49 20.21 C 10.39 20.11 12.20 19.89 13.11 19.78 C 13.37 20.46 13.91 21.80 14.17 22.47 C 13.55 22.59 12.29 22.82 11.67 22.94 C 11.18 23.00 10.21 23.12 9.72 23.18 C 9.65 22.19 9.57 21.20 9.49 20.21 Z" />
<path fill="#6c5e4c" opacity="1.00" d=" M 65.50 20.20 C 66.39 20.11 68.18 19.91 69.08 19.81 C 69.33 20.48 69.82 21.81 70.07 22.48 C 69.48 22.60 68.31 22.84 67.72 22.97 C 67.22 23.02 66.23 23.14 65.73 23.19 C 65.66 22.20 65.58 21.20 65.50 20.20 Z" />
<path fill="#6c5e4c" opacity="1.00" d=" M 121.51 20.21 C 122.37 20.09 124.09 19.83 124.95 19.70 C 125.23 20.57 125.52 21.43 125.81 22.30 C 125.38 22.43 124.50 22.71 124.07 22.85 C 123.48 22.95 122.32 23.16 121.73 23.26 C 121.67 22.25 121.59 21.23 121.51 20.21 Z" />
<path fill="#6c5e4c" opacity="1.00" d=" M 177.50 20.20 C 178.39 20.11 180.18 19.91 181.08 19.81 C 181.33 20.48 181.82 21.81 182.07 22.48 C 181.48 22.60 180.31 22.84 179.72 22.97 C 179.22 23.02 178.23 23.14 177.73 23.20 C 177.66 22.20 177.58 21.20 177.50 20.20 Z" />
</g>
<g id="#3c6bbdff">
<path fill="#3c6bbd" opacity="1.00" d=" M 27.66 23.51 C 31.20 20.81 35.61 19.56 39.92 21.18 C 40.82 22.57 41.74 23.94 42.85 25.18 C 44.65 27.27 46.82 29.04 48.50 31.24 C 48.29 32.85 47.81 34.41 47.37 35.98 C 45.26 35.04 43.12 34.16 41.01 33.19 C 40.76 34.09 40.51 34.98 40.26 35.88 C 44.92 38.00 49.88 39.25 54.88 40.26 C 53.10 38.27 48.88 36.73 50.27 33.47 C 51.91 31.82 53.99 30.71 55.88 29.38 C 55.87 35.02 56.01 40.66 56.00 46.31 C 53.12 45.84 50.14 45.82 47.39 44.80 C 46.77 43.31 46.54 41.70 46.18 40.13 C 45.27 41.51 44.35 42.88 43.42 44.24 C 40.44 44.01 37.48 43.67 34.53 43.20 C 33.31 43.96 32.08 44.73 30.85 45.49 C 35.26 45.11 39.73 45.91 43.37 48.55 C 47.14 45.99 51.70 46.70 56.00 46.98 C 55.99 48.11 55.98 49.24 55.96 50.37 C 52.49 51.13 48.89 51.88 45.97 54.03 C 46.50 52.97 47.00 51.89 47.49 50.80 L 46.38 51.01 C 45.15 51.19 43.91 51.36 42.68 51.52 C 42.49 52.19 42.10 53.51 41.90 54.18 C 41.75 54.63 41.44 55.54 41.29 56.00 L 32.73 56.00 C 30.12 53.54 27.23 51.42 24.03 49.81 C 27.45 45.99 30.41 41.78 32.12 36.91 C 34.26 36.64 36.40 36.37 38.53 36.08 C 36.58 33.16 34.85 30.10 32.83 27.22 C 33.22 29.25 33.63 31.27 34.04 33.29 C 32.01 34.23 30.03 35.34 27.83 35.81 C 24.68 35.50 21.83 33.82 18.83 32.94 C 20.67 28.34 25.27 27.02 29.82 27.20 C 29.10 25.97 28.38 24.74 27.66 23.51 Z" />
</g>
<g id="#adc2d9ff">
<path fill="#adc2d9" opacity="1.00" d=" M 42.15 21.30 C 42.87 19.72 44.53 21.49 44.48 22.59 L 44.11 23.17 C 42.84 23.10 42.19 22.48 42.15 21.30 Z" />
<path fill="#adc2d9" opacity="1.00" d=" M 12.01 51.34 L 12.65 51.92 C 12.73 52.37 12.87 53.27 12.94 53.72 C 11.51 54.02 10.29 51.88 12.01 51.34 Z" />
<path fill="#adc2d9" opacity="1.00" d=" M 67.94 50.94 L 68.46 51.42 C 68.49 51.80 68.57 52.57 68.61 52.96 C 68.13 52.90 67.17 52.78 66.69 52.72 L 66.52 51.98 C 66.87 51.72 67.58 51.20 67.94 50.94 Z" />
<path fill="#adc2d9" opacity="1.00" d=" M 179.94 50.94 L 180.46 51.42 C 180.49 51.80 180.57 52.57 180.61 52.96 C 180.13 52.90 179.17 52.78 178.69 52.72 L 178.52 51.98 C 178.87 51.72 179.58 51.20 179.94 50.94 Z" />
</g>
<g id="#3970c2ff">
<path fill="#3970c2" opacity="1.00" d=" M 54.89 19.90 C 55.12 20.15 55.58 20.63 55.81 20.87 C 55.87 21.88 55.92 22.89 55.96 23.90 C 55.97 25.38 55.96 26.86 55.91 28.35 C 52.42 28.24 48.74 28.32 45.65 26.44 C 46.04 25.89 46.81 24.79 47.20 24.23 C 47.74 24.17 48.82 24.04 49.35 23.97 C 49.04 24.56 48.41 25.74 48.10 26.32 C 50.38 26.28 52.65 26.24 54.92 26.17 C 54.23 25.26 53.53 24.34 52.84 23.43 C 53.63 22.32 54.29 21.12 54.89 19.90 Z" />
</g>
<g id="#4f7baeff">
<path fill="#4f7bae" opacity="1.00" d=" M 107.00 19.73 C 107.36 19.78 108.08 19.86 108.45 19.91 C 108.40 20.92 108.20 21.89 107.84 22.84 C 107.50 22.79 106.82 22.70 106.48 22.66 L 106.25 22.06 C 106.43 21.48 106.81 20.31 107.00 19.73 Z" />
<path fill="#4f7bae" opacity="1.00" d=" M 219.02 19.78 C 219.37 19.81 220.09 19.89 220.45 19.92 C 220.41 20.94 220.22 21.93 219.88 22.88 C 219.55 22.87 218.88 22.83 218.55 22.81 L 218.32 22.21 C 218.49 21.60 218.84 20.38 219.02 19.78 Z" />
<path fill="#4f7bae" opacity="1.00" d=" M 51.25 20.98 C 51.63 20.90 52.40 20.75 52.79 20.68 C 52.56 21.68 52.27 22.67 51.92 23.63 C 51.58 23.69 50.89 23.79 50.55 23.85 L 50.12 23.50 C 50.40 22.87 50.96 21.61 51.25 20.98 Z" />
</g>
<g id="#332f2aff">
<path fill="#332f2a" opacity="1.00" d=" M 5.52 21.56 C 6.90 22.13 8.28 22.74 9.72 23.18 C 10.21 23.12 11.18 23.00 11.67 22.94 L 11.82 23.68 C 12.12 25.05 12.44 26.41 12.77 27.78 C 12.82 28.35 12.93 29.49 12.99 30.07 C 11.44 29.18 9.89 28.31 8.33 27.44 C 8.83 28.45 9.33 29.45 9.83 30.46 C 8.27 30.04 6.72 29.64 5.18 29.18 C 5.15 29.02 5.10 28.72 5.07 28.56 C 6.70 28.19 8.53 26.43 7.25 24.74 C 7.02 24.34 6.56 23.53 6.33 23.12 C 6.13 22.73 5.72 21.95 5.52 21.56 Z" />
<path fill="#332f2a" opacity="1.00" d=" M 117.52 21.55 C 118.91 22.15 120.29 22.78 121.73 23.26 C 122.32 23.16 123.48 22.95 124.07 22.85 L 124.12 23.69 C 124.28 25.81 124.57 27.92 124.70 30.05 C 123.25 29.15 121.78 28.26 120.32 27.39 C 120.82 28.41 121.32 29.44 121.83 30.46 C 120.27 30.05 118.71 29.63 117.17 29.16 C 117.14 29.02 117.09 28.73 117.06 28.58 C 118.70 28.20 120.52 26.43 119.25 24.74 C 119.02 24.33 118.57 23.52 118.34 23.11 C 118.13 22.72 117.72 21.94 117.52 21.55 Z" />
</g>
<g id="#8ea7b9ff">
<path fill="#8ea7b9" opacity="1.00" d=" M 44.89 21.96 C 45.16 21.56 45.68 20.76 45.95 20.37 C 46.44 20.73 47.41 21.46 47.90 21.82 C 48.46 22.24 49.56 23.08 50.12 23.50 L 50.55 23.85 L 49.35 23.97 C 48.82 24.04 47.74 24.17 47.20 24.23 C 46.43 23.48 45.66 22.72 44.89 21.96 Z" />
</g>
<g id="#383632ff">
<path fill="#383632" opacity="1.00" d=" M 61.45 21.57 C 62.87 22.14 64.27 22.74 65.73 23.19 C 66.23 23.14 67.22 23.02 67.72 22.97 L 67.84 23.76 C 68.26 26.46 68.68 29.17 68.99 31.88 C 67.69 30.14 66.20 28.55 64.70 26.97 C 65.03 28.16 65.36 29.34 65.70 30.52 C 64.18 30.08 62.67 29.63 61.17 29.14 C 61.14 29.00 61.09 28.72 61.07 28.58 C 62.71 28.23 64.52 26.43 63.19 24.77 C 63.04 24.51 62.73 23.98 62.57 23.72 C 62.29 23.18 61.73 22.10 61.45 21.57 Z" />
<path fill="#383632" opacity="1.00" d=" M 173.52 21.56 C 174.91 22.14 176.29 22.74 177.73 23.20 C 178.23 23.14 179.22 23.02 179.72 22.97 L 179.84 23.76 C 180.26 26.46 180.68 29.17 180.99 31.88 C 179.69 30.14 178.20 28.55 176.70 26.97 C 177.03 28.16 177.36 29.34 177.70 30.52 C 176.18 30.08 174.67 29.64 173.17 29.15 C 173.15 29.00 173.10 28.72 173.07 28.58 C 174.70 28.20 176.53 26.43 175.25 24.74 C 175.02 24.34 174.56 23.53 174.34 23.12 C 174.13 22.73 173.72 21.95 173.52 21.56 Z" />
</g>
<g id="#8ba4b6fe">
<path fill="#8ba4b6" opacity="1.00" d=" M 101.28 21.51 L 101.60 21.15 C 102.05 21.03 102.94 20.77 103.39 20.64 C 104.10 21.00 105.53 21.70 106.25 22.06 L 106.48 22.66 L 105.97 23.08 C 104.28 23.02 102.71 22.34 101.28 21.51 Z" />
<path fill="#8ba4b6" opacity="1.00" d=" M 213.29 21.51 L 213.61 21.16 C 214.06 21.04 214.97 20.80 215.42 20.68 C 216.15 21.06 217.59 21.83 218.32 22.21 L 218.55 22.81 L 217.99 23.16 C 216.30 23.04 214.72 22.37 213.29 21.51 Z" />
</g>
<g id="#4378c9ff">
<path fill="#4378c9" opacity="1.00" d=" M 210.66 24.43 C 211.53 23.45 212.41 22.48 213.29 21.51 C 214.72 22.37 216.30 23.04 217.99 23.16 C 217.28 23.64 215.85 24.60 215.14 25.08 L 214.45 25.30 C 215.42 22.01 210.75 24.08 213.74 25.54 C 216.83 27.41 220.52 27.25 224.00 27.63 L 224.00 28.05 C 222.09 29.52 219.97 30.74 218.32 32.51 C 216.85 35.73 221.13 37.28 222.88 39.26 C 217.88 38.25 212.92 37.00 208.26 34.88 C 208.51 33.98 208.76 33.08 209.01 32.19 C 210.99 33.09 212.99 33.95 214.98 34.83 C 215.71 33.16 216.41 31.47 217.05 29.75 C 214.83 28.09 212.51 26.52 210.66 24.43 Z" />
</g>
<g id="#9db4c9ff">
<path fill="#9db4c9" opacity="1.00" d=" M 11.67 22.94 C 12.29 22.82 13.55 22.59 14.17 22.47 C 14.32 22.87 14.62 23.65 14.77 24.05 L 14.47 24.68 C 13.81 24.43 12.48 23.93 11.82 23.68 L 11.67 22.94 Z" />
<path fill="#9db4c9" opacity="1.00" d=" M 67.72 22.97 C 68.31 22.84 69.48 22.60 70.07 22.48 C 70.21 22.88 70.50 23.69 70.64 24.09 L 70.56 24.81 C 69.88 24.55 68.52 24.02 67.84 23.76 L 67.72 22.97 Z" />
<path fill="#9db4c9" opacity="1.00" d=" M 179.72 22.97 C 180.31 22.84 181.48 22.60 182.07 22.48 C 182.21 22.88 182.50 23.69 182.64 24.09 L 182.56 24.81 C 181.88 24.55 180.52 24.02 179.84 23.76 L 179.72 22.97 Z" />
</g>
<g id="#4379cbff">
<path fill="#4379cb" opacity="1.00" d=" M 44.48 22.59 L 44.89 21.96 C 45.66 22.72 46.43 23.48 47.20 24.23 C 45.74 22.92 43.49 25.87 45.65 26.44 C 48.74 28.32 52.42 28.24 55.91 28.35 C 55.90 28.60 55.89 29.12 55.88 29.38 C 53.99 30.71 51.91 31.82 50.27 33.47 C 48.88 36.73 53.10 38.27 54.88 40.26 C 49.88 39.25 44.92 38.00 40.26 35.88 C 40.51 34.98 40.76 34.09 41.01 33.19 C 43.12 34.16 45.26 35.04 47.37 35.98 C 47.81 34.41 48.29 32.85 48.50 31.24 C 46.82 29.04 44.65 27.27 42.85 25.18 C 43.17 24.67 43.79 23.67 44.11 23.17 L 44.48 22.59 Z" />
<path fill="#4379cb" opacity="1.00" d=" M 198.58 44.25 C 207.00 42.27 215.53 45.03 224.00 45.11 L 224.00 45.76 C 219.84 46.19 215.70 47.26 211.50 47.18 C 207.13 46.51 202.86 45.33 198.58 44.25 Z" />
</g>
<g id="#65569cff">
<path fill="#65569c" opacity="1.00" d=" M 157.15 22.40 C 161.14 21.58 156.30 26.38 157.15 22.40 Z" />
<path fill="#65569c" opacity="1.00" d=" M 161.37 21.63 L 162.32 21.83 C 162.67 21.90 163.38 22.06 163.73 22.14 L 164.17 22.28 C 165.18 22.63 166.18 22.98 167.18 23.34 C 165.16 24.12 163.14 24.89 161.11 25.66 C 161.25 24.32 161.30 22.97 161.37 21.63 Z" />
<path fill="#65569c" opacity="1.00" d=" M 101.15 23.40 C 105.14 22.58 100.30 27.38 101.15 23.40 Z" />
<path fill="#65569c" opacity="1.00" d=" M 105.97 23.08 L 106.48 22.66 C 106.82 22.70 107.50 22.79 107.84 22.84 L 108.29 23.08 C 109.30 23.69 110.31 24.32 111.31 24.96 C 108.75 25.12 106.19 25.22 103.63 25.21 C 104.22 24.68 105.38 23.61 105.97 23.08 Z" />
<path fill="#65569c" opacity="1.00" d=" M 213.74 25.54 C 210.75 24.08 215.42 22.01 214.45 25.30 L 213.74 25.54 Z" />
<path fill="#65569c" opacity="1.00" d=" M 217.99 23.16 L 218.55 22.81 C 218.88 22.83 219.55 22.87 219.88 22.88 L 220.32 23.13 C 221.34 23.79 222.35 24.47 223.35 25.16 C 220.61 25.21 217.87 25.24 215.14 25.08 C 215.85 24.60 217.28 23.64 217.99 23.16 Z" />
<path fill="#65569c" opacity="1.00" d=" M 45.65 26.44 C 43.49 25.87 45.74 22.92 47.20 24.23 C 46.81 24.79 46.04 25.89 45.65 26.44 Z" />
<path fill="#65569c" opacity="1.00" d=" M 49.35 23.97 L 50.55 23.85 C 50.89 23.79 51.58 23.69 51.92 23.63 L 52.84 23.43 C 53.53 24.34 54.23 25.26 54.92 26.17 C 52.65 26.24 50.38 26.28 48.10 26.32 C 48.41 25.74 49.04 24.56 49.35 23.97 Z" />
</g>
<g id="#79a55dff">
<path fill="#79a55d" opacity="1.00" d=" M 0.69 25.48 C 2.44 24.40 4.31 23.52 6.33 23.12 C 6.56 23.53 7.02 24.34 7.25 24.74 C 5.88 25.47 4.50 26.88 5.07 28.56 C 5.10 28.72 5.15 29.02 5.18 29.18 C 5.37 30.39 5.52 31.62 5.67 32.84 L 5.81 33.93 C 4.96 33.24 4.11 32.56 3.26 31.89 C 4.10 38.33 5.84 44.67 5.74 51.20 C 5.76 51.49 5.80 52.07 5.83 52.35 C 5.93 53.57 6.02 54.78 6.09 56.00 L 0.00 56.00 L 0.00 23.42 C 0.23 24.11 0.46 24.79 0.69 25.48 Z" />
</g>
<g id="#78a55dff">
<path fill="#78a55d" opacity="1.00" d=" M 58.85 23.13 C 60.09 23.31 61.33 23.49 62.57 23.72 C 62.73 23.98 63.04 24.51 63.19 24.77 C 61.84 25.50 60.49 26.92 61.07 28.58 C 61.09 28.72 61.14 29.00 61.17 29.14 C 61.38 30.39 61.53 31.65 61.71 32.90 L 61.86 33.95 C 60.99 33.26 60.13 32.57 59.25 31.90 C 60.41 38.33 61.23 44.81 62.14 51.27 C 62.28 51.59 62.55 52.23 62.68 52.55 C 62.50 53.26 62.15 54.67 61.97 55.38 L 62.19 56.00 L 47.81 56.00 C 50.56 54.16 53.25 52.26 55.96 50.37 C 55.98 49.24 55.99 48.11 56.00 46.98 L 56.00 46.31 C 56.01 40.66 55.87 35.02 55.88 29.38 C 55.89 29.12 55.90 28.60 55.91 28.35 C 55.96 26.86 55.97 25.38 55.96 23.90 C 56.53 24.60 57.10 25.30 57.68 26.00 C 58.07 25.04 58.46 24.09 58.85 23.13 Z" />
<path fill="#78a55d" opacity="1.00" d=" M 112.98 25.25 C 114.67 24.31 116.45 23.55 118.34 23.11 C 118.57 23.52 119.02 24.33 119.25 24.74 C 117.89 25.48 116.50 26.89 117.06 28.58 C 117.09 28.73 117.14 29.02 117.17 29.16 C 117.37 30.40 117.53 31.64 117.71 32.88 L 117.86 33.94 C 117.00 33.26 116.13 32.57 115.25 31.90 C 116.42 38.33 117.21 44.82 118.17 51.29 C 118.29 51.60 118.55 52.23 118.67 52.54 C 118.50 53.25 118.14 54.67 117.96 55.38 L 118.19 56.00 L 103.78 56.00 C 106.49 54.22 109.22 52.47 111.94 50.71 C 111.96 49.11 111.98 47.52 112.00 45.93 L 112.00 45.01 C 112.04 39.53 111.96 34.06 111.95 28.59 C 111.95 27.06 111.96 25.53 111.96 24.00 C 112.30 24.42 112.64 24.83 112.98 25.25 Z" />
<path fill="#78a55d" opacity="1.00" d=" M 168.99 25.25 C 170.67 24.32 172.44 23.53 174.34 23.12 C 174.56 23.53 175.02 24.34 175.25 24.74 C 173.89 25.48 172.49 26.89 173.07 28.58 C 173.10 28.72 173.15 29.00 173.17 29.15 C 173.38 30.40 173.53 31.65 173.71 32.90 L 173.86 33.95 C 172.99 33.26 172.13 32.57 171.25 31.90 C 172.41 38.33 173.23 44.81 174.14 51.27 C 174.28 51.59 174.55 52.23 174.68 52.55 C 174.50 53.26 174.15 54.67 173.97 55.38 L 174.19 56.00 L 159.83 56.00 C 162.53 54.18 165.22 52.34 167.91 50.51 C 167.84 48.59 167.77 46.68 167.74 44.76 L 167.74 44.26 C 167.82 38.70 167.93 33.14 167.97 27.58 C 167.97 26.37 167.97 25.17 167.95 23.97 C 168.30 24.40 168.64 24.82 168.99 25.25 Z" />
</g>
<g id="#298ed7ff">
<path fill="#298ed7" opacity="1.00" d=" M 67.84 23.76 C 68.52 24.02 69.88 24.55 70.56 24.81 C 71.28 35.19 71.86 45.62 70.65 56.00 L 69.10 56.00 C 69.01 55.43 68.83 54.30 68.74 53.73 L 68.61 52.96 C 68.57 52.57 68.49 51.80 68.46 51.42 C 68.26 50.11 68.01 48.80 67.71 47.52 C 69.28 46.90 69.55 44.80 68.64 43.53 C 68.10 42.37 67.58 41.21 67.05 40.05 C 68.37 40.19 69.38 38.90 69.13 37.65 C 69.14 36.00 69.13 34.36 69.09 32.71 L 68.99 31.88 C 68.68 29.17 68.26 26.46 67.84 23.76 Z" />
<path fill="#298ed7" opacity="1.00" d=" M 179.84 23.76 C 180.52 24.02 181.88 24.55 182.56 24.81 C 183.28 35.19 183.86 45.62 182.65 56.00 L 181.10 56.00 C 181.01 55.43 180.83 54.30 180.74 53.73 L 180.61 52.96 C 180.57 52.57 180.49 51.80 180.46 51.42 C 180.25 50.11 180.01 48.80 179.71 47.52 C 181.28 46.90 181.55 44.80 180.64 43.53 C 180.10 42.37 179.58 41.21 179.05 40.05 C 180.37 40.19 181.38 38.90 181.13 37.65 C 181.14 36.00 181.12 34.36 181.09 32.71 L 180.99 31.88 C 180.68 29.17 180.26 26.46 179.84 23.76 Z" />
</g>
<g id="#416845ff">
<path fill="#416845" opacity="1.00" d=" M 7.25 24.74 C 8.53 26.43 6.70 28.19 5.07 28.56 C 4.50 26.88 5.88 25.47 7.25 24.74 Z" />
<path fill="#416845" opacity="1.00" d=" M 63.19 24.77 C 64.52 26.43 62.71 28.23 61.07 28.58 C 60.49 26.92 61.84 25.50 63.19 24.77 Z" />
<path fill="#416845" opacity="1.00" d=" M 119.25 24.74 C 120.52 26.43 118.70 28.20 117.06 28.58 C 116.50 26.89 117.89 25.48 119.25 24.74 Z" />
<path fill="#416845" opacity="1.00" d=" M 175.25 24.74 C 176.53 26.43 174.70 28.20 173.07 28.58 C 172.49 26.89 173.89 25.48 175.25 24.74 Z" />
<path fill="#416845" opacity="1.00" d=" M 62.68 52.55 L 63.46 52.73 C 63.34 53.83 62.84 54.72 61.97 55.38 C 62.15 54.67 62.50 53.26 62.68 52.55 Z" />
<path fill="#416845" opacity="1.00" d=" M 118.67 52.54 L 119.44 52.73 C 119.33 53.83 118.84 54.71 117.96 55.38 C 118.14 54.67 118.50 53.25 118.67 52.54 Z" />
<path fill="#416845" opacity="1.00" d=" M 174.68 52.55 L 175.46 52.73 C 175.34 53.83 174.84 54.72 173.97 55.38 C 174.15 54.67 174.50 53.26 174.68 52.55 Z" />
</g>
<g id="#525548ff">
<path fill="#525548" opacity="1.00" d=" M 8.33 27.44 C 9.89 28.31 11.44 29.18 12.99 30.07 C 13.05 31.01 13.09 31.95 13.12 32.89 C 10.64 32.80 8.16 32.81 5.67 32.84 C 5.52 31.62 5.37 30.39 5.18 29.18 C 6.72 29.64 8.27 30.04 9.83 30.46 C 9.33 29.45 8.83 28.45 8.33 27.44 Z" />
<path fill="#525548" opacity="1.00" d=" M 64.70 26.97 C 66.20 28.55 67.69 30.14 68.99 31.88 L 69.09 32.71 C 66.63 32.73 64.17 32.79 61.71 32.90 C 61.53 31.65 61.38 30.39 61.17 29.14 C 62.67 29.63 64.18 30.08 65.70 30.52 C 65.36 29.34 65.03 28.16 64.70 26.97 Z" />
<path fill="#525548" opacity="1.00" d=" M 120.32 27.39 C 121.78 28.26 123.25 29.15 124.70 30.05 C 124.74 30.97 124.76 31.89 124.76 32.81 C 122.41 32.78 120.06 32.81 117.71 32.88 C 117.53 31.64 117.37 30.40 117.17 29.16 C 118.71 29.63 120.27 30.05 121.83 30.46 C 121.32 29.44 120.82 28.41 120.32 27.39 Z" />
<path fill="#525548" opacity="1.00" d=" M 176.70 26.97 C 178.20 28.55 179.69 30.14 180.99 31.88 L 181.09 32.71 C 178.63 32.73 176.17 32.79 173.71 32.90 C 173.53 31.65 173.38 30.40 173.17 29.15 C 174.67 29.64 176.18 30.08 177.70 30.52 C 177.36 29.34 177.03 28.16 176.70 26.97 Z" />
</g>
<g id="#8aa3b5ff">
<path fill="#8aa3b5" opacity="1.00" d=" M 12.77 27.78 C 13.30 29.31 13.88 30.84 14.44 32.36 L 14.11 33.10 C 13.87 33.62 13.39 34.65 13.15 35.16 C 13.14 34.60 13.13 33.46 13.12 32.89 C 13.09 31.95 13.05 31.01 12.99 30.07 C 12.93 29.49 12.82 28.35 12.77 27.78 Z" />
</g>
<g id="#525b48ff">
<path fill="#525b48" opacity="1.00" d=" M 3.26 31.89 C 4.11 32.56 4.96 33.24 5.81 33.93 C 6.60 39.93 6.60 47.32 12.01 51.34 C 10.29 51.88 11.51 54.02 12.94 53.72 L 13.41 53.80 C 11.79 53.90 10.16 53.99 8.54 54.07 C 8.15 54.55 7.36 55.52 6.97 56.00 L 6.09 56.00 C 6.02 54.78 5.93 53.57 5.83 52.35 C 6.89 52.56 8.97 52.80 9.14 51.31 C 8.36 50.17 6.76 50.77 5.74 51.20 C 5.84 44.67 4.10 38.33 3.26 31.89 Z" />
</g>
<g id="#322f2cff">
<path fill="#322f2c" opacity="1.00" d=" M 5.67 32.84 C 8.16 32.81 10.64 32.80 13.12 32.89 C 13.13 33.46 13.14 34.60 13.15 35.16 C 13.00 35.48 12.72 36.10 12.58 36.42 C 12.37 36.87 11.95 37.78 11.74 38.23 C 10.20 36.08 8.70 39.22 11.04 39.76 L 11.13 40.44 C 11.28 41.61 11.43 42.77 11.55 43.94 C 11.63 45.11 11.83 46.27 12.15 47.40 C 12.29 48.01 12.58 49.22 12.72 49.83 C 12.70 50.35 12.67 51.40 12.65 51.92 L 12.01 51.34 C 6.60 47.32 6.60 39.93 5.81 33.93 L 5.67 32.84 M 7.06 35.02 C 7.03 35.80 6.96 37.35 6.93 38.12 C 8.73 37.13 10.51 36.12 12.30 35.12 C 10.55 35.09 8.81 35.05 7.06 35.02 Z" />
<path fill="#322f2c" opacity="1.00" d=" M 61.71 32.90 C 64.17 32.79 66.63 32.73 69.09 32.71 C 69.13 34.36 69.14 36.00 69.13 37.65 C 68.73 37.67 67.95 37.72 67.55 37.74 C 65.68 36.53 64.26 39.24 66.75 39.43 L 67.05 40.05 C 67.58 41.21 68.10 42.37 68.64 43.53 C 67.05 44.20 67.11 46.18 67.71 47.52 C 68.01 48.80 68.26 50.11 68.46 51.42 L 67.94 50.94 C 67.40 50.77 66.33 50.45 65.79 50.29 C 65.51 49.33 64.97 48.52 64.17 47.88 C 63.03 43.31 62.52 38.61 61.86 33.95 L 61.71 32.90 M 63.06 35.02 C 63.03 35.80 62.96 37.35 62.93 38.12 C 64.73 37.13 66.51 36.12 68.30 35.12 C 66.55 35.09 64.81 35.05 63.06 35.02 Z" />
<path fill="#322f2c" opacity="1.00" d=" M 117.71 32.88 C 120.06 32.81 122.41 32.78 124.76 32.81 C 124.50 34.60 124.10 36.38 123.67 38.14 C 121.95 36.08 120.86 39.41 123.17 39.76 C 123.54 43.66 124.01 47.54 124.38 51.44 L 123.90 50.94 C 123.37 50.75 122.32 50.39 121.80 50.20 C 121.63 49.13 121.03 48.40 120.01 48.03 C 119.27 43.34 118.51 38.65 117.86 33.94 L 117.71 32.88 M 119.06 35.02 C 119.03 35.80 118.96 37.35 118.93 38.12 C 120.73 37.13 122.51 36.12 124.30 35.12 C 122.55 35.09 120.80 35.05 119.06 35.02 Z" />
<path fill="#322f2c" opacity="1.00" d=" M 173.71 32.90 C 176.17 32.79 178.63 32.73 181.09 32.71 C 181.12 34.36 181.14 36.00 181.13 37.65 C 180.73 37.67 179.95 37.72 179.55 37.74 C 177.68 36.53 176.26 39.24 178.75 39.43 L 179.05 40.05 C 179.58 41.21 180.10 42.37 180.64 43.53 C 179.05 44.20 179.11 46.18 179.71 47.52 C 180.01 48.80 180.25 50.11 180.46 51.42 L 179.94 50.94 C 179.40 50.77 178.33 50.45 177.79 50.29 C 177.51 49.33 176.97 48.52 176.17 47.88 C 175.03 43.31 174.52 38.61 173.86 33.95 L 173.71 32.90 M 175.06 35.02 C 175.03 35.80 174.96 37.35 174.93 38.12 C 176.73 37.13 178.51 36.12 180.30 35.12 C 178.55 35.09 176.80 35.05 175.06 35.02 Z" />
</g>
<g id="#4b6148ff">
<path fill="#4b6148" opacity="1.00" d=" M 59.25 31.90 C 60.13 32.57 60.99 33.26 61.86 33.95 C 62.52 38.61 63.03 43.31 64.17 47.88 C 62.67 47.86 61.90 49.46 62.15 50.77 L 62.14 51.27 C 61.23 44.81 60.41 38.33 59.25 31.90 Z" />
<path fill="#4b6148" opacity="1.00" d=" M 115.25 31.90 C 116.13 32.57 117.00 33.26 117.86 33.94 C 118.51 38.65 119.27 43.34 120.01 48.03 C 118.51 47.92 117.83 49.55 118.15 50.80 L 118.17 51.29 C 117.21 44.82 116.42 38.33 115.25 31.90 Z" />
<path fill="#4b6148" opacity="1.00" d=" M 171.25 31.90 C 172.13 32.57 172.99 33.26 173.86 33.95 C 174.52 38.61 175.03 43.31 176.17 47.88 C 174.67 47.86 173.90 49.46 174.15 50.77 L 174.14 51.27 C 173.23 44.81 172.41 38.33 171.25 31.90 Z" />
</g>
<g id="#7b9eb5ff">
<path fill="#7b9eb5" opacity="1.00" d=" M 12.58 36.42 C 13.85 36.34 15.13 36.29 16.41 36.26 C 15.63 36.89 14.85 37.52 14.06 38.14 C 13.08 38.91 12.11 39.67 11.13 40.44 L 11.04 39.76 C 11.22 39.38 11.57 38.62 11.74 38.23 C 11.95 37.78 12.37 36.87 12.58 36.42 Z" />
</g>
<g id="#3490d2ff">
<path fill="#3490d2" opacity="1.00" d=" M 11.13 40.44 C 12.11 39.67 13.08 38.91 14.06 38.14 C 14.16 39.72 14.35 42.88 14.45 44.46 C 13.73 44.33 12.28 44.07 11.55 43.94 C 11.43 42.77 11.28 41.61 11.13 40.44 Z" />
</g>
<g id="#4378cbff">
<path fill="#4378cb" opacity="1.00" d=" M 103.13 38.74 C 103.44 40.81 103.72 42.89 103.99 44.97 C 106.66 44.98 109.33 44.99 112.00 45.01 L 112.00 45.93 C 107.83 46.26 103.69 47.22 99.50 47.17 C 95.12 46.51 90.84 45.33 86.55 44.23 C 91.24 43.18 96.04 43.57 100.75 44.26 C 101.55 42.42 102.36 40.59 103.13 38.74 Z" />
<path fill="#4378cb" opacity="1.00" d=" M 43.42 44.24 C 44.35 42.88 45.27 41.51 46.18 40.13 C 46.54 41.70 46.77 43.31 47.39 44.80 C 50.14 45.82 53.12 45.84 56.00 46.31 L 56.00 46.98 C 51.70 46.70 47.14 45.99 43.37 48.55 C 39.73 45.91 35.26 45.11 30.85 45.49 C 32.08 44.73 33.31 43.96 34.53 43.20 C 37.48 43.67 40.44 44.01 43.42 44.24 Z" />
</g>
<g id="#86a0b0fe">
<path fill="#86a0b0" opacity="1.00" d=" M 11.55 43.94 C 12.28 44.07 13.73 44.33 14.45 44.46 L 15.11 44.81 C 14.25 45.81 13.30 46.74 12.15 47.40 C 11.83 46.27 11.63 45.11 11.55 43.94 Z" />
</g>
<g id="#4575cbff">
<path fill="#4575cb" opacity="1.00" d=" M 163.77 44.24 C 164.84 43.19 166.53 43.79 167.74 44.26 L 167.74 44.76 C 166.64 45.24 163.91 46.03 163.77 44.24 Z" />
</g>
<g id="#288ad6ff">
<path fill="#288ad6" opacity="1.00" d=" M 15.11 44.81 C 15.50 44.99 16.30 45.36 16.69 45.54 C 15.52 46.81 14.36 48.09 13.17 49.36 L 12.72 49.83 C 12.58 49.22 12.29 48.01 12.15 47.40 C 13.30 46.74 14.25 45.81 15.11 44.81 Z" />
</g>
<g id="#417acbff">
<path fill="#417acb" opacity="1.00" d=" M 131.02 47.36 C 131.82 46.66 132.66 46.00 133.54 45.40 C 138.69 49.56 145.24 51.47 150.15 56.00 L 139.65 56.00 C 139.13 55.55 138.09 54.65 137.56 54.20 C 139.57 53.94 143.60 53.42 145.61 53.16 C 140.31 49.87 133.67 50.03 128.60 53.67 C 130.32 51.93 132.03 50.17 133.74 48.43 C 133.06 48.16 131.70 47.63 131.02 47.36 Z" />
</g>
<g id="#75634eff">
<path fill="#75634e" opacity="1.00" d=" M 64.17 47.88 C 64.97 48.52 65.51 49.33 65.79 50.29 L 65.39 50.99 C 64.97 50.86 64.11 50.61 63.69 50.48 C 63.81 49.83 64.05 48.53 64.17 47.88 Z" />
<path fill="#75634e" opacity="1.00" d=" M 120.01 48.03 C 121.03 48.40 121.63 49.13 121.80 50.20 L 121.39 50.90 C 120.98 50.80 120.15 50.59 119.73 50.49 C 119.80 49.87 119.94 48.64 120.01 48.03 Z" />
<path fill="#75634e" opacity="1.00" d=" M 176.17 47.88 C 176.97 48.52 177.51 49.33 177.79 50.29 L 177.39 50.99 C 176.97 50.86 176.11 50.61 175.69 50.48 C 175.81 49.83 176.05 48.53 176.17 47.88 Z" />
<path fill="#75634e" opacity="1.00" d=" M 64.22 52.64 C 64.80 52.47 65.94 52.14 66.52 51.98 L 66.69 52.72 C 66.29 52.98 65.48 53.52 65.08 53.79 L 64.51 53.31 L 64.22 52.64 Z" />
<path fill="#75634e" opacity="1.00" d=" M 120.19 52.63 C 120.76 52.46 121.89 52.12 122.45 51.95 L 122.60 52.72 C 122.21 52.99 121.43 53.53 121.04 53.80 L 120.48 53.31 L 120.19 52.63 Z" />
<path fill="#75634e" opacity="1.00" d=" M 176.22 52.64 C 176.80 52.47 177.94 52.14 178.52 51.98 L 178.69 52.72 C 178.29 52.98 177.48 53.52 177.08 53.79 L 176.51 53.30 L 176.22 52.64 Z" />
</g>
<g id="#332e2aff">
<path fill="#332e2a" opacity="1.00" d=" M 5.74 51.20 C 6.76 50.77 8.36 50.17 9.14 51.31 C 8.97 52.80 6.89 52.56 5.83 52.35 C 5.80 52.07 5.76 51.49 5.74 51.20 Z" />
<path fill="#332e2a" opacity="1.00" d=" M 45.97 54.03 C 48.89 51.88 52.49 51.13 55.96 50.37 C 53.25 52.26 50.56 54.16 47.81 56.00 L 44.08 56.00 C 44.55 55.51 45.50 54.53 45.97 54.03 Z" />
<path fill="#332e2a" opacity="1.00" d=" M 62.14 51.27 L 62.15 50.77 C 62.53 50.70 63.30 50.55 63.69 50.48 C 64.11 50.61 64.97 50.86 65.39 50.99 C 65.68 51.23 66.24 51.73 66.52 51.98 C 65.94 52.14 64.80 52.47 64.22 52.64 L 63.46 52.73 L 62.68 52.55 C 62.55 52.23 62.28 51.59 62.14 51.27 Z" />
<path fill="#332e2a" opacity="1.00" d=" M 103.00 52.18 C 106.01 51.83 108.96 51.19 111.94 50.71 C 109.22 52.47 106.49 54.22 103.78 56.00 L 100.84 56.00 L 100.82 55.48 C 101.87 54.57 102.60 53.47 103.00 52.18 Z" />
<path fill="#332e2a" opacity="1.00" d=" M 118.17 51.29 L 118.15 50.80 C 118.55 50.72 119.34 50.57 119.73 50.49 C 120.15 50.59 120.98 50.80 121.39 50.90 C 121.66 51.16 122.19 51.69 122.45 51.95 C 121.89 52.12 120.76 52.46 120.19 52.63 L 119.44 52.73 L 118.67 52.54 C 118.55 52.23 118.29 51.60 118.17 51.29 Z" />
<path fill="#332e2a" opacity="1.00" d=" M 157.89 53.21 C 161.23 52.29 164.56 51.40 167.91 50.51 C 165.22 52.34 162.53 54.18 159.83 56.00 L 156.62 56.00 C 156.94 55.30 157.58 53.91 157.89 53.21 Z" />
<path fill="#332e2a" opacity="1.00" d=" M 174.14 51.27 L 174.15 50.77 C 174.53 50.70 175.30 50.55 175.69 50.48 C 176.11 50.61 176.97 50.86 177.39 50.99 C 177.68 51.23 178.24 51.73 178.52 51.98 C 177.94 52.14 176.80 52.47 176.22 52.64 L 175.46 52.73 L 174.68 52.55 C 174.55 52.23 174.28 51.59 174.14 51.27 Z" />
<path fill="#332e2a" opacity="1.00" d=" M 215.01 52.21 C 218.04 51.85 221.00 51.16 224.00 50.55 L 224.00 51.05 C 221.19 52.70 218.40 54.36 215.59 56.00 L 212.84 56.00 L 212.82 55.48 C 213.86 54.58 214.59 53.49 215.01 52.21 Z" />
<path fill="#332e2a" opacity="1.00" d=" M 8.54 54.07 C 10.16 53.99 11.79 53.90 13.41 53.80 C 13.11 54.35 12.50 55.45 12.20 56.00 L 6.97 56.00 C 7.36 55.52 8.15 54.55 8.54 54.07 Z" />
<path fill="#332e2a" opacity="1.00" d=" M 64.51 53.31 L 65.08 53.79 C 65.66 55.81 68.43 56.13 68.74 53.73 C 68.83 54.30 69.01 55.43 69.10 56.00 L 63.73 56.00 C 63.93 55.33 64.32 53.98 64.51 53.31 Z" />
<path fill="#332e2a" opacity="1.00" d=" M 120.48 53.31 L 121.04 53.80 C 121.64 55.75 124.44 56.22 124.71 53.78 C 124.89 54.33 125.25 55.44 125.44 56.00 L 119.74 56.00 C 119.92 55.33 120.30 53.98 120.48 53.31 Z" />
<path fill="#332e2a" opacity="1.00" d=" M 176.51 53.30 L 177.08 53.79 C 177.66 55.81 180.43 56.13 180.74 53.73 C 180.83 54.30 181.01 55.43 181.10 56.00 L 175.73 56.00 C 175.93 55.33 176.32 53.98 176.51 53.30 Z" />
</g>
<g id="#3686d0ff">
<path fill="#3686d0" opacity="1.00" d=" M 42.68 51.52 C 43.91 51.36 45.15 51.19 46.38 51.01 C 44.82 51.97 43.33 53.04 41.90 54.18 C 42.10 53.51 42.49 52.19 42.68 51.52 Z" />
</g>
<g id="#809db3ff">
<path fill="#809db3" opacity="1.00" d=" M 46.38 51.01 L 47.49 50.80 C 47.00 51.89 46.50 52.97 45.97 54.03 C 45.50 54.53 44.55 55.51 44.08 56.00 L 41.29 56.00 C 41.44 55.54 41.75 54.63 41.90 54.18 C 43.33 53.04 44.82 51.97 46.38 51.01 Z" />
</g>
<g id="#2e83d0ff">
<path fill="#2e83d0" opacity="1.00" d=" M 97.39 56.00 C 98.82 54.56 100.26 53.13 101.72 51.73 C 100.33 52.50 100.57 54.18 100.82 55.48 L 100.84 56.00 L 97.39 56.00 Z" />
<path fill="#2e83d0" opacity="1.00" d=" M 209.39 56.00 C 210.82 54.56 212.26 53.13 213.72 51.73 C 212.33 52.49 212.57 54.18 212.82 55.48 L 212.84 56.00 L 209.39 56.00 Z" />
</g>
<g id="#67839bff">
<path fill="#67839b" opacity="1.00" d=" M 101.72 51.73 C 102.04 51.84 102.68 52.06 103.00 52.18 C 102.60 53.47 101.87 54.57 100.82 55.48 C 100.57 54.18 100.33 52.50 101.72 51.73 Z" />
<path fill="#67839b" opacity="1.00" d=" M 213.72 51.73 C 214.04 51.85 214.69 52.09 215.01 52.21 C 214.59 53.49 213.86 54.58 212.82 55.48 C 212.57 54.18 212.33 52.49 213.72 51.73 Z" />
</g>
<g id="#74a05cff">
<path fill="#74a05c" opacity="1.00" d=" M 215.59 56.00 C 218.40 54.36 221.19 52.70 224.00 51.05 L 224.00 56.00 L 215.59 56.00 Z" />
</g>
<g id="#3b6bbefe">
<path fill="#3b6bbe" opacity="1.00" d=" M 65.08 53.79 C 65.48 53.52 66.29 52.98 66.69 52.72 C 67.17 52.78 68.13 52.90 68.61 52.96 L 68.74 53.73 C 68.43 56.13 65.66 55.81 65.08 53.79 Z" />
<path fill="#3b6bbe" opacity="1.00" d=" M 121.04 53.80 C 121.43 53.53 122.21 52.99 122.60 52.72 C 123.07 52.79 124.00 52.93 124.46 53.00 L 124.71 53.78 C 124.44 56.22 121.64 55.75 121.04 53.80 Z" />
<path fill="#3b6bbe" opacity="1.00" d=" M 177.08 53.79 C 177.48 53.52 178.29 52.98 178.69 52.72 C 179.17 52.78 180.13 52.90 180.61 52.96 L 180.74 53.73 C 180.43 56.13 177.66 55.81 177.08 53.79 Z" />
</g>
<g id="#2e86d2ff">
<path fill="#2e86d2" opacity="1.00" d=" M 154.22 56.00 C 154.56 54.23 156.23 53.36 157.89 53.21 C 157.58 53.91 156.94 55.30 156.62 56.00 L 154.22 56.00 Z" />
</g>
</svg>
