<?xml version="1.0" encoding="UTF-8" ?>
<!DOCTYPE svg PUBLIC "-//W3C//DTD SVG 1.1//EN" "http://www.w3.org/Graphics/SVG/1.1/DTD/svg11.dtd">
<svg width="224pt" height="56pt" viewBox="0 0 224 56" version="1.1" xmlns="http://www.w3.org/2000/svg">
<g id="#89b261ff">
<path fill="#89b261" opacity="1.00" d=" M 0.00 0.00 L 5.07 0.00 C 4.40 4.08 4.18 8.21 3.62 12.31 C 4.98 11.52 6.33 10.70 7.74 10.01 C 6.96 11.36 6.19 12.72 5.36 14.05 L 4.99 14.55 C 3.84 14.42 2.70 14.48 1.57 14.71 C 2.80 10.61 2.97 6.26 1.71 2.14 C 1.28 3.06 0.43 4.88 0.00 5.80 L 0.00 0.00 Z" />
</g>
<g id="#65925eff">
<path fill="#65925e" opacity="1.00" d=" M 5.07 0.00 L 5.83 0.00 C 7.41 1.04 8.96 2.12 10.55 3.15 C 9.73 2.08 8.90 1.03 8.05 -0.00 L 10.29 0.00 C 11.15 2.01 11.92 4.06 12.68 6.11 C 10.26 5.28 7.78 4.68 5.27 4.18 C 6.72 5.91 8.24 7.57 9.81 9.18 C 9.11 9.43 8.42 9.71 7.74 10.01 C 6.33 10.70 4.98 11.52 3.62 12.31 C 4.18 8.21 4.40 4.08 5.07 0.00 Z" />
<path fill="#65925e" opacity="1.00" d=" M 45.73 0.00 L 47.96 0.00 C 47.11 1.03 46.27 2.08 45.45 3.15 C 47.04 2.12 48.60 1.04 50.19 0.00 L 50.97 0.00 C 51.63 4.13 51.90 8.31 52.47 12.46 C 51.11 11.64 49.76 10.81 48.36 10.07 C 47.67 9.71 46.97 9.38 46.25 9.09 C 47.80 7.51 49.30 5.88 50.73 4.19 C 48.22 4.68 45.73 5.28 43.31 6.10 C 44.08 4.06 44.86 2.01 45.73 0.00 Z" />
<path fill="#65925e" opacity="1.00" d=" M 61.09 0.00 L 61.83 0.00 C 63.41 1.04 64.96 2.12 66.55 3.15 C 65.73 2.08 64.90 1.03 64.04 0.00 L 66.29 0.00 C 67.15 2.01 67.92 4.05 68.68 6.10 C 66.26 5.28 63.78 4.68 61.27 4.19 C 62.71 5.89 64.22 7.53 65.78 9.11 C 65.00 9.39 64.22 9.69 63.46 10.02 C 62.14 10.71 60.89 11.53 59.62 12.32 C 60.17 8.22 60.40 4.08 61.09 0.00 Z" />
<path fill="#65925e" opacity="1.00" d=" M 101.73 0.00 L 103.96 0.00 C 103.10 1.03 102.27 2.08 101.45 3.15 C 103.04 2.12 104.60 1.04 106.19 0.00 L 106.97 0.00 C 107.63 4.13 107.90 8.31 108.47 12.46 C 107.11 11.64 105.76 10.81 104.36 10.07 C 103.67 9.71 102.96 9.38 102.25 9.09 C 103.80 7.51 105.30 5.88 106.73 4.19 C 104.22 4.68 101.73 5.28 99.31 6.10 C 100.08 4.06 100.86 2.01 101.73 0.00 Z" />
<path fill="#65925e" opacity="1.00" d=" M 117.09 0.00 L 117.83 0.00 C 119.41 1.04 120.96 2.12 122.55 3.15 C 121.73 2.08 120.90 1.03 120.04 -0.00 L 122.29 0.00 C 123.15 2.01 123.92 4.05 124.68 6.10 C 122.26 5.28 119.78 4.68 117.27 4.19 C 118.70 5.89 120.22 7.53 121.78 9.11 C 121.00 9.39 120.22 9.69 119.46 10.02 C 118.14 10.71 116.89 11.53 115.62 12.32 C 116.17 8.22 116.40 4.08 117.09 0.00 Z" />
<path fill="#65925e" opacity="1.00" d=" M 157.73 0.00 L 159.96 0.00 C 159.10 1.03 158.26 2.08 157.45 3.15 C 159.04 2.12 160.60 1.04 162.19 0.00 L 162.97 0.00 C 163.63 4.13 163.90 8.31 164.47 12.46 C 163.11 11.64 161.76 10.81 160.36 10.07 C 159.67 9.71 158.96 9.38 158.25 9.09 C 159.80 7.51 161.30 5.88 162.73 4.19 C 160.22 4.68 157.73 5.28 155.31 6.10 C 156.08 4.06 156.86 2.01 157.73 0.00 Z" />
<path fill="#65925e" opacity="1.00" d=" M 173.09 0.00 L 173.83 0.00 C 175.41 1.04 176.96 2.12 178.55 3.15 C 177.73 2.08 176.90 1.03 176.04 -0.00 L 178.29 0.00 C 179.15 2.01 179.92 4.05 180.68 6.10 C 178.26 5.28 175.77 4.68 173.27 4.19 C 174.70 5.89 176.21 7.53 177.78 9.11 C 177.00 9.39 176.22 9.69 175.46 10.02 C 174.14 10.71 172.89 11.53 171.62 12.32 C 172.17 8.22 172.40 4.08 173.09 0.00 Z" />
<path fill="#65925e" opacity="1.00" d=" M 213.73 0.00 L 215.95 0.00 C 215.10 1.03 214.26 2.08 213.45 3.15 C 215.03 2.12 216.59 1.05 218.16 0.00 L 218.91 0.00 C 219.62 4.13 219.91 8.32 220.48 12.47 C 219.10 11.66 217.72 10.83 216.30 10.08 C 215.62 9.73 214.93 9.41 214.22 9.12 C 215.79 7.53 217.29 5.89 218.73 4.19 C 216.22 4.67 213.73 5.28 211.31 6.11 C 212.08 4.06 212.85 2.01 213.73 0.00 Z" />
</g>
<g id="#87b05cff">
<path fill="#87b05c" opacity="1.00" d=" M 5.83 0.00 L 8.05 0.00 C 8.90 1.03 9.73 2.08 10.55 3.15 C 8.96 2.12 7.41 1.04 5.83 0.00 Z" />
<path fill="#87b05c" opacity="1.00" d=" M 47.96 0.00 L 50.19 0.00 C 48.60 1.04 47.04 2.12 45.45 3.15 C 46.27 2.08 47.11 1.03 47.96 0.00 Z" />
<path fill="#87b05c" opacity="1.00" d=" M 61.83 0.00 L 64.04 0.00 C 64.90 1.03 65.73 2.08 66.55 3.15 C 64.96 2.12 63.41 1.04 61.83 0.00 Z" />
<path fill="#87b05c" opacity="1.00" d=" M 103.96 0.00 L 106.19 0.00 C 104.60 1.04 103.04 2.12 101.45 3.15 C 102.27 2.08 103.10 1.03 103.96 0.00 Z" />
<path fill="#87b05c" opacity="1.00" d=" M 117.83 0.00 L 120.04 0.00 C 120.90 1.03 121.73 2.08 122.55 3.15 C 120.96 2.12 119.41 1.04 117.83 0.00 Z" />
<path fill="#87b05c" opacity="1.00" d=" M 159.96 0.00 L 162.19 0.00 C 160.60 1.04 159.04 2.12 157.45 3.15 C 158.26 2.08 159.10 1.03 159.96 0.00 Z" />
<path fill="#87b05c" opacity="1.00" d=" M 173.83 0.00 L 176.04 0.00 C 176.90 1.03 177.73 2.08 178.55 3.15 C 176.96 2.12 175.41 1.04 173.83 0.00 Z" />
<path fill="#87b05c" opacity="1.00" d=" M 215.95 0.00 L 218.16 0.00 C 216.59 1.05 215.03 2.12 213.45 3.15 C 214.26 2.08 215.10 1.03 215.95 0.00 Z" />
<path fill="#87b05c" opacity="1.00" d=" M 55.17 32.00 C 52.42 28.83 59.58 28.83 56.83 32.00 C 56.41 32.00 55.59 32.00 55.17 32.00 Z" />
<path fill="#87b05c" opacity="1.00" d=" M 111.17 32.00 C 108.42 28.83 115.58 28.83 112.83 32.00 C 112.41 32.00 111.59 32.00 111.17 32.00 Z" />
<path fill="#87b05c" opacity="1.00" d=" M 167.17 32.00 C 164.42 28.83 171.58 28.83 168.83 32.00 C 168.41 32.00 167.59 32.00 167.17 32.00 Z" />
</g>
<g id="#84ab5bff">
<path fill="#84ab5b" opacity="1.00" d=" M 10.29 0.00 L 16.13 0.00 C 17.55 0.26 20.39 0.78 21.81 1.04 C 22.91 0.69 24.02 0.34 25.13 0.00 L 28.06 0.00 C 27.18 1.49 26.36 3.02 25.49 4.52 C 25.21 4.62 24.65 4.83 24.37 4.93 C 22.94 5.42 21.52 5.95 20.10 6.46 C 19.70 5.52 18.89 3.64 18.49 2.70 C 16.70 4.35 14.96 6.06 13.44 7.96 C 12.22 8.33 11.01 8.75 9.81 9.18 C 8.24 7.57 6.72 5.91 5.27 4.18 C 7.78 4.68 10.26 5.28 12.68 6.11 C 11.92 4.06 11.15 2.01 10.29 0.00 Z" />
<path fill="#84ab5b" opacity="1.00" d=" M 28.47 0.00 L 31.17 0.00 C 32.58 0.26 35.41 0.78 36.82 1.04 C 37.92 0.68 39.03 0.34 40.13 0.00 L 45.73 0.00 C 44.86 2.01 44.08 4.06 43.31 6.10 C 45.73 5.28 48.22 4.68 50.73 4.19 C 49.30 5.88 47.80 7.51 46.25 9.09 C 45.03 8.67 43.80 8.27 42.56 7.92 C 41.03 6.03 39.30 4.33 37.50 2.72 C 37.10 3.64 36.31 5.50 35.91 6.42 C 34.45 5.96 32.98 5.49 31.50 5.07 C 31.19 4.97 30.56 4.77 30.25 4.67 C 29.63 3.12 29.05 1.56 28.47 0.00 Z" />
<path fill="#84ab5b" opacity="1.00" d=" M 66.29 0.00 L 72.13 0.00 C 73.55 0.26 76.39 0.78 77.81 1.04 C 78.91 0.69 80.02 0.34 81.13 0.00 L 84.06 0.00 C 83.18 1.49 82.36 3.02 81.49 4.52 C 81.21 4.62 80.65 4.83 80.37 4.93 C 78.94 5.42 77.51 5.95 76.09 6.47 C 75.69 5.53 74.89 3.64 74.49 2.70 C 72.70 4.34 70.96 6.05 69.44 7.95 C 68.21 8.31 66.99 8.70 65.78 9.11 C 64.22 7.53 62.71 5.89 61.27 4.19 C 63.78 4.68 66.26 5.28 68.68 6.10 C 67.92 4.05 67.15 2.01 66.29 0.00 Z" />
<path fill="#84ab5b" opacity="1.00" d=" M 84.47 0.00 L 87.17 0.00 C 88.58 0.26 91.41 0.78 92.82 1.04 C 93.92 0.68 95.03 0.34 96.13 0.00 L 101.73 0.00 C 100.86 2.01 100.08 4.06 99.31 6.10 C 101.73 5.28 104.22 4.68 106.73 4.19 C 105.30 5.88 103.80 7.51 102.25 9.09 C 101.02 8.67 99.80 8.27 98.56 7.92 C 97.03 6.03 95.30 4.33 93.50 2.72 C 93.10 3.64 92.31 5.50 91.91 6.42 C 90.45 5.96 88.98 5.49 87.50 5.07 C 87.19 4.97 86.56 4.77 86.25 4.67 C 85.62 3.12 85.05 1.56 84.47 0.00 Z" />
<path fill="#84ab5b" opacity="1.00" d=" M 122.29 0.00 L 128.13 0.00 C 129.55 0.26 132.39 0.78 133.81 1.04 C 134.91 0.69 136.02 0.34 137.13 0.00 L 140.06 0.00 C 139.18 1.49 138.36 3.02 137.49 4.52 C 137.21 4.62 136.65 4.83 136.37 4.93 C 134.93 5.42 133.51 5.95 132.09 6.47 C 131.69 5.53 130.89 3.64 130.49 2.70 C 128.70 4.34 126.96 6.05 125.44 7.95 C 124.21 8.31 122.99 8.70 121.78 9.11 C 120.22 7.53 118.70 5.89 117.27 4.19 C 119.78 4.68 122.26 5.28 124.68 6.10 C 123.92 4.05 123.15 2.01 122.29 0.00 Z" />
<path fill="#84ab5b" opacity="1.00" d=" M 140.47 0.00 L 143.17 0.00 C 144.58 0.26 147.41 0.78 148.82 1.04 C 149.92 0.68 151.03 0.34 152.13 0.00 L 157.73 0.00 C 156.86 2.01 156.08 4.06 155.31 6.10 C 157.73 5.28 160.22 4.68 162.73 4.19 C 161.30 5.88 159.80 7.51 158.25 9.09 C 157.02 8.67 155.80 8.27 154.56 7.92 C 153.03 6.03 151.30 4.33 149.50 2.72 C 149.10 3.64 148.31 5.50 147.91 6.42 C 146.44 5.96 144.98 5.49 143.50 5.07 C 143.19 4.97 142.56 4.77 142.25 4.67 C 141.62 3.12 141.05 1.56 140.47 0.00 Z" />
<path fill="#84ab5b" opacity="1.00" d=" M 178.29 0.00 L 184.13 0.00 C 185.55 0.26 188.39 0.78 189.81 1.04 C 190.91 0.69 192.02 0.34 193.13 0.00 L 196.06 0.00 C 195.18 1.49 194.36 3.02 193.49 4.52 C 193.21 4.62 192.65 4.83 192.37 4.93 C 190.93 5.42 189.51 5.95 188.09 6.47 C 187.69 5.53 186.89 3.64 186.49 2.70 C 184.70 4.34 182.96 6.05 181.44 7.95 C 180.21 8.31 178.99 8.70 177.78 9.11 C 176.21 7.53 174.70 5.89 173.27 4.19 C 175.77 4.68 178.26 5.28 180.68 6.10 C 179.92 4.05 179.15 2.01 178.29 0.00 Z" />
<path fill="#84ab5b" opacity="1.00" d=" M 196.47 0.00 L 199.17 0.00 C 200.58 0.26 203.41 0.78 204.82 1.04 C 205.92 0.68 207.03 0.34 208.13 0.00 L 213.73 0.00 C 212.85 2.01 212.08 4.06 211.31 6.11 C 213.73 5.28 216.22 4.67 218.73 4.19 C 217.29 5.89 215.79 7.53 214.22 9.12 C 213.01 8.69 211.79 8.29 210.56 7.93 C 209.04 6.04 207.30 4.33 205.50 2.72 C 205.10 3.64 204.31 5.49 203.91 6.42 C 202.44 5.95 200.98 5.49 199.50 5.07 C 199.19 4.97 198.56 4.77 198.25 4.67 C 197.62 3.13 197.05 1.56 196.47 0.00 Z" />
</g>
<g id="#729e59fe">
<path fill="#729e59" opacity="1.00" d=" M 16.13 0.00 L 25.13 0.00 C 24.02 0.34 22.91 0.69 21.81 1.04 C 20.39 0.78 17.55 0.26 16.13 0.00 Z" />
<path fill="#729e59" opacity="1.00" d=" M 31.17 0.00 L 40.13 0.00 C 39.03 0.34 37.92 0.68 36.82 1.04 C 35.41 0.78 32.58 0.26 31.17 0.00 Z" />
<path fill="#729e59" opacity="1.00" d=" M 72.13 0.00 L 81.13 0.00 C 80.02 0.34 78.91 0.69 77.81 1.04 C 76.39 0.78 73.55 0.26 72.13 0.00 Z" />
<path fill="#729e59" opacity="1.00" d=" M 87.17 0.00 L 96.13 0.00 C 95.03 0.34 93.92 0.68 92.82 1.04 C 91.41 0.78 88.58 0.26 87.17 0.00 Z" />
<path fill="#729e59" opacity="1.00" d=" M 128.13 0.00 L 137.13 0.00 C 136.02 0.34 134.91 0.69 133.81 1.04 C 132.39 0.78 129.55 0.26 128.13 0.00 Z" />
<path fill="#729e59" opacity="1.00" d=" M 143.17 0.00 L 152.13 0.00 C 151.03 0.34 149.92 0.68 148.82 1.04 C 147.41 0.78 144.58 0.26 143.17 0.00 Z" />
<path fill="#729e59" opacity="1.00" d=" M 184.13 0.00 L 193.13 0.00 C 192.02 0.34 190.91 0.69 189.81 1.04 C 188.39 0.78 185.55 0.26 184.13 0.00 Z" />
<path fill="#729e59" opacity="1.00" d=" M 199.17 0.00 L 208.13 0.00 C 207.03 0.34 205.92 0.68 204.82 1.04 C 203.41 0.78 200.58 0.26 199.17 0.00 Z" />
</g>
<g id="#6a9758fe">
<path fill="#6a9758" opacity="1.00" d=" M 28.06 0.00 L 28.47 0.00 C 29.05 1.56 29.63 3.12 30.25 4.67 C 28.67 4.53 27.08 4.49 25.49 4.52 C 26.36 3.02 27.18 1.49 28.06 0.00 Z" />
<path fill="#6a9758" opacity="1.00" d=" M 84.06 0.00 L 84.47 0.00 C 85.05 1.56 85.62 3.12 86.25 4.67 C 84.67 4.53 83.08 4.49 81.49 4.52 C 82.36 3.02 83.18 1.49 84.06 0.00 Z" />
<path fill="#6a9758" opacity="1.00" d=" M 140.06 0.00 L 140.47 0.00 C 141.05 1.56 141.62 3.12 142.25 4.67 C 140.66 4.53 139.08 4.49 137.49 4.52 C 138.36 3.02 139.18 1.49 140.06 0.00 Z" />
<path fill="#6a9758" opacity="1.00" d=" M 196.06 0.00 L 196.47 0.00 C 197.05 1.56 197.62 3.13 198.25 4.67 C 196.66 4.53 195.07 4.49 193.49 4.52 C 194.36 3.02 195.18 1.49 196.06 0.00 Z" />
</g>
<g id="#8cb563ff">
<path fill="#8cb563" opacity="1.00" d=" M 50.97 0.00 L 52.97 0.00 C 56.24 2.95 58.21 2.95 58.88 0.00 L 61.09 0.00 C 60.40 4.08 60.17 8.22 59.62 12.32 C 60.89 11.53 62.14 10.71 63.46 10.02 C 62.84 11.40 62.22 12.77 61.60 14.15 L 60.90 14.34 C 59.59 14.56 58.35 14.94 57.15 15.50 C 57.94 12.80 59.03 10.09 59.02 7.24 C 58.41 5.08 56.24 3.93 54.60 2.60 C 53.71 4.71 52.80 6.82 51.90 8.93 C 53.73 8.50 55.55 8.07 57.38 7.64 C 56.07 9.80 54.82 12.02 54.05 14.45 C 52.94 14.33 51.83 14.28 50.72 14.27 L 50.35 14.17 C 49.71 12.79 49.06 11.42 48.36 10.07 C 49.76 10.81 51.11 11.64 52.47 12.46 C 51.90 8.31 51.63 4.13 50.97 0.00 Z" />
<path fill="#8cb563" opacity="1.00" d=" M 106.97 0.00 L 108.97 0.00 C 112.24 2.95 114.21 2.95 114.88 0.00 L 117.09 0.00 C 116.40 4.08 116.17 8.22 115.62 12.32 C 116.89 11.53 118.14 10.71 119.46 10.02 C 118.84 11.40 118.21 12.77 117.60 14.15 L 116.90 14.34 C 115.59 14.56 114.34 14.94 113.15 15.50 C 113.94 12.80 115.03 10.09 115.02 7.24 C 114.41 5.08 112.24 3.93 110.60 2.60 C 109.71 4.71 108.80 6.82 107.90 8.93 C 109.73 8.50 111.55 8.07 113.38 7.64 C 112.07 9.80 110.82 12.02 110.05 14.45 C 108.94 14.33 107.83 14.28 106.72 14.27 L 106.35 14.17 C 105.71 12.79 105.06 11.42 104.36 10.07 C 105.76 10.81 107.11 11.64 108.47 12.46 C 107.90 8.31 107.63 4.13 106.97 0.00 Z" />
<path fill="#8cb563" opacity="1.00" d=" M 162.97 0.00 L 164.97 0.00 C 168.24 2.95 170.21 2.95 170.88 0.00 L 173.09 0.00 C 172.40 4.08 172.17 8.22 171.62 12.32 C 172.89 11.53 174.14 10.71 175.46 10.02 C 174.84 11.40 174.21 12.77 173.60 14.15 L 172.90 14.34 C 171.59 14.56 170.34 14.94 169.15 15.50 C 169.94 12.80 171.03 10.09 171.02 7.24 C 170.41 5.08 168.23 3.93 166.60 2.60 C 165.71 4.71 164.80 6.82 163.90 8.93 C 165.73 8.50 167.55 8.07 169.38 7.64 C 168.07 9.80 166.81 12.02 166.05 14.45 C 164.94 14.33 163.83 14.28 162.72 14.27 L 162.35 14.17 C 161.71 12.79 161.06 11.42 160.36 10.07 C 161.76 10.81 163.11 11.64 164.47 12.46 C 163.90 8.31 163.63 4.13 162.97 0.00 Z" />
</g>
<g id="#6f9a52ff">
<path fill="#6f9a52" opacity="1.00" d=" M 52.97 0.00 L 58.88 0.00 C 58.21 2.95 56.24 2.95 52.97 0.00 Z" />
<path fill="#6f9a52" opacity="1.00" d=" M 108.97 0.00 L 114.88 0.00 C 114.21 2.95 112.24 2.95 108.97 0.00 Z" />
<path fill="#6f9a52" opacity="1.00" d=" M 164.97 0.00 L 170.88 0.00 C 170.21 2.95 168.24 2.95 164.97 0.00 Z" />
</g>
<g id="#8ab362ff">
<path fill="#8ab362" opacity="1.00" d=" M 218.91 0.00 L 224.00 0.00 L 224.00 5.66 C 223.84 4.86 223.53 3.25 223.37 2.44 C 222.13 4.58 220.91 6.72 219.72 8.88 C 221.14 8.57 222.57 8.26 224.00 7.95 L 224.00 9.13 C 223.39 11.01 222.72 12.86 222.08 14.73 C 221.05 14.50 220.02 14.40 218.97 14.41 L 218.69 13.94 C 217.90 12.64 217.13 11.35 216.30 10.08 C 217.72 10.83 219.10 11.66 220.48 12.47 C 219.91 8.32 219.62 4.13 218.91 0.00 Z" />
</g>
<g id="#6c9b5ffe">
<path fill="#6c9b5f" opacity="1.00" d=" M 1.71 2.14 C 2.97 6.26 2.80 10.61 1.57 14.71 C 1.25 15.68 0.96 16.66 0.72 17.65 C 0.54 18.38 0.18 19.83 0.00 20.56 L 0.00 9.71 C 2.28 10.81 2.28 6.88 0.00 8.09 L 0.00 5.80 C 0.43 4.88 1.28 3.06 1.71 2.14 Z" />
</g>
<g id="#608660fe">
<path fill="#608660" opacity="1.00" d=" M 13.44 7.96 C 14.96 6.06 16.70 4.35 18.49 2.70 C 18.89 3.64 19.70 5.52 20.10 6.46 C 17.87 6.93 15.64 7.37 13.44 7.96 Z" />
<path fill="#608660" opacity="1.00" d=" M 37.50 2.72 C 39.30 4.33 41.03 6.03 42.56 7.92 C 40.36 7.34 38.13 6.89 35.91 6.42 C 36.31 5.50 37.10 3.64 37.50 2.72 Z" />
<path fill="#608660" opacity="1.00" d=" M 69.44 7.95 C 70.96 6.05 72.70 4.34 74.49 2.70 C 74.89 3.64 75.69 5.53 76.09 6.47 C 73.87 6.93 71.64 7.38 69.44 7.95 Z" />
<path fill="#608660" opacity="1.00" d=" M 93.50 2.72 C 95.30 4.33 97.03 6.03 98.56 7.92 C 96.36 7.34 94.13 6.89 91.91 6.42 C 92.31 5.50 93.10 3.64 93.50 2.72 Z" />
<path fill="#608660" opacity="1.00" d=" M 125.44 7.95 C 126.96 6.05 128.70 4.34 130.49 2.70 C 130.89 3.64 131.69 5.53 132.09 6.47 C 129.87 6.93 127.64 7.38 125.44 7.95 Z" />
<path fill="#608660" opacity="1.00" d=" M 149.50 2.72 C 151.30 4.33 153.03 6.03 154.56 7.92 C 152.36 7.34 150.13 6.89 147.91 6.42 C 148.31 5.50 149.10 3.64 149.50 2.72 Z" />
<path fill="#608660" opacity="1.00" d=" M 181.44 7.95 C 182.96 6.05 184.70 4.34 186.49 2.70 C 186.89 3.64 187.69 5.53 188.09 6.47 C 185.87 6.94 183.64 7.38 181.44 7.95 Z" />
<path fill="#608660" opacity="1.00" d=" M 205.50 2.72 C 207.30 4.33 209.04 6.04 210.56 7.93 C 208.36 7.33 206.13 6.88 203.91 6.42 C 204.31 5.49 205.10 3.64 205.50 2.72 Z" />
</g>
<g id="#699960ff">
<path fill="#699960" opacity="1.00" d=" M 54.60 2.60 C 56.24 3.93 58.41 5.08 59.02 7.24 C 59.03 10.09 57.94 12.80 57.15 15.50 C 57.00 15.97 56.70 16.90 56.55 17.37 C 56.24 17.00 55.62 16.28 55.31 15.92 C 55.00 15.55 54.37 14.81 54.05 14.45 C 54.82 12.02 56.07 9.80 57.38 7.64 C 55.55 8.07 53.73 8.50 51.90 8.93 C 52.80 6.82 53.71 4.71 54.60 2.60 Z" />
<path fill="#699960" opacity="1.00" d=" M 110.60 2.60 C 112.24 3.93 114.41 5.08 115.02 7.24 C 115.03 10.09 113.94 12.80 113.15 15.50 C 113.00 15.97 112.70 16.90 112.55 17.37 C 112.24 17.00 111.62 16.28 111.31 15.92 C 111.00 15.55 110.37 14.81 110.05 14.45 C 110.82 12.02 112.07 9.80 113.38 7.64 C 111.55 8.07 109.73 8.50 107.90 8.93 C 108.80 6.82 109.71 4.71 110.60 2.60 Z" />
<path fill="#699960" opacity="1.00" d=" M 166.60 2.60 C 168.23 3.93 170.41 5.08 171.02 7.24 C 171.03 10.09 169.94 12.80 169.15 15.50 C 169.00 15.97 168.70 16.90 168.55 17.37 C 168.24 17.00 167.62 16.28 167.31 15.92 C 167.00 15.55 166.37 14.81 166.05 14.45 C 166.81 12.02 168.07 9.80 169.38 7.64 C 167.55 8.07 165.73 8.50 163.90 8.93 C 164.80 6.82 165.71 4.71 166.60 2.60 Z" />
</g>
<g id="#6c9a5cff">
<path fill="#6c9a5c" opacity="1.00" d=" M 219.72 8.88 C 220.91 6.72 222.13 4.58 223.37 2.44 C 223.53 3.25 223.84 4.86 224.00 5.66 L 224.00 7.95 C 222.57 8.26 221.14 8.57 219.72 8.88 Z" />
</g>
<g id="#565249ff">
<path fill="#565249" opacity="1.00" d=" M 24.37 4.93 C 24.65 4.83 25.21 4.62 25.49 4.52 C 27.08 4.49 28.67 4.53 30.25 4.67 C 30.56 4.77 31.19 4.97 31.50 5.07 C 29.13 4.97 26.75 4.93 24.37 4.93 Z" />
<path fill="#565249" opacity="1.00" d=" M 80.37 4.93 C 80.65 4.83 81.21 4.62 81.49 4.52 C 83.08 4.49 84.67 4.53 86.25 4.67 C 86.56 4.77 87.19 4.97 87.50 5.07 C 85.13 4.97 82.75 4.93 80.37 4.93 Z" />
<path fill="#565249" opacity="1.00" d=" M 136.37 4.93 C 136.65 4.83 137.21 4.62 137.49 4.52 C 139.08 4.49 140.66 4.53 142.25 4.67 C 142.56 4.77 143.19 4.97 143.50 5.07 C 141.13 4.97 138.75 4.93 136.37 4.93 Z" />
<path fill="#565249" opacity="1.00" d=" M 192.37 4.93 C 192.65 4.83 193.21 4.62 193.49 4.52 C 195.07 4.49 196.66 4.53 198.25 4.67 C 198.56 4.77 199.19 4.97 199.50 5.07 C 197.13 4.97 194.75 4.93 192.37 4.93 Z" />
</g>
<g id="#cfcb89ff">
<path fill="#cfcb89" opacity="1.00" d=" M 20.10 6.46 C 21.52 5.95 22.94 5.42 24.37 4.93 C 26.75 4.93 29.13 4.97 31.50 5.07 C 32.98 5.49 34.45 5.96 35.91 6.42 C 38.84 11.66 44.91 13.10 50.35 14.17 L 50.72 14.27 C 52.12 15.62 53.72 16.73 55.48 17.55 C 55.58 18.17 55.77 19.41 55.86 20.04 C 56.21 19.63 56.89 18.81 57.24 18.41 C 58.51 17.10 59.71 15.72 60.90 14.34 L 61.60 14.15 C 67.02 13.05 73.12 11.69 76.09 6.47 C 77.51 5.95 78.94 5.42 80.37 4.93 C 82.75 4.93 85.13 4.97 87.50 5.07 C 88.98 5.49 90.45 5.96 91.91 6.42 C 94.84 11.66 100.91 13.10 106.35 14.17 L 106.72 14.27 C 108.12 15.62 109.72 16.73 111.48 17.55 C 111.58 18.17 111.77 19.41 111.86 20.04 C 112.21 19.63 112.89 18.81 113.24 18.41 C 114.51 17.10 115.71 15.72 116.90 14.34 L 117.60 14.15 C 123.02 13.05 129.12 11.69 132.09 6.47 C 133.51 5.95 134.93 5.42 136.37 4.93 C 138.75 4.93 141.13 4.97 143.50 5.07 C 144.98 5.49 146.44 5.96 147.91 6.42 C 150.84 11.66 156.91 13.10 162.35 14.17 L 162.72 14.27 C 164.11 15.62 165.72 16.73 167.48 17.55 C 167.58 18.17 167.77 19.41 167.86 20.04 C 168.21 19.63 168.89 18.81 169.24 18.41 C 170.51 17.10 171.71 15.72 172.90 14.34 L 173.60 14.15 C 179.02 13.05 185.12 11.69 188.09 6.47 C 189.51 5.95 190.93 5.42 192.37 4.93 C 194.75 4.93 197.13 4.97 199.50 5.07 C 200.98 5.49 202.44 5.95 203.91 6.42 C 206.84 11.83 213.11 13.10 218.69 13.94 L 218.97 14.41 C 219.79 16.14 221.50 17.18 223.30 17.65 C 223.48 18.36 223.83 19.78 224.00 20.49 L 224.00 22.86 C 223.43 23.22 222.30 23.94 221.73 24.31 C 221.51 22.05 221.20 19.80 220.91 17.55 C 219.79 17.53 218.68 17.52 217.57 17.49 C 217.07 17.46 216.07 17.41 215.57 17.39 C 211.27 14.47 206.59 12.15 201.72 10.35 C 201.78 10.78 201.88 11.65 201.93 12.09 C 197.95 11.41 193.84 10.75 189.90 11.98 C 190.01 11.58 190.22 10.77 190.33 10.37 C 185.42 12.11 180.75 14.46 176.44 17.39 C 175.96 17.42 174.99 17.47 174.51 17.49 C 173.35 17.52 172.20 17.53 171.05 17.54 C 170.81 19.66 170.54 21.76 170.37 23.88 C 168.80 23.87 167.22 23.87 165.65 23.88 C 165.47 21.87 165.22 19.87 164.96 17.86 C 163.64 17.68 162.31 17.52 160.99 17.29 C 160.02 17.04 159.06 16.75 158.12 16.41 C 154.06 14.26 150.04 12.01 145.74 10.36 C 145.79 10.79 145.88 11.66 145.93 12.09 C 141.95 11.41 137.84 10.75 133.90 11.99 C 134.00 11.58 134.21 10.78 134.32 10.38 C 129.99 12.02 125.94 14.24 121.85 16.38 C 120.91 16.72 119.96 17.02 118.99 17.29 C 117.67 17.52 116.35 17.68 115.03 17.86 C 114.79 19.87 114.53 21.87 114.37 23.88 C 112.80 23.87 111.22 23.87 109.65 23.88 C 109.47 21.76 109.19 19.65 108.94 17.54 C 107.81 17.52 106.69 17.52 105.57 17.49 C 105.07 17.46 104.07 17.41 103.57 17.39 C 99.27 14.47 94.60 12.15 89.72 10.35 C 89.78 10.78 89.88 11.65 89.93 12.09 C 85.95 11.41 81.84 10.75 77.90 11.98 C 78.01 11.58 78.22 10.77 78.33 10.37 C 73.42 12.11 68.75 14.46 64.44 17.39 C 63.96 17.42 62.99 17.47 62.51 17.49 C 61.35 17.52 60.20 17.53 59.05 17.54 C 58.81 19.66 58.54 21.76 58.37 23.88 C 56.80 23.87 55.22 23.87 53.64 23.88 C 53.47 21.82 53.21 19.76 52.95 17.70 C 51.80 17.62 50.65 17.54 49.50 17.43 C 49.03 17.37 48.10 17.25 47.63 17.19 C 43.09 14.73 38.59 12.15 33.72 10.37 C 33.78 10.80 33.88 11.66 33.93 12.09 C 29.95 11.41 25.84 10.76 21.90 11.98 C 22.01 11.58 22.22 10.79 22.33 10.39 C 17.43 12.13 12.92 14.72 8.37 17.18 C 7.90 17.24 6.97 17.36 6.50 17.42 C 5.36 17.54 4.21 17.62 3.06 17.71 C 2.79 19.91 2.50 22.10 2.30 24.30 C 1.72 23.94 0.57 23.23 0.00 22.87 L 0.00 20.56 C 0.18 19.83 0.54 18.38 0.72 17.65 C 2.44 17.12 4.04 16.12 4.99 14.55 L 5.36 14.05 C 10.81 12.86 17.10 11.80 20.10 6.46 Z" />
</g>
<g id="#b5ac6eff">
<path fill="#b5ac6e" opacity="1.00" d=" M 13.44 7.96 C 15.64 7.37 17.87 6.93 20.10 6.46 C 17.10 11.80 10.81 12.86 5.36 14.05 C 6.19 12.72 6.96 11.36 7.74 10.01 C 8.42 9.71 9.11 9.43 9.81 9.18 C 11.01 8.75 12.22 8.33 13.44 7.96 Z" />
<path fill="#b5ac6e" opacity="1.00" d=" M 35.91 6.42 C 38.13 6.89 40.36 7.34 42.56 7.92 C 43.80 8.27 45.03 8.67 46.25 9.09 C 46.97 9.38 47.67 9.71 48.36 10.07 C 49.06 11.42 49.71 12.79 50.35 14.17 C 44.91 13.10 38.84 11.66 35.91 6.42 Z" />
<path fill="#b5ac6e" opacity="1.00" d=" M 69.44 7.95 C 71.64 7.38 73.87 6.93 76.09 6.47 C 73.12 11.69 67.02 13.05 61.60 14.15 C 62.22 12.77 62.84 11.40 63.46 10.02 C 64.22 9.69 65.00 9.39 65.78 9.11 C 66.99 8.70 68.21 8.31 69.44 7.95 Z" />
<path fill="#b5ac6e" opacity="1.00" d=" M 91.91 6.42 C 94.13 6.89 96.36 7.34 98.56 7.92 C 99.80 8.27 101.02 8.67 102.25 9.09 C 102.96 9.38 103.67 9.71 104.36 10.07 C 105.06 11.42 105.71 12.79 106.35 14.17 C 100.91 13.10 94.84 11.66 91.91 6.42 Z" />
<path fill="#b5ac6e" opacity="1.00" d=" M 125.44 7.95 C 127.64 7.38 129.87 6.93 132.09 6.47 C 129.12 11.69 123.02 13.05 117.60 14.15 C 118.21 12.77 118.84 11.40 119.46 10.02 C 120.22 9.69 121.00 9.39 121.78 9.11 C 122.99 8.70 124.21 8.31 125.44 7.95 Z" />
<path fill="#b5ac6e" opacity="1.00" d=" M 147.91 6.42 C 150.13 6.89 152.36 7.34 154.56 7.92 C 155.80 8.27 157.02 8.67 158.25 9.09 C 158.96 9.38 159.67 9.71 160.36 10.07 C 161.06 11.42 161.71 12.79 162.35 14.17 C 156.91 13.10 150.84 11.66 147.91 6.42 Z" />
<path fill="#b5ac6e" opacity="1.00" d=" M 181.44 7.95 C 183.64 7.38 185.87 6.94 188.09 6.47 C 185.12 11.69 179.02 13.05 173.60 14.15 C 174.21 12.77 174.84 11.40 175.46 10.02 C 176.22 9.69 177.00 9.39 177.78 9.11 C 178.99 8.70 180.21 8.31 181.44 7.95 Z" />
<path fill="#b5ac6e" opacity="1.00" d=" M 203.91 6.42 C 206.13 6.88 208.36 7.33 210.56 7.93 C 211.79 8.29 213.01 8.69 214.22 9.12 C 214.93 9.41 215.62 9.73 216.30 10.08 C 217.13 11.35 217.90 12.64 218.69 13.94 C 213.11 13.10 206.84 11.83 203.91 6.42 Z" />
</g>
<g id="#97c270ff">
<path fill="#97c270" opacity="1.00" d=" M 0.00 8.09 C 2.28 6.88 2.28 10.81 0.00 9.71 L 0.00 8.09 Z" />
</g>
<g id="#dfd989ff">
<path fill="#dfd989" opacity="1.00" d=" M 21.90 11.98 C 25.84 10.76 29.95 11.41 33.93 12.09 C 33.88 11.66 33.78 10.80 33.72 10.37 C 38.59 12.15 43.09 14.73 47.63 17.19 C 44.32 16.78 41.03 16.20 37.73 15.66 C 36.23 15.43 33.23 14.98 31.73 14.76 C 32.45 14.73 33.89 14.67 34.60 14.64 C 32.44 13.55 30.39 12.09 27.98 11.59 C 25.56 12.14 23.54 13.69 21.41 14.89 C 22.09 14.89 23.46 14.88 24.15 14.88 C 22.68 15.08 19.74 15.48 18.27 15.68 C 14.97 16.19 11.68 16.77 8.37 17.18 C 12.92 14.72 17.43 12.13 22.33 10.39 C 22.22 10.79 22.01 11.58 21.90 11.98 Z" />
</g>
<g id="#e0db8dff">
<path fill="#e0db8d" opacity="1.00" d=" M 77.90 11.98 C 81.84 10.75 85.95 11.41 89.93 12.09 C 89.88 11.65 89.78 10.78 89.72 10.35 C 94.60 12.15 99.27 14.47 103.57 17.39 L 102.52 17.30 C 98.40 16.70 94.32 15.87 90.28 14.85 C 88.12 13.65 86.07 12.26 84.00 10.91 C 81.93 12.26 79.88 13.65 77.72 14.85 C 73.68 15.88 69.60 16.70 65.48 17.30 L 64.44 17.39 C 68.75 14.46 73.42 12.11 78.33 10.37 C 78.22 10.77 78.01 11.58 77.90 11.98 Z" />
<path fill="#e0db8d" opacity="1.00" d=" M 189.90 11.98 C 193.84 10.75 197.95 11.41 201.93 12.09 C 201.88 11.65 201.78 10.78 201.72 10.35 C 206.59 12.15 211.27 14.47 215.57 17.39 L 214.52 17.30 C 210.39 16.70 206.32 15.87 202.28 14.85 C 200.12 13.65 198.07 12.26 196.00 10.91 C 193.93 12.26 191.88 13.65 189.72 14.85 C 185.68 15.88 181.60 16.70 177.48 17.30 L 176.44 17.39 C 180.75 14.46 185.42 12.11 190.33 10.37 C 190.22 10.77 190.01 11.58 189.90 11.98 Z" />
</g>
<g id="#dfd98aff">
<path fill="#dfd98a" opacity="1.00" d=" M 133.90 11.99 C 137.84 10.75 141.95 11.41 145.93 12.09 C 145.88 11.66 145.79 10.79 145.74 10.36 C 150.04 12.01 154.06 14.26 158.12 16.41 C 153.42 15.45 148.72 14.42 143.96 13.79 C 141.52 11.38 138.51 11.36 135.98 13.65 C 131.21 14.22 126.53 15.32 121.85 16.38 C 125.94 14.24 129.99 12.02 134.32 10.38 C 134.21 10.78 134.00 11.58 133.90 11.99 Z" />
</g>
<g id="#6a9a61ff">
<path fill="#6a9a61" opacity="1.00" d=" M 222.08 14.73 C 222.72 12.86 223.39 11.01 224.00 9.13 L 224.00 20.49 C 223.83 19.78 223.48 18.36 223.30 17.65 C 223.10 16.58 222.69 15.61 222.08 14.73 Z" />
</g>
<g id="#ecf0aafe">
<path fill="#ecf0aa" opacity="1.00" d=" M 21.41 14.89 C 23.54 13.69 25.56 12.14 27.98 11.59 C 30.39 12.09 32.44 13.55 34.60 14.64 C 33.89 14.67 32.45 14.73 31.73 14.76 C 29.20 14.78 26.67 14.82 24.15 14.88 C 23.46 14.88 22.09 14.89 21.41 14.89 Z" />
</g>
<g id="#e7efa9fe">
<path fill="#e7efa9" opacity="1.00" d=" M 77.72 14.85 C 79.88 13.65 81.93 12.26 84.00 10.91 C 86.07 12.26 88.12 13.65 90.28 14.85 C 86.09 14.75 81.90 14.75 77.72 14.85 Z" />
<path fill="#e7efa9" opacity="1.00" d=" M 189.72 14.85 C 191.88 13.65 193.93 12.26 196.00 10.91 C 198.07 12.26 200.12 13.65 202.28 14.85 C 198.09 14.75 193.90 14.75 189.72 14.85 Z" />
</g>
<g id="#ecefa9ff">
<path fill="#ecefa9" opacity="1.00" d=" M 135.98 13.65 C 138.51 11.36 141.52 11.38 143.96 13.79 C 141.30 13.72 138.64 13.68 135.98 13.65 Z" />
</g>
<g id="#9a9364fe">
<path fill="#9a9364" opacity="1.00" d=" M 1.57 14.71 C 2.70 14.48 3.84 14.42 4.99 14.55 C 4.04 16.12 2.44 17.12 0.72 17.65 C 0.96 16.66 1.25 15.68 1.57 14.71 Z" />
<path fill="#9a9364" opacity="1.00" d=" M 50.72 14.27 C 51.83 14.28 52.94 14.33 54.05 14.45 C 54.37 14.81 55.00 15.55 55.31 15.92 C 55.36 16.33 55.44 17.15 55.48 17.55 C 53.72 16.73 52.12 15.62 50.72 14.27 Z" />
<path fill="#9a9364" opacity="1.00" d=" M 57.15 15.50 C 58.35 14.94 59.59 14.56 60.90 14.34 C 59.71 15.72 58.51 17.10 57.24 18.41 C 57.07 18.15 56.72 17.63 56.55 17.37 C 56.70 16.90 57.00 15.97 57.15 15.50 Z" />
<path fill="#9a9364" opacity="1.00" d=" M 106.72 14.27 C 107.83 14.28 108.94 14.33 110.05 14.45 C 110.37 14.81 111.00 15.55 111.31 15.92 C 111.36 16.33 111.44 17.15 111.48 17.55 C 109.72 16.73 108.12 15.62 106.72 14.27 Z" />
<path fill="#9a9364" opacity="1.00" d=" M 113.15 15.50 C 114.34 14.94 115.59 14.56 116.90 14.34 C 115.71 15.72 114.51 17.10 113.24 18.41 C 113.07 18.15 112.72 17.63 112.55 17.37 C 112.70 16.90 113.00 15.97 113.15 15.50 Z" />
<path fill="#9a9364" opacity="1.00" d=" M 162.72 14.27 C 163.83 14.28 164.94 14.33 166.05 14.45 C 166.37 14.81 167.00 15.55 167.31 15.92 C 167.36 16.33 167.44 17.15 167.48 17.55 C 165.72 16.73 164.11 15.62 162.72 14.27 Z" />
<path fill="#9a9364" opacity="1.00" d=" M 169.15 15.50 C 170.34 14.94 171.59 14.56 172.90 14.34 C 171.71 15.72 170.51 17.10 169.24 18.41 C 169.07 18.15 168.72 17.63 168.55 17.37 C 168.70 16.90 169.00 15.97 169.15 15.50 Z" />
<path fill="#9a9364" opacity="1.00" d=" M 218.97 14.41 C 220.02 14.40 221.05 14.50 222.08 14.73 C 222.69 15.61 223.10 16.58 223.30 17.65 C 221.50 17.18 219.79 16.14 218.97 14.41 Z" />
</g>
<g id="#a1e1a3fe">
<path fill="#a1e1a3" opacity="1.00" d=" M 121.85 16.38 C 126.53 15.32 131.21 14.22 135.98 13.65 C 138.64 13.68 141.30 13.72 143.96 13.79 C 148.72 14.42 153.42 15.45 158.12 16.41 C 159.72 18.96 161.51 21.38 163.08 23.94 L 163.28 24.51 C 163.04 24.80 162.56 25.37 162.31 25.66 C 158.35 22.14 154.79 17.12 149.06 16.81 L 148.44 16.76 C 142.78 16.44 137.10 16.50 131.45 16.88 L 130.85 16.94 C 125.64 18.20 120.58 20.93 117.94 25.76 C 117.68 25.44 117.16 24.81 116.90 24.49 L 117.09 23.94 C 118.57 21.36 120.30 18.93 121.85 16.38 Z" />
</g>
<g id="#eef2acff">
<path fill="#eef2ac" opacity="1.00" d=" M 8.37 17.18 C 11.68 16.77 14.97 16.19 18.27 15.68 C 12.63 18.53 6.00 22.28 5.23 29.22 C 4.54 25.24 5.37 21.24 6.50 17.42 C 6.97 17.36 7.90 17.24 8.37 17.18 Z" />
<path fill="#eef2ac" opacity="1.00" d=" M 37.73 15.66 C 41.03 16.20 44.32 16.78 47.63 17.19 C 48.10 17.25 49.03 17.37 49.50 17.43 C 50.63 21.24 51.47 25.24 50.76 29.22 C 49.99 22.27 43.36 18.54 37.73 15.66 Z" />
</g>
<g id="#a1e1a3ff">
<path fill="#a1e1a3" opacity="1.00" d=" M 24.15 14.88 C 26.67 14.82 29.20 14.78 31.73 14.76 C 33.23 14.98 36.23 15.43 37.73 15.66 C 43.36 18.54 49.99 22.27 50.76 29.22 C 50.71 29.73 50.60 30.75 50.55 31.26 C 48.52 31.35 47.52 33.74 48.99 35.19 C 47.54 37.51 46.19 39.91 45.04 42.39 C 45.32 39.69 45.59 36.99 45.84 34.29 C 46.49 30.65 47.45 27.06 48.27 23.46 C 36.40 15.25 19.60 15.15 7.75 23.46 C 8.54 27.07 9.47 30.66 10.10 34.31 C 10.34 37.00 10.63 39.69 10.97 42.37 C 9.81 39.89 8.46 37.51 7.01 35.19 C 8.48 33.74 7.47 31.35 5.45 31.26 C 5.40 30.75 5.29 29.73 5.23 29.22 C 6.00 22.28 12.63 18.53 18.27 15.68 C 19.74 15.48 22.68 15.08 24.15 14.88 Z" />
<path fill="#a1e1a3" opacity="1.00" d=" M 65.48 17.30 C 69.60 16.70 73.68 15.88 77.72 14.85 C 81.90 14.75 86.09 14.75 90.28 14.85 C 94.32 15.87 98.40 16.70 102.52 17.30 C 103.78 20.04 105.05 22.80 105.94 25.70 C 102.14 21.42 97.48 17.15 91.49 16.82 C 81.32 15.68 67.61 15.57 62.06 25.81 C 62.95 22.88 64.21 20.08 65.48 17.30 Z" />
<path fill="#a1e1a3" opacity="1.00" d=" M 177.48 17.30 C 181.60 16.70 185.68 15.88 189.72 14.85 C 193.90 14.75 198.09 14.75 202.28 14.85 C 206.32 15.87 210.39 16.70 214.52 17.30 C 215.78 20.04 217.05 22.80 217.94 25.70 C 214.14 21.42 209.48 17.15 203.49 16.82 C 193.32 15.68 179.61 15.57 174.06 25.81 C 174.95 22.88 176.21 20.08 177.48 17.30 Z" />
</g>
<g id="#7ba557ff">
<path fill="#7ba557" opacity="1.00" d=" M 55.31 15.92 C 55.62 16.28 56.24 17.00 56.55 17.37 C 56.72 17.63 57.07 18.15 57.24 18.41 C 56.89 18.81 56.21 19.63 55.86 20.04 C 55.77 19.41 55.58 18.17 55.48 17.55 C 55.44 17.15 55.36 16.33 55.31 15.92 Z" />
<path fill="#7ba557" opacity="1.00" d=" M 111.31 15.92 C 111.62 16.28 112.24 17.00 112.55 17.37 C 112.72 17.63 113.07 18.15 113.24 18.41 C 112.89 18.81 112.21 19.63 111.86 20.04 C 111.77 19.41 111.58 18.17 111.48 17.55 C 111.44 17.15 111.36 16.33 111.31 15.92 Z" />
<path fill="#7ba557" opacity="1.00" d=" M 167.31 15.92 C 167.62 16.28 168.24 17.00 168.55 17.37 C 168.72 17.63 169.07 18.15 169.24 18.41 C 168.89 18.81 168.21 19.63 167.86 20.04 C 167.77 19.41 167.58 18.17 167.48 17.55 C 167.44 17.15 167.36 16.33 167.31 15.92 Z" />
</g>
<g id="#40cfbdff">
<path fill="#40cfbd" opacity="1.00" d=" M 62.06 25.81 C 67.61 15.57 81.32 15.68 91.49 16.82 C 97.48 17.15 102.14 21.42 105.94 25.70 C 106.05 26.11 106.29 26.92 106.41 27.33 C 104.97 29.52 103.61 31.76 102.57 34.16 C 102.56 29.58 103.77 22.01 97.79 20.27 C 87.46 17.62 75.44 16.57 66.14 22.92 C 65.35 26.61 65.55 30.41 65.54 34.16 C 64.45 31.78 63.07 29.55 61.60 27.39 C 61.72 26.99 61.95 26.20 62.06 25.81 Z" />
<path fill="#40cfbd" opacity="1.00" d=" M 174.06 25.81 C 179.61 15.57 193.32 15.68 203.49 16.82 C 209.48 17.15 214.14 21.42 217.94 25.70 C 218.05 26.11 218.29 26.92 218.41 27.33 C 216.97 29.52 215.61 31.76 214.57 34.16 C 214.56 29.58 215.77 22.01 209.79 20.27 C 199.46 17.62 187.44 16.57 178.14 22.92 C 177.35 26.61 177.55 30.41 177.54 34.16 C 176.45 31.78 175.07 29.55 173.60 27.39 C 173.72 26.99 173.95 26.20 174.06 25.81 Z" />
</g>
<g id="#40cebeff">
<path fill="#40cebe" opacity="1.00" d=" M 117.94 25.76 C 120.58 20.93 125.64 18.20 130.85 16.94 C 127.57 18.69 124.39 20.90 122.12 23.87 C 120.43 28.11 121.42 32.90 121.32 37.30 C 120.29 34.07 118.95 30.95 117.75 27.78 C 117.80 27.27 117.90 26.27 117.94 25.76 Z" />
<path fill="#40cebe" opacity="1.00" d=" M 149.06 16.81 C 154.79 17.12 158.35 22.14 162.31 25.66 C 162.26 26.17 162.16 27.21 162.11 27.72 C 161.02 30.93 159.69 34.06 158.77 37.32 C 158.67 33.09 159.46 28.58 158.00 24.48 C 155.96 21.01 152.60 18.57 149.06 16.81 Z" />
<path fill="#40cebe" opacity="1.00" d=" M 7.75 23.46 C 19.60 15.15 36.40 15.25 48.27 23.46 C 47.45 27.06 46.49 30.65 45.84 34.29 C 45.67 30.11 47.31 22.99 41.92 21.11 C 32.98 18.59 22.95 17.93 14.07 21.08 C 8.75 23.07 10.27 30.07 10.10 34.31 C 9.47 30.66 8.54 27.07 7.75 23.46 Z" />
</g>
<g id="#40cfbeff">
<path fill="#40cfbe" opacity="1.00" d=" M 131.45 16.88 C 137.10 16.50 142.78 16.44 148.44 16.76 C 142.79 17.35 137.09 17.72 131.45 16.88 Z" />
</g>
<g id="#dcd78aff">
<path fill="#dcd78a" opacity="1.00" d=" M 3.06 17.71 C 4.21 17.62 5.36 17.54 6.50 17.42 C 5.37 21.24 4.54 25.24 5.23 29.22 C 5.29 29.73 5.40 30.75 5.45 31.26 C 5.50 32.71 6.21 34.02 7.01 35.19 C 8.46 37.51 9.81 39.89 10.97 42.37 C 11.11 42.89 11.39 43.94 11.53 44.47 L 10.47 44.57 C 8.78 43.17 7.15 41.69 5.63 40.11 C 3.92 35.00 2.39 29.72 2.30 24.30 C 2.50 22.10 2.79 19.91 3.06 17.71 Z" />
<path fill="#dcd78a" opacity="1.00" d=" M 49.50 17.43 C 50.65 17.54 51.80 17.62 52.95 17.70 C 53.21 19.76 53.47 21.82 53.64 23.88 C 53.71 29.39 52.33 34.84 50.32 39.93 C 48.83 41.56 47.24 43.11 45.56 44.56 L 44.50 44.45 C 44.64 43.94 44.90 42.91 45.04 42.39 C 46.19 39.91 47.54 37.51 48.99 35.19 C 49.79 34.02 50.50 32.71 50.55 31.26 C 50.60 30.75 50.71 29.73 50.76 29.22 C 51.47 25.24 50.63 21.24 49.50 17.43 Z" />
</g>
<g id="#dcd78bff">
<path fill="#dcd78b" opacity="1.00" d=" M 59.05 17.54 C 60.20 17.53 61.35 17.52 62.51 17.49 C 61.95 21.23 61.03 24.97 61.34 28.77 C 61.77 33.55 63.87 37.92 65.92 42.18 C 66.17 42.80 66.69 44.03 66.94 44.65 L 66.21 44.65 C 64.62 43.15 63.13 41.56 61.69 39.92 C 59.84 34.78 58.29 29.39 58.37 23.88 C 58.54 21.76 58.81 19.66 59.05 17.54 Z" />
<path fill="#dcd78b" opacity="1.00" d=" M 105.57 17.49 C 106.69 17.52 107.81 17.52 108.94 17.54 C 109.19 19.65 109.47 21.76 109.65 23.88 C 109.72 29.38 108.33 34.82 106.32 39.91 C 104.88 41.56 103.37 43.15 101.78 44.66 L 101.05 44.67 C 101.31 44.04 101.83 42.79 102.09 42.17 C 104.11 37.89 106.26 33.54 106.67 28.75 C 106.93 24.97 106.15 21.21 105.57 17.49 Z" />
<path fill="#dcd78b" opacity="1.00" d=" M 171.05 17.54 C 172.20 17.53 173.35 17.52 174.51 17.49 C 173.95 21.23 173.03 24.97 173.34 28.77 C 173.77 33.55 175.87 37.92 177.92 42.18 C 178.17 42.80 178.69 44.03 178.94 44.65 L 178.21 44.65 C 176.62 43.15 175.13 41.56 173.69 39.92 C 171.84 34.78 170.29 29.39 170.37 23.88 C 170.54 21.76 170.81 19.66 171.05 17.54 Z" />
<path fill="#dcd78b" opacity="1.00" d=" M 217.57 17.49 C 218.68 17.52 219.79 17.53 220.91 17.55 C 221.20 19.80 221.51 22.05 221.73 24.31 C 221.62 29.71 220.22 35.03 218.38 40.09 C 216.91 41.68 215.37 43.21 213.76 44.66 L 213.03 44.67 C 213.29 44.04 213.82 42.79 214.08 42.16 C 216.11 37.89 218.26 33.54 218.67 28.75 C 218.93 24.97 218.15 21.21 217.57 17.49 Z" />
</g>
<g id="#dbd68aff">
<path fill="#dbd68a" opacity="1.00" d=" M 115.03 17.86 C 116.35 17.68 117.67 17.52 118.99 17.29 C 118.35 19.50 117.75 21.73 117.09 23.94 L 116.90 24.49 C 116.16 25.72 116.27 27.22 117.19 28.33 C 117.81 33.23 119.63 37.86 122.10 42.12 C 122.41 42.72 123.02 43.93 123.32 44.54 L 122.37 44.61 C 120.73 43.13 119.17 41.57 117.69 39.93 C 115.84 34.79 114.29 29.40 114.37 23.88 C 114.53 21.87 114.79 19.87 115.03 17.86 Z" />
<path fill="#dbd68a" opacity="1.00" d=" M 160.99 17.29 C 162.31 17.52 163.64 17.68 164.96 17.86 C 165.22 19.87 165.47 21.87 165.65 23.88 C 165.72 29.39 164.33 34.83 162.32 39.92 C 160.89 41.53 159.39 43.08 157.81 44.55 L 157.13 44.54 C 157.37 43.96 157.84 42.79 158.08 42.20 C 160.28 37.83 162.17 33.25 162.63 28.32 C 163.75 27.35 164.05 25.79 163.28 24.51 L 163.08 23.94 C 162.37 21.73 161.70 19.51 160.99 17.29 Z" />
</g>
<g id="#eef1adff">
<path fill="#eef1ad" opacity="1.00" d=" M 118.99 17.29 C 119.96 17.02 120.91 16.72 121.85 16.38 C 120.30 18.93 118.57 21.36 117.09 23.94 C 117.75 21.73 118.35 19.50 118.99 17.29 Z" />
<path fill="#eef1ad" opacity="1.00" d=" M 158.12 16.41 C 159.06 16.75 160.02 17.04 160.99 17.29 C 161.70 19.51 162.37 21.73 163.08 23.94 C 161.51 21.38 159.72 18.96 158.12 16.41 Z" />
</g>
<g id="#1aa9c1ff">
<path fill="#1aa9c1" opacity="1.00" d=" M 130.85 16.94 L 131.45 16.88 C 137.09 17.72 142.79 17.35 148.44 16.76 L 149.06 16.81 C 152.60 18.57 155.96 21.01 158.00 24.48 C 159.46 28.58 158.67 33.09 158.77 37.32 C 158.54 38.95 158.34 40.58 158.08 42.20 C 157.84 42.79 157.37 43.96 157.13 44.54 L 156.50 44.53 C 156.14 44.35 155.41 43.98 155.05 43.80 C 155.10 36.61 159.37 26.81 152.78 21.33 C 147.89 19.92 142.57 20.39 137.49 20.32 C 133.58 21.09 127.74 19.04 125.28 23.29 C 121.83 29.55 124.49 37.16 125.15 43.79 C 124.97 43.93 124.59 44.20 124.41 44.34 L 123.32 44.54 C 123.02 43.93 122.41 42.72 122.10 42.12 C 121.81 40.52 121.57 38.91 121.32 37.30 C 121.42 32.90 120.43 28.11 122.12 23.87 C 124.39 20.90 127.57 18.69 130.85 16.94 Z" />
<path fill="#1aa9c1" opacity="1.00" d=" M 66.14 22.92 C 75.44 16.57 87.46 17.62 97.79 20.27 C 103.77 22.01 102.56 29.58 102.57 34.16 C 102.45 36.83 102.29 39.50 102.09 42.17 C 101.83 42.79 101.31 44.04 101.05 44.67 L 100.32 44.66 C 99.97 44.44 99.27 43.99 98.93 43.77 C 98.96 37.50 100.86 30.93 99.07 24.78 C 98.08 20.80 92.84 21.97 90.00 21.62 C 84.44 21.78 78.86 21.35 73.31 21.62 C 70.58 21.63 68.67 24.01 68.41 26.58 C 67.88 32.33 68.55 38.11 69.11 43.84 C 68.75 44.04 68.04 44.44 67.68 44.65 L 66.94 44.65 C 66.69 44.03 66.17 42.80 65.92 42.18 C 65.78 39.51 65.66 36.83 65.54 34.16 C 65.55 30.41 65.35 26.61 66.14 22.92 Z" />
<path fill="#1aa9c1" opacity="1.00" d=" M 178.14 22.92 C 187.44 16.57 199.46 17.62 209.79 20.27 C 215.77 22.01 214.56 29.58 214.57 34.16 C 214.44 36.83 214.28 39.50 214.08 42.16 C 213.82 42.79 213.29 44.04 213.03 44.67 L 212.30 44.67 C 211.96 44.45 211.27 43.99 210.93 43.77 C 210.96 37.50 212.86 30.93 211.07 24.78 C 210.08 20.80 204.84 21.97 202.00 21.62 C 196.44 21.78 190.86 21.35 185.31 21.62 C 182.57 21.63 180.67 24.01 180.41 26.58 C 179.88 32.33 180.54 38.11 181.11 43.84 C 180.75 44.04 180.04 44.44 179.68 44.65 L 178.94 44.65 C 178.69 44.03 178.17 42.80 177.92 42.18 C 177.78 39.51 177.66 36.83 177.54 34.16 C 177.55 30.41 177.35 26.61 178.14 22.92 Z" />
<path fill="#1aa9c1" opacity="1.00" d=" M 14.07 21.08 C 22.95 17.93 32.98 18.59 41.92 21.11 C 47.31 22.99 45.67 30.11 45.84 34.29 C 45.59 36.99 45.32 39.69 45.04 42.39 C 44.90 42.91 44.64 43.94 44.50 44.45 L 43.38 44.25 C 43.12 44.00 42.61 43.50 42.36 43.24 C 42.23 37.10 43.98 30.86 42.94 24.76 C 41.48 19.77 34.51 22.29 30.98 21.76 C 25.48 22.22 19.75 20.62 14.44 22.51 C 10.02 28.27 14.66 36.52 13.44 43.13 C 13.25 43.42 12.86 43.99 12.67 44.27 L 11.53 44.47 C 11.39 43.94 11.11 42.89 10.97 42.37 C 10.63 39.69 10.34 37.00 10.10 34.31 C 10.27 30.07 8.75 23.07 14.07 21.08 Z" />
</g>
<g id="#eef2adff">
<path fill="#eef2ad" opacity="1.00" d=" M 62.51 17.49 C 62.99 17.47 63.96 17.42 64.44 17.39 L 65.48 17.30 C 64.21 20.08 62.95 22.88 62.06 25.81 C 61.95 26.20 61.72 26.99 61.60 27.39 L 61.34 28.77 C 61.03 24.97 61.95 21.23 62.51 17.49 Z" />
<path fill="#eef2ad" opacity="1.00" d=" M 102.52 17.30 L 103.57 17.39 C 104.07 17.41 105.07 17.46 105.57 17.49 C 106.15 21.21 106.93 24.97 106.67 28.75 L 106.41 27.33 C 106.29 26.92 106.05 26.11 105.94 25.70 C 105.05 22.80 103.78 20.04 102.52 17.30 Z" />
<path fill="#eef2ad" opacity="1.00" d=" M 174.51 17.49 C 174.99 17.47 175.96 17.42 176.44 17.39 L 177.48 17.30 C 176.21 20.08 174.95 22.88 174.06 25.81 C 173.95 26.20 173.72 26.99 173.60 27.39 L 173.34 28.77 C 173.03 24.97 173.95 21.23 174.51 17.49 Z" />
<path fill="#eef2ad" opacity="1.00" d=" M 214.52 17.30 L 215.57 17.39 C 216.07 17.41 217.07 17.46 217.57 17.49 C 218.15 21.21 218.93 24.97 218.67 28.75 L 218.41 27.33 C 218.29 26.92 218.05 26.11 217.94 25.70 C 217.05 22.80 215.78 20.04 214.52 17.30 Z" />
<path fill="#eef2ad" opacity="1.00" d=" M 116.90 24.49 C 117.16 24.81 117.68 25.44 117.94 25.76 C 117.90 26.27 117.80 27.27 117.75 27.78 L 117.19 28.33 C 116.27 27.22 116.16 25.72 116.90 24.49 Z" />
<path fill="#eef2ad" opacity="1.00" d=" M 162.31 25.66 C 162.56 25.37 163.04 24.80 163.28 24.51 C 164.05 25.79 163.75 27.35 162.63 28.32 L 162.11 27.72 C 162.16 27.21 162.26 26.17 162.31 25.66 Z" />
<path fill="#eef2ad" opacity="1.00" d=" M 5.45 31.26 C 7.47 31.35 8.48 33.74 7.01 35.19 C 6.21 34.02 5.50 32.71 5.45 31.26 Z" />
<path fill="#eef2ad" opacity="1.00" d=" M 48.99 35.19 C 47.52 33.74 48.52 31.35 50.55 31.26 C 50.50 32.71 49.79 34.02 48.99 35.19 Z" />
</g>
<g id="#4379caff">
<path fill="#4379ca" opacity="1.00" d=" M 125.28 23.29 C 127.74 19.04 133.58 21.09 137.49 20.32 C 142.57 20.39 147.89 19.92 152.78 21.33 C 159.37 26.81 155.10 36.61 155.05 43.80 C 153.98 43.24 152.93 42.68 151.88 42.10 C 152.89 37.84 154.69 33.62 154.57 29.19 C 153.75 26.90 151.48 25.57 149.79 23.95 C 150.19 27.21 150.61 30.46 151.01 33.72 C 147.74 35.17 144.19 36.11 141.22 38.13 C 141.52 40.74 142.52 43.21 143.38 45.68 C 141.12 45.64 138.86 45.63 136.61 45.67 C 137.47 43.26 138.44 40.85 138.73 38.28 C 135.54 36.29 131.94 35.08 128.49 33.63 C 129.20 30.33 130.05 27.07 131.10 23.87 C 129.13 25.28 126.90 26.47 125.45 28.47 C 124.98 33.00 126.89 37.38 127.90 41.75 C 126.98 42.43 126.07 43.11 125.15 43.79 C 124.49 37.16 121.83 29.55 125.28 23.29 M 131.54 21.12 C 131.68 21.44 131.96 22.09 132.10 22.41 C 134.69 23.03 132.95 18.93 131.54 21.12 M 146.54 21.12 C 146.68 21.44 146.96 22.09 147.10 22.41 C 149.69 23.03 147.95 18.93 146.54 21.12 M 128.97 30.74 C 135.89 34.37 144.10 34.37 151.03 30.74 C 148.17 27.11 144.40 23.01 139.05 24.94 C 134.35 23.80 131.54 27.77 128.97 30.74 Z" />
<path fill="#4379ca" opacity="1.00" d=" M 14.44 22.51 C 19.75 20.62 25.48 22.22 30.98 21.76 C 34.51 22.29 41.48 19.77 42.94 24.76 C 43.98 30.86 42.23 37.10 42.36 43.24 C 40.90 40.58 39.81 37.74 38.57 34.97 C 33.62 35.39 30.45 39.06 29.36 43.57 C 28.46 43.57 27.56 43.56 26.66 43.56 C 25.50 39.12 22.51 35.59 17.45 35.40 C 16.11 37.96 15.00 40.68 13.44 43.13 C 14.66 36.52 10.02 28.27 14.44 22.51 M 15.76 27.23 C 16.11 30.21 16.46 33.19 16.82 36.17 C 18.87 34.26 20.50 31.95 21.26 29.23 C 22.06 28.72 22.86 28.20 23.67 27.70 C 22.96 29.56 22.25 31.43 21.56 33.30 C 25.63 35.83 30.37 35.83 34.44 33.30 C 33.76 31.43 33.04 29.56 32.33 27.70 C 33.14 28.21 33.95 28.71 34.75 29.22 C 35.43 32.04 37.13 34.40 39.51 36.05 C 39.78 33.11 40.03 30.16 40.26 27.22 C 44.06 25.33 37.54 23.86 39.58 27.20 C 31.86 26.79 24.15 26.78 16.43 27.20 C 18.45 23.84 11.94 25.37 15.76 27.23 Z" />
</g>
<g id="#4277caff">
<path fill="#4277ca" opacity="1.00" d=" M 73.31 21.62 C 78.86 21.35 84.44 21.78 90.00 21.62 C 92.84 21.97 98.08 20.80 99.07 24.78 C 100.86 30.93 98.96 37.50 98.93 43.77 C 97.28 41.10 96.09 38.19 94.76 35.37 C 91.51 36.08 88.25 36.83 85.00 37.55 C 86.93 41.74 89.56 45.54 92.63 48.98 C 91.97 49.07 90.67 49.26 90.02 49.36 C 91.99 51.04 93.99 52.71 95.98 54.38 C 88.46 50.47 79.54 50.47 72.02 54.38 C 74.01 52.71 76.01 51.04 77.98 49.36 C 77.33 49.26 76.03 49.07 75.37 48.98 C 78.44 45.54 81.07 41.74 83.00 37.55 C 79.81 36.84 76.65 36.11 73.46 35.44 C 72.11 38.28 70.95 41.25 69.11 43.84 C 68.55 38.11 67.88 32.33 68.41 26.58 C 68.67 24.01 70.58 21.63 73.31 21.62 M 71.31 23.21 C 69.43 24.03 70.72 26.99 72.52 25.62 C 74.46 24.82 73.12 21.87 71.31 23.21 M 77.54 23.12 C 77.68 23.44 77.96 24.09 78.10 24.41 C 80.69 25.03 78.95 20.93 77.54 23.12 M 88.54 23.12 C 88.68 23.44 88.96 24.09 89.10 24.41 C 91.69 25.03 89.95 20.93 88.54 23.12 M 94.76 23.30 C 93.70 24.72 96.08 26.74 97.36 25.58 C 98.45 24.13 96.07 22.05 94.76 23.30 M 74.97 28.75 C 74.92 29.70 74.83 31.62 74.79 32.58 C 80.68 35.51 87.19 34.59 93.23 32.66 C 93.18 31.68 93.08 29.72 93.03 28.74 C 87.43 25.39 80.56 25.39 74.97 28.75 M 83.90 43.76 C 82.54 45.08 79.84 47.71 78.48 49.02 C 82.06 50.55 85.98 50.55 89.54 48.99 C 88.13 47.68 85.31 45.07 83.90 43.76 Z" />
</g>
<g id="#1aa9c2ff">
<path fill="#1aa9c2" opacity="1.00" d=" M 131.54 21.12 C 132.95 18.93 134.69 23.03 132.10 22.41 C 131.96 22.09 131.68 21.44 131.54 21.12 Z" />
<path fill="#1aa9c2" opacity="1.00" d=" M 146.54 21.12 C 147.95 18.93 149.69 23.03 147.10 22.41 C 146.96 22.09 146.68 21.44 146.54 21.12 Z" />
<path fill="#1aa9c2" opacity="1.00" d=" M 77.54 23.12 C 78.95 20.93 80.69 25.03 78.10 24.41 C 77.96 24.09 77.68 23.44 77.54 23.12 Z" />
<path fill="#1aa9c2" opacity="1.00" d=" M 88.54 23.12 C 89.95 20.93 91.69 25.03 89.10 24.41 C 88.96 24.09 88.68 23.44 88.54 23.12 Z" />
<path fill="#1aa9c2" opacity="1.00" d=" M 189.54 23.12 C 190.95 20.93 192.69 25.03 190.10 24.41 C 189.96 24.09 189.68 23.44 189.54 23.12 Z" />
<path fill="#1aa9c2" opacity="1.00" d=" M 200.54 23.12 C 201.95 20.93 203.69 25.03 201.10 24.41 C 200.96 24.09 200.68 23.44 200.54 23.12 Z" />
<path fill="#1aa9c2" opacity="1.00" d=" M 15.76 27.23 C 11.94 25.37 18.45 23.84 16.43 27.20 L 15.76 27.23 Z" />
<path fill="#1aa9c2" opacity="1.00" d=" M 39.58 27.20 C 37.54 23.86 44.06 25.33 40.26 27.22 L 39.58 27.20 Z" />
</g>
<g id="#4277cafe">
<path fill="#4277ca" opacity="1.00" d=" M 185.31 21.62 C 190.86 21.35 196.44 21.78 202.00 21.62 C 204.84 21.97 210.08 20.80 211.07 24.78 C 212.86 30.93 210.96 37.50 210.93 43.77 C 209.28 41.10 208.09 38.19 206.76 35.37 C 203.51 36.08 200.23 36.83 197.00 37.55 C 198.93 41.74 201.56 45.54 204.63 48.98 C 203.97 49.07 202.67 49.26 202.02 49.36 C 203.99 51.04 205.99 52.71 207.98 54.38 C 200.46 50.47 191.54 50.47 184.02 54.38 C 186.01 52.71 188.00 51.04 189.98 49.36 C 189.33 49.26 188.03 49.07 187.37 48.98 C 190.44 45.54 193.07 41.74 195.00 37.55 C 191.79 36.84 188.66 36.11 185.46 35.44 C 184.10 38.28 182.95 41.25 181.11 43.84 C 180.54 38.11 179.88 32.33 180.41 26.58 C 180.67 24.01 182.57 21.63 185.31 21.62 M 183.31 23.21 C 181.43 24.03 182.72 26.99 184.52 25.62 C 186.46 24.82 185.12 21.87 183.31 23.21 M 189.54 23.12 C 189.68 23.44 189.96 24.09 190.10 24.41 C 192.69 25.03 190.95 20.93 189.54 23.12 M 200.54 23.12 C 200.68 23.44 200.96 24.09 201.10 24.41 C 203.69 25.03 201.95 20.93 200.54 23.12 M 206.76 23.30 C 205.70 24.72 208.08 26.74 209.36 25.58 C 210.45 24.13 208.07 22.05 206.76 23.30 M 186.96 28.75 C 186.93 29.68 186.87 31.53 186.84 32.45 C 192.50 36.19 199.50 36.19 205.16 32.45 C 205.13 31.53 205.07 29.68 205.04 28.75 C 199.44 25.39 192.56 25.39 186.96 28.75 M 195.90 43.76 C 194.54 45.08 191.84 47.71 190.48 49.02 C 194.06 50.55 197.98 50.55 201.54 48.99 C 200.13 47.68 197.31 45.07 195.90 43.76 Z" />
</g>
<g id="#b1ad6eff">
<path fill="#b1ad6e" opacity="1.00" d=" M 0.00 22.87 C 0.57 23.23 1.72 23.94 2.30 24.30 C 2.39 29.72 3.92 35.00 5.63 40.11 C 3.83 38.30 1.89 36.65 0.00 34.94 L 0.00 34.49 C 2.06 35.01 1.76 31.98 0.00 31.95 L 0.00 22.87 Z" />
<path fill="#b1ad6e" opacity="1.00" d=" M 221.73 24.31 C 222.30 23.94 223.43 23.22 224.00 22.86 L 224.00 31.95 C 222.24 31.98 221.94 35.01 224.00 34.48 L 224.00 34.93 C 222.10 36.63 220.16 38.27 218.38 40.09 C 220.22 35.03 221.62 29.71 221.73 24.31 Z" />
</g>
<g id="#b2ab6fff">
<path fill="#b2ab6f" opacity="1.00" d=" M 53.64 23.88 C 55.22 23.87 56.80 23.87 58.37 23.88 C 58.29 29.39 59.84 34.78 61.69 39.92 C 60.24 38.45 58.64 37.12 56.84 36.12 C 56.42 36.12 55.58 36.12 55.16 36.13 C 53.36 37.14 51.77 38.47 50.32 39.93 C 52.33 34.84 53.71 29.39 53.64 23.88 M 55.17 32.00 C 52.42 35.17 59.58 35.17 56.83 32.00 C 59.58 28.83 52.42 28.83 55.17 32.00 Z" />
<path fill="#b2ab6f" opacity="1.00" d=" M 109.65 23.88 C 111.22 23.87 112.80 23.87 114.37 23.88 C 114.29 29.40 115.84 34.79 117.69 39.93 C 116.24 38.47 114.65 37.13 112.84 36.13 C 112.42 36.12 111.58 36.12 111.16 36.12 C 109.36 37.12 107.76 38.45 106.32 39.91 C 108.33 34.82 109.72 29.38 109.65 23.88 M 111.17 32.00 C 108.42 35.17 115.58 35.17 112.83 32.00 C 115.58 28.83 108.42 28.83 111.17 32.00 Z" />
<path fill="#b2ab6f" opacity="1.00" d=" M 165.65 23.88 C 167.22 23.87 168.80 23.87 170.37 23.88 C 170.29 29.39 171.84 34.78 173.69 39.92 C 172.24 38.45 170.64 37.12 168.84 36.12 C 168.42 36.12 167.58 36.12 167.16 36.12 C 165.36 37.13 163.76 38.45 162.32 39.92 C 164.33 34.83 165.72 29.39 165.65 23.88 M 167.17 32.00 C 164.42 35.17 171.58 35.17 168.83 32.00 C 171.58 28.83 164.42 28.83 167.17 32.00 Z" />
</g>
<g id="#25a7c2fe">
<path fill="#25a7c2" opacity="1.00" d=" M 71.31 23.21 C 73.12 21.87 74.46 24.82 72.52 25.62 C 70.72 26.99 69.43 24.03 71.31 23.21 Z" />
<path fill="#25a7c2" opacity="1.00" d=" M 94.76 23.30 C 96.07 22.05 98.45 24.13 97.36 25.58 C 96.08 26.74 93.70 24.72 94.76 23.30 Z" />
<path fill="#25a7c2" opacity="1.00" d=" M 183.31 23.21 C 185.12 21.87 186.46 24.82 184.52 25.62 C 182.72 26.99 181.43 24.03 183.31 23.21 Z" />
<path fill="#25a7c2" opacity="1.00" d=" M 206.76 23.30 C 208.07 22.05 210.45 24.13 209.36 25.58 C 208.08 26.74 205.70 24.72 206.76 23.30 Z" />
</g>
<g id="#3c6bbdff">
<path fill="#3c6bbd" opacity="1.00" d=" M 74.97 28.75 C 80.56 25.39 87.43 25.39 93.03 28.74 C 93.08 29.72 93.18 31.68 93.23 32.66 C 87.19 34.59 80.68 35.51 74.79 32.58 C 74.83 31.62 74.92 29.70 74.97 28.75 Z" />
</g>
<g id="#3c6bbeff">
<path fill="#3c6bbe" opacity="1.00" d=" M 125.45 28.47 C 126.90 26.47 129.13 25.28 131.10 23.87 C 130.05 27.07 129.20 30.33 128.49 33.63 C 131.94 35.08 135.54 36.29 138.73 38.28 C 138.44 40.85 137.47 43.26 136.61 45.67 C 138.86 45.63 141.12 45.64 143.38 45.68 C 142.52 43.21 141.52 40.74 141.22 38.13 C 144.19 36.11 147.74 35.17 151.01 33.72 C 150.61 30.46 150.19 27.21 149.79 23.95 C 151.48 25.57 153.75 26.90 154.57 29.19 C 154.69 33.62 152.89 37.84 151.88 42.10 C 152.93 42.68 153.98 43.24 155.05 43.80 C 155.41 43.98 156.14 44.35 156.50 44.53 L 155.76 44.57 C 155.41 44.72 154.71 45.02 154.35 45.16 C 152.86 46.52 154.44 48.59 155.69 49.48 C 155.52 49.88 155.18 50.68 155.01 51.08 C 154.31 52.73 153.58 54.36 152.87 56.00 L 127.53 56.00 C 126.57 54.35 125.68 52.66 124.85 50.94 C 124.65 50.51 124.24 49.66 124.03 49.23 C 125.53 48.60 128.18 46.30 125.68 45.14 C 125.33 44.96 124.63 44.61 124.28 44.44 L 124.41 44.34 C 124.59 44.20 124.97 43.93 125.15 43.79 C 126.07 43.11 126.98 42.43 127.90 41.75 C 126.89 37.38 124.98 33.00 125.45 28.47 M 130.80 47.64 C 131.62 47.79 133.27 48.10 134.09 48.25 C 132.00 50.14 129.92 52.04 127.86 53.97 C 135.18 49.33 144.82 49.33 152.14 53.97 C 150.08 52.04 148.00 50.14 145.91 48.25 C 146.73 48.10 148.38 47.79 149.20 47.64 C 148.26 46.87 147.32 46.09 146.39 45.31 C 144.78 46.70 143.48 49.17 141.07 49.00 C 137.64 49.82 135.66 47.28 133.60 45.33 C 132.67 46.10 131.73 46.87 130.80 47.64 Z" />
<path fill="#3c6bbe" opacity="1.00" d=" M 128.97 30.74 C 131.54 27.77 134.35 23.80 139.05 24.94 C 144.40 23.01 148.17 27.11 151.03 30.74 C 144.10 34.37 135.89 34.37 128.97 30.74 Z" />
<path fill="#3c6bbe" opacity="1.00" d=" M 16.43 27.20 C 24.15 26.78 31.86 26.79 39.58 27.20 L 40.26 27.22 C 40.03 30.16 39.78 33.11 39.51 36.05 C 37.13 34.40 35.43 32.04 34.75 29.22 C 33.95 28.71 33.14 28.21 32.33 27.70 C 33.04 29.56 33.76 31.43 34.44 33.30 C 30.37 35.83 25.63 35.83 21.56 33.30 C 22.25 31.43 22.96 29.56 23.67 27.70 C 22.86 28.20 22.06 28.72 21.26 29.23 C 20.50 31.95 18.87 34.26 16.82 36.17 C 16.46 33.19 16.11 30.21 15.76 27.23 L 16.43 27.20 Z" />
<path fill="#3c6bbe" opacity="1.00" d=" M 83.90 43.76 C 85.31 45.07 88.13 47.68 89.54 48.99 C 85.98 50.55 82.06 50.55 78.48 49.02 C 79.84 47.71 82.54 45.08 83.90 43.76 Z" />
<path fill="#3c6bbe" opacity="1.00" d=" M 195.90 43.76 C 197.31 45.07 200.13 47.68 201.54 48.99 C 197.98 50.55 194.06 50.55 190.48 49.02 C 191.84 47.71 194.54 45.08 195.90 43.76 Z" />
<path fill="#3c6bbe" opacity="1.00" d=" M 6.27 50.67 C 5.46 47.58 9.96 47.73 7.72 50.54 C 7.36 50.57 6.63 50.64 6.27 50.67 Z" />
<path fill="#3c6bbe" opacity="1.00" d=" M 48.36 50.79 C 47.80 49.64 48.03 48.66 49.03 47.85 C 49.49 48.90 49.80 49.99 49.95 51.13 C 49.55 51.04 48.76 50.87 48.36 50.79 Z" />
<path fill="#3c6bbe" opacity="1.00" d=" M 62.98 47.85 C 63.97 48.63 64.21 49.59 63.68 50.73 C 63.27 50.83 62.45 51.02 62.03 51.11 C 62.21 49.99 62.52 48.90 62.98 47.85 Z" />
<path fill="#3c6bbe" opacity="1.00" d=" M 104.29 50.73 C 103.78 49.59 104.03 48.63 105.02 47.85 C 105.47 48.90 105.77 50.00 105.94 51.13 C 105.53 51.03 104.70 50.83 104.29 50.73 Z" />
<path fill="#3c6bbe" opacity="1.00" d=" M 118.98 47.85 C 119.98 48.63 120.21 49.59 119.69 50.73 C 119.28 50.82 118.45 51.02 118.04 51.12 C 118.21 49.99 118.52 48.90 118.98 47.85 Z" />
<path fill="#3c6bbe" opacity="1.00" d=" M 160.29 50.73 C 159.78 49.59 160.03 48.63 161.02 47.85 C 161.47 48.91 161.77 50.00 161.94 51.13 C 161.52 51.03 160.70 50.83 160.29 50.73 Z" />
<path fill="#3c6bbe" opacity="1.00" d=" M 174.98 47.85 C 175.97 48.63 176.21 49.59 175.68 50.73 C 175.27 50.83 174.45 51.02 174.03 51.11 C 174.20 49.99 174.52 48.90 174.98 47.85 Z" />
<path fill="#3c6bbe" opacity="1.00" d=" M 216.20 50.51 C 214.05 47.66 218.49 47.67 217.71 50.69 C 217.33 50.64 216.58 50.55 216.20 50.51 Z" />
<path fill="#3c6bbe" opacity="1.00" d=" M 9.30 50.46 C 9.88 50.58 11.06 50.83 11.65 50.96 C 11.36 51.26 10.77 51.85 10.48 52.15 C 10.21 51.93 9.67 51.48 9.41 51.26 L 9.30 50.46 Z" />
<path fill="#3c6bbe" opacity="1.00" d=" M 44.25 50.94 C 44.85 50.82 46.04 50.59 46.63 50.47 L 46.51 51.26 C 46.23 51.48 45.66 51.92 45.38 52.14 C 45.10 51.84 44.53 51.24 44.25 50.94 Z" />
<path fill="#3c6bbe" opacity="1.00" d=" M 65.57 50.25 C 65.97 50.02 66.77 49.55 67.17 49.31 C 67.11 49.91 66.98 51.11 66.91 51.70 C 66.62 51.55 66.04 51.23 65.75 51.08 L 65.57 50.25 Z" />
<path fill="#3c6bbe" opacity="1.00" d=" M 100.66 49.37 C 101.09 49.57 101.95 49.97 102.38 50.17 L 102.22 51.01 C 101.93 51.17 101.36 51.51 101.08 51.68 C 100.97 51.10 100.77 49.95 100.66 49.37 Z" />
<path fill="#3c6bbe" opacity="1.00" d=" M 121.58 50.24 C 121.98 50.00 122.77 49.51 123.17 49.27 C 123.10 49.87 122.98 51.08 122.91 51.69 C 122.62 51.53 122.04 51.22 121.75 51.07 L 121.58 50.24 Z" />
<path fill="#3c6bbe" opacity="1.00" d=" M 156.66 49.35 C 157.09 49.56 157.95 49.96 158.38 50.17 L 158.22 51.00 C 157.93 51.17 157.36 51.50 157.08 51.67 C 156.97 51.09 156.77 49.93 156.66 49.35 Z" />
<path fill="#3c6bbe" opacity="1.00" d=" M 177.57 50.25 C 177.97 50.02 178.77 49.55 179.17 49.31 C 179.11 49.91 178.98 51.11 178.91 51.70 C 178.62 51.55 178.04 51.23 177.75 51.08 L 177.57 50.25 Z" />
<path fill="#3c6bbe" opacity="1.00" d=" M 212.71 49.39 C 213.14 49.59 214.00 49.99 214.43 50.18 L 214.29 51.03 C 214.01 51.20 213.47 51.54 213.20 51.71 C 213.08 51.13 212.83 49.97 212.71 49.39 Z" />
<path fill="#3c6bbe" opacity="1.00" d=" M 7.32 52.78 L 8.15 52.73 L 8.49 53.41 C 8.30 54.06 7.93 55.35 7.74 56.00 L 6.19 56.00 L 5.97 55.43 C 6.83 54.77 7.28 53.88 7.32 52.78 Z" />
<path fill="#3c6bbe" opacity="1.00" d=" M 47.60 52.73 L 48.36 52.75 C 48.57 53.83 49.12 54.70 49.99 55.36 L 49.79 56.00 L 48.27 56.00 C 48.03 55.36 47.57 54.08 47.33 53.44 L 47.60 52.73 Z" />
<path fill="#3c6bbe" opacity="1.00" d=" M 63.56 52.64 L 64.36 52.59 L 64.63 53.28 C 64.47 53.96 64.16 55.32 64.00 56.00 L 62.37 56.00 L 62.09 55.33 C 62.88 54.60 63.37 53.71 63.56 52.64 Z" />
<path fill="#3c6bbe" opacity="1.00" d=" M 103.63 52.57 L 104.42 52.62 C 104.60 53.69 105.09 54.59 105.89 55.32 L 105.60 56.00 L 103.99 56.00 C 103.83 55.32 103.52 53.95 103.36 53.26 L 103.63 52.57 Z" />
<path fill="#3c6bbe" opacity="1.00" d=" M 119.57 52.64 L 120.37 52.59 L 120.63 53.28 C 120.48 53.96 120.16 55.32 120.01 56.00 L 118.38 56.00 L 118.09 55.33 C 118.89 54.60 119.38 53.70 119.57 52.64 Z" />
<path fill="#3c6bbe" opacity="1.00" d=" M 159.63 52.57 L 160.42 52.62 C 160.60 53.69 161.09 54.59 161.89 55.32 L 161.60 56.00 L 159.99 56.00 C 159.83 55.32 159.52 53.95 159.36 53.26 L 159.63 52.57 Z" />
<path fill="#3c6bbe" opacity="1.00" d=" M 175.56 52.64 L 176.36 52.59 L 176.63 53.28 C 176.47 53.96 176.16 55.32 176.00 56.00 L 174.37 56.00 L 174.09 55.33 C 174.88 54.60 175.37 53.71 175.56 52.64 Z" />
<path fill="#3c6bbe" opacity="1.00" d=" M 215.87 52.57 L 216.73 52.65 C 216.75 53.74 217.16 54.66 217.94 55.39 L 217.64 56.00 L 216.02 56.00 C 215.90 55.31 215.65 53.94 215.53 53.25 L 215.87 52.57 Z" />
<path fill="#3c6bbe" opacity="1.00" d=" M 65.31 53.33 C 65.76 53.11 66.66 52.69 67.11 52.48 C 67.44 52.90 68.10 53.74 68.43 54.16 L 68.16 55.34 C 66.90 55.59 65.52 54.58 65.31 53.33 Z" />
<path fill="#3c6bbe" opacity="1.00" d=" M 99.57 54.16 C 99.90 53.73 100.56 52.88 100.89 52.45 C 101.33 52.67 102.23 53.09 102.68 53.30 C 102.48 54.55 101.12 55.58 99.86 55.34 L 99.57 54.16 Z" />
<path fill="#3c6bbe" opacity="1.00" d=" M 121.31 53.32 C 121.76 53.11 122.66 52.68 123.11 52.47 C 123.44 52.89 124.10 53.74 124.43 54.16 L 124.16 55.34 C 122.89 55.59 121.52 54.57 121.31 53.32 Z" />
<path fill="#3c6bbe" opacity="1.00" d=" M 155.57 54.16 C 155.90 53.73 156.56 52.88 156.88 52.45 C 157.33 52.66 158.23 53.09 158.68 53.30 C 158.47 54.55 157.12 55.58 155.87 55.34 L 155.57 54.16 Z" />
<path fill="#3c6bbe" opacity="1.00" d=" M 177.31 53.33 C 177.76 53.11 178.66 52.69 179.11 52.48 C 179.44 52.90 180.10 53.74 180.43 54.16 L 180.16 55.34 C 178.89 55.59 177.52 54.58 177.31 53.33 Z" />
<path fill="#3c6bbe" opacity="1.00" d=" M 211.68 54.15 C 212.01 53.72 212.68 52.88 213.02 52.46 C 213.47 52.66 214.38 53.07 214.83 53.28 C 214.57 54.51 213.24 55.55 211.97 55.33 L 211.68 54.15 Z" />
</g>
<g id="#3d6bbdff">
<path fill="#3d6bbd" opacity="1.00" d=" M 186.96 28.75 C 192.56 25.39 199.44 25.39 205.04 28.75 C 205.07 29.68 205.13 31.53 205.16 32.45 C 199.50 36.19 192.50 36.19 186.84 32.45 C 186.87 31.53 186.93 29.68 186.96 28.75 Z" />
</g>
<g id="#a0e0a2ff">
<path fill="#a0e0a2" opacity="1.00" d=" M 61.60 27.39 C 63.07 29.55 64.45 31.78 65.54 34.16 C 65.66 36.83 65.78 39.51 65.92 42.18 C 63.87 37.92 61.77 33.55 61.34 28.77 L 61.60 27.39 Z" />
<path fill="#a0e0a2" opacity="1.00" d=" M 102.57 34.16 C 103.61 31.76 104.97 29.52 106.41 27.33 L 106.67 28.75 C 106.26 33.54 104.11 37.89 102.09 42.17 C 102.29 39.50 102.45 36.83 102.57 34.16 Z" />
<path fill="#a0e0a2" opacity="1.00" d=" M 117.19 28.33 L 117.75 27.78 C 118.95 30.95 120.29 34.07 121.32 37.30 C 121.57 38.91 121.81 40.52 122.10 42.12 C 119.63 37.86 117.81 33.23 117.19 28.33 Z" />
<path fill="#a0e0a2" opacity="1.00" d=" M 158.77 37.32 C 159.69 34.06 161.02 30.93 162.11 27.72 L 162.63 28.32 C 162.17 33.25 160.28 37.83 158.08 42.20 C 158.34 40.58 158.54 38.95 158.77 37.32 Z" />
<path fill="#a0e0a2" opacity="1.00" d=" M 173.60 27.39 C 175.07 29.55 176.45 31.78 177.54 34.16 C 177.66 36.83 177.78 39.51 177.92 42.18 C 175.87 37.92 173.77 33.55 173.34 28.77 L 173.60 27.39 Z" />
<path fill="#a0e0a2" opacity="1.00" d=" M 214.57 34.16 C 215.61 31.76 216.97 29.52 218.41 27.33 L 218.67 28.75 C 218.26 33.54 216.11 37.89 214.08 42.16 C 214.28 39.50 214.44 36.83 214.57 34.16 Z" />
</g>
<g id="#596753ff">
<path fill="#596753" opacity="1.00" d=" M 0.00 31.95 C 1.76 31.98 2.06 35.01 0.00 34.49 L 0.00 31.95 Z" />
<path fill="#596753" opacity="1.00" d=" M 55.17 32.00 C 55.59 32.00 56.41 32.00 56.83 32.00 C 59.58 35.17 52.42 35.17 55.17 32.00 Z" />
<path fill="#596753" opacity="1.00" d=" M 111.17 32.00 C 111.59 32.00 112.41 32.00 112.83 32.00 C 115.58 35.17 108.42 35.17 111.17 32.00 Z" />
<path fill="#596753" opacity="1.00" d=" M 167.17 32.00 C 167.59 32.00 168.41 32.00 168.83 32.00 C 171.58 35.17 164.42 35.17 167.17 32.00 Z" />
<path fill="#596753" opacity="1.00" d=" M 224.00 34.48 C 221.94 35.01 222.24 31.98 224.00 31.95 L 224.00 34.48 Z" />
</g>
<g id="#3c6bbefe">
<path fill="#3c6bbe" opacity="1.00" d=" M 73.46 35.44 C 76.65 36.11 79.81 36.84 83.00 37.55 C 81.07 41.74 78.44 45.54 75.37 48.98 C 76.03 49.07 77.33 49.26 77.98 49.36 C 76.01 51.04 74.01 52.71 72.02 54.38 C 79.54 50.47 88.46 50.47 95.98 54.38 C 93.99 52.71 91.99 51.04 90.02 49.36 C 90.67 49.26 91.97 49.07 92.63 48.98 C 89.56 45.54 86.93 41.74 85.00 37.55 C 88.25 36.83 91.51 36.08 94.76 35.37 C 96.09 38.19 97.28 41.10 98.93 43.77 C 99.27 43.99 99.97 44.44 100.32 44.66 L 99.73 44.68 C 99.38 44.82 98.67 45.10 98.32 45.23 C 96.80 46.57 98.43 48.64 99.68 49.50 C 99.51 49.90 99.17 50.69 99.01 51.09 C 98.31 52.73 97.58 54.36 96.87 56.00 L 71.53 56.00 C 70.57 54.34 69.68 52.64 68.85 50.91 C 68.65 50.48 68.24 49.63 68.04 49.20 C 69.31 48.40 70.44 47.41 71.48 46.34 C 70.95 45.91 70.40 45.51 69.82 45.14 C 69.45 45.02 68.69 44.79 68.31 44.67 L 67.68 44.65 C 68.04 44.44 68.75 44.04 69.11 43.84 C 70.95 41.25 72.11 38.28 73.46 35.44 Z" />
<path fill="#3c6bbe" opacity="1.00" d=" M 185.46 35.44 C 188.66 36.11 191.79 36.84 195.00 37.55 C 193.07 41.74 190.44 45.54 187.37 48.98 C 188.03 49.07 189.33 49.26 189.98 49.36 C 188.00 51.04 186.01 52.71 184.02 54.38 C 191.54 50.47 200.46 50.47 207.98 54.38 C 205.99 52.71 203.99 51.04 202.02 49.36 C 202.67 49.26 203.97 49.07 204.63 48.98 C 201.56 45.54 198.93 41.74 197.00 37.55 C 200.23 36.83 203.51 36.08 206.76 35.37 C 208.09 38.19 209.28 41.10 210.93 43.77 C 211.27 43.99 211.96 44.45 212.30 44.67 L 211.73 44.70 C 211.37 44.84 210.67 45.11 210.32 45.25 C 208.81 46.61 210.49 48.67 211.75 49.53 C 211.58 49.92 211.25 50.70 211.08 51.09 C 210.36 52.73 209.61 54.36 208.88 56.00 L 183.53 56.00 C 182.57 54.34 181.68 52.64 180.85 50.91 C 180.65 50.48 180.24 49.63 180.04 49.20 C 181.30 48.40 182.44 47.41 183.48 46.34 C 182.95 45.91 182.40 45.51 181.82 45.14 C 181.45 45.02 180.69 44.79 180.31 44.67 L 179.68 44.65 C 180.04 44.44 180.75 44.04 181.11 43.84 C 182.95 41.25 184.10 38.28 185.46 35.44 Z" />
</g>
<g id="#998b50ff">
<path fill="#998b50" opacity="1.00" d=" M 0.00 34.94 C 1.89 36.65 3.83 38.30 5.63 40.11 C 7.15 41.69 8.78 43.17 10.47 44.57 C 9.87 44.61 8.68 44.71 8.09 44.76 C 7.57 44.78 6.55 44.83 6.04 44.86 C 6.47 43.54 5.43 42.44 4.54 41.63 C 2.95 39.91 1.43 38.14 0.00 36.28 L 0.00 34.94 Z" />
<path fill="#998b50" opacity="1.00" d=" M 218.38 40.09 C 220.16 38.27 222.10 36.63 224.00 34.93 L 224.00 36.30 C 222.58 38.12 221.06 39.87 219.48 41.55 C 218.57 42.33 217.53 43.42 217.96 44.74 C 217.45 44.73 216.44 44.71 215.93 44.71 C 215.39 44.69 214.30 44.67 213.76 44.66 C 215.37 43.21 216.91 41.68 218.38 40.09 Z" />
</g>
<g id="#3c6bbfff">
<path fill="#3c6bbf" opacity="1.00" d=" M 17.45 35.40 C 22.51 35.59 25.50 39.12 26.66 43.56 C 27.56 43.56 28.46 43.57 29.36 43.57 C 30.45 39.06 33.62 35.39 38.57 34.97 C 39.81 37.74 40.90 40.58 42.36 43.24 C 42.61 43.50 43.12 44.00 43.38 44.25 L 43.72 44.59 C 43.05 44.75 41.69 45.05 41.01 45.21 C 40.61 45.32 39.81 45.53 39.40 45.64 C 40.63 46.84 41.85 48.04 43.11 49.20 C 42.84 49.53 42.31 50.19 42.04 50.52 C 41.08 52.32 40.22 54.16 39.34 56.00 L 17.01 56.00 C 15.91 54.21 14.92 52.36 13.86 50.54 C 13.59 50.22 13.06 49.56 12.79 49.23 C 14.25 47.92 15.69 46.60 17.11 45.25 C 16.61 45.18 15.61 45.04 15.11 44.97 C 14.43 44.90 13.07 44.75 12.39 44.68 L 12.67 44.27 C 12.86 43.99 13.25 43.42 13.44 43.13 C 15.00 40.68 16.11 37.96 17.45 35.40 Z" />
</g>
<g id="#9c8a4fff">
<path fill="#9c8a4f" opacity="1.00" d=" M 50.32 39.93 C 51.77 38.47 53.36 37.14 55.16 36.13 C 53.96 37.93 52.86 39.80 51.78 41.69 C 50.70 42.38 49.30 43.40 49.70 44.89 C 49.25 44.86 48.35 44.80 47.90 44.77 C 47.31 44.72 46.15 44.61 45.56 44.56 C 47.24 43.11 48.83 41.56 50.32 39.93 Z" />
<path fill="#9c8a4f" opacity="1.00" d=" M 56.84 36.12 C 58.64 37.12 60.24 38.45 61.69 39.92 C 63.13 41.56 64.62 43.15 66.21 44.65 C 65.68 44.67 64.61 44.70 64.08 44.71 C 63.64 44.73 62.76 44.75 62.32 44.77 C 62.70 43.27 61.29 42.27 60.18 41.63 C 59.12 39.76 58.02 37.91 56.84 36.12 Z" />
<path fill="#9c8a4f" opacity="1.00" d=" M 106.32 39.91 C 107.76 38.45 109.36 37.12 111.16 36.12 C 109.98 37.91 108.89 39.76 107.82 41.63 C 106.71 42.27 105.29 43.27 105.68 44.76 C 105.24 44.75 104.36 44.72 103.92 44.71 C 103.38 44.70 102.32 44.67 101.78 44.66 C 103.37 43.15 104.88 41.56 106.32 39.91 Z" />
<path fill="#9c8a4f" opacity="1.00" d=" M 112.84 36.13 C 114.65 37.13 116.24 38.47 117.69 39.93 C 119.17 41.57 120.73 43.13 122.37 44.61 C 121.79 44.66 120.64 44.74 120.07 44.79 C 119.62 44.81 118.74 44.86 118.29 44.88 C 118.69 43.39 117.30 42.37 116.22 41.68 C 115.14 39.80 114.04 37.93 112.84 36.13 Z" />
<path fill="#9c8a4f" opacity="1.00" d=" M 162.32 39.92 C 163.76 38.45 165.36 37.13 167.16 36.12 C 165.98 37.91 164.89 39.76 163.83 41.63 C 162.72 42.27 161.29 43.25 161.68 44.75 C 161.24 44.73 160.36 44.68 159.92 44.66 C 159.39 44.63 158.34 44.58 157.81 44.55 C 159.39 43.08 160.89 41.53 162.32 39.92 Z" />
<path fill="#9c8a4f" opacity="1.00" d=" M 168.84 36.12 C 170.64 37.12 172.24 38.45 173.69 39.92 C 175.13 41.56 176.62 43.15 178.21 44.65 C 177.68 44.67 176.61 44.70 176.08 44.71 C 175.64 44.73 174.76 44.75 174.32 44.77 C 174.70 43.27 173.28 42.27 172.18 41.63 C 171.12 39.76 170.02 37.91 168.84 36.12 Z" />
</g>
<g id="#5c5c49ff">
<path fill="#5c5c49" opacity="1.00" d=" M 0.00 36.28 C 1.43 38.14 2.95 39.91 4.54 41.63 C 3.80 42.80 4.28 45.24 6.04 44.86 C 6.55 44.83 7.57 44.78 8.09 44.76 C 8.52 46.65 8.96 48.54 9.30 50.46 L 9.41 51.26 C 8.98 51.08 8.14 50.72 7.72 50.54 C 9.96 47.73 5.46 47.58 6.27 50.67 L 6.22 51.18 C 5.95 49.50 5.88 47.81 5.79 46.11 C 5.04 45.77 4.29 45.42 3.54 45.08 C 2.88 43.22 2.23 41.35 1.41 39.55 C 1.05 39.42 0.35 39.14 0.00 39.01 L 0.00 36.28 Z" />
<path fill="#5c5c49" opacity="1.00" d=" M 219.48 41.55 C 221.06 39.87 222.58 38.12 224.00 36.30 L 224.00 39.01 C 223.65 39.14 222.95 39.42 222.60 39.55 C 221.76 41.35 221.12 43.22 220.46 45.08 C 219.69 45.42 218.93 45.77 218.18 46.12 C 218.09 47.81 218.01 49.51 217.77 51.18 L 217.71 50.69 C 218.49 47.67 214.05 47.66 216.20 50.51 C 215.72 50.64 214.76 50.90 214.29 51.03 L 214.43 50.18 C 214.87 48.34 215.41 46.52 215.93 44.71 C 216.44 44.71 217.45 44.73 217.96 44.74 C 219.71 45.10 220.25 42.73 219.48 41.55 Z" />
</g>
<g id="#615648ff">
<path fill="#615648" opacity="1.00" d=" M 55.16 36.13 C 55.58 36.12 56.42 36.12 56.84 36.12 C 58.02 37.91 59.12 39.76 60.18 41.63 C 60.13 42.92 60.53 45.14 62.32 44.77 C 62.76 44.75 63.64 44.73 64.08 44.71 C 64.59 46.55 65.12 48.39 65.57 50.25 L 65.75 51.08 C 65.23 50.99 64.20 50.82 63.68 50.73 C 64.21 49.59 63.97 48.63 62.98 47.85 C 61.81 46.74 60.62 45.65 59.43 44.56 C 58.92 42.82 58.40 41.09 57.87 39.37 C 56.62 39.37 55.38 39.37 54.13 39.37 C 53.60 41.09 53.08 42.82 52.57 44.56 C 51.38 45.65 50.20 46.74 49.03 47.85 C 48.03 48.66 47.80 49.64 48.36 50.79 C 47.90 50.90 46.97 51.14 46.51 51.26 L 46.63 50.47 C 47.00 48.56 47.45 46.66 47.90 44.77 C 48.35 44.80 49.25 44.86 49.70 44.89 C 51.50 45.29 51.82 42.96 51.78 41.69 C 52.86 39.80 53.96 37.93 55.16 36.13 Z" />
<path fill="#615648" opacity="1.00" d=" M 111.16 36.12 C 111.58 36.12 112.42 36.12 112.84 36.13 C 114.04 37.93 115.14 39.80 116.22 41.68 C 116.16 42.95 116.49 45.26 118.29 44.88 C 118.74 44.86 119.62 44.81 120.07 44.79 C 120.59 46.60 121.12 48.41 121.58 50.24 L 121.75 51.07 C 121.24 50.98 120.21 50.81 119.69 50.73 C 120.21 49.59 119.98 48.63 118.98 47.85 C 117.81 46.74 116.62 45.65 115.43 44.56 C 114.91 42.82 114.40 41.09 113.87 39.37 C 112.62 39.37 111.38 39.37 110.13 39.37 C 109.60 41.09 109.08 42.83 108.57 44.56 C 107.38 45.65 106.20 46.74 105.02 47.85 C 104.03 48.63 103.78 49.59 104.29 50.73 C 103.77 50.80 102.74 50.94 102.22 51.01 L 102.38 50.17 C 102.84 48.34 103.39 46.53 103.92 44.71 C 104.36 44.72 105.24 44.75 105.68 44.76 C 107.46 45.13 107.87 42.92 107.82 41.63 C 108.89 39.76 109.98 37.91 111.16 36.12 Z" />
<path fill="#615648" opacity="1.00" d=" M 167.16 36.12 C 167.58 36.12 168.42 36.12 168.84 36.12 C 170.02 37.91 171.12 39.76 172.18 41.63 C 172.13 42.92 172.53 45.14 174.32 44.77 C 174.76 44.75 175.64 44.73 176.08 44.71 C 176.59 46.55 177.12 48.39 177.57 50.25 L 177.75 51.08 C 177.23 50.99 176.20 50.82 175.68 50.73 C 176.21 49.59 175.97 48.63 174.98 47.85 C 173.81 46.74 172.62 45.65 171.43 44.56 C 170.91 42.82 170.40 41.09 169.87 39.37 C 168.62 39.37 167.37 39.37 166.13 39.37 C 165.60 41.09 165.08 42.83 164.57 44.56 C 163.38 45.65 162.19 46.74 161.02 47.85 C 160.03 48.63 159.78 49.59 160.29 50.73 C 159.77 50.80 158.73 50.93 158.22 51.00 L 158.38 50.17 C 158.84 48.32 159.39 46.49 159.92 44.66 C 160.36 44.68 161.24 44.73 161.68 44.75 C 163.45 45.14 163.87 42.92 163.83 41.63 C 164.89 39.76 165.98 37.91 167.16 36.12 Z" />
</g>
<g id="#77a460ff">
<path fill="#77a460" opacity="1.00" d=" M 0.00 39.01 C 0.35 39.14 1.05 39.42 1.41 39.55 C 2.49 40.93 1.16 42.26 0.00 42.92 L 0.00 39.01 Z" />
<path fill="#77a460" opacity="1.00" d=" M 54.13 39.37 C 55.38 39.37 56.62 39.37 57.87 39.37 C 57.71 40.46 57.54 41.56 57.38 42.66 C 56.46 42.66 55.54 42.66 54.62 42.66 C 54.45 41.56 54.29 40.46 54.13 39.37 Z" />
<path fill="#77a460" opacity="1.00" d=" M 110.13 39.37 C 111.38 39.37 112.62 39.37 113.87 39.37 C 113.70 40.46 113.54 41.56 113.38 42.66 C 112.46 42.66 111.54 42.66 110.62 42.66 C 110.45 41.56 110.29 40.46 110.13 39.37 Z" />
<path fill="#77a460" opacity="1.00" d=" M 166.13 39.37 C 167.37 39.37 168.62 39.37 169.87 39.37 C 169.70 40.46 169.54 41.56 169.38 42.66 C 168.46 42.66 167.54 42.66 166.62 42.66 C 166.45 41.56 166.29 40.46 166.13 39.37 Z" />
<path fill="#77a460" opacity="1.00" d=" M 222.60 39.55 C 222.95 39.42 223.65 39.14 224.00 39.01 L 224.00 42.92 C 222.83 42.26 221.51 40.93 222.60 39.55 Z" />
</g>
<g id="#332e2aff">
<path fill="#332e2a" opacity="1.00" d=" M 1.41 39.55 C 2.23 41.35 2.88 43.22 3.54 45.08 C 2.36 44.55 1.18 44.03 0.00 43.50 L 0.00 42.92 C 1.16 42.26 2.49 40.93 1.41 39.55 Z" />
<path fill="#332e2a" opacity="1.00" d=" M 52.57 44.56 C 53.08 42.82 53.60 41.09 54.13 39.37 C 54.29 40.46 54.45 41.56 54.62 42.66 C 55.54 42.66 56.46 42.66 57.38 42.66 C 57.54 41.56 57.71 40.46 57.87 39.37 C 58.40 41.09 58.92 42.82 59.43 44.56 C 57.14 44.54 54.86 44.54 52.57 44.56 Z" />
<path fill="#332e2a" opacity="1.00" d=" M 108.57 44.56 C 109.08 42.83 109.60 41.09 110.13 39.37 C 110.29 40.46 110.45 41.56 110.62 42.66 C 111.54 42.66 112.46 42.66 113.38 42.66 C 113.54 41.56 113.70 40.46 113.87 39.37 C 114.40 41.09 114.91 42.82 115.43 44.56 C 113.14 44.54 110.86 44.54 108.57 44.56 Z" />
<path fill="#332e2a" opacity="1.00" d=" M 164.57 44.56 C 165.08 42.83 165.60 41.09 166.13 39.37 C 166.29 40.46 166.45 41.56 166.62 42.66 C 167.54 42.66 168.46 42.66 169.38 42.66 C 169.54 41.56 169.70 40.46 169.87 39.37 C 170.40 41.09 170.91 42.82 171.43 44.56 C 169.14 44.54 166.86 44.54 164.57 44.56 Z" />
<path fill="#332e2a" opacity="1.00" d=" M 220.46 45.08 C 221.12 43.22 221.76 41.35 222.60 39.55 C 221.51 40.93 222.83 42.26 224.00 42.92 L 224.00 43.50 C 222.82 44.03 221.64 44.55 220.46 45.08 Z" />
<path fill="#332e2a" opacity="1.00" d=" M 4.54 41.63 C 5.43 42.44 6.47 43.54 6.04 44.86 C 4.28 45.24 3.80 42.80 4.54 41.63 Z" />
<path fill="#332e2a" opacity="1.00" d=" M 49.70 44.89 C 49.30 43.40 50.70 42.38 51.78 41.69 C 51.82 42.96 51.50 45.29 49.70 44.89 Z" />
<path fill="#332e2a" opacity="1.00" d=" M 60.18 41.63 C 61.29 42.27 62.70 43.27 62.32 44.77 C 60.53 45.14 60.13 42.92 60.18 41.63 Z" />
<path fill="#332e2a" opacity="1.00" d=" M 105.68 44.76 C 105.29 43.27 106.71 42.27 107.82 41.63 C 107.87 42.92 107.46 45.13 105.68 44.76 Z" />
<path fill="#332e2a" opacity="1.00" d=" M 116.22 41.68 C 117.30 42.37 118.69 43.39 118.29 44.88 C 116.49 45.26 116.16 42.95 116.22 41.68 Z" />
<path fill="#332e2a" opacity="1.00" d=" M 161.68 44.75 C 161.29 43.25 162.72 42.27 163.83 41.63 C 163.87 42.92 163.45 45.14 161.68 44.75 Z" />
<path fill="#332e2a" opacity="1.00" d=" M 172.18 41.63 C 173.28 42.27 174.70 43.27 174.32 44.77 C 172.53 45.14 172.13 42.92 172.18 41.63 Z" />
<path fill="#332e2a" opacity="1.00" d=" M 217.96 44.74 C 217.53 43.42 218.57 42.33 219.48 41.55 C 220.25 42.73 219.71 45.10 217.96 44.74 Z" />
<path fill="#332e2a" opacity="1.00" d=" M 6.22 51.18 L 6.27 50.67 C 6.63 50.64 7.36 50.57 7.72 50.54 C 8.14 50.72 8.98 51.08 9.41 51.26 C 9.67 51.48 10.21 51.93 10.48 52.15 C 9.90 52.30 8.73 52.59 8.15 52.73 L 7.32 52.78 L 6.49 52.57 C 6.42 52.22 6.29 51.53 6.22 51.18 Z" />
<path fill="#332e2a" opacity="1.00" d=" M 45.38 52.14 C 45.66 51.92 46.23 51.48 46.51 51.26 C 46.97 51.14 47.90 50.90 48.36 50.79 C 48.76 50.87 49.55 51.04 49.95 51.13 L 50.42 51.54 L 50.04 52.11 L 49.21 52.55 L 48.36 52.75 L 47.60 52.73 C 47.04 52.58 45.94 52.29 45.38 52.14 Z" />
<path fill="#332e2a" opacity="1.00" d=" M 61.56 51.52 L 62.03 51.11 C 62.45 51.02 63.27 50.83 63.68 50.73 C 64.20 50.82 65.23 50.99 65.75 51.08 C 66.04 51.23 66.62 51.55 66.91 51.70 C 66.28 51.93 65.00 52.37 64.36 52.59 L 63.56 52.64 L 62.71 52.46 L 61.91 52.07 L 61.56 51.52 Z" />
<path fill="#332e2a" opacity="1.00" d=" M 101.08 51.68 C 101.36 51.51 101.93 51.17 102.22 51.01 C 102.74 50.94 103.77 50.80 104.29 50.73 C 104.70 50.83 105.53 51.03 105.94 51.13 L 106.41 51.54 L 106.06 52.06 L 105.27 52.45 L 104.42 52.62 L 103.63 52.57 C 102.99 52.35 101.71 51.90 101.08 51.68 Z" />
<path fill="#332e2a" opacity="1.00" d=" M 117.56 51.53 L 118.04 51.12 C 118.45 51.02 119.28 50.82 119.69 50.73 C 120.21 50.81 121.24 50.98 121.75 51.07 C 122.04 51.22 122.62 51.53 122.91 51.69 C 122.28 51.91 121.00 52.36 120.37 52.59 L 119.57 52.64 L 118.72 52.46 L 117.91 52.07 L 117.56 51.53 Z" />
<path fill="#332e2a" opacity="1.00" d=" M 157.08 51.67 C 157.36 51.50 157.93 51.17 158.22 51.00 C 158.73 50.93 159.77 50.80 160.29 50.73 C 160.70 50.83 161.52 51.03 161.94 51.13 L 162.41 51.54 L 162.06 52.06 L 161.26 52.45 L 160.42 52.62 L 159.63 52.57 C 158.99 52.34 157.71 51.90 157.08 51.67 Z" />
<path fill="#332e2a" opacity="1.00" d=" M 173.56 51.52 L 174.03 51.11 C 174.45 51.02 175.27 50.83 175.68 50.73 C 176.20 50.82 177.23 50.99 177.75 51.08 C 178.04 51.23 178.62 51.55 178.91 51.70 C 178.28 51.93 177.00 52.37 176.36 52.59 L 175.56 52.64 L 174.71 52.46 L 173.91 52.07 L 173.56 51.52 Z" />
<path fill="#332e2a" opacity="1.00" d=" M 213.20 51.71 C 213.47 51.54 214.01 51.20 214.29 51.03 C 214.76 50.90 215.72 50.64 216.20 50.51 C 216.58 50.55 217.33 50.64 217.71 50.69 L 217.77 51.18 C 217.72 51.51 217.61 52.16 217.56 52.48 L 216.73 52.65 L 215.87 52.57 C 215.20 52.36 213.87 51.93 213.20 51.71 Z" />
<path fill="#332e2a" opacity="1.00" d=" M 8.49 53.41 L 9.10 53.93 C 9.89 55.94 13.03 56.07 12.97 53.52 C 12.59 54.14 11.84 55.38 11.46 56.00 L 7.74 56.00 C 7.93 55.35 8.30 54.06 8.49 53.41 Z" />
<path fill="#332e2a" opacity="1.00" d=" M 46.77 53.98 L 47.33 53.44 C 47.57 54.08 48.03 55.36 48.27 56.00 L 44.47 56.00 C 44.09 55.38 43.32 54.13 42.94 53.51 C 42.85 56.05 46.00 56.02 46.77 53.98 Z" />
<path fill="#332e2a" opacity="1.00" d=" M 64.63 53.28 L 65.31 53.33 C 65.52 54.58 66.90 55.59 68.16 55.34 L 67.99 56.00 L 64.00 56.00 C 64.16 55.32 64.47 53.96 64.63 53.28 Z" />
<path fill="#332e2a" opacity="1.00" d=" M 102.68 53.30 L 103.36 53.26 C 103.52 53.95 103.83 55.32 103.99 56.00 L 100.04 56.00 L 99.86 55.34 C 101.12 55.58 102.48 54.55 102.68 53.30 Z" />
<path fill="#332e2a" opacity="1.00" d=" M 120.63 53.28 L 121.31 53.32 C 121.52 54.57 122.89 55.59 124.16 55.34 L 123.99 56.00 L 120.01 56.00 C 120.16 55.32 120.48 53.96 120.63 53.28 Z" />
<path fill="#332e2a" opacity="1.00" d=" M 158.68 53.30 L 159.36 53.26 C 159.52 53.95 159.83 55.32 159.99 56.00 L 156.04 56.00 L 155.87 55.34 C 157.12 55.58 158.47 54.55 158.68 53.30 Z" />
<path fill="#332e2a" opacity="1.00" d=" M 176.63 53.28 L 177.31 53.33 C 177.52 54.58 178.89 55.59 180.16 55.34 L 179.99 56.00 L 176.00 56.00 C 176.16 55.32 176.47 53.96 176.63 53.28 Z" />
<path fill="#332e2a" opacity="1.00" d=" M 214.83 53.28 L 215.53 53.25 C 215.65 53.94 215.90 55.31 216.02 56.00 L 212.15 56.00 L 211.97 55.33 C 213.24 55.55 214.57 54.51 214.83 53.28 Z" />
</g>
<g id="#7aa55cff">
<path fill="#7aa55c" opacity="1.00" d=" M 0.00 43.50 C 1.18 44.03 2.36 44.55 3.54 45.08 C 4.29 45.42 5.04 45.77 5.79 46.11 C 5.88 47.81 5.95 49.50 6.22 51.18 C 6.29 51.53 6.42 52.22 6.49 52.57 C 6.36 53.28 6.10 54.71 5.97 55.43 L 6.19 56.00 L 0.00 56.00 L 0.00 43.50 Z" />
<path fill="#7aa55c" opacity="1.00" d=" M 220.46 45.08 C 221.64 44.55 222.82 44.03 224.00 43.50 L 224.00 56.00 L 217.64 56.00 L 217.94 55.39 C 217.85 54.66 217.65 53.21 217.56 52.48 C 217.61 52.16 217.72 51.51 217.77 51.18 C 218.01 49.51 218.09 47.81 218.18 46.12 C 218.93 45.77 219.69 45.42 220.46 45.08 Z" />
</g>
<g id="#363636ff">
<path fill="#363636" opacity="1.00" d=" M 10.47 44.57 L 11.53 44.47 L 12.67 44.27 L 12.39 44.68 C 11.68 45.55 11.53 46.53 11.93 47.62 C 12.03 48.13 12.22 49.14 12.31 49.64 C 12.29 50.08 12.24 50.96 12.21 51.40 L 11.65 50.96 C 11.06 50.83 9.88 50.58 9.30 50.46 C 8.96 48.54 8.52 46.65 8.09 44.76 C 8.68 44.71 9.87 44.61 10.47 44.57 Z" />
<path fill="#363636" opacity="1.00" d=" M 43.38 44.25 L 44.50 44.45 L 45.56 44.56 C 46.15 44.61 47.31 44.72 47.90 44.77 C 47.45 46.66 47.00 48.56 46.63 50.47 C 46.04 50.59 44.85 50.82 44.25 50.94 L 43.68 51.38 C 43.66 50.94 43.61 50.06 43.59 49.62 C 43.76 49.08 44.09 47.99 44.26 47.45 C 44.81 46.32 44.63 45.37 43.72 44.59 L 43.38 44.25 Z" />
</g>
<g id="#7ea95cff">
<path fill="#7ea95c" opacity="1.00" d=" M 52.57 44.56 C 54.86 44.54 57.14 44.54 59.43 44.56 C 60.62 45.65 61.81 46.74 62.98 47.85 C 60.71 47.50 59.82 50.21 61.56 51.52 L 61.91 52.07 C 59.89 52.41 57.94 53.01 56.01 53.66 C 54.06 53.01 52.08 52.43 50.04 52.11 L 50.42 51.54 C 52.17 50.24 51.31 47.51 49.03 47.85 C 50.20 46.74 51.38 45.65 52.57 44.56 Z" />
<path fill="#7ea95c" opacity="1.00" d=" M 108.57 44.56 C 110.86 44.54 113.14 44.54 115.43 44.56 C 116.62 45.65 117.81 46.74 118.98 47.85 C 116.71 47.51 115.83 50.21 117.56 51.53 L 117.91 52.07 C 115.90 52.42 113.93 53.01 112.00 53.67 C 110.06 53.01 108.09 52.41 106.06 52.06 L 106.41 51.54 C 108.16 50.23 107.29 47.53 105.02 47.85 C 106.20 46.74 107.38 45.65 108.57 44.56 Z" />
<path fill="#7ea95c" opacity="1.00" d=" M 164.57 44.56 C 166.86 44.54 169.14 44.54 171.43 44.56 C 172.62 45.65 173.81 46.74 174.98 47.85 C 172.71 47.50 171.82 50.21 173.56 51.52 L 173.91 52.07 C 171.89 52.42 169.93 53.01 168.00 53.67 C 166.06 53.01 164.08 52.42 162.06 52.06 L 162.41 51.54 C 164.16 50.23 163.29 47.53 161.02 47.85 C 162.19 46.74 163.38 45.65 164.57 44.56 Z" />
</g>
<g id="#37322dff">
<path fill="#37322d" opacity="1.00" d=" M 66.21 44.65 L 66.94 44.65 L 67.68 44.65 L 68.31 44.67 C 67.57 45.49 67.32 46.47 67.56 47.60 C 67.56 47.95 67.55 48.64 67.55 48.99 L 67.17 49.31 C 66.77 49.55 65.97 50.02 65.57 50.25 C 65.12 48.39 64.59 46.55 64.08 44.71 C 64.61 44.70 65.68 44.67 66.21 44.65 Z" />
<path fill="#37322d" opacity="1.00" d=" M 100.32 44.66 L 101.05 44.67 L 101.78 44.66 C 102.32 44.67 103.38 44.70 103.92 44.71 C 103.39 46.53 102.84 48.34 102.38 50.17 C 101.95 49.97 101.09 49.57 100.66 49.37 L 100.19 49.24 C 100.25 48.85 100.38 48.07 100.44 47.69 C 100.82 46.51 100.58 45.51 99.73 44.68 L 100.32 44.66 Z" />
<path fill="#37322d" opacity="1.00" d=" M 122.37 44.61 L 123.32 44.54 L 124.41 44.34 L 124.28 44.44 C 123.41 45.20 123.15 46.20 123.51 47.43 C 123.52 47.82 123.54 48.58 123.55 48.96 L 123.17 49.27 C 122.77 49.51 121.98 50.00 121.58 50.24 C 121.12 48.41 120.59 46.60 120.07 44.79 C 120.64 44.74 121.79 44.66 122.37 44.61 Z" />
<path fill="#37322d" opacity="1.00" d=" M 156.50 44.53 L 157.13 44.54 L 157.81 44.55 C 158.34 44.58 159.39 44.63 159.92 44.66 C 159.39 46.49 158.84 48.32 158.38 50.17 C 157.95 49.96 157.09 49.56 156.66 49.35 L 156.19 49.22 C 156.26 48.82 156.38 48.03 156.44 47.63 C 156.81 46.45 156.58 45.44 155.76 44.57 L 156.50 44.53 Z" />
<path fill="#37322d" opacity="1.00" d=" M 178.21 44.65 L 178.94 44.65 L 179.68 44.65 L 180.31 44.67 C 179.57 45.49 179.32 46.47 179.56 47.60 C 179.56 47.95 179.55 48.64 179.55 48.99 L 179.17 49.31 C 178.77 49.55 177.97 50.02 177.57 50.25 C 177.12 48.39 176.59 46.55 176.08 44.71 C 176.61 44.70 177.68 44.67 178.21 44.65 Z" />
<path fill="#37322d" opacity="1.00" d=" M 212.30 44.67 L 213.03 44.67 L 213.76 44.66 C 214.30 44.67 215.39 44.69 215.93 44.71 C 215.41 46.52 214.87 48.34 214.43 50.18 C 214.00 49.99 213.14 49.59 212.71 49.39 L 212.24 49.27 C 212.30 48.88 212.41 48.09 212.47 47.70 C 212.82 46.52 212.57 45.52 211.73 44.70 L 212.30 44.67 Z" />
</g>
<g id="#86a0b1ff">
<path fill="#86a0b1" opacity="1.00" d=" M 11.93 47.62 C 11.53 46.53 11.68 45.55 12.39 44.68 C 13.07 44.75 14.43 44.90 15.11 44.97 C 14.29 46.09 13.33 47.24 11.93 47.62 Z" />
<path fill="#86a0b1" opacity="1.00" d=" M 41.01 45.21 C 41.69 45.05 43.05 44.75 43.72 44.59 C 44.63 45.37 44.81 46.32 44.26 47.45 C 42.91 47.17 41.95 46.13 41.01 45.21 Z" />
<path fill="#86a0b1" opacity="1.00" d=" M 67.56 47.60 C 67.32 46.47 67.57 45.49 68.31 44.67 C 68.69 44.79 69.45 45.02 69.82 45.14 C 69.37 46.22 68.61 47.04 67.56 47.60 Z" />
<path fill="#86a0b1" opacity="1.00" d=" M 98.32 45.23 C 98.67 45.10 99.38 44.82 99.73 44.68 C 100.58 45.51 100.82 46.51 100.44 47.69 C 99.48 47.07 98.78 46.25 98.32 45.23 Z" />
<path fill="#86a0b1" opacity="1.00" d=" M 123.51 47.43 C 123.15 46.20 123.41 45.20 124.28 44.44 C 124.63 44.61 125.33 44.96 125.68 45.14 C 125.22 46.14 124.50 46.90 123.51 47.43 Z" />
<path fill="#86a0b1" opacity="1.00" d=" M 154.35 45.16 C 154.71 45.02 155.41 44.72 155.76 44.57 C 156.58 45.44 156.81 46.45 156.44 47.63 C 155.50 47.00 154.80 46.18 154.35 45.16 Z" />
<path fill="#86a0b1" opacity="1.00" d=" M 179.56 47.60 C 179.32 46.47 179.57 45.49 180.31 44.67 C 180.69 44.79 181.45 45.02 181.82 45.14 C 181.37 46.22 180.61 47.04 179.56 47.60 Z" />
<path fill="#86a0b1" opacity="1.00" d=" M 210.32 45.25 C 210.67 45.11 211.37 44.84 211.73 44.70 C 212.57 45.52 212.82 46.52 212.47 47.70 C 211.50 47.08 210.78 46.27 210.32 45.25 Z" />
<path fill="#86a0b1" opacity="1.00" d=" M 12.31 49.64 L 12.79 49.23 C 13.06 49.56 13.59 50.22 13.86 50.54 C 13.93 51.64 13.63 52.63 12.97 53.52 L 12.46 53.04 C 12.40 52.63 12.27 51.81 12.21 51.40 C 12.24 50.96 12.29 50.08 12.31 49.64 Z" />
<path fill="#86a0b1" opacity="1.00" d=" M 43.11 49.20 L 43.59 49.62 C 43.61 50.06 43.66 50.94 43.68 51.38 C 43.61 51.80 43.49 52.62 43.42 53.04 L 42.94 53.51 C 42.28 52.62 41.98 51.63 42.04 50.52 C 42.31 50.19 42.84 49.53 43.11 49.20 Z" />
</g>
<g id="#288ad6ff">
<path fill="#288ad6" opacity="1.00" d=" M 15.11 44.97 C 15.61 45.04 16.61 45.18 17.11 45.25 C 15.69 46.60 14.25 47.92 12.79 49.23 L 12.31 49.64 C 12.22 49.14 12.03 48.13 11.93 47.62 C 13.33 47.24 14.29 46.09 15.11 44.97 Z" />
</g>
<g id="#2889d5ff">
<path fill="#2889d5" opacity="1.00" d=" M 39.40 45.64 C 39.81 45.53 40.61 45.32 41.01 45.21 C 41.95 46.13 42.91 47.17 44.26 47.45 C 44.09 47.99 43.76 49.08 43.59 49.62 L 43.11 49.20 C 41.85 48.04 40.63 46.84 39.40 45.64 Z" />
</g>
<g id="#2989d5fe">
<path fill="#2989d5" opacity="1.00" d=" M 69.82 45.14 C 70.40 45.51 70.95 45.91 71.48 46.34 C 70.44 47.41 69.31 48.40 68.04 49.20 L 67.55 48.99 C 67.55 48.64 67.56 47.95 67.56 47.60 C 68.61 47.04 69.37 46.22 69.82 45.14 Z" />
<path fill="#2989d5" opacity="1.00" d=" M 125.68 45.14 C 128.18 46.30 125.53 48.60 124.03 49.23 L 123.55 48.96 C 123.54 48.58 123.52 47.82 123.51 47.43 C 124.50 46.90 125.22 46.14 125.68 45.14 Z" />
<path fill="#2989d5" opacity="1.00" d=" M 181.82 45.14 C 182.40 45.51 182.95 45.91 183.48 46.34 C 182.44 47.41 181.30 48.40 180.04 49.20 L 179.55 48.99 C 179.55 48.64 179.56 47.95 179.56 47.60 C 180.61 47.04 181.37 46.22 181.82 45.14 Z" />
</g>
<g id="#2988d4ff">
<path fill="#2988d4" opacity="1.00" d=" M 99.68 49.50 C 98.43 48.64 96.80 46.57 98.32 45.23 C 98.78 46.25 99.48 47.07 100.44 47.69 C 100.38 48.07 100.25 48.85 100.19 49.24 L 99.68 49.50 Z" />
<path fill="#2988d4" opacity="1.00" d=" M 155.69 49.48 C 154.44 48.59 152.86 46.52 154.35 45.16 C 154.80 46.18 155.50 47.00 156.44 47.63 C 156.38 48.03 156.26 48.82 156.19 49.22 L 155.69 49.48 Z" />
<path fill="#2988d4" opacity="1.00" d=" M 211.75 49.53 C 210.49 48.67 208.81 46.61 210.32 45.25 C 210.78 46.27 211.50 47.08 212.47 47.70 C 212.41 48.09 212.30 48.88 212.24 49.27 L 211.75 49.53 Z" />
</g>
<g id="#427bcafe">
<path fill="#427bca" opacity="1.00" d=" M 130.80 47.64 C 131.73 46.87 132.67 46.10 133.60 45.33 C 135.66 47.28 137.64 49.82 141.07 49.00 C 143.48 49.17 144.78 46.70 146.39 45.31 C 147.32 46.09 148.26 46.87 149.20 47.64 C 148.38 47.79 146.73 48.10 145.91 48.25 C 148.00 50.14 150.08 52.04 152.14 53.97 C 144.82 49.33 135.18 49.33 127.86 53.97 C 129.92 52.04 132.00 50.14 134.09 48.25 C 133.27 48.10 131.62 47.79 130.80 47.64 Z" />
</g>
<g id="#416845ff">
<path fill="#416845" opacity="1.00" d=" M 49.03 47.85 C 51.31 47.51 52.17 50.24 50.42 51.54 L 49.95 51.13 C 49.80 49.99 49.49 48.90 49.03 47.85 Z" />
<path fill="#416845" opacity="1.00" d=" M 61.56 51.52 C 59.82 50.21 60.71 47.50 62.98 47.85 C 62.52 48.90 62.21 49.99 62.03 51.11 L 61.56 51.52 Z" />
<path fill="#416845" opacity="1.00" d=" M 105.02 47.85 C 107.29 47.53 108.16 50.23 106.41 51.54 L 105.94 51.13 C 105.77 50.00 105.47 48.90 105.02 47.85 Z" />
<path fill="#416845" opacity="1.00" d=" M 117.56 51.53 C 115.83 50.21 116.71 47.51 118.98 47.85 C 118.52 48.90 118.21 49.99 118.04 51.12 L 117.56 51.53 Z" />
<path fill="#416845" opacity="1.00" d=" M 161.02 47.85 C 163.29 47.53 164.16 50.23 162.41 51.54 L 161.94 51.13 C 161.77 50.00 161.47 48.91 161.02 47.85 Z" />
<path fill="#416845" opacity="1.00" d=" M 173.56 51.52 C 171.82 50.21 172.71 47.50 174.98 47.85 C 174.52 48.90 174.20 49.99 174.03 51.11 L 173.56 51.52 Z" />
<path fill="#416845" opacity="1.00" d=" M 6.49 52.57 L 7.32 52.78 C 7.28 53.88 6.83 54.77 5.97 55.43 C 6.10 54.71 6.36 53.28 6.49 52.57 Z" />
<path fill="#416845" opacity="1.00" d=" M 48.36 52.75 L 49.21 52.55 C 49.41 53.25 49.80 54.66 49.99 55.36 C 49.12 54.70 48.57 53.83 48.36 52.75 Z" />
<path fill="#416845" opacity="1.00" d=" M 62.71 52.46 L 63.56 52.64 C 63.37 53.71 62.88 54.60 62.09 55.33 C 62.24 54.61 62.56 53.18 62.71 52.46 Z" />
<path fill="#416845" opacity="1.00" d=" M 104.42 52.62 L 105.27 52.45 C 105.42 53.16 105.73 54.60 105.89 55.32 C 105.09 54.59 104.60 53.69 104.42 52.62 Z" />
<path fill="#416845" opacity="1.00" d=" M 118.72 52.46 L 119.57 52.64 C 119.38 53.70 118.89 54.60 118.09 55.33 C 118.25 54.61 118.56 53.18 118.72 52.46 Z" />
<path fill="#416845" opacity="1.00" d=" M 160.42 52.62 L 161.26 52.45 C 161.42 53.16 161.73 54.60 161.89 55.32 C 161.09 54.59 160.60 53.69 160.42 52.62 Z" />
<path fill="#416845" opacity="1.00" d=" M 174.71 52.46 L 175.56 52.64 C 175.37 53.71 174.88 54.60 174.09 55.33 C 174.24 54.61 174.56 53.18 174.71 52.46 Z" />
<path fill="#416845" opacity="1.00" d=" M 216.73 52.65 L 217.56 52.48 C 217.65 53.21 217.85 54.66 217.94 55.39 C 217.16 54.66 216.75 53.74 216.73 52.65 Z" />
</g>
<g id="#8ca5b7ff">
<path fill="#8ca5b7" opacity="1.00" d=" M 67.55 48.99 L 68.04 49.20 C 68.24 49.63 68.65 50.48 68.85 50.91 C 68.81 52.01 68.67 53.09 68.43 54.16 C 68.10 53.74 67.44 52.90 67.11 52.48 L 66.91 51.70 C 66.98 51.11 67.11 49.91 67.17 49.31 L 67.55 48.99 Z" />
<path fill="#8ca5b7" opacity="1.00" d=" M 99.68 49.50 L 100.19 49.24 L 100.66 49.37 C 100.77 49.95 100.97 51.10 101.08 51.68 L 100.89 52.45 C 100.56 52.88 99.90 53.73 99.57 54.16 C 99.32 53.15 99.13 52.12 99.01 51.09 C 99.17 50.69 99.51 49.90 99.68 49.50 Z" />
<path fill="#8ca5b7" opacity="1.00" d=" M 123.55 48.96 L 124.03 49.23 C 124.24 49.66 124.65 50.51 124.85 50.94 C 124.81 52.03 124.67 53.10 124.43 54.16 C 124.10 53.74 123.44 52.89 123.11 52.47 L 122.91 51.69 C 122.98 51.08 123.10 49.87 123.17 49.27 L 123.55 48.96 Z" />
<path fill="#8ca5b7" opacity="1.00" d=" M 155.69 49.48 L 156.19 49.22 L 156.66 49.35 C 156.77 49.93 156.97 51.09 157.08 51.67 L 156.88 52.45 C 156.56 52.88 155.90 53.73 155.57 54.16 C 155.32 53.14 155.13 52.12 155.01 51.08 C 155.18 50.68 155.52 49.88 155.69 49.48 Z" />
<path fill="#8ca5b7" opacity="1.00" d=" M 179.55 48.99 L 180.04 49.20 C 180.24 49.63 180.65 50.48 180.85 50.91 C 180.81 52.01 180.67 53.09 180.43 54.16 C 180.10 53.74 179.44 52.90 179.11 52.48 L 178.91 51.70 C 178.98 51.11 179.11 49.91 179.17 49.31 L 179.55 48.99 Z" />
<path fill="#8ca5b7" opacity="1.00" d=" M 211.75 49.53 L 212.24 49.27 L 212.71 49.39 C 212.83 49.97 213.08 51.13 213.20 51.71 L 213.02 52.46 C 212.68 52.88 212.01 53.72 211.68 54.15 C 211.42 53.14 211.22 52.12 211.08 51.09 C 211.25 50.70 211.58 49.92 211.75 49.53 Z" />
</g>
<g id="#adc2d9ff">
<path fill="#adc2d9" opacity="1.00" d=" M 11.65 50.96 L 12.21 51.40 C 12.27 51.81 12.40 52.63 12.46 53.04 C 12.00 53.00 11.08 52.93 10.62 52.89 L 10.48 52.15 C 10.77 51.85 11.36 51.26 11.65 50.96 Z" />
<path fill="#adc2d9" opacity="1.00" d=" M 43.68 51.38 L 44.25 50.94 C 44.53 51.24 45.10 51.84 45.38 52.14 L 45.24 52.90 C 44.79 52.93 43.88 53.00 43.42 53.04 C 43.49 52.62 43.61 51.80 43.68 51.38 Z" />
</g>
<g id="#268ed9ff">
<path fill="#268ed9" opacity="1.00" d=" M 13.86 50.54 C 14.92 52.36 15.91 54.21 17.01 56.00 L 11.46 56.00 C 11.84 55.38 12.59 54.14 12.97 53.52 C 13.63 52.63 13.93 51.64 13.86 50.54 Z" />
<path fill="#268ed9" opacity="1.00" d=" M 39.34 56.00 C 40.22 54.16 41.08 52.32 42.04 50.52 C 41.98 51.63 42.28 52.62 42.94 53.51 C 43.32 54.13 44.09 55.38 44.47 56.00 L 39.34 56.00 Z" />
<path fill="#268ed9" opacity="1.00" d=" M 68.85 50.91 C 69.68 52.64 70.57 54.34 71.53 56.00 L 67.99 56.00 L 68.16 55.34 L 68.43 54.16 C 68.67 53.09 68.81 52.01 68.85 50.91 Z" />
<path fill="#268ed9" opacity="1.00" d=" M 96.87 56.00 C 97.58 54.36 98.31 52.73 99.01 51.09 C 99.13 52.12 99.32 53.15 99.57 54.16 L 99.86 55.34 L 100.04 56.00 L 96.87 56.00 Z" />
<path fill="#268ed9" opacity="1.00" d=" M 124.85 50.94 C 125.68 52.66 126.57 54.35 127.53 56.00 L 123.99 56.00 L 124.16 55.34 L 124.43 54.16 C 124.67 53.10 124.81 52.03 124.85 50.94 Z" />
<path fill="#268ed9" opacity="1.00" d=" M 152.87 56.00 C 153.58 54.36 154.31 52.73 155.01 51.08 C 155.13 52.12 155.32 53.14 155.57 54.16 L 155.87 55.34 L 156.04 56.00 L 152.87 56.00 Z" />
<path fill="#268ed9" opacity="1.00" d=" M 180.85 50.91 C 181.68 52.64 182.57 54.34 183.53 56.00 L 179.99 56.00 L 180.16 55.34 L 180.43 54.16 C 180.67 53.09 180.81 52.01 180.85 50.91 Z" />
<path fill="#268ed9" opacity="1.00" d=" M 208.88 56.00 C 209.61 54.36 210.36 52.73 211.08 51.09 C 211.22 52.12 211.42 53.14 211.68 54.15 L 211.97 55.33 L 212.15 56.00 L 208.88 56.00 Z" />
</g>
<g id="#6f9c5aff">
<path fill="#6f9c5a" opacity="1.00" d=" M 50.04 52.11 C 52.08 52.43 54.06 53.01 56.01 53.66 C 57.94 53.01 59.89 52.41 61.91 52.07 L 62.71 52.46 C 62.56 53.18 62.24 54.61 62.09 55.33 L 62.37 56.00 L 49.79 56.00 L 49.99 55.36 C 49.80 54.66 49.41 53.25 49.21 52.55 L 50.04 52.11 Z" />
<path fill="#6f9c5a" opacity="1.00" d=" M 106.06 52.06 C 108.09 52.41 110.06 53.01 112.00 53.67 C 113.93 53.01 115.90 52.42 117.91 52.07 L 118.72 52.46 C 118.56 53.18 118.25 54.61 118.09 55.33 L 118.38 56.00 L 105.60 56.00 L 105.89 55.32 C 105.73 54.60 105.42 53.16 105.27 52.45 L 106.06 52.06 Z" />
<path fill="#6f9c5a" opacity="1.00" d=" M 162.06 52.06 C 164.08 52.42 166.06 53.01 168.00 53.67 C 169.93 53.01 171.89 52.42 173.91 52.07 L 174.71 52.46 C 174.56 53.18 174.24 54.61 174.09 55.33 L 174.37 56.00 L 161.60 56.00 L 161.89 55.32 C 161.73 54.60 161.42 53.16 161.26 52.45 L 162.06 52.06 Z" />
</g>
<g id="#75634eff">
<path fill="#75634e" opacity="1.00" d=" M 8.15 52.73 C 8.73 52.59 9.90 52.30 10.48 52.15 L 10.62 52.89 C 10.24 53.15 9.48 53.67 9.10 53.93 L 8.49 53.41 L 8.15 52.73 Z" />
<path fill="#75634e" opacity="1.00" d=" M 45.38 52.14 C 45.94 52.29 47.04 52.58 47.60 52.73 L 47.33 53.44 L 46.77 53.98 C 46.39 53.71 45.62 53.17 45.24 52.90 L 45.38 52.14 Z" />
<path fill="#75634e" opacity="1.00" d=" M 64.36 52.59 C 65.00 52.37 66.28 51.93 66.91 51.70 L 67.11 52.48 C 66.66 52.69 65.76 53.11 65.31 53.33 L 64.63 53.28 L 64.36 52.59 Z" />
<path fill="#75634e" opacity="1.00" d=" M 101.08 51.68 C 101.71 51.90 102.99 52.35 103.63 52.57 L 103.36 53.26 L 102.68 53.30 C 102.23 53.09 101.33 52.67 100.89 52.45 L 101.08 51.68 Z" />
<path fill="#75634e" opacity="1.00" d=" M 120.37 52.59 C 121.00 52.36 122.28 51.91 122.91 51.69 L 123.11 52.47 C 122.66 52.68 121.76 53.11 121.31 53.32 L 120.63 53.28 L 120.37 52.59 Z" />
<path fill="#75634e" opacity="1.00" d=" M 157.08 51.67 C 157.71 51.90 158.99 52.34 159.63 52.57 L 159.36 53.26 L 158.68 53.30 C 158.23 53.09 157.33 52.66 156.88 52.45 L 157.08 51.67 Z" />
<path fill="#75634e" opacity="1.00" d=" M 176.36 52.59 C 177.00 52.37 178.28 51.93 178.91 51.70 L 179.11 52.48 C 178.66 52.69 177.76 53.11 177.31 53.33 L 176.63 53.28 L 176.36 52.59 Z" />
<path fill="#75634e" opacity="1.00" d=" M 213.20 51.71 C 213.87 51.93 215.20 52.36 215.87 52.57 L 215.53 53.25 L 214.83 53.28 C 214.38 53.07 213.47 52.66 213.02 52.46 L 213.20 51.71 Z" />
</g>
<g id="#3b6bbefe">
<path fill="#3b6bbe" opacity="1.00" d=" M 9.10 53.93 C 9.48 53.67 10.24 53.15 10.62 52.89 C 11.08 52.93 12.00 53.00 12.46 53.04 L 12.97 53.52 C 13.03 56.07 9.89 55.94 9.10 53.93 Z" />
<path fill="#3b6bbe" opacity="1.00" d=" M 43.42 53.04 C 43.88 53.00 44.79 52.93 45.24 52.90 C 45.62 53.17 46.39 53.71 46.77 53.98 C 46.00 56.02 42.85 56.05 42.94 53.51 L 43.42 53.04 Z" />
</g>
</svg>
