<?xml version="1.0" encoding="UTF-8" ?>
<!DOCTYPE svg PUBLIC "-//W3C//DTD SVG 1.1//EN" "http://www.w3.org/Graphics/SVG/1.1/DTD/svg11.dtd">
<svg width="224pt" height="56pt" viewBox="0 0 224 56" version="1.1" xmlns="http://www.w3.org/2000/svg">
<g id="#91bc69ff">
<path fill="#91bc69" opacity="1.00" d=" M 0.00 0.00 L 0.80 0.00 C 1.73 1.21 1.47 2.12 -0.00 2.72 L 0.00 0.00 Z" />
</g>
<g id="#6c9959ff">
<path fill="#6c9959" opacity="1.00" d=" M 0.80 0.00 L 6.84 0.00 C 5.98 7.18 7.10 14.46 5.52 21.59 C 1.39 16.24 2.46 9.86 2.27 3.72 C 1.70 4.29 0.57 5.42 0.00 5.99 L 0.00 2.72 C 1.47 2.12 1.73 1.21 0.80 0.00 M 3.40 3.15 C 2.97 4.55 3.45 5.03 4.85 4.60 C 5.29 3.20 4.80 2.71 3.40 3.15 Z" />
</g>
<g id="#475943ff">
<path fill="#475943" opacity="1.00" d=" M 6.84 0.00 L 7.79 0.00 C 7.89 6.77 8.81 13.48 9.50 20.21 C 9.58 21.20 9.64 22.19 9.70 23.18 C 8.29 22.70 6.91 22.13 5.52 21.59 C 7.10 14.46 5.98 7.18 6.84 0.00 Z" />
<path fill="#475943" opacity="1.00" d=" M 62.82 0.00 L 63.78 0.00 C 63.90 6.77 64.81 13.48 65.50 20.20 C 65.59 21.20 65.66 22.19 65.72 23.19 C 64.28 22.71 62.87 22.14 61.45 21.60 C 63.15 14.48 61.98 7.18 62.82 0.00 Z" />
<path fill="#475943" opacity="1.00" d=" M 118.84 0.00 L 119.80 0.00 C 119.87 6.78 120.84 13.49 121.52 20.21 C 121.59 21.22 121.66 22.23 121.72 23.23 C 120.28 22.74 118.87 22.15 117.45 21.59 C 119.16 14.47 117.96 7.18 118.84 0.00 Z" />
<path fill="#475943" opacity="1.00" d=" M 174.82 0.00 L 175.78 0.00 C 175.90 6.77 176.81 13.48 177.50 20.20 C 177.58 21.20 177.65 22.20 177.72 23.20 C 176.30 22.71 174.91 22.14 173.52 21.60 C 175.09 14.46 174.00 7.18 174.82 0.00 Z" />
</g>
<g id="#322e2aff">
<path fill="#322e2a" opacity="1.00" d=" M 7.79 0.00 L 10.11 0.00 C 9.58 1.43 9.12 2.88 8.65 4.32 C 9.82 4.34 10.99 4.37 12.16 4.41 C 12.50 4.43 13.19 4.46 13.54 4.48 C 12.61 6.28 11.75 8.13 11.21 10.09 C 11.16 11.41 11.16 12.72 11.20 14.03 C 11.72 15.98 12.39 17.89 13.10 19.78 C 12.20 19.89 10.40 20.10 9.50 20.21 C 8.81 13.48 7.89 6.77 7.79 0.00 Z" />
<path fill="#322e2a" opacity="1.00" d=" M 63.78 0.00 L 65.65 0.00 C 65.41 1.44 65.19 2.88 64.97 4.32 C 66.01 4.39 67.04 4.48 68.08 4.57 C 68.42 4.60 69.09 4.67 69.42 4.70 C 68.35 7.04 67.69 9.53 67.11 12.03 C 67.13 12.61 67.16 13.77 67.18 14.35 C 67.76 16.19 68.43 17.99 69.09 19.80 C 68.19 19.90 66.40 20.10 65.50 20.20 C 64.81 13.48 63.90 6.77 63.78 0.00 Z" />
<path fill="#322e2a" opacity="1.00" d=" M 119.80 0.00 L 121.87 0.00 C 121.55 1.44 121.24 2.87 120.94 4.31 C 121.91 4.45 122.89 4.59 123.87 4.74 C 124.22 4.79 124.94 4.90 125.30 4.95 C 124.31 7.19 123.73 9.57 123.18 11.94 C 122.83 13.04 122.89 14.12 123.36 15.17 C 123.91 16.68 124.45 18.19 124.96 19.71 C 124.10 19.84 122.38 20.09 121.52 20.21 C 120.84 13.49 119.87 6.78 119.80 0.00 Z" />
<path fill="#322e2a" opacity="1.00" d=" M 175.78 0.00 L 177.65 0.00 C 177.41 1.44 177.19 2.88 176.97 4.32 C 178.00 4.39 179.04 4.48 180.08 4.57 C 180.42 4.60 181.09 4.67 181.42 4.70 C 180.35 7.04 179.69 9.53 179.11 12.03 C 179.13 12.61 179.16 13.77 179.18 14.35 C 179.76 16.19 180.43 17.99 181.09 19.80 C 180.19 19.90 178.40 20.10 177.50 20.20 C 176.81 13.48 175.90 6.77 175.78 0.00 Z" />
</g>
<g id="#565249ff">
<path fill="#565249" opacity="1.00" d=" M 10.11 0.00 L 13.26 0.00 L 12.92 0.82 C 12.35 1.95 12.09 3.15 12.16 4.41 C 10.99 4.37 9.82 4.34 8.65 4.32 C 9.12 2.88 9.58 1.43 10.11 0.00 Z" />
<path fill="#565249" opacity="1.00" d=" M 7.06 35.02 C 8.80 35.05 10.55 35.08 12.30 35.12 C 10.51 36.13 8.73 37.13 6.94 38.12 C 6.97 37.35 7.03 35.79 7.06 35.02 Z" />
<path fill="#565249" opacity="1.00" d=" M 63.06 35.02 C 64.80 35.05 66.55 35.08 68.30 35.12 C 66.51 36.13 64.73 37.13 62.94 38.12 C 62.97 37.35 63.03 35.79 63.06 35.02 Z" />
<path fill="#565249" opacity="1.00" d=" M 119.06 35.02 C 120.80 35.05 122.55 35.08 124.30 35.12 C 122.51 36.13 120.72 37.13 118.94 38.12 C 118.97 37.35 119.03 35.79 119.06 35.02 Z" />
<path fill="#565249" opacity="1.00" d=" M 175.06 35.02 C 176.80 35.05 178.55 35.08 180.30 35.12 C 178.51 36.13 176.72 37.13 174.94 38.12 C 174.97 37.35 175.03 35.79 175.06 35.02 Z" />
<path fill="#565249" opacity="1.00" d=" M 11.03 39.76 C 8.69 39.18 10.25 36.07 11.75 38.25 C 11.57 38.63 11.21 39.38 11.03 39.76 Z" />
<path fill="#565249" opacity="1.00" d=" M 66.75 39.43 C 64.25 39.22 65.69 36.52 67.55 37.74 C 67.35 38.17 66.95 39.01 66.75 39.43 Z" />
<path fill="#565249" opacity="1.00" d=" M 122.87 39.76 C 120.75 38.98 122.35 36.14 123.72 38.27 C 123.51 38.64 123.08 39.38 122.87 39.76 Z" />
<path fill="#565249" opacity="1.00" d=" M 178.75 39.43 C 176.25 39.22 177.69 36.52 179.55 37.74 C 179.35 38.17 178.95 39.01 178.75 39.43 Z" />
</g>
<g id="#268ed9ff">
<path fill="#268ed9" opacity="1.00" d=" M 13.26 0.00 L 15.71 0.00 C 15.72 1.02 15.14 1.89 14.69 2.76 C 14.25 2.28 13.37 1.30 12.92 0.82 L 13.26 0.00 Z" />
<path fill="#268ed9" opacity="1.00" d=" M 124.01 0.00 L 125.60 0.00 C 126.78 0.65 126.72 2.07 126.48 3.19 C 126.09 3.07 125.32 2.83 124.94 2.71 C 124.71 2.03 124.24 0.68 124.01 0.00 Z" />
<path fill="#268ed9" opacity="1.00" d=" M 11.89 23.66 C 12.58 23.94 13.96 24.49 14.66 24.76 C 15.06 27.27 15.38 29.90 14.45 32.34 C 13.88 30.82 13.30 29.31 12.77 27.78 C 12.48 26.41 12.18 25.04 11.89 23.66 Z" />
<path fill="#268ed9" opacity="1.00" d=" M 14.16 50.60 C 14.92 52.16 15.60 53.75 16.23 55.37 L 15.50 56.00 L 12.17 56.00 C 12.48 55.45 13.10 54.35 13.41 53.79 C 14.02 52.82 14.27 51.75 14.16 50.60 Z" />
</g>
<g id="#3c6bbeff">
<path fill="#3c6bbe" opacity="1.00" d=" M 15.71 0.00 L 25.65 0.00 C 26.63 1.14 27.56 2.32 28.49 3.50 C 24.58 4.17 20.61 4.19 16.66 4.37 C 19.07 5.19 21.43 6.54 24.01 6.66 C 27.67 5.50 30.92 3.10 34.95 3.17 C 38.28 3.96 41.17 6.02 44.51 6.76 C 48.34 7.06 52.20 6.48 56.02 6.20 C 56.05 7.76 56.06 9.31 56.07 10.86 C 52.26 10.70 48.45 10.52 44.64 10.39 C 44.01 13.08 42.16 15.12 40.16 16.91 C 45.44 15.61 50.68 14.09 56.08 13.34 C 56.07 16.88 56.10 20.43 56.03 23.98 C 55.99 25.43 55.94 26.87 55.87 28.31 C 51.17 29.00 46.18 28.31 44.13 23.58 C 46.85 22.09 49.56 20.59 52.29 19.12 C 48.83 19.79 45.39 20.54 41.95 21.26 C 43.72 26.29 50.17 30.24 47.48 36.01 C 45.32 35.08 43.16 34.15 41.01 33.19 C 40.76 34.09 40.51 34.99 40.26 35.89 C 44.92 37.98 49.88 39.21 54.85 40.28 C 53.10 38.29 48.93 36.71 50.31 33.50 C 51.92 31.85 53.95 30.70 55.81 29.38 C 55.80 35.02 55.92 40.66 55.97 46.30 C 53.15 45.80 50.13 45.94 47.51 44.69 C 46.58 43.38 46.57 41.66 46.15 40.15 C 45.25 41.52 44.34 42.88 43.43 44.24 C 40.46 44.00 37.50 43.67 34.56 43.21 C 33.33 43.95 32.10 44.70 30.87 45.44 C 35.27 45.15 39.68 45.99 43.37 48.48 C 47.19 46.13 51.70 46.73 55.98 46.95 C 56.00 49.96 56.03 52.98 56.06 56.00 L 32.78 56.00 C 30.13 53.60 27.25 51.47 24.09 49.81 C 26.81 46.40 29.32 42.82 31.40 38.98 C 32.65 36.39 36.03 36.58 38.37 35.66 C 36.45 32.90 34.76 29.99 32.82 27.24 C 33.22 29.27 33.63 31.30 34.05 33.33 C 31.77 34.29 29.54 35.66 27.02 35.83 C 24.50 35.46 22.25 34.17 19.93 33.20 C 19.90 32.30 19.83 30.51 19.79 29.61 C 23.00 28.31 26.37 27.45 29.82 27.09 C 29.07 25.88 28.32 24.67 27.59 23.45 C 31.60 20.60 36.51 19.99 41.31 20.49 C 39.21 19.51 37.17 18.27 34.89 17.79 C 30.70 18.21 26.58 19.47 22.33 19.25 C 24.36 20.90 26.22 22.74 28.01 24.64 C 24.64 26.01 21.24 27.33 17.75 28.40 C 18.14 29.87 18.50 31.34 18.84 32.82 C 17.96 33.57 17.08 34.33 16.20 35.08 C 15.51 34.40 14.83 33.73 14.14 33.06 L 14.45 32.34 C 15.38 29.90 15.06 27.27 14.66 24.76 L 14.89 24.12 C 16.22 21.38 15.99 18.32 15.17 15.46 C 15.92 11.45 15.51 7.36 14.71 3.39 L 14.69 2.76 C 15.14 1.89 15.72 1.02 15.71 0.00 Z" />
<path fill="#3c6bbe" opacity="1.00" d=" M 30.51 0.00 L 55.81 0.00 C 55.85 0.81 55.91 2.44 55.94 3.26 C 47.36 5.90 38.57 3.02 30.51 0.00 Z" />
<path fill="#3c6bbe" opacity="1.00" d=" M 67.34 0.00 L 85.23 0.00 C 82.00 3.73 77.12 3.44 72.67 3.29 C 75.13 4.24 77.53 5.49 80.15 5.94 C 82.81 4.97 84.68 2.61 86.76 0.79 C 91.79 0.02 95.59 3.15 99.63 5.35 C 103.68 6.22 107.89 5.95 112.01 6.24 C 112.04 7.38 112.06 8.52 112.07 9.65 C 108.56 9.79 104.92 9.38 101.52 10.39 C 99.36 11.75 97.79 13.82 96.00 15.60 C 101.34 14.38 106.61 12.72 112.09 12.29 C 112.08 16.20 112.12 20.11 112.01 24.02 C 111.97 24.84 111.90 26.47 111.87 27.29 C 107.17 28.00 102.18 27.31 100.13 22.58 C 102.85 21.09 105.56 19.59 108.29 18.12 C 104.83 18.79 101.39 19.54 97.95 20.26 C 99.72 25.29 106.17 29.24 103.48 35.01 C 101.32 34.08 99.16 33.15 97.01 32.19 C 96.76 33.09 96.51 33.99 96.26 34.89 C 100.92 36.98 105.88 38.21 110.85 39.28 C 109.11 37.29 104.93 35.71 106.31 32.50 C 107.92 30.85 109.95 29.70 111.81 28.37 C 111.80 33.91 111.92 39.45 111.97 44.99 C 109.30 44.98 106.64 44.97 103.99 44.96 C 103.70 42.88 103.43 40.81 103.14 38.73 C 102.35 40.55 101.57 42.37 100.78 44.19 C 96.06 43.66 91.25 43.17 86.56 44.23 C 92.31 45.46 98.10 47.99 104.07 46.88 C 106.71 46.59 109.33 46.24 111.97 45.91 C 111.99 49.27 112.02 52.64 112.04 56.00 L 93.30 56.00 C 88.39 54.04 83.82 51.39 79.23 48.81 C 83.85 43.49 86.84 35.90 94.44 34.08 C 92.99 31.36 91.51 28.65 89.56 26.24 C 90.03 28.31 90.55 30.35 91.06 32.41 C 85.65 35.60 79.21 34.54 73.74 31.96 C 75.97 26.66 81.53 25.93 86.72 26.37 C 86.18 25.03 85.64 23.69 85.10 22.36 C 87.04 20.62 89.01 18.91 90.99 17.23 C 86.70 18.11 82.28 17.95 78.02 16.96 C 80.93 18.47 83.49 20.60 84.99 23.57 C 81.04 24.93 77.05 26.18 73.04 27.37 C 73.30 29.67 73.27 32.04 73.89 34.28 C 76.14 36.56 79.75 36.76 82.39 38.24 C 81.07 42.28 78.66 45.83 75.42 48.57 C 75.97 48.80 77.07 49.27 77.62 49.51 C 75.53 51.69 73.45 53.90 71.27 56.00 L 70.63 56.00 C 71.91 45.62 71.23 35.18 70.57 24.80 L 70.65 24.09 C 71.31 17.22 70.69 10.30 70.32 3.43 C 70.37 2.33 69.93 1.51 68.99 0.98 C 68.58 0.73 67.75 0.24 67.34 0.00 Z" />
<path fill="#3c6bbe" opacity="1.00" d=" M 154.31 0.00 L 167.78 0.00 C 167.82 0.87 167.89 2.60 167.92 3.47 C 163.07 3.75 157.65 4.28 154.31 0.00 Z" />
<path fill="#3c6bbe" opacity="1.00" d=" M 179.34 0.00 L 197.23 0.00 C 194.00 3.73 189.12 3.44 184.67 3.29 C 187.13 4.24 189.53 5.49 192.15 5.94 C 194.81 4.97 196.67 2.61 198.76 0.79 C 205.29 -0.79 209.06 6.13 215.16 5.80 C 218.11 5.96 221.07 6.12 224.00 6.51 L 224.00 9.41 C 220.50 9.63 216.89 9.47 213.49 10.38 C 211.35 11.69 209.83 13.76 208.08 15.52 C 213.60 15.26 218.43 11.78 224.00 12.02 L 224.00 27.59 C 219.30 27.94 214.21 27.33 212.12 22.58 C 214.84 21.09 217.56 19.59 220.29 18.12 C 216.83 18.79 213.39 19.54 209.95 20.26 C 211.72 25.29 218.17 29.24 215.48 35.01 C 213.31 34.08 211.16 33.15 209.01 32.19 C 208.76 33.09 208.51 33.99 208.26 34.89 C 212.92 36.98 217.88 38.21 222.85 39.28 C 221.14 37.30 216.87 35.71 218.36 32.54 C 219.99 30.75 222.10 29.50 224.00 28.03 L 224.00 45.11 C 215.53 44.96 207.00 42.34 198.57 44.24 C 204.32 45.45 210.10 48.02 216.07 46.88 C 218.72 46.57 221.34 46.16 224.00 45.79 L 224.00 56.00 L 205.30 56.00 C 200.39 54.04 195.82 51.39 191.23 48.81 C 195.84 43.51 198.82 35.92 206.40 34.10 C 204.97 31.40 203.64 28.64 201.91 26.11 C 202.25 28.17 202.62 30.22 202.97 32.28 C 200.07 33.56 197.15 35.46 193.87 35.28 C 191.06 34.50 188.51 32.94 185.84 31.84 C 188.03 26.56 193.61 26.00 198.72 26.37 C 198.18 25.03 197.64 23.69 197.10 22.35 C 199.04 20.62 201.01 18.91 202.99 17.23 C 198.69 18.11 194.28 17.95 190.02 16.96 C 192.93 18.47 195.49 20.60 196.99 23.57 C 193.04 24.93 189.05 26.18 185.04 27.37 C 185.30 29.67 185.26 32.04 185.89 34.28 C 188.14 36.56 191.73 36.76 194.39 38.24 C 193.07 42.28 190.66 45.83 187.42 48.57 C 187.97 48.80 189.07 49.27 189.62 49.51 C 187.53 51.69 185.45 53.90 183.27 56.00 L 182.63 56.00 C 183.91 45.62 183.23 35.18 182.57 24.80 L 182.65 24.09 C 183.30 17.22 182.69 10.30 182.32 3.43 C 182.37 2.33 181.93 1.51 180.99 0.98 C 180.58 0.73 179.75 0.24 179.34 0.00 Z" />
<path fill="#3c6bbe" opacity="1.00" d=" M 16.42 36.26 C 20.86 36.05 24.85 38.27 28.20 40.98 C 25.74 42.69 23.31 44.46 20.67 45.87 C 21.02 47.48 21.38 49.08 21.74 50.69 C 19.91 52.26 18.06 53.81 16.23 55.37 C 15.60 53.75 14.92 52.16 14.16 50.60 C 13.91 50.29 13.41 49.68 13.17 49.37 C 14.35 48.10 15.53 46.81 16.71 45.53 C 16.31 45.35 15.50 44.98 15.10 44.80 L 14.46 44.47 C 14.36 42.89 14.16 39.72 14.06 38.14 C 14.85 37.52 15.63 36.89 16.42 36.26 Z" />
<path fill="#3c6bbe" opacity="1.00" d=" M 62.17 50.82 C 61.84 49.57 62.50 47.93 64.00 48.03 C 63.94 48.64 63.81 49.87 63.75 50.49 C 63.35 50.57 62.56 50.74 62.17 50.82 Z" />
<path fill="#3c6bbe" opacity="1.00" d=" M 118.16 50.81 C 117.84 49.56 118.49 47.92 120.00 48.02 C 119.93 48.63 119.80 49.86 119.73 50.47 C 119.34 50.56 118.55 50.73 118.16 50.81 Z" />
<path fill="#3c6bbe" opacity="1.00" d=" M 174.17 50.82 C 173.84 49.57 174.50 47.93 176.00 48.03 C 175.94 48.64 175.81 49.87 175.75 50.49 C 175.35 50.57 174.56 50.74 174.17 50.82 Z" />
<path fill="#3c6bbe" opacity="1.00" d=" M 65.81 50.23 C 66.34 50.40 67.41 50.75 67.94 50.93 C 67.58 51.19 66.86 51.70 66.51 51.95 C 66.23 51.70 65.69 51.18 65.42 50.92 L 65.81 50.23 Z" />
<path fill="#3c6bbe" opacity="1.00" d=" M 121.79 50.22 C 122.32 50.40 123.37 50.76 123.90 50.94 C 123.54 51.20 122.81 51.70 122.45 51.96 C 122.18 51.70 121.65 51.17 121.39 50.91 L 121.79 50.22 Z" />
<path fill="#3c6bbe" opacity="1.00" d=" M 177.81 50.23 C 178.34 50.40 179.41 50.75 179.94 50.93 C 179.58 51.19 178.86 51.70 178.51 51.95 C 178.23 51.70 177.69 51.18 177.42 50.92 L 177.81 50.23 Z" />
<path fill="#3c6bbe" opacity="1.00" d=" M 72.09 56.00 C 74.43 54.38 76.54 52.35 79.20 51.24 C 82.17 51.56 84.90 53.04 87.74 53.88 C 86.31 54.60 84.87 55.33 83.41 56.00 L 72.09 56.00 Z" />
<path fill="#3c6bbe" opacity="1.00" d=" M 184.09 56.00 C 186.43 54.38 188.54 52.35 191.20 51.24 C 194.17 51.56 196.89 53.04 199.74 53.88 C 198.30 54.60 196.87 55.33 195.41 56.00 L 184.09 56.00 Z" />
<path fill="#3c6bbe" opacity="1.00" d=" M 17.01 56.00 C 19.92 54.36 22.68 51.77 26.37 52.56 C 28.26 53.45 29.85 54.83 31.56 56.00 L 17.01 56.00 Z" />
<path fill="#3c6bbe" opacity="1.00" d=" M 63.47 52.73 L 64.23 52.63 L 64.51 53.30 C 64.32 53.98 63.93 55.33 63.73 56.00 L 62.18 56.00 L 61.97 55.38 C 62.83 54.71 63.34 53.83 63.47 52.73 Z" />
<path fill="#3c6bbe" opacity="1.00" d=" M 119.45 52.73 L 120.20 52.63 L 120.48 53.31 C 120.29 53.98 119.92 55.33 119.73 56.00 L 118.18 56.00 L 117.96 55.38 C 118.82 54.71 119.32 53.83 119.45 52.73 Z" />
<path fill="#3c6bbe" opacity="1.00" d=" M 175.47 52.73 L 176.23 52.63 L 176.51 53.30 C 176.32 53.98 175.93 55.33 175.73 56.00 L 174.18 56.00 L 173.97 55.38 C 174.83 54.71 175.33 53.83 175.47 52.73 Z" />
</g>
<g id="#4079ccff">
<path fill="#4079cc" opacity="1.00" d=" M 25.65 0.00 L 30.51 0.00 C 38.57 3.02 47.36 5.90 55.94 3.26 C 55.96 4.00 56.00 5.47 56.02 6.20 C 52.20 6.48 48.34 7.06 44.51 6.76 C 41.17 6.02 38.28 3.96 34.95 3.17 C 30.92 3.10 27.67 5.50 24.01 6.66 C 21.43 6.54 19.07 5.19 16.66 4.37 C 20.61 4.19 24.58 4.17 28.49 3.50 C 27.56 2.32 26.63 1.14 25.65 0.00 Z" />
<path fill="#4079cc" opacity="1.00" d=" M 151.69 0.00 L 154.31 0.00 C 157.65 4.28 163.07 3.75 167.92 3.47 C 167.94 4.19 167.99 5.63 168.01 6.34 C 163.80 6.11 159.54 5.92 155.43 5.01 C 153.71 3.77 152.77 1.77 151.69 0.00 Z" />
</g>
<g id="#85af5fff">
<path fill="#85af5f" opacity="1.00" d=" M 55.81 0.00 L 56.25 0.00 C 57.93 1.52 59.57 3.09 61.22 4.65 C 60.40 4.49 59.58 4.33 58.77 4.17 C 57.64 10.15 57.95 16.31 61.45 21.60 C 61.73 22.13 62.28 23.19 62.56 23.73 C 61.32 23.50 60.08 23.31 58.84 23.12 C 58.46 24.08 58.08 25.03 57.70 25.99 C 57.14 25.32 56.58 24.65 56.03 23.98 C 56.10 20.43 56.07 16.88 56.08 13.34 C 56.07 12.72 56.07 11.48 56.07 10.86 C 56.06 9.31 56.05 7.76 56.02 6.20 C 56.00 5.47 55.96 4.00 55.94 3.26 C 55.91 2.44 55.85 0.81 55.81 0.00 M 57.29 20.53 C 56.42 21.76 58.53 23.04 59.33 21.85 C 60.15 20.65 58.07 19.38 57.29 20.53 Z" />
<path fill="#85af5f" opacity="1.00" d=" M 111.77 0.00 L 112.24 0.00 C 113.93 1.52 115.57 3.09 117.22 4.65 C 116.40 4.49 115.58 4.33 114.77 4.17 C 113.64 10.15 113.95 16.31 117.45 21.59 C 117.73 22.12 118.28 23.19 118.56 23.73 C 117.32 23.50 116.08 23.31 114.84 23.12 C 114.46 24.07 114.09 25.02 113.71 25.97 C 113.14 25.32 112.57 24.67 112.01 24.02 C 112.12 20.11 112.08 16.20 112.09 12.29 C 112.09 11.63 112.08 10.31 112.07 9.65 C 112.06 8.52 112.04 7.38 112.01 6.24 C 111.99 5.52 111.94 4.09 111.92 3.38 C 111.88 2.53 111.81 0.84 111.77 0.00 M 113.29 20.53 C 112.42 21.76 114.53 23.04 115.33 21.85 C 116.14 20.65 114.07 19.38 113.29 20.53 Z" />
<path fill="#85af5f" opacity="1.00" d=" M 167.78 0.00 L 168.25 0.00 C 169.93 1.52 171.57 3.09 173.22 4.65 C 172.40 4.49 171.58 4.33 170.77 4.17 C 169.65 10.16 169.91 16.34 173.52 21.60 C 173.71 21.98 174.11 22.74 174.31 23.12 C 172.48 23.66 170.70 24.34 169.01 25.21 C 168.67 24.85 168.34 24.50 168.00 24.15 C 168.06 19.92 168.09 15.68 168.08 11.45 C 168.08 10.84 168.07 9.60 168.06 8.99 C 168.05 8.33 168.02 7.01 168.01 6.34 C 167.99 5.63 167.94 4.19 167.92 3.47 C 167.89 2.60 167.82 0.87 167.78 0.00 M 169.29 20.53 C 168.42 21.76 170.53 23.04 171.33 21.85 C 172.14 20.65 170.07 19.38 169.29 20.53 Z" />
</g>
<g id="#6b9959ff">
<path fill="#6b9959" opacity="1.00" d=" M 56.25 0.00 L 62.82 0.00 C 61.98 7.18 63.15 14.48 61.45 21.60 C 57.95 16.31 57.64 10.15 58.77 4.17 C 59.58 4.33 60.40 4.49 61.22 4.65 C 59.57 3.09 57.93 1.52 56.25 0.00 Z" />
<path fill="#6b9959" opacity="1.00" d=" M 112.24 0.00 L 118.84 0.00 C 117.96 7.18 119.16 14.47 117.45 21.59 C 113.95 16.31 113.64 10.15 114.77 4.17 C 115.58 4.33 116.40 4.49 117.22 4.65 C 115.57 3.09 113.93 1.52 112.24 0.00 Z" />
<path fill="#6b9959" opacity="1.00" d=" M 168.25 0.00 L 174.82 0.00 C 174.00 7.18 175.09 14.46 173.52 21.60 C 169.91 16.34 169.65 10.16 170.77 4.17 C 171.58 4.33 172.40 4.49 173.22 4.65 C 171.57 3.09 169.93 1.52 168.25 0.00 Z" />
</g>
<g id="#565248fe">
<path fill="#565248" opacity="1.00" d=" M 65.65 0.00 L 67.34 0.00 C 67.75 0.24 68.58 0.73 68.99 0.98 C 68.25 2.07 67.95 3.27 68.08 4.57 C 67.04 4.48 66.01 4.39 64.97 4.32 C 65.19 2.88 65.41 1.44 65.65 0.00 Z" />
<path fill="#565248" opacity="1.00" d=" M 121.87 0.00 L 124.01 0.00 C 124.24 0.68 124.71 2.03 124.94 2.71 C 124.67 3.22 124.13 4.23 123.87 4.74 C 122.89 4.59 121.91 4.45 120.94 4.31 C 121.24 2.87 121.55 1.44 121.87 0.00 Z" />
<path fill="#565248" opacity="1.00" d=" M 177.65 0.00 L 179.34 0.00 C 179.75 0.24 180.58 0.73 180.99 0.98 C 180.25 2.07 179.95 3.27 180.08 4.57 C 179.04 4.48 178.00 4.39 176.97 4.32 C 177.19 2.88 177.41 1.44 177.65 0.00 Z" />
</g>
<g id="#4179cbff">
<path fill="#4179cb" opacity="1.00" d=" M 85.23 0.00 L 94.02 0.00 C 99.22 3.91 105.72 3.59 111.92 3.38 C 111.94 4.09 111.99 5.52 112.01 6.24 C 107.89 5.95 103.68 6.22 99.63 5.35 C 95.59 3.15 91.79 0.02 86.76 0.79 C 84.68 2.61 82.81 4.97 80.15 5.94 C 77.53 5.49 75.13 4.24 72.67 3.29 C 77.12 3.44 82.00 3.73 85.23 0.00 Z" />
<path fill="#4179cb" opacity="1.00" d=" M 197.23 0.00 L 206.02 0.00 C 211.25 3.88 217.78 3.59 224.00 3.57 L 224.00 6.51 C 221.07 6.12 218.11 5.96 215.16 5.80 C 209.06 6.13 205.29 -0.79 198.76 0.79 C 196.67 2.61 194.81 4.97 192.15 5.94 C 189.53 5.49 187.13 4.24 184.67 3.29 C 189.12 3.44 194.00 3.73 197.23 0.00 Z" />
</g>
<g id="#3c6abefe">
<path fill="#3c6abe" opacity="1.00" d=" M 94.02 0.00 L 111.77 0.00 C 111.81 0.84 111.88 2.53 111.92 3.38 C 105.72 3.59 99.22 3.91 94.02 0.00 Z" />
<path fill="#3c6abe" opacity="1.00" d=" M 206.02 0.00 L 224.00 0.00 L 224.00 3.57 C 217.78 3.59 211.25 3.88 206.02 0.00 Z" />
</g>
<g id="#3c6bbefe">
<path fill="#3c6bbe" opacity="1.00" d=" M 125.60 0.00 L 138.22 0.00 C 137.69 0.57 136.64 1.72 136.11 2.30 C 133.62 2.19 131.13 2.15 128.64 2.20 C 131.28 3.25 133.84 4.68 136.68 5.11 C 138.51 3.73 139.66 1.67 141.19 0.00 L 151.69 0.00 C 152.77 1.77 153.71 3.77 155.43 5.01 C 159.54 5.92 163.80 6.11 168.01 6.34 C 168.02 7.01 168.05 8.33 168.06 8.99 C 162.64 9.60 156.14 8.62 152.56 13.77 C 157.72 12.92 162.87 11.91 168.08 11.45 C 168.09 15.68 168.06 19.92 168.00 24.15 C 167.98 24.68 167.94 25.73 167.92 26.26 C 163.21 27.00 158.17 26.35 156.13 21.57 C 158.85 20.09 161.56 18.59 164.29 17.12 C 160.83 17.79 157.39 18.54 153.95 19.26 C 155.65 24.18 161.86 27.98 159.64 33.61 C 156.62 32.88 153.59 32.23 150.51 31.80 C 149.41 29.53 148.27 27.27 146.94 25.11 C 147.29 27.20 147.63 29.29 147.99 31.38 C 142.09 34.95 134.84 33.89 128.99 30.76 C 131.50 24.18 139.00 25.68 144.66 24.96 C 139.51 22.44 133.93 23.78 129.03 26.17 C 129.00 28.73 128.97 31.30 128.96 33.87 C 132.23 35.28 136.24 35.58 138.83 38.19 C 138.42 41.18 137.33 44.01 136.50 46.89 C 140.57 44.42 141.28 39.47 144.04 36.05 C 151.39 31.82 159.45 36.95 166.86 38.36 C 165.11 36.35 160.99 34.72 162.31 31.50 C 163.93 29.84 165.98 28.69 167.86 27.35 C 167.76 32.97 167.72 38.59 167.67 44.22 C 166.59 43.72 163.87 42.97 163.77 44.76 C 164.81 45.83 166.49 45.21 167.67 44.72 C 167.77 48.48 167.94 52.24 168.08 56.00 L 150.18 56.00 C 145.18 51.59 138.75 49.45 133.51 45.42 C 132.68 46.05 131.86 46.68 131.04 47.32 C 131.71 47.60 133.06 48.16 133.73 48.44 C 132.03 50.18 130.31 51.91 128.61 53.64 C 133.69 50.06 140.30 49.93 145.61 53.12 C 143.59 53.40 139.56 53.96 137.54 54.25 C 138.07 54.68 139.14 55.56 139.67 56.00 L 126.82 56.00 C 128.10 38.59 126.25 21.19 126.45 3.77 L 126.48 3.19 C 126.72 2.07 126.78 0.65 125.60 0.00 M 138.69 9.42 C 141.08 10.67 143.59 11.65 146.05 12.73 C 145.36 14.03 144.69 15.34 144.06 16.67 C 147.09 16.49 150.14 16.55 153.17 16.74 C 149.03 15.68 146.19 12.74 144.77 8.77 C 142.75 9.04 140.71 9.21 138.69 9.42 M 154.19 44.36 C 152.13 44.76 150.40 43.20 148.64 42.41 C 148.42 43.16 148.23 43.90 148.05 44.66 C 152.36 46.51 157.07 47.98 161.35 45.12 C 161.02 43.13 160.78 41.12 160.61 39.11 C 158.78 41.15 157.19 44.03 154.19 44.36 Z" />
</g>
<g id="#4476cbff">
<path fill="#4476cb" opacity="1.00" d=" M 138.22 0.00 L 141.19 0.00 C 139.66 1.67 138.51 3.73 136.68 5.11 C 133.84 4.68 131.28 3.25 128.64 2.20 C 131.13 2.15 133.62 2.19 136.11 2.30 C 136.64 1.72 137.69 0.57 138.22 0.00 Z" />
</g>
<g id="#a0b6cbff">
<path fill="#a0b6cb" opacity="1.00" d=" M 12.92 0.82 C 13.37 1.30 14.25 2.28 14.69 2.76 L 14.71 3.39 C 14.42 3.66 13.83 4.21 13.54 4.48 C 13.19 4.46 12.50 4.43 12.16 4.41 C 12.09 3.15 12.35 1.95 12.92 0.82 Z" />
<path fill="#a0b6cb" opacity="1.00" d=" M 68.99 0.98 C 69.93 1.51 70.37 2.33 70.32 3.43 C 70.10 3.75 69.65 4.38 69.42 4.70 C 69.09 4.67 68.42 4.60 68.08 4.57 C 67.95 3.27 68.25 2.07 68.99 0.98 Z" />
<path fill="#a0b6cb" opacity="1.00" d=" M 180.99 0.98 C 181.93 1.51 182.37 2.33 182.32 3.43 C 182.10 3.75 181.65 4.38 181.42 4.70 C 181.09 4.67 180.42 4.60 180.08 4.57 C 179.95 3.27 180.25 2.07 180.99 0.98 Z" />
</g>
<g id="#86a0b1ff">
<path fill="#86a0b1" opacity="1.00" d=" M 123.87 4.74 C 124.13 4.23 124.67 3.22 124.94 2.71 C 125.32 2.83 126.09 3.07 126.48 3.19 L 126.45 3.77 C 126.16 4.06 125.59 4.65 125.30 4.95 C 124.94 4.90 124.22 4.79 123.87 4.74 Z" />
<path fill="#86a0b1" opacity="1.00" d=" M 124.08 22.83 C 124.52 22.70 125.39 22.43 125.82 22.30 C 126.83 23.52 125.10 25.11 124.13 23.67 L 124.08 22.83 Z" />
<path fill="#86a0b1" opacity="1.00" d=" M 67.55 37.74 C 67.95 37.73 68.73 37.69 69.12 37.68 C 69.38 38.92 68.37 40.21 67.05 40.04 L 66.75 39.43 C 66.95 39.01 67.35 38.17 67.55 37.74 Z" />
<path fill="#86a0b1" opacity="1.00" d=" M 179.55 37.74 C 179.95 37.73 180.73 37.69 181.12 37.68 C 181.38 38.92 180.37 40.21 179.05 40.04 L 178.75 39.43 C 178.95 39.01 179.35 38.17 179.55 37.74 Z" />
<path fill="#86a0b1" opacity="1.00" d=" M 68.67 43.55 C 69.58 44.81 69.25 46.93 67.68 47.49 C 67.09 46.16 67.07 44.17 68.67 43.55 Z" />
<path fill="#86a0b1" opacity="1.00" d=" M 180.67 43.55 C 181.58 44.81 181.25 46.93 179.68 47.49 C 179.09 46.16 179.07 44.17 180.67 43.55 Z" />
<path fill="#86a0b1" opacity="1.00" d=" M 12.72 49.83 L 13.17 49.37 C 13.41 49.68 13.91 50.29 14.16 50.60 C 14.27 51.75 14.02 52.82 13.41 53.79 L 12.94 53.72 C 12.87 53.27 12.72 52.38 12.65 51.93 C 12.67 51.41 12.71 50.36 12.72 49.83 Z" />
<path fill="#86a0b1" opacity="1.00" d=" M 123.90 50.94 L 124.39 51.45 C 124.40 51.84 124.44 52.61 124.45 53.00 C 123.99 52.93 123.06 52.79 122.59 52.73 L 122.45 51.96 C 122.81 51.70 123.54 51.20 123.90 50.94 Z" />
</g>
<g id="#87b05cff">
<path fill="#87b05c" opacity="1.00" d=" M 3.40 3.15 C 4.80 2.71 5.29 3.20 4.85 4.60 C 3.45 5.03 2.97 4.55 3.40 3.15 Z" />
</g>
<g id="#86b05fff">
<path fill="#86b05f" opacity="1.00" d=" M 2.27 3.72 C 2.46 9.86 1.39 16.24 5.52 21.59 C 5.71 21.97 6.11 22.73 6.31 23.11 C 4.33 23.66 2.41 24.41 0.65 25.47 C 0.43 24.78 0.21 24.10 -0.00 23.41 L 0.00 5.99 C 0.57 5.42 1.70 4.29 2.27 3.72 M 1.29 20.53 C 0.42 21.76 2.53 23.04 3.33 21.85 C 4.15 20.65 2.07 19.38 1.29 20.53 Z" />
</g>
<g id="#2f8bd3fe">
<path fill="#2f8bd3" opacity="1.00" d=" M 14.71 3.39 C 15.51 7.36 15.92 11.45 15.17 15.46 C 14.62 15.28 13.51 14.91 12.96 14.73 C 13.29 12.45 13.60 10.17 13.92 7.89 C 13.01 8.62 12.11 9.36 11.21 10.09 C 11.75 8.13 12.61 6.28 13.54 4.48 C 13.83 4.21 14.42 3.66 14.71 3.39 Z" />
</g>
<g id="#2c8ed7ff">
<path fill="#2c8ed7" opacity="1.00" d=" M 70.32 3.43 C 70.69 10.30 71.31 17.22 70.65 24.09 C 70.50 23.69 70.22 22.88 70.07 22.48 C 69.83 21.81 69.33 20.47 69.09 19.80 C 68.43 17.99 67.76 16.19 67.18 14.35 C 69.71 15.67 69.31 11.93 67.11 12.03 C 67.69 9.53 68.35 7.04 69.42 4.70 C 69.65 4.38 70.10 3.75 70.32 3.43 Z" />
<path fill="#2c8ed7" opacity="1.00" d=" M 182.32 3.43 C 182.69 10.30 183.30 17.22 182.65 24.09 C 182.50 23.69 182.22 22.88 182.07 22.48 C 181.83 21.81 181.33 20.47 181.09 19.80 C 180.43 17.99 179.76 16.19 179.18 14.35 C 181.71 15.67 181.31 11.93 179.11 12.03 C 179.69 9.53 180.35 7.04 181.42 4.70 C 181.65 4.38 182.10 3.75 182.32 3.43 Z" />
</g>
<g id="#288dd7ff">
<path fill="#288dd7" opacity="1.00" d=" M 126.45 3.77 C 126.25 21.19 128.10 38.59 126.82 56.00 L 125.46 56.00 C 125.27 55.45 124.90 54.34 124.71 53.78 L 124.45 53.00 C 124.44 52.61 124.40 51.84 124.39 51.45 C 124.06 47.53 123.74 43.60 122.87 39.76 C 123.08 39.38 123.51 38.64 123.72 38.27 C 124.17 36.47 124.53 34.65 124.77 32.81 C 124.77 31.88 124.74 30.96 124.69 30.04 C 124.54 27.91 124.29 25.80 124.13 23.67 C 125.10 25.11 126.83 23.52 125.82 22.30 C 125.53 21.44 125.24 20.57 124.96 19.71 C 124.45 18.19 123.91 16.68 123.36 15.17 C 125.40 14.97 124.87 12.27 123.18 11.94 C 123.73 9.57 124.31 7.19 125.30 4.95 C 125.59 4.65 126.16 4.06 126.45 3.77 Z" />
</g>
<g id="#a5bbd1ff">
<path fill="#a5bbd1" opacity="1.00" d=" M 11.21 10.09 C 12.11 9.36 13.01 8.62 13.92 7.89 C 13.60 10.17 13.29 12.45 12.96 14.73 C 12.52 14.56 11.64 14.21 11.20 14.03 C 11.16 12.72 11.16 11.41 11.21 10.09 Z" />
</g>
<g id="#4377caff">
<path fill="#4377ca" opacity="1.00" d=" M 138.69 9.42 C 140.71 9.21 142.75 9.04 144.77 8.77 C 146.19 12.74 149.03 15.68 153.17 16.74 C 150.14 16.55 147.09 16.49 144.06 16.67 C 144.69 15.34 145.36 14.03 146.05 12.73 C 143.59 11.65 141.08 10.67 138.69 9.42 Z" />
</g>
<g id="#3f7bccff">
<path fill="#3f7bcc" opacity="1.00" d=" M 152.56 13.77 C 156.14 8.62 162.64 9.60 168.06 8.99 C 168.07 9.60 168.08 10.84 168.08 11.45 C 162.87 11.91 157.72 12.92 152.56 13.77 Z" />
</g>
<g id="#427bcbff">
<path fill="#427bcb" opacity="1.00" d=" M 101.52 10.39 C 104.92 9.38 108.56 9.79 112.07 9.65 C 112.08 10.31 112.09 11.63 112.09 12.29 C 106.61 12.72 101.34 14.38 96.00 15.60 C 97.79 13.82 99.36 11.75 101.52 10.39 Z" />
<path fill="#427bcb" opacity="1.00" d=" M 213.49 10.38 C 216.89 9.47 220.50 9.63 224.00 9.41 L 224.00 12.02 C 218.43 11.78 213.60 15.26 208.08 15.52 C 209.83 13.76 211.35 11.69 213.49 10.38 Z" />
</g>
<g id="#437cccff">
<path fill="#437ccc" opacity="1.00" d=" M 44.64 10.39 C 48.45 10.52 52.26 10.70 56.07 10.86 C 56.07 11.48 56.07 12.72 56.08 13.34 C 50.68 14.09 45.44 15.61 40.16 16.91 C 42.16 15.12 44.01 13.08 44.64 10.39 Z" />
</g>
<g id="#8bb5d9ff">
<path fill="#8bb5d9" opacity="1.00" d=" M 67.18 14.35 C 67.16 13.77 67.13 12.61 67.11 12.03 C 69.31 11.93 69.71 15.67 67.18 14.35 Z" />
<path fill="#8bb5d9" opacity="1.00" d=" M 179.18 14.35 C 179.16 13.77 179.13 12.61 179.11 12.03 C 181.31 11.93 181.71 15.67 179.18 14.35 Z" />
</g>
<g id="#6e9bbbff">
<path fill="#6e9bbb" opacity="1.00" d=" M 123.36 15.17 C 122.89 14.12 122.83 13.04 123.18 11.94 C 124.87 12.27 125.40 14.97 123.36 15.17 Z" />
</g>
<g id="#2a8ed7ff">
<path fill="#2a8ed7" opacity="1.00" d=" M 11.20 14.03 C 11.64 14.21 12.52 14.56 12.96 14.73 C 13.51 14.91 14.62 15.28 15.17 15.46 C 15.99 18.32 16.22 21.38 14.89 24.12 C 14.73 23.73 14.40 22.94 14.24 22.55 C 13.96 21.86 13.39 20.47 13.10 19.78 C 12.39 17.89 11.72 15.98 11.20 14.03 Z" />
</g>
<g id="#427acbff">
<path fill="#427acb" opacity="1.00" d=" M 22.33 19.25 C 26.58 19.47 30.70 18.21 34.89 17.79 C 37.17 18.27 39.21 19.51 41.31 20.49 C 36.51 19.99 31.60 20.60 27.59 23.45 C 28.32 24.67 29.07 25.88 29.82 27.09 C 26.37 27.45 23.00 28.31 19.79 29.61 C 19.83 30.51 19.90 32.30 19.93 33.20 C 22.25 34.17 24.50 35.46 27.02 35.83 C 29.54 35.66 31.77 34.29 34.05 33.33 C 33.63 31.30 33.22 29.27 32.82 27.24 C 34.76 29.99 36.45 32.90 38.37 35.66 C 36.03 36.58 32.65 36.39 31.40 38.98 C 29.32 42.82 26.81 46.40 24.09 49.81 C 27.25 51.47 30.13 53.60 32.78 56.00 L 31.56 56.00 C 29.85 54.83 28.26 53.45 26.37 52.56 C 22.68 51.77 19.92 54.36 17.01 56.00 L 15.50 56.00 L 16.23 55.37 C 18.06 53.81 19.91 52.26 21.74 50.69 C 21.38 49.08 21.02 47.48 20.67 45.87 C 23.31 44.46 25.74 42.69 28.20 40.98 C 24.85 38.27 20.86 36.05 16.42 36.26 C 15.14 36.29 13.86 36.34 12.59 36.41 C 12.73 36.10 13.01 35.47 13.15 35.15 C 13.40 34.63 13.89 33.58 14.14 33.06 C 14.83 33.73 15.51 34.40 16.20 35.08 C 17.08 34.33 17.96 33.57 18.84 32.82 C 18.50 31.34 18.14 29.87 17.75 28.40 C 21.24 27.33 24.64 26.01 28.01 24.64 C 26.22 22.74 24.36 20.90 22.33 19.25 Z" />
</g>
<g id="#4279cbff">
<path fill="#4279cb" opacity="1.00" d=" M 78.02 16.96 C 82.28 17.95 86.70 18.11 90.99 17.23 C 89.01 18.91 87.04 20.62 85.10 22.36 C 85.64 23.69 86.18 25.03 86.72 26.37 C 81.53 25.93 75.97 26.66 73.74 31.96 C 79.21 34.54 85.65 35.60 91.06 32.41 C 90.55 30.35 90.03 28.31 89.56 26.24 C 91.51 28.65 92.99 31.36 94.44 34.08 C 86.84 35.90 83.85 43.49 79.23 48.81 C 83.82 51.39 88.39 54.04 93.30 56.00 L 83.41 56.00 C 84.87 55.33 86.31 54.60 87.74 53.88 C 84.90 53.04 82.17 51.56 79.20 51.24 C 76.54 52.35 74.43 54.38 72.09 56.00 L 71.27 56.00 C 73.45 53.90 75.53 51.69 77.62 49.51 C 77.07 49.27 75.97 48.80 75.42 48.57 C 78.66 45.83 81.07 42.28 82.39 38.24 C 79.75 36.76 76.14 36.56 73.89 34.28 C 73.27 32.04 73.30 29.67 73.04 27.37 C 77.05 26.18 81.04 24.93 84.99 23.57 C 83.49 20.60 80.93 18.47 78.02 16.96 Z" />
<path fill="#4279cb" opacity="1.00" d=" M 190.02 16.96 C 194.28 17.95 198.69 18.11 202.99 17.23 C 201.01 18.91 199.04 20.62 197.10 22.35 C 197.64 23.69 198.18 25.03 198.72 26.37 C 193.61 26.00 188.03 26.56 185.84 31.84 C 188.51 32.94 191.06 34.50 193.87 35.28 C 197.15 35.46 200.07 33.56 202.97 32.28 C 202.62 30.22 202.25 28.17 201.91 26.11 C 203.64 28.64 204.97 31.40 206.40 34.10 C 198.82 35.92 195.84 43.51 191.23 48.81 C 195.82 51.39 200.39 54.04 205.30 56.00 L 195.41 56.00 C 196.87 55.33 198.30 54.60 199.74 53.88 C 196.89 53.04 194.17 51.56 191.20 51.24 C 188.54 52.35 186.43 54.38 184.09 56.00 L 183.27 56.00 C 185.45 53.90 187.53 51.69 189.62 49.51 C 189.07 49.27 187.97 48.80 187.42 48.57 C 190.66 45.83 193.07 42.28 194.39 38.24 C 191.73 36.76 188.14 36.56 185.89 34.28 C 185.26 32.04 185.30 29.67 185.04 27.37 C 189.05 26.18 193.04 24.93 196.99 23.57 C 195.49 20.60 192.93 18.47 190.02 16.96 Z" />
<path fill="#4279cb" opacity="1.00" d=" M 154.19 44.36 C 157.19 44.03 158.78 41.15 160.61 39.11 C 160.78 41.12 161.02 43.13 161.35 45.12 C 157.07 47.98 152.36 46.51 148.05 44.66 C 148.23 43.90 148.42 43.16 148.64 42.41 C 150.40 43.20 152.13 44.76 154.19 44.36 Z" />
</g>
<g id="#437acaff">
<path fill="#437aca" opacity="1.00" d=" M 153.95 19.26 C 157.39 18.54 160.83 17.79 164.29 17.12 C 161.56 18.59 158.85 20.09 156.13 21.57 C 158.17 26.35 163.21 27.00 167.92 26.26 C 167.90 26.53 167.87 27.07 167.86 27.35 C 165.98 28.69 163.93 29.84 162.31 31.50 C 160.99 34.72 165.11 36.35 166.86 38.36 C 159.45 36.95 151.39 31.82 144.04 36.05 C 141.28 39.47 140.57 44.42 136.50 46.89 C 137.33 44.01 138.42 41.18 138.83 38.19 C 136.24 35.58 132.23 35.28 128.96 33.87 C 128.97 31.30 129.00 28.73 129.03 26.17 C 133.93 23.78 139.51 22.44 144.66 24.96 C 139.00 25.68 131.50 24.18 128.99 30.76 C 134.84 33.89 142.09 34.95 147.99 31.38 C 147.63 29.29 147.29 27.20 146.94 25.11 C 148.27 27.27 149.41 29.53 150.51 31.80 C 153.59 32.23 156.62 32.88 159.64 33.61 C 161.86 27.98 155.65 24.18 153.95 19.26 Z" />
</g>
<g id="#4379caff">
<path fill="#4379ca" opacity="1.00" d=" M 97.95 20.26 C 101.39 19.54 104.83 18.79 108.29 18.12 C 105.56 19.59 102.85 21.09 100.13 22.58 C 102.18 27.31 107.17 28.00 111.87 27.29 C 111.86 27.56 111.83 28.10 111.81 28.37 C 109.95 29.70 107.92 30.85 106.31 32.50 C 104.93 35.71 109.11 37.29 110.85 39.28 C 105.88 38.21 100.92 36.98 96.26 34.89 C 96.51 33.99 96.76 33.09 97.01 32.19 C 99.16 33.15 101.32 34.08 103.48 35.01 C 106.17 29.24 99.72 25.29 97.95 20.26 Z" />
<path fill="#4379ca" opacity="1.00" d=" M 209.95 20.26 C 213.39 19.54 216.83 18.79 220.29 18.12 C 217.56 19.59 214.84 21.09 212.12 22.58 C 214.21 27.33 219.30 27.94 224.00 27.59 L 224.00 28.03 C 222.10 29.50 219.99 30.75 218.36 32.54 C 216.87 35.71 221.14 37.30 222.85 39.28 C 217.88 38.21 212.92 36.98 208.26 34.89 C 208.51 33.99 208.76 33.09 209.01 32.19 C 211.16 33.15 213.31 34.08 215.48 35.01 C 218.17 29.24 211.72 25.29 209.95 20.26 Z" />
<path fill="#4379ca" opacity="1.00" d=" M 41.95 21.26 C 45.39 20.54 48.83 19.79 52.29 19.12 C 49.56 20.59 46.85 22.09 44.13 23.58 C 46.18 28.31 51.17 29.00 55.87 28.31 C 55.85 28.58 55.83 29.11 55.81 29.38 C 53.95 30.70 51.92 31.85 50.31 33.50 C 48.93 36.71 53.10 38.29 54.85 40.28 C 49.88 39.21 44.92 37.98 40.26 35.89 C 40.51 34.99 40.76 34.09 41.01 33.19 C 43.16 34.15 45.32 35.08 47.48 36.01 C 50.17 30.24 43.72 26.29 41.95 21.26 Z" />
</g>
<g id="#67965dff">
<path fill="#67965d" opacity="1.00" d=" M 1.29 20.53 C 2.07 19.38 4.15 20.65 3.33 21.85 C 2.53 23.04 0.42 21.76 1.29 20.53 Z" />
<path fill="#67965d" opacity="1.00" d=" M 57.29 20.53 C 58.07 19.38 60.15 20.65 59.33 21.85 C 58.53 23.04 56.42 21.76 57.29 20.53 Z" />
<path fill="#67965d" opacity="1.00" d=" M 113.29 20.53 C 114.07 19.38 116.14 20.65 115.33 21.85 C 114.53 23.04 112.42 21.76 113.29 20.53 Z" />
<path fill="#67965d" opacity="1.00" d=" M 169.29 20.53 C 170.07 19.38 172.14 20.65 171.33 21.85 C 170.53 23.04 168.42 21.76 169.29 20.53 Z" />
</g>
<g id="#6c5e4cff">
<path fill="#6c5e4c" opacity="1.00" d=" M 9.50 20.21 C 10.40 20.10 12.20 19.89 13.10 19.78 C 13.39 20.47 13.96 21.86 14.24 22.55 C 13.62 22.65 12.37 22.84 11.74 22.94 C 11.23 23.00 10.21 23.12 9.70 23.18 C 9.64 22.19 9.58 21.20 9.50 20.21 Z" />
<path fill="#6c5e4c" opacity="1.00" d=" M 65.50 20.20 C 66.40 20.10 68.19 19.90 69.09 19.80 C 69.33 20.47 69.83 21.81 70.07 22.48 C 69.49 22.60 68.32 22.84 67.73 22.96 C 67.23 23.02 66.22 23.13 65.72 23.19 C 65.66 22.19 65.59 21.20 65.50 20.20 Z" />
<path fill="#6c5e4c" opacity="1.00" d=" M 121.52 20.21 C 122.38 20.09 124.10 19.84 124.96 19.71 C 125.24 20.57 125.53 21.44 125.82 22.30 C 125.39 22.43 124.52 22.70 124.08 22.83 C 123.49 22.93 122.31 23.13 121.72 23.23 C 121.66 22.23 121.59 21.22 121.52 20.21 Z" />
<path fill="#6c5e4c" opacity="1.00" d=" M 177.50 20.20 C 178.40 20.10 180.19 19.90 181.09 19.80 C 181.33 20.47 181.83 21.81 182.07 22.48 C 181.49 22.60 180.32 22.84 179.73 22.96 C 179.23 23.02 178.22 23.14 177.72 23.20 C 177.65 22.20 177.58 21.20 177.50 20.20 Z" />
</g>
<g id="#332f2aff">
<path fill="#332f2a" opacity="1.00" d=" M 5.52 21.59 C 6.91 22.13 8.29 22.70 9.70 23.18 C 10.21 23.12 11.23 23.00 11.74 22.94 L 11.89 23.66 C 12.18 25.04 12.48 26.41 12.77 27.78 C 12.83 28.35 12.93 29.49 12.98 30.06 C 11.42 29.18 9.87 28.30 8.31 27.43 C 8.82 28.45 9.33 29.47 9.84 30.48 C 8.28 30.05 6.73 29.63 5.18 29.15 C 5.16 29.01 5.11 28.72 5.09 28.58 C 6.73 28.20 8.52 26.40 7.23 24.73 C 7.00 24.32 6.54 23.51 6.31 23.11 C 6.11 22.73 5.71 21.97 5.52 21.59 Z" />
<path fill="#332f2a" opacity="1.00" d=" M 117.45 21.59 C 118.87 22.15 120.28 22.74 121.72 23.23 C 122.31 23.13 123.49 22.93 124.08 22.83 L 124.13 23.67 C 124.29 25.80 124.54 27.91 124.69 30.04 C 123.23 29.14 121.77 28.26 120.30 27.38 C 120.81 28.41 121.33 29.45 121.84 30.49 C 120.28 30.06 118.72 29.63 117.17 29.15 C 117.15 29.01 117.10 28.73 117.07 28.59 C 118.73 28.24 120.50 26.42 119.17 24.77 C 119.02 24.51 118.71 23.99 118.56 23.73 C 118.28 23.19 117.73 22.12 117.45 21.59 Z" />
</g>
<g id="#383632ff">
<path fill="#383632" opacity="1.00" d=" M 61.45 21.60 C 62.87 22.14 64.28 22.71 65.72 23.19 C 66.22 23.13 67.23 23.02 67.73 22.96 L 67.85 23.75 C 68.26 26.46 68.67 29.16 68.98 31.89 C 67.68 30.14 66.20 28.54 64.70 26.97 C 65.03 28.15 65.36 29.34 65.69 30.53 C 64.18 30.08 62.67 29.63 61.17 29.14 C 61.15 29.00 61.10 28.72 61.07 28.58 C 62.73 28.24 64.51 26.42 63.18 24.77 C 63.02 24.51 62.71 23.99 62.56 23.73 C 62.28 23.19 61.73 22.13 61.45 21.60 Z" />
<path fill="#383632" opacity="1.00" d=" M 173.52 21.60 C 174.91 22.14 176.30 22.71 177.72 23.20 C 178.22 23.14 179.23 23.02 179.73 22.96 L 179.85 23.75 C 180.26 26.46 180.67 29.16 180.98 31.89 C 179.68 30.14 178.20 28.54 176.70 26.97 C 177.03 28.15 177.35 29.34 177.69 30.53 C 176.18 30.08 174.67 29.63 173.17 29.14 C 173.15 29.00 173.10 28.72 173.08 28.58 C 174.72 28.20 176.52 26.40 175.23 24.73 C 175.00 24.33 174.54 23.52 174.31 23.12 C 174.11 22.74 173.71 21.98 173.52 21.60 Z" />
</g>
<g id="#9db4c9ff">
<path fill="#9db4c9" opacity="1.00" d=" M 11.74 22.94 C 12.37 22.84 13.62 22.65 14.24 22.55 C 14.40 22.94 14.73 23.73 14.89 24.12 L 14.66 24.76 C 13.96 24.49 12.58 23.94 11.89 23.66 L 11.74 22.94 Z" />
<path fill="#9db4c9" opacity="1.00" d=" M 67.73 22.96 C 68.32 22.84 69.49 22.60 70.07 22.48 C 70.22 22.88 70.50 23.69 70.65 24.09 L 70.57 24.80 C 69.89 24.54 68.53 24.01 67.85 23.75 L 67.73 22.96 Z" />
<path fill="#9db4c9" opacity="1.00" d=" M 179.73 22.96 C 180.32 22.84 181.49 22.60 182.07 22.48 C 182.22 22.88 182.50 23.69 182.65 24.09 L 182.57 24.80 C 181.89 24.54 180.53 24.01 179.85 23.75 L 179.73 22.96 Z" />
</g>
<g id="#79a55dff">
<path fill="#79a55d" opacity="1.00" d=" M 0.65 25.47 C 2.41 24.41 4.33 23.66 6.31 23.11 C 6.54 23.51 7.00 24.32 7.23 24.73 C 5.87 25.48 4.51 26.90 5.09 28.58 C 5.11 28.72 5.16 29.01 5.18 29.15 C 5.36 30.38 5.51 31.61 5.67 32.83 L 5.81 33.92 C 4.95 33.24 4.09 32.57 3.23 31.90 C 4.16 38.31 5.80 44.67 5.74 51.19 C 5.76 51.48 5.79 52.05 5.80 52.34 C 5.90 53.56 6.01 54.78 6.12 56.00 L 0.00 56.00 L 0.00 23.41 C 0.21 24.10 0.43 24.78 0.65 25.47 Z" />
<path fill="#79a55d" opacity="1.00" d=" M 58.84 23.12 C 60.08 23.31 61.32 23.50 62.56 23.73 C 62.71 23.99 63.02 24.51 63.18 24.77 C 61.82 25.50 60.49 26.93 61.07 28.58 C 61.10 28.72 61.15 29.00 61.17 29.14 C 61.36 30.39 61.54 31.64 61.72 32.89 L 61.87 33.93 C 60.99 33.26 60.10 32.58 59.23 31.90 C 60.47 38.32 61.16 44.83 62.18 51.28 C 62.31 51.60 62.57 52.23 62.69 52.54 C 62.51 53.25 62.15 54.67 61.97 55.38 L 62.18 56.00 L 56.06 56.00 C 56.03 52.98 56.00 49.96 55.98 46.95 L 55.97 46.30 C 55.92 40.66 55.80 35.02 55.81 29.38 C 55.83 29.11 55.85 28.58 55.87 28.31 C 55.94 26.87 55.99 25.43 56.03 23.98 C 56.58 24.65 57.14 25.32 57.70 25.99 C 58.08 25.03 58.46 24.08 58.84 23.12 Z" />
<path fill="#79a55d" opacity="1.00" d=" M 114.84 23.12 C 116.08 23.31 117.32 23.50 118.56 23.73 C 118.71 23.99 119.02 24.51 119.17 24.77 C 117.82 25.51 116.48 26.93 117.07 28.59 C 117.10 28.73 117.15 29.01 117.17 29.15 C 117.36 30.39 117.53 31.63 117.72 32.87 L 117.87 33.92 C 116.98 33.26 116.10 32.58 115.23 31.91 C 116.47 38.32 117.17 44.83 118.17 51.28 C 118.29 51.59 118.54 52.23 118.67 52.54 C 118.49 53.25 118.14 54.67 117.96 55.38 L 118.18 56.00 L 112.04 56.00 C 112.02 52.64 111.99 49.27 111.97 45.91 L 111.97 44.99 C 111.92 39.45 111.80 33.91 111.81 28.37 C 111.83 28.10 111.86 27.56 111.87 27.29 C 111.90 26.47 111.97 24.84 112.01 24.02 C 112.57 24.67 113.14 25.32 113.71 25.97 C 114.09 25.02 114.46 24.07 114.84 23.12 Z" />
<path fill="#79a55d" opacity="1.00" d=" M 169.01 25.21 C 170.70 24.34 172.48 23.66 174.31 23.12 C 174.54 23.52 175.00 24.33 175.23 24.73 C 173.88 25.48 172.50 26.90 173.08 28.58 C 173.10 28.72 173.15 29.00 173.17 29.14 C 173.36 30.39 173.54 31.64 173.72 32.89 L 173.87 33.93 C 172.98 33.26 172.10 32.58 171.23 31.90 C 172.47 38.32 173.16 44.83 174.18 51.28 C 174.31 51.60 174.57 52.23 174.69 52.54 C 174.51 53.25 174.15 54.67 173.97 55.38 L 174.18 56.00 L 168.08 56.00 C 167.94 52.24 167.77 48.48 167.67 44.72 L 167.67 44.22 C 167.72 38.59 167.76 32.97 167.86 27.35 C 167.87 27.07 167.90 26.53 167.92 26.26 C 167.94 25.73 167.98 24.68 168.00 24.15 C 168.34 24.50 168.67 24.85 169.01 25.21 Z" />
</g>
<g id="#298ed7ff">
<path fill="#298ed7" opacity="1.00" d=" M 67.85 23.75 C 68.53 24.01 69.89 24.54 70.57 24.80 C 71.23 35.18 71.91 45.62 70.63 56.00 L 69.12 56.00 C 69.02 55.43 68.83 54.30 68.74 53.73 L 68.60 52.95 C 68.56 52.57 68.48 51.80 68.44 51.42 C 68.23 50.10 67.99 48.79 67.68 47.49 C 69.25 46.93 69.58 44.81 68.67 43.55 C 68.12 42.38 67.60 41.21 67.05 40.04 C 68.37 40.21 69.38 38.92 69.12 37.68 C 69.13 36.02 69.12 34.37 69.07 32.71 L 68.98 31.89 C 68.67 29.16 68.26 26.46 67.85 23.75 Z" />
<path fill="#298ed7" opacity="1.00" d=" M 179.85 23.75 C 180.53 24.01 181.89 24.54 182.57 24.80 C 183.23 35.18 183.91 45.62 182.63 56.00 L 181.12 56.00 C 181.02 55.43 180.83 54.30 180.74 53.73 L 180.60 52.95 C 180.56 52.57 180.48 51.80 180.44 51.42 C 180.23 50.10 179.99 48.79 179.68 47.49 C 181.25 46.93 181.58 44.81 180.67 43.55 C 180.12 42.38 179.59 41.21 179.05 40.04 C 180.37 40.21 181.38 38.92 181.12 37.68 C 181.13 36.02 181.11 34.37 181.07 32.71 L 180.98 31.89 C 180.67 29.16 180.26 26.46 179.85 23.75 Z" />
</g>
<g id="#416845ff">
<path fill="#416845" opacity="1.00" d=" M 7.23 24.73 C 8.52 26.40 6.73 28.20 5.09 28.58 C 4.51 26.90 5.87 25.48 7.23 24.73 Z" />
<path fill="#416845" opacity="1.00" d=" M 63.18 24.77 C 64.51 26.42 62.73 28.24 61.07 28.58 C 60.49 26.93 61.82 25.50 63.18 24.77 Z" />
<path fill="#416845" opacity="1.00" d=" M 119.17 24.77 C 120.50 26.42 118.73 28.24 117.07 28.59 C 116.48 26.93 117.82 25.51 119.17 24.77 Z" />
<path fill="#416845" opacity="1.00" d=" M 175.23 24.73 C 176.52 26.40 174.72 28.20 173.08 28.58 C 172.50 26.90 173.88 25.48 175.23 24.73 Z" />
<path fill="#416845" opacity="1.00" d=" M 62.69 52.54 L 63.47 52.73 C 63.34 53.83 62.83 54.71 61.97 55.38 C 62.15 54.67 62.51 53.25 62.69 52.54 Z" />
<path fill="#416845" opacity="1.00" d=" M 118.67 52.54 L 119.45 52.73 C 119.32 53.83 118.82 54.71 117.96 55.38 C 118.14 54.67 118.49 53.25 118.67 52.54 Z" />
<path fill="#416845" opacity="1.00" d=" M 174.69 52.54 L 175.47 52.73 C 175.33 53.83 174.83 54.71 173.97 55.38 C 174.15 54.67 174.51 53.25 174.69 52.54 Z" />
</g>
<g id="#525548ff">
<path fill="#525548" opacity="1.00" d=" M 8.31 27.43 C 9.87 28.30 11.42 29.18 12.98 30.06 C 13.04 31.00 13.09 31.95 13.13 32.89 C 10.65 32.81 8.16 32.80 5.67 32.83 C 5.51 31.61 5.36 30.38 5.18 29.15 C 6.73 29.63 8.28 30.05 9.84 30.48 C 9.33 29.47 8.82 28.45 8.31 27.43 Z" />
<path fill="#525548" opacity="1.00" d=" M 64.70 26.97 C 66.20 28.54 67.68 30.14 68.98 31.89 L 69.07 32.71 C 66.62 32.73 64.17 32.79 61.72 32.89 C 61.54 31.64 61.36 30.39 61.17 29.14 C 62.67 29.63 64.18 30.08 65.69 30.53 C 65.36 29.34 65.03 28.15 64.70 26.97 Z" />
<path fill="#525548" opacity="1.00" d=" M 120.30 27.38 C 121.77 28.26 123.23 29.14 124.69 30.04 C 124.74 30.96 124.77 31.88 124.77 32.81 C 122.42 32.78 120.07 32.81 117.72 32.87 C 117.53 31.63 117.36 30.39 117.17 29.15 C 118.72 29.63 120.28 30.06 121.84 30.49 C 121.33 29.45 120.81 28.41 120.30 27.38 Z" />
<path fill="#525548" opacity="1.00" d=" M 176.70 26.97 C 178.20 28.54 179.68 30.14 180.98 31.89 L 181.07 32.71 C 178.62 32.73 176.17 32.79 173.72 32.89 C 173.54 31.64 173.36 30.39 173.17 29.14 C 174.67 29.63 176.18 30.08 177.69 30.53 C 177.35 29.34 177.03 28.15 176.70 26.97 Z" />
</g>
<g id="#8aa3b5ff">
<path fill="#8aa3b5" opacity="1.00" d=" M 12.77 27.78 C 13.30 29.31 13.88 30.82 14.45 32.34 L 14.14 33.06 C 13.89 33.58 13.40 34.63 13.15 35.15 C 13.15 34.59 13.13 33.46 13.13 32.89 C 13.09 31.95 13.04 31.00 12.98 30.06 C 12.93 29.49 12.83 28.35 12.77 27.78 Z" />
</g>
<g id="#525b48ff">
<path fill="#525b48" opacity="1.00" d=" M 3.23 31.90 C 4.09 32.57 4.95 33.24 5.81 33.92 C 6.58 39.93 6.62 47.30 12.01 51.34 C 10.28 51.84 11.50 54.05 12.94 53.72 L 13.41 53.79 C 11.80 53.91 10.18 54.00 8.57 54.07 C 8.16 54.56 7.35 55.52 6.95 56.00 L 6.12 56.00 C 6.01 54.78 5.90 53.56 5.80 52.34 C 6.88 52.57 8.92 52.80 9.14 51.32 C 8.38 50.16 6.75 50.76 5.74 51.19 C 5.80 44.67 4.16 38.31 3.23 31.90 Z" />
</g>
<g id="#322f2cff">
<path fill="#322f2c" opacity="1.00" d=" M 5.67 32.83 C 8.16 32.80 10.65 32.81 13.13 32.89 C 13.13 33.46 13.15 34.59 13.15 35.15 C 13.01 35.47 12.73 36.10 12.59 36.41 C 12.38 36.87 11.96 37.79 11.75 38.25 C 10.25 36.07 8.69 39.18 11.03 39.76 L 11.13 40.45 C 11.28 41.62 11.43 42.78 11.55 43.95 C 11.63 45.11 11.82 46.27 12.15 47.39 C 12.29 48.00 12.58 49.22 12.72 49.83 C 12.71 50.36 12.67 51.41 12.65 51.93 L 12.01 51.34 C 6.62 47.30 6.58 39.93 5.81 33.92 L 5.67 32.83 M 7.06 35.02 C 7.03 35.79 6.97 37.35 6.94 38.12 C 8.73 37.13 10.51 36.13 12.30 35.12 C 10.55 35.08 8.80 35.05 7.06 35.02 Z" />
<path fill="#322f2c" opacity="1.00" d=" M 61.72 32.89 C 64.17 32.79 66.62 32.73 69.07 32.71 C 69.12 34.37 69.13 36.02 69.12 37.68 C 68.73 37.69 67.95 37.73 67.55 37.74 C 65.69 36.52 64.25 39.22 66.75 39.43 L 67.05 40.04 C 67.60 41.21 68.12 42.38 68.67 43.55 C 67.07 44.17 67.09 46.16 67.68 47.49 C 67.99 48.79 68.23 50.10 68.44 51.42 L 67.94 50.93 C 67.41 50.75 66.34 50.40 65.81 50.23 C 65.64 49.14 65.04 48.41 64.00 48.03 C 63.29 43.33 62.48 38.64 61.87 33.93 L 61.72 32.89 M 63.06 35.02 C 63.03 35.79 62.97 37.35 62.94 38.12 C 64.73 37.13 66.51 36.13 68.30 35.12 C 66.55 35.08 64.80 35.05 63.06 35.02 Z" />
<path fill="#322f2c" opacity="1.00" d=" M 117.72 32.87 C 120.07 32.81 122.42 32.78 124.77 32.81 C 124.53 34.65 124.17 36.47 123.72 38.27 C 122.35 36.14 120.75 38.98 122.87 39.76 C 123.74 43.60 124.06 47.53 124.39 51.45 L 123.90 50.94 C 123.37 50.76 122.32 50.40 121.79 50.22 C 121.63 49.13 121.04 48.39 120.00 48.02 C 119.29 43.32 118.48 38.64 117.87 33.92 L 117.72 32.87 M 119.06 35.02 C 119.03 35.79 118.97 37.35 118.94 38.12 C 120.72 37.13 122.51 36.13 124.30 35.12 C 122.55 35.08 120.80 35.05 119.06 35.02 Z" />
<path fill="#322f2c" opacity="1.00" d=" M 173.72 32.89 C 176.17 32.79 178.62 32.73 181.07 32.71 C 181.11 34.37 181.13 36.02 181.12 37.68 C 180.73 37.69 179.95 37.73 179.55 37.74 C 177.69 36.52 176.25 39.22 178.75 39.43 L 179.05 40.04 C 179.59 41.21 180.12 42.38 180.67 43.55 C 179.07 44.17 179.09 46.16 179.68 47.49 C 179.99 48.79 180.23 50.10 180.44 51.42 L 179.94 50.93 C 179.41 50.75 178.34 50.40 177.81 50.23 C 177.64 49.14 177.03 48.41 176.00 48.03 C 175.29 43.33 174.48 38.64 173.87 33.93 L 173.72 32.89 M 175.06 35.02 C 175.03 35.79 174.97 37.35 174.94 38.12 C 176.72 37.13 178.51 36.13 180.30 35.12 C 178.55 35.08 176.80 35.05 175.06 35.02 Z" />
</g>
<g id="#4b6148ff">
<path fill="#4b6148" opacity="1.00" d=" M 59.23 31.90 C 60.10 32.58 60.99 33.26 61.87 33.93 C 62.48 38.64 63.29 43.33 64.00 48.03 C 62.50 47.93 61.84 49.57 62.17 50.82 L 62.18 51.28 C 61.16 44.83 60.47 38.32 59.23 31.90 Z" />
<path fill="#4b6148" opacity="1.00" d=" M 115.23 31.91 C 116.10 32.58 116.98 33.26 117.87 33.92 C 118.48 38.64 119.29 43.32 120.00 48.02 C 118.49 47.92 117.84 49.56 118.16 50.81 L 118.17 51.28 C 117.17 44.83 116.47 38.32 115.23 31.91 Z" />
<path fill="#4b6148" opacity="1.00" d=" M 171.23 31.90 C 172.10 32.58 172.98 33.26 173.87 33.93 C 174.48 38.64 175.29 43.33 176.00 48.03 C 174.50 47.93 173.84 49.57 174.17 50.82 L 174.18 51.28 C 173.16 44.83 172.47 38.32 171.23 31.90 Z" />
</g>
<g id="#7b9eb5ff">
<path fill="#7b9eb5" opacity="1.00" d=" M 12.59 36.41 C 13.86 36.34 15.14 36.29 16.42 36.26 C 15.63 36.89 14.85 37.52 14.06 38.14 C 13.09 38.91 12.11 39.68 11.13 40.45 L 11.03 39.76 C 11.21 39.38 11.57 38.63 11.75 38.25 C 11.96 37.79 12.38 36.87 12.59 36.41 Z" />
</g>
<g id="#3490d2ff">
<path fill="#3490d2" opacity="1.00" d=" M 11.13 40.45 C 12.11 39.68 13.09 38.91 14.06 38.14 C 14.16 39.72 14.36 42.89 14.46 44.47 C 13.73 44.34 12.28 44.08 11.55 43.95 C 11.43 42.78 11.28 41.62 11.13 40.45 Z" />
</g>
<g id="#4378cbff">
<path fill="#4378cb" opacity="1.00" d=" M 103.14 38.73 C 103.43 40.81 103.70 42.88 103.99 44.96 C 106.64 44.97 109.30 44.98 111.97 44.99 L 111.97 45.91 C 109.33 46.24 106.71 46.59 104.07 46.88 C 98.10 47.99 92.31 45.46 86.56 44.23 C 91.25 43.17 96.06 43.66 100.78 44.19 C 101.57 42.37 102.35 40.55 103.14 38.73 Z" />
<path fill="#4378cb" opacity="1.00" d=" M 43.43 44.24 C 44.34 42.88 45.25 41.52 46.15 40.15 C 46.57 41.66 46.58 43.38 47.51 44.69 C 50.13 45.94 53.15 45.80 55.97 46.30 L 55.98 46.95 C 51.70 46.73 47.19 46.13 43.37 48.48 C 39.68 45.99 35.27 45.15 30.87 45.44 C 32.10 44.70 33.33 43.95 34.56 43.21 C 37.50 43.67 40.46 44.00 43.43 44.24 Z" />
</g>
<g id="#4379cbff">
<path fill="#4379cb" opacity="1.00" d=" M 198.57 44.24 C 207.00 42.34 215.53 44.96 224.00 45.11 L 224.00 45.79 C 221.34 46.16 218.72 46.57 216.07 46.88 C 210.10 48.02 204.32 45.45 198.57 44.24 Z" />
</g>
<g id="#86a0b0fe">
<path fill="#86a0b0" opacity="1.00" d=" M 11.55 43.95 C 12.28 44.08 13.73 44.34 14.46 44.47 L 15.10 44.80 C 14.25 45.81 13.31 46.75 12.15 47.39 C 11.82 46.27 11.63 45.11 11.55 43.95 Z" />
</g>
<g id="#4575cbff">
<path fill="#4575cb" opacity="1.00" d=" M 163.77 44.76 C 163.87 42.97 166.59 43.72 167.67 44.22 L 167.67 44.72 C 166.49 45.21 164.81 45.83 163.77 44.76 Z" />
</g>
<g id="#288ad6ff">
<path fill="#288ad6" opacity="1.00" d=" M 15.10 44.80 C 15.50 44.98 16.31 45.35 16.71 45.53 C 15.53 46.81 14.35 48.10 13.17 49.37 L 12.72 49.83 C 12.58 49.22 12.29 48.00 12.15 47.39 C 13.31 46.75 14.25 45.81 15.10 44.80 Z" />
</g>
<g id="#417acbff">
<path fill="#417acb" opacity="1.00" d=" M 131.04 47.32 C 131.86 46.68 132.68 46.05 133.51 45.42 C 138.75 49.45 145.18 51.59 150.18 56.00 L 139.67 56.00 C 139.14 55.56 138.07 54.68 137.54 54.25 C 139.56 53.96 143.59 53.40 145.61 53.12 C 140.30 49.93 133.69 50.06 128.61 53.64 C 130.31 51.91 132.03 50.18 133.73 48.44 C 133.06 48.16 131.71 47.60 131.04 47.32 Z" />
</g>
<g id="#75634eff">
<path fill="#75634e" opacity="1.00" d=" M 64.00 48.03 C 65.04 48.41 65.64 49.14 65.81 50.23 L 65.42 50.92 C 65.00 50.81 64.16 50.60 63.75 50.49 C 63.81 49.87 63.94 48.64 64.00 48.03 Z" />
<path fill="#75634e" opacity="1.00" d=" M 120.00 48.02 C 121.04 48.39 121.63 49.13 121.79 50.22 L 121.39 50.91 C 120.98 50.80 120.15 50.58 119.73 50.47 C 119.80 49.86 119.93 48.63 120.00 48.02 Z" />
<path fill="#75634e" opacity="1.00" d=" M 176.00 48.03 C 177.03 48.41 177.64 49.14 177.81 50.23 L 177.42 50.92 C 177.00 50.81 176.16 50.60 175.75 50.49 C 175.81 49.87 175.94 48.64 176.00 48.03 Z" />
<path fill="#75634e" opacity="1.00" d=" M 64.23 52.63 C 64.80 52.46 65.94 52.12 66.51 51.95 L 66.68 52.70 C 66.28 52.97 65.49 53.51 65.09 53.78 L 64.51 53.30 L 64.23 52.63 Z" />
<path fill="#75634e" opacity="1.00" d=" M 120.20 52.63 C 120.76 52.46 121.89 52.13 122.45 51.96 L 122.59 52.73 C 122.21 52.99 121.44 53.53 121.05 53.80 L 120.48 53.31 L 120.20 52.63 Z" />
<path fill="#75634e" opacity="1.00" d=" M 176.23 52.63 C 176.80 52.46 177.94 52.12 178.51 51.95 L 178.68 52.70 C 178.28 52.97 177.49 53.51 177.09 53.78 L 176.51 53.30 L 176.23 52.63 Z" />
</g>
<g id="#332e2aff">
<path fill="#332e2a" opacity="1.00" d=" M 5.74 51.19 C 6.75 50.76 8.38 50.16 9.14 51.32 C 8.92 52.80 6.88 52.57 5.80 52.34 C 5.79 52.05 5.76 51.48 5.74 51.19 Z" />
<path fill="#332e2a" opacity="1.00" d=" M 62.18 51.28 L 62.17 50.82 C 62.56 50.74 63.35 50.57 63.75 50.49 C 64.16 50.60 65.00 50.81 65.42 50.92 C 65.69 51.18 66.23 51.70 66.51 51.95 C 65.94 52.12 64.80 52.46 64.23 52.63 L 63.47 52.73 L 62.69 52.54 C 62.57 52.23 62.31 51.60 62.18 51.28 Z" />
<path fill="#332e2a" opacity="1.00" d=" M 118.17 51.28 L 118.16 50.81 C 118.55 50.73 119.34 50.56 119.73 50.47 C 120.15 50.58 120.98 50.80 121.39 50.91 C 121.65 51.17 122.18 51.70 122.45 51.96 C 121.89 52.13 120.76 52.46 120.20 52.63 L 119.45 52.73 L 118.67 52.54 C 118.54 52.23 118.29 51.59 118.17 51.28 Z" />
<path fill="#332e2a" opacity="1.00" d=" M 174.18 51.28 L 174.17 50.82 C 174.56 50.74 175.35 50.57 175.75 50.49 C 176.16 50.60 177.00 50.81 177.42 50.92 C 177.69 51.18 178.23 51.70 178.51 51.95 C 177.94 52.12 176.80 52.46 176.23 52.63 L 175.47 52.73 L 174.69 52.54 C 174.57 52.23 174.31 51.60 174.18 51.28 Z" />
<path fill="#332e2a" opacity="1.00" d=" M 8.57 54.07 C 10.18 54.00 11.80 53.91 13.41 53.79 C 13.10 54.35 12.48 55.45 12.17 56.00 L 6.95 56.00 C 7.35 55.52 8.16 54.56 8.57 54.07 Z" />
<path fill="#332e2a" opacity="1.00" d=" M 64.51 53.30 L 65.09 53.78 C 65.66 55.81 68.42 56.12 68.74 53.73 C 68.83 54.30 69.02 55.43 69.12 56.00 L 63.73 56.00 C 63.93 55.33 64.32 53.98 64.51 53.30 Z" />
<path fill="#332e2a" opacity="1.00" d=" M 120.48 53.31 L 121.05 53.80 C 121.64 55.76 124.44 56.22 124.71 53.78 C 124.90 54.34 125.27 55.45 125.46 56.00 L 119.73 56.00 C 119.92 55.33 120.29 53.98 120.48 53.31 Z" />
<path fill="#332e2a" opacity="1.00" d=" M 176.51 53.30 L 177.09 53.78 C 177.66 55.81 180.42 56.12 180.74 53.73 C 180.83 54.30 181.02 55.43 181.12 56.00 L 175.73 56.00 C 175.93 55.33 176.32 53.98 176.51 53.30 Z" />
</g>
<g id="#adc2d9ff">
<path fill="#adc2d9" opacity="1.00" d=" M 12.01 51.34 L 12.65 51.93 C 12.72 52.38 12.87 53.27 12.94 53.72 C 11.50 54.05 10.28 51.84 12.01 51.34 Z" />
<path fill="#adc2d9" opacity="1.00" d=" M 67.94 50.93 L 68.44 51.42 C 68.48 51.80 68.56 52.57 68.60 52.95 C 68.12 52.89 67.16 52.77 66.68 52.70 L 66.51 51.95 C 66.86 51.70 67.58 51.19 67.94 50.93 Z" />
<path fill="#adc2d9" opacity="1.00" d=" M 179.94 50.93 L 180.44 51.42 C 180.48 51.80 180.56 52.57 180.60 52.95 C 180.12 52.89 179.16 52.77 178.68 52.70 L 178.51 51.95 C 178.86 51.70 179.58 51.19 179.94 50.93 Z" />
</g>
<g id="#3b6bbefe">
<path fill="#3b6bbe" opacity="1.00" d=" M 65.09 53.78 C 65.49 53.51 66.28 52.97 66.68 52.70 C 67.16 52.77 68.12 52.89 68.60 52.95 L 68.74 53.73 C 68.42 56.12 65.66 55.81 65.09 53.78 Z" />
<path fill="#3b6bbe" opacity="1.00" d=" M 121.05 53.80 C 121.44 53.53 122.21 52.99 122.59 52.73 C 123.06 52.79 123.99 52.93 124.45 53.00 L 124.71 53.78 C 124.44 56.22 121.64 55.76 121.05 53.80 Z" />
<path fill="#3b6bbe" opacity="1.00" d=" M 177.09 53.78 C 177.49 53.51 178.28 52.97 178.68 52.70 C 179.16 52.77 180.12 52.89 180.60 52.95 L 180.74 53.73 C 180.42 56.12 177.66 55.81 177.09 53.78 Z" />
</g>
</svg>
