<?xml version="1.0" encoding="UTF-8" ?>
<!DOCTYPE svg PUBLIC "-//W3C//DTD SVG 1.1//EN" "http://www.w3.org/Graphics/SVG/1.1/DTD/svg11.dtd">
<svg width="224pt" height="56pt" viewBox="0 0 224 56" version="1.1" xmlns="http://www.w3.org/2000/svg">
<g id="#91bc69ff">
<path fill="#91bc69" opacity="1.00" d=" M 0.00 0.00 L 0.81 0.00 C 1.70 1.21 1.43 2.13 0.00 2.77 L 0.00 0.00 Z" />
<path fill="#91bc69" opacity="1.00" d=" M 0.00 28.17 C 1.87 28.17 1.87 30.87 0.00 30.87 L 0.00 28.17 Z" />
</g>
<g id="#699659ff">
<path fill="#699659" opacity="1.00" d=" M 0.81 0.00 L 3.57 0.00 C 3.93 3.51 5.28 6.81 6.83 9.95 C 6.83 10.10 6.82 10.41 6.82 10.57 C 6.23 14.19 5.67 17.82 5.69 21.51 C 4.21 18.33 2.84 15.09 1.37 11.90 C 2.86 9.29 3.63 6.28 1.63 3.68 C 1.22 4.30 0.41 5.55 0.00 6.17 L 0.00 2.77 C 1.43 2.13 1.70 1.21 0.81 0.00 Z" />
</g>
<g id="#84ae5cff">
<path fill="#84ae5c" opacity="1.00" d=" M 3.57 0.00 L 4.62 0.00 C 5.37 1.39 6.11 2.79 6.84 4.19 C 8.50 3.38 10.13 2.51 11.85 1.82 C 10.38 1.97 8.92 2.13 7.45 2.26 C 7.09 1.69 6.37 0.56 6.01 0.00 L 23.77 0.00 C 23.42 1.79 23.18 3.60 22.90 5.40 C 22.57 5.08 21.92 4.44 21.60 4.11 C 16.70 0.20 8.44 3.45 6.93 9.38 L 6.83 9.95 C 5.28 6.81 3.93 3.51 3.57 0.00 Z" />
<path fill="#84ae5c" opacity="1.00" d=" M 59.56 0.00 L 60.61 0.00 C 61.37 1.39 62.11 2.79 62.84 4.19 C 64.50 3.38 66.13 2.52 67.85 1.82 C 66.38 1.97 64.91 2.14 63.45 2.26 C 63.09 1.69 62.37 0.56 62.02 0.00 L 79.77 0.00 C 79.42 1.79 79.18 3.60 78.90 5.40 C 78.57 5.08 77.92 4.44 77.60 4.11 C 72.70 0.20 64.44 3.45 62.93 9.38 L 62.83 9.95 C 61.24 6.82 59.96 3.50 59.56 0.00 Z" />
<path fill="#84ae5c" opacity="1.00" d=" M 115.56 0.00 L 116.61 0.00 C 117.37 1.39 118.10 2.79 118.84 4.19 C 120.50 3.38 122.13 2.52 123.85 1.82 C 122.38 1.97 120.91 2.14 119.45 2.26 C 119.09 1.69 118.37 0.56 118.02 0.00 L 135.77 0.00 C 135.42 1.79 135.18 3.60 134.90 5.40 C 134.57 5.08 133.92 4.44 133.60 4.11 C 128.72 0.21 120.42 3.43 118.96 9.38 L 118.78 9.93 C 117.25 6.79 115.95 3.49 115.56 0.00 Z" />
<path fill="#84ae5c" opacity="1.00" d=" M 171.56 0.00 L 172.61 0.00 C 173.37 1.39 174.10 2.79 174.84 4.19 C 176.50 3.38 178.13 2.52 179.85 1.82 C 178.38 1.97 176.91 2.14 175.45 2.26 C 175.09 1.69 174.37 0.56 174.02 0.00 L 191.75 0.00 C 191.41 1.79 191.18 3.60 190.90 5.40 C 190.57 5.08 189.93 4.44 189.60 4.11 C 184.69 0.20 176.44 3.45 174.93 9.38 L 174.83 9.95 C 173.24 6.82 171.96 3.50 171.56 0.00 Z" />
</g>
<g id="#6f9a52ff">
<path fill="#6f9a52" opacity="1.00" d=" M 4.62 0.00 L 6.01 0.00 C 6.37 0.56 7.09 1.69 7.45 2.26 C 8.92 2.13 10.38 1.97 11.85 1.82 C 10.13 2.51 8.50 3.38 6.84 4.19 C 6.11 2.79 5.37 1.39 4.62 0.00 Z" />
<path fill="#6f9a52" opacity="1.00" d=" M 60.61 0.00 L 62.02 0.00 C 62.37 0.56 63.09 1.69 63.45 2.26 C 64.91 2.14 66.38 1.97 67.85 1.82 C 66.13 2.52 64.50 3.38 62.84 4.19 C 62.11 2.79 61.37 1.39 60.61 0.00 Z" />
<path fill="#6f9a52" opacity="1.00" d=" M 116.61 0.00 L 118.02 0.00 C 118.37 0.56 119.09 1.69 119.45 2.26 C 120.91 2.14 122.38 1.97 123.85 1.82 C 122.13 2.52 120.50 3.38 118.84 4.19 C 118.10 2.79 117.37 1.39 116.61 0.00 Z" />
<path fill="#6f9a52" opacity="1.00" d=" M 172.61 0.00 L 174.02 0.00 C 174.37 0.56 175.09 1.69 175.45 2.26 C 176.91 2.14 178.38 1.97 179.85 1.82 C 178.13 2.52 176.50 3.38 174.84 4.19 C 174.10 2.79 173.37 1.39 172.61 0.00 Z" />
</g>
<g id="#6e9a5bff">
<path fill="#6e9a5b" opacity="1.00" d=" M 23.77 0.00 L 56.29 0.00 C 55.47 0.57 54.50 2.73 56.14 2.84 C 57.20 2.18 57.46 1.23 56.93 -0.00 L 59.56 0.00 C 59.96 3.50 61.24 6.82 62.83 9.95 C 62.82 10.11 62.81 10.42 62.81 10.58 C 62.25 14.21 61.65 17.85 61.70 21.54 C 60.27 17.61 56.43 13.57 58.42 9.19 C 59.42 7.40 58.56 5.56 57.81 3.88 C 57.48 4.31 56.81 5.15 56.47 5.58 C 55.66 4.99 54.84 4.44 54.00 3.90 C 51.23 2.13 47.85 2.66 44.78 3.08 L 43.87 3.19 C 43.36 1.94 42.42 1.50 41.05 1.87 C 39.05 2.06 37.03 2.00 35.02 1.87 C 33.78 1.59 32.77 1.98 31.98 3.03 C 29.02 4.51 25.85 5.49 22.73 6.58 L 22.90 5.40 C 23.18 3.60 23.42 1.79 23.77 0.00 Z" />
<path fill="#6e9a5b" opacity="1.00" d=" M 79.77 0.00 L 112.29 0.00 C 111.47 0.57 110.50 2.73 112.14 2.84 C 113.20 2.18 113.46 1.23 112.93 -0.00 L 115.56 0.00 C 115.95 3.49 117.25 6.79 118.78 9.93 C 118.77 10.12 118.74 10.50 118.73 10.69 C 118.28 14.30 117.65 17.90 117.69 21.56 C 116.31 17.61 112.41 13.59 114.42 9.19 C 115.38 7.41 114.61 5.55 113.80 3.89 C 113.47 4.31 112.82 5.15 112.49 5.58 C 111.67 5.00 110.84 4.44 110.00 3.91 C 107.23 2.12 103.85 2.66 100.78 3.08 L 99.87 3.19 C 99.36 1.94 98.42 1.50 97.05 1.87 C 95.04 2.06 93.03 2.00 91.02 1.87 C 89.78 1.59 88.77 1.98 87.98 3.03 C 85.02 4.51 81.85 5.49 78.73 6.58 L 78.90 5.40 C 79.18 3.60 79.42 1.79 79.77 0.00 Z" />
<path fill="#6e9a5b" opacity="1.00" d=" M 135.77 0.00 L 168.29 0.00 C 167.47 0.57 166.50 2.73 168.14 2.84 C 169.20 2.18 169.46 1.23 168.93 0.00 L 171.56 0.00 C 171.96 3.50 173.24 6.82 174.83 9.95 C 174.82 10.11 174.81 10.42 174.81 10.58 C 174.25 14.21 173.65 17.85 173.70 21.54 C 172.37 18.34 170.20 15.34 169.77 11.86 C 170.35 9.18 171.73 6.42 169.80 3.89 C 169.47 4.31 168.83 5.16 168.50 5.58 C 167.68 5.00 166.85 4.44 166.00 3.91 C 163.23 2.12 159.85 2.66 156.78 3.08 L 155.87 3.19 C 155.36 1.94 154.42 1.50 153.05 1.87 C 151.04 2.06 149.03 2.00 147.02 1.87 C 145.78 1.59 144.77 1.98 143.98 3.03 C 141.02 4.51 137.85 5.49 134.73 6.58 L 134.90 5.40 C 135.18 3.60 135.42 1.79 135.77 0.00 Z" />
</g>
<g id="#8fb966ff">
<path fill="#8fb966" opacity="1.00" d=" M 56.29 0.00 L 56.93 0.00 C 57.46 1.23 57.20 2.18 56.14 2.84 C 54.50 2.73 55.47 0.57 56.29 0.00 Z" />
<path fill="#8fb966" opacity="1.00" d=" M 112.29 0.00 L 112.93 0.00 C 113.46 1.23 113.20 2.18 112.14 2.84 C 110.50 2.73 111.47 0.57 112.29 0.00 Z" />
<path fill="#8fb966" opacity="1.00" d=" M 168.29 0.00 L 168.93 0.00 C 169.46 1.23 169.20 2.18 168.14 2.84 C 166.50 2.73 167.47 0.57 168.29 0.00 Z" />
</g>
<g id="#729e5cff">
<path fill="#729e5c" opacity="1.00" d=" M 191.75 0.00 L 224.00 0.00 L 224.00 4.12 C 223.56 4.01 222.68 3.77 222.24 3.66 C 219.16 2.74 215.94 2.60 212.77 3.09 L 211.86 3.19 C 211.36 1.93 210.43 1.49 209.05 1.88 C 207.04 2.06 205.03 2.00 203.02 1.87 C 201.78 1.59 200.77 1.98 199.98 3.03 C 197.02 4.51 193.85 5.49 190.73 6.58 L 190.90 5.40 C 191.18 3.60 191.41 1.79 191.75 0.00 Z" />
</g>
<g id="#6b9a5fff">
<path fill="#6b9a5f" opacity="1.00" d=" M 6.93 9.38 C 8.44 3.45 16.70 0.20 21.60 4.11 C 19.62 4.25 17.66 4.56 15.67 4.56 C 15.46 4.51 15.02 4.39 14.81 4.34 C 14.49 5.82 14.19 7.32 13.96 8.82 C 11.61 8.94 9.27 9.18 6.93 9.38 Z" />
<path fill="#6b9a5f" opacity="1.00" d=" M 62.93 9.38 C 64.44 3.45 72.70 0.20 77.60 4.11 C 75.62 4.25 73.66 4.56 71.67 4.56 C 71.46 4.51 71.02 4.39 70.81 4.34 C 70.49 5.82 70.19 7.32 69.96 8.82 C 67.61 8.94 65.27 9.18 62.93 9.38 Z" />
<path fill="#6b9a5f" opacity="1.00" d=" M 118.96 9.38 C 120.42 3.43 128.72 0.21 133.60 4.11 C 131.62 4.25 129.66 4.56 127.67 4.56 C 127.46 4.51 127.02 4.39 126.81 4.34 C 126.49 5.82 126.20 7.32 125.96 8.82 C 123.62 8.94 121.29 9.18 118.96 9.38 Z" />
<path fill="#6b9a5f" opacity="1.00" d=" M 174.93 9.38 C 176.44 3.45 184.69 0.20 189.60 4.11 C 187.62 4.25 185.66 4.56 183.67 4.56 C 183.46 4.51 183.02 4.39 182.81 4.34 C 182.49 5.82 182.19 7.32 181.96 8.82 C 179.61 8.94 177.27 9.18 174.93 9.38 Z" />
</g>
<g id="#565249ff">
<path fill="#565249" opacity="1.00" d=" M 31.98 3.03 C 32.77 1.98 33.78 1.59 35.02 1.87 C 34.50 3.26 33.48 3.64 31.98 3.03 Z" />
<path fill="#565249" opacity="1.00" d=" M 41.05 1.87 C 42.42 1.50 43.36 1.94 43.87 3.19 C 42.48 3.62 41.54 3.18 41.05 1.87 Z" />
<path fill="#565249" opacity="1.00" d=" M 44.78 3.08 C 47.85 2.66 51.23 2.13 54.00 3.90 C 50.95 3.44 47.86 3.28 44.78 3.08 Z" />
<path fill="#565249" opacity="1.00" d=" M 87.98 3.03 C 88.77 1.98 89.78 1.59 91.02 1.87 C 90.49 3.26 89.48 3.64 87.98 3.03 Z" />
<path fill="#565249" opacity="1.00" d=" M 97.05 1.87 C 98.42 1.50 99.36 1.94 99.87 3.19 C 98.48 3.62 97.54 3.18 97.05 1.87 Z" />
<path fill="#565249" opacity="1.00" d=" M 100.78 3.08 C 103.85 2.66 107.23 2.12 110.00 3.91 C 106.95 3.44 103.85 3.29 100.78 3.08 Z" />
<path fill="#565249" opacity="1.00" d=" M 143.98 3.03 C 144.77 1.98 145.78 1.59 147.02 1.87 C 146.49 3.25 145.48 3.64 143.98 3.03 Z" />
<path fill="#565249" opacity="1.00" d=" M 153.05 1.87 C 154.42 1.50 155.36 1.94 155.87 3.19 C 154.48 3.62 153.54 3.18 153.05 1.87 Z" />
<path fill="#565249" opacity="1.00" d=" M 156.78 3.08 C 159.85 2.66 163.23 2.12 166.00 3.91 C 162.95 3.44 159.85 3.29 156.78 3.08 Z" />
<path fill="#565249" opacity="1.00" d=" M 199.98 3.03 C 200.77 1.98 201.78 1.59 203.02 1.87 C 202.49 3.26 201.48 3.64 199.98 3.03 Z" />
<path fill="#565249" opacity="1.00" d=" M 209.05 1.88 C 210.43 1.49 211.36 1.93 211.86 3.19 C 210.48 3.61 209.54 3.17 209.05 1.88 Z" />
<path fill="#565249" opacity="1.00" d=" M 212.77 3.09 C 215.94 2.60 219.16 2.74 222.24 3.66 C 219.09 3.35 215.91 3.23 212.77 3.09 Z" />
<path fill="#565249" opacity="1.00" d=" M 31.74 10.37 C 32.36 8.07 33.08 5.80 33.63 3.47 C 33.69 5.15 33.77 6.82 33.80 8.50 C 33.29 8.97 32.25 9.90 31.74 10.37 Z" />
<path fill="#565249" opacity="1.00" d=" M 87.77 10.40 C 88.41 8.09 89.04 5.79 89.62 3.47 C 89.67 5.15 89.79 6.82 89.81 8.51 C 89.30 8.98 88.28 9.92 87.77 10.40 Z" />
<path fill="#565249" opacity="1.00" d=" M 143.52 10.23 C 144.18 7.97 144.96 5.74 145.66 3.49 C 145.71 5.16 145.78 6.83 145.79 8.51 C 145.22 8.94 144.09 9.80 143.52 10.23 Z" />
<path fill="#565249" opacity="1.00" d=" M 199.77 10.40 C 200.40 8.09 201.04 5.79 201.62 3.47 C 201.67 5.15 201.79 6.82 201.81 8.51 C 201.30 8.98 200.28 9.92 199.77 10.40 Z" />
<path fill="#565249" opacity="1.00" d=" M 49.09 6.01 C 50.41 5.61 51.79 5.28 53.15 5.74 C 52.70 6.78 52.24 7.81 51.78 8.85 C 51.08 8.90 49.67 9.00 48.96 9.06 C 48.99 8.29 49.06 6.77 49.09 6.01 Z" />
<path fill="#565249" opacity="1.00" d=" M 105.09 6.01 C 106.41 5.61 107.79 5.28 109.15 5.74 C 108.69 6.78 108.24 7.81 107.78 8.85 C 107.08 8.90 105.67 9.00 104.96 9.06 C 104.99 8.29 105.06 6.77 105.09 6.01 Z" />
<path fill="#565249" opacity="1.00" d=" M 161.15 6.22 C 162.18 5.76 163.22 5.30 164.26 4.85 C 164.71 6.21 164.39 7.59 163.99 8.91 C 163.23 8.94 161.71 9.01 160.94 9.04 C 161.00 8.33 161.10 6.92 161.15 6.22 Z" />
<path fill="#565249" opacity="1.00" d=" M 217.15 6.22 C 218.18 5.76 219.22 5.30 220.26 4.85 C 220.71 6.21 220.38 7.59 219.99 8.91 C 219.23 8.94 217.71 9.01 216.94 9.04 C 217.00 8.33 217.10 6.92 217.15 6.22 Z" />
<path fill="#565249" opacity="1.00" d=" M 26.20 19.99 C 25.00 18.44 26.16 16.61 27.16 15.32 C 27.28 16.84 27.56 18.47 26.84 19.90 L 26.20 19.99 Z" />
<path fill="#565249" opacity="1.00" d=" M 103.74 15.50 L 104.63 15.59 C 104.89 15.99 105.42 16.80 105.69 17.21 C 105.11 17.15 103.96 17.05 103.38 17.00 C 103.47 16.63 103.65 15.88 103.74 15.50 Z" />
<path fill="#565249" opacity="1.00" d=" M 215.74 15.50 L 216.63 15.59 C 216.89 15.99 217.41 16.81 217.68 17.22 C 217.10 17.17 215.95 17.05 215.38 17.00 C 215.47 16.62 215.65 15.87 215.74 15.50 Z" />
<path fill="#565249" opacity="1.00" d=" M 8.51 32.55 C 8.63 29.94 10.39 28.49 12.71 27.70 L 13.02 28.80 C 12.46 29.94 12.13 31.13 12.03 32.37 C 10.86 32.42 9.69 32.48 8.51 32.55 Z" />
</g>
<g id="#332f2bff">
<path fill="#332f2b" opacity="1.00" d=" M 35.02 1.87 C 37.03 2.00 39.05 2.06 41.05 1.87 C 41.54 3.18 42.48 3.62 43.87 3.19 L 44.78 3.08 C 47.86 3.28 50.95 3.44 54.00 3.90 C 54.84 4.44 55.66 4.99 56.47 5.58 C 56.23 9.79 56.06 14.02 55.98 18.24 C 54.85 16.75 52.46 16.77 51.78 18.68 C 51.30 18.51 50.34 18.18 49.87 18.02 C 49.53 17.48 48.85 16.42 48.51 15.89 C 49.84 15.38 51.03 14.57 52.23 13.82 C 52.90 13.46 54.23 12.72 54.90 12.36 C 53.46 10.54 51.26 10.08 49.06 10.06 C 47.43 8.49 45.88 6.84 44.17 5.37 C 44.70 7.46 45.36 9.51 46.21 11.49 C 45.29 12.17 44.35 12.81 43.42 13.49 C 45.02 14.81 46.54 16.20 48.10 17.56 C 47.43 17.51 46.09 17.40 45.42 17.35 C 45.07 17.34 44.36 17.34 44.01 17.34 C 42.59 17.34 41.91 18.02 42.00 19.39 L 41.62 18.63 C 41.35 16.56 41.31 14.46 41.31 12.37 C 41.30 12.06 41.28 11.45 41.27 11.14 C 41.23 9.34 40.95 7.00 38.84 6.49 C 36.85 5.48 35.20 7.36 33.80 8.50 C 33.77 6.82 33.69 5.15 33.63 3.47 C 33.08 5.80 32.36 8.07 31.74 10.37 C 31.63 10.78 31.43 11.60 31.33 12.01 C 30.96 13.79 30.56 15.55 30.02 17.28 C 29.51 17.93 28.97 18.55 28.40 19.14 L 27.79 19.67 L 26.84 19.90 C 27.56 18.47 27.28 16.84 27.16 15.32 C 27.33 14.78 27.68 13.72 27.85 13.18 C 28.27 11.73 28.63 10.25 29.04 8.80 C 29.18 8.38 29.46 7.53 29.60 7.11 C 27.62 7.83 25.65 8.60 23.72 9.46 C 20.28 6.70 15.81 8.56 13.41 11.72 C 15.44 11.63 17.47 11.58 19.50 11.56 C 18.35 12.20 16.05 13.47 14.90 14.10 C 14.54 15.66 13.82 18.78 13.45 20.33 C 12.22 20.21 10.99 20.12 9.75 20.04 C 9.12 16.79 7.83 13.71 6.82 10.57 C 6.82 10.41 6.83 10.10 6.83 9.95 L 6.93 9.38 C 9.27 9.18 11.61 8.94 13.96 8.82 C 14.19 7.32 14.49 5.82 14.81 4.34 C 15.02 4.39 15.46 4.51 15.67 4.56 C 18.02 5.27 20.37 5.95 22.73 6.58 C 25.85 5.49 29.02 4.51 31.98 3.03 C 33.48 3.64 34.50 3.26 35.02 1.87 M 49.09 6.01 C 49.06 6.77 48.99 8.29 48.96 9.06 C 49.67 9.00 51.08 8.90 51.78 8.85 C 52.24 7.81 52.70 6.78 53.15 5.74 C 51.79 5.28 50.41 5.61 49.09 6.01 Z" />
</g>
<g id="#342f2bfe">
<path fill="#342f2b" opacity="1.00" d=" M 91.02 1.87 C 93.03 2.00 95.04 2.06 97.05 1.87 C 97.54 3.18 98.48 3.62 99.87 3.19 L 100.78 3.08 C 103.85 3.29 106.95 3.44 110.00 3.91 C 110.84 4.44 111.67 5.00 112.49 5.58 C 112.22 9.42 111.99 13.26 111.87 17.10 C 110.56 16.40 109.67 16.71 109.19 18.01 L 108.32 17.84 C 107.44 17.63 106.56 17.42 105.69 17.21 C 105.42 16.80 104.89 15.99 104.63 15.59 C 105.94 15.12 107.19 14.48 108.39 13.77 C 109.02 13.41 110.27 12.71 110.89 12.35 C 109.47 10.53 107.25 10.10 105.06 10.05 C 103.42 8.49 101.88 6.84 100.16 5.36 C 100.72 7.47 101.37 9.55 102.23 11.54 C 101.18 12.25 100.13 12.97 99.09 13.70 C 100.48 14.17 101.89 14.59 103.26 15.11 L 103.74 15.50 C 103.65 15.88 103.47 16.63 103.38 17.00 C 102.88 16.86 101.89 16.57 101.39 16.42 C 101.05 16.38 100.36 16.29 100.02 16.25 C 98.58 16.22 97.95 16.92 98.13 18.35 L 97.83 17.61 C 97.42 15.90 97.24 14.14 97.26 12.38 C 97.25 12.08 97.24 11.46 97.23 11.16 C 98.34 6.43 92.06 4.58 89.81 8.51 C 89.79 6.82 89.67 5.15 89.62 3.47 C 89.04 5.79 88.41 8.09 87.77 10.40 C 87.67 10.80 87.46 11.60 87.36 12.01 C 87.02 13.46 86.63 14.90 86.15 16.31 C 85.62 16.97 85.06 17.60 84.46 18.20 L 83.82 18.73 L 82.92 18.94 C 83.31 17.03 83.70 15.12 84.07 13.21 C 84.37 11.72 84.66 10.24 84.98 8.76 C 85.09 8.35 85.30 7.52 85.41 7.11 C 83.00 8.17 80.38 9.93 77.70 8.55 C 74.51 7.08 71.42 9.44 69.41 11.73 C 71.42 11.63 73.44 11.57 75.46 11.52 C 74.32 12.21 72.05 13.59 70.91 14.28 C 70.65 15.50 70.13 17.94 69.87 19.16 L 69.72 19.87 C 68.41 19.99 67.09 20.10 65.77 20.21 C 65.17 16.90 63.84 13.77 62.81 10.58 C 62.81 10.42 62.82 10.11 62.83 9.95 L 62.93 9.38 C 65.27 9.18 67.61 8.94 69.96 8.82 C 70.19 7.32 70.49 5.82 70.81 4.34 C 71.02 4.39 71.46 4.51 71.67 4.56 C 74.02 5.27 76.37 5.95 78.73 6.58 C 81.85 5.49 85.02 4.51 87.98 3.03 C 89.48 3.64 90.49 3.26 91.02 1.87 M 105.09 6.01 C 105.06 6.77 104.99 8.29 104.96 9.06 C 105.67 9.00 107.08 8.90 107.78 8.85 C 108.24 7.81 108.69 6.78 109.15 5.74 C 107.79 5.28 106.41 5.61 105.09 6.01 Z" />
<path fill="#342f2b" opacity="1.00" d=" M 203.02 1.87 C 205.03 2.00 207.04 2.06 209.05 1.88 C 209.54 3.17 210.48 3.61 211.86 3.19 L 212.77 3.09 C 215.91 3.23 219.09 3.35 222.24 3.66 C 222.68 3.77 223.56 4.01 224.00 4.12 L 224.00 17.03 C 222.68 16.38 221.77 16.70 221.27 17.99 L 220.37 17.82 C 219.47 17.62 218.57 17.43 217.68 17.22 C 217.41 16.81 216.89 15.99 216.63 15.59 C 217.94 15.12 219.19 14.48 220.39 13.77 C 221.02 13.41 222.27 12.71 222.89 12.35 C 221.47 10.53 219.25 10.10 217.06 10.05 C 215.42 8.49 213.88 6.84 212.16 5.36 C 212.71 7.47 213.37 9.55 214.23 11.54 C 213.18 12.25 212.13 12.97 211.09 13.70 C 212.48 14.17 213.88 14.59 215.26 15.11 L 215.74 15.50 C 215.65 15.87 215.47 16.62 215.38 17.00 C 214.88 16.85 213.89 16.56 213.39 16.42 C 213.05 16.38 212.36 16.29 212.02 16.25 C 210.58 16.22 209.95 16.92 210.13 18.35 L 209.83 17.60 C 209.42 15.90 209.24 14.14 209.26 12.38 C 209.25 12.08 209.24 11.46 209.23 11.16 C 210.34 6.43 204.06 4.58 201.81 8.51 C 201.79 6.82 201.67 5.15 201.62 3.47 C 201.04 5.79 200.40 8.09 199.77 10.40 C 199.67 10.80 199.46 11.60 199.36 12.01 C 199.02 13.46 198.63 14.90 198.15 16.31 C 197.62 16.97 197.05 17.60 196.46 18.20 L 195.82 18.73 L 194.92 18.94 C 195.31 17.03 195.70 15.12 196.07 13.21 C 196.37 11.72 196.66 10.24 196.98 8.76 C 197.09 8.35 197.30 7.52 197.41 7.11 C 195.00 8.17 192.38 9.93 189.70 8.55 C 186.51 7.08 183.42 9.44 181.41 11.73 C 183.42 11.63 185.44 11.57 187.46 11.52 C 186.32 12.21 184.05 13.59 182.91 14.28 C 182.65 15.50 182.13 17.94 181.87 19.16 L 181.73 19.87 C 180.41 19.99 179.09 20.10 177.77 20.22 C 177.17 16.90 175.83 13.77 174.81 10.58 C 174.81 10.42 174.82 10.11 174.83 9.95 L 174.93 9.38 C 177.27 9.18 179.61 8.94 181.96 8.82 C 182.19 7.32 182.49 5.82 182.81 4.34 C 183.02 4.39 183.46 4.51 183.67 4.56 C 186.02 5.27 188.36 5.95 190.73 6.58 C 193.85 5.49 197.02 4.51 199.98 3.03 C 201.48 3.64 202.49 3.26 203.02 1.87 M 217.15 6.22 C 217.10 6.92 217.00 8.33 216.94 9.04 C 217.71 9.01 219.23 8.94 219.99 8.91 C 220.38 7.59 220.71 6.21 220.26 4.85 C 219.22 5.30 218.18 5.76 217.15 6.22 Z" />
</g>
<g id="#342f2bff">
<path fill="#342f2b" opacity="1.00" d=" M 147.02 1.87 C 149.03 2.00 151.04 2.06 153.05 1.87 C 153.54 3.18 154.48 3.62 155.87 3.19 L 156.78 3.08 C 159.85 3.29 162.95 3.44 166.00 3.91 C 166.85 4.44 167.68 5.00 168.50 5.58 C 168.21 9.06 167.94 12.54 167.87 16.04 C 166.55 15.45 165.67 15.80 165.21 17.09 L 164.34 16.92 C 162.43 16.55 160.57 16.01 158.73 15.40 C 160.78 15.88 162.78 14.98 164.43 13.83 C 164.95 13.51 165.99 12.87 166.51 12.55 C 166.23 11.93 165.98 11.31 165.64 10.73 C 161.62 11.01 158.66 8.11 156.19 5.33 C 156.72 7.44 157.32 9.53 158.21 11.51 C 157.13 12.26 156.08 13.05 155.03 13.84 C 155.93 14.24 156.83 14.64 157.73 15.03 C 157.36 15.08 156.63 15.19 156.26 15.25 C 154.82 15.29 154.13 15.99 154.19 17.34 L 153.84 16.59 C 153.46 15.18 153.21 13.73 153.12 12.27 C 153.11 12.02 153.10 11.51 153.10 11.26 C 153.22 9.41 153.08 6.97 150.84 6.50 C 148.83 5.44 147.24 7.45 145.79 8.51 C 145.78 6.83 145.71 5.16 145.66 3.49 C 144.96 5.74 144.18 7.97 143.52 10.23 C 143.61 12.51 144.04 14.79 145.23 16.76 C 144.17 16.21 143.10 15.68 142.03 15.14 C 141.05 16.12 140.05 17.08 139.17 18.14 C 139.51 16.53 139.77 14.90 140.08 13.27 C 140.37 11.78 140.66 10.29 141.00 8.81 C 141.11 8.39 141.33 7.56 141.44 7.15 C 139.51 7.85 137.60 8.62 135.73 9.46 C 132.29 6.71 127.82 8.55 125.41 11.71 C 127.45 11.64 129.49 11.60 131.54 11.61 C 130.21 12.11 127.56 13.11 126.23 13.61 C 126.14 14.83 125.99 16.04 125.78 17.24 C 125.68 17.85 125.47 19.07 125.36 19.69 C 124.95 20.00 124.13 20.63 123.73 20.95 C 121.14 18.04 119.27 14.64 118.73 10.69 C 118.74 10.50 118.77 10.12 118.78 9.93 L 118.96 9.38 C 121.29 9.18 123.62 8.94 125.96 8.82 C 126.20 7.32 126.49 5.82 126.81 4.34 C 127.02 4.39 127.46 4.51 127.67 4.56 C 130.02 5.27 132.37 5.95 134.73 6.58 C 137.85 5.49 141.02 4.51 143.98 3.03 C 145.48 3.64 146.49 3.25 147.02 1.87 M 161.15 6.22 C 161.10 6.92 161.00 8.33 160.94 9.04 C 161.71 9.01 163.23 8.94 163.99 8.91 C 164.39 7.59 164.71 6.21 164.26 4.85 C 163.22 5.30 162.18 5.76 161.15 6.22 Z" />
</g>
<g id="#86b05fff">
<path fill="#86b05f" opacity="1.00" d=" M 1.63 3.68 C 3.63 6.28 2.86 9.29 1.37 11.90 C 2.84 15.09 4.21 18.33 5.69 21.51 C 5.90 21.99 6.33 22.95 6.55 23.42 C 5.33 23.36 4.11 23.34 2.89 23.28 C 2.43 24.24 1.99 25.20 1.55 26.17 C 1.01 25.35 0.50 24.51 0.00 23.67 L 0.00 21.79 C 1.09 22.16 3.04 22.67 3.57 21.23 C 3.10 19.52 0.89 20.45 0.00 21.29 L 0.00 6.17 C 0.41 5.55 1.22 4.30 1.63 3.68 Z" />
<path fill="#86b05f" opacity="1.00" d=" M 57.81 3.88 C 58.56 5.56 59.42 7.40 58.42 9.19 C 56.43 13.57 60.27 17.61 61.70 21.54 C 61.91 22.01 62.34 22.95 62.55 23.42 C 61.32 23.37 60.10 23.34 58.88 23.28 C 58.42 24.24 57.99 25.21 57.54 26.17 C 57.04 25.33 56.56 24.47 56.09 23.62 C 56.07 23.11 56.04 22.11 56.02 21.61 C 57.05 22.04 59.00 22.75 59.55 21.31 C 59.14 19.64 56.95 20.25 56.01 21.08 C 56.00 20.53 55.98 19.42 55.97 18.86 L 55.98 18.24 C 56.06 14.02 56.23 9.79 56.47 5.58 C 56.81 5.15 57.48 4.31 57.81 3.88 Z" />
<path fill="#86b05f" opacity="1.00" d=" M 113.80 3.89 C 114.61 5.55 115.38 7.41 114.42 9.19 C 112.41 13.59 116.31 17.61 117.69 21.56 C 117.91 22.03 118.34 22.96 118.56 23.43 C 117.33 23.36 116.10 23.34 114.88 23.28 C 114.42 24.24 113.97 25.21 113.53 26.19 C 113.05 25.33 112.59 24.46 112.15 23.59 C 112.11 23.10 112.04 22.11 112.00 21.61 C 113.04 22.04 115.03 22.76 115.55 21.27 C 115.02 19.69 112.94 20.29 111.95 21.05 C 111.93 20.24 111.88 18.62 111.86 17.81 L 111.87 17.10 C 111.99 13.26 112.22 9.42 112.49 5.58 C 112.82 5.15 113.47 4.31 113.80 3.89 Z" />
<path fill="#86b05f" opacity="1.00" d=" M 169.80 3.89 C 171.73 6.42 170.35 9.18 169.77 11.86 C 170.20 15.34 172.37 18.34 173.70 21.54 C 173.91 22.01 174.34 22.95 174.55 23.42 C 173.32 23.37 172.11 23.34 170.89 23.28 C 170.43 24.24 169.98 25.21 169.53 26.17 C 169.05 25.34 168.59 24.50 168.14 23.66 C 168.11 23.16 168.06 22.16 168.04 21.66 C 169.07 22.06 171.03 22.73 171.55 21.29 C 171.11 19.63 168.95 20.29 168.00 21.09 L 167.95 20.04 C 167.93 19.22 167.89 17.58 167.86 16.75 L 167.87 16.04 C 167.94 12.54 168.21 9.06 168.50 5.58 C 168.83 5.16 169.47 4.31 169.80 3.89 Z" />
<path fill="#86b05f" opacity="1.00" d=" M 1.64 31.66 C 3.56 34.28 2.95 37.30 1.36 39.88 C 2.90 43.03 4.06 46.34 5.55 49.51 C 5.80 50.01 6.30 51.03 6.55 51.54 C 5.32 51.41 4.09 51.34 2.87 51.24 C 2.43 52.23 1.98 53.20 1.56 54.20 C 1.02 53.34 0.50 52.48 -0.00 51.60 L 0.00 49.78 C 1.09 50.15 3.03 50.67 3.57 49.24 C 3.11 47.52 0.89 48.44 0.00 49.27 L 0.00 34.19 C 0.41 33.56 1.23 32.29 1.64 31.66 Z" />
</g>
<g id="#5d5347ff">
<path fill="#5d5347" opacity="1.00" d=" M 15.67 4.56 C 17.66 4.56 19.62 4.25 21.60 4.11 C 21.92 4.44 22.57 5.08 22.90 5.40 L 22.73 6.58 C 20.37 5.95 18.02 5.27 15.67 4.56 Z" />
<path fill="#5d5347" opacity="1.00" d=" M 71.67 4.56 C 73.66 4.56 75.62 4.25 77.60 4.11 C 77.92 4.44 78.57 5.08 78.90 5.40 L 78.73 6.58 C 76.37 5.95 74.02 5.27 71.67 4.56 Z" />
<path fill="#5d5347" opacity="1.00" d=" M 127.67 4.56 C 129.66 4.56 131.62 4.25 133.60 4.11 C 133.92 4.44 134.57 5.08 134.90 5.40 L 134.73 6.58 C 132.37 5.95 130.02 5.27 127.67 4.56 Z" />
<path fill="#5d5347" opacity="1.00" d=" M 183.67 4.56 C 185.66 4.56 187.62 4.25 189.60 4.11 C 189.93 4.44 190.57 5.08 190.90 5.40 L 190.73 6.58 C 188.36 5.95 186.02 5.27 183.67 4.56 Z" />
</g>
<g id="#72624dff">
<path fill="#72624d" opacity="1.00" d=" M 33.80 8.50 C 35.20 7.36 36.85 5.48 38.84 6.49 C 40.95 7.00 41.23 9.34 41.27 11.14 C 39.28 10.53 37.61 11.84 36.19 13.04 C 35.76 13.33 34.90 13.92 34.48 14.21 C 33.43 13.47 32.37 12.75 31.33 12.01 C 31.43 11.60 31.63 10.78 31.74 10.37 C 32.25 9.90 33.29 8.97 33.80 8.50 Z" />
<path fill="#72624d" opacity="1.00" d=" M 89.81 8.51 C 92.06 4.58 98.34 6.43 97.23 11.16 C 95.24 10.53 93.58 11.84 92.17 13.04 C 91.74 13.34 90.87 13.92 90.44 14.21 C 89.41 13.48 88.39 12.74 87.36 12.01 C 87.46 11.60 87.67 10.80 87.77 10.40 C 88.28 9.92 89.30 8.98 89.81 8.51 Z" />
<path fill="#72624d" opacity="1.00" d=" M 201.81 8.51 C 204.06 4.58 210.34 6.43 209.23 11.16 C 207.24 10.53 205.58 11.84 204.17 13.04 C 203.74 13.34 202.87 13.92 202.44 14.21 C 201.41 13.48 200.38 12.74 199.36 12.01 C 199.46 11.60 199.67 10.80 199.77 10.40 C 200.28 9.92 201.30 8.98 201.81 8.51 Z" />
</g>
<g id="#6d614fff">
<path fill="#6d614f" opacity="1.00" d=" M 145.79 8.51 C 147.24 7.45 148.83 5.44 150.84 6.50 C 153.08 6.97 153.22 9.41 153.10 11.26 C 151.45 11.07 149.31 11.04 148.41 12.72 C 148.08 13.22 147.41 14.24 147.08 14.75 C 147.80 15.93 148.47 17.14 149.18 18.34 C 148.63 18.50 147.54 18.81 146.99 18.97 C 146.42 18.22 145.83 17.48 145.23 16.76 C 144.04 14.79 143.61 12.51 143.52 10.23 C 144.09 9.80 145.22 8.94 145.79 8.51 Z" />
</g>
<g id="#63594aff">
<path fill="#63594a" opacity="1.00" d=" M 44.17 5.37 C 45.88 6.84 47.43 8.49 49.06 10.06 C 51.26 10.08 53.46 10.54 54.90 12.36 C 54.23 12.72 52.90 13.46 52.23 13.82 C 50.52 12.41 46.14 13.29 48.51 15.89 C 48.85 16.42 49.53 17.48 49.87 18.02 C 49.42 17.90 48.54 17.68 48.10 17.56 C 46.54 16.20 45.02 14.81 43.42 13.49 C 44.35 12.81 45.29 12.17 46.21 11.49 C 45.36 9.51 44.70 7.46 44.17 5.37 Z" />
<path fill="#63594a" opacity="1.00" d=" M 125.41 11.71 C 127.82 8.55 132.29 6.71 135.73 9.46 C 137.60 8.62 139.51 7.85 141.44 7.15 C 141.33 7.56 141.11 8.39 141.00 8.81 C 139.04 9.96 136.99 10.95 134.97 11.99 C 136.67 12.41 138.37 12.85 140.08 13.27 C 139.77 14.90 139.51 16.53 139.17 18.14 L 138.71 18.71 C 137.55 18.62 136.38 18.52 135.23 18.37 C 134.75 18.10 133.79 17.55 133.30 17.27 C 132.63 16.24 131.97 15.21 131.33 14.16 C 129.70 15.27 128.04 16.33 126.31 17.28 L 125.78 17.24 C 125.99 16.04 126.14 14.83 126.23 13.61 C 127.56 13.11 130.21 12.11 131.54 11.61 C 129.49 11.60 127.45 11.64 125.41 11.71 Z" />
</g>
<g id="#665b4bff">
<path fill="#665b4b" opacity="1.00" d=" M 100.16 5.36 C 101.88 6.84 103.42 8.49 105.06 10.05 C 107.25 10.10 109.47 10.53 110.89 12.35 C 110.27 12.71 109.02 13.41 108.39 13.77 C 106.64 12.83 103.98 12.91 103.26 15.11 C 101.89 14.59 100.48 14.17 99.09 13.70 C 100.13 12.97 101.18 12.25 102.23 11.54 C 101.37 9.55 100.72 7.47 100.16 5.36 Z" />
<path fill="#665b4b" opacity="1.00" d=" M 156.19 5.33 C 158.66 8.11 161.62 11.01 165.64 10.73 C 165.98 11.31 166.23 11.93 166.51 12.55 C 165.99 12.87 164.95 13.51 164.43 13.83 C 162.42 12.84 159.87 13.42 158.73 15.40 L 157.73 15.03 C 156.83 14.64 155.93 14.24 155.03 13.84 C 156.08 13.05 157.13 12.26 158.21 11.51 C 157.32 9.53 156.72 7.44 156.19 5.33 Z" />
<path fill="#665b4b" opacity="1.00" d=" M 212.16 5.36 C 213.88 6.84 215.42 8.49 217.06 10.05 C 219.25 10.10 221.47 10.53 222.89 12.35 C 222.27 12.71 221.02 13.41 220.39 13.77 C 218.64 12.83 215.98 12.91 215.26 15.11 C 213.88 14.59 212.48 14.17 211.09 13.70 C 212.13 12.97 213.18 12.25 214.23 11.54 C 213.37 9.55 212.71 7.47 212.16 5.36 Z" />
</g>
<g id="#5f584bff">
<path fill="#5f584b" opacity="1.00" d=" M 13.41 11.72 C 15.81 8.56 20.28 6.70 23.72 9.46 C 25.65 8.60 27.62 7.83 29.60 7.11 C 29.46 7.53 29.18 8.38 29.04 8.80 C 27.15 9.95 25.20 11.00 23.23 12.00 C 23.90 14.71 23.93 17.51 23.55 20.26 C 22.48 19.92 21.41 19.59 20.35 19.27 C 20.22 17.51 20.15 15.75 20.08 13.99 C 18.64 14.49 17.22 15.05 15.82 15.64 C 15.37 17.15 14.98 18.68 14.53 20.20 L 13.45 20.33 C 13.82 18.78 14.54 15.66 14.90 14.10 C 16.05 13.47 18.35 12.20 19.50 11.56 C 17.47 11.58 15.44 11.63 13.41 11.72 Z" />
</g>
<g id="#60584bff">
<path fill="#60584b" opacity="1.00" d=" M 69.41 11.73 C 71.42 9.44 74.51 7.08 77.70 8.55 C 80.38 9.93 83.00 8.17 85.41 7.11 C 85.30 7.52 85.09 8.35 84.98 8.76 C 83.13 9.96 81.17 10.98 79.23 12.02 C 79.92 14.40 79.98 16.89 79.54 19.32 C 78.49 19.02 77.44 18.71 76.39 18.39 C 76.27 16.93 76.15 15.47 75.96 14.02 C 74.79 14.46 73.61 14.87 72.41 15.22 C 71.80 16.51 71.20 17.79 70.58 19.07 L 69.87 19.16 C 70.13 17.94 70.65 15.50 70.91 14.28 C 72.05 13.59 74.32 12.21 75.46 11.52 C 73.44 11.57 71.42 11.63 69.41 11.73 Z" />
<path fill="#60584b" opacity="1.00" d=" M 181.41 11.73 C 183.42 9.44 186.51 7.08 189.70 8.55 C 192.38 9.93 195.00 8.17 197.41 7.11 C 197.30 7.52 197.09 8.35 196.98 8.76 C 195.13 9.96 193.17 10.98 191.23 12.02 C 191.92 14.40 191.98 16.89 191.54 19.32 C 190.49 19.02 189.44 18.71 188.39 18.39 C 188.27 16.93 188.15 15.47 187.96 14.02 C 186.79 14.47 185.61 14.87 184.41 15.22 C 183.80 16.51 183.20 17.79 182.58 19.07 L 181.87 19.16 C 182.13 17.94 182.65 15.50 182.91 14.28 C 184.05 13.59 186.32 12.21 187.46 11.52 C 185.44 11.57 183.42 11.63 181.41 11.73 Z" />
</g>
<g id="#92824dff">
<path fill="#92824d" opacity="1.00" d=" M 23.23 12.00 C 25.20 11.00 27.15 9.95 29.04 8.80 C 28.63 10.25 28.27 11.73 27.85 13.18 C 26.31 12.79 24.77 12.38 23.23 12.00 Z" />
<path fill="#92824d" opacity="1.00" d=" M 79.23 12.02 C 81.17 10.98 83.13 9.96 84.98 8.76 C 84.66 10.24 84.37 11.72 84.07 13.21 C 82.45 12.81 80.84 12.40 79.23 12.02 Z" />
<path fill="#92824d" opacity="1.00" d=" M 134.97 11.99 C 136.99 10.95 139.04 9.96 141.00 8.81 C 140.66 10.29 140.37 11.78 140.08 13.27 C 138.37 12.85 136.67 12.41 134.97 11.99 Z" />
<path fill="#92824d" opacity="1.00" d=" M 191.23 12.02 C 193.17 10.98 195.13 9.96 196.98 8.76 C 196.66 10.24 196.37 11.72 196.07 13.21 C 194.45 12.81 192.84 12.40 191.23 12.02 Z" />
</g>
<g id="#4b5745ff">
<path fill="#4b5745" opacity="1.00" d=" M 5.69 21.51 C 5.67 17.82 6.23 14.19 6.82 10.57 C 7.83 13.71 9.12 16.79 9.75 20.04 C 9.70 21.16 9.65 22.28 9.61 23.40 C 8.32 22.72 7.02 22.09 5.69 21.51 Z" />
<path fill="#4b5745" opacity="1.00" d=" M 61.70 21.54 C 61.65 17.85 62.25 14.21 62.81 10.58 C 63.84 13.77 65.17 16.90 65.77 20.21 C 65.72 21.23 65.67 22.24 65.62 23.25 C 64.32 22.67 63.01 22.10 61.70 21.54 Z" />
<path fill="#4b5745" opacity="1.00" d=" M 173.70 21.54 C 173.65 17.85 174.25 14.21 174.81 10.58 C 175.83 13.77 177.17 16.90 177.77 20.22 C 177.72 21.23 177.67 22.24 177.62 23.25 C 176.32 22.67 175.01 22.09 173.70 21.54 Z" />
</g>
<g id="#907e4efe">
<path fill="#907e4e" opacity="1.00" d=" M 36.19 13.04 C 37.61 11.84 39.28 10.53 41.27 11.14 C 41.28 11.45 41.30 12.06 41.31 12.37 C 39.89 13.12 38.38 13.33 36.76 13.01 L 36.19 13.04 Z" />
<path fill="#907e4e" opacity="1.00" d=" M 92.17 13.04 C 93.58 11.84 95.24 10.53 97.23 11.16 C 97.24 11.46 97.25 12.08 97.26 12.38 C 95.85 13.14 94.34 13.35 92.72 13.02 L 92.17 13.04 Z" />
<path fill="#907e4e" opacity="1.00" d=" M 148.41 12.72 C 149.31 11.04 151.45 11.07 153.10 11.26 C 153.10 11.51 153.11 12.02 153.12 12.27 C 151.68 13.02 150.15 13.33 148.55 13.21 L 148.41 12.72 Z" />
<path fill="#907e4e" opacity="1.00" d=" M 204.17 13.04 C 205.58 11.84 207.24 10.53 209.23 11.16 C 209.24 11.46 209.25 12.08 209.26 12.38 C 207.85 13.14 206.34 13.35 204.72 13.02 L 204.17 13.04 Z" />
<path fill="#907e4e" opacity="1.00" d=" M 48.51 15.89 C 46.14 13.29 50.52 12.41 52.23 13.82 C 51.03 14.57 49.84 15.38 48.51 15.89 Z" />
<path fill="#907e4e" opacity="1.00" d=" M 103.26 15.11 C 103.98 12.91 106.64 12.83 108.39 13.77 C 107.19 14.48 105.94 15.12 104.63 15.59 L 103.74 15.50 L 103.26 15.11 Z" />
<path fill="#907e4e" opacity="1.00" d=" M 158.73 15.40 C 159.87 13.42 162.42 12.84 164.43 13.83 C 162.78 14.98 160.78 15.88 158.73 15.40 Z" />
<path fill="#907e4e" opacity="1.00" d=" M 215.26 15.11 C 215.98 12.91 218.64 12.83 220.39 13.77 C 219.19 14.48 217.94 15.12 216.63 15.59 L 215.74 15.50 L 215.26 15.11 Z" />
</g>
<g id="#515946ff">
<path fill="#515946" opacity="1.00" d=" M 117.69 21.56 C 117.65 17.90 118.28 14.30 118.73 10.69 C 119.27 14.64 121.14 18.04 123.73 20.95 C 123.90 21.36 124.25 22.17 124.43 22.57 L 124.07 23.54 C 121.86 23.18 119.67 22.63 117.69 21.56 Z" />
</g>
<g id="#76644eff">
<path fill="#76644e" opacity="1.00" d=" M 23.23 12.00 C 24.77 12.38 26.31 12.79 27.85 13.18 C 27.68 13.72 27.33 14.78 27.16 15.32 C 26.16 16.61 25.00 18.44 26.20 19.99 C 25.54 20.06 24.21 20.19 23.55 20.26 C 23.93 17.51 23.90 14.71 23.23 12.00 Z" />
</g>
<g id="#5a5851ff">
<path fill="#5a5851" opacity="1.00" d=" M 30.02 17.28 C 30.56 15.55 30.96 13.79 31.33 12.01 C 32.37 12.75 33.43 13.47 34.48 14.21 C 35.43 16.19 36.39 18.18 37.36 20.16 C 36.78 20.31 35.64 20.60 35.07 20.75 C 34.42 20.07 33.75 19.40 33.08 18.74 C 33.33 17.68 33.32 16.62 33.04 15.57 C 32.03 15.59 31.19 15.95 30.54 16.66 L 30.02 17.28 Z" />
</g>
<g id="#71614dff">
<path fill="#71614d" opacity="1.00" d=" M 79.23 12.02 C 80.84 12.40 82.45 12.81 84.07 13.21 C 83.70 15.12 83.31 17.03 82.92 18.94 C 81.80 19.10 80.67 19.23 79.54 19.32 C 79.98 16.89 79.92 14.40 79.23 12.02 Z" />
<path fill="#71614d" opacity="1.00" d=" M 191.23 12.02 C 192.84 12.40 194.45 12.81 196.07 13.21 C 195.70 15.12 195.31 17.03 194.92 18.94 C 193.80 19.10 192.67 19.23 191.54 19.32 C 191.98 16.89 191.92 14.40 191.23 12.02 Z" />
</g>
<g id="#5b5a53ff">
<path fill="#5b5a53" opacity="1.00" d=" M 86.15 16.31 C 86.63 14.90 87.02 13.46 87.36 12.01 C 88.39 12.74 89.41 13.48 90.44 14.21 C 91.39 15.89 92.30 17.58 93.16 19.30 C 92.58 19.46 91.44 19.78 90.86 19.94 C 90.38 19.20 89.89 18.47 89.39 17.75 C 89.54 16.34 87.89 13.81 86.64 15.71 L 86.15 16.31 Z" />
<path fill="#5b5a53" opacity="1.00" d=" M 198.15 16.31 C 198.63 14.90 199.02 13.46 199.36 12.01 C 200.38 12.74 201.41 13.48 202.44 14.21 C 203.39 15.89 204.30 17.58 205.16 19.30 C 204.58 19.46 203.44 19.78 202.87 19.94 C 202.38 19.20 201.89 18.47 201.39 17.75 C 201.54 16.34 199.89 13.81 198.64 15.71 L 198.15 16.31 Z" />
</g>
<g id="#332e2aff">
<path fill="#332e2a" opacity="1.00" d=" M 34.48 14.21 C 34.90 13.92 35.76 13.33 36.19 13.04 L 36.76 13.01 C 36.81 14.87 36.86 16.74 36.90 18.60 C 37.01 18.99 37.24 19.77 37.36 20.16 C 36.39 18.18 35.43 16.19 34.48 14.21 Z" />
<path fill="#332e2a" opacity="1.00" d=" M 90.44 14.21 C 90.87 13.92 91.74 13.34 92.17 13.04 L 92.72 13.02 C 92.84 15.11 92.97 17.21 93.16 19.30 C 92.30 17.58 91.39 15.89 90.44 14.21 Z" />
<path fill="#332e2a" opacity="1.00" d=" M 147.08 14.75 C 147.41 14.24 148.08 13.22 148.41 12.72 L 148.55 13.21 C 148.79 14.91 148.99 16.63 149.18 18.34 C 148.47 17.14 147.80 15.93 147.08 14.75 Z" />
<path fill="#332e2a" opacity="1.00" d=" M 202.44 14.21 C 202.87 13.92 203.74 13.34 204.17 13.04 L 204.72 13.02 C 204.83 15.11 204.97 17.21 205.16 19.30 C 204.30 17.58 203.39 15.89 202.44 14.21 Z" />
<path fill="#332e2a" opacity="1.00" d=" M 72.41 15.22 C 73.61 14.87 74.79 14.46 75.96 14.02 C 76.15 15.47 76.27 16.93 76.39 18.39 C 75.13 18.60 73.86 18.78 72.59 18.94 C 72.09 18.97 71.08 19.03 70.58 19.07 C 71.20 17.79 71.80 16.51 72.41 15.22 Z" />
<path fill="#332e2a" opacity="1.00" d=" M 126.31 17.28 C 128.04 16.33 129.70 15.27 131.33 14.16 C 131.97 15.21 132.63 16.24 133.30 17.27 C 131.85 17.39 130.41 17.51 128.96 17.55 C 128.29 17.48 126.97 17.35 126.31 17.28 Z" />
<path fill="#332e2a" opacity="1.00" d=" M 184.41 15.22 C 185.61 14.87 186.79 14.47 187.96 14.02 C 188.15 15.47 188.27 16.93 188.39 18.39 C 187.13 18.60 185.86 18.78 184.59 18.94 C 184.09 18.97 183.08 19.03 182.58 19.07 C 183.20 17.79 183.80 16.51 184.41 15.22 Z" />
<path fill="#332e2a" opacity="1.00" d=" M 30.54 16.66 C 31.19 15.95 32.03 15.59 33.04 15.57 C 33.32 16.62 33.33 17.68 33.08 18.74 C 32.21 18.08 31.36 17.38 30.54 16.66 Z" />
<path fill="#332e2a" opacity="1.00" d=" M 86.64 15.71 C 87.89 13.81 89.54 16.34 89.39 17.75 C 88.22 17.38 87.30 16.70 86.64 15.71 Z" />
<path fill="#332e2a" opacity="1.00" d=" M 198.64 15.71 C 199.89 13.81 201.54 16.34 201.39 17.75 C 200.21 17.38 199.30 16.70 198.64 15.71 Z" />
<path fill="#332e2a" opacity="1.00" d=" M 38.75 18.06 C 38.63 15.85 41.51 16.32 40.42 18.33 L 39.44 18.68 L 38.75 18.06 Z" />
<path fill="#332e2a" opacity="1.00" d=" M 5.69 21.51 C 7.02 22.09 8.32 22.72 9.61 23.40 C 10.10 23.35 11.09 23.25 11.58 23.20 L 11.75 23.99 C 12.04 25.23 12.37 26.47 12.71 27.70 C 10.39 28.49 8.63 29.94 8.51 32.55 C 9.69 32.48 10.86 32.42 12.03 32.37 C 12.36 32.41 13.01 32.50 13.33 32.54 C 12.47 34.33 11.72 36.18 11.22 38.10 C 11.15 39.39 11.15 40.68 11.23 41.97 C 11.71 43.95 12.39 45.87 13.07 47.79 C 12.21 47.91 10.48 48.14 9.62 48.26 C 8.28 40.47 8.38 32.50 7.07 24.74 C 6.94 24.41 6.68 23.75 6.55 23.42 C 6.33 22.95 5.90 21.99 5.69 21.51 Z" />
<path fill="#332e2a" opacity="1.00" d=" M 61.70 21.54 C 63.01 22.10 64.32 22.67 65.62 23.25 C 66.20 23.28 67.35 23.34 67.92 23.38 C 67.96 23.76 68.03 24.52 68.07 24.90 C 67.06 25.46 66.53 26.31 66.48 27.46 C 65.99 29.17 65.38 30.84 64.74 32.50 C 65.81 32.49 66.88 32.48 67.95 32.48 C 68.28 32.52 68.94 32.59 69.27 32.63 C 68.20 34.96 67.65 37.47 67.16 39.97 C 67.17 40.53 67.20 41.66 67.22 42.22 C 67.79 44.10 68.38 45.97 69.07 47.81 C 68.20 47.92 66.48 48.13 65.61 48.23 C 64.28 40.46 64.38 32.49 63.07 24.74 C 62.94 24.41 62.68 23.75 62.55 23.42 C 62.34 22.95 61.91 22.01 61.70 21.54 Z" />
<path fill="#332e2a" opacity="1.00" d=" M 173.70 21.54 C 175.01 22.09 176.32 22.67 177.62 23.25 C 178.20 23.28 179.36 23.34 179.94 23.37 C 179.96 23.76 180.01 24.53 180.04 24.92 C 179.02 25.45 178.47 26.28 178.39 27.42 C 177.92 29.17 177.35 30.89 176.77 32.61 C 177.79 32.49 178.82 32.39 179.86 32.28 C 180.19 32.43 180.85 32.72 181.18 32.87 C 180.14 35.12 179.64 37.55 179.16 39.97 C 179.17 40.53 179.20 41.66 179.22 42.22 C 179.79 44.10 180.38 45.97 181.07 47.81 C 180.20 47.92 178.48 48.13 177.61 48.23 C 176.28 40.46 176.38 32.49 175.07 24.74 C 174.94 24.41 174.68 23.75 174.55 23.42 C 174.34 22.95 173.91 22.01 173.70 21.54 Z" />
</g>
<g id="#565148ff">
<path fill="#565148" opacity="1.00" d=" M 36.76 13.01 C 38.38 13.33 39.89 13.12 41.31 12.37 C 41.31 14.46 41.35 16.56 41.62 18.63 L 40.42 18.33 C 41.51 16.32 38.63 15.85 38.75 18.06 C 38.28 18.20 37.36 18.47 36.90 18.60 C 36.86 16.74 36.81 14.87 36.76 13.01 Z" />
</g>
<g id="#505251ff">
<path fill="#505251" opacity="1.00" d=" M 92.72 13.02 C 94.34 13.35 95.85 13.14 97.26 12.38 C 97.24 14.14 97.42 15.90 97.83 17.61 C 97.13 17.91 95.74 18.52 95.04 18.83 C 94.57 18.95 93.63 19.18 93.16 19.30 C 92.97 17.21 92.84 15.11 92.72 13.02 Z" />
<path fill="#505251" opacity="1.00" d=" M 204.72 13.02 C 206.34 13.35 207.85 13.14 209.26 12.38 C 209.24 14.14 209.42 15.90 209.83 17.60 C 209.13 17.91 207.73 18.52 207.04 18.83 C 206.57 18.94 205.63 19.18 205.16 19.30 C 204.97 17.21 204.83 15.11 204.72 13.02 Z" />
</g>
<g id="#515455ff">
<path fill="#515455" opacity="1.00" d=" M 148.55 13.21 C 150.15 13.33 151.68 13.02 153.12 12.27 C 153.21 13.73 153.46 15.18 153.84 16.59 C 153.14 16.90 151.76 17.52 151.06 17.83 C 150.59 17.96 149.65 18.21 149.18 18.34 C 148.99 16.63 148.79 14.91 148.55 13.21 Z" />
</g>
<g id="#322e2aff">
<path fill="#322e2a" opacity="1.00" d=" M 15.82 15.64 C 17.22 15.05 18.64 14.49 20.08 13.99 C 20.15 15.75 20.22 17.51 20.35 19.27 C 19.11 19.55 17.88 19.80 16.64 20.03 C 16.11 20.07 15.06 20.15 14.53 20.20 C 14.98 18.68 15.37 17.15 15.82 15.64 Z" />
</g>
<g id="#4679c9ff">
<path fill="#4679c9" opacity="1.00" d=" M 142.03 15.14 C 143.10 15.68 144.17 16.21 145.23 16.76 C 145.83 17.48 146.42 18.22 146.99 18.97 C 146.79 19.22 146.38 19.72 146.18 19.97 C 148.74 19.89 151.36 19.93 153.92 19.57 C 153.86 20.23 153.76 21.55 153.71 22.21 C 152.34 23.19 151.02 24.34 149.41 24.91 C 146.45 24.37 143.47 23.64 140.50 24.85 C 136.61 25.55 131.44 29.02 128.33 24.84 C 127.80 24.39 126.74 23.49 126.21 23.05 C 126.32 22.69 126.54 21.99 126.64 21.64 C 132.88 23.10 139.22 22.21 145.23 20.24 C 144.27 19.35 143.28 18.48 142.28 17.63 C 140.95 18.18 139.61 18.71 138.26 19.20 L 138.71 18.71 L 139.17 18.14 C 140.05 17.08 141.05 16.12 142.03 15.14 Z" />
</g>
<g id="#3a7dcfff">
<path fill="#3a7dcf" opacity="1.00" d=" M 154.19 17.34 C 154.13 15.99 154.82 15.29 156.26 15.25 C 156.19 15.65 156.06 16.46 156.00 16.86 C 155.54 16.98 154.64 17.22 154.19 17.34 Z" />
<path fill="#3a7dcf" opacity="1.00" d=" M 98.13 18.35 C 97.95 16.92 98.58 16.22 100.02 16.25 C 99.97 16.65 99.87 17.45 99.83 17.86 C 99.40 17.98 98.56 18.22 98.13 18.35 Z" />
<path fill="#3a7dcf" opacity="1.00" d=" M 210.13 18.35 C 209.95 16.92 210.58 16.22 212.02 16.25 C 211.97 16.65 211.87 17.45 211.83 17.86 C 211.40 17.98 210.56 18.22 210.13 18.35 Z" />
<path fill="#3a7dcf" opacity="1.00" d=" M 42.00 19.39 C 41.91 18.02 42.59 17.34 44.01 17.34 C 43.96 17.74 43.86 18.53 43.81 18.93 C 43.35 19.04 42.45 19.27 42.00 19.39 Z" />
</g>
<g id="#8d9fbaff">
<path fill="#8d9fba" opacity="1.00" d=" M 156.26 15.25 C 156.63 15.19 157.36 15.08 157.73 15.03 C 158.23 15.87 158.57 16.77 158.77 17.74 L 158.27 18.09 L 157.51 18.19 C 157.13 17.86 156.37 17.19 156.00 16.86 C 156.06 16.46 156.19 15.65 156.26 15.25 Z" />
<path fill="#8d9fba" opacity="1.00" d=" M 100.02 16.25 C 100.36 16.29 101.05 16.38 101.39 16.42 C 102.10 17.09 102.59 17.89 102.87 18.82 L 102.33 19.17 L 101.49 19.29 C 101.08 18.93 100.24 18.21 99.83 17.86 C 99.87 17.45 99.97 16.65 100.02 16.25 Z" />
<path fill="#8d9fba" opacity="1.00" d=" M 212.02 16.25 C 212.36 16.29 213.05 16.38 213.39 16.42 C 214.10 17.08 214.59 17.88 214.87 18.82 L 214.33 19.16 L 213.50 19.28 C 213.08 18.93 212.24 18.21 211.83 17.86 C 211.87 17.45 211.97 16.65 212.02 16.25 Z" />
<path fill="#8d9fba" opacity="1.00" d=" M 44.01 17.34 C 44.36 17.34 45.07 17.34 45.42 17.35 C 46.10 18.04 46.58 18.86 46.86 19.80 L 46.33 20.14 L 45.50 20.24 C 45.07 19.91 44.23 19.26 43.81 18.93 C 43.86 18.53 43.96 17.74 44.01 17.34 Z" />
</g>
<g id="#3e84ceff">
<path fill="#3e84ce" opacity="1.00" d=" M 157.73 15.03 L 158.73 15.40 C 160.57 16.01 162.43 16.55 164.34 16.92 C 162.46 17.03 160.59 17.27 158.77 17.74 C 158.57 16.77 158.23 15.87 157.73 15.03 Z" />
<path fill="#3e84ce" opacity="1.00" d=" M 101.39 16.42 C 101.89 16.57 102.88 16.86 103.38 17.00 C 103.96 17.05 105.11 17.15 105.69 17.21 C 106.56 17.42 107.44 17.63 108.32 17.84 C 106.48 18.02 104.65 18.32 102.87 18.82 C 102.59 17.89 102.10 17.09 101.39 16.42 Z" />
<path fill="#3e84ce" opacity="1.00" d=" M 213.39 16.42 C 213.89 16.56 214.88 16.85 215.38 17.00 C 215.95 17.05 217.10 17.17 217.68 17.22 C 218.57 17.43 219.47 17.62 220.37 17.82 C 218.51 18.01 216.67 18.32 214.87 18.82 C 214.59 17.88 214.10 17.08 213.39 16.42 Z" />
<path fill="#3e84ce" opacity="1.00" d=" M 45.42 17.35 C 46.09 17.40 47.43 17.51 48.10 17.56 C 48.54 17.68 49.42 17.90 49.87 18.02 C 50.34 18.18 51.30 18.51 51.78 18.68 L 52.27 18.95 C 50.44 19.05 48.63 19.35 46.86 19.80 C 46.58 18.86 46.10 18.04 45.42 17.35 Z" />
</g>
<g id="#4578caff">
<path fill="#4578ca" opacity="1.00" d=" M 86.15 16.31 L 86.64 15.71 C 87.30 16.70 88.22 17.38 89.39 17.75 C 89.89 18.47 90.38 19.20 90.86 19.94 C 90.70 20.21 90.36 20.74 90.20 21.00 C 92.72 20.90 95.30 20.96 97.82 20.60 C 97.82 21.33 97.82 22.79 97.82 23.52 C 90.06 25.43 81.84 25.16 74.56 28.81 C 74.88 27.79 75.19 26.78 75.49 25.76 C 74.54 25.56 73.59 25.36 72.64 25.18 C 71.97 25.01 70.64 24.67 69.97 24.50 C 70.19 24.07 70.62 23.20 70.84 22.77 C 76.90 24.00 82.98 23.19 88.81 21.27 C 88.66 20.61 88.52 19.96 88.38 19.30 C 87.09 18.88 85.77 18.55 84.46 18.20 C 85.06 17.60 85.62 16.97 86.15 16.31 Z" />
</g>
<g id="#508bc7ff">
<path fill="#508bc7" opacity="1.00" d=" M 165.21 17.09 C 165.67 15.80 166.55 15.45 167.87 16.04 L 167.86 16.75 C 167.20 16.84 165.88 17.01 165.21 17.09 Z" />
<path fill="#508bc7" opacity="1.00" d=" M 109.19 18.01 C 109.67 16.71 110.56 16.40 111.87 17.10 L 111.86 17.81 C 111.19 17.86 109.86 17.96 109.19 18.01 Z" />
<path fill="#508bc7" opacity="1.00" d=" M 221.27 17.99 C 221.77 16.70 222.68 16.38 224.00 17.03 L 224.00 17.71 C 223.32 17.78 221.95 17.92 221.27 17.99 Z" />
</g>
<g id="#4376c9ff">
<path fill="#4376c9" opacity="1.00" d=" M 198.15 16.31 L 198.64 15.71 C 199.30 16.70 200.21 17.38 201.39 17.75 C 201.89 18.47 202.38 19.20 202.87 19.94 C 202.70 20.21 202.36 20.74 202.19 21.00 C 204.72 20.91 207.33 20.94 209.86 20.58 C 209.25 21.69 209.38 22.63 210.25 23.39 C 211.92 23.50 211.30 21.11 210.48 20.44 C 211.48 20.06 212.49 19.67 213.50 19.28 L 214.33 19.16 C 213.49 19.72 212.66 20.28 211.84 20.85 C 215.89 20.95 219.95 21.04 224.00 20.74 L 224.00 28.04 C 221.86 30.08 217.42 31.11 217.93 34.77 C 219.30 36.57 221.20 37.85 223.02 39.15 C 218.01 38.10 212.84 37.47 208.38 34.77 C 208.57 33.93 208.76 33.09 208.92 32.24 C 210.98 33.13 213.08 33.91 215.12 34.82 C 215.69 32.78 216.63 30.88 217.58 29.00 C 210.53 26.14 202.73 27.36 195.34 27.64 C 197.65 26.36 200.06 25.26 202.37 23.96 C 195.81 24.69 189.99 29.16 183.20 27.77 C 183.55 27.00 183.91 26.23 184.27 25.46 C 183.74 25.17 182.68 24.58 182.15 24.29 C 182.33 23.91 182.69 23.15 182.87 22.77 C 188.93 24.01 194.99 23.17 200.81 21.29 C 200.66 20.63 200.52 19.96 200.38 19.30 C 199.09 18.88 197.77 18.55 196.46 18.20 C 197.05 17.60 197.62 16.97 198.15 16.31 Z" />
</g>
<g id="#4377c9fe">
<path fill="#4377c9" opacity="1.00" d=" M 30.02 17.28 L 30.54 16.66 C 31.36 17.38 32.21 18.08 33.08 18.74 C 33.75 19.40 34.42 20.07 35.07 20.75 C 34.83 21.06 34.34 21.67 34.10 21.98 C 36.68 21.89 39.29 21.93 41.86 21.58 C 41.25 22.70 41.38 23.64 42.25 24.40 C 43.92 24.50 43.31 22.12 42.48 21.45 C 43.49 21.05 44.49 20.65 45.50 20.24 L 46.33 20.14 C 45.50 20.70 44.66 21.27 43.83 21.85 C 47.90 22.04 51.97 22.00 56.02 21.61 C 56.04 22.11 56.07 23.11 56.09 23.62 C 56.03 25.10 55.96 26.58 55.90 28.06 C 55.89 28.40 55.87 29.08 55.86 29.42 C 53.59 31.12 49.34 32.19 49.93 35.78 C 51.31 37.57 53.20 38.85 55.02 40.15 C 50.02 39.10 44.84 38.47 40.38 35.77 C 40.58 34.93 40.76 34.08 40.92 33.24 C 42.96 34.13 45.05 34.90 47.08 35.81 C 48.90 33.25 48.90 30.36 46.71 28.04 C 47.49 27.71 48.26 27.37 49.04 27.04 C 44.08 27.20 39.15 27.98 34.19 27.78 C 35.06 30.77 36.23 33.73 38.55 35.91 C 36.33 36.05 34.18 36.47 32.10 37.18 C 30.43 38.85 30.42 41.42 29.97 43.61 C 29.47 43.68 28.47 43.81 27.97 43.87 C 27.87 41.88 27.33 39.82 27.79 37.84 C 29.19 35.37 31.89 34.10 34.12 32.51 C 33.43 30.71 32.76 28.88 32.46 26.97 C 27.04 27.47 21.60 27.17 16.18 27.28 C 15.73 26.17 15.29 25.06 14.92 23.93 C 20.97 24.88 27.00 24.20 32.80 22.28 C 32.65 21.63 32.51 20.97 32.40 20.31 C 31.08 19.87 29.74 19.51 28.40 19.14 C 28.97 18.55 29.51 17.93 30.02 17.28 Z" />
</g>
<g id="#719bc2ff">
<path fill="#719bc2" opacity="1.00" d=" M 51.78 18.68 C 52.46 16.77 54.85 16.75 55.98 18.24 L 55.97 18.86 C 54.75 19.13 53.51 19.16 52.27 18.95 L 51.78 18.68 Z" />
</g>
<g id="#2c88d4ff">
<path fill="#2c88d4" opacity="1.00" d=" M 125.78 17.24 L 126.31 17.28 C 126.97 17.35 128.29 17.48 128.96 17.55 C 131.04 17.84 133.13 18.12 135.23 18.37 C 136.38 18.52 137.55 18.62 138.71 18.71 L 138.26 19.20 C 134.48 20.52 129.66 18.57 126.64 21.64 C 126.54 21.99 126.32 22.69 126.21 23.05 C 126.74 23.49 127.80 24.39 128.33 24.84 C 127.56 26.88 126.67 28.89 126.19 31.02 C 125.95 30.78 125.49 30.30 125.26 30.06 C 124.40 29.23 123.55 28.40 122.70 27.58 C 123.17 26.24 123.58 24.88 124.07 23.54 L 124.43 22.57 C 125.32 21.77 125.63 20.81 125.36 19.69 C 125.47 19.07 125.68 17.85 125.78 17.24 Z" />
</g>
<g id="#8fa8baff">
<path fill="#8fa8ba" opacity="1.00" d=" M 128.96 17.55 C 130.41 17.51 131.85 17.39 133.30 17.27 C 133.79 17.55 134.75 18.10 135.23 18.37 C 133.13 18.12 131.04 17.84 128.96 17.55 Z" />
<path fill="#8fa8ba" opacity="1.00" d=" M 72.59 18.94 C 73.86 18.78 75.13 18.60 76.39 18.39 C 77.44 18.71 78.49 19.02 79.54 19.32 C 77.22 19.23 74.90 19.10 72.59 18.94 Z" />
<path fill="#8fa8ba" opacity="1.00" d=" M 184.59 18.94 C 185.86 18.78 187.13 18.60 188.39 18.39 C 189.44 18.71 190.49 19.02 191.54 19.32 C 189.22 19.23 186.90 19.10 184.59 18.94 Z" />
<path fill="#8fa8ba" opacity="1.00" d=" M 16.64 20.03 C 17.88 19.80 19.11 19.55 20.35 19.27 C 21.41 19.59 22.48 19.92 23.55 20.26 C 21.24 20.22 18.94 20.15 16.64 20.03 Z" />
</g>
<g id="#64569dff">
<path fill="#64569d" opacity="1.00" d=" M 138.26 19.20 C 139.61 18.71 140.95 18.18 142.28 17.63 C 143.28 18.48 144.27 19.35 145.23 20.24 C 139.22 22.21 132.88 23.10 126.64 21.64 C 129.66 18.57 134.48 20.52 138.26 19.20 Z" />
</g>
<g id="#86a0b1ff">
<path fill="#86a0b1" opacity="1.00" d=" M 151.06 17.83 C 151.76 17.52 153.14 16.90 153.84 16.59 L 154.19 17.34 C 153.26 18.08 152.22 18.24 151.06 17.83 Z" />
<path fill="#86a0b1" opacity="1.00" d=" M 95.04 18.83 C 95.74 18.52 97.13 17.91 97.83 17.61 L 98.13 18.35 C 97.21 19.10 96.18 19.26 95.04 18.83 Z" />
<path fill="#86a0b1" opacity="1.00" d=" M 207.04 18.83 C 207.73 18.52 209.13 17.91 209.83 17.60 L 210.13 18.35 C 209.21 19.10 208.17 19.26 207.04 18.83 Z" />
<path fill="#86a0b1" opacity="1.00" d=" M 39.44 18.68 L 40.42 18.33 L 41.62 18.63 L 42.00 19.39 C 41.09 19.79 40.16 19.85 39.23 19.56 L 39.44 18.68 Z" />
<path fill="#86a0b1" opacity="1.00" d=" M 153.92 19.57 L 154.54 19.38 C 155.27 20.55 155.28 21.74 154.58 22.95 C 154.36 22.76 153.93 22.39 153.71 22.21 C 153.76 21.55 153.86 20.23 153.92 19.57 Z" />
<path fill="#86a0b1" opacity="1.00" d=" M 97.82 20.60 L 98.45 20.39 C 99.19 21.23 99.40 22.20 99.09 23.29 C 98.77 23.35 98.14 23.46 97.82 23.52 C 97.82 22.79 97.82 21.33 97.82 20.60 Z" />
<path fill="#86a0b1" opacity="1.00" d=" M 209.86 20.58 L 210.48 20.44 C 211.30 21.11 211.92 23.50 210.25 23.39 C 209.38 22.63 209.25 21.69 209.86 20.58 Z" />
<path fill="#86a0b1" opacity="1.00" d=" M 41.86 21.58 L 42.48 21.45 C 43.31 22.12 43.92 24.50 42.25 24.40 C 41.38 23.64 41.25 22.70 41.86 21.58 Z" />
<path fill="#86a0b1" opacity="1.00" d=" M 66.48 27.46 C 66.53 26.31 67.06 25.46 68.07 24.90 C 67.83 25.64 67.37 27.12 67.14 27.86 L 66.48 27.46 Z" />
<path fill="#86a0b1" opacity="1.00" d=" M 178.39 27.42 C 178.47 26.28 179.02 25.45 180.04 24.92 C 179.79 25.65 179.29 27.11 179.04 27.84 L 178.39 27.42 Z" />
<path fill="#86a0b1" opacity="1.00" d=" M 123.93 32.33 C 124.26 31.76 124.93 30.63 125.26 30.06 C 125.49 30.30 125.95 30.78 126.19 31.02 L 126.19 31.74 C 125.94 31.99 125.44 32.50 125.20 32.75 C 124.88 32.65 124.25 32.43 123.93 32.33 Z" />
<path fill="#86a0b1" opacity="1.00" d=" M 124.00 51.02 C 124.42 50.81 125.28 50.41 125.70 50.20 C 126.56 51.29 125.29 53.17 124.10 51.91 L 124.00 51.02 Z" />
</g>
<g id="#63579eff">
<path fill="#63579e" opacity="1.00" d=" M 154.19 17.34 C 154.64 17.22 155.54 16.98 156.00 16.86 C 156.37 17.19 157.13 17.86 157.51 18.19 C 156.52 18.59 155.53 18.98 154.54 19.38 L 153.92 19.57 C 151.36 19.93 148.74 19.89 146.18 19.97 C 146.38 19.72 146.79 19.22 146.99 18.97 C 147.54 18.81 148.63 18.50 149.18 18.34 C 149.65 18.21 150.59 17.96 151.06 17.83 C 152.22 18.24 153.26 18.08 154.19 17.34 Z" />
<path fill="#63579e" opacity="1.00" d=" M 98.13 18.35 C 98.56 18.22 99.40 17.98 99.83 17.86 C 100.24 18.21 101.08 18.93 101.49 19.29 C 100.47 19.65 99.46 20.01 98.45 20.39 L 97.82 20.60 C 95.30 20.96 92.72 20.90 90.20 21.00 C 90.36 20.74 90.70 20.21 90.86 19.94 C 91.44 19.78 92.58 19.46 93.16 19.30 C 93.63 19.18 94.57 18.95 95.04 18.83 C 96.18 19.26 97.21 19.10 98.13 18.35 Z" />
<path fill="#63579e" opacity="1.00" d=" M 210.13 18.35 C 210.56 18.22 211.40 17.98 211.83 17.86 C 212.24 18.21 213.08 18.93 213.50 19.28 C 212.49 19.67 211.48 20.06 210.48 20.44 L 209.86 20.58 C 207.33 20.94 204.72 20.91 202.19 21.00 C 202.36 20.74 202.70 20.21 202.87 19.94 C 203.44 19.78 204.58 19.46 205.16 19.30 C 205.63 19.18 206.57 18.94 207.04 18.83 C 208.17 19.26 209.21 19.10 210.13 18.35 Z" />
<path fill="#63579e" opacity="1.00" d=" M 42.00 19.39 C 42.45 19.27 43.35 19.04 43.81 18.93 C 44.23 19.26 45.07 19.91 45.50 20.24 C 44.49 20.65 43.49 21.05 42.48 21.45 L 41.86 21.58 C 39.29 21.93 36.68 21.89 34.10 21.98 C 34.34 21.67 34.83 21.06 35.07 20.75 C 35.64 20.60 36.78 20.31 37.36 20.16 C 37.82 20.01 38.76 19.71 39.23 19.56 C 40.16 19.85 41.09 19.79 42.00 19.39 Z" />
</g>
<g id="#65569cff">
<path fill="#65569c" opacity="1.00" d=" M 158.77 17.74 C 160.59 17.27 162.46 17.03 164.34 16.92 L 165.21 17.09 C 165.88 17.01 167.20 16.84 167.86 16.75 C 167.89 17.58 167.93 19.22 167.95 20.04 C 163.93 19.95 159.90 19.90 155.88 19.86 C 156.67 19.27 157.47 18.67 158.27 18.09 L 158.77 17.74 Z" />
<path fill="#65569c" opacity="1.00" d=" M 102.87 18.82 C 104.65 18.32 106.48 18.02 108.32 17.84 L 109.19 18.01 C 109.86 17.96 111.19 17.86 111.86 17.81 C 111.88 18.62 111.93 20.24 111.95 21.05 C 107.92 20.92 103.89 20.94 99.86 20.84 C 100.67 20.27 101.50 19.72 102.33 19.17 L 102.87 18.82 Z" />
<path fill="#65569c" opacity="1.00" d=" M 214.87 18.82 C 216.67 18.32 218.51 18.01 220.37 17.82 L 221.27 17.99 C 221.95 17.92 223.32 17.78 224.00 17.71 L 224.00 20.74 C 219.95 21.04 215.89 20.95 211.84 20.85 C 212.66 20.28 213.49 19.72 214.33 19.16 L 214.87 18.82 Z" />
<path fill="#65569c" opacity="1.00" d=" M 46.86 19.80 C 48.63 19.35 50.44 19.05 52.27 18.95 C 53.51 19.16 54.75 19.13 55.97 18.86 C 55.98 19.42 56.00 20.53 56.01 21.08 L 56.02 21.61 C 51.97 22.00 47.90 22.04 43.83 21.85 C 44.66 21.27 45.50 20.70 46.33 20.14 L 46.86 19.80 Z" />
</g>
<g id="#3d7bceff">
<path fill="#3d7bce" opacity="1.00" d=" M 36.90 18.60 C 37.36 18.47 38.28 18.20 38.75 18.06 L 39.44 18.68 L 39.23 19.56 C 38.76 19.71 37.82 20.01 37.36 20.16 C 37.24 19.77 37.01 18.99 36.90 18.60 Z" />
</g>
<g id="#675a9dff">
<path fill="#675a9d" opacity="1.00" d=" M 84.46 18.20 C 85.77 18.55 87.09 18.88 88.38 19.30 C 88.52 19.96 88.66 20.61 88.81 21.27 C 82.98 23.19 76.90 24.00 70.84 22.77 C 70.96 22.49 71.21 21.94 71.33 21.66 C 75.34 20.59 80.59 22.07 83.82 18.73 L 84.46 18.20 Z" />
<path fill="#675a9d" opacity="1.00" d=" M 196.46 18.20 C 197.77 18.55 199.09 18.88 200.38 19.30 C 200.52 19.96 200.66 20.63 200.81 21.29 C 194.99 23.17 188.93 24.01 182.87 22.77 C 182.98 22.49 183.20 21.94 183.31 21.66 C 187.32 20.60 192.59 22.06 195.82 18.73 L 196.46 18.20 Z" />
<path fill="#675a9d" opacity="1.00" d=" M 28.40 19.14 C 29.74 19.51 31.08 19.87 32.40 20.31 C 32.51 20.97 32.65 21.63 32.80 22.28 C 27.00 24.20 20.97 24.88 14.92 23.93 C 14.96 23.59 15.04 22.92 15.08 22.59 C 19.12 21.48 24.61 23.23 27.79 19.67 L 28.40 19.14 Z" />
</g>
<g id="#4476caff">
<path fill="#4476ca" opacity="1.00" d=" M 154.54 19.38 C 155.53 18.98 156.52 18.59 157.51 18.19 L 158.27 18.09 C 157.47 18.67 156.67 19.27 155.88 19.86 C 159.90 19.90 163.93 19.95 167.95 20.04 L 168.00 21.09 L 168.04 21.66 C 168.06 22.16 168.11 23.16 168.14 23.66 C 168.11 24.27 168.07 25.48 168.04 26.08 C 164.04 25.99 160.04 25.70 156.20 24.51 C 155.79 24.12 154.98 23.34 154.58 22.95 C 155.28 21.74 155.27 20.55 154.54 19.38 Z" />
</g>
<g id="#3084cfff">
<path fill="#3084cf" opacity="1.00" d=" M 69.87 19.16 L 70.58 19.07 C 71.08 19.03 72.09 18.97 72.59 18.94 C 74.90 19.10 77.22 19.23 79.54 19.32 C 80.67 19.23 81.80 19.10 82.92 18.94 L 83.82 18.73 C 80.59 22.07 75.34 20.59 71.33 21.66 C 71.21 21.94 70.96 22.49 70.84 22.77 C 70.62 23.20 70.19 24.07 69.97 24.50 C 70.64 24.67 71.97 25.01 72.64 25.18 C 71.61 26.93 70.65 28.78 70.39 30.83 C 70.04 30.40 69.33 29.54 68.97 29.10 C 68.51 28.79 67.60 28.17 67.14 27.86 C 67.37 27.12 67.83 25.64 68.07 24.90 C 68.03 24.52 67.96 23.76 67.92 23.38 C 69.22 23.03 69.77 22.12 69.56 20.65 L 69.72 19.87 L 69.87 19.16 Z" />
</g>
<g id="#4277c9ff">
<path fill="#4277c9" opacity="1.00" d=" M 98.45 20.39 C 99.46 20.01 100.47 19.65 101.49 19.29 L 102.33 19.17 C 101.50 19.72 100.67 20.27 99.86 20.84 C 103.89 20.94 107.92 20.92 111.95 21.05 L 112.00 21.61 C 112.04 22.11 112.11 23.10 112.15 23.59 C 112.06 25.04 111.97 26.48 111.88 27.93 L 111.87 28.50 C 109.89 29.66 107.76 30.68 106.18 32.39 C 104.81 35.76 108.96 37.37 111.02 39.15 C 106.02 38.10 100.84 37.47 96.38 34.77 C 96.58 33.93 96.76 33.09 96.92 32.24 C 98.98 33.13 101.08 33.91 103.13 34.83 C 103.65 32.84 104.58 31.00 105.49 29.17 C 102.59 28.18 99.68 27.23 96.79 26.22 L 102.44 25.47 C 101.31 24.76 100.18 24.06 99.09 23.29 C 99.40 22.20 99.19 21.23 98.45 20.39 Z" />
</g>
<g id="#3185cfff">
<path fill="#3185cf" opacity="1.00" d=" M 181.87 19.16 L 182.58 19.07 C 183.08 19.03 184.09 18.97 184.59 18.94 C 186.90 19.10 189.22 19.23 191.54 19.32 C 192.67 19.23 193.80 19.10 194.92 18.94 L 195.82 18.73 C 192.59 22.06 187.32 20.60 183.31 21.66 C 183.20 21.94 182.98 22.49 182.87 22.77 C 182.69 23.15 182.33 23.91 182.15 24.29 C 182.68 24.58 183.74 25.17 184.27 25.46 C 183.91 26.23 183.55 27.00 183.20 27.77 C 182.82 28.79 182.55 29.85 182.39 30.92 C 182.12 30.64 181.58 30.08 181.31 29.80 C 180.74 29.31 179.61 28.33 179.04 27.84 C 179.29 27.11 179.79 25.65 180.04 24.92 C 180.01 24.53 179.96 23.76 179.94 23.37 C 181.23 23.02 181.77 22.11 181.57 20.64 L 181.73 19.87 L 181.87 19.16 Z" />
</g>
<g id="#65955fff">
<path fill="#65955f" opacity="1.00" d=" M 0.00 21.29 C 0.89 20.45 3.10 19.52 3.57 21.23 C 3.04 22.67 1.09 22.16 0.00 21.79 L 0.00 21.29 Z" />
<path fill="#65955f" opacity="1.00" d=" M 56.01 21.08 C 56.95 20.25 59.14 19.64 59.55 21.31 C 59.00 22.75 57.05 22.04 56.02 21.61 L 56.01 21.08 Z" />
<path fill="#65955f" opacity="1.00" d=" M 111.95 21.05 C 112.94 20.29 115.02 19.69 115.55 21.27 C 115.03 22.76 113.04 22.04 112.00 21.61 L 111.95 21.05 Z" />
<path fill="#65955f" opacity="1.00" d=" M 168.00 21.09 C 168.95 20.29 171.11 19.63 171.55 21.29 C 171.03 22.73 169.07 22.06 168.04 21.66 L 168.00 21.09 Z" />
<path fill="#65955f" opacity="1.00" d=" M 0.00 49.27 C 0.89 48.44 3.11 47.52 3.57 49.24 C 3.03 50.67 1.09 50.15 0.00 49.78 L 0.00 49.27 Z" />
<path fill="#65955f" opacity="1.00" d=" M 56.07 49.18 C 56.95 48.31 59.13 47.60 59.55 49.27 C 59.08 50.71 57.13 50.13 56.10 49.74 L 56.07 49.18 Z" />
<path fill="#65955f" opacity="1.00" d=" M 112.06 49.18 C 112.94 48.30 115.13 47.60 115.55 49.27 C 115.07 50.71 113.13 50.13 112.10 49.74 L 112.06 49.18 Z" />
<path fill="#65955f" opacity="1.00" d=" M 168.00 49.17 C 168.91 48.33 171.11 47.59 171.54 49.27 C 171.04 50.71 169.10 50.10 168.06 49.73 L 168.00 49.17 Z" />
</g>
<g id="#6c5e4cff">
<path fill="#6c5e4c" opacity="1.00" d=" M 9.75 20.04 C 10.99 20.12 12.22 20.21 13.45 20.33 C 13.63 20.78 13.99 21.67 14.17 22.11 C 13.52 22.38 12.23 22.93 11.58 23.20 C 11.09 23.25 10.10 23.35 9.61 23.40 C 9.65 22.28 9.70 21.16 9.75 20.04 Z" />
<path fill="#6c5e4c" opacity="1.00" d=" M 9.62 48.26 C 10.48 48.14 12.21 47.91 13.07 47.79 C 13.32 48.48 13.82 49.86 14.07 50.55 C 13.43 50.66 12.15 50.87 11.51 50.98 C 11.04 51.09 10.10 51.31 9.64 51.42 C 9.64 50.36 9.63 49.31 9.62 48.26 Z" />
<path fill="#6c5e4c" opacity="1.00" d=" M 65.61 48.23 C 66.48 48.13 68.20 47.92 69.07 47.81 C 69.32 48.48 69.81 49.81 70.06 50.47 C 69.50 50.71 68.37 51.18 67.80 51.41 C 67.27 51.39 66.19 51.36 65.66 51.35 C 65.64 50.31 65.63 49.27 65.61 48.23 Z" />
<path fill="#6c5e4c" opacity="1.00" d=" M 121.66 48.27 C 122.47 48.12 124.09 47.84 124.90 47.70 C 125.18 48.53 125.44 49.36 125.70 50.20 C 125.28 50.41 124.42 50.81 124.00 51.02 C 123.40 51.12 122.21 51.33 121.62 51.43 C 121.63 50.38 121.64 49.32 121.66 48.27 Z" />
<path fill="#6c5e4c" opacity="1.00" d=" M 177.61 48.23 C 178.48 48.13 180.20 47.92 181.07 47.81 C 181.31 48.48 181.81 49.81 182.06 50.47 C 181.50 50.71 180.37 51.18 179.80 51.41 C 179.27 51.39 178.19 51.36 177.66 51.35 C 177.64 50.31 177.63 49.27 177.61 48.23 Z" />
</g>
<g id="#3182cdff">
<path fill="#3182cd" opacity="1.00" d=" M 13.45 20.33 L 14.53 20.20 C 15.06 20.15 16.11 20.07 16.64 20.03 C 18.94 20.15 21.24 20.22 23.55 20.26 C 24.21 20.19 25.54 20.06 26.20 19.99 L 26.84 19.90 L 27.79 19.67 C 24.61 23.23 19.12 21.48 15.08 22.59 C 15.04 22.92 14.96 23.59 14.92 23.93 C 15.29 25.06 15.73 26.17 16.18 27.28 C 15.65 28.43 15.10 29.58 14.59 30.75 C 14.20 30.26 13.41 29.29 13.02 28.80 L 12.71 27.70 C 12.37 26.47 12.04 25.23 11.75 23.99 C 13.02 25.70 15.32 23.69 14.17 22.11 C 13.99 21.67 13.63 20.78 13.45 20.33 Z" />
</g>
<g id="#6e5f4cff">
<path fill="#6e5f4c" opacity="1.00" d=" M 65.77 20.21 C 67.09 20.10 68.41 19.99 69.72 19.87 L 69.56 20.65 C 68.16 21.15 67.61 22.06 67.92 23.38 C 67.35 23.34 66.20 23.28 65.62 23.25 C 65.67 22.24 65.72 21.23 65.77 20.21 Z" />
<path fill="#6e5f4c" opacity="1.00" d=" M 177.77 20.22 C 179.09 20.10 180.41 19.99 181.73 19.87 L 181.57 20.64 C 180.16 21.14 179.62 22.05 179.94 23.37 C 179.36 23.34 178.20 23.28 177.62 23.25 C 177.67 22.24 177.72 21.23 177.77 20.22 Z" />
</g>
<g id="#adc2d9ff">
<path fill="#adc2d9" opacity="1.00" d=" M 123.73 20.95 C 124.13 20.63 124.95 20.00 125.36 19.69 C 125.63 20.81 125.32 21.77 124.43 22.57 C 124.25 22.17 123.90 21.36 123.73 20.95 Z" />
<path fill="#adc2d9" opacity="1.00" d=" M 67.92 23.38 C 67.61 22.06 68.16 21.15 69.56 20.65 C 69.77 22.12 69.22 23.03 67.92 23.38 Z" />
<path fill="#adc2d9" opacity="1.00" d=" M 179.94 23.37 C 179.62 22.05 180.16 21.14 181.57 20.64 C 181.77 22.11 181.23 23.02 179.94 23.37 Z" />
</g>
<g id="#35312dff">
<path fill="#35312d" opacity="1.00" d=" M 117.69 21.56 C 119.67 22.63 121.86 23.18 124.07 23.54 C 123.58 24.88 123.17 26.24 122.70 27.58 C 122.07 29.26 121.34 30.90 120.67 32.56 C 121.76 32.48 122.84 32.40 123.93 32.33 C 124.25 32.43 124.88 32.65 125.20 32.75 C 124.15 35.03 123.64 37.49 123.24 39.95 C 122.93 41.04 123.00 42.11 123.43 43.16 C 123.91 44.68 124.40 46.19 124.90 47.70 C 124.09 47.84 122.47 48.12 121.66 48.27 C 120.26 40.48 120.38 32.50 119.06 24.74 C 118.94 24.41 118.68 23.75 118.56 23.43 C 118.34 22.96 117.91 22.03 117.69 21.56 Z" />
</g>
<g id="#9db4c9ff">
<path fill="#9db4c9" opacity="1.00" d=" M 11.58 23.20 C 12.23 22.93 13.52 22.38 14.17 22.11 C 15.32 23.69 13.02 25.70 11.75 23.99 L 11.58 23.20 Z" />
<path fill="#9db4c9" opacity="1.00" d=" M 11.51 50.98 C 12.15 50.87 13.43 50.66 14.07 50.55 C 14.18 50.94 14.41 51.71 14.53 52.10 L 14.18 52.77 C 13.56 52.51 12.32 51.99 11.70 51.73 L 11.51 50.98 Z" />
<path fill="#9db4c9" opacity="1.00" d=" M 67.80 51.41 C 68.37 51.18 69.50 50.71 70.06 50.47 C 70.18 50.92 70.43 51.80 70.55 52.24 L 70.39 53.06 C 69.76 52.85 68.50 52.41 67.87 52.19 L 67.80 51.41 Z" />
<path fill="#9db4c9" opacity="1.00" d=" M 179.80 51.41 C 180.37 51.18 181.50 50.71 182.06 50.47 C 182.18 50.92 182.43 51.80 182.55 52.24 L 182.39 53.07 C 181.76 52.85 180.50 52.41 179.87 52.19 L 179.80 51.41 Z" />
</g>
<g id="#3c6cbfff">
<path fill="#3c6cbf" opacity="1.00" d=" M 153.71 22.21 C 153.93 22.39 154.36 22.76 154.58 22.95 C 154.98 23.34 155.79 24.12 156.20 24.51 C 160.04 25.70 164.04 25.99 168.04 26.08 C 168.03 26.59 167.99 27.61 167.97 28.12 C 167.85 33.51 167.87 38.91 167.73 44.30 C 166.61 43.82 163.95 42.98 163.67 44.71 C 164.75 45.82 166.48 45.23 167.73 44.78 C 167.79 46.24 167.88 47.71 168.00 49.17 L 168.06 49.73 C 168.10 50.21 168.20 51.17 168.25 51.65 C 168.24 53.10 168.22 54.55 168.19 56.00 L 143.89 56.00 C 145.43 53.36 140.56 53.36 142.10 56.00 L 125.88 56.00 C 128.30 48.10 126.37 39.81 126.19 31.74 L 126.19 31.02 C 126.67 28.89 127.56 26.88 128.33 24.84 C 131.44 29.02 136.61 25.55 140.50 24.85 C 139.14 26.66 137.78 28.47 136.55 30.38 C 133.93 30.21 131.31 30.04 128.70 30.11 C 130.38 30.94 132.06 31.77 133.82 32.44 C 137.98 35.02 142.22 28.52 140.50 24.85 C 143.47 23.64 146.45 24.37 149.41 24.91 C 151.02 24.34 152.34 23.19 153.71 22.21 M 148.49 28.37 C 147.55 32.55 143.53 32.98 140.24 34.39 C 138.75 37.23 139.99 40.62 140.41 43.51 C 141.19 41.32 141.48 38.85 142.83 36.93 C 145.97 34.50 150.28 32.80 154.18 34.90 C 158.36 36.42 162.71 37.30 167.09 38.01 C 165.45 36.89 163.62 35.97 162.25 34.51 C 160.93 31.46 164.35 29.52 166.07 27.61 C 161.52 26.68 160.37 30.91 158.69 33.74 C 157.13 33.03 155.53 32.39 154.02 31.59 C 153.02 31.99 152.04 32.43 151.04 32.82 C 150.10 31.39 149.26 29.90 148.49 28.37 M 154.22 44.39 C 152.09 45.00 150.36 43.19 148.67 42.20 C 148.51 43.00 148.31 43.79 148.08 44.57 C 152.35 46.44 157.15 48.33 161.30 45.00 C 161.02 43.00 160.70 41.01 160.57 39.00 C 158.86 41.17 157.26 44.05 154.22 44.39 M 137.51 43.26 C 136.63 44.41 138.60 45.83 139.49 44.74 C 140.37 43.59 138.39 42.17 137.51 43.26 Z" />
<path fill="#3c6cbf" opacity="1.00" d=" M 97.82 23.52 C 98.14 23.46 98.77 23.35 99.09 23.29 C 100.18 24.06 101.31 24.76 102.44 25.47 L 96.79 26.22 C 99.68 27.23 102.59 28.18 105.49 29.17 C 104.58 31.00 103.65 32.84 103.13 34.83 C 101.08 33.91 98.98 33.13 96.92 32.24 C 96.76 33.09 96.58 33.93 96.38 34.77 C 100.84 37.47 106.02 38.10 111.02 39.15 C 108.96 37.37 104.81 35.76 106.18 32.39 C 107.76 30.68 109.89 29.66 111.87 28.50 C 111.82 34.04 111.91 39.59 111.98 45.13 C 109.32 45.03 106.66 44.95 104.00 44.91 C 103.67 42.87 103.47 40.80 103.16 38.75 C 102.33 40.57 101.43 42.36 100.76 44.25 C 95.98 44.55 91.10 42.01 86.56 44.58 C 91.08 45.04 95.43 46.37 99.81 47.45 C 103.85 46.89 107.86 45.98 111.99 46.02 C 112.01 46.81 112.04 48.39 112.06 49.18 L 112.10 49.74 C 112.13 50.21 112.19 51.17 112.22 51.64 C 112.22 53.09 112.21 54.55 112.19 56.00 L 69.60 56.00 C 69.80 55.27 70.19 53.80 70.39 53.06 L 70.55 52.24 C 71.73 45.42 70.36 38.48 70.35 31.61 L 70.39 30.83 C 70.65 28.78 71.61 26.93 72.64 25.18 C 73.59 25.36 74.54 25.56 75.49 25.76 C 75.19 26.78 74.88 27.79 74.56 28.81 C 81.84 25.16 90.06 25.43 97.82 23.52 M 84.49 26.30 C 83.08 28.49 88.22 28.97 87.87 26.70 C 87.26 25.50 85.40 25.41 84.49 26.30 M 90.71 27.90 C 91.93 32.06 88.21 33.79 85.09 35.23 C 81.67 36.60 84.54 41.29 84.31 43.47 C 85.20 38.37 89.43 34.87 94.72 34.78 C 93.08 32.86 92.27 30.46 92.18 27.95 C 91.81 27.94 91.08 27.91 90.71 27.90 Z" />
<path fill="#3c6cbf" opacity="1.00" d=" M 183.20 27.77 C 189.99 29.16 195.81 24.69 202.37 23.96 C 200.06 25.26 197.65 26.36 195.34 27.64 C 202.73 27.36 210.53 26.14 217.58 29.00 C 216.63 30.88 215.69 32.78 215.12 34.82 C 213.08 33.91 210.98 33.13 208.92 32.24 C 208.76 33.09 208.57 33.93 208.38 34.77 C 212.84 37.47 218.01 38.10 223.02 39.15 C 221.20 37.85 219.30 36.57 217.93 34.77 C 217.42 31.11 221.86 30.08 224.00 28.04 L 224.00 45.06 C 215.53 45.47 206.78 41.62 198.55 44.56 C 203.06 45.07 207.42 46.35 211.81 47.45 C 215.87 46.91 219.88 45.98 224.00 45.84 L 224.00 56.00 L 181.60 56.00 C 181.80 55.27 182.19 53.80 182.39 53.07 L 182.55 52.24 C 183.74 45.45 182.45 38.56 182.31 31.72 L 182.39 30.92 C 182.55 29.85 182.82 28.79 183.20 27.77 M 202.71 27.90 C 203.93 32.06 200.21 33.79 197.09 35.23 C 193.68 36.60 196.53 41.29 196.31 43.47 C 197.20 38.37 201.43 34.87 206.72 34.78 C 205.08 32.86 204.27 30.46 204.18 27.95 C 203.81 27.94 203.08 27.91 202.71 27.90 Z" />
</g>
<g id="#6d9a59ff">
<path fill="#6d9a59" opacity="1.00" d=" M 2.89 23.28 C 4.11 23.34 5.33 23.36 6.55 23.42 C 6.68 23.75 6.94 24.41 7.07 24.74 C 6.46 25.57 5.79 26.37 5.14 27.17 C 7.90 34.30 6.26 42.14 5.55 49.51 C 4.06 46.34 2.90 43.03 1.36 39.88 C 2.95 37.30 3.56 34.28 1.64 31.66 C 1.23 32.29 0.41 33.56 0.00 34.19 L 0.00 30.87 C 1.87 30.87 1.87 28.17 0.00 28.17 L 0.00 23.67 C 0.50 24.51 1.01 25.35 1.55 26.17 C 1.99 25.20 2.43 24.24 2.89 23.28 M 3.40 31.15 C 2.97 32.55 3.45 33.03 4.85 32.60 C 5.29 31.20 4.80 30.71 3.40 31.15 Z" />
</g>
<g id="#6d9a59fe">
<path fill="#6d9a59" opacity="1.00" d=" M 58.88 23.28 C 60.10 23.34 61.32 23.37 62.55 23.42 C 62.68 23.75 62.94 24.41 63.07 24.74 C 62.46 25.57 61.79 26.36 61.14 27.17 C 63.90 34.29 62.26 42.13 61.56 49.48 C 60.21 46.51 58.55 43.62 57.85 40.42 C 57.95 37.64 59.08 34.96 58.65 32.15 C 59.49 32.33 60.33 32.49 61.17 32.65 C 59.44 31.09 57.65 29.60 55.90 28.06 C 55.96 26.58 56.03 25.10 56.09 23.62 C 56.56 24.47 57.04 25.33 57.54 26.17 C 57.99 25.21 58.42 24.24 58.88 23.28 Z" />
<path fill="#6d9a59" opacity="1.00" d=" M 114.88 23.28 C 116.10 23.34 117.33 23.36 118.56 23.43 C 118.68 23.75 118.94 24.41 119.06 24.74 C 118.45 25.58 117.79 26.37 117.14 27.17 C 119.89 34.29 118.28 42.14 117.54 49.49 C 116.05 46.38 114.93 43.10 113.46 39.98 C 114.51 37.50 114.94 34.83 114.64 32.15 C 115.48 32.33 116.32 32.50 117.17 32.67 C 115.42 31.07 113.60 29.55 111.88 27.93 C 111.97 26.48 112.06 25.04 112.15 23.59 C 112.59 24.46 113.05 25.33 113.53 26.19 C 113.97 25.21 114.42 24.24 114.88 23.28 Z" />
<path fill="#6d9a59" opacity="1.00" d=" M 170.89 23.28 C 172.11 23.34 173.32 23.37 174.55 23.42 C 174.68 23.75 174.94 24.41 175.07 24.74 C 174.46 25.57 173.79 26.37 173.14 27.17 C 175.90 34.29 174.26 42.13 173.56 49.48 C 172.21 46.51 170.55 43.62 169.85 40.42 C 169.95 37.64 171.08 34.96 170.65 32.15 C 171.49 32.33 172.33 32.50 173.18 32.66 C 171.47 31.11 169.70 29.64 167.97 28.12 C 167.99 27.61 168.03 26.59 168.04 26.08 C 168.07 25.48 168.11 24.27 168.14 23.66 C 168.59 24.50 169.05 25.34 169.53 26.17 C 169.98 25.21 170.43 24.24 170.89 23.28 Z" />
</g>
<g id="#465943ff">
<path fill="#465943" opacity="1.00" d=" M 7.07 24.74 C 8.38 32.50 8.28 40.47 9.62 48.26 C 9.63 49.31 9.64 50.36 9.64 51.42 C 8.31 50.71 6.94 50.09 5.55 49.51 C 6.26 42.14 7.90 34.30 5.14 27.17 C 5.79 26.37 6.46 25.57 7.07 24.74 Z" />
<path fill="#465943" opacity="1.00" d=" M 63.07 24.74 C 64.38 32.49 64.28 40.46 65.61 48.23 C 65.63 49.27 65.64 50.31 65.66 51.35 C 64.28 50.75 62.94 50.08 61.56 49.48 C 62.26 42.13 63.90 34.29 61.14 27.17 C 61.79 26.36 62.46 25.57 63.07 24.74 Z" />
<path fill="#465943" opacity="1.00" d=" M 119.06 24.74 C 120.38 32.50 120.26 40.48 121.66 48.27 C 121.64 49.32 121.63 50.38 121.62 51.43 C 120.28 50.73 118.91 50.10 117.54 49.49 C 118.28 42.14 119.89 34.29 117.14 27.17 C 117.79 26.37 118.45 25.58 119.06 24.74 Z" />
<path fill="#465943" opacity="1.00" d=" M 175.07 24.74 C 176.38 32.49 176.28 40.46 177.61 48.23 C 177.63 49.27 177.64 50.31 177.66 51.35 C 176.28 50.75 174.94 50.08 173.56 49.48 C 174.26 42.13 175.90 34.29 173.14 27.17 C 173.79 26.37 174.46 25.57 175.07 24.74 Z" />
</g>
<g id="#437acbfe">
<path fill="#437acb" opacity="1.00" d=" M 84.49 26.30 C 85.40 25.41 87.26 25.50 87.87 26.70 C 88.22 28.97 83.08 28.49 84.49 26.30 Z" />
</g>
<g id="#4475caff">
<path fill="#4475ca" opacity="1.00" d=" M 140.50 24.85 C 142.22 28.52 137.98 35.02 133.82 32.44 C 132.06 31.77 130.38 30.94 128.70 30.11 C 131.31 30.04 133.93 30.21 136.55 30.38 C 137.78 28.47 139.14 26.66 140.50 24.85 Z" />
</g>
<g id="#3c6bbefe">
<path fill="#3c6bbe" opacity="1.00" d=" M 14.59 30.75 C 15.10 29.58 15.65 28.43 16.18 27.28 C 21.60 27.17 27.04 27.47 32.46 26.97 C 32.76 28.88 33.43 30.71 34.12 32.51 C 31.89 34.10 29.19 35.37 27.79 37.84 C 27.33 39.82 27.87 41.88 27.97 43.87 C 28.47 43.81 29.47 43.68 29.97 43.61 C 30.42 41.42 30.43 38.85 32.10 37.18 C 34.18 36.47 36.33 36.05 38.55 35.91 C 36.23 33.73 35.06 30.77 34.19 27.78 C 39.15 27.98 44.08 27.20 49.04 27.04 C 48.26 27.37 47.49 27.71 46.71 28.04 C 48.90 30.36 48.90 33.25 47.08 35.81 C 45.05 34.90 42.96 34.13 40.92 33.24 C 40.76 34.08 40.58 34.93 40.38 35.77 C 44.84 38.47 50.02 39.10 55.02 40.15 C 53.20 38.85 51.31 37.57 49.93 35.78 C 49.34 32.19 53.59 31.12 55.86 29.42 C 55.88 35.06 55.88 40.69 55.99 46.33 C 53.10 45.85 50.03 46.01 47.32 44.80 C 46.05 43.57 46.74 41.62 46.64 40.07 C 44.23 44.37 38.69 44.98 34.55 42.96 C 33.32 43.88 32.06 44.76 30.83 45.69 C 35.39 45.01 40.22 45.60 43.63 48.97 C 44.79 48.08 45.96 47.19 47.11 46.28 C 50.06 46.64 53.04 46.91 56.01 47.22 C 56.02 47.71 56.05 48.69 56.07 49.18 L 56.10 49.74 C 56.13 50.22 56.19 51.17 56.22 51.64 C 56.22 53.10 56.21 54.55 56.20 56.00 L 31.44 56.00 C 29.57 51.68 27.18 47.22 22.02 46.44 C 24.27 48.12 26.23 50.16 27.51 52.68 C 25.31 53.83 23.06 54.87 20.85 56.00 L 15.09 56.00 C 14.78 54.92 14.48 53.85 14.18 52.77 L 14.53 52.10 C 15.23 50.76 15.95 49.43 16.64 48.09 C 16.03 46.56 15.35 45.06 14.75 43.52 C 16.43 39.65 15.81 35.38 14.58 31.48 L 14.59 30.75 M 16.75 32.24 C 19.38 33.55 22.18 34.46 24.90 35.56 C 26.06 34.12 27.28 32.73 28.56 31.40 C 24.74 33.51 20.66 31.16 16.75 32.24 Z" />
</g>
<g id="#85b05fff">
<path fill="#85b05f" opacity="1.00" d=" M 55.90 28.06 C 57.65 29.60 59.44 31.09 61.17 32.65 C 60.33 32.49 59.49 32.33 58.65 32.15 C 59.08 34.96 57.95 37.64 57.85 40.42 C 58.55 43.62 60.21 46.51 61.56 49.48 C 61.81 49.99 62.31 51.02 62.56 51.53 C 61.33 51.42 60.09 51.34 58.86 51.24 C 58.42 52.23 57.98 53.22 57.53 54.22 C 57.08 53.36 56.65 52.51 56.22 51.64 C 56.19 51.17 56.13 50.22 56.10 49.74 C 57.13 50.13 59.08 50.71 59.55 49.27 C 59.13 47.60 56.95 48.31 56.07 49.18 C 56.05 48.69 56.02 47.71 56.01 47.22 L 55.99 46.33 C 55.88 40.69 55.88 35.06 55.86 29.42 C 55.87 29.08 55.89 28.40 55.90 28.06 Z" />
<path fill="#85b05f" opacity="1.00" d=" M 111.88 27.93 C 113.60 29.55 115.42 31.07 117.17 32.67 C 116.32 32.50 115.48 32.33 114.64 32.15 C 114.94 34.83 114.51 37.50 113.46 39.98 C 114.93 43.10 116.05 46.38 117.54 49.49 C 117.79 50.00 118.29 51.03 118.54 51.54 C 117.31 51.42 116.09 51.33 114.86 51.24 C 114.42 52.23 113.97 53.22 113.53 54.22 C 113.08 53.36 112.65 52.50 112.22 51.64 C 112.19 51.17 112.13 50.21 112.10 49.74 C 113.13 50.13 115.07 50.71 115.55 49.27 C 115.13 47.60 112.94 48.30 112.06 49.18 C 112.04 48.39 112.01 46.81 111.99 46.02 L 111.98 45.13 C 111.91 39.59 111.82 34.04 111.87 28.50 L 111.88 27.93 Z" />
<path fill="#85b05f" opacity="1.00" d=" M 167.97 28.12 C 169.70 29.64 171.47 31.11 173.18 32.66 C 172.33 32.50 171.49 32.33 170.65 32.15 C 171.08 34.96 169.95 37.64 169.85 40.42 C 170.55 43.62 172.21 46.51 173.56 49.48 C 173.81 49.99 174.31 51.02 174.56 51.53 C 173.33 51.42 172.10 51.33 170.86 51.24 C 170.42 52.23 169.97 53.22 169.53 54.22 C 169.09 53.37 168.66 52.51 168.25 51.65 C 168.20 51.17 168.10 50.21 168.06 49.73 C 169.10 50.10 171.04 50.71 171.54 49.27 C 171.11 47.59 168.91 48.33 168.00 49.17 C 167.88 47.71 167.79 46.24 167.73 44.78 L 167.73 44.30 C 167.87 38.91 167.85 33.51 167.97 28.12 Z" />
</g>
<g id="#565248fe">
<path fill="#565248" opacity="1.00" d=" M 64.74 32.50 C 65.38 30.84 65.99 29.17 66.48 27.46 L 67.14 27.86 C 67.60 28.17 68.51 28.79 68.97 29.10 C 68.21 30.11 67.87 31.24 67.95 32.48 C 66.88 32.48 65.81 32.49 64.74 32.50 Z" />
<path fill="#565248" opacity="1.00" d=" M 120.67 32.56 C 121.34 30.90 122.07 29.26 122.70 27.58 C 123.55 28.40 124.40 29.23 125.26 30.06 C 124.93 30.63 124.26 31.76 123.93 32.33 C 122.84 32.40 121.76 32.48 120.67 32.56 Z" />
<path fill="#565248" opacity="1.00" d=" M 176.77 32.61 C 177.35 30.89 177.92 29.17 178.39 27.42 L 179.04 27.84 C 179.61 28.33 180.74 29.31 181.31 29.80 C 180.95 30.42 180.22 31.66 179.86 32.28 C 178.82 32.39 177.79 32.49 176.77 32.61 Z" />
</g>
<g id="#437acaff">
<path fill="#437aca" opacity="1.00" d=" M 90.71 27.90 C 91.08 27.91 91.81 27.94 92.18 27.95 C 92.27 30.46 93.08 32.86 94.72 34.78 C 89.43 34.87 85.20 38.37 84.31 43.47 C 84.54 41.29 81.67 36.60 85.09 35.23 C 88.21 33.79 91.93 32.06 90.71 27.90 Z" />
<path fill="#437aca" opacity="1.00" d=" M 202.71 27.90 C 203.08 27.91 203.81 27.94 204.18 27.95 C 204.27 30.46 205.08 32.86 206.72 34.78 C 201.43 34.87 197.20 38.37 196.31 43.47 C 196.53 41.29 193.68 36.60 197.09 35.23 C 200.21 33.79 203.93 32.06 202.71 27.90 Z" />
</g>
<g id="#447acbff">
<path fill="#447acb" opacity="1.00" d=" M 148.49 28.37 C 149.26 29.90 150.10 31.39 151.04 32.82 C 152.04 32.43 153.02 31.99 154.02 31.59 C 155.53 32.39 157.13 33.03 158.69 33.74 C 160.37 30.91 161.52 26.68 166.07 27.61 C 164.35 29.52 160.93 31.46 162.25 34.51 C 163.62 35.97 165.45 36.89 167.09 38.01 C 162.71 37.30 158.36 36.42 154.18 34.90 C 150.28 32.80 145.97 34.50 142.83 36.93 C 141.48 38.85 141.19 41.32 140.41 43.51 C 139.99 40.62 138.75 37.23 140.24 34.39 C 143.53 32.98 147.55 32.55 148.49 28.37 Z" />
</g>
<g id="#a0b6cbff">
<path fill="#a0b6cb" opacity="1.00" d=" M 13.02 28.80 C 13.41 29.29 14.20 30.26 14.59 30.75 L 14.58 31.48 C 14.27 31.74 13.64 32.28 13.33 32.54 C 13.01 32.50 12.36 32.41 12.03 32.37 C 12.13 31.13 12.46 29.94 13.02 28.80 Z" />
<path fill="#a0b6cb" opacity="1.00" d=" M 68.97 29.10 C 69.33 29.54 70.04 30.40 70.39 30.83 L 70.35 31.61 C 70.08 31.87 69.54 32.38 69.27 32.63 C 68.94 32.59 68.28 32.52 67.95 32.48 C 67.87 31.24 68.21 30.11 68.97 29.10 Z" />
</g>
<g id="#a5bbd1ff">
<path fill="#a5bbd1" opacity="1.00" d=" M 179.86 32.28 C 180.22 31.66 180.95 30.42 181.31 29.80 C 181.58 30.08 182.12 30.64 182.39 30.92 L 182.31 31.72 C 182.02 32.01 181.46 32.58 181.18 32.87 C 180.85 32.72 180.19 32.43 179.86 32.28 Z" />
<path fill="#a5bbd1" opacity="1.00" d=" M 11.22 38.10 C 12.13 37.36 13.04 36.61 13.95 35.86 C 13.64 38.18 13.28 40.48 12.88 42.79 C 12.47 42.58 11.64 42.17 11.23 41.97 C 11.15 40.68 11.15 39.39 11.22 38.10 Z" />
</g>
<g id="#87b05cff">
<path fill="#87b05c" opacity="1.00" d=" M 3.40 31.15 C 4.80 30.71 5.29 31.20 4.85 32.60 C 3.45 33.03 2.97 32.55 3.40 31.15 Z" />
</g>
<g id="#4476cbff">
<path fill="#4476cb" opacity="1.00" d=" M 16.75 32.24 C 20.66 31.16 24.74 33.51 28.56 31.40 C 27.28 32.73 26.06 34.12 24.90 35.56 C 22.18 34.46 19.38 33.55 16.75 32.24 Z" />
</g>
<g id="#2f8bd3fe">
<path fill="#2f8bd3" opacity="1.00" d=" M 14.58 31.48 C 15.81 35.38 16.43 39.65 14.75 43.52 C 14.28 43.34 13.35 42.97 12.88 42.79 C 13.28 40.48 13.64 38.18 13.95 35.86 C 13.04 36.61 12.13 37.36 11.22 38.10 C 11.72 36.18 12.47 34.33 13.33 32.54 C 13.64 32.28 14.27 31.74 14.58 31.48 Z" />
</g>
<g id="#2c8ed7ff">
<path fill="#2c8ed7" opacity="1.00" d=" M 70.35 31.61 C 70.36 38.48 71.73 45.42 70.55 52.24 C 70.43 51.80 70.18 50.92 70.06 50.47 C 69.81 49.81 69.32 48.48 69.07 47.81 C 68.38 45.97 67.79 44.10 67.22 42.22 C 69.64 44.08 69.42 39.97 67.16 39.97 C 67.65 37.47 68.20 34.96 69.27 32.63 C 69.54 32.38 70.08 31.87 70.35 31.61 Z" />
<path fill="#2c8ed7" opacity="1.00" d=" M 182.31 31.72 C 182.45 38.56 183.74 45.45 182.55 52.24 C 182.43 51.80 182.18 50.92 182.06 50.47 C 181.81 49.81 181.31 48.48 181.07 47.81 C 180.38 45.97 179.79 44.10 179.22 42.22 C 181.64 44.08 181.42 39.97 179.16 39.97 C 179.64 37.55 180.14 35.12 181.18 32.87 C 181.46 32.58 182.02 32.01 182.31 31.72 Z" />
</g>
<g id="#288cd6ff">
<path fill="#288cd6" opacity="1.00" d=" M 126.19 31.74 C 126.37 39.81 128.30 48.10 125.88 56.00 L 124.70 56.00 C 124.49 54.64 124.27 53.27 124.10 51.91 C 125.29 53.17 126.56 51.29 125.70 50.20 C 125.44 49.36 125.18 48.53 124.90 47.70 C 124.40 46.19 123.91 44.68 123.43 43.16 C 125.55 43.08 124.92 40.26 123.24 39.95 C 123.64 37.49 124.15 35.03 125.20 32.75 C 125.44 32.50 125.94 31.99 126.19 31.74 Z" />
</g>
<g id="#4378cbff">
<path fill="#4378cb" opacity="1.00" d=" M 103.16 38.75 C 103.47 40.80 103.67 42.87 104.00 44.91 C 106.66 44.95 109.32 45.03 111.98 45.13 L 111.99 46.02 C 107.86 45.98 103.85 46.89 99.81 47.45 C 95.43 46.37 91.08 45.04 86.56 44.58 C 91.10 42.01 95.98 44.55 100.76 44.25 C 101.43 42.36 102.33 40.57 103.16 38.75 Z" />
<path fill="#4378cb" opacity="1.00" d=" M 34.55 42.96 C 38.69 44.98 44.23 44.37 46.64 40.07 C 46.74 41.62 46.05 43.57 47.32 44.80 C 50.03 46.01 53.10 45.85 55.99 46.33 L 56.01 47.22 C 53.04 46.91 50.06 46.64 47.11 46.28 C 45.96 47.19 44.79 48.08 43.63 48.97 C 40.22 45.60 35.39 45.01 30.83 45.69 C 32.06 44.76 33.32 43.88 34.55 42.96 Z" />
</g>
<g id="#4279cbff">
<path fill="#4279cb" opacity="1.00" d=" M 154.22 44.39 C 157.26 44.05 158.86 41.17 160.57 39.00 C 160.70 41.01 161.02 43.00 161.30 45.00 C 157.15 48.33 152.35 46.44 148.08 44.57 C 148.31 43.79 148.51 43.00 148.67 42.20 C 150.36 43.19 152.09 45.00 154.22 44.39 Z" />
</g>
<g id="#8bb5d9ff">
<path fill="#8bb5d9" opacity="1.00" d=" M 67.22 42.22 C 67.20 41.66 67.17 40.53 67.16 39.97 C 69.42 39.97 69.64 44.08 67.22 42.22 Z" />
<path fill="#8bb5d9" opacity="1.00" d=" M 179.22 42.22 C 179.20 41.66 179.17 40.53 179.16 39.97 C 181.42 39.97 181.64 44.08 179.22 42.22 Z" />
</g>
<g id="#6e9bbbff">
<path fill="#6e9bbb" opacity="1.00" d=" M 123.43 43.16 C 123.00 42.11 122.93 41.04 123.24 39.95 C 124.92 40.26 125.55 43.08 123.43 43.16 Z" />
</g>
<g id="#2a8ed7ff">
<path fill="#2a8ed7" opacity="1.00" d=" M 11.23 41.97 C 11.64 42.17 12.47 42.58 12.88 42.79 C 13.35 42.97 14.28 43.34 14.75 43.52 C 15.35 45.06 16.03 46.56 16.64 48.09 C 15.95 49.43 15.23 50.76 14.53 52.10 C 14.41 51.71 14.18 50.94 14.07 50.55 C 13.82 49.86 13.32 48.48 13.07 47.79 C 12.39 45.87 11.71 43.95 11.23 41.97 Z" />
</g>
<g id="#4379cbff">
<path fill="#4379cb" opacity="1.00" d=" M 198.55 44.56 C 206.78 41.62 215.53 45.47 224.00 45.06 L 224.00 45.84 C 219.88 45.98 215.87 46.91 211.81 47.45 C 207.42 46.35 203.06 45.07 198.55 44.56 Z" />
</g>
<g id="#4478cbff">
<path fill="#4478cb" opacity="1.00" d=" M 137.51 43.26 C 138.39 42.17 140.37 43.59 139.49 44.74 C 138.60 45.83 136.63 44.41 137.51 43.26 Z" />
</g>
<g id="#4575cbff">
<path fill="#4575cb" opacity="1.00" d=" M 163.67 44.71 C 163.95 42.98 166.61 43.82 167.73 44.30 L 167.73 44.78 C 166.48 45.23 164.75 45.82 163.67 44.71 Z" />
</g>
<g id="#4376caff">
<path fill="#4376ca" opacity="1.00" d=" M 22.02 46.44 C 27.18 47.22 29.57 51.68 31.44 56.00 L 30.29 56.00 C 29.58 53.04 26.44 53.57 25.40 56.00 L 20.85 56.00 C 23.06 54.87 25.31 53.83 27.51 52.68 C 26.23 50.16 24.27 48.12 22.02 46.44 Z" />
</g>
<g id="#33302bff">
<path fill="#33302b" opacity="1.00" d=" M 5.55 49.51 C 6.94 50.09 8.31 50.71 9.64 51.42 C 10.10 51.31 11.04 51.09 11.51 50.98 L 11.70 51.73 C 12.12 53.17 12.58 54.59 13.09 56.00 L 6.83 56.00 C 7.96 55.26 7.90 53.70 7.18 52.71 C 7.02 52.41 6.70 51.83 6.55 51.54 C 6.30 51.03 5.80 50.01 5.55 49.51 Z" />
<path fill="#33302b" opacity="1.00" d=" M 61.56 49.48 C 62.94 50.08 64.28 50.75 65.66 51.35 C 66.19 51.36 67.27 51.39 67.80 51.41 L 67.87 52.19 C 67.90 53.54 68.24 54.89 69.03 56.00 L 62.85 56.00 C 63.98 55.25 63.88 53.70 63.17 52.71 C 63.02 52.41 62.71 51.83 62.56 51.53 C 62.31 51.02 61.81 49.99 61.56 49.48 Z" />
<path fill="#33302b" opacity="1.00" d=" M 117.54 49.49 C 118.91 50.10 120.28 50.73 121.62 51.43 C 122.21 51.33 123.40 51.12 124.00 51.02 L 124.10 51.91 C 124.27 53.27 124.49 54.64 124.70 56.00 L 118.81 56.00 C 119.77 55.26 120.00 53.78 119.27 52.81 C 119.09 52.49 118.72 51.86 118.54 51.54 C 118.29 51.03 117.79 50.00 117.54 49.49 Z" />
<path fill="#33302b" opacity="1.00" d=" M 173.56 49.48 C 174.94 50.08 176.28 50.75 177.66 51.35 C 178.19 51.36 179.27 51.39 179.80 51.41 L 179.87 52.19 C 179.89 53.54 180.24 54.89 181.03 56.00 L 174.85 56.00 C 175.98 55.25 175.88 53.70 175.17 52.71 C 175.02 52.41 174.71 51.83 174.56 51.53 C 174.31 51.02 173.81 49.99 173.56 49.48 Z" />
</g>
<g id="#719d5aff">
<path fill="#719d5a" opacity="1.00" d=" M 2.87 51.24 C 4.09 51.34 5.32 51.41 6.55 51.54 C 6.70 51.83 7.02 52.41 7.18 52.71 C 6.13 53.72 5.17 54.83 4.29 56.00 L 0.00 56.00 L 0.00 51.60 C 0.50 52.48 1.02 53.34 1.56 54.20 C 1.98 53.20 2.43 52.23 2.87 51.24 Z" />
<path fill="#719d5a" opacity="1.00" d=" M 58.86 51.24 C 60.09 51.34 61.33 51.42 62.56 51.53 C 62.71 51.83 63.02 52.41 63.17 52.71 C 62.13 53.73 61.17 54.83 60.30 56.00 L 56.20 56.00 C 56.21 54.55 56.22 53.10 56.22 51.64 C 56.65 52.51 57.08 53.36 57.53 54.22 C 57.98 53.22 58.42 52.23 58.86 51.24 Z" />
<path fill="#719d5a" opacity="1.00" d=" M 114.86 51.24 C 116.09 51.33 117.31 51.42 118.54 51.54 C 118.72 51.86 119.09 52.49 119.27 52.81 C 118.02 53.60 117.13 54.79 116.32 56.00 L 112.19 56.00 C 112.21 54.55 112.22 53.09 112.22 51.64 C 112.65 52.50 113.08 53.36 113.53 54.22 C 113.97 53.22 114.42 52.23 114.86 51.24 Z" />
<path fill="#719d5a" opacity="1.00" d=" M 170.86 51.24 C 172.10 51.33 173.33 51.42 174.56 51.53 C 174.71 51.83 175.02 52.41 175.17 52.71 C 174.13 53.73 173.17 54.83 172.30 56.00 L 168.19 56.00 C 168.22 54.55 168.24 53.10 168.25 51.65 C 168.66 52.51 169.09 53.37 169.53 54.22 C 169.97 53.22 170.42 52.23 170.86 51.24 Z" />
</g>
<g id="#268ed9ff">
<path fill="#268ed9" opacity="1.00" d=" M 11.70 51.73 C 12.32 51.99 13.56 52.51 14.18 52.77 C 14.48 53.85 14.78 54.92 15.09 56.00 L 13.09 56.00 C 12.58 54.59 12.12 53.17 11.70 51.73 Z" />
<path fill="#268ed9" opacity="1.00" d=" M 67.87 52.19 C 68.50 52.41 69.76 52.85 70.39 53.06 C 70.19 53.80 69.80 55.27 69.60 56.00 L 69.03 56.00 C 68.24 54.89 67.90 53.54 67.87 52.19 Z" />
<path fill="#268ed9" opacity="1.00" d=" M 179.87 52.19 C 180.50 52.41 181.76 52.85 182.39 53.07 C 182.19 53.80 181.80 55.27 181.60 56.00 L 181.03 56.00 C 180.24 54.89 179.89 53.54 179.87 52.19 Z" />
<path fill="#268ed9" opacity="1.00" d=" M 142.10 56.00 C 140.56 53.36 145.43 53.36 143.89 56.00 L 142.10 56.00 Z" />
</g>
<g id="#416845ff">
<path fill="#416845" opacity="1.00" d=" M 7.18 52.71 C 7.90 53.70 7.96 55.26 6.83 56.00 L 4.29 56.00 C 5.17 54.83 6.13 53.72 7.18 52.71 Z" />
<path fill="#416845" opacity="1.00" d=" M 63.17 52.71 C 63.88 53.70 63.98 55.25 62.85 56.00 L 60.30 56.00 C 61.17 54.83 62.13 53.73 63.17 52.71 Z" />
<path fill="#416845" opacity="1.00" d=" M 119.27 52.81 C 120.00 53.78 119.77 55.26 118.81 56.00 L 116.32 56.00 C 117.13 54.79 118.02 53.60 119.27 52.81 Z" />
<path fill="#416845" opacity="1.00" d=" M 175.17 52.71 C 175.88 53.70 175.98 55.25 174.85 56.00 L 172.30 56.00 C 173.17 54.83 174.13 53.73 175.17 52.71 Z" />
</g>
<g id="#3b6bbefe">
<path fill="#3b6bbe" opacity="1.00" d=" M 25.40 56.00 C 26.44 53.57 29.58 53.04 30.29 56.00 L 25.40 56.00 Z" />
</g>
</svg>
