<?xml version="1.0" encoding="UTF-8" ?>
<!DOCTYPE svg PUBLIC "-//W3C//DTD SVG 1.1//EN" "http://www.w3.org/Graphics/SVG/1.1/DTD/svg11.dtd">
<svg width="224pt" height="56pt" viewBox="0 0 224 56" version="1.1" xmlns="http://www.w3.org/2000/svg">
<g id="#81ab59fe">
<path fill="#81ab59" opacity="1.00" d=" M 0.00 0.00 L 10.32 0.00 C 10.23 0.45 10.04 1.36 9.94 1.81 C 6.40 2.72 3.32 4.76 1.66 8.10 C 1.42 8.08 0.95 8.03 0.71 8.00 C 2.20 6.95 1.28 5.02 0.00 4.31 L 0.00 0.00 Z" />
<path fill="#81ab59" opacity="1.00" d=" M 55.83 0.00 L 66.22 0.00 C 66.07 0.45 65.77 1.35 65.62 1.80 C 62.23 2.84 59.31 4.91 57.65 8.09 C 57.37 8.09 56.83 8.09 56.55 8.09 C 57.78 7.08 57.12 5.43 56.49 4.30 L 56.36 3.48 C 56.23 2.61 55.97 0.87 55.83 0.00 Z" />
<path fill="#81ab59" opacity="1.00" d=" M 111.80 0.00 L 122.22 0.00 C 122.07 0.45 121.77 1.35 121.62 1.79 C 118.23 2.84 115.31 4.91 113.65 8.10 C 113.35 8.10 112.76 8.09 112.47 8.08 C 113.67 7.08 113.06 5.46 112.47 4.32 L 112.35 3.55 C 112.21 2.66 111.94 0.89 111.80 0.00 Z" />
<path fill="#81ab59" opacity="1.00" d=" M 167.84 0.00 L 178.23 0.00 C 178.08 0.45 177.77 1.35 177.61 1.80 C 174.22 2.84 171.30 4.92 169.64 8.12 C 169.37 8.11 168.82 8.11 168.55 8.11 C 169.77 7.09 169.08 5.45 168.45 4.32 L 168.32 3.43 C 168.20 2.57 167.96 0.86 167.84 0.00 Z" />
</g>
<g id="#342f2aff">
<path fill="#342f2a" opacity="1.00" d=" M 10.32 0.00 L 13.38 0.00 C 13.27 0.56 13.05 1.67 12.94 2.23 C 12.24 5.72 11.38 9.22 11.66 12.80 C 12.32 10.50 12.97 8.19 13.31 5.82 C 14.20 10.17 13.16 14.45 12.08 18.62 L 11.97 19.01 C 11.62 19.27 10.91 19.79 10.56 20.05 C 10.25 16.33 9.70 12.64 9.04 8.97 C 8.34 9.10 6.94 9.35 6.24 9.47 C 6.88 13.60 7.52 17.74 8.08 21.88 C 7.57 22.26 6.55 23.03 6.04 23.41 C 5.73 22.81 5.11 21.59 4.80 20.98 C 5.57 19.11 3.61 15.89 2.45 18.98 C 2.29 19.27 1.96 19.86 1.80 20.15 C 1.35 20.25 0.45 20.44 0.00 20.53 L 0.00 7.90 L 0.71 8.00 C 0.95 8.03 1.42 8.08 1.66 8.10 C 4.05 8.22 6.73 8.49 8.82 7.10 C 9.41 5.39 9.60 3.58 9.94 1.81 C 10.04 1.36 10.23 0.45 10.32 0.00 M 3.91 11.51 C 4.76 14.21 5.80 16.86 7.11 19.38 C 6.80 16.46 5.52 13.87 3.91 11.51 Z" />
<path fill="#342f2a" opacity="1.00" d=" M 66.22 0.00 L 69.00 0.00 C 68.99 0.56 68.98 1.68 68.98 2.24 C 68.38 5.74 67.49 9.22 67.62 12.79 C 68.32 10.49 68.98 8.17 69.37 5.80 C 70.37 9.72 69.37 13.57 67.96 17.19 L 67.83 17.58 C 67.45 18.55 67.07 19.52 66.68 20.49 C 66.51 16.60 65.77 12.77 65.02 8.96 C 64.28 9.10 62.80 9.39 62.06 9.53 C 62.84 13.27 63.57 17.03 64.54 20.72 C 63.85 20.99 62.46 21.53 61.76 21.80 C 61.57 21.28 61.18 20.23 60.98 19.70 C 61.17 17.45 57.96 16.63 58.92 19.46 L 58.34 19.11 C 57.46 18.55 56.60 17.99 55.74 17.41 C 55.79 16.41 55.90 14.40 55.96 13.39 C 55.97 12.74 55.99 11.45 56.00 10.80 C 55.97 10.12 55.90 8.75 55.87 8.07 L 56.55 8.09 C 56.83 8.09 57.37 8.09 57.65 8.09 C 60.21 8.11 62.77 7.89 65.33 7.72 C 65.41 5.75 65.45 3.77 65.62 1.80 C 65.77 1.35 66.07 0.45 66.22 0.00 M 59.91 11.51 C 60.75 14.21 61.80 16.86 63.11 19.38 C 62.79 16.46 61.52 13.87 59.91 11.51 Z" />
<path fill="#342f2a" opacity="1.00" d=" M 178.23 0.00 L 181.00 0.00 C 180.99 0.56 180.98 1.68 180.98 2.24 C 180.37 5.74 179.49 9.22 179.62 12.79 C 180.32 10.49 180.98 8.17 181.37 5.80 C 182.38 9.73 181.37 13.57 179.95 17.20 L 179.81 17.58 C 179.44 18.54 179.06 19.50 178.69 20.45 C 178.51 16.58 177.76 12.76 177.02 8.96 C 176.28 9.10 174.80 9.39 174.05 9.53 C 174.84 13.25 175.56 16.99 176.56 20.66 C 175.89 20.98 174.56 21.62 173.90 21.94 C 173.67 21.37 173.21 20.22 172.99 19.64 C 173.09 17.45 169.92 16.59 170.81 19.41 L 170.07 19.26 C 169.60 19.24 168.66 19.20 168.19 19.18 C 168.18 17.24 168.15 13.37 168.14 11.43 C 168.10 10.82 168.01 9.59 167.96 8.98 L 167.87 8.10 L 168.55 8.11 C 168.82 8.11 169.37 8.11 169.64 8.12 C 172.21 8.11 174.77 7.89 177.33 7.71 C 177.41 5.74 177.45 3.77 177.61 1.80 C 177.77 1.35 178.08 0.45 178.23 0.00 M 171.91 11.51 C 172.75 14.21 173.80 16.86 175.11 19.38 C 174.78 16.46 173.53 13.87 171.91 11.51 Z" />
</g>
<g id="#268dd9ff">
<path fill="#268dd9" opacity="1.00" d=" M 13.38 0.00 L 16.11 0.00 L 15.31 0.84 C 13.45 1.86 13.91 4.58 16.18 4.51 C 16.66 8.12 17.15 11.74 17.64 15.35 C 16.87 14.93 16.08 14.53 15.29 14.14 C 15.25 14.16 15.15 14.22 15.11 14.24 C 13.31 14.98 12.33 16.76 12.08 18.62 C 13.16 14.45 14.20 10.17 13.31 5.82 C 13.21 4.62 13.08 3.43 12.94 2.23 C 13.05 1.67 13.27 0.56 13.38 0.00 Z" />
<path fill="#268dd9" opacity="1.00" d=" M 69.00 0.00 L 70.23 0.00 C 70.46 0.36 70.92 1.08 71.16 1.43 C 70.26 2.60 70.22 5.12 72.26 4.88 C 72.02 8.10 71.78 11.32 71.57 14.54 C 70.16 15.10 68.93 16.02 67.96 17.19 C 69.37 13.57 70.37 9.72 69.37 5.80 C 69.25 4.61 69.12 3.43 68.98 2.24 C 68.98 1.68 68.99 0.56 69.00 0.00 Z" />
<path fill="#268dd9" opacity="1.00" d=" M 181.00 0.00 L 182.23 0.00 C 182.47 0.36 182.93 1.07 183.17 1.43 C 182.27 2.60 182.24 5.11 184.27 4.88 C 184.03 8.09 183.77 11.30 183.53 14.51 C 182.12 15.08 180.91 16.03 179.95 17.20 C 181.37 13.57 182.38 9.73 181.37 5.80 C 181.25 4.61 181.12 3.43 180.98 2.24 C 180.98 1.68 180.99 0.56 181.00 0.00 Z" />
</g>
<g id="#3c6bbeff">
<path fill="#3c6bbe" opacity="1.00" d=" M 16.11 0.00 L 25.68 0.00 C 26.67 1.16 27.60 2.36 28.54 3.56 C 24.40 4.56 19.93 4.62 16.06 2.65 C 15.87 2.20 15.50 1.29 15.31 0.84 L 16.11 0.00 Z" />
<path fill="#3c6bbe" opacity="1.00" d=" M 30.48 0.00 L 55.83 0.00 C 55.97 0.87 56.23 2.61 56.36 3.48 C 47.56 5.48 38.70 3.23 30.48 0.00 Z" />
<path fill="#3c6bbe" opacity="1.00" d=" M 154.77 0.00 L 167.84 0.00 C 167.96 0.86 168.20 2.57 168.32 3.43 C 165.06 3.63 161.79 3.80 158.53 3.94 C 157.29 2.62 156.05 1.29 154.77 0.00 Z" />
<path fill="#3c6bbe" opacity="1.00" d=" M 9.09 40.17 C 13.99 33.96 22.80 36.16 28.02 40.69 C 24.66 43.32 20.21 45.71 20.33 50.62 C 19.84 50.63 18.87 50.65 18.38 50.66 C 13.96 50.52 9.54 50.30 5.12 50.12 C 5.98 48.75 6.82 47.38 7.66 46.00 C 5.54 47.25 3.40 48.48 1.52 50.07 C 1.00 50.51 0.50 50.95 0.00 51.41 L 0.00 38.31 C 2.82 39.11 6.43 39.05 8.18 41.82 C 10.17 44.47 12.77 46.53 15.68 48.08 C 13.34 45.57 10.67 43.27 9.09 40.17 Z" />
</g>
<g id="#407accff">
<path fill="#407acc" opacity="1.00" d=" M 25.68 0.00 L 30.48 0.00 C 38.70 3.23 47.56 5.48 56.36 3.48 L 56.49 4.30 C 56.30 4.74 55.93 5.63 55.74 6.08 C 49.15 7.13 42.46 7.01 36.26 4.28 C 31.66 1.39 27.96 5.83 23.70 6.58 C 21.08 6.46 18.61 5.42 16.18 4.51 C 16.15 4.04 16.09 3.12 16.06 2.65 C 19.93 4.62 24.40 4.56 28.54 3.56 C 27.60 2.36 26.67 1.16 25.68 0.00 Z" />
</g>
<g id="#3c6cbeff">
<path fill="#3c6cbe" opacity="1.00" d=" M 70.23 0.00 L 85.31 0.00 C 81.96 3.50 77.15 3.43 72.69 3.41 C 75.10 4.25 77.47 5.46 80.04 5.74 C 83.73 4.14 86.66 0.79 91.05 0.95 C 94.54 1.66 97.10 4.51 100.46 5.53 C 104.16 6.06 107.92 6.07 111.66 6.06 C 111.69 6.56 111.75 7.56 111.79 8.06 C 111.83 8.43 111.91 9.18 111.95 9.56 C 108.49 9.79 104.86 9.41 101.54 10.51 C 99.37 11.76 97.79 13.79 95.95 15.45 C 101.36 14.38 106.68 12.76 112.20 12.30 C 112.37 14.34 112.55 16.38 112.74 18.41 C 112.63 20.27 114.07 21.67 115.70 22.29 C 114.63 22.79 113.57 23.29 112.51 23.81 C 114.92 24.24 117.35 24.61 119.79 24.85 C 119.48 24.04 118.86 22.41 118.55 21.59 C 120.56 21.20 122.56 20.82 124.57 20.44 C 124.54 21.23 124.49 22.80 124.46 23.59 C 128.11 16.22 129.64 7.72 126.20 0.00 L 138.32 0.00 C 137.74 0.55 136.58 1.65 136.01 2.20 C 133.56 2.19 131.11 2.14 128.67 2.27 C 131.27 3.29 133.83 4.64 136.63 5.03 C 138.45 3.61 139.78 1.70 141.31 0.00 L 151.48 0.00 C 152.86 1.79 153.85 4.16 155.99 5.15 C 159.86 5.80 163.79 6.15 167.71 6.13 C 167.75 6.62 167.83 7.60 167.87 8.10 L 167.96 8.98 C 162.53 9.43 156.27 8.97 152.46 13.68 C 157.69 12.95 162.88 11.95 168.14 11.43 C 168.15 13.37 168.18 17.24 168.19 19.18 C 168.40 19.70 168.82 20.76 169.03 21.29 C 169.84 22.09 170.78 22.68 171.86 23.06 C 170.73 23.64 169.61 24.23 168.50 24.85 C 170.52 25.32 172.55 25.90 174.64 26.02 C 174.66 25.00 174.50 23.98 174.33 22.97 C 175.93 23.08 177.44 22.47 178.77 21.63 C 180.00 22.57 181.26 23.50 182.52 24.42 C 182.97 21.89 183.13 19.32 183.34 16.76 C 183.39 16.20 183.48 15.07 183.53 14.51 C 183.77 11.30 184.03 8.09 184.27 4.88 C 184.40 3.59 184.04 2.44 183.17 1.43 C 182.93 1.07 182.47 0.36 182.23 0.00 L 197.31 0.00 C 193.96 3.50 189.15 3.43 184.69 3.41 C 187.10 4.25 189.47 5.46 192.04 5.74 C 194.47 4.74 196.44 2.89 198.87 1.88 C 202.34 -0.54 205.62 1.85 208.50 3.53 C 212.95 6.93 218.85 5.50 224.00 6.53 L 224.00 9.34 C 220.50 9.62 216.89 9.55 213.51 10.50 C 211.32 11.70 209.80 13.80 208.04 15.51 C 213.50 14.84 218.58 12.53 224.00 11.65 L 224.00 44.83 C 222.13 44.87 218.39 44.95 216.51 44.99 C 218.07 47.70 221.29 47.94 224.00 48.84 L 224.00 49.81 C 214.72 49.47 205.47 50.39 196.21 50.63 C 194.52 50.32 192.85 49.95 191.18 49.59 C 194.72 45.96 197.57 41.73 199.07 36.86 C 201.45 36.42 203.84 35.99 206.23 35.56 C 205.51 33.68 204.82 31.79 204.16 29.90 C 201.79 31.83 199.58 34.09 196.79 35.41 C 192.75 36.17 189.29 32.93 185.68 31.77 C 188.10 27.25 192.97 25.80 197.91 26.33 C 197.20 22.38 199.82 19.38 202.77 17.18 C 198.59 18.11 194.29 17.86 190.14 16.94 C 192.83 18.67 195.28 20.78 197.13 23.41 C 193.47 24.72 189.80 26.01 186.11 27.25 C 185.24 29.80 185.81 33.55 182.93 34.72 C 179.42 36.14 175.75 37.06 172.16 38.21 C 174.57 41.88 177.52 45.27 181.64 47.07 C 179.47 44.57 177.26 42.11 175.23 39.50 C 181.31 36.45 188.15 34.54 194.90 36.89 C 193.47 41.25 191.13 45.26 187.78 48.41 C 188.24 49.13 188.70 49.85 189.16 50.58 C 188.45 50.59 187.02 50.62 186.31 50.64 C 181.47 50.44 176.65 50.17 171.82 49.91 C 172.89 48.24 174.02 46.60 175.14 44.96 C 173.23 45.69 171.30 46.39 169.37 47.07 C 169.78 48.39 170.18 49.71 170.58 51.03 C 168.64 50.98 166.69 51.00 164.75 51.01 C 164.49 50.68 163.96 50.02 163.69 49.69 C 164.62 49.66 166.86 49.44 166.37 48.03 C 164.97 46.84 163.20 48.21 162.07 49.13 L 161.53 49.55 C 159.00 49.19 156.44 48.88 153.89 49.20 C 149.08 49.97 144.27 51.00 139.38 50.91 C 136.91 49.62 135.31 47.25 133.65 45.10 C 132.96 45.74 132.28 46.37 131.62 47.02 C 132.24 48.23 132.83 49.47 133.37 50.72 C 132.60 50.70 131.08 50.65 130.32 50.63 C 124.87 50.08 119.41 49.66 114.04 48.61 C 114.16 49.16 114.41 50.26 114.53 50.81 C 113.73 50.70 112.92 50.60 112.12 50.51 C 108.00 49.90 103.85 49.49 99.69 49.45 C 99.29 49.49 98.50 49.56 98.10 49.60 C 93.89 50.07 89.68 50.50 85.45 50.65 C 83.35 50.23 81.27 49.74 79.19 49.27 C 83.32 43.73 86.44 36.52 93.98 34.91 C 93.34 33.19 92.69 31.48 92.07 29.76 C 89.66 31.83 87.27 33.93 84.92 36.07 C 81.18 34.59 77.47 33.07 73.76 31.53 C 76.29 27.21 81.06 25.83 85.92 26.33 C 85.20 22.39 87.82 19.38 90.77 17.18 C 86.59 18.11 82.29 17.86 78.14 16.94 C 80.83 18.67 83.28 20.78 85.13 23.41 C 81.47 24.72 77.80 26.01 74.11 27.25 C 73.25 29.80 73.81 33.55 70.93 34.72 C 67.43 36.14 63.75 37.06 60.16 38.21 C 62.58 41.88 65.52 45.27 69.64 47.07 C 67.47 44.57 65.26 42.11 63.23 39.50 C 69.31 36.45 76.14 34.55 82.88 36.89 C 81.41 41.41 78.84 45.48 75.61 48.95 C 76.08 49.33 77.01 50.10 77.48 50.48 C 76.70 50.48 75.14 50.47 74.35 50.47 C 69.50 50.33 64.66 50.14 59.82 49.92 C 60.89 48.25 62.01 46.60 63.14 44.96 C 61.22 45.69 59.28 46.39 57.34 47.07 C 57.76 48.33 58.18 49.58 58.59 50.83 C 57.79 50.71 56.99 50.59 56.19 50.48 C 53.00 49.99 49.82 49.44 46.59 49.26 C 45.89 49.21 45.20 49.17 44.50 49.17 C 44.89 48.04 45.24 46.91 45.59 45.77 C 47.84 46.43 50.11 47.00 52.41 47.48 C 50.21 46.18 48.09 44.64 45.61 43.95 C 42.86 43.76 40.17 44.70 37.47 45.09 C 39.00 45.21 40.53 45.31 42.06 45.38 C 42.33 46.78 42.63 48.18 42.94 49.57 C 38.04 50.52 33.03 50.85 28.07 51.34 C 26.67 50.84 25.29 50.29 23.91 49.76 C 27.44 43.59 31.39 37.67 36.27 32.47 C 32.78 33.88 29.24 35.26 25.42 35.44 C 22.71 35.17 20.99 32.75 19.17 31.00 C 22.99 28.60 26.59 25.87 29.88 22.78 C 32.89 19.77 37.45 20.50 41.31 20.34 C 39.19 19.46 37.11 18.35 34.85 17.88 C 30.55 18.08 26.34 19.16 22.06 19.56 C 23.64 20.42 25.22 21.27 26.79 22.14 C 26.91 22.96 27.13 24.60 27.24 25.42 C 23.73 26.46 20.14 27.30 16.48 27.63 C 17.52 29.50 18.59 31.35 19.69 33.18 C 13.41 35.73 6.75 37.28 0.00 37.82 L 0.00 22.18 L 0.67 22.41 C 1.62 22.73 2.58 23.06 3.54 23.39 C 2.69 24.31 1.83 25.23 0.98 26.15 C 3.27 26.19 5.56 26.27 7.85 26.38 C 7.54 25.67 6.93 24.27 6.62 23.57 C 8.19 23.19 9.75 22.74 11.31 22.28 L 11.62 22.59 L 12.09 23.06 C 13.10 24.02 14.16 24.93 15.21 25.84 C 15.28 22.73 15.22 19.62 15.15 16.51 C 15.14 15.94 15.12 14.81 15.11 14.24 C 15.15 14.22 15.25 14.16 15.29 14.14 C 16.08 14.53 16.87 14.93 17.64 15.35 C 17.15 11.74 16.66 8.12 16.18 4.51 C 18.61 5.42 21.08 6.46 23.70 6.58 C 27.96 5.83 31.66 1.39 36.26 4.28 C 42.46 7.01 49.15 7.13 55.74 6.08 C 55.77 6.57 55.84 7.57 55.87 8.07 C 55.90 8.75 55.97 10.12 56.00 10.80 C 51.91 10.63 47.81 10.53 43.72 10.37 C 43.94 11.44 44.16 12.51 44.38 13.58 C 42.85 14.52 41.32 15.48 39.79 16.44 C 45.23 15.68 50.54 14.24 55.96 13.39 C 55.90 14.40 55.79 16.41 55.74 17.41 C 51.15 18.65 46.59 20.00 42.02 21.31 C 43.46 25.36 46.14 28.69 48.54 32.18 C 47.38 34.67 45.44 36.69 43.76 38.83 C 46.06 38.70 48.37 38.61 50.67 38.54 C 51.20 35.29 52.23 32.16 53.54 29.14 C 49.86 29.01 44.78 27.88 44.87 23.23 C 48.89 18.71 55.07 21.35 59.76 23.22 C 58.70 23.75 57.65 24.29 56.61 24.84 C 59.13 25.05 61.65 25.23 64.18 25.34 C 63.63 24.73 62.52 23.52 61.97 22.91 C 63.66 23.09 65.26 22.45 66.71 21.67 C 67.97 22.60 69.24 23.49 70.52 24.38 C 70.97 21.87 71.16 19.32 71.37 16.78 C 71.42 16.22 71.52 15.10 71.57 14.54 C 71.78 11.32 72.02 8.10 72.26 4.88 C 72.39 3.59 72.02 2.44 71.16 1.43 C 70.92 1.08 70.46 0.36 70.23 0.00 M 138.70 9.42 C 141.11 10.60 143.54 11.71 146.02 12.72 C 145.38 14.03 144.72 15.33 144.06 16.62 C 147.07 16.49 150.08 16.60 153.09 16.77 C 149.05 15.58 146.24 12.61 144.64 8.80 C 142.67 9.03 140.68 9.24 138.70 9.42 M 154.13 19.01 C 155.15 23.03 157.43 26.38 160.65 29.01 C 160.05 30.33 159.46 31.65 158.91 32.99 C 156.06 32.92 153.19 32.43 150.37 32.92 L 150.48 32.25 C 149.23 28.64 145.74 31.65 143.54 32.47 C 139.30 35.32 134.16 32.91 129.99 31.09 C 129.96 30.25 129.89 28.58 129.86 27.74 C 134.33 24.97 139.62 25.44 144.66 25.16 C 139.77 22.21 134.24 23.67 129.54 26.13 C 128.63 28.71 127.76 31.30 126.69 33.82 C 130.46 34.92 134.48 35.45 138.00 37.22 C 140.09 40.08 136.89 43.70 136.31 46.73 C 140.02 44.08 141.26 39.44 144.27 36.22 C 148.65 33.76 154.15 33.98 158.66 36.04 C 159.01 37.96 159.70 41.80 160.05 43.72 C 161.29 38.79 162.07 33.75 162.85 28.73 C 166.03 28.83 169.22 28.74 172.38 29.23 C 172.22 28.71 171.90 27.69 171.74 27.18 C 166.70 26.64 161.45 26.63 156.83 24.30 C 156.87 23.46 156.96 21.79 157.00 20.95 C 159.41 19.77 161.84 18.63 164.26 17.47 C 160.88 18.01 157.51 18.52 154.13 19.01 M 98.24 19.98 C 98.99 23.77 100.40 27.52 104.48 28.76 C 104.27 30.11 104.06 31.47 103.85 32.82 C 101.24 32.93 98.64 33.05 96.03 33.18 C 96.04 33.99 96.05 35.59 96.05 36.39 C 98.32 36.08 102.87 35.45 105.14 35.14 C 107.28 33.37 108.87 31.06 110.44 28.79 C 106.45 27.73 101.71 26.77 100.22 22.30 C 102.89 21.00 105.57 19.73 108.27 18.48 C 104.93 19.02 101.58 19.50 98.24 19.98 M 210.24 19.98 C 210.96 23.88 212.51 27.64 216.71 28.84 C 216.43 30.16 216.14 31.49 215.87 32.82 C 213.23 32.95 210.59 33.09 207.96 33.25 C 208.01 33.89 208.10 35.19 208.15 35.84 C 210.36 36.51 212.53 37.70 214.83 38.22 C 217.87 35.54 220.00 32.01 222.35 28.74 C 218.37 27.72 213.69 26.73 212.22 22.30 C 214.88 21.00 217.57 19.73 220.27 18.48 C 216.92 19.02 213.58 19.50 210.24 19.98 M 122.14 22.11 C 120.82 22.80 120.81 23.47 122.11 24.14 C 123.43 23.46 123.44 22.78 122.14 22.11 M 66.14 23.11 C 64.82 23.80 64.81 24.47 66.11 25.14 C 67.43 24.46 67.44 23.78 66.14 23.11 M 178.14 23.11 C 176.82 23.80 176.81 24.47 178.11 25.14 C 179.43 24.46 179.44 23.78 178.14 23.11 M 10.14 24.11 C 8.82 24.80 8.81 25.47 10.11 26.14 C 11.43 25.46 11.44 24.78 10.14 24.11 M 29.19 27.21 C 27.39 27.63 28.29 30.46 29.98 29.96 C 31.79 29.58 30.87 26.69 29.19 27.21 M 114.61 36.89 C 114.47 37.32 114.34 37.76 114.22 38.20 C 115.47 38.99 116.72 39.77 117.95 40.60 C 121.71 38.66 125.60 36.99 129.40 35.13 C 124.49 35.89 119.62 37.73 114.61 36.89 M 212.66 42.28 C 213.55 44.08 214.46 45.86 215.44 47.61 C 215.42 45.33 215.40 43.06 215.35 40.78 C 214.68 41.16 213.33 41.91 212.66 42.28 M 96.64 45.62 C 98.40 46.15 100.15 46.69 101.91 47.24 C 101.94 46.41 102.00 44.77 102.03 43.95 C 100.22 44.45 98.43 45.05 96.64 45.62 M 151.45 44.98 C 153.25 45.87 155.05 46.74 156.88 47.55 C 156.29 46.71 155.69 45.88 155.09 45.05 C 159.52 45.84 164.05 45.70 168.42 44.63 C 162.77 43.95 157.08 44.19 151.45 44.98 M 209.53 45.12 C 209.68 45.44 209.96 46.09 210.10 46.41 C 212.70 47.02 210.95 42.94 209.53 45.12 Z" />
</g>
<g id="#4179cbff">
<path fill="#4179cb" opacity="1.00" d=" M 85.31 0.00 L 93.92 0.00 C 99.35 3.77 106.01 3.51 112.35 3.55 L 112.47 4.32 C 112.26 4.76 111.86 5.63 111.66 6.06 C 107.92 6.07 104.16 6.06 100.46 5.53 C 97.10 4.51 94.54 1.66 91.05 0.95 C 86.66 0.79 83.73 4.14 80.04 5.74 C 77.47 5.46 75.10 4.25 72.69 3.41 C 77.15 3.43 81.96 3.50 85.31 0.00 Z" />
<path fill="#4179cb" opacity="1.00" d=" M 197.31 0.00 L 205.92 0.00 C 211.25 3.67 217.77 3.52 224.00 3.63 L 224.00 6.53 C 218.85 5.50 212.95 6.93 208.50 3.53 C 205.62 1.85 202.34 -0.54 198.87 1.88 C 196.44 2.89 194.47 4.74 192.04 5.74 C 189.47 5.46 187.10 4.25 184.69 3.41 C 189.15 3.43 193.96 3.50 197.31 0.00 Z" />
</g>
<g id="#3c6abefe">
<path fill="#3c6abe" opacity="1.00" d=" M 93.92 0.00 L 111.80 0.00 C 111.94 0.89 112.21 2.66 112.35 3.55 C 106.01 3.51 99.35 3.77 93.92 0.00 Z" />
<path fill="#3c6abe" opacity="1.00" d=" M 205.92 0.00 L 224.00 0.00 L 224.00 3.63 C 217.77 3.52 211.25 3.67 205.92 0.00 Z" />
</g>
<g id="#332e2aff">
<path fill="#332e2a" opacity="1.00" d=" M 122.22 0.00 L 124.94 0.00 C 124.91 0.56 124.84 1.69 124.80 2.25 C 124.29 5.74 123.57 9.23 123.60 12.77 C 124.32 10.47 125.01 8.15 125.45 5.78 C 125.68 7.03 126.13 9.54 126.35 10.80 C 125.77 12.38 125.07 13.91 124.33 15.42 C 124.08 15.75 123.58 16.41 123.33 16.74 C 122.38 14.21 121.47 11.67 120.58 9.12 C 119.98 9.21 118.79 9.39 118.19 9.49 C 118.79 12.93 119.42 16.37 120.02 19.82 C 119.46 20.24 118.35 21.08 117.80 21.50 C 117.57 20.90 117.12 19.70 116.90 19.11 C 117.26 17.50 115.36 16.59 114.31 17.84 L 113.95 17.98 C 113.65 18.09 113.04 18.30 112.74 18.41 C 112.55 16.38 112.37 14.34 112.20 12.30 C 112.14 11.62 112.02 10.24 111.95 9.56 C 111.91 9.18 111.83 8.43 111.79 8.06 L 112.47 8.08 C 112.76 8.09 113.35 8.10 113.65 8.10 C 116.22 8.13 118.77 7.88 121.33 7.72 C 121.42 5.74 121.45 3.76 121.62 1.79 C 121.77 1.35 122.07 0.45 122.22 0.00 M 115.91 11.51 C 116.75 14.21 117.80 16.86 119.11 19.38 C 118.79 16.46 117.53 13.87 115.91 11.51 Z" />
<path fill="#332e2a" opacity="1.00" d=" M 79.11 51.84 C 80.31 50.69 82.06 50.61 83.62 50.73 C 83.46 51.03 83.15 51.63 82.99 51.93 C 81.85 52.32 80.69 52.40 79.49 52.19 L 79.11 51.84 Z" />
</g>
<g id="#268dd8ff">
<path fill="#268dd8" opacity="1.00" d=" M 124.94 0.00 L 126.20 0.00 C 129.64 7.72 128.11 16.22 124.46 23.59 C 124.49 22.80 124.54 21.23 124.57 20.44 C 124.75 18.17 125.20 15.93 125.61 13.69 C 125.29 14.12 124.65 14.99 124.33 15.42 C 125.07 13.91 125.77 12.38 126.35 10.80 C 126.13 9.54 125.68 7.03 125.45 5.78 C 125.24 4.60 125.02 3.42 124.80 2.25 C 124.84 1.69 124.91 0.56 124.94 0.00 Z" />
</g>
<g id="#4476cbff">
<path fill="#4476cb" opacity="1.00" d=" M 138.32 0.00 L 141.31 0.00 C 139.78 1.70 138.45 3.61 136.63 5.03 C 133.83 4.64 131.27 3.29 128.67 2.27 C 131.11 2.14 133.56 2.19 136.01 2.20 C 136.58 1.65 137.74 0.55 138.32 0.00 Z" />
</g>
<g id="#4079ccff">
<path fill="#4079cc" opacity="1.00" d=" M 151.48 0.00 L 154.77 0.00 C 156.05 1.29 157.29 2.62 158.53 3.94 C 161.79 3.80 165.06 3.63 168.32 3.43 L 168.45 4.32 C 168.27 4.77 167.90 5.68 167.71 6.13 C 163.79 6.15 159.86 5.80 155.99 5.15 C 153.85 4.16 152.86 1.79 151.48 0.00 Z" />
</g>
<g id="#86a0b1ff">
<path fill="#86a0b1" opacity="1.00" d=" M 16.18 4.51 C 13.91 4.58 13.45 1.86 15.31 0.84 C 15.50 1.29 15.87 2.20 16.06 2.65 C 16.09 3.12 16.15 4.04 16.18 4.51 Z" />
</g>
<g id="#709e5cff">
<path fill="#709e5c" opacity="1.00" d=" M 1.66 8.10 C 3.32 4.76 6.40 2.72 9.94 1.81 C 9.60 3.58 9.41 5.39 8.82 7.10 C 6.73 8.49 4.05 8.22 1.66 8.10 Z" />
<path fill="#709e5c" opacity="1.00" d=" M 57.65 8.09 C 59.31 4.91 62.23 2.84 65.62 1.80 C 65.45 3.77 65.41 5.75 65.33 7.72 C 62.77 7.89 60.21 8.11 57.65 8.09 Z" />
<path fill="#709e5c" opacity="1.00" d=" M 113.65 8.10 C 115.31 4.91 118.23 2.84 121.62 1.79 C 121.45 3.76 121.42 5.74 121.33 7.72 C 118.77 7.88 116.22 8.13 113.65 8.10 Z" />
<path fill="#709e5c" opacity="1.00" d=" M 169.64 8.12 C 171.30 4.92 174.22 2.84 177.61 1.80 C 177.45 3.77 177.41 5.74 177.33 7.71 C 174.77 7.89 172.21 8.11 169.64 8.12 Z" />
</g>
<g id="#7392b4ff">
<path fill="#7392b4" opacity="1.00" d=" M 72.26 4.88 C 70.22 5.12 70.26 2.60 71.16 1.43 C 72.02 2.44 72.39 3.59 72.26 4.88 Z" />
<path fill="#7392b4" opacity="1.00" d=" M 184.27 4.88 C 182.24 5.11 182.27 2.60 183.17 1.43 C 184.04 2.44 184.40 3.59 184.27 4.88 Z" />
</g>
<g id="#645a4bff">
<path fill="#645a4b" opacity="1.00" d=" M 11.66 12.80 C 11.38 9.22 12.24 5.72 12.94 2.23 C 13.08 3.43 13.21 4.62 13.31 5.82 C 12.97 8.19 12.32 10.50 11.66 12.80 Z" />
<path fill="#645a4b" opacity="1.00" d=" M 67.62 12.79 C 67.49 9.22 68.38 5.74 68.98 2.24 C 69.12 3.43 69.25 4.61 69.37 5.80 C 68.98 8.17 68.32 10.49 67.62 12.79 Z" />
<path fill="#645a4b" opacity="1.00" d=" M 123.60 12.77 C 123.57 9.23 124.29 5.74 124.80 2.25 C 125.02 3.42 125.24 4.60 125.45 5.78 C 125.01 8.15 124.32 10.47 123.60 12.77 Z" />
<path fill="#645a4b" opacity="1.00" d=" M 179.62 12.79 C 179.49 9.22 180.37 5.74 180.98 2.24 C 181.12 3.43 181.25 4.61 181.37 5.80 C 180.98 8.17 180.32 10.49 179.62 12.79 Z" />
</g>
<g id="#5c8260ff">
<path fill="#5c8260" opacity="1.00" d=" M 0.00 4.31 C 1.28 5.02 2.20 6.95 0.71 8.00 L 0.00 7.90 L 0.00 4.31 Z" />
<path fill="#5c8260" opacity="1.00" d=" M 56.49 4.30 C 57.12 5.43 57.78 7.08 56.55 8.09 L 55.87 8.07 C 55.84 7.57 55.77 6.57 55.74 6.08 C 55.93 5.63 56.30 4.74 56.49 4.30 Z" />
<path fill="#5c8260" opacity="1.00" d=" M 112.47 4.32 C 113.06 5.46 113.67 7.08 112.47 8.08 L 111.79 8.06 C 111.75 7.56 111.69 6.56 111.66 6.06 C 111.86 5.63 112.26 4.76 112.47 4.32 Z" />
<path fill="#5c8260" opacity="1.00" d=" M 168.45 4.32 C 169.08 5.45 169.77 7.09 168.55 8.11 L 167.87 8.10 C 167.83 7.60 167.75 6.62 167.71 6.13 C 167.90 5.68 168.27 4.77 168.45 4.32 Z" />
</g>
<g id="#4377caff">
<path fill="#4377ca" opacity="1.00" d=" M 138.70 9.42 C 140.68 9.24 142.67 9.03 144.64 8.80 C 146.24 12.61 149.05 15.58 153.09 16.77 C 150.08 16.60 147.07 16.49 144.06 16.62 C 144.72 15.33 145.38 14.03 146.02 12.72 C 143.54 11.71 141.11 10.60 138.70 9.42 Z" />
</g>
<g id="#3f7bccff">
<path fill="#3f7bcc" opacity="1.00" d=" M 152.46 13.68 C 156.27 8.97 162.53 9.43 167.96 8.98 C 168.01 9.59 168.10 10.82 168.14 11.43 C 162.88 11.95 157.69 12.95 152.46 13.68 Z" />
</g>
<g id="#6c604cff">
<path fill="#6c604c" opacity="1.00" d=" M 6.24 9.47 C 6.94 9.35 8.34 9.10 9.04 8.97 C 9.70 12.64 10.25 16.33 10.56 20.05 L 9.75 20.65 C 9.33 20.96 8.49 21.57 8.08 21.88 C 7.52 17.74 6.88 13.60 6.24 9.47 Z" />
<path fill="#6c604c" opacity="1.00" d=" M 62.06 9.53 C 62.80 9.39 64.28 9.10 65.02 8.96 C 65.77 12.77 66.51 16.60 66.68 20.49 L 66.34 21.40 C 65.89 21.23 64.99 20.89 64.54 20.72 C 63.57 17.03 62.84 13.27 62.06 9.53 Z" />
<path fill="#6c604c" opacity="1.00" d=" M 174.05 9.53 C 174.80 9.39 176.28 9.10 177.02 8.96 C 177.76 12.76 178.51 16.58 178.69 20.45 L 178.37 21.32 C 177.92 21.16 177.01 20.83 176.56 20.66 C 175.56 16.99 174.84 13.25 174.05 9.53 Z" />
</g>
<g id="#427bcbff">
<path fill="#427bcb" opacity="1.00" d=" M 101.54 10.51 C 104.86 9.41 108.49 9.79 111.95 9.56 C 112.02 10.24 112.14 11.62 112.20 12.30 C 106.68 12.76 101.36 14.38 95.95 15.45 C 97.79 13.79 99.37 11.76 101.54 10.51 Z" />
<path fill="#427bcb" opacity="1.00" d=" M 213.51 10.50 C 216.89 9.55 220.50 9.62 224.00 9.34 L 224.00 11.65 C 218.58 12.53 213.50 14.84 208.04 15.51 C 209.80 13.80 211.32 11.70 213.51 10.50 Z" />
</g>
<g id="#6c5f4bff">
<path fill="#6c5f4b" opacity="1.00" d=" M 118.19 9.49 C 118.79 9.39 119.98 9.21 120.58 9.12 C 121.47 11.67 122.38 14.21 123.33 16.74 C 122.31 17.86 121.20 18.88 120.02 19.82 C 119.42 16.37 118.79 12.93 118.19 9.49 Z" />
</g>
<g id="#437cccff">
<path fill="#437ccc" opacity="1.00" d=" M 43.72 10.37 C 47.81 10.53 51.91 10.63 56.00 10.80 C 55.99 11.45 55.97 12.74 55.96 13.39 C 50.54 14.24 45.23 15.68 39.79 16.44 C 41.32 15.48 42.85 14.52 44.38 13.58 C 44.16 12.51 43.94 11.44 43.72 10.37 Z" />
</g>
<g id="#565249ff">
<path fill="#565249" opacity="1.00" d=" M 3.91 11.51 C 5.52 13.87 6.80 16.46 7.11 19.38 C 5.80 16.86 4.76 14.21 3.91 11.51 Z" />
<path fill="#565249" opacity="1.00" d=" M 59.91 11.51 C 61.52 13.87 62.79 16.46 63.11 19.38 C 61.80 16.86 60.75 14.21 59.91 11.51 Z" />
<path fill="#565249" opacity="1.00" d=" M 115.91 11.51 C 117.53 13.87 118.79 16.46 119.11 19.38 C 117.80 16.86 116.75 14.21 115.91 11.51 Z" />
<path fill="#565249" opacity="1.00" d=" M 171.91 11.51 C 173.53 13.87 174.78 16.46 175.11 19.38 C 173.80 16.86 172.75 14.21 171.91 11.51 Z" />
<path fill="#565249" opacity="1.00" d=" M 2.45 18.98 C 3.61 15.89 5.57 19.11 4.80 20.98 C 4.42 20.93 3.65 20.85 3.27 20.80 C 3.06 20.35 2.65 19.43 2.45 18.98 Z" />
<path fill="#565249" opacity="1.00" d=" M 58.92 19.46 C 57.96 16.63 61.17 17.45 60.98 19.70 C 60.62 19.79 59.90 19.95 59.54 20.04 L 58.92 19.46 Z" />
<path fill="#565249" opacity="1.00" d=" M 170.81 19.41 C 169.92 16.59 173.09 17.45 172.99 19.64 C 172.62 19.71 171.90 19.84 171.54 19.91 L 170.81 19.41 Z" />
</g>
<g id="#709fc2fe">
<path fill="#709fc2" opacity="1.00" d=" M 12.08 18.62 C 12.33 16.76 13.31 14.98 15.11 14.24 C 15.12 14.81 15.14 15.94 15.15 16.51 C 14.33 17.61 13.09 18.26 11.97 19.01 L 12.08 18.62 Z" />
</g>
<g id="#7ca2beff">
<path fill="#7ca2be" opacity="1.00" d=" M 67.96 17.19 C 68.93 16.02 70.16 15.10 71.57 14.54 C 71.52 15.10 71.42 16.22 71.37 16.78 C 70.29 17.46 69.11 17.73 67.83 17.58 L 67.96 17.19 Z" />
<path fill="#7ca2be" opacity="1.00" d=" M 179.95 17.20 C 180.91 16.03 182.12 15.08 183.53 14.51 C 183.48 15.07 183.39 16.20 183.34 16.76 C 182.27 17.45 181.10 17.73 179.81 17.58 L 179.95 17.20 Z" />
</g>
<g id="#7fa1b9ff">
<path fill="#7fa1b9" opacity="1.00" d=" M 124.33 15.42 C 124.65 14.99 125.29 14.12 125.61 13.69 C 125.20 15.93 124.75 18.17 124.57 20.44 C 122.56 20.82 120.56 21.20 118.55 21.59 L 117.36 21.84 L 117.80 21.50 C 118.35 21.08 119.46 20.24 120.02 19.82 C 121.20 18.88 122.31 17.86 123.33 16.74 C 123.58 16.41 124.08 15.75 124.33 15.42 Z" />
</g>
<g id="#4379cbff">
<path fill="#4379cb" opacity="1.00" d=" M 22.06 19.56 C 26.34 19.16 30.55 18.08 34.85 17.88 C 37.11 18.35 39.19 19.46 41.31 20.34 C 37.45 20.50 32.89 19.77 29.88 22.78 C 26.59 25.87 22.99 28.60 19.17 31.00 C 20.99 32.75 22.71 35.17 25.42 35.44 C 29.24 35.26 32.78 33.88 36.27 32.47 C 31.39 37.67 27.44 43.59 23.91 49.76 C 25.29 50.29 26.67 50.84 28.07 51.34 C 26.31 51.30 24.55 51.27 22.79 51.17 C 22.17 51.03 20.95 50.75 20.33 50.62 C 20.21 45.71 24.66 43.32 28.02 40.69 C 22.80 36.16 13.99 33.96 9.09 40.17 C 10.67 43.27 13.34 45.57 15.68 48.08 C 12.77 46.53 10.17 44.47 8.18 41.82 C 6.43 39.05 2.82 39.11 0.00 38.31 L 0.00 37.82 C 6.75 37.28 13.41 35.73 19.69 33.18 C 18.59 31.35 17.52 29.50 16.48 27.63 C 20.14 27.30 23.73 26.46 27.24 25.42 C 27.13 24.60 26.91 22.96 26.79 22.14 C 25.22 21.27 23.64 20.42 22.06 19.56 Z" />
</g>
<g id="#2a8ad7ff">
<path fill="#2a8ad7" opacity="1.00" d=" M 11.97 19.01 C 13.09 18.26 14.33 17.61 15.15 16.51 C 15.22 19.62 15.28 22.73 15.21 25.84 C 14.16 24.93 13.10 24.02 12.09 23.06 C 13.35 22.98 13.94 22.36 13.88 21.21 C 13.08 19.71 11.40 21.43 11.62 22.59 L 11.31 22.28 C 10.92 21.87 10.14 21.06 9.75 20.65 L 10.56 20.05 C 10.91 19.79 11.62 19.27 11.97 19.01 Z" />
</g>
<g id="#4379cbfe">
<path fill="#4379cb" opacity="1.00" d=" M 42.02 21.31 C 46.59 20.00 51.15 18.65 55.74 17.41 C 56.60 17.99 57.46 18.55 58.34 19.11 C 56.34 20.45 57.84 22.86 59.76 23.22 C 55.07 21.35 48.89 18.71 44.87 23.23 C 44.78 27.88 49.86 29.01 53.54 29.14 C 52.23 32.16 51.20 35.29 50.67 38.54 C 48.37 38.61 46.06 38.70 43.76 38.83 C 45.44 36.69 47.38 34.67 48.54 32.18 C 46.14 28.69 43.46 25.36 42.02 21.31 Z" />
</g>
<g id="#3893d8ff">
<path fill="#3893d8" opacity="1.00" d=" M 67.83 17.58 C 69.11 17.73 70.29 17.46 71.37 16.78 C 71.16 19.32 70.97 21.87 70.52 24.38 C 69.24 23.49 67.97 22.60 66.71 21.67 L 66.34 21.40 L 66.68 20.49 C 67.07 19.52 67.45 18.55 67.83 17.58 Z" />
<path fill="#3893d8" opacity="1.00" d=" M 179.81 17.58 C 181.10 17.73 182.27 17.45 183.34 16.76 C 183.13 19.32 182.97 21.89 182.52 24.42 C 181.26 23.50 180.00 22.57 178.77 21.63 L 178.37 21.32 L 178.69 20.45 C 179.06 19.50 179.44 18.54 179.81 17.58 Z" />
</g>
<g id="#4379caff">
<path fill="#4379ca" opacity="1.00" d=" M 78.14 16.94 C 82.29 17.86 86.59 18.11 90.77 17.18 C 87.82 19.38 85.20 22.39 85.92 26.33 C 81.06 25.83 76.29 27.21 73.76 31.53 C 77.47 33.07 81.18 34.59 84.92 36.07 C 87.27 33.93 89.66 31.83 92.07 29.76 C 92.69 31.48 93.34 33.19 93.98 34.91 C 86.44 36.52 83.32 43.73 79.19 49.27 C 81.27 49.74 83.35 50.23 85.45 50.65 C 84.99 50.67 84.07 50.71 83.62 50.73 C 82.06 50.61 80.31 50.69 79.11 51.84 C 78.71 51.50 77.89 50.82 77.48 50.48 C 77.01 50.10 76.08 49.33 75.61 48.95 C 78.84 45.48 81.41 41.41 82.88 36.89 C 76.14 34.55 69.31 36.45 63.23 39.50 C 65.26 42.11 67.47 44.57 69.64 47.07 C 65.52 45.27 62.58 41.88 60.16 38.21 C 63.75 37.06 67.43 36.14 70.93 34.72 C 73.81 33.55 73.25 29.80 74.11 27.25 C 77.80 26.01 81.47 24.72 85.13 23.41 C 83.28 20.78 80.83 18.67 78.14 16.94 Z" />
<path fill="#4379ca" opacity="1.00" d=" M 114.61 36.89 C 119.62 37.73 124.49 35.89 129.40 35.13 C 125.60 36.99 121.71 38.66 117.95 40.60 C 116.72 39.77 115.47 38.99 114.22 38.20 C 114.34 37.76 114.47 37.32 114.61 36.89 Z" />
</g>
<g id="#4a463eff">
<path fill="#4a463e" opacity="1.00" d=" M 114.31 17.84 C 115.36 16.59 117.26 17.50 116.90 19.11 C 116.25 18.79 114.96 18.15 114.31 17.84 Z" />
</g>
<g id="#4377c9ff">
<path fill="#4377c9" opacity="1.00" d=" M 154.13 19.01 C 157.51 18.52 160.88 18.01 164.26 17.47 C 161.84 18.63 159.41 19.77 157.00 20.95 C 156.96 21.79 156.87 23.46 156.83 24.30 C 161.45 26.63 166.70 26.64 171.74 27.18 C 171.90 27.69 172.22 28.71 172.38 29.23 C 169.22 28.74 166.03 28.83 162.85 28.73 C 162.07 33.75 161.29 38.79 160.05 43.72 C 159.70 41.80 159.01 37.96 158.66 36.04 C 154.15 33.98 148.65 33.76 144.27 36.22 C 141.26 39.44 140.02 44.08 136.31 46.73 C 136.89 43.70 140.09 40.08 138.00 37.22 C 134.48 35.45 130.46 34.92 126.69 33.82 C 127.76 31.30 128.63 28.71 129.54 26.13 C 134.24 23.67 139.77 22.21 144.66 25.16 C 139.62 25.44 134.33 24.97 129.86 27.74 C 129.89 28.58 129.96 30.25 129.99 31.09 C 134.16 32.91 139.30 35.32 143.54 32.47 C 145.74 31.65 149.23 28.64 150.48 32.25 C 149.54 31.24 148.59 31.13 147.63 31.93 C 147.19 33.57 149.47 33.20 150.37 32.92 C 153.19 32.43 156.06 32.92 158.91 32.99 C 159.46 31.65 160.05 30.33 160.65 29.01 C 157.43 26.38 155.15 23.03 154.13 19.01 Z" />
</g>
<g id="#4378cafe">
<path fill="#4378ca" opacity="1.00" d=" M 190.14 16.94 C 194.29 17.86 198.59 18.11 202.77 17.18 C 199.82 19.38 197.20 22.38 197.91 26.33 C 192.97 25.80 188.10 27.25 185.68 31.77 C 189.29 32.93 192.75 36.17 196.79 35.41 C 199.58 34.09 201.79 31.83 204.16 29.90 C 204.82 31.79 205.51 33.68 206.23 35.56 C 203.84 35.99 201.45 36.42 199.07 36.86 C 197.57 41.73 194.72 45.96 191.18 49.59 C 192.85 49.95 194.52 50.32 196.21 50.63 L 195.30 50.63 C 193.24 50.59 191.20 50.57 189.16 50.58 C 188.70 49.85 188.24 49.13 187.78 48.41 C 191.13 45.26 193.47 41.25 194.90 36.89 C 188.15 34.54 181.31 36.45 175.23 39.50 C 177.26 42.11 179.47 44.57 181.64 47.07 C 177.52 45.27 174.57 41.88 172.16 38.21 C 175.75 37.06 179.42 36.14 182.93 34.72 C 185.81 33.55 185.24 29.80 186.11 27.25 C 189.80 26.01 193.47 24.72 197.13 23.41 C 195.28 20.78 192.83 18.67 190.14 16.94 Z" />
</g>
<g id="#4477c9ff">
<path fill="#4477c9" opacity="1.00" d=" M 98.24 19.98 C 101.58 19.50 104.93 19.02 108.27 18.48 C 105.57 19.73 102.89 21.00 100.22 22.30 C 101.71 26.77 106.45 27.73 110.44 28.79 C 108.87 31.06 107.28 33.37 105.14 35.14 C 102.87 35.45 98.32 36.08 96.05 36.39 C 96.05 35.59 96.04 33.99 96.03 33.18 C 98.64 33.05 101.24 32.93 103.85 32.82 C 104.06 31.47 104.27 30.11 104.48 28.76 C 100.40 27.52 98.99 23.77 98.24 19.98 Z" />
</g>
<g id="#9cb3c7fe">
<path fill="#9cb3c7" opacity="1.00" d=" M 112.74 18.41 C 113.04 18.30 113.65 18.09 113.95 17.98 C 114.89 19.22 115.44 20.72 116.12 22.12 L 115.70 22.29 C 114.07 21.67 112.63 20.27 112.74 18.41 Z" />
<path fill="#9cb3c7" opacity="1.00" d=" M 58.34 19.11 L 58.92 19.46 L 59.54 20.04 C 59.59 21.06 59.82 22.05 60.23 23.00 L 59.76 23.22 C 57.84 22.86 56.34 20.45 58.34 19.11 Z" />
<path fill="#9cb3c7" opacity="1.00" d=" M 170.07 19.26 L 170.81 19.41 L 171.54 19.91 C 171.70 20.91 171.98 21.89 172.37 22.83 L 171.86 23.06 C 170.78 22.68 169.84 22.09 169.03 21.29 C 169.29 20.78 169.81 19.77 170.07 19.26 Z" />
</g>
<g id="#5688bafe">
<path fill="#5688ba" opacity="1.00" d=" M 113.95 17.98 L 114.31 17.84 C 114.96 18.15 116.25 18.79 116.90 19.11 C 117.12 19.70 117.57 20.90 117.80 21.50 L 117.36 21.84 C 117.05 21.91 116.43 22.05 116.12 22.12 C 115.44 20.72 114.89 19.22 113.95 17.98 Z" />
</g>
<g id="#4477caff">
<path fill="#4477ca" opacity="1.00" d=" M 210.24 19.98 C 213.58 19.50 216.92 19.02 220.27 18.48 C 217.57 19.73 214.88 21.00 212.22 22.30 C 213.69 26.73 218.37 27.72 222.35 28.74 C 220.00 32.01 217.87 35.54 214.83 38.22 C 212.53 37.70 210.36 36.51 208.15 35.84 C 208.10 35.19 208.01 33.89 207.96 33.25 C 210.59 33.09 213.23 32.95 215.87 32.82 C 216.14 31.49 216.43 30.16 216.71 28.84 C 212.51 27.64 210.96 23.88 210.24 19.98 Z" />
</g>
<g id="#9eb5caff">
<path fill="#9eb5ca" opacity="1.00" d=" M 1.80 20.15 C 1.96 19.86 2.29 19.27 2.45 18.98 C 2.65 19.43 3.06 20.35 3.27 20.80 C 3.53 21.77 3.85 22.71 4.23 23.63 L 3.54 23.39 C 2.58 23.06 1.62 22.73 0.67 22.41 C 0.95 21.84 1.52 20.72 1.80 20.15 Z" />
</g>
<g id="#268ed9ff">
<path fill="#268ed9" opacity="1.00" d=" M 168.19 19.18 C 168.66 19.20 169.60 19.24 170.07 19.26 C 169.81 19.77 169.29 20.78 169.03 21.29 C 168.82 20.76 168.40 19.70 168.19 19.18 Z" />
<path fill="#268ed9" opacity="1.00" d=" M 0.00 20.53 C 0.45 20.44 1.35 20.25 1.80 20.15 C 1.52 20.72 0.95 21.84 0.67 22.41 L 0.00 22.18 L 0.00 20.53 Z" />
</g>
<g id="#adc2d9ff">
<path fill="#adc2d9" opacity="1.00" d=" M 11.62 22.59 C 11.40 21.43 13.08 19.71 13.88 21.21 C 13.94 22.36 13.35 22.98 12.09 23.06 L 11.62 22.59 Z" />
</g>
<g id="#4f7baeff">
<path fill="#4f7bae" opacity="1.00" d=" M 59.54 20.04 C 59.90 19.95 60.62 19.79 60.98 19.70 C 61.18 20.23 61.57 21.28 61.76 21.80 L 61.53 22.42 C 61.20 22.57 60.55 22.85 60.23 23.00 C 59.82 22.05 59.59 21.06 59.54 20.04 Z" />
<path fill="#4f7bae" opacity="1.00" d=" M 171.54 19.91 C 171.90 19.84 172.62 19.71 172.99 19.64 C 173.21 20.22 173.67 21.37 173.90 21.94 L 173.74 22.54 C 173.40 22.61 172.71 22.75 172.37 22.83 C 171.98 21.89 171.70 20.91 171.54 19.91 Z" />
<path fill="#4f7bae" opacity="1.00" d=" M 3.27 20.80 C 3.65 20.85 4.42 20.93 4.80 20.98 C 5.11 21.59 5.73 22.81 6.04 23.41 L 5.60 23.76 C 5.26 23.73 4.58 23.66 4.23 23.63 C 3.85 22.71 3.53 21.77 3.27 20.80 Z" />
</g>
<g id="#8ea7b9ff">
<path fill="#8ea7b9" opacity="1.00" d=" M 8.08 21.88 C 8.49 21.57 9.33 20.96 9.75 20.65 C 10.14 21.06 10.92 21.87 11.31 22.28 C 9.75 22.74 8.19 23.19 6.62 23.57 L 5.60 23.76 L 6.04 23.41 C 6.55 23.03 7.57 22.26 8.08 21.88 Z" />
</g>
<g id="#8ba4b6fe">
<path fill="#8ba4b6" opacity="1.00" d=" M 61.76 21.80 C 62.46 21.53 63.85 20.99 64.54 20.72 C 64.99 20.89 65.89 21.23 66.34 21.40 L 66.71 21.67 C 65.26 22.45 63.66 23.09 61.97 22.91 L 61.53 22.42 L 61.76 21.80 Z" />
<path fill="#8ba4b6" opacity="1.00" d=" M 173.90 21.94 C 174.56 21.62 175.89 20.98 176.56 20.66 C 177.01 20.83 177.92 21.16 178.37 21.32 L 178.77 21.63 C 177.44 22.47 175.93 23.08 174.33 22.97 L 173.74 22.54 L 173.90 21.94 Z" />
</g>
<g id="#65569cff">
<path fill="#65569c" opacity="1.00" d=" M 115.70 22.29 L 116.12 22.12 C 116.43 22.05 117.05 21.91 117.36 21.84 L 118.55 21.59 C 118.86 22.41 119.48 24.04 119.79 24.85 C 117.35 24.61 114.92 24.24 112.51 23.81 C 113.57 23.29 114.63 22.79 115.70 22.29 Z" />
<path fill="#65569c" opacity="1.00" d=" M 122.14 22.11 C 123.44 22.78 123.43 23.46 122.11 24.14 C 120.81 23.47 120.82 22.80 122.14 22.11 Z" />
<path fill="#65569c" opacity="1.00" d=" M 59.76 23.22 L 60.23 23.00 C 60.55 22.85 61.20 22.57 61.53 22.42 L 61.97 22.91 C 62.52 23.52 63.63 24.73 64.18 25.34 C 61.65 25.23 59.13 25.05 56.61 24.84 C 57.65 24.29 58.70 23.75 59.76 23.22 Z" />
<path fill="#65569c" opacity="1.00" d=" M 66.14 23.11 C 67.44 23.78 67.43 24.46 66.11 25.14 C 64.81 24.47 64.82 23.80 66.14 23.11 Z" />
<path fill="#65569c" opacity="1.00" d=" M 171.86 23.06 L 172.37 22.83 C 172.71 22.75 173.40 22.61 173.74 22.54 L 174.33 22.97 C 174.50 23.98 174.66 25.00 174.64 26.02 C 172.55 25.90 170.52 25.32 168.50 24.85 C 169.61 24.23 170.73 23.64 171.86 23.06 Z" />
<path fill="#65569c" opacity="1.00" d=" M 178.14 23.11 C 179.44 23.78 179.43 24.46 178.11 25.14 C 176.81 24.47 176.82 23.80 178.14 23.11 Z" />
<path fill="#65569c" opacity="1.00" d=" M 3.54 23.39 L 4.23 23.63 C 4.58 23.66 5.26 23.73 5.60 23.76 L 6.62 23.57 C 6.93 24.27 7.54 25.67 7.85 26.38 C 5.56 26.27 3.27 26.19 0.98 26.15 C 1.83 25.23 2.69 24.31 3.54 23.39 Z" />
<path fill="#65569c" opacity="1.00" d=" M 10.14 24.11 C 11.44 24.78 11.43 25.46 10.11 26.14 C 8.81 25.47 8.82 24.80 10.14 24.11 Z" />
</g>
<g id="#4474c8ff">
<path fill="#4474c8" opacity="1.00" d=" M 29.19 27.21 C 30.87 26.69 31.79 29.58 29.98 29.96 C 28.29 30.46 27.39 27.63 29.19 27.21 Z" />
</g>
<g id="#608fe4ff">
<path fill="#608fe4" opacity="1.00" d=" M 147.63 31.93 C 148.59 31.13 149.54 31.24 150.48 32.25 L 150.37 32.92 C 149.47 33.20 147.19 33.57 147.63 31.93 Z" />
</g>
<g id="#4c80ccff">
<path fill="#4c80cc" opacity="1.00" d=" M 212.66 42.28 C 213.33 41.91 214.68 41.16 215.35 40.78 C 215.40 43.06 215.42 45.33 215.44 47.61 C 214.46 45.86 213.55 44.08 212.66 42.28 Z" />
</g>
<g id="#4779cfff">
<path fill="#4779cf" opacity="1.00" d=" M 37.47 45.09 C 40.17 44.70 42.86 43.76 45.61 43.95 C 48.09 44.64 50.21 46.18 52.41 47.48 C 50.11 47.00 47.84 46.43 45.59 45.77 C 45.24 46.91 44.89 48.04 44.50 49.17 L 43.93 49.35 L 42.94 49.57 C 42.63 48.18 42.33 46.78 42.06 45.38 C 40.53 45.31 39.00 45.21 37.47 45.09 Z" />
</g>
<g id="#5083d1ff">
<path fill="#5083d1" opacity="1.00" d=" M 96.64 45.62 C 98.43 45.05 100.22 44.45 102.03 43.95 C 102.00 44.77 101.94 46.41 101.91 47.24 C 100.15 46.69 98.40 46.15 96.64 45.62 Z" />
</g>
<g id="#477ed0ff">
<path fill="#477ed0" opacity="1.00" d=" M 151.45 44.98 C 157.08 44.19 162.77 43.95 168.42 44.63 C 164.05 45.70 159.52 45.84 155.09 45.05 C 155.69 45.88 156.29 46.71 156.88 47.55 C 155.05 46.74 153.25 45.87 151.45 44.98 Z" />
</g>
<g id="#417fcbff">
<path fill="#417fcb" opacity="1.00" d=" M 57.34 47.07 C 59.28 46.39 61.22 45.69 63.14 44.96 C 62.01 46.60 60.89 48.25 59.82 49.92 C 64.66 50.14 69.50 50.33 74.35 50.47 C 69.16 51.34 63.81 51.93 58.59 50.83 C 58.18 49.58 57.76 48.33 57.34 47.07 Z" />
<path fill="#417fcb" opacity="1.00" d=" M 169.37 47.07 C 171.30 46.39 173.23 45.69 175.14 44.96 C 174.02 46.60 172.89 48.24 171.82 49.91 C 176.65 50.17 181.47 50.44 186.31 50.64 C 181.09 51.41 175.82 51.58 170.58 51.03 C 170.18 49.71 169.78 48.39 169.37 47.07 Z" />
</g>
<g id="#4180cbff">
<path fill="#4180cb" opacity="1.00" d=" M 131.62 47.02 C 132.28 46.37 132.96 45.74 133.65 45.10 C 135.31 47.25 136.91 49.62 139.38 50.91 L 139.96 51.17 C 137.76 51.00 135.56 50.85 133.37 50.72 C 132.83 49.47 132.24 48.23 131.62 47.02 Z" />
</g>
<g id="#5790d3ff">
<path fill="#5790d3" opacity="1.00" d=" M 209.53 45.12 C 210.95 42.94 212.70 47.02 210.10 46.41 C 209.96 46.09 209.68 45.44 209.53 45.12 Z" />
</g>
<g id="#4271cdff">
<path fill="#4271cd" opacity="1.00" d=" M 216.51 44.99 C 218.39 44.95 222.13 44.87 224.00 44.83 L 224.00 48.84 C 221.29 47.94 218.07 47.70 216.51 44.99 Z" />
</g>
<g id="#4080cbff">
<path fill="#4080cb" opacity="1.00" d=" M 1.52 50.07 C 3.40 48.48 5.54 47.25 7.66 46.00 C 6.82 47.38 5.98 48.75 5.12 50.12 C 9.54 50.30 13.96 50.52 18.38 50.66 C 12.80 51.48 6.92 52.21 1.52 50.07 Z" />
</g>
<g id="#5676acff">
<path fill="#5676ac" opacity="1.00" d=" M 46.59 49.26 C 49.82 49.44 53.00 49.99 56.19 50.48 C 52.99 50.07 49.80 49.61 46.59 49.26 Z" />
</g>
<g id="#417fcaff">
<path fill="#417fca" opacity="1.00" d=" M 114.04 48.61 C 119.41 49.66 124.87 50.08 130.32 50.63 C 125.09 51.39 119.75 51.84 114.53 50.81 C 114.41 50.26 114.16 49.16 114.04 48.61 Z" />
</g>
<g id="#3c6394ff">
<path fill="#3c6394" opacity="1.00" d=" M 153.89 49.20 C 156.44 48.88 159.00 49.19 161.53 49.55 C 159.83 49.99 156.42 50.87 154.72 51.32 L 154.02 51.38 C 153.99 50.83 153.92 49.74 153.89 49.20 Z" />
</g>
<g id="#2e5ea5ff">
<path fill="#2e5ea5" opacity="1.00" d=" M 162.07 49.13 C 163.20 48.21 164.97 46.84 166.37 48.03 C 166.86 49.44 164.62 49.66 163.69 49.69 C 163.29 49.55 162.47 49.27 162.07 49.13 Z" />
</g>
<g id="#4f7ca9ff">
<path fill="#4f7ca9" opacity="1.00" d=" M 28.07 51.34 C 33.03 50.85 38.04 50.52 42.94 49.57 L 43.93 49.35 C 43.21 49.99 42.51 50.65 41.82 51.32 C 37.23 51.37 32.65 51.41 28.07 51.34 Z" />
</g>
<g id="#405e4fff">
<path fill="#405e4f" opacity="1.00" d=" M 43.93 49.35 L 44.50 49.17 C 45.20 49.17 45.89 49.21 46.59 49.26 C 49.80 49.61 52.99 50.07 56.19 50.48 C 56.99 50.59 57.79 50.71 58.59 50.83 C 63.81 51.93 69.16 51.34 74.35 50.47 C 75.14 50.47 76.70 50.48 77.48 50.48 C 77.89 50.82 78.71 51.50 79.11 51.84 L 79.49 52.19 C 77.26 52.07 75.02 52.14 72.80 52.37 C 70.73 52.54 68.66 52.81 66.60 53.04 C 60.99 52.86 55.39 52.70 49.78 52.72 C 49.30 52.66 48.33 52.53 47.85 52.47 C 47.27 52.41 46.10 52.30 45.52 52.24 C 44.12 52.10 42.71 51.96 41.31 51.81 L 41.82 51.32 C 42.51 50.65 43.21 49.99 43.93 49.35 Z" />
</g>
<g id="#5278a4ff">
<path fill="#5278a4" opacity="1.00" d=" M 85.45 50.65 C 89.68 50.50 93.89 50.07 98.10 49.60 C 97.99 50.04 97.76 50.92 97.65 51.36 C 95.22 51.75 92.79 52.16 90.35 52.50 L 89.48 52.60 C 88.07 52.20 86.61 51.98 85.14 51.98 C 84.76 51.67 84.00 51.05 83.62 50.73 C 84.07 50.71 84.99 50.67 85.45 50.65 Z" />
</g>
<g id="#305f7aff">
<path fill="#305f7a" opacity="1.00" d=" M 98.10 49.60 C 98.50 49.56 99.29 49.49 99.69 49.45 L 100.20 49.54 C 99.93 50.03 99.38 51.03 99.11 51.53 L 98.34 51.75 L 97.65 51.36 C 97.76 50.92 97.99 50.04 98.10 49.60 Z" />
</g>
<g id="#4971abff">
<path fill="#4971ab" opacity="1.00" d=" M 99.69 49.45 C 103.85 49.49 108.00 49.90 112.12 50.51 C 108.14 50.28 104.15 50.13 100.20 49.54 L 99.69 49.45 Z" />
</g>
<g id="#5a7bacff">
<path fill="#5a7bac" opacity="1.00" d=" M 139.38 50.91 C 144.27 51.00 149.08 49.97 153.89 49.20 C 153.92 49.74 153.99 50.83 154.02 51.38 C 149.33 51.38 144.64 51.43 139.96 51.17 L 139.38 50.91 Z" />
</g>
<g id="#486f99ff">
<path fill="#486f99" opacity="1.00" d=" M 196.21 50.63 C 205.47 50.39 214.72 49.47 224.00 49.81 L 224.00 50.61 C 219.55 50.80 215.10 50.96 210.68 51.51 C 210.27 51.58 209.46 51.72 209.06 51.79 C 208.73 51.84 208.09 51.93 207.76 51.97 C 207.31 52.08 206.40 52.29 205.95 52.40 C 205.32 52.34 204.05 52.21 203.42 52.14 L 202.44 52.00 C 200.65 51.66 197.08 50.97 195.30 50.63 L 196.21 50.63 Z" />
</g>
<g id="#4b6446ff">
<path fill="#4b6446" opacity="1.00" d=" M 0.00 51.41 C 0.50 50.95 1.00 50.51 1.52 50.07 C 6.92 52.21 12.80 51.48 18.38 50.66 C 18.87 50.65 19.84 50.63 20.33 50.62 C 20.95 50.75 22.17 51.03 22.79 51.17 L 23.39 51.31 C 23.24 51.81 22.93 52.82 22.78 53.32 C 22.24 52.96 21.18 52.23 20.64 51.86 C 19.48 50.69 17.82 51.58 16.72 52.34 C 14.69 52.68 12.66 53.02 10.64 53.37 C 7.08 53.01 3.54 52.48 0.00 51.99 L 0.00 51.41 Z" />
</g>
<g id="#385848ff">
<path fill="#385848" opacity="1.00" d=" M 99.11 51.53 C 99.38 51.03 99.93 50.03 100.20 49.54 C 104.15 50.13 108.14 50.28 112.12 50.51 C 112.92 50.60 113.73 50.70 114.53 50.81 C 119.75 51.84 125.09 51.39 130.32 50.63 C 131.08 50.65 132.60 50.70 133.37 50.72 C 135.56 50.85 137.76 51.00 139.96 51.17 C 144.64 51.43 149.33 51.38 154.02 51.38 C 153.19 52.07 152.36 52.77 151.52 53.45 C 145.67 52.96 139.81 52.59 133.94 52.53 C 133.62 52.35 132.98 51.98 132.66 51.79 C 131.42 50.72 129.81 51.58 128.72 52.39 C 126.69 52.67 124.67 52.96 122.65 53.25 C 119.09 53.00 115.56 52.49 111.99 52.43 C 110.45 52.46 107.37 52.51 105.82 52.54 C 104.46 52.36 103.09 52.17 101.73 51.94 C 101.07 51.84 99.77 51.63 99.11 51.53 Z" />
</g>
<g id="#3e5a47ff">
<path fill="#3e5a47" opacity="1.00" d=" M 154.72 51.32 C 156.42 50.87 159.83 49.99 161.53 49.55 C 161.58 51.23 163.53 51.30 164.75 51.01 C 166.69 51.00 168.64 50.98 170.58 51.03 C 175.82 51.58 181.09 51.41 186.31 50.64 C 187.02 50.62 188.45 50.59 189.16 50.58 C 191.20 50.57 193.24 50.59 195.30 50.63 C 197.08 50.97 200.65 51.66 202.44 52.00 C 202.00 52.23 201.13 52.70 200.70 52.94 C 197.08 52.73 193.46 52.65 189.86 52.25 C 189.54 52.18 188.89 52.05 188.57 51.98 C 187.33 51.46 185.97 51.56 184.74 52.07 C 182.62 52.55 180.49 52.96 178.36 53.30 C 177.38 53.19 176.42 53.03 175.45 52.97 C 168.53 52.47 161.61 52.07 154.72 51.32 Z" />
</g>
<g id="#648aadff">
<path fill="#648aad" opacity="1.00" d=" M 161.53 49.55 L 162.07 49.13 C 162.47 49.27 163.29 49.55 163.69 49.69 C 163.96 50.02 164.49 50.68 164.75 51.01 C 163.53 51.30 161.58 51.23 161.53 49.55 Z" />
</g>
<g id="#355753ff">
<path fill="#355753" opacity="1.00" d=" M 210.68 51.51 C 215.10 50.96 219.55 50.80 224.00 50.61 L 224.00 52.34 C 220.12 52.36 216.23 52.50 212.39 51.93 C 211.96 51.82 211.10 51.61 210.68 51.51 Z" />
</g>
<g id="#93bd6bff">
<path fill="#93bd6b" opacity="1.00" d=" M 16.72 52.34 C 17.82 51.58 19.48 50.69 20.64 51.86 C 19.86 53.37 17.95 52.91 16.72 52.34 Z" />
<path fill="#93bd6b" opacity="1.00" d=" M 128.72 52.39 C 129.81 51.58 131.42 50.72 132.66 51.79 C 131.91 53.33 129.97 52.94 128.72 52.39 Z" />
<path fill="#93bd6b" opacity="1.00" d=" M 184.74 52.07 C 185.97 51.56 187.33 51.46 188.57 51.98 C 187.86 53.49 185.50 53.59 184.74 52.07 Z" />
</g>
<g id="#204337ff">
<path fill="#204337" opacity="1.00" d=" M 22.79 51.17 C 24.55 51.27 26.31 51.30 28.07 51.34 C 32.65 51.41 37.23 51.37 41.82 51.32 L 41.31 51.81 C 40.68 52.42 40.05 53.02 39.40 53.61 C 34.06 52.90 28.64 52.63 23.39 51.31 L 22.79 51.17 Z" />
</g>
<g id="#79a658ff">
<path fill="#79a658" opacity="1.00" d=" M 72.80 52.37 C 75.02 52.14 77.26 52.07 79.49 52.19 C 80.69 52.40 81.85 52.32 82.99 51.93 C 83.31 52.19 83.96 52.69 84.28 52.94 C 85.87 53.72 87.63 54.05 89.38 54.20 C 89.99 54.10 91.22 53.88 91.83 53.77 C 92.57 56.55 96.44 54.55 93.73 52.80 C 95.27 52.49 96.80 52.13 98.34 51.75 C 97.55 54.63 101.44 54.36 101.73 51.94 C 103.09 52.17 104.46 52.36 105.82 52.54 C 108.25 53.14 110.63 53.92 112.99 54.73 C 112.66 53.97 112.32 53.20 111.99 52.43 C 115.56 52.49 119.09 53.00 122.65 53.25 C 121.32 54.16 120.00 55.08 118.68 56.00 L 66.01 56.00 C 69.46 55.12 72.86 54.05 76.29 53.07 C 75.13 52.82 73.97 52.57 72.80 52.37 Z" />
</g>
<g id="#446460ff">
<path fill="#446460" opacity="1.00" d=" M 83.62 50.73 C 84.00 51.05 84.76 51.67 85.14 51.98 L 85.08 52.68 L 84.28 52.94 C 83.96 52.69 83.31 52.19 82.99 51.93 C 83.15 51.63 83.46 51.03 83.62 50.73 Z" />
</g>
<g id="#194338ff">
<path fill="#194338" opacity="1.00" d=" M 90.35 52.50 C 92.79 52.16 95.22 51.75 97.65 51.36 L 98.34 51.75 C 96.80 52.13 95.27 52.49 93.73 52.80 C 93.29 52.88 92.41 53.04 91.97 53.12 C 91.57 52.96 90.75 52.65 90.35 52.50 Z" />
</g>
<g id="#729b57ff">
<path fill="#729b57" opacity="1.00" d=" M 154.02 51.38 L 154.72 51.32 C 161.61 52.07 168.53 52.47 175.45 52.97 C 174.94 53.91 174.63 54.94 174.47 56.00 L 161.17 56.00 C 160.62 55.24 159.52 53.72 158.97 52.96 C 157.61 54.06 156.20 55.10 154.70 56.00 L 148.27 56.00 C 149.38 55.18 150.46 54.33 151.52 53.45 C 152.36 52.77 153.19 52.07 154.02 51.38 Z" />
</g>
<g id="#567b4eff">
<path fill="#567b4e" opacity="1.00" d=" M 209.06 51.79 C 209.46 51.72 210.27 51.58 210.68 51.51 C 211.10 51.61 211.96 51.82 212.39 51.93 C 212.15 54.08 209.62 53.34 209.06 51.79 Z" />
</g>
<g id="#77a35dff">
<path fill="#77a35d" opacity="1.00" d=" M 0.00 51.99 C 3.54 52.48 7.08 53.01 10.64 53.37 C 9.33 54.24 8.03 55.12 6.73 56.00 L 0.00 56.00 L 0.00 51.99 Z" />
</g>
<g id="#6a9a60ff">
<path fill="#6a9a60" opacity="1.00" d=" M 10.64 53.37 C 12.66 53.02 14.69 52.68 16.72 52.34 C 17.95 52.91 19.86 53.37 20.64 51.86 C 21.18 52.23 22.24 52.96 22.78 53.32 C 22.58 53.99 22.19 55.33 21.99 56.00 L 21.46 56.00 C 20.22 55.82 17.73 55.47 16.49 55.30 C 15.83 55.47 14.51 55.82 13.84 56.00 L 6.73 56.00 C 8.03 55.12 9.33 54.24 10.64 53.37 Z" />
<path fill="#6a9a60" opacity="1.00" d=" M 122.65 53.25 C 124.67 52.96 126.69 52.67 128.72 52.39 C 129.97 52.94 131.91 53.33 132.66 51.79 C 132.98 51.98 133.62 52.35 133.94 52.53 C 134.07 53.40 134.33 55.13 134.46 56.00 L 133.65 56.00 C 132.36 55.81 129.78 55.44 128.49 55.26 C 127.83 55.44 126.50 55.81 125.84 56.00 L 118.68 56.00 C 120.00 55.08 121.32 54.16 122.65 53.25 Z" />
</g>
<g id="#78a661ff">
<path fill="#78a661" opacity="1.00" d=" M 23.39 51.31 C 28.64 52.63 34.06 52.90 39.40 53.61 C 38.46 54.45 37.47 55.24 36.46 56.00 L 21.99 56.00 C 22.19 55.33 22.58 53.99 22.78 53.32 C 22.93 52.82 23.24 51.81 23.39 51.31 Z" />
</g>
<g id="#6b9f45ff">
<path fill="#6b9f45" opacity="1.00" d=" M 39.40 53.61 C 40.05 53.02 40.68 52.42 41.31 51.81 C 42.71 51.96 44.12 52.10 45.52 52.24 C 44.82 53.50 44.12 54.76 43.38 56.00 L 36.46 56.00 C 37.47 55.24 38.46 54.45 39.40 53.61 Z" />
</g>
<g id="#81ac5cff">
<path fill="#81ac5c" opacity="1.00" d=" M 45.52 52.24 C 46.10 52.30 47.27 52.41 47.85 52.47 C 47.93 53.68 48.18 54.88 48.64 56.00 L 43.38 56.00 C 44.12 54.76 44.82 53.50 45.52 52.24 Z" />
</g>
<g id="#669043ff">
<path fill="#669043" opacity="1.00" d=" M 47.85 52.47 C 48.33 52.53 49.30 52.66 49.78 52.72 C 49.78 53.54 49.76 55.18 49.75 56.00 L 48.64 56.00 C 48.18 54.88 47.93 53.68 47.85 52.47 Z" />
</g>
<g id="#77a15fff">
<path fill="#77a15f" opacity="1.00" d=" M 49.78 52.72 C 55.39 52.70 60.99 52.86 66.60 53.04 C 65.31 54.03 64.02 55.01 62.74 56.00 L 49.75 56.00 C 49.76 55.18 49.78 53.54 49.78 52.72 Z" />
</g>
<g id="#659766ff">
<path fill="#659766" opacity="1.00" d=" M 66.60 53.04 C 68.66 52.81 70.73 52.54 72.80 52.37 C 73.97 52.57 75.13 52.82 76.29 53.07 C 72.86 54.05 69.46 55.12 66.01 56.00 L 62.74 56.00 C 64.02 55.01 65.31 54.03 66.60 53.04 Z" />
</g>
<g id="#1c3d42ff">
<path fill="#1c3d42" opacity="1.00" d=" M 85.14 51.98 C 86.61 51.98 88.07 52.20 89.48 52.60 C 89.32 52.92 89.00 53.54 88.83 53.86 C 87.54 53.60 86.29 53.21 85.08 52.68 L 85.14 51.98 Z" />
</g>
<g id="#497060ff">
<path fill="#497060" opacity="1.00" d=" M 89.48 52.60 L 90.35 52.50 C 90.75 52.65 91.57 52.96 91.97 53.12 L 91.83 53.77 C 91.22 53.88 89.99 54.10 89.38 54.20 L 88.83 53.86 C 89.00 53.54 89.32 52.92 89.48 52.60 Z" />
</g>
<g id="#5c8d48ff">
<path fill="#5c8d48" opacity="1.00" d=" M 98.34 51.75 L 99.11 51.53 C 99.77 51.63 101.07 51.84 101.73 51.94 C 101.44 54.36 97.55 54.63 98.34 51.75 Z" />
</g>
<g id="#67976dff">
<path fill="#67976d" opacity="1.00" d=" M 105.82 52.54 C 107.37 52.51 110.45 52.46 111.99 52.43 C 112.32 53.20 112.66 53.97 112.99 54.73 C 110.63 53.92 108.25 53.14 105.82 52.54 Z" />
</g>
<g id="#7aa564ff">
<path fill="#7aa564" opacity="1.00" d=" M 133.94 52.53 C 139.81 52.59 145.67 52.96 151.52 53.45 C 150.46 54.33 149.38 55.18 148.27 56.00 L 134.46 56.00 C 134.33 55.13 134.07 53.40 133.94 52.53 Z" />
</g>
<g id="#8bb561fe">
<path fill="#8bb561" opacity="1.00" d=" M 175.45 52.97 C 176.42 53.03 177.38 53.19 178.36 53.30 C 177.62 54.31 176.77 55.21 175.81 56.00 L 174.47 56.00 C 174.63 54.94 174.94 53.91 175.45 52.97 Z" />
</g>
<g id="#699960ff">
<path fill="#699960" opacity="1.00" d=" M 178.36 53.30 C 180.49 52.96 182.62 52.55 184.74 52.07 C 185.50 53.59 187.86 53.49 188.57 51.98 C 188.89 52.05 189.54 52.18 189.86 52.25 C 190.11 53.19 190.61 55.06 190.87 56.00 L 189.71 56.00 C 187.13 55.96 184.56 55.96 181.98 56.00 L 175.81 56.00 C 176.77 55.21 177.62 54.31 178.36 53.30 Z" />
</g>
<g id="#7ba45efe">
<path fill="#7ba45e" opacity="1.00" d=" M 189.86 52.25 C 193.46 52.65 197.08 52.73 200.70 52.94 C 201.65 53.70 202.89 54.08 204.09 53.64 C 204.53 53.53 205.40 53.31 205.84 53.19 C 206.79 54.23 209.07 53.37 207.76 51.97 C 208.09 51.93 208.73 51.84 209.06 51.79 C 209.62 53.34 212.15 54.08 212.39 51.93 C 216.23 52.50 220.12 52.36 224.00 52.34 L 224.00 56.00 L 190.87 56.00 C 190.61 55.06 190.11 53.19 189.86 52.25 Z" />
</g>
<g id="#49744bff">
<path fill="#49744b" opacity="1.00" d=" M 202.44 52.00 L 203.42 52.14 C 203.58 52.52 203.92 53.27 204.09 53.64 C 202.89 54.08 201.65 53.70 200.70 52.94 C 201.13 52.70 202.00 52.23 202.44 52.00 Z" />
</g>
<g id="#073126ff">
<path fill="#073126" opacity="1.00" d=" M 203.42 52.14 C 204.05 52.21 205.32 52.34 205.95 52.40 L 205.84 53.19 C 205.40 53.31 204.53 53.53 204.09 53.64 C 203.92 53.27 203.58 52.52 203.42 52.14 Z" />
</g>
<g id="#355e47ff">
<path fill="#355e47" opacity="1.00" d=" M 205.95 52.40 C 206.40 52.29 207.31 52.08 207.76 51.97 C 209.07 53.37 206.79 54.23 205.84 53.19 L 205.95 52.40 Z" />
</g>
<g id="#8bb183ff">
<path fill="#8bb183" opacity="1.00" d=" M 84.28 52.94 L 85.08 52.68 C 86.29 53.21 87.54 53.60 88.83 53.86 L 89.38 54.20 C 87.63 54.05 85.87 53.72 84.28 52.94 Z" />
</g>
<g id="#88b379ff">
<path fill="#88b379" opacity="1.00" d=" M 91.97 53.12 C 92.41 53.04 93.29 52.88 93.73 52.80 C 96.44 54.55 92.57 56.55 91.83 53.77 L 91.97 53.12 Z" />
</g>
<g id="#89b252ff">
<path fill="#89b252" opacity="1.00" d=" M 154.70 56.00 C 156.20 55.10 157.61 54.06 158.97 52.96 C 159.52 53.72 160.62 55.24 161.17 56.00 L 154.70 56.00 Z" />
</g>
<g id="#83ae61ff">
<path fill="#83ae61" opacity="1.00" d=" M 13.84 56.00 C 14.51 55.82 15.83 55.47 16.49 55.30 C 17.73 55.47 20.22 55.82 21.46 56.00 L 13.84 56.00 Z" />
<path fill="#83ae61" opacity="1.00" d=" M 125.84 56.00 C 126.50 55.81 127.83 55.44 128.49 55.26 C 129.78 55.44 132.36 55.81 133.65 56.00 L 125.84 56.00 Z" />
<path fill="#83ae61" opacity="1.00" d=" M 181.98 56.00 C 184.56 55.96 187.13 55.96 189.71 56.00 L 181.98 56.00 Z" />
</g>
</svg>
