<?xml version="1.0" encoding="UTF-8" ?>
<!DOCTYPE svg PUBLIC "-//W3C//DTD SVG 1.1//EN" "http://www.w3.org/Graphics/SVG/1.1/DTD/svg11.dtd">
<svg width="224pt" height="56pt" viewBox="0 0 224 56" version="1.1" xmlns="http://www.w3.org/2000/svg">
<g id="#3c6bbeff">
<path fill="#3c6bbe" opacity="1.00" d=" M 0.00 0.00 L 25.29 0.00 C 26.29 0.63 27.28 1.27 28.26 1.92 C 27.88 2.47 27.13 3.58 26.75 4.13 C 20.68 4.02 14.35 5.68 8.51 3.36 C 9.45 5.17 10.42 6.97 10.99 8.93 C 8.99 11.13 6.45 12.74 4.15 14.61 C 8.03 14.27 11.92 14.14 15.81 14.17 C 14.58 12.49 13.26 10.84 12.35 8.95 C 13.59 5.16 17.98 5.80 21.11 6.00 C 27.12 7.05 32.87 1.35 38.66 4.64 C 43.30 7.03 48.78 7.71 53.82 6.27 C 56.05 4.98 57.60 2.83 59.37 1.01 C 54.61 2.85 49.75 5.15 44.46 4.25 C 39.67 3.32 35.16 1.28 30.47 0.00 L 85.37 0.00 C 79.75 5.43 71.54 2.78 64.75 2.22 C 65.59 4.24 66.46 6.29 66.71 8.48 C 64.69 10.39 62.34 11.92 60.13 13.60 C 64.02 13.26 67.91 13.14 71.81 13.17 C 70.58 11.49 69.26 9.84 68.35 7.95 C 70.42 2.91 76.55 4.81 80.56 5.78 C 83.67 3.50 86.81 0.75 91.02 1.03 C 95.09 1.84 98.08 5.50 102.32 5.72 C 105.38 6.06 108.45 6.26 111.52 6.50 C 111.72 5.55 111.91 4.61 112.11 3.66 C 105.85 3.40 99.31 3.47 93.84 0.00 L 138.36 0.00 C 137.75 0.59 136.53 1.78 135.92 2.38 C 130.86 2.08 125.80 1.85 120.76 1.26 C 121.58 3.28 122.47 5.30 122.71 7.48 C 120.69 9.39 118.34 10.92 116.13 12.60 C 120.01 12.26 123.91 12.14 127.81 12.17 C 126.58 10.49 125.26 8.84 124.35 6.95 C 126.61 1.67 133.04 3.93 137.22 5.03 C 138.45 3.34 139.66 1.62 140.99 0.00 L 151.34 0.00 C 152.62 1.70 153.80 3.57 155.58 4.80 C 159.46 5.83 163.50 6.17 167.47 6.72 C 167.70 5.58 167.94 4.44 168.17 3.30 C 164.92 3.50 161.67 3.70 158.42 3.87 C 157.22 2.57 156.02 1.26 154.78 0.00 L 197.41 0.00 C 192.53 4.89 185.25 1.96 179.57 4.68 C 178.40 6.13 178.04 8.08 177.29 9.77 C 175.49 11.00 173.69 12.23 171.89 13.45 C 175.86 13.23 179.84 13.12 183.82 13.20 C 182.59 11.51 181.27 9.85 180.35 7.95 C 182.42 2.91 188.55 4.81 192.56 5.78 C 195.67 3.50 198.81 0.75 203.02 1.04 C 207.10 1.82 210.07 5.52 214.32 5.72 C 217.54 6.07 220.77 6.22 224.00 6.40 L 224.00 9.28 C 220.50 9.61 216.89 9.60 213.51 10.60 C 211.33 11.78 209.77 13.80 207.98 15.46 C 213.46 14.82 218.57 12.59 224.00 11.66 L 224.00 27.74 C 219.33 27.94 214.56 26.85 211.88 22.77 C 214.65 21.17 217.47 19.66 220.27 18.12 C 216.78 18.83 213.30 19.58 209.82 20.32 C 211.79 23.97 214.21 27.33 216.79 30.58 C 216.18 32.00 215.55 33.41 214.93 34.83 C 212.98 33.95 211.03 33.06 209.09 32.16 C 208.78 33.09 208.47 34.02 208.16 34.94 C 212.89 36.82 217.82 38.10 222.73 39.41 C 221.12 37.49 218.03 36.02 218.12 33.22 C 219.64 31.00 222.00 29.59 224.00 27.85 L 224.00 45.14 C 215.55 44.77 206.99 42.48 198.57 44.31 C 202.83 45.39 207.11 46.50 211.47 47.09 C 215.67 47.19 219.83 46.30 224.00 45.93 L 224.00 50.51 C 221.01 51.14 218.06 51.84 215.04 52.26 C 214.71 52.14 214.06 51.90 213.73 51.78 C 212.26 53.16 210.83 54.58 209.40 56.00 L 205.30 56.00 C 200.48 53.89 195.95 51.23 191.37 48.66 C 196.09 43.46 198.97 36.23 206.22 33.87 C 204.94 31.39 203.74 28.87 202.46 26.39 C 202.14 28.96 203.17 32.96 199.96 34.00 C 195.65 35.34 191.16 33.55 186.83 33.05 C 186.74 25.75 193.95 26.81 198.66 26.20 C 198.13 24.91 197.60 23.63 197.07 22.34 C 199.01 20.66 200.98 19.00 202.97 17.37 C 198.72 17.98 194.42 17.79 190.21 16.95 C 192.77 18.86 195.26 20.90 197.25 23.43 C 193.31 24.84 189.32 26.09 185.31 27.30 C 185.59 30.07 185.88 32.85 186.17 35.62 C 189.14 35.89 192.11 36.17 195.08 36.45 C 194.89 41.65 191.60 45.47 187.85 48.54 C 191.70 50.68 195.66 52.62 199.49 54.80 C 198.12 55.22 196.74 55.62 195.36 56.00 L 181.35 56.00 C 179.44 54.10 177.95 50.96 175.03 50.58 C 172.47 50.63 169.93 50.77 167.40 51.02 C 164.16 51.49 161.00 52.26 157.86 53.14 C 156.20 53.33 154.60 54.26 154.25 56.00 L 150.21 56.00 C 144.56 52.03 138.79 48.15 132.31 45.66 C 131.92 46.22 131.15 47.33 130.77 47.89 C 133.26 49.69 135.74 51.52 138.08 53.52 C 138.19 52.28 138.30 51.04 138.42 49.81 C 140.85 51.01 143.25 52.26 145.63 53.56 C 144.00 54.17 140.75 55.39 139.13 56.00 L 124.75 56.00 L 124.22 55.01 C 123.34 53.37 122.66 51.58 121.48 50.13 C 118.18 49.62 114.82 50.30 111.52 50.62 C 108.68 51.02 105.90 51.68 103.08 52.11 C 102.76 52.03 102.11 51.89 101.79 51.81 C 100.25 53.22 98.72 54.65 97.12 56.00 L 69.50 56.00 C 67.53 54.11 65.45 52.30 63.05 50.98 C 61.85 50.30 60.65 49.64 59.44 48.99 C 60.69 48.26 61.91 47.48 63.13 46.70 C 61.97 45.78 60.79 44.88 59.60 43.99 C 58.97 45.98 58.31 47.95 57.66 49.93 C 57.08 50.15 55.93 50.60 55.35 50.82 C 52.10 51.56 48.80 52.30 45.88 53.97 C 46.49 52.90 47.09 51.82 47.66 50.72 L 46.47 51.00 C 45.27 51.25 44.07 51.49 42.88 51.72 C 42.62 52.33 42.12 53.55 41.86 54.15 C 41.66 54.61 41.25 55.54 41.04 56.00 L 15.53 56.00 C 13.05 53.87 10.64 51.66 8.06 49.66 C 7.48 49.20 6.90 48.75 6.32 48.30 C 7.56 47.66 8.79 47.01 10.03 46.37 C 10.37 42.88 10.81 39.39 11.45 35.94 C 7.64 36.34 3.82 36.73 0.00 37.11 L 0.00 30.86 C 3.85 29.58 7.71 28.34 11.54 26.99 C 11.76 25.19 11.62 23.23 12.51 21.59 C 14.73 19.86 17.44 18.96 19.95 17.76 C 13.33 19.34 6.40 20.57 0.00 17.44 L 0.00 0.00 M 138.60 9.18 C 141.01 10.52 143.49 11.70 146.03 12.77 C 145.37 14.05 144.71 15.32 144.05 16.59 C 147.05 16.52 150.04 16.59 153.03 16.83 C 149.16 15.49 146.74 12.34 144.37 9.22 C 142.48 8.84 140.51 9.18 138.60 9.18 M 157.80 9.19 C 156.05 10.69 154.37 12.29 152.71 13.90 C 158.19 13.25 164.34 9.91 169.47 13.42 C 169.69 12.55 169.91 11.67 170.14 10.80 C 166.32 8.66 161.93 9.73 157.80 9.19 M 98.76 13.26 C 97.81 13.91 96.84 14.56 95.89 15.21 C 102.12 13.26 109.15 13.71 114.98 10.56 C 109.85 9.87 101.83 7.81 98.76 13.26 M 43.15 10.50 C 43.72 11.54 44.30 12.57 44.88 13.60 C 43.17 14.44 41.46 15.27 39.76 16.13 C 46.14 14.83 53.09 14.78 58.95 11.61 C 53.77 10.37 48.43 10.48 43.15 10.50 M 118.66 17.05 C 111.60 14.56 104.83 18.52 98.18 20.28 C 99.29 24.37 101.90 27.62 105.10 30.33 C 104.34 31.86 103.54 33.37 102.82 34.92 C 100.91 33.98 99.03 33.03 97.14 32.07 C 96.82 32.99 96.49 33.92 96.17 34.84 C 100.85 37.06 105.91 38.15 110.95 39.18 C 108.88 37.36 105.00 35.77 106.16 32.35 C 111.37 28.06 117.42 24.81 123.83 22.70 C 123.79 20.91 123.81 19.10 124.19 17.34 C 126.59 15.94 129.34 15.32 131.96 14.48 C 131.69 14.17 131.15 13.55 130.89 13.25 C 126.83 14.39 123.04 17.61 118.66 17.05 M 154.14 19.15 C 155.25 23.28 157.84 26.61 161.11 29.33 C 160.40 30.70 159.70 32.08 159.00 33.45 C 156.33 32.67 153.59 32.05 150.79 32.18 C 149.62 29.71 148.54 27.17 146.67 25.12 C 147.16 27.17 147.66 29.22 148.17 31.26 C 142.14 35.08 134.86 33.93 128.69 31.18 C 129.55 32.69 130.42 34.20 131.26 35.72 C 132.95 35.86 136.31 36.13 137.99 36.26 C 137.69 39.92 134.66 45.34 139.77 46.44 C 140.79 43.28 141.08 39.76 142.97 36.96 C 144.84 35.33 147.34 33.88 149.92 34.25 C 155.66 35.26 161.27 36.88 166.95 38.22 C 164.91 36.35 160.92 34.74 162.18 31.31 C 163.96 28.08 167.87 28.55 170.91 29.16 C 173.82 27.08 177.07 25.53 180.47 24.42 C 180.02 23.38 179.59 22.33 179.16 21.29 C 180.09 19.93 181.02 18.58 181.96 17.23 C 178.32 18.71 174.27 19.24 170.67 17.02 C 165.20 14.42 159.50 18.06 154.14 19.15 M 21.89 19.23 C 23.56 20.22 25.22 21.21 26.89 22.19 C 26.93 22.88 26.99 24.24 27.02 24.93 C 23.98 26.32 20.94 27.70 17.90 29.10 C 18.21 29.57 18.83 30.51 19.14 30.98 C 22.28 28.67 25.92 27.03 29.90 27.22 C 29.11 25.84 28.35 24.44 27.59 23.05 C 31.70 20.70 36.42 19.82 41.08 20.73 C 38.94 19.53 36.81 18.32 34.74 17.02 C 31.33 20.68 26.36 19.48 21.89 19.23 M 42.18 21.29 C 43.29 25.37 45.91 28.62 49.10 31.33 C 48.34 32.86 47.54 34.37 46.82 35.92 C 44.92 34.98 43.03 34.03 41.14 33.07 C 40.82 33.99 40.49 34.92 40.17 35.84 C 44.85 38.06 49.91 39.15 54.95 40.18 C 52.79 38.36 49.10 36.74 50.07 33.26 C 55.35 28.81 61.97 26.46 68.53 24.63 C 68.07 23.51 67.61 22.40 67.16 21.28 C 68.09 19.94 69.02 18.60 69.96 17.27 C 65.68 19.19 61.12 18.13 56.73 17.22 C 51.70 17.67 47.04 20.03 42.18 21.29 M 77.78 17.14 C 79.82 18.18 81.88 19.19 83.93 20.22 C 83.97 21.48 84.01 22.75 84.06 24.01 C 80.53 25.09 77.00 26.17 73.47 27.22 C 73.76 30.09 73.95 32.95 74.19 35.82 C 76.69 35.97 79.18 36.11 81.67 36.25 C 82.16 39.30 82.63 42.34 83.14 45.39 C 85.00 40.10 88.35 35.12 94.46 34.30 C 93.05 31.48 91.78 28.54 89.68 26.14 C 90.16 28.19 90.68 30.23 91.18 32.27 C 86.32 35.59 80.58 34.29 75.26 32.94 C 74.43 25.24 82.40 26.46 87.05 26.45 C 86.27 25.29 85.48 24.12 84.70 22.95 C 86.75 20.95 88.85 19.00 91.03 17.14 C 86.66 18.31 82.17 17.91 77.78 17.14 M 32.36 27.62 C 33.05 29.48 33.70 31.35 34.36 33.22 C 30.35 35.95 25.72 35.27 21.37 33.84 C 18.76 32.63 16.55 34.80 14.44 36.02 C 18.98 37.19 23.53 38.33 28.02 39.68 C 27.01 41.43 26.00 43.19 25.00 44.94 C 25.61 45.31 26.83 46.06 27.44 46.43 C 30.59 42.18 30.85 34.45 38.28 35.76 C 36.77 33.79 35.60 31.59 34.79 29.25 C 33.99 28.70 33.18 28.15 32.36 27.62 M 60.27 37.50 C 61.60 40.84 63.82 43.76 67.04 45.46 C 66.05 43.37 64.96 41.32 63.94 39.24 C 65.21 38.24 66.44 37.18 67.57 36.03 C 65.13 36.47 62.70 37.00 60.27 37.50 M 171.32 40.80 C 174.19 42.39 177.01 44.28 180.35 44.72 C 179.14 43.96 177.93 43.21 176.72 42.47 C 177.78 40.03 178.94 37.64 180.01 35.21 C 176.22 35.52 173.15 37.64 171.32 40.80 M 103.26 38.73 C 102.45 40.61 101.65 42.50 100.81 44.38 C 96.07 43.85 91.24 42.78 86.57 44.38 C 89.91 45.18 93.31 45.69 96.61 46.64 C 101.74 48.58 107.07 45.48 112.21 45.32 C 109.25 44.94 106.30 44.52 103.35 44.12 C 103.37 42.32 103.31 40.52 103.26 38.73 M 155.80 43.88 C 153.32 45.08 150.84 43.57 148.60 42.60 C 148.40 43.31 148.21 44.03 148.03 44.74 C 152.36 46.50 157.05 47.73 161.38 45.20 C 161.06 43.21 160.81 41.21 160.64 39.21 C 159.12 40.85 157.78 42.76 155.80 43.88 M 34.87 42.88 C 33.55 43.81 32.22 44.73 30.89 45.64 C 35.53 44.96 40.45 45.69 43.84 49.19 C 44.62 48.27 45.42 47.35 46.21 46.44 C 49.61 46.64 53.00 46.75 56.41 46.79 C 52.92 45.92 49.40 45.15 45.92 44.23 C 46.30 42.87 46.68 41.52 47.05 40.16 C 44.08 43.69 39.00 45.50 34.87 42.88 M 113.54 43.56 C 113.40 45.04 113.26 46.52 113.11 48.00 C 114.55 47.94 115.99 47.87 117.43 47.80 C 116.16 46.37 114.86 44.95 113.54 43.56 M 163.99 44.22 C 163.65 46.02 167.35 46.02 167.01 44.22 C 166.42 43.16 164.57 43.16 163.99 44.22 Z" />
</g>
<g id="#4179cbff">
<path fill="#4179cb" opacity="1.00" d=" M 25.29 0.00 L 30.47 0.00 C 35.16 1.28 39.67 3.32 44.46 4.25 C 49.75 5.15 54.61 2.85 59.37 1.01 C 57.60 2.83 56.05 4.98 53.82 6.27 C 48.78 7.71 43.30 7.03 38.66 4.64 C 32.87 1.35 27.12 7.05 21.11 6.00 C 17.98 5.80 13.59 5.16 12.35 8.95 C 13.26 10.84 14.58 12.49 15.81 14.17 C 11.92 14.14 8.03 14.27 4.15 14.61 C 6.45 12.74 8.99 11.13 10.99 8.93 C 10.42 6.97 9.45 5.17 8.51 3.36 C 14.35 5.68 20.68 4.02 26.75 4.13 C 27.13 3.58 27.88 2.47 28.26 1.92 C 27.28 1.27 26.29 0.63 25.29 0.00 Z" />
<path fill="#4179cb" opacity="1.00" d=" M 85.37 0.00 L 93.84 0.00 C 99.31 3.47 105.85 3.40 112.11 3.66 C 111.91 4.61 111.72 5.55 111.52 6.50 C 108.45 6.26 105.38 6.06 102.32 5.72 C 98.08 5.50 95.09 1.84 91.02 1.03 C 86.81 0.75 83.67 3.50 80.56 5.78 C 76.55 4.81 70.42 2.91 68.35 7.95 C 69.26 9.84 70.58 11.49 71.81 13.17 C 67.91 13.14 64.02 13.26 60.13 13.60 C 62.34 11.92 64.69 10.39 66.71 8.48 C 66.46 6.29 65.59 4.24 64.75 2.22 C 71.54 2.78 79.75 5.43 85.37 0.00 Z" />
<path fill="#4179cb" opacity="1.00" d=" M 197.41 0.00 L 205.85 0.00 C 211.27 3.49 217.77 3.44 224.00 3.69 L 224.00 6.40 C 220.77 6.22 217.54 6.07 214.32 5.72 C 210.07 5.52 207.10 1.82 203.02 1.04 C 198.81 0.75 195.67 3.50 192.56 5.78 C 188.55 4.81 182.42 2.91 180.35 7.95 C 181.27 9.85 182.59 11.51 183.82 13.20 C 179.84 13.12 175.86 13.23 171.89 13.45 C 173.69 12.23 175.49 11.00 177.29 9.77 C 178.04 8.08 178.40 6.13 179.57 4.68 C 185.25 1.96 192.53 4.89 197.41 0.00 Z" />
</g>
<g id="#4278caff">
<path fill="#4278ca" opacity="1.00" d=" M 138.36 0.00 L 140.99 0.00 C 139.66 1.62 138.45 3.34 137.22 5.03 C 133.04 3.93 126.61 1.67 124.35 6.95 C 125.26 8.84 126.58 10.49 127.81 12.17 C 123.91 12.14 120.01 12.26 116.13 12.60 C 118.34 10.92 120.69 9.39 122.71 7.48 C 122.47 5.30 121.58 3.28 120.76 1.26 C 125.80 1.85 130.86 2.08 135.92 2.38 C 136.53 1.78 137.75 0.59 138.36 0.00 Z" />
</g>
<g id="#4079ccff">
<path fill="#4079cc" opacity="1.00" d=" M 151.34 0.00 L 154.78 0.00 C 156.02 1.26 157.22 2.57 158.42 3.87 C 161.67 3.70 164.92 3.50 168.17 3.30 C 167.94 4.44 167.70 5.58 167.47 6.72 C 163.50 6.17 159.46 5.83 155.58 4.80 C 153.80 3.57 152.62 1.70 151.34 0.00 Z" />
</g>
<g id="#3c6abefe">
<path fill="#3c6abe" opacity="1.00" d=" M 205.85 0.00 L 224.00 0.00 L 224.00 3.69 C 217.77 3.44 211.27 3.49 205.85 0.00 Z" />
</g>
<g id="#4377caff">
<path fill="#4377ca" opacity="1.00" d=" M 138.60 9.18 C 140.51 9.18 142.48 8.84 144.37 9.22 C 146.74 12.34 149.16 15.49 153.03 16.83 C 150.04 16.59 147.05 16.52 144.05 16.59 C 144.71 15.32 145.37 14.05 146.03 12.77 C 143.49 11.70 141.01 10.52 138.60 9.18 Z" />
</g>
<g id="#407accff">
<path fill="#407acc" opacity="1.00" d=" M 157.80 9.19 C 161.93 9.73 166.32 8.66 170.14 10.80 C 169.91 11.67 169.69 12.55 169.47 13.42 C 164.34 9.91 158.19 13.25 152.71 13.90 C 154.37 12.29 156.05 10.69 157.80 9.19 Z" />
</g>
<g id="#427bcbff">
<path fill="#427bcb" opacity="1.00" d=" M 98.76 13.26 C 101.83 7.81 109.85 9.87 114.98 10.56 C 109.15 13.71 102.12 13.26 95.89 15.21 C 96.84 14.56 97.81 13.91 98.76 13.26 Z" />
<path fill="#427bcb" opacity="1.00" d=" M 213.51 10.60 C 216.89 9.60 220.50 9.61 224.00 9.28 L 224.00 11.66 C 218.57 12.59 213.46 14.82 207.98 15.46 C 209.77 13.80 211.33 11.78 213.51 10.60 Z" />
</g>
<g id="#437bccff">
<path fill="#437bcc" opacity="1.00" d=" M 43.15 10.50 C 48.43 10.48 53.77 10.37 58.95 11.61 C 53.09 14.78 46.14 14.83 39.76 16.13 C 41.46 15.27 43.17 14.44 44.88 13.60 C 44.30 12.57 43.72 11.54 43.15 10.50 Z" />
</g>
<g id="#4379caff">
<path fill="#4379ca" opacity="1.00" d=" M 118.66 17.05 C 123.04 17.61 126.83 14.39 130.89 13.25 C 131.15 13.55 131.69 14.17 131.96 14.48 C 129.34 15.32 126.59 15.94 124.19 17.34 C 123.81 19.10 123.79 20.91 123.83 22.70 C 117.42 24.81 111.37 28.06 106.16 32.35 C 105.00 35.77 108.88 37.36 110.95 39.18 C 105.91 38.15 100.85 37.06 96.17 34.84 C 96.49 33.92 96.82 32.99 97.14 32.07 C 99.03 33.03 100.91 33.98 102.82 34.92 C 103.54 33.37 104.34 31.86 105.10 30.33 C 101.90 27.62 99.29 24.37 98.18 20.28 C 104.83 18.52 111.60 14.56 118.66 17.05 M 100.88 21.70 C 100.88 22.59 100.89 24.37 100.89 25.26 C 103.42 26.28 105.98 28.24 108.82 27.71 C 113.44 25.78 117.83 23.31 122.37 21.18 C 116.02 16.37 107.56 18.76 100.88 21.70 Z" />
<path fill="#4379ca" opacity="1.00" d=" M 209.82 20.32 C 213.30 19.58 216.78 18.83 220.27 18.12 C 217.47 19.66 214.65 21.17 211.88 22.77 C 214.56 26.85 219.33 27.94 224.00 27.74 L 224.00 27.85 C 222.00 29.59 219.64 31.00 218.12 33.22 C 218.03 36.02 221.12 37.49 222.73 39.41 C 217.82 38.10 212.89 36.82 208.16 34.94 C 208.47 34.02 208.78 33.09 209.09 32.16 C 211.03 33.06 212.98 33.95 214.93 34.83 C 215.55 33.41 216.18 32.00 216.79 30.58 C 214.21 27.33 211.79 23.97 209.82 20.32 Z" />
</g>
<g id="#4479cbff">
<path fill="#4479cb" opacity="1.00" d=" M 154.14 19.15 C 159.50 18.06 165.20 14.42 170.67 17.02 C 174.27 19.24 178.32 18.71 181.96 17.23 C 181.02 18.58 180.09 19.93 179.16 21.29 C 179.59 22.33 180.02 23.38 180.47 24.42 C 177.07 25.53 173.82 27.08 170.91 29.16 C 167.87 28.55 163.96 28.08 162.18 31.31 C 160.92 34.74 164.91 36.35 166.95 38.22 C 161.27 36.88 155.66 35.26 149.92 34.25 C 147.34 33.88 144.84 35.33 142.97 36.96 C 141.08 39.76 140.79 43.28 139.77 46.44 C 134.66 45.34 137.69 39.92 137.99 36.26 C 136.31 36.13 132.95 35.86 131.26 35.72 C 130.42 34.20 129.55 32.69 128.69 31.18 C 134.86 33.93 142.14 35.08 148.17 31.26 C 147.66 29.22 147.16 27.17 146.67 25.12 C 148.54 27.17 149.62 29.71 150.79 32.18 C 153.59 32.05 156.33 32.67 159.00 33.45 C 159.70 32.08 160.40 30.70 161.11 29.33 C 157.84 26.61 155.25 23.28 154.14 19.15 M 156.02 21.05 C 157.40 23.21 158.66 26.24 161.65 26.35 C 167.66 27.76 173.68 25.85 178.76 22.71 C 172.42 17.54 163.09 17.10 156.02 21.05 Z" />
</g>
<g id="#4378c9ff">
<path fill="#4378c9" opacity="1.00" d=" M 21.89 19.23 C 26.36 19.48 31.33 20.68 34.74 17.02 C 36.81 18.32 38.94 19.53 41.08 20.73 C 36.42 19.82 31.70 20.70 27.59 23.05 C 28.35 24.44 29.11 25.84 29.90 27.22 C 25.92 27.03 22.28 28.67 19.14 30.98 C 18.83 30.51 18.21 29.57 17.90 29.10 C 20.94 27.70 23.98 26.32 27.02 24.93 C 26.99 24.24 26.93 22.88 26.89 22.19 C 25.22 21.21 23.56 20.22 21.89 19.23 Z" />
</g>
<g id="#427acaff">
<path fill="#427aca" opacity="1.00" d=" M 42.18 21.29 C 47.04 20.03 51.70 17.67 56.73 17.22 C 61.12 18.13 65.68 19.19 69.96 17.27 C 69.02 18.60 68.09 19.94 67.16 21.28 C 67.61 22.40 68.07 23.51 68.53 24.63 C 61.97 26.46 55.35 28.81 50.07 33.26 C 49.10 36.74 52.79 38.36 54.95 40.18 C 49.91 39.15 44.85 38.06 40.17 35.84 C 40.49 34.92 40.82 33.99 41.14 33.07 C 43.03 34.03 44.92 34.98 46.82 35.92 C 47.54 34.37 48.34 32.86 49.10 31.33 C 45.91 28.62 43.29 25.37 42.18 21.29 M 44.89 22.69 C 44.88 23.60 44.87 25.41 44.86 26.32 C 52.04 30.96 60.20 26.23 66.69 22.61 C 60.54 17.09 51.68 19.74 44.89 22.69 Z" />
</g>
<g id="#4378caff">
<path fill="#4378ca" opacity="1.00" d=" M 0.00 17.44 C 6.40 20.57 13.33 19.34 19.95 17.76 C 17.44 18.96 14.73 19.86 12.51 21.59 C 11.62 23.23 11.76 25.19 11.54 26.99 C 7.71 28.34 3.85 29.58 0.00 30.86 L 0.00 29.17 C 3.86 27.59 7.76 26.09 11.38 24.00 C 7.76 21.91 3.86 20.41 0.00 18.87 L 0.00 17.44 Z" />
<path fill="#4378ca" opacity="1.00" d=" M 190.21 16.95 C 194.42 17.79 198.72 17.98 202.97 17.37 C 200.98 19.00 199.01 20.66 197.07 22.34 C 197.60 23.63 198.13 24.91 198.66 26.20 C 193.95 26.81 186.74 25.75 186.83 33.05 C 191.16 33.55 195.65 35.34 199.96 34.00 C 203.17 32.96 202.14 28.96 202.46 26.39 C 203.74 28.87 204.94 31.39 206.22 33.87 C 198.97 36.23 196.09 43.46 191.37 48.66 C 195.95 51.23 200.48 53.89 205.30 56.00 L 195.36 56.00 C 196.74 55.62 198.12 55.22 199.49 54.80 C 195.66 52.62 191.70 50.68 187.85 48.54 C 191.60 45.47 194.89 41.65 195.08 36.45 C 192.11 36.17 189.14 35.89 186.17 35.62 C 185.88 32.85 185.59 30.07 185.31 27.30 C 189.32 26.09 193.31 24.84 197.25 23.43 C 195.26 20.90 192.77 18.86 190.21 16.95 Z" />
</g>
<g id="#4478caff">
<path fill="#4478ca" opacity="1.00" d=" M 77.78 17.14 C 82.17 17.91 86.66 18.31 91.03 17.14 C 88.85 19.00 86.75 20.95 84.70 22.95 C 85.48 24.12 86.27 25.29 87.05 26.45 C 82.40 26.46 74.43 25.24 75.26 32.94 C 80.58 34.29 86.32 35.59 91.18 32.27 C 90.68 30.23 90.16 28.19 89.68 26.14 C 91.78 28.54 93.05 31.48 94.46 34.30 C 88.35 35.12 85.00 40.10 83.14 45.39 C 82.63 42.34 82.16 39.30 81.67 36.25 C 79.18 36.11 76.69 35.97 74.19 35.82 C 73.95 32.95 73.76 30.09 73.47 27.22 C 77.00 26.17 80.53 25.09 84.06 24.01 C 84.01 22.75 83.97 21.48 83.93 20.22 C 81.88 19.19 79.82 18.18 77.78 17.14 Z" />
</g>
<g id="#3c6bbdff">
<path fill="#3c6bbd" opacity="1.00" d=" M 100.88 21.70 C 107.56 18.76 116.02 16.37 122.37 21.18 C 117.83 23.31 113.44 25.78 108.82 27.71 C 105.98 28.24 103.42 26.28 100.89 25.26 C 100.89 24.37 100.88 22.59 100.88 21.70 Z" />
<path fill="#3c6bbd" opacity="1.00" d=" M 156.02 21.05 C 163.09 17.10 172.42 17.54 178.76 22.71 C 173.68 25.85 167.66 27.76 161.65 26.35 C 158.66 26.24 157.40 23.21 156.02 21.05 Z" />
<path fill="#3c6bbd" opacity="1.00" d=" M 44.89 22.69 C 51.68 19.74 60.54 17.09 66.69 22.61 C 60.20 26.23 52.04 30.96 44.86 26.32 C 44.87 25.41 44.88 23.60 44.89 22.69 Z" />
</g>
<g id="#3c6abeff">
<path fill="#3c6abe" opacity="1.00" d=" M 0.00 18.87 C 3.86 20.41 7.76 21.91 11.38 24.00 C 7.76 26.09 3.86 27.59 0.00 29.17 L 0.00 18.87 Z" />
</g>
<g id="#4578c9ff">
<path fill="#4578c9" opacity="1.00" d=" M 32.36 27.62 C 33.18 28.15 33.99 28.70 34.79 29.25 C 35.60 31.59 36.77 33.79 38.28 35.76 C 30.85 34.45 30.59 42.18 27.44 46.43 C 26.83 46.06 25.61 45.31 25.00 44.94 C 26.00 43.19 27.01 41.43 28.02 39.68 C 23.53 38.33 18.98 37.19 14.44 36.02 C 16.55 34.80 18.76 32.63 21.37 33.84 C 25.72 35.27 30.35 35.95 34.36 33.22 C 33.70 31.35 33.05 29.48 32.36 27.62 Z" />
</g>
<g id="#4574caff">
<path fill="#4574ca" opacity="1.00" d=" M 0.00 37.11 C 3.82 36.73 7.64 36.34 11.45 35.94 C 10.81 39.39 10.37 42.88 10.03 46.37 C 8.79 47.01 7.56 47.66 6.32 48.30 C 6.90 48.75 7.48 49.20 8.06 49.66 C 6.39 49.46 3.06 49.07 1.39 48.87 C 3.96 47.49 6.51 46.09 9.08 44.73 C 8.74 43.19 8.34 41.66 7.92 40.15 C 5.28 40.05 2.64 39.97 0.00 39.88 L 0.00 37.11 Z" />
</g>
<g id="#4778cbfe">
<path fill="#4778cb" opacity="1.00" d=" M 60.27 37.50 C 62.70 37.00 65.13 36.47 67.57 36.03 C 66.44 37.18 65.21 38.24 63.94 39.24 C 64.96 41.32 66.05 43.37 67.04 45.46 C 63.82 43.76 61.60 40.84 60.27 37.50 Z" />
</g>
<g id="#4374c8ff">
<path fill="#4374c8" opacity="1.00" d=" M 171.32 40.80 C 173.15 37.64 176.22 35.52 180.01 35.21 C 178.94 37.64 177.78 40.03 176.72 42.47 C 177.93 43.21 179.14 43.96 180.35 44.72 C 177.01 44.28 174.19 42.39 171.32 40.80 Z" />
</g>
<g id="#4378cbff">
<path fill="#4378cb" opacity="1.00" d=" M 103.26 38.73 C 103.31 40.52 103.37 42.32 103.35 44.12 C 106.30 44.52 109.25 44.94 112.21 45.32 C 107.07 45.48 101.74 48.58 96.61 46.64 C 93.31 45.69 89.91 45.18 86.57 44.38 C 91.24 42.78 96.07 43.85 100.81 44.38 C 101.65 42.50 102.45 40.61 103.26 38.73 Z" />
<path fill="#4378cb" opacity="1.00" d=" M 34.87 42.88 C 39.00 45.50 44.08 43.69 47.05 40.16 C 46.68 41.52 46.30 42.87 45.92 44.23 C 49.40 45.15 52.92 45.92 56.41 46.79 C 53.00 46.75 49.61 46.64 46.21 46.44 C 45.42 47.35 44.62 48.27 43.84 49.19 C 40.45 45.69 35.53 44.96 30.89 45.64 C 32.22 44.73 33.55 43.81 34.87 42.88 Z" />
</g>
<g id="#4279cbff">
<path fill="#4279cb" opacity="1.00" d=" M 155.80 43.88 C 157.78 42.76 159.12 40.85 160.64 39.21 C 160.81 41.21 161.06 43.21 161.38 45.20 C 157.05 47.73 152.36 46.50 148.03 44.74 C 148.21 44.03 148.40 43.31 148.60 42.60 C 150.84 43.57 153.32 45.08 155.80 43.88 Z" />
</g>
<g id="#3968bfff">
<path fill="#3968bf" opacity="1.00" d=" M 0.00 39.88 C 2.64 39.97 5.28 40.05 7.92 40.15 C 8.34 41.66 8.74 43.19 9.08 44.73 C 6.51 46.09 3.96 47.49 1.39 48.87 C 1.05 49.06 0.35 49.43 0.00 49.61 L 0.00 39.88 M 0.37 44.58 C 3.11 44.28 5.83 43.77 8.49 43.05 C 5.72 43.16 2.95 43.54 0.37 44.58 Z" />
</g>
<g id="#4379cbff">
<path fill="#4379cb" opacity="1.00" d=" M 198.57 44.31 C 206.99 42.48 215.55 44.77 224.00 45.14 L 224.00 45.93 C 219.83 46.30 215.67 47.19 211.47 47.09 C 207.11 46.50 202.83 45.39 198.57 44.31 Z" />
</g>
<g id="#4072c6ff">
<path fill="#4072c6" opacity="1.00" d=" M 0.37 44.58 C 2.95 43.54 5.72 43.16 8.49 43.05 C 5.83 43.77 3.11 44.28 0.37 44.58 Z" />
</g>
<g id="#4c77caff">
<path fill="#4c77ca" opacity="1.00" d=" M 59.60 43.99 C 60.79 44.88 61.97 45.78 63.13 46.70 C 61.91 47.48 60.69 48.26 59.44 48.99 C 58.99 49.23 58.10 49.70 57.66 49.93 C 58.31 47.95 58.97 45.98 59.60 43.99 Z" />
</g>
<g id="#4778d1ff">
<path fill="#4778d1" opacity="1.00" d=" M 113.54 43.56 C 114.86 44.95 116.16 46.37 117.43 47.80 C 115.99 47.87 114.55 47.94 113.11 48.00 C 113.26 46.52 113.40 45.04 113.54 43.56 Z" />
</g>
<g id="#4575cbff">
<path fill="#4575cb" opacity="1.00" d=" M 163.99 44.22 C 164.57 43.16 166.42 43.16 167.01 44.22 C 167.35 46.02 163.65 46.02 163.99 44.22 Z" />
</g>
<g id="#4177ccff">
<path fill="#4177cc" opacity="1.00" d=" M 132.31 45.66 C 138.79 48.15 144.56 52.03 150.21 56.00 L 139.13 56.00 C 140.75 55.39 144.00 54.17 145.63 53.56 C 143.25 52.26 140.85 51.01 138.42 49.81 C 138.30 51.04 138.19 52.28 138.08 53.52 C 135.74 51.52 133.26 49.69 130.77 47.89 C 131.15 47.33 131.92 46.22 132.31 45.66 Z" />
</g>
<g id="#536ea1ff">
<path fill="#536ea1" opacity="1.00" d=" M 0.00 49.61 C 0.35 49.43 1.05 49.06 1.39 48.87 C 3.06 49.07 6.39 49.46 8.06 49.66 C 9.18 51.57 10.32 53.46 11.56 55.30 C 8.20 52.62 4.04 51.43 0.00 50.18 L 0.00 49.61 Z" />
</g>
<g id="#42689dff">
<path fill="#42689d" opacity="1.00" d=" M 111.52 50.62 C 114.82 50.30 118.18 49.62 121.48 50.13 C 122.66 51.58 123.34 53.37 124.22 55.01 C 120.35 52.64 115.93 51.50 111.52 50.62 Z" />
</g>
<g id="#6894c6ff">
<path fill="#6894c6" opacity="1.00" d=" M 8.06 49.66 C 10.64 51.66 13.05 53.87 15.53 56.00 L 12.55 56.00 L 11.56 55.30 C 10.32 53.46 9.18 51.57 8.06 49.66 Z" />
</g>
<g id="#315a8cff">
<path fill="#315a8c" opacity="1.00" d=" M 55.35 50.82 C 55.93 50.60 57.08 50.15 57.66 49.93 C 58.10 49.70 58.99 49.23 59.44 48.99 C 60.65 49.64 61.85 50.30 63.05 50.98 C 61.56 50.95 58.59 50.88 57.11 50.85 L 56.26 50.82 L 55.35 50.82 Z" />
</g>
<g id="#2f5b84ff">
<path fill="#2f5b84" opacity="1.00" d=" M 167.40 51.02 C 169.93 50.77 172.47 50.63 175.03 50.58 L 174.20 50.59 C 172.91 50.65 170.32 50.78 169.03 50.85 L 168.15 50.93 L 167.40 51.02 Z" />
</g>
<g id="#607aafff">
<path fill="#607aaf" opacity="1.00" d=" M 175.03 50.58 C 177.95 50.96 179.44 54.10 181.35 56.00 L 179.98 56.00 C 177.95 54.30 176.05 52.47 174.20 50.59 L 175.03 50.58 Z" />
</g>
<g id="#24393dff">
<path fill="#24393d" opacity="1.00" d=" M 0.00 50.18 C 4.04 51.43 8.20 52.62 11.56 55.30 L 12.55 56.00 L 7.68 56.00 C 5.11 54.36 2.56 52.68 0.00 51.02 L 0.00 50.18 Z" />
</g>
<g id="#3686d0ff">
<path fill="#3686d0" opacity="1.00" d=" M 42.88 51.72 C 44.07 51.49 45.27 51.25 46.47 51.00 C 44.89 51.98 43.34 53.02 41.86 54.15 C 42.12 53.55 42.62 52.33 42.88 51.72 Z" />
</g>
<g id="#809db3ff">
<path fill="#809db3" opacity="1.00" d=" M 46.47 51.00 L 47.66 50.72 C 47.09 51.82 46.49 52.90 45.88 53.97 C 45.37 54.48 44.34 55.49 43.82 56.00 L 41.04 56.00 C 41.25 55.54 41.66 54.61 41.86 54.15 C 43.34 53.02 44.89 51.98 46.47 51.00 Z" />
</g>
<g id="#332e2aff">
<path fill="#332e2a" opacity="1.00" d=" M 45.88 53.97 C 48.80 52.30 52.10 51.56 55.35 50.82 L 56.26 50.82 C 53.38 52.52 50.53 54.28 47.67 56.00 L 43.82 56.00 C 44.34 55.49 45.37 54.48 45.88 53.97 Z" />
<path fill="#332e2a" opacity="1.00" d=" M 103.08 52.11 C 105.90 51.68 108.68 51.02 111.52 50.62 L 112.24 50.93 C 109.36 52.59 106.51 54.31 103.65 56.00 L 100.23 56.00 L 100.81 55.52 C 102.08 54.70 102.84 53.56 103.08 52.11 Z" />
<path fill="#332e2a" opacity="1.00" d=" M 157.86 53.14 C 161.00 52.26 164.16 51.49 167.40 51.02 L 168.15 50.93 C 165.22 52.50 162.42 54.27 159.60 56.00 L 156.64 56.00 C 156.95 55.29 157.55 53.86 157.86 53.14 Z" />
<path fill="#332e2a" opacity="1.00" d=" M 215.04 52.26 C 218.06 51.84 221.01 51.14 224.00 50.51 L 224.00 51.11 C 221.25 52.75 218.53 54.41 215.75 56.00 L 212.24 56.00 L 212.80 55.54 C 214.05 54.76 214.79 53.67 215.04 52.26 Z" />
</g>
<g id="#203b3cff">
<path fill="#203b3c" opacity="1.00" d=" M 57.11 50.85 C 58.59 50.88 61.56 50.95 63.05 50.98 C 64.66 52.72 66.32 54.41 68.08 56.00 L 64.59 56.00 C 63.81 55.30 62.23 53.91 61.44 53.21 C 60.07 52.29 58.58 51.57 57.11 50.85 Z" />
</g>
<g id="#6286a8ff">
<path fill="#6286a8" opacity="1.00" d=" M 63.05 50.98 C 65.45 52.30 67.53 54.11 69.50 56.00 L 68.08 56.00 C 66.32 54.41 64.66 52.72 63.05 50.98 Z" />
</g>
<g id="#244048ff">
<path fill="#244048" opacity="1.00" d=" M 111.52 50.62 C 115.93 51.50 120.35 52.64 124.22 55.01 L 124.75 56.00 L 119.83 56.00 C 118.79 55.13 117.75 54.26 116.71 53.40 C 115.27 52.48 113.77 51.68 112.24 50.93 L 111.52 50.62 Z" />
</g>
<g id="#203b43ff">
<path fill="#203b43" opacity="1.00" d=" M 169.03 50.85 C 170.32 50.78 172.91 50.65 174.20 50.59 C 176.05 52.47 177.95 54.30 179.98 56.00 L 176.44 56.00 C 174.04 54.18 171.67 52.31 169.03 50.85 Z" />
</g>
<g id="#7c9c74ff">
<path fill="#7c9c74" opacity="1.00" d=" M 0.00 51.02 C 2.56 52.68 5.11 54.36 7.68 56.00 L 6.50 56.00 C 4.34 54.91 2.20 53.78 0.00 52.79 L 0.00 51.02 Z" />
</g>
<g id="#74a05cff">
<path fill="#74a05c" opacity="1.00" d=" M 47.67 56.00 C 50.53 54.28 53.38 52.52 56.26 50.82 C 55.86 52.56 55.43 54.28 54.97 56.00 L 47.67 56.00 Z" />
<path fill="#74a05c" opacity="1.00" d=" M 215.75 56.00 C 218.53 54.41 221.25 52.75 224.00 51.11 L 224.00 56.00 L 215.75 56.00 Z" />
</g>
<g id="#709d86ff">
<path fill="#709d86" opacity="1.00" d=" M 56.26 50.82 L 57.11 50.85 C 58.58 51.57 60.07 52.29 61.44 53.21 C 59.43 54.00 57.52 54.99 55.61 56.00 L 54.97 56.00 C 55.43 54.28 55.86 52.56 56.26 50.82 Z" />
</g>
<g id="#2e83d0ff">
<path fill="#2e83d0" opacity="1.00" d=" M 97.12 56.00 C 98.72 54.65 100.25 53.22 101.79 51.81 C 100.60 52.68 100.74 54.23 100.81 55.52 L 100.23 56.00 L 97.12 56.00 Z" />
<path fill="#2e83d0" opacity="1.00" d=" M 209.40 56.00 C 210.83 54.58 212.26 53.16 213.73 51.78 C 212.61 52.71 212.75 54.24 212.80 55.54 L 212.24 56.00 L 209.40 56.00 Z" />
</g>
<g id="#67839bff">
<path fill="#67839b" opacity="1.00" d=" M 101.79 51.81 C 102.11 51.89 102.76 52.03 103.08 52.11 C 102.84 53.56 102.08 54.70 100.81 55.52 C 100.74 54.23 100.60 52.68 101.79 51.81 Z" />
<path fill="#67839b" opacity="1.00" d=" M 213.73 51.78 C 214.06 51.90 214.71 52.14 215.04 52.26 C 214.79 53.67 214.05 54.76 212.80 55.54 C 212.75 54.24 212.61 52.71 213.73 51.78 Z" />
</g>
<g id="#74a05eff">
<path fill="#74a05e" opacity="1.00" d=" M 103.65 56.00 C 106.51 54.31 109.36 52.59 112.24 50.93 C 112.14 51.82 111.92 53.61 111.82 54.50 C 113.44 54.11 115.07 53.75 116.71 53.40 C 117.75 54.26 118.79 55.13 119.83 56.00 L 103.65 56.00 Z" />
</g>
<g id="#6e9a88ff">
<path fill="#6e9a88" opacity="1.00" d=" M 112.24 50.93 C 113.77 51.68 115.27 52.48 116.71 53.40 C 115.07 53.75 113.44 54.11 111.82 54.50 C 111.92 53.61 112.14 51.82 112.24 50.93 Z" />
</g>
<g id="#73a065ff">
<path fill="#73a065" opacity="1.00" d=" M 159.60 56.00 C 162.42 54.27 165.22 52.50 168.15 50.93 L 169.03 50.85 C 171.67 52.31 174.04 54.18 176.44 56.00 L 174.08 56.00 C 173.11 55.28 172.16 54.54 171.23 53.80 C 170.11 54.54 168.99 55.28 167.86 56.00 L 159.60 56.00 Z" />
</g>
<g id="#759d51ff">
<path fill="#759d51" opacity="1.00" d=" M 0.00 52.79 C 2.20 53.78 4.34 54.91 6.50 56.00 L 0.00 56.00 L 0.00 52.79 Z" />
</g>
<g id="#6e9b56fe">
<path fill="#6e9b56" opacity="1.00" d=" M 55.61 56.00 C 57.52 54.99 59.43 54.00 61.44 53.21 C 62.23 53.91 63.81 55.30 64.59 56.00 L 55.61 56.00 Z" />
</g>
<g id="#2e86d2ff">
<path fill="#2e86d2" opacity="1.00" d=" M 154.25 56.00 C 154.60 54.26 156.20 53.33 157.86 53.14 C 157.55 53.86 156.95 55.29 156.64 56.00 L 154.25 56.00 Z" />
</g>
<g id="#669946ff">
<path fill="#669946" opacity="1.00" d=" M 167.86 56.00 C 168.99 55.28 170.11 54.54 171.23 53.80 C 172.16 54.54 173.11 55.28 174.08 56.00 L 167.86 56.00 Z" />
</g>
</svg>
