<?xml version="1.0" encoding="UTF-8" ?>
<!DOCTYPE svg PUBLIC "-//W3C//DTD SVG 1.1//EN" "http://www.w3.org/Graphics/SVG/1.1/DTD/svg11.dtd">
<svg width="224pt" height="56pt" viewBox="0 0 224 56" version="1.1" xmlns="http://www.w3.org/2000/svg">
<g id="#3c6bbeff">
<path fill="#3c6bbe" opacity="1.00" d=" M 0.00 0.00 L 25.53 0.00 C 26.56 1.10 27.54 2.24 28.52 3.37 C 21.93 4.07 14.84 5.99 8.46 3.29 C 9.44 5.11 10.44 6.94 11.04 8.93 C 9.02 11.14 6.44 12.75 4.11 14.61 C 8.12 14.27 12.15 14.03 16.17 14.10 C 14.56 12.27 12.95 10.44 11.34 8.60 C 13.23 7.54 15.06 6.19 17.25 5.87 C 20.36 5.63 23.55 6.80 26.59 5.70 C 30.38 4.50 34.05 2.94 37.77 1.54 C 35.93 1.16 32.24 0.39 30.39 0.00 L 39.34 0.00 L 40.12 0.75 C 40.03 1.42 39.85 2.77 39.76 3.44 C 39.35 7.39 38.95 11.35 38.53 15.31 C 39.26 15.02 39.99 14.74 40.72 14.47 C 40.84 14.43 41.07 14.36 41.18 14.32 C 41.12 14.66 40.99 15.35 40.93 15.69 C 40.78 16.52 40.48 18.18 40.33 19.02 C 34.42 17.08 28.37 18.92 22.38 19.30 C 24.41 21.06 26.35 22.93 28.19 24.89 C 24.54 26.25 20.74 27.25 16.85 27.63 C 17.63 29.34 18.40 31.06 18.84 32.89 C 13.57 37.02 6.36 36.85 0.00 37.83 L 0.00 31.08 C 3.84 29.61 7.71 28.23 11.59 26.86 C 11.80 25.11 11.53 23.15 12.46 21.58 C 14.68 19.81 17.48 18.96 20.02 17.76 C 13.38 19.36 6.40 20.64 0.00 17.41 L 0.00 0.00 Z" />
<path fill="#3c6bbe" opacity="1.00" d=" M 213.80 25.60 L 214.48 25.28 L 215.18 24.95 C 217.89 25.08 220.60 25.10 223.30 25.17 L 224.00 25.64 L 224.00 27.76 C 220.56 27.25 217.02 27.00 213.80 25.60 Z" />
<path fill="#3c6bbe" opacity="1.00" d=" M 8.35 39.92 C 13.95 35.62 22.99 34.52 27.46 41.02 C 25.59 43.16 23.11 44.61 20.71 46.07 C 21.06 47.58 21.41 49.09 21.75 50.61 C 19.72 52.41 17.75 54.27 15.66 56.00 L 0.00 56.00 L 0.00 38.23 C 2.81 39.09 6.37 39.11 8.18 41.82 C 10.22 44.42 12.78 46.51 15.68 48.10 C 13.24 45.37 10.75 42.68 8.35 39.92 M 2.86 47.81 C 3.01 49.95 3.07 52.09 2.91 54.23 C 5.65 54.48 8.39 54.74 11.13 54.98 C 9.00 53.56 6.87 52.14 4.75 50.70 C 5.77 49.33 6.81 47.98 7.86 46.65 C 6.19 47.00 4.52 47.39 2.86 47.81 Z" />
<path fill="#3c6bbe" opacity="1.00" d=" M 16.69 56.00 C 19.71 54.45 22.63 52.12 26.30 52.71 C 28.25 53.53 29.91 54.88 31.68 56.00 L 16.69 56.00 Z" />
</g>
<g id="#4179cbff">
<path fill="#4179cb" opacity="1.00" d=" M 25.53 0.00 L 30.39 0.00 C 32.24 0.39 35.93 1.16 37.77 1.54 C 34.05 2.94 30.38 4.50 26.59 5.70 C 23.55 6.80 20.36 5.63 17.25 5.87 C 15.06 6.19 13.23 7.54 11.34 8.60 C 12.95 10.44 14.56 12.27 16.17 14.10 C 12.15 14.03 8.12 14.27 4.11 14.61 C 6.44 12.75 9.02 11.14 11.04 8.93 C 10.44 6.94 9.44 5.11 8.46 3.29 C 14.84 5.99 21.93 4.07 28.52 3.37 C 27.54 2.24 26.56 1.10 25.53 0.00 Z" />
<path fill="#4179cb" opacity="1.00" d=" M 130.98 47.38 C 131.82 46.75 132.68 46.12 133.53 45.49 C 138.96 49.23 145.07 51.87 150.25 56.00 L 139.88 56.00 C 139.25 55.60 137.99 54.79 137.36 54.39 C 139.43 54.04 143.57 53.33 145.63 52.98 C 140.10 49.92 133.59 50.69 128.11 53.46 C 130.03 51.79 131.95 50.11 133.86 48.43 C 133.14 48.17 131.70 47.65 130.98 47.38 Z" />
</g>
<g id="#268dd8ff">
<path fill="#268dd8" opacity="1.00" d=" M 39.34 0.00 L 42.61 0.00 C 42.76 0.50 43.06 1.51 43.20 2.01 C 42.95 3.29 42.74 4.59 42.58 5.89 C 41.86 10.18 42.98 14.35 43.87 18.49 C 43.58 16.98 43.38 13.87 41.18 14.32 C 41.07 14.36 40.84 14.43 40.72 14.47 C 39.99 14.74 39.26 15.02 38.53 15.31 C 38.95 11.35 39.35 7.39 39.76 3.44 C 42.15 6.11 42.51 1.41 40.12 0.75 L 39.34 0.00 Z" />
<path fill="#268dd8" opacity="1.00" d=" M 153.82 0.00 L 155.06 0.00 C 155.13 0.50 155.29 1.51 155.36 2.01 C 155.06 3.29 154.77 4.56 154.51 5.85 C 154.27 7.07 153.78 9.53 153.54 10.75 C 154.17 12.34 154.91 13.89 155.69 15.42 C 155.37 14.98 154.74 14.10 154.43 13.66 C 154.81 15.91 155.23 18.15 155.42 20.43 C 155.46 21.23 155.54 22.84 155.59 23.65 C 151.46 16.43 150.43 7.69 153.82 0.00 Z" />
</g>
<g id="#342f2aff">
<path fill="#342f2a" opacity="1.00" d=" M 42.61 0.00 L 44.85 0.00 C 45.32 0.31 46.25 0.94 46.71 1.25 C 47.06 3.25 45.43 6.63 48.00 7.56 C 50.02 8.41 52.28 8.21 54.42 8.12 C 54.69 8.10 55.23 8.06 55.51 8.03 L 56.19 7.96 C 56.03 10.77 55.93 13.59 55.88 16.41 C 55.88 16.98 55.90 18.13 55.90 18.71 L 55.96 20.26 C 55.52 20.18 54.63 20.03 54.19 19.95 C 54.04 19.69 53.74 19.18 53.60 18.92 C 52.42 15.91 50.44 19.06 51.17 20.92 C 50.88 21.55 50.31 22.82 50.03 23.45 C 49.49 23.04 48.43 22.23 47.90 21.83 C 48.33 17.70 48.89 13.59 49.58 9.49 C 48.96 9.35 47.71 9.06 47.09 8.92 C 46.53 12.61 45.96 16.30 45.45 20.00 C 45.07 19.71 44.32 19.15 43.94 18.86 L 43.87 18.49 C 42.98 14.35 41.86 10.18 42.58 5.89 C 43.10 8.35 43.78 10.78 44.81 13.08 C 44.68 9.35 44.39 5.57 43.20 2.01 C 43.06 1.51 42.76 0.50 42.61 0.00 M 48.91 19.37 C 50.16 16.83 51.25 14.21 52.07 11.50 C 50.52 13.89 49.27 16.49 48.91 19.37 Z" />
<path fill="#342f2a" opacity="1.00" d=" M 98.97 0.00 L 100.87 0.00 C 101.33 0.31 102.25 0.93 102.71 1.24 C 103.06 3.25 101.43 6.64 104.00 7.56 C 106.02 8.41 108.27 8.21 110.42 8.12 C 110.69 8.10 111.24 8.06 111.51 8.04 L 112.19 7.96 C 112.10 9.84 111.91 13.59 111.82 15.47 C 111.81 16.01 111.79 17.10 111.79 17.64 L 111.80 19.04 C 111.34 19.08 110.40 19.17 109.93 19.21 L 109.19 19.38 C 110.06 16.56 106.86 17.48 107.02 19.66 C 106.80 20.23 106.37 21.37 106.16 21.94 C 105.41 21.61 103.91 20.95 103.16 20.63 C 104.09 16.94 105.00 13.25 105.85 9.55 C 105.14 9.39 103.73 9.06 103.03 8.90 C 102.46 12.74 101.90 16.59 101.38 20.44 C 101.06 19.51 100.73 18.58 100.38 17.66 L 100.23 17.23 C 98.79 13.62 97.41 9.84 98.55 5.87 C 99.08 8.33 99.80 10.76 100.80 13.07 C 100.56 9.34 100.12 5.62 99.27 1.98 C 99.19 1.48 99.04 0.49 98.97 0.00 M 104.91 19.37 C 106.16 16.83 107.25 14.21 108.07 11.50 C 106.52 13.89 105.26 16.49 104.91 19.37 Z" />
<path fill="#342f2a" opacity="1.00" d=" M 210.97 0.00 L 212.87 0.00 C 213.33 0.31 214.25 0.93 214.71 1.24 C 215.04 3.26 213.48 6.58 215.98 7.59 C 218.01 8.39 220.25 8.20 222.38 8.08 C 222.61 8.05 223.06 8.00 223.28 7.98 L 224.00 7.88 L 224.00 18.99 C 223.45 19.07 222.35 19.24 221.80 19.32 L 221.06 19.43 C 221.96 16.53 218.69 17.47 218.99 19.75 C 218.82 20.37 218.47 21.59 218.30 22.20 C 217.53 21.82 215.99 21.07 215.22 20.70 C 216.11 16.99 217.00 13.27 217.83 9.55 C 217.13 9.39 215.72 9.06 215.02 8.90 C 214.46 12.75 213.91 16.59 213.40 20.45 C 213.07 19.52 212.73 18.58 212.38 17.66 L 212.23 17.22 C 210.78 13.62 209.41 9.83 210.55 5.87 C 211.08 8.33 211.79 10.76 212.80 13.07 C 212.55 9.34 212.12 5.62 211.27 1.98 C 211.19 1.48 211.04 0.49 210.97 0.00 M 216.91 19.37 C 218.16 16.83 219.25 14.21 220.07 11.50 C 218.53 13.89 217.25 16.49 216.91 19.37 Z" />
</g>
<g id="#84ad5aff">
<path fill="#84ad5a" opacity="1.00" d=" M 44.85 0.00 L 56.09 0.00 C 55.95 1.36 55.82 2.72 55.68 4.08 C 54.90 5.21 54.23 6.96 55.51 8.03 C 55.23 8.06 54.69 8.10 54.42 8.12 C 52.33 5.33 49.63 3.12 46.71 1.25 C 46.25 0.94 45.32 0.31 44.85 0.00 M 51.56 1.49 C 51.13 3.20 54.15 3.84 54.73 2.29 C 55.01 0.68 52.25 0.22 51.56 1.49 Z" />
<path fill="#84ad5a" opacity="1.00" d=" M 100.87 0.00 L 112.08 0.00 C 111.95 1.36 111.82 2.72 111.68 4.08 C 110.90 5.22 110.23 6.96 111.51 8.04 C 111.24 8.06 110.69 8.10 110.42 8.12 C 108.33 5.33 105.63 3.11 102.71 1.24 C 102.25 0.93 101.33 0.31 100.87 0.00 M 107.56 1.49 C 107.13 3.20 110.15 3.84 110.73 2.29 C 111.01 0.68 108.25 0.22 107.56 1.49 Z" />
<path fill="#84ad5a" opacity="1.00" d=" M 156.87 0.00 L 168.08 0.00 C 167.95 1.36 167.83 2.73 167.71 4.09 C 166.96 5.23 166.32 6.94 167.54 8.04 C 167.26 8.06 166.70 8.10 166.41 8.12 C 164.33 5.32 161.63 3.11 158.71 1.25 C 158.25 0.94 157.33 0.31 156.87 0.00 M 163.56 1.49 C 163.12 3.20 166.15 3.84 166.73 2.29 C 167.01 0.68 164.25 0.22 163.56 1.49 Z" />
<path fill="#84ad5a" opacity="1.00" d=" M 212.87 0.00 L 224.00 0.00 L 224.00 4.29 C 222.71 5.00 221.80 6.93 223.28 7.98 C 223.06 8.00 222.61 8.05 222.38 8.08 C 220.30 5.30 217.61 3.10 214.71 1.24 C 214.25 0.93 213.33 0.31 212.87 0.00 M 219.56 1.49 C 219.12 3.20 222.15 3.84 222.73 2.29 C 223.01 0.68 220.25 0.22 219.56 1.49 Z" />
</g>
<g id="#3c6bbefe">
<path fill="#3c6bbe" opacity="1.00" d=" M 56.09 0.00 L 85.55 0.00 C 79.71 5.24 71.58 2.95 64.66 2.20 C 65.53 4.22 66.64 6.24 66.73 8.49 C 64.69 10.40 62.32 11.93 60.09 13.60 C 64.11 13.27 68.14 13.03 72.17 13.10 C 70.57 11.29 68.97 9.46 67.37 7.64 C 71.08 4.34 75.99 4.03 80.48 5.78 C 84.88 2.17 90.51 0.98 95.97 0.00 L 97.83 0.00 C 97.60 0.35 97.13 1.05 96.89 1.39 C 95.98 2.39 95.59 3.53 95.71 4.83 C 95.91 8.03 96.08 11.23 96.39 14.42 C 96.44 14.77 96.55 15.46 96.61 15.81 C 97.26 18.78 97.83 21.79 98.88 24.65 C 100.72 26.60 102.91 28.16 105.03 29.79 C 104.34 31.48 103.65 33.17 102.99 34.88 C 101.00 34.00 99.04 33.05 97.06 32.17 C 96.77 33.08 96.49 34.00 96.21 34.92 C 100.97 36.94 105.99 38.24 111.06 39.21 C 108.99 37.60 106.92 36.00 104.86 34.39 C 109.45 29.44 115.33 26.04 121.49 23.44 C 124.24 22.70 123.91 19.51 124.55 17.34 C 127.09 16.11 129.62 14.87 132.13 13.58 C 125.58 16.27 118.67 18.64 111.82 15.47 C 111.91 13.59 112.10 9.84 112.19 7.96 C 112.35 6.63 112.18 5.34 111.68 4.08 C 111.82 2.72 111.95 1.36 112.08 0.00 L 138.36 0.00 C 137.76 0.60 136.56 1.79 135.96 2.38 C 130.86 2.10 125.75 1.87 120.67 1.25 C 121.54 3.25 122.64 5.26 122.73 7.49 C 120.69 9.40 118.32 10.93 116.09 12.60 C 120.11 12.27 124.14 12.03 128.17 12.10 C 126.56 10.28 124.96 8.45 123.36 6.62 C 126.58 3.97 130.64 3.13 134.63 4.37 C 137.84 5.52 139.42 1.66 141.45 0.00 L 153.82 0.00 C 150.43 7.69 151.46 16.43 155.59 23.65 C 155.54 22.84 155.46 21.23 155.42 20.43 C 157.44 20.83 159.47 21.24 161.51 21.65 C 161.39 23.02 161.29 24.40 161.14 25.77 C 160.77 28.27 160.44 30.94 158.91 33.04 C 156.08 32.97 153.31 32.29 150.52 31.90 C 149.43 29.62 148.29 27.35 146.97 25.20 C 147.31 27.29 147.67 29.37 148.05 31.46 C 141.67 34.78 132.56 35.07 128.61 28.01 C 133.69 25.89 139.22 25.51 144.63 24.83 C 141.03 23.90 137.07 22.62 133.50 24.33 C 129.60 25.89 128.74 30.50 126.58 33.71 C 130.35 34.84 134.61 35.20 137.97 37.22 C 139.59 40.23 137.05 43.84 136.68 47.00 C 140.97 43.85 141.28 37.34 146.11 34.98 C 153.22 33.21 160.01 36.72 166.77 38.42 C 165.01 36.34 161.15 34.61 162.26 31.36 C 163.39 29.17 166.15 29.16 168.26 28.70 C 172.35 28.38 175.95 26.27 179.63 24.65 C 180.05 22.24 180.66 19.86 181.36 17.51 C 176.73 19.11 171.97 17.81 167.43 16.55 C 167.67 13.69 167.93 10.83 168.22 7.97 C 168.42 6.64 168.25 5.34 167.71 4.09 C 167.83 2.73 167.95 1.36 168.08 0.00 L 197.59 0.00 C 192.38 4.35 185.39 2.89 179.24 4.35 C 178.56 8.49 175.41 11.24 172.21 13.65 C 176.18 13.27 180.18 13.03 184.17 13.09 C 182.56 11.28 180.96 9.46 179.37 7.64 C 183.08 4.34 187.99 4.03 192.48 5.78 C 196.88 2.17 202.51 0.98 207.97 0.00 L 209.83 0.00 C 209.60 0.35 209.13 1.05 208.89 1.39 C 207.98 2.39 207.59 3.53 207.71 4.83 C 207.91 8.03 208.08 11.23 208.39 14.42 C 208.44 14.77 208.55 15.46 208.60 15.81 C 209.25 18.78 209.83 21.79 210.88 24.65 C 212.72 26.60 214.91 28.16 217.03 29.79 C 216.34 31.48 215.65 33.17 214.99 34.88 C 213.00 34.00 211.04 33.05 209.06 32.17 C 208.77 33.09 208.49 34.01 208.21 34.93 C 212.90 36.83 217.79 38.15 222.69 39.39 C 220.74 37.24 218.81 35.06 217.11 32.71 C 219.41 31.26 221.75 29.85 224.00 28.32 L 224.00 45.13 C 215.55 44.77 207.02 42.57 198.58 44.19 C 201.89 45.17 205.27 45.95 208.65 46.67 C 213.73 47.96 218.93 46.18 224.00 45.87 L 224.00 50.54 C 220.99 51.14 218.02 51.81 214.98 52.19 C 214.66 52.06 214.01 51.82 213.69 51.70 C 212.25 53.11 210.84 54.55 209.44 56.00 L 205.25 56.00 C 200.39 53.96 195.82 51.34 191.20 48.84 C 195.62 43.30 199.08 36.29 206.32 33.89 C 204.88 31.30 203.56 28.63 201.93 26.15 C 202.28 28.22 202.65 30.30 203.04 32.36 C 200.11 33.59 197.15 35.28 193.89 35.20 C 190.99 34.48 188.35 32.91 185.59 31.83 C 188.07 27.35 192.92 25.78 197.91 26.33 C 197.20 22.39 199.81 19.39 202.76 17.19 C 198.59 18.09 194.31 17.85 190.17 16.94 C 192.81 18.73 195.27 20.80 197.16 23.40 C 193.50 24.76 189.80 25.97 186.13 27.25 C 185.25 29.79 185.75 33.49 182.93 34.71 C 179.43 36.13 175.77 37.08 172.17 38.22 C 174.60 41.87 177.54 45.25 181.62 47.08 C 179.48 44.56 177.25 42.11 175.23 39.49 C 181.33 36.44 188.17 34.59 194.95 36.86 C 193.43 41.37 190.93 45.50 187.43 48.74 C 188.00 48.91 189.15 49.26 189.72 49.44 C 187.86 51.16 185.99 52.87 184.13 54.60 C 186.74 53.45 189.25 51.93 192.09 51.43 C 194.89 51.51 197.26 53.30 199.70 54.48 C 198.26 55.00 196.80 55.51 195.34 56.00 L 168.66 56.00 C 168.27 54.49 167.87 52.98 167.46 51.47 L 167.18 50.55 C 164.02 51.22 160.95 52.22 157.87 53.16 C 156.22 53.36 154.58 54.25 154.23 56.00 L 150.25 56.00 C 145.07 51.87 138.96 49.23 133.53 45.49 C 132.68 46.12 131.82 46.75 130.98 47.38 C 131.70 47.65 133.14 48.17 133.86 48.43 C 131.95 50.11 130.03 51.79 128.11 53.46 C 133.59 50.69 140.10 49.92 145.63 52.98 C 143.57 53.33 139.43 54.04 137.36 54.39 C 137.99 54.79 139.25 55.60 139.88 56.00 L 112.74 56.00 C 112.28 54.54 111.84 53.07 111.43 51.60 L 111.21 50.83 C 108.46 51.27 105.73 51.77 102.96 52.06 C 102.64 51.96 101.99 51.76 101.66 51.66 C 100.24 53.09 98.85 54.55 97.45 56.00 L 93.25 56.00 C 88.39 53.96 83.82 51.34 79.20 48.84 C 83.63 43.29 87.10 36.24 94.39 33.87 C 92.92 31.26 91.36 28.71 89.62 26.27 C 90.11 28.36 90.60 30.46 91.11 32.55 C 85.50 35.30 79.10 34.29 73.50 32.00 C 75.98 27.44 80.82 25.71 85.91 26.33 C 85.20 22.39 87.81 19.39 90.76 17.19 C 86.59 18.09 82.31 17.85 78.17 16.94 C 80.81 18.73 83.27 20.80 85.16 23.40 C 81.50 24.76 77.80 25.97 74.13 27.25 C 73.26 29.79 73.75 33.49 70.93 34.71 C 67.43 36.13 63.77 37.08 60.17 38.22 C 62.60 41.87 65.54 45.25 69.62 47.08 C 67.48 44.56 65.25 42.11 63.23 39.49 C 69.33 36.44 76.17 34.59 82.95 36.86 C 81.43 41.37 78.93 45.50 75.43 48.74 C 76.00 48.91 77.15 49.26 77.72 49.44 C 75.86 51.16 73.99 52.87 72.13 54.60 C 74.74 53.45 77.25 51.93 80.09 51.43 C 82.90 51.51 85.26 53.30 87.70 54.48 C 86.26 55.00 84.80 55.51 83.34 56.00 L 56.65 56.00 C 56.26 54.46 55.87 52.92 55.46 51.39 L 55.10 50.16 C 51.83 50.87 48.64 52.07 45.92 54.06 C 46.50 52.96 47.06 51.85 47.60 50.73 L 46.43 51.00 C 45.22 51.23 44.02 51.44 42.81 51.65 C 42.58 52.28 42.12 53.53 41.89 54.16 C 41.71 54.62 41.33 55.54 41.14 56.00 L 32.84 56.00 C 30.03 53.80 27.26 51.52 24.13 49.79 C 27.30 45.87 30.33 41.77 32.20 37.05 C 34.32 36.71 36.44 36.37 38.57 36.04 C 36.60 33.16 34.84 30.15 32.84 27.29 C 33.25 29.34 33.68 31.39 34.12 33.43 C 29.23 36.58 23.50 35.72 18.77 32.72 C 20.82 28.85 24.81 27.22 29.01 27.15 C 29.04 25.41 28.24 23.19 29.92 21.97 C 32.77 19.73 36.63 20.65 39.90 21.13 C 40.84 22.51 41.83 23.85 42.92 25.12 C 45.91 28.23 49.75 31.40 47.62 36.08 C 45.42 35.13 43.23 34.16 41.05 33.19 C 40.77 34.10 40.49 35.02 40.21 35.93 C 44.91 37.87 49.84 39.14 54.76 40.37 C 52.86 38.31 49.46 36.57 50.04 33.29 C 55.19 29.40 61.84 28.19 67.01 24.39 C 68.34 22.31 68.74 19.78 69.62 17.50 C 65.03 19.12 60.32 17.94 55.88 16.41 C 55.93 13.59 56.03 10.77 56.19 7.96 C 56.34 6.63 56.17 5.34 55.68 4.08 C 55.82 2.72 55.95 1.36 56.09 0.00 M 138.59 9.22 C 141.01 10.51 143.48 11.72 146.03 12.75 C 145.37 14.07 144.70 15.39 144.02 16.70 C 146.37 16.56 148.72 16.51 151.07 16.52 C 148.35 14.54 146.60 11.68 144.42 9.19 C 142.50 8.80 140.52 9.20 138.59 9.22 M 157.15 22.40 C 156.30 26.38 161.14 21.59 157.15 22.40 M 114.60 36.91 C 114.41 37.46 114.22 38.02 114.03 38.58 C 115.19 38.84 116.34 39.11 117.50 39.37 C 117.49 39.76 117.46 40.56 117.45 40.95 C 121.33 38.82 125.40 37.05 129.40 35.13 C 124.49 35.92 119.61 37.69 114.60 36.91 M 103.41 38.82 C 101.84 41.35 101.10 45.99 96.62 43.99 C 93.24 43.39 89.84 43.19 86.56 44.44 C 89.91 45.16 93.31 45.63 96.59 46.62 C 101.46 48.63 106.55 45.40 111.55 45.91 C 112.60 47.19 113.65 48.49 114.68 49.79 C 115.37 48.27 116.07 46.76 116.77 45.25 C 112.24 45.32 107.73 44.77 103.24 44.27 C 103.34 42.45 103.41 40.64 103.41 38.82 M 155.01 44.17 C 152.71 44.93 150.62 43.39 148.61 42.53 C 148.42 43.25 148.22 43.98 148.03 44.71 C 152.35 46.51 157.06 47.82 161.37 45.17 C 161.05 43.18 160.80 41.18 160.63 39.17 C 158.92 40.97 157.51 43.41 155.01 44.17 M 34.88 42.82 C 33.57 43.79 32.24 44.75 30.89 45.68 C 35.53 44.94 40.50 45.60 43.81 49.24 C 44.61 48.30 45.41 47.36 46.22 46.43 C 49.62 46.68 53.03 46.72 56.45 46.77 C 52.93 46.04 49.45 45.10 45.95 44.25 C 46.30 42.87 46.65 41.49 47.02 40.12 C 44.13 43.75 38.96 45.63 34.88 42.82 M 163.97 44.23 C 163.65 46.00 167.35 46.00 167.03 44.23 C 166.42 43.18 164.58 43.18 163.97 44.23 M 113.51 51.40 C 116.81 51.92 120.12 52.51 123.45 52.85 C 120.48 50.79 116.93 49.60 113.51 51.40 Z" />
</g>
<g id="#4279caff">
<path fill="#4279ca" opacity="1.00" d=" M 85.55 0.00 L 95.97 0.00 C 90.51 0.98 84.88 2.17 80.48 5.78 C 75.99 4.03 71.08 4.34 67.37 7.64 C 68.97 9.46 70.57 11.29 72.17 13.10 C 68.14 13.03 64.11 13.27 60.09 13.60 C 62.32 11.93 64.69 10.40 66.73 8.49 C 66.64 6.24 65.53 4.22 64.66 2.20 C 71.58 2.95 79.71 5.24 85.55 0.00 Z" />
<path fill="#4279ca" opacity="1.00" d=" M 197.59 0.00 L 207.97 0.00 C 202.51 0.98 196.88 2.17 192.48 5.78 C 187.99 4.03 183.08 4.34 179.37 7.64 C 180.96 9.46 182.56 11.28 184.17 13.09 C 180.18 13.03 176.18 13.27 172.21 13.65 C 175.41 11.24 178.56 8.49 179.24 4.35 C 185.39 2.89 192.38 4.35 197.59 0.00 Z" />
<path fill="#4279ca" opacity="1.00" d=" M 113.51 51.40 C 116.93 49.60 120.48 50.79 123.45 52.85 C 120.12 52.51 116.81 51.92 113.51 51.40 Z" />
</g>
<g id="#268ed9ff">
<path fill="#268ed9" opacity="1.00" d=" M 97.83 0.00 L 98.97 0.00 C 99.04 0.49 99.19 1.48 99.27 1.98 C 98.98 3.26 98.74 4.56 98.55 5.87 C 97.41 9.84 98.79 13.62 100.23 17.23 C 99.35 15.84 98.08 14.62 96.39 14.42 C 96.08 11.23 95.91 8.03 95.71 4.83 C 97.72 5.09 97.74 2.58 96.89 1.39 C 97.13 1.05 97.60 0.35 97.83 0.00 Z" />
<path fill="#268ed9" opacity="1.00" d=" M 209.83 0.00 L 210.97 0.00 C 211.04 0.49 211.19 1.48 211.27 1.98 C 210.98 3.26 210.74 4.56 210.55 5.87 C 209.41 9.83 210.78 13.62 212.23 17.22 C 211.35 15.84 210.08 14.62 208.39 14.42 C 208.08 11.23 207.91 8.03 207.71 4.83 C 209.71 5.09 209.74 2.58 208.89 1.39 C 209.13 1.05 209.60 0.35 209.83 0.00 Z" />
<path fill="#268ed9" opacity="1.00" d=" M 109.93 19.21 C 110.40 19.17 111.34 19.08 111.80 19.04 C 111.60 19.58 111.20 20.66 111.00 21.21 C 110.73 20.71 110.20 19.71 109.93 19.21 Z" />
<path fill="#268ed9" opacity="1.00" d=" M 54.19 19.95 C 54.63 20.03 55.52 20.18 55.96 20.26 C 55.72 20.75 55.25 21.71 55.01 22.20 C 54.80 21.64 54.39 20.51 54.19 19.95 Z" />
</g>
<g id="#4278caff">
<path fill="#4278ca" opacity="1.00" d=" M 138.36 0.00 L 141.45 0.00 C 139.42 1.66 137.84 5.52 134.63 4.37 C 130.64 3.13 126.58 3.97 123.36 6.62 C 124.96 8.45 126.56 10.28 128.17 12.10 C 124.14 12.03 120.11 12.27 116.09 12.60 C 118.32 10.93 120.69 9.40 122.73 7.49 C 122.64 5.26 121.54 3.25 120.67 1.25 C 125.75 1.87 130.86 2.10 135.96 2.38 C 136.56 1.79 137.76 0.60 138.36 0.00 Z" />
<path fill="#4278ca" opacity="1.00" d=" M 111.82 15.47 C 118.67 18.64 125.58 16.27 132.13 13.58 C 129.62 14.87 127.09 16.11 124.55 17.34 C 123.91 19.51 124.24 22.70 121.49 23.44 C 115.33 26.04 109.45 29.44 104.86 34.39 C 106.92 36.00 108.99 37.60 111.06 39.21 C 105.99 38.24 100.97 36.94 96.21 34.92 C 96.49 34.00 96.77 33.08 97.06 32.17 C 99.04 33.05 101.00 34.00 102.99 34.88 C 103.65 33.17 104.34 31.48 105.03 29.79 C 102.91 28.16 100.72 26.60 98.88 24.65 C 99.62 23.59 100.35 22.52 101.07 21.44 C 102.58 22.27 104.23 22.91 105.97 22.98 C 105.25 24.03 104.55 25.09 103.86 26.17 C 110.63 27.05 116.80 24.15 122.58 21.10 C 119.15 19.47 115.51 18.36 111.79 17.64 C 111.79 17.10 111.81 16.01 111.82 15.47 M 101.15 23.40 C 100.30 27.38 105.14 22.59 101.15 23.40 Z" />
</g>
<g id="#332e2aff">
<path fill="#332e2a" opacity="1.00" d=" M 155.06 0.00 L 156.87 0.00 C 157.33 0.31 158.25 0.94 158.71 1.25 C 158.68 3.23 158.52 5.24 158.87 7.21 C 161.23 8.30 163.88 8.23 166.41 8.12 C 166.70 8.10 167.26 8.06 167.54 8.04 L 168.22 7.97 C 167.93 10.83 167.67 13.69 167.43 16.55 C 167.38 17.02 167.29 17.94 167.25 18.41 C 166.95 18.30 166.35 18.08 166.05 17.97 L 165.68 17.83 C 164.61 16.61 162.73 17.52 163.11 19.12 C 162.89 19.73 162.45 20.94 162.24 21.54 C 161.66 21.11 160.52 20.25 159.94 19.82 C 160.51 16.36 161.12 12.91 161.75 9.47 C 161.17 9.38 160.01 9.21 159.43 9.12 C 158.53 11.68 157.61 14.23 156.65 16.77 C 156.41 16.44 155.93 15.76 155.69 15.42 C 154.91 13.89 154.17 12.34 153.54 10.75 C 153.78 9.53 154.27 7.07 154.51 5.85 C 155.08 8.31 155.78 10.74 156.79 13.06 C 156.54 9.35 156.13 5.65 155.36 2.01 C 155.29 1.51 155.13 0.50 155.06 0.00 M 160.91 19.37 C 162.16 16.83 163.25 14.21 164.07 11.50 C 162.53 13.89 161.25 16.49 160.91 19.37 Z" />
<path fill="#332e2a" opacity="1.00" d=" M 45.92 54.06 C 48.64 52.07 51.83 50.87 55.10 50.16 L 55.46 51.39 C 52.83 52.89 50.25 54.47 47.64 56.00 L 43.90 56.00 C 44.41 55.52 45.42 54.55 45.92 54.06 Z" />
<path fill="#332e2a" opacity="1.00" d=" M 102.96 52.06 C 105.73 51.77 108.46 51.27 111.21 50.83 L 111.43 51.60 C 108.80 53.02 106.23 54.51 103.65 56.00 L 100.88 56.00 L 100.87 55.51 C 101.92 54.55 102.61 53.40 102.96 52.06 Z" />
<path fill="#332e2a" opacity="1.00" d=" M 157.87 53.16 C 160.95 52.22 164.02 51.22 167.18 50.55 L 167.46 51.47 C 164.83 52.93 162.26 54.48 159.67 56.00 L 156.65 56.00 C 156.95 55.29 157.56 53.87 157.87 53.16 Z" />
<path fill="#332e2a" opacity="1.00" d=" M 214.98 52.19 C 218.02 51.81 220.99 51.14 224.00 50.54 L 224.00 51.10 C 221.23 52.73 218.51 54.40 215.74 56.00 L 212.87 56.00 L 212.86 55.53 C 213.90 54.60 214.60 53.49 214.98 52.19 Z" />
</g>
<g id="#86a0b1ff">
<path fill="#86a0b1" opacity="1.00" d=" M 40.12 0.75 C 42.51 1.41 42.15 6.11 39.76 3.44 C 39.85 2.77 40.03 1.42 40.12 0.75 Z" />
</g>
<g id="#6f9a52ff">
<path fill="#6f9a52" opacity="1.00" d=" M 51.56 1.49 C 52.25 0.22 55.01 0.68 54.73 2.29 C 54.15 3.84 51.13 3.20 51.56 1.49 Z" />
<path fill="#6f9a52" opacity="1.00" d=" M 107.56 1.49 C 108.25 0.22 111.01 0.68 110.73 2.29 C 110.15 3.84 107.13 3.20 107.56 1.49 Z" />
<path fill="#6f9a52" opacity="1.00" d=" M 163.56 1.49 C 164.25 0.22 167.01 0.68 166.73 2.29 C 166.15 3.84 163.12 3.20 163.56 1.49 Z" />
<path fill="#6f9a52" opacity="1.00" d=" M 219.56 1.49 C 220.25 0.22 223.01 0.68 222.73 2.29 C 222.15 3.84 219.12 3.20 219.56 1.49 Z" />
</g>
<g id="#709e5cff">
<path fill="#709e5c" opacity="1.00" d=" M 46.71 1.25 C 49.63 3.12 52.33 5.33 54.42 8.12 C 52.28 8.21 50.02 8.41 48.00 7.56 C 45.43 6.63 47.06 3.25 46.71 1.25 Z" />
<path fill="#709e5c" opacity="1.00" d=" M 102.71 1.24 C 105.63 3.11 108.33 5.33 110.42 8.12 C 108.27 8.21 106.02 8.41 104.00 7.56 C 101.43 6.64 103.06 3.25 102.71 1.24 Z" />
<path fill="#709e5c" opacity="1.00" d=" M 158.71 1.25 C 161.63 3.11 164.33 5.32 166.41 8.12 C 163.88 8.23 161.23 8.30 158.87 7.21 C 158.52 5.24 158.68 3.23 158.71 1.25 Z" />
<path fill="#709e5c" opacity="1.00" d=" M 214.71 1.24 C 217.61 3.10 220.30 5.30 222.38 8.08 C 220.25 8.20 218.01 8.39 215.98 7.59 C 213.48 6.58 215.04 3.26 214.71 1.24 Z" />
</g>
<g id="#7392b4ff">
<path fill="#7392b4" opacity="1.00" d=" M 95.71 4.83 C 95.59 3.53 95.98 2.39 96.89 1.39 C 97.74 2.58 97.72 5.09 95.71 4.83 Z" />
<path fill="#7392b4" opacity="1.00" d=" M 207.71 4.83 C 207.59 3.53 207.98 2.39 208.89 1.39 C 209.74 2.58 209.71 5.09 207.71 4.83 Z" />
</g>
<g id="#645a4bff">
<path fill="#645a4b" opacity="1.00" d=" M 43.20 2.01 C 44.39 5.57 44.68 9.35 44.81 13.08 C 43.78 10.78 43.10 8.35 42.58 5.89 C 42.74 4.59 42.95 3.29 43.20 2.01 Z" />
<path fill="#645a4b" opacity="1.00" d=" M 99.27 1.98 C 100.12 5.62 100.56 9.34 100.80 13.07 C 99.80 10.76 99.08 8.33 98.55 5.87 C 98.74 4.56 98.98 3.26 99.27 1.98 Z" />
<path fill="#645a4b" opacity="1.00" d=" M 155.36 2.01 C 156.13 5.65 156.54 9.35 156.79 13.06 C 155.78 10.74 155.08 8.31 154.51 5.85 C 154.77 4.56 155.06 3.29 155.36 2.01 Z" />
<path fill="#645a4b" opacity="1.00" d=" M 211.27 1.98 C 212.12 5.62 212.55 9.34 212.80 13.07 C 211.79 10.76 211.08 8.33 210.55 5.87 C 210.74 4.56 210.98 3.26 211.27 1.98 Z" />
</g>
<g id="#5c8260ff">
<path fill="#5c8260" opacity="1.00" d=" M 55.51 8.03 C 54.23 6.96 54.90 5.21 55.68 4.08 C 56.17 5.34 56.34 6.63 56.19 7.96 L 55.51 8.03 Z" />
<path fill="#5c8260" opacity="1.00" d=" M 111.51 8.04 C 110.23 6.96 110.90 5.22 111.68 4.08 C 112.18 5.34 112.35 6.63 112.19 7.96 L 111.51 8.04 Z" />
<path fill="#5c8260" opacity="1.00" d=" M 167.54 8.04 C 166.32 6.94 166.96 5.23 167.71 4.09 C 168.25 5.34 168.42 6.64 168.22 7.97 L 167.54 8.04 Z" />
<path fill="#5c8260" opacity="1.00" d=" M 223.28 7.98 C 221.80 6.93 222.71 5.00 224.00 4.29 L 224.00 7.88 L 223.28 7.98 Z" />
</g>
<g id="#4377cafe">
<path fill="#4377ca" opacity="1.00" d=" M 138.59 9.22 C 140.52 9.20 142.50 8.80 144.42 9.19 C 146.60 11.68 148.35 14.54 151.07 16.52 C 148.72 16.51 146.37 16.56 144.02 16.70 C 144.70 15.39 145.37 14.07 146.03 12.75 C 143.48 11.72 141.01 10.51 138.59 9.22 Z" />
</g>
<g id="#6c604cff">
<path fill="#6c604c" opacity="1.00" d=" M 47.09 8.92 C 47.71 9.06 48.96 9.35 49.58 9.49 C 48.89 13.59 48.33 17.70 47.90 21.83 C 47.41 21.46 46.43 20.74 45.95 20.37 L 45.45 20.00 C 45.96 16.30 46.53 12.61 47.09 8.92 Z" />
<path fill="#6c604c" opacity="1.00" d=" M 103.03 8.90 C 103.73 9.06 105.14 9.39 105.85 9.55 C 105.00 13.25 104.09 16.94 103.16 20.63 C 102.70 20.74 101.77 20.96 101.30 21.07 L 101.38 20.44 C 101.90 16.59 102.46 12.74 103.03 8.90 Z" />
<path fill="#6c604c" opacity="1.00" d=" M 215.02 8.90 C 215.72 9.06 217.13 9.39 217.83 9.55 C 217.00 13.27 216.11 16.99 215.22 20.70 C 214.75 20.79 213.80 20.98 213.32 21.07 L 213.40 20.45 C 213.91 16.59 214.46 12.75 215.02 8.90 Z" />
</g>
<g id="#6c5f4bff">
<path fill="#6c5f4b" opacity="1.00" d=" M 159.43 9.12 C 160.01 9.21 161.17 9.38 161.75 9.47 C 161.12 12.91 160.51 16.36 159.94 19.82 C 158.77 18.89 157.67 17.87 156.65 16.77 C 157.61 14.23 158.53 11.68 159.43 9.12 Z" />
</g>
<g id="#565249ff">
<path fill="#565249" opacity="1.00" d=" M 48.91 19.37 C 49.27 16.49 50.52 13.89 52.07 11.50 C 51.25 14.21 50.16 16.83 48.91 19.37 Z" />
<path fill="#565249" opacity="1.00" d=" M 104.91 19.37 C 105.26 16.49 106.52 13.89 108.07 11.50 C 107.25 14.21 106.16 16.83 104.91 19.37 Z" />
<path fill="#565249" opacity="1.00" d=" M 160.91 19.37 C 161.25 16.49 162.53 13.89 164.07 11.50 C 163.25 14.21 162.16 16.83 160.91 19.37 Z" />
<path fill="#565249" opacity="1.00" d=" M 216.91 19.37 C 217.25 16.49 218.53 13.89 220.07 11.50 C 219.25 14.21 218.16 16.83 216.91 19.37 Z" />
<path fill="#565249" opacity="1.00" d=" M 51.17 20.92 C 50.44 19.06 52.42 15.91 53.60 18.92 C 53.39 19.37 52.96 20.27 52.75 20.71 C 52.36 20.76 51.56 20.87 51.17 20.92 Z" />
<path fill="#565249" opacity="1.00" d=" M 107.02 19.66 C 106.86 17.48 110.06 16.56 109.19 19.38 L 108.47 19.91 C 108.11 19.84 107.38 19.72 107.02 19.66 Z" />
<path fill="#565249" opacity="1.00" d=" M 218.99 19.75 C 218.69 17.47 221.96 16.53 221.06 19.43 L 220.40 19.95 C 220.05 19.90 219.34 19.80 218.99 19.75 Z" />
</g>
<g id="#709fc2fe">
<path fill="#709fc2" opacity="1.00" d=" M 41.18 14.32 C 43.38 13.87 43.58 16.98 43.87 18.49 L 43.94 18.86 C 42.76 18.00 41.61 17.02 40.93 15.69 C 40.99 15.35 41.12 14.66 41.18 14.32 Z" />
</g>
<g id="#7ca2beff">
<path fill="#7ca2be" opacity="1.00" d=" M 96.39 14.42 C 98.08 14.62 99.35 15.84 100.23 17.23 L 100.38 17.66 C 98.93 17.61 97.51 16.97 96.61 15.81 C 96.55 15.46 96.44 14.77 96.39 14.42 Z" />
<path fill="#7ca2be" opacity="1.00" d=" M 208.39 14.42 C 210.08 14.62 211.35 15.84 212.23 17.22 L 212.38 17.66 C 210.93 17.61 209.51 16.97 208.60 15.81 C 208.55 15.46 208.44 14.77 208.39 14.42 Z" />
</g>
<g id="#7fa1b9ff">
<path fill="#7fa1b9" opacity="1.00" d=" M 154.43 13.66 C 154.74 14.10 155.37 14.98 155.69 15.42 C 155.93 15.76 156.41 16.44 156.65 16.77 C 157.67 17.87 158.77 18.89 159.94 19.82 C 160.52 20.25 161.66 21.11 162.24 21.54 L 162.68 21.89 L 161.51 21.65 C 159.47 21.24 157.44 20.83 155.42 20.43 C 155.23 18.15 154.81 15.91 154.43 13.66 Z" />
</g>
<g id="#4379caff">
<path fill="#4379ca" opacity="1.00" d=" M 22.38 19.30 C 28.37 18.92 34.42 17.08 40.33 19.02 C 40.22 19.54 40.01 20.60 39.90 21.13 C 36.63 20.65 32.77 19.73 29.92 21.97 C 28.24 23.19 29.04 25.41 29.01 27.15 C 24.81 27.22 20.82 28.85 18.77 32.72 C 23.50 35.72 29.23 36.58 34.12 33.43 C 33.68 31.39 33.25 29.34 32.84 27.29 C 34.84 30.15 36.60 33.16 38.57 36.04 C 36.44 36.37 34.32 36.71 32.20 37.05 C 30.33 41.77 27.30 45.87 24.13 49.79 C 27.26 51.52 30.03 53.80 32.84 56.00 L 31.68 56.00 C 29.91 54.88 28.25 53.53 26.30 52.71 C 22.63 52.12 19.71 54.45 16.69 56.00 L 15.66 56.00 C 17.75 54.27 19.72 52.41 21.75 50.61 C 21.41 49.09 21.06 47.58 20.71 46.07 C 23.11 44.61 25.59 43.16 27.46 41.02 C 22.99 34.52 13.95 35.62 8.35 39.92 C 10.75 42.68 13.24 45.37 15.68 48.10 C 12.78 46.51 10.22 44.42 8.18 41.82 C 6.37 39.11 2.81 39.09 0.00 38.23 L 0.00 37.83 C 6.36 36.85 13.57 37.02 18.84 32.89 C 18.40 31.06 17.63 29.34 16.85 27.63 C 20.74 27.25 24.54 26.25 28.19 24.89 C 26.35 22.93 24.41 21.06 22.38 19.30 Z" />
<path fill="#4379ca" opacity="1.00" d=" M 114.60 36.91 C 119.61 37.69 124.49 35.92 129.40 35.13 C 125.40 37.05 121.33 38.82 117.45 40.95 C 117.46 40.56 117.49 39.76 117.50 39.37 C 116.34 39.11 115.19 38.84 114.03 38.58 C 114.22 38.02 114.41 37.46 114.60 36.91 Z" />
</g>
<g id="#298ad7ff">
<path fill="#298ad7" opacity="1.00" d=" M 40.93 15.69 C 41.61 17.02 42.76 18.00 43.94 18.86 C 44.32 19.15 45.07 19.71 45.45 20.00 L 45.95 20.37 C 45.69 20.76 45.17 21.55 44.91 21.95 L 44.52 22.55 C 44.55 21.44 42.83 19.76 42.15 21.36 C 42.21 22.52 42.88 23.12 44.15 23.13 C 43.84 23.63 43.23 24.62 42.92 25.12 C 41.83 23.85 40.84 22.51 39.90 21.13 C 40.01 20.60 40.22 19.54 40.33 19.02 C 40.48 18.18 40.78 16.52 40.93 15.69 Z" />
</g>
<g id="#427acbff">
<path fill="#427acb" opacity="1.00" d=" M 55.88 16.41 C 60.32 17.94 65.03 19.12 69.62 17.50 C 68.74 19.78 68.34 22.31 67.01 24.39 C 61.84 28.19 55.19 29.40 50.04 33.29 C 49.46 36.57 52.86 38.31 54.76 40.37 C 49.84 39.14 44.91 37.87 40.21 35.93 C 40.49 35.02 40.77 34.10 41.05 33.19 C 43.23 34.16 45.42 35.13 47.62 36.08 C 49.75 31.40 45.91 28.23 42.92 25.12 C 43.23 24.62 43.84 23.63 44.15 23.13 L 44.52 22.55 L 44.91 21.95 C 45.69 22.76 46.47 23.57 47.25 24.38 C 45.84 22.98 43.41 25.84 45.60 26.49 C 52.65 30.80 60.65 26.02 66.88 22.45 C 63.49 20.53 59.76 19.30 55.90 18.71 C 55.90 18.13 55.88 16.98 55.88 16.41 Z" />
<path fill="#427acb" opacity="1.00" d=" M 0.00 17.41 C 6.40 20.64 13.38 19.36 20.02 17.76 C 17.48 18.96 14.68 19.81 12.46 21.58 C 11.53 23.15 11.80 25.11 11.59 26.86 C 7.71 28.23 3.84 29.61 0.00 31.08 L 0.00 29.16 C 3.87 27.61 7.79 26.14 11.38 23.99 C 7.80 21.85 3.88 20.40 0.00 18.91 L 0.00 17.41 Z" />
<path fill="#427acb" opacity="1.00" d=" M 2.86 47.81 C 4.52 47.39 6.19 47.00 7.86 46.65 C 6.81 47.98 5.77 49.33 4.75 50.70 C 6.87 52.14 9.00 53.56 11.13 54.98 C 8.39 54.74 5.65 54.48 2.91 54.23 C 3.07 52.09 3.01 49.95 2.86 47.81 Z" />
</g>
<g id="#3a94d8ff">
<path fill="#3a94d8" opacity="1.00" d=" M 96.61 15.81 C 97.51 16.97 98.93 17.61 100.38 17.66 C 100.73 18.58 101.06 19.51 101.38 20.44 L 101.30 21.07 L 101.07 21.44 C 100.35 22.52 99.62 23.59 98.88 24.65 C 97.83 21.79 97.26 18.78 96.61 15.81 Z" />
<path fill="#3a94d8" opacity="1.00" d=" M 208.60 15.81 C 209.51 16.97 210.93 17.61 212.38 17.66 C 212.73 18.58 213.07 19.52 213.40 20.45 L 213.32 21.07 L 213.10 21.44 C 212.37 22.52 211.63 23.59 210.88 24.65 C 209.83 21.79 209.25 18.78 208.60 15.81 Z" />
</g>
<g id="#437acaff">
<path fill="#437aca" opacity="1.00" d=" M 167.43 16.55 C 171.97 17.81 176.73 19.11 181.36 17.51 C 180.66 19.86 180.05 22.24 179.63 24.65 C 175.95 26.27 172.35 28.38 168.26 28.70 C 166.15 29.16 163.39 29.17 162.26 31.36 C 161.15 34.61 165.01 36.34 166.77 38.42 C 160.01 36.72 153.22 33.21 146.11 34.98 C 141.28 37.34 140.97 43.85 136.68 47.00 C 137.05 43.84 139.59 40.23 137.97 37.22 C 134.61 35.20 130.35 34.84 126.58 33.71 C 128.74 30.50 129.60 25.89 133.50 24.33 C 137.07 22.62 141.03 23.90 144.63 24.83 C 139.22 25.51 133.69 25.89 128.61 28.01 C 132.56 35.07 141.67 34.78 148.05 31.46 C 147.67 29.37 147.31 27.29 146.97 25.20 C 148.29 27.35 149.43 29.62 150.52 31.90 C 153.31 32.29 156.08 32.97 158.91 33.04 C 160.44 30.94 160.77 28.27 161.14 25.77 L 162.18 25.79 C 168.01 26.91 173.98 25.98 178.99 22.72 C 176.75 21.40 174.55 19.71 171.92 19.32 C 169.17 19.58 166.80 21.18 164.34 22.28 C 165.96 21.64 167.40 20.28 167.25 18.41 C 167.29 17.94 167.38 17.02 167.43 16.55 Z" />
</g>
<g id="#4279cafe">
<path fill="#4279ca" opacity="1.00" d=" M 78.17 16.94 C 82.31 17.85 86.59 18.09 90.76 17.19 C 87.81 19.39 85.20 22.39 85.91 26.33 C 80.82 25.71 75.98 27.44 73.50 32.00 C 79.10 34.29 85.50 35.30 91.11 32.55 C 90.60 30.46 90.11 28.36 89.62 26.27 C 91.36 28.71 92.92 31.26 94.39 33.87 C 87.10 36.24 83.63 43.29 79.20 48.84 C 83.82 51.34 88.39 53.96 93.25 56.00 L 83.34 56.00 C 84.80 55.51 86.26 55.00 87.70 54.48 C 85.26 53.30 82.90 51.51 80.09 51.43 C 77.25 51.93 74.74 53.45 72.13 54.60 C 73.99 52.87 75.86 51.16 77.72 49.44 C 77.15 49.26 76.00 48.91 75.43 48.74 C 78.93 45.50 81.43 41.37 82.95 36.86 C 76.17 34.59 69.33 36.44 63.23 39.49 C 65.25 42.11 67.48 44.56 69.62 47.08 C 65.54 45.25 62.60 41.87 60.17 38.22 C 63.77 37.08 67.43 36.13 70.93 34.71 C 73.75 33.49 73.26 29.79 74.13 27.25 C 77.80 25.97 81.50 24.76 85.16 23.40 C 83.27 20.80 80.81 18.73 78.17 16.94 Z" />
</g>
<g id="#4a463eff">
<path fill="#4a463e" opacity="1.00" d=" M 163.11 19.12 C 162.73 17.52 164.61 16.61 165.68 17.83 C 165.03 18.15 163.75 18.80 163.11 19.12 Z" />
</g>
<g id="#4279cbfe">
<path fill="#4279cb" opacity="1.00" d=" M 190.17 16.94 C 194.31 17.85 198.59 18.09 202.76 17.19 C 199.81 19.39 197.20 22.39 197.91 26.33 C 192.92 25.78 188.07 27.35 185.59 31.83 C 188.35 32.91 190.99 34.48 193.89 35.20 C 197.15 35.28 200.11 33.59 203.04 32.36 C 202.65 30.30 202.28 28.22 201.93 26.15 C 203.56 28.63 204.88 31.30 206.32 33.89 C 199.08 36.29 195.62 43.30 191.20 48.84 C 195.82 51.34 200.39 53.96 205.25 56.00 L 195.34 56.00 C 196.80 55.51 198.26 55.00 199.70 54.48 C 197.26 53.30 194.89 51.51 192.09 51.43 C 189.25 51.93 186.74 53.45 184.13 54.60 C 185.99 52.87 187.86 51.16 189.72 49.44 C 189.15 49.26 188.00 48.91 187.43 48.74 C 190.93 45.50 193.43 41.37 194.95 36.86 C 188.17 34.59 181.33 36.44 175.23 39.49 C 177.25 42.11 179.48 44.56 181.62 47.08 C 177.54 45.25 174.60 41.87 172.17 38.22 C 175.77 37.08 179.43 36.13 182.93 34.71 C 185.75 33.49 185.25 29.79 186.13 27.25 C 189.80 25.97 193.50 24.76 197.16 23.40 C 195.27 20.80 192.81 18.73 190.17 16.94 Z" />
</g>
<g id="#3b6cbfff">
<path fill="#3b6cbf" opacity="1.00" d=" M 111.79 17.64 C 115.51 18.36 119.15 19.47 122.58 21.10 C 116.80 24.15 110.63 27.05 103.86 26.17 C 106.36 25.62 108.85 25.05 111.34 24.48 C 110.32 24.00 109.29 23.53 108.25 23.08 C 109.29 22.64 110.21 22.01 111.00 21.21 C 111.20 20.66 111.60 19.58 111.80 19.04 L 111.79 17.64 Z" />
</g>
<g id="#5688bafe">
<path fill="#5688ba" opacity="1.00" d=" M 165.68 17.83 L 166.05 17.97 C 165.13 19.25 164.51 20.71 163.92 22.16 C 163.61 22.09 162.99 21.95 162.68 21.89 L 162.24 21.54 C 162.45 20.94 162.89 19.73 163.11 19.12 C 163.75 18.80 165.03 18.15 165.68 17.83 Z" />
</g>
<g id="#9cb3c7fe">
<path fill="#9cb3c7" opacity="1.00" d=" M 166.05 17.97 C 166.35 18.08 166.95 18.30 167.25 18.41 C 167.40 20.28 165.96 21.64 164.34 22.28 L 163.92 22.16 C 164.51 20.71 165.13 19.25 166.05 17.97 Z" />
<path fill="#9cb3c7" opacity="1.00" d=" M 109.19 19.38 L 109.93 19.21 C 110.20 19.71 110.73 20.71 111.00 21.21 C 110.21 22.01 109.29 22.64 108.25 23.08 L 107.73 22.87 C 108.06 21.90 108.31 20.91 108.47 19.91 L 109.19 19.38 Z" />
<path fill="#9cb3c7" opacity="1.00" d=" M 221.06 19.43 L 221.80 19.32 C 223.67 20.66 222.08 22.82 220.32 23.18 L 219.87 22.93 C 220.19 21.96 220.36 20.97 220.40 19.95 L 221.06 19.43 Z" />
</g>
<g id="#9eb5c9ff">
<path fill="#9eb5c9" opacity="1.00" d=" M 53.60 18.92 C 53.74 19.18 54.04 19.69 54.19 19.95 C 54.39 20.51 54.80 21.64 55.01 22.20 C 54.18 22.56 53.34 22.91 52.49 23.23 L 51.87 23.45 C 52.23 22.56 52.52 21.65 52.75 20.71 C 52.96 20.27 53.39 19.37 53.60 18.92 Z" />
</g>
<g id="#3b6bbeff">
<path fill="#3b6bbe" opacity="1.00" d=" M 55.90 18.71 C 59.76 19.30 63.49 20.53 66.88 22.45 C 60.65 26.02 52.65 30.80 45.60 26.49 C 46.02 25.96 46.84 24.91 47.25 24.38 C 47.78 24.29 48.82 24.09 49.35 23.99 C 49.03 24.57 48.41 25.72 48.10 26.30 C 50.40 26.27 52.70 26.21 55.00 26.17 C 54.16 25.19 53.32 24.21 52.49 23.23 C 53.34 22.91 54.18 22.56 55.01 22.20 C 55.25 21.71 55.72 20.75 55.96 20.26 L 55.90 18.71 Z" />
</g>
<g id="#3c6abeff">
<path fill="#3c6abe" opacity="1.00" d=" M 164.34 22.28 C 166.80 21.18 169.17 19.58 171.92 19.32 C 174.55 19.71 176.75 21.40 178.99 22.72 C 173.98 25.98 168.01 26.91 162.18 25.79 C 163.90 24.98 165.60 24.11 167.31 23.26 C 166.32 22.92 165.33 22.60 164.34 22.28 Z" />
<path fill="#3c6abe" opacity="1.00" d=" M 0.00 18.91 C 3.88 20.40 7.80 21.85 11.38 23.99 C 7.79 26.14 3.87 27.61 0.00 29.16 L 0.00 18.91 Z" />
</g>
<g id="#337cccff">
<path fill="#337ccc" opacity="1.00" d=" M 221.80 19.32 C 222.35 19.24 223.45 19.07 224.00 18.99 L 224.00 25.64 L 223.30 25.17 C 222.32 24.49 221.32 23.83 220.32 23.18 C 222.08 22.82 223.67 20.66 221.80 19.32 Z" />
</g>
<g id="#adc2d9ff">
<path fill="#adc2d9" opacity="1.00" d=" M 42.15 21.36 C 42.83 19.76 44.55 21.44 44.52 22.55 L 44.15 23.13 C 42.88 23.12 42.21 22.52 42.15 21.36 Z" />
</g>
<g id="#4f7baeff">
<path fill="#4f7bae" opacity="1.00" d=" M 107.02 19.66 C 107.38 19.72 108.11 19.84 108.47 19.91 C 108.31 20.91 108.06 21.90 107.73 22.87 C 107.40 22.79 106.73 22.63 106.40 22.54 L 106.16 21.94 C 106.37 21.37 106.80 20.23 107.02 19.66 Z" />
<path fill="#4f7bae" opacity="1.00" d=" M 218.99 19.75 C 219.34 19.80 220.05 19.90 220.40 19.95 C 220.36 20.97 220.19 21.96 219.87 22.93 C 219.54 22.90 218.88 22.83 218.54 22.80 L 218.30 22.20 C 218.47 21.59 218.82 20.37 218.99 19.75 Z" />
<path fill="#4f7bae" opacity="1.00" d=" M 51.17 20.92 C 51.56 20.87 52.36 20.76 52.75 20.71 C 52.52 21.65 52.23 22.56 51.87 23.45 C 51.52 23.54 50.82 23.71 50.47 23.80 L 50.03 23.45 C 50.31 22.82 50.88 21.55 51.17 20.92 Z" />
</g>
<g id="#8ea7b9ff">
<path fill="#8ea7b9" opacity="1.00" d=" M 44.91 21.95 C 45.17 21.55 45.69 20.76 45.95 20.37 C 46.43 20.74 47.41 21.46 47.90 21.83 C 48.43 22.23 49.49 23.04 50.03 23.45 L 50.47 23.80 L 49.35 23.99 C 48.82 24.09 47.78 24.29 47.25 24.38 C 46.47 23.57 45.69 22.76 44.91 21.95 Z" />
</g>
<g id="#8ba4b6fe">
<path fill="#8ba4b6" opacity="1.00" d=" M 101.07 21.44 L 101.30 21.07 C 101.77 20.96 102.70 20.74 103.16 20.63 C 103.91 20.95 105.41 21.61 106.16 21.94 L 106.40 22.54 L 105.97 22.98 C 104.23 22.91 102.58 22.27 101.07 21.44 Z" />
<path fill="#8ba4b6" opacity="1.00" d=" M 213.10 21.44 L 213.32 21.07 C 213.80 20.98 214.75 20.79 215.22 20.70 C 215.99 21.07 217.53 21.82 218.30 22.20 L 218.54 22.80 L 218.01 23.13 C 216.26 22.95 214.60 22.32 213.10 21.44 Z" />
</g>
<g id="#4378c9ff">
<path fill="#4378c9" opacity="1.00" d=" M 210.88 24.65 C 211.63 23.59 212.37 22.52 213.10 21.44 C 214.60 22.32 216.26 22.95 218.01 23.13 C 217.30 23.59 215.89 24.50 215.18 24.95 L 214.48 25.28 C 215.18 21.92 210.69 24.49 213.80 25.60 C 217.02 27.00 220.56 27.25 224.00 27.76 L 224.00 28.32 C 221.75 29.85 219.41 31.26 217.11 32.71 C 218.81 35.06 220.74 37.24 222.69 39.39 C 217.79 38.15 212.90 36.83 208.21 34.93 C 208.49 34.01 208.77 33.09 209.06 32.17 C 211.04 33.05 213.00 34.00 214.99 34.88 C 215.65 33.17 216.34 31.48 217.03 29.79 C 214.91 28.16 212.72 26.60 210.88 24.65 Z" />
</g>
<g id="#65569cff">
<path fill="#65569c" opacity="1.00" d=" M 157.15 22.40 C 161.14 21.59 156.30 26.38 157.15 22.40 Z" />
<path fill="#65569c" opacity="1.00" d=" M 161.51 21.65 L 162.68 21.89 C 162.99 21.95 163.61 22.09 163.92 22.16 L 164.34 22.28 C 165.33 22.60 166.32 22.92 167.31 23.26 C 165.60 24.11 163.90 24.98 162.18 25.79 L 161.14 25.77 C 161.29 24.40 161.39 23.02 161.51 21.65 Z" />
<path fill="#65569c" opacity="1.00" d=" M 101.15 23.40 C 105.14 22.59 100.30 27.38 101.15 23.40 Z" />
<path fill="#65569c" opacity="1.00" d=" M 105.97 22.98 L 106.40 22.54 C 106.73 22.63 107.40 22.79 107.73 22.87 L 108.25 23.08 C 109.29 23.53 110.32 24.00 111.34 24.48 C 108.85 25.05 106.36 25.62 103.86 26.17 C 104.55 25.09 105.25 24.03 105.97 22.98 Z" />
<path fill="#65569c" opacity="1.00" d=" M 213.80 25.60 C 210.69 24.49 215.18 21.92 214.48 25.28 L 213.80 25.60 Z" />
<path fill="#65569c" opacity="1.00" d=" M 218.01 23.13 L 218.54 22.80 C 218.88 22.83 219.54 22.90 219.87 22.93 L 220.32 23.18 C 221.32 23.83 222.32 24.49 223.30 25.17 C 220.60 25.10 217.89 25.08 215.18 24.95 C 215.89 24.50 217.30 23.59 218.01 23.13 Z" />
<path fill="#65569c" opacity="1.00" d=" M 45.60 26.49 C 43.41 25.84 45.84 22.98 47.25 24.38 C 46.84 24.91 46.02 25.96 45.60 26.49 Z" />
<path fill="#65569c" opacity="1.00" d=" M 49.35 23.99 L 50.47 23.80 C 50.82 23.71 51.52 23.54 51.87 23.45 L 52.49 23.23 C 53.32 24.21 54.16 25.19 55.00 26.17 C 52.70 26.21 50.40 26.27 48.10 26.30 C 48.41 25.72 49.03 24.57 49.35 23.99 Z" />
</g>
<g id="#4278cbff">
<path fill="#4278cb" opacity="1.00" d=" M 103.41 38.82 C 103.41 40.64 103.34 42.45 103.24 44.27 C 107.73 44.77 112.24 45.32 116.77 45.25 C 116.07 46.76 115.37 48.27 114.68 49.79 C 113.65 48.49 112.60 47.19 111.55 45.91 C 106.55 45.40 101.46 48.63 96.59 46.62 C 93.31 45.63 89.91 45.16 86.56 44.44 C 89.84 43.19 93.24 43.39 96.62 43.99 C 101.10 45.99 101.84 41.35 103.41 38.82 Z" />
</g>
<g id="#4279cbff">
<path fill="#4279cb" opacity="1.00" d=" M 155.01 44.17 C 157.51 43.41 158.92 40.97 160.63 39.17 C 160.80 41.18 161.05 43.18 161.37 45.17 C 157.06 47.82 152.35 46.51 148.03 44.71 C 148.22 43.98 148.42 43.25 148.61 42.53 C 150.62 43.39 152.71 44.93 155.01 44.17 Z" />
</g>
<g id="#4378cbff">
<path fill="#4378cb" opacity="1.00" d=" M 34.88 42.82 C 38.96 45.63 44.13 43.75 47.02 40.12 C 46.65 41.49 46.30 42.87 45.95 44.25 C 49.45 45.10 52.93 46.04 56.45 46.77 C 53.03 46.72 49.62 46.68 46.22 46.43 C 45.41 47.36 44.61 48.30 43.81 49.24 C 40.50 45.60 35.53 44.94 30.89 45.68 C 32.24 44.75 33.57 43.79 34.88 42.82 Z" />
</g>
<g id="#4379cbff">
<path fill="#4379cb" opacity="1.00" d=" M 198.58 44.19 C 207.02 42.57 215.55 44.77 224.00 45.13 L 224.00 45.87 C 218.93 46.18 213.73 47.96 208.65 46.67 C 205.27 45.95 201.89 45.17 198.58 44.19 Z" />
</g>
<g id="#4575cbff">
<path fill="#4575cb" opacity="1.00" d=" M 163.97 44.23 C 164.58 43.18 166.42 43.18 167.03 44.23 C 167.35 46.00 163.65 46.00 163.97 44.23 Z" />
</g>
<g id="#3686d0ff">
<path fill="#3686d0" opacity="1.00" d=" M 42.81 51.65 C 44.02 51.44 45.22 51.23 46.43 51.00 C 44.87 51.98 43.34 53.01 41.89 54.16 C 42.12 53.53 42.58 52.28 42.81 51.65 Z" />
</g>
<g id="#809db3ff">
<path fill="#809db3" opacity="1.00" d=" M 46.43 51.00 L 47.60 50.73 C 47.06 51.85 46.50 52.96 45.92 54.06 C 45.42 54.55 44.41 55.52 43.90 56.00 L 41.14 56.00 C 41.33 55.54 41.71 54.62 41.89 54.16 C 43.34 53.01 44.87 51.98 46.43 51.00 Z" />
</g>
<g id="#74a05cff">
<path fill="#74a05c" opacity="1.00" d=" M 47.64 56.00 C 50.25 54.47 52.83 52.89 55.46 51.39 C 55.87 52.92 56.26 54.46 56.65 56.00 L 47.64 56.00 Z" />
<path fill="#74a05c" opacity="1.00" d=" M 103.65 56.00 C 106.23 54.51 108.80 53.02 111.43 51.60 C 111.84 53.07 112.28 54.54 112.74 56.00 L 103.65 56.00 Z" />
<path fill="#74a05c" opacity="1.00" d=" M 159.67 56.00 C 162.26 54.48 164.83 52.93 167.46 51.47 C 167.87 52.98 168.27 54.49 168.66 56.00 L 159.67 56.00 Z" />
<path fill="#74a05c" opacity="1.00" d=" M 215.74 56.00 C 218.51 54.40 221.23 52.73 224.00 51.10 L 224.00 56.00 L 215.74 56.00 Z" />
</g>
<g id="#2e83d0ff">
<path fill="#2e83d0" opacity="1.00" d=" M 97.45 56.00 C 98.85 54.55 100.24 53.09 101.66 51.66 C 100.37 52.54 100.64 54.20 100.87 55.51 L 100.88 56.00 L 97.45 56.00 Z" />
<path fill="#2e83d0" opacity="1.00" d=" M 209.44 56.00 C 210.84 54.55 212.25 53.11 213.69 51.70 C 212.37 52.55 212.63 54.22 212.86 55.53 L 212.87 56.00 L 209.44 56.00 Z" />
</g>
<g id="#67839bff">
<path fill="#67839b" opacity="1.00" d=" M 101.66 51.66 C 101.99 51.76 102.64 51.96 102.96 52.06 C 102.61 53.40 101.92 54.55 100.87 55.51 C 100.64 54.20 100.37 52.54 101.66 51.66 Z" />
<path fill="#67839b" opacity="1.00" d=" M 213.69 51.70 C 214.01 51.82 214.66 52.06 214.98 52.19 C 214.60 53.49 213.90 54.60 212.86 55.53 C 212.63 54.22 212.37 52.55 213.69 51.70 Z" />
</g>
<g id="#2e86d2ff">
<path fill="#2e86d2" opacity="1.00" d=" M 154.23 56.00 C 154.58 54.25 156.22 53.36 157.87 53.16 C 157.56 53.87 156.95 55.29 156.65 56.00 L 154.23 56.00 Z" />
</g>
</svg>
