<?xml version="1.0" encoding="UTF-8" ?>
<!DOCTYPE svg PUBLIC "-//W3C//DTD SVG 1.1//EN" "http://www.w3.org/Graphics/SVG/1.1/DTD/svg11.dtd">
<svg width="224pt" height="56pt" viewBox="0 0 224 56" version="1.1" xmlns="http://www.w3.org/2000/svg">
<g id="#739e5aff">
<path fill="#739e5a" opacity="1.00" d=" M 0.00 0.00 L 32.20 0.00 C 32.45 1.85 32.68 3.70 33.08 5.52 L 33.92 5.70 C 30.05 5.97 26.17 5.97 22.30 5.76 C 21.69 5.40 21.08 5.05 20.47 4.69 C 20.03 4.11 19.14 2.93 18.70 2.34 C 16.92 2.02 15.13 1.76 13.33 1.57 C 8.63 2.40 4.20 4.25 0.00 6.46 L 0.00 0.00 M 25.04 1.72 C 24.98 2.51 24.87 4.10 24.81 4.89 C 25.88 4.32 26.94 3.75 28.00 3.18 C 29.06 3.75 30.12 4.32 31.19 4.89 C 31.13 4.10 31.02 2.51 30.96 1.72 C 28.99 1.69 27.01 1.69 25.04 1.72 Z" />
</g>
<g id="#84ae5cff">
<path fill="#84ae5c" opacity="1.00" d=" M 32.20 0.00 L 50.17 0.00 C 49.69 0.57 48.72 1.72 48.23 2.30 C 46.93 2.10 45.63 1.90 44.33 1.71 C 45.87 2.54 47.43 3.34 49.00 4.12 C 49.87 2.73 50.72 1.35 51.65 0.00 L 52.65 0.00 C 51.67 3.33 50.52 6.61 49.45 9.90 L 49.27 9.22 C 47.48 3.80 41.36 2.74 36.55 1.72 C 35.97 2.37 34.79 3.69 34.21 4.35 C 33.93 4.64 33.36 5.22 33.08 5.52 C 32.68 3.70 32.45 1.85 32.20 0.00 Z" />
<path fill="#84ae5c" opacity="1.00" d=" M 88.19 0.00 L 106.17 0.00 C 105.69 0.58 104.72 1.73 104.23 2.30 C 102.93 2.10 101.63 1.90 100.33 1.71 C 101.87 2.54 103.43 3.34 105.00 4.12 C 105.87 2.73 106.72 1.35 107.65 0.00 L 108.65 0.00 C 107.67 3.33 106.52 6.61 105.45 9.90 L 105.27 9.22 C 103.48 3.80 97.36 2.74 92.55 1.71 C 91.97 2.37 90.80 3.69 90.21 4.35 C 89.93 4.64 89.37 5.22 89.09 5.52 C 88.68 3.70 88.44 1.85 88.19 0.00 Z" />
<path fill="#84ae5c" opacity="1.00" d=" M 144.19 0.00 L 162.17 0.00 C 161.69 0.58 160.72 1.73 160.23 2.30 C 158.93 2.10 157.63 1.90 156.33 1.71 C 157.87 2.54 159.43 3.34 161.00 4.12 C 161.86 2.73 162.72 1.35 163.65 0.00 L 164.63 0.00 C 163.66 3.36 162.51 6.66 161.53 10.02 L 161.34 9.45 C 159.67 3.87 153.44 2.73 148.55 1.71 C 147.96 2.37 146.80 3.69 146.22 4.35 C 145.93 4.64 145.37 5.22 145.08 5.51 C 144.68 3.69 144.44 1.84 144.19 0.00 Z" />
<path fill="#84ae5c" opacity="1.00" d=" M 200.19 0.00 L 218.17 0.00 C 217.69 0.58 216.72 1.73 216.23 2.30 C 214.93 2.10 213.63 1.90 212.33 1.71 C 213.87 2.54 215.43 3.35 217.01 4.12 C 217.86 2.73 218.72 1.35 219.64 0.00 L 220.65 0.00 C 219.67 3.33 218.52 6.61 217.44 9.90 L 217.27 9.22 C 215.48 3.80 209.36 2.74 204.55 1.71 C 203.97 2.37 202.80 3.69 202.21 4.35 C 201.93 4.64 201.37 5.22 201.09 5.52 C 200.68 3.70 200.44 1.85 200.19 0.00 Z" />
</g>
<g id="#6f9a52ff">
<path fill="#6f9a52" opacity="1.00" d=" M 50.17 0.00 L 51.65 0.00 C 50.72 1.35 49.87 2.73 49.00 4.12 C 47.43 3.34 45.87 2.54 44.33 1.71 C 45.63 1.90 46.93 2.10 48.23 2.30 C 48.72 1.72 49.69 0.57 50.17 0.00 Z" />
<path fill="#6f9a52" opacity="1.00" d=" M 106.17 0.00 L 107.65 0.00 C 106.72 1.35 105.87 2.73 105.00 4.12 C 103.43 3.34 101.87 2.54 100.33 1.71 C 101.63 1.90 102.93 2.10 104.23 2.30 C 104.72 1.73 105.69 0.58 106.17 0.00 Z" />
<path fill="#6f9a52" opacity="1.00" d=" M 162.17 0.00 L 163.65 0.00 C 162.72 1.35 161.86 2.73 161.00 4.12 C 159.43 3.34 157.87 2.54 156.33 1.71 C 157.63 1.90 158.93 2.10 160.23 2.30 C 160.72 1.73 161.69 0.58 162.17 0.00 Z" />
<path fill="#6f9a52" opacity="1.00" d=" M 218.17 0.00 L 219.64 0.00 C 218.72 1.35 217.86 2.73 217.01 4.12 C 215.43 3.35 213.87 2.54 212.33 1.71 C 213.63 1.90 214.93 2.10 216.23 2.30 C 216.72 1.73 217.69 0.58 218.17 0.00 Z" />
</g>
<g id="#6a975afe">
<path fill="#6a975a" opacity="1.00" d=" M 52.65 0.00 L 55.09 0.00 C 54.81 1.50 55.39 4.70 57.51 3.83 C 58.47 2.28 56.50 0.96 55.55 0.00 L 61.99 0.00 C 62.34 2.54 65.19 2.45 65.59 0.00 L 65.80 0.00 C 66.27 0.28 67.21 0.84 67.68 1.12 C 63.75 2.74 59.80 4.30 55.83 5.81 C 55.49 5.39 54.80 4.56 54.46 4.15 C 53.82 5.10 53.19 6.06 52.56 7.02 C 53.29 8.58 54.01 10.14 54.73 11.71 C 53.20 14.94 51.78 18.22 50.42 21.52 C 49.98 17.93 49.61 14.34 49.24 10.75 C 49.29 10.54 49.39 10.11 49.45 9.90 C 50.52 6.61 51.67 3.33 52.65 0.00 Z" />
<path fill="#6a975a" opacity="1.00" d=" M 108.65 0.00 L 111.09 0.00 C 110.81 1.50 111.39 4.70 113.51 3.83 C 114.47 2.28 112.50 0.96 111.55 0.00 L 117.99 0.00 C 118.34 2.54 121.18 2.45 121.59 0.00 L 121.80 0.00 C 122.27 0.28 123.21 0.84 123.68 1.12 C 119.76 2.74 115.83 4.29 111.88 5.82 C 111.52 5.39 110.78 4.54 110.42 4.11 C 109.90 4.99 109.40 5.88 108.92 6.78 C 111.39 11.83 108.76 17.01 106.50 21.61 C 105.99 18.00 105.61 14.37 105.23 10.75 C 105.28 10.54 105.39 10.11 105.45 9.90 C 106.52 6.61 107.67 3.33 108.65 0.00 Z" />
<path fill="#6a975a" opacity="1.00" d=" M 164.63 0.00 L 167.09 0.00 C 166.81 1.50 167.39 4.70 169.51 3.83 C 170.46 2.28 168.50 0.96 167.55 0.00 L 173.99 0.00 C 174.34 2.54 177.18 2.45 177.59 0.00 L 177.80 0.00 C 178.27 0.28 179.21 0.84 179.68 1.12 C 175.75 2.74 171.80 4.30 167.83 5.81 C 167.49 5.39 166.80 4.56 166.46 4.15 C 165.82 5.10 165.19 6.06 164.56 7.02 C 165.29 8.58 166.01 10.14 166.72 11.71 C 165.22 14.97 163.76 18.24 162.41 21.57 C 161.95 18.03 161.59 14.48 161.42 10.92 C 161.45 10.69 161.50 10.24 161.53 10.02 C 162.51 6.66 163.66 3.36 164.63 0.00 Z" />
</g>
<g id="#8bb561fe">
<path fill="#8bb561" opacity="1.00" d=" M 55.09 0.00 L 55.55 0.00 C 56.50 0.96 58.47 2.28 57.51 3.83 C 55.39 4.70 54.81 1.50 55.09 0.00 Z" />
<path fill="#8bb561" opacity="1.00" d=" M 111.09 0.00 L 111.55 0.00 C 112.50 0.96 114.47 2.28 113.51 3.83 C 111.39 4.70 110.81 1.50 111.09 0.00 Z" />
<path fill="#8bb561" opacity="1.00" d=" M 167.09 0.00 L 167.55 0.00 C 168.50 0.96 170.46 2.28 169.51 3.83 C 167.39 4.70 166.81 1.50 167.09 0.00 Z" />
</g>
<g id="#85b166ff">
<path fill="#85b166" opacity="1.00" d=" M 61.99 0.00 L 65.59 0.00 C 65.19 2.45 62.34 2.54 61.99 0.00 Z" />
<path fill="#85b166" opacity="1.00" d=" M 117.99 0.00 L 121.59 0.00 C 121.18 2.45 118.34 2.54 117.99 0.00 Z" />
<path fill="#85b166" opacity="1.00" d=" M 173.99 0.00 L 177.59 0.00 C 177.18 2.45 174.34 2.54 173.99 0.00 Z" />
</g>
<g id="#80aa5cff">
<path fill="#80aa5c" opacity="1.00" d=" M 65.80 0.00 L 79.83 0.00 C 79.57 1.71 79.36 3.44 78.97 5.13 C 78.60 5.03 77.86 4.82 77.48 4.71 C 74.70 3.79 71.94 2.78 69.18 1.79 C 68.80 1.63 68.05 1.29 67.68 1.12 C 67.21 0.84 66.27 0.28 65.80 0.00 Z" />
<path fill="#80aa5c" opacity="1.00" d=" M 121.80 0.00 L 135.83 0.00 C 135.56 1.71 135.36 3.44 134.97 5.13 C 134.60 5.03 133.86 4.82 133.48 4.71 C 130.70 3.78 127.94 2.78 125.18 1.79 C 124.80 1.62 124.05 1.29 123.68 1.12 C 123.21 0.84 122.27 0.28 121.80 0.00 Z" />
<path fill="#80aa5c" opacity="1.00" d=" M 177.80 0.00 L 191.83 0.00 C 191.56 1.71 191.36 3.44 190.97 5.13 C 190.60 5.03 189.86 4.82 189.48 4.71 C 186.69 3.79 183.94 2.78 181.18 1.79 C 180.80 1.63 180.05 1.29 179.68 1.12 C 179.21 0.84 178.27 0.28 177.80 0.00 Z" />
</g>
<g id="#6e9a57ff">
<path fill="#6e9a57" opacity="1.00" d=" M 79.83 0.00 L 88.19 0.00 C 88.44 1.85 88.68 3.70 89.09 5.52 L 89.92 5.69 C 86.04 5.96 82.14 5.96 78.25 5.86 L 78.97 5.13 C 79.36 3.44 79.57 1.71 79.83 0.00 M 81.04 1.72 C 80.98 2.51 80.87 4.10 80.81 4.89 C 81.88 4.32 82.94 3.75 84.00 3.18 C 85.06 3.75 86.12 4.32 87.19 4.89 C 87.13 4.10 87.02 2.51 86.96 1.72 C 84.99 1.69 83.01 1.69 81.04 1.72 Z" />
<path fill="#6e9a57" opacity="1.00" d=" M 135.83 0.00 L 144.19 0.00 C 144.44 1.84 144.68 3.69 145.08 5.51 L 145.92 5.69 C 142.04 5.95 138.14 5.97 134.25 5.86 L 134.97 5.13 C 135.36 3.44 135.56 1.71 135.83 0.00 M 137.04 1.72 C 136.98 2.51 136.87 4.10 136.81 4.89 C 137.87 4.32 138.94 3.75 140.00 3.18 C 141.06 3.75 142.12 4.32 143.19 4.89 C 143.13 4.10 143.02 2.51 142.96 1.72 C 140.99 1.69 139.01 1.69 137.04 1.72 Z" />
<path fill="#6e9a57" opacity="1.00" d=" M 191.83 0.00 L 200.19 0.00 C 200.44 1.85 200.68 3.70 201.09 5.52 L 201.92 5.69 C 198.04 5.96 194.14 5.96 190.25 5.86 L 190.97 5.13 C 191.36 3.44 191.56 1.71 191.83 0.00 M 193.04 1.72 C 192.98 2.51 192.87 4.10 192.81 4.89 C 193.87 4.32 194.94 3.75 196.00 3.18 C 197.06 3.75 198.12 4.32 199.19 4.89 C 199.13 4.10 199.02 2.51 198.96 1.72 C 196.98 1.69 195.01 1.69 193.04 1.72 Z" />
</g>
<g id="#699659ff">
<path fill="#699659" opacity="1.00" d=" M 220.65 0.00 L 223.20 0.00 C 222.27 1.22 222.53 2.12 224.00 2.71 L 224.00 6.51 C 223.76 5.78 223.27 4.32 223.03 3.59 C 222.19 4.72 221.36 5.86 220.53 7.00 C 221.27 8.56 222.00 10.13 222.73 11.70 C 221.21 14.96 219.77 18.25 218.41 21.58 C 217.97 17.98 217.62 14.36 217.24 10.75 C 217.29 10.54 217.39 10.11 217.44 9.90 C 218.52 6.61 219.67 3.33 220.65 0.00 Z" />
</g>
<g id="#91bc69ff">
<path fill="#91bc69" opacity="1.00" d=" M 223.20 0.00 L 224.00 0.00 L 224.00 2.71 C 222.53 2.12 222.27 1.22 223.20 0.00 Z" />
<path fill="#91bc69" opacity="1.00" d=" M 224.00 30.87 C 222.12 30.86 222.12 28.17 224.00 28.17 L 224.00 30.87 Z" />
</g>
<g id="#5e8e65fe">
<path fill="#5e8e65" opacity="1.00" d=" M 13.33 1.57 C 15.13 1.76 16.92 2.02 18.70 2.34 C 19.14 2.93 20.03 4.11 20.47 4.69 C 18.03 3.92 15.57 3.23 13.17 2.36 L 13.33 1.57 Z" />
</g>
<g id="#87b05cfe">
<path fill="#87b05c" opacity="1.00" d=" M 25.04 1.72 C 27.01 1.69 28.99 1.69 30.96 1.72 C 31.02 2.51 31.13 4.10 31.19 4.89 C 30.12 4.32 29.06 3.75 28.00 3.18 C 26.94 3.75 25.88 4.32 24.81 4.89 C 24.87 4.10 24.98 2.51 25.04 1.72 Z" />
<path fill="#87b05c" opacity="1.00" d=" M 81.04 1.72 C 83.01 1.69 84.99 1.69 86.96 1.72 C 87.02 2.51 87.13 4.10 87.19 4.89 C 86.12 4.32 85.06 3.75 84.00 3.18 C 82.94 3.75 81.88 4.32 80.81 4.89 C 80.87 4.10 80.98 2.51 81.04 1.72 Z" />
<path fill="#87b05c" opacity="1.00" d=" M 137.04 1.72 C 139.01 1.69 140.99 1.69 142.96 1.72 C 143.02 2.51 143.13 4.10 143.19 4.89 C 142.12 4.32 141.06 3.75 140.00 3.18 C 138.94 3.75 137.87 4.32 136.81 4.89 C 136.87 4.10 136.98 2.51 137.04 1.72 Z" />
<path fill="#87b05c" opacity="1.00" d=" M 193.04 1.72 C 195.01 1.69 196.98 1.69 198.96 1.72 C 199.02 2.51 199.13 4.10 199.19 4.89 C 198.12 4.32 197.06 3.75 196.00 3.18 C 194.94 3.75 193.87 4.32 192.81 4.89 C 192.87 4.10 192.98 2.51 193.04 1.72 Z" />
</g>
<g id="#619062ff">
<path fill="#619062" opacity="1.00" d=" M 69.18 1.79 C 71.94 2.78 74.70 3.79 77.48 4.71 C 74.89 4.05 72.34 3.21 69.90 2.12 L 69.18 1.79 Z" />
<path fill="#619062" opacity="1.00" d=" M 125.18 1.79 C 127.94 2.78 130.70 3.78 133.48 4.71 C 130.89 4.05 128.34 3.22 125.90 2.12 L 125.18 1.79 Z" />
<path fill="#619062" opacity="1.00" d=" M 181.18 1.79 C 183.94 2.78 186.69 3.79 189.48 4.71 C 186.89 4.05 184.34 3.21 181.90 2.12 L 181.18 1.79 Z" />
</g>
<g id="#342f2bff">
<path fill="#342f2b" opacity="1.00" d=" M 0.00 6.46 C 4.20 4.25 8.63 2.40 13.33 1.57 L 13.17 2.36 C 13.03 2.90 12.76 3.99 12.62 4.53 C 15.83 5.08 19.05 5.59 22.30 5.76 C 26.17 5.97 30.05 5.97 33.92 5.70 C 36.10 5.56 38.24 5.06 40.39 4.64 C 40.64 4.60 41.14 4.53 41.39 4.49 C 41.54 5.95 41.70 7.40 41.87 8.86 C 44.34 9.01 46.80 9.15 49.27 9.22 L 49.45 9.90 C 49.39 10.11 49.29 10.54 49.24 10.75 C 48.34 13.84 47.25 16.87 46.46 19.99 C 44.90 20.27 43.34 20.55 41.78 20.83 C 41.80 18.89 41.85 15.00 41.87 13.06 C 40.61 12.98 39.36 12.91 38.11 12.84 C 39.28 15.29 40.40 17.78 41.51 20.27 C 41.14 20.22 40.38 20.12 40.01 20.07 C 38.48 19.84 36.95 19.60 35.42 19.35 C 35.84 16.80 36.37 14.26 36.88 11.73 C 38.83 11.57 40.79 11.41 42.74 11.24 C 40.12 9.68 37.36 8.37 34.62 7.06 C 34.16 8.14 33.70 9.22 33.25 10.31 C 32.83 10.16 31.97 9.86 31.55 9.71 C 30.35 8.93 29.18 8.11 28.00 7.30 C 26.82 8.11 25.65 8.94 24.45 9.71 C 24.02 9.86 23.17 10.14 22.74 10.28 C 22.33 9.28 21.92 8.29 21.51 7.29 C 19.64 8.06 17.77 8.82 15.88 9.55 C 14.85 8.24 13.83 6.92 12.78 5.63 C 11.33 9.93 10.70 14.42 11.91 18.83 C 11.98 19.28 12.11 20.18 12.17 20.63 C 11.85 20.42 11.19 20.00 10.87 19.79 C 10.29 18.54 9.74 17.27 9.21 16.00 C 6.99 16.37 4.78 16.84 2.59 17.35 C 3.55 17.84 4.51 18.32 5.48 18.79 C 6.10 18.90 7.36 19.11 7.98 19.21 C 8.07 19.72 8.23 20.74 8.31 21.25 C 5.53 20.51 2.76 19.71 0.00 18.89 L 0.00 6.46 M 8.23 11.86 C 5.80 14.49 11.20 14.49 8.77 11.86 C 9.64 10.04 9.27 7.68 8.62 5.83 C 7.48 7.16 7.48 10.14 8.23 11.86 M 3.50 8.08 C 4.11 10.58 4.81 13.07 5.59 15.52 C 5.79 13.02 6.01 10.51 6.17 8.00 C 5.50 8.02 4.17 8.06 3.50 8.08 Z" />
</g>
<g id="#6b9a5fff">
<path fill="#6b9a5f" opacity="1.00" d=" M 34.21 4.35 C 34.79 3.69 35.97 2.37 36.55 1.72 C 41.36 2.74 47.48 3.80 49.27 9.22 C 46.80 9.15 44.34 9.01 41.87 8.86 C 41.70 7.40 41.54 5.95 41.39 4.49 C 41.14 4.53 40.64 4.60 40.39 4.64 C 38.33 4.58 36.27 4.42 34.21 4.35 Z" />
<path fill="#6b9a5f" opacity="1.00" d=" M 90.21 4.35 C 90.80 3.69 91.97 2.37 92.55 1.71 C 97.36 2.74 103.48 3.80 105.27 9.22 C 102.80 9.15 100.34 9.01 97.87 8.86 C 97.70 7.41 97.54 5.95 97.39 4.50 C 97.14 4.53 96.64 4.61 96.39 4.64 C 94.33 4.59 92.27 4.41 90.21 4.35 Z" />
<path fill="#6b9a5f" opacity="1.00" d=" M 146.22 4.35 C 146.80 3.69 147.96 2.37 148.55 1.71 C 153.44 2.73 159.67 3.87 161.34 9.45 C 157.71 9.52 153.36 9.05 152.77 4.64 C 152.67 4.65 152.46 4.66 152.36 4.67 C 150.31 4.59 148.27 4.42 146.22 4.35 Z" />
<path fill="#6b9a5f" opacity="1.00" d=" M 202.21 4.35 C 202.80 3.69 203.97 2.37 204.55 1.71 C 209.36 2.74 215.48 3.80 217.27 9.22 C 214.80 9.15 212.33 9.01 209.87 8.86 C 209.70 7.41 209.54 5.95 209.39 4.50 C 209.14 4.53 208.64 4.61 208.39 4.64 C 206.33 4.59 204.27 4.41 202.21 4.35 Z" />
</g>
<g id="#342f2bfe">
<path fill="#342f2b" opacity="1.00" d=" M 55.83 5.81 C 59.80 4.30 63.75 2.74 67.68 1.12 C 68.05 1.29 68.80 1.63 69.18 1.79 L 69.90 2.12 C 69.41 2.66 68.42 3.75 67.93 4.29 C 71.32 5.07 74.75 5.81 78.25 5.86 C 82.14 5.96 86.04 5.96 89.92 5.69 C 92.11 5.54 94.25 5.05 96.39 4.64 C 96.64 4.61 97.14 4.53 97.39 4.50 C 97.54 5.95 97.70 7.41 97.87 8.86 C 100.34 9.01 102.80 9.15 105.27 9.22 L 105.45 9.90 C 105.39 10.11 105.28 10.54 105.23 10.75 C 104.32 13.89 103.23 16.97 102.48 20.15 C 101.08 20.09 99.69 20.04 98.30 19.99 L 98.19 19.18 C 98.00 17.79 97.62 15.02 97.43 13.64 C 96.26 13.22 95.08 12.82 93.90 12.44 C 95.00 14.67 96.13 16.89 97.35 19.06 C 96.75 19.00 95.57 18.88 94.98 18.82 C 93.85 18.70 92.72 18.62 91.59 18.58 C 91.96 16.28 92.41 14.00 92.91 11.73 C 94.85 11.57 96.79 11.41 98.74 11.24 C 96.11 9.68 93.36 8.37 90.61 7.05 C 90.16 8.15 89.72 9.23 89.26 10.32 C 88.84 10.17 87.98 9.86 87.55 9.71 C 86.34 8.93 85.17 8.11 84.00 7.30 C 82.82 8.11 81.65 8.94 80.45 9.72 C 80.00 9.86 79.08 10.14 78.63 10.28 C 78.31 9.39 77.99 8.49 77.68 7.59 C 75.93 8.06 74.20 8.99 72.35 8.92 C 70.86 8.36 69.74 7.09 68.44 6.20 C 67.24 10.17 65.87 14.73 68.83 18.27 C 68.57 18.41 68.06 18.69 67.81 18.84 C 67.38 19.10 66.51 19.61 66.08 19.87 C 66.00 18.56 65.91 17.25 65.83 15.94 C 63.87 16.24 61.92 16.53 59.97 16.83 C 60.40 17.19 61.28 17.92 61.71 18.28 C 62.31 18.54 63.49 19.06 64.08 19.32 L 64.17 20.21 C 61.39 19.49 58.63 18.71 55.87 17.92 C 55.85 13.88 55.84 9.85 55.83 5.81 M 64.23 11.86 C 61.80 14.49 67.20 14.49 64.77 11.86 C 65.64 10.04 65.27 7.68 64.62 5.83 C 63.48 7.16 63.48 10.14 64.23 11.86 M 59.50 8.08 C 60.11 10.58 60.81 13.07 61.59 15.52 C 61.79 13.02 62.01 10.51 62.17 8.00 C 61.50 8.02 60.17 8.06 59.50 8.08 Z" />
<path fill="#342f2b" opacity="1.00" d=" M 167.83 5.81 C 171.80 4.30 175.75 2.74 179.68 1.12 C 180.05 1.29 180.80 1.63 181.18 1.79 L 181.90 2.12 C 181.41 2.66 180.42 3.75 179.93 4.29 C 183.32 5.07 186.75 5.81 190.25 5.86 C 194.14 5.96 198.04 5.96 201.92 5.69 C 204.11 5.54 206.24 5.05 208.39 4.64 C 208.64 4.61 209.14 4.53 209.39 4.50 C 209.54 5.95 209.70 7.41 209.87 8.86 C 212.33 9.01 214.80 9.15 217.27 9.22 L 217.44 9.90 C 217.39 10.11 217.29 10.54 217.24 10.75 C 216.32 13.88 215.23 16.97 214.48 20.15 C 213.08 20.09 211.69 20.04 210.30 19.99 L 210.19 19.18 C 210.00 17.79 209.62 15.02 209.43 13.64 C 208.26 13.22 207.08 12.82 205.90 12.44 C 207.00 14.67 208.13 16.89 209.35 19.06 C 208.75 19.00 207.57 18.88 206.98 18.82 C 205.85 18.70 204.72 18.62 203.59 18.58 C 203.96 16.28 204.41 14.00 204.91 11.73 C 206.85 11.57 208.79 11.41 210.74 11.24 C 208.11 9.68 205.36 8.37 202.61 7.05 C 202.16 8.15 201.72 9.23 201.26 10.32 C 200.84 10.17 199.98 9.86 199.55 9.71 C 198.34 8.93 197.17 8.11 196.00 7.30 C 194.82 8.11 193.65 8.94 192.45 9.72 C 192.00 9.86 191.08 10.14 190.63 10.28 C 190.30 9.39 189.99 8.49 189.68 7.59 C 187.92 8.06 186.20 8.99 184.35 8.92 C 182.86 8.36 181.74 7.09 180.44 6.20 C 179.24 10.17 177.87 14.73 180.83 18.27 C 180.57 18.41 180.06 18.69 179.81 18.84 C 179.38 19.10 178.51 19.61 178.08 19.87 C 177.99 18.56 177.91 17.25 177.83 15.94 C 175.87 16.24 173.92 16.53 171.97 16.83 C 172.40 17.19 173.28 17.92 173.71 18.28 C 174.31 18.54 175.49 19.06 176.08 19.32 L 176.17 20.21 C 173.39 19.49 170.63 18.71 167.87 17.92 C 167.84 13.88 167.83 9.85 167.83 5.81 M 176.23 11.86 C 173.80 14.49 179.19 14.49 176.77 11.86 C 177.64 10.04 177.27 7.68 176.62 5.83 C 175.48 7.16 175.48 10.14 176.23 11.86 M 171.50 8.08 C 172.11 10.58 172.81 13.07 173.59 15.52 C 173.79 13.02 174.01 10.51 174.17 8.00 C 173.50 8.02 172.17 8.06 171.50 8.08 Z" />
</g>
<g id="#34302bff">
<path fill="#34302b" opacity="1.00" d=" M 111.88 5.82 C 115.83 4.29 119.76 2.74 123.68 1.12 C 124.05 1.29 124.80 1.62 125.18 1.79 L 125.90 2.12 C 125.41 2.66 124.42 3.75 123.93 4.29 C 127.32 5.07 130.75 5.81 134.25 5.86 C 138.14 5.97 142.04 5.95 145.92 5.69 C 148.10 5.55 150.22 5.04 152.36 4.67 C 152.46 4.66 152.67 4.65 152.77 4.64 C 153.36 9.05 157.71 9.52 161.34 9.45 L 161.53 10.02 C 161.50 10.24 161.45 10.69 161.42 10.92 C 160.45 14.53 159.22 18.38 155.93 20.51 C 155.51 20.43 154.68 20.26 154.26 20.18 C 154.23 19.43 154.15 17.93 154.11 17.18 C 154.04 15.79 153.97 14.39 153.91 13.00 C 152.45 13.05 151.00 13.10 149.54 13.16 C 150.83 14.58 152.13 16.00 153.48 17.36 C 152.77 17.61 151.36 18.09 150.65 18.34 C 149.55 17.79 148.43 17.29 147.32 16.79 C 147.95 15.13 148.60 13.48 149.23 11.81 C 151.08 11.61 152.92 11.39 154.77 11.18 C 152.13 9.73 149.43 8.37 146.63 7.21 C 146.12 7.98 145.62 8.75 145.11 9.53 C 142.11 8.29 138.87 7.97 135.71 8.80 C 131.91 8.39 127.52 9.87 124.69 6.39 C 123.85 9.30 123.02 12.20 122.19 15.11 C 123.19 15.80 124.19 16.49 125.23 17.14 C 124.87 17.33 124.15 17.72 123.79 17.91 C 123.39 18.14 122.58 18.60 122.17 18.83 C 122.05 18.21 121.82 16.95 121.70 16.33 C 120.52 16.15 119.34 15.96 118.16 15.78 C 118.65 17.01 119.15 18.23 119.62 19.47 C 117.06 18.57 114.49 17.67 111.92 16.78 C 111.87 13.12 111.90 9.47 111.88 5.82 M 120.23 11.86 C 117.80 14.49 123.20 14.49 120.77 11.86 C 121.64 10.04 121.27 7.68 120.62 5.83 C 119.48 7.16 119.48 10.14 120.23 11.86 M 115.50 8.08 C 116.11 10.58 116.81 13.07 117.59 15.52 C 117.79 13.02 118.01 10.51 118.17 8.00 C 117.50 8.02 116.17 8.06 115.50 8.08 Z" />
</g>
<g id="#5a5347ff">
<path fill="#5a5347" opacity="1.00" d=" M 12.62 4.53 C 12.76 3.99 13.03 2.90 13.17 2.36 C 15.57 3.23 18.03 3.92 20.47 4.69 C 21.08 5.05 21.69 5.40 22.30 5.76 C 19.05 5.59 15.83 5.08 12.62 4.53 Z" />
<path fill="#5a5347" opacity="1.00" d=" M 67.93 4.29 C 68.42 3.75 69.41 2.66 69.90 2.12 C 72.34 3.21 74.89 4.05 77.48 4.71 C 77.86 4.82 78.60 5.03 78.97 5.13 L 78.25 5.86 C 74.75 5.81 71.32 5.07 67.93 4.29 Z" />
<path fill="#5a5347" opacity="1.00" d=" M 123.93 4.29 C 124.42 3.75 125.41 2.66 125.90 2.12 C 128.34 3.22 130.89 4.05 133.48 4.71 C 133.86 4.82 134.60 5.03 134.97 5.13 L 134.25 5.86 C 130.75 5.81 127.32 5.07 123.93 4.29 Z" />
<path fill="#5a5347" opacity="1.00" d=" M 179.93 4.29 C 180.42 3.75 181.41 2.66 181.90 2.12 C 184.34 3.21 186.89 4.05 189.48 4.71 C 189.86 4.82 190.60 5.03 190.97 5.13 L 190.25 5.86 C 186.75 5.81 183.32 5.07 179.93 4.29 Z" />
</g>
<g id="#5d5347ff">
<path fill="#5d5347" opacity="1.00" d=" M 33.08 5.52 C 33.36 5.22 33.93 4.64 34.21 4.35 C 36.27 4.42 38.33 4.58 40.39 4.64 C 38.24 5.06 36.10 5.56 33.92 5.70 L 33.08 5.52 Z" />
<path fill="#5d5347" opacity="1.00" d=" M 89.09 5.52 C 89.37 5.22 89.93 4.64 90.21 4.35 C 92.27 4.41 94.33 4.59 96.39 4.64 C 94.25 5.05 92.11 5.54 89.92 5.69 L 89.09 5.52 Z" />
<path fill="#5d5347" opacity="1.00" d=" M 145.08 5.51 C 145.37 5.22 145.93 4.64 146.22 4.35 C 148.27 4.42 150.31 4.59 152.36 4.67 C 150.22 5.04 148.10 5.55 145.92 5.69 L 145.08 5.51 Z" />
<path fill="#5d5347" opacity="1.00" d=" M 201.09 5.52 C 201.37 5.22 201.93 4.64 202.21 4.35 C 204.27 4.41 206.33 4.59 208.39 4.64 C 206.24 5.05 204.11 5.54 201.92 5.69 L 201.09 5.52 Z" />
</g>
<g id="#86b05fff">
<path fill="#86b05f" opacity="1.00" d=" M 52.56 7.02 C 53.19 6.06 53.82 5.10 54.46 4.15 C 54.80 4.56 55.49 5.39 55.83 5.81 C 55.84 9.85 55.85 13.88 55.87 17.92 C 55.88 18.35 55.91 19.22 55.92 19.66 L 55.96 21.21 C 55.11 20.35 52.83 19.58 52.51 21.30 C 53.09 22.63 54.92 22.20 55.99 21.83 C 55.94 22.27 55.84 23.15 55.79 23.58 C 55.30 24.43 54.79 25.26 54.27 26.09 C 53.92 25.02 53.57 23.95 53.23 22.89 C 52.02 23.19 50.81 23.47 49.62 23.81 C 49.82 23.23 50.22 22.09 50.42 21.52 C 51.78 18.22 53.20 14.94 54.73 11.71 C 54.01 10.14 53.29 8.58 52.56 7.02 Z" />
<path fill="#86b05f" opacity="1.00" d=" M 108.92 6.78 C 109.40 5.88 109.90 4.99 110.42 4.11 C 110.78 4.54 111.52 5.39 111.88 5.82 C 111.90 9.47 111.87 13.12 111.92 16.78 C 111.94 17.19 111.97 18.02 111.98 18.44 C 112.01 19.19 112.06 20.69 112.09 21.44 C 111.25 20.54 108.94 19.47 108.48 21.25 C 109.05 22.63 110.89 22.19 112.02 21.95 C 111.97 22.36 111.86 23.17 111.81 23.57 C 111.32 24.42 110.80 25.25 110.29 26.08 C 109.93 25.02 109.57 23.96 109.21 22.90 C 108.01 23.19 106.82 23.48 105.64 23.81 C 105.86 23.26 106.28 22.16 106.50 21.61 C 108.76 17.01 111.39 11.83 108.92 6.78 Z" />
<path fill="#86b05f" opacity="1.00" d=" M 164.56 7.02 C 165.19 6.06 165.82 5.10 166.46 4.15 C 166.80 4.56 167.49 5.39 167.83 5.81 C 167.83 9.85 167.84 13.88 167.87 17.92 C 167.88 18.35 167.91 19.22 167.92 19.66 L 167.96 21.21 C 167.11 20.35 164.83 19.58 164.51 21.30 C 165.09 22.64 166.91 22.21 167.99 21.83 C 167.94 22.27 167.84 23.14 167.79 23.57 C 167.30 24.42 166.79 25.26 166.27 26.09 C 165.92 25.02 165.57 23.95 165.23 22.88 C 164.02 23.18 162.82 23.48 161.63 23.82 C 161.83 23.25 162.21 22.13 162.41 21.57 C 163.76 18.24 165.22 14.97 166.72 11.71 C 166.01 10.14 165.29 8.58 164.56 7.02 Z" />
<path fill="#86b05f" opacity="1.00" d=" M 220.53 7.00 C 221.36 5.86 222.19 4.72 223.03 3.59 C 223.27 4.32 223.76 5.78 224.00 6.51 L 224.00 21.27 C 223.12 20.42 220.84 19.52 220.47 21.28 C 221.04 22.68 222.91 22.16 224.00 21.78 L 224.00 23.45 C 223.42 24.35 222.81 25.23 222.20 26.10 C 221.88 25.03 221.56 23.95 221.26 22.87 C 220.05 23.18 218.83 23.47 217.63 23.81 C 217.83 23.25 218.22 22.14 218.41 21.58 C 219.77 18.25 221.21 14.96 222.73 11.70 C 222.00 10.13 221.27 8.56 220.53 7.00 Z" />
<path fill="#86b05f" opacity="1.00" d=" M 220.53 35.00 C 221.37 33.86 222.19 32.72 223.03 31.58 C 223.27 32.32 223.76 33.79 224.00 34.53 L 224.00 49.26 C 223.12 48.41 220.83 47.52 220.47 49.28 C 221.04 50.68 222.92 50.15 224.00 49.77 L 224.00 51.40 C 223.42 52.31 222.82 53.21 222.21 54.10 C 221.88 53.03 221.56 51.96 221.25 50.89 C 219.96 51.17 218.66 51.45 217.38 51.77 C 217.65 51.23 218.19 50.14 218.45 49.60 C 219.96 46.33 221.28 42.99 222.72 39.70 C 222.00 38.13 221.27 36.56 220.53 35.00 Z" />
</g>
<g id="#77694cfe">
<path fill="#77694c" opacity="1.00" d=" M 8.23 11.86 C 7.48 10.14 7.48 7.16 8.62 5.83 C 9.27 7.68 9.64 10.04 8.77 11.86 L 8.23 11.86 Z" />
<path fill="#77694c" opacity="1.00" d=" M 64.23 11.86 C 63.48 10.14 63.48 7.16 64.62 5.83 C 65.27 7.68 65.64 10.04 64.77 11.86 L 64.23 11.86 Z" />
<path fill="#77694c" opacity="1.00" d=" M 120.23 11.86 C 119.48 10.14 119.48 7.16 120.62 5.83 C 121.27 7.68 121.64 10.04 120.77 11.86 L 120.23 11.86 Z" />
<path fill="#77694c" opacity="1.00" d=" M 176.23 11.86 C 175.48 10.14 175.48 7.16 176.62 5.83 C 177.27 7.68 177.64 10.04 176.77 11.86 L 176.23 11.86 Z" />
</g>
<g id="#5d5649ff">
<path fill="#5d5649" opacity="1.00" d=" M 12.78 5.63 C 13.83 6.92 14.85 8.24 15.88 9.55 C 17.77 8.82 19.64 8.06 21.51 7.29 C 21.92 8.29 22.33 9.28 22.74 10.28 L 23.10 11.16 L 23.47 12.07 C 23.81 14.69 23.85 17.35 23.58 19.98 C 22.48 19.83 21.39 19.68 20.29 19.53 C 20.26 17.73 20.22 15.93 20.15 14.13 C 18.83 14.47 17.50 14.81 16.18 15.14 C 15.57 16.61 14.97 18.07 14.37 19.54 C 13.76 19.36 12.53 19.01 11.91 18.83 C 10.70 14.42 11.33 9.93 12.78 5.63 M 18.17 11.40 C 17.06 11.09 15.52 11.28 14.86 12.34 C 14.97 14.42 20.08 13.04 18.17 11.40 Z" />
<path fill="#5d5649" opacity="1.00" d=" M 68.44 6.20 C 69.74 7.09 70.86 8.36 72.35 8.92 C 74.20 8.99 75.93 8.06 77.68 7.59 C 77.99 8.49 78.31 9.39 78.63 10.28 L 78.96 11.17 L 79.30 12.09 C 79.76 14.34 79.98 16.64 80.18 18.93 L 79.30 18.90 C 78.31 18.87 77.31 18.83 76.31 18.78 C 76.19 17.01 76.04 15.25 75.89 13.48 C 73.91 15.05 71.96 16.66 70.09 18.36 C 69.77 18.33 69.14 18.29 68.83 18.27 C 65.87 14.73 67.24 10.17 68.44 6.20 M 74.17 11.40 C 73.06 11.09 71.52 11.28 70.86 12.34 C 70.97 14.42 76.08 13.04 74.17 11.40 Z" />
<path fill="#5d5649" opacity="1.00" d=" M 180.44 6.20 C 181.74 7.09 182.86 8.36 184.35 8.92 C 186.20 8.99 187.92 8.06 189.68 7.59 C 189.99 8.49 190.30 9.39 190.63 10.28 L 190.96 11.17 L 191.30 12.09 C 191.76 14.34 191.98 16.64 192.18 18.93 L 191.30 18.90 C 190.30 18.87 189.31 18.83 188.31 18.78 C 188.19 17.01 188.04 15.25 187.89 13.48 C 185.90 15.05 183.96 16.66 182.09 18.36 C 181.77 18.33 181.14 18.29 180.83 18.27 C 177.87 14.73 179.24 10.17 180.44 6.20 M 186.17 11.40 C 185.06 11.09 183.52 11.28 182.86 12.34 C 182.97 14.42 188.08 13.04 186.17 11.40 Z" />
</g>
<g id="#5e574afe">
<path fill="#5e574a" opacity="1.00" d=" M 124.69 6.39 C 127.52 9.87 131.91 8.39 135.71 8.80 C 138.87 7.97 142.11 8.29 145.11 9.53 C 145.62 8.75 146.12 7.98 146.63 7.21 C 149.43 8.37 152.13 9.73 154.77 11.18 C 152.92 11.39 151.08 11.61 149.23 11.81 C 148.60 13.48 147.95 15.13 147.32 16.79 C 146.52 17.18 144.93 17.97 144.13 18.36 C 144.25 16.26 144.44 14.16 144.80 12.09 L 144.97 11.18 C 142.43 11.21 137.33 11.27 134.79 11.30 L 135.02 12.19 C 135.50 14.13 135.84 16.09 136.16 18.06 L 135.32 18.00 C 134.26 17.91 133.20 17.81 132.14 17.72 C 132.04 16.73 131.85 14.77 131.75 13.78 C 129.96 14.93 128.19 16.09 126.43 17.27 C 126.13 17.24 125.53 17.18 125.23 17.14 C 124.19 16.49 123.19 15.80 122.19 15.11 C 123.02 12.20 123.85 9.30 124.69 6.39 M 130.17 11.40 C 129.06 11.09 127.52 11.28 126.86 12.34 C 126.97 14.42 132.08 13.04 130.17 11.40 Z" />
</g>
<g id="#565248ff">
<path fill="#565248" opacity="1.00" d=" M 24.45 9.71 C 25.65 8.94 26.82 8.11 28.00 7.30 C 29.18 8.11 30.35 8.93 31.55 9.71 C 29.18 9.63 26.82 9.63 24.45 9.71 Z" />
<path fill="#565248" opacity="1.00" d=" M 80.45 9.72 C 81.65 8.94 82.82 8.11 84.00 7.30 C 85.17 8.11 86.34 8.93 87.55 9.71 C 85.18 9.63 82.82 9.63 80.45 9.72 Z" />
<path fill="#565248" opacity="1.00" d=" M 192.45 9.72 C 193.65 8.94 194.82 8.11 196.00 7.30 C 197.17 8.11 198.34 8.93 199.55 9.71 C 197.18 9.63 194.81 9.63 192.45 9.72 Z" />
</g>
<g id="#5b5549ff">
<path fill="#5b5549" opacity="1.00" d=" M 34.62 7.06 C 37.36 8.37 40.12 9.68 42.74 11.24 C 40.79 11.41 38.83 11.57 36.88 11.73 C 36.37 14.26 35.84 16.80 35.42 19.35 C 34.44 19.59 33.45 19.82 32.46 20.06 C 32.15 17.39 32.19 14.71 32.52 12.05 L 32.89 11.17 L 33.25 10.31 C 33.70 9.22 34.16 8.14 34.62 7.06 Z" />
</g>
<g id="#5c554aff">
<path fill="#5c554a" opacity="1.00" d=" M 90.61 7.05 C 93.36 8.37 96.11 9.68 98.74 11.24 C 96.79 11.41 94.85 11.57 92.91 11.73 C 92.41 14.00 91.96 16.28 91.59 18.58 C 90.49 18.68 89.39 18.81 88.29 18.96 C 88.18 16.65 88.28 14.33 88.53 12.02 L 88.90 11.16 L 89.26 10.32 C 89.72 9.23 90.16 8.15 90.61 7.05 Z" />
<path fill="#5c554a" opacity="1.00" d=" M 202.61 7.05 C 205.36 8.37 208.11 9.68 210.74 11.24 C 208.79 11.41 206.85 11.57 204.91 11.73 C 204.41 14.00 203.96 16.28 203.59 18.58 C 202.49 18.68 201.38 18.81 200.29 18.96 C 200.18 16.65 200.28 14.33 200.53 12.02 L 200.90 11.16 L 201.26 10.32 C 201.72 9.23 202.16 8.15 202.61 7.05 Z" />
</g>
<g id="#60574aff">
<path fill="#60574a" opacity="1.00" d=" M 3.50 8.08 C 4.17 8.06 5.50 8.02 6.17 8.00 C 6.01 10.51 5.79 13.02 5.59 15.52 C 4.81 13.07 4.11 10.58 3.50 8.08 Z" />
<path fill="#60574a" opacity="1.00" d=" M 59.50 8.08 C 60.17 8.06 61.50 8.02 62.17 8.00 C 62.01 10.51 61.79 13.02 61.59 15.52 C 60.81 13.07 60.11 10.58 59.50 8.08 Z" />
<path fill="#60574a" opacity="1.00" d=" M 115.50 8.08 C 116.17 8.06 117.50 8.02 118.17 8.00 C 118.01 10.51 117.79 13.02 117.59 15.52 C 116.81 13.07 116.11 10.58 115.50 8.08 Z" />
<path fill="#60574a" opacity="1.00" d=" M 171.50 8.08 C 172.17 8.06 173.50 8.02 174.17 8.00 C 174.01 10.51 173.79 13.02 173.59 15.52 C 172.81 13.07 172.11 10.58 171.50 8.08 Z" />
<path fill="#60574a" opacity="1.00" d=" M 8.23 11.86 L 8.77 11.86 C 11.20 14.49 5.80 14.49 8.23 11.86 Z" />
<path fill="#60574a" opacity="1.00" d=" M 64.23 11.86 L 64.77 11.86 C 67.20 14.49 61.80 14.49 64.23 11.86 Z" />
<path fill="#60574a" opacity="1.00" d=" M 120.23 11.86 L 120.77 11.86 C 123.20 14.49 117.80 14.49 120.23 11.86 Z" />
<path fill="#60574a" opacity="1.00" d=" M 176.23 11.86 L 176.77 11.86 C 179.19 14.49 173.80 14.49 176.23 11.86 Z" />
</g>
<g id="#75634eff">
<path fill="#75634e" opacity="1.00" d=" M 22.74 10.28 C 23.17 10.14 24.02 9.86 24.45 9.71 C 26.82 9.63 29.18 9.63 31.55 9.71 C 31.97 9.86 32.83 10.16 33.25 10.31 L 32.89 11.17 C 29.62 11.22 26.36 11.28 23.10 11.16 L 22.74 10.28 Z" />
<path fill="#75634e" opacity="1.00" d=" M 78.63 10.28 C 79.08 10.14 80.00 9.86 80.45 9.72 C 82.82 9.63 85.18 9.63 87.55 9.71 C 87.98 9.86 88.84 10.17 89.26 10.32 L 88.90 11.16 C 85.58 11.22 82.27 11.29 78.96 11.17 L 78.63 10.28 Z" />
<path fill="#75634e" opacity="1.00" d=" M 190.63 10.28 C 191.08 10.14 192.00 9.86 192.45 9.72 C 194.81 9.63 197.18 9.63 199.55 9.71 C 199.98 9.86 200.84 10.17 201.26 10.32 L 200.90 11.16 C 197.57 11.22 194.28 11.29 190.96 11.17 L 190.63 10.28 Z" />
</g>
<g id="#332e2aff">
<path fill="#332e2a" opacity="1.00" d=" M 18.17 11.40 C 20.08 13.04 14.97 14.42 14.86 12.34 C 15.52 11.28 17.06 11.09 18.17 11.40 Z" />
<path fill="#332e2a" opacity="1.00" d=" M 74.17 11.40 C 76.08 13.04 70.97 14.42 70.86 12.34 C 71.52 11.28 73.06 11.09 74.17 11.40 Z" />
<path fill="#332e2a" opacity="1.00" d=" M 130.17 11.40 C 132.08 13.04 126.97 14.42 126.86 12.34 C 127.52 11.28 129.06 11.09 130.17 11.40 Z" />
<path fill="#332e2a" opacity="1.00" d=" M 186.17 11.40 C 188.08 13.04 182.97 14.42 182.86 12.34 C 183.52 11.28 185.06 11.09 186.17 11.40 Z" />
<path fill="#332e2a" opacity="1.00" d=" M 70.09 18.36 C 71.96 16.66 73.91 15.05 75.89 13.48 C 76.04 15.25 76.19 17.01 76.31 18.78 C 75.16 18.73 74.01 18.65 72.87 18.56 C 72.17 18.51 70.78 18.41 70.09 18.36 Z" />
<path fill="#332e2a" opacity="1.00" d=" M 182.09 18.36 C 183.96 16.66 185.90 15.05 187.89 13.48 C 188.04 15.25 188.19 17.01 188.31 18.78 C 187.16 18.73 186.01 18.65 184.87 18.56 C 184.17 18.51 182.78 18.41 182.09 18.36 Z" />
<path fill="#332e2a" opacity="1.00" d=" M 27.03 15.66 C 27.51 15.66 28.48 15.65 28.97 15.65 C 28.57 17.05 28.46 18.52 28.71 19.95 C 28.36 19.95 27.65 19.96 27.30 19.96 C 27.54 18.53 27.43 17.05 27.03 15.66 Z" />
<path fill="#332e2a" opacity="1.00" d=" M 83.17 15.70 C 83.62 15.69 84.51 15.66 84.95 15.65 C 84.52 16.70 84.41 17.78 84.63 18.89 C 84.30 18.90 83.65 18.91 83.33 18.92 C 83.66 17.83 83.61 16.76 83.17 15.70 Z" />
<path fill="#332e2a" opacity="1.00" d=" M 139.18 18.24 C 136.96 14.67 143.05 14.72 140.82 18.27 C 140.41 18.26 139.59 18.25 139.18 18.24 Z" />
<path fill="#332e2a" opacity="1.00" d=" M 195.17 15.70 C 195.62 15.69 196.51 15.66 196.95 15.65 C 196.52 16.70 196.41 17.78 196.63 18.89 C 196.30 18.90 195.65 18.91 195.33 18.92 C 195.66 17.83 195.60 16.76 195.17 15.70 Z" />
<path fill="#332e2a" opacity="1.00" d=" M 46.22 23.24 C 47.63 22.70 49.02 22.09 50.42 21.52 C 50.22 22.09 49.82 23.23 49.62 23.81 C 49.54 24.07 49.39 24.60 49.32 24.86 C 47.85 32.57 47.28 40.40 46.51 48.20 C 45.61 48.10 43.83 47.91 42.94 47.81 C 43.57 45.89 44.22 43.98 44.72 42.03 C 44.82 40.71 44.85 39.40 44.85 38.08 C 44.23 36.20 43.39 34.40 42.40 32.68 C 42.73 32.65 43.39 32.60 43.72 32.57 C 44.88 32.49 46.04 32.42 47.21 32.36 C 46.97 31.09 46.74 29.83 46.50 28.56 C 45.41 28.44 44.31 28.31 43.21 28.18 C 43.66 26.62 44.11 25.06 44.52 23.49 L 44.68 22.83 C 45.07 22.93 45.84 23.14 46.22 23.24 Z" />
<path fill="#332e2a" opacity="1.00" d=" M 102.13 22.91 C 103.60 22.52 105.05 22.05 106.50 21.61 C 106.28 22.16 105.86 23.26 105.64 23.81 C 105.56 24.07 105.40 24.60 105.32 24.86 C 103.84 32.57 103.28 40.40 102.51 48.20 C 101.60 48.09 99.78 47.89 98.88 47.78 C 99.52 45.97 100.21 44.19 100.82 42.37 C 100.84 41.79 100.88 40.62 100.90 40.04 C 100.32 37.53 99.63 35.03 98.57 32.68 C 98.91 32.65 99.59 32.61 99.93 32.58 C 100.98 32.51 102.03 32.45 103.08 32.40 C 102.64 30.74 102.19 29.08 101.76 27.41 C 101.60 26.31 100.98 25.55 99.91 25.14 C 99.91 24.72 99.89 23.88 99.89 23.46 C 100.45 23.33 101.57 23.05 102.13 22.91 Z" />
<path fill="#332e2a" opacity="1.00" d=" M 214.14 22.91 C 215.57 22.51 216.99 22.04 218.41 21.58 C 218.22 22.14 217.83 23.25 217.63 23.81 C 217.56 24.07 217.41 24.60 217.33 24.87 C 215.85 32.57 215.27 40.40 214.51 48.20 C 213.60 48.09 211.78 47.89 210.88 47.78 C 211.52 45.97 212.21 44.19 212.82 42.37 C 212.84 41.79 212.88 40.62 212.90 40.04 C 212.32 37.53 211.63 35.03 210.57 32.68 C 210.91 32.65 211.59 32.61 211.93 32.58 C 212.98 32.51 214.03 32.45 215.08 32.40 C 214.64 30.74 214.19 29.08 213.76 27.41 C 213.60 26.31 212.98 25.55 211.91 25.14 C 211.91 24.72 211.89 23.89 211.89 23.47 C 212.45 23.33 213.57 23.05 214.14 22.91 Z" />
</g>
<g id="#9c894eff">
<path fill="#9c894e" opacity="1.00" d=" M 23.10 11.16 C 26.36 11.28 29.62 11.22 32.89 11.17 L 32.52 12.05 C 29.51 12.23 26.48 12.29 23.47 12.07 L 23.10 11.16 Z" />
<path fill="#9c894e" opacity="1.00" d=" M 78.96 11.17 C 82.27 11.29 85.58 11.22 88.90 11.16 L 88.53 12.02 C 85.46 12.24 82.37 12.30 79.30 12.09 L 78.96 11.17 Z" />
<path fill="#9c894e" opacity="1.00" d=" M 134.79 11.30 C 137.33 11.27 142.43 11.21 144.97 11.18 L 144.80 12.09 C 141.54 12.28 138.28 12.36 135.02 12.19 L 134.79 11.30 Z" />
<path fill="#9c894e" opacity="1.00" d=" M 190.96 11.17 C 194.28 11.29 197.57 11.22 200.90 11.16 L 200.53 12.02 C 197.46 12.24 194.37 12.30 191.30 12.09 L 190.96 11.17 Z" />
</g>
<g id="#4b5745ff">
<path fill="#4b5745" opacity="1.00" d=" M 49.24 10.75 C 49.61 14.34 49.98 17.93 50.42 21.52 C 49.02 22.09 47.63 22.70 46.22 23.24 C 46.28 22.15 46.36 21.07 46.46 19.99 C 47.25 16.87 48.34 13.84 49.24 10.75 Z" />
<path fill="#4b5745" opacity="1.00" d=" M 105.23 10.75 C 105.61 14.37 105.99 18.00 106.50 21.61 C 105.05 22.05 103.60 22.52 102.13 22.91 C 102.24 21.99 102.35 21.07 102.48 20.15 C 103.23 16.97 104.32 13.89 105.23 10.75 Z" />
<path fill="#4b5745" opacity="1.00" d=" M 217.24 10.75 C 217.62 14.36 217.97 17.98 218.41 21.58 C 216.99 22.04 215.57 22.51 214.14 22.91 C 214.23 21.99 214.35 21.07 214.48 20.15 C 215.23 16.97 216.32 13.88 217.24 10.75 Z" />
</g>
<g id="#515946ff">
<path fill="#515946" opacity="1.00" d=" M 161.42 10.92 C 161.59 14.48 161.95 18.03 162.41 21.57 C 160.35 22.26 158.29 22.92 156.20 23.49 L 156.16 22.21 C 156.11 21.78 155.99 20.94 155.93 20.51 C 159.22 18.38 160.45 14.53 161.42 10.92 Z" />
</g>
<g id="#76644eff">
<path fill="#76644e" opacity="1.00" d=" M 23.47 12.07 C 26.48 12.29 29.51 12.23 32.52 12.05 C 32.19 14.71 32.15 17.39 32.46 20.06 C 31.93 20.04 30.89 20.00 30.37 19.99 C 30.39 18.49 30.09 16.99 29.42 15.65 L 28.97 15.65 C 28.48 15.65 27.51 15.66 27.03 15.66 L 26.57 15.66 C 25.92 17.00 25.62 18.49 25.63 19.98 C 25.12 19.98 24.09 19.98 23.58 19.98 C 23.85 17.35 23.81 14.69 23.47 12.07 Z" />
</g>
<g id="#77644eff">
<path fill="#77644e" opacity="1.00" d=" M 79.30 12.09 C 82.37 12.30 85.46 12.24 88.53 12.02 C 88.28 14.33 88.18 16.65 88.29 18.96 C 87.84 18.94 86.93 18.90 86.48 18.88 C 86.47 17.71 86.16 16.63 85.53 15.64 L 84.95 15.65 C 84.51 15.66 83.62 15.69 83.17 15.70 L 82.60 15.72 C 82.05 16.74 81.63 17.81 81.33 18.94 C 81.04 18.93 80.47 18.93 80.18 18.93 C 79.98 16.64 79.76 14.34 79.30 12.09 Z" />
<path fill="#77644e" opacity="1.00" d=" M 191.30 12.09 C 194.37 12.30 197.46 12.24 200.53 12.02 C 200.28 14.33 200.18 16.65 200.29 18.96 C 199.84 18.94 198.93 18.90 198.48 18.88 C 198.47 17.71 198.15 16.63 197.53 15.64 L 196.95 15.65 C 196.51 15.66 195.62 15.69 195.17 15.70 L 194.60 15.72 C 194.05 16.74 193.63 17.81 193.33 18.94 C 193.04 18.93 192.47 18.93 192.18 18.93 C 191.98 16.64 191.76 14.34 191.30 12.09 Z" />
</g>
<g id="#70604dff">
<path fill="#70604d" opacity="1.00" d=" M 135.02 12.19 C 138.28 12.36 141.54 12.28 144.80 12.09 C 144.44 14.16 144.25 16.26 144.13 18.36 C 143.03 18.30 141.93 18.27 140.82 18.27 C 143.05 14.72 136.96 14.67 139.18 18.24 C 138.17 18.18 137.16 18.12 136.16 18.06 C 135.84 16.09 135.50 14.13 135.02 12.19 Z" />
</g>
<g id="#716955fe">
<path fill="#716955" opacity="1.00" d=" M 38.11 12.84 C 39.36 12.91 40.61 12.98 41.87 13.06 C 41.85 15.00 41.80 18.89 41.78 20.83 L 41.51 20.27 C 40.40 17.78 39.28 15.29 38.11 12.84 Z" />
</g>
<g id="#746b56ff">
<path fill="#746b56" opacity="1.00" d=" M 93.90 12.44 C 95.08 12.82 96.26 13.22 97.43 13.64 C 97.62 15.02 98.00 17.79 98.19 19.18 L 97.35 19.06 C 96.13 16.89 95.00 14.67 93.90 12.44 Z" />
<path fill="#746b56" opacity="1.00" d=" M 205.90 12.44 C 207.08 12.82 208.26 13.22 209.43 13.64 C 209.62 15.02 210.00 17.79 210.19 19.18 L 209.35 19.06 C 208.13 16.89 207.00 14.67 205.90 12.44 Z" />
</g>
<g id="#71654bff">
<path fill="#71654b" opacity="1.00" d=" M 149.54 13.16 C 151.00 13.10 152.45 13.05 153.91 13.00 C 153.97 14.39 154.04 15.79 154.11 17.18 L 153.48 17.36 C 152.13 16.00 150.83 14.58 149.54 13.16 Z" />
</g>
<g id="#322e2aff">
<path fill="#322e2a" opacity="1.00" d=" M 16.18 15.14 C 17.50 14.81 18.83 14.47 20.15 14.13 C 20.22 15.93 20.26 17.73 20.29 19.53 C 19.14 19.62 17.99 19.69 16.84 19.75 C 16.22 19.70 14.99 19.59 14.37 19.54 C 14.97 18.07 15.57 16.61 16.18 15.14 Z" />
</g>
<g id="#332e2afe">
<path fill="#332e2a" opacity="1.00" d=" M 126.43 17.27 C 128.19 16.09 129.96 14.93 131.75 13.78 C 131.85 14.77 132.04 16.73 132.14 17.72 C 131.04 17.65 129.95 17.58 128.86 17.51 C 128.25 17.45 127.04 17.33 126.43 17.27 Z" />
</g>
<g id="#565249ff">
<path fill="#565249" opacity="1.00" d=" M 26.57 15.66 L 27.03 15.66 C 27.43 17.05 27.54 18.53 27.30 19.96 C 26.88 19.96 26.05 19.98 25.63 19.98 C 25.62 18.49 25.92 17.00 26.57 15.66 Z" />
<path fill="#565249" opacity="1.00" d=" M 28.97 15.65 L 29.42 15.65 C 30.09 16.99 30.39 18.49 30.37 19.99 C 29.95 19.98 29.12 19.96 28.71 19.95 C 28.46 18.52 28.57 17.05 28.97 15.65 Z" />
<path fill="#565249" opacity="1.00" d=" M 82.60 15.72 L 83.17 15.70 C 83.61 16.76 83.66 17.83 83.33 18.92 C 82.83 18.92 81.83 18.93 81.33 18.94 C 81.63 17.81 82.05 16.74 82.60 15.72 Z" />
<path fill="#565249" opacity="1.00" d=" M 84.95 15.65 L 85.53 15.64 C 86.16 16.63 86.47 17.71 86.48 18.88 C 86.02 18.88 85.09 18.89 84.63 18.89 C 84.41 17.78 84.52 16.70 84.95 15.65 Z" />
<path fill="#565249" opacity="1.00" d=" M 194.60 15.72 L 195.17 15.70 C 195.60 16.76 195.66 17.83 195.33 18.92 C 194.83 18.92 193.83 18.93 193.33 18.94 C 193.63 17.81 194.05 16.74 194.60 15.72 Z" />
<path fill="#565249" opacity="1.00" d=" M 196.95 15.65 L 197.53 15.64 C 198.15 16.63 198.47 17.71 198.48 18.88 C 198.02 18.88 197.09 18.89 196.63 18.89 C 196.41 17.78 196.52 16.70 196.95 15.65 Z" />
<path fill="#565249" opacity="1.00" d=" M 43.21 28.18 C 44.31 28.31 45.41 28.44 46.50 28.56 C 46.74 29.83 46.97 31.09 47.21 32.36 C 46.04 32.42 44.88 32.49 43.72 32.57 C 43.70 31.34 43.46 30.15 42.98 29.00 L 43.21 28.18 Z" />
</g>
<g id="#5d564aff">
<path fill="#5d564a" opacity="1.00" d=" M 2.59 17.35 C 4.78 16.84 6.99 16.37 9.21 16.00 C 9.74 17.27 10.29 18.54 10.87 19.79 C 10.23 20.16 8.95 20.88 8.31 21.25 C 8.23 20.74 8.07 19.72 7.98 19.21 C 8.47 17.09 5.27 16.38 5.48 18.79 C 4.51 18.32 3.55 17.84 2.59 17.35 Z" />
</g>
<g id="#625f57ff">
<path fill="#625f57" opacity="1.00" d=" M 59.97 16.83 C 61.92 16.53 63.87 16.24 65.83 15.94 C 65.91 17.25 66.00 18.56 66.08 19.87 C 65.62 20.15 64.70 20.71 64.24 20.99 L 64.17 20.21 L 64.08 19.32 C 64.54 17.80 62.32 16.50 61.71 18.28 C 61.28 17.92 60.40 17.19 59.97 16.83 Z" />
<path fill="#625f57" opacity="1.00" d=" M 171.97 16.83 C 173.92 16.53 175.87 16.24 177.83 15.94 C 177.91 17.25 177.99 18.56 178.08 19.87 C 177.62 20.15 176.70 20.71 176.24 20.99 L 176.17 20.21 L 176.08 19.32 C 176.54 17.80 174.32 16.50 173.71 18.28 C 173.28 17.92 172.40 17.19 171.97 16.83 Z" />
</g>
<g id="#6b675bff">
<path fill="#6b675b" opacity="1.00" d=" M 118.16 15.78 C 119.34 15.96 120.52 16.15 121.70 16.33 C 121.82 16.95 122.05 18.21 122.17 18.83 C 121.59 19.16 120.44 19.83 119.87 20.16 L 119.62 19.47 C 119.15 18.23 118.65 17.01 118.16 15.78 Z" />
</g>
<g id="#8a7c4cff">
<path fill="#8a7c4c" opacity="1.00" d=" M 5.48 18.79 C 5.27 16.38 8.47 17.09 7.98 19.21 C 7.36 19.11 6.10 18.90 5.48 18.79 Z" />
</g>
<g id="#84774cff">
<path fill="#84774c" opacity="1.00" d=" M 61.71 18.28 C 62.32 16.50 64.54 17.80 64.08 19.32 C 63.49 19.06 62.31 18.54 61.71 18.28 Z" />
<path fill="#84774c" opacity="1.00" d=" M 173.71 18.28 C 174.32 16.50 176.54 17.80 176.08 19.32 C 175.49 19.06 174.31 18.54 173.71 18.28 Z" />
</g>
<g id="#4379caff">
<path fill="#4379ca" opacity="1.00" d=" M 111.92 16.78 C 114.49 17.67 117.06 18.57 119.62 19.47 L 119.87 20.16 C 120.12 20.99 120.35 21.82 120.55 22.66 C 120.31 25.11 123.81 24.70 122.94 22.37 C 133.05 22.08 143.18 22.89 153.27 21.89 C 153.55 22.34 154.11 23.25 154.40 23.70 C 153.55 23.77 151.85 23.91 151.00 23.98 C 145.28 24.40 139.54 24.76 133.90 25.90 C 131.44 26.13 130.48 28.73 129.07 30.37 C 134.10 32.96 139.17 35.52 144.50 37.44 C 146.63 39.86 148.65 42.38 150.99 44.62 C 148.67 44.61 146.36 44.63 144.05 44.64 C 144.78 43.36 145.51 42.08 146.24 40.80 C 143.81 39.89 141.39 38.98 138.96 38.11 C 140.06 41.72 141.98 44.95 143.80 48.22 C 142.99 49.15 142.19 50.08 141.39 51.02 C 140.81 49.12 140.23 47.22 139.65 45.33 C 138.59 45.50 137.52 45.68 136.46 45.86 C 137.51 42.96 138.25 39.96 139.01 36.97 C 134.68 35.90 130.35 34.84 126.05 33.63 C 126.67 33.28 127.91 32.60 128.52 32.25 C 128.66 30.61 128.93 27.34 129.07 25.70 C 123.17 26.31 117.27 26.76 111.38 27.46 C 111.53 26.17 111.68 24.87 111.81 23.57 C 111.86 23.17 111.97 22.36 112.02 21.95 L 112.09 21.44 C 114.58 22.31 117.23 22.54 119.85 22.65 C 117.29 21.11 114.62 19.81 111.98 18.44 C 111.97 18.02 111.94 17.19 111.92 16.78 Z" />
<path fill="#4379ca" opacity="1.00" d=" M 55.87 17.92 C 58.63 18.71 61.39 19.49 64.17 20.21 L 64.24 20.99 C 64.33 21.89 64.41 22.79 64.49 23.69 C 64.07 26.16 67.68 25.67 66.89 23.39 C 77.02 23.06 87.16 23.89 97.27 22.90 C 97.49 23.34 97.95 24.23 98.17 24.68 C 97.45 24.73 96.00 24.84 95.27 24.89 C 88.14 26.17 78.05 24.17 73.74 31.63 C 80.13 34.43 87.26 36.00 92.75 40.54 C 90.02 39.97 87.30 39.36 84.58 38.74 C 82.88 42.27 81.07 45.75 79.23 49.21 C 80.37 49.59 81.51 49.98 82.64 50.38 C 84.21 46.90 87.71 45.60 90.94 44.33 C 88.21 47.24 84.28 50.40 86.47 54.81 C 84.69 53.54 82.95 52.07 80.83 51.39 C 77.61 51.49 74.83 53.44 71.93 54.65 C 73.92 52.92 75.90 51.18 77.87 49.42 C 77.22 49.23 75.92 48.86 75.27 48.67 C 79.02 45.66 81.51 41.48 82.85 36.90 C 76.08 34.54 69.22 36.43 63.14 39.57 C 65.36 42.04 67.41 44.66 69.76 47.03 C 65.51 45.39 62.54 41.95 60.21 38.18 C 64.85 36.62 70.31 36.34 73.89 32.71 C 76.68 25.40 67.76 26.65 63.94 26.01 C 61.70 26.04 60.37 28.21 58.71 29.41 C 58.77 28.91 58.90 27.90 58.97 27.40 C 57.86 27.89 56.76 28.39 55.65 28.89 L 55.61 27.69 C 55.66 26.32 55.71 24.95 55.79 23.58 C 55.84 23.15 55.94 22.27 55.99 21.83 C 58.26 23.56 61.17 23.61 63.89 23.61 C 61.32 22.11 58.62 20.88 55.92 19.66 C 55.91 19.22 55.88 18.35 55.87 17.92 Z" />
<path fill="#4379ca" opacity="1.00" d=" M 114.56 36.77 C 119.59 38.03 124.52 35.84 129.46 35.08 C 125.40 37.05 121.25 38.85 117.30 41.04 C 117.39 40.58 117.58 39.66 117.67 39.20 C 116.44 39.04 115.21 38.87 113.98 38.71 C 114.17 38.06 114.37 37.42 114.56 36.77 Z" />
</g>
<g id="#437ec9ff">
<path fill="#437ec9" opacity="1.00" d=" M 123.79 17.91 C 124.15 17.72 124.87 17.33 125.23 17.14 C 125.53 17.18 126.13 17.24 126.43 17.27 C 127.04 17.33 128.25 17.45 128.86 17.51 C 131.01 17.68 133.16 17.85 135.32 18.00 L 136.16 18.06 C 137.16 18.12 138.17 18.18 139.18 18.24 C 139.59 18.25 140.41 18.26 140.82 18.27 C 141.93 18.27 143.03 18.30 144.13 18.36 C 145.92 18.52 149.50 18.84 151.28 19.00 C 142.31 19.51 133.32 19.81 124.43 21.27 C 124.21 20.15 124.00 19.03 123.79 17.91 Z" />
<path fill="#437ec9" opacity="1.00" d=" M 67.81 18.84 C 68.06 18.69 68.57 18.41 68.83 18.27 C 69.14 18.29 69.77 18.33 70.09 18.36 C 70.78 18.41 72.17 18.51 72.87 18.56 C 75.01 18.70 77.15 18.81 79.30 18.90 L 80.18 18.93 C 80.47 18.93 81.04 18.93 81.33 18.94 C 81.83 18.93 82.83 18.92 83.33 18.92 C 83.65 18.91 84.30 18.90 84.63 18.89 C 85.09 18.89 86.02 18.88 86.48 18.88 C 86.93 18.90 87.84 18.94 88.29 18.96 C 90.11 19.17 93.75 19.58 95.57 19.79 C 86.52 20.64 77.41 20.76 68.42 22.28 C 68.21 21.13 68.01 19.98 67.81 18.84 Z" />
<path fill="#437ec9" opacity="1.00" d=" M 179.81 18.84 C 180.06 18.69 180.57 18.41 180.83 18.27 C 181.14 18.29 181.77 18.33 182.09 18.36 C 182.78 18.41 184.17 18.51 184.87 18.56 C 187.01 18.70 189.15 18.81 191.30 18.90 L 192.18 18.93 C 192.47 18.93 193.04 18.93 193.33 18.94 C 193.83 18.93 194.83 18.92 195.33 18.92 C 195.65 18.91 196.30 18.90 196.63 18.89 C 197.09 18.89 198.02 18.88 198.48 18.88 C 198.93 18.90 199.84 18.94 200.29 18.96 C 202.11 19.17 205.75 19.58 207.57 19.79 C 198.52 20.64 189.41 20.76 180.42 22.28 C 180.21 21.13 180.01 19.98 179.81 18.84 Z" />
<path fill="#437ec9" opacity="1.00" d=" M 12.17 20.63 C 12.11 20.18 11.98 19.28 11.91 18.83 C 12.53 19.01 13.76 19.36 14.37 19.54 C 14.99 19.59 16.22 19.70 16.84 19.75 C 19.08 19.86 21.33 19.94 23.58 19.98 C 24.09 19.98 25.12 19.98 25.63 19.98 C 26.05 19.98 26.88 19.96 27.30 19.96 C 27.65 19.96 28.36 19.95 28.71 19.95 C 29.12 19.96 29.95 19.98 30.37 19.99 C 30.89 20.00 31.93 20.04 32.46 20.06 C 34.20 20.10 37.69 20.20 39.43 20.25 C 30.51 22.01 21.36 21.63 12.43 23.40 C 12.38 22.65 12.32 21.91 12.24 21.17 L 12.17 20.63 Z" />
</g>
<g id="#8fa8baff">
<path fill="#8fa8ba" opacity="1.00" d=" M 128.86 17.51 C 129.95 17.58 131.04 17.65 132.14 17.72 C 133.20 17.81 134.26 17.91 135.32 18.00 C 133.16 17.85 131.01 17.68 128.86 17.51 Z" />
<path fill="#8fa8ba" opacity="1.00" d=" M 147.32 16.79 C 148.43 17.29 149.55 17.79 150.65 18.34 L 151.28 19.00 C 149.50 18.84 145.92 18.52 144.13 18.36 C 144.93 17.97 146.52 17.18 147.32 16.79 Z" />
<path fill="#8fa8ba" opacity="1.00" d=" M 72.87 18.56 C 74.01 18.65 75.16 18.73 76.31 18.78 C 77.31 18.83 78.31 18.87 79.30 18.90 C 77.15 18.81 75.01 18.70 72.87 18.56 Z" />
<path fill="#8fa8ba" opacity="1.00" d=" M 88.29 18.96 C 89.39 18.81 90.49 18.68 91.59 18.58 C 92.72 18.62 93.85 18.70 94.98 18.82 L 95.57 19.79 C 93.75 19.58 90.11 19.17 88.29 18.96 Z" />
<path fill="#8fa8ba" opacity="1.00" d=" M 184.87 18.56 C 186.01 18.65 187.16 18.73 188.31 18.78 C 189.31 18.83 190.30 18.87 191.30 18.90 C 189.15 18.81 187.01 18.70 184.87 18.56 Z" />
<path fill="#8fa8ba" opacity="1.00" d=" M 200.29 18.96 C 201.38 18.81 202.49 18.68 203.59 18.58 C 204.72 18.62 205.85 18.70 206.98 18.82 L 207.57 19.79 C 205.75 19.58 202.11 19.17 200.29 18.96 Z" />
<path fill="#8fa8ba" opacity="1.00" d=" M 16.84 19.75 C 17.99 19.69 19.14 19.62 20.29 19.53 C 21.39 19.68 22.48 19.83 23.58 19.98 C 21.33 19.94 19.08 19.86 16.84 19.75 Z" />
<path fill="#8fa8ba" opacity="1.00" d=" M 32.46 20.06 C 33.45 19.82 34.44 19.59 35.42 19.35 C 36.95 19.60 38.48 19.84 40.01 20.07 L 39.43 20.25 C 37.69 20.20 34.20 20.10 32.46 20.06 Z" />
</g>
<g id="#268dd8ff">
<path fill="#268dd8" opacity="1.00" d=" M 153.48 17.36 L 154.11 17.18 C 154.15 17.93 154.23 19.43 154.26 20.18 C 154.20 21.57 154.83 22.25 156.16 22.21 L 156.20 23.49 C 156.48 24.93 156.88 26.33 157.34 27.72 C 156.52 28.49 155.70 29.25 154.86 30.00 C 154.60 30.22 154.08 30.65 153.81 30.87 C 153.10 28.49 152.01 26.24 151.00 23.98 C 151.85 23.91 153.55 23.77 154.40 23.70 C 154.11 23.25 153.55 22.34 153.27 21.89 C 152.64 20.90 151.98 19.94 151.28 19.00 L 150.65 18.34 C 151.36 18.09 152.77 17.61 153.48 17.36 Z" />
</g>
<g id="#65579cfe">
<path fill="#65579c" opacity="1.00" d=" M 122.17 18.83 C 122.58 18.60 123.39 18.14 123.79 17.91 C 124.00 19.03 124.21 20.15 124.43 21.27 C 133.32 19.81 142.31 19.51 151.28 19.00 C 151.98 19.94 152.64 20.90 153.27 21.89 C 143.18 22.89 133.05 22.08 122.94 22.37 C 122.34 22.44 121.15 22.58 120.55 22.66 C 120.35 21.82 120.12 20.99 119.87 20.16 C 120.44 19.83 121.59 19.16 122.17 18.83 Z" />
<path fill="#65579c" opacity="1.00" d=" M 66.08 19.87 C 66.51 19.61 67.38 19.10 67.81 18.84 C 68.01 19.98 68.21 21.13 68.42 22.28 C 77.41 20.76 86.52 20.64 95.57 19.79 C 96.16 20.81 96.72 21.85 97.27 22.90 C 87.16 23.89 77.02 23.06 66.89 23.39 C 66.29 23.47 65.09 23.61 64.49 23.69 C 64.41 22.79 64.33 21.89 64.24 20.99 C 64.70 20.71 65.62 20.15 66.08 19.87 Z" />
<path fill="#65579c" opacity="1.00" d=" M 178.08 19.87 C 178.51 19.61 179.38 19.10 179.81 18.84 C 180.01 19.98 180.21 21.13 180.42 22.28 C 189.41 20.76 198.52 20.64 207.57 19.79 C 208.16 20.81 208.72 21.85 209.27 22.90 C 199.16 23.89 189.02 23.06 178.89 23.39 C 178.29 23.47 177.09 23.61 176.49 23.69 C 176.41 22.79 176.33 21.89 176.24 20.99 C 176.70 20.71 177.62 20.15 178.08 19.87 Z" />
</g>
<g id="#4279cbff">
<path fill="#4279cb" opacity="1.00" d=" M 167.87 17.92 C 170.63 18.71 173.39 19.49 176.17 20.21 L 176.24 20.99 C 176.33 21.89 176.41 22.79 176.49 23.69 C 176.07 26.16 179.67 25.67 178.89 23.39 C 189.02 23.06 199.16 23.89 209.27 22.90 C 209.49 23.34 209.95 24.24 210.18 24.68 C 209.45 24.73 207.99 24.83 207.27 24.88 C 200.23 24.87 193.38 26.46 186.72 28.57 C 186.78 29.52 186.90 31.40 186.96 32.35 C 192.86 35.15 199.70 36.14 204.77 40.54 C 202.03 39.96 199.30 39.37 196.58 38.74 C 194.87 42.27 193.07 45.75 191.23 49.21 C 192.37 49.59 193.51 49.98 194.64 50.38 C 196.21 46.90 199.71 45.60 202.94 44.33 C 200.21 47.24 196.28 50.40 198.47 54.81 C 196.69 53.54 194.95 52.07 192.83 51.39 C 189.61 51.49 186.83 53.44 183.93 54.65 C 185.92 52.92 187.90 51.18 189.87 49.42 C 189.22 49.23 187.92 48.86 187.27 48.67 C 191.02 45.66 193.51 41.48 194.85 36.90 C 188.08 34.54 181.22 36.43 175.14 39.57 C 177.36 42.04 179.41 44.66 181.76 47.03 C 177.51 45.39 174.54 41.95 172.21 38.18 C 176.84 36.61 182.32 36.36 185.89 32.70 C 185.82 31.37 185.69 28.69 185.63 27.35 C 179.57 26.88 173.58 27.85 167.68 29.06 L 167.64 27.75 C 167.67 26.35 167.72 24.96 167.79 23.57 C 167.84 23.14 167.94 22.27 167.99 21.83 C 170.26 23.56 173.17 23.62 175.89 23.60 C 173.32 22.11 170.62 20.89 167.92 19.66 C 167.91 19.22 167.88 18.35 167.87 17.92 Z" />
</g>
<g id="#4279cbfe">
<path fill="#4279cb" opacity="1.00" d=" M 0.00 18.89 C 2.76 19.71 5.53 20.51 8.31 21.25 L 8.33 21.75 C 8.38 22.73 8.43 23.71 8.48 24.69 C 8.01 27.15 11.66 26.65 10.89 24.39 C 20.94 24.30 30.99 24.38 41.03 24.24 L 41.49 24.29 L 42.20 24.76 C 41.44 25.24 40.70 25.74 39.96 26.24 C 36.49 26.63 33.03 26.99 29.56 27.32 C 33.79 28.01 38.20 28.73 41.24 32.04 L 41.21 32.74 C 36.85 32.20 32.50 31.52 28.11 31.25 C 28.22 29.59 28.34 27.93 28.46 26.27 C 24.71 27.31 21.20 29.12 18.83 32.31 C 24.88 35.56 31.23 38.39 36.71 42.58 C 33.95 41.96 31.19 41.32 28.44 40.65 C 26.96 43.92 25.56 47.22 23.94 50.42 C 25.38 50.94 26.82 51.46 28.26 51.99 C 24.20 52.71 20.25 53.91 16.68 56.00 L 15.61 56.00 C 17.76 54.26 19.78 52.37 21.86 50.56 C 21.42 49.01 20.99 47.47 20.54 45.93 C 22.95 44.61 25.89 43.65 27.20 41.02 C 23.17 34.32 13.65 35.68 8.29 40.01 C 10.74 42.72 13.30 45.32 15.78 48.01 C 12.72 46.69 10.04 44.64 8.22 41.82 C 6.64 38.81 2.83 39.21 0.00 38.53 L 0.00 37.92 C 6.55 37.00 13.28 36.25 19.28 33.27 C 18.71 31.58 18.11 29.92 17.52 28.24 C 18.80 27.85 20.07 27.46 21.34 27.06 C 14.08 27.22 6.86 28.28 0.00 30.71 L 0.00 23.51 C 2.52 24.28 5.15 24.55 7.77 24.71 C 5.25 23.07 2.60 21.64 0.00 20.13 L 0.00 18.89 Z" />
</g>
<g id="#278bd7ff">
<path fill="#278bd7" opacity="1.00" d=" M 94.98 18.82 C 95.57 18.88 96.75 19.00 97.35 19.06 L 98.19 19.18 L 98.30 19.99 L 98.39 20.71 C 98.12 22.13 98.62 23.05 99.89 23.46 C 99.89 23.88 99.91 24.72 99.91 25.14 C 100.20 25.82 100.77 27.18 101.06 27.86 C 100.59 28.18 99.65 28.82 99.18 29.15 C 98.77 29.50 97.94 30.22 97.53 30.58 C 96.96 28.61 96.12 26.74 95.27 24.89 C 96.00 24.84 97.45 24.73 98.17 24.68 C 97.95 24.23 97.49 23.34 97.27 22.90 C 96.72 21.85 96.16 20.81 95.57 19.79 L 94.98 18.82 Z" />
<path fill="#278bd7" opacity="1.00" d=" M 206.98 18.82 C 207.57 18.88 208.75 19.00 209.35 19.06 L 210.19 19.18 L 210.30 19.99 L 210.39 20.71 C 210.12 22.13 210.62 23.05 211.89 23.47 C 211.89 23.89 211.91 24.72 211.91 25.14 C 212.20 25.82 212.77 27.18 213.06 27.86 C 212.59 28.18 211.65 28.82 211.18 29.15 C 210.77 29.50 209.94 30.22 209.53 30.58 C 208.96 28.61 208.12 26.74 207.27 24.88 C 207.99 24.83 209.45 24.73 210.18 24.68 C 209.95 24.24 209.49 23.34 209.27 22.90 C 208.72 21.85 208.16 20.81 207.57 19.79 L 206.98 18.82 Z" />
</g>
<g id="#65569cff">
<path fill="#65569c" opacity="1.00" d=" M 111.98 18.44 C 114.62 19.81 117.29 21.11 119.85 22.65 C 117.23 22.54 114.58 22.31 112.09 21.44 C 112.06 20.69 112.01 19.19 111.98 18.44 Z" />
<path fill="#65569c" opacity="1.00" d=" M 55.92 19.66 C 58.62 20.88 61.32 22.11 63.89 23.61 C 61.17 23.61 58.26 23.56 55.99 21.83 L 55.96 21.21 L 55.92 19.66 Z" />
<path fill="#65569c" opacity="1.00" d=" M 167.92 19.66 C 170.62 20.89 173.32 22.11 175.89 23.60 C 173.17 23.62 170.26 23.56 167.99 21.83 L 167.96 21.21 L 167.92 19.66 Z" />
<path fill="#65569c" opacity="1.00" d=" M 0.00 20.13 C 2.60 21.64 5.25 23.07 7.77 24.71 C 5.15 24.55 2.52 24.28 0.00 23.51 L 0.00 20.13 Z" />
</g>
<g id="#7f91acff">
<path fill="#7f91ac" opacity="1.00" d=" M 10.87 19.79 C 11.19 20.00 11.85 20.42 12.17 20.63 L 12.24 21.17 C 11.02 21.71 9.66 21.88 8.33 21.75 L 8.31 21.25 C 8.95 20.88 10.23 20.16 10.87 19.79 Z" />
</g>
<g id="#2a8ad7fe">
<path fill="#2a8ad7" opacity="1.00" d=" M 40.01 20.07 C 40.38 20.12 41.14 20.22 41.51 20.27 L 41.78 20.83 C 41.84 21.27 41.95 22.14 42.00 22.58 C 41.88 23.01 41.62 23.86 41.49 24.29 L 41.03 24.24 C 40.26 23.02 39.65 21.68 39.43 20.25 L 40.01 20.07 Z" />
</g>
<g id="#6c5e4cff">
<path fill="#6c5e4c" opacity="1.00" d=" M 41.78 20.83 C 43.34 20.55 44.90 20.27 46.46 19.99 C 46.36 21.07 46.28 22.15 46.22 23.24 C 45.84 23.14 45.07 22.93 44.68 22.83 C 44.01 22.77 42.67 22.64 42.00 22.58 C 41.95 22.14 41.84 21.27 41.78 20.83 Z" />
<path fill="#6c5e4c" opacity="1.00" d=" M 42.03 50.50 C 42.26 49.83 42.71 48.48 42.94 47.81 C 43.83 47.91 45.61 48.10 46.51 48.20 C 46.43 49.21 46.36 50.21 46.30 51.22 C 45.87 51.14 44.99 50.97 44.56 50.89 C 43.93 50.79 42.66 50.60 42.03 50.50 Z" />
<path fill="#6c5e4c" opacity="1.00" d=" M 97.91 50.55 C 98.15 49.86 98.63 48.47 98.88 47.78 C 99.78 47.89 101.60 48.09 102.51 48.20 C 102.43 49.20 102.36 50.20 102.30 51.20 C 101.77 51.24 100.70 51.33 100.17 51.37 C 99.61 51.16 98.48 50.75 97.91 50.55 Z" />
<path fill="#6c5e4c" opacity="1.00" d=" M 154.18 50.31 C 154.46 49.45 154.75 48.59 155.03 47.73 C 155.90 47.85 157.63 48.08 158.50 48.20 C 158.42 49.24 158.35 50.27 158.30 51.31 C 157.71 51.17 156.54 50.89 155.95 50.75 C 155.51 50.64 154.62 50.42 154.18 50.31 Z" />
<path fill="#6c5e4c" opacity="1.00" d=" M 209.91 50.55 C 210.15 49.86 210.63 48.47 210.88 47.78 C 211.78 47.89 213.60 48.09 214.51 48.20 C 214.43 49.20 214.36 50.21 214.30 51.22 C 213.77 51.26 212.70 51.33 212.17 51.37 C 211.61 51.16 210.48 50.75 209.91 50.55 Z" />
</g>
<g id="#65955fff">
<path fill="#65955f" opacity="1.00" d=" M 52.51 21.30 C 52.83 19.58 55.11 20.35 55.96 21.21 L 55.99 21.83 C 54.92 22.20 53.09 22.63 52.51 21.30 Z" />
<path fill="#65955f" opacity="1.00" d=" M 108.48 21.25 C 108.94 19.47 111.25 20.54 112.09 21.44 L 112.02 21.95 C 110.89 22.19 109.05 22.63 108.48 21.25 Z" />
<path fill="#65955f" opacity="1.00" d=" M 164.51 21.30 C 164.83 19.58 167.11 20.35 167.96 21.21 L 167.99 21.83 C 166.91 22.21 165.09 22.64 164.51 21.30 Z" />
<path fill="#65955f" opacity="1.00" d=" M 220.47 21.28 C 220.84 19.52 223.12 20.42 224.00 21.27 L 224.00 21.78 C 222.91 22.16 221.04 22.68 220.47 21.28 Z" />
<path fill="#65955f" opacity="1.00" d=" M 52.48 49.29 C 52.80 47.54 55.08 48.34 55.90 49.25 L 55.88 49.81 C 54.84 50.21 52.98 50.68 52.48 49.29 Z" />
<path fill="#65955f" opacity="1.00" d=" M 108.48 49.29 C 108.81 47.54 111.08 48.34 111.91 49.25 L 111.88 49.81 C 110.84 50.21 108.98 50.68 108.48 49.29 Z" />
<path fill="#65955f" opacity="1.00" d=" M 164.48 49.29 C 164.80 47.54 167.08 48.34 167.90 49.25 L 167.88 49.81 C 166.84 50.21 164.98 50.68 164.48 49.29 Z" />
<path fill="#65955f" opacity="1.00" d=" M 220.47 49.28 C 220.83 47.52 223.12 48.41 224.00 49.26 L 224.00 49.77 C 222.92 50.15 221.04 50.68 220.47 49.28 Z" />
</g>
<g id="#6e5f4cff">
<path fill="#6e5f4c" opacity="1.00" d=" M 98.30 19.99 C 99.69 20.04 101.08 20.09 102.48 20.15 C 102.35 21.07 102.24 21.99 102.13 22.91 C 101.57 23.05 100.45 23.33 99.89 23.46 C 100.27 22.13 99.77 21.21 98.39 20.71 L 98.30 19.99 Z" />
<path fill="#6e5f4c" opacity="1.00" d=" M 210.30 19.99 C 211.69 20.04 213.08 20.09 214.48 20.15 C 214.35 21.07 214.23 21.99 214.14 22.91 C 213.57 23.05 212.45 23.33 211.89 23.47 C 212.27 22.14 211.77 21.22 210.39 20.71 L 210.30 19.99 Z" />
</g>
<g id="#adc2d9ff">
<path fill="#adc2d9" opacity="1.00" d=" M 154.26 20.18 C 154.68 20.26 155.51 20.43 155.93 20.51 C 155.99 20.94 156.11 21.78 156.16 22.21 C 154.83 22.25 154.20 21.57 154.26 20.18 Z" />
<path fill="#adc2d9" opacity="1.00" d=" M 98.39 20.71 C 99.77 21.21 100.27 22.13 99.89 23.46 C 98.62 23.05 98.12 22.13 98.39 20.71 Z" />
<path fill="#adc2d9" opacity="1.00" d=" M 210.39 20.71 C 211.77 21.22 212.27 22.14 211.89 23.47 C 210.62 23.05 210.12 22.13 210.39 20.71 Z" />
</g>
<g id="#64569cff">
<path fill="#64569c" opacity="1.00" d=" M 8.33 21.75 C 9.66 21.88 11.02 21.71 12.24 21.17 C 12.32 21.91 12.38 22.65 12.43 23.40 C 21.36 21.63 30.51 22.01 39.43 20.25 C 39.65 21.68 40.26 23.02 41.03 24.24 C 30.99 24.38 20.94 24.30 10.89 24.39 C 10.29 24.47 9.08 24.61 8.48 24.69 C 8.43 23.71 8.38 22.73 8.33 21.75 Z" />
</g>
<g id="#35312dff">
<path fill="#35312d" opacity="1.00" d=" M 156.20 23.49 C 158.29 22.92 160.35 22.26 162.41 21.57 C 162.21 22.13 161.83 23.25 161.63 23.82 C 161.56 24.08 161.42 24.60 161.34 24.87 C 159.85 32.57 159.27 40.41 158.50 48.20 C 157.63 48.08 155.90 47.85 155.03 47.73 C 155.55 46.20 156.08 44.68 156.64 43.18 C 157.12 42.12 157.19 41.05 156.83 39.95 C 156.27 37.51 155.63 35.08 154.62 32.78 C 154.95 32.72 155.61 32.61 155.93 32.55 C 157.04 32.45 158.14 32.36 159.25 32.29 C 158.61 30.77 157.93 29.26 157.34 27.72 C 156.88 26.33 156.48 24.93 156.20 23.49 Z" />
</g>
<g id="#9db4c9ff">
<path fill="#9db4c9" opacity="1.00" d=" M 42.00 22.58 C 42.67 22.64 44.01 22.77 44.68 22.83 L 44.52 23.49 C 43.94 23.81 42.78 24.44 42.20 24.76 L 41.49 24.29 C 41.62 23.86 41.88 23.01 42.00 22.58 Z" />
<path fill="#9db4c9" opacity="1.00" d=" M 42.03 50.50 C 42.66 50.60 43.93 50.79 44.56 50.89 L 44.38 51.61 C 43.79 51.92 42.61 52.56 42.03 52.87 L 41.62 52.21 C 41.72 51.78 41.93 50.93 42.03 50.50 Z" />
<path fill="#9db4c9" opacity="1.00" d=" M 97.91 50.55 C 98.48 50.75 99.61 51.16 100.17 51.37 L 100.12 52.18 C 99.49 52.43 98.24 52.93 97.61 53.18 L 97.45 52.38 C 97.57 51.92 97.80 51.01 97.91 50.55 Z" />
<path fill="#9db4c9" opacity="1.00" d=" M 209.91 50.55 C 210.48 50.75 211.61 51.16 212.17 51.37 L 212.12 52.18 C 211.49 52.43 210.24 52.93 209.61 53.18 L 209.45 52.38 C 209.57 51.92 209.80 51.01 209.91 50.55 Z" />
</g>
<g id="#7498b7ff">
<path fill="#7498b7" opacity="1.00" d=" M 120.55 22.66 C 121.15 22.58 122.34 22.44 122.94 22.37 C 123.81 24.70 120.31 25.11 120.55 22.66 Z" />
<path fill="#7498b7" opacity="1.00" d=" M 64.49 23.69 C 65.09 23.61 66.29 23.47 66.89 23.39 C 67.68 25.67 64.07 26.16 64.49 23.69 Z" />
<path fill="#7498b7" opacity="1.00" d=" M 176.49 23.69 C 177.09 23.61 178.29 23.47 178.89 23.39 C 179.67 25.67 176.07 26.16 176.49 23.69 Z" />
<path fill="#7498b7" opacity="1.00" d=" M 8.48 24.69 C 9.08 24.61 10.29 24.47 10.89 24.39 C 11.66 26.65 8.01 27.15 8.48 24.69 Z" />
</g>
<g id="#6e9b59ff">
<path fill="#6e9b59" opacity="1.00" d=" M 49.62 23.81 C 50.81 23.47 52.02 23.19 53.23 22.89 C 53.57 23.95 53.92 25.02 54.27 26.09 C 54.79 25.26 55.30 24.43 55.79 23.58 C 55.71 24.95 55.66 26.32 55.61 27.69 C 51.76 34.70 55.86 43.04 50.54 49.63 C 49.16 42.87 49.49 35.98 49.50 29.14 C 50.05 28.67 50.60 28.21 51.15 27.74 C 50.53 26.79 49.90 25.84 49.32 24.86 C 49.39 24.60 49.54 24.07 49.62 23.81 Z" />
<path fill="#6e9b59" opacity="1.00" d=" M 105.64 23.81 C 106.82 23.48 108.01 23.19 109.21 22.90 C 109.57 23.96 109.93 25.02 110.29 26.08 C 110.80 25.25 111.32 24.42 111.81 23.57 C 111.68 24.87 111.53 26.17 111.38 27.46 C 108.02 34.66 111.74 42.97 106.54 49.64 C 105.16 42.87 105.49 35.99 105.50 29.14 C 106.05 28.67 106.60 28.21 107.15 27.74 C 106.53 26.79 105.90 25.84 105.32 24.86 C 105.40 24.60 105.56 24.07 105.64 23.81 Z" />
<path fill="#6e9b59" opacity="1.00" d=" M 161.63 23.82 C 162.82 23.48 164.02 23.18 165.23 22.88 C 165.57 23.95 165.92 25.02 166.27 26.09 C 166.79 25.26 167.30 24.42 167.79 23.57 C 167.72 24.96 167.67 26.35 167.64 27.75 C 166.07 31.68 164.35 35.93 166.37 40.05 C 165.13 43.25 163.90 46.46 162.47 49.58 C 161.21 42.82 161.47 35.97 161.50 29.14 C 162.05 28.67 162.60 28.21 163.15 27.75 C 162.53 26.80 161.92 25.84 161.34 24.87 C 161.42 24.60 161.56 24.08 161.63 23.82 Z" />
<path fill="#6e9b59" opacity="1.00" d=" M 217.63 23.81 C 218.83 23.47 220.05 23.18 221.26 22.87 C 221.56 23.95 221.88 25.03 222.20 26.10 C 222.81 25.23 223.42 24.35 224.00 23.45 L 224.00 28.17 C 222.12 28.17 222.12 30.86 224.00 30.87 L 224.00 34.53 C 223.76 33.79 223.27 32.32 223.03 31.58 C 222.19 32.72 221.37 33.86 220.53 35.00 C 221.27 36.56 222.00 38.13 222.72 39.70 C 221.28 42.99 219.96 46.33 218.45 49.60 C 217.22 42.83 217.47 35.97 217.50 29.14 C 218.05 28.67 218.60 28.21 219.15 27.74 C 218.53 26.79 217.91 25.84 217.33 24.87 C 217.41 24.60 217.56 24.07 217.63 23.81 Z" />
</g>
<g id="#268ed9fe">
<path fill="#268ed9" opacity="1.00" d=" M 42.20 24.76 C 42.78 24.44 43.94 23.81 44.52 23.49 C 44.11 25.06 43.66 26.62 43.21 28.18 L 42.98 29.00 C 42.54 29.43 41.67 30.29 41.23 30.71 C 40.86 29.21 40.40 27.72 39.96 26.24 C 40.70 25.74 41.44 25.24 42.20 24.76 Z" />
</g>
<g id="#3c6bbefe">
<path fill="#3c6bbe" opacity="1.00" d=" M 133.90 25.90 C 139.54 24.76 145.28 24.40 151.00 23.98 C 152.01 26.24 153.10 28.49 153.81 30.87 L 153.80 31.58 C 153.74 39.71 151.92 47.99 154.05 56.00 L 111.66 56.00 C 111.69 54.51 111.73 53.03 111.78 51.54 C 111.81 51.11 111.86 50.24 111.88 49.81 L 111.91 49.25 C 111.96 41.99 112.29 34.68 111.38 27.46 C 117.27 26.76 123.17 26.31 129.07 25.70 C 128.93 27.34 128.66 30.61 128.52 32.25 C 127.91 32.60 126.67 33.28 126.05 33.63 C 130.35 34.84 134.68 35.90 139.01 36.97 C 138.25 39.96 137.51 42.96 136.46 45.86 C 137.52 45.68 138.59 45.50 139.65 45.33 C 140.23 47.22 140.81 49.12 141.39 51.02 C 142.19 50.08 142.99 49.15 143.80 48.22 C 141.98 44.95 140.06 41.72 138.96 38.11 C 141.39 38.98 143.81 39.89 146.24 40.80 C 145.51 42.08 144.78 43.36 144.05 44.64 C 146.36 44.63 148.67 44.61 150.99 44.62 C 148.65 42.38 146.63 39.86 144.50 37.44 C 139.17 35.52 134.10 32.96 129.07 30.37 C 130.48 28.73 131.44 26.13 133.90 25.90 M 114.56 36.77 C 114.37 37.42 114.17 38.06 113.98 38.71 C 115.21 38.87 116.44 39.04 117.67 39.20 C 117.58 39.66 117.39 40.58 117.30 41.04 C 121.25 38.85 125.40 37.05 129.46 35.08 C 124.52 35.84 119.59 38.03 114.56 36.77 M 130.84 47.58 C 131.68 47.80 133.36 48.25 134.20 48.48 C 132.25 49.89 130.29 51.29 128.28 52.62 C 128.46 52.93 128.82 53.54 129.00 53.85 C 132.24 51.35 136.08 50.14 140.22 50.36 C 137.75 49.01 135.46 47.35 133.70 45.12 C 132.74 45.94 131.79 46.75 130.84 47.58 Z" />
<path fill="#3c6bbe" opacity="1.00" d=" M 18.83 32.31 C 21.20 29.12 24.71 27.31 28.46 26.27 C 28.34 27.93 28.22 29.59 28.11 31.25 C 32.50 31.52 36.85 32.20 41.21 32.74 C 40.65 36.37 40.06 40.12 41.10 43.72 C 40.50 45.21 39.85 46.67 39.21 48.13 C 40.00 49.50 40.80 50.86 41.62 52.21 L 42.03 52.87 C 41.50 53.92 40.95 54.97 40.39 56.00 L 16.68 56.00 C 20.25 53.91 24.20 52.71 28.26 51.99 C 26.82 51.46 25.38 50.94 23.94 50.42 C 25.56 47.22 26.96 43.92 28.44 40.65 C 31.19 41.32 33.95 41.96 36.71 42.58 C 31.23 38.39 24.88 35.56 18.83 32.31 M 34.84 44.63 C 32.75 46.24 30.54 47.69 28.20 48.92 C 28.36 49.48 28.53 50.04 28.70 50.60 C 31.39 49.50 34.14 48.53 36.89 47.59 C 36.20 46.61 35.53 45.62 34.84 44.63 Z" />
</g>
<g id="#465943ff">
<path fill="#465943" opacity="1.00" d=" M 46.51 48.20 C 47.28 40.40 47.85 32.57 49.32 24.86 C 49.90 25.84 50.53 26.79 51.15 27.74 C 50.60 28.21 50.05 28.67 49.50 29.14 C 49.49 35.98 49.16 42.87 50.54 49.63 C 49.13 50.17 47.73 50.74 46.30 51.22 C 46.36 50.21 46.43 49.21 46.51 48.20 Z" />
<path fill="#465943" opacity="1.00" d=" M 102.51 48.20 C 103.28 40.40 103.84 32.57 105.32 24.86 C 105.90 25.84 106.53 26.79 107.15 27.74 C 106.60 28.21 106.05 28.67 105.50 29.14 C 105.49 35.99 105.16 42.87 106.54 49.64 C 105.13 50.17 103.73 50.73 102.30 51.20 C 102.36 50.20 102.43 49.20 102.51 48.20 Z" />
<path fill="#465943" opacity="1.00" d=" M 158.50 48.20 C 159.27 40.41 159.85 32.57 161.34 24.87 C 161.92 25.84 162.53 26.80 163.15 27.75 C 162.60 28.21 162.05 28.67 161.50 29.14 C 161.47 35.97 161.21 42.82 162.47 49.58 C 161.08 50.16 159.71 50.78 158.30 51.31 C 158.35 50.27 158.42 49.24 158.50 48.20 Z" />
<path fill="#465943" opacity="1.00" d=" M 214.51 48.20 C 215.27 40.40 215.85 32.57 217.33 24.87 C 217.91 25.84 218.53 26.79 219.15 27.74 C 218.60 28.21 218.05 28.67 217.50 29.14 C 217.47 35.97 217.22 42.83 218.45 49.60 C 217.07 50.15 215.70 50.73 214.30 51.22 C 214.36 50.21 214.43 49.20 214.51 48.20 Z" />
</g>
<g id="#3c6bbeff">
<path fill="#3c6bbe" opacity="1.00" d=" M 73.74 31.63 C 78.05 24.17 88.14 26.17 95.27 24.89 C 96.12 26.74 96.96 28.61 97.53 30.58 L 97.58 31.34 C 97.79 38.35 96.49 45.40 97.45 52.38 L 97.61 53.18 C 97.80 53.88 98.19 55.29 98.38 56.00 L 55.67 56.00 C 55.70 54.51 55.74 53.03 55.78 51.54 C 55.81 51.11 55.85 50.24 55.88 49.81 L 55.90 49.25 C 56.00 42.46 55.97 35.67 55.65 28.89 C 56.76 28.39 57.86 27.89 58.97 27.40 C 58.90 27.90 58.77 28.91 58.71 29.41 C 60.37 28.21 61.70 26.04 63.94 26.01 C 67.76 26.65 76.68 25.40 73.89 32.71 C 70.31 36.34 64.85 36.62 60.21 38.18 C 62.54 41.95 65.51 45.39 69.76 47.03 C 67.41 44.66 65.36 42.04 63.14 39.57 C 69.22 36.43 76.08 34.54 82.85 36.90 C 81.51 41.48 79.02 45.66 75.27 48.67 C 75.92 48.86 77.22 49.23 77.87 49.42 C 75.90 51.18 73.92 52.92 71.93 54.65 C 74.83 53.44 77.61 51.49 80.83 51.39 C 82.95 52.07 84.69 53.54 86.47 54.81 C 84.28 50.40 88.21 47.24 90.94 44.33 C 87.71 45.60 84.21 46.90 82.64 50.38 C 81.51 49.98 80.37 49.59 79.23 49.21 C 81.07 45.75 82.88 42.27 84.58 38.74 C 87.30 39.36 90.02 39.97 92.75 40.54 C 87.26 36.00 80.13 34.43 73.74 31.63 M 83.14 29.26 C 87.34 29.55 91.55 29.25 95.75 29.21 C 91.75 26.72 87.26 27.19 83.14 29.26 Z" />
<path fill="#3c6bbe" opacity="1.00" d=" M 186.72 28.57 C 193.38 26.46 200.23 24.87 207.27 24.88 C 208.12 26.74 208.96 28.61 209.53 30.58 L 209.58 31.34 C 209.79 38.35 208.49 45.40 209.45 52.38 L 209.61 53.18 C 209.80 53.88 210.19 55.29 210.38 56.00 L 167.66 56.00 C 167.70 54.51 167.74 53.02 167.78 51.54 C 167.81 51.11 167.86 50.24 167.88 49.81 L 167.90 49.25 C 167.99 42.52 167.97 35.78 167.68 29.06 C 173.58 27.85 179.57 26.88 185.63 27.35 C 185.69 28.69 185.82 31.37 185.89 32.70 C 182.32 36.36 176.84 36.61 172.21 38.18 C 174.54 41.95 177.51 45.39 181.76 47.03 C 179.41 44.66 177.36 42.04 175.14 39.57 C 181.22 36.43 188.08 34.54 194.85 36.90 C 193.51 41.48 191.02 45.66 187.27 48.67 C 187.92 48.86 189.22 49.23 189.87 49.42 C 187.90 51.18 185.92 52.92 183.93 54.65 C 186.83 53.44 189.61 51.49 192.83 51.39 C 194.95 52.07 196.69 53.54 198.47 54.81 C 196.28 50.40 200.21 47.24 202.94 44.33 C 199.71 45.60 196.21 46.90 194.64 50.38 C 193.51 49.98 192.37 49.59 191.23 49.21 C 193.07 45.75 194.87 42.27 196.58 38.74 C 199.30 39.37 202.03 39.96 204.77 40.54 C 199.70 36.14 192.86 35.15 186.96 32.35 C 186.90 31.40 186.78 29.52 186.72 28.57 M 195.14 29.26 C 199.34 29.55 203.54 29.25 207.75 29.21 C 203.75 26.72 199.26 27.19 195.14 29.26 Z" />
<path fill="#3c6bbe" opacity="1.00" d=" M 0.00 30.71 C 6.86 28.28 14.08 27.22 21.34 27.06 C 20.07 27.46 18.80 27.85 17.52 28.24 C 18.11 29.92 18.71 31.58 19.28 33.27 C 13.28 36.25 6.55 37.00 0.00 37.92 L 0.00 30.71 Z" />
<path fill="#3c6bbe" opacity="1.00" d=" M 29.56 27.32 C 33.03 26.99 36.49 26.63 39.96 26.24 C 40.40 27.72 40.86 29.21 41.23 30.71 L 41.25 31.43 L 41.24 32.04 C 38.20 28.73 33.79 28.01 29.56 27.32 Z" />
<path fill="#3c6bbe" opacity="1.00" d=" M 8.29 40.01 C 13.65 35.68 23.17 34.32 27.20 41.02 C 25.89 43.65 22.95 44.61 20.54 45.93 C 20.99 47.47 21.42 49.01 21.86 50.56 C 19.78 52.37 17.76 54.26 15.61 56.00 L 0.00 56.00 L 0.00 38.53 C 2.83 39.21 6.64 38.81 8.22 41.82 C 10.04 44.64 12.72 46.69 15.78 48.01 C 13.30 45.32 10.74 42.72 8.29 40.01 M 2.20 47.92 C 2.82 49.22 3.44 50.51 4.05 51.81 C 3.38 52.56 2.72 53.31 2.06 54.06 C 5.09 54.36 8.12 54.68 11.16 54.99 C 9.01 53.55 6.83 52.15 4.70 50.68 C 5.75 49.32 6.83 48.00 7.90 46.67 C 6.00 47.06 4.10 47.48 2.20 47.92 Z" />
</g>
<g id="#86a0b1ff">
<path fill="#86a0b1" opacity="1.00" d=" M 99.91 25.14 C 100.98 25.55 101.60 26.31 101.76 27.41 L 101.06 27.86 C 100.77 27.18 100.20 25.82 99.91 25.14 Z" />
<path fill="#86a0b1" opacity="1.00" d=" M 211.91 25.14 C 212.98 25.55 213.60 26.31 213.76 27.41 L 213.06 27.86 C 212.77 27.18 212.20 25.82 211.91 25.14 Z" />
<path fill="#86a0b1" opacity="1.00" d=" M 154.86 30.00 C 155.13 30.64 155.67 31.91 155.93 32.55 C 155.61 32.61 154.95 32.72 154.62 32.78 C 154.41 32.48 154.01 31.88 153.80 31.58 L 153.81 30.87 C 154.08 30.65 154.60 30.22 154.86 30.00 Z" />
<path fill="#86a0b1" opacity="1.00" d=" M 154.18 50.31 C 154.62 50.42 155.51 50.64 155.95 50.75 L 155.91 51.58 C 154.99 53.06 153.17 51.57 154.18 50.31 Z" />
</g>
<g id="#4280caff">
<path fill="#4280ca" opacity="1.00" d=" M 83.14 29.26 C 87.26 27.19 91.75 26.72 95.75 29.21 C 91.55 29.25 87.34 29.55 83.14 29.26 Z" />
</g>
<g id="#3e7ecbff">
<path fill="#3e7ecb" opacity="1.00" d=" M 195.14 29.26 C 199.26 27.19 203.75 26.72 207.75 29.21 C 203.54 29.25 199.34 29.55 195.14 29.26 Z" />
</g>
<g id="#85b05fff">
<path fill="#85b05f" opacity="1.00" d=" M 50.54 49.63 C 55.86 43.04 51.76 34.70 55.61 27.69 L 55.65 28.89 C 55.97 35.67 56.00 42.46 55.90 49.25 C 55.08 48.34 52.80 47.54 52.48 49.29 C 52.98 50.68 54.84 50.21 55.88 49.81 C 55.85 50.24 55.81 51.11 55.78 51.54 C 55.29 52.40 54.78 53.26 54.26 54.11 C 53.91 53.04 53.57 51.97 53.23 50.89 C 51.95 51.18 50.68 51.46 49.42 51.78 C 49.70 51.24 50.26 50.17 50.54 49.63 Z" />
<path fill="#85b05f" opacity="1.00" d=" M 106.54 49.64 C 111.74 42.97 108.02 34.66 111.38 27.46 C 112.29 34.68 111.96 41.99 111.91 49.25 C 111.08 48.34 108.81 47.54 108.48 49.29 C 108.98 50.68 110.84 50.21 111.88 49.81 C 111.86 50.24 111.81 51.11 111.78 51.54 C 111.29 52.40 110.79 53.25 110.27 54.10 C 109.92 53.03 109.57 51.96 109.23 50.89 C 107.95 51.18 106.68 51.46 105.41 51.78 C 105.70 51.24 106.26 50.17 106.54 49.64 Z" />
<path fill="#85b05f" opacity="1.00" d=" M 166.37 40.05 C 164.35 35.93 166.07 31.68 167.64 27.75 L 167.68 29.06 C 167.97 35.78 167.99 42.52 167.90 49.25 C 167.08 48.34 164.80 47.54 164.48 49.29 C 164.98 50.68 166.84 50.21 167.88 49.81 C 167.86 50.24 167.81 51.11 167.78 51.54 C 167.29 52.40 166.78 53.25 166.27 54.10 C 165.91 53.03 165.57 51.97 165.23 50.90 C 163.95 51.18 162.66 51.46 161.40 51.77 C 161.66 51.23 162.20 50.13 162.47 49.58 C 163.90 46.46 165.13 43.25 166.37 40.05 Z" />
</g>
<g id="#565248fe">
<path fill="#565248" opacity="1.00" d=" M 101.06 27.86 L 101.76 27.41 C 102.19 29.08 102.64 30.74 103.08 32.40 C 102.03 32.45 100.98 32.51 99.93 32.58 C 100.06 31.36 99.81 30.21 99.18 29.15 C 99.65 28.82 100.59 28.18 101.06 27.86 Z" />
<path fill="#565248" opacity="1.00" d=" M 154.86 30.00 C 155.70 29.25 156.52 28.49 157.34 27.72 C 157.93 29.26 158.61 30.77 159.25 32.29 C 158.14 32.36 157.04 32.45 155.93 32.55 C 155.67 31.91 155.13 30.64 154.86 30.00 Z" />
<path fill="#565248" opacity="1.00" d=" M 213.06 27.86 L 213.76 27.41 C 214.19 29.08 214.64 30.74 215.08 32.40 C 214.03 32.45 212.98 32.51 211.93 32.58 C 212.06 31.36 211.81 30.21 211.18 29.15 C 211.65 28.82 212.59 28.18 213.06 27.86 Z" />
</g>
<g id="#a0b6cbff">
<path fill="#a0b6cb" opacity="1.00" d=" M 41.23 30.71 C 41.67 30.29 42.54 29.43 42.98 29.00 C 43.46 30.15 43.70 31.34 43.72 32.57 C 43.39 32.60 42.73 32.65 42.40 32.68 C 42.12 32.37 41.54 31.74 41.25 31.43 L 41.23 30.71 Z" />
<path fill="#a0b6cb" opacity="1.00" d=" M 97.53 30.58 C 97.94 30.22 98.77 29.50 99.18 29.15 C 99.81 30.21 100.06 31.36 99.93 32.58 C 99.59 32.61 98.91 32.65 98.57 32.68 C 98.32 32.34 97.83 31.68 97.58 31.34 L 97.53 30.58 Z" />
<path fill="#a0b6cb" opacity="1.00" d=" M 209.53 30.58 C 209.94 30.22 210.77 29.50 211.18 29.15 C 211.81 30.21 212.06 31.36 211.93 32.58 C 211.59 32.61 210.91 32.65 210.57 32.68 C 210.32 32.34 209.83 31.68 209.58 31.34 L 209.53 30.58 Z" />
</g>
<g id="#2f8bd3ff">
<path fill="#2f8bd3" opacity="1.00" d=" M 41.24 32.04 L 41.25 31.43 C 41.54 31.74 42.12 32.37 42.40 32.68 C 43.39 34.40 44.23 36.20 44.85 38.08 C 43.91 37.35 42.98 36.62 42.04 35.90 C 42.40 38.19 42.75 40.49 43.10 42.80 C 42.60 43.03 41.60 43.49 41.10 43.72 C 40.06 40.12 40.65 36.37 41.21 32.74 L 41.24 32.04 Z" />
</g>
<g id="#2c8ed7ff">
<path fill="#2c8ed7" opacity="1.00" d=" M 97.45 52.38 C 96.49 45.40 97.79 38.35 97.58 31.34 C 97.83 31.68 98.32 32.34 98.57 32.68 C 99.63 35.03 100.32 37.53 100.90 40.04 C 98.71 39.93 98.28 43.60 100.82 42.37 C 100.21 44.19 99.52 45.97 98.88 47.78 C 98.63 48.47 98.15 49.86 97.91 50.55 C 97.80 51.01 97.57 51.92 97.45 52.38 Z" />
<path fill="#2c8ed7" opacity="1.00" d=" M 209.45 52.38 C 208.49 45.40 209.79 38.35 209.58 31.34 C 209.83 31.68 210.32 32.34 210.57 32.68 C 211.63 35.03 212.32 37.53 212.90 40.04 C 210.71 39.93 210.27 43.60 212.82 42.37 C 212.21 44.19 211.52 45.97 210.88 47.78 C 210.63 48.47 210.15 49.86 209.91 50.55 C 209.80 51.01 209.57 51.92 209.45 52.38 Z" />
</g>
<g id="#288cd6ff">
<path fill="#288cd6" opacity="1.00" d=" M 154.05 56.00 C 151.92 47.99 153.74 39.71 153.80 31.58 C 154.01 31.88 154.41 32.48 154.62 32.78 C 155.63 35.08 156.27 37.51 156.83 39.95 C 155.14 40.29 154.60 42.93 156.64 43.18 C 156.08 44.68 155.55 46.20 155.03 47.73 C 154.75 48.59 154.46 49.45 154.18 50.31 C 153.17 51.57 154.99 53.06 155.91 51.58 C 155.78 53.05 155.60 54.53 155.42 56.00 L 154.05 56.00 Z" />
</g>
<g id="#a5bbd1ff">
<path fill="#a5bbd1" opacity="1.00" d=" M 42.04 35.90 C 42.98 36.62 43.91 37.35 44.85 38.08 C 44.85 39.40 44.82 40.71 44.72 42.03 C 44.31 42.22 43.50 42.60 43.10 42.80 C 42.75 40.49 42.40 38.19 42.04 35.90 Z" />
</g>
<g id="#8bb5d9ff">
<path fill="#8bb5d9" opacity="1.00" d=" M 100.90 40.04 C 100.88 40.62 100.84 41.79 100.82 42.37 C 98.28 43.60 98.71 39.93 100.90 40.04 Z" />
<path fill="#8bb5d9" opacity="1.00" d=" M 212.90 40.04 C 212.88 40.62 212.84 41.79 212.82 42.37 C 210.27 43.60 210.71 39.93 212.90 40.04 Z" />
</g>
<g id="#6e9bbbff">
<path fill="#6e9bbb" opacity="1.00" d=" M 156.83 39.95 C 157.19 41.05 157.12 42.12 156.64 43.18 C 154.60 42.93 155.14 40.29 156.83 39.95 Z" />
</g>
<g id="#2a8ed7ff">
<path fill="#2a8ed7" opacity="1.00" d=" M 43.10 42.80 C 43.50 42.60 44.31 42.22 44.72 42.03 C 44.22 43.98 43.57 45.89 42.94 47.81 C 42.71 48.48 42.26 49.83 42.03 50.50 C 41.93 50.93 41.72 51.78 41.62 52.21 C 40.80 50.86 40.00 49.50 39.21 48.13 C 39.85 46.67 40.50 45.21 41.10 43.72 C 41.60 43.49 42.60 43.03 43.10 42.80 Z" />
</g>
<g id="#427ccbff">
<path fill="#427ccb" opacity="1.00" d=" M 34.84 44.63 C 35.53 45.62 36.20 46.61 36.89 47.59 C 34.14 48.53 31.39 49.50 28.70 50.60 C 28.53 50.04 28.36 49.48 28.20 48.92 C 30.54 47.69 32.75 46.24 34.84 44.63 Z" />
</g>
<g id="#427acafe">
<path fill="#427aca" opacity="1.00" d=" M 130.84 47.58 C 131.79 46.75 132.74 45.94 133.70 45.12 C 135.46 47.35 137.75 49.01 140.22 50.36 C 136.08 50.14 132.24 51.35 129.00 53.85 C 128.82 53.54 128.46 52.93 128.28 52.62 C 130.29 51.29 132.25 49.89 134.20 48.48 C 133.36 48.25 131.68 47.80 130.84 47.58 Z" />
</g>
<g id="#427acbff">
<path fill="#427acb" opacity="1.00" d=" M 2.20 47.92 C 4.10 47.48 6.00 47.06 7.90 46.67 C 6.83 48.00 5.75 49.32 4.70 50.68 C 6.83 52.15 9.01 53.55 11.16 54.99 C 8.12 54.68 5.09 54.36 2.06 54.06 C 2.72 53.31 3.38 52.56 4.05 51.81 C 3.44 50.51 2.82 49.22 2.20 47.92 Z" />
</g>
<g id="#33302bff">
<path fill="#33302b" opacity="1.00" d=" M 46.30 51.22 C 47.73 50.74 49.13 50.17 50.54 49.63 C 50.26 50.17 49.70 51.24 49.42 51.78 C 49.25 52.03 48.93 52.53 48.77 52.78 C 47.90 53.75 48.24 55.28 49.27 56.00 L 42.90 56.00 C 43.46 54.56 43.94 53.09 44.38 51.61 L 44.56 50.89 C 44.99 50.97 45.87 51.14 46.30 51.22 Z" />
<path fill="#33302b" opacity="1.00" d=" M 102.30 51.20 C 103.73 50.73 105.13 50.17 106.54 49.64 C 106.26 50.17 105.70 51.24 105.41 51.78 C 105.25 52.03 104.93 52.53 104.77 52.78 C 103.90 53.75 104.24 55.28 105.26 56.00 L 98.99 56.00 C 99.83 54.91 100.10 53.53 100.12 52.18 L 100.17 51.37 C 100.70 51.33 101.77 51.24 102.30 51.20 Z" />
<path fill="#33302b" opacity="1.00" d=" M 158.30 51.31 C 159.71 50.78 161.08 50.16 162.47 49.58 C 162.20 50.13 161.66 51.23 161.40 51.77 C 161.24 52.02 160.94 52.53 160.78 52.78 C 159.93 53.75 160.23 55.28 161.26 56.00 L 155.42 56.00 C 155.60 54.53 155.78 53.05 155.91 51.58 L 155.95 50.75 C 156.54 50.89 157.71 51.17 158.30 51.31 Z" />
<path fill="#33302b" opacity="1.00" d=" M 214.30 51.22 C 215.70 50.73 217.07 50.15 218.45 49.60 C 218.19 50.14 217.65 51.23 217.38 51.77 C 217.23 52.02 216.93 52.53 216.78 52.78 C 215.94 53.76 216.22 55.28 217.26 56.00 L 210.99 56.00 C 211.83 54.91 212.10 53.53 212.12 52.18 L 212.17 51.37 C 212.70 51.33 213.77 51.26 214.30 51.22 Z" />
</g>
<g id="#719d5aff">
<path fill="#719d5a" opacity="1.00" d=" M 49.42 51.78 C 50.68 51.46 51.95 51.18 53.23 50.89 C 53.57 51.97 53.91 53.04 54.26 54.11 C 54.78 53.26 55.29 52.40 55.78 51.54 C 55.74 53.03 55.70 54.51 55.67 56.00 L 51.74 56.00 C 50.86 54.83 49.95 53.66 48.77 52.78 C 48.93 52.53 49.25 52.03 49.42 51.78 Z" />
<path fill="#719d5a" opacity="1.00" d=" M 105.41 51.78 C 106.68 51.46 107.95 51.18 109.23 50.89 C 109.57 51.96 109.92 53.03 110.27 54.10 C 110.79 53.25 111.29 52.40 111.78 51.54 C 111.73 53.03 111.69 54.51 111.66 56.00 L 107.73 56.00 C 106.85 54.83 105.95 53.66 104.77 52.78 C 104.93 52.53 105.25 52.03 105.41 51.78 Z" />
<path fill="#719d5a" opacity="1.00" d=" M 161.40 51.77 C 162.66 51.46 163.95 51.18 165.23 50.90 C 165.57 51.97 165.91 53.03 166.27 54.10 C 166.78 53.25 167.29 52.40 167.78 51.54 C 167.74 53.02 167.70 54.51 167.66 56.00 L 163.74 56.00 C 162.86 54.83 161.96 53.66 160.78 52.78 C 160.94 52.53 161.24 52.02 161.40 51.77 Z" />
<path fill="#719d5a" opacity="1.00" d=" M 217.38 51.77 C 218.66 51.45 219.96 51.17 221.25 50.89 C 221.56 51.96 221.88 53.03 222.21 54.10 C 222.82 53.21 223.42 52.31 224.00 51.40 L 224.00 56.00 L 219.74 56.00 C 218.86 54.83 217.96 53.66 216.78 52.78 C 216.93 52.53 217.23 52.02 217.38 51.77 Z" />
</g>
<g id="#268ed9ff">
<path fill="#268ed9" opacity="1.00" d=" M 42.03 52.87 C 42.61 52.56 43.79 51.92 44.38 51.61 C 43.94 53.09 43.46 54.56 42.90 56.00 L 40.39 56.00 C 40.95 54.97 41.50 53.92 42.03 52.87 Z" />
<path fill="#268ed9" opacity="1.00" d=" M 97.61 53.18 C 98.24 52.93 99.49 52.43 100.12 52.18 C 100.10 53.53 99.83 54.91 98.99 56.00 L 98.38 56.00 C 98.19 55.29 97.80 53.88 97.61 53.18 Z" />
<path fill="#268ed9" opacity="1.00" d=" M 209.61 53.18 C 210.24 52.93 211.49 52.43 212.12 52.18 C 212.10 53.53 211.83 54.91 210.99 56.00 L 210.38 56.00 C 210.19 55.29 209.80 53.88 209.61 53.18 Z" />
</g>
<g id="#416845ff">
<path fill="#416845" opacity="1.00" d=" M 49.27 56.00 C 48.24 55.28 47.90 53.75 48.77 52.78 C 49.95 53.66 50.86 54.83 51.74 56.00 L 49.27 56.00 Z" />
<path fill="#416845" opacity="1.00" d=" M 105.26 56.00 C 104.24 55.28 103.90 53.75 104.77 52.78 C 105.95 53.66 106.85 54.83 107.73 56.00 L 105.26 56.00 Z" />
<path fill="#416845" opacity="1.00" d=" M 161.26 56.00 C 160.23 55.28 159.93 53.75 160.78 52.78 C 161.96 53.66 162.86 54.83 163.74 56.00 L 161.26 56.00 Z" />
<path fill="#416845" opacity="1.00" d=" M 217.26 56.00 C 216.22 55.28 215.94 53.76 216.78 52.78 C 217.96 53.66 218.86 54.83 219.74 56.00 L 217.26 56.00 Z" />
</g>
</svg>
