<?xml version="1.0" encoding="UTF-8" ?>
<!DOCTYPE svg PUBLIC "-//W3C//DTD SVG 1.1//EN" "http://www.w3.org/Graphics/SVG/1.1/DTD/svg11.dtd">
<svg width="224pt" height="56pt" viewBox="0 0 224 56" version="1.1" xmlns="http://www.w3.org/2000/svg">
<g id="#3d6cbefe">
<path fill="#3d6cbe" opacity="1.00" d=" M 0.00 0.00 L 25.70 0.00 C 26.67 0.93 27.60 1.88 28.52 2.85 C 23.97 4.93 18.88 4.06 14.08 4.80 C 11.95 5.20 10.13 3.85 8.32 2.97 C 9.83 5.23 10.62 7.86 10.33 10.59 C 8.73 11.69 7.08 12.69 5.41 13.68 C 4.74 14.07 4.09 14.48 3.45 14.92 C 4.76 15.52 6.13 16.09 7.59 16.15 C 7.90 16.75 8.52 17.94 8.82 18.54 C 5.87 19.48 2.87 18.15 0.00 17.44 L 0.00 0.00 Z" />
</g>
<g id="#4079cbff">
<path fill="#4079cb" opacity="1.00" d=" M 25.70 0.00 L 30.54 0.00 C 36.60 1.62 42.39 4.69 48.81 4.63 C 52.53 4.22 55.75 2.11 59.15 0.73 C 56.69 4.54 53.44 8.50 48.11 6.94 C 42.40 7.64 37.81 2.92 32.13 3.16 C 29.36 3.60 26.96 5.16 24.48 6.35 C 23.11 6.01 21.72 5.72 20.31 5.58 C 17.23 4.85 14.56 6.61 12.54 8.76 C 11.81 9.37 11.08 9.99 10.33 10.59 C 10.62 7.86 9.83 5.23 8.32 2.97 C 10.13 3.85 11.95 5.20 14.08 4.80 C 18.88 4.06 23.97 4.93 28.52 2.85 C 27.60 1.88 26.67 0.93 25.70 0.00 Z" />
</g>
<g id="#3c6bbeff">
<path fill="#3c6bbe" opacity="1.00" d=" M 30.54 0.00 L 197.08 0.00 C 195.29 1.26 193.68 3.48 191.25 3.26 C 187.00 3.00 182.74 3.37 178.63 4.50 C 178.51 5.84 178.38 7.18 178.26 8.52 C 176.25 10.14 174.27 11.79 172.23 13.36 C 171.98 13.59 171.47 14.05 171.21 14.27 C 171.51 14.53 172.11 15.04 172.40 15.30 C 174.04 16.59 175.61 17.96 177.19 19.32 C 173.77 18.34 170.51 16.78 167.02 16.11 C 163.65 16.20 160.54 17.78 157.38 18.78 C 157.02 16.90 156.67 15.03 156.33 13.15 C 160.94 11.75 165.90 11.31 170.45 13.19 C 169.15 11.54 168.12 8.89 165.59 9.22 C 161.66 9.62 155.83 8.32 154.28 13.14 C 148.23 11.20 142.42 8.48 136.23 6.96 C 132.04 5.00 127.96 7.28 124.31 9.09 C 125.08 7.15 125.18 4.04 127.82 3.77 C 132.09 3.30 136.64 5.20 140.61 2.72 C 133.88 2.00 127.07 2.19 120.36 1.24 C 121.44 3.04 122.57 4.86 123.17 6.88 C 121.05 9.27 118.38 11.07 116.00 13.17 C 117.27 12.98 118.54 12.78 119.81 12.57 L 119.16 13.49 L 118.69 14.16 L 118.35 14.63 C 117.69 15.73 116.64 16.53 115.29 16.34 C 110.75 16.19 106.51 17.93 102.26 19.25 C 101.93 17.79 101.55 16.34 101.12 14.90 C 104.99 12.98 109.25 12.08 113.57 12.27 C 113.67 11.67 113.88 10.47 113.98 9.86 C 109.49 9.68 104.99 9.70 100.52 10.05 C 99.96 11.37 99.43 12.69 98.82 13.98 C 92.71 11.48 86.44 9.35 80.60 6.25 C 81.78 5.26 82.97 4.27 84.15 3.28 C 77.54 3.29 70.91 3.12 64.35 2.23 C 65.41 4.01 66.60 5.77 67.09 7.81 C 64.84 9.80 62.47 11.65 60.01 13.37 L 59.42 13.76 C 59.71 14.18 60.28 15.02 60.56 15.44 C 62.12 16.61 63.62 17.86 65.13 19.10 C 61.22 18.37 57.00 15.88 53.11 17.98 C 51.23 18.75 49.47 19.76 47.71 20.75 C 54.06 20.29 61.12 17.88 66.69 22.14 C 62.87 24.96 58.48 26.85 54.09 28.58 C 50.90 25.02 47.25 21.91 43.37 19.13 L 43.75 18.44 C 44.52 17.53 45.29 16.63 46.09 15.76 C 49.72 14.25 53.60 13.51 57.49 13.13 C 57.62 12.60 57.87 11.56 58.00 11.04 C 53.39 10.65 48.77 10.49 44.15 10.29 C 44.05 11.64 43.96 13.00 43.47 14.28 C 37.09 11.74 30.70 9.24 24.48 6.35 C 26.96 5.16 29.36 3.60 32.13 3.16 C 37.81 2.92 42.40 7.64 48.11 6.94 C 53.44 8.50 56.69 4.54 59.15 0.73 C 55.75 2.11 52.53 4.22 48.81 4.63 C 42.39 4.69 36.60 1.62 30.54 0.00 M 94.77 0.99 C 96.20 2.80 97.66 4.58 99.13 6.36 C 103.07 4.84 107.19 5.57 111.05 6.94 C 111.47 5.75 111.89 4.55 112.30 3.36 C 106.33 3.57 100.06 4.26 94.77 0.99 M 165.17 4.17 C 164.65 5.80 165.20 6.35 166.83 5.83 C 167.35 4.20 166.79 3.65 165.17 4.17 Z" />
<path fill="#3c6bbe" opacity="1.00" d=" M 192.42 6.12 C 195.05 4.15 197.40 1.01 200.95 0.92 C 205.57 0.04 208.17 4.16 211.92 5.60 C 215.94 5.97 220.01 5.80 224.00 6.51 L 224.00 9.51 C 220.17 9.64 216.33 9.80 212.51 10.07 C 211.95 11.37 211.43 12.69 210.83 13.98 C 204.62 11.53 198.33 9.24 192.42 6.12 Z" />
<path fill="#3c6bbe" opacity="1.00" d=" M 71.92 4.78 C 74.23 3.66 76.79 4.83 79.04 5.56 C 75.20 6.54 71.38 7.62 67.59 8.77 C 69.00 7.42 70.25 5.85 71.92 4.78 Z" />
<path fill="#3c6bbe" opacity="1.00" d=" M 183.91 4.78 C 186.23 3.63 188.78 4.95 191.05 5.61 C 187.16 6.40 183.37 7.59 179.60 8.76 C 180.99 7.39 182.27 5.86 183.91 4.78 Z" />
<path fill="#3c6bbe" opacity="1.00" d=" M 12.54 8.76 C 14.56 6.61 17.23 4.85 20.31 5.58 C 17.67 6.49 15.07 7.56 12.54 8.76 Z" />
<path fill="#3c6bbe" opacity="1.00" d=" M 213.23 15.09 C 216.47 13.18 220.11 11.07 224.00 12.30 L 224.00 27.88 C 219.98 27.38 216.25 25.69 212.97 23.34 L 212.19 22.84 C 214.92 21.41 217.57 19.83 220.25 18.32 C 218.23 18.50 216.20 18.66 214.18 18.84 C 213.88 17.58 213.56 16.33 213.23 15.09 Z" />
<path fill="#3c6bbe" opacity="1.00" d=" M 0.00 38.79 C 2.48 39.63 5.22 40.04 7.39 41.59 C 9.58 43.80 10.76 46.82 13.00 48.98 C 15.33 50.41 18.15 50.66 20.75 51.33 C 19.09 52.89 17.47 54.49 15.76 56.00 L 0.00 56.00 L 0.00 38.79 M 2.34 47.91 C 2.85 49.19 3.34 50.47 3.86 51.74 C 3.29 52.54 2.73 53.34 2.18 54.14 C 5.16 54.44 8.15 54.74 11.15 54.99 C 9.02 53.59 6.91 52.16 4.80 50.73 C 5.69 49.27 6.80 47.96 7.89 46.65 C 6.02 46.97 4.17 47.43 2.34 47.91 Z" />
<path fill="#3c6bbe" opacity="1.00" d=" M 10.26 41.32 C 10.62 41.23 11.35 41.04 11.71 40.94 C 12.70 41.55 13.50 43.52 11.95 43.98 C 10.52 44.21 10.00 42.42 10.26 41.32 Z" />
<path fill="#3c6bbe" opacity="1.00" d=" M 16.87 56.00 C 19.85 54.30 22.65 51.61 26.46 52.41 C 28.27 53.33 29.75 54.75 31.33 56.00 L 16.87 56.00 Z" />
</g>
<g id="#4179cbff">
<path fill="#4179cb" opacity="1.00" d=" M 197.08 0.00 L 206.15 0.00 C 211.24 4.13 217.79 3.72 224.00 3.47 L 224.00 6.51 C 220.01 5.80 215.94 5.97 211.92 5.60 C 208.17 4.16 205.57 0.04 200.95 0.92 C 197.40 1.01 195.05 4.15 192.42 6.12 C 192.08 5.99 191.39 5.74 191.05 5.61 C 188.78 4.95 186.23 3.63 183.91 4.78 C 182.27 5.86 180.99 7.39 179.60 8.76 C 177.63 10.66 175.66 12.56 173.71 14.49 C 173.34 14.20 172.60 13.64 172.23 13.36 C 174.27 11.79 176.25 10.14 178.26 8.52 C 178.38 7.18 178.51 5.84 178.63 4.50 C 182.74 3.37 187.00 3.00 191.25 3.26 C 193.68 3.48 195.29 1.26 197.08 0.00 Z" />
</g>
<g id="#3c6abefe">
<path fill="#3c6abe" opacity="1.00" d=" M 206.15 0.00 L 224.00 0.00 L 224.00 3.47 C 217.79 3.72 211.24 4.13 206.15 0.00 Z" />
</g>
<g id="#407accff">
<path fill="#407acc" opacity="1.00" d=" M 94.77 0.99 C 100.06 4.26 106.33 3.57 112.30 3.36 C 111.89 4.55 111.47 5.75 111.05 6.94 C 107.19 5.57 103.07 4.84 99.13 6.36 C 97.66 4.58 96.20 2.80 94.77 0.99 Z" />
</g>
<g id="#4278caff">
<path fill="#4278ca" opacity="1.00" d=" M 120.36 1.24 C 127.07 2.19 133.88 2.00 140.61 2.72 C 136.64 5.20 132.09 3.30 127.82 3.77 C 125.18 4.04 125.08 7.15 124.31 9.09 C 122.77 10.21 121.30 11.40 119.81 12.57 C 118.54 12.78 117.27 12.98 116.00 13.17 C 118.38 11.07 121.05 9.27 123.17 6.88 C 122.57 4.86 121.44 3.04 120.36 1.24 Z" />
<path fill="#4278ca" opacity="1.00" d=" M 64.35 2.23 C 70.91 3.12 77.54 3.29 84.15 3.28 C 82.97 4.27 81.78 5.26 80.60 6.25 C 80.21 6.08 79.43 5.73 79.04 5.56 C 76.79 4.83 74.23 3.66 71.92 4.78 C 70.25 5.85 69.00 7.42 67.59 8.77 C 65.62 10.66 63.65 12.55 61.69 14.45 C 61.27 14.18 60.43 13.64 60.01 13.37 C 62.47 11.65 64.84 9.80 67.09 7.81 C 66.60 5.77 65.41 4.01 64.35 2.23 Z" />
</g>
<g id="#268ed9ff">
<path fill="#268ed9" opacity="1.00" d=" M 165.17 4.17 C 166.79 3.65 167.35 4.20 166.83 5.83 C 165.20 6.35 164.65 5.80 165.17 4.17 Z" />
<path fill="#268ed9" opacity="1.00" d=" M 39.30 21.14 C 40.84 20.34 42.31 19.40 43.75 18.44 L 43.37 19.13 C 42.77 20.27 42.10 21.36 41.43 22.45 C 42.74 23.11 44.05 23.76 45.33 24.47 C 39.86 22.60 36.62 27.81 33.33 31.11 C 32.84 31.09 31.87 31.04 31.39 31.02 C 32.89 29.31 34.33 27.54 35.88 25.87 C 35.20 25.89 33.85 25.94 33.17 25.96 C 30.21 25.95 27.26 25.59 24.34 25.14 L 25.30 24.68 C 25.67 24.51 26.42 24.19 26.80 24.03 C 31.05 23.43 35.61 23.66 39.30 21.14 Z" />
</g>
<g id="#747557ff">
<path fill="#747557" opacity="1.00" d=" M 12.54 8.76 C 15.07 7.56 17.67 6.49 20.31 5.58 C 21.72 5.72 23.11 6.01 24.48 6.35 C 30.70 9.24 37.09 11.74 43.47 14.28 C 43.28 14.53 42.90 15.03 42.70 15.28 C 39.61 14.18 36.52 13.05 33.46 11.87 C 31.73 11.18 30.00 10.47 28.30 9.70 C 27.35 9.11 26.32 8.74 25.22 8.58 C 23.18 8.25 21.12 7.98 19.06 7.70 C 17.84 8.27 16.62 8.87 15.42 9.49 C 13.34 10.58 11.38 11.88 9.44 13.21 C 9.02 13.50 8.17 14.08 7.75 14.38 C 6.99 14.10 6.21 13.86 5.41 13.68 C 7.08 12.69 8.73 11.69 10.33 10.59 C 11.08 9.99 11.81 9.37 12.54 8.76 Z" />
<path fill="#747557" opacity="1.00" d=" M 124.31 9.09 C 127.96 7.28 132.04 5.00 136.23 6.96 C 142.42 8.48 148.23 11.20 154.28 13.14 C 154.16 13.78 154.04 14.42 153.91 15.06 C 151.11 13.95 148.28 12.92 145.46 11.86 C 143.73 11.18 142.00 10.47 140.30 9.70 C 139.35 9.11 138.32 8.74 137.22 8.58 C 135.17 8.26 133.10 7.97 131.05 7.69 C 129.85 8.29 128.66 8.91 127.47 9.54 C 125.37 10.62 123.36 11.84 121.29 12.95 C 120.76 13.09 119.70 13.35 119.16 13.49 L 119.81 12.57 C 121.30 11.40 122.77 10.21 124.31 9.09 Z" />
</g>
<g id="#71765dff">
<path fill="#71765d" opacity="1.00" d=" M 67.59 8.77 C 71.38 7.62 75.20 6.54 79.04 5.56 C 79.43 5.73 80.21 6.08 80.60 6.25 C 86.44 9.35 92.71 11.48 98.82 13.98 C 98.69 14.26 98.41 14.80 98.28 15.08 C 95.35 13.99 92.39 12.97 89.46 11.87 C 87.72 11.20 85.98 10.50 84.29 9.70 C 83.36 9.06 82.34 8.68 81.24 8.55 C 79.19 8.30 77.13 8.08 75.08 7.93 C 73.80 8.32 72.55 8.79 71.34 9.36 C 69.26 10.38 67.36 11.72 65.63 13.24 C 65.29 13.56 64.61 14.20 64.27 14.52 C 63.96 14.82 63.35 15.42 63.05 15.72 C 62.62 15.59 61.77 15.34 61.35 15.22 L 61.69 14.45 C 63.65 12.55 65.62 10.66 67.59 8.77 Z" />
<path fill="#71765d" opacity="1.00" d=" M 179.60 8.76 C 183.37 7.59 187.16 6.40 191.05 5.61 C 191.39 5.74 192.08 5.99 192.42 6.12 C 198.33 9.24 204.62 11.53 210.83 13.98 C 210.69 14.25 210.42 14.81 210.28 15.08 C 207.35 13.99 204.39 12.97 201.46 11.87 C 199.71 11.20 197.98 10.50 196.29 9.70 C 195.35 9.07 194.34 8.68 193.24 8.55 C 191.19 8.30 189.12 8.08 187.08 7.93 C 185.80 8.32 184.55 8.79 183.34 9.36 C 181.26 10.38 179.36 11.72 177.62 13.24 C 177.29 13.56 176.61 14.20 176.27 14.52 C 175.97 14.82 175.35 15.42 175.05 15.71 C 174.60 15.59 173.71 15.33 173.27 15.20 L 173.71 14.49 C 175.66 12.56 177.63 10.66 179.60 8.76 Z" />
</g>
<g id="#96c16fff">
<path fill="#96c16f" opacity="1.00" d=" M 19.06 7.70 C 21.12 7.98 23.18 8.25 25.22 8.58 C 24.79 10.02 26.01 11.36 27.50 10.92 C 26.70 11.89 25.89 12.86 25.10 13.83 C 27.33 13.74 29.56 13.64 31.79 13.58 C 32.90 13.54 34.01 13.50 35.12 13.45 C 35.09 13.86 35.03 14.69 35.00 15.10 C 30.52 16.57 25.81 17.18 21.13 17.66 C 21.64 15.96 22.17 14.27 22.68 12.58 C 18.37 14.02 13.91 15.15 9.44 13.21 C 11.38 11.88 13.34 10.58 15.42 9.49 C 18.40 11.03 21.65 11.19 23.89 8.35 C 22.28 8.11 20.68 7.89 19.06 7.70 Z" />
<path fill="#96c16f" opacity="1.00" d=" M 75.08 7.93 C 77.13 8.08 79.19 8.30 81.24 8.55 C 80.81 9.98 82.01 11.33 83.49 10.90 C 82.69 11.88 81.89 12.85 81.10 13.84 C 83.33 13.74 85.56 13.64 87.79 13.58 C 88.90 13.54 90.01 13.50 91.12 13.45 C 91.09 13.86 91.03 14.69 91.00 15.10 C 86.52 16.57 81.81 17.18 77.13 17.66 C 77.64 15.96 78.17 14.27 78.68 12.58 C 74.43 13.99 70.05 15.17 65.63 13.24 C 67.36 11.72 69.26 10.38 71.34 9.36 C 74.31 11.02 77.69 11.31 79.87 8.26 C 78.28 8.12 76.68 8.01 75.08 7.93 Z" />
<path fill="#96c16f" opacity="1.00" d=" M 131.05 7.69 C 133.10 7.97 135.17 8.26 137.22 8.58 C 136.79 10.02 138.01 11.36 139.50 10.92 C 138.70 11.89 137.89 12.86 137.10 13.83 C 139.33 13.74 141.56 13.64 143.79 13.58 C 144.90 13.54 146.01 13.50 147.13 13.45 C 147.10 13.86 147.03 14.69 147.00 15.10 C 142.52 16.57 137.81 17.18 133.13 17.66 C 133.64 15.96 134.17 14.27 134.68 12.58 C 130.32 14.10 125.79 15.06 121.29 12.95 C 123.36 11.84 125.37 10.62 127.47 9.54 C 130.45 11.02 133.66 11.16 135.89 8.36 C 134.28 8.11 132.67 7.88 131.05 7.69 Z" />
<path fill="#96c16f" opacity="1.00" d=" M 187.08 7.93 C 189.12 8.08 191.19 8.30 193.24 8.55 C 192.81 9.98 194.01 11.33 195.49 10.90 C 194.69 11.88 193.89 12.85 193.10 13.84 C 195.33 13.74 197.56 13.64 199.79 13.58 C 200.90 13.54 202.01 13.50 203.12 13.45 C 203.09 13.86 203.03 14.69 203.00 15.10 C 198.52 16.57 193.81 17.18 189.13 17.66 C 189.64 15.96 190.17 14.27 190.68 12.58 C 186.43 13.99 182.05 15.17 177.62 13.24 C 179.36 11.72 181.26 10.38 183.34 9.36 C 186.31 11.02 189.69 11.31 191.87 8.26 C 190.28 8.12 188.68 8.01 187.08 7.93 Z" />
</g>
<g id="#a4d84eff">
<path fill="#a4d84e" opacity="1.00" d=" M 15.42 9.49 C 16.62 8.87 17.84 8.27 19.06 7.70 C 20.68 7.89 22.28 8.11 23.89 8.35 C 21.65 11.19 18.40 11.03 15.42 9.49 Z" />
<path fill="#a4d84e" opacity="1.00" d=" M 71.34 9.36 C 72.55 8.79 73.80 8.32 75.08 7.93 C 76.68 8.01 78.28 8.12 79.87 8.26 C 77.69 11.31 74.31 11.02 71.34 9.36 Z" />
<path fill="#a4d84e" opacity="1.00" d=" M 127.47 9.54 C 128.66 8.91 129.85 8.29 131.05 7.69 C 132.67 7.88 134.28 8.11 135.89 8.36 C 133.66 11.16 130.45 11.02 127.47 9.54 Z" />
<path fill="#a4d84e" opacity="1.00" d=" M 183.34 9.36 C 184.55 8.79 185.80 8.32 187.08 7.93 C 188.68 8.01 190.28 8.12 191.87 8.26 C 189.69 11.31 186.31 11.02 183.34 9.36 Z" />
<path fill="#a4d84e" opacity="1.00" d=" M 41.45 24.99 C 41.95 25.23 42.94 25.71 43.44 25.95 C 41.78 26.67 40.11 27.38 38.50 28.22 C 39.51 27.17 40.48 26.08 41.45 24.99 Z" />
<path fill="#a4d84e" opacity="1.00" d=" M 97.42 24.96 C 97.93 25.21 98.94 25.70 99.44 25.95 C 97.78 26.67 96.11 27.38 94.51 28.23 C 95.50 27.16 96.46 26.06 97.42 24.96 Z" />
<path fill="#a4d84e" opacity="1.00" d=" M 153.37 25.02 C 153.89 25.24 154.93 25.69 155.45 25.92 C 153.79 26.65 152.10 27.35 150.52 28.23 C 151.48 27.17 152.42 26.09 153.37 25.02 Z" />
<path fill="#a4d84e" opacity="1.00" d=" M 209.42 24.97 C 209.93 25.21 210.94 25.70 211.44 25.94 C 209.78 26.67 208.11 27.39 206.51 28.23 C 207.50 27.16 208.46 26.06 209.42 24.97 Z" />
<path fill="#a4d84e" opacity="1.00" d=" M 13.04 30.88 C 13.92 29.65 15.75 27.96 17.25 29.29 C 16.76 31.09 14.58 31.51 13.04 30.88 Z" />
<path fill="#a4d84e" opacity="1.00" d=" M 69.03 30.88 C 69.92 29.65 71.76 27.97 73.25 29.29 C 72.76 31.10 70.57 31.50 69.03 30.88 Z" />
<path fill="#a4d84e" opacity="1.00" d=" M 125.04 30.88 C 125.93 29.67 127.75 27.96 129.25 29.28 C 128.77 31.10 126.58 31.51 125.04 30.88 Z" />
<path fill="#a4d84e" opacity="1.00" d=" M 181.03 30.88 C 181.92 29.65 183.75 27.97 185.25 29.29 C 184.76 31.10 182.57 31.50 181.03 30.88 Z" />
</g>
<g id="#407dcaff">
<path fill="#407dca" opacity="1.00" d=" M 165.59 9.22 C 168.12 8.89 169.15 11.54 170.45 13.19 C 165.90 11.31 160.94 11.75 156.33 13.15 C 156.67 15.03 157.02 16.90 157.38 18.78 C 160.54 17.78 163.65 16.20 167.02 16.11 C 170.51 16.78 173.77 18.34 177.19 19.32 C 175.61 17.96 174.04 16.59 172.40 15.30 L 173.27 15.20 C 173.71 15.33 174.60 15.59 175.05 15.71 C 175.50 15.90 176.40 16.28 176.85 16.47 C 177.47 16.95 178.71 17.92 179.33 18.40 C 179.61 18.65 180.18 19.15 180.46 19.40 C 184.30 21.75 188.69 22.93 192.96 24.25 C 194.07 24.61 195.17 25.00 196.29 25.34 C 193.31 26.22 190.40 27.31 187.52 28.47 C 186.58 28.20 185.64 27.92 184.70 27.65 C 186.80 26.89 188.95 26.25 191.08 25.59 C 186.88 24.61 182.87 23.05 178.95 21.27 C 179.43 22.31 179.91 23.35 180.40 24.40 C 175.14 27.12 169.63 29.58 163.55 28.97 C 162.09 32.89 163.83 36.04 166.81 38.18 C 159.25 35.67 151.26 36.77 143.45 36.37 C 142.90 37.13 142.35 37.88 141.79 38.63 C 141.34 38.51 140.43 38.27 139.97 38.15 C 139.44 36.88 138.89 35.62 138.35 34.36 C 140.03 33.34 141.72 32.34 143.31 31.18 L 143.98 31.95 C 145.14 33.48 146.57 35.44 148.77 35.02 C 150.54 34.86 152.30 34.63 154.04 34.26 C 155.76 33.50 157.46 32.68 159.14 31.80 C 158.04 33.08 157.03 34.43 156.03 35.78 C 158.71 34.46 160.97 32.50 162.62 30.01 C 160.97 27.92 159.25 25.89 157.38 23.99 L 156.76 23.56 C 163.55 27.76 172.29 27.57 178.69 22.72 C 172.49 17.58 160.95 15.56 155.91 23.15 C 154.71 23.02 153.50 22.97 152.30 22.90 C 153.19 21.53 154.09 20.15 154.98 18.78 C 155.57 17.91 156.14 17.03 156.69 16.14 C 155.50 16.75 154.30 17.35 153.11 17.97 L 153.34 17.19 C 153.49 16.66 153.77 15.59 153.91 15.06 C 154.04 14.42 154.16 13.78 154.28 13.14 C 155.83 8.32 161.66 9.62 165.59 9.22 Z" />
</g>
<g id="#78a256ff">
<path fill="#78a256" opacity="1.00" d=" M 25.22 8.58 C 26.32 8.74 27.35 9.11 28.30 9.70 C 28.10 10.01 27.70 10.61 27.50 10.92 C 26.01 11.36 24.79 10.02 25.22 8.58 Z" />
<path fill="#78a256" opacity="1.00" d=" M 81.24 8.55 C 82.34 8.68 83.36 9.06 84.29 9.70 C 84.09 10.00 83.69 10.60 83.49 10.90 C 82.01 11.33 80.81 9.98 81.24 8.55 Z" />
<path fill="#78a256" opacity="1.00" d=" M 137.22 8.58 C 138.32 8.74 139.35 9.11 140.30 9.70 C 140.10 10.00 139.70 10.61 139.50 10.92 C 138.01 11.36 136.79 10.02 137.22 8.58 Z" />
<path fill="#78a256" opacity="1.00" d=" M 193.24 8.55 C 194.34 8.68 195.35 9.07 196.29 9.70 C 196.09 10.00 195.69 10.60 195.49 10.90 C 194.01 11.33 192.81 9.98 193.24 8.55 Z" />
</g>
<g id="#417dc9ff">
<path fill="#417dc9" opacity="1.00" d=" M 100.52 10.05 C 104.99 9.70 109.49 9.68 113.98 9.86 C 113.88 10.47 113.67 11.67 113.57 12.27 C 109.25 12.08 104.99 12.98 101.12 14.90 C 101.55 16.34 101.93 17.79 102.26 19.25 C 106.51 17.93 110.75 16.19 115.29 16.34 C 116.64 16.53 117.69 15.73 118.35 14.63 C 119.04 15.62 120.01 16.18 121.25 16.31 C 121.73 16.83 122.69 17.85 123.17 18.36 C 124.15 19.25 125.12 20.14 126.12 20.99 C 125.10 20.61 124.07 20.24 123.04 19.87 C 123.46 20.81 123.91 21.74 124.37 22.66 C 117.57 25.22 108.48 27.56 106.58 35.65 C 107.91 36.93 109.45 37.95 110.93 39.05 C 102.71 37.09 94.11 37.25 85.78 38.39 C 85.31 38.33 84.36 38.22 83.89 38.16 C 83.66 37.14 83.44 36.12 83.22 35.11 C 84.28 33.61 85.34 32.09 86.54 30.70 C 88.22 32.85 90.30 34.73 93.00 35.48 C 94.74 35.14 96.49 34.79 98.19 34.28 C 100.51 33.01 102.67 31.48 104.79 29.91 C 105.43 30.54 106.07 31.17 106.71 31.80 C 105.24 29.01 103.64 26.26 101.58 23.86 L 100.94 23.40 C 104.21 24.86 107.82 29.10 111.54 26.60 C 115.09 24.70 118.67 22.88 122.33 21.20 C 115.82 16.24 106.31 18.22 100.17 22.95 C 98.84 22.88 97.51 22.89 96.19 22.89 C 97.07 21.63 97.97 20.38 98.87 19.13 C 99.44 18.40 99.85 17.58 100.10 16.68 C 98.97 16.96 97.84 17.28 96.76 17.71 L 97.18 17.06 C 97.46 16.57 98.01 15.57 98.28 15.08 C 98.41 14.80 98.69 14.26 98.82 13.98 C 99.43 12.69 99.96 11.37 100.52 10.05 M 103.28 33.06 C 102.37 33.15 100.50 33.54 100.80 34.80 C 102.09 36.57 106.51 33.44 103.28 33.06 Z" />
</g>
<g id="#417cc9ff">
<path fill="#417cc9" opacity="1.00" d=" M 212.51 10.07 C 216.33 9.80 220.17 9.64 224.00 9.51 L 224.00 12.30 C 220.11 11.07 216.47 13.18 213.23 15.09 C 213.56 16.33 213.88 17.58 214.18 18.84 C 216.20 18.66 218.23 18.50 220.25 18.32 C 217.57 19.83 214.92 21.41 212.19 22.84 C 210.84 22.90 209.48 22.98 208.14 23.06 C 209.02 21.74 209.95 20.43 210.87 19.13 C 211.43 18.39 211.84 17.58 212.10 16.68 C 210.96 16.95 209.84 17.28 208.75 17.71 L 209.17 17.06 C 209.45 16.56 210.00 15.58 210.28 15.08 C 210.42 14.81 210.69 14.25 210.83 13.98 C 211.43 12.69 211.95 11.37 212.51 10.07 Z" />
</g>
<g id="#a2d551ff">
<path fill="#a2d551" opacity="1.00" d=" M 28.30 9.70 C 30.00 10.47 31.73 11.18 33.46 11.87 C 33.04 12.29 32.21 13.15 31.79 13.58 C 29.56 13.64 27.33 13.74 25.10 13.83 C 25.89 12.86 26.70 11.89 27.50 10.92 C 27.70 10.61 28.10 10.01 28.30 9.70 Z" />
<path fill="#a2d551" opacity="1.00" d=" M 84.29 9.70 C 85.98 10.50 87.72 11.20 89.46 11.87 C 89.04 12.30 88.21 13.15 87.79 13.58 C 85.56 13.64 83.33 13.74 81.10 13.84 C 81.89 12.85 82.69 11.88 83.49 10.90 C 83.69 10.60 84.09 10.00 84.29 9.70 Z" />
<path fill="#a2d551" opacity="1.00" d=" M 140.30 9.70 C 142.00 10.47 143.73 11.18 145.46 11.86 C 145.05 12.29 144.21 13.15 143.79 13.58 C 141.56 13.64 139.33 13.74 137.10 13.83 C 137.89 12.86 138.70 11.89 139.50 10.92 C 139.70 10.61 140.10 10.00 140.30 9.70 Z" />
<path fill="#a2d551" opacity="1.00" d=" M 196.29 9.70 C 197.98 10.50 199.71 11.20 201.46 11.87 C 201.04 12.30 200.21 13.15 199.79 13.58 C 197.56 13.64 195.33 13.74 193.10 13.84 C 193.89 12.85 194.69 11.88 195.49 10.90 C 195.69 10.60 196.09 10.00 196.29 9.70 Z" />
</g>
<g id="#437bcaff">
<path fill="#437bca" opacity="1.00" d=" M 44.15 10.29 C 48.77 10.49 53.39 10.65 58.00 11.04 C 57.87 11.56 57.62 12.60 57.49 13.13 C 53.60 13.51 49.72 14.25 46.09 15.76 C 44.34 16.39 42.60 17.05 40.86 17.71 L 41.28 17.17 C 41.63 16.70 42.35 15.75 42.70 15.28 C 42.90 15.03 43.28 14.53 43.47 14.28 C 43.96 13.00 44.05 11.64 44.15 10.29 Z" />
</g>
<g id="#7fa95dff">
<path fill="#7fa95d" opacity="1.00" d=" M 9.44 13.21 C 13.91 15.15 18.37 14.02 22.68 12.58 C 22.17 14.27 21.64 15.96 21.13 17.66 C 25.81 17.18 30.52 16.57 35.00 15.10 C 34.97 15.75 34.90 17.04 34.86 17.69 C 31.65 18.25 28.82 19.92 26.34 21.97 C 24.41 21.71 22.49 21.36 20.56 21.13 L 20.35 20.49 C 20.15 19.89 19.75 18.70 19.55 18.10 C 15.61 16.90 11.68 15.63 7.75 14.38 C 8.17 14.08 9.02 13.50 9.44 13.21 Z" />
<path fill="#7fa95d" opacity="1.00" d=" M 65.63 13.24 C 70.05 15.17 74.43 13.99 78.68 12.58 C 78.17 14.27 77.64 15.96 77.13 17.66 C 81.81 17.18 86.52 16.57 91.00 15.10 C 90.97 15.76 90.90 17.07 90.86 17.73 C 87.69 18.26 84.90 19.90 82.38 21.83 C 80.43 21.70 78.50 21.40 76.55 21.18 L 76.34 20.52 C 76.15 19.91 75.75 18.71 75.56 18.10 C 71.77 16.98 68.05 15.66 64.27 14.52 C 64.61 14.20 65.29 13.56 65.63 13.24 Z" />
<path fill="#7fa95d" opacity="1.00" d=" M 177.62 13.24 C 182.05 15.17 186.43 13.99 190.68 12.58 C 190.17 14.27 189.64 15.96 189.13 17.66 C 193.81 17.18 198.52 16.57 203.00 15.10 C 202.97 15.76 202.90 17.07 202.86 17.73 C 199.69 18.25 196.89 19.90 194.38 21.84 C 192.43 21.69 190.49 21.38 188.54 21.18 L 188.34 20.55 C 188.14 19.94 187.75 18.71 187.56 18.10 C 183.77 16.98 180.05 15.66 176.27 14.52 C 176.61 14.20 177.29 13.56 177.62 13.24 Z" />
</g>
<g id="#75a055ff">
<path fill="#75a055" opacity="1.00" d=" M 33.46 11.87 C 36.52 13.05 39.61 14.18 42.70 15.28 C 42.35 15.75 41.63 16.70 41.28 17.17 C 39.14 17.33 37.00 17.47 34.86 17.69 C 34.90 17.04 34.97 15.75 35.00 15.10 C 35.03 14.69 35.09 13.86 35.12 13.45 C 34.01 13.50 32.90 13.54 31.79 13.58 C 32.21 13.15 33.04 12.29 33.46 11.87 Z" />
<path fill="#75a055" opacity="1.00" d=" M 89.46 11.87 C 92.39 12.97 95.35 13.99 98.28 15.08 C 98.01 15.57 97.46 16.57 97.18 17.06 C 95.07 17.26 92.96 17.45 90.86 17.73 C 90.90 17.07 90.97 15.76 91.00 15.10 C 91.03 14.69 91.09 13.86 91.12 13.45 C 90.01 13.50 88.90 13.54 87.79 13.58 C 88.21 13.15 89.04 12.30 89.46 11.87 Z" />
<path fill="#75a055" opacity="1.00" d=" M 145.46 11.86 C 148.28 12.92 151.11 13.95 153.91 15.06 C 153.77 15.59 153.49 16.66 153.34 17.19 C 151.17 17.32 149.00 17.46 146.85 17.73 C 146.88 17.07 146.96 15.76 147.00 15.10 C 147.03 14.69 147.10 13.86 147.13 13.45 C 146.01 13.50 144.90 13.54 143.79 13.58 C 144.21 13.15 145.05 12.29 145.46 11.86 Z" />
<path fill="#75a055" opacity="1.00" d=" M 201.46 11.87 C 204.39 12.97 207.35 13.99 210.28 15.08 C 210.00 15.58 209.45 16.56 209.17 17.06 C 207.06 17.26 204.96 17.45 202.86 17.73 C 202.90 17.07 202.97 15.76 203.00 15.10 C 203.03 14.69 203.09 13.86 203.12 13.45 C 202.01 13.50 200.90 13.54 199.79 13.58 C 200.21 13.15 201.04 12.30 201.46 11.87 Z" />
</g>
<g id="#7fa85eff">
<path fill="#7fa85e" opacity="1.00" d=" M 121.29 12.95 C 125.79 15.06 130.32 14.10 134.68 12.58 C 134.17 14.27 133.64 15.96 133.13 17.66 C 137.81 17.18 142.52 16.57 147.00 15.10 C 146.96 15.76 146.88 17.07 146.85 17.73 C 143.71 18.48 140.78 19.85 138.04 21.52 C 137.70 21.82 137.02 22.42 136.68 22.73 L 136.06 22.37 C 134.91 21.55 133.60 21.03 132.29 20.52 L 131.75 20.14 L 131.83 19.60 C 133.87 18.53 131.98 15.99 130.74 18.21 C 130.00 18.02 128.52 17.64 127.78 17.45 C 125.55 16.65 123.35 15.75 121.14 14.88 C 120.52 14.70 119.30 14.34 118.69 14.16 L 119.16 13.49 C 119.70 13.35 120.76 13.09 121.29 12.95 Z" />
</g>
<g id="#1795f5fe">
<path fill="#1795f5" opacity="1.00" d=" M 3.45 14.92 C 4.09 14.48 4.74 14.07 5.41 13.68 C 6.21 13.86 6.99 14.10 7.75 14.38 C 7.83 14.71 7.99 15.37 8.07 15.70 L 7.59 16.15 C 6.13 16.09 4.76 15.52 3.45 14.92 Z" />
</g>
<g id="#3473c8ff">
<path fill="#3473c8" opacity="1.00" d=" M 7.75 14.38 C 11.68 15.63 15.61 16.90 19.55 18.10 C 19.75 18.70 20.15 19.89 20.35 20.49 C 18.95 18.80 16.55 18.56 14.62 19.39 C 14.18 18.92 13.30 17.97 12.86 17.50 C 12.06 16.60 10.93 16.16 9.74 16.08 C 9.33 15.98 8.49 15.80 8.07 15.70 C 7.99 15.37 7.83 14.71 7.75 14.38 Z" />
</g>
<g id="#119cffff">
<path fill="#119cff" opacity="1.00" d=" M 59.42 13.76 L 60.01 13.37 C 60.43 13.64 61.27 14.18 61.69 14.45 L 61.35 15.22 L 60.56 15.44 C 60.28 15.02 59.71 14.18 59.42 13.76 Z" />
<path fill="#119cff" opacity="1.00" d=" M 118.69 14.16 C 119.30 14.34 120.52 14.70 121.14 14.88 L 121.52 15.69 L 121.25 16.31 C 120.01 16.18 119.04 15.62 118.35 14.63 L 118.69 14.16 Z" />
<path fill="#119cff" opacity="1.00" d=" M 171.21 14.27 C 171.47 14.05 171.98 13.59 172.23 13.36 C 172.60 13.64 173.34 14.20 173.71 14.49 L 173.27 15.20 L 172.40 15.30 C 172.11 15.04 171.51 14.53 171.21 14.27 Z" />
<path fill="#119cff" opacity="1.00" d=" M 23.88 33.95 C 25.11 34.58 26.51 35.78 26.02 37.35 C 24.35 37.22 23.92 35.32 23.88 33.95 Z" />
<path fill="#119cff" opacity="1.00" d=" M 20.18 46.66 C 21.70 46.10 23.60 46.27 24.66 47.63 L 24.67 48.40 L 24.03 48.51 C 22.68 48.04 21.43 47.34 20.18 46.66 Z" />
</g>
<g id="#3b77c9ff">
<path fill="#3b77c9" opacity="1.00" d=" M 64.27 14.52 C 68.05 15.66 71.77 16.98 75.56 18.10 C 75.75 18.71 76.15 19.91 76.34 20.52 C 74.98 18.81 72.58 18.55 70.67 19.41 C 70.26 18.92 69.44 17.95 69.03 17.46 C 68.07 16.04 66.36 15.73 64.86 16.46 C 64.41 16.28 63.50 15.91 63.05 15.72 C 63.35 15.42 63.96 14.82 64.27 14.52 Z" />
<path fill="#3b77c9" opacity="1.00" d=" M 176.27 14.52 C 180.05 15.66 183.77 16.98 187.56 18.10 C 187.75 18.71 188.14 19.94 188.34 20.55 C 186.94 19.06 184.81 18.61 182.86 18.99 C 182.38 18.61 181.40 17.86 180.91 17.48 C 179.94 16.15 178.33 15.81 176.85 16.47 C 176.40 16.28 175.50 15.90 175.05 15.71 C 175.35 15.42 175.97 14.82 176.27 14.52 Z" />
</g>
<g id="#3f7ecbff">
<path fill="#3f7ecb" opacity="1.00" d=" M 60.56 15.44 L 61.35 15.22 C 61.77 15.34 62.62 15.59 63.05 15.72 C 63.50 15.91 64.41 16.28 64.86 16.46 C 65.50 16.91 66.78 17.80 67.41 18.24 C 67.86 18.59 68.74 19.29 69.19 19.64 C 72.89 21.69 76.95 22.95 80.95 24.26 C 82.06 24.63 83.17 25.01 84.29 25.34 C 81.31 26.22 78.40 27.31 75.52 28.47 C 74.58 28.20 73.64 27.92 72.70 27.65 C 74.80 26.89 76.95 26.25 79.08 25.60 C 74.88 24.61 70.87 23.05 66.95 21.27 C 67.44 22.34 67.94 23.41 68.44 24.47 C 61.79 27.54 53.62 29.14 50.03 36.32 C 51.69 37.58 53.36 38.85 55.05 40.09 C 47.05 38.12 38.72 37.31 30.51 38.22 C 29.00 38.02 27.51 37.70 26.02 37.35 C 26.51 35.78 25.11 34.58 23.88 33.95 C 22.91 32.57 21.96 31.18 20.92 29.86 C 22.60 30.77 24.25 31.75 25.88 32.74 C 27.90 30.09 29.96 27.25 33.17 25.96 C 33.85 25.94 35.20 25.89 35.88 25.87 C 34.33 27.54 32.89 29.31 31.39 31.02 L 30.91 31.54 L 31.11 32.06 C 32.96 39.35 42.88 34.85 48.03 35.27 C 51.08 33.28 45.25 32.79 44.00 34.30 C 45.57 32.82 47.10 31.30 48.64 29.78 C 49.33 30.46 50.02 31.14 50.72 31.81 C 49.31 29.14 48.14 26.01 45.33 24.47 C 44.05 23.76 42.74 23.11 41.43 22.45 C 42.10 21.36 42.77 20.27 43.37 19.13 C 47.25 21.91 50.90 25.02 54.09 28.58 C 58.48 26.85 62.87 24.96 66.69 22.14 C 61.12 17.88 54.06 20.29 47.71 20.75 C 49.47 19.76 51.23 18.75 53.11 17.98 C 57.00 15.88 61.22 18.37 65.13 19.10 C 63.62 17.86 62.12 16.61 60.56 15.44 Z" />
</g>
<g id="#4170b2ff">
<path fill="#4170b2" opacity="1.00" d=" M 121.14 14.88 C 123.35 15.75 125.55 16.65 127.78 17.45 C 127.38 17.52 126.56 17.65 126.15 17.72 C 124.64 16.97 123.11 16.26 121.52 15.69 L 121.14 14.88 Z" />
</g>
<g id="#6eb2e8ff">
<path fill="#6eb2e8" opacity="1.00" d=" M 7.59 16.15 L 8.07 15.70 C 8.49 15.80 9.33 15.98 9.74 16.08 C 9.86 16.50 10.10 17.35 10.22 17.78 C 9.87 17.97 9.17 18.35 8.82 18.54 C 8.52 17.94 7.90 16.75 7.59 16.15 Z" />
</g>
<g id="#38a5f5ff">
<path fill="#38a5f5" opacity="1.00" d=" M 9.74 16.08 C 10.93 16.16 12.06 16.60 12.86 17.50 C 12.43 17.71 11.57 18.12 11.14 18.32 L 10.22 17.78 C 10.10 17.35 9.86 16.50 9.74 16.08 Z" />
</g>
<g id="#8cb7dbff">
<path fill="#8cb7db" opacity="1.00" d=" M 40.86 17.71 C 42.60 17.05 44.34 16.39 46.09 15.76 C 45.29 16.63 44.52 17.53 43.75 18.44 C 42.31 19.40 40.84 20.34 39.30 21.14 C 38.68 21.22 37.43 21.39 36.81 21.47 C 37.16 21.27 37.87 20.87 38.23 20.67 C 39.57 20.27 40.24 19.37 40.23 17.97 L 40.86 17.71 Z" />
</g>
<g id="#30a3f7ff">
<path fill="#30a3f7" opacity="1.00" d=" M 64.86 16.46 C 66.36 15.73 68.07 16.04 69.03 17.46 C 68.63 17.66 67.82 18.05 67.41 18.24 C 66.78 17.80 65.50 16.91 64.86 16.46 Z" />
<path fill="#30a3f7" opacity="1.00" d=" M 176.85 16.47 C 178.33 15.81 179.94 16.15 180.91 17.48 C 180.52 17.71 179.72 18.17 179.33 18.40 C 178.71 17.92 177.47 16.95 176.85 16.47 Z" />
</g>
<g id="#83b5defe">
<path fill="#83b5de" opacity="1.00" d=" M 96.76 17.71 C 97.84 17.28 98.97 16.96 100.10 16.68 C 99.85 17.58 99.44 18.40 98.87 19.13 C 97.89 19.47 96.90 19.72 95.87 19.86 C 95.98 19.49 96.19 18.74 96.29 18.36 L 96.76 17.71 Z" />
<path fill="#83b5de" opacity="1.00" d=" M 208.75 17.71 C 209.84 17.28 210.96 16.95 212.10 16.68 C 211.84 17.58 211.43 18.39 210.87 19.13 C 209.89 19.47 208.89 19.71 207.87 19.86 C 207.98 19.49 208.19 18.74 208.29 18.37 L 208.75 17.71 Z" />
<path fill="#83b5de" opacity="1.00" d=" M 65.38 36.56 C 67.20 37.17 69.00 38.06 70.26 39.54 L 69.97 40.10 L 69.27 40.20 C 67.42 39.73 66.05 38.31 65.38 36.56 Z" />
<path fill="#83b5de" opacity="1.00" d=" M 121.19 36.50 C 123.09 37.15 125.00 38.01 126.30 39.62 C 126.03 39.74 125.49 39.98 125.21 40.10 C 123.19 39.89 122.06 38.12 121.19 36.50 Z" />
<path fill="#83b5de" opacity="1.00" d=" M 177.38 36.56 C 179.20 37.17 181.00 38.06 182.26 39.54 L 181.97 40.10 L 181.27 40.20 C 179.42 39.73 178.05 38.31 177.38 36.56 Z" />
</g>
<g id="#93bbdfff">
<path fill="#93bbdf" opacity="1.00" d=" M 121.52 15.69 C 123.11 16.26 124.64 16.97 126.15 17.72 C 125.41 17.88 123.92 18.20 123.17 18.36 C 122.69 17.85 121.73 16.83 121.25 16.31 L 121.52 15.69 Z" />
</g>
<g id="#75b2e2ff">
<path fill="#75b2e2" opacity="1.00" d=" M 153.11 17.97 C 154.30 17.35 155.50 16.75 156.69 16.14 C 156.14 17.03 155.57 17.91 154.98 18.78 C 154.03 19.42 153.08 20.05 152.12 20.67 C 152.31 20.13 152.71 19.04 152.90 18.50 L 153.11 17.97 Z" />
</g>
<g id="#3d7fcdff">
<path fill="#3d7fcd" opacity="1.00" d=" M 0.00 17.44 C 2.87 18.15 5.87 19.48 8.82 18.54 C 9.17 18.35 9.87 17.97 10.22 17.78 L 11.14 18.32 C 11.61 18.63 12.57 19.26 13.04 19.58 C 16.37 21.45 19.94 22.83 23.53 24.10 C 23.97 24.24 24.85 24.53 25.30 24.68 L 24.34 25.14 C 19.81 24.53 15.39 23.31 10.98 22.15 C 11.44 23.66 11.89 25.18 12.35 26.70 C 8.26 28.20 4.13 29.57 0.00 30.93 L 0.00 28.77 C 3.92 27.80 7.91 26.64 11.07 24.00 C 7.90 21.37 3.93 20.18 0.00 19.24 L 0.00 17.44 Z" />
</g>
<g id="#cdca8dff">
<path fill="#cdca8d" opacity="1.00" d=" M 34.86 17.69 C 37.00 17.47 39.14 17.33 41.28 17.17 L 40.86 17.71 L 40.23 17.97 C 38.81 18.31 38.14 19.21 38.23 20.67 C 37.87 20.87 37.16 21.27 36.81 21.47 C 33.37 22.18 29.83 22.68 26.34 21.97 C 28.82 19.92 31.65 18.25 34.86 17.69 Z" />
</g>
<g id="#cdca8eff">
<path fill="#cdca8e" opacity="1.00" d=" M 90.86 17.73 C 92.96 17.45 95.07 17.26 97.18 17.06 L 96.76 17.71 L 96.29 18.36 C 95.02 17.95 94.26 18.40 94.02 19.71 C 93.93 20.10 93.76 20.88 93.67 21.26 C 89.91 21.46 86.16 22.18 82.38 21.83 C 84.90 19.90 87.69 18.26 90.86 17.73 Z" />
<path fill="#cdca8e" opacity="1.00" d=" M 202.86 17.73 C 204.96 17.45 207.06 17.26 209.17 17.06 L 208.75 17.71 L 208.29 18.37 C 207.02 17.95 206.26 18.40 206.02 19.71 C 205.93 20.10 205.76 20.88 205.67 21.27 C 201.91 21.46 198.16 22.18 194.38 21.84 C 196.89 19.90 199.69 18.25 202.86 17.73 Z" />
</g>
<g id="#4d7a9aff">
<path fill="#4d7a9a" opacity="1.00" d=" M 130.74 18.21 C 131.98 15.99 133.87 18.53 131.83 19.60 C 131.56 19.25 131.02 18.56 130.74 18.21 Z" />
</g>
<g id="#cfcb8aff">
<path fill="#cfcb8a" opacity="1.00" d=" M 146.85 17.73 C 149.00 17.46 151.17 17.32 153.34 17.19 L 153.11 17.97 L 152.90 18.50 C 152.44 18.62 151.53 18.87 151.07 19.00 C 147.68 19.89 144.31 20.84 140.98 21.95 C 140.66 22.06 140.01 22.28 139.68 22.38 C 139.27 22.17 138.45 21.74 138.04 21.52 C 140.78 19.85 143.71 18.48 146.85 17.73 Z" />
</g>
<g id="#adc2d9ff">
<path fill="#adc2d9" opacity="1.00" d=" M 11.14 18.32 C 11.57 18.12 12.43 17.71 12.86 17.50 C 13.30 17.97 14.18 18.92 14.62 19.39 C 14.23 19.44 13.44 19.53 13.04 19.58 C 12.57 19.26 11.61 18.63 11.14 18.32 Z" />
<path fill="#adc2d9" opacity="1.00" d=" M 67.41 18.24 C 67.82 18.05 68.63 17.66 69.03 17.46 C 69.44 17.95 70.26 18.92 70.67 19.41 C 70.30 19.47 69.56 19.58 69.19 19.64 C 68.74 19.29 67.86 18.59 67.41 18.24 Z" />
<path fill="#adc2d9" opacity="1.00" d=" M 179.33 18.40 C 179.72 18.17 180.52 17.71 180.91 17.48 C 181.40 17.86 182.38 18.61 182.86 18.99 C 182.26 19.09 181.06 19.29 180.46 19.40 C 180.18 19.15 179.61 18.65 179.33 18.40 Z" />
<path fill="#adc2d9" opacity="1.00" d=" M 93.67 21.26 C 93.76 20.88 93.93 20.10 94.02 19.71 C 94.48 19.75 95.41 19.82 95.87 19.86 C 95.72 20.21 95.40 20.92 95.25 21.27 C 94.85 21.27 94.06 21.27 93.67 21.26 Z" />
<path fill="#adc2d9" opacity="1.00" d=" M 205.67 21.27 C 205.76 20.88 205.93 20.10 206.02 19.71 C 206.48 19.75 207.41 19.82 207.87 19.86 C 207.72 20.22 207.40 20.92 207.24 21.27 C 206.85 21.27 206.06 21.27 205.67 21.27 Z" />
<path fill="#adc2d9" opacity="1.00" d=" M 136.68 22.73 C 137.02 22.42 137.70 21.82 138.04 21.52 C 138.45 21.74 139.27 22.17 139.68 22.38 C 138.71 23.21 137.71 23.33 136.68 22.73 Z" />
<path fill="#adc2d9" opacity="1.00" d=" M 23.53 24.10 C 23.73 22.25 26.24 22.58 26.80 24.03 C 26.42 24.19 25.67 24.51 25.30 24.68 C 24.85 24.53 23.97 24.24 23.53 24.10 Z" />
<path fill="#adc2d9" opacity="1.00" d=" M 42.05 34.65 C 40.16 35.00 36.04 36.04 36.89 33.20 C 38.75 32.82 40.50 33.76 42.05 34.65 Z" />
<path fill="#adc2d9" opacity="1.00" d=" M 71.58 45.13 C 72.23 45.24 73.54 45.45 74.19 45.56 C 74.37 45.95 74.72 46.72 74.90 47.11 C 73.54 47.15 71.87 46.67 71.58 45.13 Z" />
<path fill="#adc2d9" opacity="1.00" d=" M 95.33 46.26 C 95.49 45.92 95.82 45.23 95.99 44.89 C 99.54 43.62 98.13 47.56 95.33 46.26 Z" />
<path fill="#adc2d9" opacity="1.00" d=" M 127.62 45.05 C 128.29 45.19 129.63 45.45 130.29 45.59 C 130.41 46.02 130.65 46.88 130.77 47.31 C 129.42 47.14 128.03 46.46 127.62 45.05 Z" />
<path fill="#adc2d9" opacity="1.00" d=" M 151.33 46.26 C 151.49 45.92 151.81 45.22 151.97 44.88 C 155.52 43.63 154.15 47.53 151.33 46.26 Z" />
<path fill="#adc2d9" opacity="1.00" d=" M 183.58 45.13 C 184.23 45.24 185.54 45.45 186.19 45.56 C 186.37 45.95 186.72 46.72 186.90 47.11 C 185.54 47.15 183.87 46.67 183.58 45.13 Z" />
<path fill="#adc2d9" opacity="1.00" d=" M 207.33 46.27 C 207.49 45.92 207.82 45.22 207.98 44.88 C 211.53 43.65 210.14 47.54 207.33 46.27 Z" />
<path fill="#adc2d9" opacity="1.00" d=" M 87.24 47.16 C 87.51 45.33 90.31 45.10 90.76 46.95 C 89.60 47.26 88.43 47.33 87.24 47.16 Z" />
<path fill="#adc2d9" opacity="1.00" d=" M 143.24 47.16 C 143.51 45.33 146.31 45.10 146.76 46.95 C 145.60 47.26 144.42 47.33 143.24 47.16 Z" />
<path fill="#adc2d9" opacity="1.00" d=" M 199.24 47.16 C 199.51 45.33 202.31 45.10 202.77 46.95 C 201.60 47.26 200.42 47.33 199.24 47.16 Z" />
<path fill="#adc2d9" opacity="1.00" d=" M 24.66 47.63 C 25.35 47.49 26.73 47.22 27.43 47.08 C 26.94 48.27 26.02 48.70 24.67 48.40 L 24.66 47.63 Z" />
<path fill="#adc2d9" opacity="1.00" d=" M 74.90 47.11 C 75.64 47.08 77.11 47.02 77.85 46.98 C 77.52 48.61 75.42 48.61 74.90 47.11 Z" />
<path fill="#adc2d9" opacity="1.00" d=" M 81.18 46.94 C 81.81 46.93 83.08 46.91 83.72 46.90 C 83.53 47.27 83.15 47.99 82.95 48.35 C 82.51 48.00 81.62 47.29 81.18 46.94 Z" />
<path fill="#adc2d9" opacity="1.00" d=" M 130.77 47.31 C 131.52 47.20 133.02 46.98 133.78 46.86 C 133.54 48.52 131.57 48.54 130.77 47.31 Z" />
<path fill="#adc2d9" opacity="1.00" d=" M 137.17 46.95 C 137.80 46.94 139.08 46.92 139.71 46.90 C 139.52 47.27 139.14 47.99 138.94 48.35 C 138.50 48.00 137.61 47.30 137.17 46.95 Z" />
<path fill="#adc2d9" opacity="1.00" d=" M 186.90 47.11 C 187.64 47.08 189.11 47.02 189.85 46.98 C 189.52 48.61 187.42 48.61 186.90 47.11 Z" />
<path fill="#adc2d9" opacity="1.00" d=" M 193.18 46.94 C 193.81 46.93 195.08 46.91 195.72 46.90 C 195.53 47.27 195.15 47.99 194.95 48.35 C 194.51 48.00 193.62 47.29 193.18 46.94 Z" />
</g>
<g id="#1f8be9ff">
<path fill="#1f8be9" opacity="1.00" d=" M 38.23 20.67 C 38.14 19.21 38.81 18.31 40.23 17.97 C 40.24 19.37 39.57 20.27 38.23 20.67 Z" />
<path fill="#1f8be9" opacity="1.00" d=" M 94.02 19.71 C 94.26 18.40 95.02 17.95 96.29 18.36 C 96.19 18.74 95.98 19.49 95.87 19.86 C 95.41 19.82 94.48 19.75 94.02 19.71 Z" />
<path fill="#1f8be9" opacity="1.00" d=" M 206.02 19.71 C 206.26 18.40 207.02 17.95 208.29 18.37 C 208.19 18.74 207.98 19.49 207.87 19.86 C 207.41 19.82 206.48 19.75 206.02 19.71 Z" />
</g>
<g id="#3c6bbdff">
<path fill="#3c6bbd" opacity="1.00" d=" M 100.17 22.95 C 106.31 18.22 115.82 16.24 122.33 21.20 C 118.67 22.88 115.09 24.70 111.54 26.60 C 107.82 29.10 104.21 24.86 100.94 23.40 L 100.17 22.95 Z" />
<path fill="#3c6bbd" opacity="1.00" d=" M 155.91 23.15 C 160.95 15.56 172.49 17.58 178.69 22.72 C 172.29 27.57 163.55 27.76 156.76 23.56 L 155.91 23.15 Z" />
</g>
<g id="#139afaff">
<path fill="#139afa" opacity="1.00" d=" M 123.17 18.36 C 123.92 18.20 125.41 17.88 126.15 17.72 C 127.73 19.10 129.76 19.67 131.75 20.14 L 132.29 20.52 C 132.73 21.53 133.27 22.47 133.93 23.35 C 133.41 23.23 132.35 22.99 131.83 22.87 C 129.88 22.38 127.98 21.75 126.12 20.99 C 125.12 20.14 124.15 19.25 123.17 18.36 Z" />
</g>
<g id="#9cb5d5fe">
<path fill="#9cb5d5" opacity="1.00" d=" M 126.15 17.72 C 126.56 17.65 127.38 17.52 127.78 17.45 C 128.52 17.64 130.00 18.02 130.74 18.21 C 131.02 18.56 131.56 19.25 131.83 19.60 L 131.75 20.14 C 129.76 19.67 127.73 19.10 126.15 17.72 Z" />
</g>
<g id="#129afdff">
<path fill="#129afd" opacity="1.00" d=" M 151.07 19.00 C 151.53 18.87 152.44 18.62 152.90 18.50 C 152.71 19.04 152.31 20.13 152.12 20.67 C 148.09 24.10 142.59 23.69 137.64 24.34 C 136.92 24.14 135.46 23.73 134.74 23.53 C 135.07 23.24 135.73 22.66 136.06 22.37 L 136.68 22.73 C 137.71 23.33 138.71 23.21 139.68 22.38 C 140.01 22.28 140.66 22.06 140.98 21.95 C 144.33 20.91 147.70 19.97 151.07 19.00 Z" />
</g>
<g id="#209ffbfe">
<path fill="#209ffb" opacity="1.00" d=" M 13.04 19.58 C 13.44 19.53 14.23 19.44 14.62 19.39 C 16.47 20.36 18.44 21.16 20.56 21.13 C 22.49 21.36 24.41 21.71 26.34 21.97 C 29.83 22.68 33.37 22.18 36.81 21.47 C 37.43 21.39 38.68 21.22 39.30 21.14 C 35.61 23.66 31.05 23.43 26.80 24.03 C 26.24 22.58 23.73 22.25 23.53 24.10 C 19.94 22.83 16.37 21.45 13.04 19.58 Z" />
</g>
<g id="#96bcdefe">
<path fill="#96bcde" opacity="1.00" d=" M 14.62 19.39 C 16.55 18.56 18.95 18.80 20.35 20.49 L 20.56 21.13 C 18.44 21.16 16.47 20.36 14.62 19.39 Z" />
<path fill="#96bcde" opacity="1.00" d=" M 70.67 19.41 C 72.58 18.55 74.98 18.81 76.34 20.52 L 76.55 21.18 C 74.45 21.19 72.51 20.36 70.67 19.41 Z" />
<path fill="#96bcde" opacity="1.00" d=" M 182.86 18.99 C 184.81 18.61 186.94 19.06 188.34 20.55 L 188.54 21.18 C 186.43 21.21 184.28 20.64 182.86 18.99 Z" />
<path fill="#96bcde" opacity="1.00" d=" M 37.36 46.92 C 38.32 46.04 39.31 45.20 40.38 44.46 C 45.07 45.13 39.51 47.70 37.36 46.92 Z" />
</g>
<g id="#25a0faff">
<path fill="#25a0fa" opacity="1.00" d=" M 69.19 19.64 C 69.56 19.58 70.30 19.47 70.67 19.41 C 72.51 20.36 74.45 21.19 76.55 21.18 C 78.50 21.40 80.43 21.70 82.38 21.83 C 86.16 22.18 89.91 21.46 93.67 21.26 C 94.06 21.27 94.85 21.27 95.25 21.27 C 91.19 24.38 85.79 23.92 80.95 24.26 C 76.95 22.95 72.89 21.69 69.19 19.64 Z" />
</g>
<g id="#2b8ed8ff">
<path fill="#2b8ed8" opacity="1.00" d=" M 95.87 19.86 C 96.90 19.72 97.89 19.47 98.87 19.13 C 97.97 20.38 97.07 21.63 96.19 22.89 C 97.51 22.89 98.84 22.88 100.17 22.95 L 100.94 23.40 L 101.58 23.86 C 96.15 23.33 92.24 27.07 89.67 31.39 C 90.01 31.80 90.70 32.64 91.05 33.05 C 91.70 33.86 92.35 34.66 93.00 35.48 C 90.30 34.73 88.22 32.85 86.54 30.70 C 88.68 28.76 90.95 26.98 93.25 25.23 C 90.26 25.26 87.27 25.30 84.29 25.34 C 83.17 25.01 82.06 24.63 80.95 24.26 C 85.79 23.92 91.19 24.38 95.25 21.27 C 95.40 20.92 95.72 20.21 95.87 19.86 Z" />
<path fill="#2b8ed8" opacity="1.00" d=" M 207.87 19.86 C 208.89 19.71 209.89 19.47 210.87 19.13 C 209.95 20.43 209.02 21.74 208.14 23.06 C 209.48 22.98 210.84 22.90 212.19 22.84 L 212.97 23.34 L 213.60 23.83 C 208.17 23.35 204.24 27.05 201.67 31.39 C 202.01 31.80 202.70 32.64 203.05 33.05 C 203.70 33.86 204.35 34.66 205.00 35.48 C 202.30 34.73 200.22 32.85 198.54 30.70 C 200.68 28.76 202.95 26.98 205.25 25.23 C 202.27 25.26 199.26 25.30 196.29 25.34 C 195.17 25.00 194.07 24.61 192.96 24.25 C 197.79 23.91 203.19 24.39 207.24 21.27 C 207.40 20.92 207.72 20.22 207.87 19.86 Z" />
</g>
<g id="#afc2d2ff">
<path fill="#afc2d2" opacity="1.00" d=" M 140.98 21.95 C 144.31 20.84 147.68 19.89 151.07 19.00 C 147.70 19.97 144.33 20.91 140.98 21.95 Z" />
</g>
<g id="#2c8fd8ff">
<path fill="#2c8fd8" opacity="1.00" d=" M 152.12 20.67 C 153.08 20.05 154.03 19.42 154.98 18.78 C 154.09 20.15 153.19 21.53 152.30 22.90 C 153.50 22.97 154.71 23.02 155.91 23.15 L 156.76 23.56 L 157.38 23.99 C 151.90 23.20 148.24 27.32 145.83 31.64 L 145.14 31.80 C 144.85 31.84 144.27 31.92 143.98 31.95 L 143.31 31.18 C 145.26 29.27 147.10 27.26 148.98 25.28 C 144.88 25.57 140.77 25.29 136.70 24.73 L 137.64 24.34 C 142.59 23.69 148.09 24.10 152.12 20.67 Z" />
</g>
<g id="#25a0f9ff">
<path fill="#25a0f9" opacity="1.00" d=" M 180.46 19.40 C 181.06 19.29 182.26 19.09 182.86 18.99 C 184.28 20.64 186.43 21.21 188.54 21.18 C 190.49 21.38 192.43 21.69 194.38 21.84 C 198.16 22.18 201.91 21.46 205.67 21.27 C 206.06 21.27 206.85 21.27 207.24 21.27 C 203.19 24.39 197.79 23.91 192.96 24.25 C 188.69 22.93 184.30 21.75 180.46 19.40 Z" />
</g>
<g id="#3c6abeff">
<path fill="#3c6abe" opacity="1.00" d=" M 0.00 19.24 C 3.93 20.18 7.90 21.37 11.07 24.00 C 7.91 26.64 3.92 27.80 0.00 28.77 L 0.00 19.24 Z" />
</g>
<g id="#3c6cbffe">
<path fill="#3c6cbf" opacity="1.00" d=" M 123.04 19.87 C 124.07 20.24 125.10 20.61 126.12 20.99 C 127.98 21.75 129.88 22.38 131.83 22.87 C 130.97 24.64 129.90 26.30 128.74 27.89 C 125.98 28.98 123.23 30.10 120.62 31.51 C 118.48 32.89 116.97 34.97 115.84 37.21 C 115.19 37.32 114.54 37.43 113.90 37.54 C 115.16 38.76 116.58 39.79 118.06 40.74 C 118.63 40.31 119.20 39.87 119.79 39.46 C 120.75 40.03 121.71 40.61 122.66 41.20 C 123.65 43.79 124.66 46.45 126.49 48.59 L 127.43 48.84 C 133.43 50.64 139.95 50.34 145.64 53.18 C 143.66 53.42 139.71 53.89 137.74 54.12 C 138.17 54.59 139.03 55.53 139.46 56.00 L 93.41 56.00 C 89.60 54.21 85.84 52.31 82.01 50.58 C 83.75 51.99 85.46 53.45 87.14 54.94 C 85.91 55.29 84.68 55.65 83.46 56.00 L 32.25 56.00 C 30.32 53.87 28.31 51.81 26.21 49.85 C 36.41 49.81 46.52 48.38 56.50 46.38 C 54.81 46.18 51.43 45.78 49.74 45.57 L 49.11 45.04 C 47.94 43.94 46.73 42.90 45.47 41.91 C 40.84 39.51 35.57 39.03 30.51 38.22 C 38.72 37.31 47.05 38.12 55.05 40.09 C 53.36 38.85 51.69 37.58 50.03 36.32 C 53.62 29.14 61.79 27.54 68.44 24.47 C 67.94 23.41 67.44 22.34 66.95 21.27 C 70.87 23.05 74.88 24.61 79.08 25.60 C 76.95 26.25 74.80 26.89 72.70 27.65 C 69.97 28.70 67.37 30.08 64.92 31.68 C 62.04 33.47 59.15 35.24 56.27 37.03 C 63.17 39.51 65.56 48.10 72.59 50.43 C 76.27 52.40 80.02 50.51 83.68 49.83 C 90.25 47.58 97.51 49.18 103.95 46.46 L 104.54 46.23 C 104.49 45.11 104.04 44.22 103.20 43.56 C 102.60 43.11 101.99 42.67 101.35 42.29 C 96.74 39.23 91.12 38.88 85.78 38.39 C 94.11 37.25 102.71 37.09 110.93 39.05 C 109.45 37.95 107.91 36.93 106.58 35.65 C 108.48 27.56 117.57 25.22 124.37 22.66 C 123.91 21.74 123.46 20.81 123.04 19.87 M 131.16 51.34 C 130.12 51.13 128.59 51.63 128.47 52.85 C 128.96 55.11 133.37 52.61 131.16 51.34 M 75.16 52.34 C 74.12 52.13 72.59 52.63 72.47 53.85 C 72.97 56.11 77.37 53.61 75.16 52.34 Z" />
</g>
<g id="#8dbae0ff">
<path fill="#8dbae0" opacity="1.00" d=" M 132.29 20.52 C 133.60 21.03 134.91 21.55 136.06 22.37 C 135.73 22.66 135.07 23.24 134.74 23.53 L 133.93 23.35 C 133.27 22.47 132.73 21.53 132.29 20.52 Z" />
</g>
<g id="#3c6bbfff">
<path fill="#3c6bbf" opacity="1.00" d=" M 178.95 21.27 C 182.87 23.05 186.88 24.61 191.08 25.59 C 188.95 26.25 186.80 26.89 184.70 27.65 C 181.97 28.70 179.37 30.08 176.92 31.68 C 174.04 33.47 171.15 35.24 168.27 37.03 C 176.52 40.24 179.49 52.44 189.82 51.16 C 198.41 47.93 207.78 49.27 216.41 46.39 L 217.52 46.13 C 216.62 45.09 215.73 44.05 214.81 43.04 C 214.49 42.74 213.85 42.14 213.53 41.83 C 208.63 39.41 203.14 38.93 197.78 38.40 C 206.10 37.08 214.70 37.10 222.91 39.10 C 221.34 37.85 219.70 36.69 218.30 35.25 C 219.80 32.51 221.81 30.09 224.00 27.88 L 224.00 56.00 L 205.40 56.00 C 201.59 54.21 197.84 52.31 194.01 50.58 C 195.75 51.99 197.46 53.45 199.14 54.94 C 197.91 55.29 196.68 55.65 195.46 56.00 L 149.91 56.00 C 146.81 53.35 143.50 50.96 139.99 48.89 C 146.65 47.95 153.56 48.25 160.04 46.26 C 160.29 46.03 160.79 45.58 161.04 45.36 C 161.30 45.01 161.83 44.31 162.10 43.96 C 160.57 43.29 159.06 42.61 157.49 42.04 C 152.63 39.51 147.18 39.01 141.79 38.63 C 142.35 37.88 142.90 37.13 143.45 36.37 C 151.26 36.77 159.25 35.67 166.81 38.18 C 163.83 36.04 162.09 32.89 163.55 28.97 C 169.63 29.58 175.14 27.12 180.40 24.40 C 179.91 23.35 179.43 22.31 178.95 21.27 M 163.82 44.25 C 163.65 45.92 167.35 45.92 167.18 44.25 C 166.40 43.28 164.59 43.28 163.82 44.25 M 187.16 52.34 C 186.12 52.13 184.58 52.63 184.47 53.85 C 184.96 56.11 189.37 53.61 187.16 52.34 Z" />
</g>
<g id="#3c6cbfff">
<path fill="#3c6cbf" opacity="1.00" d=" M 10.98 22.15 C 15.39 23.31 19.81 24.53 24.34 25.14 C 27.26 25.59 30.21 25.95 33.17 25.96 C 29.96 27.25 27.90 30.09 25.88 32.74 C 24.25 31.75 22.60 30.77 20.92 29.86 C 17.59 27.62 13.15 28.56 10.02 30.69 C 6.31 32.67 2.85 35.13 0.00 38.22 L 0.00 30.93 C 4.13 29.57 8.26 28.20 12.35 26.70 C 11.89 25.18 11.44 23.66 10.98 22.15 Z" />
<path fill="#3c6cbf" opacity="1.00" d=" M 130.37 27.27 C 132.49 26.44 134.59 25.58 136.70 24.73 C 140.77 25.29 144.88 25.57 148.98 25.28 C 147.10 27.26 145.26 29.27 143.31 31.18 C 141.72 32.34 140.03 33.34 138.35 34.36 C 137.41 34.21 136.46 34.07 135.52 33.93 C 133.70 31.79 132.02 29.54 130.37 27.27 Z" />
</g>
<g id="#427ccbff">
<path fill="#427ccb" opacity="1.00" d=" M 131.83 22.87 C 132.35 22.99 133.41 23.23 133.93 23.35 L 134.74 23.53 C 135.46 23.73 136.92 24.14 137.64 24.34 L 136.70 24.73 C 134.59 25.58 132.49 26.44 130.37 27.27 C 129.96 27.42 129.15 27.74 128.74 27.89 C 129.90 26.30 130.97 24.64 131.83 22.87 Z" />
</g>
<g id="#7e8665ff">
<path fill="#7e8665" opacity="1.00" d=" M 33.33 31.11 C 36.62 27.81 39.86 22.60 45.33 24.47 C 48.14 26.01 49.31 29.14 50.72 31.81 C 50.02 31.14 49.33 30.46 48.64 29.78 L 48.10 29.27 C 47.35 28.58 46.61 27.89 45.80 27.27 C 45.21 26.94 44.03 26.28 43.44 25.95 C 42.94 25.71 41.95 25.23 41.45 24.99 C 40.48 26.08 39.51 27.17 38.50 28.22 C 37.51 29.11 36.52 29.99 35.48 30.82 C 34.94 30.90 33.87 31.04 33.33 31.11 Z" />
<path fill="#7e8665" opacity="1.00" d=" M 89.67 31.39 C 92.24 27.07 96.15 23.33 101.58 23.86 C 103.64 26.26 105.24 29.01 106.71 31.80 C 106.07 31.17 105.43 30.54 104.79 29.91 L 104.14 29.29 C 103.38 28.59 102.63 27.90 101.81 27.28 C 101.22 26.95 100.03 26.28 99.44 25.95 C 98.94 25.70 97.93 25.21 97.42 24.96 C 96.46 26.06 95.50 27.16 94.51 28.23 C 93.54 29.16 92.58 30.10 91.57 30.98 C 91.09 31.08 90.14 31.29 89.67 31.39 Z" />
<path fill="#7e8665" opacity="1.00" d=" M 201.67 31.39 C 204.24 27.05 208.17 23.35 213.60 23.83 C 215.64 26.26 217.23 29.01 218.71 31.80 C 218.07 31.17 217.42 30.54 216.79 29.91 L 216.14 29.29 C 215.38 28.59 214.63 27.90 213.81 27.28 C 213.22 26.95 212.03 26.28 211.44 25.94 C 210.94 25.70 209.93 25.21 209.42 24.97 C 208.46 26.06 207.50 27.16 206.51 28.23 C 205.54 29.16 204.58 30.10 203.57 30.98 C 203.09 31.08 202.14 31.29 201.67 31.39 Z" />
</g>
<g id="#798160fe">
<path fill="#798160" opacity="1.00" d=" M 145.83 31.64 C 148.24 27.32 151.90 23.20 157.38 23.99 C 159.25 25.89 160.97 27.92 162.62 30.01 C 162.17 30.23 161.28 30.68 160.83 30.90 C 160.55 30.49 160.00 29.67 159.73 29.26 C 159.19 28.53 158.62 27.82 158.02 27.14 C 157.38 26.84 156.09 26.22 155.45 25.92 C 154.93 25.69 153.89 25.24 153.37 25.02 C 152.42 26.09 151.48 27.17 150.52 28.23 C 149.56 29.22 148.60 30.22 147.61 31.17 C 147.17 31.29 146.28 31.52 145.83 31.64 Z" />
</g>
<g id="#407fc9ff">
<path fill="#407fc9" opacity="1.00" d=" M 212.97 23.34 C 216.25 25.69 219.98 27.38 224.00 27.88 L 224.00 27.88 C 221.81 30.09 219.80 32.51 218.30 35.25 C 219.70 36.69 221.34 37.85 222.91 39.10 C 214.70 37.10 206.10 37.08 197.78 38.40 C 197.31 38.34 196.36 38.22 195.89 38.17 C 195.66 37.15 195.44 36.13 195.22 35.11 C 196.28 33.61 197.33 32.09 198.54 30.70 C 200.22 32.85 202.30 34.73 205.00 35.48 C 206.74 35.14 208.48 34.79 210.19 34.28 C 212.51 33.01 214.67 31.48 216.79 29.91 C 217.42 30.54 218.07 31.17 218.71 31.80 C 217.23 29.01 215.64 26.26 213.60 23.83 L 212.97 23.34 M 215.28 33.06 C 214.37 33.15 212.50 33.54 212.80 34.80 C 214.09 36.57 218.51 33.44 215.28 33.06 Z" />
</g>
<g id="#3c6dbfff">
<path fill="#3c6dbf" opacity="1.00" d=" M 84.29 25.34 C 87.27 25.30 90.26 25.26 93.25 25.23 C 90.95 26.98 88.68 28.76 86.54 30.70 C 85.34 32.09 84.28 33.61 83.22 35.11 C 81.98 34.68 80.74 34.24 79.49 33.82 C 78.11 32.08 76.81 30.28 75.52 28.47 C 78.40 27.31 81.31 26.22 84.29 25.34 Z" />
<path fill="#3c6dbf" opacity="1.00" d=" M 196.29 25.34 C 199.26 25.30 202.27 25.26 205.25 25.23 C 202.95 26.98 200.68 28.76 198.54 30.70 C 197.33 32.09 196.28 33.61 195.22 35.11 C 193.97 34.68 192.73 34.24 191.49 33.82 C 190.10 32.09 188.81 30.27 187.52 28.47 C 190.40 27.31 193.31 26.22 196.29 25.34 Z" />
</g>
<g id="#97c170ff">
<path fill="#97c170" opacity="1.00" d=" M 43.44 25.95 C 44.03 26.28 45.21 26.94 45.80 27.27 C 42.70 29.28 39.18 30.55 35.48 30.82 C 36.52 29.99 37.51 29.11 38.50 28.22 C 40.11 27.38 41.78 26.67 43.44 25.95 Z" />
<path fill="#97c170" opacity="1.00" d=" M 99.44 25.95 C 100.03 26.28 101.22 26.95 101.81 27.28 C 98.68 29.20 95.19 30.42 91.57 30.98 C 92.58 30.10 93.54 29.16 94.51 28.23 C 96.11 27.38 97.78 26.67 99.44 25.95 Z" />
<path fill="#97c170" opacity="1.00" d=" M 155.45 25.92 C 156.09 26.22 157.38 26.84 158.02 27.14 C 154.79 29.04 151.28 30.41 147.61 31.17 C 148.60 30.22 149.56 29.22 150.52 28.23 C 152.10 27.35 153.79 26.65 155.45 25.92 Z" />
<path fill="#97c170" opacity="1.00" d=" M 211.44 25.94 C 212.03 26.28 213.22 26.95 213.81 27.28 C 210.67 29.20 207.19 30.42 203.57 30.98 C 204.58 30.10 205.54 29.16 206.51 28.23 C 208.11 27.39 209.78 26.67 211.44 25.94 Z" />
</g>
<g id="#85ae5bfe">
<path fill="#85ae5b" opacity="1.00" d=" M 45.80 27.27 C 46.61 27.89 47.35 28.58 48.10 29.27 C 43.98 30.74 39.99 32.69 35.62 33.31 L 35.07 33.36 C 34.63 32.80 33.76 31.68 33.33 31.11 C 33.87 31.04 34.94 30.90 35.48 30.82 C 39.18 30.55 42.70 29.28 45.80 27.27 Z" />
</g>
<g id="#84ad5bff">
<path fill="#84ad5b" opacity="1.00" d=" M 101.81 27.28 C 102.63 27.90 103.38 28.59 104.14 29.29 C 100.55 30.54 97.13 32.23 93.50 33.39 C 92.89 33.31 91.66 33.14 91.05 33.05 C 90.70 32.64 90.01 31.80 89.67 31.39 C 90.14 31.29 91.09 31.08 91.57 30.98 C 95.19 30.42 98.68 29.20 101.81 27.28 Z" />
<path fill="#84ad5b" opacity="1.00" d=" M 158.02 27.14 C 158.62 27.82 159.19 28.53 159.73 29.26 C 156.42 30.71 153.16 32.32 149.66 33.23 C 148.98 33.06 147.63 32.70 146.96 32.53 C 146.50 32.35 145.59 31.98 145.14 31.80 L 145.83 31.64 C 146.28 31.52 147.17 31.29 147.61 31.17 C 151.28 30.41 154.79 29.04 158.02 27.14 Z" />
<path fill="#84ad5b" opacity="1.00" d=" M 213.81 27.28 C 214.63 27.90 215.38 28.59 216.14 29.29 C 212.55 30.54 209.13 32.23 205.50 33.39 C 204.89 33.31 203.66 33.14 203.05 33.05 C 202.70 32.64 202.01 31.80 201.67 31.39 C 202.14 31.29 203.09 31.08 203.57 30.98 C 207.19 30.42 210.67 29.20 213.81 27.28 Z" />
<path fill="#84ad5b" opacity="1.00" d=" M 19.37 30.85 C 19.96 31.49 20.53 32.15 21.09 32.82 C 18.63 34.30 16.22 35.89 13.88 37.57 C 12.50 37.22 11.16 36.76 9.83 36.24 C 9.37 35.97 8.44 35.43 7.97 35.16 C 8.99 34.51 9.97 33.80 10.95 33.10 C 13.75 32.31 16.57 31.61 19.37 30.85 Z" />
</g>
<g id="#757655fe">
<path fill="#757655" opacity="1.00" d=" M 10.02 30.69 C 13.15 28.56 17.59 27.62 20.92 29.86 C 21.96 31.18 22.91 32.57 23.88 33.95 C 23.92 35.32 24.35 37.22 26.02 37.35 C 27.51 37.70 29.00 38.02 30.51 38.22 C 35.57 39.03 40.84 39.51 45.47 41.91 C 45.18 41.99 44.60 42.15 44.31 42.23 C 40.51 41.27 36.62 40.89 32.71 40.78 C 31.24 40.45 29.78 40.05 28.34 39.61 C 26.10 38.87 23.91 38.02 21.68 37.26 L 21.17 36.92 C 21.71 36.22 22.25 35.52 22.78 34.82 C 22.22 34.15 21.65 33.48 21.09 32.82 C 20.53 32.15 19.96 31.49 19.37 30.85 C 18.68 30.31 17.97 29.79 17.25 29.29 C 15.75 27.96 13.92 29.65 13.04 30.88 C 12.37 31.65 11.67 32.39 10.95 33.10 C 9.97 33.80 8.99 34.51 7.97 35.16 C 7.54 35.14 6.66 35.09 6.22 35.06 C 7.52 33.63 8.73 32.13 10.02 30.69 Z" />
<path fill="#757655" opacity="1.00" d=" M 64.92 31.68 C 67.37 30.08 69.97 28.70 72.70 27.65 C 73.64 27.92 74.58 28.20 75.52 28.47 C 76.81 30.28 78.11 32.08 79.49 33.82 C 80.79 35.43 82.26 36.88 83.89 38.16 C 84.36 38.22 85.31 38.33 85.78 38.39 C 91.12 38.88 96.74 39.23 101.35 42.29 L 100.55 42.04 C 96.69 41.08 92.70 40.96 88.75 40.81 C 87.26 40.47 85.80 40.05 84.35 39.60 C 82.12 38.87 79.91 38.05 77.69 37.29 L 77.21 36.97 C 77.73 36.25 78.25 35.53 78.76 34.80 C 78.22 34.16 77.68 33.52 77.14 32.88 C 76.56 32.20 75.97 31.53 75.38 30.87 C 74.68 30.32 73.97 29.79 73.25 29.29 C 71.76 27.97 69.92 29.65 69.03 30.88 C 68.36 31.62 67.66 32.35 66.94 33.05 C 65.78 34.04 64.65 35.04 63.47 36.01 L 62.61 35.87 C 63.36 34.46 64.11 33.05 64.92 31.68 Z" />
<path fill="#757655" opacity="1.00" d=" M 120.62 31.51 C 123.23 30.10 125.98 28.98 128.74 27.89 C 129.15 27.74 129.96 27.42 130.37 27.27 C 132.02 29.54 133.70 31.79 135.52 33.93 C 136.86 35.47 138.32 36.93 139.97 38.15 C 140.43 38.27 141.34 38.51 141.79 38.63 C 147.18 39.01 152.63 39.51 157.49 42.04 L 156.60 41.94 C 152.68 41.22 148.71 40.98 144.74 40.80 C 143.26 40.46 141.80 40.04 140.35 39.60 C 138.11 38.88 135.91 38.03 133.68 37.29 L 133.20 36.98 C 133.72 36.25 134.25 35.53 134.77 34.80 C 134.22 34.16 133.68 33.52 133.14 32.88 C 132.56 32.20 131.97 31.53 131.37 30.87 C 130.68 30.32 129.97 29.79 129.25 29.28 C 127.75 27.96 125.93 29.67 125.04 30.88 C 124.36 31.62 123.66 32.34 122.94 33.04 C 121.79 34.01 120.65 35.00 119.50 35.96 L 118.89 35.86 C 119.42 34.39 120.03 32.96 120.62 31.51 Z" />
<path fill="#757655" opacity="1.00" d=" M 176.92 31.68 C 179.37 30.08 181.97 28.70 184.70 27.65 C 185.64 27.92 186.58 28.20 187.52 28.47 C 188.81 30.27 190.10 32.09 191.49 33.82 C 192.79 35.42 194.27 36.89 195.89 38.17 C 196.36 38.22 197.31 38.34 197.78 38.40 C 203.14 38.93 208.63 39.41 213.53 41.83 C 213.21 41.90 212.56 42.05 212.24 42.12 C 208.45 41.27 204.59 40.93 200.73 40.77 C 199.25 40.45 197.79 40.05 196.34 39.61 C 194.11 38.87 191.91 38.04 189.69 37.29 L 189.21 36.97 C 189.73 36.25 190.25 35.53 190.76 34.80 C 190.22 34.16 189.67 33.52 189.14 32.88 C 188.56 32.20 187.97 31.53 187.38 30.87 C 186.68 30.32 185.97 29.79 185.25 29.29 C 183.75 27.97 181.92 29.65 181.03 30.88 C 180.36 31.62 179.66 32.35 178.94 33.05 C 177.78 34.04 176.64 35.04 175.47 36.01 L 174.61 35.87 C 175.36 34.46 176.11 33.05 176.92 31.68 Z" />
</g>
<g id="#97c270ff">
<path fill="#97c270" opacity="1.00" d=" M 17.25 29.29 C 17.97 29.79 18.68 30.31 19.37 30.85 C 16.57 31.61 13.75 32.31 10.95 33.10 C 11.67 32.39 12.37 31.65 13.04 30.88 C 14.58 31.51 16.76 31.09 17.25 29.29 Z" />
<path fill="#97c270" opacity="1.00" d=" M 73.25 29.29 C 73.97 29.79 74.68 30.32 75.38 30.87 C 72.56 31.59 69.75 32.30 66.94 33.05 C 67.66 32.35 68.36 31.62 69.03 30.88 C 70.57 31.50 72.76 31.10 73.25 29.29 Z" />
<path fill="#97c270" opacity="1.00" d=" M 129.25 29.28 C 129.97 29.79 130.68 30.32 131.37 30.87 C 128.55 31.60 125.75 32.29 122.94 33.04 C 123.66 32.34 124.36 31.62 125.04 30.88 C 126.58 31.51 128.77 31.10 129.25 29.28 Z" />
<path fill="#97c270" opacity="1.00" d=" M 185.25 29.29 C 185.97 29.79 186.68 30.32 187.38 30.87 C 184.55 31.59 181.75 32.30 178.94 33.05 C 179.66 32.35 180.36 31.62 181.03 30.88 C 182.57 31.50 184.76 31.10 185.25 29.29 Z" />
<path fill="#97c270" opacity="1.00" d=" M 46.27 43.99 C 47.22 44.34 48.16 44.69 49.11 45.04 L 49.74 45.57 C 47.65 45.91 45.56 46.29 43.48 46.68 C 44.42 45.79 45.35 44.90 46.27 43.99 Z" />
</g>
<g id="#709a52ff">
<path fill="#709a52" opacity="1.00" d=" M 35.62 33.31 C 39.99 32.69 43.98 30.74 48.10 29.27 L 48.64 29.78 C 47.10 31.30 45.57 32.82 44.00 34.30 C 43.51 34.39 42.54 34.56 42.05 34.65 C 40.50 33.76 38.75 32.82 36.89 33.20 C 36.57 33.22 35.94 33.28 35.62 33.31 Z" />
</g>
<g id="#6f9a51ff">
<path fill="#6f9a51" opacity="1.00" d=" M 93.50 33.39 C 97.13 32.23 100.55 30.54 104.14 29.29 L 104.79 29.91 C 102.67 31.48 100.51 33.01 98.19 34.28 C 96.63 33.97 95.07 33.65 93.50 33.39 Z" />
<path fill="#6f9a51" opacity="1.00" d=" M 149.66 33.23 C 153.16 32.32 156.42 30.71 159.73 29.26 C 160.00 29.67 160.55 30.49 160.83 30.90 C 160.40 31.12 159.56 31.58 159.14 31.80 C 157.46 32.68 155.76 33.50 154.04 34.26 C 152.57 33.94 151.11 33.59 149.66 33.23 Z" />
<path fill="#6f9a51" opacity="1.00" d=" M 205.50 33.39 C 209.13 32.23 212.55 30.54 216.14 29.29 L 216.79 29.91 C 214.67 31.48 212.51 33.01 210.19 34.28 C 208.63 33.97 207.07 33.65 205.50 33.39 Z" />
</g>
<g id="#84b2d9ff">
<path fill="#84b2d9" opacity="1.00" d=" M 160.83 30.90 C 161.28 30.68 162.17 30.23 162.62 30.01 C 160.97 32.50 158.71 34.46 156.03 35.78 C 157.03 34.43 158.04 33.08 159.14 31.80 C 159.56 31.58 160.40 31.12 160.83 30.90 Z" />
</g>
<g id="#417fc9ff">
<path fill="#417fc9" opacity="1.00" d=" M 0.00 38.22 C 2.85 35.13 6.31 32.67 10.02 30.69 C 8.73 32.13 7.52 33.63 6.22 35.06 C 5.94 35.38 5.38 36.00 5.10 36.32 C 4.81 36.66 4.23 37.35 3.94 37.69 C 6.03 38.92 8.13 40.15 10.26 41.32 C 10.00 42.42 10.52 44.21 11.95 43.98 C 13.50 43.52 12.70 41.55 11.71 40.94 C 12.42 40.76 13.83 40.38 14.53 40.19 C 14.26 41.48 14.20 42.82 14.48 44.11 L 14.60 44.77 C 13.98 44.93 12.74 45.25 12.12 45.41 C 12.22 45.92 12.42 46.94 12.52 47.45 C 14.37 47.75 16.22 48.06 18.07 48.36 C 19.94 49.21 21.93 49.26 24.03 48.51 L 24.67 48.40 C 26.02 48.70 26.94 48.27 27.43 47.08 C 28.02 47.11 29.20 47.16 29.79 47.18 C 31.69 47.17 33.58 47.08 35.48 47.00 C 35.95 46.98 36.89 46.94 37.36 46.92 C 39.51 47.70 45.07 45.13 40.38 44.46 L 39.70 44.47 C 41.24 43.74 42.76 42.95 44.31 42.23 C 44.60 42.15 45.18 41.99 45.47 41.91 C 46.73 42.90 47.94 43.94 49.11 45.04 C 48.16 44.69 47.22 44.34 46.27 43.99 C 45.35 44.90 44.42 45.79 43.48 46.68 C 45.56 46.29 47.65 45.91 49.74 45.57 C 51.43 45.78 54.81 46.18 56.50 46.38 C 46.52 48.38 36.41 49.81 26.21 49.85 C 28.31 51.81 30.32 53.87 32.25 56.00 L 31.33 56.00 C 29.75 54.75 28.27 53.33 26.46 52.41 C 22.65 51.61 19.85 54.30 16.87 56.00 L 15.76 56.00 C 17.47 54.49 19.09 52.89 20.75 51.33 C 18.15 50.66 15.33 50.41 13.00 48.98 C 10.76 46.82 9.58 43.80 7.39 41.59 C 5.22 40.04 2.48 39.63 0.00 38.79 L 0.00 38.22 Z" />
</g>
<g id="#96b9d9ff">
<path fill="#96b9d9" opacity="1.00" d=" M 30.91 31.54 L 31.39 31.02 C 31.87 31.04 32.84 31.09 33.33 31.11 C 33.76 31.68 34.63 32.80 35.07 33.36 C 33.59 33.72 32.26 32.88 31.11 32.06 L 30.91 31.54 Z" />
<path fill="#96b9d9" opacity="1.00" d=" M 44.00 34.30 C 45.25 32.79 51.08 33.28 48.03 35.27 C 46.66 35.03 45.34 34.65 44.00 34.30 Z" />
<path fill="#96b9d9" opacity="1.00" d=" M 103.28 33.06 C 106.51 33.44 102.09 36.57 100.80 34.80 C 100.50 33.54 102.37 33.15 103.28 33.06 Z" />
<path fill="#96b9d9" opacity="1.00" d=" M 215.28 33.06 C 218.51 33.44 214.09 36.57 212.80 34.80 C 212.50 33.54 214.37 33.15 215.28 33.06 Z" />
</g>
<g id="#84ad5aff">
<path fill="#84ad5a" opacity="1.00" d=" M 75.38 30.87 C 75.97 31.53 76.56 32.20 77.14 32.88 C 74.65 34.27 72.21 35.74 69.79 37.25 C 68.01 37.01 66.26 36.65 64.51 36.27 L 63.47 36.01 C 64.65 35.04 65.78 34.04 66.94 33.05 C 69.75 32.30 72.56 31.59 75.38 30.87 Z" />
<path fill="#84ad5a" opacity="1.00" d=" M 131.37 30.87 C 131.97 31.53 132.56 32.20 133.14 32.88 C 130.65 34.27 128.22 35.74 125.80 37.24 C 124.00 36.98 122.23 36.61 120.46 36.20 L 119.50 35.96 C 120.65 35.00 121.79 34.01 122.94 33.04 C 125.75 32.29 128.55 31.60 131.37 30.87 Z" />
<path fill="#84ad5a" opacity="1.00" d=" M 187.38 30.87 C 187.97 31.53 188.56 32.20 189.14 32.88 C 186.65 34.27 184.21 35.74 181.79 37.25 C 180.01 37.01 178.26 36.65 176.51 36.27 L 175.47 36.01 C 176.64 35.04 177.78 34.04 178.94 33.05 C 181.75 32.30 184.55 31.59 187.38 30.87 Z" />
</g>
<g id="#2991dbff">
<path fill="#2991db" opacity="1.00" d=" M 31.11 32.06 C 32.26 32.88 33.59 33.72 35.07 33.36 L 35.62 33.31 C 35.94 33.28 36.57 33.22 36.89 33.20 C 36.04 36.04 40.16 35.00 42.05 34.65 C 42.54 34.56 43.51 34.39 44.00 34.30 C 45.34 34.65 46.66 35.03 48.03 35.27 C 42.88 34.85 32.96 39.35 31.11 32.06 Z" />
</g>
<g id="#417fc8ff">
<path fill="#417fc8" opacity="1.00" d=" M 56.27 37.03 C 59.15 35.24 62.04 33.47 64.92 31.68 C 64.11 33.05 63.36 34.46 62.61 35.87 C 62.08 35.80 61.00 35.67 60.46 35.60 C 62.89 37.87 65.48 41.32 69.27 40.20 L 69.97 40.10 C 70.43 41.01 71.13 41.65 72.07 42.03 C 71.77 42.31 71.19 42.87 70.89 43.15 C 70.03 44.06 69.21 45.02 68.39 45.97 C 72.70 48.59 78.02 49.86 82.95 48.35 C 83.15 47.99 83.53 47.27 83.72 46.90 C 84.60 46.97 86.36 47.10 87.24 47.16 C 88.43 47.33 89.60 47.26 90.76 46.95 C 92.28 46.67 93.80 46.42 95.33 46.26 C 98.13 47.56 99.54 43.62 95.99 44.89 L 96.41 44.30 C 97.79 43.54 99.17 42.79 100.55 42.04 L 101.35 42.29 C 101.99 42.67 102.60 43.11 103.20 43.56 C 99.98 44.31 100.88 46.94 103.95 46.46 C 97.51 49.18 90.25 47.58 83.68 49.83 C 80.02 50.51 76.27 52.40 72.59 50.43 C 65.56 48.10 63.17 39.51 56.27 37.03 Z" />
<path fill="#417fc8" opacity="1.00" d=" M 168.27 37.03 C 171.15 35.24 174.04 33.47 176.92 31.68 C 176.11 33.05 175.36 34.46 174.61 35.87 C 174.08 35.80 173.00 35.67 172.46 35.60 C 174.89 37.87 177.48 41.32 181.27 40.20 L 181.97 40.10 C 182.43 41.01 183.13 41.65 184.07 42.03 C 183.77 42.31 183.19 42.87 182.89 43.15 C 182.03 44.06 181.21 45.02 180.39 45.97 C 184.70 48.59 190.02 49.86 194.95 48.35 C 195.15 47.99 195.53 47.27 195.72 46.90 C 196.60 46.97 198.36 47.10 199.24 47.16 C 200.42 47.33 201.60 47.26 202.77 46.95 C 204.28 46.67 205.80 46.42 207.33 46.27 C 210.14 47.54 211.53 43.65 207.98 44.88 L 208.41 44.24 C 209.67 43.51 210.94 42.79 212.24 42.12 C 212.56 42.05 213.21 41.90 213.53 41.83 C 213.85 42.14 214.49 42.74 214.81 43.04 C 213.87 44.08 212.93 45.12 212.01 46.17 C 213.47 46.27 214.94 46.34 216.41 46.39 C 207.78 49.27 198.41 47.93 189.82 51.16 C 179.49 52.44 176.52 40.24 168.27 37.03 Z" />
</g>
<g id="#4082ceff">
<path fill="#4082ce" opacity="1.00" d=" M 115.84 37.21 C 116.97 34.97 118.48 32.89 120.62 31.51 C 120.03 32.96 119.42 34.39 118.89 35.86 L 118.76 36.34 C 119.08 37.39 119.44 38.42 119.79 39.46 C 119.20 39.87 118.63 40.31 118.06 40.74 C 116.58 39.79 115.16 38.76 113.90 37.54 C 114.54 37.43 115.19 37.32 115.84 37.21 Z" />
</g>
<g id="#268ed9fe">
<path fill="#268ed9" opacity="1.00" d=" M 143.98 31.95 C 144.27 31.92 144.85 31.84 145.14 31.80 C 145.59 31.98 146.50 32.35 146.96 32.53 C 147.63 33.31 148.23 34.14 148.77 35.02 C 146.57 35.44 145.14 33.48 143.98 31.95 Z" />
</g>
<g id="#6f9a52ff">
<path fill="#6f9a52" opacity="1.00" d=" M 21.09 32.82 C 21.65 33.48 22.22 34.15 22.78 34.82 C 22.25 35.52 21.71 36.22 21.17 36.92 C 18.75 37.23 16.32 37.58 13.88 37.57 C 16.22 35.89 18.63 34.30 21.09 32.82 Z" />
<path fill="#6f9a52" opacity="1.00" d=" M 77.14 32.88 C 77.68 33.52 78.22 34.16 78.76 34.80 C 78.25 35.53 77.73 36.25 77.21 36.97 C 74.75 37.24 72.27 37.46 69.79 37.25 C 72.21 35.74 74.65 34.27 77.14 32.88 Z" />
<path fill="#6f9a52" opacity="1.00" d=" M 133.14 32.88 C 133.68 33.52 134.22 34.16 134.77 34.80 C 134.25 35.53 133.72 36.25 133.20 36.98 C 130.74 37.23 128.27 37.46 125.80 37.24 C 128.22 35.74 130.65 34.27 133.14 32.88 Z" />
<path fill="#6f9a52" opacity="1.00" d=" M 189.14 32.88 C 189.67 33.52 190.22 34.16 190.76 34.80 C 190.25 35.53 189.73 36.25 189.21 36.97 C 186.74 37.24 184.26 37.46 181.79 37.25 C 184.21 35.74 186.65 34.27 189.14 32.88 Z" />
</g>
<g id="#1d93e8ff">
<path fill="#1d93e8" opacity="1.00" d=" M 79.49 33.82 C 80.74 34.24 81.98 34.68 83.22 35.11 C 83.44 36.12 83.66 37.14 83.89 38.16 C 82.26 36.88 80.79 35.43 79.49 33.82 Z" />
<path fill="#1d93e8" opacity="1.00" d=" M 135.52 33.93 C 136.46 34.07 137.41 34.21 138.35 34.36 C 138.89 35.62 139.44 36.88 139.97 38.15 C 138.32 36.93 136.86 35.47 135.52 33.93 Z" />
<path fill="#1d93e8" opacity="1.00" d=" M 191.49 33.82 C 192.73 34.24 193.97 34.68 195.22 35.11 C 195.44 36.13 195.66 37.15 195.89 38.17 C 194.27 36.89 192.79 35.42 191.49 33.82 Z" />
</g>
<g id="#9cbbd9ff">
<path fill="#9cbbd9" opacity="1.00" d=" M 91.05 33.05 C 91.66 33.14 92.89 33.31 93.50 33.39 C 95.07 33.65 96.63 33.97 98.19 34.28 C 96.49 34.79 94.74 35.14 93.00 35.48 C 92.35 34.66 91.70 33.86 91.05 33.05 Z" />
<path fill="#9cbbd9" opacity="1.00" d=" M 146.96 32.53 C 147.63 32.70 148.98 33.06 149.66 33.23 C 151.11 33.59 152.57 33.94 154.04 34.26 C 152.30 34.63 150.54 34.86 148.77 35.02 C 148.23 34.14 147.63 33.31 146.96 32.53 Z" />
<path fill="#9cbbd9" opacity="1.00" d=" M 203.05 33.05 C 203.66 33.14 204.89 33.31 205.50 33.39 C 207.07 33.65 208.63 33.97 210.19 34.28 C 208.48 34.79 206.74 35.14 205.00 35.48 C 204.35 34.66 203.70 33.86 203.05 33.05 Z" />
</g>
<g id="#89aed5fe">
<path fill="#89aed5" opacity="1.00" d=" M 5.10 36.32 C 5.38 36.00 5.94 35.38 6.22 35.06 C 6.66 35.09 7.54 35.14 7.97 35.16 C 8.44 35.43 9.37 35.97 9.83 36.24 L 10.20 36.80 C 8.52 37.52 6.69 37.05 5.10 36.32 Z" />
</g>
<g id="#1f92e6ff">
<path fill="#1f92e6" opacity="1.00" d=" M 60.46 35.60 C 61.00 35.67 62.08 35.80 62.61 35.87 L 63.47 36.01 L 64.51 36.27 L 65.38 36.56 C 66.05 38.31 67.42 39.73 69.27 40.20 C 65.48 41.32 62.89 37.87 60.46 35.60 Z" />
<path fill="#1f92e6" opacity="1.00" d=" M 172.46 35.60 C 173.00 35.67 174.08 35.80 174.61 35.87 L 175.47 36.01 L 176.51 36.27 L 177.38 36.56 C 178.05 38.31 179.42 39.73 181.27 40.20 C 177.48 41.32 174.89 37.87 172.46 35.60 Z" />
</g>
<g id="#2191e1ff">
<path fill="#2191e1" opacity="1.00" d=" M 3.94 37.69 C 4.23 37.35 4.81 36.66 5.10 36.32 C 6.69 37.05 8.52 37.52 10.20 36.80 C 10.39 37.10 10.78 37.70 10.98 37.99 C 10.55 39.48 12.00 40.75 13.35 39.80 C 13.86 39.67 14.89 39.41 15.40 39.28 C 15.18 39.51 14.75 39.96 14.53 40.19 C 13.83 40.38 12.42 40.76 11.71 40.94 C 11.35 41.04 10.62 41.23 10.26 41.32 C 8.13 40.15 6.03 38.92 3.94 37.69 Z" />
</g>
<g id="#396ec2ff">
<path fill="#396ec2" opacity="1.00" d=" M 9.83 36.24 C 11.16 36.76 12.50 37.22 13.88 37.57 C 16.32 37.58 18.75 37.23 21.17 36.92 C 20.30 37.69 19.42 38.46 18.54 39.22 C 17.49 38.92 16.44 38.94 15.40 39.28 C 14.89 39.41 13.86 39.67 13.35 39.80 C 12.75 39.35 11.57 38.45 10.98 37.99 C 10.78 37.70 10.39 37.10 10.20 36.80 L 9.83 36.24 Z" />
</g>
<g id="#406fb8ff">
<path fill="#406fb8" opacity="1.00" d=" M 64.51 36.27 C 66.26 36.65 68.01 37.01 69.79 37.25 C 72.27 37.46 74.75 37.24 77.21 36.97 C 76.28 37.71 75.36 38.44 74.43 39.16 C 73.29 38.57 72.15 38.59 71.00 39.23 L 70.26 39.54 C 69.00 38.06 67.20 37.17 65.38 36.56 L 64.51 36.27 Z" />
<path fill="#406fb8" opacity="1.00" d=" M 120.46 36.20 C 122.23 36.61 124.00 36.98 125.80 37.24 C 128.27 37.46 130.74 37.23 133.20 36.98 C 132.29 37.74 131.38 38.50 130.46 39.25 C 129.38 38.68 128.30 38.67 127.20 39.22 L 126.30 39.62 C 125.00 38.01 123.09 37.15 121.19 36.50 L 120.46 36.20 Z" />
<path fill="#406fb8" opacity="1.00" d=" M 176.51 36.27 C 178.26 36.65 180.01 37.01 181.79 37.25 C 184.26 37.46 186.74 37.24 189.21 36.97 C 188.28 37.71 187.36 38.44 186.43 39.16 C 185.29 38.57 184.15 38.59 183.00 39.23 L 182.26 39.54 C 181.00 38.06 179.20 37.17 177.38 36.56 L 176.51 36.27 Z" />
</g>
<g id="#1e93e6fe">
<path fill="#1e93e6" opacity="1.00" d=" M 118.76 36.34 L 118.89 35.86 L 119.50 35.96 L 120.46 36.20 L 121.19 36.50 C 122.06 38.12 123.19 39.89 125.21 40.10 C 124.58 40.37 123.30 40.92 122.66 41.20 C 121.71 40.61 120.75 40.03 119.79 39.46 C 119.44 38.42 119.08 37.39 118.76 36.34 Z" />
</g>
<g id="#97c26eff">
<path fill="#97c26e" opacity="1.00" d=" M 21.17 36.92 L 21.68 37.26 C 22.79 38.45 23.93 39.61 25.23 40.61 C 25.03 41.20 24.64 42.39 24.45 42.99 C 22.37 42.59 20.30 42.20 18.23 41.76 L 18.29 41.24 C 18.35 40.73 18.48 39.73 18.54 39.22 C 19.42 38.46 20.30 37.69 21.17 36.92 Z" />
<path fill="#97c26e" opacity="1.00" d=" M 77.21 36.97 L 77.69 37.29 C 78.80 38.47 79.94 39.64 81.24 40.61 C 81.04 41.19 80.65 42.35 80.45 42.93 C 78.37 42.61 76.29 42.28 74.22 41.90 L 74.28 41.39 C 74.32 40.83 74.39 39.72 74.43 39.16 C 75.36 38.44 76.28 37.71 77.21 36.97 Z" />
<path fill="#97c26e" opacity="1.00" d=" M 133.20 36.98 L 133.68 37.29 C 134.79 38.47 135.94 39.63 137.24 40.61 C 137.04 41.19 136.64 42.36 136.44 42.95 C 134.36 42.62 132.28 42.24 130.20 41.83 L 130.27 41.32 C 130.31 40.80 130.41 39.77 130.46 39.25 C 131.38 38.50 132.29 37.74 133.20 36.98 Z" />
<path fill="#97c26e" opacity="1.00" d=" M 189.21 36.97 L 189.69 37.29 C 190.79 38.47 191.94 39.63 193.24 40.60 C 193.04 41.18 192.65 42.34 192.45 42.93 C 190.36 42.61 188.29 42.28 186.22 41.90 L 186.28 41.39 C 186.32 40.83 186.39 39.72 186.43 39.16 C 187.36 38.44 188.28 37.71 189.21 36.97 Z" />
</g>
<g id="#a2d650ff">
<path fill="#a2d650" opacity="1.00" d=" M 21.68 37.26 C 23.91 38.02 26.10 38.87 28.34 39.61 C 27.56 39.86 26.01 40.36 25.23 40.61 C 23.93 39.61 22.79 38.45 21.68 37.26 Z" />
<path fill="#a2d650" opacity="1.00" d=" M 77.69 37.29 C 79.91 38.05 82.12 38.87 84.35 39.60 C 83.57 39.85 82.02 40.35 81.24 40.61 C 79.94 39.64 78.80 38.47 77.69 37.29 Z" />
<path fill="#a2d650" opacity="1.00" d=" M 133.68 37.29 C 135.91 38.03 138.11 38.88 140.35 39.60 C 139.57 39.85 138.02 40.36 137.24 40.61 C 135.94 39.63 134.79 38.47 133.68 37.29 Z" />
<path fill="#a2d650" opacity="1.00" d=" M 189.69 37.29 C 191.91 38.04 194.11 38.87 196.34 39.61 C 195.57 39.86 194.02 40.36 193.24 40.60 C 191.94 39.63 190.79 38.47 189.69 37.29 Z" />
</g>
<g id="#79b5e5ff">
<path fill="#79b5e5" opacity="1.00" d=" M 10.98 37.99 C 11.57 38.45 12.75 39.35 13.35 39.80 C 12.00 40.75 10.55 39.48 10.98 37.99 Z" />
</g>
<g id="#89abc8ff">
<path fill="#89abc8" opacity="1.00" d=" M 15.40 39.28 C 16.44 38.94 17.49 38.92 18.54 39.22 C 18.48 39.73 18.35 40.73 18.29 41.24 C 16.99 41.09 15.80 40.47 14.53 40.19 C 14.75 39.96 15.18 39.51 15.40 39.28 Z" />
</g>
<g id="#2390e3ff">
<path fill="#2390e3" opacity="1.00" d=" M 70.26 39.54 L 71.00 39.23 C 72.11 39.92 73.14 40.74 74.28 41.39 C 73.73 41.55 72.62 41.87 72.07 42.03 C 71.13 41.65 70.43 41.01 69.97 40.10 L 70.26 39.54 Z" />
<path fill="#2390e3" opacity="1.00" d=" M 182.26 39.54 L 183.00 39.23 C 184.11 39.92 185.14 40.74 186.28 41.39 C 185.73 41.55 184.62 41.87 184.07 42.03 C 183.13 41.65 182.43 41.01 181.97 40.10 L 182.26 39.54 Z" />
</g>
<g id="#a1afbdff">
<path fill="#a1afbd" opacity="1.00" d=" M 71.00 39.23 C 72.15 38.59 73.29 38.57 74.43 39.16 C 74.39 39.72 74.32 40.83 74.28 41.39 C 73.14 40.74 72.11 39.92 71.00 39.23 Z" />
<path fill="#a1afbd" opacity="1.00" d=" M 127.20 39.22 C 128.30 38.67 129.38 38.68 130.46 39.25 C 130.41 39.77 130.31 40.80 130.27 41.32 C 129.09 40.88 127.95 40.26 127.20 39.22 Z" />
<path fill="#a1afbd" opacity="1.00" d=" M 183.00 39.23 C 184.15 38.59 185.29 38.57 186.43 39.16 C 186.39 39.72 186.32 40.83 186.28 41.39 C 185.14 40.74 184.11 39.92 183.00 39.23 Z" />
</g>
<g id="#3983d0ff">
<path fill="#3983d0" opacity="1.00" d=" M 126.30 39.62 L 127.20 39.22 C 127.95 40.26 129.09 40.88 130.27 41.32 C 129.00 41.59 127.77 42.12 126.81 43.00 C 126.40 43.31 125.58 43.93 125.17 44.25 C 125.59 45.70 126.02 47.15 126.49 48.59 C 124.66 46.45 123.65 43.79 122.66 41.20 C 123.30 40.92 124.58 40.37 125.21 40.10 C 125.49 39.98 126.03 39.74 126.30 39.62 Z" />
</g>
<g id="#2d8ad5fe">
<path fill="#2d8ad5" opacity="1.00" d=" M 14.53 40.19 C 15.80 40.47 16.99 41.09 18.29 41.24 C 16.81 41.83 15.56 42.96 14.48 44.11 C 14.20 42.82 14.26 41.48 14.53 40.19 Z" />
</g>
<g id="#86ae5eff">
<path fill="#86ae5e" opacity="1.00" d=" M 25.23 40.61 C 26.01 40.36 27.56 39.86 28.34 39.61 C 29.78 40.05 31.24 40.45 32.71 40.78 C 33.73 42.04 34.75 43.30 35.80 44.53 C 34.90 44.50 34.00 44.46 33.11 44.41 C 32.10 43.30 31.07 42.18 29.82 41.35 C 25.72 42.73 22.08 45.24 17.87 46.34 C 16.95 45.95 16.06 45.51 15.17 45.06 C 16.72 44.61 17.66 43.17 18.23 41.76 C 20.30 42.20 22.37 42.59 24.45 42.99 C 24.64 42.39 25.03 41.20 25.23 40.61 Z" />
</g>
<g id="#93be6bff">
<path fill="#93be6b" opacity="1.00" d=" M 32.71 40.78 C 36.62 40.89 40.51 41.27 44.31 42.23 C 42.76 42.95 41.24 43.74 39.70 44.47 C 38.40 44.51 37.10 44.54 35.80 44.53 C 34.75 43.30 33.73 42.04 32.71 40.78 Z" />
<path fill="#93be6b" opacity="1.00" d=" M 88.75 40.81 C 92.70 40.96 96.69 41.08 100.55 42.04 C 99.17 42.79 97.79 43.54 96.41 44.30 C 94.89 44.49 93.37 44.62 91.84 44.66 C 90.78 43.39 89.75 42.11 88.75 40.81 Z" />
<path fill="#93be6b" opacity="1.00" d=" M 144.74 40.80 C 148.71 40.98 152.68 41.22 156.60 41.94 C 155.18 42.69 153.79 43.46 152.39 44.24 C 150.88 44.46 149.36 44.61 147.84 44.67 C 146.78 43.40 145.76 42.10 144.74 40.80 Z" />
<path fill="#93be6b" opacity="1.00" d=" M 200.73 40.77 C 204.59 40.93 208.45 41.27 212.24 42.12 C 210.94 42.79 209.67 43.51 208.41 44.24 C 206.89 44.45 205.37 44.62 203.84 44.68 C 202.78 43.40 201.75 42.09 200.73 40.77 Z" />
</g>
<g id="#85ae5bff">
<path fill="#85ae5b" opacity="1.00" d=" M 81.24 40.61 C 82.02 40.35 83.57 39.85 84.35 39.60 C 85.80 40.05 87.26 40.47 88.75 40.81 C 89.75 42.11 90.78 43.39 91.84 44.66 C 90.92 44.59 90.01 44.51 89.10 44.43 C 88.09 43.31 87.07 42.16 85.80 41.32 C 81.83 42.50 78.54 45.73 74.19 45.56 C 73.54 45.45 72.23 45.24 71.58 45.13 C 72.66 44.23 73.55 43.13 74.22 41.90 C 76.29 42.28 78.37 42.61 80.45 42.93 C 80.65 42.35 81.04 41.19 81.24 40.61 Z" />
<path fill="#85ae5b" opacity="1.00" d=" M 137.24 40.61 C 138.02 40.36 139.57 39.85 140.35 39.60 C 141.80 40.04 143.26 40.46 144.74 40.80 C 145.76 42.10 146.78 43.40 147.84 44.67 C 146.92 44.60 146.01 44.51 145.10 44.43 C 144.09 43.30 143.06 42.16 141.80 41.31 C 137.86 42.50 134.60 45.66 130.29 45.59 C 129.63 45.45 128.29 45.19 127.62 45.05 C 128.68 44.15 129.52 43.04 130.20 41.83 C 132.28 42.24 134.36 42.62 136.44 42.95 C 136.64 42.36 137.04 41.19 137.24 40.61 Z" />
<path fill="#85ae5b" opacity="1.00" d=" M 193.24 40.60 C 194.02 40.36 195.57 39.86 196.34 39.61 C 197.79 40.05 199.25 40.45 200.73 40.77 C 201.75 42.09 202.78 43.40 203.84 44.68 C 202.92 44.60 202.01 44.52 201.09 44.43 C 200.09 43.30 199.06 42.16 197.80 41.32 C 193.83 42.50 190.54 45.73 186.19 45.56 C 185.54 45.45 184.23 45.24 183.58 45.13 C 184.66 44.23 185.55 43.13 186.22 41.90 C 188.29 42.28 190.36 42.61 192.45 42.93 C 192.65 42.34 193.04 41.18 193.24 40.60 Z" />
</g>
<g id="#7b7c52ff">
<path fill="#7b7c52" opacity="1.00" d=" M 14.48 44.11 C 15.56 42.96 16.81 41.83 18.29 41.24 L 18.23 41.76 C 17.66 43.17 16.72 44.61 15.17 45.06 L 14.60 44.77 L 14.48 44.11 Z" />
<path fill="#7b7c52" opacity="1.00" d=" M 72.07 42.03 C 72.62 41.87 73.73 41.55 74.28 41.39 L 74.22 41.90 C 73.55 43.13 72.66 44.23 71.58 45.13 C 71.41 44.64 71.07 43.64 70.89 43.15 C 71.19 42.87 71.77 42.31 72.07 42.03 Z" />
<path fill="#7b7c52" opacity="1.00" d=" M 126.81 43.00 C 127.77 42.12 129.00 41.59 130.27 41.32 L 130.20 41.83 C 129.52 43.04 128.68 44.15 127.62 45.05 C 127.42 44.54 127.01 43.51 126.81 43.00 Z" />
<path fill="#7b7c52" opacity="1.00" d=" M 184.07 42.03 C 184.62 41.87 185.73 41.55 186.28 41.39 L 186.22 41.90 C 185.55 43.13 184.66 44.23 183.58 45.13 C 183.41 44.64 183.07 43.64 182.89 43.15 C 183.19 42.87 183.77 42.31 184.07 42.03 Z" />
</g>
<g id="#709b52ff">
<path fill="#709b52" opacity="1.00" d=" M 17.87 46.34 C 22.08 45.24 25.72 42.73 29.82 41.35 C 31.07 42.18 32.10 43.30 33.11 44.41 C 29.83 43.72 27.10 45.79 24.66 47.63 C 23.60 46.27 21.70 46.10 20.18 46.66 L 19.29 46.88 C 18.93 46.74 18.22 46.47 17.87 46.34 Z" />
<path fill="#709b52" opacity="1.00" d=" M 74.19 45.56 C 78.54 45.73 81.83 42.50 85.80 41.32 C 87.07 42.16 88.09 43.31 89.10 44.43 C 86.16 43.84 83.57 45.50 81.18 46.94 C 80.34 46.95 78.68 46.97 77.85 46.98 C 77.11 47.02 75.64 47.08 74.90 47.11 C 74.72 46.72 74.37 45.95 74.19 45.56 Z" />
<path fill="#709b52" opacity="1.00" d=" M 130.29 45.59 C 134.60 45.66 137.86 42.50 141.80 41.31 C 143.06 42.16 144.09 43.30 145.10 44.43 C 142.15 43.84 139.56 45.50 137.17 46.95 C 136.32 46.93 134.62 46.89 133.78 46.86 C 133.02 46.98 131.52 47.20 130.77 47.31 C 130.65 46.88 130.41 46.02 130.29 45.59 Z" />
<path fill="#709b52" opacity="1.00" d=" M 186.19 45.56 C 190.54 45.73 193.83 42.50 197.80 41.32 C 199.06 42.16 200.09 43.30 201.09 44.43 C 198.15 43.84 195.57 45.50 193.18 46.94 C 192.34 46.95 190.68 46.97 189.85 46.98 C 189.11 47.02 187.64 47.08 186.90 47.11 C 186.72 46.72 186.37 45.95 186.19 45.56 Z" />
</g>
<g id="#417dc8fe">
<path fill="#417dc8" opacity="1.00" d=" M 157.49 42.04 C 159.06 42.61 160.57 43.29 162.10 43.96 C 161.83 44.31 161.30 45.01 161.04 45.36 C 159.88 44.35 157.34 43.38 156.51 45.21 C 156.94 46.65 158.89 46.27 160.04 46.26 C 153.56 48.25 146.65 47.95 139.99 48.89 C 143.50 50.96 146.81 53.35 149.91 56.00 L 139.46 56.00 C 139.03 55.53 138.17 54.59 137.74 54.12 C 139.71 53.89 143.66 53.42 145.64 53.18 C 139.95 50.34 133.43 50.64 127.43 48.84 C 131.27 48.89 135.16 49.08 138.94 48.35 C 139.14 47.99 139.52 47.27 139.71 46.90 C 140.60 46.97 142.36 47.10 143.24 47.16 C 144.42 47.33 145.60 47.26 146.76 46.95 C 148.28 46.67 149.80 46.42 151.33 46.26 C 154.15 47.53 155.52 43.63 151.97 44.88 L 152.39 44.24 C 153.79 43.46 155.18 42.69 156.60 41.94 L 157.49 42.04 Z" />
</g>
<g id="#3275ccff">
<path fill="#3275cc" opacity="1.00" d=" M 24.66 47.63 C 27.10 45.79 29.83 43.72 33.11 44.41 C 34.00 44.46 34.90 44.50 35.80 44.53 C 37.10 44.54 38.40 44.51 39.70 44.47 L 40.38 44.46 C 39.31 45.20 38.32 46.04 37.36 46.92 C 36.89 46.94 35.95 46.98 35.48 47.00 C 33.58 47.09 31.68 47.15 29.79 47.18 C 29.20 47.16 28.02 47.11 27.43 47.08 C 26.73 47.22 25.35 47.49 24.66 47.63 Z" />
</g>
<g id="#2395e6ff">
<path fill="#2395e6" opacity="1.00" d=" M 68.39 45.97 C 69.21 45.02 70.03 44.06 70.89 43.15 C 71.07 43.64 71.41 44.64 71.58 45.13 C 71.87 46.67 73.54 47.15 74.90 47.11 C 75.42 48.61 77.52 48.61 77.85 46.98 C 78.68 46.97 80.34 46.95 81.18 46.94 C 81.62 47.29 82.51 48.00 82.95 48.35 C 78.02 49.86 72.70 48.59 68.39 45.97 Z" />
<path fill="#2395e6" opacity="1.00" d=" M 125.17 44.25 C 125.58 43.93 126.40 43.31 126.81 43.00 C 127.01 43.51 127.42 44.54 127.62 45.05 C 128.03 46.46 129.42 47.14 130.77 47.31 C 131.57 48.54 133.54 48.52 133.78 46.86 C 134.62 46.89 136.32 46.93 137.17 46.95 C 137.61 47.30 138.50 48.00 138.94 48.35 C 135.16 49.08 131.27 48.89 127.43 48.84 L 126.49 48.59 C 126.02 47.15 125.59 45.70 125.17 44.25 Z" />
<path fill="#2395e6" opacity="1.00" d=" M 180.39 45.97 C 181.21 45.02 182.03 44.06 182.89 43.15 C 183.07 43.64 183.41 44.64 183.58 45.13 C 183.87 46.67 185.54 47.15 186.90 47.11 C 187.42 48.61 189.52 48.61 189.85 46.98 C 190.68 46.97 192.34 46.95 193.18 46.94 C 193.62 47.29 194.51 48.00 194.95 48.35 C 190.02 49.86 184.70 48.59 180.39 45.97 Z" />
</g>
<g id="#3778ccff">
<path fill="#3778cc" opacity="1.00" d=" M 81.18 46.94 C 83.57 45.50 86.16 43.84 89.10 44.43 C 90.01 44.51 90.92 44.59 91.84 44.66 C 93.37 44.62 94.89 44.49 96.41 44.30 L 95.99 44.89 C 95.82 45.23 95.49 45.92 95.33 46.26 C 93.80 46.42 92.28 46.67 90.76 46.95 C 90.31 45.10 87.51 45.33 87.24 47.16 C 86.36 47.10 84.60 46.97 83.72 46.90 C 83.08 46.91 81.81 46.93 81.18 46.94 Z" />
<path fill="#3778cc" opacity="1.00" d=" M 137.17 46.95 C 139.56 45.50 142.15 43.84 145.10 44.43 C 146.01 44.51 146.92 44.60 147.84 44.67 C 149.36 44.61 150.88 44.46 152.39 44.24 L 151.97 44.88 C 151.81 45.22 151.49 45.92 151.33 46.26 C 149.80 46.42 148.28 46.67 146.76 46.95 C 146.31 45.10 143.51 45.33 143.24 47.16 C 142.36 47.10 140.60 46.97 139.71 46.90 C 139.08 46.92 137.80 46.94 137.17 46.95 Z" />
<path fill="#3778cc" opacity="1.00" d=" M 193.18 46.94 C 195.57 45.50 198.15 43.84 201.09 44.43 C 202.01 44.52 202.92 44.60 203.84 44.68 C 205.37 44.62 206.89 44.45 208.41 44.24 L 207.98 44.88 C 207.82 45.22 207.49 45.92 207.33 46.27 C 205.80 46.42 204.28 46.67 202.77 46.95 C 202.31 45.10 199.51 45.33 199.24 47.16 C 198.36 47.10 196.60 46.97 195.72 46.90 C 195.08 46.91 193.81 46.93 193.18 46.94 Z" />
</g>
<g id="#94bd78ff">
<path fill="#94bd78" opacity="1.00" d=" M 212.01 46.17 C 212.93 45.12 213.87 44.08 214.81 43.04 C 215.73 44.05 216.62 45.09 217.52 46.13 L 216.41 46.39 C 214.94 46.34 213.47 46.27 212.01 46.17 Z" />
</g>
<g id="#97c270fe">
<path fill="#97c270" opacity="1.00" d=" M 103.95 46.46 C 100.88 46.94 99.98 44.31 103.20 43.56 C 104.04 44.22 104.49 45.11 104.54 46.23 L 103.95 46.46 Z" />
<path fill="#97c270" opacity="1.00" d=" M 156.51 45.21 C 157.34 43.38 159.88 44.35 161.04 45.36 C 160.79 45.58 160.29 46.03 160.04 46.26 C 158.89 46.27 156.94 46.65 156.51 45.21 Z" />
</g>
<g id="#4575cbff">
<path fill="#4575cb" opacity="1.00" d=" M 163.82 44.25 C 164.59 43.28 166.40 43.28 167.18 44.25 C 167.35 45.92 163.65 45.92 163.82 44.25 Z" />
</g>
<g id="#2896e5ff">
<path fill="#2896e5" opacity="1.00" d=" M 12.12 45.41 C 12.74 45.25 13.98 44.93 14.60 44.77 L 15.17 45.06 C 16.06 45.51 16.95 45.95 17.87 46.34 C 18.22 46.47 18.93 46.74 19.29 46.88 C 18.98 47.25 18.37 47.99 18.07 48.36 C 16.22 48.06 14.37 47.75 12.52 47.45 C 12.42 46.94 12.22 45.92 12.12 45.41 Z" />
</g>
<g id="#72b3e7ff">
<path fill="#72b3e7" opacity="1.00" d=" M 29.79 47.18 C 31.68 47.15 33.58 47.09 35.48 47.00 C 33.58 47.08 31.69 47.17 29.79 47.18 Z" />
</g>
<g id="#427acbff">
<path fill="#427acb" opacity="1.00" d=" M 2.34 47.91 C 4.17 47.43 6.02 46.97 7.89 46.65 C 6.80 47.96 5.69 49.27 4.80 50.73 C 6.91 52.16 9.02 53.59 11.15 54.99 C 8.15 54.74 5.16 54.44 2.18 54.14 C 2.73 53.34 3.29 52.54 3.86 51.74 C 3.34 50.47 2.85 49.19 2.34 47.91 Z" />
</g>
<g id="#99bad9fe">
<path fill="#99bad9" opacity="1.00" d=" M 18.07 48.36 C 18.37 47.99 18.98 47.25 19.29 46.88 L 20.18 46.66 C 21.43 47.34 22.68 48.04 24.03 48.51 C 21.93 49.26 19.94 49.21 18.07 48.36 Z" />
</g>
<g id="#4178ccff">
<path fill="#4178cc" opacity="1.00" d=" M 82.01 50.58 C 85.84 52.31 89.60 54.21 93.41 56.00 L 83.46 56.00 C 84.68 55.65 85.91 55.29 87.14 54.94 C 85.46 53.45 83.75 51.99 82.01 50.58 Z" />
<path fill="#4178cc" opacity="1.00" d=" M 194.01 50.58 C 197.84 52.31 201.59 54.21 205.40 56.00 L 195.46 56.00 C 196.68 55.65 197.91 55.29 199.14 54.94 C 197.46 53.45 195.75 51.99 194.01 50.58 Z" />
</g>
<g id="#4379cbff">
<path fill="#4379cb" opacity="1.00" d=" M 131.16 51.34 C 133.37 52.61 128.96 55.11 128.47 52.85 C 128.59 51.63 130.12 51.13 131.16 51.34 Z" />
<path fill="#4379cb" opacity="1.00" d=" M 75.16 52.34 C 77.37 53.61 72.97 56.11 72.47 53.85 C 72.59 52.63 74.12 52.13 75.16 52.34 Z" />
<path fill="#4379cb" opacity="1.00" d=" M 187.16 52.34 C 189.37 53.61 184.96 56.11 184.47 53.85 C 184.58 52.63 186.12 52.13 187.16 52.34 Z" />
</g>
</svg>
