<?xml version="1.0" encoding="UTF-8" ?>
<!DOCTYPE svg PUBLIC "-//W3C//DTD SVG 1.1//EN" "http://www.w3.org/Graphics/SVG/1.1/DTD/svg11.dtd">
<svg width="224pt" height="56pt" viewBox="0 0 224 56" version="1.1" xmlns="http://www.w3.org/2000/svg">
<g id="#3c6bbeff">
<path fill="#3c6bbe" opacity="1.00" d=" M 0.00 0.00 L 25.43 0.00 C 26.52 1.08 27.57 2.21 28.62 3.34 C 22.00 4.17 14.95 5.82 8.50 3.34 C 9.43 5.15 10.41 6.96 10.97 8.92 C 8.98 11.13 6.45 12.76 4.17 14.64 C 8.14 14.23 12.14 14.11 16.13 14.06 C 14.49 12.21 12.86 10.35 11.26 8.46 C 14.24 6.69 17.61 5.51 21.12 5.99 C 27.10 6.87 32.87 1.61 38.67 4.65 C 43.63 7.33 49.24 6.72 54.65 6.69 C 56.07 4.73 57.52 2.80 59.01 0.89 C 55.93 2.23 52.86 3.85 49.48 4.25 C 42.77 5.27 36.75 1.50 30.46 0.00 L 85.39 0.00 C 79.74 5.41 71.52 2.78 64.71 2.22 C 65.52 4.09 66.42 5.95 66.83 7.96 C 64.98 10.22 62.39 11.75 60.19 13.65 C 64.16 13.23 68.15 13.11 72.13 13.06 C 70.51 11.23 68.89 9.39 67.30 7.53 C 71.16 4.52 76.04 4.08 80.56 5.76 C 83.67 3.50 86.82 0.79 91.01 1.07 C 95.08 1.86 98.10 5.44 102.33 5.69 C 105.22 6.05 108.13 6.34 111.04 6.65 C 111.43 5.67 111.83 4.69 112.22 3.70 C 105.92 3.41 99.35 3.43 93.83 0.00 L 138.36 0.00 C 137.75 0.60 136.52 1.79 135.91 2.39 C 130.84 2.04 125.76 1.87 120.72 1.26 C 121.53 3.11 122.41 4.96 122.83 6.95 C 120.97 9.22 118.39 10.75 116.19 12.65 C 120.16 12.23 124.15 12.11 128.13 12.06 C 126.51 10.23 124.89 8.39 123.30 6.53 C 127.37 3.26 132.54 3.18 137.23 5.02 C 138.44 3.31 139.65 1.60 141.01 0.00 L 151.31 0.00 C 152.60 1.70 153.82 3.55 155.61 4.78 C 159.46 5.81 163.47 6.17 167.42 6.72 C 167.68 5.58 167.95 4.43 168.21 3.29 C 164.94 3.50 161.68 3.71 158.41 3.88 C 157.21 2.57 156.02 1.26 154.78 0.00 L 197.43 0.00 C 192.15 4.49 184.90 2.99 178.60 4.34 C 178.44 6.18 178.27 8.01 178.09 9.85 C 176.00 11.04 173.91 12.23 171.83 13.43 C 175.93 13.18 180.04 13.10 184.15 13.10 C 182.52 11.25 180.90 9.40 179.31 7.52 C 183.17 4.52 188.04 4.08 192.56 5.76 C 195.67 3.50 198.82 0.79 203.01 1.06 C 207.08 1.85 210.08 5.50 214.32 5.65 C 217.55 5.99 220.79 6.16 224.00 6.60 L 224.00 9.26 C 220.50 9.58 216.90 9.64 213.51 10.63 C 211.33 11.79 209.77 13.81 207.96 15.45 C 213.45 14.83 218.57 12.58 224.00 11.67 L 224.00 27.77 C 219.32 27.97 214.64 26.74 211.84 22.80 C 214.62 21.20 217.45 19.67 220.27 18.12 C 216.78 18.84 213.30 19.59 209.81 20.32 C 211.78 23.97 214.25 27.30 216.79 30.58 C 216.16 32.02 215.53 33.46 214.90 34.90 C 213.14 34.01 211.39 33.12 209.64 32.21 C 209.08 33.10 208.52 33.98 207.97 34.87 C 212.75 36.76 217.73 38.08 222.69 39.42 C 221.07 37.50 218.15 36.00 218.12 33.23 C 219.65 31.01 222.03 29.60 224.00 27.82 L 224.00 45.15 C 215.55 44.74 206.98 42.52 198.55 44.31 C 202.82 45.38 207.10 46.49 211.47 47.09 C 215.67 47.18 219.83 46.31 224.00 45.95 L 224.00 56.00 L 205.35 56.00 C 200.47 53.90 195.90 51.19 191.32 48.52 C 196.16 43.46 199.02 36.25 206.22 33.86 C 204.94 31.38 203.74 28.88 202.47 26.41 C 202.13 28.96 203.15 32.97 199.95 33.98 C 195.63 35.35 191.13 33.53 186.78 33.05 C 186.81 25.80 193.94 26.79 198.70 26.19 C 198.14 24.91 197.58 23.64 197.04 22.35 C 199.00 20.68 200.96 19.01 202.97 17.39 C 198.72 17.97 194.44 17.76 190.24 16.95 C 192.75 18.90 195.24 20.93 197.26 23.41 C 193.32 24.83 189.32 26.09 185.31 27.29 C 185.59 30.07 185.88 32.86 186.17 35.64 C 189.15 35.89 192.14 36.16 195.13 36.45 C 194.83 41.60 191.60 45.47 187.85 48.56 C 191.72 50.67 195.67 52.64 199.52 54.81 C 198.13 55.22 196.73 55.62 195.34 56.00 L 181.38 56.00 C 179.53 54.08 178.01 51.11 175.10 50.74 C 173.45 50.54 170.14 50.14 168.49 49.93 C 168.41 50.29 168.25 50.99 168.17 51.34 C 167.84 52.89 167.51 54.45 167.19 56.00 L 150.18 56.00 C 144.07 51.90 138.09 46.18 130.18 46.71 C 132.74 49.08 135.45 51.27 138.02 53.63 C 138.15 52.35 138.29 51.07 138.43 49.79 C 140.84 51.02 143.25 52.28 145.63 53.57 C 144.00 54.18 140.75 55.39 139.12 56.00 L 124.29 56.00 L 123.88 55.08 C 123.19 53.33 122.63 51.54 122.11 49.74 C 119.04 49.95 115.97 50.00 112.91 50.23 L 112.74 50.66 L 112.41 51.63 C 112.14 52.49 111.59 54.19 111.31 55.04 L 110.96 56.00 L 93.33 56.00 C 88.36 53.88 83.74 51.09 79.11 48.34 C 80.00 47.00 80.89 45.65 81.78 44.30 C 79.57 45.49 77.39 46.74 75.23 48.02 C 79.23 50.45 83.43 52.52 87.50 54.82 C 86.12 55.23 84.73 55.63 83.34 56.00 L 69.45 56.00 C 67.53 54.07 65.49 52.20 63.09 50.88 C 61.86 50.31 60.60 49.79 59.33 49.32 C 60.62 48.45 61.86 47.53 63.12 46.63 C 61.98 45.78 60.85 44.94 59.71 44.10 C 58.94 45.95 58.10 47.78 57.30 49.63 C 57.00 50.31 56.72 51.00 56.45 51.69 C 55.91 53.13 55.38 54.56 54.85 56.00 L 15.55 56.00 C 13.07 53.86 10.64 51.65 8.04 49.65 C 7.47 49.19 6.89 48.74 6.31 48.29 C 7.55 47.66 8.79 47.03 10.04 46.40 C 10.37 42.89 10.80 39.39 11.45 35.93 C 7.64 36.35 3.82 36.73 0.00 37.11 L 0.00 30.84 C 4.12 29.48 8.24 28.14 12.37 26.82 C 11.89 25.22 11.42 23.62 10.96 22.02 C 13.98 20.62 17.00 19.24 20.02 17.85 C 13.37 19.28 6.41 20.57 0.00 17.43 L 0.00 0.00 M 138.58 9.16 C 140.99 10.52 143.50 11.69 146.04 12.79 C 145.37 14.05 144.70 15.31 144.05 16.58 C 147.04 16.50 150.03 16.60 153.02 16.84 C 149.19 15.46 146.76 12.31 144.34 9.25 C 142.46 8.84 140.49 9.16 138.58 9.16 M 157.80 9.19 C 156.04 10.69 154.38 12.29 152.72 13.90 C 158.44 12.91 164.62 10.32 170.19 13.31 C 169.40 11.98 168.62 10.62 167.59 9.46 C 164.34 9.07 161.05 9.74 157.80 9.19 M 98.77 13.21 C 97.82 13.88 96.85 14.53 95.90 15.20 C 102.16 13.36 109.10 13.61 114.99 10.60 C 109.84 9.82 101.94 7.87 98.77 13.21 M 43.40 10.32 C 43.85 11.43 44.31 12.54 44.78 13.64 C 43.10 14.46 41.43 15.29 39.76 16.13 C 46.16 14.90 53.04 14.70 58.94 11.65 C 53.85 10.44 48.60 10.44 43.40 10.32 M 118.66 17.04 C 111.57 14.58 104.78 18.53 98.10 20.30 C 99.44 24.12 102.03 27.20 104.44 30.37 C 104.30 32.00 103.67 33.54 103.22 35.11 C 101.19 34.10 99.16 33.11 97.15 32.07 C 96.82 33.00 96.49 33.92 96.16 34.85 C 100.85 37.04 105.91 38.13 110.94 39.20 C 108.90 37.34 105.00 35.75 106.16 32.34 C 111.37 28.05 117.42 24.83 123.82 22.68 C 123.79 20.90 123.82 19.09 124.21 17.34 C 126.60 15.93 129.34 15.31 131.96 14.47 C 131.69 14.17 131.16 13.56 130.89 13.26 C 126.83 14.41 123.04 17.58 118.66 17.04 M 154.06 19.17 C 155.39 23.03 157.96 26.17 160.43 29.36 C 160.30 30.81 159.80 32.20 159.43 33.60 C 156.54 32.69 153.55 31.99 150.50 32.27 C 149.88 30.63 149.43 28.93 149.12 27.20 C 148.19 26.69 147.27 26.18 146.35 25.68 C 147.01 27.52 147.72 29.35 148.36 31.20 C 142.27 35.01 134.93 34.01 128.70 31.18 C 129.55 32.70 130.41 34.22 131.27 35.74 C 132.96 35.86 136.34 36.11 138.03 36.24 C 137.65 40.00 134.82 45.01 139.51 46.87 C 141.00 41.91 141.74 34.97 148.18 34.23 C 154.56 34.67 160.70 36.85 166.93 38.23 C 164.93 36.33 160.90 34.72 162.18 31.32 C 163.96 28.08 167.87 28.56 170.91 29.15 C 173.84 27.08 177.08 25.54 180.48 24.40 C 180.02 23.36 179.57 22.33 179.13 21.29 C 180.07 19.94 181.02 18.59 181.97 17.25 C 178.31 18.69 174.27 19.21 170.66 17.02 C 165.16 14.44 159.45 18.08 154.06 19.17 M 21.89 19.25 C 23.56 20.23 25.23 21.21 26.90 22.18 C 26.93 22.87 26.98 24.24 27.01 24.93 C 23.94 26.34 20.86 27.74 17.80 29.18 C 18.40 29.75 19.00 30.30 19.60 30.86 C 22.53 28.46 26.09 27.05 29.91 27.20 C 29.09 25.84 28.32 24.44 27.59 23.03 C 31.71 20.71 36.41 19.84 41.07 20.71 C 38.94 19.52 36.81 18.33 34.74 17.03 C 31.32 20.66 26.35 19.47 21.89 19.25 M 52.28 18.10 C 48.88 19.15 45.50 20.25 42.10 21.30 C 43.44 25.12 46.03 28.20 48.44 31.37 C 48.30 33.00 47.67 34.54 47.22 36.11 C 45.20 35.10 43.16 34.11 41.15 33.07 C 40.82 34.00 40.49 34.92 40.16 35.85 C 44.85 38.04 49.91 39.13 54.94 40.20 C 52.82 38.34 49.08 36.72 50.08 33.26 C 55.36 28.81 61.99 26.45 68.56 24.62 C 68.08 23.51 67.60 22.40 67.13 21.29 C 68.07 19.95 69.02 18.62 69.97 17.29 C 64.21 20.28 58.07 15.55 52.28 18.10 M 77.78 17.15 C 79.82 18.19 81.88 19.20 83.94 20.21 C 83.98 21.48 84.01 22.75 84.05 24.02 C 80.52 25.08 77.00 26.19 73.46 27.22 C 73.76 30.09 73.99 32.95 74.19 35.83 C 76.69 35.96 79.18 36.10 81.68 36.24 C 82.16 39.29 82.62 42.34 83.14 45.38 C 84.99 40.19 88.24 35.26 94.22 34.36 C 93.39 32.37 92.64 30.35 92.01 28.29 C 91.12 27.74 90.24 27.19 89.36 26.65 C 90.03 28.50 90.72 30.35 91.37 32.22 C 86.42 35.53 80.62 34.33 75.22 32.94 C 74.56 25.27 82.28 26.44 87.06 26.44 C 86.26 25.28 85.47 24.12 84.69 22.96 C 86.75 20.97 88.84 19.01 91.03 17.16 C 86.66 18.29 82.17 17.90 77.78 17.15 M 32.36 27.62 C 33.03 29.49 33.72 31.36 34.37 33.24 C 30.36 35.91 25.72 35.24 21.38 33.84 C 18.77 32.70 16.54 34.79 14.43 36.01 C 18.92 37.19 23.44 38.31 27.89 39.63 C 26.85 41.74 25.84 43.87 24.91 46.03 C 28.72 45.56 30.29 42.15 31.28 38.90 C 31.93 35.79 36.20 36.69 38.24 35.74 C 36.79 33.75 35.61 31.58 34.79 29.26 C 33.98 28.71 33.17 28.17 32.36 27.62 M 60.30 37.65 C 61.68 40.90 63.90 43.76 67.03 45.48 C 65.95 43.20 64.76 40.98 63.66 38.71 C 64.57 38.57 65.48 38.43 66.38 38.29 C 66.56 37.67 66.91 36.41 67.09 35.79 C 64.82 36.38 62.56 37.02 60.30 37.65 M 171.29 40.80 C 174.17 42.38 177.01 44.18 180.31 44.73 C 179.12 43.98 177.93 43.23 176.74 42.48 C 177.77 40.03 178.93 37.63 180.02 35.20 C 176.24 35.54 173.16 37.68 171.29 40.80 M 103.19 38.74 C 102.43 40.62 101.63 42.49 100.86 44.36 C 96.10 43.85 91.26 42.83 86.56 44.35 C 90.88 45.31 95.20 46.25 99.50 47.32 C 103.80 47.17 107.99 45.84 112.24 45.26 C 109.37 45.02 106.49 44.72 103.63 44.45 C 103.49 42.55 103.39 40.64 103.19 38.74 M 155.79 43.88 C 153.33 45.05 150.85 43.57 148.61 42.63 C 148.40 43.33 148.20 44.04 148.00 44.75 C 152.35 46.50 157.05 47.70 161.40 45.21 C 161.05 43.22 160.80 41.22 160.64 39.21 C 159.12 40.85 157.77 42.76 155.79 43.88 M 34.87 42.88 C 33.55 43.80 32.23 44.72 30.91 45.63 C 35.55 44.96 40.44 45.73 43.85 49.19 C 44.63 48.26 45.41 47.34 46.20 46.42 C 49.60 46.66 53.00 46.72 56.40 46.78 C 52.90 45.94 49.39 45.15 45.91 44.22 C 46.29 42.87 46.68 41.52 47.07 40.17 C 44.08 43.66 39.00 45.48 34.87 42.88 M 113.52 43.57 C 113.39 45.05 113.25 46.52 113.12 47.99 C 114.55 47.94 115.99 47.89 117.42 47.83 C 116.20 46.35 114.89 44.92 113.52 43.57 M 163.99 44.22 C 163.65 46.02 167.34 46.02 167.01 44.22 C 166.42 43.16 164.57 43.16 163.99 44.22 Z" />
</g>
<g id="#4179cbff">
<path fill="#4179cb" opacity="1.00" d=" M 25.43 0.00 L 30.46 0.00 C 36.75 1.50 42.77 5.27 49.48 4.25 C 52.86 3.85 55.93 2.23 59.01 0.89 C 57.52 2.80 56.07 4.73 54.65 6.69 C 49.24 6.72 43.63 7.33 38.67 4.65 C 32.87 1.61 27.10 6.87 21.12 5.99 C 17.61 5.51 14.24 6.69 11.26 8.46 C 12.86 10.35 14.49 12.21 16.13 14.06 C 12.14 14.11 8.14 14.23 4.17 14.64 C 6.45 12.76 8.98 11.13 10.97 8.92 C 10.41 6.96 9.43 5.15 8.50 3.34 C 14.95 5.82 22.00 4.17 28.62 3.34 C 27.57 2.21 26.52 1.08 25.43 0.00 Z" />
<path fill="#4179cb" opacity="1.00" d=" M 85.39 0.00 L 93.83 0.00 C 99.35 3.43 105.92 3.41 112.22 3.70 C 111.83 4.69 111.43 5.67 111.04 6.65 C 108.13 6.34 105.22 6.05 102.33 5.69 C 98.10 5.44 95.08 1.86 91.01 1.07 C 86.82 0.79 83.67 3.50 80.56 5.76 C 76.04 4.08 71.16 4.52 67.30 7.53 C 68.89 9.39 70.51 11.23 72.13 13.06 C 68.15 13.11 64.16 13.23 60.19 13.65 C 62.39 11.75 64.98 10.22 66.83 7.96 C 66.42 5.95 65.52 4.09 64.71 2.22 C 71.52 2.78 79.74 5.41 85.39 0.00 Z" />
<path fill="#4179cb" opacity="1.00" d=" M 197.43 0.00 L 205.84 0.00 C 211.28 3.44 217.77 3.42 224.00 3.70 L 224.00 6.60 C 220.79 6.16 217.55 5.99 214.32 5.65 C 210.08 5.50 207.08 1.85 203.01 1.06 C 198.82 0.79 195.67 3.50 192.56 5.76 C 188.04 4.08 183.17 4.52 179.31 7.52 C 180.90 9.40 182.52 11.25 184.15 13.10 C 180.04 13.10 175.93 13.18 171.83 13.43 C 173.91 12.23 176.00 11.04 178.09 9.85 C 178.27 8.01 178.44 6.18 178.60 4.34 C 184.90 2.99 192.15 4.49 197.43 0.00 Z" />
</g>
<g id="#4278caff">
<path fill="#4278ca" opacity="1.00" d=" M 138.36 0.00 L 141.01 0.00 C 139.65 1.60 138.44 3.31 137.23 5.02 C 132.54 3.18 127.37 3.26 123.30 6.53 C 124.89 8.39 126.51 10.23 128.13 12.06 C 124.15 12.11 120.16 12.23 116.19 12.65 C 118.39 10.75 120.97 9.22 122.83 6.95 C 122.41 4.96 121.53 3.11 120.72 1.26 C 125.76 1.87 130.84 2.04 135.91 2.39 C 136.52 1.79 137.75 0.60 138.36 0.00 Z" />
</g>
<g id="#4079ccff">
<path fill="#4079cc" opacity="1.00" d=" M 151.31 0.00 L 154.78 0.00 C 156.02 1.26 157.21 2.57 158.41 3.88 C 161.68 3.71 164.94 3.50 168.21 3.29 C 167.95 4.43 167.68 5.58 167.42 6.72 C 163.47 6.17 159.46 5.81 155.61 4.78 C 153.82 3.55 152.60 1.70 151.31 0.00 Z" />
</g>
<g id="#3c6abefe">
<path fill="#3c6abe" opacity="1.00" d=" M 205.84 0.00 L 224.00 0.00 L 224.00 3.70 C 217.77 3.42 211.28 3.44 205.84 0.00 Z" />
</g>
<g id="#4377caff">
<path fill="#4377ca" opacity="1.00" d=" M 138.58 9.16 C 140.49 9.16 142.46 8.84 144.34 9.25 C 146.76 12.31 149.19 15.46 153.02 16.84 C 150.03 16.60 147.04 16.50 144.05 16.58 C 144.70 15.31 145.37 14.05 146.04 12.79 C 143.50 11.69 140.99 10.52 138.58 9.16 Z" />
</g>
<g id="#407accff">
<path fill="#407acc" opacity="1.00" d=" M 157.80 9.19 C 161.05 9.74 164.34 9.07 167.59 9.46 C 168.62 10.62 169.40 11.98 170.19 13.31 C 164.62 10.32 158.44 12.91 152.72 13.90 C 154.38 12.29 156.04 10.69 157.80 9.19 Z" />
</g>
<g id="#427bcbff">
<path fill="#427bcb" opacity="1.00" d=" M 98.77 13.21 C 101.94 7.87 109.84 9.82 114.99 10.60 C 109.10 13.61 102.16 13.36 95.90 15.20 C 96.85 14.53 97.82 13.88 98.77 13.21 Z" />
<path fill="#427bcb" opacity="1.00" d=" M 213.51 10.63 C 216.90 9.64 220.50 9.58 224.00 9.26 L 224.00 11.67 C 218.57 12.58 213.45 14.83 207.96 15.45 C 209.77 13.81 211.33 11.79 213.51 10.63 Z" />
</g>
<g id="#437bccff">
<path fill="#437bcc" opacity="1.00" d=" M 43.40 10.32 C 48.60 10.44 53.85 10.44 58.94 11.65 C 53.04 14.70 46.16 14.90 39.76 16.13 C 41.43 15.29 43.10 14.46 44.78 13.64 C 44.31 12.54 43.85 11.43 43.40 10.32 Z" />
</g>
<g id="#4379caff">
<path fill="#4379ca" opacity="1.00" d=" M 118.66 17.04 C 123.04 17.58 126.83 14.41 130.89 13.26 C 131.16 13.56 131.69 14.17 131.96 14.47 C 129.34 15.31 126.60 15.93 124.21 17.34 C 123.82 19.09 123.79 20.90 123.82 22.68 C 117.42 24.83 111.37 28.05 106.16 32.34 C 105.00 35.75 108.90 37.34 110.94 39.20 C 105.91 38.13 100.85 37.04 96.16 34.85 C 96.49 33.92 96.82 33.00 97.15 32.07 C 99.16 33.11 101.19 34.10 103.22 35.11 C 103.67 33.54 104.30 32.00 104.44 30.37 C 102.03 27.20 99.44 24.12 98.10 20.30 C 104.78 18.53 111.57 14.58 118.66 17.04 M 100.88 21.69 C 100.88 22.59 100.89 24.39 100.89 25.29 C 103.43 26.27 105.98 28.24 108.82 27.70 C 113.45 25.78 117.84 23.31 122.38 21.17 C 116.00 16.41 107.58 18.76 100.88 21.69 Z" />
<path fill="#4379ca" opacity="1.00" d=" M 209.81 20.32 C 213.30 19.59 216.78 18.84 220.27 18.12 C 217.45 19.67 214.62 21.20 211.84 22.80 C 214.64 26.74 219.32 27.97 224.00 27.77 L 224.00 27.82 C 222.03 29.60 219.65 31.01 218.12 33.23 C 218.15 36.00 221.07 37.50 222.69 39.42 C 217.73 38.08 212.75 36.76 207.97 34.87 C 208.52 33.98 209.08 33.10 209.64 32.21 C 211.39 33.12 213.14 34.01 214.90 34.90 C 215.53 33.46 216.16 32.02 216.79 30.58 C 214.25 27.30 211.78 23.97 209.81 20.32 Z" />
</g>
<g id="#4479caff">
<path fill="#4479ca" opacity="1.00" d=" M 154.06 19.17 C 159.45 18.08 165.16 14.44 170.66 17.02 C 174.27 19.21 178.31 18.69 181.97 17.25 C 181.02 18.59 180.07 19.94 179.13 21.29 C 179.57 22.33 180.02 23.36 180.48 24.40 C 177.08 25.54 173.84 27.08 170.91 29.15 C 167.87 28.56 163.96 28.08 162.18 31.32 C 160.90 34.72 164.93 36.33 166.93 38.23 C 160.70 36.85 154.56 34.67 148.18 34.23 C 141.74 34.97 141.00 41.91 139.51 46.87 C 134.82 45.01 137.65 40.00 138.03 36.24 C 136.34 36.11 132.96 35.86 131.27 35.74 C 130.41 34.22 129.55 32.70 128.70 31.18 C 134.93 34.01 142.27 35.01 148.36 31.20 C 147.72 29.35 147.01 27.52 146.35 25.68 C 147.27 26.18 148.19 26.69 149.12 27.20 C 149.43 28.93 149.88 30.63 150.50 32.27 C 153.55 31.99 156.54 32.69 159.43 33.60 C 159.80 32.20 160.30 30.81 160.43 29.36 C 157.96 26.17 155.39 23.03 154.06 19.17 M 156.00 21.05 C 157.40 23.19 158.67 26.21 161.65 26.35 C 167.67 27.78 173.68 25.82 178.78 22.71 C 172.41 17.57 163.08 17.11 156.00 21.05 Z" />
</g>
<g id="#4378c9ff">
<path fill="#4378c9" opacity="1.00" d=" M 21.89 19.25 C 26.35 19.47 31.32 20.66 34.74 17.03 C 36.81 18.33 38.94 19.52 41.07 20.71 C 36.41 19.84 31.71 20.71 27.59 23.03 C 28.32 24.44 29.09 25.84 29.91 27.20 C 26.09 27.05 22.53 28.46 19.60 30.86 C 19.00 30.30 18.40 29.75 17.80 29.18 C 20.86 27.74 23.94 26.34 27.01 24.93 C 26.98 24.24 26.93 22.87 26.90 22.18 C 25.23 21.21 23.56 20.23 21.89 19.25 Z" />
</g>
<g id="#427acaff">
<path fill="#427aca" opacity="1.00" d=" M 52.28 18.10 C 58.07 15.55 64.21 20.28 69.97 17.29 C 69.02 18.62 68.07 19.95 67.13 21.29 C 67.60 22.40 68.08 23.51 68.56 24.62 C 61.99 26.45 55.36 28.81 50.08 33.26 C 49.08 36.72 52.82 38.34 54.94 40.20 C 49.91 39.13 44.85 38.04 40.16 35.85 C 40.49 34.92 40.82 34.00 41.15 33.07 C 43.16 34.11 45.20 35.10 47.22 36.11 C 47.67 34.54 48.30 33.00 48.44 31.37 C 46.03 28.20 43.44 25.12 42.10 21.30 C 45.50 20.25 48.88 19.15 52.28 18.10 M 44.89 22.68 C 44.88 23.60 44.87 25.43 44.86 26.35 C 52.07 30.89 60.21 26.25 66.70 22.60 C 60.52 17.13 51.70 19.75 44.89 22.68 Z" />
</g>
<g id="#4378caff">
<path fill="#4378ca" opacity="1.00" d=" M 0.00 17.43 C 6.41 20.57 13.37 19.28 20.02 17.85 C 17.00 19.24 13.98 20.62 10.96 22.02 C 11.42 23.62 11.89 25.22 12.37 26.82 C 8.24 28.14 4.12 29.48 0.00 30.84 L 0.00 29.18 C 3.84 27.58 7.75 26.09 11.36 23.99 C 7.75 21.91 3.85 20.43 0.00 18.86 L 0.00 17.43 Z" />
<path fill="#4378ca" opacity="1.00" d=" M 190.24 16.95 C 194.44 17.76 198.72 17.97 202.97 17.39 C 200.96 19.01 199.00 20.68 197.04 22.35 C 197.58 23.64 198.14 24.91 198.70 26.19 C 193.94 26.79 186.81 25.80 186.78 33.05 C 191.13 33.53 195.63 35.35 199.95 33.98 C 203.15 32.97 202.13 28.96 202.47 26.41 C 203.74 28.88 204.94 31.38 206.22 33.86 C 199.02 36.25 196.16 43.46 191.32 48.52 C 195.90 51.19 200.47 53.90 205.35 56.00 L 195.34 56.00 C 196.73 55.62 198.13 55.22 199.52 54.81 C 195.67 52.64 191.72 50.67 187.85 48.56 C 191.60 45.47 194.83 41.60 195.13 36.45 C 192.14 36.16 189.15 35.89 186.17 35.64 C 185.88 32.86 185.59 30.07 185.31 27.29 C 189.32 26.09 193.32 24.83 197.26 23.41 C 195.24 20.93 192.75 18.90 190.24 16.95 Z" />
</g>
<g id="#4478caff">
<path fill="#4478ca" opacity="1.00" d=" M 77.78 17.15 C 82.17 17.90 86.66 18.29 91.03 17.16 C 88.84 19.01 86.75 20.97 84.69 22.96 C 85.47 24.12 86.26 25.28 87.06 26.44 C 82.28 26.44 74.56 25.27 75.22 32.94 C 80.62 34.33 86.42 35.53 91.37 32.22 C 90.72 30.35 90.03 28.50 89.36 26.65 C 90.24 27.19 91.12 27.74 92.01 28.29 C 92.64 30.35 93.39 32.37 94.22 34.36 C 88.24 35.26 84.99 40.19 83.14 45.38 C 82.62 42.34 82.16 39.29 81.68 36.24 C 79.18 36.10 76.69 35.96 74.19 35.83 C 73.99 32.95 73.76 30.09 73.46 27.22 C 77.00 26.19 80.52 25.08 84.05 24.02 C 84.01 22.75 83.98 21.48 83.94 20.21 C 81.88 19.20 79.82 18.19 77.78 17.15 Z" />
</g>
<g id="#3c6bbdff">
<path fill="#3c6bbd" opacity="1.00" d=" M 100.88 21.69 C 107.58 18.76 116.00 16.41 122.38 21.17 C 117.84 23.31 113.45 25.78 108.82 27.70 C 105.98 28.24 103.43 26.27 100.89 25.29 C 100.89 24.39 100.88 22.59 100.88 21.69 Z" />
<path fill="#3c6bbd" opacity="1.00" d=" M 156.00 21.05 C 163.08 17.11 172.41 17.57 178.78 22.71 C 173.68 25.82 167.67 27.78 161.65 26.35 C 158.67 26.21 157.40 23.19 156.00 21.05 Z" />
<path fill="#3c6bbd" opacity="1.00" d=" M 44.89 22.68 C 51.70 19.75 60.52 17.13 66.70 22.60 C 60.21 26.25 52.07 30.89 44.86 26.35 C 44.87 25.43 44.88 23.60 44.89 22.68 Z" />
</g>
<g id="#3c6abeff">
<path fill="#3c6abe" opacity="1.00" d=" M 0.00 18.86 C 3.85 20.43 7.75 21.91 11.36 23.99 C 7.75 26.09 3.84 27.58 0.00 29.18 L 0.00 18.86 Z" />
</g>
<g id="#4578c9ff">
<path fill="#4578c9" opacity="1.00" d=" M 32.36 27.62 C 33.17 28.17 33.98 28.71 34.79 29.26 C 35.61 31.58 36.79 33.75 38.24 35.74 C 36.20 36.69 31.93 35.79 31.28 38.90 C 30.29 42.15 28.72 45.56 24.91 46.03 C 25.84 43.87 26.85 41.74 27.89 39.63 C 23.44 38.31 18.92 37.19 14.43 36.01 C 16.54 34.79 18.77 32.70 21.38 33.84 C 25.72 35.24 30.36 35.91 34.37 33.24 C 33.72 31.36 33.03 29.49 32.36 27.62 Z" />
</g>
<g id="#4574caff">
<path fill="#4574ca" opacity="1.00" d=" M 0.00 37.11 C 3.82 36.73 7.64 36.35 11.45 35.93 C 10.80 39.39 10.37 42.89 10.04 46.40 C 8.79 47.03 7.55 47.66 6.31 48.29 C 6.89 48.74 7.47 49.19 8.04 49.65 C 6.38 49.45 3.05 49.07 1.38 48.87 C 3.95 47.48 6.52 46.11 9.09 44.72 C 8.73 43.18 8.33 41.65 7.92 40.13 C 5.28 40.06 2.64 39.98 0.00 39.88 L 0.00 37.11 Z" />
</g>
<g id="#4778cbfe">
<path fill="#4778cb" opacity="1.00" d=" M 60.30 37.65 C 62.56 37.02 64.82 36.38 67.09 35.79 C 66.91 36.41 66.56 37.67 66.38 38.29 C 65.48 38.43 64.57 38.57 63.66 38.71 C 64.76 40.98 65.95 43.20 67.03 45.48 C 63.90 43.76 61.68 40.90 60.30 37.65 Z" />
</g>
<g id="#4374c8ff">
<path fill="#4374c8" opacity="1.00" d=" M 171.29 40.80 C 173.16 37.68 176.24 35.54 180.02 35.20 C 178.93 37.63 177.77 40.03 176.74 42.48 C 177.93 43.23 179.12 43.98 180.31 44.73 C 177.01 44.18 174.17 42.38 171.29 40.80 Z" />
</g>
<g id="#4378cbff">
<path fill="#4378cb" opacity="1.00" d=" M 103.19 38.74 C 103.39 40.64 103.49 42.55 103.63 44.45 C 106.49 44.72 109.37 45.02 112.24 45.26 C 107.99 45.84 103.80 47.17 99.50 47.32 C 95.20 46.25 90.88 45.31 86.56 44.35 C 91.26 42.83 96.10 43.85 100.86 44.36 C 101.63 42.49 102.43 40.62 103.19 38.74 Z" />
<path fill="#4378cb" opacity="1.00" d=" M 34.87 42.88 C 39.00 45.48 44.08 43.66 47.07 40.17 C 46.68 41.52 46.29 42.87 45.91 44.22 C 49.39 45.15 52.90 45.94 56.40 46.78 C 53.00 46.72 49.60 46.66 46.20 46.42 C 45.41 47.34 44.63 48.26 43.85 49.19 C 40.44 45.73 35.55 44.96 30.91 45.63 C 32.23 44.72 33.55 43.80 34.87 42.88 Z" />
</g>
<g id="#4279cbff">
<path fill="#4279cb" opacity="1.00" d=" M 155.79 43.88 C 157.77 42.76 159.12 40.85 160.64 39.21 C 160.80 41.22 161.05 43.22 161.40 45.21 C 157.05 47.70 152.35 46.50 148.00 44.75 C 148.20 44.04 148.40 43.33 148.61 42.63 C 150.85 43.57 153.33 45.05 155.79 43.88 Z" />
</g>
<g id="#3968bfff">
<path fill="#3968bf" opacity="1.00" d=" M 0.00 39.88 C 2.64 39.98 5.28 40.06 7.92 40.13 C 8.33 41.65 8.73 43.18 9.09 44.72 C 6.52 46.11 3.95 47.48 1.38 48.87 C 1.03 49.06 0.34 49.43 0.00 49.61 L 0.00 39.88 M 0.40 44.56 C 3.12 44.26 5.82 43.74 8.47 43.05 C 5.73 43.21 2.98 43.58 0.40 44.56 Z" />
</g>
<g id="#4379cbff">
<path fill="#4379cb" opacity="1.00" d=" M 198.55 44.31 C 206.98 42.52 215.55 44.74 224.00 45.15 L 224.00 45.95 C 219.83 46.31 215.67 47.18 211.47 47.09 C 207.10 46.49 202.82 45.38 198.55 44.31 Z" />
</g>
<g id="#4072c6ff">
<path fill="#4072c6" opacity="1.00" d=" M 0.40 44.56 C 2.98 43.58 5.73 43.21 8.47 43.05 C 5.82 43.74 3.12 44.26 0.40 44.56 Z" />
</g>
<g id="#4c77caff">
<path fill="#4c77ca" opacity="1.00" d=" M 59.71 44.10 C 60.85 44.94 61.98 45.78 63.12 46.63 C 61.86 47.53 60.62 48.45 59.33 49.32 C 58.82 49.39 57.81 49.55 57.30 49.63 C 58.10 47.78 58.94 45.95 59.71 44.10 Z" />
</g>
<g id="#4778d1ff">
<path fill="#4778d1" opacity="1.00" d=" M 113.52 43.57 C 114.89 44.92 116.20 46.35 117.42 47.83 C 115.99 47.89 114.55 47.94 113.12 47.99 C 113.25 46.52 113.39 45.05 113.52 43.57 Z" />
</g>
<g id="#4575cbff">
<path fill="#4575cb" opacity="1.00" d=" M 163.99 44.22 C 164.57 43.16 166.42 43.16 167.01 44.22 C 167.34 46.02 163.65 46.02 163.99 44.22 Z" />
</g>
<g id="#4479c9ff">
<path fill="#4479c9" opacity="1.00" d=" M 75.23 48.02 C 77.39 46.74 79.57 45.49 81.78 44.30 C 80.89 45.65 80.00 47.00 79.11 48.34 C 83.74 51.09 88.36 53.88 93.33 56.00 L 83.34 56.00 C 84.73 55.63 86.12 55.23 87.50 54.82 C 83.43 52.52 79.23 50.45 75.23 48.02 Z" />
</g>
<g id="#4177ccff">
<path fill="#4177cc" opacity="1.00" d=" M 130.18 46.71 C 138.09 46.18 144.07 51.90 150.18 56.00 L 139.12 56.00 C 140.75 55.39 144.00 54.18 145.63 53.57 C 143.25 52.28 140.84 51.02 138.43 49.79 C 138.29 51.07 138.15 52.35 138.02 53.63 C 135.45 51.27 132.74 49.08 130.18 46.71 Z" />
</g>
<g id="#536ea1ff">
<path fill="#536ea1" opacity="1.00" d=" M 0.00 49.61 C 0.34 49.43 1.03 49.06 1.38 48.87 C 3.05 49.07 6.38 49.45 8.04 49.65 C 9.18 51.56 10.33 53.46 11.57 55.30 C 8.18 52.66 4.04 51.43 0.00 50.15 L 0.00 49.61 Z" />
</g>
<g id="#42689dff">
<path fill="#42689d" opacity="1.00" d=" M 112.91 50.23 C 115.97 50.00 119.04 49.95 122.11 49.74 C 122.63 51.54 123.19 53.33 123.88 55.08 C 120.51 52.85 116.63 51.62 112.74 50.66 L 112.91 50.23 Z" />
</g>
<g id="#6894c6ff">
<path fill="#6894c6" opacity="1.00" d=" M 8.04 49.65 C 10.64 51.65 13.07 53.86 15.55 56.00 L 12.57 56.00 L 11.57 55.30 C 10.33 53.46 9.18 51.56 8.04 49.65 Z" />
</g>
<g id="#315a8cff">
<path fill="#315a8c" opacity="1.00" d=" M 56.45 51.69 C 56.72 51.00 57.00 50.31 57.30 49.63 C 57.81 49.55 58.82 49.39 59.33 49.32 C 60.60 49.79 61.86 50.31 63.09 50.88 C 61.60 51.07 58.63 51.45 57.15 51.64 L 56.45 51.69 Z" />
</g>
<g id="#2f5b84ff">
<path fill="#2f5b84" opacity="1.00" d=" M 168.49 49.93 C 170.14 50.14 173.45 50.54 175.10 50.74 L 174.25 50.80 C 172.95 50.93 170.34 51.18 169.04 51.30 L 168.17 51.34 C 168.25 50.99 168.41 50.29 168.49 49.93 Z" />
</g>
<g id="#607aafff">
<path fill="#607aaf" opacity="1.00" d=" M 175.10 50.74 C 178.01 51.11 179.53 54.08 181.38 56.00 L 180.03 56.00 C 178.03 54.35 176.11 52.61 174.25 50.80 L 175.10 50.74 Z" />
</g>
<g id="#24393dff">
<path fill="#24393d" opacity="1.00" d=" M 0.00 50.15 C 4.04 51.43 8.18 52.66 11.57 55.30 L 12.57 56.00 L 7.60 56.00 C 5.11 54.27 2.54 52.67 0.00 51.02 L 0.00 50.15 Z" />
</g>
<g id="#203b3cff">
<path fill="#203b3c" opacity="1.00" d=" M 57.15 51.64 C 58.63 51.45 61.60 51.07 63.09 50.88 C 64.67 52.66 66.31 54.39 68.06 56.00 L 64.60 56.00 C 63.81 55.28 62.23 53.85 61.44 53.13 C 60.06 52.51 58.60 52.07 57.15 51.64 Z" />
</g>
<g id="#6286a8ff">
<path fill="#6286a8" opacity="1.00" d=" M 63.09 50.88 C 65.49 52.20 67.53 54.07 69.45 56.00 L 68.06 56.00 C 66.31 54.39 64.67 52.66 63.09 50.88 Z" />
</g>
<g id="#244048ff">
<path fill="#244048" opacity="1.00" d=" M 112.74 50.66 C 116.63 51.62 120.51 52.85 123.88 55.08 L 124.29 56.00 L 119.29 56.00 C 118.47 54.94 117.65 53.88 116.84 52.82 C 115.37 52.42 113.89 52.02 112.41 51.63 L 112.74 50.66 Z" />
</g>
<g id="#203b43ff">
<path fill="#203b43" opacity="1.00" d=" M 169.04 51.30 C 170.34 51.18 172.95 50.93 174.25 50.80 C 176.11 52.61 178.03 54.35 180.03 56.00 L 176.57 56.00 C 174.15 54.29 171.73 52.56 169.04 51.30 Z" />
</g>
<g id="#7c9c74ff">
<path fill="#7c9c74" opacity="1.00" d=" M 0.00 51.02 C 2.54 52.67 5.11 54.27 7.60 56.00 L 6.39 56.00 C 4.23 54.91 2.08 53.80 0.00 52.57 L 0.00 51.02 Z" />
</g>
<g id="#709d86ff">
<path fill="#709d86" opacity="1.00" d=" M 56.45 51.69 L 57.15 51.64 C 58.60 52.07 60.06 52.51 61.44 53.13 C 59.42 53.96 57.50 54.99 55.57 56.00 L 54.85 56.00 C 55.38 54.56 55.91 53.13 56.45 51.69 Z" />
</g>
<g id="#6e9a88ff">
<path fill="#6e9a88" opacity="1.00" d=" M 112.41 51.63 C 113.89 52.02 115.37 52.42 116.84 52.82 C 114.98 53.51 113.12 54.20 111.31 55.04 C 111.59 54.19 112.14 52.49 112.41 51.63 Z" />
</g>
<g id="#72a072ff">
<path fill="#72a072" opacity="1.00" d=" M 168.17 51.34 L 169.04 51.30 C 171.73 52.56 174.15 54.29 176.57 56.00 L 174.10 56.00 C 173.13 55.28 172.17 54.55 171.22 53.81 C 170.17 54.55 169.11 55.29 168.05 56.00 L 167.19 56.00 C 167.51 54.45 167.84 52.89 168.17 51.34 Z" />
</g>
<g id="#759d51ff">
<path fill="#759d51" opacity="1.00" d=" M 0.00 52.57 C 2.08 53.80 4.23 54.91 6.39 56.00 L 0.00 56.00 L 0.00 52.57 Z" />
</g>
<g id="#6e9b56fe">
<path fill="#6e9b56" opacity="1.00" d=" M 55.57 56.00 C 57.50 54.99 59.42 53.96 61.44 53.13 C 62.23 53.85 63.81 55.28 64.60 56.00 L 55.57 56.00 Z" />
</g>
<g id="#75a064ff">
<path fill="#75a064" opacity="1.00" d=" M 111.31 55.04 C 113.12 54.20 114.98 53.51 116.84 52.82 C 117.65 53.88 118.47 54.94 119.29 56.00 L 110.96 56.00 L 111.31 55.04 Z" />
</g>
<g id="#669946ff">
<path fill="#669946" opacity="1.00" d=" M 168.05 56.00 C 169.11 55.29 170.17 54.55 171.22 53.81 C 172.17 54.55 173.13 55.28 174.10 56.00 L 168.05 56.00 Z" />
</g>
</svg>
