<?xml version="1.0" encoding="UTF-8" ?>
<!DOCTYPE svg PUBLIC "-//W3C//DTD SVG 1.1//EN" "http://www.w3.org/Graphics/SVG/1.1/DTD/svg11.dtd">
<svg width="224pt" height="56pt" viewBox="0 0 224 56" version="1.1" xmlns="http://www.w3.org/2000/svg">
<g id="#89b261ff">
<path fill="#89b261" opacity="1.00" d=" M 0.00 0.00 L 5.08 0.00 C 4.38 4.12 4.16 8.30 3.58 12.44 C 4.93 11.60 6.27 10.74 7.69 10.01 C 6.94 11.36 6.19 12.71 5.39 14.02 L 5.00 14.53 C 3.84 14.42 2.69 14.48 1.56 14.73 C 2.96 10.66 3.17 6.27 1.62 2.20 C 1.21 3.08 0.40 4.85 0.00 5.73 L 0.00 0.00 Z" />
</g>
<g id="#65925eff">
<path fill="#65925e" opacity="1.00" d=" M 5.08 0.00 L 5.93 0.00 C 7.39 1.13 8.82 2.30 10.30 3.42 C 9.67 2.27 9.02 1.13 8.36 0.00 L 10.40 0.00 C 11.23 2.01 11.96 4.05 12.67 6.10 C 10.19 5.32 7.67 4.67 5.13 4.10 C 6.62 5.83 8.19 7.50 9.80 9.11 C 9.09 9.39 8.38 9.69 7.69 10.01 C 6.27 10.74 4.93 11.60 3.58 12.44 C 4.16 8.30 4.38 4.12 5.08 0.00 Z" />
<path fill="#65925e" opacity="1.00" d=" M 61.08 0.00 L 61.93 0.00 C 63.39 1.13 64.82 2.30 66.30 3.42 C 65.67 2.27 65.02 1.13 64.36 0.00 L 66.40 0.00 C 67.23 2.01 67.96 4.05 68.67 6.10 C 66.19 5.32 63.67 4.67 61.13 4.10 C 62.62 5.82 64.18 7.49 65.80 9.09 C 65.05 9.38 64.31 9.68 63.58 10.01 C 62.20 10.75 60.90 11.61 59.59 12.45 C 60.16 8.31 60.38 4.12 61.08 0.00 Z" />
<path fill="#65925e" opacity="1.00" d=" M 117.08 0.00 L 117.93 0.00 C 119.39 1.13 120.82 2.30 122.30 3.42 C 121.67 2.27 121.02 1.13 120.36 0.00 L 122.40 0.00 C 123.23 2.01 123.95 4.05 124.67 6.10 C 122.19 5.32 119.67 4.67 117.13 4.10 C 118.62 5.82 120.18 7.49 121.80 9.09 C 121.05 9.38 120.31 9.68 119.58 10.01 C 118.20 10.75 116.90 11.61 115.59 12.45 C 116.16 8.31 116.38 4.12 117.08 0.00 Z" />
<path fill="#65925e" opacity="1.00" d=" M 173.08 0.00 L 173.93 0.00 C 175.39 1.13 176.82 2.30 178.30 3.42 C 177.67 2.27 177.02 1.13 176.36 0.00 L 178.40 0.00 C 179.23 2.01 179.95 4.05 180.67 6.10 C 178.19 5.32 175.67 4.67 173.13 4.10 C 174.62 5.83 176.18 7.49 177.80 9.09 C 177.05 9.38 176.31 9.68 175.58 10.01 C 174.20 10.75 172.90 11.61 171.59 12.45 C 172.16 8.31 172.38 4.12 173.08 0.00 Z" />
</g>
<g id="#87b05cff">
<path fill="#87b05c" opacity="1.00" d=" M 5.93 0.00 L 8.36 0.00 C 9.02 1.13 9.67 2.27 10.30 3.42 C 8.82 2.30 7.39 1.13 5.93 0.00 Z" />
<path fill="#87b05c" opacity="1.00" d=" M 61.93 0.00 L 64.36 0.00 C 65.02 1.13 65.67 2.27 66.30 3.42 C 64.82 2.30 63.39 1.13 61.93 0.00 Z" />
<path fill="#87b05c" opacity="1.00" d=" M 117.93 0.00 L 120.36 0.00 C 121.02 1.13 121.67 2.27 122.30 3.42 C 120.82 2.30 119.39 1.13 117.93 0.00 Z" />
<path fill="#87b05c" opacity="1.00" d=" M 173.93 0.00 L 176.36 0.00 C 177.02 1.13 177.67 2.27 178.30 3.42 C 176.82 2.30 175.39 1.13 173.93 0.00 Z" />
<path fill="#87b05c" opacity="1.00" d=" M 42.82 49.19 C 44.26 49.43 44.95 50.22 44.88 51.56 C 43.53 51.47 42.84 50.68 42.82 49.19 Z" />
<path fill="#87b05c" opacity="1.00" d=" M 99.15 49.40 C 103.14 48.58 98.30 53.38 99.15 49.40 Z" />
<path fill="#87b05c" opacity="1.00" d=" M 211.15 49.40 C 215.14 48.58 210.30 53.38 211.15 49.40 Z" />
<path fill="#87b05c" opacity="1.00" d=" M 40.47 53.65 L 40.56 53.75 C 41.25 55.15 43.32 55.07 44.14 53.83 L 44.70 53.28 C 44.64 53.96 44.51 55.32 44.45 56.00 L 39.13 56.00 C 39.46 55.41 40.14 54.23 40.47 53.65 Z" />
<path fill="#87b05c" opacity="1.00" d=" M 96.38 53.71 L 96.49 53.86 C 97.24 55.52 99.45 54.85 100.25 53.60 L 100.62 53.25 C 100.58 53.94 100.49 55.31 100.45 56.00 L 95.09 56.00 C 95.41 55.43 96.06 54.28 96.38 53.71 Z" />
<path fill="#87b05c" opacity="1.00" d=" M 152.39 53.76 L 152.53 54.04 C 153.14 55.80 155.35 54.55 156.13 53.59 L 156.55 53.23 C 156.52 53.92 156.46 55.31 156.43 56.00 L 151.08 56.00 C 151.41 55.44 152.06 54.32 152.39 53.76 Z" />
<path fill="#87b05c" opacity="1.00" d=" M 208.16 53.47 L 208.41 53.80 C 209.20 55.43 211.38 54.86 212.24 53.62 L 212.63 53.26 C 212.58 53.95 212.49 55.32 212.44 56.00 L 207.18 56.00 C 207.42 55.37 207.91 54.10 208.16 53.47 Z" />
</g>
<g id="#84ab5bff">
<path fill="#84ab5b" opacity="1.00" d=" M 10.40 0.00 L 16.11 0.00 C 17.54 0.36 20.40 1.09 21.83 1.45 C 22.92 0.96 24.02 0.47 25.12 -0.00 L 27.53 0.00 C 26.86 1.17 26.37 2.42 25.95 3.70 C 25.65 3.91 25.06 4.33 24.77 4.54 C 23.25 5.31 21.69 5.99 20.13 6.68 C 19.73 5.68 18.94 3.68 18.54 2.68 C 16.70 4.36 14.89 6.07 13.28 7.97 C 12.10 8.31 10.95 8.70 9.80 9.11 C 8.19 7.50 6.62 5.83 5.13 4.10 C 7.67 4.67 10.19 5.32 12.67 6.10 C 11.96 4.05 11.23 2.01 10.40 0.00 Z" />
<path fill="#84ab5b" opacity="1.00" d=" M 66.40 0.00 L 72.11 0.00 C 73.54 0.36 76.40 1.09 77.83 1.45 C 78.92 0.96 80.02 0.47 81.12 0.00 L 83.53 0.00 C 82.86 1.17 82.37 2.42 81.94 3.69 C 81.65 3.91 81.06 4.33 80.77 4.55 C 79.25 5.32 77.68 5.99 76.12 6.67 C 75.73 5.68 74.93 3.68 74.54 2.68 C 72.70 4.36 70.89 6.07 69.27 7.98 C 68.10 8.31 66.95 8.69 65.80 9.09 C 64.18 7.49 62.62 5.82 61.13 4.10 C 63.67 4.67 66.19 5.32 68.67 6.10 C 67.96 4.05 67.23 2.01 66.40 0.00 Z" />
<path fill="#84ab5b" opacity="1.00" d=" M 122.40 0.00 L 128.11 0.00 C 129.54 0.36 132.40 1.09 133.83 1.45 C 134.92 0.96 136.02 0.47 137.12 0.00 L 139.53 0.00 C 138.86 1.17 138.37 2.42 137.94 3.69 C 137.65 3.91 137.06 4.33 136.77 4.55 C 135.25 5.32 133.68 5.99 132.12 6.68 C 131.73 5.68 130.93 3.68 130.54 2.68 C 128.70 4.36 126.89 6.07 125.27 7.98 C 124.10 8.31 122.94 8.69 121.80 9.09 C 120.18 7.49 118.62 5.82 117.13 4.10 C 119.67 4.67 122.19 5.32 124.67 6.10 C 123.95 4.05 123.23 2.01 122.40 0.00 Z" />
<path fill="#84ab5b" opacity="1.00" d=" M 178.40 0.00 L 184.11 0.00 C 185.54 0.36 188.40 1.09 189.83 1.45 C 190.92 0.96 192.02 0.47 193.12 0.00 L 195.53 0.00 C 194.85 1.17 194.37 2.42 193.95 3.70 C 193.65 3.91 193.06 4.33 192.77 4.55 C 191.25 5.31 189.68 5.99 188.12 6.68 C 187.73 5.68 186.93 3.68 186.54 2.68 C 184.70 4.36 182.88 6.07 181.27 7.98 C 180.10 8.31 178.94 8.69 177.80 9.09 C 176.18 7.49 174.62 5.83 173.13 4.10 C 175.67 4.67 178.19 5.32 180.67 6.10 C 179.95 4.05 179.23 2.01 178.40 0.00 Z" />
</g>
<g id="#729e59fe">
<path fill="#729e59" opacity="1.00" d=" M 16.11 0.00 L 25.12 0.00 C 24.02 0.47 22.92 0.96 21.83 1.45 C 20.40 1.09 17.54 0.36 16.11 0.00 Z" />
<path fill="#729e59" opacity="1.00" d=" M 72.11 0.00 L 81.12 0.00 C 80.02 0.47 78.92 0.96 77.83 1.45 C 76.40 1.09 73.54 0.36 72.11 0.00 Z" />
<path fill="#729e59" opacity="1.00" d=" M 128.11 0.00 L 137.12 0.00 C 136.02 0.47 134.92 0.96 133.83 1.45 C 132.40 1.09 129.54 0.36 128.11 0.00 Z" />
<path fill="#729e59" opacity="1.00" d=" M 184.11 0.00 L 193.12 0.00 C 192.02 0.47 190.92 0.96 189.83 1.45 C 188.40 1.09 185.54 0.36 184.11 0.00 Z" />
</g>
<g id="#6a9858fe">
<path fill="#6a9858" opacity="1.00" d=" M 27.53 0.00 L 27.98 0.00 C 28.45 1.62 28.40 3.36 27.87 4.96 C 27.39 4.65 26.43 4.01 25.95 3.70 C 26.37 2.42 26.86 1.17 27.53 0.00 Z" />
<path fill="#6a9858" opacity="1.00" d=" M 83.53 0.00 L 83.98 0.00 C 84.45 1.61 84.40 3.35 83.87 4.95 C 83.39 4.63 82.42 4.01 81.94 3.69 C 82.37 2.42 82.86 1.17 83.53 0.00 Z" />
<path fill="#6a9858" opacity="1.00" d=" M 139.53 0.00 L 139.98 0.00 C 140.45 1.61 140.40 3.35 139.87 4.94 C 139.39 4.63 138.42 4.01 137.94 3.69 C 138.37 2.42 138.86 1.17 139.53 0.00 Z" />
<path fill="#6a9858" opacity="1.00" d=" M 195.53 0.00 L 195.98 0.00 C 196.45 1.61 196.40 3.35 195.87 4.95 C 195.39 4.63 194.43 4.01 193.95 3.70 C 194.37 2.42 194.85 1.17 195.53 0.00 Z" />
</g>
<g id="#83ae5eff">
<path fill="#83ae5e" opacity="1.00" d=" M 27.98 0.00 L 32.64 0.00 C 33.19 0.47 34.28 1.41 34.83 1.88 C 37.44 1.96 40.06 2.05 42.67 2.20 C 42.54 1.47 42.41 0.73 42.28 0.00 L 49.68 0.00 C 50.72 2.04 51.75 4.07 52.83 6.09 C 49.42 6.24 46.02 6.48 42.61 6.48 C 41.56 6.32 40.52 6.14 39.48 5.93 L 38.86 5.63 C 38.75 5.44 38.53 5.06 38.42 4.87 C 38.00 2.35 34.26 3.34 35.96 5.63 C 34.15 5.45 32.35 5.23 30.54 5.05 C 31.16 3.98 32.28 2.10 30.82 1.20 C 28.75 1.06 29.43 3.89 30.04 5.02 C 29.49 5.00 28.41 4.98 27.87 4.96 C 28.40 3.36 28.45 1.62 27.98 0.00 Z" />
<path fill="#83ae5e" opacity="1.00" d=" M 83.98 0.00 L 88.64 0.00 C 89.19 0.47 90.29 1.41 90.83 1.88 C 93.44 1.96 96.06 2.05 98.67 2.20 C 98.54 1.47 98.41 0.73 98.28 -0.00 L 105.68 0.00 C 106.73 2.04 107.76 4.08 108.84 6.11 C 105.43 6.24 102.02 6.48 98.61 6.38 C 97.68 6.18 96.75 5.95 95.84 5.68 C 95.45 5.43 94.68 4.94 94.29 4.69 C 93.14 2.36 89.86 3.91 92.39 5.76 C 90.43 5.56 88.48 5.29 86.53 5.07 C 87.16 3.99 88.28 2.10 86.82 1.20 C 84.75 1.07 85.44 3.89 86.03 5.03 C 85.49 5.01 84.41 4.97 83.87 4.95 C 84.40 3.35 84.45 1.61 83.98 0.00 Z" />
<path fill="#83ae5e" opacity="1.00" d=" M 139.98 0.00 L 144.64 0.00 C 145.19 0.47 146.28 1.41 146.83 1.88 C 149.44 1.96 152.06 2.05 154.67 2.20 C 154.54 1.47 154.41 0.73 154.28 0.00 L 161.68 0.00 C 162.72 2.04 163.76 4.08 164.84 6.11 C 161.43 6.24 158.02 6.48 154.61 6.38 C 153.68 6.19 152.75 5.96 151.84 5.69 C 151.45 5.44 150.66 4.95 150.27 4.71 C 149.14 2.36 145.86 3.90 148.37 5.76 C 146.42 5.57 144.48 5.29 142.53 5.07 C 143.16 3.99 144.28 2.10 142.82 1.20 C 140.75 1.06 141.43 3.89 142.03 5.02 C 141.49 5.00 140.41 4.96 139.87 4.94 C 140.40 3.35 140.45 1.61 139.98 0.00 Z" />
</g>
<g id="#709c57ff">
<path fill="#709c57" opacity="1.00" d=" M 32.64 0.00 L 42.28 0.00 C 42.41 0.73 42.54 1.47 42.67 2.20 C 40.06 2.05 37.44 1.96 34.83 1.88 C 34.28 1.41 33.19 0.47 32.64 0.00 Z" />
<path fill="#709c57" opacity="1.00" d=" M 88.64 0.00 L 98.28 0.00 C 98.41 0.73 98.54 1.47 98.67 2.20 C 96.06 2.05 93.44 1.96 90.83 1.88 C 90.29 1.41 89.19 0.47 88.64 0.00 Z" />
<path fill="#709c57" opacity="1.00" d=" M 144.64 0.00 L 154.28 0.00 C 154.41 0.73 154.54 1.47 154.67 2.20 C 152.06 2.05 149.44 1.96 146.83 1.88 C 146.28 1.41 145.19 0.47 144.64 0.00 Z" />
<path fill="#709c57" opacity="1.00" d=" M 200.64 0.00 L 210.28 0.00 C 210.41 0.73 210.54 1.47 210.66 2.20 C 208.05 2.05 205.44 1.96 202.83 1.88 C 202.28 1.41 201.19 0.47 200.64 0.00 Z" />
</g>
<g id="#659764ff">
<path fill="#659764" opacity="1.00" d=" M 49.68 0.00 L 51.43 0.00 C 53.28 1.32 54.41 3.29 55.37 5.29 C 54.54 5.61 53.69 5.87 52.83 6.09 C 51.75 4.07 50.72 2.04 49.68 0.00 Z" />
<path fill="#659764" opacity="1.00" d=" M 105.68 0.00 L 107.42 0.00 C 109.28 1.31 110.41 3.28 111.37 5.29 C 110.54 5.61 109.70 5.89 108.84 6.11 C 107.76 4.08 106.73 2.04 105.68 0.00 Z" />
<path fill="#659764" opacity="1.00" d=" M 161.68 0.00 L 163.43 0.00 C 165.27 1.32 166.42 3.28 167.37 5.29 C 166.54 5.62 165.70 5.89 164.84 6.11 C 163.76 4.08 162.72 2.04 161.68 0.00 Z" />
<path fill="#659764" opacity="1.00" d=" M 217.69 0.00 L 219.44 0.00 C 221.38 1.54 222.53 3.74 223.74 5.83 C 222.74 5.84 221.74 5.89 220.74 5.93 C 219.69 3.97 218.70 1.98 217.69 0.00 Z" />
</g>
<g id="#89b362ff">
<path fill="#89b362" opacity="1.00" d=" M 51.43 0.00 L 61.08 0.00 C 60.38 4.12 60.16 8.31 59.59 12.45 C 60.90 11.61 62.20 10.75 63.58 10.01 C 62.85 11.33 62.13 12.65 61.38 13.95 L 61.08 14.46 C 59.97 14.46 58.88 14.59 57.81 14.85 C 57.46 13.41 57.12 11.98 56.83 10.53 C 56.71 9.77 56.46 8.27 56.33 7.52 C 56.65 8.45 57.01 9.38 57.35 10.31 C 58.21 9.84 59.08 9.36 59.94 8.88 C 59.34 7.12 58.72 5.36 58.10 3.61 C 57.32 4.11 56.53 4.61 55.74 5.10 L 55.37 5.29 C 54.41 3.29 53.28 1.32 51.43 0.00 Z" />
<path fill="#89b362" opacity="1.00" d=" M 107.42 0.00 L 117.08 0.00 C 116.38 4.12 116.16 8.31 115.59 12.45 C 116.90 11.61 118.20 10.75 119.58 10.01 C 118.85 11.33 118.13 12.65 117.38 13.95 L 117.08 14.46 C 115.98 14.46 114.89 14.59 113.82 14.85 C 113.47 13.42 113.12 11.98 112.84 10.53 C 112.71 9.78 112.46 8.27 112.33 7.52 C 112.65 8.45 113.00 9.38 113.35 10.32 C 114.21 9.84 115.08 9.36 115.94 8.88 C 115.34 7.12 114.72 5.37 114.11 3.61 C 113.32 4.11 112.53 4.61 111.73 5.10 L 111.37 5.29 C 110.41 3.28 109.28 1.31 107.42 0.00 Z" />
<path fill="#89b362" opacity="1.00" d=" M 163.43 0.00 L 173.08 0.00 C 172.38 4.12 172.16 8.31 171.59 12.45 C 172.90 11.61 174.20 10.75 175.58 10.01 C 174.85 11.33 174.12 12.65 173.37 13.95 L 173.07 14.46 C 171.96 14.46 170.87 14.59 169.80 14.84 C 169.42 13.40 169.05 11.97 168.74 10.51 C 168.63 9.76 168.41 8.26 168.30 7.51 C 168.63 8.45 169.00 9.38 169.36 10.31 C 170.22 9.84 171.08 9.36 171.94 8.88 C 171.34 7.12 170.72 5.37 170.11 3.61 C 169.32 4.11 168.54 4.61 167.74 5.09 L 167.37 5.29 C 166.42 3.28 165.27 1.32 163.43 0.00 Z" />
</g>
<g id="#82ad5eff">
<path fill="#82ad5e" opacity="1.00" d=" M 195.98 0.00 L 200.64 0.00 C 201.19 0.47 202.28 1.41 202.83 1.88 C 205.44 1.96 208.05 2.05 210.66 2.20 C 210.54 1.47 210.41 0.73 210.28 0.00 L 217.69 0.00 C 218.70 1.98 219.69 3.97 220.74 5.93 C 217.36 6.03 214.00 6.34 210.63 6.34 C 209.66 6.19 208.69 6.04 207.73 5.88 C 207.04 5.76 206.35 5.65 205.66 5.56 C 203.30 5.29 200.93 5.07 198.57 4.90 C 199.22 3.87 200.32 1.98 198.82 1.16 C 196.75 1.00 197.37 3.78 198.06 4.88 C 197.51 4.90 196.42 4.93 195.87 4.95 C 196.40 3.35 196.45 1.61 195.98 0.00 Z" />
</g>
<g id="#8ab460ff">
<path fill="#8ab460" opacity="1.00" d=" M 219.44 0.00 L 224.00 0.00 L 224.00 5.85 L 223.74 5.83 C 222.53 3.74 221.38 1.54 219.44 0.00 Z" />
</g>
<g id="#649560ff">
<path fill="#649560" opacity="1.00" d=" M 30.04 5.02 C 29.43 3.89 28.75 1.06 30.82 1.20 C 32.28 2.10 31.16 3.98 30.54 5.05 L 30.04 5.02 Z" />
<path fill="#649560" opacity="1.00" d=" M 86.03 5.03 C 85.44 3.89 84.75 1.07 86.82 1.20 C 88.28 2.10 87.16 3.99 86.53 5.07 L 86.03 5.03 Z" />
<path fill="#649560" opacity="1.00" d=" M 142.03 5.02 C 141.43 3.89 140.75 1.06 142.82 1.20 C 144.28 2.10 143.16 3.99 142.53 5.07 L 142.03 5.02 Z" />
<path fill="#649560" opacity="1.00" d=" M 198.06 4.88 C 197.37 3.78 196.75 1.00 198.82 1.16 C 200.32 1.98 199.22 3.87 198.57 4.90 L 198.06 4.88 Z" />
</g>
<g id="#6c9b5ffe">
<path fill="#6c9b5f" opacity="1.00" d=" M 1.62 2.20 C 3.17 6.27 2.96 10.66 1.56 14.73 C 1.23 15.69 0.95 16.66 0.71 17.65 C 0.53 18.36 0.18 19.78 0.00 20.49 L 0.00 9.70 C 2.28 10.79 2.28 6.87 0.00 8.08 L 0.00 5.73 C 0.40 4.85 1.21 3.08 1.62 2.20 Z" />
</g>
<g id="#608660fe">
<path fill="#608660" opacity="1.00" d=" M 13.28 7.97 C 14.89 6.07 16.70 4.36 18.54 2.68 C 18.94 3.68 19.73 5.68 20.13 6.68 C 17.83 7.04 15.53 7.41 13.28 7.97 Z" />
<path fill="#608660" opacity="1.00" d=" M 69.27 7.98 C 70.89 6.07 72.70 4.36 74.54 2.68 C 74.93 3.68 75.73 5.68 76.12 6.67 C 73.83 7.04 71.53 7.41 69.27 7.98 Z" />
<path fill="#608660" opacity="1.00" d=" M 125.27 7.98 C 126.89 6.07 128.70 4.36 130.54 2.68 C 130.93 3.68 131.73 5.68 132.12 6.68 C 129.83 7.04 127.53 7.41 125.27 7.98 Z" />
<path fill="#608660" opacity="1.00" d=" M 181.27 7.98 C 182.88 6.07 184.70 4.36 186.54 2.68 C 186.93 3.68 187.73 5.68 188.12 6.68 C 185.83 7.04 183.53 7.41 181.27 7.98 Z" />
</g>
<g id="#679865ff">
<path fill="#679865" opacity="1.00" d=" M 35.96 5.63 C 34.26 3.34 38.00 2.35 38.42 4.87 C 37.81 5.06 36.58 5.44 35.96 5.63 Z" />
<path fill="#679865" opacity="1.00" d=" M 92.39 5.76 C 89.86 3.91 93.14 2.36 94.29 4.69 L 94.29 5.48 C 93.82 5.55 92.86 5.69 92.39 5.76 Z" />
<path fill="#679865" opacity="1.00" d=" M 148.37 5.76 C 145.86 3.90 149.14 2.36 150.27 4.71 L 150.28 5.49 C 149.80 5.56 148.85 5.70 148.37 5.76 Z" />
</g>
<g id="#6d9b5cff">
<path fill="#6d9b5c" opacity="1.00" d=" M 55.74 5.10 C 56.53 4.61 57.32 4.11 58.10 3.61 C 58.72 5.36 59.34 7.12 59.94 8.88 C 59.08 9.36 58.21 9.84 57.35 10.31 C 57.01 9.38 56.65 8.45 56.33 7.52 C 56.18 6.91 55.89 5.70 55.74 5.10 Z" />
<path fill="#6d9b5c" opacity="1.00" d=" M 111.73 5.10 C 112.53 4.61 113.32 4.11 114.11 3.61 C 114.72 5.37 115.34 7.12 115.94 8.88 C 115.08 9.36 114.21 9.84 113.35 10.32 C 113.00 9.38 112.65 8.45 112.33 7.52 C 112.18 6.91 111.88 5.70 111.73 5.10 Z" />
<path fill="#6d9b5c" opacity="1.00" d=" M 167.74 5.09 C 168.54 4.61 169.32 4.11 170.11 3.61 C 170.72 5.37 171.34 7.12 171.94 8.88 C 171.08 9.36 170.22 9.84 169.36 10.31 C 169.00 9.38 168.63 8.45 168.30 7.51 C 168.16 6.91 167.88 5.70 167.74 5.09 Z" />
</g>
<g id="#565249ff">
<path fill="#565249" opacity="1.00" d=" M 24.77 4.54 C 25.06 4.33 25.65 3.91 25.95 3.70 C 26.43 4.01 27.39 4.65 27.87 4.96 C 27.56 5.20 26.94 5.69 26.63 5.93 C 26.16 5.58 25.23 4.89 24.77 4.54 Z" />
<path fill="#565249" opacity="1.00" d=" M 80.77 4.55 C 81.06 4.33 81.65 3.91 81.94 3.69 C 82.42 4.01 83.39 4.63 83.87 4.95 C 83.56 5.19 82.95 5.68 82.64 5.92 C 82.17 5.58 81.24 4.89 80.77 4.55 Z" />
<path fill="#565249" opacity="1.00" d=" M 136.77 4.55 C 137.06 4.33 137.65 3.91 137.94 3.69 C 138.42 4.01 139.39 4.63 139.87 4.94 C 139.56 5.19 138.95 5.68 138.64 5.92 C 138.17 5.58 137.24 4.89 136.77 4.55 Z" />
<path fill="#565249" opacity="1.00" d=" M 192.77 4.55 C 193.06 4.33 193.65 3.91 193.95 3.70 C 194.43 4.01 195.39 4.63 195.87 4.95 C 195.56 5.19 194.95 5.68 194.64 5.92 C 194.17 5.58 193.24 4.89 192.77 4.55 Z" />
</g>
<g id="#cfcb89ff">
<path fill="#cfcb89" opacity="1.00" d=" M 20.13 6.68 C 21.69 5.99 23.25 5.31 24.77 4.54 C 25.23 4.89 26.16 5.58 26.63 5.93 C 31.90 7.44 37.39 8.59 42.13 11.50 C 43.20 12.62 44.28 13.74 45.36 14.85 C 44.53 15.54 43.70 16.22 42.87 16.90 C 41.57 16.60 40.26 16.33 38.95 16.11 C 40.15 16.12 41.34 16.12 42.53 16.10 C 38.16 11.22 31.80 9.55 25.38 9.40 C 24.45 10.72 23.52 12.05 22.57 13.36 C 22.45 12.59 22.21 11.04 22.09 10.26 C 17.31 12.10 12.87 14.67 8.44 17.22 C 7.99 17.27 7.08 17.38 6.63 17.43 C 5.45 17.53 4.27 17.59 3.10 17.66 C 2.91 19.87 2.70 22.08 2.47 24.28 C 1.85 23.92 0.62 23.18 0.00 22.82 L 0.00 20.49 C 0.18 19.78 0.53 18.36 0.71 17.65 C 2.46 17.13 4.02 16.09 5.00 14.53 L 5.39 14.02 C 10.86 12.99 17.05 11.91 20.13 6.68 Z" />
<path fill="#cfcb89" opacity="1.00" d=" M 76.12 6.67 C 77.68 5.99 79.25 5.32 80.77 4.55 C 81.24 4.89 82.17 5.58 82.64 5.92 C 87.67 7.39 93.11 8.23 97.40 11.48 C 98.57 13.08 99.76 14.66 101.01 16.20 C 99.45 16.11 97.89 16.02 96.33 15.91 C 93.87 9.91 86.97 9.76 81.37 9.44 C 80.44 10.75 79.51 12.06 78.57 13.36 C 78.45 12.59 78.22 11.04 78.10 10.27 C 73.29 12.11 68.66 14.43 64.49 17.47 C 64.02 17.47 63.09 17.49 62.62 17.50 C 61.45 17.49 60.29 17.46 59.12 17.44 C 58.93 19.73 58.72 22.01 58.47 24.30 C 57.81 23.90 56.50 23.10 55.84 22.70 L 55.89 21.64 C 55.97 21.24 56.12 20.43 56.20 20.03 C 56.34 19.44 56.61 18.26 56.75 17.67 C 58.52 17.17 60.28 16.22 61.08 14.46 L 61.38 13.95 C 66.94 13.19 73.05 11.90 76.12 6.67 Z" />
<path fill="#cfcb89" opacity="1.00" d=" M 132.12 6.68 C 133.68 5.99 135.25 5.32 136.77 4.55 C 137.24 4.89 138.17 5.58 138.64 5.92 C 143.68 7.39 149.10 8.28 153.45 11.42 C 154.60 13.05 155.73 14.68 156.87 16.32 C 155.38 15.86 153.90 15.39 152.42 14.91 C 148.81 10.29 142.80 9.91 137.38 9.39 C 136.45 10.72 135.52 12.05 134.58 13.37 C 134.45 12.58 134.20 11.01 134.08 10.22 C 129.83 11.96 125.85 14.21 121.88 16.49 C 120.94 16.83 119.99 17.13 119.02 17.39 C 117.71 17.52 116.39 17.59 115.08 17.67 C 114.90 19.89 114.69 22.10 114.48 24.32 C 113.82 23.94 112.50 23.19 111.84 22.81 C 111.86 22.28 111.91 21.21 111.93 20.67 L 112.11 19.87 C 112.26 19.32 112.55 18.20 112.70 17.65 C 114.49 17.17 116.29 16.24 117.08 14.46 L 117.38 13.95 C 122.94 13.19 129.05 11.90 132.12 6.68 Z" />
<path fill="#cfcb89" opacity="1.00" d=" M 188.12 6.68 C 189.68 5.99 191.25 5.31 192.77 4.55 C 193.24 4.89 194.17 5.58 194.64 5.92 C 199.70 7.40 205.11 8.31 209.52 11.40 C 210.80 13.29 211.89 15.29 213.00 17.29 C 211.78 17.04 210.55 16.84 209.32 16.67 C 206.22 10.80 199.69 9.25 193.38 9.42 C 192.44 10.73 191.51 12.05 190.57 13.36 C 190.45 12.59 190.22 11.04 190.10 10.27 C 185.29 12.11 180.66 14.44 176.49 17.46 C 176.02 17.47 175.09 17.49 174.62 17.50 C 173.46 17.49 172.29 17.46 171.14 17.44 C 170.92 19.73 170.66 22.01 170.42 24.29 C 169.82 23.93 168.62 23.21 168.02 22.84 C 168.07 22.21 168.17 20.95 168.21 20.31 C 168.35 19.65 168.62 18.33 168.75 17.67 C 170.51 17.15 172.27 16.21 173.07 14.46 L 173.37 13.95 C 178.93 13.20 185.05 11.90 188.12 6.68 Z" />
</g>
<g id="#b4ac6fff">
<path fill="#b4ac6f" opacity="1.00" d=" M 27.87 4.96 C 28.41 4.98 29.49 5.00 30.04 5.02 L 30.54 5.05 C 32.35 5.23 34.15 5.45 35.96 5.63 C 36.58 5.44 37.81 5.06 38.42 4.87 C 38.53 5.06 38.75 5.44 38.86 5.63 C 39.93 7.60 40.93 9.60 42.13 11.50 C 37.39 8.59 31.90 7.44 26.63 5.93 C 26.94 5.69 27.56 5.20 27.87 4.96 Z" />
</g>
<g id="#63594aff">
<path fill="#63594a" opacity="1.00" d=" M 39.48 5.93 C 40.52 6.14 41.56 6.32 42.61 6.48 C 46.11 7.16 49.63 7.81 53.17 8.24 C 52.26 10.23 51.27 12.19 50.12 14.06 L 49.97 14.30 C 48.66 12.33 47.28 10.36 45.39 8.90 C 43.44 7.87 41.47 6.88 39.48 5.93 Z" />
<path fill="#63594a" opacity="1.00" d=" M 95.84 5.68 C 96.75 5.95 97.68 6.18 98.61 6.38 C 102.09 7.19 105.60 7.85 109.15 8.27 C 108.25 10.24 107.31 12.20 106.19 14.06 L 106.04 14.28 C 104.66 12.30 103.20 10.32 101.18 8.96 C 99.41 7.85 97.62 6.78 95.84 5.68 Z" />
<path fill="#63594a" opacity="1.00" d=" M 151.84 5.69 C 152.75 5.96 153.68 6.19 154.61 6.38 C 158.08 7.19 161.59 7.85 165.13 8.25 C 164.23 10.28 163.16 12.24 162.04 14.15 L 161.87 14.45 C 160.82 12.25 159.38 10.22 157.28 8.91 C 155.47 7.82 153.64 6.78 151.84 5.69 Z" />
<path fill="#63594a" opacity="1.00" d=" M 207.73 5.88 C 208.69 6.04 209.66 6.19 210.63 6.34 C 214.13 7.08 217.65 7.81 221.21 8.29 C 220.22 10.25 219.16 12.18 217.95 14.01 L 217.73 14.34 C 216.71 12.17 215.32 10.15 213.30 8.79 C 211.48 7.76 209.63 6.77 207.73 5.88 Z" />
</g>
<g id="#332e2aff">
<path fill="#332e2a" opacity="1.00" d=" M 42.61 6.48 C 46.02 6.48 49.42 6.24 52.83 6.09 C 53.69 5.87 54.54 5.61 55.37 5.29 L 55.74 5.10 C 55.89 5.70 56.18 6.91 56.33 7.52 C 56.46 8.27 56.71 9.77 56.83 10.53 C 56.68 13.70 56.52 16.87 56.20 20.03 C 56.12 20.43 55.97 21.24 55.89 21.64 L 54.92 22.39 C 53.77 21.63 52.38 21.18 51.00 21.58 L 51.16 21.27 C 52.43 18.65 53.71 16.04 54.92 13.40 C 53.49 13.60 52.06 13.80 50.63 14.00 L 50.12 14.06 C 51.27 12.19 52.26 10.23 53.17 8.24 C 49.63 7.81 46.11 7.16 42.61 6.48 Z" />
</g>
<g id="#b7ae70ff">
<path fill="#b7ae70" opacity="1.00" d=" M 83.87 4.95 C 84.41 4.97 85.49 5.01 86.03 5.03 L 86.53 5.07 C 88.48 5.29 90.43 5.56 92.39 5.76 C 92.86 5.69 93.82 5.55 94.29 5.48 C 95.16 7.56 96.21 9.56 97.40 11.48 C 93.11 8.23 87.67 7.39 82.64 5.92 C 82.95 5.68 83.56 5.19 83.87 4.95 Z" />
<path fill="#b7ae70" opacity="1.00" d=" M 139.87 4.94 C 140.41 4.96 141.49 5.00 142.03 5.02 L 142.53 5.07 C 144.48 5.29 146.42 5.57 148.37 5.76 C 148.85 5.70 149.80 5.56 150.28 5.49 C 151.17 7.55 152.25 9.53 153.45 11.42 C 149.10 8.28 143.68 7.39 138.64 5.92 C 138.95 5.68 139.56 5.19 139.87 4.94 Z" />
<path fill="#b7ae70" opacity="1.00" d=" M 195.87 4.95 C 196.42 4.93 197.51 4.90 198.06 4.88 L 198.57 4.90 C 200.93 5.07 203.30 5.29 205.66 5.56 C 206.95 7.50 208.24 9.45 209.52 11.40 C 205.11 8.31 199.70 7.40 194.64 5.92 C 194.95 5.68 195.56 5.19 195.87 4.95 Z" />
</g>
<g id="#9b8e58ff">
<path fill="#9b8e58" opacity="1.00" d=" M 94.29 4.69 C 94.68 4.94 95.45 5.43 95.84 5.68 C 97.62 6.78 99.41 7.85 101.18 8.96 C 102.24 11.59 103.27 14.23 104.25 16.89 C 103.96 17.31 103.38 18.17 103.10 18.59 C 102.38 17.81 101.68 17.02 101.01 16.20 C 99.76 14.66 98.57 13.08 97.40 11.48 C 96.21 9.56 95.16 7.56 94.29 5.48 L 94.29 4.69 Z" />
</g>
<g id="#332f2aff">
<path fill="#332f2a" opacity="1.00" d=" M 98.61 6.38 C 102.02 6.48 105.43 6.24 108.84 6.11 C 109.70 5.89 110.54 5.61 111.37 5.29 L 111.73 5.10 C 111.88 5.70 112.18 6.91 112.33 7.52 C 112.46 8.27 112.71 9.78 112.84 10.53 C 112.65 13.65 112.47 16.77 112.11 19.87 L 111.93 20.67 L 110.92 21.41 C 109.39 20.73 107.69 20.41 106.03 20.82 C 107.82 18.44 109.57 16.02 111.23 13.54 C 109.70 13.69 108.18 13.86 106.65 14.01 L 106.19 14.06 C 107.31 12.20 108.25 10.24 109.15 8.27 C 105.60 7.85 102.09 7.19 98.61 6.38 Z" />
<path fill="#332f2a" opacity="1.00" d=" M 210.63 6.34 C 214.00 6.34 217.36 6.03 220.74 5.93 C 221.74 5.89 222.74 5.84 223.74 5.83 L 224.00 5.85 L 224.00 21.08 L 223.00 20.98 C 221.42 20.65 219.78 20.31 218.17 20.64 C 219.88 18.30 221.59 15.96 223.22 13.57 C 221.66 13.70 220.12 13.84 218.57 13.97 L 217.95 14.01 C 219.16 12.18 220.22 10.25 221.21 8.29 C 217.65 7.81 214.13 7.08 210.63 6.34 Z" />
</g>
<g id="#9d8f55ff">
<path fill="#9d8f55" opacity="1.00" d=" M 150.27 4.71 C 150.66 4.95 151.45 5.44 151.84 5.69 C 153.64 6.78 155.47 7.82 157.28 8.91 C 158.23 11.45 159.20 13.99 159.90 16.62 L 159.86 17.23 C 159.11 17.00 157.61 16.54 156.87 16.32 C 155.73 14.68 154.60 13.05 153.45 11.42 C 152.25 9.53 151.17 7.55 150.28 5.49 L 150.27 4.71 Z" />
</g>
<g id="#342f2aff">
<path fill="#342f2a" opacity="1.00" d=" M 154.61 6.38 C 158.02 6.48 161.43 6.24 164.84 6.11 C 165.70 5.89 166.54 5.62 167.37 5.29 L 167.74 5.09 C 167.88 5.70 168.16 6.91 168.30 7.51 C 168.41 8.26 168.63 9.76 168.74 10.51 C 168.60 13.78 168.38 17.05 168.21 20.31 L 167.05 20.12 C 165.56 19.68 164.06 19.26 162.51 19.14 L 162.47 18.75 C 164.07 17.02 165.70 15.33 167.28 13.59 C 165.72 13.75 164.16 13.92 162.60 14.09 L 162.04 14.15 C 163.16 12.24 164.23 10.28 165.13 8.25 C 161.59 7.85 158.08 7.19 154.61 6.38 Z" />
</g>
<g id="#9d8f56ff">
<path fill="#9d8f56" opacity="1.00" d=" M 205.66 5.56 C 206.35 5.65 207.04 5.76 207.73 5.88 C 209.63 6.77 211.48 7.76 213.30 8.79 C 214.29 11.49 215.30 14.19 216.02 16.98 C 215.79 17.36 215.32 18.13 215.08 18.52 C 214.56 18.21 213.52 17.59 213.00 17.29 C 211.89 15.29 210.80 13.29 209.52 11.40 C 208.24 9.45 206.95 7.50 205.66 5.56 Z" />
</g>
<g id="#b5ac6eff">
<path fill="#b5ac6e" opacity="1.00" d=" M 13.28 7.97 C 15.53 7.41 17.83 7.04 20.13 6.68 C 17.05 11.91 10.86 12.99 5.39 14.02 C 6.19 12.71 6.94 11.36 7.69 10.01 C 8.38 9.69 9.09 9.39 9.80 9.11 C 10.95 8.70 12.10 8.31 13.28 7.97 Z" />
<path fill="#b5ac6e" opacity="1.00" d=" M 69.27 7.98 C 71.53 7.41 73.83 7.04 76.12 6.67 C 73.05 11.90 66.94 13.19 61.38 13.95 C 62.13 12.65 62.85 11.33 63.58 10.01 C 64.31 9.68 65.05 9.38 65.80 9.09 C 66.95 8.69 68.10 8.31 69.27 7.98 Z" />
<path fill="#b5ac6e" opacity="1.00" d=" M 125.27 7.98 C 127.53 7.41 129.83 7.04 132.12 6.68 C 129.05 11.90 122.94 13.19 117.38 13.95 C 118.13 12.65 118.85 11.33 119.58 10.01 C 120.31 9.68 121.05 9.38 121.80 9.09 C 122.94 8.69 124.10 8.31 125.27 7.98 Z" />
<path fill="#b5ac6e" opacity="1.00" d=" M 181.27 7.98 C 183.53 7.41 185.83 7.04 188.12 6.68 C 185.05 11.90 178.93 13.20 173.37 13.95 C 174.12 12.65 174.85 11.33 175.58 10.01 C 176.31 9.68 177.05 9.38 177.80 9.09 C 178.94 8.69 180.10 8.31 181.27 7.98 Z" />
</g>
<g id="#9b894fff">
<path fill="#9b894f" opacity="1.00" d=" M 38.86 5.63 L 39.48 5.93 C 41.47 6.88 43.44 7.87 45.39 8.90 C 46.24 11.67 47.02 14.46 47.61 17.30 C 46.88 16.46 46.12 15.65 45.36 14.85 C 44.28 13.74 43.20 12.62 42.13 11.50 C 40.93 9.60 39.93 7.60 38.86 5.63 Z" />
</g>
<g id="#97c270ff">
<path fill="#97c270" opacity="1.00" d=" M 0.00 8.08 C 2.28 6.87 2.28 10.79 0.00 9.70 L 0.00 8.08 Z" />
</g>
<g id="#37312cfe">
<path fill="#37312c" opacity="1.00" d=" M 45.39 8.90 C 47.28 10.36 48.66 12.33 49.97 14.30 C 49.74 14.68 49.26 15.43 49.03 15.81 C 48.71 16.35 48.07 17.44 47.75 17.98 L 47.61 17.30 C 47.02 14.46 46.24 11.67 45.39 8.90 Z" />
</g>
<g id="#38322cff">
<path fill="#38322c" opacity="1.00" d=" M 101.18 8.96 C 103.20 10.32 104.66 12.30 106.04 14.28 C 105.79 14.63 105.31 15.33 105.06 15.68 C 104.86 15.98 104.45 16.59 104.25 16.89 C 103.27 14.23 102.24 11.59 101.18 8.96 Z" />
<path fill="#38322c" opacity="1.00" d=" M 157.28 8.91 C 159.38 10.22 160.82 12.25 161.87 14.45 C 161.71 14.80 161.38 15.50 161.22 15.85 C 160.89 16.04 160.23 16.42 159.90 16.62 C 159.20 13.99 158.23 11.45 157.28 8.91 Z" />
<path fill="#38322c" opacity="1.00" d=" M 213.30 8.79 C 215.32 10.15 216.71 12.17 217.73 14.34 C 217.52 14.67 217.09 15.32 216.88 15.65 C 216.66 15.98 216.23 16.64 216.02 16.98 C 215.30 14.19 214.29 11.49 213.30 8.79 Z" />
</g>
<g id="#dfd889ff">
<path fill="#dfd889" opacity="1.00" d=" M 22.57 13.36 C 23.52 12.05 24.45 10.72 25.38 9.40 C 31.80 9.55 38.16 11.22 42.53 16.10 C 41.34 16.12 40.15 16.12 38.95 16.11 C 38.66 16.08 38.08 16.03 37.79 16.00 C 34.19 10.01 26.53 11.40 21.38 14.48 C 22.11 14.58 23.56 14.76 24.29 14.86 C 22.79 15.06 19.81 15.48 18.31 15.69 C 15.02 16.20 11.75 16.85 8.44 17.22 C 12.87 14.67 17.31 12.10 22.09 10.26 C 22.21 11.04 22.45 12.59 22.57 13.36 Z" />
</g>
<g id="#dfda8cff">
<path fill="#dfda8c" opacity="1.00" d=" M 78.57 13.36 C 79.51 12.06 80.44 10.75 81.37 9.44 C 86.97 9.76 93.87 9.91 96.33 15.91 C 94.79 15.80 93.25 15.66 91.71 15.46 C 92.03 14.76 92.65 13.35 92.97 12.65 C 87.76 11.79 82.25 12.01 77.54 14.62 C 73.63 15.95 69.58 16.80 65.51 17.41 L 64.49 17.47 C 68.66 14.43 73.29 12.11 78.10 10.27 C 78.22 11.04 78.45 12.59 78.57 13.36 Z" />
</g>
<g id="#dfd98aff">
<path fill="#dfd98a" opacity="1.00" d=" M 134.58 13.37 C 135.52 12.05 136.45 10.72 137.38 9.39 C 142.80 9.91 148.81 10.29 152.42 14.91 C 151.76 14.71 150.45 14.30 149.79 14.10 C 145.45 11.83 140.53 11.45 135.99 13.50 C 131.22 14.18 126.55 15.35 121.88 16.49 C 125.85 14.21 129.83 11.96 134.08 10.22 C 134.20 11.01 134.45 12.58 134.58 13.37 Z" />
</g>
<g id="#dfda8bff">
<path fill="#dfda8b" opacity="1.00" d=" M 190.57 13.36 C 191.51 12.05 192.44 10.73 193.38 9.42 C 199.69 9.25 206.22 10.80 209.32 16.67 C 204.46 16.14 199.63 15.33 194.78 14.79 C 198.45 14.67 202.13 14.48 205.79 14.14 C 200.73 10.86 194.54 11.81 189.53 14.69 C 185.61 15.94 181.57 16.79 177.51 17.40 L 176.49 17.46 C 180.66 14.44 185.29 12.11 190.10 10.27 C 190.22 11.04 190.45 12.59 190.57 13.36 Z" />
</g>
<g id="#edf1acff">
<path fill="#edf1ac" opacity="1.00" d=" M 21.38 14.48 C 26.53 11.40 34.19 10.01 37.79 16.00 C 33.29 15.65 28.79 15.21 24.29 14.86 C 23.56 14.76 22.11 14.58 21.38 14.48 Z" />
<path fill="#edf1ac" opacity="1.00" d=" M 72.40 48.68 C 75.47 49.64 78.67 50.26 81.90 50.15 L 82.68 50.13 C 84.68 50.05 86.69 49.94 88.69 49.77 C 89.49 49.73 91.09 49.65 91.89 49.61 C 91.94 50.34 92.04 51.81 92.08 52.54 C 85.40 52.25 77.16 55.16 72.40 48.68 Z" />
<path fill="#edf1ac" opacity="1.00" d=" M 184.40 48.68 C 187.47 49.64 190.67 50.24 193.89 50.15 L 194.67 50.12 C 196.68 50.05 198.69 49.95 200.70 49.79 C 201.50 49.76 203.09 49.68 203.89 49.64 C 203.94 50.37 204.03 51.81 204.08 52.54 C 197.40 52.25 189.16 55.16 184.40 48.68 Z" />
</g>
<g id="#699961ff">
<path fill="#699961" opacity="1.00" d=" M 56.83 10.53 C 57.12 11.98 57.46 13.41 57.81 14.85 C 57.28 15.72 56.93 16.66 56.75 17.67 C 56.61 18.26 56.34 19.44 56.20 20.03 C 56.52 16.87 56.68 13.70 56.83 10.53 Z" />
<path fill="#699961" opacity="1.00" d=" M 112.84 10.53 C 113.12 11.98 113.47 13.42 113.82 14.85 C 113.28 15.72 112.91 16.65 112.70 17.65 C 112.55 18.20 112.26 19.32 112.11 19.87 C 112.47 16.77 112.65 13.65 112.84 10.53 Z" />
<path fill="#699961" opacity="1.00" d=" M 168.74 10.51 C 169.05 11.97 169.42 13.40 169.80 14.84 C 169.25 15.71 168.90 16.65 168.75 17.67 C 168.62 18.33 168.35 19.65 168.21 20.31 C 168.38 17.05 168.60 13.78 168.74 10.51 Z" />
</g>
<g id="#ebf1acff">
<path fill="#ebf1ac" opacity="1.00" d=" M 77.54 14.62 C 82.25 12.01 87.76 11.79 92.97 12.65 C 92.65 13.35 92.03 14.76 91.71 15.46 C 91.23 15.40 90.27 15.27 89.79 15.21 C 88.57 14.68 86.12 13.64 84.90 13.11 C 84.52 13.61 83.74 14.60 83.35 15.09 C 81.41 14.90 79.48 14.73 77.54 14.62 Z" />
<path fill="#ebf1ac" opacity="1.00" d=" M 189.53 14.69 C 194.54 11.81 200.73 10.86 205.79 14.14 C 202.13 14.48 198.45 14.67 194.78 14.79 C 193.03 14.74 191.28 14.68 189.53 14.69 Z" />
</g>
<g id="#eef2acfe">
<path fill="#eef2ac" opacity="1.00" d=" M 135.99 13.50 C 140.53 11.45 145.45 11.83 149.79 14.10 C 145.19 13.91 140.59 13.83 135.99 13.50 Z" />
</g>
<g id="#675b4bff">
<path fill="#675b4b" opacity="1.00" d=" M 50.63 14.00 C 52.06 13.80 53.49 13.60 54.92 13.40 C 53.71 16.04 52.43 18.65 51.16 21.27 C 50.12 20.99 49.09 20.73 48.06 20.42 C 47.91 20.30 47.61 20.07 47.46 19.95 C 47.54 19.46 47.68 18.47 47.75 17.98 C 48.07 17.44 48.71 16.35 49.03 15.81 C 49.38 16.32 50.08 17.35 50.43 17.86 C 51.36 16.75 52.29 15.65 53.23 14.55 C 52.58 14.41 51.28 14.14 50.63 14.00 Z" />
</g>
<g id="#635d55ff">
<path fill="#635d55" opacity="1.00" d=" M 106.65 14.01 C 108.18 13.86 109.70 13.69 111.23 13.54 C 109.57 16.02 107.82 18.44 106.03 20.82 L 105.68 21.29 L 104.98 20.57 C 104.51 20.08 103.57 19.09 103.10 18.59 C 103.38 18.17 103.96 17.31 104.25 16.89 C 104.45 16.59 104.86 15.98 105.06 15.68 C 105.39 16.22 106.05 17.31 106.38 17.85 C 107.33 16.75 108.29 15.66 109.24 14.57 C 108.59 14.43 107.30 14.15 106.65 14.01 Z" />
</g>
<g id="#655a4bff">
<path fill="#655a4b" opacity="1.00" d=" M 162.60 14.09 C 164.16 13.92 165.72 13.75 167.28 13.59 C 165.70 15.33 164.07 17.02 162.47 18.75 C 163.30 17.25 164.14 15.76 164.98 14.27 C 164.39 14.23 163.20 14.14 162.60 14.09 Z" />
</g>
<g id="#645d56ff">
<path fill="#645d56" opacity="1.00" d=" M 218.57 13.97 C 220.12 13.84 221.66 13.70 223.22 13.57 C 221.59 15.96 219.88 18.30 218.17 20.64 L 217.85 21.09 L 217.08 20.35 C 216.43 19.72 215.76 19.11 215.08 18.52 C 215.32 18.13 215.79 17.36 216.02 16.98 C 216.23 16.64 216.66 15.98 216.88 15.65 C 217.27 16.19 218.05 17.29 218.45 17.83 C 219.37 16.74 220.30 15.66 221.24 14.57 C 220.57 14.42 219.23 14.12 218.57 13.97 Z" />
</g>
<g id="#9a9364fe">
<path fill="#9a9364" opacity="1.00" d=" M 1.56 14.73 C 2.69 14.48 3.84 14.42 5.00 14.53 C 4.02 16.09 2.46 17.13 0.71 17.65 C 0.95 16.66 1.23 15.69 1.56 14.73 Z" />
<path fill="#9a9364" opacity="1.00" d=" M 57.81 14.85 C 58.88 14.59 59.97 14.46 61.08 14.46 C 60.28 16.22 58.52 17.17 56.75 17.67 C 56.93 16.66 57.28 15.72 57.81 14.85 Z" />
<path fill="#9a9364" opacity="1.00" d=" M 113.82 14.85 C 114.89 14.59 115.98 14.46 117.08 14.46 C 116.29 16.24 114.49 17.17 112.70 17.65 C 112.91 16.65 113.28 15.72 113.82 14.85 Z" />
<path fill="#9a9364" opacity="1.00" d=" M 169.80 14.84 C 170.87 14.59 171.96 14.46 173.07 14.46 C 172.27 16.21 170.51 17.15 168.75 17.67 C 168.90 16.65 169.25 15.71 169.80 14.84 Z" />
</g>
<g id="#9c8a4eff">
<path fill="#9c8a4e" opacity="1.00" d=" M 49.97 14.30 L 50.12 14.06 L 50.63 14.00 C 51.28 14.14 52.58 14.41 53.23 14.55 C 52.29 15.65 51.36 16.75 50.43 17.86 C 50.08 17.35 49.38 16.32 49.03 15.81 C 49.26 15.43 49.74 14.68 49.97 14.30 Z" />
<path fill="#9c8a4e" opacity="1.00" d=" M 106.04 14.28 L 106.19 14.06 L 106.65 14.01 C 107.30 14.15 108.59 14.43 109.24 14.57 C 108.29 15.66 107.33 16.75 106.38 17.85 C 106.05 17.31 105.39 16.22 105.06 15.68 C 105.31 15.33 105.79 14.63 106.04 14.28 Z" />
<path fill="#9c8a4e" opacity="1.00" d=" M 161.87 14.45 L 162.04 14.15 L 162.60 14.09 C 163.20 14.14 164.39 14.23 164.98 14.27 C 164.14 15.76 163.30 17.25 162.47 18.75 L 162.30 18.06 C 162.03 17.51 161.49 16.40 161.22 15.85 C 161.38 15.50 161.71 14.80 161.87 14.45 Z" />
<path fill="#9c8a4e" opacity="1.00" d=" M 217.73 14.34 L 217.95 14.01 L 218.57 13.97 C 219.23 14.12 220.57 14.42 221.24 14.57 C 220.30 15.66 219.37 16.74 218.45 17.83 C 218.05 17.29 217.27 16.19 216.88 15.65 C 217.09 15.32 217.52 14.67 217.73 14.34 Z" />
</g>
<g id="#dfd98afe">
<path fill="#dfd98a" opacity="1.00" d=" M 83.35 15.09 C 83.74 14.60 84.52 13.61 84.90 13.11 C 86.12 13.64 88.57 14.68 89.79 15.21 C 88.18 15.18 84.96 15.12 83.35 15.09 Z" />
</g>
<g id="#a4e0a2ff">
<path fill="#a4e0a2" opacity="1.00" d=" M 121.88 16.49 C 126.55 15.35 131.22 14.18 135.99 13.50 C 140.59 13.83 145.19 13.91 149.79 14.10 C 150.45 14.30 151.76 14.71 152.42 14.91 C 153.90 15.39 155.38 15.86 156.87 16.32 C 157.61 16.54 159.11 17.00 159.86 17.23 C 160.05 17.64 160.44 18.47 160.63 18.88 C 151.09 16.96 141.29 16.26 131.57 16.69 L 130.93 16.74 C 125.65 18.11 120.64 20.95 117.77 25.70 C 117.51 25.44 116.98 24.93 116.72 24.67 L 116.93 24.05 C 118.51 21.48 120.29 19.05 121.88 16.49 Z" />
</g>
<g id="#eef2acff">
<path fill="#eef2ac" opacity="1.00" d=" M 8.44 17.22 C 11.75 16.85 15.02 16.20 18.31 15.69 C 12.64 18.51 5.83 22.21 5.23 29.26 C 4.30 25.26 5.30 21.22 6.63 17.43 C 7.08 17.38 7.99 17.27 8.44 17.22 Z" />
<path fill="#eef2ac" opacity="1.00" d=" M 148.37 52.50 C 142.08 52.94 134.72 54.92 129.52 50.10 C 132.91 50.58 136.33 50.66 139.74 50.48 C 140.25 50.44 141.28 50.37 141.79 50.34 C 142.85 50.25 143.90 50.17 144.96 50.08 C 146.10 50.88 147.24 51.69 148.37 52.50 Z" />
</g>
<g id="#a0e0a3ff">
<path fill="#a0e0a3" opacity="1.00" d=" M 24.29 14.86 C 28.79 15.21 33.29 15.65 37.79 16.00 C 38.08 16.03 38.66 16.08 38.95 16.11 C 40.26 16.33 41.57 16.60 42.87 16.90 C 44.47 17.81 45.99 18.85 47.46 19.95 C 47.61 20.07 47.91 20.30 48.06 20.42 C 48.48 20.76 49.31 21.46 49.72 21.80 L 48.55 21.79 C 44.84 20.93 41.16 19.92 37.39 19.37 C 31.79 18.41 26.09 17.00 20.39 17.97 C 15.65 18.57 11.65 21.43 7.60 23.70 C 8.49 27.24 9.32 30.80 10.31 34.32 C 10.45 34.73 10.72 35.56 10.85 35.97 C 12.64 39.91 14.14 45.09 18.77 46.37 C 25.16 48.29 31.99 46.46 38.44 45.98 L 39.27 45.88 L 38.98 46.59 C 38.73 46.92 38.24 47.57 37.99 47.90 L 37.15 48.06 C 35.68 48.35 34.21 48.64 32.74 48.89 C 27.22 49.64 21.64 49.37 16.11 48.84 C 15.73 48.56 14.98 47.99 14.60 47.71 C 13.51 46.14 12.39 44.59 11.26 43.05 C 9.77 40.47 8.46 37.79 6.99 35.20 C 8.58 33.81 7.56 31.35 5.52 31.27 C 5.44 30.77 5.30 29.77 5.23 29.26 C 5.83 22.21 12.64 18.51 18.31 15.69 C 19.81 15.48 22.79 15.06 24.29 14.86 Z" />
</g>
<g id="#969770ff">
<path fill="#969770" opacity="1.00" d=" M 45.36 14.85 C 46.12 15.65 46.88 16.46 47.61 17.30 L 47.75 17.98 C 47.68 18.47 47.54 19.46 47.46 19.95 C 45.99 18.85 44.47 17.81 42.87 16.90 C 43.70 16.22 44.53 15.54 45.36 14.85 Z" />
</g>
<g id="#a1e1a3ff">
<path fill="#a1e1a3" opacity="1.00" d=" M 65.51 17.41 C 69.58 16.80 73.63 15.95 77.54 14.62 C 79.48 14.73 81.41 14.90 83.35 15.09 C 84.96 15.12 88.18 15.18 89.79 15.21 C 90.27 15.27 91.23 15.40 91.71 15.46 C 93.25 15.66 94.79 15.80 96.33 15.91 C 97.89 16.02 99.45 16.11 101.01 16.20 C 101.68 17.02 102.38 17.81 103.10 18.59 C 103.57 19.09 104.51 20.08 104.98 20.57 L 103.99 20.23 C 103.24 20.23 101.72 20.22 100.96 20.22 L 100.14 19.95 C 99.20 19.60 98.24 19.30 97.26 19.07 C 90.71 17.34 83.94 16.25 77.15 16.36 C 71.15 17.39 64.89 20.19 61.95 25.83 C 62.89 22.92 64.20 20.16 65.51 17.41 Z" />
<path fill="#a1e1a3" opacity="1.00" d=" M 61.42 27.52 C 65.17 37.21 71.15 47.23 81.90 50.15 C 78.67 50.26 75.47 49.64 72.40 48.68 C 67.41 42.95 61.32 37.01 61.10 28.86 L 61.42 27.52 Z" />
<path fill="#a1e1a3" opacity="1.00" d=" M 173.42 27.52 C 177.17 37.21 183.14 47.23 193.89 50.15 C 190.67 50.24 187.47 49.64 184.40 48.68 C 179.41 42.95 173.32 37.00 173.10 28.86 L 173.42 27.52 Z" />
</g>
<g id="#a0dfa2ff">
<path fill="#a0dfa2" opacity="1.00" d=" M 177.51 17.40 C 181.57 16.79 185.61 15.94 189.53 14.69 C 191.28 14.68 193.03 14.74 194.78 14.79 C 199.63 15.33 204.46 16.14 209.32 16.67 C 210.55 16.84 211.78 17.04 213.00 17.29 C 213.52 17.59 214.56 18.21 215.08 18.52 C 215.76 19.11 216.43 19.72 217.08 20.35 L 215.94 20.13 C 215.17 20.24 213.64 20.47 212.87 20.59 L 211.94 20.31 C 210.99 20.00 210.03 19.71 209.08 19.43 C 199.64 16.80 188.81 14.73 179.77 19.72 C 177.23 21.08 175.44 23.43 173.95 25.83 C 174.89 22.92 176.20 20.16 177.51 17.40 Z" />
</g>
<g id="#40cebeff">
<path fill="#40cebe" opacity="1.00" d=" M 61.95 25.83 C 64.89 20.19 71.15 17.39 77.15 16.36 C 83.94 16.25 90.71 17.34 97.26 19.07 C 86.96 19.28 74.94 15.83 66.27 23.15 C 63.16 30.15 67.54 37.76 72.17 42.91 C 77.78 49.42 86.29 46.61 93.57 47.32 C 89.86 47.89 86.29 49.15 82.68 50.13 L 81.90 50.15 C 71.15 47.23 65.17 37.21 61.42 27.52 C 61.55 27.09 61.82 26.25 61.95 25.83 Z" />
<path fill="#40cebe" opacity="1.00" d=" M 117.77 25.70 C 120.64 20.95 125.65 18.11 130.93 16.74 C 127.65 18.60 124.43 20.83 122.12 23.83 C 120.69 27.15 120.97 30.93 120.45 34.44 C 119.71 32.11 118.80 29.84 118.05 27.52 C 117.98 27.06 117.84 26.16 117.77 25.70 Z" />
<path fill="#40cebe" opacity="1.00" d=" M 131.57 16.69 C 141.29 16.26 151.09 16.96 160.63 18.88 L 161.20 18.99 C 160.28 19.55 159.34 20.07 158.37 20.55 C 149.45 19.14 140.37 18.91 131.57 16.69 Z" />
<path fill="#40cebe" opacity="1.00" d=" M 179.77 19.72 C 188.81 14.73 199.64 16.80 209.08 19.43 C 199.92 19.05 190.28 16.84 181.53 20.69 C 176.67 22.61 176.50 28.74 178.07 32.95 C 180.28 37.42 182.34 42.57 187.04 45.05 C 192.50 49.09 199.51 46.41 205.69 47.44 C 201.93 47.94 198.32 49.17 194.67 50.12 L 193.89 50.15 C 183.14 47.23 177.17 37.21 173.42 27.52 C 173.55 27.09 173.82 26.25 173.95 25.83 C 175.44 23.43 177.23 21.08 179.77 19.72 Z" />
</g>
<g id="#6e5f4dff">
<path fill="#6e5f4d" opacity="1.00" d=" M 161.22 15.85 C 161.49 16.40 162.03 17.51 162.30 18.06 C 162.03 18.29 161.48 18.76 161.20 18.99 L 160.63 18.88 C 160.44 18.47 160.05 17.64 159.86 17.23 L 159.90 16.62 C 160.23 16.42 160.89 16.04 161.22 15.85 Z" />
</g>
<g id="#dbd689ff">
<path fill="#dbd689" opacity="1.00" d=" M 3.10 17.66 C 4.27 17.59 5.45 17.53 6.63 17.43 C 5.30 21.22 4.30 25.26 5.23 29.26 C 5.30 29.77 5.44 30.77 5.52 31.27 C 5.62 32.70 6.24 34.01 6.99 35.20 C 8.46 37.79 9.77 40.47 11.26 43.05 C 10.09 42.29 8.89 41.59 7.69 40.89 C 9.94 43.85 12.25 46.76 14.57 49.67 C 9.77 46.28 5.93 41.86 3.02 36.79 C 2.97 38.42 2.91 40.04 2.90 41.66 C 2.33 40.03 1.71 38.41 1.10 36.79 C 1.59 32.63 2.06 28.46 2.47 24.28 C 2.70 22.08 2.91 19.87 3.10 17.66 Z" />
<path fill="#dbd689" opacity="1.00" d=" M 14.60 47.71 C 14.98 47.99 15.73 48.56 16.11 48.84 C 18.80 50.76 21.62 52.99 25.09 52.99 C 28.76 52.94 32.40 52.39 36.07 52.50 C 36.00 51.21 35.94 49.92 35.87 48.63 C 35.09 48.70 33.52 48.83 32.74 48.89 C 34.21 48.64 35.68 48.35 37.15 48.06 C 38.09 49.68 39.04 51.30 40.01 52.91 L 40.21 53.25 C 38.58 53.72 37.30 54.87 36.04 55.96 C 33.21 55.95 30.39 55.96 27.56 56.00 L 20.96 56.00 C 19.93 55.72 18.91 55.42 17.89 55.10 C 16.90 52.89 15.89 50.69 14.92 48.47 L 14.60 47.71 Z" />
<path fill="#dbd689" opacity="1.00" d=" M 126.56 47.71 C 127.51 48.55 128.49 49.35 129.52 50.10 C 134.72 54.92 142.08 52.94 148.37 52.50 C 147.24 51.69 146.10 50.88 144.96 50.08 C 146.84 49.91 148.70 49.65 150.56 49.39 C 151.03 50.52 151.50 51.66 151.98 52.79 L 152.18 53.29 C 150.50 53.63 149.25 54.86 148.02 55.96 C 145.19 55.96 142.39 55.96 139.56 56.00 L 132.96 56.00 C 131.93 55.72 130.91 55.43 129.90 55.12 C 128.90 52.89 127.89 50.68 126.89 48.46 L 126.56 47.71 Z" />
</g>
<g id="#3fcdbeff">
<path fill="#3fcdbe" opacity="1.00" d=" M 20.39 17.97 C 26.09 17.00 31.79 18.41 37.39 19.37 C 29.66 19.74 21.62 18.95 14.09 21.07 C 8.59 22.90 10.26 30.11 10.31 34.32 C 9.32 30.80 8.49 27.24 7.60 23.70 C 11.65 21.43 15.65 18.57 20.39 17.97 Z" />
<path fill="#3fcdbe" opacity="1.00" d=" M 134.64 49.20 C 140.95 48.40 147.29 47.93 153.66 48.14 L 153.32 48.97 C 152.63 49.08 151.25 49.29 150.56 49.39 C 147.60 49.14 144.68 49.83 141.79 50.34 C 141.28 50.37 140.25 50.44 139.74 50.48 C 138.02 50.15 136.32 49.69 134.64 49.20 Z" />
</g>
<g id="#dcd78aff">
<path fill="#dcd78a" opacity="1.00" d=" M 59.12 17.44 C 60.29 17.46 61.45 17.49 62.62 17.50 C 61.91 21.25 60.93 25.01 61.10 28.86 C 61.32 37.01 67.41 42.95 72.40 48.68 C 77.16 55.16 85.40 52.25 92.08 52.54 C 92.04 51.81 91.94 50.34 91.89 49.61 C 91.09 49.65 89.49 49.73 88.69 49.77 C 90.33 49.35 91.96 48.85 93.59 48.36 C 94.36 49.89 95.14 51.42 95.95 52.93 L 96.13 53.29 C 94.49 53.69 93.24 54.87 92.02 55.96 C 89.18 55.95 86.37 55.96 83.55 56.00 L 76.67 56.00 C 75.95 55.58 75.23 55.16 74.51 54.75 C 72.91 53.00 71.42 51.16 69.75 49.48 C 65.57 45.79 61.93 41.56 59.00 36.82 C 58.95 38.44 58.88 40.07 58.87 41.69 C 58.32 40.03 57.69 38.40 57.17 36.73 C 57.62 32.59 58.05 28.44 58.47 24.30 C 58.72 22.01 58.93 19.73 59.12 17.44 M 64.27 41.54 C 63.13 42.41 64.59 44.38 65.73 43.46 C 66.87 42.58 65.41 40.62 64.27 41.54 Z" />
<path fill="#dcd78a" opacity="1.00" d=" M 171.14 17.44 C 172.29 17.46 173.46 17.49 174.62 17.50 C 173.91 21.25 172.93 25.01 173.10 28.86 C 173.32 37.00 179.41 42.95 184.40 48.68 C 189.16 55.16 197.40 52.25 204.08 52.54 C 204.03 51.81 203.94 50.37 203.89 49.64 C 203.09 49.68 201.50 49.76 200.70 49.79 C 202.30 49.33 203.88 48.80 205.47 48.28 C 206.29 49.73 207.13 51.18 208.00 52.61 L 207.84 53.01 C 206.50 53.89 205.25 54.89 204.05 55.95 C 201.19 55.95 198.38 55.96 195.55 56.00 L 188.67 56.00 C 187.95 55.58 187.23 55.16 186.51 54.75 C 184.91 53.00 183.42 51.16 181.75 49.48 C 177.57 45.79 173.94 41.57 171.02 36.83 C 170.94 38.44 170.84 40.05 170.81 41.66 C 170.38 39.81 170.00 37.94 169.86 36.04 C 169.90 32.11 170.06 28.19 170.42 24.29 C 170.66 22.01 170.92 19.73 171.14 17.44 M 176.27 41.54 C 175.13 42.41 176.59 44.38 177.73 43.46 C 178.87 42.58 177.41 40.62 176.27 41.54 Z" />
</g>
<g id="#dcd689ff">
<path fill="#dcd689" opacity="1.00" d=" M 115.08 17.67 C 116.39 17.59 117.71 17.52 119.02 17.39 C 118.32 19.61 117.64 21.83 116.93 24.05 L 116.72 24.67 C 116.01 25.84 116.08 27.75 117.68 28.11 C 117.13 29.07 116.61 30.04 116.12 31.03 C 115.26 32.38 116.17 34.00 117.09 35.04 C 118.84 37.27 120.57 39.51 122.25 41.79 C 121.59 41.68 120.28 41.45 119.62 41.33 C 121.93 44.10 124.26 46.85 126.58 49.61 C 121.76 46.27 117.92 41.88 115.06 36.81 C 114.96 38.46 114.84 40.12 114.80 41.78 C 114.39 40.62 113.95 39.48 113.55 38.33 C 113.78 33.65 114.12 28.98 114.48 24.32 C 114.69 22.10 114.90 19.89 115.08 17.67 Z" />
</g>
<g id="#eef1adff">
<path fill="#eef1ad" opacity="1.00" d=" M 119.02 17.39 C 119.99 17.13 120.94 16.83 121.88 16.49 C 120.29 19.05 118.51 21.48 116.93 24.05 C 117.64 21.83 118.32 19.61 119.02 17.39 Z" />
<path fill="#eef1ad" opacity="1.00" d=" M 7.69 40.89 C 8.89 41.59 10.09 42.29 11.26 43.05 C 12.39 44.59 13.51 46.14 14.60 47.71 L 14.92 48.47 L 14.57 49.67 C 12.25 46.76 9.94 43.85 7.69 40.89 Z" />
</g>
<g id="#1aa9c2ff">
<path fill="#1aa9c2" opacity="1.00" d=" M 130.93 16.74 L 131.57 16.69 C 140.37 18.91 149.45 19.14 158.37 20.55 C 148.28 23.04 137.91 20.39 127.79 19.65 C 123.46 24.96 123.53 31.83 122.96 38.31 C 122.53 37.16 121.72 36.46 120.53 36.21 C 120.51 35.77 120.47 34.88 120.45 34.44 C 120.97 30.93 120.69 27.15 122.12 23.83 C 124.43 20.83 127.65 18.60 130.93 16.74 Z" />
<path fill="#1aa9c2" opacity="1.00" d=" M 100.96 20.22 C 101.72 20.22 103.24 20.23 103.99 20.23 C 103.50 21.78 101.57 21.54 100.96 20.22 Z" />
<path fill="#1aa9c2" opacity="1.00" d=" M 212.87 20.59 C 213.64 20.47 215.17 20.24 215.94 20.13 C 215.64 21.72 213.71 21.73 212.87 20.59 Z" />
<path fill="#1aa9c2" opacity="1.00" d=" M 131.53 21.12 C 132.95 18.94 134.70 23.02 132.10 22.41 C 131.96 22.09 131.68 21.44 131.53 21.12 Z" />
<path fill="#1aa9c2" opacity="1.00" d=" M 77.53 23.12 C 78.95 20.94 80.70 25.02 78.10 24.41 C 77.96 24.09 77.68 23.44 77.53 23.12 Z" />
<path fill="#1aa9c2" opacity="1.00" d=" M 189.53 23.12 C 190.95 20.94 192.70 25.02 190.10 24.41 C 189.96 24.09 189.68 23.44 189.53 23.12 Z" />
<path fill="#1aa9c2" opacity="1.00" d=" M 44.97 25.84 C 43.15 23.91 47.46 23.46 48.77 23.89 C 47.63 24.74 46.42 25.63 44.97 25.84 Z" />
<path fill="#1aa9c2" opacity="1.00" d=" M 15.06 24.68 C 16.67 24.07 17.01 26.61 16.07 27.45 L 15.38 27.48 C 14.77 26.53 14.66 25.60 15.06 24.68 Z" />
<path fill="#1aa9c2" opacity="1.00" d=" M 198.98 41.22 C 199.57 40.17 201.42 40.17 202.02 41.22 C 202.34 43.01 198.65 43.01 198.98 41.22 Z" />
</g>
<g id="#eef2adff">
<path fill="#eef2ad" opacity="1.00" d=" M 62.62 17.50 C 63.09 17.49 64.02 17.47 64.49 17.47 L 65.51 17.41 C 64.20 20.16 62.89 22.92 61.95 25.83 C 61.82 26.25 61.55 27.09 61.42 27.52 L 61.10 28.86 C 60.93 25.01 61.91 21.25 62.62 17.50 Z" />
<path fill="#eef2ad" opacity="1.00" d=" M 174.62 17.50 C 175.09 17.49 176.02 17.47 176.49 17.46 L 177.51 17.40 C 176.20 20.16 174.89 22.92 173.95 25.83 C 173.82 26.25 173.55 27.09 173.42 27.52 L 173.10 28.86 C 172.93 25.01 173.91 21.25 174.62 17.50 Z" />
<path fill="#eef2ad" opacity="1.00" d=" M 116.72 24.67 C 116.98 24.93 117.51 25.44 117.77 25.70 C 117.84 26.16 117.98 27.06 118.05 27.52 L 117.68 28.11 C 116.08 27.75 116.01 25.84 116.72 24.67 Z" />
<path fill="#eef2ad" opacity="1.00" d=" M 5.52 31.27 C 7.56 31.35 8.58 33.81 6.99 35.20 C 6.24 34.01 5.62 32.70 5.52 31.27 Z" />
<path fill="#eef2ad" opacity="1.00" d=" M 116.12 31.03 C 117.81 31.62 118.30 33.74 117.09 35.04 C 116.17 34.00 115.26 32.38 116.12 31.03 Z" />
<path fill="#eef2ad" opacity="1.00" d=" M 64.27 41.54 C 65.41 40.62 66.87 42.58 65.73 43.46 C 64.59 44.38 63.13 42.41 64.27 41.54 Z" />
<path fill="#eef2ad" opacity="1.00" d=" M 176.27 41.54 C 177.41 40.62 178.87 42.58 177.73 43.46 C 176.59 44.38 175.13 42.41 176.27 41.54 Z" />
</g>
<g id="#1ca9c1ff">
<path fill="#1ca9c1" opacity="1.00" d=" M 66.27 23.15 C 74.94 15.83 86.96 19.28 97.26 19.07 C 98.24 19.30 99.20 19.60 100.14 19.95 C 101.97 20.73 103.79 21.52 105.68 22.13 C 103.94 22.32 102.22 22.59 100.49 22.79 C 93.79 23.04 87.07 22.61 80.42 21.83 C 77.31 21.79 73.38 20.40 70.58 22.55 C 67.34 25.67 66.16 31.20 68.95 34.99 C 71.43 38.10 73.34 42.98 77.71 43.86 C 84.80 44.36 91.93 43.87 99.01 44.75 C 98.60 45.84 98.19 46.93 97.78 48.02 C 97.73 48.14 97.64 48.39 97.59 48.52 C 97.04 48.35 95.94 48.01 95.39 47.83 C 94.93 47.70 94.02 47.45 93.57 47.32 C 86.29 46.61 77.78 49.42 72.17 42.91 C 67.54 37.76 63.16 30.15 66.27 23.15 Z" />
</g>
<g id="#4377caff">
<path fill="#4377ca" opacity="1.00" d=" M 161.20 18.99 C 161.48 18.76 162.03 18.29 162.30 18.06 L 162.47 18.75 L 162.51 19.14 C 162.56 19.60 162.66 20.53 162.71 20.99 C 160.84 21.87 158.97 22.74 157.08 23.59 C 159.67 25.16 162.24 26.76 164.88 28.25 C 163.83 30.00 162.71 31.74 162.10 33.69 C 163.44 35.44 165.15 36.86 166.77 38.34 C 160.94 36.69 155.09 34.92 149.03 34.32 C 145.75 34.61 143.20 37.05 140.58 38.82 C 145.59 40.24 150.29 43.96 155.73 43.51 C 157.78 42.49 159.36 40.77 161.07 39.28 C 160.77 40.44 160.48 41.60 160.19 42.76 C 162.81 43.15 165.43 43.54 168.04 44.02 L 168.05 44.65 C 164.56 44.96 161.22 46.02 158.01 47.37 C 152.85 45.55 147.28 44.37 141.84 45.71 C 138.72 46.00 135.26 47.34 132.34 45.59 C 129.03 43.61 126.13 41.03 122.86 38.99 L 122.96 38.31 C 123.53 31.83 123.46 24.96 127.79 19.65 C 137.91 20.39 148.28 23.04 158.37 20.55 C 159.34 20.07 160.28 19.55 161.20 18.99 M 131.53 21.12 C 131.68 21.44 131.96 22.09 132.10 22.41 C 134.70 23.02 132.95 18.94 131.53 21.12 M 129.10 30.67 C 134.95 34.16 142.42 34.86 148.37 31.20 C 147.74 29.78 147.11 28.36 146.45 26.95 C 147.23 26.25 148.02 25.56 148.80 24.87 C 149.28 27.67 149.82 30.47 150.57 33.22 C 151.70 32.65 152.84 32.07 153.98 31.49 C 155.69 32.38 157.42 33.24 159.16 34.08 C 159.72 32.45 160.36 30.84 160.70 29.15 C 159.52 26.96 157.29 25.56 154.79 26.35 C 146.48 23.38 134.39 22.12 129.10 30.67 M 125.90 26.21 C 126.57 30.52 126.65 34.98 128.09 39.14 C 129.78 43.09 134.25 44.48 138.10 45.36 C 138.23 42.36 138.50 39.36 138.33 36.36 C 135.16 35.68 132.01 35.04 128.87 34.26 C 128.97 32.55 129.18 29.13 129.29 27.43 C 130.20 26.55 131.11 25.67 132.03 24.79 C 129.98 25.25 127.94 25.74 125.90 26.21 Z" />
</g>
<g id="#1ba8c2ff">
<path fill="#1ba8c2" opacity="1.00" d=" M 181.53 20.69 C 190.28 16.84 199.92 19.05 209.08 19.43 C 210.03 19.71 210.99 20.00 211.94 20.31 C 213.86 20.97 215.78 21.60 217.75 22.11 C 215.99 22.33 214.25 22.60 212.49 22.81 C 205.79 23.05 199.07 22.60 192.42 21.83 C 189.31 21.79 185.38 20.40 182.58 22.55 C 179.56 25.50 178.22 30.61 180.58 34.36 C 183.43 39.37 187.60 45.85 194.50 44.04 C 201.86 43.60 209.07 45.00 216.24 46.45 C 214.84 46.73 213.45 47.04 212.06 47.38 C 211.25 47.58 210.45 47.79 209.64 48.00 C 209.07 47.91 207.93 47.74 207.36 47.66 C 206.94 47.61 206.11 47.50 205.69 47.44 C 199.51 46.41 192.50 49.09 187.04 45.05 C 182.34 42.57 180.28 37.42 178.07 32.95 C 176.50 28.74 176.67 22.61 181.53 20.69 Z" />
</g>
<g id="#1caac1ff">
<path fill="#1caac1" opacity="1.00" d=" M 14.09 21.07 C 21.62 18.95 29.66 19.74 37.39 19.37 C 41.16 19.92 44.84 20.93 48.55 21.79 C 38.90 22.14 29.24 21.87 19.60 21.54 C 16.77 21.41 13.30 22.19 12.47 25.33 C 11.62 31.68 13.98 38.78 19.20 42.71 C 22.63 44.34 26.51 42.79 30.13 42.75 C 36.54 41.64 42.34 45.02 48.25 46.84 C 46.67 46.99 45.08 47.13 43.50 47.28 L 42.89 46.79 C 41.99 45.73 40.56 45.37 39.27 45.88 L 38.44 45.98 C 36.94 45.19 35.47 44.34 34.00 43.50 C 29.66 45.25 24.75 46.48 20.14 44.90 C 16.00 43.27 13.32 39.48 10.85 35.97 C 10.72 35.56 10.45 34.73 10.31 34.32 C 10.26 30.11 8.59 22.90 14.09 21.07 Z" />
</g>
<g id="#6797b6fe">
<path fill="#6797b6" opacity="1.00" d=" M 162.71 20.99 C 162.66 20.53 162.56 19.60 162.51 19.14 C 164.06 19.26 165.56 19.68 167.05 20.12 C 166.77 20.37 166.19 20.88 165.90 21.13 C 165.18 21.23 163.75 21.43 163.03 21.54 L 162.71 20.99 Z" />
<path fill="#6797b6" opacity="1.00" d=" M 105.68 21.29 L 106.03 20.82 C 107.69 20.41 109.39 20.73 110.92 21.41 C 110.65 21.60 110.11 21.97 109.84 22.16 C 109.15 22.29 107.78 22.56 107.09 22.69 L 106.48 22.40 C 106.28 22.12 105.88 21.57 105.68 21.29 Z" />
<path fill="#6797b6" opacity="1.00" d=" M 217.85 21.09 L 218.17 20.64 C 219.78 20.31 221.42 20.65 223.00 20.98 C 222.84 21.24 222.52 21.77 222.35 22.03 C 221.69 22.12 220.37 22.30 219.71 22.40 L 218.85 22.26 C 218.60 21.97 218.10 21.38 217.85 21.09 Z" />
</g>
<g id="#4377c9fe">
<path fill="#4377c9" opacity="1.00" d=" M 48.06 20.42 C 49.09 20.73 50.12 20.99 51.16 21.27 L 51.00 21.58 C 50.86 21.86 50.57 22.43 50.43 22.72 C 50.02 23.01 49.19 23.59 48.77 23.89 C 47.46 23.46 43.15 23.91 44.97 25.84 C 48.09 28.12 52.05 28.26 55.77 28.46 C 55.76 28.71 55.75 29.20 55.75 29.45 C 53.94 30.79 51.94 31.92 50.40 33.59 C 49.16 36.66 53.13 38.37 54.75 40.39 C 49.83 39.10 44.90 37.84 40.17 35.95 C 40.48 35.01 40.79 34.07 41.10 33.13 C 43.04 34.06 44.99 34.98 46.94 35.89 C 47.86 33.76 48.75 31.62 49.64 29.48 C 38.60 27.21 27.29 26.57 16.07 27.45 C 17.01 26.61 16.67 24.07 15.06 24.68 C 14.66 25.60 14.77 26.53 15.38 27.48 C 15.90 30.30 16.41 33.12 16.90 35.95 C 19.29 33.29 21.16 30.25 23.28 27.40 C 22.74 29.44 22.24 31.48 21.77 33.54 C 25.75 35.62 30.22 35.64 34.20 33.55 C 33.74 31.46 33.27 29.37 32.81 27.29 C 34.73 30.04 36.48 32.91 38.34 35.71 C 35.74 36.43 33.17 37.20 30.62 38.06 C 34.82 40.31 39.05 42.49 43.49 44.23 C 44.53 42.79 45.53 41.33 46.55 39.88 C 46.64 41.60 46.70 43.33 46.82 45.05 C 49.92 45.43 53.02 45.80 56.11 46.16 C 56.04 47.10 55.90 48.96 55.83 49.90 C 55.78 50.25 55.69 50.96 55.64 51.32 C 51.39 50.82 46.89 50.14 43.50 47.28 C 45.08 47.13 46.67 46.99 48.25 46.84 C 42.34 45.02 36.54 41.64 30.13 42.75 C 26.51 42.79 22.63 44.34 19.20 42.71 C 13.98 38.78 11.62 31.68 12.47 25.33 C 13.30 22.19 16.77 21.41 19.60 21.54 C 29.24 21.87 38.90 22.14 48.55 21.79 L 49.72 21.80 C 49.31 21.46 48.48 20.76 48.06 20.42 M 16.16 36.14 C 19.11 39.02 22.72 41.11 26.65 42.34 C 25.37 37.80 21.62 34.05 16.16 36.14 Z" />
</g>
<g id="#4476cbff">
<path fill="#4476cb" opacity="1.00" d=" M 100.14 19.95 L 100.96 20.22 C 101.57 21.54 103.50 21.78 103.99 20.23 L 104.98 20.57 L 105.68 21.29 C 105.88 21.57 106.28 22.12 106.48 22.40 L 105.68 22.13 C 103.79 21.52 101.97 20.73 100.14 19.95 Z" />
<path fill="#4476cb" opacity="1.00" d=" M 211.94 20.31 L 212.87 20.59 C 213.71 21.73 215.64 21.72 215.94 20.13 L 217.08 20.35 L 217.85 21.09 C 218.10 21.38 218.60 21.97 218.85 22.26 L 217.75 22.11 C 215.78 21.60 213.86 20.97 211.94 20.31 Z" />
</g>
<g id="#3c6bbeff">
<path fill="#3c6bbe" opacity="1.00" d=" M 167.05 20.12 L 168.21 20.31 C 168.17 20.95 168.07 22.21 168.02 22.84 C 167.95 25.91 167.99 28.98 167.98 32.04 C 167.99 32.77 168.01 34.24 168.01 34.97 L 168.02 35.87 C 168.01 38.59 168.02 41.31 168.04 44.02 C 165.43 43.54 162.81 43.15 160.19 42.76 C 160.48 41.60 160.77 40.44 161.07 39.28 C 159.36 40.77 157.78 42.49 155.73 43.51 C 150.29 43.96 145.59 40.24 140.58 38.82 C 143.20 37.05 145.75 34.61 149.03 34.32 C 155.09 34.92 160.94 36.69 166.77 38.34 C 165.15 36.86 163.44 35.44 162.10 33.69 C 162.71 31.74 163.83 30.00 164.88 28.25 C 162.24 26.76 159.67 25.16 157.08 23.59 C 158.97 22.74 160.84 21.87 162.71 20.99 L 163.03 21.54 C 163.43 24.51 167.27 24.40 165.90 21.13 C 166.19 20.88 166.77 20.37 167.05 20.12 Z" />
<path fill="#3c6bbe" opacity="1.00" d=" M 54.92 22.39 L 55.89 21.64 L 55.84 22.70 C 55.79 24.62 55.79 26.54 55.77 28.46 C 52.05 28.26 48.09 28.12 44.97 25.84 C 46.42 25.63 47.63 24.74 48.77 23.89 C 49.19 23.59 50.02 23.01 50.43 22.72 L 50.73 23.26 C 50.83 25.61 55.06 25.95 53.66 23.23 C 53.97 23.02 54.61 22.60 54.92 22.39 Z" />
<path fill="#3c6bbe" opacity="1.00" d=" M 129.10 30.67 C 134.39 22.12 146.48 23.38 154.79 26.35 C 157.29 25.56 159.52 26.96 160.70 29.15 C 160.36 30.84 159.72 32.45 159.16 34.08 C 157.42 33.24 155.69 32.38 153.98 31.49 C 152.84 32.07 151.70 32.65 150.57 33.22 C 149.82 30.47 149.28 27.67 148.80 24.87 C 148.02 25.56 147.23 26.25 146.45 26.95 C 147.11 28.36 147.74 29.78 148.37 31.20 C 142.42 34.86 134.95 34.16 129.10 30.67 M 141.17 25.11 C 139.59 25.51 140.21 28.19 141.83 27.57 C 143.35 27.13 142.83 24.45 141.17 25.11 Z" />
<path fill="#3c6bbe" opacity="1.00" d=" M 94.34 26.55 C 97.31 25.73 101.57 24.47 103.41 27.72 C 105.14 29.85 103.82 32.71 103.63 35.13 C 101.44 34.15 99.26 33.16 97.08 32.15 C 96.78 33.08 96.47 34.01 96.17 34.95 C 100.90 36.84 105.83 38.10 110.75 39.39 C 109.18 37.46 105.86 36.03 106.17 33.22 C 107.32 31.00 109.87 29.96 111.73 28.39 C 111.74 29.30 111.78 31.11 111.80 32.02 C 111.93 32.73 112.20 34.17 112.33 34.88 L 112.57 35.66 C 112.51 38.76 112.42 41.88 112.22 44.98 C 109.24 44.97 106.24 44.95 103.27 44.93 C 103.37 43.01 103.48 41.09 103.59 39.16 C 102.56 40.63 101.60 42.16 100.33 43.44 C 94.78 44.37 89.77 40.70 84.72 39.14 C 87.70 37.53 90.71 35.99 93.80 34.59 C 93.18 32.04 91.17 28.15 94.34 26.55 Z" />
<path fill="#3c6bbe" opacity="1.00" d=" M 206.34 26.55 C 209.31 25.73 213.57 24.47 215.41 27.72 C 217.13 29.85 215.82 32.71 215.63 35.13 C 213.44 34.15 211.26 33.16 209.08 32.15 C 208.78 33.08 208.47 34.01 208.17 34.94 C 212.89 36.81 217.81 38.13 222.72 39.40 C 220.74 37.26 218.84 35.05 217.09 32.72 C 219.40 31.28 221.73 29.86 224.00 28.34 L 224.00 45.20 C 214.62 44.74 205.41 42.83 196.82 38.99 C 199.78 37.46 202.76 35.98 205.82 34.63 C 205.19 32.07 203.15 28.16 206.34 26.55 Z" />
<path fill="#3c6bbe" opacity="1.00" d=" M 71.63 34.09 C 75.12 35.32 78.60 36.55 82.16 37.57 C 81.76 39.37 81.37 41.17 81.02 42.98 C 80.23 43.01 78.65 43.07 77.87 43.10 C 75.70 40.15 73.56 37.20 71.63 34.09 Z" />
<path fill="#3c6bbe" opacity="1.00" d=" M 185.96 35.32 C 188.73 36.03 191.45 36.69 194.25 37.34 C 193.86 39.00 193.46 40.66 193.04 42.32 C 190.37 40.60 187.73 38.82 185.05 37.13 C 185.35 36.53 185.65 35.92 185.96 35.32 Z" />
<path fill="#3c6bbe" opacity="1.00" d=" M 16.16 36.14 C 21.62 34.05 25.37 37.80 26.65 42.34 C 22.72 41.11 19.11 39.02 16.16 36.14 Z" />
</g>
<g id="#6e9fb5ff">
<path fill="#6e9fb5" opacity="1.00" d=" M 51.00 21.58 C 52.38 21.18 53.77 21.63 54.92 22.39 C 54.61 22.60 53.97 23.02 53.66 23.23 C 52.93 23.24 51.46 23.26 50.73 23.26 L 50.43 22.72 C 50.57 22.43 50.86 21.86 51.00 21.58 Z" />
</g>
<g id="#4377cafe">
<path fill="#4377ca" opacity="1.00" d=" M 70.58 22.55 C 73.38 20.40 77.31 21.79 80.42 21.83 C 87.07 22.61 93.79 23.04 100.49 22.79 C 103.72 25.43 107.53 27.20 111.75 27.51 C 111.74 27.73 111.73 28.17 111.73 28.39 C 109.87 29.96 107.32 31.00 106.17 33.22 C 105.86 36.03 109.18 37.46 110.75 39.39 C 105.83 38.10 100.90 36.84 96.17 34.95 C 96.47 34.01 96.78 33.08 97.08 32.15 C 99.26 33.16 101.44 34.15 103.63 35.13 C 103.82 32.71 105.14 29.85 103.41 27.72 C 101.57 24.47 97.31 25.73 94.34 26.55 C 91.17 28.15 93.18 32.04 93.80 34.59 C 90.71 35.99 87.70 37.53 84.72 39.14 C 89.77 40.70 94.78 44.37 100.33 43.44 C 101.60 42.16 102.56 40.63 103.59 39.16 C 103.48 41.09 103.37 43.01 103.27 44.93 C 106.24 44.95 109.24 44.97 112.22 44.98 L 112.13 45.95 C 108.37 46.64 104.62 47.34 100.82 47.73 C 100.06 47.80 98.54 47.95 97.78 48.02 C 98.19 46.93 98.60 45.84 99.01 44.75 C 91.93 43.87 84.80 44.36 77.71 43.86 C 73.34 42.98 71.43 38.10 68.95 34.99 C 66.16 31.20 67.34 25.67 70.58 22.55 M 71.33 23.22 C 69.43 24.03 70.69 27.02 72.50 25.61 C 74.46 24.82 73.16 21.85 71.33 23.22 M 77.53 23.12 C 77.68 23.44 77.96 24.09 78.10 24.41 C 80.70 25.02 78.95 20.94 77.53 23.12 M 80.86 26.47 C 77.59 26.58 75.57 29.47 73.87 31.89 C 78.43 33.81 83.87 36.08 88.67 33.66 C 91.23 32.34 90.47 28.98 90.87 26.61 C 87.52 27.05 84.20 26.45 80.86 26.47 M 71.63 34.09 C 73.56 37.20 75.70 40.15 77.87 43.10 C 78.65 43.07 80.23 43.01 81.02 42.98 C 81.37 41.17 81.76 39.37 82.16 37.57 C 78.60 36.55 75.12 35.32 71.63 34.09 Z" />
<path fill="#4377ca" opacity="1.00" d=" M 182.58 22.55 C 185.38 20.40 189.31 21.79 192.42 21.83 C 199.07 22.60 205.79 23.05 212.49 22.81 C 215.84 25.48 219.79 27.17 224.00 27.98 L 224.00 28.34 C 221.73 29.86 219.40 31.28 217.09 32.72 C 218.84 35.05 220.74 37.26 222.72 39.40 C 217.81 38.13 212.89 36.81 208.17 34.94 C 208.47 34.01 208.78 33.08 209.08 32.15 C 211.26 33.16 213.44 34.15 215.63 35.13 C 215.82 32.71 217.13 29.85 215.41 27.72 C 213.57 24.47 209.31 25.73 206.34 26.55 C 203.15 28.16 205.19 32.07 205.82 34.63 C 202.76 35.98 199.78 37.46 196.82 38.99 C 205.41 42.83 214.62 44.74 224.00 45.20 L 224.00 46.12 C 221.39 46.22 218.83 46.34 216.24 46.45 C 209.07 45.00 201.86 43.60 194.50 44.04 C 187.60 45.85 183.43 39.37 180.58 34.36 C 178.22 30.61 179.56 25.50 182.58 22.55 M 183.33 23.22 C 181.43 24.03 182.68 27.02 184.50 25.61 C 186.46 24.82 185.16 21.85 183.33 23.22 M 189.53 23.12 C 189.68 23.44 189.96 24.09 190.10 24.41 C 192.70 25.02 190.95 20.94 189.53 23.12 M 192.87 26.48 C 189.64 26.57 187.63 29.39 185.94 31.76 C 189.97 33.97 194.61 36.85 199.19 34.26 C 202.88 33.54 202.73 29.55 202.87 26.61 C 199.52 27.05 196.20 26.45 192.87 26.48 M 185.96 35.32 C 185.65 35.92 185.35 36.53 185.05 37.13 C 187.73 38.82 190.37 40.60 193.04 42.32 C 193.46 40.66 193.86 39.00 194.25 37.34 C 191.45 36.69 188.73 36.03 185.96 35.32 M 198.98 41.22 C 198.65 43.01 202.34 43.01 202.02 41.22 C 201.42 40.17 199.57 40.17 198.98 41.22 Z" />
</g>
<g id="#3c6bbefe">
<path fill="#3c6bbe" opacity="1.00" d=" M 110.92 21.41 L 111.93 20.67 C 111.91 21.21 111.86 22.28 111.84 22.81 C 111.80 24.38 111.77 25.95 111.75 27.51 C 107.53 27.20 103.72 25.43 100.49 22.79 C 102.22 22.59 103.94 22.32 105.68 22.13 L 106.48 22.40 L 107.09 22.69 C 107.73 25.50 112.15 25.04 109.84 22.16 C 110.11 21.97 110.65 21.60 110.92 21.41 Z" />
<path fill="#3c6bbe" opacity="1.00" d=" M 223.00 20.98 L 224.00 21.08 L 224.00 27.98 C 219.79 27.17 215.84 25.48 212.49 22.81 C 214.25 22.60 215.99 22.33 217.75 22.11 L 218.85 22.26 L 219.71 22.40 C 218.21 25.78 222.81 25.07 222.35 22.03 C 222.52 21.77 222.84 21.24 223.00 20.98 Z" />
<path fill="#3c6bbe" opacity="1.00" d=" M 125.90 26.21 C 127.94 25.74 129.98 25.25 132.03 24.79 C 131.11 25.67 130.20 26.55 129.29 27.43 C 129.18 29.13 128.97 32.55 128.87 34.26 C 132.01 35.04 135.16 35.68 138.33 36.36 C 138.50 39.36 138.23 42.36 138.10 45.36 C 134.25 44.48 129.78 43.09 128.09 39.14 C 126.65 34.98 126.57 30.52 125.90 26.21 Z" />
<path fill="#3c6bbe" opacity="1.00" d=" M 16.07 27.45 C 27.29 26.57 38.60 27.21 49.64 29.48 C 48.75 31.62 47.86 33.76 46.94 35.89 C 44.99 34.98 43.04 34.06 41.10 33.13 C 40.79 34.07 40.48 35.01 40.17 35.95 C 44.90 37.84 49.83 39.10 54.75 40.39 C 53.13 38.37 49.16 36.66 50.40 33.59 C 51.94 31.92 53.94 30.79 55.75 29.45 C 55.76 30.06 55.78 31.28 55.80 31.89 C 55.98 32.61 56.34 34.04 56.52 34.75 L 56.73 35.43 C 56.56 39.01 56.32 42.59 56.11 46.16 C 53.02 45.80 49.92 45.43 46.82 45.05 C 46.70 43.33 46.64 41.60 46.55 39.88 C 45.53 41.33 44.53 42.79 43.49 44.23 C 39.05 42.49 34.82 40.31 30.62 38.06 C 33.17 37.20 35.74 36.43 38.34 35.71 C 36.48 32.91 34.73 30.04 32.81 27.29 C 33.27 29.37 33.74 31.46 34.20 33.55 C 30.22 35.64 25.75 35.62 21.77 33.54 C 22.24 31.48 22.74 29.44 23.28 27.40 C 21.16 30.25 19.29 33.29 16.90 35.95 C 16.41 33.12 15.90 30.30 15.38 27.48 L 16.07 27.45 Z" />
</g>
<g id="#65569cff">
<path fill="#65569c" opacity="1.00" d=" M 163.03 21.54 C 163.75 21.43 165.18 21.23 165.90 21.13 C 167.27 24.40 163.43 24.51 163.03 21.54 Z" />
<path fill="#65569c" opacity="1.00" d=" M 107.09 22.69 C 107.78 22.56 109.15 22.29 109.84 22.16 C 112.15 25.04 107.73 25.50 107.09 22.69 Z" />
<path fill="#65569c" opacity="1.00" d=" M 219.71 22.40 C 220.37 22.30 221.69 22.12 222.35 22.03 C 222.81 25.07 218.21 25.78 219.71 22.40 Z" />
<path fill="#65569c" opacity="1.00" d=" M 50.73 23.26 C 51.46 23.26 52.93 23.24 53.66 23.23 C 55.06 25.95 50.83 25.61 50.73 23.26 Z" />
</g>
<g id="#b0ae6eff">
<path fill="#b0ae6e" opacity="1.00" d=" M 0.00 22.82 C 0.62 23.18 1.85 23.92 2.47 24.28 C 2.06 28.46 1.59 32.63 1.10 36.79 C 0.83 36.33 0.28 35.39 0.00 34.93 L 0.00 34.62 C 1.92 34.71 1.87 31.98 0.00 31.99 L 0.00 22.82 Z" />
<path fill="#b0ae6e" opacity="1.00" d=" M 55.84 22.70 C 56.50 23.10 57.81 23.90 58.47 24.30 C 58.05 28.44 57.62 32.59 57.17 36.73 C 57.06 36.40 56.84 35.76 56.73 35.43 L 56.52 34.75 C 57.88 33.95 57.44 31.88 55.80 31.89 C 55.78 31.28 55.76 30.06 55.75 29.45 C 55.75 29.20 55.76 28.71 55.77 28.46 C 55.79 26.54 55.79 24.62 55.84 22.70 Z" />
<path fill="#b0ae6e" opacity="1.00" d=" M 168.02 22.84 C 168.62 23.21 169.82 23.93 170.42 24.29 C 170.06 28.19 169.90 32.11 169.86 36.04 C 169.40 36.00 168.48 35.91 168.02 35.87 L 168.01 34.97 C 169.63 34.59 169.62 32.38 167.98 32.04 C 167.99 28.98 167.95 25.91 168.02 22.84 Z" />
</g>
<g id="#25a7c2fe">
<path fill="#25a7c2" opacity="1.00" d=" M 71.33 23.22 C 73.16 21.85 74.46 24.82 72.50 25.61 C 70.69 27.02 69.43 24.03 71.33 23.22 Z" />
<path fill="#25a7c2" opacity="1.00" d=" M 183.33 23.22 C 185.16 21.85 186.46 24.82 184.50 25.61 C 182.68 27.02 181.43 24.03 183.33 23.22 Z" />
</g>
<g id="#adaa6aff">
<path fill="#adaa6a" opacity="1.00" d=" M 111.84 22.81 C 112.50 23.19 113.82 23.94 114.48 24.32 C 114.12 28.98 113.78 33.65 113.55 38.33 C 113.30 37.66 112.82 36.32 112.57 35.66 L 112.33 34.88 C 113.83 34.23 113.45 32.07 111.80 32.02 C 111.78 31.11 111.74 29.30 111.73 28.39 C 111.73 28.17 111.74 27.73 111.75 27.51 C 111.77 25.95 111.80 24.38 111.84 22.81 Z" />
</g>
<g id="#3c6bbdff">
<path fill="#3c6bbd" opacity="1.00" d=" M 80.86 26.47 C 84.20 26.45 87.52 27.05 90.87 26.61 C 90.47 28.98 91.23 32.34 88.67 33.66 C 83.87 36.08 78.43 33.81 73.87 31.89 C 75.57 29.47 77.59 26.58 80.86 26.47 Z" />
</g>
<g id="#4575cbff">
<path fill="#4575cb" opacity="1.00" d=" M 141.17 25.11 C 142.83 24.45 143.35 27.13 141.83 27.57 C 140.21 28.19 139.59 25.51 141.17 25.11 Z" />
<path fill="#4575cb" opacity="1.00" d=" M 37.99 47.90 C 38.24 47.57 38.73 46.92 38.98 46.59 L 39.77 46.95 C 40.13 47.21 40.85 47.74 41.20 48.01 L 41.06 48.61 C 39.96 48.77 38.94 48.53 37.99 47.90 Z" />
</g>
<g id="#3c6bbdfe">
<path fill="#3c6bbd" opacity="1.00" d=" M 192.87 26.48 C 196.20 26.45 199.52 27.05 202.87 26.61 C 202.73 29.55 202.88 33.54 199.19 34.26 C 194.61 36.85 189.97 33.97 185.94 31.76 C 187.63 29.39 189.64 26.57 192.87 26.48 Z" />
</g>
<g id="#a1e0a3ff">
<path fill="#a1e0a3" opacity="1.00" d=" M 116.12 31.03 C 116.61 30.04 117.13 29.07 117.68 28.11 L 118.05 27.52 C 118.80 29.84 119.71 32.11 120.45 34.44 C 120.47 34.88 120.51 35.77 120.53 36.21 C 120.35 37.58 121.32 39.20 122.86 38.99 L 123.31 39.68 C 124.60 41.72 125.98 43.71 127.66 45.45 C 129.48 47.45 132.10 48.45 134.64 49.20 C 136.32 49.69 138.02 50.15 139.74 50.48 C 136.33 50.66 132.91 50.58 129.52 50.10 C 128.49 49.35 127.51 48.55 126.56 47.71 C 125.13 45.73 123.69 43.76 122.25 41.79 C 120.57 39.51 118.84 37.27 117.09 35.04 C 118.30 33.74 117.81 31.62 116.12 31.03 Z" />
</g>
<g id="#596753ff">
<path fill="#596753" opacity="1.00" d=" M 0.00 31.99 C 1.87 31.98 1.92 34.71 0.00 34.62 L 0.00 31.99 Z" />
<path fill="#596753" opacity="1.00" d=" M 55.80 31.89 C 57.44 31.88 57.88 33.95 56.52 34.75 C 56.34 34.04 55.98 32.61 55.80 31.89 Z" />
<path fill="#596753" opacity="1.00" d=" M 111.80 32.02 C 113.45 32.07 113.83 34.23 112.33 34.88 C 112.20 34.17 111.93 32.73 111.80 32.02 Z" />
<path fill="#596753" opacity="1.00" d=" M 167.98 32.04 C 169.62 32.38 169.63 34.59 168.01 34.97 C 168.01 34.24 167.99 32.77 167.98 32.04 Z" />
</g>
<g id="#87ae5fff">
<path fill="#87ae5f" opacity="1.00" d=" M 0.00 34.93 C 0.28 35.39 0.83 36.33 1.10 36.79 C 1.71 38.41 2.33 40.03 2.90 41.66 C 3.11 42.51 3.31 43.36 3.52 44.21 C 3.74 45.78 4.58 46.39 6.05 46.03 C 6.96 47.89 8.01 49.68 9.23 51.36 C 11.91 53.02 14.90 54.13 17.89 55.10 C 18.91 55.42 19.93 55.72 20.96 56.00 L 6.68 56.00 C 5.19 55.28 3.72 54.52 2.24 53.77 C 3.44 52.22 4.62 50.65 5.78 49.06 C 3.87 49.48 1.95 49.87 0.00 50.01 L 0.00 34.93 M 7.27 52.54 C 6.13 53.41 7.59 55.38 8.73 54.46 C 9.87 53.58 8.41 51.62 7.27 52.54 Z" />
<path fill="#87ae5f" opacity="1.00" d=" M 56.73 35.43 C 56.84 35.76 57.06 36.40 57.17 36.73 C 57.69 38.40 58.32 40.03 58.87 41.69 C 59.09 42.53 59.31 43.37 59.53 44.21 C 59.75 45.77 60.59 46.38 62.06 46.03 C 62.96 47.91 63.99 49.74 65.19 51.45 C 68.09 53.05 71.35 53.83 74.51 54.75 C 75.23 55.16 75.95 55.58 76.67 56.00 L 62.91 56.00 C 61.35 55.29 59.80 54.53 58.25 53.79 C 59.45 52.21 60.63 50.62 61.77 48.99 C 59.82 49.43 57.83 49.75 55.83 49.90 C 55.90 48.96 56.04 47.10 56.11 46.16 C 56.32 42.59 56.56 39.01 56.73 35.43 M 63.27 52.54 C 62.13 53.41 63.59 55.38 64.73 54.46 C 65.87 53.58 64.41 51.62 63.27 52.54 Z" />
<path fill="#87ae5f" opacity="1.00" d=" M 168.02 35.87 C 168.48 35.91 169.40 36.00 169.86 36.04 C 170.00 37.94 170.38 39.81 170.81 41.66 C 171.00 42.54 171.20 43.40 171.42 44.27 C 171.68 45.81 172.55 46.39 174.02 46.00 C 174.94 47.89 175.99 49.72 177.20 51.44 C 180.10 53.05 183.34 53.84 186.51 54.75 C 187.23 55.16 187.95 55.58 188.67 56.00 L 174.92 56.00 C 173.41 55.32 171.92 54.60 170.42 53.90 C 171.55 52.02 172.61 50.10 173.58 48.13 C 172.82 48.99 172.06 49.86 171.31 50.72 C 170.18 50.21 169.06 49.69 167.94 49.17 C 168.01 47.66 168.05 46.16 168.05 44.65 L 168.04 44.02 C 168.02 41.31 168.01 38.59 168.02 35.87 M 175.27 52.54 C 174.13 53.41 175.59 55.38 176.73 54.46 C 177.87 53.58 176.41 51.62 175.27 52.54 Z" />
</g>
<g id="#40cdbdff">
<path fill="#40cdbd" opacity="1.00" d=" M 10.85 35.97 C 13.32 39.48 16.00 43.27 20.14 44.90 C 24.75 46.48 29.66 45.25 34.00 43.50 C 35.47 44.34 36.94 45.19 38.44 45.98 C 31.99 46.46 25.16 48.29 18.77 46.37 C 14.14 45.09 12.64 39.91 10.85 35.97 Z" />
</g>
<g id="#86af60ff">
<path fill="#86af60" opacity="1.00" d=" M 112.57 35.66 C 112.82 36.32 113.30 37.66 113.55 38.33 C 113.95 39.48 114.39 40.62 114.80 41.78 C 115.04 42.52 115.28 43.26 115.52 44.01 C 115.69 45.40 116.47 46.21 117.87 46.42 C 118.98 48.08 120.11 49.74 121.35 51.31 C 123.96 53.04 126.93 54.14 129.90 55.12 C 130.91 55.43 131.93 55.72 132.96 56.00 L 118.92 56.00 C 117.41 55.32 115.92 54.60 114.42 53.90 C 115.55 52.02 116.61 50.10 117.58 48.13 C 116.82 48.99 116.06 49.86 115.30 50.73 C 114.13 50.19 112.96 49.64 111.80 49.10 C 111.88 48.31 112.05 46.74 112.13 45.95 L 112.22 44.98 C 112.42 41.88 112.51 38.76 112.57 35.66 M 119.27 52.54 C 118.13 53.41 119.59 55.38 120.73 54.46 C 121.87 53.58 120.41 51.62 119.27 52.54 Z" />
</g>
<g id="#37c5bfff">
<path fill="#37c5bf" opacity="1.00" d=" M 120.53 36.21 C 121.72 36.46 122.53 37.16 122.96 38.31 L 122.86 38.99 C 121.32 39.20 120.35 37.58 120.53 36.21 Z" />
</g>
<g id="#a29d6aff">
<path fill="#a29d6a" opacity="1.00" d=" M 3.02 36.79 C 5.93 41.86 9.77 46.28 14.57 49.67 C 14.40 50.22 14.07 51.33 13.90 51.89 C 12.34 51.71 10.79 51.53 9.23 51.36 C 8.01 49.68 6.96 47.89 6.05 46.03 C 5.64 44.83 4.79 44.23 3.52 44.21 C 3.31 43.36 3.11 42.51 2.90 41.66 C 2.91 40.04 2.97 38.42 3.02 36.79 Z" />
<path fill="#a29d6a" opacity="1.00" d=" M 59.00 36.82 C 61.93 41.56 65.57 45.79 69.75 49.48 C 69.79 50.06 69.86 51.23 69.89 51.81 C 68.32 51.69 66.76 51.57 65.19 51.45 C 63.99 49.74 62.96 47.91 62.06 46.03 C 61.65 44.83 60.81 44.22 59.53 44.21 C 59.31 43.37 59.09 42.53 58.87 41.69 C 58.88 40.07 58.95 38.44 59.00 36.82 Z" />
<path fill="#a29d6a" opacity="1.00" d=" M 115.06 36.81 C 117.92 41.88 121.76 46.27 126.58 49.61 C 126.42 50.19 126.09 51.34 125.93 51.92 C 124.40 51.72 122.88 51.51 121.35 51.31 C 120.11 49.74 118.98 48.08 117.87 46.42 C 117.74 44.97 116.96 44.17 115.52 44.01 C 115.28 43.26 115.04 42.52 114.80 41.78 C 114.84 40.12 114.96 38.46 115.06 36.81 Z" />
<path fill="#a29d6a" opacity="1.00" d=" M 171.02 36.83 C 173.94 41.57 177.57 45.79 181.75 49.48 C 181.79 50.06 181.86 51.23 181.89 51.81 C 180.33 51.69 178.76 51.57 177.20 51.44 C 175.99 49.72 174.94 47.89 174.02 46.00 C 173.58 44.81 172.71 44.23 171.42 44.27 C 171.20 43.40 171.00 42.54 170.81 41.66 C 170.84 40.05 170.94 38.44 171.02 36.83 Z" />
</g>
<g id="#1caac1fe">
<path fill="#1caac1" opacity="1.00" d=" M 122.86 38.99 C 126.13 41.03 129.03 43.61 132.34 45.59 C 135.26 47.34 138.72 46.00 141.84 45.71 C 147.28 44.37 152.85 45.55 158.01 47.37 C 157.52 47.53 156.54 47.85 156.05 48.01 C 155.25 48.08 154.46 48.12 153.66 48.14 C 147.29 47.93 140.95 48.40 134.64 49.20 C 132.10 48.45 129.48 47.45 127.66 45.45 C 126.13 43.59 124.69 41.66 123.31 39.68 L 122.86 38.99 Z" />
</g>
<g id="#47ccbbff">
<path fill="#47ccbb" opacity="1.00" d=" M 123.31 39.68 C 124.69 41.66 126.13 43.59 127.66 45.45 C 125.98 43.71 124.60 41.72 123.31 39.68 Z" />
</g>
<g id="#eef1adfe">
<path fill="#eef1ad" opacity="1.00" d=" M 119.62 41.33 C 120.28 41.45 121.59 41.68 122.25 41.79 C 123.69 43.76 125.13 45.73 126.56 47.71 L 126.89 48.46 L 126.58 49.61 C 124.26 46.85 121.93 44.10 119.62 41.33 Z" />
</g>
<g id="#60574aff">
<path fill="#60574a" opacity="1.00" d=" M 3.52 44.21 C 4.79 44.23 5.64 44.83 6.05 46.03 C 4.58 46.39 3.74 45.78 3.52 44.21 Z" />
<path fill="#60574a" opacity="1.00" d=" M 59.53 44.21 C 60.81 44.22 61.65 44.83 62.06 46.03 C 60.59 46.38 59.75 45.77 59.53 44.21 Z" />
<path fill="#60574a" opacity="1.00" d=" M 115.52 44.01 C 116.96 44.17 117.74 44.97 117.87 46.42 C 116.47 46.21 115.69 45.40 115.52 44.01 Z" />
<path fill="#60574a" opacity="1.00" d=" M 171.42 44.27 C 172.71 44.23 173.58 44.81 174.02 46.00 C 172.55 46.39 171.68 45.81 171.42 44.27 Z" />
</g>
<g id="#3c6dbfff">
<path fill="#3c6dbf" opacity="1.00" d=" M 158.01 47.37 C 161.22 46.02 164.56 44.96 168.05 44.65 C 168.05 46.16 168.01 47.66 167.94 49.17 C 167.88 49.53 167.75 50.26 167.68 50.62 C 164.70 50.56 161.74 50.35 158.76 50.49 C 157.86 49.66 156.95 48.83 156.05 48.01 C 156.54 47.85 157.52 47.53 158.01 47.37 Z" />
<path fill="#3c6dbf" opacity="1.00" d=" M 100.82 47.73 C 104.62 47.34 108.37 46.64 112.13 45.95 C 112.05 46.74 111.88 48.31 111.80 49.10 C 111.74 49.48 111.63 50.24 111.57 50.62 C 108.62 50.56 105.69 50.37 102.74 50.53 C 102.26 49.83 101.30 48.43 100.82 47.73 Z" />
<path fill="#3c6dbf" opacity="1.00" d=" M 216.24 46.45 C 218.83 46.34 221.39 46.22 224.00 46.12 L 224.00 50.84 C 220.89 50.69 217.82 50.39 214.72 50.45 C 213.83 49.43 212.95 48.41 212.06 47.38 C 213.45 47.04 214.84 46.73 216.24 46.45 Z" />
</g>
<g id="#41cfbeff">
<path fill="#41cfbe" opacity="1.00" d=" M 39.27 45.88 C 40.56 45.37 41.99 45.73 42.89 46.79 C 42.11 46.83 40.55 46.91 39.77 46.95 L 38.98 46.59 L 39.27 45.88 Z" />
</g>
<g id="#353533ff">
<path fill="#353533" opacity="1.00" d=" M 39.77 46.95 C 40.55 46.91 42.11 46.83 42.89 46.79 L 43.50 47.28 C 46.89 50.14 51.39 50.82 55.64 51.32 L 55.25 51.48 C 54.28 51.82 53.31 52.14 52.33 52.44 L 51.29 52.76 C 50.63 52.49 49.31 51.96 48.65 51.69 C 47.90 51.66 47.15 51.64 46.40 51.63 C 46.02 51.61 45.26 51.58 44.88 51.56 C 44.95 50.22 44.26 49.43 42.82 49.19 C 42.42 48.90 41.61 48.31 41.20 48.01 C 40.85 47.74 40.13 47.21 39.77 46.95 Z" />
</g>
<g id="#a0e0a2ff">
<path fill="#a0e0a2" opacity="1.00" d=" M 82.68 50.13 C 86.29 49.15 89.86 47.89 93.57 47.32 C 94.02 47.45 94.93 47.70 95.39 47.83 C 94.94 47.96 94.04 48.23 93.59 48.36 C 91.96 48.85 90.33 49.35 88.69 49.77 C 86.69 49.94 84.68 50.05 82.68 50.13 Z" />
<path fill="#a0e0a2" opacity="1.00" d=" M 194.67 50.12 C 198.32 49.17 201.93 47.94 205.69 47.44 C 206.11 47.50 206.94 47.61 207.36 47.66 C 206.89 47.81 205.94 48.12 205.47 48.28 C 203.88 48.80 202.30 49.33 200.70 49.79 C 198.69 49.95 196.68 50.05 194.67 50.12 Z" />
<path fill="#a0e0a2" opacity="1.00" d=" M 141.79 50.34 C 144.68 49.83 147.60 49.14 150.56 49.39 C 148.70 49.65 146.84 49.91 144.96 50.08 C 143.90 50.17 142.85 50.25 141.79 50.34 Z" />
</g>
<g id="#475046ff">
<path fill="#475046" opacity="1.00" d=" M 209.64 48.00 C 210.45 47.79 211.25 47.58 212.06 47.38 C 212.95 48.41 213.83 49.43 214.72 50.45 C 214.51 50.76 214.07 51.38 213.86 51.69 C 213.67 51.97 213.30 52.53 213.11 52.81 L 212.63 53.26 L 212.24 53.62 C 210.99 53.08 209.59 53.11 208.41 53.80 L 208.16 53.47 L 207.84 53.01 L 208.00 52.61 C 208.58 51.09 209.11 49.54 209.64 48.00 M 211.15 49.40 C 210.30 53.38 215.14 48.58 211.15 49.40 Z" />
</g>
<g id="#67965dff">
<path fill="#67965d" opacity="1.00" d=" M 0.00 50.01 C 1.95 49.87 3.87 49.48 5.78 49.06 C 4.62 50.65 3.44 52.22 2.24 53.77 C 3.72 54.52 5.19 55.28 6.68 56.00 L 3.68 56.00 C 2.98 54.70 1.07 53.85 0.00 55.28 L 0.00 50.01 Z" />
</g>
<g id="#edf1abfe">
<path fill="#edf1ab" opacity="1.00" d=" M 16.11 48.84 C 21.64 49.37 27.22 49.64 32.74 48.89 C 33.52 48.83 35.09 48.70 35.87 48.63 C 35.94 49.92 36.00 51.21 36.07 52.50 C 32.40 52.39 28.76 52.94 25.09 52.99 C 21.62 52.99 18.80 50.76 16.11 48.84 Z" />
</g>
<g id="#b6ad6fff">
<path fill="#b6ad6f" opacity="1.00" d=" M 37.15 48.06 L 37.99 47.90 C 38.94 48.53 39.96 48.77 41.06 48.61 C 40.71 50.04 40.34 51.47 40.01 52.91 C 39.04 51.30 38.09 49.68 37.15 48.06 Z" />
<path fill="#b6ad6f" opacity="1.00" d=" M 93.59 48.36 C 94.04 48.23 94.94 47.96 95.39 47.83 C 95.94 48.01 97.04 48.35 97.59 48.52 C 97.04 49.99 96.48 51.46 95.95 52.93 C 95.14 51.42 94.36 49.89 93.59 48.36 Z" />
<path fill="#b6ad6f" opacity="1.00" d=" M 205.47 48.28 C 205.94 48.12 206.89 47.81 207.36 47.66 C 207.93 47.74 209.07 47.91 209.64 48.00 C 209.11 49.54 208.58 51.09 208.00 52.61 C 207.13 51.18 206.29 49.73 205.47 48.28 Z" />
<path fill="#b6ad6f" opacity="1.00" d=" M 150.56 49.39 C 151.25 49.29 152.63 49.08 153.32 48.97 C 152.84 50.24 152.39 51.50 151.98 52.79 C 151.50 51.66 151.03 50.52 150.56 49.39 Z" />
</g>
<g id="#4b5845ff">
<path fill="#4b5845" opacity="1.00" d=" M 41.20 48.01 C 41.61 48.31 42.42 48.90 42.82 49.19 C 42.84 50.68 43.53 51.47 44.88 51.56 C 45.26 51.58 46.02 51.61 46.40 51.63 C 46.10 51.92 45.50 52.51 45.20 52.80 L 44.70 53.28 L 44.14 53.83 C 43.22 52.68 41.64 53.16 40.56 53.75 L 40.47 53.65 L 40.21 53.25 L 40.01 52.91 C 40.34 51.47 40.71 50.04 41.06 48.61 L 41.20 48.01 Z" />
</g>
<g id="#69985cff">
<path fill="#69985c" opacity="1.00" d=" M 55.83 49.90 C 57.83 49.75 59.82 49.43 61.77 48.99 C 60.63 50.62 59.45 52.21 58.25 53.79 C 59.80 54.53 61.35 55.29 62.91 56.00 L 60.25 56.00 L 59.98 55.04 L 55.19 55.05 L 54.93 56.00 L 50.47 56.00 C 51.12 54.83 51.72 53.64 52.33 52.44 C 53.31 52.14 54.28 51.82 55.25 51.48 L 55.64 51.32 C 55.69 50.96 55.78 50.25 55.83 49.90 Z" />
<path fill="#69985c" opacity="1.00" d=" M 115.30 50.73 C 116.06 49.86 116.82 48.99 117.58 48.13 C 116.61 50.10 115.55 52.02 114.42 53.90 C 115.92 54.60 117.41 55.32 118.92 56.00 L 116.25 56.00 L 115.98 55.04 L 111.19 55.05 L 110.93 56.00 L 106.47 56.00 C 107.12 54.83 107.72 53.63 108.32 52.43 C 109.36 52.07 110.40 51.68 111.43 51.27 L 111.57 50.62 C 111.63 50.24 111.74 49.48 111.80 49.10 C 112.96 49.64 114.13 50.19 115.30 50.73 Z" />
<path fill="#69985c" opacity="1.00" d=" M 171.31 50.72 C 172.06 49.86 172.82 48.99 173.58 48.13 C 172.61 50.10 171.55 52.02 170.42 53.90 C 171.92 54.60 173.41 55.32 174.92 56.00 L 172.25 56.00 L 171.98 55.04 L 167.19 55.05 L 166.93 56.00 L 162.47 56.00 C 163.12 54.83 163.72 53.64 164.32 52.44 C 165.38 52.07 166.44 51.68 167.49 51.26 L 167.68 50.62 C 167.75 50.26 167.88 49.53 167.94 49.17 C 169.06 49.69 170.18 50.21 171.31 50.72 Z" />
</g>
<g id="#485247ff">
<path fill="#485247" opacity="1.00" d=" M 97.59 48.52 C 97.64 48.39 97.73 48.14 97.78 48.02 C 98.54 47.95 100.06 47.80 100.82 47.73 C 101.30 48.43 102.26 49.83 102.74 50.53 C 102.54 50.81 102.12 51.36 101.91 51.63 C 101.71 51.92 101.29 52.50 101.09 52.78 L 100.62 53.25 L 100.25 53.60 C 99.02 53.08 97.63 53.13 96.49 53.86 L 96.38 53.71 L 96.13 53.29 L 95.95 52.93 C 96.48 51.46 97.04 49.99 97.59 48.52 M 99.15 49.40 C 98.30 53.38 103.14 48.58 99.15 49.40 Z" />
</g>
<g id="#505e44ff">
<path fill="#505e44" opacity="1.00" d=" M 153.66 48.14 C 154.46 48.12 155.25 48.08 156.05 48.01 C 156.95 48.83 157.86 49.66 158.76 50.49 C 158.55 50.77 158.12 51.32 157.91 51.60 C 157.69 51.90 157.26 52.50 157.04 52.79 L 156.55 53.23 L 156.13 53.59 C 154.96 53.21 153.37 52.84 152.53 54.04 L 152.39 53.76 L 152.18 53.29 L 151.98 52.79 C 152.39 51.50 152.84 50.24 153.32 48.97 L 153.66 48.14 Z" />
</g>
<g id="#ccc887ff">
<path fill="#ccc887" opacity="1.00" d=" M 14.57 49.67 L 14.92 48.47 C 15.89 50.69 16.90 52.89 17.89 55.10 C 14.90 54.13 11.91 53.02 9.23 51.36 C 10.79 51.53 12.34 51.71 13.90 51.89 C 14.07 51.33 14.40 50.22 14.57 49.67 Z" />
<path fill="#ccc887" opacity="1.00" d=" M 69.75 49.48 C 71.42 51.16 72.91 53.00 74.51 54.75 C 71.35 53.83 68.09 53.05 65.19 51.45 C 66.76 51.57 68.32 51.69 69.89 51.81 C 69.86 51.23 69.79 50.06 69.75 49.48 Z" />
<path fill="#ccc887" opacity="1.00" d=" M 126.58 49.61 L 126.89 48.46 C 127.89 50.68 128.90 52.89 129.90 55.12 C 126.93 54.14 123.96 53.04 121.35 51.31 C 122.88 51.51 124.40 51.72 125.93 51.92 C 126.09 51.34 126.42 50.19 126.58 49.61 Z" />
<path fill="#ccc887" opacity="1.00" d=" M 181.75 49.48 C 183.42 51.16 184.91 53.00 186.51 54.75 C 183.34 53.84 180.10 53.05 177.20 51.44 C 178.76 51.57 180.33 51.69 181.89 51.81 C 181.86 51.23 181.79 50.06 181.75 49.48 Z" />
</g>
<g id="#34322cff">
<path fill="#34322c" opacity="1.00" d=" M 102.74 50.53 C 105.69 50.37 108.62 50.56 111.57 50.62 L 111.43 51.27 C 110.40 51.68 109.36 52.07 108.32 52.43 L 107.30 52.79 C 106.64 52.53 105.31 52.00 104.65 51.74 C 103.74 51.70 102.82 51.67 101.91 51.63 C 102.12 51.36 102.54 50.81 102.74 50.53 Z" />
<path fill="#34322c" opacity="1.00" d=" M 158.76 50.49 C 161.74 50.35 164.70 50.56 167.68 50.62 L 167.49 51.26 C 166.44 51.68 165.38 52.07 164.32 52.44 L 163.30 52.80 C 162.64 52.53 161.32 52.00 160.66 51.74 C 159.74 51.69 158.82 51.65 157.91 51.60 C 158.12 51.32 158.55 50.77 158.76 50.49 Z" />
<path fill="#34322c" opacity="1.00" d=" M 214.72 50.45 C 217.82 50.39 220.89 50.69 224.00 50.84 L 224.00 51.96 C 222.77 52.06 221.54 52.17 220.31 52.27 L 219.24 52.36 C 218.56 52.18 217.21 51.81 216.54 51.63 C 215.64 51.65 214.75 51.67 213.86 51.69 C 214.07 51.38 214.51 50.76 214.72 50.45 Z" />
</g>
<g id="#85ae5cff">
<path fill="#85ae5c" opacity="1.00" d=" M 46.40 51.63 C 47.15 51.64 47.90 51.66 48.65 51.69 C 47.92 53.45 50.34 53.64 51.29 52.76 L 52.33 52.44 C 51.72 53.64 51.12 54.83 50.47 56.00 L 45.82 56.00 C 46.07 54.87 45.86 53.80 45.20 52.80 C 45.50 52.51 46.10 51.92 46.40 51.63 Z" />
<path fill="#85ae5c" opacity="1.00" d=" M 101.91 51.63 C 102.82 51.67 103.74 51.70 104.65 51.74 C 103.92 53.48 106.37 53.69 107.30 52.79 L 108.32 52.43 C 107.72 53.63 107.12 54.83 106.47 56.00 L 101.81 56.00 C 102.02 54.85 101.78 53.78 101.09 52.78 C 101.29 52.50 101.71 51.92 101.91 51.63 Z" />
<path fill="#85ae5c" opacity="1.00" d=" M 157.91 51.60 C 158.82 51.65 159.74 51.69 160.66 51.74 C 159.92 53.47 162.37 53.70 163.30 52.80 L 164.32 52.44 C 163.72 53.64 163.12 54.83 162.47 56.00 L 157.77 56.00 C 157.97 54.85 157.73 53.78 157.04 52.79 C 157.26 52.50 157.69 51.90 157.91 51.60 Z" />
<path fill="#85ae5c" opacity="1.00" d=" M 213.86 51.69 C 214.75 51.67 215.64 51.65 216.54 51.63 C 215.93 53.46 218.45 53.46 219.24 52.36 L 220.31 52.27 C 219.73 53.52 219.14 54.77 218.50 56.00 L 213.81 56.00 C 214.03 54.86 213.79 53.80 213.11 52.81 C 213.30 52.53 213.67 51.97 213.86 51.69 Z" />
</g>
<g id="#639462ff">
<path fill="#639462" opacity="1.00" d=" M 7.27 52.54 C 8.41 51.62 9.87 53.58 8.73 54.46 C 7.59 55.38 6.13 53.41 7.27 52.54 Z" />
<path fill="#639462" opacity="1.00" d=" M 63.27 52.54 C 64.41 51.62 65.87 53.58 64.73 54.46 C 63.59 55.38 62.13 53.41 63.27 52.54 Z" />
<path fill="#639462" opacity="1.00" d=" M 119.27 52.54 C 120.41 51.62 121.87 53.58 120.73 54.46 C 119.59 55.38 118.13 53.41 119.27 52.54 Z" />
<path fill="#639462" opacity="1.00" d=" M 175.27 52.54 C 176.41 51.62 177.87 53.58 176.73 54.46 C 175.59 55.38 174.13 53.41 175.27 52.54 Z" />
</g>
<g id="#4b7650ff">
<path fill="#4b7650" opacity="1.00" d=" M 48.65 51.69 C 49.31 51.96 50.63 52.49 51.29 52.76 C 50.34 53.64 47.92 53.45 48.65 51.69 Z" />
<path fill="#4b7650" opacity="1.00" d=" M 104.65 51.74 C 105.31 52.00 106.64 52.53 107.30 52.79 C 106.37 53.69 103.92 53.48 104.65 51.74 Z" />
<path fill="#4b7650" opacity="1.00" d=" M 160.66 51.74 C 161.32 52.00 162.64 52.53 163.30 52.80 C 162.37 53.70 159.92 53.47 160.66 51.74 Z" />
<path fill="#4b7650" opacity="1.00" d=" M 216.54 51.63 C 217.21 51.81 218.56 52.18 219.24 52.36 C 218.45 53.46 215.93 53.46 216.54 51.63 Z" />
</g>
<g id="#6f9c5cff">
<path fill="#6f9c5c" opacity="1.00" d=" M 220.31 52.27 C 221.54 52.17 222.77 52.06 224.00 51.96 L 224.00 56.00 L 218.50 56.00 C 219.14 54.77 219.73 53.52 220.31 52.27 Z" />
</g>
<g id="#5f9368ff">
<path fill="#5f9368" opacity="1.00" d=" M 36.04 55.96 C 37.30 54.87 38.58 53.72 40.21 53.25 L 40.47 53.65 C 40.14 54.23 39.46 55.41 39.13 56.00 L 36.48 56.00 L 36.04 55.96 Z" />
<path fill="#5f9368" opacity="1.00" d=" M 40.56 53.75 C 41.64 53.16 43.22 52.68 44.14 53.83 C 43.32 55.07 41.25 55.15 40.56 53.75 Z" />
<path fill="#5f9368" opacity="1.00" d=" M 45.20 52.80 C 45.86 53.80 46.07 54.87 45.82 56.00 L 44.45 56.00 C 44.51 55.32 44.64 53.96 44.70 53.28 L 45.20 52.80 Z" />
<path fill="#5f9368" opacity="1.00" d=" M 92.02 55.96 C 93.24 54.87 94.49 53.69 96.13 53.29 L 96.38 53.71 C 96.06 54.28 95.41 55.43 95.09 56.00 L 92.46 56.00 L 92.02 55.96 Z" />
<path fill="#5f9368" opacity="1.00" d=" M 96.49 53.86 C 97.63 53.13 99.02 53.08 100.25 53.60 C 99.45 54.85 97.24 55.52 96.49 53.86 Z" />
<path fill="#5f9368" opacity="1.00" d=" M 101.09 52.78 C 101.78 53.78 102.02 54.85 101.81 56.00 L 100.45 56.00 C 100.49 55.31 100.58 53.94 100.62 53.25 L 101.09 52.78 Z" />
<path fill="#5f9368" opacity="1.00" d=" M 148.02 55.96 C 149.25 54.86 150.50 53.63 152.18 53.29 L 152.39 53.76 C 152.06 54.32 151.41 55.44 151.08 56.00 L 148.46 56.00 L 148.02 55.96 Z" />
<path fill="#5f9368" opacity="1.00" d=" M 152.53 54.04 C 153.37 52.84 154.96 53.21 156.13 53.59 C 155.35 54.55 153.14 55.80 152.53 54.04 Z" />
<path fill="#5f9368" opacity="1.00" d=" M 157.04 52.79 C 157.73 53.78 157.97 54.85 157.77 56.00 L 156.43 56.00 C 156.46 55.31 156.52 53.92 156.55 53.23 L 157.04 52.79 Z" />
<path fill="#5f9368" opacity="1.00" d=" M 204.05 55.95 C 205.25 54.89 206.50 53.89 207.84 53.01 L 208.16 53.47 C 207.91 54.10 207.42 55.37 207.18 56.00 L 204.51 56.00 L 204.05 55.95 Z" />
<path fill="#5f9368" opacity="1.00" d=" M 208.41 53.80 C 209.59 53.11 210.99 53.08 212.24 53.62 C 211.38 54.86 209.20 55.43 208.41 53.80 Z" />
<path fill="#5f9368" opacity="1.00" d=" M 213.11 52.81 C 213.79 53.80 214.03 54.86 213.81 56.00 L 212.44 56.00 C 212.49 55.32 212.58 53.95 212.63 53.26 L 213.11 52.81 Z" />
</g>
<g id="#8fb966ff">
<path fill="#8fb966" opacity="1.00" d=" M 0.00 55.28 C 1.07 53.85 2.98 54.70 3.68 56.00 L 0.00 56.00 L 0.00 55.28 Z" />
</g>
<g id="#aaad6aff">
<path fill="#aaad6a" opacity="1.00" d=" M 27.56 56.00 C 30.39 55.96 33.21 55.95 36.04 55.96 L 36.48 56.00 L 27.56 56.00 Z" />
<path fill="#aaad6a" opacity="1.00" d=" M 83.55 56.00 C 86.37 55.96 89.18 55.95 92.02 55.96 L 92.46 56.00 L 83.55 56.00 Z" />
<path fill="#aaad6a" opacity="1.00" d=" M 139.56 56.00 C 142.39 55.96 145.19 55.96 148.02 55.96 L 148.46 56.00 L 139.56 56.00 Z" />
<path fill="#aaad6a" opacity="1.00" d=" M 195.55 56.00 C 198.38 55.96 201.19 55.95 204.05 55.95 L 204.51 56.00 L 195.55 56.00 Z" />
</g>
<g id="#8db764ff">
<path fill="#8db764" opacity="1.00" d=" M 55.19 55.05 L 59.98 55.04 L 60.25 56.00 L 54.93 56.00 L 55.19 55.05 Z" />
<path fill="#8db764" opacity="1.00" d=" M 111.19 55.05 L 115.98 55.04 L 116.25 56.00 L 110.93 56.00 L 111.19 55.05 Z" />
<path fill="#8db764" opacity="1.00" d=" M 167.19 55.05 L 171.98 55.04 L 172.25 56.00 L 166.93 56.00 L 167.19 55.05 Z" />
</g>
</svg>
