<?xml version="1.0" encoding="UTF-8" ?>
<!DOCTYPE svg PUBLIC "-//W3C//DTD SVG 1.1//EN" "http://www.w3.org/Graphics/SVG/1.1/DTD/svg11.dtd">
<svg width="224pt" height="56pt" viewBox="0 0 224 56" version="1.1" xmlns="http://www.w3.org/2000/svg">
<g id="#91bc69ff">
<path fill="#91bc69" opacity="1.00" d=" M 0.00 0.00 L 0.80 0.00 C 1.73 1.21 1.46 2.12 0.00 2.72 L 0.00 0.00 Z" />
</g>
<g id="#6c9959ff">
<path fill="#6c9959" opacity="1.00" d=" M 0.80 0.00 L 6.87 0.00 C 5.97 7.19 7.10 14.50 5.45 21.64 C 1.38 16.08 2.70 9.49 1.98 3.22 C 1.49 4.05 0.50 5.70 0.00 6.52 L 0.00 2.72 C 1.46 2.12 1.73 1.21 0.80 0.00 M 3.40 3.15 C 2.97 4.55 3.45 5.03 4.85 4.60 C 5.29 3.20 4.80 2.71 3.40 3.15 Z" />
</g>
<g id="#475943ff">
<path fill="#475943" opacity="1.00" d=" M 6.87 0.00 L 7.74 0.00 C 7.97 6.76 8.79 13.48 9.47 20.20 C 9.56 21.18 9.64 22.16 9.72 23.14 C 8.27 22.72 6.86 22.16 5.45 21.64 C 7.10 14.50 5.97 7.19 6.87 0.00 Z" />
<path fill="#475943" opacity="1.00" d=" M 62.87 0.00 L 63.73 0.00 C 63.97 6.76 64.79 13.47 65.47 20.20 C 65.56 21.18 65.65 22.17 65.73 23.15 C 64.28 22.72 62.87 22.17 61.45 21.64 C 63.10 14.50 61.97 7.19 62.87 0.00 Z" />
<path fill="#475943" opacity="1.00" d=" M 118.88 0.00 L 119.74 0.00 C 119.96 6.76 120.80 13.48 121.48 20.20 C 121.57 21.20 121.65 22.20 121.73 23.20 C 120.28 22.75 118.87 22.17 117.45 21.62 C 119.11 14.49 117.96 7.18 118.88 0.00 Z" />
<path fill="#475943" opacity="1.00" d=" M 174.87 0.00 L 175.73 0.00 C 175.97 6.76 176.79 13.47 177.47 20.20 C 177.56 21.18 177.65 22.17 177.73 23.15 C 176.28 22.72 174.87 22.16 173.45 21.64 C 175.10 14.50 173.97 7.19 174.87 0.00 Z" />
</g>
<g id="#322e2aff">
<path fill="#322e2a" opacity="1.00" d=" M 7.74 0.00 L 10.23 0.00 C 9.63 1.40 9.09 2.83 8.56 4.26 C 9.79 4.30 11.01 4.36 12.24 4.42 C 12.58 4.44 13.26 4.49 13.60 4.51 C 12.64 6.30 11.78 8.15 11.17 10.09 C 11.17 11.31 11.20 12.52 11.29 13.74 C 11.75 15.79 12.39 17.80 13.13 19.78 C 12.21 19.88 10.38 20.10 9.47 20.20 C 8.79 13.48 7.97 6.76 7.74 0.00 Z" />
<path fill="#322e2a" opacity="1.00" d=" M 63.73 0.00 L 65.66 0.00 C 65.42 1.43 65.18 2.87 64.95 4.31 C 66.02 4.38 67.08 4.47 68.14 4.57 C 68.48 4.60 69.15 4.67 69.48 4.71 C 68.40 7.05 67.69 9.54 67.10 12.04 C 67.12 12.63 67.15 13.79 67.16 14.37 C 67.77 16.19 68.44 18.00 69.09 19.80 C 68.19 19.90 66.38 20.10 65.47 20.20 C 64.79 13.47 63.97 6.76 63.73 0.00 Z" />
<path fill="#322e2a" opacity="1.00" d=" M 119.74 0.00 L 122.28 0.00 C 121.68 1.39 121.15 2.81 120.61 4.23 C 121.72 4.41 122.82 4.59 123.92 4.78 C 124.28 4.83 124.99 4.94 125.35 5.00 C 124.36 7.22 123.73 9.58 123.16 11.94 C 122.80 13.04 122.86 14.12 123.35 15.17 C 123.91 16.67 124.45 18.19 124.97 19.71 C 124.10 19.84 122.35 20.08 121.48 20.20 C 120.80 13.48 119.96 6.76 119.74 0.00 Z" />
<path fill="#322e2a" opacity="1.00" d=" M 175.73 0.00 L 177.66 0.00 C 177.42 1.43 177.18 2.87 176.95 4.31 C 178.01 4.38 179.08 4.47 180.14 4.57 C 180.48 4.60 181.15 4.67 181.48 4.71 C 180.40 7.05 179.69 9.54 179.10 12.04 C 179.12 12.63 179.15 13.79 179.16 14.37 C 179.77 16.19 180.44 18.00 181.09 19.80 C 180.19 19.90 178.38 20.10 177.47 20.20 C 176.79 13.47 175.97 6.76 175.73 0.00 Z" />
</g>
<g id="#565249ff">
<path fill="#565249" opacity="1.00" d=" M 10.23 0.00 L 13.25 0.00 L 12.92 0.81 C 12.33 1.95 12.11 3.15 12.24 4.42 C 11.01 4.36 9.79 4.30 8.56 4.26 C 9.09 2.83 9.63 1.40 10.23 0.00 Z" />
<path fill="#565249" opacity="1.00" d=" M 48.89 19.37 C 49.13 16.43 50.46 13.86 52.10 11.52 C 51.23 14.21 50.21 16.86 48.89 19.37 Z" />
<path fill="#565249" opacity="1.00" d=" M 104.89 19.37 C 105.13 16.43 106.47 13.86 108.10 11.52 C 107.23 14.21 106.21 16.86 104.89 19.37 Z" />
<path fill="#565249" opacity="1.00" d=" M 160.89 19.37 C 161.12 16.43 162.47 13.86 164.10 11.52 C 163.23 14.21 162.21 16.86 160.89 19.37 Z" />
<path fill="#565249" opacity="1.00" d=" M 216.89 19.37 C 217.11 16.43 218.47 13.86 220.10 11.52 C 219.23 14.21 218.21 16.86 216.89 19.37 Z" />
<path fill="#565249" opacity="1.00" d=" M 51.21 20.98 C 50.42 19.08 52.26 16.03 53.58 18.97 C 53.38 19.42 52.99 20.32 52.79 20.77 C 52.40 20.82 51.60 20.93 51.21 20.98 Z" />
<path fill="#565249" opacity="1.00" d=" M 106.98 19.70 C 106.72 17.42 110.00 16.55 109.06 19.42 L 108.39 19.93 C 108.04 19.87 107.33 19.76 106.98 19.70 Z" />
<path fill="#565249" opacity="1.00" d=" M 219.00 19.75 C 218.68 17.46 221.97 16.53 221.06 19.42 L 220.41 19.94 C 220.06 19.90 219.35 19.80 219.00 19.75 Z" />
<path fill="#565249" opacity="1.00" d=" M 7.04 35.00 C 8.79 35.05 10.54 35.09 12.28 35.14 C 10.51 36.13 8.73 37.12 6.96 38.12 C 6.98 37.34 7.02 35.78 7.04 35.00 Z" />
<path fill="#565249" opacity="1.00" d=" M 63.04 35.00 C 64.79 35.05 66.53 35.09 68.28 35.14 C 66.51 36.13 64.73 37.12 62.96 38.12 C 62.98 37.34 63.02 35.78 63.04 35.00 Z" />
<path fill="#565249" opacity="1.00" d=" M 119.04 35.00 C 120.79 35.05 122.53 35.09 124.28 35.14 C 122.51 36.13 120.73 37.12 118.96 38.12 C 118.98 37.34 119.02 35.78 119.04 35.00 Z" />
<path fill="#565249" opacity="1.00" d=" M 175.04 35.00 C 176.79 35.05 178.53 35.09 180.28 35.14 C 178.51 36.13 176.73 37.12 174.96 38.12 C 174.98 37.34 175.02 35.78 175.04 35.00 Z" />
<path fill="#565249" opacity="1.00" d=" M 11.05 39.78 C 8.75 39.16 10.29 36.05 11.78 38.25 C 11.60 38.64 11.24 39.40 11.05 39.78 Z" />
<path fill="#565249" opacity="1.00" d=" M 66.73 39.41 C 64.24 39.16 65.72 36.46 67.56 37.75 C 67.36 38.17 66.94 39.00 66.73 39.41 Z" />
<path fill="#565249" opacity="1.00" d=" M 123.20 39.76 C 120.91 39.40 121.92 36.11 123.69 38.13 C 123.57 38.54 123.33 39.35 123.20 39.76 Z" />
<path fill="#565249" opacity="1.00" d=" M 178.73 39.41 C 176.24 39.16 177.72 36.46 179.56 37.75 C 179.36 38.17 178.94 39.00 178.73 39.41 Z" />
</g>
<g id="#268ed9ff">
<path fill="#268ed9" opacity="1.00" d=" M 13.25 0.00 L 15.69 0.00 C 15.71 1.02 15.14 1.90 14.70 2.77 C 14.25 2.28 13.36 1.30 12.92 0.81 L 13.25 0.00 Z" />
<path fill="#268ed9" opacity="1.00" d=" M 97.83 0.00 L 98.94 0.00 C 99.03 0.49 99.20 1.47 99.29 1.96 C 98.98 3.25 98.72 4.55 98.52 5.87 C 97.37 9.84 98.78 13.63 100.20 17.25 C 99.35 15.85 98.10 14.59 96.40 14.42 C 96.09 11.23 95.91 8.03 95.72 4.84 C 97.73 5.10 97.75 2.58 96.88 1.40 C 97.12 1.05 97.59 0.35 97.83 0.00 Z" />
<path fill="#268ed9" opacity="1.00" d=" M 124.28 0.00 L 125.82 0.00 C 126.75 0.83 126.54 2.11 126.43 3.20 C 126.04 3.08 125.26 2.85 124.87 2.74 C 124.72 2.05 124.42 0.68 124.28 0.00 Z" />
<path fill="#268ed9" opacity="1.00" d=" M 209.83 0.00 L 210.94 0.00 C 211.02 0.49 211.20 1.47 211.29 1.96 C 210.98 3.25 210.72 4.55 210.52 5.87 C 209.36 9.84 210.78 13.63 212.20 17.25 C 211.35 15.85 210.10 14.59 208.40 14.42 C 208.09 11.23 207.90 8.03 207.72 4.84 C 209.73 5.10 209.74 2.58 208.88 1.40 C 209.12 1.05 209.59 0.35 209.83 0.00 Z" />
<path fill="#268ed9" opacity="1.00" d=" M 11.84 23.62 C 12.50 23.88 13.81 24.40 14.46 24.66 C 14.99 27.21 15.39 29.90 14.36 32.39 C 13.83 30.86 13.28 29.34 12.79 27.80 C 12.46 26.41 12.14 25.01 11.84 23.62 Z" />
<path fill="#268ed9" opacity="1.00" d=" M 14.14 50.59 C 14.92 52.14 15.61 53.74 16.22 55.37 L 15.47 56.00 L 12.09 56.00 C 12.41 55.45 13.06 54.34 13.39 53.78 C 14.03 52.81 14.28 51.75 14.14 50.59 Z" />
</g>
<g id="#3c6cbfff">
<path fill="#3c6cbf" opacity="1.00" d=" M 15.69 0.00 L 25.53 0.00 C 26.57 1.13 27.57 2.31 28.56 3.48 C 24.62 4.12 20.62 4.14 16.64 4.44 C 19.63 5.25 22.85 7.47 25.98 6.05 C 29.91 4.58 33.83 3.08 37.72 1.50 C 35.88 1.13 32.22 0.38 30.39 0.00 L 39.32 0.00 L 40.13 0.76 C 40.04 1.43 39.85 2.78 39.76 3.45 C 39.35 7.42 38.96 11.39 38.53 15.36 C 39.26 15.04 40.00 14.74 40.75 14.44 C 40.86 14.40 41.09 14.32 41.20 14.28 C 41.14 14.62 41.00 15.31 40.94 15.65 C 40.77 16.56 40.43 18.38 40.26 19.29 C 38.41 18.77 36.56 18.19 34.72 17.61 C 30.59 18.75 26.31 19.31 22.03 19.54 C 23.65 20.40 25.25 21.28 26.86 22.15 C 26.92 22.89 27.04 24.37 27.10 25.10 C 24.14 26.20 21.18 27.29 18.19 28.30 C 18.11 30.67 17.92 33.03 17.58 35.37 C 16.41 34.63 15.23 33.89 14.04 33.16 L 14.36 32.39 C 15.39 29.90 14.99 27.21 14.46 24.66 L 14.78 24.04 C 15.49 22.63 16.19 21.23 16.91 19.83 C 16.16 18.54 15.43 17.23 14.61 15.98 C 16.13 11.92 15.45 7.54 14.72 3.39 L 14.70 2.77 C 15.14 1.90 15.71 1.02 15.69 0.00 Z" />
</g>
<g id="#417accff">
<path fill="#417acc" opacity="1.00" d=" M 25.53 0.00 L 30.39 0.00 C 32.22 0.38 35.88 1.13 37.72 1.50 C 33.83 3.08 29.91 4.58 25.98 6.05 C 22.85 7.47 19.63 5.25 16.64 4.44 C 20.62 4.14 24.62 4.12 28.56 3.48 C 27.57 2.31 26.57 1.13 25.53 0.00 Z" />
</g>
<g id="#268dd8ff">
<path fill="#268dd8" opacity="1.00" d=" M 39.32 0.00 L 42.92 0.00 C 43.01 0.49 43.18 1.47 43.27 1.96 C 42.97 3.26 42.73 4.56 42.54 5.88 C 41.79 10.18 42.97 14.35 43.88 18.49 C 43.58 17.00 43.35 13.84 41.20 14.28 C 41.09 14.32 40.86 14.40 40.75 14.44 C 40.00 14.74 39.26 15.04 38.53 15.36 C 38.96 11.39 39.35 7.42 39.76 3.45 C 42.13 6.12 42.52 1.42 40.13 0.76 L 39.32 0.00 Z" />
<path fill="#268dd8" opacity="1.00" d=" M 153.84 0.00 L 155.02 0.00 C 155.11 0.50 155.29 1.50 155.37 2.00 C 155.06 3.27 154.77 4.56 154.49 5.84 C 154.24 7.07 153.74 9.52 153.49 10.74 C 154.15 12.33 154.91 13.88 155.71 15.41 C 155.38 14.97 154.72 14.10 154.39 13.66 C 154.80 15.90 155.24 18.13 155.44 20.40 C 155.48 21.21 155.57 22.84 155.61 23.65 C 151.38 16.46 150.45 7.69 153.84 0.00 Z" />
</g>
<g id="#342f2bff">
<path fill="#342f2b" opacity="1.00" d=" M 42.92 0.00 L 45.82 0.00 C 45.97 0.44 46.27 1.32 46.43 1.76 C 46.56 3.74 46.58 5.74 46.61 7.73 C 49.15 8.00 51.70 8.22 54.26 8.06 C 54.54 7.84 54.81 7.61 55.08 7.38 L 55.64 6.84 C 55.77 11.20 55.91 15.56 55.98 19.93 C 55.70 20.14 55.12 20.58 54.83 20.80 C 54.52 20.34 53.89 19.43 53.58 18.97 C 52.26 16.03 50.42 19.08 51.21 20.98 C 50.94 21.62 50.39 22.88 50.12 23.52 C 49.56 23.09 48.44 22.25 47.89 21.82 C 48.32 17.70 48.89 13.60 49.59 9.52 C 48.96 9.36 47.70 9.06 47.07 8.91 C 46.52 12.60 45.98 16.30 45.45 20.00 C 45.07 19.72 44.33 19.16 43.95 18.88 L 43.88 18.49 C 42.97 14.35 41.79 10.18 42.54 5.88 C 43.05 8.33 43.79 10.72 44.76 13.03 C 44.66 9.29 44.20 5.58 43.27 1.96 C 43.18 1.47 43.01 0.49 42.92 0.00 M 48.89 19.37 C 50.21 16.86 51.23 14.21 52.10 11.52 C 50.46 13.86 49.13 16.43 48.89 19.37 Z" />
<path fill="#342f2b" opacity="1.00" d=" M 98.94 0.00 L 100.92 0.00 C 101.47 0.36 102.59 1.09 103.14 1.45 C 102.80 3.52 102.48 5.60 102.21 7.68 C 104.88 7.98 107.58 8.23 110.27 8.06 C 110.55 7.84 110.81 7.61 111.08 7.38 L 111.63 6.84 C 111.74 10.89 111.84 14.95 111.92 19.00 C 111.39 19.07 110.34 19.23 109.81 19.31 L 109.06 19.42 C 110.00 16.55 106.72 17.42 106.98 19.70 C 106.80 20.28 106.43 21.45 106.25 22.03 C 105.52 21.69 104.08 20.99 103.35 20.65 C 104.19 16.95 105.02 13.25 105.81 9.54 C 105.10 9.38 103.67 9.06 102.96 8.90 C 102.42 12.73 101.74 16.54 101.34 20.39 C 101.01 19.48 100.68 18.58 100.35 17.67 L 100.20 17.25 C 98.78 13.63 97.37 9.84 98.52 5.87 C 99.04 8.32 99.79 10.71 100.76 13.03 C 100.64 9.29 100.21 5.57 99.29 1.96 C 99.20 1.47 99.03 0.49 98.94 0.00 M 104.89 19.37 C 106.21 16.86 107.23 14.21 108.10 11.52 C 106.47 13.86 105.13 16.43 104.89 19.37 Z" />
<path fill="#342f2b" opacity="1.00" d=" M 155.02 0.00 L 156.91 0.00 C 157.35 0.33 158.25 1.00 158.70 1.33 C 158.66 3.28 158.49 5.25 158.85 7.18 C 161.12 8.36 163.75 8.43 166.24 8.15 C 166.53 7.90 166.83 7.65 167.11 7.39 L 167.65 6.86 C 167.67 10.64 167.67 14.42 167.75 18.20 C 167.39 18.22 166.68 18.25 166.32 18.27 C 164.35 18.34 162.64 19.71 161.90 21.49 C 161.40 21.09 160.39 20.28 159.89 19.88 C 160.46 16.40 161.12 12.94 161.76 9.47 C 161.18 9.38 160.01 9.20 159.43 9.11 C 158.53 11.66 157.63 14.21 156.68 16.74 C 156.44 16.41 155.95 15.74 155.71 15.41 C 154.91 13.88 154.15 12.33 153.49 10.74 C 153.74 9.52 154.24 7.07 154.49 5.84 C 155.04 8.29 155.78 10.70 156.75 13.02 C 156.59 9.31 156.23 5.61 155.37 2.00 C 155.29 1.50 155.11 0.50 155.02 0.00 M 160.89 19.37 C 162.21 16.86 163.23 14.21 164.10 11.52 C 162.47 13.86 161.12 16.43 160.89 19.37 Z" />
</g>
<g id="#85ae5cff">
<path fill="#85ae5c" opacity="1.00" d=" M 45.82 0.00 L 57.36 0.00 C 56.46 2.41 55.72 4.88 55.08 7.38 C 54.81 7.61 54.54 7.84 54.26 8.06 C 52.46 5.07 49.67 2.97 46.43 1.76 C 46.27 1.32 45.97 0.44 45.82 0.00 M 51.55 1.49 C 51.13 3.20 54.15 3.83 54.74 2.29 C 55.01 0.68 52.25 0.24 51.55 1.49 Z" />
<path fill="#85ae5c" opacity="1.00" d=" M 100.92 0.00 L 113.36 0.00 C 112.46 2.42 111.72 4.89 111.08 7.38 C 110.81 7.61 110.55 7.84 110.27 8.06 C 108.38 5.37 105.88 3.23 103.14 1.45 C 102.59 1.09 101.47 0.36 100.92 0.00 M 107.55 1.49 C 107.12 3.20 110.15 3.83 110.74 2.29 C 111.01 0.68 108.25 0.24 107.55 1.49 Z" />
<path fill="#85ae5c" opacity="1.00" d=" M 156.91 0.00 L 169.35 0.00 C 168.46 2.42 167.74 4.89 167.11 7.39 C 166.83 7.65 166.53 7.90 166.24 8.15 C 164.40 5.20 161.67 3.05 158.70 1.33 C 158.25 1.00 157.35 0.33 156.91 0.00 M 163.55 1.49 C 163.12 3.20 166.15 3.83 166.74 2.29 C 167.01 0.68 164.25 0.24 163.55 1.49 Z" />
</g>
<g id="#6c995aff">
<path fill="#6c995a" opacity="1.00" d=" M 57.36 0.00 L 62.87 0.00 C 61.97 7.19 63.10 14.50 61.45 21.64 C 57.83 16.28 58.10 10.02 58.40 3.94 C 57.49 4.92 56.57 5.88 55.64 6.84 L 55.08 7.38 C 55.72 4.88 56.46 2.41 57.36 0.00 M 59.40 3.15 C 58.97 4.55 59.45 5.03 60.85 4.60 C 61.29 3.20 60.80 2.71 59.40 3.15 Z" />
<path fill="#6c995a" opacity="1.00" d=" M 113.36 0.00 L 118.88 0.00 C 117.96 7.18 119.11 14.49 117.45 21.62 C 113.83 16.26 114.10 10.01 114.41 3.94 C 113.49 4.91 112.56 5.88 111.63 6.84 L 111.08 7.38 C 111.72 4.89 112.46 2.42 113.36 0.00 M 115.40 3.15 C 114.97 4.55 115.45 5.03 116.85 4.60 C 117.29 3.20 116.80 2.71 115.40 3.15 Z" />
<path fill="#6c995a" opacity="1.00" d=" M 169.35 0.00 L 174.87 0.00 C 173.97 7.19 175.10 14.50 173.45 21.64 C 169.81 16.27 170.12 10.00 170.39 3.92 C 169.49 4.91 168.57 5.88 167.65 6.86 L 167.11 7.39 C 167.74 4.89 168.46 2.42 169.35 0.00 M 171.40 3.15 C 170.97 4.55 171.45 5.03 172.85 4.60 C 173.29 3.20 172.80 2.71 171.40 3.15 Z" />
</g>
<g id="#565248fe">
<path fill="#565248" opacity="1.00" d=" M 65.66 0.00 L 67.28 0.00 C 67.70 0.24 68.53 0.72 68.95 0.96 C 68.24 2.07 67.97 3.27 68.14 4.57 C 67.08 4.47 66.02 4.38 64.95 4.31 C 65.18 2.87 65.42 1.43 65.66 0.00 Z" />
<path fill="#565248" opacity="1.00" d=" M 122.28 0.00 L 124.28 0.00 C 124.42 0.68 124.72 2.05 124.87 2.74 C 124.63 3.25 124.16 4.27 123.92 4.78 C 122.82 4.59 121.72 4.41 120.61 4.23 C 121.15 2.81 121.68 1.39 122.28 0.00 Z" />
<path fill="#565248" opacity="1.00" d=" M 177.66 0.00 L 179.28 0.00 C 179.70 0.24 180.53 0.72 180.95 0.96 C 180.24 2.07 179.97 3.27 180.14 4.57 C 179.08 4.47 178.01 4.38 176.95 4.31 C 177.18 2.87 177.42 1.43 177.66 0.00 Z" />
</g>
<g id="#3c6bbeff">
<path fill="#3c6bbe" opacity="1.00" d=" M 67.28 0.00 L 85.00 0.00 C 83.55 1.13 82.14 2.31 80.72 3.49 C 78.03 3.31 75.32 3.15 72.62 3.20 C 75.51 4.00 78.86 6.99 81.82 4.87 C 86.07 2.11 91.07 0.93 95.99 0.00 L 97.83 0.00 C 97.59 0.35 97.12 1.05 96.88 1.40 C 95.99 2.40 95.60 3.54 95.72 4.84 C 95.91 8.03 96.09 11.23 96.40 14.42 C 96.45 14.76 96.55 15.45 96.60 15.79 C 97.22 18.69 97.74 21.62 98.68 24.44 C 100.54 26.50 102.84 28.11 105.05 29.79 C 104.36 31.49 103.65 33.19 102.97 34.89 C 101.00 33.97 99.03 33.05 97.05 32.16 C 96.77 33.08 96.49 34.01 96.21 34.93 C 100.89 36.86 105.79 38.14 110.69 39.38 C 108.70 37.18 106.70 34.99 105.00 32.54 C 107.31 31.22 109.62 29.90 111.94 28.59 C 111.94 34.06 111.95 39.52 111.97 44.99 C 109.30 44.97 106.63 44.97 103.96 44.98 C 103.71 42.91 103.45 40.84 103.14 38.78 C 102.36 40.56 101.59 42.35 100.83 44.14 C 96.08 43.69 91.27 43.24 86.55 44.19 C 89.88 45.15 93.25 45.95 96.64 46.66 C 101.70 47.97 106.91 46.19 111.97 45.94 C 111.98 49.29 112.01 52.65 112.04 56.00 L 93.30 56.00 C 88.43 53.96 83.82 51.39 79.21 48.83 C 83.71 43.36 87.00 36.11 94.41 33.95 C 92.98 31.27 91.35 28.71 89.58 26.24 C 90.10 28.33 90.60 30.42 91.11 32.51 C 85.56 35.39 79.14 34.32 73.56 32.00 C 76.02 26.87 81.51 25.91 86.75 26.30 C 86.17 24.99 85.60 23.68 85.03 22.36 C 87.01 20.65 88.99 18.95 91.01 17.29 C 86.73 18.06 82.35 17.89 78.11 16.94 C 80.86 18.66 83.35 20.78 85.16 23.50 C 81.12 24.88 77.05 26.21 72.94 27.37 C 73.26 29.66 73.26 32.02 74.00 34.23 C 76.09 36.69 79.94 36.70 82.45 38.38 C 80.91 42.30 78.52 45.85 75.39 48.68 C 75.97 48.87 77.14 49.25 77.72 49.44 C 75.57 51.64 73.46 53.88 71.23 56.00 L 70.65 56.00 C 71.88 45.61 71.20 35.18 70.60 24.79 L 70.67 24.08 C 71.24 17.21 70.70 10.29 70.31 3.42 C 70.37 2.30 69.91 1.48 68.95 0.96 C 68.53 0.72 67.70 0.24 67.28 0.00 Z" />
<path fill="#3c6bbe" opacity="1.00" d=" M 125.82 0.00 L 138.28 0.00 C 137.72 0.57 136.60 1.71 136.05 2.28 C 133.58 2.21 131.11 2.14 128.65 2.22 C 131.26 3.27 133.83 4.63 136.64 5.05 C 138.44 3.61 139.78 1.71 141.29 0.00 L 153.84 0.00 C 150.45 7.69 151.38 16.46 155.61 23.65 C 155.57 22.84 155.48 21.21 155.44 20.40 C 157.42 20.83 159.41 21.24 161.39 21.66 C 161.28 23.00 161.19 24.35 161.04 25.69 C 160.68 28.32 160.04 30.90 159.39 33.48 C 156.52 32.84 153.63 32.29 150.71 31.95 C 149.52 29.65 148.30 27.36 146.91 25.17 C 147.30 27.26 147.68 29.35 148.05 31.44 C 142.93 33.92 136.30 35.08 131.35 31.60 C 129.85 31.07 129.94 29.54 130.08 28.23 C 133.83 24.40 139.80 25.77 144.68 24.90 C 139.50 22.54 133.95 23.84 129.01 26.09 C 129.00 28.67 128.99 31.26 128.97 33.85 C 132.25 35.21 136.08 35.75 138.78 38.15 C 138.42 41.17 137.38 44.05 136.60 46.97 C 141.40 43.95 141.15 36.39 146.86 34.74 C 153.76 33.49 160.19 36.76 166.70 38.43 C 164.71 36.22 162.71 34.00 161.02 31.54 C 163.32 30.22 165.63 28.89 167.94 27.58 C 167.90 33.12 167.74 38.67 167.66 44.21 C 166.59 43.72 163.88 42.96 163.80 44.76 C 164.83 45.85 166.50 45.20 167.67 44.73 C 167.76 48.48 167.92 52.24 168.07 56.00 L 150.23 56.00 C 145.10 51.79 138.89 49.30 133.51 45.47 C 132.63 46.08 131.78 46.73 130.96 47.41 C 131.68 47.65 133.11 48.15 133.83 48.40 C 132.07 50.11 130.33 51.84 128.59 53.58 C 133.73 50.16 140.27 50.06 145.64 53.04 C 143.57 53.37 139.45 54.03 137.38 54.36 C 138.00 54.77 139.23 55.59 139.84 56.00 L 126.86 56.00 C 128.02 38.59 126.33 21.19 126.41 3.77 L 126.43 3.20 C 126.54 2.11 126.75 0.83 125.82 0.00 M 138.70 9.45 C 141.12 10.62 143.57 11.71 146.06 12.72 C 145.39 14.06 144.68 15.38 144.01 16.72 C 146.39 16.56 148.77 16.48 151.15 16.48 C 148.17 14.69 146.22 11.83 144.65 8.80 C 142.67 9.05 140.68 9.23 138.70 9.45 M 157.15 22.40 C 156.30 26.38 161.14 21.58 157.15 22.40 M 154.18 44.34 C 152.13 44.68 150.39 43.23 148.61 42.47 C 148.43 43.22 148.23 43.95 148.02 44.69 C 152.34 46.50 157.06 47.87 161.37 45.15 C 161.04 43.16 160.79 41.16 160.61 39.16 C 158.76 41.15 157.16 44.02 154.18 44.34 Z" />
<path fill="#3c6bbe" opacity="1.00" d=" M 179.28 0.00 L 197.00 0.00 C 195.55 1.13 194.14 2.31 192.72 3.49 C 190.03 3.31 187.32 3.15 184.62 3.20 C 187.51 4.00 190.86 6.99 193.82 4.87 C 198.07 2.11 203.07 0.93 207.99 0.00 L 209.83 0.00 C 209.59 0.35 209.12 1.05 208.88 1.40 C 207.99 2.40 207.60 3.54 207.72 4.84 C 207.90 8.03 208.09 11.23 208.40 14.42 C 208.45 14.76 208.55 15.45 208.60 15.79 C 209.21 18.69 209.74 21.62 210.68 24.44 C 212.54 26.50 214.84 28.11 217.05 29.79 C 216.36 31.49 215.65 33.19 214.97 34.89 C 213.00 33.97 211.03 33.05 209.05 32.16 C 208.77 33.08 208.49 34.00 208.21 34.93 C 212.92 36.90 217.86 38.15 222.81 39.34 C 221.23 37.43 217.69 36.06 218.15 33.21 C 219.42 30.86 222.05 29.67 224.00 27.94 L 224.00 45.16 C 215.54 44.83 207.01 42.48 198.56 44.21 C 201.89 45.15 205.25 45.95 208.63 46.67 C 213.71 48.01 218.93 46.14 224.00 45.82 L 224.00 56.00 L 205.30 56.00 C 200.43 53.96 195.82 51.39 191.22 48.83 C 195.70 43.38 198.98 36.16 206.35 33.97 C 204.96 31.30 203.53 28.67 201.91 26.13 C 202.29 28.20 202.67 30.27 203.03 32.35 C 200.10 33.59 197.15 35.32 193.89 35.22 C 191.01 34.47 188.39 32.92 185.65 31.83 C 188.15 26.80 193.59 25.96 198.75 26.30 C 198.17 24.99 197.59 23.68 197.03 22.36 C 199.01 20.65 200.99 18.95 203.01 17.29 C 198.73 18.06 194.35 17.89 190.11 16.94 C 192.86 18.66 195.35 20.78 197.16 23.50 C 193.12 24.88 189.05 26.21 184.94 27.37 C 185.26 29.66 185.26 32.02 186.00 34.23 C 188.09 36.69 191.92 36.70 194.45 38.38 C 192.91 42.30 190.52 45.85 187.39 48.68 C 187.97 48.87 189.14 49.25 189.72 49.44 C 187.57 51.64 185.46 53.88 183.23 56.00 L 182.65 56.00 C 183.88 45.61 183.20 35.18 182.60 24.79 L 182.67 24.08 C 183.23 17.21 182.70 10.29 182.31 3.42 C 182.36 2.30 181.91 1.48 180.95 0.96 C 180.53 0.72 179.70 0.24 179.28 0.00 Z" />
<path fill="#3c6bbe" opacity="1.00" d=" M 27.51 23.43 C 31.19 21.00 35.58 19.74 39.91 21.10 C 40.82 22.51 41.77 23.89 42.89 25.14 C 45.91 28.22 49.94 31.43 47.52 36.09 C 45.37 35.11 43.21 34.15 41.05 33.17 C 40.77 34.09 40.49 35.01 40.21 35.93 C 44.91 37.90 49.86 39.15 54.80 40.35 C 53.14 38.34 49.02 36.69 50.37 33.56 C 51.93 31.86 53.96 30.70 55.79 29.33 C 55.79 34.99 55.91 40.65 55.97 46.31 C 52.09 46.09 45.99 46.07 46.35 40.76 C 42.03 44.74 35.64 42.85 30.51 44.96 C 34.98 45.26 39.48 46.10 43.38 48.40 C 47.27 46.31 51.72 46.82 55.97 46.92 C 56.00 49.94 56.03 52.97 56.05 56.00 L 32.85 56.00 C 30.10 53.73 27.26 51.55 24.15 49.78 C 29.16 45.24 30.09 35.99 38.10 35.28 C 36.35 32.60 34.60 29.92 32.81 27.26 C 33.25 29.31 33.69 31.36 34.12 33.42 C 29.19 36.58 23.58 35.59 18.59 32.93 C 20.80 28.64 25.26 27.05 29.83 27.08 C 29.06 25.87 28.28 24.65 27.51 23.43 Z" />
<path fill="#3c6bbe" opacity="1.00" d=" M 213.78 25.59 L 214.47 25.29 L 215.17 24.99 C 217.88 25.12 220.60 25.13 223.32 25.16 L 224.00 25.63 L 224.00 27.73 C 220.55 27.25 216.98 27.09 213.78 25.59 Z" />
<path fill="#3c6bbe" opacity="1.00" d=" M 16.41 36.25 C 20.83 36.17 24.81 38.35 28.26 40.90 C 25.81 42.71 23.26 44.39 20.62 45.91 C 21.02 47.50 21.42 49.09 21.80 50.68 C 19.93 52.23 18.08 53.80 16.22 55.37 C 15.61 53.74 14.92 52.14 14.14 50.59 C 13.89 50.29 13.40 49.68 13.16 49.38 C 14.36 48.10 15.56 46.81 16.76 45.51 C 16.34 45.34 15.52 44.98 15.11 44.80 L 14.45 44.47 C 14.35 42.89 14.16 39.72 14.06 38.14 C 14.85 37.51 15.63 36.88 16.41 36.25 Z" />
<path fill="#3c6bbe" opacity="1.00" d=" M 62.20 50.81 C 61.83 49.57 62.51 47.91 64.01 48.01 C 63.94 48.63 63.81 49.86 63.75 50.48 C 63.36 50.56 62.59 50.73 62.20 50.81 Z" />
<path fill="#3c6bbe" opacity="1.00" d=" M 118.18 50.80 C 117.82 49.55 118.50 47.89 120.00 48.00 C 119.93 48.62 119.80 49.85 119.73 50.47 C 119.34 50.55 118.57 50.72 118.18 50.80 Z" />
<path fill="#3c6bbe" opacity="1.00" d=" M 174.20 50.81 C 173.82 49.57 174.51 47.91 176.01 48.01 C 175.94 48.63 175.81 49.86 175.75 50.48 C 175.36 50.56 174.59 50.73 174.20 50.81 Z" />
<path fill="#3c6bbe" opacity="1.00" d=" M 65.80 50.23 C 66.32 50.40 67.38 50.75 67.91 50.92 C 67.56 51.18 66.85 51.70 66.49 51.96 C 66.22 51.71 65.68 51.19 65.41 50.93 L 65.80 50.23 Z" />
<path fill="#3c6bbe" opacity="1.00" d=" M 121.78 50.22 C 122.30 50.40 123.35 50.76 123.87 50.95 C 123.51 51.20 122.79 51.72 122.43 51.97 C 122.16 51.71 121.64 51.18 121.38 50.92 L 121.78 50.22 Z" />
<path fill="#3c6bbe" opacity="1.00" d=" M 177.80 50.23 C 178.32 50.40 179.38 50.75 179.91 50.92 C 179.56 51.18 178.85 51.70 178.49 51.96 C 178.22 51.71 177.68 51.19 177.41 50.93 L 177.80 50.23 Z" />
<path fill="#3c6bbe" opacity="1.00" d=" M 72.04 56.00 C 74.40 54.41 76.52 52.38 79.21 51.32 C 82.20 51.62 84.95 53.07 87.83 53.87 C 86.35 54.60 84.88 55.33 83.38 56.00 L 72.04 56.00 Z" />
<path fill="#3c6bbe" opacity="1.00" d=" M 184.04 56.00 C 186.40 54.41 188.52 52.38 191.21 51.32 C 194.20 51.62 196.95 53.07 199.83 53.87 C 198.35 54.60 196.88 55.33 195.38 56.00 L 184.04 56.00 Z" />
<path fill="#3c6bbe" opacity="1.00" d=" M 16.94 56.00 C 19.88 54.42 22.67 51.94 26.34 52.67 C 28.26 53.51 29.90 54.86 31.66 56.00 L 16.94 56.00 Z" />
<path fill="#3c6bbe" opacity="1.00" d=" M 63.48 52.74 L 64.24 52.65 L 64.53 53.33 C 64.33 54.00 63.92 55.33 63.72 56.00 L 62.19 56.00 L 61.97 55.38 C 62.84 54.72 63.34 53.84 63.48 52.74 Z" />
<path fill="#3c6bbe" opacity="1.00" d=" M 119.44 52.74 L 120.20 52.66 L 120.49 53.34 C 120.30 54.00 119.91 55.33 119.72 56.00 L 118.18 56.00 L 117.96 55.38 C 118.82 54.72 119.32 53.84 119.44 52.74 Z" />
<path fill="#3c6bbe" opacity="1.00" d=" M 175.48 52.74 L 176.24 52.65 L 176.53 53.33 C 176.33 54.00 175.92 55.33 175.72 56.00 L 174.19 56.00 L 173.97 55.38 C 174.84 54.72 175.34 53.84 175.48 52.74 Z" />
</g>
<g id="#4179cbff">
<path fill="#4179cb" opacity="1.00" d=" M 85.00 0.00 L 95.99 0.00 C 91.07 0.93 86.07 2.11 81.82 4.87 C 78.86 6.99 75.51 4.00 72.62 3.20 C 75.32 3.15 78.03 3.31 80.72 3.49 C 82.14 2.31 83.55 1.13 85.00 0.00 Z" />
<path fill="#4179cb" opacity="1.00" d=" M 197.00 0.00 L 207.99 0.00 C 203.07 0.93 198.07 2.11 193.82 4.87 C 190.86 6.99 187.51 4.00 184.62 3.20 C 187.32 3.15 190.03 3.31 192.72 3.49 C 194.14 2.31 195.55 1.13 197.00 0.00 Z" />
</g>
<g id="#4476cbff">
<path fill="#4476cb" opacity="1.00" d=" M 138.28 0.00 L 141.29 0.00 C 139.78 1.71 138.44 3.61 136.64 5.05 C 133.83 4.63 131.26 3.27 128.65 2.22 C 131.11 2.14 133.58 2.21 136.05 2.28 C 136.60 1.71 137.72 0.57 138.28 0.00 Z" />
</g>
<g id="#342f2aff">
<path fill="#342f2a" opacity="1.00" d=" M 210.94 0.00 L 212.93 0.00 C 213.51 0.37 214.68 1.11 215.26 1.48 C 214.77 3.43 214.30 5.39 213.85 7.36 C 216.66 7.79 219.50 8.13 222.36 8.02 C 222.59 8.01 223.05 7.99 223.28 7.98 L 224.00 7.93 L 224.00 18.97 C 223.45 19.06 222.36 19.23 221.81 19.31 L 221.06 19.42 C 221.97 16.53 218.68 17.46 219.00 19.75 C 218.83 20.36 218.49 21.58 218.31 22.19 C 217.58 21.81 216.12 21.07 215.39 20.69 C 216.20 16.98 217.02 13.26 217.80 9.53 C 217.09 9.38 215.67 9.06 214.96 8.90 C 214.41 12.73 213.74 16.54 213.35 20.39 C 213.02 19.48 212.68 18.58 212.35 17.67 L 212.20 17.25 C 210.78 13.63 209.36 9.84 210.52 5.87 C 211.04 8.32 211.79 10.71 212.76 13.03 C 212.63 9.29 212.21 5.57 211.29 1.96 C 211.20 1.47 211.02 0.49 210.94 0.00 M 216.89 19.37 C 218.21 16.86 219.23 14.21 220.10 11.52 C 218.47 13.86 217.11 16.43 216.89 19.37 Z" />
</g>
<g id="#84ad5aff">
<path fill="#84ad5a" opacity="1.00" d=" M 212.93 0.00 L 224.00 0.00 L 224.00 4.32 C 222.71 5.01 221.80 6.94 223.28 7.98 C 223.05 7.99 222.59 8.01 222.36 8.02 C 220.38 5.45 217.93 3.30 215.26 1.48 C 214.68 1.11 213.51 0.37 212.93 0.00 M 219.55 1.49 C 219.12 3.20 222.15 3.83 222.74 2.29 C 223.01 0.68 220.25 0.24 219.55 1.49 Z" />
</g>
<g id="#a0b6cbff">
<path fill="#a0b6cb" opacity="1.00" d=" M 12.92 0.81 C 13.36 1.30 14.25 2.28 14.70 2.77 L 14.72 3.39 C 14.44 3.67 13.88 4.23 13.60 4.51 C 13.26 4.49 12.58 4.44 12.24 4.42 C 12.11 3.15 12.33 1.95 12.92 0.81 Z" />
<path fill="#a0b6cb" opacity="1.00" d=" M 68.95 0.96 C 69.91 1.48 70.37 2.30 70.31 3.42 C 70.11 3.74 69.69 4.38 69.48 4.71 C 69.15 4.67 68.48 4.60 68.14 4.57 C 67.97 3.27 68.24 2.07 68.95 0.96 Z" />
<path fill="#a0b6cb" opacity="1.00" d=" M 180.95 0.96 C 181.91 1.48 182.36 2.30 182.31 3.42 C 182.11 3.74 181.69 4.38 181.48 4.71 C 181.15 4.67 180.48 4.60 180.14 4.57 C 179.97 3.27 180.24 2.07 180.95 0.96 Z" />
</g>
<g id="#86a0b1ff">
<path fill="#86a0b1" opacity="1.00" d=" M 40.13 0.76 C 42.52 1.42 42.13 6.12 39.76 3.45 C 39.85 2.78 40.04 1.43 40.13 0.76 Z" />
<path fill="#86a0b1" opacity="1.00" d=" M 123.92 4.78 C 124.16 4.27 124.63 3.25 124.87 2.74 C 125.26 2.85 126.04 3.08 126.43 3.20 L 126.41 3.77 C 126.14 4.08 125.61 4.69 125.35 5.00 C 124.99 4.94 124.28 4.83 123.92 4.78 Z" />
<path fill="#86a0b1" opacity="1.00" d=" M 124.11 22.75 C 124.55 22.65 125.42 22.43 125.86 22.33 C 126.89 23.59 125.04 25.10 124.14 23.59 L 124.11 22.75 Z" />
<path fill="#86a0b1" opacity="1.00" d=" M 67.56 37.75 C 67.95 37.75 68.73 37.75 69.12 37.75 C 69.40 38.99 68.34 40.25 67.05 40.03 L 66.73 39.41 C 66.94 39.00 67.36 38.17 67.56 37.75 Z" />
<path fill="#86a0b1" opacity="1.00" d=" M 179.56 37.75 C 179.95 37.75 180.73 37.75 181.12 37.75 C 181.40 38.99 180.34 40.25 179.05 40.03 L 178.73 39.41 C 178.94 39.00 179.36 38.17 179.56 37.75 Z" />
<path fill="#86a0b1" opacity="1.00" d=" M 68.75 43.59 C 69.69 44.86 69.18 46.95 67.62 47.45 C 67.03 46.11 67.15 44.15 68.75 43.59 Z" />
<path fill="#86a0b1" opacity="1.00" d=" M 180.75 43.59 C 181.69 44.86 181.18 46.95 179.62 47.45 C 179.03 46.11 179.15 44.15 180.75 43.59 Z" />
<path fill="#86a0b1" opacity="1.00" d=" M 12.70 49.85 L 13.16 49.38 C 13.40 49.68 13.89 50.29 14.14 50.59 C 14.28 51.75 14.03 52.81 13.39 53.78 L 12.93 53.72 C 12.85 53.27 12.71 52.38 12.64 51.94 C 12.66 51.42 12.69 50.37 12.70 49.85 Z" />
<path fill="#86a0b1" opacity="1.00" d=" M 123.87 50.95 L 124.35 51.46 C 124.37 51.85 124.42 52.62 124.45 53.01 C 123.98 52.94 123.05 52.81 122.58 52.74 L 122.43 51.97 C 122.79 51.72 123.51 51.20 123.87 50.95 Z" />
</g>
<g id="#6f9a52ff">
<path fill="#6f9a52" opacity="1.00" d=" M 51.55 1.49 C 52.25 0.24 55.01 0.68 54.74 2.29 C 54.15 3.83 51.13 3.20 51.55 1.49 Z" />
<path fill="#6f9a52" opacity="1.00" d=" M 107.55 1.49 C 108.25 0.24 111.01 0.68 110.74 2.29 C 110.15 3.83 107.12 3.20 107.55 1.49 Z" />
<path fill="#6f9a52" opacity="1.00" d=" M 163.55 1.49 C 164.25 0.24 167.01 0.68 166.74 2.29 C 166.15 3.83 163.12 3.20 163.55 1.49 Z" />
<path fill="#6f9a52" opacity="1.00" d=" M 219.55 1.49 C 220.25 0.24 223.01 0.68 222.74 2.29 C 222.15 3.83 219.12 3.20 219.55 1.49 Z" />
</g>
<g id="#709e5cff">
<path fill="#709e5c" opacity="1.00" d=" M 46.43 1.76 C 49.67 2.97 52.46 5.07 54.26 8.06 C 51.70 8.22 49.15 8.00 46.61 7.73 C 46.58 5.74 46.56 3.74 46.43 1.76 Z" />
<path fill="#709e5c" opacity="1.00" d=" M 103.14 1.45 C 105.88 3.23 108.38 5.37 110.27 8.06 C 107.58 8.23 104.88 7.98 102.21 7.68 C 102.48 5.60 102.80 3.52 103.14 1.45 Z" />
<path fill="#709e5c" opacity="1.00" d=" M 158.70 1.33 C 161.67 3.05 164.40 5.20 166.24 8.15 C 163.75 8.43 161.12 8.36 158.85 7.18 C 158.49 5.25 158.66 3.28 158.70 1.33 Z" />
<path fill="#709e5c" opacity="1.00" d=" M 215.26 1.48 C 217.93 3.30 220.38 5.45 222.36 8.02 C 219.50 8.13 216.66 7.79 213.85 7.36 C 214.30 5.39 214.77 3.43 215.26 1.48 Z" />
</g>
<g id="#7392b4ff">
<path fill="#7392b4" opacity="1.00" d=" M 95.72 4.84 C 95.60 3.54 95.99 2.40 96.88 1.40 C 97.75 2.58 97.73 5.10 95.72 4.84 Z" />
<path fill="#7392b4" opacity="1.00" d=" M 207.72 4.84 C 207.60 3.54 207.99 2.40 208.88 1.40 C 209.74 2.58 209.73 5.10 207.72 4.84 Z" />
</g>
<g id="#87b05cff">
<path fill="#87b05c" opacity="1.00" d=" M 3.40 3.15 C 4.80 2.71 5.29 3.20 4.85 4.60 C 3.45 5.03 2.97 4.55 3.40 3.15 Z" />
<path fill="#87b05c" opacity="1.00" d=" M 59.40 3.15 C 60.80 2.71 61.29 3.20 60.85 4.60 C 59.45 5.03 58.97 4.55 59.40 3.15 Z" />
<path fill="#87b05c" opacity="1.00" d=" M 115.40 3.15 C 116.80 2.71 117.29 3.20 116.85 4.60 C 115.45 5.03 114.97 4.55 115.40 3.15 Z" />
<path fill="#87b05c" opacity="1.00" d=" M 171.40 3.15 C 172.80 2.71 173.29 3.20 172.85 4.60 C 171.45 5.03 170.97 4.55 171.40 3.15 Z" />
</g>
<g id="#645a4bff">
<path fill="#645a4b" opacity="1.00" d=" M 43.27 1.96 C 44.20 5.58 44.66 9.29 44.76 13.03 C 43.79 10.72 43.05 8.33 42.54 5.88 C 42.73 4.56 42.97 3.26 43.27 1.96 Z" />
<path fill="#645a4b" opacity="1.00" d=" M 99.29 1.96 C 100.21 5.57 100.64 9.29 100.76 13.03 C 99.79 10.71 99.04 8.32 98.52 5.87 C 98.72 4.55 98.98 3.25 99.29 1.96 Z" />
<path fill="#645a4b" opacity="1.00" d=" M 155.37 2.00 C 156.23 5.61 156.59 9.31 156.75 13.02 C 155.78 10.70 155.04 8.29 154.49 5.84 C 154.77 4.56 155.06 3.27 155.37 2.00 Z" />
<path fill="#645a4b" opacity="1.00" d=" M 211.29 1.96 C 212.21 5.57 212.63 9.29 212.76 13.03 C 211.79 10.71 211.04 8.32 210.52 5.87 C 210.72 4.55 210.98 3.25 211.29 1.96 Z" />
</g>
<g id="#86b05fff">
<path fill="#86b05f" opacity="1.00" d=" M 1.98 3.22 C 2.70 9.49 1.38 16.08 5.45 21.64 C 5.73 22.17 6.30 23.24 6.59 23.77 C 5.34 23.48 4.08 23.22 2.83 22.96 C 2.45 23.99 2.07 25.03 1.69 26.06 C 1.12 25.17 0.55 24.28 0.00 23.37 L 0.00 6.52 C 0.50 5.70 1.49 4.05 1.98 3.22 M 1.29 20.53 C 0.43 21.76 2.53 23.05 3.33 21.85 C 4.15 20.65 2.07 19.38 1.29 20.53 Z" />
<path fill="#86b05f" opacity="1.00" d=" M 58.40 3.94 C 58.10 10.02 57.83 16.28 61.45 21.64 C 61.73 22.18 62.28 23.26 62.55 23.80 C 61.28 23.50 60.01 23.22 58.73 22.95 C 58.51 23.86 58.28 24.76 58.05 25.66 C 57.36 25.12 56.67 24.58 55.99 24.05 C 56.00 22.67 56.00 21.30 55.98 19.93 C 55.91 15.56 55.77 11.20 55.64 6.84 C 56.57 5.88 57.49 4.92 58.40 3.94 M 57.29 20.53 C 56.42 21.76 58.53 23.05 59.33 21.85 C 60.15 20.65 58.07 19.38 57.29 20.53 Z" />
<path fill="#86b05f" opacity="1.00" d=" M 114.41 3.94 C 114.10 10.01 113.83 16.26 117.45 21.62 C 117.73 22.16 118.28 23.25 118.56 23.80 C 117.30 23.51 116.04 23.26 114.78 23.01 C 114.45 23.99 114.12 24.98 113.78 25.97 C 113.17 25.31 112.57 24.65 111.96 23.99 C 111.96 22.33 111.94 20.66 111.92 19.00 C 111.84 14.95 111.74 10.89 111.63 6.84 C 112.56 5.88 113.49 4.91 114.41 3.94 M 113.29 20.53 C 112.42 21.76 114.53 23.05 115.33 21.85 C 116.15 20.65 114.07 19.38 113.29 20.53 Z" />
<path fill="#86b05f" opacity="1.00" d=" M 170.39 3.92 C 170.12 10.00 169.81 16.27 173.45 21.64 C 173.73 22.18 174.28 23.26 174.55 23.80 C 173.28 23.49 172.01 23.22 170.73 22.95 C 170.51 23.86 170.30 24.77 170.09 25.67 C 169.37 25.13 168.65 24.59 167.93 24.05 C 167.89 22.27 167.84 20.49 167.77 18.71 L 167.75 18.20 C 167.67 14.42 167.67 10.64 167.65 6.86 C 168.57 5.88 169.49 4.91 170.39 3.92 M 169.29 20.53 C 168.42 21.76 170.53 23.05 171.33 21.85 C 172.15 20.65 170.07 19.38 169.29 20.53 Z" />
</g>
<g id="#2f8bd3fe">
<path fill="#2f8bd3" opacity="1.00" d=" M 14.72 3.39 C 15.45 7.54 16.13 11.92 14.61 15.98 C 14.19 15.70 13.37 15.12 12.96 14.84 C 13.29 12.52 13.61 10.21 13.91 7.89 C 13.00 8.62 12.09 9.36 11.17 10.09 C 11.78 8.15 12.64 6.30 13.60 4.51 C 13.88 4.23 14.44 3.67 14.72 3.39 Z" />
</g>
<g id="#2c8ed7ff">
<path fill="#2c8ed7" opacity="1.00" d=" M 70.31 3.42 C 70.70 10.29 71.24 17.21 70.67 24.08 C 70.52 23.68 70.23 22.88 70.09 22.47 C 69.84 21.81 69.34 20.47 69.09 19.80 C 68.44 18.00 67.77 16.19 67.16 14.37 C 69.68 15.56 69.31 11.90 67.10 12.04 C 67.69 9.54 68.40 7.05 69.48 4.71 C 69.69 4.38 70.11 3.74 70.31 3.42 Z" />
<path fill="#2c8ed7" opacity="1.00" d=" M 182.31 3.42 C 182.70 10.29 183.23 17.21 182.67 24.08 C 182.52 23.68 182.23 22.88 182.09 22.47 C 181.84 21.81 181.34 20.47 181.09 19.80 C 180.44 18.00 179.77 16.19 179.16 14.37 C 181.68 15.56 181.31 11.90 179.10 12.04 C 179.69 9.54 180.40 7.05 181.48 4.71 C 181.69 4.38 182.11 3.74 182.31 3.42 Z" />
</g>
<g id="#288dd7ff">
<path fill="#288dd7" opacity="1.00" d=" M 126.41 3.77 C 126.33 21.19 128.02 38.59 126.86 56.00 L 125.54 56.00 C 125.34 55.44 124.92 54.33 124.72 53.77 L 124.45 53.01 C 124.42 52.62 124.37 51.85 124.35 51.46 C 124.01 47.55 123.53 43.67 123.20 39.76 C 123.33 39.35 123.57 38.54 123.69 38.13 C 124.08 36.36 124.44 34.58 124.71 32.79 C 124.72 31.87 124.71 30.95 124.67 30.04 C 124.53 27.89 124.27 25.74 124.14 23.59 C 125.04 25.10 126.89 23.59 125.86 22.33 C 125.56 21.46 125.27 20.58 124.97 19.71 C 124.45 18.19 123.91 16.67 123.35 15.17 C 125.36 14.96 124.86 12.25 123.16 11.94 C 123.73 9.58 124.36 7.22 125.35 5.00 C 125.61 4.69 126.14 4.08 126.41 3.77 Z" />
</g>
<g id="#5c8260ff">
<path fill="#5c8260" opacity="1.00" d=" M 223.28 7.98 C 221.80 6.94 222.71 5.01 224.00 4.32 L 224.00 7.93 L 223.28 7.98 Z" />
</g>
<g id="#a5bbd1ff">
<path fill="#a5bbd1" opacity="1.00" d=" M 11.17 10.09 C 12.09 9.36 13.00 8.62 13.91 7.89 C 13.61 10.21 13.29 12.52 12.96 14.84 C 12.54 14.56 11.71 14.01 11.29 13.74 C 11.20 12.52 11.17 11.31 11.17 10.09 Z" />
</g>
<g id="#4377cafe">
<path fill="#4377ca" opacity="1.00" d=" M 138.70 9.45 C 140.68 9.23 142.67 9.05 144.65 8.80 C 146.22 11.83 148.17 14.69 151.15 16.48 C 148.77 16.48 146.39 16.56 144.01 16.72 C 144.68 15.38 145.39 14.06 146.06 12.72 C 143.57 11.71 141.12 10.62 138.70 9.45 Z" />
</g>
<g id="#6c604cff">
<path fill="#6c604c" opacity="1.00" d=" M 47.07 8.91 C 47.70 9.06 48.96 9.36 49.59 9.52 C 48.89 13.60 48.32 17.70 47.89 21.82 C 47.40 21.46 46.43 20.73 45.95 20.37 L 45.45 20.00 C 45.98 16.30 46.52 12.60 47.07 8.91 Z" />
<path fill="#6c604c" opacity="1.00" d=" M 102.96 8.90 C 103.67 9.06 105.10 9.38 105.81 9.54 C 105.02 13.25 104.19 16.95 103.35 20.65 C 102.91 20.79 102.04 21.07 101.60 21.22 L 101.34 20.39 C 101.74 16.54 102.42 12.73 102.96 8.90 Z" />
<path fill="#6c604c" opacity="1.00" d=" M 214.96 8.90 C 215.67 9.06 217.09 9.38 217.80 9.53 C 217.02 13.26 216.20 16.98 215.39 20.69 C 214.95 20.83 214.05 21.09 213.61 21.22 L 213.35 20.39 C 213.74 16.54 214.41 12.73 214.96 8.90 Z" />
</g>
<g id="#6c5f4bff">
<path fill="#6c5f4b" opacity="1.00" d=" M 159.43 9.11 C 160.01 9.20 161.18 9.38 161.76 9.47 C 161.12 12.94 160.46 16.40 159.89 19.88 C 158.73 18.92 157.66 17.87 156.68 16.74 C 157.63 14.21 158.53 11.66 159.43 9.11 Z" />
</g>
<g id="#8bb5d9ff">
<path fill="#8bb5d9" opacity="1.00" d=" M 67.16 14.37 C 67.15 13.79 67.12 12.63 67.10 12.04 C 69.31 11.90 69.68 15.56 67.16 14.37 Z" />
<path fill="#8bb5d9" opacity="1.00" d=" M 179.16 14.37 C 179.15 13.79 179.12 12.63 179.10 12.04 C 181.31 11.90 181.68 15.56 179.16 14.37 Z" />
</g>
<g id="#6e9bbbff">
<path fill="#6e9bbb" opacity="1.00" d=" M 123.35 15.17 C 122.86 14.12 122.80 13.04 123.16 11.94 C 124.86 12.25 125.36 14.96 123.35 15.17 Z" />
</g>
<g id="#2a8ed7ff">
<path fill="#2a8ed7" opacity="1.00" d=" M 11.29 13.74 C 11.71 14.01 12.54 14.56 12.96 14.84 C 13.37 15.12 14.19 15.70 14.61 15.98 C 15.43 17.23 16.16 18.54 16.91 19.83 C 16.19 21.23 15.49 22.63 14.78 24.04 C 14.64 23.64 14.34 22.86 14.19 22.46 C 13.93 21.79 13.40 20.45 13.13 19.78 C 12.39 17.80 11.75 15.79 11.29 13.74 Z" />
</g>
<g id="#709fc2fe">
<path fill="#709fc2" opacity="1.00" d=" M 41.20 14.28 C 43.35 13.84 43.58 17.00 43.88 18.49 L 43.95 18.88 C 42.75 18.01 41.62 16.99 40.94 15.65 C 41.00 15.31 41.14 14.62 41.20 14.28 Z" />
</g>
<g id="#7ca2beff">
<path fill="#7ca2be" opacity="1.00" d=" M 96.40 14.42 C 98.10 14.59 99.35 15.85 100.20 17.25 L 100.35 17.67 C 98.90 17.60 97.48 16.98 96.60 15.79 C 96.55 15.45 96.45 14.76 96.40 14.42 Z" />
<path fill="#7ca2be" opacity="1.00" d=" M 208.40 14.42 C 210.10 14.59 211.35 15.85 212.20 17.25 L 212.35 17.67 C 210.90 17.60 209.48 16.98 208.60 15.79 C 208.55 15.45 208.45 14.76 208.40 14.42 Z" />
</g>
<g id="#7fa1b9ff">
<path fill="#7fa1b9" opacity="1.00" d=" M 154.39 13.66 C 154.72 14.10 155.38 14.97 155.71 15.41 C 155.95 15.74 156.44 16.41 156.68 16.74 C 157.66 17.87 158.73 18.92 159.89 19.88 C 160.39 20.28 161.40 21.09 161.90 21.49 L 162.35 21.87 L 161.39 21.66 C 159.41 21.24 157.42 20.83 155.44 20.40 C 155.24 18.13 154.80 15.90 154.39 13.66 Z" />
</g>
<g id="#427acbfe">
<path fill="#427acb" opacity="1.00" d=" M 34.72 17.61 C 36.56 18.19 38.41 18.77 40.26 19.29 C 40.18 19.74 40.00 20.65 39.91 21.10 C 35.58 19.74 31.19 21.00 27.51 23.43 C 28.28 24.65 29.06 25.87 29.83 27.08 C 25.26 27.05 20.80 28.64 18.59 32.93 C 23.58 35.59 29.19 36.58 34.12 33.42 C 33.69 31.36 33.25 29.31 32.81 27.26 C 34.60 29.92 36.35 32.60 38.10 35.28 C 30.09 35.99 29.16 45.24 24.15 49.78 C 27.26 51.55 30.10 53.73 32.85 56.00 L 31.66 56.00 C 29.90 54.86 28.26 53.51 26.34 52.67 C 22.67 51.94 19.88 54.42 16.94 56.00 L 15.47 56.00 L 16.22 55.37 C 18.08 53.80 19.93 52.23 21.80 50.68 C 21.42 49.09 21.02 47.50 20.62 45.91 C 23.26 44.39 25.81 42.71 28.26 40.90 C 24.81 38.35 20.83 36.17 16.41 36.25 C 15.14 36.28 13.87 36.33 12.61 36.39 C 12.75 36.08 13.02 35.46 13.15 35.15 C 13.38 34.65 13.82 33.66 14.04 33.16 C 15.23 33.89 16.41 34.63 17.58 35.37 C 17.92 33.03 18.11 30.67 18.19 28.30 C 21.18 27.29 24.14 26.20 27.10 25.10 C 27.04 24.37 26.92 22.89 26.86 22.15 C 25.25 21.28 23.65 20.40 22.03 19.54 C 26.31 19.31 30.59 18.75 34.72 17.61 Z" />
</g>
<g id="#298ad7ff">
<path fill="#298ad7" opacity="1.00" d=" M 40.94 15.65 C 41.62 16.99 42.75 18.01 43.95 18.88 C 44.33 19.16 45.07 19.72 45.45 20.00 L 45.95 20.37 C 45.69 20.76 45.17 21.54 44.91 21.94 L 44.51 22.55 C 44.54 21.44 42.83 19.75 42.15 21.34 C 42.21 22.51 42.87 23.10 44.15 23.12 C 43.83 23.63 43.20 24.64 42.89 25.14 C 41.77 23.89 40.82 22.51 39.91 21.10 C 40.00 20.65 40.18 19.74 40.26 19.29 C 40.43 18.38 40.77 16.56 40.94 15.65 Z" />
</g>
<g id="#3a94d8ff">
<path fill="#3a94d8" opacity="1.00" d=" M 96.60 15.79 C 97.48 16.98 98.90 17.60 100.35 17.67 C 100.68 18.58 101.01 19.48 101.34 20.39 L 101.60 21.22 L 101.29 21.55 C 100.41 22.51 99.54 23.47 98.68 24.44 C 97.74 21.62 97.22 18.69 96.60 15.79 Z" />
<path fill="#3a94d8" opacity="1.00" d=" M 208.60 15.79 C 209.48 16.98 210.90 17.60 212.35 17.67 C 212.68 18.58 213.02 19.48 213.35 20.39 L 213.61 21.22 L 213.31 21.55 C 212.42 22.51 211.55 23.47 210.68 24.44 C 209.74 21.62 209.21 18.69 208.60 15.79 Z" />
</g>
<g id="#4279cbff">
<path fill="#4279cb" opacity="1.00" d=" M 78.11 16.94 C 82.35 17.89 86.73 18.06 91.01 17.29 C 88.99 18.95 87.01 20.65 85.03 22.36 C 85.60 23.68 86.17 24.99 86.75 26.30 C 81.51 25.91 76.02 26.87 73.56 32.00 C 79.14 34.32 85.56 35.39 91.11 32.51 C 90.60 30.42 90.10 28.33 89.58 26.24 C 91.35 28.71 92.98 31.27 94.41 33.95 C 87.00 36.11 83.71 43.36 79.21 48.83 C 83.82 51.39 88.43 53.96 93.30 56.00 L 83.38 56.00 C 84.88 55.33 86.35 54.60 87.83 53.87 C 84.95 53.07 82.20 51.62 79.21 51.32 C 76.52 52.38 74.40 54.41 72.04 56.00 L 71.23 56.00 C 73.46 53.88 75.57 51.64 77.72 49.44 C 77.14 49.25 75.97 48.87 75.39 48.68 C 78.52 45.85 80.91 42.30 82.45 38.38 C 79.94 36.70 76.09 36.69 74.00 34.23 C 73.26 32.02 73.26 29.66 72.94 27.37 C 77.05 26.21 81.12 24.88 85.16 23.50 C 83.35 20.78 80.86 18.66 78.11 16.94 Z" />
<path fill="#4279cb" opacity="1.00" d=" M 190.11 16.94 C 194.35 17.89 198.73 18.06 203.01 17.29 C 200.99 18.95 199.01 20.65 197.03 22.36 C 197.59 23.68 198.17 24.99 198.75 26.30 C 193.59 25.96 188.15 26.80 185.65 31.83 C 188.39 32.92 191.01 34.47 193.89 35.22 C 197.15 35.32 200.10 33.59 203.03 32.35 C 202.67 30.27 202.29 28.20 201.91 26.13 C 203.53 28.67 204.96 31.30 206.35 33.97 C 198.98 36.16 195.70 43.38 191.22 48.83 C 195.82 51.39 200.43 53.96 205.30 56.00 L 195.38 56.00 C 196.88 55.33 198.35 54.60 199.83 53.87 C 196.95 53.07 194.20 51.62 191.21 51.32 C 188.52 52.38 186.40 54.41 184.04 56.00 L 183.23 56.00 C 185.46 53.88 187.57 51.64 189.72 49.44 C 189.14 49.25 187.97 48.87 187.39 48.68 C 190.52 45.85 192.91 42.30 194.45 38.38 C 191.92 36.70 188.09 36.69 186.00 34.23 C 185.26 32.02 185.26 29.66 184.94 27.37 C 189.05 26.21 193.12 24.88 197.16 23.50 C 195.35 20.78 192.86 18.66 190.11 16.94 Z" />
<path fill="#4279cb" opacity="1.00" d=" M 154.18 44.34 C 157.16 44.02 158.76 41.15 160.61 39.16 C 160.79 41.16 161.04 43.16 161.37 45.15 C 157.06 47.87 152.34 46.50 148.02 44.69 C 148.23 43.95 148.43 43.22 148.61 42.47 C 150.39 43.23 152.13 44.68 154.18 44.34 Z" />
</g>
<g id="#5688bafe">
<path fill="#5688ba" opacity="1.00" d=" M 161.90 21.49 C 162.64 19.71 164.35 18.34 166.32 18.27 C 165.16 19.35 164.51 20.83 163.73 22.18 C 163.38 22.10 162.70 21.94 162.35 21.87 L 161.90 21.49 Z" />
</g>
<g id="#9cb3c7fe">
<path fill="#9cb3c7" opacity="1.00" d=" M 166.32 18.27 C 166.68 18.25 167.39 18.22 167.75 18.20 L 167.77 18.71 C 167.07 20.32 165.81 21.64 164.17 22.30 L 163.73 22.18 C 164.51 20.83 165.16 19.35 166.32 18.27 Z" />
<path fill="#9cb3c7" opacity="1.00" d=" M 109.06 19.42 L 109.81 19.31 C 111.70 20.64 110.05 22.80 108.30 23.12 L 107.83 22.89 C 108.17 21.94 108.36 20.95 108.39 19.93 L 109.06 19.42 Z" />
<path fill="#9cb3c7" opacity="1.00" d=" M 221.06 19.42 L 221.81 19.31 C 223.69 20.64 222.08 22.82 220.33 23.17 L 219.88 22.92 C 220.20 21.96 220.38 20.96 220.41 19.94 L 221.06 19.42 Z" />
</g>
<g id="#9eb5c9ff">
<path fill="#9eb5c9" opacity="1.00" d=" M 53.58 18.97 C 53.89 19.43 54.52 20.34 54.83 20.80 C 54.06 21.61 53.30 22.42 52.48 23.19 L 51.95 23.48 C 52.28 22.59 52.56 21.69 52.79 20.77 C 52.99 20.32 53.38 19.42 53.58 18.97 Z" />
</g>
<g id="#4077c8ff">
<path fill="#4077c8" opacity="1.00" d=" M 109.81 19.31 C 110.34 19.23 111.39 19.07 111.92 19.00 C 111.94 20.66 111.96 22.33 111.96 23.99 C 111.96 25.52 111.95 27.06 111.94 28.59 C 109.62 29.90 107.31 31.22 105.00 32.54 C 106.70 34.99 108.70 37.18 110.69 39.38 C 105.79 38.14 100.89 36.86 96.21 34.93 C 96.49 34.01 96.77 33.08 97.05 32.16 C 99.03 33.05 101.00 33.97 102.97 34.89 C 103.65 33.19 104.36 31.49 105.05 29.79 C 102.84 28.11 100.54 26.50 98.68 24.44 C 99.54 23.47 100.41 22.51 101.29 21.55 C 102.72 22.39 104.31 23.02 105.99 23.04 C 105.38 23.57 104.15 24.64 103.54 25.17 C 106.16 25.17 108.78 25.06 111.40 24.89 C 110.37 24.29 109.34 23.70 108.30 23.12 C 110.05 22.80 111.70 20.64 109.81 19.31 M 101.15 23.40 C 100.30 27.38 105.14 22.58 101.15 23.40 Z" />
</g>
<g id="#4279caff">
<path fill="#4279ca" opacity="1.00" d=" M 164.17 22.30 C 165.81 21.64 167.07 20.32 167.77 18.71 C 167.84 20.49 167.89 22.27 167.93 24.05 C 167.94 25.22 167.95 26.40 167.94 27.58 C 165.63 28.89 163.32 30.22 161.02 31.54 C 162.71 34.00 164.71 36.22 166.70 38.43 C 160.19 36.76 153.76 33.49 146.86 34.74 C 141.15 36.39 141.40 43.95 136.60 46.97 C 137.38 44.05 138.42 41.17 138.78 38.15 C 136.08 35.75 132.25 35.21 128.97 33.85 C 128.99 31.26 129.00 28.67 129.01 26.09 C 133.95 23.84 139.50 22.54 144.68 24.90 C 139.80 25.77 133.83 24.40 130.08 28.23 C 129.94 29.54 129.85 31.07 131.35 31.60 C 136.30 35.08 142.93 33.92 148.05 31.44 C 147.68 29.35 147.30 27.26 146.91 25.17 C 148.30 27.36 149.52 29.65 150.71 31.95 C 153.63 32.29 156.52 32.84 159.39 33.48 C 160.04 30.90 160.68 28.32 161.04 25.69 C 163.11 24.88 165.17 24.07 167.24 23.26 C 166.22 22.94 165.19 22.62 164.17 22.30 Z" />
</g>
<g id="#337cccff">
<path fill="#337ccc" opacity="1.00" d=" M 221.81 19.31 C 222.36 19.23 223.45 19.06 224.00 18.97 L 224.00 25.63 L 223.32 25.16 C 222.33 24.49 221.33 23.82 220.33 23.17 C 222.08 22.82 223.69 20.64 221.81 19.31 Z" />
</g>
<g id="#67965dff">
<path fill="#67965d" opacity="1.00" d=" M 1.29 20.53 C 2.07 19.38 4.15 20.65 3.33 21.85 C 2.53 23.05 0.43 21.76 1.29 20.53 Z" />
<path fill="#67965d" opacity="1.00" d=" M 57.29 20.53 C 58.07 19.38 60.15 20.65 59.33 21.85 C 58.53 23.05 56.42 21.76 57.29 20.53 Z" />
<path fill="#67965d" opacity="1.00" d=" M 113.29 20.53 C 114.07 19.38 116.15 20.65 115.33 21.85 C 114.53 23.05 112.42 21.76 113.29 20.53 Z" />
<path fill="#67965d" opacity="1.00" d=" M 169.29 20.53 C 170.07 19.38 172.15 20.65 171.33 21.85 C 170.53 23.05 168.42 21.76 169.29 20.53 Z" />
</g>
<g id="#6c5e4cff">
<path fill="#6c5e4c" opacity="1.00" d=" M 9.47 20.20 C 10.38 20.10 12.21 19.88 13.13 19.78 C 13.40 20.45 13.93 21.79 14.19 22.46 C 13.57 22.56 12.31 22.77 11.69 22.87 C 11.19 22.94 10.21 23.08 9.72 23.14 C 9.64 22.16 9.56 21.18 9.47 20.20 Z" />
<path fill="#6c5e4c" opacity="1.00" d=" M 65.47 20.20 C 66.38 20.10 68.19 19.90 69.09 19.80 C 69.34 20.47 69.84 21.81 70.09 22.47 C 69.51 22.59 68.34 22.81 67.76 22.92 C 67.25 22.98 66.24 23.09 65.73 23.15 C 65.65 22.17 65.56 21.18 65.47 20.20 Z" />
<path fill="#6c5e4c" opacity="1.00" d=" M 121.48 20.20 C 122.35 20.08 124.10 19.84 124.97 19.71 C 125.27 20.58 125.56 21.46 125.86 22.33 C 125.42 22.43 124.55 22.65 124.11 22.75 C 123.52 22.87 122.33 23.09 121.73 23.20 C 121.65 22.20 121.57 21.20 121.48 20.20 Z" />
<path fill="#6c5e4c" opacity="1.00" d=" M 177.47 20.20 C 178.38 20.10 180.19 19.90 181.09 19.80 C 181.34 20.47 181.84 21.81 182.09 22.47 C 181.51 22.59 180.34 22.81 179.76 22.92 C 179.25 22.98 178.24 23.09 177.73 23.15 C 177.65 22.17 177.56 21.18 177.47 20.20 Z" />
</g>
<g id="#adc2d9ff">
<path fill="#adc2d9" opacity="1.00" d=" M 42.15 21.34 C 42.83 19.75 44.54 21.44 44.51 22.55 L 44.15 23.12 C 42.87 23.10 42.21 22.51 42.15 21.34 Z" />
<path fill="#adc2d9" opacity="1.00" d=" M 12.01 51.34 L 12.64 51.94 C 12.71 52.38 12.85 53.27 12.93 53.72 C 11.47 54.07 10.29 51.86 12.01 51.34 Z" />
<path fill="#adc2d9" opacity="1.00" d=" M 67.91 50.92 L 68.41 51.42 C 68.46 51.81 68.55 52.57 68.59 52.95 C 68.11 52.89 67.15 52.77 66.67 52.72 L 66.49 51.96 C 66.85 51.70 67.56 51.18 67.91 50.92 Z" />
<path fill="#adc2d9" opacity="1.00" d=" M 179.91 50.92 L 180.41 51.42 C 180.46 51.81 180.55 52.57 180.59 52.95 C 180.11 52.89 179.15 52.77 178.67 52.72 L 178.49 51.96 C 178.85 51.70 179.56 51.18 179.91 50.92 Z" />
</g>
<g id="#3970c2ff">
<path fill="#3970c2" opacity="1.00" d=" M 54.83 20.80 C 55.12 20.58 55.70 20.14 55.98 19.93 C 56.00 21.30 56.00 22.67 55.99 24.05 C 55.95 25.50 55.90 26.95 55.84 28.40 C 52.38 28.14 48.79 28.07 45.62 26.49 C 46.02 25.95 46.81 24.87 47.21 24.33 C 47.75 24.26 48.84 24.11 49.38 24.03 C 49.06 24.60 48.40 25.74 48.07 26.31 C 50.38 26.26 52.69 26.20 54.99 26.17 C 54.15 25.17 53.32 24.18 52.48 23.19 C 53.30 22.42 54.06 21.61 54.83 20.80 Z" />
</g>
<g id="#4f7baeff">
<path fill="#4f7bae" opacity="1.00" d=" M 106.98 19.70 C 107.33 19.76 108.04 19.87 108.39 19.93 C 108.36 20.95 108.17 21.94 107.83 22.89 C 107.50 22.83 106.82 22.70 106.49 22.64 L 106.25 22.03 C 106.43 21.45 106.80 20.28 106.98 19.70 Z" />
<path fill="#4f7bae" opacity="1.00" d=" M 219.00 19.75 C 219.35 19.80 220.06 19.90 220.41 19.94 C 220.38 20.96 220.20 21.96 219.88 22.92 C 219.55 22.89 218.88 22.83 218.55 22.80 L 218.31 22.19 C 218.49 21.58 218.83 20.36 219.00 19.75 Z" />
<path fill="#4f7bae" opacity="1.00" d=" M 51.21 20.98 C 51.60 20.93 52.40 20.82 52.79 20.77 C 52.56 21.69 52.28 22.59 51.95 23.48 C 51.61 23.58 50.92 23.78 50.58 23.89 L 50.12 23.52 C 50.39 22.88 50.94 21.62 51.21 20.98 Z" />
</g>
<g id="#332f2aff">
<path fill="#332f2a" opacity="1.00" d=" M 5.45 21.64 C 6.86 22.16 8.27 22.72 9.72 23.14 C 10.21 23.08 11.19 22.94 11.69 22.87 L 11.84 23.62 C 12.14 25.01 12.46 26.41 12.79 27.80 C 12.84 28.36 12.94 29.48 12.99 30.04 C 11.43 29.17 9.86 28.31 8.29 27.45 C 8.81 28.47 9.32 29.48 9.84 30.50 C 8.30 30.07 6.76 29.65 5.23 29.17 C 5.22 29.08 5.20 28.89 5.19 28.79 C 6.51 27.95 8.57 26.35 7.17 24.67 C 7.03 24.44 6.73 24.00 6.59 23.77 C 6.30 23.24 5.73 22.17 5.45 21.64 Z" />
<path fill="#332f2a" opacity="1.00" d=" M 117.45 21.62 C 118.87 22.17 120.28 22.75 121.73 23.20 C 122.33 23.09 123.52 22.87 124.11 22.75 L 124.14 23.59 C 124.27 25.74 124.53 27.89 124.67 30.04 C 123.22 29.15 121.76 28.27 120.29 27.40 C 120.81 28.44 121.32 29.48 121.84 30.52 C 120.28 30.07 118.71 29.63 117.17 29.13 C 117.15 29.00 117.10 28.74 117.07 28.61 C 118.72 28.27 120.47 26.41 119.15 24.78 C 119.00 24.54 118.71 24.04 118.56 23.80 C 118.28 23.25 117.73 22.16 117.45 21.62 Z" />
</g>
<g id="#8ea7b9ff">
<path fill="#8ea7b9" opacity="1.00" d=" M 44.91 21.94 C 45.17 21.54 45.69 20.76 45.95 20.37 C 46.43 20.73 47.40 21.46 47.89 21.82 C 48.44 22.25 49.56 23.09 50.12 23.52 L 50.58 23.89 L 49.38 24.03 C 48.84 24.11 47.75 24.26 47.21 24.33 C 46.44 23.53 45.68 22.73 44.91 21.94 Z" />
</g>
<g id="#383632ff">
<path fill="#383632" opacity="1.00" d=" M 61.45 21.64 C 62.87 22.17 64.28 22.72 65.73 23.15 C 66.24 23.09 67.25 22.98 67.76 22.92 L 67.87 23.72 C 68.26 26.44 68.64 29.17 68.93 31.90 C 67.67 30.15 66.22 28.55 64.75 26.98 C 65.05 28.18 65.37 29.37 65.68 30.57 C 64.17 30.10 62.66 29.63 61.17 29.12 C 61.15 28.99 61.10 28.74 61.08 28.61 C 62.73 28.27 64.48 26.40 63.15 24.78 C 63.00 24.54 62.70 24.05 62.55 23.80 C 62.28 23.26 61.73 22.18 61.45 21.64 Z" />
<path fill="#383632" opacity="1.00" d=" M 173.45 21.64 C 174.87 22.16 176.28 22.72 177.73 23.15 C 178.24 23.09 179.25 22.98 179.76 22.92 L 179.87 23.72 C 180.26 26.44 180.64 29.17 180.93 31.90 C 179.67 30.15 178.22 28.55 176.75 26.98 C 177.05 28.18 177.36 29.37 177.68 30.56 C 176.17 30.10 174.66 29.63 173.17 29.12 C 173.15 28.99 173.10 28.74 173.08 28.61 C 174.73 28.27 176.48 26.40 175.15 24.78 C 175.00 24.54 174.70 24.05 174.55 23.80 C 174.28 23.26 173.73 22.18 173.45 21.64 Z" />
</g>
<g id="#8ba4b6fe">
<path fill="#8ba4b6" opacity="1.00" d=" M 101.29 21.55 L 101.60 21.22 C 102.04 21.07 102.91 20.79 103.35 20.65 C 104.08 20.99 105.52 21.69 106.25 22.03 L 106.49 22.64 L 105.99 23.04 C 104.31 23.02 102.72 22.39 101.29 21.55 Z" />
<path fill="#8ba4b6" opacity="1.00" d=" M 213.31 21.55 L 213.61 21.22 C 214.05 21.09 214.95 20.83 215.39 20.69 C 216.12 21.07 217.58 21.81 218.31 22.19 L 218.55 22.80 L 218.00 23.14 C 216.31 23.06 214.73 22.40 213.31 21.55 Z" />
</g>
<g id="#4378c9ff">
<path fill="#4378c9" opacity="1.00" d=" M 210.68 24.44 C 211.55 23.47 212.42 22.51 213.31 21.55 C 214.73 22.40 216.31 23.06 218.00 23.14 C 217.29 23.60 215.88 24.53 215.17 24.99 L 214.47 25.29 C 215.25 21.95 210.71 24.36 213.78 25.59 C 216.98 27.09 220.55 27.25 224.00 27.73 L 224.00 27.94 C 222.05 29.67 219.42 30.86 218.15 33.21 C 217.69 36.06 221.23 37.43 222.81 39.34 C 217.86 38.15 212.92 36.90 208.21 34.93 C 208.49 34.00 208.77 33.08 209.05 32.16 C 211.03 33.05 213.00 33.97 214.97 34.89 C 215.65 33.19 216.36 31.49 217.05 29.79 C 214.84 28.11 212.54 26.50 210.68 24.44 Z" />
</g>
<g id="#9db4c9ff">
<path fill="#9db4c9" opacity="1.00" d=" M 11.69 22.87 C 12.31 22.77 13.57 22.56 14.19 22.46 C 14.34 22.86 14.64 23.64 14.78 24.04 L 14.46 24.66 C 13.81 24.40 12.50 23.88 11.84 23.62 L 11.69 22.87 Z" />
<path fill="#9db4c9" opacity="1.00" d=" M 67.76 22.92 C 68.34 22.81 69.51 22.59 70.09 22.47 C 70.23 22.88 70.52 23.68 70.67 24.08 L 70.60 24.79 C 69.91 24.52 68.55 23.99 67.87 23.72 L 67.76 22.92 Z" />
<path fill="#9db4c9" opacity="1.00" d=" M 179.76 22.92 C 180.34 22.81 181.51 22.59 182.09 22.47 C 182.23 22.88 182.52 23.68 182.67 24.08 L 182.60 24.79 C 181.91 24.52 180.55 23.99 179.87 23.72 L 179.76 22.92 Z" />
</g>
<g id="#4379cbff">
<path fill="#4379cb" opacity="1.00" d=" M 44.51 22.55 L 44.91 21.94 C 45.68 22.73 46.44 23.53 47.21 24.33 C 45.77 22.98 43.42 25.93 45.62 26.49 C 48.79 28.07 52.38 28.14 55.84 28.40 C 55.83 28.63 55.80 29.09 55.79 29.33 C 53.96 30.70 51.93 31.86 50.37 33.56 C 49.02 36.69 53.14 38.34 54.80 40.35 C 49.86 39.15 44.91 37.90 40.21 35.93 C 40.49 35.01 40.77 34.09 41.05 33.17 C 43.21 34.15 45.37 35.11 47.52 36.09 C 49.94 31.43 45.91 28.22 42.89 25.14 C 43.20 24.64 43.83 23.63 44.15 23.12 L 44.51 22.55 Z" />
<path fill="#4379cb" opacity="1.00" d=" M 198.56 44.21 C 207.01 42.48 215.54 44.83 224.00 45.16 L 224.00 45.82 C 218.93 46.14 213.71 48.01 208.63 46.67 C 205.25 45.95 201.89 45.15 198.56 44.21 Z" />
</g>
<g id="#65569cff">
<path fill="#65569c" opacity="1.00" d=" M 157.15 22.40 C 161.14 21.58 156.30 26.38 157.15 22.40 Z" />
<path fill="#65569c" opacity="1.00" d=" M 161.39 21.66 L 162.35 21.87 C 162.70 21.94 163.38 22.10 163.73 22.18 L 164.17 22.30 C 165.19 22.62 166.22 22.94 167.24 23.26 C 165.17 24.07 163.11 24.88 161.04 25.69 C 161.19 24.35 161.28 23.00 161.39 21.66 Z" />
<path fill="#65569c" opacity="1.00" d=" M 101.15 23.40 C 105.14 22.58 100.30 27.38 101.15 23.40 Z" />
<path fill="#65569c" opacity="1.00" d=" M 105.99 23.04 L 106.49 22.64 C 106.82 22.70 107.50 22.83 107.83 22.89 L 108.30 23.12 C 109.34 23.70 110.37 24.29 111.40 24.89 C 108.78 25.06 106.16 25.17 103.54 25.17 C 104.15 24.64 105.38 23.57 105.99 23.04 Z" />
<path fill="#65569c" opacity="1.00" d=" M 213.78 25.59 C 210.71 24.36 215.25 21.95 214.47 25.29 L 213.78 25.59 Z" />
<path fill="#65569c" opacity="1.00" d=" M 218.00 23.14 L 218.55 22.80 C 218.88 22.83 219.55 22.89 219.88 22.92 L 220.33 23.17 C 221.33 23.82 222.33 24.49 223.32 25.16 C 220.60 25.13 217.88 25.12 215.17 24.99 C 215.88 24.53 217.29 23.60 218.00 23.14 Z" />
<path fill="#65569c" opacity="1.00" d=" M 45.62 26.49 C 43.42 25.93 45.77 22.98 47.21 24.33 C 46.81 24.87 46.02 25.95 45.62 26.49 Z" />
<path fill="#65569c" opacity="1.00" d=" M 49.38 24.03 L 50.58 23.89 C 50.92 23.78 51.61 23.58 51.95 23.48 L 52.48 23.19 C 53.32 24.18 54.15 25.17 54.99 26.17 C 52.69 26.20 50.38 26.26 48.07 26.31 C 48.40 25.74 49.06 24.60 49.38 24.03 Z" />
</g>
<g id="#79a55dff">
<path fill="#79a55d" opacity="1.00" d=" M 2.83 22.96 C 4.08 23.22 5.34 23.48 6.59 23.77 C 6.73 24.00 7.03 24.44 7.17 24.67 C 5.52 25.33 4.71 27.09 5.19 28.79 C 5.20 28.89 5.22 29.08 5.23 29.17 C 5.34 30.39 5.48 31.60 5.63 32.81 L 5.76 33.90 C 4.91 33.24 4.06 32.57 3.21 31.90 C 4.25 38.29 5.70 44.67 5.76 51.18 C 5.77 51.46 5.81 52.04 5.83 52.33 C 5.93 53.55 6.02 54.78 6.11 56.00 L 0.00 56.00 L 0.00 23.37 C 0.55 24.28 1.12 25.17 1.69 26.06 C 2.07 25.03 2.45 23.99 2.83 22.96 Z" />
<path fill="#79a55d" opacity="1.00" d=" M 58.73 22.95 C 60.01 23.22 61.28 23.50 62.55 23.80 C 62.70 24.05 63.00 24.54 63.15 24.78 C 61.79 25.52 60.49 26.95 61.08 28.61 C 61.10 28.74 61.15 28.99 61.17 29.12 C 61.37 30.37 61.55 31.62 61.74 32.87 L 61.89 33.92 C 61.00 33.26 60.11 32.59 59.22 31.92 C 60.53 38.32 61.07 44.85 62.22 51.28 C 62.34 51.60 62.58 52.23 62.70 52.55 C 62.52 53.26 62.15 54.67 61.97 55.38 L 62.19 56.00 L 56.05 56.00 C 56.03 52.97 56.00 49.94 55.97 46.92 L 55.97 46.31 C 55.91 40.65 55.79 34.99 55.79 29.33 C 55.80 29.09 55.83 28.63 55.84 28.40 C 55.90 26.95 55.95 25.50 55.99 24.05 C 56.67 24.58 57.36 25.12 58.05 25.66 C 58.28 24.76 58.51 23.86 58.73 22.95 Z" />
<path fill="#79a55d" opacity="1.00" d=" M 114.78 23.01 C 116.04 23.26 117.30 23.51 118.56 23.80 C 118.71 24.04 119.00 24.54 119.15 24.78 C 117.79 25.52 116.49 26.96 117.07 28.61 C 117.10 28.74 117.15 29.00 117.17 29.13 C 117.37 30.37 117.54 31.61 117.74 32.85 L 117.89 33.92 C 117.00 33.25 116.10 32.59 115.22 31.92 C 116.52 38.32 117.09 44.85 118.21 51.28 C 118.32 51.60 118.55 52.23 118.67 52.55 C 118.49 53.26 118.13 54.67 117.96 55.38 L 118.18 56.00 L 112.04 56.00 C 112.01 52.65 111.98 49.29 111.97 45.94 L 111.97 44.99 C 111.95 39.52 111.94 34.06 111.94 28.59 C 111.95 27.06 111.96 25.52 111.96 23.99 C 112.57 24.65 113.17 25.31 113.78 25.97 C 114.12 24.98 114.45 23.99 114.78 23.01 Z" />
<path fill="#79a55d" opacity="1.00" d=" M 170.73 22.95 C 172.01 23.22 173.28 23.49 174.55 23.80 C 174.70 24.05 175.00 24.54 175.15 24.78 C 173.79 25.52 172.48 26.95 173.08 28.61 C 173.10 28.74 173.15 28.99 173.17 29.12 C 173.37 30.37 173.55 31.62 173.74 32.87 L 173.89 33.92 C 173.00 33.26 172.10 32.59 171.22 31.92 C 172.53 38.32 173.07 44.85 174.22 51.28 C 174.34 51.60 174.58 52.23 174.70 52.55 C 174.52 53.26 174.15 54.67 173.97 55.38 L 174.19 56.00 L 168.07 56.00 C 167.92 52.24 167.76 48.48 167.67 44.73 L 167.66 44.21 C 167.74 38.67 167.90 33.12 167.94 27.58 C 167.95 26.40 167.94 25.22 167.93 24.05 C 168.65 24.59 169.37 25.13 170.09 25.67 C 170.30 24.77 170.51 23.86 170.73 22.95 Z" />
</g>
<g id="#298ed7ff">
<path fill="#298ed7" opacity="1.00" d=" M 67.87 23.72 C 68.55 23.99 69.91 24.52 70.60 24.79 C 71.20 35.18 71.88 45.61 70.65 56.00 L 69.17 56.00 C 69.06 55.43 68.85 54.28 68.74 53.71 L 68.59 52.95 C 68.55 52.57 68.46 51.81 68.41 51.42 C 68.19 50.09 67.93 48.76 67.62 47.45 C 69.18 46.95 69.69 44.86 68.75 43.59 C 68.17 42.40 67.62 41.22 67.05 40.03 C 68.34 40.25 69.40 38.99 69.12 37.75 C 69.11 36.07 69.08 34.38 69.02 32.70 L 68.93 31.90 C 68.64 29.17 68.26 26.44 67.87 23.72 Z" />
<path fill="#298ed7" opacity="1.00" d=" M 179.87 23.72 C 180.55 23.99 181.91 24.52 182.60 24.79 C 183.20 35.18 183.88 45.61 182.65 56.00 L 181.17 56.00 C 181.06 55.43 180.85 54.28 180.74 53.71 L 180.59 52.95 C 180.55 52.57 180.46 51.81 180.41 51.42 C 180.19 50.09 179.93 48.76 179.62 47.45 C 181.18 46.95 181.69 44.86 180.75 43.59 C 180.17 42.40 179.62 41.22 179.05 40.03 C 180.34 40.25 181.40 38.99 181.12 37.75 C 181.11 36.07 181.08 34.38 181.02 32.70 L 180.93 31.90 C 180.64 29.17 180.26 26.44 179.87 23.72 Z" />
</g>
<g id="#416845ff">
<path fill="#416845" opacity="1.00" d=" M 7.17 24.67 C 8.57 26.35 6.51 27.95 5.19 28.79 C 4.71 27.09 5.52 25.33 7.17 24.67 Z" />
<path fill="#416845" opacity="1.00" d=" M 63.15 24.78 C 64.48 26.40 62.73 28.27 61.08 28.61 C 60.49 26.95 61.79 25.52 63.15 24.78 Z" />
<path fill="#416845" opacity="1.00" d=" M 119.15 24.78 C 120.47 26.41 118.72 28.27 117.07 28.61 C 116.49 26.96 117.79 25.52 119.15 24.78 Z" />
<path fill="#416845" opacity="1.00" d=" M 175.15 24.78 C 176.48 26.40 174.73 28.27 173.08 28.61 C 172.48 26.95 173.79 25.52 175.15 24.78 Z" />
<path fill="#416845" opacity="1.00" d=" M 62.70 52.55 L 63.48 52.74 C 63.34 53.84 62.84 54.72 61.97 55.38 C 62.15 54.67 62.52 53.26 62.70 52.55 Z" />
<path fill="#416845" opacity="1.00" d=" M 118.67 52.55 L 119.44 52.74 C 119.32 53.84 118.82 54.72 117.96 55.38 C 118.13 54.67 118.49 53.26 118.67 52.55 Z" />
<path fill="#416845" opacity="1.00" d=" M 174.70 52.55 L 175.48 52.74 C 175.34 53.84 174.84 54.72 173.97 55.38 C 174.15 54.67 174.52 53.26 174.70 52.55 Z" />
</g>
<g id="#525548ff">
<path fill="#525548" opacity="1.00" d=" M 8.29 27.45 C 9.86 28.31 11.43 29.17 12.99 30.04 C 13.05 30.99 13.10 31.93 13.14 32.88 C 10.63 32.82 8.13 32.81 5.63 32.81 C 5.48 31.60 5.34 30.39 5.23 29.17 C 6.76 29.65 8.30 30.07 9.84 30.50 C 9.32 29.48 8.81 28.47 8.29 27.45 Z" />
<path fill="#525548" opacity="1.00" d=" M 64.75 26.98 C 66.22 28.55 67.67 30.15 68.93 31.90 L 69.02 32.70 C 66.59 32.74 64.17 32.79 61.74 32.87 C 61.55 31.62 61.37 30.37 61.17 29.12 C 62.66 29.63 64.17 30.10 65.68 30.57 C 65.37 29.37 65.05 28.18 64.75 26.98 Z" />
<path fill="#525548" opacity="1.00" d=" M 120.29 27.40 C 121.76 28.27 123.22 29.15 124.67 30.04 C 124.71 30.95 124.72 31.87 124.71 32.79 C 122.38 32.79 120.06 32.82 117.74 32.85 C 117.54 31.61 117.37 30.37 117.17 29.13 C 118.71 29.63 120.28 30.07 121.84 30.52 C 121.32 29.48 120.81 28.44 120.29 27.40 Z" />
<path fill="#525548" opacity="1.00" d=" M 176.75 26.98 C 178.22 28.55 179.67 30.15 180.93 31.90 L 181.02 32.70 C 178.59 32.74 176.16 32.79 173.74 32.87 C 173.55 31.62 173.37 30.37 173.17 29.12 C 174.66 29.63 176.17 30.10 177.68 30.56 C 177.36 29.37 177.05 28.18 176.75 26.98 Z" />
</g>
<g id="#8aa3b5ff">
<path fill="#8aa3b5" opacity="1.00" d=" M 12.79 27.80 C 13.28 29.34 13.83 30.86 14.36 32.39 L 14.04 33.16 C 13.82 33.66 13.38 34.65 13.15 35.15 C 13.15 34.58 13.14 33.45 13.14 32.88 C 13.10 31.93 13.05 30.99 12.99 30.04 C 12.94 29.48 12.84 28.36 12.79 27.80 Z" />
</g>
<g id="#525b48ff">
<path fill="#525b48" opacity="1.00" d=" M 3.21 31.90 C 4.06 32.57 4.91 33.24 5.76 33.90 C 6.51 39.94 6.71 47.23 12.01 51.34 C 10.29 51.86 11.47 54.07 12.93 53.72 L 13.39 53.78 C 11.83 53.90 10.27 54.01 8.70 54.12 C 8.24 54.59 7.33 55.53 6.87 56.00 L 6.11 56.00 C 6.02 54.78 5.93 53.55 5.83 52.33 C 6.89 52.56 8.93 52.81 9.13 51.33 C 8.39 50.15 6.76 50.73 5.76 51.18 C 5.70 44.67 4.25 38.29 3.21 31.90 Z" />
</g>
<g id="#322f2cff">
<path fill="#322f2c" opacity="1.00" d=" M 5.63 32.81 C 8.13 32.81 10.63 32.82 13.14 32.88 C 13.14 33.45 13.15 34.58 13.15 35.15 C 13.02 35.46 12.75 36.08 12.61 36.39 C 12.40 36.86 11.99 37.79 11.78 38.25 C 10.29 36.05 8.75 39.16 11.05 39.78 L 11.14 40.45 C 11.28 41.62 11.43 42.79 11.55 43.96 C 11.62 45.13 11.81 46.28 12.13 47.41 C 12.28 48.02 12.56 49.24 12.70 49.85 C 12.69 50.37 12.66 51.42 12.64 51.94 L 12.01 51.34 C 6.71 47.23 6.51 39.94 5.76 33.90 L 5.63 32.81 M 7.04 35.00 C 7.02 35.78 6.98 37.34 6.96 38.12 C 8.73 37.12 10.51 36.13 12.28 35.14 C 10.54 35.09 8.79 35.05 7.04 35.00 Z" />
<path fill="#322f2c" opacity="1.00" d=" M 61.74 32.87 C 64.17 32.79 66.59 32.74 69.02 32.70 C 69.08 34.38 69.11 36.07 69.12 37.75 C 68.73 37.75 67.95 37.75 67.56 37.75 C 65.72 36.46 64.24 39.16 66.73 39.41 L 67.05 40.03 C 67.62 41.22 68.17 42.40 68.75 43.59 C 67.15 44.15 67.03 46.11 67.62 47.45 C 67.93 48.76 68.19 50.09 68.41 51.42 L 67.91 50.92 C 67.38 50.75 66.32 50.40 65.80 50.23 C 65.62 49.15 65.03 48.41 64.01 48.01 C 63.24 43.33 62.53 38.63 61.89 33.92 L 61.74 32.87 M 63.04 35.00 C 63.02 35.78 62.98 37.34 62.96 38.12 C 64.73 37.12 66.51 36.13 68.28 35.14 C 66.53 35.09 64.79 35.05 63.04 35.00 Z" />
<path fill="#322f2c" opacity="1.00" d=" M 117.74 32.85 C 120.06 32.82 122.38 32.79 124.71 32.79 C 124.44 34.58 124.08 36.36 123.69 38.13 C 121.92 36.11 120.91 39.40 123.20 39.76 C 123.53 43.67 124.01 47.55 124.35 51.46 L 123.87 50.95 C 123.35 50.76 122.30 50.40 121.78 50.22 C 121.62 49.14 121.03 48.40 120.00 48.00 C 119.24 43.31 118.53 38.62 117.89 33.92 L 117.74 32.85 M 119.04 35.00 C 119.02 35.78 118.98 37.34 118.96 38.12 C 120.73 37.12 122.51 36.13 124.28 35.14 C 122.53 35.09 120.79 35.05 119.04 35.00 Z" />
<path fill="#322f2c" opacity="1.00" d=" M 173.74 32.87 C 176.16 32.79 178.59 32.74 181.02 32.70 C 181.08 34.38 181.11 36.07 181.12 37.75 C 180.73 37.75 179.95 37.75 179.56 37.75 C 177.72 36.46 176.24 39.16 178.73 39.41 L 179.05 40.03 C 179.62 41.22 180.17 42.40 180.75 43.59 C 179.15 44.15 179.03 46.11 179.62 47.45 C 179.93 48.76 180.19 50.09 180.41 51.42 L 179.91 50.92 C 179.38 50.75 178.32 50.40 177.80 50.23 C 177.62 49.15 177.02 48.41 176.01 48.01 C 175.24 43.33 174.53 38.63 173.89 33.92 L 173.74 32.87 M 175.04 35.00 C 175.02 35.78 174.98 37.34 174.96 38.12 C 176.73 37.12 178.51 36.13 180.28 35.14 C 178.53 35.09 176.79 35.05 175.04 35.00 Z" />
</g>
<g id="#4b6148ff">
<path fill="#4b6148" opacity="1.00" d=" M 59.22 31.92 C 60.11 32.59 61.00 33.26 61.89 33.92 C 62.53 38.63 63.24 43.33 64.01 48.01 C 62.51 47.91 61.83 49.57 62.20 50.81 L 62.22 51.28 C 61.07 44.85 60.53 38.32 59.22 31.92 Z" />
<path fill="#4b6148" opacity="1.00" d=" M 115.22 31.92 C 116.10 32.59 117.00 33.25 117.89 33.92 C 118.53 38.62 119.24 43.31 120.00 48.00 C 118.50 47.89 117.82 49.55 118.18 50.80 L 118.21 51.28 C 117.09 44.85 116.52 38.32 115.22 31.92 Z" />
<path fill="#4b6148" opacity="1.00" d=" M 171.22 31.92 C 172.10 32.59 173.00 33.26 173.89 33.92 C 174.53 38.63 175.24 43.33 176.01 48.01 C 174.51 47.91 173.82 49.57 174.20 50.81 L 174.22 51.28 C 173.07 44.85 172.53 38.32 171.22 31.92 Z" />
</g>
<g id="#7b9eb5ff">
<path fill="#7b9eb5" opacity="1.00" d=" M 12.61 36.39 C 13.87 36.33 15.14 36.28 16.41 36.25 C 15.63 36.88 14.85 37.51 14.06 38.14 C 13.09 38.91 12.11 39.68 11.14 40.45 L 11.05 39.78 C 11.24 39.40 11.60 38.64 11.78 38.25 C 11.99 37.79 12.40 36.86 12.61 36.39 Z" />
</g>
<g id="#3490d2ff">
<path fill="#3490d2" opacity="1.00" d=" M 11.14 40.45 C 12.11 39.68 13.09 38.91 14.06 38.14 C 14.16 39.72 14.35 42.89 14.45 44.47 C 13.73 44.34 12.28 44.09 11.55 43.96 C 11.43 42.79 11.28 41.62 11.14 40.45 Z" />
</g>
<g id="#4378cbff">
<path fill="#4378cb" opacity="1.00" d=" M 103.14 38.78 C 103.45 40.84 103.71 42.91 103.96 44.98 C 106.63 44.97 109.30 44.97 111.97 44.99 L 111.97 45.94 C 106.91 46.19 101.70 47.97 96.64 46.66 C 93.25 45.95 89.88 45.15 86.55 44.19 C 91.27 43.24 96.08 43.69 100.83 44.14 C 101.59 42.35 102.36 40.56 103.14 38.78 Z" />
<path fill="#4378cb" opacity="1.00" d=" M 30.51 44.96 C 35.64 42.85 42.03 44.74 46.35 40.76 C 45.99 46.07 52.09 46.09 55.97 46.31 L 55.97 46.92 C 51.72 46.82 47.27 46.31 43.38 48.40 C 39.48 46.10 34.98 45.26 30.51 44.96 Z" />
</g>
<g id="#86a0b0fe">
<path fill="#86a0b0" opacity="1.00" d=" M 11.55 43.96 C 12.28 44.09 13.73 44.34 14.45 44.47 L 15.11 44.80 C 14.25 45.81 13.29 46.75 12.13 47.41 C 11.81 46.28 11.62 45.13 11.55 43.96 Z" />
</g>
<g id="#4575cbff">
<path fill="#4575cb" opacity="1.00" d=" M 163.80 44.76 C 163.88 42.96 166.59 43.72 167.66 44.21 L 167.67 44.73 C 166.50 45.20 164.83 45.85 163.80 44.76 Z" />
</g>
<g id="#288ad6ff">
<path fill="#288ad6" opacity="1.00" d=" M 15.11 44.80 C 15.52 44.98 16.34 45.34 16.76 45.51 C 15.56 46.81 14.36 48.10 13.16 49.38 L 12.70 49.85 C 12.56 49.24 12.28 48.02 12.13 47.41 C 13.29 46.75 14.25 45.81 15.11 44.80 Z" />
</g>
<g id="#417acbff">
<path fill="#417acb" opacity="1.00" d=" M 130.96 47.41 C 131.78 46.73 132.63 46.08 133.51 45.47 C 138.89 49.30 145.10 51.79 150.23 56.00 L 139.84 56.00 C 139.23 55.59 138.00 54.77 137.38 54.36 C 139.45 54.03 143.57 53.37 145.64 53.04 C 140.27 50.06 133.73 50.16 128.59 53.58 C 130.33 51.84 132.07 50.11 133.83 48.40 C 133.11 48.15 131.68 47.65 130.96 47.41 Z" />
</g>
<g id="#75634eff">
<path fill="#75634e" opacity="1.00" d=" M 64.01 48.01 C 65.03 48.41 65.62 49.15 65.80 50.23 L 65.41 50.93 C 64.99 50.82 64.16 50.59 63.75 50.48 C 63.81 49.86 63.94 48.63 64.01 48.01 Z" />
<path fill="#75634e" opacity="1.00" d=" M 120.00 48.00 C 121.03 48.40 121.62 49.14 121.78 50.22 L 121.38 50.92 C 120.96 50.81 120.14 50.58 119.73 50.47 C 119.80 49.85 119.93 48.62 120.00 48.00 Z" />
<path fill="#75634e" opacity="1.00" d=" M 176.01 48.01 C 177.02 48.41 177.62 49.15 177.80 50.23 L 177.41 50.93 C 176.99 50.82 176.16 50.59 175.75 50.48 C 175.81 49.86 175.94 48.63 176.01 48.01 Z" />
<path fill="#75634e" opacity="1.00" d=" M 64.24 52.65 C 64.80 52.48 65.93 52.14 66.49 51.96 L 66.67 52.72 C 66.28 52.99 65.49 53.54 65.10 53.81 L 64.53 53.33 L 64.24 52.65 Z" />
<path fill="#75634e" opacity="1.00" d=" M 120.20 52.66 C 120.76 52.49 121.87 52.14 122.43 51.97 L 122.58 52.74 C 122.20 53.02 121.44 53.57 121.06 53.84 L 120.49 53.34 L 120.20 52.66 Z" />
<path fill="#75634e" opacity="1.00" d=" M 176.24 52.65 C 176.80 52.48 177.93 52.14 178.49 51.96 L 178.67 52.72 C 178.28 52.99 177.49 53.54 177.10 53.81 L 176.53 53.33 L 176.24 52.65 Z" />
</g>
<g id="#332e2aff">
<path fill="#332e2a" opacity="1.00" d=" M 5.76 51.18 C 6.76 50.73 8.39 50.15 9.13 51.33 C 8.93 52.81 6.89 52.56 5.83 52.33 C 5.81 52.04 5.77 51.46 5.76 51.18 Z" />
<path fill="#332e2a" opacity="1.00" d=" M 62.22 51.28 L 62.20 50.81 C 62.59 50.73 63.36 50.56 63.75 50.48 C 64.16 50.59 64.99 50.82 65.41 50.93 C 65.68 51.19 66.22 51.71 66.49 51.96 C 65.93 52.14 64.80 52.48 64.24 52.65 L 63.48 52.74 L 62.70 52.55 C 62.58 52.23 62.34 51.60 62.22 51.28 Z" />
<path fill="#332e2a" opacity="1.00" d=" M 118.21 51.28 L 118.18 50.80 C 118.57 50.72 119.34 50.55 119.73 50.47 C 120.14 50.58 120.96 50.81 121.38 50.92 C 121.64 51.18 122.16 51.71 122.43 51.97 C 121.87 52.14 120.76 52.49 120.20 52.66 L 119.44 52.74 L 118.67 52.55 C 118.55 52.23 118.32 51.60 118.21 51.28 Z" />
<path fill="#332e2a" opacity="1.00" d=" M 174.22 51.28 L 174.20 50.81 C 174.59 50.73 175.36 50.56 175.75 50.48 C 176.16 50.59 176.99 50.82 177.41 50.93 C 177.68 51.19 178.22 51.71 178.49 51.96 C 177.93 52.14 176.80 52.48 176.24 52.65 L 175.48 52.74 L 174.70 52.55 C 174.58 52.23 174.34 51.60 174.22 51.28 Z" />
<path fill="#332e2a" opacity="1.00" d=" M 8.70 54.12 C 10.27 54.01 11.83 53.90 13.39 53.78 C 13.06 54.34 12.41 55.45 12.09 56.00 L 6.87 56.00 C 7.33 55.53 8.24 54.59 8.70 54.12 Z" />
<path fill="#332e2a" opacity="1.00" d=" M 64.53 53.33 L 65.10 53.81 C 65.72 55.84 68.46 56.13 68.74 53.71 C 68.85 54.28 69.06 55.43 69.17 56.00 L 63.72 56.00 C 63.92 55.33 64.33 54.00 64.53 53.33 Z" />
<path fill="#332e2a" opacity="1.00" d=" M 120.49 53.34 L 121.06 53.84 C 121.69 55.78 124.49 56.24 124.72 53.77 C 124.92 54.33 125.34 55.44 125.54 56.00 L 119.72 56.00 C 119.91 55.33 120.30 54.00 120.49 53.34 Z" />
<path fill="#332e2a" opacity="1.00" d=" M 176.53 53.33 L 177.10 53.81 C 177.71 55.84 180.46 56.13 180.74 53.71 C 180.85 54.28 181.06 55.43 181.17 56.00 L 175.72 56.00 C 175.92 55.33 176.33 54.00 176.53 53.33 Z" />
</g>
<g id="#3b6bbefe">
<path fill="#3b6bbe" opacity="1.00" d=" M 65.10 53.81 C 65.49 53.54 66.28 52.99 66.67 52.72 C 67.15 52.77 68.11 52.89 68.59 52.95 L 68.74 53.71 C 68.46 56.13 65.72 55.84 65.10 53.81 Z" />
<path fill="#3b6bbe" opacity="1.00" d=" M 121.06 53.84 C 121.44 53.57 122.20 53.02 122.58 52.74 C 123.05 52.81 123.98 52.94 124.45 53.01 L 124.72 53.77 C 124.49 56.24 121.69 55.78 121.06 53.84 Z" />
<path fill="#3b6bbe" opacity="1.00" d=" M 177.10 53.81 C 177.49 53.54 178.28 52.99 178.67 52.72 C 179.15 52.77 180.11 52.89 180.59 52.95 L 180.74 53.71 C 180.46 56.13 177.71 55.84 177.10 53.81 Z" />
</g>
</svg>
