<?xml version="1.0" encoding="UTF-8" ?>
<!DOCTYPE svg PUBLIC "-//W3C//DTD SVG 1.1//EN" "http://www.w3.org/Graphics/SVG/1.1/DTD/svg11.dtd">
<svg width="224pt" height="56pt" viewBox="0 0 224 56" version="1.1" xmlns="http://www.w3.org/2000/svg">
<g id="#91bc69ff">
<path fill="#91bc69" opacity="1.00" d=" M 0.00 0.00 L 0.81 0.00 C 1.73 1.20 1.46 2.11 -0.00 2.72 L 0.00 0.00 Z" />
</g>
<g id="#6c9959ff">
<path fill="#6c9959" opacity="1.00" d=" M 0.81 0.00 L 6.87 0.00 C 5.97 7.20 7.09 14.51 5.45 21.66 C 1.63 16.08 2.48 9.56 2.04 3.28 C 1.53 4.10 0.51 5.73 0.00 6.55 L 0.00 2.72 C 1.46 2.11 1.73 1.20 0.81 0.00 M 3.40 3.15 C 2.97 4.55 3.45 5.03 4.85 4.60 C 5.29 3.20 4.80 2.71 3.40 3.15 Z" />
</g>
<g id="#475943ff">
<path fill="#475943" opacity="1.00" d=" M 6.87 0.00 L 7.72 0.00 C 7.99 6.76 8.79 13.48 9.46 20.20 C 9.55 21.17 9.64 22.14 9.72 23.11 C 8.27 22.69 6.86 22.17 5.45 21.66 C 7.09 14.51 5.97 7.20 6.87 0.00 Z" />
<path fill="#475943" opacity="1.00" d=" M 62.88 0.00 L 63.71 0.00 C 63.99 6.76 64.79 13.47 65.46 20.20 C 65.55 21.17 65.64 22.14 65.72 23.11 C 64.29 22.69 62.88 22.17 61.47 21.66 C 63.07 14.51 61.97 7.20 62.88 0.00 Z" />
<path fill="#475943" opacity="1.00" d=" M 118.89 0.00 L 119.73 0.00 C 119.98 6.76 120.80 13.48 121.47 20.20 C 121.56 21.19 121.65 22.18 121.74 23.17 C 120.29 22.73 118.88 22.18 117.47 21.65 C 119.07 14.50 117.96 7.19 118.89 0.00 Z" />
<path fill="#475943" opacity="1.00" d=" M 174.88 0.00 L 175.71 0.00 C 175.99 6.76 176.79 13.47 177.46 20.20 C 177.55 21.17 177.64 22.14 177.72 23.11 C 176.28 22.69 174.88 22.17 173.47 21.66 C 175.07 14.51 173.97 7.20 174.88 0.00 Z" />
</g>
<g id="#322e2aff">
<path fill="#322e2a" opacity="1.00" d=" M 7.72 0.00 L 10.27 0.00 C 9.64 1.39 9.08 2.81 8.52 4.23 C 9.77 4.29 11.02 4.35 12.27 4.42 C 12.61 4.44 13.29 4.49 13.64 4.52 C 12.66 6.29 11.81 8.14 11.19 10.08 C 11.15 11.40 11.16 12.73 11.23 14.05 C 11.75 16.00 12.43 17.90 13.14 19.78 C 12.22 19.89 10.38 20.10 9.46 20.20 C 8.79 13.48 7.99 6.76 7.72 0.00 Z" />
<path fill="#322e2a" opacity="1.00" d=" M 63.71 0.00 L 65.65 0.00 C 65.42 1.43 65.18 2.86 64.96 4.29 C 66.02 4.37 67.09 4.46 68.16 4.56 C 68.49 4.60 69.16 4.67 69.50 4.71 C 68.42 7.06 67.69 9.55 67.09 12.05 C 67.10 12.63 67.14 13.79 67.15 14.37 C 67.77 16.19 68.44 18.00 69.11 19.81 C 68.19 19.90 66.37 20.10 65.46 20.20 C 64.79 13.47 63.99 6.76 63.71 0.00 Z" />
<path fill="#322e2a" opacity="1.00" d=" M 119.73 0.00 L 122.31 0.00 C 121.69 1.39 121.14 2.80 120.59 4.22 C 121.70 4.40 122.82 4.59 123.93 4.79 C 124.29 4.85 125.01 4.96 125.37 5.02 C 124.37 7.23 123.73 9.59 123.16 11.94 C 122.79 13.04 122.86 14.11 123.35 15.16 C 123.91 16.67 124.44 18.20 124.95 19.73 C 124.08 19.85 122.34 20.09 121.47 20.20 C 120.80 13.48 119.98 6.76 119.73 0.00 Z" />
<path fill="#322e2a" opacity="1.00" d=" M 175.71 0.00 L 177.65 0.00 C 177.42 1.43 177.18 2.86 176.96 4.29 C 178.02 4.37 179.09 4.46 180.16 4.56 C 180.49 4.60 181.16 4.67 181.50 4.71 C 180.42 7.06 179.69 9.55 179.09 12.05 C 179.10 12.63 179.14 13.79 179.15 14.37 C 179.77 16.19 180.44 18.00 181.11 19.81 C 180.19 19.90 178.37 20.10 177.46 20.20 C 176.79 13.47 175.99 6.76 175.71 0.00 Z" />
</g>
<g id="#565249ff">
<path fill="#565249" opacity="1.00" d=" M 10.27 0.00 L 13.26 0.00 L 12.92 0.81 C 12.34 1.95 12.13 3.15 12.27 4.42 C 11.02 4.35 9.77 4.29 8.52 4.23 C 9.08 2.81 9.64 1.39 10.27 0.00 Z" />
<path fill="#565249" opacity="1.00" d=" M 43.73 7.15 C 45.47 7.10 47.22 7.05 48.96 7.00 C 48.98 7.78 49.01 9.34 49.03 10.12 C 47.27 9.12 45.50 8.13 43.73 7.15 Z" />
<path fill="#565249" opacity="1.00" d=" M 99.73 7.15 C 101.47 7.10 103.22 7.05 104.96 7.00 C 104.98 7.78 105.01 9.34 105.03 10.12 C 103.27 9.12 101.50 8.13 99.73 7.15 Z" />
<path fill="#565249" opacity="1.00" d=" M 155.73 7.15 C 157.47 7.10 159.22 7.05 160.96 7.00 C 160.98 7.78 161.01 9.34 161.03 10.12 C 159.27 9.12 157.50 8.13 155.73 7.15 Z" />
<path fill="#565249" opacity="1.00" d=" M 211.73 7.15 C 213.47 7.10 215.22 7.05 216.96 7.00 C 216.98 7.78 217.01 9.34 217.03 10.12 C 215.27 9.12 213.50 8.13 211.73 7.15 Z" />
<path fill="#565249" opacity="1.00" d=" M 44.35 9.60 C 46.53 8.73 47.17 11.75 44.68 11.37 C 44.60 10.93 44.43 10.04 44.35 9.60 Z" />
<path fill="#565249" opacity="1.00" d=" M 100.50 9.72 C 102.36 8.46 103.79 11.17 101.30 11.40 C 101.10 10.98 100.70 10.14 100.50 9.72 Z" />
<path fill="#565249" opacity="1.00" d=" M 156.29 10.27 C 157.68 8.13 159.20 10.98 157.13 11.77 C 156.92 11.40 156.50 10.65 156.29 10.27 Z" />
<path fill="#565249" opacity="1.00" d=" M 212.50 9.72 C 214.35 8.46 215.79 11.17 213.31 11.40 C 213.10 10.98 212.70 10.14 212.50 9.72 Z" />
<path fill="#565249" opacity="1.00" d=" M 7.04 35.00 C 8.78 35.05 10.53 35.10 12.27 35.15 C 10.50 36.13 8.73 37.12 6.97 38.12 C 6.99 37.34 7.02 35.78 7.04 35.00 Z" />
<path fill="#565249" opacity="1.00" d=" M 43.73 35.15 C 45.47 35.10 47.22 35.05 48.96 35.00 C 48.98 35.78 49.01 37.34 49.03 38.12 C 47.27 37.12 45.50 36.13 43.73 35.15 Z" />
<path fill="#565249" opacity="1.00" d=" M 63.04 35.00 C 64.78 35.05 66.53 35.10 68.27 35.15 C 66.50 36.13 64.73 37.12 62.97 38.12 C 62.99 37.34 63.02 35.78 63.04 35.00 Z" />
<path fill="#565249" opacity="1.00" d=" M 99.73 35.15 C 101.47 35.10 103.22 35.05 104.96 35.00 C 104.98 35.78 105.01 37.34 105.03 38.12 C 103.27 37.12 101.50 36.13 99.73 35.15 Z" />
<path fill="#565249" opacity="1.00" d=" M 119.04 35.00 C 120.78 35.05 122.52 35.10 124.27 35.15 C 122.50 36.13 120.73 37.12 118.97 38.12 C 118.99 37.34 119.02 35.78 119.04 35.00 Z" />
<path fill="#565249" opacity="1.00" d=" M 155.73 35.15 C 157.47 35.10 159.22 35.05 160.96 35.00 C 160.98 35.78 161.01 37.34 161.03 38.12 C 159.27 37.12 157.50 36.13 155.73 35.15 Z" />
<path fill="#565249" opacity="1.00" d=" M 175.04 35.00 C 176.78 35.05 178.52 35.10 180.27 35.15 C 178.50 36.13 176.73 37.12 174.97 38.12 C 174.99 37.34 175.02 35.78 175.04 35.00 Z" />
<path fill="#565249" opacity="1.00" d=" M 211.73 35.15 C 213.47 35.10 215.22 35.05 216.96 35.00 C 216.98 35.78 217.01 37.34 217.03 38.12 C 215.27 37.12 213.50 36.13 211.73 35.15 Z" />
<path fill="#565249" opacity="1.00" d=" M 11.09 39.77 C 8.76 39.17 10.29 36.04 11.79 38.25 C 11.61 38.63 11.26 39.39 11.09 39.77 Z" />
<path fill="#565249" opacity="1.00" d=" M 44.36 37.62 C 46.54 36.72 47.16 39.76 44.67 39.38 C 44.59 38.94 44.43 38.06 44.36 37.62 Z" />
<path fill="#565249" opacity="1.00" d=" M 67.36 39.54 C 64.77 39.92 65.98 36.31 67.86 38.04 C 67.74 38.42 67.48 39.16 67.36 39.54 Z" />
<path fill="#565249" opacity="1.00" d=" M 100.66 37.27 C 102.77 37.08 103.07 40.50 100.76 39.13 C 100.74 38.66 100.68 37.73 100.66 37.27 Z" />
<path fill="#565249" opacity="1.00" d=" M 122.67 39.76 C 120.66 38.80 122.45 36.07 123.64 38.32 C 123.40 38.68 122.91 39.40 122.67 39.76 Z" />
<path fill="#565249" opacity="1.00" d=" M 156.35 38.32 C 157.53 36.09 159.33 38.79 157.34 39.76 C 157.09 39.40 156.60 38.68 156.35 38.32 Z" />
<path fill="#565249" opacity="1.00" d=" M 179.36 39.54 C 176.76 39.92 177.98 36.31 179.86 38.04 C 179.74 38.42 179.48 39.16 179.36 39.54 Z" />
<path fill="#565249" opacity="1.00" d=" M 212.29 37.97 C 214.21 36.27 215.29 39.95 212.74 39.50 C 212.63 39.12 212.41 38.35 212.29 37.97 Z" />
</g>
<g id="#268ed9ff">
<path fill="#268ed9" opacity="1.00" d=" M 13.26 0.00 L 15.68 0.00 C 15.70 1.02 15.15 1.90 14.71 2.78 C 14.26 2.29 13.37 1.30 12.92 0.81 L 13.26 0.00 Z" />
<path fill="#268ed9" opacity="1.00" d=" M 124.26 0.00 L 125.82 0.00 C 126.74 0.84 126.51 2.12 126.41 3.21 C 126.02 3.10 125.24 2.86 124.86 2.74 C 124.71 2.06 124.41 0.69 124.26 0.00 Z" />
<path fill="#268ed9" opacity="1.00" d=" M 38.88 7.46 C 39.94 6.91 41.05 6.46 42.20 6.13 C 42.31 6.45 42.54 7.08 42.66 7.39 C 42.63 7.73 42.56 8.42 42.53 8.77 C 41.57 8.57 40.62 8.36 39.67 8.14 L 39.10 7.77 L 38.88 7.46 Z" />
<path fill="#268ed9" opacity="1.00" d=" M 41.68 32.50 C 41.32 29.24 41.03 25.92 41.56 22.67 C 41.90 23.67 42.37 24.60 42.98 25.47 C 42.97 25.94 42.96 26.88 42.95 27.35 C 42.53 29.07 42.07 30.77 41.68 32.50 Z" />
<path fill="#268ed9" opacity="1.00" d=" M 11.86 23.61 C 12.52 23.88 13.84 24.41 14.50 24.67 C 14.95 27.20 15.30 29.85 14.35 32.32 C 13.82 30.82 13.28 29.32 12.79 27.80 C 12.47 26.41 12.15 25.01 11.86 23.61 Z" />
<path fill="#268ed9" opacity="1.00" d=" M 67.90 23.74 C 68.58 24.00 69.95 24.53 70.63 24.79 C 70.29 27.30 70.03 29.82 69.58 32.32 C 69.00 29.46 68.40 26.61 67.90 23.74 Z" />
<path fill="#268ed9" opacity="1.00" d=" M 179.90 23.74 C 180.58 24.00 181.95 24.53 182.63 24.79 C 182.29 27.30 182.03 29.82 181.58 32.32 C 181.00 29.46 180.40 26.61 179.90 23.74 Z" />
<path fill="#268ed9" opacity="1.00" d=" M 38.83 35.32 C 39.82 34.84 40.86 34.49 41.93 34.28 C 42.12 34.61 42.50 35.28 42.69 35.61 C 42.69 35.93 42.69 36.57 42.68 36.89 C 41.66 36.62 40.65 36.34 39.63 36.06 L 39.06 35.60 L 38.83 35.32 Z" />
<path fill="#268ed9" opacity="1.00" d=" M 208.63 36.62 C 206.58 35.31 208.82 33.37 210.49 34.35 C 210.43 34.75 210.30 35.55 210.24 35.95 C 209.83 36.11 209.03 36.45 208.63 36.62 Z" />
</g>
<g id="#3c6bbfff">
<path fill="#3c6bbf" opacity="1.00" d=" M 15.68 0.00 L 31.90 0.00 C 32.74 1.35 33.49 2.74 34.25 4.13 C 32.35 5.64 30.28 6.97 28.69 8.82 C 27.44 10.97 27.78 13.61 27.53 16.00 C 28.07 15.86 29.13 15.57 29.66 15.43 C 30.47 10.71 33.27 6.56 39.10 7.77 L 39.67 8.14 C 40.47 8.76 41.25 9.39 42.03 10.03 C 41.87 11.60 41.55 14.75 41.39 16.32 L 41.32 16.96 C 41.42 18.39 41.65 19.80 41.85 21.21 C 41.78 21.58 41.63 22.30 41.56 22.67 C 41.03 25.92 41.32 29.24 41.68 32.50 C 41.74 32.94 41.87 33.83 41.93 34.28 C 40.86 34.49 39.82 34.84 38.83 35.32 C 36.67 32.94 34.94 30.23 33.19 27.56 C 33.06 29.91 34.25 33.26 31.68 34.67 C 27.46 37.36 22.73 34.41 18.80 32.69 C 21.56 28.35 26.52 25.35 31.75 26.70 C 29.15 23.26 26.19 20.03 22.31 18.01 C 24.12 20.26 25.96 22.48 27.73 24.76 C 24.63 26.00 21.51 27.19 18.36 28.32 C 18.07 30.76 17.67 33.18 17.10 35.58 C 16.09 34.73 15.08 33.89 14.06 33.06 L 14.35 32.32 C 15.30 29.85 14.95 27.20 14.50 24.67 L 14.80 24.03 C 15.41 22.72 16.02 21.39 16.63 20.08 C 16.07 18.60 15.50 17.12 14.95 15.63 C 15.88 11.59 15.36 7.44 14.74 3.40 L 14.71 2.78 C 15.15 1.90 15.70 1.02 15.68 0.00 Z" />
</g>
<g id="#4579caff">
<path fill="#4579ca" opacity="1.00" d=" M 31.90 0.00 L 33.39 0.00 C 35.26 2.46 36.93 5.07 38.88 7.46 L 39.10 7.77 C 33.27 6.56 30.47 10.71 29.66 15.43 C 29.13 15.57 28.07 15.86 27.53 16.00 C 27.78 13.61 27.44 10.97 28.69 8.82 C 30.28 6.97 32.35 5.64 34.25 4.13 C 33.49 2.74 32.74 1.35 31.90 0.00 Z" />
</g>
<g id="#3c6bbeff">
<path fill="#3c6bbe" opacity="1.00" d=" M 33.39 0.00 L 40.12 0.00 C 39.04 1.62 40.48 3.26 41.60 4.36 C 41.75 4.80 42.05 5.69 42.20 6.13 C 41.05 6.46 39.94 6.91 38.88 7.46 C 36.93 5.07 35.26 2.46 33.39 0.00 Z" />
<path fill="#3c6bbe" opacity="1.00" d=" M 67.26 0.00 L 91.77 0.00 C 89.70 5.88 81.30 7.76 83.14 15.28 C 85.86 11.47 89.19 8.09 93.41 5.96 C 92.99 3.98 92.61 1.98 92.19 0.00 L 97.42 0.00 C 95.74 10.81 96.60 21.86 98.51 32.57 L 98.23 32.91 C 97.41 33.88 95.54 35.35 96.87 36.65 C 97.78 37.73 98.72 38.79 99.70 39.80 C 99.49 40.53 99.08 41.97 98.87 42.69 C 94.72 42.70 90.61 43.31 86.64 44.46 C 91.25 45.15 96.23 45.80 99.64 49.36 L 99.00 50.50 L 97.79 50.72 C 88.65 50.67 79.51 50.88 70.38 50.67 L 69.42 50.54 L 68.80 49.98 C 69.88 48.73 71.14 46.84 69.90 45.27 C 69.43 44.87 68.49 44.06 68.03 43.66 L 68.39 43.07 C 69.17 41.92 69.13 40.77 68.30 39.61 C 69.40 38.46 70.43 37.24 71.48 36.04 C 75.32 36.01 79.13 36.42 82.93 36.94 C 81.28 41.81 78.32 46.04 74.89 49.82 C 81.04 50.26 82.95 43.66 86.11 39.67 C 87.99 36.76 91.43 35.50 94.34 33.96 C 92.81 29.53 89.81 24.75 84.83 24.01 C 80.94 24.31 77.33 26.03 73.64 27.18 C 73.42 29.41 73.23 31.64 73.01 33.87 C 71.70 34.08 70.38 34.27 69.08 34.51 L 69.44 33.19 L 69.58 32.32 C 70.03 29.82 70.29 27.30 70.63 24.79 L 70.73 24.08 C 71.30 17.20 70.67 10.29 70.30 3.42 C 70.35 2.29 69.89 1.46 68.93 0.94 C 68.51 0.71 67.68 0.24 67.26 0.00 M 72.77 3.07 C 75.47 4.28 78.18 5.44 80.85 6.70 C 82.17 5.04 83.46 3.36 84.69 1.64 C 81.01 3.69 76.80 3.28 72.77 3.07 Z" />
<path fill="#3c6bbe" opacity="1.00" d=" M 125.82 0.00 L 138.31 0.00 C 137.74 0.57 136.59 1.70 136.02 2.26 C 133.56 2.20 131.10 2.15 128.64 2.24 C 131.25 3.25 133.80 4.62 136.60 5.00 C 138.44 3.60 139.79 1.69 141.34 0.00 L 149.26 0.00 C 146.84 3.10 143.57 5.33 139.92 6.73 C 139.75 9.58 139.75 12.44 139.84 15.29 C 141.43 10.21 145.45 6.72 150.49 5.20 C 150.09 3.47 149.69 1.74 149.32 0.00 L 153.42 0.00 C 151.76 10.78 152.54 21.81 154.65 32.46 L 154.76 33.05 L 154.97 33.91 C 153.95 34.27 152.93 34.63 151.92 34.99 C 153.22 38.16 154.29 41.42 155.38 44.67 C 154.12 44.67 152.87 44.68 151.62 44.69 C 152.92 46.61 154.14 48.58 155.26 50.62 L 153.89 50.73 C 146.65 51.58 138.62 51.28 133.54 45.35 C 132.63 46.10 131.74 46.87 130.85 47.65 C 133.65 48.83 136.49 49.88 139.33 50.98 C 134.91 50.94 130.49 50.96 126.08 50.73 L 124.74 50.60 C 125.84 48.58 127.06 46.63 128.37 44.73 C 126.98 44.63 125.60 44.52 124.21 44.42 C 125.27 41.17 126.54 38.00 128.08 34.95 C 127.05 34.60 126.03 34.24 125.01 33.88 L 125.22 33.01 L 125.35 32.46 C 128.16 23.11 126.50 13.35 126.39 3.79 L 126.41 3.21 C 126.51 2.12 126.74 0.84 125.82 0.00 M 137.54 15.27 C 136.62 16.41 138.58 17.87 139.46 16.73 C 140.38 15.59 138.41 14.13 137.54 15.27 M 135.30 24.85 C 137.54 24.50 139.76 24.02 141.95 23.45 C 143.05 24.06 144.13 24.68 145.22 25.32 C 143.76 25.89 140.85 27.02 139.39 27.59 C 142.56 27.88 145.72 28.24 148.87 28.65 C 145.29 36.22 136.03 33.63 129.85 31.26 C 129.49 32.18 129.14 33.10 128.80 34.02 C 131.96 35.65 136.58 35.29 138.78 38.31 C 138.82 41.26 137.13 43.90 136.22 46.64 C 138.94 45.29 141.12 43.13 141.63 40.05 C 142.28 35.46 147.50 34.79 151.02 33.34 C 149.15 29.36 147.68 24.52 143.31 22.64 C 140.44 21.23 137.62 23.37 135.30 24.85 Z" />
<path fill="#3c6bbe" opacity="1.00" d=" M 179.26 0.00 L 203.77 0.00 C 201.70 5.88 193.30 7.76 195.14 15.28 C 197.86 11.47 201.18 8.09 205.41 5.96 C 204.99 3.98 204.61 1.98 204.19 0.00 L 209.42 0.00 C 207.65 10.78 208.76 21.77 210.51 32.47 L 210.51 33.21 L 210.49 34.35 C 208.82 33.37 206.58 35.31 208.63 36.62 C 209.67 37.69 210.71 38.76 211.81 39.77 C 211.59 40.49 211.15 41.92 210.93 42.64 C 206.76 42.69 202.64 43.32 198.64 44.47 C 203.28 45.16 208.34 45.77 211.68 49.49 L 210.92 50.42 L 209.76 50.65 C 200.64 50.71 191.50 50.88 182.38 50.67 L 181.42 50.54 L 180.80 49.98 C 181.88 48.73 183.14 46.84 181.90 45.27 C 181.43 44.87 180.49 44.06 180.03 43.66 L 180.39 43.07 C 181.17 41.92 181.13 40.77 180.30 39.61 C 181.40 38.46 182.43 37.24 183.48 36.04 C 187.32 36.00 191.13 36.42 194.93 36.94 C 193.28 41.81 190.32 46.04 186.89 49.82 C 189.10 49.31 192.00 49.54 193.02 46.95 C 196.53 42.09 199.57 36.52 205.34 33.98 C 204.91 31.68 204.57 29.36 204.30 27.04 C 201.63 26.16 199.15 24.37 196.28 24.14 C 192.58 24.48 189.14 26.05 185.64 27.18 C 185.42 29.41 185.23 31.64 185.01 33.87 C 183.70 34.08 182.38 34.27 181.08 34.51 L 181.44 33.19 L 181.58 32.32 C 182.03 29.82 182.29 27.30 182.63 24.79 L 182.73 24.08 C 183.30 17.20 182.67 10.29 182.30 3.42 C 182.35 2.29 181.89 1.46 180.93 0.94 C 180.51 0.71 179.68 0.24 179.26 0.00 M 184.77 3.07 C 187.47 4.28 190.18 5.44 192.85 6.70 C 194.17 5.04 195.46 3.36 196.69 1.64 C 193.00 3.69 188.80 3.28 184.77 3.07 Z" />
<path fill="#3c6bbe" opacity="1.00" d=" M 48.54 22.49 C 45.98 19.79 50.39 19.76 50.23 22.69 C 49.80 22.64 48.96 22.54 48.54 22.49 Z" />
<path fill="#3c6bbe" opacity="1.00" d=" M 104.53 22.48 C 101.98 19.76 106.41 19.77 106.22 22.70 C 105.80 22.64 104.95 22.53 104.53 22.48 Z" />
<path fill="#3c6bbe" opacity="1.00" d=" M 160.54 22.47 C 157.97 19.76 162.41 19.77 162.23 22.69 C 161.81 22.64 160.96 22.53 160.54 22.47 Z" />
<path fill="#3c6bbe" opacity="1.00" d=" M 216.33 22.49 C 214.14 19.72 218.68 19.60 217.82 22.64 C 217.45 22.60 216.70 22.53 216.33 22.49 Z" />
<path fill="#3c6bbe" opacity="1.00" d=" M 44.17 22.84 C 44.79 22.72 46.01 22.50 46.62 22.38 L 46.48 23.15 C 46.19 23.36 45.63 23.79 45.34 24.00 C 45.05 23.71 44.47 23.13 44.17 22.84 Z" />
<path fill="#3c6bbe" opacity="1.00" d=" M 100.19 22.72 C 100.80 22.62 102.01 22.41 102.62 22.31 L 102.47 23.08 C 102.18 23.29 101.59 23.69 101.30 23.89 C 101.02 23.60 100.47 23.01 100.19 22.72 Z" />
<path fill="#3c6bbe" opacity="1.00" d=" M 156.18 22.73 C 156.79 22.63 158.01 22.41 158.63 22.30 L 158.48 23.07 C 158.20 23.28 157.62 23.69 157.33 23.90 C 157.04 23.61 156.47 23.02 156.18 22.73 Z" />
<path fill="#3c6bbe" opacity="1.00" d=" M 212.22 22.75 C 212.82 22.65 214.03 22.45 214.63 22.35 L 214.49 23.13 C 214.20 23.34 213.64 23.75 213.36 23.95 C 213.08 23.65 212.51 23.05 212.22 22.75 Z" />
<path fill="#3c6bbe" opacity="1.00" d=" M 47.54 24.49 L 48.30 24.45 C 48.65 25.53 49.33 26.29 50.35 26.74 L 50.25 27.32 C 48.79 28.07 47.29 26.74 47.31 25.23 L 47.54 24.49 Z" />
<path fill="#3c6bbe" opacity="1.00" d=" M 103.51 24.45 L 104.28 24.42 C 104.62 25.50 105.30 26.27 106.32 26.73 L 106.23 27.31 C 104.75 28.02 103.25 26.68 103.28 25.17 L 103.51 24.45 Z" />
<path fill="#3c6bbe" opacity="1.00" d=" M 159.54 24.44 L 160.30 24.42 C 160.64 25.50 161.31 26.27 162.33 26.74 L 162.24 27.31 C 160.75 28.04 159.27 26.68 159.31 25.17 L 159.54 24.44 Z" />
<path fill="#3c6bbe" opacity="1.00" d=" M 215.64 24.66 L 216.43 24.69 C 216.78 25.78 217.48 26.51 218.55 26.88 L 218.54 27.44 C 217.05 28.17 215.37 26.94 215.37 25.34 L 215.64 24.66 Z" />
<path fill="#3c6bbe" opacity="1.00" d=" M 16.38 36.28 C 20.28 36.40 24.42 37.36 27.25 40.24 C 26.35 43.50 22.89 44.66 20.24 46.14 C 21.04 47.56 21.83 48.98 22.61 50.40 C 25.93 46.90 29.32 43.38 31.47 39.01 C 32.82 36.19 36.46 36.49 39.06 35.60 L 39.63 36.06 C 40.42 36.73 41.21 37.40 42.00 38.07 C 41.84 39.66 41.52 42.84 41.36 44.43 L 41.30 45.05 C 41.53 47.04 42.10 48.98 42.61 50.91 L 41.59 50.94 C 32.54 50.61 23.48 50.66 14.42 50.88 L 13.38 50.87 C 13.89 48.94 14.47 47.03 14.72 45.05 L 14.66 44.43 C 14.51 42.86 14.21 39.71 14.06 38.14 C 14.84 37.52 15.61 36.90 16.38 36.28 Z" />
</g>
<g id="#268ed9fe">
<path fill="#268ed9" opacity="1.00" d=" M 40.12 0.00 L 41.67 0.00 C 42.14 1.43 42.12 2.89 41.60 4.36 C 40.48 3.26 39.04 1.62 40.12 0.00 Z" />
</g>
<g id="#8aa3b5ff">
<path fill="#8aa3b5" opacity="1.00" d=" M 41.67 0.00 L 42.95 0.00 C 43.24 0.57 43.81 1.70 44.10 2.26 C 43.74 3.13 43.42 4.02 43.12 4.91 C 43.01 5.53 42.77 6.77 42.66 7.39 C 42.54 7.08 42.31 6.45 42.20 6.13 C 42.05 5.69 41.75 4.80 41.60 4.36 C 42.12 2.89 42.14 1.43 41.67 0.00 Z" />
<path fill="#8aa3b5" opacity="1.00" d=" M 12.79 27.80 C 13.28 29.32 13.82 30.82 14.35 32.32 L 14.06 33.06 C 13.83 33.57 13.38 34.61 13.15 35.12 C 13.15 34.56 13.14 33.44 13.14 32.88 C 13.10 31.93 13.06 30.98 13.00 30.03 C 12.95 29.47 12.84 28.36 12.79 27.80 Z" />
<path fill="#8aa3b5" opacity="1.00" d=" M 41.68 32.50 C 42.07 30.77 42.53 29.07 42.95 27.35 C 42.95 28.02 42.94 29.36 42.93 30.03 C 42.91 31.01 42.88 31.98 42.83 32.96 C 42.80 33.62 42.73 34.95 42.69 35.61 C 42.50 35.28 42.12 34.61 41.93 34.28 C 41.87 33.83 41.74 32.94 41.68 32.50 Z" />
</g>
<g id="#332e2aff">
<path fill="#332e2a" opacity="1.00" d=" M 42.95 0.00 L 44.46 0.00 C 44.37 0.57 44.19 1.70 44.10 2.26 C 43.81 1.70 43.24 0.57 42.95 0.00 Z" />
<path fill="#332e2a" opacity="1.00" d=" M 48.22 0.00 L 50.51 0.00 C 50.53 0.31 50.57 0.92 50.59 1.22 C 49.39 2.04 47.91 2.16 46.50 2.07 C 47.01 1.33 47.59 0.64 48.22 0.00 Z" />
<path fill="#332e2a" opacity="1.00" d=" M 104.18 0.00 L 106.49 0.00 C 106.51 0.31 106.56 0.92 106.58 1.22 C 105.38 2.04 103.90 2.15 102.50 2.08 C 103.00 1.33 103.56 0.64 104.18 0.00 Z" />
<path fill="#332e2a" opacity="1.00" d=" M 155.22 0.00 L 156.82 0.00 C 156.45 0.60 155.70 1.79 155.32 2.39 C 155.30 1.79 155.24 0.60 155.22 0.00 Z" />
<path fill="#332e2a" opacity="1.00" d=" M 160.21 0.00 L 162.51 0.00 C 162.53 0.31 162.57 0.92 162.59 1.22 C 161.39 2.04 159.91 2.16 158.51 2.07 C 159.01 1.33 159.58 0.64 160.21 0.00 Z" />
<path fill="#332e2a" opacity="1.00" d=" M 216.19 0.00 L 218.50 0.00 C 218.52 0.31 218.56 0.92 218.58 1.22 C 217.38 2.03 215.90 2.15 214.50 2.08 C 215.00 1.33 215.56 0.64 216.19 0.00 Z" />
<path fill="#332e2a" opacity="1.00" d=" M 45.34 24.00 C 45.63 23.79 46.19 23.36 46.48 23.15 C 46.99 22.98 48.02 22.66 48.54 22.49 C 48.96 22.54 49.80 22.64 50.23 22.69 L 50.45 23.24 L 49.95 23.76 L 49.13 24.16 L 48.30 24.45 L 47.54 24.49 C 46.99 24.37 45.89 24.13 45.34 24.00 Z" />
<path fill="#332e2a" opacity="1.00" d=" M 101.30 23.89 C 101.59 23.69 102.18 23.29 102.47 23.08 C 102.98 22.93 104.02 22.63 104.53 22.48 C 104.95 22.53 105.80 22.64 106.22 22.70 L 106.44 23.25 L 105.94 23.76 L 105.11 24.15 L 104.28 24.42 L 103.51 24.45 C 102.96 24.31 101.85 24.03 101.30 23.89 Z" />
<path fill="#332e2a" opacity="1.00" d=" M 157.33 23.90 C 157.62 23.69 158.20 23.28 158.48 23.07 C 159.00 22.92 160.02 22.62 160.54 22.47 C 160.96 22.53 161.81 22.64 162.23 22.69 L 162.45 23.24 L 161.95 23.75 L 161.13 24.14 L 160.30 24.42 L 159.54 24.44 C 158.99 24.31 157.88 24.03 157.33 23.90 Z" />
<path fill="#332e2a" opacity="1.00" d=" M 213.36 23.95 C 213.64 23.75 214.20 23.34 214.49 23.13 C 214.95 22.97 215.87 22.65 216.33 22.49 C 216.70 22.53 217.45 22.60 217.82 22.64 L 217.85 23.09 C 217.69 23.42 217.38 24.06 217.22 24.39 L 216.43 24.69 L 215.64 24.66 C 215.07 24.49 213.93 24.13 213.36 23.95 Z" />
<path fill="#332e2a" opacity="1.00" d=" M 5.72 32.81 C 8.19 32.81 10.66 32.83 13.14 32.88 C 13.14 33.44 13.15 34.56 13.15 35.12 C 13.02 35.44 12.75 36.07 12.61 36.38 C 12.40 36.85 11.99 37.78 11.79 38.25 C 10.29 36.04 8.76 39.17 11.09 39.77 L 11.20 40.42 C 11.39 41.59 11.59 42.75 11.75 43.92 C 11.72 45.08 11.59 46.30 12.04 47.41 C 12.45 48.58 12.91 49.73 13.38 50.87 L 13.77 51.75 C 12.09 51.61 10.39 51.61 8.71 51.69 C 7.64 51.75 6.66 52.06 5.75 52.62 C 5.76 52.37 5.77 51.89 5.78 51.64 C 6.66 50.79 7.59 49.98 8.51 49.16 C 7.45 44.10 6.55 39.01 5.88 33.89 L 5.72 32.81 M 7.04 35.00 C 7.02 35.78 6.99 37.34 6.97 38.12 C 8.73 37.12 10.50 36.13 12.27 35.15 C 10.53 35.10 8.78 35.05 7.04 35.00 Z" />
<path fill="#332e2a" opacity="1.00" d=" M 42.83 32.96 C 45.31 32.84 47.79 32.78 50.26 32.73 L 50.05 33.74 C 49.30 38.90 48.51 44.06 47.52 49.19 C 48.55 50.03 49.59 50.86 50.60 51.74 L 50.94 52.09 L 49.91 51.99 C 49.02 51.84 48.12 51.75 47.22 51.70 C 45.55 51.65 43.89 51.66 42.22 51.79 L 42.61 50.91 C 43.09 49.75 43.55 48.59 43.96 47.40 C 44.40 46.30 44.31 45.09 44.30 43.93 C 44.37 42.70 44.49 41.48 44.60 40.26 L 44.67 39.38 C 47.16 39.76 46.54 36.72 44.36 37.62 C 43.94 37.44 43.10 37.07 42.68 36.89 C 42.69 36.57 42.69 35.93 42.69 35.61 C 42.73 34.95 42.80 33.62 42.83 32.96 M 43.73 35.15 C 45.50 36.13 47.27 37.12 49.03 38.12 C 49.01 37.34 48.98 35.78 48.96 35.00 C 47.22 35.05 45.47 35.10 43.73 35.15 Z" />
<path fill="#332e2a" opacity="1.00" d=" M 61.45 32.81 C 64.11 32.86 66.78 32.97 69.44 33.19 L 69.08 34.51 C 68.94 34.89 68.68 35.63 68.55 36.00 C 68.38 36.51 68.04 37.53 67.86 38.04 C 65.98 36.31 64.77 39.92 67.36 39.54 L 67.07 40.42 C 66.61 41.72 67.05 42.61 68.39 43.07 L 68.03 43.66 C 67.11 44.72 67.13 46.22 67.62 47.45 C 67.77 48.43 68.17 49.27 68.80 49.98 L 69.42 50.54 L 70.04 51.09 C 68.29 51.31 66.55 51.53 64.80 51.73 C 63.89 51.83 62.98 51.95 62.08 52.10 L 61.12 52.17 L 61.52 51.75 C 62.48 50.86 63.48 50.01 64.48 49.16 C 63.56 44.05 62.66 38.94 61.72 33.84 L 61.45 32.81 M 63.04 35.00 C 63.02 35.78 62.99 37.34 62.97 38.12 C 64.73 37.12 66.50 36.13 68.27 35.15 C 66.53 35.10 64.78 35.05 63.04 35.00 Z" />
<path fill="#332e2a" opacity="1.00" d=" M 98.23 32.91 C 100.91 32.78 103.58 32.73 106.26 32.76 L 106.05 33.75 C 105.30 39.02 104.49 44.28 103.39 49.49 C 104.47 50.24 105.55 50.98 106.62 51.73 L 107.10 52.06 L 105.93 51.89 C 105.05 51.73 104.16 51.63 103.27 51.61 C 101.61 51.57 99.95 51.57 98.30 51.70 L 99.00 50.50 L 99.64 49.36 C 99.92 48.76 100.19 48.15 100.45 47.54 C 101.09 46.33 101.12 44.51 99.93 43.63 L 99.44 43.18 C 100.67 42.67 101.16 41.77 100.91 40.47 L 100.76 39.13 C 103.07 40.50 102.77 37.08 100.66 37.27 C 100.07 36.99 98.90 36.45 98.32 36.17 C 98.30 35.36 98.25 33.73 98.23 32.91 M 99.73 35.15 C 101.50 36.13 103.27 37.12 105.03 38.12 C 105.01 37.34 104.98 35.78 104.96 35.00 C 103.22 35.05 101.47 35.10 99.73 35.15 Z" />
<path fill="#332e2a" opacity="1.00" d=" M 117.45 32.87 C 120.04 32.84 122.64 32.88 125.22 33.01 L 125.01 33.88 C 124.60 35.38 124.14 36.85 123.64 38.32 C 122.45 36.07 120.66 38.80 122.67 39.76 C 123.53 43.34 123.81 47.03 124.74 50.60 L 125.10 51.75 C 123.66 51.64 122.22 51.66 120.79 51.71 C 119.89 51.75 118.99 51.85 118.10 52.00 L 117.16 52.10 L 117.52 51.70 C 118.48 50.83 119.49 50.01 120.49 49.17 C 119.56 44.07 118.66 38.96 117.72 33.86 L 117.45 32.87 M 119.04 35.00 C 119.02 35.78 118.99 37.34 118.97 38.12 C 120.73 37.12 122.50 36.13 124.27 35.15 C 122.52 35.10 120.78 35.05 119.04 35.00 Z" />
<path fill="#332e2a" opacity="1.00" d=" M 154.76 33.05 C 157.26 32.88 159.76 32.78 162.26 32.72 L 162.05 33.73 C 161.30 38.90 160.51 44.06 159.52 49.19 C 160.55 50.02 161.59 50.86 162.60 51.74 L 162.93 52.09 L 161.91 51.99 C 161.01 51.85 160.11 51.75 159.21 51.71 C 157.77 51.66 156.33 51.64 154.90 51.75 L 155.26 50.62 C 156.19 47.04 156.47 43.34 157.34 39.76 C 159.33 38.79 157.53 36.09 156.35 38.32 C 155.84 36.87 155.37 35.40 154.97 33.91 L 154.76 33.05 M 155.73 35.15 C 157.50 36.13 159.27 37.12 161.03 38.12 C 161.01 37.34 160.98 35.78 160.96 35.00 C 159.22 35.05 157.47 35.10 155.73 35.15 Z" />
<path fill="#332e2a" opacity="1.00" d=" M 173.45 32.81 C 176.11 32.86 178.78 32.97 181.44 33.19 L 181.08 34.51 C 180.94 34.89 180.68 35.63 180.55 36.00 C 180.38 36.51 180.04 37.53 179.86 38.04 C 177.98 36.31 176.76 39.92 179.36 39.54 L 179.07 40.42 C 178.61 41.72 179.05 42.61 180.39 43.07 L 180.03 43.66 C 179.11 44.72 179.13 46.22 179.62 47.45 C 179.77 48.43 180.17 49.27 180.80 49.98 L 181.42 50.54 L 182.03 51.09 C 180.29 51.31 178.55 51.52 176.80 51.73 C 175.89 51.83 174.98 51.95 174.08 52.10 L 173.12 52.17 L 173.52 51.75 C 174.48 50.86 175.48 50.01 176.48 49.16 C 175.56 44.05 174.66 38.94 173.72 33.84 L 173.45 32.81 M 175.04 35.00 C 175.02 35.78 174.99 37.34 174.97 38.12 C 176.73 37.12 178.50 36.13 180.27 35.15 C 178.52 35.10 176.78 35.05 175.04 35.00 Z" />
<path fill="#332e2a" opacity="1.00" d=" M 210.51 33.21 C 213.10 32.97 215.70 32.82 218.31 32.74 L 218.18 33.86 C 217.53 39.00 216.57 44.10 215.45 49.16 C 216.49 50.00 217.55 50.84 218.56 51.73 L 218.90 52.08 L 217.91 52.08 C 217.00 51.95 216.09 51.85 215.18 51.76 C 213.52 51.59 211.86 51.42 210.21 51.26 L 210.92 50.42 L 211.68 49.49 C 211.95 48.85 212.22 48.19 212.48 47.54 C 213.05 46.31 213.11 44.52 211.96 43.60 L 211.48 43.13 C 212.79 42.67 213.29 41.79 212.98 40.49 L 212.74 39.50 C 215.29 39.95 214.21 36.27 212.29 37.97 C 211.78 37.46 210.75 36.45 210.24 35.95 C 210.30 35.55 210.43 34.75 210.49 34.35 L 210.51 33.21 M 211.73 35.15 C 213.50 36.13 215.27 37.12 217.03 38.12 C 217.01 37.34 216.98 35.78 216.96 35.00 C 215.22 35.05 213.47 35.10 211.73 35.15 Z" />
</g>
<g id="#525548ff">
<path fill="#525548" opacity="1.00" d=" M 44.46 0.00 L 48.22 0.00 C 47.59 0.64 47.01 1.33 46.50 2.07 C 47.91 2.16 49.39 2.04 50.59 1.22 C 50.58 2.42 50.51 3.61 50.38 4.80 C 47.96 4.82 45.54 4.85 43.12 4.91 C 43.42 4.02 43.74 3.13 44.10 2.26 C 44.19 1.70 44.37 0.57 44.46 0.00 Z" />
<path fill="#525548" opacity="1.00" d=" M 101.18 0.00 L 104.18 0.00 C 103.56 0.64 103.00 1.33 102.50 2.08 C 103.90 2.15 105.38 2.04 106.58 1.22 C 106.58 2.45 106.49 3.68 106.37 4.90 C 103.90 4.79 101.43 4.69 98.95 4.61 L 98.95 3.87 C 100.02 2.79 100.89 1.52 101.18 0.00 Z" />
<path fill="#525548" opacity="1.00" d=" M 156.82 0.00 L 160.21 0.00 C 159.58 0.64 159.01 1.33 158.51 2.07 C 159.91 2.16 161.39 2.04 162.59 1.22 C 162.58 2.44 162.51 3.65 162.37 4.86 C 160.08 4.82 157.79 4.80 155.50 4.79 C 155.43 3.99 155.37 3.19 155.32 2.39 C 155.70 1.79 156.45 0.60 156.82 0.00 Z" />
<path fill="#525548" opacity="1.00" d=" M 213.18 0.00 L 216.19 0.00 C 215.56 0.64 215.00 1.33 214.50 2.08 C 215.90 2.15 217.38 2.03 218.58 1.22 C 218.58 2.45 218.49 3.68 218.37 4.90 C 215.90 4.79 213.43 4.69 210.95 4.61 L 210.95 3.87 C 212.01 2.79 212.89 1.52 213.18 0.00 Z" />
<path fill="#525548" opacity="1.00" d=" M 8.33 27.48 C 9.89 28.33 11.44 29.17 13.00 30.03 C 13.06 30.98 13.10 31.93 13.14 32.88 C 10.66 32.83 8.19 32.81 5.72 32.81 C 5.54 31.59 5.37 30.37 5.17 29.15 C 6.70 29.63 8.25 30.06 9.79 30.49 C 9.31 29.49 8.82 28.49 8.33 27.48 Z" />
<path fill="#525548" opacity="1.00" d=" M 42.93 30.03 C 43.89 29.53 44.86 29.04 45.82 28.54 C 47.15 29.01 48.50 29.43 49.86 29.80 C 50.39 29.94 51.46 30.23 51.99 30.37 C 51.38 31.13 50.80 31.92 50.26 32.73 C 47.79 32.78 45.31 32.84 42.83 32.96 C 42.88 31.98 42.91 31.01 42.93 30.03 Z" />
<path fill="#525548" opacity="1.00" d=" M 64.80 27.10 C 66.46 28.78 68.08 30.50 69.58 32.32 L 69.44 33.19 C 66.78 32.97 64.11 32.86 61.45 32.81 C 61.16 31.88 60.85 30.95 60.53 30.02 L 61.09 29.73 C 61.39 29.75 62.00 29.79 62.30 29.81 C 63.39 29.93 64.48 30.06 65.57 30.19 C 65.31 29.16 65.05 28.13 64.80 27.10 Z" />
<path fill="#525548" opacity="1.00" d=" M 98.51 32.57 C 99.56 31.22 100.59 29.83 101.63 28.47 C 103.03 28.94 104.43 29.39 105.86 29.79 C 106.39 29.95 107.45 30.25 107.97 30.40 C 107.37 31.16 106.80 31.95 106.26 32.76 C 103.58 32.73 100.91 32.78 98.23 32.91 L 98.51 32.57 Z" />
<path fill="#525548" opacity="1.00" d=" M 120.33 27.50 C 121.89 28.33 123.45 29.17 124.99 30.02 C 125.08 30.63 125.26 31.85 125.35 32.46 L 125.22 33.01 C 122.64 32.88 120.04 32.84 117.45 32.87 C 117.16 31.91 116.85 30.96 116.53 30.02 L 117.09 29.73 C 117.39 29.75 117.99 29.78 118.29 29.80 C 119.43 29.92 120.58 30.04 121.72 30.16 C 121.26 29.27 120.79 28.39 120.33 27.50 Z" />
<path fill="#525548" opacity="1.00" d=" M 154.85 30.02 C 155.83 29.53 156.83 29.03 157.82 28.54 C 159.15 29.00 160.50 29.41 161.85 29.80 C 162.38 29.94 163.45 30.24 163.98 30.38 C 163.37 31.14 162.80 31.92 162.26 32.72 C 159.76 32.78 157.26 32.88 154.76 33.05 L 154.65 32.46 C 154.70 31.85 154.80 30.63 154.85 30.02 Z" />
<path fill="#525548" opacity="1.00" d=" M 176.80 27.10 C 178.46 28.78 180.08 30.50 181.58 32.32 L 181.44 33.19 C 178.78 32.97 176.11 32.86 173.45 32.81 C 173.15 31.88 172.85 30.95 172.53 30.02 L 173.09 29.73 C 173.39 29.75 174.00 29.79 174.30 29.81 C 175.39 29.93 176.47 30.06 177.57 30.19 C 177.31 29.16 177.05 28.13 176.80 27.10 Z" />
<path fill="#525548" opacity="1.00" d=" M 210.51 32.47 C 211.58 30.81 212.75 29.21 213.91 27.61 C 214.09 28.16 214.44 29.26 214.62 29.81 C 215.91 29.66 217.21 29.51 218.51 29.37 C 218.49 30.49 218.41 31.62 218.31 32.74 C 215.70 32.82 213.10 32.97 210.51 33.21 L 210.51 32.47 Z" />
</g>
<g id="#84ae60ff">
<path fill="#84ae60" opacity="1.00" d=" M 50.51 0.00 L 57.62 0.00 C 56.36 1.73 55.22 3.55 54.20 5.44 C 55.70 5.19 57.20 4.93 58.70 4.66 C 57.67 10.51 58.21 16.47 61.47 21.66 C 61.65 22.04 62.01 22.80 62.20 23.18 C 59.93 23.77 57.77 24.68 55.66 25.66 C 53.80 24.91 51.90 24.23 49.95 23.76 L 50.45 23.24 C 50.80 23.12 51.49 22.89 51.84 22.78 C 52.90 22.44 54.96 21.93 54.53 20.42 C 53.41 19.45 51.88 20.58 51.17 21.52 C 50.76 20.04 50.32 18.51 50.59 16.96 C 52.40 15.66 54.33 14.52 56.28 13.42 C 55.39 12.57 54.51 11.72 53.64 10.86 C 54.29 10.50 55.60 9.77 56.26 9.41 C 54.69 9.81 53.13 10.24 51.58 10.70 C 51.94 8.43 52.35 6.17 52.79 3.91 C 51.94 4.57 51.10 5.24 50.25 5.90 L 50.38 4.80 C 50.51 3.61 50.58 2.42 50.59 1.22 C 50.57 0.92 50.53 0.31 50.51 0.00 M 57.17 20.23 C 55.50 21.08 57.39 23.14 58.69 22.26 C 60.34 21.46 58.41 19.40 57.17 20.23 Z" />
<path fill="#84ae60" opacity="1.00" d=" M 106.49 0.00 L 113.62 0.00 C 112.36 1.73 111.22 3.55 110.20 5.44 C 111.70 5.19 113.20 4.93 114.70 4.66 C 113.67 10.51 114.21 16.46 117.47 21.65 C 117.65 22.03 118.02 22.80 118.20 23.18 C 115.93 23.77 113.77 24.68 111.66 25.66 C 109.79 24.91 107.90 24.23 105.94 23.76 L 106.44 23.25 C 106.79 23.13 107.49 22.90 107.84 22.78 C 108.90 22.44 110.95 21.93 110.53 20.42 C 109.41 19.45 107.88 20.58 107.17 21.53 C 106.76 20.05 106.32 18.51 106.59 16.96 C 108.41 15.66 110.33 14.52 112.28 13.42 C 111.39 12.57 110.51 11.72 109.64 10.86 C 110.29 10.50 111.60 9.77 112.26 9.41 C 110.69 9.81 109.13 10.24 107.58 10.70 C 107.93 8.42 108.35 6.16 108.79 3.90 C 107.94 4.58 107.09 5.26 106.25 5.94 L 106.37 4.90 C 106.49 3.68 106.58 2.45 106.58 1.22 C 106.56 0.92 106.51 0.31 106.49 0.00 M 113.17 20.23 C 111.50 21.08 113.39 23.14 114.69 22.26 C 116.34 21.46 114.41 19.40 113.17 20.23 Z" />
<path fill="#84ae60" opacity="1.00" d=" M 162.51 0.00 L 169.62 0.00 C 168.35 1.73 167.22 3.55 166.20 5.44 C 167.70 5.19 169.20 4.93 170.70 4.66 C 169.67 10.51 170.21 16.47 173.47 21.66 C 173.65 22.04 174.01 22.80 174.20 23.18 C 171.93 23.77 169.77 24.68 167.66 25.66 C 165.80 24.91 163.90 24.23 161.95 23.75 L 162.45 23.24 C 162.80 23.13 163.50 22.89 163.84 22.78 C 164.90 22.44 166.95 21.93 166.53 20.42 C 165.41 19.45 163.88 20.58 163.17 21.53 C 162.76 20.05 162.32 18.51 162.59 16.96 C 164.41 15.66 166.32 14.52 168.28 13.42 C 167.39 12.57 166.51 11.72 165.64 10.86 C 166.29 10.50 167.60 9.77 168.26 9.41 C 166.69 9.81 165.13 10.24 163.58 10.70 C 163.93 8.43 164.35 6.16 164.79 3.91 C 163.94 4.58 163.10 5.25 162.25 5.92 L 162.37 4.86 C 162.51 3.65 162.58 2.44 162.59 1.22 C 162.57 0.92 162.53 0.31 162.51 0.00 M 169.17 20.23 C 167.50 21.08 169.39 23.14 170.69 22.26 C 172.33 21.46 170.41 19.40 169.17 20.23 Z" />
</g>
<g id="#6c9a59ff">
<path fill="#6c9a59" opacity="1.00" d=" M 57.62 0.00 L 62.88 0.00 C 61.97 7.20 63.07 14.51 61.47 21.66 C 58.21 16.47 57.67 10.51 58.70 4.66 C 57.20 4.93 55.70 5.19 54.20 5.44 C 55.22 3.55 56.36 1.73 57.62 0.00 M 59.40 3.15 C 58.97 4.55 59.45 5.03 60.85 4.60 C 61.29 3.20 60.80 2.71 59.40 3.15 Z" />
<path fill="#6c9a59" opacity="1.00" d=" M 113.62 0.00 L 118.89 0.00 C 117.96 7.19 119.07 14.50 117.47 21.65 C 114.21 16.46 113.67 10.51 114.70 4.66 C 113.20 4.93 111.70 5.19 110.20 5.44 C 111.22 3.55 112.36 1.73 113.62 0.00 M 115.40 3.15 C 114.97 4.55 115.45 5.03 116.85 4.60 C 117.29 3.20 116.80 2.71 115.40 3.15 Z" />
<path fill="#6c9a59" opacity="1.00" d=" M 169.62 0.00 L 174.88 0.00 C 173.97 7.20 175.07 14.51 173.47 21.66 C 170.21 16.47 169.67 10.51 170.70 4.66 C 169.20 4.93 167.70 5.19 166.20 5.44 C 167.22 3.55 168.35 1.73 169.62 0.00 M 171.40 3.15 C 170.97 4.55 171.45 5.03 172.85 4.60 C 173.29 3.20 172.80 2.71 171.40 3.15 Z" />
</g>
<g id="#565248fe">
<path fill="#565248" opacity="1.00" d=" M 65.65 0.00 L 67.26 0.00 C 67.68 0.24 68.51 0.71 68.93 0.94 C 68.23 2.06 67.97 3.27 68.16 4.56 C 67.09 4.46 66.02 4.37 64.96 4.29 C 65.18 2.86 65.42 1.43 65.65 0.00 Z" />
<path fill="#565248" opacity="1.00" d=" M 122.31 0.00 L 124.26 0.00 C 124.41 0.69 124.71 2.06 124.86 2.74 C 124.62 3.25 124.16 4.28 123.93 4.79 C 122.82 4.59 121.70 4.40 120.59 4.22 C 121.14 2.80 121.69 1.39 122.31 0.00 Z" />
<path fill="#565248" opacity="1.00" d=" M 177.65 0.00 L 179.26 0.00 C 179.68 0.24 180.51 0.71 180.93 0.94 C 180.23 2.06 179.97 3.27 180.16 4.56 C 179.09 4.46 178.02 4.37 176.96 4.29 C 177.18 2.86 177.42 1.43 177.65 0.00 Z" />
</g>
<g id="#437acaff">
<path fill="#437aca" opacity="1.00" d=" M 91.77 0.00 L 92.19 0.00 C 92.61 1.98 92.99 3.98 93.41 5.96 C 89.19 8.09 85.86 11.47 83.14 15.28 C 81.30 7.76 89.70 5.88 91.77 0.00 Z" />
<path fill="#437aca" opacity="1.00" d=" M 203.77 0.00 L 204.19 0.00 C 204.61 1.98 204.99 3.98 205.41 5.96 C 201.18 8.09 197.86 11.47 195.14 15.28 C 193.30 7.76 201.70 5.88 203.77 0.00 Z" />
</g>
<g id="#298ed7ff">
<path fill="#298ed7" opacity="1.00" d=" M 97.42 0.00 L 99.61 0.00 C 98.89 1.18 98.67 2.47 98.95 3.87 L 98.95 4.61 C 98.96 6.32 98.97 8.03 98.98 9.74 C 98.72 10.95 99.64 12.30 100.98 12.04 C 100.39 13.23 99.83 14.43 99.24 15.62 C 98.27 16.89 98.88 18.97 100.44 19.43 C 100.11 20.68 99.82 21.93 99.56 23.20 C 99.50 23.61 99.38 24.43 99.32 24.84 L 99.24 25.60 C 99.00 27.92 98.76 30.25 98.51 32.57 C 96.60 21.86 95.74 10.81 97.42 0.00 Z" />
<path fill="#298ed7" opacity="1.00" d=" M 209.42 0.00 L 211.61 0.00 C 210.89 1.18 210.67 2.47 210.95 3.87 L 210.95 4.61 C 210.96 6.32 210.97 8.03 210.98 9.74 C 210.71 10.95 211.64 12.30 212.98 12.04 C 212.39 13.23 211.82 14.43 211.24 15.62 C 210.27 16.89 210.89 18.97 212.45 19.43 C 212.12 20.68 211.85 21.95 211.59 23.21 C 211.53 23.62 211.41 24.43 211.35 24.83 L 211.25 25.59 C 211.00 27.88 210.76 30.18 210.51 32.47 C 208.76 21.77 207.65 10.78 209.42 0.00 Z" />
</g>
<g id="#5c6268ff">
<path fill="#5c6268" opacity="1.00" d=" M 99.61 0.00 L 101.18 0.00 C 100.89 1.52 100.02 2.79 98.95 3.87 C 98.67 2.47 98.89 1.18 99.61 0.00 Z" />
<path fill="#5c6268" opacity="1.00" d=" M 211.61 0.00 L 213.18 0.00 C 212.89 1.52 212.01 2.79 210.95 3.87 C 210.67 2.47 210.89 1.18 211.61 0.00 Z" />
</g>
<g id="#4476cbff">
<path fill="#4476cb" opacity="1.00" d=" M 138.31 0.00 L 141.34 0.00 C 139.79 1.69 138.44 3.60 136.60 5.00 C 133.80 4.62 131.25 3.25 128.64 2.24 C 131.10 2.15 133.56 2.20 136.02 2.26 C 136.59 1.70 137.74 0.57 138.31 0.00 Z" />
<path fill="#4476cb" opacity="1.00" d=" M 72.77 3.07 C 76.80 3.28 81.01 3.69 84.69 1.64 C 83.46 3.36 82.17 5.04 80.85 6.70 C 78.18 5.44 75.47 4.28 72.77 3.07 Z" />
<path fill="#4476cb" opacity="1.00" d=" M 184.77 3.07 C 188.80 3.28 193.00 3.69 196.69 1.64 C 195.46 3.36 194.17 5.04 192.85 6.70 C 190.18 5.44 187.47 4.28 184.77 3.07 Z" />
</g>
<g id="#457bcbff">
<path fill="#457bcb" opacity="1.00" d=" M 149.26 0.00 L 149.32 0.00 C 149.69 1.74 150.09 3.47 150.49 5.20 C 145.45 6.72 141.43 10.21 139.84 15.29 C 139.75 12.44 139.75 9.58 139.92 6.73 C 143.57 5.33 146.84 3.10 149.26 0.00 Z" />
</g>
<g id="#288ed7ff">
<path fill="#288ed7" opacity="1.00" d=" M 153.42 0.00 L 155.22 0.00 C 155.24 0.60 155.30 1.79 155.32 2.39 C 155.37 3.19 155.43 3.99 155.50 4.79 C 155.67 6.63 155.91 8.46 156.29 10.27 C 156.50 10.65 156.92 11.40 157.13 11.77 C 156.29 15.54 156.04 19.40 155.56 23.23 C 155.52 23.64 155.43 24.47 155.39 24.88 L 155.30 25.64 C 155.13 27.10 154.98 28.56 154.85 30.02 C 154.80 30.63 154.70 31.85 154.65 32.46 C 152.54 21.81 151.76 10.78 153.42 0.00 Z" />
</g>
<g id="#7da960ff">
<path fill="#7da960" opacity="1.00" d=" M 218.50 0.00 L 224.00 0.00 L 224.00 8.20 C 222.56 9.25 221.08 10.25 219.61 11.25 C 219.92 8.79 220.30 6.34 220.75 3.91 C 219.91 4.59 219.08 5.27 218.25 5.95 L 218.37 4.90 C 218.49 3.68 218.58 2.45 218.58 1.22 C 218.56 0.92 218.52 0.31 218.50 0.00 Z" />
</g>
<g id="#a0b6cbff">
<path fill="#a0b6cb" opacity="1.00" d=" M 12.92 0.81 C 13.37 1.30 14.26 2.29 14.71 2.78 L 14.74 3.40 C 14.47 3.68 13.91 4.24 13.64 4.52 C 13.29 4.49 12.61 4.44 12.27 4.42 C 12.13 3.15 12.34 1.95 12.92 0.81 Z" />
<path fill="#a0b6cb" opacity="1.00" d=" M 68.93 0.94 C 69.89 1.46 70.35 2.29 70.30 3.42 C 70.10 3.74 69.70 4.39 69.50 4.71 C 69.16 4.67 68.49 4.60 68.16 4.56 C 67.97 3.27 68.23 2.06 68.93 0.94 Z" />
<path fill="#a0b6cb" opacity="1.00" d=" M 180.93 0.94 C 181.89 1.46 182.35 2.29 182.30 3.42 C 182.10 3.74 181.70 4.39 181.50 4.71 C 181.16 4.67 180.49 4.60 180.16 4.56 C 179.97 3.27 180.23 2.06 180.93 0.94 Z" />
</g>
<g id="#86a0b1ff">
<path fill="#86a0b1" opacity="1.00" d=" M 123.93 4.79 C 124.16 4.28 124.62 3.25 124.86 2.74 C 125.24 2.86 126.02 3.10 126.41 3.21 L 126.39 3.79 C 126.13 4.10 125.62 4.71 125.37 5.02 C 125.01 4.96 124.29 4.85 123.93 4.79 Z" />
<path fill="#86a0b1" opacity="1.00" d=" M 98.98 9.74 C 99.36 9.74 100.12 9.73 100.50 9.72 C 100.70 10.14 101.10 10.98 101.30 11.40 L 100.98 12.04 C 99.64 12.30 98.72 10.95 98.98 9.74 Z" />
<path fill="#86a0b1" opacity="1.00" d=" M 210.98 9.74 C 211.36 9.74 212.12 9.73 212.50 9.72 C 212.70 10.14 213.10 10.98 213.31 11.40 L 212.98 12.04 C 211.64 12.30 210.71 10.95 210.98 9.74 Z" />
<path fill="#86a0b1" opacity="1.00" d=" M 100.44 19.43 C 98.88 18.97 98.27 16.89 99.24 15.62 C 100.80 16.16 101.04 18.09 100.44 19.43 Z" />
<path fill="#86a0b1" opacity="1.00" d=" M 212.45 19.43 C 210.89 18.97 210.27 16.89 211.24 15.62 C 212.80 16.16 213.04 18.09 212.45 19.43 Z" />
<path fill="#86a0b1" opacity="1.00" d=" M 41.85 21.21 L 42.55 21.57 C 42.80 22.00 43.31 22.87 43.57 23.30 C 43.54 23.72 43.50 24.55 43.47 24.97 L 42.98 25.47 C 42.37 24.60 41.90 23.67 41.56 22.67 C 41.63 22.30 41.78 21.58 41.85 21.21 Z" />
<path fill="#86a0b1" opacity="1.00" d=" M 124.05 22.75 C 124.49 22.64 125.38 22.44 125.82 22.34 C 126.84 23.62 124.96 25.07 124.08 23.58 L 124.05 22.75 Z" />
<path fill="#86a0b1" opacity="1.00" d=" M 155.56 23.23 L 156.18 22.73 C 156.47 23.02 157.04 23.61 157.33 23.90 L 157.18 24.66 C 156.73 24.71 155.84 24.82 155.39 24.88 C 155.43 24.47 155.52 23.64 155.56 23.23 Z" />
<path fill="#86a0b1" opacity="1.00" d=" M 68.03 43.66 C 68.49 44.06 69.43 44.87 69.90 45.27 C 69.32 46.17 68.56 46.90 67.62 47.45 C 67.13 46.22 67.11 44.72 68.03 43.66 Z" />
<path fill="#86a0b1" opacity="1.00" d=" M 100.45 47.54 C 98.51 47.10 97.94 44.46 99.93 43.63 C 101.12 44.51 101.09 46.33 100.45 47.54 Z" />
<path fill="#86a0b1" opacity="1.00" d=" M 180.03 43.66 C 180.49 44.06 181.43 44.87 181.90 45.27 C 181.32 46.17 180.56 46.90 179.62 47.45 C 179.13 46.22 179.11 44.72 180.03 43.66 Z" />
<path fill="#86a0b1" opacity="1.00" d=" M 212.48 47.54 C 210.50 47.10 209.94 44.43 211.96 43.60 C 213.11 44.52 213.05 46.31 212.48 47.54 Z" />
</g>
<g id="#87b05cff">
<path fill="#87b05c" opacity="1.00" d=" M 3.40 3.15 C 4.80 2.71 5.29 3.20 4.85 4.60 C 3.45 5.03 2.97 4.55 3.40 3.15 Z" />
<path fill="#87b05c" opacity="1.00" d=" M 59.40 3.15 C 60.80 2.71 61.29 3.20 60.85 4.60 C 59.45 5.03 58.97 4.55 59.40 3.15 Z" />
<path fill="#87b05c" opacity="1.00" d=" M 115.40 3.15 C 116.80 2.71 117.29 3.20 116.85 4.60 C 115.45 5.03 114.97 4.55 115.40 3.15 Z" />
<path fill="#87b05c" opacity="1.00" d=" M 171.40 3.15 C 172.80 2.71 173.29 3.20 172.85 4.60 C 171.45 5.03 170.97 4.55 171.40 3.15 Z" />
</g>
<g id="#86b05fff">
<path fill="#86b05f" opacity="1.00" d=" M 2.04 3.28 C 2.48 9.56 1.63 16.08 5.45 21.66 C 5.72 22.20 6.26 23.28 6.53 23.83 C 5.27 23.49 3.99 23.20 2.72 22.90 C 2.50 23.83 2.28 24.76 2.07 25.69 C 1.38 25.15 0.69 24.60 0.00 24.06 L 0.00 6.55 C 0.51 5.73 1.53 4.10 2.04 3.28 M 1.29 20.54 C 0.43 21.76 2.53 23.04 3.32 21.85 C 4.15 20.65 2.07 19.37 1.29 20.54 Z" />
</g>
<g id="#2f8bd3fe">
<path fill="#2f8bd3" opacity="1.00" d=" M 14.74 3.40 C 15.36 7.44 15.88 11.59 14.95 15.63 C 14.45 15.42 13.45 14.99 12.95 14.78 C 13.29 12.49 13.60 10.20 13.90 7.91 C 13.00 8.63 12.10 9.36 11.19 10.08 C 11.81 8.14 12.66 6.29 13.64 4.52 C 13.91 4.24 14.47 3.68 14.74 3.40 Z" />
</g>
<g id="#322f2cff">
<path fill="#322f2c" opacity="1.00" d=" M 43.12 4.91 C 45.54 4.85 47.96 4.82 50.38 4.80 L 50.25 5.90 C 49.79 11.55 48.11 16.95 46.62 22.38 C 46.01 22.50 44.79 22.72 44.17 22.84 L 43.57 23.30 C 43.31 22.87 42.80 22.00 42.55 21.57 C 42.81 21.02 43.32 19.92 43.58 19.37 C 44.17 18.29 44.33 17.05 44.34 15.84 C 44.41 14.63 44.52 13.42 44.62 12.21 L 44.68 11.37 C 47.17 11.75 46.53 8.73 44.35 9.60 C 43.89 9.39 42.98 8.97 42.53 8.77 C 42.56 8.42 42.63 7.73 42.66 7.39 C 42.77 6.77 43.01 5.53 43.12 4.91 M 43.73 7.15 C 45.50 8.13 47.27 9.12 49.03 10.12 C 49.01 9.34 48.98 7.78 48.96 7.00 C 47.22 7.05 45.47 7.10 43.73 7.15 Z" />
<path fill="#322f2c" opacity="1.00" d=" M 98.95 4.61 C 101.43 4.69 103.90 4.79 106.37 4.90 L 106.25 5.94 C 105.78 11.56 104.12 16.92 102.62 22.31 C 102.01 22.41 100.80 22.62 100.19 22.72 L 99.56 23.20 C 99.82 21.93 100.11 20.68 100.44 19.43 C 101.04 18.09 100.80 16.16 99.24 15.62 C 99.83 14.43 100.39 13.23 100.98 12.04 L 101.30 11.40 C 103.79 11.17 102.36 8.46 100.50 9.72 C 100.12 9.73 99.36 9.74 98.98 9.74 C 98.97 8.03 98.96 6.32 98.95 4.61 M 99.73 7.15 C 101.50 8.13 103.27 9.12 105.03 10.12 C 105.01 9.34 104.98 7.78 104.96 7.00 C 103.22 7.05 101.47 7.10 99.73 7.15 Z" />
<path fill="#322f2c" opacity="1.00" d=" M 155.50 4.79 C 157.79 4.80 160.08 4.82 162.37 4.86 L 162.25 5.92 C 161.78 11.54 160.12 16.91 158.63 22.30 C 158.01 22.41 156.79 22.63 156.18 22.73 L 155.56 23.23 C 156.04 19.40 156.29 15.54 157.13 11.77 C 159.20 10.98 157.68 8.13 156.29 10.27 C 155.91 8.46 155.67 6.63 155.50 4.79 M 155.73 7.15 C 157.50 8.13 159.27 9.12 161.03 10.12 C 161.01 9.34 160.98 7.78 160.96 7.00 C 159.22 7.05 157.47 7.10 155.73 7.15 Z" />
<path fill="#322f2c" opacity="1.00" d=" M 210.95 4.61 C 213.43 4.69 215.90 4.79 218.37 4.90 L 218.25 5.95 C 217.76 11.57 216.11 16.95 214.63 22.35 C 214.03 22.45 212.82 22.65 212.22 22.75 L 211.59 23.21 C 211.85 21.95 212.12 20.68 212.45 19.43 C 213.04 18.09 212.80 16.16 211.24 15.62 C 211.82 14.43 212.39 13.23 212.98 12.04 L 213.31 11.40 C 215.79 11.17 214.35 8.46 212.50 9.72 C 212.12 9.73 211.36 9.74 210.98 9.74 C 210.97 8.03 210.96 6.32 210.95 4.61 M 211.73 7.15 C 213.50 8.13 215.27 9.12 217.03 10.12 C 217.01 9.34 216.98 7.78 216.96 7.00 C 215.22 7.05 213.47 7.10 211.73 7.15 Z" />
</g>
<g id="#4f6048ff">
<path fill="#4f6048" opacity="1.00" d=" M 50.25 5.90 C 51.10 5.24 51.94 4.57 52.79 3.91 C 52.35 6.17 51.94 8.43 51.58 10.70 C 51.27 12.79 50.82 14.86 50.59 16.96 C 50.32 18.51 50.76 20.04 51.17 21.52 C 51.34 21.84 51.68 22.46 51.84 22.78 C 51.49 22.89 50.80 23.12 50.45 23.24 L 50.23 22.69 C 50.39 19.76 45.98 19.79 48.54 22.49 C 48.02 22.66 46.99 22.98 46.48 23.15 L 46.62 22.38 C 48.11 16.95 49.79 11.55 50.25 5.90 Z" />
<path fill="#4f6048" opacity="1.00" d=" M 106.25 5.94 C 107.09 5.26 107.94 4.58 108.79 3.90 C 108.35 6.16 107.93 8.42 107.58 10.70 C 107.27 12.79 106.82 14.86 106.59 16.96 C 106.32 18.51 106.76 20.05 107.17 21.53 C 107.34 21.84 107.68 22.47 107.84 22.78 C 107.49 22.90 106.79 23.13 106.44 23.25 L 106.22 22.70 C 106.41 19.77 101.98 19.76 104.53 22.48 C 104.02 22.63 102.98 22.93 102.47 23.08 L 102.62 22.31 C 104.12 16.92 105.78 11.56 106.25 5.94 Z" />
<path fill="#4f6048" opacity="1.00" d=" M 162.25 5.92 C 163.10 5.25 163.94 4.58 164.79 3.91 C 164.35 6.16 163.93 8.43 163.58 10.70 C 163.27 12.79 162.82 14.86 162.59 16.96 C 162.32 18.51 162.76 20.05 163.17 21.53 C 163.34 21.84 163.68 22.47 163.84 22.78 C 163.50 22.89 162.80 23.13 162.45 23.24 L 162.23 22.69 C 162.41 19.77 157.97 19.76 160.54 22.47 C 160.02 22.62 159.00 22.92 158.48 23.07 L 158.63 22.30 C 160.12 16.91 161.78 11.54 162.25 5.92 Z" />
<path fill="#4f6048" opacity="1.00" d=" M 218.25 5.95 C 219.08 5.27 219.91 4.59 220.75 3.91 C 220.30 6.34 219.92 8.79 219.61 11.25 C 219.35 13.18 219.04 15.10 218.77 17.03 C 218.42 19.04 218.28 21.09 217.85 23.09 L 217.82 22.64 C 218.68 19.60 214.14 19.72 216.33 22.49 C 215.87 22.65 214.95 22.97 214.49 23.13 L 214.63 22.35 C 216.11 16.95 217.76 11.57 218.25 5.95 Z" />
</g>
<g id="#2c8ed7ff">
<path fill="#2c8ed7" opacity="1.00" d=" M 70.30 3.42 C 70.67 10.29 71.30 17.20 70.73 24.08 C 70.58 23.68 70.28 22.89 70.14 22.50 C 69.88 21.83 69.36 20.48 69.11 19.81 C 68.44 18.00 67.77 16.19 67.15 14.37 C 69.66 15.54 69.31 11.87 67.09 12.05 C 67.69 9.55 68.42 7.06 69.50 4.71 C 69.70 4.39 70.10 3.74 70.30 3.42 Z" />
<path fill="#2c8ed7" opacity="1.00" d=" M 182.30 3.42 C 182.67 10.29 183.30 17.20 182.73 24.08 C 182.58 23.68 182.28 22.89 182.14 22.50 C 181.88 21.83 181.36 20.48 181.11 19.81 C 180.44 18.00 179.77 16.19 179.15 14.37 C 181.66 15.54 181.30 11.87 179.09 12.05 C 179.69 9.55 180.42 7.06 181.50 4.71 C 181.70 4.39 182.10 3.74 182.30 3.42 Z" />
</g>
<g id="#2a8dd6fe">
<path fill="#2a8dd6" opacity="1.00" d=" M 126.39 3.79 C 126.50 13.35 128.16 23.11 125.35 32.46 C 125.26 31.85 125.08 30.63 124.99 30.02 C 124.65 27.88 124.29 25.74 124.08 23.58 C 124.96 25.07 126.84 23.62 125.82 22.34 C 125.53 21.47 125.24 20.60 124.95 19.73 C 124.44 18.20 123.91 16.67 123.35 15.16 C 125.35 14.97 124.86 12.23 123.16 11.94 C 123.73 9.59 124.37 7.23 125.37 5.02 C 125.62 4.71 126.13 4.10 126.39 3.79 Z" />
</g>
<g id="#a5bbd1ff">
<path fill="#a5bbd1" opacity="1.00" d=" M 11.19 10.08 C 12.10 9.36 13.00 8.63 13.90 7.91 C 13.60 10.20 13.29 12.49 12.95 14.78 C 12.52 14.60 11.66 14.23 11.23 14.05 C 11.16 12.73 11.15 11.40 11.19 10.08 Z" />
</g>
<g id="#7b9eb5ff">
<path fill="#7b9eb5" opacity="1.00" d=" M 39.67 8.14 C 40.62 8.36 41.57 8.57 42.53 8.77 C 42.98 8.97 43.89 9.39 44.35 9.60 C 44.43 10.04 44.60 10.93 44.68 11.37 L 44.62 12.21 C 43.76 11.48 42.90 10.75 42.03 10.03 C 41.25 9.39 40.47 8.76 39.67 8.14 Z" />
<path fill="#7b9eb5" opacity="1.00" d=" M 12.61 36.38 C 13.87 36.33 15.12 36.29 16.38 36.28 C 15.61 36.90 14.84 37.52 14.06 38.14 C 13.11 38.90 12.15 39.66 11.20 40.42 L 11.09 39.77 C 11.26 39.39 11.61 38.63 11.79 38.25 C 11.99 37.78 12.40 36.85 12.61 36.38 Z" />
<path fill="#7b9eb5" opacity="1.00" d=" M 39.63 36.06 C 40.65 36.34 41.66 36.62 42.68 36.89 C 43.10 37.07 43.94 37.44 44.36 37.62 C 44.43 38.06 44.59 38.94 44.67 39.38 L 44.60 40.26 C 43.73 39.53 42.86 38.80 42.00 38.07 C 41.21 37.40 40.42 36.73 39.63 36.06 Z" />
</g>
<g id="#6b995aff">
<path fill="#6b995a" opacity="1.00" d=" M 51.58 10.70 C 53.13 10.24 54.69 9.81 56.26 9.41 C 55.60 9.77 54.29 10.50 53.64 10.86 C 54.51 11.72 55.39 12.57 56.28 13.42 C 54.33 14.52 52.40 15.66 50.59 16.96 C 50.82 14.86 51.27 12.79 51.58 10.70 Z" />
<path fill="#6b995a" opacity="1.00" d=" M 107.58 10.70 C 109.13 10.24 110.69 9.81 112.26 9.41 C 111.60 9.77 110.29 10.50 109.64 10.86 C 110.51 11.72 111.39 12.57 112.28 13.42 C 110.33 14.52 108.41 15.66 106.59 16.96 C 106.82 14.86 107.27 12.79 107.58 10.70 Z" />
<path fill="#6b995a" opacity="1.00" d=" M 163.58 10.70 C 165.13 10.24 166.69 9.81 168.26 9.41 C 167.60 9.77 166.29 10.50 165.64 10.86 C 166.51 11.72 167.39 12.57 168.28 13.42 C 166.32 14.52 164.41 15.66 162.59 16.96 C 162.82 14.86 163.27 12.79 163.58 10.70 Z" />
<path fill="#6b995a" opacity="1.00" d=" M 219.61 11.25 C 221.08 10.25 222.56 9.25 224.00 8.20 L 224.00 10.76 C 221.00 8.45 220.82 14.19 224.00 12.36 L 224.00 12.81 C 222.24 14.20 220.42 15.52 218.77 17.03 C 219.04 15.10 219.35 13.18 219.61 11.25 Z" />
<path fill="#6b995a" opacity="1.00" d=" M 219.59 39.26 C 221.07 38.24 222.56 37.24 224.00 36.18 L 224.00 38.77 C 221.00 36.44 220.81 42.19 224.00 40.37 L 224.00 40.86 C 222.18 42.23 220.31 43.54 218.59 45.04 C 218.90 43.11 219.30 41.19 219.59 39.26 Z" />
</g>
<g id="#3490d2ff">
<path fill="#3490d2" opacity="1.00" d=" M 42.03 10.03 C 42.90 10.75 43.76 11.48 44.62 12.21 C 44.52 13.42 44.41 14.63 44.34 15.84 C 43.60 15.96 42.13 16.20 41.39 16.32 C 41.55 14.75 41.87 11.60 42.03 10.03 Z" />
<path fill="#3490d2" opacity="1.00" d=" M 11.20 40.42 C 12.15 39.66 13.11 38.90 14.06 38.14 C 14.21 39.71 14.51 42.86 14.66 44.43 C 13.93 44.30 12.47 44.05 11.75 43.92 C 11.59 42.75 11.39 41.59 11.20 40.42 Z" />
<path fill="#3490d2" opacity="1.00" d=" M 42.00 38.07 C 42.86 38.80 43.73 39.53 44.60 40.26 C 44.49 41.48 44.37 42.70 44.30 43.93 C 43.57 44.05 42.09 44.31 41.36 44.43 C 41.52 42.84 41.84 39.66 42.00 38.07 Z" />
</g>
<g id="#8db764ff">
<path fill="#8db764" opacity="1.00" d=" M 224.00 12.36 C 220.82 14.19 221.00 8.45 224.00 10.76 L 224.00 12.36 Z" />
<path fill="#8db764" opacity="1.00" d=" M 53.93 38.39 C 55.31 38.40 56.69 38.40 58.07 38.39 C 58.04 39.03 57.98 40.32 57.95 40.96 C 56.65 40.96 55.35 40.96 54.05 40.96 C 54.02 40.32 53.96 39.03 53.93 38.39 Z" />
<path fill="#8db764" opacity="1.00" d=" M 109.93 38.39 C 111.31 38.40 112.69 38.40 114.07 38.39 C 114.04 39.03 113.98 40.32 113.95 40.96 C 112.65 40.96 111.35 40.96 110.05 40.96 C 110.02 40.32 109.96 39.03 109.93 38.39 Z" />
<path fill="#8db764" opacity="1.00" d=" M 165.93 38.39 C 167.31 38.40 168.69 38.40 170.07 38.39 C 170.04 39.03 169.98 40.32 169.95 40.96 C 168.65 40.96 167.35 40.96 166.05 40.96 C 166.02 40.32 165.96 39.03 165.93 38.39 Z" />
<path fill="#8db764" opacity="1.00" d=" M 224.00 40.37 C 220.81 42.19 221.00 36.44 224.00 38.77 L 224.00 40.37 Z" />
</g>
<g id="#8bb5d9ff">
<path fill="#8bb5d9" opacity="1.00" d=" M 67.15 14.37 C 67.14 13.79 67.10 12.63 67.09 12.05 C 69.31 11.87 69.66 15.54 67.15 14.37 Z" />
<path fill="#8bb5d9" opacity="1.00" d=" M 179.15 14.37 C 179.14 13.79 179.10 12.63 179.09 12.05 C 181.30 11.87 181.66 15.54 179.15 14.37 Z" />
</g>
<g id="#6e9bbbff">
<path fill="#6e9bbb" opacity="1.00" d=" M 123.35 15.16 C 122.86 14.11 122.79 13.04 123.16 11.94 C 124.86 12.23 125.35 14.97 123.35 15.16 Z" />
</g>
<g id="#2a8ed7ff">
<path fill="#2a8ed7" opacity="1.00" d=" M 11.23 14.05 C 11.66 14.23 12.52 14.60 12.95 14.78 C 13.45 14.99 14.45 15.42 14.95 15.63 C 15.50 17.12 16.07 18.60 16.63 20.08 C 16.02 21.39 15.41 22.72 14.80 24.03 C 14.65 23.64 14.35 22.86 14.21 22.47 C 13.94 21.80 13.40 20.45 13.14 19.78 C 12.43 17.90 11.75 16.00 11.23 14.05 Z" />
</g>
<g id="#7ca85efe">
<path fill="#7ca85e" opacity="1.00" d=" M 218.77 17.03 C 220.42 15.52 222.24 14.20 224.00 12.81 L 224.00 36.18 C 222.56 37.24 221.07 38.24 219.59 39.26 C 219.95 36.81 220.34 34.37 220.77 31.93 C 219.90 32.57 219.04 33.21 218.18 33.86 L 218.31 32.74 C 218.41 31.62 218.49 30.49 218.51 29.37 C 218.52 28.89 218.53 27.92 218.54 27.44 L 218.55 26.88 C 218.22 26.26 217.55 25.01 217.22 24.39 C 217.38 24.06 217.69 23.42 217.85 23.09 C 218.28 21.09 218.42 19.04 218.77 17.03 Z" />
</g>
<g id="#4478cbff">
<path fill="#4478cb" opacity="1.00" d=" M 137.54 15.27 C 138.41 14.13 140.38 15.59 139.46 16.73 C 138.58 17.87 136.62 16.41 137.54 15.27 Z" />
</g>
<g id="#86a0b0fe">
<path fill="#86a0b0" opacity="1.00" d=" M 41.39 16.32 C 42.13 16.20 43.60 15.96 44.34 15.84 C 44.33 17.05 44.17 18.29 43.58 19.37 C 42.70 18.70 41.87 17.93 41.32 16.96 L 41.39 16.32 Z" />
<path fill="#86a0b0" opacity="1.00" d=" M 11.75 43.92 C 12.47 44.05 13.93 44.30 14.66 44.43 L 14.72 45.05 C 14.02 46.03 13.06 46.78 12.04 47.41 C 11.59 46.30 11.72 45.08 11.75 43.92 Z" />
<path fill="#86a0b0" opacity="1.00" d=" M 41.36 44.43 C 42.09 44.31 43.57 44.05 44.30 43.93 C 44.31 45.09 44.40 46.30 43.96 47.40 C 42.95 46.78 41.99 46.03 41.30 45.05 L 41.36 44.43 Z" />
</g>
<g id="#2889d5ff">
<path fill="#2889d5" opacity="1.00" d=" M 41.85 21.21 C 41.65 19.80 41.42 18.39 41.32 16.96 C 41.87 17.93 42.70 18.70 43.58 19.37 C 43.32 19.92 42.81 21.02 42.55 21.57 L 41.85 21.21 Z" />
</g>
<g id="#427acbff">
<path fill="#427acb" opacity="1.00" d=" M 22.31 18.01 C 26.19 20.03 29.15 23.26 31.75 26.70 C 26.52 25.35 21.56 28.35 18.80 32.69 C 22.73 34.41 27.46 37.36 31.68 34.67 C 34.25 33.26 33.06 29.91 33.19 27.56 C 34.94 30.23 36.67 32.94 38.83 35.32 L 39.06 35.60 C 36.46 36.49 32.82 36.19 31.47 39.01 C 29.32 43.38 25.93 46.90 22.61 50.40 C 21.83 48.98 21.04 47.56 20.24 46.14 C 22.89 44.66 26.35 43.50 27.25 40.24 C 24.42 37.36 20.28 36.40 16.38 36.28 C 15.12 36.29 13.87 36.33 12.61 36.38 C 12.75 36.07 13.02 35.44 13.15 35.12 C 13.38 34.61 13.83 33.57 14.06 33.06 C 15.08 33.89 16.09 34.73 17.10 35.58 C 17.67 33.18 18.07 30.76 18.36 28.32 C 21.51 27.19 24.63 26.00 27.73 24.76 C 25.96 22.48 24.12 20.26 22.31 18.01 Z" />
<path fill="#427acb" opacity="1.00" d=" M 135.30 24.85 C 137.62 23.37 140.44 21.23 143.31 22.64 C 147.68 24.52 149.15 29.36 151.02 33.34 C 147.50 34.79 142.28 35.46 141.63 40.05 C 141.12 43.13 138.94 45.29 136.22 46.64 C 137.13 43.90 138.82 41.26 138.78 38.31 C 136.58 35.29 131.96 35.65 128.80 34.02 C 129.14 33.10 129.49 32.18 129.85 31.26 C 136.03 33.63 145.29 36.22 148.87 28.65 C 145.72 28.24 142.56 27.88 139.39 27.59 C 140.85 27.02 143.76 25.89 145.22 25.32 C 144.13 24.68 143.05 24.06 141.95 23.45 C 139.76 24.02 137.54 24.50 135.30 24.85 Z" />
</g>
<g id="#67965dff">
<path fill="#67965d" opacity="1.00" d=" M 1.29 20.54 C 2.07 19.37 4.15 20.65 3.32 21.85 C 2.53 23.04 0.43 21.76 1.29 20.54 Z" />
</g>
<g id="#6c5e4cff">
<path fill="#6c5e4c" opacity="1.00" d=" M 9.46 20.20 C 10.38 20.10 12.22 19.89 13.14 19.78 C 13.40 20.45 13.94 21.80 14.21 22.47 C 13.58 22.57 12.33 22.76 11.71 22.86 C 11.21 22.92 10.21 23.05 9.72 23.11 C 9.64 22.14 9.55 21.17 9.46 20.20 Z" />
<path fill="#6c5e4c" opacity="1.00" d=" M 65.46 20.20 C 66.37 20.10 68.19 19.90 69.11 19.81 C 69.36 20.48 69.88 21.83 70.14 22.50 C 69.54 22.61 68.35 22.84 67.76 22.95 C 67.25 22.99 66.23 23.07 65.72 23.11 C 65.64 22.14 65.55 21.17 65.46 20.20 Z" />
<path fill="#6c5e4c" opacity="1.00" d=" M 121.47 20.20 C 122.34 20.09 124.08 19.85 124.95 19.73 C 125.24 20.60 125.53 21.47 125.82 22.34 C 125.38 22.44 124.49 22.64 124.05 22.75 C 123.47 22.85 122.31 23.07 121.74 23.17 C 121.65 22.18 121.56 21.19 121.47 20.20 Z" />
<path fill="#6c5e4c" opacity="1.00" d=" M 177.46 20.20 C 178.37 20.10 180.19 19.90 181.11 19.81 C 181.36 20.48 181.88 21.83 182.14 22.50 C 181.54 22.61 180.35 22.84 179.76 22.95 C 179.25 22.99 178.23 23.07 177.72 23.11 C 177.64 22.14 177.55 21.17 177.46 20.20 Z" />
</g>
<g id="#6c9855ff">
<path fill="#6c9855" opacity="1.00" d=" M 51.17 21.52 C 51.88 20.58 53.41 19.45 54.53 20.42 C 54.96 21.93 52.90 22.44 51.84 22.78 C 51.68 22.46 51.34 21.84 51.17 21.52 Z" />
<path fill="#6c9855" opacity="1.00" d=" M 107.17 21.53 C 107.88 20.58 109.41 19.45 110.53 20.42 C 110.95 21.93 108.90 22.44 107.84 22.78 C 107.68 22.47 107.34 21.84 107.17 21.53 Z" />
<path fill="#6c9855" opacity="1.00" d=" M 163.17 21.53 C 163.88 20.58 165.41 19.45 166.53 20.42 C 166.95 21.93 164.90 22.44 163.84 22.78 C 163.68 22.47 163.34 21.84 163.17 21.53 Z" />
</g>
<g id="#65955fff">
<path fill="#65955f" opacity="1.00" d=" M 57.17 20.23 C 58.41 19.40 60.34 21.46 58.69 22.26 C 57.39 23.14 55.50 21.08 57.17 20.23 Z" />
<path fill="#65955f" opacity="1.00" d=" M 113.17 20.23 C 114.41 19.40 116.34 21.46 114.69 22.26 C 113.39 23.14 111.50 21.08 113.17 20.23 Z" />
<path fill="#65955f" opacity="1.00" d=" M 169.17 20.23 C 170.41 19.40 172.33 21.46 170.69 22.26 C 169.39 23.14 167.50 21.08 169.17 20.23 Z" />
</g>
<g id="#332f2aff">
<path fill="#332f2a" opacity="1.00" d=" M 5.45 21.66 C 6.86 22.17 8.27 22.69 9.72 23.11 C 10.21 23.05 11.21 22.92 11.71 22.86 L 11.86 23.61 C 12.15 25.01 12.47 26.41 12.79 27.80 C 12.84 28.36 12.95 29.47 13.00 30.03 C 11.44 29.17 9.89 28.33 8.33 27.48 C 8.82 28.49 9.31 29.49 9.79 30.49 C 8.25 30.06 6.70 29.63 5.17 29.15 C 5.15 29.02 5.10 28.75 5.08 28.62 C 6.73 28.29 8.46 26.39 7.14 24.78 C 6.99 24.54 6.69 24.07 6.53 23.83 C 6.26 23.28 5.72 22.20 5.45 21.66 Z" />
<path fill="#332f2a" opacity="1.00" d=" M 117.47 21.65 C 118.88 22.18 120.29 22.73 121.74 23.17 C 122.31 23.07 123.47 22.85 124.05 22.75 L 124.08 23.58 C 124.29 25.74 124.65 27.88 124.99 30.02 C 123.45 29.17 121.89 28.33 120.33 27.50 C 120.79 28.39 121.26 29.27 121.72 30.16 C 120.58 30.04 119.43 29.92 118.29 29.80 C 118.05 29.55 117.58 29.05 117.34 28.80 C 118.93 28.03 119.94 26.04 118.83 24.46 C 118.67 24.14 118.36 23.50 118.20 23.18 C 118.02 22.80 117.65 22.03 117.47 21.65 Z" />
</g>
<g id="#383632ff">
<path fill="#383632" opacity="1.00" d=" M 61.47 21.66 C 62.88 22.17 64.29 22.69 65.72 23.11 C 66.23 23.07 67.25 22.99 67.76 22.95 L 67.90 23.74 C 68.40 26.61 69.00 29.46 69.58 32.32 C 68.08 30.50 66.46 28.78 64.80 27.10 C 65.05 28.13 65.31 29.16 65.57 30.19 C 64.48 30.06 63.39 29.93 62.30 29.81 C 62.06 29.55 61.58 29.05 61.34 28.80 C 62.93 28.03 63.94 26.04 62.83 24.46 C 62.67 24.14 62.35 23.50 62.20 23.18 C 62.01 22.80 61.65 22.04 61.47 21.66 Z" />
<path fill="#383632" opacity="1.00" d=" M 173.47 21.66 C 174.88 22.17 176.28 22.69 177.72 23.11 C 178.23 23.07 179.25 22.99 179.76 22.95 L 179.90 23.74 C 180.40 26.61 181.00 29.46 181.58 32.32 C 180.08 30.50 178.46 28.78 176.80 27.10 C 177.05 28.13 177.31 29.16 177.57 30.19 C 176.47 30.06 175.39 29.93 174.30 29.81 C 174.06 29.55 173.58 29.05 173.34 28.80 C 174.93 28.03 175.94 26.04 174.83 24.46 C 174.67 24.14 174.35 23.50 174.20 23.18 C 174.01 22.80 173.65 22.04 173.47 21.66 Z" />
</g>
<g id="#9db4c9ff">
<path fill="#9db4c9" opacity="1.00" d=" M 11.71 22.86 C 12.33 22.76 13.58 22.57 14.21 22.47 C 14.35 22.86 14.65 23.64 14.80 24.03 L 14.50 24.67 C 13.84 24.41 12.52 23.88 11.86 23.61 L 11.71 22.86 Z" />
<path fill="#9db4c9" opacity="1.00" d=" M 67.76 22.95 C 68.35 22.84 69.54 22.61 70.14 22.50 C 70.28 22.89 70.58 23.68 70.73 24.08 L 70.63 24.79 C 69.95 24.53 68.58 24.00 67.90 23.74 L 67.76 22.95 Z" />
<path fill="#9db4c9" opacity="1.00" d=" M 179.76 22.95 C 180.35 22.84 181.54 22.61 182.14 22.50 C 182.28 22.89 182.58 23.68 182.73 24.08 L 182.63 24.79 C 181.95 24.53 180.58 24.00 179.90 23.74 L 179.76 22.95 Z" />
</g>
<g id="#79a55dff">
<path fill="#79a55d" opacity="1.00" d=" M 2.72 22.90 C 3.99 23.20 5.27 23.49 6.53 23.83 C 6.69 24.07 6.99 24.54 7.14 24.78 C 5.79 25.54 4.47 26.96 5.08 28.62 C 5.10 28.75 5.15 29.02 5.17 29.15 C 5.37 30.37 5.54 31.59 5.72 32.81 L 5.88 33.89 C 4.98 33.24 4.09 32.58 3.20 31.91 C 4.23 38.46 5.86 44.98 5.78 51.64 C 5.77 51.89 5.76 52.37 5.75 52.62 C 5.70 53.76 5.81 54.88 6.07 56.00 L 0.00 56.00 L 0.00 24.06 C 0.69 24.60 1.38 25.15 2.07 25.69 C 2.28 24.76 2.50 23.83 2.72 22.90 Z" />
</g>
<g id="#adc2d9ff">
<path fill="#adc2d9" opacity="1.00" d=" M 43.57 23.30 L 44.17 22.84 C 44.47 23.13 45.05 23.71 45.34 24.00 L 45.24 24.77 C 44.80 24.82 43.91 24.92 43.47 24.97 C 43.50 24.55 43.54 23.72 43.57 23.30 Z" />
<path fill="#adc2d9" opacity="1.00" d=" M 99.56 23.20 L 100.19 22.72 C 100.47 23.01 101.02 23.60 101.30 23.89 L 101.13 24.64 C 100.68 24.69 99.78 24.79 99.32 24.84 C 99.38 24.43 99.50 23.61 99.56 23.20 Z" />
<path fill="#adc2d9" opacity="1.00" d=" M 211.59 23.21 L 212.22 22.75 C 212.51 23.05 213.08 23.65 213.36 23.95 L 213.18 24.68 C 212.72 24.71 211.81 24.79 211.35 24.83 C 211.41 24.43 211.53 23.62 211.59 23.21 Z" />
</g>
<g id="#6c9a5bff">
<path fill="#6c9a5b" opacity="1.00" d=" M 49.95 23.76 C 51.90 24.23 53.80 24.91 55.66 25.66 C 57.77 24.68 59.93 23.77 62.20 23.18 C 62.35 23.50 62.67 24.14 62.83 24.46 C 60.84 26.04 58.90 27.68 57.07 29.44 C 58.41 29.55 59.75 29.65 61.09 29.73 L 60.53 30.02 C 57.93 31.50 55.29 32.93 52.51 34.05 C 52.61 33.55 52.82 32.55 52.92 32.04 C 51.96 32.61 51.01 33.17 50.05 33.74 L 50.26 32.73 C 50.80 31.92 51.38 31.13 51.99 30.37 C 52.70 29.50 53.43 28.65 54.14 27.79 C 52.88 27.44 51.61 27.09 50.35 26.74 C 50.04 26.10 49.43 24.81 49.13 24.16 L 49.95 23.76 M 55.17 28.17 C 54.65 29.80 55.20 30.35 56.83 29.83 C 57.35 28.20 56.80 27.65 55.17 28.17 Z" />
<path fill="#6c9a5b" opacity="1.00" d=" M 105.94 23.76 C 107.90 24.23 109.79 24.91 111.66 25.66 C 113.77 24.68 115.93 23.77 118.20 23.18 C 118.36 23.50 118.67 24.14 118.83 24.46 C 116.84 26.04 114.90 27.69 113.07 29.45 C 114.41 29.56 115.75 29.65 117.09 29.73 L 116.53 30.02 C 113.92 31.50 111.29 32.93 108.51 34.05 C 108.61 33.55 108.82 32.54 108.92 32.04 C 107.96 32.61 107.01 33.18 106.05 33.75 L 106.26 32.76 C 106.80 31.95 107.37 31.16 107.97 30.40 C 108.68 29.52 109.42 28.66 110.14 27.79 C 108.87 27.44 107.59 27.09 106.32 26.73 C 106.02 26.09 105.41 24.79 105.11 24.15 L 105.94 23.76 M 111.17 28.17 C 110.65 29.80 111.20 30.35 112.83 29.83 C 113.35 28.20 112.80 27.65 111.17 28.17 Z" />
<path fill="#6c9a5b" opacity="1.00" d=" M 161.95 23.75 C 163.90 24.23 165.80 24.91 167.66 25.66 C 169.77 24.68 171.93 23.77 174.20 23.18 C 174.35 23.50 174.67 24.14 174.83 24.46 C 172.84 26.04 170.90 27.68 169.07 29.44 C 170.41 29.55 171.75 29.65 173.09 29.73 L 172.53 30.02 C 169.93 31.50 167.29 32.93 164.51 34.05 C 164.61 33.55 164.82 32.55 164.92 32.05 C 163.96 32.61 163.00 33.17 162.05 33.73 L 162.26 32.72 C 162.80 31.92 163.37 31.14 163.98 30.38 C 164.69 29.51 165.42 28.65 166.15 27.79 C 164.87 27.44 163.60 27.09 162.33 26.74 C 162.03 26.09 161.43 24.79 161.13 24.14 L 161.95 23.75 M 167.17 28.17 C 166.65 29.80 167.20 30.35 168.83 29.83 C 169.35 28.20 168.79 27.65 167.17 28.17 Z" />
</g>
<g id="#417acbff">
<path fill="#417acb" opacity="1.00" d=" M 73.64 27.18 C 77.33 26.03 80.94 24.31 84.83 24.01 C 89.81 24.75 92.81 29.53 94.34 33.96 C 91.43 35.50 87.99 36.76 86.11 39.67 C 82.95 43.66 81.04 50.26 74.89 49.82 C 78.32 46.04 81.28 41.81 82.93 36.94 C 79.13 36.42 75.32 36.01 71.48 36.04 C 70.75 36.03 69.28 36.01 68.55 36.00 C 68.68 35.63 68.94 34.89 69.08 34.51 C 70.38 34.27 71.70 34.08 73.01 33.87 C 73.23 31.64 73.42 29.41 73.64 27.18 M 73.99 31.96 C 79.35 34.87 85.84 35.67 91.12 32.27 C 91.11 31.42 91.10 29.70 91.10 28.85 C 88.71 28.41 86.30 28.10 83.88 27.92 C 85.03 27.12 86.17 26.32 87.30 25.49 C 82.04 26.04 75.85 26.06 73.99 31.96 Z" />
<path fill="#417acb" opacity="1.00" d=" M 196.28 24.14 C 199.15 24.37 201.63 26.16 204.30 27.04 C 204.57 29.36 204.91 31.68 205.34 33.98 C 199.57 36.52 196.53 42.09 193.02 46.95 C 192.00 49.54 189.10 49.31 186.89 49.82 C 190.32 46.04 193.28 41.81 194.93 36.94 C 191.13 36.42 187.32 36.00 183.48 36.04 C 182.75 36.03 181.28 36.01 180.55 36.00 C 180.68 35.63 180.94 34.89 181.08 34.51 C 182.38 34.27 183.70 34.08 185.01 33.87 C 185.23 31.64 185.42 29.41 185.64 27.18 C 189.14 26.05 192.58 24.48 196.28 24.14 M 186.06 31.82 C 188.67 32.90 191.10 34.60 193.84 35.36 C 197.17 35.33 200.15 33.60 203.08 32.21 C 203.09 31.37 203.10 29.69 203.11 28.85 C 200.71 28.42 198.31 28.11 195.88 27.92 C 197.03 27.12 198.17 26.32 199.30 25.49 C 194.11 26.08 187.94 26.00 186.06 31.82 Z" />
</g>
<g id="#75634eff">
<path fill="#75634e" opacity="1.00" d=" M 45.34 24.00 C 45.89 24.13 46.99 24.37 47.54 24.49 L 47.31 25.23 L 46.79 25.79 C 46.40 25.54 45.63 25.03 45.24 24.77 L 45.34 24.00 Z" />
<path fill="#75634e" opacity="1.00" d=" M 101.30 23.89 C 101.85 24.03 102.96 24.31 103.51 24.45 L 103.28 25.17 L 102.75 25.69 C 102.35 25.43 101.54 24.90 101.13 24.64 L 101.30 23.89 Z" />
<path fill="#75634e" opacity="1.00" d=" M 157.33 23.90 C 157.88 24.03 158.99 24.31 159.54 24.44 L 159.31 25.17 L 158.78 25.70 C 158.38 25.44 157.58 24.92 157.18 24.66 L 157.33 23.90 Z" />
<path fill="#75634e" opacity="1.00" d=" M 213.36 23.95 C 213.93 24.13 215.07 24.49 215.64 24.66 L 215.37 25.34 L 214.78 25.81 C 214.38 25.52 213.58 24.96 213.18 24.68 L 213.36 23.95 Z" />
</g>
<g id="#416845ff">
<path fill="#416845" opacity="1.00" d=" M 48.30 24.45 L 49.13 24.16 C 49.43 24.81 50.04 26.10 50.35 26.74 C 49.33 26.29 48.65 25.53 48.30 24.45 Z" />
<path fill="#416845" opacity="1.00" d=" M 104.28 24.42 L 105.11 24.15 C 105.41 24.79 106.02 26.09 106.32 26.73 C 105.30 26.27 104.62 25.50 104.28 24.42 Z" />
<path fill="#416845" opacity="1.00" d=" M 160.30 24.42 L 161.13 24.14 C 161.43 24.79 162.03 26.09 162.33 26.74 C 161.31 26.27 160.64 25.50 160.30 24.42 Z" />
<path fill="#416845" opacity="1.00" d=" M 216.43 24.69 L 217.22 24.39 C 217.55 25.01 218.22 26.26 218.55 26.88 C 217.48 26.51 216.78 25.78 216.43 24.69 Z" />
<path fill="#416845" opacity="1.00" d=" M 7.14 24.78 C 8.46 26.39 6.73 28.29 5.08 28.62 C 4.47 26.96 5.79 25.54 7.14 24.78 Z" />
<path fill="#416845" opacity="1.00" d=" M 62.83 24.46 C 63.94 26.04 62.93 28.03 61.34 28.80 C 60.03 27.34 61.81 25.52 62.83 24.46 Z" />
<path fill="#416845" opacity="1.00" d=" M 118.83 24.46 C 119.94 26.04 118.93 28.03 117.34 28.80 C 116.03 27.34 117.81 25.52 118.83 24.46 Z" />
<path fill="#416845" opacity="1.00" d=" M 174.83 24.46 C 175.94 26.04 174.93 28.03 173.34 28.80 C 172.03 27.34 173.81 25.52 174.83 24.46 Z" />
</g>
<g id="#3b6bbefe">
<path fill="#3b6bbe" opacity="1.00" d=" M 43.47 24.97 C 43.91 24.92 44.80 24.82 45.24 24.77 C 45.63 25.03 46.40 25.54 46.79 25.79 C 46.12 27.91 43.00 28.01 42.98 25.47 L 43.47 24.97 Z" />
<path fill="#3b6bbe" opacity="1.00" d=" M 99.32 24.84 C 99.78 24.79 100.68 24.69 101.13 24.64 C 101.54 24.90 102.35 25.43 102.75 25.69 C 102.32 27.95 99.45 28.07 99.24 25.60 L 99.32 24.84 Z" />
<path fill="#3b6bbe" opacity="1.00" d=" M 155.39 24.88 C 155.84 24.82 156.73 24.71 157.18 24.66 C 157.58 24.92 158.38 25.44 158.78 25.70 C 158.39 27.98 155.51 28.13 155.30 25.64 L 155.39 24.88 Z" />
<path fill="#3b6bbe" opacity="1.00" d=" M 211.35 24.83 C 211.81 24.79 212.72 24.71 213.18 24.68 C 213.58 24.96 214.38 25.52 214.78 25.81 C 214.24 28.00 211.41 28.04 211.25 25.59 L 211.35 24.83 Z" />
</g>
<g id="#34302bff">
<path fill="#34302b" opacity="1.00" d=" M 46.79 25.79 L 47.31 25.23 C 47.29 26.74 48.79 28.07 50.25 27.32 C 50.15 27.94 49.96 29.18 49.86 29.80 C 48.50 29.43 47.15 29.01 45.82 28.54 C 44.86 29.04 43.89 29.53 42.93 30.03 C 42.94 29.36 42.95 28.02 42.95 27.35 C 42.96 26.88 42.97 25.94 42.98 25.47 C 43.00 28.01 46.12 27.91 46.79 25.79 Z" />
<path fill="#34302b" opacity="1.00" d=" M 158.78 25.70 L 159.31 25.17 C 159.27 26.68 160.75 28.04 162.24 27.31 C 162.14 27.93 161.95 29.18 161.85 29.80 C 160.50 29.41 159.15 29.00 157.82 28.54 C 156.83 29.03 155.83 29.53 154.85 30.02 C 154.98 28.56 155.13 27.10 155.30 25.64 C 155.51 28.13 158.39 27.98 158.78 25.70 Z" />
</g>
<g id="#86af5cff">
<path fill="#86af5c" opacity="1.00" d=" M 57.07 29.44 C 58.90 27.68 60.84 26.04 62.83 24.46 C 61.81 25.52 60.03 27.34 61.34 28.80 C 61.58 29.05 62.06 29.55 62.30 29.81 C 62.00 29.79 61.39 29.75 61.09 29.73 C 59.75 29.65 58.41 29.55 57.07 29.44 Z" />
<path fill="#86af5c" opacity="1.00" d=" M 113.07 29.45 C 114.90 27.69 116.84 26.04 118.83 24.46 C 117.81 25.52 116.03 27.34 117.34 28.80 C 117.58 29.05 118.05 29.55 118.29 29.80 C 117.99 29.78 117.39 29.75 117.09 29.73 C 115.75 29.65 114.41 29.56 113.07 29.45 Z" />
<path fill="#86af5c" opacity="1.00" d=" M 169.07 29.44 C 170.90 27.68 172.84 26.04 174.83 24.46 C 173.81 25.52 172.03 27.34 173.34 28.80 C 173.58 29.05 174.06 29.55 174.30 29.81 C 174.00 29.79 173.39 29.75 173.09 29.73 C 171.75 29.65 170.41 29.55 169.07 29.44 Z" />
</g>
<g id="#3c6bbdff">
<path fill="#3c6bbd" opacity="1.00" d=" M 73.99 31.96 C 75.85 26.06 82.04 26.04 87.30 25.49 C 86.17 26.32 85.03 27.12 83.88 27.92 C 86.30 28.10 88.71 28.41 91.10 28.85 C 91.10 29.70 91.11 31.42 91.12 32.27 C 85.84 35.67 79.35 34.87 73.99 31.96 Z" />
<path fill="#3c6bbd" opacity="1.00" d=" M 186.06 31.82 C 187.94 26.00 194.11 26.08 199.30 25.49 C 198.17 26.32 197.03 27.12 195.88 27.92 C 198.31 28.11 200.71 28.42 203.11 28.85 C 203.10 29.69 203.09 31.37 203.08 32.21 C 200.15 33.60 197.17 35.33 193.84 35.36 C 191.10 34.60 188.67 32.90 186.06 31.82 Z" />
</g>
<g id="#3f3c3bff">
<path fill="#3f3c3b" opacity="1.00" d=" M 102.75 25.69 L 103.28 25.17 C 103.25 26.68 104.75 28.02 106.23 27.31 C 106.14 27.93 105.95 29.17 105.86 29.79 C 104.43 29.39 103.03 28.94 101.63 28.47 C 100.59 29.83 99.56 31.22 98.51 32.57 C 98.76 30.25 99.00 27.92 99.24 25.60 C 99.45 28.07 102.32 27.95 102.75 25.69 Z" />
<path fill="#3f3c3b" opacity="1.00" d=" M 214.78 25.81 L 215.37 25.34 C 215.37 26.94 217.05 28.17 218.54 27.44 C 218.53 27.92 218.52 28.89 218.51 29.37 C 217.21 29.51 215.91 29.66 214.62 29.81 C 214.44 29.26 214.09 28.16 213.91 27.61 C 212.75 29.21 211.58 30.81 210.51 32.47 C 210.76 30.18 211.00 27.88 211.25 25.59 C 211.41 28.04 214.24 28.00 214.78 25.81 Z" />
</g>
<g id="#86af5dff">
<path fill="#86af5d" opacity="1.00" d=" M 50.35 26.74 C 51.61 27.09 52.88 27.44 54.14 27.79 C 53.43 28.65 52.70 29.50 51.99 30.37 C 51.46 30.23 50.39 29.94 49.86 29.80 C 49.96 29.18 50.15 27.94 50.25 27.32 L 50.35 26.74 Z" />
<path fill="#86af5d" opacity="1.00" d=" M 106.32 26.73 C 107.59 27.09 108.87 27.44 110.14 27.79 C 109.42 28.66 108.68 29.52 107.97 30.40 C 107.45 30.25 106.39 29.95 105.86 29.79 C 105.95 29.17 106.14 27.93 106.23 27.31 L 106.32 26.73 Z" />
<path fill="#86af5d" opacity="1.00" d=" M 162.33 26.74 C 163.60 27.09 164.87 27.44 166.15 27.79 C 165.42 28.65 164.69 29.51 163.98 30.38 C 163.45 30.24 162.38 29.94 161.85 29.80 C 161.95 29.18 162.14 27.93 162.24 27.31 L 162.33 26.74 Z" />
</g>
<g id="#97c270ff">
<path fill="#97c270" opacity="1.00" d=" M 55.17 28.17 C 56.80 27.65 57.35 28.20 56.83 29.83 C 55.20 30.35 54.65 29.80 55.17 28.17 Z" />
<path fill="#97c270" opacity="1.00" d=" M 111.17 28.17 C 112.80 27.65 113.35 28.20 112.83 29.83 C 111.20 30.35 110.65 29.80 111.17 28.17 Z" />
<path fill="#97c270" opacity="1.00" d=" M 167.17 28.17 C 168.79 27.65 169.35 28.20 168.83 29.83 C 167.20 30.35 166.65 29.80 167.17 28.17 Z" />
</g>
<g id="#81ad62ff">
<path fill="#81ad62" opacity="1.00" d=" M 52.51 34.05 C 55.29 32.93 57.93 31.50 60.53 30.02 C 60.85 30.95 61.16 31.88 61.45 32.81 L 61.72 33.84 C 60.98 33.20 60.25 32.57 59.52 31.93 C 59.76 34.19 60.00 36.45 60.03 38.72 C 58.11 38.17 56.19 37.63 54.28 37.10 C 53.37 37.74 52.46 38.40 51.56 39.05 C 51.86 37.38 52.17 35.71 52.51 34.05 Z" />
<path fill="#81ad62" opacity="1.00" d=" M 108.51 34.05 C 111.29 32.93 113.92 31.50 116.53 30.02 C 116.85 30.96 117.16 31.91 117.45 32.87 L 117.72 33.86 C 116.98 33.22 116.25 32.57 115.52 31.92 C 115.76 34.18 116.00 36.45 116.03 38.72 C 114.11 38.17 112.19 37.63 110.28 37.10 C 109.37 37.74 108.46 38.40 107.56 39.05 C 107.86 37.38 108.17 35.71 108.51 34.05 Z" />
<path fill="#81ad62" opacity="1.00" d=" M 164.51 34.05 C 167.29 32.93 169.93 31.50 172.53 30.02 C 172.85 30.95 173.15 31.88 173.45 32.81 L 173.72 33.84 C 172.98 33.20 172.25 32.57 171.52 31.93 C 171.76 34.19 172.00 36.45 172.03 38.72 C 170.11 38.17 168.19 37.63 166.28 37.10 C 165.37 37.75 164.46 38.40 163.56 39.05 C 163.86 37.38 164.17 35.71 164.51 34.05 Z" />
</g>
<g id="#4e5e48ff">
<path fill="#4e5e48" opacity="1.00" d=" M 3.20 31.91 C 4.09 32.58 4.98 33.24 5.88 33.89 C 6.55 39.01 7.45 44.10 8.51 49.16 C 7.59 49.98 6.66 50.79 5.78 51.64 C 5.86 44.98 4.23 38.46 3.20 31.91 Z" />
<path fill="#4e5e48" opacity="1.00" d=" M 50.05 33.74 C 51.01 33.17 51.96 32.61 52.92 32.04 C 52.82 32.55 52.61 33.55 52.51 34.05 C 52.17 35.71 51.86 37.38 51.56 39.05 C 51.23 40.87 50.79 42.67 50.51 44.50 C 50.17 46.90 50.29 49.34 50.60 51.74 C 49.59 50.86 48.55 50.03 47.52 49.19 C 48.51 44.06 49.30 38.90 50.05 33.74 Z" />
<path fill="#4e5e48" opacity="1.00" d=" M 59.52 31.93 C 60.25 32.57 60.98 33.20 61.72 33.84 C 62.66 38.94 63.56 44.05 64.48 49.16 C 63.48 50.01 62.48 50.86 61.52 51.75 C 61.76 49.59 61.94 47.23 60.59 45.37 C 62.40 44.89 62.76 42.20 61.03 41.36 C 60.78 41.16 60.28 40.76 60.03 40.56 C 60.03 40.10 60.03 39.18 60.03 38.72 C 60.00 36.45 59.76 34.19 59.52 31.93 Z" />
<path fill="#4e5e48" opacity="1.00" d=" M 106.05 33.75 C 107.01 33.18 107.96 32.61 108.92 32.04 C 108.82 32.54 108.61 33.55 108.51 34.05 C 108.17 35.71 107.86 37.38 107.56 39.05 C 107.23 40.87 106.78 42.67 106.51 44.50 C 106.17 46.90 106.30 49.33 106.62 51.73 C 105.55 50.98 104.47 50.24 103.39 49.49 C 104.49 44.28 105.30 39.02 106.05 33.75 Z" />
<path fill="#4e5e48" opacity="1.00" d=" M 115.52 31.92 C 116.25 32.57 116.98 33.22 117.72 33.86 C 118.66 38.96 119.56 44.07 120.49 49.17 C 119.49 50.01 118.48 50.83 117.52 51.70 C 117.76 49.55 117.93 47.22 116.58 45.37 C 118.39 44.89 118.76 42.20 117.03 41.36 C 116.78 41.16 116.28 40.76 116.03 40.56 C 116.03 40.10 116.03 39.18 116.03 38.72 C 116.00 36.45 115.76 34.18 115.52 31.92 Z" />
<path fill="#4e5e48" opacity="1.00" d=" M 162.05 33.73 C 163.00 33.17 163.96 32.61 164.92 32.05 C 164.82 32.55 164.61 33.55 164.51 34.05 C 164.17 35.71 163.86 37.38 163.56 39.05 C 163.23 40.87 162.79 42.67 162.51 44.50 C 162.17 46.90 162.29 49.34 162.60 51.74 C 161.59 50.86 160.55 50.02 159.52 49.19 C 160.51 44.06 161.30 38.90 162.05 33.73 Z" />
<path fill="#4e5e48" opacity="1.00" d=" M 171.52 31.93 C 172.25 32.57 172.98 33.20 173.72 33.84 C 174.66 38.94 175.56 44.05 176.48 49.16 C 175.48 50.01 174.48 50.86 173.52 51.75 C 173.76 49.59 173.94 47.23 172.59 45.37 C 174.39 44.89 174.76 42.20 173.03 41.36 C 172.78 41.16 172.28 40.76 172.03 40.56 C 172.03 40.10 172.03 39.18 172.03 38.72 C 172.00 36.45 171.76 34.19 171.52 31.93 Z" />
<path fill="#4e5e48" opacity="1.00" d=" M 218.18 33.86 C 219.04 33.21 219.90 32.57 220.77 31.93 C 220.34 34.37 219.95 36.81 219.59 39.26 C 219.30 41.19 218.90 43.11 218.59 45.04 C 218.14 47.24 218.31 49.51 218.56 51.73 C 217.55 50.84 216.49 50.00 215.45 49.16 C 216.57 44.10 217.53 39.00 218.18 33.86 Z" />
</g>
<g id="#2c89d6ff">
<path fill="#2c89d6" opacity="1.00" d=" M 96.87 36.65 C 95.54 35.35 97.41 33.88 98.23 32.91 C 98.25 33.73 98.30 35.36 98.32 36.17 C 97.96 36.29 97.23 36.53 96.87 36.65 Z" />
</g>
<g id="#268dd9ff">
<path fill="#268dd9" opacity="1.00" d=" M 125.01 33.88 C 126.03 34.24 127.05 34.60 128.08 34.95 C 126.54 38.00 125.27 41.17 124.21 44.42 C 125.60 44.52 126.98 44.63 128.37 44.73 C 127.06 46.63 125.84 48.58 124.74 50.60 C 123.81 47.03 123.53 43.34 122.67 39.76 C 122.91 39.40 123.40 38.68 123.64 38.32 C 124.14 36.85 124.60 35.38 125.01 33.88 Z" />
<path fill="#268dd9" opacity="1.00" d=" M 151.92 34.99 C 152.93 34.63 153.95 34.27 154.97 33.91 C 155.37 35.40 155.84 36.87 156.35 38.32 C 156.60 38.68 157.09 39.40 157.34 39.76 C 156.47 43.34 156.19 47.04 155.26 50.62 C 154.14 48.58 152.92 46.61 151.62 44.69 C 152.87 44.68 154.12 44.67 155.38 44.67 C 154.29 41.42 153.22 38.16 151.92 34.99 Z" />
</g>
<g id="#7a9db6ff">
<path fill="#7a9db6" opacity="1.00" d=" M 68.55 36.00 C 69.28 36.01 70.75 36.03 71.48 36.04 C 70.43 37.24 69.40 38.46 68.30 39.61 C 67.99 39.82 67.38 40.22 67.07 40.42 L 67.36 39.54 C 67.48 39.16 67.74 38.42 67.86 38.04 C 68.04 37.53 68.38 36.51 68.55 36.00 Z" />
<path fill="#7a9db6" opacity="1.00" d=" M 96.87 36.65 C 97.23 36.53 97.96 36.29 98.32 36.17 C 98.90 36.45 100.07 36.99 100.66 37.27 C 100.68 37.73 100.74 38.66 100.76 39.13 L 100.91 40.47 C 100.61 40.30 100.00 39.97 99.70 39.80 C 98.72 38.79 97.78 37.73 96.87 36.65 Z" />
<path fill="#7a9db6" opacity="1.00" d=" M 180.55 36.00 C 181.28 36.01 182.75 36.03 183.48 36.04 C 182.43 37.24 181.40 38.46 180.30 39.61 C 179.99 39.82 179.38 40.22 179.07 40.42 L 179.36 39.54 C 179.48 39.16 179.74 38.42 179.86 38.04 C 180.04 37.53 180.38 36.51 180.55 36.00 Z" />
<path fill="#7a9db6" opacity="1.00" d=" M 208.63 36.62 C 209.03 36.45 209.83 36.11 210.24 35.95 C 210.75 36.45 211.78 37.46 212.29 37.97 C 212.41 38.35 212.63 39.12 212.74 39.50 L 212.98 40.49 C 212.68 40.31 212.10 39.95 211.81 39.77 C 210.71 38.76 209.67 37.69 208.63 36.62 Z" />
</g>
<g id="#6a985aff">
<path fill="#6a985a" opacity="1.00" d=" M 51.56 39.05 C 52.46 38.40 53.37 37.74 54.28 37.10 C 56.19 37.63 58.11 38.17 60.03 38.72 C 60.03 39.18 60.03 40.10 60.03 40.56 C 56.81 41.77 53.55 42.89 50.51 44.50 C 50.79 42.67 51.23 40.87 51.56 39.05 M 53.93 38.39 C 53.96 39.03 54.02 40.32 54.05 40.96 C 55.35 40.96 56.65 40.96 57.95 40.96 C 57.98 40.32 58.04 39.03 58.07 38.39 C 56.69 38.40 55.31 38.40 53.93 38.39 Z" />
<path fill="#6a985a" opacity="1.00" d=" M 107.56 39.05 C 108.46 38.40 109.37 37.74 110.28 37.10 C 112.19 37.63 114.11 38.17 116.03 38.72 C 116.03 39.18 116.03 40.10 116.03 40.56 C 112.81 41.78 109.55 42.90 106.51 44.50 C 106.78 42.67 107.23 40.87 107.56 39.05 M 109.93 38.39 C 109.96 39.03 110.02 40.32 110.05 40.96 C 111.35 40.96 112.65 40.96 113.95 40.96 C 113.98 40.32 114.04 39.03 114.07 38.39 C 112.69 38.40 111.31 38.40 109.93 38.39 Z" />
<path fill="#6a985a" opacity="1.00" d=" M 163.56 39.05 C 164.46 38.40 165.37 37.75 166.28 37.10 C 168.19 37.63 170.11 38.17 172.03 38.72 C 172.03 39.18 172.03 40.10 172.03 40.56 C 168.81 41.77 165.56 42.89 162.51 44.50 C 162.79 42.67 163.23 40.87 163.56 39.05 M 165.93 38.39 C 165.96 39.03 166.02 40.32 166.05 40.96 C 167.35 40.96 168.65 40.96 169.95 40.96 C 169.98 40.32 170.04 39.03 170.07 38.39 C 168.69 38.40 167.31 38.40 165.93 38.39 Z" />
</g>
<g id="#4c95c9ff">
<path fill="#4c95c9" opacity="1.00" d=" M 67.07 40.42 C 67.38 40.22 67.99 39.82 68.30 39.61 C 69.13 40.77 69.17 41.92 68.39 43.07 C 67.05 42.61 66.61 41.72 67.07 40.42 Z" />
<path fill="#4c95c9" opacity="1.00" d=" M 99.70 39.80 C 100.00 39.97 100.61 40.30 100.91 40.47 C 101.16 41.77 100.67 42.67 99.44 43.18 L 98.87 42.69 C 99.08 41.97 99.49 40.53 99.70 39.80 Z" />
<path fill="#4c95c9" opacity="1.00" d=" M 179.07 40.42 C 179.38 40.22 179.99 39.82 180.30 39.61 C 181.13 40.77 181.17 41.92 180.39 43.07 C 179.05 42.61 178.61 41.72 179.07 40.42 Z" />
<path fill="#4c95c9" opacity="1.00" d=" M 211.81 39.77 C 212.10 39.95 212.68 40.31 212.98 40.49 C 213.29 41.79 212.79 42.67 211.48 43.13 L 210.93 42.64 C 211.15 41.92 211.59 40.49 211.81 39.77 Z" />
</g>
<g id="#81ab5dff">
<path fill="#81ab5d" opacity="1.00" d=" M 60.03 40.56 C 60.28 40.76 60.78 41.16 61.03 41.36 C 59.08 41.91 59.50 44.21 60.59 45.37 C 61.94 47.23 61.76 49.59 61.52 51.75 L 61.12 52.17 C 60.16 52.21 59.21 52.24 58.25 52.27 C 57.50 53.26 56.75 54.26 56.00 55.25 C 55.25 54.26 54.50 53.27 53.75 52.28 C 52.81 52.22 51.87 52.16 50.94 52.09 L 50.60 51.74 C 50.29 49.34 50.17 46.90 50.51 44.50 C 53.55 42.89 56.81 41.77 60.03 40.56 Z" />
<path fill="#81ab5d" opacity="1.00" d=" M 116.03 40.56 C 116.28 40.76 116.78 41.16 117.03 41.36 C 115.08 41.91 115.50 44.21 116.58 45.37 C 117.93 47.22 117.76 49.55 117.52 51.70 L 117.16 52.10 C 116.18 52.17 115.21 52.22 114.24 52.28 C 113.51 53.27 112.76 54.24 112.02 55.23 C 111.26 54.29 110.50 53.36 109.75 52.43 C 108.86 52.31 107.98 52.19 107.10 52.06 L 106.62 51.73 C 106.30 49.33 106.17 46.90 106.51 44.50 C 109.55 42.90 112.81 41.78 116.03 40.56 Z" />
<path fill="#81ab5d" opacity="1.00" d=" M 172.03 40.56 C 172.28 40.76 172.78 41.16 173.03 41.36 C 171.08 41.91 171.50 44.21 172.59 45.37 C 173.94 47.23 173.76 49.59 173.52 51.75 L 173.12 52.17 C 172.16 52.21 171.21 52.24 170.25 52.27 C 169.50 53.26 168.75 54.26 168.00 55.25 C 167.25 54.26 166.50 53.27 165.75 52.28 C 164.81 52.22 163.87 52.16 162.93 52.09 L 162.60 51.74 C 162.29 49.34 162.17 46.90 162.51 44.50 C 165.56 42.89 168.81 41.77 172.03 40.56 Z" />
</g>
<g id="#68975bfe">
<path fill="#68975b" opacity="1.00" d=" M 60.59 45.37 C 59.50 44.21 59.08 41.91 61.03 41.36 C 62.76 42.20 62.40 44.89 60.59 45.37 Z" />
<path fill="#68975b" opacity="1.00" d=" M 116.58 45.37 C 115.50 44.21 115.08 41.91 117.03 41.36 C 118.76 42.20 118.39 44.89 116.58 45.37 Z" />
<path fill="#68975b" opacity="1.00" d=" M 172.59 45.37 C 171.50 44.21 171.08 41.91 173.03 41.36 C 174.76 42.20 174.39 44.89 172.59 45.37 Z" />
</g>
<g id="#3c7acdff">
<path fill="#3c7acd" opacity="1.00" d=" M 86.64 44.46 C 90.61 43.31 94.72 42.70 98.87 42.69 L 99.44 43.18 L 99.93 43.63 C 97.94 44.46 98.51 47.10 100.45 47.54 C 100.19 48.15 99.92 48.76 99.64 49.36 C 96.23 45.80 91.25 45.15 86.64 44.46 Z" />
</g>
<g id="#3b7acdff">
<path fill="#3b7acd" opacity="1.00" d=" M 198.64 44.47 C 202.64 43.32 206.76 42.69 210.93 42.64 L 211.48 43.13 L 211.96 43.60 C 209.94 44.43 210.50 47.10 212.48 47.54 C 212.22 48.19 211.95 48.85 211.68 49.49 C 208.34 45.77 203.28 45.16 198.64 44.47 Z" />
</g>
<g id="#80ab5dff">
<path fill="#80ab5d" opacity="1.00" d=" M 218.59 45.04 C 220.31 43.54 222.18 42.23 224.00 40.86 L 224.00 55.43 C 223.32 54.25 222.60 53.10 221.89 51.94 C 220.90 52.00 219.90 52.05 218.90 52.08 L 218.56 51.73 C 218.31 49.51 218.14 47.24 218.59 45.04 Z" />
</g>
<g id="#318cd2ff">
<path fill="#318cd2" opacity="1.00" d=" M 14.72 45.05 C 14.47 47.03 13.89 48.94 13.38 50.87 C 12.91 49.73 12.45 48.58 12.04 47.41 C 13.06 46.78 14.02 46.03 14.72 45.05 Z" />
<path fill="#318cd2" opacity="1.00" d=" M 42.61 50.91 C 42.10 48.98 41.53 47.04 41.30 45.05 C 41.99 46.03 42.95 46.78 43.96 47.40 C 43.55 48.59 43.09 49.75 42.61 50.91 Z" />
</g>
<g id="#2c84d1fe">
<path fill="#2c84d1" opacity="1.00" d=" M 69.90 45.27 C 71.14 46.84 69.88 48.73 68.80 49.98 C 68.17 49.27 67.77 48.43 67.62 47.45 C 68.56 46.90 69.32 46.17 69.90 45.27 Z" />
<path fill="#2c84d1" opacity="1.00" d=" M 181.90 45.27 C 183.14 46.84 181.88 48.73 180.80 49.98 C 180.17 49.27 179.77 48.43 179.62 47.45 C 180.56 46.90 181.32 46.17 181.90 45.27 Z" />
</g>
<g id="#4180caff">
<path fill="#4180ca" opacity="1.00" d=" M 130.85 47.65 C 131.74 46.87 132.63 46.10 133.54 45.35 C 138.62 51.28 146.65 51.58 153.89 50.73 C 144.65 51.79 135.28 52.21 126.08 50.73 C 130.49 50.96 134.91 50.94 139.33 50.98 C 136.49 49.88 133.65 48.83 130.85 47.65 Z" />
</g>
<g id="#3b4b38ff">
<path fill="#3b4b38" opacity="1.00" d=" M 13.38 50.87 L 14.42 50.88 C 23.46 51.64 32.56 51.90 41.59 50.94 L 42.61 50.91 L 42.22 51.79 C 33.12 54.71 22.89 54.57 13.77 51.75 L 13.38 50.87 Z" />
<path fill="#3b4b38" opacity="1.00" d=" M 69.42 50.54 L 70.38 50.67 C 79.44 51.92 88.76 52.49 97.79 50.72 L 99.00 50.50 L 98.30 51.70 C 92.28 54.24 85.56 53.54 79.20 53.59 C 76.02 53.52 72.49 53.39 70.04 51.09 L 69.42 50.54 Z" />
<path fill="#3b4b38" opacity="1.00" d=" M 124.74 50.60 L 126.08 50.73 C 135.28 52.21 144.65 51.79 153.89 50.73 L 155.26 50.62 L 154.90 51.75 C 145.31 54.64 134.71 54.47 125.10 51.75 L 124.74 50.60 Z" />
<path fill="#3b4b38" opacity="1.00" d=" M 181.42 50.54 L 182.38 50.67 C 191.43 51.89 200.77 52.63 209.76 50.65 L 210.92 50.42 L 210.21 51.26 C 206.43 54.13 201.31 53.49 196.91 53.62 C 192.07 53.17 186.07 54.67 182.03 51.09 L 181.42 50.54 Z" />
</g>
<g id="#4081caff">
<path fill="#4081ca" opacity="1.00" d=" M 14.42 50.88 C 23.48 50.66 32.54 50.61 41.59 50.94 C 32.56 51.90 23.46 51.64 14.42 50.88 Z" />
<path fill="#4081ca" opacity="1.00" d=" M 70.38 50.67 C 79.51 50.88 88.65 50.67 97.79 50.72 C 88.76 52.49 79.44 51.92 70.38 50.67 Z" />
<path fill="#4081ca" opacity="1.00" d=" M 182.38 50.67 C 191.50 50.88 200.64 50.71 209.76 50.65 C 200.77 52.63 191.43 51.89 182.38 50.67 Z" />
</g>
<g id="#446445fe">
<path fill="#446445" opacity="1.00" d=" M 5.75 52.62 C 6.66 52.06 7.64 51.75 8.71 51.69 C 8.10 53.19 7.34 54.64 6.46 56.00 L 6.07 56.00 C 5.81 54.88 5.70 53.76 5.75 52.62 Z" />
<path fill="#446445" opacity="1.00" d=" M 47.22 51.70 C 48.12 51.75 49.02 51.84 49.91 51.99 C 50.13 53.32 50.14 54.66 49.93 56.00 L 49.57 56.00 C 48.66 54.64 47.87 53.20 47.22 51.70 Z" />
<path fill="#446445" opacity="1.00" d=" M 62.08 52.10 C 62.98 51.95 63.89 51.83 64.80 51.73 C 64.16 53.23 63.37 54.66 62.44 56.00 L 62.06 56.00 C 61.83 54.69 61.84 53.39 62.08 52.10 Z" />
<path fill="#446445" opacity="1.00" d=" M 103.27 51.61 C 104.16 51.63 105.05 51.73 105.93 51.89 C 106.11 53.26 106.10 54.63 105.91 56.00 L 105.57 56.00 C 104.69 54.59 103.91 53.13 103.27 51.61 Z" />
<path fill="#446445" opacity="1.00" d=" M 118.10 52.00 C 118.99 51.85 119.89 51.75 120.79 51.71 C 120.13 53.21 119.34 54.64 118.43 56.00 L 118.06 56.00 C 117.86 54.66 117.87 53.33 118.10 52.00 Z" />
<path fill="#446445" opacity="1.00" d=" M 159.21 51.71 C 160.11 51.75 161.01 51.85 161.91 51.99 C 162.12 53.32 162.13 54.66 161.93 56.00 L 161.57 56.00 C 160.66 54.64 159.87 53.20 159.21 51.71 Z" />
<path fill="#446445" opacity="1.00" d=" M 174.08 52.10 C 174.98 51.95 175.89 51.83 176.80 51.73 C 176.16 53.23 175.37 54.66 174.44 56.00 L 174.06 56.00 C 173.83 54.69 173.84 53.39 174.08 52.10 Z" />
<path fill="#446445" opacity="1.00" d=" M 215.18 51.76 C 216.09 51.85 217.00 51.95 217.91 52.08 C 218.16 53.38 218.18 54.69 217.96 56.00 L 217.58 56.00 C 216.64 54.67 215.84 53.24 215.18 51.76 Z" />
</g>
<g id="#7aa55cff">
<path fill="#7aa55c" opacity="1.00" d=" M 8.71 51.69 C 10.39 51.61 12.09 51.61 13.77 51.75 C 22.89 54.57 33.12 54.71 42.22 51.79 C 43.89 51.66 45.55 51.65 47.22 51.70 C 47.87 53.20 48.66 54.64 49.57 56.00 L 6.46 56.00 C 7.34 54.64 8.10 53.19 8.71 51.69 Z" />
<path fill="#7aa55c" opacity="1.00" d=" M 64.80 51.73 C 66.55 51.53 68.29 51.31 70.04 51.09 C 72.49 53.39 76.02 53.52 79.20 53.59 C 85.56 53.54 92.28 54.24 98.30 51.70 C 99.95 51.57 101.61 51.57 103.27 51.61 C 103.91 53.13 104.69 54.59 105.57 56.00 L 62.44 56.00 C 63.37 54.66 64.16 53.23 64.80 51.73 Z" />
<path fill="#7aa55c" opacity="1.00" d=" M 120.79 51.71 C 122.22 51.66 123.66 51.64 125.10 51.75 C 134.71 54.47 145.31 54.64 154.90 51.75 C 156.33 51.64 157.77 51.66 159.21 51.71 C 159.87 53.20 160.66 54.64 161.57 56.00 L 118.43 56.00 C 119.34 54.64 120.13 53.21 120.79 51.71 Z" />
<path fill="#7aa55c" opacity="1.00" d=" M 176.80 51.73 C 178.55 51.52 180.29 51.31 182.03 51.09 C 186.07 54.67 192.07 53.17 196.91 53.62 C 201.31 53.49 206.43 54.13 210.21 51.26 C 211.86 51.42 213.52 51.59 215.18 51.76 C 215.84 53.24 216.64 54.67 217.58 56.00 L 174.44 56.00 C 175.37 54.66 176.16 53.23 176.80 51.73 Z" />
</g>
<g id="#6f9c5aff">
<path fill="#6f9c5a" opacity="1.00" d=" M 50.94 52.09 C 51.87 52.16 52.81 52.22 53.75 52.28 C 54.50 53.27 55.25 54.26 56.00 55.25 C 56.75 54.26 57.50 53.26 58.25 52.27 C 59.21 52.24 60.16 52.21 61.12 52.17 L 62.08 52.10 C 61.84 53.39 61.83 54.69 62.06 56.00 L 49.93 56.00 C 50.14 54.66 50.13 53.32 49.91 51.99 L 50.94 52.09 Z" />
<path fill="#6f9c5a" opacity="1.00" d=" M 107.10 52.06 C 107.98 52.19 108.86 52.31 109.75 52.43 C 110.50 53.36 111.26 54.29 112.02 55.23 C 112.76 54.24 113.51 53.27 114.24 52.28 C 115.21 52.22 116.18 52.17 117.16 52.10 L 118.10 52.00 C 117.87 53.33 117.86 54.66 118.06 56.00 L 105.91 56.00 C 106.10 54.63 106.11 53.26 105.93 51.89 L 107.10 52.06 Z" />
<path fill="#6f9c5a" opacity="1.00" d=" M 162.93 52.09 C 163.87 52.16 164.81 52.22 165.75 52.28 C 166.50 53.27 167.25 54.26 168.00 55.25 C 168.75 54.26 169.50 53.26 170.25 52.27 C 171.21 52.24 172.16 52.21 173.12 52.17 L 174.08 52.10 C 173.84 53.39 173.83 54.69 174.06 56.00 L 161.93 56.00 C 162.13 54.66 162.12 53.32 161.91 51.99 L 162.93 52.09 Z" />
<path fill="#6f9c5a" opacity="1.00" d=" M 218.90 52.08 C 219.90 52.05 220.90 52.00 221.89 51.94 C 222.60 53.10 223.32 54.25 224.00 55.43 L 224.00 56.00 L 217.96 56.00 C 218.18 54.69 218.16 53.38 217.91 52.08 L 218.90 52.08 Z" />
</g>
</svg>
