<?xml version="1.0" encoding="UTF-8" ?>
<!DOCTYPE svg PUBLIC "-//W3C//DTD SVG 1.1//EN" "http://www.w3.org/Graphics/SVG/1.1/DTD/svg11.dtd">
<svg width="224pt" height="56pt" viewBox="0 0 224 56" version="1.1" xmlns="http://www.w3.org/2000/svg">
<g id="#3d6cbfff">
<path fill="#3d6cbf" opacity="1.00" d=" M 0.00 0.00 L 25.69 0.00 C 26.63 1.11 27.53 2.27 28.42 3.42 C 21.83 4.00 14.75 6.09 8.42 3.25 C 9.43 5.08 10.47 6.92 11.09 8.93 C 9.05 11.15 6.44 12.74 4.09 14.60 C 8.10 14.24 12.13 14.04 16.15 14.11 C 14.57 12.32 13.02 10.50 11.45 8.69 C 13.98 6.76 16.97 5.06 20.27 5.96 C 26.65 7.70 32.49 1.04 38.78 4.44 C 43.80 6.68 49.27 6.56 54.63 6.71 C 56.07 4.73 57.54 2.76 59.04 0.82 C 55.94 2.17 52.90 3.91 49.49 4.30 C 42.79 5.34 36.79 1.52 30.51 0.00 L 85.27 0.00 C 79.74 5.69 71.34 2.60 64.54 2.18 C 65.47 4.06 66.44 5.94 67.03 7.96 C 65.02 10.17 62.44 11.77 60.09 13.60 C 64.10 13.24 68.13 13.04 72.15 13.11 C 70.57 11.32 69.02 9.50 67.46 7.69 C 71.09 4.11 76.10 4.08 80.60 5.87 C 83.69 3.51 86.77 0.57 91.06 0.94 C 94.97 1.62 97.65 5.36 101.66 5.70 C 104.95 6.05 108.25 6.19 111.54 6.43 C 111.74 5.48 111.93 4.54 112.12 3.59 C 105.87 3.49 99.30 3.71 93.95 0.00 L 138.32 0.00 C 137.74 0.59 136.58 1.77 135.99 2.36 C 130.84 2.14 125.68 1.89 120.56 1.24 C 121.49 3.10 122.45 4.96 123.03 6.96 C 121.02 9.17 118.44 10.77 116.09 12.60 C 120.10 12.24 124.12 12.04 128.15 12.11 C 126.57 10.32 125.02 8.50 123.46 6.70 C 127.21 2.89 132.46 3.13 137.04 5.16 C 138.35 3.43 139.61 1.67 141.00 0.00 L 197.30 0.00 C 192.44 4.90 185.19 2.50 179.19 4.38 C 178.63 8.57 175.43 11.31 172.17 13.63 C 176.15 13.24 180.15 13.05 184.15 13.11 C 182.57 11.31 181.02 9.50 179.46 7.69 C 183.09 4.11 188.10 4.08 192.60 5.87 C 195.69 3.51 198.77 0.57 203.06 0.93 C 206.41 1.59 208.87 4.27 212.03 5.40 C 215.98 6.10 220.03 5.92 224.00 6.50 L 224.00 27.69 C 219.74 27.68 215.51 26.80 212.30 23.89 C 214.03 24.00 215.56 23.08 216.97 22.19 C 217.47 22.20 218.48 22.21 218.98 22.21 C 220.30 22.22 222.66 22.72 222.91 20.86 C 222.36 19.43 220.48 20.33 219.64 20.95 C 219.50 20.66 219.23 20.08 219.09 19.79 L 218.56 18.70 C 220.15 18.63 221.75 18.47 223.34 18.33 C 221.17 13.95 217.68 10.53 214.04 7.35 C 210.20 11.02 206.13 14.66 201.02 16.44 C 201.56 15.43 202.18 13.55 200.71 13.00 C 198.71 13.05 199.28 15.85 200.45 16.67 L 199.88 16.91 L 199.36 17.12 C 197.99 17.68 196.63 18.24 195.29 18.81 C 194.24 17.87 193.21 16.91 192.19 15.93 C 191.43 17.53 190.68 19.13 189.87 20.70 L 189.38 21.54 C 186.15 24.04 182.28 25.44 178.73 27.36 C 178.24 28.48 177.85 29.65 177.49 30.81 C 176.58 29.82 174.87 30.20 174.44 31.46 C 172.88 30.93 171.30 30.49 169.72 30.04 C 174.15 35.14 179.01 40.76 186.63 40.10 C 184.95 38.86 183.27 37.63 181.49 36.54 C 183.59 36.58 185.70 36.61 187.80 36.55 C 188.19 36.51 188.98 36.44 189.37 36.40 C 190.31 37.21 191.24 38.03 192.18 38.86 C 193.16 38.16 194.15 37.47 195.14 36.78 C 195.62 36.43 196.58 35.74 197.05 35.40 L 197.21 36.44 C 193.17 39.75 188.65 42.46 184.94 46.18 C 184.64 46.45 184.05 46.98 183.75 47.25 C 182.92 46.30 180.56 44.93 180.02 46.82 C 180.44 48.59 182.62 47.72 183.75 47.25 C 184.18 47.11 185.02 46.81 185.45 46.67 C 185.40 47.79 185.36 48.90 185.32 50.02 C 187.15 50.13 188.98 50.30 190.79 50.57 C 191.19 49.47 191.61 48.37 192.04 47.28 L 192.29 46.89 C 192.80 46.97 193.82 47.14 194.33 47.22 L 194.56 47.11 C 194.96 47.35 195.75 47.85 196.15 48.10 C 196.58 48.26 197.43 48.58 197.86 48.73 C 198.36 49.13 199.36 49.91 199.86 50.30 C 199.79 50.85 199.67 51.95 199.61 52.51 C 200.88 51.78 202.17 51.07 203.40 50.27 C 204.38 51.02 205.37 51.78 206.37 52.51 C 208.51 52.02 210.68 51.64 212.87 51.33 C 211.90 50.58 210.93 49.82 209.98 49.06 C 214.33 46.92 219.22 46.43 224.00 46.15 L 224.00 56.00 L 144.11 56.00 C 145.08 53.28 140.48 53.47 142.23 56.00 L 0.00 56.00 L 0.00 29.42 C 0.29 29.83 0.86 30.64 1.15 31.05 C 5.08 36.46 10.15 41.74 17.61 41.10 C 15.92 39.83 14.22 38.59 12.43 37.48 C 14.52 37.58 16.61 37.67 18.70 37.74 C 19.05 37.75 19.76 37.78 20.11 37.79 C 22.09 37.87 24.08 37.98 26.06 37.78 C 26.43 37.59 27.18 37.21 27.56 37.01 C 24.09 41.33 19.03 43.91 14.03 46.03 C 10.60 46.80 14.35 49.87 15.83 47.55 L 16.44 46.94 L 16.72 47.76 C 16.21 48.53 15.70 49.30 15.18 50.06 C 20.00 50.55 24.80 51.08 29.63 51.45 C 27.56 50.33 25.47 49.24 23.30 48.32 L 23.88 47.74 C 25.92 48.06 27.95 48.53 29.89 49.26 C 30.45 49.48 31.56 49.90 32.12 50.11 C 31.90 50.68 31.46 51.81 31.24 52.37 C 32.57 51.82 33.89 51.27 35.22 50.71 C 36.72 51.44 38.32 53.06 40.06 51.99 C 44.73 49.71 49.51 47.71 54.66 46.78 C 54.72 44.68 54.93 42.60 55.21 40.52 C 54.67 40.13 54.14 39.74 53.60 39.36 C 52.98 38.93 51.73 38.08 51.11 37.65 C 50.71 36.11 50.30 34.57 49.91 33.03 C 55.63 29.87 61.49 26.93 67.61 24.63 C 68.06 22.21 68.66 19.83 69.37 17.48 C 64.67 19.09 59.85 17.80 55.18 16.75 C 52.32 13.45 49.10 10.48 45.95 7.44 C 42.14 11.04 38.15 14.72 33.06 16.39 C 33.60 15.39 34.17 13.49 32.69 12.99 C 30.70 13.02 31.29 15.82 32.46 16.61 L 31.75 16.87 L 31.07 17.11 C 29.77 17.59 28.49 18.12 27.21 18.66 C 26.18 17.78 25.18 16.87 24.18 15.96 C 23.42 17.54 22.68 19.13 21.87 20.69 L 21.36 21.53 C 20.03 22.49 18.64 23.37 17.18 24.13 C 14.91 23.70 12.63 23.33 10.35 22.96 C 13.47 21.01 16.75 19.35 20.04 17.70 C 13.38 19.31 6.40 20.76 0.00 17.38 L 0.00 0.00 M 165.17 4.17 C 164.65 5.80 165.20 6.35 166.83 5.83 C 167.35 4.20 166.79 3.65 165.17 4.17 M 87.81 17.31 L 87.09 17.15 C 87.03 17.59 86.90 18.45 86.84 18.88 C 85.05 15.99 84.02 21.64 86.72 19.65 C 87.20 19.96 88.17 20.57 88.65 20.88 C 89.18 20.48 90.24 19.70 90.76 19.30 C 90.43 19.56 89.75 20.09 89.41 20.35 C 89.31 21.11 89.10 22.64 88.99 23.40 C 88.05 23.80 87.12 24.20 86.18 24.60 C 84.62 21.26 82.66 18.10 80.11 15.41 C 79.35 17.17 78.64 18.96 77.99 20.77 L 77.46 21.64 C 74.13 24.03 70.37 25.69 66.60 27.21 L 65.68 26.69 C 65.62 28.09 65.56 29.49 65.58 30.90 C 65.09 29.54 62.45 29.83 62.74 31.42 C 61.22 30.83 59.64 30.40 58.07 29.94 C 57.66 30.87 57.24 31.81 56.83 32.74 C 57.89 32.72 58.96 32.70 60.03 32.68 C 61.06 34.24 62.18 35.72 63.40 37.13 C 63.30 37.39 63.10 37.91 63.00 38.17 C 62.29 38.13 60.87 38.04 60.16 38.00 C 62.39 41.51 64.87 45.09 69.06 46.41 C 67.54 44.75 65.94 43.16 64.35 41.56 C 64.70 41.14 65.38 40.29 65.72 39.86 L 65.07 40.79 C 68.32 40.55 71.52 40.05 74.76 39.65 C 73.08 38.52 71.40 37.39 69.59 36.51 C 71.92 36.65 74.26 36.71 76.60 36.76 C 76.84 36.54 77.32 36.10 77.57 35.88 C 78.57 37.31 79.97 38.38 81.25 39.55 C 81.32 38.97 81.45 37.82 81.52 37.25 C 81.96 37.12 82.83 36.86 83.26 36.73 C 81.23 39.26 78.98 41.59 76.82 44.00 L 76.06 44.37 C 74.81 41.28 71.76 46.83 75.14 46.15 L 74.69 47.00 C 73.20 47.82 71.90 48.94 70.56 49.99 C 72.46 49.49 74.35 48.93 76.22 48.33 C 76.79 49.37 77.38 50.40 77.97 51.43 C 78.81 49.17 79.58 46.89 80.27 44.58 L 81.04 44.27 L 81.22 44.51 L 82.10 45.11 C 81.43 46.96 80.74 48.81 80.06 50.65 C 82.06 49.75 84.02 48.74 85.95 47.68 C 86.44 47.99 87.43 48.62 87.93 48.94 C 88.33 47.96 88.70 46.97 89.02 45.97 C 90.37 46.08 91.72 46.20 93.08 46.32 L 93.12 47.37 L 92.02 46.37 C 91.48 47.65 91.00 48.94 90.56 50.26 C 89.71 49.23 87.68 49.73 87.54 51.10 C 87.70 52.83 90.56 52.43 90.72 50.88 C 93.74 52.96 97.62 51.62 101.01 51.87 C 100.00 51.10 98.99 50.33 97.97 49.56 C 102.92 44.78 110.75 45.34 115.70 49.84 C 115.21 50.62 114.73 51.40 114.24 52.18 C 117.23 52.41 120.24 52.66 123.24 52.86 C 120.53 51.44 117.80 50.04 115.08 48.65 C 115.62 47.49 116.18 46.34 116.74 45.19 C 113.53 45.82 110.16 45.86 107.49 43.69 C 108.75 43.61 110.01 43.53 111.27 43.45 C 111.27 41.66 111.20 39.87 111.15 38.08 C 110.76 38.43 109.99 39.13 109.60 39.49 C 108.96 39.05 107.68 38.17 107.04 37.74 C 106.65 35.88 106.27 34.03 105.89 32.18 C 111.61 28.54 117.27 24.50 123.94 22.77 C 123.78 20.95 123.64 19.10 124.14 17.32 C 126.57 15.94 129.34 15.34 131.99 14.53 C 131.70 14.19 131.14 13.53 130.85 13.20 C 127.42 14.53 124.14 16.30 120.58 17.24 C 116.92 17.30 113.38 15.94 109.72 15.76 C 108.66 11.80 104.49 9.80 101.21 7.96 C 97.22 11.73 93.12 15.49 87.81 17.31 M 144.98 16.17 C 146.05 15.56 146.12 13.57 144.73 13.32 C 142.95 13.10 142.60 16.14 144.33 16.43 C 144.00 16.73 143.33 17.32 143.00 17.61 C 141.89 16.11 139.14 17.38 139.53 19.22 C 138.51 17.84 137.24 16.68 136.05 15.46 C 135.32 17.21 134.63 18.99 134.01 20.79 L 133.48 21.67 C 130.15 24.18 126.21 25.63 122.23 26.78 C 122.36 27.81 122.49 28.84 122.69 29.86 C 122.13 28.56 119.34 28.91 119.92 30.53 C 118.15 30.01 116.37 29.54 114.59 29.08 C 115.70 30.15 116.85 31.18 118.00 32.21 C 116.24 31.92 114.49 31.63 112.73 31.32 C 117.79 35.47 121.50 42.86 129.35 41.32 C 127.86 40.54 126.34 39.80 124.83 39.06 C 126.47 38.94 129.75 38.70 131.39 38.58 C 129.67 37.42 127.97 36.22 126.15 35.20 C 128.65 35.47 131.15 35.65 133.66 35.72 C 133.95 35.54 134.51 35.17 134.80 34.98 C 135.05 35.85 135.36 36.70 135.65 37.56 C 135.07 37.76 133.92 38.15 133.35 38.34 C 135.61 38.89 138.08 38.55 139.53 36.53 C 139.05 37.83 138.56 39.12 138.06 40.41 C 137.59 40.67 136.65 41.19 136.18 41.45 C 134.70 40.63 133.20 39.86 131.72 39.04 C 131.96 40.71 132.21 42.37 132.48 44.03 C 131.40 42.41 128.11 43.98 129.13 45.80 C 128.27 45.98 126.55 46.36 125.69 46.55 C 127.29 47.42 128.94 48.22 130.59 49.01 C 131.98 47.64 133.46 46.39 134.99 45.19 C 135.35 45.72 136.07 46.78 136.43 47.31 L 136.52 46.33 C 138.11 47.22 139.68 48.14 141.24 49.06 L 141.51 48.65 C 142.18 50.62 145.70 49.36 145.35 47.46 L 146.35 47.82 L 146.58 48.79 L 146.83 49.13 C 145.54 48.49 143.66 50.16 144.48 51.49 C 145.48 52.60 147.65 51.49 147.50 50.06 C 148.63 51.62 149.87 53.51 151.95 53.77 C 152.78 52.97 153.49 52.05 154.24 51.17 C 152.79 51.02 151.34 50.87 149.89 50.74 C 152.91 48.72 155.95 46.73 158.97 44.71 C 161.99 45.47 165.01 46.30 168.03 47.09 C 166.63 45.83 165.24 44.57 163.86 43.30 C 165.14 43.39 166.43 43.49 167.72 43.58 C 167.49 41.55 166.78 39.57 164.63 38.88 C 164.19 38.51 163.33 37.76 162.89 37.38 C 164.24 37.88 165.66 38.10 167.06 38.43 C 165.04 36.45 160.92 34.83 162.17 31.31 C 163.44 29.16 166.07 28.83 168.31 28.50 C 172.44 28.06 176.14 26.06 180.00 24.69 C 179.46 22.01 180.27 19.39 181.64 17.09 C 176.87 20.11 171.57 17.60 166.62 16.41 C 164.30 12.69 160.77 10.05 157.24 7.56 C 153.94 11.40 149.98 14.82 144.98 16.17 M 4.39 47.52 C 3.87 47.44 3.35 47.36 2.83 47.29 C 3.03 49.60 3.14 51.92 2.89 54.24 C 5.62 54.49 8.36 54.76 11.10 55.01 C 9.15 53.64 7.20 52.29 5.25 50.92 C 5.47 49.88 5.69 48.83 5.91 47.79 C 8.07 48.21 10.23 48.63 12.41 48.98 C 10.25 46.36 7.35 45.51 4.39 47.52 M 57.09 46.91 C 57.96 48.23 58.86 49.54 59.74 50.86 C 59.24 51.60 58.74 52.34 58.24 53.08 C 61.18 53.39 64.14 53.73 67.09 54.03 C 64.75 52.41 62.46 50.72 60.16 49.03 C 60.42 48.67 60.93 47.96 61.19 47.60 C 63.68 48.20 66.26 48.74 68.81 48.15 C 66.78 47.20 64.72 46.12 62.44 45.92 C 60.65 46.22 58.87 46.56 57.09 46.91 M 117.24 45.93 C 119.09 48.33 122.05 49.39 124.85 47.99 C 122.40 47.01 119.84 46.33 117.24 45.93 M 169.10 46.94 C 169.97 48.25 170.86 49.55 171.75 50.86 C 171.24 51.60 170.74 52.34 170.24 53.08 C 173.18 53.39 176.14 53.73 179.09 54.03 C 176.74 52.41 174.45 50.71 172.15 49.02 C 172.43 48.63 172.98 47.85 173.26 47.46 C 175.63 48.06 178.03 48.61 180.44 49.07 C 178.64 47.71 176.91 45.75 174.46 45.82 C 172.66 46.17 170.88 46.54 169.10 46.94 M 136.52 49.12 C 135.49 50.42 137.73 51.99 138.67 50.68 C 139.74 49.37 137.46 47.80 136.52 49.12 M 193.77 50.14 C 192.97 51.69 195.66 52.87 196.54 51.55 C 197.44 49.94 194.66 48.79 193.77 50.14 M 44.13 50.95 C 43.93 51.23 43.52 51.80 43.31 52.08 C 44.16 55.22 47.48 50.42 44.13 50.95 Z" />
</g>
<g id="#4179cbff">
<path fill="#4179cb" opacity="1.00" d=" M 25.69 0.00 L 30.51 0.00 C 36.79 1.52 42.79 5.34 49.49 4.30 C 52.90 3.91 55.94 2.17 59.04 0.82 C 57.54 2.76 56.07 4.73 54.63 6.71 C 49.27 6.56 43.80 6.68 38.78 4.44 C 32.49 1.04 26.65 7.70 20.27 5.96 C 16.97 5.06 13.98 6.76 11.45 8.69 C 13.02 10.50 14.57 12.32 16.15 14.11 C 12.13 14.04 8.10 14.24 4.09 14.60 C 6.44 12.74 9.05 11.15 11.09 8.93 C 10.47 6.92 9.43 5.08 8.42 3.25 C 14.75 6.09 21.83 4.00 28.42 3.42 C 27.53 2.27 26.63 1.11 25.69 0.00 Z" />
<path fill="#4179cb" opacity="1.00" d=" M 85.27 0.00 L 93.95 0.00 C 99.30 3.71 105.87 3.49 112.12 3.59 C 111.93 4.54 111.74 5.48 111.54 6.43 C 108.25 6.19 104.95 6.05 101.66 5.70 C 97.65 5.36 94.97 1.62 91.06 0.94 C 86.77 0.57 83.69 3.51 80.60 5.87 C 76.10 4.08 71.09 4.11 67.46 7.69 C 69.02 9.50 70.57 11.32 72.15 13.11 C 68.13 13.04 64.10 13.24 60.09 13.60 C 62.44 11.77 65.02 10.17 67.03 7.96 C 66.44 5.94 65.47 4.06 64.54 2.18 C 71.34 2.60 79.74 5.69 85.27 0.00 Z" />
<path fill="#4179cb" opacity="1.00" d=" M 197.30 0.00 L 205.97 0.00 C 211.26 3.76 217.78 3.54 224.00 3.60 L 224.00 6.50 C 220.03 5.92 215.98 6.10 212.03 5.40 C 208.87 4.27 206.41 1.59 203.06 0.93 C 198.77 0.57 195.69 3.51 192.60 5.87 C 188.10 4.08 183.09 4.11 179.46 7.69 C 181.02 9.50 182.57 11.31 184.15 13.11 C 180.15 13.05 176.15 13.24 172.17 13.63 C 175.43 11.31 178.63 8.57 179.19 4.38 C 185.19 2.50 192.44 4.90 197.30 0.00 Z" />
</g>
<g id="#4278caff">
<path fill="#4278ca" opacity="1.00" d=" M 138.32 0.00 L 141.00 0.00 C 139.61 1.67 138.35 3.43 137.04 5.16 C 132.46 3.13 127.21 2.89 123.46 6.70 C 125.02 8.50 126.57 10.32 128.15 12.11 C 124.12 12.04 120.10 12.24 116.09 12.60 C 118.44 10.77 121.02 9.17 123.03 6.96 C 122.45 4.96 121.49 3.10 120.56 1.24 C 125.68 1.89 130.84 2.14 135.99 2.36 C 136.58 1.77 137.74 0.59 138.32 0.00 Z" />
</g>
<g id="#3c6abefe">
<path fill="#3c6abe" opacity="1.00" d=" M 205.97 0.00 L 224.00 0.00 L 224.00 3.60 C 217.78 3.54 211.26 3.76 205.97 0.00 Z" />
</g>
<g id="#268ed9ff">
<path fill="#268ed9" opacity="1.00" d=" M 165.17 4.17 C 166.79 3.65 167.35 4.20 166.83 5.83 C 165.20 6.35 164.65 5.80 165.17 4.17 Z" />
<path fill="#268ed9" opacity="1.00" d=" M 209.28 22.28 C 210.59 21.07 211.90 19.84 213.20 18.62 C 215.17 18.98 217.14 19.36 219.09 19.79 C 219.23 20.08 219.50 20.66 219.64 20.95 C 219.47 21.26 219.14 21.90 218.98 22.21 C 218.48 22.21 217.47 22.20 216.97 22.19 C 215.12 21.84 213.10 22.07 211.78 23.54 L 211.06 24.08 C 210.47 23.47 209.87 22.88 209.28 22.28 Z" />
<path fill="#268ed9" opacity="1.00" d=" M 154.91 40.78 C 155.26 40.74 155.95 40.65 156.30 40.61 C 157.24 41.10 158.18 41.60 159.11 42.11 C 156.09 43.77 153.15 45.59 150.02 47.04 C 150.45 45.92 150.20 44.96 149.25 44.15 C 150.21 43.86 151.17 43.53 152.11 43.18 C 153.43 42.96 154.43 42.00 154.91 40.78 Z" />
<path fill="#268ed9" opacity="1.00" d=" M 45.11 42.97 C 45.47 43.06 46.19 43.22 46.55 43.31 C 47.42 43.55 48.29 43.80 49.16 44.07 C 46.29 45.65 43.45 47.31 40.46 48.66 C 40.48 47.61 39.96 46.95 38.91 46.67 C 40.03 46.13 41.12 45.51 42.16 44.82 C 43.38 44.67 44.43 44.00 45.11 42.97 Z" />
<path fill="#268ed9" opacity="1.00" d=" M 132.48 44.03 C 132.84 43.89 133.56 43.62 133.92 43.48 C 134.27 44.05 134.63 44.62 134.99 45.19 C 133.46 46.39 131.98 47.64 130.59 49.01 C 128.94 48.22 127.29 47.42 125.69 46.55 C 126.55 46.36 128.27 45.98 129.13 45.80 C 130.44 45.66 131.46 44.78 132.48 44.03 Z" />
<path fill="#268ed9" opacity="1.00" d=" M 4.39 47.52 C 7.35 45.51 10.25 46.36 12.41 48.98 C 10.23 48.63 8.07 48.21 5.91 47.79 C 5.53 47.73 4.77 47.59 4.39 47.52 Z" />
<path fill="#268ed9" opacity="1.00" d=" M 62.44 45.92 C 64.72 46.12 66.78 47.20 68.81 48.15 C 66.26 48.74 63.68 48.20 61.19 47.60 C 61.50 47.18 62.12 46.34 62.44 45.92 Z" />
<path fill="#268ed9" opacity="1.00" d=" M 117.24 45.93 C 119.84 46.33 122.40 47.01 124.85 47.99 C 122.05 49.39 119.09 48.33 117.24 45.93 Z" />
<path fill="#268ed9" opacity="1.00" d=" M 174.46 45.82 C 176.91 45.75 178.64 47.71 180.44 49.07 C 178.03 48.61 175.63 48.06 173.26 47.46 C 173.56 47.05 174.16 46.23 174.46 45.82 Z" />
<path fill="#268ed9" opacity="1.00" d=" M 34.16 48.94 C 35.42 48.90 36.67 48.86 37.93 48.73 L 38.80 49.21 C 37.90 49.59 36.11 50.33 35.22 50.71 C 33.89 51.27 32.57 51.82 31.24 52.37 C 31.46 51.81 31.90 50.68 32.12 50.11 C 32.63 49.82 33.65 49.23 34.16 48.94 Z" />
<path fill="#268ed9" opacity="1.00" d=" M 136.52 49.12 C 137.46 47.80 139.74 49.37 138.67 50.68 C 137.73 51.99 135.49 50.42 136.52 49.12 Z" />
<path fill="#268ed9" opacity="1.00" d=" M 87.54 51.10 C 87.68 49.73 89.71 49.23 90.56 50.26 L 90.72 50.88 C 90.56 52.43 87.70 52.83 87.54 51.10 Z" />
<path fill="#268ed9" opacity="1.00" d=" M 193.77 50.14 C 194.66 48.79 197.44 49.94 196.54 51.55 C 195.66 52.87 192.97 51.69 193.77 50.14 Z" />
<path fill="#268ed9" opacity="1.00" d=" M 142.23 56.00 C 140.48 53.47 145.08 53.28 144.11 56.00 L 142.23 56.00 Z" />
</g>
<g id="#3d3832ff">
<path fill="#3d3832" opacity="1.00" d=" M 33.06 16.39 C 38.15 14.72 42.14 11.04 45.95 7.44 C 49.10 10.48 52.32 13.45 55.18 16.75 C 54.89 18.03 54.60 19.31 54.31 20.59 C 53.65 20.36 52.33 19.90 51.68 19.66 C 49.24 19.51 46.80 19.48 44.36 19.57 C 43.85 19.58 42.84 19.60 42.33 19.62 C 44.37 17.38 46.07 14.86 48.26 12.75 C 47.89 12.03 47.52 11.31 47.16 10.59 C 46.84 8.50 44.43 8.73 44.00 10.63 C 43.19 11.90 42.33 13.14 41.48 14.39 C 40.19 13.70 38.31 15.16 39.66 16.39 C 39.89 16.76 40.36 17.51 40.59 17.89 C 39.49 18.00 38.49 18.51 37.54 19.06 C 37.28 19.21 36.75 19.49 36.48 19.64 C 34.93 18.68 33.36 17.73 31.75 16.87 L 32.46 16.61 L 33.06 16.39 M 47.64 15.18 C 49.79 16.33 51.96 17.43 54.20 18.40 C 52.85 15.68 50.76 13.82 47.64 15.18 Z" />
</g>
<g id="#403b32ff">
<path fill="#403b32" opacity="1.00" d=" M 87.81 17.31 C 93.12 15.49 97.22 11.73 101.21 7.96 C 104.49 9.80 108.66 11.80 109.72 15.76 C 109.86 16.78 109.96 17.80 110.05 18.82 C 109.30 18.92 107.80 19.11 107.05 19.21 C 106.81 18.10 106.55 17.00 106.29 15.90 C 104.53 16.22 102.77 16.50 101.00 16.73 C 101.14 16.00 101.40 14.55 101.54 13.82 C 102.62 13.71 103.71 13.60 104.80 13.49 C 104.25 12.52 103.70 11.56 103.17 10.58 C 102.79 8.51 100.44 8.75 99.99 10.64 C 99.18 11.85 98.33 13.02 97.48 14.20 C 96.04 14.05 95.10 14.64 94.67 15.97 C 94.52 16.63 94.23 17.94 94.08 18.59 C 93.61 18.51 92.67 18.34 92.20 18.25 C 90.73 17.96 89.27 17.64 87.81 17.31 Z" />
</g>
<g id="#464138ff">
<path fill="#464138" opacity="1.00" d=" M 144.98 16.17 C 149.98 14.82 153.94 11.40 157.24 7.56 C 160.77 10.05 164.30 12.69 166.62 16.41 C 165.61 17.00 164.61 17.60 163.59 18.17 C 161.16 17.58 158.67 17.66 156.25 18.23 L 155.42 18.10 C 156.17 16.61 156.93 15.12 157.67 13.62 C 158.73 13.53 159.80 13.45 160.86 13.37 C 160.29 12.43 159.72 11.50 159.17 10.56 C 158.73 8.51 156.37 8.72 156.05 10.71 C 155.18 12.18 154.25 13.62 153.22 14.99 C 151.90 15.77 150.65 16.66 149.48 17.65 C 148.53 17.82 147.58 18.00 146.64 18.17 C 145.32 18.13 144.01 18.03 142.70 17.92 L 143.00 17.61 C 143.33 17.32 144.00 16.73 144.33 16.43 L 144.98 16.17 M 163.12 14.25 C 162.17 13.81 160.36 14.59 160.87 15.82 C 161.80 17.43 165.00 15.44 163.12 14.25 Z" />
</g>
<g id="#403b34ff">
<path fill="#403b34" opacity="1.00" d=" M 201.02 16.44 C 206.13 14.66 210.20 11.02 214.04 7.35 C 217.68 10.53 221.17 13.95 223.34 18.33 C 221.75 18.47 220.15 18.63 218.56 18.70 C 216.38 18.55 214.20 18.48 212.03 18.42 L 210.86 18.37 C 212.66 16.49 214.37 14.53 216.29 12.76 C 215.92 12.04 215.54 11.32 215.19 10.59 C 214.85 8.47 212.49 8.78 212.01 10.64 C 211.16 11.81 210.27 12.94 209.37 14.07 C 207.92 13.71 206.27 15.79 208.19 16.43 C 208.08 16.56 207.86 16.83 207.74 16.97 C 207.14 17.63 206.75 18.43 206.43 19.25 C 205.09 19.12 203.74 19.02 202.39 18.95 C 201.63 18.17 200.79 17.49 199.88 16.91 L 200.45 16.67 L 201.02 16.44 M 219.15 14.38 C 217.67 13.61 215.60 15.90 217.74 16.56 C 219.26 17.56 221.14 15.06 219.15 14.38 Z" />
</g>
<g id="#9c8a4eff">
<path fill="#9c8a4e" opacity="1.00" d=" M 44.00 10.63 C 44.43 8.73 46.84 8.50 47.16 10.59 C 46.37 10.60 44.79 10.62 44.00 10.63 Z" />
<path fill="#9c8a4e" opacity="1.00" d=" M 99.99 10.64 C 100.44 8.75 102.79 8.51 103.17 10.58 C 102.37 10.60 100.79 10.63 99.99 10.64 Z" />
<path fill="#9c8a4e" opacity="1.00" d=" M 156.05 10.71 C 156.37 8.72 158.73 8.51 159.17 10.56 C 158.39 10.60 156.83 10.67 156.05 10.71 Z" />
<path fill="#9c8a4e" opacity="1.00" d=" M 212.01 10.64 C 212.49 8.78 214.85 8.47 215.19 10.59 C 214.39 10.60 212.81 10.63 212.01 10.64 Z" />
<path fill="#9c8a4e" opacity="1.00" d=" M 39.66 16.39 C 38.31 15.16 40.19 13.70 41.48 14.39 C 41.03 14.89 40.12 15.89 39.66 16.39 Z" />
<path fill="#9c8a4e" opacity="1.00" d=" M 94.67 15.97 C 95.10 14.64 96.04 14.05 97.48 14.20 C 96.96 14.69 95.93 15.66 95.41 16.14 L 94.67 15.97 Z" />
<path fill="#9c8a4e" opacity="1.00" d=" M 208.19 16.43 C 206.27 15.79 207.92 13.71 209.37 14.07 C 209.08 14.66 208.49 15.84 208.19 16.43 Z" />
<path fill="#9c8a4e" opacity="1.00" d=" M 23.23 20.02 C 24.05 21.66 23.13 23.55 21.38 24.03 C 21.38 23.41 21.37 22.15 21.36 21.53 L 21.87 20.69 C 22.21 20.52 22.89 20.18 23.23 20.02 Z" />
<path fill="#9c8a4e" opacity="1.00" d=" M 79.34 20.04 C 80.16 21.74 79.15 23.62 77.38 24.10 C 77.40 23.49 77.44 22.26 77.46 21.64 L 77.99 20.77 C 78.33 20.59 79.00 20.23 79.34 20.04 Z" />
<path fill="#9c8a4e" opacity="1.00" d=" M 135.34 20.06 C 136.09 21.74 135.23 23.71 133.40 24.14 C 133.42 23.52 133.46 22.29 133.48 21.67 L 134.01 20.79 C 134.34 20.61 135.01 20.24 135.34 20.06 Z" />
<path fill="#9c8a4e" opacity="1.00" d=" M 191.23 20.02 C 192.06 21.67 191.14 23.57 189.39 24.04 C 189.38 23.42 189.38 22.17 189.38 21.54 L 189.87 20.70 C 190.21 20.53 190.89 20.19 191.23 20.02 Z" />
<path fill="#9c8a4e" opacity="1.00" d=" M 68.43 28.27 C 70.06 27.50 71.71 26.75 73.36 26.00 C 72.72 27.06 72.06 28.11 71.39 29.16 L 70.95 29.81 C 70.32 29.43 69.06 28.66 68.43 28.27 Z" />
<path fill="#9c8a4e" opacity="1.00" d=" M 180.37 28.10 C 181.98 27.45 183.58 26.75 185.17 26.03 C 184.60 27.21 184.03 28.38 183.46 29.55 L 182.70 29.20 C 182.12 28.93 180.95 28.38 180.37 28.10 Z" />
<path fill="#9c8a4e" opacity="1.00" d=" M 138.06 40.41 C 138.41 40.21 139.12 39.82 139.47 39.62 C 139.75 39.96 140.30 40.64 140.58 40.99 C 140.12 41.31 139.19 41.95 138.73 42.27 L 138.22 41.91 C 138.18 41.53 138.10 40.79 138.06 40.41 Z" />
</g>
<g id="#61584aff">
<path fill="#61584a" opacity="1.00" d=" M 41.48 14.39 C 42.33 13.14 43.19 11.90 44.00 10.63 C 44.79 10.62 46.37 10.60 47.16 10.59 C 47.52 11.31 47.89 12.03 48.26 12.75 C 46.07 14.86 44.37 17.38 42.33 19.62 C 41.94 19.72 41.17 19.94 40.78 20.05 C 40.73 19.51 40.64 18.43 40.59 17.89 C 40.36 17.51 39.89 16.76 39.66 16.39 C 40.12 15.89 41.03 14.89 41.48 14.39 Z" />
</g>
<g id="#615749ff">
<path fill="#615749" opacity="1.00" d=" M 97.48 14.20 C 98.33 13.02 99.18 11.85 99.99 10.64 C 100.79 10.63 102.37 10.60 103.17 10.58 C 103.70 11.56 104.25 12.52 104.80 13.49 C 103.71 13.60 102.62 13.71 101.54 13.82 C 101.40 14.55 101.14 16.00 101.00 16.73 C 100.88 17.41 100.62 18.79 100.49 19.47 L 99.63 19.32 C 100.55 16.47 96.45 15.47 98.12 18.78 L 97.42 18.39 C 96.80 17.59 96.13 16.84 95.41 16.14 C 95.93 15.66 96.96 14.69 97.48 14.20 Z" />
</g>
<g id="#645b4fff">
<path fill="#645b4f" opacity="1.00" d=" M 153.22 14.99 C 154.25 13.62 155.18 12.18 156.05 10.71 C 156.83 10.67 158.39 10.60 159.17 10.56 C 159.72 11.50 160.29 12.43 160.86 13.37 C 159.80 13.45 158.73 13.53 157.67 13.62 C 156.93 15.12 156.17 16.61 155.42 18.10 C 154.83 18.00 153.66 17.79 153.08 17.69 C 153.11 17.01 153.18 15.66 153.22 14.99 M 155.14 14.11 C 153.82 14.80 153.81 15.47 155.11 16.14 C 156.43 15.46 156.44 14.78 155.14 14.11 Z" />
</g>
<g id="#63584aff">
<path fill="#63584a" opacity="1.00" d=" M 209.37 14.07 C 210.27 12.94 211.16 11.81 212.01 10.64 C 212.81 10.63 214.39 10.60 215.19 10.59 C 215.54 11.32 215.92 12.04 216.29 12.76 C 214.37 14.53 212.66 16.49 210.86 18.37 C 210.58 18.56 210.03 18.93 209.75 19.11 C 209.89 18.68 210.18 17.82 210.32 17.39 C 209.46 17.21 208.60 17.07 207.74 16.97 C 207.86 16.83 208.08 16.56 208.19 16.43 C 208.49 15.84 209.08 14.66 209.37 14.07 Z" />
</g>
<g id="#7993a3ff">
<path fill="#7993a3" opacity="1.00" d=" M 32.46 16.61 C 31.29 15.82 30.70 13.02 32.69 12.99 C 34.17 13.49 33.60 15.39 33.06 16.39 L 32.46 16.61 Z" />
<path fill="#7993a3" opacity="1.00" d=" M 144.33 16.43 C 142.60 16.14 142.95 13.10 144.73 13.32 C 146.12 13.57 146.05 15.56 144.98 16.17 L 144.33 16.43 Z" />
<path fill="#7993a3" opacity="1.00" d=" M 200.45 16.67 C 199.28 15.85 198.71 13.05 200.71 13.00 C 202.18 13.55 201.56 15.43 201.02 16.44 L 200.45 16.67 Z" />
<path fill="#7993a3" opacity="1.00" d=" M 219.64 20.95 C 220.48 20.33 222.36 19.43 222.91 20.86 C 222.66 22.72 220.30 22.22 218.98 22.21 C 219.14 21.90 219.47 21.26 219.64 20.95 Z" />
<path fill="#7993a3" opacity="1.00" d=" M 158.53 21.12 C 159.95 18.94 161.70 23.02 159.10 22.41 C 158.96 22.09 158.68 21.44 158.53 21.12 Z" />
<path fill="#7993a3" opacity="1.00" d=" M 99.48 22.95 C 101.14 21.83 103.18 21.90 105.04 22.41 C 103.45 23.10 101.73 23.82 99.97 23.40 L 99.48 22.95 Z" />
<path fill="#7993a3" opacity="1.00" d=" M 211.78 23.54 C 213.10 22.07 215.12 21.84 216.97 22.19 C 215.56 23.08 214.03 24.00 212.30 23.89 L 211.78 23.54 Z" />
<path fill="#7993a3" opacity="1.00" d=" M 43.47 23.99 C 45.00 22.65 47.11 22.92 48.92 23.37 C 47.37 24.05 45.70 24.74 43.96 24.43 L 43.47 23.99 Z" />
<path fill="#7993a3" opacity="1.00" d=" M 97.21 26.84 C 95.82 26.59 95.02 24.37 96.84 24.10 C 96.94 24.78 97.12 26.15 97.21 26.84 Z" />
<path fill="#7993a3" opacity="1.00" d=" M 123.25 28.18 C 123.57 27.97 124.22 27.57 124.55 27.37 C 124.76 27.76 125.19 28.54 125.40 28.92 L 125.28 29.63 C 124.77 29.27 123.75 28.54 123.25 28.18 Z" />
<path fill="#7993a3" opacity="1.00" d=" M 119.92 30.53 C 119.34 28.91 122.13 28.56 122.69 29.86 L 122.81 30.45 C 122.46 30.57 121.74 30.81 121.39 30.94 C 121.02 30.84 120.29 30.63 119.92 30.53 Z" />
<path fill="#7993a3" opacity="1.00" d=" M 62.74 31.42 C 62.45 29.83 65.09 29.54 65.58 30.90 L 65.59 31.50 C 65.18 31.61 64.36 31.85 63.95 31.97 C 63.65 31.83 63.04 31.56 62.74 31.42 Z" />
<path fill="#7993a3" opacity="1.00" d=" M 126.04 29.94 C 126.45 29.93 127.28 29.92 127.70 29.92 C 127.79 31.23 127.23 32.08 126.02 32.46 C 125.49 31.61 125.50 30.77 126.04 29.94 Z" />
<path fill="#7993a3" opacity="1.00" d=" M 174.44 31.46 C 174.87 30.20 176.58 29.82 177.49 30.81 L 177.27 31.48 C 176.85 31.69 176.00 32.10 175.58 32.30 C 175.29 32.09 174.72 31.67 174.44 31.46 Z" />
<path fill="#7993a3" opacity="1.00" d=" M 5.68 32.61 C 5.96 31.38 7.47 30.79 8.49 31.59 L 8.73 32.38 C 8.32 32.59 7.50 33.00 7.09 33.21 C 6.74 33.06 6.03 32.76 5.68 32.61 Z" />
<path fill="#7993a3" opacity="1.00" d=" M 25.88 33.94 C 27.39 32.52 28.79 34.94 27.82 36.24 C 27.29 35.83 26.23 35.00 25.70 34.59 L 25.88 33.94 Z" />
<path fill="#7993a3" opacity="1.00" d=" M 66.79 33.33 C 67.36 33.55 68.51 33.98 69.08 34.19 C 68.84 34.66 68.37 35.59 68.13 36.05 C 67.29 35.72 66.50 35.30 65.76 34.78 C 66.02 34.42 66.53 33.69 66.79 33.33 Z" />
<path fill="#7993a3" opacity="1.00" d=" M 122.80 33.87 L 123.28 33.31 C 123.72 33.17 124.60 32.89 125.04 32.76 C 125.13 33.33 125.31 34.49 125.41 35.07 C 124.43 34.91 123.56 34.51 122.80 33.87 Z" />
<path fill="#7993a3" opacity="1.00" d=" M 8.81 35.60 C 9.27 35.21 10.20 34.42 10.67 34.03 C 11.02 34.27 11.72 34.75 12.07 34.99 C 11.81 35.48 11.28 36.45 11.02 36.93 C 10.20 36.63 9.46 36.18 8.81 35.60 Z" />
<path fill="#7993a3" opacity="1.00" d=" M 178.41 34.09 L 179.01 33.50 L 179.94 33.71 L 180.69 34.14 C 180.52 34.65 180.19 35.68 180.02 36.19 C 178.92 35.92 178.39 35.22 178.41 34.09 Z" />
<path fill="#7993a3" opacity="1.00" d=" M 151.94 41.70 C 152.68 41.47 154.17 41.01 154.91 40.78 C 154.43 42.00 153.43 42.96 152.11 43.18 C 152.07 42.81 151.98 42.07 151.94 41.70 Z" />
<path fill="#7993a3" opacity="1.00" d=" M 97.15 41.92 C 97.88 42.01 99.35 42.18 100.08 42.27 C 99.51 43.60 97.40 44.58 96.93 42.59 L 97.15 41.92 Z" />
<path fill="#7993a3" opacity="1.00" d=" M 42.12 43.23 C 42.87 43.16 44.36 43.04 45.11 42.97 C 44.43 44.00 43.38 44.67 42.16 44.82 C 42.15 44.42 42.13 43.63 42.12 43.23 Z" />
<path fill="#7993a3" opacity="1.00" d=" M 147.91 45.82 C 148.10 45.40 148.48 44.54 148.66 44.11 L 149.25 44.15 C 150.20 44.96 150.45 45.92 150.02 47.04 C 149.49 46.73 148.44 46.13 147.91 45.82 Z" />
<path fill="#7993a3" opacity="1.00" d=" M 192.29 46.89 C 192.77 46.54 193.74 45.83 194.23 45.47 C 194.26 45.91 194.31 46.78 194.33 47.22 C 193.82 47.14 192.80 46.97 192.29 46.89 Z" />
<path fill="#7993a3" opacity="1.00" d=" M 93.08 46.32 L 93.45 45.47 L 94.04 45.36 C 95.06 45.98 95.50 46.86 95.37 48.02 C 94.81 47.85 93.68 47.53 93.12 47.37 L 93.08 46.32 Z" />
<path fill="#7993a3" opacity="1.00" d=" M 205.08 46.16 L 205.50 45.45 L 206.23 45.56 C 207.25 46.30 207.45 47.18 206.83 48.23 C 206.43 48.22 205.62 48.19 205.22 48.18 C 205.19 47.67 205.12 46.66 205.08 46.16 Z" />
<path fill="#7993a3" opacity="1.00" d=" M 37.79 47.88 L 38.22 46.90 L 38.91 46.67 C 39.96 46.95 40.48 47.61 40.46 48.66 C 40.05 48.80 39.21 49.08 38.80 49.21 L 37.93 48.73 L 37.79 47.88 Z" />
<path fill="#7993a3" opacity="1.00" d=" M 29.89 49.26 C 30.34 48.82 31.25 47.93 31.70 47.48 C 32.31 47.84 33.54 48.57 34.16 48.94 C 33.65 49.23 32.63 49.82 32.12 50.11 C 31.56 49.90 30.45 49.48 29.89 49.26 Z" />
<path fill="#7993a3" opacity="1.00" d=" M 198.37 48.04 L 199.23 48.12 C 199.39 48.66 199.70 49.75 199.86 50.30 C 199.36 49.91 198.36 49.13 197.86 48.73 L 198.37 48.04 Z" />
</g>
<g id="#4379caff">
<path fill="#4379ca" opacity="1.00" d=" M 120.58 17.24 C 124.14 16.30 127.42 14.53 130.85 13.20 C 131.14 13.53 131.70 14.19 131.99 14.53 C 129.34 15.34 126.57 15.94 124.14 17.32 C 123.64 19.10 123.78 20.95 123.94 22.77 C 117.27 24.50 111.61 28.54 105.89 32.18 C 106.27 34.03 106.65 35.88 107.04 37.74 C 105.57 36.74 104.10 35.75 102.59 34.83 C 103.32 33.38 104.06 31.93 104.79 30.48 C 102.96 28.01 101.10 25.56 99.48 22.95 L 99.97 23.40 C 101.88 25.05 103.79 26.97 106.34 27.56 C 112.28 26.96 117.31 23.54 122.51 20.95 C 118.81 19.07 114.66 18.78 110.56 18.85 L 110.05 18.82 C 109.96 17.80 109.86 16.78 109.72 15.76 C 113.38 15.94 116.92 17.30 120.58 17.24 Z" />
<path fill="#4379ca" opacity="1.00" d=" M 55.18 16.75 C 59.85 17.80 64.67 19.09 69.37 17.48 C 68.66 19.83 68.06 22.21 67.61 24.63 C 61.49 26.93 55.63 29.87 49.91 33.03 C 50.30 34.57 50.71 36.11 51.11 37.65 C 49.69 36.70 48.26 35.75 46.79 34.86 C 47.48 33.73 48.17 32.61 48.85 31.48 C 47.01 29.02 45.12 26.59 43.47 23.99 L 43.96 24.43 C 45.88 26.04 47.78 28.02 50.35 28.48 C 56.49 28.46 62.02 25.42 66.91 22.00 C 63.33 20.14 59.36 19.26 55.36 20.40 L 54.31 20.59 C 54.60 19.31 54.89 18.03 55.18 16.75 Z" />
<path fill="#4379ca" opacity="1.00" d=" M 60.16 38.00 C 60.87 38.04 62.29 38.13 63.00 38.17 C 64.27 38.24 65.54 38.30 66.82 38.36 C 66.54 38.73 66.00 39.49 65.72 39.86 C 65.38 40.29 64.70 41.14 64.35 41.56 C 65.94 43.16 67.54 44.75 69.06 46.41 C 64.87 45.09 62.39 41.51 60.16 38.00 Z" />
</g>
<g id="#565249ff">
<path fill="#565249" opacity="1.00" d=" M 47.64 15.18 C 50.76 13.82 52.85 15.68 54.20 18.40 C 51.96 17.43 49.79 16.33 47.64 15.18 Z" />
<path fill="#565249" opacity="1.00" d=" M 31.07 17.11 L 31.75 16.87 C 33.36 17.73 34.93 18.68 36.48 19.64 C 36.12 19.83 35.39 20.22 35.03 20.42 C 33.84 20.40 32.65 20.36 31.47 20.29 C 31.34 19.23 31.21 18.17 31.07 17.11 Z" />
<path fill="#565249" opacity="1.00" d=" M 199.36 17.12 L 199.88 16.91 C 200.79 17.49 201.63 18.17 202.39 18.95 C 201.46 19.49 200.46 20.04 199.35 20.02 C 199.27 19.05 199.27 18.09 199.36 17.12 Z" />
<path fill="#565249" opacity="1.00" d=" M 196.15 48.10 C 195.77 46.31 198.11 46.70 198.37 48.04 L 197.86 48.73 C 197.43 48.58 196.58 48.26 196.15 48.10 Z" />
</g>
<g id="#adc2d9ff">
<path fill="#adc2d9" opacity="1.00" d=" M 155.14 14.11 C 156.44 14.78 156.43 15.46 155.11 16.14 C 153.81 15.47 153.82 14.80 155.14 14.11 Z" />
<path fill="#adc2d9" opacity="1.00" d=" M 163.12 14.25 C 165.00 15.44 161.80 17.43 160.87 15.82 C 160.36 14.59 162.17 13.81 163.12 14.25 Z" />
<path fill="#adc2d9" opacity="1.00" d=" M 28.70 19.71 C 28.80 17.42 32.06 18.42 30.35 20.21 C 29.93 20.08 29.11 19.83 28.70 19.71 Z" />
<path fill="#adc2d9" opacity="1.00" d=" M 86.72 19.65 C 84.02 21.64 85.05 15.99 86.84 18.88 L 86.72 19.65 Z" />
<path fill="#adc2d9" opacity="1.00" d=" M 140.47 20.06 C 140.66 18.76 141.41 18.05 142.70 17.92 C 143.11 19.79 142.37 20.50 140.47 20.06 Z" />
<path fill="#adc2d9" opacity="1.00" d=" M 196.74 19.77 C 196.63 17.50 199.99 18.13 198.43 20.07 C 198.01 20.00 197.16 19.84 196.74 19.77 Z" />
<path fill="#adc2d9" opacity="1.00" d=" M 125.40 28.92 C 125.99 27.62 127.80 27.76 127.97 29.26 L 127.70 29.92 C 127.28 29.92 126.45 29.93 126.04 29.94 L 125.28 29.63 L 125.40 28.92 Z" />
<path fill="#adc2d9" opacity="1.00" d=" M 178.34 31.66 C 179.65 31.63 180.42 32.22 180.65 33.43 L 179.94 33.71 L 179.01 33.50 C 178.84 33.04 178.51 32.12 178.34 31.66 Z" />
<path fill="#adc2d9" opacity="1.00" d=" M 131.91 33.04 C 132.14 32.91 132.58 32.65 132.81 32.52 C 133.25 32.95 134.15 33.82 134.59 34.25 L 134.80 34.98 C 134.51 35.17 133.95 35.54 133.66 35.72 C 132.84 34.98 132.26 34.09 131.91 33.04 Z" />
<path fill="#adc2d9" opacity="1.00" d=" M 74.84 33.69 L 75.41 33.46 C 75.87 33.89 76.78 34.75 77.24 35.18 L 77.57 35.88 C 77.32 36.10 76.84 36.54 76.60 36.76 C 75.76 36.09 75.12 35.27 74.66 34.30 L 74.84 33.69 Z" />
<path fill="#adc2d9" opacity="1.00" d=" M 186.62 34.26 C 187.97 33.91 189.49 34.61 189.89 36.00 L 189.37 36.40 C 188.98 36.44 188.19 36.51 187.80 36.55 C 187.31 35.84 186.91 35.08 186.62 34.26 Z" />
<path fill="#adc2d9" opacity="1.00" d=" M 17.75 35.22 C 19.13 34.89 20.48 36.00 20.65 37.36 L 20.11 37.79 C 19.76 37.78 19.05 37.75 18.70 37.74 C 18.28 36.94 17.97 36.10 17.75 35.22 Z" />
<path fill="#adc2d9" opacity="1.00" d=" M 69.08 34.19 L 69.83 34.52 C 69.77 35.02 69.65 36.01 69.59 36.51 C 69.22 36.40 68.49 36.17 68.13 36.05 C 68.37 35.59 68.84 34.66 69.08 34.19 Z" />
<path fill="#adc2d9" opacity="1.00" d=" M 81.52 37.25 C 81.36 35.56 82.47 33.75 84.34 33.94 C 84.07 34.63 83.53 36.03 83.26 36.73 C 82.83 36.86 81.96 37.12 81.52 37.25 Z" />
<path fill="#adc2d9" opacity="1.00" d=" M 140.02 35.11 C 137.49 37.47 137.37 32.54 140.11 34.35 L 140.02 35.11 Z" />
<path fill="#adc2d9" opacity="1.00" d=" M 180.69 34.14 L 181.48 34.53 C 181.48 35.03 181.49 36.03 181.49 36.54 C 181.13 36.45 180.39 36.28 180.02 36.19 C 180.19 35.68 180.52 34.65 180.69 34.14 Z" />
<path fill="#adc2d9" opacity="1.00" d=" M 12.07 34.99 L 12.75 35.56 C 12.67 36.04 12.51 37.00 12.43 37.48 C 12.08 37.34 11.37 37.07 11.02 36.93 C 11.28 36.45 11.81 35.48 12.07 34.99 Z" />
<path fill="#adc2d9" opacity="1.00" d=" M 25.70 34.59 C 26.23 35.00 27.29 35.83 27.82 36.24 L 27.56 37.01 C 27.18 37.21 26.43 37.59 26.06 37.78 C 24.86 37.06 25.29 35.63 25.70 34.59 Z" />
<path fill="#adc2d9" opacity="1.00" d=" M 150.00 36.99 C 150.67 37.11 152.01 37.35 152.68 37.47 C 153.22 37.60 154.29 37.86 154.83 37.99 C 153.68 38.83 152.53 39.69 151.39 40.55 C 150.86 39.39 150.41 38.19 150.00 36.99 Z" />
<path fill="#adc2d9" opacity="1.00" d=" M 215.21 39.88 C 216.38 40.18 217.46 40.69 218.44 41.41 C 217.25 42.14 215.30 42.19 214.91 40.51 L 215.21 39.88 Z" />
<path fill="#adc2d9" opacity="1.00" d=" M 48.31 40.95 C 49.41 41.30 50.45 41.79 51.43 42.40 C 50.32 43.43 48.25 43.11 47.90 41.49 L 48.31 40.95 Z" />
<path fill="#adc2d9" opacity="1.00" d=" M 138.73 42.27 C 139.19 41.95 140.12 41.31 140.58 40.99 C 140.70 41.44 140.94 42.35 141.06 42.81 C 140.48 42.67 139.31 42.40 138.73 42.27 Z" />
<path fill="#adc2d9" opacity="1.00" d=" M 205.50 45.45 C 205.97 44.21 206.96 43.05 208.40 43.04 C 208.38 44.45 207.66 45.29 206.23 45.56 L 205.50 45.45 Z" />
</g>
<g id="#646461ff">
<path fill="#646461" opacity="1.00" d=" M 219.15 14.38 C 221.14 15.06 219.26 17.56 217.74 16.56 C 215.60 15.90 217.67 13.61 219.15 14.38 Z" />
</g>
<g id="#7e98acff">
<path fill="#7e98ac" opacity="1.00" d=" M 101.00 16.73 C 102.77 16.50 104.53 16.22 106.29 15.90 C 106.55 17.00 106.81 18.10 107.05 19.21 L 107.02 19.96 C 105.14 19.78 103.26 19.69 101.38 19.59 L 100.49 19.47 C 100.62 18.79 100.88 17.41 101.00 16.73 Z" />
</g>
<g id="#a4bad0ff">
<path fill="#a4bad0" opacity="1.00" d=" M 149.48 17.65 C 150.65 16.66 151.90 15.77 153.22 14.99 C 153.18 15.66 153.11 17.01 153.08 17.69 C 151.89 17.99 150.69 17.98 149.48 17.65 Z" />
</g>
<g id="#36312eff">
<path fill="#36312e" opacity="1.00" d=" M 24.18 15.96 C 25.18 16.87 26.18 17.78 27.21 18.66 L 27.90 19.25 C 28.62 20.98 29.25 22.76 29.87 24.53 C 30.80 24.06 31.74 23.59 32.67 23.11 C 32.89 23.37 33.32 23.88 33.54 24.14 C 35.36 26.41 37.38 28.52 39.61 30.39 C 38.26 31.11 36.94 31.86 35.70 32.73 C 35.21 33.42 34.74 34.13 34.29 34.86 C 33.68 34.68 32.48 34.32 31.88 34.14 C 31.30 34.13 30.14 34.10 29.56 34.09 C 29.63 35.64 29.72 37.18 29.80 38.73 C 29.30 38.97 28.80 39.21 28.30 39.45 C 27.75 39.77 26.65 40.40 26.10 40.72 C 24.87 41.57 23.66 42.45 22.42 43.30 C 21.25 44.06 20.04 44.77 18.81 45.42 C 18.22 45.80 17.03 46.56 16.44 46.94 L 15.83 47.55 C 15.38 47.17 14.48 46.41 14.03 46.03 C 19.03 43.91 24.09 41.33 27.56 37.01 L 27.82 36.24 C 28.79 34.94 27.39 32.52 25.88 33.94 C 24.08 34.99 22.31 36.10 20.65 37.36 C 20.48 36.00 19.13 34.89 17.75 35.22 C 16.09 35.36 14.42 35.48 12.75 35.56 L 12.07 34.99 C 11.72 34.75 11.02 34.27 10.67 34.03 C 15.37 33.21 20.08 32.42 24.83 31.84 C 23.85 30.49 22.87 29.13 21.90 27.78 C 24.46 27.77 27.03 27.66 29.58 27.43 C 28.89 26.09 28.22 24.75 27.48 23.44 C 26.84 22.38 25.88 22.01 24.60 22.33 C 25.05 21.15 25.49 19.98 25.93 18.80 C 25.03 19.20 24.13 19.61 23.23 20.02 C 22.89 20.18 22.21 20.52 21.87 20.69 C 22.68 19.13 23.42 17.54 24.18 15.96 Z" />
</g>
<g id="#38332fff">
<path fill="#38332f" opacity="1.00" d=" M 80.11 15.41 C 82.66 18.10 84.62 21.26 86.18 24.60 C 87.12 24.20 88.05 23.80 88.99 23.40 C 89.12 23.52 89.38 23.77 89.51 23.89 C 91.32 26.18 93.23 28.39 95.41 30.34 C 94.10 31.17 92.80 32.02 91.55 32.95 C 91.11 33.56 90.69 34.19 90.28 34.84 C 89.68 34.66 88.48 34.32 87.87 34.14 C 87.31 34.13 86.17 34.11 85.60 34.10 C 85.62 35.63 85.65 37.16 85.68 38.68 C 85.25 38.98 84.81 39.27 84.38 39.56 C 82.86 40.59 81.33 41.61 79.75 42.53 C 78.78 43.04 77.81 43.54 76.82 44.00 C 78.98 41.59 81.23 39.26 83.26 36.73 C 83.53 36.03 84.07 34.63 84.34 33.94 C 81.97 34.30 79.61 34.80 77.24 35.18 C 76.78 34.75 75.87 33.89 75.41 33.46 C 76.86 32.86 78.31 32.26 79.76 31.66 C 79.22 30.37 78.69 29.07 78.15 27.77 C 80.63 27.76 83.11 27.65 85.58 27.42 C 84.89 26.09 84.22 24.75 83.48 23.44 C 82.84 22.38 81.88 22.00 80.60 22.33 C 81.04 21.15 81.48 19.96 81.91 18.78 C 81.05 19.20 80.20 19.62 79.34 20.04 C 79.00 20.23 78.33 20.59 77.99 20.77 C 78.64 18.96 79.35 17.17 80.11 15.41 Z" />
</g>
<g id="#90a1b2ff">
<path fill="#90a1b2" opacity="1.00" d=" M 94.67 15.97 L 95.41 16.14 C 96.13 16.84 96.80 17.59 97.42 18.39 C 96.32 18.82 95.21 18.89 94.08 18.59 C 94.23 17.94 94.52 16.63 94.67 15.97 Z" />
</g>
<g id="#869eb0ff">
<path fill="#869eb0" opacity="1.00" d=" M 98.12 18.78 C 96.45 15.47 100.55 16.47 99.63 19.32 C 99.25 19.18 98.50 18.92 98.12 18.78 Z" />
<path fill="#869eb0" opacity="1.00" d=" M 201.88 46.58 C 202.53 46.73 203.82 47.04 204.47 47.19 C 204.10 48.30 202.62 48.97 201.71 48.05 C 201.75 47.68 201.84 46.95 201.88 46.58 Z" />
</g>
<g id="#342f2bff">
<path fill="#342f2b" opacity="1.00" d=" M 136.05 15.46 C 137.24 16.68 138.51 17.84 139.53 19.22 L 139.93 19.93 C 140.74 21.49 141.48 23.09 142.23 24.68 C 143.09 24.24 143.96 23.79 144.83 23.35 C 145.02 23.54 145.41 23.93 145.60 24.12 C 147.38 26.27 149.22 28.39 151.30 30.26 C 150.09 31.09 148.88 31.93 147.73 32.85 C 147.20 33.47 146.70 34.10 146.22 34.76 C 145.61 34.56 144.38 34.15 143.77 33.95 C 142.18 35.72 140.92 37.74 139.47 39.62 C 139.12 39.82 138.41 40.21 138.06 40.41 C 138.56 39.12 139.05 37.83 139.53 36.53 C 139.65 36.18 139.90 35.46 140.02 35.11 L 140.11 34.35 C 140.16 33.87 140.26 32.91 140.31 32.43 C 138.41 33.06 136.52 33.70 134.59 34.25 C 134.15 33.82 133.25 32.95 132.81 32.52 L 133.47 32.06 C 134.99 31.02 136.48 29.95 137.94 28.83 C 139.12 27.92 140.27 26.99 141.42 26.05 C 140.77 25.18 140.14 24.30 139.48 23.44 C 138.77 22.45 137.80 22.09 136.57 22.34 C 137.02 21.15 137.46 19.96 137.91 18.77 C 137.05 19.20 136.20 19.63 135.34 20.06 C 135.01 20.24 134.34 20.61 134.01 20.79 C 134.63 18.99 135.32 17.21 136.05 15.46 Z" />
<path fill="#342f2b" opacity="1.00" d=" M 144.13 40.62 C 146.11 40.91 148.10 41.13 150.08 41.35 C 149.54 42.23 149.07 43.16 148.66 44.11 C 148.48 44.54 148.10 45.40 147.91 45.82 C 147.58 46.56 146.91 48.05 146.58 48.79 L 146.35 47.82 C 146.19 47.12 145.85 45.70 145.68 45.00 C 145.45 43.91 144.87 43.06 143.95 42.43 C 143.99 41.98 144.08 41.08 144.13 40.62 Z" />
</g>
<g id="#829db5ff">
<path fill="#829db5" opacity="1.00" d=" M 156.25 18.23 C 158.67 17.66 161.16 17.58 163.59 18.17 L 162.55 18.74 C 160.90 18.69 159.24 18.61 157.59 18.48 L 156.25 18.23 Z" />
</g>
<g id="#457bc9ff">
<path fill="#457bc9" opacity="1.00" d=" M 166.62 16.41 C 171.57 17.60 176.87 20.11 181.64 17.09 C 180.27 19.39 179.46 22.01 180.00 24.69 C 176.14 26.06 172.44 28.06 168.31 28.50 C 166.07 28.83 163.44 29.16 162.17 31.31 C 160.92 34.83 165.04 36.45 167.06 38.43 C 165.66 38.10 164.24 37.88 162.89 37.38 C 161.44 36.52 160.00 35.65 158.54 34.80 C 159.34 32.68 160.18 30.57 161.05 28.47 C 159.22 27.19 157.40 25.91 155.60 24.60 C 159.78 25.67 164.04 26.60 168.37 26.64 C 172.36 26.53 175.81 24.24 178.99 22.06 C 175.27 20.30 171.24 19.43 167.15 19.15 C 166.37 19.08 164.82 18.93 164.04 18.85 C 163.67 18.82 162.93 18.77 162.55 18.74 L 163.59 18.17 C 164.61 17.60 165.61 17.00 166.62 16.41 Z" />
</g>
<g id="#342f2bfe">
<path fill="#342f2b" opacity="1.00" d=" M 192.19 15.93 C 193.21 16.91 194.24 17.87 195.29 18.81 L 195.92 19.39 C 196.63 21.07 197.27 22.77 197.90 24.48 C 198.82 24.09 199.75 23.68 200.68 23.30 C 200.90 23.50 201.33 23.91 201.54 24.11 C 203.39 26.26 205.25 28.39 207.35 30.30 C 206.05 31.18 204.76 32.07 203.53 33.03 C 203.10 33.62 202.70 34.23 202.32 34.85 C 201.71 34.70 200.50 34.41 199.90 34.26 C 198.90 34.34 197.91 34.43 196.93 34.53 C 195.43 33.50 193.88 32.54 192.37 31.53 C 191.54 30.28 190.70 29.03 189.87 27.78 C 192.44 27.78 195.02 27.67 197.58 27.43 C 196.89 26.10 196.22 24.75 195.48 23.44 C 194.84 22.38 193.88 22.01 192.60 22.33 C 193.04 21.15 193.49 19.97 193.93 18.79 C 193.03 19.20 192.13 19.61 191.23 20.02 C 190.89 20.19 190.21 20.53 189.87 20.70 C 190.68 19.13 191.43 17.53 192.19 15.93 Z" />
</g>
<g id="#417ccafe">
<path fill="#417cca" opacity="1.00" d=" M 0.00 17.38 C 6.40 20.76 13.38 19.31 20.04 17.70 C 16.75 19.35 13.47 21.01 10.35 22.96 C 12.63 23.33 14.91 23.70 17.18 24.13 C 15.08 25.20 12.94 26.18 10.89 27.35 C 10.28 28.18 9.72 29.05 9.18 29.93 C 9.00 30.34 8.66 31.18 8.49 31.59 C 7.47 30.79 5.96 31.38 5.68 32.61 C 4.18 32.05 2.67 31.55 1.15 31.05 C 0.86 30.64 0.29 29.83 0.00 29.42 L 0.00 28.71 C 4.00 27.74 7.90 26.31 11.33 23.99 C 7.82 21.76 3.90 20.36 0.00 18.98 L 0.00 17.38 Z" />
</g>
<g id="#7793adff">
<path fill="#7793ad" opacity="1.00" d=" M 27.21 18.66 C 28.49 18.12 29.77 17.59 31.07 17.11 C 31.21 18.17 31.34 19.23 31.47 20.29 L 30.35 20.21 C 32.06 18.42 28.80 17.42 28.70 19.71 L 27.90 19.25 L 27.21 18.66 Z" />
<path fill="#7793ad" opacity="1.00" d=" M 195.29 18.81 C 196.63 18.24 197.99 17.68 199.36 17.12 C 199.27 18.09 199.27 19.05 199.35 20.02 L 198.43 20.07 C 199.99 18.13 196.63 17.50 196.74 19.77 L 195.92 19.39 L 195.29 18.81 Z" />
</g>
<g id="#5d5f5bff">
<path fill="#5d5f5b" opacity="1.00" d=" M 87.09 17.15 L 87.81 17.31 C 89.27 17.64 90.73 17.96 92.20 18.25 C 91.84 18.51 91.12 19.04 90.76 19.30 C 90.24 19.70 89.18 20.48 88.65 20.88 C 88.17 20.57 87.20 19.96 86.72 19.65 L 86.84 18.88 C 86.90 18.45 87.03 17.59 87.09 17.15 Z" />
</g>
<g id="#6c8ba8ff">
<path fill="#6c8ba8" opacity="1.00" d=" M 139.53 19.22 C 139.14 17.38 141.89 16.11 143.00 17.61 L 142.70 17.92 C 141.41 18.05 140.66 18.76 140.47 20.06 L 139.93 19.93 L 139.53 19.22 Z" />
</g>
<g id="#7892a2fe">
<path fill="#7892a2" opacity="1.00" d=" M 146.64 18.17 C 147.58 18.00 148.53 17.82 149.48 17.65 C 150.69 17.98 151.89 17.99 153.08 17.69 C 152.80 18.28 152.26 19.48 151.98 20.07 C 149.97 20.15 147.95 20.10 145.93 20.10 C 146.11 19.62 146.46 18.66 146.64 18.17 Z" />
<path fill="#7892a2" opacity="1.00" d=" M 36.48 19.64 C 36.75 19.49 37.28 19.21 37.54 19.06 C 38.50 19.84 39.58 20.16 40.78 20.05 C 40.70 20.58 40.54 21.64 40.46 22.17 C 38.24 21.89 36.01 21.79 33.78 21.82 C 34.09 21.47 34.72 20.77 35.03 20.42 C 35.39 20.22 36.12 19.83 36.48 19.64 Z" />
</g>
<g id="#99abbcfe">
<path fill="#99abbc" opacity="1.00" d=" M 206.43 19.25 C 206.75 18.43 207.14 17.63 207.74 16.97 C 208.60 17.07 209.46 17.21 210.32 17.39 C 210.18 17.82 209.89 18.68 209.75 19.11 L 209.13 19.54 C 208.46 19.47 207.11 19.32 206.43 19.25 Z" />
</g>
<g id="#87a1bbff">
<path fill="#87a1bb" opacity="1.00" d=" M 212.03 18.42 C 214.20 18.48 216.38 18.55 218.56 18.70 L 219.09 19.79 C 217.14 19.36 215.17 18.98 213.20 18.62 L 212.03 18.42 Z" />
</g>
<g id="#a2b8ceff">
<path fill="#a2b8ce" opacity="1.00" d=" M 37.54 19.06 C 38.49 18.51 39.49 18.00 40.59 17.89 C 40.64 18.43 40.73 19.51 40.78 20.05 C 39.58 20.16 38.50 19.84 37.54 19.06 Z" />
</g>
<g id="#7596b6ff">
<path fill="#7596b6" opacity="1.00" d=" M 44.36 19.57 C 46.80 19.48 49.24 19.51 51.68 19.66 C 50.22 21.82 53.34 22.10 54.31 20.59 L 55.36 20.40 C 53.99 21.22 52.59 22.03 51.08 22.57 C 49.14 21.78 47.26 20.86 45.34 20.00 L 44.36 19.57 Z" />
</g>
<g id="#7892a2ff">
<path fill="#7892a2" opacity="1.00" d=" M 92.20 18.25 C 92.67 18.34 93.61 18.51 94.08 18.59 C 95.21 18.89 96.32 18.82 97.42 18.39 C 97.17 19.13 96.68 20.61 96.43 21.34 C 94.10 20.92 91.75 20.66 89.41 20.35 C 89.75 20.09 90.43 19.56 90.76 19.30 C 91.12 19.04 91.84 18.51 92.20 18.25 Z" />
<path fill="#7892a2" opacity="1.00" d=" M 202.39 18.95 C 203.74 19.02 205.09 19.12 206.43 19.25 C 207.11 19.32 208.46 19.47 209.13 19.54 C 208.70 19.86 207.83 20.50 207.39 20.82 C 205.48 20.81 203.57 20.78 201.66 20.75 C 201.84 20.30 202.21 19.40 202.39 18.95 Z" />
</g>
<g id="#3c6bbdff">
<path fill="#3c6bbd" opacity="1.00" d=" M 110.56 18.85 C 114.66 18.78 118.81 19.07 122.51 20.95 C 117.31 23.54 112.28 26.96 106.34 27.56 C 103.79 26.97 101.88 25.05 99.97 23.40 C 101.73 23.82 103.45 23.10 105.04 22.41 C 105.63 22.36 106.82 22.26 107.42 22.21 C 109.36 22.51 111.47 20.95 110.56 18.85 Z" />
<path fill="#3c6bbd" opacity="1.00" d=" M 167.15 19.15 C 171.24 19.43 175.27 20.30 178.99 22.06 C 175.81 24.24 172.36 26.53 168.37 26.64 C 164.04 26.60 159.78 25.67 155.60 24.60 C 157.40 25.91 159.22 27.19 161.05 28.47 C 160.18 30.57 159.34 32.68 158.54 34.80 C 156.37 33.56 154.19 32.32 152.09 30.97 L 151.30 30.26 C 149.22 28.39 147.38 26.27 145.60 24.12 C 148.70 26.03 151.85 27.89 154.78 30.07 C 153.90 27.65 153.03 25.23 152.18 22.80 C 155.87 23.28 159.59 23.67 163.32 23.60 C 164.73 22.24 165.98 20.73 167.15 19.15 Z" />
</g>
<g id="#3d6fc1ff">
<path fill="#3d6fc1" opacity="1.00" d=" M 142.70 17.92 C 144.01 18.03 145.32 18.13 146.64 18.17 C 146.46 18.66 146.11 19.62 145.93 20.10 C 145.56 21.18 145.20 22.26 144.83 23.35 C 143.96 23.79 143.09 24.24 142.23 24.68 C 141.48 23.09 140.74 21.49 139.93 19.93 L 140.47 20.06 C 142.37 20.50 143.11 19.79 142.70 17.92 Z" />
<path fill="#3d6fc1" opacity="1.00" d=" M 199.35 20.02 C 200.46 20.04 201.46 19.49 202.39 18.95 C 202.21 19.40 201.84 20.30 201.66 20.75 C 201.42 21.39 200.93 22.66 200.68 23.30 C 199.75 23.68 198.82 24.09 197.90 24.48 C 197.27 22.77 196.63 21.07 195.92 19.39 L 196.74 19.77 C 197.16 19.84 198.01 20.00 198.43 20.07 L 199.35 20.02 Z" />
<path fill="#3d6fc1" opacity="1.00" d=" M 27.90 19.25 L 28.70 19.71 C 29.11 19.83 29.93 20.08 30.35 20.21 L 31.47 20.29 C 32.65 20.36 33.84 20.40 35.03 20.42 C 34.72 20.77 34.09 21.47 33.78 21.82 C 33.50 22.14 32.95 22.79 32.67 23.11 C 31.74 23.59 30.80 24.06 29.87 24.53 C 29.25 22.76 28.62 20.98 27.90 19.25 Z" />
</g>
<g id="#4372bcff">
<path fill="#4372bc" opacity="1.00" d=" M 153.08 17.69 C 153.66 17.79 154.83 18.00 155.42 18.10 L 156.25 18.23 L 157.59 18.48 C 155.73 19.03 153.89 19.69 151.98 20.07 C 152.26 19.48 152.80 18.28 153.08 17.69 Z" />
</g>
<g id="#5f5649ff">
<path fill="#5f5649" opacity="1.00" d=" M 23.23 20.02 C 24.13 19.61 25.03 19.20 25.93 18.80 C 25.49 19.98 25.05 21.15 24.60 22.33 C 22.87 24.86 26.90 26.34 27.48 23.44 C 28.22 24.75 28.89 26.09 29.58 27.43 C 27.03 27.66 24.46 27.77 21.90 27.78 C 22.87 29.13 23.85 30.49 24.83 31.84 C 20.08 32.42 15.37 33.21 10.67 34.03 L 10.66 33.17 C 10.89 31.96 10.73 30.11 9.18 29.93 C 9.72 29.05 10.28 28.18 10.89 27.35 C 11.31 27.55 12.14 27.94 12.55 28.14 C 13.62 28.64 14.68 29.16 15.75 29.66 C 16.23 28.44 16.73 27.23 17.21 26.01 C 18.61 25.37 20.00 24.71 21.38 24.03 C 23.13 23.55 24.05 21.66 23.23 20.02 M 16.51 30.76 C 18.31 30.88 20.12 31.00 21.92 31.12 C 21.51 29.69 21.10 28.26 20.70 26.83 C 19.27 28.11 17.89 29.44 16.51 30.76 Z" />
</g>
<g id="#3c6bbdfe">
<path fill="#3c6bbd" opacity="1.00" d=" M 55.36 20.40 C 59.36 19.26 63.33 20.14 66.91 22.00 C 62.02 25.42 56.49 28.46 50.35 28.48 C 47.78 28.02 45.88 26.04 43.96 24.43 C 45.70 24.74 47.37 24.05 48.92 23.37 C 49.46 23.17 50.54 22.77 51.08 22.57 C 52.59 22.03 53.99 21.22 55.36 20.40 Z" />
</g>
<g id="#655b4cff">
<path fill="#655b4c" opacity="1.00" d=" M 79.34 20.04 C 80.20 19.62 81.05 19.20 81.91 18.78 C 81.48 19.96 81.04 21.15 80.60 22.33 C 78.87 24.86 82.90 26.34 83.48 23.44 C 84.22 24.75 84.89 26.09 85.58 27.42 C 83.11 27.65 80.63 27.76 78.15 27.77 C 78.69 29.07 79.22 30.37 79.76 31.66 C 78.31 32.26 76.86 32.86 75.41 33.46 L 74.84 33.69 C 74.68 33.23 74.35 32.31 74.19 31.85 C 74.03 31.54 73.72 30.92 73.56 30.62 C 73.02 30.25 71.94 29.52 71.39 29.16 C 72.06 28.11 72.72 27.06 73.36 26.00 C 74.71 25.38 76.04 24.75 77.38 24.10 C 79.15 23.62 80.16 21.74 79.34 20.04 Z" />
</g>
<g id="#4271bcff">
<path fill="#4271bc" opacity="1.00" d=" M 97.42 18.39 L 98.12 18.78 C 98.50 18.92 99.25 19.18 99.63 19.32 L 100.49 19.47 L 101.38 19.59 C 99.57 20.56 97.80 21.61 96.03 22.65 C 96.13 22.32 96.33 21.67 96.43 21.34 C 96.68 20.61 97.17 19.13 97.42 18.39 Z" />
<path fill="#4271bc" opacity="1.00" d=" M 40.78 20.05 C 41.17 19.94 41.94 19.72 42.33 19.62 C 42.84 19.60 43.85 19.58 44.36 19.57 L 45.34 20.00 C 43.67 21.29 41.97 22.56 40.29 23.84 C 40.33 23.42 40.42 22.59 40.46 22.17 C 40.54 21.64 40.70 20.58 40.78 20.05 Z" />
</g>
<g id="#3c6bbeff">
<path fill="#3c6bbe" opacity="1.00" d=" M 107.05 19.21 C 107.80 19.11 109.30 18.92 110.05 18.82 C 109.45 19.71 108.69 20.44 107.77 21.00 C 107.58 20.74 107.21 20.22 107.02 19.96 L 107.05 19.21 Z" />
<path fill="#3c6bbe" opacity="1.00" d=" M 51.68 19.66 C 52.33 19.90 53.65 20.36 54.31 20.59 C 53.34 22.10 50.22 21.82 51.68 19.66 Z" />
<path fill="#3c6bbe" opacity="1.00" d=" M 121.39 30.94 C 121.74 30.81 122.46 30.57 122.81 30.45 C 122.93 31.16 123.17 32.59 123.28 33.31 L 122.80 33.87 C 121.52 33.24 121.05 32.26 121.39 30.94 Z" />
<path fill="#3c6bbe" opacity="1.00" d=" M 63.95 31.97 C 64.36 31.85 65.18 31.61 65.59 31.50 C 65.89 31.95 66.49 32.87 66.79 33.33 C 66.53 33.69 66.02 34.42 65.76 34.78 C 64.55 34.23 63.95 33.30 63.95 31.97 Z" />
<path fill="#3c6bbe" opacity="1.00" d=" M 175.58 32.30 C 176.00 32.10 176.85 31.69 177.27 31.48 L 178.34 31.66 C 178.51 32.12 178.84 33.04 179.01 33.50 L 178.41 34.09 C 177.10 34.13 176.15 33.54 175.58 32.30 Z" />
<path fill="#3c6bbe" opacity="1.00" d=" M 219.93 43.31 C 221.28 42.78 222.64 42.24 224.00 41.71 L 224.00 45.61 C 222.66 44.82 221.29 44.07 219.93 43.31 Z" />
</g>
<g id="#6485acff">
<path fill="#6485ac" opacity="1.00" d=" M 110.05 18.82 L 110.56 18.85 C 111.47 20.95 109.36 22.51 107.42 22.21 C 107.50 21.91 107.68 21.30 107.77 21.00 C 108.69 20.44 109.45 19.71 110.05 18.82 Z" />
</g>
<g id="#665c4eff">
<path fill="#665c4e" opacity="1.00" d=" M 135.34 20.06 C 136.20 19.63 137.05 19.20 137.91 18.77 C 137.46 19.96 137.02 21.15 136.57 22.34 C 134.82 24.89 138.96 26.38 139.48 23.44 C 140.14 24.30 140.77 25.18 141.42 26.05 C 140.27 26.99 139.12 27.92 137.94 28.83 C 137.45 28.45 136.45 27.71 135.96 27.33 C 133.96 25.70 133.31 29.62 135.07 30.33 C 134.67 30.76 133.87 31.63 133.47 32.06 L 132.81 32.52 C 132.58 32.65 132.14 32.91 131.91 33.04 L 131.48 33.22 C 130.20 32.14 128.96 31.02 127.70 29.92 L 127.97 29.26 C 128.40 28.12 128.83 26.98 129.25 25.83 C 130.65 25.31 132.03 24.73 133.40 24.14 C 135.23 23.71 136.09 21.74 135.34 20.06 Z" />
</g>
<g id="#298bd5ff">
<path fill="#298bd5" opacity="1.00" d=" M 145.93 20.10 C 147.95 20.10 149.97 20.15 151.98 20.07 C 153.89 19.69 155.73 19.03 157.59 18.48 C 159.24 18.61 160.90 18.69 162.55 18.74 C 162.93 18.77 163.67 18.82 164.04 18.85 C 163.79 20.43 163.56 22.02 163.32 23.60 C 159.59 23.67 155.87 23.28 152.18 22.80 C 153.03 25.23 153.90 27.65 154.78 30.07 C 151.85 27.89 148.70 26.03 145.60 24.12 C 145.41 23.93 145.02 23.54 144.83 23.35 C 145.20 22.26 145.56 21.18 145.93 20.10 M 158.53 21.12 C 158.68 21.44 158.96 22.09 159.10 22.41 C 161.70 23.02 159.95 18.94 158.53 21.12 Z" />
</g>
<g id="#6687abff">
<path fill="#6687ab" opacity="1.00" d=" M 164.04 18.85 C 164.82 18.93 166.37 19.08 167.15 19.15 C 165.98 20.73 164.73 22.24 163.32 23.60 C 163.56 22.02 163.79 20.43 164.04 18.85 Z" />
</g>
<g id="#635a4cff">
<path fill="#635a4c" opacity="1.00" d=" M 191.23 20.02 C 192.13 19.61 193.03 19.20 193.93 18.79 C 193.49 19.97 193.04 21.15 192.60 22.33 C 190.87 24.86 194.90 26.34 195.48 23.44 C 196.22 24.75 196.89 26.10 197.58 27.43 C 195.02 27.67 192.44 27.78 189.87 27.78 C 190.70 29.03 191.54 30.28 192.37 31.53 L 192.95 32.56 C 190.44 31.69 187.88 30.99 185.36 30.20 C 186.82 30.65 188.29 31.06 189.77 31.47 C 189.52 30.05 189.27 28.63 189.03 27.21 C 187.58 28.15 186.14 29.11 184.64 29.97 C 184.35 29.87 183.76 29.65 183.46 29.55 C 184.03 28.38 184.60 27.21 185.17 26.03 C 186.58 25.39 187.98 24.72 189.39 24.04 C 191.14 23.57 192.06 21.67 191.23 20.02 Z" />
</g>
<g id="#3e6dbbff">
<path fill="#3e6dbb" opacity="1.00" d=" M 209.13 19.54 L 209.75 19.11 C 210.03 18.93 210.58 18.56 210.86 18.37 L 212.03 18.42 L 213.20 18.62 C 211.90 19.84 210.59 21.07 209.28 22.28 C 209.87 22.88 210.47 23.47 211.06 24.08 C 213.02 26.15 215.02 28.16 217.06 30.15 C 216.25 31.69 215.43 33.23 214.61 34.76 C 212.41 33.55 210.22 32.33 208.10 30.99 L 207.35 30.30 C 205.25 28.39 203.39 26.26 201.54 24.11 C 204.69 26.01 207.85 27.90 210.82 30.07 C 209.61 27.01 208.46 23.93 207.39 20.82 C 207.83 20.50 208.70 19.86 209.13 19.54 Z" />
</g>
<g id="#3c6abeff">
<path fill="#3c6abe" opacity="1.00" d=" M 0.00 18.98 C 3.90 20.36 7.82 21.76 11.33 23.99 C 7.90 26.31 4.00 27.74 0.00 28.71 L 0.00 18.98 Z" />
</g>
<g id="#268cd8ff">
<path fill="#268cd8" opacity="1.00" d=" M 89.41 20.35 C 91.75 20.66 94.10 20.92 96.43 21.34 C 96.33 21.67 96.13 22.32 96.03 22.65 C 97.80 21.61 99.57 20.56 101.38 19.59 C 103.26 19.69 105.14 19.78 107.02 19.96 C 107.21 20.22 107.58 20.74 107.77 21.00 C 107.68 21.30 107.50 21.91 107.42 22.21 C 106.82 22.26 105.63 22.36 105.04 22.41 C 103.18 21.90 101.14 21.83 99.48 22.95 C 98.61 23.35 97.73 23.73 96.84 24.10 C 95.02 24.37 95.82 26.59 97.21 26.84 C 97.77 27.94 98.33 29.05 98.90 30.16 C 96.04 27.68 93.02 25.36 89.51 23.89 C 89.38 23.77 89.12 23.52 88.99 23.40 C 89.10 22.64 89.31 21.11 89.41 20.35 Z" />
<path fill="#268cd8" opacity="1.00" d=" M 58.07 29.94 C 59.64 30.40 61.22 30.83 62.74 31.42 C 63.04 31.56 63.65 31.83 63.95 31.97 C 63.95 33.30 64.55 34.23 65.76 34.78 C 66.50 35.30 67.29 35.72 68.13 36.05 C 68.49 36.17 69.22 36.40 69.59 36.51 C 71.40 37.39 73.08 38.52 74.76 39.65 C 71.52 40.05 68.32 40.55 65.07 40.79 L 65.72 39.86 C 66.00 39.49 66.54 38.73 66.82 38.36 C 65.54 38.30 64.27 38.24 63.00 38.17 C 63.10 37.91 63.30 37.39 63.40 37.13 C 62.18 35.72 61.06 34.24 60.03 32.68 C 58.96 32.70 57.89 32.72 56.83 32.74 C 57.24 31.81 57.66 30.87 58.07 29.94 Z" />
</g>
<g id="#268dd8ff">
<path fill="#268dd8" opacity="1.00" d=" M 201.66 20.75 C 203.57 20.78 205.48 20.81 207.39 20.82 C 208.46 23.93 209.61 27.01 210.82 30.07 C 207.85 27.90 204.69 26.01 201.54 24.11 C 201.33 23.91 200.90 23.50 200.68 23.30 C 200.93 22.66 201.42 21.39 201.66 20.75 Z" />
<path fill="#268dd8" opacity="1.00" d=" M 169.72 30.04 C 171.30 30.49 172.88 30.93 174.44 31.46 C 174.72 31.67 175.29 32.09 175.58 32.30 C 176.15 33.54 177.10 34.13 178.41 34.09 C 178.39 35.22 178.92 35.92 180.02 36.19 C 180.39 36.28 181.13 36.45 181.49 36.54 C 183.27 37.63 184.95 38.86 186.63 40.10 C 179.01 40.76 174.15 35.14 169.72 30.04 Z" />
<path fill="#268dd8" opacity="1.00" d=" M 17.61 41.10 C 10.15 41.74 5.08 36.46 1.15 31.05 C 2.67 31.55 4.18 32.05 5.68 32.61 C 6.03 32.76 6.74 33.06 7.09 33.21 C 7.45 34.17 8.03 34.97 8.81 35.60 C 9.46 36.18 10.20 36.63 11.02 36.93 C 11.37 37.07 12.08 37.34 12.43 37.48 C 14.22 38.59 15.92 39.83 17.61 41.10 Z" />
</g>
<g id="#2c8dd5ff">
<path fill="#2c8dd5" opacity="1.00" d=" M 33.78 21.82 C 36.01 21.79 38.24 21.89 40.46 22.17 C 40.42 22.59 40.33 23.42 40.29 23.84 C 41.97 22.56 43.67 21.29 45.34 20.00 C 47.26 20.86 49.14 21.78 51.08 22.57 C 50.54 22.77 49.46 23.17 48.92 23.37 C 47.11 22.92 45.00 22.65 43.47 23.99 C 42.76 24.46 42.04 24.91 41.32 25.37 C 41.76 26.92 42.22 28.48 42.68 30.03 C 39.75 27.88 36.64 26.01 33.54 24.14 C 33.32 23.88 32.89 23.37 32.67 23.11 C 32.95 22.79 33.50 22.14 33.78 21.82 Z" />
</g>
<g id="#423b32ff">
<path fill="#423b32" opacity="1.00" d=" M 17.18 24.13 C 18.64 23.37 20.03 22.49 21.36 21.53 C 21.37 22.15 21.38 23.41 21.38 24.03 C 20.00 24.71 18.61 25.37 17.21 26.01 C 15.65 26.71 14.10 27.42 12.55 28.14 C 12.14 27.94 11.31 27.55 10.89 27.35 C 12.94 26.18 15.08 25.20 17.18 24.13 Z" />
<path fill="#423b32" opacity="1.00" d=" M 66.60 27.21 C 70.37 25.69 74.13 24.03 77.46 21.64 C 77.44 22.26 77.40 23.49 77.38 24.10 C 76.04 24.75 74.71 25.38 73.36 26.00 C 71.71 26.75 70.06 27.50 68.43 28.27 C 67.97 28.01 67.06 27.48 66.60 27.21 Z" />
<path fill="#423b32" opacity="1.00" d=" M 178.73 27.36 C 182.28 25.44 186.15 24.04 189.38 21.54 C 189.38 22.17 189.38 23.42 189.39 24.04 C 187.98 24.72 186.58 25.39 185.17 26.03 C 183.58 26.75 181.98 27.45 180.37 28.10 C 179.96 27.92 179.14 27.55 178.73 27.36 Z" />
</g>
<g id="#9c8a4efe">
<path fill="#9c8a4e" opacity="1.00" d=" M 24.60 22.33 C 25.88 22.01 26.84 22.38 27.48 23.44 C 26.90 26.34 22.87 24.86 24.60 22.33 Z" />
<path fill="#9c8a4e" opacity="1.00" d=" M 80.60 22.33 C 81.88 22.00 82.84 22.38 83.48 23.44 C 82.90 26.34 78.87 24.86 80.60 22.33 Z" />
<path fill="#9c8a4e" opacity="1.00" d=" M 136.57 22.34 C 137.80 22.09 138.77 22.45 139.48 23.44 C 138.96 26.38 134.82 24.89 136.57 22.34 Z" />
<path fill="#9c8a4e" opacity="1.00" d=" M 192.60 22.33 C 193.88 22.01 194.84 22.38 195.48 23.44 C 194.90 26.34 190.87 24.86 192.60 22.33 Z" />
<path fill="#9c8a4e" opacity="1.00" d=" M 31.88 34.14 C 32.48 34.32 33.68 34.68 34.29 34.86 C 33.67 38.35 28.67 36.73 31.88 34.14 Z" />
<path fill="#9c8a4e" opacity="1.00" d=" M 87.87 34.14 C 88.48 34.32 89.68 34.66 90.28 34.84 C 89.68 38.34 84.66 36.74 87.87 34.14 Z" />
<path fill="#9c8a4e" opacity="1.00" d=" M 143.77 33.95 C 144.38 34.15 145.61 34.56 146.22 34.76 C 145.50 38.12 140.84 36.61 143.77 33.95 Z" />
<path fill="#9c8a4e" opacity="1.00" d=" M 199.90 34.26 C 200.50 34.41 201.71 34.70 202.32 34.85 C 201.77 38.33 196.68 36.92 199.90 34.26 Z" />
<path fill="#9c8a4e" opacity="1.00" d=" M 26.10 40.72 C 26.65 40.40 27.75 39.77 28.30 39.45 L 28.50 39.91 C 29.44 43.03 24.07 44.57 26.10 40.72 Z" />
<path fill="#9c8a4e" opacity="1.00" d=" M 194.00 40.72 C 194.56 40.43 195.68 39.85 196.24 39.56 L 196.49 40.00 C 197.37 43.06 192.17 44.53 194.00 40.72 Z" />
</g>
<g id="#423f3bff">
<path fill="#423f3b" opacity="1.00" d=" M 122.23 26.78 C 126.21 25.63 130.15 24.18 133.48 21.67 C 133.46 22.29 133.42 23.52 133.40 24.14 C 132.03 24.73 130.65 25.31 129.25 25.83 C 127.69 26.37 126.12 26.87 124.55 27.37 C 124.22 27.57 123.57 27.97 123.25 28.18 C 122.99 27.83 122.49 27.13 122.23 26.78 Z" />
</g>
<g id="#3c6bbbff">
<path fill="#3c6bbb" opacity="1.00" d=" M 96.84 24.10 C 97.73 23.73 98.61 23.35 99.48 22.95 C 101.10 25.56 102.96 28.01 104.79 30.48 C 104.06 31.93 103.32 33.38 102.59 34.83 C 100.43 33.56 98.25 32.34 96.14 31.00 L 95.41 30.34 C 93.23 28.39 91.32 26.18 89.51 23.89 C 93.02 25.36 96.04 27.68 98.90 30.16 C 98.33 29.05 97.77 27.94 97.21 26.84 C 97.12 26.15 96.94 24.78 96.84 24.10 Z" />
<path fill="#3c6bbb" opacity="1.00" d=" M 33.54 24.14 C 36.64 26.01 39.75 27.88 42.68 30.03 C 42.22 28.48 41.76 26.92 41.32 25.37 C 42.04 24.91 42.76 24.46 43.47 23.99 C 45.12 26.59 47.01 29.02 48.85 31.48 C 48.17 32.61 47.48 33.73 46.79 34.86 C 44.62 33.59 42.44 32.35 40.31 31.01 L 39.61 30.39 C 37.38 28.52 35.36 26.41 33.54 24.14 Z" />
</g>
<g id="#447acaff">
<path fill="#447aca" opacity="1.00" d=" M 211.78 23.54 L 212.30 23.89 C 215.51 26.80 219.74 27.68 224.00 27.69 L 224.00 27.93 C 220.54 30.04 217.54 33.04 218.41 37.45 C 218.08 37.13 217.41 36.51 217.08 36.20 C 216.26 35.71 215.43 35.23 214.61 34.76 C 215.43 33.23 216.25 31.69 217.06 30.15 C 215.02 28.16 213.02 26.15 211.06 24.08 L 211.78 23.54 Z" />
</g>
<g id="#91804aff">
<path fill="#91804a" opacity="1.00" d=" M 12.55 28.14 C 14.10 27.42 15.65 26.71 17.21 26.01 C 16.73 27.23 16.23 28.44 15.75 29.66 C 14.68 29.16 13.62 28.64 12.55 28.14 Z" />
</g>
<g id="#978b58ff">
<path fill="#978b58" opacity="1.00" d=" M 124.55 27.37 C 126.12 26.87 127.69 26.37 129.25 25.83 C 128.83 26.98 128.40 28.12 127.97 29.26 C 127.80 27.76 125.99 27.62 125.40 28.92 C 125.19 28.54 124.76 27.76 124.55 27.37 Z" />
</g>
<g id="#75634eff">
<path fill="#75634e" opacity="1.00" d=" M 16.51 30.76 C 17.89 29.44 19.27 28.11 20.70 26.83 C 21.10 28.26 21.51 29.69 21.92 31.12 C 20.12 31.00 18.31 30.88 16.51 30.76 Z" />
<path fill="#75634e" opacity="1.00" d=" M 184.64 29.97 C 186.14 29.11 187.58 28.15 189.03 27.21 C 189.27 28.63 189.52 30.05 189.77 31.47 C 188.29 31.06 186.82 30.65 185.36 30.20 L 184.64 29.97 Z" />
<path fill="#75634e" opacity="1.00" d=" M 39.73 35.31 C 38.50 34.23 39.18 32.49 39.91 31.34 C 40.58 32.54 41.13 34.37 39.73 35.31 Z" />
<path fill="#75634e" opacity="1.00" d=" M 36.14 39.83 C 37.56 39.51 38.98 39.17 40.39 38.79 C 40.16 39.63 39.71 41.32 39.49 42.16 C 38.37 41.38 37.26 40.61 36.14 39.83 Z" />
</g>
<g id="#5d574fff">
<path fill="#5d574f" opacity="1.00" d=" M 65.68 26.69 L 66.60 27.21 C 67.06 27.48 67.97 28.01 68.43 28.27 C 69.06 28.66 70.32 29.43 70.95 29.81 C 71.02 30.24 71.16 31.09 71.23 31.51 C 71.52 32.02 72.09 33.03 72.37 33.54 C 71.91 33.78 70.99 34.27 70.52 34.51 L 69.83 34.52 L 69.08 34.19 C 68.51 33.98 67.36 33.55 66.79 33.33 C 66.49 32.87 65.89 31.95 65.59 31.50 L 65.58 30.90 C 65.56 29.49 65.62 28.09 65.68 26.69 Z" />
</g>
<g id="#695c4cff">
<path fill="#695c4c" opacity="1.00" d=" M 122.69 29.86 C 122.49 28.84 122.36 27.81 122.23 26.78 C 122.49 27.13 122.99 27.83 123.25 28.18 C 123.75 28.54 124.77 29.27 125.28 29.63 L 126.04 29.94 C 125.50 30.77 125.49 31.61 126.02 32.46 L 125.04 32.76 C 124.60 32.89 123.72 33.17 123.28 33.31 C 123.17 32.59 122.93 31.16 122.81 30.45 L 122.69 29.86 Z" />
</g>
<g id="#332e2aff">
<path fill="#332e2a" opacity="1.00" d=" M 135.07 30.33 C 133.31 29.62 133.96 25.70 135.96 27.33 C 136.23 28.51 135.94 29.51 135.07 30.33 Z" />
<path fill="#332e2a" opacity="1.00" d=" M 9.18 29.93 C 10.73 30.11 10.89 31.96 10.66 33.17 C 10.18 32.98 9.21 32.58 8.73 32.38 L 8.49 31.59 C 8.66 31.18 9.00 30.34 9.18 29.93 Z" />
</g>
<g id="#9dafc3ff">
<path fill="#9dafc3" opacity="1.00" d=" M 135.96 27.33 C 136.45 27.71 137.45 28.45 137.94 28.83 C 136.48 29.95 134.99 31.02 133.47 32.06 C 133.87 31.63 134.67 30.76 135.07 30.33 C 135.94 29.51 136.23 28.51 135.96 27.33 Z" />
</g>
<g id="#5e574cff">
<path fill="#5e574c" opacity="1.00" d=" M 177.49 30.81 C 177.85 29.65 178.24 28.48 178.73 27.36 C 179.14 27.55 179.96 27.92 180.37 28.10 C 180.95 28.38 182.12 28.93 182.70 29.20 C 182.98 30.26 183.26 31.33 183.54 32.39 C 182.57 32.73 181.61 33.08 180.65 33.43 C 180.42 32.22 179.65 31.63 178.34 31.66 L 177.27 31.48 L 177.49 30.81 Z" />
</g>
<g id="#3b3731ff">
<path fill="#3b3731" opacity="1.00" d=" M 70.95 29.81 L 71.39 29.16 C 71.94 29.52 73.02 30.25 73.56 30.62 C 72.85 31.09 72.08 31.39 71.23 31.51 C 71.16 31.09 71.02 30.24 70.95 29.81 Z" />
<path fill="#3b3731" opacity="1.00" d=" M 96.14 31.00 C 98.25 32.34 100.43 33.56 102.59 34.83 C 104.10 35.75 105.57 36.74 107.04 37.74 C 107.68 38.17 108.96 39.05 109.60 39.49 C 109.04 39.99 108.46 40.47 107.86 40.94 C 103.77 37.85 99.78 34.62 96.14 31.00 Z" />
</g>
<g id="#288bd7ff">
<path fill="#288bd7" opacity="1.00" d=" M 114.59 29.08 C 116.37 29.54 118.15 30.01 119.92 30.53 C 120.29 30.63 121.02 30.84 121.39 30.94 C 121.05 32.26 121.52 33.24 122.80 33.87 C 123.56 34.51 124.43 34.91 125.41 35.07 C 125.59 35.10 125.97 35.17 126.15 35.20 C 127.97 36.22 129.67 37.42 131.39 38.58 C 129.75 38.70 126.47 38.94 124.83 39.06 C 126.34 39.80 127.86 40.54 129.35 41.32 C 121.50 42.86 117.79 35.47 112.73 31.32 C 114.49 31.63 116.24 31.92 118.00 32.21 C 116.85 31.18 115.70 30.15 114.59 29.08 Z" />
</g>
<g id="#3c3936ff">
<path fill="#3c3936" opacity="1.00" d=" M 182.70 29.20 L 183.46 29.55 C 183.76 29.65 184.35 29.87 184.64 29.97 L 185.36 30.20 C 187.88 30.99 190.44 31.69 192.95 32.56 C 193.08 32.80 193.34 33.27 193.47 33.51 C 192.27 34.34 191.07 35.15 189.89 36.00 C 189.49 34.61 187.97 33.91 186.62 34.26 C 184.91 34.44 183.20 34.56 181.48 34.53 L 180.69 34.14 L 179.94 33.71 L 180.65 33.43 C 181.61 33.08 182.57 32.73 183.54 32.39 C 183.26 31.33 182.98 30.26 182.70 29.20 Z" />
</g>
<g id="#3f6dbeff">
<path fill="#3f6dbe" opacity="1.00" d=" M 218.41 37.45 C 217.54 33.04 220.54 30.04 224.00 27.93 L 224.00 40.89 C 223.31 40.14 222.63 39.38 221.87 38.71 C 221.00 38.60 219.25 38.38 218.37 38.28 L 218.41 37.45 Z" />
</g>
<g id="#98864eff">
<path fill="#98864e" opacity="1.00" d=" M 35.70 32.73 C 36.94 31.86 38.26 31.11 39.61 30.39 L 39.91 31.34 C 39.18 32.49 38.50 34.23 39.73 35.31 C 40.02 35.67 40.60 36.39 40.89 36.75 C 40.81 37.08 40.66 37.73 40.59 38.05 C 39.55 37.57 38.52 37.09 37.48 36.61 C 36.88 35.32 36.29 34.02 35.70 32.73 Z" />
</g>
<g id="#9a884eff">
<path fill="#9a884e" opacity="1.00" d=" M 91.55 32.95 C 92.80 32.02 94.10 31.17 95.41 30.34 C 95.59 32.57 95.80 34.79 95.96 37.02 C 95.99 37.38 96.04 38.09 96.07 38.44 C 95.44 37.63 94.77 36.84 94.12 36.05 C 93.26 35.02 92.40 33.98 91.55 32.95 Z" />
<path fill="#9a884e" opacity="1.00" d=" M 147.73 32.85 C 148.88 31.93 150.09 31.09 151.30 30.26 C 151.69 32.68 152.17 35.08 152.68 37.47 C 152.01 37.35 150.67 37.11 150.00 36.99 C 149.26 35.60 148.49 34.22 147.73 32.85 Z" />
<path fill="#9a884e" opacity="1.00" d=" M 203.53 33.03 C 204.76 32.07 206.05 31.18 207.35 30.30 C 207.58 32.57 207.83 34.84 208.18 37.10 C 208.24 37.44 208.35 38.14 208.41 38.48 C 207.66 37.62 206.89 36.79 206.13 35.95 C 205.25 34.98 204.39 34.01 203.53 33.03 Z" />
</g>
<g id="#a2b5caff">
<path fill="#a2b5ca" opacity="1.00" d=" M 127.70 29.92 C 128.96 31.02 130.20 32.14 131.48 33.22 C 129.72 33.93 127.95 34.60 126.15 35.20 C 125.97 35.17 125.59 35.10 125.41 35.07 C 125.31 34.49 125.13 33.33 125.04 32.76 L 126.02 32.46 C 127.23 32.08 127.79 31.23 127.70 29.92 Z" />
</g>
<g id="#595349fe">
<path fill="#595349" opacity="1.00" d=" M 39.61 30.39 L 40.31 31.01 C 44.17 34.87 48.42 38.30 52.78 41.58 C 52.44 41.78 51.77 42.19 51.43 42.40 C 50.45 41.79 49.41 41.30 48.31 40.95 C 45.70 39.81 43.21 38.39 40.89 36.75 C 40.60 36.39 40.02 35.67 39.73 35.31 C 41.13 34.37 40.58 32.54 39.91 31.34 L 39.61 30.39 Z" />
</g>
<g id="#3a3736ff">
<path fill="#3a3736" opacity="1.00" d=" M 40.31 31.01 C 42.44 32.35 44.62 33.59 46.79 34.86 C 48.26 35.75 49.69 36.70 51.11 37.65 C 51.73 38.08 52.98 38.93 53.60 39.36 C 53.43 40.02 53.25 40.69 53.07 41.35 L 52.78 41.58 C 48.42 38.30 44.17 34.87 40.31 31.01 Z" />
</g>
<g id="#838e99ff">
<path fill="#838e99" opacity="1.00" d=" M 71.23 31.51 C 72.08 31.39 72.85 31.09 73.56 30.62 C 73.72 30.92 74.03 31.54 74.19 31.85 C 73.74 32.27 72.83 33.11 72.37 33.54 C 72.09 33.03 71.52 32.02 71.23 31.51 Z" />
</g>
<g id="#5e584dff">
<path fill="#5e584d" opacity="1.00" d=" M 95.41 30.34 L 96.14 31.00 C 99.78 34.62 103.77 37.85 107.86 40.94 L 107.28 41.33 C 105.92 40.77 104.52 40.27 103.07 39.99 C 100.65 39.12 98.32 38.03 95.96 37.02 C 95.80 34.79 95.59 32.57 95.41 30.34 Z" />
</g>
<g id="#615a4fff">
<path fill="#615a4f" opacity="1.00" d=" M 151.30 30.26 L 152.09 30.97 C 154.34 33.15 156.67 35.24 158.96 37.36 C 158.79 37.82 158.45 38.73 158.28 39.18 C 157.13 38.76 155.98 38.37 154.83 37.99 C 154.29 37.86 153.22 37.60 152.68 37.47 C 152.17 35.08 151.69 32.68 151.30 30.26 Z" />
</g>
<g id="#3e3933ff">
<path fill="#3e3933" opacity="1.00" d=" M 152.09 30.97 C 154.19 32.32 156.37 33.56 158.54 34.80 C 160.00 35.65 161.44 36.52 162.89 37.38 C 163.33 37.76 164.19 38.51 164.63 38.88 C 165.30 39.79 165.96 40.70 166.61 41.63 C 165.20 41.21 163.81 40.78 162.41 40.36 C 161.20 39.43 160.07 38.40 158.96 37.36 C 156.67 35.24 154.34 33.15 152.09 30.97 Z" />
</g>
<g id="#95a9bcff">
<path fill="#95a9bc" opacity="1.00" d=" M 192.37 31.53 C 193.88 32.54 195.43 33.50 196.93 34.53 L 197.05 35.40 C 196.58 35.74 195.62 36.43 195.14 36.78 C 194.59 35.69 194.05 34.59 193.47 33.51 C 193.34 33.27 193.08 32.80 192.95 32.56 L 192.37 31.53 Z" />
</g>
<g id="#5d574cff">
<path fill="#5d574c" opacity="1.00" d=" M 207.35 30.30 L 208.10 30.99 C 211.76 34.64 215.58 38.24 220.07 40.88 C 219.66 41.01 218.85 41.28 218.44 41.41 C 217.46 40.69 216.38 40.18 215.21 39.88 C 212.81 39.08 210.50 38.08 208.18 37.10 C 207.83 34.84 207.58 32.57 207.35 30.30 Z" />
</g>
<g id="#3c3732ff">
<path fill="#3c3732" opacity="1.00" d=" M 208.10 30.99 C 210.22 32.33 212.41 33.55 214.61 34.76 C 215.43 35.23 216.26 35.71 217.08 36.20 C 215.45 37.04 217.06 38.71 218.37 38.28 C 219.25 38.38 221.00 38.60 221.87 38.71 C 221.63 39.18 221.15 40.12 220.91 40.58 C 220.70 40.66 220.28 40.80 220.07 40.88 C 215.58 38.24 211.76 34.64 208.10 30.99 Z" />
</g>
<g id="#42403fff">
<path fill="#42403f" opacity="1.00" d=" M 74.19 31.85 C 74.35 32.31 74.68 33.23 74.84 33.69 L 74.66 34.30 C 73.29 34.47 71.90 34.50 70.52 34.51 C 70.99 34.27 71.91 33.78 72.37 33.54 C 72.83 33.11 73.74 32.27 74.19 31.85 Z" />
</g>
<g id="#388cccff">
<path fill="#388ccc" opacity="1.00" d=" M 134.59 34.25 C 136.52 33.70 138.41 33.06 140.31 32.43 C 140.26 32.91 140.16 33.87 140.11 34.35 C 137.37 32.54 137.49 37.47 140.02 35.11 C 139.90 35.46 139.65 36.18 139.53 36.53 C 138.08 38.55 135.61 38.89 133.35 38.34 C 133.92 38.15 135.07 37.76 135.65 37.56 C 135.36 36.70 135.05 35.85 134.80 34.98 L 134.59 34.25 Z" />
</g>
<g id="#3b6bbefe">
<path fill="#3b6bbe" opacity="1.00" d=" M 7.09 33.21 C 7.50 33.00 8.32 32.59 8.73 32.38 C 9.21 32.58 10.18 32.98 10.66 33.17 L 10.67 34.03 C 10.20 34.42 9.27 35.21 8.81 35.60 C 8.03 34.97 7.45 34.17 7.09 33.21 Z" />
</g>
<g id="#6c5e4cff">
<path fill="#6c5e4c" opacity="1.00" d=" M 34.29 34.86 C 34.74 34.13 35.21 33.42 35.70 32.73 C 36.29 34.02 36.88 35.32 37.48 36.61 C 34.96 37.45 32.39 38.14 29.80 38.73 C 29.72 37.18 29.63 35.64 29.56 34.09 C 30.14 34.10 31.30 34.13 31.88 34.14 C 28.67 36.73 33.67 38.35 34.29 34.86 Z" />
<path fill="#6c5e4c" opacity="1.00" d=" M 90.28 34.84 C 90.69 34.19 91.11 33.56 91.55 32.95 C 92.40 33.98 93.26 35.02 94.12 36.05 C 91.42 37.27 88.59 38.14 85.68 38.68 C 85.65 37.16 85.62 35.63 85.60 34.10 C 86.17 34.11 87.31 34.13 87.87 34.14 C 84.66 36.74 89.68 38.34 90.28 34.84 Z" />
<path fill="#6c5e4c" opacity="1.00" d=" M 202.32 34.85 C 202.70 34.23 203.10 33.62 203.53 33.03 C 204.39 34.01 205.25 34.98 206.13 35.95 C 203.47 37.25 200.64 38.15 197.77 38.87 C 197.63 38.26 197.35 37.04 197.21 36.44 L 197.05 35.40 L 196.93 34.53 C 197.91 34.43 198.90 34.34 199.90 34.26 C 196.68 36.92 201.77 38.33 202.32 34.85 Z" />
</g>
<g id="#4395d1ff">
<path fill="#4395d1" opacity="1.00" d=" M 77.24 35.18 C 79.61 34.80 81.97 34.30 84.34 33.94 C 82.47 33.75 81.36 35.56 81.52 37.25 C 81.45 37.82 81.32 38.97 81.25 39.55 C 79.97 38.38 78.57 37.31 77.57 35.88 L 77.24 35.18 Z" />
</g>
<g id="#3192d9ff">
<path fill="#3192d9" opacity="1.00" d=" M 126.15 35.20 C 127.95 34.60 129.72 33.93 131.48 33.22 L 131.91 33.04 C 132.26 34.09 132.84 34.98 133.66 35.72 C 131.15 35.65 128.65 35.47 126.15 35.20 Z" />
<path fill="#3192d9" opacity="1.00" d=" M 69.83 34.52 L 70.52 34.51 C 71.90 34.50 73.29 34.47 74.66 34.30 C 75.12 35.27 75.76 36.09 76.60 36.76 C 74.26 36.71 71.92 36.65 69.59 36.51 C 69.65 36.01 69.77 35.02 69.83 34.52 Z" />
<path fill="#3192d9" opacity="1.00" d=" M 181.48 34.53 C 183.20 34.56 184.91 34.44 186.62 34.26 C 186.91 35.08 187.31 35.84 187.80 36.55 C 185.70 36.61 183.59 36.58 181.49 36.54 C 181.49 36.03 181.48 35.03 181.48 34.53 Z" />
<path fill="#3192d9" opacity="1.00" d=" M 12.75 35.56 C 14.42 35.48 16.09 35.36 17.75 35.22 C 17.97 36.10 18.28 36.94 18.70 37.74 C 16.61 37.67 14.52 37.58 12.43 37.48 C 12.51 37.00 12.67 36.04 12.75 35.56 Z" />
</g>
<g id="#686055ff">
<path fill="#686055" opacity="1.00" d=" M 146.22 34.76 C 146.70 34.10 147.20 33.47 147.73 32.85 C 148.49 34.22 149.26 35.60 150.00 36.99 C 150.41 38.19 150.86 39.39 151.39 40.55 L 151.94 41.70 C 151.48 41.61 150.55 41.43 150.08 41.35 C 148.10 41.13 146.11 40.91 144.13 40.62 C 144.08 41.08 143.99 41.98 143.95 42.43 L 143.19 42.53 C 142.66 42.60 141.59 42.74 141.06 42.81 C 140.94 42.35 140.70 41.44 140.58 40.99 C 140.30 40.64 139.75 39.96 139.47 39.62 C 140.92 37.74 142.18 35.72 143.77 33.95 C 140.84 36.61 145.50 38.12 146.22 34.76 Z" />
</g>
<g id="#3e8ec9ff">
<path fill="#3e8ec9" opacity="1.00" d=" M 20.65 37.36 C 22.31 36.10 24.08 34.99 25.88 33.94 L 25.70 34.59 C 25.29 35.63 24.86 37.06 26.06 37.78 C 24.08 37.98 22.09 37.87 20.11 37.79 L 20.65 37.36 Z" />
</g>
<g id="#388ecdff">
<path fill="#388ecd" opacity="1.00" d=" M 189.89 36.00 C 191.07 35.15 192.27 34.34 193.47 33.51 C 194.05 34.59 194.59 35.69 195.14 36.78 C 194.15 37.47 193.16 38.16 192.18 38.86 C 191.24 38.03 190.31 37.21 189.37 36.40 L 189.89 36.00 Z" />
</g>
<g id="#57534aff">
<path fill="#57534a" opacity="1.00" d=" M 37.48 36.61 C 38.52 37.09 39.55 37.57 40.59 38.05 L 40.39 38.79 C 38.98 39.17 37.56 39.51 36.14 39.83 C 34.92 40.11 33.69 40.34 32.46 40.58 C 32.81 42.31 33.13 44.06 33.40 45.81 C 32.97 46.22 32.12 47.06 31.70 47.48 C 31.25 47.93 30.34 48.82 29.89 49.26 C 27.95 48.53 25.92 48.06 23.88 47.74 C 23.05 46.51 21.16 45.80 20.06 47.11 C 19.87 46.85 19.48 46.33 19.29 46.07 L 18.81 45.42 C 20.04 44.77 21.25 44.06 22.42 43.30 C 25.00 43.81 27.59 44.29 30.19 44.77 C 29.67 43.14 29.13 41.50 28.50 39.91 L 28.30 39.45 C 28.80 39.21 29.30 38.97 29.80 38.73 C 32.39 38.14 34.96 37.45 37.48 36.61 Z" />
</g>
<g id="#58544bff">
<path fill="#58544b" opacity="1.00" d=" M 94.12 36.05 C 94.77 36.84 95.44 37.63 96.07 38.44 L 96.13 39.06 C 94.85 39.26 93.56 39.46 92.28 39.71 C 91.09 39.94 89.89 40.17 88.69 40.40 C 88.89 42.25 89.09 44.11 89.02 45.97 C 88.70 46.97 88.33 47.96 87.93 48.94 C 87.30 47.30 86.66 45.67 86.03 44.03 C 85.48 42.54 84.94 41.05 84.38 39.56 C 84.81 39.27 85.25 38.98 85.68 38.68 C 88.59 38.14 91.42 37.27 94.12 36.05 Z" />
</g>
<g id="#5a564cff">
<path fill="#5a564c" opacity="1.00" d=" M 206.13 35.95 C 206.89 36.79 207.66 37.62 208.41 38.48 L 208.77 38.98 C 207.43 39.66 206.10 40.34 204.74 40.96 C 203.22 41.09 201.72 40.83 200.21 40.68 C 200.84 42.62 201.44 44.58 201.88 46.58 C 201.84 46.95 201.75 47.68 201.71 48.05 L 201.20 47.74 C 200.76 46.24 199.39 44.27 197.68 45.59 C 196.64 46.09 195.60 46.60 194.56 47.11 L 194.33 47.22 C 194.31 46.78 194.26 45.91 194.23 45.47 C 195.63 44.86 197.03 44.24 198.44 43.62 C 197.79 42.41 197.16 41.19 196.49 40.00 L 196.24 39.56 C 196.75 39.33 197.26 39.10 197.77 38.87 C 200.64 38.15 203.47 37.25 206.13 35.95 Z" />
</g>
<g id="#373432ff">
<path fill="#373432" opacity="1.00" d=" M 40.89 36.75 C 43.21 38.39 45.70 39.81 48.31 40.95 L 47.90 41.49 C 47.56 41.95 46.89 42.85 46.55 43.31 C 46.19 43.22 45.47 43.06 45.11 42.97 C 44.36 43.04 42.87 43.16 42.12 43.23 C 40.28 43.71 38.78 45.06 38.22 46.90 L 37.79 47.88 C 37.25 47.58 36.17 47.00 35.63 46.70 C 35.08 46.48 33.96 46.03 33.40 45.81 C 33.13 44.06 32.81 42.31 32.46 40.58 C 33.69 40.34 34.92 40.11 36.14 39.83 C 37.26 40.61 38.37 41.38 39.49 42.16 C 39.71 41.32 40.16 39.63 40.39 38.79 L 40.59 38.05 C 40.66 37.73 40.81 37.08 40.89 36.75 Z" />
</g>
<g id="#403f3eff">
<path fill="#403f3e" opacity="1.00" d=" M 95.96 37.02 C 98.32 38.03 100.65 39.12 103.07 39.99 L 102.71 40.56 C 102.41 41.05 101.79 42.04 101.48 42.53 C 101.13 42.46 100.43 42.33 100.08 42.27 C 99.35 42.18 97.88 42.01 97.15 41.92 C 96.94 41.69 96.52 41.22 96.31 40.99 C 96.26 40.51 96.18 39.54 96.13 39.06 L 96.07 38.44 C 96.04 38.09 95.99 37.38 95.96 37.02 Z" />
</g>
<g id="#a7bcd3ff">
<path fill="#a7bcd3" opacity="1.00" d=" M 158.96 37.36 C 160.07 38.40 161.20 39.43 162.41 40.36 C 160.87 40.31 159.33 40.33 157.79 40.41 L 158.28 39.18 C 158.45 38.73 158.79 37.82 158.96 37.36 Z" />
</g>
<g id="#413f3fff">
<path fill="#413f3f" opacity="1.00" d=" M 184.94 46.18 C 188.65 42.46 193.17 39.75 197.21 36.44 C 197.35 37.04 197.63 38.26 197.77 38.87 C 197.26 39.10 196.75 39.33 196.24 39.56 C 195.68 39.85 194.56 40.43 194.00 40.72 C 192.94 41.36 191.90 42.02 190.85 42.66 C 188.88 43.83 186.87 44.94 184.94 46.18 Z" />
</g>
<g id="#3c3937ff">
<path fill="#3c3937" opacity="1.00" d=" M 208.18 37.10 C 210.50 38.08 212.81 39.08 215.21 39.88 L 214.91 40.51 C 214.79 40.77 214.56 41.29 214.44 41.55 C 214.03 41.67 213.21 41.90 212.79 42.01 C 211.42 41.04 210.11 40.00 208.77 38.98 L 208.41 38.48 C 208.35 38.14 208.24 37.44 208.18 37.10 Z" />
</g>
<g id="#8aa2b5ff">
<path fill="#8aa2b5" opacity="1.00" d=" M 218.37 38.28 C 217.06 38.71 215.45 37.04 217.08 36.20 C 217.41 36.51 218.08 37.13 218.41 37.45 L 218.37 38.28 Z" />
</g>
<g id="#7a6c5bff">
<path fill="#7a6c5b" opacity="1.00" d=" M 92.28 39.71 C 93.56 39.46 94.85 39.26 96.13 39.06 C 96.18 39.54 96.26 40.51 96.31 40.99 C 96.01 41.18 95.42 41.55 95.12 41.74 C 94.66 42.02 93.74 42.59 93.28 42.88 C 93.03 42.09 92.53 40.50 92.28 39.71 Z" />
</g>
<g id="#3f7dcaff">
<path fill="#3f7dca" opacity="1.00" d=" M 109.60 39.49 C 109.99 39.13 110.76 38.43 111.15 38.08 C 111.20 39.87 111.27 41.66 111.27 43.45 C 110.01 43.53 108.75 43.61 107.49 43.69 C 110.16 45.86 113.53 45.82 116.74 45.19 C 116.18 46.34 115.62 47.49 115.08 48.65 C 117.80 50.04 120.53 51.44 123.24 52.86 C 120.24 52.66 117.23 52.41 114.24 52.18 C 114.73 51.40 115.21 50.62 115.70 49.84 C 110.75 45.34 102.92 44.78 97.97 49.56 C 98.99 50.33 100.00 51.10 101.01 51.87 C 97.62 51.62 93.74 52.96 90.72 50.88 L 90.56 50.26 C 91.00 48.94 91.48 47.65 92.02 46.37 L 93.12 47.37 C 93.68 47.53 94.81 47.85 95.37 48.02 C 98.32 46.51 101.11 44.72 103.99 43.07 C 103.15 42.88 102.32 42.70 101.48 42.53 C 101.79 42.04 102.41 41.05 102.71 40.56 C 103.31 42.60 105.97 42.75 107.28 41.33 L 107.86 40.94 C 108.46 40.47 109.04 39.99 109.60 39.49 Z" />
</g>
<g id="#494a4bfe">
<path fill="#494a4b" opacity="1.00" d=" M 151.39 40.55 C 152.53 39.69 153.68 38.83 154.83 37.99 C 155.98 38.37 157.13 38.76 158.28 39.18 L 157.79 40.41 C 157.42 40.46 156.67 40.56 156.30 40.61 C 155.95 40.65 155.26 40.74 154.91 40.78 C 154.17 41.01 152.68 41.47 151.94 41.70 L 151.39 40.55 Z" />
</g>
<g id="#427dc8ff">
<path fill="#427dc8" opacity="1.00" d=" M 221.87 38.71 C 222.63 39.38 223.31 40.14 224.00 40.89 L 224.00 41.71 C 222.64 42.24 221.28 42.78 219.93 43.31 C 221.29 44.07 222.66 44.82 224.00 45.61 L 224.00 46.15 C 219.22 46.43 214.33 46.92 209.98 49.06 C 210.93 49.82 211.90 50.58 212.87 51.33 C 210.68 51.64 208.51 52.02 206.37 52.51 C 205.37 51.78 204.38 51.02 203.40 50.27 C 203.86 49.74 204.77 48.70 205.22 48.18 C 205.62 48.19 206.43 48.22 206.83 48.23 C 209.64 46.85 212.32 45.23 215.07 43.74 C 214.85 43.01 214.64 42.28 214.44 41.55 C 214.56 41.29 214.79 40.77 214.91 40.51 C 215.30 42.19 217.25 42.14 218.44 41.41 C 218.85 41.28 219.66 41.01 220.07 40.88 C 220.28 40.80 220.70 40.66 220.91 40.58 C 221.15 40.12 221.63 39.18 221.87 38.71 Z" />
</g>
<g id="#417ec8ff">
<path fill="#417ec8" opacity="1.00" d=" M 53.60 39.36 C 54.14 39.74 54.67 40.13 55.21 40.52 C 54.93 42.60 54.72 44.68 54.66 46.78 C 49.51 47.71 44.73 49.71 40.06 51.99 C 38.32 53.06 36.72 51.44 35.22 50.71 C 36.11 50.33 37.90 49.59 38.80 49.21 C 39.21 49.08 40.05 48.80 40.46 48.66 C 43.45 47.31 46.29 45.65 49.16 44.07 C 48.29 43.80 47.42 43.55 46.55 43.31 C 46.89 42.85 47.56 41.95 47.90 41.49 C 48.25 43.11 50.32 43.43 51.43 42.40 C 51.77 42.19 52.44 41.78 52.78 41.58 L 53.07 41.35 C 53.25 40.69 53.43 40.02 53.60 39.36 Z" />
</g>
<g id="#89a3bbff">
<path fill="#89a3bb" opacity="1.00" d=" M 131.72 39.04 C 133.20 39.86 134.70 40.63 136.18 41.45 C 136.53 41.63 137.23 41.99 137.58 42.17 L 136.90 42.44 C 136.15 42.70 134.66 43.22 133.92 43.48 C 133.56 43.62 132.84 43.89 132.48 44.03 C 132.21 42.37 131.96 40.71 131.72 39.04 Z" />
</g>
<g id="#407ec8fe">
<path fill="#407ec8" opacity="1.00" d=" M 164.63 38.88 C 166.78 39.57 167.49 41.55 167.72 43.58 C 166.43 43.49 165.14 43.39 163.86 43.30 C 165.24 44.57 166.63 45.83 168.03 47.09 C 165.01 46.30 161.99 45.47 158.97 44.71 C 155.95 46.73 152.91 48.72 149.89 50.74 C 151.34 50.87 152.79 51.02 154.24 51.17 C 153.49 52.05 152.78 52.97 151.95 53.77 C 149.87 53.51 148.63 51.62 147.50 50.06 C 147.33 49.83 147.00 49.37 146.83 49.13 L 146.58 48.79 C 146.91 48.05 147.58 46.56 147.91 45.82 C 148.44 46.13 149.49 46.73 150.02 47.04 C 153.15 45.59 156.09 43.77 159.11 42.11 C 158.18 41.60 157.24 41.10 156.30 40.61 C 156.67 40.56 157.42 40.46 157.79 40.41 C 159.33 40.33 160.87 40.31 162.41 40.36 C 163.81 40.78 165.20 41.21 166.61 41.63 C 165.96 40.70 165.30 39.79 164.63 38.88 Z" />
</g>
<g id="#748690ff">
<path fill="#748690" opacity="1.00" d=" M 204.74 40.96 C 206.10 40.34 207.43 39.66 208.77 38.98 C 210.11 40.00 211.42 41.04 212.79 42.01 C 211.49 42.36 210.19 42.69 208.87 42.95 C 209.32 42.16 209.77 41.37 210.23 40.59 C 208.40 40.78 206.57 40.91 204.74 40.96 Z" />
</g>
<g id="#73634dff">
<path fill="#73634d" opacity="1.00" d=" M 28.50 39.91 C 29.13 41.50 29.67 43.14 30.19 44.77 C 27.59 44.29 25.00 43.81 22.42 43.30 C 23.66 42.45 24.87 41.57 26.10 40.72 C 24.07 44.57 29.44 43.03 28.50 39.91 Z" />
</g>
<g id="#847452ff">
<path fill="#847452" opacity="1.00" d=" M 79.75 42.53 C 81.33 41.61 82.86 40.59 84.38 39.56 C 84.94 41.05 85.48 42.54 86.03 44.03 C 84.42 44.17 82.82 44.32 81.22 44.51 L 81.04 44.27 C 80.71 43.83 80.07 42.97 79.75 42.53 Z" />
</g>
<g id="#322e2afe">
<path fill="#322e2a" opacity="1.00" d=" M 88.69 40.40 C 89.89 40.17 91.09 39.94 92.28 39.71 C 92.53 40.50 93.03 42.09 93.28 42.88 C 93.74 42.59 94.66 42.02 95.12 41.74 C 94.46 42.93 93.95 44.20 93.45 45.47 L 93.08 46.32 C 91.72 46.20 90.37 46.08 89.02 45.97 C 89.09 44.11 88.89 42.25 88.69 40.40 Z" />
</g>
<g id="#9bb2c7ff">
<path fill="#9bb2c7" opacity="1.00" d=" M 103.07 39.99 C 104.52 40.27 105.92 40.77 107.28 41.33 C 105.97 42.75 103.31 42.60 102.71 40.56 L 103.07 39.99 Z" />
</g>
<g id="#3e3a34ff">
<path fill="#3e3a34" opacity="1.00" d=" M 136.18 41.45 C 136.65 41.19 137.59 40.67 138.06 40.41 C 138.10 40.79 138.18 41.53 138.22 41.91 L 137.58 42.17 C 137.23 41.99 136.53 41.63 136.18 41.45 Z" />
</g>
<g id="#716350ff">
<path fill="#716350" opacity="1.00" d=" M 196.49 40.00 C 197.16 41.19 197.79 42.41 198.44 43.62 C 197.03 44.24 195.63 44.86 194.23 45.47 C 193.74 45.83 192.77 46.54 192.29 46.89 L 192.04 47.28 L 191.76 47.69 C 191.45 46.01 191.15 44.34 190.85 42.66 C 191.90 42.02 192.94 41.36 194.00 40.72 C 192.17 44.53 197.37 43.06 196.49 40.00 Z" />
</g>
<g id="#383532ff">
<path fill="#383532" opacity="1.00" d=" M 200.21 40.68 C 201.72 40.83 203.22 41.09 204.74 40.96 C 206.57 40.91 208.40 40.78 210.23 40.59 C 209.77 41.37 209.32 42.16 208.87 42.95 L 208.40 43.04 C 206.96 43.05 205.97 44.21 205.50 45.45 L 205.08 46.16 C 204.93 46.42 204.62 46.93 204.47 47.19 C 203.82 47.04 202.53 46.73 201.88 46.58 C 201.44 44.58 200.84 42.62 200.21 40.68 Z" />
</g>
<g id="#adc2d9fe">
<path fill="#adc2d9" opacity="1.00" d=" M 95.12 41.74 C 95.42 41.55 96.01 41.18 96.31 40.99 C 96.52 41.22 96.94 41.69 97.15 41.92 L 96.93 42.59 C 96.14 43.68 95.18 44.65 94.04 45.36 L 93.45 45.47 C 93.95 44.20 94.46 42.93 95.12 41.74 Z" />
<path fill="#adc2d9" opacity="1.00" d=" M 33.40 45.81 C 33.96 46.03 35.08 46.48 35.63 46.70 C 35.27 47.26 34.53 48.38 34.16 48.94 C 33.54 48.57 32.31 47.84 31.70 47.48 C 32.12 47.06 32.97 46.22 33.40 45.81 Z" />
</g>
<g id="#9bb5d6ff">
<path fill="#9bb5d6" opacity="1.00" d=" M 150.08 41.35 C 150.55 41.43 151.48 41.61 151.94 41.70 C 151.98 42.07 152.07 42.81 152.11 43.18 C 151.17 43.53 150.21 43.86 149.25 44.15 L 148.66 44.11 C 149.07 43.16 149.54 42.23 150.08 41.35 Z" />
<path fill="#9bb5d6" opacity="1.00" d=" M 38.22 46.90 C 38.78 45.06 40.28 43.71 42.12 43.23 C 42.13 43.63 42.15 44.42 42.16 44.82 C 41.12 45.51 40.03 46.13 38.91 46.67 L 38.22 46.90 Z" />
</g>
<g id="#278cd8ff">
<path fill="#278cd8" opacity="1.00" d=" M 100.08 42.27 C 100.43 42.33 101.13 42.46 101.48 42.53 C 102.32 42.70 103.15 42.88 103.99 43.07 C 101.11 44.72 98.32 46.51 95.37 48.02 C 95.50 46.86 95.06 45.98 94.04 45.36 C 95.18 44.65 96.14 43.68 96.93 42.59 C 97.40 44.58 99.51 43.60 100.08 42.27 Z" />
<path fill="#278cd8" opacity="1.00" d=" M 212.79 42.01 C 213.21 41.90 214.03 41.67 214.44 41.55 C 214.64 42.28 214.85 43.01 215.07 43.74 C 212.32 45.23 209.64 46.85 206.83 48.23 C 207.45 47.18 207.25 46.30 206.23 45.56 C 207.66 45.29 208.38 44.45 208.40 43.04 L 208.87 42.95 C 210.19 42.69 211.49 42.36 212.79 42.01 Z" />
</g>
<g id="#268ed9fe">
<path fill="#268ed9" opacity="1.00" d=" M 137.58 42.17 L 138.22 41.91 C 138.82 43.33 139.42 44.76 140.03 46.19 C 140.43 47.15 140.84 48.10 141.24 49.06 C 139.68 48.14 138.11 47.22 136.52 46.33 C 136.64 45.03 136.75 43.74 136.90 42.44 L 137.58 42.17 Z" />
<path fill="#268ed9" opacity="1.00" d=" M 82.10 45.11 C 83.37 45.97 84.66 46.83 85.95 47.68 C 84.02 48.74 82.06 49.75 80.06 50.65 C 80.74 48.81 81.43 46.96 82.10 45.11 Z" />
<path fill="#268ed9" opacity="1.00" d=" M 144.48 51.49 C 143.66 50.16 145.54 48.49 146.83 49.13 C 147.00 49.37 147.33 49.83 147.50 50.06 C 147.65 51.49 145.48 52.60 144.48 51.49 Z" />
</g>
<g id="#7d92a0ff">
<path fill="#7d92a0" opacity="1.00" d=" M 138.22 41.91 L 138.73 42.27 C 139.31 42.40 140.48 42.67 141.06 42.81 C 141.59 42.74 142.66 42.60 143.19 42.53 C 142.92 43.06 142.38 44.11 142.11 44.63 C 141.59 45.02 140.55 45.80 140.03 46.19 C 139.42 44.76 138.82 43.33 138.22 41.91 Z" />
</g>
<g id="#525253ff">
<path fill="#525253" opacity="1.00" d=" M 75.14 46.15 C 71.76 46.83 74.81 41.28 76.06 44.37 C 75.83 44.81 75.37 45.71 75.14 46.15 Z" />
</g>
<g id="#7d97a7ff">
<path fill="#7d97a7" opacity="1.00" d=" M 76.82 44.00 C 77.81 43.54 78.78 43.04 79.75 42.53 C 80.07 42.97 80.71 43.83 81.04 44.27 L 80.27 44.58 C 78.39 45.35 76.52 46.12 74.69 47.00 L 75.14 46.15 C 75.37 45.71 75.83 44.81 76.06 44.37 L 76.82 44.00 Z" />
</g>
<g id="#9eb4c9fe">
<path fill="#9eb4c9" opacity="1.00" d=" M 81.22 44.51 C 82.82 44.32 84.42 44.17 86.03 44.03 C 86.66 45.67 87.30 47.30 87.93 48.94 C 87.43 48.62 86.44 47.99 85.95 47.68 C 84.66 46.83 83.37 45.97 82.10 45.11 L 81.22 44.51 Z" />
</g>
<g id="#413c36ff">
<path fill="#413c36" opacity="1.00" d=" M 129.13 45.80 C 128.11 43.98 131.40 42.41 132.48 44.03 C 131.46 44.78 130.44 45.66 129.13 45.80 Z" />
</g>
<g id="#67625aff">
<path fill="#67625a" opacity="1.00" d=" M 133.92 43.48 C 134.66 43.22 136.15 42.70 136.90 42.44 C 136.75 43.74 136.64 45.03 136.52 46.33 L 136.43 47.31 C 136.07 46.78 135.35 45.72 134.99 45.19 C 134.63 44.62 134.27 44.05 133.92 43.48 Z" />
</g>
<g id="#95a7b8ff">
<path fill="#95a7b8" opacity="1.00" d=" M 143.19 42.53 L 143.95 42.43 C 144.87 43.06 145.45 43.91 145.68 45.00 C 144.48 45.02 143.27 44.93 142.11 44.63 C 142.38 44.11 142.92 43.06 143.19 42.53 Z" />
</g>
<g id="#7695aaff">
<path fill="#7695aa" opacity="1.00" d=" M 184.94 46.18 C 186.87 44.94 188.88 43.83 190.85 42.66 C 191.15 44.34 191.45 46.01 191.76 47.69 C 191.49 48.07 190.96 48.82 190.69 49.19 C 190.32 47.89 189.95 46.59 189.59 45.29 C 188.21 45.75 186.83 46.21 185.45 46.67 C 185.02 46.81 184.18 47.11 183.75 47.25 C 184.05 46.98 184.64 46.45 184.94 46.18 Z" />
</g>
<g id="#5b5d5afe">
<path fill="#5b5d5a" opacity="1.00" d=" M 142.11 44.63 C 143.27 44.93 144.48 45.02 145.68 45.00 C 145.85 45.70 146.19 47.12 146.35 47.82 L 145.35 47.46 C 143.99 46.67 142.12 47.15 141.51 48.65 L 141.24 49.06 C 140.84 48.10 140.43 47.15 140.03 46.19 C 140.55 45.80 141.59 45.02 142.11 44.63 Z" />
</g>
<g id="#2988d4ff">
<path fill="#2988d4" opacity="1.00" d=" M 74.69 47.00 C 76.52 46.12 78.39 45.35 80.27 44.58 C 79.58 46.89 78.81 49.17 77.97 51.43 C 77.38 50.40 76.79 49.37 76.22 48.33 C 74.35 48.93 72.46 49.49 70.56 49.99 C 71.90 48.94 73.20 47.82 74.69 47.00 Z" />
</g>
<g id="#278bd6ff">
<path fill="#278bd6" opacity="1.00" d=" M 185.45 46.67 C 186.83 46.21 188.21 45.75 189.59 45.29 C 189.95 46.59 190.32 47.89 190.69 49.19 C 190.96 48.82 191.49 48.07 191.76 47.69 L 192.04 47.28 C 191.61 48.37 191.19 49.47 190.79 50.57 C 188.98 50.30 187.15 50.13 185.32 50.02 C 185.36 48.90 185.40 47.79 185.45 46.67 Z" />
</g>
<g id="#839cadff">
<path fill="#839cad" opacity="1.00" d=" M 197.68 45.59 C 199.39 44.27 200.76 46.24 201.20 47.74 C 200.53 47.57 199.20 47.22 198.54 47.04 C 198.33 46.68 197.90 45.95 197.68 45.59 Z" />
<path fill="#839cad" opacity="1.00" d=" M 20.06 47.11 C 21.16 45.80 23.05 46.51 23.88 47.74 L 23.30 48.32 C 21.93 48.58 20.85 48.17 20.06 47.11 Z" />
</g>
<g id="#8ca7c8ff">
<path fill="#8ca7c8" opacity="1.00" d=" M 15.83 47.55 C 14.35 49.87 10.60 46.80 14.03 46.03 C 14.48 46.41 15.38 47.17 15.83 47.55 Z" />
<path fill="#8ca7c8" opacity="1.00" d=" M 180.02 46.82 C 180.56 44.93 182.92 46.30 183.75 47.25 C 182.62 47.72 180.44 48.59 180.02 46.82 Z" />
</g>
<g id="#818a91ff">
<path fill="#818a91" opacity="1.00" d=" M 16.44 46.94 C 17.03 46.56 18.22 45.80 18.81 45.42 L 19.29 46.07 C 18.64 46.49 17.36 47.34 16.72 47.76 L 16.44 46.94 Z" />
</g>
<g id="#407acbff">
<path fill="#407acb" opacity="1.00" d=" M 57.09 46.91 C 58.87 46.56 60.65 46.22 62.44 45.92 C 62.12 46.34 61.50 47.18 61.19 47.60 C 60.93 47.96 60.42 48.67 60.16 49.03 C 62.46 50.72 64.75 52.41 67.09 54.03 C 64.14 53.73 61.18 53.39 58.24 53.08 C 58.74 52.34 59.24 51.60 59.74 50.86 C 58.86 49.54 57.96 48.23 57.09 46.91 Z" />
<path fill="#407acb" opacity="1.00" d=" M 169.10 46.94 C 170.88 46.54 172.66 46.17 174.46 45.82 C 174.16 46.23 173.56 47.05 173.26 47.46 C 172.98 47.85 172.43 48.63 172.15 49.02 C 174.45 50.71 176.74 52.41 179.09 54.03 C 176.14 53.73 173.18 53.39 170.24 53.08 C 170.74 52.34 171.24 51.60 171.75 50.86 C 170.86 49.55 169.97 48.25 169.10 46.94 Z" />
</g>
<g id="#a0b6cbff">
<path fill="#a0b6cb" opacity="1.00" d=" M 194.56 47.11 C 195.60 46.60 196.64 46.09 197.68 45.59 C 197.90 45.95 198.33 46.68 198.54 47.04 L 199.23 48.12 L 198.37 48.04 C 198.11 46.70 195.77 46.31 196.15 48.10 C 195.75 47.85 194.96 47.35 194.56 47.11 Z" />
</g>
<g id="#2b8cd4ff">
<path fill="#2b8cd4" opacity="1.00" d=" M 204.47 47.19 C 204.62 46.93 204.93 46.42 205.08 46.16 C 205.12 46.66 205.19 47.67 205.22 48.18 C 204.77 48.70 203.86 49.74 203.40 50.27 C 202.17 51.07 200.88 51.78 199.61 52.51 C 199.67 51.95 199.79 50.85 199.86 50.30 C 199.70 49.75 199.39 48.66 199.23 48.12 L 198.54 47.04 C 199.20 47.22 200.53 47.57 201.20 47.74 L 201.71 48.05 C 202.62 48.97 204.10 48.30 204.47 47.19 Z" />
</g>
<g id="#417acbff">
<path fill="#417acb" opacity="1.00" d=" M 2.83 47.29 C 3.35 47.36 3.87 47.44 4.39 47.52 C 4.77 47.59 5.53 47.73 5.91 47.79 C 5.69 48.83 5.47 49.88 5.25 50.92 C 7.20 52.29 9.15 53.64 11.10 55.01 C 8.36 54.76 5.62 54.49 2.89 54.24 C 3.14 51.92 3.03 49.60 2.83 47.29 Z" />
</g>
<g id="#2989d5ff">
<path fill="#2989d5" opacity="1.00" d=" M 19.29 46.07 C 19.48 46.33 19.87 46.85 20.06 47.11 C 20.85 48.17 21.93 48.58 23.30 48.32 C 25.47 49.24 27.56 50.33 29.63 51.45 C 24.80 51.08 20.00 50.55 15.18 50.06 C 15.70 49.30 16.21 48.53 16.72 47.76 C 17.36 47.34 18.64 46.49 19.29 46.07 Z" />
</g>
<g id="#437abeff">
<path fill="#437abe" opacity="1.00" d=" M 35.63 46.70 C 36.17 47.00 37.25 47.58 37.79 47.88 L 37.93 48.73 C 36.67 48.86 35.42 48.90 34.16 48.94 C 34.53 48.38 35.27 47.26 35.63 46.70 Z" />
</g>
<g id="#2c85c4fe">
<path fill="#2c85c4" opacity="1.00" d=" M 141.51 48.65 C 142.12 47.15 143.99 46.67 145.35 47.46 C 145.70 49.36 142.18 50.62 141.51 48.65 Z" />
</g>
<g id="#4575cbff">
<path fill="#4575cb" opacity="1.00" d=" M 44.13 50.95 C 47.48 50.42 44.16 55.22 43.31 52.08 C 43.52 51.80 43.93 51.23 44.13 50.95 Z" />
</g>
</svg>
