<?xml version="1.0" encoding="UTF-8" ?>
<!DOCTYPE svg PUBLIC "-//W3C//DTD SVG 1.1//EN" "http://www.w3.org/Graphics/SVG/1.1/DTD/svg11.dtd">
<svg width="224pt" height="56pt" viewBox="0 0 224 56" version="1.1" xmlns="http://www.w3.org/2000/svg">
<g id="#3c6bbeff">
<path fill="#3c6bbe" opacity="1.00" d=" M 0.00 0.00 L 25.55 0.00 C 26.57 1.09 27.54 2.23 28.51 3.37 C 21.96 4.14 14.95 5.87 8.58 3.34 C 9.49 5.30 10.57 7.27 10.76 9.47 C 8.72 11.39 6.36 12.93 4.12 14.61 C 8.11 14.24 12.12 14.10 16.12 14.08 C 14.52 12.24 12.92 10.40 11.34 8.53 C 14.02 6.87 17.03 5.41 20.28 5.97 C 25.38 6.91 29.95 3.83 34.92 3.47 C 40.27 4.75 45.23 8.31 51.04 6.77 C 54.88 7.02 56.99 3.36 59.36 0.99 C 54.61 2.86 49.74 5.16 44.46 4.25 C 39.67 3.32 35.17 1.29 30.48 0.00 L 85.35 0.00 C 79.74 5.46 71.48 2.77 64.69 2.20 C 65.30 4.46 68.15 7.54 65.58 9.42 C 63.80 10.87 61.99 12.27 60.15 13.63 C 64.13 13.23 68.13 13.10 72.12 13.08 C 70.53 11.24 68.92 9.40 67.34 7.54 C 70.22 5.60 73.57 4.29 77.09 5.07 C 82.27 6.37 85.93 0.94 91.03 1.02 C 95.10 1.84 98.07 5.52 102.32 5.72 C 105.38 6.07 108.46 6.24 111.53 6.49 C 111.72 5.54 111.91 4.60 112.11 3.65 C 105.85 3.44 99.32 3.48 93.87 0.00 L 138.85 0.00 C 133.38 3.49 126.69 2.10 120.70 1.21 C 121.44 3.24 122.84 5.26 122.57 7.49 C 120.65 9.45 118.30 10.93 116.14 12.62 C 120.12 12.24 124.12 12.10 128.12 12.08 C 126.53 10.24 124.93 8.41 123.35 6.56 C 126.62 4.03 130.68 3.25 134.66 4.34 C 137.84 5.32 139.49 1.64 141.54 0.00 L 151.38 0.00 C 152.64 1.71 153.78 3.60 155.57 4.83 C 159.45 5.84 163.50 6.16 167.47 6.70 C 167.70 5.58 167.94 4.45 168.17 3.32 C 164.92 3.51 161.68 3.69 158.43 3.86 C 157.22 2.56 156.02 1.26 154.77 0.00 L 197.39 0.00 C 192.70 4.89 185.56 1.89 180.10 4.66 C 177.47 7.61 175.30 11.00 172.34 13.68 C 176.25 13.26 180.18 13.11 184.12 13.07 C 182.52 11.23 180.92 9.40 179.34 7.54 C 182.22 5.60 185.57 4.29 189.09 5.07 C 194.27 6.37 197.93 0.94 203.03 1.01 C 206.35 1.75 208.94 4.18 212.09 5.33 C 216.00 6.12 220.03 6.12 224.00 6.39 L 224.00 9.30 C 219.79 9.90 214.69 8.87 211.42 12.08 C 210.24 13.18 209.12 14.33 207.99 15.46 C 213.47 14.83 218.58 12.58 224.00 11.65 L 224.00 43.94 C 221.36 44.98 218.63 45.77 216.19 47.23 C 218.78 47.61 221.39 47.94 224.00 48.25 L 224.00 49.80 C 214.69 49.47 205.42 50.40 196.13 50.73 C 194.06 49.96 192.04 49.07 190.05 48.12 C 192.85 46.94 195.67 45.77 198.53 44.71 C 198.08 42.04 197.94 39.33 197.82 36.63 C 200.62 36.29 203.43 35.95 206.23 35.62 C 205.55 33.73 204.86 31.85 204.16 29.96 C 201.77 31.84 199.58 34.11 196.77 35.35 C 192.71 36.16 189.19 32.88 185.55 31.73 C 188.18 27.49 192.88 25.82 197.81 26.26 C 197.45 22.44 199.81 19.42 202.68 17.21 C 198.55 18.06 194.33 17.79 190.22 16.95 C 192.78 18.81 195.18 20.88 197.20 23.33 C 193.55 24.70 189.86 25.97 186.18 27.27 C 185.26 29.79 185.69 33.44 182.92 34.68 C 179.41 36.14 175.73 37.10 172.13 38.27 C 174.64 41.84 177.60 45.15 181.58 47.11 C 179.44 44.58 177.26 42.09 175.25 39.46 C 181.40 36.44 188.27 34.60 195.06 36.89 C 193.15 41.69 189.54 45.68 188.07 50.66 C 187.63 50.66 186.76 50.67 186.33 50.67 C 181.48 50.47 176.65 50.20 171.81 49.89 C 172.91 48.25 174.00 46.60 175.12 44.98 C 173.21 45.68 171.30 46.40 169.38 47.08 C 169.78 48.41 170.19 49.74 170.60 51.06 C 168.64 50.99 166.68 51.01 164.73 51.01 C 164.47 50.68 163.95 50.00 163.69 49.67 C 164.61 49.65 166.87 49.45 166.38 48.03 C 165.00 46.84 163.21 48.19 162.06 49.06 L 161.51 49.47 C 158.99 49.19 156.44 48.94 153.90 49.22 C 149.10 49.95 144.30 50.92 139.43 50.90 C 136.81 49.35 134.88 46.95 132.90 44.70 C 132.72 46.72 132.71 48.75 132.74 50.78 C 132.13 50.76 130.92 50.73 130.32 50.71 C 124.88 50.15 119.43 49.66 114.07 48.62 C 114.18 49.17 114.42 50.27 114.54 50.82 C 113.73 50.71 112.92 50.62 112.12 50.53 C 107.99 49.99 103.85 49.49 99.69 49.45 C 99.29 49.49 98.49 49.56 98.09 49.60 C 93.89 50.10 89.67 50.54 85.43 50.66 C 83.33 50.25 81.24 49.77 79.15 49.30 C 83.32 43.77 86.50 36.67 93.92 34.83 C 93.31 33.14 92.68 31.46 92.06 29.77 C 89.65 31.84 87.28 33.94 84.93 36.06 C 81.16 34.55 77.40 33.02 73.67 31.42 C 76.43 27.45 80.99 25.84 85.80 26.26 C 85.45 22.44 87.81 19.42 90.68 17.21 C 86.55 18.06 82.33 17.79 78.22 16.95 C 80.78 18.81 83.18 20.88 85.20 23.33 C 81.55 24.70 77.86 25.97 74.18 27.27 C 73.27 29.79 73.69 33.44 70.92 34.68 C 67.42 36.14 63.73 37.10 60.13 38.27 C 62.64 41.84 65.60 45.15 69.58 47.11 C 67.44 44.58 65.26 42.09 63.25 39.46 C 69.37 36.46 76.20 34.63 82.98 36.84 C 81.37 41.32 78.82 45.38 75.68 48.94 C 76.13 49.33 77.03 50.09 77.48 50.48 C 76.70 50.47 75.14 50.46 74.37 50.46 C 69.51 50.34 64.66 50.16 59.81 49.91 C 60.90 48.26 62.00 46.61 63.12 44.98 C 61.19 45.69 59.27 46.40 57.34 47.09 C 57.76 48.34 58.19 49.58 58.61 50.83 C 57.81 50.70 57.00 50.58 56.19 50.47 C 53.02 50.01 49.85 49.46 46.65 49.33 C 45.85 49.29 45.06 49.28 44.26 49.29 C 44.78 48.16 45.25 47.00 45.72 45.84 C 47.92 46.42 50.12 46.98 52.35 47.41 C 48.08 43.89 42.77 43.18 37.53 45.00 C 38.96 45.17 40.39 45.33 41.82 45.49 C 42.41 46.91 43.04 48.30 43.70 49.68 C 43.47 49.84 43.02 50.15 42.79 50.31 C 37.90 50.86 32.97 51.06 28.06 51.31 C 26.66 50.83 25.27 50.31 23.88 49.80 C 27.16 44.35 30.19 38.54 35.35 34.57 C 35.40 33.82 35.44 33.07 35.48 32.32 C 30.78 35.54 24.82 35.73 19.69 33.42 C 19.84 32.65 20.13 31.11 20.28 30.34 C 23.69 28.10 26.82 25.48 29.88 22.80 C 32.96 19.92 37.45 20.46 41.32 20.22 C 35.32 16.36 28.52 18.74 22.04 19.55 C 23.63 20.40 25.21 21.27 26.80 22.12 C 26.91 22.95 27.12 24.60 27.23 25.43 C 23.72 26.44 20.15 27.21 16.54 27.71 C 17.58 29.55 18.61 31.39 19.63 33.23 C 13.33 35.66 6.72 37.26 0.00 37.89 L 0.00 31.07 C 3.83 29.66 7.65 28.20 11.51 26.86 C 11.87 24.83 11.31 21.95 13.55 20.87 C 15.60 19.65 17.80 18.74 19.97 17.75 C 13.34 19.33 6.40 20.59 0.00 17.43 L 0.00 0.00 M 138.72 9.43 C 141.12 10.60 143.55 11.71 146.02 12.72 C 145.38 14.02 144.73 15.31 144.07 16.60 C 147.07 16.51 150.07 16.60 153.06 16.80 C 149.09 15.50 146.27 12.56 144.58 8.82 C 142.63 9.05 140.67 9.22 138.72 9.43 M 157.81 9.20 C 156.04 10.69 154.36 12.29 152.70 13.90 C 158.19 13.28 164.35 9.88 169.48 13.43 C 169.69 12.57 169.89 11.70 170.09 10.83 C 166.32 8.56 161.92 9.80 157.81 9.20 M 98.75 13.23 C 97.80 13.90 96.85 14.56 95.90 15.23 C 102.11 13.21 109.16 13.76 114.95 10.56 C 109.79 9.84 101.88 7.84 98.75 13.23 M 43.18 10.51 C 43.74 11.55 44.30 12.59 44.86 13.64 C 43.14 14.42 41.45 15.28 39.76 16.15 C 46.10 14.74 53.12 14.87 58.91 11.59 C 53.75 10.37 48.44 10.47 43.18 10.51 M 118.66 17.05 C 111.64 14.54 104.92 18.51 98.30 20.23 C 98.99 24.06 100.70 27.59 104.67 28.89 C 104.44 30.21 104.16 31.52 103.86 32.82 C 101.25 32.95 98.64 33.06 96.03 33.16 C 96.04 33.98 96.05 35.62 96.06 36.44 C 98.33 36.10 102.87 35.42 105.14 35.08 C 107.26 33.33 108.87 31.07 110.45 28.85 C 106.35 27.77 101.67 26.58 100.05 22.11 C 106.91 18.87 115.86 16.10 122.41 21.28 C 118.13 22.91 113.63 24.53 110.55 28.10 C 115.10 26.62 119.31 24.29 123.83 22.70 C 123.80 20.90 123.79 19.10 124.19 17.34 C 126.60 15.95 129.33 15.31 131.96 14.48 C 131.69 14.17 131.15 13.55 130.88 13.24 C 126.83 14.41 123.04 17.62 118.66 17.05 M 154.14 19.15 C 155.25 23.09 157.58 26.37 160.60 29.11 C 160.02 30.39 159.45 31.68 158.90 32.97 C 156.06 32.81 153.20 32.57 150.37 32.94 L 150.49 32.27 C 149.16 28.76 145.76 31.69 143.54 32.47 C 139.28 35.20 134.19 32.85 129.98 31.15 C 129.95 30.28 129.88 28.54 129.85 27.68 C 134.38 25.12 139.62 25.43 144.64 25.11 C 139.73 22.27 134.23 23.69 129.51 26.12 C 128.64 28.70 127.80 31.31 126.68 33.80 C 130.62 35.33 135.92 34.92 138.82 38.27 C 138.58 41.23 137.28 43.97 136.40 46.77 C 139.83 43.89 141.35 39.51 144.29 36.24 C 148.64 33.70 154.15 34.10 158.68 35.99 C 159.03 37.91 159.74 41.76 160.10 43.69 C 161.14 38.75 162.10 33.80 162.86 28.81 C 169.01 29.96 174.56 27.35 179.84 24.58 C 179.73 21.99 180.42 19.48 181.52 17.15 C 176.97 20.12 172.16 17.43 167.55 16.11 C 162.93 15.78 158.60 18.25 154.14 19.15 M 42.28 21.26 C 43.03 25.51 45.61 28.80 48.79 31.56 C 48.03 34.55 45.34 36.47 43.53 38.81 C 46.05 38.65 48.57 38.52 51.08 38.33 C 51.65 34.84 52.77 31.48 53.86 28.13 C 52.87 28.73 51.88 29.35 50.91 29.98 C 48.70 28.02 44.57 26.82 45.00 23.23 C 50.98 18.77 60.68 17.42 66.66 22.61 C 62.86 24.67 58.78 26.23 55.25 28.77 C 59.96 29.45 63.68 26.07 67.84 24.55 C 67.73 21.98 68.41 19.50 69.51 17.19 C 67.33 17.99 65.02 18.95 62.67 18.25 C 55.68 15.30 48.91 19.61 42.28 21.26 M 210.19 20.01 C 211.00 23.77 212.50 27.44 216.45 28.82 C 216.25 30.15 216.05 31.49 215.87 32.82 C 213.23 32.95 210.59 33.08 207.96 33.21 C 208.00 33.89 208.09 35.26 208.13 35.94 C 210.34 36.55 212.53 37.71 214.83 38.16 C 217.89 35.54 219.99 32.02 222.34 28.79 C 218.36 27.76 213.81 26.62 212.16 22.34 C 214.84 21.01 217.55 19.74 220.26 18.49 C 216.90 19.00 213.55 19.52 210.19 20.01 M 29.19 27.21 C 27.40 27.63 28.28 30.46 29.98 29.96 C 31.79 29.58 30.88 26.69 29.19 27.21 M 114.63 36.96 C 114.49 37.38 114.35 37.80 114.21 38.23 C 115.47 38.99 116.74 39.75 117.97 40.57 C 121.71 38.65 125.58 37.00 129.37 35.16 C 124.48 35.92 119.62 37.56 114.63 36.96 M 212.67 42.29 C 213.54 44.08 214.46 45.84 215.44 47.58 C 215.38 45.31 215.42 43.05 215.34 40.78 C 214.67 41.16 213.33 41.91 212.67 42.29 M 96.68 45.61 C 98.42 46.16 100.17 46.70 101.91 47.23 C 101.94 46.41 101.99 44.77 102.01 43.94 C 100.23 44.48 98.44 45.02 96.68 45.61 M 151.48 44.97 C 153.25 45.86 155.05 46.71 156.85 47.53 C 156.27 46.72 155.69 45.91 155.11 45.10 C 159.53 45.80 164.05 45.65 168.42 44.64 C 162.78 43.99 157.09 44.20 151.48 44.97 M 209.53 45.12 C 209.68 45.44 209.96 46.09 210.10 46.41 C 212.70 47.02 210.95 42.94 209.53 45.12 Z" />
<path fill="#3c6bbe" opacity="1.00" d=" M 8.37 39.89 C 11.40 38.33 14.46 36.30 17.97 36.25 C 21.58 36.55 24.74 38.53 27.94 40.05 C 24.85 43.20 20.62 45.80 20.17 50.62 C 19.72 50.64 18.83 50.67 18.39 50.68 C 13.96 50.54 9.54 50.32 5.12 50.12 C 5.96 48.75 6.79 47.38 7.61 46.01 C 5.53 47.28 3.42 48.53 1.52 50.08 C 1.00 50.52 0.49 50.98 0.00 51.45 L 0.00 38.12 C 2.81 39.04 6.25 39.25 8.16 41.82 C 10.29 44.31 12.81 46.43 15.63 48.11 C 13.21 45.37 10.74 42.68 8.37 39.89 Z" />
</g>
<g id="#4179cbff">
<path fill="#4179cb" opacity="1.00" d=" M 25.55 0.00 L 30.48 0.00 C 35.17 1.29 39.67 3.32 44.46 4.25 C 49.74 5.16 54.61 2.86 59.36 0.99 C 56.99 3.36 54.88 7.02 51.04 6.77 C 45.23 8.31 40.27 4.75 34.92 3.47 C 29.95 3.83 25.38 6.91 20.28 5.97 C 17.03 5.41 14.02 6.87 11.34 8.53 C 12.92 10.40 14.52 12.24 16.12 14.08 C 12.12 14.10 8.11 14.24 4.12 14.61 C 6.36 12.93 8.72 11.39 10.76 9.47 C 10.57 7.27 9.49 5.30 8.58 3.34 C 14.95 5.87 21.96 4.14 28.51 3.37 C 27.54 2.23 26.57 1.09 25.55 0.00 Z" />
<path fill="#4179cb" opacity="1.00" d=" M 85.35 0.00 L 93.87 0.00 C 99.32 3.48 105.85 3.44 112.11 3.65 C 111.91 4.60 111.72 5.54 111.53 6.49 C 108.46 6.24 105.38 6.07 102.32 5.72 C 98.07 5.52 95.10 1.84 91.03 1.02 C 85.93 0.94 82.27 6.37 77.09 5.07 C 73.57 4.29 70.22 5.60 67.34 7.54 C 68.92 9.40 70.53 11.24 72.12 13.08 C 68.13 13.10 64.13 13.23 60.15 13.63 C 61.99 12.27 63.80 10.87 65.58 9.42 C 68.15 7.54 65.30 4.46 64.69 2.20 C 71.48 2.77 79.74 5.46 85.35 0.00 Z" />
<path fill="#4179cb" opacity="1.00" d=" M 197.39 0.00 L 205.87 0.00 C 211.27 3.52 217.77 3.46 224.00 3.68 L 224.00 6.39 C 220.03 6.12 216.00 6.12 212.09 5.33 C 208.94 4.18 206.35 1.75 203.03 1.01 C 197.93 0.94 194.27 6.37 189.09 5.07 C 185.57 4.29 182.22 5.60 179.34 7.54 C 180.92 9.40 182.52 11.23 184.12 13.07 C 180.18 13.11 176.25 13.26 172.34 13.68 C 175.30 11.00 177.47 7.61 180.10 4.66 C 185.56 1.89 192.70 4.89 197.39 0.00 Z" />
</g>
<g id="#4278caff">
<path fill="#4278ca" opacity="1.00" d=" M 138.85 0.00 L 141.54 0.00 C 139.49 1.64 137.84 5.32 134.66 4.34 C 130.68 3.25 126.62 4.03 123.35 6.56 C 124.93 8.41 126.53 10.24 128.12 12.08 C 124.12 12.10 120.12 12.24 116.14 12.62 C 118.30 10.93 120.65 9.45 122.57 7.49 C 122.84 5.26 121.44 3.24 120.70 1.21 C 126.69 2.10 133.38 3.49 138.85 0.00 Z" />
</g>
<g id="#4079ccff">
<path fill="#4079cc" opacity="1.00" d=" M 151.38 0.00 L 154.77 0.00 C 156.02 1.26 157.22 2.56 158.43 3.86 C 161.68 3.69 164.92 3.51 168.17 3.32 C 167.94 4.45 167.70 5.58 167.47 6.70 C 163.50 6.16 159.45 5.84 155.57 4.83 C 153.78 3.60 152.64 1.71 151.38 0.00 Z" />
</g>
<g id="#3c6abefe">
<path fill="#3c6abe" opacity="1.00" d=" M 205.87 0.00 L 224.00 0.00 L 224.00 3.68 C 217.77 3.46 211.27 3.52 205.87 0.00 Z" />
</g>
<g id="#4377caff">
<path fill="#4377ca" opacity="1.00" d=" M 138.72 9.43 C 140.67 9.22 142.63 9.05 144.58 8.82 C 146.27 12.56 149.09 15.50 153.06 16.80 C 150.07 16.60 147.07 16.51 144.07 16.60 C 144.73 15.31 145.38 14.02 146.02 12.72 C 143.55 11.71 141.12 10.60 138.72 9.43 Z" />
</g>
<g id="#407accff">
<path fill="#407acc" opacity="1.00" d=" M 157.81 9.20 C 161.92 9.80 166.32 8.56 170.09 10.83 C 169.89 11.70 169.69 12.57 169.48 13.43 C 164.35 9.88 158.19 13.28 152.70 13.90 C 154.36 12.29 156.04 10.69 157.81 9.20 Z" />
</g>
<g id="#427bcbff">
<path fill="#427bcb" opacity="1.00" d=" M 98.75 13.23 C 101.88 7.84 109.79 9.84 114.95 10.56 C 109.16 13.76 102.11 13.21 95.90 15.23 C 96.85 14.56 97.80 13.90 98.75 13.23 Z" />
<path fill="#427bcb" opacity="1.00" d=" M 211.42 12.08 C 214.69 8.87 219.79 9.90 224.00 9.30 L 224.00 11.65 C 218.58 12.58 213.47 14.83 207.99 15.46 C 209.12 14.33 210.24 13.18 211.42 12.08 Z" />
</g>
<g id="#437bccff">
<path fill="#437bcc" opacity="1.00" d=" M 43.18 10.51 C 48.44 10.47 53.75 10.37 58.91 11.59 C 53.12 14.87 46.10 14.74 39.76 16.15 C 41.45 15.28 43.14 14.42 44.86 13.64 C 44.30 12.59 43.74 11.55 43.18 10.51 Z" />
</g>
<g id="#4378caff">
<path fill="#4378ca" opacity="1.00" d=" M 118.66 17.05 C 123.04 17.62 126.83 14.41 130.88 13.24 C 131.15 13.55 131.69 14.17 131.96 14.48 C 129.33 15.31 126.60 15.95 124.19 17.34 C 123.79 19.10 123.80 20.90 123.83 22.70 C 119.31 24.29 115.10 26.62 110.55 28.10 C 113.63 24.53 118.13 22.91 122.41 21.28 C 115.86 16.10 106.91 18.87 100.05 22.11 C 101.67 26.58 106.35 27.77 110.45 28.85 C 108.87 31.07 107.26 33.33 105.14 35.08 C 102.87 35.42 98.33 36.10 96.06 36.44 C 96.05 35.62 96.04 33.98 96.03 33.16 C 98.64 33.06 101.25 32.95 103.86 32.82 C 104.16 31.52 104.44 30.21 104.67 28.89 C 100.70 27.59 98.99 24.06 98.30 20.23 C 104.92 18.51 111.64 14.54 118.66 17.05 Z" />
<path fill="#4378ca" opacity="1.00" d=" M 190.22 16.95 C 194.33 17.79 198.55 18.06 202.68 17.21 C 199.81 19.42 197.45 22.44 197.81 26.26 C 192.88 25.82 188.18 27.49 185.55 31.73 C 189.19 32.88 192.71 36.16 196.77 35.35 C 199.58 34.11 201.77 31.84 204.16 29.96 C 204.86 31.85 205.55 33.73 206.23 35.62 C 203.43 35.95 200.62 36.29 197.82 36.63 C 197.94 39.33 198.08 42.04 198.53 44.71 C 195.67 45.77 192.85 46.94 190.05 48.12 C 192.04 49.07 194.06 49.96 196.13 50.73 L 195.29 50.74 C 192.88 50.70 190.47 50.68 188.07 50.66 C 189.54 45.68 193.15 41.69 195.06 36.89 C 188.27 34.60 181.40 36.44 175.25 39.46 C 177.26 42.09 179.44 44.58 181.58 47.11 C 177.60 45.15 174.64 41.84 172.13 38.27 C 175.73 37.10 179.41 36.14 182.92 34.68 C 185.69 33.44 185.26 29.79 186.18 27.27 C 189.86 25.97 193.55 24.70 197.20 23.33 C 195.18 20.88 192.78 18.81 190.22 16.95 Z" />
</g>
<g id="#4377c9ff">
<path fill="#4377c9" opacity="1.00" d=" M 154.14 19.15 C 158.60 18.25 162.93 15.78 167.55 16.11 C 172.16 17.43 176.97 20.12 181.52 17.15 C 180.42 19.48 179.73 21.99 179.84 24.58 C 174.56 27.35 169.01 29.96 162.86 28.81 C 162.10 33.80 161.14 38.75 160.10 43.69 C 159.74 41.76 159.03 37.91 158.68 35.99 C 154.15 34.10 148.64 33.70 144.29 36.24 C 141.35 39.51 139.83 43.89 136.40 46.77 C 137.28 43.97 138.58 41.23 138.82 38.27 C 135.92 34.92 130.62 35.33 126.68 33.80 C 127.80 31.31 128.64 28.70 129.51 26.12 C 134.23 23.69 139.73 22.27 144.64 25.11 C 139.62 25.43 134.38 25.12 129.85 27.68 C 129.88 28.54 129.95 30.28 129.98 31.15 C 134.19 32.85 139.28 35.20 143.54 32.47 C 145.76 31.69 149.16 28.76 150.49 32.27 C 149.57 31.23 148.63 31.10 147.65 31.88 C 147.19 33.50 149.46 33.20 150.37 32.94 C 153.20 32.57 156.06 32.81 158.90 32.97 C 159.45 31.68 160.02 30.39 160.60 29.11 C 157.58 26.37 155.25 23.09 154.14 19.15 M 156.87 20.67 C 156.87 21.59 156.87 23.41 156.87 24.32 C 163.79 28.21 172.35 27.08 178.74 22.71 C 172.69 17.76 163.76 17.04 156.87 20.67 Z" />
</g>
<g id="#4379cbff">
<path fill="#4379cb" opacity="1.00" d=" M 22.04 19.55 C 28.52 18.74 35.32 16.36 41.32 20.22 C 37.45 20.46 32.96 19.92 29.88 22.80 C 26.82 25.48 23.69 28.10 20.28 30.34 C 20.13 31.11 19.84 32.65 19.69 33.42 C 24.82 35.73 30.78 35.54 35.48 32.32 C 35.44 33.07 35.40 33.82 35.35 34.57 C 30.19 38.54 27.16 44.35 23.88 49.80 C 25.27 50.31 26.66 50.83 28.06 51.31 C 26.29 51.29 24.53 51.27 22.77 51.17 C 22.12 51.03 20.82 50.76 20.17 50.62 C 20.62 45.80 24.85 43.20 27.94 40.05 C 24.74 38.53 21.58 36.55 17.97 36.25 C 14.46 36.30 11.40 38.33 8.37 39.89 C 10.74 42.68 13.21 45.37 15.63 48.11 C 12.81 46.43 10.29 44.31 8.16 41.82 C 6.25 39.25 2.81 39.04 0.00 38.12 L 0.00 37.89 C 6.72 37.26 13.33 35.66 19.63 33.23 C 18.61 31.39 17.58 29.55 16.54 27.71 C 20.15 27.21 23.72 26.44 27.23 25.43 C 27.12 24.60 26.91 22.95 26.80 22.12 C 25.21 21.27 23.63 20.40 22.04 19.55 Z" />
</g>
<g id="#4478caff">
<path fill="#4478ca" opacity="1.00" d=" M 42.28 21.26 C 48.91 19.61 55.68 15.30 62.67 18.25 C 65.02 18.95 67.33 17.99 69.51 17.19 C 68.41 19.50 67.73 21.98 67.84 24.55 C 63.68 26.07 59.96 29.45 55.25 28.77 C 58.78 26.23 62.86 24.67 66.66 22.61 C 60.68 17.42 50.98 18.77 45.00 23.23 C 44.57 26.82 48.70 28.02 50.91 29.98 C 51.88 29.35 52.87 28.73 53.86 28.13 C 52.77 31.48 51.65 34.84 51.08 38.33 C 48.57 38.52 46.05 38.65 43.53 38.81 C 45.34 36.47 48.03 34.55 48.79 31.56 C 45.61 28.80 43.03 25.51 42.28 21.26 Z" />
</g>
<g id="#427acbff">
<path fill="#427acb" opacity="1.00" d=" M 0.00 17.43 C 6.40 20.59 13.34 19.33 19.97 17.75 C 17.80 18.74 15.60 19.65 13.55 20.87 C 11.31 21.95 11.87 24.83 11.51 26.86 C 7.65 28.20 3.83 29.66 0.00 31.07 L 0.00 29.15 C 3.69 27.73 7.70 26.72 10.72 24.00 C 7.73 21.26 3.71 20.29 0.00 18.95 L 0.00 17.43 Z" />
</g>
<g id="#4379caff">
<path fill="#4379ca" opacity="1.00" d=" M 78.22 16.95 C 82.33 17.79 86.55 18.06 90.68 17.21 C 87.81 19.42 85.45 22.44 85.80 26.26 C 80.99 25.84 76.43 27.45 73.67 31.42 C 77.40 33.02 81.16 34.55 84.93 36.06 C 87.28 33.94 89.65 31.84 92.06 29.77 C 92.68 31.46 93.31 33.14 93.92 34.83 C 86.50 36.67 83.32 43.77 79.15 49.30 C 81.24 49.77 83.33 50.25 85.43 50.66 C 84.98 50.68 84.06 50.72 83.60 50.74 C 82.05 50.66 80.29 50.70 79.12 51.87 C 78.71 51.52 77.89 50.83 77.48 50.48 C 77.03 50.09 76.13 49.33 75.68 48.94 C 78.82 45.38 81.37 41.32 82.98 36.84 C 76.20 34.63 69.37 36.46 63.25 39.46 C 65.26 42.09 67.44 44.58 69.58 47.11 C 65.60 45.15 62.64 41.84 60.13 38.27 C 63.73 37.10 67.42 36.14 70.92 34.68 C 73.69 33.44 73.27 29.79 74.18 27.27 C 77.86 25.97 81.55 24.70 85.20 23.33 C 83.18 20.88 80.78 18.81 78.22 16.95 Z" />
<path fill="#4379ca" opacity="1.00" d=" M 114.63 36.96 C 119.62 37.56 124.48 35.92 129.37 35.16 C 125.58 37.00 121.71 38.65 117.97 40.57 C 116.74 39.75 115.47 38.99 114.21 38.23 C 114.35 37.80 114.49 37.38 114.63 36.96 Z" />
</g>
<g id="#3c6bbdff">
<path fill="#3c6bbd" opacity="1.00" d=" M 156.87 20.67 C 163.76 17.04 172.69 17.76 178.74 22.71 C 172.35 27.08 163.79 28.21 156.87 24.32 C 156.87 23.41 156.87 21.59 156.87 20.67 Z" />
</g>
<g id="#4477c9ff">
<path fill="#4477c9" opacity="1.00" d=" M 210.19 20.01 C 213.55 19.52 216.90 19.00 220.26 18.49 C 217.55 19.74 214.84 21.01 212.16 22.34 C 213.81 26.62 218.36 27.76 222.34 28.79 C 219.99 32.02 217.89 35.54 214.83 38.16 C 212.53 37.71 210.34 36.55 208.13 35.94 C 208.09 35.26 208.00 33.89 207.96 33.21 C 210.59 33.08 213.23 32.95 215.87 32.82 C 216.05 31.49 216.25 30.15 216.45 28.82 C 212.50 27.44 211.00 23.77 210.19 20.01 Z" />
</g>
<g id="#3c6abeff">
<path fill="#3c6abe" opacity="1.00" d=" M 0.00 18.95 C 3.71 20.29 7.73 21.26 10.72 24.00 C 7.70 26.72 3.69 27.73 0.00 29.15 L 0.00 18.95 Z" />
</g>
<g id="#4474c8ff">
<path fill="#4474c8" opacity="1.00" d=" M 29.19 27.21 C 30.88 26.69 31.79 29.58 29.98 29.96 C 28.28 30.46 27.40 27.63 29.19 27.21 Z" />
</g>
<g id="#608fe4ff">
<path fill="#608fe4" opacity="1.00" d=" M 147.65 31.88 C 148.63 31.10 149.57 31.23 150.49 32.27 L 150.37 32.94 C 149.46 33.20 147.19 33.50 147.65 31.88 Z" />
</g>
<g id="#4c80ccff">
<path fill="#4c80cc" opacity="1.00" d=" M 212.67 42.29 C 213.33 41.91 214.67 41.16 215.34 40.78 C 215.42 43.05 215.38 45.31 215.44 47.58 C 214.46 45.84 213.54 44.08 212.67 42.29 Z" />
</g>
<g id="#4779cfff">
<path fill="#4779cf" opacity="1.00" d=" M 37.53 45.00 C 42.77 43.18 48.08 43.89 52.35 47.41 C 50.12 46.98 47.92 46.42 45.72 45.84 C 45.25 47.00 44.78 48.16 44.26 49.29 L 43.70 49.68 C 43.04 48.30 42.41 46.91 41.82 45.49 C 40.39 45.33 38.96 45.17 37.53 45.00 Z" />
</g>
<g id="#5083d1ff">
<path fill="#5083d1" opacity="1.00" d=" M 96.68 45.61 C 98.44 45.02 100.23 44.48 102.01 43.94 C 101.99 44.77 101.94 46.41 101.91 47.23 C 100.17 46.70 98.42 46.16 96.68 45.61 Z" />
</g>
<g id="#477ed0ff">
<path fill="#477ed0" opacity="1.00" d=" M 151.48 44.97 C 157.09 44.20 162.78 43.99 168.42 44.64 C 164.05 45.65 159.53 45.80 155.11 45.10 C 155.69 45.91 156.27 46.72 156.85 47.53 C 155.05 46.71 153.25 45.86 151.48 44.97 Z" />
</g>
<g id="#417fcbff">
<path fill="#417fcb" opacity="1.00" d=" M 57.34 47.09 C 59.27 46.40 61.19 45.69 63.12 44.98 C 62.00 46.61 60.90 48.26 59.81 49.91 C 64.66 50.16 69.51 50.34 74.37 50.46 C 69.17 51.32 63.83 51.86 58.61 50.83 C 58.19 49.58 57.76 48.34 57.34 47.09 Z" />
<path fill="#417fcb" opacity="1.00" d=" M 169.38 47.08 C 171.30 46.40 173.21 45.68 175.12 44.98 C 174.00 46.60 172.91 48.25 171.81 49.89 C 176.65 50.20 181.48 50.47 186.33 50.67 C 181.11 51.36 175.84 51.52 170.60 51.06 C 170.19 49.74 169.78 48.41 169.38 47.08 Z" />
</g>
<g id="#4180cbff">
<path fill="#4180cb" opacity="1.00" d=" M 132.74 50.78 C 132.71 48.75 132.72 46.72 132.90 44.70 C 134.88 46.95 136.81 49.35 139.43 50.90 L 139.98 51.18 C 137.56 51.03 135.15 50.90 132.74 50.78 Z" />
</g>
<g id="#5790d3ff">
<path fill="#5790d3" opacity="1.00" d=" M 209.53 45.12 C 210.95 42.94 212.70 47.02 210.10 46.41 C 209.96 46.09 209.68 45.44 209.53 45.12 Z" />
</g>
<g id="#4271cdff">
<path fill="#4271cd" opacity="1.00" d=" M 216.19 47.23 C 218.63 45.77 221.36 44.98 224.00 43.94 L 224.00 48.25 C 221.39 47.94 218.78 47.61 216.19 47.23 Z" />
</g>
<g id="#4080cbff">
<path fill="#4080cb" opacity="1.00" d=" M 1.52 50.08 C 3.42 48.53 5.53 47.28 7.61 46.01 C 6.79 47.38 5.96 48.75 5.12 50.12 C 9.54 50.32 13.96 50.54 18.39 50.68 C 12.79 51.47 6.94 52.10 1.52 50.08 Z" />
</g>
<g id="#5676acff">
<path fill="#5676ac" opacity="1.00" d=" M 46.65 49.33 C 49.85 49.46 53.02 50.01 56.19 50.47 C 53.00 50.08 49.84 49.65 46.65 49.33 Z" />
</g>
<g id="#417fcaff">
<path fill="#417fca" opacity="1.00" d=" M 114.07 48.62 C 119.43 49.66 124.88 50.15 130.32 50.71 C 125.09 51.36 119.76 51.73 114.54 50.82 C 114.42 50.27 114.18 49.17 114.07 48.62 Z" />
</g>
<g id="#3c6394ff">
<path fill="#3c6394" opacity="1.00" d=" M 153.90 49.22 C 156.44 48.94 158.99 49.19 161.51 49.47 C 159.83 49.95 156.45 50.91 154.76 51.39 L 154.20 51.56 C 154.12 50.97 153.97 49.81 153.90 49.22 Z" />
</g>
<g id="#2e5ea5ff">
<path fill="#2e5ea5" opacity="1.00" d=" M 162.06 49.06 C 163.21 48.19 165.00 46.84 166.38 48.03 C 166.87 49.45 164.61 49.65 163.69 49.67 C 163.28 49.52 162.46 49.22 162.06 49.06 Z" />
</g>
<g id="#527eaaff">
<path fill="#527eaa" opacity="1.00" d=" M 28.06 51.31 C 32.97 51.06 37.90 50.86 42.79 50.31 L 42.04 50.85 C 37.39 51.30 32.72 51.31 28.06 51.31 Z" />
</g>
<g id="#405e4fff">
<path fill="#405e4f" opacity="1.00" d=" M 43.70 49.68 L 44.26 49.29 C 45.06 49.28 45.85 49.29 46.65 49.33 C 49.84 49.65 53.00 50.08 56.19 50.47 C 57.00 50.58 57.81 50.70 58.61 50.83 C 63.83 51.86 69.17 51.32 74.37 50.46 C 75.14 50.46 76.70 50.47 77.48 50.48 C 77.89 50.83 78.71 51.52 79.12 51.87 L 79.50 52.23 C 77.27 52.10 75.03 52.19 72.80 52.40 C 70.73 52.55 68.67 52.81 66.61 53.03 C 61.00 52.93 55.40 52.78 49.79 52.78 C 49.30 52.71 48.32 52.55 47.83 52.47 C 47.27 52.40 46.14 52.25 45.57 52.18 C 44.14 51.98 42.72 51.77 41.29 51.55 L 42.04 50.85 L 42.79 50.31 C 43.02 50.15 43.47 49.84 43.70 49.68 Z" />
</g>
<g id="#5278a4ff">
<path fill="#5278a4" opacity="1.00" d=" M 85.43 50.66 C 89.67 50.54 93.89 50.10 98.09 49.60 C 97.98 50.04 97.76 50.93 97.65 51.38 C 95.21 51.76 92.78 52.16 90.33 52.51 L 89.47 52.62 C 88.07 52.19 86.63 51.93 85.16 51.91 C 84.77 51.62 83.99 51.03 83.60 50.74 C 84.06 50.72 84.98 50.68 85.43 50.66 Z" />
</g>
<g id="#305f7aff">
<path fill="#305f7a" opacity="1.00" d=" M 98.09 49.60 C 98.49 49.56 99.29 49.49 99.69 49.45 L 100.21 49.55 C 99.94 50.04 99.39 51.02 99.11 51.52 L 98.34 51.75 L 97.65 51.38 C 97.76 50.93 97.98 50.04 98.09 49.60 Z" />
</g>
<g id="#4971abff">
<path fill="#4971ab" opacity="1.00" d=" M 99.69 49.45 C 103.85 49.49 107.99 49.99 112.12 50.53 C 108.14 50.26 104.16 50.13 100.21 49.55 L 99.69 49.45 Z" />
</g>
<g id="#5a7bacff">
<path fill="#5a7bac" opacity="1.00" d=" M 139.43 50.90 C 144.30 50.92 149.10 49.95 153.90 49.22 C 153.97 49.81 154.12 50.97 154.20 51.56 C 149.46 51.44 144.71 51.44 139.98 51.18 L 139.43 50.90 Z" />
</g>
<g id="#486f99ff">
<path fill="#486f99" opacity="1.00" d=" M 196.13 50.73 C 205.42 50.40 214.69 49.47 224.00 49.80 L 224.00 50.60 C 219.55 50.80 215.09 50.95 210.67 51.52 C 210.27 51.59 209.46 51.73 209.05 51.80 C 208.73 51.85 208.09 51.94 207.77 51.98 C 207.32 52.08 206.41 52.30 205.95 52.40 C 205.32 52.33 204.05 52.20 203.42 52.13 L 202.43 52.00 C 200.65 51.68 197.08 51.05 195.29 50.74 L 196.13 50.73 Z" />
</g>
<g id="#4b6446ff">
<path fill="#4b6446" opacity="1.00" d=" M 0.00 51.45 C 0.49 50.98 1.00 50.52 1.52 50.08 C 6.94 52.10 12.79 51.47 18.39 50.68 C 18.83 50.67 19.72 50.64 20.17 50.62 C 20.82 50.76 22.12 51.03 22.77 51.17 L 23.39 51.30 C 23.24 51.81 22.94 52.81 22.79 53.32 C 22.25 52.95 21.18 52.22 20.64 51.85 C 19.47 50.69 17.82 51.57 16.73 52.35 C 14.70 52.70 12.67 53.04 10.65 53.39 C 7.09 53.03 3.55 52.50 0.00 52.01 L 0.00 51.45 Z" />
</g>
<g id="#385848ff">
<path fill="#385848" opacity="1.00" d=" M 99.11 51.52 C 99.39 51.02 99.94 50.04 100.21 49.55 C 104.16 50.13 108.14 50.26 112.12 50.53 C 112.92 50.62 113.73 50.71 114.54 50.82 C 119.76 51.73 125.09 51.36 130.32 50.71 C 130.92 50.73 132.13 50.76 132.74 50.78 C 135.15 50.90 137.56 51.03 139.98 51.18 C 144.71 51.44 149.46 51.44 154.20 51.56 C 153.26 52.14 152.37 52.79 151.49 53.45 C 145.73 53.00 139.94 53.00 134.22 52.18 C 133.82 52.09 133.02 51.90 132.62 51.81 C 131.26 51.15 129.79 51.59 128.64 52.44 C 126.64 52.71 124.65 52.98 122.66 53.25 C 119.10 53.03 115.56 52.54 112.00 52.48 C 110.45 52.50 107.36 52.54 105.81 52.56 C 104.45 52.36 103.09 52.16 101.73 51.94 C 101.08 51.83 99.77 51.62 99.11 51.52 Z" />
</g>
<g id="#3e5a47ff">
<path fill="#3e5a47" opacity="1.00" d=" M 154.76 51.39 C 156.45 50.91 159.83 49.95 161.51 49.47 C 161.57 51.13 163.49 51.28 164.73 51.01 C 166.68 51.01 168.64 50.99 170.60 51.06 C 175.84 51.52 181.11 51.36 186.33 50.67 C 186.76 50.67 187.63 50.66 188.07 50.66 C 190.47 50.68 192.88 50.70 195.29 50.74 C 197.08 51.05 200.65 51.68 202.43 52.00 C 201.99 52.23 201.12 52.69 200.69 52.93 C 197.06 52.72 193.44 52.64 189.84 52.25 C 189.52 52.18 188.89 52.05 188.57 51.98 C 187.32 51.48 185.97 51.56 184.75 52.07 C 182.62 52.54 180.48 52.95 178.34 53.28 C 177.37 53.17 176.40 53.02 175.42 52.97 C 168.53 52.50 161.64 51.97 154.76 51.39 Z" />
</g>
<g id="#648aadff">
<path fill="#648aad" opacity="1.00" d=" M 161.51 49.47 L 162.06 49.06 C 162.46 49.22 163.28 49.52 163.69 49.67 C 163.95 50.00 164.47 50.68 164.73 51.01 C 163.49 51.28 161.57 51.13 161.51 49.47 Z" />
</g>
<g id="#355753ff">
<path fill="#355753" opacity="1.00" d=" M 210.67 51.52 C 215.09 50.95 219.55 50.80 224.00 50.60 L 224.00 52.36 C 220.12 52.36 216.24 52.49 212.39 51.91 C 211.96 51.81 211.10 51.61 210.67 51.52 Z" />
</g>
<g id="#93bd6bff">
<path fill="#93bd6b" opacity="1.00" d=" M 16.73 52.35 C 17.82 51.57 19.47 50.69 20.64 51.85 C 19.87 53.36 17.96 52.92 16.73 52.35 Z" />
<path fill="#93bd6b" opacity="1.00" d=" M 128.64 52.44 C 129.79 51.59 131.26 51.15 132.62 51.81 C 131.95 53.46 129.89 53.17 128.64 52.44 Z" />
<path fill="#93bd6b" opacity="1.00" d=" M 184.75 52.07 C 185.97 51.56 187.32 51.48 188.57 51.98 C 187.86 53.50 185.49 53.60 184.75 52.07 Z" />
</g>
<g id="#204337ff">
<path fill="#204337" opacity="1.00" d=" M 22.77 51.17 C 24.53 51.27 26.29 51.29 28.06 51.31 C 32.72 51.31 37.39 51.30 42.04 50.85 L 41.29 51.55 C 40.62 52.21 39.94 52.87 39.27 53.53 C 33.97 52.87 28.61 52.52 23.39 51.30 L 22.77 51.17 Z" />
</g>
<g id="#79a658ff">
<path fill="#79a658" opacity="1.00" d=" M 72.80 52.40 C 75.03 52.19 77.27 52.10 79.50 52.23 C 80.70 52.44 81.87 52.34 83.00 51.93 C 83.33 52.18 83.98 52.66 84.30 52.90 C 85.90 53.63 87.62 53.98 89.36 54.19 C 89.97 54.09 91.20 53.88 91.82 53.77 C 92.56 56.54 96.44 54.51 93.72 52.80 C 95.27 52.49 96.80 52.13 98.34 51.75 C 97.55 54.63 101.44 54.34 101.73 51.94 C 103.09 52.16 104.45 52.36 105.81 52.56 C 108.24 53.14 110.61 53.90 112.97 54.70 C 112.65 53.96 112.32 53.22 112.00 52.48 C 115.56 52.54 119.10 53.03 122.66 53.25 C 121.31 54.16 119.97 55.08 118.63 56.00 L 66.05 56.00 C 69.50 55.10 72.90 54.02 76.32 53.00 C 75.15 52.79 73.98 52.57 72.80 52.40 Z" />
</g>
<g id="#332e2aff">
<path fill="#332e2a" opacity="1.00" d=" M 79.12 51.87 C 80.29 50.70 82.05 50.66 83.60 50.74 C 83.45 51.04 83.15 51.64 83.00 51.93 C 81.87 52.34 80.70 52.44 79.50 52.23 L 79.12 51.87 Z" />
</g>
<g id="#446460ff">
<path fill="#446460" opacity="1.00" d=" M 83.60 50.74 C 83.99 51.03 84.77 51.62 85.16 51.91 L 85.11 52.63 L 84.30 52.90 C 83.98 52.66 83.33 52.18 83.00 51.93 C 83.15 51.64 83.45 51.04 83.60 50.74 Z" />
</g>
<g id="#194338ff">
<path fill="#194338" opacity="1.00" d=" M 90.33 52.51 C 92.78 52.16 95.21 51.76 97.65 51.38 L 98.34 51.75 C 96.80 52.13 95.27 52.49 93.72 52.80 C 93.28 52.88 92.40 53.04 91.96 53.12 C 91.55 52.97 90.74 52.66 90.33 52.51 Z" />
</g>
<g id="#729b57ff">
<path fill="#729b57" opacity="1.00" d=" M 154.20 51.56 L 154.76 51.39 C 161.64 51.97 168.53 52.50 175.42 52.97 C 174.95 53.92 174.65 54.95 174.51 56.00 L 161.25 56.00 C 160.66 55.28 159.50 53.84 158.92 53.12 C 157.52 54.07 156.15 55.05 154.76 56.00 L 148.10 56.00 C 149.25 55.17 150.37 54.31 151.49 53.45 C 152.37 52.79 153.26 52.14 154.20 51.56 Z" />
</g>
<g id="#567b4eff">
<path fill="#567b4e" opacity="1.00" d=" M 209.05 51.80 C 209.46 51.73 210.27 51.59 210.67 51.52 C 211.10 51.61 211.96 51.81 212.39 51.91 C 212.18 54.08 209.63 53.35 209.05 51.80 Z" />
</g>
<g id="#77a35dff">
<path fill="#77a35d" opacity="1.00" d=" M 0.00 52.01 C 3.55 52.50 7.09 53.03 10.65 53.39 C 9.32 54.25 8.00 55.12 6.68 56.00 L 0.00 56.00 L 0.00 52.01 Z" />
</g>
<g id="#6a9a60ff">
<path fill="#6a9a60" opacity="1.00" d=" M 10.65 53.39 C 12.67 53.04 14.70 52.70 16.73 52.35 C 17.96 52.92 19.87 53.36 20.64 51.85 C 21.18 52.22 22.25 52.95 22.79 53.32 C 22.58 53.99 22.15 55.33 21.93 56.00 L 21.43 56.00 C 18.95 55.96 16.48 55.97 14.01 56.00 L 6.68 56.00 C 8.00 55.12 9.32 54.25 10.65 53.39 Z" />
<path fill="#6a9a60" opacity="1.00" d=" M 122.66 53.25 C 124.65 52.98 126.64 52.71 128.64 52.44 C 129.89 53.17 131.95 53.46 132.62 51.81 C 133.02 51.90 133.82 52.09 134.22 52.18 C 134.25 53.14 134.30 55.05 134.33 56.00 L 133.57 56.00 C 131.05 55.97 128.53 55.96 126.00 56.00 L 118.63 56.00 C 119.97 55.08 121.31 54.16 122.66 53.25 Z" />
</g>
<g id="#78a661ff">
<path fill="#78a661" opacity="1.00" d=" M 23.39 51.30 C 28.61 52.52 33.97 52.87 39.27 53.53 C 38.37 54.38 37.46 55.21 36.51 56.00 L 21.93 56.00 C 22.15 55.33 22.58 53.99 22.79 53.32 C 22.94 52.81 23.24 51.81 23.39 51.30 Z" />
</g>
<g id="#6b9f45ff">
<path fill="#6b9f45" opacity="1.00" d=" M 39.27 53.53 C 39.94 52.87 40.62 52.21 41.29 51.55 C 42.72 51.77 44.14 51.98 45.57 52.18 C 44.84 53.46 44.10 54.74 43.32 56.00 L 36.51 56.00 C 37.46 55.21 38.37 54.38 39.27 53.53 Z" />
</g>
<g id="#81ac5cff">
<path fill="#81ac5c" opacity="1.00" d=" M 45.57 52.18 C 46.14 52.25 47.27 52.40 47.83 52.47 C 47.92 53.68 48.18 54.88 48.65 56.00 L 43.32 56.00 C 44.10 54.74 44.84 53.46 45.57 52.18 Z" />
</g>
<g id="#669043ff">
<path fill="#669043" opacity="1.00" d=" M 47.83 52.47 C 48.32 52.55 49.30 52.71 49.79 52.78 C 49.79 53.59 49.79 55.20 49.78 56.00 L 48.65 56.00 C 48.18 54.88 47.92 53.68 47.83 52.47 Z" />
</g>
<g id="#77a15fff">
<path fill="#77a15f" opacity="1.00" d=" M 49.79 52.78 C 55.40 52.78 61.00 52.93 66.61 53.03 C 65.30 54.02 63.99 55.01 62.69 56.00 L 49.78 56.00 C 49.79 55.20 49.79 53.59 49.79 52.78 Z" />
</g>
<g id="#659766ff">
<path fill="#659766" opacity="1.00" d=" M 66.61 53.03 C 68.67 52.81 70.73 52.55 72.80 52.40 C 73.98 52.57 75.15 52.79 76.32 53.00 C 72.90 54.02 69.50 55.10 66.05 56.00 L 62.69 56.00 C 63.99 55.01 65.30 54.02 66.61 53.03 Z" />
</g>
<g id="#1c3d42ff">
<path fill="#1c3d42" opacity="1.00" d=" M 85.16 51.91 C 86.63 51.93 88.07 52.19 89.47 52.62 C 89.31 52.93 88.98 53.55 88.82 53.86 C 87.53 53.59 86.30 53.18 85.11 52.63 L 85.16 51.91 Z" />
</g>
<g id="#497060ff">
<path fill="#497060" opacity="1.00" d=" M 89.47 52.62 L 90.33 52.51 C 90.74 52.66 91.55 52.97 91.96 53.12 L 91.82 53.77 C 91.20 53.88 89.97 54.09 89.36 54.19 L 88.82 53.86 C 88.98 53.55 89.31 52.93 89.47 52.62 Z" />
</g>
<g id="#5c8d48ff">
<path fill="#5c8d48" opacity="1.00" d=" M 98.34 51.75 L 99.11 51.52 C 99.77 51.62 101.08 51.83 101.73 51.94 C 101.44 54.34 97.55 54.63 98.34 51.75 Z" />
</g>
<g id="#67976dff">
<path fill="#67976d" opacity="1.00" d=" M 105.81 52.56 C 107.36 52.54 110.45 52.50 112.00 52.48 C 112.32 53.22 112.65 53.96 112.97 54.70 C 110.61 53.90 108.24 53.14 105.81 52.56 Z" />
</g>
<g id="#7aa564ff">
<path fill="#7aa564" opacity="1.00" d=" M 134.22 52.18 C 139.94 53.00 145.73 53.00 151.49 53.45 C 150.37 54.31 149.25 55.17 148.10 56.00 L 134.33 56.00 C 134.30 55.05 134.25 53.14 134.22 52.18 Z" />
</g>
<g id="#8bb561fe">
<path fill="#8bb561" opacity="1.00" d=" M 175.42 52.97 C 176.40 53.02 177.37 53.17 178.34 53.28 C 177.63 54.29 176.80 55.20 175.85 56.00 L 174.51 56.00 C 174.65 54.95 174.95 53.92 175.42 52.97 Z" />
</g>
<g id="#699960ff">
<path fill="#699960" opacity="1.00" d=" M 178.34 53.28 C 180.48 52.95 182.62 52.54 184.75 52.07 C 185.49 53.60 187.86 53.50 188.57 51.98 C 188.89 52.05 189.52 52.18 189.84 52.25 C 190.10 53.18 190.62 55.06 190.88 56.00 L 189.74 56.00 C 187.17 55.97 184.61 55.96 182.06 56.00 L 175.85 56.00 C 176.80 55.20 177.63 54.29 178.34 53.28 Z" />
</g>
<g id="#7ba45efe">
<path fill="#7ba45e" opacity="1.00" d=" M 189.84 52.25 C 193.44 52.64 197.06 52.72 200.69 52.93 C 201.65 53.69 202.89 54.08 204.09 53.63 C 204.53 53.52 205.41 53.30 205.85 53.19 C 206.79 54.23 209.08 53.38 207.77 51.98 C 208.09 51.94 208.73 51.85 209.05 51.80 C 209.63 53.35 212.18 54.08 212.39 51.91 C 216.24 52.49 220.12 52.36 224.00 52.36 L 224.00 56.00 L 190.88 56.00 C 190.62 55.06 190.10 53.18 189.84 52.25 Z" />
</g>
<g id="#49744bff">
<path fill="#49744b" opacity="1.00" d=" M 202.43 52.00 L 203.42 52.13 C 203.58 52.51 203.92 53.26 204.09 53.63 C 202.89 54.08 201.65 53.69 200.69 52.93 C 201.12 52.69 201.99 52.23 202.43 52.00 Z" />
</g>
<g id="#073126ff">
<path fill="#073126" opacity="1.00" d=" M 203.42 52.13 C 204.05 52.20 205.32 52.33 205.95 52.40 L 205.85 53.19 C 205.41 53.30 204.53 53.52 204.09 53.63 C 203.92 53.26 203.58 52.51 203.42 52.13 Z" />
</g>
<g id="#355e47ff">
<path fill="#355e47" opacity="1.00" d=" M 205.95 52.40 C 206.41 52.30 207.32 52.08 207.77 51.98 C 209.08 53.38 206.79 54.23 205.85 53.19 L 205.95 52.40 Z" />
</g>
<g id="#8bb183ff">
<path fill="#8bb183" opacity="1.00" d=" M 84.30 52.90 L 85.11 52.63 C 86.30 53.18 87.53 53.59 88.82 53.86 L 89.36 54.19 C 87.62 53.98 85.90 53.63 84.30 52.90 Z" />
</g>
<g id="#88b379ff">
<path fill="#88b379" opacity="1.00" d=" M 91.96 53.12 C 92.40 53.04 93.28 52.88 93.72 52.80 C 96.44 54.51 92.56 56.54 91.82 53.77 L 91.96 53.12 Z" />
</g>
<g id="#89b252ff">
<path fill="#89b252" opacity="1.00" d=" M 154.76 56.00 C 156.15 55.05 157.52 54.07 158.92 53.12 C 159.50 53.84 160.66 55.28 161.25 56.00 L 154.76 56.00 Z" />
</g>
<g id="#83ae61ff">
<path fill="#83ae61" opacity="1.00" d=" M 14.01 56.00 C 16.48 55.97 18.95 55.96 21.43 56.00 L 14.01 56.00 Z" />
<path fill="#83ae61" opacity="1.00" d=" M 126.00 56.00 C 128.53 55.96 131.05 55.97 133.57 56.00 L 126.00 56.00 Z" />
<path fill="#83ae61" opacity="1.00" d=" M 182.06 56.00 C 184.61 55.96 187.17 55.97 189.74 56.00 L 182.06 56.00 Z" />
</g>
</svg>
