<?xml version="1.0" encoding="UTF-8" ?>
<!DOCTYPE svg PUBLIC "-//W3C//DTD SVG 1.1//EN" "http://www.w3.org/Graphics/SVG/1.1/DTD/svg11.dtd">
<svg width="224pt" height="56pt" viewBox="0 0 224 56" version="1.1" xmlns="http://www.w3.org/2000/svg">
<g id="#3c6bbeff">
<path fill="#3c6bbe" opacity="1.00" d=" M 0.00 0.00 L 25.48 0.00 C 26.57 0.97 27.64 1.95 28.70 2.95 C 22.16 4.38 14.96 5.91 8.52 3.30 C 9.34 5.27 11.05 7.28 10.61 9.49 C 8.67 11.45 6.29 12.91 4.11 14.60 C 8.01 14.23 11.93 14.15 15.85 14.17 C 14.51 11.95 10.69 9.17 13.81 6.80 C 17.34 4.42 21.93 7.12 25.81 5.75 C 29.98 4.68 34.56 1.98 38.67 4.60 C 44.27 7.39 53.04 9.12 57.26 3.29 C 57.96 2.51 58.64 1.74 59.33 0.95 C 54.59 2.84 49.75 5.25 44.46 4.27 C 39.67 3.34 35.18 1.29 30.49 0.00 L 85.32 0.00 C 79.75 5.53 71.44 2.73 64.66 2.18 C 65.51 4.22 66.66 6.24 66.71 8.49 C 64.68 10.41 62.32 11.92 60.10 13.59 C 64.00 13.23 67.93 13.15 71.85 13.17 C 70.77 11.08 67.01 8.70 69.34 6.35 C 72.23 3.10 76.98 5.12 80.59 5.81 C 83.69 3.50 86.80 0.68 91.04 0.98 C 94.92 1.73 97.70 5.20 101.66 5.65 C 104.78 6.06 107.92 6.25 111.04 6.61 C 111.44 5.63 111.83 4.64 112.23 3.65 C 105.93 3.45 99.34 3.60 93.89 0.00 L 138.36 0.00 C 137.76 0.59 136.55 1.76 135.95 2.35 C 130.86 2.11 125.75 1.88 120.68 1.25 C 121.53 3.26 122.65 5.26 122.71 7.49 C 120.68 9.41 118.32 10.92 116.10 12.59 C 120.00 12.23 123.93 12.15 127.85 12.17 C 126.77 10.08 123.01 7.70 125.34 5.35 C 128.39 1.93 133.33 4.21 137.03 5.12 C 138.35 3.40 139.63 1.66 141.03 0.00 L 151.42 0.00 C 152.67 1.69 153.76 3.64 155.56 4.82 C 159.27 5.85 163.17 6.16 166.97 6.84 C 167.41 5.69 167.86 4.53 168.29 3.37 C 165.00 3.55 161.70 3.70 158.41 3.85 C 157.21 2.55 156.02 1.25 154.77 0.00 L 197.37 0.00 C 192.24 4.71 184.91 2.77 178.69 4.37 C 178.46 6.19 178.22 8.01 177.97 9.83 C 175.92 11.02 173.88 12.22 171.84 13.43 C 175.84 13.20 179.85 13.14 183.86 13.20 C 182.78 11.09 179.02 8.71 181.34 6.35 C 184.23 3.10 188.98 5.12 192.59 5.81 C 195.69 3.50 198.81 0.69 203.04 0.98 C 207.13 1.79 210.06 5.61 214.34 5.74 C 217.55 6.06 220.78 6.21 224.00 6.37 L 224.00 9.32 C 220.51 9.62 216.89 9.56 213.51 10.53 C 211.31 11.72 209.80 13.81 208.01 15.49 C 213.48 14.83 218.58 12.56 224.00 11.66 L 224.00 27.67 C 219.32 27.96 214.46 27.03 211.98 22.71 C 214.73 21.14 217.51 19.64 220.27 18.10 C 216.80 18.81 213.34 19.56 209.88 20.31 C 211.74 24.01 214.16 27.37 216.80 30.56 C 216.19 31.99 215.56 33.42 214.94 34.84 C 213.16 33.99 211.39 33.14 209.62 32.27 C 209.08 33.13 208.53 33.98 207.99 34.83 C 212.75 36.84 217.76 38.13 222.76 39.37 C 221.19 37.45 217.84 36.04 218.15 33.21 C 219.50 30.91 222.03 29.65 224.00 27.93 L 224.00 45.12 C 215.54 44.87 206.97 42.36 198.55 44.34 C 201.90 45.20 205.27 45.97 208.66 46.65 C 213.73 47.93 218.93 46.19 224.00 45.91 L 224.00 56.00 L 205.30 56.00 C 200.41 53.98 195.82 51.34 191.18 48.83 C 195.60 43.32 199.07 36.37 206.24 33.90 C 204.92 31.40 203.72 28.85 202.41 26.35 C 202.21 28.98 203.18 32.80 199.96 33.95 C 195.21 36.96 189.97 33.93 185.60 31.82 C 188.07 27.38 192.90 25.81 197.85 26.27 C 197.36 22.40 199.82 19.39 202.73 17.19 C 198.57 18.08 194.31 17.83 190.17 16.94 C 192.81 18.72 195.24 20.82 197.15 23.38 C 193.49 24.71 189.83 26.01 186.15 27.26 C 185.26 29.79 185.73 33.47 182.92 34.68 C 179.39 36.16 175.69 37.17 172.08 38.42 C 174.65 41.96 177.65 45.26 181.78 46.98 C 179.60 44.76 177.36 42.60 175.16 40.40 C 180.81 36.11 188.06 34.55 194.92 36.90 C 193.42 41.39 190.94 45.49 187.46 48.72 C 188.02 48.90 189.15 49.25 189.71 49.43 C 187.86 51.15 186.00 52.87 184.15 54.59 C 186.75 53.43 189.26 51.93 192.10 51.42 C 194.89 51.50 197.26 53.29 199.69 54.48 C 198.25 55.00 196.80 55.51 195.35 56.00 L 150.07 56.00 C 145.13 51.63 138.90 49.26 133.54 45.52 C 132.71 46.13 131.86 46.72 131.02 47.31 C 131.72 47.60 133.12 48.18 133.82 48.47 C 131.92 50.14 130.02 51.80 128.12 53.46 C 133.60 50.70 140.10 49.91 145.63 52.98 C 143.57 53.33 139.44 54.04 137.38 54.39 C 138.00 54.79 139.25 55.60 139.87 56.00 L 93.30 56.00 C 88.42 53.98 83.83 51.34 79.18 48.83 C 83.62 43.28 87.13 36.30 94.36 33.83 C 92.86 31.27 91.40 28.69 89.65 26.29 C 90.11 28.38 90.60 30.47 91.08 32.55 C 85.49 35.30 79.10 34.32 73.51 31.98 C 75.98 27.46 80.81 25.76 85.84 26.27 C 85.36 22.40 87.82 19.39 90.73 17.19 C 86.58 18.08 82.31 17.83 78.17 16.94 C 80.81 18.72 83.24 20.82 85.15 23.38 C 81.49 24.71 77.83 26.01 74.15 27.26 C 73.44 29.51 73.52 32.22 71.99 34.03 C 68.34 36.21 64.02 36.92 60.08 38.42 C 62.65 41.96 65.65 45.26 69.78 46.98 C 67.60 44.76 65.36 42.60 63.16 40.40 C 68.81 36.11 76.06 34.55 82.92 36.90 C 81.42 41.39 78.94 45.49 75.46 48.72 C 76.02 48.90 77.15 49.25 77.71 49.43 C 75.86 51.15 74.00 52.87 72.15 54.59 C 74.75 53.43 77.26 51.93 80.10 51.42 C 82.89 51.50 85.26 53.29 87.69 54.48 C 86.25 55.00 84.81 55.51 83.36 56.00 L 32.67 56.00 C 30.04 53.54 27.14 51.40 24.05 49.56 C 27.30 45.76 30.33 41.75 32.25 37.10 C 34.34 36.74 36.43 36.38 38.53 36.03 C 36.58 33.30 35.01 30.34 33.30 27.47 C 33.20 30.06 34.21 33.93 30.96 35.01 C 26.83 37.13 22.54 34.27 18.78 32.70 C 20.95 28.59 25.34 27.16 29.71 27.02 C 28.99 25.79 28.28 24.56 27.56 23.33 C 31.72 20.86 36.54 20.09 41.32 20.28 C 35.37 16.23 28.53 18.78 22.05 19.56 C 23.63 20.42 25.21 21.28 26.80 22.14 C 26.90 22.96 27.12 24.59 27.23 25.41 C 23.74 26.43 20.18 27.25 16.56 27.70 C 17.57 29.55 18.59 31.38 19.62 33.21 C 13.34 35.69 6.73 37.30 0.00 37.85 L 0.00 31.08 C 4.04 29.51 8.13 28.08 12.24 26.71 C 11.84 25.14 11.45 23.58 11.06 22.01 C 14.08 20.62 17.07 19.18 20.08 17.78 C 13.40 19.32 6.43 20.65 0.00 17.41 L 0.00 0.00 M 138.59 9.21 C 140.99 10.53 143.47 11.69 146.00 12.76 C 145.36 14.05 144.71 15.34 144.06 16.62 C 147.06 16.49 150.07 16.60 153.07 16.79 C 149.10 15.60 146.71 12.40 144.45 9.17 C 142.52 8.83 140.53 9.17 138.59 9.21 M 157.81 9.17 C 156.03 10.67 154.35 12.28 152.70 13.92 C 158.42 13.05 164.66 10.08 170.14 13.43 C 169.40 12.01 168.67 10.58 167.65 9.34 C 164.38 9.15 161.08 9.82 157.81 9.17 M 100.46 10.63 C 99.22 12.39 97.75 13.97 96.21 15.46 C 102.20 12.90 109.35 13.92 114.95 10.49 C 110.18 9.27 105.25 9.79 100.46 10.63 M 43.42 10.31 C 43.86 11.43 44.31 12.55 44.75 13.66 C 43.05 14.45 41.38 15.30 39.74 16.20 C 45.66 15.33 51.46 13.77 57.42 13.24 C 57.60 12.70 57.95 11.62 58.12 11.09 C 53.24 10.62 48.33 10.45 43.42 10.31 M 118.65 17.07 C 111.61 14.46 104.87 18.56 98.24 20.27 C 99.21 24.42 101.85 27.67 105.14 30.31 C 104.32 31.82 103.58 33.35 102.83 34.89 C 100.92 33.97 99.01 33.04 97.11 32.09 C 96.80 33.00 96.50 33.91 96.20 34.83 C 100.85 37.12 105.93 38.16 110.97 39.16 C 108.88 37.36 104.94 35.79 106.16 32.34 C 111.39 28.08 117.42 24.75 123.87 22.73 C 123.78 20.93 123.78 19.10 124.14 17.33 C 126.59 15.95 129.34 15.31 132.00 14.48 C 131.71 14.18 131.13 13.56 130.85 13.25 C 126.80 14.40 123.02 17.67 118.65 17.07 M 154.20 19.14 C 155.18 23.34 157.79 26.67 161.15 29.32 C 160.38 30.68 159.70 32.08 159.01 33.48 C 156.24 32.70 153.31 32.48 150.59 31.55 C 149.31 29.38 148.28 27.07 146.68 25.10 C 147.13 27.15 147.65 29.19 148.16 31.22 C 144.10 33.39 139.44 34.79 134.85 33.15 C 132.64 32.33 128.95 31.37 130.16 28.26 C 133.68 24.02 139.79 25.81 144.65 25.14 C 139.75 22.23 134.24 23.68 129.52 26.13 C 128.63 28.71 127.84 31.35 126.65 33.82 C 130.60 35.33 135.97 34.88 138.84 38.28 C 138.67 41.24 137.21 43.90 136.24 46.64 C 138.95 45.29 141.09 43.12 141.64 40.05 C 142.21 36.48 145.71 34.47 149.04 34.13 C 155.11 35.03 160.98 36.88 166.97 38.20 C 164.92 36.36 160.87 34.75 162.18 31.32 C 164.09 27.96 168.24 29.01 171.39 28.38 C 174.45 27.17 177.34 25.58 180.43 24.44 C 180.02 23.39 179.61 22.33 179.21 21.27 C 180.13 19.91 181.03 18.54 181.94 17.17 C 178.32 18.75 174.27 19.36 170.68 17.03 C 165.24 14.34 159.55 18.08 154.20 19.14 M 42.24 21.27 C 43.21 25.42 45.85 28.67 49.14 31.32 C 48.32 32.82 47.58 34.35 46.83 35.89 C 44.92 34.97 43.01 34.04 41.11 33.09 C 40.80 34.00 40.50 34.91 40.20 35.83 C 44.85 38.12 49.93 39.16 54.97 40.16 C 52.75 38.35 49.07 36.74 50.03 33.22 C 55.78 29.63 62.16 27.04 68.45 24.48 C 68.03 23.41 67.62 22.34 67.21 21.27 C 68.12 19.92 69.03 18.56 69.94 17.20 C 65.86 19.14 61.41 18.43 57.20 17.23 C 52.01 17.36 47.24 20.12 42.24 21.27 M 114.66 36.96 C 114.50 37.37 114.34 37.77 114.18 38.18 C 115.45 38.97 116.71 39.78 117.98 40.58 C 121.73 38.66 125.60 36.99 129.39 35.15 C 124.50 35.91 119.65 37.58 114.66 36.96 M 103.20 38.72 C 102.41 40.62 101.61 42.52 100.81 44.42 C 96.07 43.92 91.22 42.65 86.56 44.43 C 90.91 45.25 95.23 46.21 99.50 47.35 C 103.52 47.05 107.46 45.96 111.52 45.94 C 112.59 47.21 113.65 48.49 114.71 49.77 C 115.38 48.25 116.06 46.74 116.77 45.23 C 112.39 45.25 108.02 44.91 103.65 44.61 C 103.51 42.64 103.39 40.68 103.20 38.72 M 155.00 44.16 C 152.71 44.88 150.62 43.40 148.61 42.56 C 148.41 43.27 148.22 43.99 148.05 44.70 C 152.36 46.53 157.06 47.82 161.36 45.16 C 161.05 43.17 160.81 41.17 160.63 39.16 C 158.93 40.97 157.51 43.42 155.00 44.16 M 34.88 42.84 C 33.56 43.81 32.22 44.76 30.87 45.67 C 35.51 44.94 40.45 45.62 43.80 49.20 C 44.61 48.28 45.43 47.36 46.25 46.45 C 49.64 46.68 53.03 46.72 56.43 46.79 C 52.93 45.96 49.44 45.15 45.96 44.23 C 46.31 42.86 46.66 41.49 47.01 40.12 C 44.13 43.78 38.98 45.56 34.88 42.84 M 163.97 44.23 C 163.65 46.00 167.35 46.00 167.03 44.23 C 166.42 43.18 164.57 43.18 163.97 44.23 M 113.51 51.39 C 116.81 51.93 120.12 52.49 123.44 52.85 C 120.47 50.79 116.93 49.62 113.51 51.39 Z" />
<path fill="#3c6bbe" opacity="1.00" d=" M 8.37 39.93 C 11.38 38.32 14.45 36.29 17.97 36.22 C 21.66 36.54 24.88 38.59 28.11 40.22 C 25.94 42.29 23.65 44.20 21.29 46.05 C 21.77 50.26 19.18 53.66 15.93 56.00 L 0.00 56.00 L 0.00 38.18 C 2.81 39.06 6.33 39.16 8.17 41.81 C 10.24 44.39 12.79 46.49 15.67 48.10 C 13.22 45.39 10.78 42.68 8.37 39.93 M 2.85 47.78 C 3.00 49.92 3.05 52.06 2.92 54.20 C 5.63 54.47 8.35 54.76 11.07 55.03 C 8.91 53.48 6.75 51.91 4.65 50.28 C 5.74 49.07 6.85 47.87 7.97 46.68 C 6.27 47.06 4.56 47.43 2.85 47.78 Z" />
<path fill="#3c6bbe" opacity="1.00" d=" M 16.74 56.00 C 19.74 54.45 22.64 52.12 26.30 52.71 C 28.23 53.53 29.88 54.87 31.64 56.00 L 16.74 56.00 Z" />
</g>
<g id="#4179cbff">
<path fill="#4179cb" opacity="1.00" d=" M 25.48 0.00 L 30.49 0.00 C 35.18 1.29 39.67 3.34 44.46 4.27 C 49.75 5.25 54.59 2.84 59.33 0.95 C 58.64 1.74 57.96 2.51 57.26 3.29 C 53.04 9.12 44.27 7.39 38.67 4.60 C 34.56 1.98 29.98 4.68 25.81 5.75 C 21.93 7.12 17.34 4.42 13.81 6.80 C 10.69 9.17 14.51 11.95 15.85 14.17 C 11.93 14.15 8.01 14.23 4.11 14.60 C 6.29 12.91 8.67 11.45 10.61 9.49 C 11.05 7.28 9.34 5.27 8.52 3.30 C 14.96 5.91 22.16 4.38 28.70 2.95 C 27.64 1.95 26.57 0.97 25.48 0.00 Z" />
<path fill="#4179cb" opacity="1.00" d=" M 85.32 0.00 L 93.89 0.00 C 99.34 3.60 105.93 3.45 112.23 3.65 C 111.83 4.64 111.44 5.63 111.04 6.61 C 107.92 6.25 104.78 6.06 101.66 5.65 C 97.70 5.20 94.92 1.73 91.04 0.98 C 86.80 0.68 83.69 3.50 80.59 5.81 C 76.98 5.12 72.23 3.10 69.34 6.35 C 67.01 8.70 70.77 11.08 71.85 13.17 C 67.93 13.15 64.00 13.23 60.10 13.59 C 62.32 11.92 64.68 10.41 66.71 8.49 C 66.66 6.24 65.51 4.22 64.66 2.18 C 71.44 2.73 79.75 5.53 85.32 0.00 Z" />
<path fill="#4179cb" opacity="1.00" d=" M 197.37 0.00 L 205.91 0.00 C 211.27 3.61 217.77 3.49 224.00 3.65 L 224.00 6.37 C 220.78 6.21 217.55 6.06 214.34 5.74 C 210.06 5.61 207.13 1.79 203.04 0.98 C 198.81 0.69 195.69 3.50 192.59 5.81 C 188.98 5.12 184.23 3.10 181.34 6.35 C 179.02 8.71 182.78 11.09 183.86 13.20 C 179.85 13.14 175.84 13.20 171.84 13.43 C 173.88 12.22 175.92 11.02 177.97 9.83 C 178.22 8.01 178.46 6.19 178.69 4.37 C 184.91 2.77 192.24 4.71 197.37 0.00 Z" />
<path fill="#4179cb" opacity="1.00" d=" M 131.02 47.31 C 131.86 46.72 132.71 46.13 133.54 45.52 C 138.90 49.26 145.13 51.63 150.07 56.00 L 139.87 56.00 C 139.25 55.60 138.00 54.79 137.38 54.39 C 139.44 54.04 143.57 53.33 145.63 52.98 C 140.10 49.91 133.60 50.70 128.12 53.46 C 130.02 51.80 131.92 50.14 133.82 48.47 C 133.12 48.18 131.72 47.60 131.02 47.31 Z" />
</g>
<g id="#4278caff">
<path fill="#4278ca" opacity="1.00" d=" M 138.36 0.00 L 141.03 0.00 C 139.63 1.66 138.35 3.40 137.03 5.12 C 133.33 4.21 128.39 1.93 125.34 5.35 C 123.01 7.70 126.77 10.08 127.85 12.17 C 123.93 12.15 120.00 12.23 116.10 12.59 C 118.32 10.92 120.68 9.41 122.71 7.49 C 122.65 5.26 121.53 3.26 120.68 1.25 C 125.75 1.88 130.86 2.11 135.95 2.35 C 136.55 1.76 137.76 0.59 138.36 0.00 Z" />
</g>
<g id="#4079ccff">
<path fill="#4079cc" opacity="1.00" d=" M 151.42 0.00 L 154.77 0.00 C 156.02 1.25 157.21 2.55 158.41 3.85 C 161.70 3.70 165.00 3.55 168.29 3.37 C 167.86 4.53 167.41 5.69 166.97 6.84 C 163.17 6.16 159.27 5.85 155.56 4.82 C 153.76 3.64 152.67 1.69 151.42 0.00 Z" />
</g>
<g id="#3c6abefe">
<path fill="#3c6abe" opacity="1.00" d=" M 205.91 0.00 L 224.00 0.00 L 224.00 3.65 C 217.77 3.49 211.27 3.61 205.91 0.00 Z" />
</g>
<g id="#4377caff">
<path fill="#4377ca" opacity="1.00" d=" M 138.59 9.21 C 140.53 9.17 142.52 8.83 144.45 9.17 C 146.71 12.40 149.10 15.60 153.07 16.79 C 150.07 16.60 147.06 16.49 144.06 16.62 C 144.71 15.34 145.36 14.05 146.00 12.76 C 143.47 11.69 140.99 10.53 138.59 9.21 Z" />
</g>
<g id="#407accff">
<path fill="#407acc" opacity="1.00" d=" M 157.81 9.17 C 161.08 9.82 164.38 9.15 167.65 9.34 C 168.67 10.58 169.40 12.01 170.14 13.43 C 164.66 10.08 158.42 13.05 152.70 13.92 C 154.35 12.28 156.03 10.67 157.81 9.17 Z" />
</g>
<g id="#427bcbff">
<path fill="#427bcb" opacity="1.00" d=" M 100.46 10.63 C 105.25 9.79 110.18 9.27 114.95 10.49 C 109.35 13.92 102.20 12.90 96.21 15.46 C 97.75 13.97 99.22 12.39 100.46 10.63 Z" />
<path fill="#427bcb" opacity="1.00" d=" M 213.51 10.53 C 216.89 9.56 220.51 9.62 224.00 9.32 L 224.00 11.66 C 218.58 12.56 213.48 14.83 208.01 15.49 C 209.80 13.81 211.31 11.72 213.51 10.53 Z" />
</g>
<g id="#437bccff">
<path fill="#437bcc" opacity="1.00" d=" M 43.42 10.31 C 48.33 10.45 53.24 10.62 58.12 11.09 C 57.95 11.62 57.60 12.70 57.42 13.24 C 51.46 13.77 45.66 15.33 39.74 16.20 C 41.38 15.30 43.05 14.45 44.75 13.66 C 44.31 12.55 43.86 11.43 43.42 10.31 Z" />
</g>
<g id="#4379caff">
<path fill="#4379ca" opacity="1.00" d=" M 118.65 17.07 C 123.02 17.67 126.80 14.40 130.85 13.25 C 131.13 13.56 131.71 14.18 132.00 14.48 C 129.34 15.31 126.59 15.95 124.14 17.33 C 123.78 19.10 123.78 20.93 123.87 22.73 C 117.42 24.75 111.39 28.08 106.16 32.34 C 104.94 35.79 108.88 37.36 110.97 39.16 C 105.93 38.16 100.85 37.12 96.20 34.83 C 96.50 33.91 96.80 33.00 97.11 32.09 C 99.01 33.04 100.92 33.97 102.83 34.89 C 103.58 33.35 104.32 31.82 105.14 30.31 C 101.85 27.67 99.21 24.42 98.24 20.27 C 104.87 18.56 111.61 14.46 118.65 17.07 M 100.89 21.76 C 100.90 22.62 100.90 24.34 100.91 25.20 C 103.41 26.27 105.97 28.33 108.82 27.73 C 113.42 25.77 117.80 23.31 122.34 21.22 C 116.07 16.30 107.51 18.67 100.89 21.76 Z" />
<path fill="#4379ca" opacity="1.00" d=" M 22.05 19.56 C 28.53 18.78 35.37 16.23 41.32 20.28 C 36.54 20.09 31.72 20.86 27.56 23.33 C 28.28 24.56 28.99 25.79 29.71 27.02 C 25.34 27.16 20.95 28.59 18.78 32.70 C 22.54 34.27 26.83 37.13 30.96 35.01 C 34.21 33.93 33.20 30.06 33.30 27.47 C 35.01 30.34 36.58 33.30 38.53 36.03 C 36.43 36.38 34.34 36.74 32.25 37.10 C 30.33 41.75 27.30 45.76 24.05 49.56 C 27.14 51.40 30.04 53.54 32.67 56.00 L 31.64 56.00 C 29.88 54.87 28.23 53.53 26.30 52.71 C 22.64 52.12 19.74 54.45 16.74 56.00 L 15.93 56.00 C 19.18 53.66 21.77 50.26 21.29 46.05 C 23.65 44.20 25.94 42.29 28.11 40.22 C 24.88 38.59 21.66 36.54 17.97 36.22 C 14.45 36.29 11.38 38.32 8.37 39.93 C 10.78 42.68 13.22 45.39 15.67 48.10 C 12.79 46.49 10.24 44.39 8.17 41.81 C 6.33 39.16 2.81 39.06 0.00 38.18 L 0.00 37.85 C 6.73 37.30 13.34 35.69 19.62 33.21 C 18.59 31.38 17.57 29.55 16.56 27.70 C 20.18 27.25 23.74 26.43 27.23 25.41 C 27.12 24.59 26.90 22.96 26.80 22.14 C 25.21 21.28 23.63 20.42 22.05 19.56 Z" />
<path fill="#4379ca" opacity="1.00" d=" M 42.24 21.27 C 47.24 20.12 52.01 17.36 57.20 17.23 C 61.41 18.43 65.86 19.14 69.94 17.20 C 69.03 18.56 68.12 19.92 67.21 21.27 C 67.62 22.34 68.03 23.41 68.45 24.48 C 62.16 27.04 55.78 29.63 50.03 33.22 C 49.07 36.74 52.75 38.35 54.97 40.16 C 49.93 39.16 44.85 38.12 40.20 35.83 C 40.50 34.91 40.80 34.00 41.11 33.09 C 43.01 34.04 44.92 34.97 46.83 35.89 C 47.58 34.35 48.32 32.82 49.14 31.32 C 45.85 28.67 43.21 25.42 42.24 21.27 M 44.90 22.75 C 44.90 23.63 44.88 25.38 44.88 26.25 C 51.95 31.11 60.17 26.19 66.64 22.63 C 60.59 17.02 51.60 19.67 44.90 22.75 Z" />
<path fill="#4379ca" opacity="1.00" d=" M 209.88 20.31 C 213.34 19.56 216.80 18.81 220.27 18.10 C 217.51 19.64 214.73 21.14 211.98 22.71 C 214.46 27.03 219.32 27.96 224.00 27.67 L 224.00 27.93 C 222.03 29.65 219.50 30.91 218.15 33.21 C 217.84 36.04 221.19 37.45 222.76 39.37 C 217.76 38.13 212.75 36.84 207.99 34.83 C 208.53 33.98 209.08 33.13 209.62 32.27 C 211.39 33.14 213.16 33.99 214.94 34.84 C 215.56 33.42 216.19 31.99 216.80 30.56 C 214.16 27.37 211.74 24.01 209.88 20.31 Z" />
<path fill="#4379ca" opacity="1.00" d=" M 114.66 36.96 C 119.65 37.58 124.50 35.91 129.39 35.15 C 125.60 36.99 121.73 38.66 117.98 40.58 C 116.71 39.78 115.45 38.97 114.18 38.18 C 114.34 37.77 114.50 37.37 114.66 36.96 Z" />
</g>
<g id="#437acaff">
<path fill="#437aca" opacity="1.00" d=" M 154.20 19.14 C 159.55 18.08 165.24 14.34 170.68 17.03 C 174.27 19.36 178.32 18.75 181.94 17.17 C 181.03 18.54 180.13 19.91 179.21 21.27 C 179.61 22.33 180.02 23.39 180.43 24.44 C 177.34 25.58 174.45 27.17 171.39 28.38 C 168.24 29.01 164.09 27.96 162.18 31.32 C 160.87 34.75 164.92 36.36 166.97 38.20 C 160.98 36.88 155.11 35.03 149.04 34.13 C 145.71 34.47 142.21 36.48 141.64 40.05 C 141.09 43.12 138.95 45.29 136.24 46.64 C 137.21 43.90 138.67 41.24 138.84 38.28 C 135.97 34.88 130.60 35.33 126.65 33.82 C 127.84 31.35 128.63 28.71 129.52 26.13 C 134.24 23.68 139.75 22.23 144.65 25.14 C 139.79 25.81 133.68 24.02 130.16 28.26 C 128.95 31.37 132.64 32.33 134.85 33.15 C 139.44 34.79 144.10 33.39 148.16 31.22 C 147.65 29.19 147.13 27.15 146.68 25.10 C 148.28 27.07 149.31 29.38 150.59 31.55 C 153.31 32.48 156.24 32.70 159.01 33.48 C 159.70 32.08 160.38 30.68 161.15 29.32 C 157.79 26.67 155.18 23.34 154.20 19.14 M 159.38 19.40 C 156.68 20.21 156.02 24.02 158.75 25.25 C 165.20 28.43 172.93 26.42 178.71 22.72 C 173.45 18.37 165.78 17.20 159.38 19.40 Z" />
</g>
<g id="#427acbff">
<path fill="#427acb" opacity="1.00" d=" M 0.00 17.41 C 6.43 20.65 13.40 19.32 20.08 17.78 C 17.07 19.18 14.08 20.62 11.06 22.01 C 11.45 23.58 11.84 25.14 12.24 26.71 C 8.13 28.08 4.04 29.51 0.00 31.08 L 0.00 29.16 C 3.87 27.62 7.78 26.14 11.36 23.99 C 7.78 21.85 3.88 20.39 0.00 18.91 L 0.00 17.41 Z" />
<path fill="#427acb" opacity="1.00" d=" M 2.85 47.78 C 4.56 47.43 6.27 47.06 7.97 46.68 C 6.85 47.87 5.74 49.07 4.65 50.28 C 6.75 51.91 8.91 53.48 11.07 55.03 C 8.35 54.76 5.63 54.47 2.92 54.20 C 3.05 52.06 3.00 49.92 2.85 47.78 Z" />
</g>
<g id="#4279cafe">
<path fill="#4279ca" opacity="1.00" d=" M 78.17 16.94 C 82.31 17.83 86.58 18.08 90.73 17.19 C 87.82 19.39 85.36 22.40 85.84 26.27 C 80.81 25.76 75.98 27.46 73.51 31.98 C 79.10 34.32 85.49 35.30 91.08 32.55 C 90.60 30.47 90.11 28.38 89.65 26.29 C 91.40 28.69 92.86 31.27 94.36 33.83 C 87.13 36.30 83.62 43.28 79.18 48.83 C 83.83 51.34 88.42 53.98 93.30 56.00 L 83.36 56.00 C 84.81 55.51 86.25 55.00 87.69 54.48 C 85.26 53.29 82.89 51.50 80.10 51.42 C 77.26 51.93 74.75 53.43 72.15 54.59 C 74.00 52.87 75.86 51.15 77.71 49.43 C 77.15 49.25 76.02 48.90 75.46 48.72 C 78.94 45.49 81.42 41.39 82.92 36.90 C 76.06 34.55 68.81 36.11 63.16 40.40 C 65.36 42.60 67.60 44.76 69.78 46.98 C 65.65 45.26 62.65 41.96 60.08 38.42 C 64.02 36.92 68.34 36.21 71.99 34.03 C 73.52 32.22 73.44 29.51 74.15 27.26 C 77.83 26.01 81.49 24.71 85.15 23.38 C 83.24 20.82 80.81 18.72 78.17 16.94 Z" />
</g>
<g id="#4279cbfe">
<path fill="#4279cb" opacity="1.00" d=" M 190.17 16.94 C 194.31 17.83 198.57 18.08 202.73 17.19 C 199.82 19.39 197.36 22.40 197.85 26.27 C 192.90 25.81 188.07 27.38 185.60 31.82 C 189.97 33.93 195.21 36.96 199.96 33.95 C 203.18 32.80 202.21 28.98 202.41 26.35 C 203.72 28.85 204.92 31.40 206.24 33.90 C 199.07 36.37 195.60 43.32 191.18 48.83 C 195.82 51.34 200.41 53.98 205.30 56.00 L 195.35 56.00 C 196.80 55.51 198.25 55.00 199.69 54.48 C 197.26 53.29 194.89 51.50 192.10 51.42 C 189.26 51.93 186.75 53.43 184.15 54.59 C 186.00 52.87 187.86 51.15 189.71 49.43 C 189.15 49.25 188.02 48.90 187.46 48.72 C 190.94 45.49 193.42 41.39 194.92 36.90 C 188.06 34.55 180.81 36.11 175.16 40.40 C 177.36 42.60 179.60 44.76 181.78 46.98 C 177.65 45.26 174.65 41.96 172.08 38.42 C 175.69 37.17 179.39 36.16 182.92 34.68 C 185.73 33.47 185.26 29.79 186.15 27.26 C 189.83 26.01 193.49 24.71 197.15 23.38 C 195.24 20.82 192.81 18.72 190.17 16.94 Z" />
</g>
<g id="#3c6bbdff">
<path fill="#3c6bbd" opacity="1.00" d=" M 100.89 21.76 C 107.51 18.67 116.07 16.30 122.34 21.22 C 117.80 23.31 113.42 25.77 108.82 27.73 C 105.97 28.33 103.41 26.27 100.91 25.20 C 100.90 24.34 100.90 22.62 100.89 21.76 Z" />
<path fill="#3c6bbd" opacity="1.00" d=" M 159.38 19.40 C 165.78 17.20 173.45 18.37 178.71 22.72 C 172.93 26.42 165.20 28.43 158.75 25.25 C 156.02 24.02 156.68 20.21 159.38 19.40 Z" />
<path fill="#3c6bbd" opacity="1.00" d=" M 44.90 22.75 C 51.60 19.67 60.59 17.02 66.64 22.63 C 60.17 26.19 51.95 31.11 44.88 26.25 C 44.88 25.38 44.90 23.63 44.90 22.75 Z" />
</g>
<g id="#3c6abeff">
<path fill="#3c6abe" opacity="1.00" d=" M 0.00 18.91 C 3.88 20.39 7.78 21.85 11.36 23.99 C 7.78 26.14 3.87 27.62 0.00 29.16 L 0.00 18.91 Z" />
</g>
<g id="#4278cbff">
<path fill="#4278cb" opacity="1.00" d=" M 103.20 38.72 C 103.39 40.68 103.51 42.64 103.65 44.61 C 108.02 44.91 112.39 45.25 116.77 45.23 C 116.06 46.74 115.38 48.25 114.71 49.77 C 113.65 48.49 112.59 47.21 111.52 45.94 C 107.46 45.96 103.52 47.05 99.50 47.35 C 95.23 46.21 90.91 45.25 86.56 44.43 C 91.22 42.65 96.07 43.92 100.81 44.42 C 101.61 42.52 102.41 40.62 103.20 38.72 Z" />
</g>
<g id="#4279cbff">
<path fill="#4279cb" opacity="1.00" d=" M 155.00 44.16 C 157.51 43.42 158.93 40.97 160.63 39.16 C 160.81 41.17 161.05 43.17 161.36 45.16 C 157.06 47.82 152.36 46.53 148.05 44.70 C 148.22 43.99 148.41 43.27 148.61 42.56 C 150.62 43.40 152.71 44.88 155.00 44.16 Z" />
</g>
<g id="#4378cbff">
<path fill="#4378cb" opacity="1.00" d=" M 34.88 42.84 C 38.98 45.56 44.13 43.78 47.01 40.12 C 46.66 41.49 46.31 42.86 45.96 44.23 C 49.44 45.15 52.93 45.96 56.43 46.79 C 53.03 46.72 49.64 46.68 46.25 46.45 C 45.43 47.36 44.61 48.28 43.80 49.20 C 40.45 45.62 35.51 44.94 30.87 45.67 C 32.22 44.76 33.56 43.81 34.88 42.84 Z" />
</g>
<g id="#4379cbff">
<path fill="#4379cb" opacity="1.00" d=" M 198.55 44.34 C 206.97 42.36 215.54 44.87 224.00 45.12 L 224.00 45.91 C 218.93 46.19 213.73 47.93 208.66 46.65 C 205.27 45.97 201.90 45.20 198.55 44.34 Z" />
</g>
<g id="#4575cbff">
<path fill="#4575cb" opacity="1.00" d=" M 163.97 44.23 C 164.57 43.18 166.42 43.18 167.03 44.23 C 167.35 46.00 163.65 46.00 163.97 44.23 Z" />
</g>
<g id="#4279caff">
<path fill="#4279ca" opacity="1.00" d=" M 113.51 51.39 C 116.93 49.62 120.47 50.79 123.44 52.85 C 120.12 52.49 116.81 51.93 113.51 51.39 Z" />
</g>
</svg>
