<?xml version="1.0" encoding="UTF-8" ?>
<!DOCTYPE svg PUBLIC "-//W3C//DTD SVG 1.1//EN" "http://www.w3.org/Graphics/SVG/1.1/DTD/svg11.dtd">
<svg width="224pt" height="56pt" viewBox="0 0 224 56" version="1.1" xmlns="http://www.w3.org/2000/svg">
<g id="#3c6bbeff">
<path fill="#3c6bbe" opacity="1.00" d=" M 0.00 0.00 L 25.33 0.00 C 26.47 1.05 27.57 2.14 28.68 3.24 C 22.11 4.40 15.07 5.55 8.57 3.44 C 9.47 5.21 10.41 6.99 10.92 8.92 C 8.97 11.14 6.45 12.75 4.19 14.62 C 8.01 14.28 11.86 14.12 15.70 14.20 C 14.49 11.99 11.09 9.18 13.74 6.77 C 17.27 4.50 21.69 7.08 25.53 6.27 C 27.86 4.87 28.94 2.17 30.40 0.00 L 31.57 0.00 C 32.57 1.10 33.53 2.24 34.49 3.37 C 30.81 6.48 26.75 10.63 28.96 15.86 C 30.45 11.23 33.42 7.10 39.14 7.48 L 39.68 7.95 C 40.47 8.66 41.26 9.37 42.05 10.08 C 41.85 11.65 41.44 14.81 41.24 16.39 L 41.15 17.05 C 41.49 18.47 42.05 19.83 42.64 21.16 C 42.42 21.50 41.97 22.18 41.74 22.52 C 41.07 25.30 41.03 28.18 41.26 31.02 L 41.30 31.79 L 40.77 31.40 C 38.04 29.27 34.71 28.16 31.41 27.24 C 30.75 26.09 30.09 24.95 29.41 23.82 C 29.31 26.30 29.23 28.79 29.09 31.27 C 33.00 31.51 36.92 31.77 40.78 32.42 C 40.69 36.16 40.48 39.93 41.04 43.66 C 40.43 45.17 39.80 46.68 39.17 48.18 C 40.00 49.54 40.84 50.90 41.69 52.25 L 42.11 52.90 C 41.46 53.94 40.81 54.98 40.14 56.00 L 16.63 56.00 C 20.57 54.10 24.79 52.95 29.05 52.03 C 27.27 51.48 25.48 50.93 23.69 50.40 C 25.50 47.39 27.51 44.49 29.36 41.51 C 31.76 41.81 34.17 42.11 36.57 42.40 C 31.22 38.19 25.08 35.20 19.09 32.06 C 23.26 28.82 27.67 25.61 29.95 20.65 C 27.36 19.99 24.77 19.34 22.18 18.66 C 24.27 20.68 26.25 22.80 28.07 25.06 C 24.41 26.14 20.72 27.11 16.94 27.67 C 17.67 29.39 18.44 31.12 18.75 32.97 C 13.40 36.93 6.28 36.62 0.00 37.99 L 0.00 31.10 C 4.10 29.48 8.25 27.99 12.44 26.64 C 11.89 25.10 11.34 23.55 10.80 22.01 C 13.89 20.67 16.94 19.27 20.01 17.89 C 13.36 19.29 6.42 20.49 0.00 17.46 L 0.00 0.00 M 34.59 44.36 C 32.55 46.40 30.43 48.37 28.41 50.43 C 31.22 49.44 34.06 48.52 36.92 47.64 C 36.14 46.55 35.37 45.45 34.59 44.36 Z" />
<path fill="#3c6bbe" opacity="1.00" d=" M 33.28 0.00 L 40.04 0.00 C 38.99 1.64 40.47 3.27 41.59 4.35 C 41.74 4.81 42.03 5.72 42.18 6.18 C 41.05 6.37 39.96 6.71 38.91 7.18 C 36.96 4.84 35.23 2.33 33.28 0.00 Z" />
<path fill="#3c6bbe" opacity="1.00" d=" M 55.92 0.00 L 90.42 0.00 C 90.55 1.18 90.68 2.36 90.82 3.54 C 86.48 6.00 82.03 9.30 82.86 15.15 C 85.96 11.57 89.37 8.25 93.44 5.78 C 92.98 3.85 92.54 1.91 92.01 0.00 L 97.40 0.00 C 95.75 10.20 97.05 20.55 97.53 30.78 L 97.53 31.60 C 97.63 38.51 96.67 45.45 97.46 52.34 L 97.58 53.12 C 97.76 53.84 98.13 55.28 98.31 56.00 L 55.50 56.00 C 55.56 54.49 55.62 52.99 55.69 51.48 C 55.72 51.06 55.78 50.21 55.81 49.79 L 55.83 49.22 C 55.95 42.61 55.75 36.00 55.75 29.40 C 59.93 28.36 63.73 26.30 67.67 24.63 C 68.09 22.29 68.64 19.98 69.30 17.69 C 64.72 18.86 60.12 17.65 55.71 16.33 C 55.71 15.59 55.71 14.10 55.71 13.36 L 55.90 12.50 C 55.94 12.09 56.02 11.27 56.06 10.86 C 56.05 10.34 56.03 9.30 56.02 8.78 C 55.99 5.85 55.95 2.93 55.92 0.00 M 64.41 2.31 C 65.39 4.27 67.43 6.23 66.74 8.59 C 64.71 10.57 62.24 12.01 59.97 13.68 C 63.93 12.61 68.04 12.89 72.09 13.29 C 70.66 11.24 67.04 9.04 69.27 6.33 C 72.35 2.83 77.23 4.89 80.82 6.30 C 81.93 5.29 83.04 4.29 84.15 3.29 C 77.56 3.41 70.96 2.98 64.41 2.31 M 73.75 27.02 C 73.44 29.30 73.40 31.64 72.73 33.85 C 69.08 36.40 64.42 36.78 60.26 38.15 C 62.58 41.90 65.34 45.59 69.81 46.87 C 67.48 44.54 65.19 42.17 63.16 39.58 C 69.24 36.57 76.02 34.39 82.75 36.96 C 81.53 41.66 79.02 46.01 74.90 48.73 C 75.73 48.91 77.39 49.27 78.23 49.45 C 76.28 50.88 74.30 52.28 72.29 53.62 C 72.47 53.92 72.82 54.52 73.00 54.82 C 75.26 53.44 77.43 51.76 80.02 51.03 C 82.58 51.61 84.59 53.45 86.67 54.93 C 83.64 50.60 88.28 47.38 91.00 44.50 C 87.78 45.64 83.77 46.40 82.91 50.52 C 81.69 50.08 80.48 49.63 79.28 49.16 C 81.19 45.72 83.02 42.25 84.72 38.70 C 87.36 39.35 90.00 39.98 92.65 40.60 C 87.38 35.76 80.04 34.67 73.80 31.62 C 76.35 27.52 80.94 25.94 85.27 24.51 C 81.42 25.29 77.57 26.09 73.75 27.02 M 86.17 27.17 C 85.65 28.80 86.20 29.35 87.83 28.83 C 88.35 27.20 87.80 26.65 86.17 27.17 Z" />
<path fill="#3c6bbe" opacity="1.00" d=" M 111.93 0.00 L 138.80 0.00 C 133.33 3.29 126.81 2.14 120.86 1.30 C 121.60 3.31 122.42 5.32 122.62 7.47 C 120.66 9.40 118.34 10.93 116.18 12.62 C 120.01 12.27 123.85 12.12 127.70 12.20 C 126.49 10.00 123.08 7.17 125.74 4.78 C 129.10 2.31 133.42 4.22 137.03 5.07 C 138.35 3.36 139.66 1.63 141.09 0.00 L 149.32 0.00 C 146.65 2.86 143.49 5.18 139.96 6.87 C 139.82 9.62 139.76 12.38 139.74 15.14 C 141.63 10.27 145.58 6.81 150.46 5.06 C 150.08 3.37 149.71 1.69 149.36 0.00 L 153.38 0.00 C 151.72 10.28 153.03 20.68 153.65 30.98 L 153.64 31.69 C 153.56 39.79 152.48 47.94 153.80 56.00 L 111.48 56.00 C 111.55 54.49 111.62 52.99 111.71 51.48 C 111.74 51.06 111.80 50.21 111.83 49.78 L 111.86 49.22 C 111.93 42.09 111.96 34.96 111.50 27.85 C 115.68 26.13 119.77 24.19 124.00 22.57 C 123.93 20.83 123.88 19.09 123.84 17.35 C 126.61 16.21 129.38 15.06 132.06 13.71 C 125.47 16.36 118.45 18.67 111.72 15.06 L 111.73 13.51 L 111.91 12.55 C 111.95 12.14 112.02 11.31 112.05 10.90 C 112.04 10.37 112.03 9.31 112.02 8.78 C 111.97 5.85 111.95 2.93 111.93 0.00 M 137.54 15.27 C 136.62 16.41 138.58 17.87 139.46 16.73 C 140.38 15.59 138.41 14.13 137.54 15.27 M 129.15 25.99 C 129.04 27.63 128.80 30.90 128.68 32.53 C 127.97 32.79 126.56 33.31 125.86 33.57 C 130.08 34.75 134.34 35.71 138.67 36.44 C 138.56 39.76 137.67 42.99 136.32 46.02 C 137.45 45.71 138.58 45.40 139.72 45.09 C 140.25 47.10 140.79 49.10 141.33 51.10 C 142.20 49.96 143.07 48.81 143.95 47.66 C 141.63 44.94 139.77 41.84 139.07 38.27 C 141.44 39.02 143.81 39.77 146.20 40.48 C 145.48 41.88 144.74 43.27 144.00 44.65 C 146.32 44.56 148.65 44.51 150.97 44.54 C 148.54 42.43 146.47 39.95 144.56 37.36 C 139.12 35.70 134.10 32.92 129.08 30.31 C 131.70 26.41 136.14 24.64 140.38 23.08 C 136.55 23.68 132.83 24.77 129.15 25.99 M 142.17 26.17 C 141.65 27.80 142.20 28.35 143.83 27.83 C 144.35 26.20 143.80 25.65 142.17 26.17 M 114.63 37.02 C 114.40 37.57 114.18 38.12 113.96 38.67 C 115.21 38.87 116.46 39.06 117.72 39.25 C 117.61 39.70 117.38 40.60 117.27 41.05 C 121.15 38.82 125.29 37.13 129.33 35.22 C 124.44 35.88 119.61 37.45 114.63 37.02 M 130.80 47.59 C 131.65 47.80 133.37 48.23 134.22 48.45 C 132.27 49.87 130.30 51.28 128.30 52.63 C 128.45 52.89 128.75 53.40 128.90 53.66 C 132.27 51.60 136.05 50.55 140.00 50.32 C 137.81 48.74 135.63 47.13 133.64 45.30 C 132.69 46.05 131.74 46.82 130.80 47.59 Z" />
<path fill="#3c6bbe" opacity="1.00" d=" M 111.78 17.45 C 115.40 18.40 118.99 19.52 122.45 20.97 C 118.92 22.68 115.29 24.21 111.94 26.26 C 111.94 23.32 111.88 20.38 111.78 17.45 Z" />
<path fill="#3c6bbe" opacity="1.00" d=" M 48.43 22.60 C 46.16 19.72 50.55 19.88 50.02 22.85 C 49.63 22.79 48.83 22.66 48.43 22.60 Z" />
<path fill="#3c6bbe" opacity="1.00" d=" M 104.45 22.53 C 102.14 19.65 106.58 19.85 106.05 22.82 C 105.65 22.74 104.85 22.60 104.45 22.53 Z" />
<path fill="#3c6bbe" opacity="1.00" d=" M 160.46 22.52 C 158.15 19.64 162.58 19.85 162.06 22.81 C 161.66 22.74 160.86 22.59 160.46 22.52 Z" />
<path fill="#3c6bbe" opacity="1.00" d=" M 216.45 22.43 C 214.07 19.67 218.51 19.66 218.05 22.63 C 217.65 22.58 216.85 22.48 216.45 22.43 Z" />
<path fill="#3c6bbe" opacity="1.00" d=" M 44.21 22.91 C 44.82 22.79 46.04 22.56 46.65 22.45 L 46.51 23.22 C 46.23 23.43 45.66 23.85 45.38 24.06 C 45.08 23.77 44.50 23.20 44.21 22.91 Z" />
<path fill="#3c6bbe" opacity="1.00" d=" M 100.31 22.71 C 100.91 22.60 102.12 22.40 102.72 22.29 L 102.58 23.08 C 102.31 23.28 101.75 23.69 101.47 23.89 C 101.18 23.60 100.60 23.00 100.31 22.71 Z" />
<path fill="#3c6bbe" opacity="1.00" d=" M 156.26 22.70 C 156.87 22.59 158.10 22.38 158.71 22.27 L 158.58 23.05 C 158.30 23.25 157.75 23.66 157.47 23.86 C 157.17 23.57 156.56 22.99 156.26 22.70 Z" />
<path fill="#3c6bbe" opacity="1.00" d=" M 212.29 22.71 C 212.90 22.60 214.10 22.38 214.71 22.27 L 214.57 23.05 C 214.29 23.26 213.73 23.68 213.45 23.89 C 213.16 23.59 212.58 23.01 212.29 22.71 Z" />
<path fill="#3c6bbe" opacity="1.00" d=" M 47.70 24.53 L 48.47 24.57 C 48.59 25.60 49.04 26.44 49.84 27.10 C 49.57 27.40 49.03 28.00 48.76 28.30 L 48.09 27.93 C 47.93 27.25 47.61 25.89 47.45 25.22 L 47.70 24.53 Z" />
<path fill="#3c6bbe" opacity="1.00" d=" M 103.77 24.45 L 104.53 24.51 C 104.61 25.55 105.05 26.41 105.84 27.10 C 105.56 27.39 105.00 27.99 104.73 28.28 L 104.07 27.89 C 103.93 27.20 103.65 25.81 103.51 25.12 L 103.77 24.45 Z" />
<path fill="#3c6bbe" opacity="1.00" d=" M 159.80 24.42 L 160.56 24.50 C 160.63 25.54 161.06 26.41 161.85 27.10 C 161.57 27.40 161.01 27.99 160.73 28.29 L 160.07 27.89 C 159.94 27.19 159.68 25.79 159.55 25.09 L 159.80 24.42 Z" />
<path fill="#3c6bbe" opacity="1.00" d=" M 215.75 24.39 L 216.51 24.41 C 216.61 25.44 217.05 26.29 217.84 26.97 C 217.57 27.28 217.03 27.90 216.76 28.20 L 216.10 27.83 C 215.95 27.14 215.66 25.77 215.51 25.08 L 215.75 24.39 Z" />
<path fill="#3c6bbe" opacity="1.00" d=" M 8.35 39.76 C 11.64 38.17 15.02 36.16 18.81 36.28 C 21.99 36.63 24.95 38.22 27.39 40.25 C 26.01 43.07 23.17 44.62 20.64 46.25 C 21.07 47.71 21.50 49.17 21.92 50.64 C 19.80 52.43 17.71 54.28 15.52 56.00 L 0.00 56.00 L 0.00 38.15 C 6.93 38.53 10.25 44.92 15.65 48.15 C 13.13 45.43 10.66 42.66 8.35 39.76 M 2.17 47.95 C 2.82 49.25 3.47 50.55 4.13 51.85 C 3.43 52.56 2.73 53.28 2.03 53.99 C 5.07 54.31 8.10 54.66 11.14 54.98 C 8.99 53.54 6.83 52.12 4.69 50.67 C 5.74 49.33 6.82 48.02 7.90 46.70 C 5.99 47.10 4.07 47.51 2.17 47.95 Z" />
</g>
<g id="#4278caff">
<path fill="#4278ca" opacity="1.00" d=" M 25.33 0.00 L 30.40 0.00 C 28.94 2.17 27.86 4.87 25.53 6.27 C 21.69 7.08 17.27 4.50 13.74 6.77 C 11.09 9.18 14.49 11.99 15.70 14.20 C 11.86 14.12 8.01 14.28 4.19 14.62 C 6.45 12.75 8.97 11.14 10.92 8.92 C 10.41 6.99 9.47 5.21 8.57 3.44 C 15.07 5.55 22.11 4.40 28.68 3.24 C 27.57 2.14 26.47 1.05 25.33 0.00 Z" />
<path fill="#4278ca" opacity="1.00" d=" M 138.80 0.00 L 141.09 0.00 C 139.66 1.63 138.35 3.36 137.03 5.07 C 133.42 4.22 129.10 2.31 125.74 4.78 C 123.08 7.17 126.49 10.00 127.70 12.20 C 123.85 12.12 120.01 12.27 116.18 12.62 C 118.34 10.93 120.66 9.40 122.62 7.47 C 122.42 5.32 121.60 3.31 120.86 1.30 C 126.81 2.14 133.33 3.29 138.80 0.00 Z" />
<path fill="#4278ca" opacity="1.00" d=" M 64.41 2.31 C 70.96 2.98 77.56 3.41 84.15 3.29 C 83.04 4.29 81.93 5.29 80.82 6.30 C 77.23 4.89 72.35 2.83 69.27 6.33 C 67.04 9.04 70.66 11.24 72.09 13.29 C 68.04 12.89 63.93 12.61 59.97 13.68 C 62.24 12.01 64.71 10.57 66.74 8.59 C 67.43 6.23 65.39 4.27 64.41 2.31 Z" />
</g>
<g id="#4579caff">
<path fill="#4579ca" opacity="1.00" d=" M 31.57 0.00 L 33.28 0.00 C 35.23 2.33 36.96 4.84 38.91 7.18 L 39.14 7.48 C 33.42 7.10 30.45 11.23 28.96 15.86 C 26.75 10.63 30.81 6.48 34.49 3.37 C 33.53 2.24 32.57 1.10 31.57 0.00 Z" />
</g>
<g id="#268ed9fe">
<path fill="#268ed9" opacity="1.00" d=" M 40.04 0.00 L 41.59 0.00 C 42.09 1.43 42.09 2.88 41.59 4.35 C 40.47 3.27 38.99 1.64 40.04 0.00 Z" />
<path fill="#268ed9" opacity="1.00" d=" M 41.26 31.02 C 41.03 28.18 41.07 25.30 41.74 22.52 C 41.95 23.55 42.32 24.52 42.84 25.45 C 43.05 25.96 43.46 26.98 43.66 27.49 L 43.61 29.12 C 43.03 29.59 41.85 30.54 41.26 31.02 Z" />
</g>
<g id="#8aa3b5ff">
<path fill="#8aa3b5" opacity="1.00" d=" M 41.59 0.00 L 42.93 0.00 C 43.23 0.57 43.82 1.70 44.11 2.26 C 43.77 3.14 43.46 4.03 43.18 4.93 C 43.05 5.58 42.77 6.87 42.64 7.52 C 42.52 7.19 42.29 6.51 42.18 6.18 C 42.03 5.72 41.74 4.81 41.59 4.35 C 42.09 2.88 42.09 1.43 41.59 0.00 Z" />
</g>
<g id="#332e2aff">
<path fill="#332e2a" opacity="1.00" d=" M 42.93 0.00 L 44.46 0.00 C 44.37 0.57 44.20 1.70 44.11 2.26 C 43.82 1.70 43.23 0.57 42.93 0.00 Z" />
<path fill="#332e2a" opacity="1.00" d=" M 48.28 0.00 L 50.56 0.00 C 50.57 0.31 50.59 0.92 50.60 1.22 C 49.41 2.04 47.94 2.19 46.55 2.11 C 47.05 1.35 47.63 0.64 48.28 0.00 Z" />
<path fill="#332e2a" opacity="1.00" d=" M 104.23 0.00 L 106.54 0.00 C 106.55 0.31 106.57 0.92 106.59 1.22 C 105.40 2.03 103.93 2.18 102.54 2.12 C 103.03 1.35 103.59 0.65 104.23 0.00 Z" />
<path fill="#332e2a" opacity="1.00" d=" M 155.14 0.00 L 156.75 0.00 C 156.39 0.60 155.68 1.80 155.32 2.39 C 155.27 1.80 155.18 0.60 155.14 0.00 Z" />
<path fill="#332e2a" opacity="1.00" d=" M 160.26 0.00 L 162.56 0.00 C 162.56 0.31 162.58 0.92 162.59 1.22 C 161.41 2.03 159.94 2.18 158.55 2.11 C 159.04 1.35 159.61 0.65 160.26 0.00 Z" />
<path fill="#332e2a" opacity="1.00" d=" M 216.23 0.00 L 218.54 0.00 C 218.55 0.31 218.57 0.92 218.59 1.22 C 217.40 2.03 215.93 2.18 214.54 2.12 C 215.03 1.35 215.59 0.65 216.23 0.00 Z" />
<path fill="#332e2a" opacity="1.00" d=" M 45.38 24.06 C 45.66 23.85 46.23 23.43 46.51 23.22 C 46.99 23.07 47.95 22.75 48.43 22.60 C 48.83 22.66 49.63 22.79 50.02 22.85 L 50.17 23.47 L 50.08 24.16 L 49.36 24.44 L 48.47 24.57 L 47.70 24.53 C 47.12 24.42 45.96 24.18 45.38 24.06 Z" />
<path fill="#332e2a" opacity="1.00" d=" M 101.47 23.89 C 101.75 23.69 102.31 23.28 102.58 23.08 C 103.05 22.94 103.99 22.67 104.45 22.53 C 104.85 22.60 105.65 22.74 106.05 22.82 L 106.20 23.45 L 106.12 24.14 L 105.41 24.42 L 104.53 24.51 L 103.77 24.45 C 103.19 24.31 102.04 24.03 101.47 23.89 Z" />
<path fill="#332e2a" opacity="1.00" d=" M 157.47 23.86 C 157.75 23.66 158.30 23.25 158.58 23.05 C 159.05 22.91 159.99 22.65 160.46 22.52 C 160.86 22.59 161.66 22.74 162.06 22.81 L 162.22 23.45 L 162.14 24.14 L 161.44 24.41 L 160.56 24.50 L 159.80 24.42 C 159.22 24.28 158.06 24.00 157.47 23.86 Z" />
<path fill="#332e2a" opacity="1.00" d=" M 213.45 23.89 C 213.73 23.68 214.29 23.26 214.57 23.05 C 215.04 22.89 215.98 22.59 216.45 22.43 C 216.85 22.48 217.65 22.58 218.05 22.63 L 218.21 23.21 L 218.12 23.87 L 217.38 24.25 L 216.51 24.41 L 215.75 24.39 C 215.18 24.27 214.03 24.01 213.45 23.89 Z" />
</g>
<g id="#525548ff">
<path fill="#525548" opacity="1.00" d=" M 44.46 0.00 L 48.28 0.00 C 47.63 0.64 47.05 1.35 46.55 2.11 C 47.94 2.19 49.41 2.04 50.60 1.22 C 50.56 2.42 50.46 3.61 50.33 4.79 C 47.95 4.79 45.56 4.83 43.18 4.93 C 43.46 4.03 43.77 3.14 44.11 2.26 C 44.20 1.70 44.37 0.57 44.46 0.00 Z" />
<path fill="#525548" opacity="1.00" d=" M 101.21 0.00 L 104.23 0.00 C 103.59 0.65 103.03 1.35 102.54 2.12 C 103.93 2.18 105.40 2.03 106.59 1.22 C 106.56 2.45 106.45 3.67 106.33 4.89 C 103.87 4.75 101.41 4.66 98.95 4.61 L 98.94 3.85 C 100.02 2.78 100.92 1.52 101.21 0.00 Z" />
<path fill="#525548" opacity="1.00" d=" M 156.75 0.00 L 160.26 0.00 C 159.61 0.65 159.04 1.35 158.55 2.11 C 159.94 2.18 161.41 2.03 162.59 1.22 C 162.56 2.44 162.46 3.65 162.33 4.85 C 160.05 4.79 157.77 4.76 155.49 4.78 C 155.43 3.99 155.37 3.19 155.32 2.39 C 155.68 1.80 156.39 0.60 156.75 0.00 Z" />
<path fill="#525548" opacity="1.00" d=" M 213.21 0.00 L 216.23 0.00 C 215.59 0.65 215.03 1.35 214.54 2.12 C 215.93 2.18 217.40 2.03 218.59 1.22 C 218.56 2.45 218.45 3.67 218.33 4.88 C 215.87 4.75 213.41 4.66 210.95 4.61 L 210.94 3.85 C 212.02 2.78 212.92 1.52 213.21 0.00 Z" />
</g>
<g id="#7da960ff">
<path fill="#7da960" opacity="1.00" d=" M 50.56 0.00 L 55.92 0.00 C 55.95 2.93 55.99 5.85 56.02 8.78 C 54.53 9.50 53.04 10.24 51.55 10.99 C 51.89 8.63 52.32 6.30 52.77 3.96 C 51.91 4.60 51.05 5.24 50.20 5.87 L 50.33 4.79 C 50.46 3.61 50.56 2.42 50.60 1.22 C 50.59 0.92 50.57 0.31 50.56 0.00 Z" />
<path fill="#7da960" opacity="1.00" d=" M 106.54 0.00 L 111.93 0.00 C 111.95 2.93 111.97 5.85 112.02 8.78 C 110.52 9.50 109.03 10.24 107.55 10.99 C 107.89 8.63 108.32 6.29 108.77 3.95 C 107.91 4.61 107.05 5.27 106.20 5.93 L 106.33 4.89 C 106.45 3.67 106.56 2.45 106.59 1.22 C 106.57 0.92 106.55 0.31 106.54 0.00 Z" />
<path fill="#7da960" opacity="1.00" d=" M 162.56 0.00 L 167.92 0.00 C 167.94 2.93 167.99 5.85 168.02 8.78 C 166.53 9.50 165.04 10.24 163.55 10.99 C 163.89 8.63 164.32 6.29 164.76 3.96 C 163.91 4.61 163.05 5.25 162.20 5.90 L 162.33 4.85 C 162.46 3.65 162.56 2.44 162.59 1.22 C 162.58 0.92 162.56 0.31 162.56 0.00 Z" />
<path fill="#7da960" opacity="1.00" d=" M 218.54 0.00 L 224.00 0.00 L 224.00 8.07 C 222.54 9.18 221.05 10.24 219.56 11.30 C 219.90 8.84 220.32 6.39 220.76 3.95 C 219.90 4.61 219.05 5.27 218.20 5.93 L 218.33 4.88 C 218.45 3.67 218.56 2.45 218.59 1.22 C 218.57 0.92 218.55 0.31 218.54 0.00 Z" />
</g>
<g id="#437acaff">
<path fill="#437aca" opacity="1.00" d=" M 90.42 0.00 L 92.01 0.00 C 92.54 1.91 92.98 3.85 93.44 5.78 C 89.37 8.25 85.96 11.57 82.86 15.15 C 82.03 9.30 86.48 6.00 90.82 3.54 C 90.68 2.36 90.55 1.18 90.42 0.00 Z" />
<path fill="#437aca" opacity="1.00" d=" M 202.42 0.00 L 204.01 0.00 C 204.54 1.91 204.98 3.85 205.44 5.78 C 201.37 8.25 197.96 11.57 194.86 15.15 C 194.03 9.30 198.48 6.00 202.82 3.54 C 202.68 2.36 202.55 1.18 202.42 0.00 Z" />
<path fill="#437aca" opacity="1.00" d=" M 129.15 25.99 C 132.83 24.77 136.55 23.68 140.38 23.08 C 136.14 24.64 131.70 26.41 129.08 30.31 C 134.10 32.92 139.12 35.70 144.56 37.36 C 146.47 39.95 148.54 42.43 150.97 44.54 C 148.65 44.51 146.32 44.56 144.00 44.65 C 144.74 43.27 145.48 41.88 146.20 40.48 C 143.81 39.77 141.44 39.02 139.07 38.27 C 139.77 41.84 141.63 44.94 143.95 47.66 C 143.07 48.81 142.20 49.96 141.33 51.10 C 140.79 49.10 140.25 47.10 139.72 45.09 C 138.58 45.40 137.45 45.71 136.32 46.02 C 137.67 42.99 138.56 39.76 138.67 36.44 C 134.34 35.71 130.08 34.75 125.86 33.57 C 126.56 33.31 127.97 32.79 128.68 32.53 C 128.80 30.90 129.04 27.63 129.15 25.99 Z" />
</g>
<g id="#298ed7ff">
<path fill="#298ed7" opacity="1.00" d=" M 97.40 0.00 L 99.64 0.00 C 98.90 1.17 98.67 2.45 98.94 3.85 L 98.95 4.61 C 98.96 6.35 98.97 8.09 98.98 9.83 C 98.68 11.05 99.68 12.35 101.00 12.01 C 100.37 13.24 99.77 14.48 99.15 15.71 C 98.16 16.97 98.94 19.02 100.50 19.34 C 100.20 20.61 99.94 21.89 99.70 23.17 C 99.65 23.58 99.55 24.41 99.50 24.83 L 99.43 25.57 C 99.38 26.18 99.29 27.39 99.25 27.99 C 99.26 28.27 99.29 28.81 99.30 29.08 C 98.86 29.50 97.97 30.35 97.53 30.78 C 97.05 20.55 95.75 10.20 97.40 0.00 Z" />
<path fill="#298ed7" opacity="1.00" d=" M 209.40 0.00 L 211.64 0.00 C 210.90 1.17 210.67 2.45 210.94 3.85 L 210.95 4.61 C 210.96 6.35 210.97 8.09 210.98 9.83 C 210.68 11.05 211.68 12.35 213.00 12.01 C 212.37 13.24 211.76 14.48 211.15 15.71 C 210.16 16.97 210.94 19.02 212.50 19.34 C 212.20 20.62 211.93 21.89 211.69 23.18 C 211.64 23.59 211.54 24.42 211.49 24.84 L 211.43 25.58 C 211.38 26.18 211.29 27.39 211.25 27.99 C 211.26 28.26 211.29 28.81 211.30 29.08 C 210.86 29.50 209.97 30.35 209.53 30.78 C 209.05 20.55 207.75 10.20 209.40 0.00 Z" />
</g>
<g id="#5c6268ff">
<path fill="#5c6268" opacity="1.00" d=" M 99.64 0.00 L 101.21 0.00 C 100.92 1.52 100.02 2.78 98.94 3.85 C 98.67 2.45 98.90 1.17 99.64 0.00 Z" />
<path fill="#5c6268" opacity="1.00" d=" M 211.64 0.00 L 213.21 0.00 C 212.92 1.52 212.02 2.78 210.94 3.85 C 210.67 2.45 210.90 1.17 211.64 0.00 Z" />
</g>
<g id="#457bcbff">
<path fill="#457bcb" opacity="1.00" d=" M 149.32 0.00 L 149.36 0.00 C 149.71 1.69 150.08 3.37 150.46 5.06 C 145.58 6.81 141.63 10.27 139.74 15.14 C 139.76 12.38 139.82 9.62 139.96 6.87 C 143.49 5.18 146.65 2.86 149.32 0.00 Z" />
</g>
<g id="#278ed8ff">
<path fill="#278ed8" opacity="1.00" d=" M 153.38 0.00 L 155.14 0.00 C 155.18 0.60 155.27 1.80 155.32 2.39 C 155.37 3.19 155.43 3.99 155.49 4.78 C 155.68 6.62 155.95 8.45 156.32 10.26 C 156.52 10.63 156.93 11.38 157.13 11.75 C 156.35 15.51 156.00 19.34 155.65 23.16 C 155.64 23.58 155.61 24.42 155.60 24.84 L 155.62 25.54 C 155.75 26.19 156.02 27.47 156.15 28.12 C 155.76 28.59 154.98 29.53 154.58 30.00 C 154.35 30.24 153.88 30.73 153.65 30.98 C 153.03 20.68 151.72 10.28 153.38 0.00 Z" />
</g>
<g id="#3c6cbefe">
<path fill="#3c6cbe" opacity="1.00" d=" M 167.92 0.00 L 202.42 0.00 C 202.55 1.18 202.68 2.36 202.82 3.54 C 198.48 6.00 194.03 9.30 194.86 15.15 C 197.96 11.57 201.37 8.25 205.44 5.78 C 204.98 3.85 204.54 1.91 204.01 0.00 L 209.40 0.00 C 207.75 10.20 209.05 20.55 209.53 30.78 L 209.53 31.60 C 209.63 38.51 208.67 45.45 209.46 52.34 L 209.58 53.12 C 209.76 53.84 210.13 55.28 210.31 56.00 L 167.50 56.00 C 167.55 54.49 167.62 52.99 167.69 51.48 C 167.72 51.06 167.78 50.21 167.81 49.79 L 167.83 49.22 C 167.95 42.61 167.75 36.00 167.75 29.40 C 171.93 28.36 175.73 26.30 179.67 24.63 C 180.08 22.29 180.64 19.98 181.30 17.69 C 176.72 18.86 172.12 17.65 167.71 16.33 C 167.71 15.59 167.71 14.10 167.71 13.36 L 167.90 12.50 C 167.94 12.09 168.02 11.27 168.06 10.86 C 168.05 10.34 168.03 9.30 168.02 8.78 C 167.99 5.85 167.94 2.93 167.92 0.00 M 178.86 4.39 C 179.35 9.02 175.46 11.50 172.00 13.71 C 175.94 12.59 180.05 12.88 184.09 13.29 C 182.66 11.24 179.04 9.04 181.27 6.33 C 184.35 2.83 189.22 4.89 192.82 6.29 C 193.92 5.29 195.04 4.30 196.15 3.31 C 190.35 2.99 184.53 2.92 178.86 4.39 M 185.75 27.02 C 185.44 29.30 185.40 31.64 184.73 33.85 C 181.08 36.40 176.42 36.78 172.26 38.15 C 174.58 41.90 177.34 45.59 181.81 46.87 C 179.48 44.54 177.19 42.17 175.16 39.58 C 181.24 36.57 188.02 34.39 194.75 36.96 C 193.53 41.66 191.02 46.01 186.90 48.73 C 187.73 48.91 189.39 49.27 190.23 49.45 C 188.28 50.88 186.30 52.28 184.29 53.62 C 184.47 53.92 184.82 54.52 185.00 54.82 C 187.26 53.44 189.42 51.76 192.02 51.03 C 194.58 51.61 196.59 53.45 198.67 54.93 C 195.64 50.60 200.28 47.38 203.00 44.50 C 199.78 45.64 195.77 46.41 194.91 50.52 C 193.69 50.08 192.48 49.63 191.28 49.16 C 193.19 45.72 195.02 42.24 196.72 38.70 C 199.35 39.37 202.00 39.98 204.65 40.61 C 199.49 35.55 191.79 35.32 185.78 31.72 C 188.25 27.51 192.92 25.96 197.27 24.51 C 193.42 25.30 189.57 26.09 185.75 27.02 M 198.17 27.17 C 197.65 28.80 198.20 29.35 199.83 28.83 C 200.35 27.20 199.79 26.65 198.17 27.17 Z" />
</g>
<g id="#4378caff">
<path fill="#4378ca" opacity="1.00" d=" M 178.86 4.39 C 184.53 2.92 190.35 2.99 196.15 3.31 C 195.04 4.30 193.92 5.29 192.82 6.29 C 189.22 4.89 184.35 2.83 181.27 6.33 C 179.04 9.04 182.66 11.24 184.09 13.29 C 180.05 12.88 175.94 12.59 172.00 13.71 C 175.46 11.50 179.35 9.02 178.86 4.39 Z" />
</g>
<g id="#322f2cff">
<path fill="#322f2c" opacity="1.00" d=" M 43.18 4.93 C 45.56 4.83 47.95 4.79 50.33 4.79 L 50.20 5.87 C 49.70 11.54 48.10 16.98 46.65 22.45 C 46.04 22.56 44.82 22.79 44.21 22.91 L 43.59 23.36 C 43.49 22.92 43.28 22.05 43.18 21.61 C 43.30 21.06 43.55 19.97 43.67 19.42 C 43.99 18.25 44.13 17.05 44.17 15.84 C 44.26 14.64 44.39 13.44 44.52 12.24 L 44.61 11.30 C 47.09 11.87 46.63 8.78 44.38 9.55 C 43.90 9.38 42.94 9.04 42.46 8.87 C 42.50 8.53 42.59 7.86 42.64 7.52 C 42.77 6.87 43.05 5.58 43.18 4.93 M 43.75 7.17 C 45.50 8.14 47.25 9.12 48.99 10.11 C 48.99 9.32 48.99 7.76 48.98 6.97 C 47.24 7.04 45.49 7.10 43.75 7.17 Z" />
<path fill="#322f2c" opacity="1.00" d=" M 98.95 4.61 C 101.41 4.66 103.87 4.75 106.33 4.89 L 106.20 5.93 C 105.68 11.52 104.11 16.89 102.72 22.29 C 102.12 22.40 100.91 22.60 100.31 22.71 L 99.70 23.17 C 99.94 21.89 100.20 20.61 100.50 19.34 C 101.08 18.02 100.74 16.11 99.15 15.71 C 99.77 14.48 100.37 13.24 101.00 12.01 L 101.33 11.38 C 103.80 11.06 102.33 8.38 100.49 9.74 C 100.12 9.76 99.36 9.80 98.98 9.83 C 98.97 8.09 98.96 6.35 98.95 4.61 M 99.75 7.17 C 101.50 8.14 103.25 9.12 104.99 10.11 C 104.99 9.32 104.99 7.76 104.98 6.97 C 103.24 7.04 101.49 7.10 99.75 7.17 Z" />
<path fill="#322f2c" opacity="1.00" d=" M 155.49 4.78 C 157.77 4.76 160.05 4.79 162.33 4.85 L 162.20 5.90 C 161.69 11.49 160.12 16.87 158.71 22.27 C 158.10 22.38 156.87 22.59 156.26 22.70 L 155.65 23.16 C 156.00 19.34 156.35 15.51 157.13 11.75 C 159.27 11.03 157.71 8.11 156.32 10.26 C 155.95 8.45 155.68 6.62 155.49 4.78 M 155.75 7.17 C 157.50 8.14 159.25 9.12 160.99 10.11 C 160.99 9.32 160.99 7.76 160.98 6.97 C 159.24 7.04 157.49 7.10 155.75 7.17 Z" />
<path fill="#322f2c" opacity="1.00" d=" M 210.95 4.61 C 213.41 4.66 215.87 4.75 218.33 4.88 L 218.20 5.93 C 217.69 11.51 216.12 16.88 214.71 22.27 C 214.10 22.38 212.90 22.60 212.29 22.71 L 211.69 23.18 C 211.93 21.89 212.20 20.62 212.50 19.34 C 213.08 18.02 212.74 16.11 211.15 15.71 C 211.76 14.48 212.37 13.24 213.00 12.01 L 213.33 11.38 C 215.79 11.06 214.33 8.38 212.49 9.74 C 212.12 9.76 211.36 9.80 210.98 9.83 C 210.97 8.09 210.96 6.35 210.95 4.61 M 211.75 7.17 C 213.50 8.14 215.25 9.12 216.99 10.11 C 216.99 9.32 216.99 7.76 216.98 6.97 C 215.24 7.04 213.49 7.10 211.75 7.17 Z" />
</g>
<g id="#4f6048ff">
<path fill="#4f6048" opacity="1.00" d=" M 50.20 5.87 C 51.05 5.24 51.91 4.60 52.77 3.96 C 52.32 6.30 51.89 8.63 51.55 10.99 C 51.27 12.98 50.93 14.97 50.71 16.97 C 50.47 19.13 50.41 21.31 50.17 23.47 L 50.02 22.85 C 50.55 19.88 46.16 19.72 48.43 22.60 C 47.95 22.75 46.99 23.07 46.51 23.22 L 46.65 22.45 C 48.10 16.98 49.70 11.54 50.20 5.87 Z" />
<path fill="#4f6048" opacity="1.00" d=" M 106.20 5.93 C 107.05 5.27 107.91 4.61 108.77 3.95 C 108.32 6.29 107.89 8.63 107.55 10.99 C 107.27 12.97 106.93 14.95 106.71 16.94 C 106.47 19.10 106.42 21.28 106.20 23.45 L 106.05 22.82 C 106.58 19.85 102.14 19.65 104.45 22.53 C 103.99 22.67 103.05 22.94 102.58 23.08 L 102.72 22.29 C 104.11 16.89 105.68 11.52 106.20 5.93 Z" />
<path fill="#4f6048" opacity="1.00" d=" M 162.20 5.90 C 163.05 5.25 163.91 4.61 164.76 3.96 C 164.32 6.29 163.89 8.63 163.55 10.99 C 163.27 12.98 162.93 14.97 162.71 16.97 C 162.47 19.13 162.43 21.29 162.22 23.45 L 162.06 22.81 C 162.58 19.85 158.15 19.64 160.46 22.52 C 159.99 22.65 159.05 22.91 158.58 23.05 L 158.71 22.27 C 160.12 16.87 161.69 11.49 162.20 5.90 Z" />
<path fill="#4f6048" opacity="1.00" d=" M 218.20 5.93 C 219.05 5.27 219.90 4.61 220.76 3.95 C 220.32 6.39 219.90 8.84 219.56 11.30 C 219.29 13.20 218.94 15.08 218.72 16.99 C 218.48 19.06 218.43 21.14 218.21 23.21 L 218.05 22.63 C 218.51 19.66 214.07 19.67 216.45 22.43 C 215.98 22.59 215.04 22.89 214.57 23.05 L 214.71 22.27 C 216.12 16.88 217.69 11.51 218.20 5.93 Z" />
</g>
<g id="#268ed9ff">
<path fill="#268ed9" opacity="1.00" d=" M 38.91 7.18 C 39.96 6.71 41.05 6.37 42.18 6.18 C 42.29 6.51 42.52 7.19 42.64 7.52 C 42.59 7.86 42.50 8.53 42.46 8.87 C 41.53 8.58 40.60 8.27 39.68 7.95 L 39.14 7.48 L 38.91 7.18 Z" />
<path fill="#268ed9" opacity="1.00" d=" M 142.17 26.17 C 143.80 25.65 144.35 26.20 143.83 27.83 C 142.20 28.35 141.65 27.80 142.17 26.17 Z" />
<path fill="#268ed9" opacity="1.00" d=" M 86.17 27.17 C 87.80 26.65 88.35 27.20 87.83 28.83 C 86.20 29.35 85.65 28.80 86.17 27.17 Z" />
<path fill="#268ed9" opacity="1.00" d=" M 198.17 27.17 C 199.79 26.65 200.35 27.20 199.83 28.83 C 198.20 29.35 197.65 28.80 198.17 27.17 Z" />
<path fill="#268ed9" opacity="1.00" d=" M 42.11 52.90 C 42.68 52.57 43.84 51.89 44.42 51.55 C 43.97 53.05 43.46 54.54 42.88 56.00 L 40.14 56.00 C 40.81 54.98 41.46 53.94 42.11 52.90 Z" />
<path fill="#268ed9" opacity="1.00" d=" M 97.58 53.12 C 98.20 52.94 99.44 52.57 100.06 52.39 C 100.04 53.67 99.81 55.01 98.94 56.00 L 98.31 56.00 C 98.13 55.28 97.76 53.84 97.58 53.12 Z" />
<path fill="#268ed9" opacity="1.00" d=" M 209.58 53.12 C 210.20 52.94 211.44 52.57 212.06 52.39 C 212.03 53.67 211.80 55.00 210.94 56.00 L 210.31 56.00 C 210.13 55.28 209.76 53.84 209.58 53.12 Z" />
</g>
<g id="#565249ff">
<path fill="#565249" opacity="1.00" d=" M 43.75 7.17 C 45.49 7.10 47.24 7.04 48.98 6.97 C 48.99 7.76 48.99 9.32 48.99 10.11 C 47.25 9.12 45.50 8.14 43.75 7.17 Z" />
<path fill="#565249" opacity="1.00" d=" M 99.75 7.17 C 101.49 7.10 103.24 7.04 104.98 6.97 C 104.99 7.76 104.99 9.32 104.99 10.11 C 103.25 9.12 101.50 8.14 99.75 7.17 Z" />
<path fill="#565249" opacity="1.00" d=" M 155.75 7.17 C 157.49 7.10 159.24 7.04 160.98 6.97 C 160.99 7.76 160.99 9.32 160.99 10.11 C 159.25 9.12 157.50 8.14 155.75 7.17 Z" />
<path fill="#565249" opacity="1.00" d=" M 211.75 7.17 C 213.49 7.10 215.24 7.04 216.98 6.97 C 216.99 7.76 216.99 9.32 216.99 10.11 C 215.25 9.12 213.50 8.14 211.75 7.17 Z" />
<path fill="#565249" opacity="1.00" d=" M 44.38 9.55 C 46.63 8.78 47.09 11.87 44.61 11.30 C 44.55 10.87 44.44 9.99 44.38 9.55 Z" />
<path fill="#565249" opacity="1.00" d=" M 100.49 9.74 C 102.33 8.38 103.80 11.06 101.33 11.38 C 101.12 10.97 100.70 10.15 100.49 9.74 Z" />
<path fill="#565249" opacity="1.00" d=" M 156.32 10.26 C 157.71 8.11 159.27 11.03 157.13 11.75 C 156.93 11.38 156.52 10.63 156.32 10.26 Z" />
<path fill="#565249" opacity="1.00" d=" M 212.49 9.74 C 214.33 8.38 215.79 11.06 213.33 11.38 C 213.12 10.97 212.70 10.15 212.49 9.74 Z" />
<path fill="#565249" opacity="1.00" d=" M 43.66 27.49 C 44.97 29.03 46.36 30.50 47.72 32.00 C 46.38 32.15 45.05 32.31 43.72 32.48 C 43.77 31.36 43.74 30.24 43.61 29.12 L 43.66 27.49 Z" />
</g>
<g id="#7b9eb5ff">
<path fill="#7b9eb5" opacity="1.00" d=" M 39.68 7.95 C 40.60 8.27 41.53 8.58 42.46 8.87 C 42.94 9.04 43.90 9.38 44.38 9.55 C 44.44 9.99 44.55 10.87 44.61 11.30 L 44.52 12.24 C 43.69 11.52 42.87 10.80 42.05 10.08 C 41.26 9.37 40.47 8.66 39.68 7.95 Z" />
</g>
<g id="#6b995aff">
<path fill="#6b995a" opacity="1.00" d=" M 51.55 10.99 C 53.04 10.24 54.53 9.50 56.02 8.78 C 56.03 9.30 56.05 10.34 56.06 10.86 C 53.30 8.39 52.61 13.95 55.90 12.50 L 55.71 13.36 C 54.05 14.58 52.37 15.75 50.71 16.97 C 50.93 14.97 51.27 12.98 51.55 10.99 Z" />
<path fill="#6b995a" opacity="1.00" d=" M 107.55 10.99 C 109.03 10.24 110.52 9.50 112.02 8.78 C 112.03 9.31 112.04 10.37 112.05 10.90 C 109.30 8.39 108.62 13.94 111.91 12.55 L 111.73 13.51 C 110.06 14.66 108.37 15.78 106.71 16.94 C 106.93 14.95 107.27 12.97 107.55 10.99 Z" />
<path fill="#6b995a" opacity="1.00" d=" M 163.55 10.99 C 165.04 10.24 166.53 9.50 168.02 8.78 C 168.03 9.30 168.05 10.34 168.06 10.86 C 165.29 8.39 164.61 13.95 167.90 12.50 L 167.71 13.36 C 166.05 14.58 164.37 15.75 162.71 16.97 C 162.93 14.97 163.27 12.98 163.55 10.99 Z" />
<path fill="#6b995a" opacity="1.00" d=" M 219.56 11.30 C 221.05 10.24 222.54 9.18 224.00 8.07 L 224.00 10.77 C 221.00 8.47 220.82 14.21 224.00 12.38 L 224.00 12.92 C 222.26 14.30 220.47 15.62 218.72 16.99 C 218.94 15.08 219.29 13.20 219.56 11.30 Z" />
</g>
<g id="#86a0b1ff">
<path fill="#86a0b1" opacity="1.00" d=" M 98.98 9.83 C 99.36 9.80 100.12 9.76 100.49 9.74 C 100.70 10.15 101.12 10.97 101.33 11.38 L 101.00 12.01 C 99.68 12.35 98.68 11.05 98.98 9.83 Z" />
<path fill="#86a0b1" opacity="1.00" d=" M 210.98 9.83 C 211.36 9.80 212.12 9.76 212.49 9.74 C 212.70 10.15 213.12 10.97 213.33 11.38 L 213.00 12.01 C 211.68 12.35 210.68 11.05 210.98 9.83 Z" />
<path fill="#86a0b1" opacity="1.00" d=" M 100.50 19.34 C 98.94 19.02 98.16 16.97 99.15 15.71 C 100.74 16.11 101.08 18.02 100.50 19.34 Z" />
<path fill="#86a0b1" opacity="1.00" d=" M 212.50 19.34 C 210.94 19.02 210.16 16.97 211.15 15.71 C 212.74 16.11 213.08 18.02 212.50 19.34 Z" />
<path fill="#86a0b1" opacity="1.00" d=" M 42.64 21.16 L 43.18 21.61 C 43.28 22.05 43.49 22.92 43.59 23.36 C 43.53 23.76 43.42 24.56 43.36 24.97 L 42.84 25.45 C 42.32 24.52 41.95 23.55 41.74 22.52 C 41.97 22.18 42.42 21.50 42.64 21.16 Z" />
<path fill="#86a0b1" opacity="1.00" d=" M 155.65 23.16 L 156.26 22.70 C 156.56 22.99 157.17 23.57 157.47 23.86 L 157.34 24.60 C 156.91 24.66 156.04 24.78 155.60 24.84 C 155.61 24.42 155.64 23.58 155.65 23.16 Z" />
<path fill="#86a0b1" opacity="1.00" d=" M 154.58 30.00 C 154.87 30.64 155.45 31.91 155.74 32.54 C 155.41 32.62 154.74 32.78 154.41 32.86 C 154.22 32.57 153.84 31.98 153.64 31.69 L 153.65 30.98 C 153.88 30.73 154.35 30.24 154.58 30.00 Z" />
<path fill="#86a0b1" opacity="1.00" d=" M 154.19 50.34 C 154.64 50.43 155.54 50.61 155.99 50.70 L 155.95 51.51 C 155.10 53.00 153.15 51.65 154.19 50.34 Z" />
</g>
<g id="#3490d2ff">
<path fill="#3490d2" opacity="1.00" d=" M 42.05 10.08 C 42.87 10.80 43.69 11.52 44.52 12.24 C 44.39 13.44 44.26 14.64 44.17 15.84 C 43.43 15.98 41.97 16.25 41.24 16.39 C 41.44 14.81 41.85 11.65 42.05 10.08 Z" />
</g>
<g id="#8db764ff">
<path fill="#8db764" opacity="1.00" d=" M 55.90 12.50 C 52.61 13.95 53.30 8.39 56.06 10.86 C 56.02 11.27 55.94 12.09 55.90 12.50 Z" />
<path fill="#8db764" opacity="1.00" d=" M 111.91 12.55 C 108.62 13.94 109.30 8.39 112.05 10.90 C 112.02 11.31 111.95 12.14 111.91 12.55 Z" />
<path fill="#8db764" opacity="1.00" d=" M 167.90 12.50 C 164.61 13.95 165.29 8.39 168.06 10.86 C 168.02 11.27 167.94 12.09 167.90 12.50 Z" />
<path fill="#8db764" opacity="1.00" d=" M 224.00 12.38 C 220.82 14.21 221.00 8.47 224.00 10.77 L 224.00 12.38 Z" />
</g>
<g id="#4279caff">
<path fill="#4279ca" opacity="1.00" d=" M 111.72 15.06 C 118.45 18.67 125.47 16.36 132.06 13.71 C 129.38 15.06 126.61 16.21 123.84 17.35 C 123.88 19.09 123.93 20.83 124.00 22.57 C 119.77 24.19 115.68 26.13 111.50 27.85 L 111.70 27.15 L 111.94 26.26 C 115.29 24.21 118.92 22.68 122.45 20.97 C 118.99 19.52 115.40 18.40 111.78 17.45 C 111.76 16.85 111.73 15.66 111.72 15.06 Z" />
<path fill="#4279ca" opacity="1.00" d=" M 185.75 27.02 C 189.57 26.09 193.42 25.30 197.27 24.51 C 192.92 25.96 188.25 27.51 185.78 31.72 C 191.79 35.32 199.49 35.55 204.65 40.61 C 202.00 39.98 199.35 39.37 196.72 38.70 C 195.02 42.24 193.19 45.72 191.28 49.16 C 192.48 49.63 193.69 50.08 194.91 50.52 C 195.77 46.41 199.78 45.64 203.00 44.50 C 200.28 47.38 195.64 50.60 198.67 54.93 C 196.59 53.45 194.58 51.61 192.02 51.03 C 189.42 51.76 187.26 53.44 185.00 54.82 C 184.82 54.52 184.47 53.92 184.29 53.62 C 186.30 52.28 188.28 50.88 190.23 49.45 C 189.39 49.27 187.73 48.91 186.90 48.73 C 191.02 46.01 193.53 41.66 194.75 36.96 C 188.02 34.39 181.24 36.57 175.16 39.58 C 177.19 42.17 179.48 44.54 181.81 46.87 C 177.34 45.59 174.58 41.90 172.26 38.15 C 176.42 36.78 181.08 36.40 184.73 33.85 C 185.40 31.64 185.44 29.30 185.75 27.02 Z" />
</g>
<g id="#81ac5dff">
<path fill="#81ac5d" opacity="1.00" d=" M 50.71 16.97 C 52.37 15.75 54.05 14.58 55.71 13.36 C 55.71 14.10 55.71 15.59 55.71 16.33 C 55.72 16.86 55.75 17.91 55.76 18.44 C 55.86 21.49 55.95 24.54 56.03 27.60 C 55.15 26.07 54.28 24.53 53.43 22.99 C 52.31 23.37 51.20 23.76 50.08 24.16 L 50.17 23.47 C 50.41 21.31 50.47 19.13 50.71 16.97 Z" />
<path fill="#81ac5d" opacity="1.00" d=" M 106.71 16.94 C 108.37 15.78 110.06 14.66 111.73 13.51 L 111.72 15.06 C 111.73 15.66 111.76 16.85 111.78 17.45 C 111.88 20.38 111.94 23.32 111.94 26.26 L 111.70 27.15 C 110.94 25.77 110.20 24.38 109.48 22.98 C 108.36 23.36 107.24 23.74 106.12 24.14 L 106.20 23.45 C 106.42 21.28 106.47 19.10 106.71 16.94 Z" />
<path fill="#81ac5d" opacity="1.00" d=" M 162.71 16.97 C 164.37 15.75 166.05 14.58 167.71 13.36 C 167.71 14.10 167.71 15.59 167.71 16.33 C 167.72 16.86 167.75 17.91 167.76 18.44 C 167.85 21.49 167.94 24.54 168.03 27.59 C 167.14 26.07 166.28 24.54 165.43 23.00 C 164.33 23.37 163.23 23.75 162.14 24.14 L 162.22 23.45 C 162.43 21.29 162.47 19.13 162.71 16.97 Z" />
<path fill="#81ac5d" opacity="1.00" d=" M 218.72 16.99 C 220.47 15.62 222.26 14.30 224.00 12.92 L 224.00 27.06 C 222.57 25.17 220.60 23.75 218.12 23.87 L 218.21 23.21 C 218.43 21.14 218.48 19.06 218.72 16.99 Z" />
</g>
<g id="#4478cbff">
<path fill="#4478cb" opacity="1.00" d=" M 137.54 15.27 C 138.41 14.13 140.38 15.59 139.46 16.73 C 138.58 17.87 136.62 16.41 137.54 15.27 Z" />
</g>
<g id="#86a0b0fe">
<path fill="#86a0b0" opacity="1.00" d=" M 41.24 16.39 C 41.97 16.25 43.43 15.98 44.17 15.84 C 44.13 17.05 43.99 18.25 43.67 19.42 C 42.71 18.77 41.78 18.03 41.15 17.05 L 41.24 16.39 Z" />
</g>
<g id="#427acbff">
<path fill="#427acb" opacity="1.00" d=" M 55.71 16.33 C 60.12 17.65 64.72 18.86 69.30 17.69 C 68.64 19.98 68.09 22.29 67.67 24.63 C 63.73 26.30 59.93 28.36 55.75 29.40 L 55.77 28.26 L 56.03 27.60 C 59.66 25.77 63.42 24.22 66.92 22.14 C 63.31 20.60 59.57 19.38 55.76 18.44 C 55.75 17.91 55.72 16.86 55.71 16.33 Z" />
<path fill="#427acb" opacity="1.00" d=" M 167.71 16.33 C 172.12 17.65 176.72 18.86 181.30 17.69 C 180.64 19.98 180.08 22.29 179.67 24.63 C 175.73 26.30 171.93 28.36 167.75 29.40 L 167.77 28.26 L 168.03 27.59 C 171.66 25.77 175.42 24.22 178.92 22.14 C 175.31 20.60 171.57 19.38 167.76 18.44 C 167.75 17.91 167.72 16.86 167.71 16.33 Z" />
<path fill="#427acb" opacity="1.00" d=" M 0.00 17.46 C 6.42 20.49 13.36 19.29 20.01 17.89 C 16.94 19.27 13.89 20.67 10.80 22.01 C 11.34 23.55 11.89 25.10 12.44 26.64 C 8.25 27.99 4.10 29.48 0.00 31.10 L 0.00 29.23 C 3.39 27.42 8.61 27.30 10.25 23.29 C 7.11 21.23 3.45 20.23 0.00 18.85 L 0.00 17.46 Z" />
<path fill="#427acb" opacity="1.00" d=" M 2.17 47.95 C 4.07 47.51 5.99 47.10 7.90 46.70 C 6.82 48.02 5.74 49.33 4.69 50.67 C 6.83 52.12 8.99 53.54 11.14 54.98 C 8.10 54.66 5.07 54.31 2.03 53.99 C 2.73 53.28 3.43 52.56 4.13 51.85 C 3.47 50.55 2.82 49.25 2.17 47.95 Z" />
</g>
<g id="#2889d5ff">
<path fill="#2889d5" opacity="1.00" d=" M 42.64 21.16 C 42.05 19.83 41.49 18.47 41.15 17.05 C 41.78 18.03 42.71 18.77 43.67 19.42 C 43.55 19.97 43.30 21.06 43.18 21.61 L 42.64 21.16 Z" />
</g>
<g id="#4279cbff">
<path fill="#4279cb" opacity="1.00" d=" M 22.18 18.66 C 24.77 19.34 27.36 19.99 29.95 20.65 C 27.67 25.61 23.26 28.82 19.09 32.06 C 25.08 35.20 31.22 38.19 36.57 42.40 C 34.17 42.11 31.76 41.81 29.36 41.51 C 27.51 44.49 25.50 47.39 23.69 50.40 C 25.48 50.93 27.27 51.48 29.05 52.03 C 24.79 52.95 20.57 54.10 16.63 56.00 L 15.52 56.00 C 17.71 54.28 19.80 52.43 21.92 50.64 C 21.50 49.17 21.07 47.71 20.64 46.25 C 23.17 44.62 26.01 43.07 27.39 40.25 C 24.95 38.22 21.99 36.63 18.81 36.28 C 15.02 36.16 11.64 38.17 8.35 39.76 C 10.66 42.66 13.13 45.43 15.65 48.15 C 10.25 44.92 6.93 38.53 0.00 38.15 L 0.00 37.99 C 6.28 36.62 13.40 36.93 18.75 32.97 C 18.44 31.12 17.67 29.39 16.94 27.67 C 20.72 27.11 24.41 26.14 28.07 25.06 C 26.25 22.80 24.27 20.68 22.18 18.66 Z" />
</g>
<g id="#3c6abefe">
<path fill="#3c6abe" opacity="1.00" d=" M 55.76 18.44 C 59.57 19.38 63.31 20.60 66.92 22.14 C 63.42 24.22 59.66 25.77 56.03 27.60 C 55.95 24.54 55.86 21.49 55.76 18.44 Z" />
<path fill="#3c6abe" opacity="1.00" d=" M 167.76 18.44 C 171.57 19.38 175.31 20.60 178.92 22.14 C 175.42 24.22 171.66 25.77 168.03 27.59 C 167.94 24.54 167.85 21.49 167.76 18.44 Z" />
</g>
<g id="#3c6abeff">
<path fill="#3c6abe" opacity="1.00" d=" M 0.00 18.85 C 3.45 20.23 7.11 21.23 10.25 23.29 C 8.61 27.30 3.39 27.42 0.00 29.23 L 0.00 18.85 Z" />
</g>
<g id="#adc2d9ff">
<path fill="#adc2d9" opacity="1.00" d=" M 43.59 23.36 L 44.21 22.91 C 44.50 23.20 45.08 23.77 45.38 24.06 L 45.25 24.79 C 44.77 24.84 43.83 24.92 43.36 24.97 C 43.42 24.56 43.53 23.76 43.59 23.36 Z" />
<path fill="#adc2d9" opacity="1.00" d=" M 99.70 23.17 L 100.31 22.71 C 100.60 23.00 101.18 23.60 101.47 23.89 L 101.31 24.63 C 100.86 24.68 99.95 24.78 99.50 24.83 C 99.55 24.41 99.65 23.58 99.70 23.17 Z" />
<path fill="#adc2d9" opacity="1.00" d=" M 211.69 23.18 L 212.29 22.71 C 212.58 23.01 213.16 23.59 213.45 23.89 L 213.30 24.62 C 212.85 24.68 211.95 24.78 211.49 24.84 C 211.54 24.42 211.64 23.59 211.69 23.18 Z" />
</g>
<g id="#6d9a59ff">
<path fill="#6d9a59" opacity="1.00" d=" M 50.08 24.16 C 51.20 23.76 52.31 23.37 53.43 22.99 C 54.28 24.53 55.15 26.07 56.03 27.60 L 55.77 28.26 C 52.20 35.06 55.05 43.19 50.47 49.74 C 48.97 42.65 50.29 35.35 48.76 28.30 C 49.03 28.00 49.57 27.40 49.84 27.10 C 49.72 26.44 49.48 25.11 49.36 24.44 L 50.08 24.16 Z" />
<path fill="#6d9a59" opacity="1.00" d=" M 106.12 24.14 C 107.24 23.74 108.36 23.36 109.48 22.98 C 110.20 24.38 110.94 25.77 111.70 27.15 L 111.50 27.85 C 108.56 34.91 110.94 42.95 106.47 49.59 C 104.94 42.55 106.33 35.27 104.73 28.28 C 105.00 27.99 105.56 27.39 105.84 27.10 C 105.73 26.43 105.52 25.09 105.41 24.42 L 106.12 24.14 Z" />
<path fill="#6d9a59" opacity="1.00" d=" M 162.14 24.14 C 163.23 23.75 164.33 23.37 165.43 23.00 C 166.28 24.54 167.14 26.07 168.03 27.59 L 167.77 28.26 C 164.20 35.06 167.05 43.18 162.47 49.72 C 160.96 42.64 162.33 35.32 160.73 28.29 C 161.01 27.99 161.57 27.40 161.85 27.10 C 161.74 26.43 161.54 25.08 161.44 24.41 L 162.14 24.14 Z" />
</g>
<g id="#6d9b59ff">
<path fill="#6d9b59" opacity="1.00" d=" M 218.12 23.87 C 220.60 23.75 222.57 25.17 224.00 27.06 L 224.00 28.34 C 221.96 27.88 222.25 30.88 224.00 30.92 L 224.00 34.77 C 223.52 33.88 222.56 32.11 222.08 31.22 C 221.70 37.50 222.00 43.98 218.52 49.62 C 216.94 42.55 218.29 35.24 216.76 28.20 C 217.03 27.90 217.57 27.28 217.84 26.97 C 217.73 26.29 217.50 24.93 217.38 24.25 L 218.12 23.87 Z" />
</g>
<g id="#3e7acbff">
<path fill="#3e7acb" opacity="1.00" d=" M 29.41 23.82 C 30.09 24.95 30.75 26.09 31.41 27.24 C 34.71 28.16 38.04 29.27 40.77 31.40 L 40.78 32.42 C 36.92 31.77 33.00 31.51 29.09 31.27 C 29.23 28.79 29.31 26.30 29.41 23.82 Z" />
</g>
<g id="#75634eff">
<path fill="#75634e" opacity="1.00" d=" M 45.38 24.06 C 45.96 24.18 47.12 24.42 47.70 24.53 L 47.45 25.22 L 46.85 25.77 C 46.45 25.53 45.65 25.04 45.25 24.79 L 45.38 24.06 Z" />
<path fill="#75634e" opacity="1.00" d=" M 101.47 23.89 C 102.04 24.03 103.19 24.31 103.77 24.45 L 103.51 25.12 L 102.92 25.65 C 102.52 25.39 101.71 24.88 101.31 24.63 L 101.47 23.89 Z" />
<path fill="#75634e" opacity="1.00" d=" M 157.47 23.86 C 158.06 24.00 159.22 24.28 159.80 24.42 L 159.55 25.09 L 158.97 25.61 C 158.56 25.36 157.75 24.85 157.34 24.60 L 157.47 23.86 Z" />
<path fill="#75634e" opacity="1.00" d=" M 213.45 23.89 C 214.03 24.01 215.18 24.27 215.75 24.39 L 215.51 25.08 L 214.92 25.62 C 214.52 25.37 213.71 24.87 213.30 24.62 L 213.45 23.89 Z" />
</g>
<g id="#416845ff">
<path fill="#416845" opacity="1.00" d=" M 48.47 24.57 L 49.36 24.44 C 49.48 25.11 49.72 26.44 49.84 27.10 C 49.04 26.44 48.59 25.60 48.47 24.57 Z" />
<path fill="#416845" opacity="1.00" d=" M 104.53 24.51 L 105.41 24.42 C 105.52 25.09 105.73 26.43 105.84 27.10 C 105.05 26.41 104.61 25.55 104.53 24.51 Z" />
<path fill="#416845" opacity="1.00" d=" M 160.56 24.50 L 161.44 24.41 C 161.54 25.08 161.74 26.43 161.85 27.10 C 161.06 26.41 160.63 25.54 160.56 24.50 Z" />
<path fill="#416845" opacity="1.00" d=" M 216.51 24.41 L 217.38 24.25 C 217.50 24.93 217.73 26.29 217.84 26.97 C 217.05 26.29 216.61 25.44 216.51 24.41 Z" />
<path fill="#416845" opacity="1.00" d=" M 49.13 56.00 C 48.05 55.09 48.42 53.58 49.10 52.58 C 50.02 53.67 50.86 54.81 51.64 56.00 L 49.13 56.00 Z" />
<path fill="#416845" opacity="1.00" d=" M 105.13 56.00 C 104.05 55.09 104.43 53.59 105.09 52.57 C 106.01 53.66 106.86 54.80 107.64 56.00 L 105.13 56.00 Z" />
<path fill="#416845" opacity="1.00" d=" M 161.13 56.00 C 160.05 55.09 160.42 53.58 161.10 52.57 C 162.01 53.67 162.86 54.81 163.64 56.00 L 161.13 56.00 Z" />
<path fill="#416845" opacity="1.00" d=" M 217.26 56.00 C 216.23 55.26 216.00 53.74 216.86 52.79 C 218.03 53.65 218.89 54.83 219.74 56.00 L 217.26 56.00 Z" />
</g>
<g id="#4379caff">
<path fill="#4379ca" opacity="1.00" d=" M 73.75 27.02 C 77.57 26.09 81.42 25.29 85.27 24.51 C 80.94 25.94 76.35 27.52 73.80 31.62 C 80.04 34.67 87.38 35.76 92.65 40.60 C 90.00 39.98 87.36 39.35 84.72 38.70 C 83.02 42.25 81.19 45.72 79.28 49.16 C 80.48 49.63 81.69 50.08 82.91 50.52 C 83.77 46.40 87.78 45.64 91.00 44.50 C 88.28 47.38 83.64 50.60 86.67 54.93 C 84.59 53.45 82.58 51.61 80.02 51.03 C 77.43 51.76 75.26 53.44 73.00 54.82 C 72.82 54.52 72.47 53.92 72.29 53.62 C 74.30 52.28 76.28 50.88 78.23 49.45 C 77.39 49.27 75.73 48.91 74.90 48.73 C 79.02 46.01 81.53 41.66 82.75 36.96 C 76.02 34.39 69.24 36.57 63.16 39.58 C 65.19 42.17 67.48 44.54 69.81 46.87 C 65.34 45.59 62.58 41.90 60.26 38.15 C 64.42 36.78 69.08 36.40 72.73 33.85 C 73.40 31.64 73.44 29.30 73.75 27.02 Z" />
<path fill="#4379ca" opacity="1.00" d=" M 114.63 37.02 C 119.61 37.45 124.44 35.88 129.33 35.22 C 125.29 37.13 121.15 38.82 117.27 41.05 C 117.38 40.60 117.61 39.70 117.72 39.25 C 116.46 39.06 115.21 38.87 113.96 38.67 C 114.18 38.12 114.40 37.57 114.63 37.02 Z" />
</g>
<g id="#3b6bbefe">
<path fill="#3b6bbe" opacity="1.00" d=" M 43.36 24.97 C 43.83 24.92 44.77 24.84 45.25 24.79 C 45.65 25.04 46.45 25.53 46.85 25.77 C 46.05 27.74 42.95 27.96 42.84 25.45 L 43.36 24.97 Z" />
<path fill="#3b6bbe" opacity="1.00" d=" M 99.50 24.83 C 99.95 24.78 100.86 24.68 101.31 24.63 C 101.71 24.88 102.52 25.39 102.92 25.65 C 102.54 27.94 99.61 28.08 99.43 25.57 L 99.50 24.83 Z" />
<path fill="#3b6bbe" opacity="1.00" d=" M 155.60 24.84 C 156.04 24.78 156.91 24.66 157.34 24.60 C 157.75 24.85 158.56 25.36 158.97 25.61 C 158.78 28.14 155.76 28.08 155.62 25.54 L 155.60 24.84 Z" />
<path fill="#3b6bbe" opacity="1.00" d=" M 211.49 24.84 C 211.95 24.78 212.85 24.68 213.30 24.62 C 213.71 24.87 214.52 25.37 214.92 25.62 C 214.55 27.92 211.62 28.09 211.43 25.58 L 211.49 24.84 Z" />
</g>
<g id="#322e2aff">
<path fill="#322e2a" opacity="1.00" d=" M 46.85 25.77 L 47.45 25.22 C 47.61 25.89 47.93 27.25 48.09 27.93 C 48.25 34.72 47.25 41.45 46.56 48.19 C 45.66 48.10 43.87 47.91 42.97 47.81 C 43.58 45.91 44.20 44.00 44.67 42.05 C 44.77 40.73 44.81 39.41 44.80 38.08 C 44.23 36.20 43.41 34.41 42.46 32.69 C 42.78 32.64 43.40 32.54 43.72 32.48 C 45.05 32.31 46.38 32.15 47.72 32.00 C 46.36 30.50 44.97 29.03 43.66 27.49 C 43.46 26.98 43.05 25.96 42.84 25.45 C 42.95 27.96 46.05 27.74 46.85 25.77 Z" />
<path fill="#322e2a" opacity="1.00" d=" M 102.92 25.65 L 103.51 25.12 C 103.65 25.81 103.93 27.20 104.07 27.89 C 104.27 34.70 103.23 41.45 102.56 48.21 C 101.65 48.10 99.84 47.89 98.93 47.79 C 99.56 45.98 100.23 44.19 100.86 42.38 C 100.87 41.80 100.91 40.63 100.92 40.05 C 100.28 37.61 99.51 35.18 98.37 32.92 C 98.71 32.87 99.39 32.76 99.73 32.70 C 100.82 32.54 101.91 32.39 103.01 32.26 C 103.00 31.24 102.99 30.22 102.98 29.20 C 101.74 28.79 100.49 28.39 99.25 27.99 C 99.29 27.39 99.38 26.18 99.43 25.57 C 99.61 28.08 102.54 27.94 102.92 25.65 Z" />
<path fill="#322e2a" opacity="1.00" d=" M 158.97 25.61 L 159.55 25.09 C 159.68 25.79 159.94 27.19 160.07 27.89 C 160.25 34.70 159.25 41.44 158.56 48.19 C 157.68 48.08 155.92 47.86 155.05 47.74 C 155.56 46.20 156.11 44.68 156.69 43.16 C 157.19 42.10 157.25 41.02 156.87 39.92 C 156.23 37.51 155.49 35.12 154.41 32.86 C 154.74 32.78 155.41 32.62 155.74 32.54 C 157.06 32.30 158.38 32.06 159.70 31.84 C 158.57 30.55 157.39 29.30 156.15 28.12 C 156.02 27.47 155.75 26.19 155.62 25.54 C 155.76 28.08 158.78 28.14 158.97 25.61 Z" />
<path fill="#322e2a" opacity="1.00" d=" M 214.92 25.62 L 215.51 25.08 C 215.66 25.77 215.95 27.14 216.10 27.83 C 216.27 34.67 215.23 41.43 214.56 48.21 C 213.65 48.10 211.83 47.89 210.93 47.79 C 211.56 45.98 212.23 44.19 212.86 42.38 C 212.87 41.80 212.91 40.63 212.92 40.05 C 212.27 37.61 211.51 35.18 210.37 32.92 C 210.71 32.87 211.39 32.76 211.73 32.70 C 212.82 32.54 213.91 32.39 215.01 32.26 C 215.00 31.24 214.99 30.22 214.98 29.20 C 213.74 28.79 212.49 28.39 211.25 27.99 C 211.29 27.39 211.38 26.18 211.43 25.58 C 211.62 28.09 214.55 27.92 214.92 25.62 Z" />
</g>
<g id="#475943ff">
<path fill="#475943" opacity="1.00" d=" M 48.09 27.93 L 48.76 28.30 C 50.29 35.35 48.97 42.65 50.47 49.74 C 49.08 50.19 47.70 50.68 46.28 51.04 C 46.37 50.09 46.46 49.14 46.56 48.19 C 47.25 41.45 48.25 34.72 48.09 27.93 Z" />
<path fill="#475943" opacity="1.00" d=" M 104.07 27.89 L 104.73 28.28 C 106.33 35.27 104.94 42.55 106.47 49.59 C 105.08 50.08 103.69 50.57 102.29 51.00 C 102.37 50.07 102.46 49.14 102.56 48.21 C 103.23 41.45 104.27 34.70 104.07 27.89 Z" />
<path fill="#475943" opacity="1.00" d=" M 160.07 27.89 L 160.73 28.29 C 162.33 35.32 160.96 42.64 162.47 49.72 C 161.07 50.21 159.69 50.71 158.27 51.11 C 158.36 50.14 158.46 49.16 158.56 48.19 C 159.25 41.44 160.25 34.70 160.07 27.89 Z" />
<path fill="#475943" opacity="1.00" d=" M 216.10 27.83 L 216.76 28.20 C 218.29 35.24 216.94 42.55 218.52 49.62 C 217.11 50.09 215.71 50.59 214.29 51.01 C 214.37 50.08 214.46 49.14 214.56 48.21 C 215.23 41.43 216.27 34.67 216.10 27.83 Z" />
</g>
<g id="#85b05fff">
<path fill="#85b05f" opacity="1.00" d=" M 50.47 49.74 C 55.05 43.19 52.20 35.06 55.77 28.26 L 55.75 29.40 C 55.75 36.00 55.95 42.61 55.83 49.22 C 55.03 48.28 52.75 47.55 52.47 49.31 C 52.94 50.71 54.80 50.22 55.81 49.79 C 55.78 50.21 55.72 51.06 55.69 51.48 C 55.31 52.39 54.90 53.30 54.49 54.20 C 54.07 53.04 53.66 51.88 53.25 50.71 C 51.99 51.08 50.72 51.45 49.47 51.86 C 49.72 51.33 50.22 50.27 50.47 49.74 Z" />
<path fill="#85b05f" opacity="1.00" d=" M 106.47 49.59 C 110.94 42.95 108.56 34.91 111.50 27.85 C 111.96 34.96 111.93 42.09 111.86 49.22 C 111.04 48.29 108.76 47.55 108.48 49.31 C 108.96 50.71 110.82 50.21 111.83 49.78 C 111.80 50.21 111.74 51.06 111.71 51.48 C 111.31 52.40 110.90 53.30 110.48 54.20 C 110.07 53.04 109.66 51.88 109.25 50.71 C 107.98 51.09 106.70 51.45 105.43 51.86 C 105.69 51.29 106.21 50.16 106.47 49.59 Z" />
<path fill="#85b05f" opacity="1.00" d=" M 162.47 49.72 C 167.05 43.18 164.20 35.06 167.77 28.26 L 167.75 29.40 C 167.75 36.00 167.95 42.61 167.83 49.22 C 167.03 48.28 164.75 47.55 164.47 49.31 C 164.94 50.71 166.80 50.22 167.81 49.79 C 167.78 50.21 167.72 51.06 167.69 51.48 C 167.31 52.39 166.90 53.30 166.49 54.20 C 166.07 53.04 165.66 51.88 165.25 50.71 C 163.99 51.08 162.72 51.45 161.46 51.85 C 161.72 51.32 162.22 50.26 162.47 49.72 Z" />
</g>
<g id="#565248fe">
<path fill="#565248" opacity="1.00" d=" M 99.25 27.99 C 100.49 28.39 101.74 28.79 102.98 29.20 C 102.99 30.22 103.00 31.24 103.01 32.26 C 101.91 32.39 100.82 32.54 99.73 32.70 C 99.83 31.47 99.69 30.27 99.30 29.08 C 99.29 28.81 99.26 28.27 99.25 27.99 Z" />
<path fill="#565248" opacity="1.00" d=" M 156.15 28.12 C 157.39 29.30 158.57 30.55 159.70 31.84 C 158.38 32.06 157.06 32.30 155.74 32.54 C 155.45 31.91 154.87 30.64 154.58 30.00 C 154.98 29.53 155.76 28.59 156.15 28.12 Z" />
<path fill="#565248" opacity="1.00" d=" M 211.25 27.99 C 212.49 28.39 213.74 28.79 214.98 29.20 C 214.99 30.22 215.00 31.24 215.01 32.26 C 213.91 32.39 212.82 32.54 211.73 32.70 C 211.83 31.47 211.68 30.27 211.30 29.08 C 211.29 28.81 211.26 28.26 211.25 27.99 Z" />
</g>
<g id="#91bc69ff">
<path fill="#91bc69" opacity="1.00" d=" M 224.00 30.92 C 222.25 30.88 221.96 27.88 224.00 28.34 L 224.00 30.92 Z" />
</g>
<g id="#a0b6cbff">
<path fill="#a0b6cb" opacity="1.00" d=" M 41.26 31.02 C 41.85 30.54 43.03 29.59 43.61 29.12 C 43.74 30.24 43.77 31.36 43.72 32.48 C 43.40 32.54 42.78 32.64 42.46 32.69 C 42.17 32.47 41.59 32.02 41.30 31.79 L 41.26 31.02 Z" />
<path fill="#a0b6cb" opacity="1.00" d=" M 97.53 30.78 C 97.97 30.35 98.86 29.50 99.30 29.08 C 99.69 30.27 99.83 31.47 99.73 32.70 C 99.39 32.76 98.71 32.87 98.37 32.92 C 98.16 32.59 97.74 31.93 97.53 31.60 L 97.53 30.78 Z" />
<path fill="#a0b6cb" opacity="1.00" d=" M 209.53 30.78 C 209.97 30.35 210.86 29.50 211.30 29.08 C 211.68 30.27 211.83 31.47 211.73 32.70 C 211.39 32.76 210.71 32.87 210.37 32.92 C 210.16 32.59 209.74 31.93 209.53 31.60 L 209.53 30.78 Z" />
</g>
<g id="#2f8bd3ff">
<path fill="#2f8bd3" opacity="1.00" d=" M 40.77 31.40 L 41.30 31.79 C 41.59 32.02 42.17 32.47 42.46 32.69 C 43.41 34.41 44.23 36.20 44.80 38.08 C 43.89 37.35 42.98 36.62 42.08 35.90 C 42.40 38.19 42.72 40.49 43.05 42.79 C 42.55 43.00 41.54 43.44 41.04 43.66 C 40.48 39.93 40.69 36.16 40.78 32.42 L 40.77 31.40 Z" />
</g>
<g id="#2c8ed7ff">
<path fill="#2c8ed7" opacity="1.00" d=" M 97.46 52.34 C 96.67 45.45 97.63 38.51 97.53 31.60 C 97.74 31.93 98.16 32.59 98.37 32.92 C 99.51 35.18 100.28 37.61 100.92 40.05 C 98.69 39.82 98.37 43.40 100.86 42.38 C 100.23 44.19 99.56 45.98 98.93 47.79 C 98.69 48.46 98.22 49.82 97.98 50.50 C 97.85 50.96 97.59 51.88 97.46 52.34 Z" />
<path fill="#2c8ed7" opacity="1.00" d=" M 209.46 52.34 C 208.67 45.45 209.63 38.51 209.53 31.60 C 209.74 31.93 210.16 32.59 210.37 32.92 C 211.51 35.18 212.27 37.61 212.92 40.05 C 210.69 39.82 210.37 43.40 212.86 42.38 C 212.23 44.19 211.56 45.98 210.93 47.79 C 210.69 48.46 210.22 49.82 209.98 50.49 C 209.85 50.96 209.59 51.88 209.46 52.34 Z" />
</g>
<g id="#288cd6ff">
<path fill="#288cd6" opacity="1.00" d=" M 153.80 56.00 C 152.48 47.94 153.56 39.79 153.64 31.69 C 153.84 31.98 154.22 32.57 154.41 32.86 C 155.49 35.12 156.23 37.51 156.87 39.92 C 155.19 40.26 154.69 42.92 156.69 43.16 C 156.11 44.68 155.56 46.20 155.05 47.74 C 154.76 48.61 154.47 49.47 154.19 50.34 C 153.15 51.65 155.10 53.00 155.95 51.51 C 155.72 53.02 155.43 54.52 155.07 56.00 L 153.80 56.00 Z" />
</g>
<g id="#86b05fff">
<path fill="#86b05f" opacity="1.00" d=" M 218.52 49.62 C 222.00 43.98 221.70 37.50 222.08 31.22 C 222.56 32.11 223.52 33.88 224.00 34.77 L 224.00 49.21 C 223.12 48.36 220.81 47.54 220.51 49.32 C 221.08 50.71 222.94 50.15 224.00 49.73 L 224.00 51.24 C 223.48 52.24 222.93 53.22 222.39 54.20 C 222.01 53.03 221.63 51.86 221.26 50.69 C 219.98 51.09 218.69 51.47 217.42 51.90 C 217.69 51.33 218.25 50.19 218.52 49.62 Z" />
</g>
<g id="#a5bbd1ff">
<path fill="#a5bbd1" opacity="1.00" d=" M 42.08 35.90 C 42.98 36.62 43.89 37.35 44.80 38.08 C 44.81 39.41 44.77 40.73 44.67 42.05 C 44.27 42.24 43.45 42.60 43.05 42.79 C 42.72 40.49 42.40 38.19 42.08 35.90 Z" />
</g>
<g id="#8bb5d9ff">
<path fill="#8bb5d9" opacity="1.00" d=" M 100.92 40.05 C 100.91 40.63 100.87 41.80 100.86 42.38 C 98.37 43.40 98.69 39.82 100.92 40.05 Z" />
<path fill="#8bb5d9" opacity="1.00" d=" M 212.92 40.05 C 212.91 40.63 212.87 41.80 212.86 42.38 C 210.37 43.40 210.69 39.82 212.92 40.05 Z" />
</g>
<g id="#6e9bbbff">
<path fill="#6e9bbb" opacity="1.00" d=" M 156.87 39.92 C 157.25 41.02 157.19 42.10 156.69 43.16 C 154.69 42.92 155.19 40.26 156.87 39.92 Z" />
</g>
<g id="#2a8ed7ff">
<path fill="#2a8ed7" opacity="1.00" d=" M 43.05 42.79 C 43.45 42.60 44.27 42.24 44.67 42.05 C 44.20 44.00 43.58 45.91 42.97 47.81 C 42.74 48.49 42.30 49.86 42.08 50.54 C 41.98 50.97 41.78 51.82 41.69 52.25 C 40.84 50.90 40.00 49.54 39.17 48.18 C 39.80 46.68 40.43 45.17 41.04 43.66 C 41.54 43.44 42.55 43.00 43.05 42.79 Z" />
</g>
<g id="#427bcbff">
<path fill="#427bcb" opacity="1.00" d=" M 34.59 44.36 C 35.37 45.45 36.14 46.55 36.92 47.64 C 34.06 48.52 31.22 49.44 28.41 50.43 C 30.43 48.37 32.55 46.40 34.59 44.36 Z" />
</g>
<g id="#427acafe">
<path fill="#427aca" opacity="1.00" d=" M 130.80 47.59 C 131.74 46.82 132.69 46.05 133.64 45.30 C 135.63 47.13 137.81 48.74 140.00 50.32 C 136.05 50.55 132.27 51.60 128.90 53.66 C 128.75 53.40 128.45 52.89 128.30 52.63 C 130.30 51.28 132.27 49.87 134.22 48.45 C 133.37 48.23 131.65 47.80 130.80 47.59 Z" />
</g>
<g id="#6c5e4cff">
<path fill="#6c5e4c" opacity="1.00" d=" M 42.08 50.54 C 42.30 49.86 42.74 48.49 42.97 47.81 C 43.87 47.91 45.66 48.10 46.56 48.19 C 46.46 49.14 46.37 50.09 46.28 51.04 C 45.86 50.98 45.02 50.87 44.60 50.82 C 43.97 50.75 42.71 50.61 42.08 50.54 Z" />
<path fill="#6c5e4c" opacity="1.00" d=" M 97.98 50.50 C 98.22 49.82 98.69 48.46 98.93 47.79 C 99.84 47.89 101.65 48.10 102.56 48.21 C 102.46 49.14 102.37 50.07 102.29 51.00 C 101.75 51.16 100.66 51.48 100.12 51.64 C 99.59 51.35 98.52 50.78 97.98 50.50 Z" />
<path fill="#6c5e4c" opacity="1.00" d=" M 154.19 50.34 C 154.47 49.47 154.76 48.61 155.05 47.74 C 155.92 47.86 157.68 48.08 158.56 48.19 C 158.46 49.16 158.36 50.14 158.27 51.11 C 157.70 51.01 156.56 50.80 155.99 50.70 C 155.54 50.61 154.64 50.43 154.19 50.34 Z" />
<path fill="#6c5e4c" opacity="1.00" d=" M 209.98 50.49 C 210.22 49.82 210.69 48.46 210.93 47.79 C 211.83 47.89 213.65 48.10 214.56 48.21 C 214.46 49.14 214.37 50.08 214.29 51.01 C 213.75 51.17 212.66 51.48 212.12 51.63 C 211.59 51.35 210.51 50.78 209.98 50.49 Z" />
</g>
<g id="#65955fff">
<path fill="#65955f" opacity="1.00" d=" M 52.47 49.31 C 52.75 47.55 55.03 48.28 55.83 49.22 L 55.81 49.79 C 54.80 50.22 52.94 50.71 52.47 49.31 Z" />
<path fill="#65955f" opacity="1.00" d=" M 108.48 49.31 C 108.76 47.55 111.04 48.29 111.86 49.22 L 111.83 49.78 C 110.82 50.21 108.96 50.71 108.48 49.31 Z" />
<path fill="#65955f" opacity="1.00" d=" M 164.47 49.31 C 164.75 47.55 167.03 48.28 167.83 49.22 L 167.81 49.79 C 166.80 50.22 164.94 50.71 164.47 49.31 Z" />
<path fill="#65955f" opacity="1.00" d=" M 220.51 49.32 C 220.81 47.54 223.12 48.36 224.00 49.21 L 224.00 49.73 C 222.94 50.15 221.08 50.71 220.51 49.32 Z" />
</g>
<g id="#33302bff">
<path fill="#33302b" opacity="1.00" d=" M 46.28 51.04 C 47.70 50.68 49.08 50.19 50.47 49.74 C 50.22 50.27 49.72 51.33 49.47 51.86 C 49.38 52.04 49.19 52.40 49.10 52.58 C 48.42 53.58 48.05 55.09 49.13 56.00 L 42.88 56.00 C 43.46 54.54 43.97 53.05 44.42 51.55 L 44.60 50.82 C 45.02 50.87 45.86 50.98 46.28 51.04 Z" />
<path fill="#33302b" opacity="1.00" d=" M 102.29 51.00 C 103.69 50.57 105.08 50.08 106.47 49.59 C 106.21 50.16 105.69 51.29 105.43 51.86 C 105.35 52.03 105.17 52.39 105.09 52.57 C 104.43 53.59 104.05 55.09 105.13 56.00 L 98.94 56.00 C 99.81 55.01 100.04 53.67 100.06 52.39 L 100.12 51.64 C 100.66 51.48 101.75 51.16 102.29 51.00 Z" />
<path fill="#33302b" opacity="1.00" d=" M 158.27 51.11 C 159.69 50.71 161.07 50.21 162.47 49.72 C 162.22 50.26 161.72 51.32 161.46 51.85 C 161.37 52.03 161.19 52.39 161.10 52.57 C 160.42 53.58 160.05 55.09 161.13 56.00 L 155.07 56.00 C 155.43 54.52 155.72 53.02 155.95 51.51 L 155.99 50.70 C 156.56 50.80 157.70 51.01 158.27 51.11 Z" />
<path fill="#33302b" opacity="1.00" d=" M 214.29 51.01 C 215.71 50.59 217.11 50.09 218.52 49.62 C 218.25 50.19 217.69 51.33 217.42 51.90 C 217.28 52.12 217.00 52.56 216.86 52.79 C 216.00 53.74 216.23 55.26 217.26 56.00 L 210.94 56.00 C 211.80 55.00 212.03 53.67 212.06 52.39 L 212.12 51.63 C 212.66 51.48 213.75 51.17 214.29 51.01 Z" />
</g>
<g id="#9db4c9ff">
<path fill="#9db4c9" opacity="1.00" d=" M 42.08 50.54 C 42.71 50.61 43.97 50.75 44.60 50.82 L 44.42 51.55 C 43.84 51.89 42.68 52.57 42.11 52.90 L 41.69 52.25 C 41.78 51.82 41.98 50.97 42.08 50.54 Z" />
<path fill="#9db4c9" opacity="1.00" d=" M 97.98 50.50 C 98.52 50.78 99.59 51.35 100.12 51.64 L 100.06 52.39 C 99.44 52.57 98.20 52.94 97.58 53.12 L 97.46 52.34 C 97.59 51.88 97.85 50.96 97.98 50.50 Z" />
<path fill="#9db4c9" opacity="1.00" d=" M 209.98 50.49 C 210.51 50.78 211.59 51.35 212.12 51.63 L 212.06 52.39 C 211.44 52.57 210.20 52.94 209.58 53.12 L 209.46 52.34 C 209.59 51.88 209.85 50.96 209.98 50.49 Z" />
</g>
<g id="#719d5aff">
<path fill="#719d5a" opacity="1.00" d=" M 49.47 51.86 C 50.72 51.45 51.99 51.08 53.25 50.71 C 53.66 51.88 54.07 53.04 54.49 54.20 C 54.90 53.30 55.31 52.39 55.69 51.48 C 55.62 52.99 55.56 54.49 55.50 56.00 L 51.64 56.00 C 50.86 54.81 50.02 53.67 49.10 52.58 C 49.19 52.40 49.38 52.04 49.47 51.86 Z" />
<path fill="#719d5a" opacity="1.00" d=" M 105.43 51.86 C 106.70 51.45 107.98 51.09 109.25 50.71 C 109.66 51.88 110.07 53.04 110.48 54.20 C 110.90 53.30 111.31 52.40 111.71 51.48 C 111.62 52.99 111.55 54.49 111.48 56.00 L 107.64 56.00 C 106.86 54.80 106.01 53.66 105.09 52.57 C 105.17 52.39 105.35 52.03 105.43 51.86 Z" />
<path fill="#719d5a" opacity="1.00" d=" M 161.46 51.85 C 162.72 51.45 163.99 51.08 165.25 50.71 C 165.66 51.88 166.07 53.04 166.49 54.20 C 166.90 53.30 167.31 52.39 167.69 51.48 C 167.62 52.99 167.55 54.49 167.50 56.00 L 163.64 56.00 C 162.86 54.81 162.01 53.67 161.10 52.57 C 161.19 52.39 161.37 52.03 161.46 51.85 Z" />
<path fill="#719d5a" opacity="1.00" d=" M 217.42 51.90 C 218.69 51.47 219.98 51.09 221.26 50.69 C 221.63 51.86 222.01 53.03 222.39 54.20 C 222.93 53.22 223.48 52.24 224.00 51.24 L 224.00 56.00 L 219.74 56.00 C 218.89 54.83 218.03 53.65 216.86 52.79 C 217.00 52.56 217.28 52.12 217.42 51.90 Z" />
</g>
</svg>
