<?xml version="1.0" encoding="UTF-8" ?>
<!DOCTYPE svg PUBLIC "-//W3C//DTD SVG 1.1//EN" "http://www.w3.org/Graphics/SVG/1.1/DTD/svg11.dtd">
<svg width="224pt" height="56pt" viewBox="0 0 224 56" version="1.1" xmlns="http://www.w3.org/2000/svg">
<g id="#3d6cbefe">
<path fill="#3d6cbe" opacity="1.00" d=" M 0.00 0.00 L 25.67 0.00 C 26.64 1.13 27.56 2.30 28.50 3.46 C 21.80 3.93 14.66 6.16 8.23 3.22 C 9.30 5.21 10.41 7.17 11.42 9.19 C 7.22 11.16 3.35 13.76 0.00 16.97 L 0.00 0.00 Z" />
</g>
<g id="#407ccbff">
<path fill="#407ccb" opacity="1.00" d=" M 25.67 0.00 L 30.50 0.00 C 36.81 1.63 42.88 4.97 49.58 4.44 C 53.00 3.81 56.08 2.13 59.28 0.85 C 57.58 2.78 56.11 5.08 53.87 6.42 C 47.85 8.02 41.89 6.18 36.26 4.16 C 32.28 1.72 28.46 4.46 24.90 5.97 C 25.49 6.80 26.09 7.63 26.68 8.45 C 22.49 9.03 18.20 8.82 14.07 9.90 C 16.64 8.64 19.06 7.11 21.48 5.61 C 17.38 4.78 13.57 6.55 11.23 9.97 C 11.94 9.95 13.36 9.92 14.07 9.90 C 12.26 10.81 10.50 11.79 8.69 12.69 C 7.19 13.39 5.69 14.11 4.22 14.88 C 2.79 18.26 2.13 21.93 1.71 25.56 C 1.08 24.25 0.52 22.92 0.00 21.56 L 0.00 16.97 C 3.35 13.76 7.22 11.16 11.42 9.19 C 10.41 7.17 9.30 5.21 8.23 3.22 C 14.66 6.16 21.80 3.93 28.50 3.46 C 27.56 2.30 26.64 1.13 25.67 0.00 Z" />
</g>
<g id="#3c6bbeff">
<path fill="#3c6bbe" opacity="1.00" d=" M 30.50 0.00 L 85.29 0.00 C 79.66 5.79 71.14 2.47 64.22 2.24 C 65.30 4.08 66.47 5.87 67.47 7.75 C 60.13 14.25 52.01 19.96 42.05 21.50 C 44.13 25.72 46.86 29.55 49.29 33.56 C 46.75 32.28 44.29 30.83 42.20 28.89 C 38.00 24.33 30.76 26.10 26.38 21.64 C 31.26 20.85 36.20 20.44 41.14 20.60 C 39.04 19.66 36.94 18.71 34.85 17.77 C 36.08 16.60 37.32 15.44 38.55 14.27 C 36.09 12.93 33.59 11.65 31.20 10.19 C 31.18 8.79 31.17 7.40 31.16 6.00 C 29.68 6.83 28.20 7.67 26.68 8.45 C 26.09 7.63 25.49 6.80 24.90 5.97 C 28.46 4.46 32.28 1.72 36.26 4.16 C 41.89 6.18 47.85 8.02 53.87 6.42 C 56.11 5.08 57.58 2.78 59.28 0.85 C 56.08 2.13 53.00 3.81 49.58 4.44 C 42.88 4.97 36.81 1.63 30.50 0.00 M 43.14 10.51 C 43.71 11.53 44.29 12.55 44.86 13.58 C 43.16 14.45 41.44 15.30 39.74 16.16 C 46.02 14.43 53.29 15.17 58.92 11.50 C 53.74 10.35 48.41 10.48 43.14 10.51 M 39.53 12.12 C 39.68 12.44 39.96 13.09 40.10 13.41 C 42.70 14.03 40.95 9.94 39.53 12.12 Z" />
<path fill="#3c6bbe" opacity="1.00" d=" M 93.95 0.00 L 138.26 0.00 C 137.70 0.60 136.58 1.81 136.02 2.41 C 130.85 2.11 125.67 1.88 120.53 1.24 C 121.27 3.31 123.92 5.74 121.88 7.80 C 120.44 9.70 118.75 11.39 117.23 13.22 C 117.09 13.47 116.81 13.96 116.67 14.21 C 116.48 14.53 116.11 15.19 115.93 15.51 C 109.80 16.47 103.93 18.59 97.98 20.26 C 99.79 24.43 102.58 28.04 105.21 31.71 C 103.86 31.89 102.50 32.07 101.14 32.26 L 100.63 31.81 C 99.06 29.95 97.79 27.71 95.72 26.36 C 93.72 25.71 91.59 25.83 89.53 25.64 C 87.81 25.05 86.11 24.43 84.42 23.77 C 85.86 22.11 87.12 20.19 89.02 19.01 C 91.62 18.03 94.48 18.53 97.20 18.49 C 95.49 17.89 93.80 17.26 92.11 16.62 C 93.98 14.59 95.82 12.51 97.87 10.65 C 95.62 10.60 92.61 14.39 90.25 12.30 C 89.21 10.38 89.05 8.16 88.74 6.04 C 85.91 6.75 83.07 7.42 80.21 8.00 C 82.41 5.08 84.61 0.53 88.96 1.00 C 94.14 0.66 97.43 5.57 102.37 5.78 C 105.42 6.07 108.49 6.24 111.55 6.42 C 111.75 5.47 111.95 4.52 112.13 3.57 C 105.87 3.50 99.29 3.75 93.95 0.00 M 99.31 10.75 C 99.40 11.65 99.50 12.54 99.60 13.43 C 98.31 14.00 97.03 14.58 95.75 15.15 C 101.89 12.79 109.42 14.23 114.94 10.40 C 109.78 9.12 104.47 9.99 99.31 10.75 Z" />
<path fill="#3c6bbe" opacity="1.00" d=" M 140.61 0.00 L 151.34 0.00 C 152.72 1.63 153.80 3.57 155.50 4.91 C 159.42 5.88 163.50 6.14 167.50 6.66 C 167.73 5.54 167.95 4.42 168.18 3.30 C 164.90 3.51 161.63 3.73 158.37 3.90 C 157.18 2.59 156.04 1.25 154.79 0.00 L 197.31 0.00 C 192.85 5.06 185.91 2.04 180.38 4.23 C 178.51 5.52 178.03 8.04 176.49 9.67 C 170.77 16.31 161.80 17.12 153.94 19.28 C 156.00 23.49 158.87 27.21 161.33 31.18 C 159.24 31.40 157.14 31.36 155.06 31.11 C 150.33 28.33 145.34 26.04 140.30 23.88 C 141.72 21.76 143.15 19.62 144.88 17.74 C 146.87 15.43 150.22 16.84 152.82 16.83 C 149.60 14.73 146.82 12.05 144.39 9.08 C 143.05 9.13 141.72 9.18 140.39 9.21 C 140.83 8.30 141.27 7.38 141.71 6.46 C 135.53 6.25 129.54 7.62 123.53 8.79 C 124.94 6.89 125.83 3.86 128.57 3.58 C 131.61 3.24 134.53 4.46 137.43 5.19 C 138.52 3.48 139.59 1.75 140.61 0.00 M 158.96 9.60 C 156.10 9.41 154.50 12.18 152.73 13.94 C 158.45 13.22 164.81 9.73 170.12 13.61 C 169.40 12.12 168.77 10.54 167.66 9.29 C 164.77 8.98 161.86 9.68 158.96 9.60 Z" />
<path fill="#3c6bbe" opacity="1.00" d=" M 192.21 8.00 C 194.41 5.08 196.61 0.53 200.96 1.00 C 205.24 0.88 208.32 3.92 212.02 5.38 C 215.97 6.12 220.03 5.94 224.00 6.50 L 224.00 9.38 C 220.50 9.62 216.88 9.50 213.48 10.44 C 211.32 11.72 209.81 13.81 208.04 15.54 C 213.52 15.05 218.46 12.04 224.00 11.94 L 224.00 27.62 C 219.28 27.98 214.32 27.17 212.03 22.62 C 214.75 21.07 217.55 19.64 220.30 18.13 C 216.85 18.82 213.40 19.52 209.96 20.23 C 211.80 24.40 214.58 28.02 217.21 31.71 C 215.85 31.89 214.49 32.07 213.14 32.26 L 212.63 31.81 C 211.06 29.95 209.79 27.71 207.72 26.36 C 205.72 25.71 203.59 25.83 201.53 25.64 C 199.81 25.05 198.10 24.43 196.42 23.77 C 197.86 22.11 199.12 20.19 201.02 19.01 C 203.62 18.03 206.48 18.53 209.20 18.49 C 207.49 17.89 205.80 17.26 204.11 16.62 C 205.98 14.59 207.82 12.51 209.87 10.65 C 207.62 10.60 204.62 14.39 202.25 12.30 C 201.21 10.38 201.05 8.16 200.74 6.04 C 197.91 6.75 195.07 7.42 192.21 8.00 Z" />
<path fill="#3c6bbe" opacity="1.00" d=" M 68.05 7.78 C 70.77 3.96 75.48 3.76 79.55 5.29 C 75.98 7.03 72.04 7.89 68.05 7.78 Z" />
<path fill="#3c6bbe" opacity="1.00" d=" M 180.05 7.78 C 182.77 3.96 187.48 3.76 191.55 5.29 C 187.98 7.03 184.04 7.89 180.05 7.78 Z" />
<path fill="#3c6bbe" opacity="1.00" d=" M 11.23 9.97 C 13.57 6.55 17.38 4.78 21.48 5.61 C 19.06 7.11 16.64 8.64 14.07 9.90 C 13.36 9.92 11.94 9.95 11.23 9.97 Z" />
<path fill="#3c6bbe" opacity="1.00" d=" M 117.40 24.71 C 117.78 24.85 118.54 25.12 118.91 25.25 C 120.20 25.77 121.49 26.29 122.79 26.79 C 124.98 27.79 127.12 28.85 129.31 29.89 C 123.98 29.81 119.23 32.37 116.51 36.97 C 115.64 36.95 114.76 36.94 113.89 36.92 C 116.21 39.80 118.11 43.30 121.42 45.16 C 124.66 45.78 127.98 44.95 131.13 44.18 L 131.79 44.00 C 133.70 43.51 135.62 43.04 137.53 42.57 C 137.15 44.01 136.78 45.46 136.42 46.91 C 139.66 43.76 142.22 39.82 146.22 37.51 L 147.39 37.45 C 145.91 39.74 144.29 41.94 142.46 43.95 C 144.73 43.93 147.00 43.97 149.28 44.04 L 148.81 44.78 C 146.61 46.90 144.23 49.32 141.08 49.80 C 137.98 49.68 135.72 47.25 133.51 45.37 C 132.68 46.08 131.83 46.76 130.96 47.42 C 131.69 47.67 133.14 48.17 133.87 48.41 C 131.95 50.12 130.02 51.82 128.10 53.52 C 132.90 51.09 139.00 49.39 143.35 53.55 L 138.16 54.04 C 138.36 54.53 138.76 55.51 138.95 56.00 L 93.52 56.00 C 92.02 55.67 89.02 55.00 87.52 54.67 C 89.91 54.37 92.31 54.04 94.72 53.84 L 95.49 53.78 C 101.68 53.88 106.44 49.52 110.85 45.77 C 112.20 47.05 113.53 48.34 114.85 49.65 C 115.50 48.16 116.15 46.67 116.80 45.19 C 114.84 45.22 112.88 45.19 110.93 45.17 C 110.94 42.28 111.49 39.29 110.64 36.49 C 109.42 35.06 107.70 34.18 106.19 33.12 C 109.84 30.20 113.52 27.31 117.40 24.71 M 113.51 51.45 C 116.80 51.98 120.12 52.52 123.44 52.88 C 120.47 50.75 116.92 49.49 113.51 51.45 Z" />
<path fill="#3c6bbe" opacity="1.00" d=" M 218.25 33.12 C 220.17 31.40 222.09 29.69 224.00 27.95 L 224.00 39.00 C 222.69 36.51 220.56 34.64 218.25 33.12 Z" />
<path fill="#3c6bbe" opacity="1.00" d=" M 0.00 38.36 C 2.68 39.49 5.40 40.58 7.88 42.12 C 8.18 42.43 8.77 43.05 9.06 43.37 C 10.97 45.37 13.47 46.63 15.87 47.95 C 14.55 46.53 13.21 45.13 11.87 43.73 C 16.04 44.49 20.13 46.00 22.90 49.38 C 20.54 51.63 18.19 53.90 15.69 56.00 L 0.00 56.00 L 0.00 38.36 M 2.80 47.79 C 3.14 49.94 3.12 52.12 2.87 54.28 C 5.63 54.50 8.38 54.75 11.14 54.98 C 9.01 53.54 6.86 52.15 4.75 50.69 C 5.76 49.32 6.83 47.98 7.89 46.63 C 6.19 47.01 4.49 47.39 2.80 47.79 Z" />
<path fill="#3c6bbe" opacity="1.00" d=" M 78.76 48.81 C 82.45 45.35 86.22 41.98 90.01 38.64 C 90.33 39.87 90.68 41.10 91.03 42.33 C 88.18 43.52 85.34 44.74 82.64 46.25 C 83.50 46.54 85.20 47.13 86.05 47.42 C 84.94 48.58 83.85 49.76 82.78 50.96 C 81.46 50.21 80.12 49.49 78.76 48.81 Z" />
<path fill="#3c6bbe" opacity="1.00" d=" M 190.76 48.81 C 194.45 45.35 198.22 41.98 202.01 38.64 C 202.33 39.87 202.67 41.10 203.03 42.33 C 200.18 43.52 197.34 44.74 194.64 46.25 C 195.50 46.54 197.20 47.13 198.05 47.42 C 196.94 48.58 195.84 49.76 194.78 50.96 C 193.46 50.21 192.11 49.49 190.76 48.81 Z" />
</g>
<g id="#417ccbff">
<path fill="#417ccb" opacity="1.00" d=" M 85.29 0.00 L 93.95 0.00 C 99.29 3.75 105.87 3.50 112.13 3.57 C 111.95 4.52 111.75 5.47 111.55 6.42 C 108.49 6.24 105.42 6.07 102.37 5.78 C 97.43 5.57 94.14 0.66 88.96 1.00 C 84.61 0.53 82.41 5.08 80.21 8.00 C 83.07 7.42 85.91 6.75 88.74 6.04 C 89.05 8.16 89.21 10.38 90.25 12.30 C 92.61 14.39 95.62 10.60 97.87 10.65 C 95.82 12.51 93.98 14.59 92.11 16.62 C 93.80 17.26 95.49 17.89 97.20 18.49 C 94.48 18.53 91.62 18.03 89.02 19.01 C 87.12 20.19 85.86 22.11 84.42 23.77 C 83.12 23.24 81.84 22.68 80.57 22.08 C 80.22 21.76 79.52 21.14 79.17 20.83 C 81.59 18.17 84.38 15.90 87.20 13.67 C 84.14 11.11 80.73 8.25 76.44 8.74 C 75.70 8.90 74.97 9.10 74.24 9.31 C 69.59 11.52 60.94 10.42 59.93 16.87 C 59.33 19.84 58.96 22.86 58.32 25.82 C 57.42 23.71 56.43 21.63 55.48 19.54 C 52.07 20.62 47.70 20.41 45.07 23.25 C 44.60 29.79 53.70 28.95 57.97 27.46 C 59.68 26.89 61.38 26.25 63.07 25.60 C 64.30 26.00 65.54 26.40 66.78 26.79 C 69.03 27.78 71.26 28.81 73.47 29.88 C 69.19 32.65 64.88 35.39 60.59 38.15 C 63.31 40.17 66.04 42.17 68.73 44.22 C 69.91 45.37 71.02 46.56 72.14 47.76 C 65.77 46.02 61.33 41.01 56.37 37.01 C 59.79 34.24 63.41 31.73 67.21 29.52 C 60.82 28.39 53.78 29.01 49.26 34.17 C 50.89 34.35 52.52 34.52 54.15 34.68 C 54.60 36.17 55.03 37.66 55.40 39.17 C 55.17 39.11 54.71 38.99 54.47 38.93 C 53.66 38.66 52.86 38.37 52.06 38.07 C 51.75 37.94 51.13 37.68 50.82 37.56 C 47.43 35.18 44.35 32.39 40.93 30.07 C 37.54 27.13 32.76 27.21 28.58 26.41 C 26.60 24.29 24.59 22.20 22.64 20.06 C 26.26 18.57 29.94 17.20 33.53 15.63 C 31.26 13.77 28.96 11.93 26.74 10.02 C 28.24 10.66 29.74 11.32 31.24 11.99 C 31.23 11.54 31.21 10.64 31.20 10.19 C 33.59 11.65 36.09 12.93 38.55 14.27 C 37.32 15.44 36.08 16.60 34.85 17.77 C 36.94 18.71 39.04 19.66 41.14 20.60 C 36.20 20.44 31.26 20.85 26.38 21.64 C 30.76 26.10 38.00 24.33 42.20 28.89 C 44.29 30.83 46.75 32.28 49.29 33.56 C 46.86 29.55 44.13 25.72 42.05 21.50 C 52.01 19.96 60.13 14.25 67.47 7.75 C 66.47 5.87 65.30 4.08 64.22 2.24 C 71.14 2.47 79.66 5.79 85.29 0.00 M 68.05 7.78 C 72.04 7.89 75.98 7.03 79.55 5.29 C 75.48 3.76 70.77 3.96 68.05 7.78 Z" />
</g>
<g id="#407ac9ff">
<path fill="#407ac9" opacity="1.00" d=" M 138.26 0.00 L 140.61 0.00 C 139.59 1.75 138.52 3.48 137.43 5.19 C 134.53 4.46 131.61 3.24 128.57 3.58 C 125.83 3.86 124.94 6.89 123.53 8.79 C 129.54 7.62 135.53 6.25 141.71 6.46 C 141.27 7.38 140.83 8.30 140.39 9.21 C 141.72 9.18 143.05 9.13 144.39 9.08 C 146.82 12.05 149.60 14.73 152.82 16.83 C 150.22 16.84 146.87 15.43 144.88 17.74 C 143.15 19.62 141.72 21.76 140.30 23.88 C 139.03 23.30 137.77 22.71 136.53 22.06 C 136.20 21.75 135.52 21.14 135.18 20.83 C 137.60 18.17 140.39 15.88 143.21 13.67 C 140.18 11.34 137.04 8.35 132.92 8.55 C 127.45 9.05 122.40 11.52 117.23 13.22 C 118.75 11.39 120.44 9.70 121.88 7.80 C 123.92 5.74 121.27 3.31 120.53 1.24 C 125.67 1.88 130.85 2.11 136.02 2.41 C 136.58 1.81 137.70 0.60 138.26 0.00 Z" />
</g>
<g id="#4079ccff">
<path fill="#4079cc" opacity="1.00" d=" M 151.34 0.00 L 154.79 0.00 C 156.04 1.25 157.18 2.59 158.37 3.90 C 161.63 3.73 164.90 3.51 168.18 3.30 C 167.95 4.42 167.73 5.54 167.50 6.66 C 163.50 6.14 159.42 5.88 155.50 4.91 C 153.80 3.57 152.72 1.63 151.34 0.00 Z" />
</g>
<g id="#417acbff">
<path fill="#417acb" opacity="1.00" d=" M 197.31 0.00 L 205.96 0.00 C 211.25 3.77 217.77 3.54 224.00 3.60 L 224.00 6.50 C 220.03 5.94 215.97 6.12 212.02 5.38 C 208.32 3.92 205.24 0.88 200.96 1.00 C 196.61 0.53 194.41 5.08 192.21 8.00 C 195.07 7.42 197.91 6.75 200.74 6.04 C 201.05 8.16 201.21 10.38 202.25 12.30 C 204.62 14.39 207.62 10.60 209.87 10.65 C 207.82 12.51 205.98 14.59 204.11 16.62 C 205.80 17.26 207.49 17.89 209.20 18.49 C 206.48 18.53 203.62 18.03 201.02 19.01 C 199.12 20.19 197.86 22.11 196.42 23.77 C 195.12 23.24 193.84 22.68 192.57 22.08 C 192.22 21.76 191.52 21.14 191.17 20.83 C 193.59 18.17 196.38 15.90 199.20 13.67 C 196.14 11.11 192.73 8.25 188.44 8.74 C 187.70 8.90 186.97 9.10 186.24 9.31 C 181.70 11.49 173.66 10.41 172.03 16.25 C 171.23 19.39 170.81 22.62 170.22 25.80 C 169.29 23.06 168.25 20.36 167.26 17.64 C 163.95 18.70 159.61 18.41 157.10 21.26 C 156.92 22.56 156.73 24.13 158.19 24.76 C 161.68 27.00 166.05 26.89 170.05 27.25 C 171.79 26.82 173.48 26.24 175.17 25.66 C 176.38 26.04 177.58 26.42 178.79 26.79 C 181.03 27.78 183.25 28.81 185.47 29.88 C 181.19 32.66 176.88 35.39 172.59 38.15 C 175.31 40.17 178.04 42.17 180.73 44.22 C 181.90 45.36 183.02 46.56 184.14 47.76 C 177.77 46.02 173.33 41.01 168.38 37.01 C 171.73 34.24 175.31 31.75 179.16 29.70 C 174.03 29.99 167.80 26.91 163.15 30.16 C 159.98 33.08 164.16 36.13 166.23 38.09 C 165.61 40.05 165.05 42.03 164.39 43.97 C 165.50 43.90 166.61 43.82 167.73 43.76 C 161.37 48.24 156.43 54.95 148.10 56.00 L 138.95 56.00 C 138.76 55.51 138.36 54.53 138.16 54.04 L 143.35 53.55 C 139.00 49.39 132.90 51.09 128.10 53.52 C 130.02 51.82 131.95 50.12 133.87 48.41 C 133.14 48.17 131.69 47.67 130.96 47.42 C 131.83 46.76 132.68 46.08 133.51 45.37 C 135.72 47.25 137.98 49.68 141.08 49.80 C 144.23 49.32 146.61 46.90 148.81 44.78 C 147.20 47.49 145.22 49.95 143.27 52.41 C 147.67 52.59 152.22 52.74 156.48 51.47 C 160.06 48.34 162.69 44.31 164.91 40.15 C 161.90 36.86 158.87 33.51 155.06 31.11 C 157.14 31.36 159.24 31.40 161.33 31.18 C 158.87 27.21 156.00 23.49 153.94 19.28 C 161.80 17.12 170.77 16.31 176.49 9.67 C 178.03 8.04 178.51 5.52 180.38 4.23 C 185.91 2.04 192.85 5.06 197.31 0.00 M 180.05 7.78 C 184.04 7.89 187.98 7.03 191.55 5.29 C 187.48 3.76 182.77 3.96 180.05 7.78 Z" />
</g>
<g id="#3c6abefe">
<path fill="#3c6abe" opacity="1.00" d=" M 205.96 0.00 L 224.00 0.00 L 224.00 3.60 C 217.77 3.54 211.25 3.77 205.96 0.00 Z" />
</g>
<g id="#2590d6ff">
<path fill="#2590d6" opacity="1.00" d=" M 26.68 8.45 C 28.20 7.67 29.68 6.83 31.16 6.00 C 31.17 7.40 31.18 8.79 31.20 10.19 C 31.21 10.64 31.23 11.54 31.24 11.99 C 29.74 11.32 28.24 10.66 26.74 10.02 C 28.96 11.93 31.26 13.77 33.53 15.63 C 29.94 17.20 26.26 18.57 22.64 20.06 C 24.61 17.88 26.60 15.71 28.56 13.52 C 27.17 12.64 25.79 11.75 24.37 10.93 C 19.37 10.99 14.35 11.35 9.47 12.50 L 8.69 12.69 C 10.50 11.79 12.26 10.81 14.07 9.90 C 18.20 8.82 22.49 9.03 26.68 8.45 Z" />
<path fill="#2590d6" opacity="1.00" d=" M 136.53 22.06 C 137.77 22.71 139.03 23.30 140.30 23.88 C 145.34 26.04 150.33 28.33 155.06 31.11 C 158.87 33.51 161.90 36.86 164.91 40.15 C 161.99 38.11 159.12 36.03 156.18 34.03 C 154.17 32.70 152.17 31.35 149.99 30.30 C 146.29 28.51 142.47 26.98 138.68 25.40 L 138.10 25.07 C 137.59 24.06 137.07 23.05 136.53 22.06 Z" />
</g>
<g id="#268ed7ff">
<path fill="#268ed7" opacity="1.00" d=" M 76.44 8.74 C 80.73 8.25 84.14 11.11 87.20 13.67 C 84.38 15.90 81.59 18.17 79.17 20.83 C 78.85 21.19 78.20 21.90 77.87 22.26 C 77.57 21.94 76.98 21.30 76.68 20.98 C 78.53 17.81 80.57 14.77 82.43 11.62 C 81.70 11.41 80.25 10.99 79.52 10.79 L 78.66 10.54 C 78.11 10.09 77.00 9.19 76.44 8.74 Z" />
<path fill="#268ed7" opacity="1.00" d=" M 188.44 8.74 C 192.73 8.25 196.14 11.11 199.20 13.67 C 196.38 15.90 193.59 18.17 191.17 20.83 C 190.85 21.19 190.20 21.90 189.87 22.26 C 189.57 21.94 188.98 21.30 188.68 20.98 C 190.52 17.81 192.57 14.77 194.43 11.62 C 193.70 11.41 192.25 10.99 191.52 10.79 L 190.66 10.54 C 190.11 10.09 189.00 9.19 188.44 8.74 Z" />
</g>
<g id="#2393d3ff">
<path fill="#2393d3" opacity="1.00" d=" M 117.23 13.22 C 122.40 11.52 127.45 9.05 132.92 8.55 C 137.04 8.35 140.18 11.34 143.21 13.67 C 140.39 15.88 137.60 18.17 135.18 20.83 C 134.86 21.19 134.22 21.90 133.91 22.26 C 133.65 22.02 133.13 21.54 132.87 21.31 C 134.76 17.81 136.79 14.39 138.53 10.81 C 136.99 10.82 135.44 10.77 133.90 10.82 C 129.48 11.57 125.15 12.72 120.80 13.75 C 119.51 13.88 118.75 14.56 118.51 15.79 C 118.39 16.25 118.14 17.17 118.02 17.62 C 117.55 16.49 117.09 15.36 116.67 14.21 C 116.81 13.96 117.09 13.47 117.23 13.22 Z" />
</g>
<g id="#407accff">
<path fill="#407acc" opacity="1.00" d=" M 158.96 9.60 C 161.86 9.68 164.77 8.98 167.66 9.29 C 168.77 10.54 169.40 12.12 170.12 13.61 C 164.81 9.73 158.45 13.22 152.73 13.94 C 154.50 12.18 156.10 9.41 158.96 9.60 Z" />
</g>
<g id="#278fd5ff">
<path fill="#278fd5" opacity="1.00" d=" M 59.93 16.87 C 60.94 10.42 69.59 11.52 74.24 9.31 C 72.76 10.19 71.32 11.14 69.84 12.02 C 67.81 12.98 65.77 13.91 63.71 14.79 C 61.20 15.24 60.13 17.88 61.27 20.07 L 61.44 20.70 C 61.93 22.35 62.51 23.97 63.07 25.60 C 61.38 26.25 59.68 26.89 57.97 27.46 C 58.06 27.05 58.23 26.23 58.32 25.82 C 58.96 22.86 59.33 19.84 59.93 16.87 Z" />
<path fill="#278fd5" opacity="1.00" d=" M 172.03 16.25 C 173.66 10.41 181.70 11.49 186.24 9.31 C 184.76 10.19 183.32 11.14 181.84 12.02 C 179.81 12.98 177.77 13.91 175.70 14.79 C 173.20 15.24 172.11 17.88 173.27 20.07 L 173.43 20.70 C 173.95 22.37 174.57 24.01 175.17 25.66 C 173.48 26.24 171.79 26.82 170.05 27.25 C 170.09 26.89 170.18 26.16 170.22 25.80 C 170.81 22.62 171.23 19.39 172.03 16.25 Z" />
</g>
<g id="#1aa8c2ff">
<path fill="#1aa8c2" opacity="1.00" d=" M 74.24 9.31 C 74.97 9.10 75.70 8.90 76.44 8.74 C 77.00 9.19 78.11 10.09 78.66 10.54 C 75.70 10.89 72.76 11.39 69.84 12.02 C 71.32 11.14 72.76 10.19 74.24 9.31 Z" />
<path fill="#1aa8c2" opacity="1.00" d=" M 186.24 9.31 C 186.97 9.10 187.70 8.90 188.44 8.74 C 189.00 9.19 190.11 10.09 190.66 10.54 C 187.70 10.89 184.76 11.39 181.84 12.02 C 183.32 11.14 184.76 10.19 186.24 9.31 Z" />
<path fill="#1aa8c2" opacity="1.00" d=" M 133.90 10.82 C 135.44 10.77 136.99 10.82 138.53 10.81 C 136.79 14.39 134.76 17.81 132.87 21.31 C 130.33 22.10 127.67 22.49 125.08 23.04 C 127.75 18.77 131.54 15.30 133.90 10.82 M 128.10 19.08 C 126.38 19.49 126.91 22.52 128.75 21.76 C 130.40 21.31 129.94 18.34 128.10 19.08 Z" />
<path fill="#1aa8c2" opacity="1.00" d=" M 35.44 37.13 C 37.23 37.49 39.04 37.78 40.84 38.10 L 42.40 38.42 C 42.44 39.23 42.49 40.03 42.53 40.84 C 41.14 40.30 39.75 39.80 38.38 39.22 C 37.96 39.00 37.13 38.57 36.71 38.35 L 36.14 37.80 L 35.44 37.13 Z" />
</g>
<g id="#427bcbff">
<path fill="#427bcb" opacity="1.00" d=" M 99.31 10.75 C 104.47 9.99 109.78 9.12 114.94 10.40 C 109.42 14.23 101.89 12.79 95.75 15.15 C 97.03 14.58 98.31 14.00 99.60 13.43 C 99.50 12.54 99.40 11.65 99.31 10.75 Z" />
<path fill="#427bcb" opacity="1.00" d=" M 213.48 10.44 C 216.88 9.50 220.50 9.62 224.00 9.38 L 224.00 11.94 C 218.46 12.04 213.52 15.05 208.04 15.54 C 209.81 13.81 211.32 11.72 213.48 10.44 Z" />
</g>
<g id="#437bccff">
<path fill="#437bcc" opacity="1.00" d=" M 43.14 10.51 C 48.41 10.48 53.74 10.35 58.92 11.50 C 53.29 15.17 46.02 14.43 39.74 16.16 C 41.44 15.30 43.16 14.45 44.86 13.58 C 44.29 12.55 43.71 11.53 43.14 10.51 Z" />
</g>
<g id="#3fcdbeff">
<path fill="#3fcdbe" opacity="1.00" d=" M 9.47 12.50 C 14.35 11.35 19.37 10.99 24.37 10.93 C 23.45 15.47 21.32 19.69 17.96 22.91 C 16.99 23.92 16.00 24.91 15.01 25.90 C 19.21 26.67 23.35 27.73 27.55 28.51 C 27.43 28.02 27.19 27.03 27.06 26.53 L 26.88 25.77 C 27.30 25.93 28.15 26.25 28.58 26.41 C 30.11 27.01 31.65 27.61 33.18 28.22 C 32.32 29.29 31.46 30.36 30.61 31.43 C 33.01 33.17 35.39 34.95 37.90 36.54 C 38.86 37.09 39.84 37.61 40.84 38.10 C 39.04 37.78 37.23 37.49 35.44 37.13 C 35.13 36.96 34.53 36.61 34.22 36.44 C 33.14 35.80 32.06 35.14 30.97 34.51 C 29.48 35.05 27.99 35.61 26.48 36.12 C 25.83 36.02 24.54 35.81 23.89 35.71 C 23.08 33.19 22.62 30.16 20.52 28.35 C 15.78 26.35 10.64 25.46 5.71 24.04 C 7.10 22.32 8.45 20.57 9.90 18.91 C 10.15 18.70 10.65 18.27 10.90 18.06 C 12.95 17.87 15.00 17.80 17.05 17.64 C 19.97 16.93 21.38 14.12 22.82 11.78 C 16.90 12.63 10.58 13.78 6.84 18.92 C 6.12 19.70 5.41 20.49 4.69 21.27 C 6.16 18.28 7.66 15.30 9.47 12.50 M 9.58 23.18 C 12.69 22.83 15.40 21.26 17.40 18.89 C 14.71 20.17 12.15 21.69 9.58 23.18 M 25.61 32.34 C 24.40 34.77 29.77 34.34 29.12 32.18 C 28.21 31.22 26.48 31.45 25.61 32.34 Z" />
</g>
<g id="#1fadc1ff">
<path fill="#1fadc1" opacity="1.00" d=" M 24.37 10.93 C 25.79 11.75 27.17 12.64 28.56 13.52 C 26.60 15.71 24.61 17.88 22.64 20.06 C 24.59 22.20 26.60 24.29 28.58 26.41 C 28.15 26.25 27.30 25.93 26.88 25.77 C 26.47 25.63 25.66 25.35 25.25 25.21 C 22.80 24.50 20.39 23.70 17.96 22.91 C 21.32 19.69 23.45 15.47 24.37 10.93 Z" />
</g>
<g id="#41cebdff">
<path fill="#41cebd" opacity="1.00" d=" M 69.84 12.02 C 72.76 11.39 75.70 10.89 78.66 10.54 L 79.52 10.79 C 77.43 14.58 75.34 18.37 73.02 22.03 C 73.59 22.34 74.73 22.98 75.30 23.29 C 75.76 22.52 76.22 21.75 76.68 20.98 C 76.98 21.30 77.57 21.94 77.87 22.26 C 79.48 23.39 81.23 24.29 82.94 25.25 C 84.70 26.63 86.31 28.18 87.79 29.85 C 90.45 33.39 93.76 36.68 98.32 37.48 C 96.40 34.86 94.32 32.36 92.13 29.97 C 92.58 30.00 93.48 30.08 93.92 30.11 C 96.13 31.22 98.17 32.63 100.21 34.00 C 99.98 35.57 99.74 37.14 99.49 38.71 C 97.64 38.47 95.79 38.22 93.95 37.88 C 92.82 37.42 91.70 36.93 90.58 36.44 C 89.55 35.30 88.53 34.15 87.50 33.02 C 86.71 33.61 85.93 34.20 85.16 34.80 C 84.82 35.07 84.14 35.59 83.80 35.86 C 83.13 35.51 81.78 34.81 81.11 34.46 C 79.59 26.28 69.31 25.91 63.07 23.29 C 64.06 21.82 65.04 20.34 66.01 18.87 C 70.65 18.49 75.05 16.53 77.99 12.84 C 71.80 11.56 67.10 15.32 63.05 19.24 C 62.51 19.72 61.97 20.21 61.44 20.70 L 61.27 20.07 C 62.31 18.43 63.33 16.73 63.71 14.79 C 65.77 13.91 67.81 12.98 69.84 12.02 M 72.41 24.09 C 75.36 26.08 78.83 27.06 82.44 26.93 C 79.20 25.65 75.86 24.58 72.41 24.09 M 81.61 32.34 C 80.40 34.77 85.77 34.34 85.12 32.18 C 84.21 31.22 82.48 31.45 81.61 32.34 Z" />
<path fill="#41cebd" opacity="1.00" d=" M 181.84 12.02 C 184.76 11.39 187.70 10.89 190.66 10.54 L 191.52 10.79 C 189.43 14.58 187.34 18.37 185.02 22.03 C 185.59 22.34 186.73 22.98 187.30 23.29 C 187.76 22.52 188.22 21.75 188.68 20.98 C 188.98 21.30 189.57 21.94 189.87 22.26 C 191.48 23.39 193.23 24.29 194.94 25.25 C 196.69 26.63 198.31 28.18 199.79 29.85 C 202.45 33.39 205.76 36.68 210.32 37.48 C 208.40 34.86 206.32 32.36 204.13 29.97 C 204.58 30.00 205.48 30.08 205.92 30.11 C 208.13 31.22 210.16 32.63 212.21 34.00 C 211.97 35.57 211.73 37.14 211.49 38.71 C 209.64 38.47 207.79 38.22 205.95 37.88 C 204.82 37.42 203.70 36.93 202.58 36.44 C 201.54 35.30 200.53 34.15 199.50 33.02 C 198.71 33.61 197.93 34.20 197.16 34.80 C 196.82 35.07 196.14 35.59 195.80 35.86 C 195.13 35.51 193.78 34.81 193.11 34.46 C 191.59 26.28 181.31 25.91 175.07 23.29 C 176.06 21.82 177.04 20.34 178.01 18.87 C 182.65 18.49 187.05 16.53 189.99 12.84 C 183.80 11.56 179.10 15.32 175.05 19.24 C 174.51 19.72 173.97 20.21 173.43 20.70 L 173.27 20.07 C 174.31 18.43 175.32 16.73 175.70 14.79 C 177.77 13.91 179.81 12.98 181.84 12.02 M 184.41 24.09 C 187.36 26.08 190.83 27.06 194.44 26.93 C 191.20 25.65 187.86 24.58 184.41 24.09 M 193.61 32.34 C 192.40 34.77 197.77 34.34 197.12 32.18 C 196.21 31.22 194.48 31.45 193.61 32.34 Z" />
</g>
<g id="#1aa8c1ff">
<path fill="#1aa8c1" opacity="1.00" d=" M 79.52 10.79 C 80.25 10.99 81.70 11.41 82.43 11.62 C 80.57 14.77 78.53 17.81 76.68 20.98 C 76.22 21.75 75.76 22.52 75.30 23.29 C 74.73 22.98 73.59 22.34 73.02 22.03 C 75.34 18.37 77.43 14.58 79.52 10.79 Z" />
<path fill="#1aa8c1" opacity="1.00" d=" M 191.52 10.79 C 192.25 10.99 193.70 11.41 194.43 11.62 C 192.57 14.77 190.52 17.81 188.68 20.98 C 188.22 21.75 187.76 22.52 187.30 23.29 C 186.73 22.98 185.59 22.34 185.02 22.03 C 187.34 18.37 189.43 14.58 191.52 10.79 Z" />
<path fill="#1aa8c1" opacity="1.00" d=" M 48.51 44.64 L 49.07 44.91 C 50.09 45.44 51.11 45.97 52.12 46.51 L 51.75 47.06 C 47.85 49.40 43.75 51.40 39.61 53.28 C 36.69 53.30 33.79 52.94 30.89 52.68 C 30.75 52.29 30.45 51.51 30.31 51.12 C 30.82 51.06 31.84 50.93 32.35 50.86 C 34.95 50.74 37.57 50.81 40.16 50.52 L 40.82 50.09 C 42.62 48.93 44.37 47.71 46.09 46.44 C 46.90 45.85 47.70 45.24 48.51 44.64 Z" />
</g>
<g id="#40cebdff">
<path fill="#40cebd" opacity="1.00" d=" M 120.80 13.75 C 125.15 12.72 129.48 11.57 133.90 10.82 C 131.54 15.30 127.75 18.77 125.08 23.04 C 127.67 22.49 130.33 22.10 132.87 21.31 C 133.13 21.54 133.65 22.02 133.91 22.26 C 135.23 23.30 136.64 24.21 138.10 25.07 L 138.68 25.40 C 142.14 27.67 146.01 29.18 149.99 30.30 C 152.17 31.35 154.17 32.70 156.18 34.03 C 155.94 35.71 155.70 37.38 155.46 39.06 C 150.94 37.90 146.51 36.29 142.93 33.23 C 141.66 33.99 140.39 34.75 139.13 35.51 C 138.68 35.24 137.79 34.69 137.34 34.42 C 135.39 27.51 127.45 25.85 121.78 22.98 C 122.36 21.21 122.96 19.44 123.55 17.68 C 126.19 16.21 128.82 14.71 131.38 13.10 C 127.94 14.02 124.53 15.01 121.12 15.99 C 121.72 16.67 122.32 17.35 122.92 18.03 C 121.13 19.00 119.33 19.98 117.53 20.96 L 117.35 20.31 C 117.56 19.41 117.78 18.51 118.02 17.62 C 118.14 17.17 118.39 16.25 118.51 15.79 C 120.04 15.97 120.80 15.29 120.80 13.75 M 129.32 23.75 C 130.88 25.68 133.18 26.52 135.54 27.03 C 133.60 25.69 131.50 24.63 129.32 23.75 M 144.72 30.60 C 146.83 33.66 149.87 35.91 153.33 37.24 C 150.88 34.53 148.08 32.10 144.72 30.60 Z" />
</g>
<g id="#a2e1a4fe">
<path fill="#a2e1a4" opacity="1.00" d=" M 6.84 18.92 C 10.58 13.78 16.90 12.63 22.82 11.78 C 21.38 14.12 19.97 16.93 17.05 17.64 C 17.72 16.19 18.39 14.74 19.04 13.29 C 16.17 14.57 13.30 15.98 10.90 18.06 C 10.65 18.27 10.15 18.70 9.90 18.91 C 9.13 18.91 7.60 18.91 6.84 18.92 Z" />
</g>
<g id="#4575cbff">
<path fill="#4575cb" opacity="1.00" d=" M 39.53 12.12 C 40.95 9.94 42.70 14.03 40.10 13.41 C 39.96 13.09 39.68 12.44 39.53 12.12 Z" />
<path fill="#4575cb" opacity="1.00" d=" M 114.59 21.00 C 114.94 20.79 115.63 20.36 115.97 20.15 C 115.97 20.86 115.95 22.29 115.94 23.00 C 115.60 22.50 114.93 21.50 114.59 21.00 Z" />
</g>
<g id="#1ca4c6ff">
<path fill="#1ca4c6" opacity="1.00" d=" M 4.22 14.88 C 5.69 14.11 7.19 13.39 8.69 12.69 L 9.47 12.50 C 7.66 15.30 6.16 18.28 4.69 21.27 C 5.41 20.49 6.12 19.70 6.84 18.92 C 7.60 18.91 9.13 18.91 9.90 18.91 C 8.45 20.57 7.10 22.32 5.71 24.04 C 10.64 25.46 15.78 26.35 20.52 28.35 C 22.62 30.16 23.08 33.19 23.89 35.71 L 22.85 35.58 C 19.41 35.21 15.90 35.52 12.57 36.46 L 11.78 36.66 C 10.63 37.83 9.50 39.03 8.37 40.23 C 9.31 40.50 11.19 41.06 12.13 41.34 L 12.96 41.58 C 14.14 42.63 16.85 42.66 16.54 40.50 C 17.19 40.88 18.50 41.63 19.15 42.01 C 18.57 42.33 17.40 42.98 16.81 43.30 C 14.24 43.56 11.65 43.36 9.06 43.37 C 8.77 43.05 8.18 42.43 7.88 42.12 C 6.85 40.59 5.89 39.01 4.90 37.46 C 9.03 36.15 13.14 34.75 17.27 33.41 C 15.92 33.29 13.22 33.05 11.87 32.93 C 14.26 31.91 16.67 30.95 19.10 30.05 C 14.52 28.27 9.15 27.88 5.16 24.77 C 3.00 22.10 4.30 18.08 4.22 14.88 Z" />
</g>
<g id="#a2e1a4ff">
<path fill="#a2e1a4" opacity="1.00" d=" M 63.05 19.24 C 67.10 15.32 71.80 11.56 77.99 12.84 C 75.05 16.53 70.65 18.49 66.01 18.87 C 65.27 18.96 63.79 19.14 63.05 19.24 M 72.20 14.47 C 70.86 14.34 69.25 15.03 68.73 16.33 C 69.34 18.35 74.09 15.89 72.20 14.47 Z" />
<path fill="#a2e1a4" opacity="1.00" d=" M 175.05 19.24 C 179.10 15.32 183.80 11.56 189.99 12.84 C 187.05 16.53 182.65 18.49 178.01 18.87 C 177.27 18.96 175.79 19.14 175.05 19.24 M 184.20 14.47 C 182.86 14.34 181.24 15.03 180.73 16.33 C 181.34 18.35 186.09 15.89 184.20 14.47 Z" />
</g>
<g id="#9bdfa4ff">
<path fill="#9bdfa4" opacity="1.00" d=" M 121.12 15.99 C 124.53 15.01 127.94 14.02 131.38 13.10 C 128.82 14.71 126.19 16.21 123.55 17.68 L 122.92 18.03 C 122.32 17.35 121.72 16.67 121.12 15.99 Z" />
</g>
<g id="#d4f1dfff">
<path fill="#d4f1df" opacity="1.00" d=" M 10.90 18.06 C 13.30 15.98 16.17 14.57 19.04 13.29 C 18.39 14.74 17.72 16.19 17.05 17.64 C 15.00 17.80 12.95 17.87 10.90 18.06 Z" />
</g>
<g id="#d5f1dffe">
<path fill="#d5f1df" opacity="1.00" d=" M 72.20 14.47 C 74.09 15.89 69.34 18.35 68.73 16.33 C 69.25 15.03 70.86 14.34 72.20 14.47 Z" />
<path fill="#d5f1df" opacity="1.00" d=" M 184.20 14.47 C 186.09 15.89 181.34 18.35 180.73 16.33 C 181.24 15.03 182.86 14.34 184.20 14.47 Z" />
</g>
<g id="#1ea0c9ff">
<path fill="#1ea0c9" opacity="1.00" d=" M 118.51 15.79 C 118.75 14.56 119.51 13.88 120.80 13.75 C 120.80 15.29 120.04 15.97 118.51 15.79 Z" />
</g>
<g id="#258fd7ff">
<path fill="#258fd7" opacity="1.00" d=" M 1.71 25.56 C 2.13 21.93 2.79 18.26 4.22 14.88 C 4.30 18.08 3.00 22.10 5.16 24.77 C 9.15 27.88 14.52 28.27 19.10 30.05 C 16.55 29.74 14.00 29.49 11.45 29.21 C 8.23 28.37 3.74 28.67 1.71 25.56 Z" />
</g>
<g id="#1da1c8fe">
<path fill="#1da1c8" opacity="1.00" d=" M 61.27 20.07 C 60.13 17.88 61.20 15.24 63.71 14.79 C 63.33 16.73 62.31 18.43 61.27 20.07 Z" />
<path fill="#1da1c8" opacity="1.00" d=" M 173.27 20.07 C 172.11 17.88 173.20 15.24 175.70 14.79 C 175.32 16.73 174.31 18.43 173.27 20.07 Z" />
</g>
<g id="#4279caff">
<path fill="#4279ca" opacity="1.00" d=" M 97.98 20.26 C 103.93 18.59 109.80 16.47 115.93 15.51 C 115.35 16.52 114.77 17.53 114.19 18.53 C 109.77 19.35 104.45 18.82 101.06 22.27 C 100.21 25.41 103.67 27.44 106.38 27.50 C 109.90 27.46 112.91 25.68 116.02 24.34 C 116.37 24.43 117.06 24.62 117.40 24.71 C 113.52 27.31 109.84 30.20 106.19 33.12 C 107.70 34.18 109.42 35.06 110.64 36.49 C 111.49 39.29 110.94 42.28 110.93 45.17 C 112.88 45.19 114.84 45.22 116.80 45.19 C 116.15 46.67 115.50 48.16 114.85 49.65 C 113.53 48.34 112.20 47.05 110.85 45.77 C 106.44 49.52 101.68 53.88 95.49 53.78 C 96.60 53.18 97.68 52.55 98.75 51.87 C 104.19 49.33 108.88 45.12 109.47 38.79 C 106.62 36.70 103.80 34.59 101.14 32.26 C 102.50 32.07 103.86 31.89 105.21 31.71 C 102.58 28.04 99.79 24.43 97.98 20.26 Z" />
<path fill="#4279ca" opacity="1.00" d=" M 113.51 51.45 C 116.92 49.49 120.47 50.75 123.44 52.88 C 120.12 52.52 116.80 51.98 113.51 51.45 Z" />
</g>
<g id="#1ca4c5ff">
<path fill="#1ca4c5" opacity="1.00" d=" M 115.93 15.51 C 116.11 15.19 116.48 14.53 116.67 14.21 C 117.09 15.36 117.55 16.49 118.02 17.62 C 117.78 18.51 117.56 19.41 117.35 20.31 C 117.18 19.72 116.83 18.56 116.66 17.97 C 116.49 18.52 116.15 19.60 115.97 20.15 C 115.63 20.36 114.94 20.79 114.59 21.00 C 114.49 20.38 114.29 19.15 114.19 18.53 C 114.77 17.53 115.35 16.52 115.93 15.51 Z" />
</g>
<g id="#3c6bbdff">
<path fill="#3c6bbd" opacity="1.00" d=" M 101.06 22.27 C 104.45 18.82 109.77 19.35 114.19 18.53 C 114.29 19.15 114.49 20.38 114.59 21.00 C 114.93 21.50 115.60 22.50 115.94 23.00 L 116.02 24.34 C 112.91 25.68 109.90 27.46 106.38 27.50 C 103.67 27.44 100.21 25.41 101.06 22.27 Z" />
</g>
<g id="#268ed9ff">
<path fill="#268ed9" opacity="1.00" d=" M 116.66 17.97 C 116.83 18.56 117.18 19.72 117.35 20.31 L 117.53 20.96 C 117.96 22.40 118.45 23.82 118.91 25.25 C 118.54 25.12 117.78 24.85 117.40 24.71 C 117.06 24.62 116.37 24.43 116.02 24.34 L 115.94 23.00 C 115.95 22.29 115.97 20.86 115.97 20.15 C 116.15 19.60 116.49 18.52 116.66 17.97 Z" />
<path fill="#268ed9" opacity="1.00" d=" M 54.47 38.93 C 54.71 38.99 55.17 39.11 55.40 39.17 C 54.68 41.76 53.45 44.18 52.12 46.51 C 51.11 45.97 50.09 45.44 49.07 44.91 L 49.63 44.35 C 51.32 42.61 52.85 40.73 54.47 38.93 Z" />
</g>
<g id="#1aa8c2fe">
<path fill="#1aa8c2" opacity="1.00" d=" M 117.53 20.96 C 119.33 19.98 121.13 19.00 122.92 18.03 L 123.55 17.68 C 122.96 19.44 122.36 21.21 121.78 22.98 C 127.45 25.85 135.39 27.51 137.34 34.42 C 137.79 34.69 138.68 35.24 139.13 35.51 C 138.68 36.62 138.25 37.73 137.84 38.85 C 137.35 38.98 136.38 39.24 135.90 39.37 C 136.59 38.11 137.27 36.86 137.96 35.61 C 133.20 35.32 128.49 36.26 124.03 37.87 C 124.03 38.74 124.03 40.50 124.03 41.38 C 125.97 41.24 127.91 41.04 129.85 40.81 C 130.40 40.75 131.51 40.63 132.06 40.58 C 131.09 41.75 130.10 42.91 129.12 44.08 C 127.63 43.93 126.13 43.71 124.66 43.43 C 123.39 41.45 122.15 39.45 120.95 37.42 C 125.10 36.05 129.22 34.60 133.39 33.28 C 131.81 28.62 127.24 27.28 122.79 26.79 C 121.49 26.29 120.20 25.77 118.91 25.25 C 118.45 23.82 117.96 22.40 117.53 20.96 Z" />
</g>
<g id="#3c6abdff">
<path fill="#3c6abd" opacity="1.00" d=" M 157.10 21.26 C 159.61 18.41 163.95 18.70 167.26 17.64 C 168.25 20.36 169.29 23.06 170.22 25.80 C 170.18 26.16 170.09 26.89 170.05 27.25 C 166.05 26.89 161.68 27.00 158.19 24.76 C 156.73 24.13 156.92 22.56 157.10 21.26 Z" />
<path fill="#3c6abd" opacity="1.00" d=" M 45.07 23.25 C 47.70 20.41 52.07 20.62 55.48 19.54 C 56.43 21.63 57.42 23.71 58.32 25.82 C 58.23 26.23 58.06 27.05 57.97 27.46 C 53.70 28.95 44.60 29.79 45.07 23.25 Z" />
</g>
<g id="#427acaff">
<path fill="#427aca" opacity="1.00" d=" M 209.96 20.23 C 213.40 19.52 216.85 18.82 220.30 18.13 C 217.55 19.64 214.75 21.07 212.03 22.62 C 214.32 27.17 219.28 27.98 224.00 27.62 L 224.00 27.95 C 222.09 29.69 220.17 31.40 218.25 33.12 C 220.56 34.64 222.69 36.51 224.00 39.00 L 224.00 45.42 C 219.06 49.07 214.05 53.80 207.49 53.77 C 208.60 53.18 209.68 52.54 210.75 51.87 C 216.19 49.33 220.88 45.12 221.47 38.79 C 218.62 36.70 215.80 34.58 213.14 32.26 C 214.49 32.07 215.85 31.89 217.21 31.71 C 214.58 28.02 211.80 24.40 209.96 20.23 Z" />
</g>
<g id="#a0e0a2ff">
<path fill="#a0e0a2" opacity="1.00" d=" M 9.58 23.18 C 12.15 21.69 14.71 20.17 17.40 18.89 C 15.40 21.26 12.69 22.83 9.58 23.18 Z" />
<path fill="#a0e0a2" opacity="1.00" d=" M 17.96 22.91 C 20.39 23.70 22.80 24.50 25.25 25.21 C 23.94 26.47 26.18 27.97 27.06 26.53 C 27.19 27.03 27.43 28.02 27.55 28.51 C 23.35 27.73 19.21 26.67 15.01 25.90 C 16.00 24.91 16.99 23.92 17.96 22.91 Z" />
<path fill="#a0e0a2" opacity="1.00" d=" M 72.41 24.09 C 75.86 24.58 79.20 25.65 82.44 26.93 C 78.83 27.06 75.36 26.08 72.41 24.09 Z" />
<path fill="#a0e0a2" opacity="1.00" d=" M 184.41 24.09 C 187.86 24.58 191.20 25.65 194.44 26.93 C 190.83 27.06 187.36 26.08 184.41 24.09 Z" />
<path fill="#a0e0a2" opacity="1.00" d=" M 67.01 39.31 C 69.74 38.87 72.46 38.41 75.18 37.94 C 74.40 38.89 73.62 39.83 72.84 40.78 C 70.89 40.34 68.96 39.78 67.01 39.31 Z" />
<path fill="#a0e0a2" opacity="1.00" d=" M 179.01 39.33 C 181.73 38.88 184.45 38.41 187.17 37.93 C 186.40 38.88 185.63 39.83 184.85 40.77 C 182.89 40.35 180.96 39.80 179.01 39.33 Z" />
</g>
<g id="#1aa9c2fe">
<path fill="#1aa9c2" opacity="1.00" d=" M 63.05 19.24 C 63.79 19.14 65.27 18.96 66.01 18.87 C 65.04 20.34 64.06 21.82 63.07 23.29 C 69.31 25.91 79.59 26.28 81.11 34.46 C 81.78 34.81 83.13 35.51 83.80 35.86 C 82.39 37.01 81.01 38.22 79.58 39.36 L 79.97 38.79 C 80.13 38.28 80.46 37.25 80.62 36.74 L 80.03 36.51 C 75.21 34.46 69.59 35.72 65.16 38.19 C 65.59 37.39 65.99 36.58 66.38 35.76 C 70.04 34.90 73.74 34.20 77.42 33.45 C 75.91 28.72 71.31 27.22 66.78 26.79 C 65.54 26.40 64.30 26.00 63.07 25.60 C 62.51 23.97 61.93 22.35 61.44 20.70 C 61.97 20.21 62.51 19.72 63.05 19.24 Z" />
</g>
<g id="#41cfbeff">
<path fill="#41cfbe" opacity="1.00" d=" M 128.10 19.08 C 129.94 18.34 130.40 21.31 128.75 21.76 C 126.91 22.52 126.38 19.49 128.10 19.08 Z" />
<path fill="#41cfbe" opacity="1.00" d=" M 8.37 40.23 C 9.50 39.03 10.63 37.83 11.78 36.66 C 11.90 38.22 12.01 39.78 12.13 41.34 C 11.19 41.06 9.31 40.50 8.37 40.23 Z" />
<path fill="#41cfbe" opacity="1.00" d=" M 12.96 41.58 C 14.08 40.97 15.27 40.60 16.54 40.50 C 16.85 42.66 14.14 42.63 12.96 41.58 Z" />
<path fill="#41cfbe" opacity="1.00" d=" M 101.66 47.34 C 101.64 45.92 102.34 45.29 103.75 45.47 C 103.64 45.86 103.43 46.64 103.32 47.03 C 102.91 47.11 102.08 47.26 101.66 47.34 Z" />
<path fill="#41cfbe" opacity="1.00" d=" M 213.66 47.34 C 213.64 45.92 214.34 45.29 215.75 45.47 C 215.64 45.86 215.43 46.64 215.32 47.03 C 214.91 47.11 214.08 47.26 213.66 47.34 Z" />
</g>
<g id="#1ba8c2ff">
<path fill="#1ba8c2" opacity="1.00" d=" M 175.05 19.24 C 175.79 19.14 177.27 18.96 178.01 18.87 C 177.04 20.34 176.06 21.82 175.07 23.29 C 181.31 25.91 191.59 26.28 193.11 34.46 C 193.78 34.81 195.13 35.51 195.80 35.86 C 194.40 37.00 193.06 38.21 191.64 39.33 L 192.07 38.85 C 192.82 37.92 192.72 37.11 191.77 36.40 C 186.85 34.71 181.69 36.80 176.96 38.09 C 180.03 34.42 184.93 34.03 189.38 33.32 C 187.83 28.65 183.26 27.24 178.79 26.79 C 177.58 26.42 176.38 26.04 175.17 25.66 C 174.57 24.01 173.95 22.37 173.43 20.70 C 173.97 20.21 174.51 19.72 175.05 19.24 Z" />
</g>
<g id="#1faac3ff">
<path fill="#1faac3" opacity="1.00" d=" M 79.17 20.83 C 79.52 21.14 80.22 21.76 80.57 22.08 C 81.39 23.11 82.17 24.18 82.94 25.25 C 81.23 24.29 79.48 23.39 77.87 22.26 C 78.20 21.90 78.85 21.19 79.17 20.83 Z" />
<path fill="#1faac3" opacity="1.00" d=" M 191.17 20.83 C 191.52 21.14 192.22 21.76 192.57 22.08 C 193.39 23.11 194.17 24.18 194.94 25.25 C 193.23 24.29 191.48 23.39 189.87 22.26 C 190.20 21.90 190.85 21.19 191.17 20.83 Z" />
</g>
<g id="#1faac4ff">
<path fill="#1faac4" opacity="1.00" d=" M 135.18 20.83 C 135.52 21.14 136.20 21.75 136.53 22.06 C 137.07 23.05 137.59 24.06 138.10 25.07 C 136.64 24.21 135.23 23.30 133.91 22.26 C 134.22 21.90 134.86 21.19 135.18 20.83 Z" />
</g>
<g id="#3d6fc0ff">
<path fill="#3d6fc0" opacity="1.00" d=" M 0.00 21.56 C 0.52 22.92 1.08 24.25 1.71 25.56 C 3.74 28.67 8.23 28.37 11.45 29.21 C 7.44 31.87 3.16 34.28 0.00 37.99 L 0.00 21.56 Z" />
</g>
<g id="#268ed6ff">
<path fill="#268ed6" opacity="1.00" d=" M 80.57 22.08 C 81.84 22.68 83.12 23.24 84.42 23.77 C 86.11 24.43 87.81 25.05 89.53 25.64 C 93.27 27.61 96.96 29.69 100.63 31.81 L 101.14 32.26 C 103.80 34.59 106.62 36.70 109.47 38.79 C 108.88 45.12 104.19 49.33 98.75 51.87 C 100.37 50.35 101.88 48.72 103.32 47.03 C 105.16 44.85 106.81 42.52 108.49 40.22 C 105.73 38.14 103.04 35.98 100.21 34.00 C 98.17 32.63 96.13 31.22 93.92 30.11 C 90.33 28.36 86.66 26.73 82.94 25.25 C 82.17 24.18 81.39 23.11 80.57 22.08 Z" />
<path fill="#268ed6" opacity="1.00" d=" M 192.57 22.08 C 193.84 22.68 195.12 23.24 196.42 23.77 C 198.10 24.43 199.81 25.05 201.53 25.64 C 205.27 27.61 208.96 29.69 212.63 31.81 L 213.14 32.26 C 215.80 34.58 218.62 36.70 221.47 38.79 C 220.88 45.12 216.19 49.33 210.75 51.87 C 212.37 50.35 213.88 48.72 215.32 47.03 C 217.16 44.85 218.81 42.52 220.49 40.22 C 217.73 38.14 215.04 35.98 212.21 34.00 C 210.16 32.63 208.13 31.22 205.92 30.11 C 202.33 28.36 198.66 26.73 194.94 25.25 C 194.17 24.18 193.39 23.11 192.57 22.08 Z" />
</g>
<g id="#94dea6ff">
<path fill="#94dea6" opacity="1.00" d=" M 129.32 23.75 C 131.50 24.63 133.60 25.69 135.54 27.03 C 133.18 26.52 130.88 25.68 129.32 23.75 Z" />
</g>
<g id="#1cabc1ff">
<path fill="#1cabc1" opacity="1.00" d=" M 82.94 25.25 C 86.66 26.73 90.33 28.36 93.92 30.11 C 93.48 30.08 92.58 30.00 92.13 29.97 C 90.68 29.91 89.24 29.87 87.79 29.85 C 86.31 28.18 84.70 26.63 82.94 25.25 Z" />
<path fill="#1cabc1" opacity="1.00" d=" M 138.68 25.40 C 142.47 26.98 146.29 28.51 149.99 30.30 C 146.01 29.18 142.14 27.67 138.68 25.40 Z" />
<path fill="#1cabc1" opacity="1.00" d=" M 194.94 25.25 C 198.66 26.73 202.33 28.36 205.92 30.11 C 205.48 30.08 204.58 30.00 204.13 29.97 C 202.68 29.91 201.23 29.87 199.79 29.85 C 198.31 28.18 196.69 26.63 194.94 25.25 Z" />
<path fill="#1cabc1" opacity="1.00" d=" M 26.48 36.12 C 27.99 35.61 29.48 35.05 30.97 34.51 C 32.06 35.14 33.14 35.80 34.22 36.44 C 30.93 36.98 27.67 37.73 24.52 38.84 L 24.78 37.58 L 24.94 36.75 C 25.33 36.60 26.10 36.28 26.48 36.12 Z" />
</g>
<g id="#427bcaff">
<path fill="#427bca" opacity="1.00" d=" M 89.53 25.64 C 91.59 25.83 93.72 25.71 95.72 26.36 C 97.79 27.71 99.06 29.95 100.63 31.81 C 96.96 29.69 93.27 27.61 89.53 25.64 Z" />
<path fill="#427bca" opacity="1.00" d=" M 201.53 25.64 C 203.59 25.83 205.72 25.71 207.72 26.36 C 209.79 27.71 211.06 29.95 212.63 31.81 C 208.96 29.69 205.27 27.61 201.53 25.64 Z" />
</g>
<g id="#d5f2dfff">
<path fill="#d5f2df" opacity="1.00" d=" M 27.06 26.53 C 26.18 27.97 23.94 26.47 25.25 25.21 C 25.66 25.35 26.47 25.63 26.88 25.77 L 27.06 26.53 Z" />
<path fill="#d5f2df" opacity="1.00" d=" M 93.15 33.40 C 97.14 32.58 92.30 37.38 93.15 33.40 Z" />
<path fill="#d5f2df" opacity="1.00" d=" M 205.15 33.40 C 209.14 32.58 204.30 37.38 205.15 33.40 Z" />
<path fill="#d5f2df" opacity="1.00" d=" M 24.78 37.58 C 22.24 40.07 21.84 35.73 24.94 36.75 L 24.78 37.58 Z" />
<path fill="#d5f2df" opacity="1.00" d=" M 13.32 38.18 C 14.32 36.70 16.85 38.36 15.68 39.82 C 14.68 41.30 12.15 39.64 13.32 38.18 Z" />
<path fill="#d5f2df" opacity="1.00" d=" M 100.12 43.11 C 101.88 42.45 102.09 45.23 100.54 45.54 C 98.79 46.23 98.56 43.40 100.12 43.11 Z" />
<path fill="#d5f2df" opacity="1.00" d=" M 212.12 43.11 C 213.88 42.45 214.09 45.23 212.54 45.54 C 210.79 46.23 210.56 43.40 212.12 43.11 Z" />
</g>
<g id="#22a4c7ff">
<path fill="#22a4c7" opacity="1.00" d=" M 28.58 26.41 C 32.76 27.21 37.54 27.13 40.93 30.07 C 44.35 32.39 47.43 35.18 50.82 37.56 C 48.86 40.24 53.33 41.53 52.06 38.07 C 52.86 38.37 53.66 38.66 54.47 38.93 C 52.85 40.73 51.32 42.61 49.63 44.35 C 50.04 43.17 50.24 41.95 50.21 40.71 C 49.41 40.89 48.64 41.15 47.89 41.46 C 47.88 41.04 47.85 40.21 47.84 39.79 C 45.93 33.77 39.46 30.72 33.97 28.55 L 33.18 28.22 C 31.65 27.61 30.11 27.01 28.58 26.41 Z" />
</g>
<g id="#278ed7ff">
<path fill="#278ed7" opacity="1.00" d=" M 66.78 26.79 C 71.31 27.22 75.91 28.72 77.42 33.45 C 73.74 34.20 70.04 34.90 66.38 35.76 C 65.99 36.58 65.59 37.39 65.16 38.19 L 64.62 39.09 C 67.06 40.83 69.57 42.46 72.08 44.09 C 71.46 44.17 70.22 44.32 69.59 44.40 L 68.73 44.22 C 66.04 42.17 63.31 40.17 60.59 38.15 C 64.88 35.39 69.19 32.65 73.47 29.88 C 71.26 28.81 69.03 27.78 66.78 26.79 Z" />
<path fill="#278ed7" opacity="1.00" d=" M 178.79 26.79 C 183.26 27.24 187.83 28.65 189.38 33.32 C 184.93 34.03 180.03 34.42 176.96 38.09 L 176.17 38.75 C 178.73 40.63 181.39 42.38 184.09 44.08 C 183.46 44.16 182.22 44.32 181.59 44.40 L 180.73 44.22 C 178.04 42.17 175.31 40.17 172.59 38.15 C 176.88 35.39 181.19 32.66 185.47 29.88 C 183.25 28.81 181.03 27.78 178.79 26.79 Z" />
</g>
<g id="#268ed8ff">
<path fill="#268ed8" opacity="1.00" d=" M 122.79 26.79 C 127.24 27.28 131.81 28.62 133.39 33.28 C 129.22 34.60 125.10 36.05 120.95 37.42 C 122.15 39.45 123.39 41.45 124.66 43.43 C 121.93 42.05 119.49 40.19 117.05 38.37 C 120.99 35.33 125.16 32.62 129.31 29.89 C 127.12 28.85 124.98 27.79 122.79 26.79 Z" />
</g>
<g id="#3c6cbfff">
<path fill="#3c6cbf" opacity="1.00" d=" M 163.15 30.16 C 167.80 26.91 174.03 29.99 179.16 29.70 C 175.31 31.75 171.73 34.24 168.38 37.01 C 173.33 41.01 177.77 46.02 184.14 47.76 C 183.02 46.56 181.90 45.36 180.73 44.22 L 181.59 44.40 C 184.80 45.06 188.01 45.69 191.20 46.43 C 189.72 46.74 188.25 47.06 186.78 47.38 C 187.72 48.12 188.65 48.86 189.59 49.60 C 187.77 51.26 185.94 52.91 184.11 54.56 C 187.48 53.04 191.04 51.20 194.85 52.12 C 195.47 52.21 196.71 52.39 197.33 52.48 C 197.39 53.13 197.50 54.44 197.56 55.10 C 196.18 55.41 194.79 55.72 193.41 56.00 L 148.10 56.00 C 156.43 54.95 161.37 48.24 167.73 43.76 C 166.61 43.82 165.50 43.90 164.39 43.97 C 165.05 42.03 165.61 40.05 166.23 38.09 C 164.16 36.13 159.98 33.08 163.15 30.16 Z" />
<path fill="#3c6cbf" opacity="1.00" d=" M 49.26 34.17 C 53.78 29.01 60.82 28.39 67.21 29.52 C 63.41 31.73 59.79 34.24 56.37 37.01 C 61.33 41.01 65.77 46.02 72.14 47.76 C 71.02 46.56 69.91 45.37 68.73 44.22 L 69.59 44.40 C 72.80 45.06 76.01 45.69 79.20 46.43 C 77.72 46.74 76.25 47.06 74.78 47.38 C 75.72 48.12 76.66 48.86 77.59 49.60 C 75.77 51.26 73.94 52.91 72.11 54.56 C 75.48 53.04 79.04 51.21 82.85 52.12 C 83.47 52.21 84.71 52.39 85.33 52.48 C 85.39 53.13 85.50 54.44 85.56 55.10 C 84.18 55.41 82.79 55.72 81.40 56.00 L 16.69 56.00 C 19.75 54.26 22.94 52.70 26.43 52.08 C 27.92 52.26 29.40 52.50 30.89 52.68 C 33.79 52.94 36.69 53.30 39.61 53.28 C 44.57 53.82 49.38 51.50 51.75 47.06 L 52.12 46.51 C 53.45 44.18 54.68 41.76 55.40 39.17 C 55.03 37.66 54.60 36.17 54.15 34.68 C 52.52 34.52 50.89 34.35 49.26 34.17 Z" />
<path fill="#3c6cbf" opacity="1.00" d=" M 28.91 40.77 C 31.41 40.01 33.78 38.91 36.14 37.80 L 36.71 38.35 C 36.36 39.67 36.01 41.00 35.65 42.32 C 32.59 43.82 29.56 45.38 26.53 46.94 C 27.66 46.85 28.78 46.75 29.91 46.62 L 31.14 46.48 C 28.76 48.51 26.18 50.30 23.38 51.71 C 24.68 47.80 27.25 44.53 30.49 42.03 C 30.09 41.71 29.30 41.08 28.91 40.77 Z" />
</g>
<g id="#3f80caff">
<path fill="#3f80ca" opacity="1.00" d=" M 11.45 29.21 C 14.00 29.49 16.55 29.74 19.10 30.05 C 16.67 30.95 14.26 31.91 11.87 32.93 C 13.22 33.05 15.92 33.29 17.27 33.41 C 13.14 34.75 9.03 36.15 4.90 37.46 C 5.89 39.01 6.85 40.59 7.88 42.12 C 5.40 40.58 2.68 39.49 0.00 38.36 L 0.00 37.99 C 3.16 34.28 7.44 31.87 11.45 29.21 Z" />
</g>
<g id="#a0e1a2ff">
<path fill="#a0e1a2" opacity="1.00" d=" M 30.61 31.43 C 31.46 30.36 32.32 29.29 33.18 28.22 L 33.97 28.55 C 37.43 31.15 41.70 33.79 42.40 38.42 L 40.84 38.10 C 39.84 37.61 38.86 37.09 37.90 36.54 C 38.40 36.15 39.39 35.39 39.89 35.01 C 37.92 33.56 35.94 32.13 33.95 30.72 C 35.25 32.67 36.57 34.60 37.90 36.54 C 35.39 34.95 33.01 33.17 30.61 31.43 Z" />
</g>
<g id="#45cfbeff">
<path fill="#45cfbe" opacity="1.00" d=" M 33.97 28.55 C 39.46 30.72 45.93 33.77 47.84 39.79 C 47.57 40.14 47.04 40.84 46.77 41.18 C 46.39 41.31 45.63 41.56 45.25 41.69 C 43.20 41.93 41.56 43.24 40.63 45.05 C 39.84 45.86 39.04 46.66 38.27 47.50 C 38.68 46.38 39.10 45.27 39.54 44.17 C 40.54 43.06 41.53 41.95 42.53 40.84 C 42.49 40.03 42.44 39.23 42.40 38.42 C 41.70 33.79 37.43 31.15 33.97 28.55 Z" />
</g>
<g id="#9de0a9ff">
<path fill="#9de0a9" opacity="1.00" d=" M 87.79 29.85 C 89.24 29.87 90.68 29.91 92.13 29.97 C 94.32 32.36 96.40 34.86 98.32 37.48 C 93.76 36.68 90.45 33.39 87.79 29.85 M 93.15 33.40 C 92.30 37.38 97.14 32.58 93.15 33.40 Z" />
<path fill="#9de0a9" opacity="1.00" d=" M 199.79 29.85 C 201.23 29.87 202.68 29.91 204.13 29.97 C 206.32 32.36 208.40 34.86 210.32 37.48 C 205.76 36.68 202.45 33.39 199.79 29.85 M 205.15 33.40 C 204.30 37.38 209.14 32.58 205.15 33.40 Z" />
</g>
<g id="#407cc9ff">
<path fill="#407cc9" opacity="1.00" d=" M 116.51 36.97 C 119.23 32.37 123.98 29.81 129.31 29.89 C 125.16 32.62 120.99 35.33 117.05 38.37 C 119.49 40.19 121.93 42.05 124.66 43.43 C 126.13 43.71 127.63 43.93 129.12 44.08 C 129.62 44.11 130.63 44.15 131.13 44.18 C 127.98 44.95 124.66 45.78 121.42 45.16 C 118.11 43.30 116.21 39.80 113.89 36.92 C 114.76 36.94 115.64 36.95 116.51 36.97 Z" />
</g>
<g id="#cff0d9ff">
<path fill="#cff0d9" opacity="1.00" d=" M 33.95 30.72 C 35.94 32.13 37.92 33.56 39.89 35.01 C 39.39 35.39 38.40 36.15 37.90 36.54 C 36.57 34.60 35.25 32.67 33.95 30.72 Z" />
</g>
<g id="#9adfa4ff">
<path fill="#9adfa4" opacity="1.00" d=" M 144.72 30.60 C 148.08 32.10 150.88 34.53 153.33 37.24 C 149.87 35.91 146.83 33.66 144.72 30.60 Z" />
<path fill="#9adfa4" opacity="1.00" d=" M 150.84 49.41 C 153.06 46.60 155.55 43.99 158.36 41.76 C 157.30 45.50 154.54 48.26 150.84 49.41 Z" />
</g>
<g id="#a0e1a3fe">
<path fill="#a0e1a3" opacity="1.00" d=" M 25.61 32.34 C 26.48 31.45 28.21 31.22 29.12 32.18 C 29.77 34.34 24.40 34.77 25.61 32.34 Z" />
<path fill="#a0e1a3" opacity="1.00" d=" M 81.61 32.34 C 82.48 31.45 84.21 31.22 85.12 32.18 C 85.77 34.34 80.40 34.77 81.61 32.34 Z" />
<path fill="#a0e1a3" opacity="1.00" d=" M 193.61 32.34 C 194.48 31.45 196.21 31.22 197.12 32.18 C 197.77 34.34 192.40 34.77 193.61 32.34 Z" />
</g>
<g id="#1ba5c5ff">
<path fill="#1ba5c5" opacity="1.00" d=" M 85.16 34.80 C 85.93 34.20 86.71 33.61 87.50 33.02 C 88.53 34.15 89.55 35.30 90.58 36.44 C 90.20 36.52 89.45 36.67 89.07 36.75 L 88.49 36.89 C 86.98 37.23 85.48 37.54 83.97 37.85 C 84.36 36.84 84.77 35.82 85.16 34.80 Z" />
<path fill="#1ba5c5" opacity="1.00" d=" M 197.16 34.80 C 197.93 34.20 198.71 33.61 199.50 33.02 C 200.53 34.15 201.54 35.30 202.58 36.44 C 202.20 36.52 201.45 36.67 201.07 36.75 L 200.49 36.89 C 198.98 37.23 197.47 37.54 195.97 37.85 C 196.36 36.84 196.77 35.82 197.16 34.80 Z" />
</g>
<g id="#1fa0c9ff">
<path fill="#1fa0c9" opacity="1.00" d=" M 139.13 35.51 C 140.39 34.75 141.66 33.99 142.93 33.23 C 146.51 36.29 150.94 37.90 155.46 39.06 C 155.70 37.38 155.94 35.71 156.18 34.03 C 159.12 36.03 161.99 38.11 164.91 40.15 C 162.69 44.31 160.06 48.34 156.48 51.47 C 152.22 52.74 147.67 52.59 143.27 52.41 C 145.22 49.95 147.20 47.49 148.81 44.78 L 149.28 44.04 C 149.90 43.01 150.50 41.97 151.11 40.93 C 149.90 39.74 148.68 38.56 147.39 37.45 L 146.22 37.51 C 140.70 37.58 136.31 41.34 131.79 44.00 L 131.13 44.18 C 130.63 44.15 129.62 44.11 129.12 44.08 C 130.10 42.91 131.09 41.75 132.06 40.58 C 131.51 40.63 130.40 40.75 129.85 40.81 C 131.87 40.37 133.87 39.80 135.90 39.37 C 136.38 39.24 137.35 38.98 137.84 38.85 C 138.25 37.73 138.68 36.62 139.13 35.51 M 159.07 37.54 C 153.71 40.68 150.36 45.75 147.82 51.24 C 152.62 50.05 158.39 48.73 160.51 43.65 C 160.75 41.54 159.57 39.55 159.07 37.54 Z" />
</g>
<g id="#40cfbeff">
<path fill="#40cfbe" opacity="1.00" d=" M 12.57 36.46 C 15.90 35.52 19.41 35.21 22.85 35.58 C 19.41 35.68 15.98 36.01 12.57 36.46 Z" />
<path fill="#40cfbe" opacity="1.00" d=" M 94.59 45.66 C 97.48 42.79 100.30 39.83 103.45 37.23 C 103.82 39.96 103.95 42.72 103.75 45.47 C 103.45 43.66 103.15 41.86 102.84 40.06 C 100.18 42.05 97.51 44.06 94.59 45.66 Z" />
<path fill="#40cfbe" opacity="1.00" d=" M 206.59 45.66 C 209.48 42.79 212.30 39.83 215.45 37.23 C 215.81 39.96 215.95 42.72 215.75 45.47 C 215.45 43.66 215.15 41.86 214.84 40.06 C 212.18 42.05 209.51 44.06 206.59 45.66 Z" />
<path fill="#40cfbe" opacity="1.00" d=" M 93.00 47.16 C 93.40 46.79 94.19 46.04 94.59 45.66 C 94.39 46.95 94.19 48.25 93.97 49.54 C 96.51 48.73 99.07 47.98 101.66 47.34 C 99.51 48.48 97.44 49.76 95.36 51.01 C 93.48 51.44 91.59 51.77 89.70 52.11 C 90.56 50.67 91.40 49.21 92.35 47.82 C 92.51 47.66 92.84 47.33 93.00 47.16 Z" />
<path fill="#40cfbe" opacity="1.00" d=" M 205.00 47.16 C 205.40 46.79 206.19 46.04 206.59 45.66 C 206.39 46.95 206.18 48.25 205.97 49.54 C 208.51 48.73 211.07 47.98 213.66 47.34 C 211.51 48.48 209.44 49.76 207.36 51.01 C 205.48 51.44 203.59 51.77 201.70 52.11 C 202.55 50.67 203.40 49.21 204.35 47.82 C 204.51 47.66 204.84 47.33 205.00 47.16 Z" />
</g>
<g id="#1dabc2ff">
<path fill="#1dabc2" opacity="1.00" d=" M 100.21 34.00 C 103.04 35.98 105.73 38.14 108.49 40.22 C 106.81 42.52 105.16 44.85 103.32 47.03 C 103.43 46.64 103.64 45.86 103.75 45.47 C 103.95 42.72 103.82 39.96 103.45 37.23 C 100.30 39.83 97.48 42.79 94.59 45.66 C 94.19 46.04 93.40 46.79 93.00 47.16 C 93.20 46.81 93.59 46.10 93.78 45.75 C 94.90 43.61 95.90 41.41 96.99 39.26 C 95.98 38.80 94.97 38.34 93.95 37.88 C 95.79 38.22 97.64 38.47 99.49 38.71 C 99.74 37.14 99.98 35.57 100.21 34.00 Z" />
<path fill="#1dabc2" opacity="1.00" d=" M 212.21 34.00 C 215.04 35.98 217.73 38.14 220.49 40.22 C 218.81 42.52 217.16 44.85 215.32 47.03 C 215.43 46.64 215.64 45.86 215.75 45.47 C 215.95 42.72 215.81 39.96 215.45 37.23 C 212.30 39.83 209.48 42.79 206.59 45.66 C 206.19 46.04 205.40 46.79 205.00 47.16 C 205.20 46.81 205.59 46.10 205.78 45.75 C 206.90 43.61 207.90 41.41 208.99 39.26 C 207.98 38.80 206.97 38.34 205.95 37.88 C 207.79 38.22 209.64 38.47 211.49 38.71 C 211.73 37.14 211.97 35.57 212.21 34.00 Z" />
</g>
<g id="#3eccbeff">
<path fill="#3eccbe" opacity="1.00" d=" M 65.16 38.19 C 69.59 35.72 75.21 34.46 80.03 36.51 C 79.06 36.79 77.22 36.48 76.93 37.73 C 77.65 38.62 78.93 38.64 79.97 38.79 L 79.58 39.36 L 79.10 39.73 C 77.04 40.19 74.95 40.56 72.84 40.78 C 73.62 39.83 74.40 38.89 75.18 37.94 C 72.46 38.41 69.74 38.87 67.01 39.31 C 66.42 39.25 65.22 39.15 64.62 39.09 L 65.16 38.19 Z" />
<path fill="#3eccbe" opacity="1.00" d=" M 176.96 38.09 C 181.69 36.80 186.85 34.71 191.77 36.40 C 190.85 36.66 189.29 36.59 188.97 37.71 C 189.76 38.53 191.01 38.61 192.07 38.85 L 191.64 39.33 L 191.14 39.72 C 189.06 40.19 186.96 40.56 184.85 40.77 C 185.63 39.83 186.40 38.88 187.17 37.93 C 184.45 38.41 181.73 38.88 179.01 39.33 C 178.30 39.18 176.88 38.89 176.17 38.75 L 176.96 38.09 Z" />
</g>
<g id="#268dd8ff">
<path fill="#268dd8" opacity="1.00" d=" M 83.80 35.86 C 84.14 35.59 84.82 35.07 85.16 34.80 C 84.77 35.82 84.36 36.84 83.97 37.85 C 85.48 37.54 86.98 37.23 88.49 36.89 C 83.67 40.01 78.48 42.59 72.87 43.88 C 75.03 42.63 77.10 41.22 79.10 39.73 L 79.58 39.36 C 81.01 38.22 82.39 37.01 83.80 35.86 Z" />
<path fill="#268dd8" opacity="1.00" d=" M 195.80 35.86 C 196.14 35.59 196.82 35.07 197.16 34.80 C 196.77 35.82 196.36 36.84 195.97 37.85 C 197.47 37.54 198.98 37.23 200.49 36.89 C 195.67 40.01 190.48 42.59 184.87 43.87 C 187.04 42.62 189.12 41.21 191.14 39.72 L 191.64 39.33 C 193.06 38.21 194.40 37.00 195.80 35.86 Z" />
</g>
<g id="#43cfbdff">
<path fill="#43cfbd" opacity="1.00" d=" M 124.03 37.87 C 128.49 36.26 133.20 35.32 137.96 35.61 C 137.27 36.86 136.59 38.11 135.90 39.37 C 133.87 39.80 131.87 40.37 129.85 40.81 C 127.91 41.04 125.97 41.24 124.03 41.38 C 124.03 40.50 124.03 38.74 124.03 37.87 M 132.53 37.12 C 132.68 37.44 132.96 38.09 133.10 38.41 C 135.70 39.02 133.95 34.94 132.53 37.12 M 127.26 37.95 C 125.04 38.15 125.64 41.02 127.74 40.05 C 129.95 39.85 129.36 36.98 127.26 37.95 Z" />
</g>
<g id="#a7e3aaff">
<path fill="#a7e3aa" opacity="1.00" d=" M 12.57 36.46 C 15.98 36.01 19.41 35.68 22.85 35.58 L 23.89 35.71 C 24.54 35.81 25.83 36.02 26.48 36.12 C 26.10 36.28 25.33 36.60 24.94 36.75 C 21.84 35.73 22.24 40.07 24.78 37.58 L 24.52 38.84 L 23.89 39.16 C 21.44 39.65 19.00 40.12 16.54 40.50 C 15.27 40.60 14.08 40.97 12.96 41.58 L 12.13 41.34 C 12.01 39.78 11.90 38.22 11.78 36.66 L 12.57 36.46 M 13.32 38.18 C 12.15 39.64 14.68 41.30 15.68 39.82 C 16.85 38.36 14.32 36.70 13.32 38.18 Z" />
</g>
<g id="#2490d6ff">
<path fill="#2490d6" opacity="1.00" d=" M 90.58 36.44 C 91.70 36.93 92.82 37.42 93.95 37.88 C 94.97 38.34 95.98 38.80 96.99 39.26 C 95.90 41.41 94.90 43.61 93.78 45.75 C 93.02 45.74 91.49 45.73 90.73 45.72 C 92.20 44.15 93.68 42.57 95.15 41.00 C 93.12 39.59 91.08 38.19 89.07 36.75 C 89.45 36.67 90.20 36.52 90.58 36.44 Z" />
<path fill="#2490d6" opacity="1.00" d=" M 202.58 36.44 C 203.70 36.93 204.82 37.42 205.95 37.88 C 206.97 38.34 207.98 38.80 208.99 39.26 C 207.90 41.41 206.90 43.61 205.78 45.75 C 205.02 45.74 203.49 45.73 202.73 45.72 C 204.20 44.15 205.68 42.57 207.15 41.00 C 205.12 39.59 203.08 38.19 201.07 36.75 C 201.45 36.67 202.20 36.52 202.58 36.44 Z" />
</g>
<g id="#278dd8ff">
<path fill="#278dd8" opacity="1.00" d=" M 24.52 38.84 C 27.67 37.73 30.93 36.98 34.22 36.44 C 34.53 36.61 35.13 36.96 35.44 37.13 L 36.14 37.80 C 33.78 38.91 31.41 40.01 28.91 40.77 C 24.92 41.80 20.91 42.84 16.81 43.30 C 17.40 42.98 18.57 42.33 19.15 42.01 C 20.74 41.08 22.29 40.08 23.89 39.16 L 24.52 38.84 Z" />
</g>
<g id="#a1e1a3ff">
<path fill="#a1e1a3" opacity="1.00" d=" M 76.93 37.73 C 77.22 36.48 79.06 36.79 80.03 36.51 L 80.62 36.74 C 80.46 37.25 80.13 38.28 79.97 38.79 C 78.93 38.64 77.65 38.62 76.93 37.73 Z" />
<path fill="#a1e1a3" opacity="1.00" d=" M 132.53 37.12 C 133.95 34.94 135.70 39.02 133.10 38.41 C 132.96 38.09 132.68 37.44 132.53 37.12 Z" />
<path fill="#a1e1a3" opacity="1.00" d=" M 188.97 37.71 C 189.29 36.59 190.85 36.66 191.77 36.40 C 192.72 37.11 192.82 37.92 192.07 38.85 C 191.01 38.61 189.76 38.53 188.97 37.71 Z" />
<path fill="#a1e1a3" opacity="1.00" d=" M 127.26 37.95 C 129.36 36.98 129.95 39.85 127.74 40.05 C 125.64 41.02 125.04 38.15 127.26 37.95 Z" />
<path fill="#a1e1a3" opacity="1.00" d=" M 40.63 45.05 C 41.56 43.24 43.20 41.93 45.25 41.69 C 44.51 43.67 42.76 44.98 40.63 45.05 Z" />
</g>
<g id="#4278caff">
<path fill="#4278ca" opacity="1.00" d=" M 88.49 36.89 L 89.07 36.75 C 91.08 38.19 93.12 39.59 95.15 41.00 C 93.68 42.57 92.20 44.15 90.73 45.72 C 91.49 45.73 93.02 45.74 93.78 45.75 C 93.59 46.10 93.20 46.81 93.00 47.16 C 92.84 47.33 92.51 47.66 92.35 47.82 C 89.25 49.40 86.03 50.71 82.85 52.12 C 79.04 51.21 75.48 53.04 72.11 54.56 C 73.94 52.91 75.77 51.26 77.59 49.60 C 76.66 48.86 75.72 48.12 74.78 47.38 C 76.25 47.06 77.72 46.74 79.20 46.43 C 76.01 45.69 72.80 45.06 69.59 44.40 C 70.22 44.32 71.46 44.17 72.08 44.09 L 72.87 43.88 C 78.48 42.59 83.67 40.01 88.49 36.89 M 78.76 48.81 C 80.12 49.49 81.46 50.21 82.78 50.96 C 83.85 49.76 84.94 48.58 86.05 47.42 C 85.20 47.13 83.50 46.54 82.64 46.25 C 85.34 44.74 88.18 43.52 91.03 42.33 C 90.68 41.10 90.33 39.87 90.01 38.64 C 86.22 41.98 82.45 45.35 78.76 48.81 Z" />
<path fill="#4278ca" opacity="1.00" d=" M 200.49 36.89 L 201.07 36.75 C 203.08 38.19 205.12 39.59 207.15 41.00 C 205.68 42.57 204.20 44.15 202.73 45.72 C 203.49 45.73 205.02 45.74 205.78 45.75 C 205.59 46.10 205.20 46.81 205.00 47.16 C 204.84 47.33 204.51 47.66 204.35 47.82 C 201.25 49.40 198.03 50.71 194.85 52.12 C 191.04 51.20 187.48 53.04 184.11 54.56 C 185.94 52.91 187.77 51.26 189.59 49.60 C 188.65 48.86 187.72 48.12 186.78 47.38 C 188.25 47.06 189.72 46.74 191.20 46.43 C 188.01 45.69 184.80 45.06 181.59 44.40 C 182.22 44.32 183.46 44.16 184.09 44.08 L 184.87 43.87 C 190.48 42.59 195.67 40.01 200.49 36.89 M 190.76 48.81 C 192.11 49.49 193.46 50.21 194.78 50.96 C 195.84 49.76 196.94 48.58 198.05 47.42 C 197.20 47.13 195.50 46.54 194.64 46.25 C 197.34 44.74 200.18 43.52 203.03 42.33 C 202.67 41.10 202.33 39.87 202.01 38.64 C 198.22 41.98 194.45 45.35 190.76 48.81 Z" />
</g>
<g id="#4377caff">
<path fill="#4377ca" opacity="1.00" d=" M 131.79 44.00 C 136.31 41.34 140.70 37.58 146.22 37.51 C 142.22 39.82 139.66 43.76 136.42 46.91 C 136.78 45.46 137.15 44.01 137.53 42.57 C 135.62 43.04 133.70 43.51 131.79 44.00 Z" />
</g>
<g id="#3abec4ff">
<path fill="#3abec4" opacity="1.00" d=" M 50.82 37.56 C 51.13 37.68 51.75 37.94 52.06 38.07 C 53.33 41.53 48.86 40.24 50.82 37.56 Z" />
</g>
<g id="#4379cbff">
<path fill="#4379cb" opacity="1.00" d=" M 147.39 37.45 C 148.68 38.56 149.90 39.74 151.11 40.93 C 150.50 41.97 149.90 43.01 149.28 44.04 C 147.00 43.97 144.73 43.93 142.46 43.95 C 144.29 41.94 145.91 39.74 147.39 37.45 Z" />
</g>
<g id="#40cebeff">
<path fill="#40cebe" opacity="1.00" d=" M 159.07 37.54 C 159.57 39.55 160.75 41.54 160.51 43.65 C 158.39 48.73 152.62 50.05 147.82 51.24 C 150.36 45.75 153.71 40.68 159.07 37.54 M 150.84 49.41 C 154.54 48.26 157.30 45.50 158.36 41.76 C 155.55 43.99 153.06 46.60 150.84 49.41 Z" />
</g>
<g id="#2ab8c0ff">
<path fill="#2ab8c0" opacity="1.00" d=" M 16.54 40.50 C 19.00 40.12 21.44 39.65 23.89 39.16 C 22.29 40.08 20.74 41.08 19.15 42.01 C 18.50 41.63 17.19 40.88 16.54 40.50 Z" />
</g>
<g id="#4081caff">
<path fill="#4081ca" opacity="1.00" d=" M 36.71 38.35 C 37.13 38.57 37.96 39.00 38.38 39.22 C 38.39 40.27 38.41 41.33 38.42 42.39 C 35.55 43.74 32.78 45.29 29.91 46.62 C 28.78 46.75 27.66 46.85 26.53 46.94 C 29.56 45.38 32.59 43.82 35.65 42.32 C 36.01 41.00 36.36 39.67 36.71 38.35 Z" />
</g>
<g id="#2590d7ff">
<path fill="#2590d7" opacity="1.00" d=" M 38.38 39.22 C 39.75 39.80 41.14 40.30 42.53 40.84 C 41.53 41.95 40.54 43.06 39.54 44.17 C 39.04 44.49 38.03 45.14 37.52 45.46 C 35.41 45.92 33.28 46.21 31.14 46.48 L 29.91 46.62 C 32.78 45.29 35.55 43.74 38.42 42.39 C 38.41 41.33 38.39 40.27 38.38 39.22 Z" />
</g>
<g id="#1eadc1ff">
<path fill="#1eadc1" opacity="1.00" d=" M 64.62 39.09 C 65.22 39.15 66.42 39.25 67.01 39.31 C 68.96 39.78 70.89 40.34 72.84 40.78 C 74.95 40.56 77.04 40.19 79.10 39.73 C 77.10 41.22 75.03 42.63 72.87 43.88 L 72.08 44.09 C 69.57 42.46 67.06 40.83 64.62 39.09 Z" />
<path fill="#1eadc1" opacity="1.00" d=" M 176.17 38.75 C 176.88 38.89 178.30 39.18 179.01 39.33 C 180.96 39.80 182.89 40.35 184.85 40.77 C 186.96 40.56 189.06 40.19 191.14 39.72 C 189.12 41.21 187.04 42.62 184.87 43.87 L 184.09 44.08 C 181.39 42.38 178.73 40.63 176.17 38.75 Z" />
</g>
<g id="#a4e2a7ff">
<path fill="#a4e2a7" opacity="1.00" d=" M 46.77 41.18 C 47.04 40.84 47.57 40.14 47.84 39.79 C 47.85 40.21 47.88 41.04 47.89 41.46 C 47.84 42.57 48.04 43.63 48.51 44.64 C 47.70 45.24 46.90 45.85 46.09 46.44 C 44.34 47.66 42.59 48.89 40.82 50.09 L 40.16 50.52 C 38.41 50.43 36.67 50.32 34.92 50.37 C 35.60 50.07 36.94 49.46 37.61 49.16 C 41.13 47.10 44.26 44.38 46.77 41.18 Z" />
</g>
<g id="#41cfbefe">
<path fill="#41cfbe" opacity="1.00" d=" M 47.89 41.46 C 48.64 41.15 49.41 40.89 50.21 40.71 C 50.24 41.95 50.04 43.17 49.63 44.35 L 49.07 44.91 L 48.51 44.64 C 48.04 43.63 47.84 42.57 47.89 41.46 Z" />
</g>
<g id="#a3e2aeff">
<path fill="#a3e2ae" opacity="1.00" d=" M 94.59 45.66 C 97.51 44.06 100.18 42.05 102.84 40.06 C 103.15 41.86 103.45 43.66 103.75 45.47 C 102.34 45.29 101.64 45.92 101.66 47.34 C 99.07 47.98 96.51 48.73 93.97 49.54 C 94.19 48.25 94.39 46.95 94.59 45.66 M 100.12 43.11 C 98.56 43.40 98.79 46.23 100.54 45.54 C 102.09 45.23 101.88 42.45 100.12 43.11 Z" />
<path fill="#a3e2ae" opacity="1.00" d=" M 206.59 45.66 C 209.51 44.06 212.18 42.05 214.84 40.06 C 215.15 41.86 215.45 43.66 215.75 45.47 C 214.34 45.29 213.64 45.92 213.66 47.34 C 211.07 47.98 208.51 48.73 205.97 49.54 C 206.18 48.25 206.39 46.95 206.59 45.66 M 212.12 43.11 C 210.56 43.40 210.79 46.23 212.54 45.54 C 214.09 45.23 213.88 42.45 212.12 43.11 Z" />
</g>
<g id="#417ac9fe">
<path fill="#417ac9" opacity="1.00" d=" M 16.81 43.30 C 20.91 42.84 24.92 41.80 28.91 40.77 C 29.30 41.08 30.09 41.71 30.49 42.03 C 27.25 44.53 24.68 47.80 23.38 51.71 C 26.18 50.30 28.76 48.51 31.14 46.48 C 33.28 46.21 35.41 45.92 37.52 45.46 C 33.86 47.72 30.28 50.14 26.43 52.08 C 22.94 52.70 19.75 54.26 16.69 56.00 L 15.69 56.00 C 18.19 53.90 20.54 51.63 22.90 49.38 C 20.13 46.00 16.04 44.49 11.87 43.73 C 13.21 45.13 14.55 46.53 15.87 47.95 C 13.47 46.63 10.97 45.37 9.06 43.37 C 11.65 43.36 14.24 43.56 16.81 43.30 Z" />
</g>
<g id="#d2f1dbff">
<path fill="#d2f1db" opacity="1.00" d=" M 45.25 41.69 C 45.63 41.56 46.39 41.31 46.77 41.18 C 44.26 44.38 41.13 47.10 37.61 49.16 C 37.78 48.74 38.10 47.91 38.27 47.50 C 39.04 46.66 39.84 45.86 40.63 45.05 C 42.76 44.98 44.51 43.67 45.25 41.69 Z" />
</g>
<g id="#269bd1ff">
<path fill="#269bd1" opacity="1.00" d=" M 37.52 45.46 C 38.03 45.14 39.04 44.49 39.54 44.17 C 39.10 45.27 38.68 46.38 38.27 47.50 C 38.10 47.91 37.78 48.74 37.61 49.16 C 36.94 49.46 35.60 50.07 34.92 50.37 C 34.07 50.54 33.21 50.71 32.35 50.86 C 31.84 50.93 30.82 51.06 30.31 51.12 C 30.45 51.51 30.75 52.29 30.89 52.68 C 29.40 52.50 27.92 52.26 26.43 52.08 C 30.28 50.14 33.86 47.72 37.52 45.46 Z" />
</g>
<g id="#3ccabeff">
<path fill="#3ccabe" opacity="1.00" d=" M 40.82 50.09 C 42.59 48.89 44.34 47.66 46.09 46.44 C 44.37 47.71 42.62 48.93 40.82 50.09 Z" />
</g>
<g id="#3c6bbfff">
<path fill="#3c6bbf" opacity="1.00" d=" M 207.49 53.77 C 214.05 53.80 219.06 49.07 224.00 45.42 L 224.00 56.00 L 205.51 56.00 C 204.01 55.67 201.02 55.01 199.52 54.67 C 201.90 54.38 204.32 54.06 206.73 53.84 L 207.49 53.77 Z" />
</g>
<g id="#427acbff">
<path fill="#427acb" opacity="1.00" d=" M 2.80 47.79 C 4.49 47.39 6.19 47.01 7.89 46.63 C 6.83 47.98 5.76 49.32 4.75 50.69 C 6.86 52.15 9.01 53.54 11.14 54.98 C 8.38 54.75 5.63 54.50 2.87 54.28 C 3.12 52.12 3.14 49.94 2.80 47.79 Z" />
</g>
<g id="#3e82cbff">
<path fill="#3e82cb" opacity="1.00" d=" M 51.75 47.06 C 49.38 51.50 44.57 53.82 39.61 53.28 C 43.75 51.40 47.85 49.40 51.75 47.06 Z" />
</g>
<g id="#2297d1ff">
<path fill="#2297d1" opacity="1.00" d=" M 82.85 52.12 C 86.03 50.71 89.25 49.40 92.35 47.82 C 91.40 49.21 90.56 50.67 89.70 52.11 C 91.59 51.77 93.48 51.44 95.36 51.01 C 94.90 51.69 93.96 53.04 93.50 53.72 C 90.76 53.34 88.05 52.90 85.33 52.48 C 84.71 52.39 83.47 52.21 82.85 52.12 Z" />
<path fill="#2297d1" opacity="1.00" d=" M 194.85 52.12 C 198.03 50.71 201.25 49.40 204.35 47.82 C 203.40 49.21 202.55 50.67 201.70 52.11 C 203.59 51.77 205.48 51.44 207.36 51.01 C 206.90 51.69 205.96 53.04 205.50 53.72 C 202.75 53.34 200.05 52.90 197.33 52.48 C 196.71 52.39 195.47 52.21 194.85 52.12 Z" />
</g>
<g id="#1aa9c1ff">
<path fill="#1aa9c1" opacity="1.00" d=" M 101.66 47.34 C 102.08 47.26 102.91 47.11 103.32 47.03 C 101.88 48.72 100.37 50.35 98.75 51.87 C 97.68 52.55 96.60 53.18 95.49 53.78 L 94.72 53.84 L 93.50 53.72 C 93.96 53.04 94.90 51.69 95.36 51.01 C 97.44 49.76 99.51 48.48 101.66 47.34 Z" />
<path fill="#1aa9c1" opacity="1.00" d=" M 213.66 47.34 C 214.08 47.26 214.91 47.11 215.32 47.03 C 213.88 48.72 212.37 50.35 210.75 51.87 C 209.68 52.54 208.60 53.18 207.49 53.77 L 206.73 53.84 L 205.50 53.72 C 205.96 53.04 206.90 51.69 207.36 51.01 C 209.44 49.76 211.51 48.48 213.66 47.34 Z" />
</g>
<g id="#52d2b9ff">
<path fill="#52d2b9" opacity="1.00" d=" M 32.35 50.86 C 33.21 50.71 34.07 50.54 34.92 50.37 C 36.67 50.32 38.41 50.43 40.16 50.52 C 37.57 50.81 34.95 50.74 32.35 50.86 Z" />
</g>
<g id="#407cccff">
<path fill="#407ccc" opacity="1.00" d=" M 85.33 52.48 C 88.05 52.90 90.76 53.34 93.50 53.72 L 94.72 53.84 C 92.31 54.04 89.91 54.37 87.52 54.67 C 89.02 55.00 92.02 55.67 93.52 56.00 L 81.40 56.00 C 82.79 55.72 84.18 55.41 85.56 55.10 C 85.50 54.44 85.39 53.13 85.33 52.48 Z" />
<path fill="#407ccc" opacity="1.00" d=" M 197.33 52.48 C 200.05 52.90 202.75 53.34 205.50 53.72 L 206.73 53.84 C 204.32 54.06 201.90 54.38 199.52 54.67 C 201.02 55.01 204.01 55.67 205.51 56.00 L 193.41 56.00 C 194.79 55.72 196.18 55.41 197.56 55.10 C 197.50 54.44 197.39 53.13 197.33 52.48 Z" />
</g>
</svg>
