<?xml version="1.0" encoding="UTF-8" ?>
<!DOCTYPE svg PUBLIC "-//W3C//DTD SVG 1.1//EN" "http://www.w3.org/Graphics/SVG/1.1/DTD/svg11.dtd">
<svg width="224pt" height="56pt" viewBox="0 0 224 56" version="1.1" xmlns="http://www.w3.org/2000/svg">
<g id="#91bc69ff">
<path fill="#91bc69" opacity="1.00" d=" M 0.00 0.00 L 0.80 0.00 C 1.73 1.21 1.46 2.12 0.00 2.72 L 0.00 0.00 Z" />
<path fill="#91bc69" opacity="1.00" d=" M 55.15 0.00 L 56.85 0.00 C 59.10 3.48 52.90 3.48 55.15 0.00 Z" />
<path fill="#91bc69" opacity="1.00" d=" M 111.15 0.00 L 112.85 0.00 C 115.10 3.48 108.90 3.48 111.15 0.00 Z" />
<path fill="#91bc69" opacity="1.00" d=" M 167.15 0.00 L 168.85 0.00 C 171.10 3.48 164.90 3.48 167.15 0.00 Z" />
<path fill="#91bc69" opacity="1.00" d=" M 223.20 0.00 L 224.00 0.00 L 224.00 2.72 C 222.53 2.12 222.27 1.21 223.20 0.00 Z" />
</g>
<g id="#699659ff">
<path fill="#699659" opacity="1.00" d=" M 0.80 0.00 L 3.37 0.00 C 4.31 3.36 5.48 6.65 6.56 9.97 C 6.60 10.17 6.69 10.58 6.74 10.78 C 6.47 14.39 5.93 17.98 5.49 21.57 C 4.10 18.46 2.86 15.28 1.67 12.09 C 2.62 9.19 2.82 6.13 1.93 3.19 C 1.45 4.02 0.48 5.69 0.00 6.53 L 0.00 2.72 C 1.46 2.12 1.73 1.21 0.80 0.00 Z" />
<path fill="#699659" opacity="1.00" d=" M 52.63 0.00 L 55.15 0.00 C 52.90 3.48 59.10 3.48 56.85 0.00 L 59.37 0.00 C 60.32 3.36 61.48 6.65 62.58 9.96 C 62.62 10.16 62.70 10.56 62.74 10.76 C 62.48 14.41 61.91 18.03 61.44 21.65 C 60.01 18.18 57.79 14.69 58.28 10.79 C 58.35 8.85 59.18 6.69 58.01 4.92 C 56.03 4.50 52.85 4.38 53.38 7.27 C 54.49 12.29 53.12 17.22 50.53 21.61 C 50.07 18.00 49.52 14.40 49.27 10.78 C 49.31 10.58 49.39 10.18 49.43 9.98 C 50.51 6.66 51.69 3.36 52.63 0.00 Z" />
<path fill="#699659" opacity="1.00" d=" M 108.63 0.00 L 111.15 0.00 C 108.90 3.48 115.10 3.48 112.85 0.00 L 115.39 0.00 C 116.34 3.36 117.44 6.68 118.44 10.03 C 118.47 10.25 118.53 10.71 118.56 10.94 C 118.50 14.53 117.94 18.10 117.46 21.66 C 116.02 18.18 113.78 14.69 114.28 10.79 C 114.35 8.85 115.17 6.69 114.01 4.92 C 112.03 4.51 108.85 4.38 109.38 7.27 C 110.48 12.30 109.13 17.25 106.53 21.64 C 106.07 18.02 105.52 14.40 105.26 10.76 C 105.30 10.56 105.38 10.17 105.42 9.97 C 106.51 6.66 107.69 3.36 108.63 0.00 Z" />
<path fill="#699659" opacity="1.00" d=" M 164.61 0.00 L 167.15 0.00 C 164.90 3.48 171.10 3.48 168.85 0.00 L 171.37 0.00 C 172.32 3.36 173.48 6.65 174.58 9.96 C 174.62 10.16 174.70 10.56 174.74 10.76 C 174.48 14.41 173.91 18.02 173.44 21.65 C 172.01 18.18 169.79 14.69 170.28 10.79 C 170.35 8.85 171.18 6.69 170.01 4.92 C 168.68 4.70 167.31 4.70 165.99 4.92 C 164.83 6.69 165.64 8.85 165.72 10.79 C 166.23 14.69 163.99 18.19 162.51 21.64 C 162.05 18.09 161.51 14.53 161.44 10.94 C 161.47 10.71 161.52 10.26 161.55 10.03 C 162.55 6.68 163.66 3.36 164.61 0.00 Z" />
<path fill="#699659" opacity="1.00" d=" M 220.63 0.00 L 223.20 0.00 C 222.27 1.21 222.53 2.12 224.00 2.72 L 224.00 6.55 C 223.52 5.71 222.56 4.03 222.08 3.18 C 221.18 6.12 221.37 9.19 222.33 12.08 C 221.14 15.30 219.90 18.50 218.50 21.63 C 218.08 18.01 217.53 14.40 217.25 10.77 C 217.29 10.57 217.38 10.17 217.42 9.97 C 218.51 6.66 219.69 3.36 220.63 0.00 Z" />
</g>
<g id="#84ae5cff">
<path fill="#84ae5c" opacity="1.00" d=" M 3.37 0.00 L 4.33 0.00 C 5.27 1.34 6.15 2.72 7.03 4.09 C 8.58 3.33 10.12 2.55 11.65 1.74 C 10.37 1.92 9.08 2.09 7.80 2.26 C 7.30 1.70 6.30 0.57 5.80 0.00 L 23.86 0.00 C 23.60 1.59 23.40 3.20 23.01 4.76 C 22.65 4.65 21.93 4.43 21.57 4.31 C 16.07 0.49 8.74 3.49 6.73 9.48 L 6.56 9.97 C 5.48 6.65 4.31 3.36 3.37 0.00 Z" />
<path fill="#84ae5c" opacity="1.00" d=" M 32.14 0.00 L 50.20 0.00 C 49.70 0.57 48.70 1.70 48.20 2.26 C 46.92 2.09 45.63 1.92 44.35 1.74 C 45.88 2.55 47.42 3.33 48.97 4.09 C 49.85 2.72 50.73 1.34 51.67 0.00 L 52.63 0.00 C 51.69 3.36 50.51 6.66 49.43 9.98 L 49.27 9.49 C 47.73 3.84 41.43 2.74 36.57 1.74 C 35.98 2.39 34.80 3.69 34.21 4.34 C 33.94 4.61 33.39 5.16 33.11 5.43 C 32.70 3.64 32.43 1.82 32.14 0.00 Z" />
<path fill="#84ae5c" opacity="1.00" d=" M 59.37 0.00 L 60.33 0.00 C 61.27 1.34 62.15 2.72 63.03 4.09 C 64.58 3.33 66.12 2.55 67.65 1.74 C 66.36 1.92 65.08 2.09 63.80 2.26 C 63.30 1.70 62.30 0.57 61.80 0.00 L 79.86 0.00 C 79.60 1.59 79.40 3.20 79.01 4.76 C 78.65 4.65 77.93 4.43 77.57 4.31 C 72.07 0.49 64.74 3.48 62.73 9.48 L 62.58 9.96 C 61.48 6.65 60.32 3.36 59.37 0.00 Z" />
<path fill="#84ae5c" opacity="1.00" d=" M 88.14 0.00 L 106.20 0.00 C 105.70 0.57 104.70 1.70 104.20 2.26 C 102.92 2.09 101.63 1.92 100.35 1.74 C 101.88 2.55 103.42 3.33 104.97 4.09 C 105.85 2.72 106.73 1.34 107.67 0.00 L 108.63 0.00 C 107.69 3.36 106.51 6.66 105.42 9.97 L 105.27 9.49 C 103.74 3.84 97.43 2.75 92.57 1.74 C 91.98 2.39 90.80 3.69 90.21 4.34 C 89.94 4.61 89.39 5.16 89.11 5.43 C 88.70 3.64 88.43 1.82 88.14 0.00 Z" />
<path fill="#84ae5c" opacity="1.00" d=" M 115.39 0.00 L 116.33 0.00 C 117.27 1.34 118.15 2.72 119.03 4.09 C 120.58 3.33 122.12 2.55 123.65 1.74 C 122.36 1.92 121.08 2.09 119.80 2.26 C 119.30 1.70 118.30 0.57 117.80 0.00 L 135.86 0.00 C 135.60 1.59 135.40 3.20 135.01 4.76 C 134.65 4.65 133.93 4.43 133.57 4.31 C 128.03 0.46 120.78 3.54 118.66 9.48 L 118.44 10.03 C 117.44 6.68 116.34 3.36 115.39 0.00 Z" />
<path fill="#84ae5c" opacity="1.00" d=" M 144.14 0.00 L 162.20 0.00 C 161.70 0.57 160.70 1.70 160.20 2.26 C 158.92 2.09 157.63 1.92 156.35 1.74 C 157.88 2.55 159.42 3.33 160.97 4.09 C 161.85 2.72 162.73 1.34 163.67 0.00 L 164.61 0.00 C 163.66 3.36 162.55 6.68 161.55 10.03 L 161.34 9.49 C 159.70 3.89 153.47 2.72 148.57 1.74 C 147.98 2.39 146.80 3.69 146.21 4.34 C 145.94 4.61 145.39 5.16 145.11 5.43 C 144.70 3.64 144.43 1.82 144.14 0.00 Z" />
<path fill="#84ae5c" opacity="1.00" d=" M 171.37 0.00 L 172.33 0.00 C 173.27 1.34 174.15 2.72 175.03 4.09 C 176.58 3.33 178.12 2.55 179.65 1.74 C 178.36 1.92 177.08 2.09 175.80 2.26 C 175.30 1.70 174.30 0.57 173.80 0.00 L 191.86 0.00 C 191.60 1.59 191.40 3.20 191.01 4.76 C 190.65 4.65 189.93 4.43 189.57 4.31 C 184.07 0.49 176.74 3.48 174.73 9.49 L 174.58 9.96 C 173.48 6.65 172.32 3.36 171.37 0.00 Z" />
<path fill="#84ae5c" opacity="1.00" d=" M 200.14 0.00 L 218.20 0.00 C 217.70 0.57 216.70 1.70 216.20 2.26 C 214.92 2.09 213.63 1.92 212.35 1.74 C 213.88 2.55 215.42 3.33 216.97 4.09 C 217.84 2.72 218.72 1.34 219.67 0.00 L 220.63 0.00 C 219.69 3.36 218.51 6.66 217.42 9.97 L 217.27 9.49 C 215.74 3.84 209.43 2.74 204.57 1.74 C 203.98 2.39 202.80 3.69 202.21 4.34 C 201.94 4.61 201.39 5.16 201.11 5.43 C 200.70 3.64 200.42 1.82 200.14 0.00 Z" />
</g>
<g id="#6f9a52ff">
<path fill="#6f9a52" opacity="1.00" d=" M 4.33 0.00 L 5.80 0.00 C 6.30 0.57 7.30 1.70 7.80 2.26 C 9.08 2.09 10.37 1.92 11.65 1.74 C 10.12 2.55 8.58 3.33 7.03 4.09 C 6.15 2.72 5.27 1.34 4.33 0.00 Z" />
<path fill="#6f9a52" opacity="1.00" d=" M 50.20 0.00 L 51.67 0.00 C 50.73 1.34 49.85 2.72 48.97 4.09 C 47.42 3.33 45.88 2.55 44.35 1.74 C 45.63 1.92 46.92 2.09 48.20 2.26 C 48.70 1.70 49.70 0.57 50.20 0.00 Z" />
<path fill="#6f9a52" opacity="1.00" d=" M 60.33 0.00 L 61.80 0.00 C 62.30 0.57 63.30 1.70 63.80 2.26 C 65.08 2.09 66.36 1.92 67.65 1.74 C 66.12 2.55 64.58 3.33 63.03 4.09 C 62.15 2.72 61.27 1.34 60.33 0.00 Z" />
<path fill="#6f9a52" opacity="1.00" d=" M 106.20 0.00 L 107.67 0.00 C 106.73 1.34 105.85 2.72 104.97 4.09 C 103.42 3.33 101.88 2.55 100.35 1.74 C 101.63 1.92 102.92 2.09 104.20 2.26 C 104.70 1.70 105.70 0.57 106.20 0.00 Z" />
<path fill="#6f9a52" opacity="1.00" d=" M 116.33 0.00 L 117.80 0.00 C 118.30 0.57 119.30 1.70 119.80 2.26 C 121.08 2.09 122.36 1.92 123.65 1.74 C 122.12 2.55 120.58 3.33 119.03 4.09 C 118.15 2.72 117.27 1.34 116.33 0.00 Z" />
<path fill="#6f9a52" opacity="1.00" d=" M 162.20 0.00 L 163.67 0.00 C 162.73 1.34 161.85 2.72 160.97 4.09 C 159.42 3.33 157.88 2.55 156.35 1.74 C 157.63 1.92 158.92 2.09 160.20 2.26 C 160.70 1.70 161.70 0.57 162.20 0.00 Z" />
<path fill="#6f9a52" opacity="1.00" d=" M 172.33 0.00 L 173.80 0.00 C 174.30 0.57 175.30 1.70 175.80 2.26 C 177.08 2.09 178.36 1.92 179.65 1.74 C 178.12 2.55 176.58 3.33 175.03 4.09 C 174.15 2.72 173.27 1.34 172.33 0.00 Z" />
<path fill="#6f9a52" opacity="1.00" d=" M 218.20 0.00 L 219.67 0.00 C 218.72 1.34 217.84 2.72 216.97 4.09 C 215.42 3.33 213.88 2.55 212.35 1.74 C 213.63 1.92 214.92 2.09 216.20 2.26 C 216.70 1.70 217.70 0.57 218.20 0.00 Z" />
</g>
<g id="#6e9a57ff">
<path fill="#6e9a57" opacity="1.00" d=" M 23.86 0.00 L 32.14 0.00 C 32.43 1.82 32.70 3.64 33.11 5.43 L 33.91 5.69 C 30.07 6.02 26.21 6.02 22.37 5.69 L 23.01 4.76 C 23.40 3.20 23.60 1.59 23.86 0.00 M 25.05 1.73 C 24.99 2.51 24.87 4.09 24.81 4.88 C 25.87 4.32 26.94 3.76 28.00 3.19 C 29.06 3.76 30.13 4.32 31.19 4.88 C 31.13 4.09 31.01 2.51 30.95 1.73 C 28.98 1.69 27.02 1.69 25.05 1.73 Z" />
<path fill="#6e9a57" opacity="1.00" d=" M 79.86 0.00 L 88.14 0.00 C 88.43 1.82 88.70 3.64 89.11 5.43 L 89.91 5.69 C 86.07 6.02 82.21 6.02 78.37 5.69 L 79.01 4.76 C 79.40 3.20 79.60 1.59 79.86 0.00 M 81.05 1.73 C 80.99 2.51 80.87 4.09 80.81 4.88 C 81.87 4.32 82.94 3.76 84.00 3.19 C 85.06 3.76 86.13 4.32 87.19 4.88 C 87.13 4.09 87.01 2.51 86.95 1.73 C 84.98 1.69 83.02 1.69 81.05 1.73 Z" />
<path fill="#6e9a57" opacity="1.00" d=" M 135.86 0.00 L 144.14 0.00 C 144.43 1.82 144.70 3.64 145.11 5.43 L 145.91 5.69 C 142.07 6.02 138.21 6.02 134.37 5.69 L 135.01 4.76 C 135.40 3.20 135.60 1.59 135.86 0.00 M 137.05 1.73 C 136.99 2.51 136.87 4.09 136.81 4.88 C 137.87 4.32 138.94 3.76 140.00 3.19 C 141.06 3.76 142.13 4.32 143.19 4.88 C 143.13 4.09 143.01 2.51 142.95 1.73 C 140.98 1.69 139.02 1.69 137.05 1.73 Z" />
<path fill="#6e9a57" opacity="1.00" d=" M 191.86 0.00 L 200.14 0.00 C 200.42 1.82 200.70 3.64 201.11 5.43 L 201.91 5.69 C 198.07 6.02 194.21 6.02 190.37 5.69 L 191.01 4.76 C 191.40 3.20 191.60 1.59 191.86 0.00 M 193.05 1.73 C 192.99 2.51 192.87 4.09 192.81 4.88 C 193.87 4.32 194.93 3.76 196.00 3.19 C 197.06 3.76 198.12 4.32 199.19 4.88 C 199.13 4.09 199.01 2.51 198.95 1.73 C 196.98 1.69 195.02 1.69 193.05 1.73 Z" />
</g>
<g id="#87b05cfe">
<path fill="#87b05c" opacity="1.00" d=" M 25.05 1.73 C 27.02 1.69 28.98 1.69 30.95 1.73 C 31.01 2.51 31.13 4.09 31.19 4.88 C 30.13 4.32 29.06 3.76 28.00 3.19 C 26.94 3.76 25.87 4.32 24.81 4.88 C 24.87 4.09 24.99 2.51 25.05 1.73 Z" />
<path fill="#87b05c" opacity="1.00" d=" M 81.05 1.73 C 83.02 1.69 84.98 1.69 86.95 1.73 C 87.01 2.51 87.13 4.09 87.19 4.88 C 86.13 4.32 85.06 3.76 84.00 3.19 C 82.94 3.76 81.87 4.32 80.81 4.88 C 80.87 4.09 80.99 2.51 81.05 1.73 Z" />
<path fill="#87b05c" opacity="1.00" d=" M 137.05 1.73 C 139.02 1.69 140.98 1.69 142.95 1.73 C 143.01 2.51 143.13 4.09 143.19 4.88 C 142.13 4.32 141.06 3.76 140.00 3.19 C 138.94 3.76 137.87 4.32 136.81 4.88 C 136.87 4.09 136.99 2.51 137.05 1.73 Z" />
<path fill="#87b05c" opacity="1.00" d=" M 193.05 1.73 C 195.02 1.69 196.98 1.69 198.95 1.73 C 199.01 2.51 199.13 4.09 199.19 4.88 C 198.12 4.32 197.06 3.76 196.00 3.19 C 194.93 3.76 193.87 4.32 192.81 4.88 C 192.87 4.09 192.99 2.51 193.05 1.73 Z" />
</g>
<g id="#6b9a5fff">
<path fill="#6b9a5f" opacity="1.00" d=" M 6.73 9.48 C 8.74 3.49 16.07 0.49 21.57 4.31 C 19.60 4.42 17.63 4.61 15.66 4.68 C 15.56 4.68 15.37 4.67 15.28 4.66 C 14.55 8.92 10.33 9.52 6.73 9.48 Z" />
<path fill="#6b9a5f" opacity="1.00" d=" M 34.21 4.34 C 34.80 3.69 35.98 2.39 36.57 1.74 C 41.43 2.74 47.73 3.84 49.27 9.49 C 45.67 9.52 41.45 8.92 40.72 4.66 C 40.63 4.66 40.43 4.68 40.34 4.69 C 38.29 4.60 36.26 4.42 34.21 4.34 Z" />
<path fill="#6b9a5f" opacity="1.00" d=" M 62.73 9.48 C 64.74 3.48 72.07 0.49 77.57 4.31 C 75.60 4.42 73.63 4.61 71.66 4.68 C 71.56 4.68 71.37 4.67 71.27 4.66 C 70.55 8.92 66.33 9.52 62.73 9.48 Z" />
<path fill="#6b9a5f" opacity="1.00" d=" M 90.21 4.34 C 90.80 3.69 91.98 2.39 92.57 1.74 C 97.43 2.75 103.74 3.84 105.27 9.49 C 101.67 9.52 97.45 8.92 96.73 4.66 C 96.63 4.66 96.43 4.68 96.34 4.69 C 94.29 4.60 92.25 4.42 90.21 4.34 Z" />
<path fill="#6b9a5f" opacity="1.00" d=" M 118.66 9.48 C 120.78 3.54 128.03 0.46 133.57 4.31 C 131.60 4.42 129.63 4.61 127.66 4.68 C 127.56 4.68 127.37 4.67 127.27 4.66 C 126.54 8.96 122.27 9.52 118.66 9.48 Z" />
<path fill="#6b9a5f" opacity="1.00" d=" M 146.21 4.34 C 146.80 3.69 147.98 2.39 148.57 1.74 C 153.47 2.72 159.70 3.89 161.34 9.49 C 157.72 9.52 153.45 8.96 152.73 4.66 C 152.63 4.66 152.44 4.68 152.34 4.69 C 150.29 4.60 148.25 4.42 146.21 4.34 Z" />
<path fill="#6b9a5f" opacity="1.00" d=" M 174.73 9.49 C 176.74 3.48 184.07 0.49 189.57 4.31 C 187.60 4.42 185.63 4.61 183.66 4.68 C 183.56 4.68 183.37 4.67 183.27 4.66 C 182.54 8.92 178.33 9.52 174.73 9.49 Z" />
<path fill="#6b9a5f" opacity="1.00" d=" M 202.21 4.34 C 202.80 3.69 203.98 2.39 204.57 1.74 C 209.43 2.74 215.74 3.84 217.27 9.49 C 213.67 9.52 209.45 8.92 208.73 4.66 C 208.63 4.66 208.44 4.68 208.34 4.69 C 206.29 4.60 204.25 4.42 202.21 4.34 Z" />
</g>
<g id="#86b05fff">
<path fill="#86b05f" opacity="1.00" d=" M 1.93 3.19 C 2.82 6.13 2.62 9.19 1.67 12.09 C 2.86 15.28 4.10 18.46 5.49 21.57 C 5.77 22.12 6.33 23.22 6.61 23.77 C 5.35 23.48 4.07 23.22 2.80 22.96 C 2.35 24.12 1.89 25.27 1.43 26.43 C 0.94 25.41 0.46 24.37 0.00 23.34 L 0.00 6.53 C 0.48 5.69 1.45 4.02 1.93 3.19 M 1.29 20.53 C 0.42 21.76 2.53 23.05 3.33 21.85 C 4.15 20.65 2.07 19.38 1.29 20.53 Z" />
<path fill="#86b05f" opacity="1.00" d=" M 53.38 7.27 C 52.85 4.38 56.03 4.50 58.01 4.92 C 59.18 6.69 58.35 8.85 58.28 10.79 C 57.79 14.69 60.01 18.18 61.44 21.65 C 61.67 22.10 62.11 23.00 62.33 23.45 C 58.14 24.97 53.76 24.86 49.54 23.53 C 49.79 23.05 50.28 22.09 50.53 21.61 C 53.12 17.22 54.49 12.29 53.38 7.27 M 51.46 21.63 C 54.50 21.62 57.53 21.52 60.56 21.33 C 57.57 20.44 54.36 20.34 51.46 21.63 Z" />
<path fill="#86b05f" opacity="1.00" d=" M 109.38 7.27 C 108.85 4.38 112.03 4.51 114.01 4.92 C 115.17 6.69 114.35 8.85 114.28 10.79 C 113.78 14.69 116.02 18.18 117.46 21.66 C 117.68 22.11 118.11 23.00 118.33 23.45 C 114.15 24.97 109.77 24.87 105.55 23.53 C 105.80 23.06 106.28 22.11 106.53 21.64 C 109.13 17.25 110.48 12.30 109.38 7.27 M 107.46 21.63 C 110.49 21.62 113.53 21.52 116.56 21.33 C 113.57 20.44 110.36 20.34 107.46 21.63 Z" />
<path fill="#86b05f" opacity="1.00" d=" M 165.99 4.92 C 167.31 4.70 168.68 4.70 170.01 4.92 C 171.18 6.69 170.35 8.85 170.28 10.79 C 169.79 14.69 172.01 18.18 173.44 21.65 C 173.67 22.10 174.11 23.00 174.33 23.45 C 170.14 24.97 165.76 24.86 161.55 23.53 C 161.79 23.06 162.27 22.11 162.51 21.64 C 163.99 18.19 166.23 14.69 165.72 10.79 C 165.64 8.85 164.83 6.69 165.99 4.92 M 163.46 21.63 C 166.49 21.62 169.53 21.52 172.56 21.33 C 169.57 20.44 166.36 20.34 163.46 21.63 Z" />
<path fill="#86b05f" opacity="1.00" d=" M 222.33 12.08 C 221.37 9.19 221.18 6.12 222.08 3.18 C 222.56 4.03 223.52 5.71 224.00 6.55 L 224.00 21.23 C 223.12 20.39 220.82 19.52 220.47 21.29 C 221.04 22.69 222.92 22.14 224.00 21.75 L 224.00 23.35 C 223.53 24.39 223.05 25.41 222.57 26.43 C 222.10 25.27 221.65 24.12 221.20 22.96 C 219.93 23.22 218.65 23.48 217.40 23.77 C 217.67 23.24 218.23 22.16 218.50 21.63 C 219.90 18.50 221.14 15.30 222.33 12.08 Z" />
</g>
<g id="#342f2bff">
<path fill="#342f2b" opacity="1.00" d=" M 15.28 4.66 C 15.37 4.67 15.56 4.68 15.66 4.68 C 17.89 5.05 20.11 5.52 22.37 5.69 C 26.21 6.02 30.07 6.02 33.91 5.69 C 36.07 5.52 38.20 5.06 40.34 4.69 C 40.43 4.68 40.63 4.66 40.72 4.66 C 41.45 8.92 45.67 9.52 49.27 9.49 L 49.43 9.98 C 49.39 10.18 49.31 10.58 49.27 10.78 C 48.36 13.78 47.23 16.72 46.48 19.78 C 45.21 20.04 43.94 20.33 42.67 20.64 C 42.45 18.75 42.00 14.96 41.77 13.07 C 40.54 12.99 39.31 12.91 38.08 12.84 C 39.29 15.32 40.45 17.83 41.66 20.31 C 41.11 20.24 40.00 20.08 39.45 20.01 C 38.11 19.81 36.78 19.61 35.45 19.39 C 35.87 16.82 36.35 14.27 36.88 11.73 C 38.82 11.59 40.76 11.43 42.70 11.24 C 40.12 9.64 37.34 8.36 34.60 7.05 C 34.17 8.15 33.73 9.25 33.27 10.34 C 32.84 10.18 31.98 9.86 31.55 9.69 C 30.35 8.93 29.18 8.12 28.00 7.33 C 26.82 8.12 25.65 8.94 24.45 9.70 C 24.02 9.85 23.15 10.16 22.72 10.31 C 22.26 9.22 21.82 8.13 21.40 7.02 C 18.61 8.37 15.80 9.69 13.20 11.37 C 15.29 11.49 17.38 11.59 19.47 11.69 C 18.29 12.21 15.93 13.26 14.75 13.78 C 14.37 15.54 13.59 19.04 13.21 20.80 C 11.98 20.42 10.75 20.07 9.50 19.74 C 8.75 16.70 7.63 13.77 6.74 10.78 C 6.69 10.58 6.60 10.17 6.56 9.97 L 6.73 9.48 C 10.33 9.52 14.55 8.92 15.28 4.66 Z" />
<path fill="#342f2b" opacity="1.00" d=" M 71.27 4.66 C 71.37 4.67 71.56 4.68 71.66 4.68 C 73.89 5.05 76.11 5.52 78.37 5.69 C 82.21 6.02 86.07 6.02 89.91 5.69 C 92.07 5.52 94.20 5.06 96.34 4.69 C 96.43 4.68 96.63 4.66 96.73 4.66 C 97.45 8.92 101.67 9.52 105.27 9.49 L 105.42 9.97 C 105.38 10.17 105.30 10.56 105.26 10.76 C 104.35 13.90 103.21 16.98 102.51 20.18 C 101.11 20.11 99.71 20.04 98.31 19.97 L 98.20 19.11 C 98.00 17.75 97.60 15.04 97.40 13.68 C 96.24 13.24 95.06 12.83 93.88 12.43 C 95.00 14.65 96.16 16.86 97.41 19.01 C 96.91 18.99 95.91 18.94 95.41 18.92 C 94.12 18.86 92.83 18.82 91.54 18.80 C 91.93 16.43 92.42 14.09 92.89 11.74 C 94.83 11.59 96.77 11.44 98.70 11.23 C 96.11 9.63 93.34 8.38 90.61 7.05 C 90.17 8.15 89.72 9.25 89.26 10.34 C 88.83 10.18 87.98 9.86 87.55 9.69 C 86.35 8.93 85.18 8.12 84.00 7.33 C 82.82 8.12 81.65 8.94 80.45 9.70 C 80.02 9.85 79.16 10.16 78.73 10.32 C 78.27 9.23 77.82 8.13 77.38 7.03 C 74.59 8.38 71.77 9.70 69.18 11.42 C 71.22 11.46 73.26 11.50 75.29 11.51 C 74.28 12.24 72.25 13.71 71.23 14.44 C 70.90 15.59 70.24 17.90 69.91 19.05 L 69.69 19.92 C 68.29 20.01 66.89 20.10 65.49 20.19 C 64.80 16.99 63.64 13.90 62.74 10.76 C 62.70 10.56 62.62 10.16 62.58 9.96 L 62.73 9.48 C 66.33 9.52 70.55 8.92 71.27 4.66 Z" />
<path fill="#342f2b" opacity="1.00" d=" M 183.27 4.66 C 183.37 4.67 183.56 4.68 183.66 4.68 C 185.89 5.05 188.11 5.52 190.37 5.69 C 194.21 6.02 198.07 6.02 201.91 5.69 C 204.07 5.52 206.20 5.06 208.34 4.69 C 208.44 4.68 208.63 4.66 208.73 4.66 C 209.45 8.92 213.67 9.52 217.27 9.49 L 217.42 9.97 C 217.38 10.17 217.29 10.57 217.25 10.77 C 216.33 13.90 215.21 16.98 214.51 20.18 C 213.11 20.11 211.71 20.04 210.31 19.97 L 210.20 19.11 C 210.00 17.75 209.60 15.04 209.41 13.68 C 208.24 13.24 207.06 12.83 205.88 12.43 C 207.00 14.65 208.16 16.86 209.41 19.01 C 208.91 18.99 207.91 18.94 207.41 18.92 C 206.12 18.86 204.83 18.82 203.54 18.80 C 203.93 16.43 204.42 14.09 204.89 11.74 C 206.83 11.59 208.76 11.44 210.70 11.23 C 208.11 9.63 205.34 8.38 202.61 7.05 C 202.17 8.15 201.72 9.25 201.26 10.34 C 200.83 10.18 199.98 9.86 199.55 9.69 C 198.34 8.93 197.18 8.12 196.00 7.33 C 194.82 8.12 193.65 8.94 192.45 9.70 C 192.02 9.85 191.16 10.16 190.73 10.32 C 190.26 9.23 189.82 8.13 189.38 7.03 C 186.59 8.38 183.77 9.70 181.18 11.42 C 183.22 11.46 185.26 11.50 187.29 11.51 C 186.28 12.24 184.25 13.71 183.23 14.44 C 182.90 15.59 182.24 17.90 181.91 19.05 L 181.69 19.92 C 180.29 20.01 178.89 20.10 177.49 20.19 C 176.80 16.98 175.63 13.90 174.74 10.76 C 174.70 10.56 174.62 10.16 174.58 9.96 L 174.73 9.49 C 178.33 9.52 182.54 8.92 183.27 4.66 Z" />
</g>
<g id="#5d5347ff">
<path fill="#5d5347" opacity="1.00" d=" M 15.66 4.68 C 17.63 4.61 19.60 4.42 21.57 4.31 C 21.93 4.43 22.65 4.65 23.01 4.76 L 22.37 5.69 C 20.11 5.52 17.89 5.05 15.66 4.68 Z" />
<path fill="#5d5347" opacity="1.00" d=" M 33.11 5.43 C 33.39 5.16 33.94 4.61 34.21 4.34 C 36.26 4.42 38.29 4.60 40.34 4.69 C 38.20 5.06 36.07 5.52 33.91 5.69 L 33.11 5.43 Z" />
<path fill="#5d5347" opacity="1.00" d=" M 71.66 4.68 C 73.63 4.61 75.60 4.42 77.57 4.31 C 77.93 4.43 78.65 4.65 79.01 4.76 L 78.37 5.69 C 76.11 5.52 73.89 5.05 71.66 4.68 Z" />
<path fill="#5d5347" opacity="1.00" d=" M 89.11 5.43 C 89.39 5.16 89.94 4.61 90.21 4.34 C 92.25 4.42 94.29 4.60 96.34 4.69 C 94.20 5.06 92.07 5.52 89.91 5.69 L 89.11 5.43 Z" />
<path fill="#5d5347" opacity="1.00" d=" M 127.66 4.68 C 129.63 4.61 131.60 4.42 133.57 4.31 C 133.93 4.43 134.65 4.65 135.01 4.76 L 134.37 5.69 C 132.11 5.52 129.89 5.05 127.66 4.68 Z" />
<path fill="#5d5347" opacity="1.00" d=" M 145.11 5.43 C 145.39 5.16 145.94 4.61 146.21 4.34 C 148.25 4.42 150.29 4.60 152.34 4.69 C 150.20 5.06 148.07 5.52 145.91 5.69 L 145.11 5.43 Z" />
<path fill="#5d5347" opacity="1.00" d=" M 183.66 4.68 C 185.63 4.61 187.60 4.42 189.57 4.31 C 189.93 4.43 190.65 4.65 191.01 4.76 L 190.37 5.69 C 188.11 5.52 185.89 5.05 183.66 4.68 Z" />
<path fill="#5d5347" opacity="1.00" d=" M 201.11 5.43 C 201.39 5.16 201.94 4.61 202.21 4.34 C 204.25 4.42 206.29 4.60 208.34 4.69 C 206.20 5.06 204.07 5.52 201.91 5.69 L 201.11 5.43 Z" />
</g>
<g id="#342f2bfe">
<path fill="#342f2b" opacity="1.00" d=" M 127.27 4.66 C 127.37 4.67 127.56 4.68 127.66 4.68 C 129.89 5.05 132.11 5.52 134.37 5.69 C 138.21 6.02 142.07 6.02 145.91 5.69 C 148.07 5.52 150.20 5.06 152.34 4.69 C 152.44 4.68 152.63 4.66 152.73 4.66 C 153.45 8.96 157.72 9.52 161.34 9.49 L 161.55 10.03 C 161.52 10.26 161.47 10.71 161.44 10.94 C 160.35 14.44 159.15 18.16 156.17 20.52 C 155.74 20.44 154.87 20.28 154.44 20.21 C 154.38 19.56 154.26 18.26 154.20 17.61 C 154.07 16.06 153.95 14.52 153.84 12.97 C 152.42 13.03 151.00 13.08 149.58 13.14 C 150.85 14.64 152.14 16.14 153.48 17.58 C 152.90 17.60 151.73 17.62 151.15 17.63 C 149.79 17.63 148.43 17.59 147.07 17.56 C 147.78 15.64 148.50 13.73 149.22 11.82 C 151.06 11.63 152.90 11.41 154.74 11.18 C 151.83 8.90 148.09 7.53 144.43 8.75 C 141.49 8.34 138.51 8.35 135.57 8.75 C 131.85 7.48 128.05 8.93 125.17 11.36 C 127.28 11.51 129.38 11.62 131.49 11.72 C 130.17 12.14 127.52 12.99 126.20 13.42 C 126.07 14.73 125.94 16.04 125.81 17.35 C 125.74 18.06 125.59 19.47 125.51 20.17 C 125.08 20.26 124.22 20.43 123.79 20.52 C 120.86 18.13 119.65 14.42 118.56 10.94 C 118.53 10.71 118.47 10.25 118.44 10.03 L 118.66 9.48 C 122.27 9.52 126.54 8.96 127.27 4.66 Z" />
</g>
<g id="#5f584bff">
<path fill="#5f584b" opacity="1.00" d=" M 13.20 11.37 C 15.80 9.69 18.61 8.37 21.40 7.02 C 21.82 8.13 22.26 9.22 22.72 10.31 L 23.08 11.14 L 23.48 12.05 C 23.85 14.67 23.78 17.32 23.61 19.94 C 22.51 19.76 21.41 19.57 20.31 19.38 C 20.26 17.59 20.20 15.80 20.11 14.02 C 18.71 14.53 17.30 15.05 15.91 15.59 C 15.40 17.18 14.91 18.77 14.38 20.35 L 13.21 20.80 C 13.59 19.04 14.37 15.54 14.75 13.78 C 15.93 13.26 18.29 12.21 19.47 11.69 C 17.38 11.59 15.29 11.49 13.20 11.37 Z" />
</g>
<g id="#565248ff">
<path fill="#565248" opacity="1.00" d=" M 24.45 9.70 C 25.65 8.94 26.82 8.12 28.00 7.33 C 29.18 8.12 30.35 8.93 31.55 9.69 C 29.18 9.61 26.82 9.61 24.45 9.70 Z" />
<path fill="#565248" opacity="1.00" d=" M 80.45 9.70 C 81.65 8.94 82.82 8.12 84.00 7.33 C 85.18 8.12 86.35 8.93 87.55 9.69 C 85.18 9.61 82.82 9.61 80.45 9.70 Z" />
<path fill="#565248" opacity="1.00" d=" M 192.45 9.70 C 193.65 8.94 194.82 8.12 196.00 7.33 C 197.18 8.12 198.34 8.93 199.55 9.69 C 197.18 9.61 194.81 9.61 192.45 9.70 Z" />
</g>
<g id="#5b5549ff">
<path fill="#5b5549" opacity="1.00" d=" M 34.60 7.05 C 37.34 8.36 40.12 9.64 42.70 11.24 C 40.76 11.43 38.82 11.59 36.88 11.73 C 36.35 14.27 35.87 16.82 35.45 19.39 C 34.43 19.56 33.42 19.73 32.41 19.91 C 32.23 17.29 32.15 14.65 32.51 12.04 L 32.90 11.16 L 33.27 10.34 C 33.73 9.25 34.17 8.15 34.60 7.05 Z" />
</g>
<g id="#60594bff">
<path fill="#60594b" opacity="1.00" d=" M 69.18 11.42 C 71.77 9.70 74.59 8.38 77.38 7.03 C 77.82 8.13 78.27 9.23 78.73 10.32 L 79.08 11.14 L 79.47 12.05 C 79.74 14.31 79.80 16.59 79.71 18.87 C 78.57 18.83 77.42 18.81 76.27 18.80 C 76.22 17.22 76.16 15.64 76.10 14.07 C 74.89 14.46 73.69 14.84 72.48 15.23 C 71.85 16.48 71.23 17.73 70.56 18.96 L 69.91 19.05 C 70.24 17.90 70.90 15.59 71.23 14.44 C 72.25 13.71 74.28 12.24 75.29 11.51 C 73.26 11.50 71.22 11.46 69.18 11.42 Z" />
<path fill="#60594b" opacity="1.00" d=" M 181.18 11.42 C 183.77 9.70 186.59 8.38 189.38 7.03 C 189.82 8.13 190.26 9.23 190.73 10.32 L 191.08 11.14 L 191.47 12.05 C 191.74 14.31 191.80 16.59 191.71 18.87 C 190.57 18.83 189.42 18.81 188.27 18.80 C 188.22 17.22 188.16 15.64 188.10 14.07 C 186.89 14.46 185.69 14.84 184.48 15.23 C 183.85 16.48 183.23 17.73 182.56 18.96 L 181.91 19.05 C 182.24 17.90 182.90 15.59 183.23 14.44 C 184.25 13.71 186.28 12.24 187.29 11.51 C 185.26 11.50 183.22 11.46 181.18 11.42 Z" />
</g>
<g id="#5c554aff">
<path fill="#5c554a" opacity="1.00" d=" M 90.61 7.05 C 93.34 8.38 96.11 9.63 98.70 11.23 C 96.77 11.44 94.83 11.59 92.89 11.74 C 92.42 14.09 91.93 16.43 91.54 18.80 C 90.46 18.80 89.38 18.81 88.30 18.84 C 88.22 16.57 88.27 14.29 88.53 12.03 L 88.90 11.16 L 89.26 10.34 C 89.72 9.25 90.17 8.15 90.61 7.05 Z" />
<path fill="#5c554a" opacity="1.00" d=" M 202.61 7.05 C 205.34 8.38 208.11 9.63 210.70 11.23 C 208.76 11.44 206.83 11.59 204.89 11.74 C 204.42 14.09 203.93 16.43 203.54 18.80 C 202.46 18.80 201.37 18.81 200.30 18.84 C 200.22 16.57 200.27 14.29 200.53 12.03 L 200.90 11.16 L 201.26 10.34 C 201.72 9.25 202.17 8.15 202.61 7.05 Z" />
</g>
<g id="#5f574aff">
<path fill="#5f574a" opacity="1.00" d=" M 125.17 11.36 C 128.05 8.93 131.85 7.48 135.57 8.75 C 138.51 8.35 141.49 8.34 144.43 8.75 C 148.09 7.53 151.83 8.90 154.74 11.18 C 152.90 11.41 151.06 11.63 149.22 11.82 C 148.50 13.73 147.78 15.64 147.07 17.56 C 146.34 17.69 144.88 17.95 144.15 18.08 C 144.26 16.07 144.47 14.08 144.80 12.10 L 144.97 11.19 C 142.50 11.21 137.57 11.23 135.10 11.24 L 135.25 12.15 C 135.54 14.19 135.67 16.25 135.65 18.32 C 135.16 17.95 134.17 17.22 133.68 16.85 C 132.79 16.06 131.92 15.25 131.06 14.44 C 129.51 15.40 127.98 16.40 126.42 17.35 L 125.81 17.35 C 125.94 16.04 126.07 14.73 126.20 13.42 C 127.52 12.99 130.17 12.14 131.49 11.72 C 129.38 11.62 127.28 11.51 125.17 11.36 Z" />
</g>
<g id="#75634eff">
<path fill="#75634e" opacity="1.00" d=" M 22.72 10.31 C 23.15 10.16 24.02 9.85 24.45 9.70 C 26.82 9.61 29.18 9.61 31.55 9.69 C 31.98 9.86 32.84 10.18 33.27 10.34 L 32.90 11.16 C 29.63 11.23 26.35 11.29 23.08 11.14 L 22.72 10.31 Z" />
<path fill="#75634e" opacity="1.00" d=" M 78.73 10.32 C 79.16 10.16 80.02 9.85 80.45 9.70 C 82.82 9.61 85.18 9.61 87.55 9.69 C 87.98 9.86 88.83 10.18 89.26 10.34 L 88.90 11.16 C 85.62 11.22 82.36 11.29 79.08 11.14 L 78.73 10.32 Z" />
<path fill="#75634e" opacity="1.00" d=" M 190.73 10.32 C 191.16 10.16 192.02 9.85 192.45 9.70 C 194.81 9.61 197.18 9.61 199.55 9.69 C 199.98 9.86 200.83 10.18 201.26 10.34 L 200.90 11.16 C 197.61 11.22 194.36 11.29 191.08 11.14 L 190.73 10.32 Z" />
</g>
<g id="#4b5745ff">
<path fill="#4b5745" opacity="1.00" d=" M 5.49 21.57 C 5.93 17.98 6.47 14.39 6.74 10.78 C 7.63 13.77 8.75 16.70 9.50 19.74 C 9.63 20.82 9.74 21.90 9.84 22.99 C 8.38 22.56 6.93 22.07 5.49 21.57 Z" />
<path fill="#4b5745" opacity="1.00" d=" M 49.27 10.78 C 49.52 14.40 50.07 18.00 50.53 21.61 C 49.11 22.15 47.69 22.71 46.22 23.12 C 46.29 22.00 46.38 20.89 46.48 19.78 C 47.23 16.72 48.36 13.78 49.27 10.78 Z" />
<path fill="#4b5745" opacity="1.00" d=" M 61.44 21.65 C 61.91 18.03 62.48 14.41 62.74 10.76 C 63.64 13.90 64.80 16.99 65.49 20.19 C 65.64 21.09 65.78 22.00 65.91 22.91 C 64.42 22.52 62.93 22.09 61.44 21.65 Z" />
<path fill="#4b5745" opacity="1.00" d=" M 105.26 10.76 C 105.52 14.40 106.07 18.02 106.53 21.64 C 105.05 22.08 103.58 22.52 102.09 22.90 C 102.22 21.99 102.36 21.08 102.51 20.18 C 103.21 16.98 104.35 13.90 105.26 10.76 Z" />
<path fill="#4b5745" opacity="1.00" d=" M 173.44 21.65 C 173.91 18.02 174.48 14.41 174.74 10.76 C 175.63 13.90 176.80 16.98 177.49 20.19 C 177.64 21.09 177.78 22.00 177.91 22.91 C 176.42 22.52 174.93 22.09 173.44 21.65 Z" />
<path fill="#4b5745" opacity="1.00" d=" M 217.25 10.77 C 217.53 14.40 218.08 18.01 218.50 21.63 C 217.04 22.07 215.57 22.51 214.09 22.90 C 214.22 21.99 214.36 21.08 214.51 20.18 C 215.21 16.98 216.33 13.90 217.25 10.77 Z" />
</g>
<g id="#9c894eff">
<path fill="#9c894e" opacity="1.00" d=" M 23.08 11.14 C 26.35 11.29 29.63 11.23 32.90 11.16 L 32.51 12.04 C 29.50 12.22 26.48 12.30 23.48 12.05 L 23.08 11.14 Z" />
<path fill="#9c894e" opacity="1.00" d=" M 79.08 11.14 C 82.36 11.29 85.62 11.22 88.90 11.16 L 88.53 12.03 C 85.51 12.21 82.48 12.27 79.47 12.05 L 79.08 11.14 Z" />
<path fill="#9c894e" opacity="1.00" d=" M 135.10 11.24 C 137.57 11.23 142.50 11.21 144.97 11.19 L 144.80 12.10 C 141.62 12.27 138.43 12.33 135.25 12.15 L 135.10 11.24 Z" />
<path fill="#9c894e" opacity="1.00" d=" M 191.08 11.14 C 194.36 11.29 197.61 11.22 200.90 11.16 L 200.53 12.03 C 197.51 12.21 194.48 12.27 191.47 12.05 L 191.08 11.14 Z" />
</g>
<g id="#515946ff">
<path fill="#515946" opacity="1.00" d=" M 117.46 21.66 C 117.94 18.10 118.50 14.53 118.56 10.94 C 119.65 14.42 120.86 18.13 123.79 20.52 C 123.75 20.94 123.69 21.79 123.66 22.22 L 123.85 23.41 C 121.70 22.90 119.57 22.31 117.46 21.66 Z" />
<path fill="#515946" opacity="1.00" d=" M 161.44 10.94 C 161.51 14.53 162.05 18.09 162.51 21.64 C 160.40 22.30 158.28 22.90 156.13 23.41 L 156.31 22.21 C 156.27 21.79 156.20 20.94 156.17 20.52 C 159.15 18.16 160.35 14.44 161.44 10.94 Z" />
</g>
<g id="#76644eff">
<path fill="#76644e" opacity="1.00" d=" M 23.48 12.05 C 26.48 12.30 29.50 12.22 32.51 12.04 C 32.15 14.65 32.23 17.29 32.41 19.91 C 31.91 19.91 30.90 19.91 30.39 19.91 C 30.42 18.44 30.10 16.97 29.42 15.67 L 28.96 15.67 C 28.48 15.67 27.52 15.67 27.04 15.68 L 26.58 15.68 C 25.90 16.99 25.59 18.46 25.62 19.93 C 25.11 19.94 24.11 19.94 23.61 19.94 C 23.78 17.32 23.85 14.67 23.48 12.05 Z" />
<path fill="#76644e" opacity="1.00" d=" M 79.47 12.05 C 82.48 12.27 85.51 12.21 88.53 12.03 C 88.27 14.29 88.22 16.57 88.30 18.84 C 87.84 18.85 86.94 18.86 86.49 18.87 C 86.48 17.71 86.16 16.64 85.53 15.67 L 84.96 15.67 C 84.48 15.68 83.52 15.68 83.04 15.69 L 82.47 15.69 C 81.84 16.67 81.53 17.74 81.53 18.90 C 81.07 18.89 80.17 18.88 79.71 18.87 C 79.80 16.59 79.74 14.31 79.47 12.05 Z" />
<path fill="#76644e" opacity="1.00" d=" M 191.47 12.05 C 194.48 12.27 197.51 12.21 200.53 12.03 C 200.27 14.29 200.22 16.57 200.30 18.84 C 199.84 18.85 198.94 18.86 198.49 18.87 C 198.48 17.71 198.16 16.64 197.53 15.67 L 196.96 15.67 C 196.48 15.68 195.52 15.68 195.04 15.69 L 194.47 15.69 C 193.84 16.67 193.53 17.74 193.53 18.90 C 193.07 18.89 192.17 18.88 191.71 18.87 C 191.80 16.59 191.74 14.31 191.47 12.05 Z" />
</g>
<g id="#6f5f4dff">
<path fill="#6f5f4d" opacity="1.00" d=" M 135.25 12.15 C 138.43 12.33 141.62 12.27 144.80 12.10 C 144.47 14.08 144.26 16.07 144.15 18.08 C 143.04 18.15 141.93 18.23 140.83 18.32 C 142.95 14.67 137.01 14.81 139.19 18.39 C 138.01 18.37 136.83 18.37 135.65 18.32 C 135.67 16.25 135.54 14.19 135.25 12.15 Z" />
</g>
<g id="#716955fe">
<path fill="#716955" opacity="1.00" d=" M 38.08 12.84 C 39.31 12.91 40.54 12.99 41.77 13.07 C 42.00 14.96 42.45 18.75 42.67 20.64 L 41.66 20.31 C 40.45 17.83 39.29 15.32 38.08 12.84 Z" />
</g>
<g id="#746b56ff">
<path fill="#746b56" opacity="1.00" d=" M 93.88 12.43 C 95.06 12.83 96.24 13.24 97.40 13.68 C 97.60 15.04 98.00 17.75 98.20 19.11 L 97.41 19.01 C 96.16 16.86 95.00 14.65 93.88 12.43 Z" />
<path fill="#746b56" opacity="1.00" d=" M 205.88 12.43 C 207.06 12.83 208.24 13.24 209.41 13.68 C 209.60 15.04 210.00 17.75 210.20 19.11 L 209.41 19.01 C 208.16 16.86 207.00 14.65 205.88 12.43 Z" />
</g>
<g id="#71654bff">
<path fill="#71654b" opacity="1.00" d=" M 149.58 13.14 C 151.00 13.08 152.42 13.03 153.84 12.97 C 153.95 14.52 154.07 16.06 154.20 17.61 L 153.48 17.58 C 152.14 16.14 150.85 14.64 149.58 13.14 Z" />
</g>
<g id="#322e2aff">
<path fill="#322e2a" opacity="1.00" d=" M 15.91 15.59 C 17.30 15.05 18.71 14.53 20.11 14.02 C 20.20 15.80 20.26 17.59 20.31 19.38 C 19.08 19.59 17.85 19.80 16.63 20.00 C 16.07 20.09 14.94 20.26 14.38 20.35 C 14.91 18.77 15.40 17.18 15.91 15.59 Z" />
</g>
<g id="#332e2aff">
<path fill="#332e2a" opacity="1.00" d=" M 72.48 15.23 C 73.69 14.84 74.89 14.46 76.10 14.07 C 76.16 15.64 76.22 17.22 76.27 18.80 C 75.04 18.81 73.82 18.83 72.59 18.87 C 72.08 18.90 71.07 18.94 70.56 18.96 C 71.23 17.73 71.85 16.48 72.48 15.23 Z" />
<path fill="#332e2a" opacity="1.00" d=" M 126.42 17.35 C 127.98 16.40 129.51 15.40 131.06 14.44 C 131.92 15.25 132.79 16.06 133.68 16.85 C 132.07 17.10 130.48 17.36 128.86 17.53 C 128.25 17.48 127.03 17.40 126.42 17.35 Z" />
<path fill="#332e2a" opacity="1.00" d=" M 184.48 15.23 C 185.69 14.84 186.89 14.46 188.10 14.07 C 188.16 15.64 188.22 17.22 188.27 18.80 C 187.04 18.81 185.81 18.83 184.59 18.87 C 184.08 18.90 183.07 18.94 182.56 18.96 C 183.23 17.73 183.85 16.48 184.48 15.23 Z" />
<path fill="#332e2a" opacity="1.00" d=" M 27.04 15.68 C 27.52 15.67 28.48 15.67 28.96 15.67 C 28.56 17.05 28.45 18.50 28.71 19.91 C 28.36 19.91 27.65 19.92 27.29 19.92 C 27.55 18.51 27.44 17.05 27.04 15.68 Z" />
<path fill="#332e2a" opacity="1.00" d=" M 83.04 15.69 C 83.52 15.68 84.48 15.68 84.96 15.67 C 84.52 16.72 84.41 17.79 84.62 18.90 C 84.31 18.91 83.70 18.91 83.39 18.91 C 83.59 17.80 83.48 16.73 83.04 15.69 Z" />
<path fill="#332e2a" opacity="1.00" d=" M 139.19 18.39 C 137.01 14.81 142.95 14.67 140.83 18.32 C 140.42 18.34 139.60 18.37 139.19 18.39 Z" />
<path fill="#332e2a" opacity="1.00" d=" M 195.04 15.69 C 195.52 15.68 196.48 15.68 196.96 15.67 C 196.52 16.72 196.41 17.79 196.62 18.90 C 196.31 18.91 195.70 18.91 195.39 18.91 C 195.59 17.80 195.48 16.73 195.04 15.69 Z" />
<path fill="#332e2a" opacity="1.00" d=" M 5.65 32.84 C 8.11 32.79 10.58 32.79 13.04 32.87 C 13.08 33.53 13.18 34.85 13.22 35.52 C 13.28 35.88 13.39 36.61 13.44 36.98 C 12.95 37.11 11.97 37.37 11.48 37.51 C 9.20 36.85 8.96 39.92 11.38 39.30 L 11.46 40.36 C 11.56 41.55 11.66 42.75 11.72 43.95 C 11.69 45.09 11.51 46.30 12.00 47.38 C 12.45 48.52 12.94 49.65 13.46 50.76 L 13.76 51.36 C 12.07 51.48 10.38 51.61 8.69 51.81 C 7.60 51.90 6.58 52.21 5.62 52.73 C 5.61 52.35 5.58 51.57 5.57 51.19 C 6.63 50.69 7.70 50.20 8.77 49.70 C 7.52 44.49 6.48 39.23 5.80 33.91 L 5.65 32.84 M 7.04 35.00 C 7.02 35.78 6.98 37.34 6.96 38.12 C 8.74 37.13 10.51 36.14 12.28 35.14 C 10.53 35.08 8.79 35.04 7.04 35.00 Z" />
<path fill="#332e2a" opacity="1.00" d=" M 42.82 32.91 C 45.37 32.81 47.92 32.79 50.46 32.84 L 50.25 33.81 C 49.36 38.98 48.47 44.15 47.43 49.30 C 48.54 50.07 49.65 50.84 50.73 51.66 L 50.91 52.23 L 49.89 51.96 C 49.03 51.70 48.14 51.57 47.23 51.59 C 45.56 51.55 43.88 51.52 42.21 51.48 L 42.54 50.82 C 43.06 49.69 43.54 48.54 43.99 47.38 C 44.48 46.30 44.30 45.09 44.27 43.94 C 44.36 42.72 44.51 41.51 44.64 40.29 L 44.74 39.42 C 47.24 39.66 46.47 36.65 44.32 37.69 C 43.92 37.48 43.11 37.04 42.70 36.83 C 42.70 36.49 42.71 35.83 42.71 35.49 C 42.74 34.85 42.80 33.56 42.82 32.91 M 43.72 35.14 C 45.49 36.14 47.26 37.13 49.04 38.12 C 49.02 37.34 48.98 35.78 48.96 35.00 C 47.21 35.04 45.47 35.08 43.72 35.14 Z" />
<path fill="#332e2a" opacity="1.00" d=" M 61.49 32.81 C 64.06 32.82 66.62 32.94 69.18 33.22 L 68.84 34.65 C 68.79 34.87 68.68 35.32 68.63 35.54 C 68.45 36.17 68.09 37.43 67.91 38.06 C 66.03 36.33 64.84 39.92 67.41 39.57 L 67.11 40.44 C 66.61 41.74 67.04 42.62 68.39 43.09 L 68.03 43.66 C 67.12 44.71 67.12 46.21 67.63 47.44 C 67.80 48.39 68.18 49.23 68.78 49.94 L 69.39 50.54 L 70.02 51.14 C 68.27 51.30 66.51 51.45 64.76 51.57 C 63.84 51.62 62.94 51.75 62.05 51.97 L 60.80 52.27 L 61.01 51.64 C 62.18 50.84 63.39 50.09 64.59 49.35 C 63.52 44.20 62.67 39.01 61.75 33.84 L 61.49 32.81 M 63.04 35.00 C 63.02 35.78 62.98 37.34 62.96 38.12 C 64.73 37.13 66.51 36.14 68.28 35.14 C 66.53 35.08 64.78 35.04 63.04 35.00 Z" />
<path fill="#332e2a" opacity="1.00" d=" M 98.88 33.19 C 101.40 32.93 103.93 32.80 106.47 32.77 L 106.24 33.79 C 105.36 38.96 104.47 44.15 103.43 49.30 C 104.54 50.07 105.65 50.84 106.73 51.66 L 106.91 52.24 L 105.90 51.98 C 105.03 51.72 104.14 51.59 103.23 51.58 C 101.56 51.50 99.89 51.40 98.23 51.30 L 98.92 50.44 L 99.66 49.48 C 99.93 48.83 100.20 48.19 100.45 47.54 C 101.02 46.32 101.15 44.50 99.93 43.63 L 99.45 43.20 C 100.69 42.68 101.18 41.77 100.92 40.48 L 100.76 39.17 C 103.11 40.46 102.72 37.06 100.61 37.31 C 100.02 37.00 98.85 36.39 98.27 36.09 C 98.42 35.36 98.72 33.92 98.88 33.19 M 99.72 35.14 C 101.49 36.14 103.26 37.13 105.04 38.12 C 105.02 37.34 104.98 35.78 104.96 35.00 C 103.21 35.04 101.47 35.08 99.72 35.14 Z" />
<path fill="#332e2a" opacity="1.00" d=" M 117.49 32.88 C 120.00 32.83 122.52 32.84 125.03 32.96 L 124.80 33.86 C 124.42 35.29 124.01 36.72 123.60 38.14 C 121.97 36.00 120.76 39.34 123.05 39.76 C 123.41 43.37 123.69 47.01 124.65 50.53 L 125.08 51.45 C 123.64 51.50 122.20 51.54 120.76 51.59 C 119.84 51.59 118.94 51.71 118.05 51.95 L 116.80 52.26 L 117.01 51.63 C 118.18 50.84 119.39 50.09 120.60 49.35 C 119.53 44.21 118.67 39.03 117.75 33.86 L 117.49 32.88 M 119.04 35.00 C 119.02 35.78 118.98 37.34 118.96 38.12 C 120.73 37.13 122.51 36.14 124.28 35.14 C 122.53 35.08 120.78 35.04 119.04 35.00 Z" />
<path fill="#332e2a" opacity="1.00" d=" M 155.00 32.96 C 157.49 32.84 159.97 32.80 162.46 32.82 L 162.24 33.81 C 161.35 38.98 160.47 44.15 159.43 49.30 C 160.54 50.07 161.65 50.84 162.73 51.66 L 162.91 52.23 L 161.90 51.96 C 161.03 51.71 160.14 51.58 159.23 51.59 C 157.79 51.55 156.35 51.50 154.91 51.46 L 155.35 50.56 C 156.31 47.03 156.59 43.38 156.94 39.76 C 159.23 39.35 158.03 36.00 156.40 38.14 C 155.99 36.71 155.59 35.29 155.23 33.86 L 155.00 32.96 M 155.72 35.14 C 157.49 36.14 159.26 37.13 161.04 38.12 C 161.02 37.34 160.98 35.78 160.96 35.00 C 159.21 35.04 157.47 35.08 155.72 35.14 Z" />
<path fill="#332e2a" opacity="1.00" d=" M 173.49 32.83 C 176.06 32.83 178.63 32.92 181.20 33.13 L 180.87 34.31 C 180.75 34.70 180.53 35.50 180.42 35.89 C 180.27 36.42 179.98 37.47 179.84 38.00 C 177.93 36.33 176.83 39.95 179.38 39.54 L 179.10 40.43 C 178.63 41.73 179.06 42.62 180.39 43.09 L 180.03 43.66 C 179.12 44.71 179.12 46.21 179.63 47.44 C 179.80 48.39 180.18 49.23 180.78 49.94 L 181.39 50.54 L 182.02 51.14 C 180.26 51.30 178.51 51.45 176.76 51.57 C 175.84 51.62 174.94 51.75 174.05 51.97 L 172.80 52.27 L 173.01 51.64 C 174.18 50.84 175.39 50.09 176.59 49.35 C 175.52 44.20 174.67 39.02 173.75 33.84 L 173.49 32.83 M 175.04 35.00 C 175.02 35.78 174.98 37.34 174.96 38.12 C 176.73 37.13 178.51 36.14 180.28 35.14 C 178.53 35.08 176.78 35.04 175.04 35.00 Z" />
<path fill="#332e2a" opacity="1.00" d=" M 210.69 33.08 C 213.24 32.88 215.79 32.79 218.35 32.78 L 218.20 33.89 C 217.52 39.21 216.48 44.48 215.23 49.70 C 216.29 50.20 217.37 50.69 218.43 51.19 C 218.42 51.58 218.40 52.35 218.39 52.74 C 217.41 52.25 216.38 51.94 215.30 51.82 C 213.62 51.56 211.94 51.34 210.26 51.12 L 210.92 50.39 L 211.68 49.52 C 211.95 48.87 212.20 48.20 212.45 47.54 C 213.00 46.31 213.13 44.52 211.94 43.62 L 211.46 43.16 C 212.72 42.67 213.21 41.78 212.94 40.47 L 212.77 39.16 C 215.12 40.45 214.72 37.04 212.62 37.29 C 211.99 37.02 210.73 36.48 210.10 36.21 C 210.20 35.79 210.40 34.95 210.51 34.52 L 210.69 33.08 M 211.72 35.14 C 213.49 36.14 215.26 37.13 217.04 38.12 C 217.02 37.34 216.98 35.78 216.96 35.00 C 215.21 35.04 213.46 35.08 211.72 35.14 Z" />
</g>
<g id="#565249ff">
<path fill="#565249" opacity="1.00" d=" M 26.58 15.68 L 27.04 15.68 C 27.44 17.05 27.55 18.51 27.29 19.92 C 26.87 19.92 26.04 19.93 25.62 19.93 C 25.59 18.46 25.90 16.99 26.58 15.68 Z" />
<path fill="#565249" opacity="1.00" d=" M 28.96 15.67 L 29.42 15.67 C 30.10 16.97 30.42 18.44 30.39 19.91 C 29.97 19.91 29.13 19.91 28.71 19.91 C 28.45 18.50 28.56 17.05 28.96 15.67 Z" />
<path fill="#565249" opacity="1.00" d=" M 82.47 15.69 L 83.04 15.69 C 83.48 16.73 83.59 17.80 83.39 18.91 C 82.93 18.91 81.99 18.90 81.53 18.90 C 81.53 17.74 81.84 16.67 82.47 15.69 Z" />
<path fill="#565249" opacity="1.00" d=" M 84.96 15.67 L 85.53 15.67 C 86.16 16.64 86.48 17.71 86.49 18.87 C 86.02 18.88 85.09 18.90 84.62 18.90 C 84.41 17.79 84.52 16.72 84.96 15.67 Z" />
<path fill="#565249" opacity="1.00" d=" M 194.47 15.69 L 195.04 15.69 C 195.48 16.73 195.59 17.80 195.39 18.91 C 194.93 18.91 193.99 18.90 193.53 18.90 C 193.53 17.74 193.84 16.67 194.47 15.69 Z" />
<path fill="#565249" opacity="1.00" d=" M 196.96 15.67 L 197.53 15.67 C 198.16 16.64 198.48 17.71 198.49 18.87 C 198.02 18.88 197.09 18.90 196.62 18.90 C 196.41 17.79 196.52 16.72 196.96 15.67 Z" />
<path fill="#565249" opacity="1.00" d=" M 7.04 35.00 C 8.79 35.04 10.53 35.08 12.28 35.14 C 10.51 36.14 8.74 37.13 6.96 38.12 C 6.98 37.34 7.02 35.78 7.04 35.00 Z" />
<path fill="#565249" opacity="1.00" d=" M 43.72 35.14 C 45.47 35.08 47.21 35.04 48.96 35.00 C 48.98 35.78 49.02 37.34 49.04 38.12 C 47.26 37.13 45.49 36.14 43.72 35.14 Z" />
<path fill="#565249" opacity="1.00" d=" M 63.04 35.00 C 64.78 35.04 66.53 35.08 68.28 35.14 C 66.51 36.14 64.73 37.13 62.96 38.12 C 62.98 37.34 63.02 35.78 63.04 35.00 Z" />
<path fill="#565249" opacity="1.00" d=" M 99.72 35.14 C 101.47 35.08 103.21 35.04 104.96 35.00 C 104.98 35.78 105.02 37.34 105.04 38.12 C 103.26 37.13 101.49 36.14 99.72 35.14 Z" />
<path fill="#565249" opacity="1.00" d=" M 119.04 35.00 C 120.78 35.04 122.53 35.08 124.28 35.14 C 122.51 36.14 120.73 37.13 118.96 38.12 C 118.98 37.34 119.02 35.78 119.04 35.00 Z" />
<path fill="#565249" opacity="1.00" d=" M 155.72 35.14 C 157.47 35.08 159.21 35.04 160.96 35.00 C 160.98 35.78 161.02 37.34 161.04 38.12 C 159.26 37.13 157.49 36.14 155.72 35.14 Z" />
<path fill="#565249" opacity="1.00" d=" M 175.04 35.00 C 176.78 35.04 178.53 35.08 180.28 35.14 C 178.51 36.14 176.73 37.13 174.96 38.12 C 174.98 37.34 175.02 35.78 175.04 35.00 Z" />
<path fill="#565249" opacity="1.00" d=" M 211.72 35.14 C 213.46 35.08 215.21 35.04 216.96 35.00 C 216.98 35.78 217.02 37.34 217.04 38.12 C 215.26 37.13 213.49 36.14 211.72 35.14 Z" />
<path fill="#565249" opacity="1.00" d=" M 11.38 39.30 C 8.96 39.92 9.20 36.85 11.48 37.51 C 11.45 37.95 11.40 38.85 11.38 39.30 Z" />
<path fill="#565249" opacity="1.00" d=" M 44.32 37.69 C 46.47 36.65 47.24 39.66 44.74 39.42 C 44.63 38.99 44.43 38.13 44.32 37.69 Z" />
<path fill="#565249" opacity="1.00" d=" M 67.41 39.57 C 64.84 39.92 66.03 36.33 67.91 38.06 C 67.78 38.43 67.53 39.19 67.41 39.57 Z" />
<path fill="#565249" opacity="1.00" d=" M 100.61 37.31 C 102.72 37.06 103.11 40.46 100.76 39.17 C 100.72 38.71 100.65 37.77 100.61 37.31 Z" />
<path fill="#565249" opacity="1.00" d=" M 123.05 39.76 C 120.76 39.34 121.97 36.00 123.60 38.14 C 123.46 38.54 123.19 39.35 123.05 39.76 Z" />
<path fill="#565249" opacity="1.00" d=" M 156.40 38.14 C 158.03 36.00 159.23 39.35 156.94 39.76 C 156.81 39.35 156.54 38.54 156.40 38.14 Z" />
<path fill="#565249" opacity="1.00" d=" M 179.38 39.54 C 176.83 39.95 177.93 36.33 179.84 38.00 C 179.72 38.39 179.49 39.15 179.38 39.54 Z" />
<path fill="#565249" opacity="1.00" d=" M 212.62 37.29 C 214.72 37.04 215.12 40.45 212.77 39.16 C 212.74 38.69 212.66 37.76 212.62 37.29 Z" />
</g>
<g id="#3088d3ff">
<path fill="#3088d3" opacity="1.00" d=" M 125.81 17.35 L 126.42 17.35 C 127.03 17.40 128.25 17.48 128.86 17.53 C 131.12 17.82 133.38 18.09 135.65 18.32 C 136.83 18.37 138.01 18.37 139.19 18.39 C 139.60 18.37 140.42 18.34 140.83 18.32 C 141.93 18.23 143.04 18.15 144.15 18.08 C 146.47 17.91 148.81 17.76 151.15 17.63 C 151.73 17.62 152.90 17.60 153.48 17.58 L 154.20 17.61 C 154.26 18.26 154.38 19.56 154.44 20.21 C 154.41 21.54 155.03 22.21 156.31 22.21 L 156.13 23.41 C 155.79 25.63 155.42 27.84 155.12 30.06 C 155.05 30.64 154.92 31.80 154.86 32.38 C 153.68 29.51 152.26 26.74 150.84 23.99 C 151.77 23.91 153.64 23.76 154.57 23.68 C 154.23 23.24 153.54 22.35 153.19 21.90 C 152.95 21.61 152.45 21.01 152.20 20.71 C 143.92 19.69 134.40 17.58 126.74 21.78 C 126.48 21.97 125.94 22.35 125.67 22.54 C 126.39 23.14 127.82 24.32 128.54 24.92 C 127.35 27.38 126.17 29.84 125.18 32.40 C 125.11 31.81 124.97 30.64 124.90 30.06 C 124.58 27.83 124.19 25.63 123.85 23.41 L 123.66 22.22 C 124.92 22.19 125.54 21.51 125.51 20.17 C 125.59 19.47 125.74 18.06 125.81 17.35 Z" />
</g>
<g id="#8fa8baff">
<path fill="#8fa8ba" opacity="1.00" d=" M 128.86 17.53 C 130.48 17.36 132.07 17.10 133.68 16.85 C 134.17 17.22 135.16 17.95 135.65 18.32 C 133.38 18.09 131.12 17.82 128.86 17.53 Z" />
<path fill="#8fa8ba" opacity="1.00" d=" M 147.07 17.56 C 148.43 17.59 149.79 17.63 151.15 17.63 C 148.81 17.76 146.47 17.91 144.15 18.08 C 144.88 17.95 146.34 17.69 147.07 17.56 Z" />
<path fill="#8fa8ba" opacity="1.00" d=" M 72.59 18.87 C 73.82 18.83 75.04 18.81 76.27 18.80 C 77.42 18.81 78.57 18.83 79.71 18.87 C 77.34 18.86 74.96 18.86 72.59 18.87 Z" />
<path fill="#8fa8ba" opacity="1.00" d=" M 88.30 18.84 C 89.38 18.81 90.46 18.80 91.54 18.80 C 92.83 18.82 94.12 18.86 95.41 18.92 C 93.03 18.87 90.66 18.84 88.30 18.84 Z" />
<path fill="#8fa8ba" opacity="1.00" d=" M 184.59 18.87 C 185.81 18.83 187.04 18.81 188.27 18.80 C 189.42 18.81 190.57 18.83 191.71 18.87 C 189.33 18.86 186.96 18.86 184.59 18.87 Z" />
<path fill="#8fa8ba" opacity="1.00" d=" M 200.30 18.84 C 201.37 18.81 202.46 18.80 203.54 18.80 C 204.83 18.82 206.12 18.86 207.41 18.92 C 205.03 18.87 202.66 18.84 200.30 18.84 Z" />
<path fill="#8fa8ba" opacity="1.00" d=" M 16.63 20.00 C 17.85 19.80 19.08 19.59 20.31 19.38 C 21.41 19.57 22.51 19.76 23.61 19.94 C 21.28 19.96 18.95 19.97 16.63 20.00 Z" />
<path fill="#8fa8ba" opacity="1.00" d=" M 32.41 19.91 C 33.42 19.73 34.43 19.56 35.45 19.39 C 36.78 19.61 38.11 19.81 39.45 20.01 C 37.10 19.94 34.76 19.91 32.41 19.91 Z" />
</g>
<g id="#3087d3ff">
<path fill="#3087d3" opacity="1.00" d=" M 69.91 19.05 L 70.56 18.96 C 71.07 18.94 72.08 18.90 72.59 18.87 C 74.96 18.86 77.34 18.86 79.71 18.87 C 80.17 18.88 81.07 18.89 81.53 18.90 C 81.99 18.90 82.93 18.91 83.39 18.91 C 83.70 18.91 84.31 18.91 84.62 18.90 C 85.09 18.90 86.02 18.88 86.49 18.87 C 86.94 18.86 87.84 18.85 88.30 18.84 C 90.66 18.84 93.03 18.87 95.41 18.92 C 95.91 18.94 96.91 18.99 97.41 19.01 L 98.20 19.11 L 98.31 19.97 L 98.42 20.77 C 98.28 22.22 98.87 23.09 100.19 23.37 C 99.70 26.36 99.17 29.35 98.65 32.33 C 97.70 29.76 96.47 27.31 95.13 24.92 C 95.98 24.85 97.68 24.72 98.53 24.65 C 98.19 24.21 97.53 23.34 97.19 22.91 C 96.95 22.60 96.45 22.00 96.20 21.69 C 88.12 20.07 79.77 20.17 71.64 21.38 C 71.40 21.74 70.93 22.48 70.69 22.85 C 70.45 23.24 69.95 24.03 69.71 24.42 C 70.45 24.61 71.92 24.99 72.66 25.18 C 71.43 27.47 70.28 29.82 69.40 32.27 C 68.85 29.31 68.29 26.34 67.78 23.37 C 69.10 23.06 69.67 22.18 69.50 20.72 L 69.69 19.92 L 69.91 19.05 Z" />
<path fill="#3087d3" opacity="1.00" d=" M 181.91 19.05 L 182.56 18.96 C 183.07 18.94 184.08 18.90 184.59 18.87 C 186.96 18.86 189.33 18.86 191.71 18.87 C 192.17 18.88 193.07 18.89 193.53 18.90 C 193.99 18.90 194.93 18.91 195.39 18.91 C 195.70 18.91 196.31 18.91 196.62 18.90 C 197.09 18.90 198.02 18.88 198.49 18.87 C 198.94 18.86 199.84 18.85 200.30 18.84 C 202.66 18.84 205.03 18.87 207.41 18.92 C 207.91 18.94 208.91 18.99 209.41 19.01 L 210.20 19.11 L 210.31 19.97 L 210.41 20.76 C 210.27 22.21 210.85 23.08 212.17 23.38 C 211.72 26.33 211.24 29.27 210.80 32.22 C 209.73 29.71 208.45 27.29 207.09 24.93 C 207.95 24.86 209.67 24.72 210.53 24.66 C 210.20 24.22 209.52 23.34 209.19 22.90 C 208.94 22.60 208.45 22.00 208.21 21.70 C 199.67 20.29 190.51 19.34 182.22 22.38 C 182.79 23.80 183.45 25.19 184.01 26.61 C 183.08 28.47 182.19 30.35 181.44 32.28 C 180.87 29.31 180.29 26.35 179.77 23.37 C 181.09 23.06 181.66 22.18 181.50 20.72 L 181.69 19.92 L 181.91 19.05 Z" />
</g>
<g id="#64569bff">
<path fill="#64569b" opacity="1.00" d=" M 126.74 21.78 C 134.40 17.58 143.92 19.69 152.20 20.71 C 152.45 21.01 152.95 21.61 153.19 21.90 C 144.39 22.58 135.53 22.78 126.74 21.78 Z" />
<path fill="#64569b" opacity="1.00" d=" M 71.64 21.38 C 79.77 20.17 88.12 20.07 96.20 21.69 C 96.45 22.00 96.95 22.60 97.19 22.91 C 88.37 23.61 79.50 23.69 70.69 22.85 C 70.93 22.48 71.40 21.74 71.64 21.38 Z" />
<path fill="#64569b" opacity="1.00" d=" M 182.22 22.38 C 190.51 19.34 199.67 20.29 208.21 21.70 C 208.45 22.00 208.94 22.60 209.19 22.90 C 200.22 23.42 191.09 24.19 182.22 22.38 Z" />
<path fill="#64569b" opacity="1.00" d=" M 14.98 22.15 C 23.69 21.67 32.90 20.08 41.06 24.21 C 32.52 23.95 23.91 25.19 15.41 23.81 C 15.30 23.39 15.09 22.56 14.98 22.15 Z" />
</g>
<g id="#67965dff">
<path fill="#67965d" opacity="1.00" d=" M 1.29 20.53 C 2.07 19.38 4.15 20.65 3.33 21.85 C 2.53 23.05 0.42 21.76 1.29 20.53 Z" />
</g>
<g id="#6c5e4cff">
<path fill="#6c5e4c" opacity="1.00" d=" M 9.50 19.74 C 10.75 20.07 11.98 20.42 13.21 20.80 C 13.43 21.10 13.86 21.69 14.08 21.99 C 13.50 22.38 12.33 23.15 11.74 23.54 C 11.27 23.40 10.32 23.13 9.84 22.99 C 9.74 21.90 9.63 20.82 9.50 19.74 Z" />
<path fill="#6c5e4c" opacity="1.00" d=" M 42.67 20.64 C 43.94 20.33 45.21 20.04 46.48 19.78 C 46.38 20.89 46.29 22.00 46.22 23.12 C 45.79 23.01 44.95 22.80 44.53 22.70 C 43.87 22.67 42.57 22.61 41.91 22.58 C 42.10 22.09 42.48 21.12 42.67 20.64 Z" />
</g>
<g id="#3583cffe">
<path fill="#3583cf" opacity="1.00" d=" M 13.21 20.80 L 14.38 20.35 C 14.94 20.26 16.07 20.09 16.63 20.00 C 18.95 19.97 21.28 19.96 23.61 19.94 C 24.11 19.94 25.11 19.94 25.62 19.93 C 26.04 19.93 26.87 19.92 27.29 19.92 C 27.65 19.92 28.36 19.91 28.71 19.91 C 29.13 19.91 29.97 19.91 30.39 19.91 C 30.90 19.91 31.91 19.91 32.41 19.91 C 34.76 19.91 37.10 19.94 39.45 20.01 C 40.00 20.08 41.11 20.24 41.66 20.31 L 42.67 20.64 C 42.48 21.12 42.10 22.09 41.91 22.58 C 41.85 23.05 41.73 23.98 41.67 24.44 L 41.06 24.21 C 32.90 20.08 23.69 21.67 14.98 22.15 C 15.09 22.56 15.30 23.39 15.41 23.81 C 16.13 26.71 15.66 29.73 14.57 32.47 C 13.95 30.91 13.31 29.35 12.72 27.78 C 12.44 26.61 12.16 25.43 11.90 24.26 C 13.38 25.47 15.61 23.37 14.08 21.99 C 13.86 21.69 13.43 21.10 13.21 20.80 Z" />
</g>
<g id="#65955fff">
<path fill="#65955f" opacity="1.00" d=" M 51.46 21.63 C 54.36 20.34 57.57 20.44 60.56 21.33 C 57.53 21.52 54.50 21.62 51.46 21.63 Z" />
<path fill="#65955f" opacity="1.00" d=" M 107.46 21.63 C 110.36 20.34 113.57 20.44 116.56 21.33 C 113.53 21.52 110.49 21.62 107.46 21.63 Z" />
<path fill="#65955f" opacity="1.00" d=" M 163.46 21.63 C 166.36 20.34 169.57 20.44 172.56 21.33 C 169.53 21.52 166.49 21.62 163.46 21.63 Z" />
<path fill="#65955f" opacity="1.00" d=" M 220.47 21.29 C 220.82 19.52 223.12 20.39 224.00 21.23 L 224.00 21.75 C 222.92 22.14 221.04 22.69 220.47 21.29 Z" />
</g>
<g id="#6e5f4cff">
<path fill="#6e5f4c" opacity="1.00" d=" M 65.49 20.19 C 66.89 20.10 68.29 20.01 69.69 19.92 L 69.50 20.72 C 68.10 21.15 67.53 22.03 67.78 23.37 C 67.31 23.25 66.38 23.02 65.91 22.91 C 65.78 22.00 65.64 21.09 65.49 20.19 Z" />
<path fill="#6e5f4c" opacity="1.00" d=" M 98.31 19.97 C 99.71 20.04 101.11 20.11 102.51 20.18 C 102.36 21.08 102.22 21.99 102.09 22.90 C 101.62 23.02 100.67 23.25 100.19 23.37 C 100.42 22.02 99.83 21.16 98.42 20.77 L 98.31 19.97 Z" />
<path fill="#6e5f4c" opacity="1.00" d=" M 177.49 20.19 C 178.89 20.10 180.29 20.01 181.69 19.92 L 181.50 20.72 C 180.10 21.15 179.53 22.03 179.77 23.37 C 179.31 23.25 178.38 23.02 177.91 22.91 C 177.78 22.00 177.64 21.09 177.49 20.19 Z" />
<path fill="#6e5f4c" opacity="1.00" d=" M 210.31 19.97 C 211.71 20.04 213.11 20.11 214.51 20.18 C 214.36 21.08 214.22 21.99 214.09 22.90 C 213.61 23.02 212.65 23.26 212.17 23.38 C 212.41 22.03 211.82 21.16 210.41 20.76 L 210.31 19.97 Z" />
</g>
<g id="#adc2d9ff">
<path fill="#adc2d9" opacity="1.00" d=" M 123.79 20.52 C 124.22 20.43 125.08 20.26 125.51 20.17 C 125.54 21.51 124.92 22.19 123.66 22.22 C 123.69 21.79 123.75 20.94 123.79 20.52 Z" />
<path fill="#adc2d9" opacity="1.00" d=" M 154.44 20.21 C 154.87 20.28 155.74 20.44 156.17 20.52 C 156.20 20.94 156.27 21.79 156.31 22.21 C 155.03 22.21 154.41 21.54 154.44 20.21 Z" />
<path fill="#adc2d9" opacity="1.00" d=" M 67.78 23.37 C 67.53 22.03 68.10 21.15 69.50 20.72 C 69.67 22.18 69.10 23.06 67.78 23.37 Z" />
<path fill="#adc2d9" opacity="1.00" d=" M 98.42 20.77 C 99.83 21.16 100.42 22.02 100.19 23.37 C 98.87 23.09 98.28 22.22 98.42 20.77 Z" />
<path fill="#adc2d9" opacity="1.00" d=" M 179.77 23.37 C 179.53 22.03 180.10 21.15 181.50 20.72 C 181.66 22.18 181.09 23.06 179.77 23.37 Z" />
<path fill="#adc2d9" opacity="1.00" d=" M 210.41 20.76 C 211.82 21.16 212.41 22.03 212.17 23.38 C 210.85 23.08 210.27 22.21 210.41 20.76 Z" />
</g>
<g id="#332f2aff">
<path fill="#332f2a" opacity="1.00" d=" M 5.49 21.57 C 6.93 22.07 8.38 22.56 9.84 22.99 C 10.32 23.13 11.27 23.40 11.74 23.54 L 11.90 24.26 C 12.16 25.43 12.44 26.61 12.72 27.78 C 12.76 28.35 12.83 29.48 12.87 30.04 C 11.33 29.16 9.79 28.29 8.25 27.41 C 8.79 28.45 9.34 29.48 9.88 30.51 C 8.32 30.07 6.75 29.64 5.20 29.16 C 5.19 29.07 5.17 28.88 5.16 28.79 C 6.49 27.96 8.59 26.40 7.19 24.69 C 7.04 24.46 6.76 24.00 6.61 23.77 C 6.33 23.22 5.77 22.12 5.49 21.57 Z" />
<path fill="#332f2a" opacity="1.00" d=" M 46.22 23.12 C 47.69 22.71 49.11 22.15 50.53 21.61 C 50.28 22.09 49.79 23.05 49.54 23.53 C 49.35 23.87 48.97 24.56 48.78 24.91 C 47.67 26.38 49.20 27.97 50.64 28.34 C 50.42 28.67 49.98 29.35 49.75 29.68 C 48.55 29.90 47.35 30.11 46.15 30.32 C 46.68 29.36 47.22 28.40 47.75 27.45 C 46.16 28.31 44.57 29.18 42.99 30.05 C 43.04 29.48 43.14 28.35 43.18 27.79 C 43.59 26.31 44.01 24.84 44.39 23.36 L 44.53 22.70 C 44.95 22.80 45.79 23.01 46.22 23.12 Z" />
</g>
<g id="#3f3f3eff">
<path fill="#3f3f3e" opacity="1.00" d=" M 61.44 21.65 C 62.93 22.09 64.42 22.52 65.91 22.91 C 66.38 23.02 67.31 23.25 67.78 23.37 C 68.29 26.34 68.85 29.31 69.40 32.27 C 67.94 30.42 66.33 28.68 64.68 27.00 C 65.01 28.07 65.34 29.15 65.68 30.22 C 64.55 30.07 63.42 29.92 62.30 29.78 C 62.05 29.53 61.57 29.02 61.33 28.76 C 62.89 28.01 64.04 26.06 62.86 24.48 C 62.73 24.22 62.46 23.71 62.33 23.45 C 62.11 23.00 61.67 22.10 61.44 21.65 Z" />
<path fill="#3f3f3e" opacity="1.00" d=" M 102.09 22.90 C 103.58 22.52 105.05 22.08 106.53 21.64 C 106.28 22.11 105.80 23.06 105.55 23.53 C 105.36 23.87 104.98 24.56 104.79 24.91 C 103.67 26.37 105.20 27.97 106.64 28.34 C 106.42 28.68 105.97 29.35 105.75 29.69 C 104.60 29.91 103.46 30.14 102.31 30.36 C 102.64 29.23 102.97 28.10 103.31 26.97 C 101.67 28.68 100.08 30.45 98.65 32.33 C 99.17 29.35 99.70 26.36 100.19 23.37 C 100.67 23.25 101.62 23.02 102.09 22.90 Z" />
<path fill="#3f3f3e" opacity="1.00" d=" M 173.44 21.65 C 174.93 22.09 176.42 22.52 177.91 22.91 C 178.38 23.02 179.31 23.25 179.77 23.37 C 180.29 26.35 180.87 29.31 181.44 32.28 C 179.96 30.43 178.34 28.69 176.68 27.01 C 177.00 28.08 177.34 29.15 177.68 30.22 C 176.55 30.07 175.42 29.92 174.30 29.78 C 174.05 29.53 173.57 29.02 173.33 28.76 C 174.89 28.01 176.04 26.06 174.86 24.48 C 174.73 24.22 174.46 23.71 174.33 23.45 C 174.11 23.00 173.67 22.10 173.44 21.65 Z" />
<path fill="#3f3f3e" opacity="1.00" d=" M 214.09 22.90 C 215.57 22.51 217.04 22.07 218.50 21.63 C 218.23 22.16 217.67 23.24 217.40 23.77 C 217.25 24.00 216.96 24.46 216.81 24.69 C 215.40 26.39 217.51 27.95 218.84 28.78 C 218.83 28.87 218.80 29.06 218.79 29.16 C 217.29 29.66 215.78 30.11 214.27 30.57 C 214.62 29.36 214.97 28.15 215.31 26.94 C 213.72 28.63 212.17 30.35 210.80 32.22 C 211.24 29.27 211.72 26.33 212.17 23.38 C 212.65 23.26 213.61 23.02 214.09 22.90 Z" />
</g>
<g id="#373837ff">
<path fill="#373837" opacity="1.00" d=" M 117.46 21.66 C 119.57 22.31 121.70 22.90 123.85 23.41 C 124.19 25.63 124.58 27.83 124.90 30.06 C 123.35 29.17 121.80 28.30 120.24 27.45 C 120.77 28.36 121.30 29.27 121.83 30.18 C 120.65 30.04 119.47 29.91 118.28 29.78 C 118.04 29.53 117.57 29.02 117.33 28.76 C 118.89 28.02 120.03 26.06 118.86 24.48 C 118.73 24.22 118.46 23.71 118.33 23.45 C 118.11 23.00 117.68 22.11 117.46 21.66 Z" />
<path fill="#373837" opacity="1.00" d=" M 156.13 23.41 C 158.28 22.90 160.40 22.30 162.51 21.64 C 162.27 22.11 161.79 23.06 161.55 23.53 C 161.36 23.88 160.98 24.56 160.80 24.91 C 159.68 26.37 161.19 27.98 162.64 28.34 C 162.42 28.68 161.98 29.35 161.75 29.68 C 160.55 29.90 159.35 30.11 158.15 30.32 C 158.68 29.36 159.21 28.39 159.75 27.43 C 158.20 28.30 156.65 29.17 155.12 30.06 C 155.42 27.84 155.79 25.63 156.13 23.41 Z" />
</g>
<g id="#4375caff">
<path fill="#4375ca" opacity="1.00" d=" M 126.74 21.78 C 135.53 22.78 144.39 22.58 153.19 21.90 C 153.54 22.35 154.23 23.24 154.57 23.68 C 153.64 23.76 151.77 23.91 150.84 23.99 C 144.07 24.18 137.42 25.43 130.86 27.00 C 130.09 26.30 129.32 25.60 128.54 24.92 C 127.82 24.32 126.39 23.14 125.67 22.54 C 125.94 22.35 126.48 21.97 126.74 21.78 Z" />
</g>
<g id="#9db4c9ff">
<path fill="#9db4c9" opacity="1.00" d=" M 11.74 23.54 C 12.33 23.15 13.50 22.38 14.08 21.99 C 15.61 23.37 13.38 25.47 11.90 24.26 L 11.74 23.54 Z" />
<path fill="#9db4c9" opacity="1.00" d=" M 41.91 22.58 C 42.57 22.61 43.87 22.67 44.53 22.70 L 44.39 23.36 C 43.89 23.72 42.89 24.45 42.40 24.81 L 41.67 24.44 C 41.73 23.98 41.85 23.05 41.91 22.58 Z" />
</g>
<g id="#4278cbff">
<path fill="#4278cb" opacity="1.00" d=" M 70.69 22.85 C 79.50 23.69 88.37 23.61 97.19 22.91 C 97.53 23.34 98.19 24.21 98.53 24.65 C 97.68 24.72 95.98 24.85 95.13 24.92 C 87.83 26.01 77.71 23.98 73.57 31.98 C 79.15 34.38 85.59 35.44 91.14 32.47 C 90.60 30.39 90.06 28.32 89.53 26.23 C 91.43 28.67 92.94 31.36 94.49 34.02 C 87.59 35.74 84.14 41.98 80.60 47.44 C 79.48 49.62 76.84 49.32 74.81 49.70 C 78.42 46.03 81.44 41.78 82.91 36.79 C 79.04 36.30 75.09 35.72 71.21 36.46 C 70.56 36.23 69.27 35.77 68.63 35.54 C 68.68 35.32 68.79 34.87 68.84 34.65 C 73.72 34.72 74.27 29.57 75.89 26.00 C 74.81 25.73 73.73 25.46 72.66 25.18 C 71.92 24.99 70.45 24.61 69.71 24.42 C 69.95 24.03 70.45 23.24 70.69 22.85 Z" />
<path fill="#4278cb" opacity="1.00" d=" M 182.22 22.38 C 191.09 24.19 200.22 23.42 209.19 22.90 C 209.52 23.34 210.20 24.22 210.53 24.66 C 209.67 24.72 207.95 24.86 207.09 24.93 C 199.86 26.03 189.85 23.99 185.66 31.81 C 188.41 32.90 191.00 34.50 193.88 35.24 C 197.16 35.36 200.11 33.58 203.03 32.32 C 202.66 30.21 202.28 28.09 201.94 25.97 C 203.51 28.48 204.73 31.17 205.84 33.91 C 199.57 36.30 196.00 42.04 192.59 47.44 C 191.47 49.61 188.84 49.33 186.81 49.70 C 190.41 46.04 193.43 41.80 194.90 36.82 C 191.11 36.45 187.31 35.86 183.50 36.15 C 182.73 36.08 181.19 35.95 180.42 35.89 C 180.53 35.50 180.75 34.70 180.87 34.31 C 182.81 34.09 184.74 33.76 186.65 33.34 C 185.78 31.10 184.90 28.85 184.01 26.61 C 183.45 25.19 182.79 23.80 182.22 22.38 Z" />
</g>
<g id="#79a55dff">
<path fill="#79a55d" opacity="1.00" d=" M 2.80 22.96 C 4.07 23.22 5.35 23.48 6.61 23.77 C 6.76 24.00 7.04 24.46 7.19 24.69 C 5.56 25.34 4.67 27.09 5.16 28.79 C 5.17 28.88 5.19 29.07 5.20 29.16 C 5.33 30.39 5.48 31.61 5.65 32.84 L 5.80 33.91 C 4.96 33.24 4.11 32.57 3.26 31.91 C 4.05 36.88 4.68 41.88 5.86 46.78 C 5.74 48.08 5.62 49.38 5.57 50.69 L 5.57 51.19 C 5.58 51.57 5.61 52.35 5.62 52.73 C 5.64 53.85 5.82 54.93 6.16 56.00 L 0.00 56.00 L 0.00 23.34 C 0.46 24.37 0.94 25.41 1.43 26.43 C 1.89 25.27 2.35 24.12 2.80 22.96 Z" />
<path fill="#79a55d" opacity="1.00" d=" M 217.40 23.77 C 218.65 23.48 219.93 23.22 221.20 22.96 C 221.65 24.12 222.10 25.27 222.57 26.43 C 223.05 25.41 223.53 24.39 224.00 23.35 L 224.00 56.00 L 217.84 56.00 C 218.18 54.94 218.37 53.85 218.39 52.74 C 218.40 52.35 218.42 51.58 218.43 51.19 L 218.43 50.69 C 218.38 49.38 218.25 48.09 218.14 46.79 C 219.32 41.89 219.95 36.88 220.74 31.91 C 219.89 32.57 219.04 33.23 218.20 33.89 L 218.35 32.78 C 218.51 31.57 218.66 30.37 218.79 29.16 C 218.80 29.06 218.83 28.87 218.84 28.78 C 219.33 27.09 218.44 25.34 216.81 24.69 C 216.96 24.46 217.25 24.00 217.40 23.77 Z" />
</g>
<g id="#4277cafe">
<path fill="#4277ca" opacity="1.00" d=" M 15.41 23.81 C 23.91 25.19 32.52 23.95 41.06 24.21 L 41.67 24.44 L 42.40 24.81 C 41.38 25.39 40.37 25.98 39.33 26.52 C 32.37 27.84 22.50 24.99 18.60 32.93 C 23.60 35.62 29.25 36.61 34.17 33.38 C 33.71 31.34 33.20 29.31 32.70 27.29 C 34.69 30.03 36.58 32.86 38.89 35.36 L 39.11 35.61 C 36.49 36.51 32.69 36.05 31.42 38.99 C 29.38 43.32 26.15 46.89 23.00 50.45 C 22.05 48.98 21.08 47.52 20.07 46.08 C 22.96 44.56 25.72 42.82 28.37 40.92 C 24.70 38.39 20.53 36.85 16.37 35.33 C 15.54 34.90 14.69 34.53 13.81 34.22 C 14.00 33.78 14.38 32.91 14.57 32.47 C 15.66 29.73 16.13 26.71 15.41 23.81 Z" />
</g>
<g id="#6d9b5bff">
<path fill="#6d9b5b" opacity="1.00" d=" M 49.54 23.53 C 53.76 24.86 58.14 24.97 62.33 23.45 C 62.46 23.71 62.73 24.22 62.86 24.48 C 60.83 26.03 58.88 27.69 57.01 29.43 C 58.35 29.56 59.69 29.67 61.04 29.75 L 60.48 30.06 C 57.91 31.57 55.30 33.02 52.48 34.02 C 52.57 33.51 52.75 32.48 52.84 31.96 C 51.98 32.58 51.11 33.19 50.25 33.81 L 50.46 32.84 C 50.75 31.70 51.08 30.58 51.40 29.45 C 52.48 29.33 53.56 29.22 54.64 29.11 C 53.54 28.23 52.43 27.35 51.31 26.48 C 50.53 25.85 49.69 25.33 48.78 24.91 C 48.97 24.56 49.35 23.87 49.54 23.53 M 55.17 28.17 C 54.65 29.80 55.20 30.35 56.83 29.83 C 57.35 28.20 56.80 27.65 55.17 28.17 Z" />
<path fill="#6d9b5b" opacity="1.00" d=" M 105.55 23.53 C 109.77 24.87 114.15 24.97 118.33 23.45 C 118.46 23.71 118.73 24.22 118.86 24.48 C 116.83 26.03 114.88 27.69 113.01 29.43 C 114.35 29.56 115.70 29.67 117.05 29.75 L 116.48 30.06 C 113.92 31.57 111.30 33.02 108.48 34.02 C 108.57 33.51 108.75 32.48 108.84 31.97 C 107.97 32.57 107.11 33.18 106.24 33.79 L 106.47 32.77 C 106.76 31.66 107.08 30.56 107.40 29.45 C 108.48 29.33 109.56 29.21 110.64 29.10 C 109.53 28.22 108.43 27.34 107.31 26.48 C 106.54 25.85 105.70 25.33 104.79 24.91 C 104.98 24.56 105.36 23.87 105.55 23.53 M 111.17 28.17 C 110.65 29.80 111.20 30.35 112.83 29.83 C 113.35 28.20 112.80 27.65 111.17 28.17 Z" />
<path fill="#6d9b5b" opacity="1.00" d=" M 161.55 23.53 C 165.76 24.86 170.14 24.97 174.33 23.45 C 174.46 23.71 174.73 24.22 174.86 24.48 C 172.83 26.03 170.88 27.69 169.01 29.43 C 170.35 29.56 171.69 29.67 173.04 29.75 L 172.48 30.06 C 169.91 31.57 167.30 33.02 164.48 34.02 C 164.57 33.51 164.75 32.48 164.84 31.96 C 163.97 32.58 163.11 33.19 162.24 33.81 L 162.46 32.82 C 162.75 31.69 163.08 30.57 163.40 29.45 C 164.48 29.33 165.56 29.22 166.64 29.11 C 165.54 28.23 164.43 27.35 163.32 26.48 C 162.54 25.85 161.70 25.33 160.80 24.91 C 160.98 24.56 161.36 23.88 161.55 23.53 M 167.17 28.17 C 166.65 29.80 167.20 30.35 168.83 29.83 C 169.35 28.20 168.79 27.65 167.17 28.17 Z" />
</g>
<g id="#268ed9ff">
<path fill="#268ed9" opacity="1.00" d=" M 42.40 24.81 C 42.89 24.45 43.89 23.72 44.39 23.36 C 44.01 24.84 43.59 26.31 43.18 27.79 C 42.66 29.38 42.11 30.97 41.62 32.58 C 40.87 30.55 40.12 28.53 39.33 26.52 C 40.37 25.98 41.38 25.39 42.40 24.81 Z" />
<path fill="#268ed9" opacity="1.00" d=" M 13.81 34.22 C 14.69 34.53 15.54 34.90 16.37 35.33 C 15.55 36.16 14.57 36.71 13.44 36.98 C 13.39 36.61 13.28 35.88 13.22 35.52 C 13.37 35.19 13.66 34.54 13.81 34.22 Z" />
<path fill="#268ed9" opacity="1.00" d=" M 38.89 35.36 C 39.96 34.86 41.06 34.49 42.20 34.22 C 42.32 34.54 42.58 35.18 42.71 35.49 C 42.71 35.83 42.70 36.49 42.70 36.83 C 41.68 36.58 40.67 36.33 39.66 36.07 L 39.11 35.61 L 38.89 35.36 Z" />
<path fill="#268ed9" opacity="1.00" d=" M 208.57 36.61 C 206.55 35.31 208.97 33.26 210.51 34.52 C 210.40 34.95 210.20 35.79 210.10 36.21 C 209.72 36.31 208.95 36.51 208.57 36.61 Z" />
</g>
<g id="#3c6bbeff">
<path fill="#3c6bbe" opacity="1.00" d=" M 128.54 24.92 C 129.32 25.60 130.09 26.30 130.86 27.00 C 137.42 25.43 144.07 24.18 150.84 23.99 C 152.26 26.74 153.68 29.51 154.86 32.38 L 155.00 32.96 L 155.23 33.86 C 154.11 34.21 152.99 34.57 151.87 34.93 C 153.23 38.13 154.35 41.41 155.44 44.71 C 154.14 44.70 152.84 44.68 151.54 44.66 C 152.92 46.55 154.21 48.51 155.35 50.56 L 153.92 50.68 C 146.68 51.56 138.55 51.37 133.53 45.31 C 132.63 46.09 131.74 46.87 130.84 47.65 C 133.65 48.81 136.49 49.88 139.33 50.98 C 134.90 50.96 130.47 50.95 126.05 50.69 L 124.65 50.53 C 125.78 48.50 127.07 46.57 128.44 44.70 C 127.02 44.63 125.59 44.56 124.17 44.48 C 125.16 41.16 126.44 37.93 128.18 34.94 C 127.05 34.58 125.92 34.22 124.80 33.86 L 125.03 32.96 L 125.18 32.40 C 126.17 29.84 127.35 27.38 128.54 24.92 M 146.29 25.67 C 146.99 27.48 147.70 29.28 148.37 31.11 C 142.76 35.07 135.78 33.69 129.86 31.22 C 129.49 32.16 129.12 33.10 128.76 34.05 C 132.01 35.61 136.49 35.36 138.87 38.28 C 138.77 41.24 137.17 43.87 136.15 46.59 C 138.98 45.34 141.23 43.21 141.62 40.02 C 142.14 35.54 147.22 34.90 150.62 33.49 C 150.08 31.40 149.61 29.30 149.21 27.18 C 148.24 26.67 147.26 26.16 146.29 25.67 Z" />
<path fill="#3c6bbe" opacity="1.00" d=" M 73.57 31.98 C 77.71 23.98 87.83 26.01 95.13 24.92 C 96.47 27.31 97.70 29.76 98.65 32.33 L 98.88 33.19 C 97.58 33.51 95.53 34.96 96.84 36.38 C 97.73 37.57 98.66 38.74 99.64 39.86 C 99.45 40.58 99.08 42.02 98.90 42.74 C 94.71 42.61 90.58 43.28 86.61 44.54 C 91.26 45.18 96.40 45.62 99.66 49.48 L 98.92 50.44 L 97.76 50.67 C 88.63 50.68 79.49 50.86 70.36 50.67 L 69.39 50.54 L 68.78 49.94 C 69.90 48.73 71.19 46.81 69.91 45.25 C 69.44 44.85 68.50 44.06 68.03 43.66 L 68.39 43.09 C 69.16 41.94 69.14 40.78 68.33 39.62 C 69.32 38.59 70.26 37.52 71.21 36.46 C 75.09 35.72 79.04 36.30 82.91 36.79 C 81.44 41.78 78.42 46.03 74.81 49.70 C 76.84 49.32 79.48 49.62 80.60 47.44 C 84.14 41.98 87.59 35.74 94.49 34.02 C 92.94 31.36 91.43 28.67 89.53 26.23 C 90.06 28.32 90.60 30.39 91.14 32.47 C 85.59 35.44 79.15 34.38 73.57 31.98 Z" />
<path fill="#3c6bbe" opacity="1.00" d=" M 185.66 31.81 C 189.85 23.99 199.86 26.03 207.09 24.93 C 208.45 27.29 209.73 29.71 210.80 32.22 L 210.69 33.08 L 210.51 34.52 C 208.97 33.26 206.55 35.31 208.57 36.61 C 209.60 37.69 210.64 38.75 211.74 39.77 C 211.53 40.50 211.12 41.95 210.91 42.68 C 206.72 42.60 202.59 43.29 198.61 44.54 C 203.28 45.18 208.44 45.62 211.68 49.52 L 210.92 50.39 L 209.76 50.64 C 200.63 50.71 191.49 50.86 182.36 50.67 L 181.39 50.54 L 180.78 49.94 C 181.90 48.73 183.19 46.81 181.91 45.25 C 181.44 44.85 180.50 44.06 180.03 43.66 L 180.39 43.09 C 181.17 41.94 181.15 40.78 180.33 39.62 C 181.42 38.50 182.45 37.32 183.50 36.15 C 187.31 35.86 191.11 36.45 194.90 36.82 C 193.43 41.80 190.41 46.04 186.81 49.70 C 188.84 49.33 191.47 49.61 192.59 47.44 C 196.00 42.04 199.57 36.30 205.84 33.91 C 204.73 31.17 203.51 28.48 201.94 25.97 C 202.28 28.09 202.66 30.21 203.03 32.32 C 200.11 33.58 197.16 35.36 193.88 35.24 C 191.00 34.50 188.41 32.90 185.66 31.81 Z" />
<path fill="#3c6bbe" opacity="1.00" d=" M 18.60 32.93 C 22.50 24.99 32.37 27.84 39.33 26.52 C 40.12 28.53 40.87 30.55 41.62 32.58 C 41.76 32.99 42.05 33.81 42.20 34.22 C 41.06 34.49 39.96 34.86 38.89 35.36 C 36.58 32.86 34.69 30.03 32.70 27.29 C 33.20 29.31 33.71 31.34 34.17 33.38 C 29.25 36.61 23.60 35.62 18.60 32.93 Z" />
<path fill="#3c6bbe" opacity="1.00" d=" M 16.37 35.33 C 20.53 36.85 24.70 38.39 28.37 40.92 C 25.72 42.82 22.96 44.56 20.07 46.08 C 21.08 47.52 22.05 48.98 23.00 50.45 C 26.15 46.89 29.38 43.32 31.42 38.99 C 32.69 36.05 36.49 36.51 39.11 35.61 L 39.66 36.07 C 40.44 36.74 41.23 37.40 42.01 38.07 C 41.84 39.66 41.50 42.86 41.33 44.45 L 41.27 45.05 C 41.50 47.01 42.06 48.91 42.54 50.82 L 41.58 50.87 C 32.54 50.59 23.50 50.74 14.45 50.81 L 13.46 50.76 C 13.93 48.87 14.50 46.99 14.74 45.06 L 14.67 44.46 C 14.47 42.84 14.08 39.60 13.89 37.98 C 14.73 37.11 15.56 36.22 16.37 35.33 Z" />
</g>
<g id="#416845ff">
<path fill="#416845" opacity="1.00" d=" M 7.19 24.69 C 8.59 26.40 6.49 27.96 5.16 28.79 C 4.67 27.09 5.56 25.34 7.19 24.69 Z" />
<path fill="#416845" opacity="1.00" d=" M 50.64 28.34 C 49.20 27.97 47.67 26.38 48.78 24.91 C 49.69 25.33 50.53 25.85 51.31 26.48 C 51.14 26.94 50.81 27.87 50.64 28.34 Z" />
<path fill="#416845" opacity="1.00" d=" M 62.86 24.48 C 64.04 26.06 62.89 28.01 61.33 28.76 C 60.01 27.31 61.87 25.53 62.86 24.48 Z" />
<path fill="#416845" opacity="1.00" d=" M 106.64 28.34 C 105.20 27.97 103.67 26.37 104.79 24.91 C 105.70 25.33 106.54 25.85 107.31 26.48 C 107.15 26.94 106.81 27.87 106.64 28.34 Z" />
<path fill="#416845" opacity="1.00" d=" M 118.86 24.48 C 120.03 26.06 118.89 28.02 117.33 28.76 C 116.01 27.31 117.87 25.54 118.86 24.48 Z" />
<path fill="#416845" opacity="1.00" d=" M 162.64 28.34 C 161.19 27.98 159.68 26.37 160.80 24.91 C 161.70 25.33 162.54 25.85 163.32 26.48 C 163.15 26.95 162.81 27.88 162.64 28.34 Z" />
<path fill="#416845" opacity="1.00" d=" M 174.86 24.48 C 176.04 26.06 174.89 28.01 173.33 28.76 C 172.01 27.31 173.87 25.53 174.86 24.48 Z" />
<path fill="#416845" opacity="1.00" d=" M 218.84 28.78 C 217.51 27.95 215.40 26.39 216.81 24.69 C 218.44 25.34 219.33 27.09 218.84 28.78 Z" />
</g>
<g id="#86af5cff">
<path fill="#86af5c" opacity="1.00" d=" M 57.01 29.43 C 58.88 27.69 60.83 26.03 62.86 24.48 C 61.87 25.53 60.01 27.31 61.33 28.76 C 61.57 29.02 62.05 29.53 62.30 29.78 C 61.98 29.77 61.36 29.76 61.04 29.75 C 59.69 29.67 58.35 29.56 57.01 29.43 Z" />
<path fill="#86af5c" opacity="1.00" d=" M 113.01 29.43 C 114.88 27.69 116.83 26.03 118.86 24.48 C 117.87 25.54 116.01 27.31 117.33 28.76 C 117.57 29.02 118.04 29.53 118.28 29.78 C 117.97 29.77 117.36 29.76 117.05 29.75 C 115.70 29.67 114.35 29.56 113.01 29.43 Z" />
<path fill="#86af5c" opacity="1.00" d=" M 169.01 29.43 C 170.88 27.69 172.83 26.03 174.86 24.48 C 173.87 25.53 172.01 27.31 173.33 28.76 C 173.57 29.02 174.05 29.53 174.30 29.78 C 173.98 29.77 173.36 29.76 173.04 29.75 C 171.69 29.67 170.35 29.56 169.01 29.43 Z" />
</g>
<g id="#3c6bbfff">
<path fill="#3c6bbf" opacity="1.00" d=" M 72.66 25.18 C 73.73 25.46 74.81 25.73 75.89 26.00 C 74.27 29.57 73.72 34.72 68.84 34.65 L 69.18 33.22 L 69.40 32.27 C 70.28 29.82 71.43 27.47 72.66 25.18 Z" />
<path fill="#3c6bbf" opacity="1.00" d=" M 181.44 32.28 C 182.19 30.35 183.08 28.47 184.01 26.61 C 184.90 28.85 185.78 31.10 186.65 33.34 C 184.74 33.76 182.81 34.09 180.87 34.31 L 181.20 33.13 L 181.44 32.28 Z" />
</g>
<g id="#86af5dff">
<path fill="#86af5d" opacity="1.00" d=" M 51.31 26.48 C 52.43 27.35 53.54 28.23 54.64 29.11 C 53.56 29.22 52.48 29.33 51.40 29.45 C 50.99 29.51 50.17 29.62 49.75 29.68 C 49.98 29.35 50.42 28.67 50.64 28.34 C 50.81 27.87 51.14 26.94 51.31 26.48 Z" />
<path fill="#86af5d" opacity="1.00" d=" M 107.31 26.48 C 108.43 27.34 109.53 28.22 110.64 29.10 C 109.56 29.21 108.48 29.33 107.40 29.45 C 106.99 29.51 106.16 29.63 105.75 29.69 C 105.97 29.35 106.42 28.68 106.64 28.34 C 106.81 27.87 107.15 26.94 107.31 26.48 Z" />
<path fill="#86af5d" opacity="1.00" d=" M 163.32 26.48 C 164.43 27.35 165.54 28.23 166.64 29.11 C 165.56 29.22 164.48 29.33 163.40 29.45 C 162.99 29.51 162.17 29.62 161.75 29.68 C 161.98 29.35 162.42 28.68 162.64 28.34 C 162.81 27.88 163.15 26.95 163.32 26.48 Z" />
</g>
<g id="#437bcaff">
<path fill="#437bca" opacity="1.00" d=" M 146.29 25.67 C 147.26 26.16 148.24 26.67 149.21 27.18 C 149.61 29.30 150.08 31.40 150.62 33.49 C 147.22 34.90 142.14 35.54 141.62 40.02 C 141.23 43.21 138.98 45.34 136.15 46.59 C 137.17 43.87 138.77 41.24 138.87 38.28 C 136.49 35.36 132.01 35.61 128.76 34.05 C 129.12 33.10 129.49 32.16 129.86 31.22 C 135.78 33.69 142.76 35.07 148.37 31.11 C 147.70 29.28 146.99 27.48 146.29 25.67 Z" />
</g>
<g id="#525548ff">
<path fill="#525548" opacity="1.00" d=" M 8.25 27.41 C 9.79 28.29 11.33 29.16 12.87 30.04 C 12.92 30.98 12.98 31.93 13.04 32.87 C 10.58 32.79 8.11 32.79 5.65 32.84 C 5.48 31.61 5.33 30.39 5.20 29.16 C 6.75 29.64 8.32 30.07 9.88 30.51 C 9.34 29.48 8.79 28.45 8.25 27.41 Z" />
<path fill="#525548" opacity="1.00" d=" M 42.99 30.05 C 44.57 29.18 46.16 28.31 47.75 27.45 C 47.22 28.40 46.68 29.36 46.15 30.32 C 47.35 30.11 48.55 29.90 49.75 29.68 C 50.17 29.62 50.99 29.51 51.40 29.45 C 51.08 30.58 50.75 31.70 50.46 32.84 C 47.92 32.79 45.37 32.81 42.82 32.91 C 42.87 31.95 42.93 31.00 42.99 30.05 Z" />
<path fill="#525548" opacity="1.00" d=" M 64.68 27.00 C 66.33 28.68 67.94 30.42 69.40 32.27 L 69.18 33.22 C 66.62 32.94 64.06 32.82 61.49 32.81 C 61.17 31.88 60.83 30.97 60.48 30.06 L 61.04 29.75 C 61.36 29.76 61.98 29.77 62.30 29.78 C 63.42 29.92 64.55 30.07 65.68 30.22 C 65.34 29.15 65.01 28.07 64.68 27.00 Z" />
<path fill="#525548" opacity="1.00" d=" M 98.65 32.33 C 100.08 30.45 101.67 28.68 103.31 26.97 C 102.97 28.10 102.64 29.23 102.31 30.36 C 103.46 30.14 104.60 29.91 105.75 29.69 C 106.16 29.63 106.99 29.51 107.40 29.45 C 107.08 30.56 106.76 31.66 106.47 32.77 C 103.93 32.80 101.40 32.93 98.88 33.19 L 98.65 32.33 Z" />
<path fill="#525548" opacity="1.00" d=" M 120.24 27.45 C 121.80 28.30 123.35 29.17 124.90 30.06 C 124.97 30.64 125.11 31.81 125.18 32.40 L 125.03 32.96 C 122.52 32.84 120.00 32.83 117.49 32.88 C 117.17 31.93 116.84 30.99 116.48 30.06 L 117.05 29.75 C 117.36 29.76 117.97 29.77 118.28 29.78 C 119.47 29.91 120.65 30.04 121.83 30.18 C 121.30 29.27 120.77 28.36 120.24 27.45 Z" />
<path fill="#525548" opacity="1.00" d=" M 155.12 30.06 C 156.65 29.17 158.20 28.30 159.75 27.43 C 159.21 28.39 158.68 29.36 158.15 30.32 C 159.35 30.11 160.55 29.90 161.75 29.68 C 162.17 29.62 162.99 29.51 163.40 29.45 C 163.08 30.57 162.75 31.69 162.46 32.82 C 159.97 32.80 157.49 32.84 155.00 32.96 L 154.86 32.38 C 154.92 31.80 155.05 30.64 155.12 30.06 Z" />
<path fill="#525548" opacity="1.00" d=" M 176.68 27.01 C 178.34 28.69 179.96 30.43 181.44 32.28 L 181.20 33.13 C 178.63 32.92 176.06 32.83 173.49 32.83 C 173.17 31.90 172.83 30.97 172.48 30.06 L 173.04 29.75 C 173.36 29.76 173.98 29.77 174.30 29.78 C 175.42 29.92 176.55 30.07 177.68 30.22 C 177.34 29.15 177.00 28.08 176.68 27.01 Z" />
<path fill="#525548" opacity="1.00" d=" M 210.80 32.22 C 212.17 30.35 213.72 28.63 215.31 26.94 C 214.97 28.15 214.62 29.36 214.27 30.57 C 215.78 30.11 217.29 29.66 218.79 29.16 C 218.66 30.37 218.51 31.57 218.35 32.78 C 215.79 32.79 213.24 32.88 210.69 33.08 L 210.80 32.22 Z" />
</g>
<g id="#8aa3b5ff">
<path fill="#8aa3b5" opacity="1.00" d=" M 12.72 27.78 C 13.31 29.35 13.95 30.91 14.57 32.47 C 14.38 32.91 14.00 33.78 13.81 34.22 C 13.66 34.54 13.37 35.19 13.22 35.52 C 13.18 34.85 13.08 33.53 13.04 32.87 C 12.98 31.93 12.92 30.98 12.87 30.04 C 12.83 29.48 12.76 28.35 12.72 27.78 Z" />
<path fill="#8aa3b5" opacity="1.00" d=" M 41.62 32.58 C 42.11 30.97 42.66 29.38 43.18 27.79 C 43.14 28.35 43.04 29.48 42.99 30.05 C 42.93 31.00 42.87 31.95 42.82 32.91 C 42.80 33.56 42.74 34.85 42.71 35.49 C 42.58 35.18 42.32 34.54 42.20 34.22 C 42.05 33.81 41.76 32.99 41.62 32.58 Z" />
</g>
<g id="#97c270ff">
<path fill="#97c270" opacity="1.00" d=" M 55.17 28.17 C 56.80 27.65 57.35 28.20 56.83 29.83 C 55.20 30.35 54.65 29.80 55.17 28.17 Z" />
<path fill="#97c270" opacity="1.00" d=" M 111.17 28.17 C 112.80 27.65 113.35 28.20 112.83 29.83 C 111.20 30.35 110.65 29.80 111.17 28.17 Z" />
<path fill="#97c270" opacity="1.00" d=" M 167.17 28.17 C 168.79 27.65 169.35 28.20 168.83 29.83 C 167.20 30.35 166.65 29.80 167.17 28.17 Z" />
</g>
<g id="#81ad62ff">
<path fill="#81ad62" opacity="1.00" d=" M 52.48 34.02 C 55.30 33.02 57.91 31.57 60.48 30.06 C 60.83 30.97 61.17 31.88 61.49 32.81 L 61.75 33.84 C 60.97 33.19 60.19 32.55 59.42 31.91 C 59.75 34.15 60.16 36.40 60.17 38.68 C 58.20 38.12 56.23 37.58 54.26 37.05 C 53.38 37.72 52.49 38.38 51.61 39.05 C 51.89 37.37 52.19 35.70 52.48 34.02 Z" />
<path fill="#81ad62" opacity="1.00" d=" M 108.48 34.02 C 111.30 33.02 113.92 31.57 116.48 30.06 C 116.84 30.99 117.17 31.93 117.49 32.88 L 117.75 33.86 C 116.97 33.21 116.19 32.56 115.42 31.91 C 115.75 34.15 116.16 36.40 116.17 38.68 C 114.20 38.12 112.23 37.58 110.26 37.05 C 109.37 37.72 108.49 38.38 107.61 39.05 C 107.89 37.37 108.18 35.70 108.48 34.02 Z" />
<path fill="#81ad62" opacity="1.00" d=" M 164.48 34.02 C 167.30 33.02 169.91 31.57 172.48 30.06 C 172.83 30.97 173.17 31.90 173.49 32.83 L 173.75 33.84 C 172.97 33.20 172.19 32.55 171.42 31.91 C 171.74 34.15 172.16 36.40 172.17 38.68 C 170.20 38.12 168.23 37.58 166.26 37.05 C 165.37 37.72 164.49 38.38 163.61 39.05 C 163.89 37.37 164.18 35.70 164.48 34.02 Z" />
</g>
<g id="#4e5e48ff">
<path fill="#4e5e48" opacity="1.00" d=" M 3.26 31.91 C 4.11 32.57 4.96 33.24 5.80 33.91 C 6.48 39.23 7.52 44.49 8.77 49.70 C 7.70 50.20 6.63 50.69 5.57 51.19 L 5.57 50.69 C 5.62 49.38 5.74 48.08 5.86 46.78 C 4.68 41.88 4.05 36.88 3.26 31.91 Z" />
<path fill="#4e5e48" opacity="1.00" d=" M 50.25 33.81 C 51.11 33.19 51.98 32.58 52.84 31.96 C 52.75 32.48 52.57 33.51 52.48 34.02 C 52.19 35.70 51.89 37.37 51.61 39.05 C 51.28 40.94 50.87 42.82 50.53 44.71 C 50.00 47.01 50.38 49.37 50.73 51.66 C 49.65 50.84 48.54 50.07 47.43 49.30 C 48.47 44.15 49.36 38.98 50.25 33.81 Z" />
<path fill="#4e5e48" opacity="1.00" d=" M 59.42 31.91 C 60.19 32.55 60.97 33.19 61.75 33.84 C 62.67 39.01 63.52 44.20 64.59 49.35 C 63.39 50.09 62.18 50.84 61.01 51.64 C 61.50 50.01 61.98 48.38 62.45 46.74 C 61.78 46.26 61.11 45.78 60.44 45.30 C 62.04 44.88 62.95 42.02 60.96 41.53 C 60.64 41.41 59.99 41.18 59.67 41.07 C 59.80 40.47 60.04 39.27 60.17 38.68 C 60.16 36.40 59.75 34.15 59.42 31.91 Z" />
<path fill="#4e5e48" opacity="1.00" d=" M 106.24 33.79 C 107.11 33.18 107.97 32.57 108.84 31.97 C 108.75 32.48 108.57 33.51 108.48 34.02 C 108.18 35.70 107.89 37.37 107.61 39.05 C 107.28 40.94 106.87 42.82 106.53 44.71 C 106.00 47.01 106.38 49.37 106.73 51.66 C 105.65 50.84 104.54 50.07 103.43 49.30 C 104.47 44.15 105.36 38.96 106.24 33.79 Z" />
<path fill="#4e5e48" opacity="1.00" d=" M 115.42 31.91 C 116.19 32.56 116.97 33.21 117.75 33.86 C 118.67 39.03 119.53 44.21 120.60 49.35 C 119.39 50.09 118.18 50.84 117.01 51.63 C 117.50 50.00 117.98 48.37 118.45 46.75 C 117.78 46.27 117.11 45.78 116.44 45.30 C 118.04 44.88 118.95 42.02 116.96 41.53 C 116.64 41.41 115.99 41.18 115.67 41.07 C 115.80 40.47 116.04 39.27 116.17 38.68 C 116.16 36.40 115.75 34.15 115.42 31.91 Z" />
<path fill="#4e5e48" opacity="1.00" d=" M 162.24 33.81 C 163.11 33.19 163.97 32.58 164.84 31.96 C 164.75 32.48 164.57 33.51 164.48 34.02 C 164.18 35.70 163.89 37.37 163.61 39.05 C 163.28 40.94 162.87 42.82 162.53 44.71 C 162.00 47.01 162.38 49.37 162.73 51.66 C 161.65 50.84 160.54 50.07 159.43 49.30 C 160.47 44.15 161.35 38.98 162.24 33.81 Z" />
<path fill="#4e5e48" opacity="1.00" d=" M 171.42 31.91 C 172.19 32.55 172.97 33.20 173.75 33.84 C 174.67 39.02 175.52 44.20 176.59 49.35 C 175.39 50.09 174.18 50.84 173.01 51.64 C 173.50 50.01 173.98 48.38 174.45 46.74 C 173.78 46.26 173.10 45.78 172.44 45.30 C 174.04 44.88 174.95 42.02 172.96 41.53 C 172.64 41.41 171.99 41.18 171.67 41.07 C 171.80 40.47 172.04 39.27 172.17 38.68 C 172.16 36.40 171.74 34.15 171.42 31.91 Z" />
<path fill="#4e5e48" opacity="1.00" d=" M 218.20 33.89 C 219.04 33.23 219.89 32.57 220.74 31.91 C 219.95 36.88 219.32 41.89 218.14 46.79 C 218.25 48.09 218.38 49.38 218.43 50.69 L 218.43 51.19 C 217.37 50.69 216.29 50.20 215.23 49.70 C 216.48 44.48 217.52 39.21 218.20 33.89 Z" />
</g>
<g id="#2c89d6ff">
<path fill="#2c89d6" opacity="1.00" d=" M 96.84 36.38 C 95.53 34.96 97.58 33.51 98.88 33.19 C 98.72 33.92 98.42 35.36 98.27 36.09 C 97.91 36.16 97.19 36.31 96.84 36.38 Z" />
</g>
<g id="#268dd9ff">
<path fill="#268dd9" opacity="1.00" d=" M 124.80 33.86 C 125.92 34.22 127.05 34.58 128.18 34.94 C 126.44 37.93 125.16 41.16 124.17 44.48 C 125.59 44.56 127.02 44.63 128.44 44.70 C 127.07 46.57 125.78 48.50 124.65 50.53 C 123.69 47.01 123.41 43.37 123.05 39.76 C 123.19 39.35 123.46 38.54 123.60 38.14 C 124.01 36.72 124.42 35.29 124.80 33.86 Z" />
<path fill="#268dd9" opacity="1.00" d=" M 151.87 34.93 C 152.99 34.57 154.11 34.21 155.23 33.86 C 155.59 35.29 155.99 36.71 156.40 38.14 C 156.54 38.54 156.81 39.35 156.94 39.76 C 156.59 43.38 156.31 47.03 155.35 50.56 C 154.21 48.51 152.92 46.55 151.54 44.66 C 152.84 44.68 154.14 44.70 155.44 44.71 C 154.35 41.41 153.23 38.13 151.87 34.93 Z" />
</g>
<g id="#7b9eb5ff">
<path fill="#7b9eb5" opacity="1.00" d=" M 13.44 36.98 C 14.57 36.71 15.55 36.16 16.37 35.33 C 15.56 36.22 14.73 37.11 13.89 37.98 C 13.09 38.78 12.28 39.57 11.46 40.36 L 11.38 39.30 C 11.40 38.85 11.45 37.95 11.48 37.51 C 11.97 37.37 12.95 37.11 13.44 36.98 Z" />
<path fill="#7b9eb5" opacity="1.00" d=" M 39.66 36.07 C 40.67 36.33 41.68 36.58 42.70 36.83 C 43.11 37.04 43.92 37.48 44.32 37.69 C 44.43 38.13 44.63 38.99 44.74 39.42 L 44.64 40.29 C 43.76 39.55 42.88 38.81 42.01 38.07 C 41.23 37.40 40.44 36.74 39.66 36.07 Z" />
</g>
<g id="#7a9db6ff">
<path fill="#7a9db6" opacity="1.00" d=" M 68.63 35.54 C 69.27 35.77 70.56 36.23 71.21 36.46 C 70.26 37.52 69.32 38.59 68.33 39.62 C 68.02 39.82 67.41 40.23 67.11 40.44 L 67.41 39.57 C 67.53 39.19 67.78 38.43 67.91 38.06 C 68.09 37.43 68.45 36.17 68.63 35.54 Z" />
<path fill="#7a9db6" opacity="1.00" d=" M 96.84 36.38 C 97.19 36.31 97.91 36.16 98.27 36.09 C 98.85 36.39 100.02 37.00 100.61 37.31 C 100.65 37.77 100.72 38.71 100.76 39.17 L 100.92 40.48 C 100.60 40.32 99.96 40.01 99.64 39.86 C 98.66 38.74 97.73 37.57 96.84 36.38 Z" />
<path fill="#7a9db6" opacity="1.00" d=" M 180.42 35.89 C 181.19 35.95 182.73 36.08 183.50 36.15 C 182.45 37.32 181.42 38.50 180.33 39.62 C 180.02 39.82 179.40 40.23 179.10 40.43 L 179.38 39.54 C 179.49 39.15 179.72 38.39 179.84 38.00 C 179.98 37.47 180.27 36.42 180.42 35.89 Z" />
<path fill="#7a9db6" opacity="1.00" d=" M 208.57 36.61 C 208.95 36.51 209.72 36.31 210.10 36.21 C 210.73 36.48 211.99 37.02 212.62 37.29 C 212.66 37.76 212.74 38.69 212.77 39.16 L 212.94 40.47 C 212.64 40.29 212.04 39.94 211.74 39.77 C 210.64 38.75 209.60 37.69 208.57 36.61 Z" />
</g>
<g id="#6a985aff">
<path fill="#6a985a" opacity="1.00" d=" M 51.61 39.05 C 52.49 38.38 53.38 37.72 54.26 37.05 C 56.23 37.58 58.20 38.12 60.17 38.68 C 60.04 39.27 59.80 40.47 59.67 41.07 C 56.40 41.64 53.00 42.34 50.53 44.71 C 50.87 42.82 51.28 40.94 51.61 39.05 M 53.92 38.39 C 53.95 39.03 54.02 40.31 54.05 40.95 C 55.35 40.96 56.65 40.96 57.95 40.95 C 57.98 40.31 58.05 39.03 58.08 38.39 C 56.69 38.40 55.31 38.40 53.92 38.39 Z" />
<path fill="#6a985a" opacity="1.00" d=" M 107.61 39.05 C 108.49 38.38 109.37 37.72 110.26 37.05 C 112.23 37.58 114.20 38.12 116.17 38.68 C 116.04 39.27 115.80 40.47 115.67 41.07 C 112.40 41.65 109.00 42.34 106.53 44.71 C 106.87 42.82 107.28 40.94 107.61 39.05 M 109.92 38.39 C 109.95 39.03 110.02 40.31 110.05 40.95 C 111.35 40.96 112.65 40.96 113.95 40.95 C 113.98 40.31 114.05 39.03 114.08 38.39 C 112.69 38.40 111.31 38.40 109.92 38.39 Z" />
<path fill="#6a985a" opacity="1.00" d=" M 163.61 39.05 C 164.49 38.38 165.37 37.72 166.26 37.05 C 168.23 37.58 170.20 38.12 172.17 38.68 C 172.04 39.27 171.80 40.47 171.67 41.07 C 168.40 41.64 165.00 42.34 162.53 44.71 C 162.87 42.82 163.28 40.94 163.61 39.05 M 165.92 38.39 C 165.95 39.03 166.02 40.31 166.05 40.95 C 167.35 40.96 168.65 40.96 169.95 40.95 C 169.98 40.31 170.05 39.03 170.08 38.39 C 168.69 38.40 167.30 38.40 165.92 38.39 Z" />
</g>
<g id="#3490d2ff">
<path fill="#3490d2" opacity="1.00" d=" M 11.46 40.36 C 12.28 39.57 13.09 38.78 13.89 37.98 C 14.08 39.60 14.47 42.84 14.67 44.46 C 13.93 44.33 12.45 44.07 11.72 43.95 C 11.66 42.75 11.56 41.55 11.46 40.36 Z" />
<path fill="#3490d2" opacity="1.00" d=" M 42.01 38.07 C 42.88 38.81 43.76 39.55 44.64 40.29 C 44.51 41.51 44.36 42.72 44.27 43.94 C 43.54 44.07 42.06 44.33 41.33 44.45 C 41.50 42.86 41.84 39.66 42.01 38.07 Z" />
</g>
<g id="#8db764ff">
<path fill="#8db764" opacity="1.00" d=" M 53.92 38.39 C 55.31 38.40 56.69 38.40 58.08 38.39 C 58.05 39.03 57.98 40.31 57.95 40.95 C 56.65 40.96 55.35 40.96 54.05 40.95 C 54.02 40.31 53.95 39.03 53.92 38.39 Z" />
<path fill="#8db764" opacity="1.00" d=" M 109.92 38.39 C 111.31 38.40 112.69 38.40 114.08 38.39 C 114.05 39.03 113.98 40.31 113.95 40.95 C 112.65 40.96 111.35 40.96 110.05 40.95 C 110.02 40.31 109.95 39.03 109.92 38.39 Z" />
<path fill="#8db764" opacity="1.00" d=" M 165.92 38.39 C 167.30 38.40 168.69 38.40 170.08 38.39 C 170.05 39.03 169.98 40.31 169.95 40.95 C 168.65 40.96 167.35 40.96 166.05 40.95 C 166.02 40.31 165.95 39.03 165.92 38.39 Z" />
</g>
<g id="#4c95c9ff">
<path fill="#4c95c9" opacity="1.00" d=" M 67.11 40.44 C 67.41 40.23 68.02 39.82 68.33 39.62 C 69.14 40.78 69.16 41.94 68.39 43.09 C 67.04 42.62 66.61 41.74 67.11 40.44 Z" />
<path fill="#4c95c9" opacity="1.00" d=" M 99.64 39.86 C 99.96 40.01 100.60 40.32 100.92 40.48 C 101.18 41.77 100.69 42.68 99.45 43.20 L 98.90 42.74 C 99.08 42.02 99.45 40.58 99.64 39.86 Z" />
<path fill="#4c95c9" opacity="1.00" d=" M 179.10 40.43 C 179.40 40.23 180.02 39.82 180.33 39.62 C 181.15 40.78 181.17 41.94 180.39 43.09 C 179.06 42.62 178.63 41.73 179.10 40.43 Z" />
<path fill="#4c95c9" opacity="1.00" d=" M 211.74 39.77 C 212.04 39.94 212.64 40.29 212.94 40.47 C 213.21 41.78 212.72 42.67 211.46 43.16 L 210.91 42.68 C 211.12 41.95 211.53 40.50 211.74 39.77 Z" />
</g>
<g id="#81ab5dff">
<path fill="#81ab5d" opacity="1.00" d=" M 59.67 41.07 C 59.99 41.18 60.64 41.41 60.96 41.53 C 59.41 42.09 58.71 44.49 60.44 45.30 C 61.11 45.78 61.78 46.26 62.45 46.74 C 61.98 48.38 61.50 50.01 61.01 51.64 L 60.80 52.27 C 59.12 52.64 57.57 53.39 56.01 54.09 C 54.36 53.34 52.68 52.63 50.91 52.23 L 50.73 51.66 C 50.38 49.37 50.00 47.01 50.53 44.71 C 53.00 42.34 56.40 41.64 59.67 41.07 Z" />
<path fill="#81ab5d" opacity="1.00" d=" M 115.67 41.07 C 115.99 41.18 116.64 41.41 116.96 41.53 C 115.41 42.09 114.71 44.50 116.44 45.30 C 117.11 45.78 117.78 46.27 118.45 46.75 C 117.98 48.37 117.50 50.00 117.01 51.63 L 116.80 52.26 C 115.12 52.63 113.57 53.38 112.01 54.09 C 110.36 53.34 108.68 52.63 106.91 52.24 L 106.73 51.66 C 106.38 49.37 106.00 47.01 106.53 44.71 C 109.00 42.34 112.40 41.65 115.67 41.07 Z" />
<path fill="#81ab5d" opacity="1.00" d=" M 171.67 41.07 C 171.99 41.18 172.64 41.41 172.96 41.53 C 171.41 42.09 170.71 44.50 172.44 45.30 C 173.10 45.78 173.78 46.26 174.45 46.74 C 173.98 48.38 173.50 50.01 173.01 51.64 L 172.80 52.27 C 171.12 52.64 169.57 53.39 168.01 54.08 C 166.36 53.33 164.68 52.63 162.91 52.23 L 162.73 51.66 C 162.38 49.37 162.00 47.01 162.53 44.71 C 165.00 42.34 168.40 41.64 171.67 41.07 Z" />
</g>
<g id="#68975bfe">
<path fill="#68975b" opacity="1.00" d=" M 60.44 45.30 C 58.71 44.49 59.41 42.09 60.96 41.53 C 62.95 42.02 62.04 44.88 60.44 45.30 Z" />
<path fill="#68975b" opacity="1.00" d=" M 116.44 45.30 C 114.71 44.50 115.41 42.09 116.96 41.53 C 118.95 42.02 118.04 44.88 116.44 45.30 Z" />
<path fill="#68975b" opacity="1.00" d=" M 172.44 45.30 C 170.71 44.50 171.41 42.09 172.96 41.53 C 174.95 42.02 174.04 44.88 172.44 45.30 Z" />
</g>
<g id="#3c7acdff">
<path fill="#3c7acd" opacity="1.00" d=" M 86.61 44.54 C 90.58 43.28 94.71 42.61 98.90 42.74 L 99.45 43.20 L 99.93 43.63 C 97.90 44.43 98.49 47.10 100.45 47.54 C 100.20 48.19 99.93 48.83 99.66 49.48 C 96.40 45.62 91.26 45.18 86.61 44.54 Z" />
</g>
<g id="#3b7acdff">
<path fill="#3b7acd" opacity="1.00" d=" M 198.61 44.54 C 202.59 43.29 206.72 42.60 210.91 42.68 L 211.46 43.16 L 211.94 43.62 C 209.89 44.42 210.48 47.10 212.45 47.54 C 212.20 48.20 211.95 48.87 211.68 49.52 C 208.44 45.62 203.28 45.18 198.61 44.54 Z" />
</g>
<g id="#86a0b0fe">
<path fill="#86a0b0" opacity="1.00" d=" M 11.72 43.95 C 12.45 44.07 13.93 44.33 14.67 44.46 L 14.74 45.06 C 14.01 46.02 13.04 46.76 12.00 47.38 C 11.51 46.30 11.69 45.09 11.72 43.95 Z" />
<path fill="#86a0b0" opacity="1.00" d=" M 41.33 44.45 C 42.06 44.33 43.54 44.07 44.27 43.94 C 44.30 45.09 44.48 46.30 43.99 47.38 C 42.96 46.77 41.99 46.02 41.27 45.05 L 41.33 44.45 Z" />
</g>
<g id="#86a0b1ff">
<path fill="#86a0b1" opacity="1.00" d=" M 68.03 43.66 C 68.50 44.06 69.44 44.85 69.91 45.25 C 69.34 46.16 68.58 46.89 67.63 47.44 C 67.12 46.21 67.12 44.71 68.03 43.66 Z" />
<path fill="#86a0b1" opacity="1.00" d=" M 100.45 47.54 C 98.49 47.10 97.90 44.43 99.93 43.63 C 101.15 44.50 101.02 46.32 100.45 47.54 Z" />
<path fill="#86a0b1" opacity="1.00" d=" M 180.03 43.66 C 180.50 44.06 181.44 44.85 181.91 45.25 C 181.34 46.16 180.58 46.89 179.63 47.44 C 179.12 46.21 179.12 44.71 180.03 43.66 Z" />
<path fill="#86a0b1" opacity="1.00" d=" M 212.45 47.54 C 210.48 47.10 209.89 44.42 211.94 43.62 C 213.13 44.52 213.00 46.31 212.45 47.54 Z" />
</g>
<g id="#318cd2ff">
<path fill="#318cd2" opacity="1.00" d=" M 14.74 45.06 C 14.50 46.99 13.93 48.87 13.46 50.76 C 12.94 49.65 12.45 48.52 12.00 47.38 C 13.04 46.76 14.01 46.02 14.74 45.06 Z" />
<path fill="#318cd2" opacity="1.00" d=" M 42.54 50.82 C 42.06 48.91 41.50 47.01 41.27 45.05 C 41.99 46.02 42.96 46.77 43.99 47.38 C 43.54 48.54 43.06 49.69 42.54 50.82 Z" />
</g>
<g id="#2c84d1fe">
<path fill="#2c84d1" opacity="1.00" d=" M 69.91 45.25 C 71.19 46.81 69.90 48.73 68.78 49.94 C 68.18 49.23 67.80 48.39 67.63 47.44 C 68.58 46.89 69.34 46.16 69.91 45.25 Z" />
<path fill="#2c84d1" opacity="1.00" d=" M 181.91 45.25 C 183.19 46.81 181.90 48.73 180.78 49.94 C 180.18 49.23 179.80 48.39 179.63 47.44 C 180.58 46.89 181.34 46.16 181.91 45.25 Z" />
</g>
<g id="#4180caff">
<path fill="#4180ca" opacity="1.00" d=" M 130.84 47.65 C 131.74 46.87 132.63 46.09 133.53 45.31 C 138.55 51.37 146.68 51.56 153.92 50.68 C 144.68 51.88 135.25 52.40 126.05 50.69 C 130.47 50.95 134.90 50.96 139.33 50.98 C 136.49 49.88 133.65 48.81 130.84 47.65 Z" />
</g>
<g id="#3b4b38ff">
<path fill="#3b4b38" opacity="1.00" d=" M 13.46 50.76 L 14.45 50.81 C 23.47 51.81 32.57 52.09 41.58 50.87 L 42.54 50.82 L 42.21 51.48 C 38.28 54.00 33.33 53.56 28.89 53.60 C 23.91 53.30 18.18 54.36 13.76 51.36 L 13.46 50.76 Z" />
<path fill="#3b4b38" opacity="1.00" d=" M 69.39 50.54 L 70.36 50.67 C 79.42 51.95 88.76 52.69 97.76 50.67 L 98.92 50.44 L 98.23 51.30 C 94.45 54.18 89.31 53.47 84.90 53.59 C 80.08 53.07 74.03 54.75 70.02 51.14 L 69.39 50.54 Z" />
<path fill="#3b4b38" opacity="1.00" d=" M 124.65 50.53 L 126.05 50.69 C 135.25 52.40 144.68 51.88 153.92 50.68 L 155.35 50.56 L 154.91 51.46 C 150.63 53.76 145.60 53.64 140.90 53.58 C 135.62 53.50 129.93 53.99 125.08 51.45 L 124.65 50.53 Z" />
<path fill="#3b4b38" opacity="1.00" d=" M 181.39 50.54 L 182.36 50.67 C 191.41 51.92 200.78 52.75 209.76 50.64 L 210.92 50.39 L 210.26 51.12 C 206.62 54.32 201.29 53.39 196.90 53.59 C 192.08 53.06 186.03 54.75 182.02 51.14 L 181.39 50.54 Z" />
</g>
<g id="#4081caff">
<path fill="#4081ca" opacity="1.00" d=" M 14.45 50.81 C 23.50 50.74 32.54 50.59 41.58 50.87 C 32.57 52.09 23.47 51.81 14.45 50.81 Z" />
<path fill="#4081ca" opacity="1.00" d=" M 70.36 50.67 C 79.49 50.86 88.63 50.68 97.76 50.67 C 88.76 52.69 79.42 51.95 70.36 50.67 Z" />
<path fill="#4081ca" opacity="1.00" d=" M 182.36 50.67 C 191.49 50.86 200.63 50.71 209.76 50.64 C 200.78 52.75 191.41 51.92 182.36 50.67 Z" />
</g>
<g id="#446445fe">
<path fill="#446445" opacity="1.00" d=" M 5.62 52.73 C 6.58 52.21 7.60 51.90 8.69 51.81 C 8.08 53.25 7.39 54.66 6.57 56.00 L 6.16 56.00 C 5.82 54.93 5.64 53.85 5.62 52.73 Z" />
<path fill="#446445" opacity="1.00" d=" M 47.23 51.59 C 48.14 51.57 49.03 51.70 49.89 51.96 C 50.09 53.30 50.09 54.65 49.90 56.00 L 49.56 56.00 C 48.68 54.59 47.89 53.11 47.23 51.59 Z" />
<path fill="#446445" opacity="1.00" d=" M 62.05 51.97 C 62.94 51.75 63.84 51.62 64.76 51.57 C 64.10 53.10 63.32 54.58 62.45 56.00 L 62.11 56.00 C 61.90 54.66 61.88 53.31 62.05 51.97 Z" />
<path fill="#446445" opacity="1.00" d=" M 103.23 51.58 C 104.14 51.59 105.03 51.72 105.90 51.98 C 106.10 53.31 106.10 54.66 105.90 56.00 L 105.55 56.00 C 104.67 54.59 103.88 53.11 103.23 51.58 Z" />
<path fill="#446445" opacity="1.00" d=" M 118.05 51.95 C 118.94 51.71 119.84 51.59 120.76 51.59 C 120.09 53.11 119.31 54.58 118.44 56.00 L 118.11 56.00 C 117.91 54.65 117.89 53.30 118.05 51.95 Z" />
<path fill="#446445" opacity="1.00" d=" M 159.23 51.59 C 160.14 51.58 161.03 51.71 161.90 51.96 C 162.09 53.30 162.09 54.65 161.90 56.00 L 161.56 56.00 C 160.68 54.59 159.89 53.12 159.23 51.59 Z" />
<path fill="#446445" opacity="1.00" d=" M 174.05 51.97 C 174.94 51.75 175.84 51.62 176.76 51.57 C 176.10 53.10 175.32 54.58 174.45 56.00 L 174.11 56.00 C 173.90 54.66 173.88 53.31 174.05 51.97 Z" />
<path fill="#446445" opacity="1.00" d=" M 215.30 51.82 C 216.38 51.94 217.41 52.25 218.39 52.74 C 218.37 53.85 218.18 54.94 217.84 56.00 L 217.43 56.00 C 216.60 54.67 215.90 53.26 215.30 51.82 Z" />
</g>
<g id="#7aa55cff">
<path fill="#7aa55c" opacity="1.00" d=" M 8.69 51.81 C 10.38 51.61 12.07 51.48 13.76 51.36 C 18.18 54.36 23.91 53.30 28.89 53.60 C 33.33 53.56 38.28 54.00 42.21 51.48 C 43.88 51.52 45.56 51.55 47.23 51.59 C 47.89 53.11 48.68 54.59 49.56 56.00 L 6.57 56.00 C 7.39 54.66 8.08 53.25 8.69 51.81 Z" />
<path fill="#7aa55c" opacity="1.00" d=" M 64.76 51.57 C 66.51 51.45 68.27 51.30 70.02 51.14 C 74.03 54.75 80.08 53.07 84.90 53.59 C 89.31 53.47 94.45 54.18 98.23 51.30 C 99.89 51.40 101.56 51.50 103.23 51.58 C 103.88 53.11 104.67 54.59 105.55 56.00 L 62.45 56.00 C 63.32 54.58 64.10 53.10 64.76 51.57 Z" />
<path fill="#7aa55c" opacity="1.00" d=" M 120.76 51.59 C 122.20 51.54 123.64 51.50 125.08 51.45 C 129.93 53.99 135.62 53.50 140.90 53.58 C 145.60 53.64 150.63 53.76 154.91 51.46 C 156.35 51.50 157.79 51.55 159.23 51.59 C 159.89 53.12 160.68 54.59 161.56 56.00 L 118.44 56.00 C 119.31 54.58 120.09 53.11 120.76 51.59 Z" />
<path fill="#7aa55c" opacity="1.00" d=" M 176.76 51.57 C 178.51 51.45 180.26 51.30 182.02 51.14 C 186.03 54.75 192.08 53.06 196.90 53.59 C 201.29 53.39 206.62 54.32 210.26 51.12 C 211.94 51.34 213.62 51.56 215.30 51.82 C 215.90 53.26 216.60 54.67 217.43 56.00 L 174.45 56.00 C 175.32 54.58 176.10 53.10 176.76 51.57 Z" />
</g>
<g id="#6f9c5aff">
<path fill="#6f9c5a" opacity="1.00" d=" M 50.91 52.23 C 52.68 52.63 54.36 53.34 56.01 54.09 C 57.57 53.39 59.12 52.64 60.80 52.27 L 62.05 51.97 C 61.88 53.31 61.90 54.66 62.11 56.00 L 49.90 56.00 C 50.09 54.65 50.09 53.30 49.89 51.96 L 50.91 52.23 Z" />
<path fill="#6f9c5a" opacity="1.00" d=" M 106.91 52.24 C 108.68 52.63 110.36 53.34 112.01 54.09 C 113.57 53.38 115.12 52.63 116.80 52.26 L 118.05 51.95 C 117.89 53.30 117.91 54.65 118.11 56.00 L 105.90 56.00 C 106.10 54.66 106.10 53.31 105.90 51.98 L 106.91 52.24 Z" />
<path fill="#6f9c5a" opacity="1.00" d=" M 162.91 52.23 C 164.68 52.63 166.36 53.33 168.01 54.08 C 169.57 53.39 171.12 52.64 172.80 52.27 L 174.05 51.97 C 173.88 53.31 173.90 54.66 174.11 56.00 L 161.90 56.00 C 162.09 54.65 162.09 53.30 161.90 51.96 L 162.91 52.23 Z" />
</g>
</svg>
