<?xml version="1.0" encoding="UTF-8" ?>
<!DOCTYPE svg PUBLIC "-//W3C//DTD SVG 1.1//EN" "http://www.w3.org/Graphics/SVG/1.1/DTD/svg11.dtd">
<svg width="224pt" height="56pt" viewBox="0 0 224 56" version="1.1" xmlns="http://www.w3.org/2000/svg">
<g id="#81ab59fe">
<path fill="#81ab59" opacity="1.00" d=" M 0.00 0.00 L 10.34 0.00 C 10.24 0.45 10.05 1.35 9.95 1.80 C 6.42 2.75 3.35 4.81 1.63 8.10 C 1.40 8.08 0.94 8.03 0.71 8.00 C 2.21 6.96 1.28 5.02 0.00 4.31 L 0.00 0.00 Z" />
</g>
<g id="#342f2aff">
<path fill="#342f2a" opacity="1.00" d=" M 10.34 0.00 L 13.03 0.00 C 13.03 0.57 13.02 1.70 13.02 2.26 C 12.44 5.76 11.55 9.23 11.62 12.80 C 12.29 10.49 12.95 8.17 13.33 5.80 C 14.10 10.15 13.16 14.44 12.08 18.61 L 11.97 19.02 C 11.62 19.28 10.91 19.81 10.55 20.07 C 10.26 16.35 9.68 12.66 9.04 8.98 C 8.34 9.10 6.94 9.34 6.24 9.46 C 6.88 13.60 7.53 17.74 8.08 21.89 C 7.57 22.27 6.56 23.05 6.05 23.43 C 5.63 22.84 4.80 21.66 4.39 21.07 C 6.02 19.44 3.83 16.22 2.40 18.89 C 2.12 19.21 1.56 19.86 1.28 20.18 C 0.96 20.55 0.32 21.30 0.00 21.67 L 0.00 7.90 L 0.71 8.00 C 0.94 8.03 1.40 8.08 1.63 8.10 C 4.01 8.20 6.73 8.52 8.79 7.07 C 9.38 5.36 9.59 3.56 9.95 1.80 C 10.05 1.35 10.24 0.45 10.34 0.00 M 3.95 11.50 C 4.75 14.21 5.84 16.83 7.09 19.36 C 6.69 16.50 5.47 13.90 3.95 11.50 Z" />
<path fill="#342f2a" opacity="1.00" d=" M 42.50 0.00 L 44.84 0.00 C 45.31 0.31 46.24 0.94 46.71 1.26 C 46.64 3.07 46.49 4.90 46.68 6.72 C 48.90 8.33 51.78 8.21 54.39 8.35 C 54.61 8.35 55.05 8.36 55.28 8.36 C 55.64 8.36 56.37 8.36 56.73 8.36 C 56.96 8.36 57.42 8.35 57.65 8.35 C 60.05 8.22 62.64 8.31 64.80 7.07 C 65.37 5.36 65.60 3.56 65.95 1.79 C 66.05 1.35 66.24 0.45 66.33 0.00 L 68.98 0.00 C 68.98 0.56 68.99 1.68 68.99 2.25 C 68.45 5.75 67.56 9.22 67.61 12.79 C 68.30 10.49 68.96 8.17 69.36 5.79 C 70.30 9.71 69.37 13.56 67.97 17.19 L 67.83 17.57 C 67.44 18.59 67.04 19.61 66.63 20.62 C 66.51 16.69 65.78 12.82 65.04 8.98 C 64.30 9.11 62.81 9.37 62.06 9.51 C 62.84 13.29 63.58 17.08 64.53 20.82 C 63.82 21.04 62.42 21.49 61.71 21.72 C 61.52 21.19 61.15 20.13 60.96 19.60 C 61.16 17.31 58.41 16.64 58.71 19.37 L 57.97 19.45 C 56.67 19.58 55.33 19.76 54.17 20.40 C 54.01 20.06 53.69 19.38 53.53 19.04 C 52.56 15.88 50.38 18.94 51.12 20.88 C 50.84 21.51 50.26 22.79 49.97 23.42 C 49.45 23.03 48.41 22.24 47.89 21.84 C 48.32 17.70 48.89 13.58 49.58 9.48 C 48.96 9.34 47.71 9.07 47.09 8.93 C 46.54 12.61 45.99 16.30 45.44 19.98 C 45.07 19.70 44.32 19.14 43.94 18.86 L 43.86 18.46 C 42.96 14.31 41.85 10.11 42.74 5.82 C 43.00 8.17 43.55 10.48 44.05 12.80 C 44.49 9.16 44.75 5.42 43.22 1.99 C 43.04 1.49 42.68 0.50 42.50 0.00 M 48.91 19.36 C 50.16 16.83 51.25 14.21 52.05 11.50 C 50.53 13.90 49.30 16.50 48.91 19.36 M 59.95 11.50 C 60.75 14.21 61.84 16.83 63.09 19.36 C 62.68 16.50 61.47 13.90 59.95 11.50 Z" />
<path fill="#342f2a" opacity="1.00" d=" M 98.91 0.00 L 100.86 0.00 C 101.33 0.31 102.25 0.94 102.71 1.25 C 102.64 3.07 102.49 4.91 102.68 6.73 C 104.91 8.31 107.78 8.22 110.39 8.35 C 110.61 8.35 111.05 8.36 111.27 8.37 C 111.64 8.36 112.36 8.36 112.72 8.36 C 112.95 8.36 113.42 8.35 113.65 8.35 C 116.05 8.22 118.65 8.31 120.80 7.07 C 121.37 5.36 121.60 3.55 121.95 1.79 C 122.05 1.34 122.24 0.45 122.33 0.00 L 124.93 0.00 C 124.90 0.56 124.84 1.69 124.81 2.25 C 124.33 5.75 123.63 9.23 123.60 12.77 C 124.30 10.46 124.99 8.15 125.45 5.77 C 125.66 7.04 126.10 9.56 126.32 10.82 C 125.76 12.39 125.07 13.92 124.33 15.41 C 124.08 15.75 123.58 16.42 123.34 16.75 C 122.38 14.22 121.47 11.68 120.58 9.13 C 119.98 9.22 118.79 9.39 118.19 9.47 C 118.80 12.92 119.42 16.36 120.02 19.80 C 119.47 20.21 118.36 21.03 117.81 21.44 C 117.61 20.86 117.21 19.70 117.01 19.11 C 117.30 17.49 115.34 16.65 114.40 18.03 L 114.01 18.17 C 113.49 18.32 112.46 18.63 111.94 18.79 C 111.48 18.92 110.56 19.19 110.10 19.32 L 109.30 19.50 C 110.17 16.74 107.02 17.47 107.08 19.66 C 106.85 20.23 106.39 21.36 106.16 21.93 C 105.45 21.60 104.03 20.95 103.32 20.62 C 104.17 16.93 105.01 13.23 105.82 9.52 C 105.10 9.37 103.68 9.06 102.97 8.91 C 102.42 12.74 101.73 16.55 101.32 20.40 C 101.00 19.49 100.67 18.58 100.35 17.68 L 100.20 17.24 C 98.77 13.60 97.49 9.78 98.68 5.80 C 99.00 8.16 99.55 10.47 100.08 12.79 C 100.50 9.13 100.37 5.48 99.31 1.94 C 99.21 1.46 99.01 0.49 98.91 0.00 M 104.91 19.36 C 106.16 16.83 107.25 14.21 108.05 11.50 C 106.54 13.90 105.30 16.50 104.91 19.36 M 115.95 11.50 C 116.75 14.21 117.84 16.83 119.09 19.36 C 118.68 16.50 117.48 13.90 115.95 11.50 Z" />
<path fill="#342f2a" opacity="1.00" d=" M 155.02 0.00 L 156.87 0.00 C 157.33 0.31 158.25 0.93 158.71 1.24 C 158.64 3.07 158.49 4.91 158.68 6.73 C 160.91 8.31 163.77 8.22 166.38 8.35 C 166.61 8.35 167.05 8.36 167.28 8.36 C 167.64 8.36 168.37 8.36 168.73 8.36 C 168.96 8.36 169.42 8.35 169.65 8.35 C 172.05 8.22 174.64 8.31 176.80 7.07 C 177.37 5.36 177.60 3.56 177.95 1.79 C 178.05 1.35 178.24 0.45 178.33 0.00 L 180.98 0.00 C 180.98 0.56 180.99 1.68 180.99 2.25 C 180.44 5.75 179.56 9.22 179.61 12.79 C 180.30 10.49 180.96 8.17 181.36 5.79 C 182.30 9.72 181.37 13.57 179.96 17.19 L 179.82 17.58 C 179.43 18.59 179.03 19.59 178.63 20.60 C 178.51 16.68 177.77 12.82 177.04 8.97 C 176.30 9.11 174.81 9.37 174.06 9.51 C 174.84 13.29 175.58 17.08 176.52 20.82 C 175.83 21.09 174.45 21.63 173.76 21.91 C 173.55 21.34 173.12 20.21 172.90 19.64 C 173.00 17.43 169.83 16.74 170.69 19.48 L 169.88 19.31 C 169.42 19.18 168.51 18.92 168.05 18.78 C 167.53 18.63 166.50 18.33 165.99 18.18 L 165.60 18.04 C 164.66 16.66 162.69 17.51 162.99 19.13 C 162.79 19.72 162.40 20.89 162.20 21.48 C 161.64 21.06 160.52 20.23 159.96 19.81 C 160.51 16.35 161.13 12.90 161.74 9.45 C 161.16 9.37 160.01 9.21 159.43 9.13 C 158.54 11.69 157.62 14.22 156.66 16.75 C 156.41 16.42 155.92 15.75 155.68 15.41 C 154.92 13.91 154.22 12.38 153.64 10.80 C 153.88 9.55 154.36 7.03 154.60 5.77 C 154.99 8.13 155.53 10.46 156.09 12.78 C 156.49 9.15 156.33 5.53 155.43 1.99 C 155.33 1.49 155.12 0.50 155.02 0.00 M 160.91 19.36 C 162.16 16.83 163.25 14.21 164.05 11.50 C 162.54 13.90 161.29 16.50 160.91 19.36 M 171.95 11.50 C 172.75 14.21 173.84 16.83 175.09 19.36 C 174.67 16.50 173.48 13.90 171.95 11.50 Z" />
<path fill="#342f2a" opacity="1.00" d=" M 210.91 0.00 L 212.86 0.00 C 213.32 0.31 214.23 0.93 214.68 1.24 C 214.67 3.22 214.52 5.23 214.90 7.19 C 217.21 8.32 219.88 8.23 222.39 8.07 C 222.61 8.05 223.06 8.00 223.29 7.98 L 224.00 7.89 L 224.00 18.99 C 223.45 19.07 222.35 19.24 221.80 19.32 L 221.05 19.43 C 221.98 16.54 218.69 17.44 219.00 19.74 C 218.83 20.35 218.48 21.57 218.31 22.18 C 217.58 21.81 216.12 21.07 215.39 20.70 C 216.21 16.98 217.01 13.25 217.80 9.52 C 217.09 9.37 215.67 9.06 214.96 8.91 C 214.42 12.74 213.74 16.56 213.34 20.41 C 213.01 19.49 212.68 18.58 212.35 17.67 L 212.20 17.24 C 210.77 13.60 209.48 9.78 210.68 5.80 C 211.00 8.16 211.54 10.47 212.08 12.79 C 212.50 9.13 212.37 5.48 211.31 1.94 C 211.21 1.46 211.01 0.49 210.91 0.00 M 216.91 19.36 C 218.16 16.83 219.25 14.21 220.05 11.50 C 218.54 13.90 217.28 16.50 216.91 19.36 Z" />
</g>
<g id="#268dd9ff">
<path fill="#268dd9" opacity="1.00" d=" M 13.03 0.00 L 16.11 0.00 L 15.30 0.84 C 13.43 1.89 13.93 4.55 16.18 4.53 C 16.68 8.11 17.16 11.70 17.64 15.28 C 16.85 14.89 16.06 14.51 15.26 14.15 C 15.22 14.18 15.13 14.23 15.08 14.25 C 13.28 14.99 12.33 16.77 12.08 18.61 C 13.16 14.44 14.10 10.15 13.33 5.80 C 13.24 4.62 13.14 3.44 13.02 2.26 C 13.02 1.70 13.03 0.57 13.03 0.00 Z" />
<path fill="#268dd9" opacity="1.00" d=" M 68.98 0.00 L 70.21 0.00 C 70.44 0.36 70.91 1.07 71.15 1.43 C 70.27 2.60 70.24 5.10 72.26 4.88 C 72.02 8.10 71.73 11.32 71.53 14.54 C 70.14 15.12 68.94 16.04 67.97 17.19 C 69.37 13.56 70.30 9.71 69.36 5.79 C 69.25 4.61 69.13 3.43 68.99 2.25 C 68.99 1.68 68.98 0.56 68.98 0.00 Z" />
<path fill="#268dd9" opacity="1.00" d=" M 180.98 0.00 L 182.21 0.00 C 182.45 0.36 182.93 1.07 183.16 1.43 C 182.28 2.59 182.25 5.10 184.27 4.87 C 184.04 8.09 183.71 11.29 183.49 14.51 C 182.10 15.10 180.91 16.04 179.96 17.19 C 181.37 13.57 182.30 9.72 181.36 5.79 C 181.25 4.61 181.13 3.43 180.99 2.25 C 180.99 1.68 180.98 0.56 180.98 0.00 Z" />
</g>
<g id="#3c6bbeff">
<path fill="#3c6bbe" opacity="1.00" d=" M 16.11 0.00 L 25.56 0.00 C 26.62 1.16 27.62 2.36 28.62 3.56 C 24.46 4.51 19.97 4.60 16.06 2.66 C 15.87 2.20 15.49 1.30 15.30 0.84 L 16.11 0.00 Z" />
<path fill="#3c6bbe" opacity="1.00" d=" M 70.21 0.00 L 85.56 0.00 C 81.92 3.11 77.22 3.50 72.67 3.48 C 75.59 4.13 78.89 6.79 81.81 4.83 C 86.13 2.26 91.05 0.95 95.95 0.00 L 97.83 0.00 C 97.59 0.35 97.12 1.05 96.89 1.39 C 95.99 2.39 95.60 3.53 95.71 4.83 C 95.90 8.03 96.08 11.23 96.38 14.42 C 96.44 14.77 96.54 15.45 96.60 15.80 C 97.25 18.63 97.78 21.52 98.79 24.26 C 100.22 25.88 101.87 27.29 103.32 28.89 C 105.22 30.48 103.69 33.05 103.58 35.07 C 101.39 34.10 99.21 33.15 97.02 32.19 C 96.76 33.10 96.49 34.02 96.23 34.93 C 100.92 36.88 105.84 38.15 110.76 39.37 C 109.06 37.33 105.23 35.68 106.32 32.52 C 108.60 30.37 111.34 28.76 113.88 26.93 C 110.54 26.59 107.19 26.26 103.86 25.84 C 106.37 25.46 108.88 25.04 111.38 24.59 C 110.32 24.07 109.26 23.56 108.19 23.07 C 109.21 22.63 110.17 22.07 111.06 21.40 C 111.45 21.04 112.23 20.32 112.63 19.95 C 113.60 20.79 114.64 21.54 115.76 22.19 C 114.65 22.71 113.56 23.26 112.47 23.82 C 114.92 24.22 117.36 24.64 119.84 24.84 C 119.52 24.02 118.88 22.37 118.55 21.55 C 120.57 21.18 122.58 20.82 124.59 20.45 C 124.56 21.24 124.49 22.81 124.45 23.59 C 128.08 16.22 129.65 7.72 126.20 0.00 L 138.34 0.00 C 137.75 0.55 136.58 1.65 135.99 2.20 C 133.55 2.18 131.10 2.16 128.65 2.28 C 131.26 3.28 133.81 4.63 136.61 4.99 C 138.45 3.59 139.81 1.69 141.37 0.00 L 153.81 0.00 C 150.44 7.68 151.46 16.42 155.58 23.63 C 155.54 22.83 155.45 21.24 155.41 20.45 C 157.45 20.83 159.49 21.21 161.53 21.60 C 161.39 22.89 161.26 24.18 161.09 25.46 C 160.68 28.25 160.02 30.99 159.31 33.72 C 156.60 32.98 153.71 32.69 151.17 31.44 C 149.29 29.77 148.22 27.40 146.79 25.37 C 147.24 27.40 147.69 29.42 148.13 31.44 C 142.52 34.15 135.08 35.10 130.08 30.68 C 129.60 28.81 130.59 27.10 132.40 26.48 C 136.34 25.21 140.57 25.41 144.65 24.88 C 141.06 23.90 137.08 22.60 133.49 24.34 C 129.57 25.89 128.81 30.54 126.54 33.69 C 130.42 35.25 136.08 34.57 138.63 38.24 C 138.43 41.24 137.41 44.10 136.69 47.00 C 140.96 43.84 141.28 37.34 146.11 34.99 C 153.21 33.17 160.00 36.74 166.76 38.42 C 165.01 36.34 161.17 34.61 162.24 31.36 C 164.45 27.74 169.30 28.74 172.88 28.50 C 169.44 27.07 165.88 25.94 162.24 25.18 C 163.97 24.64 165.67 24.03 167.39 23.43 C 166.34 23.01 165.30 22.60 164.25 22.21 C 165.35 21.55 166.39 20.80 167.37 19.95 C 167.76 20.31 168.54 21.04 168.93 21.40 C 169.81 22.08 170.76 22.64 171.79 23.09 C 170.66 23.69 169.55 24.32 168.46 24.98 C 171.10 25.32 173.76 25.63 176.43 25.61 C 175.83 24.97 174.62 23.68 174.02 23.04 C 175.66 23.22 177.23 22.61 178.66 21.88 C 180.10 22.47 181.61 22.94 183.17 23.04 C 183.43 20.96 183.34 18.85 183.38 16.75 C 183.41 16.19 183.46 15.07 183.49 14.51 C 183.71 11.29 184.04 8.09 184.27 4.87 C 184.42 3.58 184.05 2.43 183.16 1.43 C 182.93 1.07 182.45 0.36 182.21 0.00 L 197.56 0.00 C 193.92 3.11 189.22 3.50 184.67 3.48 C 187.58 4.13 190.89 6.79 193.81 4.83 C 198.13 2.26 203.04 0.95 207.95 0.00 L 209.83 0.00 C 209.59 0.35 209.12 1.05 208.89 1.39 C 207.99 2.39 207.59 3.53 207.71 4.83 C 207.90 8.03 208.08 11.23 208.38 14.42 C 208.44 14.77 208.54 15.45 208.60 15.80 C 209.24 18.63 209.78 21.52 210.79 24.26 C 212.22 25.88 213.87 27.29 215.32 28.89 C 217.22 30.48 215.69 33.05 215.58 35.07 C 213.39 34.10 211.21 33.15 209.02 32.19 C 208.76 33.10 208.49 34.02 208.23 34.93 C 212.92 36.88 217.84 38.15 222.76 39.36 C 221.19 37.44 217.79 36.04 218.15 33.21 C 219.53 30.92 222.02 29.63 224.00 27.92 L 224.00 45.12 C 215.54 44.82 207.00 42.50 198.56 44.20 C 202.92 45.37 207.30 46.63 211.80 47.15 C 215.90 47.16 219.93 46.23 224.00 45.89 L 224.00 56.00 L 205.30 56.00 C 200.41 54.00 195.85 51.31 191.19 48.84 C 195.61 43.34 199.04 36.27 206.31 33.96 C 204.94 31.45 203.73 28.86 202.39 26.33 C 202.19 28.97 203.22 32.81 199.96 33.96 C 195.21 36.94 189.97 33.94 185.59 31.83 C 188.07 27.36 192.90 25.78 197.88 26.31 C 197.26 22.39 199.81 19.39 202.75 17.19 C 198.59 18.08 194.32 17.84 190.18 16.94 C 192.80 18.74 195.25 20.81 197.16 23.38 C 193.50 24.72 189.82 25.99 186.13 27.26 C 185.24 29.79 185.77 33.51 182.92 34.70 C 179.42 36.13 175.76 37.08 172.17 38.24 C 174.62 41.87 177.54 45.24 181.62 47.09 C 179.46 44.58 177.26 42.09 175.22 39.48 C 181.33 36.47 188.17 34.57 194.94 36.87 C 193.42 41.37 190.93 45.48 187.46 48.73 C 188.02 48.90 189.15 49.26 189.72 49.44 C 187.86 51.16 185.99 52.87 184.14 54.59 C 186.75 53.45 189.26 51.92 192.10 51.43 C 194.90 51.48 197.26 53.31 199.70 54.48 C 198.25 55.01 196.80 55.51 195.35 56.00 L 150.07 56.00 C 145.14 51.61 138.87 49.30 133.55 45.50 C 132.67 46.10 131.82 46.74 130.97 47.38 C 131.70 47.65 133.14 48.17 133.86 48.44 C 131.95 50.12 130.03 51.78 128.12 53.46 C 133.59 50.68 140.10 49.93 145.64 52.98 C 143.57 53.33 139.44 54.04 137.38 54.39 C 138.00 54.80 139.24 55.60 139.86 56.00 L 93.30 56.00 C 88.41 54.00 83.85 51.32 79.19 48.84 C 83.63 43.30 87.10 36.21 94.42 33.89 C 92.89 31.32 91.43 28.70 89.64 26.30 C 90.10 28.39 90.61 30.46 91.10 32.54 C 85.51 35.33 79.11 34.28 73.51 32.00 C 75.96 27.44 80.82 25.74 85.88 26.31 C 85.26 22.39 87.81 19.39 90.75 17.19 C 86.59 18.08 82.32 17.84 78.18 16.94 C 80.80 18.74 83.25 20.81 85.16 23.38 C 81.50 24.72 77.82 25.99 74.13 27.26 C 73.25 29.79 73.77 33.51 70.92 34.70 C 67.43 36.13 63.76 37.08 60.17 38.24 C 62.62 41.87 65.54 45.24 69.62 47.09 C 67.46 44.58 65.26 42.09 63.22 39.48 C 69.33 36.47 76.17 34.57 82.94 36.87 C 81.42 41.37 78.93 45.48 75.46 48.73 C 76.02 48.90 77.15 49.26 77.72 49.44 C 75.86 51.16 73.99 52.87 72.14 54.59 C 74.75 53.45 77.26 51.92 80.10 51.43 C 82.90 51.48 85.26 53.31 87.70 54.48 C 86.25 55.01 84.81 55.51 83.35 56.00 L 32.63 56.00 C 29.92 53.59 27.17 51.17 23.98 49.38 C 29.10 45.04 30.33 36.12 38.24 35.48 C 36.38 32.94 34.92 30.15 33.27 27.47 C 33.21 30.07 34.21 33.95 30.96 35.02 C 26.83 37.11 22.55 34.26 18.77 32.72 C 20.83 28.91 24.74 27.21 28.93 27.15 C 29.01 25.20 28.41 22.68 30.45 21.51 C 33.35 19.87 36.80 20.66 39.90 21.13 C 40.85 22.49 41.83 23.85 42.92 25.11 C 45.89 28.24 49.74 31.39 47.62 36.07 C 45.42 35.11 43.22 34.15 41.02 33.19 C 40.76 34.10 40.49 35.02 40.23 35.93 C 44.92 37.88 49.83 39.14 54.74 40.38 C 52.78 38.31 49.59 36.50 49.93 33.21 C 52.94 31.07 56.44 29.72 59.93 28.57 C 60.23 27.99 60.54 27.42 60.85 26.84 C 55.81 27.23 50.31 29.18 45.60 26.51 C 46.01 25.98 46.83 24.92 47.24 24.39 C 47.76 24.29 48.79 24.08 49.30 23.98 C 49.00 24.57 48.40 25.73 48.10 26.32 C 50.40 26.25 52.70 26.20 55.00 26.19 C 54.15 25.18 53.30 24.17 52.45 23.16 C 53.34 22.84 54.23 22.53 55.13 22.21 C 55.63 22.00 56.63 21.56 57.13 21.35 C 57.88 22.16 58.79 22.77 59.84 23.16 C 58.77 23.72 57.70 24.28 56.64 24.85 C 59.15 25.04 61.66 25.22 64.17 25.34 C 63.62 24.73 62.52 23.51 61.97 22.90 C 63.60 23.21 65.18 22.59 66.63 21.91 C 68.08 22.49 69.60 22.94 71.17 23.03 C 71.42 20.95 71.34 18.85 71.42 16.76 C 71.45 16.21 71.51 15.09 71.53 14.54 C 71.73 11.32 72.02 8.10 72.26 4.88 C 72.40 3.58 72.03 2.43 71.15 1.43 C 70.91 1.07 70.44 0.36 70.21 0.00 M 138.70 9.42 C 141.10 10.61 143.55 11.69 146.02 12.72 C 145.37 14.05 144.71 15.37 144.05 16.70 C 146.39 16.58 148.74 16.50 151.09 16.51 C 148.25 14.58 146.22 11.79 144.59 8.82 C 142.63 9.06 140.66 9.23 138.70 9.42 M 122.14 22.11 C 120.82 22.80 120.81 23.47 122.11 24.14 C 123.43 23.46 123.44 22.78 122.14 22.11 M 157.15 22.40 C 156.30 26.38 161.14 21.58 157.15 22.40 M 66.14 23.11 C 64.82 23.80 64.81 24.47 66.11 25.14 C 67.43 24.46 67.44 23.78 66.14 23.11 M 178.14 23.11 C 176.82 23.80 176.81 24.47 178.11 25.14 C 179.43 24.46 179.44 23.78 178.14 23.11 M 114.61 36.93 C 114.47 37.35 114.34 37.78 114.21 38.20 C 115.47 38.97 116.72 39.77 117.96 40.59 C 121.71 38.66 125.59 36.99 129.39 35.14 C 124.48 35.91 119.62 37.65 114.61 36.93 M 103.41 38.83 C 101.85 41.36 101.07 46.02 96.61 43.96 C 93.24 43.42 89.85 43.20 86.56 44.43 C 89.91 45.17 93.31 45.65 96.60 46.62 C 101.46 48.60 106.54 45.43 111.53 45.91 C 112.59 47.20 113.65 48.48 114.70 49.77 C 115.37 48.26 116.06 46.76 116.76 45.26 C 112.24 45.30 107.73 44.78 103.25 44.26 C 103.36 42.45 103.41 40.64 103.41 38.83 M 155.00 44.16 C 152.71 44.92 150.62 43.40 148.61 42.54 C 148.41 43.26 148.22 43.99 148.03 44.71 C 152.35 46.51 157.06 47.81 161.37 45.17 C 161.05 43.18 160.80 41.18 160.63 39.17 C 158.92 40.97 157.51 43.41 155.00 44.16 M 34.87 42.82 C 33.56 43.80 32.23 44.75 30.89 45.67 C 35.52 44.95 40.49 45.61 43.81 49.23 C 44.61 48.29 45.42 47.36 46.23 46.43 C 49.63 46.68 53.03 46.72 56.44 46.77 C 52.92 46.05 49.45 45.10 45.96 44.24 C 46.30 42.86 46.65 41.49 47.02 40.13 C 44.13 43.77 38.96 45.59 34.87 42.82 M 163.97 44.23 C 163.65 46.00 167.35 46.00 167.03 44.23 C 166.42 43.18 164.57 43.18 163.97 44.23 M 113.51 51.40 C 116.81 51.92 120.11 52.49 123.44 52.85 C 120.47 50.79 116.92 49.62 113.51 51.40 Z" />
<path fill="#3c6bbe" opacity="1.00" d=" M 213.81 25.60 L 214.49 25.28 L 215.18 24.95 C 217.89 25.08 220.60 25.10 223.30 25.17 L 224.00 25.64 L 224.00 27.74 C 220.56 27.22 217.03 26.99 213.81 25.60 Z" />
<path fill="#3c6bbe" opacity="1.00" d=" M 9.53 40.21 C 13.27 34.24 22.83 35.62 27.20 40.27 C 26.32 43.04 23.54 44.36 21.32 45.91 C 21.78 50.16 19.24 53.62 15.95 56.00 L 0.00 56.00 L 0.00 38.21 C 2.81 39.09 6.36 39.12 8.17 41.82 C 10.23 44.39 12.78 46.49 15.64 48.11 C 13.65 45.56 10.11 43.40 9.53 40.21 M 2.86 47.82 C 3.02 49.95 3.05 52.09 2.92 54.22 C 5.65 54.47 8.39 54.74 11.12 54.98 C 9.00 53.54 6.85 52.14 4.73 50.68 C 5.80 49.35 6.85 48.01 7.84 46.62 C 6.17 47.00 4.51 47.40 2.86 47.82 Z" />
<path fill="#3c6bbe" opacity="1.00" d=" M 16.74 56.00 C 19.74 54.44 22.64 52.11 26.31 52.71 C 28.23 53.53 29.86 54.87 31.61 56.00 L 16.74 56.00 Z" />
</g>
<g id="#407accff">
<path fill="#407acc" opacity="1.00" d=" M 25.56 0.00 L 30.48 0.00 C 32.24 0.27 35.77 0.80 37.54 1.07 C 33.62 2.59 29.84 4.43 25.94 5.99 C 22.69 7.45 19.28 5.46 16.18 4.53 C 16.15 4.06 16.09 3.13 16.06 2.66 C 19.97 4.60 24.46 4.51 28.62 3.56 C 27.62 2.36 26.62 1.16 25.56 0.00 Z" />
</g>
<g id="#3c6cbfff">
<path fill="#3c6cbf" opacity="1.00" d=" M 30.48 0.00 L 39.33 0.00 L 40.13 0.75 C 40.04 1.42 39.86 2.76 39.77 3.43 C 39.34 7.37 38.94 11.30 38.55 15.24 C 39.42 14.93 40.30 14.63 41.18 14.35 C 41.12 14.69 41.00 15.37 40.93 15.71 C 40.77 16.59 40.45 18.37 40.29 19.25 C 38.41 18.75 36.54 18.21 34.68 17.67 C 30.54 18.65 26.30 19.22 22.06 19.57 C 23.64 20.42 25.21 21.27 26.78 22.13 C 26.90 22.95 27.13 24.60 27.25 25.42 C 23.74 26.45 20.16 27.26 16.52 27.66 C 17.51 29.54 18.59 31.38 19.69 33.20 C 13.40 35.70 6.75 37.27 0.00 37.85 L 0.00 31.15 C 3.04 29.93 6.11 28.81 9.16 27.62 C 8.27 27.41 7.38 27.20 6.48 26.99 C 6.61 25.85 6.73 24.70 6.83 23.56 C 8.32 23.18 9.80 22.73 11.27 22.28 L 11.62 22.62 L 12.10 23.07 C 13.19 23.93 14.35 24.71 15.49 25.49 C 15.40 22.50 15.24 19.51 15.15 16.52 C 15.13 15.96 15.10 14.82 15.08 14.25 C 15.13 14.23 15.22 14.18 15.26 14.15 C 16.06 14.51 16.85 14.89 17.64 15.28 C 17.16 11.70 16.68 8.11 16.18 4.53 C 19.28 5.46 22.69 7.45 25.94 5.99 C 29.84 4.43 33.62 2.59 37.54 1.07 C 35.77 0.80 32.24 0.27 30.48 0.00 M 10.14 24.11 C 8.82 24.80 8.81 25.47 10.11 26.14 C 11.43 25.46 11.44 24.78 10.14 24.11 Z" />
</g>
<g id="#268dd8ff">
<path fill="#268dd8" opacity="1.00" d=" M 39.33 0.00 L 42.50 0.00 C 42.68 0.50 43.04 1.49 43.22 1.99 C 43.04 3.26 42.88 4.54 42.74 5.82 C 41.85 10.11 42.96 14.31 43.86 18.46 C 43.58 16.98 43.38 13.82 41.18 14.35 C 40.30 14.63 39.42 14.93 38.55 15.24 C 38.94 11.30 39.34 7.37 39.77 3.43 C 42.13 6.11 42.52 1.41 40.13 0.75 L 39.33 0.00 Z" />
<path fill="#268dd8" opacity="1.00" d=" M 124.93 0.00 L 126.20 0.00 C 129.65 7.72 128.08 16.22 124.45 23.59 C 124.49 22.81 124.56 21.24 124.59 20.45 C 124.76 18.18 125.19 15.93 125.58 13.69 C 125.27 14.12 124.64 14.98 124.33 15.41 C 125.07 13.92 125.76 12.39 126.32 10.82 C 126.10 9.56 125.66 7.04 125.45 5.77 C 125.24 4.60 125.02 3.42 124.81 2.25 C 124.84 1.69 124.90 0.56 124.93 0.00 Z" />
<path fill="#268dd8" opacity="1.00" d=" M 153.81 0.00 L 155.02 0.00 C 155.12 0.50 155.33 1.49 155.43 1.99 C 155.15 3.25 154.88 4.51 154.60 5.77 C 154.36 7.03 153.88 9.55 153.64 10.80 C 154.22 12.38 154.92 13.91 155.68 15.41 C 155.36 14.98 154.73 14.12 154.41 13.69 C 154.81 15.93 155.24 18.17 155.41 20.45 C 155.45 21.24 155.54 22.83 155.58 23.63 C 151.46 16.42 150.44 7.68 153.81 0.00 Z" />
</g>
<g id="#82ac5aff">
<path fill="#82ac5a" opacity="1.00" d=" M 44.84 0.00 L 66.33 0.00 C 66.24 0.45 66.05 1.35 65.95 1.79 C 62.34 2.73 59.21 4.86 57.65 8.35 C 57.42 8.35 56.96 8.36 56.73 8.36 C 56.81 6.93 56.89 5.51 56.98 4.08 C 56.49 4.08 55.51 4.08 55.02 4.08 C 55.10 5.51 55.19 6.94 55.28 8.36 C 55.05 8.36 54.61 8.35 54.39 8.35 C 52.43 5.39 49.70 3.10 46.71 1.26 C 46.24 0.94 45.31 0.31 44.84 0.00 M 51.56 1.49 C 51.12 3.20 54.15 3.84 54.73 2.29 C 55.01 0.68 52.25 0.22 51.56 1.49 Z" />
<path fill="#82ac5a" opacity="1.00" d=" M 100.86 0.00 L 122.33 0.00 C 122.24 0.45 122.05 1.34 121.95 1.79 C 118.34 2.73 115.21 4.86 113.65 8.35 C 113.42 8.35 112.95 8.36 112.72 8.36 C 112.81 6.93 112.89 5.51 112.98 4.08 C 112.49 4.08 111.51 4.08 111.02 4.08 C 111.10 5.51 111.19 6.94 111.27 8.37 C 111.05 8.36 110.61 8.35 110.39 8.35 C 108.43 5.39 105.70 3.11 102.71 1.25 C 102.25 0.94 101.33 0.31 100.86 0.00 M 107.56 1.49 C 107.12 3.20 110.15 3.84 110.73 2.29 C 111.01 0.68 108.25 0.22 107.56 1.49 Z" />
<path fill="#82ac5a" opacity="1.00" d=" M 156.87 0.00 L 178.33 0.00 C 178.24 0.45 178.05 1.35 177.95 1.79 C 174.34 2.73 171.21 4.86 169.65 8.35 C 169.42 8.35 168.96 8.36 168.73 8.36 C 168.81 6.94 168.89 5.51 168.98 4.08 C 168.49 4.08 167.51 4.08 167.02 4.08 C 167.10 5.51 167.19 6.94 167.28 8.36 C 167.05 8.36 166.61 8.35 166.38 8.35 C 164.43 5.39 161.70 3.10 158.71 1.24 C 158.25 0.93 157.33 0.31 156.87 0.00 M 163.56 1.49 C 163.12 3.20 166.15 3.84 166.73 2.29 C 167.01 0.68 164.25 0.22 163.56 1.49 Z" />
</g>
<g id="#4179cbff">
<path fill="#4179cb" opacity="1.00" d=" M 85.56 0.00 L 95.95 0.00 C 91.05 0.95 86.13 2.26 81.81 4.83 C 78.89 6.79 75.59 4.13 72.67 3.48 C 77.22 3.50 81.92 3.11 85.56 0.00 Z" />
<path fill="#4179cb" opacity="1.00" d=" M 197.56 0.00 L 207.95 0.00 C 203.04 0.95 198.13 2.26 193.81 4.83 C 190.89 6.79 187.58 4.13 184.67 3.48 C 189.22 3.50 193.92 3.11 197.56 0.00 Z" />
<path fill="#4179cb" opacity="1.00" d=" M 130.97 47.38 C 131.82 46.74 132.67 46.10 133.55 45.50 C 138.87 49.30 145.14 51.61 150.07 56.00 L 139.86 56.00 C 139.24 55.60 138.00 54.80 137.38 54.39 C 139.44 54.04 143.57 53.33 145.64 52.98 C 140.10 49.93 133.59 50.68 128.12 53.46 C 130.03 51.78 131.95 50.12 133.86 48.44 C 133.14 48.17 131.70 47.65 130.97 47.38 Z" />
</g>
<g id="#268ed9ff">
<path fill="#268ed9" opacity="1.00" d=" M 97.83 0.00 L 98.91 0.00 C 99.01 0.49 99.21 1.46 99.31 1.94 C 99.07 3.22 98.86 4.51 98.68 5.80 C 97.49 9.78 98.77 13.60 100.20 17.24 C 99.34 15.86 98.09 14.58 96.38 14.42 C 96.08 11.23 95.90 8.03 95.71 4.83 C 97.73 5.09 97.74 2.58 96.89 1.39 C 97.12 1.05 97.59 0.35 97.83 0.00 Z" />
<path fill="#268ed9" opacity="1.00" d=" M 209.83 0.00 L 210.91 0.00 C 211.01 0.49 211.21 1.46 211.31 1.94 C 211.06 3.22 210.86 4.51 210.68 5.80 C 209.48 9.78 210.77 13.60 212.20 17.24 C 211.33 15.86 210.09 14.58 208.38 14.42 C 208.08 11.23 207.90 8.03 207.71 4.83 C 209.73 5.09 209.74 2.58 208.89 1.39 C 209.12 1.05 209.59 0.35 209.83 0.00 Z" />
<path fill="#268ed9" opacity="1.00" d=" M 54.17 20.40 C 55.33 19.76 56.67 19.58 57.97 19.45 C 57.76 19.93 57.34 20.87 57.13 21.35 C 56.63 21.56 55.63 22.00 55.13 22.21 C 54.89 21.76 54.41 20.85 54.17 20.40 Z" />
<path fill="#268ed9" opacity="1.00" d=" M 110.10 19.32 C 110.56 19.19 111.48 18.92 111.94 18.79 C 112.11 19.08 112.45 19.66 112.63 19.95 C 112.23 20.32 111.45 21.04 111.06 21.40 C 110.82 20.88 110.34 19.84 110.10 19.32 Z" />
<path fill="#268ed9" opacity="1.00" d=" M 167.37 19.95 C 167.54 19.66 167.88 19.07 168.05 18.78 C 168.51 18.92 169.42 19.18 169.88 19.31 C 169.64 19.83 169.17 20.88 168.93 21.40 C 168.54 21.04 167.76 20.31 167.37 19.95 Z" />
</g>
<g id="#4476cbff">
<path fill="#4476cb" opacity="1.00" d=" M 138.34 0.00 L 141.37 0.00 C 139.81 1.69 138.45 3.59 136.61 4.99 C 133.81 4.63 131.26 3.28 128.65 2.28 C 131.10 2.16 133.55 2.18 135.99 2.20 C 136.58 1.65 137.75 0.55 138.34 0.00 Z" />
</g>
<g id="#84ad5aff">
<path fill="#84ad5a" opacity="1.00" d=" M 212.86 0.00 L 224.00 0.00 L 224.00 4.30 C 222.71 5.00 221.79 6.94 223.29 7.98 C 223.06 8.00 222.61 8.05 222.39 8.07 C 220.29 5.30 217.59 3.10 214.68 1.24 C 214.23 0.93 213.32 0.31 212.86 0.00 M 219.56 1.49 C 219.12 3.20 222.15 3.84 222.73 2.29 C 223.01 0.68 220.25 0.22 219.56 1.49 Z" />
</g>
<g id="#86a0b1ff">
<path fill="#86a0b1" opacity="1.00" d=" M 16.18 4.53 C 13.93 4.55 13.43 1.89 15.30 0.84 C 15.49 1.30 15.87 2.20 16.06 2.66 C 16.09 3.13 16.15 4.06 16.18 4.53 Z" />
<path fill="#86a0b1" opacity="1.00" d=" M 40.13 0.75 C 42.52 1.41 42.13 6.11 39.77 3.43 C 39.86 2.76 40.04 1.42 40.13 0.75 Z" />
</g>
<g id="#6f9a52ff">
<path fill="#6f9a52" opacity="1.00" d=" M 51.56 1.49 C 52.25 0.22 55.01 0.68 54.73 2.29 C 54.15 3.84 51.12 3.20 51.56 1.49 Z" />
<path fill="#6f9a52" opacity="1.00" d=" M 107.56 1.49 C 108.25 0.22 111.01 0.68 110.73 2.29 C 110.15 3.84 107.12 3.20 107.56 1.49 Z" />
<path fill="#6f9a52" opacity="1.00" d=" M 163.56 1.49 C 164.25 0.22 167.01 0.68 166.73 2.29 C 166.15 3.84 163.12 3.20 163.56 1.49 Z" />
<path fill="#6f9a52" opacity="1.00" d=" M 219.56 1.49 C 220.25 0.22 223.01 0.68 222.73 2.29 C 222.15 3.84 219.12 3.20 219.56 1.49 Z" />
</g>
<g id="#709e5cff">
<path fill="#709e5c" opacity="1.00" d=" M 1.63 8.10 C 3.35 4.81 6.42 2.75 9.95 1.80 C 9.59 3.56 9.38 5.36 8.79 7.07 C 6.73 8.52 4.01 8.20 1.63 8.10 Z" />
<path fill="#709e5c" opacity="1.00" d=" M 46.71 1.26 C 49.70 3.10 52.43 5.39 54.39 8.35 C 51.78 8.21 48.90 8.33 46.68 6.72 C 46.49 4.90 46.64 3.07 46.71 1.26 Z" />
<path fill="#709e5c" opacity="1.00" d=" M 57.65 8.35 C 59.21 4.86 62.34 2.73 65.95 1.79 C 65.60 3.56 65.37 5.36 64.80 7.07 C 62.64 8.31 60.05 8.22 57.65 8.35 Z" />
<path fill="#709e5c" opacity="1.00" d=" M 102.71 1.25 C 105.70 3.11 108.43 5.39 110.39 8.35 C 107.78 8.22 104.91 8.31 102.68 6.73 C 102.49 4.91 102.64 3.07 102.71 1.25 Z" />
<path fill="#709e5c" opacity="1.00" d=" M 113.65 8.35 C 115.21 4.86 118.34 2.73 121.95 1.79 C 121.60 3.55 121.37 5.36 120.80 7.07 C 118.65 8.31 116.05 8.22 113.65 8.35 Z" />
<path fill="#709e5c" opacity="1.00" d=" M 158.71 1.24 C 161.70 3.10 164.43 5.39 166.38 8.35 C 163.77 8.22 160.91 8.31 158.68 6.73 C 158.49 4.91 158.64 3.07 158.71 1.24 Z" />
<path fill="#709e5c" opacity="1.00" d=" M 169.65 8.35 C 171.21 4.86 174.34 2.73 177.95 1.79 C 177.60 3.56 177.37 5.36 176.80 7.07 C 174.64 8.31 172.05 8.22 169.65 8.35 Z" />
<path fill="#709e5c" opacity="1.00" d=" M 214.68 1.24 C 217.59 3.10 220.29 5.30 222.39 8.07 C 219.88 8.23 217.21 8.32 214.90 7.19 C 214.52 5.23 214.67 3.22 214.68 1.24 Z" />
</g>
<g id="#7392b4ff">
<path fill="#7392b4" opacity="1.00" d=" M 72.26 4.88 C 70.24 5.10 70.27 2.60 71.15 1.43 C 72.03 2.43 72.40 3.58 72.26 4.88 Z" />
<path fill="#7392b4" opacity="1.00" d=" M 95.71 4.83 C 95.60 3.53 95.99 2.39 96.89 1.39 C 97.74 2.58 97.73 5.09 95.71 4.83 Z" />
<path fill="#7392b4" opacity="1.00" d=" M 184.27 4.87 C 182.25 5.10 182.28 2.59 183.16 1.43 C 184.05 2.43 184.42 3.58 184.27 4.87 Z" />
<path fill="#7392b4" opacity="1.00" d=" M 207.71 4.83 C 207.59 3.53 207.99 2.39 208.89 1.39 C 209.74 2.58 209.73 5.09 207.71 4.83 Z" />
</g>
<g id="#645a4bff">
<path fill="#645a4b" opacity="1.00" d=" M 11.62 12.80 C 11.55 9.23 12.44 5.76 13.02 2.26 C 13.14 3.44 13.24 4.62 13.33 5.80 C 12.95 8.17 12.29 10.49 11.62 12.80 Z" />
<path fill="#645a4b" opacity="1.00" d=" M 43.22 1.99 C 44.75 5.42 44.49 9.16 44.05 12.80 C 43.55 10.48 43.00 8.17 42.74 5.82 C 42.88 4.54 43.04 3.26 43.22 1.99 Z" />
<path fill="#645a4b" opacity="1.00" d=" M 67.61 12.79 C 67.56 9.22 68.45 5.75 68.99 2.25 C 69.13 3.43 69.25 4.61 69.36 5.79 C 68.96 8.17 68.30 10.49 67.61 12.79 Z" />
<path fill="#645a4b" opacity="1.00" d=" M 99.31 1.94 C 100.37 5.48 100.50 9.13 100.08 12.79 C 99.55 10.47 99.00 8.16 98.68 5.80 C 98.86 4.51 99.07 3.22 99.31 1.94 Z" />
<path fill="#645a4b" opacity="1.00" d=" M 123.60 12.77 C 123.63 9.23 124.33 5.75 124.81 2.25 C 125.02 3.42 125.24 4.60 125.45 5.77 C 124.99 8.15 124.30 10.46 123.60 12.77 Z" />
<path fill="#645a4b" opacity="1.00" d=" M 155.43 1.99 C 156.33 5.53 156.49 9.15 156.09 12.78 C 155.53 10.46 154.99 8.13 154.60 5.77 C 154.88 4.51 155.15 3.25 155.43 1.99 Z" />
<path fill="#645a4b" opacity="1.00" d=" M 179.61 12.79 C 179.56 9.22 180.44 5.75 180.99 2.25 C 181.13 3.43 181.25 4.61 181.36 5.79 C 180.96 8.17 180.30 10.49 179.61 12.79 Z" />
<path fill="#645a4b" opacity="1.00" d=" M 211.31 1.94 C 212.37 5.48 212.50 9.13 212.08 12.79 C 211.54 10.47 211.00 8.16 210.68 5.80 C 210.86 4.51 211.06 3.22 211.31 1.94 Z" />
</g>
<g id="#5c8260ff">
<path fill="#5c8260" opacity="1.00" d=" M 0.00 4.31 C 1.28 5.02 2.21 6.96 0.71 8.00 L 0.00 7.90 L 0.00 4.31 Z" />
<path fill="#5c8260" opacity="1.00" d=" M 55.02 4.08 C 55.51 4.08 56.49 4.08 56.98 4.08 C 56.89 5.51 56.81 6.93 56.73 8.36 C 56.37 8.36 55.64 8.36 55.28 8.36 C 55.19 6.94 55.10 5.51 55.02 4.08 Z" />
<path fill="#5c8260" opacity="1.00" d=" M 111.02 4.08 C 111.51 4.08 112.49 4.08 112.98 4.08 C 112.89 5.51 112.81 6.93 112.72 8.36 C 112.36 8.36 111.64 8.36 111.27 8.37 C 111.19 6.94 111.10 5.51 111.02 4.08 Z" />
<path fill="#5c8260" opacity="1.00" d=" M 167.02 4.08 C 167.51 4.08 168.49 4.08 168.98 4.08 C 168.89 5.51 168.81 6.94 168.73 8.36 C 168.37 8.36 167.64 8.36 167.28 8.36 C 167.19 6.94 167.10 5.51 167.02 4.08 Z" />
<path fill="#5c8260" opacity="1.00" d=" M 223.29 7.98 C 221.79 6.94 222.71 5.00 224.00 4.30 L 224.00 7.89 L 223.29 7.98 Z" />
</g>
<g id="#4377cafe">
<path fill="#4377ca" opacity="1.00" d=" M 138.70 9.42 C 140.66 9.23 142.63 9.06 144.59 8.82 C 146.22 11.79 148.25 14.58 151.09 16.51 C 148.74 16.50 146.39 16.58 144.05 16.70 C 144.71 15.37 145.37 14.05 146.02 12.72 C 143.55 11.69 141.10 10.61 138.70 9.42 Z" />
</g>
<g id="#6c604cff">
<path fill="#6c604c" opacity="1.00" d=" M 6.24 9.46 C 6.94 9.34 8.34 9.10 9.04 8.98 C 9.68 12.66 10.26 16.35 10.55 20.07 L 9.71 20.69 C 9.30 20.99 8.49 21.59 8.08 21.89 C 7.53 17.74 6.88 13.60 6.24 9.46 Z" />
<path fill="#6c604c" opacity="1.00" d=" M 47.09 8.93 C 47.71 9.07 48.96 9.34 49.58 9.48 C 48.89 13.58 48.32 17.70 47.89 21.84 C 47.41 21.47 46.43 20.73 45.94 20.36 L 45.44 19.98 C 45.99 16.30 46.54 12.61 47.09 8.93 Z" />
<path fill="#6c604c" opacity="1.00" d=" M 62.06 9.51 C 62.81 9.37 64.30 9.11 65.04 8.98 C 65.78 12.82 66.51 16.69 66.63 20.62 L 66.21 21.74 C 65.79 21.51 64.95 21.05 64.53 20.82 C 63.58 17.08 62.84 13.29 62.06 9.51 Z" />
<path fill="#6c604c" opacity="1.00" d=" M 102.97 8.91 C 103.68 9.06 105.10 9.37 105.82 9.52 C 105.01 13.23 104.17 16.93 103.32 20.62 C 102.88 20.77 102.02 21.08 101.58 21.23 L 101.32 20.40 C 101.73 16.55 102.42 12.74 102.97 8.91 Z" />
<path fill="#6c604c" opacity="1.00" d=" M 174.06 9.51 C 174.81 9.37 176.30 9.11 177.04 8.97 C 177.77 12.82 178.51 16.68 178.63 20.60 L 178.23 21.70 C 177.80 21.48 176.95 21.04 176.52 20.82 C 175.58 17.08 174.84 13.29 174.06 9.51 Z" />
<path fill="#6c604c" opacity="1.00" d=" M 214.96 8.91 C 215.67 9.06 217.09 9.37 217.80 9.52 C 217.01 13.25 216.21 16.98 215.39 20.70 C 214.94 20.83 214.05 21.11 213.61 21.24 L 213.34 20.41 C 213.74 16.56 214.42 12.74 214.96 8.91 Z" />
</g>
<g id="#6c5f4bff">
<path fill="#6c5f4b" opacity="1.00" d=" M 118.19 9.47 C 118.79 9.39 119.98 9.22 120.58 9.13 C 121.47 11.68 122.38 14.22 123.34 16.75 C 122.32 17.86 121.20 18.87 120.02 19.80 C 119.42 16.36 118.80 12.92 118.19 9.47 Z" />
<path fill="#6c5f4b" opacity="1.00" d=" M 159.43 9.13 C 160.01 9.21 161.16 9.37 161.74 9.45 C 161.13 12.90 160.51 16.35 159.96 19.81 C 158.78 18.88 157.67 17.86 156.66 16.75 C 157.62 14.22 158.54 11.69 159.43 9.13 Z" />
</g>
<g id="#565249ff">
<path fill="#565249" opacity="1.00" d=" M 3.95 11.50 C 5.47 13.90 6.69 16.50 7.09 19.36 C 5.84 16.83 4.75 14.21 3.95 11.50 Z" />
<path fill="#565249" opacity="1.00" d=" M 48.91 19.36 C 49.30 16.50 50.53 13.90 52.05 11.50 C 51.25 14.21 50.16 16.83 48.91 19.36 Z" />
<path fill="#565249" opacity="1.00" d=" M 59.95 11.50 C 61.47 13.90 62.68 16.50 63.09 19.36 C 61.84 16.83 60.75 14.21 59.95 11.50 Z" />
<path fill="#565249" opacity="1.00" d=" M 104.91 19.36 C 105.30 16.50 106.54 13.90 108.05 11.50 C 107.25 14.21 106.16 16.83 104.91 19.36 Z" />
<path fill="#565249" opacity="1.00" d=" M 115.95 11.50 C 117.48 13.90 118.68 16.50 119.09 19.36 C 117.84 16.83 116.75 14.21 115.95 11.50 Z" />
<path fill="#565249" opacity="1.00" d=" M 160.91 19.36 C 161.29 16.50 162.54 13.90 164.05 11.50 C 163.25 14.21 162.16 16.83 160.91 19.36 Z" />
<path fill="#565249" opacity="1.00" d=" M 171.95 11.50 C 173.48 13.90 174.67 16.50 175.09 19.36 C 173.84 16.83 172.75 14.21 171.95 11.50 Z" />
<path fill="#565249" opacity="1.00" d=" M 216.91 19.36 C 217.28 16.50 218.54 13.90 220.05 11.50 C 219.25 14.21 218.16 16.83 216.91 19.36 Z" />
<path fill="#565249" opacity="1.00" d=" M 2.40 18.89 C 3.83 16.22 6.02 19.44 4.39 21.07 C 4.04 20.98 3.35 20.82 3.01 20.74 C 2.85 20.28 2.55 19.35 2.40 18.89 Z" />
<path fill="#565249" opacity="1.00" d=" M 51.12 20.88 C 50.38 18.94 52.56 15.88 53.53 19.04 C 53.33 19.47 52.93 20.33 52.73 20.76 C 52.33 20.79 51.53 20.85 51.12 20.88 Z" />
<path fill="#565249" opacity="1.00" d=" M 58.71 19.37 C 58.41 16.64 61.16 17.31 60.96 19.60 C 60.58 19.66 59.81 19.80 59.42 19.86 L 58.71 19.37 Z" />
<path fill="#565249" opacity="1.00" d=" M 107.08 19.66 C 107.02 17.47 110.17 16.74 109.30 19.50 L 108.54 19.98 C 108.17 19.90 107.44 19.74 107.08 19.66 Z" />
<path fill="#565249" opacity="1.00" d=" M 170.69 19.48 C 169.83 16.74 173.00 17.43 172.90 19.64 C 172.53 19.72 171.80 19.88 171.44 19.96 L 170.69 19.48 Z" />
<path fill="#565249" opacity="1.00" d=" M 219.00 19.74 C 218.69 17.44 221.98 16.54 221.05 19.43 L 220.40 19.95 C 220.05 19.90 219.35 19.79 219.00 19.74 Z" />
</g>
<g id="#709fc2fe">
<path fill="#709fc2" opacity="1.00" d=" M 12.08 18.61 C 12.33 16.77 13.28 14.99 15.08 14.25 C 15.10 14.82 15.13 15.96 15.15 16.52 C 14.33 17.62 13.09 18.26 11.97 19.02 L 12.08 18.61 Z" />
<path fill="#709fc2" opacity="1.00" d=" M 41.18 14.35 C 43.38 13.82 43.58 16.98 43.86 18.46 L 43.94 18.86 C 42.75 18.02 41.62 17.02 40.93 15.71 C 41.00 15.37 41.12 14.69 41.18 14.35 Z" />
</g>
<g id="#7ca2beff">
<path fill="#7ca2be" opacity="1.00" d=" M 67.97 17.19 C 68.94 16.04 70.14 15.12 71.53 14.54 C 71.51 15.09 71.45 16.21 71.42 16.76 C 70.33 17.45 69.13 17.72 67.83 17.57 L 67.97 17.19 Z" />
<path fill="#7ca2be" opacity="1.00" d=" M 96.38 14.42 C 98.09 14.58 99.34 15.86 100.20 17.24 L 100.35 17.68 C 98.90 17.61 97.49 16.97 96.60 15.80 C 96.54 15.45 96.44 14.77 96.38 14.42 Z" />
<path fill="#7ca2be" opacity="1.00" d=" M 179.96 17.19 C 180.91 16.04 182.10 15.10 183.49 14.51 C 183.46 15.07 183.41 16.19 183.38 16.75 C 182.30 17.45 181.11 17.73 179.82 17.58 L 179.96 17.19 Z" />
<path fill="#7ca2be" opacity="1.00" d=" M 208.38 14.42 C 210.09 14.58 211.33 15.86 212.20 17.24 L 212.35 17.67 C 210.90 17.61 209.48 16.97 208.60 15.80 C 208.54 15.45 208.44 14.77 208.38 14.42 Z" />
</g>
<g id="#7fa1b9ff">
<path fill="#7fa1b9" opacity="1.00" d=" M 124.33 15.41 C 124.64 14.98 125.27 14.12 125.58 13.69 C 125.19 15.93 124.76 18.18 124.59 20.45 C 122.58 20.82 120.57 21.18 118.55 21.55 L 117.37 21.77 L 117.81 21.44 C 118.36 21.03 119.47 20.21 120.02 19.80 C 121.20 18.87 122.32 17.86 123.34 16.75 C 123.58 16.42 124.08 15.75 124.33 15.41 Z" />
<path fill="#7fa1b9" opacity="1.00" d=" M 154.41 13.69 C 154.73 14.12 155.36 14.98 155.68 15.41 C 155.92 15.75 156.41 16.42 156.66 16.75 C 157.67 17.86 158.78 18.88 159.96 19.81 C 160.52 20.23 161.64 21.06 162.20 21.48 L 162.64 21.82 L 161.53 21.60 C 159.49 21.21 157.45 20.83 155.41 20.45 C 155.24 18.17 154.81 15.93 154.41 13.69 Z" />
</g>
<g id="#4379caff">
<path fill="#4379ca" opacity="1.00" d=" M 34.68 17.67 C 36.54 18.21 38.41 18.75 40.29 19.25 C 40.19 19.72 39.99 20.66 39.90 21.13 C 36.80 20.66 33.35 19.87 30.45 21.51 C 28.41 22.68 29.01 25.20 28.93 27.15 C 24.74 27.21 20.83 28.91 18.77 32.72 C 22.55 34.26 26.83 37.11 30.96 35.02 C 34.21 33.95 33.21 30.07 33.27 27.47 C 34.92 30.15 36.38 32.94 38.24 35.48 C 30.33 36.12 29.10 45.04 23.98 49.38 C 27.17 51.17 29.92 53.59 32.63 56.00 L 31.61 56.00 C 29.86 54.87 28.23 53.53 26.31 52.71 C 22.64 52.11 19.74 54.44 16.74 56.00 L 15.95 56.00 C 19.24 53.62 21.78 50.16 21.32 45.91 C 23.54 44.36 26.32 43.04 27.20 40.27 C 22.83 35.62 13.27 34.24 9.53 40.21 C 10.11 43.40 13.65 45.56 15.64 48.11 C 12.78 46.49 10.23 44.39 8.17 41.82 C 6.36 39.12 2.81 39.09 0.00 38.21 L 0.00 37.85 C 6.75 37.27 13.40 35.70 19.69 33.20 C 18.59 31.38 17.51 29.54 16.52 27.66 C 20.16 27.26 23.74 26.45 27.25 25.42 C 27.13 24.60 26.90 22.95 26.78 22.13 C 25.21 21.27 23.64 20.42 22.06 19.57 C 26.30 19.22 30.54 18.65 34.68 17.67 Z" />
<path fill="#4379ca" opacity="1.00" d=" M 114.61 36.93 C 119.62 37.65 124.48 35.91 129.39 35.14 C 125.59 36.99 121.71 38.66 117.96 40.59 C 116.72 39.77 115.47 38.97 114.21 38.20 C 114.34 37.78 114.47 37.35 114.61 36.93 Z" />
</g>
<g id="#298ad7ff">
<path fill="#298ad7" opacity="1.00" d=" M 40.93 15.71 C 41.62 17.02 42.75 18.02 43.94 18.86 C 44.32 19.14 45.07 19.70 45.44 19.98 L 45.94 20.36 C 45.68 20.76 45.17 21.56 44.91 21.95 L 44.52 22.56 C 44.53 21.47 42.84 19.75 42.16 21.35 C 42.21 22.52 42.87 23.12 44.15 23.14 C 43.84 23.63 43.23 24.62 42.92 25.11 C 41.83 23.85 40.85 22.49 39.90 21.13 C 39.99 20.66 40.19 19.72 40.29 19.25 C 40.45 18.37 40.77 16.59 40.93 15.71 Z" />
</g>
<g id="#3a94d8ff">
<path fill="#3a94d8" opacity="1.00" d=" M 96.60 15.80 C 97.49 16.97 98.90 17.61 100.35 17.68 C 100.67 18.58 101.00 19.49 101.32 20.40 L 101.58 21.23 L 101.27 21.57 C 100.44 22.47 99.62 23.36 98.79 24.26 C 97.78 21.52 97.25 18.63 96.60 15.80 Z" />
<path fill="#3a94d8" opacity="1.00" d=" M 208.60 15.80 C 209.48 16.97 210.90 17.61 212.35 17.67 C 212.68 18.58 213.01 19.49 213.34 20.41 L 213.61 21.24 L 213.30 21.57 C 212.46 22.47 211.62 23.36 210.79 24.26 C 209.78 21.52 209.24 18.63 208.60 15.80 Z" />
</g>
<g id="#2a8ad7ff">
<path fill="#2a8ad7" opacity="1.00" d=" M 11.97 19.02 C 13.09 18.26 14.33 17.62 15.15 16.52 C 15.24 19.51 15.40 22.50 15.49 25.49 C 14.35 24.71 13.19 23.93 12.10 23.07 C 13.36 22.99 13.95 22.37 13.87 21.23 C 13.03 19.73 11.40 21.44 11.62 22.62 L 11.27 22.28 C 10.88 21.89 10.10 21.09 9.71 20.69 L 10.55 20.07 C 10.91 19.81 11.62 19.28 11.97 19.02 Z" />
</g>
<g id="#3893d8ff">
<path fill="#3893d8" opacity="1.00" d=" M 67.83 17.57 C 69.13 17.72 70.33 17.45 71.42 16.76 C 71.34 18.85 71.42 20.95 71.17 23.03 C 69.60 22.94 68.08 22.49 66.63 21.91 L 66.21 21.74 L 66.63 20.62 C 67.04 19.61 67.44 18.59 67.83 17.57 Z" />
<path fill="#3893d8" opacity="1.00" d=" M 179.82 17.58 C 181.11 17.73 182.30 17.45 183.38 16.75 C 183.34 18.85 183.43 20.96 183.17 23.04 C 181.61 22.94 180.10 22.47 178.66 21.88 L 178.23 21.70 L 178.63 20.60 C 179.03 19.59 179.43 18.59 179.82 17.58 Z" />
</g>
<g id="#4279cafe">
<path fill="#4279ca" opacity="1.00" d=" M 78.18 16.94 C 82.32 17.84 86.59 18.08 90.75 17.19 C 87.81 19.39 85.26 22.39 85.88 26.31 C 80.82 25.74 75.96 27.44 73.51 32.00 C 79.11 34.28 85.51 35.33 91.10 32.54 C 90.61 30.46 90.10 28.39 89.64 26.30 C 91.43 28.70 92.89 31.32 94.42 33.89 C 87.10 36.21 83.63 43.30 79.19 48.84 C 83.85 51.32 88.41 54.00 93.30 56.00 L 83.35 56.00 C 84.81 55.51 86.25 55.01 87.70 54.48 C 85.26 53.31 82.90 51.48 80.10 51.43 C 77.26 51.92 74.75 53.45 72.14 54.59 C 73.99 52.87 75.86 51.16 77.72 49.44 C 77.15 49.26 76.02 48.90 75.46 48.73 C 78.93 45.48 81.42 41.37 82.94 36.87 C 76.17 34.57 69.33 36.47 63.22 39.48 C 65.26 42.09 67.46 44.58 69.62 47.09 C 65.54 45.24 62.62 41.87 60.17 38.24 C 63.76 37.08 67.43 36.13 70.92 34.70 C 73.77 33.51 73.25 29.79 74.13 27.26 C 77.82 25.99 81.50 24.72 85.16 23.38 C 83.25 20.81 80.80 18.74 78.18 16.94 Z" />
</g>
<g id="#4a463eff">
<path fill="#4a463e" opacity="1.00" d=" M 114.40 18.03 C 115.34 16.65 117.30 17.49 117.01 19.11 C 116.36 18.84 115.05 18.30 114.40 18.03 Z" />
<path fill="#4a463e" opacity="1.00" d=" M 162.99 19.13 C 162.69 17.51 164.66 16.66 165.60 18.04 C 164.95 18.31 163.64 18.86 162.99 19.13 Z" />
</g>
<g id="#4279cbfe">
<path fill="#4279cb" opacity="1.00" d=" M 190.18 16.94 C 194.32 17.84 198.59 18.08 202.75 17.19 C 199.81 19.39 197.26 22.39 197.88 26.31 C 192.90 25.78 188.07 27.36 185.59 31.83 C 189.97 33.94 195.21 36.94 199.96 33.96 C 203.22 32.81 202.19 28.97 202.39 26.33 C 203.73 28.86 204.94 31.45 206.31 33.96 C 199.04 36.27 195.61 43.34 191.19 48.84 C 195.85 51.31 200.41 54.00 205.30 56.00 L 195.35 56.00 C 196.80 55.51 198.25 55.01 199.70 54.48 C 197.26 53.31 194.90 51.48 192.10 51.43 C 189.26 51.92 186.75 53.45 184.14 54.59 C 185.99 52.87 187.86 51.16 189.72 49.44 C 189.15 49.26 188.02 48.90 187.46 48.73 C 190.93 45.48 193.42 41.37 194.94 36.87 C 188.17 34.57 181.33 36.47 175.22 39.48 C 177.26 42.09 179.46 44.58 181.62 47.09 C 177.54 45.24 174.62 41.87 172.17 38.24 C 175.76 37.08 179.42 36.13 182.92 34.70 C 185.77 33.51 185.24 29.79 186.13 27.26 C 189.82 25.99 193.50 24.72 197.16 23.38 C 195.25 20.81 192.80 18.74 190.18 16.94 Z" />
</g>
<g id="#9cb3c7fe">
<path fill="#9cb3c7" opacity="1.00" d=" M 111.94 18.79 C 112.46 18.63 113.49 18.32 114.01 18.17 C 114.91 19.34 115.38 20.77 116.13 22.04 L 115.76 22.19 C 114.64 21.54 113.60 20.79 112.63 19.95 C 112.45 19.66 112.11 19.08 111.94 18.79 Z" />
<path fill="#9cb3c7" opacity="1.00" d=" M 165.99 18.18 C 166.50 18.33 167.53 18.63 168.05 18.78 C 167.88 19.07 167.54 19.66 167.37 19.95 C 166.39 20.80 165.35 21.55 164.25 22.21 L 163.87 22.09 C 164.60 20.80 165.07 19.35 165.99 18.18 Z" />
<path fill="#9cb3c7" opacity="1.00" d=" M 57.97 19.45 L 58.71 19.37 L 59.42 19.86 C 59.59 20.92 59.88 21.94 60.30 22.93 L 59.84 23.16 C 58.79 22.77 57.88 22.16 57.13 21.35 C 57.34 20.87 57.76 19.93 57.97 19.45 Z" />
<path fill="#9cb3c7" opacity="1.00" d=" M 109.30 19.50 L 110.10 19.32 C 110.34 19.84 110.82 20.88 111.06 21.40 C 110.17 22.07 109.21 22.63 108.19 23.07 L 107.70 22.87 C 108.07 21.93 108.35 20.97 108.54 19.98 L 109.30 19.50 Z" />
<path fill="#9cb3c7" opacity="1.00" d=" M 169.88 19.31 L 170.69 19.48 L 171.44 19.96 C 171.60 20.96 171.87 21.92 172.25 22.86 L 171.79 23.09 C 170.76 22.64 169.81 22.08 168.93 21.40 C 169.17 20.88 169.64 19.83 169.88 19.31 Z" />
<path fill="#9cb3c7" opacity="1.00" d=" M 221.05 19.43 L 221.80 19.32 C 223.67 20.66 222.08 22.83 220.32 23.19 L 219.87 22.93 C 220.20 21.97 220.37 20.97 220.40 19.95 L 221.05 19.43 Z" />
</g>
<g id="#5688bafe">
<path fill="#5688ba" opacity="1.00" d=" M 114.01 18.17 L 114.40 18.03 C 115.05 18.30 116.36 18.84 117.01 19.11 C 117.21 19.70 117.61 20.86 117.81 21.44 L 117.37 21.77 C 117.06 21.84 116.44 21.97 116.13 22.04 C 115.38 20.77 114.91 19.34 114.01 18.17 Z" />
<path fill="#5688ba" opacity="1.00" d=" M 165.60 18.04 L 165.99 18.18 C 165.07 19.35 164.60 20.80 163.87 22.09 C 163.56 22.02 162.95 21.89 162.64 21.82 L 162.20 21.48 C 162.40 20.89 162.79 19.72 162.99 19.13 C 163.64 18.86 164.95 18.31 165.60 18.04 Z" />
</g>
<g id="#9eb5caff">
<path fill="#9eb5ca" opacity="1.00" d=" M 1.28 20.18 C 1.56 19.86 2.12 19.21 2.40 18.89 C 2.55 19.35 2.85 20.28 3.01 20.74 C 3.33 21.75 3.72 22.75 4.18 23.71 L 3.29 23.45 C 2.53 22.43 1.85 21.33 1.28 20.18 Z" />
</g>
<g id="#9eb5c9ff">
<path fill="#9eb5c9" opacity="1.00" d=" M 53.53 19.04 C 53.69 19.38 54.01 20.06 54.17 20.40 C 54.41 20.85 54.89 21.76 55.13 22.21 C 54.23 22.53 53.34 22.84 52.45 23.16 L 51.80 23.39 C 52.16 22.53 52.47 21.65 52.73 20.76 C 52.93 20.33 53.33 19.47 53.53 19.04 Z" />
</g>
<g id="#337cccff">
<path fill="#337ccc" opacity="1.00" d=" M 221.80 19.32 C 222.35 19.24 223.45 19.07 224.00 18.99 L 224.00 25.64 L 223.30 25.17 C 222.32 24.49 221.32 23.83 220.32 23.19 C 222.08 22.83 223.67 20.66 221.80 19.32 Z" />
</g>
<g id="#3c76c7ff">
<path fill="#3c76c7" opacity="1.00" d=" M 0.00 21.67 C 0.32 21.30 0.96 20.55 1.28 20.18 C 1.85 21.33 2.53 22.43 3.29 23.45 C 2.56 24.23 1.83 25.00 1.09 25.78 C 2.89 26.17 4.69 26.57 6.48 26.99 C 7.38 27.20 8.27 27.41 9.16 27.62 C 6.11 28.81 3.04 29.93 0.00 31.15 L 0.00 21.67 Z" />
</g>
<g id="#adc2d9ff">
<path fill="#adc2d9" opacity="1.00" d=" M 11.62 22.62 C 11.40 21.44 13.03 19.73 13.87 21.23 C 13.95 22.37 13.36 22.99 12.10 23.07 L 11.62 22.62 Z" />
<path fill="#adc2d9" opacity="1.00" d=" M 42.16 21.35 C 42.84 19.75 44.53 21.47 44.52 22.56 L 44.15 23.14 C 42.87 23.12 42.21 22.52 42.16 21.35 Z" />
</g>
<g id="#4f7baeff">
<path fill="#4f7bae" opacity="1.00" d=" M 59.42 19.86 C 59.81 19.80 60.58 19.66 60.96 19.60 C 61.15 20.13 61.52 21.19 61.71 21.72 L 61.48 22.36 C 61.19 22.50 60.59 22.79 60.30 22.93 C 59.88 21.94 59.59 20.92 59.42 19.86 Z" />
<path fill="#4f7bae" opacity="1.00" d=" M 107.08 19.66 C 107.44 19.74 108.17 19.90 108.54 19.98 C 108.35 20.97 108.07 21.93 107.70 22.87 C 107.37 22.79 106.72 22.62 106.39 22.54 L 106.16 21.93 C 106.39 21.36 106.85 20.23 107.08 19.66 Z" />
<path fill="#4f7bae" opacity="1.00" d=" M 171.44 19.96 C 171.80 19.88 172.53 19.72 172.90 19.64 C 173.12 20.21 173.55 21.34 173.76 21.91 L 173.53 22.55 C 173.21 22.63 172.57 22.79 172.25 22.86 C 171.87 21.92 171.60 20.96 171.44 19.96 Z" />
<path fill="#4f7bae" opacity="1.00" d=" M 219.00 19.74 C 219.35 19.79 220.05 19.90 220.40 19.95 C 220.37 20.97 220.20 21.97 219.87 22.93 C 219.54 22.90 218.88 22.83 218.55 22.79 L 218.31 22.18 C 218.48 21.57 218.83 20.35 219.00 19.74 Z" />
<path fill="#4f7bae" opacity="1.00" d=" M 3.01 20.74 C 3.35 20.82 4.04 20.98 4.39 21.07 C 4.80 21.66 5.63 22.84 6.05 23.43 L 5.61 23.79 C 5.25 23.77 4.53 23.73 4.18 23.71 C 3.72 22.75 3.33 21.75 3.01 20.74 Z" />
<path fill="#4f7bae" opacity="1.00" d=" M 51.12 20.88 C 51.53 20.85 52.33 20.79 52.73 20.76 C 52.47 21.65 52.16 22.53 51.80 23.39 C 51.45 23.48 50.75 23.67 50.40 23.77 L 49.97 23.42 C 50.26 22.79 50.84 21.51 51.12 20.88 Z" />
</g>
<g id="#8ea7b9ff">
<path fill="#8ea7b9" opacity="1.00" d=" M 8.08 21.89 C 8.49 21.59 9.30 20.99 9.71 20.69 C 10.10 21.09 10.88 21.89 11.27 22.28 C 9.80 22.73 8.32 23.18 6.83 23.56 L 5.61 23.79 L 6.05 23.43 C 6.56 23.05 7.57 22.27 8.08 21.89 Z" />
<path fill="#8ea7b9" opacity="1.00" d=" M 44.91 21.95 C 45.17 21.56 45.68 20.76 45.94 20.36 C 46.43 20.73 47.41 21.47 47.89 21.84 C 48.41 22.24 49.45 23.03 49.97 23.42 L 50.40 23.77 L 49.30 23.98 C 48.79 24.08 47.76 24.29 47.24 24.39 C 46.47 23.58 45.69 22.77 44.91 21.95 Z" />
</g>
<g id="#8ba4b6fe">
<path fill="#8ba4b6" opacity="1.00" d=" M 61.71 21.72 C 62.42 21.49 63.82 21.04 64.53 20.82 C 64.95 21.05 65.79 21.51 66.21 21.74 L 66.63 21.91 C 65.18 22.59 63.60 23.21 61.97 22.90 L 61.48 22.36 L 61.71 21.72 Z" />
<path fill="#8ba4b6" opacity="1.00" d=" M 101.27 21.57 L 101.58 21.23 C 102.02 21.08 102.88 20.77 103.32 20.62 C 104.03 20.95 105.45 21.60 106.16 21.93 L 106.39 22.54 L 105.96 23.00 C 104.28 23.03 102.71 22.37 101.27 21.57 Z" />
<path fill="#8ba4b6" opacity="1.00" d=" M 173.76 21.91 C 174.45 21.63 175.83 21.09 176.52 20.82 C 176.95 21.04 177.80 21.48 178.23 21.70 L 178.66 21.88 C 177.23 22.61 175.66 23.22 174.02 23.04 L 173.53 22.55 L 173.76 21.91 Z" />
<path fill="#8ba4b6" opacity="1.00" d=" M 213.30 21.57 L 213.61 21.24 C 214.05 21.11 214.94 20.83 215.39 20.70 C 216.12 21.07 217.58 21.81 218.31 22.18 L 218.55 22.79 L 218.00 23.13 C 216.32 23.06 214.73 22.41 213.30 21.57 Z" />
</g>
<g id="#4378c9ff">
<path fill="#4378c9" opacity="1.00" d=" M 98.79 24.26 C 99.62 23.36 100.44 22.47 101.27 21.57 C 102.71 22.37 104.28 23.03 105.96 23.00 C 105.24 23.93 104.54 24.88 103.86 25.84 C 107.19 26.26 110.54 26.59 113.88 26.93 C 111.34 28.76 108.60 30.37 106.32 32.52 C 105.23 35.68 109.06 37.33 110.76 39.37 C 105.84 38.15 100.92 36.88 96.23 34.93 C 96.49 34.02 96.76 33.10 97.02 32.19 C 99.21 33.15 101.39 34.10 103.58 35.07 C 103.69 33.05 105.22 30.48 103.32 28.89 C 101.87 27.29 100.22 25.88 98.79 24.26 M 101.15 23.40 C 100.30 27.38 105.14 22.58 101.15 23.40 Z" />
<path fill="#4378c9" opacity="1.00" d=" M 210.79 24.26 C 211.62 23.36 212.46 22.47 213.30 21.57 C 214.73 22.41 216.32 23.06 218.00 23.13 C 217.30 23.59 215.89 24.50 215.18 24.95 L 214.49 25.28 C 215.15 21.93 210.70 24.49 213.81 25.60 C 217.03 26.99 220.56 27.22 224.00 27.74 L 224.00 27.92 C 222.02 29.63 219.53 30.92 218.15 33.21 C 217.79 36.04 221.19 37.44 222.76 39.36 C 217.84 38.15 212.92 36.88 208.23 34.93 C 208.49 34.02 208.76 33.10 209.02 32.19 C 211.21 33.15 213.39 34.10 215.58 35.07 C 215.69 33.05 217.22 30.48 215.32 28.89 C 213.87 27.29 212.22 25.88 210.79 24.26 Z" />
</g>
<g id="#4379cbff">
<path fill="#4379cb" opacity="1.00" d=" M 44.52 22.56 L 44.91 21.95 C 45.69 22.77 46.47 23.58 47.24 24.39 C 45.84 22.99 43.41 25.91 45.60 26.51 C 50.31 29.18 55.81 27.23 60.85 26.84 C 60.54 27.42 60.23 27.99 59.93 28.57 C 56.44 29.72 52.94 31.07 49.93 33.21 C 49.59 36.50 52.78 38.31 54.74 40.38 C 49.83 39.14 44.92 37.88 40.23 35.93 C 40.49 35.02 40.76 34.10 41.02 33.19 C 43.22 34.15 45.42 35.11 47.62 36.07 C 49.74 31.39 45.89 28.24 42.92 25.11 C 43.23 24.62 43.84 23.63 44.15 23.14 L 44.52 22.56 Z" />
<path fill="#4379cb" opacity="1.00" d=" M 198.56 44.20 C 207.00 42.50 215.54 44.82 224.00 45.12 L 224.00 45.89 C 219.93 46.23 215.90 47.16 211.80 47.15 C 207.30 46.63 202.92 45.37 198.56 44.20 Z" />
</g>
<g id="#65569cff">
<path fill="#65569c" opacity="1.00" d=" M 115.76 22.19 L 116.13 22.04 C 116.44 21.97 117.06 21.84 117.37 21.77 L 118.55 21.55 C 118.88 22.37 119.52 24.02 119.84 24.84 C 117.36 24.64 114.92 24.22 112.47 23.82 C 113.56 23.26 114.65 22.71 115.76 22.19 Z" />
<path fill="#65569c" opacity="1.00" d=" M 122.14 22.11 C 123.44 22.78 123.43 23.46 122.11 24.14 C 120.81 23.47 120.82 22.80 122.14 22.11 Z" />
<path fill="#65569c" opacity="1.00" d=" M 157.15 22.40 C 161.14 21.58 156.30 26.38 157.15 22.40 Z" />
<path fill="#65569c" opacity="1.00" d=" M 161.53 21.60 L 162.64 21.82 C 162.95 21.89 163.56 22.02 163.87 22.09 L 164.25 22.21 C 165.30 22.60 166.34 23.01 167.39 23.43 C 165.67 24.03 163.97 24.64 162.24 25.18 L 161.09 25.46 C 161.26 24.18 161.39 22.89 161.53 21.60 Z" />
<path fill="#65569c" opacity="1.00" d=" M 59.84 23.16 L 60.30 22.93 C 60.59 22.79 61.19 22.50 61.48 22.36 L 61.97 22.90 C 62.52 23.51 63.62 24.73 64.17 25.34 C 61.66 25.22 59.15 25.04 56.64 24.85 C 57.70 24.28 58.77 23.72 59.84 23.16 Z" />
<path fill="#65569c" opacity="1.00" d=" M 66.14 23.11 C 67.44 23.78 67.43 24.46 66.11 25.14 C 64.81 24.47 64.82 23.80 66.14 23.11 Z" />
<path fill="#65569c" opacity="1.00" d=" M 101.15 23.40 C 105.14 22.58 100.30 27.38 101.15 23.40 Z" />
<path fill="#65569c" opacity="1.00" d=" M 105.96 23.00 L 106.39 22.54 C 106.72 22.62 107.37 22.79 107.70 22.87 L 108.19 23.07 C 109.26 23.56 110.32 24.07 111.38 24.59 C 108.88 25.04 106.37 25.46 103.86 25.84 C 104.54 24.88 105.24 23.93 105.96 23.00 Z" />
<path fill="#65569c" opacity="1.00" d=" M 171.79 23.09 L 172.25 22.86 C 172.57 22.79 173.21 22.63 173.53 22.55 L 174.02 23.04 C 174.62 23.68 175.83 24.97 176.43 25.61 C 173.76 25.63 171.10 25.32 168.46 24.98 C 169.55 24.32 170.66 23.69 171.79 23.09 Z" />
<path fill="#65569c" opacity="1.00" d=" M 178.14 23.11 C 179.44 23.78 179.43 24.46 178.11 25.14 C 176.81 24.47 176.82 23.80 178.14 23.11 Z" />
<path fill="#65569c" opacity="1.00" d=" M 213.81 25.60 C 210.70 24.49 215.15 21.93 214.49 25.28 L 213.81 25.60 Z" />
<path fill="#65569c" opacity="1.00" d=" M 218.00 23.13 L 218.55 22.79 C 218.88 22.83 219.54 22.90 219.87 22.93 L 220.32 23.19 C 221.32 23.83 222.32 24.49 223.30 25.17 C 220.60 25.10 217.89 25.08 215.18 24.95 C 215.89 24.50 217.30 23.59 218.00 23.13 Z" />
<path fill="#65569c" opacity="1.00" d=" M 3.29 23.45 L 4.18 23.71 C 4.53 23.73 5.25 23.77 5.61 23.79 L 6.83 23.56 C 6.73 24.70 6.61 25.85 6.48 26.99 C 4.69 26.57 2.89 26.17 1.09 25.78 C 1.83 25.00 2.56 24.23 3.29 23.45 Z" />
<path fill="#65569c" opacity="1.00" d=" M 10.14 24.11 C 11.44 24.78 11.43 25.46 10.11 26.14 C 8.81 25.47 8.82 24.80 10.14 24.11 Z" />
<path fill="#65569c" opacity="1.00" d=" M 45.60 26.51 C 43.41 25.91 45.84 22.99 47.24 24.39 C 46.83 24.92 46.01 25.98 45.60 26.51 Z" />
<path fill="#65569c" opacity="1.00" d=" M 49.30 23.98 L 50.40 23.77 C 50.75 23.67 51.45 23.48 51.80 23.39 L 52.45 23.16 C 53.30 24.17 54.15 25.18 55.00 26.19 C 52.70 26.20 50.40 26.25 48.10 26.32 C 48.40 25.73 49.00 24.57 49.30 23.98 Z" />
</g>
<g id="#437acafe">
<path fill="#437aca" opacity="1.00" d=" M 133.49 24.34 C 137.08 22.60 141.06 23.90 144.65 24.88 C 140.57 25.41 136.34 25.21 132.40 26.48 C 130.59 27.10 129.60 28.81 130.08 30.68 C 135.08 35.10 142.52 34.15 148.13 31.44 C 147.69 29.42 147.24 27.40 146.79 25.37 C 148.22 27.40 149.29 29.77 151.17 31.44 C 153.71 32.69 156.60 32.98 159.31 33.72 C 160.02 30.99 160.68 28.25 161.09 25.46 L 162.24 25.18 C 165.88 25.94 169.44 27.07 172.88 28.50 C 169.30 28.74 164.45 27.74 162.24 31.36 C 161.17 34.61 165.01 36.34 166.76 38.42 C 160.00 36.74 153.21 33.17 146.11 34.99 C 141.28 37.34 140.96 43.84 136.69 47.00 C 137.41 44.10 138.43 41.24 138.63 38.24 C 136.08 34.57 130.42 35.25 126.54 33.69 C 128.81 30.54 129.57 25.89 133.49 24.34 Z" />
</g>
<g id="#4278cbff">
<path fill="#4278cb" opacity="1.00" d=" M 103.41 38.83 C 103.41 40.64 103.36 42.45 103.25 44.26 C 107.73 44.78 112.24 45.30 116.76 45.26 C 116.06 46.76 115.37 48.26 114.70 49.77 C 113.65 48.48 112.59 47.20 111.53 45.91 C 106.54 45.43 101.46 48.60 96.60 46.62 C 93.31 45.65 89.91 45.17 86.56 44.43 C 89.85 43.20 93.24 43.42 96.61 43.96 C 101.07 46.02 101.85 41.36 103.41 38.83 Z" />
</g>
<g id="#4279cbff">
<path fill="#4279cb" opacity="1.00" d=" M 155.00 44.16 C 157.51 43.41 158.92 40.97 160.63 39.17 C 160.80 41.18 161.05 43.18 161.37 45.17 C 157.06 47.81 152.35 46.51 148.03 44.71 C 148.22 43.99 148.41 43.26 148.61 42.54 C 150.62 43.40 152.71 44.92 155.00 44.16 Z" />
</g>
<g id="#4378cbff">
<path fill="#4378cb" opacity="1.00" d=" M 34.87 42.82 C 38.96 45.59 44.13 43.77 47.02 40.13 C 46.65 41.49 46.30 42.86 45.96 44.24 C 49.45 45.10 52.92 46.05 56.44 46.77 C 53.03 46.72 49.63 46.68 46.23 46.43 C 45.42 47.36 44.61 48.29 43.81 49.23 C 40.49 45.61 35.52 44.95 30.89 45.67 C 32.23 44.75 33.56 43.80 34.87 42.82 Z" />
</g>
<g id="#4575cbff">
<path fill="#4575cb" opacity="1.00" d=" M 163.97 44.23 C 164.57 43.18 166.42 43.18 167.03 44.23 C 167.35 46.00 163.65 46.00 163.97 44.23 Z" />
</g>
<g id="#427acbff">
<path fill="#427acb" opacity="1.00" d=" M 2.86 47.82 C 4.51 47.40 6.17 47.00 7.84 46.62 C 6.85 48.01 5.80 49.35 4.73 50.68 C 6.85 52.14 9.00 53.54 11.12 54.98 C 8.39 54.74 5.65 54.47 2.92 54.22 C 3.05 52.09 3.02 49.95 2.86 47.82 Z" />
</g>
<g id="#4279caff">
<path fill="#4279ca" opacity="1.00" d=" M 113.51 51.40 C 116.92 49.62 120.47 50.79 123.44 52.85 C 120.11 52.49 116.81 51.92 113.51 51.40 Z" />
</g>
</svg>
