<?xml version="1.0" encoding="UTF-8" ?>
<!DOCTYPE svg PUBLIC "-//W3C//DTD SVG 1.1//EN" "http://www.w3.org/Graphics/SVG/1.1/DTD/svg11.dtd">
<svg width="224pt" height="56pt" viewBox="0 0 224 56" version="1.1" xmlns="http://www.w3.org/2000/svg">
<g id="#3c6bbeff">
<path fill="#3c6bbe" opacity="1.00" d=" M 0.00 0.00 L 25.57 0.00 C 26.58 1.10 27.55 2.24 28.52 3.38 C 21.92 4.08 14.84 5.98 8.46 3.28 C 9.43 5.11 10.44 6.94 11.04 8.94 C 8.99 11.13 6.45 12.77 4.10 14.62 C 8.11 14.25 12.14 14.07 16.17 14.08 C 14.54 12.26 12.92 10.43 11.32 8.58 C 13.99 6.88 16.99 5.29 20.27 5.97 C 25.39 7.09 29.92 3.68 34.93 3.38 C 40.26 4.77 45.20 8.35 51.04 6.79 C 54.89 7.05 56.99 3.35 59.35 0.96 C 54.60 2.84 49.76 5.23 44.46 4.27 C 39.67 3.34 35.18 1.29 30.50 0.00 L 85.34 0.00 C 79.75 5.55 71.45 2.69 64.65 2.21 C 65.42 4.22 66.96 6.29 66.58 8.49 C 64.66 10.47 62.26 11.92 60.10 13.62 C 64.11 13.24 68.14 13.07 72.17 13.08 C 70.55 11.27 68.94 9.45 67.35 7.62 C 71.12 4.33 76.07 4.03 80.59 5.84 C 83.68 3.51 86.78 0.63 91.04 0.98 C 95.12 1.81 98.06 5.58 102.34 5.74 C 105.40 6.07 108.47 6.24 111.54 6.48 C 111.73 5.53 111.92 4.57 112.11 3.62 C 105.85 3.44 99.30 3.58 93.88 0.00 L 138.33 0.00 C 137.74 0.60 136.55 1.80 135.96 2.39 C 130.85 2.10 125.74 1.85 120.66 1.25 C 121.40 3.25 122.99 5.32 122.57 7.49 C 120.66 9.48 118.25 10.91 116.10 12.62 C 120.11 12.24 124.14 12.07 128.17 12.08 C 126.55 10.27 124.94 8.45 123.35 6.62 C 127.31 3.08 132.55 3.16 137.24 5.08 C 138.45 3.37 139.64 1.64 140.95 0.00 L 151.47 0.00 C 152.67 1.72 153.78 3.61 155.52 4.87 C 159.43 5.82 163.49 6.17 167.50 6.69 C 167.72 5.56 167.94 4.43 168.17 3.30 C 164.91 3.50 161.66 3.70 158.41 3.89 C 157.20 2.59 156.02 1.28 154.80 0.00 L 197.39 0.00 C 192.41 4.63 185.29 2.76 179.25 4.34 C 178.53 8.48 175.40 11.24 172.21 13.66 C 176.18 13.25 180.17 13.08 184.17 13.07 C 182.55 11.27 180.94 9.45 179.35 7.62 C 183.12 4.33 188.07 4.03 192.59 5.84 C 195.68 3.51 198.77 0.63 203.04 0.98 C 207.12 1.80 210.05 5.61 214.34 5.70 C 217.56 6.00 220.79 6.13 224.00 6.55 L 224.00 9.31 C 220.51 9.62 216.88 9.54 213.51 10.55 C 211.29 11.72 209.80 13.85 207.99 15.52 C 213.46 14.90 218.48 12.25 224.00 11.89 L 224.00 27.70 C 219.32 27.96 214.47 26.98 211.94 22.71 C 214.69 21.13 217.50 19.66 220.28 18.12 C 216.82 18.83 213.35 19.55 209.89 20.27 C 212.19 25.10 217.39 29.31 215.73 35.13 C 213.50 34.17 211.28 33.18 209.06 32.18 C 208.77 33.10 208.48 34.01 208.19 34.93 C 212.91 36.85 217.84 38.13 222.77 39.39 C 221.17 37.48 217.89 36.03 218.14 33.22 C 219.54 30.93 222.02 29.62 224.00 27.90 L 224.00 45.28 C 214.64 44.71 205.36 42.98 196.70 39.28 C 199.89 37.44 203.17 35.78 206.50 34.22 C 205.02 31.51 203.59 28.76 201.94 26.15 C 202.27 28.23 202.66 30.30 203.07 32.37 C 200.10 33.60 197.14 35.23 193.86 35.29 C 190.87 34.32 188.32 32.31 185.56 30.86 C 188.89 27.03 193.84 26.12 198.72 26.24 C 198.15 24.95 197.58 23.65 197.03 22.35 C 199.00 20.66 200.98 18.98 202.99 17.34 C 198.62 17.95 194.21 17.76 189.84 17.25 C 191.86 18.25 193.89 19.24 195.91 20.24 C 195.95 21.45 196.00 22.67 196.05 23.88 C 192.74 25.01 189.41 26.07 186.13 27.25 C 185.24 29.78 185.75 33.48 182.93 34.69 C 179.54 36.13 175.98 37.06 172.49 38.21 C 174.68 41.29 176.68 44.50 178.77 47.64 L 179.36 48.47 C 178.79 48.87 177.63 49.67 177.05 50.08 L 175.94 49.90 C 175.55 49.87 174.76 49.81 174.37 49.78 C 173.77 49.77 172.58 49.74 171.98 49.73 C 173.01 48.14 174.06 46.56 175.10 44.97 C 173.09 45.71 171.09 46.45 169.10 47.19 C 169.75 48.13 170.40 49.08 171.06 50.02 C 170.56 50.41 169.56 51.20 169.06 51.59 C 165.64 51.06 162.24 50.59 158.85 49.96 C 157.82 49.43 156.80 48.89 155.79 48.33 C 156.36 48.12 157.49 47.69 158.06 47.48 C 161.27 46.08 164.56 44.85 167.98 44.06 C 165.40 43.67 162.83 43.25 160.26 42.82 C 160.50 41.64 160.76 40.47 161.01 39.29 C 159.32 40.77 157.78 42.50 155.74 43.52 C 150.33 43.93 145.54 40.47 140.53 39.08 C 143.80 36.55 147.31 33.24 151.91 34.56 C 157.01 35.13 161.84 37.06 166.77 38.43 C 164.99 36.36 161.22 34.60 162.24 31.36 C 163.41 29.20 166.14 29.15 168.26 28.70 C 172.35 28.36 175.95 26.27 179.63 24.65 C 180.06 22.25 180.66 19.89 181.36 17.55 C 177.57 18.54 173.64 18.25 169.97 16.81 C 164.52 15.02 159.10 18.04 153.83 19.10 C 156.03 23.89 161.02 27.99 159.90 33.68 C 156.79 32.93 153.66 32.25 150.50 31.78 C 149.40 29.54 148.26 27.32 146.96 25.19 C 147.31 27.29 147.69 29.39 148.08 31.48 C 142.49 34.09 135.04 35.16 130.13 30.66 C 129.95 29.38 129.76 27.84 131.18 27.21 C 135.19 24.84 140.16 25.58 144.64 24.87 C 141.28 24.00 137.64 22.73 134.22 24.05 C 129.87 25.30 128.87 30.20 126.63 33.59 C 131.14 34.97 135.62 36.53 139.92 38.48 C 132.79 40.97 125.45 43.19 117.80 42.80 C 119.58 44.73 121.32 46.69 123.26 48.47 C 122.71 48.86 121.63 49.63 121.08 50.02 L 120.01 49.90 C 119.64 49.86 118.88 49.79 118.50 49.75 C 117.80 49.68 116.39 49.55 115.68 49.48 C 115.87 48.06 116.07 46.64 116.28 45.22 C 111.96 45.18 107.64 45.05 103.33 44.96 C 103.40 43.02 103.48 41.08 103.56 39.14 C 102.55 40.61 101.61 42.15 100.34 43.43 C 94.81 44.39 89.73 40.89 84.68 39.33 C 87.88 37.43 91.20 35.76 94.57 34.17 C 92.99 31.49 91.45 28.79 89.62 26.28 C 90.10 28.38 90.62 30.48 91.13 32.58 C 85.48 35.23 79.09 34.27 73.46 32.01 C 76.08 27.03 81.46 25.89 86.72 26.25 C 86.15 24.96 85.58 23.66 85.03 22.35 C 87.00 20.66 88.98 18.98 90.99 17.34 C 86.62 17.95 82.21 17.76 77.84 17.25 C 79.86 18.25 81.89 19.24 83.91 20.24 C 83.95 21.45 84.00 22.67 84.05 23.88 C 80.74 25.01 77.41 26.07 74.13 27.25 C 73.24 29.78 73.75 33.48 70.93 34.69 C 67.54 36.13 63.98 37.06 60.49 38.21 C 62.68 41.29 64.68 44.50 66.77 47.64 L 67.36 48.47 C 66.79 48.87 65.63 49.67 65.05 50.07 L 63.94 49.90 C 63.55 49.87 62.76 49.81 62.36 49.78 C 61.77 49.77 60.58 49.74 59.98 49.73 C 61.02 48.14 62.07 46.56 63.10 44.97 C 61.09 45.71 59.09 46.45 57.09 47.19 C 57.74 48.15 58.39 49.10 59.05 50.04 C 58.55 50.46 57.56 51.30 57.06 51.72 C 52.28 51.17 47.13 50.47 43.41 47.10 C 45.04 47.01 46.67 46.94 48.30 46.90 C 50.91 47.02 53.51 47.14 56.11 47.26 C 52.25 46.36 46.57 45.91 46.22 40.85 C 44.78 41.76 43.52 43.71 41.62 43.32 C 37.62 42.43 34.25 39.97 30.71 38.06 C 33.29 37.31 35.88 36.58 38.47 35.86 C 36.54 33.04 34.79 30.09 32.83 27.29 C 33.25 29.35 33.70 31.40 34.15 33.45 C 29.22 36.53 23.48 35.72 18.73 32.71 C 20.96 28.59 25.38 27.14 29.79 27.03 C 29.01 25.80 28.24 24.57 27.47 23.33 C 31.68 20.91 36.50 20.09 41.31 20.27 C 35.35 16.25 28.51 18.78 22.03 19.57 C 23.62 20.43 25.23 21.26 26.83 22.11 C 26.93 22.94 27.14 24.60 27.24 25.42 C 23.73 26.45 20.14 27.23 16.51 27.71 C 17.58 29.53 18.63 31.37 19.66 33.21 C 13.36 35.67 6.74 37.29 0.00 37.83 L 0.00 31.10 C 3.82 29.60 7.70 28.23 11.57 26.86 C 11.79 25.10 11.56 23.16 12.46 21.57 C 14.69 19.82 17.46 18.95 20.01 17.76 C 13.37 19.36 6.40 20.63 0.00 17.41 L 0.00 0.00 M 138.71 9.44 C 141.12 10.61 143.57 11.71 146.05 12.73 C 145.40 14.03 144.72 15.32 144.03 16.60 C 147.05 16.52 150.07 16.57 153.09 16.78 C 149.07 15.55 146.25 12.61 144.63 8.80 C 142.66 9.04 140.68 9.24 138.71 9.44 M 152.68 13.91 C 158.42 13.11 164.71 9.98 170.16 13.48 C 169.43 12.05 168.64 10.64 167.63 9.39 C 162.35 9.17 155.84 8.65 152.68 13.91 M 99.26 10.76 C 99.38 11.65 99.50 12.54 99.62 13.44 C 98.34 14.00 97.05 14.56 95.77 15.12 C 102.02 13.11 109.24 13.92 114.99 10.49 C 109.80 9.15 104.46 9.97 99.26 10.76 M 43.13 10.50 C 43.72 11.54 44.30 12.56 44.89 13.60 C 43.17 14.44 41.45 15.28 39.75 16.14 C 46.10 14.70 53.15 14.91 58.94 11.57 C 53.76 10.37 48.42 10.48 43.13 10.50 M 122.46 16.64 C 118.62 18.35 114.55 15.38 110.61 16.48 C 106.40 17.52 102.33 19.05 98.18 20.28 C 99.33 24.22 101.95 27.29 104.57 30.34 C 104.32 31.97 103.67 33.51 103.15 35.06 C 101.14 34.08 99.13 33.09 97.14 32.08 C 96.81 32.99 96.50 33.91 96.18 34.83 C 100.85 37.09 105.92 38.17 110.98 39.16 C 108.85 37.37 104.99 35.81 106.15 32.34 C 111.39 28.08 117.42 24.74 123.88 22.73 C 123.76 20.93 123.76 19.10 124.15 17.33 C 126.58 15.95 129.32 15.32 131.97 14.51 C 131.69 14.18 131.15 13.54 130.88 13.21 C 128.09 14.39 125.28 15.53 122.46 16.64 M 42.18 21.29 C 43.33 25.22 45.95 28.29 48.57 31.34 C 48.32 32.97 47.67 34.51 47.15 36.06 C 45.14 35.08 43.13 34.09 41.14 33.08 C 40.82 33.99 40.50 34.91 40.18 35.83 C 44.85 38.09 49.92 39.17 54.98 40.16 C 52.74 38.36 49.08 36.75 50.03 33.22 C 55.61 29.67 61.87 27.25 67.93 24.62 C 67.59 21.99 68.33 19.44 69.58 17.14 C 65.52 19.50 61.01 18.02 56.74 17.19 C 51.71 17.67 47.05 20.04 42.18 21.29 M 114.59 36.91 C 114.40 37.47 114.21 38.04 114.02 38.60 C 115.19 38.85 116.35 39.10 117.52 39.35 C 117.50 39.75 117.45 40.56 117.42 40.96 C 121.32 38.84 125.39 37.05 129.39 35.13 C 124.49 35.93 119.61 37.67 114.59 36.91 Z" />
<path fill="#3c6bbe" opacity="1.00" d=" M 0.00 38.32 C 2.35 38.93 4.92 39.06 7.06 40.27 C 8.75 42.05 9.75 44.35 10.94 46.47 C 11.26 47.07 11.57 47.68 11.88 48.29 C 9.90 49.22 7.87 50.05 5.80 50.76 C 6.36 49.18 6.92 47.59 7.46 45.99 C 5.35 47.27 3.29 48.62 1.27 50.02 C 0.84 50.60 0.42 51.19 0.00 51.78 L 0.00 38.32 Z" />
</g>
<g id="#4179cbff">
<path fill="#4179cb" opacity="1.00" d=" M 25.57 0.00 L 30.50 0.00 C 35.18 1.29 39.67 3.34 44.46 4.27 C 49.76 5.23 54.60 2.84 59.35 0.96 C 56.99 3.35 54.89 7.05 51.04 6.79 C 45.20 8.35 40.26 4.77 34.93 3.38 C 29.92 3.68 25.39 7.09 20.27 5.97 C 16.99 5.29 13.99 6.88 11.32 8.58 C 12.92 10.43 14.54 12.26 16.17 14.08 C 12.14 14.07 8.11 14.25 4.10 14.62 C 6.45 12.77 8.99 11.13 11.04 8.94 C 10.44 6.94 9.43 5.11 8.46 3.28 C 14.84 5.98 21.92 4.08 28.52 3.38 C 27.55 2.24 26.58 1.10 25.57 0.00 Z" />
<path fill="#4179cb" opacity="1.00" d=" M 85.34 0.00 L 93.88 0.00 C 99.30 3.58 105.85 3.44 112.11 3.62 C 111.92 4.57 111.73 5.53 111.54 6.48 C 108.47 6.24 105.40 6.07 102.34 5.74 C 98.06 5.58 95.12 1.81 91.04 0.98 C 86.78 0.63 83.68 3.51 80.59 5.84 C 76.07 4.03 71.12 4.33 67.35 7.62 C 68.94 9.45 70.55 11.27 72.17 13.08 C 68.14 13.07 64.11 13.24 60.10 13.62 C 62.26 11.92 64.66 10.47 66.58 8.49 C 66.96 6.29 65.42 4.22 64.65 2.21 C 71.45 2.69 79.75 5.55 85.34 0.00 Z" />
<path fill="#4179cb" opacity="1.00" d=" M 197.39 0.00 L 205.89 0.00 C 211.26 3.60 217.77 3.48 224.00 3.66 L 224.00 6.55 C 220.79 6.13 217.56 6.00 214.34 5.70 C 210.05 5.61 207.12 1.80 203.04 0.98 C 198.77 0.63 195.68 3.51 192.59 5.84 C 188.07 4.03 183.12 4.33 179.35 7.62 C 180.94 9.45 182.55 11.27 184.17 13.07 C 180.17 13.08 176.18 13.25 172.21 13.66 C 175.40 11.24 178.53 8.48 179.25 4.34 C 185.29 2.76 192.41 4.63 197.39 0.00 Z" />
</g>
<g id="#4278caff">
<path fill="#4278ca" opacity="1.00" d=" M 138.33 0.00 L 140.95 0.00 C 139.64 1.64 138.45 3.37 137.24 5.08 C 132.55 3.16 127.31 3.08 123.35 6.62 C 124.94 8.45 126.55 10.27 128.17 12.08 C 124.14 12.07 120.11 12.24 116.10 12.62 C 118.25 10.91 120.66 9.48 122.57 7.49 C 122.99 5.32 121.40 3.25 120.66 1.25 C 125.74 1.85 130.85 2.10 135.96 2.39 C 136.55 1.80 137.74 0.60 138.33 0.00 Z" />
</g>
<g id="#4079ccff">
<path fill="#4079cc" opacity="1.00" d=" M 151.47 0.00 L 154.80 0.00 C 156.02 1.28 157.20 2.59 158.41 3.89 C 161.66 3.70 164.91 3.50 168.17 3.30 C 167.94 4.43 167.72 5.56 167.50 6.69 C 163.49 6.17 159.43 5.82 155.52 4.87 C 153.78 3.61 152.67 1.72 151.47 0.00 Z" />
</g>
<g id="#3c6abefe">
<path fill="#3c6abe" opacity="1.00" d=" M 205.89 0.00 L 224.00 0.00 L 224.00 3.66 C 217.77 3.48 211.26 3.60 205.89 0.00 Z" />
</g>
<g id="#4377caff">
<path fill="#4377ca" opacity="1.00" d=" M 138.71 9.44 C 140.68 9.24 142.66 9.04 144.63 8.80 C 146.25 12.61 149.07 15.55 153.09 16.78 C 150.07 16.57 147.05 16.52 144.03 16.60 C 144.72 15.32 145.40 14.03 146.05 12.73 C 143.57 11.71 141.12 10.61 138.71 9.44 Z" />
</g>
<g id="#407accff">
<path fill="#407acc" opacity="1.00" d=" M 152.68 13.91 C 155.84 8.65 162.35 9.17 167.63 9.39 C 168.64 10.64 169.43 12.05 170.16 13.48 C 164.71 9.98 158.42 13.11 152.68 13.91 Z" />
</g>
<g id="#427bcbff">
<path fill="#427bcb" opacity="1.00" d=" M 99.26 10.76 C 104.46 9.97 109.80 9.15 114.99 10.49 C 109.24 13.92 102.02 13.11 95.77 15.12 C 97.05 14.56 98.34 14.00 99.62 13.44 C 99.50 12.54 99.38 11.65 99.26 10.76 Z" />
<path fill="#427bcb" opacity="1.00" d=" M 213.51 10.55 C 216.88 9.54 220.51 9.62 224.00 9.31 L 224.00 11.89 C 218.48 12.25 213.46 14.90 207.99 15.52 C 209.80 13.85 211.29 11.72 213.51 10.55 Z" />
</g>
<g id="#437bccff">
<path fill="#437bcc" opacity="1.00" d=" M 43.13 10.50 C 48.42 10.48 53.76 10.37 58.94 11.57 C 53.15 14.91 46.10 14.70 39.75 16.14 C 41.45 15.28 43.17 14.44 44.89 13.60 C 44.30 12.56 43.72 11.54 43.13 10.50 Z" />
</g>
<g id="#4379caff">
<path fill="#4379ca" opacity="1.00" d=" M 122.46 16.64 C 125.28 15.53 128.09 14.39 130.88 13.21 C 131.15 13.54 131.69 14.18 131.97 14.51 C 129.32 15.32 126.58 15.95 124.15 17.33 C 123.76 19.10 123.76 20.93 123.88 22.73 C 117.42 24.74 111.39 28.08 106.15 32.34 C 104.99 35.81 108.85 37.37 110.98 39.16 C 105.92 38.17 100.85 37.09 96.18 34.83 C 96.50 33.91 96.81 32.99 97.14 32.08 C 99.13 33.09 101.14 34.08 103.15 35.06 C 103.67 33.51 104.32 31.97 104.57 30.34 C 101.95 27.29 99.33 24.22 98.18 20.28 C 102.33 19.05 106.40 17.52 110.61 16.48 C 114.55 15.38 118.62 18.35 122.46 16.64 M 100.88 21.73 C 100.89 22.60 100.90 24.35 100.90 25.22 C 103.41 26.27 105.98 28.30 108.82 27.73 C 113.43 25.78 117.81 23.31 122.35 21.21 C 116.05 16.31 107.53 18.71 100.88 21.73 Z" />
<path fill="#4379ca" opacity="1.00" d=" M 42.18 21.29 C 47.05 20.04 51.71 17.67 56.74 17.19 C 61.01 18.02 65.52 19.50 69.58 17.14 C 68.33 19.44 67.59 21.99 67.93 24.62 C 61.87 27.25 55.61 29.67 50.03 33.22 C 49.08 36.75 52.74 38.36 54.98 40.16 C 49.92 39.17 44.85 38.09 40.18 35.83 C 40.50 34.91 40.82 33.99 41.14 33.08 C 43.13 34.09 45.14 35.08 47.15 36.06 C 47.67 34.51 48.32 32.97 48.57 31.34 C 45.95 28.29 43.33 25.22 42.18 21.29 M 44.89 22.73 C 44.89 23.62 44.88 25.39 44.87 26.28 C 51.99 31.05 60.17 26.19 66.66 22.64 C 60.59 17.03 51.63 19.70 44.89 22.73 Z" />
<path fill="#4379ca" opacity="1.00" d=" M 209.89 20.27 C 213.35 19.55 216.82 18.83 220.28 18.12 C 217.50 19.66 214.69 21.13 211.94 22.71 C 214.47 26.98 219.32 27.96 224.00 27.70 L 224.00 27.90 C 222.02 29.62 219.54 30.93 218.14 33.22 C 217.89 36.03 221.17 37.48 222.77 39.39 C 217.84 38.13 212.91 36.85 208.19 34.93 C 208.48 34.01 208.77 33.10 209.06 32.18 C 211.28 33.18 213.50 34.17 215.73 35.13 C 217.39 29.31 212.19 25.10 209.89 20.27 Z" />
<path fill="#4379ca" opacity="1.00" d=" M 114.59 36.91 C 119.61 37.67 124.49 35.93 129.39 35.13 C 125.39 37.05 121.32 38.84 117.42 40.96 C 117.45 40.56 117.50 39.75 117.52 39.35 C 116.35 39.10 115.19 38.85 114.02 38.60 C 114.21 38.04 114.40 37.47 114.59 36.91 Z" />
</g>
<g id="#4378caff">
<path fill="#4378ca" opacity="1.00" d=" M 153.83 19.10 C 159.10 18.04 164.52 15.02 169.97 16.81 C 173.64 18.25 177.57 18.54 181.36 17.55 C 180.66 19.89 180.06 22.25 179.63 24.65 C 175.95 26.27 172.35 28.36 168.26 28.70 C 166.14 29.15 163.41 29.20 162.24 31.36 C 161.22 34.60 164.99 36.36 166.77 38.43 C 161.84 37.06 157.01 35.13 151.91 34.56 C 147.31 33.24 143.80 36.55 140.53 39.08 C 145.54 40.47 150.33 43.93 155.74 43.52 C 157.78 42.50 159.32 40.77 161.01 39.29 C 160.76 40.47 160.50 41.64 160.26 42.82 C 162.83 43.25 165.40 43.67 167.98 44.06 C 164.56 44.85 161.27 46.08 158.06 47.48 C 149.21 44.38 139.66 44.22 130.40 44.25 C 127.44 44.22 125.21 46.43 123.84 48.83 L 123.26 48.47 C 121.32 46.69 119.58 44.73 117.80 42.80 C 125.45 43.19 132.79 40.97 139.92 38.48 C 135.62 36.53 131.14 34.97 126.63 33.59 C 128.87 30.20 129.87 25.30 134.22 24.05 C 137.64 22.73 141.28 24.00 144.64 24.87 C 140.16 25.58 135.19 24.84 131.18 27.21 C 129.76 27.84 129.95 29.38 130.13 30.66 C 135.04 35.16 142.49 34.09 148.08 31.48 C 147.69 29.39 147.31 27.29 146.96 25.19 C 148.26 27.32 149.40 29.54 150.50 31.78 C 153.66 32.25 156.79 32.93 159.90 33.68 C 161.02 27.99 156.03 23.89 153.83 19.10 M 156.06 21.07 C 157.38 22.95 158.25 25.80 160.87 26.19 C 167.09 27.85 173.46 26.06 178.74 22.72 C 172.46 17.52 163.07 17.04 156.06 21.07 Z" />
<path fill="#4378ca" opacity="1.00" d=" M 22.03 19.57 C 28.51 18.78 35.35 16.25 41.31 20.27 C 36.50 20.09 31.68 20.91 27.47 23.33 C 28.24 24.57 29.01 25.80 29.79 27.03 C 25.38 27.14 20.96 28.59 18.73 32.71 C 23.48 35.72 29.22 36.53 34.15 33.45 C 33.70 31.40 33.25 29.35 32.83 27.29 C 34.79 30.09 36.54 33.04 38.47 35.86 C 35.88 36.58 33.29 37.31 30.71 38.06 C 34.25 39.97 37.62 42.43 41.62 43.32 C 43.52 43.71 44.78 41.76 46.22 40.85 C 46.57 45.91 52.25 46.36 56.11 47.26 C 53.51 47.14 50.91 47.02 48.30 46.90 C 43.83 45.61 39.57 43.56 34.97 42.71 C 28.17 41.95 21.31 42.05 14.49 41.65 C 18.34 40.38 22.27 39.36 26.18 38.30 C 23.19 37.53 20.23 36.44 17.11 36.40 C 13.96 36.63 11.22 38.39 8.48 39.80 C 9.91 41.66 11.37 43.49 12.88 45.29 C 12.39 45.59 11.43 46.17 10.94 46.47 C 9.75 44.35 8.75 42.05 7.06 40.27 C 4.92 39.06 2.35 38.93 0.00 38.32 L 0.00 37.83 C 6.74 37.29 13.36 35.67 19.66 33.21 C 18.63 31.37 17.58 29.53 16.51 27.71 C 20.14 27.23 23.73 26.45 27.24 25.42 C 27.14 24.60 26.93 22.94 26.83 22.11 C 25.23 21.26 23.62 20.43 22.03 19.57 Z" />
<path fill="#4378ca" opacity="1.00" d=" M 77.84 17.25 C 82.21 17.76 86.62 17.95 90.99 17.34 C 88.98 18.98 87.00 20.66 85.03 22.35 C 85.58 23.66 86.15 24.96 86.72 26.25 C 81.46 25.89 76.08 27.03 73.46 32.01 C 79.09 34.27 85.48 35.23 91.13 32.58 C 90.62 30.48 90.10 28.38 89.62 26.28 C 91.45 28.79 92.99 31.49 94.57 34.17 C 91.20 35.76 87.88 37.43 84.68 39.33 C 89.73 40.89 94.81 44.39 100.34 43.43 C 101.61 42.15 102.55 40.61 103.56 39.14 C 103.48 41.08 103.40 43.02 103.33 44.96 C 107.64 45.05 111.96 45.18 116.28 45.22 C 116.07 46.64 115.87 48.06 115.68 49.48 C 116.39 49.55 117.80 49.68 118.50 49.75 C 117.47 50.41 116.63 51.26 115.98 52.31 C 115.76 51.75 115.32 50.62 115.09 50.06 C 113.98 48.69 112.86 47.34 111.74 45.98 C 108.09 46.55 104.46 47.20 100.79 47.64 C 100.04 47.72 98.54 47.88 97.79 47.96 C 98.17 46.96 98.55 45.97 98.94 44.97 C 91.34 44.06 83.71 43.10 76.03 43.26 C 72.45 43.30 69.44 45.49 66.77 47.64 C 64.68 44.50 62.68 41.29 60.49 38.21 C 63.98 37.06 67.54 36.13 70.93 34.69 C 73.75 33.48 73.24 29.78 74.13 27.25 C 77.41 26.07 80.74 25.01 84.05 23.88 C 84.00 22.67 83.95 21.45 83.91 20.24 C 81.89 19.24 79.86 18.25 77.84 17.25 M 63.73 39.47 C 64.45 41.16 65.24 42.81 66.06 44.45 C 71.37 42.92 76.52 40.92 81.84 39.45 C 81.89 38.82 81.97 37.56 82.01 36.93 C 75.68 34.25 69.44 36.72 63.73 39.47 Z" />
</g>
<g id="#427acbff">
<path fill="#427acb" opacity="1.00" d=" M 0.00 17.41 C 6.40 20.63 13.37 19.36 20.01 17.76 C 17.46 18.95 14.69 19.82 12.46 21.57 C 11.56 23.16 11.79 25.10 11.57 26.86 C 7.70 28.23 3.82 29.60 0.00 31.10 L 0.00 29.18 C 3.87 27.61 7.78 26.11 11.40 23.99 C 7.79 21.88 3.88 20.40 0.00 18.89 L 0.00 17.41 Z" />
</g>
<g id="#4378cbff">
<path fill="#4378cb" opacity="1.00" d=" M 189.84 17.25 C 194.21 17.76 198.62 17.95 202.99 17.34 C 200.98 18.98 199.00 20.66 197.03 22.35 C 197.58 23.65 198.15 24.95 198.72 26.24 C 193.84 26.12 188.89 27.03 185.56 30.86 C 188.32 32.31 190.87 34.32 193.86 35.29 C 197.14 35.23 200.10 33.60 203.07 32.37 C 202.66 30.30 202.27 28.23 201.94 26.15 C 203.59 28.76 205.02 31.51 206.50 34.22 C 203.17 35.78 199.89 37.44 196.70 39.28 C 205.36 42.98 214.64 44.71 224.00 45.28 L 224.00 46.09 C 221.38 46.22 218.81 46.37 216.21 46.51 C 206.63 44.70 196.97 42.71 187.16 43.32 C 183.91 43.63 181.24 45.69 178.77 47.64 C 176.68 44.50 174.68 41.29 172.49 38.21 C 175.98 37.06 179.54 36.13 182.93 34.69 C 185.75 33.48 185.24 29.78 186.13 27.25 C 189.41 26.07 192.74 25.01 196.05 23.88 C 196.00 22.67 195.95 21.45 195.91 20.24 C 193.89 19.24 191.86 18.25 189.84 17.25 M 175.33 39.48 C 176.19 41.03 177.16 42.54 178.31 43.90 C 183.72 43.31 188.31 39.58 193.88 39.31 C 193.91 38.71 193.97 37.52 194.00 36.93 C 187.56 34.29 181.16 36.73 175.33 39.48 M 198.97 41.23 C 198.65 43.01 202.35 43.01 202.03 41.23 C 201.42 40.17 199.57 40.17 198.97 41.23 Z" />
</g>
<g id="#3c6bbdff">
<path fill="#3c6bbd" opacity="1.00" d=" M 100.88 21.73 C 107.53 18.71 116.05 16.31 122.35 21.21 C 117.81 23.31 113.43 25.78 108.82 27.73 C 105.98 28.30 103.41 26.27 100.90 25.22 C 100.90 24.35 100.89 22.60 100.88 21.73 Z" />
<path fill="#3c6bbd" opacity="1.00" d=" M 156.06 21.07 C 163.07 17.04 172.46 17.52 178.74 22.72 C 173.46 26.06 167.09 27.85 160.87 26.19 C 158.25 25.80 157.38 22.95 156.06 21.07 Z" />
<path fill="#3c6bbd" opacity="1.00" d=" M 44.89 22.73 C 51.63 19.70 60.59 17.03 66.66 22.64 C 60.17 26.19 51.99 31.05 44.87 26.28 C 44.88 25.39 44.89 23.62 44.89 22.73 Z" />
<path fill="#3c6bbd" opacity="1.00" d=" M 63.73 39.47 C 69.44 36.72 75.68 34.25 82.01 36.93 C 81.97 37.56 81.89 38.82 81.84 39.45 C 76.52 40.92 71.37 42.92 66.06 44.45 C 65.24 42.81 64.45 41.16 63.73 39.47 Z" />
</g>
<g id="#3c6abeff">
<path fill="#3c6abe" opacity="1.00" d=" M 0.00 18.89 C 3.88 20.40 7.79 21.88 11.40 23.99 C 7.78 26.11 3.87 27.61 0.00 29.18 L 0.00 18.89 Z" />
<path fill="#3c6abe" opacity="1.00" d=" M 175.33 39.48 C 181.16 36.73 187.56 34.29 194.00 36.93 C 193.97 37.52 193.91 38.71 193.88 39.31 C 188.31 39.58 183.72 43.31 178.31 43.90 C 177.16 42.54 176.19 41.03 175.33 39.48 Z" />
</g>
<g id="#3b6cbeff">
<path fill="#3b6cbe" opacity="1.00" d=" M 8.48 39.80 C 11.22 38.39 13.96 36.63 17.11 36.40 C 20.23 36.44 23.19 37.53 26.18 38.30 C 22.27 39.36 18.34 40.38 14.49 41.65 C 13.98 42.87 13.51 44.12 12.88 45.29 C 11.37 43.49 9.91 41.66 8.48 39.80 Z" />
</g>
<g id="#1baac1ff">
<path fill="#1baac1" opacity="1.00" d=" M 14.49 41.65 C 21.31 42.05 28.17 41.95 34.97 42.71 C 39.57 43.56 43.83 45.61 48.30 46.90 C 46.67 46.94 45.04 47.01 43.41 47.10 L 42.89 46.68 C 42.00 45.60 40.54 45.35 39.27 45.86 L 38.45 45.96 C 36.99 45.23 35.56 44.45 34.12 43.68 C 28.99 45.18 23.61 44.61 18.38 45.33 C 16.56 46.01 14.82 46.87 13.07 47.71 C 12.78 47.86 12.18 48.14 11.88 48.29 C 11.57 47.68 11.26 47.07 10.94 46.47 C 11.43 46.17 12.39 45.59 12.88 45.29 C 13.51 44.12 13.98 42.87 14.49 41.65 Z" />
</g>
<g id="#1aa9c2ff">
<path fill="#1aa9c2" opacity="1.00" d=" M 198.97 41.23 C 199.57 40.17 201.42 40.17 202.03 41.23 C 202.35 43.01 198.65 43.01 198.97 41.23 Z" />
</g>
<g id="#40ccbdfe">
<path fill="#40ccbd" opacity="1.00" d=" M 18.38 45.33 C 23.61 44.61 28.99 45.18 34.12 43.68 C 35.56 44.45 36.99 45.23 38.45 45.96 C 31.79 47.18 24.86 47.89 18.38 45.33 Z" />
</g>
<g id="#1da8c0ff">
<path fill="#1da8c0" opacity="1.00" d=" M 66.77 47.64 C 69.44 45.49 72.45 43.30 76.03 43.26 C 83.71 43.10 91.34 44.06 98.94 44.97 C 98.55 45.97 98.17 46.96 97.79 47.96 C 97.74 48.11 97.63 48.41 97.57 48.56 C 96.99 48.45 95.83 48.23 95.25 48.12 C 94.87 48.05 94.13 47.91 93.76 47.84 C 87.40 46.43 80.76 45.19 74.24 46.13 C 72.74 46.94 71.35 47.93 69.98 48.95 L 69.41 49.38 L 68.89 49.90 C 68.65 49.68 68.16 49.25 67.91 49.03 L 67.36 48.47 L 66.77 47.64 Z" />
</g>
<g id="#1da7c0ff">
<path fill="#1da7c0" opacity="1.00" d=" M 178.77 47.64 C 181.24 45.69 183.91 43.63 187.16 43.32 C 196.97 42.71 206.63 44.70 216.21 46.51 C 214.82 46.77 213.44 47.06 212.07 47.40 C 211.12 47.63 210.18 47.88 209.24 48.13 C 208.75 48.08 207.75 47.99 207.26 47.95 C 206.91 47.91 206.20 47.83 205.85 47.79 C 199.42 46.60 192.79 45.18 186.24 46.12 C 184.74 46.94 183.35 47.93 181.98 48.95 L 181.41 49.38 L 180.90 49.91 C 180.65 49.69 180.16 49.25 179.91 49.03 L 179.36 48.47 L 178.77 47.64 Z" />
</g>
<g id="#1ba7c0ff">
<path fill="#1ba7c0" opacity="1.00" d=" M 123.84 48.83 C 125.21 46.43 127.44 44.22 130.40 44.25 C 139.66 44.22 149.21 44.38 158.06 47.48 C 157.49 47.69 156.36 48.12 155.79 48.33 C 155.07 48.36 154.36 48.36 153.65 48.34 C 143.99 48.39 132.87 43.62 124.30 50.10 C 124.18 49.78 123.95 49.15 123.84 48.83 Z" />
</g>
<g id="#a1dfa1ff">
<path fill="#a1dfa1" opacity="1.00" d=" M 13.07 47.71 C 14.82 46.87 16.56 46.01 18.38 45.33 C 24.86 47.89 31.79 47.18 38.45 45.96 L 39.27 45.86 L 39.00 46.57 C 38.75 46.90 38.26 47.55 38.01 47.87 L 37.18 48.04 C 35.70 48.33 34.22 48.64 32.73 48.89 C 27.33 49.55 21.88 49.35 16.46 48.96 C 15.48 48.84 14.51 48.70 13.54 48.53 L 13.07 47.71 Z" />
</g>
<g id="#417bcbff">
<path fill="#417bcb" opacity="1.00" d=" M 57.09 47.19 C 59.09 46.45 61.09 45.71 63.10 44.97 C 62.07 46.56 61.02 48.14 59.98 49.73 C 60.58 49.74 61.77 49.77 62.36 49.78 C 61.37 50.44 60.56 51.28 59.92 52.30 C 59.71 51.73 59.27 50.61 59.05 50.04 C 58.39 49.10 57.74 48.15 57.09 47.19 Z" />
<path fill="#417bcb" opacity="1.00" d=" M 169.10 47.19 C 171.09 46.45 173.09 45.71 175.10 44.97 C 174.06 46.56 173.01 48.14 171.98 49.73 C 172.58 49.74 173.77 49.77 174.37 49.78 C 173.38 50.44 172.57 51.28 171.93 52.28 C 171.71 51.72 171.28 50.58 171.06 50.02 C 170.40 49.08 169.75 48.13 169.10 47.19 Z" />
</g>
<g id="#40cfbeff">
<path fill="#40cfbe" opacity="1.00" d=" M 74.24 46.13 C 80.76 45.19 87.40 46.43 93.76 47.84 C 87.21 47.85 80.53 48.43 74.24 46.13 Z" />
<path fill="#40cfbe" opacity="1.00" d=" M 186.24 46.12 C 192.79 45.18 199.42 46.60 205.85 47.79 C 199.26 47.85 192.55 48.47 186.24 46.12 Z" />
</g>
<g id="#41cfbeff">
<path fill="#41cfbe" opacity="1.00" d=" M 39.27 45.86 C 40.54 45.35 42.00 45.60 42.89 46.68 C 42.11 46.74 40.56 46.85 39.79 46.91 L 39.00 46.57 L 39.27 45.86 Z" />
</g>
<g id="#a0e1a2ff">
<path fill="#a0e1a2" opacity="1.00" d=" M 69.98 48.95 C 71.35 47.93 72.74 46.94 74.24 46.13 C 80.53 48.43 87.21 47.85 93.76 47.84 C 94.13 47.91 94.87 48.05 95.25 48.12 C 94.85 48.21 94.05 48.40 93.65 48.49 C 91.98 48.91 90.33 49.36 88.65 49.74 C 84.16 49.87 79.67 50.07 75.18 50.01 C 73.44 49.69 71.72 49.26 69.98 48.95 Z" />
<path fill="#a0e1a2" opacity="1.00" d=" M 181.98 48.95 C 183.35 47.93 184.74 46.94 186.24 46.12 C 192.55 48.47 199.26 47.85 205.85 47.79 C 206.20 47.83 206.91 47.91 207.26 47.95 C 206.85 48.06 206.04 48.27 205.63 48.38 C 203.98 48.85 202.33 49.34 200.66 49.76 C 196.16 49.90 191.67 50.08 187.18 50.01 C 185.44 49.69 183.72 49.27 181.98 48.95 Z" />
</g>
<g id="#3c6dbfff">
<path fill="#3c6dbf" opacity="1.00" d=" M 100.79 47.64 C 104.46 47.20 108.09 46.55 111.74 45.98 C 112.86 47.34 113.98 48.69 115.09 50.06 C 114.60 50.32 113.63 50.84 113.14 51.09 C 109.66 50.87 106.21 50.48 102.73 50.51 C 102.24 49.79 101.27 48.36 100.79 47.64 Z" />
<path fill="#3c6dbf" opacity="1.00" d=" M 216.21 46.51 C 218.81 46.37 221.38 46.22 224.00 46.09 L 224.00 50.86 C 220.88 50.69 217.80 50.39 214.69 50.42 C 213.81 49.41 212.94 48.40 212.07 47.40 C 213.44 47.06 214.82 46.77 216.21 46.51 Z" />
</g>
<g id="#40cebeff">
<path fill="#40cebe" opacity="1.00" d=" M 124.30 50.10 C 132.87 43.62 143.99 48.39 153.65 48.34 L 153.31 49.05 C 152.64 49.18 151.30 49.43 150.62 49.56 C 147.64 49.14 144.61 49.45 141.62 49.62 C 140.21 49.59 138.80 49.57 137.39 49.55 C 133.99 49.25 130.57 48.80 127.19 49.38 L 126.08 49.52 C 125.64 49.67 124.74 49.95 124.30 50.10 Z" />
</g>
<g id="#407eccfe">
<path fill="#407ecc" opacity="1.00" d=" M 1.27 50.02 C 3.29 48.62 5.35 47.27 7.46 45.99 C 6.92 47.59 6.36 49.18 5.80 50.76 C 4.27 50.64 2.77 50.29 1.27 50.02 Z" />
</g>
<g id="#4575cbff">
<path fill="#4575cb" opacity="1.00" d=" M 38.01 47.87 C 38.26 47.55 38.75 46.90 39.00 46.57 L 39.79 46.91 C 40.15 47.18 40.86 47.72 41.21 47.98 L 41.07 48.59 C 39.97 48.75 38.95 48.51 38.01 47.87 Z" />
</g>
<g id="#353533ff">
<path fill="#353533" opacity="1.00" d=" M 39.79 46.91 C 40.56 46.85 42.11 46.74 42.89 46.68 L 43.41 47.10 C 47.13 50.47 52.28 51.17 57.06 51.72 C 55.47 51.81 53.89 51.98 52.30 52.15 L 51.23 52.26 C 50.56 52.09 49.21 51.76 48.54 51.59 C 47.83 51.61 47.13 51.62 46.43 51.64 C 46.04 51.63 45.25 51.61 44.86 51.60 C 44.94 50.28 44.27 49.48 42.85 49.20 C 42.44 48.89 41.62 48.29 41.21 47.98 C 40.86 47.72 40.15 47.18 39.79 46.91 Z" />
</g>
<g id="#475046ff">
<path fill="#475046" opacity="1.00" d=" M 209.24 48.13 C 210.18 47.88 211.12 47.63 212.07 47.40 C 212.94 48.40 213.81 49.41 214.69 50.42 C 214.47 50.74 214.04 51.37 213.82 51.69 C 213.64 51.97 213.27 52.53 213.09 52.81 L 212.59 53.24 L 212.17 53.59 C 211.00 53.18 209.39 52.84 208.54 54.03 L 208.39 53.77 L 208.16 53.33 L 207.97 52.95 C 208.38 51.33 208.82 49.73 209.24 48.13 M 211.15 49.40 C 210.30 53.38 215.14 48.58 211.15 49.40 Z" />
</g>
<g id="#454a3aff">
<path fill="#454a3a" opacity="1.00" d=" M 11.88 48.29 C 12.18 48.14 12.78 47.86 13.07 47.71 L 13.54 48.53 L 13.93 49.27 C 12.84 50.53 11.71 51.76 10.60 52.99 L 9.57 52.86 C 6.39 52.49 3.20 52.25 0.00 52.03 L 0.00 51.78 C 0.42 51.19 0.84 50.60 1.27 50.02 C 2.77 50.29 4.27 50.64 5.80 50.76 C 7.87 50.05 9.90 49.22 11.88 48.29 Z" />
</g>
<g id="#ddd789ff">
<path fill="#ddd789" opacity="1.00" d=" M 13.54 48.53 C 14.51 48.70 15.48 48.84 16.46 48.96 C 18.99 50.90 21.73 53.04 25.08 53.02 C 28.75 52.91 32.40 52.38 36.08 52.48 C 36.01 51.21 35.93 49.93 35.86 48.66 C 35.08 48.72 33.51 48.83 32.73 48.89 C 34.22 48.64 35.70 48.33 37.18 48.04 C 38.13 49.66 39.07 51.29 40.01 52.92 L 40.22 53.31 C 38.57 53.58 37.25 54.69 36.26 55.98 C 33.42 55.95 30.58 55.90 27.75 55.84 C 23.14 55.28 18.60 53.82 14.88 51.00 C 14.64 50.57 14.17 49.70 13.93 49.27 L 13.54 48.53 Z" />
</g>
<g id="#edf1acfe">
<path fill="#edf1ac" opacity="1.00" d=" M 16.46 48.96 C 21.88 49.35 27.33 49.55 32.73 48.89 C 33.51 48.83 35.08 48.72 35.86 48.66 C 35.93 49.93 36.01 51.21 36.08 52.48 C 32.40 52.38 28.75 52.91 25.08 53.02 C 21.73 53.04 18.99 50.90 16.46 48.96 Z" />
<path fill="#edf1ac" opacity="1.00" d=" M 131.51 51.47 C 133.46 50.81 135.41 50.14 137.39 49.55 C 138.80 49.57 140.21 49.59 141.62 49.62 C 142.70 49.78 143.78 49.96 144.86 50.15 C 146.13 50.83 147.38 51.57 148.62 52.31 C 142.97 52.88 136.77 54.50 131.51 51.47 Z" />
</g>
<g id="#b6ad6fff">
<path fill="#b6ad6f" opacity="1.00" d=" M 37.18 48.04 L 38.01 47.87 C 38.95 48.51 39.97 48.75 41.07 48.59 C 40.73 50.03 40.34 51.47 40.01 52.92 C 39.07 51.29 38.13 49.66 37.18 48.04 Z" />
<path fill="#b6ad6f" opacity="1.00" d=" M 93.65 48.49 C 94.05 48.40 94.85 48.21 95.25 48.12 C 95.83 48.23 96.99 48.45 97.57 48.56 C 97.03 50.02 96.47 51.48 95.96 52.96 C 95.21 51.46 94.42 49.97 93.65 48.49 Z" />
<path fill="#b6ad6f" opacity="1.00" d=" M 205.63 48.38 C 206.04 48.27 206.85 48.06 207.26 47.95 C 207.75 47.99 208.75 48.08 209.24 48.13 C 208.82 49.73 208.38 51.33 207.97 52.95 C 207.20 51.42 206.42 49.90 205.63 48.38 Z" />
<path fill="#b6ad6f" opacity="1.00" d=" M 150.62 49.56 C 151.30 49.43 152.64 49.18 153.31 49.05 C 152.82 50.28 152.35 51.52 151.93 52.77 C 151.49 51.70 151.05 50.63 150.62 49.56 Z" />
</g>
<g id="#4b5845ff">
<path fill="#4b5845" opacity="1.00" d=" M 41.21 47.98 C 41.62 48.29 42.44 48.89 42.85 49.20 C 42.84 50.71 43.51 51.51 44.86 51.60 C 45.25 51.61 46.04 51.63 46.43 51.64 C 46.11 51.93 45.47 52.50 45.15 52.79 L 44.63 53.25 L 44.03 53.78 C 43.11 52.81 41.40 52.85 40.61 53.96 L 40.47 53.73 L 40.22 53.31 L 40.01 52.92 C 40.34 51.47 40.73 50.03 41.07 48.59 L 41.21 47.98 Z" />
</g>
<g id="#485247ff">
<path fill="#485247" opacity="1.00" d=" M 97.57 48.56 C 97.63 48.41 97.74 48.11 97.79 47.96 C 98.54 47.88 100.04 47.72 100.79 47.64 C 101.27 48.36 102.24 49.79 102.73 50.51 C 102.51 50.80 102.08 51.38 101.86 51.67 C 101.66 51.96 101.27 52.52 101.07 52.80 L 100.57 53.23 L 100.16 53.58 C 98.98 53.18 97.38 52.84 96.53 54.04 L 96.38 53.78 L 96.15 53.35 L 95.96 52.96 C 96.47 51.48 97.03 50.02 97.57 48.56 M 99.15 49.40 C 98.30 53.38 103.14 48.58 99.15 49.40 Z" />
</g>
<g id="#a0e0a2ff">
<path fill="#a0e0a2" opacity="1.00" d=" M 127.19 49.38 C 130.57 48.80 133.99 49.25 137.39 49.55 C 135.41 50.14 133.46 50.81 131.51 51.47 C 130.07 50.77 128.64 50.05 127.19 49.38 Z" />
<path fill="#a0e0a2" opacity="1.00" d=" M 141.62 49.62 C 144.61 49.45 147.64 49.14 150.62 49.56 C 148.71 49.80 146.79 50.04 144.86 50.15 C 143.78 49.96 142.70 49.78 141.62 49.62 Z" />
</g>
<g id="#505e44ff">
<path fill="#505e44" opacity="1.00" d=" M 153.65 48.34 C 154.36 48.36 155.07 48.36 155.79 48.33 C 156.80 48.89 157.82 49.43 158.85 49.96 C 158.60 50.38 158.08 51.23 157.82 51.65 C 157.65 51.95 157.30 52.54 157.13 52.83 L 156.61 53.26 L 156.15 53.62 C 154.97 53.21 153.36 52.87 152.48 54.05 L 152.33 53.74 L 152.13 53.28 L 151.93 52.77 C 152.35 51.52 152.82 50.28 153.31 49.05 L 153.65 48.34 Z" />
</g>
<g id="#87b05cff">
<path fill="#87b05c" opacity="1.00" d=" M 42.85 49.20 C 44.27 49.48 44.94 50.28 44.86 51.60 C 43.51 51.51 42.84 50.71 42.85 49.20 Z" />
<path fill="#87b05c" opacity="1.00" d=" M 99.15 49.40 C 103.14 48.58 98.30 53.38 99.15 49.40 Z" />
<path fill="#87b05c" opacity="1.00" d=" M 211.15 49.40 C 215.14 48.58 210.30 53.38 211.15 49.40 Z" />
<path fill="#87b05c" opacity="1.00" d=" M 40.47 53.73 L 40.61 53.96 C 41.21 55.47 43.26 54.75 44.03 53.78 L 44.63 53.25 C 44.58 53.94 44.49 55.31 44.44 56.00 L 39.13 56.00 C 39.47 55.43 40.13 54.30 40.47 53.73 Z" />
<path fill="#87b05c" opacity="1.00" d=" M 96.38 53.78 L 96.53 54.04 C 97.22 55.75 99.35 54.55 100.16 53.58 L 100.57 53.23 C 100.54 53.93 100.47 55.31 100.43 56.00 L 95.10 56.00 C 95.42 55.44 96.06 54.33 96.38 53.78 Z" />
<path fill="#87b05c" opacity="1.00" d=" M 152.33 53.74 L 152.48 54.05 C 153.13 55.80 155.31 54.53 156.15 53.62 L 156.61 53.26 C 156.56 53.94 156.47 55.31 156.42 56.00 L 151.09 56.00 C 151.40 55.44 152.02 54.31 152.33 53.74 Z" />
<path fill="#87b05c" opacity="1.00" d=" M 208.39 53.77 L 208.54 54.03 C 209.22 55.76 211.35 54.55 212.17 53.59 L 212.59 53.24 C 212.55 53.93 212.47 55.31 212.43 56.00 L 207.10 56.00 C 207.43 55.44 208.07 54.33 208.39 53.77 Z" />
</g>
<g id="#332e2aff">
<path fill="#332e2a" opacity="1.00" d=" M 65.05 50.07 C 65.63 49.67 66.79 48.87 67.36 48.47 L 67.91 49.03 C 67.20 50.04 66.25 50.39 65.05 50.07 Z" />
<path fill="#332e2a" opacity="1.00" d=" M 177.05 50.08 C 177.63 49.67 178.79 48.87 179.36 48.47 L 179.91 49.03 C 179.20 50.04 178.25 50.39 177.05 50.08 Z" />
<path fill="#332e2a" opacity="1.00" d=" M 63.80 52.31 C 64.95 51.47 65.96 51.51 66.85 52.45 L 66.37 53.11 L 65.34 53.16 C 64.96 52.95 64.19 52.52 63.80 52.31 Z" />
<path fill="#332e2a" opacity="1.00" d=" M 119.59 52.44 C 120.49 51.56 121.49 51.36 122.60 51.83 L 122.25 52.68 L 121.24 53.09 C 120.83 52.93 120.01 52.60 119.59 52.44 Z" />
<path fill="#332e2a" opacity="1.00" d=" M 175.80 52.31 C 176.94 51.47 177.96 51.51 178.85 52.45 L 178.37 53.11 L 177.34 53.16 C 176.96 52.95 176.19 52.53 175.80 52.31 Z" />
</g>
<g id="#4d4d42ff">
<path fill="#4d4d42" opacity="1.00" d=" M 67.91 49.03 C 68.16 49.25 68.65 49.68 68.89 49.90 C 68.19 50.73 67.51 51.58 66.85 52.45 C 65.96 51.51 64.95 51.47 63.80 52.31 L 62.96 52.43 C 63.44 51.65 63.77 50.81 63.94 49.90 L 65.05 50.07 C 66.25 50.39 67.20 50.04 67.91 49.03 Z" />
<path fill="#4d4d42" opacity="1.00" d=" M 179.91 49.03 C 180.16 49.25 180.65 49.69 180.90 49.91 C 180.19 50.73 179.51 51.58 178.85 52.45 C 177.96 51.51 176.94 51.47 175.80 52.31 L 174.96 52.44 C 175.44 51.65 175.76 50.81 175.94 49.90 L 177.05 50.08 C 178.25 50.39 179.20 50.04 179.91 49.03 Z" />
</g>
<g id="#ded88bff">
<path fill="#ded88b" opacity="1.00" d=" M 69.98 48.95 C 71.72 49.26 73.44 49.69 75.18 50.01 C 79.25 55.52 86.51 51.71 92.11 52.52 C 92.05 51.82 91.93 50.41 91.87 49.70 C 91.06 49.71 89.46 49.73 88.65 49.74 C 90.33 49.36 91.98 48.91 93.65 48.49 C 94.42 49.97 95.21 51.46 95.96 52.96 L 96.15 53.35 C 94.49 53.55 93.19 54.68 92.24 55.98 C 89.41 55.95 86.57 55.90 83.74 55.83 C 79.04 55.24 74.53 53.60 70.63 50.92 C 70.32 50.54 69.71 49.76 69.41 49.38 L 69.98 48.95 Z" />
<path fill="#ded88b" opacity="1.00" d=" M 181.98 48.95 C 183.72 49.27 185.44 49.69 187.18 50.01 C 191.24 55.52 198.51 51.71 204.11 52.52 C 204.05 51.82 203.92 50.42 203.86 49.72 C 203.06 49.73 201.46 49.75 200.66 49.76 C 202.33 49.34 203.98 48.85 205.63 48.38 C 206.42 49.90 207.20 51.42 207.97 52.95 L 208.16 53.33 C 206.51 53.55 205.20 54.68 204.25 55.98 C 201.40 55.95 198.57 55.90 195.74 55.83 C 191.03 55.24 186.53 53.60 182.63 50.92 C 182.32 50.54 181.71 49.77 181.41 49.38 L 181.98 48.95 Z" />
</g>
<g id="#3a3530ff">
<path fill="#3a3530" opacity="1.00" d=" M 121.08 50.02 C 121.63 49.63 122.71 48.86 123.26 48.47 L 123.84 48.83 C 123.95 49.15 124.18 49.78 124.30 50.10 C 124.00 50.39 123.41 50.98 123.12 51.28 C 122.61 50.96 121.59 50.34 121.08 50.02 Z" />
</g>
<g id="#afa66cfe">
<path fill="#afa66c" opacity="1.00" d=" M 10.60 52.99 C 11.71 51.76 12.84 50.53 13.93 49.27 C 14.17 49.70 14.64 50.57 14.88 51.00 C 15.65 52.39 16.42 53.77 17.24 55.13 C 15.12 54.16 12.92 53.31 10.60 52.99 Z" />
</g>
<g id="#527a4aff">
<path fill="#527a4a" opacity="1.00" d=" M 57.06 51.72 C 57.56 51.30 58.55 50.46 59.05 50.04 C 59.27 50.61 59.71 51.73 59.92 52.30 C 58.95 52.19 58.00 51.99 57.06 51.72 Z" />
<path fill="#527a4a" opacity="1.00" d=" M 113.14 51.09 C 113.63 50.84 114.60 50.32 115.09 50.06 C 115.32 50.62 115.76 51.75 115.98 52.31 C 114.87 52.26 113.92 51.85 113.14 51.09 Z" />
<path fill="#527a4a" opacity="1.00" d=" M 169.06 51.59 C 169.56 51.20 170.56 50.41 171.06 50.02 C 171.28 50.58 171.71 51.72 171.93 52.28 C 170.94 52.15 169.99 51.92 169.06 51.59 Z" />
</g>
<g id="#332e2afe">
<path fill="#332e2a" opacity="1.00" d=" M 62.36 49.78 C 62.76 49.81 63.55 49.87 63.94 49.90 C 63.77 50.81 63.44 51.65 62.96 52.43 C 61.94 52.57 60.93 52.53 59.92 52.30 C 60.56 51.28 61.37 50.44 62.36 49.78 Z" />
<path fill="#332e2a" opacity="1.00" d=" M 118.50 49.75 C 118.88 49.79 119.64 49.86 120.01 49.90 C 119.81 50.83 119.44 51.70 118.92 52.50 C 117.93 52.60 116.95 52.53 115.98 52.31 C 116.63 51.26 117.47 50.41 118.50 49.75 Z" />
<path fill="#332e2a" opacity="1.00" d=" M 174.37 49.78 C 174.76 49.81 175.55 49.87 175.94 49.90 C 175.76 50.81 175.44 51.65 174.96 52.44 C 173.94 52.59 172.93 52.54 171.93 52.28 C 172.57 51.28 173.38 50.44 174.37 49.78 Z" />
</g>
<g id="#afa66cff">
<path fill="#afa66c" opacity="1.00" d=" M 68.89 49.90 L 69.41 49.38 C 69.71 49.76 70.32 50.54 70.63 50.92 C 71.60 52.27 72.50 53.67 73.47 55.03 C 71.21 54.04 68.84 53.24 66.37 53.11 L 66.85 52.45 C 67.51 51.58 68.19 50.73 68.89 49.90 Z" />
<path fill="#afa66c" opacity="1.00" d=" M 124.30 50.10 C 124.74 49.95 125.64 49.67 126.08 49.52 L 126.72 50.54 C 127.63 52.06 128.48 53.62 129.39 55.14 C 127.12 54.04 124.75 53.11 122.25 52.68 L 122.60 51.83 L 123.12 51.28 C 123.41 50.98 124.00 50.39 124.30 50.10 Z" />
<path fill="#afa66c" opacity="1.00" d=" M 180.90 49.91 L 181.41 49.38 C 181.71 49.77 182.32 50.54 182.63 50.92 C 183.60 52.27 184.50 53.67 185.47 55.03 C 183.21 54.04 180.84 53.24 178.37 53.11 L 178.85 52.45 C 179.51 51.58 180.19 50.73 180.90 49.91 Z" />
</g>
<g id="#edf1acff">
<path fill="#edf1ac" opacity="1.00" d=" M 75.18 50.01 C 79.67 50.07 84.16 49.87 88.65 49.74 C 89.46 49.73 91.06 49.71 91.87 49.70 C 91.93 50.41 92.05 51.82 92.11 52.52 C 86.51 51.71 79.25 55.52 75.18 50.01 Z" />
<path fill="#edf1ac" opacity="1.00" d=" M 187.18 50.01 C 191.67 50.08 196.16 49.90 200.66 49.76 C 201.46 49.75 203.06 49.73 203.86 49.72 C 203.92 50.42 204.05 51.82 204.11 52.52 C 198.51 51.71 191.24 55.52 187.18 50.01 Z" />
</g>
<g id="#34322cff">
<path fill="#34322c" opacity="1.00" d=" M 102.73 50.51 C 106.21 50.48 109.66 50.87 113.14 51.09 C 111.53 51.50 109.92 51.90 108.30 52.27 L 107.26 52.51 C 106.59 52.30 105.25 51.87 104.58 51.66 C 103.67 51.66 102.77 51.67 101.86 51.67 C 102.08 51.38 102.51 50.80 102.73 50.51 Z" />
<path fill="#34322c" opacity="1.00" d=" M 158.85 49.96 C 162.24 50.59 165.64 51.06 169.06 51.59 C 167.47 51.73 165.88 51.94 164.30 52.14 L 163.24 52.28 C 162.57 52.11 161.22 51.78 160.55 51.61 C 159.64 51.63 158.73 51.64 157.82 51.65 C 158.08 51.23 158.60 50.38 158.85 49.96 Z" />
<path fill="#34322c" opacity="1.00" d=" M 214.69 50.42 C 217.80 50.39 220.88 50.69 224.00 50.86 L 224.00 51.96 C 222.77 52.06 221.54 52.16 220.31 52.26 L 219.24 52.35 C 218.56 52.17 217.22 51.80 216.54 51.62 C 215.63 51.64 214.73 51.67 213.82 51.69 C 214.04 51.37 214.47 50.74 214.69 50.42 Z" />
</g>
<g id="#4f5044ff">
<path fill="#4f5044" opacity="1.00" d=" M 120.01 49.90 L 121.08 50.02 C 121.59 50.34 122.61 50.96 123.12 51.28 L 122.60 51.83 C 121.49 51.36 120.49 51.56 119.59 52.44 L 118.92 52.50 C 119.44 51.70 119.81 50.83 120.01 49.90 Z" />
</g>
<g id="#ded88aff">
<path fill="#ded88a" opacity="1.00" d=" M 126.08 49.52 L 127.19 49.38 C 128.64 50.05 130.07 50.77 131.51 51.47 C 136.77 54.50 142.97 52.88 148.62 52.31 C 147.38 51.57 146.13 50.83 144.86 50.15 C 146.79 50.04 148.71 49.80 150.62 49.56 C 151.05 50.63 151.49 51.70 151.93 52.77 L 152.13 53.28 C 150.48 53.53 149.20 54.68 148.25 55.98 C 145.41 55.95 142.57 55.91 139.74 55.84 C 134.95 55.43 130.40 53.61 126.72 50.54 L 126.08 49.52 Z" />
</g>
<g id="#cbc685ff">
<path fill="#cbc685" opacity="1.00" d=" M 14.88 51.00 C 18.60 53.82 23.14 55.28 27.75 55.84 L 28.73 56.00 L 19.07 56.00 C 18.61 55.78 17.70 55.35 17.24 55.13 C 16.42 53.77 15.65 52.39 14.88 51.00 Z" />
</g>
<g id="#85ae5cff">
<path fill="#85ae5c" opacity="1.00" d=" M 46.43 51.64 C 47.13 51.62 47.83 51.61 48.54 51.59 C 47.93 53.44 50.50 53.44 51.23 52.26 L 52.30 52.15 C 51.73 53.44 51.15 54.73 50.52 56.00 L 45.79 56.00 C 46.01 54.86 45.80 53.79 45.15 52.79 C 45.47 52.50 46.11 51.93 46.43 51.64 Z" />
<path fill="#85ae5c" opacity="1.00" d=" M 101.86 51.67 C 102.77 51.67 103.67 51.66 104.58 51.66 C 103.92 53.46 106.42 53.54 107.26 52.51 L 108.30 52.27 C 107.72 53.53 107.13 54.77 106.49 56.00 L 101.79 56.00 C 101.99 54.85 101.75 53.79 101.07 52.80 C 101.27 52.52 101.66 51.96 101.86 51.67 Z" />
<path fill="#85ae5c" opacity="1.00" d=" M 157.82 51.65 C 158.73 51.64 159.64 51.63 160.55 51.61 C 159.93 53.46 162.50 53.46 163.24 52.28 L 164.30 52.14 C 163.73 53.44 163.15 54.73 162.51 56.00 L 157.78 56.00 C 157.99 54.88 157.78 53.82 157.13 52.83 C 157.30 52.54 157.65 51.95 157.82 51.65 Z" />
<path fill="#85ae5c" opacity="1.00" d=" M 213.82 51.69 C 214.73 51.67 215.63 51.64 216.54 51.62 C 215.92 53.45 218.46 53.46 219.24 52.35 L 220.31 52.26 C 219.73 53.52 219.15 54.77 218.53 56.00 L 213.79 56.00 C 213.99 54.86 213.76 53.80 213.09 52.81 C 213.27 52.53 213.64 51.97 213.82 51.69 Z" />
</g>
<g id="#75a15dff">
<path fill="#75a15d" opacity="1.00" d=" M 57.06 51.72 C 58.00 51.99 58.95 52.19 59.92 52.30 C 60.93 52.53 61.94 52.57 62.96 52.43 L 63.80 52.31 C 64.19 52.52 64.96 52.95 65.34 53.16 C 67.20 54.14 69.07 55.10 70.97 56.00 L 50.52 56.00 C 51.15 54.73 51.73 53.44 52.30 52.15 C 53.89 51.98 55.47 51.81 57.06 51.72 Z" />
<path fill="#75a15d" opacity="1.00" d=" M 113.14 51.09 C 113.92 51.85 114.87 52.26 115.98 52.31 C 116.95 52.53 117.93 52.60 118.92 52.50 L 119.59 52.44 C 120.01 52.60 120.83 52.93 121.24 53.09 C 123.19 54.03 125.09 55.06 127.04 56.00 L 106.49 56.00 C 107.13 54.77 107.72 53.53 108.30 52.27 C 109.92 51.90 111.53 51.50 113.14 51.09 Z" />
<path fill="#75a15d" opacity="1.00" d=" M 169.06 51.59 C 169.99 51.92 170.94 52.15 171.93 52.28 C 172.93 52.54 173.94 52.59 174.96 52.44 L 175.80 52.31 C 176.19 52.53 176.96 52.95 177.34 53.16 C 179.20 54.14 181.06 55.10 182.97 56.00 L 162.51 56.00 C 163.15 54.73 163.73 53.44 164.30 52.14 C 165.88 51.94 167.47 51.73 169.06 51.59 Z" />
</g>
<g id="#cdc887ff">
<path fill="#cdc887" opacity="1.00" d=" M 70.63 50.92 C 74.53 53.60 79.04 55.24 83.74 55.83 L 84.73 56.00 L 75.27 56.00 C 74.82 55.76 73.92 55.27 73.47 55.03 C 72.50 53.67 71.60 52.27 70.63 50.92 Z" />
<path fill="#cdc887" opacity="1.00" d=" M 126.72 50.54 C 130.40 53.61 134.95 55.43 139.74 55.84 L 140.73 56.00 L 131.15 56.00 C 130.71 55.78 129.83 55.35 129.39 55.14 C 128.48 53.62 127.63 52.06 126.72 50.54 Z" />
<path fill="#cdc887" opacity="1.00" d=" M 182.63 50.92 C 186.53 53.60 191.03 55.24 195.74 55.83 L 196.73 56.00 L 187.27 56.00 C 186.82 55.76 185.92 55.27 185.47 55.03 C 184.50 53.67 183.60 52.27 182.63 50.92 Z" />
</g>
<g id="#77a35eff">
<path fill="#77a35e" opacity="1.00" d=" M 0.00 52.03 C 3.20 52.25 6.39 52.49 9.57 52.86 C 11.41 53.86 13.19 54.97 15.01 56.00 L 0.00 56.00 L 0.00 52.03 Z" />
</g>
<g id="#476e47ff">
<path fill="#476e47" opacity="1.00" d=" M 10.60 52.99 C 12.92 53.31 15.12 54.16 17.24 55.13 C 17.70 55.35 18.61 55.78 19.07 56.00 L 15.01 56.00 C 13.19 54.97 11.41 53.86 9.57 52.86 L 10.60 52.99 Z" />
<path fill="#476e47" opacity="1.00" d=" M 66.37 53.11 C 68.84 53.24 71.21 54.04 73.47 55.03 C 73.92 55.27 74.82 55.76 75.27 56.00 L 70.97 56.00 C 69.07 55.10 67.20 54.14 65.34 53.16 L 66.37 53.11 Z" />
<path fill="#476e47" opacity="1.00" d=" M 122.25 52.68 C 124.75 53.11 127.12 54.04 129.39 55.14 C 129.83 55.35 130.71 55.78 131.15 56.00 L 127.04 56.00 C 125.09 55.06 123.19 54.03 121.24 53.09 L 122.25 52.68 Z" />
<path fill="#476e47" opacity="1.00" d=" M 178.37 53.11 C 180.84 53.24 183.21 54.04 185.47 55.03 C 185.92 55.27 186.82 55.76 187.27 56.00 L 182.97 56.00 C 181.06 55.10 179.20 54.14 177.34 53.16 L 178.37 53.11 Z" />
</g>
<g id="#4b7650ff">
<path fill="#4b7650" opacity="1.00" d=" M 48.54 51.59 C 49.21 51.76 50.56 52.09 51.23 52.26 C 50.50 53.44 47.93 53.44 48.54 51.59 Z" />
<path fill="#4b7650" opacity="1.00" d=" M 104.58 51.66 C 105.25 51.87 106.59 52.30 107.26 52.51 C 106.42 53.54 103.92 53.46 104.58 51.66 Z" />
<path fill="#4b7650" opacity="1.00" d=" M 160.55 51.61 C 161.22 51.78 162.57 52.11 163.24 52.28 C 162.50 53.46 159.93 53.46 160.55 51.61 Z" />
<path fill="#4b7650" opacity="1.00" d=" M 216.54 51.62 C 217.22 51.80 218.56 52.17 219.24 52.35 C 218.46 53.46 215.92 53.45 216.54 51.62 Z" />
</g>
<g id="#6f9c5cff">
<path fill="#6f9c5c" opacity="1.00" d=" M 220.31 52.26 C 221.54 52.16 222.77 52.06 224.00 51.96 L 224.00 56.00 L 218.53 56.00 C 219.15 54.77 219.73 53.52 220.31 52.26 Z" />
</g>
<g id="#5f9368ff">
<path fill="#5f9368" opacity="1.00" d=" M 36.26 55.98 C 37.25 54.69 38.57 53.58 40.22 53.31 L 40.47 53.73 C 40.13 54.30 39.47 55.43 39.13 56.00 L 36.65 56.00 L 36.26 55.98 Z" />
<path fill="#5f9368" opacity="1.00" d=" M 40.61 53.96 C 41.40 52.85 43.11 52.81 44.03 53.78 C 43.26 54.75 41.21 55.47 40.61 53.96 Z" />
<path fill="#5f9368" opacity="1.00" d=" M 45.15 52.79 C 45.80 53.79 46.01 54.86 45.79 56.00 L 44.44 56.00 C 44.49 55.31 44.58 53.94 44.63 53.25 L 45.15 52.79 Z" />
<path fill="#5f9368" opacity="1.00" d=" M 92.24 55.98 C 93.19 54.68 94.49 53.55 96.15 53.35 L 96.38 53.78 C 96.06 54.33 95.42 55.44 95.10 56.00 L 92.64 56.00 L 92.24 55.98 Z" />
<path fill="#5f9368" opacity="1.00" d=" M 96.53 54.04 C 97.38 52.84 98.98 53.18 100.16 53.58 C 99.35 54.55 97.22 55.75 96.53 54.04 Z" />
<path fill="#5f9368" opacity="1.00" d=" M 101.07 52.80 C 101.75 53.79 101.99 54.85 101.79 56.00 L 100.43 56.00 C 100.47 55.31 100.54 53.93 100.57 53.23 L 101.07 52.80 Z" />
<path fill="#5f9368" opacity="1.00" d=" M 148.25 55.98 C 149.20 54.68 150.48 53.53 152.13 53.28 L 152.33 53.74 C 152.02 54.31 151.40 55.44 151.09 56.00 L 148.64 56.00 L 148.25 55.98 Z" />
<path fill="#5f9368" opacity="1.00" d=" M 152.48 54.05 C 153.36 52.87 154.97 53.21 156.15 53.62 C 155.31 54.53 153.13 55.80 152.48 54.05 Z" />
<path fill="#5f9368" opacity="1.00" d=" M 157.13 52.83 C 157.78 53.82 157.99 54.88 157.78 56.00 L 156.42 56.00 C 156.47 55.31 156.56 53.94 156.61 53.26 L 157.13 52.83 Z" />
<path fill="#5f9368" opacity="1.00" d=" M 204.25 55.98 C 205.20 54.68 206.51 53.55 208.16 53.33 L 208.39 53.77 C 208.07 54.33 207.43 55.44 207.10 56.00 L 204.64 56.00 L 204.25 55.98 Z" />
<path fill="#5f9368" opacity="1.00" d=" M 208.54 54.03 C 209.39 52.84 211.00 53.18 212.17 53.59 C 211.35 54.55 209.22 55.76 208.54 54.03 Z" />
<path fill="#5f9368" opacity="1.00" d=" M 213.09 52.81 C 213.76 53.80 213.99 54.86 213.79 56.00 L 212.43 56.00 C 212.47 55.31 212.55 53.93 212.59 53.24 L 213.09 52.81 Z" />
</g>
<g id="#aaad6aff">
<path fill="#aaad6a" opacity="1.00" d=" M 27.75 55.84 C 30.58 55.90 33.42 55.95 36.26 55.98 L 36.65 56.00 L 28.73 56.00 L 27.75 55.84 Z" />
<path fill="#aaad6a" opacity="1.00" d=" M 83.74 55.83 C 86.57 55.90 89.41 55.95 92.24 55.98 L 92.64 56.00 L 84.73 56.00 L 83.74 55.83 Z" />
<path fill="#aaad6a" opacity="1.00" d=" M 139.74 55.84 C 142.57 55.91 145.41 55.95 148.25 55.98 L 148.64 56.00 L 140.73 56.00 L 139.74 55.84 Z" />
<path fill="#aaad6a" opacity="1.00" d=" M 195.74 55.83 C 198.57 55.90 201.40 55.95 204.25 55.98 L 204.64 56.00 L 196.73 56.00 L 195.74 55.83 Z" />
</g>
</svg>
