<?xml version="1.0" encoding="UTF-8" ?>
<!DOCTYPE svg PUBLIC "-//W3C//DTD SVG 1.1//EN" "http://www.w3.org/Graphics/SVG/1.1/DTD/svg11.dtd">
<svg width="224pt" height="56pt" viewBox="0 0 224 56" version="1.1" xmlns="http://www.w3.org/2000/svg">
<g id="#91bc69ff">
<path fill="#91bc69" opacity="1.00" d=" M 0.00 0.00 L 0.80 0.00 C 1.72 1.21 1.45 2.12 0.00 2.73 L 0.00 0.00 Z" />
<path fill="#91bc69" opacity="1.00" d=" M 0.00 28.17 C 1.88 28.17 1.88 30.86 0.00 30.86 L 0.00 28.17 Z" />
</g>
<g id="#699659ff">
<path fill="#699659" opacity="1.00" d=" M 0.80 0.00 L 3.39 0.00 C 4.23 3.37 5.35 6.66 6.60 9.90 C 6.64 10.10 6.72 10.48 6.75 10.68 C 6.43 14.31 5.78 17.90 5.64 21.55 C 4.03 17.82 1.22 14.04 2.30 9.78 C 2.81 7.63 2.50 5.44 1.84 3.36 C 1.38 4.11 0.46 5.61 0.00 6.36 L 0.00 2.73 C 1.45 2.12 1.72 1.21 0.80 0.00 Z" />
</g>
<g id="#84ae5cff">
<path fill="#84ae5c" opacity="1.00" d=" M 3.39 0.00 L 4.47 0.00 C 5.33 1.35 6.13 2.75 6.93 4.15 C 8.54 3.35 10.11 2.49 11.77 1.81 C 10.40 1.96 9.02 2.10 7.64 2.25 C 7.20 1.69 6.33 0.56 5.89 0.00 L 23.71 0.00 C 23.39 1.70 23.17 3.42 22.98 5.15 C 22.61 4.93 21.87 4.48 21.50 4.26 C 16.35 0.16 8.75 3.56 6.80 9.30 L 6.60 9.90 C 5.35 6.66 4.23 3.37 3.39 0.00 Z" />
<path fill="#84ae5c" opacity="1.00" d=" M 59.40 0.00 L 60.47 0.00 C 61.33 1.36 62.12 2.75 62.93 4.14 C 64.54 3.35 66.11 2.49 67.77 1.81 C 66.39 1.96 65.02 2.10 63.64 2.25 C 63.20 1.69 62.33 0.56 61.89 0.00 L 79.71 0.00 C 79.39 1.70 79.17 3.42 78.98 5.15 C 78.61 4.93 77.87 4.48 77.50 4.26 C 72.35 0.17 64.75 3.56 62.80 9.30 L 62.60 9.90 C 61.35 6.66 60.21 3.38 59.40 0.00 Z" />
<path fill="#84ae5c" opacity="1.00" d=" M 115.40 0.00 L 116.47 0.00 C 117.33 1.36 118.12 2.75 118.93 4.14 C 120.54 3.35 122.11 2.49 123.77 1.81 C 122.39 1.96 121.02 2.10 119.64 2.25 C 119.20 1.69 118.33 0.56 117.89 0.00 L 135.71 0.00 C 135.39 1.70 135.17 3.42 134.98 5.15 C 134.61 4.92 133.87 4.48 133.50 4.26 C 128.33 0.15 120.65 3.60 118.78 9.41 L 118.57 9.96 C 117.38 6.68 116.21 3.39 115.40 0.00 Z" />
<path fill="#84ae5c" opacity="1.00" d=" M 171.40 0.00 L 172.47 0.00 C 173.33 1.36 174.12 2.75 174.93 4.14 C 176.54 3.35 178.11 2.49 179.77 1.81 C 178.39 1.96 177.02 2.10 175.64 2.25 C 175.20 1.69 174.33 0.56 173.89 0.00 L 191.70 0.00 C 191.38 1.70 191.17 3.42 190.98 5.15 C 190.61 4.93 189.87 4.48 189.50 4.26 C 184.35 0.17 176.75 3.56 174.80 9.30 L 174.60 9.90 C 173.35 6.66 172.21 3.38 171.40 0.00 Z" />
</g>
<g id="#6f9a52ff">
<path fill="#6f9a52" opacity="1.00" d=" M 4.47 0.00 L 5.89 0.00 C 6.33 0.56 7.20 1.69 7.64 2.25 C 9.02 2.10 10.40 1.96 11.77 1.81 C 10.11 2.49 8.54 3.35 6.93 4.15 C 6.13 2.75 5.33 1.35 4.47 0.00 Z" />
<path fill="#6f9a52" opacity="1.00" d=" M 60.47 0.00 L 61.89 0.00 C 62.33 0.56 63.20 1.69 63.64 2.25 C 65.02 2.10 66.39 1.96 67.77 1.81 C 66.11 2.49 64.54 3.35 62.93 4.14 C 62.12 2.75 61.33 1.36 60.47 0.00 Z" />
<path fill="#6f9a52" opacity="1.00" d=" M 116.47 0.00 L 117.89 0.00 C 118.33 0.56 119.20 1.69 119.64 2.25 C 121.02 2.10 122.39 1.96 123.77 1.81 C 122.11 2.49 120.54 3.35 118.93 4.14 C 118.12 2.75 117.33 1.36 116.47 0.00 Z" />
<path fill="#6f9a52" opacity="1.00" d=" M 172.47 0.00 L 173.89 0.00 C 174.33 0.56 175.20 1.69 175.64 2.25 C 177.02 2.10 178.39 1.96 179.77 1.81 C 178.11 2.49 176.54 3.35 174.93 4.14 C 174.12 2.75 173.33 1.36 172.47 0.00 Z" />
</g>
<g id="#6e9a5bff">
<path fill="#6e9a5b" opacity="1.00" d=" M 23.71 0.00 L 56.24 0.00 C 55.36 0.58 54.55 2.75 56.21 2.80 C 57.22 2.13 57.45 1.20 56.88 -0.00 L 59.40 0.00 C 60.21 3.38 61.35 6.66 62.60 9.90 C 62.64 10.09 62.72 10.48 62.76 10.67 C 62.45 14.31 61.77 17.91 61.61 21.56 C 60.38 18.74 58.74 16.05 58.11 13.02 C 58.00 9.95 59.03 6.87 58.18 3.81 C 57.78 4.19 56.98 4.94 56.58 5.31 C 55.72 4.84 54.84 4.40 53.96 3.98 C 51.14 2.33 47.82 2.66 44.74 3.11 L 43.78 3.23 C 43.40 1.95 42.52 1.46 41.13 1.77 C 39.09 1.89 37.04 1.94 34.99 1.81 C 33.73 1.58 32.74 2.02 32.02 3.13 C 29.04 4.45 25.96 5.54 22.82 6.42 L 22.98 5.15 C 23.17 3.42 23.39 1.70 23.71 0.00 Z" />
<path fill="#6e9a5b" opacity="1.00" d=" M 79.71 0.00 L 112.24 0.00 C 111.36 0.58 110.55 2.75 112.21 2.80 C 113.22 2.13 113.45 1.20 112.88 0.00 L 115.40 0.00 C 116.21 3.39 117.38 6.68 118.57 9.96 C 118.57 10.18 118.58 10.61 118.59 10.82 C 118.46 14.43 117.83 18.00 117.66 21.60 C 116.40 18.78 114.72 16.08 114.11 13.02 C 114.01 9.94 115.02 6.87 114.18 3.81 C 113.78 4.19 112.99 4.94 112.60 5.31 C 111.73 4.84 110.85 4.40 109.96 3.98 C 107.14 2.33 103.82 2.66 100.74 3.11 L 99.78 3.23 C 99.40 1.95 98.52 1.46 97.13 1.77 C 95.09 1.89 93.04 1.94 90.99 1.81 C 89.73 1.58 88.73 2.02 88.02 3.13 C 85.04 4.45 81.96 5.54 78.82 6.42 L 78.98 5.15 C 79.17 3.42 79.39 1.70 79.71 0.00 Z" />
<path fill="#6e9a5b" opacity="1.00" d=" M 135.71 0.00 L 168.24 0.00 C 167.36 0.58 166.55 2.75 168.21 2.80 C 169.22 2.13 169.44 1.20 168.88 0.00 L 171.40 0.00 C 172.21 3.38 173.35 6.66 174.60 9.90 C 174.64 10.09 174.73 10.48 174.77 10.67 C 174.42 14.30 173.78 17.91 173.65 21.56 C 172.40 18.75 170.72 16.06 170.11 13.02 C 170.01 9.95 171.02 6.87 170.18 3.81 C 169.78 4.19 169.00 4.94 168.60 5.31 C 167.73 4.84 166.85 4.40 165.96 3.98 C 163.14 2.33 159.82 2.66 156.74 3.11 L 155.78 3.23 C 155.40 1.95 154.52 1.46 153.13 1.77 C 151.08 1.89 149.04 1.94 146.99 1.81 C 145.72 1.58 144.73 2.02 144.02 3.13 C 141.04 4.45 137.96 5.55 134.82 6.41 L 134.98 5.15 C 135.17 3.42 135.39 1.70 135.71 0.00 Z" />
</g>
<g id="#8fb966ff">
<path fill="#8fb966" opacity="1.00" d=" M 56.24 0.00 L 56.88 0.00 C 57.45 1.20 57.22 2.13 56.21 2.80 C 54.55 2.75 55.36 0.58 56.24 0.00 Z" />
<path fill="#8fb966" opacity="1.00" d=" M 112.24 0.00 L 112.88 0.00 C 113.45 1.20 113.22 2.13 112.21 2.80 C 110.55 2.75 111.36 0.58 112.24 0.00 Z" />
<path fill="#8fb966" opacity="1.00" d=" M 168.24 0.00 L 168.88 0.00 C 169.44 1.20 169.22 2.13 168.21 2.80 C 166.55 2.75 167.36 0.58 168.24 0.00 Z" />
</g>
<g id="#729e5cff">
<path fill="#729e5c" opacity="1.00" d=" M 191.70 0.00 L 224.00 0.00 L 224.00 3.97 C 223.56 3.88 222.69 3.69 222.26 3.60 C 219.13 2.87 215.91 2.76 212.73 3.16 L 211.77 3.24 C 211.41 1.94 210.52 1.45 209.13 1.76 C 207.08 1.88 205.04 1.94 202.99 1.81 C 201.72 1.58 200.73 2.02 200.02 3.13 C 197.04 4.45 193.96 5.54 190.82 6.42 L 190.98 5.15 C 191.17 3.42 191.38 1.70 191.70 0.00 Z" />
</g>
<g id="#6b9a5fff">
<path fill="#6b9a5f" opacity="1.00" d=" M 6.80 9.30 C 8.75 3.56 16.35 0.16 21.50 4.26 C 19.54 4.33 17.59 4.56 15.63 4.57 C 15.40 4.53 14.94 4.44 14.72 4.39 C 14.48 5.88 14.25 7.36 14.00 8.84 C 11.60 8.96 9.20 9.17 6.80 9.30 Z" />
<path fill="#6b9a5f" opacity="1.00" d=" M 62.80 9.30 C 64.75 3.56 72.35 0.17 77.50 4.26 C 75.54 4.33 73.59 4.56 71.63 4.57 C 71.40 4.53 70.94 4.44 70.72 4.39 C 70.48 5.88 70.25 7.36 70.00 8.84 C 67.60 8.96 65.20 9.17 62.80 9.30 Z" />
<path fill="#6b9a5f" opacity="1.00" d=" M 118.78 9.41 C 120.65 3.60 128.33 0.15 133.50 4.26 C 131.54 4.33 129.59 4.56 127.63 4.58 C 127.50 4.56 127.25 4.51 127.12 4.49 C 126.63 5.81 126.22 7.17 125.54 8.40 C 123.41 9.29 121.04 9.26 118.78 9.41 Z" />
<path fill="#6b9a5f" opacity="1.00" d=" M 174.80 9.30 C 176.75 3.56 184.35 0.17 189.50 4.26 C 187.54 4.33 185.59 4.56 183.63 4.57 C 183.40 4.53 182.94 4.44 182.72 4.39 C 182.48 5.88 182.25 7.36 182.00 8.84 C 179.60 8.96 177.20 9.17 174.80 9.30 Z" />
</g>
<g id="#565249ff">
<path fill="#565249" opacity="1.00" d=" M 32.02 3.13 C 32.74 2.02 33.73 1.58 34.99 1.81 C 34.54 3.20 33.54 3.65 32.02 3.13 Z" />
<path fill="#565249" opacity="1.00" d=" M 41.13 1.77 C 42.52 1.46 43.40 1.95 43.78 3.23 C 42.38 3.60 41.49 3.11 41.13 1.77 Z" />
<path fill="#565249" opacity="1.00" d=" M 44.74 3.11 C 47.82 2.66 51.14 2.33 53.96 3.98 C 50.91 3.50 47.81 3.31 44.74 3.11 Z" />
<path fill="#565249" opacity="1.00" d=" M 88.02 3.13 C 88.73 2.02 89.73 1.58 90.99 1.81 C 90.53 3.20 89.54 3.65 88.02 3.13 Z" />
<path fill="#565249" opacity="1.00" d=" M 97.13 1.77 C 98.52 1.46 99.40 1.95 99.78 3.23 C 98.37 3.60 97.49 3.11 97.13 1.77 Z" />
<path fill="#565249" opacity="1.00" d=" M 100.74 3.11 C 103.82 2.66 107.14 2.33 109.96 3.98 C 106.91 3.50 103.81 3.31 100.74 3.11 Z" />
<path fill="#565249" opacity="1.00" d=" M 144.02 3.13 C 144.73 2.02 145.72 1.58 146.99 1.81 C 146.53 3.20 145.54 3.65 144.02 3.13 Z" />
<path fill="#565249" opacity="1.00" d=" M 153.13 1.77 C 154.52 1.46 155.40 1.95 155.78 3.23 C 154.37 3.60 153.49 3.11 153.13 1.77 Z" />
<path fill="#565249" opacity="1.00" d=" M 156.74 3.11 C 159.82 2.66 163.14 2.33 165.96 3.98 C 162.91 3.50 159.81 3.31 156.74 3.11 Z" />
<path fill="#565249" opacity="1.00" d=" M 200.02 3.13 C 200.73 2.02 201.72 1.58 202.99 1.81 C 202.53 3.21 201.54 3.65 200.02 3.13 Z" />
<path fill="#565249" opacity="1.00" d=" M 209.13 1.76 C 210.52 1.45 211.41 1.94 211.77 3.24 C 210.37 3.58 209.49 3.09 209.13 1.76 Z" />
<path fill="#565249" opacity="1.00" d=" M 212.73 3.16 C 215.91 2.76 219.13 2.87 222.26 3.60 C 219.09 3.35 215.89 3.26 212.73 3.16 Z" />
<path fill="#565249" opacity="1.00" d=" M 31.80 10.33 C 32.42 8.08 33.05 5.83 33.60 3.56 C 33.65 5.19 33.74 6.82 33.78 8.45 C 33.28 8.92 32.29 9.86 31.80 10.33 Z" />
<path fill="#565249" opacity="1.00" d=" M 87.84 10.34 C 88.46 8.09 89.07 5.84 89.59 3.56 C 89.66 5.20 89.74 6.84 89.78 8.47 C 89.30 8.94 88.32 9.88 87.84 10.34 Z" />
<path fill="#565249" opacity="1.00" d=" M 143.52 10.19 C 144.15 7.96 144.89 5.76 145.61 3.56 C 145.67 5.19 145.74 6.82 145.78 8.45 C 145.21 8.89 144.08 9.76 143.52 10.19 Z" />
<path fill="#565249" opacity="1.00" d=" M 199.84 10.34 C 200.46 8.09 201.07 5.84 201.59 3.56 C 201.66 5.20 201.73 6.84 201.78 8.47 C 201.30 8.94 200.32 9.88 199.84 10.34 Z" />
<path fill="#565249" opacity="1.00" d=" M 49.05 5.90 C 50.40 5.71 51.76 5.59 53.13 5.64 C 52.70 6.71 52.26 7.78 51.80 8.84 C 51.10 8.90 49.69 9.00 48.99 9.05 C 49.00 8.26 49.03 6.69 49.05 5.90 Z" />
<path fill="#565249" opacity="1.00" d=" M 105.05 5.90 C 106.40 5.71 107.76 5.59 109.13 5.64 C 108.70 6.71 108.26 7.78 107.80 8.84 C 107.10 8.90 105.69 9.00 104.99 9.05 C 105.00 8.26 105.03 6.69 105.05 5.90 Z" />
<path fill="#565249" opacity="1.00" d=" M 161.16 6.20 C 162.22 5.74 163.28 5.30 164.36 4.87 C 164.41 6.24 164.28 7.60 164.10 8.95 C 163.31 8.97 161.74 9.00 160.95 9.01 C 161.00 8.31 161.10 6.90 161.16 6.20 Z" />
<path fill="#565249" opacity="1.00" d=" M 217.16 6.20 C 218.21 5.74 219.28 5.30 220.36 4.87 C 220.41 6.24 220.28 7.60 220.10 8.95 C 219.31 8.97 217.74 9.00 216.95 9.01 C 217.00 8.31 217.10 6.90 217.16 6.20 Z" />
<path fill="#565249" opacity="1.00" d=" M 26.15 20.01 C 25.11 18.40 26.22 16.64 27.14 15.29 C 27.30 16.82 27.65 18.51 26.81 19.92 L 26.15 20.01 Z" />
<path fill="#565249" opacity="1.00" d=" M 103.65 15.52 L 104.55 15.58 C 104.84 15.98 105.44 16.76 105.74 17.15 C 105.16 17.13 104.02 17.08 103.45 17.06 C 103.50 16.67 103.60 15.91 103.65 15.52 Z" />
<path fill="#565249" opacity="1.00" d=" M 215.65 15.52 L 216.55 15.59 C 216.84 15.98 217.43 16.77 217.73 17.17 C 217.16 17.14 216.02 17.09 215.45 17.06 C 215.50 16.68 215.60 15.91 215.65 15.52 Z" />
<path fill="#565249" opacity="1.00" d=" M 8.08 32.25 C 9.22 30.36 10.79 28.80 12.57 27.51 L 12.89 28.83 C 12.49 30.02 12.26 31.24 12.19 32.48 C 10.82 32.40 9.45 32.32 8.08 32.25 Z" />
</g>
<g id="#332f2bff">
<path fill="#332f2b" opacity="1.00" d=" M 34.99 1.81 C 37.04 1.94 39.09 1.89 41.13 1.77 C 41.49 3.11 42.38 3.60 43.78 3.23 L 44.74 3.11 C 47.81 3.31 50.91 3.50 53.96 3.98 C 54.84 4.40 55.72 4.84 56.58 5.31 C 56.35 9.58 56.17 13.86 56.04 18.14 C 54.84 16.61 52.40 16.93 51.77 18.81 C 51.28 18.62 50.30 18.25 49.81 18.07 C 49.48 17.52 48.82 16.41 48.49 15.86 C 49.85 15.45 51.02 14.63 52.19 13.87 C 52.77 13.51 53.91 12.81 54.48 12.45 C 54.19 11.85 53.92 11.24 53.65 10.62 C 52.12 10.48 50.59 10.29 49.06 10.14 C 47.42 8.55 45.86 6.89 44.17 5.35 C 44.73 7.47 45.46 9.55 46.25 11.60 C 45.26 12.21 44.29 12.82 43.31 13.45 C 44.96 14.78 46.55 16.16 48.20 17.48 C 47.49 17.45 46.07 17.39 45.36 17.36 C 45.02 17.37 44.32 17.40 43.97 17.41 C 42.57 17.43 41.91 18.10 42.00 19.44 L 41.63 18.67 C 41.39 16.58 41.37 14.48 41.37 12.38 C 41.35 12.06 41.31 11.40 41.29 11.08 C 41.02 9.41 40.92 6.95 38.84 6.55 C 36.85 5.68 35.18 7.28 33.78 8.45 C 33.74 6.82 33.65 5.19 33.60 3.56 C 33.05 5.83 32.42 8.08 31.80 10.33 C 31.69 10.76 31.48 11.62 31.37 12.05 C 30.98 13.80 30.59 15.55 30.09 17.26 C 29.57 17.95 29.04 18.62 28.48 19.28 L 27.81 19.74 L 26.81 19.92 C 27.65 18.51 27.30 16.82 27.14 15.29 C 27.30 14.76 27.62 13.70 27.77 13.17 C 28.21 11.70 28.61 10.23 29.08 8.77 C 29.22 8.41 29.51 7.69 29.65 7.33 C 26.96 8.37 24.10 9.24 21.21 8.47 C 18.14 7.67 15.44 9.61 13.27 11.52 C 15.34 11.56 17.41 11.57 19.48 11.62 C 18.33 12.21 16.02 13.39 14.86 13.98 C 14.46 15.62 13.64 18.88 13.23 20.52 C 12.04 20.27 10.83 20.06 9.63 19.87 C 8.90 16.74 7.72 13.74 6.75 10.68 C 6.72 10.48 6.64 10.10 6.60 9.90 L 6.80 9.30 C 9.20 9.17 11.60 8.96 14.00 8.84 C 14.25 7.36 14.48 5.88 14.72 4.39 C 14.94 4.44 15.40 4.53 15.63 4.57 C 18.03 5.17 20.40 5.87 22.82 6.42 C 25.96 5.54 29.04 4.45 32.02 3.13 C 33.54 3.65 34.54 3.20 34.99 1.81 M 49.05 5.90 C 49.03 6.69 49.00 8.26 48.99 9.05 C 49.69 9.00 51.10 8.90 51.80 8.84 C 52.26 7.78 52.70 6.71 53.13 5.64 C 51.76 5.59 50.40 5.71 49.05 5.90 Z" />
</g>
<g id="#342f2bfe">
<path fill="#342f2b" opacity="1.00" d=" M 90.99 1.81 C 93.04 1.94 95.09 1.89 97.13 1.77 C 97.49 3.11 98.37 3.60 99.78 3.23 L 100.74 3.11 C 103.81 3.31 106.91 3.50 109.96 3.98 C 110.85 4.40 111.73 4.84 112.60 5.31 C 112.28 9.21 111.97 13.12 111.86 17.03 C 110.56 16.38 109.70 16.71 109.28 18.02 L 108.36 17.81 C 107.48 17.59 106.61 17.37 105.74 17.15 C 105.44 16.76 104.84 15.98 104.55 15.58 C 105.92 15.21 107.19 14.53 108.37 13.75 C 108.90 13.43 109.95 12.78 110.47 12.46 C 110.19 11.85 109.92 11.24 109.66 10.62 C 108.12 10.49 106.60 10.29 105.07 10.14 C 103.42 8.56 101.86 6.89 100.17 5.35 C 100.72 7.50 101.49 9.57 102.27 11.64 C 101.20 12.26 100.13 12.90 99.08 13.55 C 100.45 14.05 101.83 14.55 103.19 15.11 L 103.65 15.52 C 103.60 15.91 103.50 16.67 103.45 17.06 C 102.93 16.91 101.88 16.62 101.36 16.48 C 101.01 16.45 100.32 16.38 99.97 16.35 C 98.53 16.36 97.93 17.07 98.17 18.48 L 97.97 17.72 C 97.56 15.96 97.25 14.18 97.06 12.39 C 97.07 12.08 97.11 11.46 97.12 11.16 C 97.19 10.04 97.27 8.91 97.34 7.79 C 94.84 6.36 91.71 5.70 89.78 8.47 C 89.74 6.84 89.66 5.20 89.59 3.56 C 89.07 5.84 88.46 8.09 87.84 10.34 C 87.72 10.77 87.49 11.63 87.37 12.05 C 87.00 13.48 86.62 14.91 86.16 16.32 C 85.64 17.02 85.09 17.70 84.51 18.35 L 83.85 18.78 L 82.91 18.98 C 83.28 17.06 83.64 15.13 84.03 13.21 C 84.33 11.71 84.65 10.22 85.02 8.74 C 85.13 8.39 85.35 7.69 85.46 7.34 C 82.83 8.39 80.04 9.25 77.21 8.47 C 74.13 7.67 71.43 9.61 69.26 11.55 C 71.30 11.56 73.34 11.53 75.38 11.52 C 74.29 12.23 72.12 13.65 71.04 14.36 C 70.74 15.54 70.14 17.90 69.84 19.08 L 69.65 19.88 C 68.32 19.98 66.98 20.09 65.64 20.19 C 64.97 16.93 63.72 13.84 62.76 10.67 C 62.72 10.48 62.64 10.09 62.60 9.90 L 62.80 9.30 C 65.20 9.17 67.60 8.96 70.00 8.84 C 70.25 7.36 70.48 5.88 70.72 4.39 C 70.94 4.44 71.40 4.53 71.63 4.57 C 74.03 5.16 76.40 5.87 78.82 6.42 C 81.96 5.54 85.04 4.45 88.02 3.13 C 89.54 3.65 90.53 3.20 90.99 1.81 M 105.05 5.90 C 105.03 6.69 105.00 8.26 104.99 9.05 C 105.69 9.00 107.10 8.90 107.80 8.84 C 108.26 7.78 108.70 6.71 109.13 5.64 C 107.76 5.59 106.40 5.71 105.05 5.90 Z" />
<path fill="#342f2b" opacity="1.00" d=" M 202.99 1.81 C 205.04 1.94 207.08 1.88 209.13 1.76 C 209.49 3.09 210.37 3.58 211.77 3.24 L 212.73 3.16 C 215.89 3.26 219.09 3.35 222.26 3.60 C 222.69 3.69 223.56 3.88 224.00 3.97 L 224.00 16.97 C 222.68 16.34 221.81 16.68 221.38 17.99 L 220.41 17.79 C 219.51 17.58 218.62 17.37 217.73 17.17 C 217.43 16.77 216.84 15.98 216.55 15.59 C 217.92 15.21 219.19 14.53 220.37 13.75 C 220.90 13.43 221.95 12.79 222.47 12.47 C 222.19 11.86 221.92 11.24 221.66 10.62 C 220.12 10.49 218.60 10.29 217.07 10.14 C 215.42 8.56 213.86 6.89 212.17 5.35 C 212.72 7.50 213.49 9.57 214.27 11.64 C 213.20 12.26 212.13 12.90 211.08 13.55 C 212.45 14.05 213.83 14.55 215.19 15.11 L 215.65 15.52 C 215.60 15.91 215.50 16.68 215.45 17.06 C 214.92 16.91 213.88 16.63 213.36 16.48 C 213.01 16.45 212.32 16.38 211.97 16.35 C 210.53 16.37 209.93 17.07 210.17 18.48 L 209.97 17.72 C 209.56 15.96 209.25 14.18 209.06 12.39 C 209.07 12.08 209.11 11.46 209.12 11.16 C 209.19 10.04 209.27 8.91 209.34 7.79 C 206.84 6.36 203.71 5.70 201.78 8.47 C 201.73 6.84 201.66 5.20 201.59 3.56 C 201.07 5.84 200.46 8.09 199.84 10.34 C 199.72 10.77 199.49 11.63 199.37 12.05 C 199.00 13.48 198.62 14.91 198.16 16.32 C 197.64 17.02 197.09 17.70 196.51 18.35 L 195.85 18.78 L 194.91 18.98 C 195.28 17.06 195.64 15.13 196.03 13.21 C 196.33 11.71 196.65 10.22 197.02 8.74 C 197.13 8.39 197.35 7.69 197.46 7.34 C 194.83 8.39 192.04 9.25 189.21 8.47 C 186.13 7.67 183.43 9.61 181.26 11.55 C 183.30 11.56 185.34 11.52 187.38 11.52 C 186.29 12.23 184.12 13.65 183.04 14.36 C 182.74 15.54 182.14 17.90 181.84 19.08 L 181.66 19.88 C 180.31 19.98 178.98 20.09 177.64 20.19 C 176.98 16.93 175.71 13.84 174.77 10.67 C 174.73 10.48 174.64 10.09 174.60 9.90 L 174.80 9.30 C 177.20 9.17 179.60 8.96 182.00 8.84 C 182.25 7.36 182.48 5.88 182.72 4.39 C 182.94 4.44 183.40 4.53 183.63 4.57 C 186.03 5.16 188.40 5.87 190.82 6.42 C 193.96 5.54 197.04 4.45 200.02 3.13 C 201.54 3.65 202.53 3.21 202.99 1.81 M 217.16 6.20 C 217.10 6.90 217.00 8.31 216.95 9.01 C 217.74 9.00 219.31 8.97 220.10 8.95 C 220.28 7.60 220.41 6.24 220.36 4.87 C 219.28 5.30 218.21 5.74 217.16 6.20 Z" />
</g>
<g id="#342f2bff">
<path fill="#342f2b" opacity="1.00" d=" M 146.99 1.81 C 149.04 1.94 151.08 1.89 153.13 1.77 C 153.49 3.11 154.37 3.60 155.78 3.23 L 156.74 3.11 C 159.81 3.31 162.91 3.50 165.96 3.98 C 166.85 4.40 167.73 4.84 168.60 5.31 C 168.29 8.88 167.95 12.44 167.85 16.02 C 166.53 15.42 165.68 15.79 165.28 17.11 L 164.35 16.93 C 162.46 16.50 160.58 16.00 158.74 15.39 C 160.78 15.83 162.82 15.11 164.42 13.83 C 164.93 13.49 165.95 12.81 166.46 12.47 C 166.19 11.85 165.93 11.23 165.65 10.61 C 164.11 10.51 162.60 10.25 161.06 10.15 C 159.42 8.56 157.86 6.89 156.18 5.34 C 156.71 7.47 157.45 9.53 158.23 11.57 C 157.10 12.32 155.99 13.10 154.91 13.91 C 155.83 14.29 156.76 14.66 157.69 15.02 C 157.33 15.09 156.59 15.24 156.23 15.32 C 154.79 15.42 154.14 16.14 154.27 17.47 L 154.02 16.73 C 153.59 15.29 153.21 13.84 152.90 12.38 C 152.92 12.09 152.97 11.51 152.99 11.22 C 153.12 10.07 153.25 8.92 153.40 7.77 C 150.84 6.40 147.79 5.77 145.78 8.45 C 145.74 6.82 145.67 5.19 145.61 3.56 C 144.89 5.76 144.15 7.96 143.52 10.19 C 143.69 12.48 144.28 14.71 145.09 16.85 C 144.10 16.20 143.10 15.57 142.11 14.92 C 141.11 16.02 140.11 17.12 139.12 18.23 C 139.49 16.58 139.79 14.92 140.11 13.26 C 140.40 11.77 140.68 10.28 141.02 8.80 C 141.13 8.44 141.36 7.71 141.47 7.35 C 138.83 8.39 136.04 9.25 133.21 8.47 C 130.14 7.67 127.45 9.61 125.27 11.50 C 127.35 11.57 129.43 11.59 131.51 11.67 C 130.21 12.13 127.60 13.07 126.30 13.54 C 126.12 14.78 125.92 16.02 125.69 17.25 C 125.57 17.86 125.32 19.08 125.19 19.69 C 124.82 20.05 124.06 20.76 123.69 21.11 C 121.42 17.99 119.70 14.53 118.59 10.82 C 118.58 10.61 118.57 10.18 118.57 9.96 L 118.78 9.41 C 121.04 9.26 123.41 9.29 125.54 8.40 C 126.22 7.17 126.63 5.81 127.12 4.49 C 127.25 4.51 127.50 4.56 127.63 4.58 C 130.04 5.16 132.40 5.88 134.82 6.41 C 137.96 5.55 141.04 4.45 144.02 3.13 C 145.54 3.65 146.53 3.20 146.99 1.81 M 161.16 6.20 C 161.10 6.90 161.00 8.31 160.95 9.01 C 161.74 9.00 163.31 8.97 164.10 8.95 C 164.28 7.60 164.41 6.24 164.36 4.87 C 163.28 5.30 162.22 5.74 161.16 6.20 Z" />
</g>
<g id="#86b05fff">
<path fill="#86b05f" opacity="1.00" d=" M 1.84 3.36 C 2.50 5.44 2.81 7.63 2.30 9.78 C 1.22 14.04 4.03 17.82 5.64 21.55 C 5.82 21.92 6.16 22.67 6.33 23.04 C 4.26 23.31 2.42 24.29 0.84 25.62 C 0.55 24.92 0.27 24.22 0.00 23.51 L 0.00 21.78 C 1.08 22.17 2.99 22.67 3.55 21.26 C 3.14 19.51 0.88 20.43 0.00 21.27 L 0.00 6.36 C 0.46 5.61 1.38 4.11 1.84 3.36 Z" />
<path fill="#86b05f" opacity="1.00" d=" M 58.18 3.81 C 59.03 6.87 58.00 9.95 58.11 13.02 C 58.74 16.05 60.38 18.74 61.61 21.56 C 61.83 22.07 62.28 23.08 62.51 23.59 C 61.29 23.42 60.07 23.28 58.85 23.13 C 58.39 24.20 57.92 25.26 57.44 26.31 C 57.00 25.40 56.57 24.48 56.15 23.55 C 56.12 23.08 56.06 22.13 56.03 21.65 C 57.06 22.09 58.95 22.72 59.53 21.31 C 59.18 19.62 56.93 20.27 56.02 21.10 C 56.02 20.51 56.03 19.32 56.03 18.72 L 56.04 18.14 C 56.17 13.86 56.35 9.58 56.58 5.31 C 56.98 4.94 57.78 4.19 58.18 3.81 Z" />
<path fill="#86b05f" opacity="1.00" d=" M 114.18 3.81 C 115.02 6.87 114.01 9.94 114.11 13.02 C 114.72 16.08 116.40 18.78 117.66 21.60 C 117.82 21.96 118.15 22.69 118.32 23.05 C 116.23 23.29 114.39 24.30 112.82 25.65 C 112.63 24.93 112.46 24.21 112.29 23.49 C 112.22 23.03 112.08 22.10 112.01 21.63 C 113.05 22.05 114.96 22.72 115.52 21.29 C 115.10 19.63 112.87 20.28 111.93 21.10 C 111.91 20.26 111.87 18.59 111.85 17.75 L 111.86 17.03 C 111.97 13.12 112.28 9.21 112.60 5.31 C 112.99 4.94 113.78 4.19 114.18 3.81 Z" />
<path fill="#86b05f" opacity="1.00" d=" M 170.18 3.81 C 171.02 6.87 170.01 9.95 170.11 13.02 C 170.72 16.06 172.40 18.75 173.65 21.56 C 173.82 21.93 174.16 22.67 174.34 23.04 C 172.25 23.31 170.40 24.29 168.82 25.63 C 168.62 24.95 168.42 24.25 168.24 23.56 C 168.20 23.09 168.12 22.15 168.08 21.67 C 169.10 22.11 170.99 22.70 171.53 21.30 C 171.18 19.61 168.94 20.27 168.03 21.11 L 167.96 20.05 C 167.93 19.23 167.87 17.57 167.84 16.75 L 167.85 16.02 C 167.95 12.44 168.29 8.88 168.60 5.31 C 169.00 4.94 169.78 4.19 170.18 3.81 Z" />
<path fill="#86b05f" opacity="1.00" d=" M 1.78 31.37 C 3.17 34.18 2.76 37.23 1.55 40.00 C 2.89 43.18 4.10 46.41 5.56 49.53 C 5.82 50.06 6.32 51.12 6.58 51.65 C 5.34 51.47 4.11 51.30 2.87 51.13 C 2.39 52.18 1.93 53.24 1.48 54.30 C 0.94 53.38 0.45 52.43 0.00 51.47 L 0.00 49.77 C 1.08 50.16 2.99 50.67 3.55 49.26 C 3.15 47.52 0.88 48.42 0.00 49.26 L 0.00 34.39 C 0.45 33.63 1.34 32.13 1.78 31.37 Z" />
</g>
<g id="#5d5347ff">
<path fill="#5d5347" opacity="1.00" d=" M 15.63 4.57 C 17.59 4.56 19.54 4.33 21.50 4.26 C 21.87 4.48 22.61 4.93 22.98 5.15 L 22.82 6.42 C 20.40 5.87 18.03 5.17 15.63 4.57 Z" />
<path fill="#5d5347" opacity="1.00" d=" M 71.63 4.57 C 73.59 4.56 75.54 4.33 77.50 4.26 C 77.87 4.48 78.61 4.93 78.98 5.15 L 78.82 6.42 C 76.40 5.87 74.03 5.16 71.63 4.57 Z" />
<path fill="#5d5347" opacity="1.00" d=" M 127.63 4.58 C 129.59 4.56 131.54 4.33 133.50 4.26 C 133.87 4.48 134.61 4.92 134.98 5.15 L 134.82 6.41 C 132.40 5.88 130.04 5.16 127.63 4.58 Z" />
<path fill="#5d5347" opacity="1.00" d=" M 183.63 4.57 C 185.59 4.56 187.54 4.33 189.50 4.26 C 189.87 4.48 190.61 4.93 190.98 5.15 L 190.82 6.42 C 188.40 5.87 186.03 5.16 183.63 4.57 Z" />
</g>
<g id="#72624dff">
<path fill="#72624d" opacity="1.00" d=" M 33.78 8.45 C 35.18 7.28 36.85 5.68 38.84 6.55 C 40.92 6.95 41.02 9.41 41.29 11.08 C 39.30 10.52 37.66 11.90 36.23 13.05 C 35.79 13.34 34.90 13.90 34.45 14.19 C 33.42 13.48 32.39 12.77 31.37 12.05 C 31.48 11.62 31.69 10.76 31.80 10.33 C 32.29 9.86 33.28 8.92 33.78 8.45 Z" />
<path fill="#72624d" opacity="1.00" d=" M 89.78 8.47 C 91.71 5.70 94.84 6.36 97.34 7.79 C 97.27 8.91 97.19 10.04 97.12 11.16 C 95.26 10.78 93.63 11.82 92.22 12.89 C 91.75 13.20 90.82 13.82 90.35 14.13 C 89.36 13.44 88.36 12.75 87.37 12.05 C 87.49 11.63 87.72 10.77 87.84 10.34 C 88.32 9.88 89.30 8.94 89.78 8.47 Z" />
<path fill="#72624d" opacity="1.00" d=" M 201.78 8.47 C 203.71 5.70 206.84 6.36 209.34 7.79 C 209.27 8.91 209.19 10.04 209.12 11.16 C 207.26 10.78 205.63 11.82 204.22 12.89 C 203.75 13.20 202.82 13.82 202.35 14.13 C 201.36 13.44 200.36 12.75 199.37 12.05 C 199.49 11.63 199.72 10.77 199.84 10.34 C 200.32 9.88 201.30 8.94 201.78 8.47 Z" />
</g>
<g id="#6d614fff">
<path fill="#6d614f" opacity="1.00" d=" M 145.78 8.45 C 147.79 5.77 150.84 6.40 153.40 7.77 C 153.25 8.92 153.12 10.07 152.99 11.22 C 151.32 10.77 149.42 11.28 148.49 12.81 C 148.09 13.29 147.30 14.25 146.91 14.73 C 147.70 15.91 148.50 17.08 149.25 18.29 C 148.73 18.54 147.69 19.05 147.17 19.30 C 146.50 18.47 145.80 17.65 145.09 16.85 C 144.28 14.71 143.69 12.48 143.52 10.19 C 144.08 9.76 145.21 8.89 145.78 8.45 Z" />
</g>
<g id="#63594aff">
<path fill="#63594a" opacity="1.00" d=" M 44.17 5.35 C 45.86 6.89 47.42 8.55 49.06 10.14 C 50.59 10.29 52.12 10.48 53.65 10.62 C 53.92 11.24 54.19 11.85 54.48 12.45 C 53.91 12.81 52.77 13.51 52.19 13.87 C 50.53 12.40 46.24 13.26 48.49 15.86 C 48.82 16.41 49.48 17.52 49.81 18.07 C 49.40 17.92 48.60 17.63 48.20 17.48 C 46.55 16.16 44.96 14.78 43.31 13.45 C 44.29 12.82 45.26 12.21 46.25 11.60 C 45.46 9.55 44.73 7.47 44.17 5.35 Z" />
<path fill="#63594a" opacity="1.00" d=" M 125.27 11.50 C 127.45 9.61 130.14 7.67 133.21 8.47 C 136.04 9.25 138.83 8.39 141.47 7.35 C 141.36 7.71 141.13 8.44 141.02 8.80 C 139.05 9.95 137.02 10.99 134.98 12.00 C 136.69 12.43 138.40 12.85 140.11 13.26 C 139.79 14.92 139.49 16.58 139.12 18.23 L 138.65 18.77 C 137.55 18.56 136.45 18.34 135.35 18.15 C 134.76 18.04 133.59 17.81 133.00 17.70 C 132.53 16.48 132.05 15.27 131.58 14.05 C 129.87 15.17 128.15 16.27 126.37 17.25 L 125.69 17.25 C 125.92 16.02 126.12 14.78 126.30 13.54 C 127.60 13.07 130.21 12.13 131.51 11.67 C 129.43 11.59 127.35 11.57 125.27 11.50 Z" />
</g>
<g id="#665b4bff">
<path fill="#665b4b" opacity="1.00" d=" M 100.17 5.35 C 101.86 6.89 103.42 8.56 105.07 10.14 C 106.60 10.29 108.12 10.49 109.66 10.62 C 109.92 11.24 110.19 11.85 110.47 12.46 C 109.95 12.78 108.90 13.43 108.37 13.75 C 106.60 12.92 103.98 12.99 103.19 15.11 C 101.83 14.55 100.45 14.05 99.08 13.55 C 100.13 12.90 101.20 12.26 102.27 11.64 C 101.49 9.57 100.72 7.50 100.17 5.35 Z" />
<path fill="#665b4b" opacity="1.00" d=" M 156.18 5.34 C 157.86 6.89 159.42 8.56 161.06 10.15 C 162.60 10.25 164.11 10.51 165.65 10.61 C 165.93 11.23 166.19 11.85 166.46 12.47 C 165.95 12.81 164.93 13.49 164.42 13.83 C 162.42 12.86 159.90 13.45 158.74 15.39 L 157.69 15.02 C 156.76 14.66 155.83 14.29 154.91 13.91 C 155.99 13.10 157.10 12.32 158.23 11.57 C 157.45 9.53 156.71 7.47 156.18 5.34 Z" />
<path fill="#665b4b" opacity="1.00" d=" M 212.17 5.35 C 213.86 6.89 215.42 8.56 217.07 10.14 C 218.60 10.29 220.12 10.49 221.66 10.62 C 221.92 11.24 222.19 11.86 222.47 12.47 C 221.95 12.79 220.90 13.43 220.37 13.75 C 218.60 12.92 215.98 12.99 215.19 15.11 C 213.83 14.55 212.45 14.05 211.08 13.55 C 212.13 12.90 213.20 12.26 214.27 11.64 C 213.49 9.57 212.72 7.50 212.17 5.35 Z" />
</g>
<g id="#5f584bff">
<path fill="#5f584b" opacity="1.00" d=" M 13.27 11.52 C 15.44 9.61 18.14 7.67 21.21 8.47 C 24.10 9.24 26.96 8.37 29.65 7.33 C 29.51 7.69 29.22 8.41 29.08 8.77 C 27.24 9.94 25.31 10.97 23.39 11.99 C 23.69 14.71 23.79 17.44 23.62 20.17 C 22.55 19.90 21.47 19.63 20.39 19.38 C 20.24 17.42 20.11 15.45 19.92 13.49 C 17.11 14.88 15.19 17.30 14.08 20.21 L 13.23 20.52 C 13.64 18.88 14.46 15.62 14.86 13.98 C 16.02 13.39 18.33 12.21 19.48 11.62 C 17.41 11.57 15.34 11.56 13.27 11.52 Z" />
</g>
<g id="#60584bff">
<path fill="#60584b" opacity="1.00" d=" M 69.26 11.55 C 71.43 9.61 74.13 7.67 77.21 8.47 C 80.04 9.25 82.83 8.39 85.46 7.34 C 85.35 7.69 85.13 8.39 85.02 8.74 C 83.21 9.92 81.32 10.96 79.44 11.99 C 79.54 14.41 79.78 16.82 79.66 19.24 C 78.59 18.99 77.53 18.73 76.46 18.48 C 76.24 16.79 76.01 15.10 75.76 13.42 C 73.68 15.00 71.93 16.94 70.18 18.86 L 69.84 19.08 C 70.14 17.90 70.74 15.54 71.04 14.36 C 72.12 13.65 74.29 12.23 75.38 11.52 C 73.34 11.53 71.30 11.56 69.26 11.55 Z" />
<path fill="#60584b" opacity="1.00" d=" M 181.26 11.55 C 183.43 9.61 186.13 7.67 189.21 8.47 C 192.04 9.25 194.83 8.39 197.46 7.34 C 197.35 7.69 197.13 8.39 197.02 8.74 C 195.21 9.92 193.32 10.96 191.44 11.99 C 191.54 14.41 191.78 16.82 191.66 19.24 C 190.59 18.99 189.53 18.73 188.46 18.48 C 188.24 16.79 188.01 15.10 187.76 13.42 C 185.68 15.00 183.93 16.94 182.18 18.86 L 181.84 19.08 C 182.14 17.90 182.74 15.54 183.04 14.36 C 184.12 13.65 186.29 12.23 187.38 11.52 C 185.34 11.52 183.30 11.56 181.26 11.55 Z" />
</g>
<g id="#92824dff">
<path fill="#92824d" opacity="1.00" d=" M 23.39 11.99 C 25.31 10.97 27.24 9.94 29.08 8.77 C 28.61 10.23 28.21 11.70 27.77 13.17 C 26.31 12.79 24.85 12.39 23.39 11.99 Z" />
<path fill="#92824d" opacity="1.00" d=" M 79.44 11.99 C 81.32 10.96 83.21 9.92 85.02 8.74 C 84.65 10.22 84.33 11.71 84.03 13.21 C 82.49 12.82 80.97 12.40 79.44 11.99 Z" />
<path fill="#92824d" opacity="1.00" d=" M 134.98 12.00 C 137.02 10.99 139.05 9.95 141.02 8.80 C 140.68 10.28 140.40 11.77 140.11 13.26 C 138.40 12.85 136.69 12.43 134.98 12.00 Z" />
<path fill="#92824d" opacity="1.00" d=" M 191.44 11.99 C 193.32 10.96 195.21 9.92 197.02 8.74 C 196.65 10.22 196.33 11.71 196.03 13.21 C 194.49 12.82 192.96 12.40 191.44 11.99 Z" />
</g>
<g id="#4b5745ff">
<path fill="#4b5745" opacity="1.00" d=" M 5.64 21.55 C 5.78 17.90 6.43 14.31 6.75 10.68 C 7.72 13.74 8.90 16.74 9.63 19.87 C 9.68 20.93 9.71 21.99 9.73 23.05 C 8.35 22.60 7.00 22.07 5.64 21.55 Z" />
<path fill="#4b5745" opacity="1.00" d=" M 61.61 21.56 C 61.77 17.91 62.45 14.31 62.76 10.67 C 63.72 13.84 64.97 16.93 65.64 20.19 C 65.70 21.13 65.74 22.08 65.76 23.03 C 64.36 22.60 62.98 22.09 61.61 21.56 Z" />
<path fill="#4b5745" opacity="1.00" d=" M 173.65 21.56 C 173.78 17.91 174.42 14.30 174.77 10.67 C 175.71 13.84 176.98 16.93 177.64 20.19 C 177.70 21.14 177.74 22.08 177.76 23.03 C 176.37 22.60 175.01 22.08 173.65 21.56 Z" />
</g>
<g id="#907e4efe">
<path fill="#907e4e" opacity="1.00" d=" M 36.23 13.05 C 37.66 11.90 39.30 10.52 41.29 11.08 C 41.31 11.40 41.35 12.06 41.37 12.38 C 39.94 13.09 38.42 13.30 36.81 13.01 L 36.23 13.05 Z" />
<path fill="#907e4e" opacity="1.00" d=" M 92.22 12.89 C 93.63 11.82 95.26 10.78 97.12 11.16 C 97.11 11.46 97.07 12.08 97.06 12.39 C 95.73 13.20 94.29 13.49 92.73 13.25 L 92.22 12.89 Z" />
<path fill="#907e4e" opacity="1.00" d=" M 148.49 12.81 C 149.42 11.28 151.32 10.77 152.99 11.22 C 152.97 11.51 152.92 12.09 152.90 12.38 C 151.55 13.12 150.10 13.41 148.57 13.24 L 148.49 12.81 Z" />
<path fill="#907e4e" opacity="1.00" d=" M 204.22 12.89 C 205.63 11.82 207.26 10.78 209.12 11.16 C 209.11 11.46 209.07 12.08 209.06 12.39 C 207.73 13.20 206.28 13.49 204.73 13.25 L 204.22 12.89 Z" />
<path fill="#907e4e" opacity="1.00" d=" M 48.49 15.86 C 46.24 13.26 50.53 12.40 52.19 13.87 C 51.02 14.63 49.85 15.45 48.49 15.86 Z" />
<path fill="#907e4e" opacity="1.00" d=" M 103.19 15.11 C 103.98 12.99 106.60 12.92 108.37 13.75 C 107.19 14.53 105.92 15.21 104.55 15.58 L 103.65 15.52 L 103.19 15.11 Z" />
<path fill="#907e4e" opacity="1.00" d=" M 158.74 15.39 C 159.90 13.45 162.42 12.86 164.42 13.83 C 162.82 15.11 160.78 15.83 158.74 15.39 Z" />
<path fill="#907e4e" opacity="1.00" d=" M 215.19 15.11 C 215.98 12.99 218.60 12.92 220.37 13.75 C 219.19 14.53 217.92 15.21 216.55 15.59 L 215.65 15.52 L 215.19 15.11 Z" />
</g>
<g id="#515946ff">
<path fill="#515946" opacity="1.00" d=" M 117.66 21.60 C 117.83 18.00 118.46 14.43 118.59 10.82 C 119.70 14.53 121.42 17.99 123.69 21.11 C 123.89 21.51 124.30 22.30 124.50 22.69 L 124.12 23.63 C 121.93 23.05 119.79 22.34 117.66 21.60 Z" />
</g>
<g id="#76644eff">
<path fill="#76644e" opacity="1.00" d=" M 23.39 11.99 C 24.85 12.39 26.31 12.79 27.77 13.17 C 27.62 13.70 27.30 14.76 27.14 15.29 C 26.22 16.64 25.11 18.40 26.15 20.01 C 25.52 20.05 24.26 20.13 23.62 20.17 C 23.79 17.44 23.69 14.71 23.39 11.99 Z" />
</g>
<g id="#5a5851ff">
<path fill="#5a5851" opacity="1.00" d=" M 30.09 17.26 C 30.59 15.55 30.98 13.80 31.37 12.05 C 32.39 12.77 33.42 13.48 34.45 14.19 C 35.40 16.19 36.38 18.17 37.35 20.16 C 36.82 20.35 35.78 20.72 35.25 20.91 C 34.49 20.16 33.72 19.43 32.94 18.70 C 34.36 16.83 32.03 14.09 30.61 16.59 L 30.09 17.26 Z" />
</g>
<g id="#71614dff">
<path fill="#71614d" opacity="1.00" d=" M 79.44 11.99 C 80.97 12.40 82.49 12.82 84.03 13.21 C 83.64 15.13 83.28 17.06 82.91 18.98 C 81.83 19.11 80.75 19.20 79.66 19.24 C 79.78 16.82 79.54 14.41 79.44 11.99 Z" />
<path fill="#71614d" opacity="1.00" d=" M 191.44 11.99 C 192.96 12.40 194.49 12.82 196.03 13.21 C 195.64 15.13 195.28 17.06 194.91 18.98 C 193.83 19.11 192.74 19.20 191.66 19.24 C 191.78 16.82 191.54 14.41 191.44 11.99 Z" />
</g>
<g id="#5b5a53ff">
<path fill="#5b5a53" opacity="1.00" d=" M 86.16 16.32 C 86.62 14.91 87.00 13.48 87.37 12.05 C 88.36 12.75 89.36 13.44 90.35 14.13 C 91.32 15.82 92.26 17.53 93.20 19.23 C 92.61 19.48 91.43 19.97 90.84 20.22 C 90.41 19.36 89.97 18.51 89.53 17.66 C 89.53 16.27 87.77 13.83 86.60 15.73 L 86.16 16.32 Z" />
<path fill="#5b5a53" opacity="1.00" d=" M 198.16 16.32 C 198.62 14.91 199.00 13.48 199.37 12.05 C 200.36 12.75 201.36 13.44 202.35 14.13 C 203.32 15.82 204.26 17.53 205.20 19.23 C 204.61 19.48 203.43 19.97 202.84 20.22 C 202.41 19.36 201.97 18.51 201.52 17.66 C 201.53 16.27 199.77 13.83 198.60 15.73 L 198.16 16.32 Z" />
</g>
<g id="#332e2aff">
<path fill="#332e2a" opacity="1.00" d=" M 34.45 14.19 C 34.90 13.90 35.79 13.34 36.23 13.05 L 36.81 13.01 C 36.83 14.87 36.86 16.73 36.90 18.59 C 37.01 18.99 37.24 19.77 37.35 20.16 C 36.38 18.17 35.40 16.19 34.45 14.19 Z" />
<path fill="#332e2a" opacity="1.00" d=" M 90.35 14.13 C 90.82 13.82 91.75 13.20 92.22 12.89 L 92.73 13.25 C 92.90 15.24 93.04 17.24 93.20 19.23 C 92.26 17.53 91.32 15.82 90.35 14.13 Z" />
<path fill="#332e2a" opacity="1.00" d=" M 146.91 14.73 C 147.30 14.25 148.09 13.29 148.49 12.81 L 148.57 13.24 C 148.82 14.92 149.00 16.61 149.25 18.29 C 148.50 17.08 147.70 15.91 146.91 14.73 Z" />
<path fill="#332e2a" opacity="1.00" d=" M 202.35 14.13 C 202.82 13.82 203.75 13.20 204.22 12.89 L 204.73 13.25 C 204.90 15.24 205.03 17.24 205.20 19.23 C 204.26 17.53 203.32 15.82 202.35 14.13 Z" />
<path fill="#332e2a" opacity="1.00" d=" M 70.18 18.86 C 71.93 16.94 73.68 15.00 75.76 13.42 C 76.01 15.10 76.24 16.79 76.46 18.48 C 75.15 18.62 73.84 18.74 72.52 18.83 C 71.94 18.84 70.77 18.85 70.18 18.86 Z" />
<path fill="#332e2a" opacity="1.00" d=" M 126.37 17.25 C 128.15 16.27 129.87 15.17 131.58 14.05 C 132.05 15.27 132.53 16.48 133.00 17.70 C 131.64 17.59 130.28 17.49 128.91 17.40 C 128.28 17.36 127.00 17.29 126.37 17.25 Z" />
<path fill="#332e2a" opacity="1.00" d=" M 182.18 18.86 C 183.93 16.94 185.68 15.00 187.76 13.42 C 188.01 15.10 188.24 16.79 188.46 18.48 C 187.15 18.62 185.84 18.74 184.52 18.83 C 183.94 18.84 182.77 18.85 182.18 18.86 Z" />
<path fill="#332e2a" opacity="1.00" d=" M 30.61 16.59 C 32.03 14.09 34.36 16.83 32.94 18.70 C 32.12 18.04 31.34 17.34 30.61 16.59 Z" />
<path fill="#332e2a" opacity="1.00" d=" M 86.60 15.73 C 87.77 13.83 89.53 16.27 89.53 17.66 C 88.30 17.36 87.32 16.72 86.60 15.73 Z" />
<path fill="#332e2a" opacity="1.00" d=" M 198.60 15.73 C 199.77 13.83 201.53 16.27 201.52 17.66 C 200.29 17.36 199.32 16.72 198.60 15.73 Z" />
<path fill="#332e2a" opacity="1.00" d=" M 38.76 17.98 C 38.78 15.82 41.69 16.32 40.44 18.30 L 39.44 18.58 L 38.76 17.98 Z" />
<path fill="#332e2a" opacity="1.00" d=" M 5.64 21.55 C 7.00 22.07 8.35 22.60 9.73 23.05 C 10.22 23.18 11.19 23.44 11.68 23.57 L 11.83 24.28 C 12.08 25.36 12.33 26.44 12.57 27.51 C 10.79 28.80 9.22 30.36 8.08 32.25 C 9.45 32.32 10.82 32.40 12.19 32.48 C 12.51 32.50 13.15 32.54 13.47 32.56 C 12.56 34.34 11.71 36.16 11.20 38.09 C 11.15 39.40 11.16 40.71 11.24 42.02 C 11.76 43.97 12.40 45.89 13.07 47.80 C 12.18 47.91 10.40 48.12 9.50 48.23 C 8.51 40.39 8.28 32.45 6.98 24.67 C 6.82 24.26 6.49 23.45 6.33 23.04 C 6.16 22.67 5.82 21.92 5.64 21.55 Z" />
<path fill="#332e2a" opacity="1.00" d=" M 61.61 21.56 C 62.98 22.09 64.36 22.60 65.76 23.03 C 66.33 23.14 67.45 23.35 68.02 23.46 C 68.04 23.86 68.08 24.65 68.10 25.05 C 67.05 25.51 66.45 26.31 66.32 27.44 C 65.89 29.10 65.38 30.74 64.89 32.39 C 65.93 32.45 66.97 32.51 68.01 32.58 C 68.34 32.60 69.00 32.64 69.34 32.66 C 68.30 35.02 67.69 37.52 67.11 40.02 C 67.13 40.59 67.17 41.73 67.19 42.30 C 67.80 44.14 68.43 45.98 69.10 47.80 C 68.20 47.91 66.40 48.11 65.51 48.22 C 64.48 40.41 64.34 32.47 62.94 24.73 C 62.83 24.44 62.61 23.87 62.51 23.59 C 62.28 23.08 61.83 22.07 61.61 21.56 Z" />
<path fill="#332e2a" opacity="1.00" d=" M 173.65 21.56 C 175.01 22.08 176.37 22.60 177.76 23.03 C 178.33 23.14 179.47 23.36 180.04 23.46 C 180.04 23.87 180.05 24.67 180.06 25.07 C 178.99 25.51 178.38 26.29 178.25 27.42 C 177.83 29.10 177.35 30.77 176.89 32.45 C 177.90 32.43 178.91 32.42 179.92 32.41 C 180.27 32.51 180.97 32.71 181.32 32.81 C 180.29 35.12 179.66 37.56 179.11 40.02 C 179.13 40.59 179.17 41.73 179.19 42.31 C 179.80 44.15 180.43 45.98 181.10 47.80 C 180.20 47.91 178.40 48.11 177.51 48.22 C 176.50 40.39 176.29 32.44 174.97 24.67 C 174.81 24.26 174.49 23.45 174.34 23.04 C 174.16 22.67 173.82 21.93 173.65 21.56 Z" />
<path fill="#332e2a" opacity="1.00" d=" M 45.99 54.05 C 48.82 51.91 52.39 51.28 55.73 50.33 C 55.32 50.63 54.51 51.24 54.10 51.54 C 51.77 52.74 49.62 54.27 47.65 56.00 L 44.14 56.00 C 44.60 55.51 45.52 54.54 45.99 54.05 Z" />
<path fill="#332e2a" opacity="1.00" d=" M 103.06 52.27 C 105.96 51.88 108.79 51.17 111.65 50.53 C 111.27 50.80 110.53 51.33 110.15 51.60 C 107.77 52.70 105.63 54.24 103.68 56.00 L 100.86 56.00 L 100.81 55.47 C 101.83 54.58 102.58 53.51 103.06 52.27 Z" />
<path fill="#332e2a" opacity="1.00" d=" M 157.96 53.20 C 161.22 52.32 164.45 51.40 167.67 50.41 C 167.29 50.70 166.52 51.27 166.13 51.56 C 163.77 52.71 161.64 54.26 159.67 56.00 L 156.59 56.00 C 156.94 55.30 157.62 53.90 157.96 53.20 Z" />
<path fill="#332e2a" opacity="1.00" d=" M 215.06 52.24 C 218.07 51.85 221.01 51.16 224.00 50.55 L 224.00 51.02 C 221.20 52.72 218.33 54.27 215.56 56.00 L 212.85 56.00 L 212.81 55.47 C 213.83 54.57 214.58 53.49 215.06 52.24 Z" />
</g>
<g id="#565148ff">
<path fill="#565148" opacity="1.00" d=" M 36.81 13.01 C 38.42 13.30 39.94 13.09 41.37 12.38 C 41.37 14.48 41.39 16.58 41.63 18.67 L 40.44 18.30 C 41.69 16.32 38.78 15.82 38.76 17.98 C 38.29 18.13 37.36 18.44 36.90 18.59 C 36.86 16.73 36.83 14.87 36.81 13.01 Z" />
</g>
<g id="#505251ff">
<path fill="#505251" opacity="1.00" d=" M 92.73 13.25 C 94.29 13.49 95.73 13.20 97.06 12.39 C 97.25 14.18 97.56 15.96 97.97 17.72 C 97.23 17.92 95.74 18.32 95.00 18.52 C 94.55 18.69 93.65 19.05 93.20 19.23 C 93.04 17.24 92.90 15.24 92.73 13.25 Z" />
<path fill="#505251" opacity="1.00" d=" M 204.73 13.25 C 206.28 13.49 207.73 13.20 209.06 12.39 C 209.25 14.18 209.56 15.96 209.97 17.72 C 209.23 17.92 207.74 18.32 207.00 18.52 C 206.55 18.69 205.65 19.05 205.20 19.23 C 205.03 17.24 204.90 15.24 204.73 13.25 Z" />
</g>
<g id="#515455ff">
<path fill="#515455" opacity="1.00" d=" M 148.57 13.24 C 150.10 13.41 151.55 13.12 152.90 12.38 C 153.21 13.84 153.59 15.29 154.02 16.73 C 153.27 16.91 151.78 17.29 151.04 17.47 C 150.59 17.68 149.70 18.09 149.25 18.29 C 149.00 16.61 148.82 14.92 148.57 13.24 Z" />
</g>
<g id="#322e2aff">
<path fill="#322e2a" opacity="1.00" d=" M 14.08 20.21 C 15.19 17.30 17.11 14.88 19.92 13.49 C 20.11 15.45 20.24 17.42 20.39 19.38 C 19.12 19.58 17.85 19.76 16.57 19.93 C 15.95 20.00 14.71 20.14 14.08 20.21 Z" />
</g>
<g id="#4679c9ff">
<path fill="#4679c9" opacity="1.00" d=" M 142.11 14.92 C 143.10 15.57 144.10 16.20 145.09 16.85 C 145.80 17.65 146.50 18.47 147.17 19.30 C 146.85 19.44 146.22 19.71 145.91 19.84 C 148.54 19.72 151.24 19.83 153.88 19.57 C 153.78 20.25 153.56 21.59 153.46 22.27 C 152.17 23.23 150.87 24.17 149.56 25.10 C 146.69 24.17 143.66 23.94 140.74 24.89 C 136.75 25.42 131.67 28.72 128.30 24.92 C 127.67 24.44 126.41 23.49 125.77 23.01 C 126.03 22.67 126.53 21.99 126.79 21.65 C 132.95 23.10 139.23 22.12 145.19 20.28 C 144.27 19.38 143.32 18.51 142.32 17.69 C 140.99 18.17 139.67 18.67 138.32 19.08 L 138.65 18.77 L 139.12 18.23 C 140.11 17.12 141.11 16.02 142.11 14.92 Z" />
</g>
<g id="#3a7dcfff">
<path fill="#3a7dcf" opacity="1.00" d=" M 154.27 17.47 C 154.14 16.14 154.79 15.42 156.23 15.32 C 156.18 15.72 156.09 16.54 156.05 16.95 C 155.60 17.08 154.71 17.34 154.27 17.47 Z" />
<path fill="#3a7dcf" opacity="1.00" d=" M 98.17 18.48 C 97.93 17.07 98.53 16.36 99.97 16.35 C 99.93 16.75 99.87 17.56 99.84 17.97 C 99.42 18.09 98.59 18.35 98.17 18.48 Z" />
<path fill="#3a7dcf" opacity="1.00" d=" M 210.17 18.48 C 209.93 17.07 210.53 16.37 211.97 16.35 C 211.94 16.75 211.87 17.57 211.84 17.97 C 211.43 18.10 210.59 18.35 210.17 18.48 Z" />
<path fill="#3a7dcf" opacity="1.00" d=" M 42.00 19.44 C 41.91 18.10 42.57 17.43 43.97 17.41 C 43.93 17.82 43.85 18.62 43.81 19.03 C 43.36 19.13 42.45 19.34 42.00 19.44 Z" />
</g>
<g id="#8d9fbaff">
<path fill="#8d9fba" opacity="1.00" d=" M 156.23 15.32 C 156.59 15.24 157.33 15.09 157.69 15.02 C 158.21 15.86 158.58 16.77 158.81 17.73 L 158.28 18.07 L 157.54 18.22 C 157.16 17.90 156.42 17.27 156.05 16.95 C 156.09 16.54 156.18 15.72 156.23 15.32 Z" />
<path fill="#8d9fba" opacity="1.00" d=" M 99.97 16.35 C 100.32 16.38 101.01 16.45 101.36 16.48 C 102.07 17.15 102.59 17.95 102.91 18.88 L 102.35 19.19 L 101.49 19.32 C 101.08 18.98 100.25 18.30 99.84 17.97 C 99.87 17.56 99.93 16.75 99.97 16.35 Z" />
<path fill="#8d9fba" opacity="1.00" d=" M 211.97 16.35 C 212.32 16.38 213.01 16.45 213.36 16.48 C 214.07 17.16 214.58 17.96 214.91 18.89 L 214.36 19.20 L 213.51 19.34 C 213.09 19.00 212.26 18.31 211.84 17.97 C 211.87 17.57 211.94 16.75 211.97 16.35 Z" />
<path fill="#8d9fba" opacity="1.00" d=" M 43.97 17.41 C 44.32 17.40 45.02 17.37 45.36 17.36 C 46.05 18.06 46.55 18.88 46.87 19.81 L 46.33 20.14 L 45.50 20.29 C 45.08 19.97 44.24 19.34 43.81 19.03 C 43.85 18.62 43.93 17.82 43.97 17.41 Z" />
</g>
<g id="#3e84ceff">
<path fill="#3e84ce" opacity="1.00" d=" M 157.69 15.02 L 158.74 15.39 C 160.58 16.00 162.46 16.50 164.35 16.93 C 162.49 17.09 160.63 17.31 158.81 17.73 C 158.58 16.77 158.21 15.86 157.69 15.02 Z" />
<path fill="#3e84ce" opacity="1.00" d=" M 101.36 16.48 C 101.88 16.62 102.93 16.91 103.45 17.06 C 104.02 17.08 105.16 17.13 105.74 17.15 C 106.61 17.37 107.48 17.59 108.36 17.81 C 106.52 18.07 104.70 18.39 102.91 18.88 C 102.59 17.95 102.07 17.15 101.36 16.48 Z" />
<path fill="#3e84ce" opacity="1.00" d=" M 213.36 16.48 C 213.88 16.63 214.92 16.91 215.45 17.06 C 216.02 17.09 217.16 17.14 217.73 17.17 C 218.62 17.37 219.51 17.58 220.41 17.79 C 218.55 18.05 216.71 18.39 214.91 18.89 C 214.58 17.96 214.07 17.16 213.36 16.48 Z" />
<path fill="#3e84ce" opacity="1.00" d=" M 45.36 17.36 C 46.07 17.39 47.49 17.45 48.20 17.48 C 48.60 17.63 49.40 17.92 49.81 18.07 C 50.30 18.25 51.28 18.62 51.77 18.81 L 52.28 19.05 C 50.46 19.18 48.65 19.43 46.87 19.81 C 46.55 18.88 46.05 18.06 45.36 17.36 Z" />
</g>
<g id="#4578caff">
<path fill="#4578ca" opacity="1.00" d=" M 86.16 16.32 L 86.60 15.73 C 87.32 16.72 88.30 17.36 89.53 17.66 C 89.97 18.51 90.41 19.36 90.84 20.22 C 90.65 20.42 90.29 20.82 90.10 21.03 C 92.65 20.92 95.25 20.92 97.79 20.60 C 97.80 21.32 97.81 22.77 97.82 23.49 C 90.03 25.17 81.91 25.51 74.51 28.69 C 74.87 27.73 75.23 26.77 75.60 25.82 C 74.59 25.57 73.57 25.35 72.56 25.14 C 71.86 24.96 70.47 24.60 69.77 24.42 C 70.03 24.03 70.56 23.23 70.82 22.83 C 76.86 23.91 82.95 23.17 88.75 21.30 C 88.65 20.63 88.55 19.95 88.45 19.27 C 87.15 18.90 85.84 18.60 84.51 18.35 C 85.09 17.70 85.64 17.02 86.16 16.32 Z" />
</g>
<g id="#508bc7ff">
<path fill="#508bc7" opacity="1.00" d=" M 165.28 17.11 C 165.68 15.79 166.53 15.42 167.85 16.02 L 167.84 16.75 C 167.20 16.84 165.92 17.02 165.28 17.11 Z" />
<path fill="#508bc7" opacity="1.00" d=" M 109.28 18.02 C 109.70 16.71 110.56 16.38 111.86 17.03 L 111.85 17.75 C 111.21 17.82 109.92 17.95 109.28 18.02 Z" />
<path fill="#508bc7" opacity="1.00" d=" M 221.38 17.99 C 221.81 16.68 222.68 16.34 224.00 16.97 L 224.00 17.67 C 223.35 17.75 222.04 17.91 221.38 17.99 Z" />
</g>
<g id="#4376c9ff">
<path fill="#4376c9" opacity="1.00" d=" M 198.16 16.32 L 198.60 15.73 C 199.32 16.72 200.29 17.36 201.52 17.66 C 201.97 18.51 202.41 19.36 202.84 20.22 C 202.66 20.43 202.28 20.85 202.09 21.06 C 204.64 20.91 207.27 20.87 209.81 20.52 C 209.22 21.66 209.37 22.60 210.26 23.34 C 211.93 23.37 211.26 21.05 210.42 20.38 C 211.45 20.03 212.47 19.69 213.51 19.34 L 214.36 19.20 C 213.47 19.72 212.60 20.25 211.74 20.80 C 215.82 20.96 219.91 20.96 224.00 20.80 L 224.00 27.87 C 221.89 29.97 217.78 31.20 217.92 34.73 C 219.36 36.46 221.20 37.80 222.91 39.25 C 217.90 38.23 212.91 37.06 208.25 34.87 C 208.50 33.99 208.75 33.10 209.01 32.21 C 211.04 33.07 213.05 33.96 215.06 34.87 C 215.76 32.76 216.64 30.73 217.63 28.73 C 210.39 26.97 202.86 27.09 195.47 27.51 C 197.76 26.33 200.05 25.15 202.33 23.95 C 196.00 25.44 189.90 28.41 183.23 27.89 C 183.56 27.04 183.89 26.20 184.24 25.35 C 183.65 25.09 182.48 24.55 181.89 24.29 C 182.14 23.92 182.63 23.18 182.87 22.82 C 188.89 23.94 194.96 23.14 200.76 21.30 C 200.65 20.63 200.55 19.95 200.45 19.28 C 199.15 18.90 197.83 18.60 196.51 18.35 C 197.09 17.70 197.64 17.02 198.16 16.32 Z" />
</g>
<g id="#4377c9fe">
<path fill="#4377c9" opacity="1.00" d=" M 30.09 17.26 L 30.61 16.59 C 31.34 17.34 32.12 18.04 32.94 18.70 C 33.72 19.43 34.49 20.16 35.25 20.91 C 34.92 21.17 34.24 21.70 33.91 21.97 C 36.53 21.84 39.19 21.86 41.81 21.53 C 41.22 22.67 41.37 23.61 42.26 24.34 C 43.93 24.37 43.27 22.05 42.42 21.39 C 43.45 21.02 44.47 20.65 45.50 20.29 L 46.33 20.14 C 45.47 20.69 44.60 21.25 43.74 21.82 C 47.84 22.01 51.94 21.95 56.03 21.65 C 56.06 22.13 56.12 23.08 56.15 23.55 C 56.07 25.05 55.99 26.54 55.91 28.04 C 55.90 28.37 55.88 29.04 55.87 29.38 C 53.61 31.08 49.54 32.23 49.94 35.73 C 51.37 37.47 53.20 38.80 54.91 40.25 C 49.90 39.23 44.91 38.06 40.25 35.87 C 40.50 34.99 40.76 34.10 41.01 33.21 C 43.12 34.14 45.27 35.02 47.37 35.99 C 48.44 33.32 48.53 30.43 46.96 27.92 C 47.66 27.65 48.36 27.37 49.05 27.09 C 44.03 27.23 39.02 27.89 33.99 27.85 C 35.19 30.58 36.43 33.32 38.20 35.74 C 32.90 35.07 30.13 38.95 29.82 43.55 C 29.31 43.65 28.30 43.84 27.79 43.94 C 27.75 41.93 27.49 39.88 27.93 37.90 C 29.33 35.69 31.74 34.38 33.39 32.38 C 33.48 30.68 33.24 28.98 32.99 27.30 C 27.33 27.35 21.66 27.20 15.99 27.33 C 15.74 26.21 15.52 25.09 15.23 23.98 C 21.14 24.87 27.08 24.09 32.76 22.31 C 32.66 21.64 32.55 20.96 32.45 20.29 C 31.14 19.90 29.82 19.56 28.48 19.28 C 29.04 18.62 29.57 17.95 30.09 17.26 Z" />
</g>
<g id="#719bc2ff">
<path fill="#719bc2" opacity="1.00" d=" M 51.77 18.81 C 52.40 16.93 54.84 16.61 56.04 18.14 L 56.03 18.72 C 54.80 19.03 53.55 19.14 52.28 19.05 L 51.77 18.81 Z" />
</g>
<g id="#2c88d4ff">
<path fill="#2c88d4" opacity="1.00" d=" M 125.69 17.25 L 126.37 17.25 C 127.00 17.29 128.28 17.36 128.91 17.40 C 131.06 17.61 133.21 17.86 135.35 18.15 C 136.45 18.34 137.55 18.56 138.65 18.77 L 138.32 19.08 C 134.52 20.19 130.09 19.17 126.79 21.65 C 126.53 21.99 126.03 22.67 125.77 23.01 C 126.41 23.49 127.67 24.44 128.30 24.92 C 127.51 26.90 126.76 28.90 126.21 30.97 C 125.96 30.73 125.46 30.26 125.21 30.03 C 124.35 29.23 123.48 28.44 122.61 27.66 C 123.12 26.32 123.59 24.96 124.12 23.63 L 124.50 22.69 C 125.32 21.81 125.55 20.81 125.19 19.69 C 125.32 19.08 125.57 17.86 125.69 17.25 Z" />
</g>
<g id="#8fa8baff">
<path fill="#8fa8ba" opacity="1.00" d=" M 128.91 17.40 C 130.28 17.49 131.64 17.59 133.00 17.70 C 133.59 17.81 134.76 18.04 135.35 18.15 C 133.21 17.86 131.06 17.61 128.91 17.40 Z" />
<path fill="#8fa8ba" opacity="1.00" d=" M 72.52 18.83 C 73.84 18.74 75.15 18.62 76.46 18.48 C 77.53 18.73 78.59 18.99 79.66 19.24 C 77.28 19.16 74.90 19.02 72.52 18.83 Z" />
<path fill="#8fa8ba" opacity="1.00" d=" M 184.52 18.83 C 185.84 18.74 187.15 18.62 188.46 18.48 C 189.53 18.73 190.59 18.99 191.66 19.24 C 189.27 19.16 186.89 19.02 184.52 18.83 Z" />
<path fill="#8fa8ba" opacity="1.00" d=" M 16.57 19.93 C 17.85 19.76 19.12 19.58 20.39 19.38 C 21.47 19.63 22.55 19.90 23.62 20.17 C 21.27 20.14 18.92 20.06 16.57 19.93 Z" />
</g>
<g id="#64569dff">
<path fill="#64569d" opacity="1.00" d=" M 138.32 19.08 C 139.67 18.67 140.99 18.17 142.32 17.69 C 143.32 18.51 144.27 19.38 145.19 20.28 C 139.23 22.12 132.95 23.10 126.79 21.65 C 130.09 19.17 134.52 20.19 138.32 19.08 Z" />
</g>
<g id="#86a0b1ff">
<path fill="#86a0b1" opacity="1.00" d=" M 151.04 17.47 C 151.78 17.29 153.27 16.91 154.02 16.73 L 154.27 17.47 C 153.21 18.11 152.13 18.11 151.04 17.47 Z" />
<path fill="#86a0b1" opacity="1.00" d=" M 95.00 18.52 C 95.74 18.32 97.23 17.92 97.97 17.72 L 98.17 18.48 C 97.13 19.12 96.08 19.14 95.00 18.52 Z" />
<path fill="#86a0b1" opacity="1.00" d=" M 207.00 18.52 C 207.74 18.32 209.23 17.92 209.97 17.72 L 210.17 18.48 C 209.13 19.12 208.08 19.14 207.00 18.52 Z" />
<path fill="#86a0b1" opacity="1.00" d=" M 39.44 18.58 L 40.44 18.30 L 41.63 18.67 L 42.00 19.44 C 41.07 19.78 40.14 19.79 39.21 19.45 L 39.44 18.58 Z" />
<path fill="#86a0b1" opacity="1.00" d=" M 153.88 19.57 L 154.48 19.45 C 155.11 20.58 155.15 21.74 154.58 22.93 C 154.30 22.76 153.74 22.43 153.46 22.27 C 153.56 21.59 153.78 20.25 153.88 19.57 Z" />
<path fill="#86a0b1" opacity="1.00" d=" M 97.79 20.60 L 98.39 20.41 C 99.16 21.21 99.40 22.16 99.11 23.24 C 98.79 23.30 98.14 23.43 97.82 23.49 C 97.81 22.77 97.80 21.32 97.79 20.60 Z" />
<path fill="#86a0b1" opacity="1.00" d=" M 209.81 20.52 L 210.42 20.38 C 211.26 21.05 211.93 23.37 210.26 23.34 C 209.37 22.60 209.22 21.66 209.81 20.52 Z" />
<path fill="#86a0b1" opacity="1.00" d=" M 41.81 21.53 L 42.42 21.39 C 43.27 22.05 43.93 24.37 42.26 24.34 C 41.37 23.61 41.22 22.67 41.81 21.53 Z" />
<path fill="#86a0b1" opacity="1.00" d=" M 66.32 27.44 C 66.45 26.31 67.05 25.51 68.10 25.05 C 67.83 25.75 67.27 27.14 66.99 27.84 L 66.32 27.44 Z" />
<path fill="#86a0b1" opacity="1.00" d=" M 178.25 27.42 C 178.38 26.29 178.99 25.51 180.06 25.07 C 179.76 25.77 179.17 27.17 178.88 27.88 L 178.25 27.42 Z" />
<path fill="#86a0b1" opacity="1.00" d=" M 123.99 32.49 C 124.29 31.87 124.90 30.64 125.21 30.03 C 125.46 30.26 125.96 30.73 126.21 30.97 L 126.19 31.65 C 125.97 31.92 125.53 32.47 125.31 32.75 C 124.98 32.68 124.32 32.55 123.99 32.49 Z" />
<path fill="#86a0b1" opacity="1.00" d=" M 124.02 50.86 C 124.46 50.71 125.33 50.42 125.77 50.27 C 126.74 51.46 125.12 53.12 124.09 51.71 L 124.02 50.86 Z" />
</g>
<g id="#63579eff">
<path fill="#63579e" opacity="1.00" d=" M 154.27 17.47 C 154.71 17.34 155.60 17.08 156.05 16.95 C 156.42 17.27 157.16 17.90 157.54 18.22 C 156.52 18.63 155.50 19.04 154.48 19.45 L 153.88 19.57 C 151.24 19.83 148.54 19.72 145.91 19.84 C 146.22 19.71 146.85 19.44 147.17 19.30 C 147.69 19.05 148.73 18.54 149.25 18.29 C 149.70 18.09 150.59 17.68 151.04 17.47 C 152.13 18.11 153.21 18.11 154.27 17.47 Z" />
<path fill="#63579e" opacity="1.00" d=" M 98.17 18.48 C 98.59 18.35 99.42 18.09 99.84 17.97 C 100.25 18.30 101.08 18.98 101.49 19.32 C 100.46 19.67 99.42 20.04 98.39 20.41 L 97.79 20.60 C 95.25 20.92 92.65 20.92 90.10 21.03 C 90.29 20.82 90.65 20.42 90.84 20.22 C 91.43 19.97 92.61 19.48 93.20 19.23 C 93.65 19.05 94.55 18.69 95.00 18.52 C 96.08 19.14 97.13 19.12 98.17 18.48 Z" />
<path fill="#63579e" opacity="1.00" d=" M 210.17 18.48 C 210.59 18.35 211.43 18.10 211.84 17.97 C 212.26 18.31 213.09 19.00 213.51 19.34 C 212.47 19.69 211.45 20.03 210.42 20.38 L 209.81 20.52 C 207.27 20.87 204.64 20.91 202.09 21.06 C 202.28 20.85 202.66 20.43 202.84 20.22 C 203.43 19.97 204.61 19.48 205.20 19.23 C 205.65 19.05 206.55 18.69 207.00 18.52 C 208.08 19.14 209.13 19.12 210.17 18.48 Z" />
<path fill="#63579e" opacity="1.00" d=" M 42.00 19.44 C 42.45 19.34 43.36 19.13 43.81 19.03 C 44.24 19.34 45.08 19.97 45.50 20.29 C 44.47 20.65 43.45 21.02 42.42 21.39 L 41.81 21.53 C 39.19 21.86 36.53 21.84 33.91 21.97 C 34.24 21.70 34.92 21.17 35.25 20.91 C 35.78 20.72 36.82 20.35 37.35 20.16 C 37.81 19.98 38.75 19.63 39.21 19.45 C 40.14 19.79 41.07 19.78 42.00 19.44 Z" />
</g>
<g id="#65569cff">
<path fill="#65569c" opacity="1.00" d=" M 158.81 17.73 C 160.63 17.31 162.49 17.09 164.35 16.93 L 165.28 17.11 C 165.92 17.02 167.20 16.84 167.84 16.75 C 167.87 17.57 167.93 19.23 167.96 20.05 C 163.90 19.96 159.83 19.91 155.77 19.78 C 156.60 19.20 157.44 18.63 158.28 18.07 L 158.81 17.73 Z" />
<path fill="#65569c" opacity="1.00" d=" M 102.91 18.88 C 104.70 18.39 106.52 18.07 108.36 17.81 L 109.28 18.02 C 109.92 17.95 111.21 17.82 111.85 17.75 C 111.87 18.59 111.91 20.26 111.93 21.10 C 107.87 20.93 103.81 20.92 99.75 20.77 C 100.61 20.23 101.47 19.70 102.35 19.19 L 102.91 18.88 Z" />
<path fill="#65569c" opacity="1.00" d=" M 214.91 18.89 C 216.71 18.39 218.55 18.05 220.41 17.79 L 221.38 17.99 C 222.04 17.91 223.35 17.75 224.00 17.67 L 224.00 20.80 C 219.91 20.96 215.82 20.96 211.74 20.80 C 212.60 20.25 213.47 19.72 214.36 19.20 L 214.91 18.89 Z" />
<path fill="#65569c" opacity="1.00" d=" M 46.87 19.81 C 48.65 19.43 50.46 19.18 52.28 19.05 C 53.55 19.14 54.80 19.03 56.03 18.72 C 56.03 19.32 56.02 20.51 56.02 21.10 L 56.03 21.65 C 51.94 21.95 47.84 22.01 43.74 21.82 C 44.60 21.25 45.47 20.69 46.33 20.14 L 46.87 19.81 Z" />
</g>
<g id="#3d7bceff">
<path fill="#3d7bce" opacity="1.00" d=" M 36.90 18.59 C 37.36 18.44 38.29 18.13 38.76 17.98 L 39.44 18.58 L 39.21 19.45 C 38.75 19.63 37.81 19.98 37.35 20.16 C 37.24 19.77 37.01 18.99 36.90 18.59 Z" />
</g>
<g id="#675a9dff">
<path fill="#675a9d" opacity="1.00" d=" M 84.51 18.35 C 85.84 18.60 87.15 18.90 88.45 19.27 C 88.55 19.95 88.65 20.63 88.75 21.30 C 82.95 23.17 76.86 23.91 70.82 22.83 C 71.02 22.61 71.41 22.18 71.60 21.96 C 75.65 20.99 80.38 21.51 83.85 18.78 L 84.51 18.35 Z" />
<path fill="#675a9d" opacity="1.00" d=" M 196.51 18.35 C 197.83 18.60 199.15 18.90 200.45 19.28 C 200.55 19.95 200.65 20.63 200.76 21.30 C 194.96 23.14 188.89 23.94 182.87 22.82 C 183.05 22.60 183.42 22.18 183.60 21.96 C 187.65 21.00 192.37 21.50 195.85 18.78 L 196.51 18.35 Z" />
<path fill="#675a9d" opacity="1.00" d=" M 28.48 19.28 C 29.82 19.56 31.14 19.90 32.45 20.29 C 32.55 20.96 32.66 21.64 32.76 22.31 C 27.08 24.09 21.14 24.87 15.23 23.98 C 15.14 23.67 14.96 23.04 14.87 22.72 C 19.12 21.94 24.22 22.76 27.81 19.74 L 28.48 19.28 Z" />
</g>
<g id="#4476caff">
<path fill="#4476ca" opacity="1.00" d=" M 154.48 19.45 C 155.50 19.04 156.52 18.63 157.54 18.22 L 158.28 18.07 C 157.44 18.63 156.60 19.20 155.77 19.78 C 159.83 19.91 163.90 19.96 167.96 20.05 L 168.03 21.11 L 168.08 21.67 C 168.12 22.15 168.20 23.09 168.24 23.56 C 168.21 24.23 168.15 25.55 168.13 26.21 C 163.34 26.43 158.71 25.32 154.58 22.93 C 155.15 21.74 155.11 20.58 154.48 19.45 Z" />
</g>
<g id="#3084cfff">
<path fill="#3084cf" opacity="1.00" d=" M 69.84 19.08 L 70.18 18.86 C 70.77 18.85 71.94 18.84 72.52 18.83 C 74.90 19.02 77.28 19.16 79.66 19.24 C 80.75 19.20 81.83 19.11 82.91 18.98 L 83.85 18.78 C 80.38 21.51 75.65 20.99 71.60 21.96 C 71.41 22.18 71.02 22.61 70.82 22.83 C 70.56 23.23 70.03 24.03 69.77 24.42 C 70.47 24.60 71.86 24.96 72.56 25.14 C 71.69 26.91 70.99 28.75 70.43 30.64 C 70.04 30.26 69.27 29.51 68.88 29.13 C 68.41 28.81 67.47 28.16 66.99 27.84 C 67.27 27.14 67.83 25.75 68.10 25.05 C 68.08 24.65 68.04 23.86 68.02 23.46 C 69.28 23.02 69.77 22.09 69.48 20.64 L 69.65 19.88 L 69.84 19.08 Z" />
</g>
<g id="#4277c9ff">
<path fill="#4277c9" opacity="1.00" d=" M 98.39 20.41 C 99.42 20.04 100.46 19.67 101.49 19.32 L 102.35 19.19 C 101.47 19.70 100.61 20.23 99.75 20.77 C 103.81 20.92 107.87 20.93 111.93 21.10 L 112.01 21.63 C 112.08 22.10 112.22 23.03 112.29 23.49 C 112.15 24.95 112.03 26.41 111.91 27.87 L 111.87 28.46 C 109.91 29.65 107.82 30.73 106.24 32.43 C 104.82 35.75 109.08 37.26 110.91 39.25 C 105.90 38.23 100.91 37.06 96.25 34.87 C 96.50 33.99 96.75 33.10 97.01 32.21 C 99.03 33.07 101.05 33.95 103.05 34.87 C 103.71 32.90 104.52 30.99 105.46 29.14 C 102.57 28.18 99.69 27.19 96.79 26.25 L 102.40 25.46 C 101.29 24.73 100.18 24.01 99.11 23.24 C 99.40 22.16 99.16 21.21 98.39 20.41 Z" />
</g>
<g id="#3185cfff">
<path fill="#3185cf" opacity="1.00" d=" M 181.84 19.08 L 182.18 18.86 C 182.77 18.85 183.94 18.84 184.52 18.83 C 186.89 19.02 189.27 19.16 191.66 19.24 C 192.74 19.20 193.83 19.11 194.91 18.98 L 195.85 18.78 C 192.37 21.50 187.65 21.00 183.60 21.96 C 183.42 22.18 183.05 22.60 182.87 22.82 C 182.63 23.18 182.14 23.92 181.89 24.29 C 182.48 24.55 183.65 25.09 184.24 25.35 C 183.89 26.20 183.56 27.04 183.23 27.89 C 182.88 28.84 182.62 29.81 182.41 30.80 C 182.12 30.55 181.54 30.04 181.25 29.79 C 180.66 29.31 179.47 28.35 178.88 27.88 C 179.17 27.17 179.76 25.77 180.06 25.07 C 180.05 24.67 180.04 23.87 180.04 23.46 C 181.29 23.02 181.77 22.08 181.48 20.64 L 181.66 19.88 L 181.84 19.08 Z" />
</g>
<g id="#65955fff">
<path fill="#65955f" opacity="1.00" d=" M 0.00 21.27 C 0.88 20.43 3.14 19.51 3.55 21.26 C 2.99 22.67 1.08 22.17 0.00 21.78 L 0.00 21.27 Z" />
<path fill="#65955f" opacity="1.00" d=" M 56.02 21.10 C 56.93 20.27 59.18 19.62 59.53 21.31 C 58.95 22.72 57.06 22.09 56.03 21.65 L 56.02 21.10 Z" />
<path fill="#65955f" opacity="1.00" d=" M 111.93 21.10 C 112.87 20.28 115.10 19.63 115.52 21.29 C 114.96 22.72 113.05 22.05 112.01 21.63 L 111.93 21.10 Z" />
<path fill="#65955f" opacity="1.00" d=" M 168.03 21.11 C 168.94 20.27 171.18 19.61 171.53 21.30 C 170.99 22.70 169.10 22.11 168.08 21.67 L 168.03 21.11 Z" />
<path fill="#65955f" opacity="1.00" d=" M 0.00 49.26 C 0.88 48.42 3.15 47.52 3.55 49.26 C 2.99 50.67 1.08 50.16 0.00 49.77 L 0.00 49.26 Z" />
<path fill="#65955f" opacity="1.00" d=" M 56.28 49.32 C 56.99 48.28 59.25 47.47 59.60 49.22 C 59.19 50.62 57.33 50.26 56.30 49.90 L 56.28 49.32 Z" />
<path fill="#65955f" opacity="1.00" d=" M 112.30 49.44 C 112.92 48.31 115.23 47.44 115.59 49.21 C 115.17 50.57 113.38 50.29 112.32 50.04 L 112.30 49.44 Z" />
<path fill="#65955f" opacity="1.00" d=" M 168.24 49.36 C 168.93 48.29 171.21 47.48 171.59 49.22 C 171.16 50.58 169.33 50.24 168.29 49.95 L 168.24 49.36 Z" />
</g>
<g id="#6c5e4cff">
<path fill="#6c5e4c" opacity="1.00" d=" M 9.63 19.87 C 10.83 20.06 12.04 20.27 13.23 20.52 C 13.45 20.90 13.89 21.66 14.11 22.04 C 13.51 22.42 12.29 23.19 11.68 23.57 C 11.19 23.44 10.22 23.18 9.73 23.05 C 9.71 21.99 9.68 20.93 9.63 19.87 Z" />
<path fill="#6c5e4c" opacity="1.00" d=" M 9.50 48.23 C 10.40 48.12 12.18 47.91 13.07 47.80 C 13.31 48.48 13.80 49.84 14.04 50.52 C 13.41 50.63 12.13 50.83 11.49 50.94 C 11.05 51.04 10.16 51.24 9.71 51.35 C 9.65 50.31 9.58 49.26 9.50 48.23 Z" />
<path fill="#6c5e4c" opacity="1.00" d=" M 65.51 48.22 C 66.40 48.11 68.20 47.91 69.10 47.80 C 69.34 48.48 69.83 49.84 70.08 50.53 C 69.51 50.74 68.38 51.18 67.82 51.40 C 67.30 51.36 66.25 51.30 65.73 51.26 C 65.66 50.25 65.58 49.23 65.51 48.22 Z" />
<path fill="#6c5e4c" opacity="1.00" d=" M 121.52 48.23 C 122.37 48.10 124.07 47.84 124.93 47.71 C 125.21 48.56 125.49 49.42 125.77 50.27 C 125.33 50.42 124.46 50.71 124.02 50.86 C 123.45 50.99 122.29 51.24 121.71 51.37 C 121.66 50.32 121.59 49.28 121.52 48.23 Z" />
<path fill="#6c5e4c" opacity="1.00" d=" M 177.51 48.22 C 178.40 48.11 180.20 47.91 181.10 47.80 C 181.34 48.48 181.83 49.84 182.08 50.52 C 181.51 50.74 180.38 51.18 179.82 51.40 C 179.30 51.36 178.25 51.30 177.73 51.26 C 177.66 50.25 177.58 49.23 177.51 48.22 Z" />
</g>
<g id="#3182cdff">
<path fill="#3182cd" opacity="1.00" d=" M 13.23 20.52 L 14.08 20.21 C 14.71 20.14 15.95 20.00 16.57 19.93 C 18.92 20.06 21.27 20.14 23.62 20.17 C 24.26 20.13 25.52 20.05 26.15 20.01 L 26.81 19.92 L 27.81 19.74 C 24.22 22.76 19.12 21.94 14.87 22.72 C 14.96 23.04 15.14 23.67 15.23 23.98 C 15.52 25.09 15.74 26.21 15.99 27.33 C 15.53 28.43 15.07 29.53 14.66 30.64 C 14.22 30.19 13.33 29.28 12.89 28.83 L 12.57 27.51 C 12.33 26.44 12.08 25.36 11.83 24.28 C 13.31 25.45 15.44 23.50 14.11 22.04 C 13.89 21.66 13.45 20.90 13.23 20.52 Z" />
</g>
<g id="#6e5f4cff">
<path fill="#6e5f4c" opacity="1.00" d=" M 65.64 20.19 C 66.98 20.09 68.32 19.98 69.65 19.88 L 69.48 20.64 C 68.11 21.21 67.63 22.15 68.02 23.46 C 67.45 23.35 66.33 23.14 65.76 23.03 C 65.74 22.08 65.70 21.13 65.64 20.19 Z" />
<path fill="#6e5f4c" opacity="1.00" d=" M 177.64 20.19 C 178.98 20.09 180.31 19.98 181.66 19.88 L 181.48 20.64 C 180.11 21.21 179.63 22.15 180.04 23.46 C 179.47 23.36 178.33 23.14 177.76 23.03 C 177.74 22.08 177.70 21.14 177.64 20.19 Z" />
</g>
<g id="#adc2d9ff">
<path fill="#adc2d9" opacity="1.00" d=" M 123.69 21.11 C 124.06 20.76 124.82 20.05 125.19 19.69 C 125.55 20.81 125.32 21.81 124.50 22.69 C 124.30 22.30 123.89 21.51 123.69 21.11 Z" />
<path fill="#adc2d9" opacity="1.00" d=" M 68.02 23.46 C 67.63 22.15 68.11 21.21 69.48 20.64 C 69.77 22.09 69.28 23.02 68.02 23.46 Z" />
<path fill="#adc2d9" opacity="1.00" d=" M 180.04 23.46 C 179.63 22.15 180.11 21.21 181.48 20.64 C 181.77 22.08 181.29 23.02 180.04 23.46 Z" />
</g>
<g id="#35312dff">
<path fill="#35312d" opacity="1.00" d=" M 117.66 21.60 C 119.79 22.34 121.93 23.05 124.12 23.63 C 123.59 24.96 123.12 26.32 122.61 27.66 C 122.00 29.24 121.35 30.80 120.74 32.38 C 121.82 32.42 122.90 32.46 123.99 32.49 C 124.32 32.55 124.98 32.68 125.31 32.75 C 124.28 35.05 123.70 37.50 123.20 39.96 C 122.86 41.06 122.93 42.12 123.39 43.17 C 123.92 44.67 124.43 46.19 124.93 47.71 C 124.07 47.84 122.37 48.10 121.52 48.23 C 120.53 40.40 120.26 32.45 118.97 24.67 C 118.80 24.27 118.48 23.45 118.32 23.05 C 118.15 22.69 117.82 21.96 117.66 21.60 Z" />
</g>
<g id="#9db4c9ff">
<path fill="#9db4c9" opacity="1.00" d=" M 11.68 23.57 C 12.29 23.19 13.51 22.42 14.11 22.04 C 15.44 23.50 13.31 25.45 11.83 24.28 L 11.68 23.57 Z" />
<path fill="#9db4c9" opacity="1.00" d=" M 11.49 50.94 C 12.13 50.83 13.41 50.63 14.04 50.52 C 14.16 50.92 14.41 51.72 14.53 52.12 L 14.17 52.78 C 13.55 52.50 12.31 51.95 11.69 51.67 L 11.49 50.94 Z" />
<path fill="#9db4c9" opacity="1.00" d=" M 67.82 51.40 C 68.38 51.18 69.51 50.74 70.08 50.53 C 70.20 50.98 70.43 51.88 70.55 52.34 L 70.39 53.13 C 69.76 52.90 68.51 52.43 67.88 52.19 L 67.82 51.40 Z" />
<path fill="#9db4c9" opacity="1.00" d=" M 179.82 51.40 C 180.38 51.18 181.51 50.74 182.08 50.52 C 182.20 50.98 182.44 51.88 182.56 52.34 L 182.39 53.13 C 181.77 52.90 180.51 52.43 179.88 52.19 L 179.82 51.40 Z" />
</g>
<g id="#3c6cbfff">
<path fill="#3c6cbf" opacity="1.00" d=" M 153.46 22.27 C 153.74 22.43 154.30 22.76 154.58 22.93 C 158.71 25.32 163.34 26.43 168.13 26.21 C 168.11 26.69 168.07 27.65 168.05 28.12 C 167.90 33.51 167.69 38.89 167.73 44.28 C 166.50 43.82 164.82 43.20 163.73 44.25 C 163.90 46.03 166.64 45.25 167.76 44.77 C 167.90 46.30 168.06 47.83 168.24 49.36 L 168.29 49.95 L 167.67 50.41 C 164.45 51.40 161.22 52.32 157.96 53.20 C 156.17 53.31 154.85 54.52 153.98 56.00 L 143.93 56.00 C 145.46 53.38 140.57 53.39 142.12 56.00 L 125.91 56.00 C 128.24 48.05 126.34 39.75 126.19 31.65 L 126.21 30.97 C 126.76 28.90 127.51 26.90 128.30 24.92 C 131.67 28.72 136.75 25.42 140.74 24.89 C 139.26 26.67 137.84 28.49 136.48 30.36 C 133.87 30.23 131.27 30.09 128.66 30.16 C 131.29 31.28 133.87 32.71 136.72 33.16 C 139.66 31.57 141.31 28.18 140.74 24.89 C 143.66 23.94 146.69 24.17 149.56 25.10 C 150.87 24.17 152.17 23.23 153.46 22.27 M 148.59 28.47 C 147.31 32.28 143.49 33.08 140.24 34.45 C 138.78 37.26 140.20 40.62 140.30 43.49 C 141.14 38.84 143.88 34.41 149.06 34.04 C 155.14 34.94 160.97 37.14 167.06 38.10 C 165.43 36.95 163.72 35.88 162.28 34.50 C 160.97 31.49 164.49 29.54 165.97 27.40 C 161.73 27.12 160.35 30.95 158.56 33.73 C 157.02 33.02 155.50 32.27 153.97 31.55 C 153.00 32.02 152.02 32.49 151.02 32.92 C 150.18 31.45 149.35 29.97 148.59 28.47 M 154.20 44.38 C 152.11 44.87 150.40 43.16 148.64 42.35 C 148.46 43.11 148.26 43.87 148.05 44.62 C 152.36 46.47 157.09 48.12 161.33 45.07 C 161.03 43.07 160.74 41.07 160.59 39.06 C 158.80 41.16 157.22 44.04 154.20 44.38 M 137.53 43.26 C 136.62 44.41 138.59 45.86 139.47 44.74 C 140.38 43.59 138.41 42.14 137.53 43.26 Z" />
<path fill="#3c6cbf" opacity="1.00" d=" M 97.82 23.49 C 98.14 23.43 98.79 23.30 99.11 23.24 C 100.18 24.01 101.29 24.73 102.40 25.46 L 96.79 26.25 C 99.69 27.19 102.57 28.18 105.46 29.14 C 104.52 30.99 103.71 32.90 103.05 34.87 C 101.05 33.95 99.03 33.07 97.01 32.21 C 96.75 33.10 96.50 33.99 96.25 34.87 C 100.91 37.06 105.90 38.23 110.91 39.25 C 109.08 37.26 104.82 35.75 106.24 32.43 C 107.82 30.73 109.91 29.65 111.87 28.46 C 111.88 33.99 111.79 39.54 112.06 45.07 C 109.36 44.98 106.66 44.94 103.96 44.96 C 103.70 42.89 103.50 40.81 103.14 38.76 C 102.31 40.60 101.50 42.44 100.77 44.32 C 96.06 43.63 91.22 43.02 86.54 44.31 C 90.86 45.26 95.14 46.48 99.51 47.21 C 103.73 47.23 107.89 46.14 112.10 45.98 C 112.15 46.84 112.25 48.58 112.30 49.44 L 112.32 50.04 L 111.65 50.53 C 108.79 51.17 105.96 51.88 103.06 52.27 C 102.74 52.15 102.09 51.90 101.77 51.78 C 100.27 53.24 98.74 54.67 97.13 56.00 L 69.61 56.00 C 69.81 55.28 70.20 53.85 70.39 53.13 L 70.55 52.34 C 71.69 45.40 70.21 38.39 70.39 31.41 L 70.43 30.64 C 70.99 28.75 71.69 26.91 72.56 25.14 C 73.57 25.35 74.59 25.57 75.60 25.82 C 75.23 26.77 74.87 27.73 74.51 28.69 C 81.91 25.51 90.03 25.17 97.82 23.49 M 84.54 26.28 C 83.08 28.50 88.24 29.04 87.82 26.68 C 87.26 25.49 85.42 25.40 84.54 26.28 M 90.85 27.91 C 91.79 32.31 87.58 33.83 84.56 35.70 C 81.75 37.30 85.22 41.52 84.17 43.44 C 85.36 38.55 89.27 35.01 94.48 34.72 C 93.27 32.64 92.48 30.36 92.01 28.00 C 91.72 27.98 91.14 27.93 90.85 27.91 Z" />
</g>
<g id="#6d9a59ff">
<path fill="#6d9a59" opacity="1.00" d=" M 0.84 25.62 C 2.42 24.29 4.26 23.31 6.33 23.04 C 6.49 23.45 6.82 24.26 6.98 24.67 C 6.47 25.54 5.91 26.39 5.36 27.23 C 7.54 34.51 6.46 42.15 5.56 49.53 C 4.10 46.41 2.89 43.18 1.55 40.00 C 2.76 37.23 3.17 34.18 1.78 31.37 C 1.34 32.13 0.45 33.63 0.00 34.39 L 0.00 30.86 C 1.88 30.86 1.88 28.17 0.00 28.17 L 0.00 23.51 C 0.27 24.22 0.55 24.92 0.84 25.62 M 3.40 31.15 C 2.97 32.55 3.45 33.03 4.85 32.60 C 5.29 31.20 4.80 30.71 3.40 31.15 Z" />
</g>
<g id="#6d9a59fe">
<path fill="#6d9a59" opacity="1.00" d=" M 58.85 23.13 C 60.07 23.28 61.29 23.42 62.51 23.59 C 62.61 23.87 62.83 24.44 62.94 24.73 C 62.44 25.57 61.90 26.40 61.36 27.22 C 63.52 34.51 62.50 42.16 61.53 49.54 C 57.79 44.32 57.65 38.14 58.82 32.16 C 59.60 32.33 60.39 32.50 61.17 32.68 C 59.43 31.12 57.66 29.59 55.91 28.04 C 55.99 26.54 56.07 25.05 56.15 23.55 C 56.57 24.48 57.00 25.40 57.44 26.31 C 57.92 25.26 58.39 24.20 58.85 23.13 Z" />
<path fill="#6d9a59" opacity="1.00" d=" M 112.82 25.65 C 114.39 24.30 116.23 23.29 118.32 23.05 C 118.48 23.45 118.80 24.27 118.97 24.67 C 118.46 25.54 117.92 26.38 117.36 27.22 C 119.51 34.50 118.50 42.15 117.53 49.53 C 113.78 44.32 113.65 38.13 114.82 32.15 C 115.59 32.33 116.38 32.52 117.16 32.70 C 115.40 31.10 113.63 29.51 111.91 27.87 C 112.03 26.41 112.15 24.95 112.29 23.49 C 112.46 24.21 112.63 24.93 112.82 25.65 Z" />
<path fill="#6d9a59" opacity="1.00" d=" M 168.82 25.63 C 170.40 24.29 172.25 23.31 174.34 23.04 C 174.49 23.45 174.81 24.26 174.97 24.67 C 174.46 25.53 173.92 26.38 173.36 27.22 C 175.51 34.51 174.50 42.16 173.53 49.54 C 169.78 44.32 169.65 38.13 170.82 32.15 C 171.60 32.33 172.38 32.52 173.17 32.69 C 171.53 31.09 169.70 29.71 168.05 28.12 C 168.07 27.65 168.11 26.69 168.13 26.21 C 168.15 25.55 168.21 24.23 168.24 23.56 C 168.42 24.25 168.62 24.95 168.82 25.63 Z" />
</g>
<g id="#3c6cbffe">
<path fill="#3c6cbf" opacity="1.00" d=" M 183.23 27.89 C 189.90 28.41 196.00 25.44 202.33 23.95 C 200.05 25.15 197.76 26.33 195.47 27.51 C 202.86 27.09 210.39 26.97 217.63 28.73 C 216.64 30.73 215.76 32.76 215.06 34.87 C 213.05 33.96 211.04 33.07 209.01 32.21 C 208.75 33.10 208.50 33.99 208.25 34.87 C 212.91 37.06 217.90 38.23 222.91 39.25 C 221.20 37.80 219.36 36.46 217.92 34.73 C 217.78 31.20 221.89 29.97 224.00 27.87 L 224.00 45.10 C 215.52 45.15 206.96 42.09 198.56 44.33 C 202.88 45.24 207.15 46.47 211.51 47.22 C 215.71 47.27 219.83 46.08 224.00 45.76 L 224.00 50.55 C 221.01 51.16 218.07 51.85 215.06 52.24 C 214.73 52.13 214.08 51.89 213.76 51.77 C 212.26 53.23 210.74 54.67 209.13 56.00 L 181.61 56.00 C 181.81 55.28 182.20 53.85 182.39 53.13 L 182.56 52.34 C 183.68 45.46 182.27 38.50 182.37 31.58 L 182.41 30.80 C 182.62 29.81 182.88 28.84 183.23 27.89 M 202.85 27.91 C 203.79 32.31 199.58 33.83 196.56 35.70 C 193.76 37.30 197.19 41.52 196.17 43.44 C 197.36 38.55 201.27 35.01 206.48 34.72 C 205.27 32.64 204.48 30.36 204.01 28.00 C 203.72 27.98 203.14 27.93 202.85 27.91 Z" />
</g>
<g id="#465943ff">
<path fill="#465943" opacity="1.00" d=" M 6.98 24.67 C 8.28 32.45 8.51 40.39 9.50 48.23 C 9.58 49.26 9.65 50.31 9.71 51.35 C 8.34 50.72 6.96 50.10 5.56 49.53 C 6.46 42.15 7.54 34.51 5.36 27.23 C 5.91 26.39 6.47 25.54 6.98 24.67 Z" />
<path fill="#465943" opacity="1.00" d=" M 62.94 24.73 C 64.34 32.47 64.48 40.41 65.51 48.22 C 65.58 49.23 65.66 50.25 65.73 51.26 C 64.31 50.73 62.93 50.12 61.53 49.54 C 62.50 42.16 63.52 34.51 61.36 27.22 C 61.90 26.40 62.44 25.57 62.94 24.73 Z" />
<path fill="#465943" opacity="1.00" d=" M 118.97 24.67 C 120.26 32.45 120.53 40.40 121.52 48.23 C 121.59 49.28 121.66 50.32 121.71 51.37 C 120.32 50.76 118.93 50.14 117.53 49.53 C 118.50 42.15 119.51 34.50 117.36 27.22 C 117.92 26.38 118.46 25.54 118.97 24.67 Z" />
<path fill="#465943" opacity="1.00" d=" M 174.97 24.67 C 176.29 32.44 176.50 40.39 177.51 48.22 C 177.58 49.23 177.66 50.25 177.73 51.26 C 176.31 50.73 174.92 50.12 173.53 49.54 C 174.50 42.16 175.51 34.51 173.36 27.22 C 173.92 26.38 174.46 25.53 174.97 24.67 Z" />
</g>
<g id="#437acbfe">
<path fill="#437acb" opacity="1.00" d=" M 84.54 26.28 C 85.42 25.40 87.26 25.49 87.82 26.68 C 88.24 29.04 83.08 28.50 84.54 26.28 Z" />
</g>
<g id="#4475caff">
<path fill="#4475ca" opacity="1.00" d=" M 140.74 24.89 C 141.31 28.18 139.66 31.57 136.72 33.16 C 133.87 32.71 131.29 31.28 128.66 30.16 C 131.27 30.09 133.87 30.23 136.48 30.36 C 137.84 28.49 139.26 26.67 140.74 24.89 Z" />
</g>
<g id="#3c6bbeff">
<path fill="#3c6bbe" opacity="1.00" d=" M 14.66 30.64 C 15.07 29.53 15.53 28.43 15.99 27.33 C 21.66 27.20 27.33 27.35 32.99 27.30 C 33.24 28.98 33.48 30.68 33.39 32.38 C 31.74 34.38 29.33 35.69 27.93 37.90 C 27.49 39.88 27.75 41.93 27.79 43.94 C 28.30 43.84 29.31 43.65 29.82 43.55 C 30.13 38.95 32.90 35.07 38.20 35.74 C 36.43 33.32 35.19 30.58 33.99 27.85 C 39.02 27.89 44.03 27.23 49.05 27.09 C 48.36 27.37 47.66 27.65 46.96 27.92 C 48.53 30.43 48.44 33.32 47.37 35.99 C 45.27 35.02 43.12 34.14 41.01 33.21 C 40.76 34.10 40.50 34.99 40.25 35.87 C 44.91 38.06 49.90 39.23 54.91 40.25 C 53.20 38.80 51.37 37.47 49.94 35.73 C 49.54 32.23 53.61 31.08 55.87 29.38 C 55.95 35.06 55.69 40.75 56.08 46.42 C 53.13 45.88 50.11 45.70 47.23 44.82 C 46.84 43.36 46.63 41.87 46.47 40.38 C 43.75 44.25 38.67 44.70 34.54 43.08 C 33.31 43.92 32.09 44.75 30.85 45.57 C 35.29 45.09 39.86 45.75 43.39 48.68 C 47.07 45.66 51.79 46.72 56.14 47.17 C 56.17 47.71 56.25 48.79 56.28 49.32 L 56.30 49.90 L 55.73 50.33 C 52.39 51.28 48.82 51.91 45.99 54.05 C 46.50 52.98 46.99 51.89 47.47 50.80 L 46.37 51.02 C 45.13 51.18 43.88 51.33 42.64 51.45 C 42.45 52.14 42.07 53.50 41.88 54.19 C 41.75 54.64 41.49 55.55 41.36 56.00 L 31.60 56.00 C 29.53 51.80 27.01 47.54 22.16 46.24 C 23.70 48.30 26.97 49.74 26.86 52.62 C 25.10 54.11 22.99 55.10 20.89 56.00 L 15.10 56.00 C 14.79 54.92 14.48 53.85 14.17 52.78 L 14.53 52.12 C 15.24 50.77 15.95 49.44 16.69 48.11 C 16.05 46.63 15.46 45.12 14.84 43.63 C 16.23 39.63 15.56 35.40 14.71 31.37 L 14.66 30.64 M 16.69 32.06 C 19.34 33.36 22.09 34.44 24.81 35.60 C 26.00 34.21 27.22 32.86 28.50 31.55 C 24.63 32.68 20.64 31.98 16.69 32.06 Z" />
</g>
<g id="#85af5fff">
<path fill="#85af5f" opacity="1.00" d=" M 55.91 28.04 C 57.66 29.59 59.43 31.12 61.17 32.68 C 60.39 32.50 59.60 32.33 58.82 32.16 C 57.65 38.14 57.79 44.32 61.53 49.54 C 61.79 50.07 62.30 51.13 62.56 51.65 C 61.32 51.48 60.09 51.33 58.85 51.15 C 58.55 51.94 58.25 52.73 57.96 53.52 C 56.71 52.80 55.41 52.15 54.10 51.54 C 54.51 51.24 55.32 50.63 55.73 50.33 L 56.30 49.90 C 57.33 50.26 59.19 50.62 59.60 49.22 C 59.25 47.47 56.99 48.28 56.28 49.32 C 56.25 48.79 56.17 47.71 56.14 47.17 L 56.08 46.42 C 55.69 40.75 55.95 35.06 55.87 29.38 C 55.88 29.04 55.90 28.37 55.91 28.04 Z" />
<path fill="#85af5f" opacity="1.00" d=" M 111.91 27.87 C 113.63 29.51 115.40 31.10 117.16 32.70 C 116.38 32.52 115.59 32.33 114.82 32.15 C 113.65 38.13 113.78 44.32 117.53 49.53 C 117.79 50.06 118.30 51.12 118.56 51.65 C 117.32 51.48 116.09 51.33 114.85 51.16 C 114.55 51.94 114.25 52.72 113.96 53.51 C 112.72 52.81 111.44 52.18 110.15 51.60 C 110.53 51.33 111.27 50.80 111.65 50.53 L 112.32 50.04 C 113.38 50.29 115.17 50.57 115.59 49.21 C 115.23 47.44 112.92 48.31 112.30 49.44 C 112.25 48.58 112.15 46.84 112.10 45.98 L 112.06 45.07 C 111.79 39.54 111.88 33.99 111.87 28.46 L 111.91 27.87 Z" />
<path fill="#85af5f" opacity="1.00" d=" M 168.05 28.12 C 169.70 29.71 171.53 31.09 173.17 32.69 C 172.38 32.52 171.60 32.33 170.82 32.15 C 169.65 38.13 169.78 44.32 173.53 49.54 C 173.79 50.07 174.30 51.13 174.56 51.65 C 173.32 51.48 172.09 51.33 170.85 51.16 C 170.55 51.94 170.25 52.72 169.96 53.51 C 168.71 52.81 167.42 52.18 166.13 51.56 C 166.52 51.27 167.29 50.70 167.67 50.41 L 168.29 49.95 C 169.33 50.24 171.16 50.58 171.59 49.22 C 171.21 47.48 168.93 48.29 168.24 49.36 C 168.06 47.83 167.90 46.30 167.76 44.77 L 167.73 44.28 C 167.69 38.89 167.90 33.51 168.05 28.12 Z" />
</g>
<g id="#565248fe">
<path fill="#565248" opacity="1.00" d=" M 64.89 32.39 C 65.38 30.74 65.89 29.10 66.32 27.44 L 66.99 27.84 C 67.47 28.16 68.41 28.81 68.88 29.13 C 68.18 30.18 67.89 31.33 68.01 32.58 C 66.97 32.51 65.93 32.45 64.89 32.39 Z" />
<path fill="#565248" opacity="1.00" d=" M 120.74 32.38 C 121.35 30.80 122.00 29.24 122.61 27.66 C 123.48 28.44 124.35 29.23 125.21 30.03 C 124.90 30.64 124.29 31.87 123.99 32.49 C 122.90 32.46 121.82 32.42 120.74 32.38 Z" />
<path fill="#565248" opacity="1.00" d=" M 176.89 32.45 C 177.35 30.77 177.83 29.10 178.25 27.42 L 178.88 27.88 C 179.47 28.35 180.66 29.31 181.25 29.79 C 180.92 30.45 180.26 31.76 179.92 32.41 C 178.91 32.42 177.90 32.43 176.89 32.45 Z" />
</g>
<g id="#437acaff">
<path fill="#437aca" opacity="1.00" d=" M 90.85 27.91 C 91.14 27.93 91.72 27.98 92.01 28.00 C 92.48 30.36 93.27 32.64 94.48 34.72 C 89.27 35.01 85.36 38.55 84.17 43.44 C 85.22 41.52 81.75 37.30 84.56 35.70 C 87.58 33.83 91.79 32.31 90.85 27.91 Z" />
<path fill="#437aca" opacity="1.00" d=" M 202.85 27.91 C 203.14 27.93 203.72 27.98 204.01 28.00 C 204.48 30.36 205.27 32.64 206.48 34.72 C 201.27 35.01 197.36 38.55 196.17 43.44 C 197.19 41.52 193.76 37.30 196.56 35.70 C 199.58 33.83 203.79 32.31 202.85 27.91 Z" />
</g>
<g id="#447acbff">
<path fill="#447acb" opacity="1.00" d=" M 148.59 28.47 C 149.35 29.97 150.18 31.45 151.02 32.92 C 152.02 32.49 153.00 32.02 153.97 31.55 C 155.50 32.27 157.02 33.02 158.56 33.73 C 160.35 30.95 161.73 27.12 165.97 27.40 C 164.49 29.54 160.97 31.49 162.28 34.50 C 163.72 35.88 165.43 36.95 167.06 38.10 C 160.97 37.14 155.14 34.94 149.06 34.04 C 143.88 34.41 141.14 38.84 140.30 43.49 C 140.20 40.62 138.78 37.26 140.24 34.45 C 143.49 33.08 147.31 32.28 148.59 28.47 Z" />
</g>
<g id="#a0b6cbff">
<path fill="#a0b6cb" opacity="1.00" d=" M 12.89 28.83 C 13.33 29.28 14.22 30.19 14.66 30.64 L 14.71 31.37 C 14.40 31.67 13.78 32.26 13.47 32.56 C 13.15 32.54 12.51 32.50 12.19 32.48 C 12.26 31.24 12.49 30.02 12.89 28.83 Z" />
<path fill="#a0b6cb" opacity="1.00" d=" M 68.88 29.13 C 69.27 29.51 70.04 30.26 70.43 30.64 L 70.39 31.41 C 70.13 31.73 69.60 32.35 69.34 32.66 C 69.00 32.64 68.34 32.60 68.01 32.58 C 67.89 31.33 68.18 30.18 68.88 29.13 Z" />
</g>
<g id="#a5bbd1ff">
<path fill="#a5bbd1" opacity="1.00" d=" M 179.92 32.41 C 180.26 31.76 180.92 30.45 181.25 29.79 C 181.54 30.04 182.12 30.55 182.41 30.80 L 182.37 31.58 C 182.11 31.89 181.58 32.51 181.32 32.81 C 180.97 32.71 180.27 32.51 179.92 32.41 Z" />
<path fill="#a5bbd1" opacity="1.00" d=" M 11.20 38.09 C 12.11 37.36 13.03 36.62 13.94 35.87 C 13.61 38.18 13.29 40.49 12.91 42.78 C 12.49 42.59 11.66 42.21 11.24 42.02 C 11.16 40.71 11.15 39.40 11.20 38.09 Z" />
</g>
<g id="#87b05cff">
<path fill="#87b05c" opacity="1.00" d=" M 3.40 31.15 C 4.80 30.71 5.29 31.20 4.85 32.60 C 3.45 33.03 2.97 32.55 3.40 31.15 Z" />
</g>
<g id="#4476cbff">
<path fill="#4476cb" opacity="1.00" d=" M 16.69 32.06 C 20.64 31.98 24.63 32.68 28.50 31.55 C 27.22 32.86 26.00 34.21 24.81 35.60 C 22.09 34.44 19.34 33.36 16.69 32.06 Z" />
</g>
<g id="#2f8bd3fe">
<path fill="#2f8bd3" opacity="1.00" d=" M 14.71 31.37 C 15.56 35.40 16.23 39.63 14.84 43.63 C 14.36 43.42 13.39 43.00 12.91 42.78 C 13.29 40.49 13.61 38.18 13.94 35.87 C 13.03 36.62 12.11 37.36 11.20 38.09 C 11.71 36.16 12.56 34.34 13.47 32.56 C 13.78 32.26 14.40 31.67 14.71 31.37 Z" />
</g>
<g id="#2c8ed7ff">
<path fill="#2c8ed7" opacity="1.00" d=" M 70.39 31.41 C 70.21 38.39 71.69 45.40 70.55 52.34 C 70.43 51.88 70.20 50.98 70.08 50.53 C 69.83 49.84 69.34 48.48 69.10 47.80 C 68.43 45.98 67.80 44.14 67.19 42.30 C 69.71 43.80 69.31 39.96 67.11 40.02 C 67.69 37.52 68.30 35.02 69.34 32.66 C 69.60 32.35 70.13 31.73 70.39 31.41 Z" />
<path fill="#2c8ed7" opacity="1.00" d=" M 182.37 31.58 C 182.27 38.50 183.68 45.46 182.56 52.34 C 182.44 51.88 182.20 50.98 182.08 50.52 C 181.83 49.84 181.34 48.48 181.10 47.80 C 180.43 45.98 179.80 44.15 179.19 42.31 C 181.71 43.81 181.31 39.95 179.11 40.02 C 179.66 37.56 180.29 35.12 181.32 32.81 C 181.58 32.51 182.11 31.89 182.37 31.58 Z" />
</g>
<g id="#288cd6ff">
<path fill="#288cd6" opacity="1.00" d=" M 126.19 31.65 C 126.34 39.75 128.24 48.05 125.91 56.00 L 124.65 56.00 C 124.44 54.57 124.24 53.15 124.09 51.71 C 125.12 53.12 126.74 51.46 125.77 50.27 C 125.49 49.42 125.21 48.56 124.93 47.71 C 124.43 46.19 123.92 44.67 123.39 43.17 C 125.45 43.02 124.90 40.25 123.20 39.96 C 123.70 37.50 124.28 35.05 125.31 32.75 C 125.53 32.47 125.97 31.92 126.19 31.65 Z" />
</g>
<g id="#4378cbff">
<path fill="#4378cb" opacity="1.00" d=" M 103.14 38.76 C 103.50 40.81 103.70 42.89 103.96 44.96 C 106.66 44.94 109.36 44.98 112.06 45.07 L 112.10 45.98 C 107.89 46.14 103.73 47.23 99.51 47.21 C 95.14 46.48 90.86 45.26 86.54 44.31 C 91.22 43.02 96.06 43.63 100.77 44.32 C 101.50 42.44 102.31 40.60 103.14 38.76 Z" />
<path fill="#4378cb" opacity="1.00" d=" M 34.54 43.08 C 38.67 44.70 43.75 44.25 46.47 40.38 C 46.63 41.87 46.84 43.36 47.23 44.82 C 50.11 45.70 53.13 45.88 56.08 46.42 L 56.14 47.17 C 51.79 46.72 47.07 45.66 43.39 48.68 C 39.86 45.75 35.29 45.09 30.85 45.57 C 32.09 44.75 33.31 43.92 34.54 43.08 Z" />
</g>
<g id="#4279cbff">
<path fill="#4279cb" opacity="1.00" d=" M 154.20 44.38 C 157.22 44.04 158.80 41.16 160.59 39.06 C 160.74 41.07 161.03 43.07 161.33 45.07 C 157.09 48.12 152.36 46.47 148.05 44.62 C 148.26 43.87 148.46 43.11 148.64 42.35 C 150.40 43.16 152.11 44.87 154.20 44.38 Z" />
</g>
<g id="#8bb5d9ff">
<path fill="#8bb5d9" opacity="1.00" d=" M 67.19 42.30 C 67.17 41.73 67.13 40.59 67.11 40.02 C 69.31 39.96 69.71 43.80 67.19 42.30 Z" />
<path fill="#8bb5d9" opacity="1.00" d=" M 179.19 42.31 C 179.17 41.73 179.13 40.59 179.11 40.02 C 181.31 39.95 181.71 43.81 179.19 42.31 Z" />
</g>
<g id="#6e9bbbff">
<path fill="#6e9bbb" opacity="1.00" d=" M 123.39 43.17 C 122.93 42.12 122.86 41.06 123.20 39.96 C 124.90 40.25 125.45 43.02 123.39 43.17 Z" />
</g>
<g id="#2a8ed7ff">
<path fill="#2a8ed7" opacity="1.00" d=" M 11.24 42.02 C 11.66 42.21 12.49 42.59 12.91 42.78 C 13.39 43.00 14.36 43.42 14.84 43.63 C 15.46 45.12 16.05 46.63 16.69 48.11 C 15.95 49.44 15.24 50.77 14.53 52.12 C 14.41 51.72 14.16 50.92 14.04 50.52 C 13.80 49.84 13.31 48.48 13.07 47.80 C 12.40 45.89 11.76 43.97 11.24 42.02 Z" />
</g>
<g id="#4379cbff">
<path fill="#4379cb" opacity="1.00" d=" M 198.56 44.33 C 206.96 42.09 215.52 45.15 224.00 45.10 L 224.00 45.76 C 219.83 46.08 215.71 47.27 211.51 47.22 C 207.15 46.47 202.88 45.24 198.56 44.33 Z" />
</g>
<g id="#4478cbff">
<path fill="#4478cb" opacity="1.00" d=" M 137.53 43.26 C 138.41 42.14 140.38 43.59 139.47 44.74 C 138.59 45.86 136.62 44.41 137.53 43.26 Z" />
</g>
<g id="#4575cbff">
<path fill="#4575cb" opacity="1.00" d=" M 163.73 44.25 C 164.82 43.20 166.50 43.82 167.73 44.28 L 167.76 44.77 C 166.64 45.25 163.90 46.03 163.73 44.25 Z" />
</g>
<g id="#4376caff">
<path fill="#4376ca" opacity="1.00" d=" M 22.16 46.24 C 27.01 47.54 29.53 51.80 31.60 56.00 L 30.33 56.00 C 29.58 53.11 26.41 53.57 25.38 56.00 L 20.89 56.00 C 22.99 55.10 25.10 54.11 26.86 52.62 C 26.97 49.74 23.70 48.30 22.16 46.24 Z" />
</g>
<g id="#33302bff">
<path fill="#33302b" opacity="1.00" d=" M 5.56 49.53 C 6.96 50.10 8.34 50.72 9.71 51.35 C 10.16 51.24 11.05 51.04 11.49 50.94 L 11.69 51.67 C 12.11 53.13 12.56 54.57 13.07 56.00 L 6.84 56.00 C 7.93 55.19 7.82 53.65 7.10 52.65 C 6.97 52.40 6.71 51.90 6.58 51.65 C 6.32 51.12 5.82 50.06 5.56 49.53 Z" />
<path fill="#33302b" opacity="1.00" d=" M 61.53 49.54 C 62.93 50.12 64.31 50.73 65.73 51.26 C 66.25 51.30 67.30 51.36 67.82 51.40 L 67.88 52.19 C 67.92 53.53 68.17 54.93 69.03 56.00 L 62.86 56.00 C 63.95 55.19 63.85 53.63 63.11 52.64 C 62.97 52.39 62.70 51.90 62.56 51.65 C 62.30 51.13 61.79 50.07 61.53 49.54 Z" />
<path fill="#33302b" opacity="1.00" d=" M 117.53 49.53 C 118.93 50.14 120.32 50.76 121.71 51.37 C 122.29 51.24 123.45 50.99 124.02 50.86 L 124.09 51.71 C 124.24 53.15 124.44 54.57 124.65 56.00 L 118.85 56.00 C 119.94 55.19 119.85 53.63 119.11 52.63 C 118.97 52.39 118.69 51.90 118.56 51.65 C 118.30 51.12 117.79 50.06 117.53 49.53 Z" />
<path fill="#33302b" opacity="1.00" d=" M 173.53 49.54 C 174.92 50.12 176.31 50.73 177.73 51.26 C 178.25 51.30 179.30 51.36 179.82 51.40 L 179.88 52.19 C 179.91 53.53 180.17 54.92 181.03 56.00 L 174.86 56.00 C 175.95 55.19 175.85 53.63 175.11 52.64 C 174.97 52.39 174.70 51.90 174.56 51.65 C 174.30 51.13 173.79 50.07 173.53 49.54 Z" />
</g>
<g id="#719d5aff">
<path fill="#719d5a" opacity="1.00" d=" M 2.87 51.13 C 4.11 51.30 5.34 51.47 6.58 51.65 C 6.71 51.90 6.97 52.40 7.10 52.65 C 6.11 53.71 5.16 54.82 4.30 56.00 L 0.00 56.00 L 0.00 51.47 C 0.45 52.43 0.94 53.38 1.48 54.30 C 1.93 53.24 2.39 52.18 2.87 51.13 Z" />
</g>
<g id="#3686d0ff">
<path fill="#3686d0" opacity="1.00" d=" M 42.64 51.45 C 43.88 51.33 45.13 51.18 46.37 51.02 C 44.83 52.02 43.30 53.02 41.88 54.19 C 42.07 53.50 42.45 52.14 42.64 51.45 Z" />
</g>
<g id="#809db3ff">
<path fill="#809db3" opacity="1.00" d=" M 46.37 51.02 L 47.47 50.80 C 46.99 51.89 46.50 52.98 45.99 54.05 C 45.52 54.54 44.60 55.51 44.14 56.00 L 41.36 56.00 C 41.49 55.55 41.75 54.64 41.88 54.19 C 43.30 53.02 44.83 52.02 46.37 51.02 Z" />
</g>
<g id="#729f5bff">
<path fill="#729f5b" opacity="1.00" d=" M 58.85 51.15 C 60.09 51.33 61.32 51.48 62.56 51.65 C 62.70 51.90 62.97 52.39 63.11 52.64 C 62.13 53.70 61.19 54.82 60.35 56.00 L 47.65 56.00 C 49.62 54.27 51.77 52.74 54.10 51.54 C 55.41 52.15 56.71 52.80 57.96 53.52 C 58.25 52.73 58.55 51.94 58.85 51.15 Z" />
<path fill="#729f5b" opacity="1.00" d=" M 114.85 51.16 C 116.09 51.33 117.32 51.48 118.56 51.65 C 118.69 51.90 118.97 52.39 119.11 52.63 C 118.12 53.70 117.19 54.82 116.34 56.00 L 103.68 56.00 C 105.63 54.24 107.77 52.70 110.15 51.60 C 111.44 52.18 112.72 52.81 113.96 53.51 C 114.25 52.72 114.55 51.94 114.85 51.16 Z" />
<path fill="#729f5b" opacity="1.00" d=" M 170.85 51.16 C 172.09 51.33 173.32 51.48 174.56 51.65 C 174.70 51.90 174.97 52.39 175.11 52.64 C 174.12 53.70 173.19 54.82 172.35 56.00 L 159.67 56.00 C 161.64 54.26 163.77 52.71 166.13 51.56 C 167.42 52.18 168.71 52.81 169.96 53.51 C 170.25 52.72 170.55 51.94 170.85 51.16 Z" />
</g>
<g id="#268ed9ff">
<path fill="#268ed9" opacity="1.00" d=" M 11.69 51.67 C 12.31 51.95 13.55 52.50 14.17 52.78 C 14.48 53.85 14.79 54.92 15.10 56.00 L 13.07 56.00 C 12.56 54.57 12.11 53.13 11.69 51.67 Z" />
<path fill="#268ed9" opacity="1.00" d=" M 67.88 52.19 C 68.51 52.43 69.76 52.90 70.39 53.13 C 70.20 53.85 69.81 55.28 69.61 56.00 L 69.03 56.00 C 68.17 54.93 67.92 53.53 67.88 52.19 Z" />
<path fill="#268ed9" opacity="1.00" d=" M 179.88 52.19 C 180.51 52.43 181.77 52.90 182.39 53.13 C 182.20 53.85 181.81 55.28 181.61 56.00 L 181.03 56.00 C 180.17 54.92 179.91 53.53 179.88 52.19 Z" />
<path fill="#268ed9" opacity="1.00" d=" M 142.12 56.00 C 140.57 53.39 145.46 53.38 143.93 56.00 L 142.12 56.00 Z" />
</g>
<g id="#2e83d0ff">
<path fill="#2e83d0" opacity="1.00" d=" M 97.13 56.00 C 98.74 54.67 100.27 53.24 101.77 51.78 C 100.31 52.45 100.56 54.19 100.81 55.47 L 100.86 56.00 L 97.13 56.00 Z" />
<path fill="#2e83d0" opacity="1.00" d=" M 209.13 56.00 C 210.74 54.67 212.26 53.23 213.76 51.77 C 212.31 52.45 212.55 54.19 212.81 55.47 L 212.85 56.00 L 209.13 56.00 Z" />
</g>
<g id="#67839bff">
<path fill="#67839b" opacity="1.00" d=" M 101.77 51.78 C 102.09 51.90 102.74 52.15 103.06 52.27 C 102.58 53.51 101.83 54.58 100.81 55.47 C 100.56 54.19 100.31 52.45 101.77 51.78 Z" />
<path fill="#67839b" opacity="1.00" d=" M 213.76 51.77 C 214.08 51.89 214.73 52.13 215.06 52.24 C 214.58 53.49 213.83 54.57 212.81 55.47 C 212.55 54.19 212.31 52.45 213.76 51.77 Z" />
</g>
<g id="#74a05cff">
<path fill="#74a05c" opacity="1.00" d=" M 215.56 56.00 C 218.33 54.27 221.20 52.72 224.00 51.02 L 224.00 56.00 L 215.56 56.00 Z" />
</g>
<g id="#416845ff">
<path fill="#416845" opacity="1.00" d=" M 7.10 52.65 C 7.82 53.65 7.93 55.19 6.84 56.00 L 4.30 56.00 C 5.16 54.82 6.11 53.71 7.10 52.65 Z" />
<path fill="#416845" opacity="1.00" d=" M 63.11 52.64 C 63.85 53.63 63.95 55.19 62.86 56.00 L 60.35 56.00 C 61.19 54.82 62.13 53.70 63.11 52.64 Z" />
<path fill="#416845" opacity="1.00" d=" M 119.11 52.63 C 119.85 53.63 119.94 55.19 118.85 56.00 L 116.34 56.00 C 117.19 54.82 118.12 53.70 119.11 52.63 Z" />
<path fill="#416845" opacity="1.00" d=" M 175.11 52.64 C 175.85 53.63 175.95 55.19 174.86 56.00 L 172.35 56.00 C 173.19 54.82 174.12 53.70 175.11 52.64 Z" />
</g>
<g id="#2e86d2ff">
<path fill="#2e86d2" opacity="1.00" d=" M 153.98 56.00 C 154.85 54.52 156.17 53.31 157.96 53.20 C 157.62 53.90 156.94 55.30 156.59 56.00 L 153.98 56.00 Z" />
</g>
<g id="#3b6bbefe">
<path fill="#3b6bbe" opacity="1.00" d=" M 25.38 56.00 C 26.41 53.57 29.58 53.11 30.33 56.00 L 25.38 56.00 Z" />
</g>
</svg>
