<?xml version="1.0" encoding="UTF-8" ?>
<!DOCTYPE svg PUBLIC "-//W3C//DTD SVG 1.1//EN" "http://www.w3.org/Graphics/SVG/1.1/DTD/svg11.dtd">
<svg width="224pt" height="56pt" viewBox="0 0 224 56" version="1.1" xmlns="http://www.w3.org/2000/svg">
<g id="#87b15fff">
<path fill="#87b15f" opacity="1.00" d=" M 0.00 0.00 L 6.53 0.00 C 4.71 1.64 2.92 3.30 1.10 4.95 C 0.83 5.21 0.28 5.73 0.00 5.99 L 0.00 0.00 Z" />
</g>
<g id="#689860ff">
<path fill="#689860" opacity="1.00" d=" M 6.53 0.00 L 6.60 0.00 C 7.74 1.22 8.89 2.42 10.07 3.59 C 9.53 2.38 8.97 1.19 8.38 0.00 L 10.34 0.00 C 11.18 1.95 11.93 3.94 12.67 5.93 L 12.12 5.82 C 9.50 5.17 6.80 4.98 4.11 5.00 C 6.35 5.88 8.63 6.75 11.06 6.90 C 10.26 7.72 9.47 8.55 8.67 9.37 L 8.28 9.13 C 7.68 8.74 6.48 7.97 5.88 7.58 C 4.34 6.62 2.76 5.70 1.10 4.95 C 2.92 3.30 4.71 1.64 6.53 0.00 Z" />
<path fill="#689860" opacity="1.00" d=" M 62.38 0.00 L 62.54 0.00 C 63.70 1.21 64.89 2.41 66.10 3.57 C 65.54 2.37 64.96 1.18 64.35 0.00 L 66.30 0.00 C 67.17 1.99 67.94 4.02 68.73 6.04 L 68.01 5.87 C 65.62 5.27 63.20 4.77 60.75 4.42 C 62.03 5.62 63.32 6.81 64.61 8.00 C 65.26 7.59 66.57 6.77 67.23 6.36 C 66.89 6.96 66.22 8.17 65.89 8.77 L 64.97 9.00 L 64.52 8.89 C 63.86 8.57 62.56 7.91 61.91 7.58 C 60.35 6.74 58.82 5.86 57.27 5.01 C 58.86 3.23 60.63 1.62 62.38 0.00 Z" />
<path fill="#689860" opacity="1.00" d=" M 118.39 0.00 L 118.54 0.00 C 119.70 1.21 120.89 2.41 122.10 3.57 C 121.54 2.37 120.95 1.18 120.35 0.00 L 122.30 0.00 C 123.17 1.99 123.94 4.02 124.73 6.04 L 124.01 5.87 C 121.62 5.27 119.20 4.77 116.75 4.42 C 118.03 5.62 119.32 6.81 120.61 8.00 C 121.26 7.59 122.57 6.77 123.22 6.36 C 122.89 6.97 122.22 8.17 121.89 8.77 L 120.97 9.01 L 120.51 8.90 C 119.85 8.56 118.53 7.90 117.88 7.57 C 116.33 6.73 114.81 5.85 113.27 5.00 C 114.86 3.23 116.63 1.61 118.39 0.00 Z" />
<path fill="#689860" opacity="1.00" d=" M 174.38 0.00 L 174.54 0.00 C 175.70 1.21 176.88 2.41 178.10 3.57 C 177.53 2.37 176.95 1.18 176.35 0.00 L 178.30 0.00 C 179.17 1.99 179.94 4.02 180.73 6.04 L 180.01 5.87 C 177.62 5.27 175.20 4.77 172.75 4.42 C 174.03 5.62 175.32 6.81 176.61 8.00 C 177.26 7.59 178.57 6.77 179.23 6.36 C 178.89 6.96 178.22 8.17 177.89 8.77 L 176.97 9.00 L 176.52 8.89 C 175.86 8.57 174.56 7.91 173.91 7.58 C 172.35 6.74 170.82 5.86 169.27 5.01 C 170.86 3.23 172.63 1.62 174.38 0.00 Z" />
</g>
<g id="#87b05cff">
<path fill="#87b05c" opacity="1.00" d=" M 6.60 0.00 L 8.38 0.00 C 8.97 1.19 9.53 2.38 10.07 3.59 C 8.89 2.42 7.74 1.22 6.60 0.00 Z" />
<path fill="#87b05c" opacity="1.00" d=" M 47.84 0.00 L 50.15 0.00 C 48.62 1.08 47.11 2.20 45.57 3.27 C 46.31 2.16 47.07 1.08 47.84 0.00 Z" />
<path fill="#87b05c" opacity="1.00" d=" M 62.54 0.00 L 64.35 0.00 C 64.96 1.18 65.54 2.37 66.10 3.57 C 64.89 2.41 63.70 1.21 62.54 0.00 Z" />
<path fill="#87b05c" opacity="1.00" d=" M 103.84 0.00 L 106.15 0.00 C 104.62 1.08 103.11 2.20 101.57 3.27 C 102.31 2.16 103.07 1.08 103.84 0.00 Z" />
<path fill="#87b05c" opacity="1.00" d=" M 118.54 0.00 L 120.35 0.00 C 120.95 1.18 121.54 2.37 122.10 3.57 C 120.89 2.41 119.70 1.21 118.54 0.00 Z" />
<path fill="#87b05c" opacity="1.00" d=" M 159.84 0.00 L 162.15 0.00 C 160.62 1.08 159.11 2.20 157.57 3.27 C 158.31 2.16 159.07 1.08 159.84 0.00 Z" />
<path fill="#87b05c" opacity="1.00" d=" M 174.54 0.00 L 176.35 0.00 C 176.95 1.18 177.53 2.37 178.10 3.57 C 176.88 2.41 175.70 1.21 174.54 0.00 Z" />
<path fill="#87b05c" opacity="1.00" d=" M 215.83 0.00 L 218.12 0.00 C 216.60 1.08 215.11 2.20 213.58 3.27 C 214.31 2.17 215.06 1.08 215.83 0.00 Z" />
</g>
<g id="#80a95bff">
<path fill="#80a95b" opacity="1.00" d=" M 10.34 0.00 L 26.48 0.00 C 26.68 1.57 26.90 3.15 27.13 4.72 L 26.30 4.93 C 24.10 5.47 21.88 5.96 19.67 6.46 C 19.37 5.52 18.77 3.65 18.47 2.72 C 17.36 3.96 16.27 5.21 15.28 6.55 C 14.41 6.34 13.55 6.13 12.67 5.93 C 11.93 3.94 11.18 1.95 10.34 0.00 Z" />
</g>
<g id="#6a9758fe">
<path fill="#6a9758" opacity="1.00" d=" M 26.48 0.00 L 28.07 0.00 C 28.86 1.25 29.61 2.52 30.35 3.79 C 29.79 4.06 28.65 4.59 28.09 4.85 L 27.13 4.72 C 26.90 3.15 26.68 1.57 26.48 0.00 Z" />
<path fill="#6a9758" opacity="1.00" d=" M 82.47 0.00 L 84.07 0.00 C 84.86 1.25 85.60 2.52 86.35 3.79 C 85.79 4.08 84.67 4.65 84.10 4.93 L 83.15 4.82 C 82.91 3.22 82.69 1.61 82.47 0.00 Z" />
<path fill="#6a9758" opacity="1.00" d=" M 138.47 0.00 L 140.07 0.00 C 140.86 1.25 141.60 2.52 142.35 3.79 C 141.79 4.08 140.67 4.65 140.10 4.93 L 139.15 4.82 C 138.91 3.22 138.68 1.61 138.47 0.00 Z" />
<path fill="#6a9758" opacity="1.00" d=" M 194.47 0.00 L 196.07 0.00 C 196.86 1.25 197.60 2.52 198.35 3.79 C 197.79 4.08 196.66 4.65 196.10 4.93 L 195.15 4.82 C 194.91 3.22 194.68 1.61 194.47 0.00 Z" />
</g>
<g id="#84ab5bff">
<path fill="#84ab5b" opacity="1.00" d=" M 28.07 0.00 L 31.12 0.00 C 32.54 0.29 35.39 0.87 36.81 1.16 C 37.92 0.77 39.04 0.38 40.15 0.00 L 45.67 0.00 C 44.82 2.00 44.07 4.04 43.32 6.09 C 45.77 5.33 48.25 4.67 50.76 4.16 C 49.32 5.88 47.78 7.53 46.20 9.13 C 45.02 8.71 43.82 8.31 42.62 7.95 C 41.05 6.10 39.32 4.40 37.56 2.73 C 37.14 3.67 36.31 5.54 35.89 6.48 C 34.24 5.97 32.58 5.46 30.93 4.96 C 30.78 4.67 30.50 4.08 30.35 3.79 C 29.61 2.52 28.86 1.25 28.07 0.00 Z" />
<path fill="#84ab5b" opacity="1.00" d=" M 84.07 0.00 L 87.12 0.00 C 88.54 0.29 91.39 0.87 92.81 1.16 C 93.92 0.77 95.04 0.38 96.15 0.00 L 101.67 0.00 C 100.82 2.00 100.07 4.04 99.32 6.09 C 101.77 5.33 104.25 4.67 106.76 4.16 C 105.32 5.88 103.78 7.53 102.20 9.13 C 101.02 8.71 99.82 8.31 98.62 7.95 C 97.05 6.10 95.32 4.40 93.56 2.73 C 93.14 3.67 92.31 5.54 91.89 6.48 C 90.24 5.97 88.58 5.46 86.93 4.96 C 86.78 4.67 86.50 4.09 86.35 3.79 C 85.60 2.52 84.86 1.25 84.07 0.00 Z" />
<path fill="#84ab5b" opacity="1.00" d=" M 140.07 0.00 L 143.12 0.00 C 144.54 0.29 147.39 0.87 148.81 1.16 C 149.92 0.77 151.03 0.38 152.15 0.00 L 157.67 0.00 C 156.82 2.00 156.07 4.04 155.32 6.09 C 157.77 5.33 160.25 4.67 162.76 4.16 C 161.32 5.88 159.78 7.53 158.20 9.13 C 157.01 8.71 155.82 8.31 154.62 7.95 C 153.05 6.10 151.31 4.40 149.56 2.73 C 149.14 3.67 148.31 5.54 147.89 6.48 C 146.24 5.97 144.58 5.46 142.93 4.96 C 142.78 4.67 142.50 4.09 142.35 3.79 C 141.60 2.52 140.86 1.25 140.07 0.00 Z" />
<path fill="#84ab5b" opacity="1.00" d=" M 196.07 0.00 L 199.12 0.00 C 200.54 0.29 203.39 0.87 204.81 1.16 C 205.92 0.77 207.03 0.38 208.15 -0.00 L 213.67 0.00 C 212.82 2.00 212.06 4.04 211.32 6.09 C 213.77 5.33 216.25 4.67 218.76 4.16 C 217.31 5.88 215.78 7.53 214.20 9.13 C 213.01 8.71 211.82 8.31 210.62 7.95 C 209.05 6.10 207.31 4.40 205.56 2.73 C 205.14 3.67 204.31 5.54 203.89 6.48 C 202.24 5.97 200.58 5.46 198.93 4.96 C 198.78 4.67 198.50 4.09 198.35 3.79 C 197.60 2.52 196.86 1.25 196.07 0.00 Z" />
</g>
<g id="#729e59fe">
<path fill="#729e59" opacity="1.00" d=" M 31.12 0.00 L 40.15 0.00 C 39.04 0.38 37.92 0.77 36.81 1.16 C 35.39 0.87 32.54 0.29 31.12 0.00 Z" />
<path fill="#729e59" opacity="1.00" d=" M 87.12 0.00 L 96.15 0.00 C 95.04 0.38 93.92 0.77 92.81 1.16 C 91.39 0.87 88.54 0.29 87.12 0.00 Z" />
<path fill="#729e59" opacity="1.00" d=" M 143.12 0.00 L 152.15 0.00 C 151.03 0.38 149.92 0.77 148.81 1.16 C 147.39 0.87 144.54 0.29 143.12 0.00 Z" />
<path fill="#729e59" opacity="1.00" d=" M 199.12 0.00 L 208.15 0.00 C 207.03 0.38 205.92 0.77 204.81 1.16 C 203.39 0.87 200.54 0.29 199.12 0.00 Z" />
</g>
<g id="#65925eff">
<path fill="#65925e" opacity="1.00" d=" M 45.67 0.00 L 47.84 0.00 C 47.07 1.08 46.31 2.16 45.57 3.27 C 47.11 2.20 48.62 1.08 50.15 0.00 L 50.96 0.00 C 51.61 4.10 51.92 8.25 52.51 12.36 C 51.16 11.56 49.82 10.73 48.41 10.03 C 47.68 9.71 46.95 9.41 46.20 9.13 C 47.78 7.53 49.32 5.88 50.76 4.16 C 48.25 4.67 45.77 5.33 43.32 6.09 C 44.07 4.04 44.82 2.00 45.67 0.00 Z" />
<path fill="#65925e" opacity="1.00" d=" M 101.67 0.00 L 103.84 0.00 C 103.07 1.08 102.31 2.16 101.57 3.27 C 103.11 2.20 104.62 1.08 106.15 0.00 L 106.96 0.00 C 107.61 4.10 107.92 8.25 108.51 12.36 C 107.16 11.56 105.81 10.73 104.41 10.03 C 103.68 9.71 102.95 9.41 102.20 9.13 C 103.78 7.53 105.32 5.88 106.76 4.16 C 104.25 4.67 101.77 5.33 99.32 6.09 C 100.07 4.04 100.82 2.00 101.67 0.00 Z" />
<path fill="#65925e" opacity="1.00" d=" M 157.67 0.00 L 159.84 0.00 C 159.07 1.08 158.31 2.16 157.57 3.27 C 159.11 2.20 160.62 1.08 162.15 0.00 L 162.96 0.00 C 163.61 4.10 163.92 8.25 164.51 12.36 C 163.16 11.56 161.82 10.73 160.41 10.03 C 159.68 9.71 158.94 9.41 158.20 9.13 C 159.78 7.53 161.32 5.88 162.76 4.16 C 160.25 4.67 157.77 5.33 155.32 6.09 C 156.07 4.04 156.82 2.00 157.67 0.00 Z" />
<path fill="#65925e" opacity="1.00" d=" M 213.67 0.00 L 215.83 0.00 C 215.06 1.08 214.31 2.17 213.58 3.27 C 215.11 2.20 216.60 1.08 218.12 0.00 L 218.90 0.00 C 219.61 4.10 219.91 8.25 220.53 12.37 C 219.16 11.56 217.81 10.73 216.39 10.02 C 215.66 9.71 214.94 9.41 214.20 9.13 C 215.78 7.53 217.31 5.88 218.76 4.16 C 216.25 4.67 213.77 5.33 211.32 6.09 C 212.06 4.04 212.82 2.00 213.67 0.00 Z" />
</g>
<g id="#8ab363ff">
<path fill="#8ab363" opacity="1.00" d=" M 50.96 0.00 L 53.01 0.00 C 56.27 2.95 58.24 2.95 58.93 0.00 L 62.38 0.00 C 60.63 1.62 58.86 3.23 57.27 5.01 C 56.83 5.58 55.96 6.72 55.52 7.29 C 55.41 5.75 55.23 4.22 55.06 2.69 C 53.96 4.73 52.86 6.79 51.79 8.85 C 53.03 8.62 54.27 8.38 55.50 8.15 C 55.48 9.28 55.44 10.41 55.41 11.54 C 55.01 12.66 54.55 13.76 54.11 14.86 C 53.05 14.47 51.95 14.31 50.81 14.37 L 50.56 13.93 C 49.83 12.64 49.12 11.33 48.41 10.03 C 49.82 10.73 51.16 11.56 52.51 12.36 C 51.92 8.25 51.61 4.10 50.96 0.00 Z" />
<path fill="#8ab363" opacity="1.00" d=" M 106.96 0.00 L 109.01 0.00 C 112.27 2.95 114.24 2.95 114.93 0.00 L 118.39 0.00 C 116.63 1.61 114.86 3.23 113.27 5.00 C 112.83 5.57 111.96 6.71 111.53 7.28 C 111.40 5.75 111.22 4.23 111.05 2.70 C 109.95 4.74 108.86 6.79 107.80 8.84 C 109.04 8.61 110.29 8.38 111.54 8.15 C 111.56 9.27 111.57 10.39 111.58 11.51 C 111.10 12.64 110.58 13.75 110.07 14.86 C 109.02 14.47 107.93 14.30 106.80 14.36 L 106.56 13.93 C 105.83 12.63 105.12 11.33 104.41 10.03 C 105.81 10.73 107.16 11.56 108.51 12.36 C 107.92 8.25 107.61 4.10 106.96 0.00 Z" />
<path fill="#8ab363" opacity="1.00" d=" M 162.96 0.00 L 165.01 0.00 C 168.27 2.95 170.24 2.95 170.93 0.00 L 174.38 0.00 C 172.63 1.62 170.86 3.23 169.27 5.01 C 168.83 5.58 167.96 6.72 167.52 7.29 C 167.41 5.75 167.23 4.22 167.06 2.69 C 165.95 4.73 164.86 6.79 163.79 8.85 C 165.03 8.62 166.26 8.38 167.50 8.15 C 167.47 9.28 167.44 10.41 167.41 11.54 C 167.00 12.66 166.55 13.76 166.11 14.86 C 165.05 14.47 163.95 14.31 162.81 14.37 L 162.56 13.93 C 161.83 12.64 161.12 11.33 160.41 10.03 C 161.82 10.73 163.16 11.56 164.51 12.36 C 163.92 8.25 163.61 4.10 162.96 0.00 Z" />
</g>
<g id="#6f9a52ff">
<path fill="#6f9a52" opacity="1.00" d=" M 53.01 0.00 L 58.93 0.00 C 58.24 2.95 56.27 2.95 53.01 0.00 Z" />
<path fill="#6f9a52" opacity="1.00" d=" M 109.01 0.00 L 114.93 0.00 C 114.24 2.95 112.27 2.95 109.01 0.00 Z" />
<path fill="#6f9a52" opacity="1.00" d=" M 165.01 0.00 L 170.93 0.00 C 170.24 2.95 168.27 2.95 165.01 0.00 Z" />
</g>
<g id="#7fa75aff">
<path fill="#7fa75a" opacity="1.00" d=" M 66.30 0.00 L 82.47 0.00 C 82.69 1.61 82.91 3.22 83.15 4.82 L 82.31 5.01 C 80.20 5.45 78.08 5.84 75.93 6.02 C 74.48 5.67 73.04 5.27 71.61 4.87 C 71.43 5.14 71.08 5.68 70.91 5.96 C 70.48 6.30 69.64 7.00 69.22 7.35 C 69.10 7.02 68.86 6.37 68.73 6.04 C 67.94 4.02 67.17 1.99 66.30 0.00 Z" />
<path fill="#7fa75a" opacity="1.00" d=" M 122.30 0.00 L 138.47 0.00 C 138.68 1.61 138.91 3.22 139.15 4.82 L 138.31 5.01 C 136.21 5.45 134.09 5.84 131.95 6.02 C 130.49 5.67 129.05 5.27 127.60 4.87 C 127.43 5.14 127.08 5.68 126.91 5.96 C 126.49 6.30 125.64 7.00 125.22 7.35 C 125.10 7.02 124.86 6.37 124.73 6.04 C 123.94 4.02 123.17 1.99 122.30 0.00 Z" />
<path fill="#7fa75a" opacity="1.00" d=" M 178.30 0.00 L 194.47 0.00 C 194.68 1.61 194.91 3.22 195.15 4.82 L 194.31 5.01 C 192.20 5.45 190.07 5.84 187.92 6.02 C 186.47 5.67 185.04 5.27 183.61 4.87 C 183.43 5.14 183.08 5.68 182.90 5.96 C 182.48 6.30 181.64 7.00 181.22 7.35 C 181.10 7.02 180.86 6.37 180.73 6.04 C 179.94 4.02 179.17 1.99 178.30 0.00 Z" />
</g>
<g id="#8ab362ff">
<path fill="#8ab362" opacity="1.00" d=" M 218.90 0.00 L 224.00 0.00 L 224.00 5.66 C 223.81 4.86 223.44 3.26 223.25 2.47 C 222.05 4.59 220.88 6.74 219.74 8.89 C 221.16 8.58 222.58 8.26 224.00 7.93 L 224.00 9.13 C 223.38 11.02 222.68 12.89 222.02 14.76 C 220.99 14.52 219.94 14.42 218.89 14.46 L 218.61 13.97 C 217.86 12.66 217.12 11.34 216.39 10.02 C 217.81 10.73 219.16 11.56 220.53 12.37 C 219.91 8.25 219.61 4.10 218.90 0.00 Z" />
</g>
<g id="#5f8d63ff">
<path fill="#5f8d63" opacity="1.00" d=" M 15.28 6.55 C 16.27 5.21 17.36 3.96 18.47 2.72 C 18.77 3.65 19.37 5.52 19.67 6.46 C 18.06 6.71 16.44 6.96 14.82 7.18 L 15.28 6.55 Z" />
</g>
<g id="#608660fe">
<path fill="#608660" opacity="1.00" d=" M 37.56 2.73 C 39.32 4.40 41.05 6.10 42.62 7.95 C 40.39 7.38 38.14 6.94 35.89 6.48 C 36.31 5.54 37.14 3.67 37.56 2.73 Z" />
<path fill="#608660" opacity="1.00" d=" M 93.56 2.73 C 95.32 4.40 97.05 6.10 98.62 7.95 C 96.39 7.38 94.14 6.94 91.89 6.48 C 92.31 5.54 93.14 3.67 93.56 2.73 Z" />
<path fill="#608660" opacity="1.00" d=" M 149.56 2.73 C 151.31 4.40 153.05 6.10 154.62 7.95 C 152.39 7.38 150.14 6.94 147.89 6.48 C 148.31 5.54 149.14 3.67 149.56 2.73 Z" />
<path fill="#608660" opacity="1.00" d=" M 205.56 2.73 C 207.31 4.40 209.05 6.10 210.62 7.95 C 208.39 7.38 206.14 6.94 203.89 6.48 C 204.31 5.54 205.14 3.67 205.56 2.73 Z" />
</g>
<g id="#6b995aff">
<path fill="#6b995a" opacity="1.00" d=" M 51.79 8.85 C 52.86 6.79 53.96 4.73 55.06 2.69 C 55.23 4.22 55.41 5.75 55.52 7.29 L 55.50 8.15 C 54.27 8.38 53.03 8.62 51.79 8.85 Z" />
<path fill="#6b995a" opacity="1.00" d=" M 107.80 8.84 C 108.86 6.79 109.95 4.74 111.05 2.70 C 111.22 4.23 111.40 5.75 111.53 7.28 L 111.54 8.15 C 110.29 8.38 109.04 8.61 107.80 8.84 Z" />
<path fill="#6b995a" opacity="1.00" d=" M 163.79 8.85 C 164.86 6.79 165.95 4.73 167.06 2.69 C 167.23 4.22 167.41 5.75 167.52 7.29 L 167.50 8.15 C 166.26 8.38 165.03 8.62 163.79 8.85 Z" />
</g>
<g id="#6c9a5cff">
<path fill="#6c9a5c" opacity="1.00" d=" M 219.74 8.89 C 220.88 6.74 222.05 4.59 223.25 2.47 C 223.44 3.26 223.81 4.86 224.00 5.66 L 224.00 7.93 C 222.58 8.26 221.16 8.58 219.74 8.89 Z" />
</g>
<g id="#8fb263fe">
<path fill="#8fb263" opacity="1.00" d=" M 4.11 5.00 C 6.80 4.98 9.50 5.17 12.12 5.82 L 11.06 6.90 C 8.63 6.75 6.35 5.88 4.11 5.00 Z" />
<path fill="#8fb263" opacity="1.00" d=" M 60.75 4.42 C 63.20 4.77 65.62 5.27 68.01 5.87 L 67.23 6.36 C 66.57 6.77 65.26 7.59 64.61 8.00 C 63.32 6.81 62.03 5.62 60.75 4.42 Z" />
<path fill="#8fb263" opacity="1.00" d=" M 116.75 4.42 C 119.20 4.77 121.62 5.27 124.01 5.87 L 123.22 6.36 C 122.57 6.77 121.26 7.59 120.61 8.00 C 119.32 6.81 118.03 5.62 116.75 4.42 Z" />
<path fill="#8fb263" opacity="1.00" d=" M 172.75 4.42 C 175.20 4.77 177.62 5.27 180.01 5.87 L 179.23 6.36 C 178.57 6.77 177.26 7.59 176.61 8.00 C 175.32 6.81 174.03 5.62 172.75 4.42 Z" />
</g>
<g id="#565249ff">
<path fill="#565249" opacity="1.00" d=" M 28.09 4.85 C 28.65 4.59 29.79 4.06 30.35 3.79 C 30.50 4.08 30.78 4.67 30.93 4.96 C 30.42 5.27 29.41 5.90 28.90 6.21 C 28.70 5.87 28.29 5.19 28.09 4.85 Z" />
<path fill="#565249" opacity="1.00" d=" M 84.10 4.93 C 84.67 4.65 85.79 4.08 86.35 3.79 C 86.50 4.09 86.78 4.67 86.93 4.96 C 86.43 5.29 85.43 5.93 84.93 6.26 C 84.72 5.93 84.31 5.26 84.10 4.93 Z" />
<path fill="#565249" opacity="1.00" d=" M 140.10 4.93 C 140.67 4.65 141.79 4.08 142.35 3.79 C 142.50 4.09 142.78 4.67 142.93 4.96 C 142.43 5.29 141.43 5.93 140.93 6.26 C 140.72 5.93 140.31 5.26 140.10 4.93 Z" />
<path fill="#565249" opacity="1.00" d=" M 196.10 4.93 C 196.66 4.65 197.79 4.08 198.35 3.79 C 198.50 4.09 198.78 4.67 198.93 4.96 C 198.43 5.29 197.43 5.94 196.93 6.26 C 196.72 5.93 196.31 5.26 196.10 4.93 Z" />
</g>
<g id="#5f9368ff">
<path fill="#5f9368" opacity="1.00" d=" M 71.61 4.87 C 73.04 5.27 74.48 5.67 75.93 6.02 C 74.09 6.34 72.25 6.64 70.40 6.87 L 70.91 5.96 C 71.08 5.68 71.43 5.14 71.61 4.87 Z" />
<path fill="#5f9368" opacity="1.00" d=" M 127.60 4.87 C 129.05 5.27 130.49 5.67 131.95 6.02 C 130.10 6.34 128.25 6.63 126.40 6.87 L 126.91 5.96 C 127.08 5.68 127.43 5.14 127.60 4.87 Z" />
<path fill="#5f9368" opacity="1.00" d=" M 183.61 4.87 C 185.04 5.27 186.47 5.67 187.92 6.02 C 186.08 6.34 184.24 6.63 182.39 6.87 L 182.90 5.96 C 183.08 5.68 183.43 5.14 183.61 4.87 Z" />
</g>
<g id="#363933ff">
<path fill="#363933" opacity="1.00" d=" M 1.10 4.95 C 2.76 5.70 4.34 6.62 5.88 7.58 C 2.65 11.39 0.27 16.28 2.70 21.18 C 2.20 21.33 1.21 21.64 0.71 21.80 L 0.00 21.70 L 0.00 5.99 C 0.28 5.73 0.83 5.21 1.10 4.95 Z" />
</g>
<g id="#cfcc89ff">
<path fill="#cfcc89" opacity="1.00" d=" M 19.67 6.46 C 21.88 5.96 24.10 5.47 26.30 4.93 C 25.59 6.68 27.84 7.21 28.90 6.21 C 29.41 5.90 30.42 5.27 30.93 4.96 C 32.58 5.46 34.24 5.97 35.89 6.48 C 38.83 11.82 45.01 13.13 50.56 13.93 L 50.81 14.37 C 51.63 16.25 53.61 16.99 55.33 17.80 C 55.45 18.09 55.70 18.68 55.82 18.97 C 56.00 19.38 56.34 20.20 56.52 20.61 C 56.20 21.19 55.89 21.78 55.58 22.37 C 55.21 22.98 54.48 24.18 54.11 24.78 C 53.70 22.42 53.22 20.08 52.80 17.72 C 51.68 17.62 50.57 17.52 49.45 17.40 C 49.00 17.34 48.09 17.22 47.64 17.16 C 40.56 12.11 31.71 11.70 23.65 9.19 C 23.47 10.58 23.28 11.97 23.08 13.36 C 22.80 12.59 22.24 11.05 21.97 10.29 C 19.99 11.32 17.97 12.29 16.07 13.47 C 15.67 13.72 14.88 14.24 14.49 14.50 C 14.73 14.11 15.21 13.33 15.45 12.94 C 16.89 10.80 18.33 8.66 19.67 6.46 Z" />
<path fill="#cfcc89" opacity="1.00" d=" M 75.93 6.02 C 78.08 5.84 80.20 5.45 82.31 5.01 C 81.58 6.77 83.89 7.30 84.93 6.26 C 85.43 5.93 86.43 5.29 86.93 4.96 C 88.58 5.46 90.24 5.97 91.89 6.48 C 94.83 11.81 101.00 13.13 106.56 13.93 L 106.80 14.36 C 107.60 16.23 109.56 17.02 111.24 17.88 C 111.43 18.09 111.79 18.50 111.97 18.71 L 112.02 19.42 L 112.06 20.12 C 112.06 20.91 112.04 21.69 112.01 22.48 C 111.52 23.06 110.54 24.22 110.05 24.80 C 109.66 22.37 109.18 19.95 108.79 17.51 C 107.70 17.51 106.62 17.51 105.53 17.48 C 105.05 17.46 104.07 17.42 103.59 17.40 C 96.85 11.67 87.62 11.96 79.65 9.18 C 79.46 10.57 79.28 11.96 79.08 13.35 C 78.80 12.60 78.25 11.10 77.98 10.35 C 75.89 11.49 73.82 12.63 71.82 13.92 C 71.54 14.17 70.98 14.65 70.69 14.89 C 70.73 14.30 70.79 13.11 70.83 12.51 C 72.59 10.40 74.33 8.26 75.93 6.02 Z" />
<path fill="#cfcc89" opacity="1.00" d=" M 131.95 6.02 C 134.09 5.84 136.21 5.45 138.31 5.01 C 137.58 6.77 139.88 7.29 140.93 6.26 C 141.43 5.93 142.43 5.29 142.93 4.96 C 144.58 5.46 146.24 5.97 147.89 6.48 C 150.83 11.82 157.01 13.13 162.56 13.93 L 162.81 14.37 C 163.62 16.24 165.61 16.99 167.33 17.80 C 167.45 18.09 167.70 18.68 167.82 18.97 C 168.00 19.37 168.34 20.19 168.51 20.60 C 168.20 21.19 167.89 21.78 167.58 22.37 C 167.22 22.98 166.49 24.18 166.12 24.78 C 165.70 22.45 165.21 20.14 164.81 17.81 C 163.53 17.66 162.26 17.52 160.99 17.33 C 160.03 17.06 159.08 16.75 158.15 16.40 C 151.43 11.91 143.16 11.61 135.65 9.19 C 135.47 10.57 135.28 11.96 135.07 13.33 C 134.82 12.62 134.31 11.19 134.06 10.47 C 131.90 11.51 129.76 12.54 127.70 13.74 C 127.42 13.94 126.86 14.34 126.58 14.54 C 126.65 14.01 126.79 12.96 126.86 12.43 C 128.64 10.36 130.36 8.24 131.95 6.02 Z" />
</g>
<g id="#b6ad6fff">
<path fill="#b6ad6f" opacity="1.00" d=" M 26.30 4.93 L 27.13 4.72 L 28.09 4.85 C 28.29 5.19 28.70 5.87 28.90 6.21 C 27.84 7.21 25.59 6.68 26.30 4.93 Z" />
<path fill="#b6ad6f" opacity="1.00" d=" M 82.31 5.01 L 83.15 4.82 L 84.10 4.93 C 84.31 5.26 84.72 5.93 84.93 6.26 C 83.89 7.30 81.58 6.77 82.31 5.01 Z" />
<path fill="#b6ad6f" opacity="1.00" d=" M 138.31 5.01 L 139.15 4.82 L 140.10 4.93 C 140.31 5.26 140.72 5.93 140.93 6.26 C 139.88 7.29 137.58 6.77 138.31 5.01 Z" />
<path fill="#b6ad6f" opacity="1.00" d=" M 194.31 5.01 L 195.15 4.82 L 196.10 4.93 C 196.31 5.26 196.72 5.93 196.93 6.26 C 195.88 7.30 193.58 6.77 194.31 5.01 Z" />
<path fill="#b6ad6f" opacity="1.00" d=" M 71.82 13.92 C 72.08 14.35 72.60 15.21 72.86 15.64 L 72.48 16.26 C 72.09 16.34 71.30 16.48 70.91 16.55 C 70.85 16.14 70.75 15.31 70.69 14.89 C 70.98 14.65 71.54 14.17 71.82 13.92 Z" />
<path fill="#b6ad6f" opacity="1.00" d=" M 127.70 13.74 C 127.98 14.18 128.53 15.04 128.81 15.48 L 128.40 16.18 C 127.92 16.15 126.97 16.11 126.50 16.09 C 126.52 15.70 126.56 14.93 126.58 14.54 C 126.86 14.34 127.42 13.94 127.70 13.74 Z" />
<path fill="#b6ad6f" opacity="1.00" d=" M 183.96 13.82 C 184.70 14.60 184.82 15.45 184.33 16.36 C 183.97 16.42 183.26 16.52 182.90 16.58 C 182.86 16.15 182.78 15.28 182.75 14.85 C 183.05 14.59 183.66 14.08 183.96 13.82 Z" />
</g>
<g id="#333531ff">
<path fill="#333531" opacity="1.00" d=" M 57.27 5.01 C 58.82 5.86 60.35 6.74 61.91 7.58 C 59.07 11.12 56.27 15.53 58.68 20.09 C 58.14 20.22 57.06 20.48 56.52 20.61 C 56.34 20.20 56.00 19.38 55.82 18.97 C 55.72 17.11 55.51 13.40 55.41 11.54 C 55.44 10.41 55.48 9.28 55.50 8.15 L 55.52 7.29 C 55.96 6.72 56.83 5.58 57.27 5.01 Z" />
<path fill="#333531" opacity="1.00" d=" M 169.27 5.01 C 170.82 5.86 172.35 6.74 173.91 7.58 C 171.07 11.12 168.27 15.53 170.68 20.09 C 170.14 20.22 169.06 20.48 168.51 20.60 C 168.34 20.19 168.00 19.37 167.82 18.97 C 167.72 17.11 167.51 13.40 167.41 11.54 C 167.44 10.41 167.47 9.28 167.50 8.15 L 167.52 7.29 C 167.96 6.72 168.83 5.58 169.27 5.01 Z" />
</g>
<g id="#322e29ff">
<path fill="#322e29" opacity="1.00" d=" M 113.27 5.00 C 114.81 5.85 116.33 6.73 117.88 7.57 C 115.42 11.25 113.44 15.23 112.02 19.42 L 111.97 18.71 C 111.87 16.91 111.68 13.31 111.58 11.51 C 111.57 10.39 111.56 9.27 111.54 8.15 L 111.53 7.28 C 111.96 6.71 112.83 5.57 113.27 5.00 Z" />
</g>
<g id="#d0cc89ff">
<path fill="#d0cc89" opacity="1.00" d=" M 187.92 6.02 C 190.07 5.84 192.20 5.45 194.31 5.01 C 193.58 6.77 195.88 7.30 196.93 6.26 C 197.43 5.94 198.43 5.29 198.93 4.96 C 200.58 5.46 202.24 5.97 203.89 6.48 C 206.84 11.83 213.05 13.13 218.61 13.97 L 218.89 14.46 C 219.65 16.25 221.48 17.13 223.26 17.62 C 223.45 18.33 223.82 19.75 224.00 20.46 L 224.00 22.81 C 223.45 23.19 222.34 23.96 221.78 24.34 C 221.52 22.06 221.17 19.79 220.86 17.52 C 219.75 17.51 218.64 17.50 217.53 17.47 C 217.04 17.45 216.07 17.41 215.59 17.39 C 208.84 11.67 199.62 11.95 191.65 9.18 C 191.46 10.57 191.28 11.96 191.08 13.34 C 190.80 12.60 190.25 11.11 189.98 10.36 C 187.93 11.48 185.92 12.57 183.96 13.82 C 183.66 14.08 183.05 14.59 182.75 14.85 C 182.78 14.26 182.86 13.07 182.89 12.48 C 184.63 10.37 186.34 8.24 187.92 6.02 Z" />
</g>
<g id="#675a4aff">
<path fill="#675a4a" opacity="1.00" d=" M 12.12 5.82 L 12.67 5.93 C 13.55 6.13 14.41 6.34 15.28 6.55 L 14.82 7.18 C 13.23 9.39 11.72 11.66 10.17 13.90 C 11.67 13.76 13.16 13.61 14.65 13.40 C 13.81 13.89 12.98 14.38 12.13 14.86 C 12.23 15.97 12.33 17.08 12.39 18.19 C 12.40 19.01 12.43 19.83 12.46 20.65 L 12.49 21.34 C 11.37 21.05 10.39 21.32 9.55 22.16 L 8.86 22.70 C 10.21 19.69 6.76 18.69 4.78 20.42 L 4.25 20.64 L 2.70 21.18 C 0.27 16.28 2.65 11.39 5.88 7.58 C 6.48 7.97 7.68 8.74 8.28 9.13 C 7.31 10.68 7.06 12.93 8.73 14.12 C 7.49 14.59 6.25 15.05 5.01 15.50 C 5.75 16.27 6.49 17.04 7.23 17.82 C 7.91 17.51 8.60 17.21 9.29 16.92 C 9.26 15.93 9.24 14.93 9.22 13.94 C 9.27 12.40 9.11 10.85 8.67 9.37 C 9.47 8.55 10.26 7.72 11.06 6.90 L 12.12 5.82 Z" />
</g>
<g id="#b0a66afe">
<path fill="#b0a66a" opacity="1.00" d=" M 14.82 7.18 C 16.44 6.96 18.06 6.71 19.67 6.46 C 18.33 8.66 16.89 10.80 15.45 12.94 L 14.65 13.40 C 13.16 13.61 11.67 13.76 10.17 13.90 C 11.72 11.66 13.23 9.39 14.82 7.18 Z" />
<path fill="#b0a66a" opacity="1.00" d=" M 70.40 6.87 C 72.25 6.64 74.09 6.34 75.93 6.02 C 74.33 8.26 72.59 10.40 70.83 12.51 L 70.33 13.11 C 69.02 13.46 67.71 13.77 66.40 14.08 C 67.74 11.68 69.11 9.30 70.40 6.87 Z" />
<path fill="#b0a66a" opacity="1.00" d=" M 126.40 6.87 C 128.25 6.63 130.10 6.34 131.95 6.02 C 130.36 8.24 128.64 10.36 126.86 12.43 L 126.31 13.05 C 125.01 13.43 123.71 13.76 122.40 14.10 C 123.73 11.69 125.10 9.30 126.40 6.87 Z" />
<path fill="#b0a66a" opacity="1.00" d=" M 182.39 6.87 C 184.24 6.63 186.08 6.34 187.92 6.02 C 186.34 8.24 184.63 10.37 182.89 12.48 L 182.38 13.09 C 181.06 13.45 179.73 13.76 178.40 14.08 C 179.74 11.68 181.11 9.30 182.39 6.87 Z" />
</g>
<g id="#b5ac6eff">
<path fill="#b5ac6e" opacity="1.00" d=" M 35.89 6.48 C 38.14 6.94 40.39 7.38 42.62 7.95 C 43.82 8.31 45.02 8.71 46.20 9.13 C 46.95 9.41 47.68 9.71 48.41 10.03 C 49.12 11.33 49.83 12.64 50.56 13.93 C 45.01 13.13 38.83 11.82 35.89 6.48 Z" />
<path fill="#b5ac6e" opacity="1.00" d=" M 91.89 6.48 C 94.14 6.94 96.39 7.38 98.62 7.95 C 99.82 8.31 101.02 8.71 102.20 9.13 C 102.95 9.41 103.68 9.71 104.41 10.03 C 105.12 11.33 105.83 12.63 106.56 13.93 C 101.00 13.13 94.83 11.81 91.89 6.48 Z" />
<path fill="#b5ac6e" opacity="1.00" d=" M 147.89 6.48 C 150.14 6.94 152.39 7.38 154.62 7.95 C 155.82 8.31 157.01 8.71 158.20 9.13 C 158.94 9.41 159.68 9.71 160.41 10.03 C 161.12 11.33 161.83 12.64 162.56 13.93 C 157.01 13.13 150.83 11.82 147.89 6.48 Z" />
<path fill="#b5ac6e" opacity="1.00" d=" M 203.89 6.48 C 206.14 6.94 208.39 7.38 210.62 7.95 C 211.82 8.31 213.01 8.71 214.20 9.13 C 214.94 9.41 215.66 9.71 216.39 10.02 C 217.12 11.34 217.86 12.66 218.61 13.97 C 213.05 13.13 206.84 11.83 203.89 6.48 Z" />
</g>
<g id="#4f4a42ff">
<path fill="#4f4a42" opacity="1.00" d=" M 68.01 5.87 L 68.73 6.04 C 68.86 6.37 69.10 7.02 69.22 7.35 C 68.33 8.23 67.05 8.47 65.89 8.77 C 66.22 8.17 66.89 6.96 67.23 6.36 L 68.01 5.87 Z" />
<path fill="#4f4a42" opacity="1.00" d=" M 124.01 5.87 L 124.73 6.04 C 124.86 6.37 125.10 7.02 125.22 7.35 C 124.32 8.23 123.05 8.47 121.89 8.77 C 122.22 8.17 122.89 6.97 123.22 6.36 L 124.01 5.87 Z" />
<path fill="#4f4a42" opacity="1.00" d=" M 180.01 5.87 L 180.73 6.04 C 180.86 6.37 181.10 7.02 181.22 7.35 C 180.32 8.23 179.05 8.47 177.89 8.77 C 178.22 8.17 178.89 6.96 179.23 6.36 L 180.01 5.87 Z" />
</g>
<g id="#6b5f4dff">
<path fill="#6b5f4d" opacity="1.00" d=" M 69.22 7.35 C 69.64 7.00 70.48 6.30 70.91 5.96 L 70.40 6.87 C 69.11 9.30 67.74 11.68 66.40 14.08 C 67.71 13.77 69.02 13.46 70.33 13.11 C 69.50 14.35 68.67 15.62 68.18 17.04 C 68.29 18.36 68.42 19.68 68.56 20.99 C 67.53 20.03 66.08 20.56 65.24 21.47 L 64.49 22.02 L 64.53 21.48 C 64.54 20.90 64.57 19.75 64.58 19.17 C 64.65 17.41 64.82 15.65 64.99 13.89 C 65.22 12.27 65.29 10.61 64.97 9.00 L 65.89 8.77 C 67.05 8.47 68.33 8.23 69.22 7.35 Z" />
<path fill="#6b5f4d" opacity="1.00" d=" M 181.22 7.35 C 181.64 7.00 182.48 6.30 182.90 5.96 L 182.39 6.87 C 181.11 9.30 179.74 11.68 178.40 14.08 C 179.73 13.76 181.06 13.45 182.38 13.09 C 181.53 14.33 180.68 15.60 180.16 17.02 C 180.27 18.33 180.40 19.64 180.55 20.95 C 179.50 20.00 178.06 20.57 177.23 21.48 L 176.49 22.03 L 176.53 21.48 C 176.54 20.90 176.57 19.75 176.58 19.17 C 176.65 17.41 176.82 15.65 176.99 13.89 C 177.22 12.27 177.29 10.61 176.97 9.00 L 177.89 8.77 C 179.05 8.47 180.32 8.23 181.22 7.35 Z" />
</g>
<g id="#6f624eff">
<path fill="#6f624e" opacity="1.00" d=" M 125.22 7.35 C 125.64 7.00 126.49 6.30 126.91 5.96 L 126.40 6.87 C 125.10 9.30 123.73 11.69 122.40 14.10 C 123.71 13.76 125.01 13.43 126.31 13.05 C 124.12 15.18 124.50 18.23 124.63 20.99 C 124.69 19.03 122.26 18.95 121.38 20.34 L 120.52 20.99 L 120.58 20.45 C 120.61 19.86 120.68 18.68 120.71 18.09 C 120.76 16.69 120.87 15.29 121.00 13.89 C 121.21 12.27 121.27 10.62 120.97 9.01 L 121.89 8.77 C 123.05 8.47 124.32 8.23 125.22 7.35 Z" />
</g>
<g id="#665a4bff">
<path fill="#665a4b" opacity="1.00" d=" M 61.91 7.58 C 62.56 7.91 63.86 8.57 64.52 8.89 C 63.48 10.45 63.22 12.61 64.54 14.09 C 63.33 14.62 62.13 15.15 60.92 15.68 C 61.90 16.65 62.89 17.62 63.90 18.56 C 63.19 18.76 61.77 19.16 61.06 19.35 L 60.50 19.57 L 58.68 20.09 C 56.27 15.53 59.07 11.12 61.91 7.58 Z" />
<path fill="#665a4b" opacity="1.00" d=" M 173.91 7.58 C 174.56 7.91 175.86 8.57 176.52 8.89 C 175.48 10.45 175.22 12.61 176.54 14.09 C 175.33 14.62 174.13 15.15 172.92 15.68 C 173.90 16.65 174.88 17.62 175.90 18.56 C 175.19 18.76 173.77 19.16 173.06 19.36 L 172.50 19.57 L 170.68 20.09 C 168.27 15.53 171.07 11.12 173.91 7.58 Z" />
</g>
<g id="#655f50ff">
<path fill="#655f50" opacity="1.00" d=" M 117.88 7.57 C 118.53 7.90 119.85 8.56 120.51 8.90 C 119.46 10.45 119.20 12.62 120.55 14.09 C 119.33 14.62 118.11 15.14 116.89 15.66 C 117.90 16.30 118.90 16.94 119.91 17.58 C 119.22 17.75 117.84 18.07 117.15 18.23 L 116.65 18.38 C 115.49 18.64 113.17 19.16 112.02 19.42 C 113.44 15.23 115.42 11.25 117.88 7.57 Z" />
</g>
<g id="#332e2aff">
<path fill="#332e2a" opacity="1.00" d=" M 8.28 9.13 L 8.67 9.37 C 9.11 10.85 9.27 12.40 9.22 13.94 L 8.73 14.12 C 7.06 12.93 7.31 10.68 8.28 9.13 Z" />
<path fill="#332e2a" opacity="1.00" d=" M 64.52 8.89 L 64.97 9.00 C 65.29 10.61 65.22 12.27 64.99 13.89 L 64.54 14.09 C 63.22 12.61 63.48 10.45 64.52 8.89 Z" />
<path fill="#332e2a" opacity="1.00" d=" M 120.51 8.90 L 120.97 9.01 C 121.27 10.62 121.21 12.27 121.00 13.89 L 120.55 14.09 C 119.20 12.62 119.46 10.45 120.51 8.90 Z" />
<path fill="#332e2a" opacity="1.00" d=" M 176.52 8.89 L 176.97 9.00 C 177.29 10.61 177.22 12.27 176.99 13.89 L 176.54 14.09 C 175.22 12.61 175.48 10.45 176.52 8.89 Z" />
<path fill="#332e2a" opacity="1.00" d=" M 14.65 13.40 L 15.45 12.94 C 15.21 13.33 14.73 14.11 14.49 14.50 C 13.73 15.70 13.03 16.93 12.39 18.19 C 12.33 17.08 12.23 15.97 12.13 14.86 C 12.98 14.38 13.81 13.89 14.65 13.40 Z" />
<path fill="#332e2a" opacity="1.00" d=" M 70.33 13.11 L 70.83 12.51 C 70.79 13.11 70.73 14.30 70.69 14.89 C 70.75 15.31 70.85 16.14 70.91 16.55 C 70.23 16.68 68.86 16.92 68.18 17.04 C 68.67 15.62 69.50 14.35 70.33 13.11 Z" />
<path fill="#332e2a" opacity="1.00" d=" M 182.38 13.09 L 182.89 12.48 C 182.86 13.07 182.78 14.26 182.75 14.85 C 182.78 15.28 182.86 16.15 182.90 16.58 C 182.22 16.69 180.85 16.91 180.16 17.02 C 180.68 15.60 181.53 14.33 182.38 13.09 Z" />
<path fill="#332e2a" opacity="1.00" d=" M 117.15 18.23 C 117.84 18.07 119.22 17.75 119.91 17.58 L 120.71 18.09 C 120.68 18.68 120.61 19.86 120.58 20.45 C 119.31 19.95 118.12 19.19 117.15 18.23 Z" />
<path fill="#332e2a" opacity="1.00" d=" M 61.06 19.35 C 61.77 19.16 63.19 18.76 63.90 18.56 L 64.58 19.17 C 64.57 19.75 64.54 20.90 64.53 21.48 C 63.28 20.94 62.05 20.29 61.06 19.35 Z" />
<path fill="#332e2a" opacity="1.00" d=" M 173.06 19.36 C 173.77 19.16 175.19 18.76 175.90 18.56 L 176.58 19.17 C 176.57 19.75 176.54 20.90 176.53 21.48 C 175.28 20.94 174.05 20.29 173.06 19.36 Z" />
<path fill="#332e2a" opacity="1.00" d=" M 52.32 45.06 C 53.04 43.22 53.67 41.36 54.45 39.55 C 53.56 41.05 54.54 42.52 56.03 43.00 L 56.05 43.59 C 54.80 44.06 53.56 44.55 52.32 45.06 Z" />
<path fill="#332e2a" opacity="1.00" d=" M 108.32 45.06 C 109.04 43.23 109.67 41.36 110.45 39.55 C 109.56 41.05 110.54 42.52 112.03 43.00 L 112.05 43.59 C 110.80 44.06 109.56 44.55 108.32 45.06 Z" />
<path fill="#332e2a" opacity="1.00" d=" M 164.32 45.06 C 165.04 43.23 165.67 41.36 166.45 39.55 C 165.56 41.05 166.54 42.52 168.03 43.00 L 168.05 43.59 C 166.80 44.06 165.56 44.55 164.32 45.06 Z" />
<path fill="#332e2a" opacity="1.00" d=" M 220.31 45.02 C 221.12 43.21 221.83 41.36 222.71 39.57 C 221.39 40.88 222.74 42.32 224.00 42.89 L 224.00 43.11 C 222.76 43.74 221.53 44.37 220.31 45.02 Z" />
<path fill="#332e2a" opacity="1.00" d=" M 49.70 44.89 C 49.32 43.34 50.83 42.37 52.03 41.85 C 51.89 43.10 51.43 45.28 49.70 44.89 Z" />
<path fill="#332e2a" opacity="1.00" d=" M 105.67 44.77 C 105.32 43.21 106.85 42.27 108.08 41.80 C 107.93 43.07 107.39 45.14 105.67 44.77 Z" />
<path fill="#332e2a" opacity="1.00" d=" M 161.67 44.76 C 161.32 43.21 162.86 42.28 164.08 41.81 C 163.94 43.08 163.38 45.15 161.67 44.76 Z" />
<path fill="#332e2a" opacity="1.00" d=" M 217.95 44.76 C 217.52 43.44 218.57 42.36 219.47 41.57 C 220.24 42.75 219.70 45.14 217.95 44.76 Z" />
<path fill="#332e2a" opacity="1.00" d=" M 45.49 52.15 C 45.76 51.92 46.29 51.47 46.56 51.25 C 46.99 51.08 47.84 50.72 48.27 50.55 C 48.64 50.58 49.37 50.66 49.73 50.69 L 49.78 51.18 C 49.71 51.53 49.57 52.21 49.49 52.56 L 48.67 52.76 L 47.83 52.72 C 47.25 52.58 46.07 52.29 45.49 52.15 Z" />
<path fill="#332e2a" opacity="1.00" d=" M 101.21 51.71 C 101.48 51.54 102.03 51.20 102.30 51.03 C 102.78 50.90 103.74 50.65 104.22 50.52 C 104.60 50.56 105.35 50.65 105.73 50.70 L 105.79 51.19 C 105.73 51.52 105.62 52.17 105.57 52.49 L 104.74 52.66 L 103.87 52.58 C 103.21 52.37 101.88 51.93 101.21 51.71 Z" />
<path fill="#332e2a" opacity="1.00" d=" M 157.21 51.71 C 157.48 51.54 158.03 51.20 158.30 51.03 C 158.78 50.90 159.74 50.65 160.22 50.52 C 160.60 50.56 161.35 50.65 161.73 50.70 L 161.79 51.19 C 161.73 51.52 161.62 52.17 161.56 52.49 L 160.73 52.66 L 159.87 52.58 C 159.21 52.36 157.88 51.93 157.21 51.71 Z" />
<path fill="#332e2a" opacity="1.00" d=" M 213.21 51.71 C 213.48 51.54 214.03 51.20 214.30 51.03 C 214.78 50.90 215.74 50.65 216.22 50.52 C 216.60 50.56 217.35 50.65 217.73 50.70 L 217.79 51.19 C 217.73 51.52 217.62 52.17 217.56 52.49 L 216.73 52.66 L 215.87 52.58 C 215.21 52.37 213.88 51.93 213.21 51.71 Z" />
<path fill="#332e2a" opacity="1.00" d=" M 46.89 53.92 L 47.50 53.41 C 47.69 54.05 48.07 55.35 48.26 56.00 L 44.54 56.00 C 44.15 55.38 43.39 54.14 43.00 53.53 C 42.99 56.06 46.10 55.91 46.89 53.92 Z" />
<path fill="#332e2a" opacity="1.00" d=" M 102.84 53.28 L 103.53 53.26 C 103.66 53.94 103.91 55.31 104.03 56.00 L 100.15 56.00 L 99.97 55.33 C 101.24 55.55 102.58 54.52 102.84 53.28 Z" />
<path fill="#332e2a" opacity="1.00" d=" M 158.84 53.28 L 159.53 53.26 C 159.66 53.94 159.91 55.31 160.03 56.00 L 156.15 56.00 L 155.98 55.33 C 157.24 55.55 158.58 54.52 158.84 53.28 Z" />
<path fill="#332e2a" opacity="1.00" d=" M 214.84 53.28 L 215.53 53.26 C 215.66 53.94 215.91 55.31 216.03 56.00 L 212.15 56.00 L 211.98 55.33 C 213.24 55.55 214.58 54.52 214.84 53.28 Z" />
</g>
<g id="#dcd78afe">
<path fill="#dcd78a" opacity="1.00" d=" M 23.65 9.19 C 31.71 11.70 40.56 12.11 47.64 17.16 C 44.32 16.76 41.03 16.21 37.72 15.70 C 36.25 15.51 33.30 15.14 31.83 14.95 C 32.49 14.88 33.81 14.74 34.47 14.67 C 32.40 13.54 30.42 12.13 28.11 11.55 C 25.02 12.75 22.52 15.02 19.63 16.58 C 18.41 17.22 17.20 17.87 16.01 18.55 C 16.03 16.85 16.06 15.16 16.07 13.47 C 17.97 12.29 19.99 11.32 21.97 10.29 C 22.24 11.05 22.80 12.59 23.08 13.36 C 23.28 11.97 23.47 10.58 23.65 9.19 Z" />
</g>
<g id="#ded98cff">
<path fill="#ded98c" opacity="1.00" d=" M 79.65 9.18 C 87.62 11.96 96.85 11.67 103.59 17.40 L 102.51 17.32 C 98.44 16.74 94.43 15.90 90.49 14.75 C 88.31 13.70 86.29 12.26 83.92 11.64 C 81.50 12.08 79.48 13.64 77.34 14.76 C 78.09 14.80 79.58 14.87 80.33 14.91 C 77.84 15.14 75.35 15.38 72.86 15.64 C 72.60 15.21 72.08 14.35 71.82 13.92 C 73.82 12.63 75.89 11.49 77.98 10.35 C 78.25 11.10 78.80 12.60 79.08 13.35 C 79.28 11.96 79.46 10.57 79.65 9.18 Z" />
</g>
<g id="#ded98bff">
<path fill="#ded98b" opacity="1.00" d=" M 135.65 9.19 C 143.16 11.61 151.43 11.91 158.15 16.40 C 153.43 15.47 148.74 14.33 143.97 13.66 C 142.61 12.83 141.28 11.95 139.80 11.35 C 137.57 12.01 135.76 13.58 134.00 15.02 C 133.08 15.85 132.19 16.71 131.30 17.56 L 130.63 18.18 C 130.01 17.28 129.40 16.39 128.81 15.48 C 128.53 15.04 127.98 14.18 127.70 13.74 C 129.76 12.54 131.90 11.51 134.06 10.47 C 134.31 11.19 134.82 12.62 135.07 13.33 C 135.28 11.96 135.47 10.57 135.65 9.19 Z" />
</g>
<g id="#dfd98bfe">
<path fill="#dfd98b" opacity="1.00" d=" M 191.65 9.18 C 199.62 11.95 208.84 11.67 215.59 17.39 L 214.51 17.31 C 210.41 16.73 206.37 15.89 202.37 14.89 C 199.52 13.46 196.75 11.87 193.86 10.52 C 193.60 11.45 193.07 13.31 192.80 14.24 C 194.33 14.35 195.86 14.46 197.39 14.56 C 192.75 15.56 188.13 16.61 183.57 17.92 C 183.76 17.53 184.14 16.75 184.33 16.36 C 184.82 15.45 184.70 14.60 183.96 13.82 C 185.92 12.57 187.93 11.48 189.98 10.36 C 190.25 11.11 190.80 12.60 191.08 13.34 C 191.28 11.96 191.46 10.57 191.65 9.18 Z" />
</g>
<g id="#6a9a61ff">
<path fill="#6a9a61" opacity="1.00" d=" M 222.02 14.76 C 222.68 12.89 223.38 11.02 224.00 9.13 L 224.00 20.46 C 223.82 19.75 223.45 18.33 223.26 17.62 C 223.03 16.59 222.62 15.63 222.02 14.76 Z" />
</g>
<g id="#edf1abff">
<path fill="#edf1ab" opacity="1.00" d=" M 19.63 16.58 C 22.52 15.02 25.02 12.75 28.11 11.55 C 30.42 12.13 32.40 13.54 34.47 14.67 C 33.81 14.74 32.49 14.88 31.83 14.95 C 27.74 15.34 23.68 15.96 19.63 16.58 Z" />
</g>
<g id="#eaefaafe">
<path fill="#eaefaa" opacity="1.00" d=" M 77.34 14.76 C 79.48 13.64 81.50 12.08 83.92 11.64 C 86.29 12.26 88.31 13.70 90.49 14.75 C 87.09 14.75 83.72 14.85 80.33 14.91 C 79.58 14.87 78.09 14.80 77.34 14.76 Z" />
</g>
<g id="#edf0abff">
<path fill="#edf0ab" opacity="1.00" d=" M 134.00 15.02 C 135.76 13.58 137.57 12.01 139.80 11.35 C 141.28 11.95 142.61 12.83 143.97 13.66 C 140.63 14.04 137.32 14.59 134.00 15.02 Z" />
</g>
<g id="#eaf1acff">
<path fill="#eaf1ac" opacity="1.00" d=" M 193.86 10.52 C 196.75 11.87 199.52 13.46 202.37 14.89 C 200.71 14.73 199.05 14.63 197.39 14.56 C 195.86 14.46 194.33 14.35 192.80 14.24 C 193.07 13.31 193.60 11.45 193.86 10.52 Z" />
</g>
<g id="#679761ff">
<path fill="#679761" opacity="1.00" d=" M 54.11 14.86 C 54.55 13.76 55.01 12.66 55.41 11.54 C 55.51 13.40 55.72 17.11 55.82 18.97 C 55.70 18.68 55.45 18.09 55.33 17.80 C 54.99 16.79 54.59 15.81 54.11 14.86 Z" />
<path fill="#679761" opacity="1.00" d=" M 110.07 14.86 C 110.58 13.75 111.10 12.64 111.58 11.51 C 111.68 13.31 111.87 16.91 111.97 18.71 C 111.79 18.50 111.43 18.09 111.24 17.88 C 110.93 16.84 110.53 15.84 110.07 14.86 Z" />
<path fill="#679761" opacity="1.00" d=" M 166.11 14.86 C 166.55 13.76 167.00 12.66 167.41 11.54 C 167.51 13.40 167.72 17.11 167.82 18.97 C 167.70 18.68 167.45 18.09 167.33 17.80 C 166.99 16.79 166.59 15.81 166.11 14.86 Z" />
</g>
<g id="#495142ff">
<path fill="#495142" opacity="1.00" d=" M 126.31 13.05 L 126.86 12.43 C 126.79 12.96 126.65 14.01 126.58 14.54 C 126.56 14.93 126.52 15.70 126.50 16.09 C 126.38 16.60 126.14 17.62 126.01 18.13 C 125.93 18.80 125.77 20.13 125.69 20.80 L 124.63 20.99 C 124.50 18.23 124.12 15.18 126.31 13.05 Z" />
</g>
<g id="#9c8a4eff">
<path fill="#9c8a4e" opacity="1.00" d=" M 8.73 14.12 L 9.22 13.94 C 9.24 14.93 9.26 15.93 9.29 16.92 C 8.60 17.21 7.91 17.51 7.23 17.82 C 6.49 17.04 5.75 16.27 5.01 15.50 C 6.25 15.05 7.49 14.59 8.73 14.12 Z" />
<path fill="#9c8a4e" opacity="1.00" d=" M 120.55 14.09 L 121.00 13.89 C 120.87 15.29 120.76 16.69 120.71 18.09 L 119.91 17.58 C 118.90 16.94 117.90 16.30 116.89 15.66 C 118.11 15.14 119.33 14.62 120.55 14.09 Z" />
</g>
<g id="#a49a62ff">
<path fill="#a49a62" opacity="1.00" d=" M 16.07 13.47 C 16.06 15.16 16.03 16.85 16.01 18.55 C 14.81 19.23 13.63 19.94 12.46 20.65 C 12.43 19.83 12.40 19.01 12.39 18.19 C 13.03 16.93 13.73 15.70 14.49 14.50 C 14.88 14.24 15.67 13.72 16.07 13.47 Z" />
</g>
<g id="#9a9364fe">
<path fill="#9a9364" opacity="1.00" d=" M 50.81 14.37 C 51.95 14.31 53.05 14.47 54.11 14.86 C 54.59 15.81 54.99 16.79 55.33 17.80 C 53.61 16.99 51.63 16.25 50.81 14.37 Z" />
<path fill="#9a9364" opacity="1.00" d=" M 106.80 14.36 C 107.93 14.30 109.02 14.47 110.07 14.86 C 110.53 15.84 110.93 16.84 111.24 17.88 C 109.56 17.02 107.60 16.23 106.80 14.36 Z" />
<path fill="#9a9364" opacity="1.00" d=" M 162.81 14.37 C 163.95 14.31 165.05 14.47 166.11 14.86 C 166.59 15.81 166.99 16.79 167.33 17.80 C 165.61 16.99 163.62 16.24 162.81 14.37 Z" />
<path fill="#9a9364" opacity="1.00" d=" M 218.89 14.46 C 219.94 14.42 220.99 14.52 222.02 14.76 C 222.62 15.63 223.03 16.59 223.26 17.62 C 221.48 17.13 219.65 16.25 218.89 14.46 Z" />
</g>
<g id="#9c894eff">
<path fill="#9c894e" opacity="1.00" d=" M 64.54 14.09 L 64.99 13.89 C 64.82 15.65 64.65 17.41 64.58 19.17 L 63.90 18.56 C 62.89 17.62 61.90 16.65 60.92 15.68 C 62.13 15.15 63.33 14.62 64.54 14.09 Z" />
<path fill="#9c894e" opacity="1.00" d=" M 176.54 14.09 L 176.99 13.89 C 176.82 15.65 176.65 17.41 176.58 19.17 L 175.90 18.56 C 174.88 17.62 173.90 16.65 172.92 15.68 C 174.13 15.15 175.33 14.62 176.54 14.09 Z" />
</g>
<g id="#a2e1a3ff">
<path fill="#a2e1a3" opacity="1.00" d=" M 134.00 15.02 C 137.32 14.59 140.63 14.04 143.97 13.66 C 148.74 14.33 153.43 15.47 158.15 16.40 C 159.72 18.97 161.49 21.40 163.08 23.95 L 163.27 24.51 C 163.03 24.80 162.55 25.38 162.31 25.67 C 158.34 22.08 154.75 17.11 149.02 16.62 L 148.39 16.59 C 142.66 16.28 136.97 16.90 131.30 17.56 C 132.19 16.71 133.08 15.85 134.00 15.02 Z" />
</g>
<g id="#9fdfa2ff">
<path fill="#9fdfa2" opacity="1.00" d=" M 19.63 16.58 C 23.68 15.96 27.74 15.34 31.83 14.95 C 33.30 15.14 36.25 15.51 37.72 15.70 C 43.39 18.52 50.05 22.26 50.77 29.23 C 50.71 29.74 50.59 30.76 50.53 31.27 C 48.51 31.32 47.47 33.75 48.95 35.18 C 47.53 37.52 46.20 39.92 45.04 42.40 C 45.32 39.70 45.58 37.00 45.83 34.31 C 46.42 30.68 47.39 27.12 48.29 23.56 C 42.22 19.36 34.93 16.78 27.50 17.81 C 22.51 18.37 17.71 20.19 13.28 22.49 L 12.47 22.91 C 12.47 22.52 12.48 21.73 12.49 21.34 L 12.46 20.65 C 13.63 19.94 14.81 19.23 16.01 18.55 C 17.20 17.87 18.41 17.22 19.63 16.58 Z" />
</g>
<g id="#eef2acff">
<path fill="#eef2ac" opacity="1.00" d=" M 37.72 15.70 C 41.03 16.21 44.32 16.76 47.64 17.16 C 48.09 17.22 49.00 17.34 49.45 17.40 C 50.65 21.21 51.56 25.23 50.77 29.23 C 50.05 22.26 43.39 18.52 37.72 15.70 Z" />
</g>
<g id="#a1e1a3ff">
<path fill="#a1e1a3" opacity="1.00" d=" M 80.33 14.91 C 83.72 14.85 87.09 14.75 90.49 14.75 C 94.43 15.90 98.44 16.74 102.51 17.32 C 103.79 20.06 105.08 22.82 105.97 25.72 C 102.57 22.06 98.81 18.16 93.76 17.06 C 86.97 15.54 80.22 17.73 73.62 19.08 C 72.89 19.11 71.42 19.17 70.69 19.20 C 71.29 18.22 71.89 17.24 72.48 16.26 L 72.86 15.64 C 75.35 15.38 77.84 15.14 80.33 14.91 Z" />
<path fill="#a1e1a3" opacity="1.00" d=" M 183.57 17.92 C 188.13 16.61 192.75 15.56 197.39 14.56 C 199.05 14.63 200.71 14.73 202.37 14.89 C 206.37 15.89 210.41 16.73 214.51 17.31 C 215.79 20.06 217.08 22.81 217.97 25.72 C 214.57 22.06 210.83 18.11 205.75 17.10 C 198.95 15.73 192.29 17.99 185.65 19.12 C 184.91 19.15 183.43 19.21 182.69 19.24 C 182.91 18.91 183.35 18.25 183.57 17.92 Z" />
<path fill="#a1e1a3" opacity="1.00" d=" M 8.86 22.70 L 9.55 22.16 C 10.13 22.44 11.28 23.02 11.86 23.31 C 11.43 23.58 10.58 24.12 10.16 24.40 C 9.81 24.15 9.10 23.66 8.75 23.41 L 8.86 22.70 Z" />
</g>
<g id="#979f6cff">
<path fill="#979f6c" opacity="1.00" d=" M 70.91 16.55 C 71.30 16.48 72.09 16.34 72.48 16.26 C 71.89 17.24 71.29 18.22 70.69 19.20 C 70.34 19.73 69.64 20.80 69.29 21.34 L 68.63 21.68 L 68.56 20.99 C 68.42 19.68 68.29 18.36 68.18 17.04 C 68.86 16.92 70.23 16.68 70.91 16.55 Z" />
<path fill="#979f6c" opacity="1.00" d=" M 182.90 16.58 C 183.26 16.52 183.97 16.42 184.33 16.36 C 184.14 16.75 183.76 17.53 183.57 17.92 C 183.35 18.25 182.91 18.91 182.69 19.24 C 182.33 19.75 181.61 20.78 181.25 21.29 L 180.61 21.64 L 180.55 20.95 C 180.40 19.64 180.27 18.33 180.16 17.02 C 180.85 16.91 182.22 16.69 182.90 16.58 Z" />
</g>
<g id="#40cebefe">
<path fill="#40cebe" opacity="1.00" d=" M 73.62 19.08 C 80.22 17.73 86.97 15.54 93.76 17.06 C 98.81 18.16 102.57 22.06 105.97 25.72 C 106.09 26.13 106.33 26.94 106.45 27.35 C 104.98 29.52 103.60 31.76 102.52 34.15 C 102.56 29.52 103.79 22.01 97.79 20.21 C 89.90 17.98 81.69 19.05 73.62 19.08 Z" />
</g>
<g id="#938454ff">
<path fill="#938454" opacity="1.00" d=" M 126.50 16.09 C 126.97 16.11 127.92 16.15 128.40 16.18 C 128.00 16.73 127.19 17.85 126.79 18.41 L 126.01 18.13 C 126.14 17.62 126.38 16.60 126.50 16.09 Z" />
</g>
<g id="#a0e1a3ff">
<path fill="#a0e1a3" opacity="1.00" d=" M 128.40 16.18 L 128.81 15.48 C 129.40 16.39 130.01 17.28 130.63 18.18 C 130.37 18.40 129.86 18.83 129.61 19.05 C 128.65 18.90 127.71 18.68 126.79 18.41 C 127.19 17.85 128.00 16.73 128.40 16.18 Z" />
</g>
<g id="#40cfbeff">
<path fill="#40cfbe" opacity="1.00" d=" M 131.30 17.56 C 136.97 16.90 142.66 16.28 148.39 16.59 C 142.28 18.12 135.97 19.93 129.61 19.05 C 129.86 18.83 130.37 18.40 130.63 18.18 L 131.30 17.56 Z" />
</g>
<g id="#40cebeff">
<path fill="#40cebe" opacity="1.00" d=" M 149.02 16.62 C 154.75 17.11 158.34 22.08 162.31 25.67 C 162.27 26.18 162.18 27.21 162.14 27.73 C 161.02 30.94 159.63 34.05 158.71 37.32 C 158.66 33.26 159.33 29.03 158.25 25.04 C 156.37 21.20 152.67 18.64 149.02 16.62 Z" />
<path fill="#40cebe" opacity="1.00" d=" M 185.65 19.12 C 192.29 17.99 198.95 15.73 205.75 17.10 C 210.83 18.11 214.57 22.06 217.97 25.72 C 218.09 26.13 218.33 26.95 218.45 27.35 C 216.98 29.52 215.60 31.76 214.52 34.15 C 214.56 29.52 215.79 22.01 209.79 20.21 C 201.91 17.98 193.71 19.02 185.65 19.12 Z" />
<path fill="#40cebe" opacity="1.00" d=" M 27.50 17.81 C 34.93 16.78 42.22 19.36 48.29 23.56 C 47.39 27.12 46.42 30.68 45.83 34.31 C 45.29 30.52 47.43 24.41 43.20 21.91 C 38.35 19.45 32.72 19.08 27.50 17.81 Z" />
</g>
<g id="#dcd78aff">
<path fill="#dcd78a" opacity="1.00" d=" M 49.45 17.40 C 50.57 17.52 51.68 17.62 52.80 17.72 C 53.22 20.08 53.70 22.42 54.11 24.78 C 53.46 30.01 52.14 35.15 50.36 40.11 C 48.85 41.68 47.25 43.16 45.57 44.55 L 44.52 44.44 C 44.65 43.93 44.91 42.91 45.04 42.40 C 46.20 39.92 47.53 37.52 48.95 35.18 C 49.74 34.01 50.48 32.72 50.53 31.27 C 50.59 30.76 50.71 29.74 50.77 29.23 C 51.56 25.23 50.65 21.21 49.45 17.40 Z" />
</g>
<g id="#dcd78bff">
<path fill="#dcd78b" opacity="1.00" d=" M 105.53 17.48 C 106.62 17.51 107.70 17.51 108.79 17.51 C 109.18 19.95 109.66 22.37 110.05 24.80 C 109.46 30.02 108.14 35.16 106.36 40.10 C 104.91 41.68 103.38 43.19 101.79 44.63 L 101.04 44.63 C 101.30 44.02 101.81 42.78 102.07 42.16 C 104.11 37.90 106.24 33.55 106.71 28.77 C 106.92 24.98 106.19 21.20 105.53 17.48 Z" />
<path fill="#dcd78b" opacity="1.00" d=" M 217.53 17.47 C 218.64 17.50 219.75 17.51 220.86 17.52 C 221.17 19.79 221.52 22.06 221.78 24.34 C 221.64 29.74 220.21 35.03 218.36 40.07 C 216.91 41.67 215.38 43.20 213.79 44.65 L 213.03 44.65 C 213.29 44.03 213.81 42.78 214.07 42.16 C 216.11 37.90 218.24 33.55 218.71 28.77 C 218.92 24.97 218.19 21.20 217.53 17.47 Z" />
</g>
<g id="#1aa9c1ff">
<path fill="#1aa9c1" opacity="1.00" d=" M 148.39 16.59 L 149.02 16.62 C 152.67 18.64 156.37 21.20 158.25 25.04 C 159.33 29.03 158.66 33.26 158.71 37.32 C 158.51 38.95 158.31 40.58 158.06 42.20 C 157.82 42.78 157.34 43.94 157.10 44.52 L 156.45 44.51 C 156.09 44.32 155.38 43.94 155.03 43.76 C 156.09 35.70 158.11 26.53 152.30 19.72 C 143.47 20.49 134.55 22.20 125.69 20.80 C 125.77 20.13 125.93 18.80 126.01 18.13 L 126.79 18.41 C 127.71 18.68 128.65 18.90 129.61 19.05 C 135.97 19.93 142.28 18.12 148.39 16.59 Z" />
<path fill="#1aa9c1" opacity="1.00" d=" M 13.28 22.49 C 17.71 20.19 22.51 18.37 27.50 17.81 C 32.72 19.08 38.35 19.45 43.20 21.91 C 47.43 24.41 45.29 30.52 45.83 34.31 C 45.58 37.00 45.32 39.70 45.04 42.40 C 44.91 42.91 44.65 43.93 44.52 44.44 L 43.40 44.24 C 43.14 43.98 42.61 43.47 42.35 43.22 C 42.22 37.08 43.98 30.85 42.96 24.75 C 42.34 21.72 38.88 21.50 36.37 21.53 C 28.67 22.00 20.94 21.60 13.28 22.49 Z" />
<path fill="#1aa9c1" opacity="1.00" d=" M 73.62 19.08 C 81.69 19.05 89.90 17.98 97.79 20.21 C 103.79 22.01 102.56 29.52 102.52 34.15 C 102.41 36.82 102.26 39.49 102.07 42.16 C 101.81 42.78 101.30 44.02 101.04 44.63 L 100.31 44.63 C 99.95 44.44 99.21 44.05 98.84 43.85 C 98.58 36.91 102.20 28.51 97.57 22.42 C 88.29 21.12 78.70 22.08 69.29 21.34 C 69.64 20.80 70.34 19.73 70.69 19.20 C 71.42 19.17 72.89 19.11 73.62 19.08 Z" />
<path fill="#1aa9c1" opacity="1.00" d=" M 185.65 19.12 C 193.71 19.02 201.91 17.98 209.79 20.21 C 215.79 22.01 214.56 29.52 214.52 34.15 C 214.41 36.82 214.26 39.49 214.07 42.16 C 213.81 42.78 213.29 44.03 213.03 44.65 L 212.32 44.64 C 211.95 44.45 211.21 44.05 210.84 43.85 C 210.58 36.91 214.20 28.51 209.57 22.42 C 200.28 21.11 190.67 22.12 181.25 21.29 C 181.61 20.78 182.33 19.75 182.69 19.24 C 183.43 19.21 184.91 19.15 185.65 19.12 Z" />
</g>
<g id="#eef1adff">
<path fill="#eef1ad" opacity="1.00" d=" M 158.15 16.40 C 159.08 16.75 160.03 17.06 160.99 17.33 C 161.69 19.53 162.36 21.75 163.08 23.95 C 161.49 21.40 159.72 18.97 158.15 16.40 Z" />
</g>
<g id="#dbd68aff">
<path fill="#dbd68a" opacity="1.00" d=" M 160.99 17.33 C 162.26 17.52 163.53 17.66 164.81 17.81 C 165.21 20.14 165.70 22.45 166.12 24.78 C 165.46 30.00 164.14 35.15 162.36 40.10 C 160.91 41.65 159.39 43.14 157.80 44.54 L 157.10 44.52 C 157.34 43.94 157.82 42.78 158.06 42.20 C 160.33 37.86 162.23 33.26 162.66 28.33 C 163.77 27.35 164.04 25.78 163.27 24.51 L 163.08 23.95 C 162.36 21.75 161.69 19.53 160.99 17.33 Z" />
</g>
<g id="#eef2adff">
<path fill="#eef2ad" opacity="1.00" d=" M 102.51 17.32 L 103.59 17.40 C 104.07 17.42 105.05 17.46 105.53 17.48 C 106.19 21.20 106.92 24.98 106.71 28.77 L 106.45 27.35 C 106.33 26.94 106.09 26.13 105.97 25.72 C 105.08 22.82 103.79 20.06 102.51 17.32 Z" />
<path fill="#eef2ad" opacity="1.00" d=" M 214.51 17.31 L 215.59 17.39 C 216.07 17.41 217.04 17.45 217.53 17.47 C 218.19 21.20 218.92 24.97 218.71 28.77 L 218.45 27.35 C 218.33 26.95 218.09 26.13 217.97 25.72 C 217.08 22.81 215.79 20.06 214.51 17.31 Z" />
<path fill="#eef2ad" opacity="1.00" d=" M 162.31 25.67 C 162.55 25.38 163.03 24.80 163.27 24.51 C 164.04 25.78 163.77 27.35 162.66 28.33 L 162.14 27.73 C 162.18 27.21 162.27 26.18 162.31 25.67 Z" />
<path fill="#eef2ad" opacity="1.00" d=" M 48.95 35.18 C 47.47 33.75 48.51 31.32 50.53 31.27 C 50.48 32.72 49.74 34.01 48.95 35.18 Z" />
</g>
<g id="#332e2afe">
<path fill="#332e2a" opacity="1.00" d=" M 4.78 20.42 C 6.76 18.69 10.21 19.69 8.86 22.70 C 7.57 21.82 6.21 21.03 4.78 20.42 Z" />
</g>
<g id="#65569cff">
<path fill="#65569c" opacity="1.00" d=" M 112.02 19.42 C 113.17 19.16 115.49 18.64 116.65 18.38 C 116.57 20.18 118.18 21.57 119.94 21.40 C 117.29 21.09 114.66 20.71 112.06 20.12 L 112.02 19.42 Z" />
<path fill="#65569c" opacity="1.00" d=" M 56.52 20.61 C 57.06 20.48 58.14 20.22 58.68 20.09 L 60.50 19.57 C 60.48 21.39 62.25 22.51 63.93 22.41 C 61.41 21.97 58.94 21.40 56.52 20.61 Z" />
<path fill="#65569c" opacity="1.00" d=" M 168.51 20.60 C 169.06 20.48 170.14 20.22 170.68 20.09 L 172.50 19.57 C 172.48 21.39 174.25 22.51 175.93 22.42 C 173.41 21.98 170.94 21.40 168.51 20.60 Z" />
<path fill="#65569c" opacity="1.00" d=" M 0.71 21.80 C 1.21 21.64 2.20 21.33 2.70 21.18 L 4.25 20.64 C 4.74 22.40 6.55 23.12 8.21 23.31 C 5.70 22.85 3.21 22.28 0.71 21.80 Z" />
</g>
<g id="#61d5b5ff">
<path fill="#61d5b5" opacity="1.00" d=" M 116.65 18.38 L 117.15 18.23 C 118.12 19.19 119.31 19.95 120.58 20.45 L 120.52 20.99 L 119.94 21.40 C 118.18 21.57 116.57 20.18 116.65 18.38 Z" />
<path fill="#61d5b5" opacity="1.00" d=" M 60.50 19.57 L 61.06 19.35 C 62.05 20.29 63.28 20.94 64.53 21.48 L 64.49 22.02 L 63.93 22.41 C 62.25 22.51 60.48 21.39 60.50 19.57 Z" />
<path fill="#61d5b5" opacity="1.00" d=" M 172.50 19.57 L 173.06 19.36 C 174.05 20.29 175.28 20.94 176.53 21.48 L 176.49 22.03 L 175.93 22.42 C 174.25 22.51 172.48 21.39 172.50 19.57 Z" />
<path fill="#61d5b5" opacity="1.00" d=" M 4.25 20.64 L 4.78 20.42 C 6.21 21.03 7.57 21.82 8.86 22.70 L 8.75 23.41 L 8.21 23.31 C 6.55 23.12 4.74 22.40 4.25 20.64 Z" />
</g>
<g id="#5abdbaff">
<path fill="#5abdba" opacity="1.00" d=" M 121.38 20.34 C 122.26 18.95 124.69 19.03 124.63 20.99 C 123.44 21.31 122.35 21.09 121.38 20.34 Z" />
<path fill="#5abdba" opacity="1.00" d=" M 65.24 21.47 C 66.08 20.56 67.53 20.03 68.56 20.99 L 68.63 21.68 C 67.48 22.36 66.35 22.29 65.24 21.47 Z" />
<path fill="#5abdba" opacity="1.00" d=" M 177.23 21.48 C 178.06 20.57 179.50 20.00 180.55 20.95 L 180.61 21.64 C 179.47 22.35 178.35 22.30 177.23 21.48 Z" />
<path fill="#5abdba" opacity="1.00" d=" M 9.55 22.16 C 10.39 21.32 11.37 21.05 12.49 21.34 C 12.48 21.73 12.47 22.52 12.47 22.91 L 11.86 23.31 C 11.28 23.02 10.13 22.44 9.55 22.16 Z" />
</g>
<g id="#3c6bbeff">
<path fill="#3c6bbe" opacity="1.00" d=" M 55.58 22.37 C 55.89 21.78 56.20 21.19 56.52 20.61 C 58.94 21.40 61.41 21.97 63.93 22.41 L 64.49 22.02 L 65.24 21.47 C 64.88 23.20 64.52 24.92 64.15 26.65 C 66.92 26.84 69.69 27.14 72.47 27.16 L 73.13 27.14 C 72.83 29.59 74.14 33.00 71.55 34.32 C 67.90 36.20 63.82 37.07 59.99 38.52 C 62.79 41.78 65.74 45.01 69.54 47.14 C 67.39 44.60 65.22 42.06 63.24 39.38 C 69.46 36.48 76.31 34.77 83.14 36.75 C 81.37 41.26 78.78 45.41 75.42 48.89 C 76.04 49.03 77.28 49.30 77.90 49.43 C 75.91 51.08 73.95 52.75 72.01 54.45 C 79.49 50.41 88.51 50.41 95.99 54.45 C 94.05 52.75 92.09 51.08 90.11 49.43 C 90.72 49.30 91.96 49.03 92.57 48.90 C 89.43 45.54 86.89 41.67 85.03 37.46 C 88.21 36.82 91.40 36.12 94.57 35.42 C 95.90 38.27 97.08 41.22 98.84 43.85 C 99.21 44.05 99.95 44.44 100.31 44.63 L 99.70 44.66 C 99.35 44.80 98.64 45.08 98.29 45.22 C 96.77 46.61 98.54 48.65 99.78 49.53 C 99.61 49.92 99.26 50.70 99.09 51.08 C 98.31 52.76 97.47 54.40 96.55 56.00 L 56.03 56.00 C 56.06 51.86 56.07 47.72 56.05 43.59 L 56.03 43.00 C 56.06 41.44 55.71 39.96 54.97 38.57 C 55.03 37.97 55.13 36.77 55.18 36.17 L 55.59 35.30 L 55.89 34.70 C 55.93 34.03 56.02 32.69 56.07 32.01 C 55.88 28.80 55.65 25.59 55.58 22.37 Z" />
<path fill="#3c6bbe" opacity="1.00" d=" M 112.01 22.48 C 112.04 21.69 112.06 20.91 112.06 20.12 C 114.66 20.71 117.29 21.09 119.94 21.40 L 120.52 20.99 L 121.38 20.34 C 121.01 22.38 120.61 24.41 120.21 26.44 C 122.97 26.78 125.72 27.21 128.47 27.62 C 126.95 26.80 125.42 26.00 123.88 25.22 C 128.54 25.53 133.20 25.30 137.86 25.29 C 142.79 25.80 147.84 26.25 151.60 29.92 C 144.98 34.51 136.45 34.27 129.37 30.86 C 130.36 29.30 131.36 27.75 132.31 26.15 C 130.30 28.59 128.41 31.12 126.45 33.60 C 130.51 35.05 135.55 35.04 138.76 38.16 C 138.47 40.77 137.48 43.22 136.62 45.68 C 138.89 45.65 141.16 45.65 143.43 45.67 C 142.53 43.26 141.57 40.84 141.21 38.27 C 144.31 36.35 147.82 35.22 151.14 33.74 C 150.73 30.50 150.28 27.27 149.87 24.02 C 151.78 25.93 155.25 27.55 154.66 30.76 C 154.13 34.60 152.97 38.32 151.94 42.05 C 152.97 42.62 154.00 43.19 155.03 43.76 C 155.38 43.94 156.09 44.32 156.45 44.51 L 155.72 44.56 C 155.37 44.72 154.67 45.02 154.32 45.17 C 152.83 46.56 154.55 48.62 155.78 49.52 C 155.61 49.91 155.27 50.69 155.10 51.08 C 154.32 52.75 153.47 54.40 152.55 56.00 L 112.04 56.00 C 112.06 51.86 112.07 47.72 112.05 43.59 L 112.03 43.00 C 112.06 41.44 111.71 39.96 110.97 38.57 C 111.03 37.97 111.13 36.77 111.19 36.17 L 111.59 35.29 L 111.88 34.69 C 111.92 34.02 112.01 32.68 112.06 32.01 C 112.01 28.83 111.96 25.65 112.01 22.48 M 114.66 37.04 C 114.50 37.44 114.34 37.83 114.19 38.23 C 115.44 38.99 116.70 39.75 117.93 40.55 C 121.67 38.64 125.55 37.02 129.34 35.21 C 124.46 35.94 119.63 37.37 114.66 37.04 M 130.82 47.57 C 131.67 47.79 133.35 48.24 134.20 48.46 C 132.26 49.88 130.30 51.27 128.32 52.63 C 128.48 52.90 128.78 53.45 128.94 53.72 C 135.77 48.81 145.23 49.69 152.14 54.00 C 150.09 52.08 148.03 50.17 145.96 48.27 C 146.76 48.10 148.36 47.77 149.16 47.61 C 148.22 46.82 147.29 46.04 146.35 45.25 C 143.69 50.39 136.58 49.97 133.63 45.27 C 132.70 46.04 131.76 46.80 130.82 47.57 Z" />
<path fill="#3c6bbe" opacity="1.00" d=" M 167.58 22.37 C 167.89 21.78 168.20 21.19 168.51 20.60 C 170.94 21.40 173.41 21.98 175.93 22.42 L 176.49 22.03 L 177.23 21.48 C 176.88 23.20 176.51 24.92 176.16 26.65 C 178.92 26.84 181.69 27.14 184.47 27.16 L 185.13 27.14 C 184.82 29.59 186.14 33.00 183.55 34.32 C 179.90 36.20 175.82 37.07 171.99 38.52 C 174.79 41.78 177.74 45.01 181.54 47.14 C 179.39 44.60 177.22 42.06 175.24 39.38 C 181.46 36.48 188.31 34.77 195.14 36.75 C 193.37 41.26 190.78 45.41 187.42 48.89 C 188.04 49.03 189.28 49.30 189.90 49.43 C 187.91 51.08 185.95 52.75 184.01 54.45 C 191.49 50.41 200.51 50.41 207.99 54.45 C 206.05 52.75 204.09 51.08 202.11 49.43 C 202.72 49.30 203.96 49.03 204.57 48.90 C 201.43 45.54 198.89 41.67 197.03 37.46 C 200.19 36.82 203.40 36.12 206.56 35.42 C 207.89 38.27 209.08 41.22 210.84 43.85 C 211.21 44.05 211.95 44.45 212.32 44.64 L 211.70 44.67 C 211.35 44.81 210.64 45.09 210.29 45.23 C 208.77 46.61 210.54 48.65 211.78 49.53 C 211.61 49.92 211.26 50.70 211.09 51.09 C 210.31 52.76 209.47 54.40 208.55 56.00 L 168.04 56.00 C 168.06 51.86 168.07 47.72 168.05 43.59 L 168.03 43.00 C 168.06 41.44 167.71 39.96 166.97 38.57 C 167.03 37.97 167.13 36.77 167.18 36.17 L 167.59 35.29 L 167.88 34.69 C 167.93 34.03 168.03 32.69 168.07 32.02 C 167.87 28.80 167.65 25.59 167.58 22.37 Z" />
<path fill="#3c6bbe" opacity="1.00" d=" M 0.00 21.70 L 0.71 21.80 C 3.21 22.28 5.70 22.85 8.21 23.31 L 8.75 23.41 C 9.10 23.66 9.81 24.15 10.16 24.40 C 6.89 26.25 3.41 27.68 0.00 29.24 L 0.00 21.70 Z" />
<path fill="#3c6bbe" opacity="1.00" d=" M 19.85 29.61 C 25.95 26.51 32.92 26.71 39.56 27.18 L 40.24 27.21 C 40.04 30.14 39.81 33.06 39.56 35.99 C 36.49 33.74 34.82 30.27 32.71 27.22 C 33.17 29.25 33.70 31.27 34.21 33.28 C 31.89 34.29 29.58 35.59 27.02 35.79 C 24.52 35.42 22.25 34.22 19.95 33.23 C 19.93 32.32 19.88 30.52 19.85 29.61 Z" />
<path fill="#3c6bbe" opacity="1.00" d=" M 8.35 39.79 C 11.41 38.28 14.50 36.45 17.99 36.26 C 21.78 36.52 25.03 38.80 28.20 40.70 C 26.04 42.50 23.76 44.15 21.43 45.73 C 21.57 49.93 19.28 53.56 15.98 56.00 L 0.00 56.00 L 0.00 37.97 C 6.81 38.65 10.23 44.81 15.57 48.12 C 13.14 45.36 10.68 42.63 8.35 39.79 M 2.86 47.83 C 2.98 49.93 3.01 52.03 2.94 54.13 C 5.67 54.40 8.40 54.70 11.13 54.98 C 8.99 53.55 6.85 52.12 4.72 50.68 C 5.75 49.32 6.81 48.00 7.89 46.67 C 6.21 47.06 4.53 47.44 2.86 47.83 Z" />
<path fill="#3c6bbe" opacity="1.00" d=" M 24.22 49.79 C 28.82 44.75 30.59 35.91 38.61 35.07 C 39.84 37.79 40.91 40.60 42.35 43.22 C 42.61 43.47 43.14 43.98 43.40 44.24 L 43.76 44.59 C 43.08 44.75 41.72 45.06 41.04 45.22 C 40.64 45.33 39.85 45.53 39.45 45.64 C 40.64 46.84 41.84 48.05 43.07 49.22 C 42.82 49.55 42.30 50.21 42.05 50.54 C 41.11 52.33 40.27 54.17 39.43 56.00 L 32.81 56.00 C 30.05 53.79 27.24 51.65 24.22 49.79 Z" />
<path fill="#3c6bbe" opacity="1.00" d=" M 83.89 43.80 C 85.30 45.07 88.13 47.61 89.55 48.88 C 86.00 50.67 82.04 50.69 78.48 48.92 C 79.83 47.64 82.54 45.08 83.89 43.80 Z" />
<path fill="#3c6bbe" opacity="1.00" d=" M 195.89 43.80 C 197.30 45.07 200.13 47.61 201.55 48.88 C 198.00 50.67 194.04 50.69 190.48 48.92 C 191.83 47.64 194.54 45.08 195.89 43.80 Z" />
<path fill="#3c6bbe" opacity="1.00" d=" M 48.27 50.55 C 46.09 47.71 50.57 47.62 49.73 50.69 C 49.37 50.66 48.64 50.58 48.27 50.55 Z" />
<path fill="#3c6bbe" opacity="1.00" d=" M 104.22 50.52 C 102.07 47.67 106.52 47.70 105.73 50.70 C 105.35 50.65 104.60 50.56 104.22 50.52 Z" />
<path fill="#3c6bbe" opacity="1.00" d=" M 160.22 50.52 C 158.07 47.67 162.52 47.70 161.73 50.70 C 161.35 50.65 160.60 50.56 160.22 50.52 Z" />
<path fill="#3c6bbe" opacity="1.00" d=" M 216.22 50.52 C 214.07 47.67 218.52 47.70 217.73 50.70 C 217.35 50.65 216.60 50.56 216.22 50.52 Z" />
<path fill="#3c6bbe" opacity="1.00" d=" M 44.30 50.96 C 44.89 50.84 46.08 50.58 46.67 50.46 L 46.56 51.25 C 46.29 51.47 45.76 51.92 45.49 52.15 C 45.19 51.85 44.60 51.26 44.30 50.96 Z" />
<path fill="#3c6bbe" opacity="1.00" d=" M 100.72 49.39 C 101.15 49.59 102.01 49.99 102.44 50.18 L 102.30 51.03 C 102.03 51.20 101.48 51.54 101.21 51.71 C 101.09 51.13 100.84 49.97 100.72 49.39 Z" />
<path fill="#3c6bbe" opacity="1.00" d=" M 156.72 49.38 C 157.15 49.58 158.01 49.98 158.44 50.18 L 158.30 51.03 C 158.03 51.20 157.48 51.54 157.21 51.71 C 157.09 51.13 156.84 49.96 156.72 49.38 Z" />
<path fill="#3c6bbe" opacity="1.00" d=" M 212.72 49.39 C 213.15 49.59 214.01 49.98 214.44 50.18 L 214.30 51.03 C 214.03 51.20 213.48 51.54 213.21 51.71 C 213.09 51.13 212.84 49.97 212.72 49.39 Z" />
<path fill="#3c6bbe" opacity="1.00" d=" M 16.76 56.00 C 21.29 52.68 27.47 51.76 31.76 56.00 L 16.76 56.00 Z" />
<path fill="#3c6bbe" opacity="1.00" d=" M 47.83 52.72 L 48.67 52.76 C 48.70 53.87 49.15 54.77 50.01 55.44 L 49.80 56.00 L 48.26 56.00 C 48.07 55.35 47.69 54.05 47.50 53.41 L 47.83 52.72 Z" />
<path fill="#3c6bbe" opacity="1.00" d=" M 103.87 52.58 L 104.74 52.66 C 104.76 53.75 105.17 54.66 105.96 55.39 L 105.66 56.00 L 104.03 56.00 C 103.91 55.31 103.66 53.94 103.53 53.26 L 103.87 52.58 Z" />
<path fill="#3c6bbe" opacity="1.00" d=" M 159.87 52.58 L 160.73 52.66 C 160.76 53.75 161.17 54.66 161.96 55.39 L 161.66 56.00 L 160.03 56.00 C 159.91 55.31 159.66 53.94 159.53 53.26 L 159.87 52.58 Z" />
<path fill="#3c6bbe" opacity="1.00" d=" M 215.87 52.58 L 216.73 52.66 C 216.76 53.75 217.17 54.66 217.96 55.39 L 217.66 56.00 L 216.03 56.00 C 215.91 55.31 215.66 53.94 215.53 53.26 L 215.87 52.58 Z" />
<path fill="#3c6bbe" opacity="1.00" d=" M 99.69 54.15 C 100.02 53.73 100.69 52.88 101.03 52.46 C 101.48 52.66 102.38 53.08 102.84 53.28 C 102.58 54.52 101.24 55.55 99.97 55.33 L 99.69 54.15 Z" />
<path fill="#3c6bbe" opacity="1.00" d=" M 155.69 54.15 C 156.02 53.72 156.69 52.88 157.03 52.46 C 157.48 52.66 158.38 53.08 158.84 53.28 C 158.58 54.52 157.24 55.55 155.98 55.33 L 155.69 54.15 Z" />
<path fill="#3c6bbe" opacity="1.00" d=" M 211.69 54.15 C 212.02 53.73 212.69 52.88 213.03 52.46 C 213.48 52.67 214.38 53.08 214.84 53.28 C 214.58 54.52 213.24 55.55 211.98 55.33 L 211.69 54.15 Z" />
</g>
<g id="#4379caff">
<path fill="#4379ca" opacity="1.00" d=" M 124.63 20.99 L 125.69 20.80 C 134.55 22.20 143.47 20.49 152.30 19.72 C 158.11 26.53 156.09 35.70 155.03 43.76 C 154.00 43.19 152.97 42.62 151.94 42.05 C 152.97 38.32 154.13 34.60 154.66 30.76 C 155.25 27.55 151.78 25.93 149.87 24.02 C 150.28 27.27 150.73 30.50 151.14 33.74 C 147.82 35.22 144.31 36.35 141.21 38.27 C 141.57 40.84 142.53 43.26 143.43 45.67 C 141.16 45.65 138.89 45.65 136.62 45.68 C 137.48 43.22 138.47 40.77 138.76 38.16 C 135.55 35.04 130.51 35.05 126.45 33.60 C 128.41 31.12 130.30 28.59 132.31 26.15 C 131.36 27.75 130.36 29.30 129.37 30.86 C 136.45 34.27 144.98 34.51 151.60 29.92 C 147.84 26.25 142.79 25.80 137.86 25.29 C 133.20 25.30 128.54 25.53 123.88 25.22 C 125.42 26.00 126.95 26.80 128.47 27.62 C 125.72 27.21 122.97 26.78 120.21 26.44 C 120.61 24.41 121.01 22.38 121.38 20.34 C 122.35 21.09 123.44 21.31 124.63 20.99 M 146.53 21.12 C 146.68 21.44 146.96 22.09 147.10 22.41 C 149.70 23.02 147.95 18.94 146.53 21.12 M 127.53 23.12 C 127.68 23.44 127.96 24.09 128.10 24.41 C 130.70 25.02 128.95 20.94 127.53 23.12 Z" />
<path fill="#4379ca" opacity="1.00" d=" M 114.66 37.04 C 119.63 37.37 124.46 35.94 129.34 35.21 C 125.55 37.02 121.67 38.64 117.93 40.55 C 116.70 39.75 115.44 38.99 114.19 38.23 C 114.34 37.83 114.50 37.44 114.66 37.04 Z" />
</g>
<g id="#427acaff">
<path fill="#427aca" opacity="1.00" d=" M 13.28 22.49 C 20.94 21.60 28.67 22.00 36.37 21.53 C 38.88 21.50 42.34 21.72 42.96 24.75 C 43.98 30.85 42.22 37.08 42.35 43.22 C 40.91 40.60 39.84 37.79 38.61 35.07 C 30.59 35.91 28.82 44.75 24.22 49.79 C 27.24 51.65 30.05 53.79 32.81 56.00 L 31.76 56.00 C 27.47 51.76 21.29 52.68 16.76 56.00 L 15.98 56.00 C 19.28 53.56 21.57 49.93 21.43 45.73 C 23.76 44.15 26.04 42.50 28.20 40.70 C 25.03 38.80 21.78 36.52 17.99 36.26 C 14.50 36.45 11.41 38.28 8.35 39.79 C 10.68 42.63 13.14 45.36 15.57 48.12 C 10.23 44.81 6.81 38.65 0.00 37.97 L 0.00 37.93 C 6.61 37.21 13.14 35.77 19.36 33.42 C 18.61 31.47 17.85 29.52 17.13 27.56 C 16.94 26.31 16.27 25.57 15.12 25.33 C 13.18 25.91 15.38 27.69 16.47 27.61 C 10.79 27.43 5.19 28.64 0.00 30.92 L 0.00 29.24 C 3.41 27.68 6.89 26.25 10.16 24.40 C 10.58 24.12 11.43 23.58 11.86 23.31 L 12.47 22.91 L 13.28 22.49 M 39.56 27.18 C 32.92 26.71 25.95 26.51 19.85 29.61 C 19.88 30.52 19.93 32.32 19.95 33.23 C 22.25 34.22 24.52 35.42 27.02 35.79 C 29.58 35.59 31.89 34.29 34.21 33.28 C 33.70 31.27 33.17 29.25 32.71 27.22 C 34.82 30.27 36.49 33.74 39.56 35.99 C 39.81 33.06 40.04 30.14 40.24 27.21 C 44.10 25.43 37.60 23.78 39.56 27.18 Z" />
</g>
<g id="#4279caff">
<path fill="#4279ca" opacity="1.00" d=" M 68.63 21.68 L 69.29 21.34 C 78.70 22.08 88.29 21.12 97.57 22.42 C 102.20 28.51 98.58 36.91 98.84 43.85 C 97.08 41.22 95.90 38.27 94.57 35.42 C 91.40 36.12 88.21 36.82 85.03 37.46 C 86.89 41.67 89.43 45.54 92.57 48.90 C 91.96 49.03 90.72 49.30 90.11 49.43 C 92.09 51.08 94.05 52.75 95.99 54.45 C 88.51 50.41 79.49 50.41 72.01 54.45 C 73.95 52.75 75.91 51.08 77.90 49.43 C 77.28 49.30 76.04 49.03 75.42 48.89 C 78.78 45.41 81.37 41.26 83.14 36.75 C 76.31 34.77 69.46 36.48 63.24 39.38 C 65.22 42.06 67.39 44.60 69.54 47.14 C 65.74 45.01 62.79 41.78 59.99 38.52 C 63.82 37.07 67.90 36.20 71.55 34.32 C 74.14 33.00 72.83 29.59 73.13 27.14 C 73.28 25.84 72.75 25.01 71.54 24.65 C 69.70 24.97 71.52 26.93 72.47 27.16 C 69.69 27.14 66.92 26.84 64.15 26.65 C 64.52 24.92 64.88 23.20 65.24 21.47 C 66.35 22.29 67.48 22.36 68.63 21.68 M 88.53 23.12 C 88.68 23.44 88.96 24.09 89.10 24.41 C 91.70 25.02 89.95 20.94 88.53 23.12 M 94.75 23.29 C 93.71 24.72 96.09 26.74 97.37 25.58 C 98.45 24.13 96.06 22.06 94.75 23.29 M 73.72 31.82 C 79.80 35.56 86.83 35.16 93.22 32.52 C 93.17 31.59 93.07 29.74 93.02 28.81 C 87.01 24.96 77.64 25.08 73.72 31.82 M 83.89 43.80 C 82.54 45.08 79.83 47.64 78.48 48.92 C 82.04 50.69 86.00 50.67 89.55 48.88 C 88.13 47.61 85.30 45.07 83.89 43.80 Z" />
<path fill="#4279ca" opacity="1.00" d=" M 180.61 21.64 L 181.25 21.29 C 190.67 22.12 200.28 21.11 209.57 22.42 C 214.20 28.51 210.58 36.91 210.84 43.85 C 209.08 41.22 207.89 38.27 206.56 35.42 C 203.40 36.12 200.19 36.82 197.03 37.46 C 198.89 41.67 201.43 45.54 204.57 48.90 C 203.96 49.03 202.72 49.30 202.11 49.43 C 204.09 51.08 206.05 52.75 207.99 54.45 C 200.51 50.41 191.49 50.41 184.01 54.45 C 185.95 52.75 187.91 51.08 189.90 49.43 C 189.28 49.30 188.04 49.03 187.42 48.89 C 190.78 45.41 193.37 41.26 195.14 36.75 C 188.31 34.77 181.46 36.48 175.24 39.38 C 177.22 42.06 179.39 44.60 181.54 47.14 C 177.74 45.01 174.79 41.78 171.99 38.52 C 175.82 37.07 179.90 36.20 183.55 34.32 C 186.14 33.00 184.82 29.59 185.13 27.14 C 185.28 25.84 184.75 25.01 183.54 24.65 C 181.70 24.97 183.52 26.93 184.47 27.16 C 181.69 27.14 178.92 26.84 176.16 26.65 C 176.51 24.92 176.88 23.20 177.23 21.48 C 178.35 22.30 179.47 22.35 180.61 21.64 M 200.53 23.12 C 200.68 23.44 200.96 24.09 201.10 24.41 C 203.70 25.02 201.95 20.94 200.53 23.12 M 206.75 23.29 C 205.70 24.72 208.08 26.74 209.37 25.58 C 210.45 24.13 208.06 22.06 206.75 23.29 M 186.94 28.71 C 186.92 29.62 186.89 31.46 186.87 32.37 C 192.48 36.27 199.54 36.27 205.15 32.36 C 205.12 31.47 205.06 29.70 205.03 28.81 C 199.49 24.99 192.72 26.21 186.94 28.71 M 195.89 43.80 C 194.54 45.08 191.83 47.64 190.48 48.92 C 194.04 50.69 198.00 50.67 201.55 48.88 C 200.13 47.61 197.30 45.07 195.89 43.80 Z" />
</g>
<g id="#1aa9c2ff">
<path fill="#1aa9c2" opacity="1.00" d=" M 146.53 21.12 C 147.95 18.94 149.70 23.02 147.10 22.41 C 146.96 22.09 146.68 21.44 146.53 21.12 Z" />
<path fill="#1aa9c2" opacity="1.00" d=" M 88.53 23.12 C 89.95 20.94 91.70 25.02 89.10 24.41 C 88.96 24.09 88.68 23.44 88.53 23.12 Z" />
<path fill="#1aa9c2" opacity="1.00" d=" M 127.53 23.12 C 128.95 20.94 130.70 25.02 128.10 24.41 C 127.96 24.09 127.68 23.44 127.53 23.12 Z" />
<path fill="#1aa9c2" opacity="1.00" d=" M 200.53 23.12 C 201.95 20.94 203.70 25.02 201.10 24.41 C 200.96 24.09 200.68 23.44 200.53 23.12 Z" />
<path fill="#1aa9c2" opacity="1.00" d=" M 39.56 27.18 C 37.60 23.78 44.10 25.43 40.24 27.21 L 39.56 27.18 Z" />
<path fill="#1aa9c2" opacity="1.00" d=" M 72.47 27.16 C 71.52 26.93 69.70 24.97 71.54 24.65 C 72.75 25.01 73.28 25.84 73.13 27.14 L 72.47 27.16 Z" />
<path fill="#1aa9c2" opacity="1.00" d=" M 184.47 27.16 C 183.52 26.93 181.70 24.97 183.54 24.65 C 184.75 25.01 185.28 25.84 185.13 27.14 L 184.47 27.16 Z" />
<path fill="#1aa9c2" opacity="1.00" d=" M 16.47 27.61 C 15.38 27.69 13.18 25.91 15.12 25.33 C 16.27 25.57 16.94 26.31 17.13 27.56 L 16.47 27.61 Z" />
</g>
<g id="#b1ad6eff">
<path fill="#b1ad6e" opacity="1.00" d=" M 54.11 24.78 C 54.48 24.18 55.21 22.98 55.58 22.37 C 55.65 25.59 55.88 28.80 56.07 32.01 C 54.73 32.32 54.00 34.70 55.89 34.70 L 55.59 35.30 C 53.85 36.90 52.04 38.43 50.36 40.11 C 52.14 35.15 53.46 30.01 54.11 24.78 Z" />
<path fill="#b1ad6e" opacity="1.00" d=" M 110.05 24.80 C 110.54 24.22 111.52 23.06 112.01 22.48 C 111.96 25.65 112.01 28.83 112.06 32.01 C 110.72 32.31 109.98 34.71 111.88 34.69 L 111.59 35.29 C 109.84 36.89 108.03 38.41 106.36 40.10 C 108.14 35.16 109.46 30.02 110.05 24.80 Z" />
<path fill="#b1ad6e" opacity="1.00" d=" M 166.12 24.78 C 166.49 24.18 167.22 22.98 167.58 22.37 C 167.65 25.59 167.87 28.80 168.07 32.02 C 166.73 32.31 165.99 34.70 167.88 34.69 L 167.59 35.29 C 165.84 36.89 164.03 38.42 162.36 40.10 C 164.14 35.15 165.46 30.00 166.12 24.78 Z" />
<path fill="#b1ad6e" opacity="1.00" d=" M 221.78 24.34 C 222.34 23.96 223.45 23.19 224.00 22.81 L 224.00 31.95 C 222.25 32.00 221.93 35.02 224.00 34.49 L 224.00 34.95 C 222.10 36.63 220.13 38.25 218.36 40.07 C 220.21 35.03 221.64 29.74 221.78 24.34 Z" />
</g>
<g id="#25a7c2fe">
<path fill="#25a7c2" opacity="1.00" d=" M 94.75 23.29 C 96.06 22.06 98.45 24.13 97.37 25.58 C 96.09 26.74 93.71 24.72 94.75 23.29 Z" />
<path fill="#25a7c2" opacity="1.00" d=" M 206.75 23.29 C 208.06 22.06 210.45 24.13 209.37 25.58 C 208.08 26.74 205.70 24.72 206.75 23.29 Z" />
</g>
<g id="#3c6bbdff">
<path fill="#3c6bbd" opacity="1.00" d=" M 73.72 31.82 C 77.64 25.08 87.01 24.96 93.02 28.81 C 93.07 29.74 93.17 31.59 93.22 32.52 C 86.83 35.16 79.80 35.56 73.72 31.82 Z" />
<path fill="#3c6bbd" opacity="1.00" d=" M 0.00 30.92 C 5.19 28.64 10.79 27.43 16.47 27.61 L 17.13 27.56 C 17.85 29.52 18.61 31.47 19.36 33.42 C 13.14 35.77 6.61 37.21 0.00 37.93 L 0.00 30.92 Z" />
</g>
<g id="#3d6bbdfe">
<path fill="#3d6bbd" opacity="1.00" d=" M 186.94 28.71 C 192.72 26.21 199.49 24.99 205.03 28.81 C 205.06 29.70 205.12 31.47 205.15 32.36 C 199.54 36.27 192.48 36.27 186.87 32.37 C 186.89 31.46 186.92 29.62 186.94 28.71 Z" />
</g>
<g id="#a0e0a2ff">
<path fill="#a0e0a2" opacity="1.00" d=" M 102.52 34.15 C 103.60 31.76 104.98 29.52 106.45 27.35 L 106.71 28.77 C 106.24 33.55 104.11 37.90 102.07 42.16 C 102.26 39.49 102.41 36.82 102.52 34.15 Z" />
<path fill="#a0e0a2" opacity="1.00" d=" M 158.71 37.32 C 159.63 34.05 161.02 30.94 162.14 27.73 L 162.66 28.33 C 162.23 33.26 160.33 37.86 158.06 42.20 C 158.31 40.58 158.51 38.95 158.71 37.32 Z" />
<path fill="#a0e0a2" opacity="1.00" d=" M 214.52 34.15 C 215.60 31.76 216.98 29.52 218.45 27.35 L 218.71 28.77 C 218.24 33.55 216.11 37.90 214.07 42.16 C 214.26 39.49 214.41 36.82 214.52 34.15 Z" />
</g>
<g id="#596753ff">
<path fill="#596753" opacity="1.00" d=" M 55.89 34.70 C 54.00 34.70 54.73 32.32 56.07 32.01 C 56.02 32.69 55.93 34.03 55.89 34.70 Z" />
<path fill="#596753" opacity="1.00" d=" M 111.88 34.69 C 109.98 34.71 110.72 32.31 112.06 32.01 C 112.01 32.68 111.92 34.02 111.88 34.69 Z" />
<path fill="#596753" opacity="1.00" d=" M 167.88 34.69 C 165.99 34.70 166.73 32.31 168.07 32.02 C 168.03 32.69 167.93 34.03 167.88 34.69 Z" />
<path fill="#596753" opacity="1.00" d=" M 224.00 34.49 C 221.93 35.02 222.25 32.00 224.00 31.95 L 224.00 34.49 Z" />
</g>
<g id="#998b50ff">
<path fill="#998b50" opacity="1.00" d=" M 50.36 40.11 C 52.04 38.43 53.85 36.90 55.59 35.30 L 55.18 36.17 C 54.19 38.10 53.08 39.96 52.03 41.85 C 50.83 42.37 49.32 43.34 49.70 44.89 C 49.25 44.86 48.36 44.80 47.92 44.77 C 47.33 44.72 46.16 44.61 45.57 44.55 C 47.25 43.16 48.85 41.68 50.36 40.11 Z" />
<path fill="#998b50" opacity="1.00" d=" M 106.36 40.10 C 108.03 38.41 109.84 36.89 111.59 35.29 L 111.19 36.17 C 110.20 38.08 109.11 39.92 108.08 41.80 C 106.85 42.27 105.32 43.21 105.67 44.77 C 105.24 44.75 104.38 44.72 103.94 44.70 C 103.40 44.68 102.33 44.65 101.79 44.63 C 103.38 43.19 104.91 41.68 106.36 40.10 Z" />
<path fill="#998b50" opacity="1.00" d=" M 162.36 40.10 C 164.03 38.42 165.84 36.89 167.59 35.29 L 167.18 36.17 C 166.20 38.08 165.11 39.93 164.08 41.81 C 162.86 42.28 161.32 43.21 161.67 44.76 C 161.24 44.73 160.38 44.68 159.95 44.66 C 159.41 44.63 158.34 44.57 157.80 44.54 C 159.39 43.14 160.91 41.65 162.36 40.10 Z" />
<path fill="#998b50" opacity="1.00" d=" M 218.36 40.07 C 220.13 38.25 222.10 36.63 224.00 34.95 L 224.00 36.33 C 222.57 38.14 221.06 39.89 219.47 41.57 C 218.57 42.36 217.52 43.44 217.95 44.76 C 217.45 44.75 216.46 44.72 215.97 44.71 C 215.42 44.69 214.33 44.66 213.79 44.65 C 215.38 43.20 216.91 41.67 218.36 40.07 Z" />
</g>
<g id="#5c5c49ff">
<path fill="#5c5c49" opacity="1.00" d=" M 52.03 41.85 C 53.08 39.96 54.19 38.10 55.18 36.17 C 55.13 36.77 55.03 37.97 54.97 38.57 C 54.84 38.82 54.58 39.30 54.45 39.55 C 53.67 41.36 53.04 43.22 52.32 45.06 C 51.64 45.45 50.96 45.85 50.28 46.25 C 50.16 47.90 50.06 49.55 49.78 51.18 L 49.73 50.69 C 50.57 47.62 46.09 47.71 48.27 50.55 C 47.84 50.72 46.99 51.08 46.56 51.25 L 46.67 50.46 C 47.02 48.55 47.48 46.66 47.92 44.77 C 48.36 44.80 49.25 44.86 49.70 44.89 C 51.43 45.28 51.89 43.10 52.03 41.85 Z" />
<path fill="#5c5c49" opacity="1.00" d=" M 108.08 41.80 C 109.11 39.92 110.20 38.08 111.19 36.17 C 111.13 36.77 111.03 37.97 110.97 38.57 C 110.84 38.82 110.58 39.30 110.45 39.55 C 109.67 41.36 109.04 43.23 108.32 45.06 C 107.63 45.45 106.94 45.85 106.25 46.25 C 106.14 47.90 106.04 49.55 105.79 51.19 L 105.73 50.70 C 106.52 47.70 102.07 47.67 104.22 50.52 C 103.74 50.65 102.78 50.90 102.30 51.03 L 102.44 50.18 C 102.88 48.34 103.42 46.52 103.94 44.70 C 104.38 44.72 105.24 44.75 105.67 44.77 C 107.39 45.14 107.93 43.07 108.08 41.80 Z" />
<path fill="#5c5c49" opacity="1.00" d=" M 164.08 41.81 C 165.11 39.93 166.20 38.08 167.18 36.17 C 167.13 36.77 167.03 37.97 166.97 38.57 C 166.84 38.82 166.58 39.31 166.45 39.55 C 165.67 41.36 165.04 43.23 164.32 45.06 C 163.63 45.45 162.94 45.85 162.25 46.25 C 162.14 47.90 162.04 49.55 161.79 51.19 L 161.73 50.70 C 162.52 47.70 158.07 47.67 160.22 50.52 C 159.74 50.65 158.78 50.90 158.30 51.03 L 158.44 50.18 C 158.88 48.32 159.43 46.49 159.95 44.66 C 160.38 44.68 161.24 44.73 161.67 44.76 C 163.38 45.15 163.94 43.08 164.08 41.81 Z" />
<path fill="#5c5c49" opacity="1.00" d=" M 219.47 41.57 C 221.06 39.89 222.57 38.14 224.00 36.33 L 224.00 38.95 C 223.68 39.11 223.03 39.42 222.71 39.57 C 221.83 41.36 221.12 43.21 220.31 45.02 C 219.62 45.45 218.94 45.87 218.26 46.29 C 218.14 47.92 218.04 49.57 217.79 51.19 L 217.73 50.70 C 218.52 47.70 214.07 47.67 216.22 50.52 C 215.74 50.65 214.78 50.90 214.30 51.03 L 214.44 50.18 C 214.88 48.34 215.43 46.52 215.97 44.71 C 216.46 44.72 217.45 44.75 217.95 44.76 C 219.70 45.14 220.24 42.75 219.47 41.57 Z" />
</g>
<g id="#77a460ff">
<path fill="#77a460" opacity="1.00" d=" M 54.45 39.55 C 54.58 39.30 54.84 38.82 54.97 38.57 C 55.71 39.96 56.06 41.44 56.03 43.00 C 54.54 42.52 53.56 41.05 54.45 39.55 Z" />
<path fill="#77a460" opacity="1.00" d=" M 110.45 39.55 C 110.58 39.30 110.84 38.82 110.97 38.57 C 111.71 39.96 112.06 41.44 112.03 43.00 C 110.54 42.52 109.56 41.05 110.45 39.55 Z" />
<path fill="#77a460" opacity="1.00" d=" M 166.45 39.55 C 166.58 39.31 166.84 38.82 166.97 38.57 C 167.71 39.96 168.06 41.44 168.03 43.00 C 166.54 42.52 165.56 41.05 166.45 39.55 Z" />
<path fill="#77a460" opacity="1.00" d=" M 222.71 39.57 C 223.03 39.42 223.68 39.11 224.00 38.95 L 224.00 42.89 C 222.74 42.32 221.39 40.88 222.71 39.57 Z" />
</g>
<g id="#363636ff">
<path fill="#363636" opacity="1.00" d=" M 43.40 44.24 L 44.52 44.44 L 45.57 44.55 C 46.16 44.61 47.33 44.72 47.92 44.77 C 47.48 46.66 47.02 48.55 46.67 50.46 C 46.08 50.58 44.89 50.84 44.30 50.96 L 43.72 51.41 C 43.68 50.97 43.59 50.09 43.55 49.65 C 43.73 49.10 44.09 48.01 44.27 47.47 C 44.85 46.34 44.68 45.38 43.76 44.59 L 43.40 44.24 Z" />
</g>
<g id="#7aa55cff">
<path fill="#7aa55c" opacity="1.00" d=" M 52.32 45.06 C 53.56 44.55 54.80 44.06 56.05 43.59 C 56.07 47.72 56.06 51.86 56.03 56.00 L 49.80 56.00 L 50.01 55.44 C 49.88 54.72 49.62 53.28 49.49 52.56 C 49.57 52.21 49.71 51.53 49.78 51.18 C 50.06 49.55 50.16 47.90 50.28 46.25 C 50.96 45.85 51.64 45.45 52.32 45.06 Z" />
<path fill="#7aa55c" opacity="1.00" d=" M 108.32 45.06 C 109.56 44.55 110.80 44.06 112.05 43.59 C 112.07 47.72 112.06 51.86 112.04 56.00 L 105.66 56.00 L 105.96 55.39 C 105.86 54.66 105.66 53.21 105.57 52.49 C 105.62 52.17 105.73 51.52 105.79 51.19 C 106.04 49.55 106.14 47.90 106.25 46.25 C 106.94 45.85 107.63 45.45 108.32 45.06 Z" />
<path fill="#7aa55c" opacity="1.00" d=" M 164.32 45.06 C 165.56 44.55 166.80 44.06 168.05 43.59 C 168.07 47.72 168.06 51.86 168.04 56.00 L 161.66 56.00 L 161.96 55.39 C 161.86 54.66 161.66 53.21 161.56 52.49 C 161.62 52.17 161.73 51.52 161.79 51.19 C 162.04 49.55 162.14 47.90 162.25 46.25 C 162.94 45.85 163.63 45.45 164.32 45.06 Z" />
<path fill="#7aa55c" opacity="1.00" d=" M 220.31 45.02 C 221.53 44.37 222.76 43.74 224.00 43.11 L 224.00 56.00 L 217.66 56.00 L 217.96 55.39 C 217.86 54.66 217.66 53.21 217.56 52.49 C 217.62 52.17 217.73 51.52 217.79 51.19 C 218.04 49.57 218.14 47.92 218.26 46.29 C 218.94 45.87 219.62 45.45 220.31 45.02 Z" />
</g>
<g id="#37322dff">
<path fill="#37322d" opacity="1.00" d=" M 100.31 44.63 L 101.04 44.63 L 101.79 44.63 C 102.33 44.65 103.40 44.68 103.94 44.70 C 103.42 46.52 102.88 48.34 102.44 50.18 C 102.01 49.99 101.15 49.59 100.72 49.39 L 100.26 49.27 C 100.31 48.87 100.41 48.07 100.46 47.67 C 100.79 46.50 100.53 45.49 99.70 44.66 L 100.31 44.63 Z" />
<path fill="#37322d" opacity="1.00" d=" M 156.45 44.51 L 157.10 44.52 L 157.80 44.54 C 158.34 44.57 159.41 44.63 159.95 44.66 C 159.43 46.49 158.88 48.32 158.44 50.18 C 158.01 49.98 157.15 49.58 156.72 49.38 L 156.26 49.25 C 156.31 48.84 156.41 48.03 156.45 47.63 C 156.78 46.44 156.53 45.42 155.72 44.56 L 156.45 44.51 Z" />
<path fill="#37322d" opacity="1.00" d=" M 212.32 44.64 L 213.03 44.65 L 213.79 44.65 C 214.33 44.66 215.42 44.69 215.97 44.71 C 215.43 46.52 214.88 48.34 214.44 50.18 C 214.01 49.98 213.15 49.59 212.72 49.39 L 212.26 49.27 C 212.31 48.87 212.41 48.08 212.46 47.68 C 212.79 46.50 212.53 45.50 211.70 44.67 L 212.32 44.64 Z" />
</g>
<g id="#2889d5ff">
<path fill="#2889d5" opacity="1.00" d=" M 39.45 45.64 C 39.85 45.53 40.64 45.33 41.04 45.22 C 41.99 46.12 42.94 47.17 44.27 47.47 C 44.09 48.01 43.73 49.10 43.55 49.65 L 43.07 49.22 C 41.84 48.05 40.64 46.84 39.45 45.64 Z" />
</g>
<g id="#86a0b1ff">
<path fill="#86a0b1" opacity="1.00" d=" M 41.04 45.22 C 41.72 45.06 43.08 44.75 43.76 44.59 C 44.68 45.38 44.85 46.34 44.27 47.47 C 42.94 47.17 41.99 46.12 41.04 45.22 Z" />
<path fill="#86a0b1" opacity="1.00" d=" M 98.29 45.22 C 98.64 45.08 99.35 44.80 99.70 44.66 C 100.53 45.49 100.79 46.50 100.46 47.67 C 99.48 47.06 98.76 46.24 98.29 45.22 Z" />
<path fill="#86a0b1" opacity="1.00" d=" M 154.32 45.17 C 154.67 45.02 155.37 44.72 155.72 44.56 C 156.53 45.42 156.78 46.44 156.45 47.63 C 155.49 47.00 154.78 46.18 154.32 45.17 Z" />
<path fill="#86a0b1" opacity="1.00" d=" M 210.29 45.23 C 210.64 45.09 211.35 44.81 211.70 44.67 C 212.53 45.50 212.79 46.50 212.46 47.68 C 211.48 47.07 210.75 46.25 210.29 45.23 Z" />
<path fill="#86a0b1" opacity="1.00" d=" M 43.07 49.22 L 43.55 49.65 C 43.59 50.09 43.68 50.97 43.72 51.41 C 43.67 51.82 43.56 52.63 43.50 53.04 L 43.00 53.53 C 42.34 52.64 42.02 51.64 42.05 50.54 C 42.30 50.21 42.82 49.55 43.07 49.22 Z" />
</g>
<g id="#2988d4ff">
<path fill="#2988d4" opacity="1.00" d=" M 99.78 49.53 C 98.54 48.65 96.77 46.61 98.29 45.22 C 98.76 46.24 99.48 47.06 100.46 47.67 C 100.41 48.07 100.31 48.87 100.26 49.27 L 99.78 49.53 Z" />
<path fill="#2988d4" opacity="1.00" d=" M 155.78 49.52 C 154.55 48.62 152.83 46.56 154.32 45.17 C 154.78 46.18 155.49 47.00 156.45 47.63 C 156.41 48.03 156.31 48.84 156.26 49.25 L 155.78 49.52 Z" />
<path fill="#2988d4" opacity="1.00" d=" M 211.78 49.53 C 210.54 48.65 208.77 46.61 210.29 45.23 C 210.75 46.25 211.48 47.07 212.46 47.68 C 212.41 48.08 212.31 48.87 212.26 49.27 L 211.78 49.53 Z" />
</g>
<g id="#427acafe">
<path fill="#427aca" opacity="1.00" d=" M 130.82 47.57 C 131.76 46.80 132.70 46.04 133.63 45.27 C 136.58 49.97 143.69 50.39 146.35 45.25 C 147.29 46.04 148.22 46.82 149.16 47.61 C 148.36 47.77 146.76 48.10 145.96 48.27 C 148.03 50.17 150.09 52.08 152.14 54.00 C 145.23 49.69 135.77 48.81 128.94 53.72 C 128.78 53.45 128.48 52.90 128.32 52.63 C 130.30 51.27 132.26 49.88 134.20 48.46 C 133.35 48.24 131.67 47.79 130.82 47.57 Z" />
</g>
<g id="#427acbff">
<path fill="#427acb" opacity="1.00" d=" M 2.86 47.83 C 4.53 47.44 6.21 47.06 7.89 46.67 C 6.81 48.00 5.75 49.32 4.72 50.68 C 6.85 52.12 8.99 53.55 11.13 54.98 C 8.40 54.70 5.67 54.40 2.94 54.13 C 3.01 52.03 2.98 49.93 2.86 47.83 Z" />
</g>
<g id="#8ca5b7ff">
<path fill="#8ca5b7" opacity="1.00" d=" M 99.78 49.53 L 100.26 49.27 L 100.72 49.39 C 100.84 49.97 101.09 51.13 101.21 51.71 L 101.03 52.46 C 100.69 52.88 100.02 53.73 99.69 54.15 C 99.43 53.14 99.23 52.12 99.09 51.08 C 99.26 50.70 99.61 49.92 99.78 49.53 Z" />
<path fill="#8ca5b7" opacity="1.00" d=" M 155.78 49.52 L 156.26 49.25 L 156.72 49.38 C 156.84 49.96 157.09 51.13 157.21 51.71 L 157.03 52.46 C 156.69 52.88 156.02 53.72 155.69 54.15 C 155.43 53.13 155.23 52.11 155.10 51.08 C 155.27 50.69 155.61 49.91 155.78 49.52 Z" />
<path fill="#8ca5b7" opacity="1.00" d=" M 211.78 49.53 L 212.26 49.27 L 212.72 49.39 C 212.84 49.97 213.09 51.13 213.21 51.71 L 213.03 52.46 C 212.69 52.88 212.02 53.73 211.69 54.15 C 211.43 53.14 211.23 52.12 211.09 51.09 C 211.26 50.70 211.61 49.92 211.78 49.53 Z" />
</g>
<g id="#268ed9ff">
<path fill="#268ed9" opacity="1.00" d=" M 39.43 56.00 C 40.27 54.17 41.11 52.33 42.05 50.54 C 42.02 51.64 42.34 52.64 43.00 53.53 C 43.39 54.14 44.15 55.38 44.54 56.00 L 39.43 56.00 Z" />
<path fill="#268ed9" opacity="1.00" d=" M 96.55 56.00 C 97.47 54.40 98.31 52.76 99.09 51.08 C 99.23 52.12 99.43 53.14 99.69 54.15 L 99.97 55.33 L 100.15 56.00 L 96.55 56.00 Z" />
<path fill="#268ed9" opacity="1.00" d=" M 152.55 56.00 C 153.47 54.40 154.32 52.75 155.10 51.08 C 155.23 52.11 155.43 53.13 155.69 54.15 L 155.98 55.33 L 156.15 56.00 L 152.55 56.00 Z" />
<path fill="#268ed9" opacity="1.00" d=" M 208.55 56.00 C 209.47 54.40 210.31 52.76 211.09 51.09 C 211.23 52.12 211.43 53.14 211.69 54.15 L 211.98 55.33 L 212.15 56.00 L 208.55 56.00 Z" />
</g>
<g id="#adc2d9ff">
<path fill="#adc2d9" opacity="1.00" d=" M 43.72 51.41 L 44.30 50.96 C 44.60 51.26 45.19 51.85 45.49 52.15 L 45.35 52.88 C 44.89 52.92 43.96 53.00 43.50 53.04 C 43.56 52.63 43.67 51.82 43.72 51.41 Z" />
</g>
<g id="#75634eff">
<path fill="#75634e" opacity="1.00" d=" M 45.49 52.15 C 46.07 52.29 47.25 52.58 47.83 52.72 L 47.50 53.41 L 46.89 53.92 C 46.50 53.66 45.73 53.14 45.35 52.88 L 45.49 52.15 Z" />
<path fill="#75634e" opacity="1.00" d=" M 101.21 51.71 C 101.88 51.93 103.21 52.37 103.87 52.58 L 103.53 53.26 L 102.84 53.28 C 102.38 53.08 101.48 52.66 101.03 52.46 L 101.21 51.71 Z" />
<path fill="#75634e" opacity="1.00" d=" M 157.21 51.71 C 157.88 51.93 159.21 52.36 159.87 52.58 L 159.53 53.26 L 158.84 53.28 C 158.38 53.08 157.48 52.66 157.03 52.46 L 157.21 51.71 Z" />
<path fill="#75634e" opacity="1.00" d=" M 213.21 51.71 C 213.88 51.93 215.21 52.37 215.87 52.58 L 215.53 53.26 L 214.84 53.28 C 214.38 53.08 213.48 52.67 213.03 52.46 L 213.21 51.71 Z" />
</g>
<g id="#416845ff">
<path fill="#416845" opacity="1.00" d=" M 48.67 52.76 L 49.49 52.56 C 49.62 53.28 49.88 54.72 50.01 55.44 C 49.15 54.77 48.70 53.87 48.67 52.76 Z" />
<path fill="#416845" opacity="1.00" d=" M 104.74 52.66 L 105.57 52.49 C 105.66 53.21 105.86 54.66 105.96 55.39 C 105.17 54.66 104.76 53.75 104.74 52.66 Z" />
<path fill="#416845" opacity="1.00" d=" M 160.73 52.66 L 161.56 52.49 C 161.66 53.21 161.86 54.66 161.96 55.39 C 161.17 54.66 160.76 53.75 160.73 52.66 Z" />
<path fill="#416845" opacity="1.00" d=" M 216.73 52.66 L 217.56 52.49 C 217.66 53.21 217.86 54.66 217.96 55.39 C 217.17 54.66 216.76 53.75 216.73 52.66 Z" />
</g>
<g id="#3b6bbefe">
<path fill="#3b6bbe" opacity="1.00" d=" M 43.50 53.04 C 43.96 53.00 44.89 52.92 45.35 52.88 C 45.73 53.14 46.50 53.66 46.89 53.92 C 46.10 55.91 42.99 56.06 43.00 53.53 L 43.50 53.04 Z" />
</g>
</svg>
