<?xml version="1.0" encoding="UTF-8" ?>
<!DOCTYPE svg PUBLIC "-//W3C//DTD SVG 1.1//EN" "http://www.w3.org/Graphics/SVG/1.1/DTD/svg11.dtd">
<svg width="224pt" height="56pt" viewBox="0 0 224 56" version="1.1" xmlns="http://www.w3.org/2000/svg">
<g id="#3c6bbeff">
<path fill="#3c6bbe" opacity="1.00" d=" M 0.00 0.00 L 25.57 0.00 C 26.58 1.10 27.54 2.25 28.51 3.40 C 21.89 4.02 14.79 6.06 8.42 3.26 C 9.42 5.09 10.46 6.93 11.08 8.93 C 9.03 11.13 6.44 12.75 4.09 14.60 C 8.12 14.25 12.16 14.04 16.20 14.11 C 14.58 12.29 12.96 10.47 11.37 8.64 C 13.98 6.85 16.98 5.14 20.27 5.95 C 26.47 7.26 32.06 3.31 37.73 1.54 C 35.89 1.15 32.23 0.38 30.40 0.00 L 39.34 0.00 L 40.13 0.76 C 40.04 1.43 39.86 2.77 39.77 3.45 C 39.36 7.42 38.93 11.39 38.52 15.36 C 39.25 15.04 39.98 14.73 40.72 14.44 C 40.84 14.40 41.08 14.33 41.20 14.29 C 41.13 14.63 41.00 15.32 40.94 15.67 C 40.78 16.51 40.48 18.18 40.33 19.02 C 34.42 17.02 28.37 18.96 22.38 19.31 C 24.42 21.07 26.38 22.92 28.21 24.89 C 24.55 26.28 20.74 27.28 16.83 27.61 C 17.59 29.32 18.41 31.03 18.86 32.86 C 13.64 37.17 6.29 36.50 0.00 38.02 L 0.00 31.07 C 3.84 29.59 7.74 28.24 11.62 26.87 C 11.92 24.82 11.16 21.87 13.49 20.81 C 15.57 19.59 17.83 18.72 20.04 17.76 C 13.38 19.35 6.41 20.68 0.00 17.40 L 0.00 0.00 Z" />
<path fill="#3c6bbe" opacity="1.00" d=" M 56.09 0.00 L 85.53 0.00 C 79.70 5.33 71.51 2.87 64.57 2.20 C 65.48 4.07 66.45 5.94 67.00 7.95 C 65.02 10.19 62.40 11.73 60.11 13.61 C 64.12 13.24 68.16 13.05 72.19 13.11 C 70.58 11.30 68.98 9.49 67.39 7.66 C 71.07 4.28 76.00 4.01 80.49 5.80 C 84.86 2.14 90.51 0.95 95.99 0.00 L 97.83 0.00 C 97.59 0.35 97.12 1.05 96.89 1.40 C 95.98 2.39 95.60 3.54 95.72 4.84 C 95.91 8.03 96.09 11.22 96.40 14.40 C 96.45 14.75 96.55 15.45 96.61 15.80 C 97.22 18.69 97.74 21.61 98.69 24.42 C 100.54 26.51 102.86 28.09 105.04 29.80 C 104.34 31.49 103.64 33.17 103.00 34.87 C 101.01 33.97 99.03 33.07 97.05 32.17 C 96.77 33.09 96.49 34.00 96.21 34.92 C 100.91 36.89 105.85 38.16 110.79 39.35 C 109.05 37.31 105.07 35.66 106.30 32.44 C 110.92 27.60 117.54 25.81 123.12 22.48 C 124.14 21.03 124.03 19.03 124.51 17.36 C 127.06 16.09 129.62 14.87 132.15 13.57 C 128.69 14.66 125.27 15.87 121.79 16.86 C 118.43 17.77 115.10 16.10 111.82 15.46 C 111.91 13.58 112.09 9.84 112.18 7.97 C 112.35 6.63 112.19 5.34 111.69 4.08 C 111.82 2.72 111.95 1.36 112.08 0.00 L 138.35 0.00 C 137.75 0.60 136.57 1.79 135.98 2.39 C 130.84 2.12 125.70 1.85 120.59 1.25 C 121.49 3.11 122.46 4.95 123.00 6.95 C 121.02 9.19 118.40 10.73 116.11 12.61 C 120.12 12.24 124.16 12.05 128.19 12.11 C 126.58 10.30 124.97 8.48 123.38 6.66 C 126.55 3.91 130.63 3.09 134.63 4.38 C 137.84 5.59 139.41 1.69 141.42 0.00 L 153.82 0.00 C 150.45 7.68 151.41 16.45 155.60 23.64 C 155.56 22.84 155.48 21.24 155.44 20.44 C 157.47 20.84 159.50 21.25 161.54 21.65 C 161.39 23.02 161.24 24.39 161.04 25.75 C 160.62 28.38 160.04 30.97 159.35 33.54 C 156.43 32.84 153.49 32.21 150.51 31.79 C 149.40 29.55 148.27 27.31 146.96 25.18 C 147.31 27.27 147.67 29.35 148.04 31.43 C 142.48 34.25 135.04 35.06 130.07 30.67 C 129.61 28.81 130.59 27.08 132.39 26.47 C 136.34 25.21 140.58 25.41 144.66 24.90 C 141.07 23.90 137.09 22.58 133.50 24.33 C 129.58 25.87 128.75 30.51 126.59 33.73 C 130.45 35.28 136.19 34.50 138.64 38.25 C 138.46 41.25 137.35 44.09 136.64 46.98 C 140.54 44.07 141.31 38.84 144.72 35.65 C 152.01 32.36 159.64 36.78 166.79 38.40 C 165.02 36.34 161.11 34.62 162.26 31.37 C 163.35 29.15 166.13 29.12 168.24 28.70 C 172.34 28.42 175.95 26.29 179.62 24.65 C 180.05 22.21 180.66 19.82 181.38 17.46 C 176.76 19.21 171.99 17.84 167.44 16.54 C 167.67 13.68 167.93 10.82 168.22 7.97 C 168.42 6.64 168.25 5.34 167.71 4.09 C 167.83 2.72 167.95 1.36 168.08 -0.00 L 197.56 0.00 C 192.40 4.47 185.35 2.80 179.22 4.35 C 178.62 8.54 175.43 11.28 172.18 13.64 C 176.17 13.24 180.18 13.05 184.19 13.10 C 182.58 11.29 180.97 9.48 179.38 7.66 C 183.07 4.28 188.00 4.01 192.49 5.80 C 196.86 2.14 202.51 0.95 207.99 0.00 L 209.83 0.00 C 209.59 0.35 209.12 1.05 208.89 1.40 C 207.98 2.39 207.59 3.54 207.72 4.84 C 207.91 8.03 208.09 11.22 208.40 14.40 C 208.45 14.75 208.56 15.45 208.61 15.80 C 209.21 18.69 209.74 21.61 210.69 24.42 C 212.54 26.50 214.86 28.09 217.04 29.81 C 216.34 31.49 215.64 33.17 215.00 34.87 C 213.01 33.97 211.03 33.08 209.05 32.17 C 208.77 33.09 208.49 34.00 208.21 34.92 C 212.91 36.89 217.84 38.15 222.79 39.35 C 221.20 37.43 217.77 36.05 218.13 33.21 C 219.46 30.89 222.03 29.65 224.00 27.94 L 224.00 45.13 C 215.54 44.80 207.02 42.53 198.57 44.19 C 201.88 45.18 205.26 45.94 208.64 46.67 C 213.71 47.97 218.93 46.19 224.00 45.85 L 224.00 56.00 L 205.30 56.00 C 200.43 53.97 195.84 51.37 191.22 48.84 C 195.65 43.34 199.03 36.22 206.34 33.94 C 204.93 31.31 203.54 28.65 201.94 26.13 C 202.29 28.20 202.65 30.27 203.01 32.34 C 200.10 33.58 197.15 35.35 193.89 35.21 C 191.00 34.49 188.39 32.91 185.64 31.83 C 188.06 27.25 192.96 25.77 197.96 26.36 C 197.07 22.37 199.81 19.38 202.79 17.18 C 198.60 18.11 194.29 17.87 190.13 16.95 C 192.85 18.65 195.32 20.75 197.12 23.45 C 193.46 24.76 189.78 25.99 186.10 27.25 C 185.24 29.80 185.77 33.50 182.94 34.72 C 179.45 36.14 175.79 37.07 172.21 38.19 C 174.56 41.95 177.51 45.44 181.86 46.90 C 180.02 45.13 178.13 43.41 176.24 41.70 C 176.18 41.06 176.07 39.77 176.01 39.13 C 181.89 36.25 188.45 34.69 194.91 36.88 C 193.44 41.39 190.96 45.52 187.42 48.71 C 187.99 48.89 189.14 49.26 189.71 49.45 C 187.85 51.17 185.98 52.89 184.13 54.61 C 186.74 53.45 189.25 51.93 192.09 51.40 C 194.89 51.46 197.25 53.30 199.68 54.49 C 198.24 55.02 196.80 55.52 195.35 56.00 L 150.07 56.00 C 145.14 51.56 138.81 49.32 133.49 45.47 C 132.67 46.12 131.84 46.75 131.01 47.39 C 131.72 47.65 133.13 48.17 133.84 48.44 C 131.93 50.13 130.01 51.81 128.09 53.49 C 133.58 50.69 140.11 49.81 145.62 53.03 C 143.57 53.36 139.45 54.01 137.39 54.34 C 138.00 54.76 139.23 55.59 139.84 56.00 L 93.30 56.00 C 88.43 53.97 83.84 51.37 79.21 48.84 C 83.66 43.32 87.05 36.18 94.40 33.92 C 92.95 31.27 91.35 28.71 89.62 26.25 C 90.08 28.34 90.59 30.43 91.10 32.52 C 85.53 35.37 79.13 34.35 73.55 31.99 C 75.96 27.35 80.87 25.71 85.96 26.37 C 85.07 22.37 87.81 19.38 90.79 17.18 C 86.60 18.11 82.29 17.87 78.13 16.95 C 80.85 18.65 83.32 20.75 85.12 23.45 C 81.46 24.76 77.78 25.99 74.10 27.25 C 73.24 29.80 73.77 33.50 70.94 34.72 C 67.46 36.14 63.79 37.07 60.21 38.19 C 62.56 41.95 65.52 45.44 69.86 46.90 C 68.02 45.13 66.13 43.41 64.24 41.70 C 64.18 41.06 64.07 39.77 64.01 39.13 C 69.89 36.25 76.45 34.69 82.91 36.88 C 81.44 41.39 78.96 45.52 75.42 48.71 C 75.99 48.89 77.14 49.26 77.71 49.45 C 75.85 51.17 73.98 52.89 72.13 54.61 C 74.74 53.45 77.25 51.93 80.09 51.40 C 82.89 51.46 85.25 53.30 87.68 54.49 C 86.25 55.02 84.80 55.52 83.35 56.00 L 32.71 56.00 C 30.13 53.55 27.24 51.49 24.13 49.77 C 27.32 45.87 30.33 41.77 32.20 37.05 C 34.32 36.71 36.44 36.37 38.57 36.04 C 36.60 33.16 34.84 30.14 32.84 27.28 C 33.25 29.33 33.68 31.37 34.10 33.41 C 31.80 34.32 29.53 35.55 27.02 35.72 C 24.09 35.39 21.48 33.88 18.82 32.72 C 20.90 28.50 25.31 27.13 29.70 27.10 C 29.04 25.68 28.39 24.25 27.75 22.81 C 31.54 21.00 35.74 19.94 39.91 21.11 C 40.84 22.49 41.80 23.87 42.91 25.13 C 44.69 27.17 46.62 29.10 48.26 31.26 C 48.24 32.88 47.85 34.47 47.56 36.06 C 45.38 35.11 43.21 34.16 41.05 33.19 C 40.77 34.10 40.49 35.01 40.20 35.92 C 44.90 37.89 49.84 39.15 54.78 40.36 C 52.88 38.30 49.39 36.59 50.05 33.29 C 55.55 29.72 61.71 27.35 67.63 24.60 C 68.07 22.18 68.67 19.79 69.38 17.44 C 64.89 19.27 60.25 17.92 55.88 16.39 C 55.93 13.58 56.04 10.77 56.19 7.96 C 56.35 6.63 56.18 5.33 55.69 4.08 C 55.82 2.72 55.95 1.36 56.09 0.00 M 138.59 9.24 C 141.01 10.53 143.48 11.72 146.02 12.74 C 145.37 14.07 144.70 15.39 144.02 16.71 C 146.38 16.58 148.74 16.49 151.10 16.51 C 148.31 14.61 146.57 11.71 144.46 9.16 C 142.52 8.82 140.54 9.19 138.59 9.24 M 157.15 22.40 C 156.30 26.38 161.14 21.58 157.15 22.40 M 114.60 36.88 C 114.41 37.45 114.22 38.01 114.03 38.58 C 115.18 38.84 116.34 39.10 117.49 39.36 C 117.48 39.76 117.46 40.56 117.45 40.95 C 121.35 38.82 125.41 37.04 129.41 35.12 C 124.50 35.92 119.61 37.75 114.60 36.88 M 103.41 38.77 C 101.84 41.33 101.14 46.01 96.62 44.04 C 93.25 43.35 89.84 43.12 86.56 44.48 C 90.93 45.20 95.25 46.17 99.51 47.38 C 103.53 47.03 107.47 45.92 111.54 45.92 C 112.59 47.20 113.65 48.48 114.69 49.78 C 115.38 48.27 116.07 46.76 116.77 45.25 C 112.24 45.33 107.74 44.79 103.26 44.27 C 103.35 42.44 103.38 40.60 103.41 38.77 M 155.01 44.17 C 152.71 44.96 150.62 43.39 148.62 42.51 C 148.42 43.23 148.22 43.96 148.03 44.69 C 152.35 46.51 157.06 47.86 161.36 45.15 C 161.04 43.16 160.79 41.16 160.62 39.16 C 158.92 40.97 157.52 43.42 155.01 44.17 M 34.89 42.80 C 33.57 43.77 32.24 44.74 30.89 45.70 C 35.54 44.92 40.51 45.58 43.81 49.25 C 44.61 48.31 45.41 47.37 46.22 46.43 C 49.62 46.67 53.03 46.73 56.44 46.78 C 52.93 46.00 49.44 45.14 45.96 44.23 C 46.30 42.86 46.65 41.48 47.00 40.11 C 44.15 43.78 38.95 45.68 34.89 42.80 M 163.96 44.23 C 163.65 46.00 167.35 46.00 167.04 44.23 C 166.42 43.18 164.58 43.18 163.96 44.23 M 113.51 51.42 C 116.81 51.95 120.12 52.51 123.44 52.86 C 120.47 50.77 116.92 49.55 113.51 51.42 Z" />
<path fill="#3c6bbe" opacity="1.00" d=" M 213.78 25.60 L 214.47 25.29 L 215.18 24.98 C 217.89 25.10 220.60 25.12 223.31 25.17 L 224.00 25.64 L 224.00 27.72 C 220.55 27.25 216.99 27.06 213.78 25.60 Z" />
<path fill="#3c6bbe" opacity="1.00" d=" M 8.35 39.96 C 11.59 38.23 14.96 35.92 18.81 36.24 C 22.35 36.78 25.34 38.94 28.23 40.91 C 25.81 42.72 23.27 44.37 20.66 45.91 C 21.02 47.47 21.39 49.03 21.74 50.59 C 19.74 52.41 17.75 54.26 15.68 56.00 L 0.00 56.00 L 0.00 38.77 C 2.28 39.05 4.56 39.36 6.84 39.63 C 8.74 43.40 11.78 46.42 15.72 48.03 C 13.25 45.35 10.76 42.69 8.35 39.96 M 2.86 47.80 C 3.00 49.94 3.12 52.10 2.90 54.25 C 5.64 54.49 8.39 54.75 11.13 54.98 C 9.00 53.56 6.87 52.14 4.76 50.70 C 5.77 49.33 6.81 47.98 7.86 46.64 C 6.19 47.01 4.53 47.40 2.86 47.80 Z" />
<path fill="#3c6bbe" opacity="1.00" d=" M 16.70 56.00 C 19.72 54.43 22.63 52.08 26.32 52.66 C 28.24 53.51 29.88 54.86 31.62 56.00 L 16.70 56.00 Z" />
</g>
<g id="#4179cbff">
<path fill="#4179cb" opacity="1.00" d=" M 25.57 0.00 L 30.40 0.00 C 32.23 0.38 35.89 1.15 37.73 1.54 C 32.06 3.31 26.47 7.26 20.27 5.95 C 16.98 5.14 13.98 6.85 11.37 8.64 C 12.96 10.47 14.58 12.29 16.20 14.11 C 12.16 14.04 8.12 14.25 4.09 14.60 C 6.44 12.75 9.03 11.13 11.08 8.93 C 10.46 6.93 9.42 5.09 8.42 3.26 C 14.79 6.06 21.89 4.02 28.51 3.40 C 27.54 2.25 26.58 1.10 25.57 0.00 Z" />
<path fill="#4179cb" opacity="1.00" d=" M 131.01 47.39 C 131.84 46.75 132.67 46.12 133.49 45.47 C 138.81 49.32 145.14 51.56 150.07 56.00 L 139.84 56.00 C 139.23 55.59 138.00 54.76 137.39 54.34 C 139.45 54.01 143.57 53.36 145.62 53.03 C 140.11 49.81 133.58 50.69 128.09 53.49 C 130.01 51.81 131.93 50.13 133.84 48.44 C 133.13 48.17 131.72 47.65 131.01 47.39 Z" />
</g>
<g id="#268dd8ff">
<path fill="#268dd8" opacity="1.00" d=" M 39.34 0.00 L 42.59 0.00 C 42.75 0.50 43.07 1.50 43.22 2.00 C 42.96 3.29 42.73 4.58 42.56 5.89 C 41.81 10.18 42.96 14.35 43.88 18.48 C 43.57 16.98 43.39 13.88 41.20 14.29 C 41.08 14.33 40.84 14.40 40.72 14.44 C 39.98 14.73 39.25 15.04 38.52 15.36 C 38.93 11.39 39.36 7.42 39.77 3.45 C 42.13 6.13 42.52 1.41 40.13 0.76 L 39.34 0.00 Z" />
<path fill="#268dd8" opacity="1.00" d=" M 153.82 0.00 L 155.04 0.00 C 155.12 0.50 155.29 1.50 155.37 2.00 C 155.05 3.28 154.76 4.56 154.49 5.85 C 154.25 7.07 153.77 9.51 153.53 10.73 C 154.16 12.34 154.90 13.90 155.69 15.43 C 155.37 14.99 154.73 14.10 154.40 13.65 C 154.80 15.90 155.24 18.15 155.44 20.44 C 155.48 21.24 155.56 22.84 155.60 23.64 C 151.41 16.45 150.45 7.68 153.82 0.00 Z" />
</g>
<g id="#342f2aff">
<path fill="#342f2a" opacity="1.00" d=" M 42.59 0.00 L 44.87 0.00 C 45.33 0.33 46.23 0.98 46.69 1.30 C 46.65 3.07 46.48 4.86 46.73 6.62 C 48.62 8.72 51.88 8.13 54.40 8.12 C 54.68 8.10 55.23 8.06 55.51 8.03 L 56.19 7.96 C 56.04 10.77 55.93 13.58 55.88 16.39 C 55.89 16.97 55.90 18.13 55.91 18.71 L 55.96 20.26 C 55.52 20.18 54.63 20.03 54.19 19.95 C 54.04 19.70 53.74 19.18 53.59 18.92 C 52.41 15.91 50.44 19.07 51.17 20.93 C 50.88 21.56 50.31 22.82 50.02 23.45 C 49.49 23.04 48.43 22.24 47.89 21.83 C 48.35 17.71 48.88 13.59 49.59 9.50 C 48.96 9.35 47.71 9.06 47.09 8.92 C 46.53 12.61 45.98 16.30 45.44 20.00 C 45.07 19.71 44.33 19.15 43.96 18.87 L 43.88 18.48 C 42.96 14.35 41.81 10.18 42.56 5.89 C 43.08 8.36 43.75 10.80 44.82 13.10 C 44.74 9.35 44.47 5.56 43.22 2.00 C 43.07 1.50 42.75 0.50 42.59 0.00 M 48.91 19.37 C 50.16 16.83 51.27 14.22 52.10 11.51 C 50.49 13.87 49.12 16.43 48.91 19.37 Z" />
<path fill="#342f2a" opacity="1.00" d=" M 98.95 0.00 L 100.88 0.00 C 101.33 0.32 102.24 0.97 102.69 1.30 C 102.66 3.26 102.51 5.25 102.87 7.19 C 105.21 8.32 107.88 8.26 110.40 8.12 C 110.68 8.10 111.23 8.06 111.51 8.04 L 112.18 7.97 C 112.09 9.84 111.91 13.58 111.82 15.46 C 111.82 16.00 111.80 17.09 111.79 17.63 L 111.81 19.03 C 111.34 19.07 110.41 19.16 109.94 19.20 L 109.20 19.38 C 110.05 16.56 106.86 17.48 107.02 19.66 C 106.81 20.23 106.39 21.36 106.18 21.93 C 105.47 21.60 104.04 20.95 103.33 20.62 C 104.17 16.94 105.00 13.24 105.81 9.54 C 105.10 9.38 103.68 9.05 102.98 8.88 C 102.42 12.72 101.72 16.53 101.34 20.39 C 101.01 19.48 100.69 18.58 100.35 17.68 L 100.20 17.25 C 98.79 13.63 97.38 9.85 98.52 5.87 C 99.08 8.34 99.76 10.79 100.82 13.09 C 100.63 9.34 100.19 5.61 99.28 1.97 C 99.20 1.47 99.03 0.49 98.95 0.00 M 104.91 19.37 C 106.16 16.83 107.27 14.22 108.10 11.51 C 106.49 13.87 105.12 16.43 104.91 19.37 Z" />
<path fill="#342f2a" opacity="1.00" d=" M 210.95 0.00 L 212.89 0.00 C 213.34 0.33 214.24 0.98 214.70 1.30 C 214.66 3.27 214.51 5.26 214.87 7.20 C 217.19 8.34 219.86 8.24 222.37 8.08 C 222.60 8.05 223.05 8.01 223.28 7.98 L 224.00 7.89 L 224.00 18.98 C 223.45 19.06 222.36 19.23 221.82 19.31 L 221.07 19.42 C 221.96 16.53 218.68 17.47 219.00 19.75 C 218.83 20.36 218.49 21.57 218.32 22.18 C 217.59 21.81 216.12 21.07 215.39 20.70 C 216.20 16.98 217.00 13.26 217.79 9.54 C 217.09 9.38 215.68 9.05 214.97 8.88 C 214.42 12.72 213.73 16.54 213.35 20.39 C 213.02 19.49 212.69 18.59 212.36 17.69 L 212.20 17.25 C 210.78 13.63 209.39 9.85 210.52 5.87 C 211.08 8.34 211.76 10.79 212.82 13.09 C 212.62 9.34 212.19 5.61 211.28 1.97 C 211.20 1.47 211.03 0.49 210.95 0.00 M 216.91 19.37 C 218.16 16.83 219.27 14.22 220.10 11.51 C 218.50 13.87 217.10 16.43 216.91 19.37 Z" />
</g>
<g id="#84ad5aff">
<path fill="#84ad5a" opacity="1.00" d=" M 44.87 0.00 L 56.09 0.00 C 55.95 1.36 55.82 2.72 55.69 4.08 C 54.90 5.21 54.25 6.95 55.51 8.03 C 55.23 8.06 54.68 8.10 54.40 8.12 C 52.37 5.29 49.65 3.09 46.69 1.30 C 46.23 0.98 45.33 0.33 44.87 0.00 M 51.56 1.49 C 51.13 3.20 54.15 3.83 54.74 2.29 C 55.01 0.68 52.25 0.23 51.56 1.49 Z" />
<path fill="#84ad5a" opacity="1.00" d=" M 100.88 0.00 L 112.08 0.00 C 111.95 1.36 111.82 2.72 111.69 4.08 C 110.90 5.21 110.24 6.95 111.51 8.04 C 111.23 8.06 110.68 8.10 110.40 8.12 C 108.37 5.29 105.65 3.10 102.69 1.30 C 102.24 0.97 101.33 0.32 100.88 0.00 M 107.56 1.49 C 107.13 3.20 110.15 3.83 110.74 2.29 C 111.01 0.68 108.25 0.23 107.56 1.49 Z" />
<path fill="#84ad5a" opacity="1.00" d=" M 156.89 0.00 L 168.08 0.00 C 167.95 1.36 167.83 2.72 167.71 4.09 C 166.95 5.23 166.32 6.94 167.54 8.04 C 167.25 8.06 166.68 8.10 166.40 8.12 C 164.37 5.29 161.66 3.11 158.71 1.31 C 158.26 0.98 157.34 0.33 156.89 0.00 M 163.56 1.49 C 163.13 3.20 166.15 3.83 166.74 2.29 C 167.01 0.68 164.25 0.23 163.56 1.49 Z" />
<path fill="#84ad5a" opacity="1.00" d=" M 212.89 0.00 L 224.00 0.00 L 224.00 4.29 C 222.71 5.00 221.81 6.92 223.28 7.98 C 223.05 8.01 222.60 8.05 222.37 8.08 C 220.34 5.26 217.63 3.10 214.70 1.30 C 214.24 0.98 213.34 0.33 212.89 0.00 M 219.56 1.49 C 219.13 3.20 222.15 3.83 222.74 2.29 C 223.01 0.68 220.25 0.23 219.56 1.49 Z" />
</g>
<g id="#4279caff">
<path fill="#4279ca" opacity="1.00" d=" M 85.53 0.00 L 95.99 0.00 C 90.51 0.95 84.86 2.14 80.49 5.80 C 76.00 4.01 71.07 4.28 67.39 7.66 C 68.98 9.49 70.58 11.30 72.19 13.11 C 68.16 13.05 64.12 13.24 60.11 13.61 C 62.40 11.73 65.02 10.19 67.00 7.95 C 66.45 5.94 65.48 4.07 64.57 2.20 C 71.51 2.87 79.70 5.33 85.53 0.00 Z" />
<path fill="#4279ca" opacity="1.00" d=" M 197.56 0.00 L 207.99 0.00 C 202.51 0.95 196.86 2.14 192.49 5.80 C 188.00 4.01 183.07 4.28 179.38 7.66 C 180.97 9.48 182.58 11.29 184.19 13.10 C 180.18 13.05 176.17 13.24 172.18 13.64 C 175.43 11.28 178.62 8.54 179.22 4.35 C 185.35 2.80 192.40 4.47 197.56 0.00 Z" />
<path fill="#4279ca" opacity="1.00" d=" M 113.51 51.42 C 116.92 49.55 120.47 50.77 123.44 52.86 C 120.12 52.51 116.81 51.95 113.51 51.42 Z" />
</g>
<g id="#268ed9ff">
<path fill="#268ed9" opacity="1.00" d=" M 97.83 0.00 L 98.95 0.00 C 99.03 0.49 99.20 1.47 99.28 1.97 C 98.98 3.26 98.73 4.56 98.52 5.87 C 97.38 9.85 98.79 13.63 100.20 17.25 C 99.35 15.85 98.09 14.61 96.40 14.40 C 96.09 11.22 95.91 8.03 95.72 4.84 C 97.72 5.10 97.74 2.57 96.89 1.40 C 97.12 1.05 97.59 0.35 97.83 0.00 Z" />
<path fill="#268ed9" opacity="1.00" d=" M 209.83 0.00 L 210.95 0.00 C 211.03 0.49 211.20 1.47 211.28 1.97 C 210.98 3.26 210.72 4.56 210.52 5.87 C 209.39 9.85 210.78 13.63 212.20 17.25 C 211.35 15.85 210.09 14.61 208.40 14.40 C 208.09 11.22 207.91 8.03 207.72 4.84 C 209.72 5.10 209.74 2.57 208.89 1.40 C 209.12 1.05 209.59 0.35 209.83 0.00 Z" />
<path fill="#268ed9" opacity="1.00" d=" M 109.94 19.20 C 110.41 19.16 111.34 19.07 111.81 19.03 C 111.61 19.57 111.21 20.66 111.01 21.21 C 110.74 20.71 110.21 19.70 109.94 19.20 Z" />
<path fill="#268ed9" opacity="1.00" d=" M 54.19 19.95 C 54.63 20.03 55.52 20.18 55.96 20.26 C 55.73 20.74 55.25 21.71 55.02 22.20 C 54.81 21.64 54.39 20.51 54.19 19.95 Z" />
</g>
<g id="#4278caff">
<path fill="#4278ca" opacity="1.00" d=" M 138.35 0.00 L 141.42 0.00 C 139.41 1.69 137.84 5.59 134.63 4.38 C 130.63 3.09 126.55 3.91 123.38 6.66 C 124.97 8.48 126.58 10.30 128.19 12.11 C 124.16 12.05 120.12 12.24 116.11 12.61 C 118.40 10.73 121.02 9.19 123.00 6.95 C 122.46 4.95 121.49 3.11 120.59 1.25 C 125.70 1.85 130.84 2.12 135.98 2.39 C 136.57 1.79 137.75 0.60 138.35 0.00 Z" />
<path fill="#4278ca" opacity="1.00" d=" M 121.79 16.86 C 125.27 15.87 128.69 14.66 132.15 13.57 C 129.62 14.87 127.06 16.09 124.51 17.36 C 124.03 19.03 124.14 21.03 123.12 22.48 C 117.54 25.81 110.92 27.60 106.30 32.44 C 105.07 35.66 109.05 37.31 110.79 39.35 C 105.85 38.16 100.91 36.89 96.21 34.92 C 96.49 34.00 96.77 33.09 97.05 32.17 C 99.03 33.07 101.01 33.97 103.00 34.87 C 103.64 33.17 104.34 31.49 105.04 29.80 C 102.86 28.09 100.54 26.51 98.69 24.42 C 99.54 23.46 100.40 22.51 101.27 21.56 C 102.71 22.36 104.29 23.00 105.97 23.00 C 105.24 24.04 104.54 25.09 103.87 26.16 C 110.63 27.09 116.79 24.15 122.56 21.11 C 119.15 19.46 115.51 18.33 111.79 17.63 C 111.80 17.09 111.82 16.00 111.82 15.46 C 115.10 16.10 118.43 17.77 121.79 16.86 M 101.15 23.40 C 100.30 27.38 105.14 22.58 101.15 23.40 Z" />
</g>
<g id="#332e2aff">
<path fill="#332e2a" opacity="1.00" d=" M 155.04 0.00 L 156.89 0.00 C 157.34 0.33 158.26 0.98 158.71 1.31 C 158.67 3.28 158.51 5.27 158.85 7.22 C 161.21 8.29 163.86 8.25 166.40 8.12 C 166.68 8.10 167.25 8.06 167.54 8.04 L 168.22 7.97 C 167.93 10.82 167.67 13.68 167.44 16.54 C 167.40 17.00 167.31 17.93 167.26 18.39 C 166.96 18.29 166.36 18.08 166.05 17.97 L 165.68 17.83 C 164.61 16.61 162.73 17.52 163.11 19.13 C 162.89 19.73 162.45 20.94 162.24 21.54 C 161.66 21.11 160.51 20.25 159.93 19.81 C 160.49 16.36 161.12 12.92 161.75 9.48 C 161.17 9.38 160.01 9.20 159.43 9.11 C 158.53 11.67 157.61 14.22 156.65 16.77 C 156.41 16.43 155.93 15.76 155.69 15.43 C 154.90 13.90 154.16 12.34 153.53 10.73 C 153.77 9.51 154.25 7.07 154.49 5.85 C 155.07 8.32 155.75 10.78 156.82 13.09 C 156.60 9.36 156.19 5.65 155.37 2.00 C 155.29 1.50 155.12 0.50 155.04 0.00 M 160.91 19.37 C 162.16 16.83 163.27 14.22 164.10 11.51 C 162.50 13.87 161.11 16.43 160.91 19.37 Z" />
</g>
<g id="#86a0b1ff">
<path fill="#86a0b1" opacity="1.00" d=" M 40.13 0.76 C 42.52 1.41 42.13 6.13 39.77 3.45 C 39.86 2.77 40.04 1.43 40.13 0.76 Z" />
</g>
<g id="#6f9a52ff">
<path fill="#6f9a52" opacity="1.00" d=" M 51.56 1.49 C 52.25 0.23 55.01 0.68 54.74 2.29 C 54.15 3.83 51.13 3.20 51.56 1.49 Z" />
<path fill="#6f9a52" opacity="1.00" d=" M 107.56 1.49 C 108.25 0.23 111.01 0.68 110.74 2.29 C 110.15 3.83 107.13 3.20 107.56 1.49 Z" />
<path fill="#6f9a52" opacity="1.00" d=" M 163.56 1.49 C 164.25 0.23 167.01 0.68 166.74 2.29 C 166.15 3.83 163.13 3.20 163.56 1.49 Z" />
<path fill="#6f9a52" opacity="1.00" d=" M 219.56 1.49 C 220.25 0.23 223.01 0.68 222.74 2.29 C 222.15 3.83 219.13 3.20 219.56 1.49 Z" />
</g>
<g id="#709e5cff">
<path fill="#709e5c" opacity="1.00" d=" M 46.69 1.30 C 49.65 3.09 52.37 5.29 54.40 8.12 C 51.88 8.13 48.62 8.72 46.73 6.62 C 46.48 4.86 46.65 3.07 46.69 1.30 Z" />
<path fill="#709e5c" opacity="1.00" d=" M 102.69 1.30 C 105.65 3.10 108.37 5.29 110.40 8.12 C 107.88 8.26 105.21 8.32 102.87 7.19 C 102.51 5.25 102.66 3.26 102.69 1.30 Z" />
<path fill="#709e5c" opacity="1.00" d=" M 158.71 1.31 C 161.66 3.11 164.37 5.29 166.40 8.12 C 163.86 8.25 161.21 8.29 158.85 7.22 C 158.51 5.27 158.67 3.28 158.71 1.31 Z" />
<path fill="#709e5c" opacity="1.00" d=" M 214.70 1.30 C 217.63 3.10 220.34 5.26 222.37 8.08 C 219.86 8.24 217.19 8.34 214.87 7.20 C 214.51 5.26 214.66 3.27 214.70 1.30 Z" />
</g>
<g id="#7392b4ff">
<path fill="#7392b4" opacity="1.00" d=" M 95.72 4.84 C 95.60 3.54 95.98 2.39 96.89 1.40 C 97.74 2.57 97.72 5.10 95.72 4.84 Z" />
<path fill="#7392b4" opacity="1.00" d=" M 207.72 4.84 C 207.59 3.54 207.98 2.39 208.89 1.40 C 209.74 2.57 209.72 5.10 207.72 4.84 Z" />
</g>
<g id="#645a4bff">
<path fill="#645a4b" opacity="1.00" d=" M 43.22 2.00 C 44.47 5.56 44.74 9.35 44.82 13.10 C 43.75 10.80 43.08 8.36 42.56 5.89 C 42.73 4.58 42.96 3.29 43.22 2.00 Z" />
<path fill="#645a4b" opacity="1.00" d=" M 99.28 1.97 C 100.19 5.61 100.63 9.34 100.82 13.09 C 99.76 10.79 99.08 8.34 98.52 5.87 C 98.73 4.56 98.98 3.26 99.28 1.97 Z" />
<path fill="#645a4b" opacity="1.00" d=" M 155.37 2.00 C 156.19 5.65 156.60 9.36 156.82 13.09 C 155.75 10.78 155.07 8.32 154.49 5.85 C 154.76 4.56 155.05 3.28 155.37 2.00 Z" />
<path fill="#645a4b" opacity="1.00" d=" M 211.28 1.97 C 212.19 5.61 212.62 9.34 212.82 13.09 C 211.76 10.79 211.08 8.34 210.52 5.87 C 210.72 4.56 210.98 3.26 211.28 1.97 Z" />
</g>
<g id="#5c8260ff">
<path fill="#5c8260" opacity="1.00" d=" M 55.51 8.03 C 54.25 6.95 54.90 5.21 55.69 4.08 C 56.18 5.33 56.35 6.63 56.19 7.96 L 55.51 8.03 Z" />
<path fill="#5c8260" opacity="1.00" d=" M 111.51 8.04 C 110.24 6.95 110.90 5.21 111.69 4.08 C 112.19 5.34 112.35 6.63 112.18 7.97 L 111.51 8.04 Z" />
<path fill="#5c8260" opacity="1.00" d=" M 167.54 8.04 C 166.32 6.94 166.95 5.23 167.71 4.09 C 168.25 5.34 168.42 6.64 168.22 7.97 L 167.54 8.04 Z" />
<path fill="#5c8260" opacity="1.00" d=" M 223.28 7.98 C 221.81 6.92 222.71 5.00 224.00 4.29 L 224.00 7.89 L 223.28 7.98 Z" />
</g>
<g id="#4377cafe">
<path fill="#4377ca" opacity="1.00" d=" M 138.59 9.24 C 140.54 9.19 142.52 8.82 144.46 9.16 C 146.57 11.71 148.31 14.61 151.10 16.51 C 148.74 16.49 146.38 16.58 144.02 16.71 C 144.70 15.39 145.37 14.07 146.02 12.74 C 143.48 11.72 141.01 10.53 138.59 9.24 Z" />
</g>
<g id="#6c604cff">
<path fill="#6c604c" opacity="1.00" d=" M 47.09 8.92 C 47.71 9.06 48.96 9.35 49.59 9.50 C 48.88 13.59 48.35 17.71 47.89 21.83 C 47.41 21.47 46.43 20.74 45.94 20.37 L 45.44 20.00 C 45.98 16.30 46.53 12.61 47.09 8.92 Z" />
<path fill="#6c604c" opacity="1.00" d=" M 102.98 8.88 C 103.68 9.05 105.10 9.38 105.81 9.54 C 105.00 13.24 104.17 16.94 103.33 20.62 C 102.89 20.77 102.02 21.06 101.59 21.21 L 101.34 20.39 C 101.72 16.53 102.42 12.72 102.98 8.88 Z" />
<path fill="#6c604c" opacity="1.00" d=" M 214.97 8.88 C 215.68 9.05 217.09 9.38 217.79 9.54 C 217.00 13.26 216.20 16.98 215.39 20.70 C 214.94 20.83 214.05 21.09 213.61 21.22 L 213.35 20.39 C 213.73 16.54 214.42 12.72 214.97 8.88 Z" />
</g>
<g id="#6c5f4bff">
<path fill="#6c5f4b" opacity="1.00" d=" M 159.43 9.11 C 160.01 9.20 161.17 9.38 161.75 9.48 C 161.12 12.92 160.49 16.36 159.93 19.81 C 158.76 18.89 157.65 17.88 156.65 16.77 C 157.61 14.22 158.53 11.67 159.43 9.11 Z" />
</g>
<g id="#565249ff">
<path fill="#565249" opacity="1.00" d=" M 48.91 19.37 C 49.12 16.43 50.49 13.87 52.10 11.51 C 51.27 14.22 50.16 16.83 48.91 19.37 Z" />
<path fill="#565249" opacity="1.00" d=" M 104.91 19.37 C 105.12 16.43 106.49 13.87 108.10 11.51 C 107.27 14.22 106.16 16.83 104.91 19.37 Z" />
<path fill="#565249" opacity="1.00" d=" M 160.91 19.37 C 161.11 16.43 162.50 13.87 164.10 11.51 C 163.27 14.22 162.16 16.83 160.91 19.37 Z" />
<path fill="#565249" opacity="1.00" d=" M 216.91 19.37 C 217.10 16.43 218.50 13.87 220.10 11.51 C 219.27 14.22 218.16 16.83 216.91 19.37 Z" />
<path fill="#565249" opacity="1.00" d=" M 51.17 20.93 C 50.44 19.07 52.41 15.91 53.59 18.92 C 53.38 19.37 52.96 20.27 52.75 20.72 C 52.35 20.77 51.57 20.88 51.17 20.93 Z" />
<path fill="#565249" opacity="1.00" d=" M 107.02 19.66 C 106.86 17.48 110.05 16.56 109.20 19.38 L 108.48 19.90 C 108.11 19.84 107.39 19.72 107.02 19.66 Z" />
<path fill="#565249" opacity="1.00" d=" M 219.00 19.75 C 218.68 17.47 221.96 16.53 221.07 19.42 L 220.41 19.94 C 220.06 19.90 219.35 19.80 219.00 19.75 Z" />
</g>
<g id="#709fc2fe">
<path fill="#709fc2" opacity="1.00" d=" M 41.20 14.29 C 43.39 13.88 43.57 16.98 43.88 18.48 L 43.96 18.87 C 42.75 18.02 41.63 16.99 40.94 15.67 C 41.00 15.32 41.13 14.63 41.20 14.29 Z" />
</g>
<g id="#7ca2beff">
<path fill="#7ca2be" opacity="1.00" d=" M 96.40 14.40 C 98.09 14.61 99.35 15.85 100.20 17.25 L 100.35 17.68 C 98.90 17.60 97.50 16.97 96.61 15.80 C 96.55 15.45 96.45 14.75 96.40 14.40 Z" />
<path fill="#7ca2be" opacity="1.00" d=" M 208.40 14.40 C 210.09 14.61 211.35 15.85 212.20 17.25 L 212.36 17.69 C 210.90 17.61 209.49 16.98 208.61 15.80 C 208.56 15.45 208.45 14.75 208.40 14.40 Z" />
</g>
<g id="#7fa1b9ff">
<path fill="#7fa1b9" opacity="1.00" d=" M 154.40 13.65 C 154.73 14.10 155.37 14.99 155.69 15.43 C 155.93 15.76 156.41 16.43 156.65 16.77 C 157.65 17.88 158.76 18.89 159.93 19.81 C 160.51 20.25 161.66 21.11 162.24 21.54 L 162.68 21.89 L 161.54 21.65 C 159.50 21.25 157.47 20.84 155.44 20.44 C 155.24 18.15 154.80 15.90 154.40 13.65 Z" />
</g>
<g id="#4379caff">
<path fill="#4379ca" opacity="1.00" d=" M 22.38 19.31 C 28.37 18.96 34.42 17.02 40.33 19.02 C 40.22 19.54 40.01 20.59 39.91 21.11 C 35.74 19.94 31.54 21.00 27.75 22.81 C 28.39 24.25 29.04 25.68 29.70 27.10 C 25.31 27.13 20.90 28.50 18.82 32.72 C 21.48 33.88 24.09 35.39 27.02 35.72 C 29.53 35.55 31.80 34.32 34.10 33.41 C 33.68 31.37 33.25 29.33 32.84 27.28 C 34.84 30.14 36.60 33.16 38.57 36.04 C 36.44 36.37 34.32 36.71 32.20 37.05 C 30.33 41.77 27.32 45.87 24.13 49.77 C 27.24 51.49 30.13 53.55 32.71 56.00 L 31.62 56.00 C 29.88 54.86 28.24 53.51 26.32 52.66 C 22.63 52.08 19.72 54.43 16.70 56.00 L 15.68 56.00 C 17.75 54.26 19.74 52.41 21.74 50.59 C 21.39 49.03 21.02 47.47 20.66 45.91 C 23.27 44.37 25.81 42.72 28.23 40.91 C 25.34 38.94 22.35 36.78 18.81 36.24 C 14.96 35.92 11.59 38.23 8.35 39.96 C 10.76 42.69 13.25 45.35 15.72 48.03 C 11.78 46.42 8.74 43.40 6.84 39.63 C 4.56 39.36 2.28 39.05 0.00 38.77 L 0.00 38.02 C 6.29 36.50 13.64 37.17 18.86 32.86 C 18.41 31.03 17.59 29.32 16.83 27.61 C 20.74 27.28 24.55 26.28 28.21 24.89 C 26.38 22.92 24.42 21.07 22.38 19.31 Z" />
<path fill="#4379ca" opacity="1.00" d=" M 114.60 36.88 C 119.61 37.75 124.50 35.92 129.41 35.12 C 125.41 37.04 121.35 38.82 117.45 40.95 C 117.46 40.56 117.48 39.76 117.49 39.36 C 116.34 39.10 115.18 38.84 114.03 38.58 C 114.22 38.01 114.41 37.45 114.60 36.88 Z" />
</g>
<g id="#298ad7ff">
<path fill="#298ad7" opacity="1.00" d=" M 40.94 15.67 C 41.63 16.99 42.75 18.02 43.96 18.87 C 44.33 19.15 45.07 19.71 45.44 20.00 L 45.94 20.37 C 45.68 20.77 45.16 21.56 44.91 21.95 L 44.51 22.56 C 44.55 21.45 42.84 19.76 42.16 21.35 C 42.21 22.52 42.87 23.11 44.14 23.14 C 43.83 23.64 43.21 24.63 42.91 25.13 C 41.80 23.87 40.84 22.49 39.91 21.11 C 40.01 20.59 40.22 19.54 40.33 19.02 C 40.48 18.18 40.78 16.51 40.94 15.67 Z" />
</g>
<g id="#427acbff">
<path fill="#427acb" opacity="1.00" d=" M 55.88 16.39 C 60.25 17.92 64.89 19.27 69.38 17.44 C 68.67 19.79 68.07 22.18 67.63 24.60 C 61.71 27.35 55.55 29.72 50.05 33.29 C 49.39 36.59 52.88 38.30 54.78 40.36 C 49.84 39.15 44.90 37.89 40.20 35.92 C 40.49 35.01 40.77 34.10 41.05 33.19 C 43.21 34.16 45.38 35.11 47.56 36.06 C 47.85 34.47 48.24 32.88 48.26 31.26 C 46.62 29.10 44.69 27.17 42.91 25.13 C 43.21 24.63 43.83 23.64 44.14 23.14 L 44.51 22.56 L 44.91 21.95 C 45.69 22.76 46.47 23.56 47.25 24.37 C 45.84 22.96 43.42 25.83 45.61 26.47 C 52.62 30.86 60.63 25.99 66.86 22.46 C 63.49 20.51 59.76 19.25 55.91 18.71 C 55.90 18.13 55.89 16.97 55.88 16.39 Z" />
<path fill="#427acb" opacity="1.00" d=" M 0.00 17.40 C 6.41 20.68 13.38 19.35 20.04 17.76 C 17.83 18.72 15.57 19.59 13.49 20.81 C 11.16 21.87 11.92 24.82 11.62 26.87 C 7.74 28.24 3.84 29.59 0.00 31.07 L 0.00 29.13 C 3.88 27.63 7.80 26.16 11.38 24.00 C 7.82 21.83 3.90 20.38 0.00 18.93 L 0.00 17.40 Z" />
<path fill="#427acb" opacity="1.00" d=" M 2.86 47.80 C 4.53 47.40 6.19 47.01 7.86 46.64 C 6.81 47.98 5.77 49.33 4.76 50.70 C 6.87 52.14 9.00 53.56 11.13 54.98 C 8.39 54.75 5.64 54.49 2.90 54.25 C 3.12 52.10 3.00 49.94 2.86 47.80 Z" />
</g>
<g id="#3a94d8ff">
<path fill="#3a94d8" opacity="1.00" d=" M 96.61 15.80 C 97.50 16.97 98.90 17.60 100.35 17.68 C 100.69 18.58 101.01 19.48 101.34 20.39 L 101.59 21.21 L 101.27 21.56 C 100.40 22.51 99.54 23.46 98.69 24.42 C 97.74 21.61 97.22 18.69 96.61 15.80 Z" />
<path fill="#3a94d8" opacity="1.00" d=" M 208.61 15.80 C 209.49 16.98 210.90 17.61 212.36 17.69 C 212.69 18.59 213.02 19.49 213.35 20.39 L 213.61 21.22 L 213.29 21.56 C 212.41 22.51 211.55 23.46 210.69 24.42 C 209.74 21.61 209.21 18.69 208.61 15.80 Z" />
</g>
<g id="#437acaff">
<path fill="#437aca" opacity="1.00" d=" M 167.44 16.54 C 171.99 17.84 176.76 19.21 181.38 17.46 C 180.66 19.82 180.05 22.21 179.62 24.65 C 175.95 26.29 172.34 28.42 168.24 28.70 C 166.13 29.12 163.35 29.15 162.26 31.37 C 161.11 34.62 165.02 36.34 166.79 38.40 C 159.64 36.78 152.01 32.36 144.72 35.65 C 141.31 38.84 140.54 44.07 136.64 46.98 C 137.35 44.09 138.46 41.25 138.64 38.25 C 136.19 34.50 130.45 35.28 126.59 33.73 C 128.75 30.51 129.58 25.87 133.50 24.33 C 137.09 22.58 141.07 23.90 144.66 24.90 C 140.58 25.41 136.34 25.21 132.39 26.47 C 130.59 27.08 129.61 28.81 130.07 30.67 C 135.04 35.06 142.48 34.25 148.04 31.43 C 147.67 29.35 147.31 27.27 146.96 25.18 C 148.27 27.31 149.40 29.55 150.51 31.79 C 153.49 32.21 156.43 32.84 159.35 33.54 C 160.04 30.97 160.62 28.38 161.04 25.75 L 162.16 25.78 C 167.98 26.92 173.98 26.03 178.97 22.72 C 176.75 21.38 174.55 19.69 171.92 19.30 C 169.17 19.58 166.80 21.16 164.34 22.27 C 165.95 21.63 167.41 20.27 167.26 18.39 C 167.31 17.93 167.40 17.00 167.44 16.54 Z" />
</g>
<g id="#4279cafe">
<path fill="#4279ca" opacity="1.00" d=" M 78.13 16.95 C 82.29 17.87 86.60 18.11 90.79 17.18 C 87.81 19.38 85.07 22.37 85.96 26.37 C 80.87 25.71 75.96 27.35 73.55 31.99 C 79.13 34.35 85.53 35.37 91.10 32.52 C 90.59 30.43 90.08 28.34 89.62 26.25 C 91.35 28.71 92.95 31.27 94.40 33.92 C 87.05 36.18 83.66 43.32 79.21 48.84 C 83.84 51.37 88.43 53.97 93.30 56.00 L 83.35 56.00 C 84.80 55.52 86.25 55.02 87.68 54.49 C 85.25 53.30 82.89 51.46 80.09 51.40 C 77.25 51.93 74.74 53.45 72.13 54.61 C 73.98 52.89 75.85 51.17 77.71 49.45 C 77.14 49.26 75.99 48.89 75.42 48.71 C 78.96 45.52 81.44 41.39 82.91 36.88 C 76.45 34.69 69.89 36.25 64.01 39.13 C 64.07 39.77 64.18 41.06 64.24 41.70 C 66.13 43.41 68.02 45.13 69.86 46.90 C 65.52 45.44 62.56 41.95 60.21 38.19 C 63.79 37.07 67.46 36.14 70.94 34.72 C 73.77 33.50 73.24 29.80 74.10 27.25 C 77.78 25.99 81.46 24.76 85.12 23.45 C 83.32 20.75 80.85 18.65 78.13 16.95 Z" />
</g>
<g id="#4a463eff">
<path fill="#4a463e" opacity="1.00" d=" M 163.11 19.13 C 162.73 17.52 164.61 16.61 165.68 17.83 C 165.04 18.16 163.75 18.80 163.11 19.13 Z" />
</g>
<g id="#4279cbfe">
<path fill="#4279cb" opacity="1.00" d=" M 190.13 16.95 C 194.29 17.87 198.60 18.11 202.79 17.18 C 199.81 19.38 197.07 22.37 197.96 26.36 C 192.96 25.77 188.06 27.25 185.64 31.83 C 188.39 32.91 191.00 34.49 193.89 35.21 C 197.15 35.35 200.10 33.58 203.01 32.34 C 202.65 30.27 202.29 28.20 201.94 26.13 C 203.54 28.65 204.93 31.31 206.34 33.94 C 199.03 36.22 195.65 43.34 191.22 48.84 C 195.84 51.37 200.43 53.97 205.30 56.00 L 195.35 56.00 C 196.80 55.52 198.24 55.02 199.68 54.49 C 197.25 53.30 194.89 51.46 192.09 51.40 C 189.25 51.93 186.74 53.45 184.13 54.61 C 185.98 52.89 187.85 51.17 189.71 49.45 C 189.14 49.26 187.99 48.89 187.42 48.71 C 190.96 45.52 193.44 41.39 194.91 36.88 C 188.45 34.69 181.89 36.25 176.01 39.13 C 176.07 39.77 176.18 41.06 176.24 41.70 C 178.13 43.41 180.02 45.13 181.86 46.90 C 177.51 45.44 174.56 41.95 172.21 38.19 C 175.79 37.07 179.45 36.14 182.94 34.72 C 185.77 33.50 185.24 29.80 186.10 27.25 C 189.78 25.99 193.46 24.76 197.12 23.45 C 195.32 20.75 192.85 18.65 190.13 16.95 Z" />
</g>
<g id="#3b6cbfff">
<path fill="#3b6cbf" opacity="1.00" d=" M 111.79 17.63 C 115.51 18.33 119.15 19.46 122.56 21.11 C 116.79 24.15 110.63 27.09 103.87 26.16 C 106.36 25.62 108.85 25.07 111.33 24.50 C 110.31 24.01 109.28 23.54 108.25 23.08 C 109.29 22.64 110.21 22.01 111.01 21.21 C 111.21 20.66 111.61 19.57 111.81 19.03 L 111.79 17.63 Z" />
</g>
<g id="#5688bafe">
<path fill="#5688ba" opacity="1.00" d=" M 165.68 17.83 L 166.05 17.97 C 165.14 19.25 164.51 20.71 163.91 22.15 C 163.60 22.09 162.99 21.95 162.68 21.89 L 162.24 21.54 C 162.45 20.94 162.89 19.73 163.11 19.13 C 163.75 18.80 165.04 18.16 165.68 17.83 Z" />
</g>
<g id="#9cb3c7fe">
<path fill="#9cb3c7" opacity="1.00" d=" M 166.05 17.97 C 166.36 18.08 166.96 18.29 167.26 18.39 C 167.41 20.27 165.95 21.63 164.34 22.27 L 163.91 22.15 C 164.51 20.71 165.14 19.25 166.05 17.97 Z" />
<path fill="#9cb3c7" opacity="1.00" d=" M 109.20 19.38 L 109.94 19.20 C 110.21 19.70 110.74 20.71 111.01 21.21 C 110.21 22.01 109.29 22.64 108.25 23.08 L 107.73 22.88 C 108.08 21.91 108.32 20.92 108.48 19.90 L 109.20 19.38 Z" />
<path fill="#9cb3c7" opacity="1.00" d=" M 221.07 19.42 L 221.82 19.31 C 223.68 20.66 222.08 22.81 220.33 23.18 L 219.88 22.93 C 220.20 21.96 220.38 20.96 220.41 19.94 L 221.07 19.42 Z" />
</g>
<g id="#9eb5c9ff">
<path fill="#9eb5c9" opacity="1.00" d=" M 53.59 18.92 C 53.74 19.18 54.04 19.70 54.19 19.95 C 54.39 20.51 54.81 21.64 55.02 22.20 C 54.18 22.56 53.33 22.91 52.48 23.24 L 51.86 23.46 C 52.23 22.57 52.53 21.66 52.75 20.72 C 52.96 20.27 53.38 19.37 53.59 18.92 Z" />
</g>
<g id="#3b6bbeff">
<path fill="#3b6bbe" opacity="1.00" d=" M 55.91 18.71 C 59.76 19.25 63.49 20.51 66.86 22.46 C 60.63 25.99 52.62 30.86 45.61 26.47 C 46.02 25.95 46.84 24.89 47.25 24.37 C 47.77 24.27 48.82 24.08 49.34 23.98 C 49.03 24.56 48.42 25.72 48.11 26.30 C 50.40 26.28 52.70 26.22 54.99 26.17 C 54.15 25.19 53.32 24.22 52.48 23.24 C 53.33 22.91 54.18 22.56 55.02 22.20 C 55.25 21.71 55.73 20.74 55.96 20.26 L 55.91 18.71 Z" />
</g>
<g id="#3c6abeff">
<path fill="#3c6abe" opacity="1.00" d=" M 164.34 22.27 C 166.80 21.16 169.17 19.58 171.92 19.30 C 174.55 19.69 176.75 21.38 178.97 22.72 C 173.98 26.03 167.98 26.92 162.16 25.78 C 163.88 24.98 165.58 24.12 167.29 23.28 C 166.31 22.93 165.33 22.60 164.34 22.27 Z" />
<path fill="#3c6abe" opacity="1.00" d=" M 0.00 18.93 C 3.90 20.38 7.82 21.83 11.38 24.00 C 7.80 26.16 3.88 27.63 0.00 29.13 L 0.00 18.93 Z" />
</g>
<g id="#337cccff">
<path fill="#337ccc" opacity="1.00" d=" M 221.82 19.31 C 222.36 19.23 223.45 19.06 224.00 18.98 L 224.00 25.64 L 223.31 25.17 C 222.32 24.49 221.33 23.83 220.33 23.18 C 222.08 22.81 223.68 20.66 221.82 19.31 Z" />
</g>
<g id="#adc2d9ff">
<path fill="#adc2d9" opacity="1.00" d=" M 42.16 21.35 C 42.84 19.76 44.55 21.45 44.51 22.56 L 44.14 23.14 C 42.87 23.11 42.21 22.52 42.16 21.35 Z" />
</g>
<g id="#4f7baeff">
<path fill="#4f7bae" opacity="1.00" d=" M 107.02 19.66 C 107.39 19.72 108.11 19.84 108.48 19.90 C 108.32 20.92 108.08 21.91 107.73 22.88 C 107.40 22.79 106.74 22.63 106.41 22.54 L 106.18 21.93 C 106.39 21.36 106.81 20.23 107.02 19.66 Z" />
<path fill="#4f7bae" opacity="1.00" d=" M 219.00 19.75 C 219.35 19.80 220.06 19.90 220.41 19.94 C 220.38 20.96 220.20 21.96 219.88 22.93 C 219.55 22.90 218.88 22.83 218.55 22.80 L 218.32 22.18 C 218.49 21.57 218.83 20.36 219.00 19.75 Z" />
<path fill="#4f7bae" opacity="1.00" d=" M 51.17 20.93 C 51.57 20.88 52.35 20.77 52.75 20.72 C 52.53 21.66 52.23 22.57 51.86 23.46 C 51.52 23.54 50.82 23.72 50.47 23.80 L 50.02 23.45 C 50.31 22.82 50.88 21.56 51.17 20.93 Z" />
</g>
<g id="#8ea7b9ff">
<path fill="#8ea7b9" opacity="1.00" d=" M 44.91 21.95 C 45.16 21.56 45.68 20.77 45.94 20.37 C 46.43 20.74 47.41 21.47 47.89 21.83 C 48.43 22.24 49.49 23.04 50.02 23.45 L 50.47 23.80 L 49.34 23.98 C 48.82 24.08 47.77 24.27 47.25 24.37 C 46.47 23.56 45.69 22.76 44.91 21.95 Z" />
</g>
<g id="#8ba4b6fe">
<path fill="#8ba4b6" opacity="1.00" d=" M 101.27 21.56 L 101.59 21.21 C 102.02 21.06 102.89 20.77 103.33 20.62 C 104.04 20.95 105.47 21.60 106.18 21.93 L 106.41 22.54 L 105.97 23.00 C 104.29 23.00 102.71 22.36 101.27 21.56 Z" />
<path fill="#8ba4b6" opacity="1.00" d=" M 213.29 21.56 L 213.61 21.22 C 214.05 21.09 214.94 20.83 215.39 20.70 C 216.12 21.07 217.59 21.81 218.32 22.18 L 218.55 22.80 L 218.00 23.15 C 216.32 23.04 214.73 22.39 213.29 21.56 Z" />
</g>
<g id="#4378c9ff">
<path fill="#4378c9" opacity="1.00" d=" M 210.69 24.42 C 211.55 23.46 212.41 22.51 213.29 21.56 C 214.73 22.39 216.32 23.04 218.00 23.15 C 217.30 23.60 215.89 24.52 215.18 24.98 L 214.47 25.29 C 215.25 21.96 210.70 24.39 213.78 25.60 C 216.99 27.06 220.55 27.25 224.00 27.72 L 224.00 27.94 C 222.03 29.65 219.46 30.89 218.13 33.21 C 217.77 36.05 221.20 37.43 222.79 39.35 C 217.84 38.15 212.91 36.89 208.21 34.92 C 208.49 34.00 208.77 33.09 209.05 32.17 C 211.03 33.08 213.01 33.97 215.00 34.87 C 215.64 33.17 216.34 31.49 217.04 29.81 C 214.86 28.09 212.54 26.50 210.69 24.42 Z" />
</g>
<g id="#65569cff">
<path fill="#65569c" opacity="1.00" d=" M 157.15 22.40 C 161.14 21.58 156.30 26.38 157.15 22.40 Z" />
<path fill="#65569c" opacity="1.00" d=" M 161.54 21.65 L 162.68 21.89 C 162.99 21.95 163.60 22.09 163.91 22.15 L 164.34 22.27 C 165.33 22.60 166.31 22.93 167.29 23.28 C 165.58 24.12 163.88 24.98 162.16 25.78 L 161.04 25.75 C 161.24 24.39 161.39 23.02 161.54 21.65 Z" />
<path fill="#65569c" opacity="1.00" d=" M 101.15 23.40 C 105.14 22.58 100.30 27.38 101.15 23.40 Z" />
<path fill="#65569c" opacity="1.00" d=" M 105.97 23.00 L 106.41 22.54 C 106.74 22.63 107.40 22.79 107.73 22.88 L 108.25 23.08 C 109.28 23.54 110.31 24.01 111.33 24.50 C 108.85 25.07 106.36 25.62 103.87 26.16 C 104.54 25.09 105.24 24.04 105.97 23.00 Z" />
<path fill="#65569c" opacity="1.00" d=" M 213.78 25.60 C 210.70 24.39 215.25 21.96 214.47 25.29 L 213.78 25.60 Z" />
<path fill="#65569c" opacity="1.00" d=" M 218.00 23.15 L 218.55 22.80 C 218.88 22.83 219.55 22.90 219.88 22.93 L 220.33 23.18 C 221.33 23.83 222.32 24.49 223.31 25.17 C 220.60 25.12 217.89 25.10 215.18 24.98 C 215.89 24.52 217.30 23.60 218.00 23.15 Z" />
<path fill="#65569c" opacity="1.00" d=" M 45.61 26.47 C 43.42 25.83 45.84 22.96 47.25 24.37 C 46.84 24.89 46.02 25.95 45.61 26.47 Z" />
<path fill="#65569c" opacity="1.00" d=" M 49.34 23.98 L 50.47 23.80 C 50.82 23.72 51.52 23.54 51.86 23.46 L 52.48 23.24 C 53.32 24.22 54.15 25.19 54.99 26.17 C 52.70 26.22 50.40 26.28 48.11 26.30 C 48.42 25.72 49.03 24.56 49.34 23.98 Z" />
</g>
<g id="#4278cbff">
<path fill="#4278cb" opacity="1.00" d=" M 103.41 38.77 C 103.38 40.60 103.35 42.44 103.26 44.27 C 107.74 44.79 112.24 45.33 116.77 45.25 C 116.07 46.76 115.38 48.27 114.69 49.78 C 113.65 48.48 112.59 47.20 111.54 45.92 C 107.47 45.92 103.53 47.03 99.51 47.38 C 95.25 46.17 90.93 45.20 86.56 44.48 C 89.84 43.12 93.25 43.35 96.62 44.04 C 101.14 46.01 101.84 41.33 103.41 38.77 Z" />
</g>
<g id="#4279cbff">
<path fill="#4279cb" opacity="1.00" d=" M 155.01 44.17 C 157.52 43.42 158.92 40.97 160.62 39.16 C 160.79 41.16 161.04 43.16 161.36 45.15 C 157.06 47.86 152.35 46.51 148.03 44.69 C 148.22 43.96 148.42 43.23 148.62 42.51 C 150.62 43.39 152.71 44.96 155.01 44.17 Z" />
</g>
<g id="#4378cbff">
<path fill="#4378cb" opacity="1.00" d=" M 34.89 42.80 C 38.95 45.68 44.15 43.78 47.00 40.11 C 46.65 41.48 46.30 42.86 45.96 44.23 C 49.44 45.14 52.93 46.00 56.44 46.78 C 53.03 46.73 49.62 46.67 46.22 46.43 C 45.41 47.37 44.61 48.31 43.81 49.25 C 40.51 45.58 35.54 44.92 30.89 45.70 C 32.24 44.74 33.57 43.77 34.89 42.80 Z" />
</g>
<g id="#4379cbff">
<path fill="#4379cb" opacity="1.00" d=" M 198.57 44.19 C 207.02 42.53 215.54 44.80 224.00 45.13 L 224.00 45.85 C 218.93 46.19 213.71 47.97 208.64 46.67 C 205.26 45.94 201.88 45.18 198.57 44.19 Z" />
</g>
<g id="#4575cbff">
<path fill="#4575cb" opacity="1.00" d=" M 163.96 44.23 C 164.58 43.18 166.42 43.18 167.04 44.23 C 167.35 46.00 163.65 46.00 163.96 44.23 Z" />
</g>
</svg>
