<?xml version="1.0" encoding="UTF-8" ?>
<!DOCTYPE svg PUBLIC "-//W3C//DTD SVG 1.1//EN" "http://www.w3.org/Graphics/SVG/1.1/DTD/svg11.dtd">
<svg width="224pt" height="56pt" viewBox="0 0 224 56" version="1.1" xmlns="http://www.w3.org/2000/svg">
<g id="#3c6bbeff">
<path fill="#3c6bbe" opacity="1.00" d=" M 0.00 0.00 L 84.35 0.00 C 83.23 1.40 82.10 2.79 80.97 4.19 C 79.45 3.83 77.94 3.47 76.40 3.21 C 72.32 3.50 68.15 3.99 64.21 2.53 C 65.26 4.57 66.28 6.62 67.27 8.68 C 64.81 10.26 62.34 11.84 59.88 13.41 C 63.79 13.27 67.70 13.27 71.62 13.38 C 70.30 11.03 69.08 8.62 68.03 6.14 C 69.67 6.42 71.32 6.70 72.96 6.99 C 72.47 8.24 71.98 9.48 71.48 10.72 C 72.82 11.03 74.15 11.33 75.49 11.64 C 75.13 12.39 74.78 13.14 74.43 13.90 C 82.78 13.76 91.06 12.78 99.36 12.02 L 100.27 12.04 C 99.20 13.09 98.12 14.13 97.03 15.16 C 102.49 14.12 107.92 12.89 113.43 12.11 C 113.57 11.71 113.85 10.91 113.99 10.52 C 108.89 9.94 103.89 8.64 99.41 6.04 C 103.46 5.67 107.53 5.88 111.55 6.37 C 111.74 5.47 111.92 4.57 112.10 3.66 C 105.84 3.39 99.31 3.41 93.81 0.00 L 152.10 0.00 C 153.26 2.14 154.00 4.47 154.61 6.82 C 149.18 5.90 143.66 5.26 138.14 5.57 L 137.61 5.18 C 136.34 4.22 135.10 3.24 133.80 2.32 C 129.40 2.68 124.90 3.27 120.71 1.38 C 121.45 3.37 122.40 5.40 122.25 7.58 C 120.45 9.55 118.21 11.06 116.18 12.79 C 120.36 12.16 124.57 11.71 128.80 11.51 C 129.21 11.49 130.03 11.47 130.44 11.45 C 130.90 11.48 131.83 11.54 132.30 11.57 C 126.72 14.43 121.05 18.49 114.43 16.62 C 109.30 15.98 104.26 20.55 99.32 17.71 C 96.78 16.63 94.15 15.63 91.36 15.51 C 86.91 16.34 82.47 17.32 77.93 17.56 C 79.99 18.43 82.06 19.29 84.12 20.17 C 83.77 21.87 83.42 23.57 83.06 25.27 C 80.49 24.29 77.94 23.23 75.30 22.43 C 72.58 21.96 69.83 22.36 67.14 22.80 C 68.06 21.12 68.93 19.42 69.81 17.73 C 64.01 18.65 58.04 16.33 52.39 18.29 C 50.11 19.00 47.91 19.92 45.73 20.86 C 44.90 19.82 44.08 18.79 43.21 17.79 C 42.87 17.41 42.21 16.64 41.88 16.26 C 47.04 15.15 52.17 13.86 57.41 13.17 C 57.57 12.64 57.88 11.57 58.04 11.04 C 54.35 10.76 50.65 10.54 46.96 10.33 C 48.00 9.38 49.05 8.43 50.09 7.48 C 48.52 7.52 45.37 7.60 43.80 7.64 C 49.82 7.62 55.92 6.35 59.43 1.06 C 53.10 4.14 45.97 4.95 39.08 3.43 C 40.39 4.83 41.68 6.24 42.92 7.70 C 37.58 6.45 32.16 5.51 26.70 4.91 L 26.05 4.84 C 23.62 4.30 21.22 3.64 18.75 3.31 C 18.76 3.72 18.78 4.53 18.79 4.94 L 18.85 6.43 C 18.46 6.26 17.67 5.92 17.27 5.76 C 14.39 5.47 11.50 5.24 8.61 5.05 C 9.48 5.29 11.23 5.77 12.10 6.01 C 10.04 9.34 7.18 12.04 4.29 14.64 C 8.02 14.30 11.77 14.21 15.52 14.19 C 14.20 11.69 13.12 9.05 12.88 6.21 C 13.64 6.38 15.16 6.72 15.92 6.89 C 16.31 7.02 17.09 7.28 17.48 7.41 C 18.73 7.77 19.97 8.13 21.22 8.49 C 19.06 9.07 16.92 9.66 14.77 10.27 C 19.72 11.53 24.68 12.93 29.83 13.08 C 30.20 13.06 30.94 13.03 31.31 13.01 C 35.89 12.70 40.46 12.33 45.03 12.04 C 43.45 13.27 41.68 14.21 39.83 14.95 C 37.45 15.86 34.99 16.61 32.70 17.75 C 32.36 17.94 31.68 18.31 31.35 18.49 C 31.55 17.88 31.95 16.65 32.15 16.04 C 29.72 16.78 27.28 17.53 24.84 18.27 C 26.73 19.16 28.59 20.10 30.51 20.93 C 32.60 21.65 34.76 22.15 36.91 22.68 C 37.29 22.69 38.06 22.73 38.44 22.75 C 39.77 22.60 41.11 22.43 42.44 22.26 L 43.15 22.16 C 39.56 23.56 36.12 25.32 32.62 26.93 L 31.92 27.14 C 27.67 25.67 23.59 23.77 19.30 22.41 C 16.70 21.94 14.08 22.40 11.54 22.94 C 14.00 20.73 16.98 19.22 19.89 17.69 C 13.30 19.33 6.38 20.58 0.00 17.44 L 0.00 0.00 M 30.17 1.17 C 29.65 2.80 30.20 3.35 31.83 2.83 C 32.35 1.20 31.80 0.65 30.17 1.17 Z" />
<path fill="#3c6bbe" opacity="1.00" d=" M 211.55 5.96 C 215.70 5.57 219.89 5.76 224.00 6.51 L 224.00 9.61 C 221.39 9.71 218.78 9.84 216.18 9.98 C 216.66 9.46 217.14 8.95 217.63 8.43 C 215.59 7.63 213.56 6.81 211.55 5.96 Z" />
<path fill="#3c6bbe" opacity="1.00" d=" M 86.03 20.96 C 88.59 21.18 91.15 21.39 93.72 21.58 C 95.24 21.75 98.26 22.08 99.77 22.25 C 95.94 23.25 92.26 24.74 88.93 26.87 C 87.63 26.09 86.36 25.29 85.08 24.50 C 85.39 23.31 85.70 22.14 86.03 20.96 Z" />
<path fill="#3c6bbe" opacity="1.00" d=" M 16.64 56.00 C 21.20 52.69 27.44 51.59 31.72 56.00 L 16.64 56.00 Z" />
</g>
<g id="#417bccff">
<path fill="#417bcc" opacity="1.00" d=" M 84.35 0.00 L 93.81 0.00 C 99.31 3.41 105.84 3.39 112.10 3.66 C 111.92 4.57 111.74 5.47 111.55 6.37 C 107.53 5.88 103.46 5.67 99.41 6.04 C 103.89 8.64 108.89 9.94 113.99 10.52 C 113.85 10.91 113.57 11.71 113.43 12.11 C 107.92 12.89 102.49 14.12 97.03 15.16 C 98.12 14.13 99.20 13.09 100.27 12.04 C 101.64 12.06 103.01 12.07 104.39 12.07 C 102.75 11.58 101.12 11.09 99.47 10.66 C 99.41 10.28 99.29 9.51 99.23 9.13 C 99.07 8.54 98.75 7.36 98.59 6.77 C 97.53 4.51 96.01 2.17 93.52 1.34 C 89.19 -0.63 85.73 2.40 82.43 4.51 C 82.07 4.43 81.33 4.27 80.97 4.19 C 82.10 2.79 83.23 1.40 84.35 0.00 Z" />
</g>
<g id="#407cccff">
<path fill="#407ccc" opacity="1.00" d=" M 152.10 0.00 L 154.10 0.00 C 157.99 3.40 163.24 3.54 168.14 3.86 C 167.92 4.74 167.70 5.62 167.48 6.49 C 163.41 6.12 159.31 5.84 155.22 5.67 C 159.81 9.23 166.24 8.56 170.47 12.59 C 166.99 12.31 163.49 12.23 160.00 12.19 C 160.21 12.00 160.62 11.62 160.83 11.43 C 159.02 11.18 157.21 10.91 155.40 10.66 C 155.34 10.29 155.23 9.54 155.17 9.17 C 155.03 8.58 154.75 7.41 154.61 6.82 C 154.00 4.47 153.26 2.14 152.10 0.00 Z" />
</g>
<g id="#3c6cbffe">
<path fill="#3c6cbf" opacity="1.00" d=" M 154.10 0.00 L 196.36 0.00 C 195.24 1.38 194.11 2.76 192.98 4.14 C 191.46 3.81 189.94 3.47 188.39 3.23 C 184.32 3.50 180.15 3.98 176.21 2.54 C 177.26 4.57 178.27 6.62 179.27 8.68 C 176.81 10.26 174.34 11.84 171.88 13.41 C 175.79 13.27 179.70 13.27 183.62 13.38 C 182.30 11.03 181.08 8.62 180.03 6.14 C 181.67 6.42 183.32 6.70 184.96 6.99 C 184.47 8.24 183.98 9.48 183.48 10.72 C 184.82 11.03 186.15 11.33 187.49 11.63 C 187.13 12.38 186.78 13.14 186.43 13.89 C 195.06 13.61 203.67 13.02 212.25 11.98 C 211.25 13.17 210.26 14.36 209.27 15.55 C 214.20 14.41 218.89 12.17 224.00 11.90 L 224.00 45.11 C 215.92 44.34 207.65 43.20 199.59 44.80 C 203.56 45.53 207.48 46.55 211.48 47.06 C 215.68 47.17 219.83 46.29 224.00 45.94 L 224.00 56.00 L 205.39 56.00 C 201.12 54.21 197.03 52.08 192.89 50.04 C 195.03 51.62 197.18 53.19 199.33 54.76 C 197.99 55.18 196.66 55.61 195.32 56.00 L 143.92 56.00 C 145.41 53.39 140.59 53.39 142.08 56.00 L 93.39 56.00 C 89.13 54.21 85.03 52.08 80.89 50.04 C 83.03 51.62 85.18 53.19 87.33 54.76 C 86.00 55.18 84.67 55.61 83.33 56.00 L 32.73 56.00 C 30.11 53.58 27.21 51.50 24.18 49.63 C 27.69 47.95 31.05 45.35 35.08 45.31 C 38.04 45.53 40.70 47.00 43.33 48.25 C 47.41 46.72 51.81 47.03 56.09 46.87 C 51.98 46.54 47.09 45.61 46.02 41.01 C 43.29 42.53 40.46 43.83 37.64 45.17 C 37.66 43.83 37.68 42.50 37.71 41.17 C 38.51 41.03 40.13 40.75 40.94 40.62 C 40.83 39.75 40.73 38.88 40.62 38.01 C 39.85 37.95 39.08 37.88 38.31 37.80 C 37.71 37.74 37.12 37.66 36.52 37.56 C 37.03 36.23 37.53 34.91 38.02 33.58 C 38.60 33.94 39.17 34.29 39.75 34.65 C 44.20 37.76 49.49 39.13 54.68 40.46 C 52.78 38.35 49.73 36.47 49.97 33.24 C 52.63 30.55 56.43 29.47 60.13 29.50 L 59.38 30.21 C 58.27 31.33 57.20 32.50 56.14 33.68 C 58.27 33.85 60.40 34.03 62.53 34.12 L 63.48 34.13 L 63.10 34.73 C 62.21 36.24 61.43 37.81 60.63 39.37 L 60.19 39.37 C 58.60 39.42 57.01 39.51 55.42 39.64 C 56.31 40.40 57.19 41.15 58.09 41.88 L 58.76 42.39 C 60.15 43.60 61.87 44.29 63.59 44.91 C 63.86 45.07 64.39 45.40 64.65 45.56 C 65.09 46.23 65.51 46.92 65.92 47.62 C 63.90 48.30 61.89 49.00 59.88 49.72 C 58.16 49.77 57.78 52.28 59.71 52.38 C 61.72 53.12 63.75 53.82 65.79 54.49 C 66.20 53.87 67.02 52.64 67.43 52.03 L 67.92 51.29 L 67.58 50.64 C 67.46 50.42 67.22 49.99 67.11 49.77 L 66.81 49.23 C 70.64 49.88 74.87 51.58 78.59 49.63 C 85.17 45.08 93.68 43.40 99.33 37.58 C 98.58 37.64 97.08 37.76 96.33 37.82 C 95.86 37.91 94.93 38.10 94.47 38.20 L 93.74 38.42 C 93.56 38.31 93.18 38.08 92.99 37.96 C 92.81 36.87 92.68 35.78 92.53 34.68 C 96.55 33.73 100.54 32.62 104.50 31.43 C 106.04 31.06 107.44 30.33 108.81 29.55 L 109.40 29.25 C 113.57 27.13 117.75 24.81 122.41 23.98 C 120.77 26.05 118.86 27.91 116.77 29.54 C 117.59 26.10 113.45 27.75 115.47 30.18 L 114.57 30.39 C 112.80 30.18 112.80 32.34 114.36 32.62 C 115.43 33.47 116.72 34.40 118.17 34.10 L 119.17 33.99 L 118.83 34.63 C 118.08 36.21 117.39 37.81 116.70 39.41 L 116.22 39.38 C 114.62 39.44 113.02 39.52 111.43 39.63 C 112.31 40.39 113.19 41.15 114.09 41.88 L 114.75 42.39 C 116.15 43.60 117.86 44.30 119.58 44.91 C 119.85 45.06 120.40 45.38 120.68 45.53 C 121.10 46.17 121.50 46.83 121.89 47.50 C 119.86 48.25 117.84 49.03 115.86 49.90 C 114.56 50.60 114.52 51.39 115.73 52.29 C 118.26 52.54 120.82 52.58 123.36 52.37 L 124.09 51.86 L 123.79 51.16 C 123.62 50.82 123.29 50.14 123.12 49.80 L 122.77 49.12 C 126.91 49.35 131.04 49.57 135.18 49.73 C 135.53 49.75 136.23 49.78 136.57 49.80 C 141.57 45.39 147.20 41.62 154.11 41.25 C 153.76 39.70 153.40 38.16 153.03 36.62 C 151.87 37.17 150.71 37.72 149.56 38.28 C 149.31 38.39 148.82 38.63 148.58 38.75 L 148.69 38.04 C 148.87 36.89 149.06 35.74 149.15 34.59 C 153.08 34.30 157.25 33.80 160.38 31.15 C 162.30 29.85 163.86 28.12 165.49 26.50 C 164.88 26.28 163.64 25.83 163.03 25.61 C 159.51 24.33 155.85 23.21 152.08 23.18 C 149.72 23.80 147.84 25.47 145.83 26.76 L 144.91 27.21 C 144.62 27.13 144.02 26.97 143.73 26.89 C 139.48 25.58 135.41 23.79 131.21 22.36 C 128.57 22.00 125.93 22.34 123.34 22.83 C 123.75 20.88 124.01 18.84 125.04 17.10 C 128.25 14.65 132.50 14.03 136.42 13.80 C 142.69 13.48 148.88 12.36 155.15 12.01 C 156.76 12.07 158.38 12.14 160.00 12.19 C 163.49 12.23 166.99 12.31 170.47 12.59 C 166.24 8.56 159.81 9.23 155.22 5.67 C 159.31 5.84 163.41 6.12 167.48 6.49 C 167.70 5.62 167.92 4.74 168.14 3.86 C 163.24 3.54 157.99 3.40 154.10 0.00 M 144.28 18.03 C 142.77 14.69 138.45 18.95 136.43 18.40 C 138.40 18.95 140.35 19.71 142.40 19.89 C 144.80 20.63 147.23 21.22 149.70 21.66 C 151.54 21.78 155.21 22.00 157.05 22.12 C 157.37 20.65 157.66 19.18 157.95 17.70 C 157.30 17.64 156.01 17.51 155.36 17.44 C 151.94 14.51 147.50 15.09 144.28 18.03 M 158.71 18.60 C 165.57 18.76 173.28 17.92 178.82 22.75 C 175.04 24.85 170.93 26.27 166.69 27.09 C 168.33 28.07 170.01 29.00 171.63 30.00 L 171.10 30.35 C 170.18 31.52 169.27 32.70 168.38 33.88 C 170.41 33.82 172.45 33.73 174.49 33.62 L 175.17 34.02 L 175.44 34.36 C 174.47 35.95 173.52 37.55 172.61 39.16 L 172.06 38.40 C 170.39 39.32 168.78 40.31 167.24 41.42 C 168.06 41.60 169.72 41.97 170.54 42.15 L 171.41 42.31 C 171.26 44.06 174.04 44.83 175.45 44.44 C 175.73 44.66 176.30 45.09 176.59 45.30 C 176.99 46.06 177.39 46.82 177.81 47.57 C 175.77 48.30 173.75 49.05 171.76 49.90 C 168.75 48.25 168.95 53.74 172.01 52.13 C 171.70 52.61 171.09 53.55 170.78 54.02 C 173.90 53.82 177.03 53.59 180.16 53.35 C 179.78 53.11 179.02 52.64 178.64 52.41 C 178.99 52.15 179.67 51.64 180.01 51.39 C 179.76 50.98 179.26 50.16 179.01 49.75 L 178.58 48.97 C 182.36 50.13 186.88 51.95 190.62 49.80 C 196.96 46.66 202.42 41.35 209.92 41.21 C 209.96 40.18 209.98 39.14 209.98 38.11 C 208.66 37.43 207.35 36.74 206.04 36.08 C 206.17 36.66 206.43 37.84 206.56 38.43 C 205.86 38.10 205.16 37.75 204.47 37.40 L 205.35 37.86 C 205.15 36.64 204.94 35.43 204.72 34.22 C 205.81 34.47 206.91 34.71 208.01 34.95 C 212.79 36.98 217.86 38.11 222.93 39.19 C 220.94 37.43 219.00 35.63 217.20 33.68 C 215.66 33.63 214.13 33.57 212.60 33.51 C 214.26 32.85 215.86 31.96 217.15 30.70 C 216.86 32.79 220.76 31.99 219.37 30.29 C 220.60 29.48 221.83 28.67 223.06 27.86 C 222.75 27.38 222.14 26.42 221.83 25.94 C 220.97 26.35 220.11 26.76 219.25 27.17 C 214.96 22.12 206.00 20.90 202.04 26.95 L 201.09 27.44 C 200.70 27.35 199.91 27.17 199.51 27.08 C 195.53 25.21 191.28 24.04 187.14 22.60 C 187.04 22.08 186.84 21.03 186.74 20.51 C 184.22 21.45 181.63 22.32 179.33 23.74 C 180.16 21.59 180.90 19.40 181.74 17.25 C 177.93 18.98 173.71 18.97 169.97 16.78 C 166.17 14.88 162.26 17.29 158.71 18.60 M 200.28 18.03 C 198.78 14.69 194.44 18.95 192.43 18.40 C 194.40 18.95 196.35 19.71 198.40 19.89 C 200.80 20.63 203.23 21.22 205.70 21.66 C 207.54 21.78 211.21 22.00 213.05 22.12 C 213.37 20.65 213.66 19.18 213.95 17.70 C 213.30 17.64 212.01 17.51 211.36 17.44 C 207.94 14.51 203.50 15.09 200.28 18.03 M 161.12 33.42 C 159.33 34.21 157.55 34.99 155.76 35.77 C 159.53 36.55 163.32 37.28 167.09 38.07 C 165.07 36.55 163.08 35.01 161.12 33.42 M 155.79 43.80 C 153.05 44.52 150.20 43.95 147.43 43.77 C 149.98 45.01 152.56 46.36 155.37 46.90 C 157.47 46.75 159.41 45.81 161.40 45.19 C 161.06 43.21 160.80 41.22 160.62 39.22 C 159.11 40.83 157.82 42.81 155.79 43.80 M 145.13 43.95 C 144.92 44.23 144.52 44.80 144.31 45.08 C 145.16 48.22 148.48 43.42 145.13 43.95 M 163.99 44.22 C 163.65 46.02 167.35 46.02 167.01 44.22 C 166.42 43.16 164.57 43.16 163.99 44.22 Z" />
</g>
<g id="#3e80ceff">
<path fill="#3e80ce" opacity="1.00" d=" M 196.36 0.00 L 205.81 0.00 C 211.27 3.42 217.76 3.41 224.00 3.71 L 224.00 6.51 C 219.89 5.76 215.70 5.57 211.55 5.96 C 213.56 6.81 215.59 7.63 217.63 8.43 C 217.14 8.95 216.66 9.46 216.18 9.98 C 218.78 9.84 221.39 9.71 224.00 9.61 L 224.00 11.90 C 218.89 12.17 214.20 14.41 209.27 15.55 C 210.26 14.36 211.25 13.17 212.25 11.98 C 203.67 13.02 195.06 13.61 186.43 13.89 C 186.78 13.14 187.13 12.38 187.49 11.63 C 186.15 11.33 184.82 11.03 183.48 10.72 C 183.98 9.48 184.47 8.24 184.96 6.99 C 183.32 6.70 181.67 6.42 180.03 6.14 C 181.08 8.62 182.30 11.03 183.62 13.38 C 179.70 13.27 175.79 13.27 171.88 13.41 C 174.34 11.84 176.81 10.26 179.27 8.68 C 178.27 6.62 177.26 4.57 176.21 2.54 C 180.15 3.98 184.32 3.50 188.39 3.23 C 187.50 3.84 186.60 4.45 185.72 5.07 L 186.65 5.08 C 188.27 5.18 191.49 5.38 193.10 5.48 C 191.89 6.50 190.71 7.55 189.49 8.54 C 188.24 8.97 186.99 9.40 185.74 9.82 C 188.25 10.53 190.79 11.16 193.33 11.75 C 193.71 11.85 194.47 12.05 194.85 12.15 C 196.33 12.86 198.00 12.44 199.12 11.29 C 202.17 10.71 205.27 10.17 208.30 9.48 C 209.14 10.25 212.12 10.95 211.48 8.97 C 211.30 8.42 210.93 7.32 210.74 6.77 C 208.33 -0.22 199.12 -0.51 194.47 4.44 C 194.09 4.36 193.35 4.21 192.98 4.14 C 194.11 2.76 195.24 1.38 196.36 0.00 Z" />
</g>
<g id="#3c6abefe">
<path fill="#3c6abe" opacity="1.00" d=" M 205.81 0.00 L 224.00 0.00 L 224.00 3.71 C 217.76 3.41 211.27 3.42 205.81 0.00 Z" />
</g>
<g id="#268ed9ff">
<path fill="#268ed9" opacity="1.00" d=" M 30.17 1.17 C 31.80 0.65 32.35 1.20 31.83 2.83 C 30.20 3.35 29.65 2.80 30.17 1.17 Z" />
<path fill="#268ed9" opacity="1.00" d=" M 48.14 12.11 C 49.44 12.78 49.43 13.46 48.11 14.14 C 46.81 13.47 46.82 12.80 48.14 12.11 Z" />
<path fill="#268ed9" opacity="1.00" d=" M 142.08 56.00 C 140.59 53.39 145.41 53.39 143.92 56.00 L 142.08 56.00 Z" />
</g>
<g id="#4079cbff">
<path fill="#4079cb" opacity="1.00" d=" M 39.08 3.43 C 45.97 4.95 53.10 4.14 59.43 1.06 C 55.92 6.35 49.82 7.62 43.80 7.64 L 42.92 7.70 C 41.68 6.24 40.39 4.83 39.08 3.43 Z" />
</g>
<g id="#3c6abeff">
<path fill="#3c6abe" opacity="1.00" d=" M 82.43 4.51 C 85.73 2.40 89.19 -0.63 93.52 1.34 C 96.01 2.17 97.53 4.51 98.59 6.77 C 92.98 5.93 87.34 5.22 81.66 5.01 L 82.43 4.51 Z" />
<path fill="#3c6abe" opacity="1.00" d=" M 194.47 4.44 C 199.12 -0.51 208.33 -0.22 210.74 6.77 C 205.11 5.96 199.44 5.48 193.78 4.96 L 194.47 4.44 Z" />
</g>
<g id="#407dcbff">
<path fill="#407dcb" opacity="1.00" d=" M 120.71 1.38 C 124.90 3.27 129.40 2.68 133.80 2.32 C 132.68 3.03 131.55 3.73 130.45 4.48 C 130.53 4.64 130.70 4.96 130.78 5.12 L 131.16 5.77 C 131.71 7.55 133.71 7.87 135.21 7.09 C 134.86 7.38 134.14 7.97 133.78 8.27 C 130.72 9.78 133.51 12.23 135.84 11.09 L 136.56 11.01 C 142.76 11.21 148.95 11.65 155.15 12.01 C 148.88 12.36 142.69 13.48 136.42 13.80 C 132.50 14.03 128.25 14.65 125.04 17.10 C 124.01 18.84 123.75 20.88 123.34 22.83 C 123.03 23.21 122.72 23.60 122.41 23.98 C 117.75 24.81 113.57 27.13 109.40 29.25 C 108.64 28.46 107.89 27.66 107.10 26.89 C 106.76 26.57 106.08 25.94 105.74 25.62 C 111.86 27.25 117.40 23.54 122.67 21.04 C 115.72 16.93 107.29 18.78 100.50 22.33 L 99.77 22.25 C 98.26 22.08 95.24 21.75 93.72 21.58 L 94.41 21.57 L 95.21 21.52 C 97.40 22.03 98.48 19.95 97.44 18.18 L 97.49 17.19 C 97.95 17.32 98.86 17.58 99.32 17.71 C 104.26 20.55 109.30 15.98 114.43 16.62 C 121.05 18.49 126.72 14.43 132.30 11.57 C 131.83 11.54 130.90 11.48 130.44 11.45 C 130.16 10.33 130.06 8.80 128.79 8.34 C 127.20 7.48 125.54 6.74 123.90 5.99 C 125.06 7.47 126.25 8.94 127.49 10.35 C 127.82 10.64 128.47 11.22 128.80 11.51 C 124.57 11.71 120.36 12.16 116.18 12.79 C 118.21 11.06 120.45 9.55 122.25 7.58 C 122.40 5.40 121.45 3.37 120.71 1.38 Z" />
</g>
<g id="#4081cdff">
<path fill="#4081cd" opacity="1.00" d=" M 64.21 2.53 C 68.15 3.99 72.32 3.50 76.40 3.21 C 75.50 3.82 74.61 4.44 73.72 5.06 L 74.66 5.07 C 76.23 5.16 79.38 5.34 80.95 5.43 C 79.74 6.23 78.56 7.06 77.36 7.86 C 76.27 8.59 75.17 9.30 74.08 10.01 C 75.65 10.49 77.23 10.98 78.82 11.41 C 79.34 11.57 80.37 11.88 80.89 12.03 C 81.94 13.62 84.14 13.45 84.85 11.65 C 85.48 11.59 86.73 11.47 87.35 11.41 C 91.36 11.56 95.36 11.83 99.36 12.02 C 91.06 12.78 82.78 13.76 74.43 13.90 C 74.78 13.14 75.13 12.39 75.49 11.64 C 74.15 11.33 72.82 11.03 71.48 10.72 C 71.98 9.48 72.47 8.24 72.96 6.99 C 71.32 6.70 69.67 6.42 68.03 6.14 C 69.08 8.62 70.30 11.03 71.62 13.38 C 67.70 13.27 63.79 13.27 59.88 13.41 C 62.34 11.84 64.81 10.26 67.27 8.68 C 66.28 6.62 65.26 4.57 64.21 2.53 Z" />
</g>
<g id="#7b7654ff">
<path fill="#7b7654" opacity="1.00" d=" M 18.75 3.31 C 21.22 3.64 23.62 4.30 26.05 4.84 C 23.63 4.72 21.21 4.81 18.79 4.94 C 18.78 4.53 18.76 3.72 18.75 3.31 Z" />
<path fill="#7b7654" opacity="1.00" d=" M 76.40 3.21 C 77.94 3.47 79.45 3.83 80.97 4.19 C 81.33 4.27 82.07 4.43 82.43 4.51 C 79.84 4.73 77.26 4.95 74.66 5.07 L 73.72 5.06 C 74.61 4.44 75.50 3.82 76.40 3.21 Z" />
<path fill="#7b7654" opacity="1.00" d=" M 130.45 4.48 C 131.55 3.73 132.68 3.03 133.80 2.32 C 135.10 3.24 136.34 4.22 137.61 5.18 C 135.34 4.96 133.05 5.01 130.78 5.12 C 130.70 4.96 130.53 4.64 130.45 4.48 Z" />
<path fill="#7b7654" opacity="1.00" d=" M 188.39 3.23 C 189.94 3.47 191.46 3.81 192.98 4.14 C 193.35 4.21 194.09 4.36 194.47 4.44 C 191.86 4.68 189.26 4.94 186.65 5.08 L 185.72 5.07 C 186.60 4.45 187.50 3.84 188.39 3.23 Z" />
</g>
<g id="#97c270ff">
<path fill="#97c270" opacity="1.00" d=" M 18.79 4.94 C 21.21 4.81 23.63 4.72 26.05 4.84 L 26.70 4.91 L 25.62 5.12 C 23.36 5.55 21.10 5.93 18.85 6.43 L 18.79 4.94 Z" />
<path fill="#97c270" opacity="1.00" d=" M 74.66 5.07 C 77.26 4.95 79.84 4.73 82.43 4.51 L 81.66 5.01 L 80.95 5.43 C 79.38 5.34 76.23 5.16 74.66 5.07 Z" />
<path fill="#97c270" opacity="1.00" d=" M 130.78 5.12 C 133.05 5.01 135.34 4.96 137.61 5.18 L 138.14 5.57 L 136.91 5.67 C 134.99 5.68 133.07 5.70 131.16 5.77 L 130.78 5.12 Z" />
<path fill="#97c270" opacity="1.00" d=" M 186.65 5.08 C 189.26 4.94 191.86 4.68 194.47 4.44 L 193.78 4.96 L 193.10 5.48 C 191.49 5.38 188.27 5.18 186.65 5.08 Z" />
<path fill="#97c270" opacity="1.00" d=" M 12.76 33.24 C 14.28 32.96 15.79 32.67 17.30 32.38 C 15.55 33.75 13.78 35.09 12.00 36.41 C 12.19 35.62 12.57 34.03 12.76 33.24 Z" />
<path fill="#97c270" opacity="1.00" d=" M 68.76 33.22 C 70.28 32.96 71.79 32.67 73.30 32.39 C 71.55 33.75 69.79 35.10 68.00 36.41 C 68.19 35.62 68.57 34.02 68.76 33.22 Z" />
<path fill="#97c270" opacity="1.00" d=" M 124.77 33.19 C 126.28 32.95 127.79 32.68 129.30 32.42 C 127.54 33.77 125.78 35.10 124.00 36.41 C 124.19 35.61 124.58 33.99 124.77 33.19 Z" />
<path fill="#97c270" opacity="1.00" d=" M 181.03 33.33 C 182.42 33.04 183.79 32.67 185.16 32.32 C 183.46 33.70 181.74 35.08 180.11 36.55 C 180.34 35.74 180.80 34.13 181.03 33.33 Z" />
</g>
<g id="#238fddff">
<path fill="#238fdd" opacity="1.00" d=" M 8.61 5.05 C 11.50 5.24 14.39 5.47 17.27 5.76 C 16.94 6.04 16.26 6.61 15.92 6.89 C 15.16 6.72 13.64 6.38 12.88 6.21 C 12.69 6.16 12.30 6.06 12.10 6.01 C 11.23 5.77 9.48 5.29 8.61 5.05 Z" />
</g>
<g id="#7b7454ff">
<path fill="#7b7454" opacity="1.00" d=" M 26.70 4.91 C 32.16 5.51 37.58 6.45 42.92 7.70 L 43.29 8.62 C 42.87 8.52 42.03 8.31 41.61 8.20 C 39.12 7.64 36.64 6.86 34.06 6.79 C 31.95 6.88 29.86 7.15 27.78 7.54 C 27.22 7.64 26.11 7.86 25.55 7.96 C 24.11 8.23 22.68 8.57 21.24 8.88 C 22.69 7.62 24.13 6.35 25.62 5.12 L 26.70 4.91 Z" />
<path fill="#7b7454" opacity="1.00" d=" M 81.66 5.01 C 87.34 5.22 92.98 5.93 98.59 6.77 C 98.75 7.36 99.07 8.54 99.23 9.13 C 98.78 8.92 97.88 8.51 97.43 8.30 C 95.04 7.58 92.60 6.78 90.08 6.76 C 87.96 6.89 85.87 7.22 83.78 7.60 C 83.22 7.69 82.09 7.89 81.53 7.99 C 80.33 8.15 79.12 8.31 77.92 8.42 L 77.36 7.86 C 78.56 7.06 79.74 6.23 80.95 5.43 L 81.66 5.01 Z" />
<path fill="#7b7454" opacity="1.00" d=" M 138.14 5.57 C 143.66 5.26 149.18 5.90 154.61 6.82 C 154.75 7.41 155.03 8.58 155.17 9.17 C 154.73 8.97 153.85 8.58 153.41 8.38 C 151.03 7.64 148.61 6.79 146.09 6.78 C 143.96 6.90 141.86 7.20 139.76 7.56 C 139.19 7.65 138.06 7.83 137.49 7.93 C 136.43 8.03 135.38 8.15 134.32 8.23 L 133.78 8.27 C 134.14 7.97 134.86 7.38 135.21 7.09 C 135.64 6.73 136.48 6.02 136.91 5.67 L 138.14 5.57 Z" />
<path fill="#7b7454" opacity="1.00" d=" M 193.78 4.96 C 199.44 5.48 205.11 5.96 210.74 6.77 C 210.93 7.32 211.30 8.42 211.48 8.97 C 211.05 8.87 210.20 8.65 209.77 8.55 C 207.23 7.90 204.72 6.97 202.08 6.83 C 199.95 6.88 197.84 7.12 195.74 7.44 C 195.19 7.53 194.07 7.70 193.51 7.79 C 192.29 7.97 191.07 8.19 189.87 8.45 L 189.49 8.54 C 190.71 7.55 191.89 6.50 193.10 5.48 L 193.78 4.96 Z" />
</g>
<g id="#437acaff">
<path fill="#437aca" opacity="1.00" d=" M 12.10 6.01 C 12.30 6.06 12.69 6.16 12.88 6.21 C 13.12 9.05 14.20 11.69 15.52 14.19 C 11.77 14.21 8.02 14.30 4.29 14.64 C 7.18 12.04 10.04 9.34 12.10 6.01 Z" />
</g>
<g id="#adc2d9ff">
<path fill="#adc2d9" opacity="1.00" d=" M 15.92 6.89 C 16.26 6.61 16.94 6.04 17.27 5.76 C 17.67 5.92 18.46 6.26 18.85 6.43 C 18.51 6.68 17.83 7.16 17.48 7.41 C 17.09 7.28 16.31 7.02 15.92 6.89 Z" />
<path fill="#adc2d9" opacity="1.00" d=" M 40.94 8.51 L 41.61 8.20 C 42.03 8.31 42.87 8.52 43.29 8.62 C 44.47 10.89 40.48 10.70 40.94 8.51 Z" />
<path fill="#adc2d9" opacity="1.00" d=" M 96.71 8.46 L 97.43 8.30 C 97.88 8.51 98.78 8.92 99.23 9.13 C 99.29 9.51 99.41 10.28 99.47 10.66 C 98.27 10.48 96.77 9.89 96.71 8.46 Z" />
<path fill="#adc2d9" opacity="1.00" d=" M 152.69 8.54 L 153.41 8.38 C 153.85 8.58 154.73 8.97 155.17 9.17 C 155.23 9.54 155.34 10.29 155.40 10.66 C 154.17 10.66 152.67 9.96 152.69 8.54 Z" />
<path fill="#adc2d9" opacity="1.00" d=" M 208.80 8.88 L 209.77 8.55 C 210.20 8.65 211.05 8.87 211.48 8.97 C 212.12 10.95 209.14 10.25 208.30 9.48 L 208.80 8.88 Z" />
<path fill="#adc2d9" opacity="1.00" d=" M 139.09 10.61 C 139.80 10.40 141.23 9.98 141.94 9.77 C 142.02 11.43 139.96 11.90 139.09 10.61 Z" />
<path fill="#adc2d9" opacity="1.00" d=" M 78.82 11.41 C 79.24 11.37 80.08 11.29 80.49 11.25 C 80.84 11.21 81.54 11.13 81.89 11.09 C 83.71 11.15 85.53 11.29 87.35 11.41 C 86.73 11.47 85.48 11.59 84.85 11.65 C 83.51 11.52 82.19 11.65 80.89 12.03 C 80.37 11.88 79.34 11.57 78.82 11.41 Z" />
<path fill="#adc2d9" opacity="1.00" d=" M 194.85 12.15 C 195.96 10.94 197.63 10.69 199.12 11.29 C 198.00 12.44 196.33 12.86 194.85 12.15 Z" />
<path fill="#adc2d9" opacity="1.00" d=" M 36.91 22.68 C 33.96 20.34 38.85 19.75 38.44 22.75 C 38.06 22.73 37.29 22.69 36.91 22.68 Z" />
<path fill="#adc2d9" opacity="1.00" d=" M 91.83 29.78 L 92.31 29.36 C 93.48 30.00 94.59 30.75 95.66 31.53 C 94.42 31.86 93.21 31.80 92.03 31.36 C 91.98 30.97 91.88 30.18 91.83 29.78 Z" />
<path fill="#adc2d9" opacity="1.00" d=" M 147.63 30.15 L 148.02 29.75 C 149.19 29.81 150.33 30.14 151.45 30.46 C 151.16 30.78 150.56 31.41 150.27 31.72 C 149.77 31.66 148.76 31.53 148.26 31.47 C 148.11 31.14 147.79 30.48 147.63 30.15 Z" />
<path fill="#adc2d9" opacity="1.00" d=" M 203.91 29.84 L 204.38 29.36 C 205.54 30.00 206.64 30.74 207.71 31.51 C 206.50 31.85 205.31 31.83 204.15 31.43 C 204.09 31.03 203.97 30.24 203.91 29.84 Z" />
<path fill="#adc2d9" opacity="1.00" d=" M 4.47 32.17 C 4.26 34.59 1.03 32.69 3.04 31.31 C 3.39 31.53 4.11 31.95 4.47 32.17 Z" />
<path fill="#adc2d9" opacity="1.00" d=" M 60.43 32.17 C 60.31 34.80 57.40 32.66 59.04 31.10 C 59.38 31.37 60.08 31.91 60.43 32.17 Z" />
<path fill="#adc2d9" opacity="1.00" d=" M 172.36 32.19 C 172.52 34.79 169.36 33.00 170.84 31.28 C 171.22 31.51 171.98 31.96 172.36 32.19 Z" />
<path fill="#adc2d9" opacity="1.00" d=" M 34.60 39.80 L 35.20 39.44 C 35.85 39.72 37.16 40.29 37.81 40.57 L 37.71 41.17 C 36.51 41.71 34.86 41.19 34.60 39.80 Z" />
<path fill="#adc2d9" opacity="1.00" d=" M 71.07 47.79 C 72.37 47.60 73.28 48.13 73.82 49.38 C 72.32 49.73 71.40 49.20 71.07 47.79 Z" />
<path fill="#adc2d9" opacity="1.00" d=" M 182.99 48.02 C 183.68 48.01 185.07 47.99 185.77 47.97 C 185.89 49.86 183.46 49.29 182.99 48.02 Z" />
</g>
<g id="#2a95e7ff">
<path fill="#2a95e7" opacity="1.00" d=" M 18.85 6.43 C 21.10 5.93 23.36 5.55 25.62 5.12 C 24.13 6.35 22.69 7.62 21.24 8.88 C 22.00 9.67 22.78 10.45 23.56 11.21 C 25.60 11.99 27.72 12.51 29.83 13.08 C 24.68 12.93 19.72 11.53 14.77 10.27 C 16.92 9.66 19.06 9.07 21.22 8.49 C 19.97 8.13 18.73 7.77 17.48 7.41 C 17.83 7.16 18.51 6.68 18.85 6.43 Z" />
</g>
<g id="#a4d84eff">
<path fill="#a4d84e" opacity="1.00" d=" M 27.78 7.54 C 29.86 7.15 31.95 6.88 34.06 6.79 C 31.96 6.93 29.86 7.21 27.78 7.54 Z" />
<path fill="#a4d84e" opacity="1.00" d=" M 83.78 7.60 C 85.87 7.22 87.96 6.89 90.08 6.76 C 87.97 6.94 85.87 7.26 83.78 7.60 Z" />
<path fill="#a4d84e" opacity="1.00" d=" M 139.76 7.56 C 141.86 7.20 143.96 6.90 146.09 6.78 C 143.97 6.94 141.86 7.25 139.76 7.56 Z" />
<path fill="#a4d84e" opacity="1.00" d=" M 195.74 7.44 C 197.84 7.12 199.95 6.88 202.08 6.83 C 199.96 6.93 197.85 7.17 195.74 7.44 Z" />
<path fill="#a4d84e" opacity="1.00" d=" M 15.73 22.06 C 16.41 22.08 17.79 22.13 18.48 22.15 C 17.88 22.54 16.67 23.33 16.07 23.72 C 15.99 23.30 15.81 22.47 15.73 22.06 Z" />
<path fill="#a4d84e" opacity="1.00" d=" M 71.73 22.05 C 72.41 22.08 73.79 22.14 74.47 22.17 C 73.87 22.55 72.67 23.33 72.07 23.72 C 71.98 23.30 71.81 22.47 71.73 22.05 Z" />
<path fill="#a4d84e" opacity="1.00" d=" M 127.69 22.16 C 128.34 22.13 129.65 22.06 130.30 22.03 C 129.77 22.47 128.71 23.36 128.18 23.80 C 128.06 23.39 127.81 22.57 127.69 22.16 Z" />
<path fill="#a4d84e" opacity="1.00" d=" M 183.60 22.33 C 184.26 22.31 185.57 22.27 186.23 22.25 C 185.70 22.68 184.64 23.53 184.11 23.96 C 183.98 23.55 183.73 22.74 183.60 22.33 Z" />
<path fill="#a4d84e" opacity="1.00" d=" M 12.17 24.17 C 13.80 23.65 14.35 24.20 13.83 25.83 C 12.20 26.35 11.65 25.80 12.17 24.17 Z" />
<path fill="#a4d84e" opacity="1.00" d=" M 68.17 24.17 C 69.80 23.65 70.35 24.20 69.83 25.83 C 68.20 26.35 67.65 25.80 68.17 24.17 Z" />
<path fill="#a4d84e" opacity="1.00" d=" M 124.17 24.17 C 125.80 23.65 126.35 24.20 125.83 25.83 C 124.20 26.35 123.65 25.80 124.17 24.17 Z" />
<path fill="#a4d84e" opacity="1.00" d=" M 180.17 24.17 C 181.79 23.65 182.35 24.20 181.83 25.83 C 180.20 26.35 179.65 25.80 180.17 24.17 Z" />
<path fill="#a4d84e" opacity="1.00" d=" M 10.07 29.10 C 10.45 29.34 11.20 29.81 11.58 30.04 L 11.06 30.54 C 9.67 31.70 7.96 29.56 10.07 29.10 Z" />
<path fill="#a4d84e" opacity="1.00" d=" M 66.07 29.10 C 66.45 29.34 67.21 29.81 67.59 30.04 L 67.07 30.54 C 65.67 31.69 63.96 29.56 66.07 29.10 Z" />
<path fill="#a4d84e" opacity="1.00" d=" M 122.07 29.09 C 122.45 29.32 123.21 29.78 123.59 30.01 L 123.07 30.51 C 121.68 31.69 119.96 29.56 122.07 29.09 Z" />
<path fill="#a4d84e" opacity="1.00" d=" M 178.06 29.10 C 178.44 29.33 179.20 29.80 179.58 30.03 L 179.07 30.53 C 177.68 31.70 175.96 29.57 178.06 29.10 Z" />
</g>
<g id="#93bc71ff">
<path fill="#93bc71" opacity="1.00" d=" M 34.06 6.79 C 36.64 6.86 39.12 7.64 41.61 8.20 L 40.94 8.51 L 39.87 8.99 C 37.34 9.37 34.80 9.52 32.25 9.66 C 30.02 9.07 27.79 8.51 25.55 7.96 C 26.11 7.86 27.22 7.64 27.78 7.54 C 29.86 7.21 31.96 6.93 34.06 6.79 Z" />
<path fill="#93bc71" opacity="1.00" d=" M 90.08 6.76 C 92.60 6.78 95.04 7.58 97.43 8.30 L 96.71 8.46 C 93.92 9.06 91.09 9.44 88.26 9.77 C 86.02 9.15 83.78 8.56 81.53 7.99 C 82.09 7.89 83.22 7.69 83.78 7.60 C 85.87 7.26 87.97 6.94 90.08 6.76 Z" />
<path fill="#93bc71" opacity="1.00" d=" M 146.09 6.78 C 148.61 6.79 151.03 7.64 153.41 8.38 L 152.69 8.54 C 149.85 9.16 146.96 9.50 144.06 9.62 C 141.87 9.04 139.68 8.47 137.49 7.93 C 138.06 7.83 139.19 7.65 139.76 7.56 C 141.86 7.25 143.97 6.94 146.09 6.78 Z" />
<path fill="#93bc71" opacity="1.00" d=" M 202.08 6.83 C 204.72 6.97 207.23 7.90 209.77 8.55 L 208.80 8.88 C 205.96 9.33 203.08 9.46 200.21 9.55 C 197.98 8.95 195.74 8.36 193.51 7.79 C 194.07 7.70 195.19 7.53 195.74 7.44 C 197.85 7.17 199.96 6.93 202.08 6.83 Z" />
</g>
<g id="#3b6bbefe">
<path fill="#3b6bbe" opacity="1.00" d=" M 123.90 5.99 C 125.54 6.74 127.20 7.48 128.79 8.34 C 128.47 8.84 127.82 9.85 127.49 10.35 C 126.25 8.94 125.06 7.47 123.90 5.99 Z" />
</g>
<g id="#2290eafe">
<path fill="#2290ea" opacity="1.00" d=" M 131.16 5.77 C 133.07 5.70 134.99 5.68 136.91 5.67 C 136.48 6.02 135.64 6.73 135.21 7.09 C 133.71 7.87 131.71 7.55 131.16 5.77 Z" />
</g>
<g id="#c1c682ff">
<path fill="#c1c682" opacity="1.00" d=" M 21.24 8.88 C 22.68 8.57 24.11 8.23 25.55 7.96 C 27.79 8.51 30.02 9.07 32.25 9.66 C 29.63 10.18 27.01 10.68 24.39 11.16 L 23.56 11.21 C 22.78 10.45 22.00 9.67 21.24 8.88 Z" />
<path fill="#c1c682" opacity="1.00" d=" M 77.92 8.42 C 79.12 8.31 80.33 8.15 81.53 7.99 C 83.78 8.56 86.02 9.15 88.26 9.77 C 86.67 10.10 83.48 10.76 81.89 11.09 C 81.54 11.13 80.84 11.21 80.49 11.25 C 79.64 10.30 78.78 9.35 77.92 8.42 Z" />
<path fill="#c1c682" opacity="1.00" d=" M 134.32 8.23 C 135.38 8.15 136.43 8.03 137.49 7.93 C 139.68 8.47 141.87 9.04 144.06 9.62 C 143.53 9.65 142.47 9.73 141.94 9.77 C 141.23 9.98 139.80 10.40 139.09 10.61 C 138.45 10.71 137.19 10.91 136.56 11.01 L 135.84 11.09 C 135.39 10.11 134.88 9.15 134.32 8.23 Z" />
<path fill="#c1c682" opacity="1.00" d=" M 189.87 8.45 C 191.07 8.19 192.29 7.97 193.51 7.79 C 195.74 8.36 197.98 8.95 200.21 9.55 C 197.68 10.05 195.15 10.59 192.64 11.15 C 191.69 10.27 190.78 9.36 189.87 8.45 Z" />
</g>
<g id="#238fdeff">
<path fill="#238fde" opacity="1.00" d=" M 42.92 7.70 L 43.80 7.64 C 45.37 7.60 48.52 7.52 50.09 7.48 C 49.05 8.43 48.00 9.38 46.96 10.33 C 46.32 10.91 45.69 11.49 45.03 12.04 C 40.46 12.33 35.89 12.70 31.31 13.01 C 31.95 12.71 33.22 12.10 33.85 11.80 C 35.86 10.86 37.86 9.92 39.87 8.99 L 40.94 8.51 C 40.48 10.70 44.47 10.89 43.29 8.62 L 42.92 7.70 Z" />
</g>
<g id="#119cffff">
<path fill="#119cff" opacity="1.00" d=" M 74.08 10.01 C 75.17 9.30 76.27 8.59 77.36 7.86 L 77.92 8.42 C 78.78 9.35 79.64 10.30 80.49 11.25 C 80.08 11.29 79.24 11.37 78.82 11.41 C 77.23 10.98 75.65 10.49 74.08 10.01 Z" />
<path fill="#119cff" opacity="1.00" d=" M 80.89 12.03 C 82.19 11.65 83.51 11.52 84.85 11.65 C 84.14 13.45 81.94 13.62 80.89 12.03 Z" />
<path fill="#119cff" opacity="1.00" d=" M 86.41 19.65 C 86.52 18.09 88.30 17.55 89.56 18.18 L 89.40 18.95 L 88.69 19.55 C 88.12 19.57 86.98 19.62 86.41 19.65 Z" />
<path fill="#119cff" opacity="1.00" d=" M 91.42 19.63 C 92.90 19.42 94.19 19.80 95.27 20.77 L 95.21 21.52 L 94.41 21.57 C 93.27 21.15 92.28 20.50 91.42 19.63 Z" />
<path fill="#119cff" opacity="1.00" d=" M 147.45 19.94 C 148.92 19.62 150.22 19.91 151.34 20.82 L 151.27 21.57 L 150.45 21.65 C 149.32 21.31 148.32 20.74 147.45 19.94 Z" />
<path fill="#119cff" opacity="1.00" d=" M 203.45 19.94 C 204.92 19.62 206.22 19.91 207.34 20.82 L 207.27 21.57 L 206.45 21.65 C 205.32 21.31 204.32 20.74 203.45 19.94 Z" />
<path fill="#119cff" opacity="1.00" d=" M 32.52 27.35 C 34.09 27.66 35.65 29.05 35.22 30.79 L 34.57 30.80 C 33.36 30.04 32.70 28.73 32.52 27.35 Z" />
<path fill="#119cff" opacity="1.00" d=" M 88.36 27.10 C 89.86 27.48 91.15 28.37 92.31 29.36 L 91.83 29.78 C 90.10 30.16 88.53 28.79 88.36 27.10 Z" />
<path fill="#119cff" opacity="1.00" d=" M 144.42 27.12 C 145.90 27.48 147.41 28.25 148.02 29.75 L 147.63 30.15 C 145.95 30.09 144.74 28.67 144.42 27.12 Z" />
<path fill="#119cff" opacity="1.00" d=" M 200.04 27.32 C 201.62 27.68 203.13 28.30 204.38 29.36 L 203.91 29.84 C 202.09 30.33 200.72 28.80 200.04 27.32 Z" />
<path fill="#119cff" opacity="1.00" d=" M 0.49 32.83 C 1.29 32.25 2.88 31.09 3.68 30.51 L 3.04 31.31 C 1.03 32.69 4.26 34.59 4.47 32.17 C 4.98 32.63 6.00 33.55 6.51 34.02 C 4.50 33.64 2.51 33.18 0.49 32.83 Z" />
<path fill="#119cff" opacity="1.00" d=" M 56.14 33.68 C 57.20 32.50 58.27 31.33 59.38 30.21 L 59.04 31.10 C 57.40 32.66 60.31 34.80 60.43 32.17 C 60.96 32.66 62.00 33.63 62.53 34.12 C 60.40 34.03 58.27 33.85 56.14 33.68 Z" />
<path fill="#119cff" opacity="1.00" d=" M 114.36 32.62 C 112.80 32.34 112.80 30.18 114.57 30.39 L 115.17 31.05 C 114.96 31.45 114.56 32.23 114.36 32.62 Z" />
<path fill="#119cff" opacity="1.00" d=" M 150.27 31.72 C 150.56 31.41 151.16 30.78 151.45 30.46 C 153.06 30.41 154.77 30.91 155.76 32.26 C 154.38 32.13 151.64 31.86 150.27 31.72 Z" />
<path fill="#119cff" opacity="1.00" d=" M 168.38 33.88 C 169.27 32.70 170.18 31.52 171.10 30.35 L 170.84 31.28 C 169.36 33.00 172.52 34.79 172.36 32.19 C 172.89 32.55 173.96 33.26 174.49 33.62 C 172.45 33.73 170.41 33.82 168.38 33.88 Z" />
<path fill="#119cff" opacity="1.00" d=" M 9.58 47.47 C 10.73 46.71 12.28 47.33 12.79 48.56 L 12.55 49.09 C 12.07 49.02 11.12 48.86 10.64 48.79 C 10.38 48.46 9.85 47.80 9.58 47.47 Z" />
<path fill="#119cff" opacity="1.00" d=" M 0.27 51.75 C 1.28 51.24 2.28 50.74 3.29 50.25 C 6.39 51.05 9.59 51.15 12.77 51.03 C 13.08 51.35 13.70 52.00 14.02 52.32 C 9.43 52.33 4.85 52.07 0.27 51.75 Z" />
<path fill="#119cff" opacity="1.00" d=" M 59.71 52.38 C 57.78 52.28 58.16 49.77 59.88 49.72 C 60.01 50.36 60.25 51.64 60.37 52.28 L 59.71 52.38 Z" />
<path fill="#119cff" opacity="1.00" d=" M 115.73 52.29 C 114.52 51.39 114.56 50.60 115.86 49.90 C 116.01 50.49 116.30 51.67 116.45 52.26 L 115.73 52.29 Z" />
<path fill="#119cff" opacity="1.00" d=" M 172.01 52.13 C 168.95 53.74 168.75 48.25 171.76 49.90 C 171.90 50.35 172.17 51.24 172.30 51.68 L 172.01 52.13 Z" />
<path fill="#119cff" opacity="1.00" d=" M 65.61 52.22 C 65.60 50.94 66.25 50.42 67.58 50.64 L 67.92 51.29 L 67.43 52.03 C 66.98 52.07 66.06 52.17 65.61 52.22 Z" />
<path fill="#119cff" opacity="1.00" d=" M 121.49 52.35 C 121.72 51.04 122.48 50.64 123.79 51.16 L 124.09 51.86 L 123.36 52.37 C 122.89 52.37 121.96 52.36 121.49 52.35 Z" />
<path fill="#119cff" opacity="1.00" d=" M 177.04 51.43 C 178.08 50.69 179.07 50.67 180.01 51.39 C 179.67 51.64 178.99 52.15 178.64 52.41 C 178.24 52.16 177.44 51.68 177.04 51.43 Z" />
</g>
<g id="#119cfefe">
<path fill="#119cfe" opacity="1.00" d=" M 135.84 11.09 C 133.51 12.23 130.72 9.78 133.78 8.27 L 134.32 8.23 C 134.88 9.15 135.39 10.11 135.84 11.09 Z" />
</g>
<g id="#29a1f9ff">
<path fill="#29a1f9" opacity="1.00" d=" M 185.74 9.82 C 186.99 9.40 188.24 8.97 189.49 8.54 L 189.87 8.45 C 190.78 9.36 191.69 10.27 192.64 11.15 L 193.33 11.75 C 190.79 11.16 188.25 10.53 185.74 9.82 Z" />
</g>
<g id="#26a0f8ff">
<path fill="#26a0f8" opacity="1.00" d=" M 32.25 9.66 C 34.80 9.52 37.34 9.37 39.87 8.99 C 37.86 9.92 35.86 10.86 33.85 11.80 C 30.69 11.66 27.55 11.33 24.39 11.16 C 27.01 10.68 29.63 10.18 32.25 9.66 Z" />
</g>
<g id="#2a99eaff">
<path fill="#2a99ea" opacity="1.00" d=" M 88.26 9.77 C 91.09 9.44 93.92 9.06 96.71 8.46 C 96.77 9.89 98.27 10.48 99.47 10.66 C 101.12 11.09 102.75 11.58 104.39 12.07 C 103.01 12.07 101.64 12.06 100.27 12.04 L 99.36 12.02 C 95.36 11.83 91.36 11.56 87.35 11.41 C 85.53 11.29 83.71 11.15 81.89 11.09 C 83.48 10.76 86.67 10.10 88.26 9.77 Z" />
</g>
<g id="#2390e3ff">
<path fill="#2390e3" opacity="1.00" d=" M 127.49 10.35 C 127.82 9.85 128.47 8.84 128.79 8.34 C 130.06 8.80 130.16 10.33 130.44 11.45 C 130.03 11.47 129.21 11.49 128.80 11.51 C 128.47 11.22 127.82 10.64 127.49 10.35 Z" />
</g>
<g id="#2898eaff">
<path fill="#2898ea" opacity="1.00" d=" M 144.06 9.62 C 146.96 9.50 149.85 9.16 152.69 8.54 C 152.67 9.96 154.17 10.66 155.40 10.66 C 157.21 10.91 159.02 11.18 160.83 11.43 C 160.62 11.62 160.21 12.00 160.00 12.19 C 158.38 12.14 156.76 12.07 155.15 12.01 C 148.95 11.65 142.76 11.21 136.56 11.01 C 137.19 10.91 138.45 10.71 139.09 10.61 C 139.96 11.90 142.02 11.43 141.94 9.77 C 142.47 9.73 143.53 9.65 144.06 9.62 Z" />
</g>
<g id="#29a1f7ff">
<path fill="#29a1f7" opacity="1.00" d=" M 200.21 9.55 C 203.08 9.46 205.96 9.33 208.80 8.88 L 208.30 9.48 C 205.27 10.17 202.17 10.71 199.12 11.29 C 197.63 10.69 195.96 10.94 194.85 12.15 C 194.47 12.05 193.71 11.85 193.33 11.75 L 192.64 11.15 C 195.15 10.59 197.68 10.05 200.21 9.55 Z" />
</g>
<g id="#457acbff">
<path fill="#457acb" opacity="1.00" d=" M 45.03 12.04 C 45.69 11.49 46.32 10.91 46.96 10.33 C 50.65 10.54 54.35 10.76 58.04 11.04 C 57.88 11.57 57.57 12.64 57.41 13.17 C 52.17 13.86 47.04 15.15 41.88 16.26 C 41.36 15.93 40.34 15.28 39.83 14.95 C 41.68 14.21 43.45 13.27 45.03 12.04 M 48.14 12.11 C 46.82 12.80 46.81 13.47 48.11 14.14 C 49.43 13.46 49.44 12.78 48.14 12.11 Z" />
</g>
<g id="#a1bdd9ff">
<path fill="#a1bdd9" opacity="1.00" d=" M 29.83 13.08 C 27.72 12.51 25.60 11.99 23.56 11.21 L 24.39 11.16 C 27.55 11.33 30.69 11.66 33.85 11.80 C 33.22 12.10 31.95 12.71 31.31 13.01 C 30.94 13.03 30.20 13.06 29.83 13.08 Z" />
</g>
<g id="#7e7c57ff">
<path fill="#7e7c57" opacity="1.00" d=" M 32.70 17.75 C 34.99 16.61 37.45 15.86 39.83 14.95 C 40.34 15.28 41.36 15.93 41.88 16.26 C 42.21 16.64 42.87 17.41 43.21 17.79 C 42.83 17.76 42.07 17.68 41.70 17.65 C 38.70 17.22 35.70 17.66 32.77 18.28 L 32.70 17.75 Z" />
<path fill="#7e7c57" opacity="1.00" d=" M 91.36 15.51 C 94.15 15.63 96.78 16.63 99.32 17.71 C 98.86 17.58 97.95 17.32 97.49 17.19 C 94.66 16.69 91.81 17.46 89.40 18.95 L 89.56 18.18 C 90.15 17.29 90.76 16.40 91.36 15.51 Z" />
<path fill="#7e7c57" opacity="1.00" d=" M 144.28 18.03 C 147.50 15.09 151.94 14.51 155.36 17.44 C 154.87 17.41 153.87 17.34 153.38 17.30 C 150.44 17.02 147.58 17.85 144.82 18.73 L 144.28 18.03 Z" />
<path fill="#7e7c57" opacity="1.00" d=" M 200.28 18.03 C 203.50 15.09 207.94 14.51 211.36 17.44 C 210.87 17.41 209.87 17.34 209.38 17.30 C 206.44 17.02 203.58 17.85 200.82 18.73 L 200.28 18.03 Z" />
</g>
<g id="#427bcafe">
<path fill="#427bca" opacity="1.00" d=" M 77.93 17.56 C 82.47 17.32 86.91 16.34 91.36 15.51 C 90.76 16.40 90.15 17.29 89.56 18.18 C 88.30 17.55 86.52 18.09 86.41 19.65 C 86.31 19.98 86.12 20.63 86.03 20.96 C 85.70 22.14 85.39 23.31 85.08 24.50 C 86.36 25.29 87.63 26.09 88.93 26.87 L 89.96 27.47 C 89.41 27.33 88.31 27.05 87.77 26.91 C 86.18 26.41 84.62 25.85 83.06 25.27 C 83.42 23.57 83.77 21.87 84.12 20.17 C 82.06 19.29 79.99 18.43 77.93 17.56 Z" />
<path fill="#427bca" opacity="1.00" d=" M 207.10 33.38 C 208.48 33.41 211.22 33.48 212.60 33.51 C 214.13 33.57 215.66 33.63 217.20 33.68 C 219.00 35.63 220.94 37.43 222.93 39.19 C 217.86 38.11 212.79 36.98 208.01 34.95 C 207.78 34.56 207.33 33.77 207.10 33.38 Z" />
</g>
<g id="#4178c9ff">
<path fill="#4178c9" opacity="1.00" d=" M 158.71 18.60 C 162.26 17.29 166.17 14.88 169.97 16.78 C 173.71 18.97 177.93 18.98 181.74 17.25 C 180.90 19.40 180.16 21.59 179.33 23.74 C 176.99 26.09 174.42 28.20 171.63 30.00 C 170.01 29.00 168.33 28.07 166.69 27.09 C 170.93 26.27 175.04 24.85 178.82 22.75 C 173.28 17.92 165.57 18.76 158.71 18.60 Z" />
</g>
<g id="#248fdcff">
<path fill="#248fdc" opacity="1.00" d=" M 24.84 18.27 C 27.28 17.53 29.72 16.78 32.15 16.04 C 31.95 16.65 31.55 17.88 31.35 18.49 C 31.14 19.10 30.72 20.32 30.51 20.93 C 28.59 20.10 26.73 19.16 24.84 18.27 Z" />
</g>
<g id="#92bb6dff">
<path fill="#92bb6d" opacity="1.00" d=" M 32.77 18.28 C 35.70 17.66 38.70 17.22 41.70 17.65 L 40.84 18.98 C 40.62 19.35 40.20 20.08 39.98 20.44 C 37.68 20.35 35.37 20.23 33.07 20.07 C 33.00 19.62 32.84 18.73 32.77 18.28 Z" />
</g>
<g id="#4177c8ff">
<path fill="#4177c8" opacity="1.00" d=" M 52.39 18.29 C 58.04 16.33 64.01 18.65 69.81 17.73 C 68.93 19.42 68.06 21.12 67.14 22.80 C 65.74 25.89 62.83 27.68 60.13 29.50 C 56.43 29.47 52.63 30.55 49.97 33.24 C 49.73 36.47 52.78 38.35 54.68 40.46 C 49.49 39.13 44.20 37.76 39.75 34.65 C 42.67 33.52 45.59 32.39 48.54 31.35 C 49.87 30.92 51.17 30.40 52.38 29.71 C 52.82 29.49 53.68 29.04 54.11 28.82 C 58.37 26.64 62.75 24.70 66.92 22.36 C 60.47 17.79 52.47 20.49 45.37 21.80 C 44.81 21.89 43.71 22.07 43.15 22.16 L 42.44 22.26 C 43.26 21.91 44.91 21.21 45.73 20.86 C 47.91 19.92 50.11 19.00 52.39 18.29 Z" />
</g>
<g id="#90bb68ff">
<path fill="#90bb68" opacity="1.00" d=" M 89.40 18.95 C 91.81 17.46 94.66 16.69 97.49 17.19 L 97.44 18.18 C 96.90 18.83 95.81 20.12 95.27 20.77 C 94.19 19.80 92.90 19.42 91.42 19.63 C 90.74 19.61 89.37 19.57 88.69 19.55 L 89.40 18.95 Z" />
<path fill="#90bb68" opacity="1.00" d=" M 144.82 18.73 C 147.58 17.85 150.44 17.02 153.38 17.30 L 153.52 18.21 C 152.97 18.86 151.88 20.17 151.34 20.82 C 150.22 19.91 148.92 19.62 147.45 19.94 C 147.02 19.93 146.16 19.90 145.73 19.88 L 144.82 18.73 Z" />
<path fill="#90bb68" opacity="1.00" d=" M 200.82 18.73 C 203.58 17.85 206.44 17.02 209.38 17.30 L 209.52 18.21 C 208.97 18.86 207.88 20.17 207.34 20.82 C 206.22 19.91 204.92 19.62 203.45 19.94 C 203.02 19.93 202.16 19.90 201.73 19.88 L 200.82 18.73 Z" />
</g>
<g id="#2091e3ff">
<path fill="#2091e3" opacity="1.00" d=" M 136.43 18.40 C 138.45 18.95 142.77 14.69 144.28 18.03 L 144.82 18.73 L 145.73 19.88 C 144.62 19.88 143.51 19.91 142.40 19.89 C 140.35 19.71 138.40 18.95 136.43 18.40 Z" />
<path fill="#2091e3" opacity="1.00" d=" M 192.43 18.40 C 194.44 18.95 198.78 14.69 200.28 18.03 L 200.82 18.73 L 201.73 19.88 C 200.62 19.88 199.51 19.91 198.40 19.89 C 196.35 19.71 194.40 18.95 192.43 18.40 Z" />
</g>
<g id="#427acaff">
<path fill="#427aca" opacity="1.00" d=" M 0.00 17.44 C 6.38 20.58 13.30 19.33 19.89 17.69 C 16.98 19.22 14.00 20.73 11.54 22.94 C 9.15 25.81 6.32 28.25 3.23 30.32 C 2.44 29.99 1.66 29.65 0.88 29.31 C 4.39 27.56 7.79 25.60 10.96 23.27 C 7.37 21.69 3.66 20.40 0.00 19.01 L 0.00 17.44 Z" />
<path fill="#427aca" opacity="1.00" d=" M 161.12 33.42 C 163.08 35.01 165.07 36.55 167.09 38.07 C 163.32 37.28 159.53 36.55 155.76 35.77 C 157.55 34.99 159.33 34.21 161.12 33.42 Z" />
</g>
<g id="#2099f0ff">
<path fill="#2099f0" opacity="1.00" d=" M 31.35 18.49 C 31.68 18.31 32.36 17.94 32.70 17.75 L 32.77 18.28 C 32.84 18.73 33.00 19.62 33.07 20.07 C 35.37 20.23 37.68 20.35 39.98 20.44 C 41.10 20.48 42.41 20.83 43.35 20.02 C 44.26 18.54 41.62 18.31 40.84 18.98 L 41.70 17.65 C 42.07 17.68 42.83 17.76 43.21 17.79 C 44.08 18.79 44.90 19.82 45.73 20.86 C 44.91 21.21 43.26 21.91 42.44 22.26 C 41.11 22.43 39.77 22.60 38.44 22.75 C 38.85 19.75 33.96 20.34 36.91 22.68 C 34.76 22.15 32.60 21.65 30.51 20.93 C 30.72 20.32 31.14 19.10 31.35 18.49 Z" />
</g>
<g id="#3c6bbdff">
<path fill="#3c6bbd" opacity="1.00" d=" M 100.50 22.33 C 107.29 18.78 115.72 16.93 122.67 21.04 C 117.40 23.54 111.86 27.25 105.74 25.62 C 104.01 24.49 102.28 23.36 100.50 22.33 Z" />
</g>
<g id="#3388d3ff">
<path fill="#3388d3" opacity="1.00" d=" M 153.38 17.30 C 153.87 17.34 154.87 17.41 155.36 17.44 C 156.01 17.51 157.30 17.64 157.95 17.70 C 157.66 19.18 157.37 20.65 157.05 22.12 C 155.21 22.00 151.54 21.78 149.70 21.66 L 150.45 21.65 L 151.27 21.57 C 153.43 22.03 154.57 19.99 153.52 18.21 L 153.38 17.30 Z" />
<path fill="#3388d3" opacity="1.00" d=" M 209.38 17.30 C 209.87 17.34 210.87 17.41 211.36 17.44 C 212.01 17.51 213.30 17.64 213.95 17.70 C 213.66 19.18 213.37 20.65 213.05 22.12 C 211.21 22.00 207.54 21.78 205.70 21.66 L 206.45 21.65 L 207.27 21.57 C 209.43 22.03 210.57 19.99 209.52 18.21 L 209.38 17.30 Z" />
</g>
<g id="#8dbae0ff">
<path fill="#8dbae0" opacity="1.00" d=" M 40.84 18.98 C 41.62 18.31 44.26 18.54 43.35 20.02 C 42.41 20.83 41.10 20.48 39.98 20.44 C 40.20 20.08 40.62 19.35 40.84 18.98 Z" />
</g>
<g id="#3b6bbeff">
<path fill="#3b6bbe" opacity="1.00" d=" M 45.37 21.80 C 52.47 20.49 60.47 17.79 66.92 22.36 C 62.75 24.70 58.37 26.64 54.11 28.82 C 53.98 28.13 53.73 26.75 53.61 26.06 C 52.68 26.38 51.75 26.71 50.82 27.03 C 49.01 25.28 47.18 23.56 45.37 21.80 Z" />
</g>
<g id="#7eaed7ff">
<path fill="#7eaed7" opacity="1.00" d=" M 86.41 19.65 C 86.98 19.62 88.12 19.57 88.69 19.55 C 89.37 19.57 90.74 19.61 91.42 19.63 C 92.28 20.50 93.27 21.15 94.41 21.57 L 93.72 21.58 C 91.15 21.39 88.59 21.18 86.03 20.96 C 86.12 20.63 86.31 19.98 86.41 19.65 Z" />
<path fill="#7eaed7" opacity="1.00" d=" M 142.40 19.89 C 143.51 19.91 144.62 19.88 145.73 19.88 C 146.16 19.90 147.02 19.93 147.45 19.94 C 148.32 20.74 149.32 21.31 150.45 21.65 L 149.70 21.66 C 147.23 21.22 144.80 20.63 142.40 19.89 Z" />
<path fill="#7eaed7" opacity="1.00" d=" M 198.40 19.89 C 199.51 19.91 200.62 19.88 201.73 19.88 C 202.16 19.90 203.02 19.93 203.45 19.94 C 204.32 20.74 205.32 21.31 206.45 21.65 L 205.70 21.66 C 203.23 21.22 200.80 20.63 198.40 19.89 Z" />
</g>
<g id="#97b5d6ff">
<path fill="#97b5d6" opacity="1.00" d=" M 97.44 18.18 C 98.48 19.95 97.40 22.03 95.21 21.52 L 95.27 20.77 C 95.81 20.12 96.90 18.83 97.44 18.18 Z" />
<path fill="#97b5d6" opacity="1.00" d=" M 153.52 18.21 C 154.57 19.99 153.43 22.03 151.27 21.57 L 151.34 20.82 C 151.88 20.17 152.97 18.86 153.52 18.21 Z" />
<path fill="#97b5d6" opacity="1.00" d=" M 209.52 18.21 C 210.57 19.99 209.43 22.03 207.27 21.57 L 207.34 20.82 C 207.88 20.17 208.97 18.86 209.52 18.21 Z" />
</g>
<g id="#3d6cbeff">
<path fill="#3d6cbe" opacity="1.00" d=" M 0.00 19.01 C 3.66 20.40 7.37 21.69 10.96 23.27 C 7.79 25.60 4.39 27.56 0.88 29.31 C 1.66 29.65 2.44 29.99 3.23 30.32 L 3.68 30.51 C 2.88 31.09 1.29 32.25 0.49 32.83 L 0.00 33.19 L 0.00 19.01 Z" />
</g>
<g id="#517257ff">
<path fill="#517257" opacity="1.00" d=" M 11.54 22.94 C 14.08 22.40 16.70 21.94 19.30 22.41 L 18.48 22.15 C 17.79 22.13 16.41 22.08 15.73 22.06 C 15.81 22.47 15.99 23.30 16.07 23.72 C 16.36 24.27 16.66 24.82 16.95 25.37 C 16.00 25.77 15.06 26.20 14.13 26.65 C 13.92 26.83 13.49 27.20 13.28 27.38 C 12.81 28.38 12.38 29.40 11.99 30.44 L 11.58 30.04 C 11.20 29.81 10.45 29.34 10.07 29.10 C 9.09 28.77 8.10 28.48 7.11 28.17 C 7.82 29.60 8.53 31.01 9.24 32.43 L 9.48 32.92 C 7.54 32.14 5.62 31.30 3.68 30.51 L 3.23 30.32 C 6.32 28.25 9.15 25.81 11.54 22.94 M 12.17 24.17 C 11.65 25.80 12.20 26.35 13.83 25.83 C 14.35 24.20 13.80 23.65 12.17 24.17 Z" />
<path fill="#517257" opacity="1.00" d=" M 67.14 22.80 C 69.83 22.36 72.58 21.96 75.30 22.43 L 74.47 22.17 C 73.79 22.14 72.41 22.08 71.73 22.05 C 71.81 22.47 71.98 23.30 72.07 23.72 C 72.36 24.27 72.65 24.83 72.95 25.38 C 72.00 25.78 71.06 26.20 70.13 26.65 C 69.92 26.83 69.49 27.20 69.28 27.38 C 68.81 28.38 68.38 29.40 67.99 30.44 L 67.59 30.04 C 67.21 29.81 66.45 29.34 66.07 29.10 C 65.10 28.77 64.10 28.48 63.12 28.18 C 63.82 29.59 64.53 31.00 65.24 32.41 L 65.48 32.90 C 63.44 32.01 61.42 31.09 59.38 30.21 L 60.13 29.50 C 62.83 27.68 65.74 25.89 67.14 22.80 M 68.17 24.17 C 67.65 25.80 68.20 26.35 69.83 25.83 C 70.35 24.20 69.80 23.65 68.17 24.17 Z" />
<path fill="#517257" opacity="1.00" d=" M 123.34 22.83 C 125.93 22.34 128.57 22.00 131.21 22.36 L 130.30 22.03 C 129.65 22.06 128.34 22.13 127.69 22.16 C 127.81 22.57 128.06 23.39 128.18 23.80 C 128.47 24.31 128.76 24.82 129.05 25.33 C 128.06 25.75 127.09 26.19 126.13 26.65 C 125.92 26.84 125.49 27.20 125.28 27.39 C 124.81 28.38 124.39 29.38 124.01 30.40 L 123.59 30.01 C 123.21 29.78 122.45 29.32 122.07 29.09 C 121.09 28.76 120.09 28.48 119.10 28.19 C 119.81 29.59 120.53 30.99 121.24 32.39 L 121.48 32.87 C 119.19 32.00 116.90 31.14 114.57 30.39 L 115.47 30.18 C 115.80 30.02 116.45 29.70 116.77 29.54 C 118.86 27.91 120.77 26.05 122.41 23.98 C 122.72 23.60 123.03 23.21 123.34 22.83 M 124.17 24.17 C 123.65 25.80 124.20 26.35 125.83 25.83 C 126.35 24.20 125.80 23.65 124.17 24.17 Z" />
<path fill="#517257" opacity="1.00" d=" M 179.33 23.74 C 181.63 22.32 184.22 21.45 186.74 20.51 C 186.84 21.03 187.04 22.08 187.14 22.60 L 186.23 22.25 C 185.57 22.27 184.26 22.31 183.60 22.33 C 183.73 22.74 183.98 23.55 184.11 23.96 C 184.39 24.43 184.67 24.90 184.96 25.37 C 184.01 25.77 183.06 26.20 182.13 26.65 C 181.92 26.83 181.49 27.20 181.28 27.38 C 180.80 28.38 180.37 29.39 179.99 30.42 L 179.58 30.03 C 179.20 29.80 178.44 29.33 178.06 29.10 C 177.08 28.77 176.09 28.48 175.10 28.18 C 175.82 29.60 176.55 31.02 177.27 32.43 L 177.52 32.93 C 175.38 32.06 173.26 31.16 171.10 30.35 L 171.63 30.00 C 174.42 28.20 176.99 26.09 179.33 23.74 M 180.17 24.17 C 179.65 25.80 180.20 26.35 181.83 25.83 C 182.35 24.20 181.79 23.65 180.17 24.17 Z" />
</g>
<g id="#5f735aff">
<path fill="#5f735a" opacity="1.00" d=" M 18.48 22.15 L 19.30 22.41 C 23.59 23.77 27.67 25.67 31.92 27.14 L 32.52 27.35 C 32.70 28.73 33.36 30.04 34.57 30.80 C 34.83 31.02 35.36 31.46 35.63 31.68 C 36.09 32.07 37.02 32.85 37.48 33.24 C 33.55 32.60 29.63 31.57 26.30 29.27 L 26.63 28.24 C 27.38 26.98 26.21 25.28 24.75 25.56 L 23.69 25.49 C 21.45 25.29 19.20 25.16 16.95 25.37 C 16.66 24.82 16.36 24.27 16.07 23.72 C 16.67 23.33 17.88 22.54 18.48 22.15 M 29.17 27.25 C 27.54 27.61 28.25 30.24 29.83 29.75 C 31.46 29.39 30.75 26.76 29.17 27.25 M 31.15 30.40 C 30.30 34.38 35.14 29.58 31.15 30.40 Z" />
<path fill="#5f735a" opacity="1.00" d=" M 130.30 22.03 L 131.21 22.36 C 135.41 23.79 139.48 25.58 143.73 26.89 L 144.42 27.12 C 144.74 28.67 145.95 30.09 147.63 30.15 C 147.79 30.48 148.11 31.14 148.26 31.47 C 148.45 32.04 148.83 33.20 149.02 33.77 C 145.25 32.77 141.61 31.34 138.32 29.24 L 138.63 28.24 C 139.39 26.97 138.20 25.29 136.75 25.57 L 135.69 25.49 C 133.48 25.29 131.26 25.14 129.05 25.33 C 128.76 24.82 128.47 24.31 128.18 23.80 C 128.71 23.36 129.77 22.47 130.30 22.03 M 141.17 27.25 C 139.54 27.61 140.25 30.24 141.83 29.75 C 143.46 29.39 142.75 26.76 141.17 27.25 M 143.15 30.40 C 142.30 34.38 147.14 29.58 143.15 30.40 Z" />
</g>
<g id="#7d7f56ff">
<path fill="#7d7f56" opacity="1.00" d=" M 32.62 26.93 C 36.12 25.32 39.56 23.56 43.15 22.16 C 43.71 22.07 44.81 21.89 45.37 21.80 C 47.18 23.56 49.01 25.28 50.82 27.03 C 50.60 27.16 50.15 27.41 49.92 27.53 C 49.53 27.36 48.76 27.02 48.37 26.85 C 47.41 26.39 46.45 25.94 45.49 25.49 C 44.89 25.22 43.71 24.69 43.11 24.42 C 41.44 23.53 39.59 24.41 38.01 25.05 C 36.72 25.55 35.42 26.02 34.11 26.46 C 33.73 26.58 32.99 26.81 32.62 26.93 Z" />
</g>
<g id="#5d7459ff">
<path fill="#5d7459" opacity="1.00" d=" M 74.47 22.17 L 75.30 22.43 C 77.94 23.23 80.49 24.29 83.06 25.27 C 84.62 25.85 86.18 26.41 87.77 26.91 L 88.36 27.10 C 88.53 28.79 90.10 30.16 91.83 29.78 C 91.88 30.18 91.98 30.97 92.03 31.36 C 92.12 31.97 92.31 33.17 92.40 33.78 C 88.86 32.68 85.48 31.16 82.33 29.22 L 82.64 28.23 C 83.39 26.97 82.20 25.28 80.75 25.56 L 79.69 25.49 C 77.45 25.29 75.19 25.16 72.95 25.38 C 72.65 24.83 72.36 24.27 72.07 23.72 C 72.67 23.33 73.87 22.55 74.47 22.17 M 84.53 28.13 C 83.60 29.31 85.65 30.69 86.45 29.46 C 87.43 28.27 85.34 26.93 84.53 28.13 M 87.15 30.40 C 86.30 34.38 91.14 29.58 87.15 30.40 Z" />
</g>
<g id="#7d7d55ff">
<path fill="#7d7d55" opacity="1.00" d=" M 88.93 26.87 C 92.26 24.74 95.94 23.25 99.77 22.25 L 100.50 22.33 C 102.28 23.36 104.01 24.49 105.74 25.62 C 106.08 25.94 106.76 26.57 107.10 26.89 C 106.82 27.05 106.24 27.37 105.96 27.53 C 105.57 27.36 104.78 27.01 104.39 26.84 C 103.41 26.39 102.44 25.93 101.47 25.48 C 100.88 25.22 99.70 24.69 99.11 24.43 C 97.46 23.54 95.58 24.25 94.01 24.93 C 92.32 25.60 90.62 26.23 88.93 26.87 Z" />
<path fill="#7d7d55" opacity="1.00" d=" M 145.83 26.76 C 147.84 25.47 149.72 23.80 152.08 23.18 C 155.85 23.21 159.51 24.33 163.03 25.61 C 162.70 26.09 162.05 27.04 161.73 27.52 C 161.41 27.36 160.76 27.02 160.43 26.86 C 159.47 26.37 158.49 25.89 157.52 25.43 C 156.91 25.16 155.70 24.62 155.10 24.35 C 153.44 23.49 151.53 24.14 149.98 24.90 C 148.59 25.52 147.20 26.13 145.83 26.76 Z" />
<path fill="#7d7d55" opacity="1.00" d=" M 202.04 26.95 C 206.00 20.90 214.96 22.12 219.25 27.17 C 218.96 27.31 218.37 27.59 218.07 27.73 C 217.64 27.53 216.78 27.14 216.35 26.94 C 215.38 26.45 214.41 25.97 213.45 25.49 C 212.86 25.21 211.67 24.65 211.08 24.38 C 209.44 23.46 207.50 24.11 205.98 24.97 C 204.66 25.62 203.34 26.28 202.04 26.95 Z" />
</g>
<g id="#5f745bff">
<path fill="#5f745b" opacity="1.00" d=" M 186.23 22.25 L 187.14 22.60 C 191.28 24.04 195.53 25.21 199.51 27.08 L 200.04 27.32 C 200.72 28.80 202.09 30.33 203.91 29.84 C 203.97 30.24 204.09 31.03 204.15 31.43 C 204.26 31.96 204.48 33.02 204.59 33.55 C 200.96 32.66 197.47 31.26 194.31 29.25 L 194.63 28.24 C 195.38 26.97 194.21 25.28 192.75 25.56 L 191.69 25.49 C 189.45 25.29 187.20 25.16 184.96 25.37 C 184.67 24.90 184.39 24.43 184.11 23.96 C 184.64 23.53 185.70 22.68 186.23 22.25 M 197.17 27.25 C 195.54 27.61 196.25 30.24 197.83 29.75 C 199.46 29.39 198.75 26.76 197.17 27.25 M 199.15 30.40 C 198.30 34.38 203.14 29.58 199.15 30.40 Z" />
</g>
<g id="#9ed154ff">
<path fill="#9ed154" opacity="1.00" d=" M 16.95 25.37 C 19.20 25.16 21.45 25.29 23.69 25.49 C 21.99 25.48 20.28 25.53 18.58 25.59 C 18.77 26.82 18.95 28.04 19.12 29.26 L 19.19 29.81 C 18.45 31.09 20.18 32.90 20.96 31.08 C 22.20 29.50 23.30 27.82 24.39 26.13 C 24.83 27.15 25.58 27.86 26.63 28.24 L 26.30 29.27 C 25.99 30.25 25.68 31.23 25.36 32.20 C 23.92 31.17 21.73 33.34 23.55 34.41 L 23.98 34.86 C 19.24 32.10 15.46 37.62 11.71 39.68 L 11.07 40.04 C 11.38 38.83 11.69 37.63 12.00 36.41 C 13.78 35.09 15.55 33.75 17.30 32.38 C 15.79 32.67 14.28 32.96 12.76 33.24 C 12.18 33.34 11.01 33.55 10.42 33.66 L 10.79 33.41 C 11.63 32.66 12.03 31.67 11.99 30.44 C 12.38 29.40 12.81 28.38 13.28 27.38 C 13.69 28.52 14.32 30.39 15.87 30.07 C 17.10 28.86 15.00 27.39 14.13 26.65 C 15.06 26.20 16.00 25.77 16.95 25.37 Z" />
<path fill="#9ed154" opacity="1.00" d=" M 72.95 25.38 C 75.19 25.16 77.45 25.29 79.69 25.49 C 77.99 25.48 76.28 25.53 74.58 25.59 C 74.77 26.81 74.95 28.04 75.12 29.26 L 75.19 29.81 C 74.45 31.09 76.18 32.90 76.96 31.08 C 78.20 29.50 79.30 27.82 80.39 26.14 C 80.83 27.16 81.58 27.85 82.64 28.23 L 82.33 29.22 C 82.01 30.21 81.69 31.21 81.36 32.20 C 79.92 31.17 77.73 33.34 79.55 34.41 L 79.98 34.86 C 75.24 32.11 71.46 37.62 67.71 39.68 L 67.06 40.04 C 67.38 38.83 67.69 37.63 68.00 36.41 C 69.79 35.10 71.55 33.75 73.30 32.39 C 71.79 32.67 70.28 32.96 68.76 33.22 C 68.18 33.33 67.01 33.53 66.43 33.63 L 66.78 33.40 C 67.63 32.67 68.03 31.68 67.99 30.44 C 68.38 29.40 68.81 28.38 69.28 27.38 C 69.69 28.52 70.32 30.39 71.87 30.07 C 73.10 28.86 71.00 27.39 70.13 26.65 C 71.06 26.20 72.00 25.78 72.95 25.38 Z" />
<path fill="#9ed154" opacity="1.00" d=" M 129.05 25.33 C 131.26 25.14 133.48 25.29 135.69 25.49 C 133.99 25.48 132.28 25.53 130.58 25.59 C 130.77 26.81 130.95 28.04 131.12 29.26 L 131.19 29.81 C 130.45 31.09 132.18 32.90 132.96 31.08 C 134.20 29.50 135.30 27.83 136.38 26.14 C 136.83 27.16 137.58 27.86 138.63 28.24 L 138.32 29.24 C 138.00 30.23 137.68 31.22 137.36 32.20 C 135.92 31.17 133.73 33.34 135.55 34.41 L 135.98 34.86 C 131.24 32.11 127.46 37.62 123.71 39.68 L 123.06 40.04 C 123.37 38.83 123.69 37.63 124.00 36.41 C 125.78 35.10 127.54 33.77 129.30 32.42 C 127.79 32.68 126.28 32.95 124.77 33.19 C 124.19 33.27 123.03 33.44 122.45 33.53 L 122.81 33.32 C 123.67 32.61 124.07 31.64 124.01 30.40 C 124.39 29.38 124.81 28.38 125.28 27.39 C 125.69 28.52 126.32 30.39 127.88 30.07 C 129.10 28.86 127.00 27.39 126.13 26.65 C 127.09 26.19 128.06 25.75 129.05 25.33 Z" />
<path fill="#9ed154" opacity="1.00" d=" M 184.96 25.37 C 187.20 25.16 189.45 25.29 191.69 25.49 C 189.98 25.48 188.28 25.53 186.58 25.59 C 186.77 26.81 186.95 28.04 187.12 29.26 L 187.19 29.81 C 186.45 31.09 188.18 32.90 188.96 31.08 C 190.20 29.50 191.30 27.82 192.39 26.13 C 192.83 27.15 193.58 27.85 194.63 28.24 L 194.31 29.25 C 194.00 30.23 193.68 31.22 193.36 32.20 C 191.92 31.17 189.73 33.34 191.55 34.41 L 191.98 34.86 C 187.21 32.11 183.42 37.67 179.61 39.68 L 178.84 40.04 C 179.26 38.88 179.68 37.71 180.11 36.55 C 181.74 35.08 183.46 33.70 185.16 32.32 C 183.79 32.67 182.42 33.04 181.03 33.33 C 180.38 33.43 179.08 33.63 178.43 33.73 L 178.85 33.41 C 179.65 32.64 180.03 31.64 179.99 30.42 C 180.37 29.39 180.80 28.38 181.28 27.38 C 181.69 28.52 182.32 30.39 183.87 30.07 C 185.10 28.86 183.00 27.39 182.13 26.65 C 183.06 26.20 184.01 25.77 184.96 25.37 Z" />
</g>
<g id="#a3d84efe">
<path fill="#a3d84e" opacity="1.00" d=" M 38.01 25.05 C 39.59 24.41 41.44 23.53 43.11 24.42 C 42.19 26.54 39.46 26.71 38.01 25.05 Z" />
<path fill="#a3d84e" opacity="1.00" d=" M 94.01 24.93 C 95.58 24.25 97.46 23.54 99.11 24.43 C 98.13 26.51 95.42 26.63 94.01 24.93 Z" />
<path fill="#a3d84e" opacity="1.00" d=" M 149.98 24.90 C 151.53 24.14 153.44 23.49 155.10 24.35 C 154.11 26.41 151.43 26.55 149.98 24.90 Z" />
<path fill="#a3d84e" opacity="1.00" d=" M 205.98 24.97 C 207.50 24.11 209.44 23.46 211.08 24.38 C 210.08 26.39 207.46 26.54 205.98 24.97 Z" />
</g>
<g id="#97c170ff">
<path fill="#97c170" opacity="1.00" d=" M 43.11 24.42 C 43.71 24.69 44.89 25.22 45.49 25.49 C 42.69 26.45 39.86 27.32 37.04 28.20 C 36.30 27.77 34.84 26.90 34.11 26.46 C 35.42 26.02 36.72 25.55 38.01 25.05 C 39.46 26.71 42.19 26.54 43.11 24.42 Z" />
<path fill="#97c170" opacity="1.00" d=" M 99.11 24.43 C 99.70 24.69 100.88 25.22 101.47 25.48 C 98.62 26.49 95.74 27.41 92.88 28.37 C 91.90 28.08 90.93 27.78 89.96 27.47 L 88.93 26.87 C 90.62 26.23 92.32 25.60 94.01 24.93 C 95.42 26.63 98.13 26.51 99.11 24.43 Z" />
<path fill="#97c170" opacity="1.00" d=" M 155.10 24.35 C 155.70 24.62 156.91 25.16 157.52 25.43 C 154.67 26.47 151.77 27.36 148.90 28.33 C 147.57 27.95 146.24 27.57 144.91 27.21 L 145.83 26.76 C 147.20 26.13 148.59 25.52 149.98 24.90 C 151.43 26.55 154.11 26.41 155.10 24.35 Z" />
<path fill="#97c170" opacity="1.00" d=" M 211.08 24.38 C 211.67 24.65 212.86 25.21 213.45 25.49 C 210.60 26.51 207.72 27.42 204.87 28.39 C 203.61 28.07 202.35 27.75 201.09 27.44 L 202.04 26.95 C 203.34 26.28 204.66 25.62 205.98 24.97 C 207.46 26.54 210.08 26.39 211.08 24.38 Z" />
<path fill="#97c170" opacity="1.00" d=" M 11.71 39.68 C 15.46 37.62 19.24 32.10 23.98 34.86 C 24.96 35.87 25.89 36.93 26.81 38.00 C 21.71 37.55 16.54 37.85 11.71 39.68 Z" />
<path fill="#97c170" opacity="1.00" d=" M 67.71 39.68 C 71.46 37.62 75.24 32.11 79.98 34.86 C 80.96 35.87 81.89 36.93 82.81 38.00 C 77.71 37.55 72.53 37.85 67.71 39.68 Z" />
<path fill="#97c170" opacity="1.00" d=" M 123.71 39.68 C 127.46 37.62 131.24 32.11 135.98 34.86 C 136.96 35.87 137.89 36.93 138.81 38.00 C 133.71 37.55 128.53 37.85 123.71 39.68 Z" />
<path fill="#97c170" opacity="1.00" d=" M 179.61 39.68 C 183.42 37.67 187.21 32.11 191.98 34.86 C 192.96 35.87 193.89 36.93 194.81 38.00 C 189.68 37.55 184.48 37.87 179.61 39.68 Z" />
</g>
<g id="#4d824fff">
<path fill="#4d824f" opacity="1.00" d=" M 18.58 25.59 C 20.28 25.53 21.99 25.48 23.69 25.49 L 24.75 25.56 L 24.39 26.13 C 23.30 27.82 22.20 29.50 20.96 31.08 L 20.84 30.23 C 21.46 29.37 22.67 28.52 22.42 27.32 C 21.03 26.61 19.95 28.42 19.12 29.26 C 18.95 28.04 18.77 26.82 18.58 25.59 Z" />
<path fill="#4d824f" opacity="1.00" d=" M 74.58 25.59 C 76.28 25.53 77.99 25.48 79.69 25.49 L 80.75 25.56 L 80.39 26.14 C 79.30 27.82 78.20 29.50 76.96 31.08 L 76.84 30.23 C 77.45 29.37 78.67 28.52 78.42 27.32 C 77.03 26.61 75.95 28.42 75.12 29.26 C 74.95 28.04 74.77 26.81 74.58 25.59 Z" />
<path fill="#4d824f" opacity="1.00" d=" M 130.58 25.59 C 132.28 25.53 133.99 25.48 135.69 25.49 L 136.75 25.57 L 136.38 26.14 C 135.30 27.83 134.20 29.50 132.96 31.08 L 132.84 30.23 C 133.45 29.37 134.67 28.52 134.42 27.32 C 133.03 26.61 131.95 28.42 131.12 29.26 C 130.95 28.04 130.77 26.81 130.58 25.59 Z" />
<path fill="#4d824f" opacity="1.00" d=" M 186.58 25.59 C 188.28 25.53 189.98 25.48 191.69 25.49 L 192.75 25.56 L 192.39 26.13 C 191.30 27.82 190.20 29.50 188.96 31.08 L 188.84 30.23 C 189.45 29.37 190.67 28.52 190.42 27.32 C 189.03 26.61 187.94 28.42 187.12 29.26 C 186.95 28.04 186.77 26.81 186.58 25.59 Z" />
</g>
<g id="#86b05cff">
<path fill="#86b05c" opacity="1.00" d=" M 45.49 25.49 C 46.45 25.94 47.41 26.39 48.37 26.85 C 45.11 29.51 40.82 30.44 37.04 28.20 C 39.86 27.32 42.69 26.45 45.49 25.49 Z" />
<path fill="#86b05c" opacity="1.00" d=" M 101.47 25.48 C 102.44 25.93 103.41 26.39 104.39 26.84 C 101.08 29.57 96.80 30.11 92.88 28.37 C 95.74 27.41 98.62 26.49 101.47 25.48 Z" />
<path fill="#86b05c" opacity="1.00" d=" M 157.52 25.43 C 158.49 25.89 159.47 26.37 160.43 26.86 C 157.11 29.60 152.82 30.00 148.90 28.33 C 151.77 27.36 154.67 26.47 157.52 25.43 Z" />
<path fill="#86b05c" opacity="1.00" d=" M 213.45 25.49 C 214.41 25.97 215.38 26.45 216.35 26.94 C 213.01 29.56 208.78 29.92 204.87 28.39 C 207.72 27.42 210.60 26.51 213.45 25.49 Z" />
</g>
<g id="#87b05cff">
<path fill="#87b05c" opacity="1.00" d=" M 24.75 25.56 C 26.21 25.28 27.38 26.98 26.63 28.24 C 25.58 27.86 24.83 27.15 24.39 26.13 L 24.75 25.56 Z" />
<path fill="#87b05c" opacity="1.00" d=" M 80.75 25.56 C 82.20 25.28 83.39 26.97 82.64 28.23 C 81.58 27.85 80.83 27.16 80.39 26.14 L 80.75 25.56 Z" />
<path fill="#87b05c" opacity="1.00" d=" M 136.75 25.57 C 138.20 25.29 139.39 26.97 138.63 28.24 C 137.58 27.86 136.83 27.16 136.38 26.14 L 136.75 25.57 Z" />
<path fill="#87b05c" opacity="1.00" d=" M 192.75 25.56 C 194.21 25.28 195.38 26.97 194.63 28.24 C 193.58 27.85 192.83 27.15 192.39 26.13 L 192.75 25.56 Z" />
<path fill="#87b05c" opacity="1.00" d=" M 81.36 32.20 C 81.69 31.21 82.01 30.21 82.33 29.22 C 85.48 31.16 88.86 32.68 92.40 33.78 L 92.53 34.68 C 92.68 35.78 92.81 36.87 92.99 37.96 C 90.11 36.17 87.19 34.45 84.23 32.80 C 84.37 34.89 84.52 36.97 84.65 39.07 C 80.42 39.33 76.18 39.62 72.00 40.37 C 72.24 40.95 72.73 42.13 72.97 42.72 C 71.97 43.30 70.97 43.88 69.99 44.49 C 70.10 43.63 70.30 41.89 70.41 41.02 C 68.82 41.73 67.24 42.45 65.66 43.17 C 65.26 43.35 64.47 43.71 64.07 43.90 L 63.71 43.35 C 62.75 41.97 61.73 40.64 60.63 39.37 C 62.61 38.75 64.59 38.14 66.57 37.53 C 65.41 36.59 64.26 35.66 63.10 34.73 L 63.48 34.13 C 64.47 33.98 65.45 33.81 66.43 33.63 C 67.01 33.53 68.18 33.33 68.76 33.22 C 68.57 34.02 68.19 35.62 68.00 36.41 C 67.69 37.63 67.38 38.83 67.06 40.04 L 67.71 39.68 C 72.53 37.85 77.71 37.55 82.81 38.00 C 81.89 36.93 80.96 35.87 79.98 34.86 L 79.55 34.41 C 80.00 33.86 80.91 32.76 81.36 32.20 Z" />
<path fill="#87b05c" opacity="1.00" d=" M 193.36 32.20 C 193.68 31.22 194.00 30.23 194.31 29.25 C 197.47 31.26 200.96 32.66 204.59 33.55 L 204.72 34.22 C 204.94 35.43 205.15 36.64 205.35 37.86 L 204.47 37.40 C 201.69 35.94 198.95 34.40 196.18 32.93 C 196.34 34.98 196.51 37.02 196.67 39.06 C 192.43 39.33 188.19 39.61 184.00 40.37 C 184.25 40.95 184.73 42.13 184.98 42.71 C 183.98 43.29 182.98 43.87 182.01 44.48 C 182.12 43.66 182.35 42.02 182.46 41.20 C 180.81 41.83 179.16 42.47 177.50 43.07 C 177.08 43.21 176.25 43.49 175.83 43.64 L 175.57 43.27 C 174.61 41.88 173.60 40.53 172.61 39.16 C 174.53 38.80 176.44 38.42 178.36 38.04 C 177.38 36.81 176.41 35.59 175.44 34.36 L 175.17 34.02 C 176.26 33.98 177.35 33.88 178.43 33.73 C 179.08 33.63 180.38 33.43 181.03 33.33 C 180.80 34.13 180.34 35.74 180.11 36.55 C 179.68 37.71 179.26 38.88 178.84 40.04 L 179.61 39.68 C 184.48 37.87 189.68 37.55 194.81 38.00 C 193.89 36.93 192.96 35.87 191.98 34.86 L 191.55 34.41 C 192.00 33.86 192.91 32.76 193.36 32.20 Z" />
<path fill="#87b05c" opacity="1.00" d=" M 19.73 48.56 C 20.12 47.98 20.89 46.83 21.28 46.25 L 21.91 46.45 C 23.12 48.03 21.14 49.19 19.73 48.56 Z" />
<path fill="#87b05c" opacity="1.00" d=" M 76.31 49.06 C 75.88 47.96 76.20 47.06 77.27 46.38 C 78.08 47.80 77.76 48.69 76.31 49.06 Z" />
<path fill="#87b05c" opacity="1.00" d=" M 131.41 48.51 C 132.14 48.12 133.60 47.33 134.33 46.93 L 134.97 47.27 C 134.36 48.70 132.77 49.21 131.41 48.51 Z" />
<path fill="#87b05c" opacity="1.00" d=" M 187.70 48.58 C 188.14 48.12 189.02 47.19 189.46 46.72 C 190.68 47.86 188.90 49.53 187.70 48.58 Z" />
</g>
<g id="#ccca88ff">
<path fill="#ccca88" opacity="1.00" d=" M 48.37 26.85 C 48.76 27.02 49.53 27.36 49.92 27.53 C 47.73 28.72 45.69 30.36 43.19 30.84 C 40.53 30.89 37.87 30.78 35.22 30.79 C 35.65 29.05 34.09 27.66 32.52 27.35 L 31.92 27.14 L 32.62 26.93 C 32.99 26.81 33.73 26.58 34.11 26.46 C 34.84 26.90 36.30 27.77 37.04 28.20 C 40.82 30.44 45.11 29.51 48.37 26.85 Z" />
</g>
<g id="#2c95e1ff">
<path fill="#2c95e1" opacity="1.00" d=" M 50.82 27.03 C 51.75 26.71 52.68 26.38 53.61 26.06 C 53.73 26.75 53.98 28.13 54.11 28.82 C 53.68 29.04 52.82 29.49 52.38 29.71 C 51.13 27.18 48.38 29.10 48.54 31.35 C 45.59 32.39 42.67 33.52 39.75 34.65 C 39.17 34.29 38.60 33.94 38.02 33.58 L 37.48 33.24 C 37.02 32.85 36.09 32.07 35.63 31.68 C 38.16 31.50 40.67 31.18 43.19 30.84 C 45.69 30.36 47.73 28.72 49.92 27.53 C 50.15 27.41 50.60 27.16 50.82 27.03 Z" />
</g>
<g id="#cac98efe">
<path fill="#cac98e" opacity="1.00" d=" M 104.39 26.84 C 104.78 27.01 105.57 27.36 105.96 27.53 C 102.81 29.49 99.45 31.33 95.66 31.53 C 94.59 30.75 93.48 30.00 92.31 29.36 C 91.15 28.37 89.86 27.48 88.36 27.10 L 87.77 26.91 C 88.31 27.05 89.41 27.33 89.96 27.47 C 90.93 27.78 91.90 28.08 92.88 28.37 C 96.80 30.11 101.08 29.57 104.39 26.84 Z" />
<path fill="#cac98e" opacity="1.00" d=" M 216.35 26.94 C 216.78 27.14 217.64 27.53 218.07 27.73 C 214.82 29.46 211.45 31.17 207.71 31.51 C 206.64 30.74 205.54 30.00 204.38 29.36 C 203.13 28.30 201.62 27.68 200.04 27.32 L 199.51 27.08 C 199.91 27.17 200.70 27.35 201.09 27.44 C 202.35 27.75 203.61 28.07 204.87 28.39 C 208.78 29.92 213.01 29.56 216.35 26.94 Z" />
</g>
<g id="#c8c893ff">
<path fill="#c8c893" opacity="1.00" d=" M 160.43 26.86 C 160.76 27.02 161.41 27.36 161.73 27.52 C 160.72 29.00 159.55 30.37 158.31 31.67 C 157.67 31.82 156.40 32.12 155.76 32.26 C 154.77 30.91 153.06 30.41 151.45 30.46 C 150.33 30.14 149.19 29.81 148.02 29.75 C 147.41 28.25 145.90 27.48 144.42 27.12 L 143.73 26.89 C 144.02 26.97 144.62 27.13 144.91 27.21 C 146.24 27.57 147.57 27.95 148.90 28.33 C 152.82 30.00 157.11 29.60 160.43 26.86 Z" />
</g>
<g id="#1f9bf7fe">
<path fill="#1f9bf7" opacity="1.00" d=" M 163.03 25.61 C 163.64 25.83 164.88 26.28 165.49 26.50 C 163.86 28.12 162.30 29.85 160.38 31.15 C 159.86 31.28 158.83 31.54 158.31 31.67 C 159.55 30.37 160.72 29.00 161.73 27.52 C 162.05 27.04 162.70 26.09 163.03 25.61 Z" />
</g>
<g id="#3197e2fe">
<path fill="#3197e2" opacity="1.00" d=" M 219.25 27.17 C 220.11 26.76 220.97 26.35 221.83 25.94 C 222.14 26.42 222.75 27.38 223.06 27.86 C 221.83 28.67 220.60 29.48 219.37 30.29 C 221.69 28.79 218.45 27.26 217.94 29.67 C 217.75 29.93 217.35 30.45 217.15 30.70 C 215.86 31.96 214.26 32.85 212.60 33.51 C 211.22 33.48 208.48 33.41 207.10 33.38 C 207.33 33.77 207.78 34.56 208.01 34.95 C 206.91 34.71 205.81 34.47 204.72 34.22 L 204.59 33.55 C 204.48 33.02 204.26 31.96 204.15 31.43 C 205.31 31.83 206.50 31.85 207.71 31.51 C 211.45 31.17 214.82 29.46 218.07 27.73 C 218.37 27.59 218.96 27.31 219.25 27.17 Z" />
</g>
<g id="#6f9f67ff">
<path fill="#6f9f67" opacity="1.00" d=" M 13.28 27.38 C 13.49 27.20 13.92 26.83 14.13 26.65 C 15.00 27.39 17.10 28.86 15.87 30.07 C 14.32 30.39 13.69 28.52 13.28 27.38 Z" />
<path fill="#6f9f67" opacity="1.00" d=" M 69.28 27.38 C 69.49 27.20 69.92 26.83 70.13 26.65 C 71.00 27.39 73.10 28.86 71.87 30.07 C 70.32 30.39 69.69 28.52 69.28 27.38 Z" />
<path fill="#6f9f67" opacity="1.00" d=" M 125.28 27.39 C 125.49 27.20 125.92 26.84 126.13 26.65 C 127.00 27.39 129.10 28.86 127.88 30.07 C 126.32 30.39 125.69 28.52 125.28 27.39 Z" />
<path fill="#6f9f67" opacity="1.00" d=" M 181.28 27.38 C 181.49 27.20 181.92 26.83 182.13 26.65 C 183.00 27.39 185.10 28.86 183.87 30.07 C 182.32 30.39 181.69 28.52 181.28 27.38 Z" />
</g>
<g id="#00a48fff">
<path fill="#00a48f" opacity="1.00" d=" M 19.12 29.26 C 19.95 28.42 21.03 26.61 22.42 27.32 C 22.67 28.52 21.46 29.37 20.84 30.23 C 20.42 30.12 19.60 29.91 19.19 29.81 L 19.12 29.26 Z" />
<path fill="#00a48f" opacity="1.00" d=" M 29.17 27.25 C 30.75 26.76 31.46 29.39 29.83 29.75 C 28.25 30.24 27.54 27.61 29.17 27.25 Z" />
<path fill="#00a48f" opacity="1.00" d=" M 75.12 29.26 C 75.95 28.42 77.03 26.61 78.42 27.32 C 78.67 28.52 77.45 29.37 76.84 30.23 C 76.42 30.12 75.60 29.91 75.19 29.81 L 75.12 29.26 Z" />
<path fill="#00a48f" opacity="1.00" d=" M 131.12 29.26 C 131.95 28.42 133.03 26.61 134.42 27.32 C 134.67 28.52 133.45 29.37 132.84 30.23 C 132.42 30.12 131.60 29.91 131.19 29.81 L 131.12 29.26 Z" />
<path fill="#00a48f" opacity="1.00" d=" M 141.17 27.25 C 142.75 26.76 143.46 29.39 141.83 29.75 C 140.25 30.24 139.54 27.61 141.17 27.25 Z" />
<path fill="#00a48f" opacity="1.00" d=" M 187.12 29.26 C 187.94 28.42 189.03 26.61 190.42 27.32 C 190.67 28.52 189.45 29.37 188.84 30.23 C 188.42 30.12 187.60 29.91 187.19 29.81 L 187.12 29.26 Z" />
<path fill="#00a48f" opacity="1.00" d=" M 197.17 27.25 C 198.75 26.76 199.46 29.39 197.83 29.75 C 196.25 30.24 195.54 27.61 197.17 27.25 Z" />
<path fill="#00a48f" opacity="1.00" d=" M 84.53 28.13 C 85.34 26.93 87.43 28.27 86.45 29.46 C 85.65 30.69 83.60 29.31 84.53 28.13 Z" />
<path fill="#00a48f" opacity="1.00" d=" M 31.15 30.40 C 35.14 29.58 30.30 34.38 31.15 30.40 Z" />
<path fill="#00a48f" opacity="1.00" d=" M 87.15 30.40 C 91.14 29.58 86.30 34.38 87.15 30.40 Z" />
<path fill="#00a48f" opacity="1.00" d=" M 143.15 30.40 C 147.14 29.58 142.30 34.38 143.15 30.40 Z" />
<path fill="#00a48f" opacity="1.00" d=" M 199.15 30.40 C 203.14 29.58 198.30 34.38 199.15 30.40 Z" />
</g>
<g id="#2b96e4ff">
<path fill="#2b96e4" opacity="1.00" d=" M 107.10 26.89 C 107.89 27.66 108.64 28.46 109.40 29.25 L 108.81 29.55 C 107.01 28.19 104.26 28.80 104.50 31.43 C 100.54 32.62 96.55 33.73 92.53 34.68 L 92.40 33.78 C 92.31 33.17 92.12 31.97 92.03 31.36 C 93.21 31.80 94.42 31.86 95.66 31.53 C 99.45 31.33 102.81 29.49 105.96 27.53 C 106.24 27.37 106.82 27.05 107.10 26.89 Z" />
</g>
<g id="#4272c7ff">
<path fill="#4272c7" opacity="1.00" d=" M 115.47 30.18 C 113.45 27.75 117.59 26.10 116.77 29.54 C 116.45 29.70 115.80 30.02 115.47 30.18 Z" />
</g>
<g id="#14aa86ff">
<path fill="#14aa86" opacity="1.00" d=" M 7.11 28.17 C 8.10 28.48 9.09 28.77 10.07 29.10 C 7.96 29.56 9.67 31.70 11.06 30.54 C 10.61 31.01 9.70 31.96 9.24 32.43 C 8.53 31.01 7.82 29.60 7.11 28.17 Z" />
<path fill="#14aa86" opacity="1.00" d=" M 63.12 28.18 C 64.10 28.48 65.10 28.77 66.07 29.10 C 63.96 29.56 65.67 31.69 67.07 30.54 C 66.61 31.01 65.70 31.94 65.24 32.41 C 64.53 31.00 63.82 29.59 63.12 28.18 Z" />
<path fill="#14aa86" opacity="1.00" d=" M 119.10 28.19 C 120.09 28.48 121.09 28.76 122.07 29.09 C 119.96 29.56 121.68 31.69 123.07 30.51 C 122.61 30.98 121.70 31.92 121.24 32.39 C 120.53 30.99 119.81 29.59 119.10 28.19 Z" />
<path fill="#14aa86" opacity="1.00" d=" M 175.10 28.18 C 176.09 28.48 177.08 28.77 178.06 29.10 C 175.96 29.57 177.68 31.70 179.07 30.53 C 178.62 31.01 177.72 31.96 177.27 32.43 C 176.55 31.02 175.82 29.60 175.10 28.18 Z" />
</g>
<g id="#85acd6ff">
<path fill="#85acd6" opacity="1.00" d=" M 48.54 31.35 C 48.38 29.10 51.13 27.18 52.38 29.71 C 51.17 30.40 49.87 30.92 48.54 31.35 Z" />
<path fill="#85acd6" opacity="1.00" d=" M 104.50 31.43 C 104.26 28.80 107.01 28.19 108.81 29.55 C 107.44 30.33 106.04 31.06 104.50 31.43 Z" />
</g>
<g id="#80b0d9ff">
<path fill="#80b0d9" opacity="1.00" d=" M 217.94 29.67 C 218.45 27.26 221.69 28.79 219.37 30.29 C 219.01 30.13 218.30 29.82 217.94 29.67 Z" />
<path fill="#80b0d9" opacity="1.00" d=" M 1.86 41.85 C 0.93 40.35 3.15 39.52 3.63 41.13 L 3.56 41.94 L 2.67 42.23 L 1.86 41.85 Z" />
<path fill="#80b0d9" opacity="1.00" d=" M 58.09 41.88 C 57.00 40.29 59.40 39.26 59.65 41.23 L 59.38 42.11 L 58.76 42.39 L 58.09 41.88 Z" />
<path fill="#80b0d9" opacity="1.00" d=" M 114.09 41.88 C 113.01 40.28 115.41 39.27 115.66 41.24 L 115.39 42.11 L 114.75 42.39 L 114.09 41.88 Z" />
<path fill="#80b0d9" opacity="1.00" d=" M 170.54 42.15 C 169.08 40.90 171.23 39.38 172.01 41.09 L 171.98 41.95 L 171.41 42.31 L 170.54 42.15 Z" />
</g>
<g id="#87af5cff">
<path fill="#87af5c" opacity="1.00" d=" M 25.36 32.20 C 25.68 31.23 25.99 30.25 26.30 29.27 C 29.63 31.57 33.55 32.60 37.48 33.24 L 38.02 33.58 C 37.53 34.91 37.03 36.23 36.52 37.56 C 33.69 36.11 30.96 34.46 28.20 32.89 C 28.36 34.94 28.52 37.00 28.66 39.06 C 24.43 39.33 20.18 39.62 15.99 40.37 C 16.25 40.95 16.76 42.12 17.01 42.70 C 16.00 43.27 14.98 43.84 13.99 44.44 C 14.11 43.62 14.36 41.97 14.48 41.14 C 12.82 41.75 11.17 42.36 9.51 42.96 C 9.00 43.16 7.98 43.57 7.47 43.77 L 7.23 43.25 C 6.62 41.79 5.76 40.44 4.63 39.32 C 6.30 39.05 7.97 38.78 9.63 38.50 C 9.65 37.97 9.68 36.91 9.70 36.38 C 8.82 35.87 7.95 35.35 7.07 34.84 L 7.51 34.18 C 8.48 34.02 9.45 33.84 10.42 33.66 C 11.01 33.55 12.18 33.34 12.76 33.24 C 12.57 34.03 12.19 35.62 12.00 36.41 C 11.69 37.63 11.38 38.83 11.07 40.04 L 11.71 39.68 C 16.54 37.85 21.71 37.55 26.81 38.00 C 25.89 36.93 24.96 35.87 23.98 34.86 L 23.55 34.41 C 24.00 33.86 24.91 32.76 25.36 32.20 Z" />
<path fill="#87af5c" opacity="1.00" d=" M 137.36 32.20 C 137.68 31.22 138.00 30.23 138.32 29.24 C 141.61 31.34 145.25 32.77 149.02 33.77 L 149.15 34.59 C 149.06 35.74 148.87 36.89 148.69 38.04 C 146.02 36.05 143.14 34.37 140.26 32.71 C 140.39 34.83 140.52 36.95 140.64 39.07 C 136.41 39.33 132.17 39.62 128.00 40.37 C 128.25 40.96 128.74 42.15 128.99 42.74 C 127.97 43.30 126.96 43.86 125.97 44.46 C 126.08 43.60 126.32 41.89 126.43 41.03 C 124.83 41.73 123.25 42.45 121.65 43.15 C 121.25 43.34 120.45 43.70 120.05 43.89 L 119.69 43.34 C 118.76 41.98 117.76 40.66 116.70 39.41 C 118.66 38.79 120.62 38.13 122.59 37.49 C 121.34 36.53 120.08 35.58 118.83 34.63 L 119.17 33.99 C 120.26 33.85 121.35 33.70 122.45 33.53 C 123.03 33.44 124.19 33.27 124.77 33.19 C 124.58 33.99 124.19 35.61 124.00 36.41 C 123.69 37.63 123.37 38.83 123.06 40.04 L 123.71 39.68 C 128.53 37.85 133.71 37.55 138.81 38.00 C 137.89 36.93 136.96 35.87 135.98 34.86 L 135.55 34.41 C 136.00 33.86 136.91 32.76 137.36 32.20 Z" />
</g>
<g id="#99c669ff">
<path fill="#99c669" opacity="1.00" d=" M 3.68 30.51 C 5.62 31.30 7.54 32.14 9.48 32.92 C 9.81 33.04 10.47 33.29 10.79 33.41 L 10.42 33.66 C 9.45 33.84 8.48 34.02 7.51 34.18 L 6.51 34.02 C 6.00 33.55 4.98 32.63 4.47 32.17 C 4.11 31.95 3.39 31.53 3.04 31.31 L 3.68 30.51 Z" />
<path fill="#99c669" opacity="1.00" d=" M 59.38 30.21 C 61.42 31.09 63.44 32.01 65.48 32.90 C 65.81 33.03 66.46 33.28 66.78 33.40 L 66.43 33.63 C 65.45 33.81 64.47 33.98 63.48 34.13 L 62.53 34.12 C 62.00 33.63 60.96 32.66 60.43 32.17 C 60.08 31.91 59.38 31.37 59.04 31.10 L 59.38 30.21 Z" />
<path fill="#99c669" opacity="1.00" d=" M 114.57 30.39 C 116.90 31.14 119.19 32.00 121.48 32.87 C 121.81 32.98 122.47 33.21 122.81 33.32 L 122.45 33.53 C 121.35 33.70 120.26 33.85 119.17 33.99 L 118.17 34.10 C 117.71 32.65 116.47 31.69 115.17 31.05 L 114.57 30.39 Z" />
<path fill="#99c669" opacity="1.00" d=" M 171.10 30.35 C 173.26 31.16 175.38 32.06 177.52 32.93 C 177.85 33.05 178.52 33.29 178.85 33.41 L 178.43 33.73 C 177.35 33.88 176.26 33.98 175.17 34.02 L 174.49 33.62 C 173.96 33.26 172.89 32.55 172.36 32.19 C 171.98 31.96 171.22 31.51 170.84 31.28 L 171.10 30.35 Z" />
</g>
<g id="#5f9368ff">
<path fill="#5f9368" opacity="1.00" d=" M 11.58 30.04 L 11.99 30.44 C 12.03 31.67 11.63 32.66 10.79 33.41 C 10.47 33.29 9.81 33.04 9.48 32.92 L 9.24 32.43 C 9.70 31.96 10.61 31.01 11.06 30.54 L 11.58 30.04 Z" />
<path fill="#5f9368" opacity="1.00" d=" M 20.96 31.08 C 20.18 32.90 18.45 31.09 19.19 29.81 C 19.60 29.91 20.42 30.12 20.84 30.23 L 20.96 31.08 Z" />
<path fill="#5f9368" opacity="1.00" d=" M 67.59 30.04 L 67.99 30.44 C 68.03 31.68 67.63 32.67 66.78 33.40 C 66.46 33.28 65.81 33.03 65.48 32.90 L 65.24 32.41 C 65.70 31.94 66.61 31.01 67.07 30.54 L 67.59 30.04 Z" />
<path fill="#5f9368" opacity="1.00" d=" M 76.96 31.08 C 76.18 32.90 74.45 31.09 75.19 29.81 C 75.60 29.91 76.42 30.12 76.84 30.23 L 76.96 31.08 Z" />
<path fill="#5f9368" opacity="1.00" d=" M 123.59 30.01 L 124.01 30.40 C 124.07 31.64 123.67 32.61 122.81 33.32 C 122.47 33.21 121.81 32.98 121.48 32.87 L 121.24 32.39 C 121.70 31.92 122.61 30.98 123.07 30.51 L 123.59 30.01 Z" />
<path fill="#5f9368" opacity="1.00" d=" M 132.96 31.08 C 132.18 32.90 130.45 31.09 131.19 29.81 C 131.60 29.91 132.42 30.12 132.84 30.23 L 132.96 31.08 Z" />
<path fill="#5f9368" opacity="1.00" d=" M 179.58 30.03 L 179.99 30.42 C 180.03 31.64 179.65 32.64 178.85 33.41 C 178.52 33.29 177.85 33.05 177.52 32.93 L 177.27 32.43 C 177.72 31.96 178.62 31.01 179.07 30.53 L 179.58 30.03 Z" />
<path fill="#5f9368" opacity="1.00" d=" M 188.96 31.08 C 188.18 32.90 186.45 31.09 187.19 29.81 C 187.60 29.91 188.42 30.12 188.84 30.23 L 188.96 31.08 Z" />
</g>
<g id="#b0c3d0ff">
<path fill="#b0c3d0" opacity="1.00" d=" M 34.57 30.80 L 35.22 30.79 C 37.87 30.78 40.53 30.89 43.19 30.84 C 40.67 31.18 38.16 31.50 35.63 31.68 C 35.36 31.46 34.83 31.02 34.57 30.80 Z" />
</g>
<g id="#4575cbff">
<path fill="#4575cb" opacity="1.00" d=" M 217.94 29.67 C 218.30 29.82 219.01 30.13 219.37 30.29 C 220.76 31.99 216.86 32.79 217.15 30.70 C 217.35 30.45 217.75 29.93 217.94 29.67 Z" />
<path fill="#4575cb" opacity="1.00" d=" M 163.99 44.22 C 164.57 43.16 166.42 43.16 167.01 44.22 C 167.35 46.02 163.65 46.02 163.99 44.22 Z" />
</g>
<g id="#2f88d3ff">
<path fill="#2f88d3" opacity="1.00" d=" M 148.26 31.47 C 148.76 31.53 149.77 31.66 150.27 31.72 C 151.64 31.86 154.38 32.13 155.76 32.26 C 156.40 32.12 157.67 31.82 158.31 31.67 C 158.83 31.54 159.86 31.28 160.38 31.15 C 157.25 33.80 153.08 34.30 149.15 34.59 L 149.02 33.77 C 148.83 33.20 148.45 32.04 148.26 31.47 Z" />
</g>
<g id="#3c6fc3ff">
<path fill="#3c6fc3" opacity="1.00" d=" M 0.00 33.19 L 0.49 32.83 C 2.51 33.18 4.50 33.64 6.51 34.02 L 7.51 34.18 L 7.07 34.84 C 6.20 36.30 5.42 37.81 4.63 39.32 L 4.16 39.39 C 2.78 39.55 1.39 39.70 0.00 39.86 L 0.00 33.19 Z" />
</g>
<g id="#416845ff">
<path fill="#416845" opacity="1.00" d=" M 23.55 34.41 C 21.73 33.34 23.92 31.17 25.36 32.20 C 24.91 32.76 24.00 33.86 23.55 34.41 Z" />
<path fill="#416845" opacity="1.00" d=" M 79.55 34.41 C 77.73 33.34 79.92 31.17 81.36 32.20 C 80.91 32.76 80.00 33.86 79.55 34.41 Z" />
<path fill="#416845" opacity="1.00" d=" M 135.55 34.41 C 133.73 33.34 135.92 31.17 137.36 32.20 C 136.91 32.76 136.00 33.86 135.55 34.41 Z" />
<path fill="#416845" opacity="1.00" d=" M 191.55 34.41 C 189.73 33.34 191.92 31.17 193.36 32.20 C 192.91 32.76 192.00 33.86 191.55 34.41 Z" />
</g>
<g id="#79b5e5ff">
<path fill="#79b5e5" opacity="1.00" d=" M 114.36 32.62 C 114.56 32.23 114.96 31.45 115.17 31.05 C 116.47 31.69 117.71 32.65 118.17 34.10 C 116.72 34.40 115.43 33.47 114.36 32.62 Z" />
</g>
<g id="#6f9a55ff">
<path fill="#6f9a55" opacity="1.00" d=" M 28.20 32.89 C 30.96 34.46 33.69 36.11 36.52 37.56 C 37.12 37.66 37.71 37.74 38.31 37.80 C 38.14 38.73 37.98 39.65 37.81 40.57 C 37.16 40.29 35.85 39.72 35.20 39.44 C 34.18 39.18 33.16 38.93 32.15 38.67 C 32.77 34.92 28.79 37.23 30.25 39.79 C 27.04 41.54 23.93 43.45 20.72 45.19 C 19.48 44.36 18.25 43.53 17.01 42.70 C 16.76 42.12 16.25 40.95 15.99 40.37 C 20.18 39.62 24.43 39.33 28.66 39.06 C 28.52 37.00 28.36 34.94 28.20 32.89 Z" />
</g>
<g id="#6e9953ff">
<path fill="#6e9953" opacity="1.00" d=" M 84.23 32.80 C 87.19 34.45 90.11 36.17 92.99 37.96 C 93.18 38.08 93.56 38.31 93.74 38.42 C 93.05 38.74 91.66 39.38 90.96 39.69 C 90.03 39.34 89.10 38.99 88.18 38.63 C 88.74 34.89 84.81 37.24 86.26 39.77 C 83.08 41.55 79.95 43.41 76.74 45.12 C 75.49 44.31 74.23 43.51 72.97 42.72 C 72.73 42.13 72.24 40.95 72.00 40.37 C 76.18 39.62 80.42 39.33 84.65 39.07 C 84.52 36.97 84.37 34.89 84.23 32.80 Z" />
<path fill="#6e9953" opacity="1.00" d=" M 140.26 32.71 C 143.14 34.37 146.02 36.05 148.69 38.04 L 148.58 38.75 L 147.76 39.15 C 146.84 39.21 145.02 39.32 144.11 39.37 C 145.19 35.78 141.10 36.71 142.12 39.78 C 138.89 41.31 135.84 43.19 132.78 45.02 C 131.51 44.26 130.25 43.50 128.99 42.74 C 128.74 42.15 128.25 40.96 128.00 40.37 C 132.17 39.62 136.41 39.33 140.64 39.07 C 140.52 36.95 140.39 34.83 140.26 32.71 Z" />
</g>
<g id="#6d9955ff">
<path fill="#6d9955" opacity="1.00" d=" M 196.18 32.93 C 198.95 34.40 201.69 35.94 204.47 37.40 C 205.16 37.75 205.86 38.10 206.56 38.43 C 206.64 38.79 206.80 39.52 206.88 39.88 C 205.63 39.60 204.37 39.41 203.09 39.32 C 202.08 39.18 201.07 39.03 200.07 38.87 C 200.87 35.04 196.81 37.17 198.21 39.88 C 195.02 41.56 191.92 43.42 188.73 45.11 C 187.48 44.30 186.23 43.50 184.98 42.71 C 184.73 42.13 184.25 40.95 184.00 40.37 C 188.19 39.61 192.43 39.33 196.67 39.06 C 196.51 37.02 196.34 34.98 196.18 32.93 Z" />
</g>
<g id="#708b50ff">
<path fill="#708b50" opacity="1.00" d=" M 4.63 39.32 C 5.42 37.81 6.20 36.30 7.07 34.84 C 7.95 35.35 8.82 35.87 9.70 36.38 C 9.68 36.91 9.65 37.97 9.63 38.50 C 7.97 38.78 6.30 39.05 4.63 39.32 Z" />
<path fill="#708b50" opacity="1.00" d=" M 60.63 39.37 C 61.43 37.81 62.21 36.24 63.10 34.73 C 64.26 35.66 65.41 36.59 66.57 37.53 C 64.59 38.14 62.61 38.75 60.63 39.37 Z" />
<path fill="#708b50" opacity="1.00" d=" M 116.70 39.41 C 117.39 37.81 118.08 36.21 118.83 34.63 C 120.08 35.58 121.34 36.53 122.59 37.49 C 120.62 38.13 118.66 38.79 116.70 39.41 Z" />
<path fill="#708b50" opacity="1.00" d=" M 172.61 39.16 C 173.52 37.55 174.47 35.95 175.44 34.36 C 176.41 35.59 177.38 36.81 178.36 38.04 C 176.44 38.42 174.53 38.80 172.61 39.16 Z" />
</g>
<g id="#4674a8ff">
<path fill="#4674a8" opacity="1.00" d=" M 30.25 39.79 C 28.79 37.23 32.77 34.92 32.15 38.67 C 31.67 38.95 30.72 39.51 30.25 39.79 Z" />
<path fill="#4674a8" opacity="1.00" d=" M 86.26 39.77 C 84.81 37.24 88.74 34.89 88.18 38.63 C 87.70 38.92 86.74 39.49 86.26 39.77 Z" />
<path fill="#4674a8" opacity="1.00" d=" M 142.12 39.78 C 141.10 36.71 145.19 35.78 144.11 39.37 C 143.61 39.47 142.62 39.68 142.12 39.78 Z" />
<path fill="#4674a8" opacity="1.00" d=" M 198.21 39.88 C 196.81 37.17 200.87 35.04 200.07 38.87 C 199.60 39.13 198.68 39.63 198.21 39.88 Z" />
</g>
<g id="#4081cbff">
<path fill="#4081cb" opacity="1.00" d=" M 206.04 36.08 C 207.35 36.74 208.66 37.43 209.98 38.11 C 209.98 39.14 209.96 40.18 209.92 41.21 C 202.42 41.35 196.96 46.66 190.62 49.80 C 193.61 47.15 196.43 44.31 199.37 41.59 C 200.18 41.08 201.00 40.58 201.81 40.07 C 202.68 41.38 207.53 42.81 206.88 39.88 C 206.80 39.52 206.64 38.79 206.56 38.43 C 206.43 37.84 206.17 36.66 206.04 36.08 Z" />
</g>
<g id="#2b95ecff">
<path fill="#2b95ec" opacity="1.00" d=" M 38.31 37.80 C 39.08 37.88 39.85 37.95 40.62 38.01 C 40.73 38.88 40.83 39.75 40.94 40.62 C 40.13 40.75 38.51 41.03 37.71 41.17 L 37.81 40.57 C 37.98 39.65 38.14 38.73 38.31 37.80 Z" />
</g>
<g id="#4380c9ff">
<path fill="#4380c9" opacity="1.00" d=" M 96.33 37.82 C 97.08 37.76 98.58 37.64 99.33 37.58 C 93.68 43.40 85.17 45.08 78.59 49.63 C 81.59 47.04 84.41 44.25 87.33 41.57 C 87.91 41.25 88.49 40.94 89.07 40.64 C 90.88 40.88 92.69 41.12 94.51 41.31 C 96.54 41.81 97.47 39.23 96.33 37.82 Z" />
</g>
<g id="#417bcbff">
<path fill="#417bcb" opacity="1.00" d=" M 149.56 38.28 C 150.71 37.72 151.87 37.17 153.03 36.62 C 153.40 38.16 153.76 39.70 154.11 41.25 C 147.20 41.62 141.57 45.39 136.57 49.80 C 136.23 49.78 135.53 49.75 135.18 49.73 C 137.72 46.85 140.34 44.03 143.18 41.43 C 143.74 41.15 144.31 40.88 144.88 40.61 C 146.88 40.53 148.88 40.60 150.89 40.64 C 150.56 40.05 149.89 38.87 149.56 38.28 Z" />
</g>
<g id="#1795f5fe">
<path fill="#1795f5" opacity="1.00" d=" M 94.47 38.20 C 94.93 38.10 95.86 37.91 96.33 37.82 C 97.47 39.23 96.54 41.81 94.51 41.31 C 94.43 40.27 94.41 39.23 94.47 38.20 Z" />
</g>
<g id="#208ee3ff">
<path fill="#208ee3" opacity="1.00" d=" M 0.00 39.86 C 1.39 39.70 2.78 39.55 4.16 39.39 C 4.03 39.82 3.76 40.69 3.63 41.13 C 3.15 39.52 0.93 40.35 1.86 41.85 C 1.40 41.62 0.47 41.17 0.00 40.94 L 0.00 39.86 Z" />
<path fill="#208ee3" opacity="1.00" d=" M 55.42 39.64 C 57.01 39.51 58.60 39.42 60.19 39.37 C 60.06 39.84 59.79 40.77 59.65 41.23 C 59.40 39.26 57.00 40.29 58.09 41.88 C 57.19 41.15 56.31 40.40 55.42 39.64 Z" />
<path fill="#208ee3" opacity="1.00" d=" M 111.43 39.63 C 113.02 39.52 114.62 39.44 116.22 39.38 C 116.08 39.85 115.80 40.77 115.66 41.24 C 115.41 39.27 113.01 40.28 114.09 41.88 C 113.19 41.15 112.31 40.39 111.43 39.63 Z" />
<path fill="#208ee3" opacity="1.00" d=" M 167.24 41.42 C 168.78 40.31 170.39 39.32 172.06 38.40 C 172.05 39.07 172.02 40.42 172.01 41.09 C 171.23 39.38 169.08 40.90 170.54 42.15 C 169.72 41.97 168.06 41.60 167.24 41.42 Z" />
</g>
<g id="#cfcb8afe">
<path fill="#cfcb8a" opacity="1.00" d=" M 4.16 39.39 L 4.63 39.32 C 5.76 40.44 6.62 41.79 7.23 43.25 C 6.01 42.80 4.78 42.40 3.56 41.94 L 3.63 41.13 C 3.76 40.69 4.03 39.82 4.16 39.39 Z" />
</g>
<g id="#ccca90ff">
<path fill="#ccca90" opacity="1.00" d=" M 30.25 39.79 C 30.72 39.51 31.67 38.95 32.15 38.67 C 33.16 38.93 34.18 39.18 35.20 39.44 L 34.60 39.80 C 33.55 40.43 32.50 41.06 31.45 41.70 C 29.97 42.42 28.46 43.07 26.97 43.75 C 24.77 43.68 22.52 44.30 21.28 46.25 C 20.89 46.83 20.12 47.98 19.73 48.56 C 17.65 48.39 15.56 48.33 13.48 48.40 L 12.79 48.56 C 12.60 47.90 12.22 46.60 12.03 45.95 L 11.92 45.55 C 12.38 45.56 13.30 45.58 13.76 45.58 C 16.08 45.52 18.42 45.55 20.72 45.19 C 23.93 43.45 27.04 41.54 30.25 39.79 Z" />
</g>
<g id="#bcbf90ff">
<path fill="#bcbf90" opacity="1.00" d=" M 60.19 39.37 L 60.63 39.37 C 61.73 40.64 62.75 41.97 63.71 43.35 C 62.40 42.57 60.90 42.14 59.38 42.11 L 59.65 41.23 C 59.79 40.77 60.06 39.84 60.19 39.37 Z" />
<path fill="#bcbf90" opacity="1.00" d=" M 116.22 39.38 L 116.70 39.41 C 117.76 40.66 118.76 41.98 119.69 43.34 C 118.39 42.56 116.90 42.15 115.39 42.11 L 115.66 41.24 C 115.80 40.77 116.08 39.85 116.22 39.38 Z" />
<path fill="#bcbf90" opacity="1.00" d=" M 172.06 38.40 L 172.61 39.16 C 173.60 40.53 174.61 41.88 175.57 43.27 C 174.39 42.78 173.20 42.32 171.98 41.95 L 172.01 41.09 C 172.02 40.42 172.05 39.07 172.06 38.40 Z" />
</g>
<g id="#c4c592ff">
<path fill="#c4c592" opacity="1.00" d=" M 86.26 39.77 C 86.74 39.49 87.70 38.92 88.18 38.63 C 89.10 38.99 90.03 39.34 90.96 39.69 C 90.49 39.93 89.55 40.40 89.07 40.64 C 88.49 40.94 87.91 41.25 87.33 41.57 C 85.89 42.31 84.44 43.01 82.99 43.73 C 80.76 43.72 78.64 44.57 77.27 46.38 C 76.20 47.06 75.88 47.96 76.31 49.06 C 75.48 49.18 74.65 49.29 73.82 49.38 C 73.28 48.13 72.37 47.60 71.07 47.79 C 70.51 47.82 69.38 47.90 68.81 47.94 C 68.64 47.31 68.30 46.05 68.12 45.42 L 67.91 45.04 C 68.36 45.37 69.25 46.03 69.69 46.36 C 72.05 46.03 74.44 45.77 76.74 45.12 C 79.95 43.41 83.08 41.55 86.26 39.77 Z" />
</g>
<g id="#a5bdc8ff">
<path fill="#a5bdc8" opacity="1.00" d=" M 93.74 38.42 L 94.47 38.20 C 94.41 39.23 94.43 40.27 94.51 41.31 C 92.69 41.12 90.88 40.88 89.07 40.64 C 89.55 40.40 90.49 39.93 90.96 39.69 C 91.66 39.38 93.05 38.74 93.74 38.42 Z" />
<path fill="#a5bdc8" opacity="1.00" d=" M 147.76 39.15 L 148.58 38.75 C 148.82 38.63 149.31 38.39 149.56 38.28 C 149.89 38.87 150.56 40.05 150.89 40.64 C 148.88 40.60 146.88 40.53 144.88 40.61 C 145.60 40.24 147.04 39.51 147.76 39.15 Z" />
</g>
<g id="#cbc98aff">
<path fill="#cbc98a" opacity="1.00" d=" M 142.12 39.78 C 142.62 39.68 143.61 39.47 144.11 39.37 C 145.02 39.32 146.84 39.21 147.76 39.15 C 147.04 39.51 145.60 40.24 144.88 40.61 C 144.31 40.88 143.74 41.15 143.18 41.43 C 141.31 42.20 139.39 42.82 137.47 43.42 C 135.76 43.68 133.52 44.84 134.33 46.93 C 133.60 47.33 132.14 48.12 131.41 48.51 C 129.75 48.36 126.41 48.05 124.75 47.89 C 124.60 47.25 124.31 45.98 124.17 45.34 L 123.96 44.95 C 124.39 45.24 125.24 45.81 125.67 46.09 C 126.85 46.15 129.21 46.26 130.39 46.31 C 131.19 45.90 131.99 45.47 132.78 45.02 C 135.84 43.19 138.89 41.31 142.12 39.78 Z" />
</g>
<g id="#427acbff">
<path fill="#427acb" opacity="1.00" d=" M 155.79 43.80 C 157.82 42.81 159.11 40.83 160.62 39.22 C 160.80 41.22 161.06 43.21 161.40 45.19 C 159.41 45.81 157.47 46.75 155.37 46.90 C 152.56 46.36 149.98 45.01 147.43 43.77 C 150.20 43.95 153.05 44.52 155.79 43.80 Z" />
<path fill="#427acb" opacity="1.00" d=" M 199.59 44.80 C 207.65 43.20 215.92 44.34 224.00 45.11 L 224.00 45.94 C 219.83 46.29 215.68 47.17 211.48 47.06 C 207.48 46.55 203.56 45.53 199.59 44.80 Z" />
</g>
<g id="#cdca8eff">
<path fill="#cdca8e" opacity="1.00" d=" M 198.21 39.88 C 198.68 39.63 199.60 39.13 200.07 38.87 C 201.07 39.03 202.08 39.18 203.09 39.32 C 202.77 39.51 202.13 39.88 201.81 40.07 C 201.00 40.58 200.18 41.08 199.37 41.59 C 197.90 42.36 196.40 43.06 194.91 43.79 C 192.69 43.67 190.11 44.27 189.46 46.72 C 189.02 47.19 188.14 48.12 187.70 48.58 C 187.21 48.43 186.25 48.12 185.77 47.97 C 185.07 47.99 183.68 48.01 182.99 48.02 C 182.44 48.00 181.35 47.94 180.81 47.91 C 180.63 47.28 180.28 46.01 180.11 45.38 L 179.91 45.02 C 180.35 45.35 181.24 46.00 181.68 46.33 C 184.03 46.00 186.43 45.77 188.73 45.11 C 191.92 43.42 195.02 41.56 198.21 39.88 Z" />
</g>
<g id="#437ccbff">
<path fill="#437ccb" opacity="1.00" d=" M 31.45 41.70 C 32.50 41.06 33.55 40.43 34.60 39.80 C 34.86 41.19 36.51 41.71 37.71 41.17 C 37.68 42.50 37.66 43.83 37.64 45.17 C 40.46 43.83 43.29 42.53 46.02 41.01 C 47.09 45.61 51.98 46.54 56.09 46.87 C 51.81 47.03 47.41 46.72 43.33 48.25 C 40.70 47.00 38.04 45.53 35.08 45.31 C 31.05 45.35 27.69 47.95 24.18 49.63 C 27.21 51.50 30.11 53.58 32.73 56.00 L 31.72 56.00 C 27.44 51.59 21.20 52.69 16.64 56.00 L 15.57 56.00 C 17.43 54.45 19.20 52.79 20.98 51.15 C 24.41 47.93 27.90 44.78 31.45 41.70 Z" />
</g>
<g id="#adc2d9fe">
<path fill="#adc2d9" opacity="1.00" d=" M 201.81 40.07 C 202.13 39.88 202.77 39.51 203.09 39.32 C 204.37 39.41 205.63 39.60 206.88 39.88 C 207.53 42.81 202.68 41.38 201.81 40.07 Z" />
</g>
<g id="#6f9a52ff">
<path fill="#6f9a52" opacity="1.00" d=" M 9.51 42.96 C 11.17 42.36 12.82 41.75 14.48 41.14 C 14.36 41.97 14.11 43.62 13.99 44.44 C 13.93 44.73 13.82 45.30 13.76 45.58 C 13.30 45.58 12.38 45.56 11.92 45.55 C 11.25 44.56 10.45 43.69 9.51 42.96 Z" />
<path fill="#6f9a52" opacity="1.00" d=" M 65.66 43.17 C 67.24 42.45 68.82 41.73 70.41 41.02 C 70.30 41.89 70.10 43.63 69.99 44.49 C 69.92 44.96 69.77 45.89 69.69 46.36 C 69.25 46.03 68.36 45.37 67.91 45.04 C 67.17 44.40 66.42 43.78 65.66 43.17 Z" />
<path fill="#6f9a52" opacity="1.00" d=" M 121.65 43.15 C 123.25 42.45 124.83 41.73 126.43 41.03 C 126.32 41.89 126.08 43.60 125.97 44.46 C 125.89 44.87 125.74 45.69 125.67 46.09 C 125.24 45.81 124.39 45.24 123.96 44.95 C 123.20 44.34 122.43 43.74 121.65 43.15 Z" />
<path fill="#6f9a52" opacity="1.00" d=" M 177.50 43.07 C 179.16 42.47 180.81 41.83 182.46 41.20 C 182.35 42.02 182.12 43.66 182.01 44.48 C 181.93 44.95 181.77 45.87 181.68 46.33 C 181.24 46.00 180.35 45.35 179.91 45.02 C 179.11 44.36 178.31 43.70 177.50 43.07 Z" />
</g>
<g id="#1b9dfbff">
<path fill="#1b9dfb" opacity="1.00" d=" M 26.97 43.75 C 28.46 43.07 29.97 42.42 31.45 41.70 C 27.90 44.78 24.41 47.93 20.98 51.15 C 19.71 50.98 18.44 50.81 17.17 50.64 C 17.28 50.24 17.50 49.45 17.62 49.05 C 16.58 48.89 14.51 48.56 13.48 48.40 C 15.56 48.33 17.65 48.39 19.73 48.56 C 21.14 49.19 23.12 48.03 21.91 46.45 C 24.00 46.53 25.58 45.11 26.97 43.75 Z" />
</g>
<g id="#189cf8fe">
<path fill="#189cf8" opacity="1.00" d=" M 82.99 43.73 C 84.44 43.01 85.89 42.31 87.33 41.57 C 84.41 44.25 81.59 47.04 78.59 49.63 C 74.87 51.58 70.64 49.88 66.81 49.23 C 66.58 48.82 66.14 48.02 65.92 47.62 C 65.51 46.92 65.09 46.23 64.65 45.56 C 65.37 45.58 66.80 45.63 67.51 45.66 C 66.96 47.13 67.40 47.89 68.81 47.94 C 69.38 47.90 70.51 47.82 71.07 47.79 C 71.40 49.20 72.32 49.73 73.82 49.38 C 74.65 49.29 75.48 49.18 76.31 49.06 C 77.76 48.69 78.08 47.80 77.27 46.38 C 79.62 46.99 81.60 45.44 82.99 43.73 Z" />
</g>
<g id="#1b97f5ff">
<path fill="#1b97f5" opacity="1.00" d=" M 137.47 43.42 C 139.39 42.82 141.31 42.20 143.18 41.43 C 140.34 44.03 137.72 46.85 135.18 49.73 C 131.04 49.57 126.91 49.35 122.77 49.12 C 122.55 48.71 122.11 47.90 121.89 47.50 C 121.50 46.83 121.10 46.17 120.68 45.53 C 121.39 45.54 122.82 45.56 123.53 45.57 C 122.93 46.95 123.34 47.72 124.75 47.89 C 126.41 48.05 129.75 48.36 131.41 48.51 C 132.77 49.21 134.36 48.70 134.97 47.27 C 136.00 46.13 136.90 44.86 137.47 43.42 Z" />
</g>
<g id="#1b9df7ff">
<path fill="#1b9df7" opacity="1.00" d=" M 194.91 43.79 C 196.40 43.06 197.90 42.36 199.37 41.59 C 196.43 44.31 193.61 47.15 190.62 49.80 C 186.88 51.95 182.36 50.13 178.58 48.97 C 178.39 48.62 178.00 47.92 177.81 47.57 C 177.39 46.82 176.99 46.06 176.59 45.30 C 177.31 45.37 178.77 45.50 179.50 45.57 C 178.95 46.99 179.39 47.77 180.81 47.91 C 181.35 47.94 182.44 48.00 182.99 48.02 C 183.46 49.29 185.89 49.86 185.77 47.97 C 186.25 48.12 187.21 48.43 187.70 48.58 C 188.90 49.53 190.68 47.86 189.46 46.72 C 191.67 46.69 193.39 45.23 194.91 43.79 Z" />
</g>
<g id="#3d70c1ff">
<path fill="#3d70c1" opacity="1.00" d=" M 0.00 40.94 C 0.47 41.17 1.40 41.62 1.86 41.85 L 2.67 42.23 C 4.40 43.07 6.12 43.91 7.87 44.71 C 9.16 45.38 10.60 45.73 12.03 45.95 C 12.22 46.60 12.60 47.90 12.79 48.56 C 12.28 47.33 10.73 46.71 9.58 47.47 C 7.46 48.34 5.36 49.26 3.29 50.25 C 2.28 50.74 1.28 51.24 0.27 51.75 C 4.85 52.07 9.43 52.33 14.02 52.32 C 13.70 52.00 13.08 51.35 12.77 51.03 C 12.42 50.66 11.71 49.92 11.35 49.55 L 10.64 48.79 C 11.12 48.86 12.07 49.02 12.55 49.09 C 14.03 49.77 15.52 50.53 17.17 50.64 C 18.44 50.81 19.71 50.98 20.98 51.15 C 19.20 52.79 17.43 54.45 15.57 56.00 L 0.00 56.00 L 0.00 40.94 Z" />
</g>
<g id="#238ddeff">
<path fill="#238dde" opacity="1.00" d=" M 2.67 42.23 L 3.56 41.94 C 4.78 42.40 6.01 42.80 7.23 43.25 L 7.47 43.77 C 7.57 44.00 7.77 44.48 7.87 44.71 C 6.12 43.91 4.40 43.07 2.67 42.23 Z" />
</g>
<g id="#238de0fe">
<path fill="#238de0" opacity="1.00" d=" M 58.76 42.39 L 59.38 42.11 C 60.90 42.14 62.40 42.57 63.71 43.35 L 64.07 43.90 C 63.95 44.15 63.71 44.66 63.59 44.91 C 61.87 44.29 60.15 43.60 58.76 42.39 Z" />
<path fill="#238de0" opacity="1.00" d=" M 114.75 42.39 L 115.39 42.11 C 116.90 42.15 118.39 42.56 119.69 43.34 L 120.05 43.89 C 119.93 44.14 119.70 44.65 119.58 44.91 C 117.86 44.30 116.15 43.60 114.75 42.39 Z" />
<path fill="#238de0" opacity="1.00" d=" M 171.41 42.31 L 171.98 41.95 C 173.20 42.32 174.39 42.78 175.57 43.27 L 175.83 43.64 C 175.73 43.84 175.54 44.24 175.45 44.44 C 174.04 44.83 171.26 44.06 171.41 42.31 Z" />
</g>
<g id="#b6c4c2fe">
<path fill="#b6c4c2" opacity="1.00" d=" M 7.47 43.77 C 7.98 43.57 9.00 43.16 9.51 42.96 C 10.45 43.69 11.25 44.56 11.92 45.55 L 12.03 45.95 C 10.60 45.73 9.16 45.38 7.87 44.71 C 7.77 44.48 7.57 44.00 7.47 43.77 Z" />
<path fill="#b6c4c2" opacity="1.00" d=" M 64.07 43.90 C 64.47 43.71 65.26 43.35 65.66 43.17 C 66.42 43.78 67.17 44.40 67.91 45.04 L 68.12 45.42 L 67.51 45.66 C 66.80 45.63 65.37 45.58 64.65 45.56 C 64.39 45.40 63.86 45.07 63.59 44.91 C 63.71 44.66 63.95 44.15 64.07 43.90 Z" />
<path fill="#b6c4c2" opacity="1.00" d=" M 120.05 43.89 C 120.45 43.70 121.25 43.34 121.65 43.15 C 122.43 43.74 123.20 44.34 123.96 44.95 L 124.17 45.34 L 123.53 45.57 C 122.82 45.56 121.39 45.54 120.68 45.53 C 120.40 45.38 119.85 45.06 119.58 44.91 C 119.70 44.65 119.93 44.14 120.05 43.89 Z" />
<path fill="#b6c4c2" opacity="1.00" d=" M 175.83 43.64 C 176.25 43.49 177.08 43.21 177.50 43.07 C 178.31 43.70 179.11 44.36 179.91 45.02 L 180.11 45.38 L 179.50 45.57 C 178.77 45.50 177.31 45.37 176.59 45.30 C 176.30 45.09 175.73 44.66 175.45 44.44 C 175.54 44.24 175.73 43.84 175.83 43.64 Z" />
</g>
<g id="#96c16fff">
<path fill="#96c16f" opacity="1.00" d=" M 13.99 44.44 C 14.98 43.84 16.00 43.27 17.01 42.70 C 18.25 43.53 19.48 44.36 20.72 45.19 C 18.42 45.55 16.08 45.52 13.76 45.58 C 13.82 45.30 13.93 44.73 13.99 44.44 Z" />
<path fill="#96c16f" opacity="1.00" d=" M 69.99 44.49 C 70.97 43.88 71.97 43.30 72.97 42.72 C 74.23 43.51 75.49 44.31 76.74 45.12 C 74.44 45.77 72.05 46.03 69.69 46.36 C 69.77 45.89 69.92 44.96 69.99 44.49 Z" />
<path fill="#96c16f" opacity="1.00" d=" M 125.97 44.46 C 126.96 43.86 127.97 43.30 128.99 42.74 C 130.25 43.50 131.51 44.26 132.78 45.02 C 131.99 45.47 131.19 45.90 130.39 46.31 C 129.21 46.26 126.85 46.15 125.67 46.09 C 125.74 45.69 125.89 44.87 125.97 44.46 Z" />
<path fill="#96c16f" opacity="1.00" d=" M 182.01 44.48 C 182.98 43.87 183.98 43.29 184.98 42.71 C 186.23 43.50 187.48 44.30 188.73 45.11 C 186.43 45.77 184.03 46.00 181.68 46.33 C 181.77 45.87 181.93 44.95 182.01 44.48 Z" />
</g>
<g id="#a1b6c9fe">
<path fill="#a1b6c9" opacity="1.00" d=" M 21.28 46.25 C 22.52 44.30 24.77 43.68 26.97 43.75 C 25.58 45.11 24.00 46.53 21.91 46.45 L 21.28 46.25 Z" />
<path fill="#a1b6c9" opacity="1.00" d=" M 77.27 46.38 C 78.64 44.57 80.76 43.72 82.99 43.73 C 81.60 45.44 79.62 46.99 77.27 46.38 Z" />
<path fill="#a1b6c9" opacity="1.00" d=" M 189.46 46.72 C 190.11 44.27 192.69 43.67 194.91 43.79 C 193.39 45.23 191.67 46.69 189.46 46.72 Z" />
</g>
<g id="#9fb5c7ff">
<path fill="#9fb5c7" opacity="1.00" d=" M 134.33 46.93 C 133.52 44.84 135.76 43.68 137.47 43.42 C 136.90 44.86 136.00 46.13 134.97 47.27 L 134.33 46.93 Z" />
</g>
<g id="#4182cbff">
<path fill="#4182cb" opacity="1.00" d=" M 145.13 43.95 C 148.48 43.42 145.16 48.22 144.31 45.08 C 144.52 44.80 144.92 44.23 145.13 43.95 Z" />
</g>
<g id="#55829dff">
<path fill="#55829d" opacity="1.00" d=" M 67.51 45.66 L 68.12 45.42 C 68.30 46.05 68.64 47.31 68.81 47.94 C 67.40 47.89 66.96 47.13 67.51 45.66 Z" />
<path fill="#55829d" opacity="1.00" d=" M 123.53 45.57 L 124.17 45.34 C 124.31 45.98 124.60 47.25 124.75 47.89 C 123.34 47.72 122.93 46.95 123.53 45.57 Z" />
<path fill="#55829d" opacity="1.00" d=" M 179.50 45.57 L 180.11 45.38 C 180.28 46.01 180.63 47.28 180.81 47.91 C 179.39 47.77 178.95 46.99 179.50 45.57 Z" />
</g>
<g id="#7c7855ff">
<path fill="#7c7855" opacity="1.00" d=" M 3.29 50.25 C 5.36 49.26 7.46 48.34 9.58 47.47 C 9.85 47.80 10.38 48.46 10.64 48.79 L 11.35 49.55 C 8.65 49.56 5.97 49.89 3.29 50.25 Z" />
<path fill="#7c7855" opacity="1.00" d=" M 59.88 49.72 C 61.89 49.00 63.90 48.30 65.92 47.62 C 66.14 48.02 66.58 48.82 66.81 49.23 L 67.11 49.77 C 64.70 49.62 62.29 49.67 59.88 49.72 Z" />
<path fill="#7c7855" opacity="1.00" d=" M 115.86 49.90 C 117.84 49.03 119.86 48.25 121.89 47.50 C 122.11 47.90 122.55 48.71 122.77 49.12 L 123.12 49.80 C 120.70 49.67 118.28 49.77 115.86 49.90 Z" />
<path fill="#7c7855" opacity="1.00" d=" M 171.76 49.90 C 173.75 49.05 175.77 48.30 177.81 47.57 C 178.00 47.92 178.39 48.62 178.58 48.97 L 179.01 49.75 C 176.59 49.62 174.17 49.76 171.76 49.90 Z" />
</g>
<g id="#9db8d7fe">
<path fill="#9db8d7" opacity="1.00" d=" M 12.79 48.56 L 13.48 48.40 C 14.51 48.56 16.58 48.89 17.62 49.05 C 17.50 49.45 17.28 50.24 17.17 50.64 C 15.52 50.53 14.03 49.77 12.55 49.09 L 12.79 48.56 Z" />
</g>
<g id="#97c170fe">
<path fill="#97c170" opacity="1.00" d=" M 3.29 50.25 C 5.97 49.89 8.65 49.56 11.35 49.55 C 11.71 49.92 12.42 50.66 12.77 51.03 C 9.59 51.15 6.39 51.05 3.29 50.25 Z" />
<path fill="#97c170" opacity="1.00" d=" M 59.88 49.72 C 62.29 49.67 64.70 49.62 67.11 49.77 C 67.22 49.99 67.46 50.42 67.58 50.64 C 66.25 50.42 65.60 50.94 65.61 52.22 C 63.86 52.20 62.12 52.22 60.37 52.28 C 60.25 51.64 60.01 50.36 59.88 49.72 Z" />
<path fill="#97c170" opacity="1.00" d=" M 115.86 49.90 C 118.28 49.77 120.70 49.67 123.12 49.80 C 123.29 50.14 123.62 50.82 123.79 51.16 C 122.48 50.64 121.72 51.04 121.49 52.35 C 119.81 52.28 118.13 52.25 116.45 52.26 C 116.30 51.67 116.01 50.49 115.86 49.90 Z" />
<path fill="#97c170" opacity="1.00" d=" M 171.76 49.90 C 174.17 49.76 176.59 49.62 179.01 49.75 C 179.26 50.16 179.76 50.98 180.01 51.39 C 179.07 50.67 178.08 50.69 177.04 51.43 C 175.46 51.52 173.88 51.61 172.30 51.68 C 172.17 51.24 171.90 50.35 171.76 49.90 Z" />
</g>
<g id="#4177cbff">
<path fill="#4177cb" opacity="1.00" d=" M 80.89 50.04 C 85.03 52.08 89.13 54.21 93.39 56.00 L 83.33 56.00 C 84.67 55.61 86.00 55.18 87.33 54.76 C 85.18 53.19 83.03 51.62 80.89 50.04 Z" />
<path fill="#4177cb" opacity="1.00" d=" M 192.89 50.04 C 197.03 52.08 201.12 54.21 205.39 56.00 L 195.32 56.00 C 196.66 55.61 197.99 55.18 199.33 54.76 C 197.18 53.19 195.03 51.62 192.89 50.04 Z" />
</g>
<g id="#4180cbfe">
<path fill="#4180cb" opacity="1.00" d=" M 59.71 52.38 L 60.37 52.28 C 62.12 52.22 63.86 52.20 65.61 52.22 C 66.06 52.17 66.98 52.07 67.43 52.03 C 67.02 52.64 66.20 53.87 65.79 54.49 C 63.75 53.82 61.72 53.12 59.71 52.38 Z" />
</g>
<g id="#4180cbff">
<path fill="#4180cb" opacity="1.00" d=" M 115.73 52.29 L 116.45 52.26 C 118.13 52.25 119.81 52.28 121.49 52.35 C 121.96 52.36 122.89 52.37 123.36 52.37 C 120.82 52.58 118.26 52.54 115.73 52.29 Z" />
<path fill="#4180cb" opacity="1.00" d=" M 172.01 52.13 L 172.30 51.68 C 173.88 51.61 175.46 51.52 177.04 51.43 C 177.44 51.68 178.24 52.16 178.64 52.41 C 179.02 52.64 179.78 53.11 180.16 53.35 C 177.03 53.59 173.90 53.82 170.78 54.02 C 171.09 53.55 171.70 52.61 172.01 52.13 Z" />
</g>
</svg>
