<?xml version="1.0" encoding="UTF-8" ?>
<!DOCTYPE svg PUBLIC "-//W3C//DTD SVG 1.1//EN" "http://www.w3.org/Graphics/SVG/1.1/DTD/svg11.dtd">
<svg width="224pt" height="56pt" viewBox="0 0 224 56" version="1.1" xmlns="http://www.w3.org/2000/svg">
<g id="#91bc69ff">
<path fill="#91bc69" opacity="1.00" d=" M 0.00 0.00 L 0.80 0.00 C 1.73 1.21 1.46 2.12 0.00 2.72 L 0.00 0.00 Z" />
<path fill="#91bc69" opacity="1.00" d=" M 55.23 28.52 C 56.89 27.45 57.86 30.32 56.41 31.12 C 54.78 32.26 53.80 29.30 55.23 28.52 Z" />
<path fill="#91bc69" opacity="1.00" d=" M 111.23 28.52 C 112.89 27.45 113.86 30.32 112.41 31.12 C 110.78 32.26 109.80 29.30 111.23 28.52 Z" />
<path fill="#91bc69" opacity="1.00" d=" M 167.23 28.52 C 168.89 27.45 169.86 30.32 168.41 31.12 C 166.78 32.26 165.80 29.30 167.23 28.52 Z" />
<path fill="#91bc69" opacity="1.00" d=" M 224.00 31.00 C 222.24 30.97 221.94 27.94 224.00 28.45 L 224.00 31.00 Z" />
</g>
<g id="#6c9959ff">
<path fill="#6c9959" opacity="1.00" d=" M 0.80 0.00 L 6.89 0.00 C 5.98 7.21 7.05 14.53 5.45 21.69 C 1.76 16.07 2.44 9.54 1.98 3.25 C 1.49 4.09 0.50 5.77 0.00 6.61 L 0.00 2.72 C 1.46 2.12 1.73 1.21 0.80 0.00 M 3.40 3.15 C 2.97 4.55 3.45 5.03 4.85 4.60 C 5.29 3.20 4.80 2.71 3.40 3.15 Z" />
</g>
<g id="#475943ff">
<path fill="#475943" opacity="1.00" d=" M 6.89 0.00 L 7.70 0.00 C 8.02 6.75 8.77 13.47 9.45 20.20 C 9.54 21.16 9.63 22.12 9.71 23.08 C 8.27 22.69 6.86 22.18 5.45 21.69 C 7.05 14.53 5.98 7.21 6.89 0.00 Z" />
<path fill="#475943" opacity="1.00" d=" M 62.89 0.00 L 63.70 0.00 C 64.02 6.75 64.77 13.47 65.46 20.19 C 65.55 21.16 65.63 22.12 65.71 23.09 C 64.28 22.69 62.88 22.17 61.47 21.69 C 63.05 14.53 61.97 7.20 62.89 0.00 Z" />
<path fill="#475943" opacity="1.00" d=" M 118.90 0.00 L 119.71 0.00 C 120.01 6.76 120.78 13.48 121.47 20.20 C 121.56 21.18 121.64 22.16 121.72 23.14 C 120.28 22.72 118.88 22.19 117.47 21.68 C 119.05 14.52 117.97 7.20 118.90 0.00 Z" />
<path fill="#475943" opacity="1.00" d=" M 174.89 0.00 L 175.70 0.00 C 176.02 6.75 176.77 13.47 177.46 20.19 C 177.55 21.16 177.63 22.12 177.71 23.09 C 176.28 22.69 174.88 22.17 173.47 21.69 C 175.05 14.53 173.97 7.20 174.89 0.00 Z" />
<path fill="#475943" opacity="1.00" d=" M 48.20 27.83 L 48.88 28.15 C 50.26 35.24 48.89 42.56 50.47 49.66 C 49.08 50.16 47.70 50.69 46.27 51.10 C 46.36 50.13 46.44 49.16 46.54 48.19 C 47.21 41.41 48.24 34.66 48.20 27.83 Z" />
<path fill="#475943" opacity="1.00" d=" M 104.18 27.79 L 104.85 28.13 C 106.29 35.19 104.88 42.48 106.43 49.55 C 105.05 50.04 103.67 50.54 102.27 50.99 C 102.35 50.06 102.44 49.13 102.53 48.21 C 103.22 41.41 104.26 34.64 104.18 27.79 Z" />
<path fill="#475943" opacity="1.00" d=" M 160.18 27.80 L 160.86 28.14 C 162.29 35.23 160.87 42.55 162.47 49.65 C 161.08 50.18 159.69 50.72 158.26 51.15 C 158.34 50.17 158.43 49.18 158.53 48.20 C 159.20 41.41 160.26 34.64 160.18 27.80 Z" />
<path fill="#475943" opacity="1.00" d=" M 216.13 27.86 L 216.80 28.25 C 218.36 35.26 216.82 42.54 218.49 49.58 C 217.09 50.05 215.69 50.55 214.27 50.99 C 214.35 50.06 214.44 49.13 214.53 48.21 C 215.22 41.44 216.26 34.69 216.13 27.86 Z" />
</g>
<g id="#322e2aff">
<path fill="#322e2a" opacity="1.00" d=" M 7.70 0.00 L 10.34 0.00 C 9.68 1.38 9.07 2.79 8.47 4.20 C 9.75 4.26 11.02 4.33 12.29 4.41 C 12.64 4.44 13.33 4.51 13.68 4.54 C 12.68 6.30 11.81 8.14 11.19 10.07 C 11.15 11.40 11.16 12.73 11.23 14.05 C 11.76 16.00 12.44 17.89 13.14 19.78 C 12.22 19.88 10.37 20.09 9.45 20.20 C 8.77 13.47 8.02 6.75 7.70 0.00 Z" />
<path fill="#322e2a" opacity="1.00" d=" M 63.70 0.00 L 65.66 0.00 C 65.42 1.43 65.18 2.85 64.94 4.28 C 66.03 4.36 67.11 4.46 68.19 4.57 C 68.52 4.60 69.20 4.67 69.53 4.71 C 68.44 7.05 67.70 9.54 67.09 12.05 C 67.11 12.63 67.14 13.80 67.16 14.38 C 67.77 16.20 68.44 18.00 69.10 19.80 C 68.19 19.90 66.37 20.10 65.46 20.19 C 64.77 13.47 64.02 6.75 63.70 0.00 Z" />
<path fill="#322e2a" opacity="1.00" d=" M 119.71 0.00 L 122.37 0.00 C 121.72 1.38 121.13 2.79 120.54 4.20 C 121.68 4.39 122.82 4.59 123.96 4.79 C 124.32 4.85 125.03 4.98 125.39 5.04 C 124.39 7.25 123.74 9.59 123.15 11.94 C 122.77 13.04 122.83 14.11 123.33 15.17 C 123.91 16.67 124.46 18.19 124.99 19.72 C 124.11 19.84 122.35 20.08 121.47 20.20 C 120.78 13.48 120.01 6.76 119.71 0.00 Z" />
<path fill="#322e2a" opacity="1.00" d=" M 175.70 0.00 L 177.66 0.00 C 177.42 1.43 177.18 2.85 176.94 4.28 C 178.02 4.36 179.11 4.46 180.19 4.57 C 180.52 4.60 181.20 4.67 181.53 4.71 C 180.43 7.05 179.70 9.54 179.09 12.05 C 179.11 12.63 179.14 13.80 179.16 14.38 C 179.77 16.20 180.44 18.00 181.10 19.80 C 180.19 19.90 178.37 20.10 177.46 20.19 C 176.77 13.47 176.02 6.75 175.70 0.00 Z" />
<path fill="#322e2a" opacity="1.00" d=" M 46.83 25.72 L 47.39 25.14 C 47.59 25.81 48.00 27.15 48.20 27.83 C 48.24 34.66 47.21 41.41 46.54 48.19 C 45.64 48.10 43.85 47.90 42.96 47.81 C 43.57 45.90 44.21 43.99 44.70 42.04 C 44.79 40.73 44.82 39.41 44.79 38.09 C 44.22 36.23 43.43 34.45 42.53 32.73 C 42.84 32.69 43.46 32.60 43.77 32.56 C 44.90 32.44 46.02 32.32 47.15 32.22 C 47.03 31.33 46.90 30.45 46.78 29.56 C 45.60 28.94 44.41 28.32 43.25 27.67 C 43.14 27.12 42.92 26.02 42.81 25.47 C 43.01 27.96 46.08 27.76 46.83 25.72 Z" />
<path fill="#322e2a" opacity="1.00" d=" M 102.87 25.61 L 103.42 25.05 C 103.61 25.73 103.99 27.10 104.18 27.79 C 104.26 34.64 103.22 41.41 102.53 48.21 C 101.63 48.11 99.83 47.90 98.93 47.80 C 99.56 45.99 100.22 44.19 100.84 42.37 C 100.86 41.79 100.89 40.63 100.91 40.05 C 100.30 37.60 99.57 35.16 98.44 32.90 C 98.78 32.84 99.46 32.74 99.81 32.69 C 100.89 32.53 101.97 32.39 103.06 32.26 C 103.01 31.26 102.97 30.26 102.92 29.26 C 101.73 28.82 100.54 28.39 99.35 27.96 C 99.36 27.37 99.39 26.19 99.41 25.60 C 99.64 28.10 102.59 27.97 102.87 25.61 Z" />
<path fill="#322e2a" opacity="1.00" d=" M 158.92 25.62 L 159.46 25.05 C 159.64 25.74 160.00 27.11 160.18 27.80 C 160.26 34.64 159.20 41.41 158.53 48.20 C 157.66 48.08 155.93 47.85 155.06 47.73 C 155.56 46.20 156.10 44.67 156.67 43.16 C 157.15 42.11 157.21 41.03 156.84 39.93 C 156.24 37.53 155.57 35.13 154.54 32.87 C 154.87 32.80 155.54 32.68 155.87 32.62 C 156.93 32.46 157.98 32.31 159.04 32.17 C 159.01 31.21 158.97 30.25 158.94 29.28 C 157.70 28.81 156.45 28.35 155.21 27.89 C 155.27 27.32 155.40 26.20 155.46 25.63 C 155.63 28.18 158.60 27.92 158.92 25.62 Z" />
<path fill="#322e2a" opacity="1.00" d=" M 214.91 25.63 L 215.50 25.11 C 215.66 25.80 215.97 27.17 216.13 27.86 C 216.26 34.69 215.22 41.44 214.53 48.21 C 213.63 48.11 211.83 47.90 210.93 47.80 C 211.56 45.99 212.22 44.19 212.84 42.37 C 212.86 41.79 212.89 40.63 212.91 40.05 C 212.30 37.60 211.57 35.16 210.44 32.90 C 210.78 32.84 211.46 32.74 211.81 32.69 C 212.88 32.53 213.97 32.39 215.06 32.26 C 215.01 31.26 214.96 30.26 214.92 29.26 C 213.73 28.82 212.54 28.38 211.35 27.95 C 211.37 27.36 211.42 26.18 211.44 25.59 C 211.65 28.08 214.58 27.96 214.91 25.63 Z" />
</g>
<g id="#565249ff">
<path fill="#565249" opacity="1.00" d=" M 10.34 0.00 L 13.24 0.00 L 12.92 0.82 C 12.35 1.96 12.15 3.16 12.29 4.41 C 11.02 4.33 9.75 4.26 8.47 4.20 C 9.07 2.79 9.68 1.38 10.34 0.00 Z" />
<path fill="#565249" opacity="1.00" d=" M 43.74 7.15 C 45.48 7.10 47.23 7.04 48.97 6.99 C 48.98 7.77 49.01 9.33 49.02 10.11 C 47.26 9.12 45.50 8.14 43.74 7.15 Z" />
<path fill="#565249" opacity="1.00" d=" M 99.74 7.15 C 101.48 7.10 103.23 7.04 104.97 6.99 C 104.98 7.77 105.01 9.33 105.02 10.11 C 103.26 9.12 101.50 8.14 99.74 7.15 Z" />
<path fill="#565249" opacity="1.00" d=" M 155.74 7.15 C 157.48 7.10 159.22 7.04 160.97 6.99 C 160.98 7.77 161.01 9.33 161.02 10.11 C 159.26 9.12 157.50 8.14 155.74 7.15 Z" />
<path fill="#565249" opacity="1.00" d=" M 211.74 7.15 C 213.48 7.10 215.22 7.04 216.97 6.99 C 216.98 7.77 217.01 9.33 217.02 10.11 C 215.26 9.12 213.50 8.14 211.74 7.15 Z" />
<path fill="#565249" opacity="1.00" d=" M 44.35 9.60 C 46.51 8.71 47.20 11.74 44.71 11.37 C 44.62 10.93 44.44 10.05 44.35 9.60 Z" />
<path fill="#565249" opacity="1.00" d=" M 100.50 9.73 C 102.36 8.44 103.79 11.15 101.31 11.39 C 101.11 10.98 100.70 10.14 100.50 9.73 Z" />
<path fill="#565249" opacity="1.00" d=" M 156.30 10.27 C 157.68 8.11 159.21 11.00 157.13 11.77 C 156.92 11.39 156.51 10.64 156.30 10.27 Z" />
<path fill="#565249" opacity="1.00" d=" M 212.50 9.73 C 214.35 8.44 215.79 11.15 213.31 11.39 C 213.11 10.98 212.70 10.14 212.50 9.73 Z" />
<path fill="#565249" opacity="1.00" d=" M 43.25 27.67 C 44.41 28.32 45.60 28.94 46.78 29.56 C 46.90 30.45 47.03 31.33 47.15 32.22 C 46.02 32.32 44.90 32.44 43.77 32.56 C 43.77 31.38 43.66 30.22 43.43 29.06 L 43.25 27.67 Z" />
<path fill="#565249" opacity="1.00" d=" M 7.03 34.99 C 8.77 35.04 10.52 35.10 12.26 35.15 C 10.50 36.14 8.74 37.12 6.98 38.11 C 6.99 37.33 7.02 35.77 7.03 34.99 Z" />
<path fill="#565249" opacity="1.00" d=" M 63.03 34.99 C 64.77 35.04 66.52 35.10 68.26 35.15 C 66.50 36.14 64.74 37.12 62.98 38.11 C 62.99 37.33 63.02 35.77 63.03 34.99 Z" />
<path fill="#565249" opacity="1.00" d=" M 119.03 34.99 C 120.77 35.04 122.51 35.10 124.26 35.15 C 122.50 36.14 120.74 37.12 118.98 38.11 C 118.99 37.33 119.02 35.77 119.03 34.99 Z" />
<path fill="#565249" opacity="1.00" d=" M 175.03 34.99 C 176.77 35.04 178.51 35.10 180.26 35.15 C 178.50 36.14 176.74 37.12 174.98 38.11 C 174.99 37.33 175.02 35.77 175.03 34.99 Z" />
<path fill="#565249" opacity="1.00" d=" M 11.08 39.79 C 8.79 39.17 10.35 36.02 11.80 38.26 C 11.62 38.64 11.26 39.40 11.08 39.79 Z" />
<path fill="#565249" opacity="1.00" d=" M 66.73 39.40 C 64.24 39.10 65.74 36.43 67.57 37.75 C 67.36 38.16 66.94 38.99 66.73 39.40 Z" />
<path fill="#565249" opacity="1.00" d=" M 123.23 39.75 C 120.91 39.44 121.93 36.09 123.70 38.13 C 123.58 38.53 123.34 39.35 123.23 39.75 Z" />
<path fill="#565249" opacity="1.00" d=" M 178.73 39.40 C 176.24 39.10 177.73 36.43 179.57 37.75 C 179.36 38.16 178.94 38.99 178.73 39.40 Z" />
</g>
<g id="#268ed9ff">
<path fill="#268ed9" opacity="1.00" d=" M 13.24 0.00 L 15.68 0.00 C 15.69 1.01 15.15 1.90 14.72 2.78 C 14.27 2.29 13.37 1.31 12.92 0.82 L 13.24 0.00 Z" />
<path fill="#268ed9" opacity="1.00" d=" M 124.25 0.00 L 125.80 0.00 C 126.73 0.83 126.52 2.13 126.41 3.22 C 126.02 3.10 125.25 2.87 124.86 2.75 C 124.71 2.06 124.40 0.69 124.25 0.00 Z" />
<path fill="#268ed9" opacity="1.00" d=" M 38.91 7.57 C 39.89 6.99 40.88 6.45 41.90 5.95 C 42.04 6.29 42.31 6.97 42.44 7.31 C 42.45 7.69 42.48 8.43 42.49 8.81 C 41.57 8.63 40.64 8.45 39.72 8.26 L 39.15 7.89 L 38.91 7.57 Z" />
<path fill="#268ed9" opacity="1.00" d=" M 11.87 23.59 C 12.53 23.86 13.85 24.40 14.51 24.68 C 14.92 27.20 15.21 29.84 14.32 32.30 C 13.81 30.81 13.28 29.32 12.81 27.82 C 12.48 26.41 12.16 25.00 11.87 23.59 Z" />
<path fill="#268ed9" opacity="1.00" d=" M 142.17 26.17 C 143.80 25.65 144.35 26.20 143.83 27.83 C 142.20 28.35 141.65 27.80 142.17 26.17 Z" />
<path fill="#268ed9" opacity="1.00" d=" M 86.17 27.17 C 87.80 26.65 88.35 27.20 87.83 28.83 C 86.20 29.35 85.65 28.80 86.17 27.17 Z" />
<path fill="#268ed9" opacity="1.00" d=" M 198.17 27.17 C 199.79 26.65 200.35 27.20 199.83 28.83 C 198.20 29.35 197.65 28.80 198.17 27.17 Z" />
<path fill="#268ed9" opacity="1.00" d=" M 14.13 50.59 C 14.91 52.15 15.59 53.74 16.21 55.36 L 15.43 56.00 L 12.02 56.00 C 12.36 55.44 13.03 54.33 13.37 53.78 C 14.02 52.82 14.27 51.76 14.13 50.59 Z" />
<path fill="#268ed9" opacity="1.00" d=" M 42.06 52.90 C 42.64 52.57 43.81 51.92 44.39 51.59 C 43.95 53.08 43.45 54.55 42.89 56.00 L 40.27 56.00 C 40.88 54.97 41.47 53.94 42.06 52.90 Z" />
<path fill="#268ed9" opacity="1.00" d=" M 97.58 53.12 C 98.21 52.94 99.45 52.58 100.07 52.40 C 100.06 53.68 99.82 55.01 98.94 56.00 L 98.32 56.00 C 98.13 55.28 97.77 53.84 97.58 53.12 Z" />
<path fill="#268ed9" opacity="1.00" d=" M 209.58 53.12 C 210.21 52.94 211.45 52.58 212.07 52.40 C 212.05 53.68 211.82 55.01 210.94 56.00 L 210.32 56.00 C 210.13 55.28 209.77 53.84 209.58 53.12 Z" />
</g>
<g id="#3c6cbfff">
<path fill="#3c6cbf" opacity="1.00" d=" M 15.68 0.00 L 31.83 0.00 C 32.68 1.34 33.48 2.71 34.28 4.07 C 32.39 5.60 30.31 6.95 28.74 8.83 C 27.49 10.99 27.75 13.62 27.47 16.01 C 28.01 15.85 29.09 15.54 29.62 15.38 C 30.58 10.72 33.26 6.53 39.15 7.89 L 39.72 8.26 C 40.50 8.85 41.27 9.44 42.03 10.06 C 41.83 11.64 41.44 14.80 41.24 16.39 L 41.15 17.04 C 41.45 18.48 41.96 19.86 42.53 21.21 C 42.31 21.54 41.87 22.22 41.65 22.56 C 40.87 25.33 40.94 28.22 41.29 31.05 L 41.34 31.81 L 40.82 31.43 C 38.19 29.43 35.07 28.26 31.92 27.36 C 29.37 23.63 26.38 20.11 22.32 17.98 C 24.11 20.24 25.99 22.45 27.72 24.78 C 24.61 26.01 21.49 27.20 18.35 28.33 C 18.08 30.77 17.61 33.19 17.11 35.59 C 16.09 34.74 15.06 33.88 14.04 33.03 L 14.32 32.30 C 15.21 29.84 14.92 27.20 14.51 24.68 L 14.81 24.04 C 15.42 22.72 16.04 21.40 16.65 20.08 C 16.08 18.60 15.52 17.13 14.97 15.64 C 15.82 11.59 15.33 7.46 14.75 3.41 L 14.72 2.78 C 15.15 1.90 15.69 1.01 15.68 0.00 Z" />
<path fill="#3c6cbf" opacity="1.00" d=" M 67.23 0.00 L 90.48 0.00 C 90.59 1.21 90.69 2.41 90.79 3.62 C 86.42 6.02 81.75 9.27 83.07 15.25 C 85.88 11.49 89.24 8.12 93.43 5.92 C 93.00 3.94 92.59 1.96 92.11 0.00 L 97.42 0.00 C 95.69 10.19 97.08 20.54 97.53 30.77 L 97.53 31.58 C 97.60 38.50 96.65 45.45 97.46 52.34 L 97.58 53.12 C 97.77 53.84 98.13 55.28 98.32 56.00 L 71.99 56.00 C 74.36 54.45 76.50 52.42 79.21 51.45 C 82.30 51.44 84.97 53.37 87.77 54.45 C 85.24 52.20 82.49 50.23 79.63 48.46 C 81.30 45.22 82.89 41.95 84.43 38.66 C 87.20 39.27 89.97 39.86 92.75 40.45 C 87.03 36.17 80.03 34.27 73.63 31.32 C 76.87 27.98 81.06 25.91 85.26 24.06 C 81.10 25.09 76.95 26.13 72.80 27.18 C 73.30 29.65 73.08 32.40 74.41 34.59 C 76.78 36.61 79.90 37.43 82.63 38.82 C 80.69 42.45 78.25 45.77 75.43 48.77 C 76.01 48.93 77.18 49.25 77.76 49.41 C 75.59 51.62 73.46 53.87 71.20 56.00 L 70.67 56.00 C 71.86 45.61 71.18 35.17 70.61 24.79 L 70.68 24.07 C 71.19 17.19 70.70 10.28 70.30 3.40 C 70.35 2.27 69.88 1.45 68.91 0.93 C 68.49 0.70 67.65 0.23 67.23 0.00 M 86.17 27.17 C 85.65 28.80 86.20 29.35 87.83 28.83 C 88.35 27.20 87.80 26.65 86.17 27.17 Z" />
<path fill="#3c6cbf" opacity="1.00" d=" M 179.23 0.00 L 202.48 0.00 C 202.59 1.21 202.69 2.41 202.79 3.62 C 198.42 6.02 193.75 9.27 195.07 15.25 C 197.88 11.49 201.24 8.12 205.43 5.92 C 205.00 3.94 204.59 1.96 204.11 0.00 L 209.42 0.00 C 207.69 10.19 209.08 20.54 209.53 30.77 L 209.53 31.58 C 209.60 38.50 208.64 45.45 209.46 52.34 L 209.58 53.12 C 209.77 53.84 210.13 55.28 210.32 56.00 L 183.99 56.00 C 186.36 54.45 188.50 52.42 191.21 51.45 C 194.30 51.44 196.97 53.37 199.77 54.45 C 197.24 52.20 194.49 50.23 191.63 48.46 C 193.30 45.23 194.88 41.95 196.43 38.66 C 199.21 39.27 202.00 39.84 204.79 40.41 C 199.41 36.30 192.50 35.28 186.82 31.71 C 187.40 26.73 193.73 26.28 197.30 24.11 C 193.11 25.06 188.96 26.13 184.79 27.17 C 185.30 29.64 185.08 32.40 186.41 34.59 C 188.78 36.61 191.89 37.43 194.63 38.82 C 192.69 42.45 190.25 45.77 187.43 48.77 C 188.01 48.93 189.18 49.25 189.76 49.41 C 187.59 51.62 185.46 53.87 183.20 56.00 L 182.67 56.00 C 183.86 45.61 183.18 35.17 182.61 24.79 L 182.68 24.07 C 183.19 17.19 182.70 10.28 182.30 3.40 C 182.35 2.27 181.88 1.45 180.91 0.93 C 180.49 0.70 179.65 0.23 179.23 0.00 M 198.17 27.17 C 197.65 28.80 198.20 29.35 199.83 28.83 C 200.35 27.20 199.79 26.65 198.17 27.17 Z" />
</g>
<g id="#4579caff">
<path fill="#4579ca" opacity="1.00" d=" M 31.83 0.00 L 33.39 0.00 C 35.28 2.49 36.98 5.11 38.91 7.57 L 39.15 7.89 C 33.26 6.53 30.58 10.72 29.62 15.38 C 29.09 15.54 28.01 15.85 27.47 16.01 C 27.75 13.62 27.49 10.99 28.74 8.83 C 30.31 6.95 32.39 5.60 34.28 4.07 C 33.48 2.71 32.68 1.34 31.83 0.00 Z" />
</g>
<g id="#3c6bbeff">
<path fill="#3c6bbe" opacity="1.00" d=" M 33.39 0.00 L 40.05 0.00 C 39.02 1.71 40.65 3.30 41.97 4.19 C 41.95 4.63 41.92 5.51 41.90 5.95 C 40.88 6.45 39.89 6.99 38.91 7.57 C 36.98 5.11 35.28 2.49 33.39 0.00 Z" />
<path fill="#3c6bbe" opacity="1.00" d=" M 125.80 0.00 L 138.34 0.00 C 137.75 0.56 136.57 1.68 135.98 2.24 C 133.54 2.20 131.09 2.16 128.64 2.26 C 131.24 3.25 133.78 4.60 136.57 4.95 C 138.45 3.59 139.82 1.66 141.41 0.00 L 149.28 0.00 C 146.80 3.04 143.55 5.25 139.96 6.76 C 139.75 9.59 139.73 12.42 139.81 15.25 C 141.48 10.23 145.49 6.74 150.48 5.16 C 150.09 3.44 149.69 1.72 149.33 0.00 L 153.40 0.00 C 151.69 10.29 153.02 20.71 153.69 31.02 L 153.69 31.68 C 153.59 39.79 152.37 47.95 153.83 56.00 L 126.89 56.00 C 127.97 38.60 126.36 21.22 126.40 3.81 L 126.41 3.22 C 126.52 2.13 126.73 0.83 125.80 0.00 M 137.54 15.27 C 136.62 16.41 138.58 17.87 139.46 16.73 C 140.38 15.59 138.41 14.13 137.54 15.27 M 129.05 26.06 C 129.00 28.72 128.95 31.38 128.90 34.04 C 132.22 35.49 136.18 35.81 138.99 38.22 C 138.69 40.98 137.34 43.47 136.19 45.95 C 137.37 45.68 138.55 45.42 139.74 45.16 C 140.23 47.16 140.77 49.14 141.35 51.11 C 142.24 49.94 143.13 48.77 144.00 47.59 C 141.59 44.96 139.53 41.95 139.17 38.24 C 141.49 39.01 143.82 39.76 146.16 40.48 C 145.45 41.89 144.73 43.29 144.02 44.70 C 146.37 44.54 148.72 44.51 151.08 44.50 C 148.17 42.54 146.14 39.66 144.54 36.59 C 143.95 36.88 143.37 37.17 142.79 37.45 C 138.38 34.87 133.79 32.63 129.19 30.41 C 131.43 26.12 136.27 24.81 140.43 23.16 C 136.52 23.56 132.74 24.73 129.05 26.06 M 142.17 26.17 C 141.65 27.80 142.20 28.35 143.83 27.83 C 144.35 26.20 143.80 25.65 142.17 26.17 M 130.84 47.61 C 131.63 47.76 133.20 48.07 133.98 48.22 C 132.17 50.03 130.36 51.84 128.58 53.69 C 132.08 51.62 135.96 50.47 140.06 50.35 C 137.80 48.80 135.56 47.19 133.64 45.23 C 132.71 46.03 131.78 46.82 130.84 47.61 Z" />
<path fill="#3c6bbe" opacity="1.00" d=" M 48.54 22.49 C 46.00 19.77 50.39 19.80 50.26 22.70 C 49.83 22.65 48.97 22.54 48.54 22.49 Z" />
<path fill="#3c6bbe" opacity="1.00" d=" M 104.55 22.44 C 101.99 19.72 106.42 19.80 106.28 22.69 C 105.85 22.63 104.98 22.50 104.55 22.44 Z" />
<path fill="#3c6bbe" opacity="1.00" d=" M 160.57 22.44 C 157.98 19.71 162.42 19.78 162.29 22.68 C 161.86 22.62 161.00 22.50 160.57 22.44 Z" />
<path fill="#3c6bbe" opacity="1.00" d=" M 216.43 22.52 C 214.16 19.62 218.58 19.86 218.03 22.82 C 217.63 22.75 216.83 22.60 216.43 22.52 Z" />
<path fill="#3c6bbe" opacity="1.00" d=" M 44.15 22.90 C 44.76 22.78 45.99 22.52 46.61 22.39 L 46.47 23.15 C 46.18 23.37 45.61 23.81 45.32 24.04 C 45.03 23.75 44.44 23.19 44.15 22.90 Z" />
<path fill="#3c6bbe" opacity="1.00" d=" M 100.22 22.71 C 100.83 22.59 102.05 22.36 102.66 22.25 L 102.51 23.02 C 102.22 23.23 101.65 23.66 101.37 23.87 C 101.08 23.58 100.51 23.00 100.22 22.71 Z" />
<path fill="#3c6bbe" opacity="1.00" d=" M 156.25 22.72 C 156.86 22.60 158.08 22.36 158.68 22.24 L 158.55 23.01 C 158.27 23.23 157.71 23.65 157.43 23.87 C 157.13 23.58 156.55 23.00 156.25 22.72 Z" />
<path fill="#3c6bbe" opacity="1.00" d=" M 212.27 22.71 C 212.87 22.60 214.08 22.38 214.68 22.28 L 214.54 23.06 C 214.27 23.27 213.71 23.68 213.43 23.88 C 213.14 23.59 212.56 23.00 212.27 22.71 Z" />
<path fill="#3c6bbe" opacity="1.00" d=" M 47.58 24.42 L 48.33 24.38 C 48.51 25.40 49.03 26.22 49.86 26.84 C 49.62 27.17 49.13 27.82 48.88 28.15 L 48.20 27.83 C 48.00 27.15 47.59 25.81 47.39 25.14 L 47.58 24.42 Z" />
<path fill="#3c6bbe" opacity="1.00" d=" M 103.62 24.34 L 104.36 24.33 C 104.52 25.37 105.02 26.20 105.86 26.83 C 105.61 27.16 105.10 27.81 104.85 28.13 L 104.18 27.79 C 103.99 27.10 103.61 25.73 103.42 25.05 L 103.62 24.34 Z" />
<path fill="#3c6bbe" opacity="1.00" d=" M 159.66 24.34 L 160.39 24.33 C 160.55 25.37 161.04 26.20 161.87 26.85 C 161.62 27.17 161.11 27.82 160.86 28.14 L 160.18 27.80 C 160.00 27.11 159.64 25.74 159.46 25.05 L 159.66 24.34 Z" />
<path fill="#3c6bbe" opacity="1.00" d=" M 215.75 24.44 L 216.52 24.50 C 216.62 25.54 217.07 26.39 217.89 27.06 C 217.61 27.36 217.07 27.96 216.80 28.25 L 216.13 27.86 C 215.97 27.17 215.66 25.80 215.50 25.11 L 215.75 24.44 Z" />
<path fill="#3c6bbe" opacity="1.00" d=" M 18.81 32.08 C 21.92 29.01 25.75 26.87 29.69 25.05 C 29.14 27.15 28.54 29.23 27.95 31.31 C 32.25 31.56 36.53 32.01 40.80 32.52 C 40.64 36.23 40.37 39.97 41.06 43.65 C 40.46 45.16 39.86 46.66 39.23 48.16 C 40.04 49.52 40.83 50.89 41.65 52.24 L 42.06 52.90 C 41.47 53.94 40.88 54.97 40.27 56.00 L 16.84 56.00 C 20.44 54.16 24.27 52.88 28.19 51.89 C 26.78 51.41 25.37 50.92 23.95 50.44 C 25.48 47.20 27.04 43.98 28.44 40.68 C 31.17 41.32 33.91 41.91 36.66 42.50 C 31.08 38.43 24.79 35.50 18.81 32.08 M 34.83 44.68 C 32.73 46.24 30.52 47.63 28.24 48.90 C 28.40 49.47 28.56 50.03 28.72 50.60 C 31.41 49.50 34.14 48.51 36.89 47.58 C 36.20 46.61 35.51 45.65 34.83 44.68 Z" />
<path fill="#3c6bbe" opacity="1.00" d=" M 16.38 36.29 C 20.32 36.39 24.42 37.48 27.35 40.24 C 26.15 43.16 23.21 44.60 20.65 46.10 C 21.06 47.62 21.46 49.15 21.84 50.67 C 19.95 52.23 18.09 53.80 16.21 55.36 C 15.59 53.74 14.91 52.15 14.13 50.59 C 13.89 50.29 13.40 49.69 13.15 49.39 C 14.37 48.10 15.58 46.80 16.78 45.50 C 16.36 45.33 15.52 44.97 15.10 44.80 L 14.45 44.47 C 14.35 42.89 14.16 39.72 14.07 38.14 C 14.84 37.52 15.61 36.91 16.38 36.29 Z" />
<path fill="#3c6bbe" opacity="1.00" d=" M 61.88 50.84 C 62.02 49.52 62.68 47.94 64.22 47.86 C 64.07 48.52 63.75 49.82 63.60 50.48 C 63.17 50.57 62.31 50.75 61.88 50.84 Z" />
<path fill="#3c6bbe" opacity="1.00" d=" M 117.90 50.91 C 117.93 49.64 118.49 48.04 120.00 48.01 C 119.91 48.63 119.74 49.87 119.65 50.49 C 119.21 50.59 118.34 50.80 117.90 50.91 Z" />
<path fill="#3c6bbe" opacity="1.00" d=" M 173.88 50.84 C 174.02 49.52 174.68 47.94 176.22 47.86 C 176.07 48.52 175.75 49.82 175.60 50.48 C 175.17 50.57 174.31 50.75 173.88 50.84 Z" />
<path fill="#3c6bbe" opacity="1.00" d=" M 65.74 50.32 C 66.28 50.47 67.36 50.77 67.90 50.92 C 67.56 51.19 66.88 51.71 66.54 51.98 C 66.24 51.74 65.65 51.26 65.35 51.02 L 65.74 50.32 Z" />
<path fill="#3c6bbe" opacity="1.00" d=" M 121.76 50.22 C 122.28 50.40 123.34 50.75 123.87 50.93 C 123.52 51.19 122.82 51.69 122.47 51.95 C 122.19 51.69 121.64 51.18 121.36 50.92 L 121.76 50.22 Z" />
<path fill="#3c6bbe" opacity="1.00" d=" M 177.74 50.32 C 178.28 50.47 179.36 50.77 179.90 50.92 C 179.56 51.19 178.88 51.71 178.54 51.98 C 178.24 51.74 177.65 51.26 177.35 51.02 L 177.74 50.32 Z" />
<path fill="#3c6bbe" opacity="1.00" d=" M 63.66 52.54 L 64.37 52.50 L 64.59 53.23 C 64.38 53.93 63.95 55.31 63.74 56.00 L 62.29 56.00 L 62.08 55.31 C 62.95 54.58 63.47 53.66 63.66 52.54 Z" />
<path fill="#3c6bbe" opacity="1.00" d=" M 119.62 52.53 L 120.32 52.49 L 120.55 53.23 C 120.35 53.92 119.94 55.31 119.74 56.00 L 118.28 56.00 L 118.07 55.31 C 118.93 54.58 119.45 53.65 119.62 52.53 Z" />
<path fill="#3c6bbe" opacity="1.00" d=" M 175.66 52.54 L 176.37 52.50 L 176.59 53.23 C 176.38 53.93 175.95 55.31 175.74 56.00 L 174.29 56.00 L 174.08 55.31 C 174.95 54.58 175.47 53.66 175.66 52.54 Z" />
</g>
<g id="#268ed9fe">
<path fill="#268ed9" opacity="1.00" d=" M 40.05 0.00 L 41.60 0.00 C 42.16 1.34 42.28 2.73 41.97 4.19 C 40.65 3.30 39.02 1.71 40.05 0.00 Z" />
<path fill="#268ed9" opacity="1.00" d=" M 41.29 31.05 C 40.94 28.22 40.87 25.33 41.65 22.56 C 41.92 23.58 42.30 24.54 42.81 25.47 C 42.92 26.02 43.14 27.12 43.25 27.67 L 43.43 29.06 C 42.89 29.56 41.82 30.55 41.29 31.05 Z" />
</g>
<g id="#8aa3b5ff">
<path fill="#8aa3b5" opacity="1.00" d=" M 41.60 0.00 L 42.95 0.00 C 43.24 0.57 43.82 1.70 44.11 2.26 C 43.74 3.14 43.40 4.02 43.09 4.91 C 42.92 5.51 42.60 6.71 42.44 7.31 C 42.31 6.97 42.04 6.29 41.90 5.95 C 41.92 5.51 41.95 4.63 41.97 4.19 C 42.28 2.73 42.16 1.34 41.60 0.00 Z" />
<path fill="#8aa3b5" opacity="1.00" d=" M 12.81 27.82 C 13.28 29.32 13.81 30.81 14.32 32.30 L 14.04 33.03 C 13.82 33.55 13.38 34.59 13.16 35.11 C 13.16 34.56 13.15 33.45 13.14 32.90 C 13.11 31.94 13.06 30.98 13.00 30.02 C 12.95 29.47 12.85 28.37 12.81 27.82 Z" />
</g>
<g id="#332e2aff">
<path fill="#332e2a" opacity="1.00" d=" M 42.95 0.00 L 44.47 0.00 C 44.38 0.57 44.20 1.70 44.11 2.26 C 43.82 1.70 43.24 0.57 42.95 0.00 Z" />
<path fill="#332e2a" opacity="1.00" d=" M 48.24 0.00 L 50.53 0.00 C 50.55 0.31 50.58 0.92 50.59 1.23 C 49.39 2.03 47.92 2.16 46.52 2.09 C 47.02 1.34 47.60 0.64 48.24 0.00 Z" />
<path fill="#332e2a" opacity="1.00" d=" M 104.20 0.00 L 106.51 0.00 C 106.53 0.31 106.56 0.92 106.58 1.23 C 105.38 2.02 103.91 2.16 102.51 2.10 C 103.01 1.34 103.57 0.64 104.20 0.00 Z" />
<path fill="#332e2a" opacity="1.00" d=" M 155.19 0.00 L 156.80 0.00 C 156.43 0.60 155.69 1.79 155.32 2.39 C 155.29 1.79 155.22 0.60 155.19 0.00 Z" />
<path fill="#332e2a" opacity="1.00" d=" M 160.23 0.00 L 162.53 0.00 C 162.54 0.31 162.57 0.92 162.59 1.23 C 161.39 2.03 159.92 2.16 158.52 2.09 C 159.02 1.34 159.59 0.64 160.23 0.00 Z" />
<path fill="#332e2a" opacity="1.00" d=" M 216.20 0.00 L 218.51 0.00 C 218.53 0.31 218.56 0.92 218.58 1.23 C 217.38 2.02 215.91 2.16 214.51 2.10 C 215.01 1.34 215.57 0.64 216.20 0.00 Z" />
<path fill="#332e2a" opacity="1.00" d=" M 45.32 24.04 C 45.61 23.81 46.18 23.37 46.47 23.15 C 46.99 22.98 48.02 22.65 48.54 22.49 C 48.97 22.54 49.83 22.65 50.26 22.70 L 50.50 23.26 L 50.02 23.79 L 49.18 24.17 L 48.33 24.38 L 47.58 24.42 C 47.02 24.32 45.88 24.13 45.32 24.04 Z" />
<path fill="#332e2a" opacity="1.00" d=" M 101.37 23.87 C 101.65 23.66 102.22 23.23 102.51 23.02 C 103.02 22.88 104.04 22.59 104.55 22.44 C 104.98 22.50 105.85 22.63 106.28 22.69 L 106.52 23.26 L 106.04 23.79 L 105.21 24.14 L 104.36 24.33 L 103.62 24.34 C 103.06 24.22 101.93 23.99 101.37 23.87 Z" />
<path fill="#332e2a" opacity="1.00" d=" M 157.43 23.87 C 157.71 23.65 158.27 23.23 158.55 23.01 C 159.05 22.87 160.06 22.58 160.57 22.44 C 161.00 22.50 161.86 22.62 162.29 22.68 L 162.54 23.25 L 162.07 23.79 L 161.24 24.14 L 160.39 24.33 L 159.66 24.34 C 159.10 24.22 157.99 23.99 157.43 23.87 Z" />
<path fill="#332e2a" opacity="1.00" d=" M 213.43 23.88 C 213.71 23.68 214.27 23.27 214.54 23.06 C 215.02 22.93 215.96 22.66 216.43 22.52 C 216.83 22.60 217.63 22.75 218.03 22.82 L 218.17 23.46 L 218.10 24.14 L 217.39 24.39 L 216.52 24.50 L 215.75 24.44 C 215.17 24.30 214.01 24.02 213.43 23.88 Z" />
<path fill="#332e2a" opacity="1.00" d=" M 5.75 51.18 C 6.75 50.73 8.41 50.14 9.12 51.34 C 8.90 52.82 6.88 52.55 5.83 52.33 C 5.81 52.05 5.77 51.47 5.75 51.18 Z" />
<path fill="#332e2a" opacity="1.00" d=" M 61.65 51.46 L 61.88 50.84 C 62.31 50.75 63.17 50.57 63.60 50.48 C 64.04 50.61 64.91 50.88 65.35 51.02 C 65.65 51.26 66.24 51.74 66.54 51.98 C 65.99 52.11 64.91 52.37 64.37 52.50 L 63.66 52.54 L 62.86 52.37 L 62.10 52.01 L 61.65 51.46 Z" />
<path fill="#332e2a" opacity="1.00" d=" M 117.64 51.52 L 117.90 50.91 C 118.34 50.80 119.21 50.59 119.65 50.49 C 120.08 50.60 120.93 50.81 121.36 50.92 C 121.64 51.18 122.19 51.69 122.47 51.95 C 121.93 52.08 120.86 52.35 120.32 52.49 L 119.62 52.53 L 118.83 52.37 L 118.08 52.03 L 117.64 51.52 Z" />
<path fill="#332e2a" opacity="1.00" d=" M 173.65 51.46 L 173.88 50.84 C 174.31 50.75 175.17 50.57 175.60 50.48 C 176.04 50.61 176.91 50.88 177.35 51.02 C 177.65 51.26 178.24 51.74 178.54 51.98 C 177.99 52.11 176.91 52.37 176.37 52.50 L 175.66 52.54 L 174.86 52.37 L 174.10 52.01 L 173.65 51.46 Z" />
<path fill="#332e2a" opacity="1.00" d=" M 8.82 54.19 C 10.34 54.06 11.85 53.93 13.37 53.78 C 13.03 54.33 12.36 55.44 12.02 56.00 L 6.81 56.00 C 7.31 55.55 8.32 54.64 8.82 54.19 Z" />
<path fill="#332e2a" opacity="1.00" d=" M 64.59 53.23 L 65.12 53.77 C 65.68 55.84 68.49 56.17 68.76 53.72 C 68.87 54.29 69.09 55.43 69.20 56.00 L 63.74 56.00 C 63.95 55.31 64.38 53.93 64.59 53.23 Z" />
<path fill="#332e2a" opacity="1.00" d=" M 120.55 53.23 L 121.07 53.78 C 121.65 55.75 124.51 56.27 124.73 53.78 C 124.95 54.33 125.37 55.44 125.59 56.00 L 119.74 56.00 C 119.94 55.31 120.35 53.92 120.55 53.23 Z" />
<path fill="#332e2a" opacity="1.00" d=" M 176.59 53.23 L 177.12 53.77 C 177.68 55.84 180.49 56.17 180.76 53.72 C 180.87 54.29 181.09 55.43 181.20 56.00 L 175.74 56.00 C 175.95 55.31 176.38 53.93 176.59 53.23 Z" />
</g>
<g id="#525548ff">
<path fill="#525548" opacity="1.00" d=" M 44.47 0.00 L 48.24 0.00 C 47.60 0.64 47.02 1.34 46.52 2.09 C 47.92 2.16 49.39 2.03 50.59 1.23 C 50.57 2.43 50.49 3.63 50.36 4.82 C 47.94 4.80 45.51 4.82 43.09 4.91 C 43.40 4.02 43.74 3.14 44.11 2.26 C 44.20 1.70 44.38 0.57 44.47 0.00 Z" />
<path fill="#525548" opacity="1.00" d=" M 101.19 0.00 L 104.20 0.00 C 103.57 0.64 103.01 1.34 102.51 2.10 C 103.91 2.16 105.38 2.02 106.58 1.23 C 106.57 2.46 106.48 3.68 106.36 4.90 C 103.89 4.77 101.42 4.67 98.95 4.62 L 98.95 3.87 C 100.01 2.78 100.90 1.52 101.19 0.00 Z" />
<path fill="#525548" opacity="1.00" d=" M 156.80 0.00 L 160.23 0.00 C 159.59 0.64 159.02 1.34 158.52 2.09 C 159.92 2.16 161.39 2.03 162.59 1.23 C 162.57 2.44 162.48 3.65 162.36 4.86 C 160.08 4.80 157.79 4.77 155.50 4.80 C 155.43 3.99 155.37 3.19 155.32 2.39 C 155.69 1.79 156.43 0.60 156.80 0.00 Z" />
<path fill="#525548" opacity="1.00" d=" M 213.19 0.00 L 216.20 0.00 C 215.57 0.64 215.01 1.34 214.51 2.10 C 215.91 2.16 217.38 2.02 218.58 1.23 C 218.57 2.46 218.48 3.68 218.36 4.90 C 215.89 4.77 213.42 4.67 210.95 4.61 L 210.95 3.87 C 212.01 2.78 212.90 1.52 213.19 0.00 Z" />
<path fill="#525548" opacity="1.00" d=" M 8.28 27.47 C 9.86 28.31 11.43 29.16 13.00 30.02 C 13.06 30.98 13.11 31.94 13.14 32.90 C 10.65 32.81 8.17 32.79 5.68 32.82 C 5.52 31.59 5.38 30.36 5.18 29.14 C 6.72 29.64 8.28 30.08 9.83 30.54 C 9.32 29.51 8.80 28.49 8.28 27.47 Z" />
<path fill="#525548" opacity="1.00" d=" M 64.81 27.02 C 66.26 28.57 67.67 30.16 68.88 31.91 L 68.96 32.70 C 66.45 32.73 63.95 32.82 61.45 32.97 C 61.15 32.06 60.84 31.15 60.51 30.25 L 60.87 30.06 C 61.23 29.89 61.95 29.54 62.31 29.37 C 63.41 29.68 64.51 29.98 65.61 30.28 C 65.34 29.19 65.07 28.11 64.81 27.02 Z" />
<path fill="#525548" opacity="1.00" d=" M 120.30 27.44 C 121.75 28.29 123.19 29.15 124.64 30.02 C 124.67 30.93 124.68 31.85 124.66 32.77 C 122.26 32.78 119.86 32.85 117.46 32.96 C 117.16 32.05 116.84 31.15 116.51 30.25 L 116.87 30.06 C 117.23 29.89 117.94 29.56 118.30 29.39 C 119.45 29.67 120.61 29.95 121.77 30.22 C 121.27 29.30 120.78 28.37 120.30 27.44 Z" />
<path fill="#525548" opacity="1.00" d=" M 176.81 27.02 C 178.26 28.57 179.67 30.16 180.88 31.91 L 180.96 32.70 C 178.45 32.73 175.95 32.82 173.45 32.97 C 173.15 32.06 172.84 31.15 172.51 30.25 L 172.87 30.06 C 173.23 29.89 173.95 29.54 174.31 29.37 C 175.41 29.68 176.50 29.98 177.61 30.28 C 177.34 29.19 177.07 28.11 176.81 27.02 Z" />
</g>
<g id="#84ae60ff">
<path fill="#84ae60" opacity="1.00" d=" M 50.53 0.00 L 57.65 0.00 C 56.36 1.74 55.20 3.58 54.18 5.49 C 55.68 5.20 57.17 4.90 58.67 4.60 C 57.69 10.49 58.25 16.44 61.47 21.69 C 61.65 22.07 62.01 22.83 62.20 23.22 C 59.94 23.79 57.78 24.68 55.66 25.62 C 53.81 24.93 51.95 24.25 50.02 23.79 L 50.50 23.26 C 50.84 23.15 51.51 22.92 51.84 22.80 C 52.90 22.45 54.94 21.93 54.51 20.42 C 53.40 19.43 51.88 20.59 51.19 21.53 C 50.76 20.05 50.35 18.51 50.61 16.97 C 52.41 15.63 54.33 14.49 56.26 13.36 C 55.38 12.54 54.50 11.71 53.64 10.88 C 54.28 10.52 55.57 9.79 56.21 9.42 C 54.65 9.82 53.11 10.25 51.57 10.71 C 51.94 8.44 52.37 6.19 52.78 3.92 C 51.93 4.58 51.09 5.24 50.24 5.89 L 50.36 4.82 C 50.49 3.63 50.57 2.43 50.59 1.23 C 50.58 0.92 50.55 0.31 50.53 0.00 M 57.17 20.22 C 55.51 21.07 57.38 23.15 58.69 22.26 C 60.32 21.47 58.42 19.39 57.17 20.22 Z" />
<path fill="#84ae60" opacity="1.00" d=" M 106.51 0.00 L 113.65 0.00 C 112.36 1.74 111.20 3.58 110.18 5.49 C 111.67 5.20 113.17 4.90 114.67 4.60 C 113.69 10.49 114.25 16.44 117.47 21.68 C 117.66 22.06 118.02 22.83 118.20 23.21 C 115.94 23.79 113.78 24.67 111.66 25.62 C 109.81 24.94 107.96 24.25 106.04 23.79 L 106.52 23.26 C 106.85 23.15 107.51 22.92 107.84 22.80 C 108.90 22.45 110.94 21.93 110.51 20.42 C 109.40 19.43 107.88 20.59 107.19 21.53 C 106.76 20.06 106.35 18.51 106.61 16.97 C 108.41 15.63 110.33 14.49 112.26 13.36 C 111.38 12.54 110.50 11.71 109.64 10.88 C 110.28 10.52 111.57 9.79 112.21 9.42 C 110.65 9.82 109.11 10.25 107.57 10.71 C 107.94 8.44 108.37 6.18 108.78 3.92 C 107.93 4.59 107.08 5.27 106.24 5.94 L 106.36 4.90 C 106.48 3.68 106.57 2.46 106.58 1.23 C 106.56 0.92 106.53 0.31 106.51 0.00 M 113.17 20.22 C 111.51 21.07 113.38 23.15 114.69 22.26 C 116.32 21.47 114.42 19.39 113.17 20.22 Z" />
<path fill="#84ae60" opacity="1.00" d=" M 162.53 0.00 L 169.65 0.00 C 168.36 1.74 167.20 3.58 166.18 5.49 C 167.67 5.20 169.17 4.90 170.67 4.60 C 169.69 10.49 170.25 16.44 173.47 21.69 C 173.65 22.07 174.02 22.83 174.20 23.22 C 171.94 23.79 169.78 24.68 167.66 25.63 C 165.82 24.94 163.97 24.25 162.07 23.79 L 162.54 23.25 C 162.87 23.14 163.52 22.92 163.84 22.80 C 164.90 22.45 166.94 21.93 166.51 20.42 C 165.40 19.43 163.88 20.59 163.19 21.53 C 162.76 20.05 162.35 18.51 162.61 16.97 C 164.41 15.63 166.32 14.49 168.26 13.36 C 167.38 12.54 166.50 11.71 165.64 10.88 C 166.28 10.52 167.57 9.79 168.21 9.42 C 166.65 9.82 165.11 10.25 163.57 10.71 C 163.94 8.44 164.37 6.18 164.78 3.92 C 163.93 4.59 163.08 5.25 162.24 5.91 L 162.36 4.86 C 162.48 3.65 162.57 2.44 162.59 1.23 C 162.57 0.92 162.54 0.31 162.53 0.00 M 169.17 20.22 C 167.51 21.07 169.38 23.15 170.69 22.26 C 172.32 21.47 170.42 19.39 169.17 20.22 Z" />
</g>
<g id="#6c9a59ff">
<path fill="#6c9a59" opacity="1.00" d=" M 57.65 0.00 L 62.89 0.00 C 61.97 7.20 63.05 14.53 61.47 21.69 C 58.25 16.44 57.69 10.49 58.67 4.60 C 57.17 4.90 55.68 5.20 54.18 5.49 C 55.20 3.58 56.36 1.74 57.65 0.00 M 59.40 3.15 C 58.97 4.55 59.45 5.03 60.85 4.60 C 61.29 3.20 60.80 2.71 59.40 3.15 Z" />
<path fill="#6c9a59" opacity="1.00" d=" M 113.65 0.00 L 118.90 0.00 C 117.97 7.20 119.05 14.52 117.47 21.68 C 114.25 16.44 113.69 10.49 114.67 4.60 C 113.17 4.90 111.67 5.20 110.18 5.49 C 111.20 3.58 112.36 1.74 113.65 0.00 M 115.40 3.15 C 114.97 4.55 115.45 5.03 116.85 4.60 C 117.29 3.20 116.80 2.71 115.40 3.15 Z" />
<path fill="#6c9a59" opacity="1.00" d=" M 169.65 0.00 L 174.89 0.00 C 173.97 7.20 175.05 14.53 173.47 21.69 C 170.25 16.44 169.69 10.49 170.67 4.60 C 169.17 4.90 167.67 5.20 166.18 5.49 C 167.20 3.58 168.36 1.74 169.65 0.00 M 171.40 3.15 C 170.97 4.55 171.45 5.03 172.85 4.60 C 173.29 3.20 172.80 2.71 171.40 3.15 Z" />
</g>
<g id="#565248fe">
<path fill="#565248" opacity="1.00" d=" M 65.66 0.00 L 67.23 0.00 C 67.65 0.23 68.49 0.70 68.91 0.93 C 68.22 2.06 67.98 3.27 68.19 4.57 C 67.11 4.46 66.03 4.36 64.94 4.28 C 65.18 2.85 65.42 1.43 65.66 0.00 Z" />
<path fill="#565248" opacity="1.00" d=" M 122.37 0.00 L 124.25 0.00 C 124.40 0.69 124.71 2.06 124.86 2.75 C 124.64 3.26 124.19 4.28 123.96 4.79 C 122.82 4.59 121.68 4.39 120.54 4.20 C 121.13 2.79 121.72 1.38 122.37 0.00 Z" />
<path fill="#565248" opacity="1.00" d=" M 177.66 0.00 L 179.23 0.00 C 179.65 0.23 180.49 0.70 180.91 0.93 C 180.22 2.06 179.98 3.27 180.19 4.57 C 179.11 4.46 178.02 4.36 176.94 4.28 C 177.18 2.85 177.42 1.43 177.66 0.00 Z" />
<path fill="#565248" opacity="1.00" d=" M 99.35 27.96 C 100.54 28.39 101.73 28.82 102.92 29.26 C 102.97 30.26 103.01 31.26 103.06 32.26 C 101.97 32.39 100.89 32.53 99.81 32.69 C 99.85 31.45 99.64 30.25 99.19 29.07 C 99.23 28.79 99.31 28.24 99.35 27.96 Z" />
<path fill="#565248" opacity="1.00" d=" M 155.21 27.89 C 156.45 28.35 157.70 28.81 158.94 29.28 C 158.97 30.25 159.01 31.21 159.04 32.17 C 157.98 32.31 156.93 32.46 155.87 32.62 C 155.62 32.01 155.10 30.80 154.85 30.19 C 154.94 29.61 155.12 28.46 155.21 27.89 Z" />
<path fill="#565248" opacity="1.00" d=" M 211.35 27.95 C 212.54 28.38 213.73 28.82 214.92 29.26 C 214.96 30.26 215.01 31.26 215.06 32.26 C 213.97 32.39 212.88 32.53 211.81 32.69 C 211.85 31.45 211.64 30.25 211.19 29.07 C 211.23 28.79 211.31 28.23 211.35 27.95 Z" />
</g>
<g id="#437acaff">
<path fill="#437aca" opacity="1.00" d=" M 90.48 0.00 L 92.11 0.00 C 92.59 1.96 93.00 3.94 93.43 5.92 C 89.24 8.12 85.88 11.49 83.07 15.25 C 81.75 9.27 86.42 6.02 90.79 3.62 C 90.69 2.41 90.59 1.21 90.48 0.00 Z" />
<path fill="#437aca" opacity="1.00" d=" M 202.48 0.00 L 204.11 0.00 C 204.59 1.96 205.00 3.94 205.43 5.92 C 201.24 8.12 197.88 11.49 195.07 15.25 C 193.75 9.27 198.42 6.02 202.79 3.62 C 202.69 2.41 202.59 1.21 202.48 0.00 Z" />
</g>
<g id="#298ed7ff">
<path fill="#298ed7" opacity="1.00" d=" M 97.42 0.00 L 99.62 0.00 C 98.89 1.18 98.67 2.46 98.95 3.87 L 98.95 4.62 C 98.96 6.33 98.97 8.05 98.98 9.76 C 98.70 10.98 99.65 12.31 100.98 12.03 C 100.38 13.23 99.80 14.44 99.21 15.64 C 98.24 16.91 98.88 18.98 100.44 19.40 C 100.14 20.65 99.87 21.91 99.62 23.18 C 99.58 23.60 99.49 24.43 99.44 24.85 L 99.41 25.60 C 99.39 26.19 99.36 27.37 99.35 27.96 C 99.31 28.24 99.23 28.79 99.19 29.07 C 98.77 29.50 97.94 30.34 97.53 30.77 C 97.08 20.54 95.69 10.19 97.42 0.00 Z" />
<path fill="#298ed7" opacity="1.00" d=" M 209.42 0.00 L 211.62 0.00 C 210.89 1.18 210.67 2.46 210.95 3.87 L 210.95 4.61 C 210.96 6.33 210.97 8.05 210.98 9.76 C 210.70 10.98 211.65 12.31 212.98 12.03 C 212.38 13.23 211.80 14.44 211.21 15.64 C 210.23 16.91 210.89 18.99 212.45 19.40 C 212.15 20.66 211.89 21.92 211.66 23.18 C 211.62 23.60 211.53 24.43 211.48 24.84 L 211.44 25.59 C 211.42 26.18 211.37 27.36 211.35 27.95 C 211.31 28.23 211.23 28.79 211.19 29.07 C 210.77 29.50 209.94 30.34 209.53 30.77 C 209.08 20.54 207.69 10.19 209.42 0.00 Z" />
<path fill="#298ed7" opacity="1.00" d=" M 67.88 23.71 C 68.56 23.98 69.93 24.52 70.61 24.79 C 71.18 35.17 71.86 45.61 70.67 56.00 L 69.20 56.00 C 69.09 55.43 68.87 54.29 68.76 53.72 L 68.61 52.96 C 68.56 52.57 68.47 51.80 68.42 51.41 C 68.18 50.06 67.90 48.73 67.58 47.40 C 69.14 46.97 69.76 44.90 68.80 43.63 C 68.21 42.43 67.64 41.21 67.05 40.01 C 68.33 40.27 69.44 39.04 69.12 37.79 C 69.09 36.09 69.04 34.40 68.96 32.70 L 68.88 31.91 C 68.61 29.17 68.26 26.44 67.88 23.71 Z" />
<path fill="#298ed7" opacity="1.00" d=" M 179.88 23.71 C 180.56 23.98 181.93 24.52 182.61 24.79 C 183.18 35.17 183.86 45.61 182.67 56.00 L 181.20 56.00 C 181.09 55.43 180.87 54.29 180.76 53.72 L 180.61 52.96 C 180.56 52.57 180.47 51.80 180.42 51.41 C 180.17 50.06 179.90 48.73 179.58 47.40 C 181.14 46.97 181.76 44.90 180.80 43.63 C 180.21 42.43 179.64 41.21 179.05 40.01 C 180.33 40.27 181.44 39.04 181.12 37.79 C 181.09 36.09 181.03 34.40 180.96 32.70 L 180.88 31.91 C 180.61 29.17 180.26 26.44 179.88 23.71 Z" />
</g>
<g id="#5c6268ff">
<path fill="#5c6268" opacity="1.00" d=" M 99.62 0.00 L 101.19 0.00 C 100.90 1.52 100.01 2.78 98.95 3.87 C 98.67 2.46 98.89 1.18 99.62 0.00 Z" />
<path fill="#5c6268" opacity="1.00" d=" M 211.62 0.00 L 213.19 0.00 C 212.90 1.52 212.01 2.78 210.95 3.87 C 210.67 2.46 210.89 1.18 211.62 0.00 Z" />
</g>
<g id="#4476cbff">
<path fill="#4476cb" opacity="1.00" d=" M 138.34 0.00 L 141.41 0.00 C 139.82 1.66 138.45 3.59 136.57 4.95 C 133.78 4.60 131.24 3.25 128.64 2.26 C 131.09 2.16 133.54 2.20 135.98 2.24 C 136.57 1.68 137.75 0.56 138.34 0.00 Z" />
</g>
<g id="#457bcbff">
<path fill="#457bcb" opacity="1.00" d=" M 149.28 0.00 L 149.33 0.00 C 149.69 1.72 150.09 3.44 150.48 5.16 C 145.49 6.74 141.48 10.23 139.81 15.25 C 139.73 12.42 139.75 9.59 139.96 6.76 C 143.55 5.25 146.80 3.04 149.28 0.00 Z" />
</g>
<g id="#278ed8ff">
<path fill="#278ed8" opacity="1.00" d=" M 153.40 0.00 L 155.19 0.00 C 155.22 0.60 155.29 1.79 155.32 2.39 C 155.37 3.19 155.43 3.99 155.50 4.80 C 155.67 6.63 155.92 8.46 156.30 10.27 C 156.51 10.64 156.92 11.39 157.13 11.77 C 156.28 15.53 156.02 19.38 155.65 23.20 C 155.62 23.62 155.57 24.46 155.54 24.88 L 155.46 25.63 C 155.40 26.20 155.27 27.32 155.21 27.89 C 155.12 28.46 154.94 29.61 154.85 30.19 C 154.56 30.40 153.98 30.81 153.69 31.02 C 153.02 20.71 151.69 10.29 153.40 0.00 Z" />
</g>
<g id="#7da960ff">
<path fill="#7da960" opacity="1.00" d=" M 218.51 0.00 L 224.00 0.00 L 224.00 8.16 C 222.56 9.23 221.08 10.24 219.60 11.27 C 219.93 8.81 220.33 6.36 220.74 3.92 C 219.91 4.60 219.07 5.27 218.24 5.94 L 218.36 4.90 C 218.48 3.68 218.57 2.46 218.58 1.23 C 218.56 0.92 218.53 0.31 218.51 0.00 Z" />
</g>
<g id="#a0b6cbff">
<path fill="#a0b6cb" opacity="1.00" d=" M 12.92 0.82 C 13.37 1.31 14.27 2.29 14.72 2.78 L 14.75 3.41 C 14.48 3.69 13.95 4.26 13.68 4.54 C 13.33 4.51 12.64 4.44 12.29 4.41 C 12.15 3.16 12.35 1.96 12.92 0.82 Z" />
<path fill="#a0b6cb" opacity="1.00" d=" M 68.91 0.93 C 69.88 1.45 70.35 2.27 70.30 3.40 C 70.11 3.73 69.73 4.38 69.53 4.71 C 69.20 4.67 68.52 4.60 68.19 4.57 C 67.98 3.27 68.22 2.06 68.91 0.93 Z" />
<path fill="#a0b6cb" opacity="1.00" d=" M 180.91 0.93 C 181.88 1.45 182.35 2.27 182.30 3.40 C 182.11 3.73 181.73 4.38 181.53 4.71 C 181.20 4.67 180.52 4.60 180.19 4.57 C 179.98 3.27 180.22 2.06 180.91 0.93 Z" />
<path fill="#a0b6cb" opacity="1.00" d=" M 41.29 31.05 C 41.82 30.55 42.89 29.56 43.43 29.06 C 43.66 30.22 43.77 31.38 43.77 32.56 C 43.46 32.60 42.84 32.69 42.53 32.73 C 42.23 32.50 41.64 32.04 41.34 31.81 L 41.29 31.05 Z" />
<path fill="#a0b6cb" opacity="1.00" d=" M 97.53 30.77 C 97.94 30.34 98.77 29.50 99.19 29.07 C 99.64 30.25 99.85 31.45 99.81 32.69 C 99.46 32.74 98.78 32.84 98.44 32.90 C 98.21 32.57 97.75 31.91 97.53 31.58 L 97.53 30.77 Z" />
<path fill="#a0b6cb" opacity="1.00" d=" M 209.53 30.77 C 209.94 30.34 210.77 29.50 211.19 29.07 C 211.64 30.25 211.85 31.45 211.81 32.69 C 211.46 32.74 210.78 32.84 210.44 32.90 C 210.21 32.57 209.75 31.91 209.53 31.58 L 209.53 30.77 Z" />
</g>
<g id="#86a0b1ff">
<path fill="#86a0b1" opacity="1.00" d=" M 123.96 4.79 C 124.19 4.28 124.64 3.26 124.86 2.75 C 125.25 2.87 126.02 3.10 126.41 3.22 L 126.40 3.81 C 126.15 4.12 125.64 4.73 125.39 5.04 C 125.03 4.98 124.32 4.85 123.96 4.79 Z" />
<path fill="#86a0b1" opacity="1.00" d=" M 98.98 9.76 C 99.36 9.75 100.12 9.74 100.50 9.73 C 100.70 10.14 101.11 10.98 101.31 11.39 L 100.98 12.03 C 99.65 12.31 98.70 10.98 98.98 9.76 Z" />
<path fill="#86a0b1" opacity="1.00" d=" M 210.98 9.76 C 211.36 9.75 212.12 9.74 212.50 9.73 C 212.70 10.14 213.11 10.98 213.31 11.39 L 212.98 12.03 C 211.65 12.31 210.70 10.98 210.98 9.76 Z" />
<path fill="#86a0b1" opacity="1.00" d=" M 100.44 19.40 C 98.88 18.98 98.24 16.91 99.21 15.64 C 100.79 16.14 101.02 18.07 100.44 19.40 Z" />
<path fill="#86a0b1" opacity="1.00" d=" M 212.45 19.40 C 210.89 18.99 210.23 16.91 211.21 15.64 C 212.79 16.14 213.01 18.07 212.45 19.40 Z" />
<path fill="#86a0b1" opacity="1.00" d=" M 42.53 21.21 L 43.09 21.64 C 43.20 22.07 43.43 22.94 43.54 23.37 C 43.49 23.77 43.38 24.58 43.32 24.98 L 42.81 25.47 C 42.30 24.54 41.92 23.58 41.65 22.56 C 41.87 22.22 42.31 21.54 42.53 21.21 Z" />
<path fill="#86a0b1" opacity="1.00" d=" M 124.13 22.72 C 124.57 22.62 125.45 22.43 125.89 22.34 C 126.94 23.63 125.01 25.07 124.16 23.54 L 124.13 22.72 Z" />
<path fill="#86a0b1" opacity="1.00" d=" M 155.65 23.20 L 156.25 22.72 C 156.55 23.00 157.13 23.58 157.43 23.87 L 157.30 24.63 C 156.86 24.69 155.98 24.82 155.54 24.88 C 155.57 24.46 155.62 23.62 155.65 23.20 Z" />
<path fill="#86a0b1" opacity="1.00" d=" M 154.85 30.19 C 155.10 30.80 155.62 32.01 155.87 32.62 C 155.54 32.68 154.87 32.80 154.54 32.87 C 154.32 32.57 153.90 31.98 153.69 31.68 L 153.69 31.02 C 153.98 30.81 154.56 30.40 154.85 30.19 Z" />
<path fill="#86a0b1" opacity="1.00" d=" M 67.57 37.75 C 67.96 37.76 68.73 37.78 69.12 37.79 C 69.44 39.04 68.33 40.27 67.05 40.01 L 66.73 39.40 C 66.94 38.99 67.36 38.16 67.57 37.75 Z" />
<path fill="#86a0b1" opacity="1.00" d=" M 179.57 37.75 C 179.96 37.76 180.73 37.78 181.12 37.79 C 181.44 39.04 180.33 40.27 179.05 40.01 L 178.73 39.40 C 178.94 38.99 179.36 38.16 179.57 37.75 Z" />
<path fill="#86a0b1" opacity="1.00" d=" M 68.80 43.63 C 69.76 44.90 69.14 46.97 67.58 47.40 C 67.01 46.07 67.20 44.12 68.80 43.63 Z" />
<path fill="#86a0b1" opacity="1.00" d=" M 180.80 43.63 C 181.76 44.90 181.14 46.97 179.58 47.40 C 179.00 46.07 179.20 44.12 180.80 43.63 Z" />
<path fill="#86a0b1" opacity="1.00" d=" M 12.69 49.85 L 13.15 49.39 C 13.40 49.69 13.89 50.29 14.13 50.59 C 14.27 51.76 14.02 52.82 13.37 53.78 L 12.91 53.71 C 12.84 53.27 12.70 52.38 12.63 51.93 C 12.65 51.41 12.68 50.37 12.69 49.85 Z" />
<path fill="#86a0b1" opacity="1.00" d=" M 154.21 50.34 C 154.66 50.44 155.56 50.64 156.01 50.75 L 155.96 51.57 C 155.07 53.03 153.18 51.63 154.21 50.34 Z" />
<path fill="#86a0b1" opacity="1.00" d=" M 123.87 50.93 L 124.36 51.44 C 124.39 51.83 124.43 52.62 124.45 53.01 C 123.99 52.94 123.07 52.80 122.61 52.73 L 122.47 51.95 C 122.82 51.69 123.52 51.19 123.87 50.93 Z" />
</g>
<g id="#87b05cff">
<path fill="#87b05c" opacity="1.00" d=" M 3.40 3.15 C 4.80 2.71 5.29 3.20 4.85 4.60 C 3.45 5.03 2.97 4.55 3.40 3.15 Z" />
<path fill="#87b05c" opacity="1.00" d=" M 59.40 3.15 C 60.80 2.71 61.29 3.20 60.85 4.60 C 59.45 5.03 58.97 4.55 59.40 3.15 Z" />
<path fill="#87b05c" opacity="1.00" d=" M 115.40 3.15 C 116.80 2.71 117.29 3.20 116.85 4.60 C 115.45 5.03 114.97 4.55 115.40 3.15 Z" />
<path fill="#87b05c" opacity="1.00" d=" M 171.40 3.15 C 172.80 2.71 173.29 3.20 172.85 4.60 C 171.45 5.03 170.97 4.55 171.40 3.15 Z" />
</g>
<g id="#86b05fff">
<path fill="#86b05f" opacity="1.00" d=" M 1.98 3.25 C 2.44 9.54 1.76 16.07 5.45 21.69 C 5.73 22.23 6.28 23.31 6.55 23.85 C 5.26 23.49 3.97 23.16 2.67 22.83 C 2.48 23.79 2.29 24.76 2.10 25.72 C 1.40 25.17 0.70 24.61 0.00 24.06 L 0.00 6.61 C 0.50 5.77 1.49 4.09 1.98 3.25 M 1.29 20.53 C 0.43 21.76 2.53 23.04 3.33 21.85 C 4.15 20.65 2.07 19.38 1.29 20.53 Z" />
<path fill="#86b05f" opacity="1.00" d=" M 218.49 49.58 C 222.25 44.01 221.56 37.50 222.03 31.24 C 222.52 32.10 223.51 33.81 224.00 34.67 L 224.00 49.24 C 223.13 48.39 220.82 47.53 220.49 49.30 C 221.06 50.70 222.93 50.15 224.00 49.76 L 224.00 51.31 C 223.46 52.25 222.91 53.17 222.35 54.10 C 221.97 53.02 221.60 51.94 221.23 50.86 C 219.96 51.16 218.69 51.47 217.43 51.81 C 217.70 51.25 218.23 50.13 218.49 49.58 Z" />
</g>
<g id="#2f8bd3fe">
<path fill="#2f8bd3" opacity="1.00" d=" M 14.75 3.41 C 15.33 7.46 15.82 11.59 14.97 15.64 C 14.47 15.43 13.46 15.00 12.95 14.79 C 13.28 12.50 13.59 10.20 13.91 7.91 C 13.00 8.63 12.10 9.35 11.19 10.07 C 11.81 8.14 12.68 6.30 13.68 4.54 C 13.95 4.26 14.48 3.69 14.75 3.41 Z" />
</g>
<g id="#322f2cff">
<path fill="#322f2c" opacity="1.00" d=" M 43.09 4.91 C 45.51 4.82 47.94 4.80 50.36 4.82 L 50.24 5.89 C 49.75 11.54 48.12 16.96 46.61 22.39 C 45.99 22.52 44.76 22.78 44.15 22.90 L 43.54 23.37 C 43.43 22.94 43.20 22.07 43.09 21.64 C 43.23 21.08 43.52 19.95 43.66 19.39 C 44.00 18.24 44.17 17.05 44.22 15.86 C 44.33 14.63 44.48 13.41 44.62 12.18 L 44.71 11.37 C 47.20 11.74 46.51 8.71 44.35 9.60 C 43.89 9.40 42.95 9.01 42.49 8.81 C 42.48 8.43 42.45 7.69 42.44 7.31 C 42.60 6.71 42.92 5.51 43.09 4.91 M 43.74 7.15 C 45.50 8.14 47.26 9.12 49.02 10.11 C 49.01 9.33 48.98 7.77 48.97 6.99 C 47.23 7.04 45.48 7.10 43.74 7.15 Z" />
<path fill="#322f2c" opacity="1.00" d=" M 98.95 4.62 C 101.42 4.67 103.89 4.77 106.36 4.90 L 106.24 5.94 C 105.75 11.53 104.13 16.88 102.66 22.25 C 102.05 22.36 100.83 22.59 100.22 22.71 L 99.62 23.18 C 99.87 21.91 100.14 20.65 100.44 19.40 C 101.02 18.07 100.79 16.14 99.21 15.64 C 99.80 14.44 100.38 13.23 100.98 12.03 L 101.31 11.39 C 103.79 11.15 102.36 8.44 100.50 9.73 C 100.12 9.74 99.36 9.75 98.98 9.76 C 98.97 8.05 98.96 6.33 98.95 4.62 M 99.74 7.15 C 101.50 8.14 103.26 9.12 105.02 10.11 C 105.01 9.33 104.98 7.77 104.97 6.99 C 103.23 7.04 101.48 7.10 99.74 7.15 Z" />
<path fill="#322f2c" opacity="1.00" d=" M 155.50 4.80 C 157.79 4.77 160.08 4.80 162.36 4.86 L 162.24 5.91 C 161.74 11.50 160.13 16.86 158.68 22.24 C 158.08 22.36 156.86 22.60 156.25 22.72 L 155.65 23.20 C 156.02 19.38 156.28 15.53 157.13 11.77 C 159.21 11.00 157.68 8.11 156.30 10.27 C 155.92 8.46 155.67 6.63 155.50 4.80 M 155.74 7.15 C 157.50 8.14 159.26 9.12 161.02 10.11 C 161.01 9.33 160.98 7.77 160.97 6.99 C 159.22 7.04 157.48 7.10 155.74 7.15 Z" />
<path fill="#322f2c" opacity="1.00" d=" M 210.95 4.61 C 213.42 4.67 215.89 4.77 218.36 4.90 L 218.24 5.94 C 217.73 11.53 216.12 16.89 214.68 22.28 C 214.08 22.38 212.87 22.60 212.27 22.71 L 211.66 23.18 C 211.89 21.92 212.15 20.66 212.45 19.40 C 213.01 18.07 212.79 16.14 211.21 15.64 C 211.80 14.44 212.38 13.23 212.98 12.03 L 213.31 11.39 C 215.79 11.15 214.35 8.44 212.50 9.73 C 212.12 9.74 211.36 9.75 210.98 9.76 C 210.97 8.05 210.96 6.33 210.95 4.61 M 211.74 7.15 C 213.50 8.14 215.26 9.12 217.02 10.11 C 217.01 9.33 216.98 7.77 216.97 6.99 C 215.22 7.04 213.48 7.10 211.74 7.15 Z" />
<path fill="#322f2c" opacity="1.00" d=" M 5.68 32.82 C 8.17 32.79 10.65 32.81 13.14 32.90 C 13.15 33.45 13.16 34.56 13.16 35.11 C 13.03 35.42 12.76 36.05 12.63 36.37 C 12.42 36.84 12.00 37.78 11.80 38.26 C 10.35 36.02 8.79 39.17 11.08 39.79 L 11.16 40.45 C 11.30 41.62 11.45 42.79 11.56 43.97 C 11.62 45.13 11.79 46.29 12.12 47.41 C 12.26 48.02 12.55 49.24 12.69 49.85 C 12.68 50.37 12.65 51.41 12.63 51.93 L 12.01 51.34 C 6.76 47.19 6.48 39.95 5.81 33.89 L 5.68 32.82 M 7.03 34.99 C 7.02 35.77 6.99 37.33 6.98 38.11 C 8.74 37.12 10.50 36.14 12.26 35.15 C 10.52 35.10 8.77 35.04 7.03 34.99 Z" />
<path fill="#322f2c" opacity="1.00" d=" M 61.45 32.97 C 63.95 32.82 66.45 32.73 68.96 32.70 C 69.04 34.40 69.09 36.09 69.12 37.79 C 68.73 37.78 67.96 37.76 67.57 37.75 C 65.74 36.43 64.24 39.10 66.73 39.40 L 67.05 40.01 C 67.64 41.21 68.21 42.43 68.80 43.63 C 67.20 44.12 67.01 46.07 67.58 47.40 C 67.90 48.73 68.18 50.06 68.42 51.41 L 67.90 50.92 C 67.36 50.77 66.28 50.47 65.74 50.32 C 65.46 49.37 64.95 48.55 64.22 47.86 C 63.11 43.26 62.59 38.54 61.69 33.90 L 61.45 32.97 M 63.03 34.99 C 63.02 35.77 62.99 37.33 62.98 38.11 C 64.74 37.12 66.50 36.14 68.26 35.15 C 66.52 35.10 64.77 35.04 63.03 34.99 Z" />
<path fill="#322f2c" opacity="1.00" d=" M 117.46 32.96 C 119.86 32.85 122.26 32.78 124.66 32.77 C 124.43 34.57 124.08 36.35 123.70 38.13 C 121.93 36.09 120.91 39.44 123.23 39.75 C 123.54 43.65 123.99 47.54 124.36 51.44 L 123.87 50.93 C 123.34 50.75 122.28 50.40 121.76 50.22 C 121.57 49.17 120.98 48.44 120.00 48.01 C 119.38 43.28 118.63 38.57 117.71 33.89 L 117.46 32.96 M 119.03 34.99 C 119.02 35.77 118.99 37.33 118.98 38.11 C 120.74 37.12 122.50 36.14 124.26 35.15 C 122.51 35.10 120.77 35.04 119.03 34.99 Z" />
<path fill="#322f2c" opacity="1.00" d=" M 173.45 32.97 C 175.95 32.82 178.45 32.73 180.96 32.70 C 181.03 34.40 181.09 36.09 181.12 37.79 C 180.73 37.78 179.96 37.76 179.57 37.75 C 177.73 36.43 176.24 39.10 178.73 39.40 L 179.05 40.01 C 179.64 41.21 180.21 42.43 180.80 43.63 C 179.20 44.12 179.00 46.07 179.58 47.40 C 179.90 48.73 180.17 50.06 180.42 51.41 L 179.90 50.92 C 179.36 50.77 178.28 50.47 177.74 50.32 C 177.45 49.37 176.95 48.55 176.22 47.86 C 175.11 43.26 174.58 38.54 173.69 33.90 L 173.45 32.97 M 175.03 34.99 C 175.02 35.77 174.99 37.33 174.98 38.11 C 176.74 37.12 178.50 36.14 180.26 35.15 C 178.51 35.10 176.77 35.04 175.03 34.99 Z" />
</g>
<g id="#4f6048ff">
<path fill="#4f6048" opacity="1.00" d=" M 50.24 5.89 C 51.09 5.24 51.93 4.58 52.78 3.92 C 52.37 6.19 51.94 8.44 51.57 10.71 C 51.24 12.80 50.84 14.87 50.61 16.97 C 50.35 18.51 50.76 20.05 51.19 21.53 C 51.35 21.85 51.68 22.48 51.84 22.80 C 51.51 22.92 50.84 23.15 50.50 23.26 L 50.26 22.70 C 50.39 19.80 46.00 19.77 48.54 22.49 C 48.02 22.65 46.99 22.98 46.47 23.15 L 46.61 22.39 C 48.12 16.96 49.75 11.54 50.24 5.89 Z" />
<path fill="#4f6048" opacity="1.00" d=" M 106.24 5.94 C 107.08 5.27 107.93 4.59 108.78 3.92 C 108.37 6.18 107.94 8.44 107.57 10.71 C 107.24 12.80 106.84 14.87 106.61 16.97 C 106.35 18.51 106.76 20.06 107.19 21.53 C 107.35 21.85 107.68 22.48 107.84 22.80 C 107.51 22.92 106.85 23.15 106.52 23.26 L 106.28 22.69 C 106.42 19.80 101.99 19.72 104.55 22.44 C 104.04 22.59 103.02 22.88 102.51 23.02 L 102.66 22.25 C 104.13 16.88 105.75 11.53 106.24 5.94 Z" />
<path fill="#4f6048" opacity="1.00" d=" M 162.24 5.91 C 163.08 5.25 163.93 4.59 164.78 3.92 C 164.37 6.18 163.94 8.44 163.57 10.71 C 163.24 12.80 162.84 14.87 162.61 16.97 C 162.35 18.51 162.76 20.05 163.19 21.53 C 163.35 21.85 163.68 22.48 163.84 22.80 C 163.52 22.92 162.87 23.14 162.54 23.25 L 162.29 22.68 C 162.42 19.78 157.98 19.71 160.57 22.44 C 160.06 22.58 159.05 22.87 158.55 23.01 L 158.68 22.24 C 160.13 16.86 161.74 11.50 162.24 5.91 Z" />
<path fill="#4f6048" opacity="1.00" d=" M 218.24 5.94 C 219.07 5.27 219.91 4.60 220.74 3.92 C 220.33 6.36 219.93 8.81 219.60 11.27 C 219.33 13.19 219.02 15.11 218.75 17.04 C 218.38 19.16 218.37 21.32 218.17 23.46 L 218.03 22.82 C 218.58 19.86 214.16 19.62 216.43 22.52 C 215.96 22.66 215.02 22.93 214.54 23.06 L 214.68 22.28 C 216.12 16.89 217.73 11.53 218.24 5.94 Z" />
</g>
<g id="#2c8ed7ff">
<path fill="#2c8ed7" opacity="1.00" d=" M 70.30 3.40 C 70.70 10.28 71.19 17.19 70.68 24.07 C 70.54 23.67 70.25 22.87 70.11 22.47 C 69.86 21.80 69.35 20.47 69.10 19.80 C 68.44 18.00 67.77 16.20 67.16 14.38 C 69.67 15.48 69.31 11.86 67.09 12.05 C 67.70 9.54 68.44 7.05 69.53 4.71 C 69.73 4.38 70.11 3.73 70.30 3.40 Z" />
<path fill="#2c8ed7" opacity="1.00" d=" M 182.30 3.40 C 182.70 10.28 183.19 17.19 182.68 24.07 C 182.54 23.67 182.25 22.87 182.11 22.47 C 181.86 21.80 181.35 20.47 181.10 19.80 C 180.44 18.00 179.77 16.20 179.16 14.38 C 181.66 15.48 181.30 11.86 179.09 12.05 C 179.70 9.54 180.43 7.05 181.53 4.71 C 181.73 4.38 182.11 3.73 182.30 3.40 Z" />
<path fill="#2c8ed7" opacity="1.00" d=" M 97.46 52.34 C 96.65 45.45 97.60 38.50 97.53 31.58 C 97.75 31.91 98.21 32.57 98.44 32.90 C 99.57 35.16 100.30 37.60 100.91 40.05 C 98.69 39.85 98.33 43.48 100.84 42.37 C 100.22 44.19 99.56 45.99 98.93 47.80 C 98.69 48.47 98.22 49.82 97.99 50.49 C 97.85 50.95 97.59 51.88 97.46 52.34 Z" />
<path fill="#2c8ed7" opacity="1.00" d=" M 209.46 52.34 C 208.64 45.45 209.60 38.50 209.53 31.58 C 209.75 31.91 210.21 32.57 210.44 32.90 C 211.57 35.16 212.30 37.60 212.91 40.05 C 210.69 39.85 210.33 43.48 212.84 42.37 C 212.22 44.19 211.56 45.99 210.93 47.80 C 210.69 48.47 210.22 49.82 209.98 50.49 C 209.85 50.95 209.59 51.88 209.46 52.34 Z" />
</g>
<g id="#288dd7ff">
<path fill="#288dd7" opacity="1.00" d=" M 126.40 3.81 C 126.36 21.22 127.97 38.60 126.89 56.00 L 125.59 56.00 C 125.37 55.44 124.95 54.33 124.73 53.78 L 124.45 53.01 C 124.43 52.62 124.39 51.83 124.36 51.44 C 123.99 47.54 123.54 43.65 123.23 39.75 C 123.34 39.35 123.58 38.53 123.70 38.13 C 124.08 36.35 124.43 34.57 124.66 32.77 C 124.68 31.85 124.67 30.93 124.64 30.02 C 124.53 27.86 124.28 25.70 124.16 23.54 C 125.01 25.07 126.94 23.63 125.89 22.34 C 125.59 21.47 125.29 20.59 124.99 19.72 C 124.46 18.19 123.91 16.67 123.33 15.17 C 125.34 14.94 124.84 12.27 123.15 11.94 C 123.74 9.59 124.39 7.25 125.39 5.04 C 125.64 4.73 126.15 4.12 126.40 3.81 Z" />
</g>
<g id="#a5bbd1ff">
<path fill="#a5bbd1" opacity="1.00" d=" M 11.19 10.07 C 12.10 9.35 13.00 8.63 13.91 7.91 C 13.59 10.20 13.28 12.50 12.95 14.79 C 12.52 14.61 11.66 14.24 11.23 14.05 C 11.16 12.73 11.15 11.40 11.19 10.07 Z" />
<path fill="#a5bbd1" opacity="1.00" d=" M 42.09 35.90 C 42.99 36.63 43.89 37.36 44.79 38.09 C 44.82 39.41 44.79 40.73 44.70 42.04 C 44.29 42.23 43.46 42.60 43.04 42.78 C 42.71 40.49 42.41 38.19 42.09 35.90 Z" />
</g>
<g id="#7b9eb5ff">
<path fill="#7b9eb5" opacity="1.00" d=" M 39.72 8.26 C 40.64 8.45 41.57 8.63 42.49 8.81 C 42.95 9.01 43.89 9.40 44.35 9.60 C 44.44 10.05 44.62 10.93 44.71 11.37 L 44.62 12.18 C 43.76 11.47 42.90 10.76 42.03 10.06 C 41.27 9.44 40.50 8.85 39.72 8.26 Z" />
<path fill="#7b9eb5" opacity="1.00" d=" M 12.63 36.37 C 13.88 36.32 15.13 36.30 16.38 36.29 C 15.61 36.91 14.84 37.52 14.07 38.14 C 13.10 38.91 12.13 39.68 11.16 40.45 L 11.08 39.79 C 11.26 39.40 11.62 38.64 11.80 38.26 C 12.00 37.78 12.42 36.84 12.63 36.37 Z" />
</g>
<g id="#6b995aff">
<path fill="#6b995a" opacity="1.00" d=" M 51.57 10.71 C 53.11 10.25 54.65 9.82 56.21 9.42 C 55.57 9.79 54.28 10.52 53.64 10.88 C 54.50 11.71 55.38 12.54 56.26 13.36 C 54.33 14.49 52.41 15.63 50.61 16.97 C 50.84 14.87 51.24 12.80 51.57 10.71 Z" />
<path fill="#6b995a" opacity="1.00" d=" M 107.57 10.71 C 109.11 10.25 110.65 9.82 112.21 9.42 C 111.57 9.79 110.28 10.52 109.64 10.88 C 110.50 11.71 111.38 12.54 112.26 13.36 C 110.33 14.49 108.41 15.63 106.61 16.97 C 106.84 14.87 107.24 12.80 107.57 10.71 Z" />
<path fill="#6b995a" opacity="1.00" d=" M 163.57 10.71 C 165.11 10.25 166.65 9.82 168.21 9.42 C 167.57 9.79 166.28 10.52 165.64 10.88 C 166.50 11.71 167.38 12.54 168.26 13.36 C 166.32 14.49 164.41 15.63 162.61 16.97 C 162.84 14.87 163.24 12.80 163.57 10.71 Z" />
<path fill="#6b995a" opacity="1.00" d=" M 219.60 11.27 C 221.08 10.24 222.56 9.23 224.00 8.16 L 224.00 10.76 C 221.00 8.45 220.82 14.20 224.00 12.36 L 224.00 12.81 C 222.23 14.20 220.41 15.52 218.75 17.04 C 219.02 15.11 219.33 13.19 219.60 11.27 Z" />
</g>
<g id="#3490d2ff">
<path fill="#3490d2" opacity="1.00" d=" M 42.03 10.06 C 42.90 10.76 43.76 11.47 44.62 12.18 C 44.48 13.41 44.33 14.63 44.22 15.86 C 43.47 15.99 41.98 16.25 41.24 16.39 C 41.44 14.80 41.83 11.64 42.03 10.06 Z" />
<path fill="#3490d2" opacity="1.00" d=" M 11.16 40.45 C 12.13 39.68 13.10 38.91 14.07 38.14 C 14.16 39.72 14.35 42.89 14.45 44.47 C 13.72 44.35 12.28 44.09 11.56 43.97 C 11.45 42.79 11.30 41.62 11.16 40.45 Z" />
</g>
<g id="#8db764ff">
<path fill="#8db764" opacity="1.00" d=" M 224.00 12.36 C 220.82 14.20 221.00 8.45 224.00 10.76 L 224.00 12.36 Z" />
</g>
<g id="#8bb5d9ff">
<path fill="#8bb5d9" opacity="1.00" d=" M 67.16 14.38 C 67.14 13.80 67.11 12.63 67.09 12.05 C 69.31 11.86 69.67 15.48 67.16 14.38 Z" />
<path fill="#8bb5d9" opacity="1.00" d=" M 179.16 14.38 C 179.14 13.80 179.11 12.63 179.09 12.05 C 181.30 11.86 181.66 15.48 179.16 14.38 Z" />
<path fill="#8bb5d9" opacity="1.00" d=" M 100.91 40.05 C 100.89 40.63 100.86 41.79 100.84 42.37 C 98.33 43.48 98.69 39.85 100.91 40.05 Z" />
<path fill="#8bb5d9" opacity="1.00" d=" M 212.91 40.05 C 212.89 40.63 212.86 41.79 212.84 42.37 C 210.33 43.48 210.69 39.85 212.91 40.05 Z" />
</g>
<g id="#6e9bbbff">
<path fill="#6e9bbb" opacity="1.00" d=" M 123.33 15.17 C 122.83 14.11 122.77 13.04 123.15 11.94 C 124.84 12.27 125.34 14.94 123.33 15.17 Z" />
<path fill="#6e9bbb" opacity="1.00" d=" M 156.84 39.93 C 157.21 41.03 157.15 42.11 156.67 43.16 C 154.66 42.94 155.15 40.26 156.84 39.93 Z" />
</g>
<g id="#2a8ed7ff">
<path fill="#2a8ed7" opacity="1.00" d=" M 11.23 14.05 C 11.66 14.24 12.52 14.61 12.95 14.79 C 13.46 15.00 14.47 15.43 14.97 15.64 C 15.52 17.13 16.08 18.60 16.65 20.08 C 16.04 21.40 15.42 22.72 14.81 24.04 C 14.66 23.65 14.36 22.86 14.21 22.46 C 13.94 21.79 13.41 20.45 13.14 19.78 C 12.44 17.89 11.76 16.00 11.23 14.05 Z" />
<path fill="#2a8ed7" opacity="1.00" d=" M 43.04 42.78 C 43.46 42.60 44.29 42.23 44.70 42.04 C 44.21 43.99 43.57 45.90 42.96 47.81 C 42.73 48.49 42.28 49.86 42.05 50.54 C 41.95 50.97 41.75 51.81 41.65 52.24 C 40.83 50.89 40.04 49.52 39.23 48.16 C 39.86 46.66 40.46 45.16 41.06 43.65 C 41.55 43.43 42.55 43.00 43.04 42.78 Z" />
</g>
<g id="#81ac5dff">
<path fill="#81ac5d" opacity="1.00" d=" M 218.75 17.04 C 220.41 15.52 222.23 14.20 224.00 12.81 L 224.00 27.69 C 223.27 26.12 222.49 24.57 221.73 23.01 C 220.52 23.38 219.30 23.75 218.10 24.14 L 218.17 23.46 C 218.37 21.32 218.38 19.16 218.75 17.04 Z" />
</g>
<g id="#4478cbff">
<path fill="#4478cb" opacity="1.00" d=" M 137.54 15.27 C 138.41 14.13 140.38 15.59 139.46 16.73 C 138.58 17.87 136.62 16.41 137.54 15.27 Z" />
</g>
<g id="#86a0b0fe">
<path fill="#86a0b0" opacity="1.00" d=" M 41.24 16.39 C 41.98 16.25 43.47 15.99 44.22 15.86 C 44.17 17.05 44.00 18.24 43.66 19.39 C 42.70 18.75 41.79 18.01 41.15 17.04 L 41.24 16.39 Z" />
<path fill="#86a0b0" opacity="1.00" d=" M 11.56 43.97 C 12.28 44.09 13.72 44.35 14.45 44.47 L 15.10 44.80 C 14.24 45.81 13.28 46.76 12.12 47.41 C 11.79 46.29 11.62 45.13 11.56 43.97 Z" />
</g>
<g id="#2889d5ff">
<path fill="#2889d5" opacity="1.00" d=" M 42.53 21.21 C 41.96 19.86 41.45 18.48 41.15 17.04 C 41.79 18.01 42.70 18.75 43.66 19.39 C 43.52 19.95 43.23 21.08 43.09 21.64 L 42.53 21.21 Z" />
</g>
<g id="#407acbff">
<path fill="#407acb" opacity="1.00" d=" M 22.32 17.98 C 26.38 20.11 29.37 23.63 31.92 27.36 C 35.07 28.26 38.19 29.43 40.82 31.43 L 40.80 32.52 C 36.53 32.01 32.25 31.56 27.95 31.31 C 28.54 29.23 29.14 27.15 29.69 25.05 C 25.75 26.87 21.92 29.01 18.81 32.08 C 24.79 35.50 31.08 38.43 36.66 42.50 C 33.91 41.91 31.17 41.32 28.44 40.68 C 27.04 43.98 25.48 47.20 23.95 50.44 C 25.37 50.92 26.78 51.41 28.19 51.89 C 24.27 52.88 20.44 54.16 16.84 56.00 L 15.43 56.00 L 16.21 55.36 C 18.09 53.80 19.95 52.23 21.84 50.67 C 21.46 49.15 21.06 47.62 20.65 46.10 C 23.21 44.60 26.15 43.16 27.35 40.24 C 24.42 37.48 20.32 36.39 16.38 36.29 C 15.13 36.30 13.88 36.32 12.63 36.37 C 12.76 36.05 13.03 35.42 13.16 35.11 C 13.38 34.59 13.82 33.55 14.04 33.03 C 15.06 33.88 16.09 34.74 17.11 35.59 C 17.61 33.19 18.08 30.77 18.35 28.33 C 21.49 27.20 24.61 26.01 27.72 24.78 C 25.99 22.45 24.11 20.24 22.32 17.98 Z" />
</g>
<g id="#67965dff">
<path fill="#67965d" opacity="1.00" d=" M 1.29 20.53 C 2.07 19.38 4.15 20.65 3.33 21.85 C 2.53 23.04 0.43 21.76 1.29 20.53 Z" />
</g>
<g id="#6c5e4cff">
<path fill="#6c5e4c" opacity="1.00" d=" M 9.45 20.20 C 10.37 20.09 12.22 19.88 13.14 19.78 C 13.41 20.45 13.94 21.79 14.21 22.46 C 13.59 22.56 12.34 22.75 11.72 22.84 C 11.22 22.90 10.21 23.02 9.71 23.08 C 9.63 22.12 9.54 21.16 9.45 20.20 Z" />
<path fill="#6c5e4c" opacity="1.00" d=" M 65.46 20.19 C 66.37 20.10 68.19 19.90 69.10 19.80 C 69.35 20.47 69.86 21.80 70.11 22.47 C 69.52 22.58 68.36 22.80 67.77 22.91 C 67.26 22.95 66.23 23.04 65.71 23.09 C 65.63 22.12 65.55 21.16 65.46 20.19 Z" />
<path fill="#6c5e4c" opacity="1.00" d=" M 121.47 20.20 C 122.35 20.08 124.11 19.84 124.99 19.72 C 125.29 20.59 125.59 21.47 125.89 22.34 C 125.45 22.43 124.57 22.62 124.13 22.72 C 123.53 22.82 122.32 23.04 121.72 23.14 C 121.64 22.16 121.56 21.18 121.47 20.20 Z" />
<path fill="#6c5e4c" opacity="1.00" d=" M 177.46 20.19 C 178.37 20.10 180.19 19.90 181.10 19.80 C 181.35 20.47 181.86 21.80 182.11 22.47 C 181.52 22.58 180.36 22.80 179.77 22.91 C 179.26 22.95 178.23 23.04 177.71 23.09 C 177.63 22.12 177.55 21.16 177.46 20.19 Z" />
<path fill="#6c5e4c" opacity="1.00" d=" M 42.05 50.54 C 42.28 49.86 42.73 48.49 42.96 47.81 C 43.85 47.90 45.64 48.10 46.54 48.19 C 46.44 49.16 46.36 50.13 46.27 51.10 C 45.85 51.04 45.00 50.91 44.58 50.85 C 43.95 50.78 42.68 50.62 42.05 50.54 Z" />
<path fill="#6c5e4c" opacity="1.00" d=" M 97.99 50.49 C 98.22 49.82 98.69 48.47 98.93 47.80 C 99.83 47.90 101.63 48.11 102.53 48.21 C 102.44 49.13 102.35 50.06 102.27 50.99 C 101.74 51.15 100.66 51.48 100.13 51.65 C 99.59 51.36 98.52 50.78 97.99 50.49 Z" />
<path fill="#6c5e4c" opacity="1.00" d=" M 154.21 50.34 C 154.49 49.47 154.77 48.60 155.06 47.73 C 155.93 47.85 157.66 48.08 158.53 48.20 C 158.43 49.18 158.34 50.17 158.26 51.15 C 157.70 51.05 156.57 50.85 156.01 50.75 C 155.56 50.64 154.66 50.44 154.21 50.34 Z" />
<path fill="#6c5e4c" opacity="1.00" d=" M 209.98 50.49 C 210.22 49.82 210.69 48.47 210.93 47.80 C 211.83 47.90 213.63 48.11 214.53 48.21 C 214.44 49.13 214.35 50.06 214.27 50.99 C 213.74 51.15 212.66 51.48 212.12 51.64 C 211.59 51.36 210.52 50.78 209.98 50.49 Z" />
</g>
<g id="#6c9855ff">
<path fill="#6c9855" opacity="1.00" d=" M 51.19 21.53 C 51.88 20.59 53.40 19.43 54.51 20.42 C 54.94 21.93 52.90 22.45 51.84 22.80 C 51.68 22.48 51.35 21.85 51.19 21.53 Z" />
<path fill="#6c9855" opacity="1.00" d=" M 107.19 21.53 C 107.88 20.59 109.40 19.43 110.51 20.42 C 110.94 21.93 108.90 22.45 107.84 22.80 C 107.68 22.48 107.35 21.85 107.19 21.53 Z" />
<path fill="#6c9855" opacity="1.00" d=" M 163.19 21.53 C 163.88 20.59 165.40 19.43 166.51 20.42 C 166.94 21.93 164.90 22.45 163.84 22.80 C 163.68 22.48 163.35 21.85 163.19 21.53 Z" />
<path fill="#6c9855" opacity="1.00" d=" M 57.44 48.30 C 58.56 47.28 60.11 48.52 60.64 49.59 C 60.43 49.88 60.00 50.45 59.79 50.74 C 58.76 50.40 56.80 49.74 57.44 48.30 Z" />
<path fill="#6c9855" opacity="1.00" d=" M 113.44 48.29 C 114.57 47.28 116.12 48.53 116.64 49.60 C 116.42 49.89 115.99 50.46 115.78 50.75 C 114.76 50.39 112.81 49.73 113.44 48.29 Z" />
<path fill="#6c9855" opacity="1.00" d=" M 169.44 48.30 C 170.56 47.28 172.11 48.52 172.64 49.59 C 172.43 49.88 172.00 50.45 171.79 50.74 C 170.76 50.40 168.80 49.74 169.44 48.30 Z" />
</g>
<g id="#65955fff">
<path fill="#65955f" opacity="1.00" d=" M 57.17 20.22 C 58.42 19.39 60.32 21.47 58.69 22.26 C 57.38 23.15 55.51 21.07 57.17 20.22 Z" />
<path fill="#65955f" opacity="1.00" d=" M 113.17 20.22 C 114.42 19.39 116.32 21.47 114.69 22.26 C 113.38 23.15 111.51 21.07 113.17 20.22 Z" />
<path fill="#65955f" opacity="1.00" d=" M 169.17 20.22 C 170.42 19.39 172.32 21.47 170.69 22.26 C 169.38 23.15 167.51 21.07 169.17 20.22 Z" />
<path fill="#65955f" opacity="1.00" d=" M 54.15 48.07 C 55.95 47.91 55.78 50.69 54.03 50.42 C 52.16 50.60 52.44 47.89 54.15 48.07 Z" />
<path fill="#65955f" opacity="1.00" d=" M 110.15 48.07 C 111.95 47.91 111.78 50.69 110.03 50.42 C 108.16 50.60 108.43 47.89 110.15 48.07 Z" />
<path fill="#65955f" opacity="1.00" d=" M 166.15 48.07 C 167.95 47.91 167.78 50.69 166.03 50.42 C 164.16 50.60 164.43 47.89 166.15 48.07 Z" />
<path fill="#65955f" opacity="1.00" d=" M 220.49 49.30 C 220.82 47.53 223.13 48.39 224.00 49.24 L 224.00 49.76 C 222.93 50.15 221.06 50.70 220.49 49.30 Z" />
</g>
<g id="#332f2aff">
<path fill="#332f2a" opacity="1.00" d=" M 5.45 21.69 C 6.86 22.18 8.27 22.69 9.71 23.08 C 10.21 23.02 11.22 22.90 11.72 22.84 L 11.87 23.59 C 12.16 25.00 12.48 26.41 12.81 27.82 C 12.85 28.37 12.95 29.47 13.00 30.02 C 11.43 29.16 9.86 28.31 8.28 27.47 C 8.80 28.49 9.32 29.51 9.83 30.54 C 8.28 30.08 6.72 29.64 5.18 29.14 C 5.16 29.02 5.12 28.77 5.10 28.65 C 6.76 28.27 8.45 26.40 7.11 24.78 C 6.97 24.55 6.69 24.08 6.55 23.85 C 6.28 23.31 5.73 22.23 5.45 21.69 Z" />
<path fill="#332f2a" opacity="1.00" d=" M 117.47 21.68 C 118.88 22.19 120.28 22.72 121.72 23.14 C 122.32 23.04 123.53 22.82 124.13 22.72 L 124.16 23.54 C 124.28 25.70 124.53 27.86 124.64 30.02 C 123.19 29.15 121.75 28.29 120.30 27.44 C 120.78 28.37 121.27 29.30 121.77 30.22 C 120.61 29.95 119.45 29.67 118.30 29.39 C 118.08 29.24 117.65 28.93 117.43 28.78 C 118.93 27.98 119.91 26.05 118.84 24.50 C 118.68 24.18 118.36 23.54 118.20 23.21 C 118.02 22.83 117.66 22.06 117.47 21.68 Z" />
</g>
<g id="#383632ff">
<path fill="#383632" opacity="1.00" d=" M 61.47 21.69 C 62.88 22.17 64.28 22.69 65.71 23.09 C 66.23 23.04 67.26 22.95 67.77 22.91 L 67.88 23.71 C 68.26 26.44 68.61 29.17 68.88 31.91 C 67.67 30.16 66.26 28.57 64.81 27.02 C 65.07 28.11 65.34 29.19 65.61 30.28 C 64.51 29.98 63.41 29.68 62.31 29.37 C 62.09 29.22 61.65 28.93 61.43 28.78 C 62.94 27.98 63.91 26.04 62.84 24.50 C 62.68 24.18 62.36 23.54 62.20 23.22 C 62.01 22.83 61.65 22.07 61.47 21.69 Z" />
<path fill="#383632" opacity="1.00" d=" M 173.47 21.69 C 174.88 22.17 176.28 22.69 177.71 23.09 C 178.23 23.04 179.26 22.95 179.77 22.91 L 179.88 23.71 C 180.26 26.44 180.61 29.17 180.88 31.91 C 179.67 30.16 178.26 28.57 176.81 27.02 C 177.07 28.11 177.34 29.19 177.61 30.28 C 176.50 29.98 175.41 29.68 174.31 29.37 C 174.09 29.22 173.65 28.93 173.43 28.78 C 174.93 27.98 175.91 26.04 174.84 24.50 C 174.68 24.18 174.36 23.54 174.20 23.22 C 174.02 22.83 173.65 22.07 173.47 21.69 Z" />
</g>
<g id="#9db4c9ff">
<path fill="#9db4c9" opacity="1.00" d=" M 11.72 22.84 C 12.34 22.75 13.59 22.56 14.21 22.46 C 14.36 22.86 14.66 23.65 14.81 24.04 L 14.51 24.68 C 13.85 24.40 12.53 23.86 11.87 23.59 L 11.72 22.84 Z" />
<path fill="#9db4c9" opacity="1.00" d=" M 67.77 22.91 C 68.36 22.80 69.52 22.58 70.11 22.47 C 70.25 22.87 70.54 23.67 70.68 24.07 L 70.61 24.79 C 69.93 24.52 68.56 23.98 67.88 23.71 L 67.77 22.91 Z" />
<path fill="#9db4c9" opacity="1.00" d=" M 179.77 22.91 C 180.36 22.80 181.52 22.58 182.11 22.47 C 182.25 22.87 182.54 23.67 182.68 24.07 L 182.61 24.79 C 181.93 24.52 180.56 23.98 179.88 23.71 L 179.77 22.91 Z" />
<path fill="#9db4c9" opacity="1.00" d=" M 42.05 50.54 C 42.68 50.62 43.95 50.78 44.58 50.85 L 44.39 51.59 C 43.81 51.92 42.64 52.57 42.06 52.90 L 41.65 52.24 C 41.75 51.81 41.95 50.97 42.05 50.54 Z" />
<path fill="#9db4c9" opacity="1.00" d=" M 97.99 50.49 C 98.52 50.78 99.59 51.36 100.13 51.65 L 100.07 52.40 C 99.45 52.58 98.21 52.94 97.58 53.12 L 97.46 52.34 C 97.59 51.88 97.85 50.95 97.99 50.49 Z" />
<path fill="#9db4c9" opacity="1.00" d=" M 209.98 50.49 C 210.52 50.78 211.59 51.36 212.12 51.64 L 212.07 52.40 C 211.45 52.58 210.21 52.94 209.58 53.12 L 209.46 52.34 C 209.59 51.88 209.85 50.95 209.98 50.49 Z" />
</g>
<g id="#79a55dff">
<path fill="#79a55d" opacity="1.00" d=" M 2.67 22.83 C 3.97 23.16 5.26 23.49 6.55 23.85 C 6.69 24.08 6.97 24.55 7.11 24.78 C 5.76 25.54 4.50 27.00 5.10 28.65 C 5.12 28.77 5.16 29.02 5.18 29.14 C 5.38 30.36 5.52 31.59 5.68 32.82 L 5.81 33.89 C 4.94 33.23 4.08 32.58 3.22 31.93 C 4.29 38.31 5.67 44.68 5.75 51.18 C 5.77 51.47 5.81 52.05 5.83 52.33 C 5.92 53.56 6.02 54.78 6.11 56.00 L 0.00 56.00 L 0.00 24.06 C 0.70 24.61 1.40 25.17 2.10 25.72 C 2.29 24.76 2.48 23.79 2.67 22.83 Z" />
</g>
<g id="#adc2d9ff">
<path fill="#adc2d9" opacity="1.00" d=" M 43.54 23.37 L 44.15 22.90 C 44.44 23.19 45.03 23.75 45.32 24.04 L 45.20 24.78 C 44.73 24.83 43.79 24.93 43.32 24.98 C 43.38 24.58 43.49 23.77 43.54 23.37 Z" />
<path fill="#adc2d9" opacity="1.00" d=" M 99.62 23.18 L 100.22 22.71 C 100.51 23.00 101.08 23.58 101.37 23.87 L 101.23 24.62 C 100.78 24.68 99.89 24.79 99.44 24.85 C 99.49 24.43 99.58 23.60 99.62 23.18 Z" />
<path fill="#adc2d9" opacity="1.00" d=" M 211.66 23.18 L 212.27 22.71 C 212.56 23.00 213.14 23.59 213.43 23.88 L 213.28 24.62 C 212.83 24.67 211.93 24.78 211.48 24.84 C 211.53 24.43 211.62 23.60 211.66 23.18 Z" />
<path fill="#adc2d9" opacity="1.00" d=" M 12.01 51.34 L 12.63 51.93 C 12.70 52.38 12.84 53.27 12.91 53.71 C 11.44 54.05 10.28 51.86 12.01 51.34 Z" />
<path fill="#adc2d9" opacity="1.00" d=" M 67.90 50.92 L 68.42 51.41 C 68.47 51.80 68.56 52.57 68.61 52.96 C 68.13 52.90 67.18 52.79 66.71 52.74 L 66.54 51.98 C 66.88 51.71 67.56 51.19 67.90 50.92 Z" />
<path fill="#adc2d9" opacity="1.00" d=" M 179.90 50.92 L 180.42 51.41 C 180.47 51.80 180.56 52.57 180.61 52.96 C 180.13 52.90 179.18 52.79 178.71 52.74 L 178.54 51.98 C 178.88 51.71 179.56 51.19 179.90 50.92 Z" />
</g>
<g id="#6c9a5aff">
<path fill="#6c9a5a" opacity="1.00" d=" M 50.02 23.79 C 51.95 24.25 53.81 24.93 55.66 25.62 C 57.78 24.68 59.94 23.79 62.20 23.22 C 62.36 23.54 62.68 24.18 62.84 24.50 C 60.90 25.92 59.06 27.45 57.29 29.07 C 58.48 29.39 59.68 29.72 60.87 30.06 L 60.51 30.25 C 57.99 31.68 55.52 33.21 53.02 34.68 C 55.02 39.80 53.05 45.11 50.47 49.66 C 48.89 42.56 50.26 35.24 48.88 28.15 C 49.13 27.82 49.62 27.17 49.86 26.84 C 49.69 26.17 49.35 24.83 49.18 24.17 L 50.02 23.79 M 55.23 28.52 C 53.80 29.30 54.78 32.26 56.41 31.12 C 57.86 30.32 56.89 27.45 55.23 28.52 Z" />
<path fill="#6c9a5a" opacity="1.00" d=" M 106.04 23.79 C 107.96 24.25 109.81 24.94 111.66 25.62 C 113.78 24.67 115.94 23.79 118.20 23.21 C 118.36 23.54 118.68 24.18 118.84 24.50 C 116.90 25.92 115.06 27.45 113.29 29.07 C 114.48 29.40 115.68 29.73 116.87 30.06 L 116.51 30.25 C 113.99 31.68 111.52 33.21 109.01 34.68 C 111.06 39.78 109.00 45.03 106.43 49.55 C 104.88 42.48 106.29 35.19 104.85 28.13 C 105.10 27.81 105.61 27.16 105.86 26.83 C 105.70 26.16 105.37 24.82 105.21 24.14 L 106.04 23.79 M 111.23 28.52 C 109.80 29.30 110.78 32.26 112.41 31.12 C 113.86 30.32 112.89 27.45 111.23 28.52 Z" />
<path fill="#6c9a5a" opacity="1.00" d=" M 162.07 23.79 C 163.97 24.25 165.82 24.94 167.66 25.63 C 169.78 24.68 171.94 23.79 174.20 23.22 C 174.36 23.54 174.68 24.18 174.84 24.50 C 172.90 25.92 171.06 27.45 169.29 29.07 C 170.48 29.39 171.68 29.72 172.87 30.06 L 172.51 30.25 C 169.99 31.68 167.52 33.21 165.02 34.68 C 167.03 39.80 165.05 45.10 162.47 49.65 C 160.87 42.55 162.29 35.23 160.86 28.14 C 161.11 27.82 161.62 27.17 161.87 26.85 C 161.71 26.17 161.40 24.82 161.24 24.14 L 162.07 23.79 M 167.23 28.52 C 165.80 29.30 166.78 32.26 168.41 31.12 C 169.86 30.32 168.89 27.45 167.23 28.52 Z" />
</g>
<g id="#427acaff">
<path fill="#427aca" opacity="1.00" d=" M 129.05 26.06 C 132.74 24.73 136.52 23.56 140.43 23.16 C 136.27 24.81 131.43 26.12 129.19 30.41 C 133.79 32.63 138.38 34.87 142.79 37.45 C 143.37 37.17 143.95 36.88 144.54 36.59 C 146.14 39.66 148.17 42.54 151.08 44.50 C 148.72 44.51 146.37 44.54 144.02 44.70 C 144.73 43.29 145.45 41.89 146.16 40.48 C 143.82 39.76 141.49 39.01 139.17 38.24 C 139.53 41.95 141.59 44.96 144.00 47.59 C 143.13 48.77 142.24 49.94 141.35 51.11 C 140.77 49.14 140.23 47.16 139.74 45.16 C 138.55 45.42 137.37 45.68 136.19 45.95 C 137.34 43.47 138.69 40.98 138.99 38.22 C 136.18 35.81 132.22 35.49 128.90 34.04 C 128.95 31.38 129.00 28.72 129.05 26.06 Z" />
<path fill="#427aca" opacity="1.00" d=" M 130.84 47.61 C 131.78 46.82 132.71 46.03 133.64 45.23 C 135.56 47.19 137.80 48.80 140.06 50.35 C 135.96 50.47 132.08 51.62 128.58 53.69 C 130.36 51.84 132.17 50.03 133.98 48.22 C 133.20 48.07 131.63 47.76 130.84 47.61 Z" />
</g>
<g id="#6d9b59ff">
<path fill="#6d9b59" opacity="1.00" d=" M 218.10 24.14 C 219.30 23.75 220.52 23.38 221.73 23.01 C 222.49 24.57 223.27 26.12 224.00 27.69 L 224.00 28.45 C 221.94 27.94 222.24 30.97 224.00 31.00 L 224.00 34.67 C 223.51 33.81 222.52 32.10 222.03 31.24 C 221.56 37.50 222.25 44.01 218.49 49.58 C 216.82 42.54 218.36 35.26 216.80 28.25 C 217.07 27.96 217.61 27.36 217.89 27.06 C 217.76 26.39 217.51 25.06 217.39 24.39 L 218.10 24.14 Z" />
</g>
<g id="#75634eff">
<path fill="#75634e" opacity="1.00" d=" M 45.32 24.04 C 45.88 24.13 47.02 24.32 47.58 24.42 L 47.39 25.14 L 46.83 25.72 C 46.42 25.49 45.61 25.02 45.20 24.78 L 45.32 24.04 Z" />
<path fill="#75634e" opacity="1.00" d=" M 101.37 23.87 C 101.93 23.99 103.06 24.22 103.62 24.34 L 103.42 25.05 L 102.87 25.61 C 102.46 25.36 101.64 24.86 101.23 24.62 L 101.37 23.87 Z" />
<path fill="#75634e" opacity="1.00" d=" M 157.43 23.87 C 157.99 23.99 159.10 24.22 159.66 24.34 L 159.46 25.05 L 158.92 25.62 C 158.51 25.37 157.70 24.88 157.30 24.63 L 157.43 23.87 Z" />
<path fill="#75634e" opacity="1.00" d=" M 213.43 23.88 C 214.01 24.02 215.17 24.30 215.75 24.44 L 215.50 25.11 L 214.91 25.63 C 214.50 25.38 213.69 24.87 213.28 24.62 L 213.43 23.88 Z" />
<path fill="#75634e" opacity="1.00" d=" M 64.22 47.86 C 64.95 48.55 65.46 49.37 65.74 50.32 L 65.35 51.02 C 64.91 50.88 64.04 50.61 63.60 50.48 C 63.75 49.82 64.07 48.52 64.22 47.86 Z" />
<path fill="#75634e" opacity="1.00" d=" M 120.00 48.01 C 120.98 48.44 121.57 49.17 121.76 50.22 L 121.36 50.92 C 120.93 50.81 120.08 50.60 119.65 50.49 C 119.74 49.87 119.91 48.63 120.00 48.01 Z" />
<path fill="#75634e" opacity="1.00" d=" M 176.22 47.86 C 176.95 48.55 177.45 49.37 177.74 50.32 L 177.35 51.02 C 176.91 50.88 176.04 50.61 175.60 50.48 C 175.75 49.82 176.07 48.52 176.22 47.86 Z" />
<path fill="#75634e" opacity="1.00" d=" M 64.37 52.50 C 64.91 52.37 65.99 52.11 66.54 51.98 L 66.71 52.74 C 66.31 53.00 65.52 53.51 65.12 53.77 L 64.59 53.23 L 64.37 52.50 Z" />
<path fill="#75634e" opacity="1.00" d=" M 120.32 52.49 C 120.86 52.35 121.93 52.08 122.47 51.95 L 122.61 52.73 C 122.23 52.99 121.46 53.51 121.07 53.78 L 120.55 53.23 L 120.32 52.49 Z" />
<path fill="#75634e" opacity="1.00" d=" M 176.37 52.50 C 176.91 52.37 177.99 52.11 178.54 51.98 L 178.71 52.74 C 178.31 53.00 177.52 53.51 177.12 53.77 L 176.59 53.23 L 176.37 52.50 Z" />
</g>
<g id="#416845ff">
<path fill="#416845" opacity="1.00" d=" M 48.33 24.38 L 49.18 24.17 C 49.35 24.83 49.69 26.17 49.86 26.84 C 49.03 26.22 48.51 25.40 48.33 24.38 Z" />
<path fill="#416845" opacity="1.00" d=" M 104.36 24.33 L 105.21 24.14 C 105.37 24.82 105.70 26.16 105.86 26.83 C 105.02 26.20 104.52 25.37 104.36 24.33 Z" />
<path fill="#416845" opacity="1.00" d=" M 160.39 24.33 L 161.24 24.14 C 161.40 24.82 161.71 26.17 161.87 26.85 C 161.04 26.20 160.55 25.37 160.39 24.33 Z" />
<path fill="#416845" opacity="1.00" d=" M 216.52 24.50 L 217.39 24.39 C 217.51 25.06 217.76 26.39 217.89 27.06 C 217.07 26.39 216.62 25.54 216.52 24.50 Z" />
<path fill="#416845" opacity="1.00" d=" M 7.11 24.78 C 8.45 26.40 6.76 28.27 5.10 28.65 C 4.50 27.00 5.76 25.54 7.11 24.78 Z" />
<path fill="#416845" opacity="1.00" d=" M 62.84 24.50 C 63.91 26.04 62.94 27.98 61.43 28.78 C 59.83 27.51 61.86 25.52 62.84 24.50 Z" />
<path fill="#416845" opacity="1.00" d=" M 118.84 24.50 C 119.91 26.05 118.93 27.98 117.43 28.78 C 115.84 27.50 117.86 25.52 118.84 24.50 Z" />
<path fill="#416845" opacity="1.00" d=" M 174.84 24.50 C 175.91 26.04 174.93 27.98 173.43 28.78 C 171.83 27.51 173.86 25.52 174.84 24.50 Z" />
<path fill="#416845" opacity="1.00" d=" M 62.86 52.37 L 63.66 52.54 C 63.47 53.66 62.95 54.58 62.08 55.31 C 62.28 54.57 62.67 53.11 62.86 52.37 Z" />
<path fill="#416845" opacity="1.00" d=" M 118.83 52.37 L 119.62 52.53 C 119.45 53.65 118.93 54.58 118.07 55.31 C 118.26 54.57 118.64 53.10 118.83 52.37 Z" />
<path fill="#416845" opacity="1.00" d=" M 174.86 52.37 L 175.66 52.54 C 175.47 53.66 174.95 54.58 174.08 55.31 C 174.28 54.57 174.67 53.11 174.86 52.37 Z" />
<path fill="#416845" opacity="1.00" d=" M 49.26 56.00 C 48.25 55.23 47.95 53.70 48.77 52.69 C 49.94 53.60 50.82 54.81 51.68 56.00 L 49.26 56.00 Z" />
<path fill="#416845" opacity="1.00" d=" M 105.13 56.00 C 104.07 55.09 104.28 53.56 104.99 52.51 C 105.91 53.63 106.78 54.79 107.59 56.00 L 105.13 56.00 Z" />
<path fill="#416845" opacity="1.00" d=" M 161.26 56.00 C 160.25 55.22 159.95 53.70 160.77 52.69 C 161.94 53.60 162.82 54.81 163.68 56.00 L 161.26 56.00 Z" />
<path fill="#416845" opacity="1.00" d=" M 217.14 56.00 C 216.06 55.12 216.35 53.60 217.04 52.59 C 217.98 53.67 218.85 54.81 219.66 56.00 L 217.14 56.00 Z" />
</g>
<g id="#4278cbff">
<path fill="#4278cb" opacity="1.00" d=" M 72.80 27.18 C 76.95 26.13 81.10 25.09 85.26 24.06 C 81.06 25.91 76.87 27.98 73.63 31.32 C 80.03 34.27 87.03 36.17 92.75 40.45 C 89.97 39.86 87.20 39.27 84.43 38.66 C 82.89 41.95 81.30 45.22 79.63 48.46 C 82.49 50.23 85.24 52.20 87.77 54.45 C 84.97 53.37 82.30 51.44 79.21 51.45 C 76.50 52.42 74.36 54.45 71.99 56.00 L 71.20 56.00 C 73.46 53.87 75.59 51.62 77.76 49.41 C 77.18 49.25 76.01 48.93 75.43 48.77 C 78.25 45.77 80.69 42.45 82.63 38.82 C 79.90 37.43 76.78 36.61 74.41 34.59 C 73.08 32.40 73.30 29.65 72.80 27.18 Z" />
<path fill="#4278cb" opacity="1.00" d=" M 184.79 27.17 C 188.96 26.13 193.11 25.06 197.30 24.11 C 193.73 26.28 187.40 26.73 186.82 31.71 C 192.50 35.28 199.41 36.30 204.79 40.41 C 202.00 39.84 199.21 39.27 196.43 38.66 C 194.88 41.95 193.30 45.23 191.63 48.46 C 194.49 50.23 197.24 52.20 199.77 54.45 C 196.97 53.37 194.30 51.44 191.21 51.45 C 188.50 52.42 186.36 54.45 183.99 56.00 L 183.20 56.00 C 185.46 53.87 187.59 51.62 189.76 49.41 C 189.18 49.25 188.01 48.93 187.43 48.77 C 190.25 45.77 192.69 42.45 194.63 38.82 C 191.89 37.43 188.78 36.61 186.41 34.59 C 185.08 32.40 185.30 29.64 184.79 27.17 Z" />
</g>
<g id="#3b6bbefe">
<path fill="#3b6bbe" opacity="1.00" d=" M 43.32 24.98 C 43.79 24.93 44.73 24.83 45.20 24.78 C 45.61 25.02 46.42 25.49 46.83 25.72 C 46.08 27.76 43.01 27.96 42.81 25.47 L 43.32 24.98 Z" />
<path fill="#3b6bbe" opacity="1.00" d=" M 99.44 24.85 C 99.89 24.79 100.78 24.68 101.23 24.62 C 101.64 24.86 102.46 25.36 102.87 25.61 C 102.59 27.97 99.64 28.10 99.41 25.60 L 99.44 24.85 Z" />
<path fill="#3b6bbe" opacity="1.00" d=" M 155.54 24.88 C 155.98 24.82 156.86 24.69 157.30 24.63 C 157.70 24.88 158.51 25.37 158.92 25.62 C 158.60 27.92 155.63 28.18 155.46 25.63 L 155.54 24.88 Z" />
<path fill="#3b6bbe" opacity="1.00" d=" M 211.48 24.84 C 211.93 24.78 212.83 24.67 213.28 24.62 C 213.69 24.87 214.50 25.38 214.91 25.63 C 214.58 27.96 211.65 28.08 211.44 25.59 L 211.48 24.84 Z" />
<path fill="#3b6bbe" opacity="1.00" d=" M 65.12 53.77 C 65.52 53.51 66.31 53.00 66.71 52.74 C 67.18 52.79 68.13 52.90 68.61 52.96 L 68.76 53.72 C 68.49 56.17 65.68 55.84 65.12 53.77 Z" />
<path fill="#3b6bbe" opacity="1.00" d=" M 121.07 53.78 C 121.46 53.51 122.23 52.99 122.61 52.73 C 123.07 52.80 123.99 52.94 124.45 53.01 L 124.73 53.78 C 124.51 56.27 121.65 55.75 121.07 53.78 Z" />
<path fill="#3b6bbe" opacity="1.00" d=" M 177.12 53.77 C 177.52 53.51 178.31 53.00 178.71 52.74 C 179.18 52.79 180.13 52.90 180.61 52.96 L 180.76 53.72 C 180.49 56.17 177.68 55.84 177.12 53.77 Z" />
</g>
<g id="#86af5cff">
<path fill="#86af5c" opacity="1.00" d=" M 57.29 29.07 C 59.06 27.45 60.90 25.92 62.84 24.50 C 61.86 25.52 59.83 27.51 61.43 28.78 C 61.65 28.93 62.09 29.22 62.31 29.37 C 61.95 29.54 61.23 29.89 60.87 30.06 C 59.68 29.72 58.48 29.39 57.29 29.07 Z" />
<path fill="#86af5c" opacity="1.00" d=" M 113.29 29.07 C 115.06 27.45 116.90 25.92 118.84 24.50 C 117.86 25.52 115.84 27.50 117.43 28.78 C 117.65 28.93 118.08 29.24 118.30 29.39 C 117.94 29.56 117.23 29.89 116.87 30.06 C 115.68 29.73 114.48 29.40 113.29 29.07 Z" />
<path fill="#86af5c" opacity="1.00" d=" M 169.29 29.07 C 171.06 27.45 172.90 25.92 174.84 24.50 C 173.86 25.52 171.83 27.51 173.43 28.78 C 173.65 28.93 174.09 29.22 174.31 29.37 C 173.95 29.54 173.23 29.89 172.87 30.06 C 171.68 29.72 170.48 29.39 169.29 29.07 Z" />
</g>
<g id="#85af5fff">
<path fill="#85af5f" opacity="1.00" d=" M 53.02 34.68 C 55.52 33.21 57.99 31.68 60.51 30.25 C 60.84 31.15 61.15 32.06 61.45 32.97 L 61.69 33.90 C 60.95 33.24 60.21 32.57 59.47 31.91 C 59.75 34.15 60.02 36.40 60.16 38.66 C 58.71 38.22 57.25 37.80 55.78 37.43 C 56.42 37.78 57.71 38.48 58.35 38.83 C 57.27 40.01 56.19 41.19 55.11 42.37 C 56.83 41.92 58.54 41.44 60.25 40.96 C 60.42 41.10 60.74 41.39 60.91 41.53 C 59.27 42.06 58.62 44.65 60.44 45.39 C 61.13 45.85 61.83 46.31 62.53 46.76 C 61.90 47.71 61.27 48.65 60.64 49.59 C 60.11 48.52 58.56 47.28 57.44 48.30 C 56.80 49.74 58.76 50.40 59.79 50.74 C 60.25 50.92 61.18 51.28 61.65 51.46 L 62.10 52.01 C 60.12 52.34 58.20 52.93 56.30 53.58 C 54.14 52.63 51.93 51.77 49.63 51.22 C 49.84 50.83 50.26 50.05 50.47 49.66 C 53.05 45.11 55.02 39.80 53.02 34.68 M 54.15 48.07 C 52.44 47.89 52.16 50.60 54.03 50.42 C 55.78 50.69 55.95 47.91 54.15 48.07 Z" />
<path fill="#85af5f" opacity="1.00" d=" M 109.01 34.68 C 111.52 33.21 113.99 31.68 116.51 30.25 C 116.84 31.15 117.16 32.05 117.46 32.96 L 117.71 33.89 C 116.96 33.23 116.21 32.58 115.47 31.91 C 115.75 34.16 116.02 36.40 116.16 38.66 C 114.71 38.22 113.25 37.80 111.78 37.43 C 112.42 37.78 113.71 38.48 114.35 38.83 C 113.27 40.01 112.19 41.19 111.11 42.37 C 112.83 41.92 114.54 41.44 116.25 40.96 C 116.42 41.10 116.74 41.39 116.91 41.53 C 115.27 42.06 114.62 44.65 116.44 45.39 C 117.13 45.85 117.83 46.31 118.53 46.76 C 117.90 47.71 117.26 48.66 116.64 49.60 C 116.12 48.53 114.57 47.28 113.44 48.29 C 112.81 49.73 114.76 50.39 115.78 50.75 C 116.24 50.94 117.18 51.33 117.64 51.52 L 118.08 52.03 C 116.10 52.35 114.19 52.93 112.30 53.57 C 110.13 52.64 107.92 51.77 105.62 51.22 C 105.82 50.80 106.23 49.97 106.43 49.55 C 109.00 45.03 111.06 39.78 109.01 34.68 M 110.15 48.07 C 108.43 47.89 108.16 50.60 110.03 50.42 C 111.78 50.69 111.95 47.91 110.15 48.07 Z" />
<path fill="#85af5f" opacity="1.00" d=" M 165.02 34.68 C 167.52 33.21 169.99 31.68 172.51 30.25 C 172.84 31.15 173.15 32.06 173.45 32.97 L 173.69 33.90 C 172.95 33.24 172.21 32.57 171.47 31.91 C 171.75 34.15 172.02 36.40 172.16 38.66 C 170.70 38.22 169.25 37.80 167.78 37.43 C 168.42 37.78 169.71 38.48 170.35 38.83 C 169.27 40.01 168.19 41.19 167.11 42.37 C 168.83 41.92 170.54 41.44 172.25 40.96 C 172.42 41.10 172.74 41.39 172.91 41.53 C 171.27 42.06 170.62 44.65 172.44 45.39 C 173.13 45.85 173.83 46.31 174.53 46.76 C 173.90 47.71 173.27 48.65 172.64 49.59 C 172.11 48.52 170.56 47.28 169.44 48.30 C 168.80 49.74 170.76 50.40 171.79 50.74 C 172.25 50.92 173.18 51.28 173.65 51.46 L 174.10 52.01 C 172.12 52.34 170.20 52.93 168.30 53.58 C 166.14 52.63 163.93 51.77 161.63 51.22 C 161.84 50.83 162.26 50.04 162.47 49.65 C 165.05 45.10 167.03 39.80 165.02 34.68 M 166.15 48.07 C 164.43 47.89 164.16 50.60 166.03 50.42 C 167.78 50.69 167.95 47.91 166.15 48.07 Z" />
</g>
<g id="#525b48ff">
<path fill="#525b48" opacity="1.00" d=" M 3.22 31.93 C 4.08 32.58 4.94 33.23 5.81 33.89 C 6.48 39.95 6.76 47.19 12.01 51.34 C 10.28 51.86 11.44 54.05 12.91 53.71 L 13.37 53.78 C 11.85 53.93 10.34 54.06 8.82 54.19 C 8.32 54.64 7.31 55.55 6.81 56.00 L 6.11 56.00 C 6.02 54.78 5.92 53.56 5.83 52.33 C 6.88 52.55 8.90 52.82 9.12 51.34 C 8.41 50.14 6.75 50.73 5.75 51.18 C 5.67 44.68 4.29 38.31 3.22 31.93 Z" />
</g>
<g id="#2f8bd3ff">
<path fill="#2f8bd3" opacity="1.00" d=" M 40.82 31.43 L 41.34 31.81 C 41.64 32.04 42.23 32.50 42.53 32.73 C 43.43 34.45 44.22 36.23 44.79 38.09 C 43.89 37.36 42.99 36.63 42.09 35.90 C 42.41 38.19 42.71 40.49 43.04 42.78 C 42.55 43.00 41.55 43.43 41.06 43.65 C 40.37 39.97 40.64 36.23 40.80 32.52 L 40.82 31.43 Z" />
</g>
<g id="#4b6148ff">
<path fill="#4b6148" opacity="1.00" d=" M 59.47 31.91 C 60.21 32.57 60.95 33.24 61.69 33.90 C 62.59 38.54 63.11 43.26 64.22 47.86 C 62.68 47.94 62.02 49.52 61.88 50.84 L 61.65 51.46 C 61.18 51.28 60.25 50.92 59.79 50.74 C 60.00 50.45 60.43 49.88 60.64 49.59 C 61.27 48.65 61.90 47.71 62.53 46.76 C 61.83 46.31 61.13 45.85 60.44 45.39 C 62.18 44.90 62.49 42.42 60.91 41.53 C 60.74 41.39 60.42 41.10 60.25 40.96 C 60.23 40.38 60.18 39.24 60.16 38.66 C 60.02 36.40 59.75 34.15 59.47 31.91 Z" />
<path fill="#4b6148" opacity="1.00" d=" M 115.47 31.91 C 116.21 32.58 116.96 33.23 117.71 33.89 C 118.63 38.57 119.38 43.28 120.00 48.01 C 118.49 48.04 117.93 49.64 117.90 50.91 L 117.64 51.52 C 117.18 51.33 116.24 50.94 115.78 50.75 C 115.99 50.46 116.42 49.89 116.64 49.60 C 117.26 48.66 117.90 47.71 118.53 46.76 C 117.83 46.31 117.13 45.85 116.44 45.39 C 118.18 44.90 118.49 42.42 116.91 41.53 C 116.74 41.39 116.42 41.10 116.25 40.96 C 116.23 40.38 116.18 39.24 116.16 38.66 C 116.02 36.40 115.75 34.16 115.47 31.91 Z" />
<path fill="#4b6148" opacity="1.00" d=" M 171.47 31.91 C 172.21 32.57 172.95 33.24 173.69 33.90 C 174.58 38.54 175.11 43.26 176.22 47.86 C 174.68 47.94 174.02 49.52 173.88 50.84 L 173.65 51.46 C 173.18 51.28 172.25 50.92 171.79 50.74 C 172.00 50.45 172.43 49.88 172.64 49.59 C 173.27 48.65 173.90 47.71 174.53 46.76 C 173.83 46.31 173.13 45.85 172.44 45.39 C 174.18 44.90 174.49 42.42 172.91 41.53 C 172.74 41.39 172.42 41.10 172.25 40.96 C 172.23 40.38 172.18 39.24 172.16 38.66 C 172.02 36.40 171.75 34.15 171.47 31.91 Z" />
</g>
<g id="#288cd6ff">
<path fill="#288cd6" opacity="1.00" d=" M 153.83 56.00 C 152.37 47.95 153.59 39.79 153.69 31.68 C 153.90 31.98 154.32 32.57 154.54 32.87 C 155.57 35.13 156.24 37.53 156.84 39.93 C 155.15 40.26 154.66 42.94 156.67 43.16 C 156.10 44.67 155.56 46.20 155.06 47.73 C 154.77 48.60 154.49 49.47 154.21 50.34 C 153.18 51.63 155.07 53.03 155.96 51.57 C 155.73 53.05 155.44 54.54 155.09 56.00 L 153.83 56.00 Z" />
</g>
<g id="#699759ff">
<path fill="#699759" opacity="1.00" d=" M 55.78 37.43 C 57.25 37.80 58.71 38.22 60.16 38.66 C 60.18 39.24 60.23 40.38 60.25 40.96 C 58.54 41.44 56.83 41.92 55.11 42.37 C 56.19 41.19 57.27 40.01 58.35 38.83 C 57.71 38.48 56.42 37.78 55.78 37.43 Z" />
<path fill="#699759" opacity="1.00" d=" M 111.78 37.43 C 113.25 37.80 114.71 38.22 116.16 38.66 C 116.18 39.24 116.23 40.38 116.25 40.96 C 114.54 41.44 112.83 41.92 111.11 42.37 C 112.19 41.19 113.27 40.01 114.35 38.83 C 113.71 38.48 112.42 37.78 111.78 37.43 Z" />
<path fill="#699759" opacity="1.00" d=" M 167.78 37.43 C 169.25 37.80 170.70 38.22 172.16 38.66 C 172.18 39.24 172.23 40.38 172.25 40.96 C 170.54 41.44 168.83 41.92 167.11 42.37 C 168.19 41.19 169.27 40.01 170.35 38.83 C 169.71 38.48 168.42 37.78 167.78 37.43 Z" />
</g>
<g id="#68975bfe">
<path fill="#68975b" opacity="1.00" d=" M 60.44 45.39 C 58.62 44.65 59.27 42.06 60.91 41.53 C 62.49 42.42 62.18 44.90 60.44 45.39 Z" />
<path fill="#68975b" opacity="1.00" d=" M 116.44 45.39 C 114.62 44.65 115.27 42.06 116.91 41.53 C 118.49 42.42 118.18 44.90 116.44 45.39 Z" />
<path fill="#68975b" opacity="1.00" d=" M 172.44 45.39 C 170.62 44.65 171.27 42.06 172.91 41.53 C 174.49 42.42 174.18 44.90 172.44 45.39 Z" />
</g>
<g id="#427ccbff">
<path fill="#427ccb" opacity="1.00" d=" M 34.83 44.68 C 35.51 45.65 36.20 46.61 36.89 47.58 C 34.14 48.51 31.41 49.50 28.72 50.60 C 28.56 50.03 28.40 49.47 28.24 48.90 C 30.52 47.63 32.73 46.24 34.83 44.68 Z" />
</g>
<g id="#288ad6ff">
<path fill="#288ad6" opacity="1.00" d=" M 15.10 44.80 C 15.52 44.97 16.36 45.33 16.78 45.50 C 15.58 46.80 14.37 48.10 13.15 49.39 L 12.69 49.85 C 12.55 49.24 12.26 48.02 12.12 47.41 C 13.28 46.76 14.24 45.81 15.10 44.80 Z" />
</g>
<g id="#33302bff">
<path fill="#33302b" opacity="1.00" d=" M 46.27 51.10 C 47.70 50.69 49.08 50.16 50.47 49.66 C 50.26 50.05 49.84 50.83 49.63 51.22 C 49.42 51.59 48.99 52.33 48.77 52.69 C 47.95 53.70 48.25 55.23 49.26 56.00 L 42.89 56.00 C 43.45 54.55 43.95 53.08 44.39 51.59 L 44.58 50.85 C 45.00 50.91 45.85 51.04 46.27 51.10 Z" />
<path fill="#33302b" opacity="1.00" d=" M 102.27 50.99 C 103.67 50.54 105.05 50.04 106.43 49.55 C 106.23 49.97 105.82 50.80 105.62 51.22 C 105.46 51.54 105.14 52.19 104.99 52.51 C 104.28 53.56 104.07 55.09 105.13 56.00 L 98.94 56.00 C 99.82 55.01 100.06 53.68 100.07 52.40 L 100.13 51.65 C 100.66 51.48 101.74 51.15 102.27 50.99 Z" />
<path fill="#33302b" opacity="1.00" d=" M 158.26 51.15 C 159.69 50.72 161.08 50.18 162.47 49.65 C 162.26 50.04 161.84 50.83 161.63 51.22 C 161.42 51.59 160.99 52.32 160.77 52.69 C 159.95 53.70 160.25 55.22 161.26 56.00 L 155.09 56.00 C 155.44 54.54 155.73 53.05 155.96 51.57 L 156.01 50.75 C 156.57 50.85 157.70 51.05 158.26 51.15 Z" />
<path fill="#33302b" opacity="1.00" d=" M 214.27 50.99 C 215.69 50.55 217.09 50.05 218.49 49.58 C 218.23 50.13 217.70 51.25 217.43 51.81 C 217.33 52.00 217.14 52.39 217.04 52.59 C 216.35 53.60 216.06 55.12 217.14 56.00 L 210.94 56.00 C 211.82 55.01 212.05 53.68 212.07 52.40 L 212.12 51.64 C 212.66 51.48 213.74 51.15 214.27 50.99 Z" />
</g>
<g id="#709d5aff">
<path fill="#709d5a" opacity="1.00" d=" M 49.63 51.22 C 51.93 51.77 54.14 52.63 56.30 53.58 C 58.20 52.93 60.12 52.34 62.10 52.01 L 62.86 52.37 C 62.67 53.11 62.28 54.57 62.08 55.31 L 62.29 56.00 L 51.68 56.00 C 50.82 54.81 49.94 53.60 48.77 52.69 C 48.99 52.33 49.42 51.59 49.63 51.22 Z" />
<path fill="#709d5a" opacity="1.00" d=" M 105.62 51.22 C 107.92 51.77 110.13 52.64 112.30 53.57 C 114.19 52.93 116.10 52.35 118.08 52.03 L 118.83 52.37 C 118.64 53.10 118.26 54.57 118.07 55.31 L 118.28 56.00 L 107.59 56.00 C 106.78 54.79 105.91 53.63 104.99 52.51 C 105.14 52.19 105.46 51.54 105.62 51.22 Z" />
<path fill="#709d5a" opacity="1.00" d=" M 161.63 51.22 C 163.93 51.77 166.14 52.63 168.30 53.58 C 170.20 52.93 172.12 52.34 174.10 52.01 L 174.86 52.37 C 174.67 53.11 174.28 54.57 174.08 55.31 L 174.29 56.00 L 163.68 56.00 C 162.82 54.81 161.94 53.60 160.77 52.69 C 160.99 52.32 161.42 51.59 161.63 51.22 Z" />
</g>
<g id="#719d5aff">
<path fill="#719d5a" opacity="1.00" d=" M 217.43 51.81 C 218.69 51.47 219.96 51.16 221.23 50.86 C 221.60 51.94 221.97 53.02 222.35 54.10 C 222.91 53.17 223.46 52.25 224.00 51.31 L 224.00 56.00 L 219.66 56.00 C 218.85 54.81 217.98 53.67 217.04 52.59 C 217.14 52.39 217.33 52.00 217.43 51.81 Z" />
</g>
</svg>
