<?xml version="1.0" encoding="UTF-8" ?>
<!DOCTYPE svg PUBLIC "-//W3C//DTD SVG 1.1//EN" "http://www.w3.org/Graphics/SVG/1.1/DTD/svg11.dtd">
<svg width="224pt" height="56pt" viewBox="0 0 224 56" version="1.1" xmlns="http://www.w3.org/2000/svg">
<g id="#3c6bbeff">
<path fill="#3c6bbe" opacity="1.00" d=" M 0.00 0.00 L 25.42 0.00 C 26.54 0.97 27.64 1.95 28.72 2.95 C 22.16 4.37 14.96 5.88 8.48 3.32 C 9.45 5.13 10.44 6.96 11.04 8.93 C 9.00 11.13 6.44 12.76 4.11 14.62 C 8.11 14.24 12.13 14.09 16.14 14.09 C 14.53 12.26 12.94 10.43 11.37 8.58 C 16.29 3.92 23.02 7.50 28.66 5.04 C 32.93 3.90 37.27 3.04 41.63 2.37 L 41.46 3.26 C 41.10 5.12 40.71 6.98 40.32 8.84 C 40.69 9.09 41.43 9.58 41.81 9.83 C 42.41 10.14 43.61 10.76 44.21 11.07 C 42.58 11.59 41.25 12.75 41.10 14.55 C 40.70 15.90 40.32 17.26 39.92 18.61 C 33.95 17.23 27.99 19.01 22.03 19.52 C 23.62 20.39 25.20 21.26 26.79 22.14 C 26.90 22.95 27.13 24.59 27.24 25.41 C 23.85 26.41 20.39 27.18 16.88 27.64 C 17.63 29.35 18.40 31.07 18.82 32.90 C 13.54 36.96 6.37 36.97 0.00 37.74 L 0.00 31.09 C 3.82 29.61 7.69 28.24 11.55 26.85 C 11.79 25.10 11.55 23.14 12.50 21.59 C 14.73 19.84 17.47 18.95 20.01 17.75 C 13.36 19.34 6.41 20.63 0.00 17.42 L 0.00 0.00 Z" />
<path fill="#3c6bbe" opacity="1.00" d=" M 56.25 0.00 L 97.07 0.00 C 96.65 1.40 98.05 2.33 99.13 2.83 L 99.23 3.60 C 87.73 1.81 76.13 4.00 64.64 2.27 C 65.51 4.13 66.42 5.98 66.95 7.96 C 64.97 10.17 62.42 11.77 60.13 13.62 C 64.12 13.24 68.13 13.09 72.14 13.08 C 70.53 11.26 68.94 9.43 67.37 7.58 C 70.05 5.92 73.02 4.16 76.31 4.85 C 83.85 5.85 91.46 5.23 98.97 4.29 L 98.69 5.10 C 98.29 6.28 97.87 7.45 97.46 8.62 C 97.83 9.00 98.58 9.75 98.95 10.12 C 99.26 10.37 99.89 10.85 100.21 11.09 C 99.15 11.96 98.31 13.11 98.06 14.49 C 96.27 20.93 96.69 27.70 95.97 34.29 C 94.79 31.49 95.13 27.26 91.77 26.16 C 85.93 23.84 79.74 24.86 74.09 26.98 C 73.55 29.22 73.27 31.54 72.43 33.69 C 68.89 36.29 64.23 36.72 60.16 38.23 C 62.61 41.86 65.55 45.22 69.61 47.09 C 67.46 44.58 65.26 42.11 63.24 39.49 C 69.33 36.42 76.18 34.59 82.94 36.87 C 81.43 41.37 78.94 45.48 75.46 48.72 C 76.03 48.92 77.16 49.32 77.73 49.51 C 75.83 51.20 73.90 52.84 71.98 54.51 C 75.83 52.96 79.74 51.07 84.00 51.28 C 88.26 51.07 92.17 52.96 96.02 54.51 C 94.10 52.84 92.17 51.20 90.27 49.51 C 90.84 49.32 91.97 48.92 92.54 48.73 C 89.20 45.57 86.75 41.64 85.18 37.34 C 88.33 36.71 91.49 36.04 94.65 35.41 C 95.93 38.26 97.05 41.21 98.76 43.84 C 99.15 44.03 99.92 44.42 100.31 44.62 L 99.66 44.63 C 99.30 44.77 98.59 45.03 98.24 45.16 C 96.70 46.55 98.49 48.61 99.71 49.52 C 99.55 49.90 99.22 50.67 99.06 51.06 C 98.31 52.73 97.50 54.38 96.63 56.00 L 55.99 56.00 C 56.03 51.90 56.05 47.79 56.05 43.69 L 56.04 43.04 C 56.09 41.50 55.80 40.03 55.17 38.63 C 55.19 38.02 55.24 36.82 55.27 36.22 L 55.66 35.29 L 55.94 34.64 C 55.96 33.97 56.01 32.63 56.03 31.95 C 56.01 31.35 55.98 30.15 55.96 29.55 C 59.31 28.62 62.56 27.31 65.53 25.50 C 68.45 23.98 68.39 20.21 69.62 17.53 C 64.94 19.10 60.17 17.85 55.64 16.40 C 55.63 15.07 55.62 13.73 55.59 12.40 C 55.78 8.27 56.00 4.13 56.25 0.00 Z" />
<path fill="#3c6bbe" opacity="1.00" d=" M 142.47 0.00 L 153.06 0.00 C 152.63 1.38 154.00 2.33 155.07 2.84 L 155.14 3.51 C 151.31 2.46 147.35 1.97 143.38 2.20 C 143.16 1.65 142.70 0.55 142.47 0.00 Z" />
<path fill="#3c6bbe" opacity="1.00" d=" M 168.25 0.00 L 209.07 0.00 C 208.65 1.40 210.05 2.33 211.13 2.83 L 211.23 3.60 C 200.60 2.62 189.76 1.96 179.27 4.43 C 178.46 8.50 175.36 11.23 172.22 13.66 C 176.17 13.24 180.16 13.09 184.13 13.08 C 182.53 11.26 180.93 9.43 179.37 7.58 C 182.05 5.92 185.02 4.16 188.31 4.85 C 195.85 5.85 203.46 5.24 210.97 4.29 L 210.69 5.10 C 210.29 6.28 209.87 7.45 209.46 8.62 C 209.83 9.00 210.58 9.75 210.95 10.12 C 211.26 10.36 211.89 10.85 212.21 11.09 C 211.15 11.97 210.31 13.11 210.06 14.49 C 208.27 20.93 208.69 27.70 207.97 34.29 C 206.79 31.49 207.13 27.26 203.77 26.16 C 197.93 23.84 191.74 24.86 186.09 26.98 C 185.22 29.60 185.86 33.46 182.92 34.70 C 179.42 36.13 175.76 37.08 172.16 38.23 C 174.61 41.86 177.55 45.22 181.61 47.09 C 179.46 44.58 177.26 42.11 175.24 39.49 C 181.33 36.42 188.18 34.59 194.94 36.87 C 193.43 41.37 190.94 45.48 187.46 48.72 C 188.03 48.92 189.16 49.32 189.73 49.51 C 187.83 51.20 185.89 52.84 183.98 54.51 C 187.83 52.96 191.74 51.07 196.00 51.28 C 200.26 51.07 204.17 52.96 208.02 54.51 C 206.10 52.84 204.17 51.20 202.27 49.51 C 202.84 49.32 203.97 48.92 204.54 48.73 C 201.20 45.57 198.75 41.64 197.18 37.34 C 200.31 36.71 203.50 36.04 206.65 35.41 C 207.92 38.26 209.05 41.21 210.76 43.84 C 211.15 44.03 211.92 44.43 212.31 44.63 L 211.66 44.64 C 211.30 44.77 210.59 45.04 210.24 45.17 C 208.70 46.56 210.50 48.62 211.72 49.52 C 211.56 49.91 211.24 50.67 211.07 51.05 C 210.32 52.73 209.50 54.38 208.62 56.00 L 167.99 56.00 C 168.03 51.90 168.05 47.80 168.05 43.69 L 168.04 43.03 C 168.09 41.50 167.80 40.03 167.17 38.63 C 167.19 38.02 167.24 36.82 167.27 36.22 L 167.65 35.29 L 167.94 34.64 C 167.96 33.97 168.01 32.63 168.03 31.96 C 168.01 31.35 167.98 30.15 167.96 29.55 C 171.86 28.41 175.80 26.95 179.00 24.39 C 180.33 22.33 180.73 19.80 181.62 17.53 C 176.95 19.10 172.17 17.85 167.64 16.40 C 167.63 15.07 167.62 13.73 167.60 12.40 C 167.78 8.26 168.00 4.13 168.25 0.00 Z" />
<path fill="#3c6bbe" opacity="1.00" d=" M 111.66 17.53 C 115.40 18.33 119.06 19.47 122.54 21.07 C 118.95 22.72 115.27 24.19 111.80 26.09 C 111.77 25.24 111.73 23.55 111.70 22.71 C 111.69 22.08 111.66 20.83 111.65 20.21 C 111.65 19.54 111.66 18.20 111.66 17.53 Z" />
<path fill="#3c6bbe" opacity="1.00" d=" M 8.37 39.92 C 11.39 38.32 14.46 36.34 17.98 36.19 C 21.83 36.38 25.06 38.81 28.18 40.83 C 25.95 42.57 23.64 44.18 21.29 45.75 C 21.81 50.04 19.31 53.60 15.95 56.00 L 0.00 56.00 L 0.00 38.09 C 2.76 39.14 6.27 39.21 8.15 41.81 C 10.23 44.38 12.79 46.48 15.66 48.10 C 13.23 45.37 10.76 42.68 8.37 39.92 M 2.87 47.82 C 3.02 49.95 3.05 52.09 2.91 54.23 C 5.65 54.48 8.39 54.75 11.13 54.99 C 9.01 53.56 6.87 52.14 4.76 50.70 C 5.78 49.33 6.82 47.98 7.85 46.62 C 6.18 47.00 4.52 47.41 2.87 47.82 Z" />
<path fill="#3c6bbe" opacity="1.00" d=" M 24.20 49.79 C 29.25 45.23 30.16 35.13 38.69 35.46 C 39.96 38.00 41.09 40.62 42.59 43.05 C 42.80 43.35 43.21 43.94 43.42 44.24 L 43.74 44.68 C 43.05 44.77 41.65 44.97 40.96 45.07 L 39.95 45.25 C 40.90 46.60 41.87 47.94 42.90 49.24 C 42.65 49.57 42.16 50.24 41.91 50.58 C 41.06 52.36 40.31 54.18 39.55 56.00 L 32.80 56.00 C 30.04 53.79 27.27 51.58 24.20 49.79 Z" />
<path fill="#3c6bbe" opacity="1.00" d=" M 83.86 43.85 C 85.28 45.07 88.13 47.50 89.55 48.71 C 86.03 50.88 82.02 50.89 78.48 48.75 C 79.83 47.53 82.52 45.08 83.86 43.85 Z" />
<path fill="#3c6bbe" opacity="1.00" d=" M 195.86 43.85 C 197.28 45.07 200.13 47.50 201.55 48.71 C 198.03 50.88 194.02 50.89 190.48 48.75 C 191.83 47.53 194.52 45.08 195.86 43.85 Z" />
<path fill="#3c6bbe" opacity="1.00" d=" M 48.24 50.52 C 46.17 47.64 50.65 47.66 49.71 50.70 C 49.34 50.66 48.61 50.57 48.24 50.52 Z" />
<path fill="#3c6bbe" opacity="1.00" d=" M 104.19 50.50 C 102.15 47.63 106.59 47.74 105.72 50.72 C 105.33 50.66 104.57 50.56 104.19 50.50 Z" />
<path fill="#3c6bbe" opacity="1.00" d=" M 160.19 50.50 C 158.15 47.63 162.59 47.74 161.72 50.72 C 161.33 50.67 160.57 50.56 160.19 50.50 Z" />
<path fill="#3c6bbe" opacity="1.00" d=" M 216.22 50.54 C 214.14 47.69 218.57 47.74 217.75 50.74 C 217.37 50.69 216.61 50.59 216.22 50.54 Z" />
<path fill="#3c6bbe" opacity="1.00" d=" M 44.20 50.98 C 44.80 50.84 46.00 50.57 46.60 50.43 L 46.49 51.21 C 46.22 51.44 45.69 51.90 45.42 52.13 C 45.12 51.84 44.51 51.27 44.20 50.98 Z" />
<path fill="#3c6bbe" opacity="1.00" d=" M 100.66 49.38 C 101.10 49.58 101.96 49.96 102.40 50.16 L 102.25 51.01 C 101.98 51.18 101.44 51.53 101.17 51.71 C 101.04 51.12 100.79 49.96 100.66 49.38 Z" />
<path fill="#3c6bbe" opacity="1.00" d=" M 156.66 49.37 C 157.10 49.57 157.96 49.96 158.39 50.16 L 158.25 51.01 C 157.98 51.18 157.44 51.53 157.17 51.70 C 157.04 51.12 156.79 49.96 156.66 49.37 Z" />
<path fill="#3c6bbe" opacity="1.00" d=" M 212.67 49.39 C 213.11 49.59 213.98 49.98 214.41 50.18 L 214.27 51.03 C 214.00 51.21 213.47 51.55 213.20 51.72 C 213.07 51.14 212.80 49.97 212.67 49.39 Z" />
<path fill="#3c6bbe" opacity="1.00" d=" M 16.74 56.00 C 19.74 54.45 22.63 52.13 26.29 52.71 C 28.24 53.53 29.90 54.88 31.68 56.00 L 16.74 56.00 Z" />
<path fill="#3c6bbe" opacity="1.00" d=" M 47.77 52.70 L 48.57 52.74 C 48.66 53.86 49.14 54.75 50.02 55.41 L 49.81 56.00 L 48.26 56.00 C 48.06 55.35 47.66 54.04 47.46 53.39 L 47.77 52.70 Z" />
<path fill="#3c6bbe" opacity="1.00" d=" M 103.81 52.58 L 104.64 52.65 C 104.74 53.74 105.19 54.65 105.99 55.38 L 105.70 56.00 L 104.06 56.00 C 103.92 55.32 103.64 53.95 103.50 53.26 L 103.81 52.58 Z" />
<path fill="#3c6bbe" opacity="1.00" d=" M 159.81 52.58 L 160.64 52.65 C 160.74 53.74 161.18 54.65 161.99 55.38 L 161.70 56.00 L 160.06 56.00 C 159.92 55.32 159.64 53.95 159.50 53.26 L 159.81 52.58 Z" />
<path fill="#3c6bbe" opacity="1.00" d=" M 215.88 52.58 L 216.75 52.66 C 216.78 53.75 217.19 54.66 217.98 55.40 L 217.68 56.00 L 216.06 56.00 C 215.93 55.31 215.68 53.94 215.55 53.26 L 215.88 52.58 Z" />
<path fill="#3c6bbe" opacity="1.00" d=" M 99.67 54.15 C 100.00 53.73 100.66 52.88 100.99 52.46 C 101.44 52.67 102.35 53.08 102.81 53.29 C 102.59 54.54 101.23 55.54 99.98 55.33 L 99.67 54.15 Z" />
<path fill="#3c6bbe" opacity="1.00" d=" M 155.68 54.15 C 156.00 53.73 156.66 52.88 156.99 52.46 C 157.44 52.67 158.35 53.08 158.81 53.29 C 158.59 54.54 157.23 55.54 155.98 55.32 L 155.68 54.15 Z" />
<path fill="#3c6bbe" opacity="1.00" d=" M 211.70 54.15 C 212.03 53.73 212.69 52.88 213.02 52.46 C 213.48 52.67 214.39 53.08 214.85 53.28 C 214.61 54.53 213.26 55.54 212.00 55.32 L 211.70 54.15 Z" />
</g>
<g id="#3f79caff">
<path fill="#3f79ca" opacity="1.00" d=" M 25.42 0.00 L 44.03 0.00 L 43.27 0.72 C 42.86 1.13 42.04 1.96 41.63 2.37 C 37.27 3.04 32.93 3.90 28.66 5.04 C 23.02 7.50 16.29 3.92 11.37 8.58 C 12.94 10.43 14.53 12.26 16.14 14.09 C 12.13 14.09 8.11 14.24 4.11 14.62 C 6.44 12.76 9.00 11.13 11.04 8.93 C 10.44 6.96 9.45 5.13 8.48 3.32 C 14.96 5.88 22.16 4.37 28.72 2.95 C 27.64 1.95 26.54 0.97 25.42 0.00 Z" />
</g>
<g id="#565249ff">
<path fill="#565249" opacity="1.00" d=" M 44.03 0.00 L 46.37 0.00 C 46.60 1.44 46.83 2.87 47.05 4.31 C 45.90 4.38 44.75 4.46 43.60 4.55 C 43.73 3.26 43.61 1.98 43.27 0.72 L 44.03 0.00 Z" />
</g>
<g id="#322e2aff">
<path fill="#322e2a" opacity="1.00" d=" M 46.37 0.00 L 48.73 0.00 C 48.75 3.73 48.11 7.52 45.43 10.23 C 44.40 8.36 43.36 6.50 42.27 4.66 C 42.60 4.63 43.27 4.58 43.60 4.55 C 44.75 4.46 45.90 4.38 47.05 4.31 C 46.83 2.87 46.60 1.44 46.37 0.00 Z" />
<path fill="#322e2a" opacity="1.00" d=" M 101.93 0.00 L 104.75 0.00 C 104.69 3.67 104.00 7.33 101.51 10.11 L 101.13 9.44 C 100.31 8.00 99.48 6.56 98.69 5.10 L 98.97 4.29 L 99.23 3.60 C 100.61 4.07 102.00 4.53 103.39 4.98 C 102.93 3.31 102.47 1.64 101.93 0.00 Z" />
<path fill="#322e2a" opacity="1.00" d=" M 157.94 0.00 L 160.75 0.00 C 160.67 3.65 159.99 7.32 157.55 10.12 L 157.16 9.44 C 156.33 8.01 155.49 6.58 154.71 5.13 L 154.93 4.30 L 155.14 3.51 C 156.55 4.01 157.96 4.52 159.38 5.01 C 158.93 3.33 158.48 1.65 157.94 0.00 Z" />
<path fill="#322e2a" opacity="1.00" d=" M 213.93 0.00 L 216.74 0.00 C 216.69 3.67 216.00 7.33 213.51 10.11 L 213.13 9.44 C 212.30 8.00 211.47 6.56 210.69 5.10 L 210.97 4.29 L 211.23 3.60 C 212.61 4.06 214.00 4.53 215.39 4.98 C 214.93 3.31 214.47 1.64 213.93 0.00 Z" />
</g>
<g id="#545948ff">
<path fill="#545948" opacity="1.00" d=" M 48.73 0.00 L 49.29 0.00 C 49.80 3.57 49.68 7.18 49.14 10.73 C 50.10 9.75 51.06 8.77 51.97 7.75 C 52.25 8.31 52.82 9.41 53.10 9.97 C 53.70 10.52 54.28 11.08 54.86 11.65 C 54.85 12.60 54.85 13.55 54.87 14.49 C 52.79 13.65 50.68 12.90 48.55 12.19 C 48.11 11.99 47.23 11.61 46.79 11.42 C 46.97 12.80 47.16 14.18 47.37 15.56 C 47.46 16.08 47.63 17.14 47.71 17.66 C 46.83 16.34 45.91 15.03 44.99 13.73 C 45.00 12.99 45.02 11.49 45.03 10.75 L 45.43 10.23 C 48.11 7.52 48.75 3.73 48.73 0.00 Z" />
</g>
<g id="#6e9b59ff">
<path fill="#6e9b59" opacity="1.00" d=" M 49.29 0.00 L 55.76 0.00 C 54.49 2.58 53.41 5.26 51.97 7.75 C 51.06 8.77 50.10 9.75 49.14 10.73 C 49.68 7.18 49.80 3.57 49.29 0.00 Z" />
<path fill="#6e9b59" opacity="1.00" d=" M 105.30 0.00 L 111.75 0.00 C 110.49 2.58 109.41 5.26 107.97 7.75 C 107.06 8.77 106.10 9.75 105.14 10.73 C 105.68 7.18 105.80 3.57 105.30 0.00 Z" />
<path fill="#6e9b59" opacity="1.00" d=" M 161.30 0.00 L 167.76 0.00 C 166.49 2.58 165.41 5.26 163.97 7.75 C 163.05 8.77 162.10 9.76 161.14 10.73 C 161.68 7.18 161.80 3.57 161.30 0.00 Z" />
<path fill="#6e9b59" opacity="1.00" d=" M 217.29 0.00 L 223.20 0.00 C 222.27 1.21 222.53 2.12 224.00 2.72 L 224.00 6.47 C 223.87 5.81 223.60 4.47 223.46 3.80 C 222.26 5.10 221.06 6.41 219.86 7.71 C 218.95 8.69 218.03 9.65 217.11 10.62 C 217.71 7.11 217.80 3.53 217.29 0.00 Z" />
</g>
<g id="#85b061ff">
<path fill="#85b061" opacity="1.00" d=" M 55.76 0.00 L 56.25 0.00 C 56.00 4.13 55.78 8.27 55.59 12.40 L 54.86 11.65 C 54.28 11.08 53.70 10.52 53.10 9.97 C 54.66 9.28 53.44 6.97 51.97 7.75 C 53.41 5.26 54.49 2.58 55.76 0.00 Z" />
<path fill="#85b061" opacity="1.00" d=" M 111.75 0.00 L 112.24 0.00 C 111.99 4.14 111.78 8.28 111.60 12.43 L 110.86 11.67 C 110.28 11.09 109.69 10.53 109.09 9.97 C 110.66 9.28 109.44 6.97 107.97 7.75 C 109.41 5.26 110.49 2.58 111.75 0.00 Z" />
<path fill="#85b061" opacity="1.00" d=" M 167.76 0.00 L 168.25 0.00 C 168.00 4.13 167.78 8.26 167.60 12.40 L 166.87 11.66 C 166.29 11.08 165.70 10.52 165.10 9.97 C 166.66 9.28 165.43 6.97 163.97 7.75 C 165.41 5.26 166.49 2.58 167.76 0.00 Z" />
</g>
<g id="#268ed9ff">
<path fill="#268ed9" opacity="1.00" d=" M 97.07 0.00 L 98.59 0.00 C 98.72 0.71 98.99 2.12 99.13 2.83 C 98.05 2.33 96.65 1.40 97.07 0.00 Z" />
<path fill="#268ed9" opacity="1.00" d=" M 153.06 0.00 L 154.58 0.00 C 154.70 0.71 154.95 2.13 155.07 2.84 C 154.00 2.33 152.63 1.38 153.06 0.00 Z" />
<path fill="#268ed9" opacity="1.00" d=" M 209.07 0.00 L 210.58 0.00 C 210.72 0.71 210.99 2.12 211.13 2.83 C 210.05 2.33 208.65 1.40 209.07 0.00 Z" />
<path fill="#268ed9" opacity="1.00" d=" M 97.46 8.62 C 97.87 7.45 98.29 6.28 98.69 5.10 C 99.48 6.56 100.31 8.00 101.13 9.44 C 100.58 9.61 99.49 9.95 98.95 10.12 C 98.58 9.75 97.83 9.00 97.46 8.62 Z" />
<path fill="#268ed9" opacity="1.00" d=" M 153.61 8.40 C 153.99 7.32 154.35 6.23 154.71 5.13 C 155.49 6.58 156.33 8.01 157.16 9.44 C 156.62 9.60 155.55 9.90 155.01 10.06 C 154.54 9.51 154.07 8.96 153.61 8.40 Z" />
<path fill="#268ed9" opacity="1.00" d=" M 209.46 8.62 C 209.87 7.45 210.29 6.28 210.69 5.10 C 211.47 6.56 212.30 8.00 213.13 9.44 C 212.58 9.61 211.49 9.95 210.95 10.12 C 210.58 9.75 209.83 9.00 209.46 8.62 Z" />
<path fill="#268ed9" opacity="1.00" d=" M 39.55 56.00 C 40.31 54.18 41.06 52.36 41.91 50.58 C 41.90 51.69 42.24 52.69 42.94 53.56 C 43.34 54.17 44.12 55.39 44.52 56.00 L 39.55 56.00 Z" />
<path fill="#268ed9" opacity="1.00" d=" M 96.63 56.00 C 97.50 54.38 98.31 52.73 99.06 51.06 C 99.20 52.10 99.41 53.13 99.67 54.15 L 99.98 55.33 L 100.16 56.00 L 96.63 56.00 Z" />
<path fill="#268ed9" opacity="1.00" d=" M 152.63 56.00 C 153.50 54.38 154.31 52.73 155.06 51.05 C 155.20 52.10 155.41 53.13 155.68 54.15 L 155.98 55.32 L 156.16 56.00 L 152.63 56.00 Z" />
<path fill="#268ed9" opacity="1.00" d=" M 208.62 56.00 C 209.50 54.38 210.32 52.73 211.07 51.05 C 211.22 52.10 211.43 53.13 211.70 54.15 L 212.00 55.32 L 212.18 56.00 L 208.62 56.00 Z" />
</g>
<g id="#605f59ff">
<path fill="#605f59" opacity="1.00" d=" M 98.59 0.00 L 101.93 0.00 C 102.47 1.64 102.93 3.31 103.39 4.98 C 102.00 4.53 100.61 4.07 99.23 3.60 L 99.13 2.83 C 98.99 2.12 98.72 0.71 98.59 0.00 Z" />
<path fill="#605f59" opacity="1.00" d=" M 154.58 0.00 L 157.94 0.00 C 158.48 1.65 158.93 3.33 159.38 5.01 C 157.96 4.52 156.55 4.01 155.14 3.51 L 155.07 2.84 C 154.95 2.13 154.70 0.71 154.58 0.00 Z" />
<path fill="#605f59" opacity="1.00" d=" M 210.58 0.00 L 213.93 0.00 C 214.47 1.64 214.93 3.31 215.39 4.98 C 214.00 4.53 212.61 4.06 211.23 3.60 L 211.13 2.83 C 210.99 2.12 210.72 0.71 210.58 0.00 Z" />
</g>
<g id="#4f5546ff">
<path fill="#4f5546" opacity="1.00" d=" M 104.75 0.00 L 105.30 0.00 C 105.80 3.57 105.68 7.18 105.14 10.73 C 106.10 9.75 107.06 8.77 107.97 7.75 C 108.25 8.30 108.81 9.41 109.09 9.97 C 109.69 10.53 110.28 11.09 110.86 11.67 C 110.86 12.58 110.86 13.49 110.88 14.39 C 108.86 13.49 106.81 12.65 104.69 12.02 C 103.84 12.50 103.02 13.01 102.22 13.55 L 101.49 14.08 C 101.36 12.97 101.21 11.87 101.06 10.76 L 101.51 10.11 C 104.00 7.33 104.69 3.67 104.75 0.00 Z" />
<path fill="#4f5546" opacity="1.00" d=" M 160.75 0.00 L 161.30 0.00 C 161.80 3.57 161.68 7.18 161.14 10.73 C 162.10 9.76 163.05 8.77 163.97 7.75 C 164.25 8.30 164.82 9.41 165.10 9.97 C 165.70 10.52 166.29 11.08 166.87 11.66 C 166.86 12.57 166.87 13.48 166.89 14.39 C 164.87 13.51 162.83 12.67 160.71 12.05 C 159.77 12.54 158.85 13.06 157.94 13.61 L 157.31 14.03 C 157.25 12.94 157.18 11.86 157.10 10.77 L 157.55 10.12 C 159.99 7.32 160.67 3.65 160.75 0.00 Z" />
<path fill="#4f5546" opacity="1.00" d=" M 216.74 0.00 L 217.29 0.00 C 217.80 3.53 217.71 7.11 217.11 10.62 C 218.03 9.65 218.95 8.69 219.86 7.71 C 220.14 8.26 220.71 9.35 220.99 9.90 C 221.68 10.51 222.36 11.12 223.04 11.75 C 222.97 12.64 222.93 13.54 222.91 14.44 C 220.88 13.52 218.83 12.65 216.70 12.00 C 215.85 12.49 215.02 13.01 214.21 13.55 L 213.49 14.08 C 213.35 12.97 213.21 11.87 213.06 10.76 L 213.51 10.11 C 216.00 7.33 216.69 3.67 216.74 0.00 Z" />
</g>
<g id="#3c6bbefe">
<path fill="#3c6bbe" opacity="1.00" d=" M 112.24 0.00 L 138.81 0.00 C 133.37 3.65 126.64 1.97 120.64 1.23 C 121.51 3.10 122.43 4.96 122.93 6.97 C 120.96 9.18 118.42 10.78 116.13 12.62 C 120.12 12.24 124.13 12.09 128.14 12.09 C 126.53 10.26 124.94 8.43 123.37 6.58 C 126.05 4.92 129.01 3.17 132.31 3.85 C 139.82 4.93 147.40 3.68 154.93 4.30 L 154.71 5.13 C 154.35 6.23 153.99 7.32 153.61 8.40 C 154.07 8.96 154.54 9.51 155.01 10.06 C 155.32 10.32 155.94 10.84 156.24 11.10 C 155.18 11.89 153.81 12.81 153.96 14.34 C 154.43 23.60 155.21 33.01 152.04 41.93 C 153.00 42.52 153.97 43.11 154.94 43.69 C 155.31 43.90 156.04 44.31 156.41 44.51 L 155.67 44.55 C 155.32 44.69 154.61 44.98 154.26 45.12 C 152.75 46.53 154.49 48.58 155.71 49.51 C 155.55 49.89 155.22 50.67 155.06 51.05 C 154.31 52.73 153.50 54.38 152.63 56.00 L 111.99 56.00 C 112.03 51.90 112.05 47.79 112.05 43.69 L 112.04 43.03 C 112.09 41.50 111.80 40.03 111.17 38.63 C 111.19 38.03 111.24 36.82 111.27 36.22 L 111.65 35.31 L 111.93 34.67 C 111.95 34.00 111.99 32.65 112.00 31.98 C 111.94 30.67 111.88 29.35 111.84 28.03 C 115.29 26.41 118.84 24.99 122.15 23.08 C 124.29 22.06 123.89 19.24 124.61 17.35 C 127.11 16.11 129.62 14.88 132.09 13.59 C 128.23 14.75 124.47 16.31 120.51 17.09 C 117.49 17.23 114.59 16.04 111.66 15.46 C 111.64 14.70 111.61 13.19 111.60 12.43 C 111.78 8.28 111.99 4.14 112.24 0.00 M 132.80 24.69 C 128.62 25.80 128.33 30.60 126.46 33.83 C 130.40 34.86 134.37 35.72 138.39 36.35 C 138.97 39.65 137.89 42.83 136.25 45.66 C 138.75 45.57 141.25 45.56 143.75 45.67 C 142.10 42.84 141.06 39.67 141.63 36.38 C 144.78 35.69 147.96 35.03 151.10 34.24 C 151.01 31.55 150.96 28.85 150.92 26.16 C 145.28 23.69 138.70 21.89 132.80 24.69 M 114.60 36.92 C 114.47 37.34 114.35 37.77 114.22 38.20 C 115.47 38.99 116.72 39.76 117.94 40.59 C 121.71 38.67 125.59 36.99 129.39 35.14 C 124.49 35.91 119.61 37.66 114.60 36.92 M 130.89 47.51 C 131.70 47.75 133.32 48.25 134.14 48.49 C 132.22 49.90 130.30 51.29 128.33 52.63 C 128.49 52.92 128.81 53.50 128.97 53.79 C 135.70 48.69 145.31 49.63 152.14 54.07 C 150.11 52.13 148.07 50.21 146.03 48.30 C 146.80 48.11 148.34 47.74 149.11 47.56 C 148.17 46.75 147.23 45.95 146.28 45.15 C 144.78 46.67 143.60 49.48 141.06 49.03 C 137.30 50.40 135.60 47.30 133.72 45.15 C 132.77 45.93 131.83 46.72 130.89 47.51 Z" />
</g>
<g id="#4277caff">
<path fill="#4277ca" opacity="1.00" d=" M 138.81 0.00 L 142.47 0.00 C 142.70 0.55 143.16 1.65 143.38 2.20 C 147.35 1.97 151.31 2.46 155.14 3.51 L 154.93 4.30 C 147.40 3.68 139.82 4.93 132.31 3.85 C 129.01 3.17 126.05 4.92 123.37 6.58 C 124.94 8.43 126.53 10.26 128.14 12.09 C 124.13 12.09 120.12 12.24 116.13 12.62 C 118.42 10.78 120.96 9.18 122.93 6.97 C 122.43 4.96 121.51 3.10 120.64 1.23 C 126.64 1.97 133.37 3.65 138.81 0.00 Z" />
</g>
<g id="#91bc69ff">
<path fill="#91bc69" opacity="1.00" d=" M 223.20 0.00 L 224.00 0.00 L 224.00 2.72 C 222.53 2.12 222.27 1.21 223.20 0.00 Z" />
</g>
<g id="#a0b6cbff">
<path fill="#a0b6cb" opacity="1.00" d=" M 41.63 2.37 C 42.04 1.96 42.86 1.13 43.27 0.72 C 43.61 1.98 43.73 3.26 43.60 4.55 C 43.27 4.58 42.60 4.63 42.27 4.66 C 42.07 4.31 41.66 3.61 41.46 3.26 L 41.63 2.37 Z" />
</g>
<g id="#4278caff">
<path fill="#4278ca" opacity="1.00" d=" M 64.64 2.27 C 76.13 4.00 87.73 1.81 99.23 3.60 L 98.97 4.29 C 91.46 5.23 83.85 5.85 76.31 4.85 C 73.02 4.16 70.05 5.92 67.37 7.58 C 68.94 9.43 70.53 11.26 72.14 13.08 C 68.13 13.09 64.12 13.24 60.13 13.62 C 62.42 11.77 64.97 10.17 66.95 7.96 C 66.42 5.98 65.51 4.13 64.64 2.27 Z" />
<path fill="#4278ca" opacity="1.00" d=" M 179.27 4.43 C 189.76 1.96 200.60 2.62 211.23 3.60 L 210.97 4.29 C 203.46 5.24 195.85 5.85 188.31 4.85 C 185.02 4.16 182.05 5.92 179.37 7.58 C 180.93 9.43 182.53 11.26 184.13 13.08 C 180.16 13.09 176.17 13.24 172.22 13.66 C 175.36 11.23 178.46 8.50 179.27 4.43 Z" />
</g>
<g id="#278bd7ff">
<path fill="#278bd7" opacity="1.00" d=" M 40.32 8.84 C 40.71 6.98 41.10 5.12 41.46 3.26 C 41.66 3.61 42.07 4.31 42.27 4.66 C 43.36 6.50 44.40 8.36 45.43 10.23 C 44.75 8.74 42.70 8.26 41.81 9.83 C 41.43 9.58 40.69 9.09 40.32 8.84 Z" />
</g>
<g id="#87b262ff">
<path fill="#87b262" opacity="1.00" d=" M 219.86 7.71 C 221.06 6.41 222.26 5.10 223.46 3.80 C 223.60 4.47 223.87 5.81 224.00 6.47 L 224.00 12.67 L 223.04 11.75 C 222.36 11.12 221.68 10.51 220.99 9.90 C 222.53 9.20 221.32 6.88 219.86 7.71 Z" />
</g>
<g id="#84a9b8ff">
<path fill="#84a9b8" opacity="1.00" d=" M 41.81 9.83 C 42.70 8.26 44.75 8.74 45.43 10.23 L 45.03 10.75 L 44.21 11.07 C 43.61 10.76 42.41 10.14 41.81 9.83 Z" />
</g>
<g id="#6c9c64ff">
<path fill="#6c9c64" opacity="1.00" d=" M 51.97 7.75 C 53.44 6.97 54.66 9.28 53.10 9.97 C 52.82 9.41 52.25 8.31 51.97 7.75 Z" />
<path fill="#6c9c64" opacity="1.00" d=" M 107.97 7.75 C 109.44 6.97 110.66 9.28 109.09 9.97 C 108.81 9.41 108.25 8.30 107.97 7.75 Z" />
<path fill="#6c9c64" opacity="1.00" d=" M 163.97 7.75 C 165.43 6.97 166.66 9.28 165.10 9.97 C 164.82 9.41 164.25 8.30 163.97 7.75 Z" />
<path fill="#6c9c64" opacity="1.00" d=" M 219.86 7.71 C 221.32 6.88 222.53 9.20 220.99 9.90 C 220.71 9.35 220.14 8.26 219.86 7.71 Z" />
</g>
<g id="#6fafb9ff">
<path fill="#6fafb9" opacity="1.00" d=" M 98.95 10.12 C 99.49 9.95 100.58 9.61 101.13 9.44 L 101.51 10.11 L 101.06 10.76 L 100.21 11.09 C 99.89 10.85 99.26 10.37 98.95 10.12 Z" />
<path fill="#6fafb9" opacity="1.00" d=" M 155.01 10.06 C 155.55 9.90 156.62 9.60 157.16 9.44 L 157.55 10.12 L 157.10 10.77 L 156.24 11.10 C 155.94 10.84 155.32 10.32 155.01 10.06 Z" />
<path fill="#6fafb9" opacity="1.00" d=" M 210.95 10.12 C 211.49 9.95 212.58 9.61 213.13 9.44 L 213.51 10.11 L 213.06 10.76 L 212.21 11.09 C 211.89 10.85 211.26 10.36 210.95 10.12 Z" />
</g>
<g id="#1aa9c1ff">
<path fill="#1aa9c1" opacity="1.00" d=" M 41.10 14.55 C 41.25 12.75 42.58 11.59 44.21 11.07 L 45.03 10.75 C 45.02 11.49 45.00 12.99 44.99 13.73 L 44.99 14.66 C 44.70 21.25 45.37 27.81 45.61 34.39 C 45.52 37.06 45.36 39.73 45.15 42.40 C 44.99 42.92 44.68 43.97 44.53 44.49 L 43.42 44.24 C 43.21 43.94 42.80 43.35 42.59 43.05 C 42.82 33.50 43.75 23.91 41.10 14.55 Z" />
<path fill="#1aa9c1" opacity="1.00" d=" M 157.49 20.96 C 158.19 26.40 158.64 31.88 158.84 37.37 C 158.63 38.97 158.40 40.57 158.11 42.16 C 157.85 42.76 157.33 43.94 157.07 44.53 L 156.41 44.51 C 156.04 44.31 155.31 43.90 154.94 43.69 C 156.15 36.16 157.07 28.58 157.49 20.96 Z" />
</g>
<g id="#1aa8c1ff">
<path fill="#1aa8c1" opacity="1.00" d=" M 98.06 14.49 C 98.31 13.11 99.15 11.96 100.21 11.09 L 101.06 10.76 C 101.21 11.87 101.36 12.97 101.49 14.08 L 101.56 14.88 C 101.78 21.39 102.36 27.88 102.66 34.39 C 102.54 36.97 102.38 39.55 102.15 42.13 C 101.88 42.75 101.36 44.01 101.09 44.63 L 100.31 44.62 C 99.92 44.42 99.15 44.03 98.76 43.84 C 100.31 34.06 100.76 24.13 98.06 14.49 Z" />
<path fill="#1aa8c1" opacity="1.00" d=" M 210.06 14.49 C 210.31 13.11 211.15 11.97 212.21 11.09 L 213.06 10.76 C 213.21 11.87 213.35 12.97 213.49 14.08 L 213.56 14.88 C 213.78 21.39 214.35 27.88 214.66 34.39 C 214.54 36.97 214.37 39.55 214.15 42.13 C 213.89 42.76 213.36 44.01 213.09 44.64 L 212.31 44.63 C 211.92 44.43 211.15 44.03 210.76 43.84 C 212.31 34.06 212.76 24.13 210.06 14.49 Z" />
</g>
<g id="#1ba5c1ff">
<path fill="#1ba5c1" opacity="1.00" d=" M 153.96 14.34 C 153.81 12.81 155.18 11.89 156.24 11.10 L 157.10 10.77 C 157.18 11.86 157.25 12.94 157.31 14.03 L 157.34 14.75 C 157.37 16.57 157.35 18.39 157.42 20.21 C 156.28 18.24 155.06 16.33 153.96 14.34 Z" />
</g>
<g id="#d8d38afe">
<path fill="#d8d38a" opacity="1.00" d=" M 46.79 11.42 C 47.23 11.61 48.11 11.99 48.55 12.19 C 50.87 14.10 53.15 16.04 55.30 18.14 C 55.38 18.61 55.56 19.55 55.65 20.02 C 55.67 20.68 55.70 21.99 55.72 22.65 C 54.06 28.50 52.35 34.34 50.26 40.06 C 48.78 41.65 47.23 43.18 45.57 44.59 L 44.53 44.49 C 44.68 43.97 44.99 42.92 45.15 42.40 C 46.24 39.91 47.52 37.52 48.92 35.19 C 49.72 34.01 50.40 32.69 50.44 31.24 C 50.49 30.76 50.59 29.80 50.64 29.32 C 51.34 24.45 51.26 19.11 47.37 15.56 C 47.16 14.18 46.97 12.80 46.79 11.42 Z" />
</g>
<g id="#a9a16aff">
<path fill="#a9a16a" opacity="1.00" d=" M 48.55 12.19 C 50.68 12.90 52.79 13.65 54.87 14.49 C 54.97 15.72 55.11 16.93 55.30 18.14 C 53.15 16.04 50.87 14.10 48.55 12.19 Z" />
<path fill="#a9a16a" opacity="1.00" d=" M 104.69 12.02 C 106.81 12.65 108.86 13.49 110.88 14.39 C 110.96 15.67 111.08 16.94 111.24 18.20 C 109.09 16.11 106.82 14.13 104.69 12.02 Z" />
<path fill="#a9a16a" opacity="1.00" d=" M 160.71 12.05 C 162.83 12.67 164.87 13.51 166.89 14.39 C 166.97 15.66 167.09 16.93 167.26 18.19 C 165.10 16.12 162.84 14.16 160.71 12.05 Z" />
<path fill="#a9a16a" opacity="1.00" d=" M 216.70 12.00 C 218.83 12.65 220.88 13.52 222.91 14.44 C 222.94 15.70 223.02 16.96 223.15 18.22 C 221.05 16.10 218.81 14.12 216.70 12.00 Z" />
</g>
<g id="#6a9a61ff">
<path fill="#6a9a61" opacity="1.00" d=" M 54.86 11.65 L 55.59 12.40 C 55.62 13.73 55.63 15.07 55.64 16.40 C 55.64 16.96 55.64 18.08 55.64 18.65 L 55.65 20.02 C 55.56 19.55 55.38 18.61 55.30 18.14 C 55.11 16.93 54.97 15.72 54.87 14.49 C 54.85 13.55 54.85 12.60 54.86 11.65 Z" />
<path fill="#6a9a61" opacity="1.00" d=" M 110.86 11.67 L 111.60 12.43 C 111.61 13.19 111.64 14.70 111.66 15.46 C 111.66 15.98 111.66 17.01 111.66 17.53 C 111.66 18.20 111.65 19.54 111.65 20.21 C 111.55 19.71 111.34 18.70 111.24 18.20 C 111.08 16.94 110.96 15.67 110.88 14.39 C 110.86 13.49 110.86 12.58 110.86 11.67 Z" />
<path fill="#6a9a61" opacity="1.00" d=" M 166.87 11.66 L 167.60 12.40 C 167.62 13.73 167.63 15.07 167.64 16.40 C 167.64 16.96 167.64 18.08 167.63 18.65 L 167.64 20.03 C 167.55 19.57 167.36 18.65 167.26 18.19 C 167.09 16.93 166.97 15.66 166.89 14.39 C 166.87 13.48 166.86 12.57 166.87 11.66 Z" />
<path fill="#6a9a61" opacity="1.00" d=" M 223.04 11.75 L 224.00 12.67 L 224.00 20.62 C 223.79 20.02 223.36 18.82 223.15 18.22 C 223.02 16.96 222.94 15.70 222.91 14.44 C 222.93 13.54 222.97 12.64 223.04 11.75 Z" />
</g>
<g id="#d6d28afe">
<path fill="#d6d28a" opacity="1.00" d=" M 102.22 13.55 C 103.02 13.01 103.84 12.50 104.69 12.02 C 106.82 14.13 109.09 16.11 111.24 18.20 C 111.34 18.70 111.55 19.71 111.65 20.21 C 111.66 20.83 111.69 22.08 111.70 22.71 C 110.05 28.53 108.35 34.35 106.26 40.03 C 104.84 41.63 103.38 43.18 101.82 44.64 L 101.09 44.63 C 101.36 44.01 101.88 42.75 102.15 42.13 C 104.04 38.01 106.09 33.87 106.65 29.31 C 107.12 26.25 106.47 23.18 105.84 20.19 C 104.86 17.86 103.45 15.75 102.22 13.55 Z" />
<path fill="#d6d28a" opacity="1.00" d=" M 214.21 13.55 C 215.02 13.01 215.85 12.49 216.70 12.00 C 218.81 14.12 221.05 16.10 223.15 18.22 C 223.36 18.82 223.79 20.02 224.00 20.62 L 224.00 22.48 C 222.17 28.35 220.37 34.24 218.23 40.02 C 216.83 41.62 215.37 43.18 213.83 44.64 L 213.09 44.64 C 213.36 44.01 213.89 42.76 214.15 42.13 C 216.04 38.01 218.09 33.87 218.65 29.31 C 219.12 26.25 218.47 23.18 217.84 20.19 C 216.86 17.86 215.44 15.75 214.21 13.55 Z" />
</g>
<g id="#d6d28aff">
<path fill="#d6d28a" opacity="1.00" d=" M 157.94 13.61 C 158.85 13.06 159.77 12.54 160.71 12.05 C 162.84 14.16 165.10 16.12 167.26 18.19 C 167.36 18.65 167.55 19.57 167.64 20.03 C 167.66 20.68 167.70 22.00 167.72 22.65 C 166.06 28.49 164.35 34.33 162.26 40.04 C 160.84 41.61 159.37 43.13 157.80 44.55 L 157.07 44.53 C 157.33 43.94 157.85 42.76 158.11 42.16 C 161.40 36.61 162.92 30.34 163.26 23.92 C 163.65 22.55 163.16 21.14 162.20 20.13 C 160.68 18.03 159.30 15.82 157.94 13.61 Z" />
</g>
<g id="#4279caff">
<path fill="#4279ca" opacity="1.00" d=" M 120.51 17.09 C 124.47 16.31 128.23 14.75 132.09 13.59 C 129.62 14.88 127.11 16.11 124.61 17.35 C 123.89 19.24 124.29 22.06 122.15 23.08 C 118.84 24.99 115.29 26.41 111.84 28.03 C 111.83 27.55 111.81 26.57 111.80 26.09 C 115.27 24.19 118.95 22.72 122.54 21.07 C 119.06 19.47 115.40 18.33 111.66 17.53 C 111.66 17.01 111.66 15.98 111.66 15.46 C 114.59 16.04 117.49 17.23 120.51 17.09 Z" />
</g>
<g id="#a1e1a3ff">
<path fill="#a1e1a3" opacity="1.00" d=" M 44.99 13.73 C 45.91 15.03 46.83 16.34 47.71 17.66 C 48.89 21.49 49.91 25.38 50.64 29.32 C 50.59 29.80 50.49 30.76 50.44 31.24 C 48.42 31.37 47.42 33.76 48.92 35.19 C 47.52 37.52 46.24 39.91 45.15 42.40 C 45.36 39.73 45.52 37.06 45.61 34.39 C 46.06 27.81 45.92 21.19 44.99 14.66 L 44.99 13.73 Z" />
<path fill="#a1e1a3" opacity="1.00" d=" M 101.49 14.08 L 102.22 13.55 C 103.45 15.75 104.86 17.86 105.84 20.19 C 106.17 23.22 106.50 26.26 106.65 29.31 C 106.09 33.87 104.04 38.01 102.15 42.13 C 102.38 39.55 102.54 36.97 102.66 34.39 C 103.12 27.86 103.16 21.26 101.56 14.88 L 101.49 14.08 Z" />
<path fill="#a1e1a3" opacity="1.00" d=" M 213.49 14.08 L 214.21 13.55 C 215.44 15.75 216.86 17.86 217.84 20.19 C 218.16 23.22 218.50 26.26 218.65 29.31 C 218.09 33.87 216.04 38.01 214.15 42.13 C 214.37 39.55 214.54 36.97 214.66 34.39 C 215.11 27.86 215.16 21.26 213.56 14.88 L 213.49 14.08 Z" />
</g>
<g id="#a1e0a2fe">
<path fill="#a1e0a2" opacity="1.00" d=" M 157.31 14.03 L 157.94 13.61 C 159.30 15.82 160.68 18.03 162.20 20.13 C 161.25 21.36 161.67 23.46 163.26 23.92 C 162.92 30.34 161.40 36.61 158.11 42.16 C 158.40 40.57 158.63 38.97 158.84 37.37 C 160.49 29.81 160.96 21.82 157.34 14.75 L 157.31 14.03 Z" />
</g>
<g id="#4378cbff">
<path fill="#4378cb" opacity="1.00" d=" M 41.10 14.55 C 43.75 23.91 42.82 33.50 42.59 43.05 C 41.09 40.62 39.96 38.00 38.69 35.46 C 30.16 35.13 29.25 45.23 24.20 49.79 C 27.27 51.58 30.04 53.79 32.80 56.00 L 31.68 56.00 C 29.90 54.88 28.24 53.53 26.29 52.71 C 22.63 52.13 19.74 54.45 16.74 56.00 L 15.95 56.00 C 19.31 53.60 21.81 50.04 21.29 45.75 C 23.64 44.18 25.95 42.57 28.18 40.83 C 25.06 38.81 21.83 36.38 17.98 36.19 C 14.46 36.34 11.39 38.32 8.37 39.92 C 10.76 42.68 13.23 45.37 15.66 48.10 C 12.79 46.48 10.23 44.38 8.15 41.81 C 6.27 39.21 2.76 39.14 0.00 38.09 L 0.00 37.74 C 6.37 36.97 13.54 36.96 18.82 32.90 C 18.40 31.07 17.63 29.35 16.88 27.64 C 20.39 27.18 23.85 26.41 27.24 25.41 C 27.13 24.59 26.90 22.95 26.79 22.14 C 25.20 21.26 23.62 20.39 22.03 19.52 C 27.99 19.01 33.95 17.23 39.92 18.61 C 40.32 17.26 40.70 15.90 41.10 14.55 M 28.27 23.29 C 28.54 24.70 29.10 26.04 29.63 27.37 C 26.19 27.11 22.87 28.12 19.87 29.74 C 19.89 30.59 19.95 32.27 19.97 33.11 C 22.26 34.16 24.49 35.50 27.01 35.90 C 29.59 35.71 31.85 34.27 34.14 33.19 C 33.64 31.17 33.13 29.15 32.67 27.12 C 35.14 30.02 35.99 34.26 39.80 35.88 C 40.06 30.81 40.02 25.73 40.08 20.65 C 36.02 20.06 31.27 19.97 28.27 23.29 Z" />
<path fill="#4378cb" opacity="1.00" d=" M 98.06 14.49 C 100.76 24.13 100.31 34.06 98.76 43.84 C 97.05 41.21 95.93 38.26 94.65 35.41 C 91.49 36.04 88.33 36.71 85.18 37.34 C 86.75 41.64 89.20 45.57 92.54 48.73 C 91.97 48.92 90.84 49.32 90.27 49.51 C 92.17 51.20 94.10 52.84 96.02 54.51 C 92.17 52.96 88.26 51.07 84.00 51.28 C 79.74 51.07 75.83 52.96 71.98 54.51 C 73.90 52.84 75.83 51.20 77.73 49.51 C 77.16 49.32 76.03 48.92 75.46 48.72 C 78.94 45.48 81.43 41.37 82.94 36.87 C 76.18 34.59 69.33 36.42 63.24 39.49 C 65.26 42.11 67.46 44.58 69.61 47.09 C 65.55 45.22 62.61 41.86 60.16 38.23 C 64.23 36.72 68.89 36.29 72.43 33.69 C 73.27 31.54 73.55 29.22 74.09 26.98 C 79.74 24.86 85.93 23.84 91.77 26.16 C 95.13 27.26 94.79 31.49 95.97 34.29 C 96.69 27.70 96.27 20.93 98.06 14.49 M 74.00 31.92 C 80.25 35.82 87.68 35.42 94.02 31.94 C 91.04 23.66 76.97 23.64 74.00 31.92 M 83.86 43.85 C 82.52 45.08 79.83 47.53 78.48 48.75 C 82.02 50.89 86.03 50.88 89.55 48.71 C 88.13 47.50 85.28 45.07 83.86 43.85 Z" />
</g>
<g id="#3fcdbeff">
<path fill="#3fcdbe" opacity="1.00" d=" M 45.61 34.39 C 45.37 27.81 44.70 21.25 44.99 14.66 C 45.92 21.19 46.06 27.81 45.61 34.39 Z" />
<path fill="#3fcdbe" opacity="1.00" d=" M 102.66 34.39 C 102.36 27.88 101.78 21.39 101.56 14.88 C 103.16 21.26 103.12 27.86 102.66 34.39 Z" />
<path fill="#3fcdbe" opacity="1.00" d=" M 214.66 34.39 C 214.35 27.88 213.78 21.39 213.56 14.88 C 215.16 21.26 215.11 27.86 214.66 34.39 Z" />
</g>
<g id="#4475caff">
<path fill="#4475ca" opacity="1.00" d=" M 152.04 41.93 C 155.21 33.01 154.43 23.60 153.96 14.34 C 155.06 16.33 156.28 18.24 157.42 20.21 L 157.49 20.96 C 157.07 28.58 156.15 36.16 154.94 43.69 C 153.97 43.11 153.00 42.52 152.04 41.93 Z" />
</g>
<g id="#40cfbeff">
<path fill="#40cfbe" opacity="1.00" d=" M 157.42 20.21 C 157.35 18.39 157.37 16.57 157.34 14.75 C 160.96 21.82 160.49 29.81 158.84 37.37 C 158.64 31.88 158.19 26.40 157.49 20.96 L 157.42 20.21 Z" />
</g>
<g id="#4278cbff">
<path fill="#4278cb" opacity="1.00" d=" M 210.06 14.49 C 212.76 24.13 212.31 34.06 210.76 43.84 C 209.05 41.21 207.92 38.26 206.65 35.41 C 203.50 36.04 200.31 36.71 197.18 37.34 C 198.75 41.64 201.20 45.57 204.54 48.73 C 203.97 48.92 202.84 49.32 202.27 49.51 C 204.17 51.20 206.10 52.84 208.02 54.51 C 204.17 52.96 200.26 51.07 196.00 51.28 C 191.74 51.07 187.83 52.96 183.98 54.51 C 185.89 52.84 187.83 51.20 189.73 49.51 C 189.16 49.32 188.03 48.92 187.46 48.72 C 190.94 45.48 193.43 41.37 194.94 36.87 C 188.18 34.59 181.33 36.42 175.24 39.49 C 177.26 42.11 179.46 44.58 181.61 47.09 C 177.55 45.22 174.61 41.86 172.16 38.23 C 175.76 37.08 179.42 36.13 182.92 34.70 C 185.86 33.46 185.22 29.60 186.09 26.98 C 191.74 24.86 197.93 23.84 203.77 26.16 C 207.13 27.26 206.79 31.49 207.97 34.29 C 208.69 27.70 208.27 20.93 210.06 14.49 M 186.06 31.85 C 189.33 33.05 192.35 35.61 196.00 35.48 C 199.34 35.63 202.11 33.37 205.10 32.22 C 205.09 31.36 205.09 29.65 205.09 28.80 C 199.27 24.89 188.94 24.11 186.06 31.85 M 195.86 43.85 C 194.52 45.08 191.83 47.53 190.48 48.75 C 194.02 50.89 198.03 50.88 201.55 48.71 C 200.13 47.50 197.28 45.07 195.86 43.85 Z" />
</g>
<g id="#ecefa8ff">
<path fill="#ecefa8" opacity="1.00" d=" M 47.37 15.56 C 51.26 19.11 51.34 24.45 50.64 29.32 C 49.91 25.38 48.89 21.49 47.71 17.66 C 47.63 17.14 47.46 16.08 47.37 15.56 Z" />
</g>
<g id="#427acbff">
<path fill="#427acb" opacity="1.00" d=" M 55.64 16.40 C 60.17 17.85 64.94 19.10 69.62 17.53 C 68.39 20.21 68.45 23.98 65.53 25.50 C 62.56 27.31 59.31 28.62 55.96 29.55 C 55.95 29.04 55.93 28.02 55.92 27.51 C 59.59 25.86 63.34 24.37 66.93 22.55 C 63.47 20.49 59.62 19.23 55.64 18.65 C 55.64 18.08 55.64 16.96 55.64 16.40 Z" />
<path fill="#427acb" opacity="1.00" d=" M 167.64 16.40 C 172.17 17.85 176.95 19.10 181.62 17.53 C 180.73 19.80 180.33 22.33 179.00 24.39 C 175.80 26.95 171.86 28.41 167.96 29.55 C 167.95 29.04 167.93 28.02 167.92 27.51 C 171.59 25.86 175.34 24.37 178.93 22.55 C 175.46 20.49 171.61 19.23 167.63 18.65 C 167.64 18.08 167.64 16.96 167.64 16.40 Z" />
<path fill="#427acb" opacity="1.00" d=" M 0.00 17.42 C 6.41 20.63 13.36 19.34 20.01 17.75 C 17.47 18.95 14.73 19.84 12.50 21.59 C 11.55 23.14 11.79 25.10 11.55 26.85 C 7.69 28.24 3.82 29.61 0.00 31.09 L 0.00 29.17 C 3.87 27.62 7.78 26.14 11.36 23.99 C 7.78 21.86 3.88 20.39 0.00 18.91 L 0.00 17.42 Z" />
<path fill="#427acb" opacity="1.00" d=" M 2.87 47.82 C 4.52 47.41 6.18 47.00 7.85 46.62 C 6.82 47.98 5.78 49.33 4.76 50.70 C 6.87 52.14 9.01 53.56 11.13 54.99 C 8.39 54.75 5.65 54.48 2.91 54.23 C 3.05 52.09 3.02 49.95 2.87 47.82 Z" />
</g>
<g id="#3c6abefe">
<path fill="#3c6abe" opacity="1.00" d=" M 55.64 18.65 C 59.62 19.23 63.47 20.49 66.93 22.55 C 63.34 24.37 59.59 25.86 55.92 27.51 C 55.85 25.89 55.79 24.27 55.72 22.65 C 55.70 21.99 55.67 20.68 55.65 20.02 L 55.64 18.65 Z" />
<path fill="#3c6abe" opacity="1.00" d=" M 167.63 18.65 C 171.61 19.23 175.46 20.49 178.93 22.55 C 175.34 24.37 171.59 25.86 167.92 27.51 C 167.85 25.89 167.79 24.27 167.72 22.65 C 167.70 22.00 167.66 20.68 167.64 20.03 L 167.63 18.65 Z" />
</g>
<g id="#3c6abeff">
<path fill="#3c6abe" opacity="1.00" d=" M 0.00 18.91 C 3.88 20.39 7.78 21.86 11.36 23.99 C 7.78 26.14 3.87 27.62 0.00 29.17 L 0.00 18.91 Z" />
</g>
<g id="#3c6bbdff">
<path fill="#3c6bbd" opacity="1.00" d=" M 28.27 23.29 C 31.27 19.97 36.02 20.06 40.08 20.65 C 40.02 25.73 40.06 30.81 39.80 35.88 C 35.99 34.26 35.14 30.02 32.67 27.12 C 33.13 29.15 33.64 31.17 34.14 33.19 C 31.85 34.27 29.59 35.71 27.01 35.90 C 24.49 35.50 22.26 34.16 19.97 33.11 C 19.95 32.27 19.89 30.59 19.87 29.74 C 22.87 28.12 26.19 27.11 29.63 27.37 C 29.10 26.04 28.54 24.70 28.27 23.29 Z" />
<path fill="#3c6bbd" opacity="1.00" d=" M 129.87 27.76 C 136.01 24.12 143.99 24.12 150.13 27.76 C 150.10 28.60 150.04 30.27 150.02 31.11 C 143.77 34.49 136.23 34.49 129.98 31.11 C 129.96 30.27 129.90 28.60 129.87 27.76 Z" />
<path fill="#3c6bbd" opacity="1.00" d=" M 74.00 31.92 C 76.97 23.64 91.04 23.66 94.02 31.94 C 87.68 35.42 80.25 35.82 74.00 31.92 Z" />
</g>
<g id="#eef1adff">
<path fill="#eef1ad" opacity="1.00" d=" M 105.84 20.19 C 106.47 23.18 107.12 26.25 106.65 29.31 C 106.50 26.26 106.17 23.22 105.84 20.19 Z" />
<path fill="#eef1ad" opacity="1.00" d=" M 217.84 20.19 C 218.47 23.18 219.12 26.25 218.65 29.31 C 218.50 26.26 218.16 23.22 217.84 20.19 Z" />
</g>
<g id="#eef2adff">
<path fill="#eef2ad" opacity="1.00" d=" M 162.20 20.13 C 163.16 21.14 163.65 22.55 163.26 23.92 C 161.67 23.46 161.25 21.36 162.20 20.13 Z" />
<path fill="#eef2ad" opacity="1.00" d=" M 48.92 35.19 C 47.42 33.76 48.42 31.37 50.44 31.24 C 50.40 32.69 49.72 34.01 48.92 35.19 Z" />
</g>
<g id="#b1ad6eff">
<path fill="#b1ad6e" opacity="1.00" d=" M 50.26 40.06 C 52.35 34.34 54.06 28.50 55.72 22.65 C 55.79 24.27 55.85 25.89 55.92 27.51 C 55.93 28.02 55.95 29.04 55.96 29.55 C 55.98 30.15 56.01 31.35 56.03 31.95 C 54.70 32.30 54.05 34.73 55.94 34.64 L 55.66 35.29 C 53.85 36.87 51.98 38.37 50.26 40.06 Z" />
<path fill="#b1ad6e" opacity="1.00" d=" M 106.26 40.03 C 108.35 34.35 110.05 28.53 111.70 22.71 C 111.73 23.55 111.77 25.24 111.80 26.09 C 111.81 26.57 111.83 27.55 111.84 28.03 C 111.88 29.35 111.94 30.67 112.00 31.98 C 110.68 32.34 110.05 34.76 111.93 34.67 L 111.65 35.31 C 109.84 36.87 107.96 38.35 106.26 40.03 Z" />
<path fill="#b1ad6e" opacity="1.00" d=" M 162.26 40.04 C 164.35 34.33 166.06 28.49 167.72 22.65 C 167.79 24.27 167.85 25.89 167.92 27.51 C 167.93 28.02 167.95 29.04 167.96 29.55 C 167.98 30.15 168.01 31.35 168.03 31.96 C 166.70 32.30 166.05 34.73 167.94 34.64 L 167.65 35.29 C 165.84 36.86 163.97 38.36 162.26 40.04 Z" />
<path fill="#b1ad6e" opacity="1.00" d=" M 218.23 40.02 C 220.37 34.24 222.17 28.35 224.00 22.48 L 224.00 31.98 C 222.23 31.99 221.94 35.03 224.00 34.51 L 224.00 34.99 C 222.05 36.64 220.05 38.22 218.23 40.02 Z" />
</g>
<g id="#427bcaff">
<path fill="#427bca" opacity="1.00" d=" M 132.80 24.69 C 138.70 21.89 145.28 23.69 150.92 26.16 C 150.96 28.85 151.01 31.55 151.10 34.24 C 147.96 35.03 144.78 35.69 141.63 36.38 C 141.06 39.67 142.10 42.84 143.75 45.67 C 141.25 45.56 138.75 45.57 136.25 45.66 C 137.89 42.83 138.97 39.65 138.39 36.35 C 134.37 35.72 130.40 34.86 126.46 33.83 C 128.33 30.60 128.62 25.80 132.80 24.69 M 129.87 27.76 C 129.90 28.60 129.96 30.27 129.98 31.11 C 136.23 34.49 143.77 34.49 150.02 31.11 C 150.04 30.27 150.10 28.60 150.13 27.76 C 143.99 24.12 136.01 24.12 129.87 27.76 Z" />
</g>
<g id="#3d6bbdff">
<path fill="#3d6bbd" opacity="1.00" d=" M 186.06 31.85 C 188.94 24.11 199.27 24.89 205.09 28.80 C 205.09 29.65 205.09 31.36 205.10 32.22 C 202.11 33.37 199.34 35.63 196.00 35.48 C 192.35 35.61 189.33 33.05 186.06 31.85 Z" />
</g>
<g id="#596753ff">
<path fill="#596753" opacity="1.00" d=" M 55.94 34.64 C 54.05 34.73 54.70 32.30 56.03 31.95 C 56.01 32.63 55.96 33.97 55.94 34.64 Z" />
<path fill="#596753" opacity="1.00" d=" M 111.93 34.67 C 110.05 34.76 110.68 32.34 112.00 31.98 C 111.99 32.65 111.95 34.00 111.93 34.67 Z" />
<path fill="#596753" opacity="1.00" d=" M 167.94 34.64 C 166.05 34.73 166.70 32.30 168.03 31.96 C 168.01 32.63 167.96 33.97 167.94 34.64 Z" />
<path fill="#596753" opacity="1.00" d=" M 224.00 34.51 C 221.94 35.03 222.23 31.99 224.00 31.98 L 224.00 34.51 Z" />
</g>
<g id="#4379caff">
<path fill="#4379ca" opacity="1.00" d=" M 114.60 36.92 C 119.61 37.66 124.49 35.91 129.39 35.14 C 125.59 36.99 121.71 38.67 117.94 40.59 C 116.72 39.76 115.47 38.99 114.22 38.20 C 114.35 37.77 114.47 37.34 114.60 36.92 Z" />
</g>
<g id="#998b50ff">
<path fill="#998b50" opacity="1.00" d=" M 50.26 40.06 C 51.98 38.37 53.85 36.87 55.66 35.29 L 55.27 36.22 C 54.23 38.12 53.06 39.93 51.94 41.77 C 50.81 42.40 49.34 43.39 49.73 44.91 C 49.30 44.88 48.43 44.83 48.00 44.80 C 47.39 44.75 46.18 44.65 45.57 44.59 C 47.23 43.18 48.78 41.65 50.26 40.06 Z" />
<path fill="#998b50" opacity="1.00" d=" M 106.26 40.03 C 107.96 38.35 109.84 36.87 111.65 35.31 L 111.27 36.22 C 110.24 38.11 109.08 39.91 107.97 41.75 C 106.83 42.33 105.32 43.28 105.72 44.80 C 105.30 44.78 104.45 44.75 104.03 44.73 C 103.48 44.71 102.37 44.66 101.82 44.64 C 103.38 43.18 104.84 41.63 106.26 40.03 Z" />
<path fill="#998b50" opacity="1.00" d=" M 162.26 40.04 C 163.97 38.36 165.84 36.86 167.65 35.29 L 167.27 36.22 C 166.24 38.11 165.08 39.92 163.97 41.76 C 162.83 42.34 161.33 43.28 161.72 44.80 C 161.30 44.77 160.46 44.72 160.04 44.69 C 159.48 44.66 158.36 44.59 157.80 44.55 C 159.37 43.13 160.84 41.61 162.26 40.04 Z" />
<path fill="#998b50" opacity="1.00" d=" M 218.23 40.02 C 220.05 38.22 222.05 36.64 224.00 34.99 L 224.00 36.28 C 222.59 38.13 221.07 39.90 219.48 41.60 C 218.60 42.40 217.51 43.47 217.93 44.79 C 217.46 44.77 216.51 44.74 216.03 44.72 C 215.48 44.70 214.38 44.66 213.83 44.64 C 215.37 43.18 216.83 41.62 218.23 40.02 Z" />
</g>
<g id="#5c5c49ff">
<path fill="#5c5c49" opacity="1.00" d=" M 51.94 41.77 C 53.06 39.93 54.23 38.12 55.27 36.22 C 55.24 36.82 55.19 38.02 55.17 38.63 C 55.01 38.86 54.68 39.34 54.52 39.58 C 53.57 41.19 52.79 42.88 51.94 44.54 C 50.72 46.57 50.29 48.92 49.74 51.19 L 49.71 50.70 C 50.65 47.66 46.17 47.64 48.24 50.52 C 47.80 50.69 46.93 51.04 46.49 51.21 L 46.60 50.43 C 47.01 48.54 47.51 46.67 48.00 44.80 C 48.43 44.83 49.30 44.88 49.73 44.91 C 51.50 45.29 51.90 43.05 51.94 41.77 Z" />
<path fill="#5c5c49" opacity="1.00" d=" M 107.97 41.75 C 109.08 39.91 110.24 38.11 111.27 36.22 C 111.24 36.82 111.19 38.03 111.17 38.63 C 111.01 38.86 110.68 39.34 110.52 39.58 C 109.58 41.19 108.79 42.88 107.93 44.53 C 106.69 46.56 106.29 48.92 105.76 51.20 L 105.72 50.72 C 106.59 47.74 102.15 47.63 104.19 50.50 C 103.70 50.63 102.73 50.88 102.25 51.01 L 102.40 50.16 C 102.88 48.33 103.47 46.53 104.03 44.73 C 104.45 44.75 105.30 44.78 105.72 44.80 C 107.47 45.20 107.93 43.03 107.97 41.75 Z" />
<path fill="#5c5c49" opacity="1.00" d=" M 163.97 41.76 C 165.08 39.92 166.24 38.11 167.27 36.22 C 167.24 36.82 167.19 38.02 167.17 38.63 C 167.01 38.86 166.68 39.34 166.52 39.58 C 165.58 41.19 164.79 42.88 163.93 44.53 C 162.69 46.56 162.29 48.92 161.76 51.20 L 161.72 50.72 C 162.59 47.74 158.15 47.63 160.19 50.50 C 159.70 50.63 158.73 50.88 158.25 51.01 L 158.39 50.16 C 158.88 48.32 159.47 46.51 160.04 44.69 C 160.46 44.72 161.30 44.77 161.72 44.80 C 163.47 45.22 163.93 43.04 163.97 41.76 Z" />
<path fill="#5c5c49" opacity="1.00" d=" M 219.48 41.60 C 221.07 39.90 222.59 38.13 224.00 36.28 L 224.00 39.34 C 223.63 39.37 222.90 39.42 222.53 39.45 C 221.74 41.27 221.10 43.15 220.37 45.00 C 219.66 45.42 218.96 45.84 218.26 46.25 C 218.15 47.91 218.07 49.58 217.81 51.22 L 217.75 50.74 C 218.57 47.74 214.14 47.69 216.22 50.54 C 215.74 50.66 214.76 50.91 214.27 51.03 L 214.41 50.18 C 214.89 48.34 215.47 46.53 216.03 44.72 C 216.51 44.74 217.46 44.77 217.93 44.79 C 219.68 45.18 220.25 42.79 219.48 41.60 Z" />
</g>
<g id="#77a460ff">
<path fill="#77a460" opacity="1.00" d=" M 54.52 39.58 C 54.68 39.34 55.01 38.86 55.17 38.63 C 55.80 40.03 56.09 41.50 56.04 43.04 C 54.60 42.51 53.62 41.05 54.52 39.58 Z" />
<path fill="#77a460" opacity="1.00" d=" M 110.52 39.58 C 110.68 39.34 111.01 38.86 111.17 38.63 C 111.80 40.03 112.09 41.50 112.04 43.03 C 110.60 42.51 109.61 41.05 110.52 39.58 Z" />
<path fill="#77a460" opacity="1.00" d=" M 166.52 39.58 C 166.68 39.34 167.01 38.86 167.17 38.63 C 167.80 40.03 168.09 41.50 168.04 43.03 C 166.60 42.51 165.61 41.05 166.52 39.58 Z" />
<path fill="#77a460" opacity="1.00" d=" M 222.53 39.45 C 222.90 39.42 223.63 39.37 224.00 39.34 L 224.00 43.01 C 222.89 42.22 221.53 40.88 222.53 39.45 Z" />
</g>
<g id="#332e2aff">
<path fill="#332e2a" opacity="1.00" d=" M 51.94 44.54 C 52.79 42.88 53.57 41.19 54.52 39.58 C 53.62 41.05 54.60 42.51 56.04 43.04 L 56.05 43.69 C 54.68 43.96 53.31 44.24 51.94 44.54 Z" />
<path fill="#332e2a" opacity="1.00" d=" M 107.93 44.53 C 108.79 42.88 109.58 41.19 110.52 39.58 C 109.61 41.05 110.60 42.51 112.04 43.03 L 112.05 43.69 C 110.67 43.96 109.30 44.24 107.93 44.53 Z" />
<path fill="#332e2a" opacity="1.00" d=" M 163.93 44.53 C 164.79 42.88 165.58 41.19 166.52 39.58 C 165.61 41.05 166.60 42.51 168.04 43.03 L 168.05 43.69 C 166.67 43.96 165.30 44.24 163.93 44.53 Z" />
<path fill="#332e2a" opacity="1.00" d=" M 220.37 45.00 C 221.10 43.15 221.74 41.27 222.53 39.45 C 221.53 40.88 222.89 42.22 224.00 43.01 L 224.00 43.20 C 222.78 43.79 221.57 44.39 220.37 45.00 Z" />
<path fill="#332e2a" opacity="1.00" d=" M 49.73 44.91 C 49.34 43.39 50.81 42.40 51.94 41.77 C 51.90 43.05 51.50 45.29 49.73 44.91 Z" />
<path fill="#332e2a" opacity="1.00" d=" M 105.72 44.80 C 105.32 43.28 106.83 42.33 107.97 41.75 C 107.93 43.03 107.47 45.20 105.72 44.80 Z" />
<path fill="#332e2a" opacity="1.00" d=" M 161.72 44.80 C 161.33 43.28 162.83 42.34 163.97 41.76 C 163.93 43.04 163.47 45.22 161.72 44.80 Z" />
<path fill="#332e2a" opacity="1.00" d=" M 217.93 44.79 C 217.51 43.47 218.60 42.40 219.48 41.60 C 220.25 42.79 219.68 45.18 217.93 44.79 Z" />
<path fill="#332e2a" opacity="1.00" d=" M 45.42 52.13 C 45.69 51.90 46.22 51.44 46.49 51.21 C 46.93 51.04 47.80 50.69 48.24 50.52 C 48.61 50.57 49.34 50.66 49.71 50.70 L 49.74 51.19 C 49.64 51.52 49.46 52.19 49.37 52.53 L 48.57 52.74 L 47.77 52.70 C 47.18 52.56 46.01 52.27 45.42 52.13 Z" />
<path fill="#332e2a" opacity="1.00" d=" M 101.17 51.71 C 101.44 51.53 101.98 51.18 102.25 51.01 C 102.73 50.88 103.70 50.63 104.19 50.50 C 104.57 50.56 105.33 50.66 105.72 50.72 L 105.76 51.20 C 105.68 51.52 105.53 52.15 105.45 52.47 L 104.64 52.65 L 103.81 52.58 C 103.15 52.36 101.83 51.92 101.17 51.71 Z" />
<path fill="#332e2a" opacity="1.00" d=" M 157.17 51.70 C 157.44 51.53 157.98 51.18 158.25 51.01 C 158.73 50.88 159.70 50.63 160.19 50.50 C 160.57 50.56 161.33 50.67 161.72 50.72 L 161.76 51.20 C 161.68 51.52 161.52 52.15 161.44 52.47 L 160.64 52.65 L 159.81 52.58 C 159.15 52.36 157.83 51.92 157.17 51.70 Z" />
<path fill="#332e2a" opacity="1.00" d=" M 213.20 51.72 C 213.47 51.55 214.00 51.21 214.27 51.03 C 214.76 50.91 215.74 50.66 216.22 50.54 C 216.61 50.59 217.37 50.69 217.75 50.74 L 217.81 51.22 C 217.75 51.54 217.63 52.18 217.58 52.49 L 216.75 52.66 L 215.88 52.58 C 215.21 52.37 213.87 51.93 213.20 51.72 Z" />
<path fill="#332e2a" opacity="1.00" d=" M 46.87 53.89 L 47.46 53.39 C 47.66 54.04 48.06 55.35 48.26 56.00 L 44.52 56.00 C 44.12 55.39 43.34 54.17 42.94 53.56 C 43.02 56.08 46.09 55.87 46.87 53.89 Z" />
<path fill="#332e2a" opacity="1.00" d=" M 102.81 53.29 L 103.50 53.26 C 103.64 53.95 103.92 55.32 104.06 56.00 L 100.16 56.00 L 99.98 55.33 C 101.23 55.54 102.59 54.54 102.81 53.29 Z" />
<path fill="#332e2a" opacity="1.00" d=" M 158.81 53.29 L 159.50 53.26 C 159.64 53.95 159.92 55.32 160.06 56.00 L 156.16 56.00 L 155.98 55.32 C 157.23 55.54 158.59 54.54 158.81 53.29 Z" />
<path fill="#332e2a" opacity="1.00" d=" M 214.85 53.28 L 215.55 53.26 C 215.68 53.94 215.93 55.31 216.06 56.00 L 212.18 56.00 L 212.00 55.32 C 213.26 55.54 214.61 54.53 214.85 53.28 Z" />
</g>
<g id="#363636ff">
<path fill="#363636" opacity="1.00" d=" M 43.42 44.24 L 44.53 44.49 L 45.57 44.59 C 46.18 44.65 47.39 44.75 48.00 44.80 C 47.51 46.67 47.01 48.54 46.60 50.43 C 46.00 50.57 44.80 50.84 44.20 50.98 L 43.62 51.45 C 43.55 51.01 43.40 50.14 43.33 49.71 C 43.53 49.17 43.92 48.09 44.12 47.55 C 44.67 46.49 44.54 45.53 43.74 44.68 L 43.42 44.24 Z" />
</g>
<g id="#7aa55cff">
<path fill="#7aa55c" opacity="1.00" d=" M 51.94 44.54 C 53.31 44.24 54.68 43.96 56.05 43.69 C 56.05 47.79 56.03 51.90 55.99 56.00 L 49.81 56.00 L 50.02 55.41 C 49.86 54.69 49.53 53.25 49.37 52.53 C 49.46 52.19 49.64 51.52 49.74 51.19 C 50.29 48.92 50.72 46.57 51.94 44.54 Z" />
<path fill="#7aa55c" opacity="1.00" d=" M 107.93 44.53 C 109.30 44.24 110.67 43.96 112.05 43.69 C 112.05 47.79 112.03 51.90 111.99 56.00 L 105.70 56.00 L 105.99 55.38 C 105.85 54.65 105.58 53.20 105.45 52.47 C 105.53 52.15 105.68 51.52 105.76 51.20 C 106.29 48.92 106.69 46.56 107.93 44.53 Z" />
<path fill="#7aa55c" opacity="1.00" d=" M 163.93 44.53 C 165.30 44.24 166.67 43.96 168.05 43.69 C 168.05 47.80 168.03 51.90 167.99 56.00 L 161.70 56.00 L 161.99 55.38 C 161.85 54.65 161.58 53.20 161.44 52.47 C 161.52 52.15 161.68 51.52 161.76 51.20 C 162.29 48.92 162.69 46.56 163.93 44.53 Z" />
<path fill="#7aa55c" opacity="1.00" d=" M 220.37 45.00 C 221.57 44.39 222.78 43.79 224.00 43.20 L 224.00 56.00 L 217.68 56.00 L 217.98 55.40 C 217.88 54.67 217.68 53.22 217.58 52.49 C 217.63 52.18 217.75 51.54 217.81 51.22 C 218.07 49.58 218.15 47.91 218.26 46.25 C 218.96 45.84 219.66 45.42 220.37 45.00 Z" />
</g>
<g id="#37322dff">
<path fill="#37322d" opacity="1.00" d=" M 100.31 44.62 L 101.09 44.63 L 101.82 44.64 C 102.37 44.66 103.48 44.71 104.03 44.73 C 103.47 46.53 102.88 48.33 102.40 50.16 C 101.96 49.96 101.10 49.58 100.66 49.38 L 100.19 49.26 C 100.24 48.86 100.34 48.06 100.38 47.67 C 100.72 46.49 100.48 45.48 99.66 44.63 L 100.31 44.62 Z" />
<path fill="#37322d" opacity="1.00" d=" M 156.41 44.51 L 157.07 44.53 L 157.80 44.55 C 158.36 44.59 159.48 44.66 160.04 44.69 C 159.47 46.51 158.88 48.32 158.39 50.16 C 157.96 49.96 157.10 49.57 156.66 49.37 L 156.19 49.25 C 156.24 48.84 156.33 48.03 156.37 47.63 C 156.70 46.45 156.46 45.42 155.67 44.55 L 156.41 44.51 Z" />
<path fill="#37322d" opacity="1.00" d=" M 212.31 44.63 L 213.09 44.64 L 213.83 44.64 C 214.38 44.66 215.48 44.70 216.03 44.72 C 215.47 46.53 214.89 48.34 214.41 50.18 C 213.98 49.98 213.11 49.59 212.67 49.39 L 212.20 49.27 C 212.25 48.87 212.34 48.07 212.39 47.67 C 212.71 46.50 212.47 45.49 211.66 44.64 L 212.31 44.63 Z" />
</g>
<g id="#2889d5ff">
<path fill="#2889d5" opacity="1.00" d=" M 39.95 45.25 L 40.96 45.07 C 41.84 46.08 42.77 47.18 44.12 47.55 C 43.92 48.09 43.53 49.17 43.33 49.71 L 42.90 49.24 C 41.87 47.94 40.90 46.60 39.95 45.25 Z" />
</g>
<g id="#86a0b1ff">
<path fill="#86a0b1" opacity="1.00" d=" M 40.96 45.07 C 41.65 44.97 43.05 44.77 43.74 44.68 C 44.54 45.53 44.67 46.49 44.12 47.55 C 42.77 47.18 41.84 46.08 40.96 45.07 Z" />
<path fill="#86a0b1" opacity="1.00" d=" M 98.24 45.16 C 98.59 45.03 99.30 44.77 99.66 44.63 C 100.48 45.48 100.72 46.49 100.38 47.67 C 99.41 47.03 98.69 46.20 98.24 45.16 Z" />
<path fill="#86a0b1" opacity="1.00" d=" M 154.26 45.12 C 154.61 44.98 155.32 44.69 155.67 44.55 C 156.46 45.42 156.70 46.45 156.37 47.63 C 155.42 46.99 154.71 46.15 154.26 45.12 Z" />
<path fill="#86a0b1" opacity="1.00" d=" M 210.24 45.17 C 210.59 45.04 211.30 44.77 211.66 44.64 C 212.47 45.49 212.71 46.50 212.39 47.67 C 211.41 47.04 210.69 46.21 210.24 45.17 Z" />
<path fill="#86a0b1" opacity="1.00" d=" M 42.90 49.24 L 43.33 49.71 C 43.40 50.14 43.55 51.01 43.62 51.45 C 43.58 51.85 43.49 52.66 43.44 53.07 L 42.94 53.56 C 42.24 52.69 41.90 51.69 41.91 50.58 C 42.16 50.24 42.65 49.57 42.90 49.24 Z" />
</g>
<g id="#2988d4ff">
<path fill="#2988d4" opacity="1.00" d=" M 99.71 49.52 C 98.49 48.61 96.70 46.55 98.24 45.16 C 98.69 46.20 99.41 47.03 100.38 47.67 C 100.34 48.06 100.24 48.86 100.19 49.26 L 99.71 49.52 Z" />
<path fill="#2988d4" opacity="1.00" d=" M 155.71 49.51 C 154.49 48.58 152.75 46.53 154.26 45.12 C 154.71 46.15 155.42 46.99 156.37 47.63 C 156.33 48.03 156.24 48.84 156.19 49.25 L 155.71 49.51 Z" />
<path fill="#2988d4" opacity="1.00" d=" M 211.72 49.52 C 210.50 48.62 208.70 46.56 210.24 45.17 C 210.69 46.21 211.41 47.04 212.39 47.67 C 212.34 48.07 212.25 48.87 212.20 49.27 L 211.72 49.52 Z" />
</g>
<g id="#427acafe">
<path fill="#427aca" opacity="1.00" d=" M 130.89 47.51 C 131.83 46.72 132.77 45.93 133.72 45.15 C 135.60 47.30 137.30 50.40 141.06 49.03 C 143.60 49.48 144.78 46.67 146.28 45.15 C 147.23 45.95 148.17 46.75 149.11 47.56 C 148.34 47.74 146.80 48.11 146.03 48.30 C 148.07 50.21 150.11 52.13 152.14 54.07 C 145.31 49.63 135.70 48.69 128.97 53.79 C 128.81 53.50 128.49 52.92 128.33 52.63 C 130.30 51.29 132.22 49.90 134.14 48.49 C 133.32 48.25 131.70 47.75 130.89 47.51 Z" />
</g>
<g id="#8ca5b7ff">
<path fill="#8ca5b7" opacity="1.00" d=" M 99.71 49.52 L 100.19 49.26 L 100.66 49.38 C 100.79 49.96 101.04 51.12 101.17 51.71 L 100.99 52.46 C 100.66 52.88 100.00 53.73 99.67 54.15 C 99.41 53.13 99.20 52.10 99.06 51.06 C 99.22 50.67 99.55 49.90 99.71 49.52 Z" />
<path fill="#8ca5b7" opacity="1.00" d=" M 155.71 49.51 L 156.19 49.25 L 156.66 49.37 C 156.79 49.96 157.04 51.12 157.17 51.70 L 156.99 52.46 C 156.66 52.88 156.00 53.73 155.68 54.15 C 155.41 53.13 155.20 52.10 155.06 51.05 C 155.22 50.67 155.55 49.89 155.71 49.51 Z" />
<path fill="#8ca5b7" opacity="1.00" d=" M 211.72 49.52 L 212.20 49.27 L 212.67 49.39 C 212.80 49.97 213.07 51.14 213.20 51.72 L 213.02 52.46 C 212.69 52.88 212.03 53.73 211.70 54.15 C 211.43 53.13 211.22 52.10 211.07 51.05 C 211.24 50.67 211.56 49.91 211.72 49.52 Z" />
</g>
<g id="#adc2d9ff">
<path fill="#adc2d9" opacity="1.00" d=" M 43.62 51.45 L 44.20 50.98 C 44.51 51.27 45.12 51.84 45.42 52.13 L 45.29 52.87 C 44.83 52.92 43.91 53.02 43.44 53.07 C 43.49 52.66 43.58 51.85 43.62 51.45 Z" />
</g>
<g id="#75634eff">
<path fill="#75634e" opacity="1.00" d=" M 45.42 52.13 C 46.01 52.27 47.18 52.56 47.77 52.70 L 47.46 53.39 L 46.87 53.89 C 46.48 53.64 45.69 53.12 45.29 52.87 L 45.42 52.13 Z" />
<path fill="#75634e" opacity="1.00" d=" M 101.17 51.71 C 101.83 51.92 103.15 52.36 103.81 52.58 L 103.50 53.26 L 102.81 53.29 C 102.35 53.08 101.44 52.67 100.99 52.46 L 101.17 51.71 Z" />
<path fill="#75634e" opacity="1.00" d=" M 157.17 51.70 C 157.83 51.92 159.15 52.36 159.81 52.58 L 159.50 53.26 L 158.81 53.29 C 158.35 53.08 157.44 52.67 156.99 52.46 L 157.17 51.70 Z" />
<path fill="#75634e" opacity="1.00" d=" M 213.20 51.72 C 213.87 51.93 215.21 52.37 215.88 52.58 L 215.55 53.26 L 214.85 53.28 C 214.39 53.08 213.48 52.67 213.02 52.46 L 213.20 51.72 Z" />
</g>
<g id="#416845ff">
<path fill="#416845" opacity="1.00" d=" M 48.57 52.74 L 49.37 52.53 C 49.53 53.25 49.86 54.69 50.02 55.41 C 49.14 54.75 48.66 53.86 48.57 52.74 Z" />
<path fill="#416845" opacity="1.00" d=" M 104.64 52.65 L 105.45 52.47 C 105.58 53.20 105.85 54.65 105.99 55.38 C 105.19 54.65 104.74 53.74 104.64 52.65 Z" />
<path fill="#416845" opacity="1.00" d=" M 160.64 52.65 L 161.44 52.47 C 161.58 53.20 161.85 54.65 161.99 55.38 C 161.18 54.65 160.74 53.74 160.64 52.65 Z" />
<path fill="#416845" opacity="1.00" d=" M 216.75 52.66 L 217.58 52.49 C 217.68 53.22 217.88 54.67 217.98 55.40 C 217.19 54.66 216.78 53.75 216.75 52.66 Z" />
</g>
<g id="#3b6bbefe">
<path fill="#3b6bbe" opacity="1.00" d=" M 43.44 53.07 C 43.91 53.02 44.83 52.92 45.29 52.87 C 45.69 53.12 46.48 53.64 46.87 53.89 C 46.09 55.87 43.02 56.08 42.94 53.56 L 43.44 53.07 Z" />
</g>
</svg>
