<?xml version="1.0" encoding="UTF-8" ?>
<!DOCTYPE svg PUBLIC "-//W3C//DTD SVG 1.1//EN" "http://www.w3.org/Graphics/SVG/1.1/DTD/svg11.dtd">
<svg width="224pt" height="56pt" viewBox="0 0 224 56" version="1.1" xmlns="http://www.w3.org/2000/svg">
<g id="#3c6bbeff">
<path fill="#3c6bbe" opacity="1.00" d=" M 0.00 0.00 L 25.65 0.00 C 26.61 1.11 27.53 2.26 28.45 3.41 C 21.87 4.05 14.82 6.01 8.46 3.28 C 9.43 5.11 10.45 6.94 11.04 8.93 C 9.04 11.16 6.42 12.72 4.11 14.60 C 8.02 14.25 11.96 14.14 15.88 14.17 C 14.61 12.50 13.26 10.87 12.30 8.99 C 14.14 4.09 19.91 6.29 23.79 6.18 C 27.58 5.63 31.02 3.56 34.91 3.35 C 38.25 4.04 41.20 5.96 44.53 6.66 C 47.89 6.97 51.28 6.64 54.65 6.62 C 56.08 4.67 57.55 2.75 59.04 0.84 C 55.94 2.19 52.89 3.92 49.47 4.28 C 42.78 5.31 36.77 1.52 30.50 0.00 L 85.33 0.00 C 79.74 5.58 71.42 2.69 64.61 2.19 C 65.46 4.03 66.42 5.86 66.80 7.86 C 65.49 10.50 62.20 11.63 60.10 13.59 C 64.02 13.25 67.95 13.14 71.89 13.17 C 70.61 11.50 69.26 9.86 68.30 7.99 C 70.25 2.88 76.19 5.40 80.20 5.31 C 83.90 4.07 86.86 0.95 91.06 0.95 C 95.14 1.79 98.05 5.63 102.35 5.76 C 105.39 6.07 108.45 6.24 111.51 6.44 C 111.72 5.50 111.93 4.56 112.13 3.62 C 105.87 3.45 99.31 3.61 93.91 0.00 L 138.35 0.00 C 137.76 0.59 136.56 1.76 135.96 2.35 C 130.84 2.13 125.72 1.86 120.63 1.25 C 121.37 3.25 123.04 5.32 122.59 7.50 C 120.66 9.47 118.26 10.91 116.10 12.59 C 120.01 12.25 123.95 12.14 127.89 12.17 C 126.61 10.50 125.26 8.86 124.30 6.98 C 126.57 1.65 133.03 3.90 137.23 5.06 C 138.47 3.37 139.67 1.65 140.97 0.00 L 151.46 0.00 C 152.68 1.72 153.78 3.63 155.51 4.90 C 159.41 5.86 163.48 6.15 167.46 6.66 C 167.71 5.55 167.95 4.44 168.19 3.34 C 164.93 3.53 161.68 3.69 158.43 3.85 C 157.22 2.56 156.01 1.26 154.78 0.00 L 197.36 0.00 C 192.42 4.69 185.27 2.68 179.25 4.37 C 178.53 8.50 175.39 11.24 172.20 13.64 C 176.08 13.25 179.98 13.14 183.88 13.16 C 182.61 11.50 181.26 9.86 180.30 7.99 C 182.25 2.88 188.19 5.40 192.20 5.31 C 195.90 4.07 198.86 0.95 203.06 0.95 C 207.13 1.78 210.04 5.66 214.35 5.72 C 217.56 6.01 220.79 6.12 224.00 6.52 L 224.00 9.33 C 220.50 9.61 216.90 9.59 213.51 10.50 C 211.31 11.71 209.79 13.81 208.01 15.52 C 213.47 14.78 218.59 12.61 224.00 11.64 L 224.00 27.65 C 219.31 27.96 214.39 27.08 211.99 22.67 C 214.75 21.15 217.50 19.59 220.28 18.11 C 216.81 18.79 213.35 19.58 209.89 20.29 C 212.15 25.09 217.46 29.26 215.70 35.04 C 213.47 34.13 211.26 33.20 209.05 32.23 C 208.77 33.13 208.49 34.03 208.21 34.92 C 212.92 36.87 217.84 38.16 222.78 39.37 C 221.20 37.45 217.84 36.04 218.14 33.22 C 219.43 30.88 222.05 29.68 224.00 27.96 L 224.00 45.12 C 215.54 44.88 206.98 42.36 198.57 44.33 C 201.90 45.23 205.27 45.97 208.65 46.66 C 213.73 47.90 218.94 46.25 224.00 45.88 L 224.00 50.51 C 221.01 51.14 218.06 51.83 215.05 52.26 C 214.72 52.14 214.06 51.90 213.74 51.79 C 212.26 53.17 210.82 54.58 209.39 56.00 L 205.25 56.00 C 200.45 53.95 195.87 51.44 191.25 49.04 C 195.53 43.37 199.01 36.35 206.26 33.90 C 204.91 31.38 203.66 28.82 202.38 26.27 C 202.27 28.93 203.20 32.78 199.95 33.94 C 195.23 36.98 189.99 33.93 185.62 31.85 C 188.05 27.30 192.93 25.80 197.90 26.31 C 197.21 22.37 199.82 19.39 202.76 17.19 C 198.58 18.09 194.30 17.85 190.14 16.95 C 192.85 18.66 195.28 20.78 197.12 23.41 C 193.47 24.75 189.80 25.99 186.14 27.27 C 185.25 29.80 185.75 33.50 182.93 34.71 C 179.43 36.14 175.76 37.07 172.17 38.22 C 174.59 41.91 177.55 45.36 181.81 46.96 C 179.59 44.78 177.37 42.60 175.15 40.43 C 180.78 36.07 188.04 34.58 194.91 36.88 C 193.42 41.37 190.98 45.50 187.47 48.70 C 188.02 48.89 189.13 49.26 189.68 49.45 C 187.84 51.17 185.98 52.88 184.14 54.61 C 186.75 53.46 189.26 51.92 192.10 51.41 C 194.89 51.49 197.26 53.29 199.68 54.49 C 198.25 55.01 196.82 55.52 195.37 56.00 L 168.67 56.00 C 168.28 54.49 167.87 52.98 167.45 51.47 L 167.17 50.53 C 164.01 51.23 160.96 52.25 157.86 53.15 C 156.22 53.35 154.59 54.27 154.22 56.00 L 150.26 56.00 C 145.06 51.92 139.02 49.18 133.55 45.53 C 132.68 46.11 131.83 46.71 131.00 47.33 C 131.70 47.61 133.11 48.17 133.82 48.46 C 131.92 50.14 130.01 51.80 128.11 53.48 C 133.58 50.67 140.10 49.90 145.63 52.99 C 143.57 53.33 139.44 54.01 137.38 54.34 C 138.00 54.76 139.25 55.59 139.87 56.00 L 112.75 56.00 C 112.29 54.54 111.84 53.08 111.42 51.60 L 111.19 50.81 C 108.46 51.23 105.77 51.81 103.03 52.12 C 102.70 52.03 102.04 51.84 101.71 51.75 C 100.25 53.14 98.82 54.57 97.40 56.00 L 93.25 56.00 C 88.45 53.95 83.87 51.44 79.25 49.04 C 83.55 43.34 87.06 36.29 94.36 33.85 C 92.86 31.27 91.39 28.67 89.64 26.25 C 90.10 28.34 90.59 30.43 91.06 32.52 C 85.50 35.38 79.10 34.35 73.53 31.98 C 75.98 27.41 80.84 25.73 85.90 26.31 C 85.21 22.37 87.82 19.39 90.76 17.19 C 86.58 18.09 82.30 17.85 78.14 16.95 C 80.85 18.66 83.28 20.78 85.12 23.41 C 81.48 24.75 77.80 25.99 74.14 27.27 C 73.25 29.80 73.75 33.50 70.93 34.71 C 67.43 36.14 63.76 37.07 60.17 38.22 C 62.59 41.91 65.55 45.36 69.81 46.96 C 67.60 44.78 65.37 42.60 63.15 40.43 C 68.78 36.07 76.04 34.58 82.91 36.88 C 81.42 41.37 78.98 45.50 75.47 48.70 C 76.02 48.89 77.13 49.26 77.68 49.45 C 75.84 51.17 73.98 52.88 72.14 54.61 C 74.75 53.46 77.26 51.92 80.10 51.41 C 82.89 51.49 85.26 53.29 87.68 54.49 C 86.25 55.01 84.82 55.52 83.37 56.00 L 56.67 56.00 C 56.27 54.47 55.87 52.94 55.46 51.42 L 55.09 50.16 C 51.81 50.86 48.63 52.06 45.94 54.07 C 46.50 52.96 47.04 51.84 47.56 50.71 L 46.41 50.98 C 45.22 51.22 44.03 51.46 42.84 51.69 C 42.60 52.31 42.12 53.55 41.88 54.16 C 41.69 54.62 41.31 55.54 41.12 56.00 L 32.77 56.00 C 29.99 53.71 27.13 51.51 24.10 49.55 C 29.02 45.03 30.30 36.12 38.25 35.50 C 36.43 32.91 34.84 30.17 33.27 27.43 C 33.10 29.81 34.26 33.22 31.66 34.64 C 27.89 37.20 23.56 34.78 19.91 33.29 C 19.87 32.35 19.80 30.47 19.76 29.53 C 22.98 28.47 26.28 27.64 29.61 27.00 C 29.00 25.58 28.39 24.17 27.79 22.75 C 32.07 20.92 36.68 20.19 41.31 20.28 C 35.37 16.23 28.53 18.76 22.05 19.55 C 23.62 20.42 25.20 21.28 26.78 22.14 C 26.90 22.96 27.13 24.59 27.25 25.40 C 23.74 26.43 20.18 27.26 16.55 27.70 C 17.60 29.52 18.61 31.37 19.60 33.23 C 13.32 35.69 6.72 37.32 0.00 37.83 L 0.00 31.08 C 3.83 29.59 7.71 28.25 11.57 26.86 C 11.72 25.23 11.63 23.53 12.19 21.96 C 14.34 19.87 17.37 19.05 20.01 17.74 C 13.36 19.36 6.40 20.66 0.00 17.40 L 0.00 0.00 M 138.60 9.23 C 141.01 10.51 143.47 11.70 146.00 12.74 C 145.37 14.05 144.72 15.34 144.06 16.62 C 147.07 16.52 150.08 16.57 153.08 16.79 C 149.08 15.62 146.70 12.41 144.46 9.16 C 142.52 8.84 140.54 9.17 138.60 9.23 M 157.82 9.16 C 156.03 10.66 154.36 12.30 152.68 13.92 C 158.42 13.13 164.72 9.93 170.14 13.51 C 169.43 12.05 168.66 10.61 167.66 9.33 C 164.38 9.12 161.09 9.88 157.82 9.16 M 105.03 9.92 C 101.45 8.42 100.17 11.25 98.77 13.31 C 97.80 13.95 96.84 14.59 95.89 15.25 C 102.01 12.89 109.35 14.08 114.96 10.45 C 111.69 9.81 108.34 9.39 105.03 9.92 M 43.19 10.50 C 43.73 11.54 44.29 12.58 44.84 13.62 C 43.13 14.46 41.43 15.30 39.73 16.17 C 46.04 14.52 53.27 15.08 58.95 11.50 C 53.77 10.37 48.46 10.48 43.19 10.50 M 122.47 16.65 C 118.63 18.38 114.55 15.35 110.60 16.47 C 106.41 17.53 102.35 19.03 98.22 20.29 C 99.27 24.26 101.92 27.35 104.64 30.32 C 104.34 31.94 103.67 33.46 103.13 35.01 C 101.11 34.06 99.10 33.08 97.10 32.10 C 96.80 33.01 96.50 33.92 96.21 34.83 C 100.85 37.12 105.93 38.18 110.98 39.14 C 108.86 37.36 104.95 35.81 106.16 32.34 C 111.40 28.08 117.42 24.73 123.89 22.74 C 123.79 20.93 123.72 19.10 124.14 17.32 C 126.58 15.96 129.34 15.33 131.99 14.50 C 131.70 14.18 131.14 13.54 130.85 13.22 C 128.07 14.40 125.27 15.54 122.47 16.65 M 154.18 19.16 C 155.23 23.18 157.85 26.33 160.63 29.32 C 160.37 30.80 159.78 32.19 159.29 33.61 C 156.54 32.66 153.67 31.92 150.73 32.28 C 149.69 29.72 148.65 27.10 146.62 25.13 C 147.10 27.16 147.64 29.18 148.17 31.19 C 142.39 35.13 135.07 33.84 129.21 30.80 C 131.24 23.85 139.05 25.61 144.66 25.16 C 139.77 22.21 134.26 23.66 129.55 26.13 C 128.62 28.73 127.70 31.34 126.66 33.90 C 130.52 34.87 134.41 35.75 138.36 36.31 C 138.98 39.93 137.63 43.36 136.25 46.63 C 138.97 45.29 141.12 43.13 141.63 40.05 C 142.18 36.47 145.73 34.49 149.04 34.12 C 155.11 35.05 160.99 36.89 166.99 38.19 C 164.91 36.38 160.87 34.77 162.19 31.32 C 164.03 28.03 168.07 28.91 171.17 28.46 C 174.32 27.30 177.24 25.57 180.41 24.43 C 180.02 23.38 179.62 22.33 179.24 21.28 C 180.14 19.90 181.03 18.53 181.94 17.16 C 178.33 18.75 174.27 19.39 170.69 17.03 C 165.24 14.32 159.53 18.06 154.18 19.16 M 42.22 21.29 C 43.27 25.27 45.92 28.35 48.64 31.32 C 48.34 32.94 47.68 34.46 47.13 36.01 C 45.11 35.06 43.10 34.08 41.10 33.10 C 40.80 34.01 40.50 34.92 40.21 35.83 C 44.86 38.12 49.93 39.18 54.98 40.14 C 52.74 38.35 49.06 36.76 50.04 33.22 C 55.76 29.59 62.17 27.08 68.43 24.48 C 68.03 23.41 67.63 22.34 67.24 21.27 C 68.13 19.91 69.03 18.55 69.93 17.19 C 65.70 19.34 61.13 18.18 56.75 17.18 C 51.73 17.67 47.07 20.02 42.22 21.29 M 114.60 36.91 C 114.47 37.34 114.34 37.77 114.21 38.20 C 115.47 38.98 116.73 39.77 117.97 40.59 C 121.74 38.68 125.60 36.98 129.40 35.12 C 124.50 35.96 119.62 37.66 114.60 36.91 M 103.29 38.67 C 102.44 40.58 101.64 42.51 100.77 44.41 C 96.04 43.98 91.20 42.57 86.56 44.46 C 90.93 45.19 95.23 46.23 99.51 47.37 C 103.51 47.02 107.46 45.95 111.52 45.95 C 112.58 47.22 113.66 48.49 114.72 49.77 C 115.38 48.26 116.06 46.76 116.76 45.26 C 112.24 45.33 107.76 44.75 103.29 44.26 C 103.32 42.40 103.33 40.53 103.29 38.67 M 155.01 44.17 C 152.71 44.92 150.62 43.39 148.60 42.54 C 148.42 43.26 148.24 43.97 148.05 44.69 C 152.36 46.55 157.06 47.83 161.36 45.16 C 161.04 43.17 160.81 41.16 160.64 39.15 C 158.93 40.97 157.51 43.40 155.01 44.17 M 34.88 42.84 C 33.55 43.79 32.22 44.74 30.88 45.68 C 35.52 44.93 40.45 45.62 43.80 49.20 C 44.61 48.28 45.43 47.36 46.26 46.45 C 49.65 46.68 53.03 46.74 56.43 46.79 C 52.94 45.93 49.43 45.15 45.96 44.23 C 46.32 42.86 46.66 41.49 47.00 40.11 C 44.15 43.81 38.98 45.56 34.88 42.84 M 163.97 44.23 C 163.65 46.00 167.35 46.00 167.03 44.23 C 166.42 43.18 164.57 43.18 163.97 44.23 M 113.50 51.42 C 116.80 51.93 120.11 52.50 123.44 52.86 C 120.47 50.77 116.92 49.58 113.50 51.42 Z" />
<path fill="#3c6bbe" opacity="1.00" d=" M 8.36 39.95 C 11.38 38.35 14.44 36.28 17.97 36.21 C 21.67 36.54 24.92 38.59 28.15 40.25 C 25.97 42.25 23.71 44.15 21.34 45.91 C 21.75 50.15 19.24 53.63 15.94 56.00 L 0.00 56.00 L 0.00 38.68 C 2.28 39.02 4.55 39.36 6.83 39.71 C 8.82 43.38 11.83 46.37 15.69 48.05 C 13.25 45.34 10.76 42.69 8.36 39.95 M 2.86 47.79 C 3.03 49.93 3.05 52.08 2.91 54.22 C 5.63 54.49 8.34 54.77 11.06 55.04 C 8.93 53.46 6.75 51.93 4.66 50.29 C 5.75 49.08 6.85 47.88 7.95 46.68 C 6.25 47.03 4.55 47.40 2.86 47.79 Z" />
<path fill="#3c6bbe" opacity="1.00" d=" M 16.73 56.00 C 19.73 54.44 22.63 52.10 26.30 52.68 C 28.24 53.52 29.89 54.86 31.66 56.00 L 16.73 56.00 Z" />
</g>
<g id="#4179cbff">
<path fill="#4179cb" opacity="1.00" d=" M 25.65 0.00 L 30.50 0.00 C 36.77 1.52 42.78 5.31 49.47 4.28 C 52.89 3.92 55.94 2.19 59.04 0.84 C 57.55 2.75 56.08 4.67 54.65 6.62 C 51.28 6.64 47.89 6.97 44.53 6.66 C 41.20 5.96 38.25 4.04 34.91 3.35 C 31.02 3.56 27.58 5.63 23.79 6.18 C 19.91 6.29 14.14 4.09 12.30 8.99 C 13.26 10.87 14.61 12.50 15.88 14.17 C 11.96 14.14 8.02 14.25 4.11 14.60 C 6.42 12.72 9.04 11.16 11.04 8.93 C 10.45 6.94 9.43 5.11 8.46 3.28 C 14.82 6.01 21.87 4.05 28.45 3.41 C 27.53 2.26 26.61 1.11 25.65 0.00 Z" />
<path fill="#4179cb" opacity="1.00" d=" M 85.33 0.00 L 93.91 0.00 C 99.31 3.61 105.87 3.45 112.13 3.62 C 111.93 4.56 111.72 5.50 111.51 6.44 C 108.45 6.24 105.39 6.07 102.35 5.76 C 98.05 5.63 95.14 1.79 91.06 0.95 C 86.86 0.95 83.90 4.07 80.20 5.31 C 76.19 5.40 70.25 2.88 68.30 7.99 C 69.26 9.86 70.61 11.50 71.89 13.17 C 67.95 13.14 64.02 13.25 60.10 13.59 C 62.20 11.63 65.49 10.50 66.80 7.86 C 66.42 5.86 65.46 4.03 64.61 2.19 C 71.42 2.69 79.74 5.58 85.33 0.00 Z" />
<path fill="#4179cb" opacity="1.00" d=" M 197.36 0.00 L 205.92 0.00 C 211.26 3.65 217.77 3.50 224.00 3.64 L 224.00 6.52 C 220.79 6.12 217.56 6.01 214.35 5.72 C 210.04 5.66 207.13 1.78 203.06 0.95 C 198.86 0.95 195.90 4.07 192.20 5.31 C 188.19 5.40 182.25 2.88 180.30 7.99 C 181.26 9.86 182.61 11.50 183.88 13.16 C 179.98 13.14 176.08 13.25 172.20 13.64 C 175.39 11.24 178.53 8.50 179.25 4.37 C 185.27 2.68 192.42 4.69 197.36 0.00 Z" />
<path fill="#4179cb" opacity="1.00" d=" M 131.00 47.33 C 131.83 46.71 132.68 46.11 133.55 45.53 C 139.02 49.18 145.06 51.92 150.26 56.00 L 139.87 56.00 C 139.25 55.59 138.00 54.76 137.38 54.34 C 139.44 54.01 143.57 53.33 145.63 52.99 C 140.10 49.90 133.58 50.67 128.11 53.48 C 130.01 51.80 131.92 50.14 133.82 48.46 C 133.11 48.17 131.70 47.61 131.00 47.33 Z" />
</g>
<g id="#4278caff">
<path fill="#4278ca" opacity="1.00" d=" M 138.35 0.00 L 140.97 0.00 C 139.67 1.65 138.47 3.37 137.23 5.06 C 133.03 3.90 126.57 1.65 124.30 6.98 C 125.26 8.86 126.61 10.50 127.89 12.17 C 123.95 12.14 120.01 12.25 116.10 12.59 C 118.26 10.91 120.66 9.47 122.59 7.50 C 123.04 5.32 121.37 3.25 120.63 1.25 C 125.72 1.86 130.84 2.13 135.96 2.35 C 136.56 1.76 137.76 0.59 138.35 0.00 Z" />
</g>
<g id="#4079ccff">
<path fill="#4079cc" opacity="1.00" d=" M 151.46 0.00 L 154.78 0.00 C 156.01 1.26 157.22 2.56 158.43 3.85 C 161.68 3.69 164.93 3.53 168.19 3.34 C 167.95 4.44 167.71 5.55 167.46 6.66 C 163.48 6.15 159.41 5.86 155.51 4.90 C 153.78 3.63 152.68 1.72 151.46 0.00 Z" />
</g>
<g id="#3c6abefe">
<path fill="#3c6abe" opacity="1.00" d=" M 205.92 0.00 L 224.00 0.00 L 224.00 3.64 C 217.77 3.50 211.26 3.65 205.92 0.00 Z" />
</g>
<g id="#4377caff">
<path fill="#4377ca" opacity="1.00" d=" M 138.60 9.23 C 140.54 9.17 142.52 8.84 144.46 9.16 C 146.70 12.41 149.08 15.62 153.08 16.79 C 150.08 16.57 147.07 16.52 144.06 16.62 C 144.72 15.34 145.37 14.05 146.00 12.74 C 143.47 11.70 141.01 10.51 138.60 9.23 Z" />
</g>
<g id="#407accff">
<path fill="#407acc" opacity="1.00" d=" M 157.82 9.16 C 161.09 9.88 164.38 9.12 167.66 9.33 C 168.66 10.61 169.43 12.05 170.14 13.51 C 164.72 9.93 158.42 13.13 152.68 13.92 C 154.36 12.30 156.03 10.66 157.82 9.16 Z" />
</g>
<g id="#427bcbff">
<path fill="#427bcb" opacity="1.00" d=" M 105.03 9.92 C 108.34 9.39 111.69 9.81 114.96 10.45 C 109.35 14.08 102.01 12.89 95.89 15.25 C 96.84 14.59 97.80 13.95 98.77 13.31 C 100.17 11.25 101.45 8.42 105.03 9.92 Z" />
<path fill="#427bcb" opacity="1.00" d=" M 213.51 10.50 C 216.90 9.59 220.50 9.61 224.00 9.33 L 224.00 11.64 C 218.59 12.61 213.47 14.78 208.01 15.52 C 209.79 13.81 211.31 11.71 213.51 10.50 Z" />
</g>
<g id="#437bccff">
<path fill="#437bcc" opacity="1.00" d=" M 43.19 10.50 C 48.46 10.48 53.77 10.37 58.95 11.50 C 53.27 15.08 46.04 14.52 39.73 16.17 C 41.43 15.30 43.13 14.46 44.84 13.62 C 44.29 12.58 43.73 11.54 43.19 10.50 Z" />
</g>
<g id="#4379caff">
<path fill="#4379ca" opacity="1.00" d=" M 122.47 16.65 C 125.27 15.54 128.07 14.40 130.85 13.22 C 131.14 13.54 131.70 14.18 131.99 14.50 C 129.34 15.33 126.58 15.96 124.14 17.32 C 123.72 19.10 123.79 20.93 123.89 22.74 C 117.42 24.73 111.40 28.08 106.16 32.34 C 104.95 35.81 108.86 37.36 110.98 39.14 C 105.93 38.18 100.85 37.12 96.21 34.83 C 96.50 33.92 96.80 33.01 97.10 32.10 C 99.10 33.08 101.11 34.06 103.13 35.01 C 103.67 33.46 104.34 31.94 104.64 30.32 C 101.92 27.35 99.27 24.26 98.22 20.29 C 102.35 19.03 106.41 17.53 110.60 16.47 C 114.55 15.35 118.63 18.38 122.47 16.65 M 100.89 21.78 C 100.89 22.63 100.90 24.33 100.90 25.18 C 103.42 26.23 105.96 28.39 108.82 27.73 C 113.42 25.78 117.80 23.32 122.34 21.22 C 116.08 16.29 107.48 18.64 100.89 21.78 Z" />
<path fill="#4379ca" opacity="1.00" d=" M 22.05 19.55 C 28.53 18.76 35.37 16.23 41.31 20.28 C 36.68 20.19 32.07 20.92 27.79 22.75 C 28.39 24.17 29.00 25.58 29.61 27.00 C 26.28 27.64 22.98 28.47 19.76 29.53 C 19.80 30.47 19.87 32.35 19.91 33.29 C 23.56 34.78 27.89 37.20 31.66 34.64 C 34.26 33.22 33.10 29.81 33.27 27.43 C 34.84 30.17 36.43 32.91 38.25 35.50 C 30.30 36.12 29.02 45.03 24.10 49.55 C 27.13 51.51 29.99 53.71 32.77 56.00 L 31.66 56.00 C 29.89 54.86 28.24 53.52 26.30 52.68 C 22.63 52.10 19.73 54.44 16.73 56.00 L 15.94 56.00 C 19.24 53.63 21.75 50.15 21.34 45.91 C 23.71 44.15 25.97 42.25 28.15 40.25 C 24.92 38.59 21.67 36.54 17.97 36.21 C 14.44 36.28 11.38 38.35 8.36 39.95 C 10.76 42.69 13.25 45.34 15.69 48.05 C 11.83 46.37 8.82 43.38 6.83 39.71 C 4.55 39.36 2.28 39.02 0.00 38.68 L 0.00 37.83 C 6.72 37.32 13.32 35.69 19.60 33.23 C 18.61 31.37 17.60 29.52 16.55 27.70 C 20.18 27.26 23.74 26.43 27.25 25.40 C 27.13 24.59 26.90 22.96 26.78 22.14 C 25.20 21.28 23.62 20.42 22.05 19.55 Z" />
<path fill="#4379ca" opacity="1.00" d=" M 42.22 21.29 C 47.07 20.02 51.73 17.67 56.75 17.18 C 61.13 18.18 65.70 19.34 69.93 17.19 C 69.03 18.55 68.13 19.91 67.24 21.27 C 67.63 22.34 68.03 23.41 68.43 24.48 C 62.17 27.08 55.76 29.59 50.04 33.22 C 49.06 36.76 52.74 38.35 54.98 40.14 C 49.93 39.18 44.86 38.12 40.21 35.83 C 40.50 34.92 40.80 34.01 41.10 33.10 C 43.10 34.08 45.11 35.06 47.13 36.01 C 47.68 34.46 48.34 32.94 48.64 31.32 C 45.92 28.35 43.27 25.27 42.22 21.29 M 44.90 22.78 C 44.89 23.64 44.88 25.36 44.88 26.23 C 51.92 31.15 60.16 26.18 66.63 22.65 C 60.62 17.00 51.57 19.63 44.90 22.78 Z" />
<path fill="#4379ca" opacity="1.00" d=" M 209.89 20.29 C 213.35 19.58 216.81 18.79 220.28 18.11 C 217.50 19.59 214.75 21.15 211.99 22.67 C 214.39 27.08 219.31 27.96 224.00 27.65 L 224.00 27.96 C 222.05 29.68 219.43 30.88 218.14 33.22 C 217.84 36.04 221.20 37.45 222.78 39.37 C 217.84 38.16 212.92 36.87 208.21 34.92 C 208.49 34.03 208.77 33.13 209.05 32.23 C 211.26 33.20 213.47 34.13 215.70 35.04 C 217.46 29.26 212.15 25.09 209.89 20.29 Z" />
<path fill="#4379ca" opacity="1.00" d=" M 114.60 36.91 C 119.62 37.66 124.50 35.96 129.40 35.12 C 125.60 36.98 121.74 38.68 117.97 40.59 C 116.73 39.77 115.47 38.98 114.21 38.20 C 114.34 37.77 114.47 37.34 114.60 36.91 Z" />
</g>
<g id="#437acaff">
<path fill="#437aca" opacity="1.00" d=" M 154.18 19.16 C 159.53 18.06 165.24 14.32 170.69 17.03 C 174.27 19.39 178.33 18.75 181.94 17.16 C 181.03 18.53 180.14 19.90 179.24 21.28 C 179.62 22.33 180.02 23.38 180.41 24.43 C 177.24 25.57 174.32 27.30 171.17 28.46 C 168.07 28.91 164.03 28.03 162.19 31.32 C 160.87 34.77 164.91 36.38 166.99 38.19 C 160.99 36.89 155.11 35.05 149.04 34.12 C 145.73 34.49 142.18 36.47 141.63 40.05 C 141.12 43.13 138.97 45.29 136.25 46.63 C 137.63 43.36 138.98 39.93 138.36 36.31 C 134.41 35.75 130.52 34.87 126.66 33.90 C 127.70 31.34 128.62 28.73 129.55 26.13 C 134.26 23.66 139.77 22.21 144.66 25.16 C 139.05 25.61 131.24 23.85 129.21 30.80 C 135.07 33.84 142.39 35.13 148.17 31.19 C 147.64 29.18 147.10 27.16 146.62 25.13 C 148.65 27.10 149.69 29.72 150.73 32.28 C 153.67 31.92 156.54 32.66 159.29 33.61 C 159.78 32.19 160.37 30.80 160.63 29.32 C 157.85 26.33 155.23 23.18 154.18 19.16 M 159.38 19.40 C 156.68 20.21 156.03 24.02 158.75 25.25 C 165.21 28.41 172.93 26.44 178.71 22.72 C 173.46 18.35 165.78 17.21 159.38 19.40 Z" />
</g>
<g id="#427acbff">
<path fill="#427acb" opacity="1.00" d=" M 0.00 17.40 C 6.40 20.66 13.36 19.36 20.01 17.74 C 17.37 19.05 14.34 19.87 12.19 21.96 C 11.63 23.53 11.72 25.23 11.57 26.86 C 7.71 28.25 3.83 29.59 0.00 31.08 L 0.00 29.16 C 3.88 27.63 7.79 26.14 11.38 23.99 C 7.80 21.85 3.89 20.39 0.00 18.92 L 0.00 17.40 Z" />
<path fill="#427acb" opacity="1.00" d=" M 2.86 47.79 C 4.55 47.40 6.25 47.03 7.95 46.68 C 6.85 47.88 5.75 49.08 4.66 50.29 C 6.75 51.93 8.93 53.46 11.06 55.04 C 8.34 54.77 5.63 54.49 2.91 54.22 C 3.05 52.08 3.03 49.93 2.86 47.79 Z" />
</g>
<g id="#4279cafe">
<path fill="#4279ca" opacity="1.00" d=" M 78.14 16.95 C 82.30 17.85 86.58 18.09 90.76 17.19 C 87.82 19.39 85.21 22.37 85.90 26.31 C 80.84 25.73 75.98 27.41 73.53 31.98 C 79.10 34.35 85.50 35.38 91.06 32.52 C 90.59 30.43 90.10 28.34 89.64 26.25 C 91.39 28.67 92.86 31.27 94.36 33.85 C 87.06 36.29 83.55 43.34 79.25 49.04 C 83.87 51.44 88.45 53.95 93.25 56.00 L 83.37 56.00 C 84.82 55.52 86.25 55.01 87.68 54.49 C 85.26 53.29 82.89 51.49 80.10 51.41 C 77.26 51.92 74.75 53.46 72.14 54.61 C 73.98 52.88 75.84 51.17 77.68 49.45 C 77.13 49.26 76.02 48.89 75.47 48.70 C 78.98 45.50 81.42 41.37 82.91 36.88 C 76.04 34.58 68.78 36.07 63.15 40.43 C 65.37 42.60 67.60 44.78 69.81 46.96 C 65.55 45.36 62.59 41.91 60.17 38.22 C 63.76 37.07 67.43 36.14 70.93 34.71 C 73.75 33.50 73.25 29.80 74.14 27.27 C 77.80 25.99 81.48 24.75 85.12 23.41 C 83.28 20.78 80.85 18.66 78.14 16.95 Z" />
</g>
<g id="#4279cbfe">
<path fill="#4279cb" opacity="1.00" d=" M 190.14 16.95 C 194.30 17.85 198.58 18.09 202.76 17.19 C 199.82 19.39 197.21 22.37 197.90 26.31 C 192.93 25.80 188.05 27.30 185.62 31.85 C 189.99 33.93 195.23 36.98 199.95 33.94 C 203.20 32.78 202.27 28.93 202.38 26.27 C 203.66 28.82 204.91 31.38 206.26 33.90 C 199.01 36.35 195.53 43.37 191.25 49.04 C 195.87 51.44 200.45 53.95 205.25 56.00 L 195.37 56.00 C 196.82 55.52 198.25 55.01 199.68 54.49 C 197.26 53.29 194.89 51.49 192.10 51.41 C 189.26 51.92 186.75 53.46 184.14 54.61 C 185.98 52.88 187.84 51.17 189.68 49.45 C 189.13 49.26 188.02 48.89 187.47 48.70 C 190.98 45.50 193.42 41.37 194.91 36.88 C 188.04 34.58 180.78 36.07 175.15 40.43 C 177.37 42.60 179.59 44.78 181.81 46.96 C 177.55 45.36 174.59 41.91 172.17 38.22 C 175.76 37.07 179.43 36.14 182.93 34.71 C 185.75 33.50 185.25 29.80 186.14 27.27 C 189.80 25.99 193.47 24.75 197.12 23.41 C 195.28 20.78 192.85 18.66 190.14 16.95 Z" />
</g>
<g id="#3c6bbdff">
<path fill="#3c6bbd" opacity="1.00" d=" M 100.89 21.78 C 107.48 18.64 116.08 16.29 122.34 21.22 C 117.80 23.32 113.42 25.78 108.82 27.73 C 105.96 28.39 103.42 26.23 100.90 25.18 C 100.90 24.33 100.89 22.63 100.89 21.78 Z" />
<path fill="#3c6bbd" opacity="1.00" d=" M 159.38 19.40 C 165.78 17.21 173.46 18.35 178.71 22.72 C 172.93 26.44 165.21 28.41 158.75 25.25 C 156.03 24.02 156.68 20.21 159.38 19.40 Z" />
<path fill="#3c6bbd" opacity="1.00" d=" M 44.90 22.78 C 51.57 19.63 60.62 17.00 66.63 22.65 C 60.16 26.18 51.92 31.15 44.88 26.23 C 44.88 25.36 44.89 23.64 44.90 22.78 Z" />
</g>
<g id="#3c6abeff">
<path fill="#3c6abe" opacity="1.00" d=" M 0.00 18.92 C 3.89 20.39 7.80 21.85 11.38 23.99 C 7.79 26.14 3.88 27.63 0.00 29.16 L 0.00 18.92 Z" />
</g>
<g id="#4278cbff">
<path fill="#4278cb" opacity="1.00" d=" M 103.29 38.67 C 103.33 40.53 103.32 42.40 103.29 44.26 C 107.76 44.75 112.24 45.33 116.76 45.26 C 116.06 46.76 115.38 48.26 114.72 49.77 C 113.66 48.49 112.58 47.22 111.52 45.95 C 107.46 45.95 103.51 47.02 99.51 47.37 C 95.23 46.23 90.93 45.19 86.56 44.46 C 91.20 42.57 96.04 43.98 100.77 44.41 C 101.64 42.51 102.44 40.58 103.29 38.67 Z" />
</g>
<g id="#4279cbff">
<path fill="#4279cb" opacity="1.00" d=" M 155.01 44.17 C 157.51 43.40 158.93 40.97 160.64 39.15 C 160.81 41.16 161.04 43.17 161.36 45.16 C 157.06 47.83 152.36 46.55 148.05 44.69 C 148.24 43.97 148.42 43.26 148.60 42.54 C 150.62 43.39 152.71 44.92 155.01 44.17 Z" />
</g>
<g id="#4378cbff">
<path fill="#4378cb" opacity="1.00" d=" M 34.88 42.84 C 38.98 45.56 44.15 43.81 47.00 40.11 C 46.66 41.49 46.32 42.86 45.96 44.23 C 49.43 45.15 52.94 45.93 56.43 46.79 C 53.03 46.74 49.65 46.68 46.26 46.45 C 45.43 47.36 44.61 48.28 43.80 49.20 C 40.45 45.62 35.52 44.93 30.88 45.68 C 32.22 44.74 33.55 43.79 34.88 42.84 Z" />
</g>
<g id="#4379cbff">
<path fill="#4379cb" opacity="1.00" d=" M 198.57 44.33 C 206.98 42.36 215.54 44.88 224.00 45.12 L 224.00 45.88 C 218.94 46.25 213.73 47.90 208.65 46.66 C 205.27 45.97 201.90 45.23 198.57 44.33 Z" />
</g>
<g id="#4575cbff">
<path fill="#4575cb" opacity="1.00" d=" M 163.97 44.23 C 164.57 43.18 166.42 43.18 167.03 44.23 C 167.35 46.00 163.65 46.00 163.97 44.23 Z" />
</g>
<g id="#4279caff">
<path fill="#4279ca" opacity="1.00" d=" M 113.50 51.42 C 116.92 49.58 120.47 50.77 123.44 52.86 C 120.11 52.50 116.80 51.93 113.50 51.42 Z" />
</g>
<g id="#3686d0ff">
<path fill="#3686d0" opacity="1.00" d=" M 42.84 51.69 C 44.03 51.46 45.22 51.22 46.41 50.98 C 44.85 51.97 43.33 53.03 41.88 54.16 C 42.12 53.55 42.60 52.31 42.84 51.69 Z" />
</g>
<g id="#809db3ff">
<path fill="#809db3" opacity="1.00" d=" M 46.41 50.98 L 47.56 50.71 C 47.04 51.84 46.50 52.96 45.94 54.07 C 45.43 54.55 44.43 55.52 43.92 56.00 L 41.12 56.00 C 41.31 55.54 41.69 54.62 41.88 54.16 C 43.33 53.03 44.85 51.97 46.41 50.98 Z" />
</g>
<g id="#332e2aff">
<path fill="#332e2a" opacity="1.00" d=" M 45.94 54.07 C 48.63 52.06 51.81 50.86 55.09 50.16 L 55.46 51.42 C 52.83 52.91 50.26 54.49 47.64 56.00 L 43.92 56.00 C 44.43 55.52 45.43 54.55 45.94 54.07 Z" />
<path fill="#332e2a" opacity="1.00" d=" M 103.03 52.12 C 105.77 51.81 108.46 51.23 111.19 50.81 L 111.42 51.60 C 108.78 53.02 106.21 54.53 103.61 56.00 L 100.24 56.00 L 100.82 55.51 C 102.06 54.69 102.80 53.56 103.03 52.12 Z" />
<path fill="#332e2a" opacity="1.00" d=" M 157.86 53.15 C 160.96 52.25 164.01 51.23 167.17 50.53 L 167.45 51.47 C 164.83 52.94 162.27 54.49 159.67 56.00 L 156.63 56.00 C 156.94 55.29 157.55 53.86 157.86 53.15 Z" />
<path fill="#332e2a" opacity="1.00" d=" M 215.05 52.26 C 218.06 51.83 221.01 51.14 224.00 50.51 L 224.00 51.11 C 221.23 52.75 218.49 54.41 215.69 56.00 L 212.22 56.00 L 212.80 55.53 C 214.05 54.75 214.79 53.66 215.05 52.26 Z" />
</g>
<g id="#74a05cff">
<path fill="#74a05c" opacity="1.00" d=" M 47.64 56.00 C 50.26 54.49 52.83 52.91 55.46 51.42 C 55.87 52.94 56.27 54.47 56.67 56.00 L 47.64 56.00 Z" />
<path fill="#74a05c" opacity="1.00" d=" M 103.61 56.00 C 106.21 54.53 108.78 53.02 111.42 51.60 C 111.84 53.08 112.29 54.54 112.75 56.00 L 103.61 56.00 Z" />
<path fill="#74a05c" opacity="1.00" d=" M 159.67 56.00 C 162.27 54.49 164.83 52.94 167.45 51.47 C 167.87 52.98 168.28 54.49 168.67 56.00 L 159.67 56.00 Z" />
<path fill="#74a05c" opacity="1.00" d=" M 215.69 56.00 C 218.49 54.41 221.23 52.75 224.00 51.11 L 224.00 56.00 L 215.69 56.00 Z" />
</g>
<g id="#2e83d0ff">
<path fill="#2e83d0" opacity="1.00" d=" M 97.40 56.00 C 98.82 54.57 100.25 53.14 101.71 51.75 C 100.60 52.69 100.74 54.21 100.82 55.51 L 100.24 56.00 L 97.40 56.00 Z" />
<path fill="#2e83d0" opacity="1.00" d=" M 209.39 56.00 C 210.82 54.58 212.26 53.17 213.74 51.79 C 212.61 52.71 212.73 54.23 212.80 55.53 L 212.22 56.00 L 209.39 56.00 Z" />
</g>
<g id="#67839bff">
<path fill="#67839b" opacity="1.00" d=" M 101.71 51.75 C 102.04 51.84 102.70 52.03 103.03 52.12 C 102.80 53.56 102.06 54.69 100.82 55.51 C 100.74 54.21 100.60 52.69 101.71 51.75 Z" />
<path fill="#67839b" opacity="1.00" d=" M 213.74 51.79 C 214.06 51.90 214.72 52.14 215.05 52.26 C 214.79 53.66 214.05 54.75 212.80 55.53 C 212.73 54.23 212.61 52.71 213.74 51.79 Z" />
</g>
<g id="#2e86d2ff">
<path fill="#2e86d2" opacity="1.00" d=" M 154.22 56.00 C 154.59 54.27 156.22 53.35 157.86 53.15 C 157.55 53.86 156.94 55.29 156.63 56.00 L 154.22 56.00 Z" />
</g>
</svg>
