<?xml version="1.0" encoding="UTF-8" ?>
<!DOCTYPE svg PUBLIC "-//W3C//DTD SVG 1.1//EN" "http://www.w3.org/Graphics/SVG/1.1/DTD/svg11.dtd">
<svg width="224pt" height="56pt" viewBox="0 0 224 56" version="1.1" xmlns="http://www.w3.org/2000/svg">
<g id="#91bc69ff">
<path fill="#91bc69" opacity="1.00" d=" M 0.00 0.00 L 0.80 0.00 C 1.73 1.21 1.46 2.12 0.00 2.72 L 0.00 0.00 Z" />
</g>
<g id="#6c9959ff">
<path fill="#6c9959" opacity="1.00" d=" M 0.80 0.00 L 6.85 0.00 C 5.89 7.16 7.23 14.45 5.45 21.56 C 3.88 17.98 1.58 14.33 2.27 10.27 C 2.64 7.95 2.48 5.62 1.93 3.34 C 1.45 4.10 0.48 5.60 0.00 6.35 L 0.00 2.72 C 1.46 2.12 1.73 1.21 0.80 0.00 M 3.40 3.15 C 2.97 4.55 3.45 5.03 4.85 4.60 C 5.29 3.20 4.80 2.71 3.40 3.15 Z" />
</g>
<g id="#475943ff">
<path fill="#475943" opacity="1.00" d=" M 6.85 0.00 L 7.81 0.00 C 7.82 6.78 8.87 13.49 9.50 20.22 C 9.58 21.22 9.66 22.21 9.72 23.21 C 8.26 22.75 6.86 22.13 5.45 21.56 C 7.23 14.45 5.89 7.16 6.85 0.00 Z" />
<path fill="#475943" opacity="1.00" d=" M 62.83 0.00 L 63.80 0.00 C 63.83 6.78 64.86 13.48 65.51 20.22 C 65.59 21.21 65.66 22.20 65.73 23.20 C 64.29 22.75 62.90 22.13 61.50 21.56 C 63.17 14.44 61.93 7.16 62.83 0.00 Z" />
<path fill="#475943" opacity="1.00" d=" M 118.85 0.00 L 119.83 0.00 C 119.79 6.79 120.89 13.49 121.53 20.22 C 121.60 21.24 121.67 22.25 121.73 23.27 C 120.29 22.77 118.90 22.15 117.51 21.55 C 119.17 14.44 117.91 7.16 118.85 0.00 Z" />
<path fill="#475943" opacity="1.00" d=" M 174.83 0.00 L 175.80 0.00 C 175.83 6.78 176.86 13.48 177.51 20.22 C 177.59 21.21 177.66 22.20 177.73 23.19 C 176.27 22.75 174.86 22.13 173.45 21.56 C 175.22 14.46 173.91 7.16 174.83 0.00 Z" />
</g>
<g id="#322e2aff">
<path fill="#322e2a" opacity="1.00" d=" M 7.81 0.00 L 10.07 0.00 C 9.56 1.44 9.11 2.91 8.67 4.37 C 9.83 4.37 10.98 4.38 12.14 4.41 C 12.49 4.42 13.17 4.46 13.51 4.48 C 12.57 6.27 11.76 8.14 11.21 10.10 C 11.16 11.40 11.16 12.70 11.21 14.00 C 11.72 15.97 12.40 17.89 13.11 19.80 C 12.21 19.90 10.40 20.11 9.50 20.22 C 8.87 13.49 7.82 6.78 7.81 0.00 Z" />
<path fill="#322e2a" opacity="1.00" d=" M 63.80 0.00 L 65.65 0.00 C 65.42 1.45 65.19 2.89 64.96 4.34 C 65.99 4.40 67.02 4.48 68.05 4.56 C 68.39 4.60 69.06 4.66 69.39 4.69 C 68.35 7.03 67.67 9.52 67.12 12.02 C 67.13 12.59 67.16 13.75 67.17 14.33 C 67.76 16.17 68.42 17.99 69.09 19.81 C 68.19 19.91 66.40 20.12 65.51 20.22 C 64.86 13.48 63.83 6.78 63.80 0.00 Z" />
<path fill="#322e2a" opacity="1.00" d=" M 119.83 0.00 L 121.86 0.00 C 121.55 1.44 121.24 2.89 120.93 4.33 C 121.90 4.45 122.87 4.59 123.84 4.73 C 124.20 4.78 124.91 4.88 125.27 4.93 C 124.31 7.18 123.70 9.56 123.19 11.94 C 122.84 13.05 122.90 14.12 123.38 15.17 C 123.93 16.67 124.44 18.19 124.94 19.71 C 124.08 19.84 122.38 20.10 121.53 20.22 C 120.89 13.49 119.79 6.79 119.83 0.00 Z" />
<path fill="#322e2a" opacity="1.00" d=" M 175.80 0.00 L 177.65 0.00 C 177.41 1.45 177.18 2.89 176.96 4.34 C 177.99 4.40 179.02 4.48 180.05 4.56 C 180.39 4.60 181.06 4.66 181.39 4.69 C 180.35 7.03 179.67 9.52 179.12 12.02 C 179.13 12.59 179.16 13.75 179.17 14.33 C 179.76 16.17 180.42 17.99 181.09 19.81 C 180.19 19.91 178.40 20.12 177.51 20.22 C 176.86 13.48 175.83 6.78 175.80 0.00 Z" />
</g>
<g id="#565249ff">
<path fill="#565249" opacity="1.00" d=" M 10.07 0.00 L 13.29 0.00 L 12.94 0.80 C 12.35 1.94 12.09 3.14 12.14 4.41 C 10.98 4.38 9.83 4.37 8.67 4.37 C 9.11 2.91 9.56 1.44 10.07 0.00 Z" />
<path fill="#565249" opacity="1.00" d=" M 7.06 35.02 C 8.81 35.05 10.55 35.08 12.30 35.12 C 10.51 36.13 8.72 37.12 6.93 38.13 C 6.96 37.35 7.03 35.80 7.06 35.02 Z" />
<path fill="#565249" opacity="1.00" d=" M 63.06 35.02 C 64.81 35.05 66.55 35.08 68.30 35.12 C 66.51 36.13 64.72 37.12 62.93 38.13 C 62.96 37.35 63.03 35.80 63.06 35.02 Z" />
<path fill="#565249" opacity="1.00" d=" M 119.06 35.02 C 120.81 35.05 122.55 35.08 124.30 35.12 C 122.51 36.13 120.72 37.12 118.93 38.13 C 118.96 37.35 119.03 35.80 119.06 35.02 Z" />
<path fill="#565249" opacity="1.00" d=" M 175.06 35.02 C 176.80 35.05 178.55 35.08 180.30 35.12 C 178.51 36.13 176.72 37.12 174.93 38.13 C 174.96 37.35 175.03 35.80 175.06 35.02 Z" />
<path fill="#565249" opacity="1.00" d=" M 11.02 39.76 C 8.65 39.20 10.19 36.09 11.72 38.25 C 11.55 38.62 11.19 39.38 11.02 39.76 Z" />
<path fill="#565249" opacity="1.00" d=" M 67.33 39.49 C 64.73 39.89 65.92 36.24 67.82 38.00 C 67.70 38.37 67.45 39.12 67.33 39.49 Z" />
<path fill="#565249" opacity="1.00" d=" M 122.73 39.75 C 120.64 38.90 122.37 36.11 123.66 38.28 C 123.43 38.65 122.96 39.38 122.73 39.75 Z" />
<path fill="#565249" opacity="1.00" d=" M 179.33 39.49 C 176.73 39.89 177.92 36.24 179.82 38.00 C 179.70 38.37 179.45 39.12 179.33 39.49 Z" />
</g>
<g id="#268ed9ff">
<path fill="#268ed9" opacity="1.00" d=" M 13.29 0.00 L 15.73 0.00 C 15.73 1.03 15.14 1.90 14.68 2.78 C 14.25 2.28 13.38 1.29 12.94 0.80 L 13.29 0.00 Z" />
<path fill="#268ed9" opacity="1.00" d=" M 124.03 0.00 L 125.62 0.00 C 126.83 0.63 126.73 2.06 126.48 3.18 C 126.09 3.06 125.32 2.82 124.94 2.70 C 124.71 2.02 124.25 0.67 124.03 0.00 Z" />
<path fill="#268ed9" opacity="1.00" d=" M 165.17 4.17 C 166.79 3.65 167.35 4.20 166.83 5.83 C 165.20 6.35 164.65 5.80 165.17 4.17 Z" />
<path fill="#268ed9" opacity="1.00" d=" M 11.82 23.67 C 12.48 23.93 13.81 24.43 14.47 24.68 C 15.07 27.22 15.60 29.95 14.44 32.43 C 13.87 30.88 13.30 29.33 12.77 27.77 C 12.44 26.41 12.12 25.04 11.82 23.67 Z" />
<path fill="#268ed9" opacity="1.00" d=" M 67.86 23.78 C 68.55 24.04 69.94 24.54 70.63 24.80 C 70.33 27.30 70.07 29.81 69.63 32.29 C 69.03 29.46 68.40 26.63 67.86 23.78 Z" />
<path fill="#268ed9" opacity="1.00" d=" M 179.86 23.79 C 180.55 24.04 181.94 24.54 182.63 24.80 C 182.33 27.30 182.07 29.81 181.63 32.29 C 181.03 29.46 180.40 26.63 179.86 23.79 Z" />
</g>
<g id="#3c6bbfff">
<path fill="#3c6bbf" opacity="1.00" d=" M 15.73 0.00 L 25.57 0.00 C 26.63 0.94 27.65 1.90 28.65 2.90 C 24.83 4.50 20.68 4.33 16.64 4.25 C 19.06 5.12 21.40 6.62 24.02 6.74 C 27.67 5.51 30.87 2.91 34.97 3.11 C 38.28 3.96 41.17 6.01 44.50 6.80 C 48.34 7.06 52.20 6.50 56.03 6.18 C 56.06 7.75 56.07 9.31 56.07 10.88 C 51.96 10.66 47.85 10.51 43.74 10.32 C 43.94 11.42 44.14 12.51 44.36 13.60 C 42.81 14.55 41.28 15.52 39.75 16.50 C 45.24 15.71 50.58 14.19 56.06 13.33 C 56.04 16.86 56.02 20.40 56.04 23.93 C 55.99 32.30 56.30 40.68 55.98 49.04 C 52.86 49.18 49.75 49.39 46.63 49.31 C 45.85 49.21 45.08 49.10 44.31 48.99 C 44.75 47.91 45.15 46.82 45.55 45.72 C 47.84 46.41 50.13 47.11 52.48 47.58 C 50.25 46.21 48.12 44.58 45.60 43.80 C 42.81 43.58 40.07 44.72 37.36 45.27 C 38.87 45.29 40.39 45.29 41.90 45.30 C 42.24 46.72 42.60 48.13 43.05 49.51 C 38.37 50.16 33.70 50.98 29.02 51.67 C 24.17 51.16 19.31 50.69 14.42 50.70 L 13.41 50.65 C 13.92 48.80 14.53 46.96 14.81 45.05 L 14.74 44.45 C 14.57 42.87 14.22 39.72 14.05 38.14 C 14.84 37.52 15.62 36.89 16.41 36.26 C 20.86 36.04 24.91 38.20 28.18 41.04 C 25.65 42.95 22.92 44.57 20.13 46.08 C 21.10 47.56 22.09 49.03 23.07 50.51 C 26.84 44.99 29.73 38.56 35.48 34.72 C 35.56 33.90 35.65 33.07 35.74 32.25 C 32.30 33.94 28.77 36.11 24.72 35.37 C 22.18 34.92 20.74 32.59 19.24 30.74 C 23.15 28.59 26.80 26.01 29.85 22.74 C 32.72 19.48 37.38 20.51 41.19 20.66 C 39.05 19.53 36.92 18.39 34.81 17.21 C 31.06 19.49 26.51 19.57 22.26 19.15 C 24.32 20.83 26.25 22.66 27.99 24.66 C 24.65 26.08 21.22 27.27 17.77 28.39 C 18.11 29.86 18.50 31.32 18.82 32.79 C 18.15 33.51 17.48 34.24 16.80 34.97 C 15.90 34.38 15.00 33.78 14.10 33.19 L 14.44 32.43 C 15.60 29.95 15.07 27.22 14.47 24.68 L 14.77 24.05 C 15.38 22.72 15.99 21.39 16.60 20.06 C 16.01 18.58 15.44 17.10 14.88 15.61 C 16.13 11.61 15.50 7.41 14.71 3.39 L 14.68 2.78 C 15.14 1.90 15.73 1.03 15.73 0.00 M 42.32 20.94 C 42.84 25.38 45.25 28.90 48.91 31.39 C 48.38 34.57 45.21 36.34 43.39 38.78 C 46.05 38.71 48.70 38.54 51.36 38.37 C 51.06 34.74 52.53 31.39 54.04 28.17 C 53.00 28.73 51.97 29.30 50.93 29.86 C 48.66 28.04 44.42 26.88 45.03 23.26 C 47.16 21.53 49.79 20.61 52.26 19.47 C 48.95 19.95 45.63 20.44 42.32 20.94 M 29.18 27.21 C 27.39 27.63 28.30 30.45 29.99 29.96 C 31.80 29.58 30.86 26.70 29.18 27.21 Z" />
<path fill="#3c6bbf" opacity="1.00" d=" M 67.37 0.00 L 85.18 0.00 C 82.02 3.87 77.10 3.42 72.66 3.23 C 75.10 4.21 77.48 5.51 80.10 5.95 C 83.77 4.21 86.44 0.28 91.06 0.91 C 95.08 1.31 97.55 5.69 101.67 5.76 C 105.12 5.98 108.57 6.07 112.02 6.24 C 112.05 7.38 112.07 8.53 112.08 9.68 C 108.56 9.79 104.91 9.36 101.50 10.34 C 99.35 11.73 97.82 13.85 96.03 15.66 C 101.34 14.39 106.60 12.66 112.08 12.30 C 112.05 16.18 112.03 20.05 112.02 23.93 C 111.98 32.61 112.08 41.29 112.00 49.97 C 107.91 49.68 103.81 49.36 99.71 49.41 C 99.31 49.45 98.51 49.51 98.11 49.55 C 93.58 50.07 89.03 50.36 84.48 50.77 C 79.76 50.92 75.03 50.91 70.32 50.55 L 69.34 50.41 L 68.81 49.88 C 69.96 48.70 71.28 46.77 69.94 45.23 C 69.45 44.84 68.49 44.07 68.01 43.68 L 68.38 43.11 C 69.16 41.99 69.16 40.85 68.37 39.71 C 69.42 38.50 70.40 37.25 71.39 36.00 C 75.18 35.86 78.95 36.40 82.70 36.92 C 81.56 41.72 78.84 45.92 75.00 49.01 C 76.43 49.24 77.86 49.49 79.28 49.75 C 83.34 44.08 86.09 36.25 94.03 35.06 C 93.43 33.29 92.78 31.54 92.08 29.80 C 89.74 31.79 87.62 34.16 84.83 35.52 C 80.95 35.27 77.51 33.05 73.90 31.83 C 75.96 26.44 81.64 26.04 86.72 26.41 C 86.19 25.05 85.65 23.70 85.13 22.35 C 87.06 20.61 89.02 18.88 91.01 17.20 C 86.69 18.13 82.27 17.98 77.98 16.97 C 80.95 18.40 83.54 20.50 84.92 23.57 C 81.20 24.86 77.46 26.07 73.71 27.27 C 73.48 29.52 73.21 31.76 72.99 34.00 C 71.69 34.15 70.39 34.29 69.10 34.50 L 69.47 33.17 L 69.63 32.29 C 70.07 29.81 70.33 27.30 70.63 24.80 L 70.72 24.09 C 71.35 17.22 70.64 10.31 70.33 3.44 C 70.39 2.34 69.95 1.52 69.02 0.99 C 68.61 0.74 67.78 0.25 67.37 0.00 M 98.44 19.90 C 99.00 22.04 99.51 24.19 99.92 26.36 C 101.48 27.05 103.03 27.77 104.61 28.43 C 104.34 29.89 104.07 31.34 103.82 32.80 C 101.22 32.95 98.63 33.08 96.04 33.21 C 96.04 33.99 96.04 35.53 96.04 36.30 C 98.30 36.03 102.82 35.48 105.08 35.21 C 107.37 33.53 108.88 31.05 110.39 28.69 C 106.48 27.59 101.33 27.00 100.38 22.20 C 102.99 20.91 105.66 19.74 108.28 18.48 C 105.00 18.96 101.72 19.42 98.44 19.90 M 96.59 45.62 C 98.36 46.16 100.13 46.70 101.90 47.22 C 101.94 46.39 102.02 44.75 102.06 43.92 C 100.24 44.48 98.41 45.02 96.59 45.62 Z" />
</g>
<g id="#4079ccff">
<path fill="#4079cc" opacity="1.00" d=" M 25.57 0.00 L 30.52 0.00 C 38.58 3.03 47.37 5.97 55.95 3.23 C 55.97 3.97 56.01 5.44 56.03 6.18 C 52.20 6.50 48.34 7.06 44.50 6.80 C 41.17 6.01 38.28 3.96 34.97 3.11 C 30.87 2.91 27.67 5.51 24.02 6.74 C 21.40 6.62 19.06 5.12 16.64 4.25 C 20.68 4.33 24.83 4.50 28.65 2.90 C 27.65 1.90 26.63 0.94 25.57 0.00 Z" />
</g>
<g id="#3c6bbeff">
<path fill="#3c6bbe" opacity="1.00" d=" M 30.52 0.00 L 55.81 0.00 C 55.85 0.81 55.91 2.43 55.95 3.23 C 47.37 5.97 38.58 3.03 30.52 0.00 Z" />
</g>
<g id="#85af5fff">
<path fill="#85af5f" opacity="1.00" d=" M 55.81 0.00 L 56.25 0.00 C 57.94 1.53 59.59 3.11 61.24 4.69 C 60.42 4.50 59.60 4.31 58.78 4.13 C 57.68 10.12 57.82 16.31 61.50 21.56 C 61.71 21.95 62.14 22.74 62.35 23.14 C 60.40 23.43 58.63 24.27 57.00 25.34 C 56.68 24.87 56.36 24.40 56.04 23.93 C 56.02 20.40 56.04 16.86 56.06 13.33 C 56.06 12.71 56.07 11.49 56.07 10.88 C 56.07 9.31 56.06 7.75 56.03 6.18 C 56.01 5.44 55.97 3.97 55.95 3.23 C 55.91 2.43 55.85 0.81 55.81 0.00 M 57.28 20.53 C 56.42 21.76 58.53 23.04 59.33 21.85 C 60.15 20.65 58.07 19.39 57.28 20.53 Z" />
<path fill="#85af5f" opacity="1.00" d=" M 111.78 0.00 L 112.25 0.00 C 113.94 1.53 115.59 3.11 117.24 4.69 C 116.42 4.50 115.60 4.31 114.78 4.13 C 113.68 10.11 113.82 16.31 117.51 21.55 C 117.72 21.95 118.14 22.74 118.35 23.14 C 116.40 23.41 114.64 24.28 113.01 25.34 C 112.68 24.87 112.35 24.40 112.02 23.93 C 112.03 20.05 112.05 16.18 112.08 12.30 C 112.08 11.65 112.08 10.33 112.08 9.68 C 112.07 8.53 112.05 7.38 112.02 6.24 C 112.00 5.52 111.95 4.08 111.93 3.36 C 111.89 2.52 111.81 0.84 111.78 0.00 M 113.28 20.53 C 112.42 21.76 114.53 23.04 115.33 21.85 C 116.15 20.65 114.07 19.39 113.28 20.53 Z" />
<path fill="#85af5f" opacity="1.00" d=" M 167.64 0.00 L 168.18 0.00 C 169.90 1.53 171.57 3.10 173.25 4.68 C 172.42 4.49 171.60 4.31 170.78 4.13 C 169.68 10.11 169.85 16.29 173.45 21.56 C 173.72 22.10 174.28 23.17 174.56 23.71 C 173.32 23.49 172.08 23.29 170.83 23.09 C 170.46 24.07 170.08 25.05 169.71 26.03 C 169.17 25.38 168.63 24.72 168.10 24.07 C 168.11 19.86 168.09 15.66 168.05 11.46 C 168.04 10.84 168.02 9.61 168.01 8.99 C 167.91 5.99 167.75 3.00 167.64 0.00 M 169.28 20.53 C 168.42 21.76 170.53 23.04 171.33 21.85 C 172.15 20.65 170.07 19.39 169.28 20.53 Z" />
</g>
<g id="#6b9959ff">
<path fill="#6b9959" opacity="1.00" d=" M 56.25 0.00 L 62.83 0.00 C 61.93 7.16 63.17 14.44 61.50 21.56 C 57.82 16.31 57.68 10.12 58.78 4.13 C 59.60 4.31 60.42 4.50 61.24 4.69 C 59.59 3.11 57.94 1.53 56.25 0.00 Z" />
<path fill="#6b9959" opacity="1.00" d=" M 112.25 0.00 L 118.85 0.00 C 117.91 7.16 119.17 14.44 117.51 21.55 C 113.82 16.31 113.68 10.11 114.78 4.13 C 115.60 4.31 116.42 4.50 117.24 4.69 C 115.59 3.11 113.94 1.53 112.25 0.00 Z" />
<path fill="#6b9959" opacity="1.00" d=" M 168.18 0.00 L 174.83 0.00 C 173.91 7.16 175.22 14.46 173.45 21.56 C 169.85 16.29 169.68 10.11 170.78 4.13 C 171.60 4.31 172.42 4.49 173.25 4.68 C 171.57 3.10 169.90 1.53 168.18 0.00 Z" />
</g>
<g id="#565248fe">
<path fill="#565248" opacity="1.00" d=" M 65.65 0.00 L 67.37 0.00 C 67.78 0.25 68.61 0.74 69.02 0.99 C 68.27 2.07 67.95 3.26 68.05 4.56 C 67.02 4.48 65.99 4.40 64.96 4.34 C 65.19 2.89 65.42 1.45 65.65 0.00 Z" />
<path fill="#565248" opacity="1.00" d=" M 121.86 0.00 L 124.03 0.00 C 124.25 0.67 124.71 2.02 124.94 2.70 C 124.66 3.20 124.11 4.22 123.84 4.73 C 122.87 4.59 121.90 4.45 120.93 4.33 C 121.24 2.89 121.55 1.44 121.86 0.00 Z" />
<path fill="#565248" opacity="1.00" d=" M 177.65 0.00 L 179.37 0.00 C 179.78 0.25 180.61 0.74 181.02 0.99 C 180.27 2.07 179.94 3.26 180.05 4.56 C 179.02 4.48 177.99 4.40 176.96 4.34 C 177.18 2.89 177.41 1.45 177.65 0.00 Z" />
</g>
<g id="#4179cbff">
<path fill="#4179cb" opacity="1.00" d=" M 85.18 0.00 L 94.05 0.00 C 99.21 3.99 105.72 3.66 111.93 3.36 C 111.95 4.08 112.00 5.52 112.02 6.24 C 108.57 6.07 105.12 5.98 101.67 5.76 C 97.55 5.69 95.08 1.31 91.06 0.91 C 86.44 0.28 83.77 4.21 80.10 5.95 C 77.48 5.51 75.10 4.21 72.66 3.23 C 77.10 3.42 82.02 3.87 85.18 0.00 Z" />
<path fill="#4179cb" opacity="1.00" d=" M 197.18 0.00 L 206.04 0.00 C 211.23 3.96 217.77 3.65 224.00 3.54 L 224.00 6.50 C 220.58 6.00 217.12 5.93 213.67 5.72 C 209.54 5.71 207.07 1.30 203.06 0.91 C 198.43 0.28 195.77 4.21 192.10 5.95 C 189.48 5.51 187.10 4.21 184.66 3.23 C 189.10 3.42 194.02 3.87 197.18 0.00 Z" />
</g>
<g id="#3c6abefe">
<path fill="#3c6abe" opacity="1.00" d=" M 94.05 0.00 L 111.78 0.00 C 111.81 0.84 111.89 2.52 111.93 3.36 C 105.72 3.66 99.21 3.99 94.05 0.00 Z" />
<path fill="#3c6abe" opacity="1.00" d=" M 206.04 0.00 L 224.00 0.00 L 224.00 3.54 C 217.77 3.65 211.23 3.96 206.04 0.00 Z" />
</g>
<g id="#3c6cbfff">
<path fill="#3c6cbf" opacity="1.00" d=" M 125.62 0.00 L 138.18 0.00 C 137.68 0.58 136.66 1.74 136.16 2.31 C 133.65 2.20 131.15 2.11 128.65 2.16 C 131.28 3.29 133.87 4.73 136.74 5.15 C 138.49 3.72 139.69 1.76 141.06 0.00 L 167.64 0.00 C 167.75 3.00 167.91 5.99 168.01 8.99 C 162.61 9.71 156.03 8.48 152.60 13.82 C 157.73 12.91 162.85 11.88 168.05 11.46 C 168.09 15.66 168.11 19.86 168.10 24.07 C 168.10 24.64 168.08 25.80 168.08 26.38 C 164.64 26.33 156.16 27.26 157.17 21.44 C 159.25 19.58 161.82 18.41 164.23 17.05 C 160.84 17.80 157.45 18.53 154.05 19.22 C 155.79 23.80 158.91 27.60 161.77 31.52 C 160.84 31.13 159.91 30.75 158.97 30.37 C 158.95 31.38 158.92 32.39 158.90 33.41 C 156.07 33.05 153.24 32.73 150.42 32.39 L 150.14 31.79 C 149.96 31.42 149.60 30.68 149.42 30.31 C 143.12 33.68 135.71 34.60 129.18 31.30 C 129.29 32.29 129.40 33.28 129.51 34.27 C 132.59 35.55 136.60 35.46 138.80 38.20 C 138.46 41.18 137.36 43.99 136.57 46.86 C 139.57 43.61 141.34 39.46 144.21 36.12 C 149.62 33.29 155.99 34.93 161.68 35.78 C 161.80 33.50 161.93 31.21 162.07 28.93 C 164.07 28.77 166.06 28.53 168.03 28.14 C 167.98 33.34 168.11 38.54 168.02 43.74 C 162.54 44.05 157.05 44.31 151.61 45.05 C 148.22 44.93 144.94 45.96 142.01 47.60 C 144.42 47.25 147.01 47.03 149.47 46.61 C 150.37 46.78 151.27 46.94 152.18 47.09 C 150.75 48.32 149.31 49.52 147.86 50.72 C 145.03 50.79 142.23 50.74 139.40 50.73 C 137.64 48.92 136.02 46.78 133.70 45.65 C 132.52 46.02 131.47 46.72 130.39 47.31 C 133.36 48.68 136.38 49.89 139.42 51.09 C 134.97 50.99 130.53 50.88 126.09 50.57 L 124.68 50.45 C 125.76 48.46 127.05 46.58 128.40 44.76 C 127.07 44.64 125.74 44.52 124.42 44.40 C 124.98 41.01 126.35 37.86 128.21 35.01 C 127.14 34.64 126.07 34.26 125.00 33.89 L 125.22 33.00 L 125.35 32.46 C 128.34 23.12 126.28 13.32 126.45 3.76 L 126.48 3.18 C 126.73 2.06 126.83 0.63 125.62 0.00 M 165.17 4.17 C 164.65 5.80 165.20 6.35 166.83 5.83 C 167.35 4.20 166.79 3.65 165.17 4.17 M 138.69 9.43 C 141.10 10.59 143.53 11.73 146.03 12.71 C 145.39 14.04 144.72 15.36 144.03 16.67 C 147.07 16.50 150.13 16.52 153.17 16.73 C 149.01 15.70 146.17 12.76 144.78 8.77 C 142.75 9.03 140.71 9.20 138.69 9.43 Z" />
</g>
<g id="#4476cbff">
<path fill="#4476cb" opacity="1.00" d=" M 138.18 0.00 L 141.06 0.00 C 139.69 1.76 138.49 3.72 136.74 5.15 C 133.87 4.73 131.28 3.29 128.65 2.16 C 131.15 2.11 133.65 2.20 136.16 2.31 C 136.66 1.74 137.68 0.58 138.18 0.00 Z" />
</g>
<g id="#3c6cbeff">
<path fill="#3c6cbe" opacity="1.00" d=" M 179.37 0.00 L 197.18 0.00 C 194.02 3.87 189.10 3.42 184.66 3.23 C 187.10 4.21 189.48 5.51 192.10 5.95 C 195.77 4.21 198.43 0.28 203.06 0.91 C 207.07 1.30 209.54 5.71 213.67 5.72 C 217.12 5.93 220.58 6.00 224.00 6.50 L 224.00 9.44 C 220.51 9.65 216.88 9.41 213.49 10.33 C 211.36 11.65 209.87 13.74 208.12 15.49 C 213.67 15.45 218.42 11.59 224.00 12.05 L 224.00 44.86 C 222.25 44.82 218.76 44.74 217.01 44.71 C 217.24 48.51 221.04 48.10 224.00 48.56 L 224.00 49.82 C 214.95 49.74 205.87 49.71 196.87 50.75 C 192.02 50.84 187.18 50.84 182.34 50.63 L 181.38 50.51 L 180.79 49.92 C 181.92 48.72 183.27 46.79 181.94 45.24 C 181.46 44.85 180.49 44.07 180.01 43.68 L 180.38 43.11 C 181.16 41.99 181.16 40.85 180.37 39.71 C 181.42 38.50 182.40 37.25 183.39 36.00 C 187.18 35.86 190.95 36.40 194.70 36.92 C 193.56 41.93 190.47 46.05 186.81 49.52 C 190.19 49.95 192.90 48.24 194.77 45.46 C 196.47 45.23 198.18 45.02 199.89 44.80 C 198.90 44.15 197.93 43.48 196.96 42.81 C 197.50 40.77 198.01 38.73 198.57 36.70 C 201.15 36.33 203.74 35.96 206.33 35.58 C 205.61 33.34 205.01 31.06 204.24 28.83 C 200.95 31.11 198.48 36.84 193.87 35.38 C 191.12 34.47 188.59 32.99 185.96 31.82 C 187.93 26.37 193.68 26.09 198.72 26.40 C 198.18 25.05 197.65 23.70 197.13 22.35 C 199.06 20.61 201.02 18.88 203.01 17.20 C 198.69 18.13 194.26 17.98 189.98 16.97 C 192.95 18.40 195.54 20.50 196.92 23.57 C 193.20 24.86 189.45 26.07 185.71 27.27 C 185.48 29.52 185.21 31.76 184.99 34.00 C 183.69 34.15 182.39 34.29 181.10 34.50 L 181.47 33.17 L 181.63 32.29 C 182.07 29.81 182.33 27.30 182.63 24.80 L 182.72 24.09 C 183.35 17.22 182.64 10.31 182.33 3.44 C 182.39 2.34 181.95 1.52 181.02 0.99 C 180.61 0.74 179.78 0.25 179.37 0.00 M 210.44 19.90 C 210.99 22.04 211.51 24.19 211.92 26.36 C 213.48 27.05 215.03 27.77 216.61 28.43 C 216.34 29.88 216.07 31.34 215.82 32.79 C 213.19 32.97 210.57 33.13 207.94 33.30 C 208.01 33.85 208.15 34.94 208.22 35.49 C 210.44 36.47 212.73 37.50 214.92 38.59 C 217.50 35.36 220.06 32.10 222.38 28.68 C 218.48 27.59 213.33 27.00 212.38 22.20 C 214.99 20.91 217.66 19.74 220.28 18.48 C 217.00 18.96 213.72 19.42 210.44 19.90 M 212.65 42.24 C 213.57 44.08 214.47 45.91 215.46 47.70 C 215.43 45.39 215.41 43.08 215.34 40.76 C 214.67 41.13 213.32 41.87 212.65 42.24 M 209.53 45.12 C 209.68 45.44 209.96 46.09 210.10 46.41 C 212.70 47.02 210.95 42.94 209.53 45.12 Z" />
</g>
<g id="#a0b6cbff">
<path fill="#a0b6cb" opacity="1.00" d=" M 12.94 0.80 C 13.38 1.29 14.25 2.28 14.68 2.78 L 14.71 3.39 C 14.41 3.66 13.81 4.21 13.51 4.48 C 13.17 4.46 12.49 4.42 12.14 4.41 C 12.09 3.14 12.35 1.94 12.94 0.80 Z" />
<path fill="#a0b6cb" opacity="1.00" d=" M 69.02 0.99 C 69.95 1.52 70.39 2.34 70.33 3.44 C 70.09 3.75 69.63 4.38 69.39 4.69 C 69.06 4.66 68.39 4.60 68.05 4.56 C 67.95 3.26 68.27 2.07 69.02 0.99 Z" />
<path fill="#a0b6cb" opacity="1.00" d=" M 181.02 0.99 C 181.95 1.52 182.39 2.34 182.33 3.44 C 182.09 3.75 181.63 4.38 181.39 4.69 C 181.06 4.66 180.39 4.60 180.05 4.56 C 179.94 3.26 180.27 2.07 181.02 0.99 Z" />
</g>
<g id="#86a0b1ff">
<path fill="#86a0b1" opacity="1.00" d=" M 123.84 4.73 C 124.11 4.22 124.66 3.20 124.94 2.70 C 125.32 2.82 126.09 3.06 126.48 3.18 L 126.45 3.76 C 126.15 4.05 125.57 4.64 125.27 4.93 C 124.91 4.88 124.20 4.78 123.84 4.73 Z" />
<path fill="#86a0b1" opacity="1.00" d=" M 123.99 22.87 C 124.44 22.73 125.33 22.45 125.78 22.31 C 126.75 23.53 125.06 25.09 124.06 23.71 L 123.99 22.87 Z" />
<path fill="#86a0b1" opacity="1.00" d=" M 68.01 43.68 C 68.49 44.07 69.45 44.84 69.94 45.23 C 69.36 46.14 68.61 46.88 67.67 47.43 C 67.15 46.22 67.09 44.72 68.01 43.68 Z" />
<path fill="#86a0b1" opacity="1.00" d=" M 180.01 43.68 C 180.49 44.07 181.46 44.85 181.94 45.24 C 181.37 46.15 180.61 46.88 179.67 47.43 C 179.16 46.22 179.09 44.72 180.01 43.68 Z" />
</g>
<g id="#87b05cff">
<path fill="#87b05c" opacity="1.00" d=" M 3.40 3.15 C 4.80 2.71 5.29 3.20 4.85 4.60 C 3.45 5.03 2.97 4.55 3.40 3.15 Z" />
</g>
<g id="#86b05fff">
<path fill="#86b05f" opacity="1.00" d=" M 1.93 3.34 C 2.48 5.62 2.64 7.95 2.27 10.27 C 1.58 14.33 3.88 17.98 5.45 21.56 C 5.73 22.09 6.28 23.16 6.56 23.70 C 5.34 23.51 4.11 23.34 2.89 23.17 C 2.38 24.19 1.87 25.21 1.37 26.23 C 0.90 25.32 0.45 24.40 0.00 23.48 L 0.00 6.35 C 0.48 5.60 1.45 4.10 1.93 3.34 M 1.28 20.53 C 0.42 21.76 2.53 23.04 3.33 21.85 C 4.15 20.65 2.07 19.39 1.28 20.53 Z" />
</g>
<g id="#2f8bd3fe">
<path fill="#2f8bd3" opacity="1.00" d=" M 14.71 3.39 C 15.50 7.41 16.13 11.61 14.88 15.61 C 14.40 15.40 13.44 14.98 12.96 14.78 C 13.28 12.48 13.60 10.18 13.91 7.89 C 13.01 8.62 12.11 9.36 11.21 10.10 C 11.76 8.14 12.57 6.27 13.51 4.48 C 13.81 4.21 14.41 3.66 14.71 3.39 Z" />
</g>
<g id="#2c8ed7ff">
<path fill="#2c8ed7" opacity="1.00" d=" M 70.33 3.44 C 70.64 10.31 71.35 17.22 70.72 24.09 C 70.57 23.69 70.27 22.90 70.12 22.50 C 69.86 21.83 69.35 20.49 69.09 19.81 C 68.42 17.99 67.76 16.17 67.17 14.33 C 69.70 15.71 69.32 11.96 67.12 12.02 C 67.67 9.52 68.35 7.03 69.39 4.69 C 69.63 4.38 70.09 3.75 70.33 3.44 Z" />
<path fill="#2c8ed7" opacity="1.00" d=" M 182.33 3.44 C 182.64 10.31 183.35 17.22 182.72 24.09 C 182.57 23.69 182.27 22.90 182.12 22.50 C 181.86 21.83 181.35 20.49 181.09 19.81 C 180.42 17.99 179.76 16.17 179.17 14.33 C 181.70 15.71 181.32 11.96 179.12 12.02 C 179.67 9.52 180.35 7.03 181.39 4.69 C 181.63 4.38 182.09 3.75 182.33 3.44 Z" />
</g>
<g id="#2a8dd6fe">
<path fill="#2a8dd6" opacity="1.00" d=" M 126.45 3.76 C 126.28 13.32 128.34 23.12 125.35 32.46 C 125.25 31.85 125.06 30.65 124.97 30.05 C 124.61 27.94 124.29 25.83 124.06 23.71 C 125.06 25.09 126.75 23.53 125.78 22.31 C 125.49 21.44 125.22 20.57 124.94 19.71 C 124.44 18.19 123.93 16.67 123.38 15.17 C 125.42 14.97 124.87 12.28 123.19 11.94 C 123.70 9.56 124.31 7.18 125.27 4.93 C 125.57 4.64 126.15 4.05 126.45 3.76 Z" />
</g>
<g id="#a5bbd1ff">
<path fill="#a5bbd1" opacity="1.00" d=" M 11.21 10.10 C 12.11 9.36 13.01 8.62 13.91 7.89 C 13.60 10.18 13.28 12.48 12.96 14.78 C 12.52 14.58 11.65 14.20 11.21 14.00 C 11.16 12.70 11.16 11.40 11.21 10.10 Z" />
</g>
<g id="#4377caff">
<path fill="#4377ca" opacity="1.00" d=" M 138.69 9.43 C 140.71 9.20 142.75 9.03 144.78 8.77 C 146.17 12.76 149.01 15.70 153.17 16.73 C 150.13 16.52 147.07 16.50 144.03 16.67 C 144.72 15.36 145.39 14.04 146.03 12.71 C 143.53 11.73 141.10 10.59 138.69 9.43 Z" />
</g>
<g id="#3f7bccff">
<path fill="#3f7bcc" opacity="1.00" d=" M 152.60 13.82 C 156.03 8.48 162.61 9.71 168.01 8.99 C 168.02 9.61 168.04 10.84 168.05 11.46 C 162.85 11.88 157.73 12.91 152.60 13.82 Z" />
</g>
<g id="#427bcbff">
<path fill="#427bcb" opacity="1.00" d=" M 101.50 10.34 C 104.91 9.36 108.56 9.79 112.08 9.68 C 112.08 10.33 112.08 11.65 112.08 12.30 C 106.60 12.66 101.34 14.39 96.03 15.66 C 97.82 13.85 99.35 11.73 101.50 10.34 Z" />
<path fill="#427bcb" opacity="1.00" d=" M 213.49 10.33 C 216.88 9.41 220.51 9.65 224.00 9.44 L 224.00 12.05 C 218.42 11.59 213.67 15.45 208.12 15.49 C 209.87 13.74 211.36 11.65 213.49 10.33 Z" />
</g>
<g id="#437cccff">
<path fill="#437ccc" opacity="1.00" d=" M 43.74 10.32 C 47.85 10.51 51.96 10.66 56.07 10.88 C 56.07 11.49 56.06 12.71 56.06 13.33 C 50.58 14.19 45.24 15.71 39.75 16.50 C 41.28 15.52 42.81 14.55 44.36 13.60 C 44.14 12.51 43.94 11.42 43.74 10.32 Z" />
</g>
<g id="#8bb5d9ff">
<path fill="#8bb5d9" opacity="1.00" d=" M 67.17 14.33 C 67.16 13.75 67.13 12.59 67.12 12.02 C 69.32 11.96 69.70 15.71 67.17 14.33 Z" />
<path fill="#8bb5d9" opacity="1.00" d=" M 179.17 14.33 C 179.16 13.75 179.13 12.59 179.12 12.02 C 181.32 11.96 181.70 15.71 179.17 14.33 Z" />
</g>
<g id="#6e9bbbff">
<path fill="#6e9bbb" opacity="1.00" d=" M 123.38 15.17 C 122.90 14.12 122.84 13.05 123.19 11.94 C 124.87 12.28 125.42 14.97 123.38 15.17 Z" />
</g>
<g id="#2a8ed7ff">
<path fill="#2a8ed7" opacity="1.00" d=" M 11.21 14.00 C 11.65 14.20 12.52 14.58 12.96 14.78 C 13.44 14.98 14.40 15.40 14.88 15.61 C 15.44 17.10 16.01 18.58 16.60 20.06 C 15.99 21.39 15.38 22.72 14.77 24.05 C 14.62 23.65 14.32 22.87 14.17 22.47 C 13.90 21.80 13.37 20.47 13.11 19.80 C 12.40 17.89 11.72 15.97 11.21 14.00 Z" />
</g>
<g id="#427acbff">
<path fill="#427acb" opacity="1.00" d=" M 34.81 17.21 C 36.92 18.39 39.05 19.53 41.19 20.66 C 37.38 20.51 32.72 19.48 29.85 22.74 C 26.80 26.01 23.15 28.59 19.24 30.74 C 20.74 32.59 22.18 34.92 24.72 35.37 C 28.77 36.11 32.30 33.94 35.74 32.25 C 35.65 33.07 35.56 33.90 35.48 34.72 C 29.73 38.56 26.84 44.99 23.07 50.51 C 22.09 49.03 21.10 47.56 20.13 46.08 C 22.92 44.57 25.65 42.95 28.18 41.04 C 24.91 38.20 20.86 36.04 16.41 36.26 C 15.13 36.29 13.85 36.34 12.57 36.42 C 12.72 36.11 13.01 35.49 13.15 35.18 C 13.39 34.68 13.86 33.69 14.10 33.19 C 15.00 33.78 15.90 34.38 16.80 34.97 C 17.48 34.24 18.15 33.51 18.82 32.79 C 18.50 31.32 18.11 29.86 17.77 28.39 C 21.22 27.27 24.65 26.08 27.99 24.66 C 26.25 22.66 24.32 20.83 22.26 19.15 C 26.51 19.57 31.06 19.49 34.81 17.21 Z" />
</g>
<g id="#4279cbff">
<path fill="#4279cb" opacity="1.00" d=" M 77.98 16.97 C 82.27 17.98 86.69 18.13 91.01 17.20 C 89.02 18.88 87.06 20.61 85.13 22.35 C 85.65 23.70 86.19 25.05 86.72 26.41 C 81.64 26.04 75.96 26.44 73.90 31.83 C 77.51 33.05 80.95 35.27 84.83 35.52 C 87.62 34.16 89.74 31.79 92.08 29.80 C 92.78 31.54 93.43 33.29 94.03 35.06 C 86.09 36.25 83.34 44.08 79.28 49.75 C 77.86 49.49 76.43 49.24 75.00 49.01 C 78.84 45.92 81.56 41.72 82.70 36.92 C 78.95 36.40 75.18 35.86 71.39 36.00 C 70.67 36.02 69.24 36.04 68.52 36.06 C 68.67 35.67 68.95 34.89 69.10 34.50 C 70.39 34.29 71.69 34.15 72.99 34.00 C 73.21 31.76 73.48 29.52 73.71 27.27 C 77.46 26.07 81.20 24.86 84.92 23.57 C 83.54 20.50 80.95 18.40 77.98 16.97 Z" />
</g>
<g id="#4478caff">
<path fill="#4478ca" opacity="1.00" d=" M 154.05 19.22 C 157.45 18.53 160.84 17.80 164.23 17.05 C 161.82 18.41 159.25 19.58 157.17 21.44 C 156.16 27.26 164.64 26.33 168.08 26.38 C 168.07 26.82 168.05 27.70 168.03 28.14 C 166.06 28.53 164.07 28.77 162.07 28.93 C 161.93 31.21 161.80 33.50 161.68 35.78 C 155.99 34.93 149.62 33.29 144.21 36.12 C 141.34 39.46 139.57 43.61 136.57 46.86 C 137.36 43.99 138.46 41.18 138.80 38.20 C 136.60 35.46 132.59 35.55 129.51 34.27 C 129.40 33.28 129.29 32.29 129.18 31.30 C 135.71 34.60 143.12 33.68 149.42 30.31 C 149.60 30.68 149.96 31.42 150.14 31.79 C 149.26 31.15 146.96 31.37 147.69 32.91 C 148.67 33.59 149.58 33.42 150.42 32.39 C 153.24 32.73 156.07 33.05 158.90 33.41 C 158.92 32.39 158.95 31.38 158.97 30.37 C 159.91 30.75 160.84 31.13 161.77 31.52 C 158.91 27.60 155.79 23.80 154.05 19.22 Z" />
</g>
<g id="#4278caff">
<path fill="#4278ca" opacity="1.00" d=" M 189.98 16.97 C 194.26 17.98 198.69 18.13 203.01 17.20 C 201.02 18.88 199.06 20.61 197.13 22.35 C 197.65 23.70 198.18 25.05 198.72 26.40 C 193.68 26.09 187.93 26.37 185.96 31.82 C 188.59 32.99 191.12 34.47 193.87 35.38 C 198.48 36.84 200.95 31.11 204.24 28.83 C 205.01 31.06 205.61 33.34 206.33 35.58 C 203.74 35.96 201.15 36.33 198.57 36.70 C 198.01 38.73 197.50 40.77 196.96 42.81 C 197.93 43.48 198.90 44.15 199.89 44.80 C 198.18 45.02 196.47 45.23 194.77 45.46 C 192.90 48.24 190.19 49.95 186.81 49.52 C 190.47 46.05 193.56 41.93 194.70 36.92 C 190.95 36.40 187.18 35.86 183.39 36.00 C 182.67 36.02 181.24 36.04 180.52 36.06 C 180.67 35.67 180.95 34.89 181.10 34.50 C 182.39 34.29 183.69 34.15 184.99 34.00 C 185.21 31.76 185.48 29.52 185.71 27.27 C 189.45 26.07 193.20 24.86 196.92 23.57 C 195.54 20.50 192.95 18.40 189.98 16.97 Z" />
</g>
<g id="#4477c9ff">
<path fill="#4477c9" opacity="1.00" d=" M 98.44 19.90 C 101.72 19.42 105.00 18.96 108.28 18.48 C 105.66 19.74 102.99 20.91 100.38 22.20 C 101.33 27.00 106.48 27.59 110.39 28.69 C 108.88 31.05 107.37 33.53 105.08 35.21 C 102.82 35.48 98.30 36.03 96.04 36.30 C 96.04 35.53 96.04 33.99 96.04 33.21 C 98.63 33.08 101.22 32.95 103.82 32.80 C 104.07 31.34 104.34 29.89 104.61 28.43 C 103.03 27.77 101.48 27.05 99.92 26.36 C 99.51 24.19 99.00 22.04 98.44 19.90 Z" />
<path fill="#4477c9" opacity="1.00" d=" M 210.44 19.90 C 213.72 19.42 217.00 18.96 220.28 18.48 C 217.66 19.74 214.99 20.91 212.38 22.20 C 213.33 27.00 218.48 27.59 222.38 28.68 C 220.06 32.10 217.50 35.36 214.92 38.59 C 212.73 37.50 210.44 36.47 208.22 35.49 C 208.15 34.94 208.01 33.85 207.94 33.30 C 210.57 33.13 213.19 32.97 215.82 32.79 C 216.07 31.34 216.34 29.88 216.61 28.43 C 215.03 27.77 213.48 27.05 211.92 26.36 C 211.51 24.19 210.99 22.04 210.44 19.90 Z" />
</g>
<g id="#4578caff">
<path fill="#4578ca" opacity="1.00" d=" M 42.32 20.94 C 45.63 20.44 48.95 19.95 52.26 19.47 C 49.79 20.61 47.16 21.53 45.03 23.26 C 44.42 26.88 48.66 28.04 50.93 29.86 C 51.97 29.30 53.00 28.73 54.04 28.17 C 52.53 31.39 51.06 34.74 51.36 38.37 C 48.70 38.54 46.05 38.71 43.39 38.78 C 45.21 36.34 48.38 34.57 48.91 31.39 C 45.25 28.90 42.84 25.38 42.32 20.94 Z" />
</g>
<g id="#67965dff">
<path fill="#67965d" opacity="1.00" d=" M 1.28 20.53 C 2.07 19.39 4.15 20.65 3.33 21.85 C 2.53 23.04 0.42 21.76 1.28 20.53 Z" />
<path fill="#67965d" opacity="1.00" d=" M 57.28 20.53 C 58.07 19.39 60.15 20.65 59.33 21.85 C 58.53 23.04 56.42 21.76 57.28 20.53 Z" />
<path fill="#67965d" opacity="1.00" d=" M 113.28 20.53 C 114.07 19.39 116.15 20.65 115.33 21.85 C 114.53 23.04 112.42 21.76 113.28 20.53 Z" />
<path fill="#67965d" opacity="1.00" d=" M 169.28 20.53 C 170.07 19.39 172.15 20.65 171.33 21.85 C 170.53 23.04 168.42 21.76 169.28 20.53 Z" />
</g>
<g id="#6c5e4cff">
<path fill="#6c5e4c" opacity="1.00" d=" M 9.50 20.22 C 10.40 20.11 12.21 19.90 13.11 19.80 C 13.37 20.47 13.90 21.80 14.17 22.47 C 13.54 22.59 12.29 22.81 11.67 22.93 C 11.18 23.00 10.21 23.14 9.72 23.21 C 9.66 22.21 9.58 21.22 9.50 20.22 Z" />
<path fill="#6c5e4c" opacity="1.00" d=" M 65.51 20.22 C 66.40 20.12 68.19 19.91 69.09 19.81 C 69.35 20.49 69.86 21.83 70.12 22.50 C 69.52 22.63 68.32 22.88 67.72 23.01 C 67.22 23.05 66.23 23.15 65.73 23.20 C 65.66 22.20 65.59 21.21 65.51 20.22 Z" />
<path fill="#6c5e4c" opacity="1.00" d=" M 121.53 20.22 C 122.38 20.10 124.08 19.84 124.94 19.71 C 125.22 20.57 125.49 21.44 125.78 22.31 C 125.33 22.45 124.44 22.73 123.99 22.87 C 123.43 22.97 122.30 23.17 121.73 23.27 C 121.67 22.25 121.60 21.24 121.53 20.22 Z" />
<path fill="#6c5e4c" opacity="1.00" d=" M 177.51 20.22 C 178.40 20.12 180.19 19.91 181.09 19.81 C 181.35 20.49 181.86 21.83 182.12 22.50 C 181.52 22.63 180.32 22.88 179.72 23.01 C 179.22 23.05 178.23 23.15 177.73 23.19 C 177.66 22.20 177.59 21.21 177.51 20.22 Z" />
</g>
<g id="#332f2aff">
<path fill="#332f2a" opacity="1.00" d=" M 5.45 21.56 C 6.86 22.13 8.26 22.75 9.72 23.21 C 10.21 23.14 11.18 23.00 11.67 22.93 L 11.82 23.67 C 12.12 25.04 12.44 26.41 12.77 27.77 C 12.82 28.35 12.93 29.49 12.98 30.07 C 11.43 29.18 9.88 28.29 8.31 27.42 C 8.82 28.43 9.33 29.45 9.83 30.47 C 8.27 30.05 6.71 29.63 5.16 29.16 C 5.14 29.01 5.09 28.72 5.06 28.57 C 6.72 28.24 8.53 26.43 7.20 24.78 C 7.04 24.51 6.72 23.97 6.56 23.70 C 6.28 23.16 5.73 22.09 5.45 21.56 Z" />
<path fill="#332f2a" opacity="1.00" d=" M 117.51 21.55 C 118.90 22.15 120.29 22.77 121.73 23.27 C 122.30 23.17 123.43 22.97 123.99 22.87 L 124.06 23.71 C 124.29 25.83 124.61 27.94 124.97 30.05 C 123.41 29.16 121.86 28.27 120.29 27.40 C 120.81 28.43 121.32 29.45 121.84 30.47 C 120.27 30.05 118.71 29.63 117.16 29.16 C 117.14 29.01 117.09 28.71 117.06 28.57 C 118.71 28.21 120.53 26.44 119.25 24.75 C 119.03 24.35 118.58 23.54 118.35 23.14 C 118.14 22.74 117.72 21.95 117.51 21.55 Z" />
</g>
<g id="#383632ff">
<path fill="#383632" opacity="1.00" d=" M 61.50 21.56 C 62.90 22.13 64.29 22.75 65.73 23.20 C 66.23 23.15 67.22 23.05 67.72 23.01 L 67.86 23.78 C 68.40 26.63 69.03 29.46 69.63 32.29 C 68.07 30.45 66.40 28.71 64.66 27.04 C 65.01 28.19 65.35 29.35 65.70 30.51 C 64.19 30.07 62.67 29.63 61.17 29.15 C 61.14 29.00 61.09 28.71 61.07 28.56 C 62.71 28.20 64.53 26.44 63.25 24.75 C 63.03 24.35 62.57 23.54 62.35 23.14 C 62.14 22.74 61.71 21.95 61.50 21.56 Z" />
<path fill="#383632" opacity="1.00" d=" M 173.45 21.56 C 174.86 22.13 176.27 22.75 177.73 23.19 C 178.23 23.15 179.22 23.05 179.72 23.01 L 179.86 23.79 C 180.40 26.63 181.03 29.46 181.63 32.29 C 180.07 30.45 178.40 28.71 176.66 27.04 C 177.00 28.19 177.35 29.35 177.70 30.51 C 176.18 30.07 174.67 29.64 173.17 29.15 C 173.14 29.01 173.09 28.72 173.07 28.57 C 174.72 28.24 176.54 26.43 175.19 24.78 C 175.04 24.51 174.72 23.98 174.56 23.71 C 174.28 23.17 173.72 22.10 173.45 21.56 Z" />
</g>
<g id="#9db4c9ff">
<path fill="#9db4c9" opacity="1.00" d=" M 11.67 22.93 C 12.29 22.81 13.54 22.59 14.17 22.47 C 14.32 22.87 14.62 23.65 14.77 24.05 L 14.47 24.68 C 13.81 24.43 12.48 23.93 11.82 23.67 L 11.67 22.93 Z" />
<path fill="#9db4c9" opacity="1.00" d=" M 67.72 23.01 C 68.32 22.88 69.52 22.63 70.12 22.50 C 70.27 22.90 70.57 23.69 70.72 24.09 L 70.63 24.80 C 69.94 24.54 68.55 24.04 67.86 23.78 L 67.72 23.01 Z" />
<path fill="#9db4c9" opacity="1.00" d=" M 179.72 23.01 C 180.32 22.88 181.52 22.63 182.12 22.50 C 182.27 22.90 182.57 23.69 182.72 24.09 L 182.63 24.80 C 181.94 24.54 180.55 24.04 179.86 23.79 L 179.72 23.01 Z" />
</g>
<g id="#79a55dff">
<path fill="#79a55d" opacity="1.00" d=" M 2.89 23.17 C 4.11 23.34 5.34 23.51 6.56 23.70 C 6.72 23.97 7.04 24.51 7.20 24.78 C 5.84 25.50 4.50 26.91 5.06 28.57 C 5.09 28.72 5.14 29.01 5.16 29.16 C 5.35 30.38 5.51 31.61 5.68 32.84 L 5.84 33.92 C 4.97 33.25 4.11 32.56 3.24 31.89 C 4.03 38.04 5.74 44.11 5.74 50.35 C 5.74 50.65 5.73 51.23 5.73 51.53 C 5.72 51.82 5.70 52.39 5.70 52.67 C 5.67 53.80 5.79 54.91 6.08 56.00 L 0.00 56.00 L 0.00 23.48 C 0.45 24.40 0.90 25.32 1.37 26.23 C 1.87 25.21 2.38 24.19 2.89 23.17 Z" />
<path fill="#79a55d" opacity="1.00" d=" M 170.83 23.09 C 172.08 23.29 173.32 23.49 174.56 23.71 C 174.72 23.98 175.04 24.51 175.19 24.78 C 173.84 25.50 172.50 26.91 173.07 28.57 C 173.09 28.72 173.14 29.01 173.17 29.15 C 173.35 30.36 173.51 31.57 173.68 32.77 L 173.84 33.90 C 172.97 33.23 172.10 32.56 171.23 31.89 C 172.03 38.05 173.75 44.11 173.74 50.35 C 173.73 50.64 173.73 51.23 173.72 51.53 C 173.72 51.82 173.70 52.40 173.69 52.69 C 173.65 53.81 173.78 54.91 174.07 56.00 L 166.94 56.00 C 167.09 54.78 167.24 53.57 167.39 52.35 C 167.44 51.91 167.54 51.03 167.59 50.59 C 167.65 49.92 167.77 48.59 167.83 47.92 C 167.87 47.14 167.95 45.60 167.99 44.82 L 168.02 43.74 C 168.11 38.54 167.98 33.34 168.03 28.14 C 168.05 27.70 168.07 26.82 168.08 26.38 C 168.08 25.80 168.10 24.64 168.10 24.07 C 168.63 24.72 169.17 25.38 169.71 26.03 C 170.08 25.05 170.46 24.07 170.83 23.09 Z" />
</g>
<g id="#79a45eff">
<path fill="#79a45e" opacity="1.00" d=" M 57.00 25.34 C 58.63 24.27 60.40 23.43 62.35 23.14 C 62.57 23.54 63.03 24.35 63.25 24.75 C 61.88 25.48 60.51 26.88 61.07 28.56 C 61.09 28.71 61.14 29.00 61.17 29.15 C 61.35 30.36 61.51 31.56 61.68 32.77 L 61.84 33.90 C 60.97 33.23 60.11 32.56 59.23 31.89 C 60.03 38.05 61.75 44.11 61.74 50.35 C 61.73 50.64 61.73 51.23 61.72 51.53 C 61.72 51.82 61.70 52.40 61.69 52.69 C 61.65 53.81 61.78 54.91 62.07 56.00 L 49.81 56.00 C 49.84 55.26 49.91 53.77 49.94 53.03 C 51.38 52.74 54.25 52.17 55.68 51.88 L 55.80 51.03 C 55.85 50.53 55.93 49.54 55.98 49.04 C 56.30 40.68 55.99 32.30 56.04 23.93 C 56.36 24.40 56.68 24.87 57.00 25.34 Z" />
</g>
<g id="#79a55bff">
<path fill="#79a55b" opacity="1.00" d=" M 113.01 25.34 C 114.64 24.28 116.40 23.41 118.35 23.14 C 118.58 23.54 119.03 24.35 119.25 24.75 C 117.89 25.48 116.50 26.88 117.06 28.57 C 117.09 28.71 117.14 29.01 117.16 29.16 C 117.35 30.37 117.51 31.59 117.68 32.81 L 117.84 33.92 C 116.97 33.24 116.11 32.56 115.24 31.89 C 116.04 38.04 117.74 44.11 117.74 50.35 C 117.74 50.64 117.74 51.23 117.74 51.52 C 117.73 51.81 117.72 52.39 117.71 52.67 C 117.69 53.80 117.82 54.90 118.10 56.00 L 62.49 56.00 C 63.39 54.69 64.12 53.27 64.75 51.81 C 66.47 51.53 68.20 51.27 69.93 51.00 C 73.31 54.75 78.84 53.03 83.23 53.11 C 85.17 53.90 87.25 54.28 89.34 54.21 C 90.37 54.23 91.32 53.93 92.18 53.31 C 94.24 52.79 96.29 52.27 98.34 51.71 C 97.54 54.55 101.40 54.43 101.73 52.00 C 103.23 52.28 104.74 52.54 106.26 52.79 C 108.03 53.69 112.06 55.13 111.97 51.80 L 111.98 51.07 L 112.00 49.97 C 112.08 41.29 111.98 32.61 112.02 23.93 C 112.35 24.40 112.68 24.87 113.01 25.34 Z" />
</g>
<g id="#416845ff">
<path fill="#416845" opacity="1.00" d=" M 7.20 24.78 C 8.53 26.43 6.72 28.24 5.06 28.57 C 4.50 26.91 5.84 25.50 7.20 24.78 Z" />
<path fill="#416845" opacity="1.00" d=" M 63.25 24.75 C 64.53 26.44 62.71 28.20 61.07 28.56 C 60.51 26.88 61.88 25.48 63.25 24.75 Z" />
<path fill="#416845" opacity="1.00" d=" M 119.25 24.75 C 120.53 26.44 118.71 28.21 117.06 28.57 C 116.50 26.88 117.89 25.48 119.25 24.75 Z" />
<path fill="#416845" opacity="1.00" d=" M 175.19 24.78 C 176.54 26.43 174.72 28.24 173.07 28.57 C 172.50 26.91 173.84 25.50 175.19 24.78 Z" />
</g>
<g id="#4474c8ff">
<path fill="#4474c8" opacity="1.00" d=" M 29.18 27.21 C 30.86 26.70 31.80 29.58 29.99 29.96 C 28.30 30.45 27.39 27.63 29.18 27.21 Z" />
</g>
<g id="#525548ff">
<path fill="#525548" opacity="1.00" d=" M 8.31 27.42 C 9.88 28.29 11.43 29.18 12.98 30.07 C 13.04 31.01 13.08 31.95 13.11 32.89 C 10.64 32.80 8.16 32.80 5.68 32.84 C 5.51 31.61 5.35 30.38 5.16 29.16 C 6.71 29.63 8.27 30.05 9.83 30.47 C 9.33 29.45 8.82 28.43 8.31 27.42 Z" />
<path fill="#525548" opacity="1.00" d=" M 64.66 27.04 C 66.40 28.71 68.07 30.45 69.63 32.29 L 69.47 33.17 C 66.88 32.94 64.28 32.81 61.68 32.77 C 61.51 31.56 61.35 30.36 61.17 29.15 C 62.67 29.63 64.19 30.07 65.70 30.51 C 65.35 29.35 65.01 28.19 64.66 27.04 Z" />
<path fill="#525548" opacity="1.00" d=" M 120.29 27.40 C 121.86 28.27 123.41 29.16 124.97 30.05 C 125.06 30.65 125.25 31.85 125.35 32.46 L 125.22 33.00 C 122.71 32.86 120.20 32.80 117.68 32.81 C 117.51 31.59 117.35 30.37 117.16 29.16 C 118.71 29.63 120.27 30.05 121.84 30.47 C 121.32 29.45 120.81 28.43 120.29 27.40 Z" />
<path fill="#525548" opacity="1.00" d=" M 176.66 27.04 C 178.40 28.71 180.07 30.45 181.63 32.29 L 181.47 33.17 C 178.88 32.94 176.28 32.81 173.68 32.77 C 173.51 31.57 173.35 30.36 173.17 29.15 C 174.67 29.64 176.18 30.07 177.70 30.51 C 177.35 29.35 177.00 28.19 176.66 27.04 Z" />
</g>
<g id="#8aa3b5ff">
<path fill="#8aa3b5" opacity="1.00" d=" M 12.77 27.77 C 13.30 29.33 13.87 30.88 14.44 32.43 L 14.10 33.19 C 13.86 33.69 13.39 34.68 13.15 35.18 C 13.14 34.61 13.12 33.46 13.11 32.89 C 13.08 31.95 13.04 31.01 12.98 30.07 C 12.93 29.49 12.82 28.35 12.77 27.77 Z" />
</g>
<g id="#608fe4ff">
<path fill="#608fe4" opacity="1.00" d=" M 147.69 32.91 C 146.96 31.37 149.26 31.15 150.14 31.79 L 150.42 32.39 C 149.58 33.42 148.67 33.59 147.69 32.91 Z" />
</g>
<g id="#4e5e48ff">
<path fill="#4e5e48" opacity="1.00" d=" M 3.24 31.89 C 4.11 32.56 4.97 33.25 5.84 33.92 C 6.51 39.09 7.50 44.21 8.61 49.30 C 7.63 50.02 6.65 50.74 5.73 51.53 C 5.73 51.23 5.74 50.65 5.74 50.35 C 5.74 44.11 4.03 38.04 3.24 31.89 Z" />
<path fill="#4e5e48" opacity="1.00" d=" M 59.23 31.89 C 60.11 32.56 60.97 33.23 61.84 33.90 C 62.51 39.08 63.50 44.20 64.61 49.30 C 63.63 50.02 62.65 50.74 61.72 51.53 C 61.73 51.23 61.73 50.64 61.74 50.35 C 61.75 44.11 60.03 38.05 59.23 31.89 Z" />
<path fill="#4e5e48" opacity="1.00" d=" M 115.24 31.89 C 116.11 32.56 116.97 33.24 117.84 33.92 C 118.51 39.09 119.50 44.21 120.61 49.30 C 119.63 50.02 118.66 50.74 117.74 51.52 C 117.74 51.23 117.74 50.64 117.74 50.35 C 117.74 44.11 116.04 38.04 115.24 31.89 Z" />
<path fill="#4e5e48" opacity="1.00" d=" M 171.23 31.89 C 172.10 32.56 172.97 33.23 173.84 33.90 C 174.51 39.08 175.50 44.20 176.61 49.30 C 175.63 50.02 174.65 50.74 173.72 51.53 C 173.73 51.23 173.73 50.64 173.74 50.35 C 173.75 44.11 172.03 38.05 171.23 31.89 Z" />
</g>
<g id="#332e2aff">
<path fill="#332e2a" opacity="1.00" d=" M 5.68 32.84 C 8.16 32.80 10.64 32.80 13.11 32.89 C 13.12 33.46 13.14 34.61 13.15 35.18 C 13.01 35.49 12.72 36.11 12.57 36.42 C 12.36 36.88 11.94 37.79 11.72 38.25 C 10.19 36.09 8.65 39.20 11.02 39.76 L 11.16 40.42 C 11.40 41.58 11.63 42.75 11.82 43.93 C 11.76 45.06 11.47 46.27 11.98 47.34 C 12.42 48.46 12.91 49.56 13.41 50.65 L 13.76 51.34 C 12.08 51.47 10.40 51.61 8.73 51.79 C 7.66 51.88 6.65 52.17 5.70 52.67 C 5.70 52.39 5.72 51.82 5.73 51.53 C 6.65 50.74 7.63 50.02 8.61 49.30 C 7.50 44.21 6.51 39.09 5.84 33.92 L 5.68 32.84 M 7.06 35.02 C 7.03 35.80 6.96 37.35 6.93 38.13 C 8.72 37.12 10.51 36.13 12.30 35.12 C 10.55 35.08 8.81 35.05 7.06 35.02 Z" />
<path fill="#332e2a" opacity="1.00" d=" M 61.68 32.77 C 64.28 32.81 66.88 32.94 69.47 33.17 L 69.10 34.50 C 68.95 34.89 68.67 35.67 68.52 36.06 C 68.35 36.54 68.00 37.51 67.82 38.00 C 65.92 36.24 64.73 39.89 67.33 39.49 L 67.05 40.40 C 66.62 41.68 67.06 42.58 68.38 43.11 L 68.01 43.68 C 67.09 44.72 67.15 46.22 67.67 47.43 C 67.84 48.36 68.22 49.17 68.81 49.88 L 69.34 50.41 L 69.93 51.00 C 68.20 51.27 66.47 51.53 64.75 51.81 C 63.68 51.94 62.66 52.23 61.69 52.69 C 61.70 52.40 61.72 51.82 61.72 51.53 C 62.65 50.74 63.63 50.02 64.61 49.30 C 63.50 44.20 62.51 39.08 61.84 33.90 L 61.68 32.77 M 63.06 35.02 C 63.03 35.80 62.96 37.35 62.93 38.13 C 64.72 37.12 66.51 36.13 68.30 35.12 C 66.55 35.08 64.81 35.05 63.06 35.02 Z" />
<path fill="#332e2a" opacity="1.00" d=" M 117.68 32.81 C 120.20 32.80 122.71 32.86 125.22 33.00 L 125.00 33.89 C 124.60 35.36 124.15 36.83 123.66 38.28 C 122.37 36.11 120.64 38.90 122.73 39.75 C 123.57 43.28 123.77 46.93 124.68 50.45 L 125.09 51.59 C 123.63 51.54 122.17 51.62 120.72 51.72 C 119.65 51.80 118.64 52.12 117.71 52.67 C 117.72 52.39 117.73 51.81 117.74 51.52 C 118.66 50.74 119.63 50.02 120.61 49.30 C 119.50 44.21 118.51 39.09 117.84 33.92 L 117.68 32.81 M 119.06 35.02 C 119.03 35.80 118.96 37.35 118.93 38.13 C 120.72 37.12 122.51 36.13 124.30 35.12 C 122.55 35.08 120.81 35.05 119.06 35.02 Z" />
<path fill="#332e2a" opacity="1.00" d=" M 173.68 32.77 C 176.28 32.81 178.88 32.94 181.47 33.17 L 181.10 34.50 C 180.95 34.89 180.67 35.67 180.52 36.06 C 180.35 36.54 180.00 37.51 179.82 38.00 C 177.92 36.24 176.73 39.89 179.33 39.49 L 179.05 40.40 C 178.62 41.68 179.06 42.58 180.38 43.11 L 180.01 43.68 C 179.09 44.72 179.16 46.22 179.67 47.43 C 179.84 48.37 180.21 49.20 180.79 49.92 L 181.38 50.51 L 181.92 51.05 C 180.19 51.30 178.47 51.54 176.75 51.81 C 175.67 51.93 174.65 52.23 173.69 52.69 C 173.70 52.40 173.72 51.82 173.72 51.53 C 174.65 50.74 175.63 50.02 176.61 49.30 C 175.50 44.20 174.51 39.08 173.84 33.90 L 173.68 32.77 M 175.06 35.02 C 175.03 35.80 174.96 37.35 174.93 38.13 C 176.72 37.12 178.51 36.13 180.30 35.12 C 178.55 35.08 176.80 35.05 175.06 35.02 Z" />
</g>
<g id="#268dd9ff">
<path fill="#268dd9" opacity="1.00" d=" M 125.00 33.89 C 126.07 34.26 127.14 34.64 128.21 35.01 C 126.35 37.86 124.98 41.01 124.42 44.40 C 125.74 44.52 127.07 44.64 128.40 44.76 C 127.05 46.58 125.76 48.46 124.68 50.45 C 123.77 46.93 123.57 43.28 122.73 39.75 C 122.96 39.38 123.43 38.65 123.66 38.28 C 124.15 36.83 124.60 35.36 125.00 33.89 Z" />
</g>
<g id="#7b9eb5ff">
<path fill="#7b9eb5" opacity="1.00" d=" M 12.57 36.42 C 13.85 36.34 15.13 36.29 16.41 36.26 C 15.62 36.89 14.84 37.52 14.05 38.14 C 13.09 38.90 12.12 39.66 11.16 40.42 L 11.02 39.76 C 11.19 39.38 11.55 38.62 11.72 38.25 C 11.94 37.79 12.36 36.88 12.57 36.42 Z" />
</g>
<g id="#7a9db6ff">
<path fill="#7a9db6" opacity="1.00" d=" M 68.52 36.06 C 69.24 36.04 70.67 36.02 71.39 36.00 C 70.40 37.25 69.42 38.50 68.37 39.71 C 68.04 39.88 67.38 40.23 67.05 40.40 L 67.33 39.49 C 67.45 39.12 67.70 38.37 67.82 38.00 C 68.00 37.51 68.35 36.54 68.52 36.06 Z" />
<path fill="#7a9db6" opacity="1.00" d=" M 180.52 36.06 C 181.24 36.04 182.67 36.02 183.39 36.00 C 182.40 37.25 181.42 38.50 180.37 39.71 C 180.04 39.88 179.38 40.23 179.05 40.40 L 179.33 39.49 C 179.45 39.12 179.70 38.37 179.82 38.00 C 180.00 37.51 180.35 36.54 180.52 36.06 Z" />
</g>
<g id="#3490d2ff">
<path fill="#3490d2" opacity="1.00" d=" M 11.16 40.42 C 12.12 39.66 13.09 38.90 14.05 38.14 C 14.22 39.72 14.57 42.87 14.74 44.45 C 14.01 44.32 12.55 44.06 11.82 43.93 C 11.63 42.75 11.40 41.58 11.16 40.42 Z" />
</g>
<g id="#4c95c9ff">
<path fill="#4c95c9" opacity="1.00" d=" M 67.05 40.40 C 67.38 40.23 68.04 39.88 68.37 39.71 C 69.16 40.85 69.16 41.99 68.38 43.11 C 67.06 42.58 66.62 41.68 67.05 40.40 Z" />
<path fill="#4c95c9" opacity="1.00" d=" M 179.05 40.40 C 179.38 40.23 180.04 39.88 180.37 39.71 C 181.16 40.85 181.16 41.99 180.38 43.11 C 179.06 42.58 178.62 41.68 179.05 40.40 Z" />
</g>
<g id="#4c80ccff">
<path fill="#4c80cc" opacity="1.00" d=" M 212.65 42.24 C 213.32 41.87 214.67 41.13 215.34 40.76 C 215.41 43.08 215.43 45.39 215.46 47.70 C 214.47 45.91 213.57 44.08 212.65 42.24 Z" />
</g>
<g id="#4779cfff">
<path fill="#4779cf" opacity="1.00" d=" M 37.36 45.27 C 40.07 44.72 42.81 43.58 45.60 43.80 C 48.12 44.58 50.25 46.21 52.48 47.58 C 50.13 47.11 47.84 46.41 45.55 45.72 C 45.15 46.82 44.75 47.91 44.31 48.99 L 43.89 49.40 L 43.05 49.51 C 42.60 48.13 42.24 46.72 41.90 45.30 C 40.39 45.29 38.87 45.29 37.36 45.27 Z" />
</g>
<g id="#86a0b0fe">
<path fill="#86a0b0" opacity="1.00" d=" M 11.82 43.93 C 12.55 44.06 14.01 44.32 14.74 44.45 L 14.81 45.05 C 14.03 46.00 13.04 46.74 11.98 47.34 C 11.47 46.27 11.76 45.06 11.82 43.93 Z" />
</g>
<g id="#5083d1ff">
<path fill="#5083d1" opacity="1.00" d=" M 96.59 45.62 C 98.41 45.02 100.24 44.48 102.06 43.92 C 102.02 44.75 101.94 46.39 101.90 47.22 C 100.13 46.70 98.36 46.16 96.59 45.62 Z" />
</g>
<g id="#3868b3ff">
<path fill="#3868b3" opacity="1.00" d=" M 142.01 47.60 C 144.94 45.96 148.22 44.93 151.61 45.05 C 155.20 46.07 158.95 46.16 162.62 45.57 C 162.41 46.60 162.20 47.63 161.99 48.66 C 163.93 48.40 165.88 48.16 167.83 47.92 C 167.77 48.59 167.65 49.92 167.59 50.59 C 166.91 50.72 165.55 50.98 164.87 51.11 C 164.33 49.72 162.52 49.16 161.27 49.93 L 160.88 49.27 C 160.57 47.78 158.78 46.23 157.49 47.75 C 156.60 48.43 155.69 49.09 154.78 49.74 C 152.49 50.18 150.18 50.52 147.86 50.72 C 149.31 49.52 150.75 48.32 152.18 47.09 C 151.27 46.94 150.37 46.78 149.47 46.61 C 147.01 47.03 144.42 47.25 142.01 47.60 Z" />
</g>
<g id="#457dceff">
<path fill="#457dce" opacity="1.00" d=" M 151.61 45.05 C 157.05 44.31 162.54 44.05 168.02 43.74 L 167.99 44.82 C 166.20 45.06 164.41 45.32 162.62 45.57 C 158.95 46.16 155.20 46.07 151.61 45.05 Z" />
</g>
<g id="#318cd2ff">
<path fill="#318cd2" opacity="1.00" d=" M 14.81 45.05 C 14.53 46.96 13.92 48.80 13.41 50.65 C 12.91 49.56 12.42 48.46 11.98 47.34 C 13.04 46.74 14.03 46.00 14.81 45.05 Z" />
</g>
<g id="#2c84d1fe">
<path fill="#2c84d1" opacity="1.00" d=" M 69.94 45.23 C 71.28 46.77 69.96 48.70 68.81 49.88 C 68.22 49.17 67.84 48.36 67.67 47.43 C 68.61 46.88 69.36 46.14 69.94 45.23 Z" />
<path fill="#2c84d1" opacity="1.00" d=" M 181.94 45.24 C 183.27 46.79 181.92 48.72 180.79 49.92 C 180.21 49.20 179.84 48.37 179.67 47.43 C 180.61 46.88 181.37 46.15 181.94 45.24 Z" />
</g>
<g id="#417fcaff">
<path fill="#417fca" opacity="1.00" d=" M 130.39 47.31 C 131.47 46.72 132.52 46.02 133.70 45.65 C 136.02 46.78 137.64 48.92 139.40 50.73 C 139.75 51.12 140.44 51.91 140.78 52.30 C 135.88 51.72 130.99 51.11 126.09 50.57 C 130.53 50.88 134.97 50.99 139.42 51.09 C 136.38 49.89 133.36 48.68 130.39 47.31 Z" />
</g>
<g id="#3b6abdff">
<path fill="#3b6abd" opacity="1.00" d=" M 162.62 45.57 C 164.41 45.32 166.20 45.06 167.99 44.82 C 167.95 45.60 167.87 47.14 167.83 47.92 C 165.88 48.16 163.93 48.40 161.99 48.66 C 162.20 47.63 162.41 46.60 162.62 45.57 Z" />
</g>
<g id="#5790d3ff">
<path fill="#5790d3" opacity="1.00" d=" M 209.53 45.12 C 210.95 42.94 212.70 47.02 210.10 46.41 C 209.96 46.09 209.68 45.44 209.53 45.12 Z" />
</g>
<g id="#4271cdff">
<path fill="#4271cd" opacity="1.00" d=" M 217.01 44.71 C 218.76 44.74 222.25 44.82 224.00 44.86 L 224.00 48.56 C 221.04 48.10 217.24 48.51 217.01 44.71 Z" />
</g>
<g id="#4a77bdff">
<path fill="#4a77bd" opacity="1.00" d=" M 157.49 47.75 C 158.78 46.23 160.57 47.78 160.88 49.27 C 159.51 49.22 158.38 48.71 157.49 47.75 Z" />
</g>
<g id="#5676acff">
<path fill="#5676ac" opacity="1.00" d=" M 46.63 49.31 C 49.75 49.39 52.86 49.18 55.98 49.04 C 55.93 49.54 55.85 50.53 55.80 51.03 C 52.74 50.47 49.69 49.86 46.63 49.31 Z" />
</g>
<g id="#3f658eff">
<path fill="#3f658e" opacity="1.00" d=" M 154.78 49.74 C 155.69 49.09 156.60 48.43 157.49 47.75 C 158.38 48.71 159.51 49.22 160.88 49.27 L 161.27 49.93 C 159.24 50.58 157.21 51.21 155.19 51.81 C 154.61 51.65 153.45 51.32 152.88 51.16 C 153.35 50.80 154.31 50.10 154.78 49.74 Z" />
</g>
<g id="#4f7ca9ff">
<path fill="#4f7ca9" opacity="1.00" d=" M 29.02 51.67 C 33.70 50.98 38.37 50.16 43.05 49.51 L 43.89 49.40 C 43.26 50.01 42.63 50.61 41.99 51.22 C 37.82 51.68 33.65 52.11 29.47 52.55 L 27.68 51.92 L 29.02 51.67 Z" />
</g>
<g id="#31565cff">
<path fill="#31565c" opacity="1.00" d=" M 43.89 49.40 L 44.31 48.99 C 45.08 49.10 45.85 49.21 46.63 49.31 C 49.69 49.86 52.74 50.47 55.80 51.03 L 55.68 51.88 C 54.25 52.17 51.38 52.74 49.94 53.03 C 49.42 52.92 48.37 52.70 47.85 52.59 C 47.25 52.50 46.06 52.34 45.47 52.25 C 44.12 52.08 42.78 51.92 41.44 51.74 L 41.99 51.22 C 42.63 50.61 43.26 50.01 43.89 49.40 Z" />
</g>
<g id="#5278a4ff">
<path fill="#5278a4" opacity="1.00" d=" M 84.48 50.77 C 89.03 50.36 93.58 50.07 98.11 49.55 C 98.00 49.99 97.77 50.88 97.66 51.33 C 95.28 51.69 92.91 52.11 90.53 52.40 L 89.55 52.48 C 88.14 52.10 86.67 51.93 85.21 51.99 C 84.80 51.86 83.98 51.59 83.57 51.46 L 84.48 50.77 Z" />
</g>
<g id="#305f7aff">
<path fill="#305f7a" opacity="1.00" d=" M 98.11 49.55 C 98.51 49.51 99.31 49.45 99.71 49.41 L 100.22 49.53 C 99.94 50.02 99.38 51.01 99.10 51.50 L 98.34 51.71 L 97.66 51.33 C 97.77 50.88 98.00 49.99 98.11 49.55 Z" />
</g>
<g id="#4971abff">
<path fill="#4971ab" opacity="1.00" d=" M 99.71 49.41 C 103.81 49.36 107.91 49.68 112.00 49.97 L 111.98 51.07 C 108.05 50.65 104.10 50.33 100.22 49.53 L 99.71 49.41 Z" />
</g>
<g id="#5a7bacff">
<path fill="#5a7bac" opacity="1.00" d=" M 147.86 50.72 C 150.18 50.52 152.49 50.18 154.78 49.74 C 154.31 50.10 153.35 50.80 152.88 51.16 C 149.13 51.53 145.40 52.04 141.66 52.42 L 140.78 52.30 C 140.44 51.91 139.75 51.12 139.40 50.73 C 142.23 50.74 145.03 50.79 147.86 50.72 Z" />
</g>
<g id="#486f99ff">
<path fill="#486f99" opacity="1.00" d=" M 196.87 50.75 C 205.87 49.71 214.95 49.74 224.00 49.82 L 224.00 50.68 C 219.55 50.73 215.09 50.91 210.68 51.49 C 210.28 51.56 209.48 51.71 209.08 51.78 C 208.74 51.82 208.08 51.90 207.75 51.95 C 207.29 52.04 206.39 52.24 205.93 52.33 C 205.29 52.29 204.01 52.21 203.37 52.17 L 202.36 52.14 C 199.96 52.03 197.56 51.81 195.17 51.64 C 195.59 51.41 196.44 50.97 196.87 50.75 Z" />
</g>
<g id="#3a4d39ff">
<path fill="#3a4d39" opacity="1.00" d=" M 13.41 50.65 L 14.42 50.70 C 18.85 51.05 23.26 51.54 27.68 51.92 L 29.47 52.55 L 28.37 52.72 C 28.05 52.77 27.41 52.86 27.09 52.90 C 22.67 53.46 17.56 54.29 13.76 51.34 L 13.41 50.65 Z" />
</g>
<g id="#4081cbff">
<path fill="#4081cb" opacity="1.00" d=" M 14.42 50.70 C 19.31 50.69 24.17 51.16 29.02 51.67 L 27.68 51.92 C 23.26 51.54 18.85 51.05 14.42 50.70 Z" />
<path fill="#4081cb" opacity="1.00" d=" M 70.32 50.55 C 75.03 50.91 79.76 50.92 84.48 50.77 L 83.57 51.46 C 83.32 51.78 82.81 52.41 82.56 52.73 C 78.55 51.65 74.41 51.19 70.32 50.55 Z" />
<path fill="#4081cb" opacity="1.00" d=" M 182.34 50.63 C 187.18 50.84 192.02 50.84 196.87 50.75 C 196.44 50.97 195.59 51.41 195.17 51.64 C 190.88 51.42 186.59 51.19 182.34 50.63 Z" />
</g>
<g id="#3a4a37ff">
<path fill="#3a4a37" opacity="1.00" d=" M 69.34 50.41 L 70.32 50.55 C 74.41 51.19 78.55 51.65 82.56 52.73 L 83.23 53.11 C 78.84 53.03 73.31 54.75 69.93 51.00 L 69.34 50.41 Z" />
</g>
<g id="#2b5a55ff">
<path fill="#2b5a55" opacity="1.00" d=" M 99.10 51.50 C 99.38 51.01 99.94 50.02 100.22 49.53 C 104.10 50.33 108.05 50.65 111.98 51.07 L 111.97 51.80 C 110.54 52.05 107.68 52.54 106.26 52.79 C 104.74 52.54 103.23 52.28 101.73 52.00 C 101.07 51.87 99.75 51.62 99.10 51.50 Z" />
</g>
<g id="#3b4c39ff">
<path fill="#3b4c39" opacity="1.00" d=" M 124.68 50.45 L 126.09 50.57 C 130.99 51.11 135.88 51.72 140.78 52.30 L 141.66 52.42 L 140.58 52.55 C 135.44 53.67 129.93 53.92 125.09 51.59 L 124.68 50.45 Z" />
</g>
<g id="#335858ff">
<path fill="#335858" opacity="1.00" d=" M 155.19 51.81 C 157.21 51.21 159.24 50.58 161.27 49.93 C 161.87 51.30 163.59 51.54 164.87 51.11 C 165.55 50.98 166.91 50.72 167.59 50.59 C 167.54 51.03 167.44 51.91 167.39 52.35 C 163.32 52.25 159.25 52.04 155.19 51.81 Z" />
</g>
<g id="#648aadff">
<path fill="#648aad" opacity="1.00" d=" M 161.27 49.93 C 162.52 49.16 164.33 49.72 164.87 51.11 C 163.59 51.54 161.87 51.30 161.27 49.93 Z" />
</g>
<g id="#344b37ff">
<path fill="#344b37" opacity="1.00" d=" M 181.38 50.51 L 182.34 50.63 C 186.59 51.19 190.88 51.42 195.17 51.64 C 197.56 51.81 199.96 52.03 202.36 52.14 C 201.94 52.40 201.10 52.91 200.68 53.17 C 194.78 52.39 186.91 55.75 181.92 51.05 L 181.38 50.51 Z" />
</g>
<g id="#355753ff">
<path fill="#355753" opacity="1.00" d=" M 210.68 51.49 C 215.09 50.91 219.55 50.73 224.00 50.68 L 224.00 52.29 C 220.12 52.35 216.22 52.53 212.37 51.96 C 211.95 51.84 211.10 51.61 210.68 51.49 Z" />
</g>
<g id="#446445fe">
<path fill="#446445" opacity="1.00" d=" M 5.70 52.67 C 6.65 52.17 7.66 51.88 8.73 51.79 C 8.11 53.26 7.37 54.67 6.49 56.00 L 6.08 56.00 C 5.79 54.91 5.67 53.80 5.70 52.67 Z" />
<path fill="#446445" opacity="1.00" d=" M 61.69 52.69 C 62.66 52.23 63.68 51.94 64.75 51.81 C 64.12 53.27 63.39 54.69 62.49 56.00 L 62.07 56.00 C 61.78 54.91 61.65 53.81 61.69 52.69 Z" />
<path fill="#446445" opacity="1.00" d=" M 117.71 52.67 C 118.64 52.12 119.65 51.80 120.72 51.72 C 120.11 53.21 119.37 54.65 118.49 56.00 L 118.10 56.00 C 117.82 54.90 117.69 53.80 117.71 52.67 Z" />
<path fill="#446445" opacity="1.00" d=" M 173.69 52.69 C 174.65 52.23 175.67 51.93 176.75 51.81 C 176.12 53.27 175.38 54.68 174.48 56.00 L 174.07 56.00 C 173.78 54.91 173.65 53.81 173.69 52.69 Z" />
</g>
<g id="#79a55cff">
<path fill="#79a55c" opacity="1.00" d=" M 8.73 51.79 C 10.40 51.61 12.08 51.47 13.76 51.34 C 17.56 54.29 22.67 53.46 27.09 52.90 C 27.18 54.05 27.58 55.08 28.28 56.00 L 6.49 56.00 C 7.37 54.67 8.11 53.26 8.73 51.79 Z" />
</g>
<g id="#154539fe">
<path fill="#154539" opacity="1.00" d=" M 29.47 52.55 C 33.65 52.11 37.82 51.68 41.99 51.22 L 41.44 51.74 C 40.80 52.33 40.16 52.92 39.50 53.50 C 35.79 53.24 32.08 52.98 28.37 52.72 L 29.47 52.55 Z" />
</g>
<g id="#446460ff">
<path fill="#446460" opacity="1.00" d=" M 83.57 51.46 C 83.98 51.59 84.80 51.86 85.21 51.99 L 85.13 52.62 C 84.65 52.74 83.70 52.99 83.23 53.11 L 82.56 52.73 C 82.81 52.41 83.32 51.78 83.57 51.46 Z" />
</g>
<g id="#194338ff">
<path fill="#194338" opacity="1.00" d=" M 90.53 52.40 C 92.91 52.11 95.28 51.69 97.66 51.33 L 98.34 51.71 C 96.29 52.27 94.24 52.79 92.18 53.31 C 91.77 53.08 90.94 52.62 90.53 52.40 Z" />
</g>
<g id="#7aa561ff">
<path fill="#7aa561" opacity="1.00" d=" M 120.72 51.72 C 122.17 51.62 123.63 51.54 125.09 51.59 C 129.93 53.92 135.44 53.67 140.58 52.55 C 144.12 52.62 147.69 52.91 151.25 52.81 C 150.66 53.88 150.06 54.95 149.44 56.00 L 118.49 56.00 C 119.37 54.65 120.11 53.21 120.72 51.72 Z" />
</g>
<g id="#234643ff">
<path fill="#234643" opacity="1.00" d=" M 141.66 52.42 C 145.40 52.04 149.13 51.53 152.88 51.16 C 153.45 51.32 154.61 51.65 155.19 51.81 C 153.87 52.15 152.57 52.52 151.25 52.81 C 147.69 52.91 144.12 52.62 140.58 52.55 L 141.66 52.42 Z" />
</g>
<g id="#7ba45eff">
<path fill="#7ba45e" opacity="1.00" d=" M 176.75 51.81 C 178.47 51.54 180.19 51.30 181.92 51.05 C 186.91 55.75 194.78 52.39 200.68 53.17 C 201.69 53.86 202.95 54.15 204.12 53.64 C 204.55 53.51 205.40 53.25 205.83 53.12 C 206.76 54.22 209.04 53.37 207.75 51.95 C 208.08 51.90 208.74 51.82 209.08 51.78 C 209.60 53.34 212.12 54.11 212.37 51.96 C 216.22 52.53 220.12 52.35 224.00 52.29 L 224.00 56.00 L 174.48 56.00 C 175.38 54.68 176.12 53.27 176.75 51.81 Z" />
</g>
<g id="#567b4eff">
<path fill="#567b4e" opacity="1.00" d=" M 209.08 51.78 C 209.48 51.71 210.28 51.56 210.68 51.49 C 211.10 51.61 211.95 51.84 212.37 51.96 C 212.12 54.11 209.60 53.34 209.08 51.78 Z" />
</g>
<g id="#6b9f45ff">
<path fill="#6b9f45" opacity="1.00" d=" M 39.50 53.50 C 40.16 52.92 40.80 52.33 41.44 51.74 C 42.78 51.92 44.12 52.08 45.47 52.25 C 44.83 53.51 44.19 54.77 43.51 56.00 L 36.42 56.00 C 37.47 55.19 38.50 54.36 39.50 53.50 Z" />
</g>
<g id="#81ac5cff">
<path fill="#81ac5c" opacity="1.00" d=" M 45.47 52.25 C 46.06 52.34 47.25 52.50 47.85 52.59 C 47.93 53.75 48.13 54.92 48.60 56.00 L 43.51 56.00 C 44.19 54.77 44.83 53.51 45.47 52.25 Z" />
</g>
<g id="#669043ff">
<path fill="#669043" opacity="1.00" d=" M 47.85 52.59 C 48.37 52.70 49.42 52.92 49.94 53.03 C 49.91 53.77 49.84 55.26 49.81 56.00 L 48.60 56.00 C 48.13 54.92 47.93 53.75 47.85 52.59 Z" />
</g>
<g id="#1c3d42ff">
<path fill="#1c3d42" opacity="1.00" d=" M 85.21 51.99 C 86.67 51.93 88.14 52.10 89.55 52.48 C 89.36 52.81 88.98 53.47 88.78 53.80 C 87.52 53.54 86.30 53.14 85.13 52.62 L 85.21 51.99 Z" />
</g>
<g id="#497060ff">
<path fill="#497060" opacity="1.00" d=" M 89.55 52.48 L 90.53 52.40 C 90.94 52.62 91.77 53.08 92.18 53.31 C 91.32 53.93 90.37 54.23 89.34 54.21 L 88.78 53.80 C 88.98 53.47 89.36 52.81 89.55 52.48 Z" />
</g>
<g id="#5c8d48ff">
<path fill="#5c8d48" opacity="1.00" d=" M 98.34 51.71 L 99.10 51.50 C 99.75 51.62 101.07 51.87 101.73 52.00 C 101.40 54.43 97.54 54.55 98.34 51.71 Z" />
</g>
<g id="#679671fe">
<path fill="#679671" opacity="1.00" d=" M 106.26 52.79 C 107.68 52.54 110.54 52.05 111.97 51.80 C 112.06 55.13 108.03 53.69 106.26 52.79 Z" />
</g>
<g id="#729a53ff">
<path fill="#729a53" opacity="1.00" d=" M 151.25 52.81 C 152.57 52.52 153.87 52.15 155.19 51.81 C 159.25 52.04 163.32 52.25 167.39 52.35 C 167.24 53.57 167.09 54.78 166.94 56.00 L 160.95 56.00 C 160.48 55.21 159.56 53.63 159.10 52.84 C 157.64 53.87 156.22 54.94 154.79 56.00 L 149.44 56.00 C 150.06 54.95 150.66 53.88 151.25 52.81 Z" />
</g>
<g id="#49744bff">
<path fill="#49744b" opacity="1.00" d=" M 202.36 52.14 L 203.37 52.17 C 203.56 52.54 203.93 53.27 204.12 53.64 C 202.95 54.15 201.69 53.86 200.68 53.17 C 201.10 52.91 201.94 52.40 202.36 52.14 Z" />
</g>
<g id="#073126ff">
<path fill="#073126" opacity="1.00" d=" M 203.37 52.17 C 204.01 52.21 205.29 52.29 205.93 52.33 L 205.83 53.12 C 205.40 53.25 204.55 53.51 204.12 53.64 C 203.93 53.27 203.56 52.54 203.37 52.17 Z" />
</g>
<g id="#355e47ff">
<path fill="#355e47" opacity="1.00" d=" M 205.93 52.33 C 206.39 52.24 207.29 52.04 207.75 51.95 C 209.04 53.37 206.76 54.22 205.83 53.12 L 205.93 52.33 Z" />
</g>
<g id="#90c175ff">
<path fill="#90c175" opacity="1.00" d=" M 27.09 52.90 C 27.41 52.86 28.05 52.77 28.37 52.72 C 28.48 53.54 28.69 55.18 28.79 56.00 L 28.28 56.00 C 27.58 55.08 27.18 54.05 27.09 52.90 Z" />
</g>
<g id="#73a466fe">
<path fill="#73a466" opacity="1.00" d=" M 28.37 52.72 C 32.08 52.98 35.79 53.24 39.50 53.50 C 38.50 54.36 37.47 55.19 36.42 56.00 L 28.79 56.00 C 28.69 55.18 28.48 53.54 28.37 52.72 Z" />
</g>
<g id="#8cb281ff">
<path fill="#8cb281" opacity="1.00" d=" M 83.23 53.11 C 83.70 52.99 84.65 52.74 85.13 52.62 C 86.30 53.14 87.52 53.54 88.78 53.80 L 89.34 54.21 C 87.25 54.28 85.17 53.90 83.23 53.11 Z" />
</g>
<g id="#89b252ff">
<path fill="#89b252" opacity="1.00" d=" M 154.79 56.00 C 156.22 54.94 157.64 53.87 159.10 52.84 C 159.56 53.63 160.48 55.21 160.95 56.00 L 154.79 56.00 Z" />
</g>
</svg>
