<?xml version="1.0" encoding="UTF-8" ?>
<!DOCTYPE svg PUBLIC "-//W3C//DTD SVG 1.1//EN" "http://www.w3.org/Graphics/SVG/1.1/DTD/svg11.dtd">
<svg width="224pt" height="56pt" viewBox="0 0 224 56" version="1.1" xmlns="http://www.w3.org/2000/svg">
<g id="#81ab59fe">
<path fill="#81ab59" opacity="1.00" d=" M 0.00 0.00 L 10.41 0.00 C 10.29 0.45 10.06 1.34 9.95 1.79 C 6.43 2.76 3.35 4.80 1.63 8.09 C 1.40 8.07 0.93 8.03 0.70 8.00 C 2.19 6.97 1.31 5.02 0.00 4.32 L 0.00 0.00 Z" />
</g>
<g id="#342f2aff">
<path fill="#342f2a" opacity="1.00" d=" M 10.41 0.00 L 13.02 0.00 C 13.02 0.56 13.02 1.68 13.02 2.24 C 12.46 5.75 11.61 9.24 11.61 12.82 C 12.27 10.50 12.93 8.18 13.33 5.80 C 14.10 10.16 13.14 14.44 12.09 18.63 L 11.99 19.03 C 11.63 19.30 10.91 19.82 10.55 20.09 C 10.26 16.35 9.67 12.65 9.05 8.96 C 8.35 9.09 6.94 9.35 6.24 9.49 C 6.88 13.61 7.52 17.74 8.08 21.87 C 7.57 22.25 6.55 23.01 6.04 23.39 C 5.73 22.78 5.11 21.58 4.80 20.97 C 5.58 19.10 3.58 15.90 2.44 18.98 C 2.28 19.27 1.95 19.87 1.79 20.16 C 1.34 20.25 0.45 20.44 0.00 20.53 L 0.00 7.92 L 0.70 8.00 C 0.93 8.03 1.40 8.07 1.63 8.09 C 3.42 8.18 5.24 8.32 7.01 7.92 C 9.91 7.66 9.12 3.79 9.95 1.79 C 10.06 1.34 10.29 0.45 10.41 0.00 M 3.95 11.50 C 4.76 14.21 5.85 16.83 7.09 19.37 C 6.63 16.52 5.47 13.90 3.95 11.50 Z" />
<path fill="#342f2a" opacity="1.00" d=" M 42.61 0.00 L 44.83 0.00 C 45.30 0.30 46.24 0.91 46.71 1.21 C 46.65 3.03 46.50 4.86 46.72 6.67 C 48.84 8.43 51.82 8.19 54.40 8.35 C 54.62 8.35 55.07 8.36 55.29 8.37 C 55.65 8.37 56.36 8.37 56.72 8.37 C 56.94 8.37 57.38 8.36 57.60 8.36 C 60.21 8.25 63.08 8.30 65.31 6.72 C 65.52 4.92 65.38 3.10 65.32 1.29 C 65.78 0.97 66.69 0.32 67.15 0.00 L 69.02 0.00 C 69.02 0.56 69.01 1.68 69.00 2.23 C 68.44 5.75 67.62 9.24 67.60 12.81 C 68.28 10.50 68.94 8.17 69.36 5.80 C 70.31 9.73 69.32 13.57 67.93 17.21 L 67.78 17.62 C 67.42 18.56 67.05 19.51 66.69 20.46 C 66.51 16.58 65.74 12.76 65.04 8.96 C 64.29 9.10 62.80 9.38 62.05 9.52 C 62.83 13.28 63.60 17.03 64.55 20.74 C 63.84 21.06 62.42 21.70 61.71 22.02 C 61.52 21.43 61.14 20.26 60.95 19.67 C 61.27 17.39 58.47 16.55 58.71 19.32 L 57.95 19.42 C 56.65 19.55 55.32 19.75 54.17 20.41 C 54.01 20.07 53.69 19.38 53.53 19.04 C 52.58 15.88 50.36 18.95 51.13 20.88 C 50.84 21.51 50.25 22.78 49.95 23.41 C 49.42 23.01 48.37 22.20 47.84 21.80 C 48.33 17.84 48.89 13.89 49.69 9.98 C 48.83 9.60 47.98 9.21 47.12 8.83 C 46.55 12.55 45.98 16.27 45.45 20.00 C 45.07 19.72 44.31 19.15 43.94 18.87 L 43.86 18.47 C 42.99 14.34 41.88 10.17 42.59 5.89 C 43.11 8.33 43.80 10.74 44.76 13.04 C 44.62 9.33 44.39 5.55 43.19 2.01 C 43.05 1.50 42.76 0.50 42.61 0.00 M 48.91 19.37 C 50.15 16.83 51.24 14.21 52.05 11.50 C 50.53 13.90 49.36 16.52 48.91 19.37 M 59.95 11.50 C 60.76 14.21 61.85 16.83 63.09 19.37 C 62.62 16.52 61.47 13.90 59.95 11.50 Z" />
<path fill="#342f2a" opacity="1.00" d=" M 98.99 0.00 L 100.85 0.00 C 101.32 0.30 102.25 0.91 102.72 1.21 C 102.65 3.04 102.49 4.87 102.69 6.70 C 104.89 8.35 107.79 8.23 110.40 8.35 C 110.62 8.36 111.08 8.37 111.30 8.37 C 111.65 8.37 112.36 8.37 112.71 8.37 C 112.93 8.37 113.38 8.36 113.60 8.36 C 116.22 8.25 119.08 8.29 121.32 6.73 C 121.52 4.92 121.38 3.10 121.32 1.29 C 121.78 0.97 122.69 0.32 123.15 0.00 L 124.98 0.00 C 124.94 0.56 124.86 1.68 124.81 2.24 C 124.33 5.75 123.68 9.24 123.59 12.79 C 124.28 10.47 124.98 8.15 125.44 5.77 C 125.67 7.04 126.12 9.56 126.34 10.83 C 125.77 12.40 125.06 13.92 124.31 15.41 C 124.06 15.75 123.57 16.43 123.32 16.77 C 122.38 14.23 121.47 11.67 120.59 9.10 C 119.99 9.20 118.79 9.39 118.19 9.49 C 118.79 12.93 119.42 16.36 120.03 19.80 C 119.47 20.21 118.36 21.04 117.80 21.45 C 117.60 20.87 117.21 19.71 117.01 19.12 C 117.30 17.50 115.37 16.67 114.41 18.02 L 114.01 18.16 C 113.49 18.32 112.45 18.63 111.93 18.79 C 111.47 18.92 110.56 19.19 110.11 19.33 L 109.30 19.50 C 110.17 16.75 107.01 17.47 107.08 19.67 C 106.85 20.23 106.38 21.35 106.15 21.91 C 105.43 21.59 104.00 20.95 103.28 20.62 C 104.18 17.11 105.02 13.57 105.95 10.06 C 104.97 9.64 103.99 9.21 103.01 8.79 C 102.43 12.66 101.73 16.51 101.32 20.40 C 101.00 19.49 100.68 18.58 100.35 17.68 L 100.20 17.24 C 98.81 13.62 97.48 9.84 98.56 5.88 C 99.09 8.32 99.83 10.71 100.75 13.03 C 100.50 9.31 100.09 5.61 99.26 1.97 C 99.19 1.48 99.06 0.49 98.99 0.00 M 104.91 19.37 C 106.15 16.83 107.24 14.21 108.05 11.50 C 106.53 13.90 105.36 16.52 104.91 19.37 M 115.95 11.50 C 116.76 14.21 117.85 16.83 119.09 19.37 C 118.62 16.52 117.48 13.90 115.95 11.50 Z" />
<path fill="#342f2a" opacity="1.00" d=" M 155.07 0.00 L 156.85 0.00 C 157.32 0.30 158.26 0.90 158.72 1.20 C 158.65 3.04 158.49 4.88 158.68 6.72 C 160.91 8.31 163.78 8.25 166.40 8.36 C 166.62 8.36 167.08 8.37 167.31 8.37 C 167.66 8.37 168.35 8.37 168.70 8.37 C 168.93 8.37 169.38 8.36 169.61 8.36 C 172.22 8.25 175.08 8.29 177.31 6.72 C 177.52 4.92 177.38 3.10 177.32 1.29 C 177.78 0.97 178.69 0.32 179.15 0.00 L 181.02 0.00 C 181.02 0.56 181.01 1.68 181.00 2.23 C 180.44 5.75 179.62 9.24 179.60 12.81 C 180.28 10.50 180.94 8.17 181.36 5.80 C 182.31 9.73 181.32 13.57 179.93 17.21 L 179.78 17.62 C 179.41 18.56 179.05 19.51 178.69 20.45 C 178.50 16.57 177.74 12.76 177.04 8.96 C 176.29 9.10 174.79 9.38 174.04 9.53 C 174.83 13.26 175.60 17.01 176.58 20.70 C 175.89 21.01 174.52 21.62 173.83 21.93 C 173.60 21.36 173.14 20.23 172.90 19.67 C 172.98 17.46 169.83 16.74 170.69 19.50 L 169.89 19.32 C 169.43 19.19 168.52 18.92 168.06 18.79 C 167.54 18.63 166.51 18.33 165.99 18.17 L 165.59 18.03 C 164.63 16.67 162.69 17.52 163.00 19.14 C 162.80 19.73 162.41 20.90 162.21 21.49 C 161.64 21.07 160.51 20.23 159.95 19.81 C 160.50 16.37 161.12 12.94 161.74 9.51 C 161.16 9.40 160.00 9.19 159.42 9.08 C 158.54 11.65 157.62 14.21 156.68 16.77 C 156.44 16.43 155.94 15.75 155.70 15.41 C 154.90 13.90 154.16 12.36 153.53 10.77 C 153.78 9.54 154.27 7.08 154.52 5.85 C 155.09 8.29 155.82 10.69 156.74 13.02 C 156.47 9.33 156.10 5.65 155.36 2.02 C 155.29 1.52 155.14 0.51 155.07 0.00 M 160.91 19.37 C 162.15 16.83 163.24 14.21 164.05 11.50 C 162.54 13.90 161.35 16.52 160.91 19.37 M 171.95 11.50 C 172.75 14.21 173.85 16.83 175.09 19.37 C 174.61 16.52 173.48 13.90 171.95 11.50 Z" />
<path fill="#342f2a" opacity="1.00" d=" M 210.99 0.00 L 212.85 0.00 C 213.31 0.31 214.25 0.92 214.72 1.23 C 214.68 3.22 214.52 5.24 214.86 7.22 C 217.22 8.29 219.87 8.22 222.40 8.06 C 222.62 8.04 223.07 8.00 223.30 7.98 L 224.00 7.90 L 224.00 18.99 C 223.45 19.07 222.34 19.24 221.79 19.32 L 221.05 19.43 C 221.95 16.54 218.68 17.47 218.98 19.76 C 218.81 20.37 218.46 21.58 218.28 22.19 C 217.51 21.82 215.96 21.06 215.19 20.69 C 216.12 17.15 217.01 13.60 217.96 10.07 C 217.00 9.65 216.03 9.23 215.07 8.81 C 214.49 12.68 213.92 16.56 213.38 20.44 C 213.05 19.51 212.72 18.58 212.38 17.66 L 212.22 17.22 C 210.80 13.62 209.44 9.84 210.56 5.88 C 211.09 8.32 211.83 10.71 212.75 13.03 C 212.49 9.31 212.09 5.61 211.26 1.97 C 211.19 1.48 211.06 0.49 210.99 0.00 M 216.91 19.37 C 218.15 16.83 219.24 14.21 220.05 11.50 C 218.54 13.90 217.34 16.52 216.91 19.37 Z" />
</g>
<g id="#268dd9ff">
<path fill="#268dd9" opacity="1.00" d=" M 13.02 0.00 L 16.11 0.00 L 15.29 0.84 C 13.42 1.87 13.94 4.60 16.20 4.51 C 16.68 8.13 17.15 11.76 17.63 15.38 C 16.86 14.94 16.08 14.52 15.29 14.11 C 15.25 14.14 15.16 14.19 15.12 14.21 C 13.32 14.99 12.36 16.76 12.09 18.63 C 13.14 14.44 14.10 10.16 13.33 5.80 C 13.23 4.62 13.13 3.43 13.02 2.24 C 13.02 1.68 13.02 0.56 13.02 0.00 Z" />
<path fill="#268dd9" opacity="1.00" d=" M 69.02 0.00 L 70.20 0.00 C 70.44 0.36 70.92 1.07 71.16 1.43 C 70.29 2.59 70.28 5.11 72.28 4.87 C 72.03 8.08 71.68 11.28 71.41 14.48 C 70.03 15.07 68.88 16.06 67.93 17.21 C 69.32 13.57 70.31 9.73 69.36 5.80 C 69.25 4.61 69.13 3.42 69.00 2.23 C 69.01 1.68 69.02 0.56 69.02 0.00 Z" />
<path fill="#268dd9" opacity="1.00" d=" M 181.02 0.00 L 182.20 0.00 C 182.44 0.36 182.92 1.07 183.16 1.43 C 182.29 2.59 182.28 5.11 184.28 4.87 C 184.03 8.08 183.68 11.28 183.41 14.48 C 182.03 15.07 180.87 16.06 179.93 17.21 C 181.32 13.57 182.31 9.73 181.36 5.80 C 181.25 4.61 181.13 3.42 181.00 2.23 C 181.01 1.68 181.02 0.56 181.02 0.00 Z" />
</g>
<g id="#3c6bbeff">
<path fill="#3c6bbe" opacity="1.00" d=" M 16.11 0.00 L 25.54 0.00 C 26.61 1.15 27.63 2.35 28.65 3.55 C 24.48 4.52 19.97 4.60 16.05 2.66 C 15.86 2.21 15.48 1.30 15.29 0.84 L 16.11 0.00 Z" />
<path fill="#3c6bbe" opacity="1.00" d=" M 213.81 25.61 L 214.49 25.28 L 215.19 24.94 C 217.89 25.07 220.59 25.10 223.30 25.16 L 224.00 25.63 L 224.00 27.76 C 220.56 27.24 217.04 26.96 213.81 25.61 Z" />
</g>
<g id="#407accff">
<path fill="#407acc" opacity="1.00" d=" M 25.54 0.00 L 30.47 0.00 C 32.24 0.27 35.78 0.80 37.55 1.06 C 32.98 2.68 28.74 5.24 24.06 6.53 C 21.32 6.54 18.73 5.42 16.20 4.51 C 16.16 4.04 16.09 3.12 16.05 2.66 C 19.97 4.60 24.48 4.52 28.65 3.55 C 27.63 2.35 26.61 1.15 25.54 0.00 Z" />
</g>
<g id="#3c6cbffe">
<path fill="#3c6cbf" opacity="1.00" d=" M 30.47 0.00 L 39.34 0.00 L 40.13 0.75 C 40.04 1.42 39.85 2.76 39.76 3.43 C 39.35 7.38 38.95 11.33 38.55 15.28 C 39.27 15.00 40.00 14.74 40.73 14.48 C 40.84 14.44 41.07 14.37 41.18 14.34 C 41.11 14.68 40.99 15.36 40.92 15.70 C 40.77 16.53 40.47 18.20 40.32 19.03 C 34.41 17.06 28.33 18.87 22.34 19.35 C 24.15 20.92 25.98 22.47 27.72 24.12 C 24.27 26.07 20.79 28.01 17.61 30.39 C 21.67 29.29 25.65 27.87 29.77 26.98 C 29.00 25.79 28.23 24.59 27.47 23.39 C 31.20 21.07 35.57 19.81 39.91 21.11 C 40.86 22.49 41.83 23.86 42.92 25.13 C 45.90 28.25 49.73 31.42 47.63 36.10 C 45.43 35.14 43.24 34.16 41.05 33.17 C 40.77 34.09 40.48 35.01 40.19 35.93 C 44.90 37.86 49.83 39.12 54.74 40.39 C 52.90 38.33 49.51 36.60 50.09 33.36 C 53.38 30.72 57.17 28.76 60.90 26.82 C 55.85 27.31 50.34 29.11 45.59 26.52 C 46.00 26.00 46.83 24.94 47.25 24.42 C 47.76 24.31 48.80 24.09 49.31 23.98 C 49.01 24.56 48.41 25.72 48.11 26.30 C 50.41 26.27 52.71 26.22 55.01 26.17 C 54.16 25.17 53.31 24.17 52.46 23.18 C 53.35 22.86 54.24 22.53 55.12 22.21 C 55.62 21.99 56.61 21.56 57.11 21.34 C 57.84 22.14 58.73 22.72 59.78 23.08 C 58.71 23.67 57.64 24.28 56.59 24.90 C 59.21 25.05 61.83 25.16 64.46 25.15 C 63.85 24.62 62.63 23.57 62.02 23.04 C 63.71 23.08 65.31 22.44 66.76 21.64 C 67.67 22.34 68.58 23.04 69.49 23.74 C 70.18 23.30 70.88 22.87 71.58 22.44 C 71.45 20.55 71.30 18.67 71.26 16.78 C 71.30 16.21 71.37 15.06 71.41 14.48 C 71.68 11.28 72.03 8.08 72.28 4.87 C 72.44 3.57 72.06 2.42 71.16 1.43 C 70.92 1.07 70.44 0.36 70.20 0.00 L 85.57 0.00 C 81.94 3.14 77.23 3.53 72.66 3.34 C 75.56 4.12 78.86 6.84 81.81 4.85 C 86.12 2.25 91.04 0.95 95.95 0.00 L 97.84 0.00 C 97.60 0.35 97.12 1.05 96.89 1.40 C 95.98 2.39 95.59 3.53 95.71 4.83 C 95.91 8.03 96.07 11.23 96.38 14.42 C 96.44 14.77 96.55 15.46 96.60 15.81 C 97.24 18.66 97.77 21.55 98.79 24.29 C 100.48 26.23 102.58 27.77 104.16 29.82 C 104.30 31.59 103.86 33.35 103.61 35.09 C 101.41 34.14 99.23 33.16 97.06 32.17 C 96.77 33.09 96.48 34.01 96.19 34.93 C 100.90 36.87 105.84 38.12 110.76 39.38 C 109.08 37.33 105.18 35.68 106.34 32.52 C 108.61 30.36 111.34 28.76 113.87 26.93 C 110.53 26.58 107.18 26.24 103.84 25.84 C 106.36 25.45 108.88 25.02 111.39 24.57 C 110.33 24.06 109.26 23.56 108.19 23.07 C 109.21 22.63 110.16 22.07 111.05 21.40 C 111.44 21.04 112.23 20.32 112.63 19.96 C 113.60 20.79 114.64 21.54 115.74 22.19 C 114.64 22.70 113.55 23.23 112.47 23.78 C 114.91 24.20 117.37 24.64 119.84 24.85 C 119.52 24.03 118.86 22.38 118.54 21.56 C 120.56 21.18 122.58 20.81 124.60 20.43 C 124.56 21.22 124.48 22.81 124.44 23.60 C 128.06 16.22 129.68 7.72 126.19 0.00 L 138.33 0.00 C 137.75 0.55 136.58 1.66 135.99 2.21 C 133.54 2.18 131.09 2.15 128.64 2.26 C 131.24 3.27 133.80 4.63 136.60 4.99 C 138.45 3.60 139.80 1.68 141.37 0.00 L 153.83 0.00 C 150.40 7.69 151.49 16.41 155.58 23.64 C 155.54 22.84 155.45 21.23 155.41 20.43 C 157.44 20.82 159.48 21.22 161.53 21.61 C 161.38 22.92 161.24 24.24 161.05 25.55 C 160.62 28.30 160.05 31.02 159.32 33.71 C 156.61 32.96 153.71 32.69 151.17 31.43 C 149.27 29.77 148.22 27.38 146.76 25.36 C 147.23 27.39 147.70 29.42 148.16 31.45 C 141.79 35.02 134.57 33.37 127.95 31.69 C 130.99 33.98 134.46 35.54 137.90 37.15 C 137.60 40.01 137.26 42.87 136.84 45.72 C 137.82 45.66 138.79 45.60 139.77 45.54 C 141.19 41.75 141.60 36.42 146.12 34.99 C 153.22 33.19 160.01 36.73 166.76 38.42 C 165.00 36.35 161.19 34.60 162.25 31.36 C 164.18 27.58 168.94 29.05 172.28 29.32 C 172.13 28.80 171.85 27.77 171.70 27.25 C 168.54 26.57 165.37 25.87 162.18 25.35 C 163.93 24.74 165.66 24.05 167.39 23.38 C 166.35 22.97 165.31 22.58 164.27 22.21 C 165.36 21.54 166.40 20.79 167.37 19.95 C 167.76 20.32 168.55 21.04 168.94 21.40 C 169.83 22.07 170.78 22.63 171.80 23.07 C 170.76 23.48 169.73 23.91 168.71 24.35 C 170.68 25.13 172.63 25.96 174.60 26.77 C 174.73 25.84 174.87 24.91 174.99 23.98 C 174.77 23.73 174.33 23.24 174.12 23.00 C 175.78 23.08 177.35 22.43 178.78 21.64 C 179.68 22.34 180.58 23.04 181.49 23.74 C 182.18 23.31 182.88 22.87 183.58 22.44 C 183.45 20.55 183.30 18.67 183.26 16.78 C 183.30 16.21 183.37 15.06 183.41 14.48 C 183.68 11.28 184.03 8.08 184.28 4.87 C 184.44 3.57 184.06 2.42 183.16 1.43 C 182.92 1.07 182.44 0.36 182.20 0.00 L 197.57 0.00 C 193.94 3.14 189.23 3.53 184.66 3.34 C 187.56 4.12 190.86 6.84 193.81 4.85 C 198.12 2.25 203.04 0.95 207.95 0.00 L 209.84 0.00 C 209.60 0.35 209.13 1.05 208.89 1.40 C 207.98 2.39 207.59 3.53 207.71 4.83 C 207.91 8.03 208.07 11.23 208.39 14.42 C 208.44 14.77 208.55 15.47 208.60 15.82 C 209.25 18.79 209.84 21.80 210.89 24.67 C 212.73 26.61 214.92 28.15 217.03 29.78 C 216.36 31.49 215.66 33.18 214.97 34.89 C 213.00 33.98 211.03 33.07 209.07 32.15 C 208.78 33.07 208.48 34.00 208.19 34.93 C 212.90 36.86 217.83 38.12 222.76 39.38 C 221.19 37.45 217.84 36.04 218.16 33.22 C 219.50 30.90 222.04 29.64 224.00 27.90 L 224.00 45.15 C 215.55 44.74 207.02 42.59 198.57 44.18 C 202.81 45.37 207.10 46.50 211.47 47.12 C 215.67 47.20 219.83 46.27 224.00 45.88 L 224.00 56.00 L 205.34 56.00 C 200.39 53.96 195.80 51.20 191.35 48.25 C 196.31 43.36 199.03 35.99 206.37 33.93 C 204.91 31.32 203.56 28.65 201.90 26.16 C 202.29 28.29 202.71 30.40 203.12 32.52 C 198.36 35.00 192.82 35.03 187.90 32.87 C 185.65 24.97 194.45 27.25 198.74 26.28 C 198.16 24.98 197.59 23.67 197.03 22.36 C 198.99 20.66 200.97 18.98 202.98 17.34 C 198.72 18.02 194.40 17.82 190.19 16.95 C 192.83 18.77 195.26 20.90 197.23 23.45 C 193.30 24.84 189.31 26.10 185.31 27.28 C 185.60 30.06 185.89 32.85 186.17 35.63 C 189.11 35.91 192.05 36.17 195.00 36.42 C 195.02 41.70 191.62 45.49 187.80 48.51 C 191.65 50.66 195.63 52.60 199.47 54.77 C 198.11 55.20 196.74 55.60 195.37 56.00 L 181.27 56.00 C 179.41 53.79 177.50 51.59 175.19 49.83 C 173.52 49.87 170.17 49.96 168.50 50.00 C 168.41 50.39 168.22 51.16 168.13 51.54 C 167.82 53.03 167.52 54.51 167.23 56.00 L 150.18 56.00 C 144.89 52.58 140.01 48.01 133.73 46.58 C 132.62 46.19 131.63 46.82 130.70 47.32 C 132.98 49.63 135.61 51.54 138.05 53.67 C 138.16 52.38 138.27 51.08 138.39 49.79 C 140.81 51.01 143.22 52.25 145.61 53.53 C 143.99 54.15 140.76 55.38 139.14 56.00 L 124.67 56.00 L 124.17 55.04 C 123.30 53.40 122.75 51.55 121.50 50.15 C 118.67 49.53 115.71 49.91 112.84 49.93 L 112.63 50.57 L 112.32 51.64 C 112.08 52.49 111.60 54.19 111.36 55.04 L 111.04 56.00 L 69.61 56.00 C 67.50 54.19 65.49 52.24 63.06 50.86 C 61.84 50.32 60.60 49.83 59.34 49.39 C 60.61 48.49 61.83 47.53 63.07 46.59 C 61.95 45.74 60.82 44.91 59.69 44.09 C 58.95 45.96 58.14 47.80 57.35 49.66 C 57.06 50.34 56.77 51.03 56.49 51.72 C 55.90 53.16 55.29 54.58 54.65 56.00 L 28.14 56.00 C 27.94 54.22 27.74 52.44 27.53 50.66 C 26.71 52.42 25.91 54.20 25.15 56.00 L 15.46 56.00 C 14.36 54.84 13.33 53.62 12.19 52.51 C 9.61 49.42 5.46 49.03 1.73 48.74 C 1.30 48.68 0.43 48.56 0.00 48.50 L 0.00 22.17 L 0.67 22.41 C 1.62 22.76 2.57 23.09 3.52 23.41 C 2.67 24.31 1.82 25.22 0.97 26.12 C 3.27 26.21 5.56 26.29 7.86 26.35 C 7.54 25.65 6.92 24.26 6.60 23.56 C 8.18 23.20 9.74 22.74 11.30 22.28 L 11.62 22.60 L 12.08 23.06 C 13.09 24.03 14.15 24.95 15.20 25.87 C 15.30 22.75 15.19 19.63 15.14 16.51 C 15.14 15.93 15.13 14.79 15.12 14.21 C 15.16 14.19 15.25 14.14 15.29 14.11 C 16.08 14.52 16.86 14.94 17.63 15.38 C 17.15 11.76 16.68 8.13 16.20 4.51 C 18.73 5.42 21.32 6.54 24.06 6.53 C 28.74 5.24 32.98 2.68 37.55 1.06 C 35.78 0.80 32.24 0.27 30.47 0.00 M 138.71 9.44 C 141.12 10.61 143.56 11.72 146.04 12.72 C 145.39 14.06 144.71 15.37 144.02 16.69 C 146.37 16.57 148.73 16.49 151.09 16.51 C 148.24 14.58 146.23 11.79 144.58 8.82 C 142.62 9.04 140.66 9.23 138.71 9.44 M 77.77 17.12 C 79.81 18.17 81.87 19.19 83.93 20.22 C 83.98 21.48 84.03 22.74 84.07 24.00 C 80.54 25.11 77.00 26.15 73.47 27.22 C 73.75 30.08 73.95 32.95 74.20 35.82 C 76.69 35.97 79.18 36.11 81.68 36.25 C 82.16 39.31 82.63 42.36 83.15 45.42 C 85.00 40.22 88.15 35.14 94.27 34.46 C 93.40 32.43 92.64 30.37 92.00 28.26 C 91.11 27.71 90.23 27.17 89.34 26.63 C 90.02 28.47 90.70 30.31 91.35 32.17 C 86.48 35.59 80.69 34.39 75.33 32.93 C 74.17 25.48 82.20 26.29 86.59 26.58 C 83.65 22.51 88.03 19.38 91.01 17.10 C 86.66 18.39 82.16 17.90 77.77 17.12 M 122.14 22.11 C 120.82 22.80 120.81 23.47 122.11 24.14 C 123.43 23.46 123.44 22.78 122.14 22.11 M 157.15 22.40 C 156.30 26.38 161.14 21.58 157.15 22.40 M 66.14 23.11 C 64.82 23.80 64.81 24.47 66.11 25.14 C 67.43 24.46 67.44 23.78 66.14 23.11 M 178.14 23.11 C 176.82 23.80 176.81 24.47 178.11 25.14 C 179.43 24.46 179.44 23.78 178.14 23.11 M 10.14 24.11 C 8.82 24.80 8.81 25.47 10.11 26.14 C 11.43 25.46 11.44 24.78 10.14 24.11 M 32.34 27.62 C 33.02 29.47 33.70 31.32 34.35 33.18 C 30.37 36.00 25.71 35.37 21.36 33.82 C 18.74 32.49 16.55 34.81 14.44 36.05 C 18.96 37.19 23.47 38.32 27.94 39.63 C 26.86 41.72 25.82 43.82 24.84 45.95 C 28.82 45.75 30.32 42.18 31.23 38.87 C 31.84 35.65 36.33 36.75 38.37 35.79 C 36.71 33.88 35.50 31.64 34.84 29.19 C 34.00 28.66 33.17 28.14 32.34 27.62 M 61.03 39.90 C 62.56 42.18 64.88 43.74 67.04 45.36 C 66.04 43.34 64.97 41.36 63.96 39.34 C 65.23 38.21 66.43 37.00 67.58 35.75 C 65.43 36.83 60.96 36.71 61.03 39.90 M 171.38 40.77 C 174.28 42.31 177.10 44.16 180.40 44.69 C 179.17 43.96 177.94 43.22 176.71 42.48 C 177.75 40.05 178.92 37.67 180.04 35.28 C 176.23 35.48 173.11 37.54 171.38 40.77 M 103.42 38.82 C 101.82 41.34 101.12 46.03 96.61 43.96 C 93.24 43.41 89.85 43.23 86.56 44.42 C 89.90 45.18 93.31 45.64 96.60 46.62 C 101.72 48.72 107.09 45.33 112.26 45.32 C 109.27 44.91 106.26 44.53 103.27 44.13 C 103.33 42.36 103.40 40.59 103.42 38.82 M 155.01 44.16 C 152.71 44.91 150.62 43.40 148.61 42.55 C 148.41 43.27 148.22 43.99 148.02 44.71 C 152.35 46.51 157.05 47.79 161.38 45.18 C 161.06 43.19 160.80 41.19 160.62 39.18 C 158.92 40.98 157.50 43.41 155.01 44.16 M 34.88 42.82 C 33.56 43.78 32.24 44.74 30.91 45.68 C 35.55 44.94 40.50 45.63 43.83 49.24 C 44.61 48.30 45.40 47.36 46.20 46.42 C 49.61 46.67 53.02 46.73 56.44 46.78 C 52.93 45.98 49.41 45.16 45.93 44.22 C 46.30 42.86 46.66 41.49 47.03 40.13 C 44.12 43.74 38.97 45.62 34.88 42.82 M 113.53 43.53 C 113.40 45.02 113.26 46.52 113.11 48.01 C 114.55 47.94 116.00 47.88 117.44 47.81 C 116.16 46.37 114.85 44.94 113.53 43.53 M 163.97 44.23 C 163.65 46.01 167.35 46.01 167.03 44.23 C 166.42 43.17 164.57 43.17 163.97 44.23 Z" />
</g>
<g id="#268dd8ff">
<path fill="#268dd8" opacity="1.00" d=" M 39.34 0.00 L 42.61 0.00 C 42.76 0.50 43.05 1.50 43.19 2.01 C 42.95 3.30 42.75 4.59 42.59 5.89 C 41.88 10.17 42.99 14.34 43.86 18.47 C 43.59 16.97 43.37 13.88 41.18 14.34 C 41.07 14.37 40.84 14.44 40.73 14.48 C 40.00 14.74 39.27 15.00 38.55 15.28 C 38.95 11.33 39.35 7.38 39.76 3.43 C 42.14 6.11 42.51 1.42 40.13 0.75 L 39.34 0.00 Z" />
<path fill="#268dd8" opacity="1.00" d=" M 124.98 0.00 L 126.19 0.00 C 129.68 7.72 128.06 16.22 124.44 23.60 C 124.48 22.81 124.56 21.22 124.60 20.43 C 124.79 18.17 125.20 15.92 125.56 13.68 C 125.24 14.11 124.62 14.98 124.31 15.41 C 125.06 13.92 125.77 12.40 126.34 10.83 C 126.12 9.56 125.67 7.04 125.44 5.77 C 125.23 4.60 125.02 3.42 124.81 2.24 C 124.86 1.68 124.94 0.56 124.98 0.00 Z" />
<path fill="#268dd8" opacity="1.00" d=" M 153.83 0.00 L 155.07 0.00 C 155.14 0.51 155.29 1.52 155.36 2.02 C 155.07 3.29 154.79 4.57 154.52 5.85 C 154.27 7.08 153.78 9.54 153.53 10.77 C 154.16 12.36 154.90 13.90 155.70 15.41 C 155.38 14.97 154.76 14.10 154.44 13.67 C 154.80 15.92 155.21 18.16 155.41 20.43 C 155.45 21.23 155.54 22.84 155.58 23.64 C 151.49 16.41 150.40 7.69 153.83 0.00 Z" />
</g>
<g id="#82ac5aff">
<path fill="#82ac5a" opacity="1.00" d=" M 44.83 0.00 L 67.15 0.00 C 66.69 0.32 65.78 0.97 65.32 1.29 C 62.18 2.96 59.32 5.17 57.60 8.36 C 57.38 8.36 56.94 8.37 56.72 8.37 C 56.80 6.93 56.89 5.50 56.98 4.06 C 56.49 4.06 55.51 4.06 55.01 4.06 C 55.11 5.50 55.20 6.93 55.29 8.37 C 55.07 8.36 54.62 8.35 54.40 8.35 C 52.42 5.39 49.69 3.11 46.71 1.21 C 46.24 0.91 45.30 0.30 44.83 0.00 M 51.57 1.49 C 51.12 3.20 54.16 3.84 54.73 2.29 C 55.01 0.68 52.25 0.22 51.57 1.49 Z" />
<path fill="#82ac5a" opacity="1.00" d=" M 100.85 0.00 L 123.15 0.00 C 122.69 0.32 121.78 0.97 121.32 1.29 C 118.18 2.95 115.33 5.17 113.60 8.36 C 113.38 8.36 112.93 8.37 112.71 8.37 C 112.80 6.93 112.89 5.50 112.99 4.06 C 112.49 4.06 111.51 4.06 111.01 4.06 C 111.11 5.50 111.20 6.93 111.30 8.37 C 111.08 8.37 110.62 8.36 110.40 8.35 C 108.42 5.40 105.69 3.11 102.72 1.21 C 102.25 0.91 101.32 0.30 100.85 0.00 M 107.57 1.49 C 107.12 3.20 110.16 3.84 110.73 2.29 C 111.01 0.68 108.25 0.22 107.57 1.49 Z" />
<path fill="#82ac5a" opacity="1.00" d=" M 156.85 0.00 L 179.15 0.00 C 178.69 0.32 177.78 0.97 177.32 1.29 C 174.18 2.95 171.32 5.17 169.61 8.36 C 169.38 8.36 168.93 8.37 168.70 8.37 C 168.80 6.93 168.89 5.50 168.99 4.06 C 168.49 4.06 167.50 4.06 167.01 4.06 C 167.11 5.50 167.21 6.93 167.31 8.37 C 167.08 8.37 166.62 8.36 166.40 8.36 C 164.42 5.40 161.69 3.11 158.72 1.20 C 158.26 0.90 157.32 0.30 156.85 0.00 M 163.57 1.49 C 163.12 3.20 166.15 3.84 166.73 2.29 C 167.01 0.68 164.25 0.22 163.57 1.49 Z" />
</g>
<g id="#4179cbff">
<path fill="#4179cb" opacity="1.00" d=" M 85.57 0.00 L 95.95 0.00 C 91.04 0.95 86.12 2.25 81.81 4.85 C 78.86 6.84 75.56 4.12 72.66 3.34 C 77.23 3.53 81.94 3.14 85.57 0.00 Z" />
<path fill="#4179cb" opacity="1.00" d=" M 197.57 0.00 L 207.95 0.00 C 203.04 0.95 198.12 2.25 193.81 4.85 C 190.86 6.84 187.56 4.12 184.66 3.34 C 189.23 3.53 193.94 3.14 197.57 0.00 Z" />
</g>
<g id="#268ed9ff">
<path fill="#268ed9" opacity="1.00" d=" M 97.84 0.00 L 98.99 0.00 C 99.06 0.49 99.19 1.48 99.26 1.97 C 98.98 3.27 98.75 4.57 98.56 5.88 C 97.48 9.84 98.81 13.62 100.20 17.24 C 99.35 15.84 98.08 14.61 96.38 14.42 C 96.07 11.23 95.91 8.03 95.71 4.83 C 97.72 5.09 97.74 2.58 96.89 1.40 C 97.12 1.05 97.60 0.35 97.84 0.00 Z" />
<path fill="#268ed9" opacity="1.00" d=" M 209.84 0.00 L 210.99 0.00 C 211.06 0.49 211.19 1.48 211.26 1.97 C 210.98 3.27 210.75 4.57 210.56 5.88 C 209.44 9.84 210.80 13.62 212.22 17.22 C 211.35 15.83 210.08 14.62 208.39 14.42 C 208.07 11.23 207.91 8.03 207.71 4.83 C 209.71 5.09 209.74 2.59 208.89 1.40 C 209.13 1.05 209.60 0.35 209.84 0.00 Z" />
<path fill="#268ed9" opacity="1.00" d=" M 54.17 20.41 C 55.32 19.75 56.65 19.55 57.95 19.42 C 57.74 19.90 57.32 20.86 57.11 21.34 C 56.61 21.56 55.62 21.99 55.12 22.21 C 54.88 21.76 54.41 20.86 54.17 20.41 Z" />
<path fill="#268ed9" opacity="1.00" d=" M 110.11 19.33 C 110.56 19.19 111.47 18.92 111.93 18.79 C 112.10 19.08 112.45 19.66 112.63 19.96 C 112.23 20.32 111.44 21.04 111.05 21.40 C 110.81 20.89 110.34 19.85 110.11 19.33 Z" />
<path fill="#268ed9" opacity="1.00" d=" M 167.37 19.95 C 167.54 19.66 167.89 19.08 168.06 18.79 C 168.52 18.92 169.43 19.19 169.89 19.32 C 169.65 19.84 169.18 20.88 168.94 21.40 C 168.55 21.04 167.76 20.32 167.37 19.95 Z" />
<path fill="#268ed9" opacity="1.00" d=" M 0.00 20.53 C 0.45 20.44 1.34 20.25 1.79 20.16 C 1.51 20.73 0.95 21.85 0.67 22.41 L 0.00 22.17 L 0.00 20.53 Z" />
</g>
<g id="#4476cbff">
<path fill="#4476cb" opacity="1.00" d=" M 138.33 0.00 L 141.37 0.00 C 139.80 1.68 138.45 3.60 136.60 4.99 C 133.80 4.63 131.24 3.27 128.64 2.26 C 131.09 2.15 133.54 2.18 135.99 2.21 C 136.58 1.66 137.75 0.55 138.33 0.00 Z" />
</g>
<g id="#84ad5aff">
<path fill="#84ad5a" opacity="1.00" d=" M 212.85 0.00 L 224.00 0.00 L 224.00 4.31 C 222.69 5.00 221.80 6.95 223.30 7.98 C 223.07 8.00 222.62 8.04 222.40 8.06 C 220.28 5.32 217.60 3.12 214.72 1.23 C 214.25 0.92 213.31 0.31 212.85 0.00 M 219.57 1.49 C 219.12 3.20 222.15 3.84 222.73 2.29 C 223.01 0.68 220.25 0.22 219.57 1.49 Z" />
</g>
<g id="#86a0b1ff">
<path fill="#86a0b1" opacity="1.00" d=" M 16.20 4.51 C 13.94 4.60 13.42 1.87 15.29 0.84 C 15.48 1.30 15.86 2.21 16.05 2.66 C 16.09 3.12 16.16 4.04 16.20 4.51 Z" />
<path fill="#86a0b1" opacity="1.00" d=" M 40.13 0.75 C 42.51 1.42 42.14 6.11 39.76 3.43 C 39.85 2.76 40.04 1.42 40.13 0.75 Z" />
</g>
<g id="#6f9a52ff">
<path fill="#6f9a52" opacity="1.00" d=" M 51.57 1.49 C 52.25 0.22 55.01 0.68 54.73 2.29 C 54.16 3.84 51.12 3.20 51.57 1.49 Z" />
<path fill="#6f9a52" opacity="1.00" d=" M 107.57 1.49 C 108.25 0.22 111.01 0.68 110.73 2.29 C 110.16 3.84 107.12 3.20 107.57 1.49 Z" />
<path fill="#6f9a52" opacity="1.00" d=" M 163.57 1.49 C 164.25 0.22 167.01 0.68 166.73 2.29 C 166.15 3.84 163.12 3.20 163.57 1.49 Z" />
<path fill="#6f9a52" opacity="1.00" d=" M 219.57 1.49 C 220.25 0.22 223.01 0.68 222.73 2.29 C 222.15 3.84 219.12 3.20 219.57 1.49 Z" />
</g>
<g id="#709e5cff">
<path fill="#709e5c" opacity="1.00" d=" M 1.63 8.09 C 3.35 4.80 6.43 2.76 9.95 1.79 C 9.12 3.79 9.91 7.66 7.01 7.92 C 5.24 8.32 3.42 8.18 1.63 8.09 Z" />
<path fill="#709e5c" opacity="1.00" d=" M 46.71 1.21 C 49.69 3.11 52.42 5.39 54.40 8.35 C 51.82 8.19 48.84 8.43 46.72 6.67 C 46.50 4.86 46.65 3.03 46.71 1.21 Z" />
<path fill="#709e5c" opacity="1.00" d=" M 57.60 8.36 C 59.32 5.17 62.18 2.96 65.32 1.29 C 65.38 3.10 65.52 4.92 65.31 6.72 C 63.08 8.30 60.21 8.25 57.60 8.36 Z" />
<path fill="#709e5c" opacity="1.00" d=" M 102.72 1.21 C 105.69 3.11 108.42 5.40 110.40 8.35 C 107.79 8.23 104.89 8.35 102.69 6.70 C 102.49 4.87 102.65 3.04 102.72 1.21 Z" />
<path fill="#709e5c" opacity="1.00" d=" M 113.60 8.36 C 115.33 5.17 118.18 2.95 121.32 1.29 C 121.38 3.10 121.52 4.92 121.32 6.73 C 119.08 8.29 116.22 8.25 113.60 8.36 Z" />
<path fill="#709e5c" opacity="1.00" d=" M 158.72 1.20 C 161.69 3.11 164.42 5.40 166.40 8.36 C 163.78 8.25 160.91 8.31 158.68 6.72 C 158.49 4.88 158.65 3.04 158.72 1.20 Z" />
<path fill="#709e5c" opacity="1.00" d=" M 169.61 8.36 C 171.32 5.17 174.18 2.95 177.32 1.29 C 177.38 3.10 177.52 4.92 177.31 6.72 C 175.08 8.29 172.22 8.25 169.61 8.36 Z" />
<path fill="#709e5c" opacity="1.00" d=" M 214.72 1.23 C 217.60 3.12 220.28 5.32 222.40 8.06 C 219.87 8.22 217.22 8.29 214.86 7.22 C 214.52 5.24 214.68 3.22 214.72 1.23 Z" />
</g>
<g id="#7392b4ff">
<path fill="#7392b4" opacity="1.00" d=" M 72.28 4.87 C 70.28 5.11 70.29 2.59 71.16 1.43 C 72.06 2.42 72.44 3.57 72.28 4.87 Z" />
<path fill="#7392b4" opacity="1.00" d=" M 95.71 4.83 C 95.59 3.53 95.98 2.39 96.89 1.40 C 97.74 2.58 97.72 5.09 95.71 4.83 Z" />
<path fill="#7392b4" opacity="1.00" d=" M 184.28 4.87 C 182.28 5.11 182.29 2.59 183.16 1.43 C 184.06 2.42 184.44 3.57 184.28 4.87 Z" />
<path fill="#7392b4" opacity="1.00" d=" M 207.71 4.83 C 207.59 3.53 207.98 2.39 208.89 1.40 C 209.74 2.59 209.71 5.09 207.71 4.83 Z" />
</g>
<g id="#645a4bff">
<path fill="#645a4b" opacity="1.00" d=" M 11.61 12.82 C 11.61 9.24 12.46 5.75 13.02 2.24 C 13.13 3.43 13.23 4.62 13.33 5.80 C 12.93 8.18 12.27 10.50 11.61 12.82 Z" />
<path fill="#645a4b" opacity="1.00" d=" M 43.19 2.01 C 44.39 5.55 44.62 9.33 44.76 13.04 C 43.80 10.74 43.11 8.33 42.59 5.89 C 42.75 4.59 42.95 3.30 43.19 2.01 Z" />
<path fill="#645a4b" opacity="1.00" d=" M 67.60 12.81 C 67.62 9.24 68.44 5.75 69.00 2.23 C 69.13 3.42 69.25 4.61 69.36 5.80 C 68.94 8.17 68.28 10.50 67.60 12.81 Z" />
<path fill="#645a4b" opacity="1.00" d=" M 99.26 1.97 C 100.09 5.61 100.50 9.31 100.75 13.03 C 99.83 10.71 99.09 8.32 98.56 5.88 C 98.75 4.57 98.98 3.27 99.26 1.97 Z" />
<path fill="#645a4b" opacity="1.00" d=" M 123.59 12.79 C 123.68 9.24 124.33 5.75 124.81 2.24 C 125.02 3.42 125.23 4.60 125.44 5.77 C 124.98 8.15 124.28 10.47 123.59 12.79 Z" />
<path fill="#645a4b" opacity="1.00" d=" M 155.36 2.02 C 156.10 5.65 156.47 9.33 156.74 13.02 C 155.82 10.69 155.09 8.29 154.52 5.85 C 154.79 4.57 155.07 3.29 155.36 2.02 Z" />
<path fill="#645a4b" opacity="1.00" d=" M 179.60 12.81 C 179.62 9.24 180.44 5.75 181.00 2.23 C 181.13 3.42 181.25 4.61 181.36 5.80 C 180.94 8.17 180.28 10.50 179.60 12.81 Z" />
<path fill="#645a4b" opacity="1.00" d=" M 211.26 1.97 C 212.09 5.61 212.49 9.31 212.75 13.03 C 211.83 10.71 211.09 8.32 210.56 5.88 C 210.75 4.57 210.98 3.27 211.26 1.97 Z" />
</g>
<g id="#5c8260ff">
<path fill="#5c8260" opacity="1.00" d=" M 0.00 4.32 C 1.31 5.02 2.19 6.97 0.70 8.00 L 0.00 7.92 L 0.00 4.32 Z" />
<path fill="#5c8260" opacity="1.00" d=" M 55.01 4.06 C 55.51 4.06 56.49 4.06 56.98 4.06 C 56.89 5.50 56.80 6.93 56.72 8.37 C 56.36 8.37 55.65 8.37 55.29 8.37 C 55.20 6.93 55.11 5.50 55.01 4.06 Z" />
<path fill="#5c8260" opacity="1.00" d=" M 111.01 4.06 C 111.51 4.06 112.49 4.06 112.99 4.06 C 112.89 5.50 112.80 6.93 112.71 8.37 C 112.36 8.37 111.65 8.37 111.30 8.37 C 111.20 6.93 111.11 5.50 111.01 4.06 Z" />
<path fill="#5c8260" opacity="1.00" d=" M 167.01 4.06 C 167.50 4.06 168.49 4.06 168.99 4.06 C 168.89 5.50 168.80 6.93 168.70 8.37 C 168.35 8.37 167.66 8.37 167.31 8.37 C 167.21 6.93 167.11 5.50 167.01 4.06 Z" />
<path fill="#5c8260" opacity="1.00" d=" M 223.30 7.98 C 221.80 6.95 222.69 5.00 224.00 4.31 L 224.00 7.90 L 223.30 7.98 Z" />
</g>
<g id="#4377cafe">
<path fill="#4377ca" opacity="1.00" d=" M 138.71 9.44 C 140.66 9.23 142.62 9.04 144.58 8.82 C 146.23 11.79 148.24 14.58 151.09 16.51 C 148.73 16.49 146.37 16.57 144.02 16.69 C 144.71 15.37 145.39 14.06 146.04 12.72 C 143.56 11.72 141.12 10.61 138.71 9.44 Z" />
</g>
<g id="#6c604cff">
<path fill="#6c604c" opacity="1.00" d=" M 6.24 9.49 C 6.94 9.35 8.35 9.09 9.05 8.96 C 9.67 12.65 10.26 16.35 10.55 20.09 L 9.76 20.66 C 9.34 20.96 8.50 21.57 8.08 21.87 C 7.52 17.74 6.88 13.61 6.24 9.49 Z" />
<path fill="#6c604c" opacity="1.00" d=" M 47.12 8.83 C 47.98 9.21 48.83 9.60 49.69 9.98 C 48.89 13.89 48.33 17.84 47.84 21.80 C 47.37 21.44 46.42 20.73 45.94 20.37 L 45.45 20.00 C 45.98 16.27 46.55 12.55 47.12 8.83 Z" />
<path fill="#6c604c" opacity="1.00" d=" M 62.05 9.52 C 62.80 9.38 64.29 9.10 65.04 8.96 C 65.74 12.76 66.51 16.58 66.69 20.46 L 66.38 21.34 C 65.93 21.19 65.01 20.89 64.55 20.74 C 63.60 17.03 62.83 13.28 62.05 9.52 Z" />
<path fill="#6c604c" opacity="1.00" d=" M 103.01 8.79 C 103.99 9.21 104.97 9.64 105.95 10.06 C 105.02 13.57 104.18 17.11 103.28 20.62 C 102.85 20.78 102.00 21.08 101.57 21.23 L 101.32 20.40 C 101.73 16.51 102.43 12.66 103.01 8.79 Z" />
<path fill="#6c604c" opacity="1.00" d=" M 174.04 9.53 C 174.79 9.38 176.29 9.10 177.04 8.96 C 177.74 12.76 178.50 16.57 178.69 20.45 L 178.39 21.33 C 177.94 21.17 177.03 20.86 176.58 20.70 C 175.60 17.01 174.83 13.26 174.04 9.53 Z" />
<path fill="#6c604c" opacity="1.00" d=" M 215.07 8.81 C 216.03 9.23 217.00 9.65 217.96 10.07 C 217.01 13.60 216.12 17.15 215.19 20.69 C 214.72 20.78 213.77 20.98 213.30 21.08 L 213.38 20.44 C 213.92 16.56 214.49 12.68 215.07 8.81 Z" />
</g>
<g id="#6c5f4bff">
<path fill="#6c5f4b" opacity="1.00" d=" M 118.19 9.49 C 118.79 9.39 119.99 9.20 120.59 9.10 C 121.47 11.67 122.38 14.23 123.32 16.77 C 122.31 17.87 121.20 18.88 120.03 19.80 C 119.42 16.36 118.79 12.93 118.19 9.49 Z" />
<path fill="#6c5f4b" opacity="1.00" d=" M 159.42 9.08 C 160.00 9.19 161.16 9.40 161.74 9.51 C 161.12 12.94 160.50 16.37 159.95 19.81 C 158.78 18.88 157.68 17.87 156.68 16.77 C 157.62 14.21 158.54 11.65 159.42 9.08 Z" />
</g>
<g id="#565249ff">
<path fill="#565249" opacity="1.00" d=" M 3.95 11.50 C 5.47 13.90 6.63 16.52 7.09 19.37 C 5.85 16.83 4.76 14.21 3.95 11.50 Z" />
<path fill="#565249" opacity="1.00" d=" M 48.91 19.37 C 49.36 16.52 50.53 13.90 52.05 11.50 C 51.24 14.21 50.15 16.83 48.91 19.37 Z" />
<path fill="#565249" opacity="1.00" d=" M 59.95 11.50 C 61.47 13.90 62.62 16.52 63.09 19.37 C 61.85 16.83 60.76 14.21 59.95 11.50 Z" />
<path fill="#565249" opacity="1.00" d=" M 104.91 19.37 C 105.36 16.52 106.53 13.90 108.05 11.50 C 107.24 14.21 106.15 16.83 104.91 19.37 Z" />
<path fill="#565249" opacity="1.00" d=" M 115.95 11.50 C 117.48 13.90 118.62 16.52 119.09 19.37 C 117.85 16.83 116.76 14.21 115.95 11.50 Z" />
<path fill="#565249" opacity="1.00" d=" M 160.91 19.37 C 161.35 16.52 162.54 13.90 164.05 11.50 C 163.24 14.21 162.15 16.83 160.91 19.37 Z" />
<path fill="#565249" opacity="1.00" d=" M 171.95 11.50 C 173.48 13.90 174.61 16.52 175.09 19.37 C 173.85 16.83 172.75 14.21 171.95 11.50 Z" />
<path fill="#565249" opacity="1.00" d=" M 216.91 19.37 C 217.34 16.52 218.54 13.90 220.05 11.50 C 219.24 14.21 218.15 16.83 216.91 19.37 Z" />
<path fill="#565249" opacity="1.00" d=" M 2.44 18.98 C 3.58 15.90 5.58 19.10 4.80 20.97 C 4.41 20.93 3.65 20.84 3.26 20.79 C 3.06 20.34 2.65 19.43 2.44 18.98 Z" />
<path fill="#565249" opacity="1.00" d=" M 51.13 20.88 C 50.36 18.95 52.58 15.88 53.53 19.04 C 53.33 19.47 52.93 20.33 52.72 20.76 C 52.33 20.79 51.53 20.85 51.13 20.88 Z" />
<path fill="#565249" opacity="1.00" d=" M 58.71 19.32 C 58.47 16.55 61.27 17.39 60.95 19.67 C 60.57 19.71 59.81 19.78 59.42 19.82 L 58.71 19.32 Z" />
<path fill="#565249" opacity="1.00" d=" M 107.08 19.67 C 107.01 17.47 110.17 16.75 109.30 19.50 L 108.54 19.98 C 108.17 19.90 107.44 19.74 107.08 19.67 Z" />
<path fill="#565249" opacity="1.00" d=" M 170.69 19.50 C 169.83 16.74 172.98 17.46 172.90 19.67 C 172.54 19.75 171.81 19.90 171.45 19.98 L 170.69 19.50 Z" />
<path fill="#565249" opacity="1.00" d=" M 218.98 19.76 C 218.68 17.47 221.95 16.54 221.05 19.43 L 220.40 19.95 C 220.04 19.91 219.34 19.81 218.98 19.76 Z" />
</g>
<g id="#709fc2fe">
<path fill="#709fc2" opacity="1.00" d=" M 12.09 18.63 C 12.36 16.76 13.32 14.99 15.12 14.21 C 15.13 14.79 15.14 15.93 15.14 16.51 C 14.34 17.63 13.11 18.28 11.99 19.03 L 12.09 18.63 Z" />
<path fill="#709fc2" opacity="1.00" d=" M 41.18 14.34 C 43.37 13.88 43.59 16.97 43.86 18.47 L 43.94 18.87 C 42.73 18.03 41.62 17.01 40.92 15.70 C 40.99 15.36 41.11 14.68 41.18 14.34 Z" />
</g>
<g id="#7ca2beff">
<path fill="#7ca2be" opacity="1.00" d=" M 67.93 17.21 C 68.88 16.06 70.03 15.07 71.41 14.48 C 71.37 15.06 71.30 16.21 71.26 16.78 C 70.21 17.49 69.05 17.77 67.78 17.62 L 67.93 17.21 Z" />
<path fill="#7ca2be" opacity="1.00" d=" M 96.38 14.42 C 98.08 14.61 99.35 15.84 100.20 17.24 L 100.35 17.68 C 98.91 17.59 97.50 16.97 96.60 15.81 C 96.55 15.46 96.44 14.77 96.38 14.42 Z" />
<path fill="#7ca2be" opacity="1.00" d=" M 179.93 17.21 C 180.87 16.06 182.03 15.07 183.41 14.48 C 183.37 15.06 183.30 16.21 183.26 16.78 C 182.21 17.49 181.05 17.76 179.78 17.62 L 179.93 17.21 Z" />
<path fill="#7ca2be" opacity="1.00" d=" M 208.39 14.42 C 210.08 14.62 211.35 15.83 212.22 17.22 L 212.38 17.66 C 210.92 17.59 209.50 16.98 208.60 15.82 C 208.55 15.47 208.44 14.77 208.39 14.42 Z" />
</g>
<g id="#7fa1b9ff">
<path fill="#7fa1b9" opacity="1.00" d=" M 124.31 15.41 C 124.62 14.98 125.24 14.11 125.56 13.68 C 125.20 15.92 124.79 18.17 124.60 20.43 C 122.58 20.81 120.56 21.18 118.54 21.56 L 117.35 21.79 L 117.80 21.45 C 118.36 21.04 119.47 20.21 120.03 19.80 C 121.20 18.88 122.31 17.87 123.32 16.77 C 123.57 16.43 124.06 15.75 124.31 15.41 Z" />
<path fill="#7fa1b9" opacity="1.00" d=" M 154.44 13.67 C 154.76 14.10 155.38 14.97 155.70 15.41 C 155.94 15.75 156.44 16.43 156.68 16.77 C 157.68 17.87 158.78 18.88 159.95 19.81 C 160.51 20.23 161.64 21.07 162.21 21.49 L 162.65 21.83 L 161.53 21.61 C 159.48 21.22 157.44 20.82 155.41 20.43 C 155.21 18.16 154.80 15.92 154.44 13.67 Z" />
</g>
<g id="#4378c9ff">
<path fill="#4378c9" opacity="1.00" d=" M 22.34 19.35 C 28.33 18.87 34.41 17.06 40.32 19.03 C 40.22 19.55 40.01 20.59 39.91 21.11 C 35.57 19.81 31.20 21.07 27.47 23.39 C 28.23 24.59 29.00 25.79 29.77 26.98 C 25.65 27.87 21.67 29.29 17.61 30.39 C 20.79 28.01 24.27 26.07 27.72 24.12 C 25.98 22.47 24.15 20.92 22.34 19.35 Z" />
<path fill="#4378c9" opacity="1.00" d=" M 98.79 24.29 C 99.61 23.38 100.43 22.48 101.26 21.58 C 102.71 22.36 104.28 23.01 105.96 23.00 C 105.24 23.93 104.53 24.88 103.84 25.84 C 107.18 26.24 110.53 26.58 113.87 26.93 C 111.34 28.76 108.61 30.36 106.34 32.52 C 105.18 35.68 109.08 37.33 110.76 39.38 C 105.84 38.12 100.90 36.87 96.19 34.93 C 96.48 34.01 96.77 33.09 97.06 32.17 C 99.23 33.16 101.41 34.14 103.61 35.09 C 103.86 33.35 104.30 31.59 104.16 29.82 C 102.58 27.77 100.48 26.23 98.79 24.29 M 101.15 23.40 C 100.30 27.38 105.14 22.58 101.15 23.40 Z" />
<path fill="#4378c9" opacity="1.00" d=" M 210.89 24.67 C 211.63 23.60 212.36 22.52 213.08 21.44 C 214.59 22.31 216.25 22.96 218.01 23.12 C 217.30 23.58 215.90 24.48 215.19 24.94 L 214.49 25.28 C 215.16 21.92 210.70 24.51 213.81 25.61 C 217.04 26.96 220.56 27.24 224.00 27.76 L 224.00 27.90 C 222.04 29.64 219.50 30.90 218.16 33.22 C 217.84 36.04 221.19 37.45 222.76 39.38 C 217.83 38.12 212.90 36.86 208.19 34.93 C 208.48 34.00 208.78 33.07 209.07 32.15 C 211.03 33.07 213.00 33.98 214.97 34.89 C 215.66 33.18 216.36 31.49 217.03 29.78 C 214.92 28.15 212.73 26.61 210.89 24.67 Z" />
</g>
<g id="#298ad7ff">
<path fill="#298ad7" opacity="1.00" d=" M 40.92 15.70 C 41.62 17.01 42.73 18.03 43.94 18.87 C 44.31 19.15 45.07 19.72 45.45 20.00 L 45.94 20.37 C 45.69 20.76 45.17 21.54 44.92 21.94 L 44.52 22.55 C 44.56 21.42 42.82 19.76 42.15 21.36 C 42.22 22.53 42.89 23.11 44.16 23.12 C 43.85 23.62 43.23 24.63 42.92 25.13 C 41.83 23.86 40.86 22.49 39.91 21.11 C 40.01 20.59 40.22 19.55 40.32 19.03 C 40.47 18.20 40.77 16.53 40.92 15.70 Z" />
</g>
<g id="#3a94d8ff">
<path fill="#3a94d8" opacity="1.00" d=" M 96.60 15.81 C 97.50 16.97 98.91 17.59 100.35 17.68 C 100.68 18.58 101.00 19.49 101.32 20.40 L 101.57 21.23 L 101.26 21.58 C 100.43 22.48 99.61 23.38 98.79 24.29 C 97.77 21.55 97.24 18.66 96.60 15.81 Z" />
<path fill="#3a94d8" opacity="1.00" d=" M 208.60 15.82 C 209.50 16.98 210.92 17.59 212.38 17.66 C 212.72 18.58 213.05 19.51 213.38 20.44 L 213.30 21.08 L 213.08 21.44 C 212.36 22.52 211.63 23.60 210.89 24.67 C 209.84 21.80 209.25 18.79 208.60 15.82 Z" />
</g>
<g id="#2a8ad7ff">
<path fill="#2a8ad7" opacity="1.00" d=" M 11.99 19.03 C 13.11 18.28 14.34 17.63 15.14 16.51 C 15.19 19.63 15.30 22.75 15.20 25.87 C 14.15 24.95 13.09 24.03 12.08 23.06 C 13.34 22.97 13.95 22.35 13.89 21.21 C 13.06 19.69 11.43 21.43 11.62 22.60 L 11.30 22.28 C 10.91 21.87 10.15 21.06 9.76 20.66 L 10.55 20.09 C 10.91 19.82 11.63 19.30 11.99 19.03 Z" />
</g>
<g id="#3893d8ff">
<path fill="#3893d8" opacity="1.00" d=" M 67.78 17.62 C 69.05 17.77 70.21 17.49 71.26 16.78 C 71.30 18.67 71.45 20.55 71.58 22.44 C 70.88 22.87 70.18 23.30 69.49 23.74 C 68.58 23.04 67.67 22.34 66.76 21.64 L 66.38 21.34 L 66.69 20.46 C 67.05 19.51 67.42 18.56 67.78 17.62 Z" />
<path fill="#3893d8" opacity="1.00" d=" M 179.78 17.62 C 181.05 17.76 182.21 17.49 183.26 16.78 C 183.30 18.67 183.45 20.55 183.58 22.44 C 182.88 22.87 182.18 23.31 181.49 23.74 C 180.58 23.04 179.68 22.34 178.78 21.64 L 178.39 21.33 L 178.69 20.45 C 179.05 19.51 179.41 18.56 179.78 17.62 Z" />
</g>
<g id="#4478caff">
<path fill="#4478ca" opacity="1.00" d=" M 77.77 17.12 C 82.16 17.90 86.66 18.39 91.01 17.10 C 88.03 19.38 83.65 22.51 86.59 26.58 C 82.20 26.29 74.17 25.48 75.33 32.93 C 80.69 34.39 86.48 35.59 91.35 32.17 C 90.70 30.31 90.02 28.47 89.34 26.63 C 90.23 27.17 91.11 27.71 92.00 28.26 C 92.64 30.37 93.40 32.43 94.27 34.46 C 88.15 35.14 85.00 40.22 83.15 45.42 C 82.63 42.36 82.16 39.31 81.68 36.25 C 79.18 36.11 76.69 35.97 74.20 35.82 C 73.95 32.95 73.75 30.08 73.47 27.22 C 77.00 26.15 80.54 25.11 84.07 24.00 C 84.03 22.74 83.98 21.48 83.93 20.22 C 81.87 19.19 79.81 18.17 77.77 17.12 Z" />
</g>
<g id="#4a463eff">
<path fill="#4a463e" opacity="1.00" d=" M 114.41 18.02 C 115.37 16.67 117.30 17.50 117.01 19.12 C 116.36 18.85 115.06 18.30 114.41 18.02 Z" />
<path fill="#4a463e" opacity="1.00" d=" M 163.00 19.14 C 162.69 17.52 164.63 16.67 165.59 18.03 C 164.94 18.31 163.65 18.86 163.00 19.14 Z" />
</g>
<g id="#4378caff">
<path fill="#4378ca" opacity="1.00" d=" M 190.19 16.95 C 194.40 17.82 198.72 18.02 202.98 17.34 C 200.97 18.98 198.99 20.66 197.03 22.36 C 197.59 23.67 198.16 24.98 198.74 26.28 C 194.45 27.25 185.65 24.97 187.90 32.87 C 192.82 35.03 198.36 35.00 203.12 32.52 C 202.71 30.40 202.29 28.29 201.90 26.16 C 203.56 28.65 204.91 31.32 206.37 33.93 C 199.03 35.99 196.31 43.36 191.35 48.25 C 195.80 51.20 200.39 53.96 205.34 56.00 L 195.37 56.00 C 196.74 55.60 198.11 55.20 199.47 54.77 C 195.63 52.60 191.65 50.66 187.80 48.51 C 191.62 45.49 195.02 41.70 195.00 36.42 C 192.05 36.17 189.11 35.91 186.17 35.63 C 185.89 32.85 185.60 30.06 185.31 27.28 C 189.31 26.10 193.30 24.84 197.23 23.45 C 195.26 20.90 192.83 18.77 190.19 16.95 Z" />
</g>
<g id="#9cb3c7fe">
<path fill="#9cb3c7" opacity="1.00" d=" M 111.93 18.79 C 112.45 18.63 113.49 18.32 114.01 18.16 C 114.87 19.36 115.40 20.76 116.11 22.05 L 115.74 22.19 C 114.64 21.54 113.60 20.79 112.63 19.96 C 112.45 19.66 112.10 19.08 111.93 18.79 Z" />
<path fill="#9cb3c7" opacity="1.00" d=" M 165.99 18.17 C 166.51 18.33 167.54 18.63 168.06 18.79 C 167.89 19.08 167.54 19.66 167.37 19.95 C 166.40 20.79 165.36 21.54 164.27 22.21 L 163.88 22.09 C 164.58 20.78 165.11 19.38 165.99 18.17 Z" />
<path fill="#9cb3c7" opacity="1.00" d=" M 57.95 19.42 L 58.71 19.32 L 59.42 19.82 C 59.60 20.85 59.87 21.86 60.23 22.85 L 59.78 23.08 C 58.73 22.72 57.84 22.14 57.11 21.34 C 57.32 20.86 57.74 19.90 57.95 19.42 Z" />
<path fill="#9cb3c7" opacity="1.00" d=" M 109.30 19.50 L 110.11 19.33 C 110.34 19.85 110.81 20.89 111.05 21.40 C 110.16 22.07 109.21 22.63 108.19 23.07 L 107.70 22.88 C 108.06 21.94 108.34 20.97 108.54 19.98 L 109.30 19.50 Z" />
<path fill="#9cb3c7" opacity="1.00" d=" M 169.89 19.32 L 170.69 19.50 L 171.45 19.98 C 171.65 20.98 171.93 21.95 172.30 22.89 L 171.80 23.07 C 170.78 22.63 169.83 22.07 168.94 21.40 C 169.18 20.88 169.65 19.84 169.89 19.32 Z" />
<path fill="#9cb3c7" opacity="1.00" d=" M 221.05 19.43 L 221.79 19.32 C 223.66 20.66 222.08 22.83 220.31 23.18 L 219.87 22.93 C 220.18 21.96 220.36 20.97 220.40 19.95 L 221.05 19.43 Z" />
</g>
<g id="#5688bafe">
<path fill="#5688ba" opacity="1.00" d=" M 114.01 18.16 L 114.41 18.02 C 115.06 18.30 116.36 18.85 117.01 19.12 C 117.21 19.71 117.60 20.87 117.80 21.45 L 117.35 21.79 C 117.04 21.85 116.42 21.98 116.11 22.05 C 115.40 20.76 114.87 19.36 114.01 18.16 Z" />
<path fill="#5688ba" opacity="1.00" d=" M 165.59 18.03 L 165.99 18.17 C 165.11 19.38 164.58 20.78 163.88 22.09 C 163.58 22.03 162.96 21.89 162.65 21.83 L 162.21 21.49 C 162.41 20.90 162.80 19.73 163.00 19.14 C 163.65 18.86 164.94 18.31 165.59 18.03 Z" />
</g>
<g id="#9eb5caff">
<path fill="#9eb5ca" opacity="1.00" d=" M 1.79 20.16 C 1.95 19.87 2.28 19.27 2.44 18.98 C 2.65 19.43 3.06 20.34 3.26 20.79 C 3.52 21.76 3.84 22.70 4.21 23.63 L 3.52 23.41 C 2.57 23.09 1.62 22.76 0.67 22.41 C 0.95 21.85 1.51 20.73 1.79 20.16 Z" />
</g>
<g id="#9eb5c9ff">
<path fill="#9eb5c9" opacity="1.00" d=" M 53.53 19.04 C 53.69 19.38 54.01 20.07 54.17 20.41 C 54.41 20.86 54.88 21.76 55.12 22.21 C 54.24 22.53 53.35 22.86 52.46 23.18 L 51.81 23.40 C 52.16 22.53 52.47 21.65 52.72 20.76 C 52.93 20.33 53.33 19.47 53.53 19.04 Z" />
</g>
<g id="#337cccff">
<path fill="#337ccc" opacity="1.00" d=" M 221.79 19.32 C 222.34 19.24 223.45 19.07 224.00 18.99 L 224.00 25.63 L 223.30 25.16 C 222.31 24.49 221.31 23.83 220.31 23.18 C 222.08 22.83 223.66 20.66 221.79 19.32 Z" />
</g>
<g id="#adc2d9ff">
<path fill="#adc2d9" opacity="1.00" d=" M 11.62 22.60 C 11.43 21.43 13.06 19.69 13.89 21.21 C 13.95 22.35 13.34 22.97 12.08 23.06 L 11.62 22.60 Z" />
<path fill="#adc2d9" opacity="1.00" d=" M 42.15 21.36 C 42.82 19.76 44.56 21.42 44.52 22.55 L 44.16 23.12 C 42.89 23.11 42.22 22.53 42.15 21.36 Z" />
</g>
<g id="#4f7baeff">
<path fill="#4f7bae" opacity="1.00" d=" M 59.42 19.82 C 59.81 19.78 60.57 19.71 60.95 19.67 C 61.14 20.26 61.52 21.43 61.71 22.02 L 61.50 22.63 C 61.18 22.68 60.55 22.79 60.23 22.85 C 59.87 21.86 59.60 20.85 59.42 19.82 Z" />
<path fill="#4f7bae" opacity="1.00" d=" M 107.08 19.67 C 107.44 19.74 108.17 19.90 108.54 19.98 C 108.34 20.97 108.06 21.94 107.70 22.88 C 107.37 22.79 106.72 22.62 106.39 22.53 L 106.15 21.91 C 106.38 21.35 106.85 20.23 107.08 19.67 Z" />
<path fill="#4f7bae" opacity="1.00" d=" M 171.45 19.98 C 171.81 19.90 172.54 19.75 172.90 19.67 C 173.14 20.23 173.60 21.36 173.83 21.93 L 173.63 22.54 C 173.30 22.63 172.64 22.80 172.30 22.89 C 171.93 21.95 171.65 20.98 171.45 19.98 Z" />
<path fill="#4f7bae" opacity="1.00" d=" M 218.98 19.76 C 219.34 19.81 220.04 19.91 220.40 19.95 C 220.36 20.97 220.18 21.96 219.87 22.93 C 219.53 22.90 218.87 22.83 218.54 22.79 L 218.28 22.19 C 218.46 21.58 218.81 20.37 218.98 19.76 Z" />
<path fill="#4f7bae" opacity="1.00" d=" M 3.26 20.79 C 3.65 20.84 4.41 20.93 4.80 20.97 C 5.11 21.58 5.73 22.78 6.04 23.39 L 5.60 23.73 C 5.25 23.71 4.56 23.65 4.21 23.63 C 3.84 22.70 3.52 21.76 3.26 20.79 Z" />
<path fill="#4f7bae" opacity="1.00" d=" M 51.13 20.88 C 51.53 20.85 52.33 20.79 52.72 20.76 C 52.47 21.65 52.16 22.53 51.81 23.40 C 51.46 23.49 50.75 23.67 50.40 23.76 L 49.95 23.41 C 50.25 22.78 50.84 21.51 51.13 20.88 Z" />
</g>
<g id="#8ea7b9ff">
<path fill="#8ea7b9" opacity="1.00" d=" M 8.08 21.87 C 8.50 21.57 9.34 20.96 9.76 20.66 C 10.15 21.06 10.91 21.87 11.30 22.28 C 9.74 22.74 8.18 23.20 6.60 23.56 L 5.60 23.73 L 6.04 23.39 C 6.55 23.01 7.57 22.25 8.08 21.87 Z" />
<path fill="#8ea7b9" opacity="1.00" d=" M 44.92 21.94 C 45.17 21.54 45.69 20.76 45.94 20.37 C 46.42 20.73 47.37 21.44 47.84 21.80 C 48.37 22.20 49.42 23.01 49.95 23.41 L 50.40 23.76 L 49.31 23.98 C 48.80 24.09 47.76 24.31 47.25 24.42 C 46.47 23.59 45.69 22.76 44.92 21.94 Z" />
</g>
<g id="#8ba4b6fe">
<path fill="#8ba4b6" opacity="1.00" d=" M 61.71 22.02 C 62.42 21.70 63.84 21.06 64.55 20.74 C 65.01 20.89 65.93 21.19 66.38 21.34 L 66.76 21.64 C 65.31 22.44 63.71 23.08 62.02 23.04 L 61.50 22.63 L 61.71 22.02 Z" />
<path fill="#8ba4b6" opacity="1.00" d=" M 101.26 21.58 L 101.57 21.23 C 102.00 21.08 102.85 20.78 103.28 20.62 C 104.00 20.95 105.43 21.59 106.15 21.91 L 106.39 22.53 L 105.96 23.00 C 104.28 23.01 102.71 22.36 101.26 21.58 Z" />
<path fill="#8ba4b6" opacity="1.00" d=" M 173.83 21.93 C 174.52 21.62 175.89 21.01 176.58 20.70 C 177.03 20.86 177.94 21.17 178.39 21.33 L 178.78 21.64 C 177.35 22.43 175.78 23.08 174.12 23.00 L 173.63 22.54 L 173.83 21.93 Z" />
<path fill="#8ba4b6" opacity="1.00" d=" M 213.08 21.44 L 213.30 21.08 C 213.77 20.98 214.72 20.78 215.19 20.69 C 215.96 21.06 217.51 21.82 218.28 22.19 L 218.54 22.79 L 218.01 23.12 C 216.25 22.96 214.59 22.31 213.08 21.44 Z" />
</g>
<g id="#4279caff">
<path fill="#4279ca" opacity="1.00" d=" M 44.52 22.55 L 44.92 21.94 C 45.69 22.76 46.47 23.59 47.25 24.42 C 45.85 23.02 43.40 25.90 45.59 26.52 C 50.34 29.11 55.85 27.31 60.90 26.82 C 57.17 28.76 53.38 30.72 50.09 33.36 C 49.51 36.60 52.90 38.33 54.74 40.39 C 49.83 39.12 44.90 37.86 40.19 35.93 C 40.48 35.01 40.77 34.09 41.05 33.17 C 43.24 34.16 45.43 35.14 47.63 36.10 C 49.73 31.42 45.90 28.25 42.92 25.13 C 43.23 24.63 43.85 23.62 44.16 23.12 L 44.52 22.55 Z" />
</g>
<g id="#65569cff">
<path fill="#65569c" opacity="1.00" d=" M 115.74 22.19 L 116.11 22.05 C 116.42 21.98 117.04 21.85 117.35 21.79 L 118.54 21.56 C 118.86 22.38 119.52 24.03 119.84 24.85 C 117.37 24.64 114.91 24.20 112.47 23.78 C 113.55 23.23 114.64 22.70 115.74 22.19 Z" />
<path fill="#65569c" opacity="1.00" d=" M 122.14 22.11 C 123.44 22.78 123.43 23.46 122.11 24.14 C 120.81 23.47 120.82 22.80 122.14 22.11 Z" />
<path fill="#65569c" opacity="1.00" d=" M 157.15 22.40 C 161.14 21.58 156.30 26.38 157.15 22.40 Z" />
<path fill="#65569c" opacity="1.00" d=" M 161.53 21.61 L 162.65 21.83 C 162.96 21.89 163.58 22.03 163.88 22.09 L 164.27 22.21 C 165.31 22.58 166.35 22.97 167.39 23.38 C 165.66 24.05 163.93 24.74 162.18 25.35 L 161.05 25.55 C 161.24 24.24 161.38 22.92 161.53 21.61 Z" />
<path fill="#65569c" opacity="1.00" d=" M 59.78 23.08 L 60.23 22.85 C 60.55 22.79 61.18 22.68 61.50 22.63 L 62.02 23.04 C 62.63 23.57 63.85 24.62 64.46 25.15 C 61.83 25.16 59.21 25.05 56.59 24.90 C 57.64 24.28 58.71 23.67 59.78 23.08 Z" />
<path fill="#65569c" opacity="1.00" d=" M 66.14 23.11 C 67.44 23.78 67.43 24.46 66.11 25.14 C 64.81 24.47 64.82 23.80 66.14 23.11 Z" />
<path fill="#65569c" opacity="1.00" d=" M 101.15 23.40 C 105.14 22.58 100.30 27.38 101.15 23.40 Z" />
<path fill="#65569c" opacity="1.00" d=" M 105.96 23.00 L 106.39 22.53 C 106.72 22.62 107.37 22.79 107.70 22.88 L 108.19 23.07 C 109.26 23.56 110.33 24.06 111.39 24.57 C 108.88 25.02 106.36 25.45 103.84 25.84 C 104.53 24.88 105.24 23.93 105.96 23.00 Z" />
<path fill="#65569c" opacity="1.00" d=" M 171.80 23.07 L 172.30 22.89 C 172.64 22.80 173.30 22.63 173.63 22.54 L 174.12 23.00 C 174.33 23.24 174.77 23.73 174.99 23.98 C 174.87 24.91 174.73 25.84 174.60 26.77 C 172.63 25.96 170.68 25.13 168.71 24.35 C 169.73 23.91 170.76 23.48 171.80 23.07 Z" />
<path fill="#65569c" opacity="1.00" d=" M 178.14 23.11 C 179.44 23.78 179.43 24.46 178.11 25.14 C 176.81 24.47 176.82 23.80 178.14 23.11 Z" />
<path fill="#65569c" opacity="1.00" d=" M 213.81 25.61 C 210.70 24.51 215.16 21.92 214.49 25.28 L 213.81 25.61 Z" />
<path fill="#65569c" opacity="1.00" d=" M 218.01 23.12 L 218.54 22.79 C 218.87 22.83 219.53 22.90 219.87 22.93 L 220.31 23.18 C 221.31 23.83 222.31 24.49 223.30 25.16 C 220.59 25.10 217.89 25.07 215.19 24.94 C 215.90 24.48 217.30 23.58 218.01 23.12 Z" />
<path fill="#65569c" opacity="1.00" d=" M 3.52 23.41 L 4.21 23.63 C 4.56 23.65 5.25 23.71 5.60 23.73 L 6.60 23.56 C 6.92 24.26 7.54 25.65 7.86 26.35 C 5.56 26.29 3.27 26.21 0.97 26.12 C 1.82 25.22 2.67 24.31 3.52 23.41 Z" />
<path fill="#65569c" opacity="1.00" d=" M 10.14 24.11 C 11.44 24.78 11.43 25.46 10.11 26.14 C 8.81 25.47 8.82 24.80 10.14 24.11 Z" />
<path fill="#65569c" opacity="1.00" d=" M 45.59 26.52 C 43.40 25.90 45.85 23.02 47.25 24.42 C 46.83 24.94 46.00 26.00 45.59 26.52 Z" />
<path fill="#65569c" opacity="1.00" d=" M 49.31 23.98 L 50.40 23.76 C 50.75 23.67 51.46 23.49 51.81 23.40 L 52.46 23.18 C 53.31 24.17 54.16 25.17 55.01 26.17 C 52.71 26.22 50.41 26.27 48.11 26.30 C 48.41 25.72 49.01 24.56 49.31 23.98 Z" />
</g>
<g id="#4579cbff">
<path fill="#4579cb" opacity="1.00" d=" M 146.76 25.36 C 148.22 27.38 149.27 29.77 151.17 31.43 C 153.71 32.69 156.61 32.96 159.32 33.71 C 160.05 31.02 160.62 28.30 161.05 25.55 L 162.18 25.35 C 165.37 25.87 168.54 26.57 171.70 27.25 C 171.85 27.77 172.13 28.80 172.28 29.32 C 168.94 29.05 164.18 27.58 162.25 31.36 C 161.19 34.60 165.00 36.35 166.76 38.42 C 160.01 36.73 153.22 33.19 146.12 34.99 C 141.60 36.42 141.19 41.75 139.77 45.54 C 138.79 45.60 137.82 45.66 136.84 45.72 C 137.26 42.87 137.60 40.01 137.90 37.15 C 134.46 35.54 130.99 33.98 127.95 31.69 C 134.57 33.37 141.79 35.02 148.16 31.45 C 147.70 29.42 147.23 27.39 146.76 25.36 Z" />
</g>
<g id="#4578c9ff">
<path fill="#4578c9" opacity="1.00" d=" M 32.34 27.62 C 33.17 28.14 34.00 28.66 34.84 29.19 C 35.50 31.64 36.71 33.88 38.37 35.79 C 36.33 36.75 31.84 35.65 31.23 38.87 C 30.32 42.18 28.82 45.75 24.84 45.95 C 25.82 43.82 26.86 41.72 27.94 39.63 C 23.47 38.32 18.96 37.19 14.44 36.05 C 16.55 34.81 18.74 32.49 21.36 33.82 C 25.71 35.37 30.37 36.00 34.35 33.18 C 33.70 31.32 33.02 29.47 32.34 27.62 Z" />
</g>
<g id="#4878cbff">
<path fill="#4878cb" opacity="1.00" d=" M 61.03 39.90 C 60.96 36.71 65.43 36.83 67.58 35.75 C 66.43 37.00 65.23 38.21 63.96 39.34 C 64.97 41.36 66.04 43.34 67.04 45.36 C 64.88 43.74 62.56 42.18 61.03 39.90 Z" />
</g>
<g id="#4374c9ff">
<path fill="#4374c9" opacity="1.00" d=" M 171.38 40.77 C 173.11 37.54 176.23 35.48 180.04 35.28 C 178.92 37.67 177.75 40.05 176.71 42.48 C 177.94 43.22 179.17 43.96 180.40 44.69 C 177.10 44.16 174.28 42.31 171.38 40.77 Z" />
</g>
<g id="#4378cbff">
<path fill="#4378cb" opacity="1.00" d=" M 103.42 38.82 C 103.40 40.59 103.33 42.36 103.27 44.13 C 106.26 44.53 109.27 44.91 112.26 45.32 C 107.09 45.33 101.72 48.72 96.60 46.62 C 93.31 45.64 89.90 45.18 86.56 44.42 C 89.85 43.23 93.24 43.41 96.61 43.96 C 101.12 46.03 101.82 41.34 103.42 38.82 Z" />
<path fill="#4378cb" opacity="1.00" d=" M 34.88 42.82 C 38.97 45.62 44.12 43.74 47.03 40.13 C 46.66 41.49 46.30 42.86 45.93 44.22 C 49.41 45.16 52.93 45.98 56.44 46.78 C 53.02 46.73 49.61 46.67 46.20 46.42 C 45.40 47.36 44.61 48.30 43.83 49.24 C 40.50 45.63 35.55 44.94 30.91 45.68 C 32.24 44.74 33.56 43.78 34.88 42.82 Z" />
</g>
<g id="#4279cbff">
<path fill="#4279cb" opacity="1.00" d=" M 155.01 44.16 C 157.50 43.41 158.92 40.98 160.62 39.18 C 160.80 41.19 161.06 43.19 161.38 45.18 C 157.05 47.79 152.35 46.51 148.02 44.71 C 148.22 43.99 148.41 43.27 148.61 42.55 C 150.62 43.40 152.71 44.91 155.01 44.16 Z" />
</g>
<g id="#4379cbff">
<path fill="#4379cb" opacity="1.00" d=" M 198.57 44.18 C 207.02 42.59 215.55 44.74 224.00 45.15 L 224.00 45.88 C 219.83 46.27 215.67 47.20 211.47 47.12 C 207.10 46.50 202.81 45.37 198.57 44.18 Z" />
</g>
<g id="#4c77caff">
<path fill="#4c77ca" opacity="1.00" d=" M 59.69 44.09 C 60.82 44.91 61.95 45.74 63.07 46.59 C 61.83 47.53 60.61 48.49 59.34 49.39 C 58.84 49.45 57.84 49.59 57.35 49.66 C 58.14 47.80 58.95 45.96 59.69 44.09 Z" />
</g>
<g id="#4778d1ff">
<path fill="#4778d1" opacity="1.00" d=" M 113.53 43.53 C 114.85 44.94 116.16 46.37 117.44 47.81 C 116.00 47.88 114.55 47.94 113.11 48.01 C 113.26 46.52 113.40 45.02 113.53 43.53 Z" />
</g>
<g id="#4575cbff">
<path fill="#4575cb" opacity="1.00" d=" M 163.97 44.23 C 164.57 43.17 166.42 43.17 167.03 44.23 C 167.35 46.01 163.65 46.01 163.97 44.23 Z" />
</g>
<g id="#4177ccff">
<path fill="#4177cc" opacity="1.00" d=" M 130.70 47.32 C 131.63 46.82 132.62 46.19 133.73 46.58 C 140.01 48.01 144.89 52.58 150.18 56.00 L 139.14 56.00 C 140.76 55.38 143.99 54.15 145.61 53.53 C 143.22 52.25 140.81 51.01 138.39 49.79 C 138.27 51.08 138.16 52.38 138.05 53.67 C 135.61 51.54 132.98 49.63 130.70 47.32 Z" />
</g>
<g id="#557cc4fe">
<path fill="#557cc4" opacity="1.00" d=" M 1.73 48.74 C 5.46 49.03 9.61 49.42 12.19 52.51 C 11.66 52.32 10.62 51.95 10.09 51.76 C 9.03 51.39 7.97 51.01 6.92 50.63 C 5.62 50.16 3.03 49.21 1.73 48.74 Z" />
</g>
<g id="#4b659eff">
<path fill="#4b659e" opacity="1.00" d=" M 0.00 48.50 C 0.43 48.56 1.30 48.68 1.73 48.74 C 3.03 49.21 5.62 50.16 6.92 50.63 C 5.19 50.65 1.73 50.69 0.00 50.71 L 0.00 48.50 Z" />
</g>
<g id="#42689dff">
<path fill="#42689d" opacity="1.00" d=" M 112.84 49.93 C 115.71 49.91 118.67 49.53 121.50 50.15 C 122.75 51.55 123.30 53.40 124.17 55.04 C 120.61 52.89 116.63 51.60 112.63 50.57 L 112.84 49.93 Z" />
</g>
<g id="#315a8cff">
<path fill="#315a8c" opacity="1.00" d=" M 56.49 51.72 C 56.77 51.03 57.06 50.34 57.35 49.66 C 57.84 49.59 58.84 49.45 59.34 49.39 C 60.60 49.83 61.84 50.32 63.06 50.86 C 61.59 51.06 58.63 51.47 57.16 51.67 L 56.49 51.72 Z" />
</g>
<g id="#2f5b84ff">
<path fill="#2f5b84" opacity="1.00" d=" M 168.50 50.00 C 170.17 49.96 173.52 49.87 175.19 49.83 L 174.52 50.84 C 173.15 51.00 170.43 51.33 169.06 51.49 L 168.13 51.54 C 168.22 51.16 168.41 50.39 168.50 50.00 Z" />
</g>
<g id="#607aafff">
<path fill="#607aaf" opacity="1.00" d=" M 175.19 49.83 C 177.50 51.59 179.41 53.79 181.27 56.00 L 179.90 56.00 C 177.98 54.42 176.16 52.71 174.52 50.84 L 175.19 49.83 Z" />
</g>
<g id="#24393dff">
<path fill="#24393d" opacity="1.00" d=" M 0.00 50.71 C 1.73 50.69 5.19 50.65 6.92 50.63 C 8.40 52.49 9.93 54.32 11.62 56.00 L 7.69 56.00 C 5.13 54.38 2.56 52.76 0.00 51.14 L 0.00 50.71 Z" />
</g>
<g id="#5f7da3ff">
<path fill="#5f7da3" opacity="1.00" d=" M 6.92 50.63 C 7.97 51.01 9.03 51.39 10.09 51.76 C 10.96 53.19 11.83 54.62 12.77 56.00 L 11.62 56.00 C 9.93 54.32 8.40 52.49 6.92 50.63 Z" />
</g>
<g id="#436ca4ff">
<path fill="#436ca4" opacity="1.00" d=" M 25.15 56.00 C 25.91 54.20 26.71 52.42 27.53 50.66 C 27.74 52.44 27.94 54.22 28.14 56.00 L 25.15 56.00 Z" />
</g>
<g id="#203b3cff">
<path fill="#203b3c" opacity="1.00" d=" M 57.16 51.67 C 58.63 51.47 61.59 51.06 63.06 50.86 C 64.66 52.64 66.31 54.37 68.05 56.00 L 64.58 56.00 C 63.81 55.27 62.26 53.81 61.49 53.08 C 60.09 52.48 58.62 52.06 57.16 51.67 Z" />
</g>
<g id="#6286a8ff">
<path fill="#6286a8" opacity="1.00" d=" M 63.06 50.86 C 65.49 52.24 67.50 54.19 69.61 56.00 L 68.05 56.00 C 66.31 54.37 64.66 52.64 63.06 50.86 Z" />
</g>
<g id="#244048ff">
<path fill="#244048" opacity="1.00" d=" M 112.63 50.57 C 116.63 51.60 120.61 52.89 124.17 55.04 L 124.67 56.00 L 119.27 56.00 C 118.46 54.94 117.67 53.88 116.89 52.80 C 115.37 52.41 113.84 52.02 112.32 51.64 L 112.63 50.57 Z" />
</g>
<g id="#203b43ff">
<path fill="#203b43" opacity="1.00" d=" M 169.06 51.49 C 170.43 51.33 173.15 51.00 174.52 50.84 C 176.16 52.71 177.98 54.42 179.90 56.00 L 176.61 56.00 C 174.21 54.31 171.85 52.51 169.06 51.49 Z" />
</g>
<g id="#7c9c74ff">
<path fill="#7c9c74" opacity="1.00" d=" M 0.00 51.14 C 2.56 52.76 5.13 54.38 7.69 56.00 L 6.47 56.00 C 4.34 54.89 2.21 53.78 0.00 52.81 L 0.00 51.14 Z" />
</g>
<g id="#70a0cfff">
<path fill="#70a0cf" opacity="1.00" d=" M 10.09 51.76 C 10.62 51.95 11.66 52.32 12.19 52.51 C 13.33 53.62 14.36 54.84 15.46 56.00 L 12.77 56.00 C 11.83 54.62 10.96 53.19 10.09 51.76 Z" />
</g>
<g id="#709d86ff">
<path fill="#709d86" opacity="1.00" d=" M 56.49 51.72 L 57.16 51.67 C 58.62 52.06 60.09 52.48 61.49 53.08 C 59.41 53.91 57.42 54.95 55.44 56.00 L 54.65 56.00 C 55.29 54.58 55.90 53.16 56.49 51.72 Z" />
</g>
<g id="#6e9a88ff">
<path fill="#6e9a88" opacity="1.00" d=" M 112.32 51.64 C 113.84 52.02 115.37 52.41 116.89 52.80 C 115.03 53.50 113.17 54.20 111.36 55.04 C 111.60 54.19 112.08 52.49 112.32 51.64 Z" />
</g>
<g id="#72a072ff">
<path fill="#72a072" opacity="1.00" d=" M 168.13 51.54 L 169.06 51.49 C 171.85 52.51 174.21 54.31 176.61 56.00 L 174.05 56.00 C 173.10 55.25 172.17 54.49 171.25 53.71 C 170.20 54.48 169.15 55.25 168.08 56.00 L 167.23 56.00 C 167.52 54.51 167.82 53.03 168.13 51.54 Z" />
</g>
<g id="#759d51ff">
<path fill="#759d51" opacity="1.00" d=" M 0.00 52.81 C 2.21 53.78 4.34 54.89 6.47 56.00 L 0.00 56.00 L 0.00 52.81 Z" />
</g>
<g id="#6e9b56fe">
<path fill="#6e9b56" opacity="1.00" d=" M 55.44 56.00 C 57.42 54.95 59.41 53.91 61.49 53.08 C 62.26 53.81 63.81 55.27 64.58 56.00 L 55.44 56.00 Z" />
</g>
<g id="#75a064ff">
<path fill="#75a064" opacity="1.00" d=" M 111.36 55.04 C 113.17 54.20 115.03 53.50 116.89 52.80 C 117.67 53.88 118.46 54.94 119.27 56.00 L 111.04 56.00 L 111.36 55.04 Z" />
</g>
<g id="#669946ff">
<path fill="#669946" opacity="1.00" d=" M 168.08 56.00 C 169.15 55.25 170.20 54.48 171.25 53.71 C 172.17 54.49 173.10 55.25 174.05 56.00 L 168.08 56.00 Z" />
</g>
</svg>
