<?xml version="1.0" encoding="UTF-8" ?>
<!DOCTYPE svg PUBLIC "-//W3C//DTD SVG 1.1//EN" "http://www.w3.org/Graphics/SVG/1.1/DTD/svg11.dtd">
<svg width="224pt" height="56pt" viewBox="0 0 224 56" version="1.1" xmlns="http://www.w3.org/2000/svg">
<g id="#739f5cff">
<path fill="#739f5c" opacity="1.00" d=" M 0.00 0.00 L 224.00 0.00 L 224.00 3.72 C 223.56 3.67 222.68 3.57 222.24 3.51 C 219.06 3.08 215.85 3.04 212.66 3.25 L 211.67 3.29 C 211.48 1.94 210.67 1.38 209.25 1.61 C 207.12 1.72 205.00 1.75 202.88 1.71 C 201.54 1.57 200.64 2.16 200.18 3.46 C 197.03 4.42 193.87 5.41 190.60 5.81 C 189.82 5.41 189.04 5.02 188.25 4.64 C 185.99 3.53 183.77 2.33 181.45 1.35 C 176.46 2.68 171.43 5.87 166.14 4.05 C 163.05 3.25 159.86 2.96 156.67 3.19 L 155.68 3.22 C 155.47 1.88 154.65 1.33 153.23 1.58 C 151.11 1.70 148.99 1.76 146.88 1.71 C 145.55 1.58 144.65 2.16 144.17 3.46 C 141.03 4.42 137.87 5.41 134.60 5.81 C 133.82 5.41 133.04 5.02 132.25 4.64 C 129.99 3.53 127.77 2.33 125.45 1.35 C 120.46 2.68 115.43 5.87 110.14 4.05 C 107.05 3.25 103.86 2.96 100.67 3.19 L 99.68 3.22 C 99.47 1.88 98.65 1.33 97.23 1.58 C 95.11 1.70 92.99 1.76 90.88 1.71 C 89.55 1.58 88.65 2.16 88.17 3.46 C 85.03 4.42 81.87 5.41 78.60 5.81 C 77.82 5.41 77.04 5.02 76.25 4.64 C 73.99 3.53 71.77 2.33 69.45 1.35 C 64.46 2.68 59.43 5.87 54.14 4.05 C 51.05 3.25 47.86 2.96 44.67 3.19 L 43.68 3.22 C 43.47 1.88 42.65 1.33 41.23 1.58 C 39.11 1.70 36.99 1.76 34.88 1.71 C 33.55 1.58 32.65 2.16 32.17 3.45 C 29.04 4.42 25.89 5.41 22.63 5.81 C 21.85 5.38 21.08 4.96 20.30 4.56 C 18.22 3.63 16.31 1.93 13.99 1.83 C 9.02 2.19 4.35 4.11 0.00 6.43 L 0.00 0.00 Z" />
</g>
<g id="#5e8e65fe">
<path fill="#5e8e65" opacity="1.00" d=" M 13.99 1.83 C 16.31 1.93 18.22 3.63 20.30 4.56 C 18.02 3.73 15.68 3.08 13.36 2.40 L 13.99 1.83 Z" />
<path fill="#5e8e65" opacity="1.00" d=" M 69.45 1.35 C 71.77 2.33 73.99 3.53 76.25 4.64 C 73.94 3.79 71.57 3.10 69.24 2.30 L 69.45 1.35 Z" />
<path fill="#5e8e65" opacity="1.00" d=" M 125.45 1.35 C 127.77 2.33 129.99 3.53 132.25 4.64 C 129.94 3.79 127.57 3.10 125.24 2.30 L 125.45 1.35 Z" />
<path fill="#5e8e65" opacity="1.00" d=" M 181.45 1.35 C 183.77 2.33 185.99 3.53 188.25 4.64 C 185.94 3.79 183.57 3.10 181.24 2.30 L 181.45 1.35 Z" />
</g>
<g id="#342f2bff">
<path fill="#342f2b" opacity="1.00" d=" M 0.00 6.43 C 4.35 4.11 9.02 2.19 13.99 1.83 L 13.36 2.40 C 12.91 2.84 12.00 3.71 11.55 4.14 C 15.20 4.94 18.87 5.83 22.63 5.81 C 25.89 5.41 29.04 4.42 32.17 3.45 C 33.70 3.67 34.61 3.09 34.88 1.71 C 36.99 1.76 39.11 1.70 41.23 1.58 C 41.45 2.91 42.26 3.46 43.68 3.22 L 44.67 3.19 C 47.83 3.40 51.00 3.60 54.14 4.05 C 59.43 5.87 64.46 2.68 69.45 1.35 L 69.24 2.30 C 69.11 2.86 68.83 3.99 68.70 4.55 C 71.97 5.15 75.26 5.73 78.60 5.81 C 81.87 5.41 85.03 4.42 88.17 3.46 C 89.70 3.67 90.61 3.09 90.88 1.71 C 92.99 1.76 95.11 1.70 97.23 1.58 C 97.45 2.91 98.26 3.46 99.68 3.22 L 100.67 3.19 C 103.83 3.40 107.00 3.60 110.14 4.05 C 115.43 5.87 120.46 2.68 125.45 1.35 L 125.24 2.30 C 125.11 2.86 124.83 3.99 124.70 4.55 C 127.97 5.15 131.26 5.73 134.60 5.81 C 137.87 5.41 141.03 4.42 144.17 3.46 C 145.70 3.67 146.60 3.09 146.88 1.71 C 148.99 1.76 151.11 1.70 153.23 1.58 C 153.45 2.91 154.26 3.46 155.68 3.22 L 156.67 3.19 C 159.82 3.40 163.00 3.60 166.14 4.05 C 171.43 5.87 176.46 2.68 181.45 1.35 L 181.24 2.30 C 181.11 2.86 180.83 3.99 180.70 4.55 C 183.97 5.15 187.26 5.73 190.60 5.81 C 193.87 5.41 197.03 4.42 200.18 3.46 C 201.70 3.66 202.60 3.08 202.88 1.71 C 205.00 1.75 207.12 1.72 209.25 1.61 C 209.45 2.96 210.25 3.51 211.67 3.29 L 212.66 3.25 C 215.84 3.28 219.05 3.32 222.24 3.51 C 222.68 3.57 223.56 3.67 224.00 3.72 L 224.00 16.90 C 222.71 16.30 221.85 16.64 221.41 17.93 L 220.45 17.73 C 219.56 17.52 218.67 17.31 217.79 17.09 C 217.46 16.72 216.80 15.99 216.47 15.62 C 217.87 15.23 219.15 14.53 220.35 13.71 C 220.85 13.39 221.86 12.74 222.36 12.42 C 222.13 11.79 221.90 11.17 221.67 10.54 C 220.11 10.44 218.56 10.34 217.01 10.24 C 215.46 8.56 213.83 6.94 212.17 5.38 C 212.81 7.51 213.57 9.62 214.35 11.71 C 213.29 12.22 212.22 12.73 211.16 13.24 C 212.48 13.87 213.81 14.49 215.12 15.17 L 215.56 15.58 C 215.55 15.97 215.51 16.75 215.50 17.14 C 214.96 17.02 213.87 16.77 213.33 16.65 C 212.97 16.62 212.26 16.56 211.90 16.53 C 210.50 16.54 209.91 17.24 210.15 18.63 L 210.02 17.87 C 209.70 16.05 209.47 14.22 209.31 12.38 C 209.27 12.06 209.19 11.43 209.16 11.12 C 208.77 9.43 208.68 6.68 206.39 6.55 C 204.56 5.89 203.12 7.53 201.74 8.43 C 201.69 6.85 201.65 5.26 201.60 3.67 C 201.05 5.88 200.49 8.09 199.91 10.29 C 199.78 10.73 199.54 11.63 199.41 12.07 C 199.02 13.50 198.64 14.93 198.20 16.35 C 197.65 17.11 197.09 17.87 196.50 18.60 L 195.83 18.93 L 194.86 19.02 C 195.21 17.07 195.59 15.11 196.00 13.17 C 196.31 11.69 196.63 10.22 197.00 8.75 C 197.12 8.33 197.36 7.48 197.48 7.06 C 195.58 7.76 193.69 8.47 191.79 9.17 C 187.82 8.73 183.56 9.09 180.18 6.49 C 179.17 10.38 178.23 14.79 180.81 18.29 C 180.54 18.42 180.01 18.68 179.75 18.81 C 179.33 19.07 178.48 19.59 178.06 19.85 C 177.98 18.54 177.91 17.24 177.84 15.93 C 175.89 16.23 173.95 16.52 172.00 16.82 C 172.43 17.18 173.27 17.91 173.70 18.28 C 174.29 18.54 175.47 19.08 176.06 19.35 L 176.15 20.20 C 173.70 19.55 171.26 18.88 168.84 18.11 L 167.82 17.78 C 168.01 16.11 165.91 15.43 165.03 16.83 L 164.24 16.74 C 162.39 16.40 160.56 15.96 158.75 15.44 C 160.78 15.88 162.84 15.17 164.38 13.81 C 164.88 13.46 165.88 12.75 166.37 12.40 C 166.16 11.83 165.95 11.26 165.75 10.69 C 164.13 10.54 162.51 10.40 160.89 10.25 C 159.54 8.62 158.16 7.02 156.78 5.42 C 157.41 8.53 157.73 11.81 155.82 14.57 C 156.41 14.75 157.01 14.93 157.61 15.11 C 157.25 15.19 156.53 15.34 156.17 15.42 C 154.79 15.57 154.17 16.30 154.30 17.61 L 154.06 16.84 C 153.60 15.39 153.18 13.93 152.82 12.45 C 152.85 12.14 152.93 11.51 152.96 11.20 C 153.12 9.92 153.30 8.63 153.48 7.35 C 150.84 6.73 147.89 6.22 145.80 8.46 C 145.70 6.84 145.61 5.23 145.51 3.61 C 144.81 5.73 144.12 7.86 143.55 10.01 C 143.73 12.39 144.30 14.71 145.00 16.98 C 144.32 16.36 143.62 15.75 142.93 15.13 C 142.10 15.90 141.26 16.66 140.41 17.41 L 139.77 17.77 L 138.88 17.96 C 139.24 16.35 139.60 14.75 139.97 13.15 C 140.31 11.68 140.66 10.22 141.04 8.76 C 141.16 8.33 141.40 7.49 141.52 7.06 C 139.60 7.76 137.69 8.47 135.78 9.17 C 131.82 8.73 127.56 9.09 124.19 6.49 C 123.33 10.21 122.20 14.39 124.54 17.82 C 124.35 17.89 123.97 18.03 123.78 18.10 C 123.38 18.28 122.58 18.64 122.18 18.82 C 122.06 18.19 121.81 16.93 121.69 16.30 C 120.54 16.13 119.39 15.96 118.24 15.79 C 118.67 16.99 119.12 18.19 119.54 19.39 C 116.87 18.53 114.20 17.65 111.54 16.74 C 110.73 15.73 108.42 15.95 109.10 17.62 L 108.27 17.56 C 107.42 17.47 106.58 17.37 105.74 17.27 C 105.43 16.87 104.81 16.07 104.50 15.68 C 105.89 15.27 107.16 14.54 108.34 13.72 C 108.84 13.39 109.85 12.73 110.36 12.40 C 110.13 11.78 109.90 11.16 109.67 10.54 C 108.12 10.44 106.56 10.34 105.01 10.24 C 103.46 8.56 101.84 6.94 100.17 5.38 C 100.81 7.51 101.57 9.62 102.35 11.71 C 101.29 12.22 100.22 12.73 99.16 13.24 C 100.49 13.87 101.83 14.50 103.15 15.19 L 103.60 15.61 C 103.57 16.00 103.51 16.78 103.48 17.17 C 102.94 17.04 101.87 16.78 101.34 16.65 C 100.98 16.62 100.26 16.55 99.91 16.52 C 98.50 16.53 97.91 17.24 98.16 18.63 L 98.02 17.87 C 97.70 16.05 97.48 14.22 97.31 12.38 C 97.27 12.06 97.19 11.43 97.16 11.12 C 96.77 9.43 96.68 6.68 94.39 6.55 C 92.56 5.89 91.12 7.53 89.74 8.43 C 89.69 6.85 89.65 5.26 89.60 3.67 C 89.05 5.88 88.49 8.09 87.91 10.29 C 87.78 10.73 87.54 11.63 87.41 12.07 C 87.02 13.50 86.64 14.93 86.20 16.35 C 85.65 17.12 85.09 17.87 84.50 18.60 L 83.83 18.93 L 82.86 19.02 C 83.22 17.06 83.59 15.11 84.00 13.17 C 84.31 11.69 84.64 10.22 85.00 8.75 C 85.12 8.33 85.36 7.48 85.48 7.06 C 83.58 7.76 81.69 8.47 79.80 9.17 C 75.82 8.73 71.56 9.10 68.18 6.49 C 67.17 10.38 66.23 14.79 68.81 18.29 C 68.55 18.42 68.02 18.68 67.75 18.81 C 67.33 19.07 66.48 19.58 66.05 19.84 C 65.98 18.54 65.91 17.24 65.84 15.93 C 63.89 16.23 61.94 16.52 60.00 16.82 C 60.42 17.19 61.27 17.91 61.70 18.27 C 62.29 18.54 63.48 19.07 64.07 19.33 L 64.16 20.21 C 61.19 19.35 58.24 18.48 55.26 17.65 C 54.00 16.99 52.11 17.14 51.64 18.72 C 51.16 18.53 50.20 18.15 49.72 17.96 C 49.41 17.44 48.79 16.39 48.48 15.87 C 49.84 15.48 51.01 14.67 52.16 13.87 C 52.72 13.49 53.85 12.74 54.41 12.37 C 54.18 11.82 53.95 11.27 53.73 10.72 C 52.15 10.54 50.57 10.36 49.00 10.19 C 47.45 8.52 45.83 6.93 44.17 5.38 C 44.81 7.49 45.54 9.57 46.31 11.64 C 45.25 12.23 44.20 12.84 43.13 13.43 C 44.90 14.73 46.60 16.10 48.34 17.43 C 47.58 17.43 46.07 17.44 45.31 17.44 C 44.96 17.46 44.26 17.49 43.92 17.51 C 42.53 17.51 41.88 18.17 41.97 19.49 L 41.63 18.71 C 41.45 16.58 41.42 14.44 41.40 12.31 C 41.36 11.97 41.30 11.31 41.26 10.97 C 40.83 9.31 40.60 6.71 38.40 6.55 C 36.57 5.87 35.12 7.54 33.73 8.42 C 33.69 6.84 33.64 5.25 33.59 3.67 C 33.00 5.87 32.45 8.08 31.89 10.29 C 31.77 10.74 31.54 11.65 31.42 12.10 C 31.00 13.81 30.61 15.52 30.15 17.22 C 29.60 17.99 29.04 18.75 28.45 19.49 L 27.79 19.84 L 26.86 19.98 C 27.69 18.53 27.25 16.84 27.07 15.29 C 27.23 14.76 27.55 13.70 27.72 13.17 C 28.16 11.70 28.60 10.22 29.07 8.76 C 29.21 8.34 29.50 7.50 29.65 7.08 C 27.69 7.77 25.73 8.46 23.78 9.16 C 19.80 8.74 15.51 9.09 12.14 6.47 C 11.45 10.61 11.11 14.84 11.78 19.01 C 11.82 19.44 11.91 20.31 11.95 20.74 C 11.69 20.48 11.18 19.97 10.92 19.71 C 10.28 18.48 9.65 17.25 9.04 16.01 C 6.91 16.47 4.76 16.92 2.62 17.32 C 3.54 17.78 4.47 18.23 5.41 18.67 C 6.04 18.86 7.30 19.24 7.94 19.42 C 8.07 19.86 8.34 20.72 8.47 21.15 C 5.63 20.47 2.81 19.71 0.00 18.92 L 0.00 6.43 M 8.22 11.78 C 5.80 14.40 11.20 14.40 8.78 11.78 C 9.66 10.04 9.33 7.72 8.62 5.97 C 7.43 7.20 7.45 10.15 8.22 11.78 M 49.04 5.85 C 49.03 6.65 49.01 8.26 49.00 9.06 C 49.70 9.02 51.11 8.93 51.81 8.89 C 52.23 7.80 52.65 6.71 53.06 5.63 C 51.72 5.70 50.38 5.78 49.04 5.85 M 64.22 11.78 C 61.80 14.40 67.20 14.40 64.78 11.78 C 65.66 10.04 65.33 7.72 64.62 5.97 C 63.43 7.20 63.45 10.15 64.22 11.78 M 105.11 6.19 C 105.07 6.89 104.98 8.30 104.94 9.00 C 105.74 8.99 107.35 8.97 108.15 8.96 C 108.22 7.62 108.30 6.28 108.37 4.94 C 107.28 5.35 106.20 5.77 105.11 6.19 M 120.22 11.78 C 117.80 14.40 123.20 14.40 120.78 11.78 C 121.66 10.04 121.33 7.72 120.62 5.97 C 119.43 7.20 119.45 10.15 120.22 11.78 M 161.04 5.85 C 161.03 6.65 161.01 8.26 161.00 9.06 C 161.70 9.02 163.11 8.93 163.81 8.89 C 164.23 7.80 164.65 6.71 165.06 5.63 C 163.72 5.70 162.38 5.78 161.04 5.85 M 176.22 11.78 C 173.80 14.40 179.20 14.40 176.78 11.78 C 177.66 10.04 177.33 7.72 176.62 5.97 C 175.43 7.20 175.45 10.15 176.22 11.78 M 217.04 5.85 C 217.03 6.65 217.01 8.26 217.00 9.06 C 217.70 9.02 219.11 8.93 219.81 8.89 C 220.23 7.80 220.65 6.71 221.06 5.63 C 219.72 5.70 218.38 5.78 217.04 5.85 M 3.49 8.09 C 4.13 10.56 4.81 13.02 5.56 15.46 C 5.81 12.97 6.00 10.48 6.18 7.99 C 5.50 8.02 4.16 8.07 3.49 8.09 M 59.49 8.09 C 60.13 10.56 60.81 13.02 61.56 15.46 C 61.81 12.97 62.00 10.48 62.18 7.99 C 61.50 8.02 60.16 8.07 59.49 8.09 M 115.49 8.09 C 116.13 10.56 116.81 13.02 117.56 15.46 C 117.81 12.97 118.00 10.48 118.18 7.99 C 117.50 8.02 116.16 8.07 115.49 8.09 M 171.49 8.09 C 172.13 10.56 172.81 13.02 173.56 15.46 C 173.81 12.97 174.00 10.48 174.18 7.99 C 173.50 8.02 172.16 8.07 171.49 8.09 Z" />
</g>
<g id="#565249ff">
<path fill="#565249" opacity="1.00" d=" M 32.17 3.45 C 32.65 2.16 33.55 1.58 34.88 1.71 C 34.61 3.09 33.70 3.67 32.17 3.45 Z" />
<path fill="#565249" opacity="1.00" d=" M 41.23 1.58 C 42.65 1.33 43.47 1.88 43.68 3.22 C 42.26 3.46 41.45 2.91 41.23 1.58 Z" />
<path fill="#565249" opacity="1.00" d=" M 44.67 3.19 C 47.86 2.96 51.05 3.25 54.14 4.05 C 51.00 3.60 47.83 3.40 44.67 3.19 Z" />
<path fill="#565249" opacity="1.00" d=" M 88.17 3.46 C 88.65 2.16 89.55 1.58 90.88 1.71 C 90.61 3.09 89.70 3.67 88.17 3.46 Z" />
<path fill="#565249" opacity="1.00" d=" M 97.23 1.58 C 98.65 1.33 99.47 1.88 99.68 3.22 C 98.26 3.46 97.45 2.91 97.23 1.58 Z" />
<path fill="#565249" opacity="1.00" d=" M 100.67 3.19 C 103.86 2.96 107.05 3.25 110.14 4.05 C 107.00 3.60 103.83 3.40 100.67 3.19 Z" />
<path fill="#565249" opacity="1.00" d=" M 144.17 3.46 C 144.65 2.16 145.55 1.58 146.88 1.71 C 146.60 3.09 145.70 3.67 144.17 3.46 Z" />
<path fill="#565249" opacity="1.00" d=" M 153.23 1.58 C 154.65 1.33 155.47 1.88 155.68 3.22 C 154.26 3.46 153.45 2.91 153.23 1.58 Z" />
<path fill="#565249" opacity="1.00" d=" M 156.67 3.19 C 159.86 2.96 163.05 3.25 166.14 4.05 C 163.00 3.60 159.82 3.40 156.67 3.19 Z" />
<path fill="#565249" opacity="1.00" d=" M 200.18 3.46 C 200.64 2.16 201.54 1.57 202.88 1.71 C 202.60 3.08 201.70 3.66 200.18 3.46 Z" />
<path fill="#565249" opacity="1.00" d=" M 209.25 1.61 C 210.67 1.38 211.48 1.94 211.67 3.29 C 210.25 3.51 209.45 2.96 209.25 1.61 Z" />
<path fill="#565249" opacity="1.00" d=" M 212.66 3.25 C 215.85 3.04 219.06 3.08 222.24 3.51 C 219.05 3.32 215.84 3.28 212.66 3.25 Z" />
<path fill="#565249" opacity="1.00" d=" M 31.89 10.29 C 32.45 8.08 33.00 5.87 33.59 3.67 C 33.64 5.25 33.69 6.84 33.73 8.42 C 33.27 8.89 32.35 9.82 31.89 10.29 Z" />
<path fill="#565249" opacity="1.00" d=" M 87.91 10.29 C 88.49 8.09 89.05 5.88 89.60 3.67 C 89.65 5.26 89.69 6.85 89.74 8.43 C 89.28 8.90 88.37 9.82 87.91 10.29 Z" />
<path fill="#565249" opacity="1.00" d=" M 143.55 10.01 C 144.12 7.86 144.81 5.73 145.51 3.61 C 145.61 5.23 145.70 6.84 145.80 8.46 C 145.24 8.85 144.11 9.63 143.55 10.01 Z" />
<path fill="#565249" opacity="1.00" d=" M 199.91 10.29 C 200.49 8.09 201.05 5.88 201.60 3.67 C 201.65 5.26 201.69 6.85 201.74 8.43 C 201.28 8.90 200.37 9.82 199.91 10.29 Z" />
<path fill="#565249" opacity="1.00" d=" M 49.04 5.85 C 50.38 5.78 51.72 5.70 53.06 5.63 C 52.65 6.71 52.23 7.80 51.81 8.89 C 51.11 8.93 49.70 9.02 49.00 9.06 C 49.01 8.26 49.03 6.65 49.04 5.85 Z" />
<path fill="#565249" opacity="1.00" d=" M 105.11 6.19 C 106.20 5.77 107.28 5.35 108.37 4.94 C 108.30 6.28 108.22 7.62 108.15 8.96 C 107.35 8.97 105.74 8.99 104.94 9.00 C 104.98 8.30 105.07 6.89 105.11 6.19 Z" />
<path fill="#565249" opacity="1.00" d=" M 161.04 5.85 C 162.38 5.78 163.72 5.70 165.06 5.63 C 164.65 6.71 164.23 7.80 163.81 8.89 C 163.11 8.93 161.70 9.02 161.00 9.06 C 161.01 8.26 161.03 6.65 161.04 5.85 Z" />
<path fill="#565249" opacity="1.00" d=" M 217.04 5.85 C 218.38 5.78 219.72 5.70 221.06 5.63 C 220.65 6.71 220.23 7.80 219.81 8.89 C 219.11 8.93 217.70 9.02 217.00 9.06 C 217.01 8.26 217.03 6.65 217.04 5.85 Z" />
<path fill="#565249" opacity="1.00" d=" M 26.22 20.05 C 25.13 18.47 26.21 16.67 27.07 15.29 C 27.25 16.84 27.69 18.53 26.86 19.98 L 26.22 20.05 Z" />
<path fill="#565249" opacity="1.00" d=" M 103.60 15.61 L 104.50 15.68 C 104.81 16.07 105.43 16.87 105.74 17.27 C 105.17 17.24 104.04 17.19 103.48 17.17 C 103.51 16.78 103.57 16.00 103.60 15.61 Z" />
<path fill="#565249" opacity="1.00" d=" M 215.56 15.58 L 216.47 15.62 C 216.80 15.99 217.46 16.72 217.79 17.09 C 217.21 17.10 216.07 17.13 215.50 17.14 C 215.51 16.75 215.55 15.97 215.56 15.58 Z" />
</g>
<g id="#5a5347ff">
<path fill="#5a5347" opacity="1.00" d=" M 11.55 4.14 C 12.00 3.71 12.91 2.84 13.36 2.40 C 15.68 3.08 18.02 3.73 20.30 4.56 C 21.08 4.96 21.85 5.38 22.63 5.81 C 18.87 5.83 15.20 4.94 11.55 4.14 Z" />
<path fill="#5a5347" opacity="1.00" d=" M 68.70 4.55 C 68.83 3.99 69.11 2.86 69.24 2.30 C 71.57 3.10 73.94 3.79 76.25 4.64 C 77.04 5.02 77.82 5.41 78.60 5.81 C 75.26 5.73 71.97 5.15 68.70 4.55 Z" />
<path fill="#5a5347" opacity="1.00" d=" M 124.70 4.55 C 124.83 3.99 125.11 2.86 125.24 2.30 C 127.57 3.10 129.94 3.79 132.25 4.64 C 133.04 5.02 133.82 5.41 134.60 5.81 C 131.26 5.73 127.97 5.15 124.70 4.55 Z" />
<path fill="#5a5347" opacity="1.00" d=" M 180.70 4.55 C 180.83 3.99 181.11 2.86 181.24 2.30 C 183.57 3.10 185.94 3.79 188.25 4.64 C 189.04 5.02 189.82 5.41 190.60 5.81 C 187.26 5.73 183.97 5.15 180.70 4.55 Z" />
</g>
<g id="#77694cfe">
<path fill="#77694c" opacity="1.00" d=" M 8.22 11.78 C 7.45 10.15 7.43 7.20 8.62 5.97 C 9.33 7.72 9.66 10.04 8.78 11.78 L 8.22 11.78 Z" />
<path fill="#77694c" opacity="1.00" d=" M 64.22 11.78 C 63.45 10.15 63.43 7.20 64.62 5.97 C 65.33 7.72 65.66 10.04 64.78 11.78 L 64.22 11.78 Z" />
<path fill="#77694c" opacity="1.00" d=" M 120.22 11.78 C 119.45 10.15 119.43 7.20 120.62 5.97 C 121.33 7.72 121.66 10.04 120.78 11.78 L 120.22 11.78 Z" />
<path fill="#77694c" opacity="1.00" d=" M 176.22 11.78 C 175.45 10.15 175.43 7.20 176.62 5.97 C 177.33 7.72 177.66 10.04 176.78 11.78 L 176.22 11.78 Z" />
</g>
<g id="#72624dff">
<path fill="#72624d" opacity="1.00" d=" M 33.73 8.42 C 35.12 7.54 36.57 5.87 38.40 6.55 C 40.60 6.71 40.83 9.31 41.26 10.97 C 39.30 10.51 37.58 11.79 36.26 13.07 C 35.89 13.39 35.16 14.03 34.79 14.35 C 33.66 13.61 32.54 12.86 31.42 12.10 C 31.54 11.65 31.77 10.74 31.89 10.29 C 32.35 9.82 33.27 8.89 33.73 8.42 Z" />
<path fill="#72624d" opacity="1.00" d=" M 89.74 8.43 C 91.12 7.53 92.56 5.89 94.39 6.55 C 96.68 6.68 96.77 9.43 97.16 11.12 C 95.33 10.87 93.72 11.91 92.27 12.87 C 91.77 13.17 90.78 13.77 90.28 14.07 C 89.31 13.41 88.36 12.75 87.41 12.07 C 87.54 11.63 87.78 10.73 87.91 10.29 C 88.37 9.82 89.28 8.90 89.74 8.43 Z" />
<path fill="#72624d" opacity="1.00" d=" M 201.74 8.43 C 203.12 7.53 204.56 5.89 206.39 6.55 C 208.68 6.68 208.77 9.43 209.16 11.12 C 207.33 10.87 205.72 11.91 204.27 12.87 C 203.77 13.17 202.78 13.77 202.28 14.07 C 201.31 13.41 200.36 12.75 199.41 12.07 C 199.54 11.63 199.78 10.73 199.91 10.29 C 200.37 9.82 201.28 8.90 201.74 8.43 Z" />
<path fill="#72624d" opacity="1.00" d=" M 135.09 12.11 C 136.72 12.45 138.34 12.80 139.97 13.15 C 139.60 14.75 139.24 16.35 138.88 17.96 C 138.19 17.99 136.80 18.06 136.11 18.09 C 135.83 16.09 135.48 14.10 135.09 12.11 Z" />
</g>
<g id="#6d614fff">
<path fill="#6d614f" opacity="1.00" d=" M 145.80 8.46 C 147.89 6.22 150.84 6.73 153.48 7.35 C 153.30 8.63 153.12 9.92 152.96 11.20 C 151.29 10.79 149.50 11.38 148.51 12.82 C 148.06 13.30 147.16 14.27 146.72 14.75 C 147.59 15.90 148.46 17.05 149.34 18.20 C 148.78 18.50 147.65 19.11 147.09 19.41 C 146.40 18.59 145.71 17.78 145.00 16.98 C 144.30 14.71 143.73 12.39 143.55 10.01 C 144.11 9.63 145.24 8.85 145.80 8.46 Z" />
</g>
<g id="#5d5649ff">
<path fill="#5d5649" opacity="1.00" d=" M 12.14 6.47 C 15.51 9.09 19.80 8.74 23.78 9.16 C 25.73 8.46 27.69 7.77 29.65 7.08 C 29.50 7.50 29.21 8.34 29.07 8.76 C 27.26 9.95 25.35 10.99 23.45 12.03 C 23.64 14.74 23.70 17.46 23.60 20.17 C 22.49 19.97 21.38 19.78 20.28 19.59 C 20.24 17.77 20.20 15.94 20.15 14.12 C 18.83 14.48 17.51 14.82 16.18 15.17 C 15.57 16.60 14.96 18.04 14.35 19.48 C 13.71 19.36 12.42 19.12 11.78 19.01 C 11.11 14.84 11.45 10.61 12.14 6.47 M 18.11 11.39 C 17.05 11.02 15.53 11.26 14.94 12.32 C 15.01 14.48 20.01 13.07 18.11 11.39 Z" />
<path fill="#5d5649" opacity="1.00" d=" M 68.18 6.49 C 71.56 9.10 75.82 8.73 79.80 9.17 C 81.69 8.47 83.58 7.76 85.48 7.06 C 85.36 7.48 85.12 8.33 85.00 8.75 C 83.14 9.98 81.18 11.04 79.22 12.09 C 79.59 14.43 79.91 16.78 80.17 19.13 L 79.31 19.08 C 78.30 18.98 77.30 18.88 76.29 18.79 C 76.17 17.03 76.01 15.27 75.85 13.51 C 73.86 15.05 71.94 16.69 70.12 18.42 C 69.79 18.39 69.14 18.32 68.81 18.29 C 66.23 14.79 67.17 10.38 68.18 6.49 M 74.11 11.39 C 73.05 11.02 71.53 11.26 70.94 12.32 C 71.01 14.48 76.01 13.07 74.11 11.39 Z" />
<path fill="#5d5649" opacity="1.00" d=" M 180.18 6.49 C 183.56 9.09 187.82 8.73 191.79 9.17 C 193.69 8.47 195.58 7.76 197.48 7.06 C 197.36 7.48 197.12 8.33 197.00 8.75 C 195.14 9.98 193.18 11.04 191.22 12.09 C 191.59 14.43 191.91 16.78 192.17 19.13 L 191.31 19.08 C 190.30 18.98 189.29 18.88 188.29 18.79 C 188.17 17.03 188.01 15.27 187.85 13.51 C 185.86 15.05 183.94 16.69 182.12 18.42 C 181.79 18.39 181.13 18.32 180.81 18.29 C 178.23 14.79 179.17 10.38 180.18 6.49 M 186.11 11.39 C 185.04 11.02 183.52 11.26 182.94 12.32 C 183.00 14.48 188.01 13.07 186.11 11.39 Z" />
</g>
<g id="#63594aff">
<path fill="#63594a" opacity="1.00" d=" M 44.17 5.38 C 45.83 6.93 47.45 8.52 49.00 10.19 C 50.57 10.36 52.15 10.54 53.73 10.72 C 53.95 11.27 54.18 11.82 54.41 12.37 C 53.85 12.74 52.72 13.49 52.16 13.87 C 50.51 12.36 46.34 13.28 48.48 15.87 C 48.79 16.39 49.41 17.44 49.72 17.96 C 49.37 17.83 48.68 17.56 48.34 17.43 C 46.60 16.10 44.90 14.73 43.13 13.43 C 44.20 12.84 45.25 12.23 46.31 11.64 C 45.54 9.57 44.81 7.49 44.17 5.38 Z" />
</g>
<g id="#665b4bff">
<path fill="#665b4b" opacity="1.00" d=" M 100.17 5.38 C 101.84 6.94 103.46 8.56 105.01 10.24 C 106.56 10.34 108.12 10.44 109.67 10.54 C 109.90 11.16 110.13 11.78 110.36 12.40 C 109.85 12.73 108.84 13.39 108.34 13.72 C 106.52 12.98 103.98 13.08 103.15 15.19 C 101.83 14.50 100.49 13.87 99.16 13.24 C 100.22 12.73 101.29 12.22 102.35 11.71 C 101.57 9.62 100.81 7.51 100.17 5.38 Z" />
<path fill="#665b4b" opacity="1.00" d=" M 156.78 5.42 C 158.16 7.02 159.54 8.62 160.89 10.25 C 162.51 10.40 164.13 10.54 165.75 10.69 C 165.95 11.26 166.16 11.83 166.37 12.40 C 165.88 12.75 164.88 13.46 164.38 13.81 C 162.37 12.91 159.90 13.51 158.75 15.44 L 157.61 15.11 C 157.01 14.93 156.41 14.75 155.82 14.57 C 157.73 11.81 157.41 8.53 156.78 5.42 Z" />
<path fill="#665b4b" opacity="1.00" d=" M 212.17 5.38 C 213.83 6.94 215.46 8.56 217.01 10.24 C 218.56 10.34 220.11 10.44 221.67 10.54 C 221.90 11.17 222.13 11.79 222.36 12.42 C 221.86 12.74 220.85 13.39 220.35 13.71 C 218.52 12.94 215.96 13.06 215.12 15.17 C 213.81 14.49 212.48 13.87 211.16 13.24 C 212.22 12.73 213.29 12.22 214.35 11.71 C 213.57 9.62 212.81 7.51 212.17 5.38 Z" />
</g>
<g id="#5e5749ff">
<path fill="#5e5749" opacity="1.00" d=" M 124.19 6.49 C 127.56 9.09 131.82 8.73 135.78 9.17 C 137.69 8.47 139.60 7.76 141.52 7.06 C 141.40 7.49 141.16 8.33 141.04 8.76 C 139.13 10.01 137.11 11.06 135.09 12.11 C 135.48 14.10 135.83 16.09 136.11 18.09 L 135.28 18.04 C 134.21 17.96 133.13 17.88 132.06 17.79 C 132.01 16.82 131.91 14.88 131.86 13.91 C 129.99 15.08 128.10 16.24 126.15 17.28 C 125.75 17.42 124.94 17.68 124.54 17.82 C 122.20 14.39 123.33 10.21 124.19 6.49 M 130.11 11.39 C 129.04 11.02 127.53 11.26 126.94 12.32 C 127.01 14.48 132.01 13.07 130.11 11.39 Z" />
</g>
<g id="#60574aff">
<path fill="#60574a" opacity="1.00" d=" M 3.49 8.09 C 4.16 8.07 5.50 8.02 6.18 7.99 C 6.00 10.48 5.81 12.97 5.56 15.46 C 4.81 13.02 4.13 10.56 3.49 8.09 Z" />
<path fill="#60574a" opacity="1.00" d=" M 59.49 8.09 C 60.16 8.07 61.50 8.02 62.18 7.99 C 62.00 10.48 61.81 12.97 61.56 15.46 C 60.81 13.02 60.13 10.56 59.49 8.09 Z" />
<path fill="#60574a" opacity="1.00" d=" M 115.49 8.09 C 116.16 8.07 117.50 8.02 118.18 7.99 C 118.00 10.48 117.81 12.97 117.56 15.46 C 116.81 13.02 116.13 10.56 115.49 8.09 Z" />
<path fill="#60574a" opacity="1.00" d=" M 171.49 8.09 C 172.16 8.07 173.50 8.02 174.18 7.99 C 174.00 10.48 173.81 12.97 173.56 15.46 C 172.81 13.02 172.13 10.56 171.49 8.09 Z" />
<path fill="#60574a" opacity="1.00" d=" M 8.22 11.78 L 8.78 11.78 C 11.20 14.40 5.80 14.40 8.22 11.78 Z" />
<path fill="#60574a" opacity="1.00" d=" M 64.22 11.78 L 64.78 11.78 C 67.20 14.40 61.80 14.40 64.22 11.78 Z" />
<path fill="#60574a" opacity="1.00" d=" M 120.22 11.78 L 120.78 11.78 C 123.20 14.40 117.80 14.40 120.22 11.78 Z" />
<path fill="#60574a" opacity="1.00" d=" M 176.22 11.78 L 176.78 11.78 C 179.20 14.40 173.80 14.40 176.22 11.78 Z" />
</g>
<g id="#92824dff">
<path fill="#92824d" opacity="1.00" d=" M 23.45 12.03 C 25.35 10.99 27.26 9.95 29.07 8.76 C 28.60 10.22 28.16 11.70 27.72 13.17 C 26.29 12.80 24.87 12.42 23.45 12.03 Z" />
<path fill="#92824d" opacity="1.00" d=" M 79.22 12.09 C 81.18 11.04 83.14 9.98 85.00 8.75 C 84.64 10.22 84.31 11.69 84.00 13.17 C 82.40 12.81 80.81 12.45 79.22 12.09 Z" />
<path fill="#92824d" opacity="1.00" d=" M 135.09 12.11 C 137.11 11.06 139.13 10.01 141.04 8.76 C 140.66 10.22 140.31 11.68 139.97 13.15 C 138.34 12.80 136.72 12.45 135.09 12.11 Z" />
<path fill="#92824d" opacity="1.00" d=" M 191.22 12.09 C 193.18 11.04 195.14 9.98 197.00 8.75 C 196.63 10.22 196.31 11.69 196.00 13.17 C 194.40 12.81 192.81 12.45 191.22 12.09 Z" />
</g>
<g id="#332e2aff">
<path fill="#332e2a" opacity="1.00" d=" M 18.11 11.39 C 20.01 13.07 15.01 14.48 14.94 12.32 C 15.53 11.26 17.05 11.02 18.11 11.39 Z" />
<path fill="#332e2a" opacity="1.00" d=" M 74.11 11.39 C 76.01 13.07 71.01 14.48 70.94 12.32 C 71.53 11.26 73.05 11.02 74.11 11.39 Z" />
<path fill="#332e2a" opacity="1.00" d=" M 130.11 11.39 C 132.01 13.07 127.01 14.48 126.94 12.32 C 127.53 11.26 129.04 11.02 130.11 11.39 Z" />
<path fill="#332e2a" opacity="1.00" d=" M 186.11 11.39 C 188.01 13.07 183.00 14.48 182.94 12.32 C 183.52 11.26 185.04 11.02 186.11 11.39 Z" />
<path fill="#332e2a" opacity="1.00" d=" M 34.79 14.35 C 35.16 14.03 35.89 13.39 36.26 13.07 L 36.86 13.02 C 36.88 14.89 36.91 16.75 36.93 18.62 C 37.04 19.01 37.25 19.81 37.35 20.20 C 36.43 18.28 35.53 16.35 34.79 14.35 Z" />
<path fill="#332e2a" opacity="1.00" d=" M 90.28 14.07 C 90.78 13.77 91.77 13.17 92.27 12.87 L 92.78 13.24 C 92.98 15.22 93.10 17.21 93.23 19.19 C 92.24 17.49 91.26 15.78 90.28 14.07 Z" />
<path fill="#332e2a" opacity="1.00" d=" M 146.72 14.75 C 147.16 14.27 148.06 13.30 148.51 12.82 L 148.61 13.30 C 148.89 14.93 149.12 16.56 149.34 18.20 C 148.46 17.05 147.59 15.90 146.72 14.75 Z" />
<path fill="#332e2a" opacity="1.00" d=" M 202.28 14.07 C 202.78 13.77 203.77 13.17 204.27 12.87 L 204.78 13.24 C 204.97 15.22 205.10 17.20 205.23 19.19 C 204.24 17.49 203.26 15.78 202.28 14.07 Z" />
<path fill="#332e2a" opacity="1.00" d=" M 70.12 18.42 C 71.94 16.69 73.86 15.05 75.85 13.51 C 76.01 15.27 76.17 17.03 76.29 18.79 C 75.13 18.74 73.98 18.69 72.82 18.65 C 72.15 18.59 70.80 18.48 70.12 18.42 Z" />
<path fill="#332e2a" opacity="1.00" d=" M 182.12 18.42 C 183.94 16.69 185.86 15.05 187.85 13.51 C 188.01 15.27 188.17 17.03 188.29 18.79 C 187.13 18.73 185.98 18.69 184.83 18.65 C 184.15 18.59 182.79 18.48 182.12 18.42 Z" />
<path fill="#332e2a" opacity="1.00" d=" M 30.63 16.57 C 32.05 13.99 34.33 16.90 32.81 18.71 C 32.02 18.06 31.29 17.35 30.63 16.57 Z" />
<path fill="#332e2a" opacity="1.00" d=" M 86.55 15.86 C 87.63 13.88 89.54 16.10 89.66 17.52 C 88.41 17.31 87.38 16.76 86.55 15.86 Z" />
<path fill="#332e2a" opacity="1.00" d=" M 198.55 15.86 C 199.63 13.88 201.53 16.10 201.66 17.52 C 200.41 17.31 199.38 16.76 198.55 15.86 Z" />
<path fill="#332e2a" opacity="1.00" d=" M 38.80 17.90 C 38.94 15.76 41.96 16.38 40.46 18.28 L 39.45 18.51 L 38.80 17.90 Z" />
<path fill="#332e2a" opacity="1.00" d=" M 79.14 51.86 C 80.32 50.69 82.06 50.60 83.62 50.72 C 83.47 51.03 83.15 51.64 83.00 51.95 C 81.88 52.33 80.72 52.41 79.54 52.18 L 79.14 51.86 Z" />
</g>
<g id="#907e4efe">
<path fill="#907e4e" opacity="1.00" d=" M 36.26 13.07 C 37.58 11.79 39.30 10.51 41.26 10.97 C 41.30 11.31 41.36 11.97 41.40 12.31 C 39.96 12.94 38.45 13.18 36.86 13.02 L 36.26 13.07 Z" />
<path fill="#907e4e" opacity="1.00" d=" M 92.27 12.87 C 93.72 11.91 95.33 10.87 97.16 11.12 C 97.19 11.43 97.27 12.06 97.31 12.38 C 95.90 13.15 94.39 13.44 92.78 13.24 L 92.27 12.87 Z" />
<path fill="#907e4e" opacity="1.00" d=" M 148.51 12.82 C 149.50 11.38 151.29 10.79 152.96 11.20 C 152.93 11.51 152.85 12.14 152.82 12.45 C 151.51 13.19 150.11 13.47 148.61 13.30 L 148.51 12.82 Z" />
<path fill="#907e4e" opacity="1.00" d=" M 204.27 12.87 C 205.72 11.91 207.33 10.87 209.16 11.12 C 209.19 11.43 209.27 12.06 209.31 12.38 C 207.90 13.15 206.39 13.44 204.78 13.24 L 204.27 12.87 Z" />
<path fill="#907e4e" opacity="1.00" d=" M 48.48 15.87 C 46.34 13.28 50.51 12.36 52.16 13.87 C 51.01 14.67 49.84 15.48 48.48 15.87 Z" />
<path fill="#907e4e" opacity="1.00" d=" M 103.15 15.19 C 103.98 13.08 106.52 12.98 108.34 13.72 C 107.16 14.54 105.89 15.27 104.50 15.68 L 103.60 15.61 L 103.15 15.19 Z" />
<path fill="#907e4e" opacity="1.00" d=" M 158.75 15.44 C 159.90 13.51 162.37 12.91 164.38 13.81 C 162.84 15.17 160.78 15.88 158.75 15.44 Z" />
<path fill="#907e4e" opacity="1.00" d=" M 215.12 15.17 C 215.96 13.06 218.52 12.94 220.35 13.71 C 219.15 14.53 217.87 15.23 216.47 15.62 L 215.56 15.58 L 215.12 15.17 Z" />
</g>
<g id="#76644eff">
<path fill="#76644e" opacity="1.00" d=" M 23.45 12.03 C 24.87 12.42 26.29 12.80 27.72 13.17 C 27.55 13.70 27.23 14.76 27.07 15.29 C 26.21 16.67 25.13 18.47 26.22 20.05 C 25.57 20.08 24.26 20.14 23.60 20.17 C 23.70 17.46 23.64 14.74 23.45 12.03 Z" />
</g>
<g id="#5a5851ff">
<path fill="#5a5851" opacity="1.00" d=" M 30.15 17.22 C 30.61 15.52 31.00 13.81 31.42 12.10 C 32.54 12.86 33.66 13.61 34.79 14.35 C 35.53 16.35 36.43 18.28 37.35 20.20 C 36.85 20.43 35.86 20.87 35.36 21.10 C 34.53 20.28 33.68 19.48 32.81 18.71 C 34.33 16.90 32.05 13.99 30.63 16.57 L 30.15 17.22 Z" />
</g>
<g id="#71614dff">
<path fill="#71614d" opacity="1.00" d=" M 79.22 12.09 C 80.81 12.45 82.40 12.81 84.00 13.17 C 83.59 15.11 83.22 17.06 82.86 19.02 C 82.19 19.05 80.84 19.10 80.17 19.13 C 79.91 16.78 79.59 14.43 79.22 12.09 Z" />
<path fill="#71614d" opacity="1.00" d=" M 191.22 12.09 C 192.81 12.45 194.40 12.81 196.00 13.17 C 195.59 15.11 195.21 17.07 194.86 19.02 C 194.19 19.05 192.84 19.10 192.17 19.13 C 191.91 16.78 191.59 14.43 191.22 12.09 Z" />
</g>
<g id="#5b5a53ff">
<path fill="#5b5a53" opacity="1.00" d=" M 86.20 16.35 C 86.64 14.93 87.02 13.50 87.41 12.07 C 88.36 12.75 89.31 13.41 90.28 14.07 C 91.26 15.78 92.24 17.49 93.23 19.19 C 92.64 19.52 91.46 20.18 90.88 20.51 C 90.48 19.50 90.08 18.51 89.66 17.52 C 89.54 16.10 87.63 13.88 86.55 15.86 L 86.20 16.35 Z" />
<path fill="#5b5a53" opacity="1.00" d=" M 198.20 16.35 C 198.64 14.93 199.02 13.50 199.41 12.07 C 200.36 12.75 201.31 13.41 202.28 14.07 C 203.26 15.78 204.24 17.49 205.23 19.19 C 204.64 19.52 203.47 20.18 202.88 20.51 C 202.49 19.51 202.08 18.51 201.66 17.52 C 201.53 16.10 199.63 13.88 198.55 15.86 L 198.20 16.35 Z" />
</g>
<g id="#565148ff">
<path fill="#565148" opacity="1.00" d=" M 36.86 13.02 C 38.45 13.18 39.96 12.94 41.40 12.31 C 41.42 14.44 41.45 16.58 41.63 18.71 L 40.46 18.28 C 41.96 16.38 38.94 15.76 38.80 17.90 C 38.33 18.08 37.40 18.44 36.93 18.62 C 36.91 16.75 36.88 14.89 36.86 13.02 Z" />
</g>
<g id="#505251ff">
<path fill="#505251" opacity="1.00" d=" M 92.78 13.24 C 94.39 13.44 95.90 13.15 97.31 12.38 C 97.48 14.22 97.70 16.05 98.02 17.87 C 97.28 17.95 95.81 18.09 95.07 18.16 C 94.61 18.42 93.69 18.93 93.23 19.19 C 93.10 17.21 92.98 15.22 92.78 13.24 Z" />
<path fill="#505251" opacity="1.00" d=" M 204.78 13.24 C 206.39 13.44 207.90 13.15 209.31 12.38 C 209.47 14.22 209.70 16.05 210.02 17.87 C 209.28 17.94 207.80 18.09 207.07 18.17 C 206.61 18.42 205.69 18.93 205.23 19.19 C 205.10 17.20 204.97 15.22 204.78 13.24 Z" />
</g>
<g id="#515455ff">
<path fill="#515455" opacity="1.00" d=" M 148.61 13.30 C 150.11 13.47 151.51 13.19 152.82 12.45 C 153.18 13.93 153.60 15.39 154.06 16.84 C 153.33 16.93 151.86 17.13 151.13 17.22 C 150.68 17.47 149.79 17.95 149.34 18.20 C 149.12 16.56 148.89 14.93 148.61 13.30 Z" />
</g>
<g id="#322e2aff">
<path fill="#322e2a" opacity="1.00" d=" M 16.18 15.17 C 17.51 14.82 18.83 14.48 20.15 14.12 C 20.20 15.94 20.24 17.77 20.28 19.59 C 19.13 19.64 17.97 19.68 16.82 19.71 C 16.20 19.65 14.97 19.53 14.35 19.48 C 14.96 18.04 15.57 16.60 16.18 15.17 Z" />
</g>
<g id="#332e2afe">
<path fill="#332e2a" opacity="1.00" d=" M 126.15 17.28 C 128.10 16.24 129.99 15.08 131.86 13.91 C 131.91 14.88 132.01 16.82 132.06 17.79 C 130.99 17.67 129.93 17.56 128.86 17.46 C 128.18 17.42 126.83 17.33 126.15 17.28 Z" />
</g>
<g id="#4378caff">
<path fill="#4378ca" opacity="1.00" d=" M 142.93 15.13 C 143.62 15.75 144.32 16.36 145.00 16.98 C 145.71 17.78 146.40 18.59 147.09 19.41 C 146.78 19.58 146.18 19.92 145.88 20.09 C 148.48 19.91 151.18 19.88 153.79 19.50 C 153.72 20.17 153.58 21.50 153.52 22.17 C 152.08 23.20 150.64 24.23 149.19 25.25 C 146.23 24.39 143.22 23.72 140.19 23.17 C 140.82 24.68 141.45 26.19 142.07 27.70 C 138.10 26.92 134.12 26.28 130.14 25.62 C 130.63 27.92 129.93 31.37 132.69 32.39 C 138.33 35.48 144.28 32.08 149.61 30.15 C 149.76 30.73 150.07 31.89 150.22 32.47 C 149.71 31.38 147.04 30.78 147.56 32.65 C 148.34 33.37 149.28 33.54 150.38 33.16 C 152.79 32.77 155.34 32.95 157.66 32.17 C 159.50 30.75 161.23 29.20 162.97 27.67 C 162.07 32.99 161.22 38.32 160.25 43.62 C 159.57 40.80 158.88 37.98 158.20 35.16 C 153.87 34.96 149.00 33.79 145.03 35.95 C 141.54 38.96 139.58 43.26 136.71 46.79 C 137.45 43.53 138.26 40.28 138.86 36.98 C 134.82 35.98 130.81 34.93 126.81 33.85 C 127.71 31.22 128.53 28.57 129.41 25.93 C 118.52 26.63 107.54 28.32 96.63 26.96 L 102.61 24.89 C 101.38 24.44 100.15 23.98 98.90 23.56 C 99.30 22.38 99.13 21.30 98.37 20.32 C 99.40 20.03 100.44 19.74 101.47 19.46 L 102.35 19.33 C 101.45 19.72 100.56 20.12 99.67 20.52 C 106.39 20.69 113.00 21.91 119.68 22.62 C 116.85 20.79 113.95 19.07 111.03 17.39 L 111.54 16.74 C 114.20 17.65 116.87 18.53 119.54 19.39 L 119.77 20.07 C 120.04 20.93 120.29 21.81 120.53 22.69 C 120.42 25.08 123.88 24.63 122.95 22.34 C 130.26 22.63 137.61 22.37 144.71 20.45 C 144.65 19.70 144.60 18.95 144.55 18.19 C 143.17 17.93 141.79 17.67 140.41 17.41 C 141.26 16.66 142.10 15.90 142.93 15.13 Z" />
</g>
<g id="#3a7dcfff">
<path fill="#3a7dcf" opacity="1.00" d=" M 154.30 17.61 C 154.17 16.30 154.79 15.57 156.17 15.42 C 156.14 15.83 156.09 16.67 156.07 17.09 C 155.63 17.22 154.75 17.48 154.30 17.61 Z" />
<path fill="#3a7dcf" opacity="1.00" d=" M 98.16 18.63 C 97.91 17.24 98.50 16.53 99.91 16.52 C 99.89 16.92 99.85 17.73 99.83 18.13 C 99.41 18.26 98.58 18.51 98.16 18.63 Z" />
<path fill="#3a7dcf" opacity="1.00" d=" M 210.15 18.63 C 209.91 17.24 210.50 16.54 211.90 16.53 C 211.88 16.94 211.85 17.74 211.83 18.15 C 211.41 18.27 210.57 18.51 210.15 18.63 Z" />
<path fill="#3a7dcf" opacity="1.00" d=" M 41.97 19.49 C 41.88 18.17 42.53 17.51 43.92 17.51 C 43.88 17.91 43.82 18.72 43.79 19.12 C 43.33 19.22 42.42 19.40 41.97 19.49 Z" />
</g>
<g id="#8d9fbaff">
<path fill="#8d9fba" opacity="1.00" d=" M 156.17 15.42 C 156.53 15.34 157.25 15.19 157.61 15.11 C 158.19 15.92 158.61 16.81 158.86 17.77 L 158.33 18.10 L 157.58 18.29 C 157.20 17.99 156.44 17.39 156.07 17.09 C 156.09 16.67 156.14 15.83 156.17 15.42 Z" />
<path fill="#8d9fba" opacity="1.00" d=" M 99.91 16.52 C 100.26 16.55 100.98 16.62 101.34 16.65 C 102.08 17.32 102.62 18.12 102.95 19.07 L 102.35 19.33 L 101.47 19.46 C 101.06 19.13 100.24 18.46 99.83 18.13 C 99.85 17.73 99.89 16.92 99.91 16.52 Z" />
<path fill="#8d9fba" opacity="1.00" d=" M 211.90 16.53 C 212.26 16.56 212.97 16.62 213.33 16.65 C 214.07 17.31 214.61 18.10 214.95 19.03 L 214.35 19.32 L 213.48 19.46 C 213.07 19.13 212.24 18.48 211.83 18.15 C 211.85 17.74 211.88 16.94 211.90 16.53 Z" />
<path fill="#8d9fba" opacity="1.00" d=" M 43.92 17.51 C 44.26 17.49 44.96 17.46 45.31 17.44 C 46.02 18.15 46.54 18.99 46.87 19.94 L 46.30 20.22 L 45.44 20.35 C 45.03 20.05 44.20 19.43 43.79 19.12 C 43.82 18.72 43.88 17.91 43.92 17.51 Z" />
</g>
<g id="#3e84ceff">
<path fill="#3e84ce" opacity="1.00" d=" M 157.61 15.11 L 158.75 15.44 C 160.56 15.96 162.39 16.40 164.24 16.74 C 162.43 17.00 160.64 17.34 158.86 17.77 C 158.61 16.81 158.19 15.92 157.61 15.11 Z" />
<path fill="#3e84ce" opacity="1.00" d=" M 101.34 16.65 C 101.87 16.78 102.94 17.04 103.48 17.17 C 104.04 17.19 105.17 17.24 105.74 17.27 C 106.58 17.37 107.42 17.47 108.27 17.56 C 106.47 17.96 104.69 18.47 102.95 19.07 C 102.62 18.12 102.08 17.32 101.34 16.65 Z" />
<path fill="#3e84ce" opacity="1.00" d=" M 213.33 16.65 C 213.87 16.77 214.96 17.02 215.50 17.14 C 216.07 17.13 217.21 17.10 217.79 17.09 C 218.67 17.31 219.56 17.52 220.45 17.73 C 218.60 18.07 216.75 18.50 214.95 19.03 C 214.61 18.10 214.07 17.31 213.33 16.65 Z" />
<path fill="#3e84ce" opacity="1.00" d=" M 45.31 17.44 C 46.07 17.44 47.58 17.43 48.34 17.43 C 48.68 17.56 49.37 17.83 49.72 17.96 C 50.20 18.15 51.16 18.53 51.64 18.72 L 52.21 18.97 C 50.42 19.21 48.63 19.52 46.87 19.94 C 46.54 18.99 46.02 18.15 45.31 17.44 Z" />
</g>
<g id="#5d564aff">
<path fill="#5d564a" opacity="1.00" d=" M 2.62 17.32 C 4.76 16.92 6.91 16.47 9.04 16.01 C 9.65 17.25 10.28 18.48 10.92 19.71 C 10.31 20.07 9.09 20.79 8.47 21.15 C 8.34 20.72 8.07 19.86 7.94 19.42 C 8.34 17.42 5.18 15.98 5.41 18.67 C 4.47 18.23 3.54 17.78 2.62 17.32 Z" />
</g>
<g id="#625f57ff">
<path fill="#625f57" opacity="1.00" d=" M 60.00 16.82 C 61.94 16.52 63.89 16.23 65.84 15.93 C 65.91 17.24 65.98 18.54 66.05 19.84 C 65.60 20.14 64.69 20.73 64.24 21.03 L 64.16 20.21 L 64.07 19.33 C 64.53 17.83 62.31 16.50 61.70 18.27 C 61.27 17.91 60.42 17.19 60.00 16.82 Z" />
<path fill="#625f57" opacity="1.00" d=" M 172.00 16.82 C 173.95 16.52 175.89 16.23 177.84 15.93 C 177.91 17.24 177.98 18.54 178.06 19.85 C 177.60 20.15 176.69 20.76 176.24 21.06 L 176.15 20.20 L 176.06 19.35 C 176.51 17.85 174.31 16.50 173.70 18.28 C 173.27 17.91 172.43 17.18 172.00 16.82 Z" />
</g>
<g id="#4379caff">
<path fill="#4379ca" opacity="1.00" d=" M 86.20 16.35 L 86.55 15.86 C 87.38 16.76 88.41 17.31 89.66 17.52 C 90.08 18.51 90.48 19.50 90.88 20.51 C 90.61 20.67 90.07 20.99 89.81 21.15 C 92.44 20.93 95.14 20.85 97.77 20.45 C 97.76 21.14 97.74 22.52 97.72 23.21 C 91.68 25.50 85.52 27.66 78.97 27.74 C 76.65 27.89 75.23 30.01 73.55 31.33 C 77.33 32.97 81.14 34.57 84.96 36.12 C 87.28 33.96 89.61 31.83 91.98 29.73 C 92.62 31.30 93.24 32.87 93.89 34.44 C 86.52 36.53 83.35 43.72 79.14 49.31 C 81.24 49.76 83.33 50.23 85.44 50.64 C 84.98 50.66 84.07 50.70 83.62 50.72 C 82.06 50.60 80.32 50.69 79.14 51.86 C 78.68 51.53 77.77 50.87 77.31 50.54 C 76.77 49.85 76.24 49.17 75.70 48.48 C 79.03 45.23 81.46 41.20 83.04 36.83 C 76.22 34.62 69.37 36.50 63.19 39.45 C 65.25 42.08 67.46 44.59 69.64 47.13 C 65.64 45.17 62.66 41.86 60.11 38.30 C 64.77 36.71 70.19 36.25 73.87 32.72 C 76.12 27.66 71.90 26.65 68.49 26.37 C 64.86 24.80 61.84 26.95 58.97 28.64 C 57.16 27.99 55.30 27.48 53.43 27.05 C 52.62 30.88 51.73 34.70 51.04 38.55 C 48.54 38.54 46.04 38.61 43.55 38.74 C 45.44 36.48 47.39 34.29 49.33 32.07 C 48.27 30.88 47.20 29.70 46.15 28.51 C 47.13 27.99 48.12 27.47 49.10 26.95 C 41.74 27.78 34.29 29.07 26.91 27.58 C 23.02 26.81 20.61 30.39 18.43 32.93 C 22.21 33.57 26.16 36.86 30.05 35.04 C 32.00 34.31 33.81 33.27 35.65 32.30 C 35.56 33.03 35.47 33.76 35.38 34.49 C 30.06 38.27 28.39 44.84 24.05 49.47 C 25.36 50.12 26.66 50.78 27.97 51.45 C 26.20 51.39 24.43 51.31 22.67 51.16 C 22.26 51.11 21.45 51.02 21.04 50.97 C 20.96 49.27 20.83 47.59 20.72 45.89 C 23.32 44.33 25.86 42.67 28.29 40.86 C 25.35 38.94 22.32 36.90 18.81 36.26 C 14.97 35.98 11.59 38.24 8.30 39.87 C 10.68 42.69 13.24 45.33 15.71 48.05 C 11.81 46.39 8.75 43.33 6.82 39.59 C 4.54 39.39 2.27 39.13 0.00 38.84 L 0.00 38.07 C 6.54 36.92 13.17 35.92 19.36 33.41 C 18.74 31.70 18.14 29.98 17.51 28.28 C 18.77 27.86 20.04 27.44 21.31 27.01 C 14.08 27.40 6.74 28.04 0.00 30.86 L 0.00 23.46 C 2.50 24.25 5.12 24.48 7.71 24.76 C 5.19 23.13 2.58 21.66 0.00 20.14 L 0.00 18.92 C 2.81 19.71 5.63 20.47 8.47 21.15 L 8.48 21.72 C 8.48 22.70 8.48 23.69 8.48 24.67 C 7.94 27.14 11.64 26.62 10.89 24.37 C 18.21 24.59 25.58 24.40 32.70 22.45 C 32.65 21.69 32.60 20.93 32.56 20.17 C 31.19 19.94 29.82 19.70 28.45 19.49 C 29.04 18.75 29.60 17.99 30.15 17.22 L 30.63 16.57 C 31.29 17.35 32.02 18.06 32.81 18.71 C 33.68 19.48 34.53 20.28 35.36 21.10 C 34.95 21.30 34.13 21.71 33.72 21.92 C 36.38 21.75 39.09 21.78 41.74 21.41 C 41.17 22.56 41.34 23.49 42.27 24.20 C 43.92 24.21 43.22 21.89 42.36 21.27 C 43.39 20.96 44.41 20.66 45.44 20.35 L 46.30 20.22 C 45.42 20.65 44.54 21.09 43.67 21.53 C 50.43 21.66 57.07 23.02 63.79 23.51 C 60.74 21.63 57.58 19.85 54.15 18.73 C 54.43 18.46 54.99 17.92 55.26 17.65 C 58.24 18.48 61.19 19.35 64.16 20.21 L 64.24 21.03 C 64.32 21.92 64.41 22.80 64.49 23.69 C 64.11 26.15 67.69 25.62 66.90 23.37 C 74.22 23.60 81.59 23.38 88.70 21.45 C 88.65 20.68 88.60 19.91 88.56 19.13 C 87.20 18.95 85.85 18.77 84.50 18.60 C 85.09 17.87 85.65 17.12 86.20 16.35 Z" />
<path fill="#4379ca" opacity="1.00" d=" M 114.61 36.94 C 119.61 37.62 124.48 35.92 129.38 35.16 C 125.32 37.07 121.21 38.86 117.28 41.04 C 117.38 40.59 117.59 39.68 117.70 39.23 C 116.45 39.05 115.21 38.86 113.96 38.68 C 114.18 38.10 114.39 37.52 114.61 36.94 Z" />
</g>
<g id="#73a5cbff">
<path fill="#73a5cb" opacity="1.00" d=" M 109.10 17.62 C 108.42 15.95 110.73 15.73 111.54 16.74 L 111.03 17.39 C 110.55 17.45 109.58 17.56 109.10 17.62 Z" />
</g>
<g id="#6b675bff">
<path fill="#6b675b" opacity="1.00" d=" M 118.24 15.79 C 119.39 15.96 120.54 16.13 121.69 16.30 C 121.81 16.93 122.06 18.19 122.18 18.82 C 121.58 19.13 120.37 19.75 119.77 20.07 L 119.54 19.39 C 119.12 18.19 118.67 16.99 118.24 15.79 Z" />
</g>
<g id="#508bc7ff">
<path fill="#508bc7" opacity="1.00" d=" M 165.03 16.83 C 165.91 15.43 168.01 16.11 167.82 17.78 C 167.13 17.55 165.73 17.07 165.03 16.83 Z" />
<path fill="#508bc7" opacity="1.00" d=" M 221.41 17.93 C 221.85 16.64 222.71 16.30 224.00 16.90 L 224.00 17.62 C 223.35 17.70 222.06 17.85 221.41 17.93 Z" />
</g>
<g id="#4377caff">
<path fill="#4377ca" opacity="1.00" d=" M 198.20 16.35 L 198.55 15.86 C 199.38 16.76 200.41 17.31 201.66 17.52 C 202.08 18.51 202.49 19.51 202.88 20.51 C 202.61 20.67 202.07 21.01 201.80 21.17 C 204.41 20.92 207.13 20.82 209.75 20.39 C 209.18 21.29 209.33 23.58 210.86 23.12 C 211.49 22.10 211.33 21.15 210.37 20.26 C 211.41 19.99 212.44 19.72 213.48 19.46 L 214.35 19.32 C 213.44 19.78 212.53 20.24 211.62 20.71 C 215.75 20.86 219.87 20.98 224.00 20.86 L 224.00 27.16 C 212.74 28.18 201.44 26.50 190.18 27.47 C 188.25 28.21 187.08 30.20 185.56 31.54 C 189.30 33.15 193.02 34.86 196.85 36.25 C 199.18 33.70 201.54 31.17 203.94 28.68 C 204.90 31.10 205.95 33.48 207.09 35.82 C 204.26 35.94 201.43 36.05 198.60 36.15 C 198.07 39.24 197.90 42.42 198.77 45.47 C 197.53 45.06 196.28 44.67 195.04 44.27 C 193.96 45.50 191.78 47.96 190.70 49.20 C 192.52 49.71 194.34 50.21 196.19 50.62 L 195.33 50.62 C 193.29 50.58 191.27 50.56 189.25 50.55 C 188.73 49.85 188.21 49.15 187.69 48.45 C 191.03 45.22 193.47 41.20 195.04 36.83 C 188.22 34.62 181.37 36.50 175.19 39.45 C 177.25 42.08 179.46 44.59 181.64 47.13 C 177.63 45.17 174.66 41.85 172.10 38.29 C 178.10 36.31 187.36 36.14 186.33 27.17 C 181.06 27.44 175.84 28.36 170.57 28.36 C 164.95 27.71 159.74 25.12 154.67 22.78 C 155.17 21.59 155.07 20.45 154.37 19.37 C 155.43 19.00 156.50 18.64 157.58 18.29 L 158.33 18.10 C 157.41 18.70 156.49 19.30 155.59 19.90 C 160.08 20.28 164.68 20.02 168.84 18.11 C 171.26 18.88 173.70 19.55 176.15 20.20 L 176.24 21.06 C 176.32 21.93 176.40 22.81 176.49 23.69 C 176.11 26.15 179.69 25.62 178.90 23.37 C 186.22 23.60 193.59 23.38 200.70 21.45 C 200.65 20.68 200.60 19.91 200.56 19.13 C 199.20 18.95 197.85 18.77 196.50 18.60 C 197.09 17.87 197.65 17.11 198.20 16.35 M 167.92 20.06 C 168.34 21.33 168.78 22.60 169.21 23.87 C 171.37 23.63 173.53 23.40 175.69 23.16 C 173.29 21.70 170.65 20.71 167.92 20.06 Z" />
</g>
<g id="#8a7c4cff">
<path fill="#8a7c4c" opacity="1.00" d=" M 5.41 18.67 C 5.18 15.98 8.34 17.42 7.94 19.42 C 7.30 19.24 6.04 18.86 5.41 18.67 Z" />
</g>
<g id="#8fa8bbff">
<path fill="#8fa8bb" opacity="1.00" d=" M 51.64 18.72 C 52.11 17.14 54.00 16.99 55.26 17.65 C 54.99 17.92 54.43 18.46 54.15 18.73 C 53.67 18.79 52.70 18.91 52.21 18.97 L 51.64 18.72 Z" />
</g>
<g id="#84774cff">
<path fill="#84774c" opacity="1.00" d=" M 61.70 18.27 C 62.31 16.50 64.53 17.83 64.07 19.33 C 63.48 19.07 62.29 18.54 61.70 18.27 Z" />
<path fill="#84774c" opacity="1.00" d=" M 173.70 18.28 C 174.31 16.50 176.51 17.85 176.06 19.35 C 175.47 19.08 174.29 18.54 173.70 18.28 Z" />
</g>
<g id="#437bc5ff">
<path fill="#437bc5" opacity="1.00" d=" M 123.78 18.10 C 123.97 18.03 124.35 17.89 124.54 17.82 C 124.94 17.68 125.75 17.42 126.15 17.28 C 126.83 17.33 128.18 17.42 128.86 17.46 C 131.00 17.67 133.14 17.86 135.28 18.04 L 136.11 18.09 C 136.80 18.06 138.19 17.99 138.88 17.96 L 139.77 17.77 C 135.22 20.58 129.61 20.35 124.53 21.58 C 124.27 20.42 124.02 19.26 123.78 18.10 Z" />
<path fill="#437bc5" opacity="1.00" d=" M 67.75 18.81 C 68.02 18.68 68.55 18.42 68.81 18.29 C 69.14 18.32 69.79 18.39 70.12 18.42 C 70.80 18.48 72.15 18.59 72.82 18.65 C 74.98 18.81 77.14 18.96 79.31 19.08 L 80.17 19.13 C 80.84 19.10 82.19 19.05 82.86 19.02 L 83.83 18.93 C 79.11 21.40 73.61 21.37 68.52 22.60 C 68.26 21.34 68.00 20.08 67.75 18.81 Z" />
<path fill="#437bc5" opacity="1.00" d=" M 179.75 18.81 C 180.01 18.68 180.54 18.42 180.81 18.29 C 181.13 18.32 181.79 18.39 182.12 18.42 C 182.79 18.48 184.15 18.59 184.83 18.65 C 186.98 18.81 189.14 18.96 191.31 19.08 L 192.17 19.13 C 192.84 19.10 194.19 19.05 194.86 19.02 L 195.83 18.93 C 191.11 21.40 185.61 21.37 180.52 22.60 C 180.26 21.34 180.00 20.08 179.75 18.81 Z" />
<path fill="#437bc5" opacity="1.00" d=" M 11.95 20.74 C 11.91 20.31 11.82 19.44 11.78 19.01 C 12.42 19.12 13.71 19.36 14.35 19.48 C 14.97 19.53 16.20 19.65 16.82 19.71 C 19.08 19.92 21.34 20.07 23.60 20.17 C 24.26 20.14 25.57 20.08 26.22 20.05 L 26.86 19.98 L 27.79 19.84 C 23.25 22.33 17.90 22.43 12.96 23.66 C 12.64 22.87 12.32 22.08 12.00 21.29 L 11.95 20.74 Z" />
</g>
<g id="#8fa8baff">
<path fill="#8fa8ba" opacity="1.00" d=" M 128.86 17.46 C 129.93 17.56 130.99 17.67 132.06 17.79 C 133.13 17.88 134.21 17.96 135.28 18.04 C 133.14 17.86 131.00 17.67 128.86 17.46 Z" />
<path fill="#8fa8ba" opacity="1.00" d=" M 72.82 18.65 C 73.98 18.69 75.13 18.74 76.29 18.79 C 77.30 18.88 78.30 18.98 79.31 19.08 C 77.14 18.96 74.98 18.81 72.82 18.65 Z" />
<path fill="#8fa8ba" opacity="1.00" d=" M 184.83 18.65 C 185.98 18.69 187.13 18.73 188.29 18.79 C 189.29 18.88 190.30 18.98 191.31 19.08 C 189.14 18.96 186.98 18.81 184.83 18.65 Z" />
<path fill="#8fa8ba" opacity="1.00" d=" M 16.82 19.71 C 17.97 19.68 19.13 19.64 20.28 19.59 C 21.38 19.78 22.49 19.97 23.60 20.17 C 21.34 20.07 19.08 19.92 16.82 19.71 Z" />
</g>
<g id="#665b9efe">
<path fill="#665b9e" opacity="1.00" d=" M 140.41 17.41 C 141.79 17.67 143.17 17.93 144.55 18.19 C 144.60 18.95 144.65 19.70 144.71 20.45 C 137.61 22.37 130.26 22.63 122.95 22.34 C 122.35 22.43 121.14 22.60 120.53 22.69 C 120.29 21.81 120.04 20.93 119.77 20.07 C 120.37 19.75 121.58 19.13 122.18 18.82 C 122.58 18.64 123.38 18.28 123.78 18.10 C 124.02 19.26 124.27 20.42 124.53 21.58 C 129.61 20.35 135.22 20.58 139.77 17.77 L 140.41 17.41 Z" />
<path fill="#665b9e" opacity="1.00" d=" M 84.50 18.60 C 85.85 18.77 87.20 18.95 88.56 19.13 C 88.60 19.91 88.65 20.68 88.70 21.45 C 81.59 23.38 74.22 23.60 66.90 23.37 C 66.30 23.45 65.09 23.61 64.49 23.69 C 64.41 22.80 64.32 21.92 64.24 21.03 C 64.69 20.73 65.60 20.14 66.05 19.84 C 66.48 19.58 67.33 19.07 67.75 18.81 C 68.00 20.08 68.26 21.34 68.52 22.60 C 73.61 21.37 79.11 21.40 83.83 18.93 L 84.50 18.60 Z" />
<path fill="#665b9e" opacity="1.00" d=" M 196.50 18.60 C 197.85 18.77 199.20 18.95 200.56 19.13 C 200.60 19.91 200.65 20.68 200.70 21.45 C 193.59 23.38 186.22 23.60 178.90 23.37 C 178.30 23.45 177.09 23.61 176.49 23.69 C 176.40 22.81 176.32 21.93 176.24 21.06 C 176.69 20.76 177.60 20.15 178.06 19.85 C 178.48 19.59 179.33 19.07 179.75 18.81 C 180.00 20.08 180.26 21.34 180.52 22.60 C 185.61 21.37 191.11 21.40 195.83 18.93 L 196.50 18.60 Z" />
</g>
<g id="#86a0b1ff">
<path fill="#86a0b1" opacity="1.00" d=" M 151.13 17.22 C 151.86 17.13 153.33 16.93 154.06 16.84 L 154.30 17.61 C 153.19 18.07 152.13 17.94 151.13 17.22 Z" />
<path fill="#86a0b1" opacity="1.00" d=" M 95.07 18.16 C 95.81 18.09 97.28 17.95 98.02 17.87 L 98.16 18.63 C 97.05 19.06 96.02 18.91 95.07 18.16 Z" />
<path fill="#86a0b1" opacity="1.00" d=" M 207.07 18.17 C 207.80 18.09 209.28 17.94 210.02 17.87 L 210.15 18.63 C 209.05 19.06 208.02 18.91 207.07 18.17 Z" />
<path fill="#86a0b1" opacity="1.00" d=" M 39.45 18.51 L 40.46 18.28 L 41.63 18.71 L 41.97 19.49 C 41.02 19.83 40.10 19.78 39.20 19.37 L 39.45 18.51 Z" />
<path fill="#86a0b1" opacity="1.00" d=" M 153.79 19.50 L 154.37 19.37 C 155.07 20.45 155.17 21.59 154.67 22.78 C 154.38 22.63 153.80 22.32 153.52 22.17 C 153.58 21.50 153.72 20.17 153.79 19.50 Z" />
<path fill="#86a0b1" opacity="1.00" d=" M 97.77 20.45 L 98.37 20.32 C 99.13 21.30 99.30 22.38 98.90 23.56 C 98.61 23.47 98.02 23.30 97.72 23.21 C 97.74 22.52 97.76 21.14 97.77 20.45 Z" />
<path fill="#86a0b1" opacity="1.00" d=" M 209.75 20.39 L 210.37 20.26 C 211.33 21.15 211.49 22.10 210.86 23.12 C 209.33 23.58 209.18 21.29 209.75 20.39 Z" />
<path fill="#86a0b1" opacity="1.00" d=" M 41.74 21.41 L 42.36 21.27 C 43.22 21.89 43.92 24.21 42.27 24.20 C 41.34 23.49 41.17 22.56 41.74 21.41 Z" />
</g>
<g id="#63579eff">
<path fill="#63579e" opacity="1.00" d=" M 154.30 17.61 C 154.75 17.48 155.63 17.22 156.07 17.09 C 156.44 17.39 157.20 17.99 157.58 18.29 C 156.50 18.64 155.43 19.00 154.37 19.37 L 153.79 19.50 C 151.18 19.88 148.48 19.91 145.88 20.09 C 146.18 19.92 146.78 19.58 147.09 19.41 C 147.65 19.11 148.78 18.50 149.34 18.20 C 149.79 17.95 150.68 17.47 151.13 17.22 C 152.13 17.94 153.19 18.07 154.30 17.61 Z" />
<path fill="#63579e" opacity="1.00" d=" M 98.16 18.63 C 98.58 18.51 99.41 18.26 99.83 18.13 C 100.24 18.46 101.06 19.13 101.47 19.46 C 100.44 19.74 99.40 20.03 98.37 20.32 L 97.77 20.45 C 95.14 20.85 92.44 20.93 89.81 21.15 C 90.07 20.99 90.61 20.67 90.88 20.51 C 91.46 20.18 92.64 19.52 93.23 19.19 C 93.69 18.93 94.61 18.42 95.07 18.16 C 96.02 18.91 97.05 19.06 98.16 18.63 Z" />
<path fill="#63579e" opacity="1.00" d=" M 210.15 18.63 C 210.57 18.51 211.41 18.27 211.83 18.15 C 212.24 18.48 213.07 19.13 213.48 19.46 C 212.44 19.72 211.41 19.99 210.37 20.26 L 209.75 20.39 C 207.13 20.82 204.41 20.92 201.80 21.17 C 202.07 21.01 202.61 20.67 202.88 20.51 C 203.47 20.18 204.64 19.52 205.23 19.19 C 205.69 18.93 206.61 18.42 207.07 18.17 C 208.02 18.91 209.05 19.06 210.15 18.63 Z" />
<path fill="#63579e" opacity="1.00" d=" M 41.97 19.49 C 42.42 19.40 43.33 19.22 43.79 19.12 C 44.20 19.43 45.03 20.05 45.44 20.35 C 44.41 20.66 43.39 20.96 42.36 21.27 L 41.74 21.41 C 39.09 21.78 36.38 21.75 33.72 21.92 C 34.13 21.71 34.95 21.30 35.36 21.10 C 35.86 20.87 36.85 20.43 37.35 20.20 C 37.81 19.99 38.74 19.58 39.20 19.37 C 40.10 19.78 41.02 19.83 41.97 19.49 Z" />
</g>
<g id="#65569cff">
<path fill="#65569c" opacity="1.00" d=" M 158.86 17.77 C 160.64 17.34 162.43 17.00 164.24 16.74 L 165.03 16.83 C 165.73 17.07 167.13 17.55 167.82 17.78 L 168.84 18.11 C 164.68 20.02 160.08 20.28 155.59 19.90 C 156.49 19.30 157.41 18.70 158.33 18.10 L 158.86 17.77 Z" />
<path fill="#65569c" opacity="1.00" d=" M 214.95 19.03 C 216.75 18.50 218.60 18.07 220.45 17.73 L 221.41 17.93 C 222.06 17.85 223.35 17.70 224.00 17.62 L 224.00 20.86 C 219.87 20.98 215.75 20.86 211.62 20.71 C 212.53 20.24 213.44 19.78 214.35 19.32 L 214.95 19.03 Z" />
<path fill="#65569c" opacity="1.00" d=" M 167.92 20.06 C 170.65 20.71 173.29 21.70 175.69 23.16 C 173.53 23.40 171.37 23.63 169.21 23.87 C 168.78 22.60 168.34 21.33 167.92 20.06 Z" />
<path fill="#65569c" opacity="1.00" d=" M 0.00 20.14 C 2.58 21.66 5.19 23.13 7.71 24.76 C 5.12 24.48 2.50 24.25 0.00 23.46 L 0.00 20.14 Z" />
</g>
<g id="#3d7bceff">
<path fill="#3d7bce" opacity="1.00" d=" M 36.93 18.62 C 37.40 18.44 38.33 18.08 38.80 17.90 L 39.45 18.51 L 39.20 19.37 C 38.74 19.58 37.81 19.99 37.35 20.20 C 37.25 19.81 37.04 19.01 36.93 18.62 Z" />
</g>
<g id="#64559cff">
<path fill="#64559c" opacity="1.00" d=" M 102.95 19.07 C 104.69 18.47 106.47 17.96 108.27 17.56 L 109.10 17.62 C 109.58 17.56 110.55 17.45 111.03 17.39 C 113.95 19.07 116.85 20.79 119.68 22.62 C 113.00 21.91 106.39 20.69 99.67 20.52 C 100.56 20.12 101.45 19.72 102.35 19.33 L 102.95 19.07 Z" />
<path fill="#64559c" opacity="1.00" d=" M 46.87 19.94 C 48.63 19.52 50.42 19.21 52.21 18.97 C 52.70 18.91 53.67 18.79 54.15 18.73 C 57.58 19.85 60.74 21.63 63.79 23.51 C 57.07 23.02 50.43 21.66 43.67 21.53 C 44.54 21.09 45.42 20.65 46.30 20.22 L 46.87 19.94 Z" />
</g>
<g id="#665a9dff">
<path fill="#665a9d" opacity="1.00" d=" M 28.45 19.49 C 29.82 19.70 31.19 19.94 32.56 20.17 C 32.60 20.93 32.65 21.69 32.70 22.45 C 25.58 24.40 18.21 24.59 10.89 24.37 C 10.29 24.45 9.08 24.60 8.48 24.67 C 8.48 23.69 8.48 22.70 8.48 21.72 C 9.66 22.01 10.90 21.80 12.00 21.29 C 12.32 22.08 12.64 22.87 12.96 23.66 C 17.90 22.43 23.25 22.33 27.79 19.84 L 28.45 19.49 Z" />
</g>
<g id="#7f91acff">
<path fill="#7f91ac" opacity="1.00" d=" M 10.92 19.71 C 11.18 19.97 11.69 20.48 11.95 20.74 L 12.00 21.29 C 10.90 21.80 9.66 22.01 8.48 21.72 L 8.47 21.15 C 9.09 20.79 10.31 20.07 10.92 19.71 Z" />
</g>
<g id="#7498b7ff">
<path fill="#7498b7" opacity="1.00" d=" M 120.53 22.69 C 121.14 22.60 122.35 22.43 122.95 22.34 C 123.88 24.63 120.42 25.08 120.53 22.69 Z" />
<path fill="#7498b7" opacity="1.00" d=" M 64.49 23.69 C 65.09 23.61 66.30 23.45 66.90 23.37 C 67.69 25.62 64.11 26.15 64.49 23.69 Z" />
<path fill="#7498b7" opacity="1.00" d=" M 176.49 23.69 C 177.09 23.61 178.30 23.45 178.90 23.37 C 179.69 25.62 176.11 26.15 176.49 23.69 Z" />
<path fill="#7498b7" opacity="1.00" d=" M 8.48 24.67 C 9.08 24.60 10.29 24.45 10.89 24.37 C 11.64 26.62 7.94 27.14 8.48 24.67 Z" />
</g>
<g id="#3c6bbeff">
<path fill="#3c6bbe" opacity="1.00" d=" M 153.52 22.17 C 153.80 22.32 154.38 22.63 154.67 22.78 C 159.74 25.12 164.95 27.71 170.57 28.36 C 175.84 28.36 181.06 27.44 186.33 27.17 C 187.36 36.14 178.10 36.31 172.10 38.29 C 174.66 41.85 177.63 45.17 181.64 47.13 C 179.46 44.59 177.25 42.08 175.19 39.45 C 181.37 36.50 188.22 34.62 195.04 36.83 C 193.47 41.20 191.03 45.22 187.69 48.45 C 188.21 49.15 188.73 49.85 189.25 50.55 C 188.52 50.56 187.06 50.60 186.33 50.62 C 181.45 50.43 176.60 50.13 171.73 49.90 C 172.86 48.26 174.02 46.65 175.17 45.03 C 173.22 45.72 171.26 46.39 169.31 47.05 C 169.76 48.40 170.20 49.74 170.64 51.09 C 168.67 51.01 166.70 51.01 164.73 51.01 C 164.47 50.68 163.95 50.01 163.69 49.67 C 164.61 49.64 166.86 49.46 166.37 48.03 C 164.98 46.85 163.21 48.18 162.05 49.06 L 161.52 49.45 C 158.98 49.17 156.42 48.92 153.87 49.20 C 149.07 49.92 144.28 50.94 139.40 50.88 C 137.00 49.54 135.32 47.29 133.59 45.23 C 132.71 45.97 131.84 46.72 130.97 47.47 C 131.67 47.69 133.06 48.13 133.75 48.35 C 133.55 48.95 133.13 50.17 132.92 50.77 C 132.26 50.76 130.95 50.72 130.29 50.70 C 124.84 50.12 119.36 49.66 113.98 48.58 C 114.13 49.15 114.43 50.27 114.58 50.83 C 113.76 50.73 112.94 50.63 112.12 50.54 C 107.99 49.99 103.85 49.50 99.68 49.45 C 99.28 49.49 98.49 49.56 98.09 49.60 C 93.89 50.12 89.67 50.55 85.44 50.64 C 83.33 50.23 81.24 49.76 79.14 49.31 C 83.35 43.72 86.52 36.53 93.89 34.44 C 93.24 32.87 92.62 31.30 91.98 29.73 C 89.61 31.83 87.28 33.96 84.96 36.12 C 81.14 34.57 77.33 32.97 73.55 31.33 C 75.23 30.01 76.65 27.89 78.97 27.74 C 85.52 27.66 91.68 25.50 97.72 23.21 C 98.02 23.30 98.61 23.47 98.90 23.56 C 100.15 23.98 101.38 24.44 102.61 24.89 L 96.63 26.96 C 107.54 28.32 118.52 26.63 129.41 25.93 C 128.53 28.57 127.71 31.22 126.81 33.85 C 130.81 34.93 134.82 35.98 138.86 36.98 C 138.26 40.28 137.45 43.53 136.71 46.79 C 139.58 43.26 141.54 38.96 145.03 35.95 C 149.00 33.79 153.87 34.96 158.20 35.16 C 158.88 37.98 159.57 40.80 160.25 43.62 C 161.22 38.32 162.07 32.99 162.97 27.67 C 161.23 29.20 159.50 30.75 157.66 32.17 C 155.34 32.95 152.79 32.77 150.38 33.16 L 150.22 32.47 C 150.07 31.89 149.76 30.73 149.61 30.15 C 144.28 32.08 138.33 35.48 132.69 32.39 C 129.93 31.37 130.63 27.92 130.14 25.62 C 134.12 26.28 138.10 26.92 142.07 27.70 C 141.45 26.19 140.82 24.68 140.19 23.17 C 143.22 23.72 146.23 24.39 149.19 25.25 C 150.64 24.23 152.08 23.20 153.52 22.17 M 103.01 32.69 C 100.68 32.86 98.35 33.01 96.02 33.15 C 96.03 33.98 96.05 35.62 96.06 36.45 C 98.34 36.11 102.89 35.44 105.16 35.11 C 107.65 33.15 109.30 30.38 110.73 27.60 C 107.30 27.81 104.13 29.21 103.01 32.69 M 114.61 36.94 C 114.39 37.52 114.18 38.10 113.96 38.68 C 115.21 38.86 116.45 39.05 117.70 39.23 C 117.59 39.68 117.38 40.59 117.28 41.04 C 121.21 38.86 125.32 37.07 129.38 35.16 C 124.48 35.92 119.61 37.62 114.61 36.94 M 96.71 45.61 C 98.43 46.18 100.16 46.72 101.90 47.25 C 101.93 46.43 101.99 44.79 102.02 43.97 C 100.23 44.43 98.45 44.98 96.71 45.61 M 151.48 44.97 C 153.25 45.89 155.06 46.74 156.92 47.47 C 156.30 46.68 155.67 45.90 155.05 45.11 C 159.49 45.80 164.02 45.65 168.41 44.64 C 162.77 44.00 157.09 44.22 151.48 44.97 Z" />
<path fill="#3c6bbe" opacity="1.00" d=" M 0.00 30.86 C 6.74 28.04 14.08 27.40 21.31 27.01 C 20.04 27.44 18.77 27.86 17.51 28.28 C 18.14 29.98 18.74 31.70 19.36 33.41 C 13.17 35.92 6.54 36.92 0.00 38.07 L 0.00 30.86 Z" />
<path fill="#3c6bbe" opacity="1.00" d=" M 8.30 39.87 C 11.59 38.24 14.97 35.98 18.81 36.26 C 22.32 36.90 25.35 38.94 28.29 40.86 C 25.86 42.67 23.32 44.33 20.72 45.89 C 20.83 47.59 20.96 49.27 21.04 50.97 C 20.36 50.92 19.01 50.84 18.34 50.79 C 13.91 50.53 9.48 50.26 5.05 49.98 C 5.97 48.70 6.88 47.42 7.78 46.13 C 5.49 47.35 3.24 48.62 1.00 49.93 C 0.66 50.54 0.33 51.15 0.00 51.76 L 0.00 38.84 C 2.27 39.13 4.54 39.39 6.82 39.59 C 8.75 43.33 11.81 46.39 15.71 48.05 C 13.24 45.33 10.68 42.69 8.30 39.87 Z" />
</g>
<g id="#3b6bbeff">
<path fill="#3b6bbe" opacity="1.00" d=" M 58.97 28.64 C 61.84 26.95 64.86 24.80 68.49 26.37 C 71.90 26.65 76.12 27.66 73.87 32.72 C 70.19 36.25 64.77 36.71 60.11 38.30 C 62.66 41.86 65.64 45.17 69.64 47.13 C 67.46 44.59 65.25 42.08 63.19 39.45 C 69.37 36.50 76.22 34.62 83.04 36.83 C 81.46 41.20 79.03 45.23 75.70 48.48 C 76.24 49.17 76.77 49.85 77.31 50.54 C 76.57 50.52 75.09 50.49 74.35 50.47 C 69.48 50.32 64.61 50.14 59.74 49.89 C 60.86 48.25 62.02 46.64 63.17 45.03 C 61.21 45.72 59.25 46.39 57.28 47.05 C 57.74 48.32 58.19 49.58 58.64 50.86 C 57.83 50.73 57.02 50.62 56.20 50.50 C 53.00 50.03 49.81 49.49 46.58 49.22 C 45.94 49.15 45.30 49.11 44.66 49.10 C 45.00 47.98 45.29 46.85 45.59 45.72 C 47.84 46.39 50.10 47.00 52.40 47.46 C 50.18 46.24 48.08 44.67 45.60 43.99 C 42.85 43.91 40.16 44.67 37.46 45.11 C 39.22 45.20 40.99 45.28 42.75 45.32 C 42.16 46.36 41.56 47.41 40.97 48.46 C 41.63 48.66 42.94 49.07 43.60 49.27 C 38.40 50.08 33.18 50.74 27.97 51.45 C 26.66 50.78 25.36 50.12 24.05 49.47 C 28.39 44.84 30.06 38.27 35.38 34.49 C 35.47 33.76 35.56 33.03 35.65 32.30 C 33.81 33.27 32.00 34.31 30.05 35.04 C 26.16 36.86 22.21 33.57 18.43 32.93 C 20.61 30.39 23.02 26.81 26.91 27.58 C 34.29 29.07 41.74 27.78 49.10 26.95 C 48.12 27.47 47.13 27.99 46.15 28.51 C 47.20 29.70 48.27 30.88 49.33 32.07 C 47.39 34.29 45.44 36.48 43.55 38.74 C 46.04 38.61 48.54 38.54 51.04 38.55 C 51.73 34.70 52.62 30.88 53.43 27.05 C 55.30 27.48 57.16 27.99 58.97 28.64 Z" />
</g>
<g id="#3c6cbeff">
<path fill="#3c6cbe" opacity="1.00" d=" M 185.56 31.54 C 187.08 30.20 188.25 28.21 190.18 27.47 C 201.44 26.50 212.74 28.18 224.00 27.16 L 224.00 44.95 C 222.41 44.88 219.22 44.74 217.63 44.67 C 217.63 45.90 217.70 47.14 217.85 48.36 C 219.39 48.28 222.46 48.12 224.00 48.04 L 224.00 49.78 C 214.71 49.50 205.46 50.43 196.19 50.62 C 194.34 50.21 192.52 49.71 190.70 49.20 C 191.78 47.96 193.96 45.50 195.04 44.27 C 196.28 44.67 197.53 45.06 198.77 45.47 C 197.90 42.42 198.07 39.24 198.60 36.15 C 201.43 36.05 204.26 35.94 207.09 35.82 C 205.95 33.48 204.90 31.10 203.94 28.68 C 201.54 31.17 199.18 33.70 196.85 36.25 C 193.02 34.86 189.30 33.15 185.56 31.54 M 215.01 32.68 C 212.66 32.89 210.30 33.10 207.96 33.29 C 208.02 33.84 208.15 34.94 208.22 35.48 C 210.47 36.45 212.77 37.50 214.97 38.63 C 217.67 35.05 220.55 31.58 222.68 27.61 C 219.28 27.82 216.13 29.23 215.01 32.68 M 212.66 42.25 C 213.51 44.05 214.43 45.83 215.43 47.56 C 215.40 45.32 215.39 43.07 215.37 40.83 C 214.69 41.19 213.33 41.89 212.66 42.25 M 209.53 45.12 C 209.68 45.44 209.96 46.09 210.10 46.41 C 212.70 47.02 210.95 42.94 209.53 45.12 Z" />
</g>
<g id="#4575c9ff">
<path fill="#4575c9" opacity="1.00" d=" M 103.01 32.69 C 104.13 29.21 107.30 27.81 110.73 27.60 C 109.30 30.38 107.65 33.15 105.16 35.11 C 102.89 35.44 98.34 36.11 96.06 36.45 C 96.05 35.62 96.03 33.98 96.02 33.15 C 98.35 33.01 100.68 32.86 103.01 32.69 Z" />
<path fill="#4575c9" opacity="1.00" d=" M 215.01 32.68 C 216.13 29.23 219.28 27.82 222.68 27.61 C 220.55 31.58 217.67 35.05 214.97 38.63 C 212.77 37.50 210.47 36.45 208.22 35.48 C 208.15 34.94 208.02 33.84 207.96 33.29 C 210.30 33.10 212.66 32.89 215.01 32.68 Z" />
</g>
<g id="#608fe4ff">
<path fill="#608fe4" opacity="1.00" d=" M 147.56 32.65 C 147.04 30.78 149.71 31.38 150.22 32.47 L 150.38 33.16 C 149.28 33.54 148.34 33.37 147.56 32.65 Z" />
</g>
<g id="#4c80ccff">
<path fill="#4c80cc" opacity="1.00" d=" M 212.66 42.25 C 213.33 41.89 214.69 41.19 215.37 40.83 C 215.39 43.07 215.40 45.32 215.43 47.56 C 214.43 45.83 213.51 44.05 212.66 42.25 Z" />
</g>
<g id="#4779cfff">
<path fill="#4779cf" opacity="1.00" d=" M 37.46 45.11 C 40.16 44.67 42.85 43.91 45.60 43.99 C 48.08 44.67 50.18 46.24 52.40 47.46 C 50.10 47.00 47.84 46.39 45.59 45.72 C 45.29 46.85 45.00 47.98 44.66 49.10 L 44.25 49.17 L 43.60 49.27 C 42.94 49.07 41.63 48.66 40.97 48.46 C 41.56 47.41 42.16 46.36 42.75 45.32 C 40.99 45.28 39.22 45.20 37.46 45.11 Z" />
</g>
<g id="#5083d1ff">
<path fill="#5083d1" opacity="1.00" d=" M 96.71 45.61 C 98.45 44.98 100.23 44.43 102.02 43.97 C 101.99 44.79 101.93 46.43 101.90 47.25 C 100.16 46.72 98.43 46.18 96.71 45.61 Z" />
</g>
<g id="#477ed0ff">
<path fill="#477ed0" opacity="1.00" d=" M 151.48 44.97 C 157.09 44.22 162.77 44.00 168.41 44.64 C 164.02 45.65 159.49 45.80 155.05 45.11 C 155.67 45.90 156.30 46.68 156.92 47.47 C 155.06 46.74 153.25 45.89 151.48 44.97 Z" />
</g>
<g id="#417fcbff">
<path fill="#417fcb" opacity="1.00" d=" M 57.28 47.05 C 59.25 46.39 61.21 45.72 63.17 45.03 C 62.02 46.64 60.86 48.25 59.74 49.89 C 64.61 50.14 69.48 50.32 74.35 50.47 C 69.16 51.28 63.85 51.86 58.64 50.86 C 58.19 49.58 57.74 48.32 57.28 47.05 Z" />
<path fill="#417fcb" opacity="1.00" d=" M 169.31 47.05 C 171.26 46.39 173.22 45.72 175.17 45.03 C 174.02 46.65 172.86 48.26 171.73 49.90 C 176.60 50.13 181.45 50.43 186.33 50.62 C 181.13 51.32 175.87 51.52 170.64 51.09 C 170.20 49.74 169.76 48.40 169.31 47.05 Z" />
</g>
<g id="#4180cbff">
<path fill="#4180cb" opacity="1.00" d=" M 130.97 47.47 C 131.84 46.72 132.71 45.97 133.59 45.23 C 135.32 47.29 137.00 49.54 139.40 50.88 L 139.95 51.18 C 137.61 51.02 135.26 50.89 132.92 50.77 C 133.13 50.17 133.55 48.95 133.75 48.35 C 133.06 48.13 131.67 47.69 130.97 47.47 Z" />
</g>
<g id="#5790d3ff">
<path fill="#5790d3" opacity="1.00" d=" M 209.53 45.12 C 210.95 42.94 212.70 47.02 210.10 46.41 C 209.96 46.09 209.68 45.44 209.53 45.12 Z" />
</g>
<g id="#4271cdff">
<path fill="#4271cd" opacity="1.00" d=" M 217.63 44.67 C 219.22 44.74 222.41 44.88 224.00 44.95 L 224.00 48.04 C 222.46 48.12 219.39 48.28 217.85 48.36 C 217.70 47.14 217.63 45.90 217.63 44.67 Z" />
</g>
<g id="#4080cbff">
<path fill="#4080cb" opacity="1.00" d=" M 1.00 49.93 C 3.24 48.62 5.49 47.35 7.78 46.13 C 6.88 47.42 5.97 48.70 5.05 49.98 C 9.48 50.26 13.91 50.53 18.34 50.79 C 12.57 51.46 6.55 52.15 1.00 49.93 Z" />
</g>
<g id="#5676acff">
<path fill="#5676ac" opacity="1.00" d=" M 46.58 49.22 C 49.81 49.49 53.00 50.03 56.20 50.50 C 52.99 50.08 49.79 49.66 46.58 49.22 Z" />
</g>
<g id="#417fcaff">
<path fill="#417fca" opacity="1.00" d=" M 113.98 48.58 C 119.36 49.66 124.84 50.12 130.29 50.70 C 125.08 51.34 119.78 51.74 114.58 50.83 C 114.43 50.27 114.13 49.15 113.98 48.58 Z" />
</g>
<g id="#3c6394ff">
<path fill="#3c6394" opacity="1.00" d=" M 153.87 49.20 C 156.42 48.92 158.98 49.17 161.52 49.45 C 159.83 49.95 156.44 50.94 154.75 51.43 L 154.22 51.59 C 154.13 50.99 153.96 49.80 153.87 49.20 Z" />
</g>
<g id="#2e5ea5ff">
<path fill="#2e5ea5" opacity="1.00" d=" M 162.05 49.06 C 163.21 48.18 164.98 46.85 166.37 48.03 C 166.86 49.46 164.61 49.64 163.69 49.67 C 163.28 49.52 162.46 49.21 162.05 49.06 Z" />
</g>
<g id="#4f7ca9ff">
<path fill="#4f7ca9" opacity="1.00" d=" M 27.97 51.45 C 33.18 50.74 38.40 50.08 43.60 49.27 L 44.25 49.17 C 43.44 49.88 42.64 50.60 41.85 51.34 C 37.22 51.43 32.59 51.58 27.97 51.45 Z" />
</g>
<g id="#405e4fff">
<path fill="#405e4f" opacity="1.00" d=" M 44.25 49.17 L 44.66 49.10 C 45.30 49.11 45.94 49.15 46.58 49.22 C 49.79 49.66 52.99 50.08 56.20 50.50 C 57.02 50.62 57.83 50.73 58.64 50.86 C 63.85 51.86 69.16 51.28 74.35 50.47 C 75.09 50.49 76.57 50.52 77.31 50.54 C 77.77 50.87 78.68 51.53 79.14 51.86 L 79.54 52.18 C 77.35 52.05 75.15 52.07 72.96 52.25 C 70.81 52.43 68.66 52.68 66.51 52.84 C 60.94 52.90 55.37 52.77 49.80 52.77 C 49.32 52.70 48.34 52.57 47.85 52.50 C 47.28 52.44 46.13 52.33 45.56 52.27 C 44.15 52.13 42.74 51.99 41.33 51.84 L 41.85 51.34 C 42.64 50.60 43.44 49.88 44.25 49.17 Z" />
</g>
<g id="#5278a4ff">
<path fill="#5278a4" opacity="1.00" d=" M 85.44 50.64 C 89.67 50.55 93.89 50.12 98.09 49.60 C 97.98 50.04 97.76 50.93 97.64 51.38 C 95.21 51.77 92.78 52.18 90.34 52.51 L 89.47 52.62 C 88.07 52.19 86.63 51.93 85.16 51.91 C 84.78 51.61 84.01 51.02 83.62 50.72 C 84.07 50.70 84.98 50.66 85.44 50.64 Z" />
</g>
<g id="#305f7aff">
<path fill="#305f7a" opacity="1.00" d=" M 98.09 49.60 C 98.49 49.56 99.28 49.49 99.68 49.45 L 100.18 49.54 C 99.92 50.03 99.38 51.02 99.12 51.52 L 98.33 51.76 L 97.64 51.38 C 97.76 50.93 97.98 50.04 98.09 49.60 Z" />
</g>
<g id="#4971abff">
<path fill="#4971ab" opacity="1.00" d=" M 99.68 49.45 C 103.85 49.50 107.99 49.99 112.12 50.54 C 108.14 50.26 104.14 50.13 100.18 49.54 L 99.68 49.45 Z" />
</g>
<g id="#5a7bacff">
<path fill="#5a7bac" opacity="1.00" d=" M 139.40 50.88 C 144.28 50.94 149.07 49.92 153.87 49.20 C 153.96 49.80 154.13 50.99 154.22 51.59 C 149.46 51.45 144.70 51.46 139.95 51.18 L 139.40 50.88 Z" />
</g>
<g id="#486f99ff">
<path fill="#486f99" opacity="1.00" d=" M 196.19 50.62 C 205.46 50.43 214.71 49.50 224.00 49.78 L 224.00 50.56 C 219.54 50.75 215.09 50.96 210.66 51.52 C 210.26 51.59 209.46 51.74 209.05 51.81 C 208.73 51.85 208.09 51.94 207.77 51.99 C 207.32 52.09 206.41 52.31 205.96 52.41 C 205.33 52.34 204.07 52.20 203.44 52.12 L 202.45 51.96 C 200.67 51.63 197.11 50.95 195.33 50.62 L 196.19 50.62 Z" />
</g>
<g id="#4b6446ff">
<path fill="#4b6446" opacity="1.00" d=" M 0.00 51.76 C 0.33 51.15 0.66 50.54 1.00 49.93 C 6.55 52.15 12.57 51.46 18.34 50.79 C 19.01 50.84 20.36 50.92 21.04 50.97 C 21.45 51.02 22.26 51.11 22.67 51.16 L 23.40 51.29 C 23.24 51.78 22.93 52.75 22.77 53.23 C 22.24 52.88 21.18 52.17 20.64 51.82 C 19.43 50.62 17.79 51.71 16.77 52.57 C 14.70 52.73 12.62 52.93 10.55 53.03 C 7.02 52.91 3.51 52.52 0.00 52.14 L 0.00 51.76 Z" />
</g>
<g id="#385848ff">
<path fill="#385848" opacity="1.00" d=" M 99.12 51.52 C 99.38 51.02 99.92 50.03 100.18 49.54 C 104.14 50.13 108.14 50.26 112.12 50.54 C 112.94 50.63 113.76 50.73 114.58 50.83 C 119.78 51.74 125.08 51.34 130.29 50.70 C 130.95 50.72 132.26 50.76 132.92 50.77 C 135.26 50.89 137.61 51.02 139.95 51.18 C 144.70 51.46 149.46 51.45 154.22 51.59 C 153.29 52.15 152.41 52.77 151.54 53.42 C 145.67 53.05 139.81 52.56 133.92 52.51 C 133.61 52.32 132.99 51.95 132.68 51.77 C 131.45 50.67 129.84 51.63 128.75 52.41 C 126.71 52.69 124.67 52.95 122.65 53.23 C 119.08 53.06 115.53 52.55 111.96 52.49 C 110.42 52.51 107.35 52.54 105.82 52.55 C 104.45 52.36 103.08 52.15 101.72 51.92 C 101.07 51.82 99.77 51.62 99.12 51.52 Z" />
</g>
<g id="#3e5a47ff">
<path fill="#3e5a47" opacity="1.00" d=" M 154.75 51.43 C 156.44 50.94 159.83 49.95 161.52 49.45 C 161.58 51.11 163.47 51.31 164.73 51.01 C 166.70 51.01 168.67 51.01 170.64 51.09 C 175.87 51.52 181.13 51.32 186.33 50.62 C 187.06 50.60 188.52 50.56 189.25 50.55 C 191.27 50.56 193.29 50.58 195.33 50.62 C 197.11 50.95 200.67 51.63 202.45 51.96 C 202.01 52.17 201.13 52.59 200.69 52.80 C 196.92 52.66 193.16 52.53 189.39 52.62 C 189.19 52.47 188.78 52.17 188.58 52.02 C 187.57 50.97 186.00 51.24 184.83 51.81 C 182.69 52.58 180.52 53.29 178.40 54.13 C 177.58 53.50 176.66 52.82 175.58 52.87 C 168.63 52.45 161.68 52.04 154.75 51.43 Z" />
</g>
<g id="#648aadff">
<path fill="#648aad" opacity="1.00" d=" M 161.52 49.45 L 162.05 49.06 C 162.46 49.21 163.28 49.52 163.69 49.67 C 163.95 50.01 164.47 50.68 164.73 51.01 C 163.47 51.31 161.58 51.11 161.52 49.45 Z" />
</g>
<g id="#355753ff">
<path fill="#355753" opacity="1.00" d=" M 210.66 51.52 C 215.09 50.96 219.54 50.75 224.00 50.56 L 224.00 52.45 C 220.12 52.42 216.22 52.48 212.38 51.88 C 211.95 51.79 211.09 51.61 210.66 51.52 Z" />
</g>
<g id="#93bd6bff">
<path fill="#93bd6b" opacity="1.00" d=" M 16.77 52.57 C 17.79 51.71 19.43 50.62 20.64 51.82 C 19.93 53.33 18.04 52.98 16.77 52.57 Z" />
<path fill="#93bd6b" opacity="1.00" d=" M 128.75 52.41 C 129.84 51.63 131.45 50.67 132.68 51.77 C 131.96 53.32 130.00 52.93 128.75 52.41 Z" />
<path fill="#93bd6b" opacity="1.00" d=" M 184.83 51.81 C 186.00 51.24 187.57 50.97 188.58 52.02 C 187.67 53.29 185.62 53.13 184.83 51.81 Z" />
</g>
<g id="#204337ff">
<path fill="#204337" opacity="1.00" d=" M 22.67 51.16 C 24.43 51.31 26.20 51.39 27.97 51.45 C 32.59 51.58 37.22 51.43 41.85 51.34 L 41.33 51.84 C 40.69 52.44 40.05 53.04 39.40 53.62 C 34.06 52.88 28.70 52.28 23.40 51.29 L 22.67 51.16 Z" />
</g>
<g id="#79a658ff">
<path fill="#79a658" opacity="1.00" d=" M 72.96 52.25 C 75.15 52.07 77.35 52.05 79.54 52.18 C 80.72 52.41 81.88 52.33 83.00 51.95 C 83.32 52.19 83.98 52.66 84.30 52.89 C 85.90 53.61 87.62 54.00 89.35 54.20 C 89.97 54.09 91.20 53.87 91.82 53.76 C 92.55 56.54 96.44 54.50 93.72 52.79 C 95.26 52.48 96.80 52.12 98.33 51.76 C 97.57 54.64 101.43 54.35 101.72 51.92 C 103.08 52.15 104.45 52.36 105.82 52.55 C 108.26 53.12 110.65 53.89 113.02 54.72 C 112.67 53.98 112.31 53.24 111.96 52.49 C 115.53 52.55 119.08 53.06 122.65 53.23 C 121.28 54.15 119.93 55.07 118.58 56.00 L 65.99 56.00 C 69.36 55.16 72.71 54.24 76.10 53.46 C 75.05 53.05 74.00 52.65 72.96 52.25 Z" />
</g>
<g id="#446460ff">
<path fill="#446460" opacity="1.00" d=" M 83.62 50.72 C 84.01 51.02 84.78 51.61 85.16 51.91 L 85.11 52.62 L 84.30 52.89 C 83.98 52.66 83.32 52.19 83.00 51.95 C 83.15 51.64 83.47 51.03 83.62 50.72 Z" />
</g>
<g id="#194338ff">
<path fill="#194338" opacity="1.00" d=" M 90.34 52.51 C 92.78 52.18 95.21 51.77 97.64 51.38 L 98.33 51.76 C 96.80 52.12 95.26 52.48 93.72 52.79 C 93.28 52.87 92.40 53.03 91.96 53.11 C 91.56 52.96 90.75 52.66 90.34 52.51 Z" />
</g>
<g id="#729b57ff">
<path fill="#729b57" opacity="1.00" d=" M 154.22 51.59 L 154.75 51.43 C 161.68 52.04 168.63 52.45 175.58 52.87 C 175.08 53.86 174.71 54.92 174.45 56.00 L 161.19 56.00 C 160.62 55.25 159.48 53.76 158.91 53.02 C 157.54 54.03 156.16 55.04 154.76 56.00 L 148.08 56.00 C 149.25 55.16 150.39 54.28 151.54 53.42 C 152.41 52.77 153.29 52.15 154.22 51.59 Z" />
</g>
<g id="#567b4eff">
<path fill="#567b4e" opacity="1.00" d=" M 209.05 51.81 C 209.46 51.74 210.26 51.59 210.66 51.52 C 211.09 51.61 211.95 51.79 212.38 51.88 C 212.23 54.08 209.63 53.36 209.05 51.81 Z" />
</g>
<g id="#77a35dff">
<path fill="#77a35d" opacity="1.00" d=" M 0.00 52.14 C 3.51 52.52 7.02 52.91 10.55 53.03 C 9.36 54.04 8.17 55.03 6.96 56.00 L 0.00 56.00 L 0.00 52.14 Z" />
</g>
<g id="#6a9a60ff">
<path fill="#6a9a60" opacity="1.00" d=" M 10.55 53.03 C 12.62 52.93 14.70 52.73 16.77 52.57 C 18.04 52.98 19.93 53.33 20.64 51.82 C 21.18 52.17 22.24 52.88 22.77 53.23 C 22.56 53.92 22.12 55.31 21.90 56.00 L 21.44 56.00 C 20.22 55.80 17.77 55.39 16.55 55.19 C 15.86 55.39 14.49 55.80 13.80 56.00 L 6.96 56.00 C 8.17 55.03 9.36 54.04 10.55 53.03 Z" />
<path fill="#6a9a60" opacity="1.00" d=" M 122.65 53.23 C 124.67 52.95 126.71 52.69 128.75 52.41 C 130.00 52.93 131.96 53.32 132.68 51.77 C 132.99 51.95 133.61 52.32 133.92 52.51 C 134.03 53.38 134.25 55.13 134.36 56.00 L 133.60 56.00 C 131.02 55.94 128.46 55.93 125.89 56.00 L 118.58 56.00 C 119.93 55.07 121.28 54.15 122.65 53.23 Z" />
</g>
<g id="#78a661ff">
<path fill="#78a661" opacity="1.00" d=" M 23.40 51.29 C 28.70 52.28 34.06 52.88 39.40 53.62 C 38.45 54.46 37.46 55.25 36.45 56.00 L 21.90 56.00 C 22.12 55.31 22.56 53.92 22.77 53.23 C 22.93 52.75 23.24 51.78 23.40 51.29 Z" />
</g>
<g id="#6b9f45ff">
<path fill="#6b9f45" opacity="1.00" d=" M 39.40 53.62 C 40.05 53.04 40.69 52.44 41.33 51.84 C 42.74 51.99 44.15 52.13 45.56 52.27 C 44.81 53.52 44.06 54.77 43.26 56.00 L 36.45 56.00 C 37.46 55.25 38.45 54.46 39.40 53.62 Z" />
</g>
<g id="#81ac5cff">
<path fill="#81ac5c" opacity="1.00" d=" M 45.56 52.27 C 46.13 52.33 47.28 52.44 47.85 52.50 C 47.94 53.70 48.17 54.89 48.67 56.00 L 43.26 56.00 C 44.06 54.77 44.81 53.52 45.56 52.27 Z" />
</g>
<g id="#669043ff">
<path fill="#669043" opacity="1.00" d=" M 47.85 52.50 C 48.34 52.57 49.32 52.70 49.80 52.77 C 49.81 53.58 49.81 55.19 49.81 56.00 L 48.67 56.00 C 48.17 54.89 47.94 53.70 47.85 52.50 Z" />
</g>
<g id="#77a15fff">
<path fill="#77a15f" opacity="1.00" d=" M 49.80 52.77 C 55.37 52.77 60.94 52.90 66.51 52.84 C 65.34 53.91 64.15 54.96 62.96 56.00 L 49.81 56.00 C 49.81 55.19 49.81 53.58 49.80 52.77 Z" />
</g>
<g id="#659766ff">
<path fill="#659766" opacity="1.00" d=" M 66.51 52.84 C 68.66 52.68 70.81 52.43 72.96 52.25 C 74.00 52.65 75.05 53.05 76.10 53.46 C 72.71 54.24 69.36 55.16 65.99 56.00 L 62.96 56.00 C 64.15 54.96 65.34 53.91 66.51 52.84 Z" />
</g>
<g id="#1c3d42ff">
<path fill="#1c3d42" opacity="1.00" d=" M 85.16 51.91 C 86.63 51.93 88.07 52.19 89.47 52.62 C 89.30 52.93 88.97 53.55 88.80 53.86 C 87.53 53.58 86.29 53.17 85.11 52.62 L 85.16 51.91 Z" />
</g>
<g id="#497060ff">
<path fill="#497060" opacity="1.00" d=" M 89.47 52.62 L 90.34 52.51 C 90.75 52.66 91.56 52.96 91.96 53.11 L 91.82 53.76 C 91.20 53.87 89.97 54.09 89.35 54.20 L 88.80 53.86 C 88.97 53.55 89.30 52.93 89.47 52.62 Z" />
</g>
<g id="#5c8d48ff">
<path fill="#5c8d48" opacity="1.00" d=" M 98.33 51.76 L 99.12 51.52 C 99.77 51.62 101.07 51.82 101.72 51.92 C 101.43 54.35 97.57 54.64 98.33 51.76 Z" />
</g>
<g id="#67976dff">
<path fill="#67976d" opacity="1.00" d=" M 105.82 52.55 C 107.35 52.54 110.42 52.51 111.96 52.49 C 112.31 53.24 112.67 53.98 113.02 54.72 C 110.65 53.89 108.26 53.12 105.82 52.55 Z" />
</g>
<g id="#7aa564ff">
<path fill="#7aa564" opacity="1.00" d=" M 133.92 52.51 C 139.81 52.56 145.67 53.05 151.54 53.42 C 150.39 54.28 149.25 55.16 148.08 56.00 L 134.36 56.00 C 134.25 55.13 134.03 53.38 133.92 52.51 Z" />
</g>
<g id="#8bb561fe">
<path fill="#8bb561" opacity="1.00" d=" M 175.58 52.87 C 176.66 52.82 177.58 53.50 178.40 54.13 C 177.47 54.76 176.54 55.39 175.60 56.00 L 174.45 56.00 C 174.71 54.92 175.08 53.86 175.58 52.87 Z" />
</g>
<g id="#699960ff">
<path fill="#699960" opacity="1.00" d=" M 178.40 54.13 C 180.52 53.29 182.69 52.58 184.83 51.81 C 185.62 53.13 187.67 53.29 188.58 52.02 C 188.78 52.17 189.19 52.47 189.39 52.62 C 189.80 53.47 190.62 55.16 191.03 56.00 L 189.83 56.00 C 188.51 55.79 185.86 55.36 184.53 55.14 C 183.86 55.36 182.50 55.79 181.82 56.00 L 175.60 56.00 C 176.54 55.39 177.47 54.76 178.40 54.13 Z" />
</g>
<g id="#7ba45efe">
<path fill="#7ba45e" opacity="1.00" d=" M 189.39 52.62 C 193.16 52.53 196.92 52.66 200.69 52.80 C 201.62 53.61 202.86 54.07 204.07 53.64 C 204.52 53.53 205.40 53.31 205.85 53.20 C 206.81 54.21 209.10 53.41 207.77 51.99 C 208.09 51.94 208.73 51.85 209.05 51.81 C 209.63 53.36 212.23 54.08 212.38 51.88 C 216.22 52.48 220.12 52.42 224.00 52.45 L 224.00 56.00 L 191.03 56.00 C 190.62 55.16 189.80 53.47 189.39 52.62 Z" />
</g>
<g id="#49744bff">
<path fill="#49744b" opacity="1.00" d=" M 202.45 51.96 L 203.44 52.12 C 203.60 52.50 203.92 53.26 204.07 53.64 C 202.86 54.07 201.62 53.61 200.69 52.80 C 201.13 52.59 202.01 52.17 202.45 51.96 Z" />
</g>
<g id="#073126ff">
<path fill="#073126" opacity="1.00" d=" M 203.44 52.12 C 204.07 52.20 205.33 52.34 205.96 52.41 L 205.85 53.20 C 205.40 53.31 204.52 53.53 204.07 53.64 C 203.92 53.26 203.60 52.50 203.44 52.12 Z" />
</g>
<g id="#355e47ff">
<path fill="#355e47" opacity="1.00" d=" M 205.96 52.41 C 206.41 52.31 207.32 52.09 207.77 51.99 C 209.10 53.41 206.81 54.21 205.85 53.20 L 205.96 52.41 Z" />
</g>
<g id="#8bb183ff">
<path fill="#8bb183" opacity="1.00" d=" M 84.30 52.89 L 85.11 52.62 C 86.29 53.17 87.53 53.58 88.80 53.86 L 89.35 54.20 C 87.62 54.00 85.90 53.61 84.30 52.89 Z" />
</g>
<g id="#88b379ff">
<path fill="#88b379" opacity="1.00" d=" M 91.96 53.11 C 92.40 53.03 93.28 52.87 93.72 52.79 C 96.44 54.50 92.55 56.54 91.82 53.76 L 91.96 53.11 Z" />
</g>
<g id="#89b252ff">
<path fill="#89b252" opacity="1.00" d=" M 154.76 56.00 C 156.16 55.04 157.54 54.03 158.91 53.02 C 159.48 53.76 160.62 55.25 161.19 56.00 L 154.76 56.00 Z" />
</g>
<g id="#83ae61ff">
<path fill="#83ae61" opacity="1.00" d=" M 13.80 56.00 C 14.49 55.80 15.86 55.39 16.55 55.19 C 17.77 55.39 20.22 55.80 21.44 56.00 L 13.80 56.00 Z" />
<path fill="#83ae61" opacity="1.00" d=" M 125.89 56.00 C 128.46 55.93 131.02 55.94 133.60 56.00 L 125.89 56.00 Z" />
<path fill="#83ae61" opacity="1.00" d=" M 181.82 56.00 C 182.50 55.79 183.86 55.36 184.53 55.14 C 185.86 55.36 188.51 55.79 189.83 56.00 L 181.82 56.00 Z" />
</g>
</svg>
