<?xml version="1.0" encoding="UTF-8" ?>
<!DOCTYPE svg PUBLIC "-//W3C//DTD SVG 1.1//EN" "http://www.w3.org/Graphics/SVG/1.1/DTD/svg11.dtd">
<svg width="224pt" height="56pt" viewBox="0 0 224 56" version="1.1" xmlns="http://www.w3.org/2000/svg">
<g id="#739f5cff">
<path fill="#739f5c" opacity="1.00" d=" M 0.00 0.00 L 224.00 0.00 L 224.00 3.82 C 223.56 3.75 222.69 3.62 222.25 3.55 C 219.09 2.98 215.88 2.93 212.69 3.22 L 211.70 3.27 C 211.45 1.94 210.62 1.41 209.20 1.67 C 207.11 1.78 205.01 1.81 202.92 1.74 C 201.61 1.58 200.67 2.11 200.11 3.34 C 196.92 4.46 193.69 5.52 190.36 6.12 C 189.75 5.62 189.15 5.12 188.55 4.63 C 188.08 4.08 187.14 3.00 186.67 2.46 C 184.89 2.10 183.10 1.80 181.30 1.58 C 176.29 2.58 171.33 6.14 166.11 4.04 C 163.07 3.07 159.87 2.78 156.70 3.16 L 155.71 3.22 C 155.44 1.89 154.60 1.37 153.19 1.66 C 151.10 1.78 149.01 1.81 146.92 1.74 C 145.61 1.58 144.67 2.11 144.11 3.34 C 140.92 4.46 137.69 5.52 134.36 6.12 C 133.75 5.62 133.15 5.12 132.55 4.63 C 132.08 4.08 131.14 3.00 130.67 2.46 C 128.89 2.10 127.10 1.80 125.30 1.58 C 120.29 2.58 115.33 6.14 110.11 4.04 C 107.07 3.07 103.87 2.78 100.70 3.16 L 99.71 3.22 C 99.44 1.89 98.60 1.37 97.19 1.66 C 95.10 1.78 93.01 1.81 90.92 1.74 C 89.61 1.58 88.67 2.11 88.11 3.34 C 84.92 4.46 81.69 5.52 78.36 6.12 C 77.75 5.62 77.15 5.12 76.55 4.63 C 76.08 4.08 75.14 3.00 74.67 2.46 C 72.89 2.10 71.10 1.80 69.30 1.58 C 64.29 2.58 59.33 6.14 54.11 4.04 C 51.07 3.07 47.87 2.79 44.70 3.16 L 43.71 3.22 C 43.44 1.90 42.60 1.38 41.19 1.66 C 39.10 1.78 37.01 1.81 34.92 1.74 C 33.60 1.58 32.67 2.12 32.12 3.37 C 29.02 4.42 25.90 5.47 22.65 5.88 C 21.88 5.45 21.11 5.01 20.32 4.62 C 18.05 3.46 15.80 2.29 13.48 1.25 C 8.80 2.44 4.28 4.23 0.00 6.47 L 0.00 0.00 Z" />
</g>
<g id="#5e8e65fe">
<path fill="#5e8e65" opacity="1.00" d=" M 13.48 1.25 C 15.80 2.29 18.05 3.46 20.32 4.62 C 17.96 3.82 15.56 3.14 13.22 2.31 L 13.48 1.25 Z" />
<path fill="#5e8e65" opacity="1.00" d=" M 69.30 1.58 C 71.10 1.80 72.89 2.10 74.67 2.46 C 75.14 3.00 76.08 4.08 76.55 4.63 C 74.09 3.85 71.59 3.21 69.14 2.41 L 69.30 1.58 Z" />
<path fill="#5e8e65" opacity="1.00" d=" M 125.30 1.58 C 127.10 1.80 128.89 2.10 130.67 2.46 C 131.14 3.00 132.08 4.08 132.55 4.63 C 130.09 3.85 127.59 3.21 125.14 2.41 L 125.30 1.58 Z" />
<path fill="#5e8e65" opacity="1.00" d=" M 181.30 1.58 C 183.10 1.80 184.89 2.10 186.67 2.46 C 187.14 3.00 188.08 4.08 188.55 4.63 C 186.09 3.85 183.59 3.21 181.14 2.41 L 181.30 1.58 Z" />
</g>
<g id="#342f2bff">
<path fill="#342f2b" opacity="1.00" d=" M 0.00 6.47 C 4.28 4.23 8.80 2.44 13.48 1.25 L 13.22 2.31 C 13.07 2.86 12.76 3.95 12.60 4.50 C 15.93 5.10 19.25 5.85 22.65 5.88 C 25.90 5.47 29.02 4.42 32.12 3.37 C 33.65 3.67 34.58 3.13 34.92 1.74 C 37.01 1.81 39.10 1.78 41.19 1.66 C 41.45 2.99 42.29 3.51 43.71 3.22 L 44.70 3.16 C 47.84 3.38 50.99 3.59 54.11 4.04 C 59.33 6.14 64.29 2.58 69.30 1.58 L 69.14 2.41 C 69.03 2.92 68.81 3.94 68.69 4.44 C 71.89 5.14 75.09 5.84 78.36 6.12 C 81.69 5.52 84.92 4.46 88.11 3.34 C 89.64 3.67 90.58 3.13 90.92 1.74 C 93.01 1.81 95.10 1.78 97.19 1.66 C 97.45 2.99 98.29 3.51 99.71 3.22 L 100.70 3.16 C 103.83 3.38 106.99 3.59 110.11 4.04 C 115.33 6.14 120.29 2.58 125.30 1.58 L 125.14 2.41 C 125.03 2.92 124.81 3.94 124.69 4.44 C 127.89 5.14 131.09 5.84 134.36 6.12 C 137.69 5.52 140.92 4.46 144.11 3.34 C 145.64 3.67 146.58 3.13 146.92 1.74 C 149.01 1.81 151.10 1.78 153.19 1.66 C 153.45 2.99 154.29 3.51 155.71 3.22 L 156.70 3.16 C 159.83 3.38 162.99 3.59 166.11 4.04 C 171.33 6.14 176.29 2.58 181.30 1.58 L 181.14 2.41 C 181.03 2.92 180.81 3.94 180.69 4.44 C 183.89 5.14 187.09 5.84 190.36 6.12 C 193.69 5.52 196.92 4.46 200.11 3.34 C 201.64 3.66 202.58 3.13 202.92 1.74 C 205.01 1.81 207.11 1.78 209.20 1.67 C 209.45 3.01 210.28 3.54 211.70 3.27 L 212.69 3.22 C 215.86 3.27 219.07 3.34 222.25 3.55 C 222.69 3.62 223.56 3.75 224.00 3.82 L 224.00 16.93 C 222.71 16.31 221.84 16.66 221.41 17.96 L 220.44 17.76 C 219.55 17.56 218.66 17.35 217.77 17.14 C 217.45 16.77 216.80 16.03 216.48 15.66 C 217.94 15.24 219.15 14.30 220.36 13.42 C 221.11 13.10 222.62 12.48 223.37 12.16 C 221.27 11.26 219.11 10.50 216.95 9.77 C 215.37 8.28 213.75 6.84 212.10 5.42 C 212.79 7.53 213.53 9.61 214.34 11.67 C 213.26 12.22 212.19 12.77 211.12 13.33 C 212.44 13.94 213.77 14.53 215.08 15.19 L 215.56 15.62 C 215.55 16.00 215.51 16.77 215.50 17.15 C 214.96 17.01 213.88 16.72 213.34 16.58 C 212.99 16.55 212.28 16.49 211.93 16.45 C 210.52 16.49 209.92 17.19 210.15 18.57 L 209.99 17.82 C 209.64 16.03 209.36 14.23 209.17 12.42 C 209.16 12.09 209.16 11.43 209.15 11.11 C 209.15 9.80 209.17 8.50 209.18 7.20 C 206.60 6.57 203.71 6.11 201.74 8.41 C 201.70 6.82 201.64 5.22 201.59 3.63 C 201.04 5.85 200.51 8.07 199.94 10.29 C 199.84 10.65 199.64 11.37 199.54 11.73 C 199.11 13.26 198.69 14.81 198.19 16.32 C 197.65 17.06 197.10 17.78 196.54 18.48 L 195.84 18.88 L 194.88 19.01 C 195.24 17.06 195.61 15.12 196.01 13.17 C 196.31 11.70 196.64 10.23 197.00 8.77 C 197.12 8.35 197.35 7.50 197.47 7.08 C 195.63 7.76 193.80 8.47 191.97 9.15 C 189.33 8.37 186.59 8.51 183.91 8.94 C 182.87 8.02 181.85 7.09 180.76 6.23 C 179.00 10.10 177.75 14.75 180.88 18.22 C 180.60 18.37 180.05 18.66 179.78 18.81 C 179.35 19.07 178.50 19.59 178.07 19.85 C 177.99 18.55 177.91 17.25 177.83 15.94 C 175.87 16.23 173.92 16.52 171.96 16.82 C 172.40 17.19 173.28 17.91 173.72 18.28 C 174.31 18.53 175.49 19.04 176.09 19.30 L 176.17 20.14 C 173.68 19.56 171.18 18.98 168.67 18.45 L 168.04 17.19 C 167.82 15.53 165.61 15.42 165.11 16.97 L 164.28 16.84 C 162.39 16.48 160.52 16.03 158.69 15.43 C 160.84 16.09 162.89 14.99 164.38 13.49 C 165.12 13.16 166.61 12.48 167.36 12.15 C 165.26 11.26 163.11 10.49 160.95 9.77 C 159.37 8.29 157.75 6.84 156.12 5.42 C 156.76 7.49 157.48 9.53 158.27 11.55 C 157.10 12.33 155.93 13.13 154.77 13.93 C 155.73 14.32 156.69 14.70 157.66 15.07 C 157.29 15.15 156.56 15.30 156.20 15.38 C 154.80 15.52 154.17 16.25 154.30 17.56 L 154.05 16.80 C 153.61 15.36 153.20 13.90 152.87 12.43 C 152.89 12.12 152.93 11.49 152.95 11.17 C 153.05 9.84 153.16 8.51 153.27 7.18 C 150.67 6.58 147.80 6.21 145.79 8.44 C 145.72 6.82 145.63 5.21 145.56 3.59 C 144.83 5.75 144.11 7.91 143.51 10.11 C 143.73 12.44 144.31 14.72 145.05 16.94 C 144.29 16.33 143.52 15.74 142.75 15.15 C 141.99 15.88 141.22 16.60 140.44 17.31 L 139.79 17.73 L 138.92 18.00 C 139.27 16.38 139.62 14.77 139.98 13.15 C 140.31 11.69 140.66 10.23 141.03 8.77 C 141.15 8.35 141.39 7.50 141.51 7.07 C 139.66 7.76 137.82 8.47 135.96 9.16 C 133.25 8.28 130.41 8.51 127.66 9.07 C 126.60 7.99 125.53 6.92 124.45 5.86 C 123.64 9.62 121.46 14.24 124.71 17.49 C 124.47 17.59 123.99 17.81 123.75 17.92 C 123.35 18.14 122.57 18.57 122.17 18.79 C 122.05 18.18 121.81 16.95 121.69 16.34 C 120.51 16.15 119.34 15.96 118.17 15.77 C 118.66 16.99 119.17 18.21 119.62 19.45 C 116.93 18.53 114.21 17.68 111.53 16.75 C 110.70 15.76 108.42 16.00 109.09 17.66 L 108.27 17.60 C 107.42 17.51 106.57 17.41 105.72 17.31 C 105.42 16.91 104.81 16.10 104.51 15.70 C 105.96 15.27 107.15 14.31 108.35 13.41 C 109.10 13.10 110.61 12.48 111.37 12.16 C 109.27 11.26 107.12 10.50 104.95 9.77 C 103.37 8.28 101.75 6.84 100.10 5.42 C 100.79 7.53 101.53 9.61 102.34 11.67 C 101.26 12.22 100.19 12.77 99.12 13.33 C 100.45 13.94 101.79 14.54 103.10 15.20 L 103.59 15.64 C 103.56 16.02 103.50 16.79 103.48 17.18 C 102.94 17.03 101.88 16.73 101.34 16.58 C 100.99 16.54 100.28 16.48 99.93 16.45 C 98.52 16.48 97.93 17.19 98.16 18.57 L 97.99 17.81 C 97.64 16.03 97.36 14.23 97.17 12.42 C 97.16 12.09 97.16 11.43 97.15 11.11 C 97.15 9.80 97.17 8.50 97.18 7.20 C 94.60 6.57 91.71 6.11 89.74 8.41 C 89.70 6.82 89.64 5.22 89.59 3.63 C 89.04 5.85 88.51 8.07 87.94 10.29 C 87.84 10.65 87.64 11.37 87.54 11.73 C 87.11 13.26 86.69 14.81 86.19 16.32 C 85.66 17.06 85.11 17.78 84.54 18.48 L 83.84 18.88 L 82.88 19.01 C 83.24 17.06 83.61 15.12 84.01 13.17 C 84.31 11.70 84.64 10.23 85.00 8.77 C 85.12 8.35 85.35 7.50 85.47 7.08 C 83.63 7.76 81.80 8.47 79.97 9.15 C 77.33 8.37 74.59 8.51 71.92 8.94 C 70.88 8.02 69.85 7.09 68.76 6.23 C 67.01 10.10 65.75 14.74 68.88 18.22 C 68.60 18.37 68.05 18.66 67.78 18.81 C 67.35 19.07 66.50 19.60 66.08 19.86 C 65.99 18.55 65.91 17.25 65.83 15.95 C 63.88 16.23 61.92 16.52 59.97 16.82 C 60.41 17.18 61.28 17.92 61.71 18.28 C 62.30 18.54 63.48 19.07 64.08 19.33 L 64.17 20.22 C 61.20 19.40 58.25 18.50 55.29 17.64 C 54.03 16.98 52.12 17.11 51.65 18.69 C 51.18 18.52 50.26 18.17 49.79 18.00 C 49.45 17.49 48.78 16.47 48.44 15.96 C 49.89 15.51 51.02 14.44 52.18 13.50 C 52.98 13.17 54.57 12.49 55.37 12.15 C 53.27 11.26 51.12 10.49 48.95 9.77 C 47.37 8.29 45.75 6.84 44.11 5.42 C 44.78 7.51 45.51 9.58 46.31 11.62 C 45.28 12.21 44.24 12.80 43.20 13.39 C 44.89 14.74 46.55 16.15 48.28 17.44 C 47.55 17.43 46.07 17.41 45.33 17.40 C 44.98 17.42 44.29 17.46 43.94 17.47 C 42.56 17.48 41.91 18.15 41.99 19.47 L 41.64 18.68 C 41.39 16.61 41.28 14.51 41.21 12.42 C 41.20 12.09 41.20 11.42 41.20 11.09 C 41.19 9.79 41.20 8.50 41.22 7.20 C 38.63 6.59 35.73 6.10 33.74 8.39 C 33.69 6.80 33.64 5.21 33.59 3.62 C 33.00 5.85 32.44 8.08 31.87 10.31 C 31.75 10.75 31.52 11.63 31.41 12.08 C 30.98 13.79 30.61 15.53 30.13 17.23 C 29.60 17.96 29.05 18.68 28.48 19.38 L 27.80 19.78 L 26.84 19.97 C 27.66 18.52 27.29 16.83 27.10 15.29 C 27.26 14.76 27.58 13.70 27.74 13.17 C 28.18 11.70 28.61 10.23 29.07 8.77 C 29.21 8.35 29.49 7.51 29.64 7.09 C 27.74 7.76 25.85 8.46 23.95 9.14 C 21.31 8.37 18.57 8.52 15.89 8.95 C 14.85 8.01 13.81 7.05 12.71 6.17 C 11.04 10.24 10.80 14.63 11.86 18.85 C 11.93 19.29 12.06 20.18 12.13 20.63 C 11.82 20.41 11.19 19.96 10.88 19.74 C 10.28 18.49 9.71 17.23 9.16 15.96 C 6.98 16.47 4.79 16.92 2.58 17.29 C 3.53 17.76 4.47 18.22 5.41 18.68 C 6.04 18.87 7.29 19.25 7.91 19.43 C 8.04 19.88 8.30 20.77 8.43 21.22 C 5.60 20.51 2.80 19.72 0.00 18.90 L 0.00 6.47 M 8.23 11.84 C 5.80 14.47 11.20 14.47 8.77 11.84 C 9.64 10.04 9.29 7.69 8.62 5.86 C 7.46 7.17 7.48 10.14 8.23 11.84 M 49.05 5.86 C 49.04 6.66 49.01 8.26 48.99 9.06 C 49.70 9.01 51.11 8.92 51.82 8.87 C 52.24 7.79 52.66 6.71 53.08 5.63 C 51.74 5.67 50.39 5.76 49.05 5.86 M 64.23 11.84 C 61.80 14.47 67.20 14.47 64.77 11.84 C 65.64 10.04 65.29 7.69 64.62 5.86 C 63.46 7.17 63.48 10.14 64.23 11.84 M 105.13 6.18 C 105.08 6.89 104.99 8.30 104.94 9.01 C 105.74 8.99 107.34 8.96 108.14 8.95 C 108.24 7.61 108.33 6.26 108.37 4.92 C 107.29 5.34 106.21 5.76 105.13 6.18 M 120.23 11.84 C 117.80 14.47 123.20 14.47 120.77 11.84 C 121.64 10.04 121.29 7.69 120.62 5.86 C 119.46 7.17 119.48 10.14 120.23 11.84 M 161.13 6.18 C 161.08 6.89 160.99 8.30 160.94 9.01 C 161.74 8.99 163.34 8.96 164.14 8.95 C 164.24 7.61 164.33 6.26 164.37 4.92 C 163.29 5.34 162.21 5.76 161.13 6.18 M 176.23 11.84 C 173.80 14.47 179.20 14.47 176.77 11.84 C 177.64 10.04 177.29 7.69 176.62 5.86 C 175.46 7.17 175.47 10.14 176.23 11.84 M 217.13 6.18 C 217.08 6.89 216.99 8.30 216.94 9.01 C 217.74 8.99 219.34 8.96 220.14 8.95 C 220.24 7.61 220.33 6.26 220.37 4.92 C 219.29 5.34 218.21 5.76 217.13 6.18 M 3.50 8.09 C 4.12 10.57 4.80 13.05 5.58 15.49 C 5.80 12.99 5.99 10.49 6.18 8.00 C 5.51 8.02 4.17 8.07 3.50 8.09 M 59.50 8.09 C 60.12 10.57 60.80 13.05 61.58 15.49 C 61.80 12.99 61.99 10.49 62.18 8.00 C 61.51 8.02 60.17 8.07 59.50 8.09 M 115.50 8.09 C 116.12 10.57 116.80 13.05 117.58 15.49 C 117.80 12.99 117.99 10.49 118.18 8.00 C 117.51 8.02 116.17 8.07 115.50 8.09 M 171.50 8.09 C 172.12 10.57 172.80 13.05 173.58 15.49 C 173.80 12.99 173.99 10.49 174.18 8.00 C 173.51 8.02 172.17 8.07 171.50 8.09 Z" />
</g>
<g id="#565249ff">
<path fill="#565249" opacity="1.00" d=" M 32.12 3.37 C 32.67 2.12 33.60 1.58 34.92 1.74 C 34.58 3.13 33.65 3.67 32.12 3.37 Z" />
<path fill="#565249" opacity="1.00" d=" M 41.19 1.66 C 42.60 1.38 43.44 1.90 43.71 3.22 C 42.29 3.51 41.45 2.99 41.19 1.66 Z" />
<path fill="#565249" opacity="1.00" d=" M 44.70 3.16 C 47.87 2.79 51.07 3.07 54.11 4.04 C 50.99 3.59 47.84 3.38 44.70 3.16 Z" />
<path fill="#565249" opacity="1.00" d=" M 88.11 3.34 C 88.67 2.11 89.61 1.58 90.92 1.74 C 90.58 3.13 89.64 3.67 88.11 3.34 Z" />
<path fill="#565249" opacity="1.00" d=" M 97.19 1.66 C 98.60 1.37 99.44 1.89 99.71 3.22 C 98.29 3.51 97.45 2.99 97.19 1.66 Z" />
<path fill="#565249" opacity="1.00" d=" M 100.70 3.16 C 103.87 2.78 107.07 3.07 110.11 4.04 C 106.99 3.59 103.83 3.38 100.70 3.16 Z" />
<path fill="#565249" opacity="1.00" d=" M 144.11 3.34 C 144.67 2.11 145.61 1.58 146.92 1.74 C 146.58 3.13 145.64 3.67 144.11 3.34 Z" />
<path fill="#565249" opacity="1.00" d=" M 153.19 1.66 C 154.60 1.37 155.44 1.89 155.71 3.22 C 154.29 3.51 153.45 2.99 153.19 1.66 Z" />
<path fill="#565249" opacity="1.00" d=" M 156.70 3.16 C 159.87 2.78 163.07 3.07 166.11 4.04 C 162.99 3.59 159.83 3.38 156.70 3.16 Z" />
<path fill="#565249" opacity="1.00" d=" M 200.11 3.34 C 200.67 2.11 201.61 1.58 202.92 1.74 C 202.58 3.13 201.64 3.66 200.11 3.34 Z" />
<path fill="#565249" opacity="1.00" d=" M 209.20 1.67 C 210.62 1.41 211.45 1.94 211.70 3.27 C 210.28 3.54 209.45 3.01 209.20 1.67 Z" />
<path fill="#565249" opacity="1.00" d=" M 212.69 3.22 C 215.88 2.93 219.09 2.98 222.25 3.55 C 219.07 3.34 215.86 3.27 212.69 3.22 Z" />
<path fill="#565249" opacity="1.00" d=" M 31.87 10.31 C 32.44 8.08 33.00 5.85 33.59 3.62 C 33.64 5.21 33.69 6.80 33.74 8.39 C 33.27 8.87 32.34 9.83 31.87 10.31 Z" />
<path fill="#565249" opacity="1.00" d=" M 87.94 10.29 C 88.51 8.07 89.04 5.85 89.59 3.63 C 89.64 5.22 89.70 6.82 89.74 8.41 C 89.29 8.88 88.39 9.82 87.94 10.29 Z" />
<path fill="#565249" opacity="1.00" d=" M 143.51 10.11 C 144.11 7.91 144.83 5.75 145.56 3.59 C 145.63 5.21 145.72 6.82 145.79 8.44 C 145.22 8.86 144.08 9.69 143.51 10.11 Z" />
<path fill="#565249" opacity="1.00" d=" M 199.94 10.29 C 200.51 8.07 201.04 5.85 201.59 3.63 C 201.64 5.22 201.70 6.82 201.74 8.41 C 201.29 8.88 200.39 9.82 199.94 10.29 Z" />
<path fill="#565249" opacity="1.00" d=" M 49.05 5.86 C 50.39 5.76 51.74 5.67 53.08 5.63 C 52.66 6.71 52.24 7.79 51.82 8.87 C 51.11 8.92 49.70 9.01 48.99 9.06 C 49.01 8.26 49.04 6.66 49.05 5.86 Z" />
<path fill="#565249" opacity="1.00" d=" M 105.13 6.18 C 106.21 5.76 107.29 5.34 108.37 4.92 C 108.33 6.26 108.24 7.61 108.14 8.95 C 107.34 8.96 105.74 8.99 104.94 9.01 C 104.99 8.30 105.08 6.89 105.13 6.18 Z" />
<path fill="#565249" opacity="1.00" d=" M 161.13 6.18 C 162.21 5.76 163.29 5.34 164.37 4.92 C 164.33 6.26 164.24 7.61 164.14 8.95 C 163.34 8.96 161.74 8.99 160.94 9.01 C 160.99 8.30 161.08 6.89 161.13 6.18 Z" />
<path fill="#565249" opacity="1.00" d=" M 217.13 6.18 C 218.21 5.76 219.29 5.34 220.37 4.92 C 220.33 6.26 220.24 7.61 220.14 8.95 C 219.34 8.96 217.74 8.99 216.94 9.01 C 216.99 8.30 217.08 6.89 217.13 6.18 Z" />
<path fill="#565249" opacity="1.00" d=" M 26.21 20.06 C 25.13 18.46 26.21 16.66 27.10 15.29 C 27.29 16.83 27.66 18.52 26.84 19.97 L 26.21 20.06 Z" />
<path fill="#565249" opacity="1.00" d=" M 103.59 15.64 L 104.51 15.70 C 104.81 16.10 105.42 16.91 105.72 17.31 C 105.16 17.28 104.04 17.21 103.48 17.18 C 103.50 16.79 103.56 16.02 103.59 15.64 Z" />
<path fill="#565249" opacity="1.00" d=" M 215.56 15.62 L 216.48 15.66 C 216.80 16.03 217.45 16.77 217.77 17.14 C 217.20 17.14 216.06 17.15 215.50 17.15 C 215.51 16.77 215.55 16.00 215.56 15.62 Z" />
</g>
<g id="#5a5347ff">
<path fill="#5a5347" opacity="1.00" d=" M 12.60 4.50 C 12.76 3.95 13.07 2.86 13.22 2.31 C 15.56 3.14 17.96 3.82 20.32 4.62 C 21.11 5.01 21.88 5.45 22.65 5.88 C 19.25 5.85 15.93 5.10 12.60 4.50 Z" />
<path fill="#5a5347" opacity="1.00" d=" M 68.69 4.44 C 68.81 3.94 69.03 2.92 69.14 2.41 C 71.59 3.21 74.09 3.85 76.55 4.63 C 77.15 5.12 77.75 5.62 78.36 6.12 C 75.09 5.84 71.89 5.14 68.69 4.44 Z" />
<path fill="#5a5347" opacity="1.00" d=" M 124.69 4.44 C 124.81 3.94 125.03 2.92 125.14 2.41 C 127.59 3.21 130.09 3.85 132.55 4.63 C 133.15 5.12 133.75 5.62 134.36 6.12 C 131.09 5.84 127.89 5.14 124.69 4.44 Z" />
<path fill="#5a5347" opacity="1.00" d=" M 180.69 4.44 C 180.81 3.94 181.03 2.92 181.14 2.41 C 183.59 3.21 186.09 3.85 188.55 4.63 C 189.15 5.12 189.75 5.62 190.36 6.12 C 187.09 5.84 183.89 5.14 180.69 4.44 Z" />
</g>
<g id="#77694cfe">
<path fill="#77694c" opacity="1.00" d=" M 8.23 11.84 C 7.48 10.14 7.46 7.17 8.62 5.86 C 9.29 7.69 9.64 10.04 8.77 11.84 L 8.23 11.84 Z" />
<path fill="#77694c" opacity="1.00" d=" M 64.23 11.84 C 63.48 10.14 63.46 7.17 64.62 5.86 C 65.29 7.69 65.64 10.04 64.77 11.84 L 64.23 11.84 Z" />
<path fill="#77694c" opacity="1.00" d=" M 120.23 11.84 C 119.48 10.14 119.46 7.17 120.62 5.86 C 121.29 7.69 121.64 10.04 120.77 11.84 L 120.23 11.84 Z" />
<path fill="#77694c" opacity="1.00" d=" M 176.23 11.84 C 175.47 10.14 175.46 7.17 176.62 5.86 C 177.29 7.69 177.64 10.04 176.77 11.84 L 176.23 11.84 Z" />
</g>
<g id="#72624dff">
<path fill="#72624d" opacity="1.00" d=" M 33.74 8.39 C 35.73 6.10 38.63 6.59 41.22 7.20 C 41.20 8.50 41.19 9.79 41.20 11.09 C 39.24 10.50 37.59 11.88 36.20 13.05 C 35.76 13.34 34.87 13.93 34.43 14.22 C 33.42 13.51 32.41 12.80 31.41 12.08 C 31.52 11.63 31.75 10.75 31.87 10.31 C 32.34 9.83 33.27 8.87 33.74 8.39 Z" />
<path fill="#72624d" opacity="1.00" d=" M 89.74 8.41 C 91.71 6.11 94.60 6.57 97.18 7.20 C 97.17 8.50 97.15 9.80 97.15 11.11 C 95.20 10.49 93.54 11.88 92.18 13.07 C 91.65 13.45 90.59 14.20 90.06 14.58 C 89.24 13.61 88.39 12.67 87.54 11.73 C 87.64 11.37 87.84 10.65 87.94 10.29 C 88.39 9.82 89.29 8.88 89.74 8.41 Z" />
<path fill="#72624d" opacity="1.00" d=" M 201.74 8.41 C 203.71 6.11 206.60 6.57 209.18 7.20 C 209.17 8.50 209.15 9.80 209.15 11.11 C 207.20 10.49 205.54 11.88 204.18 13.07 C 203.65 13.45 202.59 14.20 202.06 14.58 C 201.24 13.61 200.38 12.67 199.54 11.73 C 199.64 11.37 199.84 10.65 199.94 10.29 C 200.39 9.82 201.29 8.88 201.74 8.41 Z" />
<path fill="#72624d" opacity="1.00" d=" M 135.11 12.08 C 136.73 12.44 138.36 12.80 139.98 13.15 C 139.62 14.77 139.27 16.38 138.92 18.00 C 138.22 18.04 136.83 18.12 136.13 18.16 C 135.83 16.12 135.47 14.10 135.11 12.08 Z" />
</g>
<g id="#6d614fff">
<path fill="#6d614f" opacity="1.00" d=" M 145.79 8.44 C 147.80 6.21 150.67 6.58 153.27 7.18 C 153.16 8.51 153.05 9.84 152.95 11.17 C 151.27 10.78 149.49 11.38 148.51 12.82 C 148.07 13.30 147.20 14.26 146.76 14.74 C 147.60 15.89 148.45 17.05 149.30 18.21 C 148.75 18.49 147.65 19.07 147.10 19.35 C 146.43 18.54 145.74 17.74 145.05 16.94 C 144.31 14.72 143.73 12.44 143.51 10.11 C 144.08 9.69 145.22 8.86 145.79 8.44 Z" />
</g>
<g id="#5d5649ff">
<path fill="#5d5649" opacity="1.00" d=" M 12.71 6.17 C 13.81 7.05 14.85 8.01 15.89 8.95 C 18.57 8.52 21.31 8.37 23.95 9.14 C 25.85 8.46 27.74 7.76 29.64 7.09 C 29.49 7.51 29.21 8.35 29.07 8.77 C 27.24 9.93 25.33 10.97 23.43 12.00 C 23.66 14.75 23.73 17.51 23.61 20.27 C 22.54 20.02 21.47 19.76 20.40 19.50 C 20.24 17.43 20.04 15.36 19.80 13.29 C 17.68 15.16 15.67 17.14 13.80 19.26 C 13.32 19.16 12.34 18.95 11.86 18.85 C 10.80 14.63 11.04 10.24 12.71 6.17 M 18.16 11.40 C 17.06 11.06 15.53 11.28 14.88 12.33 C 14.98 14.43 20.05 13.05 18.16 11.40 Z" />
<path fill="#5d5649" opacity="1.00" d=" M 68.76 6.23 C 69.85 7.09 70.88 8.02 71.92 8.94 C 74.59 8.51 77.33 8.37 79.97 9.15 C 81.80 8.47 83.63 7.76 85.47 7.08 C 85.35 7.50 85.12 8.35 85.00 8.77 C 83.13 9.97 81.16 11.01 79.21 12.06 C 79.58 14.42 79.93 16.79 80.18 19.17 L 79.31 19.12 C 78.31 19.02 77.30 18.93 76.30 18.85 C 76.17 17.07 76.04 15.28 75.88 13.50 C 73.90 15.05 71.96 16.64 70.11 18.34 C 69.80 18.31 69.18 18.25 68.88 18.22 C 65.75 14.74 67.01 10.10 68.76 6.23 M 74.16 11.40 C 73.06 11.06 71.53 11.28 70.88 12.33 C 70.98 14.43 76.05 13.05 74.16 11.40 Z" />
<path fill="#5d5649" opacity="1.00" d=" M 180.76 6.23 C 181.85 7.09 182.87 8.02 183.91 8.94 C 186.59 8.51 189.33 8.37 191.97 9.15 C 193.80 8.47 195.63 7.76 197.47 7.08 C 197.35 7.50 197.12 8.35 197.00 8.77 C 195.13 9.97 193.16 11.01 191.21 12.06 C 191.58 14.42 191.93 16.79 192.18 19.17 L 191.31 19.12 C 190.30 19.02 189.30 18.93 188.30 18.85 C 188.17 17.07 188.04 15.28 187.88 13.50 C 185.90 15.05 183.96 16.64 182.11 18.34 C 181.80 18.31 181.19 18.25 180.88 18.22 C 177.75 14.75 179.00 10.10 180.76 6.23 M 186.16 11.40 C 185.06 11.06 183.53 11.28 182.88 12.33 C 182.98 14.43 188.05 13.05 186.16 11.40 Z" />
</g>
<g id="#63594aff">
<path fill="#63594a" opacity="1.00" d=" M 44.11 5.42 C 45.75 6.84 47.37 8.29 48.95 9.77 C 51.12 10.49 53.27 11.26 55.37 12.15 C 54.57 12.49 52.98 13.17 52.18 13.50 C 50.34 12.72 46.10 13.32 48.44 15.96 C 48.78 16.47 49.45 17.49 49.79 18.00 C 49.42 17.86 48.66 17.58 48.28 17.44 C 46.55 16.15 44.89 14.74 43.20 13.39 C 44.24 12.80 45.28 12.21 46.31 11.62 C 45.51 9.58 44.78 7.51 44.11 5.42 Z" />
</g>
<g id="#665b4bff">
<path fill="#665b4b" opacity="1.00" d=" M 100.10 5.42 C 101.75 6.84 103.37 8.28 104.95 9.77 C 107.12 10.50 109.27 11.26 111.37 12.16 C 110.61 12.48 109.10 13.10 108.35 13.41 C 106.49 13.27 103.82 12.94 103.10 15.20 C 101.79 14.54 100.45 13.94 99.12 13.33 C 100.19 12.77 101.26 12.22 102.34 11.67 C 101.53 9.61 100.79 7.53 100.10 5.42 Z" />
<path fill="#665b4b" opacity="1.00" d=" M 156.12 5.42 C 157.75 6.84 159.37 8.29 160.95 9.77 C 163.11 10.49 165.26 11.26 167.36 12.15 C 166.61 12.48 165.12 13.16 164.38 13.49 C 162.31 13.25 159.82 13.37 158.69 15.43 L 157.66 15.07 C 156.69 14.70 155.73 14.32 154.77 13.93 C 155.93 13.13 157.10 12.33 158.27 11.55 C 157.48 9.53 156.76 7.49 156.12 5.42 Z" />
<path fill="#665b4b" opacity="1.00" d=" M 212.10 5.42 C 213.75 6.84 215.37 8.28 216.95 9.77 C 219.11 10.50 221.27 11.26 223.37 12.16 C 222.62 12.48 221.11 13.10 220.36 13.42 C 218.49 13.24 215.80 12.91 215.08 15.19 C 213.77 14.53 212.44 13.94 211.12 13.33 C 212.19 12.77 213.26 12.22 214.34 11.67 C 213.53 9.61 212.79 7.53 212.10 5.42 Z" />
</g>
<g id="#5e5749ff">
<path fill="#5e5749" opacity="1.00" d=" M 124.45 5.86 C 125.53 6.92 126.60 7.99 127.66 9.07 C 130.41 8.51 133.25 8.28 135.96 9.16 C 137.82 8.47 139.66 7.76 141.51 7.07 C 141.39 7.50 141.15 8.35 141.03 8.77 C 139.12 9.99 137.11 11.03 135.11 12.08 C 135.47 14.10 135.83 16.12 136.13 18.16 L 135.31 18.10 C 134.24 18.00 133.18 17.89 132.12 17.76 C 132.02 16.75 131.82 14.73 131.72 13.73 C 129.91 14.99 128.10 16.25 126.29 17.52 C 125.89 17.51 125.10 17.50 124.71 17.49 C 121.46 14.24 123.64 9.62 124.45 5.86 M 130.16 11.40 C 129.06 11.06 127.53 11.28 126.88 12.33 C 126.98 14.43 132.05 13.05 130.16 11.40 Z" />
</g>
<g id="#60574aff">
<path fill="#60574a" opacity="1.00" d=" M 3.50 8.09 C 4.17 8.07 5.51 8.02 6.18 8.00 C 5.99 10.49 5.80 12.99 5.58 15.49 C 4.80 13.05 4.12 10.57 3.50 8.09 Z" />
<path fill="#60574a" opacity="1.00" d=" M 59.50 8.09 C 60.17 8.07 61.51 8.02 62.18 8.00 C 61.99 10.49 61.80 12.99 61.58 15.49 C 60.80 13.05 60.12 10.57 59.50 8.09 Z" />
<path fill="#60574a" opacity="1.00" d=" M 115.50 8.09 C 116.17 8.07 117.51 8.02 118.18 8.00 C 117.99 10.49 117.80 12.99 117.58 15.49 C 116.80 13.05 116.12 10.57 115.50 8.09 Z" />
<path fill="#60574a" opacity="1.00" d=" M 171.50 8.09 C 172.17 8.07 173.51 8.02 174.18 8.00 C 173.99 10.49 173.80 12.99 173.58 15.49 C 172.80 13.05 172.12 10.57 171.50 8.09 Z" />
<path fill="#60574a" opacity="1.00" d=" M 8.23 11.84 L 8.77 11.84 C 11.20 14.47 5.80 14.47 8.23 11.84 Z" />
<path fill="#60574a" opacity="1.00" d=" M 64.23 11.84 L 64.77 11.84 C 67.20 14.47 61.80 14.47 64.23 11.84 Z" />
<path fill="#60574a" opacity="1.00" d=" M 120.23 11.84 L 120.77 11.84 C 123.20 14.47 117.80 14.47 120.23 11.84 Z" />
<path fill="#60574a" opacity="1.00" d=" M 176.23 11.84 L 176.77 11.84 C 179.20 14.47 173.80 14.47 176.23 11.84 Z" />
</g>
<g id="#92824dff">
<path fill="#92824d" opacity="1.00" d=" M 23.43 12.00 C 25.33 10.97 27.24 9.93 29.07 8.77 C 28.61 10.23 28.18 11.70 27.74 13.17 C 26.30 12.78 24.87 12.39 23.43 12.00 Z" />
<path fill="#92824d" opacity="1.00" d=" M 79.21 12.06 C 81.16 11.01 83.13 9.97 85.00 8.77 C 84.64 10.23 84.31 11.70 84.01 13.17 C 82.41 12.80 80.81 12.43 79.21 12.06 Z" />
<path fill="#92824d" opacity="1.00" d=" M 135.11 12.08 C 137.11 11.03 139.12 9.99 141.03 8.77 C 140.66 10.23 140.31 11.69 139.98 13.15 C 138.36 12.80 136.73 12.44 135.11 12.08 Z" />
<path fill="#92824d" opacity="1.00" d=" M 191.21 12.06 C 193.16 11.01 195.13 9.97 197.00 8.77 C 196.64 10.23 196.31 11.70 196.01 13.17 C 194.40 12.80 192.81 12.43 191.21 12.06 Z" />
</g>
<g id="#332e2aff">
<path fill="#332e2a" opacity="1.00" d=" M 18.16 11.40 C 20.05 13.05 14.98 14.43 14.88 12.33 C 15.53 11.28 17.06 11.06 18.16 11.40 Z" />
<path fill="#332e2a" opacity="1.00" d=" M 74.16 11.40 C 76.05 13.05 70.98 14.43 70.88 12.33 C 71.53 11.28 73.06 11.06 74.16 11.40 Z" />
<path fill="#332e2a" opacity="1.00" d=" M 130.16 11.40 C 132.05 13.05 126.98 14.43 126.88 12.33 C 127.53 11.28 129.06 11.06 130.16 11.40 Z" />
<path fill="#332e2a" opacity="1.00" d=" M 186.16 11.40 C 188.05 13.05 182.98 14.43 182.88 12.33 C 183.53 11.28 185.06 11.06 186.16 11.40 Z" />
<path fill="#332e2a" opacity="1.00" d=" M 34.43 14.22 C 34.87 13.93 35.76 13.34 36.20 13.05 L 36.81 13.06 C 36.84 14.91 36.89 16.75 36.94 18.60 C 37.05 19.00 37.28 19.79 37.39 20.18 C 36.38 18.20 35.40 16.22 34.43 14.22 Z" />
<path fill="#332e2a" opacity="1.00" d=" M 90.06 14.58 C 90.59 14.20 91.65 13.45 92.18 13.07 L 92.77 13.08 C 92.92 15.10 93.08 17.12 93.29 19.13 C 92.26 17.58 91.22 16.03 90.06 14.58 Z" />
<path fill="#332e2a" opacity="1.00" d=" M 146.76 14.74 C 147.20 14.26 148.07 13.30 148.51 12.82 L 148.59 13.28 C 148.85 14.91 149.06 16.56 149.30 18.21 C 148.45 17.05 147.60 15.89 146.76 14.74 Z" />
<path fill="#332e2a" opacity="1.00" d=" M 202.06 14.58 C 202.59 14.20 203.65 13.45 204.18 13.07 L 204.77 13.08 C 204.91 15.10 205.08 17.12 205.29 19.13 C 204.26 17.58 203.22 16.03 202.06 14.58 Z" />
<path fill="#332e2a" opacity="1.00" d=" M 70.11 18.34 C 71.96 16.64 73.90 15.05 75.88 13.50 C 76.04 15.28 76.17 17.07 76.30 18.85 C 75.15 18.78 74.00 18.70 72.85 18.61 C 72.17 18.54 70.80 18.40 70.11 18.34 Z" />
<path fill="#332e2a" opacity="1.00" d=" M 182.11 18.34 C 183.96 16.64 185.90 15.05 187.88 13.50 C 188.04 15.28 188.17 17.07 188.30 18.85 C 187.15 18.78 186.00 18.70 184.85 18.61 C 184.17 18.54 182.80 18.41 182.11 18.34 Z" />
<path fill="#332e2a" opacity="1.00" d=" M 30.62 16.58 C 32.05 14.03 34.32 16.88 32.86 18.71 C 32.05 18.06 31.31 17.35 30.62 16.58 Z" />
<path fill="#332e2a" opacity="1.00" d=" M 86.57 15.81 C 87.69 13.87 89.52 16.17 89.61 17.57 C 88.36 17.34 87.35 16.76 86.57 15.81 Z" />
<path fill="#332e2a" opacity="1.00" d=" M 198.57 15.81 C 199.69 13.87 201.51 16.17 201.61 17.57 C 200.36 17.34 199.35 16.76 198.57 15.81 Z" />
<path fill="#332e2a" opacity="1.00" d=" M 38.79 17.91 C 38.88 15.77 41.89 16.35 40.46 18.27 L 39.46 18.52 L 38.79 17.91 Z" />
<path fill="#332e2a" opacity="1.00" d=" M 45.93 54.07 C 48.61 51.99 51.85 50.79 55.17 50.16 L 55.49 51.37 C 52.84 52.88 50.22 54.45 47.59 56.00 L 43.97 56.00 C 44.46 55.52 45.44 54.55 45.93 54.07 Z" />
<path fill="#332e2a" opacity="1.00" d=" M 103.20 52.06 C 105.99 51.60 108.74 51.03 111.52 50.50 L 111.66 51.45 C 108.93 52.90 106.26 54.44 103.60 56.00 L 100.88 56.00 L 100.81 55.54 C 101.77 54.49 102.57 53.33 103.20 52.06 Z" />
<path fill="#332e2a" opacity="1.00" d=" M 158.09 53.90 C 160.68 51.79 163.95 50.83 167.18 50.19 L 167.49 51.37 C 164.84 52.88 162.23 54.44 159.60 56.00 L 156.34 56.00 C 156.78 55.48 157.65 54.43 158.09 53.90 Z" />
<path fill="#332e2a" opacity="1.00" d=" M 214.98 52.19 C 218.03 51.86 220.99 51.15 224.00 50.53 L 224.00 51.07 C 221.22 52.71 218.47 54.37 215.69 56.00 L 212.88 56.00 L 212.86 55.52 C 213.90 54.60 214.61 53.49 214.98 52.19 Z" />
</g>
<g id="#907e4efe">
<path fill="#907e4e" opacity="1.00" d=" M 36.20 13.05 C 37.59 11.88 39.24 10.50 41.20 11.09 C 41.20 11.42 41.20 12.09 41.21 12.42 C 39.83 13.10 38.36 13.31 36.81 13.06 L 36.20 13.05 Z" />
<path fill="#907e4e" opacity="1.00" d=" M 92.18 13.07 C 93.54 11.88 95.20 10.49 97.15 11.11 C 97.16 11.43 97.16 12.09 97.17 12.42 C 95.79 13.09 94.33 13.32 92.77 13.08 L 92.18 13.07 Z" />
<path fill="#907e4e" opacity="1.00" d=" M 148.51 12.82 C 149.49 11.38 151.27 10.78 152.95 11.17 C 152.93 11.49 152.89 12.12 152.87 12.43 C 151.54 13.17 150.11 13.45 148.59 13.28 L 148.51 12.82 Z" />
<path fill="#907e4e" opacity="1.00" d=" M 204.18 13.07 C 205.54 11.88 207.20 10.49 209.15 11.11 C 209.16 11.43 209.16 12.09 209.17 12.42 C 207.79 13.09 206.33 13.32 204.77 13.08 L 204.18 13.07 Z" />
<path fill="#907e4e" opacity="1.00" d=" M 48.44 15.96 C 46.10 13.32 50.34 12.72 52.18 13.50 C 51.02 14.44 49.89 15.51 48.44 15.96 Z" />
<path fill="#907e4e" opacity="1.00" d=" M 103.10 15.20 C 103.82 12.94 106.49 13.27 108.35 13.41 C 107.15 14.31 105.96 15.27 104.51 15.70 L 103.59 15.64 L 103.10 15.20 Z" />
<path fill="#907e4e" opacity="1.00" d=" M 158.69 15.43 C 159.82 13.37 162.31 13.25 164.38 13.49 C 162.89 14.99 160.84 16.09 158.69 15.43 Z" />
<path fill="#907e4e" opacity="1.00" d=" M 215.08 15.19 C 215.80 12.91 218.49 13.24 220.36 13.42 C 219.15 14.30 217.94 15.24 216.48 15.66 L 215.56 15.62 L 215.08 15.19 Z" />
</g>
<g id="#76644eff">
<path fill="#76644e" opacity="1.00" d=" M 23.43 12.00 C 24.87 12.39 26.30 12.78 27.74 13.17 C 27.58 13.70 27.26 14.76 27.10 15.29 C 26.21 16.66 25.13 18.46 26.21 20.06 C 25.56 20.11 24.26 20.22 23.61 20.27 C 23.73 17.51 23.66 14.75 23.43 12.00 Z" />
</g>
<g id="#5a5851ff">
<path fill="#5a5851" opacity="1.00" d=" M 30.13 17.23 C 30.61 15.53 30.98 13.79 31.41 12.08 C 32.41 12.80 33.42 13.51 34.43 14.22 C 35.40 16.22 36.38 18.20 37.39 20.18 C 36.88 20.40 35.86 20.85 35.35 21.07 C 34.53 20.26 33.70 19.48 32.86 18.71 C 34.32 16.88 32.05 14.03 30.62 16.58 L 30.13 17.23 Z" />
</g>
<g id="#71614dff">
<path fill="#71614d" opacity="1.00" d=" M 79.21 12.06 C 80.81 12.43 82.41 12.80 84.01 13.17 C 83.61 15.12 83.24 17.06 82.88 19.01 C 82.20 19.05 80.86 19.13 80.18 19.17 C 79.93 16.79 79.58 14.42 79.21 12.06 Z" />
<path fill="#71614d" opacity="1.00" d=" M 191.21 12.06 C 192.81 12.43 194.40 12.80 196.01 13.17 C 195.61 15.12 195.24 17.06 194.88 19.01 C 194.20 19.05 192.86 19.13 192.18 19.17 C 191.93 16.79 191.58 14.42 191.21 12.06 Z" />
</g>
<g id="#5b5a53ff">
<path fill="#5b5a53" opacity="1.00" d=" M 86.19 16.32 C 86.69 14.81 87.11 13.26 87.54 11.73 C 88.39 12.67 89.24 13.61 90.06 14.58 C 91.22 16.03 92.26 17.58 93.29 19.13 C 92.69 19.46 91.49 20.12 90.89 20.44 C 90.47 19.48 90.05 18.52 89.61 17.57 C 89.52 16.17 87.69 13.87 86.57 15.81 L 86.19 16.32 Z" />
<path fill="#5b5a53" opacity="1.00" d=" M 198.19 16.32 C 198.69 14.81 199.11 13.26 199.54 11.73 C 200.38 12.67 201.24 13.61 202.06 14.58 C 203.22 16.03 204.26 17.58 205.29 19.13 C 204.69 19.46 203.49 20.12 202.89 20.44 C 202.47 19.48 202.05 18.52 201.61 17.57 C 201.51 16.17 199.69 13.87 198.57 15.81 L 198.19 16.32 Z" />
</g>
<g id="#565148ff">
<path fill="#565148" opacity="1.00" d=" M 36.81 13.06 C 38.36 13.31 39.83 13.10 41.21 12.42 C 41.28 14.51 41.39 16.61 41.64 18.68 L 40.46 18.27 C 41.89 16.35 38.88 15.77 38.79 17.91 C 38.33 18.08 37.40 18.43 36.94 18.60 C 36.89 16.75 36.84 14.91 36.81 13.06 Z" />
</g>
<g id="#505251ff">
<path fill="#505251" opacity="1.00" d=" M 92.77 13.08 C 94.33 13.32 95.79 13.09 97.17 12.42 C 97.36 14.23 97.64 16.03 97.99 17.81 C 97.25 17.92 95.77 18.12 95.03 18.23 C 94.60 18.45 93.72 18.91 93.29 19.13 C 93.08 17.12 92.92 15.10 92.77 13.08 Z" />
<path fill="#505251" opacity="1.00" d=" M 204.77 13.08 C 206.33 13.32 207.79 13.09 209.17 12.42 C 209.36 14.23 209.64 16.03 209.99 17.82 C 209.25 17.92 207.77 18.12 207.03 18.23 C 206.59 18.45 205.72 18.91 205.29 19.13 C 205.08 17.12 204.91 15.10 204.77 13.08 Z" />
</g>
<g id="#515455ff">
<path fill="#515455" opacity="1.00" d=" M 148.59 13.28 C 150.11 13.45 151.54 13.17 152.87 12.43 C 153.20 13.90 153.61 15.36 154.05 16.80 C 153.31 16.92 151.83 17.18 151.10 17.30 C 150.65 17.53 149.75 17.98 149.30 18.21 C 149.06 16.56 148.85 14.91 148.59 13.28 Z" />
</g>
<g id="#322e2aff">
<path fill="#322e2a" opacity="1.00" d=" M 13.80 19.26 C 15.67 17.14 17.68 15.16 19.80 13.29 C 20.04 15.36 20.24 17.43 20.40 19.50 C 19.21 19.58 18.03 19.64 16.85 19.67 C 16.09 19.57 14.56 19.36 13.80 19.26 Z" />
</g>
<g id="#332e2afe">
<path fill="#332e2a" opacity="1.00" d=" M 126.29 17.52 C 128.10 16.25 129.91 14.99 131.72 13.73 C 131.82 14.73 132.02 16.75 132.12 17.76 C 131.02 17.71 129.93 17.67 128.84 17.63 C 128.20 17.60 126.93 17.55 126.29 17.52 Z" />
</g>
<g id="#4379cafe">
<path fill="#4379ca" opacity="1.00" d=" M 142.75 15.15 C 143.52 15.74 144.29 16.33 145.05 16.94 C 145.74 17.74 146.43 18.54 147.10 19.35 C 146.81 19.52 146.21 19.86 145.91 20.03 C 148.53 19.87 151.21 19.85 153.83 19.52 C 153.75 20.19 153.57 21.54 153.48 22.21 C 152.16 23.22 150.83 24.21 149.49 25.20 C 146.42 24.40 143.31 23.73 140.18 23.22 C 140.82 24.72 141.47 26.22 142.11 27.72 C 138.20 26.97 134.29 26.26 130.37 25.61 C 130.63 27.56 129.83 30.04 131.37 31.58 C 136.91 35.26 145.15 34.73 148.91 28.83 C 149.57 29.94 150.23 31.05 150.90 32.16 C 153.40 32.31 155.88 32.65 158.35 33.04 C 160.61 30.87 162.94 28.78 165.36 26.79 C 164.16 29.05 162.75 31.25 162.04 33.73 C 163.43 35.46 165.18 36.87 166.85 38.33 C 160.72 36.69 154.59 34.74 148.23 34.29 C 141.37 35.02 141.74 43.74 136.58 46.97 C 136.99 43.84 139.65 40.25 137.99 37.28 C 134.14 35.68 130.08 34.65 126.07 33.53 C 126.68 33.22 127.92 32.58 128.54 32.26 C 128.67 30.60 128.94 27.27 129.07 25.61 C 121.25 26.34 111.70 25.33 106.30 32.40 C 104.91 35.67 109.07 37.29 110.85 39.33 C 105.87 38.15 100.90 36.91 96.17 34.93 C 96.46 34.00 96.76 33.07 97.07 32.14 C 99.05 33.04 101.01 33.99 102.98 34.92 C 103.73 32.95 104.55 31.02 105.42 29.11 C 102.54 28.14 99.66 27.19 96.77 26.26 L 102.60 25.00 C 101.37 24.51 100.16 24.01 98.93 23.55 C 99.33 22.38 99.15 21.31 98.39 20.33 C 99.42 20.02 100.45 19.71 101.49 19.40 L 102.36 19.28 C 101.47 19.71 100.58 20.15 99.69 20.60 C 106.44 20.57 113.03 22.00 119.72 22.62 C 116.87 20.80 113.99 19.04 111.03 17.41 L 111.53 16.75 C 114.21 17.68 116.93 18.53 119.62 19.45 L 119.86 20.16 C 120.10 20.99 120.33 21.82 120.55 22.66 C 120.37 25.10 123.79 24.67 122.96 22.36 C 130.27 22.53 137.65 22.50 144.73 20.40 C 144.65 19.67 144.59 18.95 144.52 18.22 C 143.16 17.92 141.80 17.61 140.44 17.31 C 141.22 16.60 141.99 15.88 142.75 15.15 Z" />
<path fill="#4379ca" opacity="1.00" d=" M 86.19 16.32 L 86.57 15.81 C 87.35 16.76 88.36 17.34 89.61 17.57 C 90.05 18.52 90.47 19.48 90.89 20.44 C 90.63 20.59 90.11 20.89 89.86 21.04 C 92.49 20.85 95.17 20.83 97.80 20.48 C 97.78 21.16 97.73 22.53 97.71 23.21 C 91.68 25.50 85.54 27.83 78.96 27.64 C 76.30 27.55 75.08 30.33 73.54 31.99 C 78.29 33.22 83.81 36.12 88.64 33.70 C 90.05 32.12 90.64 30.02 91.44 28.11 C 91.56 28.13 91.81 28.18 91.93 28.21 C 92.59 30.20 93.32 32.17 94.12 34.11 C 86.83 36.34 83.24 43.23 79.11 48.98 C 83.80 51.40 88.42 53.95 93.29 56.00 L 83.41 56.00 C 84.91 55.32 86.38 54.57 87.85 53.83 C 85.27 52.96 82.66 52.19 80.02 51.54 C 77.14 51.96 74.58 53.47 71.95 54.62 C 73.91 52.87 75.91 51.16 77.88 49.43 C 77.23 49.25 75.93 48.88 75.27 48.70 C 78.96 45.64 81.49 41.48 82.87 36.92 C 76.12 34.50 69.29 36.47 63.20 39.52 C 65.24 42.14 67.50 44.56 69.68 47.05 C 65.52 45.31 62.57 41.89 60.16 38.20 C 66.02 36.23 75.37 36.29 74.29 27.43 C 69.96 26.82 65.62 26.32 61.28 25.83 C 60.71 27.18 60.15 28.54 59.58 29.89 C 59.25 29.01 58.91 28.13 58.57 27.24 C 55.76 29.98 50.15 31.21 49.99 35.66 C 51.39 37.43 53.16 38.85 54.85 40.33 C 49.87 39.15 44.90 37.91 40.17 35.93 C 40.46 35.00 40.76 34.08 41.06 33.15 C 43.26 34.18 45.48 35.14 47.68 36.15 C 48.11 33.36 48.03 30.52 47.21 27.80 C 47.83 27.58 48.46 27.36 49.08 27.13 C 44.02 27.30 38.97 27.82 33.90 27.89 C 35.19 30.44 36.45 33.02 37.98 35.45 C 29.91 35.92 29.27 45.44 24.10 49.80 C 27.25 51.51 30.12 53.67 32.83 56.00 L 31.63 56.00 C 29.89 54.85 28.27 53.50 26.36 52.64 C 22.65 51.99 19.75 54.41 16.74 56.00 L 15.64 56.00 C 17.76 54.26 19.77 52.38 21.83 50.57 C 21.42 49.04 21.01 47.51 20.59 45.99 C 23.05 44.65 25.69 43.38 27.37 41.04 C 23.53 35.09 12.93 34.31 9.09 40.69 C 10.92 43.47 13.47 45.64 15.74 48.03 C 12.77 46.59 10.10 44.59 8.23 41.83 C 6.56 38.92 2.84 39.17 0.00 38.48 L 0.00 37.93 C 6.56 37.04 13.22 36.13 19.29 33.32 C 18.72 31.62 18.12 29.94 17.53 28.26 C 18.80 27.85 20.06 27.45 21.33 27.04 C 14.09 27.36 6.74 28.01 0.00 30.88 L 0.00 23.50 C 2.51 24.28 5.14 24.52 7.75 24.72 C 5.23 23.09 2.59 21.65 0.00 20.13 L 0.00 18.90 C 2.80 19.72 5.60 20.51 8.43 21.22 L 8.44 21.75 C 8.45 22.72 8.47 23.69 8.49 24.67 C 7.96 27.14 11.64 26.64 10.90 24.39 C 18.23 24.50 25.62 24.52 32.72 22.40 C 32.65 21.67 32.59 20.94 32.53 20.20 C 31.18 19.92 29.83 19.64 28.48 19.38 C 29.05 18.68 29.60 17.96 30.13 17.23 L 30.62 16.58 C 31.31 17.35 32.05 18.06 32.86 18.71 C 33.70 19.48 34.53 20.26 35.35 21.07 C 34.95 21.27 34.14 21.67 33.74 21.88 C 36.41 21.75 39.11 21.79 41.77 21.47 C 41.19 22.62 41.35 23.55 42.26 24.27 C 43.94 24.29 43.25 21.97 42.38 21.33 C 43.41 20.99 44.44 20.66 45.47 20.33 L 46.32 20.19 C 45.44 20.66 44.57 21.13 43.70 21.61 C 50.48 21.54 57.09 23.09 63.82 23.55 C 60.79 21.59 57.61 19.83 54.17 18.72 C 54.45 18.45 55.01 17.91 55.29 17.64 C 58.25 18.50 61.20 19.40 64.17 20.22 L 64.25 21.04 C 64.33 21.92 64.41 22.80 64.49 23.67 C 64.07 26.15 67.67 25.64 66.90 23.39 C 74.23 23.49 81.63 23.53 88.71 21.39 C 88.65 20.65 88.59 19.91 88.53 19.18 C 87.20 18.94 85.87 18.71 84.54 18.48 C 85.11 17.78 85.66 17.06 86.19 16.32 M 19.21 32.75 C 21.76 33.90 24.20 35.48 27.01 35.89 C 29.63 35.74 31.91 34.22 34.24 33.14 C 33.61 31.03 32.98 28.92 32.42 26.79 C 27.38 27.07 20.96 26.91 19.21 32.75 Z" />
</g>
<g id="#3a7dcfff">
<path fill="#3a7dcf" opacity="1.00" d=" M 154.30 17.56 C 154.17 16.25 154.80 15.52 156.20 15.38 C 156.16 15.79 156.10 16.62 156.07 17.04 C 155.63 17.17 154.74 17.43 154.30 17.56 Z" />
<path fill="#3a7dcf" opacity="1.00" d=" M 98.16 18.57 C 97.93 17.19 98.52 16.48 99.93 16.45 C 99.91 16.86 99.86 17.67 99.84 18.08 C 99.42 18.21 98.58 18.45 98.16 18.57 Z" />
<path fill="#3a7dcf" opacity="1.00" d=" M 210.15 18.57 C 209.92 17.19 210.52 16.49 211.93 16.45 C 211.91 16.86 211.86 17.68 211.84 18.09 C 211.42 18.21 210.57 18.45 210.15 18.57 Z" />
<path fill="#3a7dcf" opacity="1.00" d=" M 41.99 19.47 C 41.91 18.15 42.56 17.48 43.94 17.47 C 43.91 17.88 43.84 18.69 43.81 19.09 C 43.35 19.19 42.44 19.38 41.99 19.47 Z" />
</g>
<g id="#8d9fbaff">
<path fill="#8d9fba" opacity="1.00" d=" M 156.20 15.38 C 156.56 15.30 157.29 15.15 157.66 15.07 C 158.22 15.89 158.61 16.79 158.83 17.75 L 158.30 18.09 L 157.56 18.26 C 157.19 17.95 156.44 17.34 156.07 17.04 C 156.10 16.62 156.16 15.79 156.20 15.38 Z" />
<path fill="#8d9fba" opacity="1.00" d=" M 99.93 16.45 C 100.28 16.48 100.99 16.54 101.34 16.58 C 102.07 17.26 102.60 18.07 102.94 19.00 L 102.36 19.28 L 101.49 19.40 C 101.08 19.07 100.25 18.41 99.84 18.08 C 99.86 17.67 99.91 16.86 99.93 16.45 Z" />
<path fill="#8d9fba" opacity="1.00" d=" M 211.93 16.45 C 212.28 16.49 212.99 16.55 213.34 16.58 C 214.06 17.25 214.59 18.05 214.94 18.97 L 214.36 19.27 L 213.49 19.41 C 213.08 19.08 212.25 18.42 211.84 18.09 C 211.86 17.68 211.91 16.86 211.93 16.45 Z" />
<path fill="#8d9fba" opacity="1.00" d=" M 43.94 17.47 C 44.29 17.46 44.98 17.42 45.33 17.40 C 46.04 18.12 46.55 18.95 46.88 19.90 L 46.32 20.19 L 45.47 20.33 C 45.06 20.02 44.23 19.40 43.81 19.09 C 43.84 18.69 43.91 17.88 43.94 17.47 Z" />
</g>
<g id="#3e84ceff">
<path fill="#3e84ce" opacity="1.00" d=" M 157.66 15.07 L 158.69 15.43 C 160.52 16.03 162.39 16.48 164.28 16.84 C 162.45 17.05 160.63 17.35 158.83 17.75 C 158.61 16.79 158.22 15.89 157.66 15.07 Z" />
<path fill="#3e84ce" opacity="1.00" d=" M 101.34 16.58 C 101.88 16.73 102.94 17.03 103.48 17.18 C 104.04 17.21 105.16 17.28 105.72 17.31 C 106.57 17.41 107.42 17.51 108.27 17.60 C 106.47 17.96 104.69 18.43 102.94 19.00 C 102.60 18.07 102.07 17.26 101.34 16.58 Z" />
<path fill="#3e84ce" opacity="1.00" d=" M 213.34 16.58 C 213.88 16.72 214.96 17.01 215.50 17.15 C 216.06 17.15 217.20 17.14 217.77 17.14 C 218.66 17.35 219.55 17.56 220.44 17.76 C 218.58 18.07 216.74 18.47 214.94 18.97 C 214.59 18.05 214.06 17.25 213.34 16.58 Z" />
<path fill="#3e84ce" opacity="1.00" d=" M 45.33 17.40 C 46.07 17.41 47.55 17.43 48.28 17.44 C 48.66 17.58 49.42 17.86 49.79 18.00 C 50.26 18.17 51.18 18.52 51.65 18.69 L 52.23 18.94 C 50.43 19.17 48.64 19.48 46.88 19.90 C 46.55 18.95 46.04 18.12 45.33 17.40 Z" />
</g>
<g id="#5d564aff">
<path fill="#5d564a" opacity="1.00" d=" M 2.58 17.29 C 4.79 16.92 6.98 16.47 9.16 15.96 C 9.71 17.23 10.28 18.49 10.88 19.74 C 10.27 20.11 9.05 20.85 8.43 21.22 C 8.30 20.77 8.04 19.88 7.91 19.43 C 8.36 17.41 5.20 15.99 5.41 18.68 C 4.47 18.22 3.53 17.76 2.58 17.29 Z" />
</g>
<g id="#625f57ff">
<path fill="#625f57" opacity="1.00" d=" M 59.97 16.82 C 61.92 16.52 63.88 16.23 65.83 15.95 C 65.91 17.25 65.99 18.55 66.08 19.86 C 65.62 20.15 64.70 20.75 64.25 21.04 L 64.17 20.22 L 64.08 19.33 C 64.53 17.82 62.32 16.50 61.71 18.28 C 61.28 17.92 60.41 17.18 59.97 16.82 Z" />
<path fill="#625f57" opacity="1.00" d=" M 171.96 16.82 C 173.92 16.52 175.87 16.23 177.83 15.94 C 177.91 17.25 177.99 18.55 178.07 19.85 C 177.62 20.14 176.71 20.72 176.26 21.01 L 176.17 20.14 L 176.09 19.30 C 176.54 17.78 174.31 16.50 173.72 18.28 C 173.28 17.91 172.40 17.19 171.96 16.82 Z" />
</g>
<g id="#73a5cbff">
<path fill="#73a5cb" opacity="1.00" d=" M 109.09 17.66 C 108.42 16.00 110.70 15.76 111.53 16.75 L 111.03 17.41 C 110.54 17.47 109.57 17.60 109.09 17.66 Z" />
</g>
<g id="#6b675bff">
<path fill="#6b675b" opacity="1.00" d=" M 118.17 15.77 C 119.34 15.96 120.51 16.15 121.69 16.34 C 121.81 16.95 122.05 18.18 122.17 18.79 C 121.60 19.13 120.44 19.82 119.86 20.16 L 119.62 19.45 C 119.17 18.21 118.66 16.99 118.17 15.77 Z" />
</g>
<g id="#508bc7ff">
<path fill="#508bc7" opacity="1.00" d=" M 165.11 16.97 C 165.61 15.42 167.82 15.53 168.04 17.19 C 167.31 17.14 165.84 17.02 165.11 16.97 Z" />
<path fill="#508bc7" opacity="1.00" d=" M 221.41 17.96 C 221.84 16.66 222.71 16.31 224.00 16.93 L 224.00 17.64 C 223.35 17.72 222.05 17.88 221.41 17.96 Z" />
</g>
<g id="#4378caff">
<path fill="#4378ca" opacity="1.00" d=" M 198.19 16.32 L 198.57 15.81 C 199.35 16.76 200.36 17.34 201.61 17.57 C 202.05 18.52 202.47 19.48 202.89 20.44 C 202.63 20.59 202.11 20.90 201.86 21.05 C 204.46 20.85 207.17 20.83 209.78 20.45 C 209.19 21.60 209.35 22.53 210.26 23.26 C 211.94 23.28 211.23 20.96 210.38 20.31 C 211.42 20.01 212.45 19.71 213.49 19.41 L 214.36 19.27 C 213.45 19.75 212.55 20.24 211.66 20.74 C 215.77 20.93 219.89 20.94 224.00 20.84 L 224.00 27.67 C 221.95 29.85 218.10 31.27 217.99 34.66 C 219.39 36.42 221.16 37.85 222.84 39.33 C 217.87 38.15 212.90 36.90 208.17 34.93 C 208.46 34.00 208.76 33.07 209.07 32.14 C 211.06 33.05 213.03 34.00 215.01 34.93 C 215.78 32.78 216.66 30.68 217.59 28.59 C 208.53 27.23 199.30 26.49 190.15 27.39 C 188.09 28.08 187.09 30.35 185.64 31.82 C 189.64 33.40 193.98 36.69 198.46 34.61 C 201.55 33.92 202.39 30.63 203.46 28.11 C 203.58 28.14 203.81 28.19 203.93 28.21 C 204.59 30.20 205.32 32.17 206.12 34.11 C 198.83 36.34 195.24 43.23 191.11 48.98 C 195.80 51.40 200.42 53.95 205.29 56.00 L 195.41 56.00 C 196.91 55.32 198.38 54.57 199.85 53.83 C 197.27 52.96 194.66 52.19 192.02 51.54 C 189.14 51.96 186.58 53.47 183.95 54.62 C 185.91 52.87 187.91 51.16 189.88 49.43 C 189.23 49.25 187.93 48.88 187.27 48.70 C 190.96 45.64 193.49 41.48 194.87 36.92 C 188.12 34.50 181.29 36.47 175.20 39.52 C 177.24 42.14 179.50 44.56 181.68 47.05 C 177.52 45.31 174.57 41.89 172.16 38.20 C 178.15 36.22 187.67 36.22 186.23 27.08 C 181.05 27.52 175.72 27.20 170.73 28.81 C 165.26 27.11 159.80 25.33 154.65 22.80 C 155.16 21.63 155.08 20.50 154.40 19.41 C 155.45 19.02 156.50 18.64 157.56 18.26 L 158.30 18.09 C 157.41 18.67 156.52 19.26 155.64 19.85 C 160.04 20.27 164.51 20.04 168.67 18.45 C 171.18 18.98 173.68 19.56 176.17 20.14 L 176.26 21.01 C 176.34 21.90 176.42 22.78 176.50 23.67 C 176.06 26.15 179.67 25.64 178.91 23.39 C 186.23 23.49 193.63 23.53 200.71 21.39 C 200.65 20.65 200.59 19.91 200.53 19.18 C 199.20 18.94 197.87 18.71 196.54 18.48 C 197.10 17.78 197.65 17.06 198.19 16.32 M 167.86 20.21 C 168.30 21.41 168.76 22.62 169.22 23.82 C 171.37 23.63 173.53 23.46 175.68 23.25 C 173.37 21.59 170.71 20.47 167.86 20.21 Z" />
</g>
<g id="#8a7c4cff">
<path fill="#8a7c4c" opacity="1.00" d=" M 5.41 18.68 C 5.20 15.99 8.36 17.41 7.91 19.43 C 7.29 19.25 6.04 18.87 5.41 18.68 Z" />
</g>
<g id="#8fa8bbff">
<path fill="#8fa8bb" opacity="1.00" d=" M 51.65 18.69 C 52.12 17.11 54.03 16.98 55.29 17.64 C 55.01 17.91 54.45 18.45 54.17 18.72 C 53.68 18.77 52.72 18.89 52.23 18.94 L 51.65 18.69 Z" />
</g>
<g id="#84774cff">
<path fill="#84774c" opacity="1.00" d=" M 61.71 18.28 C 62.32 16.50 64.53 17.82 64.08 19.33 C 63.48 19.07 62.30 18.54 61.71 18.28 Z" />
<path fill="#84774c" opacity="1.00" d=" M 173.72 18.28 C 174.31 16.50 176.54 17.78 176.09 19.30 C 175.49 19.04 174.31 18.53 173.72 18.28 Z" />
</g>
<g id="#437bc5ff">
<path fill="#437bc5" opacity="1.00" d=" M 123.75 17.92 C 123.99 17.81 124.47 17.59 124.71 17.49 C 125.10 17.50 125.89 17.51 126.29 17.52 C 126.93 17.55 128.20 17.60 128.84 17.63 C 130.99 17.79 133.15 17.95 135.31 18.10 L 136.13 18.16 C 136.83 18.12 138.22 18.04 138.92 18.00 L 139.79 17.73 C 135.36 20.89 129.59 20.30 124.50 21.53 C 124.24 20.32 123.99 19.12 123.75 17.92 Z" />
<path fill="#437bc5" opacity="1.00" d=" M 67.78 18.81 C 68.05 18.66 68.60 18.37 68.88 18.22 C 69.18 18.25 69.80 18.31 70.11 18.34 C 70.80 18.40 72.17 18.54 72.85 18.61 C 75.00 18.80 77.15 18.97 79.31 19.12 L 80.18 19.17 C 80.86 19.13 82.20 19.05 82.88 19.01 L 83.84 18.88 C 79.26 21.74 73.60 21.34 68.49 22.54 C 68.25 21.30 68.01 20.05 67.78 18.81 Z" />
<path fill="#437bc5" opacity="1.00" d=" M 179.78 18.81 C 180.05 18.66 180.60 18.37 180.88 18.22 C 181.19 18.25 181.80 18.31 182.11 18.34 C 182.80 18.41 184.17 18.54 184.85 18.61 C 187.00 18.80 189.15 18.97 191.31 19.12 L 192.18 19.17 C 192.86 19.13 194.20 19.05 194.88 19.01 L 195.84 18.88 C 191.26 21.74 185.60 21.34 180.49 22.54 C 180.25 21.30 180.01 20.05 179.78 18.81 Z" />
<path fill="#437bc5" opacity="1.00" d=" M 12.13 20.63 C 12.06 20.18 11.93 19.29 11.86 18.85 C 12.34 18.95 13.32 19.16 13.80 19.26 C 14.56 19.36 16.09 19.57 16.85 19.67 C 19.10 19.94 21.35 20.14 23.61 20.27 C 24.26 20.22 25.56 20.11 26.21 20.06 L 26.84 19.97 L 27.80 19.78 C 23.29 22.75 17.62 22.41 12.54 23.70 C 12.43 22.85 12.32 22.01 12.20 21.16 L 12.13 20.63 Z" />
</g>
<g id="#8fa8baff">
<path fill="#8fa8ba" opacity="1.00" d=" M 128.84 17.63 C 129.93 17.67 131.02 17.71 132.12 17.76 C 133.18 17.89 134.24 18.00 135.31 18.10 C 133.15 17.95 130.99 17.79 128.84 17.63 Z" />
<path fill="#8fa8ba" opacity="1.00" d=" M 72.85 18.61 C 74.00 18.70 75.15 18.78 76.30 18.85 C 77.30 18.93 78.31 19.02 79.31 19.12 C 77.15 18.97 75.00 18.80 72.85 18.61 Z" />
<path fill="#8fa8ba" opacity="1.00" d=" M 184.85 18.61 C 186.00 18.70 187.15 18.78 188.30 18.85 C 189.30 18.93 190.30 19.02 191.31 19.12 C 189.15 18.97 187.00 18.80 184.85 18.61 Z" />
<path fill="#8fa8ba" opacity="1.00" d=" M 16.85 19.67 C 18.03 19.64 19.21 19.58 20.40 19.50 C 21.47 19.76 22.54 20.02 23.61 20.27 C 21.35 20.14 19.10 19.94 16.85 19.67 Z" />
</g>
<g id="#665b9efe">
<path fill="#665b9e" opacity="1.00" d=" M 140.44 17.31 C 141.80 17.61 143.16 17.92 144.52 18.22 C 144.59 18.95 144.65 19.67 144.73 20.40 C 137.65 22.50 130.27 22.53 122.96 22.36 C 122.36 22.43 121.15 22.58 120.55 22.66 C 120.33 21.82 120.10 20.99 119.86 20.16 C 120.44 19.82 121.60 19.13 122.17 18.79 C 122.57 18.57 123.35 18.14 123.75 17.92 C 123.99 19.12 124.24 20.32 124.50 21.53 C 129.59 20.30 135.36 20.89 139.79 17.73 L 140.44 17.31 Z" />
<path fill="#665b9e" opacity="1.00" d=" M 84.54 18.48 C 85.87 18.71 87.20 18.94 88.53 19.18 C 88.59 19.91 88.65 20.65 88.71 21.39 C 81.63 23.53 74.23 23.49 66.90 23.39 C 66.30 23.46 65.09 23.60 64.49 23.67 C 64.41 22.80 64.33 21.92 64.25 21.04 C 64.70 20.75 65.62 20.15 66.08 19.86 C 66.50 19.60 67.35 19.07 67.78 18.81 C 68.01 20.05 68.25 21.30 68.49 22.54 C 73.60 21.34 79.26 21.74 83.84 18.88 L 84.54 18.48 Z" />
<path fill="#665b9e" opacity="1.00" d=" M 196.54 18.48 C 197.87 18.71 199.20 18.94 200.53 19.18 C 200.59 19.91 200.65 20.65 200.71 21.39 C 193.63 23.53 186.23 23.49 178.91 23.39 C 178.30 23.46 177.10 23.60 176.50 23.67 C 176.42 22.78 176.34 21.90 176.26 21.01 C 176.71 20.72 177.62 20.14 178.07 19.85 C 178.50 19.59 179.35 19.07 179.78 18.81 C 180.01 20.05 180.25 21.30 180.49 22.54 C 185.60 21.34 191.26 21.74 195.84 18.88 L 196.54 18.48 Z" />
</g>
<g id="#86a0b1ff">
<path fill="#86a0b1" opacity="1.00" d=" M 151.10 17.30 C 151.83 17.18 153.31 16.92 154.05 16.80 L 154.30 17.56 C 153.19 18.10 152.12 18.01 151.10 17.30 Z" />
<path fill="#86a0b1" opacity="1.00" d=" M 95.03 18.23 C 95.77 18.12 97.25 17.92 97.99 17.81 L 98.16 18.57 C 97.05 19.09 96.01 18.97 95.03 18.23 Z" />
<path fill="#86a0b1" opacity="1.00" d=" M 207.03 18.23 C 207.77 18.12 209.25 17.92 209.99 17.82 L 210.15 18.57 C 209.05 19.09 208.01 18.97 207.03 18.23 Z" />
<path fill="#86a0b1" opacity="1.00" d=" M 39.46 18.52 L 40.46 18.27 L 41.64 18.68 L 41.99 19.47 C 41.05 19.80 40.13 19.77 39.22 19.38 L 39.46 18.52 Z" />
<path fill="#86a0b1" opacity="1.00" d=" M 153.83 19.52 L 154.40 19.41 C 155.08 20.50 155.16 21.63 154.65 22.80 C 154.36 22.65 153.78 22.36 153.48 22.21 C 153.57 21.54 153.75 20.19 153.83 19.52 Z" />
<path fill="#86a0b1" opacity="1.00" d=" M 97.80 20.48 L 98.39 20.33 C 99.15 21.31 99.33 22.38 98.93 23.55 C 98.62 23.47 98.01 23.29 97.71 23.21 C 97.73 22.53 97.78 21.16 97.80 20.48 Z" />
<path fill="#86a0b1" opacity="1.00" d=" M 209.78 20.45 L 210.38 20.31 C 211.23 20.96 211.94 23.28 210.26 23.26 C 209.35 22.53 209.19 21.60 209.78 20.45 Z" />
<path fill="#86a0b1" opacity="1.00" d=" M 41.77 21.47 L 42.38 21.33 C 43.25 21.97 43.94 24.29 42.26 24.27 C 41.35 23.55 41.19 22.62 41.77 21.47 Z" />
</g>
<g id="#63579eff">
<path fill="#63579e" opacity="1.00" d=" M 154.30 17.56 C 154.74 17.43 155.63 17.17 156.07 17.04 C 156.44 17.34 157.19 17.95 157.56 18.26 C 156.50 18.64 155.45 19.02 154.40 19.41 L 153.83 19.52 C 151.21 19.85 148.53 19.87 145.91 20.03 C 146.21 19.86 146.81 19.52 147.10 19.35 C 147.65 19.07 148.75 18.49 149.30 18.21 C 149.75 17.98 150.65 17.53 151.10 17.30 C 152.12 18.01 153.19 18.10 154.30 17.56 Z" />
<path fill="#63579e" opacity="1.00" d=" M 98.16 18.57 C 98.58 18.45 99.42 18.21 99.84 18.08 C 100.25 18.41 101.08 19.07 101.49 19.40 C 100.45 19.71 99.42 20.02 98.39 20.33 L 97.80 20.48 C 95.17 20.83 92.49 20.85 89.86 21.04 C 90.11 20.89 90.63 20.59 90.89 20.44 C 91.49 20.12 92.69 19.46 93.29 19.13 C 93.72 18.91 94.60 18.45 95.03 18.23 C 96.01 18.97 97.05 19.09 98.16 18.57 Z" />
<path fill="#63579e" opacity="1.00" d=" M 210.15 18.57 C 210.57 18.45 211.42 18.21 211.84 18.09 C 212.25 18.42 213.08 19.08 213.49 19.41 C 212.45 19.71 211.42 20.01 210.38 20.31 L 209.78 20.45 C 207.17 20.83 204.46 20.85 201.86 21.05 C 202.11 20.90 202.63 20.59 202.89 20.44 C 203.49 20.12 204.69 19.46 205.29 19.13 C 205.72 18.91 206.59 18.45 207.03 18.23 C 208.01 18.97 209.05 19.09 210.15 18.57 Z" />
<path fill="#63579e" opacity="1.00" d=" M 41.99 19.47 C 42.44 19.38 43.35 19.19 43.81 19.09 C 44.23 19.40 45.06 20.02 45.47 20.33 C 44.44 20.66 43.41 20.99 42.38 21.33 L 41.77 21.47 C 39.11 21.79 36.41 21.75 33.74 21.88 C 34.14 21.67 34.95 21.27 35.35 21.07 C 35.86 20.85 36.88 20.40 37.39 20.18 C 37.85 19.98 38.76 19.58 39.22 19.38 C 40.13 19.77 41.05 19.80 41.99 19.47 Z" />
</g>
<g id="#65569cff">
<path fill="#65569c" opacity="1.00" d=" M 158.83 17.75 C 160.63 17.35 162.45 17.05 164.28 16.84 L 165.11 16.97 C 165.84 17.02 167.31 17.14 168.04 17.19 L 168.67 18.45 C 164.51 20.04 160.04 20.27 155.64 19.85 C 156.52 19.26 157.41 18.67 158.30 18.09 L 158.83 17.75 Z" />
<path fill="#65569c" opacity="1.00" d=" M 214.94 18.97 C 216.74 18.47 218.58 18.07 220.44 17.76 L 221.41 17.96 C 222.05 17.88 223.35 17.72 224.00 17.64 L 224.00 20.84 C 219.89 20.94 215.77 20.93 211.66 20.74 C 212.55 20.24 213.45 19.75 214.36 19.27 L 214.94 18.97 Z" />
<path fill="#65569c" opacity="1.00" d=" M 167.86 20.21 C 170.71 20.47 173.37 21.59 175.68 23.25 C 173.53 23.46 171.37 23.63 169.22 23.82 C 168.76 22.62 168.30 21.41 167.86 20.21 Z" />
<path fill="#65569c" opacity="1.00" d=" M 0.00 20.13 C 2.59 21.65 5.23 23.09 7.75 24.72 C 5.14 24.52 2.51 24.28 0.00 23.50 L 0.00 20.13 Z" />
</g>
<g id="#3d7bceff">
<path fill="#3d7bce" opacity="1.00" d=" M 36.94 18.60 C 37.40 18.43 38.33 18.08 38.79 17.91 L 39.46 18.52 L 39.22 19.38 C 38.76 19.58 37.85 19.98 37.39 20.18 C 37.28 19.79 37.05 19.00 36.94 18.60 Z" />
</g>
<g id="#64559cff">
<path fill="#64559c" opacity="1.00" d=" M 102.94 19.00 C 104.69 18.43 106.47 17.96 108.27 17.60 L 109.09 17.66 C 109.57 17.60 110.54 17.47 111.03 17.41 C 113.99 19.04 116.87 20.80 119.72 22.62 C 113.03 22.00 106.44 20.57 99.69 20.60 C 100.58 20.15 101.47 19.71 102.36 19.28 L 102.94 19.00 Z" />
<path fill="#64559c" opacity="1.00" d=" M 46.88 19.90 C 48.64 19.48 50.43 19.17 52.23 18.94 C 52.72 18.89 53.68 18.77 54.17 18.72 C 57.61 19.83 60.79 21.59 63.82 23.55 C 57.09 23.09 50.48 21.54 43.70 21.61 C 44.57 21.13 45.44 20.66 46.32 20.19 L 46.88 19.90 Z" />
</g>
<g id="#665a9dff">
<path fill="#665a9d" opacity="1.00" d=" M 28.48 19.38 C 29.83 19.64 31.18 19.92 32.53 20.20 C 32.59 20.94 32.65 21.67 32.72 22.40 C 25.62 24.52 18.23 24.50 10.90 24.39 C 10.30 24.46 9.09 24.60 8.49 24.67 C 8.47 23.69 8.45 22.72 8.44 21.75 C 9.72 21.95 11.04 21.73 12.20 21.16 C 12.32 22.01 12.43 22.85 12.54 23.70 C 17.62 22.41 23.29 22.75 27.80 19.78 L 28.48 19.38 Z" />
</g>
<g id="#7f91acff">
<path fill="#7f91ac" opacity="1.00" d=" M 10.88 19.74 C 11.19 19.96 11.82 20.41 12.13 20.63 L 12.20 21.16 C 11.04 21.73 9.72 21.95 8.44 21.75 L 8.43 21.22 C 9.05 20.85 10.27 20.11 10.88 19.74 Z" />
</g>
<g id="#7498b7ff">
<path fill="#7498b7" opacity="1.00" d=" M 120.55 22.66 C 121.15 22.58 122.36 22.43 122.96 22.36 C 123.79 24.67 120.37 25.10 120.55 22.66 Z" />
<path fill="#7498b7" opacity="1.00" d=" M 64.49 23.67 C 65.09 23.60 66.30 23.46 66.90 23.39 C 67.67 25.64 64.07 26.15 64.49 23.67 Z" />
<path fill="#7498b7" opacity="1.00" d=" M 176.50 23.67 C 177.10 23.60 178.30 23.46 178.91 23.39 C 179.67 25.64 176.06 26.15 176.50 23.67 Z" />
<path fill="#7498b7" opacity="1.00" d=" M 8.49 24.67 C 9.09 24.60 10.30 24.46 10.90 24.39 C 11.64 26.64 7.96 27.14 8.49 24.67 Z" />
</g>
<g id="#3c6bbeff">
<path fill="#3c6bbe" opacity="1.00" d=" M 153.48 22.21 C 153.78 22.36 154.36 22.65 154.65 22.80 C 159.80 25.33 165.26 27.11 170.73 28.81 C 175.72 27.20 181.05 27.52 186.23 27.08 C 187.67 36.22 178.15 36.22 172.16 38.20 C 174.57 41.89 177.52 45.31 181.68 47.05 C 179.50 44.56 177.24 42.14 175.20 39.52 C 181.29 36.47 188.12 34.50 194.87 36.92 C 193.49 41.48 190.96 45.64 187.27 48.70 C 187.93 48.88 189.23 49.25 189.88 49.43 C 187.91 51.16 185.91 52.87 183.95 54.62 C 186.58 53.47 189.14 51.96 192.02 51.54 C 194.66 52.19 197.27 52.96 199.85 53.83 C 198.38 54.57 196.91 55.32 195.41 56.00 L 168.58 56.00 C 168.23 54.45 167.87 52.91 167.49 51.37 L 167.18 50.19 C 163.95 50.83 160.68 51.79 158.09 53.90 C 156.38 52.78 154.49 54.19 154.20 56.00 L 150.24 56.00 C 145.12 51.72 138.82 49.34 133.47 45.43 C 132.62 46.11 131.77 46.79 130.92 47.47 C 131.69 47.71 133.22 48.18 133.98 48.42 C 131.96 50.12 129.94 51.80 127.92 53.49 C 133.50 50.79 140.08 49.73 145.64 53.07 C 143.58 53.40 139.44 54.06 137.38 54.39 C 138.00 54.79 139.24 55.60 139.86 56.00 L 112.29 56.00 C 112.08 54.48 111.87 52.96 111.66 51.45 L 111.52 50.50 C 108.74 51.03 105.99 51.60 103.20 52.06 C 102.86 52.04 102.20 52.02 101.87 52.00 C 100.18 53.23 98.64 54.62 97.09 56.00 L 93.29 56.00 C 88.42 53.95 83.80 51.40 79.11 48.98 C 83.24 43.23 86.83 36.34 94.12 34.11 C 93.32 32.17 92.59 30.20 91.93 28.21 C 91.81 28.18 91.56 28.13 91.44 28.11 C 90.64 30.02 90.05 32.12 88.64 33.70 C 83.81 36.12 78.29 33.22 73.54 31.99 C 75.08 30.33 76.30 27.55 78.96 27.64 C 85.54 27.83 91.68 25.50 97.71 23.21 C 98.01 23.29 98.62 23.47 98.93 23.55 C 100.16 24.01 101.37 24.51 102.60 25.00 L 96.77 26.26 C 99.66 27.19 102.54 28.14 105.42 29.11 C 104.55 31.02 103.73 32.95 102.98 34.92 C 101.01 33.99 99.05 33.04 97.07 32.14 C 96.76 33.07 96.46 34.00 96.17 34.93 C 100.90 36.91 105.87 38.15 110.85 39.33 C 109.07 37.29 104.91 35.67 106.30 32.40 C 111.70 25.33 121.25 26.34 129.07 25.61 C 128.94 27.27 128.67 30.60 128.54 32.26 C 127.92 32.58 126.68 33.22 126.07 33.53 C 130.08 34.65 134.14 35.68 137.99 37.28 C 139.65 40.25 136.99 43.84 136.58 46.97 C 141.74 43.74 141.37 35.02 148.23 34.29 C 154.59 34.74 160.72 36.69 166.85 38.33 C 165.18 36.87 163.43 35.46 162.04 33.73 C 162.75 31.25 164.16 29.05 165.36 26.79 C 162.94 28.78 160.61 30.87 158.35 33.04 C 155.88 32.65 153.40 32.31 150.90 32.16 C 150.23 31.05 149.57 29.94 148.91 28.83 C 145.15 34.73 136.91 35.26 131.37 31.58 C 129.83 30.04 130.63 27.56 130.37 25.61 C 134.29 26.26 138.20 26.97 142.11 27.72 C 141.47 26.22 140.82 24.72 140.18 23.22 C 143.31 23.73 146.42 24.40 149.49 25.20 C 150.83 24.21 152.16 23.22 153.48 22.21 M 114.58 36.83 C 114.38 37.44 114.17 38.06 113.97 38.68 C 115.20 38.86 116.43 39.04 117.66 39.22 C 117.57 39.68 117.40 40.59 117.31 41.04 C 121.24 38.83 125.38 37.07 129.43 35.11 C 124.50 35.84 119.61 37.92 114.58 36.83 M 103.40 38.72 C 102.56 40.46 101.81 42.28 100.61 43.82 C 97.59 45.30 94.64 44.13 91.96 42.83 C 90.23 43.50 88.49 44.15 86.74 44.77 C 91.12 45.24 95.65 45.57 99.57 47.81 C 103.43 46.46 107.52 45.97 111.60 45.91 C 112.62 47.21 113.64 48.51 114.66 49.82 C 115.35 48.27 116.06 46.74 116.80 45.22 C 112.26 45.35 107.74 44.81 103.25 44.28 C 103.36 42.43 103.45 40.58 103.40 38.72 M 154.18 44.35 C 152.13 44.71 150.40 43.23 148.62 42.46 C 148.42 43.20 148.22 43.93 148.02 44.67 C 152.34 46.50 157.06 47.90 161.37 45.15 C 161.04 43.15 160.78 41.15 160.60 39.13 C 158.75 41.15 157.17 44.04 154.18 44.35 M 163.94 44.23 C 163.65 45.98 167.35 45.98 167.06 44.23 C 166.42 43.20 164.58 43.20 163.94 44.23 M 113.53 51.44 C 116.82 51.95 120.13 52.53 123.45 52.88 C 120.49 50.76 116.93 49.51 113.53 51.44 Z" />
<path fill="#3c6bbe" opacity="1.00" d=" M 61.28 25.83 C 65.62 26.32 69.96 26.82 74.29 27.43 C 75.37 36.29 66.02 36.23 60.16 38.20 C 62.57 41.89 65.52 45.31 69.68 47.05 C 67.50 44.56 65.24 42.14 63.20 39.52 C 69.29 36.47 76.12 34.50 82.87 36.92 C 81.49 41.48 78.96 45.64 75.27 48.70 C 75.93 48.88 77.23 49.25 77.88 49.43 C 75.91 51.16 73.91 52.87 71.95 54.62 C 74.58 53.47 77.14 51.96 80.02 51.54 C 82.66 52.19 85.27 52.96 87.85 53.83 C 86.38 54.57 84.91 55.32 83.41 56.00 L 56.58 56.00 C 56.23 54.45 55.87 52.91 55.49 51.37 L 55.17 50.16 C 51.85 50.79 48.61 51.99 45.93 54.07 C 46.51 52.99 47.08 51.89 47.63 50.79 L 46.44 51.01 C 45.20 51.19 43.95 51.37 42.70 51.53 C 42.50 52.19 42.10 53.51 41.89 54.17 C 41.74 54.63 41.43 55.54 41.28 56.00 L 32.83 56.00 C 30.12 53.67 27.25 51.51 24.10 49.80 C 29.27 45.44 29.91 35.92 37.98 35.45 C 36.45 33.02 35.19 30.44 33.90 27.89 C 38.97 27.82 44.02 27.30 49.08 27.13 C 48.46 27.36 47.83 27.58 47.21 27.80 C 48.03 30.52 48.11 33.36 47.68 36.15 C 45.48 35.14 43.26 34.18 41.06 33.15 C 40.76 34.08 40.46 35.00 40.17 35.93 C 44.90 37.91 49.87 39.15 54.85 40.33 C 53.16 38.85 51.39 37.43 49.99 35.66 C 50.15 31.21 55.76 29.98 58.57 27.24 C 58.91 28.13 59.25 29.01 59.58 29.89 C 60.15 28.54 60.71 27.18 61.28 25.83 M 34.89 42.69 C 33.60 43.77 32.26 44.79 30.87 45.74 C 35.53 44.90 40.60 45.48 43.80 49.34 C 44.58 48.35 45.37 47.37 46.16 46.40 C 49.59 46.66 53.02 46.73 56.47 46.78 C 52.93 46.03 49.44 45.12 45.93 44.25 C 46.29 42.85 46.65 41.46 47.02 40.06 C 44.20 43.79 38.88 45.87 34.89 42.69 Z" />
<path fill="#3c6bbe" opacity="1.00" d=" M 0.00 30.88 C 6.74 28.01 14.09 27.36 21.33 27.04 C 20.06 27.45 18.80 27.85 17.53 28.26 C 18.12 29.94 18.72 31.62 19.29 33.32 C 13.22 36.13 6.56 37.04 0.00 37.93 L 0.00 30.88 Z" />
<path fill="#3c6bbe" opacity="1.00" d=" M 185.64 31.82 C 187.09 30.35 188.09 28.08 190.15 27.39 C 199.30 26.49 208.53 27.23 217.59 28.59 C 216.66 30.68 215.78 32.78 215.01 34.93 C 213.03 34.00 211.06 33.05 209.07 32.14 C 208.76 33.07 208.46 34.00 208.17 34.93 C 212.90 36.90 217.87 38.15 222.84 39.33 C 221.16 37.85 219.39 36.42 217.99 34.66 C 218.10 31.27 221.95 29.85 224.00 27.67 L 224.00 45.18 C 215.54 44.86 207.00 42.42 198.56 44.23 C 201.88 45.14 205.24 45.95 208.61 46.67 C 213.70 48.05 218.92 46.10 224.00 45.78 L 224.00 50.53 C 220.99 51.15 218.03 51.86 214.98 52.19 C 214.66 52.07 214.00 51.82 213.68 51.70 C 212.25 53.14 210.80 54.58 209.35 56.00 L 205.29 56.00 C 200.42 53.95 195.80 51.40 191.11 48.98 C 195.24 43.23 198.83 36.34 206.12 34.11 C 205.32 32.17 204.59 30.20 203.93 28.21 C 203.81 28.19 203.58 28.14 203.46 28.11 C 202.39 30.63 201.55 33.92 198.46 34.61 C 193.98 36.69 189.64 33.40 185.64 31.82 Z" />
<path fill="#3c6bbe" opacity="1.00" d=" M 9.09 40.69 C 12.93 34.31 23.53 35.09 27.37 41.04 C 25.69 43.38 23.05 44.65 20.59 45.99 C 21.01 47.51 21.42 49.04 21.83 50.57 C 19.77 52.38 17.76 54.26 15.64 56.00 L 0.00 56.00 L 0.00 38.48 C 2.84 39.17 6.56 38.92 8.23 41.83 C 10.10 44.59 12.77 46.59 15.74 48.03 C 13.47 45.64 10.92 43.47 9.09 40.69 M 2.21 47.91 C 2.82 49.21 3.43 50.51 4.04 51.81 C 3.38 52.56 2.72 53.31 2.06 54.06 C 5.10 54.37 8.13 54.69 11.17 54.99 C 9.01 53.56 6.85 52.13 4.70 50.68 C 5.76 49.33 6.83 47.99 7.90 46.65 C 6.01 47.08 4.11 47.50 2.21 47.91 Z" />
<path fill="#3c6bbe" opacity="1.00" d=" M 16.74 56.00 C 19.75 54.41 22.65 51.99 26.36 52.64 C 28.27 53.50 29.89 54.85 31.63 56.00 L 16.74 56.00 Z" />
</g>
<g id="#3c6bbdff">
<path fill="#3c6bbd" opacity="1.00" d=" M 19.21 32.75 C 20.96 26.91 27.38 27.07 32.42 26.79 C 32.98 28.92 33.61 31.03 34.24 33.14 C 31.91 34.22 29.63 35.74 27.01 35.89 C 24.20 35.48 21.76 33.90 19.21 32.75 Z" />
</g>
<g id="#4379caff">
<path fill="#4379ca" opacity="1.00" d=" M 114.58 36.83 C 119.61 37.92 124.50 35.84 129.43 35.11 C 125.38 37.07 121.24 38.83 117.31 41.04 C 117.40 40.59 117.57 39.68 117.66 39.22 C 116.43 39.04 115.20 38.86 113.97 38.68 C 114.17 38.06 114.38 37.44 114.58 36.83 Z" />
</g>
<g id="#4278cbff">
<path fill="#4278cb" opacity="1.00" d=" M 103.40 38.72 C 103.45 40.58 103.36 42.43 103.25 44.28 C 107.74 44.81 112.26 45.35 116.80 45.22 C 116.06 46.74 115.35 48.27 114.66 49.82 C 113.64 48.51 112.62 47.21 111.60 45.91 C 107.52 45.97 103.43 46.46 99.57 47.81 C 95.65 45.57 91.12 45.24 86.74 44.77 C 88.49 44.15 90.23 43.50 91.96 42.83 C 94.64 44.13 97.59 45.30 100.61 43.82 C 101.81 42.28 102.56 40.46 103.40 38.72 Z" />
</g>
<g id="#4279cbff">
<path fill="#4279cb" opacity="1.00" d=" M 154.18 44.35 C 157.17 44.04 158.75 41.15 160.60 39.13 C 160.78 41.15 161.04 43.15 161.37 45.15 C 157.06 47.90 152.34 46.50 148.02 44.67 C 148.22 43.93 148.42 43.20 148.62 42.46 C 150.40 43.23 152.13 44.71 154.18 44.35 Z" />
</g>
<g id="#4378cbff">
<path fill="#4378cb" opacity="1.00" d=" M 34.89 42.69 C 38.88 45.87 44.20 43.79 47.02 40.06 C 46.65 41.46 46.29 42.85 45.93 44.25 C 49.44 45.12 52.93 46.03 56.47 46.78 C 53.02 46.73 49.59 46.66 46.16 46.40 C 45.37 47.37 44.58 48.35 43.80 49.34 C 40.60 45.48 35.53 44.90 30.87 45.74 C 32.26 44.79 33.60 43.77 34.89 42.69 Z" />
</g>
<g id="#4379cbff">
<path fill="#4379cb" opacity="1.00" d=" M 198.56 44.23 C 207.00 42.42 215.54 44.86 224.00 45.18 L 224.00 45.78 C 218.92 46.10 213.70 48.05 208.61 46.67 C 205.24 45.95 201.88 45.14 198.56 44.23 Z" />
</g>
<g id="#4575cbff">
<path fill="#4575cb" opacity="1.00" d=" M 163.94 44.23 C 164.58 43.20 166.42 43.20 167.06 44.23 C 167.35 45.98 163.65 45.98 163.94 44.23 Z" />
</g>
<g id="#4179cbff">
<path fill="#4179cb" opacity="1.00" d=" M 130.92 47.47 C 131.77 46.79 132.62 46.11 133.47 45.43 C 138.82 49.34 145.12 51.72 150.24 56.00 L 139.86 56.00 C 139.24 55.60 138.00 54.79 137.38 54.39 C 139.44 54.06 143.58 53.40 145.64 53.07 C 140.08 49.73 133.50 50.79 127.92 53.49 C 129.94 51.80 131.96 50.12 133.98 48.42 C 133.22 48.18 131.69 47.71 130.92 47.47 Z" />
</g>
<g id="#427acbff">
<path fill="#427acb" opacity="1.00" d=" M 2.21 47.91 C 4.11 47.50 6.01 47.08 7.90 46.65 C 6.83 47.99 5.76 49.33 4.70 50.68 C 6.85 52.13 9.01 53.56 11.17 54.99 C 8.13 54.69 5.10 54.37 2.06 54.06 C 2.72 53.31 3.38 52.56 4.04 51.81 C 3.43 50.51 2.82 49.21 2.21 47.91 Z" />
</g>
<g id="#4279caff">
<path fill="#4279ca" opacity="1.00" d=" M 113.53 51.44 C 116.93 49.51 120.49 50.76 123.45 52.88 C 120.13 52.53 116.82 51.95 113.53 51.44 Z" />
</g>
<g id="#3686d0ff">
<path fill="#3686d0" opacity="1.00" d=" M 42.70 51.53 C 43.95 51.37 45.20 51.19 46.44 51.01 C 44.88 51.99 43.35 53.04 41.89 54.17 C 42.10 53.51 42.50 52.19 42.70 51.53 Z" />
</g>
<g id="#809db3ff">
<path fill="#809db3" opacity="1.00" d=" M 46.44 51.01 L 47.63 50.79 C 47.08 51.89 46.51 52.99 45.93 54.07 C 45.44 54.55 44.46 55.52 43.97 56.00 L 41.28 56.00 C 41.43 55.54 41.74 54.63 41.89 54.17 C 43.35 53.04 44.88 51.99 46.44 51.01 Z" />
</g>
<g id="#74a05cff">
<path fill="#74a05c" opacity="1.00" d=" M 47.59 56.00 C 50.22 54.45 52.84 52.88 55.49 51.37 C 55.87 52.91 56.23 54.45 56.58 56.00 L 47.59 56.00 Z" />
<path fill="#74a05c" opacity="1.00" d=" M 103.60 56.00 C 106.26 54.44 108.93 52.90 111.66 51.45 C 111.87 52.96 112.08 54.48 112.29 56.00 L 103.60 56.00 Z" />
<path fill="#74a05c" opacity="1.00" d=" M 159.60 56.00 C 162.23 54.44 164.84 52.88 167.49 51.37 C 167.87 52.91 168.23 54.45 168.58 56.00 L 159.60 56.00 Z" />
<path fill="#74a05c" opacity="1.00" d=" M 215.69 56.00 C 218.47 54.37 221.22 52.71 224.00 51.07 L 224.00 56.00 L 215.69 56.00 Z" />
</g>
<g id="#2e83d0ff">
<path fill="#2e83d0" opacity="1.00" d=" M 97.09 56.00 C 98.64 54.62 100.18 53.23 101.87 52.00 C 100.16 52.43 100.31 54.26 100.81 55.54 L 100.88 56.00 L 97.09 56.00 Z" />
<path fill="#2e83d0" opacity="1.00" d=" M 209.35 56.00 C 210.80 54.58 212.25 53.14 213.68 51.70 C 212.35 52.54 212.66 54.21 212.86 55.52 L 212.88 56.00 L 209.35 56.00 Z" />
</g>
<g id="#67839bff">
<path fill="#67839b" opacity="1.00" d=" M 101.87 52.00 C 102.20 52.02 102.86 52.04 103.20 52.06 C 102.57 53.33 101.77 54.49 100.81 55.54 C 100.31 54.26 100.16 52.43 101.87 52.00 Z" />
<path fill="#67839b" opacity="1.00" d=" M 213.68 51.70 C 214.00 51.82 214.66 52.07 214.98 52.19 C 214.61 53.49 213.90 54.60 212.86 55.52 C 212.66 54.21 212.35 52.54 213.68 51.70 Z" />
</g>
<g id="#2e86d2ff">
<path fill="#2e86d2" opacity="1.00" d=" M 154.20 56.00 C 154.49 54.19 156.38 52.78 158.09 53.90 C 157.65 54.43 156.78 55.48 156.34 56.00 L 154.20 56.00 Z" />
</g>
</svg>
