<?xml version="1.0" encoding="UTF-8" ?>
<!DOCTYPE svg PUBLIC "-//W3C//DTD SVG 1.1//EN" "http://www.w3.org/Graphics/SVG/1.1/DTD/svg11.dtd">
<svg width="224pt" height="56pt" viewBox="0 0 224 56" version="1.1" xmlns="http://www.w3.org/2000/svg">
<g id="#739f5cff">
<path fill="#739f5c" opacity="1.00" d=" M 0.00 0.00 L 224.00 0.00 L 224.00 3.78 C 223.56 3.72 222.68 3.60 222.25 3.54 C 219.08 3.02 215.87 2.98 212.68 3.23 L 211.68 3.28 C 211.46 1.94 210.64 1.39 209.22 1.64 C 207.12 1.75 205.01 1.78 202.90 1.73 C 201.57 1.57 200.65 2.12 200.13 3.39 C 196.91 4.44 193.69 5.53 190.34 6.10 C 189.74 5.60 189.14 5.11 188.55 4.62 C 188.07 4.07 187.13 2.98 186.65 2.43 C 184.87 2.10 183.08 1.82 181.29 1.60 C 176.29 2.66 171.33 5.99 166.12 4.05 C 163.09 3.16 159.93 2.83 156.78 3.10 L 155.89 3.14 C 155.40 1.78 154.40 1.37 152.91 1.92 C 150.90 1.86 148.89 1.79 146.89 1.67 C 145.55 1.49 144.64 2.06 144.16 3.36 C 140.93 4.44 137.70 5.53 134.34 6.09 C 133.74 5.60 133.14 5.11 132.55 4.62 C 132.07 4.07 131.13 2.98 130.65 2.43 C 128.87 2.10 127.08 1.82 125.29 1.60 C 120.29 2.66 115.33 5.99 110.12 4.05 C 107.09 3.16 103.93 2.83 100.78 3.10 L 99.89 3.14 C 99.40 1.78 98.40 1.37 96.91 1.92 C 94.90 1.86 92.89 1.79 90.89 1.67 C 89.55 1.49 88.64 2.06 88.16 3.36 C 84.93 4.44 81.70 5.53 78.34 6.09 C 77.74 5.60 77.14 5.11 76.55 4.62 C 76.07 4.07 75.13 2.98 74.65 2.43 C 72.87 2.10 71.08 1.82 69.29 1.60 C 64.29 2.66 59.33 5.99 54.12 4.05 C 51.09 3.16 47.93 2.83 44.78 3.10 L 43.89 3.14 C 43.40 1.78 42.40 1.37 40.91 1.92 C 38.90 1.86 36.89 1.79 34.88 1.67 C 33.55 1.50 32.64 2.07 32.17 3.39 C 29.05 4.40 25.91 5.44 22.64 5.86 C 21.86 5.43 21.07 5.01 20.27 4.62 C 18.01 3.46 15.77 2.27 13.44 1.27 C 8.76 2.42 4.27 4.24 0.00 6.47 L 0.00 0.00 Z" />
</g>
<g id="#5e8e65fe">
<path fill="#5e8e65" opacity="1.00" d=" M 13.44 1.27 C 15.77 2.27 18.01 3.46 20.27 4.62 C 17.93 3.82 15.55 3.14 13.22 2.27 L 13.44 1.27 Z" />
<path fill="#5e8e65" opacity="1.00" d=" M 69.29 1.60 C 71.08 1.82 72.87 2.10 74.65 2.43 C 75.13 2.98 76.07 4.07 76.55 4.62 C 74.09 3.86 71.59 3.21 69.15 2.39 L 69.29 1.60 Z" />
<path fill="#5e8e65" opacity="1.00" d=" M 125.29 1.60 C 127.08 1.82 128.87 2.10 130.65 2.43 C 131.13 2.98 132.07 4.07 132.55 4.62 C 130.09 3.86 127.59 3.21 125.15 2.39 L 125.29 1.60 Z" />
<path fill="#5e8e65" opacity="1.00" d=" M 181.29 1.60 C 183.08 1.82 184.87 2.10 186.65 2.43 C 187.13 2.98 188.07 4.07 188.55 4.62 C 186.09 3.86 183.59 3.21 181.15 2.39 L 181.29 1.60 Z" />
</g>
<g id="#342f2bff">
<path fill="#342f2b" opacity="1.00" d=" M 0.00 6.47 C 4.27 4.24 8.76 2.42 13.44 1.27 L 13.22 2.27 C 13.08 2.83 12.79 3.96 12.64 4.52 C 15.95 5.15 19.27 5.77 22.64 5.86 C 25.91 5.44 29.05 4.40 32.17 3.39 C 33.68 3.60 34.59 3.02 34.88 1.67 C 36.89 1.79 38.90 1.86 40.91 1.92 C 41.62 3.02 42.61 3.43 43.89 3.14 L 44.78 3.10 C 47.90 3.34 51.02 3.59 54.12 4.05 C 59.33 5.99 64.29 2.66 69.29 1.60 L 69.15 2.39 C 69.05 2.91 68.84 3.94 68.74 4.46 C 71.91 5.16 75.10 5.82 78.34 6.09 C 81.70 5.53 84.93 4.44 88.16 3.36 C 89.67 3.59 90.58 3.03 90.89 1.67 C 92.89 1.79 94.90 1.86 96.91 1.92 C 97.62 3.02 98.61 3.43 99.89 3.14 L 100.78 3.10 C 103.89 3.34 107.02 3.59 110.12 4.05 C 115.33 5.99 120.29 2.66 125.29 1.60 L 125.15 2.39 C 125.05 2.91 124.84 3.94 124.74 4.46 C 127.91 5.16 131.10 5.82 134.34 6.09 C 137.70 5.53 140.93 4.44 144.16 3.36 C 145.67 3.59 146.58 3.03 146.89 1.67 C 148.89 1.79 150.90 1.86 152.91 1.92 C 153.62 3.02 154.61 3.43 155.89 3.14 L 156.78 3.10 C 159.89 3.34 163.02 3.59 166.12 4.05 C 171.33 5.99 176.29 2.66 181.29 1.60 L 181.15 2.39 C 181.05 2.91 180.84 3.94 180.74 4.46 C 183.91 5.16 187.10 5.82 190.34 6.10 C 193.69 5.53 196.91 4.44 200.13 3.39 C 201.66 3.66 202.58 3.11 202.90 1.73 C 205.01 1.78 207.12 1.75 209.22 1.64 C 209.44 2.98 210.25 3.53 211.68 3.28 L 212.68 3.23 C 215.85 3.28 219.07 3.33 222.25 3.54 C 222.68 3.60 223.56 3.72 224.00 3.78 L 224.00 16.91 C 222.72 16.30 221.86 16.65 221.41 17.95 L 220.45 17.75 C 219.55 17.55 218.66 17.34 217.78 17.13 C 217.45 16.76 216.79 16.03 216.46 15.66 C 217.93 15.23 219.14 14.28 220.35 13.39 C 221.12 13.09 222.65 12.50 223.42 12.20 C 221.30 11.27 219.11 10.50 216.93 9.76 C 215.35 8.28 213.74 6.83 212.09 5.43 C 212.81 7.53 213.56 9.62 214.35 11.69 C 213.27 12.22 212.20 12.75 211.14 13.28 C 212.44 13.90 213.76 14.52 215.05 15.19 L 215.55 15.63 C 215.54 16.02 215.52 16.78 215.51 17.17 C 214.97 17.03 213.88 16.75 213.33 16.60 C 212.98 16.57 212.27 16.51 211.92 16.49 C 210.51 16.52 209.92 17.22 210.15 18.59 L 209.99 17.81 C 209.65 16.03 209.37 14.23 209.18 12.42 C 209.18 12.09 209.16 11.43 209.16 11.09 C 209.15 9.77 209.17 8.44 209.18 7.12 C 206.60 6.60 203.74 6.24 201.72 8.40 C 201.69 6.81 201.64 5.23 201.60 3.65 C 201.03 5.85 200.52 8.05 199.97 10.25 C 199.87 10.62 199.67 11.34 199.56 11.71 C 199.12 13.25 198.69 14.80 198.19 16.32 C 197.65 17.07 197.10 17.81 196.54 18.53 L 195.84 18.90 L 194.87 19.03 C 195.23 17.07 195.59 15.12 196.00 13.17 C 196.31 11.70 196.64 10.23 197.00 8.77 C 197.11 8.34 197.35 7.49 197.47 7.07 C 195.61 7.76 193.75 8.46 191.90 9.15 C 187.92 8.61 183.56 9.34 180.29 6.42 C 179.23 10.29 177.98 14.77 180.85 18.18 C 180.65 18.31 180.24 18.57 180.03 18.70 C 179.55 19.02 178.59 19.64 178.11 19.95 C 178.01 18.61 177.92 17.27 177.83 15.93 C 175.87 16.22 173.92 16.53 171.97 16.84 C 172.41 17.20 173.28 17.92 173.72 18.27 C 174.31 18.53 175.50 19.03 176.10 19.29 L 176.19 20.17 C 173.68 19.59 171.18 19.00 168.66 18.46 L 168.04 17.21 C 167.83 15.54 165.63 15.42 165.11 16.96 L 164.29 16.84 C 162.39 16.48 160.52 16.03 158.69 15.43 C 160.86 16.11 162.93 14.96 164.38 13.40 C 164.95 13.28 166.09 13.04 166.66 12.91 C 166.30 12.12 165.95 11.32 165.60 10.52 C 164.08 10.43 162.56 10.35 161.03 10.27 C 159.46 8.58 157.84 6.93 156.16 5.34 C 156.81 7.43 157.51 9.51 158.25 11.56 C 157.08 12.36 155.91 13.15 154.75 13.95 C 155.71 14.34 156.68 14.71 157.66 15.08 C 157.29 15.16 156.56 15.32 156.19 15.40 C 154.78 15.55 154.15 16.28 154.30 17.60 L 154.09 16.84 C 153.71 15.37 153.40 13.89 153.16 12.39 C 153.13 12.08 153.06 11.46 153.03 11.15 C 152.72 9.58 152.93 6.97 150.83 6.64 C 148.88 5.82 147.27 7.45 145.79 8.44 C 145.71 6.83 145.62 5.21 145.53 3.60 C 144.82 5.75 144.12 7.90 143.57 10.10 C 143.71 12.42 144.24 14.71 144.95 16.92 C 144.34 16.31 143.72 15.70 143.11 15.09 C 142.23 15.84 141.36 16.61 140.46 17.34 L 139.80 17.74 L 138.92 18.00 C 139.26 16.38 139.61 14.76 139.98 13.15 C 140.31 11.69 140.65 10.23 141.03 8.78 C 141.15 8.35 141.39 7.50 141.51 7.07 C 139.63 7.76 137.77 8.47 135.89 9.15 C 131.93 8.60 127.57 9.36 124.31 6.43 C 123.62 9.99 121.62 14.37 124.71 17.41 C 124.53 17.51 124.19 17.71 124.01 17.81 C 123.56 18.08 122.66 18.63 122.21 18.90 C 122.08 18.25 121.83 16.95 121.70 16.30 C 120.54 16.13 119.37 15.96 118.20 15.78 C 118.69 16.99 119.18 18.20 119.63 19.43 C 116.94 18.58 114.25 17.79 111.53 17.05 C 110.99 15.73 108.53 15.77 109.02 17.52 L 108.23 17.47 C 107.40 17.40 106.58 17.32 105.75 17.24 C 105.44 16.86 104.81 16.09 104.49 15.71 C 105.97 15.26 107.16 14.26 108.35 13.32 C 108.93 13.23 110.10 13.05 110.68 12.96 C 110.32 12.14 109.95 11.33 109.59 10.51 C 108.07 10.43 106.55 10.35 105.04 10.27 C 103.46 8.57 101.83 6.94 100.15 5.35 C 100.83 7.48 101.56 9.60 102.32 11.70 C 101.26 12.22 100.20 12.75 99.14 13.28 C 100.46 13.91 101.78 14.53 103.08 15.22 L 103.58 15.66 C 103.55 16.04 103.51 16.81 103.49 17.20 C 102.95 17.05 101.88 16.75 101.34 16.61 C 100.99 16.57 100.28 16.51 99.92 16.48 C 98.52 16.51 97.93 17.21 98.15 18.59 L 97.99 17.81 C 97.65 16.03 97.37 14.23 97.18 12.42 C 97.17 12.09 97.16 11.43 97.16 11.09 C 97.15 9.77 97.17 8.44 97.19 7.12 C 94.60 6.60 91.74 6.24 89.72 8.40 C 89.69 6.81 89.64 5.23 89.60 3.65 C 89.03 5.85 88.52 8.05 87.97 10.25 C 87.87 10.62 87.67 11.34 87.56 11.71 C 87.12 13.25 86.69 14.80 86.19 16.32 C 85.65 17.07 85.10 17.81 84.54 18.53 L 83.84 18.90 L 82.87 19.03 C 83.23 17.07 83.59 15.12 84.00 13.17 C 84.31 11.70 84.64 10.23 85.00 8.77 C 85.11 8.34 85.35 7.49 85.47 7.07 C 83.61 7.76 81.75 8.46 79.89 9.16 C 75.92 8.61 71.56 9.34 68.29 6.42 C 67.23 10.28 65.98 14.77 68.85 18.17 C 68.64 18.31 68.24 18.57 68.03 18.70 C 67.55 19.02 66.60 19.65 66.12 19.96 C 66.02 18.62 65.92 17.27 65.83 15.93 C 63.88 16.22 61.93 16.52 59.98 16.83 C 60.41 17.19 61.28 17.92 61.71 18.28 C 62.31 18.54 63.49 19.06 64.09 19.32 L 64.18 20.26 C 61.21 19.40 58.26 18.49 55.28 17.63 C 54.02 16.98 52.13 17.14 51.64 18.70 C 51.18 18.52 50.25 18.16 49.79 17.98 C 49.45 17.48 48.77 16.47 48.43 15.97 C 49.91 15.50 51.02 14.38 52.18 13.41 C 52.80 13.28 54.05 13.03 54.68 12.90 C 54.32 12.11 53.96 11.32 53.60 10.53 C 52.08 10.44 50.56 10.35 49.04 10.27 C 47.46 8.57 45.83 6.94 44.16 5.34 C 44.82 7.46 45.54 9.56 46.30 11.65 C 45.26 12.23 44.21 12.80 43.18 13.38 C 44.88 14.74 46.55 16.14 48.31 17.43 C 47.56 17.43 46.07 17.42 45.33 17.41 C 44.98 17.43 44.28 17.47 43.92 17.49 C 42.55 17.50 41.90 18.16 41.99 19.48 L 41.64 18.69 C 41.38 16.61 41.28 14.52 41.21 12.43 C 41.21 12.09 41.20 11.42 41.20 11.08 C 41.19 9.76 41.21 8.44 41.22 7.12 C 38.62 6.61 35.77 6.23 33.72 8.38 C 33.69 6.80 33.64 5.22 33.59 3.64 C 32.99 5.85 32.44 8.07 31.89 10.29 C 31.77 10.74 31.54 11.63 31.42 12.08 C 30.99 13.79 30.60 15.51 30.14 17.22 C 29.61 17.97 29.06 18.70 28.49 19.42 L 27.79 19.81 L 26.85 19.97 C 27.67 18.52 27.29 16.83 27.08 15.28 C 27.24 14.75 27.56 13.69 27.73 13.16 C 28.17 11.70 28.61 10.23 29.07 8.77 C 29.21 8.35 29.49 7.51 29.63 7.09 C 27.71 7.77 25.79 8.46 23.88 9.14 C 19.89 8.62 15.53 9.32 12.24 6.41 C 11.38 10.50 10.87 14.69 11.88 18.80 C 11.93 19.26 12.03 20.20 12.08 20.67 C 11.79 20.43 11.21 19.96 10.91 19.72 C 10.30 18.48 9.70 17.24 9.12 15.98 C 6.95 16.45 4.78 16.90 2.60 17.33 C 3.53 17.78 4.47 18.23 5.41 18.68 C 6.04 18.87 7.30 19.25 7.93 19.44 C 8.06 19.88 8.32 20.76 8.45 21.20 C 5.62 20.50 2.81 19.72 0.00 18.91 L 0.00 6.47 M 8.22 11.82 C 5.80 14.44 11.20 14.44 8.78 11.82 C 9.65 10.04 9.30 7.70 8.62 5.90 C 7.45 7.17 7.47 10.15 8.22 11.82 M 49.12 6.18 C 49.07 6.89 48.98 8.30 48.94 9.01 C 49.74 8.99 51.35 8.95 52.16 8.93 C 52.24 7.60 52.30 6.27 52.37 4.94 C 51.29 5.35 50.20 5.77 49.12 6.18 M 64.22 11.82 C 61.80 14.44 67.20 14.44 64.78 11.82 C 65.65 10.04 65.30 7.70 64.62 5.90 C 63.45 7.17 63.47 10.15 64.22 11.82 M 105.12 6.18 C 105.07 6.89 104.98 8.30 104.94 9.01 C 105.74 8.99 107.35 8.95 108.16 8.93 C 108.24 7.60 108.30 6.27 108.37 4.94 C 107.29 5.35 106.20 5.77 105.12 6.18 M 120.22 11.82 C 117.80 14.44 123.20 14.44 120.78 11.82 C 121.65 10.04 121.30 7.70 120.62 5.90 C 119.45 7.17 119.47 10.15 120.22 11.82 M 161.07 5.84 C 161.05 6.65 161.01 8.26 160.99 9.06 C 161.70 9.02 163.11 8.93 163.82 8.88 C 164.23 7.80 164.65 6.71 165.06 5.63 C 163.73 5.70 162.40 5.76 161.07 5.84 M 176.22 11.82 C 173.80 14.44 179.20 14.44 176.78 11.82 C 177.65 10.04 177.30 7.70 176.62 5.90 C 175.45 7.17 175.46 10.15 176.22 11.82 M 217.07 5.84 C 217.05 6.65 217.01 8.26 216.99 9.06 C 217.70 9.02 219.11 8.93 219.82 8.88 C 220.23 7.80 220.64 6.71 221.06 5.63 C 219.73 5.70 218.40 5.76 217.07 5.84 M 3.50 8.08 C 4.13 10.57 4.80 13.04 5.57 15.48 C 5.80 12.99 6.00 10.49 6.18 7.99 C 5.51 8.02 4.17 8.06 3.50 8.08 M 59.50 8.08 C 60.13 10.57 60.80 13.04 61.57 15.48 C 61.80 12.99 62.00 10.49 62.18 7.99 C 61.51 8.02 60.17 8.06 59.50 8.08 M 115.50 8.08 C 116.12 10.57 116.80 13.04 117.57 15.48 C 117.80 12.99 118.00 10.49 118.18 7.99 C 117.51 8.02 116.17 8.06 115.50 8.08 M 171.50 8.08 C 172.12 10.57 172.80 13.04 173.57 15.48 C 173.80 12.99 174.00 10.49 174.18 7.99 C 173.51 8.02 172.17 8.06 171.50 8.08 Z" />
</g>
<g id="#565249ff">
<path fill="#565249" opacity="1.00" d=" M 32.17 3.39 C 32.64 2.07 33.55 1.50 34.88 1.67 C 34.59 3.02 33.68 3.60 32.17 3.39 Z" />
<path fill="#565249" opacity="1.00" d=" M 40.91 1.92 C 42.40 1.37 43.40 1.78 43.89 3.14 C 42.61 3.43 41.62 3.02 40.91 1.92 Z" />
<path fill="#565249" opacity="1.00" d=" M 44.78 3.10 C 47.93 2.83 51.09 3.16 54.12 4.05 C 51.02 3.59 47.90 3.34 44.78 3.10 Z" />
<path fill="#565249" opacity="1.00" d=" M 88.16 3.36 C 88.64 2.06 89.55 1.49 90.89 1.67 C 90.58 3.03 89.67 3.59 88.16 3.36 Z" />
<path fill="#565249" opacity="1.00" d=" M 96.91 1.92 C 98.40 1.37 99.40 1.78 99.89 3.14 C 98.61 3.43 97.62 3.02 96.91 1.92 Z" />
<path fill="#565249" opacity="1.00" d=" M 100.78 3.10 C 103.93 2.83 107.09 3.16 110.12 4.05 C 107.02 3.59 103.89 3.34 100.78 3.10 Z" />
<path fill="#565249" opacity="1.00" d=" M 144.16 3.36 C 144.64 2.06 145.55 1.49 146.89 1.67 C 146.58 3.03 145.67 3.59 144.16 3.36 Z" />
<path fill="#565249" opacity="1.00" d=" M 152.91 1.92 C 154.40 1.37 155.40 1.78 155.89 3.14 C 154.61 3.43 153.62 3.02 152.91 1.92 Z" />
<path fill="#565249" opacity="1.00" d=" M 156.78 3.10 C 159.93 2.83 163.09 3.16 166.12 4.05 C 163.02 3.59 159.89 3.34 156.78 3.10 Z" />
<path fill="#565249" opacity="1.00" d=" M 200.13 3.39 C 200.65 2.12 201.57 1.57 202.90 1.73 C 202.58 3.11 201.66 3.66 200.13 3.39 Z" />
<path fill="#565249" opacity="1.00" d=" M 209.22 1.64 C 210.64 1.39 211.46 1.94 211.68 3.28 C 210.25 3.53 209.44 2.98 209.22 1.64 Z" />
<path fill="#565249" opacity="1.00" d=" M 212.68 3.23 C 215.87 2.98 219.08 3.02 222.25 3.54 C 219.07 3.33 215.85 3.28 212.68 3.23 Z" />
<path fill="#565249" opacity="1.00" d=" M 31.89 10.29 C 32.44 8.07 32.99 5.85 33.59 3.64 C 33.64 5.22 33.69 6.80 33.72 8.38 C 33.26 8.86 32.35 9.82 31.89 10.29 Z" />
<path fill="#565249" opacity="1.00" d=" M 87.97 10.25 C 88.52 8.05 89.03 5.85 89.60 3.65 C 89.64 5.23 89.69 6.81 89.72 8.40 C 89.29 8.86 88.41 9.79 87.97 10.25 Z" />
<path fill="#565249" opacity="1.00" d=" M 143.57 10.10 C 144.12 7.90 144.82 5.75 145.53 3.60 C 145.62 5.21 145.71 6.83 145.79 8.44 C 145.23 8.86 144.12 9.68 143.57 10.10 Z" />
<path fill="#565249" opacity="1.00" d=" M 199.97 10.25 C 200.52 8.05 201.03 5.85 201.60 3.65 C 201.64 5.23 201.69 6.81 201.72 8.40 C 201.29 8.86 200.41 9.79 199.97 10.25 Z" />
<path fill="#565249" opacity="1.00" d=" M 49.12 6.18 C 50.20 5.77 51.29 5.35 52.37 4.94 C 52.30 6.27 52.24 7.60 52.16 8.93 C 51.35 8.95 49.74 8.99 48.94 9.01 C 48.98 8.30 49.07 6.89 49.12 6.18 Z" />
<path fill="#565249" opacity="1.00" d=" M 105.12 6.18 C 106.20 5.77 107.29 5.35 108.37 4.94 C 108.30 6.27 108.24 7.60 108.16 8.93 C 107.35 8.95 105.74 8.99 104.94 9.01 C 104.98 8.30 105.07 6.89 105.12 6.18 Z" />
<path fill="#565249" opacity="1.00" d=" M 161.07 5.84 C 162.40 5.76 163.73 5.70 165.06 5.63 C 164.65 6.71 164.23 7.80 163.82 8.88 C 163.11 8.93 161.70 9.02 160.99 9.06 C 161.01 8.26 161.05 6.65 161.07 5.84 Z" />
<path fill="#565249" opacity="1.00" d=" M 217.07 5.84 C 218.40 5.76 219.73 5.70 221.06 5.63 C 220.64 6.71 220.23 7.80 219.82 8.88 C 219.11 8.93 217.70 9.02 216.99 9.06 C 217.01 8.26 217.05 6.65 217.07 5.84 Z" />
<path fill="#565249" opacity="1.00" d=" M 26.22 20.05 C 25.14 18.46 26.20 16.66 27.08 15.28 C 27.29 16.83 27.67 18.52 26.85 19.97 L 26.22 20.05 Z" />
<path fill="#565249" opacity="1.00" d=" M 103.58 15.66 L 104.49 15.71 C 104.81 16.09 105.44 16.86 105.75 17.24 C 105.19 17.23 104.06 17.21 103.49 17.20 C 103.51 16.81 103.55 16.04 103.58 15.66 Z" />
<path fill="#565249" opacity="1.00" d=" M 215.55 15.63 L 216.46 15.66 C 216.79 16.03 217.45 16.76 217.78 17.13 C 217.21 17.14 216.08 17.16 215.51 17.17 C 215.52 16.78 215.54 16.02 215.55 15.63 Z" />
</g>
<g id="#5a5347ff">
<path fill="#5a5347" opacity="1.00" d=" M 12.64 4.52 C 12.79 3.96 13.08 2.83 13.22 2.27 C 15.55 3.14 17.93 3.82 20.27 4.62 C 21.07 5.01 21.86 5.43 22.64 5.86 C 19.27 5.77 15.95 5.15 12.64 4.52 Z" />
<path fill="#5a5347" opacity="1.00" d=" M 68.74 4.46 C 68.84 3.94 69.05 2.91 69.15 2.39 C 71.59 3.21 74.09 3.86 76.55 4.62 C 77.14 5.11 77.74 5.60 78.34 6.09 C 75.10 5.82 71.91 5.16 68.74 4.46 Z" />
<path fill="#5a5347" opacity="1.00" d=" M 124.74 4.46 C 124.84 3.94 125.05 2.91 125.15 2.39 C 127.59 3.21 130.09 3.86 132.55 4.62 C 133.14 5.11 133.74 5.60 134.34 6.09 C 131.10 5.82 127.91 5.16 124.74 4.46 Z" />
<path fill="#5a5347" opacity="1.00" d=" M 180.74 4.46 C 180.84 3.94 181.05 2.91 181.15 2.39 C 183.59 3.21 186.09 3.86 188.55 4.62 C 189.14 5.11 189.74 5.60 190.34 6.10 C 187.10 5.82 183.91 5.16 180.74 4.46 Z" />
</g>
<g id="#77694cfe">
<path fill="#77694c" opacity="1.00" d=" M 8.22 11.82 C 7.47 10.15 7.45 7.17 8.62 5.90 C 9.30 7.70 9.65 10.04 8.78 11.82 L 8.22 11.82 Z" />
<path fill="#77694c" opacity="1.00" d=" M 64.22 11.82 C 63.47 10.15 63.45 7.17 64.62 5.90 C 65.30 7.70 65.65 10.04 64.78 11.82 L 64.22 11.82 Z" />
<path fill="#77694c" opacity="1.00" d=" M 120.22 11.82 C 119.47 10.15 119.45 7.17 120.62 5.90 C 121.30 7.70 121.65 10.04 120.78 11.82 L 120.22 11.82 Z" />
<path fill="#77694c" opacity="1.00" d=" M 176.22 11.82 C 175.46 10.15 175.45 7.17 176.62 5.90 C 177.30 7.70 177.65 10.04 176.78 11.82 L 176.22 11.82 Z" />
</g>
<g id="#72624dff">
<path fill="#72624d" opacity="1.00" d=" M 33.72 8.38 C 35.77 6.23 38.62 6.61 41.22 7.12 C 41.21 8.44 41.19 9.76 41.20 11.08 C 39.25 10.51 37.59 11.90 36.18 13.05 C 35.75 13.34 34.87 13.93 34.43 14.23 C 33.42 13.51 32.42 12.80 31.42 12.08 C 31.54 11.63 31.77 10.74 31.89 10.29 C 32.35 9.82 33.26 8.86 33.72 8.38 Z" />
<path fill="#72624d" opacity="1.00" d=" M 89.72 8.40 C 91.74 6.24 94.60 6.60 97.19 7.12 C 97.17 8.44 97.15 9.77 97.16 11.09 C 95.20 10.50 93.53 11.90 92.16 13.08 C 91.63 13.46 90.57 14.22 90.04 14.60 C 89.23 13.62 88.39 12.67 87.56 11.71 C 87.67 11.34 87.87 10.62 87.97 10.25 C 88.41 9.79 89.29 8.86 89.72 8.40 Z" />
<path fill="#72624d" opacity="1.00" d=" M 201.72 8.40 C 203.74 6.24 206.60 6.60 209.18 7.12 C 209.17 8.44 209.15 9.77 209.16 11.09 C 207.20 10.50 205.53 11.90 204.16 13.08 C 203.63 13.46 202.57 14.22 202.04 14.60 C 201.23 13.62 200.39 12.67 199.56 11.71 C 199.67 11.34 199.87 10.62 199.97 10.25 C 200.41 9.79 201.29 8.86 201.72 8.40 Z" />
<path fill="#72624d" opacity="1.00" d=" M 135.11 12.09 C 136.73 12.44 138.35 12.80 139.98 13.15 C 139.61 14.76 139.26 16.38 138.92 18.00 C 138.22 18.03 136.83 18.10 136.14 18.13 C 135.82 16.11 135.47 14.10 135.11 12.09 Z" />
</g>
<g id="#6d614fff">
<path fill="#6d614f" opacity="1.00" d=" M 145.79 8.44 C 147.27 7.45 148.88 5.82 150.83 6.64 C 152.93 6.97 152.72 9.58 153.03 11.15 C 151.35 10.85 149.61 11.44 148.57 12.81 C 148.11 13.29 147.17 14.24 146.70 14.72 C 147.57 15.88 148.44 17.05 149.31 18.21 C 148.78 18.47 147.70 18.99 147.16 19.25 C 146.42 18.47 145.69 17.70 144.95 16.92 C 144.24 14.71 143.71 12.42 143.57 10.10 C 144.12 9.68 145.23 8.86 145.79 8.44 Z" />
</g>
<g id="#5d5649ff">
<path fill="#5d5649" opacity="1.00" d=" M 12.24 6.41 C 15.53 9.32 19.89 8.62 23.88 9.14 C 25.79 8.46 27.71 7.77 29.63 7.09 C 29.49 7.51 29.21 8.35 29.07 8.77 C 27.25 9.94 25.34 10.97 23.45 12.02 C 23.65 14.76 23.72 17.51 23.59 20.26 C 22.53 20.01 21.46 19.77 20.40 19.53 C 20.22 17.45 20.03 15.36 19.82 13.28 C 17.68 15.15 15.68 17.17 13.80 19.29 C 13.32 19.17 12.36 18.92 11.88 18.80 C 10.87 14.69 11.38 10.50 12.24 6.41 M 18.14 11.39 C 17.05 11.05 15.53 11.27 14.91 12.33 C 14.99 14.45 20.04 13.06 18.14 11.39 Z" />
<path fill="#5d5649" opacity="1.00" d=" M 68.29 6.42 C 71.56 9.34 75.92 8.61 79.89 9.16 C 81.75 8.46 83.61 7.76 85.47 7.07 C 85.35 7.49 85.11 8.34 85.00 8.77 C 83.13 9.97 81.17 11.01 79.22 12.07 C 79.58 14.42 79.92 16.78 80.18 19.15 L 79.30 19.10 C 78.30 19.03 77.29 18.95 76.28 18.86 C 76.17 17.07 76.03 15.29 75.89 13.51 C 73.91 15.05 71.98 16.64 70.10 18.30 C 69.79 18.27 69.16 18.20 68.85 18.17 C 65.98 14.77 67.23 10.28 68.29 6.42 M 74.14 11.39 C 73.05 11.05 71.53 11.27 70.91 12.33 C 70.99 14.45 76.04 13.06 74.14 11.39 Z" />
<path fill="#5d5649" opacity="1.00" d=" M 180.29 6.42 C 183.56 9.34 187.92 8.61 191.90 9.15 C 193.75 8.46 195.61 7.76 197.47 7.07 C 197.35 7.49 197.11 8.34 197.00 8.77 C 195.13 9.97 193.17 11.01 191.22 12.07 C 191.58 14.42 191.92 16.78 192.18 19.15 L 191.30 19.10 C 190.29 19.03 189.29 18.95 188.28 18.86 C 188.17 17.07 188.03 15.29 187.89 13.51 C 185.91 15.05 183.97 16.64 182.10 18.31 C 181.79 18.27 181.17 18.21 180.85 18.18 C 177.98 14.77 179.23 10.29 180.29 6.42 M 186.14 11.39 C 185.05 11.05 183.52 11.27 182.91 12.33 C 182.99 14.45 188.04 13.06 186.14 11.39 Z" />
</g>
<g id="#63594aff">
<path fill="#63594a" opacity="1.00" d=" M 44.16 5.34 C 45.83 6.94 47.46 8.57 49.04 10.27 C 50.56 10.35 52.08 10.44 53.60 10.53 C 53.96 11.32 54.32 12.11 54.68 12.90 C 54.05 13.03 52.80 13.28 52.18 13.41 C 50.33 12.73 46.11 13.37 48.43 15.97 C 48.77 16.47 49.45 17.48 49.79 17.98 C 49.42 17.84 48.68 17.57 48.31 17.43 C 46.55 16.14 44.88 14.74 43.18 13.38 C 44.21 12.80 45.26 12.23 46.30 11.65 C 45.54 9.56 44.82 7.46 44.16 5.34 Z" />
</g>
<g id="#665b4bff">
<path fill="#665b4b" opacity="1.00" d=" M 100.15 5.35 C 101.83 6.94 103.46 8.57 105.04 10.27 C 106.55 10.35 108.07 10.43 109.59 10.51 C 109.95 11.33 110.32 12.14 110.68 12.96 C 110.10 13.05 108.93 13.23 108.35 13.32 C 106.48 13.22 103.85 13.02 103.08 15.22 C 101.78 14.53 100.46 13.91 99.14 13.28 C 100.20 12.75 101.26 12.22 102.32 11.70 C 101.56 9.60 100.83 7.48 100.15 5.35 Z" />
<path fill="#665b4b" opacity="1.00" d=" M 156.16 5.34 C 157.84 6.93 159.46 8.58 161.03 10.27 C 162.56 10.35 164.08 10.43 165.60 10.52 C 165.95 11.32 166.30 12.12 166.66 12.91 C 166.09 13.04 164.95 13.28 164.38 13.40 C 162.31 13.24 159.85 13.42 158.69 15.43 L 157.66 15.08 C 156.68 14.71 155.71 14.34 154.75 13.95 C 155.91 13.15 157.08 12.36 158.25 11.56 C 157.51 9.51 156.81 7.43 156.16 5.34 Z" />
<path fill="#665b4b" opacity="1.00" d=" M 212.09 5.43 C 213.74 6.83 215.35 8.28 216.93 9.76 C 219.11 10.50 221.30 11.27 223.42 12.20 C 222.65 12.50 221.12 13.09 220.35 13.39 C 218.48 13.21 215.81 12.96 215.05 15.19 C 213.76 14.52 212.44 13.90 211.14 13.28 C 212.20 12.75 213.27 12.22 214.35 11.69 C 213.56 9.62 212.81 7.53 212.09 5.43 Z" />
</g>
<g id="#5e5749ff">
<path fill="#5e5749" opacity="1.00" d=" M 124.31 6.43 C 127.57 9.36 131.93 8.60 135.89 9.15 C 137.77 8.47 139.63 7.76 141.51 7.07 C 141.39 7.50 141.15 8.35 141.03 8.78 C 139.11 9.99 137.11 11.03 135.11 12.09 C 135.47 14.10 135.82 16.11 136.14 18.13 L 135.29 18.08 C 134.22 17.99 133.16 17.90 132.09 17.79 C 132.01 16.77 131.83 14.74 131.74 13.73 C 129.92 14.97 128.09 16.21 126.29 17.48 C 125.90 17.46 125.10 17.42 124.71 17.41 C 121.62 14.37 123.62 9.99 124.31 6.43 M 130.14 11.39 C 129.05 11.05 127.52 11.27 126.91 12.33 C 126.99 14.45 132.04 13.06 130.14 11.39 Z" />
</g>
<g id="#60574aff">
<path fill="#60574a" opacity="1.00" d=" M 3.50 8.08 C 4.17 8.06 5.51 8.02 6.18 7.99 C 6.00 10.49 5.80 12.99 5.57 15.48 C 4.80 13.04 4.13 10.57 3.50 8.08 Z" />
<path fill="#60574a" opacity="1.00" d=" M 59.50 8.08 C 60.17 8.06 61.51 8.02 62.18 7.99 C 62.00 10.49 61.80 12.99 61.57 15.48 C 60.80 13.04 60.13 10.57 59.50 8.08 Z" />
<path fill="#60574a" opacity="1.00" d=" M 115.50 8.08 C 116.17 8.06 117.51 8.02 118.18 7.99 C 118.00 10.49 117.80 12.99 117.57 15.48 C 116.80 13.04 116.12 10.57 115.50 8.08 Z" />
<path fill="#60574a" opacity="1.00" d=" M 171.50 8.08 C 172.17 8.06 173.51 8.02 174.18 7.99 C 174.00 10.49 173.80 12.99 173.57 15.48 C 172.80 13.04 172.12 10.57 171.50 8.08 Z" />
<path fill="#60574a" opacity="1.00" d=" M 8.22 11.82 L 8.78 11.82 C 11.20 14.44 5.80 14.44 8.22 11.82 Z" />
<path fill="#60574a" opacity="1.00" d=" M 64.22 11.82 L 64.78 11.82 C 67.20 14.44 61.80 14.44 64.22 11.82 Z" />
<path fill="#60574a" opacity="1.00" d=" M 120.22 11.82 L 120.78 11.82 C 123.20 14.44 117.80 14.44 120.22 11.82 Z" />
<path fill="#60574a" opacity="1.00" d=" M 176.22 11.82 L 176.78 11.82 C 179.20 14.44 173.80 14.44 176.22 11.82 Z" />
</g>
<g id="#92824dff">
<path fill="#92824d" opacity="1.00" d=" M 23.45 12.02 C 25.34 10.97 27.25 9.94 29.07 8.77 C 28.61 10.23 28.17 11.70 27.73 13.16 C 26.30 12.78 24.87 12.40 23.45 12.02 Z" />
<path fill="#92824d" opacity="1.00" d=" M 79.22 12.07 C 81.17 11.01 83.13 9.97 85.00 8.77 C 84.64 10.23 84.31 11.70 84.00 13.17 C 82.40 12.80 80.81 12.44 79.22 12.07 Z" />
<path fill="#92824d" opacity="1.00" d=" M 135.11 12.09 C 137.11 11.03 139.11 9.99 141.03 8.78 C 140.65 10.23 140.31 11.69 139.98 13.15 C 138.35 12.80 136.73 12.44 135.11 12.09 Z" />
<path fill="#92824d" opacity="1.00" d=" M 191.22 12.07 C 193.17 11.01 195.13 9.97 197.00 8.77 C 196.64 10.23 196.31 11.70 196.00 13.17 C 194.40 12.80 192.81 12.44 191.22 12.07 Z" />
</g>
<g id="#332e2aff">
<path fill="#332e2a" opacity="1.00" d=" M 18.14 11.39 C 20.04 13.06 14.99 14.45 14.91 12.33 C 15.53 11.27 17.05 11.05 18.14 11.39 Z" />
<path fill="#332e2a" opacity="1.00" d=" M 74.14 11.39 C 76.04 13.06 70.99 14.45 70.91 12.33 C 71.53 11.27 73.05 11.05 74.14 11.39 Z" />
<path fill="#332e2a" opacity="1.00" d=" M 130.14 11.39 C 132.04 13.06 126.99 14.45 126.91 12.33 C 127.52 11.27 129.05 11.05 130.14 11.39 Z" />
<path fill="#332e2a" opacity="1.00" d=" M 186.14 11.39 C 188.04 13.06 182.99 14.45 182.91 12.33 C 183.52 11.27 185.05 11.05 186.14 11.39 Z" />
<path fill="#332e2a" opacity="1.00" d=" M 34.43 14.23 C 34.87 13.93 35.75 13.34 36.18 13.05 L 36.81 13.08 C 36.86 14.92 36.90 16.76 36.95 18.60 C 37.06 19.00 37.29 19.78 37.40 20.18 C 36.38 18.21 35.40 16.22 34.43 14.23 Z" />
<path fill="#332e2a" opacity="1.00" d=" M 90.04 14.60 C 90.57 14.22 91.63 13.46 92.16 13.08 L 92.78 13.10 C 92.94 15.11 93.11 17.11 93.30 19.11 C 92.24 17.59 91.18 16.07 90.04 14.60 Z" />
<path fill="#332e2a" opacity="1.00" d=" M 146.70 14.72 C 147.17 14.24 148.11 13.29 148.57 12.81 L 148.65 13.26 C 148.91 14.91 149.11 16.56 149.31 18.21 C 148.44 17.05 147.57 15.88 146.70 14.72 Z" />
<path fill="#332e2a" opacity="1.00" d=" M 202.04 14.60 C 202.57 14.22 203.63 13.46 204.16 13.08 L 204.78 13.10 C 204.94 15.11 205.11 17.11 205.30 19.11 C 204.24 17.59 203.18 16.07 202.04 14.60 Z" />
<path fill="#332e2a" opacity="1.00" d=" M 70.10 18.30 C 71.98 16.64 73.91 15.05 75.89 13.51 C 76.03 15.29 76.17 17.07 76.28 18.86 C 75.14 18.77 74.00 18.68 72.86 18.58 C 72.17 18.51 70.79 18.37 70.10 18.30 Z" />
<path fill="#332e2a" opacity="1.00" d=" M 182.10 18.31 C 183.97 16.64 185.91 15.05 187.89 13.51 C 188.03 15.29 188.17 17.07 188.28 18.86 C 187.14 18.77 186.00 18.68 184.86 18.58 C 184.17 18.51 182.79 18.38 182.10 18.31 Z" />
<path fill="#332e2a" opacity="1.00" d=" M 30.62 16.58 C 32.05 14.01 34.31 16.89 32.84 18.72 C 32.04 18.07 31.30 17.36 30.62 16.58 Z" />
<path fill="#332e2a" opacity="1.00" d=" M 86.56 15.83 C 87.68 13.90 89.53 16.13 89.63 17.55 C 88.38 17.34 87.36 16.76 86.56 15.83 Z" />
<path fill="#332e2a" opacity="1.00" d=" M 198.56 15.83 C 199.68 13.90 201.53 16.13 201.63 17.55 C 200.38 17.34 199.35 16.76 198.56 15.83 Z" />
<path fill="#332e2a" opacity="1.00" d=" M 38.80 17.90 C 38.91 15.76 41.93 16.36 40.47 18.27 L 39.47 18.51 L 38.80 17.90 Z" />
<path fill="#332e2a" opacity="1.00" d=" M 45.90 54.00 C 48.69 52.17 51.97 51.40 55.19 50.70 L 56.01 50.69 C 53.20 52.42 50.45 54.23 47.66 56.00 L 43.85 56.00 C 44.37 55.50 45.39 54.50 45.90 54.00 Z" />
<path fill="#332e2a" opacity="1.00" d=" M 102.97 51.82 C 105.83 51.56 108.65 51.05 111.52 50.74 L 112.18 50.99 C 109.29 52.60 106.46 54.29 103.63 56.00 L 101.00 56.00 L 100.95 55.62 C 102.03 54.54 102.70 53.28 102.97 51.82 Z" />
<path fill="#332e2a" opacity="1.00" d=" M 157.85 53.15 C 160.97 52.28 164.11 51.51 167.32 51.01 L 168.09 50.94 C 165.16 52.50 162.35 54.24 159.55 56.00 L 156.64 56.00 C 156.94 55.29 157.55 53.86 157.85 53.15 Z" />
<path fill="#332e2a" opacity="1.00" d=" M 214.97 52.18 C 218.02 51.84 220.99 51.14 224.00 50.54 L 224.00 51.08 C 221.23 52.72 218.49 54.37 215.72 56.00 L 212.89 56.00 L 212.88 55.53 C 213.92 54.61 214.62 53.49 214.97 52.18 Z" />
</g>
<g id="#907e4efe">
<path fill="#907e4e" opacity="1.00" d=" M 36.18 13.05 C 37.59 11.90 39.25 10.51 41.20 11.08 C 41.20 11.42 41.21 12.09 41.21 12.43 C 39.83 13.08 38.36 13.30 36.81 13.08 L 36.18 13.05 Z" />
<path fill="#907e4e" opacity="1.00" d=" M 92.16 13.08 C 93.53 11.90 95.20 10.50 97.16 11.09 C 97.16 11.43 97.17 12.09 97.18 12.42 C 95.79 13.07 94.33 13.30 92.78 13.10 L 92.16 13.08 Z" />
<path fill="#907e4e" opacity="1.00" d=" M 148.57 12.81 C 149.61 11.44 151.35 10.85 153.03 11.15 C 153.06 11.46 153.13 12.08 153.16 12.39 C 151.74 13.11 150.24 13.40 148.65 13.26 L 148.57 12.81 Z" />
<path fill="#907e4e" opacity="1.00" d=" M 204.16 13.08 C 205.53 11.90 207.20 10.50 209.16 11.09 C 209.16 11.43 209.18 12.09 209.18 12.42 C 207.79 13.07 206.33 13.30 204.78 13.10 L 204.16 13.08 Z" />
<path fill="#907e4e" opacity="1.00" d=" M 48.43 15.97 C 46.11 13.37 50.33 12.73 52.18 13.41 C 51.02 14.38 49.91 15.50 48.43 15.97 Z" />
<path fill="#907e4e" opacity="1.00" d=" M 103.08 15.22 C 103.85 13.02 106.48 13.22 108.35 13.32 C 107.16 14.26 105.97 15.26 104.49 15.71 L 103.58 15.66 L 103.08 15.22 Z" />
<path fill="#907e4e" opacity="1.00" d=" M 158.69 15.43 C 159.85 13.42 162.31 13.24 164.38 13.40 C 162.93 14.96 160.86 16.11 158.69 15.43 Z" />
<path fill="#907e4e" opacity="1.00" d=" M 215.05 15.19 C 215.81 12.96 218.48 13.21 220.35 13.39 C 219.14 14.28 217.93 15.23 216.46 15.66 L 215.55 15.63 L 215.05 15.19 Z" />
</g>
<g id="#76644eff">
<path fill="#76644e" opacity="1.00" d=" M 23.45 12.02 C 24.87 12.40 26.30 12.78 27.73 13.16 C 27.56 13.69 27.24 14.75 27.08 15.28 C 26.20 16.66 25.14 18.46 26.22 20.05 C 25.56 20.10 24.25 20.21 23.59 20.26 C 23.72 17.51 23.65 14.76 23.45 12.02 Z" />
</g>
<g id="#5a5851ff">
<path fill="#5a5851" opacity="1.00" d=" M 30.14 17.22 C 30.60 15.51 30.99 13.79 31.42 12.08 C 32.42 12.80 33.42 13.51 34.43 14.23 C 35.40 16.22 36.38 18.21 37.40 20.18 C 36.89 20.40 35.86 20.86 35.35 21.08 C 34.53 20.28 33.69 19.49 32.84 18.72 C 34.31 16.89 32.05 14.01 30.62 16.58 L 30.14 17.22 Z" />
</g>
<g id="#71614dff">
<path fill="#71614d" opacity="1.00" d=" M 79.22 12.07 C 80.81 12.44 82.40 12.80 84.00 13.17 C 83.59 15.12 83.23 17.07 82.87 19.03 C 82.20 19.06 80.85 19.12 80.18 19.15 C 79.92 16.78 79.58 14.42 79.22 12.07 Z" />
<path fill="#71614d" opacity="1.00" d=" M 191.22 12.07 C 192.81 12.44 194.40 12.80 196.00 13.17 C 195.59 15.12 195.23 17.07 194.87 19.03 C 194.20 19.06 192.85 19.12 192.18 19.15 C 191.92 16.78 191.58 14.42 191.22 12.07 Z" />
</g>
<g id="#5b5a53ff">
<path fill="#5b5a53" opacity="1.00" d=" M 86.19 16.32 C 86.69 14.80 87.12 13.25 87.56 11.71 C 88.39 12.67 89.23 13.62 90.04 14.60 C 91.18 16.07 92.24 17.59 93.30 19.11 C 92.69 19.45 91.47 20.12 90.86 20.46 C 90.47 19.48 90.06 18.51 89.63 17.55 C 89.53 16.13 87.68 13.90 86.56 15.83 L 86.19 16.32 Z" />
<path fill="#5b5a53" opacity="1.00" d=" M 198.19 16.32 C 198.69 14.80 199.12 13.25 199.56 11.71 C 200.39 12.67 201.23 13.62 202.04 14.60 C 203.18 16.07 204.24 17.59 205.30 19.11 C 204.69 19.44 203.47 20.12 202.87 20.46 C 202.47 19.48 202.06 18.51 201.63 17.55 C 201.53 16.13 199.68 13.90 198.56 15.83 L 198.19 16.32 Z" />
</g>
<g id="#565148ff">
<path fill="#565148" opacity="1.00" d=" M 36.81 13.08 C 38.36 13.30 39.83 13.08 41.21 12.43 C 41.28 14.52 41.38 16.61 41.64 18.69 L 40.47 18.27 C 41.93 16.36 38.91 15.76 38.80 17.90 C 38.34 18.07 37.41 18.43 36.95 18.60 C 36.90 16.76 36.86 14.92 36.81 13.08 Z" />
</g>
<g id="#505251ff">
<path fill="#505251" opacity="1.00" d=" M 92.78 13.10 C 94.33 13.30 95.79 13.07 97.18 12.42 C 97.37 14.23 97.65 16.03 97.99 17.81 C 97.26 17.91 95.78 18.10 95.05 18.20 C 94.61 18.42 93.74 18.88 93.30 19.11 C 93.11 17.11 92.94 15.11 92.78 13.10 Z" />
<path fill="#505251" opacity="1.00" d=" M 204.78 13.10 C 206.33 13.30 207.79 13.07 209.18 12.42 C 209.37 14.23 209.65 16.03 209.99 17.81 C 209.25 17.91 207.78 18.10 207.05 18.20 C 206.61 18.43 205.74 18.88 205.30 19.11 C 205.11 17.11 204.94 15.11 204.78 13.10 Z" />
</g>
<g id="#515455ff">
<path fill="#515455" opacity="1.00" d=" M 148.65 13.26 C 150.24 13.40 151.74 13.11 153.16 12.39 C 153.40 13.89 153.71 15.37 154.09 16.84 C 153.35 16.96 151.86 17.21 151.12 17.33 C 150.67 17.55 149.77 17.99 149.31 18.21 C 149.11 16.56 148.91 14.91 148.65 13.26 Z" />
</g>
<g id="#322e2aff">
<path fill="#322e2a" opacity="1.00" d=" M 13.80 19.29 C 15.68 17.17 17.68 15.15 19.82 13.28 C 20.03 15.36 20.22 17.45 20.40 19.53 C 19.21 19.59 18.03 19.64 16.84 19.67 C 16.08 19.57 14.56 19.39 13.80 19.29 Z" />
</g>
<g id="#332e2afe">
<path fill="#332e2a" opacity="1.00" d=" M 126.29 17.48 C 128.09 16.21 129.92 14.97 131.74 13.73 C 131.83 14.74 132.01 16.77 132.09 17.79 C 131.01 17.74 129.92 17.69 128.84 17.63 C 128.20 17.59 126.93 17.52 126.29 17.48 Z" />
</g>
<g id="#4479caff">
<path fill="#4479ca" opacity="1.00" d=" M 140.46 17.34 C 141.36 16.61 142.23 15.84 143.11 15.09 C 143.72 15.70 144.34 16.31 144.95 16.92 C 145.69 17.70 146.42 18.47 147.16 19.25 C 146.82 19.41 146.14 19.74 145.80 19.91 C 148.44 19.80 151.15 19.83 153.80 19.57 C 153.78 20.28 153.74 21.70 153.72 22.40 C 149.80 25.67 144.70 24.37 140.18 23.68 C 140.84 25.02 141.51 26.36 142.17 27.71 C 138.30 27.02 134.45 26.28 130.57 25.69 C 130.62 27.63 130.54 29.59 130.86 31.51 C 136.45 35.42 144.90 34.69 148.95 28.87 C 149.59 29.97 150.23 31.07 150.88 32.17 C 153.38 32.31 155.88 32.64 158.36 33.04 C 160.61 30.87 162.91 28.77 165.32 26.79 C 164.15 29.05 162.74 31.24 162.10 33.72 C 163.45 35.47 165.18 36.87 166.82 38.34 C 160.47 36.70 154.07 34.36 147.46 34.42 C 141.96 35.41 141.09 41.51 139.72 45.92 C 138.67 45.87 137.62 45.82 136.58 45.77 C 137.03 42.95 137.46 40.14 137.89 37.32 C 135.61 35.78 131.24 36.24 129.82 33.26 C 128.66 30.88 128.55 28.18 128.10 25.62 C 120.59 26.33 111.46 25.63 106.32 32.40 C 104.95 35.65 109.07 37.30 110.82 39.35 C 105.86 38.13 100.89 36.88 96.15 34.93 C 96.47 33.99 96.78 33.06 97.10 32.12 C 99.04 33.05 100.99 33.99 102.94 34.91 C 103.76 32.97 104.57 31.03 105.40 29.10 C 102.53 28.13 99.65 27.19 96.76 26.27 L 102.61 24.96 C 101.39 24.48 100.17 23.99 98.92 23.56 C 99.31 22.39 99.13 21.31 98.39 20.32 C 99.42 20.02 100.45 19.72 101.48 19.42 L 102.36 19.30 C 101.46 19.72 100.57 20.13 99.68 20.56 C 106.44 20.61 113.05 22.00 119.75 22.60 C 116.93 20.73 114.02 18.96 110.91 17.61 L 111.53 17.05 C 114.25 17.79 116.94 18.58 119.63 19.43 L 119.90 20.26 C 120.13 21.06 120.35 21.85 120.56 22.66 C 120.38 25.10 123.82 24.66 122.95 22.35 C 130.26 22.58 137.64 22.45 144.72 20.41 C 144.66 19.68 144.59 18.95 144.53 18.21 C 143.17 17.92 141.82 17.62 140.46 17.34 Z" />
</g>
<g id="#3a7dcfff">
<path fill="#3a7dcf" opacity="1.00" d=" M 154.30 17.60 C 154.15 16.28 154.78 15.55 156.19 15.40 C 156.16 15.82 156.10 16.65 156.07 17.06 C 155.62 17.19 154.74 17.46 154.30 17.60 Z" />
<path fill="#3a7dcf" opacity="1.00" d=" M 98.15 18.59 C 97.93 17.21 98.52 16.51 99.92 16.48 C 99.90 16.89 99.86 17.71 99.84 18.12 C 99.42 18.24 98.57 18.47 98.15 18.59 Z" />
<path fill="#3a7dcf" opacity="1.00" d=" M 210.15 18.59 C 209.92 17.22 210.51 16.52 211.92 16.49 C 211.90 16.90 211.85 17.72 211.83 18.13 C 211.41 18.25 210.57 18.48 210.15 18.59 Z" />
<path fill="#3a7dcf" opacity="1.00" d=" M 41.99 19.48 C 41.90 18.16 42.55 17.50 43.92 17.49 C 43.89 17.90 43.83 18.71 43.80 19.11 C 43.35 19.21 42.44 19.39 41.99 19.48 Z" />
</g>
<g id="#8d9fbaff">
<path fill="#8d9fba" opacity="1.00" d=" M 156.19 15.40 C 156.56 15.32 157.29 15.16 157.66 15.08 C 158.22 15.89 158.61 16.78 158.84 17.75 L 158.31 18.08 L 157.56 18.26 C 157.18 17.96 156.44 17.36 156.07 17.06 C 156.10 16.65 156.16 15.82 156.19 15.40 Z" />
<path fill="#8d9fba" opacity="1.00" d=" M 99.92 16.48 C 100.28 16.51 100.99 16.57 101.34 16.61 C 102.07 17.29 102.60 18.10 102.94 19.04 L 102.36 19.30 L 101.48 19.42 C 101.07 19.10 100.25 18.45 99.84 18.12 C 99.86 17.71 99.90 16.89 99.92 16.48 Z" />
<path fill="#8d9fba" opacity="1.00" d=" M 211.92 16.49 C 212.27 16.51 212.98 16.57 213.33 16.60 C 214.06 17.27 214.59 18.07 214.94 19.00 L 214.36 19.28 L 213.49 19.42 C 213.08 19.10 212.25 18.45 211.83 18.13 C 211.85 17.72 211.90 16.90 211.92 16.49 Z" />
<path fill="#8d9fba" opacity="1.00" d=" M 43.92 17.49 C 44.28 17.47 44.98 17.43 45.33 17.41 C 46.03 18.13 46.54 18.97 46.88 19.92 L 46.32 20.20 L 45.46 20.33 C 45.05 20.03 44.22 19.42 43.80 19.11 C 43.83 18.71 43.89 17.90 43.92 17.49 Z" />
</g>
<g id="#3e84ceff">
<path fill="#3e84ce" opacity="1.00" d=" M 157.66 15.08 L 158.69 15.43 C 160.52 16.03 162.39 16.48 164.29 16.84 C 162.45 17.06 160.64 17.37 158.84 17.75 C 158.61 16.78 158.22 15.89 157.66 15.08 Z" />
<path fill="#3e84ce" opacity="1.00" d=" M 101.34 16.61 C 101.88 16.75 102.95 17.05 103.49 17.20 C 104.06 17.21 105.19 17.23 105.75 17.24 C 106.58 17.32 107.40 17.40 108.23 17.47 C 106.44 17.91 104.68 18.44 102.94 19.04 C 102.60 18.10 102.07 17.29 101.34 16.61 Z" />
<path fill="#3e84ce" opacity="1.00" d=" M 213.33 16.60 C 213.88 16.75 214.97 17.03 215.51 17.17 C 216.08 17.16 217.21 17.14 217.78 17.13 C 218.66 17.34 219.55 17.55 220.45 17.75 C 218.59 18.08 216.75 18.49 214.94 19.00 C 214.59 18.07 214.06 17.27 213.33 16.60 Z" />
<path fill="#3e84ce" opacity="1.00" d=" M 45.33 17.41 C 46.07 17.42 47.56 17.43 48.31 17.43 C 48.68 17.57 49.42 17.84 49.79 17.98 C 50.25 18.16 51.18 18.52 51.64 18.70 L 52.22 18.95 C 50.43 19.20 48.64 19.51 46.88 19.92 C 46.54 18.97 46.03 18.13 45.33 17.41 Z" />
</g>
<g id="#5d564aff">
<path fill="#5d564a" opacity="1.00" d=" M 2.60 17.33 C 4.78 16.90 6.95 16.45 9.12 15.98 C 9.70 17.24 10.30 18.48 10.91 19.72 C 10.30 20.09 9.07 20.83 8.45 21.20 C 8.32 20.76 8.06 19.88 7.93 19.44 C 8.35 17.43 5.20 15.97 5.41 18.68 C 4.47 18.23 3.53 17.78 2.60 17.33 Z" />
</g>
<g id="#625f57ff">
<path fill="#625f57" opacity="1.00" d=" M 59.98 16.83 C 61.93 16.52 63.88 16.22 65.83 15.93 C 65.92 17.27 66.02 18.62 66.12 19.96 C 65.66 20.27 64.74 20.87 64.28 21.18 L 64.18 20.26 L 64.09 19.32 C 64.53 17.81 62.33 16.50 61.71 18.28 C 61.28 17.92 60.41 17.19 59.98 16.83 Z" />
<path fill="#625f57" opacity="1.00" d=" M 171.97 16.84 C 173.92 16.53 175.87 16.22 177.83 15.93 C 177.92 17.27 178.01 18.61 178.11 19.95 C 177.65 20.25 176.74 20.84 176.28 21.13 L 176.19 20.17 L 176.10 19.29 C 176.54 17.77 174.31 16.50 173.72 18.27 C 173.28 17.92 172.41 17.20 171.97 16.84 Z" />
</g>
<g id="#4578c9ff">
<path fill="#4578c9" opacity="1.00" d=" M 86.19 16.32 L 86.56 15.83 C 87.36 16.76 88.38 17.34 89.63 17.55 C 90.06 18.51 90.47 19.48 90.86 20.46 C 90.61 20.62 90.10 20.94 89.84 21.10 C 92.48 20.88 95.17 20.81 97.80 20.46 C 97.78 21.15 97.73 22.52 97.70 23.21 C 91.26 25.87 84.56 27.87 77.50 27.74 C 76.85 29.00 75.54 31.52 74.88 32.78 C 78.71 33.36 82.53 34.73 86.44 34.40 C 89.73 34.29 90.29 30.50 91.47 28.14 C 91.59 28.15 91.81 28.18 91.93 28.19 C 92.60 30.18 93.33 32.14 94.10 34.09 C 88.60 35.62 84.93 40.00 83.27 45.26 C 82.68 42.30 82.10 39.33 81.53 36.36 C 79.18 36.15 76.83 35.92 74.48 35.70 C 74.00 32.71 73.54 29.73 73.01 26.76 C 72.93 25.32 72.04 24.08 70.81 23.37 C 76.85 23.52 82.87 23.02 88.71 21.43 C 88.66 20.67 88.60 19.91 88.55 19.15 C 87.21 18.94 85.87 18.73 84.54 18.53 C 85.10 17.81 85.65 17.07 86.19 16.32 Z" />
</g>
<g id="#73a5cbff">
<path fill="#73a5cb" opacity="1.00" d=" M 109.02 17.52 C 108.53 15.77 110.99 15.73 111.53 17.05 L 110.91 17.61 C 110.43 17.59 109.49 17.55 109.02 17.52 Z" />
</g>
<g id="#6b675bff">
<path fill="#6b675b" opacity="1.00" d=" M 118.20 15.78 C 119.37 15.96 120.54 16.13 121.70 16.30 C 121.83 16.95 122.08 18.25 122.21 18.90 C 121.63 19.24 120.47 19.92 119.90 20.26 L 119.63 19.43 C 119.18 18.20 118.69 16.99 118.20 15.78 Z" />
</g>
<g id="#508bc7ff">
<path fill="#508bc7" opacity="1.00" d=" M 165.11 16.96 C 165.63 15.42 167.83 15.54 168.04 17.21 C 167.31 17.14 165.84 17.02 165.11 16.96 Z" />
<path fill="#508bc7" opacity="1.00" d=" M 221.41 17.95 C 221.86 16.65 222.72 16.30 224.00 16.91 L 224.00 17.64 C 223.35 17.71 222.06 17.87 221.41 17.95 Z" />
</g>
<g id="#4377caff">
<path fill="#4377ca" opacity="1.00" d=" M 198.19 16.32 L 198.56 15.83 C 199.35 16.76 200.38 17.34 201.63 17.55 C 202.06 18.51 202.47 19.48 202.87 20.46 C 202.61 20.62 202.10 20.95 201.84 21.11 C 204.45 20.88 207.15 20.80 209.77 20.42 C 209.19 21.58 209.35 22.51 210.26 23.24 C 211.95 23.26 211.22 20.94 210.37 20.29 C 211.41 20.00 212.45 19.71 213.49 19.42 L 214.36 19.28 C 213.45 19.75 212.54 20.23 211.64 20.72 C 215.76 20.94 219.88 20.92 224.00 20.86 L 224.00 27.62 C 222.04 29.45 219.61 30.90 218.19 33.22 C 217.60 36.06 221.27 37.43 222.82 39.36 C 217.86 38.13 212.89 36.87 208.15 34.93 C 208.46 33.99 208.78 33.06 209.10 32.12 C 211.05 33.06 213.01 34.00 214.98 34.93 C 215.82 32.80 216.69 30.69 217.56 28.58 C 208.28 27.25 198.84 26.47 189.49 27.39 C 188.84 28.75 187.54 31.45 186.89 32.80 C 190.72 33.36 194.54 34.73 198.44 34.40 C 201.73 34.29 202.29 30.50 203.47 28.14 C 203.58 28.15 203.81 28.18 203.93 28.19 C 204.60 30.17 205.32 32.12 206.09 34.06 C 198.63 36.05 196.30 43.75 191.30 48.64 C 195.92 51.19 200.47 53.88 205.32 56.00 L 195.33 56.00 C 196.73 55.59 198.12 55.16 199.51 54.71 C 195.48 52.55 191.32 50.65 187.34 48.39 C 189.45 46.71 191.59 45.07 193.74 43.44 C 193.83 41.06 193.93 38.67 194.03 36.29 C 191.46 36.10 188.90 35.92 186.34 35.74 C 186.06 32.80 185.84 29.86 185.54 26.92 C 180.35 27.40 174.97 27.22 170.08 29.23 C 165.02 27.04 159.84 25.17 154.82 22.90 C 155.24 21.67 155.09 20.52 154.37 19.43 C 155.43 19.04 156.49 18.65 157.56 18.26 L 158.31 18.08 C 157.40 18.67 156.51 19.27 155.62 19.87 C 160.01 20.24 164.49 20.01 168.66 18.46 C 171.18 19.00 173.68 19.59 176.19 20.17 L 176.28 21.13 C 176.36 21.98 176.44 22.83 176.51 23.68 C 176.08 26.15 179.68 25.63 178.90 23.37 C 186.23 23.55 193.61 23.47 200.71 21.41 C 200.65 20.66 200.60 19.91 200.55 19.16 C 199.21 18.94 197.87 18.73 196.54 18.53 C 197.10 17.81 197.65 17.07 198.19 16.32 M 167.87 20.15 C 168.31 21.38 168.76 22.61 169.21 23.84 C 171.37 23.63 173.54 23.44 175.70 23.21 C 173.33 21.65 170.69 20.55 167.87 20.15 Z" />
</g>
<g id="#8a7c4cff">
<path fill="#8a7c4c" opacity="1.00" d=" M 5.41 18.68 C 5.20 15.97 8.35 17.43 7.93 19.44 C 7.30 19.25 6.04 18.87 5.41 18.68 Z" />
</g>
<g id="#4378c9ff">
<path fill="#4378c9" opacity="1.00" d=" M 30.14 17.22 L 30.62 16.58 C 31.30 17.36 32.04 18.07 32.84 18.72 C 33.69 19.49 34.53 20.28 35.35 21.08 C 34.94 21.29 34.13 21.70 33.73 21.90 C 36.39 21.75 39.10 21.77 41.76 21.45 C 41.19 22.60 41.35 23.53 42.26 24.24 C 43.95 24.27 43.24 21.95 42.37 21.31 C 43.40 20.98 44.43 20.66 45.46 20.33 L 46.32 20.20 C 45.44 20.65 44.56 21.11 43.69 21.57 C 50.46 21.60 57.08 23.04 63.80 23.54 C 60.78 21.59 57.59 19.85 54.17 18.72 C 54.45 18.45 55.00 17.91 55.28 17.63 C 58.26 18.49 61.21 19.40 64.18 20.26 L 64.28 21.18 C 64.36 22.01 64.43 22.84 64.50 23.67 C 64.08 26.14 67.69 25.65 66.90 23.38 C 68.00 23.40 69.11 23.40 70.21 23.38 C 70.06 24.71 70.48 25.82 71.47 26.72 C 63.73 25.23 55.44 27.06 50.33 33.42 C 48.95 36.66 53.07 38.31 54.82 40.35 C 49.86 39.13 44.89 37.88 40.15 35.93 C 40.46 35.00 40.77 34.07 41.08 33.15 C 43.30 34.18 45.52 35.19 47.76 36.18 C 47.99 33.37 47.93 30.54 47.29 27.80 C 47.88 27.57 48.47 27.35 49.06 27.13 C 44.01 27.38 38.97 27.71 33.91 27.94 C 35.20 30.45 36.45 32.98 37.95 35.38 C 30.63 35.37 30.74 43.78 25.42 46.72 C 25.98 44.34 26.65 42.00 27.38 39.67 C 24.09 38.89 20.94 37.66 17.88 36.26 C 16.63 36.62 15.39 36.99 14.15 37.36 C 15.71 35.60 17.30 33.88 18.91 32.16 C 22.82 33.76 27.42 36.67 31.66 34.72 C 34.91 32.91 32.76 28.77 32.72 25.93 C 27.87 26.76 23.25 28.50 18.97 30.90 C 18.72 30.46 18.21 29.58 17.95 29.14 C 18.98 28.36 20.02 27.57 21.05 26.79 C 13.95 27.56 6.88 28.73 0.00 30.69 L 0.00 23.50 C 2.52 24.28 5.15 24.49 7.76 24.73 C 5.23 23.11 2.59 21.65 0.00 20.13 L 0.00 18.91 C 2.81 19.72 5.62 20.50 8.45 21.20 L 8.46 21.73 C 8.47 22.71 8.48 23.69 8.49 24.67 C 7.96 27.15 11.64 26.62 10.89 24.38 C 18.22 24.54 25.61 24.47 32.71 22.41 C 32.66 21.67 32.60 20.93 32.55 20.19 C 31.19 19.93 29.84 19.67 28.49 19.42 C 29.06 18.70 29.61 17.97 30.14 17.22 Z" />
</g>
<g id="#8fa8bbff">
<path fill="#8fa8bb" opacity="1.00" d=" M 51.64 18.70 C 52.13 17.14 54.02 16.98 55.28 17.63 C 55.00 17.91 54.45 18.45 54.17 18.72 C 53.68 18.78 52.71 18.89 52.22 18.95 L 51.64 18.70 Z" />
</g>
<g id="#84774cff">
<path fill="#84774c" opacity="1.00" d=" M 61.71 18.28 C 62.33 16.50 64.53 17.81 64.09 19.32 C 63.49 19.06 62.31 18.54 61.71 18.28 Z" />
<path fill="#84774c" opacity="1.00" d=" M 173.72 18.27 C 174.31 16.50 176.54 17.77 176.10 19.29 C 175.50 19.03 174.31 18.53 173.72 18.27 Z" />
</g>
<g id="#437bc5ff">
<path fill="#437bc5" opacity="1.00" d=" M 124.01 17.81 C 124.19 17.71 124.53 17.51 124.71 17.41 C 125.10 17.42 125.90 17.46 126.29 17.48 C 126.93 17.52 128.20 17.59 128.84 17.63 C 130.99 17.79 133.14 17.94 135.29 18.08 L 136.14 18.13 C 136.83 18.10 138.22 18.03 138.92 18.00 L 139.80 17.74 C 135.15 20.81 129.27 20.42 123.99 21.61 C 123.98 20.34 123.99 19.08 124.01 17.81 Z" />
<path fill="#437bc5" opacity="1.00" d=" M 68.03 18.70 C 68.24 18.57 68.64 18.31 68.85 18.17 C 69.16 18.20 69.79 18.27 70.10 18.30 C 70.79 18.37 72.17 18.51 72.86 18.58 C 75.00 18.79 77.15 18.96 79.30 19.10 L 80.18 19.15 C 80.85 19.12 82.20 19.06 82.87 19.03 L 83.84 18.90 C 79.05 21.66 73.29 21.47 68.00 22.62 C 67.99 21.31 68.00 20.01 68.03 18.70 Z" />
<path fill="#437bc5" opacity="1.00" d=" M 180.03 18.70 C 180.24 18.57 180.65 18.31 180.85 18.18 C 181.17 18.21 181.79 18.27 182.10 18.31 C 182.79 18.38 184.17 18.51 184.86 18.58 C 187.00 18.79 189.15 18.96 191.30 19.10 L 192.18 19.15 C 192.85 19.12 194.20 19.06 194.87 19.03 L 195.84 18.90 C 191.05 21.66 185.28 21.47 180.00 22.62 C 179.99 21.31 180.00 20.01 180.03 18.70 Z" />
<path fill="#437bc5" opacity="1.00" d=" M 12.08 20.67 C 12.03 20.20 11.93 19.26 11.88 18.80 C 12.36 18.92 13.32 19.17 13.80 19.29 C 14.56 19.39 16.08 19.57 16.84 19.67 C 19.09 19.91 21.34 20.11 23.59 20.26 C 24.25 20.21 25.56 20.10 26.22 20.05 L 26.85 19.97 L 27.79 19.81 C 23.23 22.61 17.63 22.47 12.56 23.73 C 12.42 22.89 12.28 22.05 12.15 21.20 L 12.08 20.67 Z" />
</g>
<g id="#8fa8baff">
<path fill="#8fa8ba" opacity="1.00" d=" M 128.84 17.63 C 129.92 17.69 131.01 17.74 132.09 17.79 C 133.16 17.90 134.22 17.99 135.29 18.08 C 133.14 17.94 130.99 17.79 128.84 17.63 Z" />
<path fill="#8fa8ba" opacity="1.00" d=" M 72.86 18.58 C 74.00 18.68 75.14 18.77 76.28 18.86 C 77.29 18.95 78.30 19.03 79.30 19.10 C 77.15 18.96 75.00 18.79 72.86 18.58 Z" />
<path fill="#8fa8ba" opacity="1.00" d=" M 184.86 18.58 C 186.00 18.68 187.14 18.77 188.28 18.86 C 189.29 18.95 190.29 19.03 191.30 19.10 C 189.15 18.96 187.00 18.79 184.86 18.58 Z" />
<path fill="#8fa8ba" opacity="1.00" d=" M 16.84 19.67 C 18.03 19.64 19.21 19.59 20.40 19.53 C 21.46 19.77 22.53 20.01 23.59 20.26 C 21.34 20.11 19.09 19.91 16.84 19.67 Z" />
</g>
<g id="#665b9efe">
<path fill="#665b9e" opacity="1.00" d=" M 140.46 17.34 C 141.82 17.62 143.17 17.92 144.53 18.21 C 144.59 18.95 144.66 19.68 144.72 20.41 C 137.64 22.45 130.26 22.58 122.95 22.35 C 122.35 22.42 121.16 22.58 120.56 22.66 C 120.35 21.85 120.13 21.06 119.90 20.26 C 120.47 19.92 121.63 19.24 122.21 18.90 C 122.66 18.63 123.56 18.08 124.01 17.81 C 123.99 19.08 123.98 20.34 123.99 21.61 C 129.27 20.42 135.15 20.81 139.80 17.74 L 140.46 17.34 Z" />
<path fill="#665b9e" opacity="1.00" d=" M 196.54 18.53 C 197.87 18.73 199.21 18.94 200.55 19.16 C 200.60 19.91 200.65 20.66 200.71 21.41 C 193.61 23.47 186.23 23.55 178.90 23.37 C 178.30 23.45 177.11 23.60 176.51 23.68 C 176.44 22.83 176.36 21.98 176.28 21.13 C 176.74 20.84 177.65 20.25 178.11 19.95 C 178.59 19.64 179.55 19.02 180.03 18.70 C 180.00 20.01 179.99 21.31 180.00 22.62 C 185.28 21.47 191.05 21.66 195.84 18.90 L 196.54 18.53 Z" />
</g>
<g id="#86a0b1ff">
<path fill="#86a0b1" opacity="1.00" d=" M 151.12 17.33 C 151.86 17.21 153.35 16.96 154.09 16.84 L 154.30 17.60 C 153.20 18.15 152.14 18.06 151.12 17.33 Z" />
<path fill="#86a0b1" opacity="1.00" d=" M 95.05 18.20 C 95.78 18.10 97.26 17.91 97.99 17.81 L 98.15 18.59 C 97.05 19.08 96.01 18.95 95.05 18.20 Z" />
<path fill="#86a0b1" opacity="1.00" d=" M 207.05 18.20 C 207.78 18.10 209.25 17.91 209.99 17.81 L 210.15 18.59 C 209.04 19.08 208.01 18.95 207.05 18.20 Z" />
<path fill="#86a0b1" opacity="1.00" d=" M 39.47 18.51 L 40.47 18.27 L 41.64 18.69 L 41.99 19.48 C 41.05 19.81 40.13 19.78 39.23 19.37 L 39.47 18.51 Z" />
<path fill="#86a0b1" opacity="1.00" d=" M 153.80 19.57 L 154.37 19.43 C 155.09 20.52 155.24 21.67 154.82 22.90 C 154.54 22.78 153.99 22.53 153.72 22.40 C 153.74 21.70 153.78 20.28 153.80 19.57 Z" />
<path fill="#86a0b1" opacity="1.00" d=" M 97.80 20.46 L 98.39 20.32 C 99.13 21.31 99.31 22.39 98.92 23.56 C 98.62 23.47 98.01 23.30 97.70 23.21 C 97.73 22.52 97.78 21.15 97.80 20.46 Z" />
<path fill="#86a0b1" opacity="1.00" d=" M 209.77 20.42 L 210.37 20.29 C 211.22 20.94 211.95 23.26 210.26 23.24 C 209.35 22.51 209.19 21.58 209.77 20.42 Z" />
<path fill="#86a0b1" opacity="1.00" d=" M 41.76 21.45 L 42.37 21.31 C 43.24 21.95 43.95 24.27 42.26 24.24 C 41.35 23.53 41.19 22.60 41.76 21.45 Z" />
</g>
<g id="#63579eff">
<path fill="#63579e" opacity="1.00" d=" M 154.30 17.60 C 154.74 17.46 155.62 17.19 156.07 17.06 C 156.44 17.36 157.18 17.96 157.56 18.26 C 156.49 18.65 155.43 19.04 154.37 19.43 L 153.80 19.57 C 151.15 19.83 148.44 19.80 145.80 19.91 C 146.14 19.74 146.82 19.41 147.16 19.25 C 147.70 18.99 148.78 18.47 149.31 18.21 C 149.77 17.99 150.67 17.55 151.12 17.33 C 152.14 18.06 153.20 18.15 154.30 17.60 Z" />
<path fill="#63579e" opacity="1.00" d=" M 98.15 18.59 C 98.57 18.47 99.42 18.24 99.84 18.12 C 100.25 18.45 101.07 19.10 101.48 19.42 C 100.45 19.72 99.42 20.02 98.39 20.32 L 97.80 20.46 C 95.17 20.81 92.48 20.88 89.84 21.10 C 90.10 20.94 90.61 20.62 90.86 20.46 C 91.47 20.12 92.69 19.45 93.30 19.11 C 93.74 18.88 94.61 18.42 95.05 18.20 C 96.01 18.95 97.05 19.08 98.15 18.59 Z" />
<path fill="#63579e" opacity="1.00" d=" M 210.15 18.59 C 210.57 18.48 211.41 18.25 211.83 18.13 C 212.25 18.45 213.08 19.10 213.49 19.42 C 212.45 19.71 211.41 20.00 210.37 20.29 L 209.77 20.42 C 207.15 20.80 204.45 20.88 201.84 21.11 C 202.10 20.95 202.61 20.62 202.87 20.46 C 203.47 20.12 204.69 19.44 205.30 19.11 C 205.74 18.88 206.61 18.43 207.05 18.20 C 208.01 18.95 209.04 19.08 210.15 18.59 Z" />
<path fill="#63579e" opacity="1.00" d=" M 41.99 19.48 C 42.44 19.39 43.35 19.21 43.80 19.11 C 44.22 19.42 45.05 20.03 45.46 20.33 C 44.43 20.66 43.40 20.98 42.37 21.31 L 41.76 21.45 C 39.10 21.77 36.39 21.75 33.73 21.90 C 34.13 21.70 34.94 21.29 35.35 21.08 C 35.86 20.86 36.89 20.40 37.40 20.18 C 37.86 19.98 38.77 19.57 39.23 19.37 C 40.13 19.78 41.05 19.81 41.99 19.48 Z" />
</g>
<g id="#65569cff">
<path fill="#65569c" opacity="1.00" d=" M 158.84 17.75 C 160.64 17.37 162.45 17.06 164.29 16.84 L 165.11 16.96 C 165.84 17.02 167.31 17.14 168.04 17.21 L 168.66 18.46 C 164.49 20.01 160.01 20.24 155.62 19.87 C 156.51 19.27 157.40 18.67 158.31 18.08 L 158.84 17.75 Z" />
<path fill="#65569c" opacity="1.00" d=" M 214.94 19.00 C 216.75 18.49 218.59 18.08 220.45 17.75 L 221.41 17.95 C 222.06 17.87 223.35 17.71 224.00 17.64 L 224.00 20.86 C 219.88 20.92 215.76 20.94 211.64 20.72 C 212.54 20.23 213.45 19.75 214.36 19.28 L 214.94 19.00 Z" />
<path fill="#65569c" opacity="1.00" d=" M 167.87 20.15 C 170.69 20.55 173.33 21.65 175.70 23.21 C 173.54 23.44 171.37 23.63 169.21 23.84 C 168.76 22.61 168.31 21.38 167.87 20.15 Z" />
<path fill="#65569c" opacity="1.00" d=" M 0.00 20.13 C 2.59 21.65 5.23 23.11 7.76 24.73 C 5.15 24.49 2.52 24.28 0.00 23.50 L 0.00 20.13 Z" />
</g>
<g id="#3d7bceff">
<path fill="#3d7bce" opacity="1.00" d=" M 36.95 18.60 C 37.41 18.43 38.34 18.07 38.80 17.90 L 39.47 18.51 L 39.23 19.37 C 38.77 19.57 37.86 19.98 37.40 20.18 C 37.29 19.78 37.06 19.00 36.95 18.60 Z" />
</g>
<g id="#665b9eff">
<path fill="#665b9e" opacity="1.00" d=" M 84.54 18.53 C 85.87 18.73 87.21 18.94 88.55 19.15 C 88.60 19.91 88.66 20.67 88.71 21.43 C 82.87 23.02 76.85 23.52 70.81 23.37 L 70.21 23.38 C 69.11 23.40 68.00 23.40 66.90 23.38 C 66.30 23.45 65.10 23.60 64.50 23.67 C 64.43 22.84 64.36 22.01 64.28 21.18 C 64.74 20.87 65.66 20.27 66.12 19.96 C 66.60 19.65 67.55 19.02 68.03 18.70 C 68.00 20.01 67.99 21.31 68.00 22.62 C 73.29 21.47 79.05 21.66 83.84 18.90 L 84.54 18.53 Z" />
</g>
<g id="#64559cff">
<path fill="#64559c" opacity="1.00" d=" M 102.94 19.04 C 104.68 18.44 106.44 17.91 108.23 17.47 L 109.02 17.52 C 109.49 17.55 110.43 17.59 110.91 17.61 C 114.02 18.96 116.93 20.73 119.75 22.60 C 113.05 22.00 106.44 20.61 99.68 20.56 C 100.57 20.13 101.46 19.72 102.36 19.30 L 102.94 19.04 Z" />
<path fill="#64559c" opacity="1.00" d=" M 46.88 19.92 C 48.64 19.51 50.43 19.20 52.22 18.95 C 52.71 18.89 53.68 18.78 54.17 18.72 C 57.59 19.85 60.78 21.59 63.80 23.54 C 57.08 23.04 50.46 21.60 43.69 21.57 C 44.56 21.11 45.44 20.65 46.32 20.20 L 46.88 19.92 Z" />
</g>
<g id="#665a9dff">
<path fill="#665a9d" opacity="1.00" d=" M 28.49 19.42 C 29.84 19.67 31.19 19.93 32.55 20.19 C 32.60 20.93 32.66 21.67 32.71 22.41 C 25.61 24.47 18.22 24.54 10.89 24.38 C 10.29 24.45 9.09 24.60 8.49 24.67 C 8.48 23.69 8.47 22.71 8.46 21.73 C 9.71 21.99 11.01 21.76 12.15 21.20 C 12.28 22.05 12.42 22.89 12.56 23.73 C 17.63 22.47 23.23 22.61 27.79 19.81 L 28.49 19.42 Z" />
</g>
<g id="#7f91acff">
<path fill="#7f91ac" opacity="1.00" d=" M 10.91 19.72 C 11.21 19.96 11.79 20.43 12.08 20.67 L 12.15 21.20 C 11.01 21.76 9.71 21.99 8.46 21.73 L 8.45 21.20 C 9.07 20.83 10.30 20.09 10.91 19.72 Z" />
</g>
<g id="#7498b7ff">
<path fill="#7498b7" opacity="1.00" d=" M 120.56 22.66 C 121.16 22.58 122.35 22.42 122.95 22.35 C 123.82 24.66 120.38 25.10 120.56 22.66 Z" />
<path fill="#7498b7" opacity="1.00" d=" M 64.50 23.67 C 65.10 23.60 66.30 23.45 66.90 23.38 C 67.69 25.65 64.08 26.14 64.50 23.67 Z" />
<path fill="#7498b7" opacity="1.00" d=" M 176.51 23.68 C 177.11 23.60 178.30 23.45 178.90 23.37 C 179.68 25.63 176.08 26.15 176.51 23.68 Z" />
<path fill="#7498b7" opacity="1.00" d=" M 8.49 24.67 C 9.09 24.60 10.29 24.45 10.89 24.38 C 11.64 26.62 7.96 27.15 8.49 24.67 Z" />
</g>
<g id="#3c6bbeff">
<path fill="#3c6bbe" opacity="1.00" d=" M 153.72 22.40 C 153.99 22.53 154.54 22.78 154.82 22.90 C 159.84 25.17 165.02 27.04 170.08 29.23 C 174.97 27.22 180.35 27.40 185.54 26.92 C 185.84 29.86 186.06 32.80 186.34 35.74 C 188.90 35.92 191.46 36.10 194.03 36.29 C 193.93 38.67 193.83 41.06 193.74 43.44 C 191.59 45.07 189.45 46.71 187.34 48.39 C 191.32 50.65 195.48 52.55 199.51 54.71 C 198.12 55.16 196.73 55.59 195.33 56.00 L 181.27 56.00 C 179.40 53.77 177.48 51.54 175.15 49.75 C 172.53 50.13 169.92 50.55 167.32 51.01 C 164.11 51.51 160.97 52.28 157.85 53.15 C 156.20 53.32 154.58 54.25 154.27 56.00 L 150.19 56.00 C 144.43 51.87 138.54 47.66 131.60 45.80 C 131.52 46.41 131.37 47.63 131.29 48.24 C 133.71 50.17 136.01 52.23 138.14 54.47 C 138.22 53.31 138.37 50.99 138.45 49.83 C 140.78 51.06 143.10 52.31 145.43 53.56 C 143.85 54.17 140.71 55.39 139.13 56.00 L 124.16 56.00 L 123.80 55.07 C 123.18 53.30 122.68 51.49 122.18 49.69 C 118.63 50.10 115.06 50.34 111.52 50.74 C 108.65 51.05 105.83 51.56 102.97 51.82 C 102.66 51.85 102.04 51.92 101.73 51.95 C 100.13 53.21 98.64 54.62 97.14 56.00 L 93.30 56.00 C 88.35 53.89 83.74 51.11 79.15 48.33 C 80.05 46.97 80.95 45.60 81.84 44.23 C 79.53 45.37 77.27 46.59 75.04 47.88 C 79.06 50.41 83.33 52.48 87.49 54.75 C 86.11 55.19 84.72 55.60 83.34 56.00 L 69.43 56.00 C 67.53 54.01 65.52 52.08 63.06 50.79 C 61.86 50.33 60.64 49.91 59.40 49.53 C 60.65 48.57 61.85 47.56 63.07 46.57 C 61.90 45.70 60.73 44.84 59.56 43.97 C 58.95 46.01 58.27 48.02 57.62 50.04 C 57.01 50.20 55.80 50.53 55.19 50.70 C 51.97 51.40 48.69 52.17 45.90 54.00 C 46.51 52.92 47.09 51.83 47.66 50.72 L 46.43 50.97 C 45.25 51.17 44.07 51.36 42.89 51.55 C 42.67 52.27 42.24 53.71 42.02 54.43 C 41.65 54.82 40.91 55.61 40.54 56.00 L 28.09 56.00 C 27.96 54.23 27.83 52.47 27.70 50.70 C 26.97 52.46 26.24 54.23 25.53 56.00 L 15.45 56.00 C 12.95 53.91 10.50 51.75 8.14 49.51 C 7.47 48.45 6.93 47.31 6.38 46.19 C 4.71 47.06 3.06 47.96 1.39 48.83 C 1.04 49.01 0.35 49.37 0.00 49.55 L 0.00 39.86 C 2.59 39.95 5.18 40.05 7.77 40.15 C 8.40 42.63 8.98 45.12 9.66 47.58 C 10.17 43.67 10.69 39.77 11.47 35.91 C 7.65 36.32 3.82 36.73 0.00 37.13 L 0.00 30.69 C 6.88 28.73 13.95 27.56 21.05 26.79 C 20.02 27.57 18.98 28.36 17.95 29.14 C 18.21 29.58 18.72 30.46 18.97 30.90 C 23.25 28.50 27.87 26.76 32.72 25.93 C 32.76 28.77 34.91 32.91 31.66 34.72 C 27.42 36.67 22.82 33.76 18.91 32.16 C 17.30 33.88 15.71 35.60 14.15 37.36 C 15.39 36.99 16.63 36.62 17.88 36.26 C 20.94 37.66 24.09 38.89 27.38 39.67 C 26.65 42.00 25.98 44.34 25.42 46.72 C 30.74 43.78 30.63 35.37 37.95 35.38 C 36.45 32.98 35.20 30.45 33.91 27.94 C 38.97 27.71 44.01 27.38 49.06 27.13 C 48.47 27.35 47.88 27.57 47.29 27.80 C 47.93 30.54 47.99 33.37 47.76 36.18 C 45.52 35.19 43.30 34.18 41.08 33.15 C 40.77 34.07 40.46 35.00 40.15 35.93 C 44.89 37.88 49.86 39.13 54.82 40.35 C 53.07 38.31 48.95 36.66 50.33 33.42 C 55.44 27.06 63.73 25.23 71.47 26.72 C 71.85 26.73 72.62 26.75 73.01 26.76 C 73.54 29.73 74.00 32.71 74.48 35.70 C 76.83 35.92 79.18 36.15 81.53 36.36 C 82.10 39.33 82.68 42.30 83.27 45.26 C 84.93 40.00 88.60 35.62 94.10 34.09 C 93.33 32.14 92.60 30.18 91.93 28.19 C 91.81 28.18 91.59 28.15 91.47 28.14 C 90.29 30.50 89.73 34.29 86.44 34.40 C 82.53 34.73 78.71 33.36 74.88 32.78 C 75.54 31.52 76.85 29.00 77.50 27.74 C 84.56 27.87 91.26 25.87 97.70 23.21 C 98.01 23.30 98.62 23.47 98.92 23.56 C 100.17 23.99 101.39 24.48 102.61 24.96 L 96.76 26.27 C 99.65 27.19 102.53 28.13 105.40 29.10 C 104.57 31.03 103.76 32.97 102.94 34.91 C 100.99 33.99 99.04 33.05 97.10 32.12 C 96.78 33.06 96.47 33.99 96.15 34.93 C 100.89 36.88 105.86 38.13 110.82 39.35 C 109.07 37.30 104.95 35.65 106.32 32.40 C 111.46 25.63 120.59 26.33 128.10 25.62 C 128.55 28.18 128.66 30.88 129.82 33.26 C 131.24 36.24 135.61 35.78 137.89 37.32 C 137.46 40.14 137.03 42.95 136.58 45.77 C 137.62 45.82 138.67 45.87 139.72 45.92 C 141.09 41.51 141.96 35.41 147.46 34.42 C 154.07 34.36 160.47 36.70 166.82 38.34 C 165.18 36.87 163.45 35.47 162.10 33.72 C 162.74 31.24 164.15 29.05 165.32 26.79 C 162.91 28.77 160.61 30.87 158.36 33.04 C 155.88 32.64 153.38 32.31 150.88 32.17 C 150.23 31.07 149.59 29.97 148.95 28.87 C 144.90 34.69 136.45 35.42 130.86 31.51 C 130.54 29.59 130.62 27.63 130.57 25.69 C 134.45 26.28 138.30 27.02 142.17 27.71 C 141.51 26.36 140.84 25.02 140.18 23.68 C 144.70 24.37 149.80 25.67 153.72 22.40 M 60.29 37.50 C 61.58 40.87 63.73 43.91 67.14 45.38 C 66.09 43.33 64.93 41.34 63.86 39.29 C 65.19 38.28 66.45 37.19 67.66 36.03 C 65.19 36.45 62.74 36.97 60.29 37.50 M 171.18 37.75 C 172.44 41.77 175.96 44.65 180.15 44.86 C 179.11 43.67 176.94 42.95 177.09 41.08 C 177.70 39.16 178.98 37.56 180.01 35.85 C 177.05 36.46 174.13 37.12 171.18 37.75 M 103.43 38.73 C 101.87 41.31 101.17 46.05 96.61 44.03 C 93.23 43.35 89.82 43.11 86.54 44.53 C 90.96 45.31 95.57 45.60 99.59 47.80 C 103.73 46.53 108.02 45.87 112.30 45.32 C 109.28 44.94 106.25 44.54 103.23 44.16 C 103.36 42.35 103.41 40.54 103.43 38.73 M 154.18 44.35 C 152.14 44.66 150.39 43.24 148.61 42.49 C 148.41 43.22 148.21 43.96 148.01 44.69 C 152.34 46.50 157.06 47.83 161.38 45.17 C 161.05 43.18 160.78 41.17 160.60 39.16 C 158.74 41.15 157.16 44.03 154.18 44.35 M 34.90 42.72 C 33.58 43.75 32.25 44.76 30.90 45.73 C 35.56 44.91 40.59 45.54 43.83 49.33 C 44.59 48.34 45.37 47.37 46.14 46.39 C 49.58 46.65 53.01 46.73 56.45 46.79 C 52.92 46.01 49.41 45.13 45.91 44.24 C 46.28 42.86 46.66 41.47 47.05 40.09 C 44.16 43.73 38.91 45.83 34.90 42.72 M 0.35 44.64 C 3.12 44.34 5.86 43.84 8.54 43.07 C 5.73 43.05 2.90 43.37 0.35 44.64 M 113.53 43.50 C 113.39 45.01 113.25 46.52 113.11 48.02 C 114.55 47.96 116.00 47.89 117.45 47.82 C 116.17 46.36 114.85 44.93 113.53 43.50 M 163.96 44.23 C 163.65 46.00 167.35 46.00 167.04 44.23 C 166.42 43.18 164.58 43.18 163.96 44.23 Z" />
<path fill="#3c6bbe" opacity="1.00" d=" M 189.49 27.39 C 198.84 26.47 208.28 27.25 217.56 28.58 C 216.69 30.69 215.82 32.80 214.98 34.93 C 213.01 34.00 211.05 33.06 209.10 32.12 C 208.78 33.06 208.46 33.99 208.15 34.93 C 212.89 36.87 217.86 38.13 222.82 39.36 C 221.27 37.43 217.60 36.06 218.19 33.22 C 219.61 30.90 222.04 29.45 224.00 27.62 L 224.00 45.19 C 215.54 44.80 207.00 42.50 198.56 44.21 C 201.88 45.17 205.25 45.96 208.63 46.66 C 213.71 48.00 218.93 46.14 224.00 45.81 L 224.00 50.54 C 220.99 51.14 218.02 51.84 214.97 52.18 C 214.65 52.06 214.00 51.82 213.67 51.70 C 212.23 53.12 210.81 54.56 209.39 56.00 L 205.32 56.00 C 200.47 53.88 195.92 51.19 191.30 48.64 C 196.30 43.75 198.63 36.05 206.09 34.06 C 205.32 32.12 204.60 30.17 203.93 28.19 C 203.81 28.18 203.58 28.15 203.47 28.14 C 202.29 30.50 201.73 34.29 198.44 34.40 C 194.54 34.73 190.72 33.36 186.89 32.80 C 187.54 31.45 188.84 28.75 189.49 27.39 Z" />
</g>
<g id="#268ed9ff">
<path fill="#268ed9" opacity="1.00" d=" M 70.21 23.38 L 70.81 23.37 C 72.04 24.08 72.93 25.32 73.01 26.76 C 72.62 26.75 71.85 26.73 71.47 26.72 C 70.48 25.82 70.06 24.71 70.21 23.38 Z" />
</g>
<g id="#4374c8ff">
<path fill="#4374c8" opacity="1.00" d=" M 0.00 37.13 C 3.82 36.73 7.65 36.32 11.47 35.91 C 10.69 39.77 10.17 43.67 9.66 47.58 C 8.98 45.12 8.40 42.63 7.77 40.15 C 5.18 40.05 2.59 39.95 0.00 39.86 L 0.00 37.13 Z" />
</g>
<g id="#4778cbfe">
<path fill="#4778cb" opacity="1.00" d=" M 60.29 37.50 C 62.74 36.97 65.19 36.45 67.66 36.03 C 66.45 37.19 65.19 38.28 63.86 39.29 C 64.93 41.34 66.09 43.33 67.14 45.38 C 63.73 43.91 61.58 40.87 60.29 37.50 Z" />
</g>
<g id="#4374c8fe">
<path fill="#4374c8" opacity="1.00" d=" M 171.18 37.75 C 174.13 37.12 177.05 36.46 180.01 35.85 C 178.98 37.56 177.70 39.16 177.09 41.08 C 176.94 42.95 179.11 43.67 180.15 44.86 C 175.96 44.65 172.44 41.77 171.18 37.75 Z" />
</g>
<g id="#4378cbff">
<path fill="#4378cb" opacity="1.00" d=" M 103.43 38.73 C 103.41 40.54 103.36 42.35 103.23 44.16 C 106.25 44.54 109.28 44.94 112.30 45.32 C 108.02 45.87 103.73 46.53 99.59 47.80 C 95.57 45.60 90.96 45.31 86.54 44.53 C 89.82 43.11 93.23 43.35 96.61 44.03 C 101.17 46.05 101.87 41.31 103.43 38.73 Z" />
<path fill="#4378cb" opacity="1.00" d=" M 34.90 42.72 C 38.91 45.83 44.16 43.73 47.05 40.09 C 46.66 41.47 46.28 42.86 45.91 44.24 C 49.41 45.13 52.92 46.01 56.45 46.79 C 53.01 46.73 49.58 46.65 46.14 46.39 C 45.37 47.37 44.59 48.34 43.83 49.33 C 40.59 45.54 35.56 44.91 30.90 45.73 C 32.25 44.76 33.58 43.75 34.90 42.72 Z" />
</g>
<g id="#4279cbff">
<path fill="#4279cb" opacity="1.00" d=" M 154.18 44.35 C 157.16 44.03 158.74 41.15 160.60 39.16 C 160.78 41.17 161.05 43.18 161.38 45.17 C 157.06 47.83 152.34 46.50 148.01 44.69 C 148.21 43.96 148.41 43.22 148.61 42.49 C 150.39 43.24 152.14 44.66 154.18 44.35 Z" />
</g>
<g id="#4379cbff">
<path fill="#4379cb" opacity="1.00" d=" M 198.56 44.21 C 207.00 42.50 215.54 44.80 224.00 45.19 L 224.00 45.81 C 218.93 46.14 213.71 48.00 208.63 46.66 C 205.25 45.96 201.88 45.17 198.56 44.21 Z" />
</g>
<g id="#4072c6ff">
<path fill="#4072c6" opacity="1.00" d=" M 0.35 44.64 C 2.90 43.37 5.73 43.05 8.54 43.07 C 5.86 43.84 3.12 44.34 0.35 44.64 Z" />
</g>
<g id="#4c77caff">
<path fill="#4c77ca" opacity="1.00" d=" M 59.56 43.97 C 60.73 44.84 61.90 45.70 63.07 46.57 C 61.85 47.56 60.65 48.57 59.40 49.53 C 58.96 49.66 58.07 49.91 57.62 50.04 C 58.27 48.02 58.95 46.01 59.56 43.97 Z" />
</g>
<g id="#4778d1ff">
<path fill="#4778d1" opacity="1.00" d=" M 113.53 43.50 C 114.85 44.93 116.17 46.36 117.45 47.82 C 116.00 47.89 114.55 47.96 113.11 48.02 C 113.25 46.52 113.39 45.01 113.53 43.50 Z" />
</g>
<g id="#4575cbff">
<path fill="#4575cb" opacity="1.00" d=" M 163.96 44.23 C 164.58 43.18 166.42 43.18 167.04 44.23 C 167.35 46.00 163.65 46.00 163.96 44.23 Z" />
</g>
<g id="#4379c9fe">
<path fill="#4379c9" opacity="1.00" d=" M 75.04 47.88 C 77.27 46.59 79.53 45.37 81.84 44.23 C 80.95 45.60 80.05 46.97 79.15 48.33 C 83.74 51.11 88.35 53.89 93.30 56.00 L 83.34 56.00 C 84.72 55.60 86.11 55.19 87.49 54.75 C 83.33 52.48 79.06 50.41 75.04 47.88 Z" />
</g>
<g id="#4c76cfff">
<path fill="#4c76cf" opacity="1.00" d=" M 1.39 48.83 C 3.06 47.96 4.71 47.06 6.38 46.19 C 6.93 47.31 7.47 48.45 8.14 49.51 C 6.45 49.34 3.08 49.00 1.39 48.83 Z" />
</g>
<g id="#4177ccff">
<path fill="#4177cc" opacity="1.00" d=" M 131.60 45.80 C 138.54 47.66 144.43 51.87 150.19 56.00 L 139.13 56.00 C 140.71 55.39 143.85 54.17 145.43 53.56 C 143.10 52.31 140.78 51.06 138.45 49.83 C 138.37 50.99 138.22 53.31 138.14 54.47 C 136.01 52.23 133.71 50.17 131.29 48.24 C 131.37 47.63 131.52 46.41 131.60 45.80 Z" />
</g>
<g id="#536ea1ff">
<path fill="#536ea1" opacity="1.00" d=" M 0.00 49.55 C 0.35 49.37 1.04 49.01 1.39 48.83 C 3.08 49.00 6.45 49.34 8.14 49.51 C 9.19 51.47 10.27 53.41 11.48 55.27 C 8.23 52.46 4.04 51.38 0.00 50.23 L 0.00 49.55 Z" />
</g>
<g id="#42689dff">
<path fill="#42689d" opacity="1.00" d=" M 111.52 50.74 C 115.06 50.34 118.63 50.10 122.18 49.69 C 122.68 51.49 123.18 53.30 123.80 55.07 C 120.26 52.37 115.84 51.37 111.52 50.74 Z" />
</g>
<g id="#6894c6ff">
<path fill="#6894c6" opacity="1.00" d=" M 8.14 49.51 C 10.50 51.75 12.95 53.91 15.45 56.00 L 12.45 56.00 L 11.48 55.27 C 10.27 53.41 9.19 51.47 8.14 49.51 Z" />
</g>
<g id="#315a8cff">
<path fill="#315a8c" opacity="1.00" d=" M 55.19 50.70 C 55.80 50.53 57.01 50.20 57.62 50.04 C 58.07 49.91 58.96 49.66 59.40 49.53 C 60.64 49.91 61.86 50.33 63.06 50.79 C 61.55 50.77 58.52 50.73 57.01 50.71 L 56.01 50.69 L 55.19 50.70 Z" />
</g>
<g id="#2f5b84ff">
<path fill="#2f5b84" opacity="1.00" d=" M 167.32 51.01 C 169.92 50.55 172.53 50.13 175.15 49.75 L 174.56 50.69 C 173.18 50.74 170.41 50.84 169.03 50.90 L 168.09 50.94 L 167.32 51.01 Z" />
</g>
<g id="#607aafff">
<path fill="#607aaf" opacity="1.00" d=" M 175.15 49.75 C 177.48 51.54 179.40 53.77 181.27 56.00 L 179.83 56.00 C 177.92 54.39 176.13 52.63 174.56 50.69 L 175.15 49.75 Z" />
</g>
<g id="#24393dff">
<path fill="#24393d" opacity="1.00" d=" M 0.00 50.23 C 4.04 51.38 8.23 52.46 11.48 55.27 L 12.45 56.00 L 7.78 56.00 C 5.19 54.34 2.59 52.67 0.00 51.00 L 0.00 50.23 Z" />
</g>
<g id="#446da3ff">
<path fill="#446da3" opacity="1.00" d=" M 25.53 56.00 C 26.24 54.23 26.97 52.46 27.70 50.70 C 27.83 52.47 27.96 54.23 28.09 56.00 L 25.53 56.00 Z" />
</g>
<g id="#3686d0ff">
<path fill="#3686d0" opacity="1.00" d=" M 42.89 51.55 C 44.07 51.36 45.25 51.17 46.43 50.97 C 44.90 52.04 43.42 53.19 42.02 54.43 C 42.24 53.71 42.67 52.27 42.89 51.55 Z" />
</g>
<g id="#809db3ff">
<path fill="#809db3" opacity="1.00" d=" M 46.43 50.97 L 47.66 50.72 C 47.09 51.83 46.51 52.92 45.90 54.00 C 45.39 54.50 44.37 55.50 43.85 56.00 L 40.54 56.00 C 40.91 55.61 41.65 54.82 42.02 54.43 C 43.42 53.19 44.90 52.04 46.43 50.97 Z" />
</g>
<g id="#203b3cff">
<path fill="#203b3c" opacity="1.00" d=" M 57.01 50.71 C 58.52 50.73 61.55 50.77 63.06 50.79 C 64.61 52.59 66.22 54.36 67.94 56.00 L 64.51 56.00 C 63.84 55.46 62.50 54.37 61.83 53.82 C 60.30 52.67 58.66 51.68 57.01 50.71 Z" />
</g>
<g id="#6286a8ff">
<path fill="#6286a8" opacity="1.00" d=" M 63.06 50.79 C 65.52 52.08 67.53 54.01 69.43 56.00 L 67.94 56.00 C 66.22 54.36 64.61 52.59 63.06 50.79 Z" />
</g>
<g id="#244048ff">
<path fill="#244048" opacity="1.00" d=" M 111.52 50.74 C 115.84 51.37 120.26 52.37 123.80 55.07 L 124.16 56.00 L 119.71 56.00 C 118.73 55.08 117.74 54.16 116.75 53.25 C 115.28 52.40 113.73 51.67 112.18 50.99 L 111.52 50.74 Z" />
</g>
<g id="#203b43ff">
<path fill="#203b43" opacity="1.00" d=" M 169.03 50.90 C 170.41 50.84 173.18 50.74 174.56 50.69 C 176.13 52.63 177.92 54.39 179.83 56.00 L 176.46 56.00 C 174.07 54.17 171.70 52.30 169.03 50.90 Z" />
</g>
<g id="#7c9c74ff">
<path fill="#7c9c74" opacity="1.00" d=" M 0.00 51.00 C 2.59 52.67 5.19 54.34 7.78 56.00 L 6.50 56.00 C 4.35 54.88 2.21 53.74 0.00 52.75 L 0.00 51.00 Z" />
</g>
<g id="#74a05cff">
<path fill="#74a05c" opacity="1.00" d=" M 47.66 56.00 C 50.45 54.23 53.20 52.42 56.01 50.69 C 55.90 52.46 55.78 54.23 55.65 56.00 L 47.66 56.00 Z" />
<path fill="#74a05c" opacity="1.00" d=" M 215.72 56.00 C 218.49 54.37 221.23 52.72 224.00 51.08 L 224.00 56.00 L 215.72 56.00 Z" />
</g>
<g id="#709d86ff">
<path fill="#709d86" opacity="1.00" d=" M 56.01 50.69 L 57.01 50.71 C 58.66 51.68 60.30 52.67 61.83 53.82 C 60.62 53.64 59.41 53.46 58.20 53.29 C 57.52 54.20 56.83 55.10 56.13 56.00 L 55.65 56.00 C 55.78 54.23 55.90 52.46 56.01 50.69 Z" />
</g>
<g id="#2e83d0ff">
<path fill="#2e83d0" opacity="1.00" d=" M 97.14 56.00 C 98.64 54.62 100.13 53.21 101.73 51.95 C 100.29 52.69 100.48 54.35 100.95 55.62 L 101.00 56.00 L 97.14 56.00 Z" />
<path fill="#2e83d0" opacity="1.00" d=" M 209.39 56.00 C 210.81 54.56 212.23 53.12 213.67 51.70 C 212.36 52.56 212.66 54.23 212.88 55.53 L 212.89 56.00 L 209.39 56.00 Z" />
</g>
<g id="#67839bff">
<path fill="#67839b" opacity="1.00" d=" M 101.73 51.95 C 102.04 51.92 102.66 51.85 102.97 51.82 C 102.70 53.28 102.03 54.54 100.95 55.62 C 100.48 54.35 100.29 52.69 101.73 51.95 Z" />
<path fill="#67839b" opacity="1.00" d=" M 213.67 51.70 C 214.00 51.82 214.65 52.06 214.97 52.18 C 214.62 53.49 213.92 54.61 212.88 55.53 C 212.66 54.23 212.36 52.56 213.67 51.70 Z" />
</g>
<g id="#74a05eff">
<path fill="#74a05e" opacity="1.00" d=" M 103.63 56.00 C 106.46 54.29 109.29 52.60 112.18 50.99 C 112.07 51.89 111.85 53.71 111.74 54.62 C 113.40 54.15 115.07 53.70 116.75 53.25 C 117.74 54.16 118.73 55.08 119.71 56.00 L 103.63 56.00 Z" />
</g>
<g id="#6e9a88ff">
<path fill="#6e9a88" opacity="1.00" d=" M 112.18 50.99 C 113.73 51.67 115.28 52.40 116.75 53.25 C 115.07 53.70 113.40 54.15 111.74 54.62 C 111.85 53.71 112.07 51.89 112.18 50.99 Z" />
</g>
<g id="#73a065ff">
<path fill="#73a065" opacity="1.00" d=" M 159.55 56.00 C 162.35 54.24 165.16 52.50 168.09 50.94 L 169.03 50.90 C 171.70 52.30 174.07 54.17 176.46 56.00 L 174.02 56.00 C 173.09 55.23 172.16 54.44 171.25 53.65 C 170.14 54.44 169.02 55.24 167.89 56.00 L 159.55 56.00 Z" />
</g>
<g id="#759d51ff">
<path fill="#759d51" opacity="1.00" d=" M 0.00 52.75 C 2.21 53.74 4.35 54.88 6.50 56.00 L 0.00 56.00 L 0.00 52.75 Z" />
</g>
<g id="#6e9b56fe">
<path fill="#6e9b56" opacity="1.00" d=" M 56.13 56.00 C 56.83 55.10 57.52 54.20 58.20 53.29 C 59.41 53.46 60.62 53.64 61.83 53.82 C 62.50 54.37 63.84 55.46 64.51 56.00 L 56.13 56.00 Z" />
</g>
<g id="#2e86d2ff">
<path fill="#2e86d2" opacity="1.00" d=" M 154.27 56.00 C 154.58 54.25 156.20 53.32 157.85 53.15 C 157.55 53.86 156.94 55.29 156.64 56.00 L 154.27 56.00 Z" />
</g>
<g id="#669946ff">
<path fill="#669946" opacity="1.00" d=" M 167.89 56.00 C 169.02 55.24 170.14 54.44 171.25 53.65 C 172.16 54.44 173.09 55.23 174.02 56.00 L 167.89 56.00 Z" />
</g>
</svg>
