<?xml version="1.0" encoding="UTF-8" ?>
<!DOCTYPE svg PUBLIC "-//W3C//DTD SVG 1.1//EN" "http://www.w3.org/Graphics/SVG/1.1/DTD/svg11.dtd">
<svg width="224pt" height="56pt" viewBox="0 0 224 56" version="1.1" xmlns="http://www.w3.org/2000/svg">
<g id="#3c6bbeff">
<path fill="#3c6bbe" opacity="1.00" d=" M 0.00 0.00 L 25.73 0.00 C 26.63 1.09 27.47 2.21 28.33 3.33 C 21.73 3.79 14.54 6.44 8.30 3.11 C 9.38 4.97 10.50 6.84 11.15 8.91 C 9.04 11.20 6.41 12.94 4.01 14.91 C 7.41 14.05 10.85 13.34 14.28 12.62 C 14.91 14.32 15.73 15.98 16.07 17.77 C 15.82 18.14 15.32 18.86 15.07 19.22 C 9.99 19.65 4.84 19.11 0.00 17.43 L 0.00 0.00 Z" />
<path fill="#3c6bbe" opacity="1.00" d=" M 30.56 0.00 L 85.36 0.00 C 79.71 5.69 71.34 2.57 64.44 2.19 C 65.45 4.05 66.48 5.91 67.13 7.93 C 65.04 10.21 62.40 11.89 60.01 13.82 C 63.15 13.12 66.30 12.49 69.46 11.90 C 70.43 13.40 71.40 14.89 72.36 16.39 C 65.67 20.24 58.34 16.78 51.21 17.46 C 50.82 16.27 50.43 15.09 50.04 13.91 C 52.52 13.67 55.00 13.47 57.48 13.29 C 57.61 12.75 57.86 11.68 57.99 11.15 C 54.54 10.81 51.09 10.49 47.64 10.21 C 47.00 8.88 46.38 7.53 45.77 6.19 C 48.76 6.34 51.75 6.45 54.73 6.60 C 56.15 4.64 57.59 2.69 59.03 0.75 C 55.95 2.14 52.96 3.89 49.59 4.49 C 42.88 5.04 36.85 1.67 30.56 0.00 Z" />
<path fill="#3c6bbe" opacity="1.00" d=" M 92.14 0.00 L 138.19 0.00 C 137.66 0.60 136.61 1.80 136.09 2.40 C 130.86 2.18 125.64 1.87 120.44 1.22 C 121.46 3.07 122.50 4.92 123.14 6.94 C 121.09 9.21 118.41 10.79 116.03 12.67 C 119.83 12.04 123.68 11.91 127.53 11.76 C 126.40 10.23 125.16 8.76 124.34 7.03 C 125.76 2.68 131.09 3.62 134.66 3.30 C 131.58 6.78 129.51 11.01 126.49 14.51 C 120.92 19.62 113.26 14.76 106.80 17.31 C 106.62 15.69 106.44 14.06 106.28 12.44 C 108.70 12.40 111.12 12.41 113.55 12.40 C 113.65 11.81 113.87 10.64 113.97 10.05 C 110.38 9.83 106.78 9.69 103.19 9.54 C 102.70 8.03 102.21 6.51 101.73 4.99 C 105.00 5.51 108.27 6.09 111.54 6.66 C 111.74 5.57 111.94 4.48 112.14 3.40 C 105.63 2.64 97.29 5.35 92.14 0.00 Z" />
<path fill="#3c6bbe" opacity="1.00" d=" M 140.76 0.00 L 151.69 0.00 C 152.80 1.74 153.65 3.82 155.44 4.98 C 159.40 5.87 163.48 6.14 167.51 6.62 C 167.73 5.58 167.95 4.53 168.18 3.48 C 163.12 4.16 157.72 4.50 154.34 0.00 L 197.37 0.00 C 192.54 5.41 184.97 1.62 179.23 4.66 C 178.49 6.12 178.24 7.76 177.79 9.32 C 175.81 10.78 173.85 12.27 171.88 13.74 C 175.08 13.12 178.27 12.51 181.48 11.94 C 182.43 13.40 183.39 14.86 184.33 16.33 C 181.25 17.38 178.03 19.35 174.69 18.18 C 170.27 16.71 165.67 15.92 161.01 16.04 C 161.39 9.68 167.10 12.22 170.59 13.04 C 169.11 11.69 168.00 9.03 165.64 9.37 C 163.08 9.48 160.45 9.85 157.93 9.17 C 154.06 7.51 151.17 4.13 147.24 2.58 C 144.46 1.63 141.49 1.51 138.59 1.18 C 139.14 0.89 140.22 0.30 140.76 0.00 Z" />
<path fill="#3c6bbe" opacity="1.00" d=" M 67.60 8.76 C 69.40 5.40 72.94 4.13 76.54 3.74 C 75.28 6.74 73.59 9.52 71.80 12.22 C 70.38 11.08 69.00 9.91 67.60 8.76 Z" />
<path fill="#3c6bbe" opacity="1.00" d=" M 179.60 8.76 C 181.40 5.40 184.94 4.13 188.54 3.74 C 187.28 6.74 185.59 9.52 183.80 12.22 C 182.38 11.08 181.00 9.91 179.60 8.76 Z" />
<path fill="#3c6bbe" opacity="1.00" d=" M 11.70 9.64 C 13.43 6.50 16.74 5.27 20.09 4.66 C 18.52 7.62 16.99 10.63 16.21 13.92 C 14.70 12.50 13.19 11.08 11.70 9.64 Z" />
<path fill="#3c6bbe" opacity="1.00" d=" M 213.73 4.97 C 217.16 5.49 220.61 5.98 224.00 6.73 L 224.00 9.80 C 221.07 9.69 218.11 9.60 215.18 9.56 C 214.68 8.03 214.20 6.50 213.73 4.97 Z" />
<path fill="#3c6bbe" opacity="1.00" d=" M 220.20 10.99 C 221.47 11.69 222.75 12.40 224.00 13.16 L 224.00 15.99 C 222.33 16.62 220.65 17.23 218.98 17.85 C 218.71 16.32 218.45 14.79 218.20 13.26 C 218.86 12.50 219.53 11.74 220.20 10.99 Z" />
<path fill="#3c6bbe" opacity="1.00" d=" M 221.66 20.18 C 222.24 19.61 223.41 18.47 224.00 17.91 L 224.00 26.69 C 222.94 27.23 221.88 27.75 220.82 28.26 C 221.07 25.56 221.33 22.87 221.66 20.18 Z" />
<path fill="#3c6bbe" opacity="1.00" d=" M 109.20 30.26 C 113.92 26.94 118.92 23.51 124.82 22.87 L 126.09 22.61 C 124.76 28.65 117.54 31.28 117.44 37.83 C 116.34 37.28 115.26 36.69 114.18 36.11 C 115.64 38.96 116.60 42.01 117.04 45.18 C 112.60 45.34 107.90 45.98 103.69 44.35 C 102.95 42.47 103.84 40.34 103.92 38.38 C 106.32 38.58 108.72 38.74 111.13 38.88 C 109.33 37.77 107.53 36.68 105.73 35.59 C 106.67 33.69 107.07 31.27 109.20 30.26 Z" />
<path fill="#3c6bbe" opacity="1.00" d=" M 53.26 31.39 C 56.77 29.58 60.37 27.95 63.78 25.95 C 62.06 29.84 62.12 35.88 57.03 36.99 C 59.01 40.35 59.52 44.47 58.17 48.14 C 60.45 48.97 62.73 49.82 64.85 51.01 C 65.31 51.56 66.24 52.64 66.70 53.19 C 64.76 52.21 62.83 51.24 60.91 50.23 C 59.85 51.13 58.79 52.04 57.72 52.94 C 61.00 53.18 64.30 53.30 67.58 53.64 L 68.30 53.92 C 70.12 54.62 71.92 55.36 73.77 56.00 L 32.74 56.00 C 34.61 54.89 36.47 53.78 38.28 52.58 C 40.44 51.24 42.30 49.50 44.27 47.91 C 48.09 46.09 52.52 46.83 56.57 46.52 C 53.36 45.97 50.15 45.41 46.94 44.86 C 47.32 42.68 47.70 40.49 48.06 38.30 C 50.32 38.97 52.59 39.61 54.86 40.27 C 53.17 38.82 51.40 37.44 49.96 35.73 C 50.21 33.85 51.16 31.82 53.26 31.39 Z" />
<path fill="#3c6bbe" opacity="1.00" d=" M 164.36 29.40 C 168.29 28.61 172.50 28.75 175.81 26.07 C 173.99 29.90 174.10 35.91 169.03 36.99 C 171.01 40.34 171.51 44.47 170.17 48.14 C 172.45 48.97 174.73 49.82 176.85 51.01 C 177.31 51.56 178.24 52.65 178.70 53.19 C 176.76 52.21 174.83 51.24 172.91 50.23 C 171.85 51.13 170.78 52.04 169.72 52.94 C 172.99 53.18 176.30 53.30 179.58 53.64 L 180.30 53.92 C 182.12 54.62 183.92 55.36 185.77 56.00 L 147.86 56.00 C 148.76 54.60 149.68 53.21 150.63 51.84 C 152.35 51.92 154.80 50.53 153.20 48.66 C 155.67 47.34 158.22 46.15 160.74 44.90 C 160.90 42.90 160.86 40.79 161.72 38.93 C 162.44 36.87 164.98 37.98 166.59 37.79 C 163.39 36.02 162.38 32.57 164.36 29.40 M 163.90 44.24 C 163.65 45.96 167.35 45.96 167.10 44.24 C 166.41 43.22 164.58 43.22 163.90 44.24 Z" />
<path fill="#3c6bbe" opacity="1.00" d=" M 0.00 31.04 C 2.35 30.13 4.72 29.32 7.08 28.43 C 6.42 30.81 5.77 33.19 5.14 35.58 C 5.07 35.86 4.93 36.40 4.87 36.68 C 3.24 36.98 1.62 37.32 0.00 37.65 L 0.00 31.04 Z" />
</g>
<g id="#427acbff">
<path fill="#427acb" opacity="1.00" d=" M 25.73 0.00 L 30.56 0.00 C 36.85 1.67 42.88 5.04 49.59 4.49 C 52.96 3.89 55.95 2.14 59.03 0.75 C 57.59 2.69 56.15 4.64 54.73 6.60 C 51.75 6.45 48.76 6.34 45.77 6.19 C 46.38 7.53 47.00 8.88 47.64 10.21 C 51.09 10.49 54.54 10.81 57.99 11.15 C 57.86 11.68 57.61 12.75 57.48 13.29 C 55.00 13.47 52.52 13.67 50.04 13.91 C 50.43 15.09 50.82 16.27 51.21 17.46 C 58.34 16.78 65.67 20.24 72.36 16.39 C 71.40 14.89 70.43 13.40 69.46 11.90 C 66.30 12.49 63.15 13.12 60.01 13.82 C 62.40 11.89 65.04 10.21 67.13 7.93 C 66.48 5.91 65.45 4.05 64.44 2.19 C 71.34 2.57 79.71 5.69 85.36 0.00 L 92.14 0.00 C 97.29 5.35 105.63 2.64 112.14 3.40 C 111.94 4.48 111.74 5.57 111.54 6.66 C 108.27 6.09 105.00 5.51 101.73 4.99 C 102.21 6.51 102.70 8.03 103.19 9.54 C 106.78 9.69 110.38 9.83 113.97 10.05 C 113.87 10.64 113.65 11.81 113.55 12.40 C 111.12 12.41 108.70 12.40 106.28 12.44 C 106.44 14.06 106.62 15.69 106.80 17.31 C 113.26 14.76 120.92 19.62 126.49 14.51 C 129.51 11.01 131.58 6.78 134.66 3.30 C 131.09 3.62 125.76 2.68 124.34 7.03 C 125.16 8.76 126.40 10.23 127.53 11.76 C 123.68 11.91 119.83 12.04 116.03 12.67 C 118.41 10.79 121.09 9.21 123.14 6.94 C 122.50 4.92 121.46 3.07 120.44 1.22 C 125.64 1.87 130.86 2.18 136.09 2.40 C 136.61 1.80 137.66 0.60 138.19 0.00 L 140.76 0.00 C 140.22 0.30 139.14 0.89 138.59 1.18 C 141.49 1.51 144.46 1.63 147.24 2.58 C 151.17 4.13 154.06 7.51 157.93 9.17 C 160.45 9.85 163.08 9.48 165.64 9.37 C 168.00 9.03 169.11 11.69 170.59 13.04 C 167.10 12.22 161.39 9.68 161.01 16.04 C 165.67 15.92 170.27 16.71 174.69 18.18 C 178.03 19.35 181.25 17.38 184.33 16.33 C 183.39 14.86 182.43 13.40 181.48 11.94 C 178.27 12.51 175.08 13.12 171.88 13.74 C 173.85 12.27 175.81 10.78 177.79 9.32 C 178.24 7.76 178.49 6.12 179.23 4.66 C 184.97 1.62 192.54 5.41 197.37 0.00 L 204.15 0.00 C 209.25 5.34 217.52 2.72 224.00 3.43 L 224.00 6.73 C 220.61 5.98 217.16 5.49 213.73 4.97 C 214.20 6.50 214.68 8.03 215.18 9.56 C 218.11 9.60 221.07 9.69 224.00 9.80 L 224.00 13.16 C 222.75 12.40 221.47 11.69 220.20 10.99 C 219.53 11.74 218.86 12.50 218.20 13.26 C 218.45 14.79 218.71 16.32 218.98 17.85 C 220.65 17.23 222.33 16.62 224.00 15.99 L 224.00 17.91 C 223.41 18.47 222.24 19.61 221.66 20.18 C 221.33 22.87 221.07 25.56 220.82 28.26 C 221.88 27.75 222.94 27.23 224.00 26.69 L 224.00 27.77 C 221.40 29.92 219.07 32.38 217.51 35.39 C 219.35 36.54 221.18 37.72 223.03 38.87 C 220.70 38.74 218.36 38.60 216.03 38.47 C 215.77 40.49 215.49 42.51 215.23 44.52 C 218.13 44.72 221.08 44.93 224.00 45.13 L 224.00 45.70 C 220.09 46.24 216.02 46.41 212.35 48.02 C 210.61 48.67 208.88 49.33 207.15 49.99 C 208.18 47.90 209.17 45.79 210.15 43.68 C 204.42 44.90 198.56 45.04 192.76 45.62 C 191.05 44.07 189.48 42.39 187.96 40.66 C 189.75 40.18 191.54 39.70 193.35 39.26 C 197.42 40.09 201.51 40.89 205.66 41.17 C 212.49 38.16 217.36 31.27 217.85 23.82 C 217.04 20.96 216.24 18.11 215.22 15.32 C 214.66 13.71 213.95 12.15 212.99 10.74 C 210.05 9.01 206.89 7.70 203.65 6.65 C 193.78 1.33 186.95 13.57 185.34 21.55 C 184.47 23.21 183.47 24.80 182.44 26.38 C 179.25 30.45 175.91 34.81 175.78 40.23 C 175.47 42.28 175.39 44.38 175.60 46.45 C 175.95 47.98 176.37 49.51 176.85 51.01 C 174.73 49.82 172.45 48.97 170.17 48.14 C 171.51 44.47 171.01 40.34 169.03 36.99 C 174.10 35.91 173.99 29.90 175.81 26.07 C 172.50 28.75 168.29 28.61 164.36 29.40 C 162.38 32.57 163.39 36.02 166.59 37.79 C 164.98 37.98 162.44 36.87 161.72 38.93 C 160.86 40.79 160.90 42.90 160.74 44.90 C 158.22 46.15 155.67 47.34 153.20 48.66 C 151.84 49.20 151.33 50.69 150.63 51.84 C 149.68 53.21 148.76 54.60 147.86 56.00 L 132.84 56.00 C 126.59 53.89 120.13 52.48 113.67 51.20 C 116.11 50.88 118.56 50.60 121.02 50.38 C 120.19 48.72 119.36 47.06 118.52 45.41 C 117.23 46.53 115.92 47.63 114.66 48.77 C 110.36 46.14 104.84 45.51 100.33 47.97 C 98.61 48.67 96.88 49.34 95.15 50.02 C 96.17 47.92 97.17 45.80 98.14 43.68 C 92.42 44.90 86.56 45.04 80.76 45.62 C 79.05 44.07 77.48 42.39 75.96 40.66 C 77.75 40.18 79.55 39.70 81.35 39.26 C 85.42 40.09 89.51 40.89 93.66 41.17 C 100.49 38.16 105.36 31.27 105.85 23.82 C 105.05 20.96 104.24 18.11 103.22 15.32 C 102.66 13.71 101.95 12.15 100.99 10.74 C 98.05 9.01 94.89 7.70 91.65 6.65 C 81.78 1.33 74.95 13.57 73.34 21.55 C 72.47 23.21 71.47 24.80 70.44 26.38 C 67.25 30.45 63.91 34.81 63.78 40.23 C 63.48 42.28 63.39 44.38 63.60 46.45 C 63.96 47.98 64.37 49.51 64.85 51.01 C 62.73 49.82 60.45 48.97 58.17 48.14 C 59.52 44.47 59.01 40.35 57.03 36.99 C 62.12 35.88 62.06 29.84 63.78 25.95 C 60.37 27.95 56.77 29.58 53.26 31.39 C 51.16 31.82 50.21 33.85 49.96 35.73 C 51.40 37.44 53.17 38.82 54.86 40.27 C 52.59 39.61 50.32 38.97 48.06 38.30 C 47.70 40.49 47.32 42.68 46.94 44.86 C 50.15 45.41 53.36 45.97 56.57 46.52 C 52.52 46.83 48.09 46.09 44.27 47.91 C 42.56 48.59 40.85 49.29 39.15 50.00 C 40.18 47.91 41.17 45.80 42.15 43.68 C 36.39 44.92 30.50 45.01 24.67 45.67 C 23.07 44.00 21.65 42.16 20.30 40.29 C 24.22 39.39 28.21 40.08 32.07 40.93 L 32.92 41.05 C 42.76 42.17 48.87 32.37 49.97 23.91 C 49.81 20.87 49.27 17.86 48.46 14.93 C 48.16 14.42 47.56 13.40 47.25 12.89 C 45.03 10.58 42.74 8.34 40.34 6.22 C 40.93 7.51 41.53 8.79 42.14 10.07 C 40.89 9.12 39.61 8.21 38.24 7.45 C 34.92 5.83 30.57 3.72 27.16 6.10 C 21.78 9.43 18.76 15.49 17.30 21.48 C 16.47 23.20 15.57 24.89 14.63 26.56 C 11.56 29.67 8.33 32.60 5.14 35.58 C 5.77 33.19 6.42 30.81 7.08 28.43 C 4.72 29.32 2.35 30.13 0.00 31.04 L 0.00 29.04 C 3.87 27.65 7.74 26.19 11.17 23.90 C 7.76 21.62 3.88 20.29 0.00 19.06 L 0.00 17.43 C 4.84 19.11 9.99 19.65 15.07 19.22 C 13.89 20.94 12.79 22.72 11.78 24.54 C 13.85 22.76 15.95 20.70 16.07 17.77 C 15.73 15.98 14.91 14.32 14.28 12.62 C 10.85 13.34 7.41 14.05 4.01 14.91 C 6.41 12.94 9.04 11.20 11.15 8.91 C 10.50 6.84 9.38 4.97 8.30 3.11 C 14.54 6.44 21.73 3.79 28.33 3.33 C 27.47 2.21 26.63 1.09 25.73 0.00 M 67.60 8.76 C 69.00 9.91 70.38 11.08 71.80 12.22 C 73.59 9.52 75.28 6.74 76.54 3.74 C 72.94 4.13 69.40 5.40 67.60 8.76 M 179.60 8.76 C 181.00 9.91 182.38 11.08 183.80 12.22 C 185.59 9.52 187.28 6.74 188.54 3.74 C 184.94 4.13 181.40 5.40 179.60 8.76 M 11.70 9.64 C 13.19 11.08 14.70 12.50 16.21 13.92 C 16.99 10.63 18.52 7.62 20.09 4.66 C 16.74 5.27 13.43 6.50 11.70 9.64 M 129.68 21.67 C 127.73 25.46 125.39 29.05 123.67 32.96 C 123.38 33.37 122.80 34.18 122.52 34.58 C 120.72 36.79 118.27 39.22 120.44 42.53 C 122.18 48.20 127.55 51.94 132.58 54.47 C 138.15 56.34 143.50 53.00 148.23 50.51 C 148.48 50.81 148.98 51.40 149.23 51.69 C 150.58 49.44 151.95 47.20 153.34 44.97 C 147.82 45.93 142.15 46.57 136.59 45.54 C 134.66 44.39 133.29 42.53 131.92 40.79 C 133.76 40.15 135.59 39.48 137.45 38.89 C 141.35 40.19 145.39 41.02 149.51 41.27 L 150.09 40.53 C 157.10 38.06 161.43 30.57 161.95 23.40 L 161.44 24.28 C 161.28 22.58 160.96 19.17 160.80 17.47 C 160.29 17.03 159.26 16.14 158.75 15.70 C 158.74 14.53 158.74 13.35 158.74 12.18 C 158.01 11.99 157.29 11.80 156.56 11.61 C 154.24 8.65 150.58 7.64 147.09 6.80 L 148.47 6.38 C 139.02 1.47 128.67 12.35 129.68 21.67 M 17.48 12.16 C 19.71 10.68 21.77 8.94 23.51 6.90 C 20.92 7.90 18.76 9.67 17.48 12.16 M 73.48 12.16 C 75.71 10.68 77.77 8.94 79.51 6.90 C 76.92 7.90 74.76 9.67 73.48 12.16 M 185.48 12.16 C 187.71 10.68 189.77 8.94 191.51 6.90 C 188.92 7.90 186.76 9.67 185.48 12.16 M 67.88 23.90 L 67.40 24.69 C 70.71 23.54 72.16 20.42 72.13 17.08 L 71.56 17.99 C 68.41 18.25 66.68 20.96 67.88 23.90 M 109.04 18.85 C 109.01 21.90 108.92 24.95 108.95 28.00 C 113.26 25.52 117.70 23.25 122.30 21.34 C 118.68 17.80 113.67 18.45 109.04 18.85 M 124.82 22.87 C 118.92 23.51 113.92 26.94 109.20 30.26 C 107.07 31.27 106.67 33.69 105.73 35.59 C 107.53 36.68 109.33 37.77 111.13 38.88 C 108.72 38.74 106.32 38.58 103.92 38.38 C 103.84 40.34 102.95 42.47 103.69 44.35 C 107.90 45.98 112.60 45.34 117.04 45.18 C 116.60 42.01 115.64 38.96 114.18 36.11 C 115.26 36.69 116.34 37.28 117.44 37.83 C 117.54 31.28 124.76 28.65 126.09 22.61 C 127.90 22.03 127.45 19.12 128.22 17.62 C 127.02 19.33 125.88 21.08 124.82 22.87 M 162.71 17.82 C 163.43 20.76 164.07 23.77 165.45 26.48 C 170.14 27.60 174.66 24.93 178.63 22.77 C 174.43 18.57 168.16 18.75 162.71 17.82 M 179.88 23.90 L 179.40 24.69 C 182.71 23.54 184.16 20.42 184.13 17.08 L 183.56 17.99 C 180.41 18.25 178.67 20.96 179.88 23.90 M 53.16 19.85 C 53.31 22.89 53.42 25.93 53.37 28.98 C 57.76 26.86 62.30 25.08 66.58 22.75 C 63.14 18.75 57.90 19.40 53.16 19.85 M 41.66 42.65 C 42.70 43.03 43.73 43.42 44.75 43.81 C 45.53 41.76 46.31 39.71 47.05 37.66 C 45.23 39.29 43.42 40.94 41.66 42.65 M 97.66 42.65 C 98.70 43.03 99.72 43.42 100.75 43.81 C 101.53 41.76 102.31 39.71 103.05 37.66 C 101.23 39.29 99.42 40.94 97.66 42.65 M 157.18 41.21 C 156.01 41.45 154.84 41.69 153.68 41.95 C 155.05 43.10 156.42 44.28 157.81 45.43 C 157.69 44.67 157.47 43.14 157.35 42.38 C 158.94 42.78 160.41 39.97 159.56 38.65 C 158.19 38.18 157.28 40.09 157.18 41.21 M 209.66 42.65 C 210.69 43.03 211.72 43.42 212.75 43.81 C 213.53 41.76 214.30 39.71 215.05 37.66 C 213.23 39.29 211.42 40.94 209.66 42.65 Z" />
</g>
<g id="#4079ccff">
<path fill="#4079cc" opacity="1.00" d=" M 151.69 0.00 L 154.34 0.00 C 157.72 4.50 163.12 4.16 168.18 3.48 C 167.95 4.53 167.73 5.58 167.51 6.62 C 163.48 6.14 159.40 5.87 155.44 4.98 C 153.65 3.82 152.80 1.74 151.69 0.00 Z" />
</g>
<g id="#3c6bbefe">
<path fill="#3c6bbe" opacity="1.00" d=" M 204.15 0.00 L 224.00 0.00 L 224.00 3.43 C 217.52 2.72 209.25 5.34 204.15 0.00 Z" />
<path fill="#3c6bbe" opacity="1.00" d=" M 0.00 38.19 C 0.70 38.63 2.10 39.51 2.80 39.96 C 3.45 44.67 3.57 49.46 2.80 54.16 C 5.49 54.51 8.18 54.86 10.86 55.22 C 8.65 53.26 6.48 51.24 4.41 49.12 C 5.79 49.83 7.16 50.55 8.53 51.28 C 9.82 51.98 11.11 52.67 12.40 53.36 C 14.10 54.28 15.81 55.18 17.57 56.00 L 0.00 56.00 L 0.00 38.19 Z" />
</g>
<g id="#2393d3ff">
<path fill="#2393d3" opacity="1.00" d=" M 27.16 6.10 C 30.57 3.72 34.92 5.83 38.24 7.45 C 29.70 5.34 24.31 13.30 19.60 19.01 C 18.82 19.82 18.05 20.64 17.30 21.48 C 18.76 15.49 21.78 9.43 27.16 6.10 Z" />
</g>
<g id="#2490d6ff">
<path fill="#2490d6" opacity="1.00" d=" M 73.34 21.55 C 74.95 13.57 81.78 1.33 91.65 6.65 C 89.06 7.31 86.47 7.99 83.93 8.85 C 79.07 11.76 76.22 16.86 73.34 21.55 Z" />
<path fill="#2490d6" opacity="1.00" d=" M 185.34 21.55 C 186.95 13.57 193.78 1.33 203.65 6.65 C 201.06 7.31 198.47 7.99 195.93 8.85 C 191.07 11.76 188.22 16.86 185.34 21.55 Z" />
</g>
<g id="#2590d6ff">
<path fill="#2590d6" opacity="1.00" d=" M 129.68 21.67 C 128.67 12.35 139.02 1.47 148.47 6.38 L 147.09 6.80 C 144.70 7.49 142.29 8.11 139.93 8.89 C 135.02 11.69 132.16 16.79 129.68 21.67 Z" />
</g>
<g id="#268ed9ff">
<path fill="#268ed9" opacity="1.00" d=" M 17.48 12.16 C 18.76 9.67 20.92 7.90 23.51 6.90 C 21.77 8.94 19.71 10.68 17.48 12.16 Z" />
<path fill="#268ed9" opacity="1.00" d=" M 73.48 12.16 C 74.76 9.67 76.92 7.90 79.51 6.90 C 77.77 8.94 75.71 10.68 73.48 12.16 Z" />
<path fill="#268ed9" opacity="1.00" d=" M 185.48 12.16 C 186.76 9.67 188.92 7.90 191.51 6.90 C 189.77 8.94 187.71 10.68 185.48 12.16 Z" />
<path fill="#268ed9" opacity="1.00" d=" M 15.07 19.22 C 15.32 18.86 15.82 18.14 16.07 17.77 C 15.95 20.70 13.85 22.76 11.78 24.54 C 12.79 22.72 13.89 20.94 15.07 19.22 Z" />
<path fill="#268ed9" opacity="1.00" d=" M 124.82 22.87 C 125.88 21.08 127.02 19.33 128.22 17.62 C 127.45 19.12 127.90 22.03 126.09 22.61 L 124.82 22.87 Z" />
<path fill="#268ed9" opacity="1.00" d=" M 63.78 40.23 C 63.91 34.81 67.25 30.45 70.44 26.38 C 69.71 28.42 69.16 30.51 68.49 32.57 C 68.29 32.93 67.91 33.64 67.72 34.00 C 66.47 36.11 65.06 38.13 63.78 40.23 Z" />
<path fill="#268ed9" opacity="1.00" d=" M 175.78 40.23 C 175.91 34.81 179.25 30.45 182.44 26.38 C 181.71 28.42 181.15 30.51 180.49 32.57 C 180.29 32.93 179.91 33.64 179.72 34.00 C 178.47 36.11 177.06 38.13 175.78 40.23 Z" />
<path fill="#268ed9" opacity="1.00" d=" M 75.96 40.66 C 76.31 37.56 78.70 35.47 80.99 33.64 C 81.11 35.51 81.22 37.39 81.35 39.26 C 79.55 39.70 77.75 40.18 75.96 40.66 Z" />
<path fill="#268ed9" opacity="1.00" d=" M 131.92 40.79 C 132.27 37.69 134.61 35.56 136.87 33.68 C 137.08 35.41 137.24 37.16 137.45 38.89 C 135.59 39.48 133.76 40.15 131.92 40.79 Z" />
<path fill="#268ed9" opacity="1.00" d=" M 187.96 40.66 C 188.31 37.56 190.70 35.47 192.99 33.64 C 193.11 35.51 193.22 37.39 193.35 39.26 C 191.54 39.70 189.75 40.18 187.96 40.66 Z" />
<path fill="#268ed9" opacity="1.00" d=" M 150.63 51.84 C 151.33 50.69 151.84 49.20 153.20 48.66 C 154.80 50.53 152.35 51.92 150.63 51.84 Z" />
</g>
<g id="#41cebdff">
<path fill="#41cebd" opacity="1.00" d=" M 19.60 19.01 C 24.31 13.30 29.70 5.34 38.24 7.45 C 39.61 8.21 40.89 9.12 42.14 10.07 C 43.29 12.34 44.27 14.69 45.20 17.05 C 43.04 13.27 39.21 11.00 35.18 9.64 C 34.79 9.63 34.01 9.60 33.62 9.59 C 30.93 10.37 28.44 11.70 26.09 13.22 C 26.90 13.19 28.51 13.14 29.32 13.12 C 27.64 14.77 25.95 16.40 24.29 18.07 C 22.73 18.38 21.16 18.68 19.60 19.01 Z" />
</g>
<g id="#21a5c4ff">
<path fill="#21a5c4" opacity="1.00" d=" M 40.34 6.22 C 42.74 8.34 45.03 10.58 47.25 12.89 C 45.04 13.68 46.77 16.76 48.46 14.93 C 49.27 17.86 49.81 20.87 49.97 23.91 C 49.57 24.40 48.77 25.40 48.37 25.89 C 48.62 24.48 47.95 23.08 46.85 22.21 C 46.91 21.65 47.03 20.54 47.09 19.98 C 47.18 19.27 47.36 17.84 47.44 17.13 C 46.97 17.32 46.02 17.72 45.54 17.92 L 45.20 17.05 C 44.27 14.69 43.29 12.34 42.14 10.07 C 41.53 8.79 40.93 7.51 40.34 6.22 Z" />
</g>
<g id="#40cdbdff">
<path fill="#40cdbd" opacity="1.00" d=" M 83.93 8.85 C 86.47 7.99 89.06 7.31 91.65 6.65 C 93.90 9.56 97.18 11.75 100.99 10.74 C 101.95 12.15 102.66 13.71 103.22 15.32 C 103.15 16.91 103.03 18.51 102.93 20.10 C 100.20 21.40 102.41 25.65 103.36 21.71 C 103.72 23.14 104.07 24.58 104.42 26.02 C 101.97 29.75 99.40 33.40 96.79 37.02 C 93.03 37.90 89.19 38.41 85.34 38.71 C 87.13 36.18 88.56 33.36 88.79 30.22 C 82.42 30.76 76.62 33.46 72.03 37.99 C 74.30 41.62 76.89 45.08 80.07 47.97 C 77.39 45.89 74.00 44.63 71.68 42.11 C 71.32 40.48 71.83 38.81 72.09 37.20 C 72.88 36.08 73.72 35.01 74.57 33.95 C 77.21 32.15 79.89 30.40 82.31 28.30 C 76.27 26.44 71.65 30.24 67.72 34.00 C 67.91 33.64 68.29 32.93 68.49 32.57 C 70.87 29.04 73.72 24.38 78.97 26.02 C 83.73 27.66 88.18 30.16 93.09 31.45 C 92.28 27.82 95.12 22.84 92.19 19.65 C 90.88 16.94 87.50 17.42 85.03 17.26 L 84.07 17.46 C 82.00 17.94 79.94 18.46 77.87 18.97 C 79.88 15.59 81.93 12.23 83.93 8.85 M 83.48 11.14 L 89.20 11.92 C 86.62 13.03 84.16 14.44 82.21 16.49 C 85.16 16.31 88.10 16.07 91.05 15.84 L 92.21 15.90 C 94.16 18.62 95.39 21.77 95.72 25.14 C 95.99 24.88 96.54 24.35 96.81 24.09 L 96.93 25.22 C 95.20 29.81 92.26 33.74 88.95 37.30 C 92.61 34.88 96.94 33.05 99.81 29.66 C 101.25 23.66 102.58 15.23 96.23 11.74 C 92.35 9.22 87.73 10.56 83.48 11.14 Z" />
<path fill="#40cdbd" opacity="1.00" d=" M 195.93 8.85 C 198.47 7.99 201.06 7.31 203.65 6.65 C 205.90 9.56 209.18 11.75 212.99 10.74 C 213.95 12.15 214.66 13.71 215.22 15.32 C 215.15 16.91 215.03 18.51 214.93 20.10 C 212.20 21.40 214.41 25.65 215.36 21.71 C 215.72 23.14 216.07 24.58 216.42 26.02 C 213.97 29.75 211.40 33.40 208.79 37.02 C 205.03 37.90 201.19 38.41 197.34 38.71 C 199.13 36.18 200.56 33.36 200.79 30.22 C 194.42 30.76 188.62 33.46 184.03 37.99 C 186.30 41.62 188.89 45.08 192.07 47.97 C 189.38 45.89 186.00 44.63 183.68 42.11 C 183.32 40.48 183.83 38.81 184.09 37.20 C 184.87 36.08 185.72 35.01 186.57 33.95 C 189.21 32.15 191.89 30.40 194.31 28.30 C 188.27 26.44 183.65 30.24 179.72 34.00 C 179.91 33.64 180.29 32.93 180.49 32.57 C 182.87 29.04 185.72 24.38 190.97 26.02 C 195.73 27.66 200.18 30.16 205.09 31.45 C 204.27 27.82 207.12 22.84 204.19 19.65 C 202.87 16.94 199.50 17.42 197.03 17.26 L 196.07 17.46 C 194.00 17.94 191.94 18.46 189.87 18.97 C 191.88 15.59 193.93 12.23 195.93 8.85 M 195.48 11.14 L 201.20 11.92 C 198.62 13.03 196.16 14.44 194.21 16.49 C 197.16 16.31 200.09 16.07 203.05 15.84 L 204.21 15.90 C 206.16 18.62 207.39 21.77 207.72 25.14 C 207.99 24.88 208.54 24.35 208.81 24.09 L 208.93 25.22 C 207.20 29.81 204.26 33.74 200.95 37.30 C 204.61 34.88 208.94 33.05 211.81 29.66 C 213.25 23.66 214.58 15.23 208.23 11.74 C 204.34 9.22 199.73 10.56 195.48 11.14 Z" />
</g>
<g id="#1aa9c1ff">
<path fill="#1aa9c1" opacity="1.00" d=" M 91.65 6.65 C 94.89 7.70 98.05 9.01 100.99 10.74 C 97.18 11.75 93.90 9.56 91.65 6.65 Z" />
<path fill="#1aa9c1" opacity="1.00" d=" M 147.09 6.80 C 150.58 7.64 154.24 8.65 156.56 11.61 C 153.03 10.88 149.75 9.25 147.09 6.80 Z" />
<path fill="#1aa9c1" opacity="1.00" d=" M 203.65 6.65 C 206.89 7.70 210.05 9.01 212.99 10.74 C 209.18 11.75 205.90 9.56 203.65 6.65 Z" />
</g>
<g id="#42cebdfe">
<path fill="#42cebd" opacity="1.00" d=" M 139.93 8.89 C 142.29 8.11 144.70 7.49 147.09 6.80 C 149.75 9.25 153.03 10.88 156.56 11.61 C 157.29 11.80 158.01 11.99 158.74 12.18 C 158.74 13.35 158.74 14.53 158.75 15.70 C 158.76 17.16 158.80 18.62 158.85 20.08 C 156.18 21.42 158.43 25.67 159.31 21.71 C 159.69 23.16 160.03 24.62 160.38 26.08 C 157.96 29.81 155.45 33.48 152.81 37.06 C 148.88 38.03 144.84 38.33 140.80 38.36 C 142.45 36.76 144.10 35.18 145.78 33.61 C 145.11 32.54 144.43 31.47 143.75 30.40 C 137.71 30.95 132.39 33.79 128.02 38.00 C 130.96 43.63 136.54 47.22 139.47 52.85 C 129.76 54.67 117.81 44.68 122.52 34.58 C 122.80 34.18 123.38 33.37 123.67 32.96 C 125.64 30.44 127.61 27.92 129.59 25.41 C 136.64 25.49 142.46 29.74 149.09 31.45 C 148.72 27.13 151.35 21.23 146.83 18.11 C 142.71 16.41 138.15 17.91 133.96 18.67 C 135.98 15.42 137.98 12.17 139.93 8.89 M 139.58 14.87 C 142.48 14.65 145.41 14.47 148.31 14.14 L 148.19 14.59 C 149.92 17.66 152.12 20.59 152.94 24.07 C 152.86 27.04 151.93 29.93 151.38 32.83 L 151.08 34.30 C 158.11 28.72 158.68 16.27 150.54 11.43 C 146.67 7.94 142.58 12.51 139.58 14.87 M 130.10 27.98 C 127.34 31.59 124.38 35.17 122.73 39.46 L 123.38 38.71 C 123.50 39.18 123.73 40.12 123.85 40.59 C 124.98 45.08 128.83 47.49 133.20 48.15 C 131.51 45.93 129.68 43.68 127.12 42.43 C 127.10 42.07 127.08 41.34 127.06 40.98 C 127.95 34.99 133.15 31.82 137.19 28.06 C 135.42 28.04 131.87 28.00 130.10 27.98 M 151.38 32.83 C 152.96 29.08 147.37 32.39 151.38 32.83 M 133.20 48.15 C 131.85 48.80 131.82 49.47 133.11 50.17 C 134.44 49.52 134.48 48.85 133.20 48.15 Z" />
</g>
<g id="#1aa8c2ff">
<path fill="#1aa8c2" opacity="1.00" d=" M 73.34 21.55 C 76.22 16.86 79.07 11.76 83.93 8.85 C 81.93 12.23 79.88 15.59 77.87 18.97 C 79.94 18.46 82.00 17.94 84.07 17.46 C 82.09 18.95 79.88 20.43 78.89 22.81 C 81.22 25.33 84.85 25.48 87.99 26.01 C 89.43 24.62 90.86 23.22 92.30 21.82 C 90.22 19.81 87.84 18.09 85.03 17.26 C 87.50 17.42 90.88 16.94 92.19 19.65 C 95.12 22.84 92.28 27.82 93.09 31.45 C 88.18 30.16 83.73 27.66 78.97 26.02 C 73.72 24.38 70.87 29.04 68.49 32.57 C 69.16 30.51 69.71 28.42 70.44 26.38 C 71.47 24.80 72.47 23.21 73.34 21.55 Z" />
<path fill="#1aa8c2" opacity="1.00" d=" M 129.68 21.67 C 132.16 16.79 135.02 11.69 139.93 8.89 C 137.98 12.17 135.98 15.42 133.96 18.67 C 138.15 17.91 142.71 16.41 146.83 18.11 C 151.35 21.23 148.72 27.13 149.09 31.45 C 142.46 29.74 136.64 25.49 129.59 25.41 C 127.61 27.92 125.64 30.44 123.67 32.96 C 125.39 29.05 127.73 25.46 129.68 21.67 M 140.49 17.56 L 141.27 18.07 L 140.46 18.83 C 138.39 19.58 136.36 20.41 134.33 21.24 C 136.38 24.90 140.35 26.45 144.54 26.25 L 143.75 25.85 C 145.09 24.61 146.32 23.25 147.64 21.99 L 148.43 22.43 C 146.67 19.57 143.89 17.74 140.49 17.56 Z" />
<path fill="#1aa8c2" opacity="1.00" d=" M 185.34 21.55 C 188.22 16.86 191.07 11.76 195.93 8.85 C 193.93 12.23 191.88 15.59 189.87 18.97 C 191.94 18.46 194.00 17.94 196.07 17.46 C 194.09 18.95 191.88 20.43 190.89 22.81 C 193.22 25.33 196.84 25.48 199.99 26.01 C 201.43 24.62 202.86 23.22 204.30 21.82 C 202.22 19.81 199.84 18.09 197.03 17.26 C 199.50 17.42 202.87 16.94 204.19 19.65 C 207.12 22.84 204.27 27.82 205.09 31.45 C 200.18 30.16 195.73 27.66 190.97 26.02 C 185.72 24.38 182.87 29.04 180.49 32.57 C 181.15 30.51 181.71 28.42 182.44 26.38 C 183.47 24.80 184.47 23.21 185.34 21.55 Z" />
<path fill="#1aa8c2" opacity="1.00" d=" M 17.30 21.48 C 18.05 20.64 18.82 19.82 19.60 19.01 C 21.16 18.68 22.73 18.38 24.29 18.07 L 25.32 17.86 C 26.00 17.74 27.36 17.51 28.04 17.39 C 26.40 18.66 24.79 19.98 23.17 21.28 C 23.70 22.65 24.23 24.02 24.75 25.39 C 23.17 25.27 19.99 25.04 18.41 24.92 C 16.47 27.49 14.39 29.96 12.53 32.59 C 13.22 30.58 13.84 28.54 14.63 26.56 C 15.57 24.89 16.47 23.20 17.30 21.48 Z" />
</g>
<g id="#a0e1a3ff">
<path fill="#a0e1a3" opacity="1.00" d=" M 26.09 13.22 C 28.44 11.70 30.93 10.37 33.62 9.59 C 32.87 10.22 32.15 10.88 31.45 11.56 C 30.92 11.95 29.85 12.73 29.32 13.12 C 28.51 13.14 26.90 13.19 26.09 13.22 Z" />
</g>
<g id="#d5f1dffe">
<path fill="#d5f1df" opacity="1.00" d=" M 33.62 9.59 C 34.01 9.60 34.79 9.63 35.18 9.64 C 35.65 11.27 34.06 12.17 32.76 12.59 C 32.43 12.33 31.78 11.82 31.45 11.56 C 32.15 10.88 32.87 10.22 33.62 9.59 Z" />
<path fill="#d5f1df" opacity="1.00" d=" M 148.31 14.14 C 149.74 14.02 152.00 13.46 152.68 15.18 C 152.01 17.29 149.21 15.63 148.19 14.59 L 148.31 14.14 Z" />
</g>
<g id="#a0e0a3ff">
<path fill="#a0e0a3" opacity="1.00" d=" M 35.18 9.64 C 39.21 11.00 43.04 13.27 45.20 17.05 L 45.54 17.92 C 45.46 18.44 45.31 19.48 45.23 20.00 C 44.37 19.08 43.52 18.15 42.67 17.21 C 41.85 17.54 41.03 17.85 40.20 18.14 C 40.80 22.19 41.41 26.23 41.92 30.29 C 41.00 34.60 37.46 37.05 33.23 37.39 C 35.29 34.13 37.92 31.01 38.68 27.13 C 39.09 23.21 38.01 19.27 36.54 15.66 C 38.35 15.87 40.17 16.07 41.98 16.26 C 38.40 13.35 33.76 13.15 29.45 14.22 C 30.94 14.55 33.91 15.20 35.40 15.53 C 32.02 16.24 28.69 17.11 25.32 17.86 L 24.29 18.07 C 25.95 16.40 27.64 14.77 29.32 13.12 C 30.41 14.01 31.83 13.37 32.76 12.59 C 34.06 12.17 35.65 11.27 35.18 9.64 Z" />
<path fill="#a0e0a3" opacity="1.00" d=" M 139.58 14.87 C 142.58 12.51 146.67 7.94 150.54 11.43 C 158.68 16.27 158.11 28.72 151.08 34.30 L 151.38 32.83 C 151.93 29.93 152.86 27.04 152.94 24.07 C 152.12 20.59 149.92 17.66 148.19 14.59 C 149.21 15.63 152.01 17.29 152.68 15.18 C 152.00 13.46 149.74 14.02 148.31 14.14 C 145.41 14.47 142.48 14.65 139.58 14.87 M 152.96 18.24 C 153.44 20.69 154.10 23.10 154.89 25.47 C 154.76 22.97 155.75 19.66 152.96 18.24 Z" />
</g>
<g id="#a1e1a5ff">
<path fill="#a1e1a5" opacity="1.00" d=" M 83.48 11.14 C 87.73 10.56 92.35 9.22 96.23 11.74 C 102.58 15.23 101.25 23.66 99.81 29.66 C 96.94 33.05 92.61 34.88 88.95 37.30 C 92.26 33.74 95.20 29.81 96.93 25.22 C 97.88 25.29 98.84 25.35 99.79 25.43 C 99.74 23.91 99.65 20.88 99.60 19.37 C 98.51 19.35 97.43 19.33 96.35 19.31 C 96.51 20.90 96.65 22.50 96.81 24.09 C 96.54 24.35 95.99 24.88 95.72 25.14 C 95.39 21.77 94.16 18.62 92.21 15.90 C 94.10 16.01 96.00 16.13 97.89 16.24 C 95.38 14.96 92.85 13.69 90.31 12.46 C 90.55 13.58 90.80 14.71 91.05 15.84 C 88.10 16.07 85.16 16.31 82.21 16.49 C 84.16 14.44 86.62 13.03 89.20 11.92 L 83.48 11.14 Z" />
<path fill="#a1e1a5" opacity="1.00" d=" M 195.48 11.14 C 199.73 10.56 204.34 9.22 208.23 11.74 C 214.58 15.23 213.25 23.66 211.81 29.66 C 208.94 33.05 204.61 34.88 200.95 37.30 C 204.26 33.74 207.20 29.81 208.93 25.22 C 209.88 25.29 210.84 25.35 211.79 25.43 C 211.74 23.91 211.65 20.88 211.60 19.37 C 210.51 19.35 209.43 19.33 208.35 19.31 C 208.50 20.90 208.65 22.50 208.81 24.09 C 208.54 24.35 207.99 24.88 207.72 25.14 C 207.39 21.77 206.16 18.62 204.21 15.90 C 206.10 16.01 208.00 16.13 209.89 16.24 C 207.37 14.96 204.85 13.69 202.31 12.46 C 202.55 13.58 202.80 14.71 203.05 15.84 C 200.09 16.07 197.16 16.31 194.21 16.49 C 196.16 14.44 198.62 13.03 201.20 11.92 L 195.48 11.14 Z" />
</g>
<g id="#41cfbeff">
<path fill="#41cfbe" opacity="1.00" d=" M 29.32 13.12 C 29.85 12.73 30.92 11.95 31.45 11.56 C 31.78 11.82 32.43 12.33 32.76 12.59 C 31.83 13.37 30.41 14.01 29.32 13.12 Z" />
<path fill="#41cfbe" opacity="1.00" d=" M 46.85 22.21 C 47.95 23.08 48.62 24.48 48.37 25.89 C 48.17 26.14 47.77 26.63 47.57 26.87 C 46.68 25.49 46.57 23.79 46.85 22.21 Z" />
</g>
<g id="#d4f2dfff">
<path fill="#d4f2df" opacity="1.00" d=" M 29.45 14.22 C 33.76 13.15 38.40 13.35 41.98 16.26 C 40.17 16.07 38.35 15.87 36.54 15.66 L 35.40 15.53 C 33.91 15.20 30.94 14.55 29.45 14.22 Z" />
<path fill="#d4f2df" opacity="1.00" d=" M 96.35 19.31 C 97.43 19.33 98.51 19.35 99.60 19.37 C 99.65 20.88 99.74 23.91 99.79 25.43 C 98.84 25.35 97.88 25.29 96.93 25.22 L 96.81 24.09 C 96.65 22.50 96.51 20.90 96.35 19.31 Z" />
<path fill="#d4f2df" opacity="1.00" d=" M 208.35 19.31 C 209.43 19.33 210.51 19.35 211.60 19.37 C 211.65 20.88 211.74 23.91 211.79 25.43 C 210.84 25.35 209.88 25.29 208.93 25.22 L 208.81 24.09 C 208.65 22.50 208.50 20.90 208.35 19.31 Z" />
</g>
<g id="#37c5bfff">
<path fill="#37c5bf" opacity="1.00" d=" M 48.46 14.93 C 46.77 16.76 45.04 13.68 47.25 12.89 C 47.56 13.40 48.16 14.42 48.46 14.93 Z" />
</g>
<g id="#d4f1dffe">
<path fill="#d4f1df" opacity="1.00" d=" M 90.31 12.46 C 92.85 13.69 95.38 14.96 97.89 16.24 C 96.00 16.13 94.10 16.01 92.21 15.90 L 91.05 15.84 C 90.80 14.71 90.55 13.58 90.31 12.46 Z" />
<path fill="#d4f1df" opacity="1.00" d=" M 202.31 12.46 C 204.85 13.69 207.37 14.96 209.89 16.24 C 208.00 16.13 206.10 16.01 204.21 15.90 L 203.05 15.84 C 202.80 14.71 202.55 13.58 202.31 12.46 Z" />
</g>
<g id="#43cebdff">
<path fill="#43cebd" opacity="1.00" d=" M 25.32 17.86 C 28.69 17.11 32.02 16.24 35.40 15.53 L 36.54 15.66 C 38.01 19.27 39.09 23.21 38.68 27.13 C 37.92 31.01 35.29 34.13 33.23 37.39 C 37.46 37.05 41.00 34.60 41.92 30.29 C 43.29 26.95 44.36 23.50 45.23 20.00 C 45.31 19.48 45.46 18.44 45.54 17.92 C 46.02 17.72 46.97 17.32 47.44 17.13 C 47.36 17.84 47.18 19.27 47.09 19.98 C 46.07 23.86 44.70 27.63 43.20 31.34 C 44.14 30.50 45.08 29.66 45.99 28.79 C 43.18 34.25 39.30 39.72 32.92 41.05 L 32.07 40.93 C 29.13 40.08 26.66 38.12 25.41 35.31 C 28.55 35.04 31.69 34.73 34.81 34.27 C 33.29 34.11 31.77 33.95 30.25 33.80 C 30.87 32.60 31.49 31.40 32.11 30.20 C 26.41 31.05 20.10 32.92 18.03 39.13 C 18.12 42.91 21.61 45.43 23.98 47.98 C 21.20 45.73 18.41 43.49 15.65 41.21 C 15.56 42.16 15.47 43.10 15.38 44.05 C 15.63 41.34 15.78 38.51 17.06 36.04 C 20.97 31.93 26.07 29.46 31.44 27.90 C 27.83 27.66 24.22 27.29 20.60 27.51 C 17.16 28.87 14.54 31.63 11.81 34.03 C 11.99 33.67 12.35 32.95 12.53 32.59 C 14.39 29.96 16.47 27.49 18.41 24.92 C 19.99 25.04 23.17 25.27 24.75 25.39 C 26.89 25.69 29.03 26.00 31.16 26.33 C 32.48 27.44 33.82 28.53 35.18 29.59 C 35.93 26.76 37.06 23.99 37.29 21.06 C 35.84 17.76 32.25 17.02 29.02 17.25 L 28.04 17.39 C 27.36 17.51 26.00 17.74 25.32 17.86 Z" />
</g>
<g id="#1cabc1ff">
<path fill="#1cabc1" opacity="1.00" d=" M 102.93 20.10 C 103.03 18.51 103.15 16.91 103.22 15.32 C 104.24 18.11 105.05 20.96 105.85 23.82 C 105.49 24.37 104.77 25.47 104.42 26.02 C 104.07 24.58 103.72 23.14 103.36 21.71 C 103.25 21.31 103.03 20.50 102.93 20.10 Z" />
<path fill="#1cabc1" opacity="1.00" d=" M 158.85 20.08 C 158.80 18.62 158.76 17.16 158.75 15.70 C 159.26 16.14 160.29 17.03 160.80 17.47 C 160.96 19.17 161.28 22.58 161.44 24.28 C 161.18 24.73 160.65 25.63 160.38 26.08 C 160.03 24.62 159.69 23.16 159.31 21.71 C 159.20 21.30 158.97 20.49 158.85 20.08 Z" />
<path fill="#1cabc1" opacity="1.00" d=" M 214.93 20.10 C 215.03 18.51 215.15 16.91 215.22 15.32 C 216.24 18.11 217.04 20.96 217.85 23.82 C 217.49 24.37 216.77 25.47 216.42 26.02 C 216.07 24.58 215.72 23.14 215.36 21.71 C 215.25 21.31 215.03 20.50 214.93 20.10 Z" />
</g>
<g id="#1aa8c1ff">
<path fill="#1aa8c1" opacity="1.00" d=" M 29.02 17.25 C 32.25 17.02 35.84 17.76 37.29 21.06 C 37.06 23.99 35.93 26.76 35.18 29.59 C 33.82 28.53 32.48 27.44 31.16 26.33 L 31.88 25.84 C 33.37 24.61 34.76 23.27 36.12 21.90 C 34.33 19.61 31.85 17.97 29.02 17.25 Z" />
</g>
<g id="#d5f2dfff">
<path fill="#d5f2df" opacity="1.00" d=" M 40.20 18.14 C 41.03 17.85 41.85 17.54 42.67 17.21 C 43.52 18.15 44.37 19.08 45.23 20.00 C 44.36 23.50 43.29 26.95 41.92 30.29 C 41.41 26.23 40.80 22.19 40.20 18.14 Z" />
</g>
<g id="#288cd7ff">
<path fill="#288cd7" opacity="1.00" d=" M 28.04 17.39 L 29.02 17.25 C 31.85 17.97 34.33 19.61 36.12 21.90 C 34.11 21.05 32.22 19.77 30.03 19.39 C 27.90 19.86 26.00 21.00 24.06 21.94 C 26.61 23.34 29.23 24.62 31.88 25.84 L 31.16 26.33 C 29.03 26.00 26.89 25.69 24.75 25.39 C 24.23 24.02 23.70 22.65 23.17 21.28 C 24.79 19.98 26.40 18.66 28.04 17.39 Z" />
<path fill="#288cd7" opacity="1.00" d=" M 84.07 17.46 L 85.03 17.26 C 87.84 18.09 90.22 19.81 92.30 21.82 C 90.22 20.98 88.24 19.81 86.02 19.41 C 83.89 19.85 81.99 21.02 80.05 21.95 C 82.67 23.35 85.33 24.67 87.99 26.01 C 84.85 25.48 81.22 25.33 78.89 22.81 C 79.88 20.43 82.09 18.95 84.07 17.46 Z" />
<path fill="#288cd7" opacity="1.00" d=" M 140.49 17.56 C 143.89 17.74 146.67 19.57 148.43 22.43 L 147.64 21.99 C 145.48 20.74 143.37 19.42 141.27 18.07 L 140.49 17.56 Z" />
<path fill="#288cd7" opacity="1.00" d=" M 196.07 17.46 L 197.03 17.26 C 199.84 18.09 202.22 19.81 204.30 21.82 C 202.22 20.98 200.24 19.81 198.02 19.41 C 195.89 19.85 193.99 21.02 192.05 21.95 C 194.67 23.35 197.33 24.67 199.99 26.01 C 196.84 25.48 193.22 25.33 190.89 22.81 C 191.88 20.43 194.09 18.95 196.07 17.46 Z" />
</g>
<g id="#3c6dbfff">
<path fill="#3c6dbf" opacity="1.00" d=" M 67.88 23.90 C 66.68 20.96 68.41 18.25 71.56 17.99 C 70.32 19.95 69.06 21.90 67.88 23.90 Z" />
<path fill="#3c6dbf" opacity="1.00" d=" M 179.88 23.90 C 178.67 20.96 180.41 18.25 183.56 17.99 C 182.32 19.95 181.06 21.90 179.88 23.90 Z" />
</g>
<g id="#298bd7ff">
<path fill="#298bd7" opacity="1.00" d=" M 71.56 17.99 L 72.13 17.08 C 72.16 20.42 70.71 23.54 67.40 24.69 L 67.88 23.90 C 69.06 21.90 70.32 19.95 71.56 17.99 Z" />
<path fill="#298bd7" opacity="1.00" d=" M 183.56 17.99 L 184.13 17.08 C 184.16 20.42 182.71 23.54 179.40 24.69 L 179.88 23.90 C 181.06 21.90 182.32 19.95 183.56 17.99 Z" />
</g>
<g id="#3c6abeff">
<path fill="#3c6abe" opacity="1.00" d=" M 109.04 18.85 C 113.67 18.45 118.68 17.80 122.30 21.34 C 117.70 23.25 113.26 25.52 108.95 28.00 C 108.92 24.95 109.01 21.90 109.04 18.85 Z" />
<path fill="#3c6abe" opacity="1.00" d=" M 53.16 19.85 C 57.90 19.40 63.14 18.75 66.58 22.75 C 62.30 25.08 57.76 26.86 53.37 28.98 C 53.42 25.93 53.31 22.89 53.16 19.85 Z" />
</g>
<g id="#3c6bbdfe">
<path fill="#3c6bbd" opacity="1.00" d=" M 162.71 17.82 C 168.16 18.75 174.43 18.57 178.63 22.77 C 174.66 24.93 170.14 27.60 165.45 26.48 C 164.07 23.77 163.43 20.76 162.71 17.82 Z" />
</g>
<g id="#427ccafe">
<path fill="#427cca" opacity="1.00" d=" M 24.06 21.94 C 26.00 21.00 27.90 19.86 30.03 19.39 C 32.22 19.77 34.11 21.05 36.12 21.90 C 34.76 23.27 33.37 24.61 31.88 25.84 C 29.23 24.62 26.61 23.34 24.06 21.94 Z" />
<path fill="#427cca" opacity="1.00" d=" M 80.05 21.95 C 81.99 21.02 83.89 19.85 86.02 19.41 C 88.24 19.81 90.22 20.98 92.30 21.82 C 90.86 23.22 89.43 24.62 87.99 26.01 C 85.33 24.67 82.67 23.35 80.05 21.95 Z" />
<path fill="#427cca" opacity="1.00" d=" M 192.05 21.95 C 193.99 21.02 195.89 19.85 198.02 19.41 C 200.24 19.81 202.22 20.98 204.30 21.82 C 202.86 23.22 201.43 24.62 199.99 26.01 C 197.33 24.67 194.67 23.35 192.05 21.95 Z" />
</g>
<g id="#278dd8ff">
<path fill="#278dd8" opacity="1.00" d=" M 134.33 21.24 C 136.36 20.41 138.39 19.58 140.46 18.83 C 139.15 20.02 137.81 21.16 136.52 22.37 C 138.92 23.54 141.35 24.66 143.75 25.85 L 144.54 26.25 C 140.35 26.45 136.38 24.90 134.33 21.24 Z" />
<path fill="#278dd8" opacity="1.00" d=" M 63.60 46.45 C 64.67 47.20 65.73 47.98 66.77 48.78 C 67.28 50.49 67.82 52.20 68.30 53.92 L 67.58 53.64 L 66.70 53.19 C 66.24 52.64 65.31 51.56 64.85 51.01 C 64.37 49.51 63.96 47.98 63.60 46.45 Z" />
<path fill="#278dd8" opacity="1.00" d=" M 175.60 46.45 C 176.67 47.20 177.73 47.98 178.77 48.78 C 179.28 50.49 179.81 52.20 180.30 53.92 L 179.58 53.64 L 178.70 53.19 C 178.24 52.65 177.31 51.56 176.85 51.01 C 176.37 49.51 175.95 47.98 175.60 46.45 Z" />
</g>
<g id="#427ccaff">
<path fill="#427cca" opacity="1.00" d=" M 140.46 18.83 L 141.27 18.07 C 143.37 19.42 145.48 20.74 147.64 21.99 C 146.32 23.25 145.09 24.61 143.75 25.85 C 141.35 24.66 138.92 23.54 136.52 22.37 C 137.81 21.16 139.15 20.02 140.46 18.83 Z" />
</g>
<g id="#d5f1dfff">
<path fill="#d5f1df" opacity="1.00" d=" M 152.96 18.24 C 155.75 19.66 154.76 22.97 154.89 25.47 C 154.10 23.10 153.44 20.69 152.96 18.24 Z" />
</g>
<g id="#3c6abefe">
<path fill="#3c6abe" opacity="1.00" d=" M 0.00 19.06 C 3.88 20.29 7.76 21.62 11.17 23.90 C 7.74 26.19 3.87 27.65 0.00 29.04 L 0.00 19.06 Z" />
</g>
<g id="#a0e0a2fe">
<path fill="#a0e0a2" opacity="1.00" d=" M 43.20 31.34 C 44.70 27.63 46.07 23.86 47.09 19.98 C 47.03 20.54 46.91 21.65 46.85 22.21 C 46.57 23.79 46.68 25.49 47.57 26.87 C 47.17 27.35 46.38 28.31 45.99 28.79 C 45.08 29.66 44.14 30.50 43.20 31.34 Z" />
</g>
<g id="#a1e1a3ff">
<path fill="#a1e1a3" opacity="1.00" d=" M 103.36 21.71 C 102.41 25.65 100.20 21.40 102.93 20.10 C 103.03 20.50 103.25 21.31 103.36 21.71 Z" />
<path fill="#a1e1a3" opacity="1.00" d=" M 159.31 21.71 C 158.43 25.67 156.18 21.42 158.85 20.08 C 158.97 20.49 159.20 21.30 159.31 21.71 Z" />
<path fill="#a1e1a3" opacity="1.00" d=" M 215.36 21.71 C 214.41 25.65 212.20 21.40 214.93 20.10 C 215.03 20.50 215.25 21.31 215.36 21.71 Z" />
<path fill="#a1e1a3" opacity="1.00" d=" M 151.38 32.83 C 147.37 32.39 152.96 29.08 151.38 32.83 Z" />
<path fill="#a1e1a3" opacity="1.00" d=" M 133.20 48.15 C 134.48 48.85 134.44 49.52 133.11 50.17 C 131.82 49.47 131.85 48.80 133.20 48.15 Z" />
</g>
<g id="#2393d4ff">
<path fill="#2393d4" opacity="1.00" d=" M 49.97 23.91 C 48.87 32.37 42.76 42.17 32.92 41.05 C 39.30 39.72 43.18 34.25 45.99 28.79 C 46.38 28.31 47.17 27.35 47.57 26.87 C 47.77 26.63 48.17 26.14 48.37 25.89 C 48.77 25.40 49.57 24.40 49.97 23.91 Z" />
</g>
<g id="#258fd7ff">
<path fill="#258fd7" opacity="1.00" d=" M 105.85 23.82 C 105.36 31.27 100.49 38.16 93.66 41.17 C 94.70 39.78 95.76 38.41 96.79 37.02 C 99.40 33.40 101.97 29.75 104.42 26.02 C 104.77 25.47 105.49 24.37 105.85 23.82 Z" />
<path fill="#258fd7" opacity="1.00" d=" M 217.85 23.82 C 217.36 31.27 212.49 38.16 205.66 41.17 C 206.70 39.78 207.76 38.41 208.79 37.02 C 211.40 33.40 213.97 29.75 216.42 26.02 C 216.77 25.47 217.49 24.37 217.85 23.82 Z" />
</g>
<g id="#2590d7ff">
<path fill="#2590d7" opacity="1.00" d=" M 161.44 24.28 L 161.95 23.40 C 161.43 30.57 157.10 38.06 150.09 40.53 C 150.99 39.38 151.91 38.23 152.81 37.06 C 155.45 33.48 157.96 29.81 160.38 26.08 C 160.65 25.63 161.18 24.73 161.44 24.28 Z" />
</g>
<g id="#268dd8ff">
<path fill="#268dd8" opacity="1.00" d=" M 5.14 35.58 C 8.33 32.60 11.56 29.67 14.63 26.56 C 13.84 28.54 13.22 30.58 12.53 32.59 C 12.35 32.95 11.99 33.67 11.81 34.03 C 10.61 36.14 9.28 38.17 7.95 40.20 C 7.87 38.32 7.77 36.45 7.67 34.58 C 6.59 37.91 5.56 41.26 4.32 44.53 C 4.42 41.91 4.60 39.29 4.87 36.68 C 4.93 36.40 5.07 35.86 5.14 35.58 Z" />
</g>
<g id="#a2e1a5ff">
<path fill="#a2e1a5" opacity="1.00" d=" M 20.60 27.51 C 24.22 27.29 27.83 27.66 31.44 27.90 C 26.07 29.46 20.97 31.93 17.06 36.04 C 18.85 33.39 20.79 30.84 22.68 28.26 C 18.41 30.91 13.51 33.98 12.20 39.18 C 12.15 42.17 13.95 44.77 15.12 47.41 C 15.20 46.29 15.29 45.17 15.38 44.05 C 15.47 43.10 15.56 42.16 15.65 41.21 C 18.41 43.49 21.20 45.73 23.98 47.98 C 24.30 48.24 24.93 48.75 25.25 49.01 C 24.13 48.95 23.01 48.91 21.90 48.88 C 22.65 49.51 24.16 50.77 24.91 51.41 C 18.39 50.62 11.72 47.86 9.32 41.31 C 10.12 38.87 10.94 36.44 11.81 34.03 C 14.54 31.63 17.16 28.87 20.60 27.51 M 17.63 47.37 C 16.90 48.80 19.34 49.95 20.22 48.78 C 20.91 47.39 18.49 46.24 17.63 47.37 Z" />
</g>
<g id="#a3e1a6ff">
<path fill="#a3e1a6" opacity="1.00" d=" M 67.72 34.00 C 71.65 30.24 76.27 26.44 82.31 28.30 C 79.89 30.40 77.21 32.15 74.57 33.95 C 75.42 32.47 76.19 30.94 76.95 29.41 C 72.21 32.02 68.47 36.35 68.59 42.18 C 69.78 40.53 70.92 38.85 72.09 37.20 C 71.83 38.81 71.32 40.48 71.68 42.11 C 74.00 44.63 77.39 45.89 80.07 47.97 C 80.35 48.18 80.89 48.60 81.16 48.81 C 79.23 49.29 77.30 49.77 75.38 50.26 C 75.76 49.44 76.14 48.62 76.52 47.80 C 75.62 47.57 74.72 47.35 73.82 47.12 C 73.55 47.69 73.00 48.82 72.73 49.39 C 70.55 45.57 68.42 41.74 66.39 37.84 C 66.79 36.54 67.23 35.26 67.72 34.00 Z" />
<path fill="#a3e1a6" opacity="1.00" d=" M 179.72 34.00 C 183.65 30.24 188.27 26.44 194.31 28.30 C 191.89 30.40 189.21 32.15 186.57 33.95 C 187.42 32.47 188.18 30.94 188.95 29.41 C 184.21 32.02 180.47 36.35 180.59 42.18 C 181.78 40.53 182.91 38.85 184.09 37.20 C 183.83 38.81 183.32 40.48 183.68 42.11 C 186.00 44.63 189.38 45.89 192.07 47.97 C 192.35 48.18 192.89 48.60 193.16 48.81 C 191.23 49.29 189.30 49.77 187.38 50.26 C 187.75 49.44 188.14 48.62 188.52 47.80 C 187.62 47.57 186.72 47.35 185.82 47.12 C 185.55 47.69 185.00 48.82 184.73 49.39 C 182.55 45.57 180.42 41.74 178.39 37.84 C 178.78 36.54 179.23 35.26 179.72 34.00 Z" />
</g>
<g id="#a2e1a4ff">
<path fill="#a2e1a4" opacity="1.00" d=" M 130.10 27.98 C 131.87 28.00 135.42 28.04 137.19 28.06 C 133.15 31.82 127.95 34.99 127.06 40.98 C 127.01 39.42 126.91 36.30 126.86 34.74 C 125.70 36.06 124.52 37.36 123.38 38.71 L 122.73 39.46 C 124.38 35.17 127.34 31.59 130.10 27.98 M 130.23 30.15 C 129.26 30.40 128.00 31.56 128.65 32.63 C 130.33 34.13 133.12 29.87 130.23 30.15 Z" />
</g>
<g id="#d2f1dcff">
<path fill="#d2f1dc" opacity="1.00" d=" M 12.20 39.18 C 13.51 33.98 18.41 30.91 22.68 28.26 C 20.79 30.84 18.85 33.39 17.06 36.04 C 15.78 38.51 15.63 41.34 15.38 44.05 C 15.29 45.17 15.20 46.29 15.12 47.41 C 13.95 44.77 12.15 42.17 12.20 39.18 Z" />
</g>
<g id="#3c6bbdff">
<path fill="#3c6bbd" opacity="1.00" d=" M 217.51 35.39 C 219.07 32.38 221.40 29.92 224.00 27.77 L 224.00 45.13 C 221.08 44.93 218.13 44.72 215.23 44.52 C 215.49 42.51 215.77 40.49 216.03 38.47 C 218.36 38.60 220.70 38.74 223.03 38.87 C 221.18 37.72 219.35 36.54 217.51 35.39 Z" />
</g>
<g id="#1ba7c3ff">
<path fill="#1ba7c3" opacity="1.00" d=" M 18.03 39.13 C 20.10 32.92 26.41 31.05 32.11 30.20 C 31.49 31.40 30.87 32.60 30.25 33.80 C 31.77 33.95 33.29 34.11 34.81 34.27 C 31.69 34.73 28.55 35.04 25.41 35.31 C 24.72 35.13 24.05 34.94 23.37 34.75 C 22.19 36.36 21.03 37.99 19.90 39.64 C 20.00 39.80 20.20 40.12 20.30 40.29 C 21.65 42.16 23.07 44.00 24.67 45.67 C 28.29 47.14 32.20 47.68 36.00 48.53 C 35.10 50.14 34.13 51.70 33.24 53.31 C 32.96 53.33 32.40 53.38 32.12 53.41 C 30.00 53.19 27.88 52.94 25.77 52.66 C 27.14 51.91 28.51 51.18 29.89 50.45 C 28.34 49.97 26.79 49.49 25.25 49.01 C 24.93 48.75 24.30 48.24 23.98 47.98 C 21.61 45.43 18.12 42.91 18.03 39.13 Z" />
</g>
<g id="#d1f0daff">
<path fill="#d1f0da" opacity="1.00" d=" M 68.59 42.18 C 68.47 36.35 72.21 32.02 76.95 29.41 C 76.19 30.94 75.42 32.47 74.57 33.95 C 73.72 35.01 72.88 36.08 72.09 37.20 C 70.92 38.85 69.78 40.53 68.59 42.18 Z" />
<path fill="#d1f0da" opacity="1.00" d=" M 180.59 42.18 C 180.47 36.35 184.21 32.02 188.95 29.41 C 188.18 30.94 187.42 32.47 186.57 33.95 C 185.72 35.01 184.87 36.08 184.09 37.20 C 182.91 38.85 181.78 40.53 180.59 42.18 Z" />
</g>
<g id="#1ba8c3ff">
<path fill="#1ba8c3" opacity="1.00" d=" M 72.03 37.99 C 76.62 33.46 82.42 30.76 88.79 30.22 C 88.56 33.36 87.13 36.18 85.34 38.71 C 89.19 38.41 93.03 37.90 96.79 37.02 C 95.76 38.41 94.70 39.78 93.66 41.17 C 89.51 40.89 85.42 40.09 81.35 39.26 C 81.22 37.39 81.11 35.51 80.99 33.64 C 78.70 35.47 76.31 37.56 75.96 40.66 C 77.48 42.39 79.05 44.07 80.76 45.62 C 84.33 47.18 88.22 47.68 92.00 48.54 C 90.97 50.38 89.93 52.22 88.92 54.07 C 85.36 54.85 81.69 54.92 78.08 54.79 C 73.61 54.48 70.15 51.35 66.77 48.78 C 65.73 47.98 64.67 47.20 63.60 46.45 C 63.39 44.38 63.48 42.28 63.78 40.23 C 65.06 38.13 66.47 36.11 67.72 34.00 C 67.23 35.26 66.79 36.54 66.39 37.84 C 63.09 46.94 74.78 53.63 82.56 53.12 C 82.64 52.38 82.81 50.90 82.89 50.16 C 82.46 49.82 81.59 49.14 81.16 48.81 C 80.89 48.60 80.35 48.18 80.07 47.97 C 76.89 45.08 74.30 41.62 72.03 37.99 Z" />
<path fill="#1ba8c3" opacity="1.00" d=" M 184.03 37.99 C 188.62 33.46 194.42 30.76 200.79 30.22 C 200.56 33.36 199.13 36.18 197.34 38.71 C 201.19 38.41 205.03 37.90 208.79 37.02 C 207.76 38.41 206.70 39.78 205.66 41.17 C 201.51 40.89 197.42 40.09 193.35 39.26 C 193.22 37.39 193.11 35.51 192.99 33.64 C 190.70 35.47 188.31 37.56 187.96 40.66 C 189.48 42.39 191.05 44.07 192.76 45.62 C 196.33 47.18 200.22 47.68 204.00 48.54 C 202.97 50.39 201.93 52.22 200.92 54.07 C 197.37 54.84 193.69 54.92 190.08 54.79 C 185.61 54.48 182.15 51.35 178.77 48.78 C 177.73 47.98 176.67 47.20 175.60 46.45 C 175.39 44.38 175.47 42.28 175.78 40.23 C 177.06 38.13 178.47 36.11 179.72 34.00 C 179.23 35.26 178.78 36.54 178.39 37.84 C 175.09 46.94 186.78 53.63 194.56 53.12 C 194.64 52.38 194.81 50.90 194.89 50.16 C 194.46 49.82 193.59 49.14 193.16 48.81 C 192.89 48.60 192.35 48.18 192.07 47.97 C 188.89 45.08 186.30 41.62 184.03 37.99 Z" />
</g>
<g id="#c3eccbff">
<path fill="#c3eccb" opacity="1.00" d=" M 130.23 30.15 C 133.12 29.87 130.33 34.13 128.65 32.63 C 128.00 31.56 129.26 30.40 130.23 30.15 Z" />
</g>
<g id="#1ca9c2ff">
<path fill="#1ca9c2" opacity="1.00" d=" M 128.02 38.00 C 132.39 33.79 137.71 30.95 143.75 30.40 C 144.43 31.47 145.11 32.54 145.78 33.61 C 144.10 35.18 142.45 36.76 140.80 38.36 C 144.84 38.33 148.88 38.03 152.81 37.06 C 151.91 38.23 150.99 39.38 150.09 40.53 L 149.51 41.27 C 145.39 41.02 141.35 40.19 137.45 38.89 C 137.24 37.16 137.08 35.41 136.87 33.68 C 134.61 35.56 132.27 37.69 131.92 40.79 C 133.29 42.53 134.66 44.39 136.59 45.54 C 140.40 47.34 145.51 46.94 148.23 50.51 C 143.50 53.00 138.15 56.34 132.58 54.47 C 127.55 51.94 122.18 48.20 120.44 42.53 C 118.27 39.22 120.72 36.79 122.52 34.58 C 117.81 44.68 129.76 54.67 139.47 52.85 C 136.54 47.22 130.96 43.63 128.02 38.00 Z" />
</g>
<g id="#22aec3ff">
<path fill="#22aec3" opacity="1.00" d=" M 7.95 40.20 C 9.28 38.17 10.61 36.14 11.81 34.03 C 10.94 36.44 10.12 38.87 9.32 41.31 C 9.13 44.68 10.84 47.68 13.03 50.10 C 12.07 49.61 11.13 49.10 10.19 48.57 C 9.52 47.67 8.85 46.77 8.18 45.88 C 8.09 43.98 8.03 42.09 7.95 40.20 Z" />
</g>
<g id="#2492d4ff">
<path fill="#2492d4" opacity="1.00" d=" M 23.37 34.75 C 24.05 34.94 24.72 35.13 25.41 35.31 C 26.66 38.12 29.13 40.08 32.07 40.93 C 28.21 40.08 24.22 39.39 20.30 40.29 C 20.20 40.12 20.00 39.80 19.90 39.64 C 21.03 37.99 22.19 36.36 23.37 34.75 Z" />
</g>
<g id="#417bcbff">
<path fill="#417bcb" opacity="1.00" d=" M 4.32 44.53 C 5.56 41.26 6.59 37.91 7.67 34.58 C 7.77 36.45 7.87 38.32 7.95 40.20 C 8.03 42.09 8.09 43.98 8.18 45.88 C 8.28 47.68 8.40 49.48 8.53 51.28 C 7.16 50.55 5.79 49.83 4.41 49.12 C 6.48 51.24 8.65 53.26 10.86 55.22 C 8.18 54.86 5.49 54.51 2.80 54.16 C 3.57 49.46 3.45 44.67 2.80 39.96 C 2.10 39.51 0.70 38.63 0.00 38.19 L 0.00 37.65 C 1.62 37.32 3.24 36.98 4.87 36.68 C 4.60 39.29 4.42 41.91 4.32 44.53 Z" />
</g>
<g id="#d4f1dfff">
<path fill="#d4f1df" opacity="1.00" d=" M 123.38 38.71 C 124.52 37.36 125.70 36.06 126.86 34.74 C 126.91 36.30 127.01 39.42 127.06 40.98 C 127.08 41.34 127.10 42.07 127.12 42.43 C 126.02 41.83 124.92 41.22 123.85 40.59 C 123.73 40.12 123.50 39.18 123.38 38.71 Z" />
</g>
<g id="#2b89d6ff">
<path fill="#2b89d6" opacity="1.00" d=" M 41.66 42.65 C 43.42 40.94 45.23 39.29 47.05 37.66 C 46.31 39.71 45.53 41.76 44.75 43.81 C 43.73 43.42 42.70 43.03 41.66 42.65 Z" />
<path fill="#2b89d6" opacity="1.00" d=" M 97.66 42.65 C 99.42 40.94 101.23 39.29 103.05 37.66 C 102.31 39.71 101.53 41.76 100.75 43.81 C 99.72 43.42 98.70 43.03 97.66 42.65 Z" />
<path fill="#2b89d6" opacity="1.00" d=" M 209.66 42.65 C 211.42 40.94 213.23 39.29 215.05 37.66 C 214.30 39.71 213.53 41.76 212.75 43.81 C 211.72 43.42 210.69 43.03 209.66 42.65 Z" />
</g>
<g id="#47d0bcfe">
<path fill="#47d0bc" opacity="1.00" d=" M 82.56 53.12 C 74.78 53.63 63.09 46.94 66.39 37.84 C 68.42 41.74 70.55 45.57 72.73 49.39 C 73.00 48.82 73.55 47.69 73.82 47.12 C 74.72 47.35 75.62 47.57 76.52 47.80 C 76.14 48.62 75.76 49.44 75.38 50.26 C 77.30 49.77 79.23 49.29 81.16 48.81 C 81.59 49.14 82.46 49.82 82.89 50.16 C 82.81 50.90 82.64 52.38 82.56 53.12 Z" />
<path fill="#47d0bc" opacity="1.00" d=" M 194.56 53.12 C 186.78 53.63 175.09 46.94 178.39 37.84 C 180.42 41.74 182.55 45.57 184.73 49.39 C 185.00 48.82 185.55 47.69 185.82 47.12 C 186.72 47.35 187.62 47.57 188.52 47.80 C 188.14 48.62 187.75 49.44 187.38 50.26 C 189.30 49.77 191.23 49.29 193.16 48.81 C 193.59 49.14 194.46 49.82 194.89 50.16 C 194.81 50.90 194.64 52.38 194.56 53.12 Z" />
</g>
<g id="#3d6cbffe">
<path fill="#3d6cbf" opacity="1.00" d=" M 157.18 41.21 C 157.28 40.09 158.19 38.18 159.56 38.65 C 160.41 39.97 158.94 42.78 157.35 42.38 C 157.31 42.09 157.23 41.50 157.18 41.21 Z" />
</g>
<g id="#3fcdbeff">
<path fill="#3fcdbe" opacity="1.00" d=" M 13.03 50.10 C 10.84 47.68 9.13 44.68 9.32 41.31 C 11.72 47.86 18.39 50.62 24.91 51.41 C 24.16 50.77 22.65 49.51 21.90 48.88 C 23.01 48.91 24.13 48.95 25.25 49.01 C 26.79 49.49 28.34 49.97 29.89 50.45 C 28.51 51.18 27.14 51.91 25.77 52.66 C 27.88 52.94 30.00 53.19 32.12 53.41 C 30.73 53.70 29.36 54.05 27.99 54.40 C 26.68 52.99 24.00 53.00 23.10 54.88 C 19.77 53.23 16.33 51.82 13.03 50.10 Z" />
</g>
<g id="#a3e1a5ff">
<path fill="#a3e1a5" opacity="1.00" d=" M 123.85 40.59 C 124.92 41.22 126.02 41.83 127.12 42.43 C 129.68 43.68 131.51 45.93 133.20 48.15 C 128.83 47.49 124.98 45.08 123.85 40.59 Z" />
</g>
<g id="#298ad7ff">
<path fill="#298ad7" opacity="1.00" d=" M 153.68 41.95 C 154.84 41.69 156.01 41.45 157.18 41.21 C 157.23 41.50 157.31 42.09 157.35 42.38 C 157.47 43.14 157.69 44.67 157.81 45.43 C 156.42 44.28 155.05 43.10 153.68 41.95 Z" />
</g>
<g id="#278ed6ff">
<path fill="#278ed6" opacity="1.00" d=" M 24.67 45.67 C 30.50 45.01 36.39 44.92 42.15 43.68 C 41.17 45.80 40.18 47.91 39.15 50.00 C 40.85 49.29 42.56 48.59 44.27 47.91 C 42.30 49.50 40.44 51.24 38.28 52.58 C 36.61 52.91 34.93 53.14 33.24 53.31 C 34.13 51.70 35.10 50.14 36.00 48.53 C 32.20 47.68 28.29 47.14 24.67 45.67 Z" />
<path fill="#278ed6" opacity="1.00" d=" M 80.76 45.62 C 86.56 45.04 92.42 44.90 98.14 43.68 C 97.17 45.80 96.17 47.92 95.15 50.02 C 96.88 49.34 98.61 48.67 100.33 47.97 C 98.27 49.48 96.27 51.09 94.01 52.29 C 92.35 53.00 90.64 53.57 88.92 54.07 C 89.93 52.22 90.97 50.38 92.00 48.54 C 88.22 47.68 84.33 47.18 80.76 45.62 Z" />
<path fill="#278ed6" opacity="1.00" d=" M 192.76 45.62 C 198.56 45.04 204.42 44.90 210.15 43.68 C 209.17 45.79 208.18 47.90 207.15 49.99 C 208.88 49.33 210.61 48.67 212.35 48.02 C 210.27 49.49 208.26 51.09 206.00 52.29 C 204.35 53.00 202.64 53.57 200.92 54.07 C 201.93 52.22 202.97 50.39 204.00 48.54 C 200.22 47.68 196.33 47.18 192.76 45.62 Z" />
</g>
<g id="#278dd7ff">
<path fill="#278dd7" opacity="1.00" d=" M 136.59 45.54 C 142.15 46.57 147.82 45.93 153.34 44.97 C 151.95 47.20 150.58 49.44 149.23 51.69 C 148.98 51.40 148.48 50.81 148.23 50.51 C 145.51 46.94 140.40 47.34 136.59 45.54 Z" />
</g>
<g id="#4575cbff">
<path fill="#4575cb" opacity="1.00" d=" M 163.90 44.24 C 164.58 43.22 166.41 43.22 167.10 44.24 C 167.35 45.96 163.65 45.96 163.90 44.24 Z" />
</g>
<g id="#278dd8fe">
<path fill="#278dd8" opacity="1.00" d=" M 8.18 45.88 C 8.85 46.77 9.52 47.67 10.19 48.57 C 11.00 50.13 11.71 51.74 12.40 53.36 C 11.11 52.67 9.82 51.98 8.53 51.28 C 8.40 49.48 8.28 47.68 8.18 45.88 Z" />
</g>
<g id="#3c6bbffe">
<path fill="#3c6bbf" opacity="1.00" d=" M 100.33 47.97 C 104.84 45.51 110.36 46.14 114.66 48.77 C 115.92 47.63 117.23 46.53 118.52 45.41 C 119.36 47.06 120.19 48.72 121.02 50.38 C 118.56 50.60 116.11 50.88 113.67 51.20 C 120.13 52.48 126.59 53.89 132.84 56.00 L 92.12 56.00 C 92.73 54.75 93.36 53.52 94.01 52.29 C 96.27 51.09 98.27 49.48 100.33 47.97 Z" />
</g>
<g id="#3d6cbfff">
<path fill="#3d6cbf" opacity="1.00" d=" M 212.35 48.02 C 216.02 46.41 220.09 46.24 224.00 45.70 L 224.00 56.00 L 204.12 56.00 C 204.73 54.75 205.36 53.52 206.00 52.29 C 208.26 51.09 210.27 49.49 212.35 48.02 Z" />
</g>
<g id="#54d2b8ff">
<path fill="#54d2b8" opacity="1.00" d=" M 17.63 47.37 C 18.49 46.24 20.91 47.39 20.22 48.78 C 19.34 49.95 16.90 48.80 17.63 47.37 Z" />
</g>
<g id="#3d7dcdff">
<path fill="#3d7dcd" opacity="1.00" d=" M 10.19 48.57 C 11.13 49.10 12.07 49.61 13.03 50.10 C 16.33 51.82 19.77 53.23 23.10 54.88 C 24.32 54.76 26.77 54.52 27.99 54.40 C 29.36 54.05 30.73 53.70 32.12 53.41 C 32.40 53.38 32.96 53.33 33.24 53.31 C 34.93 53.14 36.61 52.91 38.28 52.58 C 36.47 53.78 34.61 54.89 32.74 56.00 L 17.57 56.00 C 15.81 55.18 14.10 54.28 12.40 53.36 C 11.71 51.74 11.00 50.13 10.19 48.57 Z" />
</g>
<g id="#4379caff">
<path fill="#4379ca" opacity="1.00" d=" M 68.30 53.92 C 67.82 52.20 67.28 50.49 66.77 48.78 C 70.15 51.35 73.61 54.48 78.08 54.79 C 81.69 54.92 85.36 54.85 88.92 54.07 C 90.64 53.57 92.35 53.00 94.01 52.29 C 93.36 53.52 92.73 54.75 92.12 56.00 L 73.77 56.00 C 71.92 55.36 70.12 54.62 68.30 53.92 Z" />
<path fill="#4379ca" opacity="1.00" d=" M 180.30 53.92 C 179.81 52.20 179.28 50.49 178.77 48.78 C 182.15 51.35 185.61 54.48 190.08 54.79 C 193.69 54.92 197.37 54.84 200.92 54.07 C 202.64 53.57 204.35 53.00 206.00 52.29 C 205.36 53.52 204.73 54.75 204.12 56.00 L 185.77 56.00 C 183.92 55.36 182.12 54.62 180.30 53.92 Z" />
</g>
<g id="#4378caff">
<path fill="#4378ca" opacity="1.00" d=" M 57.72 52.94 C 58.79 52.04 59.85 51.13 60.91 50.23 C 62.83 51.24 64.76 52.21 66.70 53.19 L 67.58 53.64 C 64.30 53.30 61.00 53.18 57.72 52.94 Z" />
<path fill="#4378ca" opacity="1.00" d=" M 169.72 52.94 C 170.78 52.04 171.85 51.13 172.91 50.23 C 174.83 51.24 176.76 52.21 178.70 53.19 L 179.58 53.64 C 176.30 53.30 172.99 53.18 169.72 52.94 Z" />
</g>
<g id="#1aa9c2ff">
<path fill="#1aa9c2" opacity="1.00" d=" M 23.10 54.88 C 24.00 53.00 26.68 52.99 27.99 54.40 C 26.77 54.52 24.32 54.76 23.10 54.88 Z" />
</g>
</svg>
