<?xml version="1.0" encoding="UTF-8" ?>
<!DOCTYPE svg PUBLIC "-//W3C//DTD SVG 1.1//EN" "http://www.w3.org/Graphics/SVG/1.1/DTD/svg11.dtd">
<svg width="224pt" height="56pt" viewBox="0 0 224 56" version="1.1" xmlns="http://www.w3.org/2000/svg">
<g id="#81ab59fe">
<path fill="#81ab59" opacity="1.00" d=" M 0.00 0.00 L 10.12 0.00 C 10.03 0.56 9.84 1.68 9.75 2.24 C 7.76 2.79 5.78 3.32 3.78 3.83 C 3.27 5.26 2.76 6.68 2.25 8.11 C 1.87 8.09 1.10 8.04 0.71 8.02 C 2.19 6.97 1.29 5.05 0.00 4.34 L 0.00 0.00 Z" />
</g>
<g id="#342f2aff">
<path fill="#342f2a" opacity="1.00" d=" M 10.12 0.00 L 13.03 0.00 C 13.02 0.56 13.01 1.68 13.01 2.25 C 12.43 5.75 11.53 9.23 11.62 12.80 C 12.30 10.50 12.95 8.18 13.34 5.80 C 14.13 10.15 13.16 14.44 12.09 18.62 L 11.99 19.02 C 11.63 19.28 10.92 19.80 10.56 20.07 C 10.25 16.34 9.69 12.64 9.04 8.96 C 8.34 9.09 6.94 9.35 6.24 9.48 C 6.87 13.61 7.53 17.73 8.08 21.88 C 7.57 22.26 6.54 23.03 6.03 23.41 C 5.72 22.80 5.11 21.58 4.81 20.97 C 5.56 19.10 3.60 15.89 2.44 18.98 C 2.28 19.27 1.96 19.86 1.79 20.16 C 1.34 20.25 0.45 20.43 0.00 20.53 L 0.00 7.96 L 0.71 8.02 C 1.10 8.04 1.87 8.09 2.25 8.11 C 4.60 8.14 6.94 7.91 9.27 7.73 C 9.42 5.90 9.53 4.06 9.75 2.24 C 9.84 1.68 10.03 0.56 10.12 0.00 M 3.92 11.50 C 4.77 14.20 5.80 16.85 7.11 19.37 C 6.74 16.48 5.50 13.88 3.92 11.50 Z" />
<path fill="#342f2a" opacity="1.00" d=" M 42.63 0.00 L 45.74 0.00 C 45.92 0.43 46.28 1.30 46.46 1.74 C 46.59 3.70 46.60 5.66 46.63 7.63 C 49.20 7.90 51.78 8.14 54.36 8.25 C 54.60 8.26 55.06 8.28 55.29 8.29 C 55.64 8.29 56.35 8.31 56.70 8.31 C 57.08 8.30 57.84 8.29 58.22 8.28 C 60.58 8.19 62.92 7.89 65.26 7.62 C 65.41 5.83 65.53 4.03 65.75 2.24 C 65.85 1.68 66.04 0.56 66.14 0.00 L 68.98 0.00 C 68.98 0.56 68.99 1.68 68.99 2.23 C 68.41 5.74 67.54 9.22 67.61 12.79 C 68.30 10.49 68.97 8.17 69.37 5.80 C 70.34 9.73 69.36 13.58 67.93 17.20 L 67.78 17.61 C 67.41 18.59 67.03 19.56 66.65 20.54 C 66.50 16.63 65.76 12.79 65.04 8.96 C 64.30 9.10 62.81 9.38 62.07 9.52 C 62.85 13.29 63.54 17.09 64.50 20.82 C 63.80 21.12 62.39 21.71 61.69 22.01 C 61.50 21.42 61.14 20.25 60.95 19.66 C 61.25 17.38 58.48 16.55 58.71 19.32 L 57.95 19.42 C 56.65 19.55 55.32 19.74 54.16 20.40 C 54.00 20.06 53.69 19.38 53.53 19.04 C 52.57 15.87 50.38 18.94 51.13 20.88 C 50.84 21.51 50.25 22.78 49.96 23.42 C 49.43 23.02 48.38 22.21 47.85 21.81 C 48.32 17.84 48.89 13.89 49.69 9.98 C 48.83 9.59 47.98 9.21 47.13 8.82 C 46.54 12.54 46.00 16.27 45.44 19.99 C 45.07 19.71 44.32 19.15 43.94 18.87 L 43.87 18.49 C 42.99 14.35 41.84 10.18 42.58 5.89 C 43.05 8.33 43.82 10.72 44.76 13.02 C 44.65 9.31 44.40 5.55 43.22 2.00 C 43.08 1.50 42.78 0.50 42.63 0.00 M 48.89 19.37 C 50.20 16.85 51.23 14.20 52.08 11.50 C 50.51 13.88 49.25 16.48 48.89 19.37 M 59.92 11.50 C 60.77 14.20 61.80 16.85 63.11 19.37 C 62.74 16.48 61.50 13.88 59.92 11.50 Z" />
<path fill="#342f2a" opacity="1.00" d=" M 99.00 0.00 L 101.74 0.00 C 101.92 0.43 102.28 1.30 102.46 1.73 C 102.59 3.69 102.60 5.66 102.63 7.62 C 105.20 7.90 107.78 8.14 110.36 8.25 C 110.59 8.26 111.06 8.28 111.29 8.29 C 111.64 8.29 112.35 8.31 112.70 8.31 C 113.08 8.30 113.84 8.29 114.22 8.28 C 116.58 8.19 118.92 7.89 121.26 7.62 C 121.41 5.83 121.53 4.02 121.75 2.23 C 121.85 1.68 122.05 0.56 122.14 0.00 L 124.95 0.00 C 124.91 0.56 124.84 1.68 124.81 2.24 C 124.28 5.74 123.63 9.23 123.59 12.77 C 124.30 10.47 125.00 8.15 125.45 5.77 C 125.67 7.04 126.12 9.56 126.35 10.82 C 125.78 12.39 125.07 13.92 124.32 15.42 C 124.07 15.75 123.57 16.43 123.32 16.76 C 122.37 14.22 121.48 11.66 120.58 9.09 C 119.98 9.20 118.78 9.40 118.18 9.50 C 118.81 12.94 119.40 16.38 120.04 19.81 C 119.48 20.23 118.36 21.06 117.81 21.48 C 117.60 20.89 117.20 19.72 117.00 19.13 C 117.30 17.51 115.35 16.67 114.40 18.03 L 114.01 18.17 C 113.49 18.32 112.46 18.63 111.94 18.79 C 111.48 18.92 110.56 19.19 110.11 19.32 L 109.30 19.50 C 110.16 16.74 107.01 17.48 107.08 19.67 C 106.85 20.23 106.38 21.36 106.15 21.92 C 105.44 21.60 104.00 20.94 103.28 20.61 C 104.17 17.09 105.03 13.56 105.94 10.05 C 104.96 9.64 103.99 9.22 103.02 8.79 C 102.45 12.66 101.74 16.51 101.32 20.40 C 101.00 19.49 100.68 18.58 100.35 17.68 L 100.20 17.24 C 98.80 13.62 97.42 9.85 98.55 5.87 C 99.04 8.32 99.83 10.69 100.75 13.01 C 100.56 9.30 100.11 5.60 99.28 1.97 C 99.21 1.48 99.07 0.49 99.00 0.00 M 104.89 19.37 C 106.20 16.85 107.23 14.20 108.08 11.50 C 106.51 13.88 105.24 16.48 104.89 19.37 M 115.92 11.50 C 116.77 14.20 117.80 16.85 119.11 19.37 C 118.73 16.48 117.50 13.88 115.92 11.50 Z" />
<path fill="#342f2a" opacity="1.00" d=" M 155.05 0.00 L 156.89 0.00 C 157.46 0.35 158.59 1.04 159.16 1.39 C 158.84 3.45 158.52 5.52 158.23 7.58 C 160.94 7.87 163.65 8.14 166.38 8.25 C 166.60 8.26 167.06 8.27 167.28 8.28 C 167.64 8.29 168.35 8.30 168.70 8.31 C 169.08 8.30 169.84 8.29 170.22 8.28 C 172.58 8.19 174.92 7.89 177.26 7.63 C 177.41 5.83 177.53 4.03 177.75 2.24 C 177.85 1.68 178.04 0.56 178.14 0.00 L 180.98 0.00 C 180.98 0.56 180.99 1.68 180.99 2.23 C 180.41 5.74 179.54 9.22 179.61 12.79 C 180.30 10.49 180.97 8.17 181.37 5.80 C 182.34 9.73 181.35 13.58 179.93 17.21 L 179.78 17.61 C 179.41 18.58 179.04 19.54 178.67 20.50 C 178.50 16.61 177.75 12.78 177.04 8.96 C 176.29 9.10 174.81 9.38 174.06 9.52 C 174.83 13.24 175.53 16.99 176.49 20.68 C 175.80 21.03 174.42 21.75 173.73 22.10 C 173.52 21.50 173.09 20.30 172.88 19.70 C 173.03 17.48 169.87 16.71 170.68 19.48 L 169.88 19.31 C 169.43 19.18 168.51 18.91 168.05 18.78 C 167.54 18.63 166.50 18.32 165.99 18.17 L 165.60 18.03 C 164.65 16.67 162.70 17.51 163.00 19.13 C 162.80 19.72 162.40 20.90 162.20 21.49 C 161.64 21.07 160.50 20.23 159.94 19.81 C 160.49 16.36 161.13 12.92 161.74 9.47 C 161.17 9.38 160.01 9.21 159.43 9.12 C 158.53 11.67 157.63 14.23 156.67 16.76 C 156.42 16.42 155.93 15.75 155.69 15.42 C 154.89 13.90 154.15 12.35 153.53 10.75 C 153.77 9.53 154.27 7.07 154.51 5.84 C 155.04 8.29 155.83 10.67 156.74 13.00 C 156.53 9.31 156.15 5.63 155.36 2.02 C 155.29 1.51 155.13 0.50 155.05 0.00 M 160.89 19.37 C 162.20 16.85 163.23 14.20 164.08 11.50 C 162.51 13.88 161.23 16.48 160.89 19.37 M 171.92 11.50 C 172.77 14.20 173.80 16.85 175.11 19.37 C 174.72 16.48 173.50 13.88 171.92 11.50 Z" />
<path fill="#342f2a" opacity="1.00" d=" M 210.97 0.00 L 212.89 0.00 C 213.46 0.35 214.59 1.04 215.16 1.39 C 214.82 3.51 214.50 5.62 214.21 7.74 C 216.92 7.86 219.64 8.12 222.36 8.00 C 222.59 7.98 223.05 7.95 223.28 7.93 L 224.00 7.85 L 224.00 18.99 C 223.45 19.07 222.35 19.24 221.80 19.32 L 221.06 19.43 C 221.97 16.54 218.69 17.45 218.99 19.74 C 218.82 20.35 218.48 21.57 218.30 22.18 C 217.57 21.81 216.09 21.06 215.36 20.69 C 216.20 17.14 217.03 13.58 217.92 10.04 C 216.94 9.64 215.98 9.22 215.02 8.79 C 214.45 12.66 213.74 16.51 213.33 20.40 C 213.01 19.49 212.68 18.59 212.35 17.68 L 212.20 17.24 C 210.80 13.62 209.42 9.85 210.55 5.87 C 211.04 8.32 211.83 10.69 212.75 13.01 C 212.55 9.30 212.13 5.60 211.27 1.97 C 211.20 1.48 211.04 0.49 210.97 0.00 M 216.89 19.37 C 218.19 16.85 219.23 14.20 220.08 11.50 C 218.52 13.88 217.23 16.48 216.89 19.37 Z" />
</g>
<g id="#268dd9ff">
<path fill="#268dd9" opacity="1.00" d=" M 13.03 0.00 L 16.11 0.00 L 15.30 0.84 C 13.44 1.88 13.93 4.57 16.19 4.52 C 16.67 8.14 17.15 11.76 17.63 15.39 C 16.85 14.95 16.07 14.53 15.28 14.11 C 15.23 14.14 15.15 14.19 15.11 14.22 C 13.32 15.00 12.34 16.75 12.09 18.62 C 13.16 14.44 14.13 10.15 13.34 5.80 C 13.24 4.62 13.13 3.43 13.01 2.25 C 13.01 1.68 13.02 0.56 13.03 0.00 Z" />
<path fill="#268dd9" opacity="1.00" d=" M 68.98 0.00 L 70.21 0.00 C 70.45 0.36 70.92 1.07 71.16 1.43 C 70.30 2.60 70.27 5.10 72.28 4.87 C 72.03 8.08 71.66 11.28 71.42 14.49 C 70.04 15.08 68.87 16.05 67.93 17.20 C 69.36 13.58 70.34 9.73 69.37 5.80 C 69.26 4.61 69.13 3.42 68.99 2.23 C 68.99 1.68 68.98 0.56 68.98 0.00 Z" />
<path fill="#268dd9" opacity="1.00" d=" M 180.98 0.00 L 182.21 0.00 C 182.45 0.36 182.92 1.07 183.16 1.43 C 182.30 2.60 182.27 5.10 184.28 4.87 C 184.02 8.08 183.66 11.28 183.42 14.49 C 182.04 15.08 180.87 16.05 179.93 17.21 C 181.35 13.58 182.34 9.73 181.37 5.80 C 181.25 4.61 181.13 3.42 180.99 2.23 C 180.99 1.68 180.98 0.56 180.98 0.00 Z" />
</g>
<g id="#3c6bbeff">
<path fill="#3c6bbe" opacity="1.00" d=" M 16.11 0.00 L 25.57 0.00 C 26.62 1.15 27.62 2.35 28.62 3.55 C 24.46 4.53 19.97 4.62 16.06 2.66 C 15.87 2.20 15.49 1.30 15.30 0.84 L 16.11 0.00 Z" />
<path fill="#3c6bbe" opacity="1.00" d=" M 213.80 25.60 L 214.48 25.28 L 215.18 24.97 C 217.89 25.09 220.60 25.11 223.31 25.16 L 224.00 25.63 L 224.00 27.74 C 220.56 27.24 217.02 27.02 213.80 25.60 Z" />
</g>
<g id="#407accff">
<path fill="#407acc" opacity="1.00" d=" M 25.57 0.00 L 30.48 0.00 C 32.25 0.27 35.78 0.81 37.55 1.08 C 33.60 2.54 29.85 4.44 25.94 5.99 C 22.70 7.46 19.27 5.48 16.19 4.52 C 16.15 4.05 16.09 3.12 16.06 2.66 C 19.97 4.62 24.46 4.53 28.62 3.55 C 27.62 2.35 26.62 1.15 25.57 0.00 Z" />
</g>
<g id="#3c6cbfff">
<path fill="#3c6cbf" opacity="1.00" d=" M 30.48 0.00 L 39.34 0.00 L 40.13 0.76 C 40.04 1.43 39.86 2.77 39.76 3.44 C 39.34 7.40 38.96 11.35 38.54 15.31 C 39.26 15.01 39.99 14.73 40.72 14.46 C 40.84 14.42 41.07 14.35 41.18 14.31 C 41.12 14.66 40.99 15.35 40.92 15.70 C 40.76 16.60 40.43 18.40 40.26 19.31 C 38.41 18.73 36.56 18.17 34.70 17.63 C 30.56 18.68 26.31 19.29 22.05 19.55 C 23.66 20.43 25.28 21.32 26.89 22.21 C 26.89 22.81 26.90 24.01 26.90 24.61 C 23.72 26.40 20.51 28.16 17.62 30.41 C 21.41 29.36 25.15 28.08 28.98 27.15 C 29.04 25.41 28.26 23.19 29.92 21.97 C 32.76 19.73 36.63 20.64 39.90 21.11 C 40.84 22.49 41.83 23.85 42.91 25.12 C 45.90 28.25 49.76 31.40 47.61 36.09 C 45.41 35.13 43.21 34.15 41.01 33.16 C 40.76 34.09 40.50 35.02 40.24 35.94 C 44.94 37.88 49.85 39.15 54.77 40.38 C 52.92 38.32 49.43 36.61 50.11 33.36 C 53.39 30.70 57.18 28.77 60.91 26.82 C 55.85 27.29 50.33 29.18 45.60 26.51 C 46.01 25.98 46.84 24.93 47.25 24.40 C 47.77 24.30 48.79 24.08 49.31 23.98 C 49.01 24.56 48.41 25.73 48.11 26.31 C 50.41 26.26 52.71 26.22 55.01 26.18 C 54.15 25.18 53.30 24.17 52.45 23.17 C 53.34 22.85 54.23 22.53 55.12 22.21 C 55.61 21.99 56.60 21.55 57.10 21.34 C 57.84 22.14 58.73 22.72 59.77 23.08 C 58.71 23.68 57.65 24.28 56.60 24.90 C 59.21 25.06 61.83 25.17 64.44 25.16 C 63.83 24.64 62.62 23.59 62.01 23.07 C 63.70 23.20 65.30 22.53 66.73 21.69 C 68.28 22.46 69.92 23.04 71.58 23.54 C 71.45 21.29 71.27 19.04 71.28 16.78 C 71.31 16.21 71.38 15.06 71.42 14.49 C 71.66 11.28 72.03 8.08 72.28 4.87 C 72.43 3.58 72.06 2.43 71.16 1.43 C 70.92 1.07 70.45 0.36 70.21 0.00 L 85.56 0.00 C 81.93 3.15 77.22 3.49 72.67 3.46 C 75.58 4.12 78.90 6.85 81.82 4.85 C 86.12 2.21 91.05 0.94 95.97 0.00 L 97.83 0.00 C 97.60 0.35 97.12 1.05 96.89 1.40 C 95.98 2.39 95.59 3.54 95.71 4.84 C 95.90 8.03 96.09 11.23 96.39 14.41 C 96.45 14.76 96.55 15.45 96.61 15.80 C 97.23 18.69 97.75 21.62 98.70 24.43 C 100.56 26.49 102.83 28.12 105.03 29.79 C 104.35 31.49 103.66 33.18 102.97 34.88 C 100.99 33.96 99.00 33.05 97.02 32.15 C 96.76 33.08 96.50 34.01 96.24 34.94 C 100.94 36.88 105.85 38.15 110.78 39.37 C 109.07 37.33 105.19 35.68 106.32 32.51 C 108.61 30.37 111.34 28.76 113.88 26.93 C 110.54 26.59 107.19 26.25 103.85 25.84 C 106.37 25.46 108.88 25.04 111.38 24.59 C 110.32 24.07 109.26 23.56 108.19 23.07 C 109.21 22.62 110.17 22.07 111.06 21.39 C 111.45 21.03 112.24 20.31 112.63 19.95 C 113.60 20.79 114.64 21.54 115.74 22.20 C 114.71 22.56 113.69 22.94 112.67 23.33 C 114.39 24.01 116.10 24.69 117.81 25.38 C 118.39 24.89 118.97 24.40 119.55 23.91 C 119.30 23.32 118.79 22.16 118.54 21.58 C 120.56 21.20 122.57 20.82 124.59 20.45 C 124.56 21.23 124.48 22.81 124.44 23.60 C 128.09 16.23 129.66 7.73 126.19 0.00 L 138.32 0.00 C 137.74 0.55 136.58 1.66 136.00 2.22 C 133.55 2.18 131.09 2.15 128.64 2.26 C 131.24 3.29 133.81 4.63 136.62 5.01 C 138.46 3.61 139.80 1.68 141.36 0.00 L 153.83 0.00 C 150.43 7.69 151.44 16.42 155.59 23.63 C 155.55 22.84 155.46 21.24 155.41 20.44 C 157.45 20.83 159.49 21.21 161.52 21.60 C 161.37 22.92 161.24 24.25 161.05 25.56 C 160.66 28.23 160.05 30.86 159.38 33.47 C 156.49 32.83 153.57 32.28 150.62 31.97 C 149.55 29.76 148.50 27.54 147.38 25.35 C 147.09 27.73 148.27 31.21 145.62 32.56 C 139.98 35.33 133.71 32.61 127.97 31.67 C 130.98 34.06 134.52 35.56 137.99 37.16 C 137.58 39.92 137.20 42.68 136.74 45.44 C 137.76 45.53 138.78 45.61 139.80 45.70 C 141.19 41.86 141.53 36.41 146.12 34.98 C 153.23 33.18 160.01 36.75 166.78 38.42 C 165.02 36.35 161.14 34.61 162.25 31.36 C 164.18 27.57 168.94 29.03 172.27 29.34 C 172.13 28.82 171.84 27.77 171.70 27.25 C 168.54 26.57 165.37 25.87 162.18 25.36 C 163.93 24.75 165.65 24.06 167.38 23.39 C 166.34 22.98 165.30 22.58 164.25 22.20 C 165.36 21.54 166.39 20.79 167.37 19.94 C 167.76 20.31 168.54 21.03 168.93 21.39 C 169.81 22.07 170.76 22.64 171.77 23.10 C 170.74 23.52 169.71 23.95 168.69 24.39 C 170.41 25.06 172.13 25.73 173.85 26.41 C 174.42 25.90 175.00 25.39 175.58 24.88 C 175.23 24.39 174.54 23.40 174.19 22.91 C 175.84 22.99 177.46 22.53 178.83 21.63 C 180.34 22.44 181.94 23.06 183.57 23.59 C 183.44 21.33 183.27 19.06 183.28 16.78 C 183.31 16.21 183.38 15.06 183.42 14.49 C 183.66 11.28 184.02 8.08 184.28 4.87 C 184.43 3.58 184.06 2.43 183.16 1.43 C 182.92 1.07 182.45 0.36 182.21 0.00 L 197.56 0.00 C 193.93 3.15 189.22 3.49 184.67 3.46 C 187.58 4.12 190.90 6.85 193.82 4.85 C 198.11 2.21 203.05 0.94 207.97 0.00 L 209.83 0.00 C 209.60 0.35 209.12 1.05 208.89 1.40 C 207.98 2.39 207.59 3.54 207.71 4.84 C 207.90 8.03 208.09 11.23 208.39 14.41 C 208.45 14.76 208.55 15.45 208.61 15.80 C 209.22 18.69 209.75 21.62 210.70 24.43 C 212.56 26.49 214.83 28.12 217.03 29.79 C 216.35 31.49 215.66 33.19 214.97 34.88 C 212.99 33.96 211.00 33.05 209.02 32.15 C 208.76 33.08 208.50 34.01 208.24 34.94 C 212.94 36.89 217.86 38.15 222.78 39.36 C 221.21 37.44 217.73 36.04 218.16 33.21 C 219.50 30.90 222.04 29.63 224.00 27.91 L 224.00 45.14 C 215.54 44.78 207.01 42.55 198.57 44.19 C 201.89 45.17 205.26 45.95 208.65 46.67 C 213.72 47.97 218.93 46.17 224.00 45.86 L 224.00 50.54 C 220.98 51.14 218.01 51.81 214.97 52.19 C 214.65 52.07 214.00 51.83 213.68 51.71 C 212.24 53.12 210.83 54.56 209.43 56.00 L 205.31 56.00 C 200.43 53.89 195.87 51.17 191.25 48.57 C 196.18 43.52 198.89 35.97 206.40 33.96 C 204.87 31.38 203.62 28.64 201.92 26.17 C 202.26 28.30 202.69 30.41 203.13 32.52 C 198.02 35.36 192.29 34.13 186.87 33.04 C 186.76 26.19 193.31 26.48 197.94 26.36 C 197.13 22.39 199.80 19.38 202.77 17.19 C 198.60 18.10 194.31 17.85 190.16 16.94 C 192.84 18.72 195.30 20.84 197.19 23.47 C 193.26 24.84 189.30 26.11 185.31 27.28 C 185.59 30.06 185.88 32.84 186.17 35.61 C 189.10 35.90 192.02 36.17 194.95 36.42 C 195.07 41.75 191.61 45.49 187.78 48.50 C 191.64 50.64 195.60 52.61 199.46 54.75 C 198.10 55.19 196.74 55.60 195.38 56.00 L 181.26 56.00 C 179.39 53.80 177.51 51.58 175.21 49.81 C 172.57 50.18 169.94 50.59 167.31 51.02 C 164.11 51.53 160.96 52.26 157.85 53.15 C 156.20 53.33 154.58 54.25 154.25 56.00 L 150.18 56.00 C 144.05 51.98 138.09 45.97 130.15 46.77 C 132.72 49.13 135.45 51.31 138.06 53.63 C 138.17 52.35 138.28 51.07 138.40 49.80 C 140.82 51.01 143.23 52.25 145.61 53.52 C 144.00 54.14 140.77 55.38 139.16 56.00 L 125.03 56.00 L 124.20 55.43 C 123.39 53.70 122.81 51.85 121.79 50.23 C 118.43 49.45 114.89 50.35 111.49 50.62 C 108.64 51.01 105.85 51.66 103.01 52.07 C 102.69 51.98 102.05 51.82 101.74 51.74 C 100.23 53.18 98.74 54.63 97.17 56.00 L 69.43 56.00 C 67.53 54.02 65.49 52.12 63.06 50.81 C 61.85 50.33 60.63 49.91 59.40 49.52 C 60.63 48.57 61.82 47.55 63.03 46.55 C 61.88 45.70 60.72 44.85 59.57 44.00 C 58.97 46.03 58.29 48.03 57.62 50.03 C 57.02 50.19 55.81 50.53 55.21 50.69 C 52.01 51.46 48.70 52.16 45.92 54.01 C 46.50 52.92 47.05 51.81 47.59 50.69 L 46.40 50.97 C 45.26 51.20 44.12 51.43 42.98 51.64 C 42.73 52.32 42.23 53.69 41.98 54.38 C 41.62 54.78 40.90 55.59 40.53 56.00 L 28.14 56.00 C 27.93 54.21 27.73 52.43 27.53 50.64 C 26.73 52.43 25.93 54.21 25.13 56.00 L 15.42 56.00 C 14.34 54.84 13.33 53.62 12.19 52.51 C 9.66 49.36 5.46 49.03 1.72 48.75 C 1.29 48.69 0.43 48.57 0.00 48.51 L 0.00 22.17 L 0.67 22.41 C 1.62 22.75 2.57 23.08 3.53 23.40 C 2.68 24.31 1.83 25.22 0.98 26.13 C 3.27 26.20 5.56 26.28 7.86 26.36 C 7.54 25.66 6.92 24.26 6.61 23.56 C 8.19 23.19 9.75 22.74 11.30 22.28 L 11.61 22.59 L 12.09 23.06 C 13.11 24.02 14.16 24.95 15.21 25.87 C 15.27 22.75 15.22 19.62 15.15 16.50 C 15.14 15.93 15.12 14.79 15.11 14.22 C 15.15 14.19 15.23 14.14 15.28 14.11 C 16.07 14.53 16.85 14.95 17.63 15.39 C 17.15 11.76 16.67 8.14 16.19 4.52 C 19.27 5.48 22.70 7.46 25.94 5.99 C 29.85 4.44 33.60 2.54 37.55 1.08 C 35.78 0.81 32.25 0.27 30.48 0.00 M 138.70 9.43 C 141.11 10.61 143.55 11.71 146.04 12.72 C 145.38 14.06 144.70 15.38 144.03 16.70 C 146.38 16.57 148.74 16.49 151.10 16.50 C 148.22 14.61 146.22 11.79 144.59 8.81 C 142.63 9.06 140.66 9.23 138.70 9.43 M 77.77 17.10 C 79.82 18.16 81.87 19.20 83.93 20.23 C 83.98 21.49 84.02 22.75 84.08 24.01 C 80.53 25.06 77.01 26.20 73.46 27.21 C 73.77 30.07 73.94 32.94 74.19 35.82 C 76.69 35.96 79.18 36.11 81.68 36.26 C 82.13 39.32 82.63 42.38 83.16 45.43 C 85.00 40.23 88.13 35.11 94.28 34.49 C 93.41 32.45 92.64 30.37 91.99 28.25 C 91.11 27.70 90.23 27.16 89.35 26.62 C 90.03 28.46 90.67 30.31 91.35 32.15 C 86.50 35.63 80.72 34.37 75.36 32.94 C 74.11 25.46 82.26 26.28 86.62 26.60 C 83.60 22.53 88.03 19.38 91.02 17.09 C 86.67 18.40 82.16 17.91 77.77 17.10 M 122.14 22.11 C 120.82 22.80 120.81 23.47 122.11 24.14 C 123.43 23.46 123.44 22.78 122.14 22.11 M 157.15 22.40 C 156.30 26.38 161.14 21.58 157.15 22.40 M 66.14 23.11 C 64.82 23.80 64.81 24.47 66.11 25.14 C 67.43 24.46 67.44 23.78 66.14 23.11 M 178.14 23.11 C 176.82 23.80 176.81 24.47 178.11 25.14 C 179.43 24.46 179.44 23.78 178.14 23.11 M 10.14 24.11 C 8.82 24.80 8.81 25.47 10.11 26.14 C 11.43 25.46 11.44 24.78 10.14 24.11 M 32.35 27.61 C 33.02 29.46 33.67 31.32 34.36 33.16 C 30.38 36.00 25.70 35.43 21.36 33.81 C 18.75 32.46 16.54 34.79 14.46 36.07 C 18.97 37.20 23.47 38.32 27.93 39.62 C 26.87 41.70 25.82 43.80 24.85 45.92 C 28.86 45.79 30.33 42.17 31.22 38.87 C 31.84 35.64 36.36 36.72 38.41 35.81 C 36.69 33.92 35.47 31.66 34.85 29.18 C 34.02 28.66 33.18 28.13 32.35 27.61 M 61.02 39.89 C 62.54 42.19 64.87 43.74 67.05 45.35 C 65.93 43.14 64.74 40.97 63.63 38.75 C 64.56 38.59 65.50 38.43 66.43 38.26 C 66.57 37.56 66.85 36.16 66.99 35.46 C 65.02 36.79 61.14 37.00 61.02 39.89 M 171.41 40.76 C 174.30 42.29 177.09 44.24 180.41 44.68 C 179.17 43.95 177.95 43.18 176.69 42.49 C 177.75 40.07 178.92 37.70 180.03 35.30 C 176.23 35.48 173.07 37.49 171.41 40.76 M 103.40 38.81 C 101.84 41.35 101.12 46.03 96.61 43.99 C 93.24 43.38 89.83 43.18 86.55 44.49 C 90.96 45.31 95.51 45.70 99.57 47.75 C 103.73 46.55 108.01 45.92 112.28 45.32 C 109.26 45.00 106.28 44.44 103.27 44.14 C 103.36 42.36 103.42 40.58 103.40 38.81 M 155.01 44.17 C 152.71 44.93 150.62 43.40 148.61 42.53 C 148.42 43.25 148.22 43.98 148.03 44.70 C 152.35 46.51 157.06 47.83 161.37 45.16 C 161.05 43.17 160.79 41.18 160.62 39.17 C 158.92 40.97 157.51 43.42 155.01 44.17 M 34.88 42.80 C 33.56 43.79 32.24 44.75 30.89 45.69 C 35.53 44.93 40.52 45.59 43.81 49.25 C 44.60 48.30 45.41 47.36 46.21 46.42 C 49.62 46.68 53.03 46.71 56.45 46.76 C 52.91 46.10 49.45 45.08 45.95 44.24 C 46.29 42.86 46.65 41.49 47.02 40.11 C 44.15 43.77 38.95 45.64 34.88 42.80 M 113.52 43.52 C 113.40 45.02 113.26 46.51 113.12 48.01 C 114.56 47.95 116.00 47.89 117.44 47.82 C 116.16 46.36 114.86 44.93 113.52 43.52 M 163.96 44.23 C 163.65 46.00 167.35 46.00 167.04 44.23 C 166.42 43.18 164.58 43.18 163.96 44.23 Z" />
</g>
<g id="#268dd8ff">
<path fill="#268dd8" opacity="1.00" d=" M 39.34 0.00 L 42.63 0.00 C 42.78 0.50 43.08 1.50 43.22 2.00 C 42.95 3.29 42.74 4.58 42.58 5.89 C 41.84 10.18 42.99 14.35 43.87 18.49 C 43.59 16.98 43.38 13.89 41.18 14.31 C 41.07 14.35 40.84 14.42 40.72 14.46 C 39.99 14.73 39.26 15.01 38.54 15.31 C 38.96 11.35 39.34 7.40 39.76 3.44 C 42.14 6.11 42.51 1.42 40.13 0.76 L 39.34 0.00 Z" />
<path fill="#268dd8" opacity="1.00" d=" M 124.95 0.00 L 126.19 0.00 C 129.66 7.73 128.09 16.23 124.44 23.60 C 124.48 22.81 124.56 21.23 124.59 20.45 C 124.77 18.17 125.19 15.93 125.58 13.68 C 125.26 14.11 124.63 14.98 124.32 15.42 C 125.07 13.92 125.78 12.39 126.35 10.82 C 126.12 9.56 125.67 7.04 125.45 5.77 C 125.24 4.60 125.02 3.42 124.81 2.24 C 124.84 1.68 124.91 0.56 124.95 0.00 Z" />
<path fill="#268dd8" opacity="1.00" d=" M 153.83 0.00 L 155.05 0.00 C 155.13 0.50 155.29 1.51 155.36 2.02 C 155.06 3.29 154.78 4.56 154.51 5.84 C 154.27 7.07 153.77 9.53 153.53 10.75 C 154.15 12.35 154.89 13.90 155.69 15.42 C 155.37 14.98 154.74 14.11 154.43 13.67 C 154.81 15.92 155.22 18.17 155.41 20.44 C 155.46 21.24 155.55 22.84 155.59 23.63 C 151.44 16.42 150.43 7.69 153.83 0.00 Z" />
</g>
<g id="#82ac5aff">
<path fill="#82ac5a" opacity="1.00" d=" M 45.74 0.00 L 66.14 0.00 C 66.04 0.56 65.85 1.68 65.75 2.24 C 63.76 2.79 61.77 3.32 59.78 3.83 C 59.26 5.32 58.74 6.80 58.22 8.28 C 57.84 8.29 57.08 8.30 56.70 8.31 C 56.80 6.90 56.89 5.48 56.98 4.06 C 56.49 4.06 55.51 4.07 55.02 4.07 C 55.11 5.47 55.20 6.88 55.29 8.29 C 55.06 8.28 54.60 8.26 54.36 8.25 C 52.53 5.23 49.72 3.04 46.46 1.74 C 46.28 1.30 45.92 0.43 45.74 0.00 M 51.56 1.49 C 51.12 3.20 54.15 3.84 54.74 2.29 C 55.01 0.68 52.25 0.23 51.56 1.49 Z" />
<path fill="#82ac5a" opacity="1.00" d=" M 101.74 0.00 L 122.14 0.00 C 122.05 0.56 121.85 1.68 121.75 2.23 C 119.76 2.78 117.77 3.32 115.78 3.83 C 115.26 5.32 114.74 6.80 114.22 8.28 C 113.84 8.29 113.08 8.30 112.70 8.31 C 112.79 6.90 112.89 5.48 112.98 4.06 C 112.49 4.06 111.51 4.07 111.02 4.07 C 111.11 5.48 111.20 6.88 111.29 8.29 C 111.06 8.28 110.59 8.26 110.36 8.25 C 108.52 5.23 105.72 3.04 102.46 1.73 C 102.28 1.30 101.92 0.43 101.74 0.00 M 107.56 1.49 C 107.12 3.20 110.15 3.84 110.74 2.29 C 111.01 0.68 108.25 0.23 107.56 1.49 Z" />
<path fill="#82ac5a" opacity="1.00" d=" M 156.89 0.00 L 178.14 0.00 C 178.04 0.56 177.85 1.68 177.75 2.24 C 175.76 2.79 173.77 3.32 171.78 3.83 C 171.26 5.31 170.73 6.80 170.22 8.28 C 169.84 8.29 169.08 8.30 168.70 8.31 C 168.80 6.89 168.89 5.48 168.98 4.06 C 168.49 4.06 167.51 4.07 167.02 4.07 C 167.10 5.47 167.19 6.88 167.28 8.28 C 167.06 8.27 166.60 8.26 166.38 8.25 C 164.43 5.52 161.92 3.28 159.16 1.39 C 158.59 1.04 157.46 0.35 156.89 0.00 M 163.56 1.49 C 163.12 3.20 166.15 3.84 166.74 2.29 C 167.01 0.68 164.25 0.23 163.56 1.49 Z" />
</g>
<g id="#4179cbff">
<path fill="#4179cb" opacity="1.00" d=" M 85.56 0.00 L 95.97 0.00 C 91.05 0.94 86.12 2.21 81.82 4.85 C 78.90 6.85 75.58 4.12 72.67 3.46 C 77.22 3.49 81.93 3.15 85.56 0.00 Z" />
<path fill="#4179cb" opacity="1.00" d=" M 197.56 0.00 L 207.97 0.00 C 203.05 0.94 198.11 2.21 193.82 4.85 C 190.90 6.85 187.58 4.12 184.67 3.46 C 189.22 3.49 193.93 3.15 197.56 0.00 Z" />
</g>
<g id="#268ed9ff">
<path fill="#268ed9" opacity="1.00" d=" M 97.83 0.00 L 99.00 0.00 C 99.07 0.49 99.21 1.48 99.28 1.97 C 98.98 3.26 98.73 4.56 98.55 5.87 C 97.42 9.85 98.80 13.62 100.20 17.24 C 99.35 15.84 98.09 14.60 96.39 14.41 C 96.09 11.23 95.90 8.03 95.71 4.84 C 97.73 5.09 97.74 2.59 96.89 1.40 C 97.12 1.05 97.60 0.35 97.83 0.00 Z" />
<path fill="#268ed9" opacity="1.00" d=" M 209.83 0.00 L 210.97 0.00 C 211.04 0.49 211.20 1.48 211.27 1.97 C 210.97 3.26 210.73 4.56 210.55 5.87 C 209.42 9.85 210.80 13.62 212.20 17.24 C 211.35 15.84 210.09 14.60 208.39 14.41 C 208.09 11.23 207.90 8.03 207.71 4.84 C 209.73 5.09 209.74 2.59 208.89 1.40 C 209.12 1.05 209.60 0.35 209.83 0.00 Z" />
<path fill="#268ed9" opacity="1.00" d=" M 54.16 20.40 C 55.32 19.74 56.65 19.55 57.95 19.42 C 57.74 19.90 57.31 20.86 57.10 21.34 C 56.60 21.55 55.61 21.99 55.12 22.21 C 54.88 21.75 54.40 20.85 54.16 20.40 Z" />
<path fill="#268ed9" opacity="1.00" d=" M 110.11 19.32 C 110.56 19.19 111.48 18.92 111.94 18.79 C 112.11 19.08 112.46 19.66 112.63 19.95 C 112.24 20.31 111.45 21.03 111.06 21.39 C 110.82 20.88 110.34 19.84 110.11 19.32 Z" />
<path fill="#268ed9" opacity="1.00" d=" M 167.37 19.94 C 167.54 19.65 167.88 19.07 168.05 18.78 C 168.51 18.91 169.43 19.18 169.88 19.31 C 169.65 19.83 169.17 20.87 168.93 21.39 C 168.54 21.03 167.76 20.31 167.37 19.94 Z" />
<path fill="#268ed9" opacity="1.00" d=" M 0.00 20.53 C 0.45 20.43 1.34 20.25 1.79 20.16 C 1.51 20.72 0.95 21.85 0.67 22.41 L 0.00 22.17 L 0.00 20.53 Z" />
</g>
<g id="#4476cbff">
<path fill="#4476cb" opacity="1.00" d=" M 138.32 0.00 L 141.36 0.00 C 139.80 1.68 138.46 3.61 136.62 5.01 C 133.81 4.63 131.24 3.29 128.64 2.26 C 131.09 2.15 133.55 2.18 136.00 2.22 C 136.58 1.66 137.74 0.55 138.32 0.00 Z" />
</g>
<g id="#84ad5aff">
<path fill="#84ad5a" opacity="1.00" d=" M 212.89 0.00 L 224.00 0.00 L 224.00 4.30 C 222.70 4.98 221.76 6.91 223.28 7.93 C 223.05 7.95 222.59 7.98 222.36 8.00 C 220.32 5.43 217.83 3.29 215.16 1.39 C 214.59 1.04 213.46 0.35 212.89 0.00 M 219.56 1.49 C 219.12 3.20 222.15 3.84 222.74 2.29 C 223.01 0.68 220.25 0.23 219.56 1.49 Z" />
</g>
<g id="#86a0b1ff">
<path fill="#86a0b1" opacity="1.00" d=" M 16.19 4.52 C 13.93 4.57 13.44 1.88 15.30 0.84 C 15.49 1.30 15.87 2.20 16.06 2.66 C 16.09 3.12 16.15 4.05 16.19 4.52 Z" />
<path fill="#86a0b1" opacity="1.00" d=" M 40.13 0.76 C 42.51 1.42 42.14 6.11 39.76 3.44 C 39.86 2.77 40.04 1.43 40.13 0.76 Z" />
</g>
<g id="#6f9a52ff">
<path fill="#6f9a52" opacity="1.00" d=" M 51.56 1.49 C 52.25 0.23 55.01 0.68 54.74 2.29 C 54.15 3.84 51.12 3.20 51.56 1.49 Z" />
<path fill="#6f9a52" opacity="1.00" d=" M 107.56 1.49 C 108.25 0.23 111.01 0.68 110.74 2.29 C 110.15 3.84 107.12 3.20 107.56 1.49 Z" />
<path fill="#6f9a52" opacity="1.00" d=" M 163.56 1.49 C 164.25 0.23 167.01 0.68 166.74 2.29 C 166.15 3.84 163.12 3.20 163.56 1.49 Z" />
<path fill="#6f9a52" opacity="1.00" d=" M 219.56 1.49 C 220.25 0.23 223.01 0.68 222.74 2.29 C 222.15 3.84 219.12 3.20 219.56 1.49 Z" />
</g>
<g id="#709e5cff">
<path fill="#709e5c" opacity="1.00" d=" M 3.78 3.83 C 5.78 3.32 7.76 2.79 9.75 2.24 C 9.53 4.06 9.42 5.90 9.27 7.73 C 6.94 7.91 4.60 8.14 2.25 8.11 C 2.76 6.68 3.27 5.26 3.78 3.83 Z" />
<path fill="#709e5c" opacity="1.00" d=" M 46.46 1.74 C 49.72 3.04 52.53 5.23 54.36 8.25 C 51.78 8.14 49.20 7.90 46.63 7.63 C 46.60 5.66 46.59 3.70 46.46 1.74 Z" />
<path fill="#709e5c" opacity="1.00" d=" M 59.78 3.83 C 61.77 3.32 63.76 2.79 65.75 2.24 C 65.53 4.03 65.41 5.83 65.26 7.62 C 62.92 7.89 60.58 8.19 58.22 8.28 C 58.74 6.80 59.26 5.32 59.78 3.83 Z" />
<path fill="#709e5c" opacity="1.00" d=" M 102.46 1.73 C 105.72 3.04 108.52 5.23 110.36 8.25 C 107.78 8.14 105.20 7.90 102.63 7.62 C 102.60 5.66 102.59 3.69 102.46 1.73 Z" />
<path fill="#709e5c" opacity="1.00" d=" M 115.78 3.83 C 117.77 3.32 119.76 2.78 121.75 2.23 C 121.53 4.02 121.41 5.83 121.26 7.62 C 118.92 7.89 116.58 8.19 114.22 8.28 C 114.74 6.80 115.26 5.32 115.78 3.83 Z" />
<path fill="#709e5c" opacity="1.00" d=" M 159.16 1.39 C 161.92 3.28 164.43 5.52 166.38 8.25 C 163.65 8.14 160.94 7.87 158.23 7.58 C 158.52 5.52 158.84 3.45 159.16 1.39 Z" />
<path fill="#709e5c" opacity="1.00" d=" M 171.78 3.83 C 173.77 3.32 175.76 2.79 177.75 2.24 C 177.53 4.03 177.41 5.83 177.26 7.63 C 174.92 7.89 172.58 8.19 170.22 8.28 C 170.73 6.80 171.26 5.31 171.78 3.83 Z" />
<path fill="#709e5c" opacity="1.00" d=" M 215.16 1.39 C 217.83 3.29 220.32 5.43 222.36 8.00 C 219.64 8.12 216.92 7.86 214.21 7.74 C 214.50 5.62 214.82 3.51 215.16 1.39 Z" />
</g>
<g id="#7392b4ff">
<path fill="#7392b4" opacity="1.00" d=" M 72.28 4.87 C 70.27 5.10 70.30 2.60 71.16 1.43 C 72.06 2.43 72.43 3.58 72.28 4.87 Z" />
<path fill="#7392b4" opacity="1.00" d=" M 95.71 4.84 C 95.59 3.54 95.98 2.39 96.89 1.40 C 97.74 2.59 97.73 5.09 95.71 4.84 Z" />
<path fill="#7392b4" opacity="1.00" d=" M 184.28 4.87 C 182.27 5.10 182.30 2.60 183.16 1.43 C 184.06 2.43 184.43 3.58 184.28 4.87 Z" />
<path fill="#7392b4" opacity="1.00" d=" M 207.71 4.84 C 207.59 3.54 207.98 2.39 208.89 1.40 C 209.74 2.59 209.73 5.09 207.71 4.84 Z" />
</g>
<g id="#645a4bff">
<path fill="#645a4b" opacity="1.00" d=" M 11.62 12.80 C 11.53 9.23 12.43 5.75 13.01 2.25 C 13.13 3.43 13.24 4.62 13.34 5.80 C 12.95 8.18 12.30 10.50 11.62 12.80 Z" />
<path fill="#645a4b" opacity="1.00" d=" M 43.22 2.00 C 44.40 5.55 44.65 9.31 44.76 13.02 C 43.82 10.72 43.05 8.33 42.58 5.89 C 42.74 4.58 42.95 3.29 43.22 2.00 Z" />
<path fill="#645a4b" opacity="1.00" d=" M 67.61 12.79 C 67.54 9.22 68.41 5.74 68.99 2.23 C 69.13 3.42 69.26 4.61 69.37 5.80 C 68.97 8.17 68.30 10.49 67.61 12.79 Z" />
<path fill="#645a4b" opacity="1.00" d=" M 99.28 1.97 C 100.11 5.60 100.56 9.30 100.75 13.01 C 99.83 10.69 99.04 8.32 98.55 5.87 C 98.73 4.56 98.98 3.26 99.28 1.97 Z" />
<path fill="#645a4b" opacity="1.00" d=" M 123.59 12.77 C 123.63 9.23 124.28 5.74 124.81 2.24 C 125.02 3.42 125.24 4.60 125.45 5.77 C 125.00 8.15 124.30 10.47 123.59 12.77 Z" />
<path fill="#645a4b" opacity="1.00" d=" M 155.36 2.02 C 156.15 5.63 156.53 9.31 156.74 13.00 C 155.83 10.67 155.04 8.29 154.51 5.84 C 154.78 4.56 155.06 3.29 155.36 2.02 Z" />
<path fill="#645a4b" opacity="1.00" d=" M 179.61 12.79 C 179.54 9.22 180.41 5.74 180.99 2.23 C 181.13 3.42 181.25 4.61 181.37 5.80 C 180.97 8.17 180.30 10.49 179.61 12.79 Z" />
<path fill="#645a4b" opacity="1.00" d=" M 211.27 1.97 C 212.13 5.60 212.55 9.30 212.75 13.01 C 211.83 10.69 211.04 8.32 210.55 5.87 C 210.73 4.56 210.97 3.26 211.27 1.97 Z" />
</g>
<g id="#5c8260ff">
<path fill="#5c8260" opacity="1.00" d=" M 0.00 4.34 C 1.29 5.05 2.19 6.97 0.71 8.02 L 0.00 7.96 L 0.00 4.34 Z" />
<path fill="#5c8260" opacity="1.00" d=" M 55.02 4.07 C 55.51 4.07 56.49 4.06 56.98 4.06 C 56.89 5.48 56.80 6.90 56.70 8.31 C 56.35 8.31 55.64 8.29 55.29 8.29 C 55.20 6.88 55.11 5.47 55.02 4.07 Z" />
<path fill="#5c8260" opacity="1.00" d=" M 111.02 4.07 C 111.51 4.07 112.49 4.06 112.98 4.06 C 112.89 5.48 112.79 6.90 112.70 8.31 C 112.35 8.31 111.64 8.29 111.29 8.29 C 111.20 6.88 111.11 5.48 111.02 4.07 Z" />
<path fill="#5c8260" opacity="1.00" d=" M 167.02 4.07 C 167.51 4.07 168.49 4.06 168.98 4.06 C 168.89 5.48 168.80 6.89 168.70 8.31 C 168.35 8.30 167.64 8.29 167.28 8.28 C 167.19 6.88 167.10 5.47 167.02 4.07 Z" />
<path fill="#5c8260" opacity="1.00" d=" M 223.28 7.93 C 221.76 6.91 222.70 4.98 224.00 4.30 L 224.00 7.85 L 223.28 7.93 Z" />
</g>
<g id="#4377cafe">
<path fill="#4377ca" opacity="1.00" d=" M 138.70 9.43 C 140.66 9.23 142.63 9.06 144.59 8.81 C 146.22 11.79 148.22 14.61 151.10 16.50 C 148.74 16.49 146.38 16.57 144.03 16.70 C 144.70 15.38 145.38 14.06 146.04 12.72 C 143.55 11.71 141.11 10.61 138.70 9.43 Z" />
</g>
<g id="#6c604cff">
<path fill="#6c604c" opacity="1.00" d=" M 6.24 9.48 C 6.94 9.35 8.34 9.09 9.04 8.96 C 9.69 12.64 10.25 16.34 10.56 20.07 L 9.75 20.65 C 9.33 20.96 8.50 21.57 8.08 21.88 C 7.53 17.73 6.87 13.61 6.24 9.48 Z" />
<path fill="#6c604c" opacity="1.00" d=" M 47.13 8.82 C 47.98 9.21 48.83 9.59 49.69 9.98 C 48.89 13.89 48.32 17.84 47.85 21.81 C 47.37 21.45 46.42 20.73 45.94 20.36 L 45.44 19.99 C 46.00 16.27 46.54 12.54 47.13 8.82 Z" />
<path fill="#6c604c" opacity="1.00" d=" M 62.07 9.52 C 62.81 9.38 64.30 9.10 65.04 8.96 C 65.76 12.79 66.50 16.63 66.65 20.54 L 66.31 21.48 C 65.86 21.32 64.95 20.99 64.50 20.82 C 63.54 17.09 62.85 13.29 62.07 9.52 Z" />
<path fill="#6c604c" opacity="1.00" d=" M 103.02 8.79 C 103.99 9.22 104.96 9.64 105.94 10.05 C 105.03 13.56 104.17 17.09 103.28 20.61 C 102.86 20.77 102.00 21.07 101.57 21.22 L 101.32 20.40 C 101.74 16.51 102.45 12.66 103.02 8.79 Z" />
<path fill="#6c604c" opacity="1.00" d=" M 174.06 9.52 C 174.81 9.38 176.29 9.10 177.04 8.96 C 177.75 12.78 178.50 16.61 178.67 20.50 L 178.37 21.38 C 177.90 21.20 176.96 20.85 176.49 20.68 C 175.53 16.99 174.83 13.24 174.06 9.52 Z" />
<path fill="#6c604c" opacity="1.00" d=" M 215.02 8.79 C 215.98 9.22 216.94 9.64 217.92 10.04 C 217.03 13.58 216.20 17.14 215.36 20.69 C 214.91 20.82 214.03 21.09 213.59 21.22 L 213.33 20.40 C 213.74 16.51 214.45 12.66 215.02 8.79 Z" />
</g>
<g id="#6c5f4bff">
<path fill="#6c5f4b" opacity="1.00" d=" M 118.18 9.50 C 118.78 9.40 119.98 9.20 120.58 9.09 C 121.48 11.66 122.37 14.22 123.32 16.76 C 122.31 17.86 121.21 18.88 120.04 19.81 C 119.40 16.38 118.81 12.94 118.18 9.50 Z" />
<path fill="#6c5f4b" opacity="1.00" d=" M 159.43 9.12 C 160.01 9.21 161.17 9.38 161.74 9.47 C 161.13 12.92 160.49 16.36 159.94 19.81 C 158.77 18.88 157.68 17.86 156.67 16.76 C 157.63 14.23 158.53 11.67 159.43 9.12 Z" />
</g>
<g id="#565249ff">
<path fill="#565249" opacity="1.00" d=" M 3.92 11.50 C 5.50 13.88 6.74 16.48 7.11 19.37 C 5.80 16.85 4.77 14.20 3.92 11.50 Z" />
<path fill="#565249" opacity="1.00" d=" M 48.89 19.37 C 49.25 16.48 50.51 13.88 52.08 11.50 C 51.23 14.20 50.20 16.85 48.89 19.37 Z" />
<path fill="#565249" opacity="1.00" d=" M 59.92 11.50 C 61.50 13.88 62.74 16.48 63.11 19.37 C 61.80 16.85 60.77 14.20 59.92 11.50 Z" />
<path fill="#565249" opacity="1.00" d=" M 104.89 19.37 C 105.24 16.48 106.51 13.88 108.08 11.50 C 107.23 14.20 106.20 16.85 104.89 19.37 Z" />
<path fill="#565249" opacity="1.00" d=" M 115.92 11.50 C 117.50 13.88 118.73 16.48 119.11 19.37 C 117.80 16.85 116.77 14.20 115.92 11.50 Z" />
<path fill="#565249" opacity="1.00" d=" M 160.89 19.37 C 161.23 16.48 162.51 13.88 164.08 11.50 C 163.23 14.20 162.20 16.85 160.89 19.37 Z" />
<path fill="#565249" opacity="1.00" d=" M 171.92 11.50 C 173.50 13.88 174.72 16.48 175.11 19.37 C 173.80 16.85 172.77 14.20 171.92 11.50 Z" />
<path fill="#565249" opacity="1.00" d=" M 216.89 19.37 C 217.23 16.48 218.52 13.88 220.08 11.50 C 219.23 14.20 218.19 16.85 216.89 19.37 Z" />
<path fill="#565249" opacity="1.00" d=" M 2.44 18.98 C 3.60 15.89 5.56 19.10 4.81 20.97 C 4.42 20.93 3.65 20.84 3.26 20.80 C 3.06 20.34 2.65 19.43 2.44 18.98 Z" />
<path fill="#565249" opacity="1.00" d=" M 51.13 20.88 C 50.38 18.94 52.57 15.87 53.53 19.04 C 53.33 19.47 52.93 20.33 52.73 20.76 C 52.33 20.79 51.53 20.85 51.13 20.88 Z" />
<path fill="#565249" opacity="1.00" d=" M 58.71 19.32 C 58.48 16.55 61.25 17.38 60.95 19.66 C 60.57 19.70 59.80 19.78 59.41 19.82 L 58.71 19.32 Z" />
<path fill="#565249" opacity="1.00" d=" M 107.08 19.67 C 107.01 17.48 110.16 16.74 109.30 19.50 L 108.54 19.98 C 108.17 19.90 107.44 19.74 107.08 19.67 Z" />
<path fill="#565249" opacity="1.00" d=" M 170.68 19.48 C 169.87 16.71 173.03 17.48 172.88 19.70 C 172.52 19.76 171.79 19.90 171.43 19.97 L 170.68 19.48 Z" />
<path fill="#565249" opacity="1.00" d=" M 218.99 19.74 C 218.69 17.45 221.97 16.54 221.06 19.43 L 220.40 19.95 C 220.05 19.90 219.34 19.80 218.99 19.74 Z" />
</g>
<g id="#709fc2fe">
<path fill="#709fc2" opacity="1.00" d=" M 12.09 18.62 C 12.34 16.75 13.32 15.00 15.11 14.22 C 15.12 14.79 15.14 15.93 15.15 16.50 C 14.34 17.62 13.10 18.27 11.99 19.02 L 12.09 18.62 Z" />
<path fill="#709fc2" opacity="1.00" d=" M 41.18 14.31 C 43.38 13.89 43.59 16.98 43.87 18.49 L 43.94 18.87 C 42.75 18.02 41.63 17.00 40.92 15.70 C 40.99 15.35 41.12 14.66 41.18 14.31 Z" />
</g>
<g id="#7ca2beff">
<path fill="#7ca2be" opacity="1.00" d=" M 67.93 17.20 C 68.87 16.05 70.04 15.08 71.42 14.49 C 71.38 15.06 71.31 16.21 71.28 16.78 C 70.22 17.48 69.06 17.76 67.78 17.61 L 67.93 17.20 Z" />
<path fill="#7ca2be" opacity="1.00" d=" M 96.39 14.41 C 98.09 14.60 99.35 15.84 100.20 17.24 L 100.35 17.68 C 98.90 17.60 97.49 16.98 96.61 15.80 C 96.55 15.45 96.45 14.76 96.39 14.41 Z" />
<path fill="#7ca2be" opacity="1.00" d=" M 179.93 17.21 C 180.87 16.05 182.04 15.08 183.42 14.49 C 183.38 15.06 183.31 16.21 183.28 16.78 C 182.22 17.48 181.05 17.76 179.78 17.61 L 179.93 17.21 Z" />
<path fill="#7ca2be" opacity="1.00" d=" M 208.39 14.41 C 210.09 14.60 211.35 15.84 212.20 17.24 L 212.35 17.68 C 210.90 17.60 209.49 16.98 208.61 15.80 C 208.55 15.45 208.45 14.76 208.39 14.41 Z" />
</g>
<g id="#7fa1b9ff">
<path fill="#7fa1b9" opacity="1.00" d=" M 124.32 15.42 C 124.63 14.98 125.26 14.11 125.58 13.68 C 125.19 15.93 124.77 18.17 124.59 20.45 C 122.57 20.82 120.56 21.20 118.54 21.58 L 117.36 21.82 L 117.81 21.48 C 118.36 21.06 119.48 20.23 120.04 19.81 C 121.21 18.88 122.31 17.86 123.32 16.76 C 123.57 16.43 124.07 15.75 124.32 15.42 Z" />
<path fill="#7fa1b9" opacity="1.00" d=" M 154.43 13.67 C 154.74 14.11 155.37 14.98 155.69 15.42 C 155.93 15.75 156.42 16.42 156.67 16.76 C 157.68 17.86 158.77 18.88 159.94 19.81 C 160.50 20.23 161.64 21.07 162.20 21.49 L 162.64 21.82 L 161.52 21.60 C 159.49 21.21 157.45 20.83 155.41 20.44 C 155.22 18.17 154.81 15.92 154.43 13.67 Z" />
</g>
<g id="#4378c9ff">
<path fill="#4378c9" opacity="1.00" d=" M 34.70 17.63 C 36.56 18.17 38.41 18.73 40.26 19.31 C 40.17 19.76 39.99 20.66 39.90 21.11 C 36.63 20.64 32.76 19.73 29.92 21.97 C 28.26 23.19 29.04 25.41 28.98 27.15 C 25.15 28.08 21.41 29.36 17.62 30.41 C 20.51 28.16 23.72 26.40 26.90 24.61 C 26.90 24.01 26.89 22.81 26.89 22.21 C 25.28 21.32 23.66 20.43 22.05 19.55 C 26.31 19.29 30.56 18.68 34.70 17.63 Z" />
<path fill="#4378c9" opacity="1.00" d=" M 98.70 24.43 C 99.55 23.47 100.41 22.52 101.26 21.56 C 102.70 22.37 104.28 23.01 105.96 23.00 C 105.24 23.93 104.54 24.88 103.85 25.84 C 107.19 26.25 110.54 26.59 113.88 26.93 C 111.34 28.76 108.61 30.37 106.32 32.51 C 105.19 35.68 109.07 37.33 110.78 39.37 C 105.85 38.15 100.94 36.88 96.24 34.94 C 96.50 34.01 96.76 33.08 97.02 32.15 C 99.00 33.05 100.99 33.96 102.97 34.88 C 103.66 33.18 104.35 31.49 105.03 29.79 C 102.83 28.12 100.56 26.49 98.70 24.43 M 101.15 23.40 C 100.30 27.38 105.14 22.58 101.15 23.40 Z" />
<path fill="#4378c9" opacity="1.00" d=" M 210.70 24.43 C 211.56 23.47 212.42 22.51 213.29 21.56 C 214.73 22.40 216.31 23.05 218.00 23.13 C 217.30 23.59 215.89 24.51 215.18 24.97 L 214.48 25.28 C 215.19 21.94 210.70 24.45 213.80 25.60 C 217.02 27.02 220.56 27.24 224.00 27.74 L 224.00 27.91 C 222.04 29.63 219.50 30.90 218.16 33.21 C 217.73 36.04 221.21 37.44 222.78 39.36 C 217.86 38.15 212.94 36.89 208.24 34.94 C 208.50 34.01 208.76 33.08 209.02 32.15 C 211.00 33.05 212.99 33.96 214.97 34.88 C 215.66 33.19 216.35 31.49 217.03 29.79 C 214.83 28.12 212.56 26.49 210.70 24.43 Z" />
</g>
<g id="#298ad7ff">
<path fill="#298ad7" opacity="1.00" d=" M 40.92 15.70 C 41.63 17.00 42.75 18.02 43.94 18.87 C 44.32 19.15 45.07 19.71 45.44 19.99 L 45.94 20.36 C 45.68 20.76 45.17 21.55 44.91 21.94 L 44.52 22.54 C 44.53 21.45 42.83 19.75 42.15 21.35 C 42.21 22.52 42.87 23.11 44.15 23.13 C 43.84 23.63 43.22 24.63 42.91 25.12 C 41.83 23.85 40.84 22.49 39.90 21.11 C 39.99 20.66 40.17 19.76 40.26 19.31 C 40.43 18.40 40.76 16.60 40.92 15.70 Z" />
</g>
<g id="#3a94d8ff">
<path fill="#3a94d8" opacity="1.00" d=" M 96.61 15.80 C 97.49 16.98 98.90 17.60 100.35 17.68 C 100.68 18.58 101.00 19.49 101.32 20.40 L 101.57 21.22 L 101.26 21.56 C 100.41 22.52 99.55 23.47 98.70 24.43 C 97.75 21.62 97.23 18.69 96.61 15.80 Z" />
<path fill="#3a94d8" opacity="1.00" d=" M 208.61 15.80 C 209.49 16.98 210.90 17.60 212.35 17.68 C 212.68 18.59 213.01 19.49 213.33 20.40 L 213.59 21.22 L 213.29 21.56 C 212.42 22.51 211.56 23.47 210.70 24.43 C 209.75 21.62 209.22 18.69 208.61 15.80 Z" />
</g>
<g id="#2a8ad7ff">
<path fill="#2a8ad7" opacity="1.00" d=" M 11.99 19.02 C 13.10 18.27 14.34 17.62 15.15 16.50 C 15.22 19.62 15.27 22.75 15.21 25.87 C 14.16 24.95 13.11 24.02 12.09 23.06 C 13.35 22.98 13.94 22.36 13.89 21.21 C 13.08 19.70 11.42 21.43 11.61 22.59 L 11.30 22.28 C 10.91 21.87 10.14 21.06 9.75 20.65 L 10.56 20.07 C 10.92 19.80 11.63 19.28 11.99 19.02 Z" />
</g>
<g id="#3893d8ff">
<path fill="#3893d8" opacity="1.00" d=" M 67.78 17.61 C 69.06 17.76 70.22 17.48 71.28 16.78 C 71.27 19.04 71.45 21.29 71.58 23.54 C 69.92 23.04 68.28 22.46 66.73 21.69 L 66.31 21.48 L 66.65 20.54 C 67.03 19.56 67.41 18.59 67.78 17.61 Z" />
<path fill="#3893d8" opacity="1.00" d=" M 179.78 17.61 C 181.05 17.76 182.22 17.48 183.28 16.78 C 183.27 19.06 183.44 21.33 183.57 23.59 C 181.94 23.06 180.34 22.44 178.83 21.63 L 178.37 21.38 L 178.67 20.50 C 179.04 19.54 179.41 18.58 179.78 17.61 Z" />
</g>
<g id="#4478caff">
<path fill="#4478ca" opacity="1.00" d=" M 77.77 17.10 C 82.16 17.91 86.67 18.40 91.02 17.09 C 88.03 19.38 83.60 22.53 86.62 26.60 C 82.26 26.28 74.11 25.46 75.36 32.94 C 80.72 34.37 86.50 35.63 91.35 32.15 C 90.67 30.31 90.03 28.46 89.35 26.62 C 90.23 27.16 91.11 27.70 91.99 28.25 C 92.64 30.37 93.41 32.45 94.28 34.49 C 88.13 35.11 85.00 40.23 83.16 45.43 C 82.63 42.38 82.13 39.32 81.68 36.26 C 79.18 36.11 76.69 35.96 74.19 35.82 C 73.94 32.94 73.77 30.07 73.46 27.21 C 77.01 26.20 80.53 25.06 84.08 24.01 C 84.02 22.75 83.98 21.49 83.93 20.23 C 81.87 19.20 79.82 18.16 77.77 17.10 Z" />
</g>
<g id="#4a463eff">
<path fill="#4a463e" opacity="1.00" d=" M 114.40 18.03 C 115.35 16.67 117.30 17.51 117.00 19.13 C 116.35 18.86 115.05 18.31 114.40 18.03 Z" />
<path fill="#4a463e" opacity="1.00" d=" M 163.00 19.13 C 162.70 17.51 164.65 16.67 165.60 18.03 C 164.95 18.31 163.65 18.86 163.00 19.13 Z" />
</g>
<g id="#4378caff">
<path fill="#4378ca" opacity="1.00" d=" M 190.16 16.94 C 194.31 17.85 198.60 18.10 202.77 17.19 C 199.80 19.38 197.13 22.39 197.94 26.36 C 193.31 26.48 186.76 26.19 186.87 33.04 C 192.29 34.13 198.02 35.36 203.13 32.52 C 202.69 30.41 202.26 28.30 201.92 26.17 C 203.62 28.64 204.87 31.38 206.40 33.96 C 198.89 35.97 196.18 43.52 191.25 48.57 C 195.87 51.17 200.43 53.89 205.31 56.00 L 195.38 56.00 C 196.74 55.60 198.10 55.19 199.46 54.75 C 195.60 52.61 191.64 50.64 187.78 48.50 C 191.61 45.49 195.07 41.75 194.95 36.42 C 192.02 36.17 189.10 35.90 186.17 35.61 C 185.88 32.84 185.59 30.06 185.31 27.28 C 189.30 26.11 193.26 24.84 197.19 23.47 C 195.30 20.84 192.84 18.72 190.16 16.94 Z" />
</g>
<g id="#9cb3c7fe">
<path fill="#9cb3c7" opacity="1.00" d=" M 111.94 18.79 C 112.46 18.63 113.49 18.32 114.01 18.17 C 114.91 19.36 115.40 20.79 116.12 22.08 L 115.74 22.20 C 114.64 21.54 113.60 20.79 112.63 19.95 C 112.46 19.66 112.11 19.08 111.94 18.79 Z" />
<path fill="#9cb3c7" opacity="1.00" d=" M 165.99 18.17 C 166.50 18.32 167.54 18.63 168.05 18.78 C 167.88 19.07 167.54 19.65 167.37 19.94 C 166.39 20.79 165.36 21.54 164.25 22.20 L 163.88 22.09 C 164.59 20.79 165.09 19.36 165.99 18.17 Z" />
<path fill="#9cb3c7" opacity="1.00" d=" M 57.95 19.42 L 58.71 19.32 L 59.41 19.82 C 59.59 20.85 59.86 21.86 60.23 22.85 L 59.77 23.08 C 58.73 22.72 57.84 22.14 57.10 21.34 C 57.31 20.86 57.74 19.90 57.95 19.42 Z" />
<path fill="#9cb3c7" opacity="1.00" d=" M 109.30 19.50 L 110.11 19.32 C 110.34 19.84 110.82 20.88 111.06 21.39 C 110.17 22.07 109.21 22.62 108.19 23.07 L 107.70 22.87 C 108.07 21.93 108.35 20.97 108.54 19.98 L 109.30 19.50 Z" />
<path fill="#9cb3c7" opacity="1.00" d=" M 169.88 19.31 L 170.68 19.48 L 171.43 19.97 C 171.61 20.98 171.89 21.97 172.26 22.93 L 171.77 23.10 C 170.76 22.64 169.81 22.07 168.93 21.39 C 169.17 20.87 169.65 19.83 169.88 19.31 Z" />
<path fill="#9cb3c7" opacity="1.00" d=" M 221.06 19.43 L 221.80 19.32 C 223.67 20.65 222.08 22.83 220.32 23.18 L 219.87 22.93 C 220.19 21.96 220.37 20.97 220.40 19.95 L 221.06 19.43 Z" />
</g>
<g id="#5688bafe">
<path fill="#5688ba" opacity="1.00" d=" M 114.01 18.17 L 114.40 18.03 C 115.05 18.31 116.35 18.86 117.00 19.13 C 117.20 19.72 117.60 20.89 117.81 21.48 L 117.36 21.82 C 117.05 21.88 116.43 22.02 116.12 22.08 C 115.40 20.79 114.91 19.36 114.01 18.17 Z" />
<path fill="#5688ba" opacity="1.00" d=" M 165.60 18.03 L 165.99 18.17 C 165.09 19.36 164.59 20.79 163.88 22.09 C 163.57 22.02 162.95 21.89 162.64 21.82 L 162.20 21.49 C 162.40 20.90 162.80 19.72 163.00 19.13 C 163.65 18.86 164.95 18.31 165.60 18.03 Z" />
</g>
<g id="#9eb5caff">
<path fill="#9eb5ca" opacity="1.00" d=" M 1.79 20.16 C 1.96 19.86 2.28 19.27 2.44 18.98 C 2.65 19.43 3.06 20.34 3.26 20.80 C 3.51 21.76 3.83 22.70 4.22 23.62 L 3.53 23.40 C 2.57 23.08 1.62 22.75 0.67 22.41 C 0.95 21.85 1.51 20.72 1.79 20.16 Z" />
</g>
<g id="#9eb5c9ff">
<path fill="#9eb5c9" opacity="1.00" d=" M 53.53 19.04 C 53.69 19.38 54.00 20.06 54.16 20.40 C 54.40 20.85 54.88 21.75 55.12 22.21 C 54.23 22.53 53.34 22.85 52.45 23.17 L 51.81 23.39 C 52.17 22.54 52.48 21.66 52.73 20.76 C 52.93 20.33 53.33 19.47 53.53 19.04 Z" />
</g>
<g id="#337cccff">
<path fill="#337ccc" opacity="1.00" d=" M 221.80 19.32 C 222.35 19.24 223.45 19.07 224.00 18.99 L 224.00 25.63 L 223.31 25.16 C 222.32 24.49 221.32 23.83 220.32 23.18 C 222.08 22.83 223.67 20.65 221.80 19.32 Z" />
</g>
<g id="#adc2d9ff">
<path fill="#adc2d9" opacity="1.00" d=" M 11.61 22.59 C 11.42 21.43 13.08 19.70 13.89 21.21 C 13.94 22.36 13.35 22.98 12.09 23.06 L 11.61 22.59 Z" />
<path fill="#adc2d9" opacity="1.00" d=" M 42.15 21.35 C 42.83 19.75 44.53 21.45 44.52 22.54 L 44.15 23.13 C 42.87 23.11 42.21 22.52 42.15 21.35 Z" />
</g>
<g id="#4f7baeff">
<path fill="#4f7bae" opacity="1.00" d=" M 59.41 19.82 C 59.80 19.78 60.57 19.70 60.95 19.66 C 61.14 20.25 61.50 21.42 61.69 22.01 L 61.47 22.63 C 61.16 22.68 60.54 22.79 60.23 22.85 C 59.86 21.86 59.59 20.85 59.41 19.82 Z" />
<path fill="#4f7bae" opacity="1.00" d=" M 107.08 19.67 C 107.44 19.74 108.17 19.90 108.54 19.98 C 108.35 20.97 108.07 21.93 107.70 22.87 C 107.37 22.78 106.72 22.62 106.39 22.54 L 106.15 21.92 C 106.38 21.36 106.85 20.23 107.08 19.67 Z" />
<path fill="#4f7bae" opacity="1.00" d=" M 171.43 19.97 C 171.79 19.90 172.52 19.76 172.88 19.70 C 173.09 20.30 173.52 21.50 173.73 22.10 L 173.56 22.73 C 173.23 22.78 172.58 22.88 172.26 22.93 C 171.89 21.97 171.61 20.98 171.43 19.97 Z" />
<path fill="#4f7bae" opacity="1.00" d=" M 218.99 19.74 C 219.34 19.80 220.05 19.90 220.40 19.95 C 220.37 20.97 220.19 21.96 219.87 22.93 C 219.54 22.90 218.88 22.83 218.55 22.79 L 218.30 22.18 C 218.48 21.57 218.82 20.35 218.99 19.74 Z" />
<path fill="#4f7bae" opacity="1.00" d=" M 3.26 20.80 C 3.65 20.84 4.42 20.93 4.81 20.97 C 5.11 21.58 5.72 22.80 6.03 23.41 L 5.60 23.75 C 5.26 23.72 4.56 23.65 4.22 23.62 C 3.83 22.70 3.51 21.76 3.26 20.80 Z" />
<path fill="#4f7bae" opacity="1.00" d=" M 51.13 20.88 C 51.53 20.85 52.33 20.79 52.73 20.76 C 52.48 21.66 52.17 22.54 51.81 23.39 C 51.46 23.49 50.75 23.67 50.40 23.77 L 49.96 23.42 C 50.25 22.78 50.84 21.51 51.13 20.88 Z" />
</g>
<g id="#8ea7b9ff">
<path fill="#8ea7b9" opacity="1.00" d=" M 8.08 21.88 C 8.50 21.57 9.33 20.96 9.75 20.65 C 10.14 21.06 10.91 21.87 11.30 22.28 C 9.75 22.74 8.19 23.19 6.61 23.56 L 5.60 23.75 L 6.03 23.41 C 6.54 23.03 7.57 22.26 8.08 21.88 Z" />
<path fill="#8ea7b9" opacity="1.00" d=" M 44.91 21.94 C 45.17 21.55 45.68 20.76 45.94 20.36 C 46.42 20.73 47.37 21.45 47.85 21.81 C 48.38 22.21 49.43 23.02 49.96 23.42 L 50.40 23.77 L 49.31 23.98 C 48.79 24.08 47.77 24.30 47.25 24.40 C 46.47 23.58 45.69 22.76 44.91 21.94 Z" />
</g>
<g id="#8ba4b6fe">
<path fill="#8ba4b6" opacity="1.00" d=" M 61.69 22.01 C 62.39 21.71 63.80 21.12 64.50 20.82 C 64.95 20.99 65.86 21.32 66.31 21.48 L 66.73 21.69 C 65.30 22.53 63.70 23.20 62.01 23.07 L 61.47 22.63 L 61.69 22.01 Z" />
<path fill="#8ba4b6" opacity="1.00" d=" M 101.26 21.56 L 101.57 21.22 C 102.00 21.07 102.86 20.77 103.28 20.61 C 104.00 20.94 105.44 21.60 106.15 21.92 L 106.39 22.54 L 105.96 23.00 C 104.28 23.01 102.70 22.37 101.26 21.56 Z" />
<path fill="#8ba4b6" opacity="1.00" d=" M 173.73 22.10 C 174.42 21.75 175.80 21.03 176.49 20.68 C 176.96 20.85 177.90 21.20 178.37 21.38 L 178.83 21.63 C 177.46 22.53 175.84 22.99 174.19 22.91 L 173.56 22.73 L 173.73 22.10 Z" />
<path fill="#8ba4b6" opacity="1.00" d=" M 213.29 21.56 L 213.59 21.22 C 214.03 21.09 214.91 20.82 215.36 20.69 C 216.09 21.06 217.57 21.81 218.30 22.18 L 218.55 22.79 L 218.00 23.13 C 216.31 23.05 214.73 22.40 213.29 21.56 Z" />
</g>
<g id="#4279caff">
<path fill="#4279ca" opacity="1.00" d=" M 44.52 22.54 L 44.91 21.94 C 45.69 22.76 46.47 23.58 47.25 24.40 C 45.85 22.99 43.40 25.90 45.60 26.51 C 50.33 29.18 55.85 27.29 60.91 26.82 C 57.18 28.77 53.39 30.70 50.11 33.36 C 49.43 36.61 52.92 38.32 54.77 40.38 C 49.85 39.15 44.94 37.88 40.24 35.94 C 40.50 35.02 40.76 34.09 41.01 33.16 C 43.21 34.15 45.41 35.13 47.61 36.09 C 49.76 31.40 45.90 28.25 42.91 25.12 C 43.22 24.63 43.84 23.63 44.15 23.13 L 44.52 22.54 Z" />
</g>
<g id="#65569cff">
<path fill="#65569c" opacity="1.00" d=" M 115.74 22.20 L 116.12 22.08 C 116.43 22.02 117.05 21.88 117.36 21.82 L 118.54 21.58 C 118.79 22.16 119.30 23.32 119.55 23.91 C 118.97 24.40 118.39 24.89 117.81 25.38 C 116.10 24.69 114.39 24.01 112.67 23.33 C 113.69 22.94 114.71 22.56 115.74 22.20 Z" />
<path fill="#65569c" opacity="1.00" d=" M 122.14 22.11 C 123.44 22.78 123.43 23.46 122.11 24.14 C 120.81 23.47 120.82 22.80 122.14 22.11 Z" />
<path fill="#65569c" opacity="1.00" d=" M 157.15 22.40 C 161.14 21.58 156.30 26.38 157.15 22.40 Z" />
<path fill="#65569c" opacity="1.00" d=" M 161.52 21.60 L 162.64 21.82 C 162.95 21.89 163.57 22.02 163.88 22.09 L 164.25 22.20 C 165.30 22.58 166.34 22.98 167.38 23.39 C 165.65 24.06 163.93 24.75 162.18 25.36 L 161.05 25.56 C 161.24 24.25 161.37 22.92 161.52 21.60 Z" />
<path fill="#65569c" opacity="1.00" d=" M 59.77 23.08 L 60.23 22.85 C 60.54 22.79 61.16 22.68 61.47 22.63 L 62.01 23.07 C 62.62 23.59 63.83 24.64 64.44 25.16 C 61.83 25.17 59.21 25.06 56.60 24.90 C 57.65 24.28 58.71 23.68 59.77 23.08 Z" />
<path fill="#65569c" opacity="1.00" d=" M 66.14 23.11 C 67.44 23.78 67.43 24.46 66.11 25.14 C 64.81 24.47 64.82 23.80 66.14 23.11 Z" />
<path fill="#65569c" opacity="1.00" d=" M 101.15 23.40 C 105.14 22.58 100.30 27.38 101.15 23.40 Z" />
<path fill="#65569c" opacity="1.00" d=" M 105.96 23.00 L 106.39 22.54 C 106.72 22.62 107.37 22.78 107.70 22.87 L 108.19 23.07 C 109.26 23.56 110.32 24.07 111.38 24.59 C 108.88 25.04 106.37 25.46 103.85 25.84 C 104.54 24.88 105.24 23.93 105.96 23.00 Z" />
<path fill="#65569c" opacity="1.00" d=" M 171.77 23.10 L 172.26 22.93 C 172.58 22.88 173.23 22.78 173.56 22.73 L 174.19 22.91 C 174.54 23.40 175.23 24.39 175.58 24.88 C 175.00 25.39 174.42 25.90 173.85 26.41 C 172.13 25.73 170.41 25.06 168.69 24.39 C 169.71 23.95 170.74 23.52 171.77 23.10 Z" />
<path fill="#65569c" opacity="1.00" d=" M 178.14 23.11 C 179.44 23.78 179.43 24.46 178.11 25.14 C 176.81 24.47 176.82 23.80 178.14 23.11 Z" />
<path fill="#65569c" opacity="1.00" d=" M 213.80 25.60 C 210.70 24.45 215.19 21.94 214.48 25.28 L 213.80 25.60 Z" />
<path fill="#65569c" opacity="1.00" d=" M 218.00 23.13 L 218.55 22.79 C 218.88 22.83 219.54 22.90 219.87 22.93 L 220.32 23.18 C 221.32 23.83 222.32 24.49 223.31 25.16 C 220.60 25.11 217.89 25.09 215.18 24.97 C 215.89 24.51 217.30 23.59 218.00 23.13 Z" />
<path fill="#65569c" opacity="1.00" d=" M 3.53 23.40 L 4.22 23.62 C 4.56 23.65 5.26 23.72 5.60 23.75 L 6.61 23.56 C 6.92 24.26 7.54 25.66 7.86 26.36 C 5.56 26.28 3.27 26.20 0.98 26.13 C 1.83 25.22 2.68 24.31 3.53 23.40 Z" />
<path fill="#65569c" opacity="1.00" d=" M 10.14 24.11 C 11.44 24.78 11.43 25.46 10.11 26.14 C 8.81 25.47 8.82 24.80 10.14 24.11 Z" />
<path fill="#65569c" opacity="1.00" d=" M 45.60 26.51 C 43.40 25.90 45.85 22.99 47.25 24.40 C 46.84 24.93 46.01 25.98 45.60 26.51 Z" />
<path fill="#65569c" opacity="1.00" d=" M 49.31 23.98 L 50.40 23.77 C 50.75 23.67 51.46 23.49 51.81 23.39 L 52.45 23.17 C 53.30 24.17 54.15 25.18 55.01 26.18 C 52.71 26.22 50.41 26.26 48.11 26.31 C 48.41 25.73 49.01 24.56 49.31 23.98 Z" />
</g>
<g id="#4579cbff">
<path fill="#4579cb" opacity="1.00" d=" M 147.38 25.35 C 148.50 27.54 149.55 29.76 150.62 31.97 C 153.57 32.28 156.49 32.83 159.38 33.47 C 160.05 30.86 160.66 28.23 161.05 25.56 L 162.18 25.36 C 165.37 25.87 168.54 26.57 171.70 27.25 C 171.84 27.77 172.13 28.82 172.27 29.34 C 168.94 29.03 164.18 27.57 162.25 31.36 C 161.14 34.61 165.02 36.35 166.78 38.42 C 160.01 36.75 153.23 33.18 146.12 34.98 C 141.53 36.41 141.19 41.86 139.80 45.70 C 138.78 45.61 137.76 45.53 136.74 45.44 C 137.20 42.68 137.58 39.92 137.99 37.16 C 134.52 35.56 130.98 34.06 127.97 31.67 C 133.71 32.61 139.98 35.33 145.62 32.56 C 148.27 31.21 147.09 27.73 147.38 25.35 Z" />
</g>
<g id="#4578c9ff">
<path fill="#4578c9" opacity="1.00" d=" M 32.35 27.61 C 33.18 28.13 34.02 28.66 34.85 29.18 C 35.47 31.66 36.69 33.92 38.41 35.81 C 36.36 36.72 31.84 35.64 31.22 38.87 C 30.33 42.17 28.86 45.79 24.85 45.92 C 25.82 43.80 26.87 41.70 27.93 39.62 C 23.47 38.32 18.97 37.20 14.46 36.07 C 16.54 34.79 18.75 32.46 21.36 33.81 C 25.70 35.43 30.38 36.00 34.36 33.16 C 33.67 31.32 33.02 29.46 32.35 27.61 Z" />
</g>
<g id="#4878cbff">
<path fill="#4878cb" opacity="1.00" d=" M 61.02 39.89 C 61.14 37.00 65.02 36.79 66.99 35.46 C 66.85 36.16 66.57 37.56 66.43 38.26 C 65.50 38.43 64.56 38.59 63.63 38.75 C 64.74 40.97 65.93 43.14 67.05 45.35 C 64.87 43.74 62.54 42.19 61.02 39.89 Z" />
</g>
<g id="#4374c9ff">
<path fill="#4374c9" opacity="1.00" d=" M 171.41 40.76 C 173.07 37.49 176.23 35.48 180.03 35.30 C 178.92 37.70 177.75 40.07 176.69 42.49 C 177.95 43.18 179.17 43.95 180.41 44.68 C 177.09 44.24 174.30 42.29 171.41 40.76 Z" />
</g>
<g id="#4378cbff">
<path fill="#4378cb" opacity="1.00" d=" M 103.40 38.81 C 103.42 40.58 103.36 42.36 103.27 44.14 C 106.28 44.44 109.26 45.00 112.28 45.32 C 108.01 45.92 103.73 46.55 99.57 47.75 C 95.51 45.70 90.96 45.31 86.55 44.49 C 89.83 43.18 93.24 43.38 96.61 43.99 C 101.12 46.03 101.84 41.35 103.40 38.81 Z" />
<path fill="#4378cb" opacity="1.00" d=" M 34.88 42.80 C 38.95 45.64 44.15 43.77 47.02 40.11 C 46.65 41.49 46.29 42.86 45.95 44.24 C 49.45 45.08 52.91 46.10 56.45 46.76 C 53.03 46.71 49.62 46.68 46.21 46.42 C 45.41 47.36 44.60 48.30 43.81 49.25 C 40.52 45.59 35.53 44.93 30.89 45.69 C 32.24 44.75 33.56 43.79 34.88 42.80 Z" />
</g>
<g id="#4279cbff">
<path fill="#4279cb" opacity="1.00" d=" M 155.01 44.17 C 157.51 43.42 158.92 40.97 160.62 39.17 C 160.79 41.18 161.05 43.17 161.37 45.16 C 157.06 47.83 152.35 46.51 148.03 44.70 C 148.22 43.98 148.42 43.25 148.61 42.53 C 150.62 43.40 152.71 44.93 155.01 44.17 Z" />
</g>
<g id="#4379cbff">
<path fill="#4379cb" opacity="1.00" d=" M 198.57 44.19 C 207.01 42.55 215.54 44.78 224.00 45.14 L 224.00 45.86 C 218.93 46.17 213.72 47.97 208.65 46.67 C 205.26 45.95 201.89 45.17 198.57 44.19 Z" />
</g>
<g id="#4c77caff">
<path fill="#4c77ca" opacity="1.00" d=" M 59.57 44.00 C 60.72 44.85 61.88 45.70 63.03 46.55 C 61.82 47.55 60.63 48.57 59.40 49.52 C 58.95 49.65 58.06 49.90 57.62 50.03 C 58.29 48.03 58.97 46.03 59.57 44.00 Z" />
</g>
<g id="#4778d1ff">
<path fill="#4778d1" opacity="1.00" d=" M 113.52 43.52 C 114.86 44.93 116.16 46.36 117.44 47.82 C 116.00 47.89 114.56 47.95 113.12 48.01 C 113.26 46.51 113.40 45.02 113.52 43.52 Z" />
</g>
<g id="#4575cbff">
<path fill="#4575cb" opacity="1.00" d=" M 163.96 44.23 C 164.58 43.18 166.42 43.18 167.04 44.23 C 167.35 46.00 163.65 46.00 163.96 44.23 Z" />
</g>
<g id="#4177ccff">
<path fill="#4177cc" opacity="1.00" d=" M 130.15 46.77 C 138.09 45.97 144.05 51.98 150.18 56.00 L 139.16 56.00 C 140.77 55.38 144.00 54.14 145.61 53.52 C 143.23 52.25 140.82 51.01 138.40 49.80 C 138.28 51.07 138.17 52.35 138.06 53.63 C 135.45 51.31 132.72 49.13 130.15 46.77 Z" />
</g>
<g id="#557cc4fe">
<path fill="#557cc4" opacity="1.00" d=" M 1.72 48.75 C 5.46 49.03 9.66 49.36 12.19 52.51 C 11.67 52.32 10.62 51.94 10.10 51.76 C 9.04 51.39 7.98 51.02 6.93 50.65 C 5.63 50.18 3.03 49.23 1.72 48.75 Z" />
</g>
<g id="#4b659eff">
<path fill="#4b659e" opacity="1.00" d=" M 0.00 48.51 C 0.43 48.57 1.29 48.69 1.72 48.75 C 3.03 49.23 5.63 50.18 6.93 50.65 C 5.20 50.67 1.73 50.71 0.00 50.73 L 0.00 48.51 Z" />
</g>
<g id="#42689dff">
<path fill="#42689d" opacity="1.00" d=" M 111.49 50.62 C 114.89 50.35 118.43 49.45 121.79 50.23 C 122.81 51.85 123.39 53.70 124.20 55.43 C 120.50 52.64 116.03 51.30 111.49 50.62 Z" />
</g>
<g id="#315a8cff">
<path fill="#315a8c" opacity="1.00" d=" M 55.21 50.69 C 55.81 50.53 57.02 50.19 57.62 50.03 C 58.06 49.90 58.95 49.65 59.40 49.52 C 60.63 49.91 61.85 50.33 63.06 50.81 C 61.55 50.79 58.54 50.75 57.03 50.73 L 56.03 50.69 L 55.21 50.69 Z" />
</g>
<g id="#2f5b84ff">
<path fill="#2f5b84" opacity="1.00" d=" M 167.31 51.02 C 169.94 50.59 172.57 50.18 175.21 49.81 L 174.49 50.67 C 173.12 50.72 170.39 50.82 169.02 50.86 L 168.12 50.93 L 167.31 51.02 Z" />
</g>
<g id="#607aafff">
<path fill="#607aaf" opacity="1.00" d=" M 175.21 49.81 C 177.51 51.58 179.39 53.80 181.26 56.00 L 179.86 56.00 C 177.93 54.38 176.10 52.62 174.49 50.67 L 175.21 49.81 Z" />
</g>
<g id="#24393dff">
<path fill="#24393d" opacity="1.00" d=" M 0.00 50.73 C 1.73 50.71 5.20 50.67 6.93 50.65 C 8.40 52.50 9.93 54.33 11.61 56.00 L 7.71 56.00 C 5.16 54.35 2.57 52.76 0.00 51.15 L 0.00 50.73 Z" />
</g>
<g id="#5f7da3ff">
<path fill="#5f7da3" opacity="1.00" d=" M 6.93 50.65 C 7.98 51.02 9.04 51.39 10.10 51.76 C 10.95 53.19 11.82 54.61 12.75 56.00 L 11.61 56.00 C 9.93 54.33 8.40 52.50 6.93 50.65 Z" />
</g>
<g id="#436ca4ff">
<path fill="#436ca4" opacity="1.00" d=" M 25.13 56.00 C 25.93 54.21 26.73 52.43 27.53 50.64 C 27.73 52.43 27.93 54.21 28.14 56.00 L 25.13 56.00 Z" />
</g>
<g id="#3686d0ff">
<path fill="#3686d0" opacity="1.00" d=" M 42.98 51.64 C 44.12 51.43 45.26 51.20 46.40 50.97 C 44.87 52.02 43.39 53.15 41.98 54.38 C 42.23 53.69 42.73 52.32 42.98 51.64 Z" />
</g>
<g id="#809db3ff">
<path fill="#809db3" opacity="1.00" d=" M 46.40 50.97 L 47.59 50.69 C 47.05 51.81 46.50 52.92 45.92 54.01 C 45.41 54.51 44.38 55.50 43.86 56.00 L 40.53 56.00 C 40.90 55.59 41.62 54.78 41.98 54.38 C 43.39 53.15 44.87 52.02 46.40 50.97 Z" />
</g>
<g id="#332e2aff">
<path fill="#332e2a" opacity="1.00" d=" M 45.92 54.01 C 48.70 52.16 52.01 51.46 55.21 50.69 L 56.03 50.69 C 53.22 52.42 50.48 54.25 47.69 56.00 L 43.86 56.00 C 44.38 55.50 45.41 54.51 45.92 54.01 Z" />
<path fill="#332e2a" opacity="1.00" d=" M 103.01 52.07 C 105.85 51.66 108.64 51.01 111.49 50.62 L 112.21 50.92 C 109.33 52.57 106.50 54.29 103.67 56.00 L 100.90 56.00 L 100.87 55.53 C 101.93 54.56 102.64 53.41 103.01 52.07 Z" />
<path fill="#332e2a" opacity="1.00" d=" M 157.85 53.15 C 160.96 52.26 164.11 51.53 167.31 51.02 L 168.12 50.93 C 165.19 52.48 162.40 54.26 159.58 56.00 L 156.62 56.00 C 156.93 55.29 157.54 53.87 157.85 53.15 Z" />
<path fill="#332e2a" opacity="1.00" d=" M 214.97 52.19 C 218.01 51.81 220.98 51.14 224.00 50.54 L 224.00 51.09 C 221.24 52.73 218.51 54.39 215.75 56.00 L 212.89 56.00 L 212.87 55.53 C 213.90 54.60 214.60 53.49 214.97 52.19 Z" />
</g>
<g id="#203b3cff">
<path fill="#203b3c" opacity="1.00" d=" M 57.03 50.73 C 58.54 50.75 61.55 50.79 63.06 50.81 C 64.63 52.61 66.25 54.37 68.00 56.00 L 64.50 56.00 C 63.84 55.46 62.51 54.38 61.85 53.85 C 60.31 52.70 58.67 51.72 57.03 50.73 Z" />
</g>
<g id="#6286a8ff">
<path fill="#6286a8" opacity="1.00" d=" M 63.06 50.81 C 65.49 52.12 67.53 54.02 69.43 56.00 L 68.00 56.00 C 66.25 54.37 64.63 52.61 63.06 50.81 Z" />
</g>
<g id="#244048ff">
<path fill="#244048" opacity="1.00" d=" M 111.49 50.62 C 116.03 51.30 120.50 52.64 124.20 55.43 L 125.03 56.00 L 119.77 56.00 C 118.76 55.10 117.75 54.21 116.73 53.33 C 115.28 52.43 113.75 51.66 112.21 50.92 L 111.49 50.62 Z" />
</g>
<g id="#203b43ff">
<path fill="#203b43" opacity="1.00" d=" M 169.02 50.86 C 170.39 50.82 173.12 50.72 174.49 50.67 C 176.10 52.62 177.93 54.38 179.86 56.00 L 176.46 56.00 C 174.05 54.19 171.69 52.28 169.02 50.86 Z" />
</g>
<g id="#7c9c74ff">
<path fill="#7c9c74" opacity="1.00" d=" M 0.00 51.15 C 2.57 52.76 5.16 54.35 7.71 56.00 L 6.50 56.00 C 4.35 54.89 2.21 53.76 0.00 52.77 L 0.00 51.15 Z" />
</g>
<g id="#70a0cfff">
<path fill="#70a0cf" opacity="1.00" d=" M 10.10 51.76 C 10.62 51.94 11.67 52.32 12.19 52.51 C 13.33 53.62 14.34 54.84 15.42 56.00 L 12.75 56.00 C 11.82 54.61 10.95 53.19 10.10 51.76 Z" />
</g>
<g id="#74a05cff">
<path fill="#74a05c" opacity="1.00" d=" M 47.69 56.00 C 50.48 54.25 53.22 52.42 56.03 50.69 C 55.89 52.46 55.74 54.23 55.57 56.00 L 47.69 56.00 Z" />
<path fill="#74a05c" opacity="1.00" d=" M 215.75 56.00 C 218.51 54.39 221.24 52.73 224.00 51.09 L 224.00 56.00 L 215.75 56.00 Z" />
</g>
<g id="#709d86ff">
<path fill="#709d86" opacity="1.00" d=" M 56.03 50.69 L 57.03 50.73 C 58.67 51.72 60.31 52.70 61.85 53.85 C 60.65 53.66 59.44 53.50 58.24 53.33 C 57.53 54.23 56.82 55.12 56.10 56.00 L 55.57 56.00 C 55.74 54.23 55.89 52.46 56.03 50.69 Z" />
</g>
<g id="#2e83d0ff">
<path fill="#2e83d0" opacity="1.00" d=" M 97.17 56.00 C 98.74 54.63 100.23 53.18 101.74 51.74 C 100.34 52.53 100.62 54.22 100.87 55.53 L 100.90 56.00 L 97.17 56.00 Z" />
<path fill="#2e83d0" opacity="1.00" d=" M 209.43 56.00 C 210.83 54.56 212.24 53.12 213.68 51.71 C 212.34 52.55 212.64 54.23 212.87 55.53 L 212.89 56.00 L 209.43 56.00 Z" />
</g>
<g id="#67839bff">
<path fill="#67839b" opacity="1.00" d=" M 101.74 51.74 C 102.05 51.82 102.69 51.98 103.01 52.07 C 102.64 53.41 101.93 54.56 100.87 55.53 C 100.62 54.22 100.34 52.53 101.74 51.74 Z" />
<path fill="#67839b" opacity="1.00" d=" M 213.68 51.71 C 214.00 51.83 214.65 52.07 214.97 52.19 C 214.60 53.49 213.90 54.60 212.87 55.53 C 212.64 54.23 212.34 52.55 213.68 51.71 Z" />
</g>
<g id="#74a05eff">
<path fill="#74a05e" opacity="1.00" d=" M 103.67 56.00 C 106.50 54.29 109.33 52.57 112.21 50.92 C 112.10 51.83 111.88 53.64 111.77 54.55 C 113.42 54.12 115.08 53.72 116.73 53.33 C 117.75 54.21 118.76 55.10 119.77 56.00 L 103.67 56.00 Z" />
</g>
<g id="#6e9a88ff">
<path fill="#6e9a88" opacity="1.00" d=" M 112.21 50.92 C 113.75 51.66 115.28 52.43 116.73 53.33 C 115.08 53.72 113.42 54.12 111.77 54.55 C 111.88 53.64 112.10 51.83 112.21 50.92 Z" />
</g>
<g id="#73a065ff">
<path fill="#73a065" opacity="1.00" d=" M 159.58 56.00 C 162.40 54.26 165.19 52.48 168.12 50.93 L 169.02 50.86 C 171.69 52.28 174.05 54.19 176.46 56.00 L 174.03 56.00 C 173.09 55.25 172.17 54.48 171.26 53.71 C 170.14 54.48 169.03 55.25 167.90 56.00 L 159.58 56.00 Z" />
</g>
<g id="#759d51ff">
<path fill="#759d51" opacity="1.00" d=" M 0.00 52.77 C 2.21 53.76 4.35 54.89 6.50 56.00 L 0.00 56.00 L 0.00 52.77 Z" />
</g>
<g id="#6e9b56fe">
<path fill="#6e9b56" opacity="1.00" d=" M 56.10 56.00 C 56.82 55.12 57.53 54.23 58.24 53.33 C 59.44 53.50 60.65 53.66 61.85 53.85 C 62.51 54.38 63.84 55.46 64.50 56.00 L 56.10 56.00 Z" />
</g>
<g id="#2e86d2ff">
<path fill="#2e86d2" opacity="1.00" d=" M 154.25 56.00 C 154.58 54.25 156.20 53.33 157.85 53.15 C 157.54 53.87 156.93 55.29 156.62 56.00 L 154.25 56.00 Z" />
</g>
<g id="#669946ff">
<path fill="#669946" opacity="1.00" d=" M 167.90 56.00 C 169.03 55.25 170.14 54.48 171.26 53.71 C 172.17 54.48 173.09 55.25 174.03 56.00 L 167.90 56.00 Z" />
</g>
</svg>
