<?xml version="1.0" encoding="UTF-8" ?>
<!DOCTYPE svg PUBLIC "-//W3C//DTD SVG 1.1//EN" "http://www.w3.org/Graphics/SVG/1.1/DTD/svg11.dtd">
<svg width="224pt" height="56pt" viewBox="0 0 224 56" version="1.1" xmlns="http://www.w3.org/2000/svg">
<g id="#3c6bbeff">
<path fill="#3c6bbe" opacity="1.00" d=" M 0.00 0.00 L 25.97 0.00 C 26.74 1.11 27.46 2.25 28.18 3.39 C 23.60 4.82 18.78 3.86 14.13 4.83 C 11.91 5.36 10.00 3.91 8.19 2.89 C 9.39 4.75 10.69 6.66 11.09 8.88 C 9.39 11.50 6.34 12.85 3.94 14.72 C 7.96 13.90 12.18 13.43 16.21 14.38 C 14.78 12.56 13.24 10.83 11.81 9.00 C 13.41 7.52 14.86 5.36 17.30 5.39 C 19.76 5.52 22.09 6.56 24.55 6.69 C 28.01 5.28 30.93 2.38 35.03 2.95 C 38.56 3.77 41.45 6.49 45.07 7.02 C 48.22 7.03 51.49 7.07 54.53 6.15 C 56.53 4.81 57.65 2.56 59.06 0.69 C 55.96 2.13 52.91 3.83 49.53 4.53 C 42.81 5.34 36.86 1.57 30.58 0.00 L 84.98 0.00 C 83.22 1.31 81.66 3.55 79.22 3.41 C 74.21 3.32 69.21 2.77 64.23 2.23 C 65.33 3.98 66.91 5.71 67.00 7.86 C 65.54 10.59 62.24 11.80 59.94 13.72 C 63.96 12.90 68.18 12.43 72.21 13.38 C 70.78 11.56 69.24 9.83 67.81 8.00 C 70.68 3.22 76.36 4.21 80.70 6.11 C 83.66 3.56 86.57 0.08 91.06 0.91 C 94.68 0.82 96.69 4.67 99.90 5.67 C 103.78 5.96 107.70 5.86 111.56 6.44 C 111.74 5.42 111.95 4.41 112.19 3.41 C 105.96 3.68 99.29 4.28 94.23 0.00 L 138.41 0.00 C 137.10 0.82 136.12 2.60 134.38 2.36 C 129.65 2.28 124.94 1.70 120.23 1.24 C 121.34 2.99 122.92 4.71 123.00 6.86 C 121.54 9.59 118.24 10.80 115.94 12.72 C 119.96 11.90 124.18 11.43 128.21 12.38 C 126.78 10.56 125.24 8.83 123.81 7.00 C 125.28 5.70 126.48 3.76 128.58 3.47 C 131.55 3.00 134.33 5.03 137.24 4.87 C 138.84 3.61 139.62 1.61 140.80 0.00 L 152.03 0.00 C 152.86 1.80 153.39 4.15 155.37 5.02 C 159.33 6.10 163.47 6.05 167.52 6.53 C 167.72 5.47 167.95 4.42 168.22 3.37 C 163.24 3.99 157.55 5.13 154.68 0.00 L 196.97 0.00 C 192.99 5.85 185.82 1.58 180.35 4.08 C 178.48 4.33 178.72 6.48 178.18 7.81 C 177.57 10.87 174.00 11.83 171.95 13.73 C 175.96 12.88 180.18 12.44 184.21 13.38 C 182.78 11.56 181.24 9.83 179.81 8.00 C 182.68 3.22 188.36 4.21 192.70 6.11 C 195.66 3.56 198.57 0.08 203.06 0.91 C 206.67 0.85 208.72 4.62 211.90 5.72 C 215.94 5.92 220.03 5.63 224.00 6.56 L 224.00 9.50 C 219.51 9.45 215.03 10.12 210.78 11.54 C 203.97 12.56 196.52 13.62 191.11 18.28 C 190.90 18.45 190.49 18.78 190.28 18.95 C 189.50 18.50 188.73 18.06 187.96 17.60 C 185.28 20.06 182.36 22.22 179.54 24.49 C 179.38 21.81 180.25 19.30 181.71 17.08 C 178.25 18.92 174.23 19.14 170.70 17.12 C 166.48 15.67 161.15 17.11 158.50 12.56 C 162.12 11.66 166.03 11.27 169.38 13.28 C 169.58 12.96 169.99 12.33 170.19 12.01 C 169.15 11.05 168.19 10.01 167.18 9.03 C 164.23 9.54 161.21 9.26 158.28 9.80 C 154.92 11.05 152.03 13.53 148.30 13.75 C 146.82 12.30 145.71 10.50 144.26 9.03 C 142.54 8.72 140.75 8.95 139.01 8.95 C 140.59 10.25 142.21 11.51 143.80 12.82 C 139.15 14.85 134.97 17.87 129.99 19.13 C 127.01 20.02 125.28 22.82 123.07 24.81 C 119.05 28.44 117.90 34.06 114.41 38.08 C 119.21 43.53 123.10 51.38 131.32 51.65 C 129.74 52.12 128.17 52.60 126.60 53.09 C 129.56 53.48 132.11 51.87 134.77 50.92 C 138.70 49.35 142.22 51.73 145.56 53.35 C 143.68 53.51 139.93 53.83 138.05 53.99 C 138.31 54.49 138.84 55.50 139.11 56.00 L 93.33 56.00 C 89.12 56.34 87.38 53.68 86.62 50.30 C 90.60 48.10 94.87 45.49 99.54 47.33 C 104.76 46.72 111.04 44.66 115.01 49.39 C 115.59 48.01 116.17 46.62 116.76 45.24 C 112.26 45.34 107.78 44.89 103.29 44.75 C 103.68 42.30 103.97 39.84 104.25 37.38 C 106.49 37.95 108.70 38.59 110.92 39.19 C 109.22 37.61 107.30 36.30 105.50 34.84 C 109.20 28.05 117.04 25.29 123.87 22.78 C 123.79 21.01 123.54 19.10 124.34 17.45 C 126.84 15.76 130.29 15.66 132.26 13.16 C 127.63 14.16 123.41 17.59 118.57 17.02 C 114.16 15.28 109.65 17.57 105.24 16.35 C 105.08 15.61 104.77 14.14 104.61 13.41 C 107.54 12.83 110.51 12.43 113.48 12.19 C 113.61 11.65 113.87 10.58 114.00 10.05 C 108.89 9.09 103.63 9.70 98.80 11.56 C 91.98 12.54 84.53 13.62 79.11 18.28 C 78.90 18.45 78.49 18.78 78.28 18.94 C 77.50 18.50 76.73 18.06 75.96 17.60 C 73.28 20.06 70.36 22.22 67.54 24.49 C 67.37 21.83 68.23 19.34 69.70 17.15 C 64.68 19.71 59.16 17.73 53.94 16.99 C 52.37 16.82 51.16 15.71 49.87 14.92 C 49.55 14.73 48.92 14.34 48.61 14.14 C 51.53 13.85 54.45 13.49 57.38 13.27 C 57.53 12.79 57.84 11.83 57.99 11.35 C 53.19 10.49 48.31 8.96 43.40 10.17 C 38.31 11.90 32.96 11.30 27.77 10.53 C 27.99 11.69 28.21 12.86 28.44 14.02 C 19.19 16.59 9.43 22.80 0.00 17.24 L 0.00 0.00 M 113.64 51.69 C 116.86 52.17 120.09 52.70 123.34 52.96 C 120.55 50.65 116.79 48.99 113.64 51.69 Z" />
<path fill="#3c6bbe" opacity="1.00" d=" M 216.50 13.33 C 218.89 12.34 221.42 11.62 224.00 12.35 L 224.00 16.20 C 221.84 17.11 219.50 17.39 217.33 16.37 C 217.12 15.61 216.71 14.09 216.50 13.33 Z" />
<path fill="#3c6bbe" opacity="1.00" d=" M 159.33 19.63 C 159.92 18.37 162.22 19.34 161.55 20.64 L 161.12 21.21 C 160.70 21.16 159.86 21.07 159.44 21.02 C 159.41 20.67 159.36 19.98 159.33 19.63 Z" />
<path fill="#3c6bbe" opacity="1.00" d=" M 219.54 22.91 C 220.90 21.13 222.42 19.48 224.00 17.90 L 224.00 28.06 C 222.27 27.03 220.54 25.99 218.79 24.99 C 218.98 24.47 219.36 23.43 219.54 22.91 Z" />
<path fill="#3c6bbe" opacity="1.00" d=" M 53.18 31.15 C 57.80 29.17 62.34 27.12 66.72 24.63 C 65.93 26.87 65.30 29.15 64.63 31.43 C 63.91 33.54 63.28 35.68 62.72 37.84 C 61.96 38.20 61.19 38.56 60.43 38.92 C 60.52 41.14 61.06 43.31 61.16 45.52 C 59.74 46.27 58.32 47.01 56.91 47.75 C 61.45 47.88 65.45 50.10 68.96 52.84 C 69.25 52.41 69.83 51.54 70.11 51.11 C 71.40 51.52 72.67 51.95 73.97 52.32 C 73.23 52.76 71.76 53.65 71.02 54.09 C 76.59 53.69 82.70 50.91 87.72 54.46 C 86.19 54.84 83.12 55.61 81.59 56.00 L 30.66 56.00 C 31.12 51.40 35.48 48.99 39.45 47.81 C 41.47 47.92 43.63 48.88 45.48 47.60 C 48.76 45.59 52.65 47.01 56.25 46.99 C 52.58 46.25 48.90 45.45 45.50 43.84 C 46.72 39.56 51.41 39.79 54.99 39.66 C 53.29 38.64 51.62 37.57 49.91 36.55 C 50.57 34.55 50.40 31.54 53.18 31.15 M 60.41 50.09 C 59.54 51.05 58.70 52.03 57.87 53.03 C 60.99 53.35 64.12 53.73 67.26 53.98 C 65.15 52.40 62.91 50.99 60.41 50.09 Z" />
<path fill="#3c6bbe" opacity="1.00" d=" M 171.51 28.46 C 174.06 27.49 176.31 25.85 178.70 24.54 C 177.94 26.81 177.33 29.13 176.63 31.43 C 175.91 33.54 175.29 35.68 174.72 37.84 C 173.95 38.20 173.19 38.56 172.43 38.92 C 172.52 41.14 173.06 43.31 173.16 45.52 C 171.74 46.28 170.31 47.01 168.90 47.76 C 172.84 47.85 176.28 49.54 179.44 51.78 C 180.68 52.88 182.08 51.65 183.38 51.37 C 184.19 51.72 184.99 52.08 185.80 52.44 C 185.11 52.90 183.73 53.82 183.04 54.28 C 188.64 54.01 194.76 50.36 199.68 54.52 C 198.16 54.89 195.12 55.63 193.60 56.00 L 149.62 56.00 C 146.96 54.03 144.70 51.61 142.58 49.09 C 144.90 47.39 147.23 44.19 150.50 45.54 C 153.91 46.58 158.23 47.99 161.00 44.78 C 161.16 42.87 160.92 40.96 160.83 39.05 C 158.33 42.82 154.27 45.51 149.66 43.95 C 152.43 41.76 155.09 39.29 158.26 37.68 C 160.99 36.14 164.17 37.50 166.97 38.06 C 164.83 36.40 159.97 34.07 162.86 30.93 C 164.76 27.88 168.55 28.95 171.51 28.46 M 163.76 44.26 C 163.66 45.88 167.34 45.88 167.24 44.26 C 166.40 43.32 164.60 43.32 163.76 44.26 M 172.41 50.09 C 171.54 51.05 170.69 52.03 169.87 53.03 C 172.99 53.35 176.12 53.73 179.26 53.98 C 177.15 52.40 174.90 50.99 172.41 50.09 Z" />
<path fill="#3c6bbe" opacity="1.00" d=" M 0.00 30.91 C 2.78 29.86 5.67 29.15 8.43 28.05 C 8.67 29.16 8.85 30.27 9.02 31.39 C 8.73 31.77 8.15 32.52 7.86 32.90 C 5.43 34.95 2.58 36.42 0.00 38.26 L 0.00 30.91 Z" />
<path fill="#3c6bbe" opacity="1.00" d=" M 0.00 38.41 C 3.61 39.86 5.55 43.39 8.33 45.88 C 7.77 46.10 7.22 46.33 6.67 46.58 C 1.89 45.94 2.95 51.36 2.96 54.38 C 5.69 54.59 8.42 54.82 11.12 55.25 C 9.21 54.02 7.35 52.70 5.40 51.50 C 9.98 52.37 14.66 52.44 19.20 53.49 C 17.76 53.78 16.32 54.10 14.88 54.42 C 15.60 54.97 16.32 55.49 17.07 56.00 L 0.00 56.00 L 0.00 38.41 Z" />
<path fill="#3c6bbe" opacity="1.00" d=" M 205.32 46.98 C 207.92 46.06 210.56 47.69 213.20 47.25 C 216.77 46.59 220.38 46.26 224.00 45.87 L 224.00 56.00 L 205.32 56.00 C 201.12 56.33 199.38 53.68 198.61 50.30 C 200.87 49.24 203.00 47.92 205.32 46.98 Z" />
<path fill="#3c6bbe" opacity="1.00" d=" M 17.54 56.00 C 20.19 54.28 22.54 51.12 26.24 52.52 C 27.75 53.57 29.10 54.81 30.49 56.00 L 17.54 56.00 Z" />
</g>
<g id="#4179cbff">
<path fill="#4179cb" opacity="1.00" d=" M 25.97 0.00 L 30.58 0.00 C 36.86 1.57 42.81 5.34 49.53 4.53 C 52.91 3.83 55.96 2.13 59.06 0.69 C 57.65 2.56 56.53 4.81 54.53 6.15 C 51.49 7.07 48.22 7.03 45.07 7.02 C 41.45 6.49 38.56 3.77 35.03 2.95 C 30.93 2.38 28.01 5.28 24.55 6.69 C 22.09 6.56 19.76 5.52 17.30 5.39 C 14.86 5.36 13.41 7.52 11.81 9.00 C 13.24 10.83 14.78 12.56 16.21 14.38 C 12.18 13.43 7.96 13.90 3.94 14.72 C 6.34 12.85 9.39 11.50 11.09 8.88 C 10.69 6.66 9.39 4.75 8.19 2.89 C 10.00 3.91 11.91 5.36 14.13 4.83 C 18.78 3.86 23.60 4.82 28.18 3.39 C 27.46 2.25 26.74 1.11 25.97 0.00 Z" />
<path fill="#4179cb" opacity="1.00" d=" M 84.98 0.00 L 94.23 0.00 C 99.29 4.28 105.96 3.68 112.19 3.41 C 111.95 4.41 111.74 5.42 111.56 6.44 C 107.70 5.86 103.78 5.96 99.90 5.67 C 96.69 4.67 94.68 0.82 91.06 0.91 C 86.57 0.08 83.66 3.56 80.70 6.11 C 76.36 4.21 70.68 3.22 67.81 8.00 C 69.24 9.83 70.78 11.56 72.21 13.38 C 68.18 12.43 63.96 12.90 59.94 13.72 C 62.24 11.80 65.54 10.59 67.00 7.86 C 66.91 5.71 65.33 3.98 64.23 2.23 C 69.21 2.77 74.21 3.32 79.22 3.41 C 81.66 3.55 83.22 1.31 84.98 0.00 Z" />
<path fill="#4179cb" opacity="1.00" d=" M 196.97 0.00 L 206.25 0.00 C 211.24 4.28 217.80 3.83 224.00 3.43 L 224.00 6.56 C 220.03 5.63 215.94 5.92 211.90 5.72 C 208.72 4.62 206.67 0.85 203.06 0.91 C 198.57 0.08 195.66 3.56 192.70 6.11 C 188.36 4.21 182.68 3.22 179.81 8.00 C 181.24 9.83 182.78 11.56 184.21 13.38 C 180.18 12.44 175.96 12.88 171.95 13.73 C 174.00 11.83 177.57 10.87 178.18 7.81 C 178.72 6.48 178.48 4.33 180.35 4.08 C 185.82 1.58 192.99 5.85 196.97 0.00 Z" />
</g>
<g id="#4278caff">
<path fill="#4278ca" opacity="1.00" d=" M 138.41 0.00 L 140.80 0.00 C 139.62 1.61 138.84 3.61 137.24 4.87 C 134.33 5.03 131.55 3.00 128.58 3.47 C 126.48 3.76 125.28 5.70 123.81 7.00 C 125.24 8.83 126.78 10.56 128.21 12.38 C 124.18 11.43 119.96 11.90 115.94 12.72 C 118.24 10.80 121.54 9.59 123.00 6.86 C 122.92 4.71 121.34 2.99 120.23 1.24 C 124.94 1.70 129.65 2.28 134.38 2.36 C 136.12 2.60 137.10 0.82 138.41 0.00 Z" />
</g>
<g id="#4079ccff">
<path fill="#4079cc" opacity="1.00" d=" M 152.03 0.00 L 154.68 0.00 C 157.55 5.13 163.24 3.99 168.22 3.37 C 167.95 4.42 167.72 5.47 167.52 6.53 C 163.47 6.05 159.33 6.10 155.37 5.02 C 153.39 4.15 152.86 1.80 152.03 0.00 Z" />
</g>
<g id="#3c6abefe">
<path fill="#3c6abe" opacity="1.00" d=" M 206.25 0.00 L 224.00 0.00 L 224.00 3.43 C 217.80 3.83 211.24 4.28 206.25 0.00 Z" />
</g>
<g id="#4279caff">
<path fill="#4279ca" opacity="1.00" d=" M 144.26 9.03 C 145.71 10.50 146.82 12.30 148.30 13.75 C 152.03 13.53 154.92 11.05 158.28 9.80 C 161.21 9.26 164.23 9.54 167.18 9.03 C 168.19 10.01 169.15 11.05 170.19 12.01 C 169.99 12.33 169.58 12.96 169.38 13.28 C 166.03 11.27 162.12 11.66 158.50 12.56 C 161.15 17.11 166.48 15.67 170.70 17.12 C 174.23 19.14 178.25 18.92 181.71 17.08 C 180.25 19.30 179.38 21.81 179.54 24.49 C 182.36 22.22 185.28 20.06 187.96 17.60 C 188.73 18.06 189.50 18.50 190.28 18.95 C 185.40 22.71 180.50 26.57 176.63 31.43 C 177.33 29.13 177.94 26.81 178.70 24.54 C 176.31 25.85 174.06 27.49 171.51 28.46 C 168.55 28.95 164.76 27.88 162.86 30.93 C 159.97 34.07 164.83 36.40 166.97 38.06 C 164.17 37.50 160.99 36.14 158.26 37.68 C 155.09 39.29 152.43 41.76 149.66 43.95 C 154.27 45.51 158.33 42.82 160.83 39.05 C 160.92 40.96 161.16 42.87 161.00 44.78 C 158.23 47.99 153.91 46.58 150.50 45.54 C 147.23 44.19 144.90 47.39 142.58 49.09 C 144.70 51.61 146.96 54.03 149.62 56.00 L 139.11 56.00 C 138.84 55.50 138.31 54.49 138.05 53.99 C 139.93 53.83 143.68 53.51 145.56 53.35 C 142.22 51.73 138.70 49.35 134.77 50.92 C 132.11 51.87 129.56 53.48 126.60 53.09 C 128.17 52.60 129.74 52.12 131.32 51.65 C 123.10 51.38 119.21 43.53 114.41 38.08 C 117.90 34.06 119.05 28.44 123.07 24.81 C 125.28 22.82 127.01 20.02 129.99 19.13 C 134.97 17.87 139.15 14.85 143.80 12.82 C 142.21 11.51 140.59 10.25 139.01 8.95 C 140.75 8.95 142.54 8.72 144.26 9.03 M 152.28 15.24 C 147.03 15.28 141.65 15.85 136.90 18.23 C 137.38 19.31 137.83 20.42 138.25 21.53 C 137.86 21.71 137.09 22.06 136.70 22.24 L 135.91 21.96 C 135.37 22.64 134.81 23.29 134.22 23.92 C 133.06 24.14 131.93 24.45 130.82 24.86 C 132.34 22.93 134.38 21.51 136.16 19.83 C 127.30 21.86 120.98 29.86 118.74 38.35 C 119.85 37.63 121.22 37.14 121.99 35.99 C 121.91 36.84 121.77 38.52 121.69 39.36 L 122.71 38.57 C 121.80 42.37 125.69 43.72 128.72 43.30 C 129.17 43.52 130.07 43.94 130.51 44.16 C 127.89 44.63 125.12 44.42 122.50 44.67 C 126.12 46.53 130.13 47.04 134.14 47.24 C 136.03 46.93 138.32 47.43 139.84 46.00 C 142.67 45.23 145.55 44.29 147.41 41.86 L 148.01 41.99 C 149.98 40.51 151.80 38.84 153.68 37.23 C 154.57 38.42 157.26 37.61 156.82 35.99 C 160.11 31.95 164.25 25.77 161.55 20.64 C 162.22 19.34 159.92 18.37 159.33 19.63 L 159.25 18.41 C 159.47 17.87 159.93 16.78 160.16 16.24 C 159.04 15.76 157.90 15.33 156.75 14.94 L 156.96 14.10 C 155.39 14.43 153.80 14.73 152.28 15.24 M 163.27 17.87 C 163.43 20.92 163.51 23.96 163.45 27.01 C 168.68 26.97 174.05 26.02 178.34 22.83 C 174.81 18.27 168.36 18.89 163.27 17.87 Z" />
<path fill="#4279ca" opacity="1.00" d=" M 113.64 51.69 C 116.79 48.99 120.55 50.65 123.34 52.96 C 120.09 52.70 116.86 52.17 113.64 51.69 Z" />
</g>
<g id="#427acaff">
<path fill="#427aca" opacity="1.00" d=" M 43.40 10.17 C 48.31 8.96 53.19 10.49 57.99 11.35 C 57.84 11.83 57.53 12.79 57.38 13.27 C 54.45 13.49 51.53 13.85 48.61 14.14 C 47.14 14.27 44.20 14.53 42.73 14.66 C 42.13 14.78 40.93 15.01 40.33 15.12 C 27.68 14.28 16.22 21.51 9.02 31.39 C 8.85 30.27 8.67 29.16 8.43 28.05 C 5.67 29.15 2.78 29.86 0.00 30.91 L 0.00 28.63 C 3.89 27.78 7.95 27.02 10.81 24.00 C 7.94 20.99 3.90 20.19 0.00 19.37 L 0.00 17.24 C 9.43 22.80 19.19 16.59 28.44 14.02 C 28.21 12.86 27.99 11.69 27.77 10.53 C 32.96 11.30 38.31 11.90 43.40 10.17 Z" />
</g>
<g id="#427bcbff">
<path fill="#427bcb" opacity="1.00" d=" M 98.80 11.56 C 103.63 9.70 108.89 9.09 114.00 10.05 C 113.87 10.58 113.61 11.65 113.48 12.19 C 110.51 12.43 107.54 12.83 104.61 13.41 C 103.12 13.73 100.14 14.35 98.65 14.67 C 98.04 14.79 96.82 15.04 96.21 15.17 C 90.44 15.64 84.56 16.21 79.11 18.28 C 84.53 13.62 91.98 12.54 98.80 11.56 Z" />
<path fill="#427bcb" opacity="1.00" d=" M 210.78 11.54 C 215.03 10.12 219.51 9.45 224.00 9.50 L 224.00 12.35 C 221.42 11.62 218.89 12.34 216.50 13.33 C 215.05 13.69 212.14 14.40 210.69 14.76 C 210.07 14.86 208.83 15.06 208.21 15.15 C 202.43 15.64 196.56 16.22 191.11 18.28 C 196.52 13.62 203.97 12.56 210.78 11.54 Z" />
</g>
<g id="#427bcaff">
<path fill="#427bca" opacity="1.00" d=" M 118.57 17.02 C 123.41 17.59 127.63 14.16 132.26 13.16 C 130.29 15.66 126.84 15.76 124.34 17.45 C 123.54 19.10 123.79 21.01 123.87 22.78 C 117.04 25.29 109.20 28.05 105.50 34.84 C 107.30 36.30 109.22 37.61 110.92 39.19 C 108.70 38.59 106.49 37.95 104.25 37.38 C 103.97 39.84 103.68 42.30 103.29 44.75 C 107.78 44.89 112.26 45.34 116.76 45.24 C 116.17 46.62 115.59 48.01 115.01 49.39 C 111.04 44.66 104.76 46.72 99.54 47.33 C 94.87 45.49 90.60 48.10 86.62 50.30 C 87.38 53.68 89.12 56.34 93.33 56.00 L 81.59 56.00 C 83.12 55.61 86.19 54.84 87.72 54.46 C 82.70 50.91 76.59 53.69 71.02 54.09 C 71.76 53.65 73.23 52.76 73.97 52.32 C 72.67 51.95 71.40 51.52 70.11 51.11 C 69.83 51.54 69.25 52.41 68.96 52.84 C 65.45 50.10 61.45 47.88 56.91 47.75 C 58.32 47.01 59.74 46.27 61.16 45.52 C 61.06 43.31 60.52 41.14 60.43 38.92 C 61.19 38.56 61.96 38.20 62.72 37.84 C 63.77 37.29 64.77 36.64 65.72 35.93 C 66.00 37.01 66.27 38.10 66.54 39.18 C 66.68 39.85 66.95 41.19 67.08 41.86 C 68.94 42.54 70.79 43.26 72.73 43.73 C 73.17 43.80 74.05 43.96 74.50 44.04 C 71.84 44.39 69.15 44.62 66.49 44.90 C 70.22 46.26 74.11 47.12 78.09 47.27 C 80.14 47.00 82.18 46.65 84.21 46.24 C 86.74 45.12 89.16 43.75 91.50 42.27 C 93.60 40.90 95.73 39.57 97.84 38.21 C 103.06 35.61 105.13 29.86 106.94 24.72 C 107.97 25.66 108.95 26.66 110.00 27.59 C 113.85 25.08 118.04 23.16 122.25 21.35 C 118.17 17.34 109.57 16.50 107.58 22.96 C 107.18 22.52 106.38 21.65 105.99 21.21 C 105.00 21.82 104.00 22.41 103.00 23.00 C 103.16 21.57 103.32 20.14 103.49 18.71 C 104.06 17.91 104.65 17.13 105.24 16.35 C 109.65 17.57 114.16 15.28 118.57 17.02 Z" />
</g>
<g id="#268ed8ff">
<path fill="#268ed8" opacity="1.00" d=" M 42.73 14.66 C 44.20 14.53 47.14 14.27 48.61 14.14 C 48.92 14.34 49.55 14.73 49.87 14.92 C 48.98 16.34 48.09 17.77 47.30 19.24 C 46.97 18.95 46.32 18.36 46.00 18.07 C 45.84 19.36 45.72 20.66 45.54 21.95 C 44.91 23.50 44.22 25.02 43.52 26.53 C 41.94 28.99 40.67 31.63 39.69 34.38 C 43.80 31.92 47.50 28.17 47.08 22.98 C 48.46 22.22 49.86 21.48 51.26 20.75 C 50.53 27.38 48.18 34.91 41.83 38.20 C 43.20 36.62 44.41 34.92 45.55 33.17 C 43.37 34.47 41.18 35.73 39.04 37.09 L 39.23 36.15 C 39.58 33.08 36.08 34.90 36.03 36.97 C 34.88 37.59 33.75 38.23 32.60 38.83 C 32.22 38.88 31.47 38.98 31.10 39.03 L 31.75 38.25 C 37.62 31.78 43.76 25.08 45.09 16.06 C 44.29 15.61 43.49 15.17 42.73 14.66 Z" />
</g>
<g id="#268ed9ff">
<path fill="#268ed9" opacity="1.00" d=" M 98.65 14.67 C 100.14 14.35 103.12 13.73 104.61 13.41 C 104.77 14.14 105.08 15.61 105.24 16.35 C 104.65 17.13 104.06 17.91 103.49 18.71 C 102.00 19.36 100.52 20.04 99.01 20.64 C 99.78 19.11 100.50 17.57 101.17 16.00 C 100.32 15.59 99.47 15.15 98.65 14.67 Z" />
<path fill="#268ed9" opacity="1.00" d=" M 210.69 14.76 C 212.14 14.40 215.05 13.69 216.50 13.33 C 216.71 14.09 217.12 15.61 217.33 16.37 C 216.67 17.11 216.03 17.88 215.39 18.64 C 213.97 19.40 212.51 20.08 211.01 20.64 C 211.78 19.11 212.50 17.56 213.18 15.99 C 212.34 15.61 211.51 15.20 210.69 14.76 Z" />
<path fill="#268ed9" opacity="1.00" d=" M 74.15 27.85 C 74.56 27.95 75.38 28.15 75.80 28.25 C 75.35 29.32 74.43 30.13 73.22 30.11 L 72.86 29.35 C 73.18 28.98 73.82 28.23 74.15 27.85 Z" />
<path fill="#268ed9" opacity="1.00" d=" M 130.27 28.04 C 130.75 28.30 131.70 28.82 132.18 29.08 C 131.22 29.72 130.19 29.87 129.08 29.53 L 128.72 28.95 C 129.11 28.72 129.88 28.27 130.27 28.04 Z" />
<path fill="#268ed9" opacity="1.00" d=" M 186.15 27.85 C 186.56 27.95 187.38 28.15 187.80 28.25 C 187.35 29.32 186.43 30.13 185.22 30.11 L 184.86 29.35 C 185.18 28.98 185.82 28.23 186.15 27.85 Z" />
<path fill="#268ed9" opacity="1.00" d=" M 153.68 37.23 C 154.46 36.37 155.59 35.59 156.82 35.99 C 157.26 37.61 154.57 38.42 153.68 37.23 Z" />
</g>
<g id="#1aa8c2ff">
<path fill="#1aa8c2" opacity="1.00" d=" M 152.28 15.24 C 153.80 14.73 155.39 14.43 156.96 14.10 L 156.75 14.94 C 156.26 16.89 155.84 18.86 155.41 20.82 C 156.73 20.09 158.00 19.28 159.25 18.41 L 159.33 19.63 C 159.36 19.98 159.41 20.67 159.44 21.02 C 159.34 21.45 159.16 22.31 159.06 22.74 C 159.03 26.52 157.49 30.02 154.64 32.50 C 154.45 32.11 154.06 31.33 153.87 30.93 C 156.61 28.61 158.00 25.36 158.37 21.84 C 157.52 22.94 156.70 24.06 155.93 25.21 C 155.96 24.68 156.04 23.62 156.07 23.10 C 152.00 27.60 147.40 31.77 144.23 37.00 C 143.45 37.96 144.30 39.01 144.58 39.95 C 144.34 40.26 143.86 40.88 143.62 41.19 C 139.22 42.03 134.92 43.35 130.51 44.16 C 130.07 43.94 129.17 43.52 128.72 43.30 C 130.20 43.22 131.67 43.13 133.15 43.04 C 130.88 41.86 128.54 40.80 126.23 39.71 C 126.00 37.75 125.61 35.81 125.26 33.87 C 124.48 35.47 123.62 37.04 122.71 38.57 L 121.69 39.36 C 121.77 38.52 121.91 36.84 121.99 35.99 C 123.30 33.90 124.82 31.95 126.60 30.24 C 127.04 32.10 129.31 31.22 129.08 29.53 C 130.19 29.87 131.22 29.72 132.18 29.08 C 131.51 31.93 127.72 36.08 131.42 38.14 C 134.20 39.27 138.47 42.11 140.55 38.61 C 144.70 33.46 147.80 27.27 153.13 23.18 C 154.10 21.58 153.66 19.44 153.99 17.64 C 149.88 19.13 146.02 21.22 142.05 23.05 C 142.42 20.59 139.07 21.04 139.72 23.28 C 138.97 23.02 137.45 22.50 136.70 22.24 C 137.09 22.06 137.86 21.71 138.25 21.53 C 142.87 19.31 147.63 17.39 152.28 15.24 Z" />
<path fill="#1aa8c2" opacity="1.00" d=" M 139.72 23.28 C 140.14 23.31 140.97 23.38 141.38 23.41 C 138.65 24.51 136.10 27.68 133.02 26.87 C 135.27 25.70 137.44 24.38 139.72 23.28 Z" />
<path fill="#1aa8c2" opacity="1.00" d=" M 90.89 37.01 C 92.18 35.93 93.48 34.87 94.68 33.70 C 94.80 34.30 95.02 35.51 95.13 36.11 C 93.71 36.36 92.29 36.66 90.89 37.01 Z" />
<path fill="#1aa8c2" opacity="1.00" d=" M 146.89 37.01 C 148.17 35.95 149.46 34.88 150.66 33.71 C 150.77 34.30 151.00 35.48 151.12 36.07 C 149.70 36.34 148.29 36.65 146.89 37.01 Z" />
<path fill="#1aa8c2" opacity="1.00" d=" M 202.89 37.01 C 204.18 35.93 205.48 34.87 206.68 33.70 C 206.80 34.30 207.02 35.51 207.13 36.11 C 205.71 36.36 204.29 36.66 202.89 37.01 Z" />
</g>
<g id="#288cd7ff">
<path fill="#288cd7" opacity="1.00" d=" M 9.02 31.39 C 16.22 21.51 27.68 14.28 40.33 15.12 C 36.98 16.31 33.86 18.06 30.29 18.66 C 25.99 19.81 21.47 21.19 18.66 24.88 C 15.49 28.44 12.82 32.41 9.77 36.07 C 8.88 36.84 7.94 37.55 7.01 38.27 C 7.25 36.47 7.50 34.68 7.86 32.90 C 8.15 32.52 8.73 31.77 9.02 31.39 Z" />
<path fill="#288cd7" opacity="1.00" d=" M 79.11 18.28 C 84.56 16.21 90.44 15.64 96.21 15.17 C 91.65 17.02 87.25 19.28 82.53 20.73 C 79.46 21.05 76.37 22.14 74.74 24.96 C 73.68 26.29 72.82 27.75 71.83 29.13 C 71.52 29.40 70.88 29.95 70.57 30.22 C 68.87 32.06 67.31 34.01 65.72 35.93 C 64.77 36.64 63.77 37.29 62.72 37.84 C 63.28 35.68 63.91 33.54 64.63 31.43 C 68.50 26.57 73.40 22.71 78.28 18.94 C 78.49 18.78 78.90 18.45 79.11 18.28 Z" />
<path fill="#288cd7" opacity="1.00" d=" M 191.11 18.28 C 196.56 16.22 202.43 15.64 208.21 15.15 C 203.65 17.03 199.25 19.28 194.53 20.73 C 191.46 21.05 188.37 22.14 186.74 24.96 C 185.68 26.29 184.82 27.75 183.83 29.13 C 183.52 29.40 182.88 29.95 182.57 30.22 C 180.87 32.06 179.31 34.01 177.72 35.93 C 176.77 36.64 175.77 37.29 174.72 37.84 C 175.29 35.68 175.91 33.54 176.63 31.43 C 180.50 26.57 185.40 22.71 190.28 18.95 C 190.49 18.78 190.90 18.45 191.11 18.28 Z" />
</g>
<g id="#1caac2ff">
<path fill="#1caac2" opacity="1.00" d=" M 40.33 15.12 C 40.93 15.01 42.13 14.78 42.73 14.66 C 43.49 15.17 44.29 15.61 45.09 16.06 C 43.76 25.08 37.62 31.78 31.75 38.25 C 28.46 39.60 25.04 40.59 21.77 41.98 C 23.26 42.10 24.76 42.19 26.25 42.27 C 23.71 43.04 21.16 43.86 18.50 44.11 C 18.05 44.03 17.14 43.86 16.69 43.78 C 17.96 43.38 19.23 42.97 20.49 42.55 C 18.67 42.31 15.03 41.85 13.21 41.62 C 13.35 38.94 13.46 36.28 13.51 33.61 C 12.52 35.46 11.53 37.30 10.53 39.15 C 10.29 38.12 10.03 37.09 9.77 36.07 C 12.82 32.41 15.49 28.44 18.66 24.88 C 19.52 24.76 20.39 24.62 21.25 24.47 C 19.76 26.36 18.38 28.33 16.97 30.27 C 18.74 29.25 20.52 28.23 22.26 27.16 C 21.39 28.44 20.57 29.76 19.87 31.13 L 19.32 30.99 C 17.68 30.60 16.83 31.26 16.78 32.99 L 16.74 33.60 C 16.62 35.25 16.39 38.53 16.27 40.17 C 19.11 39.96 21.99 40.04 24.82 39.66 C 25.35 39.30 26.39 38.58 26.92 38.22 L 27.62 38.01 C 29.17 37.82 29.70 36.20 30.22 34.98 C 33.95 31.51 36.83 27.28 40.45 23.71 C 41.32 22.94 41.70 21.80 42.04 20.72 C 41.79 20.18 41.29 19.09 41.04 18.55 C 37.27 18.67 34.25 21.57 30.55 22.21 C 28.63 22.15 26.70 22.03 24.78 22.25 C 26.59 21.01 28.38 19.74 30.29 18.66 C 33.86 18.06 36.98 16.31 40.33 15.12 Z" />
</g>
<g id="#417ecafe">
<path fill="#417eca" opacity="1.00" d=" M 49.87 14.92 C 51.16 15.71 52.37 16.82 53.94 16.99 C 59.16 17.73 64.68 19.71 69.70 17.15 C 68.23 19.34 67.37 21.83 67.54 24.49 C 70.36 22.22 73.28 20.06 75.96 17.60 C 76.73 18.06 77.50 18.50 78.28 18.94 C 73.40 22.71 68.50 26.57 64.63 31.43 C 65.30 29.15 65.93 26.87 66.72 24.63 C 62.34 27.12 57.80 29.17 53.18 31.15 C 50.40 31.54 50.57 34.55 49.91 36.55 C 41.44 39.18 35.85 47.07 27.17 49.20 C 21.00 50.89 14.57 50.75 8.24 51.05 C 7.76 49.54 7.23 48.05 6.67 46.58 C 7.22 46.33 7.77 46.10 8.33 45.88 C 5.55 43.39 3.61 39.86 0.00 38.41 L 0.00 38.26 C 2.58 36.42 5.43 34.95 7.86 32.90 C 7.50 34.68 7.25 36.47 7.01 38.27 C 7.94 37.55 8.88 36.84 9.77 36.07 C 10.03 37.09 10.29 38.12 10.53 39.15 C 10.66 39.83 10.91 41.20 11.03 41.88 C 12.91 42.55 14.78 43.21 16.69 43.78 C 17.14 43.86 18.05 44.03 18.50 44.11 C 15.83 44.40 13.15 44.60 10.48 44.88 C 14.21 46.26 18.11 47.13 22.09 47.27 C 24.14 47.00 26.18 46.66 28.21 46.24 C 30.74 45.12 33.15 43.74 35.49 42.28 C 37.60 40.92 39.73 39.57 41.83 38.20 C 48.18 34.91 50.53 27.38 51.26 20.75 C 49.86 21.48 48.46 22.22 47.08 22.98 C 47.17 21.74 47.25 20.49 47.30 19.24 C 48.09 17.77 48.98 16.34 49.87 14.92 M 53.12 20.09 C 52.97 23.18 52.54 26.24 52.21 29.32 C 56.95 27.23 61.82 25.44 66.34 22.89 C 63.42 18.47 57.66 19.06 53.12 20.09 Z" />
</g>
<g id="#1ba8c2ff">
<path fill="#1ba8c2" opacity="1.00" d=" M 96.21 15.17 C 96.82 15.04 98.04 14.79 98.65 14.67 C 99.47 15.15 100.32 15.59 101.17 16.00 C 100.50 17.57 99.78 19.11 99.01 20.64 C 100.52 20.04 102.00 19.36 103.49 18.71 C 103.32 20.14 103.16 21.57 103.00 23.00 C 103.01 26.69 101.36 30.06 98.64 32.50 C 98.45 32.11 98.06 31.33 97.87 30.93 C 100.61 28.61 102.00 25.36 102.37 21.84 C 101.52 22.94 100.70 24.06 99.93 25.21 C 99.96 24.68 100.04 23.62 100.07 23.10 C 96.00 27.60 91.40 31.77 88.23 37.00 C 87.45 37.96 88.30 39.01 88.61 39.95 C 88.37 40.26 87.90 40.87 87.67 41.18 C 83.25 41.98 78.94 43.35 74.50 44.04 C 74.05 43.96 73.17 43.80 72.73 43.73 C 74.20 43.49 75.67 43.26 77.14 43.02 C 74.86 41.87 72.55 40.79 70.23 39.71 C 70.01 37.73 69.61 35.77 69.22 33.81 C 68.36 35.62 67.46 37.41 66.54 39.18 C 66.27 38.10 66.00 37.01 65.72 35.93 C 67.31 34.01 68.87 32.06 70.57 30.22 C 70.84 31.98 72.74 31.42 73.22 30.11 C 74.43 30.13 75.35 29.32 75.80 28.25 C 76.15 27.98 76.86 27.43 77.21 27.16 C 79.17 25.56 81.41 24.38 83.67 23.29 L 84.37 23.30 C 83.93 24.17 83.49 25.04 83.05 25.91 C 77.51 27.77 72.83 32.78 72.67 38.85 C 74.17 38.88 77.19 38.94 78.70 38.97 L 79.68 38.92 C 79.65 39.61 79.59 41.01 79.55 41.70 C 81.69 40.63 83.90 39.43 85.08 37.24 C 85.43 36.69 86.14 35.58 86.49 35.03 C 89.98 31.41 92.84 27.23 96.44 23.73 C 97.32 22.94 97.70 21.81 98.04 20.72 C 97.79 20.18 97.29 19.09 97.04 18.55 C 93.01 18.71 89.77 21.72 85.95 22.80 C 86.27 20.21 82.74 21.05 83.67 23.29 C 82.96 22.91 81.55 22.14 80.85 21.76 C 81.27 21.50 82.11 20.98 82.53 20.73 C 87.25 19.28 91.65 17.02 96.21 15.17 Z" />
<path fill="#1ba8c2" opacity="1.00" d=" M 208.21 15.15 C 208.83 15.06 210.07 14.86 210.69 14.76 C 211.51 15.20 212.34 15.61 213.18 15.99 C 212.50 17.56 211.78 19.11 211.01 20.64 C 212.51 20.08 213.97 19.40 215.39 18.64 C 215.31 20.09 215.20 21.54 215.04 22.99 C 214.99 26.67 213.37 30.06 210.64 32.50 C 210.45 32.11 210.06 31.33 209.87 30.93 C 212.61 28.61 214.00 25.36 214.37 21.84 C 213.52 22.94 212.70 24.06 211.93 25.21 C 211.96 24.68 212.04 23.62 212.07 23.10 C 208.00 27.60 203.39 31.77 200.23 37.00 C 199.45 37.96 200.30 39.01 200.61 39.95 C 200.37 40.26 199.90 40.87 199.67 41.18 C 195.25 41.98 190.94 43.35 186.50 44.04 C 186.05 43.96 185.17 43.80 184.73 43.73 C 186.20 43.49 187.67 43.26 189.14 43.02 C 186.86 41.87 184.55 40.79 182.23 39.71 C 182.01 37.73 181.61 35.77 181.22 33.81 C 180.35 35.62 179.46 37.41 178.54 39.18 C 178.27 38.10 178.00 37.01 177.72 35.93 C 179.31 34.01 180.87 32.06 182.57 30.22 C 182.84 31.98 184.73 31.42 185.22 30.11 C 186.43 30.13 187.35 29.32 187.80 28.25 C 188.15 27.98 188.86 27.43 189.21 27.16 C 191.17 25.56 193.41 24.38 195.67 23.29 L 196.37 23.30 C 195.93 24.17 195.49 25.04 195.05 25.91 C 189.51 27.77 184.83 32.78 184.67 38.85 C 186.17 38.88 189.19 38.94 190.70 38.97 L 191.68 38.92 C 191.65 39.61 191.59 41.01 191.55 41.70 C 193.69 40.63 195.90 39.43 197.08 37.24 C 197.43 36.69 198.14 35.58 198.49 35.03 C 201.97 31.41 204.84 27.23 208.44 23.73 C 209.32 22.94 209.69 21.81 210.04 20.72 C 209.79 20.18 209.29 19.09 209.04 18.55 C 205.01 18.71 201.76 21.72 197.95 22.80 C 198.27 20.21 194.73 21.05 195.67 23.29 C 194.96 22.91 193.55 22.14 192.85 21.75 C 193.27 21.50 194.11 20.98 194.53 20.73 C 199.25 19.28 203.65 17.03 208.21 15.15 Z" />
</g>
<g id="#278dd8ff">
<path fill="#278dd8" opacity="1.00" d=" M 136.90 18.23 C 141.65 15.85 147.03 15.28 152.28 15.24 C 147.63 17.39 142.87 19.31 138.25 21.53 C 137.83 20.42 137.38 19.31 136.90 18.23 Z" />
</g>
<g id="#2590d7ff">
<path fill="#2590d7" opacity="1.00" d=" M 156.75 14.94 C 157.90 15.33 159.04 15.76 160.16 16.24 C 159.93 16.78 159.47 17.87 159.25 18.41 C 158.00 19.28 156.73 20.09 155.41 20.82 C 155.84 18.86 156.26 16.89 156.75 14.94 Z" />
</g>
<g id="#427ccaff">
<path fill="#427cca" opacity="1.00" d=" M 215.39 18.64 C 216.03 17.88 216.67 17.11 217.33 16.37 C 219.50 17.39 221.84 17.11 224.00 16.20 L 224.00 17.90 C 222.42 19.48 220.90 21.13 219.54 22.91 C 219.15 22.49 218.37 21.64 217.98 21.22 C 217.01 21.82 216.02 22.41 215.04 22.99 C 215.20 21.54 215.31 20.09 215.39 18.64 Z" />
</g>
<g id="#3c7fcbff">
<path fill="#3c7fcb" opacity="1.00" d=" M 18.66 24.88 C 21.47 21.19 25.99 19.81 30.29 18.66 C 28.38 19.74 26.59 21.01 24.78 22.25 C 23.59 22.97 22.41 23.71 21.25 24.47 C 20.39 24.62 19.52 24.76 18.66 24.88 Z" />
</g>
<g id="#44cfbefe">
<path fill="#44cfbe" opacity="1.00" d=" M 30.55 22.21 C 34.25 21.57 37.27 18.67 41.04 18.55 C 39.65 19.18 40.63 21.40 42.04 20.72 C 41.70 21.80 41.32 22.94 40.45 23.71 C 36.83 27.28 33.95 31.51 30.22 34.98 C 28.79 35.23 26.96 36.26 27.62 38.01 L 26.92 38.22 C 25.45 36.95 22.06 38.29 24.82 39.66 C 21.99 40.04 19.11 39.96 16.27 40.17 C 16.39 38.53 16.62 35.25 16.74 33.60 C 18.52 34.94 20.26 32.95 19.87 31.13 C 20.57 29.76 21.39 28.44 22.26 27.16 C 24.95 25.39 27.65 23.61 30.55 22.21 M 17.79 38.17 C 21.26 37.81 25.04 37.35 27.39 34.44 L 27.85 33.95 C 33.35 31.76 35.51 25.83 38.39 21.12 C 29.19 22.81 21.31 29.57 17.79 38.17 Z" />
</g>
<g id="#21aac3ff">
<path fill="#21aac3" opacity="1.00" d=" M 46.00 18.07 C 46.32 18.36 46.97 18.95 47.30 19.24 C 47.25 20.49 47.17 21.74 47.08 22.98 C 47.50 28.17 43.80 31.92 39.69 34.38 C 40.67 31.63 41.94 28.99 43.52 26.53 C 43.57 27.35 43.68 28.99 43.74 29.81 C 44.94 27.36 45.27 24.64 45.54 21.95 C 45.72 20.66 45.84 19.36 46.00 18.07 Z" />
</g>
<g id="#42cebdff">
<path fill="#42cebd" opacity="1.00" d=" M 85.95 22.80 C 89.77 21.72 93.01 18.71 97.04 18.55 C 95.65 19.18 96.63 21.40 98.04 20.72 C 97.70 21.81 97.32 22.94 96.44 23.73 C 92.84 27.23 89.98 31.41 86.49 35.03 C 83.90 36.35 81.34 37.75 78.70 38.97 C 77.19 38.94 74.17 38.88 72.67 38.85 C 72.83 32.78 77.51 27.77 83.05 25.91 C 79.19 29.40 75.79 33.50 73.74 38.34 C 83.57 37.57 90.47 29.34 94.48 21.01 C 90.50 22.20 86.55 23.62 83.05 25.91 C 83.49 25.04 83.93 24.17 84.37 23.30 C 84.77 23.18 85.56 22.93 85.95 22.80 Z" />
<path fill="#42cebd" opacity="1.00" d=" M 197.95 22.80 C 201.76 21.72 205.01 18.71 209.04 18.55 C 207.65 19.18 208.62 21.40 210.04 20.72 C 209.69 21.81 209.32 22.94 208.44 23.73 C 204.84 27.23 201.97 31.41 198.49 35.03 C 195.90 36.35 193.34 37.75 190.70 38.97 C 189.19 38.94 186.17 38.88 184.67 38.85 C 184.83 32.78 189.51 27.77 195.05 25.91 C 191.19 29.40 187.79 33.50 185.74 38.34 C 195.57 37.57 202.47 29.34 206.48 21.01 C 202.50 22.20 198.55 23.62 195.05 25.91 C 195.49 25.04 195.93 24.17 196.37 23.30 C 196.77 23.18 197.56 22.93 197.95 22.80 Z" />
</g>
<g id="#3c6abeff">
<path fill="#3c6abe" opacity="1.00" d=" M 107.58 22.96 C 109.57 16.50 118.17 17.34 122.25 21.35 C 118.04 23.16 113.85 25.08 110.00 27.59 C 108.95 26.66 107.97 25.66 106.94 24.72 C 107.10 24.28 107.42 23.40 107.58 22.96 Z" />
<path fill="#3c6abe" opacity="1.00" d=" M 53.12 20.09 C 57.66 19.06 63.42 18.47 66.34 22.89 C 61.82 25.44 56.95 27.23 52.21 29.32 C 52.54 26.24 52.97 23.18 53.12 20.09 Z" />
<path fill="#3c6abe" opacity="1.00" d=" M 0.00 19.37 C 3.90 20.19 7.94 20.99 10.81 24.00 C 7.95 27.02 3.89 27.78 0.00 28.63 L 0.00 19.37 Z" />
</g>
<g id="#41cebdff">
<path fill="#41cebd" opacity="1.00" d=" M 142.05 23.05 C 146.02 21.22 149.88 19.13 153.99 17.64 C 153.66 19.44 154.10 21.58 153.13 23.18 C 147.80 27.27 144.70 33.46 140.55 38.61 C 138.47 42.11 134.20 39.27 131.42 38.14 C 127.72 36.08 131.51 31.93 132.18 29.08 C 131.70 28.82 130.75 28.30 130.27 28.04 C 130.78 27.56 131.28 27.07 131.78 26.57 L 133.02 26.87 C 136.10 27.68 138.65 24.51 141.38 23.41 L 142.05 23.05 M 132.60 36.01 C 140.75 36.44 147.26 29.12 149.30 21.80 C 141.98 23.98 135.47 28.74 132.60 36.01 Z" />
</g>
<g id="#3c6bbdff">
<path fill="#3c6bbd" opacity="1.00" d=" M 163.27 17.87 C 168.36 18.89 174.81 18.27 178.34 22.83 C 174.05 26.02 168.68 26.97 163.45 27.01 C 163.51 23.96 163.43 20.92 163.27 17.87 Z" />
<path fill="#3c6bbd" opacity="1.00" d=" M 218.00 34.82 C 218.25 31.49 221.85 30.21 224.00 28.25 L 224.00 45.17 C 221.16 44.99 218.37 44.81 215.55 44.62 C 215.63 42.29 215.87 39.97 215.81 37.64 C 218.23 37.95 220.60 38.53 222.99 39.05 C 221.18 37.83 219.26 36.65 218.00 34.82 Z" />
</g>
<g id="#a1e1a3ff">
<path fill="#a1e1a3" opacity="1.00" d=" M 42.04 20.72 C 40.63 21.40 39.65 19.18 41.04 18.55 C 41.29 19.09 41.79 20.18 42.04 20.72 Z" />
<path fill="#a1e1a3" opacity="1.00" d=" M 98.04 20.72 C 96.63 21.40 95.65 19.18 97.04 18.55 C 97.29 19.09 97.79 20.18 98.04 20.72 Z" />
<path fill="#a1e1a3" opacity="1.00" d=" M 210.04 20.72 C 208.62 21.40 207.65 19.18 209.04 18.55 C 209.29 19.09 209.79 20.18 210.04 20.72 Z" />
<path fill="#a1e1a3" opacity="1.00" d=" M 83.05 25.91 C 86.55 23.62 90.50 22.20 94.48 21.01 C 90.47 29.34 83.57 37.57 73.74 38.34 C 75.79 33.50 79.19 29.40 83.05 25.91 M 77.58 35.05 C 83.08 33.56 87.05 29.25 90.42 24.90 C 84.61 25.78 80.89 30.61 77.58 35.05 Z" />
<path fill="#a1e1a3" opacity="1.00" d=" M 195.05 25.91 C 198.55 23.62 202.50 22.20 206.48 21.01 C 202.47 29.34 195.57 37.57 185.74 38.34 C 187.79 33.50 191.19 29.40 195.05 25.91 M 189.58 35.05 C 195.08 33.56 199.05 29.25 202.42 24.90 C 196.61 25.78 192.89 30.61 189.58 35.05 Z" />
<path fill="#a1e1a3" opacity="1.00" d=" M 132.60 36.01 C 135.47 28.74 141.98 23.98 149.30 21.80 C 147.26 29.12 140.75 36.44 132.60 36.01 M 135.95 34.36 C 139.76 31.96 143.09 28.78 145.33 24.85 C 141.09 26.69 138.10 30.38 135.95 34.36 Z" />
<path fill="#a1e1a3" opacity="1.00" d=" M 24.82 39.66 C 22.06 38.29 25.45 36.95 26.92 38.22 C 26.39 38.58 25.35 39.30 24.82 39.66 Z" />
</g>
<g id="#3f81ccff">
<path fill="#3f81cc" opacity="1.00" d=" M 74.74 24.96 C 76.37 22.14 79.46 21.05 82.53 20.73 C 82.11 20.98 81.27 21.50 80.85 21.76 C 79.76 22.37 78.68 23.00 77.58 23.59 C 76.64 24.07 75.69 24.52 74.74 24.96 Z" />
<path fill="#3f81cc" opacity="1.00" d=" M 186.74 24.96 C 188.37 22.14 191.46 21.05 194.53 20.73 C 194.11 20.98 193.27 21.50 192.85 21.75 C 191.76 22.37 190.68 23.00 189.58 23.59 C 188.64 24.07 187.69 24.52 186.74 24.96 Z" />
</g>
<g id="#298ad6ff">
<path fill="#298ad6" opacity="1.00" d=" M 118.74 38.35 C 120.98 29.86 127.30 21.86 136.16 19.83 C 134.38 21.51 132.34 22.93 130.82 24.86 C 129.75 26.20 128.82 27.66 127.81 29.05 C 127.51 29.35 126.90 29.94 126.60 30.24 C 124.82 31.95 123.30 33.90 121.99 35.99 C 121.22 37.14 119.85 37.63 118.74 38.35 Z" />
</g>
<g id="#2492d4fe">
<path fill="#2492d4" opacity="1.00" d=" M 24.78 22.25 C 26.70 22.03 28.63 22.15 30.55 22.21 C 27.65 23.61 24.95 25.39 22.26 27.16 C 20.52 28.23 18.74 29.25 16.97 30.27 C 18.38 28.33 19.76 26.36 21.25 24.47 C 22.41 23.71 23.59 22.97 24.78 22.25 Z" />
</g>
<g id="#a7e3aaff">
<path fill="#a7e3aa" opacity="1.00" d=" M 17.79 38.17 C 21.31 29.57 29.19 22.81 38.39 21.12 C 35.51 25.83 33.35 31.76 27.85 33.95 C 30.65 30.77 33.11 27.31 35.10 23.57 C 29.29 26.50 24.10 30.46 20.74 36.12 C 22.96 35.56 25.18 35.03 27.39 34.44 C 25.04 37.35 21.26 37.81 17.79 38.17 Z" />
</g>
<g id="#2394d3ff">
<path fill="#2394d3" opacity="1.00" d=" M 83.67 23.29 C 82.74 21.05 86.27 20.21 85.95 22.80 C 85.56 22.93 84.77 23.18 84.37 23.30 L 83.67 23.29 Z" />
<path fill="#2394d3" opacity="1.00" d=" M 139.72 23.28 C 139.07 21.04 142.42 20.59 142.05 23.05 L 141.38 23.41 C 140.97 23.38 140.14 23.31 139.72 23.28 Z" />
<path fill="#2394d3" opacity="1.00" d=" M 195.67 23.29 C 194.73 21.05 198.27 20.21 197.95 22.80 C 197.56 22.93 196.77 23.18 196.37 23.30 L 195.67 23.29 Z" />
</g>
<g id="#268ed7ff">
<path fill="#268ed7" opacity="1.00" d=" M 103.00 23.00 C 104.00 22.41 105.00 21.82 105.99 21.21 C 106.38 21.65 107.18 22.52 107.58 22.96 C 107.42 23.40 107.10 24.28 106.94 24.72 C 105.13 29.86 103.06 35.61 97.84 38.21 C 99.19 36.61 100.41 34.90 101.56 33.16 C 99.45 34.43 97.32 35.68 95.28 37.07 L 95.13 36.11 C 95.02 35.51 94.80 34.30 94.68 33.70 C 93.48 34.87 92.18 35.93 90.89 37.01 C 90.09 37.96 89.33 38.94 88.61 39.95 C 88.30 39.01 87.45 37.96 88.23 37.00 C 91.40 31.77 96.00 27.60 100.07 23.10 C 100.04 23.62 99.96 24.68 99.93 25.21 C 99.85 25.61 99.69 26.41 99.61 26.82 C 97.62 27.16 96.71 28.92 96.27 30.70 C 94.29 33.05 96.99 35.34 98.64 32.50 C 101.36 30.06 103.01 26.69 103.00 23.00 Z" />
<path fill="#268ed7" opacity="1.00" d=" M 215.04 22.99 C 216.02 22.41 217.01 21.82 217.98 21.22 C 218.37 21.64 219.15 22.49 219.54 22.91 C 219.36 23.43 218.98 24.47 218.79 24.99 C 217.12 30.08 214.94 35.65 209.84 38.21 C 211.19 36.61 212.40 34.90 213.56 33.16 C 211.44 34.43 209.32 35.68 207.28 37.07 L 207.13 36.11 C 207.02 35.51 206.80 34.30 206.68 33.70 C 205.48 34.87 204.18 35.93 202.89 37.01 C 202.09 37.96 201.33 38.94 200.61 39.95 C 200.30 39.01 199.45 37.96 200.23 37.00 C 203.39 31.77 208.00 27.60 212.07 23.10 C 212.04 23.62 211.96 24.68 211.93 25.21 C 211.85 25.61 211.69 26.41 211.61 26.82 C 209.62 27.16 208.71 28.92 208.27 30.70 C 206.29 33.05 208.99 35.34 210.64 32.50 C 213.37 30.06 214.99 26.67 215.04 22.99 Z" />
</g>
<g id="#4182cbff">
<path fill="#4182cb" opacity="1.00" d=" M 159.44 21.02 C 159.86 21.07 160.70 21.16 161.12 21.21 C 160.89 22.61 160.21 23.11 159.06 22.74 C 159.16 22.31 159.34 21.45 159.44 21.02 Z" />
</g>
<g id="#258ed7ff">
<path fill="#258ed7" opacity="1.00" d=" M 161.12 21.21 L 161.55 20.64 C 164.25 25.77 160.11 31.95 156.82 35.99 C 156.90 35.30 157.05 33.93 157.12 33.25 C 155.17 34.48 153.21 35.72 151.28 36.99 L 151.12 36.07 C 151.00 35.48 150.77 34.30 150.66 33.71 C 149.46 34.88 148.17 35.95 146.89 37.01 C 146.09 37.97 145.32 38.95 144.58 39.95 C 144.30 39.01 143.45 37.96 144.23 37.00 C 147.40 31.77 152.00 27.60 156.07 23.10 C 156.04 23.62 155.96 24.68 155.93 25.21 C 155.85 25.61 155.69 26.41 155.61 26.82 C 153.62 27.15 152.71 28.92 152.27 30.70 C 150.29 33.05 152.98 35.34 154.64 32.50 C 157.49 30.02 159.03 26.52 159.06 22.74 C 160.21 23.11 160.89 22.61 161.12 21.21 Z" />
</g>
<g id="#41cfbeff">
<path fill="#41cfbe" opacity="1.00" d=" M 45.54 21.95 C 45.27 24.64 44.94 27.36 43.74 29.81 C 43.68 28.99 43.57 27.35 43.52 26.53 C 44.22 25.02 44.91 23.50 45.54 21.95 Z" />
<path fill="#41cfbe" opacity="1.00" d=" M 99.93 25.21 C 100.70 24.06 101.52 22.94 102.37 21.84 C 102.00 25.36 100.61 28.61 97.87 30.93 C 98.91 29.81 99.30 28.27 99.61 26.82 C 99.69 26.41 99.85 25.61 99.93 25.21 Z" />
<path fill="#41cfbe" opacity="1.00" d=" M 155.93 25.21 C 156.70 24.06 157.52 22.94 158.37 21.84 C 158.00 25.36 156.61 28.61 153.87 30.93 C 154.91 29.81 155.30 28.27 155.61 26.82 C 155.69 26.41 155.85 25.61 155.93 25.21 Z" />
<path fill="#41cfbe" opacity="1.00" d=" M 211.93 25.21 C 212.70 24.06 213.52 22.94 214.37 21.84 C 214.00 25.36 212.61 28.61 209.87 30.93 C 210.90 29.81 211.30 28.27 211.61 26.82 C 211.69 26.41 211.85 25.61 211.93 25.21 Z" />
<path fill="#41cfbe" opacity="1.00" d=" M 74.15 27.85 C 74.84 26.89 75.99 25.57 77.29 26.40 L 77.21 27.16 C 76.86 27.43 76.15 27.98 75.80 28.25 C 75.38 28.15 74.56 27.95 74.15 27.85 Z" />
<path fill="#41cfbe" opacity="1.00" d=" M 186.15 27.85 C 186.84 26.89 187.98 25.57 189.29 26.40 L 189.21 27.16 C 188.86 27.43 188.15 27.98 187.80 28.25 C 187.38 28.15 186.56 27.95 186.15 27.85 Z" />
<path fill="#41cfbe" opacity="1.00" d=" M 79.68 38.92 C 81.51 38.46 83.29 37.83 85.08 37.24 C 83.90 39.43 81.69 40.63 79.55 41.70 C 79.59 41.01 79.65 39.61 79.68 38.92 Z" />
<path fill="#41cfbe" opacity="1.00" d=" M 191.68 38.92 C 193.51 38.46 195.29 37.83 197.08 37.24 C 195.90 39.43 193.69 40.63 191.55 41.70 C 191.59 41.01 191.65 39.61 191.68 38.92 Z" />
</g>
<g id="#2491d5fe">
<path fill="#2491d5" opacity="1.00" d=" M 77.58 23.59 C 78.68 23.00 79.76 22.37 80.85 21.76 C 81.55 22.14 82.96 22.91 83.67 23.29 C 81.41 24.38 79.17 25.56 77.21 27.16 L 77.29 26.40 C 77.36 25.69 77.51 24.29 77.58 23.59 Z" />
<path fill="#2491d5" opacity="1.00" d=" M 135.91 21.96 L 136.70 22.24 C 137.45 22.50 138.97 23.02 139.72 23.28 C 137.44 24.38 135.27 25.70 133.02 26.87 L 131.78 26.57 C 132.39 25.91 133.61 24.58 134.22 23.92 C 134.81 23.29 135.37 22.64 135.91 21.96 Z" />
<path fill="#2491d5" opacity="1.00" d=" M 189.58 23.59 C 190.68 23.00 191.76 22.37 192.85 21.75 C 193.55 22.14 194.96 22.91 195.67 23.29 C 193.41 24.38 191.17 25.56 189.21 27.16 L 189.29 26.40 C 189.36 25.69 189.51 24.29 189.58 23.59 Z" />
</g>
<g id="#d4f2dfff">
<path fill="#d4f2df" opacity="1.00" d=" M 20.74 36.12 C 24.10 30.46 29.29 26.50 35.10 23.57 C 33.11 27.31 30.65 30.77 27.85 33.95 L 27.39 34.44 C 25.18 35.03 22.96 35.56 20.74 36.12 Z" />
</g>
<g id="#1dacc1ff">
<path fill="#1dacc1" opacity="1.00" d=" M 74.74 24.96 C 75.69 24.52 76.64 24.07 77.58 23.59 C 77.51 24.29 77.36 25.69 77.29 26.40 C 75.99 25.57 74.84 26.89 74.15 27.85 C 73.82 28.23 73.18 28.98 72.86 29.35 L 71.83 29.13 C 72.82 27.75 73.68 26.29 74.74 24.96 Z" />
<path fill="#1dacc1" opacity="1.00" d=" M 130.82 24.86 C 131.93 24.45 133.06 24.14 134.22 23.92 C 133.61 24.58 132.39 25.91 131.78 26.57 C 131.28 27.07 130.78 27.56 130.27 28.04 C 129.88 28.27 129.11 28.72 128.72 28.95 L 127.81 29.05 C 128.82 27.66 129.75 26.20 130.82 24.86 Z" />
<path fill="#1dacc1" opacity="1.00" d=" M 186.74 24.96 C 187.69 24.52 188.64 24.07 189.58 23.59 C 189.51 24.29 189.36 25.69 189.29 26.40 C 187.98 25.57 186.84 26.89 186.15 27.85 C 185.82 28.23 185.18 28.98 184.86 29.35 L 183.83 29.13 C 184.82 27.75 185.68 26.29 186.74 24.96 Z" />
</g>
<g id="#d5f2dfff">
<path fill="#d5f2df" opacity="1.00" d=" M 77.58 35.05 C 80.89 30.61 84.61 25.78 90.42 24.90 C 87.05 29.25 83.08 33.56 77.58 35.05 Z" />
<path fill="#d5f2df" opacity="1.00" d=" M 189.58 35.05 C 192.89 30.61 196.61 25.78 202.42 24.90 C 199.05 29.25 195.08 33.56 189.58 35.05 Z" />
</g>
<g id="#d2f1dcff">
<path fill="#d2f1dc" opacity="1.00" d=" M 135.95 34.36 C 138.10 30.38 141.09 26.69 145.33 24.85 C 143.09 28.78 139.76 31.96 135.95 34.36 Z" />
</g>
<g id="#417ecaff">
<path fill="#417eca" opacity="1.00" d=" M 218.79 24.99 C 220.54 25.99 222.27 27.03 224.00 28.06 L 224.00 28.25 C 221.85 30.21 218.25 31.49 218.00 34.82 C 219.26 36.65 221.18 37.83 222.99 39.05 C 220.60 38.53 218.23 37.95 215.81 37.64 C 210.90 39.83 206.42 42.80 202.20 46.11 C 196.66 50.05 189.67 49.65 183.38 51.37 C 182.08 51.65 180.68 52.88 179.44 51.78 C 176.28 49.54 172.84 47.85 168.90 47.76 C 170.31 47.01 171.74 46.28 173.16 45.52 C 173.06 43.31 172.52 41.14 172.43 38.92 C 173.19 38.56 173.95 38.20 174.72 37.84 C 175.77 37.29 176.77 36.64 177.72 35.93 C 178.00 37.01 178.27 38.10 178.54 39.18 C 178.68 39.85 178.95 41.19 179.08 41.86 C 180.94 42.54 182.79 43.26 184.73 43.73 C 185.17 43.80 186.05 43.96 186.50 44.04 C 183.85 44.39 181.12 44.62 178.49 44.90 C 182.22 46.26 186.11 47.12 190.09 47.27 C 192.14 47.00 194.18 46.65 196.21 46.24 C 198.74 45.12 201.16 43.75 203.50 42.27 C 205.60 40.90 207.73 39.57 209.84 38.21 C 214.94 35.65 217.12 30.08 218.79 24.99 Z" />
</g>
<g id="#1aa8c2fe">
<path fill="#1aa8c2" opacity="1.00" d=" M 96.27 30.70 C 96.71 28.92 97.62 27.16 99.61 26.82 C 99.30 28.27 98.91 29.81 97.87 30.93 C 97.47 30.88 96.67 30.76 96.27 30.70 Z" />
<path fill="#1aa8c2" opacity="1.00" d=" M 152.27 30.70 C 152.71 28.92 153.62 27.15 155.61 26.82 C 155.30 28.27 154.91 29.81 153.87 30.93 C 153.47 30.88 152.67 30.76 152.27 30.70 Z" />
<path fill="#1aa8c2" opacity="1.00" d=" M 208.27 30.70 C 208.71 28.92 209.62 27.16 211.61 26.82 C 211.30 28.27 210.90 29.81 209.87 30.93 C 209.47 30.88 208.67 30.76 208.27 30.70 Z" />
</g>
<g id="#33aecbff">
<path fill="#33aecb" opacity="1.00" d=" M 71.83 29.13 L 72.86 29.35 L 73.22 30.11 C 72.74 31.42 70.84 31.98 70.57 30.22 C 70.88 29.95 71.52 29.40 71.83 29.13 Z" />
<path fill="#33aecb" opacity="1.00" d=" M 127.81 29.05 L 128.72 28.95 L 129.08 29.53 C 129.31 31.22 127.04 32.10 126.60 30.24 C 126.90 29.94 127.51 29.35 127.81 29.05 Z" />
<path fill="#33aecb" opacity="1.00" d=" M 183.83 29.13 L 184.86 29.35 L 185.22 30.11 C 184.73 31.42 182.84 31.98 182.57 30.22 C 182.88 29.95 183.52 29.40 183.83 29.13 Z" />
</g>
<g id="#35c4bffe">
<path fill="#35c4bf" opacity="1.00" d=" M 96.27 30.70 C 96.67 30.76 97.47 30.88 97.87 30.93 C 98.06 31.33 98.45 32.11 98.64 32.50 C 96.99 35.34 94.29 33.05 96.27 30.70 Z" />
<path fill="#35c4bf" opacity="1.00" d=" M 152.27 30.70 C 152.67 30.76 153.47 30.88 153.87 30.93 C 154.06 31.33 154.45 32.11 154.64 32.50 C 152.98 35.34 150.29 33.05 152.27 30.70 Z" />
<path fill="#35c4bf" opacity="1.00" d=" M 208.27 30.70 C 208.67 30.76 209.47 30.88 209.87 30.93 C 210.06 31.33 210.45 32.11 210.64 32.50 C 208.99 35.34 206.29 33.05 208.27 30.70 Z" />
<path fill="#35c4bf" opacity="1.00" d=" M 21.77 41.98 C 25.04 40.59 28.46 39.60 31.75 38.25 L 31.10 39.03 C 30.93 39.59 30.60 40.70 30.43 41.26 C 29.03 41.57 27.64 41.92 26.25 42.27 C 24.76 42.19 23.26 42.10 21.77 41.98 Z" />
</g>
<g id="#34c2bfff">
<path fill="#34c2bf" opacity="1.00" d=" M 16.78 32.99 C 16.83 31.26 17.68 30.60 19.32 30.99 C 18.75 32.01 17.91 32.68 16.78 32.99 Z" />
</g>
<g id="#7ad9adff">
<path fill="#7ad9ad" opacity="1.00" d=" M 19.32 30.99 L 19.87 31.13 C 20.26 32.95 18.52 34.94 16.74 33.60 L 16.78 32.99 C 17.91 32.68 18.75 32.01 19.32 30.99 Z" />
</g>
<g id="#1ba4c5ff">
<path fill="#1ba4c5" opacity="1.00" d=" M 39.04 37.09 C 41.18 35.73 43.37 34.47 45.55 33.17 C 44.41 34.92 43.20 36.62 41.83 38.20 C 39.73 39.57 37.60 40.92 35.49 42.28 C 34.79 41.99 33.40 41.41 32.70 41.12 L 33.65 41.07 C 35.83 41.48 37.34 39.75 38.10 37.92 C 38.34 37.71 38.81 37.29 39.04 37.09 Z" />
<path fill="#1ba4c5" opacity="1.00" d=" M 95.28 37.07 C 97.32 35.68 99.45 34.43 101.56 33.16 C 100.41 34.90 99.19 36.61 97.84 38.21 C 95.73 39.57 93.60 40.90 91.50 42.27 C 90.79 41.98 89.38 41.39 88.67 41.09 L 89.60 40.99 C 91.74 41.23 93.45 39.91 94.15 37.95 C 94.43 37.73 95.00 37.29 95.28 37.07 Z" />
<path fill="#1ba4c5" opacity="1.00" d=" M 151.28 36.99 C 153.21 35.72 155.17 34.48 157.12 33.25 C 157.05 33.93 156.90 35.30 156.82 35.99 C 155.59 35.59 154.46 36.37 153.68 37.23 C 151.80 38.84 149.98 40.51 148.01 41.99 L 147.41 41.86 C 146.72 41.67 145.34 41.31 144.65 41.13 L 145.57 41.04 C 147.48 41.43 148.98 40.05 149.48 38.30 C 149.93 37.97 150.83 37.32 151.28 36.99 Z" />
<path fill="#1ba4c5" opacity="1.00" d=" M 207.28 37.07 C 209.32 35.68 211.44 34.43 213.56 33.16 C 212.40 34.90 211.19 36.61 209.84 38.21 C 207.73 39.57 205.60 40.90 203.50 42.27 C 202.79 41.98 201.38 41.39 200.67 41.09 L 201.60 40.99 C 203.74 41.23 205.45 39.91 206.15 37.95 C 206.43 37.73 207.00 37.29 207.28 37.07 Z" />
</g>
<g id="#258fd7ff">
<path fill="#258fd7" opacity="1.00" d=" M 10.53 39.15 C 11.53 37.30 12.52 35.46 13.51 33.61 C 13.46 36.28 13.35 38.94 13.21 41.62 C 15.03 41.85 18.67 42.31 20.49 42.55 C 19.23 42.97 17.96 43.38 16.69 43.78 C 14.78 43.21 12.91 42.55 11.03 41.88 C 10.91 41.20 10.66 39.83 10.53 39.15 Z" />
</g>
<g id="#1aa9c2ff">
<path fill="#1aa9c2" opacity="1.00" d=" M 36.03 36.97 C 36.08 34.90 39.58 33.08 39.23 36.15 C 38.18 36.49 37.11 36.76 36.03 36.97 Z" />
<path fill="#1aa9c2" opacity="1.00" d=" M 31.10 39.03 C 31.47 38.98 32.22 38.88 32.60 38.83 C 32.38 39.41 31.96 40.57 31.75 41.15 C 31.42 41.17 30.76 41.23 30.43 41.26 C 30.60 40.70 30.93 39.59 31.10 39.03 Z" />
</g>
<g id="#258ed8ff">
<path fill="#258ed8" opacity="1.00" d=" M 66.54 39.18 C 67.46 37.41 68.36 35.62 69.22 33.81 C 69.61 35.77 70.01 37.73 70.23 39.71 C 72.55 40.79 74.86 41.87 77.14 43.02 C 75.67 43.26 74.20 43.49 72.73 43.73 C 70.79 43.26 68.94 42.54 67.08 41.86 C 66.95 41.19 66.68 39.85 66.54 39.18 Z" />
<path fill="#258ed8" opacity="1.00" d=" M 122.71 38.57 C 123.62 37.04 124.48 35.47 125.26 33.87 C 125.61 35.81 126.00 37.75 126.23 39.71 C 128.54 40.80 130.88 41.86 133.15 43.04 C 131.67 43.13 130.20 43.22 128.72 43.30 C 125.69 43.72 121.80 42.37 122.71 38.57 Z" />
<path fill="#258ed8" opacity="1.00" d=" M 178.54 39.18 C 179.46 37.41 180.35 35.62 181.22 33.81 C 181.61 35.77 182.01 37.73 182.23 39.71 C 184.55 40.79 186.86 41.87 189.14 43.02 C 187.67 43.26 186.20 43.49 184.73 43.73 C 182.79 43.26 180.94 42.54 179.08 41.86 C 178.95 41.19 178.68 39.85 178.54 39.18 Z" />
</g>
<g id="#89dca9ff">
<path fill="#89dca9" opacity="1.00" d=" M 27.62 38.01 C 26.96 36.26 28.79 35.23 30.22 34.98 C 29.70 36.20 29.17 37.82 27.62 38.01 Z" />
</g>
<g id="#97dfa5ff">
<path fill="#97dfa5" opacity="1.00" d=" M 78.70 38.97 C 81.34 37.75 83.90 36.35 86.49 35.03 C 86.14 35.58 85.43 36.69 85.08 37.24 C 83.29 37.83 81.51 38.46 79.68 38.92 L 78.70 38.97 Z" />
<path fill="#97dfa5" opacity="1.00" d=" M 190.70 38.97 C 193.34 37.75 195.90 36.35 198.49 35.03 C 198.14 35.58 197.43 36.69 197.08 37.24 C 195.29 37.83 193.51 38.46 191.68 38.92 L 190.70 38.97 Z" />
</g>
<g id="#3e83ccff">
<path fill="#3e83cc" opacity="1.00" d=" M 36.03 36.97 C 37.11 36.76 38.18 36.49 39.23 36.15 L 39.04 37.09 C 38.81 37.29 38.34 37.71 38.10 37.92 C 36.15 38.18 34.54 39.31 33.65 41.07 L 32.70 41.12 L 31.75 41.15 C 31.96 40.57 32.38 39.41 32.60 38.83 C 33.75 38.23 34.88 37.59 36.03 36.97 Z" />
<path fill="#3e83cc" opacity="1.00" d=" M 90.89 37.01 C 92.29 36.66 93.71 36.36 95.13 36.11 L 95.28 37.07 C 95.00 37.29 94.43 37.73 94.15 37.95 C 92.19 38.17 90.52 39.23 89.60 40.99 L 88.67 41.09 L 87.67 41.18 C 87.90 40.87 88.37 40.26 88.61 39.95 C 89.33 38.94 90.09 37.96 90.89 37.01 Z" />
<path fill="#3e83cc" opacity="1.00" d=" M 146.89 37.01 C 148.29 36.65 149.70 36.34 151.12 36.07 L 151.28 36.99 C 150.83 37.32 149.93 37.97 149.48 38.30 C 147.76 38.48 146.32 39.49 145.57 41.04 L 144.65 41.13 L 143.62 41.19 C 143.86 40.88 144.34 40.26 144.58 39.95 C 145.32 38.95 146.09 37.97 146.89 37.01 Z" />
<path fill="#3e83cc" opacity="1.00" d=" M 202.89 37.01 C 204.29 36.66 205.71 36.36 207.13 36.11 L 207.28 37.07 C 207.00 37.29 206.43 37.73 206.15 37.95 C 204.19 38.17 202.52 39.23 201.60 40.99 L 200.67 41.09 L 199.67 41.18 C 199.90 40.87 200.37 40.26 200.61 39.95 C 201.33 38.94 202.09 37.96 202.89 37.01 Z" />
</g>
<g id="#4375cafe">
<path fill="#4375ca" opacity="1.00" d=" M 27.17 49.20 C 35.85 47.07 41.44 39.18 49.91 36.55 C 51.62 37.57 53.29 38.64 54.99 39.66 C 51.41 39.79 46.72 39.56 45.50 43.84 C 48.90 45.45 52.58 46.25 56.25 46.99 C 52.65 47.01 48.76 45.59 45.48 47.60 C 43.63 48.88 41.47 47.92 39.45 47.81 C 35.48 48.99 31.12 51.40 30.66 56.00 L 30.49 56.00 C 29.10 54.81 27.75 53.57 26.24 52.52 C 22.54 51.12 20.19 54.28 17.54 56.00 L 17.07 56.00 C 16.32 55.49 15.60 54.97 14.88 54.42 C 16.32 54.10 17.76 53.78 19.20 53.49 C 14.66 52.44 9.98 52.37 5.40 51.50 C 7.35 52.70 9.21 54.02 11.12 55.25 C 8.42 54.82 5.69 54.59 2.96 54.38 C 2.95 51.36 1.89 45.94 6.67 46.58 C 7.23 48.05 7.76 49.54 8.24 51.05 C 14.57 50.75 21.00 50.89 27.17 49.20 Z" />
</g>
<g id="#2a8cd6ff">
<path fill="#2a8cd6" opacity="1.00" d=" M 33.65 41.07 C 34.54 39.31 36.15 38.18 38.10 37.92 C 37.34 39.75 35.83 41.48 33.65 41.07 Z" />
<path fill="#2a8cd6" opacity="1.00" d=" M 89.60 40.99 C 90.52 39.23 92.19 38.17 94.15 37.95 C 93.45 39.91 91.74 41.23 89.60 40.99 Z" />
<path fill="#2a8cd6" opacity="1.00" d=" M 201.60 40.99 C 202.52 39.23 204.19 38.17 206.15 37.95 C 205.45 39.91 203.74 41.23 201.60 40.99 Z" />
</g>
<g id="#2b8bd6ff">
<path fill="#2b8bd6" opacity="1.00" d=" M 145.57 41.04 C 146.32 39.49 147.76 38.48 149.48 38.30 C 148.98 40.05 147.48 41.43 145.57 41.04 Z" />
</g>
<g id="#4476caff">
<path fill="#4476ca" opacity="1.00" d=" M 202.20 46.11 C 206.42 42.80 210.90 39.83 215.81 37.64 C 215.87 39.97 215.63 42.29 215.55 44.62 C 218.37 44.81 221.16 44.99 224.00 45.17 L 224.00 45.87 C 220.38 46.26 216.77 46.59 213.20 47.25 C 210.56 47.69 207.92 46.06 205.32 46.98 C 203.00 47.92 200.87 49.24 198.61 50.30 C 199.38 53.68 201.12 56.33 205.32 56.00 L 193.60 56.00 C 195.12 55.63 198.16 54.89 199.68 54.52 C 194.76 50.36 188.64 54.01 183.04 54.28 C 183.73 53.82 185.11 52.90 185.80 52.44 C 184.99 52.08 184.19 51.72 183.38 51.37 C 189.67 49.65 196.66 50.05 202.20 46.11 Z" />
</g>
<g id="#298bd7ff">
<path fill="#298bd7" opacity="1.00" d=" M 26.25 42.27 C 27.64 41.92 29.03 41.57 30.43 41.26 C 30.76 41.23 31.42 41.17 31.75 41.15 L 32.70 41.12 C 33.40 41.41 34.79 41.99 35.49 42.28 C 33.15 43.74 30.74 45.12 28.21 46.24 C 28.36 45.68 28.66 44.56 28.81 43.99 C 25.89 44.35 22.97 44.66 20.04 44.96 C 20.72 45.74 21.40 46.51 22.09 47.27 C 18.11 47.13 14.21 46.26 10.48 44.88 C 13.15 44.60 15.83 44.40 18.50 44.11 C 21.16 43.86 23.71 43.04 26.25 42.27 Z" />
<path fill="#298bd7" opacity="1.00" d=" M 74.50 44.04 C 78.94 43.35 83.25 41.98 87.67 41.18 L 88.67 41.09 C 89.38 41.39 90.79 41.98 91.50 42.27 C 89.16 43.75 86.74 45.12 84.21 46.24 C 84.36 45.68 84.66 44.56 84.81 43.99 C 81.89 44.35 78.96 44.66 76.04 44.96 C 76.72 45.74 77.40 46.51 78.09 47.27 C 74.11 47.12 70.22 46.26 66.49 44.90 C 69.15 44.62 71.84 44.39 74.50 44.04 Z" />
<path fill="#298bd7" opacity="1.00" d=" M 130.51 44.16 C 134.92 43.35 139.22 42.03 143.62 41.19 L 144.65 41.13 C 145.34 41.31 146.72 41.67 147.41 41.86 C 145.55 44.29 142.67 45.23 139.84 46.00 C 140.14 45.51 140.76 44.53 141.07 44.04 C 138.05 44.32 135.03 44.67 132.02 44.97 C 132.72 45.73 133.43 46.49 134.14 47.24 C 130.13 47.04 126.12 46.53 122.50 44.67 C 125.12 44.42 127.89 44.63 130.51 44.16 Z" />
<path fill="#298bd7" opacity="1.00" d=" M 186.50 44.04 C 190.94 43.35 195.25 41.98 199.67 41.18 L 200.67 41.09 C 201.38 41.39 202.79 41.98 203.50 42.27 C 201.16 43.75 198.74 45.12 196.21 46.24 C 196.36 45.68 196.66 44.56 196.81 43.99 C 193.89 44.35 190.96 44.66 188.04 44.96 C 188.72 45.74 189.40 46.51 190.09 47.27 C 186.11 47.12 182.22 46.26 178.49 44.90 C 181.12 44.62 183.85 44.39 186.50 44.04 Z" />
</g>
<g id="#1ca3c6ff">
<path fill="#1ca3c6" opacity="1.00" d=" M 20.04 44.96 C 22.97 44.66 25.89 44.35 28.81 43.99 C 28.66 44.56 28.36 45.68 28.21 46.24 C 26.18 46.66 24.14 47.00 22.09 47.27 C 21.40 46.51 20.72 45.74 20.04 44.96 Z" />
<path fill="#1ca3c6" opacity="1.00" d=" M 76.04 44.96 C 78.96 44.66 81.89 44.35 84.81 43.99 C 84.66 44.56 84.36 45.68 84.21 46.24 C 82.18 46.65 80.14 47.00 78.09 47.27 C 77.40 46.51 76.72 45.74 76.04 44.96 Z" />
<path fill="#1ca3c6" opacity="1.00" d=" M 132.02 44.97 C 135.03 44.67 138.05 44.32 141.07 44.04 C 140.76 44.53 140.14 45.51 139.84 46.00 C 138.32 47.43 136.03 46.93 134.14 47.24 C 133.43 46.49 132.72 45.73 132.02 44.97 Z" />
<path fill="#1ca3c6" opacity="1.00" d=" M 188.04 44.96 C 190.96 44.66 193.89 44.35 196.81 43.99 C 196.66 44.56 196.36 45.68 196.21 46.24 C 194.18 46.65 192.14 47.00 190.09 47.27 C 189.40 46.51 188.72 45.74 188.04 44.96 Z" />
</g>
<g id="#4575cbff">
<path fill="#4575cb" opacity="1.00" d=" M 163.76 44.26 C 164.60 43.32 166.40 43.32 167.24 44.26 C 167.34 45.88 163.66 45.88 163.76 44.26 Z" />
</g>
<g id="#4378caff">
<path fill="#4378ca" opacity="1.00" d=" M 60.41 50.09 C 62.91 50.99 65.15 52.40 67.26 53.98 C 64.12 53.73 60.99 53.35 57.87 53.03 C 58.70 52.03 59.54 51.05 60.41 50.09 Z" />
<path fill="#4378ca" opacity="1.00" d=" M 172.41 50.09 C 174.90 50.99 177.15 52.40 179.26 53.98 C 176.12 53.73 172.99 53.35 169.87 53.03 C 170.69 52.03 171.54 51.05 172.41 50.09 Z" />
</g>
</svg>
