<?xml version="1.0" encoding="UTF-8" ?>
<!DOCTYPE svg PUBLIC "-//W3C//DTD SVG 1.1//EN" "http://www.w3.org/Graphics/SVG/1.1/DTD/svg11.dtd">
<svg width="224pt" height="56pt" viewBox="0 0 224 56" version="1.1" xmlns="http://www.w3.org/2000/svg">
<g id="#81ab59fe">
<path fill="#81ab59" opacity="1.00" d=" M 0.00 0.00 L 10.11 0.00 C 10.02 0.44 9.83 1.33 9.74 1.77 C 6.37 2.86 3.45 4.89 1.62 7.97 C 1.39 7.95 0.95 7.92 0.72 7.90 C 2.24 6.89 1.30 4.95 0.00 4.28 L 0.00 0.00 Z" />
<path fill="#81ab59" opacity="1.00" d=" M 55.36 0.00 L 66.14 0.00 C 66.05 0.44 65.85 1.32 65.75 1.76 C 62.34 2.85 59.38 4.93 57.59 8.08 C 57.32 8.08 56.79 8.06 56.53 8.06 C 57.76 7.09 57.26 5.46 56.70 4.29 L 56.45 3.47 C 56.18 2.60 55.63 0.87 55.36 0.00 Z" />
<path fill="#81ab59" opacity="1.00" d=" M 111.35 0.00 L 122.38 0.00 C 122.27 0.45 122.06 1.35 121.95 1.80 C 118.40 2.77 115.31 4.86 113.59 8.18 C 113.31 8.17 112.74 8.13 112.46 8.11 C 113.63 7.12 113.16 5.52 112.66 4.33 L 112.43 3.55 C 112.16 2.66 111.62 0.89 111.35 0.00 Z" />
<path fill="#81ab59" opacity="1.00" d=" M 167.38 0.00 L 178.39 0.00 C 178.28 0.45 178.06 1.36 177.95 1.81 C 174.39 2.77 171.30 4.87 169.59 8.20 C 169.32 8.19 168.79 8.16 168.53 8.15 C 169.71 7.13 169.21 5.51 168.67 4.31 L 168.41 3.41 C 168.15 2.56 167.63 0.85 167.38 0.00 Z" />
</g>
<g id="#342f2aff">
<path fill="#342f2a" opacity="1.00" d=" M 10.11 0.00 L 13.03 0.00 C 13.02 0.57 13.02 1.70 13.02 2.27 C 12.44 5.75 11.67 9.22 11.60 12.76 C 12.26 10.47 12.93 8.17 13.32 5.81 C 14.00 10.11 13.22 14.38 12.17 18.54 L 12.08 18.89 C 11.69 19.18 10.93 19.76 10.54 20.06 C 10.24 16.33 9.67 12.64 9.05 8.95 C 8.35 9.09 6.94 9.35 6.24 9.49 C 6.88 13.62 7.53 17.75 8.08 21.90 C 7.58 22.29 6.57 23.06 6.06 23.44 C 5.65 22.85 4.83 21.66 4.42 21.06 C 6.14 19.41 3.91 16.31 2.43 18.95 C 2.08 19.31 1.36 20.03 1.01 20.39 C 0.75 20.66 0.25 21.19 0.00 21.46 L 0.00 7.83 L 0.72 7.90 C 0.95 7.92 1.39 7.95 1.62 7.97 C 4.09 8.09 6.56 8.07 9.04 8.04 C 9.21 5.94 9.39 3.85 9.74 1.77 C 9.83 1.33 10.02 0.44 10.11 0.00 M 3.97 11.49 C 4.77 14.21 5.84 16.83 7.10 19.37 C 6.64 16.52 5.43 13.92 3.97 11.49 Z" />
<path fill="#342f2a" opacity="1.00" d=" M 66.14 0.00 L 68.96 0.00 C 68.97 0.56 69.00 1.69 69.01 2.25 C 68.43 5.74 67.68 9.21 67.59 12.76 C 68.27 10.46 68.95 8.16 69.35 5.80 C 70.26 9.72 69.33 13.56 67.94 17.19 L 67.80 17.60 C 67.43 18.56 67.06 19.52 66.68 20.48 C 66.51 16.59 65.74 12.76 65.04 8.94 C 64.29 9.09 62.79 9.39 62.04 9.53 C 62.85 13.27 63.58 17.02 64.57 20.71 C 63.87 20.98 62.47 21.52 61.77 21.79 C 61.58 21.26 61.19 20.21 60.99 19.69 C 61.20 17.42 57.95 16.63 58.94 19.45 L 58.35 19.11 C 57.47 18.57 56.59 18.01 55.72 17.44 C 55.77 16.43 55.88 14.40 55.94 13.39 C 55.95 12.74 55.96 11.44 55.97 10.80 C 55.94 10.10 55.88 8.72 55.85 8.02 L 56.53 8.06 C 56.79 8.06 57.32 8.08 57.59 8.08 C 60.08 8.12 62.57 8.04 65.07 8.01 C 65.18 5.91 65.34 3.82 65.75 1.76 C 65.85 1.32 66.05 0.44 66.14 0.00 M 59.97 11.49 C 60.76 14.21 61.84 16.83 63.10 19.37 C 62.63 16.52 61.43 13.92 59.97 11.49 Z" />
<path fill="#342f2a" opacity="1.00" d=" M 178.39 0.00 L 180.97 0.00 C 180.98 0.56 181.00 1.69 181.01 2.25 C 180.42 5.74 179.68 9.21 179.59 12.75 C 180.27 10.46 180.95 8.16 181.35 5.80 C 182.26 9.73 181.35 13.57 179.93 17.20 L 179.79 17.61 C 179.41 18.58 179.03 19.56 178.65 20.54 C 178.50 16.63 177.76 12.78 177.05 8.94 C 176.30 9.09 174.80 9.38 174.06 9.53 C 174.84 13.29 175.55 17.07 176.54 20.78 C 175.86 21.06 174.50 21.63 173.81 21.92 C 173.60 21.35 173.19 20.20 172.98 19.63 C 173.12 17.41 169.92 16.61 170.82 19.41 L 170.08 19.27 C 169.61 19.25 168.68 19.21 168.21 19.19 C 168.18 17.25 168.14 13.38 168.11 11.44 C 168.07 10.82 167.99 9.58 167.95 8.96 L 167.87 8.10 L 168.53 8.15 C 168.79 8.16 169.32 8.19 169.59 8.20 C 171.91 8.26 174.32 8.30 176.53 7.45 C 177.30 5.66 177.51 3.70 177.95 1.81 C 178.06 1.36 178.28 0.45 178.39 0.00 M 171.97 11.49 C 172.76 14.21 173.84 16.83 175.10 19.37 C 174.62 16.52 173.44 13.92 171.97 11.49 Z" />
</g>
<g id="#268dd9ff">
<path fill="#268dd9" opacity="1.00" d=" M 13.03 0.00 L 16.10 0.00 L 15.29 0.85 C 13.42 1.89 13.93 4.59 16.19 4.51 C 16.66 8.05 17.13 11.58 17.60 15.12 C 16.88 14.91 16.15 14.71 15.43 14.51 C 15.32 14.49 15.11 14.44 15.01 14.42 C 12.96 14.27 12.54 17.02 12.17 18.54 C 13.22 14.38 14.00 10.11 13.32 5.81 C 13.23 4.63 13.13 3.45 13.02 2.27 C 13.02 1.70 13.02 0.57 13.03 0.00 Z" />
<path fill="#268dd9" opacity="1.00" d=" M 68.96 0.00 L 70.20 0.00 C 70.44 0.36 70.90 1.07 71.14 1.43 C 70.29 2.60 70.27 5.11 72.28 4.86 C 71.98 8.08 71.70 11.30 71.47 14.53 C 70.10 15.12 68.88 16.02 67.94 17.19 C 69.33 13.56 70.26 9.72 69.35 5.80 C 69.25 4.62 69.14 3.44 69.01 2.25 C 69.00 1.69 68.97 0.56 68.96 0.00 Z" />
<path fill="#268dd9" opacity="1.00" d=" M 180.97 0.00 L 182.20 0.00 C 182.44 0.36 182.92 1.07 183.16 1.43 C 182.29 2.60 182.28 5.10 184.29 4.86 C 184.01 8.07 183.67 11.27 183.42 14.49 C 182.05 15.09 180.86 16.03 179.93 17.20 C 181.35 13.57 182.26 9.73 181.35 5.80 C 181.25 4.62 181.13 3.43 181.01 2.25 C 181.00 1.69 180.98 0.56 180.97 0.00 Z" />
</g>
<g id="#3c6bbeff">
<path fill="#3c6bbe" opacity="1.00" d=" M 16.10 0.00 L 25.56 0.00 C 26.62 1.16 27.63 2.37 28.63 3.57 C 24.46 4.50 19.97 4.58 16.05 2.66 C 15.86 2.21 15.48 1.30 15.29 0.85 L 16.10 0.00 Z" />
<path fill="#3c6bbe" opacity="1.00" d=" M 30.46 0.00 L 55.36 0.00 C 55.63 0.87 56.18 2.60 56.45 3.47 C 47.62 5.44 38.72 3.21 30.46 0.00 Z" />
<path fill="#3c6bbe" opacity="1.00" d=" M 70.20 0.00 L 85.36 0.00 C 81.94 3.39 77.14 3.42 72.67 3.48 C 75.09 4.27 77.46 5.45 80.03 5.65 C 83.73 4.13 86.73 0.99 91.04 0.98 C 95.13 1.79 98.05 5.64 102.33 5.76 C 105.45 6.02 108.58 6.12 111.71 6.04 C 111.73 6.54 111.77 7.55 111.79 8.05 C 111.83 8.42 111.90 9.16 111.94 9.53 C 108.48 9.78 104.86 9.45 101.55 10.57 C 99.38 11.79 97.76 13.74 95.93 15.38 C 101.35 14.37 106.68 12.81 112.19 12.29 C 112.37 14.34 112.56 16.39 112.77 18.44 C 112.65 20.28 114.07 21.66 115.67 22.31 C 114.68 22.63 113.69 22.96 112.70 23.31 C 114.41 24.00 116.11 24.69 117.81 25.40 C 118.38 24.88 118.94 24.37 119.51 23.87 C 119.27 23.31 118.77 22.20 118.53 21.64 C 120.55 21.23 122.58 20.82 124.60 20.41 C 124.57 21.21 124.49 22.80 124.45 23.60 C 128.05 16.22 129.67 7.73 126.20 0.00 L 138.34 0.00 C 137.75 0.55 136.57 1.65 135.98 2.19 C 133.53 2.19 131.09 2.15 128.64 2.29 C 131.25 3.27 133.80 4.62 136.60 4.97 C 138.45 3.59 139.81 1.67 141.38 0.00 L 151.46 0.00 C 152.82 1.79 153.90 4.10 156.00 5.13 C 159.88 5.80 163.83 6.16 167.78 6.10 C 167.80 6.60 167.84 7.60 167.87 8.10 L 167.95 8.96 C 162.50 9.37 156.34 9.11 152.42 13.64 C 157.66 12.96 162.85 11.97 168.11 11.44 C 168.14 13.38 168.18 17.25 168.21 19.19 C 168.41 19.72 168.83 20.77 169.03 21.30 C 169.81 22.09 170.72 22.69 171.76 23.11 C 170.73 23.51 169.71 23.93 168.70 24.35 C 170.70 25.15 172.71 25.96 174.71 26.76 C 174.75 25.86 174.80 24.96 174.81 24.05 C 174.62 23.80 174.25 23.29 174.06 23.03 C 175.75 23.22 177.34 22.52 178.75 21.68 C 180.28 22.47 181.90 23.07 183.56 23.53 C 183.43 21.28 183.27 19.03 183.27 16.78 C 183.31 16.20 183.38 15.06 183.42 14.49 C 183.67 11.27 184.01 8.07 184.29 4.86 C 184.43 3.57 184.06 2.42 183.16 1.43 C 182.92 1.07 182.44 0.36 182.20 0.00 L 197.36 0.00 C 193.94 3.39 189.14 3.42 184.67 3.48 C 187.09 4.27 189.46 5.45 192.03 5.65 C 195.73 4.13 198.73 0.99 203.04 0.98 C 207.11 1.82 210.06 5.60 214.34 5.69 C 217.56 6.00 220.79 6.13 224.00 6.56 L 224.00 9.31 C 219.79 9.91 214.66 8.82 211.42 12.08 C 210.24 13.18 209.13 14.36 207.99 15.50 C 213.47 14.90 218.49 12.25 224.00 11.89 L 224.00 27.70 C 219.30 27.99 214.51 26.92 211.92 22.73 C 214.69 21.17 217.48 19.65 220.28 18.12 C 216.81 18.82 213.36 19.56 209.90 20.27 C 212.23 25.07 217.20 29.33 215.80 35.11 C 213.53 34.16 211.28 33.17 209.03 32.19 C 208.76 33.11 208.49 34.02 208.22 34.94 C 212.92 36.85 217.83 38.13 222.74 39.39 C 221.15 37.87 219.42 36.44 218.17 34.61 C 217.88 31.28 222.06 29.97 224.00 27.90 L 224.00 45.13 C 215.54 44.76 207.02 42.59 198.57 44.18 C 201.89 45.18 205.27 45.95 208.67 46.67 C 213.73 47.94 218.94 46.18 224.00 45.89 L 224.00 56.00 L 205.30 56.00 C 200.41 53.98 195.85 51.31 191.18 48.84 C 195.59 43.29 199.11 36.33 206.32 33.87 C 204.88 31.29 203.56 28.65 201.95 26.18 C 202.27 28.25 202.66 30.32 203.07 32.38 C 200.12 33.58 197.16 35.25 193.90 35.19 C 190.97 34.48 188.33 32.87 185.55 31.80 C 188.12 27.44 192.89 25.77 197.87 26.31 C 197.27 22.41 199.80 19.40 202.73 17.20 C 198.58 18.07 194.33 17.82 190.20 16.94 C 192.78 18.79 195.22 20.85 197.19 23.36 C 193.53 24.72 189.83 25.98 186.15 27.26 C 185.24 29.79 185.75 33.49 182.92 34.70 C 179.41 36.14 175.73 37.09 172.12 38.25 C 174.63 41.84 177.59 45.18 181.61 47.10 C 179.45 44.58 177.26 42.09 175.22 39.47 C 181.35 36.46 188.20 34.60 194.98 36.86 C 193.41 41.37 190.90 45.48 187.43 48.77 C 188.01 48.93 189.18 49.25 189.76 49.41 C 187.89 51.14 186.00 52.84 184.14 54.58 C 186.74 53.45 189.26 51.93 192.09 51.45 C 194.90 51.51 197.28 53.30 199.73 54.48 C 198.26 55.01 196.80 55.51 195.32 56.00 L 150.07 56.00 C 145.12 51.64 138.89 49.26 133.54 45.51 C 132.69 46.15 131.83 46.76 130.96 47.37 C 131.69 47.63 133.15 48.17 133.87 48.43 C 131.95 50.11 130.03 51.77 128.11 53.44 C 133.60 50.71 140.09 49.98 145.64 52.94 C 143.57 53.32 139.42 54.06 137.34 54.44 C 137.98 54.83 139.26 55.61 139.89 56.00 L 93.31 56.00 C 88.42 53.98 83.85 51.31 79.18 48.84 C 83.61 43.27 87.14 36.29 94.38 33.84 C 92.87 31.28 91.39 28.69 89.63 26.29 C 90.10 28.39 90.61 30.48 91.13 32.56 C 85.50 35.26 79.09 34.23 73.46 31.99 C 76.00 27.51 80.80 25.72 85.87 26.31 C 85.27 22.41 87.80 19.40 90.73 17.20 C 86.58 18.07 82.33 17.82 78.20 16.94 C 80.78 18.79 83.22 20.85 85.19 23.36 C 81.53 24.72 77.83 25.98 74.15 27.26 C 73.25 29.79 73.75 33.49 70.92 34.70 C 67.42 36.14 63.73 37.09 60.12 38.25 C 62.63 41.84 65.59 45.18 69.61 47.10 C 67.45 44.58 65.26 42.09 63.22 39.47 C 69.35 36.46 76.20 34.60 82.98 36.86 C 81.41 41.37 78.90 45.48 75.43 48.77 C 76.01 48.93 77.18 49.25 77.76 49.41 C 75.89 51.14 74.00 52.84 72.14 54.58 C 74.74 53.45 77.26 51.93 80.09 51.45 C 82.90 51.51 85.28 53.30 87.73 54.48 C 86.27 55.01 84.80 55.51 83.33 56.00 L 32.54 56.00 C 29.92 53.71 27.10 51.66 24.58 49.29 C 27.31 45.33 30.31 41.51 32.27 37.07 C 34.35 36.73 36.44 36.39 38.53 36.05 C 36.63 33.30 35.00 30.38 33.32 27.49 C 33.19 30.08 34.18 33.93 30.96 35.02 C 26.81 37.09 22.51 34.24 18.72 32.70 C 20.97 28.67 25.29 27.15 29.68 27.04 C 29.01 25.61 28.36 24.17 27.72 22.73 C 32.04 20.98 36.67 20.26 41.31 20.21 C 35.31 16.33 28.52 18.74 22.04 19.57 C 23.63 20.41 25.22 21.27 26.82 22.11 C 26.92 22.94 27.13 24.61 27.23 25.44 C 23.82 26.43 20.35 27.16 16.84 27.63 C 17.62 29.34 18.43 31.06 18.84 32.91 C 13.53 36.95 6.37 36.88 0.00 37.83 L 0.00 30.94 C 3.12 30.00 6.17 28.86 9.19 27.66 C 8.29 27.44 7.39 27.22 6.48 27.00 C 6.60 25.86 6.72 24.72 6.83 23.58 C 8.33 23.19 9.81 22.73 11.29 22.26 L 11.62 22.59 L 12.10 23.05 C 13.11 24.00 14.14 24.93 15.19 25.84 C 15.26 22.75 15.24 19.66 15.16 16.57 C 15.12 16.03 15.05 14.96 15.01 14.42 C 15.11 14.44 15.32 14.49 15.43 14.51 C 16.15 14.71 16.88 14.91 17.60 15.12 C 17.13 11.58 16.66 8.05 16.19 4.51 C 18.71 5.41 21.30 6.60 24.04 6.49 C 28.10 5.49 31.84 1.70 36.26 4.35 C 42.50 6.96 49.22 7.11 55.81 6.03 C 55.82 6.53 55.84 7.52 55.85 8.02 C 55.88 8.72 55.94 10.10 55.97 10.80 C 51.87 10.64 47.77 10.54 43.68 10.37 C 43.92 11.44 44.17 12.51 44.42 13.58 C 42.87 14.51 41.33 15.45 39.80 16.41 C 45.23 15.67 50.53 14.26 55.94 13.39 C 55.88 14.40 55.77 16.43 55.72 17.44 C 51.11 18.69 46.53 20.03 41.94 21.33 C 44.26 26.11 49.21 30.34 47.79 36.11 C 45.53 35.15 43.28 34.17 41.03 33.19 C 40.76 34.11 40.49 35.02 40.22 35.94 C 44.92 37.85 49.82 39.12 54.72 40.40 C 52.76 38.32 49.67 36.47 49.91 33.20 C 52.96 31.10 56.45 29.71 59.95 28.55 C 60.24 27.98 60.53 27.40 60.83 26.83 C 57.08 27.30 53.35 27.96 49.57 28.07 C 46.61 28.13 45.35 24.87 43.66 23.01 C 48.75 20.04 54.63 20.77 59.76 23.21 C 58.70 23.74 57.65 24.27 56.60 24.81 C 59.12 25.03 61.65 25.22 64.18 25.34 C 63.63 24.73 62.53 23.52 61.98 22.91 C 63.67 23.09 65.27 22.41 66.73 21.66 C 67.64 22.36 68.56 23.04 69.48 23.73 C 70.15 23.36 70.81 22.99 71.47 22.63 C 71.36 20.68 71.27 18.73 71.30 16.79 C 71.35 16.22 71.43 15.09 71.47 14.53 C 71.70 11.30 71.98 8.08 72.28 4.86 C 72.43 3.57 72.05 2.42 71.14 1.43 C 70.90 1.07 70.44 0.36 70.20 0.00 M 138.70 9.43 C 141.11 10.61 143.56 11.71 146.05 12.73 C 145.39 14.02 144.72 15.32 144.05 16.61 C 147.06 16.50 150.07 16.59 153.08 16.79 C 149.08 15.54 146.25 12.59 144.61 8.80 C 142.65 9.07 140.67 9.23 138.70 9.43 M 154.04 19.06 C 155.30 23.03 157.87 26.23 160.55 29.34 C 160.33 30.81 159.79 32.21 159.33 33.62 C 156.48 32.64 153.51 31.88 150.47 32.33 C 149.93 30.65 149.45 28.95 149.10 27.22 C 148.19 26.69 147.27 26.16 146.36 25.65 C 147.00 27.49 147.70 29.32 148.34 31.17 C 142.73 34.87 135.75 33.98 129.97 31.16 C 129.94 30.29 129.88 28.56 129.86 27.69 C 134.37 25.07 139.63 25.43 144.66 25.13 C 139.74 22.25 134.24 23.69 129.51 26.12 C 128.65 28.74 127.85 31.40 126.64 33.88 C 130.53 34.94 134.50 35.65 138.47 36.37 C 138.78 39.96 137.62 43.39 136.30 46.67 C 138.94 45.24 141.07 43.08 141.64 40.05 C 142.23 36.50 145.70 34.47 149.04 34.14 C 155.11 35.03 160.98 36.87 166.97 38.20 C 164.89 36.37 160.92 34.76 162.17 31.31 C 164.50 27.49 169.29 28.63 172.98 28.89 C 169.44 26.38 165.02 26.37 160.89 25.94 C 158.55 25.79 156.32 23.77 157.08 21.28 C 159.19 19.56 161.77 18.59 164.21 17.41 C 160.81 17.96 157.43 18.52 154.04 19.06 M 98.04 20.06 C 99.30 24.03 101.87 27.23 104.56 30.34 C 104.32 31.97 103.66 33.50 103.15 35.06 C 101.14 34.08 99.13 33.09 97.13 32.09 C 96.81 33.01 96.50 33.92 96.18 34.84 C 100.83 37.09 105.89 38.11 110.90 39.21 C 108.47 37.44 106.35 35.28 105.26 32.42 C 108.21 30.73 111.15 29.01 114.11 27.33 C 109.27 27.47 104.27 27.53 100.00 24.92 C 101.53 21.47 104.87 19.73 108.20 18.40 C 104.81 18.96 101.43 19.52 98.04 20.06 M 122.14 22.11 C 120.82 22.80 120.81 23.47 122.11 24.14 C 123.43 23.46 123.44 22.78 122.14 22.11 M 66.14 23.11 C 64.82 23.80 64.81 24.47 66.11 25.14 C 67.43 24.46 67.44 23.78 66.14 23.11 M 178.14 23.11 C 176.82 23.80 176.81 24.47 178.11 25.14 C 179.43 24.46 179.44 23.78 178.14 23.11 M 10.14 24.11 C 8.82 24.80 8.81 25.47 10.11 26.14 C 11.43 25.46 11.44 24.78 10.14 24.11 M 114.62 36.94 C 114.48 37.36 114.34 37.78 114.21 38.20 C 115.46 38.99 116.72 39.76 117.95 40.58 C 121.71 38.66 125.59 36.99 129.38 35.15 C 124.48 35.92 119.62 37.61 114.62 36.94 M 103.28 38.67 C 102.46 40.59 101.61 42.49 100.81 44.42 C 96.08 43.90 91.23 42.69 86.57 44.41 C 90.91 45.26 95.22 46.24 99.50 47.32 C 103.53 47.07 107.49 45.98 111.55 45.90 C 112.60 47.19 113.64 48.49 114.69 49.78 C 115.36 48.27 116.06 46.77 116.77 45.27 C 112.27 45.30 107.79 44.76 103.33 44.27 C 103.34 42.41 103.31 40.54 103.28 38.67 M 152.96 45.14 C 151.57 44.13 150.19 43.14 148.81 42.14 C 148.53 42.99 148.27 43.85 148.00 44.71 C 152.34 46.49 157.04 47.80 161.37 45.18 C 161.04 43.21 160.81 41.22 160.66 39.23 C 158.58 41.77 155.95 43.77 152.96 45.14 M 34.87 42.83 C 33.56 43.80 32.24 44.75 30.89 45.67 C 35.34 45.02 40.11 45.52 43.45 48.84 C 46.99 45.60 52.06 46.68 56.38 46.65 C 52.89 45.88 49.40 45.15 45.94 44.25 C 46.30 42.88 46.66 41.51 47.03 40.13 C 44.12 43.73 38.96 45.59 34.87 42.83 M 163.97 44.23 C 163.65 46.01 167.35 46.01 167.03 44.23 C 166.42 43.17 164.57 43.17 163.97 44.23 M 113.52 51.37 C 116.81 51.92 120.13 52.48 123.45 52.84 C 120.48 50.80 116.94 49.66 113.52 51.37 Z" />
<path fill="#3c6bbe" opacity="1.00" d=" M 154.76 0.00 L 167.38 0.00 C 167.63 0.85 168.15 2.56 168.41 3.41 C 165.12 3.61 161.82 3.79 158.54 3.95 C 157.29 2.62 156.04 1.29 154.76 0.00 Z" />
<path fill="#3c6bbe" opacity="1.00" d=" M 8.41 40.38 C 11.07 38.58 13.84 36.53 17.14 36.22 C 21.19 36.21 24.71 38.53 28.21 40.27 C 25.88 42.41 23.37 44.34 20.73 46.08 C 21.07 47.59 21.41 49.10 21.75 50.61 C 19.72 52.42 17.75 54.27 15.66 56.00 L 0.00 56.00 L 0.00 38.18 C 2.81 39.06 6.31 39.19 8.17 41.82 C 10.24 44.39 12.83 46.47 15.73 48.06 C 13.32 45.47 10.84 42.95 8.41 40.38 M 2.86 47.83 C 3.01 49.95 3.04 52.08 2.92 54.20 C 5.66 54.45 8.40 54.74 11.14 54.98 C 9.00 53.56 6.86 52.13 4.73 50.69 C 5.79 49.35 6.82 48.00 7.85 46.64 C 6.18 47.01 4.52 47.39 2.86 47.83 Z" />
<path fill="#3c6bbe" opacity="1.00" d=" M 16.69 56.00 C 19.71 54.47 22.63 52.18 26.29 52.73 C 28.23 53.55 29.87 54.88 31.63 56.00 L 16.69 56.00 Z" />
</g>
<g id="#407accff">
<path fill="#407acc" opacity="1.00" d=" M 25.56 0.00 L 30.46 0.00 C 38.72 3.21 47.62 5.44 56.45 3.47 L 56.70 4.29 C 56.48 4.72 56.03 5.59 55.81 6.03 C 49.22 7.11 42.50 6.96 36.26 4.35 C 31.84 1.70 28.10 5.49 24.04 6.49 C 21.30 6.60 18.71 5.41 16.19 4.51 C 16.16 4.04 16.09 3.12 16.05 2.66 C 19.97 4.58 24.46 4.50 28.63 3.57 C 27.63 2.37 26.62 1.16 25.56 0.00 Z" />
</g>
<g id="#4179cbff">
<path fill="#4179cb" opacity="1.00" d=" M 85.36 0.00 L 93.89 0.00 C 99.38 3.69 106.06 3.46 112.43 3.55 L 112.66 4.33 C 112.42 4.75 111.95 5.61 111.71 6.04 C 108.58 6.12 105.45 6.02 102.33 5.76 C 98.05 5.64 95.13 1.79 91.04 0.98 C 86.73 0.99 83.73 4.13 80.03 5.65 C 77.46 5.45 75.09 4.27 72.67 3.48 C 77.14 3.42 81.94 3.39 85.36 0.00 Z" />
<path fill="#4179cb" opacity="1.00" d=" M 197.36 0.00 L 205.89 0.00 C 211.27 3.57 217.77 3.47 224.00 3.67 L 224.00 6.56 C 220.79 6.13 217.56 6.00 214.34 5.69 C 210.06 5.60 207.11 1.82 203.04 0.98 C 198.73 0.99 195.73 4.13 192.03 5.65 C 189.46 5.45 187.09 4.27 184.67 3.48 C 189.14 3.42 193.94 3.39 197.36 0.00 Z" />
<path fill="#4179cb" opacity="1.00" d=" M 130.96 47.37 C 131.83 46.76 132.69 46.15 133.54 45.51 C 138.89 49.26 145.12 51.64 150.07 56.00 L 139.89 56.00 C 139.26 55.61 137.98 54.83 137.34 54.44 C 139.42 54.06 143.57 53.32 145.64 52.94 C 140.09 49.98 133.60 50.71 128.11 53.44 C 130.03 51.77 131.95 50.11 133.87 48.43 C 133.15 48.17 131.69 47.63 130.96 47.37 Z" />
</g>
<g id="#3c6abefe">
<path fill="#3c6abe" opacity="1.00" d=" M 93.89 0.00 L 111.35 0.00 C 111.62 0.89 112.16 2.66 112.43 3.55 C 106.06 3.46 99.38 3.69 93.89 0.00 Z" />
<path fill="#3c6abe" opacity="1.00" d=" M 205.89 0.00 L 224.00 0.00 L 224.00 3.67 C 217.77 3.47 211.27 3.57 205.89 0.00 Z" />
</g>
<g id="#332e2aff">
<path fill="#332e2a" opacity="1.00" d=" M 122.38 0.00 L 124.93 0.00 C 124.90 0.56 124.85 1.69 124.82 2.26 C 124.32 5.74 123.70 9.21 123.60 12.74 C 124.29 10.44 124.97 8.14 125.44 5.78 C 125.66 7.05 126.10 9.57 126.32 10.84 C 125.75 12.40 125.05 13.92 124.31 15.41 C 124.06 15.74 123.56 16.41 123.31 16.75 C 122.37 14.21 121.47 11.66 120.59 9.10 C 119.99 9.20 118.79 9.40 118.19 9.51 C 118.80 12.94 119.43 16.38 120.02 19.82 C 119.46 20.25 118.34 21.11 117.78 21.54 C 117.56 20.94 117.11 19.72 116.89 19.11 C 117.27 17.51 115.37 16.59 114.32 17.83 L 113.97 17.98 C 113.67 18.09 113.07 18.32 112.77 18.44 C 112.56 16.39 112.37 14.34 112.19 12.29 C 112.13 11.60 112.00 10.22 111.94 9.53 C 111.90 9.16 111.83 8.42 111.79 8.05 L 112.46 8.11 C 112.74 8.13 113.31 8.17 113.59 8.18 C 115.91 8.26 118.33 8.32 120.53 7.45 C 121.31 5.66 121.51 3.69 121.95 1.80 C 122.06 1.35 122.27 0.45 122.38 0.00 M 115.97 11.49 C 116.76 14.21 117.84 16.83 119.10 19.37 C 118.63 16.52 117.44 13.92 115.97 11.49 Z" />
</g>
<g id="#268dd8ff">
<path fill="#268dd8" opacity="1.00" d=" M 124.93 0.00 L 126.20 0.00 C 129.67 7.73 128.05 16.22 124.45 23.60 C 124.49 22.80 124.57 21.21 124.60 20.41 C 124.78 18.15 125.18 15.92 125.57 13.69 C 125.26 14.12 124.63 14.98 124.31 15.41 C 125.05 13.92 125.75 12.40 126.32 10.84 C 126.10 9.57 125.66 7.05 125.44 5.78 C 125.23 4.61 125.03 3.43 124.82 2.26 C 124.85 1.69 124.90 0.56 124.93 0.00 Z" />
</g>
<g id="#4476cbff">
<path fill="#4476cb" opacity="1.00" d=" M 138.34 0.00 L 141.38 0.00 C 139.81 1.67 138.45 3.59 136.60 4.97 C 133.80 4.62 131.25 3.27 128.64 2.29 C 131.09 2.15 133.53 2.19 135.98 2.19 C 136.57 1.65 137.75 0.55 138.34 0.00 Z" />
</g>
<g id="#4079ccff">
<path fill="#4079cc" opacity="1.00" d=" M 151.46 0.00 L 154.76 0.00 C 156.04 1.29 157.29 2.62 158.54 3.95 C 161.82 3.79 165.12 3.61 168.41 3.41 L 168.67 4.31 C 168.44 4.76 168.00 5.65 167.78 6.10 C 163.83 6.16 159.88 5.80 156.00 5.13 C 153.90 4.10 152.82 1.79 151.46 0.00 Z" />
</g>
<g id="#86a0b1ff">
<path fill="#86a0b1" opacity="1.00" d=" M 16.19 4.51 C 13.93 4.59 13.42 1.89 15.29 0.85 C 15.48 1.30 15.86 2.21 16.05 2.66 C 16.09 3.12 16.16 4.04 16.19 4.51 Z" />
</g>
<g id="#709e5cff">
<path fill="#709e5c" opacity="1.00" d=" M 1.62 7.97 C 3.45 4.89 6.37 2.86 9.74 1.77 C 9.39 3.85 9.21 5.94 9.04 8.04 C 6.56 8.07 4.09 8.09 1.62 7.97 Z" />
<path fill="#709e5c" opacity="1.00" d=" M 57.59 8.08 C 59.38 4.93 62.34 2.85 65.75 1.76 C 65.34 3.82 65.18 5.91 65.07 8.01 C 62.57 8.04 60.08 8.12 57.59 8.08 Z" />
<path fill="#709e5c" opacity="1.00" d=" M 113.59 8.18 C 115.31 4.86 118.40 2.77 121.95 1.80 C 121.51 3.69 121.31 5.66 120.53 7.45 C 118.33 8.32 115.91 8.26 113.59 8.18 Z" />
<path fill="#709e5c" opacity="1.00" d=" M 169.59 8.20 C 171.30 4.87 174.39 2.77 177.95 1.81 C 177.51 3.70 177.30 5.66 176.53 7.45 C 174.32 8.30 171.91 8.26 169.59 8.20 Z" />
</g>
<g id="#7392b4ff">
<path fill="#7392b4" opacity="1.00" d=" M 72.28 4.86 C 70.27 5.11 70.29 2.60 71.14 1.43 C 72.05 2.42 72.43 3.57 72.28 4.86 Z" />
<path fill="#7392b4" opacity="1.00" d=" M 184.29 4.86 C 182.28 5.10 182.29 2.60 183.16 1.43 C 184.06 2.42 184.43 3.57 184.29 4.86 Z" />
</g>
<g id="#645a4bff">
<path fill="#645a4b" opacity="1.00" d=" M 11.60 12.76 C 11.67 9.22 12.44 5.75 13.02 2.27 C 13.13 3.45 13.23 4.63 13.32 5.81 C 12.93 8.17 12.26 10.47 11.60 12.76 Z" />
<path fill="#645a4b" opacity="1.00" d=" M 67.59 12.76 C 67.68 9.21 68.43 5.74 69.01 2.25 C 69.14 3.44 69.25 4.62 69.35 5.80 C 68.95 8.16 68.27 10.46 67.59 12.76 Z" />
<path fill="#645a4b" opacity="1.00" d=" M 123.60 12.74 C 123.70 9.21 124.32 5.74 124.82 2.26 C 125.03 3.43 125.23 4.61 125.44 5.78 C 124.97 8.14 124.29 10.44 123.60 12.74 Z" />
<path fill="#645a4b" opacity="1.00" d=" M 179.59 12.75 C 179.68 9.21 180.42 5.74 181.01 2.25 C 181.13 3.43 181.25 4.62 181.35 5.80 C 180.95 8.16 180.27 10.46 179.59 12.75 Z" />
</g>
<g id="#5c8260ff">
<path fill="#5c8260" opacity="1.00" d=" M 0.00 4.28 C 1.30 4.95 2.24 6.89 0.72 7.90 L 0.00 7.83 L 0.00 4.28 Z" />
<path fill="#5c8260" opacity="1.00" d=" M 56.70 4.29 C 57.26 5.46 57.76 7.09 56.53 8.06 L 55.85 8.02 C 55.84 7.52 55.82 6.53 55.81 6.03 C 56.03 5.59 56.48 4.72 56.70 4.29 Z" />
<path fill="#5c8260" opacity="1.00" d=" M 112.66 4.33 C 113.16 5.52 113.63 7.12 112.46 8.11 L 111.79 8.05 C 111.77 7.55 111.73 6.54 111.71 6.04 C 111.95 5.61 112.42 4.75 112.66 4.33 Z" />
<path fill="#5c8260" opacity="1.00" d=" M 168.67 4.31 C 169.21 5.51 169.71 7.13 168.53 8.15 L 167.87 8.10 C 167.84 7.60 167.80 6.60 167.78 6.10 C 168.00 5.65 168.44 4.76 168.67 4.31 Z" />
</g>
<g id="#4377caff">
<path fill="#4377ca" opacity="1.00" d=" M 138.70 9.43 C 140.67 9.23 142.65 9.07 144.61 8.80 C 146.25 12.59 149.08 15.54 153.08 16.79 C 150.07 16.59 147.06 16.50 144.05 16.61 C 144.72 15.32 145.39 14.02 146.05 12.73 C 143.56 11.71 141.11 10.61 138.70 9.43 Z" />
</g>
<g id="#3f7bccff">
<path fill="#3f7bcc" opacity="1.00" d=" M 152.42 13.64 C 156.34 9.11 162.50 9.37 167.95 8.96 C 167.99 9.58 168.07 10.82 168.11 11.44 C 162.85 11.97 157.66 12.96 152.42 13.64 Z" />
</g>
<g id="#6c604cff">
<path fill="#6c604c" opacity="1.00" d=" M 6.24 9.49 C 6.94 9.35 8.35 9.09 9.05 8.95 C 9.67 12.64 10.24 16.33 10.54 20.06 L 9.75 20.66 C 9.33 20.97 8.50 21.59 8.08 21.90 C 7.53 17.75 6.88 13.62 6.24 9.49 Z" />
<path fill="#6c604c" opacity="1.00" d=" M 62.04 9.53 C 62.79 9.39 64.29 9.09 65.04 8.94 C 65.74 12.76 66.51 16.59 66.68 20.48 L 66.36 21.37 C 65.92 21.21 65.02 20.88 64.57 20.71 C 63.58 17.02 62.85 13.27 62.04 9.53 Z" />
<path fill="#6c604c" opacity="1.00" d=" M 174.06 9.53 C 174.80 9.38 176.30 9.09 177.05 8.94 C 177.76 12.78 178.50 16.63 178.65 20.54 L 178.33 21.46 C 177.88 21.29 176.99 20.95 176.54 20.78 C 175.55 17.07 174.84 13.29 174.06 9.53 Z" />
</g>
<g id="#427bcbff">
<path fill="#427bcb" opacity="1.00" d=" M 101.55 10.57 C 104.86 9.45 108.48 9.78 111.94 9.53 C 112.00 10.22 112.13 11.60 112.19 12.29 C 106.68 12.81 101.35 14.37 95.93 15.38 C 97.76 13.74 99.38 11.79 101.55 10.57 Z" />
<path fill="#427bcb" opacity="1.00" d=" M 211.42 12.08 C 214.66 8.82 219.79 9.91 224.00 9.31 L 224.00 11.89 C 218.49 12.25 213.47 14.90 207.99 15.50 C 209.13 14.36 210.24 13.18 211.42 12.08 Z" />
</g>
<g id="#6c5f4bff">
<path fill="#6c5f4b" opacity="1.00" d=" M 118.19 9.51 C 118.79 9.40 119.99 9.20 120.59 9.10 C 121.47 11.66 122.37 14.21 123.31 16.75 C 122.30 17.86 121.20 18.88 120.02 19.82 C 119.43 16.38 118.80 12.94 118.19 9.51 Z" />
</g>
<g id="#437cccff">
<path fill="#437ccc" opacity="1.00" d=" M 43.68 10.37 C 47.77 10.54 51.87 10.64 55.97 10.80 C 55.96 11.44 55.95 12.74 55.94 13.39 C 50.53 14.26 45.23 15.67 39.80 16.41 C 41.33 15.45 42.87 14.51 44.42 13.58 C 44.17 12.51 43.92 11.44 43.68 10.37 Z" />
</g>
<g id="#565249ff">
<path fill="#565249" opacity="1.00" d=" M 3.97 11.49 C 5.43 13.92 6.64 16.52 7.10 19.37 C 5.84 16.83 4.77 14.21 3.97 11.49 Z" />
<path fill="#565249" opacity="1.00" d=" M 59.97 11.49 C 61.43 13.92 62.63 16.52 63.10 19.37 C 61.84 16.83 60.76 14.21 59.97 11.49 Z" />
<path fill="#565249" opacity="1.00" d=" M 115.97 11.49 C 117.44 13.92 118.63 16.52 119.10 19.37 C 117.84 16.83 116.76 14.21 115.97 11.49 Z" />
<path fill="#565249" opacity="1.00" d=" M 171.97 11.49 C 173.44 13.92 174.62 16.52 175.10 19.37 C 173.84 16.83 172.76 14.21 171.97 11.49 Z" />
<path fill="#565249" opacity="1.00" d=" M 2.43 18.95 C 3.91 16.31 6.14 19.41 4.42 21.06 C 4.07 20.98 3.37 20.82 3.02 20.74 C 2.87 20.29 2.58 19.39 2.43 18.95 Z" />
<path fill="#565249" opacity="1.00" d=" M 58.94 19.45 C 57.95 16.63 61.20 17.42 60.99 19.69 C 60.64 19.77 59.92 19.94 59.57 20.02 L 58.94 19.45 Z" />
<path fill="#565249" opacity="1.00" d=" M 170.82 19.41 C 169.92 16.61 173.12 17.41 172.98 19.63 C 172.62 19.70 171.90 19.84 171.54 19.92 L 170.82 19.41 Z" />
</g>
<g id="#709fc2fe">
<path fill="#709fc2" opacity="1.00" d=" M 12.17 18.54 C 12.54 17.02 12.96 14.27 15.01 14.42 C 15.05 14.96 15.12 16.03 15.16 16.57 C 14.21 17.44 13.13 18.14 12.08 18.89 L 12.17 18.54 Z" />
</g>
<g id="#7ca2beff">
<path fill="#7ca2be" opacity="1.00" d=" M 67.94 17.19 C 68.88 16.02 70.10 15.12 71.47 14.53 C 71.43 15.09 71.35 16.22 71.30 16.79 C 70.24 17.48 69.08 17.75 67.80 17.60 L 67.94 17.19 Z" />
<path fill="#7ca2be" opacity="1.00" d=" M 179.93 17.20 C 180.86 16.03 182.05 15.09 183.42 14.49 C 183.38 15.06 183.31 16.20 183.27 16.78 C 182.22 17.48 181.06 17.76 179.79 17.61 L 179.93 17.20 Z" />
</g>
<g id="#7fa1b9ff">
<path fill="#7fa1b9" opacity="1.00" d=" M 124.31 15.41 C 124.63 14.98 125.26 14.12 125.57 13.69 C 125.18 15.92 124.78 18.15 124.60 20.41 C 122.58 20.82 120.55 21.23 118.53 21.64 L 117.34 21.89 L 117.78 21.54 C 118.34 21.11 119.46 20.25 120.02 19.82 C 121.20 18.88 122.30 17.86 123.31 16.75 C 123.56 16.41 124.06 15.74 124.31 15.41 Z" />
</g>
<g id="#4379caff">
<path fill="#4379ca" opacity="1.00" d=" M 22.04 19.57 C 28.52 18.74 35.31 16.33 41.31 20.21 C 36.67 20.26 32.04 20.98 27.72 22.73 C 28.36 24.17 29.01 25.61 29.68 27.04 C 25.29 27.15 20.97 28.67 18.72 32.70 C 22.51 34.24 26.81 37.09 30.96 35.02 C 34.18 33.93 33.19 30.08 33.32 27.49 C 35.00 30.38 36.63 33.30 38.53 36.05 C 36.44 36.39 34.35 36.73 32.27 37.07 C 30.31 41.51 27.31 45.33 24.58 49.29 C 27.10 51.66 29.92 53.71 32.54 56.00 L 31.63 56.00 C 29.87 54.88 28.23 53.55 26.29 52.73 C 22.63 52.18 19.71 54.47 16.69 56.00 L 15.66 56.00 C 17.75 54.27 19.72 52.42 21.75 50.61 C 21.41 49.10 21.07 47.59 20.73 46.08 C 23.37 44.34 25.88 42.41 28.21 40.27 C 24.71 38.53 21.19 36.21 17.14 36.22 C 13.84 36.53 11.07 38.58 8.41 40.38 C 10.84 42.95 13.32 45.47 15.73 48.06 C 12.83 46.47 10.24 44.39 8.17 41.82 C 6.31 39.19 2.81 39.06 0.00 38.18 L 0.00 37.83 C 6.37 36.88 13.53 36.95 18.84 32.91 C 18.43 31.06 17.62 29.34 16.84 27.63 C 20.35 27.16 23.82 26.43 27.23 25.44 C 27.13 24.61 26.92 22.94 26.82 22.11 C 25.22 21.27 23.63 20.41 22.04 19.57 Z" />
<path fill="#4379ca" opacity="1.00" d=" M 98.04 20.06 C 101.43 19.52 104.81 18.96 108.20 18.40 C 104.87 19.73 101.53 21.47 100.00 24.92 C 104.27 27.53 109.27 27.47 114.11 27.33 C 111.15 29.01 108.21 30.73 105.26 32.42 C 106.35 35.28 108.47 37.44 110.90 39.21 C 105.89 38.11 100.83 37.09 96.18 34.84 C 96.50 33.92 96.81 33.01 97.13 32.09 C 99.13 33.09 101.14 34.08 103.15 35.06 C 103.66 33.50 104.32 31.97 104.56 30.34 C 101.87 27.23 99.30 24.03 98.04 20.06 Z" />
<path fill="#4379ca" opacity="1.00" d=" M 209.90 20.27 C 213.36 19.56 216.81 18.82 220.28 18.12 C 217.48 19.65 214.69 21.17 211.92 22.73 C 214.51 26.92 219.30 27.99 224.00 27.70 L 224.00 27.90 C 222.06 29.97 217.88 31.28 218.17 34.61 C 219.42 36.44 221.15 37.87 222.74 39.39 C 217.83 38.13 212.92 36.85 208.22 34.94 C 208.49 34.02 208.76 33.11 209.03 32.19 C 211.28 33.17 213.53 34.16 215.80 35.11 C 217.20 29.33 212.23 25.07 209.90 20.27 Z" />
<path fill="#4379ca" opacity="1.00" d=" M 114.62 36.94 C 119.62 37.61 124.48 35.92 129.38 35.15 C 125.59 36.99 121.71 38.66 117.95 40.58 C 116.72 39.76 115.46 38.99 114.21 38.20 C 114.34 37.78 114.48 37.36 114.62 36.94 Z" />
</g>
<g id="#2a8ad7ff">
<path fill="#2a8ad7" opacity="1.00" d=" M 12.08 18.89 C 13.13 18.14 14.21 17.44 15.16 16.57 C 15.24 19.66 15.26 22.75 15.19 25.84 C 14.14 24.93 13.11 24.00 12.10 23.05 C 13.36 22.97 13.95 22.35 13.89 21.19 C 13.08 19.71 11.42 21.44 11.62 22.59 L 11.29 22.26 C 10.91 21.86 10.13 21.06 9.75 20.66 L 10.54 20.06 C 10.93 19.76 11.69 19.18 12.08 18.89 Z" />
</g>
<g id="#427acbff">
<path fill="#427acb" opacity="1.00" d=" M 41.94 21.33 C 46.53 20.03 51.11 18.69 55.72 17.44 C 56.59 18.01 57.47 18.57 58.35 19.11 C 56.38 20.45 57.83 22.85 59.76 23.21 C 54.63 20.77 48.75 20.04 43.66 23.01 C 45.35 24.87 46.61 28.13 49.57 28.07 C 53.35 27.96 57.08 27.30 60.83 26.83 C 60.53 27.40 60.24 27.98 59.95 28.55 C 56.45 29.71 52.96 31.10 49.91 33.20 C 49.67 36.47 52.76 38.32 54.72 40.40 C 49.82 39.12 44.92 37.85 40.22 35.94 C 40.49 35.02 40.76 34.11 41.03 33.19 C 43.28 34.17 45.53 35.15 47.79 36.11 C 49.21 30.34 44.26 26.11 41.94 21.33 Z" />
<path fill="#427acb" opacity="1.00" d=" M 2.86 47.83 C 4.52 47.39 6.18 47.01 7.85 46.64 C 6.82 48.00 5.79 49.35 4.73 50.69 C 6.86 52.13 9.00 53.56 11.14 54.98 C 8.40 54.74 5.66 54.45 2.92 54.20 C 3.04 52.08 3.01 49.95 2.86 47.83 Z" />
</g>
<g id="#3893d8ff">
<path fill="#3893d8" opacity="1.00" d=" M 67.80 17.60 C 69.08 17.75 70.24 17.48 71.30 16.79 C 71.27 18.73 71.36 20.68 71.47 22.63 C 70.81 22.99 70.15 23.36 69.48 23.73 C 68.56 23.04 67.64 22.36 66.73 21.66 L 66.36 21.37 L 66.68 20.48 C 67.06 19.52 67.43 18.56 67.80 17.60 Z" />
<path fill="#3893d8" opacity="1.00" d=" M 179.79 17.61 C 181.06 17.76 182.22 17.48 183.27 16.78 C 183.27 19.03 183.43 21.28 183.56 23.53 C 181.90 23.07 180.28 22.47 178.75 21.68 L 178.33 21.46 L 178.65 20.54 C 179.03 19.56 179.41 18.58 179.79 17.61 Z" />
</g>
<g id="#4279cafe">
<path fill="#4279ca" opacity="1.00" d=" M 78.20 16.94 C 82.33 17.82 86.58 18.07 90.73 17.20 C 87.80 19.40 85.27 22.41 85.87 26.31 C 80.80 25.72 76.00 27.51 73.46 31.99 C 79.09 34.23 85.50 35.26 91.13 32.56 C 90.61 30.48 90.10 28.39 89.63 26.29 C 91.39 28.69 92.87 31.28 94.38 33.84 C 87.14 36.29 83.61 43.27 79.18 48.84 C 83.85 51.31 88.42 53.98 93.31 56.00 L 83.33 56.00 C 84.80 55.51 86.27 55.01 87.73 54.48 C 85.28 53.30 82.90 51.51 80.09 51.45 C 77.26 51.93 74.74 53.45 72.14 54.58 C 74.00 52.84 75.89 51.14 77.76 49.41 C 77.18 49.25 76.01 48.93 75.43 48.77 C 78.90 45.48 81.41 41.37 82.98 36.86 C 76.20 34.60 69.35 36.46 63.22 39.47 C 65.26 42.09 67.45 44.58 69.61 47.10 C 65.59 45.18 62.63 41.84 60.12 38.25 C 63.73 37.09 67.42 36.14 70.92 34.70 C 73.75 33.49 73.25 29.79 74.15 27.26 C 77.83 25.98 81.53 24.72 85.19 23.36 C 83.22 20.85 80.78 18.79 78.20 16.94 Z" />
</g>
<g id="#4a463eff">
<path fill="#4a463e" opacity="1.00" d=" M 114.32 17.83 C 115.37 16.59 117.27 17.51 116.89 19.11 C 116.24 18.79 114.96 18.15 114.32 17.83 Z" />
</g>
<g id="#437acaff">
<path fill="#437aca" opacity="1.00" d=" M 154.04 19.06 C 157.43 18.52 160.81 17.96 164.21 17.41 C 161.77 18.59 159.19 19.56 157.08 21.28 C 156.32 23.77 158.55 25.79 160.89 25.94 C 165.02 26.37 169.44 26.38 172.98 28.89 C 169.29 28.63 164.50 27.49 162.17 31.31 C 160.92 34.76 164.89 36.37 166.97 38.20 C 160.98 36.87 155.11 35.03 149.04 34.14 C 145.70 34.47 142.23 36.50 141.64 40.05 C 141.07 43.08 138.94 45.24 136.30 46.67 C 137.62 43.39 138.78 39.96 138.47 36.37 C 134.50 35.65 130.53 34.94 126.64 33.88 C 127.85 31.40 128.65 28.74 129.51 26.12 C 134.24 23.69 139.74 22.25 144.66 25.13 C 139.63 25.43 134.37 25.07 129.86 27.69 C 129.88 28.56 129.94 30.29 129.97 31.16 C 135.75 33.98 142.73 34.87 148.34 31.17 C 147.70 29.32 147.00 27.49 146.36 25.65 C 147.27 26.16 148.19 26.69 149.10 27.22 C 149.45 28.95 149.93 30.65 150.47 32.33 C 153.51 31.88 156.48 32.64 159.33 33.62 C 159.79 32.21 160.33 30.81 160.55 29.34 C 157.87 26.23 155.30 23.03 154.04 19.06 Z" />
</g>
<g id="#4279cbfe">
<path fill="#4279cb" opacity="1.00" d=" M 190.20 16.94 C 194.33 17.82 198.58 18.07 202.73 17.20 C 199.80 19.40 197.27 22.41 197.87 26.31 C 192.89 25.77 188.12 27.44 185.55 31.80 C 188.33 32.87 190.97 34.48 193.90 35.19 C 197.16 35.25 200.12 33.58 203.07 32.38 C 202.66 30.32 202.27 28.25 201.95 26.18 C 203.56 28.65 204.88 31.29 206.32 33.87 C 199.11 36.33 195.59 43.29 191.18 48.84 C 195.85 51.31 200.41 53.98 205.30 56.00 L 195.32 56.00 C 196.80 55.51 198.26 55.01 199.73 54.48 C 197.28 53.30 194.90 51.51 192.09 51.45 C 189.26 51.93 186.74 53.45 184.14 54.58 C 186.00 52.84 187.89 51.14 189.76 49.41 C 189.18 49.25 188.01 48.93 187.43 48.77 C 190.90 45.48 193.41 41.37 194.98 36.86 C 188.20 34.60 181.35 36.46 175.22 39.47 C 177.26 42.09 179.45 44.58 181.61 47.10 C 177.59 45.18 174.63 41.84 172.12 38.25 C 175.73 37.09 179.41 36.14 182.92 34.70 C 185.75 33.49 185.24 29.79 186.15 27.26 C 189.83 25.98 193.53 24.72 197.19 23.36 C 195.22 20.85 192.78 18.79 190.20 16.94 Z" />
</g>
<g id="#9cb3c7fe">
<path fill="#9cb3c7" opacity="1.00" d=" M 112.77 18.44 C 113.07 18.32 113.67 18.09 113.97 17.98 C 114.92 19.24 115.48 20.74 116.11 22.18 L 115.67 22.31 C 114.07 21.66 112.65 20.28 112.77 18.44 Z" />
<path fill="#9cb3c7" opacity="1.00" d=" M 58.35 19.11 L 58.94 19.45 L 59.57 20.02 C 59.61 21.05 59.82 22.04 60.22 23.00 L 59.76 23.21 C 57.83 22.85 56.38 20.45 58.35 19.11 Z" />
<path fill="#9cb3c7" opacity="1.00" d=" M 170.08 19.27 L 170.82 19.41 L 171.54 19.92 C 171.71 20.94 171.95 21.94 172.29 22.92 L 171.76 23.11 C 170.72 22.69 169.81 22.09 169.03 21.30 C 169.30 20.79 169.82 19.78 170.08 19.27 Z" />
</g>
<g id="#5688bafe">
<path fill="#5688ba" opacity="1.00" d=" M 113.97 17.98 L 114.32 17.83 C 114.96 18.15 116.24 18.79 116.89 19.11 C 117.11 19.72 117.56 20.94 117.78 21.54 L 117.34 21.89 C 117.03 21.97 116.41 22.11 116.11 22.18 C 115.48 20.74 114.92 19.24 113.97 17.98 Z" />
</g>
<g id="#9eb5caff">
<path fill="#9eb5ca" opacity="1.00" d=" M 1.01 20.39 C 1.36 20.03 2.08 19.31 2.43 18.95 C 2.58 19.39 2.87 20.29 3.02 20.74 C 3.35 21.73 3.73 22.70 4.18 23.64 L 3.55 23.35 C 2.65 22.41 1.83 21.40 1.01 20.39 Z" />
</g>
<g id="#268ed9ff">
<path fill="#268ed9" opacity="1.00" d=" M 168.21 19.19 C 168.68 19.21 169.61 19.25 170.08 19.27 C 169.82 19.78 169.30 20.79 169.03 21.30 C 168.83 20.77 168.41 19.72 168.21 19.19 Z" />
</g>
<g id="#3c76c7ff">
<path fill="#3c76c7" opacity="1.00" d=" M 0.00 21.46 C 0.25 21.19 0.75 20.66 1.01 20.39 C 1.83 21.40 2.65 22.41 3.55 23.35 C 2.72 24.15 1.89 24.95 1.06 25.75 C 2.87 26.16 4.68 26.57 6.48 27.00 C 7.39 27.22 8.29 27.44 9.19 27.66 C 6.17 28.86 3.12 30.00 0.00 30.94 L 0.00 21.46 Z" />
</g>
<g id="#adc2d9ff">
<path fill="#adc2d9" opacity="1.00" d=" M 11.62 22.59 C 11.42 21.44 13.08 19.71 13.89 21.19 C 13.95 22.35 13.36 22.97 12.10 23.05 L 11.62 22.59 Z" />
</g>
<g id="#4f7baeff">
<path fill="#4f7bae" opacity="1.00" d=" M 59.57 20.02 C 59.92 19.94 60.64 19.77 60.99 19.69 C 61.19 20.21 61.58 21.26 61.77 21.79 L 61.53 22.41 C 61.21 22.56 60.55 22.85 60.22 23.00 C 59.82 22.04 59.61 21.05 59.57 20.02 Z" />
<path fill="#4f7bae" opacity="1.00" d=" M 171.54 19.92 C 171.90 19.84 172.62 19.70 172.98 19.63 C 173.19 20.20 173.60 21.35 173.81 21.92 L 173.59 22.54 C 173.27 22.64 172.61 22.82 172.29 22.92 C 171.95 21.94 171.71 20.94 171.54 19.92 Z" />
<path fill="#4f7bae" opacity="1.00" d=" M 3.02 20.74 C 3.37 20.82 4.07 20.98 4.42 21.06 C 4.83 21.66 5.65 22.85 6.06 23.44 L 5.62 23.81 C 5.26 23.76 4.54 23.68 4.18 23.64 C 3.73 22.70 3.35 21.73 3.02 20.74 Z" />
</g>
<g id="#8ea7b9ff">
<path fill="#8ea7b9" opacity="1.00" d=" M 8.08 21.90 C 8.50 21.59 9.33 20.97 9.75 20.66 C 10.13 21.06 10.91 21.86 11.29 22.26 C 9.81 22.73 8.33 23.19 6.83 23.58 L 5.62 23.81 L 6.06 23.44 C 6.57 23.06 7.58 22.29 8.08 21.90 Z" />
</g>
<g id="#8ba4b6fe">
<path fill="#8ba4b6" opacity="1.00" d=" M 61.77 21.79 C 62.47 21.52 63.87 20.98 64.57 20.71 C 65.02 20.88 65.92 21.21 66.36 21.37 L 66.73 21.66 C 65.27 22.41 63.67 23.09 61.98 22.91 L 61.53 22.41 L 61.77 21.79 Z" />
<path fill="#8ba4b6" opacity="1.00" d=" M 173.81 21.92 C 174.50 21.63 175.86 21.06 176.54 20.78 C 176.99 20.95 177.88 21.29 178.33 21.46 L 178.75 21.68 C 177.34 22.52 175.75 23.22 174.06 23.03 L 173.59 22.54 L 173.81 21.92 Z" />
</g>
<g id="#65569cff">
<path fill="#65569c" opacity="1.00" d=" M 115.67 22.31 L 116.11 22.18 C 116.41 22.11 117.03 21.97 117.34 21.89 L 118.53 21.64 C 118.77 22.20 119.27 23.31 119.51 23.87 C 118.94 24.37 118.38 24.88 117.81 25.40 C 116.11 24.69 114.41 24.00 112.70 23.31 C 113.69 22.96 114.68 22.63 115.67 22.31 Z" />
<path fill="#65569c" opacity="1.00" d=" M 122.14 22.11 C 123.44 22.78 123.43 23.46 122.11 24.14 C 120.81 23.47 120.82 22.80 122.14 22.11 Z" />
<path fill="#65569c" opacity="1.00" d=" M 59.76 23.21 L 60.22 23.00 C 60.55 22.85 61.21 22.56 61.53 22.41 L 61.98 22.91 C 62.53 23.52 63.63 24.73 64.18 25.34 C 61.65 25.22 59.12 25.03 56.60 24.81 C 57.65 24.27 58.70 23.74 59.76 23.21 Z" />
<path fill="#65569c" opacity="1.00" d=" M 66.14 23.11 C 67.44 23.78 67.43 24.46 66.11 25.14 C 64.81 24.47 64.82 23.80 66.14 23.11 Z" />
<path fill="#65569c" opacity="1.00" d=" M 171.76 23.11 L 172.29 22.92 C 172.61 22.82 173.27 22.64 173.59 22.54 L 174.06 23.03 C 174.25 23.29 174.62 23.80 174.81 24.05 C 174.80 24.96 174.75 25.86 174.71 26.76 C 172.71 25.96 170.70 25.15 168.70 24.35 C 169.71 23.93 170.73 23.51 171.76 23.11 Z" />
<path fill="#65569c" opacity="1.00" d=" M 178.14 23.11 C 179.44 23.78 179.43 24.46 178.11 25.14 C 176.81 24.47 176.82 23.80 178.14 23.11 Z" />
<path fill="#65569c" opacity="1.00" d=" M 3.55 23.35 L 4.18 23.64 C 4.54 23.68 5.26 23.76 5.62 23.81 L 6.83 23.58 C 6.72 24.72 6.60 25.86 6.48 27.00 C 4.68 26.57 2.87 26.16 1.06 25.75 C 1.89 24.95 2.72 24.15 3.55 23.35 Z" />
<path fill="#65569c" opacity="1.00" d=" M 10.14 24.11 C 11.44 24.78 11.43 25.46 10.11 26.14 C 8.81 25.47 8.82 24.80 10.14 24.11 Z" />
</g>
<g id="#4278cbff">
<path fill="#4278cb" opacity="1.00" d=" M 103.28 38.67 C 103.31 40.54 103.34 42.41 103.33 44.27 C 107.79 44.76 112.27 45.30 116.77 45.27 C 116.06 46.77 115.36 48.27 114.69 49.78 C 113.64 48.49 112.60 47.19 111.55 45.90 C 107.49 45.98 103.53 47.07 99.50 47.32 C 95.22 46.24 90.91 45.26 86.57 44.41 C 91.23 42.69 96.08 43.90 100.81 44.42 C 101.61 42.49 102.46 40.59 103.28 38.67 Z" />
</g>
<g id="#4279cbff">
<path fill="#4279cb" opacity="1.00" d=" M 152.96 45.14 C 155.95 43.77 158.58 41.77 160.66 39.23 C 160.81 41.22 161.04 43.21 161.37 45.18 C 157.04 47.80 152.34 46.49 148.00 44.71 C 148.27 43.85 148.53 42.99 148.81 42.14 C 150.19 43.14 151.57 44.13 152.96 45.14 Z" />
</g>
<g id="#4378cbff">
<path fill="#4378cb" opacity="1.00" d=" M 34.87 42.83 C 38.96 45.59 44.12 43.73 47.03 40.13 C 46.66 41.51 46.30 42.88 45.94 44.25 C 49.40 45.15 52.89 45.88 56.38 46.65 C 52.06 46.68 46.99 45.60 43.45 48.84 C 40.11 45.52 35.34 45.02 30.89 45.67 C 32.24 44.75 33.56 43.80 34.87 42.83 Z" />
</g>
<g id="#4379cbff">
<path fill="#4379cb" opacity="1.00" d=" M 198.57 44.18 C 207.02 42.59 215.54 44.76 224.00 45.13 L 224.00 45.89 C 218.94 46.18 213.73 47.94 208.67 46.67 C 205.27 45.95 201.89 45.18 198.57 44.18 Z" />
</g>
<g id="#4575cbff">
<path fill="#4575cb" opacity="1.00" d=" M 163.97 44.23 C 164.57 43.17 166.42 43.17 167.03 44.23 C 167.35 46.01 163.65 46.01 163.97 44.23 Z" />
</g>
<g id="#4279caff">
<path fill="#4279ca" opacity="1.00" d=" M 113.52 51.37 C 116.94 49.66 120.48 50.80 123.45 52.84 C 120.13 52.48 116.81 51.92 113.52 51.37 Z" />
</g>
</svg>
