<?xml version="1.0" encoding="UTF-8" ?>
<!DOCTYPE svg PUBLIC "-//W3C//DTD SVG 1.1//EN" "http://www.w3.org/Graphics/SVG/1.1/DTD/svg11.dtd">
<svg width="224pt" height="56pt" viewBox="0 0 224 56" version="1.1" xmlns="http://www.w3.org/2000/svg">
<g id="#91bc69ff">
<path fill="#91bc69" opacity="1.00" d=" M 0.00 0.00 L 0.81 0.00 C 1.73 1.21 1.46 2.12 0.00 2.72 L 0.00 0.00 Z" />
<path fill="#91bc69" opacity="1.00" d=" M 55.15 0.00 L 56.85 0.00 C 59.10 3.47 52.89 3.47 55.15 0.00 Z" />
<path fill="#91bc69" opacity="1.00" d=" M 111.15 0.00 L 112.85 0.00 C 115.10 3.47 108.89 3.47 111.15 0.00 Z" />
<path fill="#91bc69" opacity="1.00" d=" M 167.15 0.00 L 168.85 0.00 C 171.10 3.47 164.89 3.47 167.15 0.00 Z" />
<path fill="#91bc69" opacity="1.00" d=" M 223.19 0.00 L 224.00 0.00 L 224.00 2.72 C 222.54 2.12 222.27 1.21 223.19 0.00 Z" />
</g>
<g id="#6d9a59fe">
<path fill="#6d9a59" opacity="1.00" d=" M 0.81 0.00 L 6.86 0.00 C 6.23 3.51 6.27 7.10 6.84 10.62 C 5.92 9.65 5.01 8.67 4.10 7.70 C 2.85 6.35 1.60 5.01 0.34 3.68 C 0.26 4.39 0.09 5.81 0.00 6.52 L 0.00 2.72 C 1.46 2.12 1.73 1.21 0.81 0.00 M 3.40 3.15 C 2.97 4.55 3.45 5.03 4.85 4.60 C 5.29 3.20 4.80 2.71 3.40 3.15 Z" />
</g>
<g id="#545948ff">
<path fill="#545948" opacity="1.00" d=" M 6.86 0.00 L 7.94 0.00 C 7.81 2.22 7.68 4.45 7.55 6.67 C 8.59 7.94 9.64 9.21 10.63 10.52 L 11.02 11.07 C 11.05 11.72 11.10 13.01 11.13 13.66 C 10.11 14.97 9.08 16.28 8.09 17.61 C 8.19 17.09 8.39 16.05 8.50 15.52 C 8.75 14.09 8.99 12.66 9.23 11.22 C 8.78 11.43 7.88 11.84 7.43 12.05 C 5.62 12.85 3.79 13.61 2.06 14.57 C 1.60 13.71 1.14 12.85 0.68 11.99 C 1.44 11.27 2.21 10.56 2.99 9.87 C 3.27 9.33 3.82 8.24 4.10 7.70 C 5.01 8.67 5.92 9.65 6.84 10.62 C 6.27 7.10 6.23 3.51 6.86 0.00 Z" />
</g>
<g id="#322e2aff">
<path fill="#322e2a" opacity="1.00" d=" M 7.94 0.00 L 10.46 0.00 C 9.73 1.36 9.05 2.76 8.38 4.15 C 9.74 4.23 11.11 4.32 12.47 4.43 C 12.82 4.47 13.52 4.54 13.87 4.57 C 12.67 6.49 11.63 8.49 10.63 10.52 C 9.64 9.21 8.59 7.94 7.55 6.67 C 7.68 4.45 7.81 2.22 7.94 0.00 Z" />
<path fill="#322e2a" opacity="1.00" d=" M 45.54 0.00 L 48.06 0.00 C 48.19 2.22 48.31 4.43 48.43 6.65 C 47.44 7.90 46.43 9.15 45.49 10.43 C 44.47 8.49 43.42 6.55 42.27 4.68 C 42.62 4.64 43.31 4.54 43.66 4.50 C 44.97 4.35 46.28 4.22 47.60 4.09 C 46.93 2.72 46.26 1.34 45.54 0.00 Z" />
<path fill="#322e2a" opacity="1.00" d=" M 63.13 0.00 L 66.24 0.00 C 65.58 1.64 65.02 3.31 64.45 4.99 C 65.91 4.53 67.38 4.08 68.85 3.61 L 69.06 4.34 L 69.27 5.10 C 68.47 6.65 67.61 8.17 66.77 9.70 L 66.37 10.43 C 64.26 7.35 63.55 3.65 63.13 0.00 Z" />
<path fill="#322e2a" opacity="1.00" d=" M 101.76 0.00 L 104.89 0.00 C 104.51 3.58 103.84 7.23 101.50 10.08 L 101.12 9.41 C 100.29 7.95 99.46 6.51 98.68 5.03 L 99.03 4.26 L 99.35 3.62 C 100.75 4.08 102.14 4.54 103.54 4.99 C 102.98 3.32 102.41 1.64 101.76 0.00 Z" />
<path fill="#322e2a" opacity="1.00" d=" M 119.13 0.00 L 122.26 0.00 C 121.58 1.62 121.00 3.27 120.41 4.93 C 122.03 4.54 123.64 4.14 125.26 3.75 L 125.01 4.33 L 124.73 5.01 C 124.07 6.57 123.36 8.12 122.64 9.65 L 122.29 10.41 C 120.27 7.30 119.57 3.63 119.13 0.00 Z" />
<path fill="#322e2a" opacity="1.00" d=" M 157.74 0.00 L 160.89 0.00 C 160.48 3.57 159.79 7.19 157.59 10.11 L 157.25 9.41 C 156.56 7.96 155.89 6.50 155.27 5.02 L 154.99 4.33 L 154.74 3.74 C 156.36 4.14 157.97 4.54 159.59 4.93 C 159.00 3.28 158.41 1.62 157.74 0.00 Z" />
<path fill="#322e2a" opacity="1.00" d=" M 175.13 0.00 L 178.24 0.00 C 177.58 1.64 177.02 3.31 176.45 4.99 C 177.91 4.53 179.38 4.08 180.85 3.61 L 181.06 4.34 L 181.27 5.10 C 180.47 6.65 179.61 8.17 178.77 9.70 L 178.37 10.43 C 176.27 7.35 175.55 3.65 175.13 0.00 Z" />
<path fill="#322e2a" opacity="1.00" d=" M 213.76 0.00 L 216.89 0.00 C 216.51 3.58 215.84 7.23 213.50 10.08 L 213.12 9.40 C 212.29 7.95 211.46 6.51 210.68 5.03 L 211.03 4.26 L 211.35 3.62 C 212.75 4.08 214.14 4.54 215.54 4.99 C 214.97 3.32 214.41 1.64 213.76 0.00 Z" />
</g>
<g id="#565249ff">
<path fill="#565249" opacity="1.00" d=" M 10.46 0.00 L 13.40 0.00 L 13.04 0.82 C 12.43 1.96 12.24 3.17 12.47 4.43 C 11.11 4.32 9.74 4.23 8.38 4.15 C 9.05 2.76 9.73 1.36 10.46 0.00 Z" />
<path fill="#565249" opacity="1.00" d=" M 42.71 0.00 L 45.54 0.00 C 46.26 1.34 46.93 2.72 47.60 4.09 C 46.28 4.22 44.97 4.35 43.66 4.50 C 43.97 3.19 43.79 1.96 43.11 0.79 L 42.71 0.00 Z" />
</g>
<g id="#268ed9ff">
<path fill="#268ed9" opacity="1.00" d=" M 13.40 0.00 L 16.04 0.00 C 15.67 0.93 15.25 1.85 14.80 2.75 C 14.36 2.27 13.48 1.30 13.04 0.82 L 13.40 0.00 Z" />
<path fill="#268ed9" opacity="1.00" d=" M 40.03 0.00 L 42.71 0.00 L 43.11 0.79 C 42.72 1.28 41.93 2.26 41.54 2.75 C 40.99 1.86 40.48 0.94 40.03 0.00 Z" />
<path fill="#268ed9" opacity="1.00" d=" M 69.42 0.00 L 70.94 0.00 C 71.36 1.39 69.98 2.32 68.92 2.84 C 69.05 2.13 69.30 0.71 69.42 0.00 Z" />
<path fill="#268ed9" opacity="1.00" d=" M 97.05 0.00 L 98.57 0.00 C 98.73 0.70 99.05 2.10 99.21 2.80 C 98.10 2.33 96.67 1.43 97.05 0.00 Z" />
<path fill="#268ed9" opacity="1.00" d=" M 125.42 0.00 L 126.92 0.00 C 127.40 1.31 126.19 2.32 125.21 2.94 C 125.26 2.20 125.37 0.73 125.42 0.00 Z" />
<path fill="#268ed9" opacity="1.00" d=" M 153.08 0.00 L 154.58 0.00 C 154.63 0.73 154.74 2.20 154.79 2.94 C 153.81 2.33 152.59 1.31 153.08 0.00 Z" />
<path fill="#268ed9" opacity="1.00" d=" M 181.42 0.00 L 182.94 0.00 C 183.35 1.39 181.98 2.32 180.92 2.84 C 181.05 2.13 181.30 0.71 181.42 0.00 Z" />
<path fill="#268ed9" opacity="1.00" d=" M 209.05 0.00 L 210.57 0.00 C 210.73 0.70 211.05 2.10 211.21 2.80 C 210.10 2.33 208.67 1.43 209.05 0.00 Z" />
<path fill="#268ed9" opacity="1.00" d=" M 66.77 9.70 C 67.61 8.17 68.47 6.65 69.27 5.10 C 69.67 6.21 70.08 7.32 70.50 8.43 C 69.97 9.01 69.44 9.59 68.91 10.17 C 68.37 10.05 67.30 9.82 66.77 9.70 Z" />
<path fill="#268ed9" opacity="1.00" d=" M 97.19 8.25 C 97.69 7.18 98.19 6.10 98.68 5.03 C 99.46 6.51 100.29 7.95 101.12 9.41 C 100.58 9.59 99.51 9.95 98.97 10.13 C 98.38 9.50 97.78 8.87 97.19 8.25 Z" />
<path fill="#268ed9" opacity="1.00" d=" M 122.64 9.65 C 123.36 8.12 124.07 6.57 124.73 5.01 C 125.35 6.14 125.99 7.27 126.65 8.39 C 126.03 8.99 125.42 9.60 124.82 10.20 C 124.27 10.07 123.18 9.79 122.64 9.65 Z" />
<path fill="#268ed9" opacity="1.00" d=" M 153.35 8.40 C 154.00 7.28 154.64 6.15 155.27 5.02 C 155.89 6.50 156.56 7.96 157.25 9.41 C 156.72 9.61 155.66 10.01 155.13 10.21 C 154.53 9.61 153.94 9.00 153.35 8.40 Z" />
<path fill="#268ed9" opacity="1.00" d=" M 178.77 9.70 C 179.61 8.17 180.47 6.65 181.27 5.10 C 181.67 6.21 182.08 7.32 182.50 8.43 C 181.97 9.01 181.44 9.59 180.91 10.17 C 180.37 10.05 179.30 9.82 178.77 9.70 Z" />
<path fill="#268ed9" opacity="1.00" d=" M 209.19 8.25 C 209.69 7.18 210.19 6.10 210.68 5.03 C 211.46 6.51 212.29 7.95 213.12 9.40 C 212.58 9.59 211.51 9.95 210.97 10.13 C 210.37 9.50 209.78 8.88 209.19 8.25 Z" />
<path fill="#268ed9" opacity="1.00" d=" M 190.91 34.25 C 192.30 37.93 186.34 34.86 190.12 33.84 L 190.91 34.25 Z" />
<path fill="#268ed9" opacity="1.00" d=" M 201.09 34.25 L 201.88 33.84 C 205.66 34.86 199.70 37.93 201.09 34.25 Z" />
</g>
<g id="#3c6bbeff">
<path fill="#3c6bbe" opacity="1.00" d=" M 16.04 0.00 L 25.24 0.00 C 22.25 0.97 19.28 2.00 16.40 3.26 C 24.10 3.67 31.82 3.62 39.52 3.27 C 36.59 2.07 33.61 0.98 30.61 0.00 L 40.03 0.00 C 40.48 0.94 40.99 1.86 41.54 2.75 L 41.48 3.47 C 41.17 5.29 40.76 7.09 40.37 8.89 C 40.75 9.14 41.50 9.62 41.87 9.87 C 42.48 10.20 43.69 10.86 44.29 11.19 C 43.24 11.44 42.19 11.67 41.13 11.89 C 41.18 12.79 41.23 13.68 41.28 14.58 C 40.98 15.95 40.65 17.31 40.33 18.67 C 34.49 17.42 28.59 19.10 22.72 18.41 C 20.36 18.06 17.98 18.39 15.63 18.59 C 15.35 17.26 15.08 15.94 14.85 14.60 C 14.86 13.71 14.87 12.81 14.89 11.92 C 13.90 11.72 12.91 11.50 11.93 11.28 C 12.53 10.89 13.73 10.11 14.33 9.73 C 14.83 7.66 14.82 5.52 14.79 3.41 L 14.80 2.75 C 15.25 1.85 15.67 0.93 16.04 0.00 M 19.48 14.49 C 25.09 12.49 30.93 12.50 36.54 14.47 C 34.45 12.99 32.72 10.36 29.92 10.38 C 25.43 8.61 22.37 11.92 19.48 14.49 Z" />
<path fill="#3c6bbe" opacity="1.00" d=" M 70.94 0.00 L 97.05 0.00 C 96.67 1.43 98.10 2.33 99.21 2.80 L 99.35 3.62 C 89.21 2.50 78.99 2.47 68.85 3.61 L 68.92 2.84 C 69.98 2.32 71.36 1.39 70.94 0.00 Z" />
<path fill="#3c6bbe" opacity="1.00" d=" M 126.92 0.00 L 137.29 0.00 C 137.16 0.57 136.91 1.72 136.79 2.29 C 132.89 1.93 128.89 2.14 125.26 3.75 L 125.21 2.94 C 126.19 2.32 127.40 1.31 126.92 0.00 Z" />
<path fill="#3c6bbe" opacity="1.00" d=" M 141.72 0.00 L 153.08 0.00 C 152.59 1.31 153.81 2.33 154.79 2.94 L 154.74 3.74 C 151.34 2.37 147.68 1.97 144.04 1.97 C 143.46 1.48 142.30 0.49 141.72 0.00 Z" />
<path fill="#3c6bbe" opacity="1.00" d=" M 182.94 0.00 L 209.05 0.00 C 208.67 1.43 210.10 2.33 211.21 2.80 L 211.35 3.62 C 201.21 2.50 190.99 2.47 180.85 3.61 L 180.92 2.84 C 181.98 2.32 183.35 1.39 182.94 0.00 Z" />
<path fill="#3c6bbe" opacity="1.00" d=" M 125.01 4.33 C 134.99 4.14 145.01 4.14 154.99 4.33 L 155.27 5.02 C 154.64 6.15 154.00 7.28 153.35 8.40 C 153.94 9.00 154.53 9.61 155.13 10.21 C 155.44 10.45 156.07 10.94 156.39 11.18 C 155.33 11.99 154.41 12.97 153.60 14.03 C 154.52 22.33 155.16 31.20 151.82 39.08 C 149.99 43.01 145.54 44.45 141.73 45.67 C 141.64 43.07 141.30 40.43 141.77 37.85 C 144.53 36.30 147.57 35.33 150.52 34.19 C 150.68 31.44 150.86 28.70 151.09 25.95 C 147.27 24.81 143.44 23.19 139.37 23.36 C 135.78 23.54 132.39 24.91 128.99 25.97 C 128.99 28.59 128.99 31.21 128.99 33.83 C 132.00 34.96 135.11 35.86 138.00 37.29 C 138.77 40.01 138.33 42.88 138.31 45.67 C 134.29 44.44 129.54 42.82 127.93 38.50 C 125.14 30.81 125.09 22.43 126.02 14.40 C 126.23 13.49 126.44 12.59 126.65 11.69 C 125.61 11.54 124.58 11.39 123.55 11.24 C 123.87 10.98 124.50 10.46 124.82 10.20 C 125.42 9.60 126.03 8.99 126.65 8.39 C 125.99 7.27 125.35 6.14 124.73 5.01 L 125.01 4.33 Z" />
<path fill="#3c6bbe" opacity="1.00" d=" M 15.92 20.50 C 20.09 20.03 24.21 20.95 28.00 22.66 C 31.79 20.94 35.93 20.05 40.10 20.46 C 40.01 25.63 40.03 30.80 39.75 35.96 C 36.98 34.63 35.23 32.19 34.87 29.15 C 34.01 28.65 33.15 28.16 32.29 27.68 C 33.02 29.52 33.72 31.37 34.43 33.21 C 30.38 35.94 25.62 35.94 21.57 33.21 C 22.27 31.37 22.99 29.52 23.71 27.68 C 22.85 28.16 21.99 28.65 21.14 29.15 C 20.76 32.13 19.00 34.53 16.45 36.08 C 16.23 30.89 16.03 25.69 15.92 20.50 Z" />
<path fill="#3c6bbe" opacity="1.00" d=" M 185.22 28.99 C 187.02 28.65 187.02 32.35 185.22 32.01 C 184.16 31.43 184.16 29.57 185.22 28.99 Z" />
<path fill="#3c6bbe" opacity="1.00" d=" M 206.22 28.99 C 208.02 28.65 208.02 32.35 206.22 32.01 C 205.16 31.43 205.16 29.57 206.22 28.99 Z" />
<path fill="#3c6bbe" opacity="1.00" d=" M 185.89 35.37 C 188.64 36.10 191.41 36.68 194.20 37.31 C 193.83 38.99 193.44 40.67 193.04 42.34 C 190.41 40.58 187.77 38.82 185.09 37.15 C 185.34 36.55 185.61 35.96 185.89 35.37 Z" />
<path fill="#3c6bbe" opacity="1.00" d=" M 197.76 37.47 C 200.53 36.86 203.39 36.24 206.13 35.43 C 206.39 36.00 206.65 36.57 206.91 37.15 C 204.23 38.81 201.60 40.57 198.98 42.33 C 198.56 40.72 198.16 39.10 197.76 37.47 Z" />
<path fill="#3c6bbe" opacity="1.00" d=" M 16.13 36.15 C 21.60 34.07 25.32 37.85 26.68 42.36 C 22.75 41.07 19.15 38.97 16.13 36.15 Z" />
<path fill="#3c6bbe" opacity="1.00" d=" M 29.38 42.29 C 30.57 37.46 34.51 34.89 39.79 36.21 C 36.67 38.79 33.00 40.54 29.38 42.29 Z" />
</g>
<g id="#3b7fceff">
<path fill="#3b7fce" opacity="1.00" d=" M 25.24 0.00 L 30.61 0.00 C 33.61 0.98 36.59 2.07 39.52 3.27 C 31.82 3.62 24.10 3.67 16.40 3.26 C 19.28 2.00 22.25 0.97 25.24 0.00 Z" />
</g>
<g id="#505646ff">
<path fill="#505646" opacity="1.00" d=" M 48.06 0.00 L 49.16 0.00 C 49.79 3.45 49.72 6.97 49.07 10.41 C 49.96 9.53 50.84 8.64 51.75 7.77 C 52.05 8.31 52.65 9.38 52.96 9.92 C 53.58 10.36 54.22 10.80 54.85 11.24 C 54.77 12.39 54.71 13.54 54.68 14.69 C 52.80 13.66 50.78 12.90 48.76 12.18 C 48.48 12.08 47.93 11.89 47.65 11.79 C 47.13 13.11 46.65 14.45 46.17 15.79 C 45.86 15.27 45.24 14.21 44.93 13.69 C 44.98 13.02 45.08 11.67 45.12 11.00 L 45.49 10.43 C 46.43 9.15 47.44 7.90 48.43 6.65 C 48.31 4.43 48.19 2.22 48.06 0.00 Z" />
</g>
<g id="#6e9a59ff">
<path fill="#6e9a59" opacity="1.00" d=" M 49.16 0.00 L 55.15 0.00 C 52.89 3.47 59.10 3.47 56.85 0.00 L 62.68 0.00 C 62.21 3.46 62.31 6.98 62.94 10.42 C 62.05 9.53 61.16 8.64 60.26 7.77 C 58.82 6.59 57.35 4.58 55.21 5.16 C 53.83 5.65 52.84 6.85 51.75 7.77 C 50.84 8.64 49.96 9.53 49.07 10.41 C 49.72 6.97 49.79 3.45 49.16 0.00 M 59.40 3.15 C 58.97 4.55 59.45 5.03 60.85 4.60 C 61.29 3.20 60.80 2.71 59.40 3.15 Z" />
<path fill="#6e9a59" opacity="1.00" d=" M 105.32 0.00 L 111.15 0.00 C 108.89 3.47 115.10 3.47 112.85 0.00 L 118.68 0.00 C 118.21 3.46 118.31 6.98 118.94 10.42 C 118.05 9.53 117.16 8.64 116.26 7.77 C 114.82 6.59 113.35 4.58 111.21 5.16 C 109.83 5.65 108.84 6.85 107.75 7.77 C 106.84 8.64 105.95 9.53 105.06 10.41 C 105.69 6.98 105.79 3.46 105.32 0.00 M 115.40 3.15 C 114.97 4.55 115.45 5.03 116.85 4.60 C 117.29 3.20 116.80 2.71 115.40 3.15 Z" />
<path fill="#6e9a59" opacity="1.00" d=" M 161.32 0.00 L 167.15 0.00 C 164.89 3.47 171.10 3.47 168.85 0.00 L 174.68 0.00 C 174.21 3.46 174.31 6.98 174.94 10.41 C 174.05 9.53 173.16 8.64 172.25 7.77 C 170.82 6.57 169.34 4.60 167.22 5.16 C 165.84 5.66 164.84 6.85 163.74 7.77 C 162.84 8.64 161.95 9.53 161.06 10.42 C 161.69 6.98 161.79 3.46 161.32 0.00 M 171.40 3.15 C 170.97 4.55 171.45 5.03 172.85 4.60 C 173.29 3.20 172.80 2.71 171.40 3.15 Z" />
</g>
<g id="#4f5546ff">
<path fill="#4f5546" opacity="1.00" d=" M 62.68 0.00 L 63.13 0.00 C 63.55 3.65 64.26 7.35 66.37 10.43 L 66.77 11.13 C 66.65 12.14 66.54 13.15 66.43 14.16 L 65.93 13.71 C 65.10 13.05 64.24 12.42 63.37 11.82 C 61.56 12.48 59.76 13.21 58.14 14.27 C 57.52 13.54 56.88 12.83 56.21 12.15 C 57.21 11.44 58.21 10.70 59.20 9.96 C 59.46 9.41 59.99 8.32 60.26 7.77 C 61.16 8.64 62.05 9.53 62.94 10.42 C 62.31 6.98 62.21 3.46 62.68 0.00 Z" />
<path fill="#4f5546" opacity="1.00" d=" M 104.89 0.00 L 105.32 0.00 C 105.79 3.46 105.69 6.98 105.06 10.41 C 105.95 9.53 106.84 8.64 107.75 7.77 C 108.05 8.31 108.65 9.38 108.96 9.92 C 109.58 10.36 110.21 10.80 110.85 11.24 C 110.77 12.38 110.72 13.53 110.69 14.68 C 108.81 13.46 106.78 12.50 104.67 11.76 C 103.77 12.40 102.90 13.06 102.04 13.75 L 101.52 14.22 C 101.37 13.06 101.22 11.90 101.06 10.75 L 101.50 10.08 C 103.84 7.23 104.51 3.58 104.89 0.00 Z" />
<path fill="#4f5546" opacity="1.00" d=" M 118.68 0.00 L 119.13 0.00 C 119.57 3.63 120.27 7.30 122.29 10.41 L 122.67 11.11 C 122.64 12.09 122.62 13.07 122.61 14.05 L 122.05 13.62 C 121.17 13.00 120.27 12.41 119.35 11.85 C 117.55 12.49 115.76 13.23 114.14 14.26 C 113.52 13.53 112.87 12.83 112.21 12.15 C 113.21 11.43 114.21 10.70 115.20 9.96 C 115.46 9.41 115.99 8.32 116.26 7.77 C 117.16 8.64 118.05 9.53 118.94 10.42 C 118.31 6.98 118.21 3.46 118.68 0.00 Z" />
<path fill="#4f5546" opacity="1.00" d=" M 160.89 0.00 L 161.32 0.00 C 161.79 3.46 161.69 6.98 161.06 10.42 C 161.95 9.53 162.84 8.64 163.74 7.77 C 164.01 8.32 164.54 9.41 164.80 9.96 C 165.79 10.70 166.78 11.43 167.79 12.15 C 167.12 12.83 166.48 13.53 165.86 14.26 C 164.24 13.23 162.45 12.49 160.65 11.85 C 159.72 12.41 158.82 13.01 157.94 13.64 L 157.36 14.08 C 157.30 12.98 157.24 11.89 157.17 10.79 L 157.59 10.11 C 159.79 7.19 160.48 3.57 160.89 0.00 Z" />
<path fill="#4f5546" opacity="1.00" d=" M 174.68 0.00 L 175.13 0.00 C 175.55 3.65 176.27 7.35 178.37 10.43 L 178.77 11.13 C 178.65 12.14 178.54 13.15 178.43 14.16 L 177.93 13.71 C 177.08 13.04 176.21 12.40 175.32 11.79 C 173.21 12.51 171.18 13.47 169.31 14.67 C 169.27 13.53 169.22 12.38 169.15 11.24 C 169.78 10.80 170.41 10.36 171.04 9.92 C 171.35 9.38 171.95 8.31 172.25 7.77 C 173.16 8.64 174.05 9.53 174.94 10.41 C 174.31 6.98 174.21 3.46 174.68 0.00 Z" />
<path fill="#4f5546" opacity="1.00" d=" M 216.89 0.00 L 217.30 0.00 C 217.77 3.53 217.69 7.10 217.15 10.62 C 218.07 9.65 218.99 8.68 219.90 7.70 C 220.18 8.24 220.73 9.33 221.01 9.87 C 221.79 10.56 222.56 11.27 223.32 11.99 C 222.87 12.83 222.42 13.67 221.98 14.51 C 220.33 13.36 218.52 12.50 216.67 11.74 C 215.77 12.38 214.89 13.06 214.04 13.76 L 213.52 14.22 C 213.37 13.06 213.22 11.90 213.06 10.75 L 213.50 10.08 C 215.84 7.23 216.51 3.58 216.89 0.00 Z" />
</g>
<g id="#605f59ff">
<path fill="#605f59" opacity="1.00" d=" M 66.24 0.00 L 69.42 0.00 C 69.30 0.71 69.05 2.13 68.92 2.84 L 68.85 3.61 C 67.38 4.08 65.91 4.53 64.45 4.99 C 65.02 3.31 65.58 1.64 66.24 0.00 Z" />
<path fill="#605f59" opacity="1.00" d=" M 98.57 0.00 L 101.76 0.00 C 102.41 1.64 102.98 3.32 103.54 4.99 C 102.14 4.54 100.75 4.08 99.35 3.62 L 99.21 2.80 C 99.05 2.10 98.73 0.70 98.57 0.00 Z" />
<path fill="#605f59" opacity="1.00" d=" M 122.26 0.00 L 125.42 0.00 C 125.37 0.73 125.26 2.20 125.21 2.94 L 125.26 3.75 C 123.64 4.14 122.03 4.54 120.41 4.93 C 121.00 3.27 121.58 1.62 122.26 0.00 Z" />
<path fill="#605f59" opacity="1.00" d=" M 154.58 0.00 L 157.74 0.00 C 158.41 1.62 159.00 3.28 159.59 4.93 C 157.97 4.54 156.36 4.14 154.74 3.74 L 154.79 2.94 C 154.74 2.20 154.63 0.73 154.58 0.00 Z" />
<path fill="#605f59" opacity="1.00" d=" M 178.24 0.00 L 181.42 0.00 C 181.30 0.71 181.05 2.13 180.92 2.84 L 180.85 3.61 C 179.38 4.08 177.91 4.53 176.45 4.99 C 177.02 3.31 177.58 1.64 178.24 0.00 Z" />
<path fill="#605f59" opacity="1.00" d=" M 210.57 0.00 L 213.76 0.00 C 214.41 1.64 214.97 3.32 215.54 4.99 C 214.14 4.54 212.75 4.08 211.35 3.62 L 211.21 2.80 C 211.05 2.10 210.73 0.70 210.57 0.00 Z" />
</g>
<g id="#4176caff">
<path fill="#4176ca" opacity="1.00" d=" M 137.29 0.00 L 141.72 0.00 C 142.30 0.49 143.46 1.48 144.04 1.97 C 147.68 1.97 151.34 2.37 154.74 3.74 L 154.99 4.33 C 145.01 4.14 134.99 4.14 125.01 4.33 L 125.26 3.75 C 128.89 2.14 132.89 1.93 136.79 2.29 C 136.91 1.72 137.16 0.57 137.29 0.00 Z" />
</g>
<g id="#6e9b59ff">
<path fill="#6e9b59" opacity="1.00" d=" M 217.30 0.00 L 223.19 0.00 C 222.27 1.21 222.54 2.12 224.00 2.72 L 224.00 6.52 C 223.91 5.81 223.74 4.39 223.66 3.68 C 222.40 5.01 221.15 6.36 219.90 7.70 C 218.99 8.68 218.07 9.65 217.15 10.62 C 217.69 7.10 217.77 3.53 217.30 0.00 Z" />
</g>
<g id="#a0b6cbff">
<path fill="#a0b6cb" opacity="1.00" d=" M 13.04 0.82 C 13.48 1.30 14.36 2.27 14.80 2.75 L 14.79 3.41 C 14.56 3.70 14.10 4.28 13.87 4.57 C 13.52 4.54 12.82 4.47 12.47 4.43 C 12.24 3.17 12.43 1.96 13.04 0.82 Z" />
<path fill="#a0b6cb" opacity="1.00" d=" M 41.54 2.75 C 41.93 2.26 42.72 1.28 43.11 0.79 C 43.79 1.96 43.97 3.19 43.66 4.50 C 43.31 4.54 42.62 4.64 42.27 4.68 C 42.07 4.38 41.68 3.77 41.48 3.47 L 41.54 2.75 Z" />
</g>
<g id="#4177cbff">
<path fill="#4177cb" opacity="1.00" d=" M 68.85 3.61 C 78.99 2.47 89.21 2.50 99.35 3.62 L 99.03 4.26 C 89.09 5.85 79.02 5.51 69.06 4.34 L 68.85 3.61 Z" />
<path fill="#4177cb" opacity="1.00" d=" M 180.85 3.61 C 190.99 2.47 201.21 2.50 211.35 3.62 L 211.03 4.26 C 201.09 5.85 191.02 5.51 181.06 4.34 L 180.85 3.61 Z" />
</g>
<g id="#87b05cff">
<path fill="#87b05c" opacity="1.00" d=" M 3.40 3.15 C 4.80 2.71 5.29 3.20 4.85 4.60 C 3.45 5.03 2.97 4.55 3.40 3.15 Z" />
<path fill="#87b05c" opacity="1.00" d=" M 59.40 3.15 C 60.80 2.71 61.29 3.20 60.85 4.60 C 59.45 5.03 58.97 4.55 59.40 3.15 Z" />
<path fill="#87b05c" opacity="1.00" d=" M 115.40 3.15 C 116.80 2.71 117.29 3.20 116.85 4.60 C 115.45 5.03 114.97 4.55 115.40 3.15 Z" />
<path fill="#87b05c" opacity="1.00" d=" M 171.40 3.15 C 172.80 2.71 173.29 3.20 172.85 4.60 C 171.45 5.03 170.97 4.55 171.40 3.15 Z" />
<path fill="#87b05c" opacity="1.00" d=" M 55.11 32.12 C 53.32 28.39 58.68 28.39 56.89 32.12 C 56.44 32.12 55.56 32.12 55.11 32.12 Z" />
</g>
<g id="#87b262ff">
<path fill="#87b262" opacity="1.00" d=" M 0.34 3.68 C 1.60 5.01 2.85 6.35 4.10 7.70 C 2.63 6.86 1.42 9.20 2.99 9.87 C 2.21 10.56 1.44 11.27 0.68 11.99 L 0.00 12.68 L 0.00 6.52 C 0.09 5.81 0.26 4.39 0.34 3.68 Z" />
<path fill="#87b262" opacity="1.00" d=" M 51.75 7.77 C 52.84 6.85 53.83 5.65 55.21 5.16 C 57.35 4.58 58.82 6.59 60.26 7.77 C 58.79 7.01 57.67 9.29 59.20 9.96 C 58.21 10.70 57.21 11.44 56.21 12.15 C 55.87 11.92 55.19 11.46 54.85 11.24 C 54.22 10.80 53.58 10.36 52.96 9.92 C 54.45 9.15 53.17 6.96 51.75 7.77 Z" />
<path fill="#87b262" opacity="1.00" d=" M 107.75 7.77 C 108.84 6.85 109.83 5.65 111.21 5.16 C 113.35 4.58 114.82 6.59 116.26 7.77 C 114.79 7.01 113.67 9.29 115.20 9.96 C 114.21 10.70 113.21 11.43 112.21 12.15 C 111.87 11.92 111.19 11.46 110.85 11.24 C 110.21 10.80 109.58 10.36 108.96 9.92 C 110.45 9.14 109.17 6.96 107.75 7.77 Z" />
<path fill="#87b262" opacity="1.00" d=" M 163.74 7.77 C 164.84 6.85 165.84 5.66 167.22 5.16 C 169.34 4.60 170.82 6.57 172.25 7.77 C 170.82 6.96 169.54 9.14 171.04 9.92 C 170.41 10.36 169.78 10.80 169.15 11.24 C 168.81 11.46 168.13 11.92 167.79 12.15 C 166.78 11.43 165.79 10.70 164.80 9.96 C 166.32 9.29 165.21 7.01 163.74 7.77 Z" />
<path fill="#87b262" opacity="1.00" d=" M 219.90 7.70 C 221.15 6.36 222.40 5.01 223.66 3.68 C 223.74 4.39 223.91 5.81 224.00 6.52 L 224.00 12.68 L 223.32 11.99 C 222.56 11.27 221.79 10.56 221.01 9.87 C 222.58 9.19 221.37 6.86 219.90 7.70 Z" />
</g>
<g id="#278bd7ff">
<path fill="#278bd7" opacity="1.00" d=" M 14.79 3.41 C 14.82 5.52 14.83 7.66 14.33 9.73 C 13.14 8.62 11.35 9.13 10.63 10.52 C 11.63 8.49 12.67 6.49 13.87 4.57 C 14.10 4.28 14.56 3.70 14.79 3.41 Z" />
<path fill="#278bd7" opacity="1.00" d=" M 40.37 8.89 C 40.76 7.09 41.17 5.29 41.48 3.47 C 41.68 3.77 42.07 4.38 42.27 4.68 C 43.42 6.55 44.47 8.49 45.49 10.43 C 44.89 8.88 42.83 8.34 41.87 9.87 C 41.50 9.62 40.75 9.14 40.37 8.89 Z" />
</g>
<g id="#3c6cbfff">
<path fill="#3c6cbf" opacity="1.00" d=" M 69.06 4.34 C 79.02 5.51 89.09 5.85 99.03 4.26 L 98.68 5.03 C 98.19 6.10 97.69 7.18 97.19 8.25 C 97.78 8.87 98.38 9.50 98.97 10.13 C 99.29 10.37 99.91 10.87 100.23 11.11 C 99.20 12.01 98.36 13.15 98.09 14.51 C 96.06 21.30 97.09 28.56 95.30 35.39 C 93.75 39.02 90.45 41.54 87.54 44.07 C 87.04 42.18 86.53 40.29 86.00 38.41 C 88.35 36.97 91.46 36.53 93.55 34.59 C 94.91 32.28 94.78 29.45 95.36 26.88 C 87.84 25.26 80.04 24.27 72.66 27.03 C 73.22 29.55 73.13 32.32 74.45 34.59 C 76.55 36.53 79.63 36.96 82.00 38.41 C 81.47 40.26 80.97 42.13 80.48 43.99 C 77.59 41.16 73.18 38.94 72.61 34.55 C 71.37 27.97 71.09 21.28 70.18 14.66 C 70.25 13.65 70.33 12.65 70.41 11.65 C 69.49 11.52 68.57 11.40 67.65 11.26 C 67.96 10.99 68.59 10.44 68.91 10.17 C 69.44 9.59 69.97 9.01 70.50 8.43 C 70.08 7.32 69.67 6.21 69.27 5.10 L 69.06 4.34 Z" />
<path fill="#3c6cbf" opacity="1.00" d=" M 181.06 4.34 C 191.02 5.51 201.09 5.85 211.03 4.26 L 210.68 5.03 C 210.19 6.10 209.69 7.18 209.19 8.25 C 209.78 8.88 210.37 9.50 210.97 10.13 C 211.29 10.37 211.92 10.86 212.23 11.11 C 211.20 12.01 210.36 13.15 210.08 14.51 C 208.76 18.70 208.70 23.11 208.50 27.46 C 200.26 25.16 191.53 24.07 183.48 27.62 C 183.20 23.28 182.75 18.96 182.20 14.65 C 182.27 13.65 182.34 12.65 182.41 11.65 C 181.49 11.52 180.57 11.40 179.65 11.26 C 179.97 10.99 180.59 10.44 180.91 10.17 C 181.44 9.59 181.97 9.01 182.50 8.43 C 182.08 7.32 181.67 6.21 181.27 5.10 L 181.06 4.34 Z" />
</g>
<g id="#6c9c64ff">
<path fill="#6c9c64" opacity="1.00" d=" M 2.99 9.87 C 1.42 9.20 2.63 6.86 4.10 7.70 C 3.82 8.24 3.27 9.33 2.99 9.87 Z" />
<path fill="#6c9c64" opacity="1.00" d=" M 51.75 7.77 C 53.17 6.96 54.45 9.15 52.96 9.92 C 52.65 9.38 52.05 8.31 51.75 7.77 Z" />
<path fill="#6c9c64" opacity="1.00" d=" M 59.20 9.96 C 57.67 9.29 58.79 7.01 60.26 7.77 C 59.99 8.32 59.46 9.41 59.20 9.96 Z" />
<path fill="#6c9c64" opacity="1.00" d=" M 107.75 7.77 C 109.17 6.96 110.45 9.14 108.96 9.92 C 108.65 9.38 108.05 8.31 107.75 7.77 Z" />
<path fill="#6c9c64" opacity="1.00" d=" M 115.20 9.96 C 113.67 9.29 114.79 7.01 116.26 7.77 C 115.99 8.32 115.46 9.41 115.20 9.96 Z" />
<path fill="#6c9c64" opacity="1.00" d=" M 163.74 7.77 C 165.21 7.01 166.32 9.29 164.80 9.96 C 164.54 9.41 164.01 8.32 163.74 7.77 Z" />
<path fill="#6c9c64" opacity="1.00" d=" M 171.04 9.92 C 169.54 9.14 170.82 6.96 172.25 7.77 C 171.95 8.31 171.35 9.38 171.04 9.92 Z" />
<path fill="#6c9c64" opacity="1.00" d=" M 219.90 7.70 C 221.37 6.86 222.58 9.19 221.01 9.87 C 220.73 9.33 220.18 8.24 219.90 7.70 Z" />
</g>
<g id="#84a9b8ff">
<path fill="#84a9b8" opacity="1.00" d=" M 10.63 10.52 C 11.35 9.13 13.14 8.62 14.33 9.73 C 13.73 10.11 12.53 10.89 11.93 11.28 L 11.02 11.07 L 10.63 10.52 Z" />
<path fill="#84a9b8" opacity="1.00" d=" M 41.87 9.87 C 42.83 8.34 44.89 8.88 45.49 10.43 L 45.12 11.00 L 44.29 11.19 C 43.69 10.86 42.48 10.20 41.87 9.87 Z" />
</g>
<g id="#6fafb9ff">
<path fill="#6fafb9" opacity="1.00" d=" M 66.77 9.70 C 67.30 9.82 68.37 10.05 68.91 10.17 C 68.59 10.44 67.96 10.99 67.65 11.26 L 66.77 11.13 L 66.37 10.43 L 66.77 9.70 Z" />
<path fill="#6fafb9" opacity="1.00" d=" M 98.97 10.13 C 99.51 9.95 100.58 9.59 101.12 9.41 L 101.50 10.08 L 101.06 10.75 L 100.23 11.11 C 99.91 10.87 99.29 10.37 98.97 10.13 Z" />
<path fill="#6fafb9" opacity="1.00" d=" M 122.64 9.65 C 123.18 9.79 124.27 10.07 124.82 10.20 C 124.50 10.46 123.87 10.98 123.55 11.24 L 122.67 11.11 L 122.29 10.41 L 122.64 9.65 Z" />
<path fill="#6fafb9" opacity="1.00" d=" M 155.13 10.21 C 155.66 10.01 156.72 9.61 157.25 9.41 L 157.59 10.11 L 157.17 10.79 L 156.39 11.18 C 156.07 10.94 155.44 10.45 155.13 10.21 Z" />
<path fill="#6fafb9" opacity="1.00" d=" M 178.77 9.70 C 179.30 9.82 180.37 10.05 180.91 10.17 C 180.59 10.44 179.97 10.99 179.65 11.26 L 178.77 11.13 L 178.37 10.43 L 178.77 9.70 Z" />
<path fill="#6fafb9" opacity="1.00" d=" M 210.97 10.13 C 211.51 9.95 212.58 9.59 213.12 9.40 L 213.50 10.08 L 213.06 10.75 L 212.23 11.11 C 211.92 10.86 211.29 10.37 210.97 10.13 Z" />
</g>
<g id="#4376caff">
<path fill="#4376ca" opacity="1.00" d=" M 19.48 14.49 C 22.37 11.92 25.43 8.61 29.92 10.38 C 32.72 10.36 34.45 12.99 36.54 14.47 C 30.93 12.50 25.09 12.49 19.48 14.49 Z" />
</g>
<g id="#1aa9c1ff">
<path fill="#1aa9c1" opacity="1.00" d=" M 11.02 11.07 L 11.93 11.28 C 12.91 11.50 13.90 11.72 14.89 11.92 C 14.87 12.81 14.86 13.71 14.85 14.60 C 13.44 22.80 10.22 32.52 16.18 39.79 C 20.55 46.19 29.75 43.05 36.20 44.82 C 38.32 41.43 41.28 38.40 42.37 34.46 C 44.60 27.87 42.19 21.13 41.28 14.58 C 41.23 13.68 41.18 12.79 41.13 11.89 C 42.19 11.67 43.24 11.44 44.29 11.19 L 45.12 11.00 C 45.08 11.67 44.98 13.02 44.93 13.69 L 44.93 14.64 C 44.75 21.22 45.35 27.78 45.56 34.35 C 45.47 34.77 45.28 35.61 45.19 36.03 C 42.42 39.85 39.30 44.28 34.33 45.20 C 29.90 45.83 25.31 45.95 20.90 45.02 C 16.32 43.76 13.44 39.64 10.74 36.02 C 10.65 35.60 10.45 34.77 10.35 34.35 C 10.65 27.77 11.16 21.20 11.12 14.61 L 11.13 13.66 C 11.10 13.01 11.05 11.72 11.02 11.07 Z" />
<path fill="#1aa9c1" opacity="1.00" d=" M 120.30 34.43 C 120.93 29.91 121.97 25.46 122.75 20.97 C 122.70 26.75 123.51 32.55 123.02 38.32 C 122.46 37.22 121.58 36.57 120.38 36.37 C 120.36 35.88 120.32 34.91 120.30 34.43 Z" />
</g>
<g id="#1aa8c2ff">
<path fill="#1aa8c2" opacity="1.00" d=" M 66.77 11.13 L 67.65 11.26 C 68.57 11.40 69.49 11.52 70.41 11.65 C 70.33 12.65 70.25 13.65 70.18 14.66 C 69.19 20.69 66.82 26.84 67.99 33.01 C 69.93 37.03 72.53 41.17 76.40 43.58 C 80.74 45.34 85.79 44.76 90.28 44.10 C 95.72 41.37 99.48 35.82 100.74 29.95 C 100.82 24.70 98.87 19.65 98.09 14.51 C 98.36 13.15 99.20 12.01 100.23 11.11 L 101.06 10.75 C 101.22 11.90 101.37 13.06 101.52 14.22 L 101.60 14.95 C 101.61 22.23 104.45 30.35 99.96 36.93 C 96.67 45.10 86.53 50.11 78.23 46.68 C 71.57 44.27 67.55 37.92 65.70 31.41 C 64.98 25.93 66.19 20.37 66.35 14.88 L 66.43 14.16 C 66.54 13.15 66.65 12.14 66.77 11.13 Z" />
<path fill="#1aa8c2" opacity="1.00" d=" M 178.77 11.13 L 179.65 11.26 C 180.57 11.40 181.49 11.52 182.41 11.65 C 182.34 12.65 182.27 13.65 182.20 14.65 C 181.20 20.69 178.81 26.83 179.99 33.01 C 181.93 37.03 184.53 41.17 188.40 43.58 C 192.73 45.34 197.79 44.76 202.28 44.10 C 207.72 41.37 211.48 35.82 212.75 29.95 C 212.82 24.70 210.86 19.65 210.08 14.51 C 210.36 13.15 211.20 12.01 212.23 11.11 L 213.06 10.75 C 213.22 11.90 213.37 13.06 213.52 14.22 L 213.60 14.95 C 213.62 22.23 216.45 30.35 211.96 36.93 C 208.67 45.10 198.53 50.11 190.23 46.68 C 183.57 44.27 179.55 37.92 177.70 31.41 C 176.97 25.93 178.19 20.37 178.35 14.88 L 178.43 14.16 C 178.54 13.15 178.65 12.14 178.77 11.13 Z" />
</g>
<g id="#1ca4c2ff">
<path fill="#1ca4c2" opacity="1.00" d=" M 122.67 11.11 L 123.55 11.24 C 124.58 11.39 125.61 11.54 126.65 11.69 C 126.44 12.59 126.23 13.49 126.02 14.40 C 125.00 16.37 123.86 18.27 122.83 20.24 C 122.79 18.41 122.67 16.58 122.61 14.75 L 122.61 14.05 C 122.62 13.07 122.64 12.09 122.67 11.11 Z" />
</g>
<g id="#1ba5c1ff">
<path fill="#1ba5c1" opacity="1.00" d=" M 153.60 14.03 C 154.41 12.97 155.33 11.99 156.39 11.18 L 157.17 10.79 C 157.24 11.89 157.30 12.98 157.36 14.08 L 157.38 14.79 C 157.40 16.58 157.37 18.36 157.44 20.15 C 156.23 18.07 154.91 16.05 153.60 14.03 Z" />
</g>
<g id="#6a9a61ff">
<path fill="#6a9a61" opacity="1.00" d=" M 0.00 12.68 L 0.68 11.99 C 1.14 12.85 1.60 13.71 2.06 14.57 C 1.58 15.78 1.13 16.99 0.70 18.21 C 0.53 18.73 0.18 19.76 0.00 20.28 L 0.00 12.68 Z" />
<path fill="#6a9a61" opacity="1.00" d=" M 223.32 11.99 L 224.00 12.68 L 224.00 20.47 C 223.82 19.92 223.47 18.83 223.30 18.28 C 222.88 17.02 222.44 15.76 221.98 14.51 C 222.42 13.67 222.87 12.83 223.32 11.99 Z" />
</g>
<g id="#a9a16aff">
<path fill="#a9a16a" opacity="1.00" d=" M 2.06 14.57 C 3.79 13.61 5.62 12.85 7.43 12.05 C 5.11 14.02 2.83 16.04 0.70 18.21 C 1.13 16.99 1.58 15.78 2.06 14.57 Z" />
<path fill="#a9a16a" opacity="1.00" d=" M 48.76 12.18 C 50.78 12.90 52.80 13.66 54.68 14.69 C 54.73 15.24 54.84 16.33 54.89 16.87 C 54.94 17.28 55.04 18.11 55.09 18.52 C 52.95 16.44 50.90 14.26 48.76 12.18 Z" />
<path fill="#a9a16a" opacity="1.00" d=" M 58.14 14.27 C 59.76 13.21 61.56 12.48 63.37 11.82 C 61.32 14.16 59.07 16.34 56.72 18.39 C 56.93 17.75 57.35 16.48 57.55 15.85 C 57.70 15.45 58.00 14.66 58.14 14.27 Z" />
<path fill="#a9a16a" opacity="1.00" d=" M 104.67 11.76 C 106.78 12.50 108.81 13.46 110.69 14.68 C 110.74 15.23 110.82 16.33 110.86 16.88 C 110.91 17.30 110.99 18.14 111.03 18.57 C 108.80 16.40 106.67 14.14 104.67 11.76 Z" />
<path fill="#a9a16a" opacity="1.00" d=" M 114.14 14.26 C 115.76 13.23 117.55 12.49 119.35 11.85 C 117.30 14.19 115.06 16.35 112.72 18.40 C 112.93 17.76 113.34 16.49 113.55 15.85 C 113.70 15.45 113.99 14.66 114.14 14.26 Z" />
<path fill="#a9a16a" opacity="1.00" d=" M 160.65 11.85 C 162.45 12.49 164.24 13.23 165.86 14.26 C 166.01 14.66 166.30 15.45 166.45 15.85 C 166.66 16.49 167.07 17.76 167.28 18.40 C 164.94 16.35 162.70 14.19 160.65 11.85 Z" />
<path fill="#a9a16a" opacity="1.00" d=" M 169.31 14.67 C 171.18 13.47 173.21 12.51 175.32 11.79 C 173.32 14.16 171.19 16.41 168.97 18.56 C 169.01 18.14 169.09 17.30 169.14 16.88 C 169.18 16.33 169.26 15.23 169.31 14.67 Z" />
<path fill="#a9a16a" opacity="1.00" d=" M 216.67 11.74 C 218.52 12.50 220.33 13.36 221.98 14.51 C 222.44 15.76 222.88 17.02 223.30 18.28 C 221.11 16.08 218.80 14.00 216.67 11.74 Z" />
</g>
<g id="#d8d389ff">
<path fill="#d8d389" opacity="1.00" d=" M 7.43 12.05 C 7.88 11.84 8.78 11.43 9.23 11.22 C 8.99 12.66 8.75 14.09 8.50 15.52 C 5.63 19.48 4.63 24.54 5.32 29.33 C 5.37 29.82 5.46 30.79 5.51 31.27 C 5.54 32.71 6.19 34.02 6.95 35.21 C 8.44 37.80 9.78 40.48 11.29 43.06 C 10.12 42.29 8.91 41.57 7.71 40.85 C 9.96 43.81 12.26 46.73 14.56 49.65 C 9.89 46.29 5.98 42.04 3.27 36.96 C 3.10 38.51 2.94 40.05 2.76 41.60 C 2.36 39.97 2.04 38.31 1.86 36.64 C 1.48 31.81 0.80 27.02 0.00 22.25 L 0.00 20.28 C 0.18 19.76 0.53 18.73 0.70 18.21 C 2.83 16.04 5.11 14.02 7.43 12.05 Z" />
</g>
<g id="#cdc888ff">
<path fill="#cdc888" opacity="1.00" d=" M 47.65 11.79 C 47.93 11.89 48.48 12.08 48.76 12.18 C 50.90 14.26 52.95 16.44 55.09 18.52 C 55.58 19.49 56.20 18.99 56.72 18.39 C 59.07 16.34 61.32 14.16 63.37 11.82 C 64.24 12.42 65.10 13.05 65.93 13.71 C 65.12 14.78 64.31 15.85 63.49 16.90 C 62.46 17.30 60.41 18.11 59.38 18.51 C 58.88 20.25 58.62 22.05 58.38 23.84 C 56.76 23.83 55.14 23.84 53.52 23.86 C 53.30 21.64 53.07 19.42 52.86 17.20 C 51.98 17.26 51.11 17.31 50.24 17.36 C 49.21 17.42 48.19 17.48 47.17 17.55 C 46.92 17.11 46.42 16.23 46.17 15.79 C 46.65 14.45 47.13 13.11 47.65 11.79 Z" />
</g>
<g id="#5f9268ff">
<path fill="#5f9268" opacity="1.00" d=" M 54.85 11.24 C 55.19 11.46 55.87 11.92 56.21 12.15 C 56.88 12.83 57.52 13.54 58.14 14.27 C 58.00 14.66 57.70 15.45 57.55 15.85 C 56.89 16.10 55.55 16.62 54.89 16.87 C 54.84 16.33 54.73 15.24 54.68 14.69 C 54.71 13.54 54.77 12.39 54.85 11.24 Z" />
<path fill="#5f9268" opacity="1.00" d=" M 110.85 11.24 C 111.19 11.46 111.87 11.92 112.21 12.15 C 112.87 12.83 113.52 13.53 114.14 14.26 C 113.99 14.66 113.70 15.45 113.55 15.85 C 112.88 16.11 111.53 16.62 110.86 16.88 C 110.82 16.33 110.74 15.23 110.69 14.68 C 110.72 13.53 110.77 12.38 110.85 11.24 Z" />
<path fill="#5f9268" opacity="1.00" d=" M 167.79 12.15 C 168.13 11.92 168.81 11.46 169.15 11.24 C 169.22 12.38 169.27 13.53 169.31 14.67 C 169.26 15.23 169.18 16.33 169.14 16.88 C 168.46 16.62 167.12 16.11 166.45 15.85 C 166.30 15.45 166.01 14.66 165.86 14.26 C 166.48 13.53 167.12 12.83 167.79 12.15 Z" />
</g>
<g id="#cbc787ff">
<path fill="#cbc787" opacity="1.00" d=" M 102.04 13.75 C 102.90 13.06 103.77 12.40 104.67 11.76 C 106.67 14.14 108.80 16.40 111.03 18.57 C 111.54 19.59 112.19 18.98 112.72 18.40 C 115.06 16.35 117.30 14.19 119.35 11.85 C 120.27 12.41 121.17 13.00 122.05 13.62 C 121.35 14.72 120.64 15.80 119.92 16.88 C 118.26 17.11 116.60 17.35 114.95 17.59 C 114.86 19.69 114.69 21.78 114.47 23.87 C 112.85 23.85 111.23 23.84 109.61 23.84 C 109.38 22.05 109.12 20.25 108.62 18.51 C 107.60 18.10 105.54 17.28 104.52 16.87 C 103.68 15.84 102.86 14.80 102.04 13.75 Z" />
<path fill="#cbc787" opacity="1.00" d=" M 157.94 13.64 C 158.82 13.01 159.72 12.41 160.65 11.85 C 162.70 14.19 164.94 16.35 167.28 18.40 C 167.81 18.98 168.46 19.59 168.97 18.56 C 171.19 16.41 173.32 14.16 175.32 11.79 C 176.21 12.40 177.08 13.04 177.93 13.71 C 177.12 14.78 176.31 15.85 175.49 16.90 C 174.46 17.30 172.40 18.11 171.37 18.51 C 170.88 20.25 170.62 22.05 170.39 23.84 C 168.77 23.84 167.15 23.85 165.53 23.87 C 165.31 21.78 165.14 19.69 165.05 17.59 C 163.39 17.35 161.73 17.11 160.08 16.88 C 159.35 15.81 158.64 14.73 157.94 13.64 Z" />
</g>
<g id="#cbc686ff">
<path fill="#cbc686" opacity="1.00" d=" M 214.04 13.76 C 214.89 13.06 215.77 12.38 216.67 11.74 C 218.80 14.00 221.11 16.08 223.30 18.28 C 223.47 18.83 223.82 19.92 224.00 20.47 L 224.00 22.81 C 223.40 23.17 222.21 23.89 221.61 24.25 C 221.35 22.33 221.13 20.40 220.62 18.52 C 219.60 18.11 217.55 17.28 216.52 16.87 C 215.68 15.84 214.85 14.80 214.04 13.76 Z" />
</g>
<g id="#a1e1a2fe">
<path fill="#a1e1a2" opacity="1.00" d=" M 8.09 17.61 C 9.08 16.28 10.11 14.97 11.13 13.66 L 11.12 14.61 C 10.20 21.14 9.50 27.78 10.35 34.35 C 10.45 34.77 10.65 35.60 10.74 36.02 C 12.62 40.22 14.52 45.52 19.53 46.61 C 25.27 47.96 31.56 48.10 37.23 46.35 C 41.81 45.02 43.43 39.98 45.19 36.03 C 45.28 35.61 45.47 34.77 45.56 34.35 C 46.48 27.80 45.78 21.16 44.93 14.64 L 44.93 13.69 C 45.24 14.21 45.86 15.27 46.17 15.79 C 46.42 16.23 46.92 17.11 47.17 17.55 C 49.10 21.17 49.92 25.26 50.57 29.28 C 50.54 29.77 50.48 30.75 50.45 31.24 C 48.45 31.40 47.52 33.85 49.06 35.21 C 47.56 37.79 46.23 40.48 44.70 43.05 C 43.61 44.60 42.54 46.16 41.52 47.75 C 41.12 48.03 40.32 48.58 39.92 48.86 C 31.99 49.55 24.00 49.67 16.07 48.86 C 15.67 48.58 14.88 48.03 14.48 47.76 C 13.46 46.16 12.38 44.61 11.29 43.06 C 9.78 40.48 8.44 37.80 6.95 35.21 C 8.51 33.83 7.54 31.37 5.51 31.27 C 5.46 30.79 5.37 29.82 5.32 29.33 C 5.94 25.36 6.66 21.38 8.09 17.61 Z" />
</g>
<g id="#a1e1a3ff">
<path fill="#a1e1a3" opacity="1.00" d=" M 65.93 13.71 L 66.43 14.16 L 66.35 14.88 C 65.52 22.86 61.09 32.16 66.83 39.13 C 70.12 44.90 76.41 47.96 82.20 50.65 C 78.86 50.37 75.56 49.68 72.37 48.64 C 67.25 43.21 61.89 37.09 61.14 29.32 C 61.42 26.26 61.71 23.20 62.21 20.17 C 62.56 19.05 62.98 17.96 63.49 16.90 C 64.31 15.85 65.12 14.78 65.93 13.71 Z" />
<path fill="#a1e1a3" opacity="1.00" d=" M 101.52 14.22 L 102.04 13.75 C 102.86 14.80 103.68 15.84 104.52 16.87 C 105.06 17.92 105.52 19.00 105.91 20.12 C 106.27 23.18 106.63 26.26 106.82 29.34 C 106.48 37.27 100.51 43.07 95.59 48.62 C 92.43 49.68 89.15 50.39 85.83 50.67 C 92.82 47.69 99.58 43.00 102.98 35.97 C 105.04 29.01 103.22 21.79 101.60 14.95 L 101.52 14.22 Z" />
<path fill="#a1e1a3" opacity="1.00" d=" M 177.93 13.71 L 178.43 14.16 L 178.35 14.88 C 177.52 22.86 173.09 32.16 178.83 39.13 C 182.12 44.90 188.41 47.96 194.20 50.65 C 190.86 50.37 187.56 49.68 184.37 48.64 C 179.25 43.21 173.89 37.09 173.14 29.32 C 173.41 26.26 173.71 23.20 174.21 20.17 C 174.56 19.05 174.98 17.96 175.49 16.90 C 176.31 15.85 177.12 14.78 177.93 13.71 Z" />
<path fill="#a1e1a3" opacity="1.00" d=" M 213.52 14.22 L 214.04 13.76 C 214.85 14.80 215.68 15.84 216.52 16.87 C 217.06 17.92 217.52 19.00 217.91 20.12 C 218.26 23.18 218.63 26.26 218.82 29.34 C 218.48 37.27 212.51 43.07 207.59 48.62 C 204.43 49.68 201.15 50.39 197.83 50.67 C 204.82 47.69 211.58 43.00 214.98 35.97 C 217.04 29.01 215.22 21.79 213.60 14.95 L 213.52 14.22 Z" />
</g>
<g id="#a2e0a2ff">
<path fill="#a2e0a2" opacity="1.00" d=" M 122.05 13.62 L 122.61 14.05 L 122.61 14.75 C 121.07 21.20 119.64 27.76 120.30 34.43 C 120.32 34.91 120.36 35.88 120.38 36.37 C 120.21 37.79 121.47 39.21 122.94 38.98 L 123.38 39.67 C 124.64 41.71 126.01 43.69 127.66 45.43 C 129.48 47.44 132.07 48.50 134.62 49.26 C 138.10 50.54 141.92 50.65 145.37 49.22 C 147.88 48.43 150.12 46.96 152.12 45.29 C 154.02 43.77 155.88 42.20 157.75 40.65 L 158.44 40.12 C 158.20 40.46 157.73 41.16 157.49 41.51 C 156.16 43.58 154.86 45.67 153.56 47.77 C 152.55 48.57 151.53 49.35 150.47 50.08 C 143.60 51.52 136.40 51.50 129.52 50.09 C 128.46 49.35 127.44 48.55 126.44 47.74 C 125.05 45.75 123.64 43.78 122.23 41.81 C 120.59 39.54 118.90 37.31 117.18 35.10 C 118.54 33.79 117.84 31.55 116.05 31.09 C 116.43 28.76 116.83 26.43 117.23 24.10 C 118.15 22.99 118.92 21.17 117.67 19.98 C 118.44 18.96 119.19 17.93 119.92 16.88 C 120.64 15.80 121.35 14.72 122.05 13.62 Z" />
</g>
<g id="#a2dfa1fe">
<path fill="#a2dfa1" opacity="1.00" d=" M 157.36 14.08 L 157.94 13.64 C 158.64 14.73 159.35 15.81 160.08 16.88 C 160.80 17.93 161.56 18.96 162.33 19.98 C 161.08 21.17 161.84 22.98 162.76 24.10 C 163.17 26.44 163.58 28.77 163.97 31.11 C 162.21 31.56 161.47 33.74 162.77 35.08 C 161.32 36.75 159.83 38.39 158.44 40.12 L 158.23 39.17 C 159.38 38.43 159.81 37.38 159.54 36.03 C 159.56 35.60 159.60 34.75 159.62 34.33 C 160.78 27.67 159.12 21.19 157.38 14.79 L 157.36 14.08 Z" />
</g>
<g id="#3fcdbeff">
<path fill="#3fcdbe" opacity="1.00" d=" M 11.12 14.61 C 11.16 21.20 10.65 27.77 10.35 34.35 C 9.50 27.78 10.20 21.14 11.12 14.61 Z" />
<path fill="#3fcdbe" opacity="1.00" d=" M 45.56 34.35 C 45.35 27.78 44.75 21.22 44.93 14.64 C 45.78 21.16 46.48 27.80 45.56 34.35 Z" />
</g>
<g id="#4378cbff">
<path fill="#4378cb" opacity="1.00" d=" M 16.18 39.79 C 10.22 32.52 13.44 22.80 14.85 14.60 C 15.08 15.94 15.35 17.26 15.63 18.59 C 17.98 18.39 20.36 18.06 22.72 18.41 C 28.59 19.10 34.49 17.42 40.33 18.67 C 40.65 17.31 40.98 15.95 41.28 14.58 C 42.19 21.13 44.60 27.87 42.37 34.46 C 41.28 38.40 38.32 41.43 36.20 44.82 C 29.75 43.05 20.55 46.19 16.18 39.79 M 15.92 20.50 C 16.03 25.69 16.23 30.89 16.45 36.08 C 19.00 34.53 20.76 32.13 21.14 29.15 C 21.99 28.65 22.85 28.16 23.71 27.68 C 22.99 29.52 22.27 31.37 21.57 33.21 C 25.62 35.94 30.38 35.94 34.43 33.21 C 33.72 31.37 33.02 29.52 32.29 27.68 C 33.15 28.16 34.01 28.65 34.87 29.15 C 35.23 32.19 36.98 34.63 39.75 35.96 C 40.03 30.80 40.01 25.63 40.10 20.46 C 35.93 20.05 31.79 20.94 28.00 22.66 C 24.21 20.95 20.09 20.03 15.92 20.50 M 16.13 36.15 C 19.15 38.97 22.75 41.07 26.68 42.36 C 25.32 37.85 21.60 34.07 16.13 36.15 M 29.38 42.29 C 33.00 40.54 36.67 38.79 39.79 36.21 C 34.51 34.89 30.57 37.46 29.38 42.29 Z" />
</g>
<g id="#41cebdff">
<path fill="#41cebd" opacity="1.00" d=" M 66.35 14.88 C 66.19 20.37 64.98 25.93 65.70 31.41 C 67.55 37.92 71.57 44.27 78.23 46.68 C 86.53 50.11 96.67 45.10 99.96 36.93 C 104.45 30.35 101.61 22.23 101.60 14.95 C 103.22 21.79 105.04 29.01 102.98 35.97 C 99.58 43.00 92.82 47.69 85.83 50.67 C 84.62 50.76 83.41 50.75 82.20 50.65 C 76.41 47.96 70.12 44.90 66.83 39.13 C 61.09 32.16 65.52 22.86 66.35 14.88 Z" />
<path fill="#41cebd" opacity="1.00" d=" M 178.35 14.88 C 178.19 20.37 176.97 25.93 177.70 31.41 C 179.55 37.92 183.57 44.27 190.23 46.68 C 198.53 50.11 208.67 45.10 211.96 36.93 C 216.45 30.35 213.62 22.23 213.60 14.95 C 215.22 21.79 217.04 29.01 214.98 35.97 C 211.58 43.00 204.82 47.69 197.83 50.67 C 196.62 50.76 195.41 50.75 194.20 50.65 C 188.41 47.96 182.12 44.90 178.83 39.13 C 173.09 32.16 177.52 22.86 178.35 14.88 Z" />
</g>
<g id="#4377cbfe">
<path fill="#4377cb" opacity="1.00" d=" M 67.99 33.01 C 66.82 26.84 69.19 20.69 70.18 14.66 C 71.09 21.28 71.37 27.97 72.61 34.55 C 73.18 38.94 77.59 41.16 80.48 43.99 C 80.97 42.13 81.47 40.26 82.00 38.41 C 79.63 36.96 76.55 36.53 74.45 34.59 C 73.13 32.32 73.22 29.55 72.66 27.03 C 80.04 24.27 87.84 25.26 95.36 26.88 C 94.78 29.45 94.91 32.28 93.55 34.59 C 91.46 36.53 88.35 36.97 86.00 38.41 C 86.53 40.29 87.04 42.18 87.54 44.07 C 90.45 41.54 93.75 39.02 95.30 35.39 C 97.09 28.56 96.06 21.30 98.09 14.51 C 98.87 19.65 100.82 24.70 100.74 29.95 C 99.48 35.82 95.72 41.37 90.28 44.10 C 85.79 44.76 80.74 45.34 76.40 43.58 C 72.53 41.17 69.93 37.03 67.99 33.01 M 73.83 31.92 C 80.23 35.77 87.69 35.18 94.20 31.96 C 90.80 23.72 77.25 23.71 73.83 31.92 Z" />
</g>
<g id="#40cfbeff">
<path fill="#40cfbe" opacity="1.00" d=" M 122.61 14.75 C 122.67 16.58 122.79 18.41 122.83 20.24 L 122.75 20.97 C 121.97 25.46 120.93 29.91 120.30 34.43 C 119.64 27.76 121.07 21.20 122.61 14.75 Z" />
<path fill="#40cfbe" opacity="1.00" d=" M 157.44 20.15 C 157.37 18.36 157.40 16.58 157.38 14.79 C 159.12 21.19 160.78 27.67 159.62 34.33 C 159.10 29.83 158.24 25.38 157.53 20.91 L 157.44 20.15 Z" />
<path fill="#40cfbe" opacity="1.00" d=" M 134.62 49.26 C 138.20 49.24 141.79 49.24 145.37 49.22 C 141.92 50.65 138.10 50.54 134.62 49.26 Z" />
</g>
<g id="#4477caff">
<path fill="#4477ca" opacity="1.00" d=" M 122.83 20.24 C 123.86 18.27 125.00 16.37 126.02 14.40 C 125.09 22.43 125.14 30.81 127.93 38.50 C 129.54 42.82 134.29 44.44 138.31 45.67 C 138.33 42.88 138.77 40.01 138.00 37.29 C 135.11 35.86 132.00 34.96 128.99 33.83 C 128.99 31.21 128.99 28.59 128.99 25.97 C 132.39 24.91 135.78 23.54 139.37 23.36 C 143.44 23.19 147.27 24.81 151.09 25.95 C 150.86 28.70 150.68 31.44 150.52 34.19 C 147.57 35.33 144.53 36.30 141.77 37.85 C 141.30 40.43 141.64 43.07 141.73 45.67 C 145.54 44.45 149.99 43.01 151.82 39.08 C 155.16 31.20 154.52 22.33 153.60 14.03 C 154.91 16.05 156.23 18.07 157.44 20.15 L 157.53 20.91 C 156.97 26.54 158.01 32.56 156.02 37.98 C 152.46 43.69 146.00 48.14 138.95 47.04 C 132.46 47.52 128.02 42.06 122.94 38.98 L 123.02 38.32 C 123.51 32.55 122.70 26.75 122.75 20.97 L 122.83 20.24 M 129.01 30.77 C 135.90 34.42 144.10 34.42 150.99 30.77 C 147.36 22.39 132.64 22.39 129.01 30.77 Z" />
</g>
<g id="#4476cafe">
<path fill="#4476ca" opacity="1.00" d=" M 179.99 33.01 C 178.81 26.83 181.20 20.69 182.20 14.65 C 182.75 18.96 183.20 23.28 183.48 27.62 C 191.53 24.07 200.26 25.16 208.50 27.46 C 208.70 23.11 208.76 18.70 210.08 14.51 C 210.86 19.65 212.82 24.70 212.75 29.95 C 211.48 35.82 207.72 41.37 202.28 44.10 C 197.79 44.76 192.73 45.34 188.40 43.58 C 184.53 41.17 181.93 37.03 179.99 33.01 M 187.09 29.25 C 186.38 31.56 188.33 32.92 190.12 33.84 C 186.34 34.86 192.30 37.93 190.91 34.25 C 194.02 35.89 197.98 35.89 201.09 34.25 C 199.70 37.93 205.66 34.86 201.88 33.84 C 203.66 32.92 205.60 31.55 204.92 29.25 C 200.40 24.63 191.61 24.69 187.09 29.25 M 185.22 28.99 C 184.16 29.57 184.16 31.43 185.22 32.01 C 187.02 32.35 187.02 28.65 185.22 28.99 M 206.22 28.99 C 205.16 29.57 205.16 31.43 206.22 32.01 C 208.02 32.35 208.02 28.65 206.22 28.99 M 185.89 35.37 C 185.61 35.96 185.34 36.55 185.09 37.15 C 187.77 38.82 190.41 40.58 193.04 42.34 C 193.44 40.67 193.83 38.99 194.20 37.31 C 191.41 36.68 188.64 36.10 185.89 35.37 M 197.76 37.47 C 198.16 39.10 198.56 40.72 198.98 42.33 C 201.60 40.57 204.23 38.81 206.91 37.15 C 206.65 36.57 206.39 36.00 206.13 35.43 C 203.39 36.24 200.53 36.86 197.76 37.47 Z" />
</g>
<g id="#ecefa8ff">
<path fill="#ecefa8" opacity="1.00" d=" M 5.32 29.33 C 4.63 24.54 5.63 19.48 8.50 15.52 C 8.39 16.05 8.19 17.09 8.09 17.61 C 6.66 21.38 5.94 25.36 5.32 29.33 Z" />
</g>
<g id="#7ba557ff">
<path fill="#7ba557" opacity="1.00" d=" M 54.89 16.87 C 55.55 16.62 56.89 16.10 57.55 15.85 C 57.35 16.48 56.93 17.75 56.72 18.39 C 56.20 18.99 55.58 19.49 55.09 18.52 C 55.04 18.11 54.94 17.28 54.89 16.87 Z" />
<path fill="#7ba557" opacity="1.00" d=" M 110.86 16.88 C 111.53 16.62 112.88 16.11 113.55 15.85 C 113.34 16.49 112.93 17.76 112.72 18.40 C 112.19 18.98 111.54 19.59 111.03 18.57 C 110.99 18.14 110.91 17.30 110.86 16.88 Z" />
<path fill="#7ba557" opacity="1.00" d=" M 166.45 15.85 C 167.12 16.11 168.46 16.62 169.14 16.88 C 169.09 17.30 169.01 18.14 168.97 18.56 C 168.46 19.59 167.81 18.98 167.28 18.40 C 167.07 17.76 166.66 16.49 166.45 15.85 Z" />
</g>
<g id="#eceea8ff">
<path fill="#eceea8" opacity="1.00" d=" M 47.17 17.55 C 48.19 17.48 49.21 17.42 50.24 17.36 C 50.50 21.33 50.93 25.31 50.57 29.28 C 49.92 25.26 49.10 21.17 47.17 17.55 Z" />
</g>
<g id="#dbd689ff">
<path fill="#dbd689" opacity="1.00" d=" M 50.24 17.36 C 51.11 17.31 51.98 17.26 52.86 17.20 C 53.07 19.42 53.30 21.64 53.52 23.86 C 53.84 27.50 54.03 31.16 54.14 34.82 C 54.14 35.72 54.12 36.61 54.07 37.50 C 53.73 38.91 53.35 40.30 53.00 41.71 C 52.95 40.06 52.81 38.41 52.69 36.76 C 49.54 41.57 46.19 46.41 41.49 49.84 C 43.82 46.87 46.17 43.91 48.40 40.87 C 47.16 41.58 45.92 42.29 44.70 43.05 C 46.23 40.48 47.56 37.79 49.06 35.21 C 49.83 34.02 50.48 32.69 50.45 31.24 C 50.48 30.75 50.54 29.77 50.57 29.28 C 50.93 25.31 50.50 21.33 50.24 17.36 Z" />
</g>
<g id="#ddd88bff">
<path fill="#ddd88b" opacity="1.00" d=" M 59.38 18.51 C 60.41 18.11 62.46 17.30 63.49 16.90 C 62.98 17.96 62.56 19.05 62.21 20.17 C 61.55 23.17 60.83 26.23 61.14 29.32 C 61.89 37.09 67.25 43.21 72.37 48.64 C 78.20 55.30 89.84 55.51 95.59 48.62 C 100.51 43.07 106.48 37.27 106.82 29.34 C 107.11 26.24 106.50 23.15 105.91 20.12 C 105.52 19.00 105.06 17.92 104.52 16.87 C 105.54 17.28 107.60 18.10 108.62 18.51 C 109.12 20.25 109.38 22.05 109.61 23.84 C 109.96 27.54 110.05 31.27 110.14 34.99 C 110.14 35.84 110.12 36.68 110.08 37.53 C 109.74 38.91 109.37 40.29 109.02 41.68 C 108.89 39.96 108.68 38.24 108.47 36.53 C 108.23 36.54 107.75 36.55 107.51 36.56 C 105.73 41.66 102.31 45.97 98.32 49.53 C 96.57 51.19 94.95 52.98 93.34 54.77 C 92.82 54.83 91.79 54.95 91.27 55.01 C 86.21 54.63 81.14 54.60 76.07 54.45 C 75.67 54.43 74.87 54.40 74.47 54.38 C 72.93 52.69 71.40 51.00 69.76 49.41 C 65.54 45.76 61.94 41.50 58.93 36.82 C 58.91 38.44 58.89 40.07 58.93 41.69 C 58.59 40.31 58.23 38.93 57.89 37.55 C 57.85 36.64 57.83 35.73 57.83 34.82 C 57.93 31.16 58.04 27.49 58.38 23.84 C 58.62 22.05 58.88 20.25 59.38 18.51 M 64.27 41.54 C 63.13 42.41 64.59 44.38 65.73 43.46 C 66.87 42.58 65.41 40.62 64.27 41.54 M 103.08 41.31 C 101.66 41.24 101.40 43.68 102.92 43.69 C 104.33 43.76 104.60 41.32 103.08 41.31 Z" />
<path fill="#ddd88b" opacity="1.00" d=" M 171.37 18.51 C 172.40 18.11 174.46 17.30 175.49 16.90 C 174.98 17.96 174.56 19.05 174.21 20.17 C 173.55 23.17 172.84 26.23 173.14 29.32 C 173.89 37.09 179.25 43.21 184.37 48.64 C 190.20 55.30 201.84 55.51 207.59 48.62 C 212.51 43.07 218.48 37.27 218.82 29.34 C 219.11 26.24 218.49 23.15 217.91 20.12 C 217.52 19.00 217.06 17.92 216.52 16.87 C 217.55 17.28 219.60 18.11 220.62 18.52 C 221.13 20.40 221.35 22.33 221.61 24.25 C 222.06 28.45 222.52 32.65 223.01 36.85 C 222.42 38.43 221.84 40.02 221.30 41.62 C 220.90 39.95 220.52 38.28 220.15 36.61 C 219.99 36.59 219.68 36.56 219.53 36.54 C 217.74 41.64 214.32 45.96 210.32 49.53 C 208.57 51.18 206.95 52.98 205.34 54.77 C 204.82 54.83 203.79 54.94 203.27 55.00 C 198.21 54.63 193.13 54.60 188.07 54.45 C 187.67 54.43 186.87 54.40 186.47 54.38 C 184.93 52.69 183.40 51.00 181.76 49.41 C 177.54 45.76 173.94 41.50 170.92 36.82 C 170.91 38.44 170.89 40.06 170.94 41.68 C 170.60 40.31 170.25 38.94 169.92 37.56 C 169.88 36.70 169.86 35.84 169.86 34.98 C 169.94 31.26 170.04 27.54 170.39 23.84 C 170.62 22.05 170.88 20.25 171.37 18.51 M 176.27 41.54 C 175.13 42.41 176.59 44.38 177.73 43.46 C 178.87 42.58 177.41 40.62 176.27 41.54 M 215.08 41.31 C 213.66 41.24 213.39 43.68 214.92 43.69 C 216.33 43.76 216.60 41.32 215.08 41.31 Z" />
</g>
<g id="#dcd68aff">
<path fill="#dcd68a" opacity="1.00" d=" M 114.95 17.59 C 116.60 17.35 118.26 17.11 119.92 16.88 C 119.19 17.93 118.44 18.96 117.67 19.98 C 116.49 21.06 116.72 22.76 117.23 24.10 C 116.83 26.43 116.43 28.76 116.05 31.09 C 115.65 32.52 116.18 34.04 117.18 35.10 C 118.90 37.31 120.59 39.54 122.23 41.81 C 121.58 41.69 120.27 41.45 119.62 41.33 C 121.93 44.09 124.26 46.83 126.57 49.60 C 121.79 46.20 117.92 41.81 114.94 36.80 C 114.93 38.42 114.90 40.04 114.95 41.67 C 114.63 40.28 114.30 38.89 113.99 37.50 C 113.84 35.05 113.95 32.60 114.03 30.15 C 114.12 28.05 114.28 25.96 114.47 23.87 C 114.69 21.78 114.86 19.69 114.95 17.59 Z" />
<path fill="#dcd68a" opacity="1.00" d=" M 160.08 16.88 C 161.73 17.11 163.39 17.35 165.05 17.59 C 165.14 19.69 165.31 21.78 165.53 23.87 C 165.72 25.96 165.88 28.05 165.97 30.15 C 166.05 32.61 166.16 35.07 165.99 37.52 C 165.66 38.91 165.31 40.29 164.97 41.68 C 164.93 40.03 164.81 38.39 164.70 36.76 C 161.55 41.56 158.22 46.41 153.48 49.79 C 155.80 46.99 158.15 44.20 160.47 41.40 C 159.73 41.43 158.24 41.48 157.49 41.51 C 157.73 41.16 158.20 40.46 158.44 40.12 C 159.83 38.39 161.32 36.75 162.77 35.08 C 163.84 34.08 164.39 32.54 163.97 31.11 C 163.58 28.77 163.17 26.44 162.76 24.10 C 163.27 22.76 163.51 21.06 162.33 19.98 C 161.56 18.96 160.80 17.93 160.08 16.88 Z" />
</g>
<g id="#eef1adff">
<path fill="#eef1ad" opacity="1.00" d=" M 61.14 29.32 C 60.83 26.23 61.55 23.17 62.21 20.17 C 61.71 23.20 61.42 26.26 61.14 29.32 Z" />
<path fill="#eef1ad" opacity="1.00" d=" M 105.91 20.12 C 106.50 23.15 107.11 26.24 106.82 29.34 C 106.63 26.26 106.27 23.18 105.91 20.12 Z" />
<path fill="#eef1ad" opacity="1.00" d=" M 173.14 29.32 C 172.84 26.23 173.55 23.17 174.21 20.17 C 173.71 23.20 173.41 26.26 173.14 29.32 Z" />
<path fill="#eef1ad" opacity="1.00" d=" M 217.91 20.12 C 218.49 23.15 219.11 26.24 218.82 29.34 C 218.63 26.26 218.26 23.18 217.91 20.12 Z" />
<path fill="#eef1ad" opacity="1.00" d=" M 7.71 40.85 C 8.91 41.57 10.12 42.29 11.29 43.06 C 12.38 44.61 13.46 46.16 14.48 47.76 L 14.83 48.48 L 14.56 49.65 C 12.26 46.73 9.96 43.81 7.71 40.85 Z" />
<path fill="#eef1ad" opacity="1.00" d=" M 44.70 43.05 C 45.92 42.29 47.16 41.58 48.40 40.87 C 46.17 43.91 43.82 46.87 41.49 49.84 L 41.15 48.54 L 41.52 47.75 C 42.54 46.16 43.61 44.60 44.70 43.05 Z" />
</g>
<g id="#eef2adff">
<path fill="#eef2ad" opacity="1.00" d=" M 117.23 24.10 C 116.72 22.76 116.49 21.06 117.67 19.98 C 118.92 21.17 118.15 22.99 117.23 24.10 Z" />
<path fill="#eef2ad" opacity="1.00" d=" M 162.33 19.98 C 163.51 21.06 163.27 22.76 162.76 24.10 C 161.84 22.98 161.08 21.17 162.33 19.98 Z" />
<path fill="#eef2ad" opacity="1.00" d=" M 5.51 31.27 C 7.54 31.37 8.51 33.83 6.95 35.21 C 6.19 34.02 5.54 32.71 5.51 31.27 Z" />
<path fill="#eef2ad" opacity="1.00" d=" M 49.06 35.21 C 47.52 33.85 48.45 31.40 50.45 31.24 C 50.48 32.69 49.83 34.02 49.06 35.21 Z" />
<path fill="#eef2ad" opacity="1.00" d=" M 116.05 31.09 C 117.84 31.55 118.54 33.79 117.18 35.10 C 116.18 34.04 115.65 32.52 116.05 31.09 Z" />
<path fill="#eef2ad" opacity="1.00" d=" M 162.77 35.08 C 161.47 33.74 162.21 31.56 163.97 31.11 C 164.39 32.54 163.84 34.08 162.77 35.08 Z" />
<path fill="#eef2ad" opacity="1.00" d=" M 64.27 41.54 C 65.41 40.62 66.87 42.58 65.73 43.46 C 64.59 44.38 63.13 42.41 64.27 41.54 Z" />
<path fill="#eef2ad" opacity="1.00" d=" M 103.08 41.31 C 104.60 41.32 104.33 43.76 102.92 43.69 C 101.40 43.68 101.66 41.24 103.08 41.31 Z" />
<path fill="#eef2ad" opacity="1.00" d=" M 176.27 41.54 C 177.41 40.62 178.87 42.58 177.73 43.46 C 176.59 44.38 175.13 42.41 176.27 41.54 Z" />
<path fill="#eef2ad" opacity="1.00" d=" M 215.08 41.31 C 216.60 41.32 216.33 43.76 214.92 43.69 C 213.39 43.68 213.66 41.24 215.08 41.31 Z" />
</g>
<g id="#1dacc1ff">
<path fill="#1dacc1" opacity="1.00" d=" M 157.53 20.91 C 158.24 25.38 159.10 29.83 159.62 34.33 C 159.60 34.75 159.56 35.60 159.54 36.03 C 158.19 36.71 157.76 37.75 158.23 39.17 L 158.44 40.12 L 157.75 40.65 C 155.80 42.10 153.95 43.68 152.12 45.29 C 150.12 46.96 147.88 48.43 145.37 49.22 C 141.79 49.24 138.20 49.24 134.62 49.26 C 132.07 48.50 129.48 47.44 127.66 45.43 C 126.15 43.57 124.73 41.65 123.38 39.67 L 122.94 38.98 C 128.02 42.06 132.46 47.52 138.95 47.04 C 146.00 48.14 152.46 43.69 156.02 37.98 C 158.01 32.56 156.97 26.54 157.53 20.91 Z" />
</g>
<g id="#b0ae6eff">
<path fill="#b0ae6e" opacity="1.00" d=" M 0.00 22.25 C 0.80 27.02 1.48 31.81 1.86 36.64 C 1.39 36.27 0.46 35.54 0.00 35.18 L 0.00 34.67 C 1.91 34.73 1.87 32.02 0.00 32.03 L 0.00 22.25 Z" />
<path fill="#b0ae6e" opacity="1.00" d=" M 221.61 24.25 C 222.21 23.89 223.40 23.17 224.00 22.81 L 224.00 31.96 C 222.12 31.94 222.08 34.66 224.00 34.59 L 224.00 34.92 C 223.75 35.40 223.26 36.37 223.01 36.85 C 222.52 32.65 222.06 28.45 221.61 24.25 Z" />
</g>
<g id="#b8af71ff">
<path fill="#b8af71" opacity="1.00" d=" M 53.52 23.86 C 55.14 23.84 56.76 23.83 58.38 23.84 C 58.04 27.49 57.93 31.16 57.83 34.82 L 56.83 34.99 C 56.85 34.27 56.87 32.83 56.89 32.12 C 58.68 28.39 53.32 28.39 55.11 32.12 C 55.13 32.83 55.15 34.27 55.17 34.99 L 54.14 34.82 C 54.03 31.16 53.84 27.50 53.52 23.86 Z" />
<path fill="#b8af71" opacity="1.00" d=" M 109.61 23.84 C 111.23 23.84 112.85 23.85 114.47 23.87 C 114.28 25.96 114.12 28.05 114.03 30.15 C 113.36 29.88 112.02 29.36 111.35 29.10 C 111.22 29.87 110.96 31.43 110.84 32.21 C 110.91 32.90 111.06 34.29 111.13 34.98 L 110.14 34.99 C 110.05 31.27 109.96 27.54 109.61 23.84 Z" />
<path fill="#b8af71" opacity="1.00" d=" M 165.53 23.87 C 167.15 23.85 168.77 23.84 170.39 23.84 C 170.04 27.54 169.94 31.26 169.86 34.98 L 168.87 34.98 C 168.94 34.29 169.09 32.90 169.16 32.21 C 169.04 31.43 168.78 29.87 168.65 29.10 C 167.98 29.36 166.64 29.89 165.97 30.15 C 165.88 28.05 165.72 25.96 165.53 23.87 Z" />
</g>
<g id="#3c6bbdff">
<path fill="#3c6bbd" opacity="1.00" d=" M 129.01 30.77 C 132.64 22.39 147.36 22.39 150.99 30.77 C 144.10 34.42 135.90 34.42 129.01 30.77 Z" />
<path fill="#3c6bbd" opacity="1.00" d=" M 73.83 31.92 C 77.25 23.71 90.80 23.72 94.20 31.96 C 87.69 35.18 80.23 35.77 73.83 31.92 Z" />
</g>
<g id="#3d6bbdff">
<path fill="#3d6bbd" opacity="1.00" d=" M 187.09 29.25 C 191.61 24.69 200.40 24.63 204.92 29.25 C 205.60 31.55 203.66 32.92 201.88 33.84 L 201.09 34.25 C 197.98 35.89 194.02 35.89 190.91 34.25 L 190.12 33.84 C 188.33 32.92 186.38 31.56 187.09 29.25 Z" />
</g>
<g id="#9da360ff">
<path fill="#9da360" opacity="1.00" d=" M 111.35 29.10 C 112.02 29.36 113.36 29.88 114.03 30.15 C 113.95 32.60 113.84 35.05 113.99 37.50 C 112.69 37.43 111.38 37.45 110.08 37.53 C 110.12 36.68 110.14 35.84 110.14 34.99 L 111.13 34.98 C 114.07 35.71 113.55 30.89 110.84 32.21 C 110.96 31.43 111.22 29.87 111.35 29.10 Z" />
<path fill="#9da360" opacity="1.00" d=" M 165.97 30.15 C 166.64 29.89 167.98 29.36 168.65 29.10 C 168.78 29.87 169.04 31.43 169.16 32.21 C 166.45 30.88 165.93 35.72 168.87 34.98 L 169.86 34.98 C 169.86 35.84 169.88 36.70 169.92 37.56 C 168.62 37.41 167.29 37.41 165.99 37.52 C 166.16 35.07 166.05 32.61 165.97 30.15 Z" />
</g>
<g id="#596753ff">
<path fill="#596753" opacity="1.00" d=" M 0.00 32.03 C 1.87 32.02 1.91 34.73 0.00 34.67 L 0.00 32.03 Z" />
<path fill="#596753" opacity="1.00" d=" M 55.11 32.12 C 55.56 32.12 56.44 32.12 56.89 32.12 C 56.87 32.83 56.85 34.27 56.83 34.99 C 56.41 34.99 55.58 34.99 55.17 34.99 C 55.15 34.27 55.13 32.83 55.11 32.12 Z" />
<path fill="#596753" opacity="1.00" d=" M 110.84 32.21 C 113.55 30.89 114.07 35.71 111.13 34.98 C 111.06 34.29 110.91 32.90 110.84 32.21 Z" />
<path fill="#596753" opacity="1.00" d=" M 168.87 34.98 C 165.93 35.72 166.45 30.88 169.16 32.21 C 169.09 32.90 168.94 34.29 168.87 34.98 Z" />
<path fill="#596753" opacity="1.00" d=" M 224.00 34.59 C 222.08 34.66 222.12 31.94 224.00 31.96 L 224.00 34.59 Z" />
</g>
<g id="#9e935bff">
<path fill="#9e935b" opacity="1.00" d=" M 54.14 34.82 L 55.17 34.99 C 55.58 34.99 56.41 34.99 56.83 34.99 L 57.83 34.82 C 57.83 35.73 57.85 36.64 57.89 37.55 C 56.62 37.43 55.34 37.43 54.07 37.50 C 54.12 36.61 54.14 35.72 54.14 34.82 Z" />
</g>
<g id="#87ae5fff">
<path fill="#87ae5f" opacity="1.00" d=" M 0.00 35.18 C 0.46 35.54 1.39 36.27 1.86 36.64 C 2.04 38.31 2.36 39.97 2.76 41.60 C 2.97 42.43 3.19 43.26 3.41 44.08 C 3.61 45.49 4.42 46.26 5.85 46.39 C 6.96 48.08 8.08 49.76 9.32 51.36 C 11.90 53.09 14.91 54.21 18.01 54.50 C 18.48 54.52 19.44 54.54 19.91 54.56 C 19.93 54.92 19.97 55.64 19.98 56.00 L 6.70 56.00 C 5.26 55.33 3.84 54.62 2.41 53.93 C 3.52 52.00 4.58 50.05 5.58 48.06 C 4.71 49.13 3.85 50.20 2.99 51.28 C 1.97 50.32 0.97 49.35 0.00 48.35 L 0.00 35.18 M 7.27 52.54 C 6.13 53.41 7.59 55.38 8.73 54.46 C 9.87 53.58 8.41 51.62 7.27 52.54 Z" />
</g>
<g id="#40cebefe">
<path fill="#40cebe" opacity="1.00" d=" M 10.74 36.02 C 13.44 39.64 16.32 43.76 20.90 45.02 C 25.31 45.95 29.90 45.83 34.33 45.20 C 39.30 44.28 42.42 39.85 45.19 36.03 C 43.43 39.98 41.81 45.02 37.23 46.35 C 31.56 48.10 25.27 47.96 19.53 46.61 C 14.52 45.52 12.62 40.22 10.74 36.02 Z" />
</g>
<g id="#86af60ff">
<path fill="#86af60" opacity="1.00" d=" M 54.07 37.50 C 55.34 37.43 56.62 37.43 57.89 37.55 C 58.23 38.93 58.59 40.31 58.93 41.69 C 59.11 42.53 59.31 43.37 59.52 44.20 C 59.75 45.76 60.60 46.37 62.07 46.00 C 62.97 47.88 63.99 49.71 65.17 51.43 C 67.94 53.21 71.18 54.18 74.47 54.38 C 74.87 54.40 75.67 54.43 76.07 54.45 C 76.04 54.84 75.99 55.61 75.96 56.00 L 63.00 56.00 C 61.38 55.30 59.79 54.55 58.19 53.82 C 59.35 52.32 60.50 50.81 61.64 49.30 C 57.91 49.99 54.08 50.00 50.35 49.32 C 51.54 50.87 52.74 52.41 53.94 53.95 C 51.64 53.83 49.34 53.73 47.04 53.63 C 48.01 54.42 48.98 55.21 49.95 56.00 L 37.45 56.00 C 36.96 55.71 35.97 55.12 35.48 54.83 C 36.07 54.83 37.26 54.82 37.86 54.82 C 40.99 54.25 43.90 52.85 46.71 51.41 C 47.95 49.75 49.04 47.99 50.12 46.22 C 51.55 46.21 52.36 45.54 52.56 44.22 C 52.70 43.38 52.85 42.54 53.00 41.71 C 53.35 40.30 53.73 38.91 54.07 37.50 M 63.27 52.54 C 62.13 53.41 63.59 55.38 64.73 54.46 C 65.87 53.58 64.41 51.62 63.27 52.54 Z" />
<path fill="#86af60" opacity="1.00" d=" M 110.08 37.53 C 111.38 37.45 112.69 37.43 113.99 37.50 C 114.30 38.89 114.63 40.28 114.95 41.67 C 115.12 42.51 115.31 43.36 115.51 44.20 C 115.73 45.76 116.58 46.36 118.06 46.01 C 118.96 47.89 119.99 49.71 121.18 51.42 C 123.84 53.09 126.88 54.18 130.02 54.50 C 130.49 54.51 131.44 54.54 131.91 54.55 C 131.93 54.92 131.98 55.64 132.00 56.00 L 119.00 56.00 C 117.38 55.30 115.79 54.55 114.19 53.82 C 115.35 52.32 116.50 50.81 117.64 49.30 C 113.91 49.99 110.08 50.00 106.35 49.32 C 107.53 50.87 108.74 52.41 109.94 53.95 C 107.64 53.83 105.34 53.73 103.04 53.63 C 104.01 54.42 104.99 55.21 105.97 56.00 L 93.70 56.00 C 93.09 55.75 91.88 55.25 91.27 55.01 C 91.79 54.95 92.82 54.83 93.34 54.77 C 96.66 54.33 99.76 52.98 102.70 51.41 C 103.93 49.80 105.04 48.09 106.15 46.39 C 107.57 46.21 108.36 45.42 108.50 44.00 C 108.68 43.23 108.85 42.45 109.02 41.68 C 109.37 40.29 109.74 38.91 110.08 37.53 M 119.27 52.54 C 118.13 53.41 119.59 55.38 120.73 54.46 C 121.87 53.58 120.41 51.62 119.27 52.54 Z" />
<path fill="#86af60" opacity="1.00" d=" M 165.99 37.52 C 167.29 37.41 168.62 37.41 169.92 37.56 C 170.25 38.94 170.60 40.31 170.94 41.68 C 171.12 42.52 171.31 43.36 171.51 44.20 C 171.74 45.76 172.59 46.36 174.07 46.00 C 174.97 47.89 175.98 49.71 177.17 51.43 C 179.94 53.21 183.18 54.18 186.47 54.38 C 186.87 54.40 187.67 54.43 188.07 54.45 C 188.04 54.84 187.99 55.61 187.96 56.00 L 175.00 56.00 C 173.38 55.30 171.79 54.55 170.19 53.82 C 171.35 52.32 172.50 50.81 173.64 49.30 C 169.91 49.99 166.08 50.00 162.35 49.32 C 163.53 50.87 164.74 52.41 165.94 53.95 C 163.64 53.83 161.34 53.73 159.04 53.63 C 160.00 54.42 160.98 55.21 161.95 56.00 L 149.45 56.00 C 148.96 55.71 147.97 55.12 147.48 54.83 C 148.07 54.83 149.26 54.82 149.85 54.82 C 152.99 54.25 155.88 52.85 158.68 51.40 C 159.94 49.80 161.04 48.10 162.15 46.40 C 163.58 46.20 164.36 45.39 164.49 43.99 C 164.65 43.22 164.81 42.45 164.97 41.68 C 165.31 40.29 165.66 38.91 165.99 37.52 M 175.27 52.54 C 174.13 53.41 175.59 55.38 176.73 54.46 C 177.87 53.58 176.41 51.62 175.27 52.54 Z" />
</g>
<g id="#a39e6aff">
<path fill="#a39e6a" opacity="1.00" d=" M 107.51 36.56 C 107.75 36.55 108.23 36.54 108.47 36.53 C 108.68 38.24 108.89 39.96 109.02 41.68 C 108.85 42.45 108.68 43.23 108.50 44.00 C 107.10 44.17 106.31 44.97 106.15 46.39 C 105.04 48.09 103.93 49.80 102.70 51.41 C 101.16 51.56 99.62 51.71 98.08 51.86 C 98.14 51.28 98.26 50.11 98.32 49.53 C 102.31 45.97 105.73 41.66 107.51 36.56 Z" />
<path fill="#a39e6a" opacity="1.00" d=" M 219.53 36.54 C 219.68 36.56 219.99 36.59 220.15 36.61 C 220.52 38.28 220.90 39.95 221.30 41.62 C 221.02 42.49 220.76 43.37 220.52 44.25 C 219.13 44.05 218.30 44.71 218.05 46.22 C 217.00 47.99 215.94 49.76 214.74 51.43 C 213.18 51.57 211.63 51.72 210.08 51.86 C 210.14 51.28 210.26 50.11 210.32 49.53 C 214.32 45.96 217.74 41.64 219.53 36.54 Z" />
</g>
<g id="#37c5bfff">
<path fill="#37c5bf" opacity="1.00" d=" M 120.38 36.37 C 121.58 36.57 122.46 37.22 123.02 38.32 L 122.94 38.98 C 121.47 39.21 120.21 37.79 120.38 36.37 Z" />
</g>
<g id="#41cfbeff">
<path fill="#41cfbe" opacity="1.00" d=" M 158.23 39.17 C 157.76 37.75 158.19 36.71 159.54 36.03 C 159.81 37.38 159.38 38.43 158.23 39.17 Z" />
</g>
<g id="#85ae5fff">
<path fill="#85ae5f" opacity="1.00" d=" M 223.01 36.85 C 223.26 36.37 223.75 35.40 224.00 34.92 L 224.00 48.34 C 223.03 49.34 222.03 50.30 221.03 51.26 C 220.15 50.21 219.26 49.16 218.38 48.12 C 219.43 50.09 220.54 52.04 221.68 53.97 C 219.36 53.94 217.04 53.92 214.73 53.90 C 216.04 54.62 217.36 55.34 218.71 56.00 L 205.71 56.00 C 205.10 55.75 203.88 55.25 203.27 55.00 C 203.79 54.94 204.82 54.83 205.34 54.77 C 208.67 54.32 211.78 52.98 214.74 51.43 C 215.94 49.76 217.00 47.99 218.05 46.22 C 219.43 46.21 220.25 45.55 220.52 44.25 C 220.76 43.37 221.02 42.49 221.30 41.62 C 221.84 40.02 222.42 38.43 223.01 36.85 Z" />
</g>
<g id="#a29d6aff">
<path fill="#a29d6a" opacity="1.00" d=" M 3.27 36.96 C 5.98 42.04 9.89 46.29 14.56 49.65 C 14.42 50.23 14.15 51.38 14.01 51.96 C 12.44 51.76 10.88 51.56 9.32 51.36 C 8.08 49.76 6.96 48.08 5.85 46.39 C 5.63 44.97 4.82 44.20 3.41 44.08 C 3.19 43.26 2.97 42.43 2.76 41.60 C 2.94 40.05 3.10 38.51 3.27 36.96 Z" />
<path fill="#a29d6a" opacity="1.00" d=" M 41.49 49.84 C 46.19 46.41 49.54 41.57 52.69 36.76 C 52.81 38.41 52.95 40.06 53.00 41.71 C 52.85 42.54 52.70 43.38 52.56 44.22 C 51.19 44.08 50.38 44.75 50.12 46.22 C 49.04 47.99 47.95 49.75 46.71 51.41 C 45.16 51.58 43.61 51.75 42.06 51.92 C 41.92 51.40 41.64 50.36 41.49 49.84 Z" />
<path fill="#a29d6a" opacity="1.00" d=" M 58.93 36.82 C 61.94 41.50 65.54 45.76 69.76 49.41 C 69.80 50.02 69.88 51.25 69.92 51.86 C 68.34 51.72 66.75 51.57 65.17 51.43 C 63.99 49.71 62.97 47.88 62.07 46.00 C 61.65 44.81 60.80 44.21 59.52 44.20 C 59.31 43.37 59.11 42.53 58.93 41.69 C 58.89 40.07 58.91 38.44 58.93 36.82 Z" />
<path fill="#a29d6a" opacity="1.00" d=" M 114.94 36.80 C 117.92 41.81 121.79 46.20 126.57 49.60 C 126.44 50.19 126.18 51.36 126.05 51.95 C 124.43 51.77 122.80 51.59 121.18 51.42 C 119.99 49.71 118.96 47.89 118.06 46.01 C 117.64 44.82 116.79 44.21 115.51 44.20 C 115.31 43.36 115.12 42.51 114.95 41.67 C 114.90 40.04 114.93 38.42 114.94 36.80 Z" />
<path fill="#a29d6a" opacity="1.00" d=" M 153.48 49.79 C 158.22 46.41 161.55 41.56 164.70 36.76 C 164.81 38.39 164.93 40.03 164.97 41.68 C 164.81 42.45 164.65 43.22 164.49 43.99 C 163.08 44.17 162.30 44.97 162.15 46.40 C 161.04 48.10 159.94 49.80 158.68 51.40 C 157.12 51.58 155.56 51.76 154.01 51.94 C 153.88 51.40 153.61 50.33 153.48 49.79 Z" />
<path fill="#a29d6a" opacity="1.00" d=" M 170.92 36.82 C 173.94 41.50 177.54 45.76 181.76 49.41 C 181.80 50.02 181.88 51.25 181.92 51.86 C 180.33 51.72 178.75 51.57 177.17 51.43 C 175.98 49.71 174.97 47.89 174.07 46.00 C 173.65 44.81 172.80 44.21 171.51 44.20 C 171.31 43.36 171.12 42.52 170.94 41.68 C 170.89 40.06 170.91 38.44 170.92 36.82 Z" />
</g>
<g id="#47ccbbff">
<path fill="#47ccbb" opacity="1.00" d=" M 123.38 39.67 C 124.73 41.65 126.15 43.57 127.66 45.43 C 126.01 43.69 124.64 41.71 123.38 39.67 Z" />
<path fill="#47ccbb" opacity="1.00" d=" M 152.12 45.29 C 153.95 43.68 155.80 42.10 157.75 40.65 C 155.88 42.20 154.02 43.77 152.12 45.29 Z" />
</g>
<g id="#eef1adfe">
<path fill="#eef1ad" opacity="1.00" d=" M 119.62 41.33 C 120.27 41.45 121.58 41.69 122.23 41.81 C 123.64 43.78 125.05 45.75 126.44 47.74 L 126.80 48.47 L 126.57 49.60 C 124.26 46.83 121.93 44.09 119.62 41.33 Z" />
<path fill="#eef1ad" opacity="1.00" d=" M 157.49 41.51 C 158.24 41.48 159.73 41.43 160.47 41.40 C 158.15 44.20 155.80 46.99 153.48 49.79 L 153.19 48.54 L 153.56 47.77 C 154.86 45.67 156.16 43.58 157.49 41.51 Z" />
</g>
<g id="#60574aff">
<path fill="#60574a" opacity="1.00" d=" M 3.41 44.08 C 4.82 44.20 5.63 44.97 5.85 46.39 C 4.42 46.26 3.61 45.49 3.41 44.08 Z" />
<path fill="#60574a" opacity="1.00" d=" M 50.12 46.22 C 50.38 44.75 51.19 44.08 52.56 44.22 C 52.36 45.54 51.55 46.21 50.12 46.22 Z" />
<path fill="#60574a" opacity="1.00" d=" M 59.52 44.20 C 60.80 44.21 61.65 44.81 62.07 46.00 C 60.60 46.37 59.75 45.76 59.52 44.20 Z" />
<path fill="#60574a" opacity="1.00" d=" M 106.15 46.39 C 106.31 44.97 107.10 44.17 108.50 44.00 C 108.36 45.42 107.57 46.21 106.15 46.39 Z" />
<path fill="#60574a" opacity="1.00" d=" M 115.51 44.20 C 116.79 44.21 117.64 44.82 118.06 46.01 C 116.58 46.36 115.73 45.76 115.51 44.20 Z" />
<path fill="#60574a" opacity="1.00" d=" M 162.15 46.40 C 162.30 44.97 163.08 44.17 164.49 43.99 C 164.36 45.39 163.58 46.20 162.15 46.40 Z" />
<path fill="#60574a" opacity="1.00" d=" M 171.51 44.20 C 172.80 44.21 173.65 44.81 174.07 46.00 C 172.59 46.36 171.74 45.76 171.51 44.20 Z" />
<path fill="#60574a" opacity="1.00" d=" M 218.05 46.22 C 218.30 44.71 219.13 44.05 220.52 44.25 C 220.25 45.55 219.43 46.21 218.05 46.22 Z" />
</g>
<g id="#67965dff">
<path fill="#67965d" opacity="1.00" d=" M 2.99 51.28 C 3.85 50.20 4.71 49.13 5.58 48.06 C 4.58 50.05 3.52 52.00 2.41 53.93 C 3.84 54.62 5.26 55.33 6.70 56.00 L 3.68 56.00 C 2.96 54.73 1.07 53.82 0.00 55.27 L 0.00 48.35 C 0.97 49.35 1.97 50.32 2.99 51.28 Z" />
</g>
<g id="#dfd889fe">
<path fill="#dfd889" opacity="1.00" d=" M 14.48 47.76 C 14.88 48.03 15.67 48.58 16.07 48.86 C 18.71 50.66 21.40 52.63 24.64 53.14 C 30.28 55.19 35.55 52.01 39.92 48.86 C 40.32 48.58 41.12 48.03 41.52 47.75 L 41.15 48.54 C 40.12 50.66 38.98 52.74 37.86 54.82 C 37.26 54.82 36.07 54.83 35.48 54.83 C 30.29 54.60 25.10 54.62 19.91 54.56 C 19.44 54.54 18.48 54.52 18.01 54.50 C 16.92 52.51 15.84 50.51 14.83 48.48 L 14.48 47.76 Z" />
</g>
<g id="#edf0abff">
<path fill="#edf0ab" opacity="1.00" d=" M 16.07 48.86 C 24.00 49.67 31.99 49.55 39.92 48.86 C 35.55 52.01 30.28 55.19 24.64 53.14 C 21.40 52.63 18.71 50.66 16.07 48.86 Z" />
</g>
<g id="#67975cff">
<path fill="#67975c" opacity="1.00" d=" M 50.35 49.32 C 54.08 50.00 57.91 49.99 61.64 49.30 C 60.50 50.81 59.35 52.32 58.19 53.82 C 59.79 54.55 61.38 55.30 63.00 56.00 L 60.61 56.00 C 57.59 55.96 54.59 55.95 51.57 56.00 L 49.95 56.00 C 48.98 55.21 48.01 54.42 47.04 53.63 C 49.34 53.73 51.64 53.83 53.94 53.95 C 52.74 52.41 51.54 50.87 50.35 49.32 Z" />
<path fill="#67975c" opacity="1.00" d=" M 106.35 49.32 C 110.08 50.00 113.91 49.99 117.64 49.30 C 116.50 50.81 115.35 52.32 114.19 53.82 C 115.79 54.55 117.38 55.30 119.00 56.00 L 116.61 56.00 C 113.59 55.96 110.59 55.95 107.58 56.00 L 105.97 56.00 C 104.99 55.21 104.01 54.42 103.04 53.63 C 105.34 53.73 107.64 53.83 109.94 53.95 C 108.74 52.41 107.53 50.87 106.35 49.32 Z" />
<path fill="#67975c" opacity="1.00" d=" M 162.35 49.32 C 166.08 50.00 169.91 49.99 173.64 49.30 C 172.50 50.81 171.35 52.32 170.19 53.82 C 171.79 54.55 173.38 55.30 175.00 56.00 L 172.61 56.00 C 169.59 55.96 166.59 55.95 163.57 56.00 L 161.95 56.00 C 160.98 55.21 160.00 54.42 159.04 53.63 C 161.34 53.73 163.64 53.83 165.94 53.95 C 164.74 52.41 163.53 50.87 162.35 49.32 Z" />
</g>
<g id="#edf1abff">
<path fill="#edf1ab" opacity="1.00" d=" M 72.37 48.64 C 75.56 49.68 78.86 50.37 82.20 50.65 C 83.41 50.75 84.62 50.76 85.83 50.67 C 89.15 50.39 92.43 49.68 95.59 48.62 C 89.84 55.51 78.20 55.30 72.37 48.64 Z" />
<path fill="#edf1ab" opacity="1.00" d=" M 184.37 48.64 C 187.56 49.68 190.86 50.37 194.20 50.65 C 195.41 50.75 196.62 50.76 197.83 50.67 C 201.15 50.39 204.43 49.68 207.59 48.62 C 201.84 55.51 190.20 55.30 184.37 48.64 Z" />
</g>
<g id="#dfd889ff">
<path fill="#dfd889" opacity="1.00" d=" M 126.44 47.74 C 127.44 48.55 128.46 49.35 129.52 50.09 C 135.45 54.92 144.61 55.16 150.47 50.08 C 151.53 49.35 152.55 48.57 153.56 47.77 L 153.19 48.54 C 152.12 50.65 150.98 52.74 149.85 54.82 C 149.26 54.82 148.07 54.83 147.48 54.83 C 142.29 54.60 137.10 54.63 131.91 54.55 C 131.44 54.54 130.49 54.51 130.02 54.50 C 128.91 52.51 127.82 50.51 126.80 48.47 L 126.44 47.74 Z" />
</g>
<g id="#68975cfe">
<path fill="#68975c" opacity="1.00" d=" M 218.38 48.12 C 219.26 49.16 220.15 50.21 221.03 51.26 C 222.03 50.30 223.03 49.34 224.00 48.34 L 224.00 55.32 C 223.17 54.01 220.69 54.24 220.74 56.00 L 218.71 56.00 C 217.36 55.34 216.04 54.62 214.73 53.90 C 217.04 53.92 219.36 53.94 221.68 53.97 C 220.54 52.04 219.43 50.09 218.38 48.12 Z" />
</g>
<g id="#ccc887ff">
<path fill="#ccc887" opacity="1.00" d=" M 14.56 49.65 L 14.83 48.48 C 15.84 50.51 16.92 52.51 18.01 54.50 C 14.91 54.21 11.90 53.09 9.32 51.36 C 10.88 51.56 12.44 51.76 14.01 51.96 C 14.15 51.38 14.42 50.23 14.56 49.65 Z" />
<path fill="#ccc887" opacity="1.00" d=" M 41.15 48.54 L 41.49 49.84 C 41.64 50.36 41.92 51.40 42.06 51.92 C 43.61 51.75 45.16 51.58 46.71 51.41 C 43.90 52.85 40.99 54.25 37.86 54.82 C 38.98 52.74 40.12 50.66 41.15 48.54 Z" />
<path fill="#ccc887" opacity="1.00" d=" M 69.76 49.41 C 71.40 51.00 72.93 52.69 74.47 54.38 C 71.18 54.18 67.94 53.21 65.17 51.43 C 66.75 51.57 68.34 51.72 69.92 51.86 C 69.88 51.25 69.80 50.02 69.76 49.41 Z" />
<path fill="#ccc887" opacity="1.00" d=" M 93.34 54.77 C 94.95 52.98 96.57 51.19 98.32 49.53 C 98.26 50.11 98.14 51.28 98.08 51.86 C 99.62 51.71 101.16 51.56 102.70 51.41 C 99.76 52.98 96.66 54.33 93.34 54.77 Z" />
<path fill="#ccc887" opacity="1.00" d=" M 126.57 49.60 L 126.80 48.47 C 127.82 50.51 128.91 52.51 130.02 54.50 C 126.88 54.18 123.84 53.09 121.18 51.42 C 122.80 51.59 124.43 51.77 126.05 51.95 C 126.18 51.36 126.44 50.19 126.57 49.60 Z" />
<path fill="#ccc887" opacity="1.00" d=" M 153.19 48.54 L 153.48 49.79 C 153.61 50.33 153.88 51.40 154.01 51.94 C 155.56 51.76 157.12 51.58 158.68 51.40 C 155.88 52.85 152.99 54.25 149.85 54.82 C 150.98 52.74 152.12 50.65 153.19 48.54 Z" />
<path fill="#ccc887" opacity="1.00" d=" M 181.76 49.41 C 183.40 51.00 184.93 52.69 186.47 54.38 C 183.18 54.18 179.94 53.21 177.17 51.43 C 178.75 51.57 180.33 51.72 181.92 51.86 C 181.88 51.25 181.80 50.02 181.76 49.41 Z" />
<path fill="#ccc887" opacity="1.00" d=" M 205.34 54.77 C 206.95 52.98 208.57 51.18 210.32 49.53 C 210.26 50.11 210.14 51.28 210.08 51.86 C 211.63 51.72 213.18 51.57 214.74 51.43 C 211.78 52.98 208.67 54.32 205.34 54.77 Z" />
</g>
<g id="#eef2acff">
<path fill="#eef2ac" opacity="1.00" d=" M 150.47 50.08 C 144.61 55.16 135.45 54.92 129.52 50.09 C 136.40 51.50 143.60 51.52 150.47 50.08 Z" />
</g>
<g id="#639462ff">
<path fill="#639462" opacity="1.00" d=" M 7.27 52.54 C 8.41 51.62 9.87 53.58 8.73 54.46 C 7.59 55.38 6.13 53.41 7.27 52.54 Z" />
<path fill="#639462" opacity="1.00" d=" M 63.27 52.54 C 64.41 51.62 65.87 53.58 64.73 54.46 C 63.59 55.38 62.13 53.41 63.27 52.54 Z" />
<path fill="#639462" opacity="1.00" d=" M 119.27 52.54 C 120.41 51.62 121.87 53.58 120.73 54.46 C 119.59 55.38 118.13 53.41 119.27 52.54 Z" />
<path fill="#639462" opacity="1.00" d=" M 175.27 52.54 C 176.41 51.62 177.87 53.58 176.73 54.46 C 175.59 55.38 174.13 53.41 175.27 52.54 Z" />
</g>
<g id="#cfcb8aff">
<path fill="#cfcb8a" opacity="1.00" d=" M 19.91 54.56 C 25.10 54.62 30.29 54.60 35.48 54.83 C 35.97 55.12 36.96 55.71 37.45 56.00 L 19.98 56.00 C 19.97 55.64 19.93 54.92 19.91 54.56 Z" />
<path fill="#cfcb8a" opacity="1.00" d=" M 76.07 54.45 C 81.14 54.60 86.21 54.63 91.27 55.01 C 91.88 55.25 93.09 55.75 93.70 56.00 L 75.96 56.00 C 75.99 55.61 76.04 54.84 76.07 54.45 Z" />
<path fill="#cfcb8a" opacity="1.00" d=" M 131.91 54.55 C 137.10 54.63 142.29 54.60 147.48 54.83 C 147.97 55.12 148.96 55.71 149.45 56.00 L 132.00 56.00 C 131.98 55.64 131.93 54.92 131.91 54.55 Z" />
<path fill="#cfcb8a" opacity="1.00" d=" M 188.07 54.45 C 193.13 54.60 198.21 54.63 203.27 55.00 C 203.88 55.25 205.10 55.75 205.71 56.00 L 187.96 56.00 C 187.99 55.61 188.04 54.84 188.07 54.45 Z" />
</g>
<g id="#8fb966ff">
<path fill="#8fb966" opacity="1.00" d=" M 0.00 55.27 C 1.07 53.82 2.96 54.73 3.68 56.00 L 0.00 56.00 L 0.00 55.27 Z" />
<path fill="#8fb966" opacity="1.00" d=" M 51.57 56.00 C 54.59 55.95 57.59 55.96 60.61 56.00 L 51.57 56.00 Z" />
<path fill="#8fb966" opacity="1.00" d=" M 107.58 56.00 C 110.59 55.95 113.59 55.96 116.61 56.00 L 107.58 56.00 Z" />
<path fill="#8fb966" opacity="1.00" d=" M 163.57 56.00 C 166.59 55.95 169.59 55.96 172.61 56.00 L 163.57 56.00 Z" />
<path fill="#8fb966" opacity="1.00" d=" M 220.74 56.00 C 220.69 54.24 223.17 54.01 224.00 55.32 L 224.00 56.00 L 220.74 56.00 Z" />
</g>
</svg>
