<?xml version="1.0" encoding="UTF-8" ?>
<!DOCTYPE svg PUBLIC "-//W3C//DTD SVG 1.1//EN" "http://www.w3.org/Graphics/SVG/1.1/DTD/svg11.dtd">
<svg width="224pt" height="56pt" viewBox="0 0 224 56" version="1.1" xmlns="http://www.w3.org/2000/svg">
<g id="#739f5cff">
<path fill="#739f5c" opacity="1.00" d=" M 0.00 0.00 L 224.00 0.00 L 224.00 3.80 C 223.56 3.74 222.69 3.61 222.25 3.55 C 219.12 3.02 215.93 2.93 212.77 3.17 L 211.87 3.22 C 211.41 1.85 210.43 1.41 208.93 1.91 C 206.91 1.86 204.90 1.79 202.89 1.67 C 201.56 1.49 200.64 2.05 200.15 3.36 C 196.93 4.43 193.70 5.54 190.34 6.10 C 189.74 5.61 189.14 5.12 188.54 4.63 C 188.07 4.07 187.14 2.95 186.67 2.39 C 184.88 2.06 183.09 1.79 181.29 1.58 C 176.29 2.64 171.33 6.05 166.11 4.05 C 163.09 3.13 159.93 2.81 156.78 3.10 L 155.89 3.14 C 155.39 1.78 154.40 1.37 152.91 1.92 C 150.90 1.87 148.89 1.80 146.89 1.67 C 145.56 1.49 144.64 2.05 144.15 3.36 C 140.93 4.43 137.70 5.54 134.34 6.10 C 133.74 5.61 133.14 5.12 132.54 4.63 C 132.07 4.07 131.14 2.95 130.67 2.39 C 128.88 2.06 127.09 1.79 125.29 1.58 C 120.29 2.64 115.33 6.05 110.11 4.05 C 107.09 3.13 103.93 2.81 100.78 3.10 L 99.89 3.14 C 99.39 1.78 98.40 1.37 96.91 1.92 C 94.90 1.87 92.89 1.80 90.89 1.67 C 89.56 1.49 88.64 2.05 88.15 3.36 C 84.93 4.43 81.70 5.54 78.34 6.10 C 77.74 5.61 77.14 5.12 76.54 4.63 C 76.07 4.07 75.14 2.95 74.67 2.39 C 72.88 2.06 71.09 1.79 69.29 1.58 C 64.29 2.64 59.33 6.05 54.11 4.05 C 51.09 3.13 47.93 2.81 44.78 3.10 L 43.89 3.14 C 43.39 1.78 42.40 1.37 40.91 1.92 C 38.90 1.87 36.89 1.80 34.89 1.67 C 33.56 1.49 32.65 2.05 32.15 3.36 C 28.93 4.43 25.70 5.54 22.34 6.10 C 21.74 5.61 21.14 5.12 20.54 4.63 C 20.07 4.07 19.13 2.95 18.66 2.39 C 16.88 2.06 15.09 1.79 13.29 1.58 C 8.62 2.42 4.18 4.25 0.00 6.46 L 0.00 0.00 Z" />
</g>
<g id="#5e8e65fe">
<path fill="#5e8e65" opacity="1.00" d=" M 13.29 1.58 C 15.09 1.79 16.88 2.06 18.66 2.39 C 19.13 2.95 20.07 4.07 20.54 4.63 C 18.08 3.87 15.59 3.23 13.16 2.40 L 13.29 1.58 Z" />
<path fill="#5e8e65" opacity="1.00" d=" M 69.29 1.58 C 71.09 1.79 72.88 2.06 74.67 2.39 C 75.14 2.95 76.07 4.07 76.54 4.63 C 74.08 3.87 71.59 3.22 69.16 2.39 L 69.29 1.58 Z" />
<path fill="#5e8e65" opacity="1.00" d=" M 125.29 1.58 C 127.09 1.79 128.88 2.06 130.67 2.39 C 131.14 2.95 132.07 4.07 132.54 4.63 C 130.08 3.87 127.59 3.22 125.16 2.39 L 125.29 1.58 Z" />
<path fill="#5e8e65" opacity="1.00" d=" M 181.29 1.58 C 183.09 1.79 184.88 2.06 186.67 2.39 C 187.14 2.95 188.07 4.07 188.54 4.63 C 186.08 3.87 183.59 3.22 181.16 2.39 L 181.29 1.58 Z" />
</g>
<g id="#342f2bff">
<path fill="#342f2b" opacity="1.00" d=" M 0.00 6.46 C 4.18 4.25 8.62 2.42 13.29 1.58 L 13.16 2.40 C 13.04 2.91 12.82 3.94 12.71 4.45 C 15.89 5.16 19.09 5.82 22.34 6.10 C 25.70 5.54 28.93 4.43 32.15 3.36 C 33.67 3.59 34.58 3.03 34.89 1.67 C 36.89 1.80 38.90 1.87 40.91 1.92 C 41.62 3.03 42.61 3.44 43.89 3.14 L 44.78 3.10 C 47.89 3.34 51.02 3.58 54.11 4.05 C 59.33 6.05 64.29 2.64 69.29 1.58 L 69.16 2.39 C 69.05 2.91 68.82 3.94 68.71 4.45 C 71.89 5.16 75.09 5.82 78.34 6.10 C 81.70 5.54 84.93 4.43 88.15 3.36 C 89.67 3.59 90.58 3.03 90.89 1.67 C 92.89 1.80 94.90 1.87 96.91 1.92 C 97.61 3.03 98.61 3.44 99.89 3.14 L 100.78 3.10 C 103.89 3.34 107.02 3.58 110.11 4.05 C 115.33 6.05 120.29 2.64 125.29 1.58 L 125.16 2.39 C 125.05 2.91 124.82 3.94 124.71 4.45 C 127.89 5.16 131.09 5.82 134.34 6.10 C 137.70 5.54 140.93 4.43 144.15 3.36 C 145.67 3.59 146.58 3.03 146.89 1.67 C 148.89 1.80 150.90 1.87 152.91 1.92 C 153.61 3.03 154.61 3.44 155.89 3.14 L 156.78 3.10 C 159.88 3.34 163.02 3.58 166.11 4.05 C 171.33 6.05 176.29 2.64 181.29 1.58 L 181.16 2.39 C 181.05 2.91 180.82 3.94 180.71 4.45 C 183.89 5.16 187.09 5.82 190.34 6.10 C 193.70 5.54 196.93 4.43 200.15 3.36 C 201.66 3.59 202.58 3.03 202.89 1.67 C 204.90 1.79 206.91 1.86 208.93 1.91 C 209.60 3.05 210.58 3.48 211.87 3.22 L 212.77 3.17 C 215.92 3.24 219.10 3.32 222.25 3.55 C 222.69 3.61 223.56 3.74 224.00 3.80 L 224.00 16.91 C 222.72 16.31 221.86 16.65 221.41 17.95 L 220.45 17.75 C 219.55 17.55 218.66 17.34 217.78 17.13 C 217.45 16.76 216.79 16.03 216.47 15.66 C 217.93 15.22 219.14 14.28 220.35 13.39 C 221.12 13.09 222.67 12.50 223.44 12.20 C 221.32 11.27 219.13 10.52 216.95 9.79 C 215.37 8.28 213.74 6.82 212.07 5.41 C 212.80 7.52 213.58 9.61 214.35 11.71 C 213.27 12.23 212.19 12.76 211.11 13.28 C 212.43 13.90 213.76 14.52 215.06 15.19 L 215.55 15.63 C 215.54 16.01 215.52 16.78 215.51 17.17 C 214.97 17.02 213.88 16.74 213.34 16.59 C 212.98 16.56 212.27 16.50 211.92 16.47 C 210.51 16.51 209.93 17.21 210.17 18.59 L 209.99 17.80 C 209.62 16.02 209.30 14.23 209.05 12.43 C 209.06 12.11 209.06 11.47 209.06 11.15 C 209.08 10.00 209.12 8.84 209.15 7.69 C 207.55 7.13 205.97 6.55 204.41 5.92 C 203.55 6.81 202.68 7.70 201.82 8.59 C 201.74 6.94 201.65 5.29 201.56 3.65 C 201.03 5.91 200.57 8.20 200.05 10.47 C 199.95 10.80 199.75 11.45 199.65 11.78 C 199.18 13.30 198.71 14.82 198.18 16.32 C 197.65 17.06 197.10 17.79 196.55 18.50 L 195.84 18.89 L 194.88 19.04 C 195.23 17.08 195.59 15.12 196.00 13.17 C 196.31 11.70 196.63 10.23 197.00 8.77 C 197.11 8.34 197.35 7.48 197.47 7.05 C 195.65 7.75 193.83 8.47 192.00 9.15 C 189.22 8.28 186.32 8.56 183.51 9.10 C 182.63 7.94 181.73 6.78 180.83 5.63 C 179.55 9.76 177.63 14.53 180.85 18.27 C 180.59 18.41 180.06 18.68 179.80 18.82 C 179.36 19.08 178.50 19.60 178.06 19.86 C 177.99 18.55 177.92 17.24 177.85 15.94 C 175.88 16.22 173.92 16.52 171.97 16.83 C 172.40 17.20 173.28 17.92 173.71 18.28 C 174.31 18.53 175.49 19.04 176.08 19.30 L 176.17 20.13 C 173.67 19.57 171.17 18.99 168.66 18.47 L 168.04 17.20 C 167.82 15.53 165.63 15.42 165.11 16.95 L 164.29 16.84 C 162.39 16.48 160.52 16.03 158.69 15.43 C 160.84 16.10 162.90 14.97 164.37 13.46 C 165.14 13.14 166.66 12.50 167.43 12.18 C 165.31 11.27 163.13 10.52 160.95 9.79 C 159.37 8.28 157.74 6.82 156.08 5.41 C 156.79 7.47 157.53 9.53 158.28 11.58 C 157.09 12.36 155.91 13.14 154.73 13.93 C 155.70 14.32 156.68 14.70 157.66 15.08 C 157.29 15.15 156.57 15.31 156.20 15.39 C 154.81 15.53 154.17 16.26 154.30 17.58 L 154.06 16.80 C 153.61 15.36 153.20 13.91 152.86 12.45 C 152.88 12.12 152.93 11.48 152.95 11.16 C 153.04 9.81 153.16 8.46 153.27 7.11 C 150.67 6.59 147.82 6.31 145.80 8.45 C 145.71 6.84 145.63 5.22 145.54 3.61 C 144.81 5.74 144.11 7.89 143.53 10.08 C 143.73 12.43 144.29 14.73 145.03 16.96 C 144.29 16.34 143.55 15.73 142.80 15.12 C 142.02 15.87 141.23 16.60 140.44 17.33 L 139.78 17.74 L 138.91 18.00 C 139.26 16.38 139.61 14.76 139.98 13.15 C 140.31 11.69 140.65 10.23 141.03 8.78 C 141.15 8.35 141.40 7.49 141.52 7.05 C 139.66 7.75 137.81 8.46 135.95 9.16 C 131.99 8.47 127.53 9.54 124.35 6.38 C 123.61 9.99 121.57 14.40 124.71 17.49 C 124.47 17.60 124.00 17.81 123.77 17.92 C 123.36 18.14 122.56 18.57 122.15 18.79 C 122.05 18.17 121.83 16.93 121.73 16.31 C 120.55 16.13 119.37 15.95 118.20 15.78 C 118.67 16.98 119.15 18.17 119.59 19.37 C 116.91 18.56 114.23 17.79 111.53 17.05 C 110.98 15.74 108.53 15.77 109.01 17.52 L 108.23 17.47 C 107.40 17.40 106.57 17.32 105.75 17.25 C 105.44 16.86 104.81 16.09 104.49 15.71 C 105.95 15.26 107.14 14.29 108.34 13.38 C 109.12 13.09 110.67 12.50 111.44 12.20 C 109.32 11.27 107.14 10.53 104.95 9.79 C 103.37 8.28 101.74 6.82 100.07 5.41 C 100.80 7.52 101.58 9.61 102.35 11.71 C 101.27 12.23 100.19 12.76 99.11 13.28 C 100.44 13.91 101.77 14.53 103.08 15.21 L 103.58 15.66 C 103.56 16.04 103.51 16.81 103.49 17.19 C 102.96 17.04 101.88 16.74 101.34 16.59 C 100.99 16.56 100.28 16.50 99.92 16.47 C 98.52 16.50 97.93 17.21 98.17 18.58 L 97.99 17.80 C 97.62 16.02 97.30 14.23 97.05 12.43 C 97.06 12.11 97.06 11.47 97.06 11.15 C 97.08 10.00 97.12 8.84 97.15 7.69 C 95.55 7.13 93.97 6.55 92.41 5.92 C 91.55 6.81 90.69 7.70 89.82 8.59 C 89.74 6.94 89.65 5.29 89.56 3.65 C 89.03 5.91 88.57 8.20 88.05 10.47 C 87.95 10.80 87.75 11.45 87.65 11.78 C 87.18 13.30 86.71 14.82 86.18 16.32 C 85.65 17.06 85.11 17.79 84.55 18.50 L 83.84 18.89 L 82.88 19.04 C 83.23 17.08 83.59 15.12 84.00 13.17 C 84.31 11.70 84.64 10.23 85.00 8.77 C 85.11 8.34 85.35 7.48 85.47 7.05 C 83.65 7.75 81.83 8.47 80.00 9.15 C 77.22 8.28 74.32 8.56 71.51 9.10 C 70.63 7.94 69.74 6.78 68.83 5.63 C 67.55 9.76 65.63 14.52 68.84 18.26 C 68.58 18.40 68.06 18.68 67.80 18.82 C 67.37 19.09 66.50 19.61 66.07 19.87 C 66.00 18.56 65.92 17.25 65.84 15.94 C 63.88 16.22 61.93 16.51 59.97 16.83 C 60.41 17.19 61.27 17.92 61.71 18.28 C 62.30 18.55 63.48 19.07 64.07 19.33 L 64.16 20.22 C 61.19 19.39 58.25 18.49 55.29 17.64 C 54.02 16.98 52.13 17.13 51.64 18.69 C 51.18 18.51 50.25 18.16 49.79 17.98 C 49.45 17.48 48.77 16.47 48.43 15.97 C 49.89 15.50 51.01 14.42 52.17 13.48 C 52.99 13.15 54.63 12.51 55.45 12.19 C 53.33 11.27 51.14 10.52 48.94 9.78 C 47.36 8.28 45.74 6.82 44.07 5.41 C 44.80 7.51 45.56 9.59 46.33 11.68 C 45.27 12.23 44.22 12.79 43.17 13.35 C 44.87 14.72 46.54 16.14 48.30 17.44 C 47.56 17.44 46.07 17.42 45.33 17.41 C 44.98 17.43 44.27 17.47 43.92 17.48 C 42.54 17.49 41.90 18.16 42.00 19.48 L 41.65 18.68 C 41.46 16.58 41.45 14.47 41.44 12.36 C 41.40 12.02 41.33 11.33 41.30 10.99 C 41.26 8.18 38.87 6.72 36.71 5.53 C 35.75 6.55 34.79 7.56 33.81 8.56 C 33.74 6.92 33.65 5.28 33.55 3.64 C 33.01 5.91 32.52 8.20 32.01 10.47 C 31.92 10.80 31.74 11.46 31.65 11.78 C 31.15 13.60 30.68 15.41 30.14 17.21 C 29.61 17.95 29.06 18.67 28.49 19.39 L 27.80 19.79 L 26.85 19.97 C 27.66 18.52 27.29 16.83 27.09 15.29 C 27.25 14.75 27.56 13.69 27.72 13.16 C 28.17 11.69 28.61 10.23 29.07 8.77 C 29.21 8.34 29.49 7.48 29.63 7.06 C 27.75 7.76 25.87 8.48 23.97 9.13 C 21.20 8.27 18.30 8.56 15.50 9.10 C 14.60 7.93 13.69 6.77 12.78 5.61 C 11.57 9.87 10.66 14.28 11.88 18.63 C 11.94 19.14 12.05 20.16 12.11 20.67 C 11.80 20.44 11.19 19.99 10.88 19.77 C 10.29 18.51 9.71 17.24 9.15 15.97 C 6.96 16.44 4.76 16.90 2.56 17.35 C 3.53 17.84 4.51 18.32 5.49 18.79 C 6.12 18.89 7.37 19.08 8.00 19.17 C 8.09 19.69 8.27 20.72 8.36 21.23 C 5.56 20.51 2.78 19.71 0.00 18.89 L 0.00 6.46 M 8.22 11.83 C 5.80 14.45 11.20 14.45 8.78 11.83 C 9.65 10.04 9.29 7.70 8.62 5.89 C 7.46 7.17 7.47 10.15 8.22 11.83 M 49.12 6.19 C 49.07 6.89 48.98 8.30 48.94 9.00 C 49.74 8.99 51.34 8.97 52.14 8.96 C 52.25 7.62 52.33 6.27 52.36 4.92 C 51.28 5.34 50.20 5.76 49.12 6.19 M 64.22 11.83 C 61.80 14.45 67.20 14.45 64.78 11.83 C 65.65 10.04 65.29 7.70 64.62 5.89 C 63.46 7.17 63.47 10.15 64.22 11.83 M 105.12 6.19 C 105.07 6.89 104.98 8.30 104.94 9.00 C 105.74 8.99 107.34 8.97 108.14 8.96 C 108.25 7.62 108.33 6.27 108.36 4.92 C 107.28 5.34 106.20 5.76 105.12 6.19 M 120.22 11.83 C 117.80 14.45 123.20 14.45 120.78 11.83 C 121.65 10.04 121.29 7.70 120.62 5.89 C 119.46 7.17 119.47 10.15 120.22 11.83 M 161.04 5.86 C 161.03 6.66 161.01 8.26 161.00 9.06 C 161.70 9.02 163.11 8.93 163.81 8.88 C 164.24 7.80 164.66 6.72 165.08 5.64 C 163.73 5.67 162.38 5.75 161.04 5.86 M 176.22 11.83 C 173.80 14.45 179.20 14.45 176.78 11.83 C 177.65 10.04 177.29 7.70 176.62 5.89 C 175.45 7.17 175.47 10.15 176.22 11.83 M 217.04 5.86 C 217.03 6.66 217.01 8.26 217.00 9.06 C 217.70 9.02 219.11 8.93 219.81 8.88 C 220.24 7.80 220.66 6.72 221.08 5.64 C 219.73 5.67 218.38 5.75 217.04 5.86 M 3.49 8.08 C 4.13 10.57 4.80 13.04 5.57 15.49 C 5.80 12.99 6.00 10.49 6.18 7.99 C 5.51 8.02 4.17 8.06 3.49 8.08 M 59.49 8.08 C 60.13 10.57 60.80 13.04 61.57 15.49 C 61.80 12.99 62.00 10.49 62.18 7.99 C 61.51 8.02 60.17 8.06 59.49 8.08 M 115.49 8.08 C 116.13 10.57 116.80 13.04 117.57 15.49 C 117.80 12.99 118.00 10.49 118.18 7.99 C 117.51 8.02 116.17 8.06 115.49 8.08 M 171.49 8.08 C 172.13 10.57 172.80 13.04 173.57 15.49 C 173.80 12.99 174.00 10.49 174.18 7.99 C 173.51 8.02 172.17 8.06 171.49 8.08 Z" />
</g>
<g id="#565249ff">
<path fill="#565249" opacity="1.00" d=" M 32.15 3.36 C 32.65 2.05 33.56 1.49 34.89 1.67 C 34.58 3.03 33.67 3.59 32.15 3.36 Z" />
<path fill="#565249" opacity="1.00" d=" M 40.91 1.92 C 42.40 1.37 43.39 1.78 43.89 3.14 C 42.61 3.44 41.62 3.03 40.91 1.92 Z" />
<path fill="#565249" opacity="1.00" d=" M 44.78 3.10 C 47.93 2.81 51.09 3.13 54.11 4.05 C 51.02 3.58 47.89 3.34 44.78 3.10 Z" />
<path fill="#565249" opacity="1.00" d=" M 88.15 3.36 C 88.64 2.05 89.56 1.49 90.89 1.67 C 90.58 3.03 89.67 3.59 88.15 3.36 Z" />
<path fill="#565249" opacity="1.00" d=" M 96.91 1.92 C 98.40 1.37 99.39 1.78 99.89 3.14 C 98.61 3.44 97.61 3.03 96.91 1.92 Z" />
<path fill="#565249" opacity="1.00" d=" M 100.78 3.10 C 103.93 2.81 107.09 3.13 110.11 4.05 C 107.02 3.58 103.89 3.34 100.78 3.10 Z" />
<path fill="#565249" opacity="1.00" d=" M 144.15 3.36 C 144.64 2.05 145.56 1.49 146.89 1.67 C 146.58 3.03 145.67 3.59 144.15 3.36 Z" />
<path fill="#565249" opacity="1.00" d=" M 152.91 1.92 C 154.40 1.37 155.39 1.78 155.89 3.14 C 154.61 3.44 153.61 3.03 152.91 1.92 Z" />
<path fill="#565249" opacity="1.00" d=" M 156.78 3.10 C 159.93 2.81 163.09 3.13 166.11 4.05 C 163.02 3.58 159.88 3.34 156.78 3.10 Z" />
<path fill="#565249" opacity="1.00" d=" M 200.15 3.36 C 200.64 2.05 201.56 1.49 202.89 1.67 C 202.58 3.03 201.66 3.59 200.15 3.36 Z" />
<path fill="#565249" opacity="1.00" d=" M 208.93 1.91 C 210.43 1.41 211.41 1.85 211.87 3.22 C 210.58 3.48 209.60 3.05 208.93 1.91 Z" />
<path fill="#565249" opacity="1.00" d=" M 212.77 3.17 C 215.93 2.93 219.12 3.02 222.25 3.55 C 219.10 3.32 215.92 3.24 212.77 3.17 Z" />
<path fill="#565249" opacity="1.00" d=" M 32.01 10.47 C 32.52 8.20 33.01 5.91 33.55 3.64 C 33.65 5.28 33.74 6.92 33.81 8.56 C 33.36 9.04 32.46 10.00 32.01 10.47 Z" />
<path fill="#565249" opacity="1.00" d=" M 88.05 10.47 C 88.57 8.20 89.03 5.91 89.56 3.65 C 89.65 5.29 89.74 6.94 89.82 8.59 C 89.38 9.06 88.49 10.00 88.05 10.47 Z" />
<path fill="#565249" opacity="1.00" d=" M 143.53 10.08 C 144.11 7.89 144.81 5.74 145.54 3.61 C 145.63 5.22 145.71 6.84 145.80 8.45 C 145.23 8.86 144.09 9.67 143.53 10.08 Z" />
<path fill="#565249" opacity="1.00" d=" M 200.05 10.47 C 200.57 8.20 201.03 5.91 201.56 3.65 C 201.65 5.29 201.74 6.94 201.82 8.59 C 201.38 9.06 200.49 10.00 200.05 10.47 Z" />
<path fill="#565249" opacity="1.00" d=" M 49.12 6.19 C 50.20 5.76 51.28 5.34 52.36 4.92 C 52.33 6.27 52.25 7.62 52.14 8.96 C 51.34 8.97 49.74 8.99 48.94 9.00 C 48.98 8.30 49.07 6.89 49.12 6.19 Z" />
<path fill="#565249" opacity="1.00" d=" M 105.12 6.19 C 106.20 5.76 107.28 5.34 108.36 4.92 C 108.33 6.27 108.25 7.62 108.14 8.96 C 107.34 8.97 105.74 8.99 104.94 9.00 C 104.98 8.30 105.07 6.89 105.12 6.19 Z" />
<path fill="#565249" opacity="1.00" d=" M 161.04 5.86 C 162.38 5.75 163.73 5.67 165.08 5.64 C 164.66 6.72 164.24 7.80 163.81 8.88 C 163.11 8.93 161.70 9.02 161.00 9.06 C 161.01 8.26 161.03 6.66 161.04 5.86 Z" />
<path fill="#565249" opacity="1.00" d=" M 217.04 5.86 C 218.38 5.75 219.73 5.67 221.08 5.64 C 220.66 6.72 220.24 7.80 219.81 8.88 C 219.11 8.93 217.70 9.02 217.00 9.06 C 217.01 8.26 217.03 6.66 217.04 5.86 Z" />
<path fill="#565249" opacity="1.00" d=" M 26.22 20.07 C 25.14 18.47 26.20 16.67 27.09 15.29 C 27.29 16.83 27.66 18.52 26.85 19.97 L 26.22 20.07 Z" />
<path fill="#565249" opacity="1.00" d=" M 103.58 15.66 L 104.49 15.71 C 104.81 16.09 105.44 16.86 105.75 17.25 C 105.19 17.23 104.06 17.21 103.49 17.19 C 103.51 16.81 103.56 16.04 103.58 15.66 Z" />
<path fill="#565249" opacity="1.00" d=" M 215.55 15.63 L 216.47 15.66 C 216.79 16.03 217.45 16.76 217.78 17.13 C 217.21 17.14 216.08 17.16 215.51 17.17 C 215.52 16.78 215.54 16.01 215.55 15.63 Z" />
</g>
<g id="#5a5347ff">
<path fill="#5a5347" opacity="1.00" d=" M 12.71 4.45 C 12.82 3.94 13.04 2.91 13.16 2.40 C 15.59 3.23 18.08 3.87 20.54 4.63 C 21.14 5.12 21.74 5.61 22.34 6.10 C 19.09 5.82 15.89 5.16 12.71 4.45 Z" />
<path fill="#5a5347" opacity="1.00" d=" M 68.71 4.45 C 68.82 3.94 69.05 2.91 69.16 2.39 C 71.59 3.22 74.08 3.87 76.54 4.63 C 77.14 5.12 77.74 5.61 78.34 6.10 C 75.09 5.82 71.89 5.16 68.71 4.45 Z" />
<path fill="#5a5347" opacity="1.00" d=" M 124.71 4.45 C 124.82 3.94 125.05 2.91 125.16 2.39 C 127.59 3.22 130.08 3.87 132.54 4.63 C 133.14 5.12 133.74 5.61 134.34 6.10 C 131.09 5.82 127.89 5.16 124.71 4.45 Z" />
<path fill="#5a5347" opacity="1.00" d=" M 180.71 4.45 C 180.82 3.94 181.05 2.91 181.16 2.39 C 183.59 3.22 186.08 3.87 188.54 4.63 C 189.14 5.12 189.74 5.61 190.34 6.10 C 187.09 5.82 183.89 5.16 180.71 4.45 Z" />
</g>
<g id="#77694cfe">
<path fill="#77694c" opacity="1.00" d=" M 8.22 11.83 C 7.47 10.15 7.46 7.17 8.62 5.89 C 9.29 7.70 9.65 10.04 8.78 11.83 L 8.22 11.83 Z" />
<path fill="#77694c" opacity="1.00" d=" M 64.22 11.83 C 63.47 10.15 63.46 7.17 64.62 5.89 C 65.29 7.70 65.65 10.04 64.78 11.83 L 64.22 11.83 Z" />
<path fill="#77694c" opacity="1.00" d=" M 120.22 11.83 C 119.47 10.15 119.46 7.17 120.62 5.89 C 121.29 7.70 121.65 10.04 120.78 11.83 L 120.22 11.83 Z" />
<path fill="#77694c" opacity="1.00" d=" M 176.22 11.83 C 175.47 10.15 175.45 7.17 176.62 5.89 C 177.29 7.70 177.65 10.04 176.78 11.83 L 176.22 11.83 Z" />
</g>
<g id="#72624dff">
<path fill="#72624d" opacity="1.00" d=" M 36.71 5.53 C 38.87 6.72 41.26 8.18 41.30 10.99 C 39.32 10.56 37.68 11.95 36.24 13.07 C 35.69 13.44 34.61 14.19 34.07 14.56 C 33.29 13.61 32.46 12.70 31.65 11.78 C 31.74 11.46 31.92 10.80 32.01 10.47 C 32.46 10.00 33.36 9.04 33.81 8.56 C 34.79 7.56 35.75 6.55 36.71 5.53 Z" />
<path fill="#72624d" opacity="1.00" d=" M 92.41 5.92 C 93.97 6.55 95.55 7.13 97.15 7.69 C 97.12 8.84 97.08 10.00 97.06 11.15 C 95.25 10.90 93.58 11.79 92.22 12.90 C 91.66 13.30 90.52 14.11 89.95 14.51 C 89.19 13.59 88.42 12.68 87.65 11.78 C 87.75 11.45 87.95 10.80 88.05 10.47 C 88.49 10.00 89.38 9.06 89.82 8.59 C 90.69 7.70 91.55 6.81 92.41 5.92 Z" />
<path fill="#72624d" opacity="1.00" d=" M 204.41 5.92 C 205.97 6.55 207.55 7.13 209.15 7.69 C 209.12 8.84 209.08 10.00 209.06 11.15 C 207.25 10.90 205.58 11.79 204.22 12.90 C 203.66 13.30 202.52 14.11 201.95 14.51 C 201.19 13.59 200.42 12.68 199.65 11.78 C 199.75 11.45 199.95 10.80 200.05 10.47 C 200.49 10.00 201.38 9.06 201.82 8.59 C 202.68 7.70 203.55 6.81 204.41 5.92 Z" />
<path fill="#72624d" opacity="1.00" d=" M 135.10 12.09 C 136.73 12.44 138.35 12.80 139.98 13.15 C 139.61 14.76 139.26 16.38 138.91 18.00 C 138.22 18.03 136.84 18.11 136.14 18.14 C 135.81 16.12 135.47 14.10 135.10 12.09 Z" />
</g>
<g id="#6d614fff">
<path fill="#6d614f" opacity="1.00" d=" M 145.80 8.45 C 147.82 6.31 150.67 6.59 153.27 7.11 C 153.16 8.46 153.04 9.81 152.95 11.16 C 151.28 10.82 149.50 11.38 148.51 12.81 C 148.06 13.30 147.17 14.27 146.72 14.75 C 147.58 15.89 148.43 17.04 149.30 18.19 C 148.75 18.48 147.65 19.07 147.10 19.36 C 146.42 18.56 145.73 17.76 145.03 16.96 C 144.29 14.73 143.73 12.43 143.53 10.08 C 144.09 9.67 145.23 8.86 145.80 8.45 Z" />
</g>
<g id="#5d5649ff">
<path fill="#5d5649" opacity="1.00" d=" M 12.78 5.61 C 13.69 6.77 14.60 7.93 15.50 9.10 C 18.30 8.56 21.20 8.27 23.97 9.13 C 25.87 8.48 27.75 7.76 29.63 7.06 C 29.49 7.48 29.21 8.34 29.07 8.77 C 27.25 9.93 25.34 10.96 23.44 12.01 C 23.65 14.78 23.72 17.56 23.58 20.34 C 22.49 19.93 21.40 19.51 20.31 19.08 C 20.18 17.15 20.02 15.22 19.85 13.29 C 17.70 15.15 15.66 17.13 13.76 19.24 C 13.29 19.09 12.35 18.78 11.88 18.63 C 10.66 14.28 11.57 9.87 12.78 5.61 M 18.15 11.40 C 17.05 11.06 15.53 11.27 14.90 12.33 C 14.99 14.44 20.05 13.05 18.15 11.40 Z" />
<path fill="#5d5649" opacity="1.00" d=" M 68.83 5.63 C 69.74 6.78 70.63 7.94 71.51 9.10 C 74.32 8.56 77.22 8.28 80.00 9.15 C 81.83 8.47 83.65 7.75 85.47 7.05 C 85.35 7.48 85.11 8.34 85.00 8.77 C 83.13 9.97 81.16 11.01 79.21 12.06 C 79.58 14.42 79.91 16.78 80.18 19.16 L 79.30 19.11 C 78.32 19.03 77.33 18.94 76.35 18.85 C 76.20 17.06 76.04 15.27 75.87 13.49 C 73.90 15.05 71.97 16.66 70.12 18.36 C 69.80 18.33 69.16 18.29 68.84 18.26 C 65.63 14.52 67.55 9.76 68.83 5.63 M 74.15 11.40 C 73.05 11.06 71.53 11.27 70.90 12.33 C 70.98 14.44 76.05 13.05 74.15 11.40 Z" />
<path fill="#5d5649" opacity="1.00" d=" M 180.83 5.63 C 181.73 6.78 182.63 7.94 183.51 9.10 C 186.32 8.56 189.22 8.28 192.00 9.15 C 193.83 8.47 195.65 7.75 197.47 7.05 C 197.35 7.48 197.11 8.34 197.00 8.77 C 195.13 9.97 193.16 11.01 191.21 12.06 C 191.58 14.42 191.91 16.78 192.18 19.16 L 191.30 19.11 C 190.31 19.03 189.33 18.94 188.35 18.85 C 188.20 17.06 188.04 15.27 187.87 13.48 C 185.90 15.05 183.97 16.66 182.12 18.36 C 181.80 18.34 181.17 18.29 180.85 18.27 C 177.63 14.53 179.55 9.76 180.83 5.63 M 186.15 11.40 C 185.05 11.06 183.52 11.27 182.90 12.33 C 182.98 14.44 188.05 13.05 186.15 11.40 Z" />
</g>
<g id="#63594aff">
<path fill="#63594a" opacity="1.00" d=" M 44.07 5.41 C 45.74 6.82 47.36 8.28 48.94 9.78 C 51.14 10.52 53.33 11.27 55.45 12.19 C 54.63 12.51 52.99 13.15 52.17 13.48 C 50.33 12.72 46.09 13.34 48.43 15.97 C 48.77 16.47 49.45 17.48 49.79 17.98 C 49.42 17.85 48.67 17.58 48.30 17.44 C 46.54 16.14 44.87 14.72 43.17 13.35 C 44.22 12.79 45.27 12.23 46.33 11.68 C 45.56 9.59 44.80 7.51 44.07 5.41 Z" />
</g>
<g id="#665b4bff">
<path fill="#665b4b" opacity="1.00" d=" M 100.07 5.41 C 101.74 6.82 103.37 8.28 104.95 9.79 C 107.14 10.53 109.32 11.27 111.44 12.20 C 110.67 12.50 109.12 13.09 108.34 13.38 C 106.48 13.23 103.83 12.99 103.08 15.21 C 101.77 14.53 100.44 13.91 99.11 13.28 C 100.19 12.76 101.27 12.23 102.35 11.71 C 101.58 9.61 100.80 7.52 100.07 5.41 Z" />
<path fill="#665b4b" opacity="1.00" d=" M 156.08 5.41 C 157.74 6.82 159.37 8.28 160.95 9.79 C 163.13 10.52 165.31 11.27 167.43 12.18 C 166.66 12.50 165.14 13.14 164.37 13.46 C 162.31 13.25 159.83 13.39 158.69 15.43 L 157.66 15.08 C 156.68 14.70 155.70 14.32 154.73 13.93 C 155.91 13.14 157.09 12.36 158.28 11.58 C 157.53 9.53 156.79 7.47 156.08 5.41 Z" />
<path fill="#665b4b" opacity="1.00" d=" M 212.07 5.41 C 213.74 6.82 215.37 8.28 216.95 9.79 C 219.13 10.52 221.32 11.27 223.44 12.20 C 222.67 12.50 221.12 13.09 220.35 13.39 C 218.48 13.20 215.81 12.96 215.06 15.19 C 213.76 14.52 212.43 13.90 211.11 13.28 C 212.19 12.76 213.27 12.23 214.35 11.71 C 213.58 9.61 212.80 7.52 212.07 5.41 Z" />
</g>
<g id="#5e5749ff">
<path fill="#5e5749" opacity="1.00" d=" M 124.35 6.38 C 127.53 9.54 131.99 8.47 135.95 9.16 C 137.81 8.46 139.66 7.75 141.52 7.05 C 141.40 7.49 141.15 8.35 141.03 8.78 C 139.11 9.99 137.10 11.03 135.10 12.09 C 135.47 14.10 135.81 16.12 136.14 18.14 L 135.30 18.09 C 134.23 18.00 133.16 17.89 132.10 17.77 C 132.01 16.76 131.83 14.72 131.74 13.70 C 129.92 14.96 128.10 16.23 126.31 17.53 C 125.91 17.52 125.11 17.50 124.71 17.49 C 121.57 14.40 123.61 9.99 124.35 6.38 M 130.15 11.40 C 129.05 11.06 127.52 11.27 126.90 12.33 C 126.98 14.44 132.05 13.05 130.15 11.40 Z" />
</g>
<g id="#60574aff">
<path fill="#60574a" opacity="1.00" d=" M 3.49 8.08 C 4.17 8.06 5.51 8.02 6.18 7.99 C 6.00 10.49 5.80 12.99 5.57 15.49 C 4.80 13.04 4.13 10.57 3.49 8.08 Z" />
<path fill="#60574a" opacity="1.00" d=" M 59.49 8.08 C 60.17 8.06 61.51 8.02 62.18 7.99 C 62.00 10.49 61.80 12.99 61.57 15.49 C 60.80 13.04 60.13 10.57 59.49 8.08 Z" />
<path fill="#60574a" opacity="1.00" d=" M 115.49 8.08 C 116.17 8.06 117.51 8.02 118.18 7.99 C 118.00 10.49 117.80 12.99 117.57 15.49 C 116.80 13.04 116.13 10.57 115.49 8.08 Z" />
<path fill="#60574a" opacity="1.00" d=" M 171.49 8.08 C 172.17 8.06 173.51 8.02 174.18 7.99 C 174.00 10.49 173.80 12.99 173.57 15.49 C 172.80 13.04 172.13 10.57 171.49 8.08 Z" />
<path fill="#60574a" opacity="1.00" d=" M 8.22 11.83 L 8.78 11.83 C 11.20 14.45 5.80 14.45 8.22 11.83 Z" />
<path fill="#60574a" opacity="1.00" d=" M 64.22 11.83 L 64.78 11.83 C 67.20 14.45 61.80 14.45 64.22 11.83 Z" />
<path fill="#60574a" opacity="1.00" d=" M 120.22 11.83 L 120.78 11.83 C 123.20 14.45 117.80 14.45 120.22 11.83 Z" />
<path fill="#60574a" opacity="1.00" d=" M 176.22 11.83 L 176.78 11.83 C 179.20 14.45 173.80 14.45 176.22 11.83 Z" />
</g>
<g id="#92824dff">
<path fill="#92824d" opacity="1.00" d=" M 23.44 12.01 C 25.34 10.96 27.25 9.93 29.07 8.77 C 28.61 10.23 28.17 11.69 27.72 13.16 C 26.30 12.78 24.87 12.39 23.44 12.01 Z" />
<path fill="#92824d" opacity="1.00" d=" M 79.21 12.06 C 81.16 11.01 83.13 9.97 85.00 8.77 C 84.64 10.23 84.31 11.70 84.00 13.17 C 82.40 12.80 80.81 12.43 79.21 12.06 Z" />
<path fill="#92824d" opacity="1.00" d=" M 135.10 12.09 C 137.10 11.03 139.11 9.99 141.03 8.78 C 140.65 10.23 140.31 11.69 139.98 13.15 C 138.35 12.80 136.73 12.44 135.10 12.09 Z" />
<path fill="#92824d" opacity="1.00" d=" M 191.21 12.06 C 193.16 11.01 195.13 9.97 197.00 8.77 C 196.63 10.23 196.31 11.70 196.00 13.17 C 194.40 12.80 192.81 12.43 191.21 12.06 Z" />
</g>
<g id="#332e2aff">
<path fill="#332e2a" opacity="1.00" d=" M 18.15 11.40 C 20.05 13.05 14.99 14.44 14.90 12.33 C 15.53 11.27 17.05 11.06 18.15 11.40 Z" />
<path fill="#332e2a" opacity="1.00" d=" M 74.15 11.40 C 76.05 13.05 70.98 14.44 70.90 12.33 C 71.53 11.27 73.05 11.06 74.15 11.40 Z" />
<path fill="#332e2a" opacity="1.00" d=" M 130.15 11.40 C 132.05 13.05 126.98 14.44 126.90 12.33 C 127.52 11.27 129.05 11.06 130.15 11.40 Z" />
<path fill="#332e2a" opacity="1.00" d=" M 186.15 11.40 C 188.05 13.05 182.98 14.44 182.90 12.33 C 183.52 11.27 185.05 11.06 186.15 11.40 Z" />
<path fill="#332e2a" opacity="1.00" d=" M 34.07 14.56 C 34.61 14.19 35.69 13.44 36.24 13.07 L 36.85 13.06 C 36.89 14.90 36.93 16.74 36.98 18.58 C 37.11 18.97 37.35 19.76 37.48 20.15 C 36.38 18.27 35.30 16.36 34.07 14.56 Z" />
<path fill="#332e2a" opacity="1.00" d=" M 89.95 14.51 C 90.52 14.11 91.66 13.30 92.22 12.90 L 92.71 13.30 C 92.99 15.22 93.19 17.15 93.40 19.08 C 92.26 17.54 91.13 16.01 89.95 14.51 Z" />
<path fill="#332e2a" opacity="1.00" d=" M 146.72 14.75 C 147.17 14.27 148.06 13.30 148.51 12.81 L 148.60 13.28 C 148.87 14.91 149.08 16.55 149.30 18.19 C 148.43 17.04 147.58 15.89 146.72 14.75 Z" />
<path fill="#332e2a" opacity="1.00" d=" M 201.95 14.51 C 202.52 14.11 203.66 13.30 204.22 12.90 L 204.71 13.30 C 204.99 15.21 205.19 17.15 205.40 19.07 C 204.26 17.54 203.13 16.01 201.95 14.51 Z" />
<path fill="#332e2a" opacity="1.00" d=" M 70.12 18.36 C 71.97 16.66 73.90 15.05 75.87 13.49 C 76.04 15.27 76.20 17.06 76.35 18.85 C 75.18 18.77 74.01 18.68 72.84 18.59 C 72.16 18.53 70.80 18.42 70.12 18.36 Z" />
<path fill="#332e2a" opacity="1.00" d=" M 182.12 18.36 C 183.97 16.66 185.90 15.05 187.87 13.48 C 188.04 15.27 188.20 17.06 188.35 18.85 C 187.18 18.77 186.01 18.68 184.84 18.59 C 184.16 18.54 182.80 18.42 182.12 18.36 Z" />
<path fill="#332e2a" opacity="1.00" d=" M 30.62 16.58 C 32.05 14.02 34.31 16.89 32.84 18.72 C 32.04 18.07 31.30 17.36 30.62 16.58 Z" />
<path fill="#332e2a" opacity="1.00" d=" M 86.55 15.81 C 87.68 13.90 89.52 16.15 89.62 17.56 C 88.37 17.34 87.34 16.76 86.55 15.81 Z" />
<path fill="#332e2a" opacity="1.00" d=" M 198.55 15.81 C 199.68 13.90 201.52 16.15 201.62 17.56 C 200.36 17.34 199.34 16.76 198.55 15.81 Z" />
<path fill="#332e2a" opacity="1.00" d=" M 38.82 17.88 C 38.91 15.73 41.93 16.34 40.49 18.25 L 39.49 18.50 L 38.82 17.88 Z" />
</g>
<g id="#907e4efe">
<path fill="#907e4e" opacity="1.00" d=" M 36.24 13.07 C 37.68 11.95 39.32 10.56 41.30 10.99 C 41.33 11.33 41.40 12.02 41.44 12.36 C 39.99 13.00 38.46 13.24 36.85 13.06 L 36.24 13.07 Z" />
<path fill="#907e4e" opacity="1.00" d=" M 92.22 12.90 C 93.58 11.79 95.25 10.90 97.06 11.15 C 97.06 11.47 97.06 12.11 97.05 12.43 C 95.71 13.20 94.26 13.49 92.71 13.30 L 92.22 12.90 Z" />
<path fill="#907e4e" opacity="1.00" d=" M 148.51 12.81 C 149.50 11.38 151.28 10.82 152.95 11.16 C 152.93 11.48 152.88 12.12 152.86 12.45 C 151.53 13.17 150.11 13.45 148.60 13.28 L 148.51 12.81 Z" />
<path fill="#907e4e" opacity="1.00" d=" M 204.22 12.90 C 205.58 11.79 207.25 10.90 209.06 11.15 C 209.06 11.47 209.06 12.11 209.05 12.43 C 207.71 13.20 206.26 13.49 204.71 13.30 L 204.22 12.90 Z" />
<path fill="#907e4e" opacity="1.00" d=" M 48.43 15.97 C 46.09 13.34 50.33 12.72 52.17 13.48 C 51.01 14.42 49.89 15.50 48.43 15.97 Z" />
<path fill="#907e4e" opacity="1.00" d=" M 103.08 15.21 C 103.83 12.99 106.48 13.23 108.34 13.38 C 107.14 14.29 105.95 15.26 104.49 15.71 L 103.58 15.66 L 103.08 15.21 Z" />
<path fill="#907e4e" opacity="1.00" d=" M 158.69 15.43 C 159.83 13.39 162.31 13.25 164.37 13.46 C 162.90 14.97 160.84 16.10 158.69 15.43 Z" />
<path fill="#907e4e" opacity="1.00" d=" M 215.06 15.19 C 215.81 12.96 218.48 13.20 220.35 13.39 C 219.14 14.28 217.93 15.22 216.47 15.66 L 215.55 15.63 L 215.06 15.19 Z" />
</g>
<g id="#76644eff">
<path fill="#76644e" opacity="1.00" d=" M 23.44 12.01 C 24.87 12.39 26.30 12.78 27.72 13.16 C 27.56 13.69 27.25 14.75 27.09 15.29 C 26.20 16.67 25.14 18.47 26.22 20.07 C 25.56 20.14 24.24 20.27 23.58 20.34 C 23.72 17.56 23.65 14.78 23.44 12.01 Z" />
</g>
<g id="#5a5851ff">
<path fill="#5a5851" opacity="1.00" d=" M 30.14 17.21 C 30.68 15.41 31.15 13.60 31.65 11.78 C 32.46 12.70 33.29 13.61 34.07 14.56 C 35.30 16.36 36.38 18.27 37.48 20.15 C 36.94 20.39 35.88 20.85 35.35 21.08 C 34.53 20.27 33.69 19.49 32.84 18.72 C 34.31 16.89 32.05 14.02 30.62 16.58 L 30.14 17.21 Z" />
</g>
<g id="#71614dff">
<path fill="#71614d" opacity="1.00" d=" M 79.21 12.06 C 80.81 12.43 82.40 12.80 84.00 13.17 C 83.59 15.12 83.23 17.08 82.88 19.04 C 82.20 19.07 80.86 19.13 80.18 19.16 C 79.91 16.78 79.58 14.42 79.21 12.06 Z" />
<path fill="#71614d" opacity="1.00" d=" M 191.21 12.06 C 192.81 12.43 194.40 12.80 196.00 13.17 C 195.59 15.12 195.23 17.08 194.88 19.04 C 194.20 19.07 192.86 19.13 192.18 19.16 C 191.91 16.78 191.58 14.42 191.21 12.06 Z" />
</g>
<g id="#5b5a53ff">
<path fill="#5b5a53" opacity="1.00" d=" M 86.18 16.32 C 86.71 14.82 87.18 13.30 87.65 11.78 C 88.42 12.68 89.19 13.59 89.95 14.51 C 91.13 16.01 92.26 17.54 93.40 19.08 C 92.77 19.42 91.51 20.11 90.88 20.45 C 90.47 19.48 90.05 18.52 89.62 17.56 C 89.52 16.15 87.68 13.90 86.55 15.81 L 86.18 16.32 Z" />
<path fill="#5b5a53" opacity="1.00" d=" M 198.18 16.32 C 198.71 14.82 199.18 13.30 199.65 11.78 C 200.42 12.68 201.19 13.59 201.95 14.51 C 203.13 16.01 204.26 17.54 205.40 19.07 C 204.77 19.42 203.51 20.11 202.88 20.45 C 202.47 19.48 202.05 18.52 201.62 17.56 C 201.52 16.15 199.68 13.90 198.55 15.81 L 198.18 16.32 Z" />
</g>
<g id="#565148ff">
<path fill="#565148" opacity="1.00" d=" M 36.85 13.06 C 38.46 13.24 39.99 13.00 41.44 12.36 C 41.45 14.47 41.46 16.58 41.65 18.68 L 40.49 18.25 C 41.93 16.34 38.91 15.73 38.82 17.88 C 38.36 18.06 37.44 18.41 36.98 18.58 C 36.93 16.74 36.89 14.90 36.85 13.06 Z" />
</g>
<g id="#505251ff">
<path fill="#505251" opacity="1.00" d=" M 92.71 13.30 C 94.26 13.49 95.71 13.20 97.05 12.43 C 97.30 14.23 97.62 16.02 97.99 17.80 C 97.26 17.91 95.79 18.12 95.06 18.23 C 94.64 18.44 93.82 18.86 93.40 19.08 C 93.19 17.15 92.99 15.22 92.71 13.30 Z" />
<path fill="#505251" opacity="1.00" d=" M 204.71 13.30 C 206.26 13.49 207.71 13.20 209.05 12.43 C 209.30 14.23 209.62 16.02 209.99 17.80 C 209.26 17.91 207.79 18.12 207.06 18.23 C 206.64 18.44 205.82 18.86 205.40 19.07 C 205.19 17.15 204.99 15.21 204.71 13.30 Z" />
</g>
<g id="#515455ff">
<path fill="#515455" opacity="1.00" d=" M 148.60 13.28 C 150.11 13.45 151.53 13.17 152.86 12.45 C 153.20 13.91 153.61 15.36 154.06 16.80 C 153.32 16.92 151.85 17.16 151.12 17.28 C 150.66 17.51 149.75 17.96 149.30 18.19 C 149.08 16.55 148.87 14.91 148.60 13.28 Z" />
</g>
<g id="#322e2aff">
<path fill="#322e2a" opacity="1.00" d=" M 13.76 19.24 C 15.66 17.13 17.70 15.15 19.85 13.29 C 20.02 15.22 20.18 17.15 20.31 19.08 C 19.18 19.43 18.04 19.78 16.91 20.13 C 16.12 19.91 14.55 19.46 13.76 19.24 Z" />
</g>
<g id="#332e2afe">
<path fill="#332e2a" opacity="1.00" d=" M 126.31 17.53 C 128.10 16.23 129.92 14.96 131.74 13.70 C 131.83 14.72 132.01 16.76 132.10 17.77 C 131.01 17.73 129.92 17.69 128.83 17.65 C 128.20 17.62 126.94 17.56 126.31 17.53 Z" />
</g>
<g id="#4479caff">
<path fill="#4479ca" opacity="1.00" d=" M 142.80 15.12 C 143.55 15.73 144.29 16.34 145.03 16.96 C 145.73 17.76 146.42 18.56 147.10 19.36 C 146.80 19.55 146.20 19.92 145.89 20.11 C 148.53 19.88 151.23 19.78 153.87 19.43 C 153.79 20.09 153.63 21.39 153.55 22.05 C 152.21 23.12 150.87 24.17 149.51 25.22 C 146.43 24.42 143.30 23.72 140.16 23.22 C 140.81 24.72 141.47 26.22 142.12 27.72 C 138.49 27.04 134.87 26.36 131.24 25.75 C 130.86 27.83 130.48 29.90 130.11 31.97 C 134.07 33.03 138.18 34.39 142.32 33.63 C 145.12 33.06 147.02 30.74 148.95 28.83 C 149.58 29.95 150.21 31.06 150.86 32.17 C 153.37 32.31 155.87 32.65 158.35 33.04 C 160.62 30.88 162.92 28.76 165.34 26.77 C 164.18 29.05 162.72 31.22 162.08 33.73 C 163.45 35.47 165.18 36.87 166.83 38.33 C 160.47 36.72 154.08 34.35 147.47 34.41 C 141.96 35.40 141.08 41.50 139.74 45.92 C 138.68 45.87 137.62 45.83 136.57 45.78 C 137.04 42.96 137.47 40.13 137.90 37.30 C 135.62 35.77 131.23 36.25 129.80 33.27 C 128.65 30.89 128.56 28.18 128.13 25.61 C 120.59 26.32 111.48 25.64 106.29 32.40 C 104.96 35.66 109.07 37.30 110.84 39.35 C 105.87 38.13 100.89 36.89 96.15 34.93 C 96.46 33.99 96.78 33.05 97.10 32.11 C 99.04 33.05 100.99 34.00 102.94 34.92 C 103.75 32.97 104.58 31.04 105.41 29.09 C 102.53 28.13 99.65 27.19 96.76 26.27 L 102.61 24.97 C 101.39 24.49 100.16 24.00 98.92 23.56 C 99.31 22.40 99.13 21.32 98.39 20.33 C 99.42 20.02 100.45 19.71 101.49 19.41 L 102.36 19.30 C 101.46 19.71 100.57 20.14 99.68 20.57 C 106.43 20.61 113.05 21.99 119.75 22.60 C 116.93 20.72 114.02 18.97 110.91 17.61 L 111.53 17.05 C 114.23 17.79 116.91 18.56 119.59 19.37 L 119.83 20.11 C 120.09 20.96 120.33 21.81 120.55 22.66 C 120.37 25.11 123.82 24.65 122.95 22.35 C 130.27 22.57 137.65 22.46 144.74 20.41 C 144.67 19.68 144.60 18.95 144.53 18.21 C 143.16 17.92 141.80 17.62 140.44 17.33 C 141.23 16.60 142.02 15.87 142.80 15.12 Z" />
</g>
<g id="#3a7dcfff">
<path fill="#3a7dcf" opacity="1.00" d=" M 154.30 17.58 C 154.17 16.26 154.81 15.53 156.20 15.39 C 156.17 15.81 156.11 16.64 156.07 17.06 C 155.63 17.19 154.75 17.45 154.30 17.58 Z" />
<path fill="#3a7dcf" opacity="1.00" d=" M 98.17 18.58 C 97.93 17.21 98.52 16.50 99.92 16.47 C 99.91 16.88 99.87 17.70 99.85 18.11 C 99.43 18.23 98.59 18.46 98.17 18.58 Z" />
<path fill="#3a7dcf" opacity="1.00" d=" M 210.17 18.59 C 209.93 17.21 210.51 16.51 211.92 16.47 C 211.90 16.88 211.86 17.71 211.84 18.12 C 211.42 18.24 210.59 18.47 210.17 18.59 Z" />
<path fill="#3a7dcf" opacity="1.00" d=" M 42.00 19.48 C 41.90 18.16 42.54 17.49 43.92 17.48 C 43.89 17.89 43.84 18.70 43.81 19.11 C 43.36 19.20 42.45 19.39 42.00 19.48 Z" />
</g>
<g id="#8d9fbaff">
<path fill="#8d9fba" opacity="1.00" d=" M 156.20 15.39 C 156.57 15.31 157.29 15.15 157.66 15.08 C 158.22 15.89 158.61 16.79 158.83 17.76 L 158.30 18.09 L 157.56 18.26 C 157.19 17.96 156.44 17.36 156.07 17.06 C 156.11 16.64 156.17 15.81 156.20 15.39 Z" />
<path fill="#8d9fba" opacity="1.00" d=" M 99.92 16.47 C 100.28 16.50 100.99 16.56 101.34 16.59 C 102.07 17.28 102.60 18.09 102.95 19.03 L 102.36 19.30 L 101.49 19.41 C 101.08 19.09 100.26 18.44 99.85 18.11 C 99.87 17.70 99.91 16.88 99.92 16.47 Z" />
<path fill="#8d9fba" opacity="1.00" d=" M 211.92 16.47 C 212.27 16.50 212.98 16.56 213.34 16.59 C 214.06 17.27 214.60 18.06 214.94 18.99 L 214.36 19.28 L 213.49 19.41 C 213.08 19.09 212.26 18.44 211.84 18.12 C 211.86 17.71 211.90 16.88 211.92 16.47 Z" />
<path fill="#8d9fba" opacity="1.00" d=" M 43.92 17.48 C 44.27 17.47 44.98 17.43 45.33 17.41 C 46.03 18.13 46.54 18.96 46.88 19.91 L 46.32 20.19 L 45.47 20.33 C 45.05 20.02 44.22 19.42 43.81 19.11 C 43.84 18.70 43.89 17.89 43.92 17.48 Z" />
</g>
<g id="#3e84ceff">
<path fill="#3e84ce" opacity="1.00" d=" M 157.66 15.08 L 158.69 15.43 C 160.52 16.03 162.39 16.48 164.29 16.84 C 162.45 17.06 160.63 17.38 158.83 17.76 C 158.61 16.79 158.22 15.89 157.66 15.08 Z" />
<path fill="#3e84ce" opacity="1.00" d=" M 101.34 16.59 C 101.88 16.74 102.96 17.04 103.49 17.19 C 104.06 17.21 105.19 17.23 105.75 17.25 C 106.57 17.32 107.40 17.40 108.23 17.47 C 106.44 17.91 104.68 18.44 102.95 19.03 C 102.60 18.09 102.07 17.28 101.34 16.59 Z" />
<path fill="#3e84ce" opacity="1.00" d=" M 213.34 16.59 C 213.88 16.74 214.97 17.02 215.51 17.17 C 216.08 17.16 217.21 17.14 217.78 17.13 C 218.66 17.34 219.55 17.55 220.45 17.75 C 218.59 18.07 216.76 18.49 214.94 18.99 C 214.60 18.06 214.06 17.27 213.34 16.59 Z" />
<path fill="#3e84ce" opacity="1.00" d=" M 45.33 17.41 C 46.07 17.42 47.56 17.44 48.30 17.44 C 48.67 17.58 49.42 17.85 49.79 17.98 C 50.25 18.16 51.18 18.51 51.64 18.69 L 52.22 18.95 C 50.43 19.19 48.64 19.51 46.88 19.91 C 46.54 18.96 46.03 18.13 45.33 17.41 Z" />
</g>
<g id="#5d564aff">
<path fill="#5d564a" opacity="1.00" d=" M 2.56 17.35 C 4.76 16.90 6.96 16.44 9.15 15.97 C 9.71 17.24 10.29 18.51 10.88 19.77 C 10.25 20.13 8.99 20.86 8.36 21.23 C 8.27 20.72 8.09 19.69 8.00 19.17 C 8.45 17.06 5.25 16.40 5.49 18.79 C 4.51 18.32 3.53 17.84 2.56 17.35 Z" />
</g>
<g id="#625f57ff">
<path fill="#625f57" opacity="1.00" d=" M 59.97 16.83 C 61.93 16.51 63.88 16.22 65.84 15.94 C 65.92 17.25 66.00 18.56 66.07 19.87 C 65.62 20.16 64.70 20.73 64.24 21.02 L 64.16 20.22 L 64.07 19.33 C 64.53 17.82 62.32 16.50 61.71 18.28 C 61.27 17.92 60.41 17.19 59.97 16.83 Z" />
<path fill="#625f57" opacity="1.00" d=" M 171.97 16.83 C 173.92 16.52 175.88 16.22 177.85 15.94 C 177.92 17.24 177.99 18.55 178.06 19.86 C 177.61 20.13 176.71 20.69 176.25 20.97 L 176.17 20.13 L 176.08 19.30 C 176.54 17.77 174.31 16.50 173.71 18.28 C 173.28 17.92 172.40 17.20 171.97 16.83 Z" />
</g>
<g id="#4578c9ff">
<path fill="#4578c9" opacity="1.00" d=" M 86.18 16.32 L 86.55 15.81 C 87.34 16.76 88.37 17.34 89.62 17.56 C 90.05 18.52 90.47 19.48 90.88 20.45 C 90.62 20.62 90.10 20.96 89.85 21.12 C 92.48 20.89 95.17 20.81 97.81 20.46 C 97.78 21.15 97.73 22.52 97.70 23.21 C 91.26 25.89 84.54 27.89 77.48 27.70 C 76.84 28.98 75.56 31.52 74.92 32.79 C 78.74 33.37 82.55 34.73 86.44 34.40 C 89.74 34.30 90.31 30.50 91.46 28.12 C 91.57 28.14 91.80 28.16 91.91 28.17 C 92.61 30.17 93.34 32.15 94.11 34.11 C 88.57 35.60 84.93 40.00 83.28 45.27 C 82.68 42.30 82.09 39.33 81.53 36.36 C 79.18 36.14 76.83 35.93 74.48 35.71 C 74.01 32.72 73.55 29.73 73.01 26.76 C 72.93 25.32 72.03 24.07 70.81 23.37 C 76.85 23.51 82.88 23.04 88.73 21.42 C 88.66 20.67 88.60 19.91 88.54 19.16 C 87.21 18.94 85.88 18.72 84.55 18.50 C 85.11 17.79 85.65 17.06 86.18 16.32 Z" />
</g>
<g id="#73a5cbff">
<path fill="#73a5cb" opacity="1.00" d=" M 109.01 17.52 C 108.53 15.77 110.98 15.74 111.53 17.05 L 110.91 17.61 C 110.43 17.59 109.49 17.55 109.01 17.52 Z" />
</g>
<g id="#6b675bff">
<path fill="#6b675b" opacity="1.00" d=" M 118.20 15.78 C 119.37 15.95 120.55 16.13 121.73 16.31 C 121.83 16.93 122.05 18.17 122.15 18.79 C 121.57 19.12 120.41 19.78 119.83 20.11 L 119.59 19.37 C 119.15 18.17 118.67 16.98 118.20 15.78 Z" />
</g>
<g id="#508bc7ff">
<path fill="#508bc7" opacity="1.00" d=" M 165.11 16.95 C 165.63 15.42 167.82 15.53 168.04 17.20 C 167.31 17.14 165.84 17.02 165.11 16.95 Z" />
<path fill="#508bc7" opacity="1.00" d=" M 221.41 17.95 C 221.86 16.65 222.72 16.31 224.00 16.91 L 224.00 17.64 C 223.35 17.72 222.06 17.87 221.41 17.95 Z" />
</g>
<g id="#4377caff">
<path fill="#4377ca" opacity="1.00" d=" M 198.18 16.32 L 198.55 15.81 C 199.34 16.76 200.36 17.34 201.62 17.56 C 202.05 18.52 202.47 19.48 202.88 20.45 C 202.62 20.62 202.10 20.96 201.85 21.13 C 204.45 20.89 207.16 20.80 209.77 20.43 C 209.19 21.58 209.35 22.52 210.26 23.25 C 211.95 23.27 211.23 20.95 210.37 20.30 C 211.41 20.00 212.45 19.71 213.49 19.41 L 214.36 19.28 C 213.45 19.75 212.55 20.23 211.65 20.72 C 215.76 20.94 219.88 20.91 224.00 20.86 L 224.00 27.63 C 222.03 29.45 219.60 30.89 218.17 33.22 C 217.58 36.07 221.28 37.43 222.83 39.35 C 217.86 38.13 212.89 36.89 208.15 34.93 C 208.46 33.99 208.78 33.05 209.10 32.11 C 211.05 33.06 213.00 34.01 214.97 34.93 C 215.82 32.81 216.69 30.70 217.56 28.58 C 208.28 27.25 198.84 26.47 189.49 27.39 C 188.85 28.74 187.57 31.45 186.93 32.81 C 190.74 33.37 194.55 34.73 198.44 34.40 C 201.74 34.30 202.31 30.50 203.46 28.12 C 203.57 28.14 203.80 28.16 203.91 28.18 C 204.60 30.16 205.33 32.13 206.10 34.08 C 198.58 36.00 196.33 43.80 191.29 48.64 C 195.93 51.19 200.49 53.89 205.36 56.00 L 195.33 56.00 C 196.72 55.59 198.12 55.15 199.51 54.70 C 195.48 52.54 191.31 50.65 187.33 48.40 C 189.43 46.70 191.60 45.08 193.75 43.44 C 193.85 41.05 193.94 38.67 194.03 36.29 C 191.46 36.11 188.90 35.93 186.34 35.75 C 186.06 32.81 185.84 29.87 185.54 26.93 C 180.38 27.36 175.01 27.19 170.14 29.20 C 165.53 27.24 160.82 25.55 156.12 23.84 C 155.74 23.58 155.00 23.06 154.62 22.79 C 155.21 21.61 155.15 20.46 154.45 19.33 C 155.48 18.97 156.52 18.62 157.56 18.26 L 158.30 18.09 C 157.40 18.67 156.51 19.26 155.62 19.86 C 160.01 20.25 164.49 20.02 168.66 18.47 C 171.17 18.99 173.67 19.57 176.17 20.13 L 176.25 20.97 C 176.34 21.88 176.42 22.78 176.50 23.68 C 176.07 26.16 179.68 25.63 178.90 23.37 C 186.23 23.54 193.62 23.48 200.73 21.41 C 200.66 20.66 200.60 19.91 200.54 19.16 C 199.21 18.94 197.88 18.72 196.55 18.50 C 197.10 17.79 197.65 17.06 198.18 16.32 M 167.88 20.16 C 168.31 21.39 168.75 22.61 169.20 23.83 C 171.36 23.63 173.53 23.45 175.69 23.22 C 173.34 21.64 170.70 20.52 167.88 20.16 Z" />
</g>
<g id="#8a7c4cff">
<path fill="#8a7c4c" opacity="1.00" d=" M 5.49 18.79 C 5.25 16.40 8.45 17.06 8.00 19.17 C 7.37 19.08 6.12 18.89 5.49 18.79 Z" />
</g>
<g id="#4378c9ff">
<path fill="#4378c9" opacity="1.00" d=" M 30.14 17.21 L 30.62 16.58 C 31.30 17.36 32.04 18.07 32.84 18.72 C 33.69 19.49 34.53 20.27 35.35 21.08 C 34.94 21.28 34.12 21.68 33.71 21.88 C 36.39 21.74 39.10 21.77 41.76 21.46 C 41.19 22.61 41.35 23.54 42.26 24.25 C 43.96 24.28 43.24 21.95 42.37 21.32 C 43.40 20.99 44.43 20.66 45.47 20.33 L 46.32 20.19 C 45.44 20.65 44.56 21.11 43.69 21.58 C 50.46 21.59 57.09 23.05 63.81 23.55 C 60.79 21.59 57.60 19.85 54.17 18.72 C 54.45 18.45 55.01 17.91 55.29 17.64 C 58.25 18.49 61.19 19.39 64.16 20.22 L 64.24 21.02 C 64.33 21.90 64.41 22.79 64.49 23.68 C 64.08 26.14 67.69 25.64 66.90 23.38 C 68.00 23.40 69.10 23.40 70.20 23.38 C 70.06 24.71 70.48 25.82 71.47 26.72 C 63.72 25.20 55.46 27.10 50.30 33.41 C 48.97 36.67 53.07 38.31 54.84 40.35 C 49.87 39.13 44.89 37.89 40.15 35.93 C 40.46 35.00 40.77 34.07 41.09 33.14 C 43.29 34.18 45.50 35.19 47.72 36.18 C 48.08 33.37 47.97 30.52 47.23 27.78 C 47.85 27.56 48.47 27.35 49.10 27.13 C 44.04 27.40 38.98 27.68 33.92 27.95 C 35.23 30.47 36.46 33.03 37.99 35.43 C 30.52 35.23 30.85 43.88 25.39 46.71 C 25.97 44.34 26.65 41.99 27.40 39.67 C 24.13 38.88 20.96 37.72 17.91 36.28 C 16.56 36.58 15.21 36.89 13.86 37.20 C 15.92 35.57 17.89 31.95 20.96 33.22 C 24.80 33.90 29.49 37.15 32.81 33.82 C 34.27 31.46 32.77 28.49 32.70 25.93 C 27.85 26.75 23.25 28.50 18.98 30.91 C 18.72 30.47 18.19 29.58 17.93 29.14 C 18.98 28.36 20.02 27.58 21.07 26.80 C 13.96 27.56 6.88 28.72 0.00 30.70 L 0.00 23.50 C 2.51 24.29 5.15 24.49 7.76 24.74 C 5.23 23.10 2.60 21.64 0.00 20.12 L 0.00 18.89 C 2.78 19.71 5.56 20.51 8.36 21.23 L 8.38 21.74 C 8.41 22.72 8.45 23.70 8.48 24.68 C 7.99 27.14 11.66 26.62 10.89 24.38 C 18.22 24.54 25.61 24.48 32.72 22.42 C 32.66 21.67 32.61 20.93 32.56 20.19 C 31.21 19.92 29.85 19.64 28.49 19.39 C 29.06 18.67 29.61 17.95 30.14 17.21 Z" />
</g>
<g id="#8fa8bbff">
<path fill="#8fa8bb" opacity="1.00" d=" M 51.64 18.69 C 52.13 17.13 54.02 16.98 55.29 17.64 C 55.01 17.91 54.45 18.45 54.17 18.72 C 53.68 18.78 52.71 18.89 52.22 18.95 L 51.64 18.69 Z" />
</g>
<g id="#84774cff">
<path fill="#84774c" opacity="1.00" d=" M 61.71 18.28 C 62.32 16.50 64.53 17.82 64.07 19.33 C 63.48 19.07 62.30 18.55 61.71 18.28 Z" />
<path fill="#84774c" opacity="1.00" d=" M 173.71 18.28 C 174.31 16.50 176.54 17.77 176.08 19.30 C 175.49 19.04 174.31 18.53 173.71 18.28 Z" />
</g>
<g id="#437bc5ff">
<path fill="#437bc5" opacity="1.00" d=" M 123.77 17.92 C 124.00 17.81 124.47 17.60 124.71 17.49 C 125.11 17.50 125.91 17.52 126.31 17.53 C 126.94 17.56 128.20 17.62 128.83 17.65 C 130.98 17.80 133.14 17.95 135.30 18.09 L 136.14 18.14 C 136.84 18.11 138.22 18.03 138.91 18.00 L 139.78 17.74 C 135.32 20.82 129.58 20.37 124.48 21.53 C 124.24 20.33 124.01 19.12 123.77 17.92 Z" />
<path fill="#437bc5" opacity="1.00" d=" M 67.80 18.82 C 68.06 18.68 68.58 18.40 68.84 18.26 C 69.16 18.29 69.80 18.33 70.12 18.36 C 70.80 18.42 72.16 18.53 72.84 18.59 C 74.99 18.79 77.15 18.96 79.30 19.11 L 80.18 19.16 C 80.86 19.13 82.20 19.07 82.88 19.04 L 83.84 18.89 C 79.22 21.65 73.60 21.41 68.47 22.54 C 68.25 21.30 68.02 20.06 67.80 18.82 Z" />
<path fill="#437bc5" opacity="1.00" d=" M 179.80 18.82 C 180.06 18.68 180.59 18.41 180.85 18.27 C 181.17 18.29 181.80 18.34 182.12 18.36 C 182.80 18.42 184.16 18.54 184.84 18.59 C 186.99 18.79 189.14 18.96 191.30 19.11 L 192.18 19.16 C 192.86 19.13 194.20 19.07 194.88 19.04 L 195.84 18.89 C 191.22 21.65 185.60 21.41 180.47 22.55 C 180.25 21.30 180.02 20.06 179.80 18.82 Z" />
<path fill="#437bc5" opacity="1.00" d=" M 12.11 20.67 C 12.05 20.16 11.94 19.14 11.88 18.63 C 12.35 18.78 13.29 19.09 13.76 19.24 C 14.55 19.46 16.12 19.91 16.91 20.13 C 19.13 20.27 21.36 20.34 23.58 20.34 C 24.24 20.27 25.56 20.14 26.22 20.07 L 26.85 19.97 L 27.80 19.79 C 23.26 22.67 17.63 22.47 12.54 23.71 C 12.42 22.87 12.29 22.03 12.17 21.19 L 12.11 20.67 Z" />
</g>
<g id="#8fa8baff">
<path fill="#8fa8ba" opacity="1.00" d=" M 128.83 17.65 C 129.92 17.69 131.01 17.73 132.10 17.77 C 133.16 17.89 134.23 18.00 135.30 18.09 C 133.14 17.95 130.98 17.80 128.83 17.65 Z" />
<path fill="#8fa8ba" opacity="1.00" d=" M 72.84 18.59 C 74.01 18.68 75.18 18.77 76.35 18.85 C 77.33 18.94 78.32 19.03 79.30 19.11 C 77.15 18.96 74.99 18.79 72.84 18.59 Z" />
<path fill="#8fa8ba" opacity="1.00" d=" M 184.84 18.59 C 186.01 18.68 187.18 18.77 188.35 18.85 C 189.33 18.94 190.31 19.03 191.30 19.11 C 189.14 18.96 186.99 18.79 184.84 18.59 Z" />
<path fill="#8fa8ba" opacity="1.00" d=" M 16.91 20.13 C 18.04 19.78 19.18 19.43 20.31 19.08 C 21.40 19.51 22.49 19.93 23.58 20.34 C 21.36 20.34 19.13 20.27 16.91 20.13 Z" />
</g>
<g id="#665b9efe">
<path fill="#665b9e" opacity="1.00" d=" M 140.44 17.33 C 141.80 17.62 143.16 17.92 144.53 18.21 C 144.60 18.95 144.67 19.68 144.74 20.41 C 137.65 22.46 130.27 22.57 122.95 22.35 C 122.35 22.43 121.15 22.58 120.55 22.66 C 120.33 21.81 120.09 20.96 119.83 20.11 C 120.41 19.78 121.57 19.12 122.15 18.79 C 122.56 18.57 123.36 18.14 123.77 17.92 C 124.01 19.12 124.24 20.33 124.48 21.53 C 129.58 20.37 135.32 20.82 139.78 17.74 L 140.44 17.33 Z" />
<path fill="#665b9e" opacity="1.00" d=" M 196.55 18.50 C 197.88 18.72 199.21 18.94 200.54 19.16 C 200.60 19.91 200.66 20.66 200.73 21.41 C 193.62 23.48 186.23 23.54 178.90 23.37 C 178.30 23.45 177.10 23.61 176.50 23.68 C 176.42 22.78 176.34 21.88 176.25 20.97 C 176.71 20.69 177.61 20.13 178.06 19.86 C 178.50 19.60 179.36 19.08 179.80 18.82 C 180.02 20.06 180.25 21.30 180.47 22.55 C 185.60 21.41 191.22 21.65 195.84 18.89 L 196.55 18.50 Z" />
</g>
<g id="#86a0b1ff">
<path fill="#86a0b1" opacity="1.00" d=" M 151.12 17.28 C 151.85 17.16 153.32 16.92 154.06 16.80 L 154.30 17.58 C 153.19 18.10 152.13 18.00 151.12 17.28 Z" />
<path fill="#86a0b1" opacity="1.00" d=" M 95.06 18.23 C 95.79 18.12 97.26 17.91 97.99 17.80 L 98.17 18.58 C 97.07 19.09 96.03 18.97 95.06 18.23 Z" />
<path fill="#86a0b1" opacity="1.00" d=" M 207.06 18.23 C 207.79 18.12 209.26 17.91 209.99 17.80 L 210.17 18.59 C 209.07 19.09 208.03 18.97 207.06 18.23 Z" />
<path fill="#86a0b1" opacity="1.00" d=" M 39.49 18.50 L 40.49 18.25 L 41.65 18.68 L 42.00 19.48 C 41.07 19.82 40.16 19.78 39.27 19.36 L 39.49 18.50 Z" />
<path fill="#86a0b1" opacity="1.00" d=" M 153.87 19.43 L 154.45 19.33 C 155.15 20.46 155.21 21.61 154.62 22.79 C 154.36 22.61 153.82 22.23 153.55 22.05 C 153.63 21.39 153.79 20.09 153.87 19.43 Z" />
<path fill="#86a0b1" opacity="1.00" d=" M 97.81 20.46 L 98.39 20.33 C 99.13 21.32 99.31 22.40 98.92 23.56 C 98.62 23.48 98.01 23.30 97.70 23.21 C 97.73 22.52 97.78 21.15 97.81 20.46 Z" />
<path fill="#86a0b1" opacity="1.00" d=" M 209.77 20.43 L 210.37 20.30 C 211.23 20.95 211.95 23.27 210.26 23.25 C 209.35 22.52 209.19 21.58 209.77 20.43 Z" />
<path fill="#86a0b1" opacity="1.00" d=" M 41.76 21.46 L 42.37 21.32 C 43.24 21.95 43.96 24.28 42.26 24.25 C 41.35 23.54 41.19 22.61 41.76 21.46 Z" />
</g>
<g id="#63579eff">
<path fill="#63579e" opacity="1.00" d=" M 154.30 17.58 C 154.75 17.45 155.63 17.19 156.07 17.06 C 156.44 17.36 157.19 17.96 157.56 18.26 C 156.52 18.62 155.48 18.97 154.45 19.33 L 153.87 19.43 C 151.23 19.78 148.53 19.88 145.89 20.11 C 146.20 19.92 146.80 19.55 147.10 19.36 C 147.65 19.07 148.75 18.48 149.30 18.19 C 149.75 17.96 150.66 17.51 151.12 17.28 C 152.13 18.00 153.19 18.10 154.30 17.58 Z" />
<path fill="#63579e" opacity="1.00" d=" M 98.17 18.58 C 98.59 18.46 99.43 18.23 99.85 18.11 C 100.26 18.44 101.08 19.09 101.49 19.41 C 100.45 19.71 99.42 20.02 98.39 20.33 L 97.81 20.46 C 95.17 20.81 92.48 20.89 89.85 21.12 C 90.10 20.96 90.62 20.62 90.88 20.45 C 91.51 20.11 92.77 19.42 93.40 19.08 C 93.82 18.86 94.64 18.44 95.06 18.23 C 96.03 18.97 97.07 19.09 98.17 18.58 Z" />
<path fill="#63579e" opacity="1.00" d=" M 210.17 18.59 C 210.59 18.47 211.42 18.24 211.84 18.12 C 212.26 18.44 213.08 19.09 213.49 19.41 C 212.45 19.71 211.41 20.00 210.37 20.30 L 209.77 20.43 C 207.16 20.80 204.45 20.89 201.85 21.13 C 202.10 20.96 202.62 20.62 202.88 20.45 C 203.51 20.11 204.77 19.42 205.40 19.07 C 205.82 18.86 206.64 18.44 207.06 18.23 C 208.03 18.97 209.07 19.09 210.17 18.59 Z" />
<path fill="#63579e" opacity="1.00" d=" M 42.00 19.48 C 42.45 19.39 43.36 19.20 43.81 19.11 C 44.22 19.42 45.05 20.02 45.47 20.33 C 44.43 20.66 43.40 20.99 42.37 21.32 L 41.76 21.46 C 39.10 21.77 36.39 21.74 33.71 21.88 C 34.12 21.68 34.94 21.28 35.35 21.08 C 35.88 20.85 36.94 20.39 37.48 20.15 C 37.92 19.96 38.82 19.56 39.27 19.36 C 40.16 19.78 41.07 19.82 42.00 19.48 Z" />
</g>
<g id="#65569cff">
<path fill="#65569c" opacity="1.00" d=" M 158.83 17.76 C 160.63 17.38 162.45 17.06 164.29 16.84 L 165.11 16.95 C 165.84 17.02 167.31 17.14 168.04 17.20 L 168.66 18.47 C 164.49 20.02 160.01 20.25 155.62 19.86 C 156.51 19.26 157.40 18.67 158.30 18.09 L 158.83 17.76 Z" />
<path fill="#65569c" opacity="1.00" d=" M 214.94 18.99 C 216.76 18.49 218.59 18.07 220.45 17.75 L 221.41 17.95 C 222.06 17.87 223.35 17.72 224.00 17.64 L 224.00 20.86 C 219.88 20.91 215.76 20.94 211.65 20.72 C 212.55 20.23 213.45 19.75 214.36 19.28 L 214.94 18.99 Z" />
<path fill="#65569c" opacity="1.00" d=" M 167.88 20.16 C 170.70 20.52 173.34 21.64 175.69 23.22 C 173.53 23.45 171.36 23.63 169.20 23.83 C 168.75 22.61 168.31 21.39 167.88 20.16 Z" />
<path fill="#65569c" opacity="1.00" d=" M 0.00 20.12 C 2.60 21.64 5.23 23.10 7.76 24.74 C 5.15 24.49 2.51 24.29 0.00 23.50 L 0.00 20.12 Z" />
</g>
<g id="#3d7bceff">
<path fill="#3d7bce" opacity="1.00" d=" M 36.98 18.58 C 37.44 18.41 38.36 18.06 38.82 17.88 L 39.49 18.50 L 39.27 19.36 C 38.82 19.56 37.92 19.96 37.48 20.15 C 37.35 19.76 37.11 18.97 36.98 18.58 Z" />
</g>
<g id="#665b9eff">
<path fill="#665b9e" opacity="1.00" d=" M 84.55 18.50 C 85.88 18.72 87.21 18.94 88.54 19.16 C 88.60 19.91 88.66 20.67 88.73 21.42 C 82.88 23.04 76.85 23.51 70.81 23.37 L 70.20 23.38 C 69.10 23.40 68.00 23.40 66.90 23.38 C 66.30 23.46 65.09 23.60 64.49 23.68 C 64.41 22.79 64.33 21.90 64.24 21.02 C 64.70 20.73 65.62 20.16 66.07 19.87 C 66.50 19.61 67.37 19.09 67.80 18.82 C 68.02 20.06 68.25 21.30 68.47 22.54 C 73.60 21.41 79.22 21.65 83.84 18.89 L 84.55 18.50 Z" />
</g>
<g id="#64559cff">
<path fill="#64559c" opacity="1.00" d=" M 102.95 19.03 C 104.68 18.44 106.44 17.91 108.23 17.47 L 109.01 17.52 C 109.49 17.55 110.43 17.59 110.91 17.61 C 114.02 18.97 116.93 20.72 119.75 22.60 C 113.05 21.99 106.43 20.61 99.68 20.57 C 100.57 20.14 101.46 19.71 102.36 19.30 L 102.95 19.03 Z" />
<path fill="#64559c" opacity="1.00" d=" M 46.88 19.91 C 48.64 19.51 50.43 19.19 52.22 18.95 C 52.71 18.89 53.68 18.78 54.17 18.72 C 57.60 19.85 60.79 21.59 63.81 23.55 C 57.09 23.05 50.46 21.59 43.69 21.58 C 44.56 21.11 45.44 20.65 46.32 20.19 L 46.88 19.91 Z" />
</g>
<g id="#665a9dff">
<path fill="#665a9d" opacity="1.00" d=" M 28.49 19.39 C 29.85 19.64 31.21 19.92 32.56 20.19 C 32.61 20.93 32.66 21.67 32.72 22.42 C 25.61 24.48 18.22 24.54 10.89 24.38 C 10.29 24.45 9.08 24.60 8.48 24.68 C 8.45 23.70 8.41 22.72 8.38 21.74 C 9.67 21.95 10.99 21.75 12.17 21.19 C 12.29 22.03 12.42 22.87 12.54 23.71 C 17.63 22.47 23.26 22.67 27.80 19.79 L 28.49 19.39 Z" />
</g>
<g id="#7f91acff">
<path fill="#7f91ac" opacity="1.00" d=" M 10.88 19.77 C 11.19 19.99 11.80 20.44 12.11 20.67 L 12.17 21.19 C 10.99 21.75 9.67 21.95 8.38 21.74 L 8.36 21.23 C 8.99 20.86 10.25 20.13 10.88 19.77 Z" />
</g>
<g id="#7498b7ff">
<path fill="#7498b7" opacity="1.00" d=" M 120.55 22.66 C 121.15 22.58 122.35 22.43 122.95 22.35 C 123.82 24.65 120.37 25.11 120.55 22.66 Z" />
<path fill="#7498b7" opacity="1.00" d=" M 64.49 23.68 C 65.09 23.60 66.30 23.46 66.90 23.38 C 67.69 25.64 64.08 26.14 64.49 23.68 Z" />
<path fill="#7498b7" opacity="1.00" d=" M 176.50 23.68 C 177.10 23.61 178.30 23.45 178.90 23.37 C 179.68 25.63 176.07 26.16 176.50 23.68 Z" />
<path fill="#7498b7" opacity="1.00" d=" M 8.48 24.68 C 9.08 24.60 10.29 24.45 10.89 24.38 C 11.66 26.62 7.99 27.14 8.48 24.68 Z" />
</g>
<g id="#3c6bbeff">
<path fill="#3c6bbe" opacity="1.00" d=" M 153.55 22.05 C 153.82 22.23 154.36 22.61 154.62 22.79 C 155.00 23.06 155.74 23.58 156.12 23.84 C 160.82 25.55 165.53 27.24 170.14 29.20 C 175.01 27.19 180.38 27.36 185.54 26.93 C 185.84 29.87 186.06 32.81 186.34 35.75 C 188.90 35.93 191.46 36.11 194.03 36.29 C 193.94 38.67 193.85 41.05 193.75 43.44 C 191.60 45.08 189.43 46.70 187.33 48.40 C 191.31 50.65 195.48 52.54 199.51 54.70 C 198.12 55.15 196.72 55.59 195.33 56.00 L 181.28 56.00 C 179.40 53.77 177.51 51.52 175.17 49.77 C 173.48 49.83 170.12 49.95 168.44 50.01 C 168.35 50.40 168.18 51.17 168.10 51.56 C 167.82 53.04 167.55 54.52 167.29 56.00 L 150.19 56.00 C 144.07 51.99 138.15 46.08 130.25 46.68 C 132.87 49.31 135.61 51.81 138.10 54.56 C 138.17 53.40 138.31 51.07 138.38 49.91 C 140.74 50.98 143.10 52.07 145.45 53.16 C 143.36 54.15 141.25 55.09 139.13 56.00 L 124.57 56.00 L 124.09 55.04 C 123.27 53.38 122.73 51.55 121.59 50.07 C 118.69 49.53 115.71 49.92 112.79 50.00 L 112.60 50.60 L 112.30 51.65 C 112.08 52.50 111.62 54.18 111.40 55.03 L 111.08 56.00 L 93.37 56.00 C 88.75 53.88 83.86 51.92 80.00 48.51 C 80.23 47.02 80.73 45.58 81.17 44.13 C 79.14 45.39 77.13 46.68 75.14 47.99 C 79.14 50.44 83.37 52.49 87.48 54.74 C 86.10 55.18 84.72 55.60 83.33 56.00 L 69.42 56.00 C 67.53 53.99 65.54 52.03 63.07 50.76 C 61.86 50.31 60.63 49.91 59.39 49.56 C 60.64 48.47 61.83 47.32 63.04 46.18 C 61.91 45.49 60.78 44.81 59.65 44.12 C 58.89 45.97 58.11 47.80 57.35 49.64 C 57.06 50.34 56.77 51.04 56.48 51.74 C 55.91 53.17 55.31 54.59 54.70 56.00 L 28.09 56.00 C 27.97 54.23 27.84 52.46 27.70 50.70 C 26.96 52.46 26.24 54.23 25.53 56.00 L 15.47 56.00 C 12.96 53.89 10.49 51.74 8.10 49.49 C 7.44 48.43 6.93 47.30 6.38 46.19 C 4.71 47.06 3.06 47.95 1.40 48.83 C 1.05 49.01 0.35 49.38 0.00 49.56 L 0.00 39.87 C 2.66 39.95 5.32 40.04 7.98 40.13 C 8.31 42.20 8.62 44.28 8.93 46.36 C 9.22 46.58 9.80 47.03 10.09 47.25 C 10.36 43.45 10.74 39.65 11.39 35.90 C 7.59 36.32 3.80 36.73 0.00 37.14 L 0.00 30.70 C 6.88 28.72 13.96 27.56 21.07 26.80 C 20.02 27.58 18.98 28.36 17.93 29.14 C 18.19 29.58 18.72 30.47 18.98 30.91 C 23.25 28.50 27.85 26.75 32.70 25.93 C 32.77 28.49 34.27 31.46 32.81 33.82 C 29.49 37.15 24.80 33.90 20.96 33.22 C 17.89 31.95 15.92 35.57 13.86 37.20 C 15.21 36.89 16.56 36.58 17.91 36.28 C 20.96 37.72 24.13 38.88 27.40 39.67 C 26.65 41.99 25.97 44.34 25.39 46.71 C 30.85 43.88 30.52 35.23 37.99 35.43 C 36.46 33.03 35.23 30.47 33.92 27.95 C 38.98 27.68 44.04 27.40 49.10 27.13 C 48.47 27.35 47.85 27.56 47.23 27.78 C 47.97 30.52 48.08 33.37 47.72 36.18 C 45.50 35.19 43.29 34.18 41.09 33.14 C 40.77 34.07 40.46 35.00 40.15 35.93 C 44.89 37.89 49.87 39.13 54.84 40.35 C 53.07 38.31 48.97 36.67 50.30 33.41 C 55.46 27.10 63.72 25.20 71.47 26.72 C 71.85 26.73 72.62 26.75 73.01 26.76 C 73.55 29.73 74.01 32.72 74.48 35.71 C 76.83 35.93 79.18 36.14 81.53 36.36 C 82.09 39.33 82.68 42.30 83.28 45.27 C 84.93 40.00 88.57 35.60 94.11 34.11 C 93.34 32.15 92.61 30.17 91.91 28.17 C 91.80 28.16 91.57 28.14 91.46 28.12 C 90.31 30.50 89.74 34.30 86.44 34.40 C 82.55 34.73 78.74 33.37 74.92 32.79 C 75.56 31.52 76.84 28.98 77.48 27.70 C 84.54 27.89 91.26 25.89 97.70 23.21 C 98.01 23.30 98.62 23.48 98.92 23.56 C 100.16 24.00 101.39 24.49 102.61 24.97 L 96.76 26.27 C 99.65 27.19 102.53 28.13 105.41 29.09 C 104.58 31.04 103.75 32.97 102.94 34.92 C 100.99 34.00 99.04 33.05 97.10 32.11 C 96.78 33.05 96.46 33.99 96.15 34.93 C 100.89 36.89 105.87 38.13 110.84 39.35 C 109.07 37.30 104.96 35.66 106.29 32.40 C 111.48 25.64 120.59 26.32 128.13 25.61 C 128.56 28.18 128.65 30.89 129.80 33.27 C 131.23 36.25 135.62 35.77 137.90 37.30 C 137.47 40.13 137.04 42.96 136.57 45.78 C 137.62 45.83 138.68 45.87 139.74 45.92 C 141.08 41.50 141.96 35.40 147.47 34.41 C 154.08 34.35 160.47 36.72 166.83 38.33 C 165.18 36.87 163.45 35.47 162.08 33.73 C 162.72 31.22 164.18 29.05 165.34 26.77 C 162.92 28.76 160.62 30.88 158.35 33.04 C 155.87 32.65 153.37 32.31 150.86 32.17 C 150.21 31.06 149.58 29.95 148.95 28.83 C 147.02 30.74 145.12 33.06 142.32 33.63 C 138.18 34.39 134.07 33.03 130.11 31.97 C 130.48 29.90 130.86 27.83 131.24 25.75 C 134.87 26.36 138.49 27.04 142.12 27.72 C 141.47 26.22 140.81 24.72 140.16 23.22 C 143.30 23.72 146.43 24.42 149.51 25.22 C 150.87 24.17 152.21 23.12 153.55 22.05 M 60.89 37.65 C 60.82 41.44 64.15 43.80 67.15 45.37 C 66.09 43.35 64.95 41.37 63.88 39.35 C 65.21 38.25 66.47 37.09 67.69 35.87 C 65.40 36.33 63.05 36.69 60.89 37.65 M 171.19 37.74 C 172.44 41.77 175.96 44.68 180.18 44.85 C 179.19 44.02 178.17 43.24 177.27 42.33 C 176.60 39.86 179.01 37.90 180.03 35.86 C 177.06 36.47 174.14 37.11 171.19 37.74 M 103.43 38.70 C 101.88 41.30 101.18 46.06 96.60 44.06 C 93.22 43.33 89.81 43.07 86.55 44.56 C 90.97 45.31 95.59 45.57 99.59 47.81 C 103.72 46.51 108.01 45.88 112.29 45.31 C 109.27 44.93 106.24 44.57 103.22 44.17 C 103.35 42.35 103.39 40.53 103.43 38.70 M 154.18 44.35 C 152.13 44.69 150.40 43.24 148.62 42.48 C 148.41 43.21 148.21 43.95 148.01 44.68 C 152.34 46.50 157.06 47.85 161.38 45.17 C 161.05 43.17 160.78 41.16 160.60 39.15 C 158.74 41.15 157.17 44.04 154.18 44.35 M 34.90 42.72 C 33.58 43.75 32.25 44.76 30.89 45.74 C 35.55 44.90 40.60 45.52 43.82 49.34 C 44.59 48.35 45.36 47.37 46.13 46.39 C 49.57 46.65 53.01 46.73 56.45 46.80 C 52.93 45.96 49.40 45.17 45.90 44.23 C 46.28 42.84 46.66 41.46 47.04 40.08 C 44.18 43.76 38.91 45.84 34.90 42.72 M 0.35 44.65 C 3.11 44.33 5.86 43.86 8.53 43.08 C 5.72 43.03 2.88 43.35 0.35 44.65 M 113.52 43.49 C 113.39 45.00 113.25 46.51 113.11 48.02 C 114.56 47.96 116.01 47.89 117.46 47.82 C 116.17 46.36 114.85 44.92 113.52 43.49 M 163.96 44.23 C 163.65 46.00 167.35 46.00 167.04 44.23 C 166.42 43.19 164.58 43.19 163.96 44.23 Z" />
<path fill="#3c6bbe" opacity="1.00" d=" M 189.49 27.39 C 198.84 26.47 208.28 27.25 217.56 28.58 C 216.69 30.70 215.82 32.81 214.97 34.93 C 213.00 34.01 211.05 33.06 209.10 32.11 C 208.78 33.05 208.46 33.99 208.15 34.93 C 212.89 36.89 217.86 38.13 222.83 39.35 C 221.28 37.43 217.58 36.07 218.17 33.22 C 219.60 30.89 222.03 29.45 224.00 27.63 L 224.00 45.18 C 215.54 44.83 206.99 42.46 198.55 44.22 C 201.87 45.17 205.24 45.94 208.62 46.66 C 213.70 48.01 218.93 46.15 224.00 45.79 L 224.00 56.00 L 205.36 56.00 C 200.49 53.89 195.93 51.19 191.29 48.64 C 196.33 43.80 198.58 36.00 206.10 34.08 C 205.33 32.13 204.60 30.16 203.91 28.18 C 203.80 28.16 203.57 28.14 203.46 28.12 C 202.31 30.50 201.74 34.30 198.44 34.40 C 194.55 34.73 190.74 33.37 186.93 32.81 C 187.57 31.45 188.85 28.74 189.49 27.39 Z" />
</g>
<g id="#268ed9ff">
<path fill="#268ed9" opacity="1.00" d=" M 70.20 23.38 L 70.81 23.37 C 72.03 24.07 72.93 25.32 73.01 26.76 C 72.62 26.75 71.85 26.73 71.47 26.72 C 70.48 25.82 70.06 24.71 70.20 23.38 Z" />
</g>
<g id="#4374c8ff">
<path fill="#4374c8" opacity="1.00" d=" M 0.00 37.14 C 3.80 36.73 7.59 36.32 11.39 35.90 C 10.74 39.65 10.36 43.45 10.09 47.25 C 9.80 47.03 9.22 46.58 8.93 46.36 C 8.62 44.28 8.31 42.20 7.98 40.13 C 5.32 40.04 2.66 39.95 0.00 39.87 L 0.00 37.14 Z" />
</g>
<g id="#4778cbfe">
<path fill="#4778cb" opacity="1.00" d=" M 60.89 37.65 C 63.05 36.69 65.40 36.33 67.69 35.87 C 66.47 37.09 65.21 38.25 63.88 39.35 C 64.95 41.37 66.09 43.35 67.15 45.37 C 64.15 43.80 60.82 41.44 60.89 37.65 Z" />
</g>
<g id="#4374c8fe">
<path fill="#4374c8" opacity="1.00" d=" M 171.19 37.74 C 174.14 37.11 177.06 36.47 180.03 35.86 C 179.01 37.90 176.60 39.86 177.27 42.33 C 178.17 43.24 179.19 44.02 180.18 44.85 C 175.96 44.68 172.44 41.77 171.19 37.74 Z" />
</g>
<g id="#4378cbff">
<path fill="#4378cb" opacity="1.00" d=" M 103.43 38.70 C 103.39 40.53 103.35 42.35 103.22 44.17 C 106.24 44.57 109.27 44.93 112.29 45.31 C 108.01 45.88 103.72 46.51 99.59 47.81 C 95.59 45.57 90.97 45.31 86.55 44.56 C 89.81 43.07 93.22 43.33 96.60 44.06 C 101.18 46.06 101.88 41.30 103.43 38.70 Z" />
<path fill="#4378cb" opacity="1.00" d=" M 34.90 42.72 C 38.91 45.84 44.18 43.76 47.04 40.08 C 46.66 41.46 46.28 42.84 45.90 44.23 C 49.40 45.17 52.93 45.96 56.45 46.80 C 53.01 46.73 49.57 46.65 46.13 46.39 C 45.36 47.37 44.59 48.35 43.82 49.34 C 40.60 45.52 35.55 44.90 30.89 45.74 C 32.25 44.76 33.58 43.75 34.90 42.72 Z" />
</g>
<g id="#4279cbff">
<path fill="#4279cb" opacity="1.00" d=" M 154.18 44.35 C 157.17 44.04 158.74 41.15 160.60 39.15 C 160.78 41.16 161.05 43.17 161.38 45.17 C 157.06 47.85 152.34 46.50 148.01 44.68 C 148.21 43.95 148.41 43.21 148.62 42.48 C 150.40 43.24 152.13 44.69 154.18 44.35 Z" />
</g>
<g id="#4379cbff">
<path fill="#4379cb" opacity="1.00" d=" M 198.55 44.22 C 206.99 42.46 215.54 44.83 224.00 45.18 L 224.00 45.79 C 218.93 46.15 213.70 48.01 208.62 46.66 C 205.24 45.94 201.87 45.17 198.55 44.22 Z" />
</g>
<g id="#4072c6ff">
<path fill="#4072c6" opacity="1.00" d=" M 0.35 44.65 C 2.88 43.35 5.72 43.03 8.53 43.08 C 5.86 43.86 3.11 44.33 0.35 44.65 Z" />
</g>
<g id="#4c77caff">
<path fill="#4c77ca" opacity="1.00" d=" M 59.65 44.12 C 60.78 44.81 61.91 45.49 63.04 46.18 C 61.83 47.32 60.64 48.47 59.39 49.56 C 58.88 49.58 57.86 49.62 57.35 49.64 C 58.11 47.80 58.89 45.97 59.65 44.12 Z" />
</g>
<g id="#4778d1ff">
<path fill="#4778d1" opacity="1.00" d=" M 113.52 43.49 C 114.85 44.92 116.17 46.36 117.46 47.82 C 116.01 47.89 114.56 47.96 113.11 48.02 C 113.25 46.51 113.39 45.00 113.52 43.49 Z" />
</g>
<g id="#4575cbff">
<path fill="#4575cb" opacity="1.00" d=" M 163.96 44.23 C 164.58 43.19 166.42 43.19 167.04 44.23 C 167.35 46.00 163.65 46.00 163.96 44.23 Z" />
</g>
<g id="#4379c9fe">
<path fill="#4379c9" opacity="1.00" d=" M 75.14 47.99 C 77.13 46.68 79.14 45.39 81.17 44.13 C 80.73 45.58 80.23 47.02 80.00 48.51 C 83.86 51.92 88.75 53.88 93.37 56.00 L 83.33 56.00 C 84.72 55.60 86.10 55.18 87.48 54.74 C 83.37 52.49 79.14 50.44 75.14 47.99 Z" />
</g>
<g id="#4c76cfff">
<path fill="#4c76cf" opacity="1.00" d=" M 1.40 48.83 C 3.06 47.95 4.71 47.06 6.38 46.19 C 6.93 47.30 7.44 48.43 8.10 49.49 C 6.42 49.32 3.07 49.00 1.40 48.83 Z" />
</g>
<g id="#4177ccff">
<path fill="#4177cc" opacity="1.00" d=" M 130.25 46.68 C 138.15 46.08 144.07 51.99 150.19 56.00 L 139.13 56.00 C 141.25 55.09 143.36 54.15 145.45 53.16 C 143.10 52.07 140.74 50.98 138.38 49.91 C 138.31 51.07 138.17 53.40 138.10 54.56 C 135.61 51.81 132.87 49.31 130.25 46.68 Z" />
</g>
<g id="#536ea1ff">
<path fill="#536ea1" opacity="1.00" d=" M 0.00 49.56 C 0.35 49.38 1.05 49.01 1.40 48.83 C 3.07 49.00 6.42 49.32 8.10 49.49 C 9.16 51.45 10.26 53.40 11.48 55.27 C 8.23 52.45 4.05 51.37 0.00 50.24 L 0.00 49.56 Z" />
</g>
<g id="#42689dff">
<path fill="#42689d" opacity="1.00" d=" M 112.79 50.00 C 115.71 49.92 118.69 49.53 121.59 50.07 C 122.73 51.55 123.27 53.38 124.09 55.04 C 120.59 52.82 116.61 51.55 112.60 50.60 L 112.79 50.00 Z" />
</g>
<g id="#6894c6ff">
<path fill="#6894c6" opacity="1.00" d=" M 8.10 49.49 C 10.49 51.74 12.96 53.89 15.47 56.00 L 12.44 56.00 L 11.48 55.27 C 10.26 53.40 9.16 51.45 8.10 49.49 Z" />
</g>
<g id="#315a8cff">
<path fill="#315a8c" opacity="1.00" d=" M 56.48 51.74 C 56.77 51.04 57.06 50.34 57.35 49.64 C 57.86 49.62 58.88 49.58 59.39 49.56 C 60.63 49.91 61.86 50.31 63.07 50.76 C 61.58 50.99 58.61 51.45 57.12 51.68 L 56.48 51.74 Z" />
</g>
<g id="#2f5b84ff">
<path fill="#2f5b84" opacity="1.00" d=" M 168.44 50.01 C 170.12 49.95 173.48 49.83 175.17 49.77 L 174.54 50.84 C 173.17 51.00 170.42 51.33 169.05 51.50 L 168.10 51.56 C 168.18 51.17 168.35 50.40 168.44 50.01 Z" />
</g>
<g id="#607aafff">
<path fill="#607aaf" opacity="1.00" d=" M 175.17 49.77 C 177.51 51.52 179.40 53.77 181.28 56.00 L 179.85 56.00 C 177.94 54.42 176.15 52.72 174.54 50.84 L 175.17 49.77 Z" />
</g>
<g id="#24393dff">
<path fill="#24393d" opacity="1.00" d=" M 0.00 50.24 C 4.05 51.37 8.23 52.45 11.48 55.27 L 12.44 56.00 L 7.70 56.00 C 5.13 54.33 2.56 52.67 0.00 50.99 L 0.00 50.24 Z" />
</g>
<g id="#446da3ff">
<path fill="#446da3" opacity="1.00" d=" M 25.53 56.00 C 26.24 54.23 26.96 52.46 27.70 50.70 C 27.84 52.46 27.97 54.23 28.09 56.00 L 25.53 56.00 Z" />
</g>
<g id="#203b3cff">
<path fill="#203b3c" opacity="1.00" d=" M 57.12 51.68 C 58.61 51.45 61.58 50.99 63.07 50.76 C 64.60 52.58 66.20 54.35 67.91 56.00 L 64.54 56.00 C 63.79 55.27 62.30 53.81 61.55 53.08 C 60.15 52.42 58.64 52.00 57.12 51.68 Z" />
</g>
<g id="#6286a8ff">
<path fill="#6286a8" opacity="1.00" d=" M 63.07 50.76 C 65.54 52.03 67.53 53.99 69.42 56.00 L 67.91 56.00 C 66.20 54.35 64.60 52.58 63.07 50.76 Z" />
</g>
<g id="#244048ff">
<path fill="#244048" opacity="1.00" d=" M 112.60 50.60 C 116.61 51.55 120.59 52.82 124.09 55.04 L 124.57 56.00 L 119.18 56.00 C 118.42 54.93 117.67 53.84 116.94 52.75 C 115.40 52.38 113.85 52.01 112.30 51.65 L 112.60 50.60 Z" />
</g>
<g id="#203b43ff">
<path fill="#203b43" opacity="1.00" d=" M 169.05 51.50 C 170.42 51.33 173.17 51.00 174.54 50.84 C 176.15 52.72 177.94 54.42 179.85 56.00 L 176.57 56.00 C 174.24 54.23 171.89 52.39 169.05 51.50 Z" />
</g>
<g id="#7c9c74ff">
<path fill="#7c9c74" opacity="1.00" d=" M 0.00 50.99 C 2.56 52.67 5.13 54.33 7.70 56.00 L 6.33 56.00 C 5.21 55.17 4.11 54.32 3.01 53.47 C 2.00 53.52 1.00 53.56 0.00 53.60 L 0.00 50.99 Z" />
</g>
<g id="#709d86ff">
<path fill="#709d86" opacity="1.00" d=" M 56.48 51.74 L 57.12 51.68 C 58.64 52.00 60.15 52.42 61.55 53.08 C 59.39 53.82 57.34 54.81 55.39 56.00 L 54.70 56.00 C 55.31 54.59 55.91 53.17 56.48 51.74 Z" />
</g>
<g id="#6e9a88ff">
<path fill="#6e9a88" opacity="1.00" d=" M 112.30 51.65 C 113.85 52.01 115.40 52.38 116.94 52.75 C 115.08 53.47 113.21 54.18 111.40 55.03 C 111.62 54.18 112.08 52.50 112.30 51.65 Z" />
</g>
<g id="#72a072ff">
<path fill="#72a072" opacity="1.00" d=" M 168.10 51.56 L 169.05 51.50 C 171.89 52.39 174.24 54.23 176.57 56.00 L 174.02 56.00 C 173.08 55.22 172.15 54.43 171.24 53.62 C 170.21 54.42 169.17 55.23 168.12 56.00 L 167.29 56.00 C 167.55 54.52 167.82 53.04 168.10 51.56 Z" />
</g>
<g id="#759d51ff">
<path fill="#759d51" opacity="1.00" d=" M 0.00 53.60 C 1.00 53.56 2.00 53.52 3.01 53.47 C 4.11 54.32 5.21 55.17 6.33 56.00 L 0.00 56.00 L 0.00 53.60 Z" />
</g>
<g id="#6e9b56fe">
<path fill="#6e9b56" opacity="1.00" d=" M 55.39 56.00 C 57.34 54.81 59.39 53.82 61.55 53.08 C 62.30 53.81 63.79 55.27 64.54 56.00 L 55.39 56.00 Z" />
</g>
<g id="#75a064ff">
<path fill="#75a064" opacity="1.00" d=" M 111.40 55.03 C 113.21 54.18 115.08 53.47 116.94 52.75 C 117.67 53.84 118.42 54.93 119.18 56.00 L 111.08 56.00 L 111.40 55.03 Z" />
</g>
<g id="#669946ff">
<path fill="#669946" opacity="1.00" d=" M 168.12 56.00 C 169.17 55.23 170.21 54.42 171.24 53.62 C 172.15 54.43 173.08 55.22 174.02 56.00 L 168.12 56.00 Z" />
</g>
</svg>
