<?xml version="1.0" encoding="UTF-8" ?>
<!DOCTYPE svg PUBLIC "-//W3C//DTD SVG 1.1//EN" "http://www.w3.org/Graphics/SVG/1.1/DTD/svg11.dtd">
<svg width="224pt" height="56pt" viewBox="0 0 224 56" version="1.1" xmlns="http://www.w3.org/2000/svg">
<g id="#3d6dbfff">
<path fill="#3d6dbf" opacity="1.00" d=" M 0.00 0.00 L 25.58 0.00 C 26.59 1.10 27.54 2.25 28.51 3.39 C 21.91 4.08 14.86 5.95 8.47 3.32 C 9.45 5.13 10.46 6.95 11.05 8.93 C 9.02 11.14 6.45 12.74 4.12 14.59 C 8.02 14.26 11.95 14.10 15.87 14.17 C 14.61 12.50 13.26 10.87 12.33 8.98 C 13.55 5.16 17.94 5.65 21.10 6.03 C 26.59 7.08 31.36 2.56 36.81 3.08 C 40.58 3.66 42.16 7.17 43.65 10.18 C 42.26 11.83 40.93 13.53 39.54 15.19 C 37.04 14.88 38.03 17.83 40.05 16.95 L 40.73 17.19 C 42.42 18.05 44.07 19.00 45.83 19.73 C 51.48 20.30 57.19 19.93 62.86 20.50 C 66.85 20.98 70.49 18.90 74.02 17.37 C 73.93 17.80 73.74 18.67 73.64 19.10 L 72.65 19.03 L 71.99 18.97 C 70.53 18.64 69.34 19.89 68.77 21.09 C 67.88 22.50 66.95 23.89 65.97 25.24 L 65.45 25.84 C 64.44 25.81 63.43 25.81 62.42 25.87 C 56.59 27.19 50.52 27.35 44.81 29.14 C 43.13 28.14 41.42 27.19 39.80 26.09 C 39.45 25.66 38.74 24.80 38.39 24.37 C 38.18 24.12 37.77 23.62 37.56 23.36 C 38.90 23.78 41.69 25.13 42.35 23.31 C 41.01 21.79 38.70 22.40 36.96 22.67 C 32.90 18.62 28.08 14.95 22.01 14.97 L 21.26 15.59 C 17.75 18.43 14.43 21.50 11.03 24.48 C 11.02 21.97 7.78 23.86 9.58 25.35 C 9.79 25.71 10.20 26.41 10.40 26.77 C 8.74 26.70 7.07 26.65 5.41 26.60 C 6.89 27.56 8.37 28.52 9.92 29.35 C 9.75 30.08 9.41 31.53 9.24 32.25 C 11.25 32.11 13.25 31.95 15.25 31.84 C 16.25 32.56 17.25 33.29 18.24 34.02 C 12.28 35.81 6.20 37.24 0.00 37.89 L 0.00 0.00 Z" />
</g>
<g id="#4179cbff">
<path fill="#4179cb" opacity="1.00" d=" M 25.58 0.00 L 30.48 0.00 C 36.79 1.61 42.87 4.95 49.58 4.39 C 52.99 3.80 56.10 2.16 59.31 0.93 C 57.73 2.68 56.31 4.63 54.38 6.01 C 51.09 6.93 47.57 6.50 44.18 6.76 C 45.15 7.43 46.12 8.10 47.07 8.80 C 46.72 8.95 46.03 9.24 45.68 9.39 C 45.17 9.59 44.15 9.98 43.65 10.18 C 42.16 7.17 40.58 3.66 36.81 3.08 C 31.36 2.56 26.59 7.08 21.10 6.03 C 17.94 5.65 13.55 5.16 12.33 8.98 C 13.26 10.87 14.61 12.50 15.87 14.17 C 11.95 14.10 8.02 14.26 4.12 14.59 C 6.45 12.74 9.02 11.14 11.05 8.93 C 10.46 6.95 9.45 5.13 8.47 3.32 C 14.86 5.95 21.91 4.08 28.51 3.39 C 27.54 2.25 26.59 1.10 25.58 0.00 Z" />
<path fill="#4179cb" opacity="1.00" d=" M 85.32 0.00 L 93.91 0.00 C 99.31 3.61 105.87 3.45 112.13 3.61 C 111.93 4.56 111.73 5.51 111.52 6.46 C 108.46 6.23 105.40 6.06 102.35 5.75 C 98.05 5.63 95.14 1.78 91.04 0.96 C 86.78 0.63 83.68 3.50 80.59 5.84 C 76.57 4.75 70.38 2.87 68.32 7.98 C 69.26 9.87 70.60 11.50 71.87 13.17 C 67.95 13.10 64.03 13.25 60.13 13.60 C 62.43 11.77 64.98 10.17 66.97 7.96 C 66.43 5.96 65.51 4.09 64.62 2.22 C 71.42 2.67 79.75 5.58 85.32 0.00 Z" />
<path fill="#4179cb" opacity="1.00" d=" M 197.36 0.00 L 205.91 0.00 C 211.26 3.63 217.77 3.50 224.00 3.64 L 224.00 6.54 C 220.79 6.12 217.56 5.99 214.35 5.71 C 210.04 5.67 207.13 1.77 203.04 0.96 C 198.78 0.63 195.68 3.50 192.59 5.84 C 188.56 4.75 182.38 2.87 180.32 7.98 C 181.25 9.87 182.60 11.50 183.87 13.16 C 179.97 13.11 176.08 13.26 172.21 13.64 C 175.43 11.26 178.56 8.50 179.23 4.35 C 185.26 2.70 192.41 4.69 197.36 0.00 Z" />
<path fill="#4179cb" opacity="1.00" d=" M 131.00 47.38 C 131.83 46.75 132.68 46.12 133.53 45.51 C 138.87 49.28 145.13 51.62 150.07 56.00 L 139.86 56.00 C 139.24 55.60 138.00 54.80 137.37 54.40 C 139.44 54.05 143.57 53.34 145.63 52.98 C 140.10 49.93 133.58 50.67 128.11 53.47 C 130.02 51.79 131.94 50.12 133.85 48.44 C 133.14 48.17 131.71 47.64 131.00 47.38 Z" />
</g>
<g id="#3c6cbeff">
<path fill="#3c6cbe" opacity="1.00" d=" M 30.48 0.00 L 85.32 0.00 C 79.75 5.58 71.42 2.67 64.62 2.22 C 65.51 4.09 66.43 5.96 66.97 7.96 C 64.98 10.17 62.43 11.77 60.13 13.60 C 64.03 13.25 67.95 13.10 71.87 13.17 C 70.60 11.50 69.26 9.87 68.32 7.98 C 70.38 2.87 76.57 4.75 80.59 5.84 C 83.68 3.50 86.78 0.63 91.04 0.96 C 95.14 1.78 98.05 5.63 102.35 5.75 C 105.40 6.06 108.46 6.23 111.52 6.46 C 111.73 5.51 111.93 4.56 112.13 3.61 C 105.87 3.45 99.31 3.61 93.91 0.00 L 138.32 0.00 C 137.73 0.60 136.55 1.80 135.96 2.39 C 130.85 2.08 125.72 1.89 120.63 1.26 C 121.51 3.12 122.43 4.97 122.97 6.96 C 120.98 9.16 118.44 10.77 116.13 12.60 C 120.03 12.25 123.95 12.10 127.87 12.17 C 126.60 10.50 125.25 8.87 124.32 6.98 C 126.51 1.66 132.94 3.82 137.05 5.15 C 138.34 3.41 139.61 1.65 141.01 0.00 L 197.36 0.00 C 192.41 4.69 185.26 2.70 179.23 4.35 C 178.56 8.50 175.43 11.26 172.21 13.64 C 176.08 13.26 179.97 13.11 183.87 13.16 C 182.60 11.50 181.25 9.87 180.32 7.98 C 182.38 2.87 188.56 4.75 192.59 5.84 C 195.68 3.50 198.78 0.63 203.04 0.96 C 207.13 1.77 210.04 5.67 214.35 5.71 C 217.56 5.99 220.79 6.12 224.00 6.54 L 224.00 9.70 C 222.51 9.57 221.02 9.43 219.53 9.29 C 219.65 10.03 219.88 11.51 220.00 12.25 C 218.29 11.18 216.53 10.23 214.79 9.23 C 214.44 9.03 213.75 8.62 213.41 8.42 C 211.39 10.31 209.40 12.24 207.29 14.03 C 204.82 14.25 206.32 16.97 208.12 15.68 L 208.74 16.07 C 212.80 20.15 218.75 21.21 224.00 18.81 L 224.00 27.71 C 220.20 27.18 216.41 26.59 212.69 25.62 C 213.27 23.94 213.86 22.28 214.46 20.61 C 213.17 20.84 211.88 21.07 210.60 21.31 C 212.24 25.14 214.63 28.57 217.14 31.88 C 210.48 28.08 205.01 22.68 199.16 17.80 C 196.61 15.67 193.14 15.56 190.04 14.78 L 189.27 15.63 C 186.65 18.09 183.86 20.37 181.28 22.86 C 180.53 21.22 178.12 22.72 179.13 24.15 C 178.77 24.28 178.04 24.55 177.68 24.69 C 175.88 25.40 174.12 26.21 172.38 27.07 C 174.97 27.51 177.58 27.91 180.18 28.25 L 180.95 28.35 C 182.69 29.13 184.39 30.01 186.00 31.04 C 185.56 31.03 184.68 31.01 184.23 31.00 C 182.60 30.95 179.32 30.85 177.68 30.80 C 179.54 30.88 181.41 30.96 183.27 30.98 C 184.27 31.89 185.27 32.79 186.27 33.70 C 181.53 35.27 176.76 36.71 172.06 38.36 C 174.62 41.94 177.62 45.30 181.83 46.94 C 180.01 45.15 178.14 43.42 176.25 41.71 C 176.19 41.04 176.05 39.72 175.98 39.06 C 181.35 36.46 187.35 35.14 193.09 37.40 C 193.80 38.13 194.51 38.86 195.24 39.57 C 192.69 42.65 190.15 45.76 187.34 48.62 C 187.93 48.83 189.12 49.25 189.71 49.46 C 187.85 51.17 185.99 52.87 184.14 54.59 C 186.74 53.45 189.25 51.93 192.09 51.43 C 194.89 51.47 197.25 53.30 199.69 54.48 C 198.25 55.01 196.80 55.51 195.35 56.00 L 150.07 56.00 C 145.13 51.62 138.87 49.28 133.53 45.51 C 132.68 46.12 131.83 46.75 131.00 47.38 C 131.71 47.64 133.14 48.17 133.85 48.44 C 131.94 50.12 130.02 51.79 128.11 53.47 C 133.58 50.67 140.10 49.93 145.63 52.98 C 143.57 53.34 139.44 54.05 137.37 54.40 C 138.00 54.80 139.24 55.60 139.86 56.00 L 93.30 56.00 C 88.25 53.90 83.50 51.17 78.73 48.53 C 81.22 46.37 83.72 44.21 86.21 42.04 C 88.00 42.95 89.82 43.81 91.65 44.63 C 98.82 49.86 108.05 44.03 115.15 48.98 C 115.68 47.75 116.21 46.53 116.75 45.30 C 112.37 45.25 108.00 44.89 103.63 44.71 C 103.43 42.97 103.24 41.23 103.04 39.49 C 105.56 38.91 108.09 38.33 110.57 37.58 C 108.97 37.26 107.35 36.96 105.74 36.70 L 106.56 36.45 C 106.92 36.31 107.66 36.03 108.02 35.89 C 108.05 35.68 108.11 35.25 108.14 35.03 C 107.86 34.53 107.30 33.52 107.02 33.02 L 106.26 32.55 C 109.68 29.84 113.13 27.17 116.45 24.34 C 111.62 26.94 105.79 28.13 100.70 25.53 C 101.28 23.89 101.87 22.25 102.47 20.61 C 101.18 20.84 99.89 21.07 98.60 21.31 C 100.23 25.12 102.56 28.58 105.11 31.84 C 98.13 28.13 92.73 22.23 86.62 17.34 C 84.15 15.29 80.71 15.93 77.71 15.67 L 76.85 15.65 L 76.36 15.66 C 71.96 16.27 67.84 18.38 63.36 18.41 C 59.57 18.19 54.82 17.81 52.98 13.76 C 52.97 13.92 52.94 14.24 52.93 14.40 L 52.37 13.81 C 50.72 12.02 48.98 10.31 47.07 8.80 C 46.12 8.10 45.15 7.43 44.18 6.76 C 47.57 6.50 51.09 6.93 54.38 6.01 C 56.31 4.63 57.73 2.68 59.31 0.93 C 56.10 2.16 52.99 3.80 49.58 4.39 C 42.87 4.95 36.79 1.61 30.48 0.00 M 165.17 4.17 C 164.65 5.80 165.20 6.35 166.83 5.83 C 167.35 4.20 166.79 3.65 165.17 4.17 M 138.63 9.24 C 140.95 10.52 143.36 11.64 145.80 12.68 C 145.60 14.35 145.48 16.02 145.49 17.70 C 144.95 17.77 143.85 17.91 143.30 17.98 C 140.85 15.29 137.22 14.30 133.58 14.59 L 134.41 14.96 L 133.63 15.83 C 130.45 16.99 127.98 19.34 127.13 22.68 L 126.53 23.29 C 124.60 23.52 122.95 24.63 121.27 25.50 C 120.09 25.36 118.90 25.25 117.71 25.14 C 119.99 27.12 122.21 29.16 124.28 31.36 C 125.40 30.89 126.52 30.40 127.66 29.98 L 126.78 30.30 C 127.49 30.57 128.91 31.12 129.62 31.39 C 129.50 32.67 129.39 33.96 129.28 35.24 C 131.74 35.67 134.24 36.16 136.75 35.90 C 137.56 36.73 138.36 37.58 139.21 38.37 C 138.10 41.12 136.98 43.87 135.99 46.67 C 138.35 45.11 140.60 43.38 142.52 41.29 C 144.11 42.60 145.80 43.78 147.52 44.90 C 152.18 46.38 157.11 47.78 161.67 45.12 C 160.69 42.85 159.77 40.56 158.93 38.23 C 160.63 38.27 162.29 38.69 163.95 39.05 C 164.63 37.96 165.31 36.87 166.00 35.78 C 164.52 35.61 163.04 35.48 161.56 35.38 L 162.95 35.02 C 163.22 35.13 163.78 35.35 164.06 35.46 C 165.91 34.80 163.62 32.00 162.60 33.68 L 161.98 32.74 C 163.66 28.14 168.47 27.80 172.48 29.24 C 171.98 28.34 171.48 27.44 170.97 26.55 C 166.13 26.62 161.11 26.62 156.72 24.31 C 157.38 23.11 158.07 21.92 158.75 20.72 C 157.38 20.89 156.01 21.05 154.65 21.21 C 156.56 24.94 159.13 28.27 161.35 31.82 C 155.79 28.80 150.61 25.20 146.21 20.61 C 148.47 16.93 147.86 12.07 144.73 9.08 C 142.70 8.85 140.65 9.14 138.63 9.24 M 165.71 7.81 C 164.67 9.01 163.62 10.21 162.57 11.40 C 161.50 10.40 160.28 9.57 159.11 8.70 C 158.53 8.92 157.38 9.35 156.80 9.56 C 155.48 8.68 153.45 10.48 154.63 11.79 L 153.62 11.75 C 153.32 12.22 152.74 13.15 152.45 13.61 C 151.25 11.24 148.97 15.39 151.63 14.89 L 152.78 14.97 C 154.78 17.43 156.40 20.75 160.21 20.65 C 162.52 20.09 164.55 18.68 166.91 18.24 C 171.03 18.74 174.95 20.31 178.80 21.82 C 179.88 20.27 180.97 18.74 182.08 17.21 C 176.21 20.15 166.36 18.66 165.28 11.03 C 166.88 12.01 168.47 13.00 170.08 13.95 C 169.28 11.49 167.59 9.52 165.71 7.81 M 95.36 14.17 C 92.61 13.52 95.09 17.73 96.27 15.34 L 96.76 15.84 C 98.99 18.22 101.91 19.68 104.94 20.77 C 110.87 18.24 117.88 17.27 123.10 21.71 C 123.65 20.02 124.19 18.33 124.74 16.64 C 127.16 15.98 129.59 15.32 132.02 14.66 C 131.74 14.30 131.17 13.57 130.89 13.20 C 127.24 14.48 123.83 16.68 119.98 17.25 C 116.32 16.97 112.74 16.13 109.08 15.80 C 110.39 13.55 112.61 12.19 114.37 10.37 C 112.32 9.95 110.28 9.49 108.26 8.99 C 108.24 10.07 108.25 11.16 108.31 12.24 C 106.40 11.03 104.29 10.20 102.19 9.40 C 102.04 9.12 101.75 8.56 101.60 8.29 C 99.41 10.13 97.33 12.10 95.36 14.17 M 114.60 36.91 C 114.41 37.47 114.22 38.02 114.03 38.58 C 115.18 38.85 116.34 39.10 117.50 39.36 C 117.49 39.76 117.46 40.56 117.45 40.96 C 121.28 38.84 125.30 37.07 129.28 35.24 C 124.40 35.90 119.57 37.68 114.60 36.91 M 163.96 44.23 C 163.65 46.00 167.35 46.00 167.04 44.23 C 166.42 43.18 164.58 43.18 163.96 44.23 M 113.52 51.40 C 116.81 51.93 120.12 52.50 123.44 52.85 C 120.47 50.78 116.93 49.61 113.52 51.40 Z" />
</g>
<g id="#4278caff">
<path fill="#4278ca" opacity="1.00" d=" M 138.32 0.00 L 141.01 0.00 C 139.61 1.65 138.34 3.41 137.05 5.15 C 132.94 3.82 126.51 1.66 124.32 6.98 C 125.25 8.87 126.60 10.50 127.87 12.17 C 123.95 12.10 120.03 12.25 116.13 12.60 C 118.44 10.77 120.98 9.16 122.97 6.96 C 122.43 4.97 121.51 3.12 120.63 1.26 C 125.72 1.89 130.85 2.08 135.96 2.39 C 136.55 1.80 137.73 0.60 138.32 0.00 Z" />
</g>
<g id="#3c6abefe">
<path fill="#3c6abe" opacity="1.00" d=" M 205.91 0.00 L 224.00 0.00 L 224.00 3.64 C 217.77 3.50 211.26 3.63 205.91 0.00 Z" />
</g>
<g id="#268ed9ff">
<path fill="#268ed9" opacity="1.00" d=" M 165.17 4.17 C 166.79 3.65 167.35 4.20 166.83 5.83 C 165.20 6.35 164.65 5.80 165.17 4.17 Z" />
<path fill="#268ed9" opacity="1.00" d=" M 151.63 14.89 C 148.97 15.39 151.25 11.24 152.45 13.61 C 152.24 13.93 151.83 14.57 151.63 14.89 Z" />
<path fill="#268ed9" opacity="1.00" d=" M 96.27 15.34 C 95.09 17.73 92.61 13.52 95.36 14.17 C 95.58 14.46 96.04 15.05 96.27 15.34 Z" />
<path fill="#268ed9" opacity="1.00" d=" M 208.12 15.68 C 206.32 16.97 204.82 14.25 207.29 14.03 C 207.50 14.44 207.91 15.27 208.12 15.68 Z" />
<path fill="#268ed9" opacity="1.00" d=" M 40.05 16.95 C 38.03 17.83 37.04 14.88 39.54 15.19 C 39.67 15.63 39.92 16.51 40.05 16.95 Z" />
<path fill="#268ed9" opacity="1.00" d=" M 177.68 30.80 C 179.32 30.85 182.60 30.95 184.23 31.00 L 183.27 30.98 C 181.41 30.96 179.54 30.88 177.68 30.80 Z" />
</g>
<g id="#4379caff">
<path fill="#4379ca" opacity="1.00" d=" M 138.63 9.24 C 140.65 9.14 142.70 8.85 144.73 9.08 C 147.86 12.07 148.47 16.93 146.21 20.61 C 145.23 19.74 144.27 18.86 143.30 17.98 C 143.85 17.91 144.95 17.77 145.49 17.70 C 145.48 16.02 145.60 14.35 145.80 12.68 C 143.36 11.64 140.95 10.52 138.63 9.24 Z" />
<path fill="#4379ca" opacity="1.00" d=" M 98.60 21.31 C 99.89 21.07 101.18 20.84 102.47 20.61 C 101.87 22.25 101.28 23.89 100.70 25.53 C 105.79 28.13 111.62 26.94 116.45 24.34 C 113.13 27.17 109.68 29.84 106.26 32.55 C 105.97 32.37 105.40 32.02 105.11 31.84 C 102.56 28.58 100.23 25.12 98.60 21.31 Z" />
<path fill="#4379ca" opacity="1.00" d=" M 114.60 36.91 C 119.57 37.68 124.40 35.90 129.28 35.24 C 125.30 37.07 121.28 38.84 117.45 40.96 C 117.46 40.56 117.49 39.76 117.50 39.36 C 116.34 39.10 115.18 38.85 114.03 38.58 C 114.22 38.02 114.41 37.47 114.60 36.91 Z" />
</g>
<g id="#3e7ec9ff">
<path fill="#3e7ec9" opacity="1.00" d=" M 165.71 7.81 C 167.59 9.52 169.28 11.49 170.08 13.95 C 168.47 13.00 166.88 12.01 165.28 11.03 C 166.36 18.66 176.21 20.15 182.08 17.21 C 180.97 18.74 179.88 20.27 178.80 21.82 C 174.95 20.31 171.03 18.74 166.91 18.24 C 164.55 18.68 162.52 20.09 160.21 20.65 C 156.40 20.75 154.78 17.43 152.78 14.97 C 153.20 15.00 154.05 15.06 154.47 15.09 C 155.81 15.86 157.61 16.83 159.00 15.57 C 159.32 15.38 159.96 14.99 160.28 14.80 C 161.87 15.10 163.47 15.39 165.08 15.67 C 165.06 14.92 165.02 13.40 164.99 12.65 C 164.86 11.12 164.05 10.70 162.57 11.40 C 163.62 10.21 164.67 9.01 165.71 7.81 Z" />
</g>
<g id="#625d4dfe">
<path fill="#625d4d" opacity="1.00" d=" M 43.65 10.18 C 44.15 9.98 45.17 9.59 45.68 9.39 L 45.16 9.89 C 44.96 10.54 44.56 11.84 44.36 12.49 C 42.80 13.47 41.20 14.38 39.54 15.19 C 40.93 13.53 42.26 11.83 43.65 10.18 Z" />
</g>
<g id="#5d5d54fe">
<path fill="#5d5d54" opacity="1.00" d=" M 45.68 9.39 C 46.03 9.24 46.72 8.95 47.07 8.80 C 47.09 11.56 46.98 14.33 47.11 17.09 C 45.55 16.31 43.84 16.98 42.38 17.62 C 41.97 17.51 41.14 17.30 40.73 17.19 L 40.05 16.95 C 39.92 16.51 39.67 15.63 39.54 15.19 C 41.20 14.38 42.80 13.47 44.36 12.49 C 45.64 12.36 46.95 10.41 45.16 9.89 L 45.68 9.39 Z" />
</g>
<g id="#3f3c37ff">
<path fill="#3f3c37" opacity="1.00" d=" M 47.07 8.80 C 48.98 10.31 50.72 12.02 52.37 13.81 C 51.19 13.94 50.28 14.53 49.64 15.57 C 49.43 15.82 48.99 16.30 48.78 16.55 L 48.16 17.20 L 47.22 17.72 L 47.11 17.09 C 46.98 14.33 47.09 11.56 47.07 8.80 Z" />
</g>
<g id="#6b6c64fe">
<path fill="#6b6c64" opacity="1.00" d=" M 95.36 14.17 C 97.33 12.10 99.41 10.13 101.60 8.29 L 101.08 9.75 C 101.01 10.47 100.87 11.92 100.80 12.64 C 98.99 13.19 97.18 13.72 95.36 14.17 Z" />
</g>
<g id="#5e6057ff">
<path fill="#5e6057" opacity="1.00" d=" M 101.60 8.29 C 101.75 8.56 102.04 9.12 102.19 9.40 C 102.94 10.88 103.69 12.38 104.41 13.89 C 103.13 13.98 102.50 14.70 102.50 16.03 C 101.08 15.17 99.42 15.68 98.09 16.41 C 97.75 16.27 97.09 15.98 96.76 15.84 L 96.27 15.34 C 96.04 15.05 95.58 14.46 95.36 14.17 C 97.18 13.72 98.99 13.19 100.80 12.64 C 102.51 12.58 102.30 10.39 101.08 9.75 L 101.60 8.29 Z" />
</g>
<g id="#4a4846ff">
<path fill="#4a4846" opacity="1.00" d=" M 102.19 9.40 C 104.29 10.20 106.40 11.03 108.31 12.24 C 108.35 12.58 108.43 13.26 108.47 13.60 C 107.15 14.00 105.99 14.67 104.97 15.60 C 104.83 15.17 104.55 14.32 104.41 13.89 C 103.69 12.38 102.94 10.88 102.19 9.40 Z" />
</g>
<g id="#417ec9ff">
<path fill="#417ec9" opacity="1.00" d=" M 108.26 8.99 C 110.28 9.49 112.32 9.95 114.37 10.37 C 112.61 12.19 110.39 13.55 109.08 15.80 C 112.74 16.13 116.32 16.97 119.98 17.25 C 123.83 16.68 127.24 14.48 130.89 13.20 C 131.17 13.57 131.74 14.30 132.02 14.66 C 129.59 15.32 127.16 15.98 124.74 16.64 C 124.19 18.33 123.65 20.02 123.10 21.71 C 117.88 17.27 110.87 18.24 104.94 20.77 C 101.91 19.68 98.99 18.22 96.76 15.84 C 97.09 15.98 97.75 16.27 98.09 16.41 C 99.57 17.33 101.37 17.32 102.93 16.60 C 103.36 16.53 104.20 16.39 104.62 16.32 C 106.60 17.06 109.46 16.20 108.47 13.60 C 108.43 13.26 108.35 12.58 108.31 12.24 C 108.25 11.16 108.24 10.07 108.26 8.99 Z" />
</g>
<g id="#5d5238ff">
<path fill="#5d5238" opacity="1.00" d=" M 154.63 11.79 C 153.45 10.48 155.48 8.68 156.80 9.56 L 157.11 9.87 C 156.80 10.42 156.19 11.54 155.88 12.09 L 155.25 12.27 L 154.63 11.79 Z" />
</g>
<g id="#5d5f56ff">
<path fill="#5d5f56" opacity="1.00" d=" M 156.80 9.56 C 157.38 9.35 158.53 8.92 159.11 8.70 C 159.06 10.79 158.99 12.87 158.99 14.96 C 157.56 14.18 155.92 14.67 154.47 15.09 C 154.05 15.06 153.20 15.00 152.78 14.97 L 151.63 14.89 C 151.83 14.57 152.24 13.93 152.45 13.61 C 152.74 13.15 153.32 12.22 153.62 11.75 C 151.56 13.47 154.73 14.35 155.25 12.27 L 155.88 12.09 C 157.41 12.72 158.78 10.72 157.11 9.87 L 156.80 9.56 Z" />
</g>
<g id="#44413dff">
<path fill="#44413d" opacity="1.00" d=" M 159.11 8.70 C 160.28 9.57 161.50 10.40 162.57 11.40 C 163.01 11.80 163.89 12.60 164.32 12.99 L 163.54 13.40 C 162.65 11.94 160.56 12.72 160.91 14.41 L 160.28 14.80 C 159.96 14.99 159.32 15.38 159.00 15.57 L 158.99 14.96 C 158.99 12.87 159.06 10.79 159.11 8.70 Z" />
</g>
<g id="#66655bff">
<path fill="#66655b" opacity="1.00" d=" M 207.29 14.03 C 209.40 12.24 211.39 10.31 213.41 8.42 L 213.30 9.66 C 213.12 10.38 212.78 11.83 212.61 12.55 C 210.87 13.16 209.08 13.62 207.29 14.03 Z" />
</g>
<g id="#5f6057ff">
<path fill="#5f6057" opacity="1.00" d=" M 213.41 8.42 C 213.75 8.62 214.44 9.03 214.79 9.23 C 215.03 11.48 215.06 13.74 215.11 16.00 C 213.55 15.20 211.83 15.89 210.37 16.56 C 209.97 16.44 209.15 16.19 208.74 16.07 L 208.12 15.68 C 207.91 15.27 207.50 14.44 207.29 14.03 C 209.08 13.62 210.87 13.16 212.61 12.55 C 214.26 12.53 214.69 10.44 213.30 9.66 L 213.41 8.42 Z" />
</g>
<g id="#403d39ff">
<path fill="#403d39" opacity="1.00" d=" M 214.79 9.23 C 216.53 10.23 218.29 11.18 220.00 12.25 C 220.08 12.64 220.24 13.43 220.32 13.82 L 219.76 13.49 C 218.24 11.15 214.80 13.70 218.18 14.47 C 217.82 14.81 217.09 15.49 216.72 15.83 C 216.33 16.02 215.53 16.41 215.14 16.60 L 215.11 16.00 C 215.06 13.74 215.03 11.48 214.79 9.23 Z" />
</g>
<g id="#3e7ec7ff">
<path fill="#3e7ec7" opacity="1.00" d=" M 219.53 9.29 C 221.02 9.43 222.51 9.57 224.00 9.70 L 224.00 18.81 C 218.75 21.21 212.80 20.15 208.74 16.07 C 209.15 16.19 209.97 16.44 210.37 16.56 C 211.88 17.14 213.68 17.62 215.14 16.60 C 215.53 16.41 216.33 16.02 216.72 15.83 C 218.48 17.06 221.64 16.53 220.32 13.82 C 220.24 13.43 220.08 12.64 220.00 12.25 C 219.88 11.51 219.65 10.03 219.53 9.29 Z" />
</g>
<g id="#9c8a4eff">
<path fill="#9c8a4e" opacity="1.00" d=" M 45.16 9.89 C 46.95 10.41 45.64 12.36 44.36 12.49 C 44.56 11.84 44.96 10.54 45.16 9.89 Z" />
<path fill="#9c8a4e" opacity="1.00" d=" M 101.08 9.75 C 102.30 10.39 102.51 12.58 100.80 12.64 C 100.87 11.92 101.01 10.47 101.08 9.75 Z" />
<path fill="#9c8a4e" opacity="1.00" d=" M 157.11 9.87 C 158.78 10.72 157.41 12.72 155.88 12.09 C 156.19 11.54 156.80 10.42 157.11 9.87 Z" />
<path fill="#9c8a4e" opacity="1.00" d=" M 213.30 9.66 C 214.69 10.44 214.26 12.53 212.61 12.55 C 212.78 11.83 213.12 10.38 213.30 9.66 Z" />
<path fill="#9c8a4e" opacity="1.00" d=" M 83.34 25.11 L 84.09 25.16 C 84.03 25.80 83.92 27.06 83.86 27.70 L 83.12 27.70 C 83.17 27.05 83.28 25.76 83.34 25.11 Z" />
<path fill="#9c8a4e" opacity="1.00" d=" M 195.28 25.00 L 196.00 24.89 C 195.86 25.52 195.58 26.77 195.44 27.39 L 194.66 27.43 C 194.81 26.82 195.13 25.61 195.28 25.00 Z" />
<path fill="#9c8a4e" opacity="1.00" d=" M 142.73 29.49 C 143.31 29.58 144.47 29.76 145.06 29.85 C 145.18 33.18 140.26 32.30 142.73 29.49 Z" />
</g>
<g id="#89acd4ff">
<path fill="#89acd4" opacity="1.00" d=" M 162.57 11.40 C 164.05 10.70 164.86 11.12 164.99 12.65 L 164.32 12.99 C 163.89 12.60 163.01 11.80 162.57 11.40 Z" />
</g>
<g id="#adc2d9ff">
<path fill="#adc2d9" opacity="1.00" d=" M 153.62 11.75 L 154.63 11.79 L 155.25 12.27 C 154.73 14.35 151.56 13.47 153.62 11.75 Z" />
<path fill="#adc2d9" opacity="1.00" d=" M 179.13 24.15 C 178.12 22.72 180.53 21.22 181.28 22.86 C 180.74 23.18 179.67 23.82 179.13 24.15 Z" />
<path fill="#adc2d9" opacity="1.00" d=" M 9.58 25.35 C 7.78 23.86 11.02 21.97 11.03 24.48 C 10.67 24.70 9.95 25.13 9.58 25.35 Z" />
<path fill="#adc2d9" opacity="1.00" d=" M 19.07 28.29 C 17.73 27.57 18.63 25.57 20.06 26.14 L 20.42 26.84 C 20.08 27.20 19.40 27.92 19.07 28.29 Z" />
<path fill="#adc2d9" opacity="1.00" d=" M 78.54 28.43 C 78.83 28.03 79.41 27.23 79.70 26.83 C 80.12 27.12 80.94 27.68 81.35 27.96 L 80.98 28.73 C 80.37 28.66 79.15 28.50 78.54 28.43 Z" />
<path fill="#adc2d9" opacity="1.00" d=" M 140.08 27.54 C 140.50 27.64 141.35 27.83 141.77 27.93 C 141.82 28.27 141.94 28.96 142.00 29.30 C 141.41 29.30 140.24 29.30 139.65 29.30 C 139.59 28.91 139.47 28.12 139.41 27.73 L 140.08 27.54 Z" />
<path fill="#adc2d9" opacity="1.00" d=" M 22.64 29.92 C 22.87 29.60 23.33 28.97 23.56 28.65 C 24.10 29.07 25.17 29.90 25.71 30.31 C 25.41 30.57 24.81 31.08 24.51 31.33 C 24.04 30.98 23.10 30.27 22.64 29.92 Z" />
<path fill="#adc2d9" opacity="1.00" d=" M 84.90 34.97 C 85.67 35.02 86.44 35.13 87.19 35.29 C 87.36 35.68 87.68 36.46 87.85 36.84 C 87.64 37.22 87.22 37.97 87.01 38.34 C 86.60 37.98 85.78 37.27 85.37 36.91 C 85.26 36.42 85.02 35.45 84.90 34.97 Z" />
<path fill="#adc2d9" opacity="1.00" d=" M 89.58 37.99 C 90.68 38.53 91.37 40.04 90.40 41.06 C 89.89 41.10 88.89 41.20 88.38 41.25 L 87.83 40.73 C 88.55 39.90 89.13 38.99 89.58 37.99 Z" />
<path fill="#adc2d9" opacity="1.00" d=" M 199.89 41.04 C 200.18 40.53 200.78 39.50 201.08 38.99 C 201.12 39.58 201.21 40.77 201.25 41.37 L 200.46 41.58 L 199.89 41.04 Z" />
</g>
<g id="#909ca9ff">
<path fill="#909ca9" opacity="1.00" d=" M 160.91 14.41 C 160.56 12.72 162.65 11.94 163.54 13.40 C 162.88 13.65 161.56 14.16 160.91 14.41 Z" />
</g>
<g id="#6b6e6dff">
<path fill="#6b6e6d" opacity="1.00" d=" M 218.18 14.47 C 214.80 13.70 218.24 11.15 219.76 13.49 C 219.36 13.73 218.57 14.23 218.18 14.47 Z" />
</g>
<g id="#417ecbff">
<path fill="#417ecb" opacity="1.00" d=" M 52.93 14.40 C 52.94 14.24 52.97 13.92 52.98 13.76 C 54.82 17.81 59.57 18.19 63.36 18.41 C 67.84 18.38 71.96 16.27 76.36 15.66 C 75.78 16.09 74.61 16.94 74.02 17.37 C 70.49 18.90 66.85 20.98 62.86 20.50 C 57.19 19.93 51.48 20.30 45.83 19.73 C 46.60 18.89 47.38 18.04 48.16 17.20 L 48.78 16.55 C 50.04 18.35 53.06 17.50 52.86 15.20 L 52.93 14.40 Z" />
</g>
<g id="#7893a3ff">
<path fill="#7893a3" opacity="1.00" d=" M 163.54 13.40 L 164.32 12.99 L 164.99 12.65 C 165.02 13.40 165.06 14.92 165.08 15.67 C 163.47 15.39 161.87 15.10 160.28 14.80 L 160.91 14.41 C 161.56 14.16 162.88 13.65 163.54 13.40 Z" />
<path fill="#7893a3" opacity="1.00" d=" M 188.51 25.51 L 188.99 26.01 C 190.14 27.20 191.37 28.32 192.62 29.41 L 193.00 29.74 C 192.34 29.62 191.01 29.39 190.35 29.27 C 189.15 28.97 187.97 28.63 186.79 28.29 C 187.22 27.59 188.08 26.21 188.51 25.51 Z" />
<path fill="#7893a3" opacity="1.00" d=" M 74.82 27.59 C 75.19 27.48 75.91 27.28 76.28 27.18 C 76.84 27.49 77.97 28.11 78.54 28.43 C 79.15 28.50 80.37 28.66 80.98 28.73 L 80.57 29.54 C 80.00 29.54 78.87 29.55 78.31 29.55 C 77.32 29.12 76.35 28.65 75.38 28.18 L 74.82 27.59 Z" />
</g>
<g id="#9fb6cbff">
<path fill="#9fb6cb" opacity="1.00" d=" M 49.64 15.57 C 50.28 14.53 51.19 13.94 52.37 13.81 L 52.93 14.40 L 52.86 15.20 C 51.84 15.67 50.76 15.79 49.64 15.57 Z" />
</g>
<g id="#7c8693ff">
<path fill="#7c8693" opacity="1.00" d=" M 102.50 16.03 C 102.50 14.70 103.13 13.98 104.41 13.89 C 104.55 14.32 104.83 15.17 104.97 15.60 L 104.62 16.32 C 104.20 16.39 103.36 16.53 102.93 16.60 L 102.50 16.03 Z" />
</g>
<g id="#7893a3fe">
<path fill="#7893a3" opacity="1.00" d=" M 104.97 15.60 C 105.99 14.67 107.15 14.00 108.47 13.60 C 109.46 16.20 106.60 17.06 104.62 16.32 L 104.97 15.60 Z" />
<path fill="#7893a3" opacity="1.00" d=" M 219.76 13.49 L 220.32 13.82 C 221.64 16.53 218.48 17.06 216.72 15.83 C 217.09 15.49 217.82 14.81 218.18 14.47 C 218.57 14.23 219.36 13.73 219.76 13.49 Z" />
</g>
<g id="#7993a3ff">
<path fill="#7993a3" opacity="1.00" d=" M 154.47 15.09 C 155.92 14.67 157.56 14.18 158.99 14.96 L 159.00 15.57 C 157.61 16.83 155.81 15.86 154.47 15.09 Z" />
<path fill="#7993a3" opacity="1.00" d=" M 49.64 15.57 C 50.76 15.79 51.84 15.67 52.86 15.20 C 53.06 17.50 50.04 18.35 48.78 16.55 C 48.99 16.30 49.43 15.82 49.64 15.57 Z" />
<path fill="#7993a3" opacity="1.00" d=" M 98.09 16.41 C 99.42 15.68 101.08 15.17 102.50 16.03 L 102.93 16.60 C 101.37 17.32 99.57 17.33 98.09 16.41 Z" />
<path fill="#7993a3" opacity="1.00" d=" M 210.37 16.56 C 211.83 15.89 213.55 15.20 215.11 16.00 L 215.14 16.60 C 213.68 17.62 211.88 17.14 210.37 16.56 Z" />
<path fill="#7993a3" opacity="1.00" d=" M 42.38 17.62 C 43.84 16.98 45.55 16.31 47.11 17.09 L 47.22 17.72 C 45.76 18.79 43.92 18.09 42.38 17.62 Z" />
<path fill="#7993a3" opacity="1.00" d=" M 131.03 26.76 C 132.18 26.30 133.36 26.03 134.59 25.97 L 135.03 26.46 C 134.87 26.78 134.53 27.42 134.37 27.74 C 133.26 27.76 132.18 27.59 131.13 27.24 L 131.03 26.76 Z" />
<path fill="#7993a3" opacity="1.00" d=" M 194.93 33.26 C 195.25 32.66 195.88 31.46 196.20 30.87 C 196.73 32.55 197.17 34.42 196.31 36.09 C 195.91 35.60 195.11 34.62 194.71 34.14 L 194.93 33.26 Z" />
</g>
<g id="#433c30ff">
<path fill="#433c30" opacity="1.00" d=" M 22.01 14.97 C 28.08 14.95 32.90 18.62 36.96 22.67 C 37.11 22.84 37.41 23.19 37.56 23.36 C 37.77 23.62 38.18 24.12 38.39 24.37 C 37.14 23.90 35.90 23.41 34.63 22.99 C 32.72 22.61 30.78 22.39 28.84 22.21 C 29.12 22.04 29.68 21.70 29.96 21.53 C 30.38 20.65 30.79 19.77 31.19 18.87 C 28.18 17.45 25.09 16.21 22.01 14.97 Z" />
</g>
<g id="#413b32ff">
<path fill="#413b32" opacity="1.00" d=" M 77.71 15.67 C 80.71 15.93 84.15 15.29 86.62 17.34 C 92.73 22.23 98.13 28.13 105.11 31.84 C 105.40 32.02 105.97 32.37 106.26 32.55 L 107.02 33.02 C 105.44 33.70 106.75 35.86 108.14 35.03 C 108.11 35.25 108.05 35.68 108.02 35.89 C 107.66 36.03 106.92 36.31 106.56 36.45 C 105.65 35.62 104.75 34.79 103.83 33.99 C 100.92 31.37 97.68 29.15 94.75 26.56 C 93.43 25.16 92.12 23.75 90.82 22.34 C 89.09 22.58 87.36 22.85 85.63 23.09 C 86.04 21.59 86.44 20.09 86.84 18.58 C 83.86 17.43 80.78 16.52 77.71 15.67 Z" />
</g>
<g id="#403a31ff">
<path fill="#403a31" opacity="1.00" d=" M 133.58 14.59 C 137.22 14.30 140.85 15.29 143.30 17.98 C 144.27 18.86 145.23 19.74 146.21 20.61 C 150.61 25.20 155.79 28.80 161.35 31.82 C 161.51 32.05 161.82 32.51 161.98 32.74 L 162.60 33.68 C 162.96 34.13 163.69 35.02 164.06 35.46 C 163.78 35.35 163.22 35.13 162.95 35.02 C 161.30 34.24 159.69 33.39 158.15 32.43 C 155.53 30.62 153.02 28.65 150.70 26.48 C 149.34 25.16 148.03 23.78 146.72 22.41 C 145.03 22.63 143.35 22.85 141.66 23.06 C 142.02 21.64 142.36 20.22 142.69 18.80 C 139.99 17.41 137.18 16.19 134.41 14.96 L 133.58 14.59 Z" />
</g>
<g id="#443f37ff">
<path fill="#443f37" opacity="1.00" d=" M 190.04 14.78 C 193.14 15.56 196.61 15.67 199.16 17.80 C 205.01 22.68 210.48 28.08 217.14 31.88 C 217.34 32.09 217.73 32.52 217.93 32.73 C 218.66 33.56 219.41 34.39 220.08 35.28 C 219.93 35.63 219.64 36.34 219.49 36.70 C 219.24 36.40 218.74 35.80 218.49 35.50 C 215.11 32.87 211.50 30.53 208.25 27.73 C 207.96 27.46 207.37 26.92 207.08 26.65 C 205.63 25.33 204.20 23.99 202.66 22.76 C 200.75 22.47 198.81 22.34 196.88 22.22 C 197.14 22.03 197.66 21.65 197.91 21.45 C 198.35 20.62 198.78 19.77 199.20 18.92 C 196.20 17.43 193.10 16.11 190.04 14.78 Z" />
</g>
<g id="#393530ff">
<path fill="#393530" opacity="1.00" d=" M 11.03 24.48 C 14.43 21.50 17.75 18.43 21.26 15.59 C 20.29 16.83 19.35 18.09 18.40 19.34 C 18.01 19.85 17.62 20.37 17.23 20.88 C 18.20 22.62 19.15 24.37 20.06 26.14 C 18.63 25.57 17.73 27.57 19.07 28.29 L 19.53 28.82 C 19.00 28.86 17.94 28.93 17.40 28.97 C 15.98 28.39 14.58 27.75 13.19 27.09 C 15.39 25.93 12.34 23.68 11.90 26.13 C 11.68 26.58 11.25 27.47 11.04 27.92 C 10.88 27.63 10.56 27.05 10.40 26.77 C 10.20 26.41 9.79 25.71 9.58 25.35 C 9.95 25.13 10.67 24.70 11.03 24.48 M 15.40 23.15 C 14.97 24.55 15.45 25.03 16.85 24.60 C 17.29 23.20 16.80 22.71 15.40 23.15 Z" />
</g>
<g id="#99874eff">
<path fill="#99874e" opacity="1.00" d=" M 21.26 15.59 L 22.01 14.97 C 25.09 16.21 28.18 17.45 31.19 18.87 C 26.94 19.25 22.67 19.61 18.40 19.34 C 19.35 18.09 20.29 16.83 21.26 15.59 Z" />
<path fill="#99874e" opacity="1.00" d=" M 76.85 15.65 L 77.71 15.67 C 80.78 16.52 83.86 17.43 86.84 18.58 C 82.68 19.34 78.43 19.68 74.23 19.15 C 75.55 18.40 76.51 17.13 76.85 15.65 Z" />
<path fill="#99874e" opacity="1.00" d=" M 189.27 15.63 L 190.04 14.78 C 193.10 16.11 196.20 17.43 199.20 18.92 C 194.93 19.26 190.65 19.60 186.37 19.31 C 187.34 18.08 188.29 16.85 189.27 15.63 Z" />
</g>
<g id="#3a3530ff">
<path fill="#3a3530" opacity="1.00" d=" M 76.36 15.66 L 76.85 15.65 C 76.51 17.13 75.55 18.40 74.23 19.15 L 73.64 19.10 C 73.74 18.67 73.93 17.80 74.02 17.37 C 74.61 16.94 75.78 16.09 76.36 15.66 Z" />
</g>
<g id="#39342fff">
<path fill="#39342f" opacity="1.00" d=" M 127.13 22.68 C 127.98 19.34 130.45 16.99 133.63 15.83 C 132.58 17.02 131.52 18.20 130.43 19.36 C 129.35 20.48 128.24 21.58 127.13 22.68 Z" />
</g>
<g id="#9a8952ff">
<path fill="#9a8952" opacity="1.00" d=" M 133.63 15.83 L 134.41 14.96 C 137.18 16.19 139.99 17.41 142.69 18.80 C 138.62 19.24 134.53 19.63 130.43 19.36 C 131.52 18.20 132.58 17.02 133.63 15.83 Z" />
</g>
<g id="#3e3c3bff">
<path fill="#3e3c3b" opacity="1.00" d=" M 181.28 22.86 C 183.86 20.37 186.65 18.09 189.27 15.63 C 188.29 16.85 187.34 18.08 186.37 19.31 C 185.91 19.89 185.45 20.47 184.98 21.06 C 186.15 22.55 187.29 24.06 188.51 25.51 C 188.08 26.21 187.22 27.59 186.79 28.29 C 186.43 28.18 185.70 27.96 185.34 27.85 C 183.13 27.17 180.91 26.53 178.65 26.05 C 178.41 25.71 177.92 25.03 177.68 24.69 C 178.04 24.55 178.77 24.28 179.13 24.15 C 179.67 23.82 180.74 23.18 181.28 22.86 M 183.07 24.03 C 180.41 24.47 183.92 27.73 184.17 25.05 C 186.83 24.62 183.27 21.33 183.07 24.03 Z" />
</g>
<g id="#2a86caff">
<path fill="#2a86ca" opacity="1.00" d=" M 40.73 17.19 C 41.14 17.30 41.97 17.51 42.38 17.62 C 43.92 18.09 45.76 18.79 47.22 17.72 L 48.16 17.20 C 47.38 18.04 46.60 18.89 45.83 19.73 C 44.07 19.00 42.42 18.05 40.73 17.19 Z" />
</g>
<g id="#71614dff">
<path fill="#71614d" opacity="1.00" d=" M 17.23 20.88 C 17.62 20.37 18.01 19.85 18.40 19.34 C 22.67 19.61 26.94 19.25 31.19 18.87 C 30.79 19.77 30.38 20.65 29.96 21.53 C 29.68 21.70 29.12 22.04 28.84 22.21 C 28.46 22.20 27.71 22.18 27.33 22.18 C 26.95 22.17 26.20 22.15 25.83 22.15 C 22.95 21.83 20.10 21.32 17.23 20.88 Z" />
<path fill="#71614d" opacity="1.00" d=" M 184.98 21.06 C 185.45 20.47 185.91 19.89 186.37 19.31 C 190.65 19.60 194.93 19.26 199.20 18.92 C 198.78 19.77 198.35 20.62 197.91 21.45 C 197.66 21.65 197.14 22.03 196.88 22.22 C 196.49 22.22 195.71 22.20 195.32 22.19 C 194.95 22.18 194.22 22.17 193.85 22.16 C 190.88 21.88 187.93 21.43 184.98 21.06 Z" />
</g>
<g id="#4373c8ff">
<path fill="#4373c8" opacity="1.00" d=" M 68.77 21.09 C 69.34 19.89 70.53 18.64 71.99 18.97 C 71.87 20.33 71.07 21.58 69.86 22.24 C 69.59 21.95 69.04 21.37 68.77 21.09 Z" />
</g>
<g id="#38342fff">
<path fill="#38342f" opacity="1.00" d=" M 71.99 18.97 L 72.65 19.03 C 73.80 20.44 74.91 21.88 76.04 23.30 C 75.12 24.40 73.43 26.22 74.82 27.59 L 75.38 28.18 C 74.93 28.04 74.03 27.74 73.58 27.60 C 71.36 26.94 69.13 26.25 66.82 25.96 C 66.48 25.93 65.79 25.87 65.45 25.84 L 65.97 25.24 C 67.23 24.19 68.54 23.20 69.86 22.24 C 71.07 21.58 71.87 20.33 71.99 18.97 M 71.13 23.95 C 70.92 24.23 70.52 24.80 70.31 25.08 C 71.16 28.22 74.48 23.42 71.13 23.95 Z" />
</g>
<g id="#655a4bff">
<path fill="#655a4b" opacity="1.00" d=" M 72.65 19.03 L 73.64 19.10 L 74.23 19.15 C 78.43 19.68 82.68 19.34 86.84 18.58 C 86.44 20.09 86.04 21.59 85.63 23.09 C 87.36 22.85 89.09 22.58 90.82 22.34 C 90.13 24.19 89.46 26.06 88.80 27.93 C 87.16 27.79 85.51 27.73 83.86 27.70 C 83.92 27.06 84.03 25.80 84.09 25.16 C 83.62 24.04 83.17 22.91 82.71 21.78 C 80.63 22.30 78.54 22.81 76.44 23.23 L 76.04 23.30 C 74.91 21.88 73.80 20.44 72.65 19.03 Z" />
<path fill="#655a4b" opacity="1.00" d=" M 135.92 27.40 C 136.38 25.96 137.68 25.05 138.97 24.40 C 138.93 25.11 138.85 26.51 138.81 27.22 C 138.19 27.38 136.97 27.71 136.36 27.87 L 135.92 27.40 Z" />
<path fill="#655a4b" opacity="1.00" d=" M 89.71 28.24 C 91.60 29.76 93.35 31.44 95.10 33.12 C 94.89 34.49 94.65 35.85 94.47 37.22 L 93.29 36.81 C 91.30 36.14 89.25 35.68 87.19 35.29 C 86.44 35.13 85.67 35.02 84.90 34.97 C 84.58 33.45 84.26 31.92 84.01 30.39 L 84.16 29.39 C 85.06 29.35 85.96 29.31 86.87 29.28 C 83.89 31.94 89.23 33.49 89.26 29.91 C 89.37 29.49 89.60 28.66 89.71 28.24 Z" />
</g>
<g id="#675e50ff">
<path fill="#675e50" opacity="1.00" d=" M 127.13 22.68 C 128.24 21.58 129.35 20.48 130.43 19.36 C 134.53 19.63 138.62 19.24 142.69 18.80 C 142.36 20.22 142.02 21.64 141.66 23.06 C 143.35 22.85 145.03 22.63 146.72 22.41 C 146.10 24.17 145.52 25.94 144.94 27.70 C 143.87 27.73 142.82 27.80 141.77 27.93 C 141.35 27.83 140.50 27.64 140.08 27.54 C 141.11 26.42 140.50 24.98 139.56 24.06 C 139.25 23.62 138.64 22.76 138.33 22.32 C 134.41 22.83 130.45 22.88 126.53 23.29 L 127.13 22.68 Z" />
</g>
<g id="#575249ff">
<path fill="#575249" opacity="1.00" d=" M 17.23 20.88 C 20.10 21.32 22.95 21.83 25.83 22.15 C 24.46 22.15 23.09 22.18 21.72 22.19 C 21.52 24.00 21.27 25.79 20.92 27.57 L 20.42 26.84 L 20.06 26.14 C 19.15 24.37 18.20 22.62 17.23 20.88 Z" />
</g>
<g id="#322e2aff">
<path fill="#322e2a" opacity="1.00" d=" M 25.83 22.15 C 26.20 22.15 26.95 22.17 27.33 22.18 C 27.47 22.75 27.62 23.32 27.77 23.89 C 26.34 25.46 24.94 27.04 23.56 28.65 C 23.33 28.97 22.87 29.60 22.64 29.92 C 22.06 29.14 21.48 28.37 20.92 27.57 C 21.27 25.79 21.52 24.00 21.72 22.19 C 23.09 22.18 24.46 22.15 25.83 22.15 Z" />
</g>
<g id="#9eb7d5ff">
<path fill="#9eb7d5" opacity="1.00" d=" M 65.97 25.24 C 66.95 23.89 67.88 22.50 68.77 21.09 C 69.04 21.37 69.59 21.95 69.86 22.24 C 68.54 23.20 67.23 24.19 65.97 25.24 Z" />
</g>
<g id="#3a3633ff">
<path fill="#3a3633" opacity="1.00" d=" M 76.44 23.23 C 78.54 22.81 80.63 22.30 82.71 21.78 C 83.17 22.91 83.62 24.04 84.09 25.16 L 83.34 25.11 C 81.87 24.79 80.56 25.74 79.70 26.83 C 79.41 27.23 78.83 28.03 78.54 28.43 C 77.97 28.11 76.84 27.49 76.28 27.18 C 76.71 25.89 76.77 24.57 76.44 23.23 Z" />
</g>
<g id="#393531ff">
<path fill="#393531" opacity="1.00" d=" M 126.53 23.29 C 130.45 22.88 134.41 22.83 138.33 22.32 C 138.64 22.76 139.25 23.62 139.56 24.06 L 138.97 24.40 C 137.68 25.05 136.38 25.96 135.92 27.40 L 135.03 26.46 L 134.59 25.97 C 133.54 23.15 129.51 23.25 131.03 26.76 L 131.13 27.24 C 130.70 27.14 129.83 26.96 129.40 26.87 C 126.96 26.35 124.51 25.90 122.04 25.60 L 121.27 25.50 C 122.95 24.63 124.60 23.52 126.53 23.29 Z" />
</g>
<g id="#457acbff">
<path fill="#457acb" opacity="1.00" d=" M 154.65 21.21 C 156.01 21.05 157.38 20.89 158.75 20.72 C 158.07 21.92 157.38 23.11 156.72 24.31 C 161.11 26.62 166.13 26.62 170.97 26.55 C 171.48 27.44 171.98 28.34 172.48 29.24 C 168.47 27.80 163.66 28.14 161.98 32.74 C 161.82 32.51 161.51 32.05 161.35 31.82 C 159.13 28.27 156.56 24.94 154.65 21.21 Z" />
</g>
<g id="#5c5850ff">
<path fill="#5c5850" opacity="1.00" d=" M 184.98 21.06 C 187.93 21.43 190.88 21.88 193.85 22.16 C 192.26 22.15 190.67 22.18 189.09 22.20 C 189.60 24.01 190.12 25.82 190.62 27.64 C 190.21 27.23 189.40 26.42 188.99 26.01 L 188.51 25.51 C 187.29 24.06 186.15 22.55 184.98 21.06 Z" />
</g>
<g id="#3c3937ff">
<path fill="#3c3937" opacity="1.00" d=" M 193.85 22.16 C 194.22 22.17 194.95 22.18 195.32 22.19 C 195.55 23.09 195.77 23.99 196.00 24.89 L 195.28 25.00 C 194.63 25.10 193.33 25.30 192.68 25.40 C 192.66 26.50 192.65 27.60 192.64 28.71 L 192.62 29.41 C 191.37 28.32 190.14 27.20 188.99 26.01 C 189.40 26.42 190.21 27.23 190.62 27.64 C 190.12 25.82 189.60 24.01 189.09 22.20 C 190.67 22.18 192.26 22.15 193.85 22.16 Z" />
</g>
<g id="#4378caff">
<path fill="#4378ca" opacity="1.00" d=" M 210.60 21.31 C 211.88 21.07 213.17 20.84 214.46 20.61 C 213.86 22.28 213.27 23.94 212.69 25.62 C 216.41 26.59 220.20 27.18 224.00 27.71 L 224.00 28.28 C 222.01 29.82 219.95 31.25 217.93 32.73 C 217.73 32.52 217.34 32.09 217.14 31.88 C 214.63 28.57 212.24 25.14 210.60 21.31 Z" />
</g>
<g id="#565248ff">
<path fill="#565248" opacity="1.00" d=" M 27.33 22.18 C 27.71 22.18 28.46 22.20 28.84 22.21 C 30.78 22.39 32.72 22.61 34.63 22.99 C 34.05 24.48 33.48 25.97 32.92 27.47 L 32.33 27.03 C 30.84 25.94 29.31 24.91 27.77 23.89 C 27.62 23.32 27.47 22.75 27.33 22.18 Z" />
<path fill="#565248" opacity="1.00" d=" M 195.32 22.19 C 195.71 22.20 196.49 22.22 196.88 22.22 C 198.81 22.34 200.75 22.47 202.66 22.76 C 202.11 24.37 201.56 25.98 201.04 27.60 L 200.45 27.27 C 198.99 26.43 197.50 25.65 196.00 24.89 C 195.77 23.99 195.55 23.09 195.32 22.19 Z" />
</g>
<g id="#268ed9fe">
<path fill="#268ed9" opacity="1.00" d=" M 36.96 22.67 C 38.70 22.40 41.01 21.79 42.35 23.31 C 41.69 25.13 38.90 23.78 37.56 23.36 C 37.41 23.19 37.11 22.84 36.96 22.67 Z" />
</g>
<g id="#565249ff">
<path fill="#565249" opacity="1.00" d=" M 15.40 23.15 C 16.80 22.71 17.29 23.20 16.85 24.60 C 15.45 25.03 14.97 24.55 15.40 23.15 Z" />
<path fill="#565249" opacity="1.00" d=" M 183.07 24.03 C 183.27 21.33 186.83 24.62 184.17 25.05 C 183.90 24.80 183.35 24.28 183.07 24.03 Z" />
<path fill="#565249" opacity="1.00" d=" M 11.90 26.13 C 12.34 23.68 15.39 25.93 13.19 27.09 C 12.87 26.85 12.22 26.37 11.90 26.13 Z" />
</g>
<g id="#9a884eff">
<path fill="#9a884e" opacity="1.00" d=" M 32.92 27.47 C 33.48 25.97 34.05 24.48 34.63 22.99 C 35.90 23.41 37.14 23.90 38.39 24.37 C 38.64 26.86 38.85 29.35 39.03 31.84 C 39.05 32.19 39.10 32.91 39.12 33.27 C 38.45 32.55 37.76 31.86 37.05 31.19 C 35.86 30.10 34.67 29.03 33.47 27.96 L 32.92 27.47 Z" />
<path fill="#9a884e" opacity="1.00" d=" M 88.80 27.93 C 89.46 26.06 90.13 24.19 90.82 22.34 C 92.12 23.75 93.43 25.16 94.75 26.56 C 94.98 28.35 95.17 30.14 95.23 31.94 C 95.19 32.24 95.13 32.83 95.10 33.12 C 93.35 31.44 91.60 29.76 89.71 28.24 L 88.80 27.93 Z" />
<path fill="#9a884e" opacity="1.00" d=" M 144.94 27.70 C 145.52 25.94 146.10 24.17 146.72 22.41 C 148.03 23.78 149.34 25.16 150.70 26.48 C 151.01 28.75 151.38 31.02 151.74 33.29 L 150.97 32.74 C 149.13 31.19 147.27 29.66 145.43 28.12 L 144.94 27.70 Z" />
<path fill="#9a884e" opacity="1.00" d=" M 201.04 27.60 C 201.56 25.98 202.11 24.37 202.66 22.76 C 204.20 23.99 205.63 25.33 207.08 26.65 C 205.73 27.23 205.55 29.25 206.76 30.08 C 207.10 30.44 207.77 31.17 208.11 31.53 C 207.97 31.99 207.68 32.90 207.54 33.36 C 205.56 31.57 203.57 29.80 201.55 28.04 L 201.04 27.60 Z" />
</g>
<g id="#adc2d9fe">
<path fill="#adc2d9" opacity="1.00" d=" M 76.04 23.30 L 76.44 23.23 C 76.77 24.57 76.71 25.89 76.28 27.18 C 75.91 27.28 75.19 27.48 74.82 27.59 C 73.43 26.22 75.12 24.40 76.04 23.30 Z" />
<path fill="#adc2d9" opacity="1.00" d=" M 131.03 26.76 C 129.51 23.25 133.54 23.15 134.59 25.97 C 133.36 26.03 132.18 26.30 131.03 26.76 Z" />
</g>
<g id="#8e9dadff">
<path fill="#8e9dad" opacity="1.00" d=" M 71.13 23.95 C 74.48 23.42 71.16 28.22 70.31 25.08 C 70.52 24.80 70.92 24.23 71.13 23.95 Z" />
</g>
<g id="#a2a085ff">
<path fill="#a2a085" opacity="1.00" d=" M 139.56 24.06 C 140.50 24.98 141.11 26.42 140.08 27.54 L 139.41 27.73 L 138.81 27.22 C 138.85 26.51 138.93 25.11 138.97 24.40 L 139.56 24.06 Z" />
</g>
<g id="#84909eff">
<path fill="#84909e" opacity="1.00" d=" M 183.07 24.03 C 183.35 24.28 183.90 24.80 184.17 25.05 C 183.92 27.73 180.41 24.47 183.07 24.03 Z" />
<path fill="#84909e" opacity="1.00" d=" M 107.02 33.02 C 107.30 33.52 107.86 34.53 108.14 35.03 C 106.75 35.86 105.44 33.70 107.02 33.02 Z" />
</g>
<g id="#726756fe">
<path fill="#726756" opacity="1.00" d=" M 23.56 28.65 C 24.94 27.04 26.34 25.46 27.77 23.89 C 29.31 24.91 30.84 25.94 32.33 27.03 C 30.03 27.94 27.80 29.00 25.71 30.31 C 25.17 29.90 24.10 29.07 23.56 28.65 Z" />
</g>
<g id="#5a5449ff">
<path fill="#5a5449" opacity="1.00" d=" M 38.39 24.37 C 38.74 24.80 39.45 25.66 39.80 26.09 C 43.14 30.43 47.78 33.43 51.97 36.85 L 51.40 37.72 C 50.14 36.75 48.62 36.28 47.09 35.96 C 44.42 34.56 41.74 33.17 39.03 31.84 C 38.85 29.35 38.64 26.86 38.39 24.37 Z" />
</g>
<g id="#4178cafe">
<path fill="#4178ca" opacity="1.00" d=" M 44.81 29.14 C 50.52 27.35 56.59 27.19 62.42 25.87 C 62.30 26.13 62.06 26.66 61.94 26.92 C 58.29 29.57 53.87 30.78 49.86 32.72 C 48.25 31.43 46.54 30.26 44.81 29.14 Z" />
</g>
<g id="#298bd7ff">
<path fill="#298bd7" opacity="1.00" d=" M 62.42 25.87 C 63.43 25.81 64.44 25.81 65.45 25.84 C 65.79 25.87 66.48 25.93 66.82 25.96 C 67.10 26.58 67.65 27.81 67.92 28.42 C 67.41 28.38 66.40 28.29 65.89 28.25 C 64.55 27.87 63.24 27.40 61.94 26.92 C 62.06 26.66 62.30 26.13 62.42 25.87 Z" />
<path fill="#298bd7" opacity="1.00" d=" M 5.41 26.60 C 7.07 26.65 8.74 26.70 10.40 26.77 C 10.56 27.05 10.88 27.63 11.04 27.92 C 11.23 28.29 11.63 29.05 11.83 29.42 C 11.35 29.40 10.40 29.37 9.92 29.35 C 8.37 28.52 6.89 27.56 5.41 26.60 Z" />
</g>
<g id="#95adc1ff">
<path fill="#95adc1" opacity="1.00" d=" M 66.82 25.96 C 69.13 26.25 71.36 26.94 73.58 27.60 C 72.01 27.91 70.44 28.24 68.87 28.49 L 67.92 28.42 C 67.65 27.81 67.10 26.58 66.82 25.96 Z" />
<path fill="#95adc1" opacity="1.00" d=" M 178.65 26.05 C 180.91 26.53 183.13 27.17 185.34 27.85 C 183.87 28.03 182.42 28.22 180.95 28.35 L 180.18 28.25 C 179.80 27.70 179.03 26.60 178.65 26.05 Z" />
<path fill="#95adc1" opacity="1.00" d=" M 11.90 26.13 C 12.22 26.37 12.87 26.85 13.19 27.09 C 14.58 27.75 15.98 28.39 17.40 28.97 C 15.87 29.12 14.33 29.31 12.79 29.44 L 11.83 29.42 C 11.63 29.05 11.23 28.29 11.04 27.92 C 11.25 27.47 11.68 26.58 11.90 26.13 Z" />
</g>
<g id="#63594bfe">
<path fill="#63594b" opacity="1.00" d=" M 79.70 26.83 C 80.56 25.74 81.87 24.79 83.34 25.11 C 83.28 25.76 83.17 27.05 83.12 27.70 C 82.68 27.76 81.79 27.89 81.35 27.96 C 80.94 27.68 80.12 27.12 79.70 26.83 Z" />
</g>
<g id="#288bd6ff">
<path fill="#288bd6" opacity="1.00" d=" M 117.71 25.14 C 118.90 25.25 120.09 25.36 121.27 25.50 L 122.04 25.60 C 122.49 25.96 123.39 26.68 123.83 27.05 C 125.41 27.95 127.01 28.81 128.65 29.62 L 127.66 29.98 C 126.52 30.40 125.40 30.89 124.28 31.36 C 122.21 29.16 119.99 27.12 117.71 25.14 Z" />
<path fill="#288bd6" opacity="1.00" d=" M 124.73 27.05 C 126.29 27.01 127.84 26.89 129.40 26.87 C 129.83 26.96 130.70 27.14 131.13 27.24 C 132.18 27.59 133.26 27.76 134.37 27.74 C 134.09 28.19 133.53 29.09 133.26 29.53 C 134.51 29.94 135.75 30.36 137.00 30.80 C 136.38 32.04 135.76 33.28 135.13 34.52 C 133.51 33.02 131.88 31.52 130.04 30.30 C 128.33 29.11 126.56 28.02 124.73 27.05 Z" />
</g>
<g id="#93aabeff">
<path fill="#93aabe" opacity="1.00" d=" M 122.04 25.60 C 124.51 25.90 126.96 26.35 129.40 26.87 C 127.84 26.89 126.29 27.01 124.73 27.05 L 123.83 27.05 C 123.39 26.68 122.49 25.96 122.04 25.60 Z" />
</g>
<g id="#3c8bd1ff">
<path fill="#3c8bd1" opacity="1.00" d=" M 172.38 27.07 C 174.12 26.21 175.88 25.40 177.68 24.69 C 177.92 25.03 178.41 25.71 178.65 26.05 C 179.03 26.60 179.80 27.70 180.18 28.25 C 177.58 27.91 174.97 27.51 172.38 27.07 Z" />
</g>
<g id="#61584aff">
<path fill="#61584a" opacity="1.00" d=" M 192.68 25.40 C 193.33 25.30 194.63 25.10 195.28 25.00 C 195.13 25.61 194.81 26.82 194.66 27.43 C 194.15 27.75 193.14 28.39 192.64 28.71 C 192.65 27.60 192.66 26.50 192.68 25.40 Z" />
</g>
<g id="#75634eff">
<path fill="#75634e" opacity="1.00" d=" M 196.00 24.89 C 197.50 25.65 198.99 26.43 200.45 27.27 C 198.78 27.28 197.11 27.32 195.44 27.39 C 195.58 26.77 195.86 25.52 196.00 24.89 Z" />
<path fill="#75634e" opacity="1.00" d=" M 206.76 30.08 C 205.55 29.25 205.73 27.23 207.08 26.65 C 207.37 26.92 207.96 27.46 208.25 27.73 C 207.88 28.32 207.13 29.49 206.76 30.08 Z" />
<path fill="#75634e" opacity="1.00" d=" M 35.10 34.78 C 36.45 34.48 37.80 34.19 39.16 33.91 C 39.17 34.77 39.18 36.50 39.19 37.36 C 37.82 36.52 36.46 35.66 35.10 34.78 Z" />
</g>
<g id="#3b3631ff">
<path fill="#3b3631" opacity="1.00" d=" M 39.80 26.09 C 41.42 27.19 43.13 28.14 44.81 29.14 C 46.54 30.26 48.25 31.43 49.86 32.72 C 50.87 33.63 51.86 34.57 52.79 35.56 C 52.58 35.88 52.18 36.53 51.97 36.85 C 47.78 33.43 43.14 30.43 39.80 26.09 Z" />
</g>
<g id="#738fa5ff">
<path fill="#738fa5" opacity="1.00" d=" M 20.42 26.84 L 20.92 27.57 C 21.48 28.37 22.06 29.14 22.64 29.92 C 23.10 30.27 24.04 30.98 24.51 31.33 L 25.71 31.81 C 24.37 31.64 23.02 31.54 21.67 31.42 C 20.96 30.55 20.26 29.67 19.53 28.82 L 19.07 28.29 C 19.40 27.92 20.08 27.20 20.42 26.84 Z" />
</g>
<g id="#3c6cbfff">
<path fill="#3c6cbf" opacity="1.00" d=" M 49.86 32.72 C 53.87 30.78 58.29 29.57 61.94 26.92 C 63.24 27.40 64.55 27.87 65.89 28.25 C 65.73 29.02 65.42 30.58 65.26 31.35 C 67.62 31.30 69.98 31.21 72.35 31.15 C 70.73 30.43 67.50 28.97 65.89 28.25 C 66.40 28.29 67.41 28.38 67.92 28.42 L 68.87 28.49 C 71.57 29.33 74.04 30.78 76.14 32.67 C 70.80 34.62 65.42 36.48 60.08 38.44 C 62.67 41.92 65.65 45.16 69.61 47.09 C 67.42 44.56 65.23 42.04 63.18 39.39 C 68.25 37.31 73.56 35.89 79.02 35.38 C 79.68 34.28 80.34 33.18 80.99 32.08 C 81.73 32.29 82.47 32.52 83.21 32.76 L 82.74 34.00 C 82.64 34.40 82.44 35.21 82.34 35.62 C 82.23 37.09 82.24 38.57 82.24 40.04 C 80.14 43.05 77.96 46.02 75.41 48.67 C 75.98 48.87 77.12 49.27 77.69 49.47 C 75.84 51.18 73.98 52.88 72.14 54.59 C 74.75 53.45 77.25 51.93 80.09 51.43 C 82.89 51.47 85.26 53.30 87.69 54.48 C 86.25 55.01 84.80 55.51 83.35 56.00 L 32.68 56.00 C 30.18 53.68 27.45 51.61 24.52 49.87 C 24.41 49.49 24.20 48.72 24.10 48.33 C 26.12 46.49 28.16 44.67 30.20 42.85 C 31.70 43.58 33.22 44.25 34.76 44.90 C 37.62 45.98 40.43 47.41 43.49 47.84 C 47.71 47.47 51.92 46.99 56.16 46.74 C 52.74 45.99 49.34 45.22 45.96 44.31 C 46.31 42.98 46.64 41.65 46.98 40.31 C 49.43 39.67 51.89 39.07 54.34 38.41 C 53.25 38.34 52.15 38.28 51.05 38.24 L 51.40 37.72 L 51.97 36.85 C 52.18 36.53 52.58 35.88 52.79 35.56 C 51.86 34.57 50.87 33.63 49.86 32.72 Z" />
</g>
<g id="#5d564aff">
<path fill="#5d564a" opacity="1.00" d=" M 95.23 31.94 C 95.17 30.14 94.98 28.35 94.75 26.56 C 97.68 29.15 100.92 31.37 103.83 33.99 C 103.51 34.25 102.85 34.77 102.52 35.03 C 100.06 34.09 97.65 33.00 95.23 31.94 Z" />
</g>
<g id="#a2bed9ff">
<path fill="#a2bed9" opacity="1.00" d=" M 135.03 26.46 L 135.92 27.40 L 136.36 27.87 C 137.14 28.91 138.31 29.51 139.51 29.93 C 139.43 30.35 139.26 31.20 139.18 31.62 C 138.46 31.34 137.73 31.07 137.00 30.80 C 135.75 30.36 134.51 29.94 133.26 29.53 C 133.53 29.09 134.09 28.19 134.37 27.74 C 134.53 27.42 134.87 26.78 135.03 26.46 Z" />
</g>
<g id="#332e2aff">
<path fill="#332e2a" opacity="1.00" d=" M 136.36 27.87 C 136.97 27.71 138.19 27.38 138.81 27.22 L 139.41 27.73 C 139.47 28.12 139.59 28.91 139.65 29.30 L 139.51 29.93 C 138.31 29.51 137.14 28.91 136.36 27.87 Z" />
<path fill="#332e2a" opacity="1.00" d=" M 25.71 30.31 C 27.80 29.00 30.03 27.94 32.33 27.03 L 32.92 27.47 L 33.47 27.96 C 33.43 28.43 33.37 29.37 33.33 29.84 C 32.73 29.70 31.51 29.43 30.91 29.29 C 29.92 29.36 28.92 29.45 27.93 29.55 C 28.33 30.72 28.73 31.89 29.13 33.06 C 28.76 32.93 28.02 32.67 27.65 32.54 C 27.17 32.36 26.20 31.99 25.71 31.81 L 24.51 31.33 C 24.81 31.08 25.41 30.57 25.71 30.31 Z" />
<path fill="#332e2a" opacity="1.00" d=" M 81.35 27.96 C 81.79 27.89 82.68 27.76 83.12 27.70 L 83.86 27.70 C 85.51 27.73 87.16 27.79 88.80 27.93 L 89.71 28.24 C 89.60 28.66 89.37 29.49 89.26 29.91 C 88.66 29.75 87.47 29.44 86.87 29.28 C 85.96 29.31 85.06 29.35 84.16 29.39 C 82.96 29.45 81.76 29.50 80.57 29.54 L 80.98 28.73 L 81.35 27.96 Z" />
<path fill="#332e2a" opacity="1.00" d=" M 141.77 27.93 C 142.82 27.80 143.87 27.73 144.94 27.70 L 145.43 28.12 C 145.34 28.55 145.15 29.42 145.06 29.85 C 144.47 29.76 143.31 29.58 142.73 29.49 L 142.00 29.30 C 141.94 28.96 141.82 28.27 141.77 27.93 Z" />
<path fill="#332e2a" opacity="1.00" d=" M 192.64 28.71 C 193.14 28.39 194.15 27.75 194.66 27.43 L 195.44 27.39 C 197.11 27.32 198.78 27.28 200.45 27.27 L 201.04 27.60 L 201.55 28.04 C 201.51 28.51 201.44 29.45 201.40 29.92 C 200.78 29.81 199.55 29.59 198.94 29.48 C 198.00 29.58 197.06 29.68 196.12 29.77 C 195.08 29.82 194.03 29.84 193.00 29.74 L 192.62 29.41 L 192.64 28.71 Z" />
<path fill="#332e2a" opacity="1.00" d=" M 150.97 32.74 L 151.74 33.29 C 152.82 33.99 153.91 34.67 155.02 35.31 C 153.74 35.10 152.44 34.96 151.15 34.81 C 151.11 34.29 151.02 33.25 150.97 32.74 Z" />
<path fill="#332e2a" opacity="1.00" d=" M 87.19 35.29 C 89.25 35.68 91.30 36.14 93.29 36.81 C 93.28 37.68 93.25 39.44 93.24 40.32 C 92.53 40.50 91.11 40.87 90.40 41.06 C 91.37 40.04 90.68 38.53 89.58 37.99 C 89.14 37.71 88.28 37.13 87.85 36.84 C 87.68 36.46 87.36 35.68 87.19 35.29 Z" />
<path fill="#332e2a" opacity="1.00" d=" M 145.10 35.81 C 146.21 36.11 147.32 36.39 148.43 36.70 C 148.08 37.02 147.37 37.68 147.02 38.01 C 146.71 38.27 146.09 38.78 145.78 39.04 C 145.65 38.41 145.40 37.14 145.27 36.50 L 145.10 35.81 Z" />
</g>
<g id="#5e574dff">
<path fill="#5e574d" opacity="1.00" d=" M 151.74 33.29 C 151.38 31.02 151.01 28.75 150.70 26.48 C 153.02 28.65 155.53 30.62 158.15 32.43 C 157.89 33.54 157.64 34.65 157.40 35.76 L 156.82 35.81 C 156.37 35.68 155.47 35.44 155.02 35.31 C 153.91 34.67 152.82 33.99 151.74 33.29 Z" />
</g>
<g id="#6c5e4cff">
<path fill="#6c5e4c" opacity="1.00" d=" M 33.47 27.96 C 34.67 29.03 35.86 30.10 37.05 31.19 C 34.58 32.40 31.93 33.42 29.13 33.06 C 28.73 31.89 28.33 30.72 27.93 29.55 C 28.92 29.45 29.92 29.36 30.91 29.29 C 27.94 31.98 33.59 33.34 33.33 29.84 C 33.37 29.37 33.43 28.43 33.47 27.96 Z" />
</g>
<g id="#278cd7ff">
<path fill="#278cd7" opacity="1.00" d=" M 68.87 28.49 C 70.44 28.24 72.01 27.91 73.58 27.60 C 74.03 27.74 74.93 28.04 75.38 28.18 C 76.35 28.65 77.32 29.12 78.31 29.55 C 77.95 29.91 77.22 30.64 76.86 31.01 C 78.24 31.35 79.62 31.70 80.99 32.08 C 80.34 33.18 79.68 34.28 79.02 35.38 C 78.07 34.46 77.12 33.55 76.14 32.67 C 74.04 30.78 71.57 29.33 68.87 28.49 Z" />
<path fill="#278cd7" opacity="1.00" d=" M 180.95 28.35 C 182.42 28.22 183.87 28.03 185.34 27.85 C 185.70 27.96 186.43 28.18 186.79 28.29 C 187.97 28.63 189.15 28.97 190.35 29.27 C 189.94 29.84 189.13 30.98 188.72 31.55 C 190.22 31.42 191.72 31.31 193.22 31.20 C 192.74 32.54 192.24 33.87 191.76 35.21 C 189.84 33.82 187.96 32.38 186.00 31.04 C 184.39 30.01 182.69 29.13 180.95 28.35 Z" />
</g>
<g id="#3c6bbeff">
<path fill="#3c6bbe" opacity="1.00" d=" M 128.65 29.62 C 127.01 28.81 125.41 27.95 123.83 27.05 L 124.73 27.05 C 126.56 28.02 128.33 29.11 130.04 30.30 C 129.69 30.13 129.00 29.79 128.65 29.62 Z" />
<path fill="#3c6bbe" opacity="1.00" d=" M 9.92 29.35 C 10.40 29.37 11.35 29.40 11.83 29.42 L 12.79 29.44 C 14.59 30.29 16.30 31.30 17.99 32.34 C 17.59 32.20 16.80 31.93 16.40 31.79 C 14.23 31.00 12.07 30.19 9.92 29.35 Z" />
<path fill="#3c6bbe" opacity="1.00" d=" M 24.68 34.57 C 25.98 34.55 26.83 35.13 27.22 36.30 C 26.77 36.28 25.87 36.25 25.42 36.24 C 25.24 35.82 24.86 34.99 24.68 34.57 Z" />
<path fill="#3c6bbe" opacity="1.00" d=" M 8.36 39.94 C 11.38 38.37 14.42 36.20 17.95 36.27 C 21.29 36.80 24.23 38.62 27.29 39.97 L 26.85 41.12 C 25.11 43.10 22.92 44.60 20.75 46.08 C 21.08 47.59 21.41 49.10 21.73 50.61 C 19.72 52.41 17.76 54.28 15.68 56.00 L 0.00 56.00 L 0.00 38.23 C 2.81 39.09 6.36 39.12 8.18 41.81 C 10.22 44.41 12.79 46.50 15.68 48.09 C 13.23 45.38 10.76 42.69 8.36 39.94 M 2.86 47.82 C 3.01 49.95 3.06 52.09 2.92 54.22 C 5.65 54.47 8.39 54.74 11.13 54.98 C 9.00 53.54 6.85 52.14 4.73 50.68 C 5.78 49.34 6.83 48.00 7.85 46.64 C 6.18 47.00 4.52 47.39 2.86 47.82 Z" />
<path fill="#3c6bbe" opacity="1.00" d=" M 149.60 41.72 C 152.54 40.65 155.46 39.52 158.39 38.43 C 156.44 40.81 154.72 43.37 152.69 45.69 C 151.65 44.37 150.61 43.05 149.60 41.72 Z" />
<path fill="#3c6bbe" opacity="1.00" d=" M 198.30 42.18 C 200.01 43.13 201.81 43.90 203.61 44.67 C 209.90 48.54 217.21 46.96 224.00 45.84 L 224.00 56.00 L 205.30 56.00 C 200.25 53.90 195.50 51.17 190.73 48.54 C 193.25 46.42 195.79 44.32 198.30 42.18 Z" />
<path fill="#3c6bbe" opacity="1.00" d=" M 16.70 56.00 C 19.72 54.45 22.63 52.12 26.31 52.70 C 28.24 53.53 29.88 54.87 31.64 56.00 L 16.70 56.00 Z" />
</g>
<g id="#665d4ffe">
<path fill="#665d4f" opacity="1.00" d=" M 145.43 28.12 C 147.27 29.66 149.13 31.19 150.97 32.74 C 151.02 33.25 151.11 34.29 151.15 34.81 C 151.18 35.49 151.23 36.85 151.26 37.53 C 150.32 37.25 149.38 36.96 148.43 36.70 C 147.32 36.39 146.21 36.11 145.10 35.81 C 144.02 35.36 142.61 35.06 141.75 36.10 C 140.98 33.86 140.30 31.58 139.65 29.30 C 140.24 29.30 141.41 29.30 142.00 29.30 L 142.73 29.49 C 140.26 32.30 145.18 33.18 145.06 29.85 C 145.15 29.42 145.34 28.55 145.43 28.12 Z" />
</g>
<g id="#665d50ff">
<path fill="#665d50" opacity="1.00" d=" M 201.55 28.04 C 203.57 29.80 205.56 31.57 207.54 33.36 C 207.19 34.41 206.84 35.46 206.47 36.51 C 204.00 35.99 201.52 35.50 199.04 35.04 C 199.71 36.36 200.39 37.67 201.08 38.99 C 200.78 39.50 200.18 40.53 199.89 41.04 L 199.56 40.74 C 199.19 38.94 198.31 36.51 195.99 36.96 L 196.31 36.09 C 197.17 34.42 196.73 32.55 196.20 30.87 L 196.12 29.77 C 197.06 29.68 198.00 29.58 198.94 29.48 C 195.84 32.13 201.68 33.40 201.40 29.92 C 201.44 29.45 201.51 28.51 201.55 28.04 Z" />
</g>
<g id="#59564fff">
<path fill="#59564f" opacity="1.00" d=" M 208.25 27.73 C 211.50 30.53 215.11 32.87 218.49 35.50 C 217.41 35.26 216.31 35.19 215.21 35.20 C 215.52 35.62 216.12 36.46 216.43 36.88 C 215.96 36.74 215.03 36.46 214.56 36.32 C 212.31 34.87 210.15 33.27 208.11 31.53 C 207.77 31.17 207.10 30.44 206.76 30.08 C 207.13 29.49 207.88 28.32 208.25 27.73 Z" />
</g>
<g id="#268dd8ff">
<path fill="#268dd8" opacity="1.00" d=" M 12.79 29.44 C 14.33 29.31 15.87 29.12 17.40 28.97 C 17.94 28.93 19.00 28.86 19.53 28.82 C 20.26 29.67 20.96 30.55 21.67 31.42 C 21.83 31.61 22.16 31.99 22.32 32.17 C 23.09 32.99 23.88 33.78 24.68 34.57 C 24.86 34.99 25.24 35.82 25.42 36.24 C 22.73 35.38 20.41 33.74 17.99 32.34 C 16.30 31.30 14.59 30.29 12.79 29.44 Z" />
<path fill="#268dd8" opacity="1.00" d=" M 42.56 39.11 C 43.03 38.59 43.97 37.56 44.44 37.04 C 45.73 37.32 47.01 37.62 48.29 37.92 C 48.98 38.00 50.36 38.16 51.05 38.24 C 52.15 38.28 53.25 38.34 54.34 38.41 C 51.89 39.07 49.43 39.67 46.98 40.31 C 42.77 41.45 38.77 43.21 34.76 44.90 C 33.22 44.25 31.70 43.58 30.20 42.85 C 29.07 42.29 27.96 41.70 26.85 41.12 L 27.29 39.97 C 27.40 39.65 27.63 39.01 27.75 38.69 C 28.24 40.50 30.06 41.24 31.65 41.82 L 32.23 42.09 L 32.88 42.39 C 34.03 43.83 36.14 43.64 36.91 41.93 L 37.52 41.89 L 38.34 41.83 C 40.27 42.13 41.96 40.92 42.56 39.11 Z" />
</g>
<g id="#9c8a4efe">
<path fill="#9c8a4e" opacity="1.00" d=" M 30.91 29.29 C 31.51 29.43 32.73 29.70 33.33 29.84 C 33.59 33.34 27.94 31.98 30.91 29.29 Z" />
<path fill="#9c8a4e" opacity="1.00" d=" M 86.87 29.28 C 87.47 29.44 88.66 29.75 89.26 29.91 C 89.23 33.49 83.89 31.94 86.87 29.28 Z" />
<path fill="#9c8a4e" opacity="1.00" d=" M 198.94 29.48 C 199.55 29.59 200.78 29.81 201.40 29.92 C 201.68 33.40 195.84 32.13 198.94 29.48 Z" />
</g>
<g id="#288ad6ff">
<path fill="#288ad6" opacity="1.00" d=" M 65.26 31.35 C 65.42 30.58 65.73 29.02 65.89 28.25 C 67.50 28.97 70.73 30.43 72.35 31.15 C 69.98 31.21 67.62 31.30 65.26 31.35 Z" />
<path fill="#288ad6" opacity="1.00" d=" M 9.24 32.25 C 9.41 31.53 9.75 30.08 9.92 29.35 C 12.07 30.19 14.23 31.00 16.40 31.79 L 15.25 31.84 C 13.25 31.95 11.25 32.11 9.24 32.25 Z" />
</g>
<g id="#a0bdd9ff">
<path fill="#a0bdd9" opacity="1.00" d=" M 80.57 29.54 C 81.76 29.50 82.96 29.45 84.16 29.39 L 84.01 30.39 C 83.81 30.98 83.41 32.16 83.21 32.76 C 82.47 32.52 81.73 32.29 80.99 32.08 C 79.62 31.70 78.24 31.35 76.86 31.01 C 77.22 30.64 77.95 29.91 78.31 29.55 C 78.87 29.55 80.00 29.54 80.57 29.54 Z" />
</g>
<g id="#95afc9ff">
<path fill="#95afc9" opacity="1.00" d=" M 193.00 29.74 C 194.03 29.84 195.08 29.82 196.12 29.77 L 196.20 30.87 C 195.88 31.46 195.25 32.66 194.93 33.26 C 194.36 32.57 193.79 31.89 193.22 31.20 C 191.72 31.31 190.22 31.42 188.72 31.55 C 189.13 30.98 189.94 29.84 190.35 29.27 C 191.01 29.39 192.34 29.62 193.00 29.74 Z" />
</g>
<g id="#3c6bbefe">
<path fill="#3c6bbe" opacity="1.00" d=" M 217.93 32.73 C 219.95 31.25 222.01 29.82 224.00 28.28 L 224.00 45.16 C 221.18 44.96 218.39 44.77 215.59 44.57 C 215.40 42.88 215.23 41.19 215.05 39.50 C 217.54 38.92 220.03 38.32 222.47 37.53 C 221.66 37.48 220.04 37.37 219.23 37.32 L 219.49 36.70 C 219.64 36.34 219.93 35.63 220.08 35.28 C 219.41 34.39 218.66 33.56 217.93 32.73 Z" />
</g>
<g id="#4279c9ff">
<path fill="#4279c9" opacity="1.00" d=" M 127.66 29.98 L 128.65 29.62 C 129.00 29.79 129.69 30.13 130.04 30.30 C 131.88 31.52 133.51 33.02 135.13 34.52 C 135.76 33.28 136.38 32.04 137.00 30.80 C 137.73 31.07 138.46 31.34 139.18 31.62 C 138.98 32.66 138.57 34.73 138.37 35.77 C 137.97 35.80 137.16 35.87 136.75 35.90 C 134.24 36.16 131.74 35.67 129.28 35.24 C 129.39 33.96 129.50 32.67 129.62 31.39 C 128.91 31.12 127.49 30.57 126.78 30.30 L 127.66 29.98 Z" />
</g>
<g id="#7d95aaff">
<path fill="#7d95aa" opacity="1.00" d=" M 139.51 29.93 L 139.65 29.30 C 140.30 31.58 140.98 33.86 141.75 36.10 C 142.06 36.61 142.68 37.63 142.99 38.14 L 143.39 38.77 C 141.68 37.84 140.02 36.81 138.37 35.77 C 138.57 34.73 138.98 32.66 139.18 31.62 C 139.26 31.20 139.43 30.35 139.51 29.93 Z" />
</g>
<g id="#a2b8ceff">
<path fill="#a2b8ce" opacity="1.00" d=" M 25.71 31.81 C 26.20 31.99 27.17 32.36 27.65 32.54 C 27.78 34.39 27.89 36.25 27.96 38.11 C 27.78 37.65 27.41 36.75 27.22 36.30 C 26.83 35.13 25.98 34.55 24.68 34.57 C 23.88 33.78 23.09 32.99 22.32 32.17 C 22.16 31.99 21.83 31.61 21.67 31.42 C 23.02 31.54 24.37 31.64 25.71 31.81 Z" />
<path fill="#a2b8ce" opacity="1.00" d=" M 47.09 35.96 C 48.62 36.28 50.14 36.75 51.40 37.72 L 51.05 38.24 C 50.36 38.16 48.98 38.00 48.29 37.92 C 47.99 37.43 47.39 36.45 47.09 35.96 Z" />
</g>
<g id="#5d5950fe">
<path fill="#5d5950" opacity="1.00" d=" M 37.05 31.19 C 37.76 31.86 38.45 32.55 39.12 33.27 L 39.16 33.91 C 37.80 34.19 36.45 34.48 35.10 34.78 C 33.92 35.04 32.73 35.28 31.55 35.52 C 31.89 37.70 32.11 39.89 32.23 42.09 L 31.65 41.82 C 31.11 40.11 30.20 37.73 27.96 38.11 C 27.89 36.25 27.78 34.39 27.65 32.54 C 28.02 32.67 28.76 32.93 29.13 33.06 C 31.93 33.42 34.58 32.40 37.05 31.19 Z" />
</g>
<g id="#74848dff">
<path fill="#74848d" opacity="1.00" d=" M 83.21 32.76 C 83.41 32.16 83.81 30.98 84.01 30.39 C 84.26 31.92 84.58 33.45 84.90 34.97 C 85.02 35.45 85.26 36.42 85.37 36.91 C 85.02 36.99 84.30 37.16 83.95 37.24 C 84.30 35.84 83.89 34.76 82.74 34.00 L 83.21 32.76 Z" />
</g>
<g id="#447ac9ff">
<path fill="#447ac9" opacity="1.00" d=" M 183.27 30.98 L 184.23 31.00 C 184.68 31.01 185.56 31.03 186.00 31.04 C 187.96 32.38 189.84 33.82 191.76 35.21 C 192.24 33.87 192.74 32.54 193.22 31.20 C 193.79 31.89 194.36 32.57 194.93 33.26 L 194.71 34.14 C 194.56 34.45 194.26 35.07 194.11 35.39 C 193.85 35.89 193.35 36.89 193.09 37.40 C 187.35 35.14 181.35 36.46 175.98 39.06 C 176.05 39.72 176.19 41.04 176.25 41.71 C 178.14 43.42 180.01 45.15 181.83 46.94 C 177.62 45.30 174.62 41.94 172.06 38.36 C 176.76 36.71 181.53 35.27 186.27 33.70 C 185.27 32.79 184.27 31.89 183.27 30.98 Z" />
</g>
<g id="#4279cbff">
<path fill="#4279cb" opacity="1.00" d=" M 15.25 31.84 L 16.40 31.79 C 16.80 31.93 17.59 32.20 17.99 32.34 C 20.41 33.74 22.73 35.38 25.42 36.24 C 25.87 36.25 26.77 36.28 27.22 36.30 C 27.41 36.75 27.78 37.65 27.96 38.11 L 27.75 38.69 C 27.63 39.01 27.40 39.65 27.29 39.97 C 24.23 38.62 21.29 36.80 17.95 36.27 C 14.42 36.20 11.38 38.37 8.36 39.94 C 10.76 42.69 13.23 45.38 15.68 48.09 C 12.79 46.50 10.22 44.41 8.18 41.81 C 6.36 39.12 2.81 39.09 0.00 38.23 L 0.00 37.89 C 6.20 37.24 12.28 35.81 18.24 34.02 C 17.25 33.29 16.25 32.56 15.25 31.84 Z" />
</g>
<g id="#393737ff">
<path fill="#393737" opacity="1.00" d=" M 39.03 31.84 C 41.74 33.17 44.42 34.56 47.09 35.96 C 47.39 36.45 47.99 37.43 48.29 37.92 C 47.01 37.62 45.73 37.32 44.44 37.04 C 44.09 36.97 43.40 36.84 43.05 36.77 C 40.99 38.22 39.23 40.05 37.52 41.89 L 36.91 41.93 C 35.52 41.73 34.18 41.88 32.88 42.39 L 32.23 42.09 C 32.11 39.89 31.89 37.70 31.55 35.52 C 32.73 35.28 33.92 35.04 35.10 34.78 C 36.46 35.66 37.82 36.52 39.19 37.36 C 39.18 36.50 39.17 34.77 39.16 33.91 L 39.12 33.27 C 39.10 32.91 39.05 32.19 39.03 31.84 Z" />
</g>
<g id="#383534ff">
<path fill="#383534" opacity="1.00" d=" M 95.23 31.94 C 97.65 33.00 100.06 34.09 102.52 35.03 C 102.03 35.43 101.03 36.23 100.53 36.64 L 99.89 36.82 C 99.18 35.96 98.47 35.10 97.75 34.24 C 96.60 35.87 95.44 37.47 94.28 39.08 C 94.33 38.62 94.42 37.69 94.47 37.22 C 94.65 35.85 94.89 34.49 95.10 33.12 C 95.13 32.83 95.19 32.24 95.23 31.94 Z" />
</g>
<g id="#3c3938ff">
<path fill="#3c3938" opacity="1.00" d=" M 208.11 31.53 C 210.15 33.27 212.31 34.87 214.56 36.32 C 214.01 36.18 212.89 35.91 212.34 35.77 C 209.56 36.71 207.34 38.72 204.97 40.35 L 204.45 40.49 C 203.38 40.79 202.32 41.08 201.25 41.37 C 201.21 40.77 201.12 39.58 201.08 38.99 C 200.39 37.67 199.71 36.36 199.04 35.04 C 201.52 35.50 204.00 35.99 206.47 36.51 C 206.84 35.46 207.19 34.41 207.54 33.36 C 207.68 32.90 207.97 31.99 208.11 31.53 Z" />
</g>
<g id="#4479caff">
<path fill="#4479ca" opacity="1.00" d=" M 60.08 38.44 C 65.42 36.48 70.80 34.62 76.14 32.67 C 77.12 33.55 78.07 34.46 79.02 35.38 C 73.56 35.89 68.25 37.31 63.18 39.39 C 65.23 42.04 67.42 44.56 69.61 47.09 C 65.65 45.16 62.67 41.92 60.08 38.44 Z" />
</g>
<g id="#96abc4ff">
<path fill="#96abc4" opacity="1.00" d=" M 157.40 35.76 C 157.64 34.65 157.89 33.54 158.15 32.43 C 159.69 33.39 161.30 34.24 162.95 35.02 L 161.56 35.38 C 160.17 35.52 158.79 35.65 157.40 35.76 Z" />
</g>
<g id="#87a5d0ff">
<path fill="#87a5d0" opacity="1.00" d=" M 162.60 33.68 C 163.62 32.00 165.91 34.80 164.06 35.46 C 163.69 35.02 162.96 34.13 162.60 33.68 Z" />
</g>
<g id="#92aed5ff">
<path fill="#92aed5" opacity="1.00" d=" M 82.74 34.00 C 83.89 34.76 84.30 35.84 83.95 37.24 L 83.54 37.74 C 83.24 37.21 82.64 36.15 82.34 35.62 C 82.44 35.21 82.64 34.40 82.74 34.00 Z" />
<path fill="#92aed5" opacity="1.00" d=" M 194.71 34.14 C 195.11 34.62 195.91 35.60 196.31 36.09 L 195.99 36.96 L 195.45 37.43 C 195.12 36.92 194.44 35.90 194.11 35.39 C 194.26 35.07 194.56 34.45 194.71 34.14 Z" />
</g>
<g id="#98acc3ff">
<path fill="#98acc3" opacity="1.00" d=" M 94.28 39.08 C 95.44 37.47 96.60 35.87 97.75 34.24 C 98.47 35.10 99.18 35.96 99.89 36.82 L 99.27 37.00 C 97.10 37.30 95.78 39.11 94.73 40.86 C 94.36 40.97 93.60 41.20 93.22 41.31 L 93.24 40.32 C 93.25 39.44 93.28 37.68 93.29 36.81 L 94.47 37.22 C 94.42 37.69 94.33 38.62 94.28 39.08 Z" />
</g>
<g id="#9cb4d0ff">
<path fill="#9cb4d0" opacity="1.00" d=" M 103.83 33.99 C 104.75 34.79 105.65 35.62 106.56 36.45 L 105.74 36.70 C 104.00 36.67 102.27 36.62 100.53 36.64 C 101.03 36.23 102.03 35.43 102.52 35.03 C 102.85 34.77 103.51 34.25 103.83 33.99 Z" />
</g>
<g id="#8ba4c3ff">
<path fill="#8ba4c3" opacity="1.00" d=" M 155.02 35.31 C 155.47 35.44 156.37 35.68 156.82 35.81 C 156.04 35.97 154.49 36.30 153.72 36.47 C 152.15 36.73 151.61 37.60 152.11 39.08 C 150.69 39.16 149.28 39.24 147.87 39.31 L 147.02 38.01 C 147.37 37.68 148.08 37.02 148.43 36.70 C 149.38 36.96 150.32 37.25 151.26 37.53 C 151.23 36.85 151.18 35.49 151.15 34.81 C 152.44 34.96 153.74 35.10 155.02 35.31 Z" />
</g>
<g id="#288cd7ff">
<path fill="#288cd7" opacity="1.00" d=" M 136.75 35.90 C 137.16 35.87 137.97 35.80 138.37 35.77 C 140.02 36.81 141.68 37.84 143.39 38.77 C 143.85 38.95 144.75 39.33 145.21 39.51 C 146.02 41.29 146.78 43.09 147.52 44.90 C 145.80 43.78 144.11 42.60 142.52 41.29 C 141.40 40.34 140.29 39.37 139.21 38.37 C 138.36 37.58 137.56 36.73 136.75 35.90 Z" />
</g>
<g id="#9eafc1ff">
<path fill="#9eafc1" opacity="1.00" d=" M 141.75 36.10 C 142.61 35.06 144.02 35.36 145.10 35.81 L 145.27 36.50 C 144.70 36.91 143.56 37.73 142.99 38.14 C 142.68 37.63 142.06 36.61 141.75 36.10 Z" />
</g>
<g id="#849dbbff">
<path fill="#849dbb" opacity="1.00" d=" M 204.97 40.35 C 207.34 38.72 209.56 36.71 212.34 35.77 C 211.94 36.36 211.15 37.54 210.75 38.13 C 209.04 38.18 207.54 39.05 206.49 40.37 C 206.11 40.37 205.35 40.36 204.97 40.35 Z" />
<path fill="#849dbb" opacity="1.00" d=" M 37.52 41.89 C 39.23 40.05 40.99 38.22 43.05 36.77 C 43.40 36.84 44.09 36.97 44.44 37.04 C 43.97 37.56 43.03 38.59 42.56 39.11 C 40.79 39.31 39.26 40.31 38.34 41.83 L 37.52 41.89 Z" />
</g>
<g id="#a4bad0ff">
<path fill="#a4bad0" opacity="1.00" d=" M 215.21 35.20 C 216.31 35.19 217.41 35.26 218.49 35.50 C 218.74 35.80 219.24 36.40 219.49 36.70 L 219.23 37.32 C 218.53 37.21 217.13 36.99 216.43 36.88 C 216.12 36.46 215.52 35.62 215.21 35.20 Z" />
</g>
<g id="#2a8ad7ff">
<path fill="#2a8ad7" opacity="1.00" d=" M 82.24 40.04 C 82.24 38.57 82.23 37.09 82.34 35.62 C 82.64 36.15 83.24 37.21 83.54 37.74 C 84.27 39.17 85.76 39.84 87.20 40.33 L 87.83 40.73 L 88.38 41.25 C 89.49 42.35 90.55 43.51 91.65 44.63 C 89.82 43.81 88.00 42.95 86.21 42.04 C 84.89 41.38 83.56 40.71 82.24 40.04 Z" />
<path fill="#2a8ad7" opacity="1.00" d=" M 193.09 37.40 C 193.35 36.89 193.85 35.89 194.11 35.39 C 194.44 35.90 195.12 36.92 195.45 37.43 C 196.42 38.97 197.95 39.96 199.56 40.74 L 199.89 41.04 L 200.46 41.58 C 201.52 42.60 202.55 43.65 203.61 44.67 C 201.81 43.90 200.01 43.13 198.30 42.18 C 197.24 41.35 196.22 40.48 195.24 39.57 C 194.51 38.86 193.80 38.13 193.09 37.40 Z" />
</g>
<g id="#268dd9ff">
<path fill="#268dd9" opacity="1.00" d=" M 153.72 36.47 C 154.49 36.30 156.04 35.97 156.82 35.81 L 157.40 35.76 C 158.79 35.65 160.17 35.52 161.56 35.38 C 163.04 35.48 164.52 35.61 166.00 35.78 C 165.31 36.87 164.63 37.96 163.95 39.05 C 162.29 38.69 160.63 38.27 158.93 38.23 L 158.39 38.43 C 155.46 39.52 152.54 40.65 149.60 41.72 C 149.01 40.92 148.43 40.12 147.87 39.31 C 149.28 39.24 150.69 39.16 152.11 39.08 C 153.75 38.94 154.29 38.07 153.72 36.47 Z" />
<path fill="#268dd9" opacity="1.00" d=" M 99.27 37.00 L 99.89 36.82 L 100.53 36.64 C 102.27 36.62 104.00 36.67 105.74 36.70 C 107.35 36.96 108.97 37.26 110.57 37.58 C 108.09 38.33 105.56 38.91 103.04 39.49 C 99.67 40.30 96.44 41.59 93.20 42.79 C 93.20 42.42 93.22 41.68 93.22 41.31 C 93.60 41.20 94.36 40.97 94.73 40.86 C 96.91 40.63 99.07 39.39 99.27 37.00 Z" />
</g>
<g id="#6b849afe">
<path fill="#6b849a" opacity="1.00" d=" M 83.95 37.24 C 84.30 37.16 85.02 36.99 85.37 36.91 C 85.78 37.27 86.60 37.98 87.01 38.34 C 87.06 38.84 87.15 39.83 87.20 40.33 C 85.76 39.84 84.27 39.17 83.54 37.74 L 83.95 37.24 Z" />
<path fill="#6b849a" opacity="1.00" d=" M 195.99 36.96 C 198.31 36.51 199.19 38.94 199.56 40.74 C 197.95 39.96 196.42 38.97 195.45 37.43 L 195.99 36.96 Z" />
<path fill="#6b849a" opacity="1.00" d=" M 27.96 38.11 C 30.20 37.73 31.11 40.11 31.65 41.82 C 30.06 41.24 28.24 40.50 27.75 38.69 L 27.96 38.11 Z" />
</g>
<g id="#504c43ff">
<path fill="#504c43" opacity="1.00" d=" M 87.85 36.84 C 88.28 37.13 89.14 37.71 89.58 37.99 C 89.13 38.99 88.55 39.90 87.83 40.73 L 87.20 40.33 C 87.15 39.83 87.06 38.84 87.01 38.34 C 87.22 37.97 87.64 37.22 87.85 36.84 Z" />
</g>
<g id="#4175befe">
<path fill="#4175be" opacity="1.00" d=" M 94.73 40.86 C 95.78 39.11 97.10 37.30 99.27 37.00 C 99.07 39.39 96.91 40.63 94.73 40.86 Z" />
</g>
<g id="#787e82ff">
<path fill="#787e82" opacity="1.00" d=" M 142.99 38.14 C 143.56 37.73 144.70 36.91 145.27 36.50 C 145.40 37.14 145.65 38.41 145.78 39.04 L 145.21 39.51 C 144.75 39.33 143.85 38.95 143.39 38.77 L 142.99 38.14 Z" />
</g>
<g id="#3e6dc1ff">
<path fill="#3e6dc1" opacity="1.00" d=" M 152.11 39.08 C 151.61 37.60 152.15 36.73 153.72 36.47 C 154.29 38.07 153.75 38.94 152.11 39.08 Z" />
<path fill="#3e6dc1" opacity="1.00" d=" M 32.88 42.39 C 34.18 41.88 35.52 41.73 36.91 41.93 C 36.14 43.64 34.03 43.83 32.88 42.39 Z" />
</g>
<g id="#2a8fd9ff">
<path fill="#2a8fd9" opacity="1.00" d=" M 210.75 38.13 C 211.15 37.54 211.94 36.36 212.34 35.77 C 212.89 35.91 214.01 36.18 214.56 36.32 C 215.03 36.46 215.96 36.74 216.43 36.88 C 217.13 36.99 218.53 37.21 219.23 37.32 C 220.04 37.37 221.66 37.48 222.47 37.53 C 220.03 38.32 217.54 38.92 215.05 39.50 C 211.74 40.30 208.57 41.53 205.36 42.64 C 205.13 42.10 204.68 41.03 204.45 40.49 L 204.97 40.35 C 205.35 40.36 206.11 40.37 206.49 40.37 C 208.34 40.97 210.20 39.99 210.75 38.13 Z" />
</g>
<g id="#4377caff">
<path fill="#4377ca" opacity="1.00" d=" M 158.39 38.43 L 158.93 38.23 C 159.77 40.56 160.69 42.85 161.67 45.12 C 157.11 47.78 152.18 46.38 147.52 44.90 C 146.78 43.09 146.02 41.29 145.21 39.51 L 145.78 39.04 C 146.09 38.78 146.71 38.27 147.02 38.01 L 147.87 39.31 C 148.43 40.12 149.01 40.92 149.60 41.72 C 150.61 43.05 151.65 44.37 152.69 45.69 C 154.72 43.37 156.44 40.81 158.39 38.43 Z" />
</g>
<g id="#3772c3ff">
<path fill="#3772c3" opacity="1.00" d=" M 206.49 40.37 C 207.54 39.05 209.04 38.18 210.75 38.13 C 210.20 39.99 208.34 40.97 206.49 40.37 Z" />
<path fill="#3772c3" opacity="1.00" d=" M 38.34 41.83 C 39.26 40.31 40.79 39.31 42.56 39.11 C 41.96 40.92 40.27 42.13 38.34 41.83 Z" />
</g>
<g id="#4075c8ff">
<path fill="#4075c8" opacity="1.00" d=" M 93.20 42.79 C 96.44 41.59 99.67 40.30 103.04 39.49 C 103.24 41.23 103.43 42.97 103.63 44.71 C 108.00 44.89 112.37 45.25 116.75 45.30 C 116.21 46.53 115.68 47.75 115.15 48.98 C 108.05 44.03 98.82 49.86 91.65 44.63 C 90.55 43.51 89.49 42.35 88.38 41.25 C 88.89 41.20 89.89 41.10 90.40 41.06 C 91.11 40.87 92.53 40.50 93.24 40.32 L 93.22 41.31 C 93.22 41.68 93.20 42.42 93.20 42.79 Z" />
</g>
<g id="#4378cbff">
<path fill="#4378cb" opacity="1.00" d=" M 135.99 46.67 C 136.98 43.87 138.10 41.12 139.21 38.37 C 140.29 39.37 141.40 40.34 142.52 41.29 C 140.60 43.38 138.35 45.11 135.99 46.67 Z" />
<path fill="#4378cb" opacity="1.00" d=" M 26.85 41.12 C 27.96 41.70 29.07 42.29 30.20 42.85 C 28.16 44.67 26.12 46.49 24.10 48.33 C 24.20 48.72 24.41 49.49 24.52 49.87 C 27.45 51.61 30.18 53.68 32.68 56.00 L 31.64 56.00 C 29.88 54.87 28.24 53.53 26.31 52.70 C 22.63 52.12 19.72 54.45 16.70 56.00 L 15.68 56.00 C 17.76 54.28 19.72 52.41 21.73 50.61 C 21.41 49.10 21.08 47.59 20.75 46.08 C 22.92 44.60 25.11 43.10 26.85 41.12 Z" />
</g>
<g id="#4275c6ff">
<path fill="#4275c6" opacity="1.00" d=" M 205.36 42.64 C 208.57 41.53 211.74 40.30 215.05 39.50 C 215.23 41.19 215.40 42.88 215.59 44.57 C 218.39 44.77 221.18 44.96 224.00 45.16 L 224.00 45.84 C 217.21 46.96 209.90 48.54 203.61 44.67 C 202.55 43.65 201.52 42.60 200.46 41.58 L 201.25 41.37 C 202.32 41.08 203.38 40.79 204.45 40.49 C 204.68 41.03 205.13 42.10 205.36 42.64 Z" />
</g>
<g id="#4175c8ff">
<path fill="#4175c8" opacity="1.00" d=" M 34.76 44.90 C 38.77 43.21 42.77 41.45 46.98 40.31 C 46.64 41.65 46.31 42.98 45.96 44.31 C 49.34 45.22 52.74 45.99 56.16 46.74 C 51.92 46.99 47.71 47.47 43.49 47.84 C 40.43 47.41 37.62 45.98 34.76 44.90 Z" />
</g>
<g id="#4278cbff">
<path fill="#4278cb" opacity="1.00" d=" M 75.41 48.67 C 77.96 46.02 80.14 43.05 82.24 40.04 C 83.56 40.71 84.89 41.38 86.21 42.04 C 83.72 44.21 81.22 46.37 78.73 48.53 C 83.50 51.17 88.25 53.90 93.30 56.00 L 83.35 56.00 C 84.80 55.51 86.25 55.01 87.69 54.48 C 85.26 53.30 82.89 51.47 80.09 51.43 C 77.25 51.93 74.75 53.45 72.14 54.59 C 73.98 52.88 75.84 51.18 77.69 49.47 C 77.12 49.27 75.98 48.87 75.41 48.67 Z" />
<path fill="#4278cb" opacity="1.00" d=" M 187.34 48.62 C 190.15 45.76 192.69 42.65 195.24 39.57 C 196.22 40.48 197.24 41.35 198.30 42.18 C 195.79 44.32 193.25 46.42 190.73 48.54 C 195.50 51.17 200.25 53.90 205.30 56.00 L 195.35 56.00 C 196.80 55.51 198.25 55.01 199.69 54.48 C 197.25 53.30 194.89 51.47 192.09 51.43 C 189.25 51.93 186.74 53.45 184.14 54.59 C 185.99 52.87 187.85 51.17 189.71 49.46 C 189.12 49.25 187.93 48.83 187.34 48.62 Z" />
</g>
<g id="#4575cbff">
<path fill="#4575cb" opacity="1.00" d=" M 163.96 44.23 C 164.58 43.18 166.42 43.18 167.04 44.23 C 167.35 46.00 163.65 46.00 163.96 44.23 Z" />
</g>
<g id="#427acbff">
<path fill="#427acb" opacity="1.00" d=" M 2.86 47.82 C 4.52 47.39 6.18 47.00 7.85 46.64 C 6.83 48.00 5.78 49.34 4.73 50.68 C 6.85 52.14 9.00 53.54 11.13 54.98 C 8.39 54.74 5.65 54.47 2.92 54.22 C 3.06 52.09 3.01 49.95 2.86 47.82 Z" />
</g>
<g id="#4279caff">
<path fill="#4279ca" opacity="1.00" d=" M 113.52 51.40 C 116.93 49.61 120.47 50.78 123.44 52.85 C 120.12 52.50 116.81 51.93 113.52 51.40 Z" />
</g>
</svg>
