<?xml version="1.0" encoding="UTF-8" ?>
<!DOCTYPE svg PUBLIC "-//W3C//DTD SVG 1.1//EN" "http://www.w3.org/Graphics/SVG/1.1/DTD/svg11.dtd">
<svg width="224pt" height="56pt" viewBox="0 0 224 56" version="1.1" xmlns="http://www.w3.org/2000/svg">
<g id="#89b261ff">
<path fill="#89b261" opacity="1.00" d=" M 0.00 0.00 L 5.09 0.00 C 4.38 4.12 4.16 8.31 3.58 12.45 C 4.92 11.60 6.27 10.75 7.68 10.01 C 6.94 11.36 6.19 12.70 5.39 14.02 L 5.00 14.53 C 3.84 14.42 2.69 14.48 1.56 14.74 C 2.97 10.67 3.19 6.29 1.62 2.23 C 1.22 3.10 0.41 4.83 0.00 5.70 L 0.00 0.00 Z" />
</g>
<g id="#65925eff">
<path fill="#65925e" opacity="1.00" d=" M 5.09 0.00 L 5.96 0.00 C 7.39 1.14 8.79 2.32 10.23 3.44 C 9.65 2.28 9.04 1.14 8.42 0.00 L 10.43 0.00 C 11.24 2.01 11.96 4.05 12.66 6.10 C 10.18 5.31 7.66 4.67 5.12 4.09 C 6.62 5.82 8.18 7.50 9.81 9.11 C 9.09 9.39 8.38 9.69 7.68 10.01 C 6.27 10.75 4.92 11.60 3.58 12.45 C 4.16 8.31 4.38 4.12 5.09 0.00 Z" />
<path fill="#65925e" opacity="1.00" d=" M 61.09 0.00 L 61.96 0.00 C 63.38 1.14 64.79 2.32 66.23 3.44 C 65.65 2.28 65.04 1.14 64.42 0.00 L 66.43 0.00 C 67.24 2.01 67.96 4.05 68.66 6.10 C 66.18 5.31 63.66 4.67 61.12 4.09 C 62.61 5.82 64.17 7.49 65.80 9.10 C 65.05 9.38 64.31 9.68 63.59 10.01 C 62.20 10.75 60.90 11.62 59.58 12.46 C 60.16 8.32 60.37 4.13 61.09 0.00 Z" />
<path fill="#65925e" opacity="1.00" d=" M 117.09 0.00 L 117.96 0.00 C 119.38 1.14 120.79 2.32 122.23 3.44 C 121.65 2.28 121.04 1.14 120.42 -0.00 L 122.43 0.00 C 123.24 2.01 123.96 4.05 124.66 6.10 C 122.18 5.31 119.66 4.67 117.12 4.09 C 118.61 5.82 120.17 7.49 121.80 9.10 C 121.05 9.38 120.31 9.68 119.58 10.01 C 118.20 10.75 116.90 11.62 115.58 12.46 C 116.16 8.32 116.37 4.13 117.09 0.00 Z" />
<path fill="#65925e" opacity="1.00" d=" M 173.09 0.00 L 173.96 0.00 C 175.38 1.14 176.79 2.32 178.23 3.44 C 177.64 2.28 177.04 1.14 176.42 -0.00 L 178.43 0.00 C 179.24 2.01 179.95 4.05 180.66 6.10 C 178.18 5.31 175.66 4.67 173.12 4.09 C 174.61 5.82 176.17 7.49 177.80 9.10 C 177.05 9.38 176.32 9.68 175.59 10.01 C 174.21 10.75 172.90 11.62 171.58 12.46 C 172.16 8.31 172.37 4.13 173.09 0.00 Z" />
</g>
<g id="#87b05cff">
<path fill="#87b05c" opacity="1.00" d=" M 5.96 0.00 L 8.42 0.00 C 9.04 1.14 9.65 2.28 10.23 3.44 C 8.79 2.32 7.39 1.14 5.96 0.00 Z" />
<path fill="#87b05c" opacity="1.00" d=" M 61.96 0.00 L 64.42 0.00 C 65.04 1.14 65.65 2.28 66.23 3.44 C 64.79 2.32 63.38 1.14 61.96 0.00 Z" />
<path fill="#87b05c" opacity="1.00" d=" M 117.96 0.00 L 120.42 0.00 C 121.04 1.14 121.65 2.28 122.23 3.44 C 120.79 2.32 119.38 1.14 117.96 0.00 Z" />
<path fill="#87b05c" opacity="1.00" d=" M 173.96 0.00 L 176.42 0.00 C 177.04 1.14 177.64 2.28 178.23 3.44 C 176.79 2.32 175.38 1.14 173.96 0.00 Z" />
</g>
<g id="#84ab5bff">
<path fill="#84ab5b" opacity="1.00" d=" M 10.43 0.00 L 16.10 0.00 C 17.53 0.36 20.39 1.07 21.82 1.43 C 22.92 0.95 24.02 0.47 25.13 -0.00 L 27.52 0.00 C 26.85 1.17 26.37 2.43 25.95 3.71 C 25.66 3.93 25.07 4.35 24.78 4.57 C 23.26 5.32 21.69 5.98 20.13 6.65 C 19.72 5.67 18.91 3.71 18.51 2.73 C 16.67 4.39 14.86 6.09 13.25 7.98 C 12.09 8.31 10.95 8.70 9.81 9.11 C 8.18 7.50 6.62 5.82 5.12 4.09 C 7.66 4.67 10.18 5.31 12.66 6.10 C 11.96 4.05 11.24 2.01 10.43 0.00 Z" />
<path fill="#84ab5b" opacity="1.00" d=" M 66.43 0.00 L 72.10 0.00 C 73.53 0.36 76.39 1.07 77.82 1.43 C 78.92 0.95 80.02 0.47 81.13 -0.00 L 83.52 0.00 C 82.85 1.17 82.36 2.43 81.94 3.71 C 81.65 3.93 81.07 4.36 80.79 4.58 C 79.26 5.32 77.69 5.98 76.12 6.64 C 75.72 5.67 74.91 3.71 74.51 2.73 C 72.67 4.39 70.86 6.09 69.25 7.98 C 68.09 8.31 66.94 8.70 65.80 9.10 C 64.17 7.49 62.61 5.82 61.12 4.09 C 63.66 4.67 66.18 5.31 68.66 6.10 C 67.96 4.05 67.24 2.01 66.43 0.00 Z" />
<path fill="#84ab5b" opacity="1.00" d=" M 122.43 0.00 L 128.10 0.00 C 129.53 0.36 132.39 1.07 133.82 1.43 C 134.92 0.95 136.02 0.47 137.13 -0.00 L 139.52 0.00 C 138.85 1.17 138.36 2.43 137.94 3.71 C 137.65 3.93 137.07 4.36 136.79 4.57 C 135.26 5.32 133.69 5.98 132.12 6.64 C 131.72 5.67 130.91 3.71 130.51 2.73 C 128.67 4.39 126.86 6.09 125.25 7.98 C 124.09 8.32 122.94 8.70 121.80 9.10 C 120.17 7.49 118.61 5.82 117.12 4.09 C 119.66 4.67 122.18 5.31 124.66 6.10 C 123.96 4.05 123.24 2.01 122.43 0.00 Z" />
<path fill="#84ab5b" opacity="1.00" d=" M 178.43 0.00 L 184.10 0.00 C 185.53 0.36 188.39 1.07 189.82 1.43 C 190.92 0.95 192.02 0.47 193.13 0.00 L 195.52 0.00 C 194.85 1.17 194.36 2.43 193.95 3.71 C 193.66 3.93 193.08 4.36 192.79 4.57 C 191.26 5.32 189.69 5.98 188.12 6.64 C 187.72 5.67 186.91 3.71 186.51 2.73 C 184.67 4.39 182.86 6.09 181.25 7.98 C 180.09 8.31 178.94 8.70 177.80 9.10 C 176.17 7.49 174.61 5.82 173.12 4.09 C 175.66 4.67 178.18 5.31 180.66 6.10 C 179.95 4.05 179.24 2.01 178.43 0.00 Z" />
</g>
<g id="#729e59fe">
<path fill="#729e59" opacity="1.00" d=" M 16.10 0.00 L 25.13 0.00 C 24.02 0.47 22.92 0.95 21.82 1.43 C 20.39 1.07 17.53 0.36 16.10 0.00 Z" />
<path fill="#729e59" opacity="1.00" d=" M 72.10 0.00 L 81.13 0.00 C 80.02 0.47 78.92 0.95 77.82 1.43 C 76.39 1.07 73.53 0.36 72.10 0.00 Z" />
<path fill="#729e59" opacity="1.00" d=" M 128.10 0.00 L 137.13 0.00 C 136.02 0.47 134.92 0.95 133.82 1.43 C 132.39 1.07 129.53 0.36 128.10 0.00 Z" />
<path fill="#729e59" opacity="1.00" d=" M 184.10 0.00 L 193.13 0.00 C 192.02 0.47 190.92 0.95 189.82 1.43 C 188.39 1.07 185.53 0.36 184.10 0.00 Z" />
</g>
<g id="#6a9858fe">
<path fill="#6a9858" opacity="1.00" d=" M 27.52 0.00 L 27.97 0.00 C 28.45 1.62 28.40 3.36 27.87 4.96 C 27.39 4.65 26.43 4.02 25.95 3.71 C 26.37 2.43 26.85 1.17 27.52 0.00 Z" />
<path fill="#6a9858" opacity="1.00" d=" M 83.52 0.00 L 83.97 0.00 C 84.45 1.61 84.40 3.35 83.87 4.94 C 83.39 4.63 82.42 4.02 81.94 3.71 C 82.36 2.43 82.85 1.17 83.52 0.00 Z" />
<path fill="#6a9858" opacity="1.00" d=" M 139.52 0.00 L 139.97 0.00 C 140.45 1.61 140.40 3.35 139.87 4.94 C 139.39 4.63 138.42 4.02 137.94 3.71 C 138.36 2.43 138.85 1.17 139.52 0.00 Z" />
<path fill="#6a9858" opacity="1.00" d=" M 195.52 0.00 L 195.97 0.00 C 196.45 1.61 196.40 3.35 195.88 4.94 C 195.40 4.64 194.43 4.02 193.95 3.71 C 194.36 2.43 194.85 1.17 195.52 0.00 Z" />
</g>
<g id="#83ae5eff">
<path fill="#83ae5e" opacity="1.00" d=" M 27.97 0.00 L 32.65 0.00 C 33.19 0.47 34.27 1.42 34.81 1.90 C 37.41 1.96 40.02 2.06 42.62 2.20 C 42.53 1.47 42.44 0.73 42.35 0.00 L 49.65 0.00 C 50.72 2.02 51.73 4.07 52.82 6.08 C 49.42 6.22 46.02 6.47 42.61 6.48 C 41.57 6.31 40.52 6.14 39.48 5.94 L 38.86 5.65 C 38.75 5.45 38.53 5.07 38.42 4.87 C 38.00 2.36 34.26 3.33 35.96 5.62 C 34.15 5.45 32.34 5.23 30.53 5.05 C 31.16 3.97 32.28 2.10 30.82 1.20 C 28.76 1.06 29.42 3.88 30.03 5.01 C 29.49 5.00 28.41 4.97 27.87 4.96 C 28.40 3.36 28.45 1.62 27.97 0.00 Z" />
<path fill="#83ae5e" opacity="1.00" d=" M 83.97 0.00 L 88.65 0.00 C 89.19 0.47 90.27 1.42 90.81 1.90 C 93.41 1.96 96.02 2.06 98.62 2.20 C 98.53 1.47 98.44 0.73 98.35 0.00 L 105.65 0.00 C 106.72 2.02 107.73 4.08 108.83 6.10 C 105.42 6.23 102.02 6.49 98.61 6.39 C 97.67 6.19 96.75 5.96 95.84 5.69 C 95.45 5.45 94.67 4.96 94.29 4.72 C 93.18 2.36 89.88 3.87 92.37 5.76 C 90.41 5.56 88.47 5.28 86.52 5.06 C 87.15 3.98 88.28 2.10 86.82 1.19 C 84.75 1.06 85.43 3.88 86.03 5.02 C 85.49 5.00 84.41 4.96 83.87 4.94 C 84.40 3.35 84.45 1.61 83.97 0.00 Z" />
<path fill="#83ae5e" opacity="1.00" d=" M 139.97 0.00 L 144.65 0.00 C 145.19 0.47 146.27 1.42 146.81 1.90 C 149.41 1.96 152.02 2.06 154.62 2.20 C 154.53 1.47 154.44 0.73 154.35 0.00 L 161.65 0.00 C 162.72 2.02 163.73 4.08 164.82 6.09 C 161.42 6.23 158.02 6.49 154.61 6.39 C 153.67 6.19 152.74 5.97 151.83 5.70 C 151.44 5.46 150.67 4.97 150.28 4.73 C 149.18 2.36 145.88 3.86 148.36 5.76 C 146.40 5.57 144.47 5.28 142.52 5.06 C 143.15 3.98 144.28 2.10 142.82 1.19 C 140.75 1.06 141.43 3.88 142.02 5.02 C 141.49 5.00 140.41 4.96 139.87 4.94 C 140.40 3.35 140.45 1.61 139.97 0.00 Z" />
</g>
<g id="#709c57ff">
<path fill="#709c57" opacity="1.00" d=" M 32.65 0.00 L 42.35 0.00 C 42.44 0.73 42.53 1.47 42.62 2.20 C 40.02 2.06 37.41 1.96 34.81 1.90 C 34.27 1.42 33.19 0.47 32.65 0.00 Z" />
<path fill="#709c57" opacity="1.00" d=" M 88.65 0.00 L 98.35 0.00 C 98.44 0.73 98.53 1.47 98.62 2.20 C 96.02 2.06 93.41 1.96 90.81 1.90 C 90.27 1.42 89.19 0.47 88.65 0.00 Z" />
<path fill="#709c57" opacity="1.00" d=" M 144.65 0.00 L 154.35 0.00 C 154.44 0.73 154.53 1.47 154.62 2.20 C 152.02 2.06 149.41 1.96 146.81 1.90 C 146.27 1.42 145.19 0.47 144.65 0.00 Z" />
<path fill="#709c57" opacity="1.00" d=" M 200.65 0.00 L 210.35 0.00 C 210.44 0.73 210.53 1.47 210.61 2.20 C 208.01 2.06 205.41 1.96 202.81 1.90 C 202.27 1.42 201.19 0.47 200.65 0.00 Z" />
</g>
<g id="#659764ff">
<path fill="#659764" opacity="1.00" d=" M 49.65 0.00 L 51.38 0.00 C 53.35 1.22 54.47 3.25 55.34 5.32 C 54.51 5.63 53.67 5.88 52.82 6.08 C 51.73 4.07 50.72 2.02 49.65 0.00 Z" />
<path fill="#659764" opacity="1.00" d=" M 105.65 0.00 L 107.38 0.00 C 109.35 1.22 110.46 3.25 111.34 5.32 C 110.51 5.62 109.68 5.89 108.83 6.10 C 107.73 4.08 106.72 2.02 105.65 0.00 Z" />
<path fill="#659764" opacity="1.00" d=" M 161.65 0.00 L 163.38 0.00 C 165.35 1.22 166.46 3.25 167.34 5.32 C 166.52 5.62 165.68 5.89 164.82 6.09 C 163.73 4.08 162.72 2.02 161.65 0.00 Z" />
<path fill="#659764" opacity="1.00" d=" M 217.67 0.00 L 219.42 0.00 C 221.48 1.45 222.53 3.74 223.73 5.85 C 222.73 5.86 221.73 5.90 220.73 5.94 C 219.68 3.98 218.69 1.98 217.67 0.00 Z" />
</g>
<g id="#89b362ff">
<path fill="#89b362" opacity="1.00" d=" M 51.38 0.00 L 61.09 0.00 C 60.37 4.13 60.16 8.32 59.58 12.46 C 60.90 11.62 62.20 10.75 63.59 10.01 C 62.85 11.32 62.13 12.64 61.38 13.94 L 61.08 14.46 C 59.97 14.46 58.89 14.59 57.81 14.85 C 57.46 13.41 57.10 11.97 56.80 10.52 C 56.67 9.77 56.42 8.27 56.29 7.52 C 56.65 8.46 57.04 9.38 57.42 10.31 C 58.25 9.82 59.08 9.34 59.91 8.85 C 59.33 7.09 58.72 5.34 58.11 3.59 C 57.31 4.11 56.51 4.62 55.70 5.12 L 55.34 5.32 C 54.47 3.25 53.35 1.22 51.38 0.00 Z" />
<path fill="#89b362" opacity="1.00" d=" M 107.38 0.00 L 117.09 0.00 C 116.37 4.13 116.16 8.32 115.58 12.46 C 116.90 11.62 118.20 10.75 119.58 10.01 C 118.86 11.33 118.13 12.64 117.39 13.94 L 117.09 14.46 C 115.98 14.46 114.89 14.59 113.82 14.85 C 113.47 13.41 113.10 11.98 112.81 10.52 C 112.68 9.77 112.42 8.27 112.29 7.52 C 112.65 8.46 113.04 9.38 113.42 10.31 C 114.25 9.82 115.08 9.34 115.91 8.85 C 115.33 7.10 114.72 5.35 114.12 3.60 C 113.31 4.11 112.50 4.62 111.70 5.12 L 111.34 5.32 C 110.46 3.25 109.35 1.22 107.38 0.00 Z" />
<path fill="#89b362" opacity="1.00" d=" M 163.38 0.00 L 173.09 0.00 C 172.37 4.13 172.16 8.31 171.58 12.46 C 172.90 11.62 174.21 10.75 175.59 10.01 C 174.85 11.32 174.13 12.64 173.38 13.94 L 173.07 14.46 C 171.96 14.46 170.87 14.59 169.80 14.84 C 169.42 13.40 169.03 11.96 168.72 10.51 C 168.60 9.76 168.37 8.27 168.26 7.52 C 168.63 8.45 169.04 9.38 169.43 10.31 C 170.26 9.82 171.08 9.34 171.91 8.85 C 171.33 7.09 170.72 5.35 170.11 3.60 C 169.32 4.11 168.51 4.62 167.71 5.12 L 167.34 5.32 C 166.46 3.25 165.35 1.22 163.38 0.00 Z" />
</g>
<g id="#82ad5eff">
<path fill="#82ad5e" opacity="1.00" d=" M 195.97 0.00 L 200.65 0.00 C 201.19 0.47 202.27 1.42 202.81 1.90 C 205.41 1.96 208.01 2.06 210.61 2.20 C 210.53 1.47 210.44 0.73 210.35 0.00 L 217.67 0.00 C 218.69 1.98 219.68 3.98 220.73 5.94 C 217.35 6.03 214.00 6.33 210.62 6.35 C 209.66 6.20 208.69 6.04 207.73 5.88 C 207.04 5.76 206.35 5.65 205.66 5.56 C 203.29 5.30 200.93 5.08 198.56 4.90 C 199.21 3.87 200.32 1.99 198.82 1.16 C 196.76 1.00 197.37 3.77 198.05 4.88 C 197.51 4.90 196.42 4.93 195.88 4.94 C 196.40 3.35 196.45 1.61 195.97 0.00 Z" />
</g>
<g id="#8ab460ff">
<path fill="#8ab460" opacity="1.00" d=" M 219.42 0.00 L 224.00 0.00 L 224.00 5.86 L 223.73 5.85 C 222.53 3.74 221.48 1.45 219.42 0.00 Z" />
</g>
<g id="#649560ff">
<path fill="#649560" opacity="1.00" d=" M 30.03 5.01 C 29.42 3.88 28.76 1.06 30.82 1.20 C 32.28 2.10 31.16 3.97 30.53 5.05 L 30.03 5.01 Z" />
<path fill="#649560" opacity="1.00" d=" M 86.03 5.02 C 85.43 3.88 84.75 1.06 86.82 1.19 C 88.28 2.10 87.15 3.98 86.52 5.06 L 86.03 5.02 Z" />
<path fill="#649560" opacity="1.00" d=" M 142.02 5.02 C 141.43 3.88 140.75 1.06 142.82 1.19 C 144.28 2.10 143.15 3.98 142.52 5.06 L 142.02 5.02 Z" />
<path fill="#649560" opacity="1.00" d=" M 198.05 4.88 C 197.37 3.77 196.76 1.00 198.82 1.16 C 200.32 1.99 199.21 3.87 198.56 4.90 L 198.05 4.88 Z" />
</g>
<g id="#6c9b5ffe">
<path fill="#6c9b5f" opacity="1.00" d=" M 1.62 2.23 C 3.19 6.29 2.97 10.67 1.56 14.74 C 1.23 15.69 0.94 16.66 0.70 17.65 C 0.53 18.35 0.18 19.76 0.00 20.47 L 0.00 9.69 C 2.28 10.79 2.28 6.88 0.00 8.08 L 0.00 5.70 C 0.41 4.83 1.22 3.10 1.62 2.23 Z" />
</g>
<g id="#608660fe">
<path fill="#608660" opacity="1.00" d=" M 13.25 7.98 C 14.86 6.09 16.67 4.39 18.51 2.73 C 18.91 3.71 19.72 5.67 20.13 6.65 C 17.82 7.02 15.52 7.41 13.25 7.98 Z" />
<path fill="#608660" opacity="1.00" d=" M 69.25 7.98 C 70.86 6.09 72.67 4.39 74.51 2.73 C 74.91 3.71 75.72 5.67 76.12 6.64 C 73.82 7.02 71.52 7.41 69.25 7.98 Z" />
<path fill="#608660" opacity="1.00" d=" M 125.25 7.98 C 126.86 6.09 128.67 4.39 130.51 2.73 C 130.91 3.71 131.72 5.67 132.12 6.64 C 129.82 7.02 127.52 7.41 125.25 7.98 Z" />
<path fill="#608660" opacity="1.00" d=" M 181.25 7.98 C 182.86 6.09 184.67 4.39 186.51 2.73 C 186.91 3.71 187.72 5.67 188.12 6.64 C 185.82 7.02 183.52 7.41 181.25 7.98 Z" />
</g>
<g id="#679865ff">
<path fill="#679865" opacity="1.00" d=" M 35.96 5.62 C 34.26 3.33 38.00 2.36 38.42 4.87 C 37.81 5.06 36.58 5.44 35.96 5.62 Z" />
<path fill="#679865" opacity="1.00" d=" M 92.37 5.76 C 89.88 3.87 93.18 2.36 94.29 4.72 L 94.28 5.50 C 93.80 5.56 92.85 5.69 92.37 5.76 Z" />
<path fill="#679865" opacity="1.00" d=" M 148.36 5.76 C 145.88 3.86 149.18 2.36 150.28 4.73 L 150.26 5.51 C 149.79 5.57 148.83 5.70 148.36 5.76 Z" />
</g>
<g id="#6d9b5cff">
<path fill="#6d9b5c" opacity="1.00" d=" M 55.70 5.12 C 56.51 4.62 57.31 4.11 58.11 3.59 C 58.72 5.34 59.33 7.09 59.91 8.85 C 59.08 9.34 58.25 9.82 57.42 10.31 C 57.04 9.38 56.65 8.46 56.29 7.52 C 56.14 6.92 55.85 5.72 55.70 5.12 Z" />
<path fill="#6d9b5c" opacity="1.00" d=" M 111.70 5.12 C 112.50 4.62 113.31 4.11 114.12 3.60 C 114.72 5.35 115.33 7.10 115.91 8.85 C 115.08 9.34 114.25 9.82 113.42 10.31 C 113.04 9.38 112.65 8.46 112.29 7.52 C 112.14 6.92 111.85 5.72 111.70 5.12 Z" />
<path fill="#6d9b5c" opacity="1.00" d=" M 167.71 5.12 C 168.51 4.62 169.32 4.11 170.11 3.60 C 170.72 5.35 171.33 7.09 171.91 8.85 C 171.08 9.34 170.26 9.82 169.43 10.31 C 169.04 9.38 168.63 8.45 168.26 7.52 C 168.12 6.92 167.85 5.72 167.71 5.12 Z" />
</g>
<g id="#565249ff">
<path fill="#565249" opacity="1.00" d=" M 24.78 4.57 C 25.07 4.35 25.66 3.93 25.95 3.71 C 26.43 4.02 27.39 4.65 27.87 4.96 C 27.57 5.21 26.96 5.70 26.65 5.95 C 26.18 5.60 25.25 4.91 24.78 4.57 Z" />
<path fill="#565249" opacity="1.00" d=" M 80.79 4.58 C 81.07 4.36 81.65 3.93 81.94 3.71 C 82.42 4.02 83.39 4.63 83.87 4.94 C 83.57 5.19 82.96 5.69 82.66 5.94 C 82.19 5.60 81.25 4.92 80.79 4.58 Z" />
<path fill="#565249" opacity="1.00" d=" M 136.79 4.57 C 137.07 4.36 137.65 3.93 137.94 3.71 C 138.42 4.02 139.39 4.63 139.87 4.94 C 139.57 5.19 138.96 5.69 138.66 5.94 C 138.19 5.60 137.25 4.92 136.79 4.57 Z" />
<path fill="#565249" opacity="1.00" d=" M 192.79 4.57 C 193.08 4.36 193.66 3.93 193.95 3.71 C 194.43 4.02 195.40 4.64 195.88 4.94 C 195.57 5.19 194.96 5.69 194.66 5.94 C 194.19 5.60 193.26 4.91 192.79 4.57 Z" />
</g>
<g id="#cfcb89ff">
<path fill="#cfcb89" opacity="1.00" d=" M 20.13 6.65 C 21.69 5.98 23.26 5.32 24.78 4.57 C 25.25 4.91 26.18 5.60 26.65 5.95 C 31.92 7.43 37.41 8.58 42.12 11.53 C 43.20 12.64 44.28 13.74 45.38 14.83 C 44.51 15.55 43.65 16.27 42.78 16.99 C 41.52 16.66 40.24 16.36 38.96 16.11 C 40.13 16.13 41.31 16.13 42.48 16.10 C 38.99 13.02 35.20 9.32 30.03 10.07 C 27.30 10.59 24.64 11.39 22.05 12.37 C 22.06 11.88 22.10 10.91 22.11 10.43 C 17.26 12.07 12.84 14.65 8.44 17.23 C 7.99 17.28 7.09 17.38 6.64 17.43 C 5.48 17.53 4.32 17.59 3.16 17.65 C 2.81 19.89 2.47 22.12 2.20 24.37 C 1.65 23.97 0.55 23.16 0.00 22.76 L 0.00 20.47 C 0.18 19.76 0.53 18.35 0.70 17.65 C 2.45 17.13 4.02 16.09 5.00 14.53 L 5.39 14.02 C 10.87 13.00 17.10 11.94 20.13 6.65 Z" />
<path fill="#cfcb89" opacity="1.00" d=" M 76.12 6.64 C 77.69 5.98 79.26 5.32 80.79 4.58 C 81.25 4.92 82.19 5.60 82.66 5.94 C 87.68 7.39 93.13 8.21 97.39 11.48 C 98.58 13.07 99.76 14.66 100.99 16.21 C 99.43 16.12 97.87 16.03 96.32 15.92 C 93.29 8.37 84.28 9.43 78.04 12.37 C 78.06 11.89 78.10 10.93 78.12 10.45 C 73.25 12.08 68.64 14.42 64.50 17.47 C 64.03 17.47 63.09 17.49 62.61 17.50 C 61.47 17.49 60.33 17.46 59.19 17.44 C 58.84 19.75 58.48 22.06 58.21 24.38 C 57.62 23.96 56.44 23.11 55.85 22.69 L 55.90 21.63 C 55.98 21.23 56.13 20.43 56.21 20.03 C 56.34 19.44 56.62 18.27 56.75 17.68 C 58.53 17.17 60.29 16.21 61.08 14.46 L 61.38 13.94 C 66.95 13.19 73.10 11.92 76.12 6.64 Z" />
<path fill="#cfcb89" opacity="1.00" d=" M 132.12 6.64 C 133.69 5.98 135.26 5.32 136.79 4.57 C 137.25 4.92 138.19 5.60 138.66 5.94 C 143.70 7.39 149.12 8.27 153.46 11.43 C 154.61 13.06 155.74 14.70 156.87 16.35 C 155.38 15.87 153.90 15.38 152.44 14.84 C 149.40 12.48 146.49 9.06 142.05 10.05 C 139.30 10.58 136.65 11.39 134.05 12.37 C 134.06 11.88 134.08 10.88 134.09 10.39 C 129.79 11.95 125.80 14.19 121.87 16.50 C 120.93 16.84 119.97 17.13 118.99 17.39 C 117.72 17.51 116.44 17.58 115.17 17.66 C 114.82 19.89 114.48 22.13 114.22 24.38 C 113.62 23.98 112.44 23.19 111.85 22.80 C 111.87 22.27 111.91 21.20 111.93 20.67 L 112.11 19.89 C 112.26 19.33 112.56 18.21 112.71 17.65 C 114.50 17.17 116.29 16.23 117.09 14.46 L 117.39 13.94 C 122.95 13.19 129.10 11.92 132.12 6.64 Z" />
<path fill="#cfcb89" opacity="1.00" d=" M 188.12 6.64 C 189.69 5.98 191.26 5.32 192.79 4.57 C 193.26 4.91 194.19 5.60 194.66 5.94 C 199.71 7.40 205.12 8.31 209.52 11.41 C 210.80 13.29 211.89 15.29 212.99 17.28 C 211.77 17.04 210.54 16.84 209.31 16.68 C 207.41 14.27 205.58 11.40 202.52 10.37 C 198.19 9.15 194.05 11.01 190.04 12.37 C 190.06 11.89 190.10 10.93 190.12 10.45 C 185.25 12.08 180.64 14.42 176.50 17.46 C 176.03 17.47 175.08 17.49 174.61 17.50 C 173.47 17.49 172.33 17.47 171.19 17.45 C 170.84 19.75 170.48 22.06 170.20 24.38 C 169.66 23.99 168.57 23.20 168.03 22.81 C 168.08 22.19 168.17 20.94 168.22 20.32 C 168.36 19.66 168.62 18.33 168.75 17.67 C 170.51 17.14 172.27 16.21 173.07 14.46 L 173.38 13.94 C 178.95 13.19 185.09 11.92 188.12 6.64 Z" />
</g>
<g id="#b4ac6fff">
<path fill="#b4ac6f" opacity="1.00" d=" M 27.87 4.96 C 28.41 4.97 29.49 5.00 30.03 5.01 L 30.53 5.05 C 32.34 5.23 34.15 5.45 35.96 5.62 C 36.58 5.44 37.81 5.06 38.42 4.87 C 38.53 5.07 38.75 5.45 38.86 5.65 C 39.95 7.60 40.92 9.63 42.12 11.53 C 37.41 8.58 31.92 7.43 26.65 5.95 C 26.96 5.70 27.57 5.21 27.87 4.96 Z" />
</g>
<g id="#63594aff">
<path fill="#63594a" opacity="1.00" d=" M 39.48 5.94 C 40.52 6.14 41.57 6.31 42.61 6.48 C 46.11 7.15 49.61 7.79 53.14 8.24 C 52.25 10.23 51.27 12.18 50.16 14.06 L 50.01 14.30 C 48.68 12.33 47.29 10.33 45.34 8.89 C 43.41 7.86 41.45 6.89 39.48 5.94 Z" />
<path fill="#63594a" opacity="1.00" d=" M 95.84 5.69 C 96.75 5.96 97.67 6.19 98.61 6.39 C 102.08 7.18 105.59 7.84 109.14 8.26 C 108.25 10.23 107.32 12.19 106.19 14.04 L 106.04 14.26 C 104.66 12.29 103.22 10.29 101.18 8.95 C 99.41 7.84 97.61 6.78 95.84 5.69 Z" />
<path fill="#63594a" opacity="1.00" d=" M 151.83 5.70 C 152.74 5.97 153.67 6.19 154.61 6.39 C 158.07 7.18 161.58 7.85 165.12 8.24 C 164.31 10.10 163.41 11.90 162.37 13.64 L 162.01 14.27 C 160.82 12.18 159.32 10.24 157.28 8.91 C 155.47 7.83 153.64 6.78 151.83 5.70 Z" />
<path fill="#63594a" opacity="1.00" d=" M 207.73 5.88 C 208.69 6.04 209.66 6.20 210.62 6.35 C 214.13 7.07 217.65 7.81 221.21 8.29 C 220.20 10.23 219.19 12.18 217.98 14.00 L 217.75 14.33 C 216.72 12.16 215.33 10.13 213.29 8.79 C 211.47 7.76 209.63 6.77 207.73 5.88 Z" />
</g>
<g id="#332e2aff">
<path fill="#332e2a" opacity="1.00" d=" M 42.61 6.48 C 46.02 6.47 49.42 6.22 52.82 6.08 C 53.67 5.88 54.51 5.63 55.34 5.32 L 55.70 5.12 C 55.85 5.72 56.14 6.92 56.29 7.52 C 56.42 8.27 56.67 9.77 56.80 10.52 C 56.66 13.70 56.50 16.87 56.21 20.03 C 56.13 20.43 55.98 21.23 55.90 21.63 L 54.93 22.39 C 53.77 21.63 52.37 21.18 51.00 21.59 L 51.16 21.26 C 52.44 18.65 53.69 16.04 54.91 13.40 C 53.49 13.59 52.07 13.79 50.65 14.00 L 50.16 14.06 C 51.27 12.18 52.25 10.23 53.14 8.24 C 49.61 7.79 46.11 7.15 42.61 6.48 Z" />
<path fill="#332e2a" opacity="1.00" d=" M 1.41 39.53 C 2.24 41.31 2.88 43.18 3.53 45.05 C 2.35 44.52 1.17 43.99 0.00 43.45 L 0.00 42.89 C 1.16 42.22 2.50 40.90 1.41 39.53 Z" />
<path fill="#332e2a" opacity="1.00" d=" M 57.58 39.55 C 58.33 41.37 58.91 43.25 59.50 45.12 C 58.32 44.70 57.14 44.28 55.95 43.88 L 55.98 43.04 C 57.39 42.47 58.42 41.07 57.58 39.55 Z" />
<path fill="#332e2a" opacity="1.00" d=" M 113.58 39.56 C 114.33 41.37 114.90 43.24 115.50 45.11 C 114.32 44.68 113.13 44.25 111.95 43.83 L 111.98 43.06 C 113.39 42.48 114.42 41.08 113.58 39.56 Z" />
<path fill="#332e2a" opacity="1.00" d=" M 169.58 39.59 C 170.30 41.41 170.88 43.29 171.47 45.16 C 170.15 44.75 168.83 44.35 167.50 43.95 L 167.75 43.09 C 169.35 42.70 170.48 41.19 169.58 39.59 Z" />
<path fill="#332e2a" opacity="1.00" d=" M 4.54 41.64 C 5.43 42.45 6.47 43.55 6.06 44.88 C 4.30 45.25 3.80 42.82 4.54 41.64 Z" />
<path fill="#332e2a" opacity="1.00" d=" M 60.50 41.63 C 61.33 42.47 62.46 43.51 62.05 44.83 C 60.29 45.24 59.70 42.81 60.50 41.63 Z" />
<path fill="#332e2a" opacity="1.00" d=" M 116.51 41.66 C 117.34 42.51 118.44 43.57 118.04 44.90 C 116.26 45.30 115.74 42.84 116.51 41.66 Z" />
<path fill="#332e2a" opacity="1.00" d=" M 172.50 41.63 C 173.33 42.47 174.46 43.51 174.05 44.83 C 172.28 45.24 171.70 42.81 172.50 41.63 Z" />
<path fill="#332e2a" opacity="1.00" d=" M 6.05 51.22 L 6.12 50.73 C 6.49 50.70 7.24 50.64 7.62 50.61 C 8.08 50.78 9.00 51.11 9.46 51.28 C 9.73 51.50 10.29 51.92 10.57 52.14 C 9.99 52.29 8.85 52.58 8.28 52.73 L 7.49 52.79 L 6.69 52.58 C 6.53 52.24 6.21 51.56 6.05 51.22 Z" />
<path fill="#332e2a" opacity="1.00" d=" M 62.18 51.22 L 62.24 50.73 C 62.62 50.68 63.39 50.59 63.77 50.55 C 64.26 50.69 65.24 50.96 65.73 51.10 C 66.01 51.26 66.55 51.59 66.82 51.76 C 66.14 51.97 64.79 52.39 64.11 52.60 L 63.24 52.67 L 62.40 52.50 C 62.35 52.18 62.24 51.54 62.18 51.22 Z" />
<path fill="#332e2a" opacity="1.00" d=" M 118.18 51.22 L 118.24 50.73 C 118.62 50.68 119.39 50.59 119.77 50.55 C 120.26 50.69 121.24 50.96 121.73 51.10 C 122.00 51.26 122.55 51.59 122.82 51.76 C 122.14 51.97 120.79 52.39 120.11 52.60 L 119.24 52.67 L 118.40 52.50 C 118.34 52.18 118.23 51.54 118.18 51.22 Z" />
<path fill="#332e2a" opacity="1.00" d=" M 174.18 51.22 L 174.24 50.73 C 174.62 50.68 175.39 50.59 175.77 50.55 C 176.26 50.69 177.24 50.96 177.73 51.10 C 178.01 51.26 178.55 51.59 178.82 51.76 C 178.14 51.97 176.79 52.39 176.11 52.60 L 175.23 52.67 L 174.40 52.50 C 174.34 52.18 174.23 51.54 174.18 51.22 Z" />
<path fill="#332e2a" opacity="1.00" d=" M 8.56 53.41 L 9.15 53.92 C 9.94 55.91 13.02 56.08 13.05 53.54 C 12.66 54.16 11.88 55.39 11.49 56.00 L 7.69 56.00 C 7.91 55.35 8.35 54.06 8.56 53.41 Z" />
<path fill="#332e2a" opacity="1.00" d=" M 64.44 53.27 L 65.15 53.30 C 65.39 54.55 66.75 55.56 68.02 55.33 L 67.85 56.00 L 63.94 56.00 C 64.06 55.32 64.32 53.95 64.44 53.27 Z" />
<path fill="#332e2a" opacity="1.00" d=" M 120.44 53.27 L 121.14 53.30 C 121.39 54.55 122.75 55.56 124.02 55.33 L 123.85 56.00 L 119.93 56.00 C 120.06 55.32 120.31 53.95 120.44 53.27 Z" />
<path fill="#332e2a" opacity="1.00" d=" M 176.44 53.27 L 177.15 53.30 C 177.39 54.55 178.75 55.56 180.02 55.33 L 179.85 56.00 L 175.94 56.00 C 176.06 55.32 176.32 53.95 176.44 53.27 Z" />
</g>
<g id="#b7ae70ff">
<path fill="#b7ae70" opacity="1.00" d=" M 83.87 4.94 C 84.41 4.96 85.49 5.00 86.03 5.02 L 86.52 5.06 C 88.47 5.28 90.41 5.56 92.37 5.76 C 92.85 5.69 93.80 5.56 94.28 5.50 C 95.16 7.57 96.21 9.56 97.39 11.48 C 93.13 8.21 87.68 7.39 82.66 5.94 C 82.96 5.69 83.57 5.19 83.87 4.94 Z" />
<path fill="#b7ae70" opacity="1.00" d=" M 139.87 4.94 C 140.41 4.96 141.49 5.00 142.02 5.02 L 142.52 5.06 C 144.47 5.28 146.40 5.57 148.36 5.76 C 148.83 5.70 149.79 5.57 150.26 5.51 C 151.16 7.57 152.25 9.54 153.46 11.43 C 149.12 8.27 143.70 7.39 138.66 5.94 C 138.96 5.69 139.57 5.19 139.87 4.94 Z" />
<path fill="#b7ae70" opacity="1.00" d=" M 195.88 4.94 C 196.42 4.93 197.51 4.90 198.05 4.88 L 198.56 4.90 C 200.93 5.08 203.29 5.30 205.66 5.56 C 206.96 7.50 208.24 9.45 209.52 11.41 C 205.12 8.31 199.71 7.40 194.66 5.94 C 194.96 5.69 195.57 5.19 195.88 4.94 Z" />
</g>
<g id="#9b8e58ff">
<path fill="#9b8e58" opacity="1.00" d=" M 94.29 4.72 C 94.67 4.96 95.45 5.45 95.84 5.69 C 97.61 6.78 99.41 7.84 101.18 8.95 C 102.24 11.58 103.27 14.23 104.24 16.90 C 103.95 17.33 103.37 18.18 103.08 18.61 C 102.36 17.83 101.67 17.03 100.99 16.21 C 99.76 14.66 98.58 13.07 97.39 11.48 C 96.21 9.56 95.16 7.57 94.28 5.50 L 94.29 4.72 Z" />
</g>
<g id="#332f2aff">
<path fill="#332f2a" opacity="1.00" d=" M 98.61 6.39 C 102.02 6.49 105.42 6.23 108.83 6.10 C 109.68 5.89 110.51 5.62 111.34 5.32 L 111.70 5.12 C 111.85 5.72 112.14 6.92 112.29 7.52 C 112.42 8.27 112.68 9.77 112.81 10.52 C 112.62 13.65 112.46 16.78 112.11 19.89 L 111.93 20.67 L 111.00 21.43 C 109.52 20.51 107.72 20.20 106.07 20.85 C 107.82 18.44 109.56 16.02 111.21 13.54 C 109.69 13.69 108.17 13.85 106.65 14.00 L 106.19 14.04 C 107.32 12.19 108.25 10.23 109.14 8.26 C 105.59 7.84 102.08 7.18 98.61 6.39 Z" />
<path fill="#332f2a" opacity="1.00" d=" M 210.62 6.35 C 214.00 6.33 217.35 6.03 220.73 5.94 C 221.73 5.90 222.73 5.86 223.73 5.85 L 224.00 5.86 L 224.00 21.10 L 223.00 21.00 C 221.42 20.65 219.79 20.29 218.17 20.62 C 219.88 18.29 221.59 15.95 223.22 13.57 C 221.67 13.70 220.12 13.83 218.58 13.96 L 217.98 14.00 C 219.19 12.18 220.20 10.23 221.21 8.29 C 217.65 7.81 214.13 7.07 210.62 6.35 Z" />
</g>
<g id="#9d8f55ff">
<path fill="#9d8f55" opacity="1.00" d=" M 150.28 4.73 C 150.67 4.97 151.44 5.46 151.83 5.70 C 153.64 6.78 155.47 7.83 157.28 8.91 C 158.23 11.49 159.20 14.06 159.87 16.73 L 159.91 17.29 C 159.15 17.05 157.63 16.58 156.87 16.35 C 155.74 14.70 154.61 13.06 153.46 11.43 C 152.25 9.54 151.16 7.57 150.26 5.51 L 150.28 4.73 Z" />
</g>
<g id="#342f2aff">
<path fill="#342f2a" opacity="1.00" d=" M 154.61 6.39 C 158.02 6.49 161.42 6.23 164.82 6.09 C 165.68 5.89 166.52 5.62 167.34 5.32 L 167.71 5.12 C 167.85 5.72 168.12 6.92 168.26 7.52 C 168.37 8.27 168.60 9.76 168.72 10.51 C 168.58 13.78 168.37 17.04 168.22 20.32 L 167.07 20.11 C 165.65 19.68 164.23 19.27 162.75 19.15 L 162.77 18.84 C 164.23 17.07 165.73 15.34 167.18 13.56 C 165.91 13.57 164.64 13.58 163.37 13.61 L 162.37 13.64 C 163.41 11.90 164.31 10.10 165.12 8.24 C 161.58 7.85 158.07 7.18 154.61 6.39 Z" />
</g>
<g id="#9d8f56ff">
<path fill="#9d8f56" opacity="1.00" d=" M 205.66 5.56 C 206.35 5.65 207.04 5.76 207.73 5.88 C 209.63 6.77 211.47 7.76 213.29 8.79 C 214.27 11.49 215.29 14.19 216.01 16.97 C 215.78 17.36 215.32 18.12 215.09 18.50 C 214.57 18.19 213.52 17.58 212.99 17.28 C 211.89 15.29 210.80 13.29 209.52 11.41 C 208.24 9.45 206.96 7.50 205.66 5.56 Z" />
</g>
<g id="#b5ac6eff">
<path fill="#b5ac6e" opacity="1.00" d=" M 13.25 7.98 C 15.52 7.41 17.82 7.02 20.13 6.65 C 17.10 11.94 10.87 13.00 5.39 14.02 C 6.19 12.70 6.94 11.36 7.68 10.01 C 8.38 9.69 9.09 9.39 9.81 9.11 C 10.95 8.70 12.09 8.31 13.25 7.98 Z" />
<path fill="#b5ac6e" opacity="1.00" d=" M 69.25 7.98 C 71.52 7.41 73.82 7.02 76.12 6.64 C 73.10 11.92 66.95 13.19 61.38 13.94 C 62.13 12.64 62.85 11.32 63.59 10.01 C 64.31 9.68 65.05 9.38 65.80 9.10 C 66.94 8.70 68.09 8.31 69.25 7.98 Z" />
<path fill="#b5ac6e" opacity="1.00" d=" M 125.25 7.98 C 127.52 7.41 129.82 7.02 132.12 6.64 C 129.10 11.92 122.95 13.19 117.39 13.94 C 118.13 12.64 118.86 11.33 119.58 10.01 C 120.31 9.68 121.05 9.38 121.80 9.10 C 122.94 8.70 124.09 8.32 125.25 7.98 Z" />
<path fill="#b5ac6e" opacity="1.00" d=" M 181.25 7.98 C 183.52 7.41 185.82 7.02 188.12 6.64 C 185.09 11.92 178.95 13.19 173.38 13.94 C 174.13 12.64 174.85 11.32 175.59 10.01 C 176.32 9.68 177.05 9.38 177.80 9.10 C 178.94 8.70 180.09 8.31 181.25 7.98 Z" />
</g>
<g id="#9b894fff">
<path fill="#9b894f" opacity="1.00" d=" M 38.86 5.65 L 39.48 5.94 C 41.45 6.89 43.41 7.86 45.34 8.89 C 46.24 11.67 47.08 14.48 47.80 17.31 C 47.01 16.46 46.20 15.64 45.38 14.83 C 44.28 13.74 43.20 12.64 42.12 11.53 C 40.92 9.63 39.95 7.60 38.86 5.65 Z" />
</g>
<g id="#97c270ff">
<path fill="#97c270" opacity="1.00" d=" M 0.00 8.08 C 2.28 6.88 2.28 10.79 0.00 9.69 L 0.00 8.08 Z" />
</g>
<g id="#37312cfe">
<path fill="#37312c" opacity="1.00" d=" M 45.34 8.89 C 47.29 10.33 48.68 12.33 50.01 14.30 C 49.79 14.71 49.33 15.51 49.10 15.91 C 48.82 16.43 48.26 17.47 47.98 17.99 L 47.80 17.31 C 47.08 14.48 46.24 11.67 45.34 8.89 Z" />
</g>
<g id="#38322cff">
<path fill="#38322c" opacity="1.00" d=" M 101.18 8.95 C 103.22 10.29 104.66 12.29 106.04 14.26 C 105.79 14.63 105.29 15.35 105.04 15.71 C 104.84 16.01 104.44 16.60 104.24 16.90 C 103.27 14.23 102.24 11.58 101.18 8.95 Z" />
<path fill="#38322c" opacity="1.00" d=" M 157.28 8.91 C 159.32 10.24 160.82 12.18 162.01 14.27 C 161.79 14.69 161.36 15.52 161.15 15.94 C 160.83 16.14 160.19 16.53 159.87 16.73 C 159.20 14.06 158.23 11.49 157.28 8.91 Z" />
<path fill="#38322c" opacity="1.00" d=" M 213.29 8.79 C 215.33 10.13 216.72 12.16 217.75 14.33 C 217.53 14.66 217.08 15.33 216.86 15.66 C 216.65 15.99 216.22 16.65 216.01 16.97 C 215.29 14.19 214.27 11.49 213.29 8.79 Z" />
</g>
<g id="#dfd889ff">
<path fill="#dfd889" opacity="1.00" d=" M 22.05 12.37 C 24.64 11.39 27.30 10.59 30.03 10.07 C 35.20 9.32 38.99 13.02 42.48 16.10 C 41.31 16.13 40.13 16.13 38.96 16.11 C 38.67 16.09 38.10 16.03 37.81 16.00 C 35.32 12.42 30.91 11.40 26.83 10.90 C 25.24 12.26 23.62 13.60 21.99 14.91 C 22.55 14.93 23.66 14.97 24.22 14.99 C 22.75 15.17 19.80 15.53 18.32 15.70 C 15.02 16.18 11.75 16.85 8.44 17.23 C 12.84 14.65 17.26 12.07 22.11 10.43 C 22.10 10.91 22.06 11.88 22.05 12.37 Z" />
</g>
<g id="#dfda8cff">
<path fill="#dfda8c" opacity="1.00" d=" M 78.04 12.37 C 84.28 9.43 93.29 8.37 96.32 15.92 C 94.79 15.81 93.26 15.66 91.74 15.47 C 92.03 14.77 92.62 13.38 92.91 12.68 C 87.72 11.75 82.21 11.95 77.55 14.63 C 73.64 15.97 69.59 16.80 65.51 17.41 L 64.50 17.47 C 68.64 14.42 73.25 12.08 78.12 10.45 C 78.10 10.93 78.06 11.89 78.04 12.37 Z" />
</g>
<g id="#dfd98aff">
<path fill="#dfd98a" opacity="1.00" d=" M 134.05 12.37 C 136.65 11.39 139.30 10.58 142.05 10.05 C 146.49 9.06 149.40 12.48 152.44 14.84 C 151.79 14.63 150.47 14.21 149.82 14.00 C 145.44 11.87 140.49 11.41 135.98 13.52 C 131.21 14.20 126.54 15.35 121.87 16.50 C 125.80 14.19 129.79 11.95 134.09 10.39 C 134.08 10.88 134.06 11.88 134.05 12.37 Z" />
</g>
<g id="#dfda8bff">
<path fill="#dfda8b" opacity="1.00" d=" M 190.04 12.37 C 194.05 11.01 198.19 9.15 202.52 10.37 C 205.58 11.40 207.41 14.27 209.31 16.68 C 204.45 16.15 199.63 15.34 194.78 14.79 C 198.44 14.68 202.13 14.49 205.79 14.15 C 200.74 10.86 194.53 11.74 189.54 14.69 C 185.62 15.95 181.58 16.80 177.51 17.40 L 176.50 17.46 C 180.64 14.42 185.25 12.08 190.12 10.45 C 190.10 10.93 190.06 11.89 190.04 12.37 Z" />
</g>
<g id="#edf1acff">
<path fill="#edf1ac" opacity="1.00" d=" M 26.83 10.90 C 30.91 11.40 35.32 12.42 37.81 16.00 C 33.28 15.64 28.76 15.12 24.22 14.99 C 23.66 14.97 22.55 14.93 21.99 14.91 C 23.62 13.60 25.24 12.26 26.83 10.90 Z" />
</g>
<g id="#699961ff">
<path fill="#699961" opacity="1.00" d=" M 56.80 10.52 C 57.10 11.97 57.46 13.41 57.81 14.85 C 57.29 15.72 56.93 16.66 56.75 17.68 C 56.62 18.27 56.34 19.44 56.21 20.03 C 56.50 16.87 56.66 13.70 56.80 10.52 Z" />
<path fill="#699961" opacity="1.00" d=" M 112.81 10.52 C 113.10 11.98 113.47 13.41 113.82 14.85 C 113.28 15.72 112.91 16.65 112.71 17.65 C 112.56 18.21 112.26 19.33 112.11 19.89 C 112.46 16.78 112.62 13.65 112.81 10.52 Z" />
<path fill="#699961" opacity="1.00" d=" M 168.72 10.51 C 169.03 11.96 169.42 13.40 169.80 14.84 C 169.25 15.71 168.90 16.65 168.75 17.67 C 168.62 18.33 168.36 19.66 168.22 20.32 C 168.37 17.04 168.58 13.78 168.72 10.51 Z" />
</g>
<g id="#ebf1acff">
<path fill="#ebf1ac" opacity="1.00" d=" M 77.55 14.63 C 82.21 11.95 87.72 11.75 92.91 12.68 C 92.62 13.38 92.03 14.77 91.74 15.47 C 91.26 15.40 90.29 15.27 89.80 15.21 C 88.58 14.68 86.13 13.64 84.90 13.11 C 84.51 13.61 83.73 14.60 83.34 15.09 C 81.41 14.90 79.48 14.73 77.55 14.63 Z" />
<path fill="#ebf1ac" opacity="1.00" d=" M 189.54 14.69 C 194.53 11.74 200.74 10.86 205.79 14.15 C 202.13 14.49 198.44 14.68 194.78 14.79 C 193.03 14.74 191.28 14.69 189.54 14.69 Z" />
</g>
<g id="#eef2acfe">
<path fill="#eef2ac" opacity="1.00" d=" M 135.98 13.52 C 140.49 11.41 145.44 11.87 149.82 14.00 C 145.20 13.87 140.58 13.85 135.98 13.52 Z" />
</g>
<g id="#675b4bff">
<path fill="#675b4b" opacity="1.00" d=" M 50.65 14.00 C 52.07 13.79 53.49 13.59 54.91 13.40 C 53.69 16.04 52.44 18.65 51.16 21.26 C 50.08 20.96 49.00 20.68 47.93 20.34 C 47.73 20.20 47.32 19.92 47.12 19.78 C 47.33 19.34 47.77 18.44 47.98 17.99 C 48.26 17.47 48.82 16.43 49.10 15.91 C 49.44 16.38 50.10 17.33 50.43 17.81 C 51.36 16.75 52.28 15.70 53.20 14.65 C 52.57 14.49 51.29 14.16 50.65 14.00 Z" />
</g>
<g id="#635d55ff">
<path fill="#635d55" opacity="1.00" d=" M 106.65 14.00 C 108.17 13.85 109.69 13.69 111.21 13.54 C 109.56 16.02 107.82 18.44 106.07 20.85 L 105.74 21.33 L 105.00 20.59 C 104.52 20.10 103.56 19.10 103.08 18.61 C 103.37 18.18 103.95 17.33 104.24 16.90 C 104.44 16.60 104.84 16.01 105.04 15.71 C 105.38 16.23 106.05 17.28 106.39 17.80 C 107.33 16.75 108.27 15.71 109.22 14.66 C 108.58 14.50 107.29 14.16 106.65 14.00 Z" />
</g>
<g id="#655a4bff">
<path fill="#655a4b" opacity="1.00" d=" M 163.37 13.61 C 164.64 13.58 165.91 13.57 167.18 13.56 C 165.73 15.34 164.23 17.07 162.77 18.84 C 163.07 17.11 163.43 15.38 163.37 13.61 Z" />
</g>
<g id="#645d56ff">
<path fill="#645d56" opacity="1.00" d=" M 218.58 13.96 C 220.12 13.83 221.67 13.70 223.22 13.57 C 221.59 15.95 219.88 18.29 218.17 20.62 L 217.86 21.07 L 217.09 20.33 C 216.44 19.70 215.77 19.09 215.09 18.50 C 215.32 18.12 215.78 17.36 216.01 16.97 C 216.22 16.65 216.65 15.99 216.86 15.66 C 217.26 16.19 218.06 17.25 218.46 17.78 C 219.38 16.74 220.29 15.70 221.20 14.66 C 220.55 14.49 219.23 14.13 218.58 13.96 Z" />
</g>
<g id="#9a9364fe">
<path fill="#9a9364" opacity="1.00" d=" M 1.56 14.74 C 2.69 14.48 3.84 14.42 5.00 14.53 C 4.02 16.09 2.45 17.13 0.70 17.65 C 0.94 16.66 1.23 15.69 1.56 14.74 Z" />
<path fill="#9a9364" opacity="1.00" d=" M 57.81 14.85 C 58.89 14.59 59.97 14.46 61.08 14.46 C 60.29 16.21 58.53 17.17 56.75 17.68 C 56.93 16.66 57.29 15.72 57.81 14.85 Z" />
<path fill="#9a9364" opacity="1.00" d=" M 113.82 14.85 C 114.89 14.59 115.98 14.46 117.09 14.46 C 116.29 16.23 114.50 17.17 112.71 17.65 C 112.91 16.65 113.28 15.72 113.82 14.85 Z" />
<path fill="#9a9364" opacity="1.00" d=" M 169.80 14.84 C 170.87 14.59 171.96 14.46 173.07 14.46 C 172.27 16.21 170.51 17.14 168.75 17.67 C 168.90 16.65 169.25 15.71 169.80 14.84 Z" />
</g>
<g id="#9c8a4eff">
<path fill="#9c8a4e" opacity="1.00" d=" M 50.01 14.30 L 50.16 14.06 L 50.65 14.00 C 51.29 14.16 52.57 14.49 53.20 14.65 C 52.28 15.70 51.36 16.75 50.43 17.81 C 50.10 17.33 49.44 16.38 49.10 15.91 C 49.33 15.51 49.79 14.71 50.01 14.30 Z" />
<path fill="#9c8a4e" opacity="1.00" d=" M 106.04 14.26 L 106.19 14.04 L 106.65 14.00 C 107.29 14.16 108.58 14.50 109.22 14.66 C 108.27 15.71 107.33 16.75 106.39 17.80 C 106.05 17.28 105.38 16.23 105.04 15.71 C 105.29 15.35 105.79 14.63 106.04 14.26 Z" />
<path fill="#9c8a4e" opacity="1.00" d=" M 162.01 14.27 L 162.37 13.64 L 163.37 13.61 C 163.43 15.38 163.07 17.11 162.77 18.84 L 162.48 18.09 C 162.15 17.56 161.48 16.48 161.15 15.94 C 161.36 15.52 161.79 14.69 162.01 14.27 Z" />
<path fill="#9c8a4e" opacity="1.00" d=" M 217.75 14.33 L 217.98 14.00 L 218.58 13.96 C 219.23 14.13 220.55 14.49 221.20 14.66 C 220.29 15.70 219.38 16.74 218.46 17.78 C 218.06 17.25 217.26 16.19 216.86 15.66 C 217.08 15.33 217.53 14.66 217.75 14.33 Z" />
</g>
<g id="#dfd98afe">
<path fill="#dfd98a" opacity="1.00" d=" M 83.34 15.09 C 83.73 14.60 84.51 13.61 84.90 13.11 C 86.13 13.64 88.58 14.68 89.80 15.21 C 88.19 15.18 84.95 15.12 83.34 15.09 Z" />
</g>
<g id="#a4e0a2ff">
<path fill="#a4e0a2" opacity="1.00" d=" M 121.87 16.50 C 126.54 15.35 131.21 14.20 135.98 13.52 C 140.58 13.85 145.20 13.87 149.82 14.00 C 150.47 14.21 151.79 14.63 152.44 14.84 C 153.90 15.38 155.38 15.87 156.87 16.35 C 157.63 16.58 159.15 17.05 159.91 17.29 C 160.12 17.69 160.54 18.49 160.75 18.89 C 151.17 16.98 141.34 16.25 131.58 16.69 L 130.93 16.75 C 125.67 18.06 120.61 20.87 117.93 25.75 C 117.66 25.44 117.13 24.82 116.86 24.51 L 117.05 23.98 C 118.57 21.43 120.31 19.02 121.87 16.50 Z" />
</g>
<g id="#eef2acff">
<path fill="#eef2ac" opacity="1.00" d=" M 8.44 17.23 C 11.75 16.85 15.02 16.18 18.32 15.70 C 12.62 18.50 5.83 22.22 5.22 29.27 C 4.27 25.26 5.30 21.22 6.64 17.43 C 7.09 17.38 7.99 17.28 8.44 17.23 Z" />
</g>
<g id="#a0e0a3ff">
<path fill="#a0e0a3" opacity="1.00" d=" M 24.22 14.99 C 28.76 15.12 33.28 15.64 37.81 16.00 C 38.10 16.03 38.67 16.09 38.96 16.11 C 40.24 16.36 41.52 16.66 42.78 16.99 C 44.28 17.84 45.70 18.80 47.12 19.78 C 47.32 19.92 47.73 20.20 47.93 20.34 C 48.39 20.71 49.32 21.44 49.78 21.80 L 48.55 21.79 C 44.84 20.92 41.16 19.92 37.39 19.37 C 31.59 18.34 25.63 16.94 19.73 18.07 C 15.29 18.77 11.58 21.52 7.76 23.67 C 8.58 27.23 9.55 30.76 10.19 34.36 C 10.40 37.04 10.65 39.72 10.95 42.40 C 9.81 39.92 8.49 37.52 7.08 35.18 C 8.61 33.75 7.54 31.34 5.51 31.27 C 5.44 30.77 5.29 29.77 5.22 29.27 C 5.83 22.22 12.62 18.50 18.32 15.70 C 19.80 15.53 22.75 15.17 24.22 14.99 Z" />
</g>
<g id="#969770ff">
<path fill="#969770" opacity="1.00" d=" M 45.38 14.83 C 46.20 15.64 47.01 16.46 47.80 17.31 L 47.98 17.99 C 47.77 18.44 47.33 19.34 47.12 19.78 C 45.70 18.80 44.28 17.84 42.78 16.99 C 43.65 16.27 44.51 15.55 45.38 14.83 Z" />
</g>
<g id="#a1e1a3ff">
<path fill="#a1e1a3" opacity="1.00" d=" M 65.51 17.41 C 69.59 16.80 73.64 15.97 77.55 14.63 C 79.48 14.73 81.41 14.90 83.34 15.09 C 84.95 15.12 88.19 15.18 89.80 15.21 C 90.29 15.27 91.26 15.40 91.74 15.47 C 93.26 15.66 94.79 15.81 96.32 15.92 C 97.87 16.03 99.43 16.12 100.99 16.21 C 101.67 17.03 102.36 17.83 103.08 18.61 C 103.56 19.10 104.52 20.10 105.00 20.59 L 104.01 20.24 C 103.25 20.24 101.73 20.23 100.96 20.22 L 100.13 19.94 C 99.19 19.60 98.23 19.30 97.26 19.06 C 90.71 17.33 83.93 16.25 77.15 16.36 C 71.16 17.40 64.85 20.17 61.98 25.86 C 62.87 22.93 64.15 20.14 65.51 17.41 Z" />
</g>
<g id="#a0dfa2ff">
<path fill="#a0dfa2" opacity="1.00" d=" M 177.51 17.40 C 181.58 16.80 185.62 15.95 189.54 14.69 C 191.28 14.69 193.03 14.74 194.78 14.79 C 199.63 15.34 204.45 16.15 209.31 16.68 C 210.54 16.84 211.77 17.04 212.99 17.28 C 213.52 17.58 214.57 18.19 215.09 18.50 C 215.77 19.09 216.44 19.70 217.09 20.33 L 215.94 20.11 C 215.17 20.23 213.64 20.48 212.88 20.60 L 211.94 20.31 C 210.99 20.00 210.03 19.71 209.08 19.43 C 199.64 16.79 188.81 14.73 179.76 19.71 C 177.23 21.08 175.43 23.43 173.98 25.86 C 174.87 22.93 176.15 20.14 177.51 17.40 Z" />
</g>
<g id="#40cebefe">
<path fill="#40cebe" opacity="1.00" d=" M 61.98 25.86 C 64.85 20.17 71.16 17.40 77.15 16.36 C 83.93 16.25 90.71 17.33 97.26 19.06 C 86.86 19.16 75.12 16.07 66.09 22.96 C 65.36 26.64 65.63 30.41 65.64 34.14 C 64.52 31.76 63.05 29.56 61.51 27.42 C 61.63 27.03 61.86 26.25 61.98 25.86 Z" />
</g>
<g id="#40cebeff">
<path fill="#40cebe" opacity="1.00" d=" M 117.93 25.75 C 120.61 20.87 125.67 18.06 130.93 16.75 C 127.64 18.61 124.40 20.83 122.06 23.83 C 120.45 28.10 121.54 32.89 121.47 37.30 C 120.43 34.05 119.02 30.93 117.77 27.76 C 117.81 27.25 117.89 26.25 117.93 25.75 Z" />
<path fill="#40cebe" opacity="1.00" d=" M 131.58 16.69 C 141.34 16.25 151.17 16.98 160.75 18.89 L 161.37 19.00 C 160.37 19.50 159.37 19.99 158.30 20.30 C 149.33 19.62 140.37 18.62 131.58 16.69 Z" />
<path fill="#40cebe" opacity="1.00" d=" M 179.76 19.71 C 188.81 14.73 199.64 16.79 209.08 19.43 C 198.75 19.02 187.07 16.07 178.09 22.96 C 177.37 26.64 177.63 30.41 177.64 34.14 C 176.52 31.76 175.05 29.56 173.52 27.42 C 173.63 27.03 173.86 26.25 173.98 25.86 C 175.43 23.43 177.23 21.08 179.76 19.71 Z" />
</g>
<g id="#6e5f4dff">
<path fill="#6e5f4d" opacity="1.00" d=" M 161.15 15.94 C 161.48 16.48 162.15 17.56 162.48 18.09 C 162.20 18.32 161.65 18.77 161.37 19.00 L 160.75 18.89 C 160.54 18.49 160.12 17.69 159.91 17.29 L 159.87 16.73 C 160.19 16.53 160.83 16.14 161.15 15.94 Z" />
</g>
<g id="#dcd78aff">
<path fill="#dcd78a" opacity="1.00" d=" M 3.16 17.65 C 4.32 17.59 5.48 17.53 6.64 17.43 C 5.30 21.22 4.27 25.26 5.22 29.27 C 5.29 29.77 5.44 30.77 5.51 31.27 C 5.62 32.70 6.28 34.01 7.08 35.18 C 8.49 37.52 9.81 39.92 10.95 42.40 C 11.08 42.94 11.34 44.00 11.47 44.54 L 10.41 44.62 C 8.74 43.20 7.16 41.66 5.68 40.05 C 3.96 34.98 2.37 29.76 2.20 24.37 C 2.47 22.12 2.81 19.89 3.16 17.65 Z" />
</g>
<g id="#3fcdbeff">
<path fill="#3fcdbe" opacity="1.00" d=" M 19.73 18.07 C 25.63 16.94 31.59 18.34 37.39 19.37 C 29.66 19.75 21.62 18.95 14.09 21.06 C 8.61 22.92 10.34 30.15 10.19 34.36 C 9.55 30.76 8.58 27.23 7.76 23.67 C 11.58 21.52 15.29 18.77 19.73 18.07 Z" />
</g>
<g id="#dcd78bff">
<path fill="#dcd78b" opacity="1.00" d=" M 59.19 17.44 C 60.33 17.46 61.47 17.49 62.61 17.50 C 61.94 21.23 60.90 25.00 61.27 28.83 C 61.78 33.59 63.90 37.93 65.93 42.20 C 66.18 42.79 66.69 43.99 66.94 44.59 L 66.19 44.62 C 64.61 43.17 63.11 41.63 61.68 40.04 C 59.96 34.97 58.36 29.76 58.21 24.38 C 58.48 22.06 58.84 19.75 59.19 17.44 Z" />
<path fill="#dcd78b" opacity="1.00" d=" M 171.19 17.45 C 172.33 17.47 173.47 17.49 174.61 17.50 C 173.93 21.24 172.90 25.00 173.27 28.83 C 173.78 33.59 175.90 37.93 177.93 42.20 C 178.18 42.79 178.68 43.99 178.94 44.59 L 178.20 44.62 C 176.61 43.17 175.11 41.63 173.68 40.03 C 171.96 34.97 170.36 29.76 170.20 24.38 C 170.48 22.06 170.84 19.75 171.19 17.45 Z" />
</g>
<g id="#dbd68aff">
<path fill="#dbd68a" opacity="1.00" d=" M 115.17 17.66 C 116.44 17.58 117.72 17.51 118.99 17.39 C 118.33 19.58 117.71 21.78 117.05 23.98 L 116.86 24.51 C 116.11 25.74 116.28 27.23 117.21 28.31 C 117.64 33.27 119.48 37.93 122.08 42.13 C 122.40 42.73 123.04 43.93 123.36 44.54 L 122.38 44.62 C 120.73 43.18 119.17 41.65 117.68 40.05 C 115.96 34.98 114.36 29.76 114.22 24.38 C 114.48 22.13 114.82 19.89 115.17 17.66 Z" />
</g>
<g id="#eef1adff">
<path fill="#eef1ad" opacity="1.00" d=" M 118.99 17.39 C 119.97 17.13 120.93 16.84 121.87 16.50 C 120.31 19.02 118.57 21.43 117.05 23.98 C 117.71 21.78 118.33 19.58 118.99 17.39 Z" />
</g>
<g id="#1aa9c1ff">
<path fill="#1aa9c1" opacity="1.00" d=" M 130.93 16.75 L 131.58 16.69 C 140.37 18.62 149.33 19.62 158.30 20.30 C 148.33 23.30 137.93 20.26 127.87 19.68 C 121.82 26.36 123.57 35.72 125.20 43.74 C 125.01 43.89 124.63 44.19 124.44 44.35 L 123.36 44.54 C 123.04 43.93 122.40 42.73 122.08 42.13 C 121.84 40.52 121.66 38.91 121.47 37.30 C 121.54 32.89 120.45 28.10 122.06 23.83 C 124.40 20.83 127.64 18.61 130.93 16.75 Z" />
</g>
<g id="#eef2adff">
<path fill="#eef2ad" opacity="1.00" d=" M 62.61 17.50 C 63.09 17.49 64.03 17.47 64.50 17.47 L 65.51 17.41 C 64.15 20.14 62.87 22.93 61.98 25.86 C 61.86 26.25 61.63 27.03 61.51 27.42 L 61.27 28.83 C 60.90 25.00 61.94 21.23 62.61 17.50 Z" />
<path fill="#eef2ad" opacity="1.00" d=" M 174.61 17.50 C 175.08 17.49 176.03 17.47 176.50 17.46 L 177.51 17.40 C 176.15 20.14 174.87 22.93 173.98 25.86 C 173.86 26.25 173.63 27.03 173.52 27.42 L 173.27 28.83 C 172.90 25.00 173.93 21.24 174.61 17.50 Z" />
<path fill="#eef2ad" opacity="1.00" d=" M 116.86 24.51 C 117.13 24.82 117.66 25.44 117.93 25.75 C 117.89 26.25 117.81 27.25 117.77 27.76 L 117.21 28.31 C 116.28 27.23 116.11 25.74 116.86 24.51 Z" />
<path fill="#eef2ad" opacity="1.00" d=" M 5.51 31.27 C 7.54 31.34 8.61 33.75 7.08 35.18 C 6.28 34.01 5.62 32.70 5.51 31.27 Z" />
</g>
<g id="#1ca9c1ff">
<path fill="#1ca9c1" opacity="1.00" d=" M 66.09 22.96 C 75.12 16.07 86.86 19.16 97.26 19.06 C 98.23 19.30 99.19 19.60 100.13 19.94 C 101.93 20.81 103.75 21.65 105.67 22.24 C 103.95 22.41 102.24 22.65 100.52 22.80 C 91.97 23.18 83.47 22.12 74.98 21.36 C 71.98 20.97 68.96 22.90 68.50 25.97 C 67.66 31.93 68.57 37.98 69.19 43.93 C 68.82 44.08 68.08 44.39 67.72 44.55 L 66.94 44.59 C 66.69 43.99 66.18 42.79 65.93 42.20 C 65.83 39.51 65.73 36.82 65.64 34.14 C 65.63 30.41 65.36 26.64 66.09 22.96 Z" />
</g>
<g id="#4378caff">
<path fill="#4378ca" opacity="1.00" d=" M 161.37 19.00 C 161.65 18.77 162.20 18.32 162.48 18.09 L 162.77 18.84 L 162.75 19.15 C 162.75 19.61 162.73 20.55 162.73 21.02 C 160.85 21.88 158.97 22.74 157.08 23.57 C 159.66 25.16 162.24 26.75 164.87 28.26 C 163.83 30.01 162.70 31.74 162.09 33.70 C 163.44 35.44 165.15 36.87 166.78 38.35 C 160.68 36.64 154.56 34.71 148.20 34.32 C 141.52 35.22 141.52 43.72 136.45 47.01 C 137.31 43.99 138.30 41.00 139.27 38.01 C 135.62 36.58 131.96 35.21 128.33 33.76 C 129.15 30.46 130.14 27.20 131.17 23.95 C 129.12 25.28 126.87 26.42 125.30 28.34 C 124.97 32.88 126.85 37.23 127.89 41.60 C 126.99 42.31 126.09 43.03 125.20 43.74 C 123.57 35.72 121.82 26.36 127.87 19.68 C 137.93 20.26 148.33 23.30 158.30 20.30 C 159.37 19.99 160.37 19.50 161.37 19.00 M 131.53 21.12 C 131.68 21.44 131.96 22.09 132.10 22.41 C 134.70 23.02 132.95 18.94 131.53 21.12 M 129.14 30.69 C 134.96 34.16 142.40 34.89 148.31 31.21 C 147.72 29.78 147.12 28.35 146.49 26.94 C 147.25 26.24 148.01 25.55 148.78 24.86 C 149.28 27.38 149.67 29.93 150.36 32.41 C 153.43 31.80 156.45 32.59 159.32 33.65 C 159.73 31.99 160.86 30.31 160.49 28.57 C 157.99 25.38 153.55 26.24 150.11 25.00 C 142.90 23.51 133.18 23.40 129.14 30.69 Z" />
</g>
<g id="#1aa8c2ff">
<path fill="#1aa8c2" opacity="1.00" d=" M 178.09 22.96 C 187.07 16.07 198.75 19.02 209.08 19.43 C 210.03 19.71 210.99 20.00 211.94 20.31 C 213.86 20.97 215.77 21.61 217.74 22.13 C 215.99 22.34 214.25 22.61 212.50 22.80 C 203.96 23.22 195.46 22.10 186.98 21.36 C 183.98 20.98 180.96 22.90 180.50 25.97 C 179.66 31.93 180.57 37.98 181.19 43.93 C 180.82 44.08 180.08 44.39 179.72 44.55 L 178.94 44.59 C 178.68 43.99 178.18 42.79 177.93 42.20 C 177.83 39.51 177.73 36.82 177.64 34.14 C 177.63 30.41 177.37 26.64 178.09 22.96 Z" />
</g>
<g id="#1caac1fe">
<path fill="#1caac1" opacity="1.00" d=" M 14.09 21.06 C 21.62 18.95 29.66 19.75 37.39 19.37 C 41.16 19.92 44.84 20.92 48.55 21.79 C 38.90 22.17 29.24 21.87 19.60 21.54 C 16.86 21.44 13.21 22.04 12.71 25.32 C 12.35 31.29 13.44 37.26 13.74 43.21 C 13.46 43.48 12.90 44.02 12.62 44.29 L 11.47 44.54 C 11.34 44.00 11.08 42.94 10.95 42.40 C 10.65 39.72 10.40 37.04 10.19 34.36 C 10.34 30.15 8.61 22.92 14.09 21.06 Z" />
</g>
<g id="#6797b6fe">
<path fill="#6797b6" opacity="1.00" d=" M 162.73 21.02 C 162.73 20.55 162.75 19.61 162.75 19.15 C 164.23 19.27 165.65 19.68 167.07 20.11 C 166.78 20.37 166.20 20.90 165.92 21.17 C 165.19 21.26 163.74 21.46 163.02 21.55 L 162.73 21.02 Z" />
<path fill="#6797b6" opacity="1.00" d=" M 105.74 21.33 L 106.07 20.85 C 107.72 20.20 109.52 20.51 111.00 21.43 C 110.76 21.61 110.28 21.98 110.04 22.16 C 109.40 22.23 108.12 22.36 107.49 22.43 L 106.70 22.34 C 106.46 22.08 105.98 21.58 105.74 21.33 Z" />
<path fill="#6797b6" opacity="1.00" d=" M 217.86 21.07 L 218.17 20.62 C 219.79 20.29 221.42 20.65 223.00 21.00 C 222.83 21.25 222.49 21.77 222.31 22.02 C 221.65 22.12 220.33 22.31 219.67 22.40 L 218.83 22.27 C 218.59 21.97 218.10 21.37 217.86 21.07 Z" />
</g>
<g id="#4378cafe">
<path fill="#4378ca" opacity="1.00" d=" M 47.93 20.34 C 49.00 20.68 50.08 20.96 51.16 21.26 L 51.00 21.59 C 50.85 21.87 50.57 22.44 50.42 22.72 C 50.01 23.01 49.19 23.59 48.78 23.88 C 47.46 23.45 43.16 23.88 44.96 25.82 C 48.07 28.17 52.06 28.28 55.80 28.46 C 55.79 28.71 55.78 29.21 55.77 29.47 C 53.95 30.79 51.93 31.91 50.36 33.56 C 49.16 36.67 53.11 38.36 54.76 40.38 C 49.84 39.12 44.92 37.86 40.21 35.94 C 40.49 35.01 40.77 34.08 41.06 33.15 C 43.03 34.06 44.99 34.97 46.97 35.86 C 47.85 33.74 48.75 31.62 49.64 29.50 C 38.63 27.17 27.31 26.58 16.11 27.45 C 17.01 26.58 16.63 24.06 15.03 24.69 C 14.65 25.62 14.78 26.55 15.41 27.48 C 15.91 30.30 16.40 33.13 16.87 35.96 C 19.28 33.32 21.17 30.28 23.26 27.38 C 22.72 29.41 22.27 31.46 21.83 33.50 C 25.77 35.70 30.23 35.71 34.16 33.51 C 33.71 31.44 33.26 29.37 32.82 27.30 C 34.64 29.90 36.29 32.60 38.08 35.22 C 33.01 35.35 30.38 39.27 29.53 43.66 C 28.51 43.67 27.48 43.67 26.46 43.68 C 25.62 39.01 22.90 34.95 17.25 35.68 C 16.08 38.17 15.18 40.84 13.74 43.21 C 13.44 37.26 12.35 31.29 12.71 25.32 C 13.21 22.04 16.86 21.44 19.60 21.54 C 29.24 21.87 38.90 22.17 48.55 21.79 L 49.78 21.80 C 49.32 21.44 48.39 20.71 47.93 20.34 Z" />
</g>
<g id="#4476cbff">
<path fill="#4476cb" opacity="1.00" d=" M 100.13 19.94 L 100.96 20.22 C 101.57 21.54 103.51 21.79 104.01 20.24 L 105.00 20.59 L 105.74 21.33 C 105.98 21.58 106.46 22.08 106.70 22.34 L 105.67 22.24 C 103.75 21.65 101.93 20.81 100.13 19.94 Z" />
<path fill="#4476cb" opacity="1.00" d=" M 211.94 20.31 L 212.88 20.60 C 213.73 21.73 215.65 21.71 215.94 20.11 L 217.09 20.33 L 217.86 21.07 C 218.10 21.37 218.59 21.97 218.83 22.27 L 217.74 22.13 C 215.77 21.61 213.86 20.97 211.94 20.31 Z" />
</g>
<g id="#1aa9c2ff">
<path fill="#1aa9c2" opacity="1.00" d=" M 100.96 20.22 C 101.73 20.23 103.25 20.24 104.01 20.24 C 103.51 21.79 101.57 21.54 100.96 20.22 Z" />
<path fill="#1aa9c2" opacity="1.00" d=" M 212.88 20.60 C 213.64 20.48 215.17 20.23 215.94 20.11 C 215.65 21.71 213.73 21.73 212.88 20.60 Z" />
<path fill="#1aa9c2" opacity="1.00" d=" M 131.53 21.12 C 132.95 18.94 134.70 23.02 132.10 22.41 C 131.96 22.09 131.68 21.44 131.53 21.12 Z" />
<path fill="#1aa9c2" opacity="1.00" d=" M 77.53 23.12 C 78.95 20.94 80.70 25.02 78.10 24.41 C 77.96 24.09 77.68 23.44 77.53 23.12 Z" />
<path fill="#1aa9c2" opacity="1.00" d=" M 189.53 23.12 C 190.95 20.94 192.70 25.02 190.10 24.41 C 189.96 24.09 189.68 23.44 189.53 23.12 Z" />
<path fill="#1aa9c2" opacity="1.00" d=" M 44.96 25.82 C 43.16 23.88 47.46 23.45 48.78 23.88 C 47.62 24.73 46.42 25.62 44.96 25.82 Z" />
<path fill="#1aa9c2" opacity="1.00" d=" M 15.03 24.69 C 16.63 24.06 17.01 26.58 16.11 27.45 L 15.41 27.48 C 14.78 26.55 14.65 25.62 15.03 24.69 Z" />
</g>
<g id="#3c6bbeff">
<path fill="#3c6bbe" opacity="1.00" d=" M 167.07 20.11 L 168.22 20.32 C 168.17 20.94 168.08 22.19 168.03 22.81 C 167.94 25.86 167.96 28.92 167.92 31.97 C 167.94 32.64 167.97 33.99 167.98 34.66 L 168.24 35.33 L 168.60 36.34 C 168.73 36.92 169.00 38.06 169.13 38.63 C 168.42 40.04 167.96 41.53 167.75 43.09 L 167.50 43.95 C 166.42 43.49 163.73 43.03 163.80 44.81 C 164.84 45.91 166.46 45.06 167.53 44.47 C 167.73 48.31 167.95 52.16 168.14 56.00 L 150.27 56.00 C 145.05 51.91 138.98 49.20 133.52 45.51 C 132.67 46.12 131.83 46.73 130.99 47.34 C 131.71 47.62 133.13 48.18 133.85 48.46 C 131.86 50.29 129.86 52.10 127.86 53.91 C 133.22 50.47 139.97 49.92 145.64 52.97 C 143.56 53.33 139.41 54.05 137.33 54.41 C 137.97 54.81 139.25 55.60 139.89 56.00 L 127.44 56.00 C 126.50 54.34 125.64 52.64 124.83 50.91 C 124.65 50.50 124.28 49.67 124.10 49.26 C 125.55 48.57 128.33 46.15 125.70 45.09 C 125.34 44.94 124.63 44.64 124.28 44.49 L 124.44 44.35 C 124.63 44.19 125.01 43.89 125.20 43.74 C 126.09 43.03 126.99 42.31 127.89 41.60 C 126.85 37.23 124.97 32.88 125.30 28.34 C 126.87 26.42 129.12 25.28 131.17 23.95 C 130.14 27.20 129.15 30.46 128.33 33.76 C 131.96 35.21 135.62 36.58 139.27 38.01 C 138.30 41.00 137.31 43.99 136.45 47.01 C 141.52 43.72 141.52 35.22 148.20 34.32 C 154.56 34.71 160.68 36.64 166.78 38.35 C 165.15 36.87 163.44 35.44 162.09 33.70 C 162.70 31.74 163.83 30.01 164.87 28.26 C 162.24 26.75 159.66 25.16 157.08 23.57 C 158.97 22.74 160.85 21.88 162.73 21.02 L 163.02 21.55 C 163.38 24.52 167.25 24.43 165.92 21.17 C 166.20 20.90 166.78 20.37 167.07 20.11 M 155.01 44.16 C 152.71 44.92 150.62 43.40 148.61 42.54 C 148.41 43.26 148.22 43.98 148.02 44.71 C 152.35 46.51 157.05 47.80 161.38 45.18 C 161.05 43.19 160.80 41.19 160.62 39.18 C 158.92 40.98 157.50 43.41 155.01 44.16 Z" />
<path fill="#3c6bbe" opacity="1.00" d=" M 54.93 22.39 L 55.90 21.63 L 55.85 22.69 C 55.82 24.61 55.83 26.53 55.80 28.46 C 52.06 28.28 48.07 28.17 44.96 25.82 C 46.42 25.62 47.62 24.73 48.78 23.88 C 49.19 23.59 50.01 23.01 50.42 22.72 L 50.73 23.27 C 50.84 25.61 55.08 25.93 53.66 23.23 C 53.97 23.02 54.61 22.60 54.93 22.39 Z" />
<path fill="#3c6bbe" opacity="1.00" d=" M 129.14 30.69 C 133.18 23.40 142.90 23.51 150.11 25.00 C 153.55 26.24 157.99 25.38 160.49 28.57 C 160.86 30.31 159.73 31.99 159.32 33.65 C 156.45 32.59 153.43 31.80 150.36 32.41 C 149.67 29.93 149.28 27.38 148.78 24.86 C 148.01 25.55 147.25 26.24 146.49 26.94 C 147.12 28.35 147.72 29.78 148.31 31.21 C 142.40 34.89 134.96 34.16 129.14 30.69 M 141.17 25.11 C 139.59 25.51 140.21 28.19 141.83 27.57 C 143.35 27.13 142.83 24.45 141.17 25.11 Z" />
<path fill="#3c6bbe" opacity="1.00" d=" M 93.14 27.33 C 96.00 26.05 99.17 25.81 102.21 25.11 C 103.84 28.21 104.53 31.65 103.70 35.10 C 101.47 34.15 99.25 33.17 97.05 32.17 C 96.77 33.09 96.49 34.02 96.21 34.94 C 100.92 36.86 105.84 38.12 110.76 39.38 C 109.13 37.36 105.13 35.66 106.38 32.58 C 107.93 30.91 109.94 29.77 111.75 28.42 C 111.76 29.30 111.79 31.08 111.80 31.96 C 111.84 32.63 111.92 33.97 111.96 34.65 L 112.23 35.32 L 112.60 36.32 C 112.72 36.88 112.94 38.00 113.05 38.56 C 112.28 39.97 111.93 41.46 111.98 43.06 L 111.95 43.83 L 111.93 44.81 C 109.15 44.76 106.38 44.73 103.61 44.68 C 103.52 42.70 103.40 40.73 103.23 38.76 C 102.41 40.52 101.62 42.31 100.82 44.08 C 96.07 43.69 91.28 43.31 86.56 44.17 C 89.88 45.18 93.27 45.95 96.66 46.67 C 101.70 47.95 106.89 46.19 111.93 45.86 C 111.94 49.23 111.99 52.62 112.01 56.00 L 93.33 56.00 C 88.45 53.93 83.79 51.40 79.09 48.98 C 83.10 43.29 86.78 36.81 93.64 34.16 C 93.13 31.96 91.96 29.52 93.14 27.33 Z" />
<path fill="#3c6bbe" opacity="1.00" d=" M 205.14 27.33 C 208.00 26.05 211.17 25.81 214.21 25.11 C 215.84 28.21 216.53 31.65 215.70 35.10 C 213.47 34.15 211.25 33.17 209.05 32.17 C 208.76 33.09 208.49 34.02 208.21 34.94 C 212.92 36.86 217.84 38.13 222.76 39.38 C 221.19 37.45 217.80 36.04 218.15 33.21 C 219.54 30.93 222.02 29.63 224.00 27.91 L 224.00 45.15 C 215.55 44.75 207.02 42.58 198.58 44.19 C 201.90 45.17 205.27 45.96 208.66 46.67 C 213.73 47.96 218.94 46.17 224.00 45.86 L 224.00 56.00 L 205.33 56.00 C 200.45 53.93 195.79 51.40 191.09 48.98 C 195.10 43.30 198.78 36.80 205.64 34.16 C 205.14 31.96 203.96 29.52 205.14 27.33 Z" />
<path fill="#3c6bbe" opacity="1.00" d=" M 16.11 27.45 C 27.31 26.58 38.63 27.17 49.64 29.50 C 48.75 31.62 47.85 33.74 46.97 35.86 C 44.99 34.97 43.03 34.06 41.06 33.15 C 40.77 34.08 40.49 35.01 40.21 35.94 C 44.92 37.86 49.84 39.12 54.76 40.38 C 53.11 38.36 49.16 36.67 50.36 33.56 C 51.93 31.91 53.95 30.79 55.77 29.47 C 55.77 30.08 55.76 31.29 55.76 31.90 C 55.80 32.58 55.90 33.93 55.94 34.60 L 56.22 35.30 L 56.60 36.31 C 56.71 36.87 56.93 37.99 57.04 38.56 C 56.28 39.96 55.93 41.46 55.98 43.04 L 55.95 43.88 C 55.95 44.45 55.93 45.60 55.93 46.17 C 51.84 46.08 46.45 46.05 46.28 40.93 C 41.70 44.26 35.71 43.22 30.53 44.87 C 34.96 45.32 39.39 46.24 43.38 48.28 C 47.35 46.55 51.71 46.89 55.93 46.83 C 55.95 49.88 55.99 52.94 56.02 56.00 L 16.77 56.00 C 15.81 54.21 14.94 52.37 14.00 50.57 C 13.75 50.24 13.26 49.56 13.01 49.23 C 14.36 47.92 15.67 46.58 16.99 45.24 C 16.48 45.18 15.48 45.04 14.98 44.98 C 14.30 44.89 12.94 44.72 12.26 44.63 L 12.62 44.29 C 12.90 44.02 13.46 43.48 13.74 43.21 C 15.18 40.84 16.08 38.17 17.25 35.68 C 22.90 34.95 25.62 39.01 26.46 43.68 C 27.48 43.67 28.51 43.67 29.53 43.66 C 30.38 39.27 33.01 35.35 38.08 35.22 C 36.29 32.60 34.64 29.90 32.82 27.30 C 33.26 29.37 33.71 31.44 34.16 33.51 C 30.23 35.71 25.77 35.70 21.83 33.50 C 22.27 31.46 22.72 29.41 23.26 27.38 C 21.17 30.28 19.28 33.32 16.87 35.96 C 16.40 33.13 15.91 30.30 15.41 27.48 L 16.11 27.45 Z" />
<path fill="#3c6bbe" opacity="1.00" d=" M 73.36 35.41 C 76.52 36.06 79.67 36.71 82.85 37.37 C 81.23 41.67 78.76 45.61 75.40 48.77 C 75.99 48.93 77.17 49.25 77.76 49.41 C 75.89 51.14 74.01 52.85 72.14 54.57 C 74.06 53.70 75.95 52.73 77.95 52.02 C 81.29 50.71 84.64 53.29 87.88 53.82 C 86.39 54.56 84.91 55.32 83.39 56.00 L 71.18 56.00 C 70.40 54.30 69.61 52.61 68.85 50.90 C 68.68 50.50 68.32 49.68 68.14 49.27 C 69.63 48.58 72.49 46.13 69.93 44.92 C 69.56 44.83 68.82 44.63 68.45 44.53 L 67.72 44.55 C 68.08 44.39 68.82 44.08 69.19 43.93 C 70.94 41.28 72.06 38.29 73.36 35.41 Z" />
<path fill="#3c6bbe" opacity="1.00" d=" M 185.36 35.41 C 188.53 36.06 191.66 36.71 194.85 37.37 C 193.23 41.67 190.76 45.61 187.40 48.77 C 187.99 48.93 189.17 49.25 189.76 49.41 C 187.89 51.14 186.01 52.85 184.14 54.57 C 186.06 53.70 187.95 52.73 189.95 52.02 C 193.29 50.71 196.63 53.29 199.88 53.82 C 198.39 54.56 196.91 55.32 195.39 56.00 L 183.19 56.00 C 182.40 54.30 181.61 52.61 180.85 50.90 C 180.68 50.50 180.32 49.68 180.14 49.27 C 181.63 48.58 184.49 46.13 181.93 44.92 C 181.56 44.83 180.82 44.63 180.45 44.53 L 179.72 44.55 C 180.08 44.39 180.82 44.08 181.19 43.93 C 182.94 41.28 184.05 38.29 185.36 35.41 Z" />
<path fill="#3c6bbe" opacity="1.00" d=" M 6.12 50.73 C 5.40 47.68 9.84 47.83 7.62 50.61 C 7.24 50.64 6.49 50.70 6.12 50.73 Z" />
<path fill="#3c6bbe" opacity="1.00" d=" M 62.24 50.73 C 61.44 47.73 65.87 47.72 63.77 50.55 C 63.39 50.59 62.62 50.68 62.24 50.73 Z" />
<path fill="#3c6bbe" opacity="1.00" d=" M 118.24 50.73 C 117.45 47.73 121.87 47.72 119.77 50.55 C 119.39 50.59 118.62 50.68 118.24 50.73 Z" />
<path fill="#3c6bbe" opacity="1.00" d=" M 174.24 50.73 C 173.44 47.73 177.86 47.72 175.77 50.55 C 175.39 50.59 174.62 50.68 174.24 50.73 Z" />
<path fill="#3c6bbe" opacity="1.00" d=" M 9.34 50.49 C 9.94 50.61 11.14 50.84 11.74 50.96 C 11.44 51.26 10.86 51.85 10.57 52.14 C 10.29 51.92 9.73 51.50 9.46 51.28 L 9.34 50.49 Z" />
<path fill="#3c6bbe" opacity="1.00" d=" M 65.59 50.26 C 66.01 50.04 66.86 49.61 67.28 49.39 C 67.16 49.98 66.94 51.17 66.82 51.76 C 66.55 51.59 66.01 51.26 65.73 51.10 L 65.59 50.26 Z" />
<path fill="#3c6bbe" opacity="1.00" d=" M 121.58 50.26 C 121.99 50.04 122.82 49.59 123.24 49.36 C 123.13 49.96 122.92 51.16 122.82 51.76 C 122.55 51.59 122.00 51.26 121.73 51.10 L 121.58 50.26 Z" />
<path fill="#3c6bbe" opacity="1.00" d=" M 177.59 50.26 C 178.01 50.04 178.86 49.61 179.28 49.39 C 179.16 49.98 178.94 51.17 178.82 51.76 C 178.55 51.59 178.01 51.26 177.73 51.10 L 177.59 50.26 Z" />
<path fill="#3c6bbe" opacity="1.00" d=" M 7.49 52.79 L 8.28 52.73 L 8.56 53.41 C 8.35 54.06 7.91 55.35 7.69 56.00 L 6.14 56.00 L 5.93 55.38 C 6.81 54.74 7.33 53.87 7.49 52.79 Z" />
<path fill="#3c6bbe" opacity="1.00" d=" M 63.24 52.67 L 64.11 52.60 L 64.44 53.27 C 64.32 53.95 64.06 55.32 63.94 56.00 L 62.31 56.00 L 62.01 55.40 C 62.79 54.66 63.20 53.76 63.24 52.67 Z" />
<path fill="#3c6bbe" opacity="1.00" d=" M 119.24 52.67 L 120.11 52.60 L 120.44 53.27 C 120.31 53.95 120.06 55.32 119.93 56.00 L 118.31 56.00 L 118.00 55.40 C 118.78 54.67 119.19 53.76 119.24 52.67 Z" />
<path fill="#3c6bbe" opacity="1.00" d=" M 175.23 52.67 L 176.11 52.60 L 176.44 53.27 C 176.32 53.95 176.06 55.32 175.94 56.00 L 174.31 56.00 L 174.01 55.40 C 174.79 54.67 175.20 53.76 175.23 52.67 Z" />
<path fill="#3c6bbe" opacity="1.00" d=" M 65.15 53.30 C 65.61 53.10 66.53 52.69 66.99 52.49 C 67.32 52.90 67.98 53.73 68.31 54.15 L 68.02 55.33 C 66.75 55.56 65.39 54.55 65.15 53.30 Z" />
<path fill="#3c6bbe" opacity="1.00" d=" M 121.14 53.30 C 121.61 53.10 122.53 52.69 122.99 52.49 C 123.32 52.91 123.98 53.74 124.30 54.15 L 124.02 55.33 C 122.75 55.56 121.39 54.55 121.14 53.30 Z" />
<path fill="#3c6bbe" opacity="1.00" d=" M 177.15 53.30 C 177.61 53.10 178.53 52.69 178.99 52.49 C 179.32 52.90 179.98 53.73 180.31 54.15 L 180.02 55.33 C 178.75 55.56 177.39 54.55 177.15 53.30 Z" />
</g>
<g id="#6e9fb5ff">
<path fill="#6e9fb5" opacity="1.00" d=" M 51.00 21.59 C 52.37 21.18 53.77 21.63 54.93 22.39 C 54.61 22.60 53.97 23.02 53.66 23.23 C 52.92 23.24 51.46 23.26 50.73 23.27 L 50.42 22.72 C 50.57 22.44 50.85 21.87 51.00 21.59 Z" />
</g>
<g id="#4377caff">
<path fill="#4377ca" opacity="1.00" d=" M 68.50 25.97 C 68.96 22.90 71.98 20.97 74.98 21.36 C 83.47 22.12 91.97 23.18 100.52 22.80 C 103.73 25.47 107.53 27.24 111.77 27.50 C 111.77 27.73 111.76 28.19 111.75 28.42 C 109.94 29.77 107.93 30.91 106.38 32.58 C 105.13 35.66 109.13 37.36 110.76 39.38 C 105.84 38.12 100.92 36.86 96.21 34.94 C 96.49 34.02 96.77 33.09 97.05 32.17 C 99.25 33.17 101.47 34.15 103.70 35.10 C 104.53 31.65 103.84 28.21 102.21 25.11 C 99.17 25.81 96.00 26.05 93.14 27.33 C 91.96 29.52 93.13 31.96 93.64 34.16 C 86.78 36.81 83.10 43.29 79.09 48.98 C 83.79 51.40 88.45 53.93 93.33 56.00 L 83.39 56.00 C 84.91 55.32 86.39 54.56 87.88 53.82 C 84.64 53.29 81.29 50.71 77.95 52.02 C 75.95 52.73 74.06 53.70 72.14 54.57 C 74.01 52.85 75.89 51.14 77.76 49.41 C 77.17 49.25 75.99 48.93 75.40 48.77 C 78.76 45.61 81.23 41.67 82.85 37.37 C 79.67 36.71 76.52 36.06 73.36 35.41 C 72.06 38.29 70.94 41.28 69.19 43.93 C 68.57 37.98 67.66 31.93 68.50 25.97 M 71.33 23.23 C 69.43 24.03 70.68 27.02 72.50 25.60 C 74.46 24.82 73.17 21.85 71.33 23.23 M 77.53 23.12 C 77.68 23.44 77.96 24.09 78.10 24.41 C 80.70 25.02 78.95 20.94 77.53 23.12 M 80.44 26.51 C 77.33 26.76 75.56 29.60 73.91 31.88 C 78.44 33.87 83.87 36.08 88.67 33.66 C 91.26 32.35 90.48 29.00 90.84 26.62 C 87.37 27.19 83.90 26.30 80.44 26.51 Z" />
<path fill="#4377ca" opacity="1.00" d=" M 180.50 25.97 C 180.96 22.90 183.98 20.98 186.98 21.36 C 195.46 22.10 203.96 23.22 212.50 22.80 C 215.82 25.52 219.76 27.20 224.00 27.91 L 224.00 27.91 C 222.02 29.63 219.54 30.93 218.15 33.21 C 217.80 36.04 221.19 37.45 222.76 39.38 C 217.84 38.13 212.92 36.86 208.21 34.94 C 208.49 34.02 208.76 33.09 209.05 32.17 C 211.25 33.17 213.47 34.15 215.70 35.10 C 216.53 31.65 215.84 28.21 214.21 25.11 C 211.17 25.81 208.00 26.05 205.14 27.33 C 203.96 29.52 205.14 31.96 205.64 34.16 C 198.78 36.80 195.10 43.30 191.09 48.98 C 195.79 51.40 200.45 53.93 205.33 56.00 L 195.39 56.00 C 196.91 55.32 198.39 54.56 199.88 53.82 C 196.63 53.29 193.29 50.71 189.95 52.02 C 187.95 52.73 186.06 53.70 184.14 54.57 C 186.01 52.85 187.89 51.14 189.76 49.41 C 189.17 49.25 187.99 48.93 187.40 48.77 C 190.76 45.61 193.23 41.67 194.85 37.37 C 191.66 36.71 188.53 36.06 185.36 35.41 C 184.05 38.29 182.94 41.28 181.19 43.93 C 180.57 37.98 179.66 31.93 180.50 25.97 M 183.33 23.23 C 181.43 24.03 182.68 27.02 184.50 25.60 C 186.46 24.82 185.17 21.85 183.33 23.23 M 189.53 23.12 C 189.68 23.44 189.96 24.09 190.10 24.41 C 192.70 25.02 190.95 20.94 189.53 23.12 M 192.44 26.51 C 189.38 26.75 187.60 29.51 185.98 31.76 C 189.99 34.01 194.62 36.85 199.18 34.26 C 202.89 33.53 202.78 29.57 202.84 26.62 C 199.36 27.19 195.90 26.30 192.44 26.51 Z" />
</g>
<g id="#3c6bbefe">
<path fill="#3c6bbe" opacity="1.00" d=" M 111.00 21.43 L 111.93 20.67 C 111.91 21.20 111.87 22.27 111.85 22.80 C 111.82 24.36 111.79 25.93 111.77 27.50 C 107.53 27.24 103.73 25.47 100.52 22.80 C 102.24 22.65 103.95 22.41 105.67 22.24 L 106.70 22.34 L 107.49 22.43 C 106.71 25.58 111.53 25.18 110.04 22.16 C 110.28 21.98 110.76 21.61 111.00 21.43 Z" />
<path fill="#3c6bbe" opacity="1.00" d=" M 223.00 21.00 L 224.00 21.10 L 224.00 27.91 C 219.76 27.20 215.82 25.52 212.50 22.80 C 214.25 22.61 215.99 22.34 217.74 22.13 L 218.83 22.27 L 219.67 22.40 C 218.28 25.79 222.84 25.07 222.31 22.02 C 222.49 21.77 222.83 21.25 223.00 21.00 Z" />
</g>
<g id="#65569cff">
<path fill="#65569c" opacity="1.00" d=" M 163.02 21.55 C 163.74 21.46 165.19 21.26 165.92 21.17 C 167.25 24.43 163.38 24.52 163.02 21.55 Z" />
<path fill="#65569c" opacity="1.00" d=" M 107.49 22.43 C 108.12 22.36 109.40 22.23 110.04 22.16 C 111.53 25.18 106.71 25.58 107.49 22.43 Z" />
<path fill="#65569c" opacity="1.00" d=" M 219.67 22.40 C 220.33 22.31 221.65 22.12 222.31 22.02 C 222.84 25.07 218.28 25.79 219.67 22.40 Z" />
<path fill="#65569c" opacity="1.00" d=" M 50.73 23.27 C 51.46 23.26 52.92 23.24 53.66 23.23 C 55.08 25.93 50.84 25.61 50.73 23.27 Z" />
</g>
<g id="#b1ad6eff">
<path fill="#b1ad6e" opacity="1.00" d=" M 0.00 22.76 C 0.55 23.16 1.65 23.97 2.20 24.37 C 2.37 29.76 3.96 34.98 5.68 40.05 C 3.89 38.24 1.92 36.64 0.00 34.97 L 0.00 34.51 C 2.05 35.04 1.77 31.99 0.00 31.99 L 0.00 22.76 Z" />
<path fill="#b1ad6e" opacity="1.00" d=" M 55.85 22.69 C 56.44 23.11 57.62 23.96 58.21 24.38 C 58.36 29.76 59.96 34.97 61.68 40.04 C 59.97 38.34 58.07 36.85 56.22 35.30 L 55.94 34.60 C 57.88 34.66 57.13 32.19 55.76 31.90 C 55.76 31.29 55.77 30.08 55.77 29.47 C 55.78 29.21 55.79 28.71 55.80 28.46 C 55.83 26.53 55.82 24.61 55.85 22.69 Z" />
<path fill="#b1ad6e" opacity="1.00" d=" M 111.85 22.80 C 112.44 23.19 113.62 23.98 114.22 24.38 C 114.36 29.76 115.96 34.98 117.68 40.05 C 115.96 38.36 114.07 36.87 112.23 35.32 L 111.96 34.65 C 113.89 34.72 113.18 32.25 111.80 31.96 C 111.79 31.08 111.76 29.30 111.75 28.42 C 111.76 28.19 111.77 27.73 111.77 27.50 C 111.79 25.93 111.82 24.36 111.85 22.80 Z" />
<path fill="#b1ad6e" opacity="1.00" d=" M 168.03 22.81 C 168.57 23.20 169.66 23.99 170.20 24.38 C 170.36 29.76 171.96 34.97 173.68 40.03 C 171.97 38.35 170.08 36.87 168.24 35.33 L 167.98 34.66 C 169.89 34.79 169.27 32.31 167.92 31.97 C 167.96 28.92 167.94 25.86 168.03 22.81 Z" />
</g>
<g id="#25a7c2fe">
<path fill="#25a7c2" opacity="1.00" d=" M 71.33 23.23 C 73.17 21.85 74.46 24.82 72.50 25.60 C 70.68 27.02 69.43 24.03 71.33 23.23 Z" />
<path fill="#25a7c2" opacity="1.00" d=" M 183.33 23.23 C 185.17 21.85 186.46 24.82 184.50 25.60 C 182.68 27.02 181.43 24.03 183.33 23.23 Z" />
</g>
<g id="#3c6bbdff">
<path fill="#3c6bbd" opacity="1.00" d=" M 80.44 26.51 C 83.90 26.30 87.37 27.19 90.84 26.62 C 90.48 29.00 91.26 32.35 88.67 33.66 C 83.87 36.08 78.44 33.87 73.91 31.88 C 75.56 29.60 77.33 26.76 80.44 26.51 Z" />
</g>
<g id="#4575cbff">
<path fill="#4575cb" opacity="1.00" d=" M 141.17 25.11 C 142.83 24.45 143.35 27.13 141.83 27.57 C 140.21 28.19 139.59 25.51 141.17 25.11 Z" />
<path fill="#4575cb" opacity="1.00" d=" M 163.80 44.81 C 163.73 43.03 166.42 43.49 167.50 43.95 L 167.53 44.47 C 166.46 45.06 164.84 45.91 163.80 44.81 Z" />
</g>
<g id="#3c6bbdfe">
<path fill="#3c6bbd" opacity="1.00" d=" M 192.44 26.51 C 195.90 26.30 199.36 27.19 202.84 26.62 C 202.78 29.57 202.89 33.53 199.18 34.26 C 194.62 36.85 189.99 34.01 185.98 31.76 C 187.60 29.51 189.38 26.75 192.44 26.51 Z" />
</g>
<g id="#a0e0a2ff">
<path fill="#a0e0a2" opacity="1.00" d=" M 61.51 27.42 C 63.05 29.56 64.52 31.76 65.64 34.14 C 65.73 36.82 65.83 39.51 65.93 42.20 C 63.90 37.93 61.78 33.59 61.27 28.83 L 61.51 27.42 Z" />
<path fill="#a0e0a2" opacity="1.00" d=" M 117.21 28.31 L 117.77 27.76 C 119.02 30.93 120.43 34.05 121.47 37.30 C 121.66 38.91 121.84 40.52 122.08 42.13 C 119.48 37.93 117.64 33.27 117.21 28.31 Z" />
<path fill="#a0e0a2" opacity="1.00" d=" M 173.52 27.42 C 175.05 29.56 176.52 31.76 177.64 34.14 C 177.73 36.82 177.83 39.51 177.93 42.20 C 175.90 37.93 173.78 33.59 173.27 28.83 L 173.52 27.42 Z" />
</g>
<g id="#596753ff">
<path fill="#596753" opacity="1.00" d=" M 0.00 31.99 C 1.77 31.99 2.05 35.04 0.00 34.51 L 0.00 31.99 Z" />
<path fill="#596753" opacity="1.00" d=" M 55.76 31.90 C 57.13 32.19 57.88 34.66 55.94 34.60 C 55.90 33.93 55.80 32.58 55.76 31.90 Z" />
<path fill="#596753" opacity="1.00" d=" M 111.80 31.96 C 113.18 32.25 113.89 34.72 111.96 34.65 C 111.92 33.97 111.84 32.63 111.80 31.96 Z" />
<path fill="#596753" opacity="1.00" d=" M 167.92 31.97 C 169.27 32.31 169.89 34.79 167.98 34.66 C 167.97 33.99 167.94 32.64 167.92 31.97 Z" />
</g>
<g id="#998b50ff">
<path fill="#998b50" opacity="1.00" d=" M 0.00 34.97 C 1.92 36.64 3.89 38.24 5.68 40.05 C 7.16 41.66 8.74 43.20 10.41 44.62 C 9.81 44.67 8.62 44.75 8.03 44.79 C 7.53 44.81 6.55 44.86 6.06 44.88 C 6.47 43.55 5.43 42.45 4.54 41.64 C 2.95 39.93 1.43 38.17 0.00 36.32 L 0.00 34.97 Z" />
<path fill="#998b50" opacity="1.00" d=" M 56.22 35.30 C 58.07 36.85 59.97 38.34 61.68 40.04 C 63.11 41.63 64.61 43.17 66.19 44.62 C 65.64 44.65 64.54 44.71 63.98 44.74 C 63.50 44.76 62.53 44.81 62.05 44.83 C 62.46 43.51 61.33 42.47 60.50 41.63 C 59.08 39.95 57.75 38.19 56.60 36.31 L 56.22 35.30 Z" />
<path fill="#998b50" opacity="1.00" d=" M 112.23 35.32 C 114.07 36.87 115.96 38.36 117.68 40.05 C 119.17 41.65 120.73 43.18 122.38 44.62 C 121.78 44.66 120.59 44.75 119.99 44.79 C 119.50 44.82 118.52 44.87 118.04 44.90 C 118.44 43.57 117.34 42.51 116.51 41.66 C 115.09 39.97 113.76 38.20 112.60 36.32 L 112.23 35.32 Z" />
<path fill="#998b50" opacity="1.00" d=" M 168.24 35.33 C 170.08 36.87 171.97 38.35 173.68 40.03 C 175.11 41.63 176.61 43.17 178.20 44.62 C 177.64 44.65 176.54 44.71 175.98 44.74 C 175.50 44.76 174.53 44.81 174.05 44.83 C 174.46 43.51 173.33 42.47 172.50 41.63 C 171.08 39.96 169.75 38.21 168.60 36.34 L 168.24 35.33 Z" />
</g>
<g id="#5c5c49ff">
<path fill="#5c5c49" opacity="1.00" d=" M 0.00 36.32 C 1.43 38.17 2.95 39.93 4.54 41.64 C 3.80 42.82 4.30 45.25 6.06 44.88 C 6.55 44.86 7.53 44.81 8.03 44.79 C 8.49 46.68 8.96 48.58 9.34 50.49 L 9.46 51.28 C 9.00 51.11 8.08 50.78 7.62 50.61 C 9.84 47.83 5.40 47.68 6.12 50.73 L 6.05 51.22 C 5.83 49.52 5.85 47.80 5.84 46.08 C 5.07 45.74 4.30 45.39 3.53 45.05 C 2.88 43.18 2.24 41.31 1.41 39.53 C 1.06 39.39 0.35 39.12 0.00 38.98 L 0.00 36.32 Z" />
<path fill="#5c5c49" opacity="1.00" d=" M 56.60 36.31 C 57.75 38.19 59.08 39.95 60.50 41.63 C 59.70 42.81 60.29 45.24 62.05 44.83 C 62.53 44.81 63.50 44.76 63.98 44.74 C 64.54 46.57 65.11 48.40 65.59 50.26 L 65.73 51.10 C 65.24 50.96 64.26 50.69 63.77 50.55 C 65.87 47.72 61.44 47.73 62.24 50.73 L 62.18 51.22 C 61.94 49.49 61.90 47.74 61.84 46.00 C 61.06 45.71 60.28 45.41 59.50 45.12 C 58.91 43.25 58.33 41.37 57.58 39.55 C 57.45 39.30 57.18 38.80 57.04 38.56 C 56.93 37.99 56.71 36.87 56.60 36.31 Z" />
<path fill="#5c5c49" opacity="1.00" d=" M 112.60 36.32 C 113.76 38.20 115.09 39.97 116.51 41.66 C 115.74 42.84 116.26 45.30 118.04 44.90 C 118.52 44.87 119.50 44.82 119.99 44.79 C 120.54 46.61 121.11 48.42 121.58 50.26 L 121.73 51.10 C 121.24 50.96 120.26 50.69 119.77 50.55 C 121.87 47.72 117.45 47.73 118.24 50.73 L 118.18 51.22 C 117.94 49.49 117.90 47.75 117.84 46.01 C 117.06 45.71 116.28 45.41 115.50 45.11 C 114.90 43.24 114.33 41.37 113.58 39.56 C 113.45 39.31 113.18 38.81 113.05 38.56 C 112.94 38.00 112.72 36.88 112.60 36.32 Z" />
<path fill="#5c5c49" opacity="1.00" d=" M 168.60 36.34 C 169.75 38.21 171.08 39.96 172.50 41.63 C 171.70 42.81 172.28 45.24 174.05 44.83 C 174.53 44.81 175.50 44.76 175.98 44.74 C 176.54 46.57 177.11 48.40 177.59 50.26 L 177.73 51.10 C 177.24 50.96 176.26 50.69 175.77 50.55 C 177.86 47.72 173.44 47.73 174.24 50.73 L 174.18 51.22 C 173.94 49.47 173.92 47.70 173.86 45.94 C 173.07 45.67 172.27 45.41 171.47 45.16 C 170.88 43.29 170.30 41.41 169.58 39.59 C 169.47 39.35 169.24 38.87 169.13 38.63 C 169.00 38.06 168.73 36.92 168.60 36.34 Z" />
</g>
<g id="#77a460ff">
<path fill="#77a460" opacity="1.00" d=" M 0.00 38.98 C 0.35 39.12 1.06 39.39 1.41 39.53 C 2.50 40.90 1.16 42.22 0.00 42.89 L 0.00 38.98 Z" />
<path fill="#77a460" opacity="1.00" d=" M 57.04 38.56 C 57.18 38.80 57.45 39.30 57.58 39.55 C 58.42 41.07 57.39 42.47 55.98 43.04 C 55.93 41.46 56.28 39.96 57.04 38.56 Z" />
<path fill="#77a460" opacity="1.00" d=" M 113.05 38.56 C 113.18 38.81 113.45 39.31 113.58 39.56 C 114.42 41.08 113.39 42.48 111.98 43.06 C 111.93 41.46 112.28 39.97 113.05 38.56 Z" />
<path fill="#77a460" opacity="1.00" d=" M 169.13 38.63 C 169.24 38.87 169.47 39.35 169.58 39.59 C 170.48 41.19 169.35 42.70 167.75 43.09 C 167.96 41.53 168.42 40.04 169.13 38.63 Z" />
</g>
<g id="#4378cbff">
<path fill="#4378cb" opacity="1.00" d=" M 103.23 38.76 C 103.40 40.73 103.52 42.70 103.61 44.68 C 106.38 44.73 109.15 44.76 111.93 44.81 L 111.93 45.86 C 106.89 46.19 101.70 47.95 96.66 46.67 C 93.27 45.95 89.88 45.18 86.56 44.17 C 91.28 43.31 96.07 43.69 100.82 44.08 C 101.62 42.31 102.41 40.52 103.23 38.76 Z" />
<path fill="#4378cb" opacity="1.00" d=" M 30.53 44.87 C 35.71 43.22 41.70 44.26 46.28 40.93 C 46.45 46.05 51.84 46.08 55.93 46.17 L 55.93 46.83 C 51.71 46.89 47.35 46.55 43.38 48.28 C 39.39 46.24 34.96 45.32 30.53 44.87 Z" />
</g>
<g id="#4279cbff">
<path fill="#4279cb" opacity="1.00" d=" M 155.01 44.16 C 157.50 43.41 158.92 40.98 160.62 39.18 C 160.80 41.19 161.05 43.19 161.38 45.18 C 157.05 47.80 152.35 46.51 148.02 44.71 C 148.22 43.98 148.41 43.26 148.61 42.54 C 150.62 43.40 152.71 44.92 155.01 44.16 Z" />
</g>
<g id="#4379cbff">
<path fill="#4379cb" opacity="1.00" d=" M 198.58 44.19 C 207.02 42.58 215.55 44.75 224.00 45.15 L 224.00 45.86 C 218.94 46.17 213.73 47.96 208.66 46.67 C 205.27 45.96 201.90 45.17 198.58 44.19 Z" />
</g>
<g id="#7aa55cff">
<path fill="#7aa55c" opacity="1.00" d=" M 0.00 43.45 C 1.17 43.99 2.35 44.52 3.53 45.05 C 4.30 45.39 5.07 45.74 5.84 46.08 C 5.85 47.80 5.83 49.52 6.05 51.22 C 6.21 51.56 6.53 52.24 6.69 52.58 C 6.50 53.28 6.12 54.68 5.93 55.38 L 6.14 56.00 L 0.00 56.00 L 0.00 43.45 Z" />
<path fill="#7aa55c" opacity="1.00" d=" M 55.95 43.88 C 57.14 44.28 58.32 44.70 59.50 45.12 C 60.28 45.41 61.06 45.71 61.84 46.00 C 61.90 47.74 61.94 49.49 62.18 51.22 C 62.24 51.54 62.35 52.18 62.40 52.50 C 62.30 53.22 62.11 54.67 62.01 55.40 L 62.31 56.00 L 56.02 56.00 C 55.99 52.94 55.95 49.88 55.93 46.83 L 55.93 46.17 C 55.93 45.60 55.95 44.45 55.95 43.88 Z" />
<path fill="#7aa55c" opacity="1.00" d=" M 111.95 43.83 C 113.13 44.25 114.32 44.68 115.50 45.11 C 116.28 45.41 117.06 45.71 117.84 46.01 C 117.90 47.75 117.94 49.49 118.18 51.22 C 118.23 51.54 118.34 52.18 118.40 52.50 C 118.30 53.23 118.10 54.67 118.00 55.40 L 118.31 56.00 L 112.01 56.00 C 111.99 52.62 111.94 49.23 111.93 45.86 L 111.93 44.81 L 111.95 43.83 Z" />
<path fill="#7aa55c" opacity="1.00" d=" M 167.50 43.95 C 168.83 44.35 170.15 44.75 171.47 45.16 C 172.27 45.41 173.07 45.67 173.86 45.94 C 173.92 47.70 173.94 49.47 174.18 51.22 C 174.23 51.54 174.34 52.18 174.40 52.50 C 174.30 53.23 174.10 54.67 174.01 55.40 L 174.31 56.00 L 168.14 56.00 C 167.95 52.16 167.73 48.31 167.53 44.47 L 167.50 43.95 Z" />
</g>
<g id="#363636ff">
<path fill="#363636" opacity="1.00" d=" M 10.41 44.62 L 11.47 44.54 L 12.62 44.29 L 12.26 44.63 C 11.34 45.41 11.18 46.36 11.78 47.48 C 11.97 48.02 12.36 49.11 12.55 49.66 C 12.49 50.10 12.38 50.98 12.33 51.42 L 11.74 50.96 C 11.14 50.84 9.94 50.61 9.34 50.49 C 8.96 48.58 8.49 46.68 8.03 44.79 C 8.62 44.75 9.81 44.67 10.41 44.62 Z" />
</g>
<g id="#37322dff">
<path fill="#37322d" opacity="1.00" d=" M 66.19 44.62 L 66.94 44.59 L 67.72 44.55 L 68.45 44.53 C 67.76 45.42 67.53 46.43 67.76 47.57 C 67.74 47.94 67.70 48.68 67.68 49.05 L 67.28 49.39 C 66.86 49.61 66.01 50.04 65.59 50.26 C 65.11 48.40 64.54 46.57 63.98 44.74 C 64.54 44.71 65.64 44.65 66.19 44.62 Z" />
<path fill="#37322d" opacity="1.00" d=" M 122.38 44.62 L 123.36 44.54 L 124.44 44.35 L 124.28 44.49 C 123.43 45.28 123.20 46.28 123.58 47.51 C 123.59 47.89 123.62 48.64 123.63 49.02 L 123.24 49.36 C 122.82 49.59 121.99 50.04 121.58 50.26 C 121.11 48.42 120.54 46.61 119.99 44.79 C 120.59 44.75 121.78 44.66 122.38 44.62 Z" />
<path fill="#37322d" opacity="1.00" d=" M 178.20 44.62 L 178.94 44.59 L 179.72 44.55 L 180.45 44.53 C 179.76 45.42 179.53 46.43 179.76 47.57 C 179.74 47.94 179.70 48.68 179.68 49.05 L 179.28 49.39 C 178.86 49.61 178.01 50.04 177.59 50.26 C 177.11 48.40 176.54 46.57 175.98 44.74 C 176.54 44.71 177.64 44.65 178.20 44.62 Z" />
</g>
<g id="#86a0b1ff">
<path fill="#86a0b1" opacity="1.00" d=" M 11.78 47.48 C 11.18 46.36 11.34 45.41 12.26 44.63 C 12.94 44.72 14.30 44.89 14.98 44.98 C 14.08 45.99 13.16 47.14 11.78 47.48 Z" />
<path fill="#86a0b1" opacity="1.00" d=" M 67.76 47.57 C 67.53 46.43 67.76 45.42 68.45 44.53 C 68.82 44.63 69.56 44.83 69.93 44.92 C 69.54 46.06 68.82 46.94 67.76 47.57 Z" />
<path fill="#86a0b1" opacity="1.00" d=" M 123.58 47.51 C 123.20 46.28 123.43 45.28 124.28 44.49 C 124.63 44.64 125.34 44.94 125.70 45.09 C 125.27 46.12 124.57 46.93 123.58 47.51 Z" />
<path fill="#86a0b1" opacity="1.00" d=" M 179.76 47.57 C 179.53 46.43 179.76 45.42 180.45 44.53 C 180.82 44.63 181.56 44.83 181.93 44.92 C 181.54 46.06 180.81 46.94 179.76 47.57 Z" />
<path fill="#86a0b1" opacity="1.00" d=" M 12.55 49.66 L 13.01 49.23 C 13.26 49.56 13.75 50.24 14.00 50.57 C 14.06 51.68 13.74 52.67 13.05 53.54 L 12.54 53.05 C 12.49 52.64 12.38 51.83 12.33 51.42 C 12.38 50.98 12.49 50.10 12.55 49.66 Z" />
</g>
<g id="#288ad6ff">
<path fill="#288ad6" opacity="1.00" d=" M 14.98 44.98 C 15.48 45.04 16.48 45.18 16.99 45.24 C 15.67 46.58 14.36 47.92 13.01 49.23 L 12.55 49.66 C 12.36 49.11 11.97 48.02 11.78 47.48 C 13.16 47.14 14.08 45.99 14.98 44.98 Z" />
</g>
<g id="#2989d5fe">
<path fill="#2989d5" opacity="1.00" d=" M 69.93 44.92 C 72.49 46.13 69.63 48.58 68.14 49.27 L 67.68 49.05 C 67.70 48.68 67.74 47.94 67.76 47.57 C 68.82 46.94 69.54 46.06 69.93 44.92 Z" />
<path fill="#2989d5" opacity="1.00" d=" M 125.70 45.09 C 128.33 46.15 125.55 48.57 124.10 49.26 L 123.63 49.02 C 123.62 48.64 123.59 47.89 123.58 47.51 C 124.57 46.93 125.27 46.12 125.70 45.09 Z" />
<path fill="#2989d5" opacity="1.00" d=" M 181.93 44.92 C 184.49 46.13 181.63 48.58 180.14 49.27 L 179.68 49.05 C 179.70 48.68 179.74 47.94 179.76 47.57 C 180.81 46.94 181.54 46.06 181.93 44.92 Z" />
</g>
<g id="#417acbff">
<path fill="#417acb" opacity="1.00" d=" M 130.99 47.34 C 131.83 46.73 132.67 46.12 133.52 45.51 C 138.98 49.20 145.05 51.91 150.27 56.00 L 139.89 56.00 C 139.25 55.60 137.97 54.81 137.33 54.41 C 139.41 54.05 143.56 53.33 145.64 52.97 C 139.97 49.92 133.22 50.47 127.86 53.91 C 129.86 52.10 131.86 50.29 133.85 48.46 C 133.13 48.18 131.71 47.62 130.99 47.34 Z" />
</g>
<g id="#8ca5b7ff">
<path fill="#8ca5b7" opacity="1.00" d=" M 67.68 49.05 L 68.14 49.27 C 68.32 49.68 68.68 50.50 68.85 50.90 C 68.75 52.00 68.56 53.08 68.31 54.15 C 67.98 53.73 67.32 52.90 66.99 52.49 L 66.82 51.76 C 66.94 51.17 67.16 49.98 67.28 49.39 L 67.68 49.05 Z" />
<path fill="#8ca5b7" opacity="1.00" d=" M 123.63 49.02 L 124.10 49.26 C 124.28 49.67 124.65 50.50 124.83 50.91 C 124.74 52.00 124.56 53.08 124.30 54.15 C 123.98 53.74 123.32 52.91 122.99 52.49 L 122.82 51.76 C 122.92 51.16 123.13 49.96 123.24 49.36 L 123.63 49.02 Z" />
<path fill="#8ca5b7" opacity="1.00" d=" M 179.68 49.05 L 180.14 49.27 C 180.32 49.68 180.68 50.50 180.85 50.90 C 180.74 52.00 180.56 53.08 180.31 54.15 C 179.98 53.73 179.32 52.90 178.99 52.49 L 178.82 51.76 C 178.94 51.17 179.16 49.98 179.28 49.39 L 179.68 49.05 Z" />
</g>
<g id="#adc2d9ff">
<path fill="#adc2d9" opacity="1.00" d=" M 11.74 50.96 L 12.33 51.42 C 12.38 51.83 12.49 52.64 12.54 53.05 C 12.08 53.01 11.16 52.92 10.70 52.88 L 10.57 52.14 C 10.86 51.85 11.44 51.26 11.74 50.96 Z" />
</g>
<g id="#268ed9ff">
<path fill="#268ed9" opacity="1.00" d=" M 14.00 50.57 C 14.94 52.37 15.81 54.21 16.77 56.00 L 11.49 56.00 C 11.88 55.39 12.66 54.16 13.05 53.54 C 13.74 52.67 14.06 51.68 14.00 50.57 Z" />
<path fill="#268ed9" opacity="1.00" d=" M 68.85 50.90 C 69.61 52.61 70.40 54.30 71.18 56.00 L 67.85 56.00 L 68.02 55.33 L 68.31 54.15 C 68.56 53.08 68.75 52.00 68.85 50.90 Z" />
<path fill="#268ed9" opacity="1.00" d=" M 124.83 50.91 C 125.64 52.64 126.50 54.34 127.44 56.00 L 123.85 56.00 L 124.02 55.33 L 124.30 54.15 C 124.56 53.08 124.74 52.00 124.83 50.91 Z" />
<path fill="#268ed9" opacity="1.00" d=" M 180.85 50.90 C 181.61 52.61 182.40 54.30 183.19 56.00 L 179.85 56.00 L 180.02 55.33 L 180.31 54.15 C 180.56 53.08 180.74 52.00 180.85 50.90 Z" />
</g>
<g id="#416845ff">
<path fill="#416845" opacity="1.00" d=" M 6.69 52.58 L 7.49 52.79 C 7.33 53.87 6.81 54.74 5.93 55.38 C 6.12 54.68 6.50 53.28 6.69 52.58 Z" />
<path fill="#416845" opacity="1.00" d=" M 62.40 52.50 L 63.24 52.67 C 63.20 53.76 62.79 54.66 62.01 55.40 C 62.11 54.67 62.30 53.22 62.40 52.50 Z" />
<path fill="#416845" opacity="1.00" d=" M 118.40 52.50 L 119.24 52.67 C 119.19 53.76 118.78 54.67 118.00 55.40 C 118.10 54.67 118.30 53.23 118.40 52.50 Z" />
<path fill="#416845" opacity="1.00" d=" M 174.40 52.50 L 175.23 52.67 C 175.20 53.76 174.79 54.67 174.01 55.40 C 174.10 54.67 174.30 53.23 174.40 52.50 Z" />
</g>
<g id="#75634eff">
<path fill="#75634e" opacity="1.00" d=" M 8.28 52.73 C 8.85 52.58 9.99 52.29 10.57 52.14 L 10.70 52.88 C 10.31 53.14 9.53 53.66 9.15 53.92 L 8.56 53.41 L 8.28 52.73 Z" />
<path fill="#75634e" opacity="1.00" d=" M 64.11 52.60 C 64.79 52.39 66.14 51.97 66.82 51.76 L 66.99 52.49 C 66.53 52.69 65.61 53.10 65.15 53.30 L 64.44 53.27 L 64.11 52.60 Z" />
<path fill="#75634e" opacity="1.00" d=" M 120.11 52.60 C 120.79 52.39 122.14 51.97 122.82 51.76 L 122.99 52.49 C 122.53 52.69 121.61 53.10 121.14 53.30 L 120.44 53.27 L 120.11 52.60 Z" />
<path fill="#75634e" opacity="1.00" d=" M 176.11 52.60 C 176.79 52.39 178.14 51.97 178.82 51.76 L 178.99 52.49 C 178.53 52.69 177.61 53.10 177.15 53.30 L 176.44 53.27 L 176.11 52.60 Z" />
</g>
<g id="#3b6bbefe">
<path fill="#3b6bbe" opacity="1.00" d=" M 9.15 53.92 C 9.53 53.66 10.31 53.14 10.70 52.88 C 11.16 52.92 12.08 53.01 12.54 53.05 L 13.05 53.54 C 13.02 56.08 9.94 55.91 9.15 53.92 Z" />
</g>
</svg>
