<?xml version="1.0" encoding="UTF-8" ?>
<!DOCTYPE svg PUBLIC "-//W3C//DTD SVG 1.1//EN" "http://www.w3.org/Graphics/SVG/1.1/DTD/svg11.dtd">
<svg width="224pt" height="56pt" viewBox="0 0 224 56" version="1.1" xmlns="http://www.w3.org/2000/svg">
<g id="#81ab59fe">
<path fill="#81ab59" opacity="1.00" d=" M 0.00 0.00 L 10.53 0.00 C 10.38 0.57 10.09 1.71 9.95 2.28 C 7.90 2.80 5.85 3.33 3.79 3.80 C 3.27 5.27 2.75 6.74 2.23 8.21 C 1.85 8.17 1.09 8.09 0.71 8.05 C 2.19 7.00 1.27 5.06 0.00 4.33 L 0.00 0.00 Z" />
<path fill="#81ab59" opacity="1.00" d=" M 55.83 0.00 L 66.24 0.00 C 66.12 0.56 65.88 1.68 65.76 2.24 C 63.78 2.81 61.80 3.35 59.81 3.82 C 59.26 5.26 58.73 6.71 58.20 8.16 C 57.79 8.15 56.95 8.13 56.53 8.12 C 57.77 7.11 57.12 5.46 56.49 4.32 L 56.36 3.50 C 56.23 2.62 55.97 0.87 55.83 0.00 Z" />
<path fill="#81ab59" opacity="1.00" d=" M 111.80 0.00 L 122.24 0.00 C 122.12 0.56 121.88 1.68 121.75 2.24 C 119.78 2.81 117.80 3.35 115.80 3.82 C 115.26 5.26 114.73 6.71 114.20 8.16 C 113.77 8.15 112.90 8.12 112.46 8.11 C 113.64 7.10 113.05 5.49 112.47 4.34 L 112.34 3.56 C 112.21 2.67 111.94 0.89 111.80 0.00 Z" />
<path fill="#81ab59" opacity="1.00" d=" M 167.84 0.00 L 178.24 0.00 C 178.12 0.56 177.88 1.68 177.76 2.24 C 175.78 2.81 173.80 3.35 171.80 3.82 C 171.26 5.27 170.73 6.72 170.20 8.17 C 169.78 8.16 168.95 8.15 168.53 8.14 C 169.73 7.10 169.10 5.47 168.45 4.33 L 168.32 3.43 C 168.20 2.57 167.96 0.86 167.84 0.00 Z" />
</g>
<g id="#342f2aff">
<path fill="#342f2a" opacity="1.00" d=" M 10.53 0.00 L 13.37 0.00 C 13.27 0.56 13.07 1.69 12.96 2.25 C 12.34 5.73 11.57 9.21 11.62 12.77 C 12.27 10.48 12.92 8.18 13.29 5.83 C 14.09 10.17 13.16 14.45 12.07 18.63 L 11.97 19.03 C 11.63 19.27 10.97 19.76 10.63 20.00 C 10.25 16.30 9.66 12.62 9.03 8.96 C 8.34 9.09 6.94 9.36 6.24 9.49 C 6.88 13.61 7.51 17.74 8.06 21.87 C 7.55 22.25 6.53 23.02 6.02 23.40 C 5.72 22.80 5.12 21.58 4.82 20.97 C 5.55 19.10 3.60 15.90 2.44 18.98 C 2.28 19.28 1.95 19.87 1.79 20.17 C 1.34 20.26 0.45 20.45 0.00 20.54 L 0.00 7.96 L 0.71 8.05 C 1.09 8.09 1.85 8.17 2.23 8.21 C 4.34 8.33 6.52 8.25 8.51 7.45 C 9.25 5.82 9.53 4.02 9.95 2.28 C 10.09 1.71 10.38 0.57 10.53 0.00 M 3.97 11.50 C 4.76 14.22 5.86 16.83 7.09 19.37 C 6.63 16.53 5.43 13.93 3.97 11.50 Z" />
<path fill="#342f2a" opacity="1.00" d=" M 66.24 0.00 L 68.97 0.00 C 68.98 0.56 68.99 1.69 69.00 2.26 C 68.45 5.74 67.69 9.21 67.59 12.75 C 68.26 10.46 68.95 8.16 69.35 5.80 C 70.25 9.72 69.35 13.55 67.97 17.18 L 67.84 17.57 C 67.46 18.55 67.07 19.53 66.68 20.51 C 66.52 16.61 65.74 12.78 65.04 8.96 C 64.29 9.10 62.79 9.39 62.04 9.53 C 62.86 13.26 63.56 17.03 64.58 20.72 C 63.88 20.98 62.48 21.52 61.78 21.78 C 61.58 21.26 61.19 20.21 60.99 19.69 C 61.21 17.41 57.93 16.63 58.94 19.45 L 58.35 19.11 C 57.47 18.56 56.59 18.01 55.72 17.44 C 55.77 16.43 55.89 14.40 55.95 13.38 C 55.96 12.74 55.97 11.44 55.98 10.79 C 55.95 10.12 55.88 8.76 55.85 8.09 L 56.53 8.12 C 56.95 8.13 57.79 8.15 58.20 8.16 C 60.46 8.15 62.71 8.04 64.96 7.97 C 65.24 6.06 65.46 4.15 65.76 2.24 C 65.88 1.68 66.12 0.56 66.24 0.00 M 59.97 11.50 C 60.76 14.22 61.86 16.83 63.09 19.37 C 62.63 16.53 61.44 13.93 59.97 11.50 Z" />
<path fill="#342f2a" opacity="1.00" d=" M 178.24 0.00 L 180.97 0.00 C 180.98 0.56 180.99 1.69 181.00 2.26 C 180.45 5.74 179.69 9.21 179.59 12.75 C 180.26 10.46 180.95 8.16 181.35 5.80 C 182.24 9.72 181.36 13.56 179.95 17.19 L 179.82 17.57 C 179.45 18.55 179.07 19.52 178.69 20.48 C 178.52 16.60 177.73 12.78 177.04 8.96 C 176.29 9.10 174.79 9.39 174.04 9.53 C 174.85 13.26 175.57 17.02 176.58 20.71 C 175.90 21.01 174.52 21.62 173.83 21.93 C 173.62 21.36 173.19 20.21 172.98 19.64 C 173.12 17.42 169.91 16.60 170.82 19.41 L 170.08 19.27 C 169.62 19.25 168.68 19.21 168.21 19.19 C 168.19 17.25 168.15 13.38 168.13 11.44 C 168.09 10.82 167.99 9.58 167.95 8.96 L 167.86 8.12 L 168.53 8.14 C 168.95 8.15 169.78 8.16 170.20 8.17 C 172.45 8.17 174.71 8.04 176.97 7.95 C 177.24 6.05 177.46 4.14 177.76 2.24 C 177.88 1.68 178.12 0.56 178.24 0.00 M 171.97 11.50 C 172.76 14.22 173.86 16.83 175.09 19.37 C 174.61 16.53 173.44 13.93 171.97 11.50 Z" />
</g>
<g id="#268dd9ff">
<path fill="#268dd9" opacity="1.00" d=" M 13.37 0.00 L 16.10 0.00 L 15.28 0.86 C 13.42 1.90 13.93 4.60 16.19 4.52 C 16.67 8.09 17.15 11.67 17.64 15.25 C 16.85 14.87 16.05 14.50 15.26 14.15 C 15.21 14.18 15.11 14.23 15.06 14.26 C 13.26 14.99 12.33 16.78 12.07 18.63 C 13.16 14.45 14.09 10.17 13.29 5.83 C 13.20 4.63 13.09 3.44 12.96 2.25 C 13.07 1.69 13.27 0.56 13.37 0.00 Z" />
<path fill="#268dd9" opacity="1.00" d=" M 68.97 0.00 L 70.21 0.00 C 70.44 0.36 70.90 1.07 71.13 1.43 C 70.27 2.60 70.24 5.11 72.26 4.86 C 72.01 8.09 71.83 11.32 71.56 14.54 C 70.17 15.12 68.91 15.99 67.97 17.18 C 69.35 13.55 70.25 9.72 69.35 5.80 C 69.25 4.62 69.14 3.44 69.00 2.26 C 68.99 1.69 68.98 0.56 68.97 0.00 Z" />
<path fill="#268dd9" opacity="1.00" d=" M 180.97 0.00 L 182.21 0.00 C 182.45 0.36 182.92 1.07 183.15 1.43 C 182.28 2.60 182.26 5.11 184.28 4.87 C 184.03 8.08 183.79 11.30 183.53 14.51 C 182.13 15.09 180.90 16.01 179.95 17.19 C 181.36 13.56 182.24 9.72 181.35 5.80 C 181.25 4.62 181.14 3.44 181.00 2.26 C 180.99 1.69 180.98 0.56 180.97 0.00 Z" />
</g>
<g id="#3c6bbeff">
<path fill="#3c6bbe" opacity="1.00" d=" M 16.10 0.00 L 26.36 0.00 C 26.84 1.41 27.32 2.82 27.79 4.23 C 23.83 4.43 19.74 4.30 16.05 2.67 C 15.86 2.22 15.48 1.31 15.28 0.86 L 16.10 0.00 Z" />
<path fill="#3c6bbe" opacity="1.00" d=" M 30.49 0.00 L 55.83 0.00 C 55.97 0.87 56.23 2.62 56.36 3.50 C 47.56 5.42 38.71 3.21 30.49 0.00 Z" />
<path fill="#3c6bbe" opacity="1.00" d=" M 154.75 0.00 L 167.84 0.00 C 167.96 0.86 168.20 2.57 168.32 3.43 C 165.06 3.63 161.79 3.79 158.54 3.96 C 157.30 2.62 156.06 1.27 154.75 0.00 Z" />
</g>
<g id="#407accff">
<path fill="#407acc" opacity="1.00" d=" M 26.36 0.00 L 30.49 0.00 C 38.71 3.21 47.56 5.42 56.36 3.50 L 56.49 4.32 C 56.30 4.76 55.93 5.64 55.74 6.08 C 49.16 7.07 42.48 6.96 36.26 4.35 C 31.70 1.55 27.94 5.78 23.69 6.54 C 21.08 6.44 18.61 5.41 16.19 4.52 C 16.15 4.05 16.09 3.13 16.05 2.67 C 19.74 4.30 23.83 4.43 27.79 4.23 C 27.32 2.82 26.84 1.41 26.36 0.00 Z" />
</g>
<g id="#3c6cbfff">
<path fill="#3c6cbf" opacity="1.00" d=" M 70.21 0.00 L 85.35 0.00 C 81.94 3.40 77.15 3.43 72.67 3.48 C 75.09 4.26 77.46 5.45 80.03 5.66 C 83.73 4.14 86.73 0.96 91.04 0.98 C 95.13 1.79 98.05 5.65 102.33 5.75 C 105.43 6.01 108.54 6.12 111.64 6.07 C 111.67 6.57 111.74 7.57 111.78 8.07 C 111.82 8.44 111.90 9.17 111.94 9.54 C 108.70 9.70 105.40 9.64 102.21 10.32 C 99.65 11.32 97.95 13.65 95.92 15.39 C 101.35 14.38 106.68 12.80 112.20 12.29 C 112.38 14.34 112.57 16.39 112.77 18.43 C 112.64 20.29 114.07 21.68 115.69 22.31 C 114.61 22.78 113.55 23.27 112.49 23.77 C 114.92 24.20 117.36 24.63 119.82 24.85 C 119.49 24.04 118.85 22.41 118.53 21.60 C 120.55 21.20 122.58 20.81 124.61 20.42 C 124.57 21.22 124.49 22.81 124.44 23.61 C 128.06 16.23 129.66 7.73 126.21 0.00 L 138.34 0.00 C 137.75 0.55 136.57 1.65 135.98 2.19 C 133.53 2.17 131.09 2.17 128.65 2.29 C 131.25 3.27 133.80 4.62 136.60 4.97 C 138.45 3.59 139.81 1.67 141.38 0.00 L 151.42 0.00 C 152.82 1.77 153.88 4.10 156.00 5.11 C 159.86 5.80 163.79 6.14 167.71 6.13 C 167.75 6.63 167.82 7.62 167.86 8.12 L 167.95 8.96 C 162.51 9.38 156.34 9.11 152.42 13.64 C 157.67 12.96 162.87 11.97 168.13 11.44 C 168.15 13.38 168.19 17.25 168.21 19.19 C 168.41 19.72 168.83 20.77 169.03 21.30 C 169.82 22.09 170.73 22.69 171.77 23.10 C 170.74 23.51 169.72 23.93 168.71 24.36 C 170.69 25.15 172.68 25.95 174.66 26.75 C 174.74 25.84 174.82 24.92 174.87 24.01 C 174.67 23.76 174.27 23.26 174.07 23.01 C 175.74 23.07 177.34 22.49 178.76 21.65 C 179.99 22.58 181.24 23.49 182.51 24.39 C 182.98 21.87 183.10 19.31 183.32 16.77 C 183.37 16.20 183.48 15.08 183.53 14.51 C 183.79 11.30 184.03 8.08 184.28 4.87 C 184.42 3.57 184.04 2.43 183.15 1.43 C 182.92 1.07 182.45 0.36 182.21 0.00 L 197.35 0.00 C 193.94 3.40 189.14 3.43 184.67 3.48 C 187.09 4.26 189.46 5.45 192.03 5.66 C 195.73 4.14 198.72 0.96 203.04 0.98 C 207.12 1.82 210.06 5.58 214.34 5.73 C 217.55 6.06 220.78 6.21 224.00 6.38 L 224.00 9.31 C 220.50 9.62 216.88 9.56 213.50 10.55 C 211.32 11.75 209.79 13.82 208.00 15.50 C 213.47 14.89 218.49 12.26 224.00 11.88 L 224.00 27.69 C 219.30 28.00 214.50 26.94 211.93 22.72 C 214.69 21.15 217.49 19.65 220.28 18.12 C 216.82 18.82 213.37 19.56 209.91 20.27 C 212.21 25.09 217.25 29.32 215.78 35.12 C 213.53 34.15 211.28 33.19 209.04 32.19 C 208.76 33.11 208.48 34.02 208.20 34.93 C 212.91 36.85 217.83 38.13 222.75 39.39 C 221.16 37.47 217.90 36.03 218.15 33.22 C 219.51 30.91 222.03 29.63 224.00 27.90 L 224.00 45.13 C 215.55 44.83 206.98 42.40 198.56 44.33 C 201.91 45.20 205.28 45.97 208.67 46.65 C 213.73 47.92 218.94 46.19 224.00 45.90 L 224.00 50.54 C 220.99 51.14 218.02 51.81 214.98 52.18 C 214.65 52.06 214.00 51.82 213.68 51.70 C 212.24 53.11 210.84 54.55 209.45 56.00 L 205.30 56.00 C 200.43 53.88 195.87 51.17 191.25 48.57 C 196.11 43.46 198.97 36.09 206.35 33.90 C 204.89 31.32 203.57 28.66 201.94 26.19 C 202.28 28.30 202.69 30.41 203.13 32.50 C 198.39 35.00 192.86 35.03 187.96 32.87 C 185.31 25.17 193.97 27.36 197.85 26.33 C 197.34 22.44 199.80 19.40 202.73 17.19 C 198.57 18.08 194.31 17.83 190.18 16.94 C 192.81 18.78 195.28 20.87 197.21 23.45 C 193.27 24.81 189.32 26.13 185.31 27.29 C 185.59 30.06 185.89 32.83 186.17 35.61 C 189.11 35.88 192.05 36.16 195.00 36.46 C 194.98 41.71 191.60 45.49 187.81 48.52 C 191.68 50.64 195.61 52.63 199.47 54.77 C 198.11 55.20 196.75 55.61 195.38 56.00 L 181.31 56.00 C 179.45 54.09 178.02 50.98 175.12 50.59 C 172.52 50.62 169.94 50.75 167.37 50.98 C 164.13 51.45 160.98 52.25 157.85 53.15 C 156.20 53.35 154.57 54.24 154.25 56.00 L 150.16 56.00 C 144.06 51.94 138.11 46.06 130.19 46.75 C 132.74 49.11 135.45 51.30 138.03 53.64 C 138.16 52.36 138.29 51.08 138.42 49.80 C 140.83 51.01 143.23 52.27 145.62 53.53 C 144.00 54.15 140.76 55.38 139.14 56.00 L 124.64 56.00 L 124.16 55.03 C 123.27 53.43 122.82 51.41 121.48 50.15 C 118.19 49.58 114.81 50.33 111.51 50.62 C 108.65 51.00 105.85 51.63 103.01 52.06 C 102.69 51.98 102.05 51.82 101.74 51.74 C 100.23 53.17 98.74 54.62 97.19 56.00 L 69.44 56.00 C 67.53 54.03 65.48 52.18 63.07 50.84 C 61.86 50.35 60.63 49.91 59.40 49.51 C 60.63 48.55 61.84 47.55 63.05 46.56 C 61.88 45.71 60.72 44.86 59.56 44.00 C 58.98 46.03 58.29 48.04 57.60 50.04 C 57.00 50.21 55.80 50.55 55.20 50.72 C 52.01 51.49 48.73 52.22 45.91 54.00 C 46.49 52.90 47.06 51.79 47.60 50.67 L 46.41 50.96 C 45.29 51.21 44.16 51.45 43.03 51.68 C 42.76 52.36 42.23 53.71 41.97 54.39 C 41.60 54.79 40.86 55.60 40.48 56.00 L 28.05 56.00 C 27.94 54.24 27.82 52.47 27.71 50.71 C 26.98 52.47 26.27 54.23 25.56 56.00 L 15.56 56.00 C 13.01 53.81 10.48 51.58 7.77 49.57 C 7.76 48.93 7.75 48.29 7.74 47.65 C 9.13 47.52 11.91 47.28 13.30 47.15 C 11.17 43.81 10.37 39.82 11.16 35.93 C 7.45 36.38 3.72 36.75 0.00 37.12 L 0.00 22.19 L 0.67 22.42 C 1.62 22.75 2.57 23.08 3.53 23.40 C 2.68 24.31 1.82 25.22 0.97 26.14 C 3.27 26.19 5.57 26.27 7.87 26.37 C 7.55 25.67 6.92 24.26 6.60 23.55 C 8.18 23.18 9.74 22.74 11.30 22.29 L 11.54 22.63 L 11.92 23.16 C 12.24 23.61 12.86 24.51 13.18 24.96 C 13.80 24.86 15.06 24.65 15.69 24.54 C 15.46 21.87 15.23 19.21 15.13 16.53 C 15.11 15.96 15.08 14.83 15.06 14.26 C 15.11 14.23 15.21 14.18 15.26 14.15 C 16.05 14.50 16.85 14.87 17.64 15.25 C 17.15 11.67 16.67 8.09 16.19 4.52 C 18.61 5.41 21.08 6.44 23.69 6.54 C 27.94 5.78 31.70 1.55 36.26 4.35 C 42.48 6.96 49.16 7.07 55.74 6.08 C 55.77 6.58 55.82 7.59 55.85 8.09 C 55.88 8.76 55.95 10.12 55.98 10.79 C 51.88 10.64 47.79 10.54 43.69 10.38 C 43.93 11.44 44.17 12.51 44.41 13.57 C 42.86 14.50 41.34 15.47 39.80 16.41 C 45.23 15.67 50.54 14.26 55.95 13.38 C 55.89 14.40 55.77 16.43 55.72 17.44 C 51.11 18.69 46.53 20.04 41.94 21.33 C 44.27 26.12 49.21 30.35 47.80 36.12 C 45.54 35.15 43.28 34.19 41.04 33.19 C 40.76 34.11 40.48 35.02 40.20 35.94 C 44.91 37.85 49.82 39.12 54.72 40.40 C 52.87 38.33 49.61 36.58 50.06 33.37 C 53.37 30.72 57.16 28.78 60.89 26.80 C 56.65 27.26 52.37 28.44 48.10 27.90 C 45.52 27.53 43.59 23.83 46.16 22.19 C 50.21 18.87 55.50 21.81 59.76 23.22 C 58.70 23.74 57.65 24.27 56.60 24.81 C 59.12 25.03 61.65 25.22 64.18 25.34 C 63.63 24.73 62.53 23.52 61.98 22.91 C 63.66 23.10 65.26 22.43 66.72 21.68 C 67.97 22.60 69.24 23.50 70.51 24.39 C 70.96 21.87 71.13 19.32 71.35 16.78 C 71.41 16.22 71.51 15.10 71.56 14.54 C 71.83 11.32 72.01 8.09 72.26 4.86 C 72.40 3.57 72.03 2.43 71.13 1.43 C 70.90 1.07 70.44 0.36 70.21 0.00 M 138.72 9.42 C 141.11 10.62 143.56 11.70 146.04 12.73 C 145.38 14.02 144.71 15.31 144.06 16.61 C 147.06 16.49 150.07 16.60 153.07 16.79 C 149.07 15.53 146.25 12.58 144.60 8.80 C 142.64 9.07 140.68 9.24 138.72 9.42 M 21.89 19.20 C 23.54 20.22 25.22 21.21 26.89 22.20 C 26.93 22.88 26.99 24.25 27.03 24.94 C 23.95 26.26 20.96 27.76 17.89 29.09 C 18.21 29.57 18.84 30.53 19.16 31.01 C 22.27 28.65 25.91 26.97 29.91 27.26 C 29.13 25.87 28.37 24.48 27.61 23.08 C 31.68 20.62 36.42 19.82 41.08 20.75 C 38.93 19.55 36.80 18.30 34.72 16.99 C 31.37 20.76 26.36 19.51 21.89 19.20 M 77.78 17.11 C 79.82 18.17 81.87 19.20 83.93 20.22 C 83.98 21.49 84.02 22.75 84.06 24.02 C 80.52 25.05 77.01 26.22 73.46 27.21 C 73.77 30.07 73.96 32.94 74.19 35.81 C 76.68 35.96 79.18 36.11 81.68 36.26 C 82.12 39.32 82.63 42.36 83.15 45.40 C 85.01 40.13 88.29 35.07 94.47 34.37 C 93.08 31.51 91.84 28.53 89.67 26.15 C 90.13 28.19 90.65 30.22 91.19 32.24 C 86.36 35.65 80.64 34.28 75.32 32.95 C 74.27 25.23 82.50 26.42 87.05 26.48 C 86.27 25.31 85.49 24.13 84.72 22.95 C 86.77 20.95 88.85 18.98 91.03 17.12 C 86.67 18.35 82.16 17.92 77.78 17.11 M 154.04 19.05 C 155.29 23.03 157.86 26.22 160.55 29.34 C 160.32 30.81 159.78 32.21 159.34 33.63 C 156.50 32.63 153.52 31.89 150.49 32.33 C 149.89 30.66 149.47 28.94 149.09 27.21 C 148.19 26.68 147.27 26.16 146.36 25.65 C 147.01 27.49 147.69 29.32 148.34 31.16 C 142.18 35.24 134.77 33.73 128.35 31.25 C 130.39 34.73 133.55 37.28 138.04 36.80 C 137.61 39.72 137.12 42.64 136.60 45.54 C 137.72 45.60 138.84 45.65 139.96 45.71 C 141.00 40.91 142.29 34.89 148.19 34.22 C 154.57 34.64 160.70 36.93 166.97 38.20 C 164.89 36.38 160.92 34.76 162.17 31.32 C 164.30 27.53 168.78 28.64 172.13 29.72 C 172.06 29.08 171.92 27.79 171.85 27.14 C 166.77 26.66 161.51 26.56 156.81 24.35 C 156.86 23.49 156.95 21.78 157.00 20.93 C 159.42 19.79 161.83 18.61 164.26 17.48 C 160.85 18.01 157.44 18.53 154.04 19.05 M 98.04 20.05 C 99.29 24.03 101.87 27.23 104.55 30.34 C 104.32 31.97 103.65 33.50 103.16 35.06 C 101.14 34.08 99.13 33.09 97.13 32.08 C 96.81 33.00 96.50 33.92 96.18 34.83 C 100.83 37.10 105.90 38.11 110.91 39.21 C 108.47 37.44 106.35 35.28 105.26 32.42 C 108.21 30.74 111.14 29.01 114.10 27.33 C 109.58 27.41 104.89 27.61 100.82 25.32 C 100.87 24.47 100.96 22.78 101.00 21.93 C 103.42 20.78 105.83 19.61 108.26 18.48 C 104.85 19.01 101.44 19.53 98.04 20.05 M 122.14 22.11 C 120.82 22.80 120.81 23.47 122.11 24.14 C 123.43 23.46 123.44 22.78 122.14 22.11 M 66.14 23.11 C 64.82 23.80 64.81 24.47 66.11 25.14 C 67.43 24.46 67.44 23.78 66.14 23.11 M 178.14 23.11 C 176.82 23.80 176.81 24.47 178.11 25.14 C 179.43 24.46 179.44 23.78 178.14 23.11 M 10.14 24.11 C 8.82 24.80 8.81 25.47 10.11 26.14 C 11.43 25.46 11.44 24.78 10.14 24.11 M 32.37 27.61 C 33.02 29.47 33.68 31.33 34.35 33.18 C 30.37 36.01 25.71 35.35 21.37 33.83 C 18.75 32.52 16.53 34.79 14.45 36.06 C 18.95 37.18 23.46 38.30 27.90 39.64 C 26.85 41.73 25.83 43.83 24.90 45.96 C 28.82 45.68 30.31 42.17 31.24 38.88 C 31.86 35.69 36.30 36.73 38.34 35.79 C 36.75 33.85 35.54 31.63 34.82 29.23 C 34.01 28.68 33.19 28.14 32.37 27.61 M 60.03 38.87 C 62.12 41.29 64.52 43.41 67.00 45.40 C 66.03 43.34 64.97 41.33 63.97 39.29 C 65.27 38.24 66.44 37.02 67.52 35.74 C 64.97 36.66 62.45 37.66 60.03 38.87 M 171.38 40.81 C 174.28 42.29 177.08 44.07 180.32 44.72 C 179.12 43.95 177.92 43.21 176.73 42.44 C 177.77 40.03 178.92 37.66 180.02 35.27 C 176.24 35.52 173.06 37.54 171.38 40.81 M 13.20 38.31 C 11.73 38.29 11.73 40.71 13.20 40.69 C 14.67 40.74 14.67 38.26 13.20 38.31 M 103.28 38.69 C 102.45 40.60 101.62 42.50 100.81 44.42 C 96.07 43.89 91.21 42.67 86.55 44.45 C 90.95 45.33 95.51 45.75 99.60 47.73 C 103.75 46.56 108.01 45.96 112.26 45.31 C 109.28 44.95 106.30 44.60 103.34 44.10 C 103.33 42.29 103.32 40.49 103.28 38.69 M 155.00 44.16 C 152.71 44.89 150.62 43.40 148.60 42.56 C 148.41 43.28 148.22 44.00 148.03 44.72 C 152.36 46.51 157.07 47.79 161.38 45.17 C 161.05 43.19 160.79 41.19 160.64 39.19 C 158.92 40.97 157.50 43.41 155.00 44.16 M 34.87 42.83 C 33.57 43.81 32.24 44.76 30.88 45.66 C 35.52 44.96 40.48 45.62 43.82 49.22 C 44.61 48.29 45.41 47.36 46.22 46.43 C 49.62 46.66 53.01 46.73 56.41 46.79 C 52.93 45.93 49.42 45.17 45.95 44.23 C 46.30 42.86 46.66 41.49 47.03 40.13 C 44.13 43.74 38.96 45.57 34.87 42.83 M 113.52 43.56 C 113.39 45.04 113.26 46.52 113.13 48.00 C 114.56 47.94 115.99 47.88 117.42 47.82 C 116.17 46.36 114.88 44.93 113.52 43.56 M 163.97 44.23 C 163.65 46.01 167.35 46.01 167.03 44.23 C 166.42 43.17 164.57 43.17 163.97 44.23 Z" />
</g>
<g id="#4179cbff">
<path fill="#4179cb" opacity="1.00" d=" M 85.35 0.00 L 93.88 0.00 C 99.35 3.68 106.00 3.48 112.34 3.56 L 112.47 4.34 C 112.26 4.77 111.85 5.64 111.64 6.07 C 108.54 6.12 105.43 6.01 102.33 5.75 C 98.05 5.65 95.13 1.79 91.04 0.98 C 86.73 0.96 83.73 4.14 80.03 5.66 C 77.46 5.45 75.09 4.26 72.67 3.48 C 77.15 3.43 81.94 3.40 85.35 0.00 Z" />
<path fill="#4179cb" opacity="1.00" d=" M 197.35 0.00 L 205.88 0.00 C 211.26 3.58 217.77 3.49 224.00 3.66 L 224.00 6.38 C 220.78 6.21 217.55 6.06 214.34 5.73 C 210.06 5.58 207.12 1.82 203.04 0.98 C 198.72 0.96 195.73 4.14 192.03 5.66 C 189.46 5.45 187.09 4.26 184.67 3.48 C 189.14 3.43 193.94 3.40 197.35 0.00 Z" />
</g>
<g id="#3c6abefe">
<path fill="#3c6abe" opacity="1.00" d=" M 93.88 0.00 L 111.80 0.00 C 111.94 0.89 112.21 2.67 112.34 3.56 C 106.00 3.48 99.35 3.68 93.88 0.00 Z" />
<path fill="#3c6abe" opacity="1.00" d=" M 205.88 0.00 L 224.00 0.00 L 224.00 3.66 C 217.77 3.49 211.26 3.58 205.88 0.00 Z" />
</g>
<g id="#332e2aff">
<path fill="#332e2a" opacity="1.00" d=" M 122.24 0.00 L 124.93 0.00 C 124.90 0.57 124.85 1.70 124.82 2.26 C 124.34 5.74 123.71 9.21 123.60 12.73 C 124.27 10.43 124.97 8.13 125.44 5.78 C 125.66 7.05 126.10 9.58 126.32 10.84 C 125.74 12.40 125.05 13.91 124.31 15.41 C 124.07 15.74 123.57 16.41 123.32 16.75 C 122.37 14.22 121.46 11.67 120.59 9.11 C 119.99 9.21 118.79 9.40 118.18 9.50 C 118.81 12.93 119.42 16.37 120.02 19.81 C 119.46 20.23 118.33 21.09 117.77 21.51 C 117.55 20.91 117.11 19.70 116.89 19.10 C 117.26 17.50 115.36 16.59 114.31 17.83 L 113.96 17.98 C 113.66 18.09 113.06 18.32 112.77 18.43 C 112.57 16.39 112.38 14.34 112.20 12.29 C 112.14 11.61 112.01 10.23 111.94 9.54 C 111.90 9.17 111.82 8.44 111.78 8.07 L 112.46 8.11 C 112.90 8.12 113.77 8.15 114.20 8.16 C 116.46 8.16 118.71 8.04 120.97 7.97 C 121.24 6.06 121.46 4.14 121.75 2.24 C 121.88 1.68 122.12 0.56 122.24 0.00 M 115.97 11.50 C 116.76 14.22 117.86 16.83 119.09 19.37 C 118.62 16.53 117.44 13.93 115.97 11.50 Z" />
<path fill="#332e2a" opacity="1.00" d=" M 45.91 54.00 C 48.73 52.22 52.01 51.49 55.20 50.72 L 56.05 50.73 C 53.24 52.45 50.49 54.25 47.70 56.00 L 43.83 56.00 C 44.35 55.50 45.39 54.50 45.91 54.00 Z" />
<path fill="#332e2a" opacity="1.00" d=" M 103.01 52.06 C 105.85 51.63 108.65 51.00 111.51 50.62 L 112.23 50.93 C 109.35 52.57 106.53 54.29 103.69 56.00 L 100.90 56.00 L 100.87 55.53 C 101.93 54.56 102.64 53.41 103.01 52.06 Z" />
<path fill="#332e2a" opacity="1.00" d=" M 157.85 53.15 C 160.98 52.25 164.13 51.45 167.37 50.98 L 168.15 50.90 C 165.22 52.47 162.42 54.24 159.60 56.00 L 156.62 56.00 C 156.93 55.29 157.54 53.86 157.85 53.15 Z" />
<path fill="#332e2a" opacity="1.00" d=" M 214.98 52.18 C 218.02 51.81 220.99 51.14 224.00 50.54 L 224.00 51.11 C 221.25 52.74 218.53 54.39 215.77 56.00 L 212.88 56.00 L 212.87 55.53 C 213.90 54.60 214.60 53.49 214.98 52.18 Z" />
</g>
<g id="#268dd8ff">
<path fill="#268dd8" opacity="1.00" d=" M 124.93 0.00 L 126.21 0.00 C 129.66 7.73 128.06 16.23 124.44 23.61 C 124.49 22.81 124.57 21.22 124.61 20.42 C 124.76 18.16 125.19 15.93 125.58 13.70 C 125.27 14.12 124.63 14.98 124.31 15.41 C 125.05 13.91 125.74 12.40 126.32 10.84 C 126.10 9.58 125.66 7.05 125.44 5.78 C 125.23 4.61 125.02 3.43 124.82 2.26 C 124.85 1.70 124.90 0.57 124.93 0.00 Z" />
</g>
<g id="#4476cbff">
<path fill="#4476cb" opacity="1.00" d=" M 138.34 0.00 L 141.38 0.00 C 139.81 1.67 138.45 3.59 136.60 4.97 C 133.80 4.62 131.25 3.27 128.65 2.29 C 131.09 2.17 133.53 2.17 135.98 2.19 C 136.57 1.65 137.75 0.55 138.34 0.00 Z" />
</g>
<g id="#4079ccff">
<path fill="#4079cc" opacity="1.00" d=" M 151.42 0.00 L 154.75 0.00 C 156.06 1.27 157.30 2.62 158.54 3.96 C 161.79 3.79 165.06 3.63 168.32 3.43 L 168.45 4.33 C 168.26 4.78 167.89 5.68 167.71 6.13 C 163.79 6.14 159.86 5.80 156.00 5.11 C 153.88 4.10 152.82 1.77 151.42 0.00 Z" />
</g>
<g id="#86a0b1ff">
<path fill="#86a0b1" opacity="1.00" d=" M 16.19 4.52 C 13.93 4.60 13.42 1.90 15.28 0.86 C 15.48 1.31 15.86 2.22 16.05 2.67 C 16.09 3.13 16.15 4.05 16.19 4.52 Z" />
</g>
<g id="#709e5cff">
<path fill="#709e5c" opacity="1.00" d=" M 3.79 3.80 C 5.85 3.33 7.90 2.80 9.95 2.28 C 9.53 4.02 9.25 5.82 8.51 7.45 C 6.52 8.25 4.34 8.33 2.23 8.21 C 2.75 6.74 3.27 5.27 3.79 3.80 Z" />
<path fill="#709e5c" opacity="1.00" d=" M 59.81 3.82 C 61.80 3.35 63.78 2.81 65.76 2.24 C 65.46 4.15 65.24 6.06 64.96 7.97 C 62.71 8.04 60.46 8.15 58.20 8.16 C 58.73 6.71 59.26 5.26 59.81 3.82 Z" />
<path fill="#709e5c" opacity="1.00" d=" M 115.80 3.82 C 117.80 3.35 119.78 2.81 121.75 2.24 C 121.46 4.14 121.24 6.06 120.97 7.97 C 118.71 8.04 116.46 8.16 114.20 8.16 C 114.73 6.71 115.26 5.26 115.80 3.82 Z" />
<path fill="#709e5c" opacity="1.00" d=" M 171.80 3.82 C 173.80 3.35 175.78 2.81 177.76 2.24 C 177.46 4.14 177.24 6.05 176.97 7.95 C 174.71 8.04 172.45 8.17 170.20 8.17 C 170.73 6.72 171.26 5.27 171.80 3.82 Z" />
</g>
<g id="#7392b4ff">
<path fill="#7392b4" opacity="1.00" d=" M 72.26 4.86 C 70.24 5.11 70.27 2.60 71.13 1.43 C 72.03 2.43 72.40 3.57 72.26 4.86 Z" />
<path fill="#7392b4" opacity="1.00" d=" M 184.28 4.87 C 182.26 5.11 182.28 2.60 183.15 1.43 C 184.04 2.43 184.42 3.57 184.28 4.87 Z" />
</g>
<g id="#645a4bff">
<path fill="#645a4b" opacity="1.00" d=" M 11.62 12.77 C 11.57 9.21 12.34 5.73 12.96 2.25 C 13.09 3.44 13.20 4.63 13.29 5.83 C 12.92 8.18 12.27 10.48 11.62 12.77 Z" />
<path fill="#645a4b" opacity="1.00" d=" M 67.59 12.75 C 67.69 9.21 68.45 5.74 69.00 2.26 C 69.14 3.44 69.25 4.62 69.35 5.80 C 68.95 8.16 68.26 10.46 67.59 12.75 Z" />
<path fill="#645a4b" opacity="1.00" d=" M 123.60 12.73 C 123.71 9.21 124.34 5.74 124.82 2.26 C 125.02 3.43 125.23 4.61 125.44 5.78 C 124.97 8.13 124.27 10.43 123.60 12.73 Z" />
<path fill="#645a4b" opacity="1.00" d=" M 179.59 12.75 C 179.69 9.21 180.45 5.74 181.00 2.26 C 181.14 3.44 181.25 4.62 181.35 5.80 C 180.95 8.16 180.26 10.46 179.59 12.75 Z" />
</g>
<g id="#5c8260ff">
<path fill="#5c8260" opacity="1.00" d=" M 0.00 4.33 C 1.27 5.06 2.19 7.00 0.71 8.05 L 0.00 7.96 L 0.00 4.33 Z" />
<path fill="#5c8260" opacity="1.00" d=" M 56.49 4.32 C 57.12 5.46 57.77 7.11 56.53 8.12 L 55.85 8.09 C 55.82 7.59 55.77 6.58 55.74 6.08 C 55.93 5.64 56.30 4.76 56.49 4.32 Z" />
<path fill="#5c8260" opacity="1.00" d=" M 112.47 4.34 C 113.05 5.49 113.64 7.10 112.46 8.11 L 111.78 8.07 C 111.74 7.57 111.67 6.57 111.64 6.07 C 111.85 5.64 112.26 4.77 112.47 4.34 Z" />
<path fill="#5c8260" opacity="1.00" d=" M 168.45 4.33 C 169.10 5.47 169.73 7.10 168.53 8.14 L 167.86 8.12 C 167.82 7.62 167.75 6.63 167.71 6.13 C 167.89 5.68 168.26 4.78 168.45 4.33 Z" />
</g>
<g id="#4377caff">
<path fill="#4377ca" opacity="1.00" d=" M 138.72 9.42 C 140.68 9.24 142.64 9.07 144.60 8.80 C 146.25 12.58 149.07 15.53 153.07 16.79 C 150.07 16.60 147.06 16.49 144.06 16.61 C 144.71 15.31 145.38 14.02 146.04 12.73 C 143.56 11.70 141.11 10.62 138.72 9.42 Z" />
</g>
<g id="#3f7bccff">
<path fill="#3f7bcc" opacity="1.00" d=" M 152.42 13.64 C 156.34 9.11 162.51 9.38 167.95 8.96 C 167.99 9.58 168.09 10.82 168.13 11.44 C 162.87 11.97 157.67 12.96 152.42 13.64 Z" />
</g>
<g id="#6c604cff">
<path fill="#6c604c" opacity="1.00" d=" M 6.24 9.49 C 6.94 9.36 8.34 9.09 9.03 8.96 C 9.66 12.62 10.25 16.30 10.63 20.00 L 9.99 20.47 C 9.51 20.82 8.55 21.52 8.06 21.87 C 7.51 17.74 6.88 13.61 6.24 9.49 Z" />
<path fill="#6c604c" opacity="1.00" d=" M 62.04 9.53 C 62.79 9.39 64.29 9.10 65.04 8.96 C 65.74 12.78 66.52 16.61 66.68 20.51 L 66.35 21.41 C 65.91 21.24 65.02 20.89 64.58 20.72 C 63.56 17.03 62.86 13.26 62.04 9.53 Z" />
<path fill="#6c604c" opacity="1.00" d=" M 174.04 9.53 C 174.79 9.39 176.29 9.10 177.04 8.96 C 177.73 12.78 178.52 16.60 178.69 20.48 L 178.37 21.37 C 177.93 21.20 177.03 20.87 176.58 20.71 C 175.57 17.02 174.85 13.26 174.04 9.53 Z" />
</g>
<g id="#427bcbff">
<path fill="#427bcb" opacity="1.00" d=" M 102.21 10.32 C 105.40 9.64 108.70 9.70 111.94 9.54 C 112.01 10.23 112.14 11.61 112.20 12.29 C 106.68 12.80 101.35 14.38 95.92 15.39 C 97.95 13.65 99.65 11.32 102.21 10.32 Z" />
<path fill="#427bcb" opacity="1.00" d=" M 213.50 10.55 C 216.88 9.56 220.50 9.62 224.00 9.31 L 224.00 11.88 C 218.49 12.26 213.47 14.89 208.00 15.50 C 209.79 13.82 211.32 11.75 213.50 10.55 Z" />
</g>
<g id="#6c5f4bff">
<path fill="#6c5f4b" opacity="1.00" d=" M 118.18 9.50 C 118.79 9.40 119.99 9.21 120.59 9.11 C 121.46 11.67 122.37 14.22 123.32 16.75 C 122.32 17.87 121.20 18.88 120.02 19.81 C 119.42 16.37 118.81 12.93 118.18 9.50 Z" />
</g>
<g id="#437cccff">
<path fill="#437ccc" opacity="1.00" d=" M 43.69 10.38 C 47.79 10.54 51.88 10.64 55.98 10.79 C 55.97 11.44 55.96 12.74 55.95 13.38 C 50.54 14.26 45.23 15.67 39.80 16.41 C 41.34 15.47 42.86 14.50 44.41 13.57 C 44.17 12.51 43.93 11.44 43.69 10.38 Z" />
</g>
<g id="#565249ff">
<path fill="#565249" opacity="1.00" d=" M 3.97 11.50 C 5.43 13.93 6.63 16.53 7.09 19.37 C 5.86 16.83 4.76 14.22 3.97 11.50 Z" />
<path fill="#565249" opacity="1.00" d=" M 59.97 11.50 C 61.44 13.93 62.63 16.53 63.09 19.37 C 61.86 16.83 60.76 14.22 59.97 11.50 Z" />
<path fill="#565249" opacity="1.00" d=" M 115.97 11.50 C 117.44 13.93 118.62 16.53 119.09 19.37 C 117.86 16.83 116.76 14.22 115.97 11.50 Z" />
<path fill="#565249" opacity="1.00" d=" M 171.97 11.50 C 173.44 13.93 174.61 16.53 175.09 19.37 C 173.86 16.83 172.76 14.22 171.97 11.50 Z" />
<path fill="#565249" opacity="1.00" d=" M 2.44 18.98 C 3.60 15.90 5.55 19.10 4.82 20.97 C 4.43 20.93 3.65 20.84 3.26 20.80 C 3.05 20.35 2.65 19.44 2.44 18.98 Z" />
<path fill="#565249" opacity="1.00" d=" M 58.94 19.45 C 57.93 16.63 61.21 17.41 60.99 19.69 C 60.63 19.77 59.92 19.94 59.57 20.02 L 58.94 19.45 Z" />
<path fill="#565249" opacity="1.00" d=" M 170.82 19.41 C 169.91 16.60 173.12 17.42 172.98 19.64 C 172.62 19.71 171.90 19.85 171.54 19.92 L 170.82 19.41 Z" />
</g>
<g id="#709fc2fe">
<path fill="#709fc2" opacity="1.00" d=" M 12.07 18.63 C 12.33 16.78 13.26 14.99 15.06 14.26 C 15.08 14.83 15.11 15.96 15.13 16.53 C 14.32 17.63 13.08 18.28 11.97 19.03 L 12.07 18.63 Z" />
</g>
<g id="#7ca2beff">
<path fill="#7ca2be" opacity="1.00" d=" M 67.97 17.18 C 68.91 15.99 70.17 15.12 71.56 14.54 C 71.51 15.10 71.41 16.22 71.35 16.78 C 70.29 17.47 69.11 17.74 67.84 17.57 L 67.97 17.18 Z" />
<path fill="#7ca2be" opacity="1.00" d=" M 179.95 17.19 C 180.90 16.01 182.13 15.09 183.53 14.51 C 183.48 15.08 183.37 16.20 183.32 16.77 C 182.26 17.47 181.09 17.74 179.82 17.57 L 179.95 17.19 Z" />
</g>
<g id="#7fa1b9ff">
<path fill="#7fa1b9" opacity="1.00" d=" M 124.31 15.41 C 124.63 14.98 125.27 14.12 125.58 13.70 C 125.19 15.93 124.76 18.16 124.61 20.42 C 122.58 20.81 120.55 21.20 118.53 21.60 L 117.34 21.85 L 117.77 21.51 C 118.33 21.09 119.46 20.23 120.02 19.81 C 121.20 18.88 122.32 17.87 123.32 16.75 C 123.57 16.41 124.07 15.74 124.31 15.41 Z" />
</g>
<g id="#4378c9ff">
<path fill="#4378c9" opacity="1.00" d=" M 21.89 19.20 C 26.36 19.51 31.37 20.76 34.72 16.99 C 36.80 18.30 38.93 19.55 41.08 20.75 C 36.42 19.82 31.68 20.62 27.61 23.08 C 28.37 24.48 29.13 25.87 29.91 27.26 C 25.91 26.97 22.27 28.65 19.16 31.01 C 18.84 30.53 18.21 29.57 17.89 29.09 C 20.96 27.76 23.95 26.26 27.03 24.94 C 26.99 24.25 26.93 22.88 26.89 22.20 C 25.22 21.21 23.54 20.22 21.89 19.20 Z" />
</g>
<g id="#2a8ad7ff">
<path fill="#2a8ad7" opacity="1.00" d=" M 11.97 19.03 C 13.08 18.28 14.32 17.63 15.13 16.53 C 15.23 19.21 15.46 21.87 15.69 24.54 C 15.06 24.65 13.80 24.86 13.18 24.96 C 12.86 24.51 12.24 23.61 11.92 23.16 C 13.19 23.08 13.83 22.46 13.85 21.28 C 13.10 19.72 11.44 21.51 11.54 22.63 L 11.30 22.29 C 10.97 21.83 10.32 20.92 9.99 20.47 L 10.63 20.00 C 10.97 19.76 11.63 19.27 11.97 19.03 Z" />
</g>
<g id="#417acbff">
<path fill="#417acb" opacity="1.00" d=" M 41.94 21.33 C 46.53 20.04 51.11 18.69 55.72 17.44 C 56.59 18.01 57.47 18.56 58.35 19.11 C 56.38 20.45 57.84 22.86 59.76 23.22 C 55.50 21.81 50.21 18.87 46.16 22.19 C 43.59 23.83 45.52 27.53 48.10 27.90 C 52.37 28.44 56.65 27.26 60.89 26.80 C 57.16 28.78 53.37 30.72 50.06 33.37 C 49.61 36.58 52.87 38.33 54.72 40.40 C 49.82 39.12 44.91 37.85 40.20 35.94 C 40.48 35.02 40.76 34.11 41.04 33.19 C 43.28 34.19 45.54 35.15 47.80 36.12 C 49.21 30.35 44.27 26.12 41.94 21.33 Z" />
</g>
<g id="#3893d8ff">
<path fill="#3893d8" opacity="1.00" d=" M 67.84 17.57 C 69.11 17.74 70.29 17.47 71.35 16.78 C 71.13 19.32 70.96 21.87 70.51 24.39 C 69.24 23.50 67.97 22.60 66.72 21.68 L 66.35 21.41 L 66.68 20.51 C 67.07 19.53 67.46 18.55 67.84 17.57 Z" />
<path fill="#3893d8" opacity="1.00" d=" M 179.82 17.57 C 181.09 17.74 182.26 17.47 183.32 16.77 C 183.10 19.31 182.98 21.87 182.51 24.39 C 181.24 23.49 179.99 22.58 178.76 21.65 L 178.37 21.37 L 178.69 20.48 C 179.07 19.52 179.45 18.55 179.82 17.57 Z" />
</g>
<g id="#4478caff">
<path fill="#4478ca" opacity="1.00" d=" M 77.78 17.11 C 82.16 17.92 86.67 18.35 91.03 17.12 C 88.85 18.98 86.77 20.95 84.72 22.95 C 85.49 24.13 86.27 25.31 87.05 26.48 C 82.50 26.42 74.27 25.23 75.32 32.95 C 80.64 34.28 86.36 35.65 91.19 32.24 C 90.65 30.22 90.13 28.19 89.67 26.15 C 91.84 28.53 93.08 31.51 94.47 34.37 C 88.29 35.07 85.01 40.13 83.15 45.40 C 82.63 42.36 82.12 39.32 81.68 36.26 C 79.18 36.11 76.68 35.96 74.19 35.81 C 73.96 32.94 73.77 30.07 73.46 27.21 C 77.01 26.22 80.52 25.05 84.06 24.02 C 84.02 22.75 83.98 21.49 83.93 20.22 C 81.87 19.20 79.82 18.17 77.78 17.11 Z" />
</g>
<g id="#4a463eff">
<path fill="#4a463e" opacity="1.00" d=" M 114.31 17.83 C 115.36 16.59 117.26 17.50 116.89 19.10 C 116.25 18.78 114.96 18.15 114.31 17.83 Z" />
</g>
<g id="#4479cbff">
<path fill="#4479cb" opacity="1.00" d=" M 154.04 19.05 C 157.44 18.53 160.85 18.01 164.26 17.48 C 161.83 18.61 159.42 19.79 157.00 20.93 C 156.95 21.78 156.86 23.49 156.81 24.35 C 161.51 26.56 166.77 26.66 171.85 27.14 C 171.92 27.79 172.06 29.08 172.13 29.72 C 168.78 28.64 164.30 27.53 162.17 31.32 C 160.92 34.76 164.89 36.38 166.97 38.20 C 160.70 36.93 154.57 34.64 148.19 34.22 C 142.29 34.89 141.00 40.91 139.96 45.71 C 138.84 45.65 137.72 45.60 136.60 45.54 C 137.12 42.64 137.61 39.72 138.04 36.80 C 133.55 37.28 130.39 34.73 128.35 31.25 C 134.77 33.73 142.18 35.24 148.34 31.16 C 147.69 29.32 147.01 27.49 146.36 25.65 C 147.27 26.16 148.19 26.68 149.09 27.21 C 149.47 28.94 149.89 30.66 150.49 32.33 C 153.52 31.89 156.50 32.63 159.34 33.63 C 159.78 32.21 160.32 30.81 160.55 29.34 C 157.86 26.22 155.29 23.03 154.04 19.05 Z" />
</g>
<g id="#4378caff">
<path fill="#4378ca" opacity="1.00" d=" M 190.18 16.94 C 194.31 17.83 198.57 18.08 202.73 17.19 C 199.80 19.40 197.34 22.44 197.85 26.33 C 193.97 27.36 185.31 25.17 187.96 32.87 C 192.86 35.03 198.39 35.00 203.13 32.50 C 202.69 30.41 202.28 28.30 201.94 26.19 C 203.57 28.66 204.89 31.32 206.35 33.90 C 198.97 36.09 196.11 43.46 191.25 48.57 C 195.87 51.17 200.43 53.88 205.30 56.00 L 195.38 56.00 C 196.75 55.61 198.11 55.20 199.47 54.77 C 195.61 52.63 191.68 50.64 187.81 48.52 C 191.60 45.49 194.98 41.71 195.00 36.46 C 192.05 36.16 189.11 35.88 186.17 35.61 C 185.89 32.83 185.59 30.06 185.31 27.29 C 189.32 26.13 193.27 24.81 197.21 23.45 C 195.28 20.87 192.81 18.78 190.18 16.94 Z" />
</g>
<g id="#4379caff">
<path fill="#4379ca" opacity="1.00" d=" M 98.04 20.05 C 101.44 19.53 104.85 19.01 108.26 18.48 C 105.83 19.61 103.42 20.78 101.00 21.93 C 100.96 22.78 100.87 24.47 100.82 25.32 C 104.89 27.61 109.58 27.41 114.10 27.33 C 111.14 29.01 108.21 30.74 105.26 32.42 C 106.35 35.28 108.47 37.44 110.91 39.21 C 105.90 38.11 100.83 37.10 96.18 34.83 C 96.50 33.92 96.81 33.00 97.13 32.08 C 99.13 33.09 101.14 34.08 103.16 35.06 C 103.65 33.50 104.32 31.97 104.55 30.34 C 101.87 27.23 99.29 24.03 98.04 20.05 Z" />
<path fill="#4379ca" opacity="1.00" d=" M 209.91 20.27 C 213.37 19.56 216.82 18.82 220.28 18.12 C 217.49 19.65 214.69 21.15 211.93 22.72 C 214.50 26.94 219.30 28.00 224.00 27.69 L 224.00 27.90 C 222.03 29.63 219.51 30.91 218.15 33.22 C 217.90 36.03 221.16 37.47 222.75 39.39 C 217.83 38.13 212.91 36.85 208.20 34.93 C 208.48 34.02 208.76 33.11 209.04 32.19 C 211.28 33.19 213.53 34.15 215.78 35.12 C 217.25 29.32 212.21 25.09 209.91 20.27 Z" />
</g>
<g id="#9cb3c7fe">
<path fill="#9cb3c7" opacity="1.00" d=" M 112.77 18.43 C 113.06 18.32 113.66 18.09 113.96 17.98 C 114.89 19.24 115.46 20.72 116.11 22.14 L 115.69 22.31 C 114.07 21.68 112.64 20.29 112.77 18.43 Z" />
<path fill="#9cb3c7" opacity="1.00" d=" M 58.35 19.11 L 58.94 19.45 L 59.57 20.02 C 59.61 21.05 59.83 22.05 60.22 23.00 L 59.76 23.22 C 57.84 22.86 56.38 20.45 58.35 19.11 Z" />
<path fill="#9cb3c7" opacity="1.00" d=" M 170.08 19.27 L 170.82 19.41 L 171.54 19.92 C 171.71 20.93 171.96 21.93 172.30 22.91 L 171.77 23.10 C 170.73 22.69 169.82 22.09 169.03 21.30 C 169.30 20.79 169.82 19.78 170.08 19.27 Z" />
</g>
<g id="#5688bafe">
<path fill="#5688ba" opacity="1.00" d=" M 113.96 17.98 L 114.31 17.83 C 114.96 18.15 116.25 18.78 116.89 19.10 C 117.11 19.70 117.55 20.91 117.77 21.51 L 117.34 21.85 C 117.03 21.92 116.42 22.07 116.11 22.14 C 115.46 20.72 114.89 19.24 113.96 17.98 Z" />
</g>
<g id="#9eb5caff">
<path fill="#9eb5ca" opacity="1.00" d=" M 1.79 20.17 C 1.95 19.87 2.28 19.28 2.44 18.98 C 2.65 19.44 3.05 20.35 3.26 20.80 C 3.51 21.76 3.83 22.70 4.22 23.62 L 3.53 23.40 C 2.57 23.08 1.62 22.75 0.67 22.42 C 0.95 21.86 1.51 20.73 1.79 20.17 Z" />
</g>
<g id="#268ed9ff">
<path fill="#268ed9" opacity="1.00" d=" M 168.21 19.19 C 168.68 19.21 169.62 19.25 170.08 19.27 C 169.82 19.78 169.30 20.79 169.03 21.30 C 168.83 20.77 168.41 19.72 168.21 19.19 Z" />
<path fill="#268ed9" opacity="1.00" d=" M 0.00 20.54 C 0.45 20.45 1.34 20.26 1.79 20.17 C 1.51 20.73 0.95 21.86 0.67 22.42 L 0.00 22.19 L 0.00 20.54 Z" />
</g>
<g id="#adc2d9ff">
<path fill="#adc2d9" opacity="1.00" d=" M 11.54 22.63 C 11.44 21.51 13.10 19.72 13.85 21.28 C 13.83 22.46 13.19 23.08 11.92 23.16 L 11.54 22.63 Z" />
</g>
<g id="#4f7baeff">
<path fill="#4f7bae" opacity="1.00" d=" M 59.57 20.02 C 59.92 19.94 60.63 19.77 60.99 19.69 C 61.19 20.21 61.58 21.26 61.78 21.78 L 61.53 22.41 C 61.20 22.56 60.55 22.85 60.22 23.00 C 59.83 22.05 59.61 21.05 59.57 20.02 Z" />
<path fill="#4f7bae" opacity="1.00" d=" M 171.54 19.92 C 171.90 19.85 172.62 19.71 172.98 19.64 C 173.19 20.21 173.62 21.36 173.83 21.93 L 173.61 22.55 C 173.28 22.64 172.63 22.82 172.30 22.91 C 171.96 21.93 171.71 20.93 171.54 19.92 Z" />
<path fill="#4f7bae" opacity="1.00" d=" M 3.26 20.80 C 3.65 20.84 4.43 20.93 4.82 20.97 C 5.12 21.58 5.72 22.80 6.02 23.40 L 5.60 23.74 C 5.25 23.71 4.56 23.65 4.22 23.62 C 3.83 22.70 3.51 21.76 3.26 20.80 Z" />
</g>
<g id="#8ea7b9ff">
<path fill="#8ea7b9" opacity="1.00" d=" M 8.06 21.87 C 8.55 21.52 9.51 20.82 9.99 20.47 C 10.32 20.92 10.97 21.83 11.30 22.29 C 9.74 22.74 8.18 23.18 6.60 23.55 L 5.60 23.74 L 6.02 23.40 C 6.53 23.02 7.55 22.25 8.06 21.87 Z" />
</g>
<g id="#8ba4b6fe">
<path fill="#8ba4b6" opacity="1.00" d=" M 61.78 21.78 C 62.48 21.52 63.88 20.98 64.58 20.72 C 65.02 20.89 65.91 21.24 66.35 21.41 L 66.72 21.68 C 65.26 22.43 63.66 23.10 61.98 22.91 L 61.53 22.41 L 61.78 21.78 Z" />
<path fill="#8ba4b6" opacity="1.00" d=" M 173.83 21.93 C 174.52 21.62 175.90 21.01 176.58 20.71 C 177.03 20.87 177.93 21.20 178.37 21.37 L 178.76 21.65 C 177.34 22.49 175.74 23.07 174.07 23.01 L 173.61 22.55 L 173.83 21.93 Z" />
</g>
<g id="#65569cff">
<path fill="#65569c" opacity="1.00" d=" M 115.69 22.31 L 116.11 22.14 C 116.42 22.07 117.03 21.92 117.34 21.85 L 118.53 21.60 C 118.85 22.41 119.49 24.04 119.82 24.85 C 117.36 24.63 114.92 24.20 112.49 23.77 C 113.55 23.27 114.61 22.78 115.69 22.31 Z" />
<path fill="#65569c" opacity="1.00" d=" M 122.14 22.11 C 123.44 22.78 123.43 23.46 122.11 24.14 C 120.81 23.47 120.82 22.80 122.14 22.11 Z" />
<path fill="#65569c" opacity="1.00" d=" M 59.76 23.22 L 60.22 23.00 C 60.55 22.85 61.20 22.56 61.53 22.41 L 61.98 22.91 C 62.53 23.52 63.63 24.73 64.18 25.34 C 61.65 25.22 59.12 25.03 56.60 24.81 C 57.65 24.27 58.70 23.74 59.76 23.22 Z" />
<path fill="#65569c" opacity="1.00" d=" M 66.14 23.11 C 67.44 23.78 67.43 24.46 66.11 25.14 C 64.81 24.47 64.82 23.80 66.14 23.11 Z" />
<path fill="#65569c" opacity="1.00" d=" M 171.77 23.10 L 172.30 22.91 C 172.63 22.82 173.28 22.64 173.61 22.55 L 174.07 23.01 C 174.27 23.26 174.67 23.76 174.87 24.01 C 174.82 24.92 174.74 25.84 174.66 26.75 C 172.68 25.95 170.69 25.15 168.71 24.36 C 169.72 23.93 170.74 23.51 171.77 23.10 Z" />
<path fill="#65569c" opacity="1.00" d=" M 178.14 23.11 C 179.44 23.78 179.43 24.46 178.11 25.14 C 176.81 24.47 176.82 23.80 178.14 23.11 Z" />
<path fill="#65569c" opacity="1.00" d=" M 3.53 23.40 L 4.22 23.62 C 4.56 23.65 5.25 23.71 5.60 23.74 L 6.60 23.55 C 6.92 24.26 7.55 25.67 7.87 26.37 C 5.57 26.27 3.27 26.19 0.97 26.14 C 1.82 25.22 2.68 24.31 3.53 23.40 Z" />
<path fill="#65569c" opacity="1.00" d=" M 10.14 24.11 C 11.44 24.78 11.43 25.46 10.11 26.14 C 8.81 25.47 8.82 24.80 10.14 24.11 Z" />
</g>
<g id="#4578c9ff">
<path fill="#4578c9" opacity="1.00" d=" M 32.37 27.61 C 33.19 28.14 34.01 28.68 34.82 29.23 C 35.54 31.63 36.75 33.85 38.34 35.79 C 36.30 36.73 31.86 35.69 31.24 38.88 C 30.31 42.17 28.82 45.68 24.90 45.96 C 25.83 43.83 26.85 41.73 27.90 39.64 C 23.46 38.30 18.95 37.18 14.45 36.06 C 16.53 34.79 18.75 32.52 21.37 33.83 C 25.71 35.35 30.37 36.01 34.35 33.18 C 33.68 31.33 33.02 29.47 32.37 27.61 Z" />
</g>
<g id="#406fc5ff">
<path fill="#406fc5" opacity="1.00" d=" M 0.00 37.12 C 3.72 36.75 7.45 36.38 11.16 35.93 C 10.37 39.82 11.17 43.81 13.30 47.15 C 11.91 47.28 9.13 47.52 7.74 47.65 C 7.75 48.29 7.76 48.93 7.77 49.57 C 5.18 49.39 2.59 49.23 0.00 49.05 L 0.00 37.12 Z" />
</g>
<g id="#4878cbff">
<path fill="#4878cb" opacity="1.00" d=" M 60.03 38.87 C 62.45 37.66 64.97 36.66 67.52 35.74 C 66.44 37.02 65.27 38.24 63.97 39.29 C 64.97 41.33 66.03 43.34 67.00 45.40 C 64.52 43.41 62.12 41.29 60.03 38.87 Z" />
</g>
<g id="#4374c9ff">
<path fill="#4374c9" opacity="1.00" d=" M 171.38 40.81 C 173.06 37.54 176.24 35.52 180.02 35.27 C 178.92 37.66 177.77 40.03 176.73 42.44 C 177.92 43.21 179.12 43.95 180.32 44.72 C 177.08 44.07 174.28 42.29 171.38 40.81 Z" />
</g>
<g id="#4070c4ff">
<path fill="#4070c4" opacity="1.00" d=" M 13.20 38.31 C 14.67 38.26 14.67 40.74 13.20 40.69 C 11.73 40.71 11.73 38.29 13.20 38.31 Z" />
</g>
<g id="#4378cbff">
<path fill="#4378cb" opacity="1.00" d=" M 103.28 38.69 C 103.32 40.49 103.33 42.29 103.34 44.10 C 106.30 44.60 109.28 44.95 112.26 45.31 C 108.01 45.96 103.75 46.56 99.60 47.73 C 95.51 45.75 90.95 45.33 86.55 44.45 C 91.21 42.67 96.07 43.89 100.81 44.42 C 101.62 42.50 102.45 40.60 103.28 38.69 Z" />
<path fill="#4378cb" opacity="1.00" d=" M 34.87 42.83 C 38.96 45.57 44.13 43.74 47.03 40.13 C 46.66 41.49 46.30 42.86 45.95 44.23 C 49.42 45.17 52.93 45.93 56.41 46.79 C 53.01 46.73 49.62 46.66 46.22 46.43 C 45.41 47.36 44.61 48.29 43.82 49.22 C 40.48 45.62 35.52 44.96 30.88 45.66 C 32.24 44.76 33.57 43.81 34.87 42.83 Z" />
</g>
<g id="#4279cbff">
<path fill="#4279cb" opacity="1.00" d=" M 155.00 44.16 C 157.50 43.41 158.92 40.97 160.64 39.19 C 160.79 41.19 161.05 43.19 161.38 45.17 C 157.07 47.79 152.36 46.51 148.03 44.72 C 148.22 44.00 148.41 43.28 148.60 42.56 C 150.62 43.40 152.71 44.89 155.00 44.16 Z" />
</g>
<g id="#4379cbff">
<path fill="#4379cb" opacity="1.00" d=" M 198.56 44.33 C 206.98 42.40 215.55 44.83 224.00 45.13 L 224.00 45.90 C 218.94 46.19 213.73 47.92 208.67 46.65 C 205.28 45.97 201.91 45.20 198.56 44.33 Z" />
</g>
<g id="#4c77caff">
<path fill="#4c77ca" opacity="1.00" d=" M 59.56 44.00 C 60.72 44.86 61.88 45.71 63.05 46.56 C 61.84 47.55 60.63 48.55 59.40 49.51 C 58.95 49.64 58.05 49.91 57.60 50.04 C 58.29 48.04 58.98 46.03 59.56 44.00 Z" />
</g>
<g id="#4778d1ff">
<path fill="#4778d1" opacity="1.00" d=" M 113.52 43.56 C 114.88 44.93 116.17 46.36 117.42 47.82 C 115.99 47.88 114.56 47.94 113.13 48.00 C 113.26 46.52 113.39 45.04 113.52 43.56 Z" />
</g>
<g id="#4575cbff">
<path fill="#4575cb" opacity="1.00" d=" M 163.97 44.23 C 164.57 43.17 166.42 43.17 167.03 44.23 C 167.35 46.01 163.65 46.01 163.97 44.23 Z" />
</g>
<g id="#4177ccff">
<path fill="#4177cc" opacity="1.00" d=" M 130.19 46.75 C 138.11 46.06 144.06 51.94 150.16 56.00 L 139.14 56.00 C 140.76 55.38 144.00 54.15 145.62 53.53 C 143.23 52.27 140.83 51.01 138.42 49.80 C 138.29 51.08 138.16 52.36 138.03 53.64 C 135.45 51.30 132.74 49.11 130.19 46.75 Z" />
</g>
<g id="#536ea1ff">
<path fill="#536ea1" opacity="1.00" d=" M 0.00 49.05 C 2.59 49.23 5.18 49.39 7.77 49.57 C 9.00 51.51 10.25 53.44 11.59 55.30 C 8.18 52.66 4.00 51.48 0.00 50.03 L 0.00 49.05 Z" />
</g>
<g id="#42689dff">
<path fill="#42689d" opacity="1.00" d=" M 111.51 50.62 C 114.81 50.33 118.19 49.58 121.48 50.15 C 122.82 51.41 123.27 53.43 124.16 55.03 C 120.35 52.58 115.91 51.45 111.51 50.62 Z" />
</g>
<g id="#6894c6ff">
<path fill="#6894c6" opacity="1.00" d=" M 7.77 49.57 C 10.48 51.58 13.01 53.81 15.56 56.00 L 12.59 56.00 L 11.59 55.30 C 10.25 53.44 9.00 51.51 7.77 49.57 Z" />
</g>
<g id="#315a8cff">
<path fill="#315a8c" opacity="1.00" d=" M 55.20 50.72 C 55.80 50.55 57.00 50.21 57.60 50.04 C 58.05 49.91 58.95 49.64 59.40 49.51 C 60.63 49.91 61.86 50.35 63.07 50.84 C 61.55 50.82 58.52 50.78 57.00 50.76 L 56.05 50.73 L 55.20 50.72 Z" />
</g>
<g id="#2f5b84ff">
<path fill="#2f5b84" opacity="1.00" d=" M 167.37 50.98 C 169.94 50.75 172.52 50.62 175.12 50.59 L 174.16 50.59 C 172.88 50.65 170.32 50.77 169.04 50.83 L 168.15 50.90 L 167.37 50.98 Z" />
</g>
<g id="#607aafff">
<path fill="#607aaf" opacity="1.00" d=" M 175.12 50.59 C 178.02 50.98 179.45 54.09 181.31 56.00 L 179.94 56.00 C 177.95 54.27 176.03 52.45 174.16 50.59 L 175.12 50.59 Z" />
</g>
<g id="#24393dff">
<path fill="#24393d" opacity="1.00" d=" M 0.00 50.03 C 4.00 51.48 8.18 52.66 11.59 55.30 L 12.59 56.00 L 7.63 56.00 C 5.13 54.26 2.55 52.63 0.00 50.97 L 0.00 50.03 Z" />
</g>
<g id="#446da3ff">
<path fill="#446da3" opacity="1.00" d=" M 25.56 56.00 C 26.27 54.23 26.98 52.47 27.71 50.71 C 27.82 52.47 27.94 54.24 28.05 56.00 L 25.56 56.00 Z" />
</g>
<g id="#3686d0ff">
<path fill="#3686d0" opacity="1.00" d=" M 43.03 51.68 C 44.16 51.45 45.29 51.21 46.41 50.96 C 44.87 52.02 43.37 53.15 41.97 54.39 C 42.23 53.71 42.76 52.36 43.03 51.68 Z" />
</g>
<g id="#809db3ff">
<path fill="#809db3" opacity="1.00" d=" M 46.41 50.96 L 47.60 50.67 C 47.06 51.79 46.49 52.90 45.91 54.00 C 45.39 54.50 44.35 55.50 43.83 56.00 L 40.48 56.00 C 40.86 55.60 41.60 54.79 41.97 54.39 C 43.37 53.15 44.87 52.02 46.41 50.96 Z" />
</g>
<g id="#203b3cff">
<path fill="#203b3c" opacity="1.00" d=" M 57.00 50.76 C 58.52 50.78 61.55 50.82 63.07 50.84 C 64.64 52.63 66.27 54.38 68.03 56.00 L 64.56 56.00 C 63.78 55.30 62.22 53.89 61.44 53.18 C 60.02 52.27 58.50 51.51 57.00 50.76 Z" />
</g>
<g id="#6286a8ff">
<path fill="#6286a8" opacity="1.00" d=" M 63.07 50.84 C 65.48 52.18 67.53 54.03 69.44 56.00 L 68.03 56.00 C 66.27 54.38 64.64 52.63 63.07 50.84 Z" />
</g>
<g id="#244048ff">
<path fill="#244048" opacity="1.00" d=" M 111.51 50.62 C 115.91 51.45 120.35 52.58 124.16 55.03 L 124.64 56.00 L 119.78 56.00 C 118.77 55.12 117.75 54.24 116.73 53.37 C 115.27 52.48 113.76 51.69 112.23 50.93 L 111.51 50.62 Z" />
</g>
<g id="#203b43ff">
<path fill="#203b43" opacity="1.00" d=" M 169.04 50.83 C 170.32 50.77 172.88 50.65 174.16 50.59 C 176.03 52.45 177.95 54.27 179.94 56.00 L 176.43 56.00 C 174.04 54.17 171.68 52.28 169.04 50.83 Z" />
</g>
<g id="#7c9c74ff">
<path fill="#7c9c74" opacity="1.00" d=" M 0.00 50.97 C 2.55 52.63 5.13 54.26 7.63 56.00 L 6.40 56.00 C 4.24 54.91 2.09 53.80 0.00 52.58 L 0.00 50.97 Z" />
</g>
<g id="#74a05cff">
<path fill="#74a05c" opacity="1.00" d=" M 47.70 56.00 C 50.49 54.25 53.24 52.45 56.05 50.73 C 55.81 52.48 55.58 54.24 55.34 56.00 L 47.70 56.00 Z" />
<path fill="#74a05c" opacity="1.00" d=" M 215.77 56.00 C 218.53 54.39 221.25 52.74 224.00 51.11 L 224.00 56.00 L 215.77 56.00 Z" />
</g>
<g id="#709d86ff">
<path fill="#709d86" opacity="1.00" d=" M 56.05 50.73 L 57.00 50.76 C 58.50 51.51 60.02 52.27 61.44 53.18 C 59.44 53.96 57.54 54.96 55.67 56.00 L 55.34 56.00 C 55.58 54.24 55.81 52.48 56.05 50.73 Z" />
</g>
<g id="#2e83d0ff">
<path fill="#2e83d0" opacity="1.00" d=" M 97.19 56.00 C 98.74 54.62 100.23 53.17 101.74 51.74 C 100.36 52.53 100.61 54.22 100.87 55.53 L 100.90 56.00 L 97.19 56.00 Z" />
<path fill="#2e83d0" opacity="1.00" d=" M 209.45 56.00 C 210.84 54.55 212.24 53.11 213.68 51.70 C 212.36 52.56 212.63 54.23 212.87 55.53 L 212.88 56.00 L 209.45 56.00 Z" />
</g>
<g id="#67839bff">
<path fill="#67839b" opacity="1.00" d=" M 101.74 51.74 C 102.05 51.82 102.69 51.98 103.01 52.06 C 102.64 53.41 101.93 54.56 100.87 55.53 C 100.61 54.22 100.36 52.53 101.74 51.74 Z" />
<path fill="#67839b" opacity="1.00" d=" M 213.68 51.70 C 214.00 51.82 214.65 52.06 214.98 52.18 C 214.60 53.49 213.90 54.60 212.87 55.53 C 212.63 54.23 212.36 52.56 213.68 51.70 Z" />
</g>
<g id="#74a05eff">
<path fill="#74a05e" opacity="1.00" d=" M 103.69 56.00 C 106.53 54.29 109.35 52.57 112.23 50.93 C 112.12 51.83 111.91 53.62 111.81 54.51 C 113.44 54.11 115.08 53.73 116.73 53.37 C 117.75 54.24 118.77 55.12 119.78 56.00 L 103.69 56.00 Z" />
</g>
<g id="#6e9a88ff">
<path fill="#6e9a88" opacity="1.00" d=" M 112.23 50.93 C 113.76 51.69 115.27 52.48 116.73 53.37 C 115.08 53.73 113.44 54.11 111.81 54.51 C 111.91 53.62 112.12 51.83 112.23 50.93 Z" />
</g>
<g id="#73a065ff">
<path fill="#73a065" opacity="1.00" d=" M 159.60 56.00 C 162.42 54.24 165.22 52.47 168.15 50.90 L 169.04 50.83 C 171.68 52.28 174.04 54.17 176.43 56.00 L 174.05 56.00 C 173.10 55.26 172.17 54.52 171.25 53.75 C 170.13 54.51 169.01 55.27 167.88 56.00 L 159.60 56.00 Z" />
</g>
<g id="#759d51ff">
<path fill="#759d51" opacity="1.00" d=" M 0.00 52.58 C 2.09 53.80 4.24 54.91 6.40 56.00 L 0.00 56.00 L 0.00 52.58 Z" />
</g>
<g id="#6e9b56fe">
<path fill="#6e9b56" opacity="1.00" d=" M 55.67 56.00 C 57.54 54.96 59.44 53.96 61.44 53.18 C 62.22 53.89 63.78 55.30 64.56 56.00 L 55.67 56.00 Z" />
</g>
<g id="#2e86d2ff">
<path fill="#2e86d2" opacity="1.00" d=" M 154.25 56.00 C 154.57 54.24 156.20 53.35 157.85 53.15 C 157.54 53.86 156.93 55.29 156.62 56.00 L 154.25 56.00 Z" />
</g>
<g id="#669946ff">
<path fill="#669946" opacity="1.00" d=" M 167.88 56.00 C 169.01 55.27 170.13 54.51 171.25 53.75 C 172.17 54.52 173.10 55.26 174.05 56.00 L 167.88 56.00 Z" />
</g>
</svg>
