<?xml version="1.0" encoding="UTF-8" ?>
<!DOCTYPE svg PUBLIC "-//W3C//DTD SVG 1.1//EN" "http://www.w3.org/Graphics/SVG/1.1/DTD/svg11.dtd">
<svg width="224pt" height="56pt" viewBox="0 0 224 56" version="1.1" xmlns="http://www.w3.org/2000/svg">
<g id="#81ab59fe">
<path fill="#81ab59" opacity="1.00" d=" M 0.00 0.00 L 10.26 0.00 C 10.10 0.55 9.80 1.65 9.65 2.20 C 7.69 2.72 5.75 3.31 3.81 3.90 C 3.28 5.32 2.75 6.75 2.22 8.18 C 1.84 8.14 1.06 8.08 0.67 8.04 C 2.08 6.95 1.35 4.99 0.00 4.26 L 0.00 0.00 Z" />
</g>
<g id="#342f2aff">
<path fill="#342f2a" opacity="1.00" d=" M 10.26 0.00 L 13.40 0.00 C 13.26 0.55 12.98 1.65 12.84 2.20 C 11.77 5.68 10.87 9.24 11.76 12.85 C 12.49 10.54 13.19 8.21 13.40 5.79 C 14.47 10.20 13.09 14.45 12.05 18.67 L 11.96 19.11 C 11.63 19.31 10.96 19.71 10.63 19.92 C 10.28 16.25 9.71 12.60 9.00 8.98 C 8.31 9.10 6.93 9.33 6.24 9.45 C 6.88 13.56 7.51 17.68 8.05 21.81 C 7.58 22.21 6.64 23.01 6.17 23.41 C 5.73 22.85 4.86 21.74 4.42 21.18 C 5.00 19.95 4.83 18.51 4.14 17.36 C 3.73 17.72 2.91 18.45 2.50 18.81 C 2.19 19.13 1.55 19.78 1.24 20.10 C 0.93 20.42 0.31 21.06 0.00 21.38 L 0.00 7.96 L 0.67 8.04 C 1.06 8.08 1.84 8.14 2.22 8.18 C 4.63 8.23 7.01 7.89 9.39 7.66 C 9.43 5.84 9.46 4.01 9.65 2.20 C 9.80 1.65 10.10 0.55 10.26 0.00 M 3.82 11.51 C 4.43 14.34 5.93 16.82 7.10 19.43 C 7.68 16.10 5.57 13.81 3.82 11.51 Z" />
</g>
<g id="#268dd9ff">
<path fill="#268dd9" opacity="1.00" d=" M 13.40 0.00 L 16.16 0.00 L 15.36 0.81 C 13.47 1.79 13.90 4.59 16.20 4.46 C 16.62 8.30 17.00 12.15 17.34 16.00 C 16.70 15.19 16.06 14.38 15.42 13.57 C 15.29 13.69 15.04 13.94 14.92 14.06 C 13.48 15.25 12.36 16.80 12.05 18.67 C 13.09 14.45 14.47 10.20 13.40 5.79 C 13.24 4.59 13.05 3.39 12.84 2.20 C 12.98 1.65 13.26 0.55 13.40 0.00 Z" />
<path fill="#268dd9" opacity="1.00" d=" M 69.04 0.00 L 70.22 0.00 C 70.47 0.36 70.98 1.09 71.23 1.45 C 70.28 2.56 70.21 5.09 72.20 4.94 C 72.00 8.12 71.77 11.29 71.51 14.47 C 70.06 15.03 68.94 16.13 67.89 17.24 C 69.45 13.62 70.78 9.75 69.42 5.76 C 69.28 4.58 69.12 3.41 68.94 2.23 C 68.97 1.67 69.02 0.56 69.04 0.00 Z" />
<path fill="#268dd9" opacity="1.00" d=" M 181.04 0.00 L 182.22 0.00 C 182.47 0.36 182.98 1.09 183.23 1.45 C 182.28 2.56 182.21 5.09 184.20 4.94 C 184.00 8.12 183.76 11.29 183.51 14.47 C 182.06 15.03 180.94 16.13 179.89 17.24 C 181.45 13.62 182.78 9.75 181.42 5.76 C 181.28 4.58 181.12 3.41 180.94 2.23 C 180.97 1.67 181.02 0.56 181.04 0.00 Z" />
<path fill="#268dd9" opacity="1.00" d=" M 151.98 34.96 C 153.00 34.59 154.01 34.22 155.04 33.85 C 155.44 35.35 155.88 36.83 156.36 38.30 C 156.59 38.67 157.05 39.40 157.28 39.76 C 156.36 43.32 156.19 47.01 155.40 50.59 C 154.27 48.54 152.95 46.61 151.59 44.71 C 152.86 44.68 154.14 44.65 155.42 44.64 C 154.20 41.43 153.22 38.15 151.98 34.96 Z" />
</g>
<g id="#3c6bbeff">
<path fill="#3c6bbe" opacity="1.00" d=" M 16.16 0.00 L 32.20 0.00 C 32.91 1.42 33.50 2.89 34.15 4.34 C 32.09 5.90 29.78 7.25 28.16 9.29 C 27.44 11.45 27.78 13.76 27.74 15.98 C 28.24 15.86 29.25 15.62 29.75 15.50 C 30.42 13.36 30.70 10.93 32.18 9.16 C 34.40 8.50 36.67 8.07 38.99 7.86 L 39.67 8.15 C 40.46 8.77 41.25 9.40 42.04 10.05 C 41.83 11.63 41.43 14.80 41.23 16.39 L 41.15 17.03 C 41.35 18.50 41.77 19.93 42.24 21.34 C 42.06 21.68 41.69 22.36 41.51 22.70 C 40.54 25.90 41.20 29.23 41.58 32.48 C 41.65 32.94 41.79 33.87 41.86 34.33 C 40.81 34.57 39.80 34.92 38.83 35.38 C 36.59 32.85 34.62 30.10 32.80 27.25 C 33.21 29.27 33.60 31.29 34.08 33.29 C 31.29 34.22 28.50 36.81 25.44 35.52 C 23.54 34.86 21.73 33.97 19.90 33.12 C 19.92 32.33 19.95 30.77 19.97 29.99 C 23.54 27.93 27.50 24.96 31.74 27.07 C 29.39 23.34 26.51 19.82 22.31 18.11 C 24.08 20.45 25.96 22.71 28.03 24.80 C 24.40 26.57 20.44 27.58 16.39 27.48 C 17.50 29.29 18.54 31.15 19.54 33.02 C 13.55 36.32 6.63 36.90 0.00 37.94 L 0.00 30.95 C 3.14 30.04 6.18 28.83 9.25 27.71 C 8.34 27.47 7.44 27.23 6.53 27.01 C 6.64 25.86 6.75 24.71 6.86 23.56 C 8.33 23.17 9.79 22.70 11.24 22.22 L 11.53 22.63 L 11.91 23.14 C 12.24 23.59 12.90 24.49 13.23 24.95 C 13.85 24.85 15.09 24.66 15.72 24.56 C 15.54 21.91 15.29 19.26 15.09 16.61 C 15.04 15.97 14.96 14.70 14.92 14.06 C 15.04 13.94 15.29 13.69 15.42 13.57 C 16.06 14.38 16.70 15.19 17.34 16.00 C 17.00 12.15 16.62 8.30 16.20 4.46 C 19.02 5.53 21.90 6.39 24.75 7.37 C 26.00 6.18 27.26 5.01 28.53 3.84 C 24.35 4.44 19.98 4.55 16.07 2.69 C 15.90 2.22 15.54 1.28 15.36 0.81 L 16.16 0.00 M 10.13 24.11 C 8.82 24.80 8.81 25.47 10.11 26.14 C 11.43 25.46 11.44 24.78 10.13 24.11 Z" />
<path fill="#3c6bbe" opacity="1.00" d=" M 33.54 0.00 L 40.15 0.00 C 39.15 1.61 40.55 3.20 41.59 4.34 C 41.76 4.77 42.09 5.63 42.25 6.06 C 41.05 6.48 39.89 6.98 38.77 7.57 C 36.80 5.21 35.20 2.58 33.54 0.00 Z" />
<path fill="#3c6bbe" opacity="1.00" d=" M 126.16 0.00 L 138.19 0.00 C 137.67 0.57 136.65 1.72 136.14 2.29 C 133.64 2.22 131.15 2.12 128.65 2.17 C 131.31 3.29 133.91 4.67 136.76 5.23 C 138.38 3.62 139.72 1.76 141.17 0.00 L 149.16 0.00 C 146.95 3.41 143.60 5.57 139.73 6.61 C 139.98 9.56 139.98 12.53 139.90 15.49 C 141.27 12.60 142.17 8.84 145.46 7.55 C 147.11 6.72 148.83 6.05 150.53 5.34 C 150.10 3.56 149.66 1.79 149.27 0.00 L 153.33 0.00 C 152.01 10.79 152.27 21.84 154.69 32.46 L 154.84 33.08 L 155.04 33.85 C 154.01 34.22 153.00 34.59 151.98 34.96 C 153.22 38.15 154.20 41.43 155.42 44.64 C 154.14 44.65 152.86 44.68 151.59 44.71 C 152.95 46.61 154.27 48.54 155.40 50.59 L 153.94 50.72 C 148.17 50.97 142.38 50.90 136.68 49.97 C 135.77 48.25 134.91 46.51 134.00 44.81 C 133.21 45.50 132.43 46.19 131.65 46.88 C 132.14 48.22 132.75 49.53 133.48 50.77 C 132.68 50.72 131.07 50.61 130.27 50.56 C 125.58 50.35 120.89 50.19 116.22 49.78 C 115.86 48.97 115.50 48.16 115.14 47.36 C 116.49 46.44 117.84 45.54 119.19 44.62 C 116.71 45.07 114.24 45.59 111.79 46.17 C 111.84 44.57 111.87 42.97 111.88 41.37 L 111.98 40.54 C 112.00 40.12 112.04 39.30 112.05 38.89 C 112.05 38.37 112.04 37.31 112.03 36.78 C 112.05 30.75 112.13 24.72 112.16 18.69 C 112.89 20.30 114.22 21.52 115.80 22.28 C 114.77 22.68 113.76 23.10 112.74 23.52 C 114.46 24.13 116.19 24.74 117.89 25.41 C 118.38 24.91 118.87 24.42 119.37 23.94 C 119.22 23.35 118.91 22.18 118.76 21.59 C 120.64 21.22 122.53 20.85 124.42 20.47 C 124.41 21.25 124.40 22.80 124.39 23.57 C 128.90 16.52 129.40 7.64 126.16 0.00 M 137.54 15.26 C 136.62 16.41 138.58 17.87 139.46 16.74 C 140.38 15.59 138.41 14.13 137.54 15.26 M 122.13 22.11 C 120.82 22.80 120.81 23.47 122.11 24.14 C 123.43 23.46 123.44 22.78 122.13 22.11 M 128.05 32.21 C 127.55 32.57 126.56 33.30 126.06 33.67 C 130.08 34.64 134.00 35.97 138.16 36.32 C 139.45 39.94 137.60 43.27 136.09 46.50 C 140.54 45.42 141.40 41.20 142.47 37.42 C 144.66 35.10 148.12 34.55 151.00 33.43 C 149.11 28.94 146.94 22.42 141.13 22.34 C 135.69 23.69 127.36 24.54 128.05 32.21 M 114.58 36.71 C 114.41 37.33 114.23 37.95 114.04 38.56 C 115.16 38.82 116.28 39.09 117.41 39.37 C 117.43 39.76 117.48 40.54 117.51 40.92 C 121.43 38.84 125.47 36.98 129.49 35.08 C 124.52 35.68 119.59 38.21 114.58 36.71 Z" />
<path fill="#3c6bbe" opacity="1.00" d=" M 48.31 22.52 C 46.18 19.81 50.68 19.65 49.85 22.63 C 49.47 22.60 48.70 22.55 48.31 22.52 Z" />
<path fill="#3c6bbe" opacity="1.00" d=" M 104.37 22.54 C 102.15 19.81 106.65 19.71 105.92 22.67 C 105.53 22.64 104.76 22.57 104.37 22.54 Z" />
<path fill="#3c6bbe" opacity="1.00" d=" M 160.37 22.53 C 158.15 19.81 162.65 19.71 161.93 22.66 C 161.54 22.63 160.76 22.56 160.37 22.53 Z" />
<path fill="#3c6bbe" opacity="1.00" d=" M 216.37 22.54 C 214.15 19.81 218.65 19.71 217.92 22.67 C 217.53 22.64 216.76 22.57 216.37 22.54 Z" />
<path fill="#3c6bbe" opacity="1.00" d=" M 44.14 22.89 C 44.75 22.75 45.98 22.46 46.59 22.32 L 46.50 23.10 C 46.23 23.33 45.67 23.78 45.39 24.01 C 45.08 23.73 44.45 23.17 44.14 22.89 Z" />
<path fill="#3c6bbe" opacity="1.00" d=" M 100.16 22.74 C 100.77 22.63 101.99 22.40 102.60 22.28 L 102.47 23.07 C 102.18 23.28 101.60 23.71 101.31 23.93 C 101.02 23.63 100.44 23.04 100.16 22.74 Z" />
<path fill="#3c6bbe" opacity="1.00" d=" M 156.18 22.75 C 156.79 22.63 158.01 22.38 158.62 22.26 L 158.50 23.05 C 158.21 23.27 157.65 23.71 157.36 23.93 C 157.07 23.63 156.48 23.04 156.18 22.75 Z" />
<path fill="#3c6bbe" opacity="1.00" d=" M 212.16 22.75 C 212.77 22.63 213.99 22.40 214.60 22.28 L 214.48 23.07 C 214.19 23.28 213.60 23.71 213.31 23.93 C 213.02 23.63 212.44 23.04 212.16 22.75 Z" />
<path fill="#3c6bbe" opacity="1.00" d=" M 47.74 24.60 L 48.58 24.65 C 48.80 25.81 49.45 26.61 50.53 27.03 L 50.52 27.56 C 48.95 28.21 47.36 26.91 47.45 25.27 L 47.74 24.60 Z" />
<path fill="#3c6bbe" opacity="1.00" d=" M 103.62 24.58 L 104.42 24.65 C 104.74 25.78 105.44 26.53 106.53 26.92 L 106.52 27.46 C 104.97 28.19 103.33 26.87 103.36 25.24 L 103.62 24.58 Z" />
<path fill="#3c6bbe" opacity="1.00" d=" M 159.64 24.58 L 160.43 24.64 C 160.74 25.77 161.44 26.53 162.53 26.92 L 162.53 27.47 C 160.97 28.18 159.32 26.89 159.38 25.24 L 159.64 24.58 Z" />
<path fill="#3c6bbe" opacity="1.00" d=" M 215.62 24.58 L 216.42 24.65 C 216.73 25.78 217.44 26.53 218.53 26.92 L 218.53 27.46 C 216.97 28.18 215.32 26.88 215.36 25.24 L 215.62 24.58 Z" />
<path fill="#3c6bbe" opacity="1.00" d=" M 9.14 40.23 C 13.28 34.56 22.66 35.28 27.01 40.27 C 26.84 43.60 23.02 44.40 20.69 45.87 C 20.89 47.48 21.00 49.10 21.02 50.72 C 20.34 50.69 18.99 50.62 18.31 50.58 C 13.91 50.41 9.52 50.24 5.12 50.10 C 6.01 48.73 6.91 47.35 7.79 45.96 C 5.58 47.22 3.41 48.56 1.25 49.91 C 0.83 50.52 0.41 51.14 0.00 51.76 L 0.00 38.56 C 2.84 39.25 6.79 38.64 8.24 41.84 C 9.90 44.81 12.68 46.78 15.86 47.87 C 13.40 45.56 10.51 43.43 9.14 40.23 Z" />
<path fill="#3c6bbe" opacity="1.00" d=" M 111.63 48.12 C 113.22 47.43 114.67 49.10 114.55 50.61 C 113.93 50.40 112.69 49.96 112.07 49.75 L 111.54 48.94 L 111.63 48.12 Z" />
</g>
<g id="#4579caff">
<path fill="#4579ca" opacity="1.00" d=" M 32.20 0.00 L 33.54 0.00 C 35.20 2.58 36.80 5.21 38.77 7.57 L 38.99 7.86 C 36.67 8.07 34.40 8.50 32.18 9.16 C 30.70 10.93 30.42 13.36 29.75 15.50 C 29.25 15.62 28.24 15.86 27.74 15.98 C 27.78 13.76 27.44 11.45 28.16 9.29 C 29.78 7.25 32.09 5.90 34.15 4.34 C 33.50 2.89 32.91 1.42 32.20 0.00 Z" />
</g>
<g id="#268ed9fe">
<path fill="#268ed9" opacity="1.00" d=" M 40.15 0.00 L 41.76 0.00 C 42.24 1.44 42.19 2.88 41.59 4.34 C 40.55 3.20 39.15 1.61 40.15 0.00 Z" />
</g>
<g id="#8aa3b5ff">
<path fill="#8aa3b5" opacity="1.00" d=" M 41.76 0.00 L 42.91 0.00 C 43.21 0.57 43.81 1.70 44.11 2.26 C 43.73 3.16 43.38 4.06 43.05 4.97 C 42.96 5.54 42.77 6.68 42.68 7.26 C 42.58 6.96 42.36 6.36 42.25 6.06 C 42.09 5.63 41.76 4.77 41.59 4.34 C 42.19 2.88 42.24 1.44 41.76 0.00 Z" />
<path fill="#8aa3b5" opacity="1.00" d=" M 41.58 32.48 C 42.03 30.76 42.56 29.06 43.02 27.34 C 43.03 28.02 43.04 29.39 43.05 30.07 C 43.02 31.04 42.98 32.01 42.92 32.98 C 42.89 33.59 42.83 34.81 42.80 35.41 C 42.56 35.14 42.09 34.60 41.86 34.33 C 41.79 33.87 41.65 32.94 41.58 32.48 Z" />
</g>
<g id="#332e2aff">
<path fill="#332e2a" opacity="1.00" d=" M 42.91 0.00 L 44.49 0.00 C 44.40 0.57 44.21 1.70 44.11 2.26 C 43.81 1.70 43.21 0.57 42.91 0.00 Z" />
<path fill="#332e2a" opacity="1.00" d=" M 48.02 0.00 L 50.34 0.00 C 50.36 0.28 50.42 0.83 50.45 1.10 C 48.94 2.91 44.75 1.95 48.02 0.00 Z" />
<path fill="#332e2a" opacity="1.00" d=" M 103.98 0.00 L 106.31 0.00 C 106.34 0.28 106.40 0.83 106.43 1.11 C 104.95 2.90 100.76 1.96 103.98 0.00 Z" />
<path fill="#332e2a" opacity="1.00" d=" M 155.26 0.00 L 156.89 0.00 C 156.50 0.59 155.73 1.78 155.35 2.37 C 155.33 1.78 155.28 0.59 155.26 0.00 Z" />
<path fill="#332e2a" opacity="1.00" d=" M 160.01 0.00 L 162.34 0.00 C 162.37 0.28 162.42 0.83 162.45 1.11 C 160.93 2.90 156.76 1.96 160.01 0.00 Z" />
<path fill="#332e2a" opacity="1.00" d=" M 216.11 0.00 L 218.49 0.00 C 218.51 0.31 218.55 0.94 218.58 1.25 C 217.34 1.98 215.89 2.10 214.50 2.03 C 214.95 1.29 215.49 0.61 216.11 0.00 Z" />
<path fill="#332e2a" opacity="1.00" d=" M 45.39 24.01 C 45.67 23.78 46.23 23.33 46.50 23.10 C 46.96 22.96 47.86 22.67 48.31 22.52 C 48.70 22.55 49.47 22.60 49.85 22.63 L 49.88 23.05 C 49.77 23.38 49.54 24.05 49.43 24.38 L 48.58 24.65 L 47.74 24.60 C 47.15 24.45 45.97 24.16 45.39 24.01 Z" />
<path fill="#332e2a" opacity="1.00" d=" M 101.31 23.93 C 101.60 23.71 102.18 23.28 102.47 23.07 C 102.95 22.94 103.90 22.67 104.37 22.54 C 104.76 22.57 105.53 22.64 105.92 22.67 L 105.96 23.10 C 105.78 23.42 105.42 24.06 105.24 24.38 L 104.42 24.65 L 103.62 24.58 C 103.04 24.41 101.89 24.09 101.31 23.93 Z" />
<path fill="#332e2a" opacity="1.00" d=" M 157.36 23.93 C 157.65 23.71 158.21 23.27 158.50 23.05 C 158.97 22.92 159.90 22.66 160.37 22.53 C 160.76 22.56 161.54 22.63 161.93 22.66 L 161.97 23.09 C 161.79 23.42 161.43 24.06 161.25 24.38 L 160.43 24.64 L 159.64 24.58 C 159.07 24.41 157.93 24.09 157.36 23.93 Z" />
<path fill="#332e2a" opacity="1.00" d=" M 213.31 23.93 C 213.60 23.71 214.19 23.28 214.48 23.07 C 214.95 22.94 215.90 22.67 216.37 22.54 C 216.76 22.57 217.53 22.64 217.92 22.67 L 217.96 23.10 C 217.78 23.42 217.42 24.06 217.24 24.38 L 216.42 24.65 L 215.62 24.58 C 215.04 24.42 213.89 24.09 213.31 23.93 Z" />
<path fill="#332e2a" opacity="1.00" d=" M 42.92 32.98 C 45.40 32.81 47.89 32.77 50.37 32.88 L 50.28 33.93 C 49.72 39.12 48.31 44.14 47.44 49.28 C 48.52 50.08 49.60 50.86 50.66 51.70 L 50.97 52.13 L 49.97 51.92 C 49.05 51.74 48.13 51.63 47.19 51.62 C 45.53 51.53 43.87 51.50 42.21 51.48 L 42.54 50.83 C 43.06 49.68 43.54 48.51 44.00 47.34 C 44.52 46.27 44.32 45.06 44.21 43.94 C 44.34 42.71 44.54 41.49 44.71 40.26 L 44.83 39.48 C 47.34 39.51 46.32 36.56 44.28 37.78 C 43.91 37.52 43.18 37.00 42.81 36.74 C 42.81 36.41 42.80 35.74 42.80 35.41 C 42.83 34.81 42.89 33.59 42.92 32.98 M 43.72 35.10 C 45.47 36.17 47.27 37.15 49.08 38.09 C 49.04 37.33 48.97 35.80 48.93 35.03 C 47.20 35.05 45.46 35.08 43.72 35.10 Z" />
<path fill="#332e2a" opacity="1.00" d=" M 98.32 32.86 C 101.00 32.77 103.68 32.77 106.35 32.91 L 106.24 33.95 C 105.72 39.13 104.32 44.15 103.44 49.27 C 104.52 50.08 105.60 50.87 106.66 51.70 L 106.96 52.12 L 105.97 51.93 C 105.04 51.76 104.12 51.66 103.18 51.62 C 101.55 51.50 99.92 51.44 98.29 51.36 L 98.88 50.56 L 99.59 49.57 C 99.85 48.91 100.10 48.24 100.34 47.58 C 100.86 46.35 101.18 44.57 99.98 43.63 L 99.52 43.19 C 100.75 42.59 101.23 41.66 100.97 40.40 L 100.74 39.22 C 103.18 40.32 102.63 36.94 100.49 37.44 C 99.97 37.09 98.93 36.39 98.41 36.04 C 98.39 35.24 98.34 33.65 98.32 32.86 M 99.72 35.10 C 101.47 36.17 103.27 37.15 105.08 38.09 C 105.04 37.33 104.97 35.80 104.93 35.03 C 103.20 35.05 101.46 35.08 99.72 35.10 Z" />
<path fill="#332e2a" opacity="1.00" d=" M 154.84 33.08 C 157.33 32.83 159.85 32.77 162.36 32.86 L 162.25 33.94 C 161.72 39.13 160.31 44.15 159.44 49.27 C 160.51 50.07 161.60 50.86 162.65 51.69 L 162.96 52.11 L 161.96 51.88 C 161.05 51.66 160.13 51.55 159.20 51.57 C 157.76 51.56 156.33 51.56 154.90 51.70 L 155.40 50.59 C 156.19 47.01 156.36 43.32 157.28 39.76 C 159.34 38.91 157.61 36.10 156.36 38.30 C 155.88 36.83 155.44 35.35 155.04 33.85 L 154.84 33.08 M 155.72 35.10 C 157.47 36.17 159.27 37.15 161.08 38.09 C 161.04 37.33 160.97 35.80 160.93 35.03 C 159.20 35.05 157.46 35.08 155.72 35.10 Z" />
<path fill="#332e2a" opacity="1.00" d=" M 210.53 33.17 C 213.13 32.89 215.75 32.79 218.36 32.82 L 218.26 33.92 C 217.73 39.11 216.31 44.14 215.45 49.27 C 216.51 50.08 217.58 50.88 218.63 51.72 L 218.94 52.05 L 217.99 52.04 C 217.04 51.93 216.10 51.83 215.15 51.75 C 213.54 51.59 211.93 51.42 210.33 51.27 L 210.88 50.55 L 211.59 49.57 C 211.85 48.91 212.10 48.25 212.34 47.58 C 212.86 46.35 213.17 44.58 211.98 43.63 L 211.52 43.17 C 212.78 42.60 213.26 41.68 212.99 40.41 L 212.76 39.20 C 215.19 40.31 214.64 36.93 212.51 37.42 C 211.92 37.08 210.73 36.41 210.14 36.07 C 210.22 35.64 210.37 34.77 210.45 34.34 L 210.53 33.17 M 211.72 35.10 C 213.47 36.17 215.27 37.15 217.08 38.09 C 217.04 37.33 216.97 35.80 216.93 35.03 C 215.19 35.05 213.46 35.08 211.72 35.10 Z" />
</g>
<g id="#525548ff">
<path fill="#525548" opacity="1.00" d=" M 44.49 0.00 L 48.02 0.00 C 44.75 1.95 48.94 2.91 50.45 1.10 C 50.51 2.37 50.50 3.64 50.44 4.90 C 47.97 4.77 45.51 4.78 43.05 4.97 C 43.38 4.06 43.73 3.16 44.11 2.26 C 44.21 1.70 44.40 0.57 44.49 0.00 Z" />
<path fill="#525548" opacity="1.00" d=" M 101.14 0.00 L 103.98 0.00 C 100.76 1.96 104.95 2.90 106.43 1.11 C 106.52 2.40 106.50 3.69 106.43 4.98 C 103.95 4.78 101.46 4.67 98.98 4.66 L 98.98 3.90 C 99.98 2.78 100.87 1.51 101.14 0.00 Z" />
<path fill="#525548" opacity="1.00" d=" M 156.89 0.00 L 160.01 0.00 C 156.76 1.96 160.93 2.90 162.45 1.11 C 162.52 2.38 162.49 3.65 162.44 4.93 C 160.12 4.79 157.79 4.75 155.47 4.85 C 155.42 4.03 155.38 3.20 155.35 2.37 C 155.73 1.78 156.50 0.59 156.89 0.00 Z" />
<path fill="#525548" opacity="1.00" d=" M 213.14 0.00 L 216.11 0.00 C 215.49 0.61 214.95 1.29 214.50 2.03 C 215.89 2.10 217.34 1.98 218.58 1.25 C 218.58 2.50 218.51 3.74 218.42 4.98 C 215.94 4.78 213.46 4.66 210.98 4.66 L 210.98 3.90 C 211.98 2.78 212.87 1.51 213.14 0.00 Z" />
<path fill="#525548" opacity="1.00" d=" M 43.05 30.07 C 44.08 29.36 45.11 28.66 46.14 27.96 C 46.31 28.40 46.63 29.27 46.79 29.71 C 48.03 29.60 49.26 29.49 50.50 29.40 C 50.50 30.56 50.45 31.72 50.37 32.88 C 47.89 32.77 45.40 32.81 42.92 32.98 C 42.98 32.01 43.02 31.04 43.05 30.07 Z" />
<path fill="#525548" opacity="1.00" d=" M 98.61 32.48 C 99.74 30.94 100.82 29.36 101.94 27.80 C 102.14 28.27 102.53 29.21 102.73 29.69 C 103.99 29.59 105.26 29.51 106.52 29.41 C 106.52 30.58 106.44 31.74 106.35 32.91 C 103.68 32.77 101.00 32.77 98.32 32.86 L 98.61 32.48 Z" />
<path fill="#525548" opacity="1.00" d=" M 154.82 30.03 C 155.93 29.33 157.06 28.64 158.18 27.96 C 158.33 28.40 158.63 29.30 158.78 29.74 C 160.02 29.62 161.27 29.50 162.52 29.39 C 162.51 30.55 162.45 31.71 162.36 32.86 C 159.85 32.77 157.33 32.83 154.84 33.08 L 154.69 32.46 C 154.72 31.85 154.79 30.64 154.82 30.03 Z" />
<path fill="#525548" opacity="1.00" d=" M 210.57 32.42 C 211.62 30.82 212.72 29.26 213.83 27.72 C 214.06 28.21 214.52 29.19 214.75 29.69 C 216.01 29.58 217.26 29.49 218.52 29.39 C 218.51 30.54 218.45 31.68 218.36 32.82 C 215.75 32.79 213.13 32.89 210.53 33.17 L 210.57 32.42 Z" />
</g>
<g id="#80aa5dff">
<path fill="#80aa5d" opacity="1.00" d=" M 50.34 0.00 L 66.23 0.00 C 66.09 0.55 65.80 1.65 65.65 2.19 C 63.70 2.73 61.76 3.31 59.81 3.86 C 59.30 5.25 58.79 6.63 58.29 8.02 C 57.57 7.86 56.86 7.68 56.15 7.50 C 57.06 6.12 57.06 2.34 54.68 2.98 C 54.03 4.45 55.31 5.97 55.68 7.38 C 55.73 7.74 55.84 8.45 55.90 8.81 C 54.45 9.56 52.99 10.28 51.54 11.03 C 51.94 8.64 52.42 6.26 52.76 3.86 C 51.95 4.53 51.15 5.22 50.36 5.91 L 50.44 4.90 C 50.50 3.64 50.51 2.37 50.45 1.10 C 50.42 0.83 50.36 0.28 50.34 0.00 Z" />
<path fill="#80aa5d" opacity="1.00" d=" M 106.31 0.00 L 122.23 0.00 C 122.09 0.55 121.80 1.64 121.66 2.19 C 119.70 2.73 117.76 3.31 115.81 3.87 C 115.30 5.25 114.79 6.63 114.29 8.02 C 113.57 7.86 112.86 7.68 112.15 7.49 C 113.06 6.12 113.06 2.34 110.68 2.98 C 110.03 4.45 111.31 5.96 111.67 7.38 C 111.73 7.74 111.84 8.45 111.89 8.81 C 110.45 9.56 108.99 10.28 107.55 11.02 C 107.95 8.63 108.40 6.25 108.76 3.85 C 107.94 4.55 107.14 5.25 106.35 5.97 L 106.43 4.98 C 106.50 3.69 106.52 2.40 106.43 1.11 C 106.40 0.83 106.34 0.28 106.31 0.00 Z" />
<path fill="#80aa5d" opacity="1.00" d=" M 162.34 0.00 L 178.23 0.00 C 178.09 0.55 177.80 1.65 177.65 2.19 C 175.70 2.73 173.76 3.31 171.81 3.86 C 171.30 5.25 170.79 6.63 170.29 8.02 C 169.57 7.86 168.86 7.68 168.15 7.50 C 169.06 6.12 169.06 2.34 166.68 2.98 C 166.03 4.45 167.30 5.97 167.68 7.38 C 167.73 7.74 167.84 8.45 167.90 8.81 C 166.45 9.55 164.99 10.28 163.55 11.03 C 163.95 8.64 164.40 6.25 164.76 3.86 C 163.95 4.54 163.15 5.23 162.36 5.94 L 162.44 4.93 C 162.49 3.65 162.52 2.38 162.45 1.11 C 162.42 0.83 162.37 0.28 162.34 0.00 Z" />
</g>
<g id="#342f2bff">
<path fill="#342f2b" opacity="1.00" d=" M 66.23 0.00 L 69.04 0.00 C 69.02 0.56 68.97 1.67 68.94 2.23 C 67.90 5.71 66.83 9.23 67.76 12.85 C 68.50 10.53 69.17 8.18 69.42 5.76 C 70.78 9.75 69.45 13.62 67.89 17.24 L 67.74 17.63 C 67.36 18.55 66.99 19.47 66.63 20.39 C 66.59 16.53 65.75 12.74 64.96 8.98 C 64.23 9.11 62.77 9.36 62.04 9.48 C 62.90 13.22 63.59 17.00 64.46 20.74 C 63.79 21.06 62.44 21.70 61.76 22.02 C 61.56 21.44 61.17 20.28 60.98 19.70 C 61.16 17.53 58.05 16.60 58.74 19.40 L 57.96 19.29 C 57.50 19.26 56.59 19.22 56.14 19.19 C 56.07 17.24 55.92 15.28 55.85 13.32 L 56.04 12.50 C 56.06 12.09 56.11 11.26 56.14 10.85 C 56.08 10.34 55.96 9.32 55.90 8.81 C 55.84 8.45 55.73 7.74 55.68 7.38 L 56.15 7.50 C 56.86 7.68 57.57 7.86 58.29 8.02 C 60.66 8.25 63.04 8.00 65.39 7.65 C 65.43 5.83 65.46 4.01 65.65 2.19 C 65.80 1.65 66.09 0.55 66.23 0.00 M 59.82 11.51 C 60.43 14.34 61.93 16.82 63.10 19.43 C 63.67 16.10 61.58 13.81 59.82 11.51 Z" />
<path fill="#342f2b" opacity="1.00" d=" M 122.23 0.00 L 124.96 0.00 C 124.93 0.56 124.86 1.68 124.82 2.24 C 123.83 5.72 122.91 9.25 123.74 12.84 C 124.49 10.52 125.20 8.17 125.48 5.74 C 125.71 6.97 126.19 9.45 126.42 10.68 C 125.87 12.34 125.16 13.93 124.34 15.47 C 124.10 15.79 123.60 16.42 123.35 16.74 C 122.38 14.21 121.47 11.66 120.58 9.11 C 119.96 9.20 118.72 9.39 118.10 9.49 C 118.93 12.92 119.41 16.43 120.12 19.89 C 119.63 20.28 118.65 21.06 118.16 21.45 C 117.29 19.71 115.65 18.25 113.62 18.26 C 113.26 18.24 112.53 18.20 112.16 18.18 C 112.07 16.56 111.99 14.95 111.90 13.34 L 112.06 12.51 C 112.08 12.09 112.11 11.26 112.13 10.85 C 112.07 10.34 111.95 9.32 111.89 8.81 C 111.84 8.45 111.73 7.74 111.67 7.38 L 112.15 7.49 C 112.86 7.68 113.57 7.86 114.29 8.02 C 116.66 8.26 119.04 7.99 121.39 7.65 C 121.43 5.83 121.46 4.01 121.66 2.19 C 121.80 1.64 122.09 0.55 122.23 0.00 M 115.82 11.51 C 116.43 14.34 117.93 16.82 119.10 19.43 C 119.66 16.10 117.58 13.81 115.82 11.51 Z" />
<path fill="#342f2b" opacity="1.00" d=" M 178.23 0.00 L 181.04 0.00 C 181.02 0.56 180.97 1.67 180.94 2.23 C 179.90 5.71 178.83 9.23 179.76 12.85 C 180.50 10.53 181.17 8.18 181.42 5.76 C 182.78 9.75 181.45 13.62 179.89 17.24 L 179.73 17.63 C 179.36 18.54 178.99 19.45 178.64 20.37 C 178.58 16.51 177.75 12.74 176.96 8.98 C 176.23 9.11 174.77 9.36 174.04 9.48 C 174.91 13.20 175.58 16.97 176.45 20.69 C 175.82 21.01 174.54 21.65 173.91 21.97 C 173.67 21.40 173.19 20.27 172.96 19.71 C 173.13 17.52 170.05 16.62 170.74 19.41 L 169.96 19.30 C 169.50 19.27 168.59 19.22 168.14 19.20 C 168.07 17.24 167.91 15.29 167.85 13.33 L 168.04 12.50 C 168.06 12.09 168.11 11.26 168.14 10.85 C 168.08 10.34 167.96 9.32 167.90 8.81 C 167.84 8.45 167.73 7.74 167.68 7.38 L 168.15 7.50 C 168.86 7.68 169.57 7.86 170.29 8.02 C 172.66 8.25 175.04 8.00 177.39 7.65 C 177.43 5.83 177.46 4.01 177.65 2.19 C 177.80 1.65 178.09 0.55 178.23 0.00 M 171.82 11.51 C 172.43 14.34 173.93 16.82 175.10 19.43 C 175.66 16.10 173.58 13.81 171.82 11.51 Z" />
</g>
<g id="#3c6bbefe">
<path fill="#3c6bbe" opacity="1.00" d=" M 70.22 0.00 L 90.62 0.00 C 90.67 1.24 90.70 2.48 90.73 3.72 C 86.38 6.17 81.11 9.13 83.51 15.41 C 85.68 11.32 88.96 7.92 93.34 6.21 C 93.05 4.13 92.78 2.03 92.22 0.00 L 97.31 0.00 C 96.05 10.80 96.24 21.85 98.61 32.48 L 98.32 32.86 C 97.47 33.85 95.59 35.28 96.95 36.63 C 97.80 37.74 98.66 38.85 99.58 39.91 C 99.42 40.63 99.11 42.08 98.96 42.80 C 94.75 42.46 90.60 43.17 86.63 44.51 C 91.22 45.30 96.59 45.39 99.59 49.57 L 98.88 50.56 L 97.75 50.70 C 91.54 51.05 85.30 50.94 79.18 49.70 C 83.58 44.04 86.32 35.82 94.34 34.33 C 93.08 29.57 90.01 24.82 84.82 23.93 C 81.05 24.30 77.53 25.89 74.02 27.23 C 73.54 29.39 73.30 31.62 72.56 33.72 C 68.95 36.30 64.32 36.80 60.19 38.24 C 62.41 42.09 65.49 45.39 69.76 46.95 C 67.35 44.72 65.40 42.08 63.23 39.63 C 69.16 36.34 75.99 34.47 82.66 36.96 C 81.59 41.39 79.33 45.44 75.71 48.28 C 76.19 49.11 76.68 49.93 77.17 50.76 C 76.45 50.72 75.01 50.64 74.28 50.60 C 69.45 50.37 64.63 50.20 59.81 49.87 C 60.93 48.24 62.06 46.62 63.12 44.94 C 61.19 45.62 59.29 46.35 57.40 47.10 C 57.74 48.30 58.09 49.50 58.44 50.70 C 57.77 50.54 56.45 50.21 55.78 50.04 C 55.72 47.16 55.70 44.28 55.72 41.39 L 55.88 40.58 C 55.92 40.16 55.99 39.32 56.03 38.90 C 56.04 38.37 56.04 37.31 56.04 36.78 C 56.07 31.47 56.10 26.17 56.09 20.87 L 56.76 21.29 C 57.70 21.93 58.68 22.50 59.70 23.00 C 58.69 23.63 57.70 24.29 56.71 24.96 C 59.25 25.15 61.79 25.28 64.33 25.22 C 63.77 24.69 62.65 23.63 62.09 23.10 C 63.76 23.10 65.31 22.39 66.76 21.61 C 67.66 22.30 68.57 22.98 69.48 23.66 C 69.96 23.48 70.92 23.12 71.40 22.94 C 71.46 20.90 71.37 18.86 71.27 16.83 C 71.33 16.24 71.45 15.06 71.51 14.47 C 71.77 11.29 72.00 8.12 72.20 4.94 C 72.40 3.63 72.08 2.47 71.23 1.45 C 70.98 1.09 70.47 0.36 70.22 0.00 M 72.64 3.03 C 75.42 4.30 78.22 5.54 81.04 6.74 C 82.09 4.83 83.43 3.11 84.85 1.48 C 81.19 4.07 76.79 3.10 72.64 3.03 M 66.13 23.11 C 64.82 23.80 64.81 24.47 66.11 25.14 C 67.43 24.46 67.44 23.78 66.13 23.11 Z" />
</g>
<g id="#437acaff">
<path fill="#437aca" opacity="1.00" d=" M 90.62 0.00 L 92.22 0.00 C 92.78 2.03 93.05 4.13 93.34 6.21 C 88.96 7.92 85.68 11.32 83.51 15.41 C 81.11 9.13 86.38 6.17 90.73 3.72 C 90.70 2.48 90.67 1.24 90.62 0.00 Z" />
<path fill="#437aca" opacity="1.00" d=" M 202.62 0.00 L 204.22 0.00 C 204.78 2.03 205.05 4.13 205.34 6.21 C 200.96 7.92 197.68 11.32 195.51 15.41 C 193.11 9.13 198.38 6.17 202.73 3.72 C 202.70 2.48 202.67 1.24 202.62 0.00 Z" />
</g>
<g id="#298ed7ff">
<path fill="#298ed7" opacity="1.00" d=" M 97.31 0.00 L 99.55 0.00 C 98.86 1.20 98.66 2.50 98.98 3.90 L 98.98 4.66 C 98.98 6.29 98.98 7.93 98.98 9.56 C 98.68 10.83 99.56 12.17 100.95 12.06 C 100.42 13.20 99.92 14.36 99.39 15.51 C 98.49 16.80 98.71 18.90 100.31 19.55 C 100.02 20.75 99.78 21.96 99.55 23.17 C 99.50 23.59 99.39 24.44 99.34 24.86 L 99.24 25.66 C 98.98 27.93 98.79 30.21 98.61 32.48 C 96.24 21.85 96.05 10.80 97.31 0.00 Z" />
<path fill="#298ed7" opacity="1.00" d=" M 209.32 0.00 L 211.55 0.00 C 210.85 1.20 210.66 2.50 210.98 3.90 L 210.98 4.66 C 210.98 6.29 210.98 7.93 210.98 9.56 C 210.68 10.83 211.56 12.17 212.95 12.06 C 212.42 13.20 211.92 14.36 211.39 15.51 C 210.49 16.80 210.71 18.91 212.31 19.55 C 212.02 20.75 211.78 21.96 211.55 23.18 C 211.49 23.60 211.39 24.44 211.33 24.86 L 211.24 25.66 C 210.98 27.91 210.78 30.16 210.57 32.42 C 208.39 21.76 207.96 10.79 209.32 0.00 Z" />
</g>
<g id="#5c6268ff">
<path fill="#5c6268" opacity="1.00" d=" M 99.55 0.00 L 101.14 0.00 C 100.87 1.51 99.98 2.78 98.98 3.90 C 98.66 2.50 98.86 1.20 99.55 0.00 Z" />
<path fill="#5c6268" opacity="1.00" d=" M 211.55 0.00 L 213.14 0.00 C 212.87 1.51 211.98 2.78 210.98 3.90 C 210.66 2.50 210.85 1.20 211.55 0.00 Z" />
</g>
<g id="#268dd8ff">
<path fill="#268dd8" opacity="1.00" d=" M 124.96 0.00 L 126.16 0.00 C 129.40 7.64 128.90 16.52 124.39 23.57 C 124.40 22.80 124.41 21.25 124.42 20.47 C 124.74 18.15 125.24 15.87 125.70 13.58 C 125.36 14.05 124.68 15.00 124.34 15.47 C 125.16 13.93 125.87 12.34 126.42 10.68 C 126.19 9.45 125.71 6.97 125.48 5.74 C 125.26 4.57 125.04 3.41 124.82 2.24 C 124.86 1.68 124.93 0.56 124.96 0.00 Z" />
</g>
<g id="#4476cbff">
<path fill="#4476cb" opacity="1.00" d=" M 138.19 0.00 L 141.17 0.00 C 139.72 1.76 138.38 3.62 136.76 5.23 C 133.91 4.67 131.31 3.29 128.65 2.17 C 131.15 2.12 133.64 2.22 136.14 2.29 C 136.65 1.72 137.67 0.57 138.19 0.00 Z" />
<path fill="#4476cb" opacity="1.00" d=" M 72.64 3.03 C 76.79 3.10 81.19 4.07 84.85 1.48 C 83.43 3.11 82.09 4.83 81.04 6.74 C 78.22 5.54 75.42 4.30 72.64 3.03 Z" />
</g>
<g id="#457bcbff">
<path fill="#457bcb" opacity="1.00" d=" M 149.16 0.00 L 149.27 0.00 C 149.66 1.79 150.10 3.56 150.53 5.34 C 148.83 6.05 147.11 6.72 145.46 7.55 C 142.17 8.84 141.27 12.60 139.90 15.49 C 139.98 12.53 139.98 9.56 139.73 6.61 C 143.60 5.57 146.95 3.41 149.16 0.00 Z" />
</g>
<g id="#288ed7ff">
<path fill="#288ed7" opacity="1.00" d=" M 153.33 0.00 L 155.26 0.00 C 155.28 0.59 155.33 1.78 155.35 2.37 C 155.38 3.20 155.42 4.03 155.47 4.85 C 155.56 6.68 155.81 8.51 156.30 10.28 C 156.50 10.65 156.90 11.41 157.10 11.79 C 156.24 15.53 156.03 19.38 155.58 23.19 C 155.55 23.62 155.47 24.47 155.44 24.89 L 155.32 25.71 C 155.12 27.14 154.95 28.59 154.82 30.03 C 154.79 30.64 154.72 31.85 154.69 32.46 C 152.27 21.84 152.01 10.79 153.33 0.00 Z" />
</g>
<g id="#3c6cbfff">
<path fill="#3c6cbf" opacity="1.00" d=" M 182.22 0.00 L 202.62 0.00 C 202.67 1.24 202.70 2.48 202.73 3.72 C 198.38 6.17 193.11 9.13 195.51 15.41 C 197.68 11.32 200.96 7.92 205.34 6.21 C 205.05 4.13 204.78 2.03 204.22 0.00 L 209.32 0.00 C 207.96 10.79 208.39 21.76 210.57 32.42 L 210.53 33.17 L 210.45 34.34 C 208.82 33.30 206.66 35.46 208.64 36.67 C 209.64 37.73 210.61 38.82 211.65 39.84 C 211.48 40.56 211.15 42.01 210.98 42.74 C 206.76 42.46 202.61 43.18 198.63 44.51 C 203.22 45.31 208.59 45.38 211.59 49.57 L 210.88 50.55 L 209.74 50.69 C 203.54 51.06 197.30 50.93 191.19 49.70 C 195.27 44.03 198.37 36.83 205.37 34.17 C 205.06 31.85 204.63 29.54 204.15 27.25 C 201.56 26.18 199.15 24.33 196.31 23.98 C 192.72 24.45 189.37 25.95 186.02 27.22 C 185.54 29.39 185.29 31.62 184.56 33.72 C 180.95 36.30 176.32 36.80 172.19 38.24 C 174.41 42.09 177.49 45.39 181.76 46.95 C 179.35 44.72 177.40 42.08 175.23 39.63 C 181.16 36.34 187.99 34.47 194.66 36.96 C 193.59 41.39 191.33 45.44 187.71 48.28 C 188.19 49.11 188.68 49.93 189.17 50.76 C 188.45 50.72 187.01 50.64 186.28 50.60 C 181.45 50.37 176.63 50.20 171.81 49.87 C 172.93 48.24 174.06 46.62 175.12 44.94 C 173.19 45.62 171.29 46.35 169.40 47.10 C 169.74 48.30 170.09 49.50 170.44 50.70 C 169.77 50.54 168.45 50.21 167.78 50.04 C 167.71 47.16 167.69 44.28 167.72 41.39 L 167.88 40.58 C 167.92 40.16 168.00 39.32 168.04 38.90 C 168.04 38.37 168.04 37.31 168.04 36.78 C 168.07 31.48 168.10 26.18 168.09 20.88 L 168.77 21.29 C 169.73 21.94 170.74 22.49 171.81 22.96 C 170.78 23.48 169.76 24.02 168.75 24.58 C 170.79 25.28 172.83 26.01 174.87 26.75 C 174.67 25.51 174.47 24.27 174.17 23.05 C 175.82 23.11 177.38 22.42 178.77 21.59 C 179.67 22.28 180.56 22.98 181.46 23.67 C 181.95 23.49 182.92 23.12 183.40 22.93 C 183.45 20.89 183.37 18.86 183.27 16.83 C 183.33 16.24 183.45 15.06 183.51 14.47 C 183.76 11.29 184.00 8.12 184.20 4.94 C 184.40 3.63 184.08 2.47 183.23 1.45 C 182.98 1.09 182.47 0.36 182.22 0.00 M 178.13 23.11 C 176.82 23.80 176.81 24.47 178.11 25.14 C 179.43 24.46 179.44 23.78 178.13 23.11 Z" />
<path fill="#3c6cbf" opacity="1.00" d=" M 31.35 38.94 C 32.53 35.89 36.46 36.55 39.08 35.69 L 39.67 36.16 C 40.44 36.81 41.21 37.46 41.98 38.11 C 41.80 39.70 41.43 42.87 41.25 44.46 L 41.19 45.04 C 41.53 46.99 42.10 48.89 42.54 50.83 L 41.56 50.87 C 35.61 50.91 29.67 50.42 23.73 50.05 C 26.52 46.52 29.53 43.10 31.35 38.94 Z" />
</g>
<g id="#7da960ff">
<path fill="#7da960" opacity="1.00" d=" M 218.49 0.00 L 224.00 0.00 L 224.00 8.38 C 222.54 9.35 221.04 10.26 219.56 11.19 C 219.96 8.75 220.37 6.30 220.75 3.86 C 219.93 4.55 219.12 5.26 218.32 5.97 L 218.42 4.98 C 218.51 3.74 218.58 2.50 218.58 1.25 C 218.55 0.94 218.51 0.31 218.49 0.00 Z" />
</g>
<g id="#86a0b1ff">
<path fill="#86a0b1" opacity="1.00" d=" M 16.20 4.46 C 13.90 4.59 13.47 1.79 15.36 0.81 C 15.54 1.28 15.90 2.22 16.07 2.69 C 16.11 3.14 16.17 4.02 16.20 4.46 Z" />
<path fill="#86a0b1" opacity="1.00" d=" M 98.98 9.56 C 99.36 9.60 100.13 9.68 100.51 9.72 C 100.70 10.15 101.06 11.01 101.25 11.44 L 100.95 12.06 C 99.56 12.17 98.68 10.83 98.98 9.56 Z" />
<path fill="#86a0b1" opacity="1.00" d=" M 210.98 9.56 C 211.36 9.60 212.13 9.68 212.51 9.72 C 212.70 10.15 213.06 11.01 213.25 11.44 L 212.95 12.06 C 211.56 12.17 210.68 10.83 210.98 9.56 Z" />
<path fill="#86a0b1" opacity="1.00" d=" M 100.31 19.55 C 98.71 18.90 98.49 16.80 99.39 15.51 C 100.97 16.22 100.88 18.19 100.31 19.55 Z" />
<path fill="#86a0b1" opacity="1.00" d=" M 212.31 19.55 C 210.71 18.91 210.49 16.80 211.39 15.51 C 212.97 16.22 212.87 18.19 212.31 19.55 Z" />
<path fill="#86a0b1" opacity="1.00" d=" M 42.24 21.34 L 42.90 21.66 C 43.06 22.08 43.39 22.92 43.55 23.34 C 43.52 23.75 43.47 24.56 43.44 24.97 L 42.98 25.47 C 42.43 24.58 41.94 23.65 41.51 22.70 C 41.69 22.36 42.06 21.68 42.24 21.34 Z" />
<path fill="#86a0b1" opacity="1.00" d=" M 155.58 23.19 L 156.18 22.75 C 156.48 23.04 157.07 23.63 157.36 23.93 L 157.21 24.68 C 156.76 24.73 155.88 24.84 155.44 24.89 C 155.47 24.47 155.55 23.62 155.58 23.19 Z" />
<path fill="#86a0b1" opacity="1.00" d=" M 100.34 47.58 C 98.35 47.05 97.89 44.39 99.98 43.63 C 101.18 44.57 100.86 46.35 100.34 47.58 Z" />
<path fill="#86a0b1" opacity="1.00" d=" M 212.34 47.58 C 210.35 47.05 209.89 44.39 211.98 43.63 C 213.17 44.58 212.86 46.35 212.34 47.58 Z" />
</g>
<g id="#709e5cff">
<path fill="#709e5c" opacity="1.00" d=" M 3.81 3.90 C 5.75 3.31 7.69 2.72 9.65 2.20 C 9.46 4.01 9.43 5.84 9.39 7.66 C 7.01 7.89 4.63 8.23 2.22 8.18 C 2.75 6.75 3.28 5.32 3.81 3.90 Z" />
<path fill="#709e5c" opacity="1.00" d=" M 59.81 3.86 C 61.76 3.31 63.70 2.73 65.65 2.19 C 65.46 4.01 65.43 5.83 65.39 7.65 C 63.04 8.00 60.66 8.25 58.29 8.02 C 58.79 6.63 59.30 5.25 59.81 3.86 Z" />
<path fill="#709e5c" opacity="1.00" d=" M 115.81 3.87 C 117.76 3.31 119.70 2.73 121.66 2.19 C 121.46 4.01 121.43 5.83 121.39 7.65 C 119.04 7.99 116.66 8.26 114.29 8.02 C 114.79 6.63 115.30 5.25 115.81 3.87 Z" />
<path fill="#709e5c" opacity="1.00" d=" M 171.81 3.86 C 173.76 3.31 175.70 2.73 177.65 2.19 C 177.46 4.01 177.43 5.83 177.39 7.65 C 175.04 8.00 172.66 8.25 170.29 8.02 C 170.79 6.63 171.30 5.25 171.81 3.86 Z" />
</g>
<g id="#7392b4ff">
<path fill="#7392b4" opacity="1.00" d=" M 72.20 4.94 C 70.21 5.09 70.28 2.56 71.23 1.45 C 72.08 2.47 72.40 3.63 72.20 4.94 Z" />
<path fill="#7392b4" opacity="1.00" d=" M 184.20 4.94 C 182.21 5.09 182.28 2.56 183.23 1.45 C 184.08 2.47 184.40 3.63 184.20 4.94 Z" />
</g>
<g id="#645a4bff">
<path fill="#645a4b" opacity="1.00" d=" M 11.76 12.85 C 10.87 9.24 11.77 5.68 12.84 2.20 C 13.05 3.39 13.24 4.59 13.40 5.79 C 13.19 8.21 12.49 10.54 11.76 12.85 Z" />
<path fill="#645a4b" opacity="1.00" d=" M 67.76 12.85 C 66.83 9.23 67.90 5.71 68.94 2.23 C 69.12 3.41 69.28 4.58 69.42 5.76 C 69.17 8.18 68.50 10.53 67.76 12.85 Z" />
<path fill="#645a4b" opacity="1.00" d=" M 123.74 12.84 C 122.91 9.25 123.83 5.72 124.82 2.24 C 125.04 3.41 125.26 4.57 125.48 5.74 C 125.20 8.17 124.49 10.52 123.74 12.84 Z" />
<path fill="#645a4b" opacity="1.00" d=" M 179.76 12.85 C 178.83 9.23 179.90 5.71 180.94 2.23 C 181.12 3.41 181.28 4.58 181.42 5.76 C 181.17 8.18 180.50 10.53 179.76 12.85 Z" />
</g>
<g id="#4178ccff">
<path fill="#4178cc" opacity="1.00" d=" M 16.07 2.69 C 19.98 4.55 24.35 4.44 28.53 3.84 C 27.26 5.01 26.00 6.18 24.75 7.37 C 21.90 6.39 19.02 5.53 16.20 4.46 C 16.17 4.02 16.11 3.14 16.07 2.69 Z" />
</g>
<g id="#699960fe">
<path fill="#699960" opacity="1.00" d=" M 54.68 2.98 C 57.06 2.34 57.06 6.12 56.15 7.50 L 55.68 7.38 C 55.31 5.97 54.03 4.45 54.68 2.98 Z" />
<path fill="#699960" opacity="1.00" d=" M 110.68 2.98 C 113.06 2.34 113.06 6.12 112.15 7.49 L 111.67 7.38 C 111.31 5.96 110.03 4.45 110.68 2.98 Z" />
<path fill="#699960" opacity="1.00" d=" M 166.68 2.98 C 169.06 2.34 169.06 6.12 168.15 7.50 L 167.68 7.38 C 167.30 5.97 166.03 4.45 166.68 2.98 Z" />
</g>
<g id="#5c8260ff">
<path fill="#5c8260" opacity="1.00" d=" M 0.00 4.26 C 1.35 4.99 2.08 6.95 0.67 8.04 L 0.00 7.96 L 0.00 4.26 Z" />
</g>
<g id="#322f2cff">
<path fill="#322f2c" opacity="1.00" d=" M 43.05 4.97 C 45.51 4.78 47.97 4.77 50.44 4.90 L 50.36 5.91 C 49.89 11.55 48.11 16.91 46.59 22.32 C 45.98 22.46 44.75 22.75 44.14 22.89 L 43.55 23.34 C 43.39 22.92 43.06 22.08 42.90 21.66 C 43.09 21.07 43.48 19.89 43.67 19.30 C 44.11 18.22 44.28 17.06 44.29 15.90 C 44.41 14.69 44.56 13.48 44.70 12.27 L 44.79 11.46 C 47.31 11.54 46.34 8.57 44.27 9.76 C 43.85 9.48 43.00 8.93 42.58 8.66 C 42.60 8.31 42.66 7.61 42.68 7.26 C 42.77 6.68 42.96 5.54 43.05 4.97 M 43.72 7.10 C 45.47 8.17 47.27 9.15 49.08 10.09 C 49.04 9.33 48.97 7.80 48.93 7.03 C 47.20 7.05 45.46 7.08 43.72 7.10 Z" />
<path fill="#322f2c" opacity="1.00" d=" M 98.98 4.66 C 101.46 4.67 103.95 4.78 106.43 4.98 L 106.35 5.97 C 105.92 11.59 104.07 16.90 102.60 22.28 C 101.99 22.40 100.77 22.63 100.16 22.74 L 99.55 23.17 C 99.78 21.96 100.02 20.75 100.31 19.55 C 100.88 18.19 100.97 16.22 99.39 15.51 C 99.92 14.36 100.42 13.20 100.95 12.06 L 101.25 11.44 C 103.74 11.33 102.43 8.57 100.51 9.72 C 100.13 9.68 99.36 9.60 98.98 9.56 C 98.98 7.93 98.98 6.29 98.98 4.66 M 99.72 7.10 C 101.47 8.17 103.27 9.15 105.08 10.09 C 105.04 9.33 104.97 7.80 104.93 7.03 C 103.20 7.05 101.46 7.08 99.72 7.10 Z" />
<path fill="#322f2c" opacity="1.00" d=" M 155.47 4.85 C 157.79 4.75 160.12 4.79 162.44 4.93 L 162.36 5.94 C 161.94 11.56 160.06 16.86 158.62 22.26 C 158.01 22.38 156.79 22.63 156.18 22.75 L 155.58 23.19 C 156.03 19.38 156.24 15.53 157.10 11.79 C 159.25 11.08 157.66 8.09 156.30 10.28 C 155.81 8.51 155.56 6.68 155.47 4.85 M 155.72 7.10 C 157.47 8.17 159.27 9.15 161.08 10.09 C 161.04 9.33 160.97 7.80 160.93 7.03 C 159.20 7.05 157.46 7.08 155.72 7.10 Z" />
<path fill="#322f2c" opacity="1.00" d=" M 210.98 4.66 C 213.46 4.66 215.94 4.78 218.42 4.98 L 218.32 5.97 C 217.90 11.59 216.09 16.90 214.60 22.28 C 213.99 22.40 212.77 22.63 212.16 22.75 L 211.55 23.18 C 211.78 21.96 212.02 20.75 212.31 19.55 C 212.87 18.19 212.97 16.22 211.39 15.51 C 211.92 14.36 212.42 13.20 212.95 12.06 L 213.25 11.44 C 215.74 11.33 214.43 8.57 212.51 9.72 C 212.13 9.68 211.36 9.60 210.98 9.56 C 210.98 7.93 210.98 6.29 210.98 4.66 M 211.72 7.10 C 213.47 8.17 215.27 9.15 217.08 10.09 C 217.04 9.33 216.97 7.80 216.93 7.03 C 215.19 7.05 213.46 7.08 211.72 7.10 Z" />
</g>
<g id="#4f6048ff">
<path fill="#4f6048" opacity="1.00" d=" M 50.36 5.91 C 51.15 5.22 51.95 4.53 52.76 3.86 C 52.42 6.26 51.94 8.64 51.54 11.03 C 51.24 12.97 50.95 14.92 50.70 16.87 C 50.36 18.92 50.29 21.01 49.88 23.05 L 49.85 22.63 C 50.68 19.65 46.18 19.81 48.31 22.52 C 47.86 22.67 46.96 22.96 46.50 23.10 L 46.59 22.32 C 48.11 16.91 49.89 11.55 50.36 5.91 Z" />
<path fill="#4f6048" opacity="1.00" d=" M 106.35 5.97 C 107.14 5.25 107.94 4.55 108.76 3.85 C 108.40 6.25 107.95 8.63 107.55 11.02 C 107.25 12.97 106.92 14.91 106.69 16.87 C 106.36 18.93 106.35 21.04 105.96 23.10 L 105.92 22.67 C 106.65 19.71 102.15 19.81 104.37 22.54 C 103.90 22.67 102.95 22.94 102.47 23.07 L 102.60 22.28 C 104.07 16.90 105.92 11.59 106.35 5.97 Z" />
<path fill="#4f6048" opacity="1.00" d=" M 162.36 5.94 C 163.15 5.23 163.95 4.54 164.76 3.86 C 164.40 6.25 163.95 8.64 163.55 11.03 C 163.25 12.97 162.93 14.92 162.69 16.88 C 162.36 18.94 162.34 21.04 161.97 23.09 L 161.93 22.66 C 162.65 19.71 158.15 19.81 160.37 22.53 C 159.90 22.66 158.97 22.92 158.50 23.05 L 158.62 22.26 C 160.06 16.86 161.94 11.56 162.36 5.94 Z" />
<path fill="#4f6048" opacity="1.00" d=" M 218.32 5.97 C 219.12 5.26 219.93 4.55 220.75 3.86 C 220.37 6.30 219.96 8.75 219.56 11.19 C 219.25 13.09 218.92 14.98 218.69 16.89 C 218.36 18.95 218.34 21.05 217.96 23.10 L 217.92 22.67 C 218.65 19.71 214.15 19.81 216.37 22.54 C 215.90 22.67 214.95 22.94 214.48 23.07 L 214.60 22.28 C 216.09 16.90 217.90 11.59 218.32 5.97 Z" />
</g>
<g id="#268ed9ff">
<path fill="#268ed9" opacity="1.00" d=" M 38.77 7.57 C 39.89 6.98 41.05 6.48 42.25 6.06 C 42.36 6.36 42.58 6.96 42.68 7.26 C 42.66 7.61 42.60 8.31 42.58 8.66 C 41.61 8.49 40.64 8.32 39.67 8.15 L 38.99 7.86 L 38.77 7.57 Z" />
<path fill="#268ed9" opacity="1.00" d=" M 56.14 19.19 C 56.59 19.22 57.50 19.26 57.96 19.29 C 57.66 19.79 57.06 20.79 56.76 21.29 L 56.09 20.87 C 56.10 20.45 56.12 19.61 56.14 19.19 Z" />
<path fill="#268ed9" opacity="1.00" d=" M 168.14 19.20 C 168.59 19.22 169.50 19.27 169.96 19.30 C 169.66 19.80 169.06 20.80 168.77 21.29 L 168.09 20.88 C 168.11 20.46 168.13 19.62 168.14 19.20 Z" />
<path fill="#268ed9" opacity="1.00" d=" M 41.58 32.48 C 41.20 29.23 40.54 25.90 41.51 22.70 C 41.94 23.65 42.43 24.58 42.98 25.47 C 42.99 25.94 43.01 26.87 43.02 27.34 C 42.56 29.06 42.03 30.76 41.58 32.48 Z" />
<path fill="#268ed9" opacity="1.00" d=" M 38.83 35.38 C 39.80 34.92 40.81 34.57 41.86 34.33 C 42.09 34.60 42.56 35.14 42.80 35.41 C 42.80 35.74 42.81 36.41 42.81 36.74 C 41.76 36.57 40.71 36.38 39.67 36.16 L 39.08 35.69 L 38.83 35.38 Z" />
<path fill="#268ed9" opacity="1.00" d=" M 208.64 36.67 C 206.66 35.46 208.82 33.30 210.45 34.34 C 210.37 34.77 210.22 35.64 210.14 36.07 C 209.77 36.22 209.02 36.52 208.64 36.67 Z" />
</g>
<g id="#565249ff">
<path fill="#565249" opacity="1.00" d=" M 43.72 7.10 C 45.46 7.08 47.20 7.05 48.93 7.03 C 48.97 7.80 49.04 9.33 49.08 10.09 C 47.27 9.15 45.47 8.17 43.72 7.10 Z" />
<path fill="#565249" opacity="1.00" d=" M 99.72 7.10 C 101.46 7.08 103.20 7.05 104.93 7.03 C 104.97 7.80 105.04 9.33 105.08 10.09 C 103.27 9.15 101.47 8.17 99.72 7.10 Z" />
<path fill="#565249" opacity="1.00" d=" M 155.72 7.10 C 157.46 7.08 159.20 7.05 160.93 7.03 C 160.97 7.80 161.04 9.33 161.08 10.09 C 159.27 9.15 157.47 8.17 155.72 7.10 Z" />
<path fill="#565249" opacity="1.00" d=" M 211.72 7.10 C 213.46 7.08 215.19 7.05 216.93 7.03 C 216.97 7.80 217.04 9.33 217.08 10.09 C 215.27 9.15 213.47 8.17 211.72 7.10 Z" />
<path fill="#565249" opacity="1.00" d=" M 44.27 9.76 C 46.34 8.57 47.31 11.54 44.79 11.46 C 44.66 11.03 44.40 10.18 44.27 9.76 Z" />
<path fill="#565249" opacity="1.00" d=" M 100.51 9.72 C 102.43 8.57 103.74 11.33 101.25 11.44 C 101.06 11.01 100.70 10.15 100.51 9.72 Z" />
<path fill="#565249" opacity="1.00" d=" M 156.30 10.28 C 157.66 8.09 159.25 11.08 157.10 11.79 C 156.90 11.41 156.50 10.65 156.30 10.28 Z" />
<path fill="#565249" opacity="1.00" d=" M 212.51 9.72 C 214.43 8.57 215.74 11.33 213.25 11.44 C 213.06 11.01 212.70 10.15 212.51 9.72 Z" />
<path fill="#565249" opacity="1.00" d=" M 3.82 11.51 C 5.57 13.81 7.68 16.10 7.10 19.43 C 5.93 16.82 4.43 14.34 3.82 11.51 Z" />
<path fill="#565249" opacity="1.00" d=" M 59.82 11.51 C 61.58 13.81 63.67 16.10 63.10 19.43 C 61.93 16.82 60.43 14.34 59.82 11.51 Z" />
<path fill="#565249" opacity="1.00" d=" M 115.82 11.51 C 117.58 13.81 119.66 16.10 119.10 19.43 C 117.93 16.82 116.43 14.34 115.82 11.51 Z" />
<path fill="#565249" opacity="1.00" d=" M 171.82 11.51 C 173.58 13.81 175.66 16.10 175.10 19.43 C 173.93 16.82 172.43 14.34 171.82 11.51 Z" />
<path fill="#565249" opacity="1.00" d=" M 2.50 18.81 C 2.91 18.45 3.73 17.72 4.14 17.36 C 4.83 18.51 5.00 19.95 4.42 21.18 C 4.09 21.10 3.42 20.93 3.09 20.85 C 2.94 20.34 2.65 19.32 2.50 18.81 Z" />
<path fill="#565249" opacity="1.00" d=" M 58.74 19.40 C 58.05 16.60 61.16 17.53 60.98 19.70 C 60.60 19.75 59.85 19.85 59.47 19.89 L 58.74 19.40 Z" />
<path fill="#565249" opacity="1.00" d=" M 170.74 19.41 C 170.05 16.62 173.13 17.52 172.96 19.71 C 172.58 19.76 171.84 19.87 171.46 19.92 L 170.74 19.41 Z" />
<path fill="#565249" opacity="1.00" d=" M 43.72 35.10 C 45.46 35.08 47.20 35.05 48.93 35.03 C 48.97 35.80 49.04 37.33 49.08 38.09 C 47.27 37.15 45.47 36.17 43.72 35.10 Z" />
<path fill="#565249" opacity="1.00" d=" M 99.72 35.10 C 101.46 35.08 103.20 35.05 104.93 35.03 C 104.97 35.80 105.04 37.33 105.08 38.09 C 103.27 37.15 101.47 36.17 99.72 35.10 Z" />
<path fill="#565249" opacity="1.00" d=" M 155.72 35.10 C 157.46 35.08 159.20 35.05 160.93 35.03 C 160.97 35.80 161.04 37.33 161.08 38.09 C 159.27 37.15 157.47 36.17 155.72 35.10 Z" />
<path fill="#565249" opacity="1.00" d=" M 211.72 35.10 C 213.46 35.08 215.19 35.05 216.93 35.03 C 216.97 35.80 217.04 37.33 217.08 38.09 C 215.27 37.15 213.47 36.17 211.72 35.10 Z" />
<path fill="#565249" opacity="1.00" d=" M 44.28 37.78 C 46.32 36.56 47.34 39.51 44.83 39.48 C 44.69 39.05 44.41 38.20 44.28 37.78 Z" />
<path fill="#565249" opacity="1.00" d=" M 100.49 37.44 C 102.63 36.94 103.18 40.32 100.74 39.22 C 100.68 38.77 100.55 37.88 100.49 37.44 Z" />
<path fill="#565249" opacity="1.00" d=" M 156.36 38.30 C 157.61 36.10 159.34 38.91 157.28 39.76 C 157.05 39.40 156.59 38.67 156.36 38.30 Z" />
<path fill="#565249" opacity="1.00" d=" M 212.51 37.42 C 214.64 36.93 215.19 40.31 212.76 39.20 C 212.70 38.76 212.57 37.86 212.51 37.42 Z" />
</g>
<g id="#7b9eb5ff">
<path fill="#7b9eb5" opacity="1.00" d=" M 39.67 8.15 C 40.64 8.32 41.61 8.49 42.58 8.66 C 43.00 8.93 43.85 9.48 44.27 9.76 C 44.40 10.18 44.66 11.03 44.79 11.46 L 44.70 12.27 C 43.82 11.53 42.93 10.78 42.04 10.05 C 41.25 9.40 40.46 8.77 39.67 8.15 Z" />
<path fill="#7b9eb5" opacity="1.00" d=" M 39.67 36.16 C 40.71 36.38 41.76 36.57 42.81 36.74 C 43.18 37.00 43.91 37.52 44.28 37.78 C 44.41 38.20 44.69 39.05 44.83 39.48 L 44.71 40.26 C 43.80 39.55 42.88 38.84 41.98 38.11 C 41.21 37.46 40.44 36.81 39.67 36.16 Z" />
</g>
<g id="#6c604cff">
<path fill="#6c604c" opacity="1.00" d=" M 6.24 9.45 C 6.93 9.33 8.31 9.10 9.00 8.98 C 9.71 12.60 10.28 16.25 10.63 19.92 L 9.93 20.39 C 9.46 20.74 8.52 21.46 8.05 21.81 C 7.51 17.68 6.88 13.56 6.24 9.45 Z" />
<path fill="#6c604c" opacity="1.00" d=" M 62.04 9.48 C 62.77 9.36 64.23 9.11 64.96 8.98 C 65.75 12.74 66.59 16.53 66.63 20.39 L 66.32 21.28 C 65.86 21.14 64.93 20.88 64.46 20.74 C 63.59 17.00 62.90 13.22 62.04 9.48 Z" />
<path fill="#6c604c" opacity="1.00" d=" M 174.04 9.48 C 174.77 9.36 176.23 9.11 176.96 8.98 C 177.75 12.74 178.58 16.51 178.64 20.37 L 178.34 21.24 C 177.87 21.10 176.93 20.83 176.45 20.69 C 175.58 16.97 174.91 13.20 174.04 9.48 Z" />
</g>
<g id="#6b995aff">
<path fill="#6b995a" opacity="1.00" d=" M 51.54 11.03 C 52.99 10.28 54.45 9.56 55.90 8.81 C 55.96 9.32 56.08 10.34 56.14 10.85 C 53.29 8.48 52.72 13.84 56.04 12.50 L 55.85 13.32 C 54.10 14.46 52.34 15.58 50.70 16.87 C 50.95 14.92 51.24 12.97 51.54 11.03 Z" />
<path fill="#6b995a" opacity="1.00" d=" M 107.55 11.02 C 108.99 10.28 110.45 9.56 111.89 8.81 C 111.95 9.32 112.07 10.34 112.13 10.85 C 109.26 8.49 108.74 13.86 112.06 12.51 L 111.90 13.34 C 110.12 14.46 108.34 15.57 106.69 16.87 C 106.92 14.91 107.25 12.97 107.55 11.02 Z" />
<path fill="#6b995a" opacity="1.00" d=" M 163.55 11.03 C 164.99 10.28 166.45 9.55 167.90 8.81 C 167.96 9.32 168.08 10.34 168.14 10.85 C 165.29 8.48 164.72 13.84 168.04 12.50 L 167.85 13.33 C 166.10 14.46 164.33 15.58 162.69 16.88 C 162.93 14.92 163.25 12.97 163.55 11.03 Z" />
<path fill="#6b995a" opacity="1.00" d=" M 219.56 11.19 C 221.04 10.26 222.54 9.35 224.00 8.38 L 224.00 10.79 C 221.05 8.42 220.79 14.14 224.00 12.42 L 224.00 13.02 C 222.21 14.29 220.43 15.56 218.69 16.89 C 218.92 14.98 219.25 13.09 219.56 11.19 Z" />
<path fill="#6b995a" opacity="1.00" d=" M 51.59 39.00 C 53.07 38.25 54.56 37.52 56.04 36.78 C 56.04 37.31 56.04 38.37 56.03 38.90 C 53.38 36.34 52.54 41.86 55.88 40.58 L 55.72 41.39 C 53.97 42.56 52.16 43.62 50.50 44.93 C 50.78 42.94 51.26 40.98 51.59 39.00 Z" />
<path fill="#6b995a" opacity="1.00" d=" M 107.59 39.00 C 109.07 38.25 110.55 37.52 112.03 36.78 C 112.04 37.31 112.05 38.37 112.05 38.89 C 109.28 36.36 108.64 41.92 111.98 40.54 L 111.88 41.37 C 110.07 42.52 108.22 43.60 106.51 44.89 C 106.77 42.91 107.26 40.97 107.59 39.00 Z" />
<path fill="#6b995a" opacity="1.00" d=" M 163.59 39.00 C 165.07 38.25 166.56 37.52 168.04 36.78 C 168.04 37.31 168.04 38.37 168.04 38.90 C 165.38 36.34 164.54 41.86 167.88 40.58 L 167.72 41.39 C 165.97 42.56 164.15 43.62 162.50 44.93 C 162.78 42.94 163.26 40.98 163.59 39.00 Z" />
<path fill="#6b995a" opacity="1.00" d=" M 219.60 39.19 C 221.07 38.25 222.56 37.33 224.00 36.34 L 224.00 38.79 C 221.05 36.42 220.79 42.13 224.00 40.42 L 224.00 41.07 C 222.17 42.35 220.28 43.56 218.51 44.92 C 218.75 42.99 219.26 41.11 219.60 39.19 Z" />
</g>
<g id="#6c5f4bff">
<path fill="#6c5f4b" opacity="1.00" d=" M 118.10 9.49 C 118.72 9.39 119.96 9.20 120.58 9.11 C 121.47 11.66 122.38 14.21 123.35 16.74 C 122.31 17.83 121.24 18.89 120.12 19.89 C 119.41 16.43 118.93 12.92 118.10 9.49 Z" />
</g>
<g id="#3490d2ff">
<path fill="#3490d2" opacity="1.00" d=" M 42.04 10.05 C 42.93 10.78 43.82 11.53 44.70 12.27 C 44.56 13.48 44.41 14.69 44.29 15.90 C 43.53 16.02 42.00 16.26 41.23 16.39 C 41.43 14.80 41.83 11.63 42.04 10.05 Z" />
<path fill="#3490d2" opacity="1.00" d=" M 41.98 38.11 C 42.88 38.84 43.80 39.55 44.71 40.26 C 44.54 41.49 44.34 42.71 44.21 43.94 C 43.47 44.07 41.99 44.33 41.25 44.46 C 41.43 42.87 41.80 39.70 41.98 38.11 Z" />
</g>
<g id="#8db764ff">
<path fill="#8db764" opacity="1.00" d=" M 56.04 12.50 C 52.72 13.84 53.29 8.48 56.14 10.85 C 56.11 11.26 56.06 12.09 56.04 12.50 Z" />
<path fill="#8db764" opacity="1.00" d=" M 112.06 12.51 C 108.74 13.86 109.26 8.49 112.13 10.85 C 112.11 11.26 112.08 12.09 112.06 12.51 Z" />
<path fill="#8db764" opacity="1.00" d=" M 168.04 12.50 C 164.72 13.84 165.29 8.48 168.14 10.85 C 168.11 11.26 168.06 12.09 168.04 12.50 Z" />
<path fill="#8db764" opacity="1.00" d=" M 224.00 12.42 C 220.79 14.14 221.05 8.42 224.00 10.79 L 224.00 12.42 Z" />
<path fill="#8db764" opacity="1.00" d=" M 55.88 40.58 C 52.54 41.86 53.38 36.34 56.03 38.90 C 55.99 39.32 55.92 40.16 55.88 40.58 Z" />
<path fill="#8db764" opacity="1.00" d=" M 111.98 40.54 C 108.64 41.92 109.28 36.36 112.05 38.89 C 112.04 39.30 112.00 40.12 111.98 40.54 Z" />
<path fill="#8db764" opacity="1.00" d=" M 167.88 40.58 C 164.54 41.86 165.38 36.34 168.04 38.90 C 168.00 39.32 167.92 40.16 167.88 40.58 Z" />
<path fill="#8db764" opacity="1.00" d=" M 224.00 40.42 C 220.79 42.13 221.05 36.42 224.00 38.79 L 224.00 40.42 Z" />
</g>
<g id="#709fc2fe">
<path fill="#709fc2" opacity="1.00" d=" M 12.05 18.67 C 12.36 16.80 13.48 15.25 14.92 14.06 C 14.96 14.70 15.04 15.97 15.09 16.61 C 14.38 17.80 13.11 18.43 11.96 19.11 L 12.05 18.67 Z" />
</g>
<g id="#7ca85efe">
<path fill="#7ca85e" opacity="1.00" d=" M 50.70 16.87 C 52.34 15.58 54.10 14.46 55.85 13.32 C 55.92 15.28 56.07 17.24 56.14 19.19 C 56.12 19.61 56.10 20.45 56.09 20.87 C 56.10 26.17 56.07 31.47 56.04 36.78 C 54.56 37.52 53.07 38.25 51.59 39.00 C 52.01 36.63 52.37 34.25 52.75 31.88 C 51.92 32.55 51.09 33.23 50.28 33.93 L 50.37 32.88 C 50.45 31.72 50.50 30.56 50.50 29.40 C 50.50 28.94 50.51 28.02 50.52 27.56 L 50.53 27.03 C 50.25 26.37 49.70 25.04 49.43 24.38 C 49.54 24.05 49.77 23.38 49.88 23.05 C 50.29 21.01 50.36 18.92 50.70 16.87 Z" />
<path fill="#7ca85e" opacity="1.00" d=" M 106.69 16.87 C 108.34 15.57 110.12 14.46 111.90 13.34 C 111.99 14.95 112.07 16.56 112.16 18.18 L 112.16 18.69 C 112.13 24.72 112.05 30.75 112.03 36.78 C 110.55 37.52 109.07 38.25 107.59 39.00 C 108.01 36.63 108.37 34.26 108.75 31.88 C 107.90 32.56 107.07 33.25 106.24 33.95 L 106.35 32.91 C 106.44 31.74 106.52 30.58 106.52 29.41 C 106.52 28.93 106.52 27.95 106.52 27.46 L 106.53 26.92 C 106.21 26.28 105.56 25.01 105.24 24.38 C 105.42 24.06 105.78 23.42 105.96 23.10 C 106.35 21.04 106.36 18.93 106.69 16.87 Z" />
<path fill="#7ca85e" opacity="1.00" d=" M 162.69 16.88 C 164.33 15.58 166.10 14.46 167.85 13.33 C 167.91 15.29 168.07 17.24 168.14 19.20 C 168.13 19.62 168.11 20.46 168.09 20.88 C 168.10 26.18 168.07 31.48 168.04 36.78 C 166.56 37.52 165.07 38.25 163.59 39.00 C 164.01 36.63 164.37 34.25 164.75 31.88 C 163.91 32.55 163.07 33.24 162.25 33.94 L 162.36 32.86 C 162.45 31.71 162.51 30.55 162.52 29.39 C 162.52 28.91 162.53 27.95 162.53 27.47 L 162.53 26.92 C 162.21 26.29 161.57 25.01 161.25 24.38 C 161.43 24.06 161.79 23.42 161.97 23.09 C 162.34 21.04 162.36 18.94 162.69 16.88 Z" />
<path fill="#7ca85e" opacity="1.00" d=" M 218.69 16.89 C 220.43 15.56 222.21 14.29 224.00 13.02 L 224.00 36.34 C 222.56 37.33 221.07 38.25 219.60 39.19 C 220.00 36.76 220.35 34.31 220.75 31.88 C 219.91 32.56 219.08 33.24 218.26 33.92 L 218.36 32.82 C 218.45 31.68 218.51 30.54 218.52 29.39 C 218.52 28.91 218.52 27.94 218.53 27.46 L 218.53 26.92 C 218.21 26.28 217.56 25.01 217.24 24.38 C 217.42 24.06 217.78 23.42 217.96 23.10 C 218.34 21.05 218.36 18.95 218.69 16.89 Z" />
</g>
<g id="#7ca2beff">
<path fill="#7ca2be" opacity="1.00" d=" M 67.89 17.24 C 68.94 16.13 70.06 15.03 71.51 14.47 C 71.45 15.06 71.33 16.24 71.27 16.83 C 70.18 17.46 69.01 17.73 67.74 17.63 L 67.89 17.24 Z" />
<path fill="#7ca2be" opacity="1.00" d=" M 179.89 17.24 C 180.94 16.13 182.06 15.03 183.51 14.47 C 183.45 15.06 183.33 16.24 183.27 16.83 C 182.18 17.46 181.00 17.73 179.73 17.63 L 179.89 17.24 Z" />
</g>
<g id="#7fa1b9ff">
<path fill="#7fa1b9" opacity="1.00" d=" M 124.34 15.47 C 124.68 15.00 125.36 14.05 125.70 13.58 C 125.24 15.87 124.74 18.15 124.42 20.47 C 122.53 20.85 120.64 21.22 118.76 21.59 L 117.71 21.80 L 118.16 21.45 C 118.65 21.06 119.63 20.28 120.12 19.89 C 121.24 18.89 122.31 17.83 123.35 16.74 C 123.60 16.42 124.10 15.79 124.34 15.47 Z" />
</g>
<g id="#4478cbff">
<path fill="#4478cb" opacity="1.00" d=" M 137.54 15.26 C 138.41 14.13 140.38 15.59 139.46 16.74 C 138.58 17.87 136.62 16.41 137.54 15.26 Z" />
</g>
<g id="#86a0b0fe">
<path fill="#86a0b0" opacity="1.00" d=" M 41.23 16.39 C 42.00 16.26 43.53 16.02 44.29 15.90 C 44.28 17.06 44.11 18.22 43.67 19.30 C 42.73 18.67 41.82 17.95 41.15 17.03 L 41.23 16.39 Z" />
<path fill="#86a0b0" opacity="1.00" d=" M 41.25 44.46 C 41.99 44.33 43.47 44.07 44.21 43.94 C 44.32 45.06 44.52 46.27 44.00 47.34 C 42.97 46.70 41.95 45.99 41.19 45.04 L 41.25 44.46 Z" />
</g>
<g id="#2a8ad7ff">
<path fill="#2a8ad7" opacity="1.00" d=" M 11.96 19.11 C 13.11 18.43 14.38 17.80 15.09 16.61 C 15.29 19.26 15.54 21.91 15.72 24.56 C 15.09 24.66 13.85 24.85 13.23 24.95 C 12.90 24.49 12.24 23.59 11.91 23.14 C 13.18 23.05 13.83 22.44 13.86 21.30 C 13.09 19.68 11.45 21.49 11.53 22.63 L 11.24 22.22 C 10.91 21.77 10.25 20.85 9.93 20.39 L 10.63 19.92 C 10.96 19.71 11.63 19.31 11.96 19.11 Z" />
</g>
<g id="#2889d5ff">
<path fill="#2889d5" opacity="1.00" d=" M 42.24 21.34 C 41.77 19.93 41.35 18.50 41.15 17.03 C 41.82 17.95 42.73 18.67 43.67 19.30 C 43.48 19.89 43.09 21.07 42.90 21.66 L 42.24 21.34 Z" />
</g>
<g id="#3893d8ff">
<path fill="#3893d8" opacity="1.00" d=" M 67.74 17.63 C 69.01 17.73 70.18 17.46 71.27 16.83 C 71.37 18.86 71.46 20.90 71.40 22.94 C 70.92 23.12 69.96 23.48 69.48 23.66 C 68.57 22.98 67.66 22.30 66.76 21.61 L 66.32 21.28 L 66.63 20.39 C 66.99 19.47 67.36 18.55 67.74 17.63 Z" />
<path fill="#3893d8" opacity="1.00" d=" M 179.73 17.63 C 181.00 17.73 182.18 17.46 183.27 16.83 C 183.37 18.86 183.45 20.89 183.40 22.93 C 182.92 23.12 181.95 23.49 181.46 23.67 C 180.56 22.98 179.67 22.28 178.77 21.59 L 178.34 21.24 L 178.64 20.37 C 178.99 19.45 179.36 18.54 179.73 17.63 Z" />
</g>
<g id="#9cb3c7fe">
<path fill="#9cb3c7" opacity="1.00" d=" M 112.16 18.18 C 112.53 18.20 113.26 18.24 113.62 18.26 C 114.76 19.34 115.56 20.72 116.25 22.12 L 115.80 22.28 C 114.22 21.52 112.89 20.30 112.16 18.69 L 112.16 18.18 Z" />
<path fill="#9cb3c7" opacity="1.00" d=" M 57.96 19.29 L 58.74 19.40 L 59.47 19.89 C 59.62 20.89 59.86 21.86 60.20 22.81 L 59.70 23.00 C 58.68 22.50 57.70 21.93 56.76 21.29 C 57.06 20.79 57.66 19.79 57.96 19.29 Z" />
<path fill="#9cb3c7" opacity="1.00" d=" M 169.96 19.30 L 170.74 19.41 L 171.46 19.92 C 171.65 20.90 171.94 21.85 172.34 22.76 L 171.81 22.96 C 170.74 22.49 169.73 21.94 168.77 21.29 C 169.06 20.80 169.66 19.80 169.96 19.30 Z" />
</g>
<g id="#5688bafe">
<path fill="#5688ba" opacity="1.00" d=" M 113.62 18.26 C 115.65 18.25 117.29 19.71 118.16 21.45 L 117.71 21.80 C 117.35 21.88 116.62 22.04 116.25 22.12 C 115.56 20.72 114.76 19.34 113.62 18.26 Z" />
</g>
<g id="#9eb5caff">
<path fill="#9eb5ca" opacity="1.00" d=" M 1.24 20.10 C 1.55 19.78 2.19 19.13 2.50 18.81 C 2.65 19.32 2.94 20.34 3.09 20.85 C 3.37 21.88 3.74 22.86 4.21 23.81 L 3.24 23.68 C 2.48 22.54 1.82 21.34 1.24 20.10 Z" />
</g>
<g id="#427acbff">
<path fill="#427acb" opacity="1.00" d=" M 22.31 18.11 C 26.51 19.82 29.39 23.34 31.74 27.07 C 27.50 24.96 23.54 27.93 19.97 29.99 C 19.95 30.77 19.92 32.33 19.90 33.12 C 21.73 33.97 23.54 34.86 25.44 35.52 C 28.50 36.81 31.29 34.22 34.08 33.29 C 33.60 31.29 33.21 29.27 32.80 27.25 C 34.62 30.10 36.59 32.85 38.83 35.38 L 39.08 35.69 C 36.46 36.55 32.53 35.89 31.35 38.94 C 29.53 43.10 26.52 46.52 23.73 50.05 C 29.67 50.42 35.61 50.91 41.56 50.87 C 34.72 51.30 27.83 51.77 21.02 50.72 C 21.00 49.10 20.89 47.48 20.69 45.87 C 23.02 44.40 26.84 43.60 27.01 40.27 C 22.66 35.28 13.28 34.56 9.14 40.23 C 10.51 43.43 13.40 45.56 15.86 47.87 C 12.68 46.78 9.90 44.81 8.24 41.84 C 6.79 38.64 2.84 39.25 0.00 38.56 L 0.00 37.94 C 6.63 36.90 13.55 36.32 19.54 33.02 C 18.54 31.15 17.50 29.29 16.39 27.48 C 20.44 27.58 24.40 26.57 28.03 24.80 C 25.96 22.71 24.08 20.45 22.31 18.11 Z" />
<path fill="#427acb" opacity="1.00" d=" M 74.02 27.23 C 77.53 25.89 81.05 24.30 84.82 23.93 C 90.01 24.82 93.08 29.57 94.34 34.33 C 86.32 35.82 83.58 44.04 79.18 49.70 C 85.30 50.94 91.54 51.05 97.75 50.70 C 90.92 51.60 84.00 51.72 77.17 50.76 C 76.68 49.93 76.19 49.11 75.71 48.28 C 79.33 45.44 81.59 41.39 82.66 36.96 C 75.99 34.47 69.16 36.34 63.23 39.63 C 65.40 42.08 67.35 44.72 69.76 46.95 C 65.49 45.39 62.41 42.09 60.19 38.24 C 64.32 36.80 68.95 36.30 72.56 33.72 C 73.30 31.62 73.54 29.39 74.02 27.23 M 74.23 31.89 C 79.39 35.18 86.04 35.89 91.07 32.12 C 91.08 31.28 91.11 29.62 91.12 28.79 C 88.69 28.64 86.27 28.36 83.87 27.94 C 85.00 27.10 86.18 26.34 87.35 25.57 C 82.16 25.81 75.69 25.86 74.23 31.89 Z" />
<path fill="#427acb" opacity="1.00" d=" M 196.31 23.98 C 199.15 24.33 201.56 26.18 204.15 27.25 C 204.63 29.54 205.06 31.85 205.37 34.17 C 198.37 36.83 195.27 44.03 191.19 49.70 C 197.30 50.93 203.54 51.06 209.74 50.69 C 202.92 51.62 196.00 51.71 189.17 50.76 C 188.68 49.93 188.19 49.11 187.71 48.28 C 191.33 45.44 193.59 41.39 194.66 36.96 C 187.99 34.47 181.16 36.34 175.23 39.63 C 177.40 42.08 179.35 44.72 181.76 46.95 C 177.49 45.39 174.41 42.09 172.19 38.24 C 176.32 36.80 180.95 36.30 184.56 33.72 C 185.29 31.62 185.54 29.39 186.02 27.22 C 189.37 25.95 192.72 24.45 196.31 23.98 M 186.32 31.79 C 188.81 32.93 191.09 34.77 193.81 35.38 C 197.22 35.56 200.12 33.52 203.06 32.11 C 203.07 31.28 203.11 29.62 203.13 28.79 C 200.69 28.64 198.27 28.35 195.87 27.94 C 196.99 27.10 198.17 26.34 199.35 25.57 C 194.25 25.86 187.70 25.78 186.32 31.79 Z" />
</g>
<g id="#3c76c7ff">
<path fill="#3c76c7" opacity="1.00" d=" M 0.00 21.38 C 0.31 21.06 0.93 20.42 1.24 20.10 C 1.82 21.34 2.48 22.54 3.24 23.68 C 2.53 24.38 1.81 25.08 1.10 25.79 C 2.91 26.18 4.73 26.57 6.53 27.01 C 7.44 27.23 8.34 27.47 9.25 27.71 C 6.18 28.83 3.14 30.04 0.00 30.95 L 0.00 21.38 Z" />
</g>
<g id="#adc2d9ff">
<path fill="#adc2d9" opacity="1.00" d=" M 11.53 22.63 C 11.45 21.49 13.09 19.68 13.86 21.30 C 13.83 22.44 13.18 23.05 11.91 23.14 L 11.53 22.63 Z" />
<path fill="#adc2d9" opacity="1.00" d=" M 43.55 23.34 L 44.14 22.89 C 44.45 23.17 45.08 23.73 45.39 24.01 L 45.26 24.75 C 44.80 24.80 43.89 24.92 43.44 24.97 C 43.47 24.56 43.52 23.75 43.55 23.34 Z" />
<path fill="#adc2d9" opacity="1.00" d=" M 99.55 23.17 L 100.16 22.74 C 100.44 23.04 101.02 23.63 101.31 23.93 L 101.14 24.66 C 100.69 24.71 99.79 24.81 99.34 24.86 C 99.39 24.44 99.50 23.59 99.55 23.17 Z" />
<path fill="#adc2d9" opacity="1.00" d=" M 211.55 23.18 L 212.16 22.75 C 212.44 23.04 213.02 23.63 213.31 23.93 L 213.14 24.66 C 212.69 24.71 211.79 24.81 211.33 24.86 C 211.39 24.44 211.49 23.60 211.55 23.18 Z" />
</g>
<g id="#4f7baeff">
<path fill="#4f7bae" opacity="1.00" d=" M 59.47 19.89 C 59.85 19.85 60.60 19.75 60.98 19.70 C 61.17 20.28 61.56 21.44 61.76 22.02 L 61.56 22.64 C 61.22 22.68 60.54 22.76 60.20 22.81 C 59.86 21.86 59.62 20.89 59.47 19.89 Z" />
<path fill="#4f7bae" opacity="1.00" d=" M 171.46 19.92 C 171.84 19.87 172.58 19.76 172.96 19.71 C 173.19 20.27 173.67 21.40 173.91 21.97 L 173.70 22.58 C 173.36 22.63 172.68 22.72 172.34 22.76 C 171.94 21.85 171.65 20.90 171.46 19.92 Z" />
<path fill="#4f7bae" opacity="1.00" d=" M 3.09 20.85 C 3.42 20.93 4.09 21.10 4.42 21.18 C 4.86 21.74 5.73 22.85 6.17 23.41 L 5.75 23.79 C 5.36 23.79 4.59 23.81 4.21 23.81 C 3.74 22.86 3.37 21.88 3.09 20.85 Z" />
</g>
<g id="#8ea7b9ff">
<path fill="#8ea7b9" opacity="1.00" d=" M 8.05 21.81 C 8.52 21.46 9.46 20.74 9.93 20.39 C 10.25 20.85 10.91 21.77 11.24 22.22 C 9.79 22.70 8.33 23.17 6.86 23.56 L 5.75 23.79 L 6.17 23.41 C 6.64 23.01 7.58 22.21 8.05 21.81 Z" />
</g>
<g id="#8ba4b6fe">
<path fill="#8ba4b6" opacity="1.00" d=" M 61.76 22.02 C 62.44 21.70 63.79 21.06 64.46 20.74 C 64.93 20.88 65.86 21.14 66.32 21.28 L 66.76 21.61 C 65.31 22.39 63.76 23.10 62.09 23.10 L 61.56 22.64 L 61.76 22.02 Z" />
<path fill="#8ba4b6" opacity="1.00" d=" M 173.91 21.97 C 174.54 21.65 175.82 21.01 176.45 20.69 C 176.93 20.83 177.87 21.10 178.34 21.24 L 178.77 21.59 C 177.38 22.42 175.82 23.11 174.17 23.05 L 173.70 22.58 L 173.91 21.97 Z" />
</g>
<g id="#65569cff">
<path fill="#65569c" opacity="1.00" d=" M 115.80 22.28 L 116.25 22.12 C 116.62 22.04 117.35 21.88 117.71 21.80 L 118.76 21.59 C 118.91 22.18 119.22 23.35 119.37 23.94 C 118.87 24.42 118.38 24.91 117.89 25.41 C 116.19 24.74 114.46 24.13 112.74 23.52 C 113.76 23.10 114.77 22.68 115.80 22.28 Z" />
<path fill="#65569c" opacity="1.00" d=" M 122.13 22.11 C 123.44 22.78 123.43 23.46 122.11 24.14 C 120.81 23.47 120.82 22.80 122.13 22.11 Z" />
<path fill="#65569c" opacity="1.00" d=" M 59.70 23.00 L 60.20 22.81 C 60.54 22.76 61.22 22.68 61.56 22.64 L 62.09 23.10 C 62.65 23.63 63.77 24.69 64.33 25.22 C 61.79 25.28 59.25 25.15 56.71 24.96 C 57.70 24.29 58.69 23.63 59.70 23.00 Z" />
<path fill="#65569c" opacity="1.00" d=" M 66.13 23.11 C 67.44 23.78 67.43 24.46 66.11 25.14 C 64.81 24.47 64.82 23.80 66.13 23.11 Z" />
<path fill="#65569c" opacity="1.00" d=" M 171.81 22.96 L 172.34 22.76 C 172.68 22.72 173.36 22.63 173.70 22.58 L 174.17 23.05 C 174.47 24.27 174.67 25.51 174.87 26.75 C 172.83 26.01 170.79 25.28 168.75 24.58 C 169.76 24.02 170.78 23.48 171.81 22.96 Z" />
<path fill="#65569c" opacity="1.00" d=" M 178.13 23.11 C 179.44 23.78 179.43 24.46 178.11 25.14 C 176.81 24.47 176.82 23.80 178.13 23.11 Z" />
<path fill="#65569c" opacity="1.00" d=" M 3.24 23.68 L 4.21 23.81 C 4.59 23.81 5.36 23.79 5.75 23.79 L 6.86 23.56 C 6.75 24.71 6.64 25.86 6.53 27.01 C 4.73 26.57 2.91 26.18 1.10 25.79 C 1.81 25.08 2.53 24.38 3.24 23.68 Z" />
<path fill="#65569c" opacity="1.00" d=" M 10.13 24.11 C 11.44 24.78 11.43 25.46 10.11 26.14 C 8.81 25.47 8.82 24.80 10.13 24.11 Z" />
</g>
<g id="#437acbff">
<path fill="#437acb" opacity="1.00" d=" M 128.05 32.21 C 127.36 24.54 135.69 23.69 141.13 22.34 C 146.94 22.42 149.11 28.94 151.00 33.43 C 148.12 34.55 144.66 35.10 142.47 37.42 C 141.40 41.20 140.54 45.42 136.09 46.50 C 137.60 43.27 139.45 39.94 138.16 36.32 C 134.00 35.97 130.08 34.64 126.06 33.67 C 126.56 33.30 127.55 32.57 128.05 32.21 M 129.40 30.75 C 135.15 34.27 145.86 36.36 148.61 28.35 C 145.42 27.95 142.24 27.58 139.06 27.25 C 140.63 26.69 143.78 25.58 145.36 25.03 C 139.94 21.82 131.47 24.87 129.40 30.75 Z" />
</g>
<g id="#3c6bbdff">
<path fill="#3c6bbd" opacity="1.00" d=" M 129.40 30.75 C 131.47 24.87 139.94 21.82 145.36 25.03 C 143.78 25.58 140.63 26.69 139.06 27.25 C 142.24 27.58 145.42 27.95 148.61 28.35 C 145.86 36.36 135.15 34.27 129.40 30.75 Z" />
<path fill="#3c6bbd" opacity="1.00" d=" M 74.23 31.89 C 75.69 25.86 82.16 25.81 87.35 25.57 C 86.18 26.34 85.00 27.10 83.87 27.94 C 86.27 28.36 88.69 28.64 91.12 28.79 C 91.11 29.62 91.08 31.28 91.07 32.12 C 86.04 35.89 79.39 35.18 74.23 31.89 Z" />
<path fill="#3c6bbd" opacity="1.00" d=" M 186.32 31.79 C 187.70 25.78 194.25 25.86 199.35 25.57 C 198.17 26.34 196.99 27.10 195.87 27.94 C 198.27 28.35 200.69 28.64 203.13 28.79 C 203.11 29.62 203.07 31.28 203.06 32.11 C 200.12 33.52 197.22 35.56 193.81 35.38 C 191.09 34.77 188.81 32.93 186.32 31.79 Z" />
</g>
<g id="#75634eff">
<path fill="#75634e" opacity="1.00" d=" M 45.39 24.01 C 45.97 24.16 47.15 24.45 47.74 24.60 L 47.45 25.27 L 46.85 25.77 C 46.46 25.52 45.66 25.00 45.26 24.75 L 45.39 24.01 Z" />
<path fill="#75634e" opacity="1.00" d=" M 101.31 23.93 C 101.89 24.09 103.04 24.41 103.62 24.58 L 103.36 25.24 L 102.78 25.72 C 102.37 25.45 101.55 24.93 101.14 24.66 L 101.31 23.93 Z" />
<path fill="#75634e" opacity="1.00" d=" M 157.36 23.93 C 157.93 24.09 159.07 24.41 159.64 24.58 L 159.38 25.24 L 158.82 25.74 C 158.42 25.47 157.61 24.95 157.21 24.68 L 157.36 23.93 Z" />
<path fill="#75634e" opacity="1.00" d=" M 213.31 23.93 C 213.89 24.09 215.04 24.42 215.62 24.58 L 215.36 25.24 L 214.78 25.72 C 214.37 25.45 213.55 24.93 213.14 24.66 L 213.31 23.93 Z" />
</g>
<g id="#416845ff">
<path fill="#416845" opacity="1.00" d=" M 48.58 24.65 L 49.43 24.38 C 49.70 25.04 50.25 26.37 50.53 27.03 C 49.45 26.61 48.80 25.81 48.58 24.65 Z" />
<path fill="#416845" opacity="1.00" d=" M 104.42 24.65 L 105.24 24.38 C 105.56 25.01 106.21 26.28 106.53 26.92 C 105.44 26.53 104.74 25.78 104.42 24.65 Z" />
<path fill="#416845" opacity="1.00" d=" M 160.43 24.64 L 161.25 24.38 C 161.57 25.01 162.21 26.29 162.53 26.92 C 161.44 26.53 160.74 25.77 160.43 24.64 Z" />
<path fill="#416845" opacity="1.00" d=" M 216.42 24.65 L 217.24 24.38 C 217.56 25.01 218.21 26.28 218.53 26.92 C 217.44 26.53 216.73 25.78 216.42 24.65 Z" />
</g>
<g id="#3b6bbefe">
<path fill="#3b6bbe" opacity="1.00" d=" M 43.44 24.97 C 43.89 24.92 44.80 24.80 45.26 24.75 C 45.66 25.00 46.46 25.52 46.85 25.77 C 46.17 27.89 43.13 27.94 42.98 25.47 L 43.44 24.97 Z" />
<path fill="#3b6bbe" opacity="1.00" d=" M 99.34 24.86 C 99.79 24.81 100.69 24.71 101.14 24.66 C 101.55 24.93 102.37 25.45 102.78 25.72 C 102.42 27.93 99.48 28.04 99.24 25.66 L 99.34 24.86 Z" />
<path fill="#3b6bbe" opacity="1.00" d=" M 155.44 24.89 C 155.88 24.84 156.76 24.73 157.21 24.68 C 157.61 24.95 158.42 25.47 158.82 25.74 C 158.50 27.98 155.55 28.11 155.32 25.71 L 155.44 24.89 Z" />
<path fill="#3b6bbe" opacity="1.00" d=" M 211.33 24.86 C 211.79 24.81 212.69 24.71 213.14 24.66 C 213.55 24.93 214.37 25.45 214.78 25.72 C 214.41 27.92 211.47 28.04 211.24 25.66 L 211.33 24.86 Z" />
</g>
<g id="#34302bff">
<path fill="#34302b" opacity="1.00" d=" M 46.85 25.77 L 47.45 25.27 C 47.36 26.91 48.95 28.21 50.52 27.56 C 50.51 28.02 50.50 28.94 50.50 29.40 C 49.26 29.49 48.03 29.60 46.79 29.71 C 46.63 29.27 46.31 28.40 46.14 27.96 C 45.11 28.66 44.08 29.36 43.05 30.07 C 43.04 29.39 43.03 28.02 43.02 27.34 C 43.01 26.87 42.99 25.94 42.98 25.47 C 43.13 27.94 46.17 27.89 46.85 25.77 Z" />
<path fill="#34302b" opacity="1.00" d=" M 158.82 25.74 L 159.38 25.24 C 159.32 26.89 160.97 28.18 162.53 27.47 C 162.53 27.95 162.52 28.91 162.52 29.39 C 161.27 29.50 160.02 29.62 158.78 29.74 C 158.63 29.30 158.33 28.40 158.18 27.96 C 157.06 28.64 155.93 29.33 154.82 30.03 C 154.95 28.59 155.12 27.14 155.32 25.71 C 155.55 28.11 158.50 27.98 158.82 25.74 Z" />
</g>
<g id="#3f3c3bff">
<path fill="#3f3c3b" opacity="1.00" d=" M 102.78 25.72 L 103.36 25.24 C 103.33 26.87 104.97 28.19 106.52 27.46 C 106.52 27.95 106.52 28.93 106.52 29.41 C 105.26 29.51 103.99 29.59 102.73 29.69 C 102.53 29.21 102.14 28.27 101.94 27.80 C 100.82 29.36 99.74 30.94 98.61 32.48 C 98.79 30.21 98.98 27.93 99.24 25.66 C 99.48 28.04 102.42 27.93 102.78 25.72 Z" />
<path fill="#3f3c3b" opacity="1.00" d=" M 214.78 25.72 L 215.36 25.24 C 215.32 26.88 216.97 28.18 218.53 27.46 C 218.52 27.94 218.52 28.91 218.52 29.39 C 217.26 29.49 216.01 29.58 214.75 29.69 C 214.52 29.19 214.06 28.21 213.83 27.72 C 212.72 29.26 211.62 30.82 210.57 32.42 C 210.78 30.16 210.98 27.91 211.24 25.66 C 211.47 28.04 214.41 27.92 214.78 25.72 Z" />
</g>
<g id="#4e5e48ff">
<path fill="#4e5e48" opacity="1.00" d=" M 50.28 33.93 C 51.09 33.23 51.92 32.55 52.75 31.88 C 52.37 34.25 52.01 36.63 51.59 39.00 C 51.26 40.98 50.78 42.94 50.50 44.93 C 50.19 47.17 50.26 49.47 50.66 51.70 C 49.60 50.86 48.52 50.08 47.44 49.28 C 48.31 44.14 49.72 39.12 50.28 33.93 Z" />
<path fill="#4e5e48" opacity="1.00" d=" M 106.24 33.95 C 107.07 33.25 107.90 32.56 108.75 31.88 C 108.37 34.26 108.01 36.63 107.59 39.00 C 107.26 40.97 106.77 42.91 106.51 44.89 C 106.18 47.15 106.24 49.46 106.66 51.70 C 105.60 50.87 104.52 50.08 103.44 49.27 C 104.32 44.15 105.72 39.13 106.24 33.95 Z" />
<path fill="#4e5e48" opacity="1.00" d=" M 162.25 33.94 C 163.07 33.24 163.91 32.55 164.75 31.88 C 164.37 34.25 164.01 36.63 163.59 39.00 C 163.26 40.98 162.78 42.94 162.50 44.93 C 162.19 47.17 162.26 49.46 162.65 51.69 C 161.60 50.86 160.51 50.07 159.44 49.27 C 160.31 44.15 161.72 39.13 162.25 33.94 Z" />
<path fill="#4e5e48" opacity="1.00" d=" M 218.26 33.92 C 219.08 33.24 219.91 32.56 220.75 31.88 C 220.35 34.31 220.00 36.76 219.60 39.19 C 219.26 41.11 218.75 42.99 218.51 44.92 C 218.20 47.18 218.23 49.48 218.63 51.72 C 217.58 50.88 216.51 50.08 215.45 49.27 C 216.31 44.14 217.73 39.11 218.26 33.92 Z" />
</g>
<g id="#2c89d6ff">
<path fill="#2c89d6" opacity="1.00" d=" M 96.95 36.63 C 95.59 35.28 97.47 33.85 98.32 32.86 C 98.34 33.65 98.39 35.24 98.41 36.04 C 98.05 36.19 97.31 36.48 96.95 36.63 Z" />
</g>
<g id="#4379caff">
<path fill="#4379ca" opacity="1.00" d=" M 114.58 36.71 C 119.59 38.21 124.52 35.68 129.49 35.08 C 125.47 36.98 121.43 38.84 117.51 40.92 C 117.48 40.54 117.43 39.76 117.41 39.37 C 116.28 39.09 115.16 38.82 114.04 38.56 C 114.23 37.95 114.41 37.33 114.58 36.71 Z" />
</g>
<g id="#7a9db6ff">
<path fill="#7a9db6" opacity="1.00" d=" M 96.95 36.63 C 97.31 36.48 98.05 36.19 98.41 36.04 C 98.93 36.39 99.97 37.09 100.49 37.44 C 100.55 37.88 100.68 38.77 100.74 39.22 L 100.97 40.40 C 100.62 40.28 99.92 40.03 99.58 39.91 C 98.66 38.85 97.80 37.74 96.95 36.63 Z" />
<path fill="#7a9db6" opacity="1.00" d=" M 208.64 36.67 C 209.02 36.52 209.77 36.22 210.14 36.07 C 210.73 36.41 211.92 37.08 212.51 37.42 C 212.57 37.86 212.70 38.76 212.76 39.20 L 212.99 40.41 C 212.65 40.27 211.99 39.98 211.65 39.84 C 210.61 38.82 209.64 37.73 208.64 36.67 Z" />
</g>
<g id="#4c95c9ff">
<path fill="#4c95c9" opacity="1.00" d=" M 99.58 39.91 C 99.92 40.03 100.62 40.28 100.97 40.40 C 101.23 41.66 100.75 42.59 99.52 43.19 L 98.96 42.80 C 99.11 42.08 99.42 40.63 99.58 39.91 Z" />
<path fill="#4c95c9" opacity="1.00" d=" M 211.65 39.84 C 211.99 39.98 212.65 40.27 212.99 40.41 C 213.26 41.68 212.78 42.60 211.52 43.17 L 210.98 42.74 C 211.15 42.01 211.48 40.56 211.65 39.84 Z" />
</g>
<g id="#81ab5dff">
<path fill="#81ab5d" opacity="1.00" d=" M 50.50 44.93 C 52.16 43.62 53.97 42.56 55.72 41.39 C 55.70 44.28 55.72 47.16 55.78 50.04 C 56.70 51.03 57.60 52.03 58.52 53.03 C 57.65 53.32 56.80 53.66 55.94 53.98 C 54.33 53.24 52.70 52.54 50.97 52.13 L 50.66 51.70 C 50.26 49.47 50.19 47.17 50.50 44.93 Z" />
<path fill="#81ab5d" opacity="1.00" d=" M 106.51 44.89 C 108.22 43.60 110.07 42.52 111.88 41.37 C 111.87 42.97 111.84 44.57 111.79 46.17 C 111.75 46.66 111.67 47.63 111.63 48.12 L 111.54 48.94 L 112.07 49.75 C 112.75 50.77 113.46 51.78 114.19 52.78 C 113.48 53.25 112.79 53.72 112.09 54.20 C 110.46 53.32 108.79 52.49 106.96 52.12 L 106.66 51.70 C 106.24 49.46 106.18 47.15 106.51 44.89 Z" />
<path fill="#81ab5d" opacity="1.00" d=" M 162.50 44.93 C 164.15 43.62 165.97 42.56 167.72 41.39 C 167.69 44.28 167.71 47.16 167.78 50.04 C 168.70 51.03 169.60 52.03 170.52 53.03 C 169.65 53.32 168.80 53.65 167.95 53.97 C 166.32 53.26 164.69 52.55 162.96 52.11 L 162.65 51.69 C 162.26 49.46 162.19 47.17 162.50 44.93 Z" />
</g>
<g id="#3c7acdff">
<path fill="#3c7acd" opacity="1.00" d=" M 86.63 44.51 C 90.60 43.17 94.75 42.46 98.96 42.80 L 99.52 43.19 L 99.98 43.63 C 97.89 44.39 98.35 47.05 100.34 47.58 C 100.10 48.24 99.85 48.91 99.59 49.57 C 96.59 45.39 91.22 45.30 86.63 44.51 Z" />
</g>
<g id="#3b7acdff">
<path fill="#3b7acd" opacity="1.00" d=" M 198.63 44.51 C 202.61 43.18 206.76 42.46 210.98 42.74 L 211.52 43.17 L 211.98 43.63 C 209.89 44.39 210.35 47.05 212.34 47.58 C 212.10 48.25 211.85 48.91 211.59 49.57 C 208.59 45.38 203.22 45.31 198.63 44.51 Z" />
</g>
<g id="#80ab5dff">
<path fill="#80ab5d" opacity="1.00" d=" M 218.51 44.92 C 220.28 43.56 222.17 42.35 224.00 41.07 L 224.00 55.34 C 223.27 54.19 222.52 53.06 221.74 51.95 C 220.81 51.98 219.87 52.02 218.94 52.05 L 218.63 51.72 C 218.23 49.48 218.20 47.18 218.51 44.92 Z" />
</g>
<g id="#318cd2ff">
<path fill="#318cd2" opacity="1.00" d=" M 42.54 50.83 C 42.10 48.89 41.53 46.99 41.19 45.04 C 41.95 45.99 42.97 46.70 44.00 47.34 C 43.54 48.51 43.06 49.68 42.54 50.83 Z" />
</g>
<g id="#417fcbff">
<path fill="#417fcb" opacity="1.00" d=" M 57.40 47.10 C 59.29 46.35 61.19 45.62 63.12 44.94 C 62.06 46.62 60.93 48.24 59.81 49.87 C 64.63 50.20 69.45 50.37 74.28 50.60 C 69.08 51.38 63.60 52.26 58.44 50.70 C 58.09 49.50 57.74 48.30 57.40 47.10 Z" />
<path fill="#417fcb" opacity="1.00" d=" M 169.40 47.10 C 171.29 46.35 173.19 45.62 175.12 44.94 C 174.06 46.62 172.93 48.24 171.81 49.87 C 176.63 50.20 181.45 50.37 186.28 50.60 C 181.08 51.38 175.60 52.26 170.44 50.70 C 170.09 49.50 169.74 48.30 169.40 47.10 Z" />
</g>
<g id="#407ecaff">
<path fill="#407eca" opacity="1.00" d=" M 111.79 46.17 C 114.24 45.59 116.71 45.07 119.19 44.62 C 117.84 45.54 116.49 46.44 115.14 47.36 C 115.50 48.16 115.86 48.97 116.22 49.78 C 120.89 50.19 125.58 50.35 130.27 50.56 C 125.11 51.49 119.67 52.11 114.55 50.61 C 114.67 49.10 113.22 47.43 111.63 48.12 C 111.67 47.63 111.75 46.66 111.79 46.17 Z" />
</g>
<g id="#4181caff">
<path fill="#4181ca" opacity="1.00" d=" M 131.65 46.88 C 132.43 46.19 133.21 45.50 134.00 44.81 C 134.91 46.51 135.77 48.25 136.68 49.97 C 142.38 50.90 148.17 50.97 153.94 50.72 C 147.14 51.40 140.27 51.77 133.48 50.77 C 132.75 49.53 132.14 48.22 131.65 46.88 Z" />
</g>
<g id="#4080cbff">
<path fill="#4080cb" opacity="1.00" d=" M 1.25 49.91 C 3.41 48.56 5.58 47.22 7.79 45.96 C 6.91 47.35 6.01 48.73 5.12 50.10 C 9.52 50.24 13.91 50.41 18.31 50.58 C 12.71 51.46 6.60 52.52 1.25 49.91 Z" />
</g>
<g id="#43583fff">
<path fill="#43583f" opacity="1.00" d=" M 0.00 51.76 C 0.41 51.14 0.83 50.52 1.25 49.91 C 6.60 52.52 12.71 51.46 18.31 50.58 C 18.99 50.62 20.34 50.69 21.02 50.72 C 27.83 51.77 34.72 51.30 41.56 50.87 L 42.54 50.83 L 42.21 51.48 C 36.06 55.50 28.48 52.08 21.67 52.53 C 21.42 52.36 20.92 52.03 20.67 51.87 C 19.47 50.70 17.76 51.56 16.70 52.45 C 14.64 52.69 12.59 52.99 10.52 53.17 C 7.01 52.87 3.52 52.34 0.00 52.02 L 0.00 51.76 Z" />
</g>
<g id="#425741ff">
<path fill="#425741" opacity="1.00" d=" M 55.78 50.04 C 56.45 50.21 57.77 50.54 58.44 50.70 C 63.60 52.26 69.08 51.38 74.28 50.60 C 75.01 50.64 76.45 50.72 77.17 50.76 C 84.00 51.72 90.92 51.60 97.75 50.70 L 98.88 50.56 L 98.29 51.36 C 92.23 55.60 84.52 52.06 77.71 52.51 C 77.43 52.38 76.88 52.12 76.60 52.00 C 75.44 51.16 73.98 51.30 72.77 51.92 C 70.65 52.61 68.49 53.19 66.37 53.89 C 65.59 53.34 64.75 52.64 63.72 52.78 C 61.98 52.79 60.24 52.81 58.52 53.03 C 57.60 52.03 56.70 51.03 55.78 50.04 Z" />
<path fill="#425741" opacity="1.00" d=" M 112.07 49.75 C 112.69 49.96 113.93 50.40 114.55 50.61 C 119.67 52.11 125.11 51.49 130.27 50.56 C 131.07 50.61 132.68 50.72 133.48 50.77 C 140.27 51.77 147.14 51.40 153.94 50.72 L 155.40 50.59 L 154.90 51.70 C 148.16 54.80 140.78 52.48 133.71 52.51 C 133.43 52.38 132.88 52.12 132.60 52.00 C 131.44 51.16 129.98 51.30 128.77 51.92 C 126.65 52.61 124.51 53.19 122.41 53.89 C 121.62 53.33 120.72 52.76 119.71 52.84 C 117.87 52.77 116.03 52.77 114.19 52.78 C 113.46 51.78 112.75 50.77 112.07 49.75 Z" />
<path fill="#425741" opacity="1.00" d=" M 167.78 50.04 C 168.45 50.21 169.77 50.54 170.44 50.70 C 175.60 52.26 181.08 51.38 186.28 50.60 C 187.01 50.64 188.45 50.72 189.17 50.76 C 196.00 51.71 202.92 51.62 209.74 50.69 L 210.88 50.55 L 210.33 51.27 C 204.33 55.68 196.52 52.03 189.71 52.51 C 189.43 52.38 188.88 52.12 188.60 52.00 C 187.44 51.16 185.98 51.30 184.77 51.92 C 182.64 52.61 180.49 53.19 178.37 53.89 C 177.59 53.34 176.75 52.64 175.72 52.78 C 173.98 52.79 172.24 52.81 170.52 53.03 C 169.60 52.03 168.70 51.03 167.78 50.04 Z" />
</g>
<g id="#93bd6bff">
<path fill="#93bd6b" opacity="1.00" d=" M 16.70 52.45 C 17.76 51.56 19.47 50.70 20.67 51.87 C 19.77 53.22 17.99 53.00 16.70 52.45 Z" />
<path fill="#93bd6b" opacity="1.00" d=" M 72.77 51.92 C 73.98 51.30 75.44 51.16 76.60 52.00 C 75.71 53.37 73.64 53.23 72.77 51.92 Z" />
<path fill="#93bd6b" opacity="1.00" d=" M 128.77 51.92 C 129.98 51.30 131.44 51.16 132.60 52.00 C 131.71 53.37 129.64 53.23 128.77 51.92 Z" />
<path fill="#93bd6b" opacity="1.00" d=" M 184.77 51.92 C 185.98 51.30 187.44 51.16 188.60 52.00 C 187.71 53.37 185.64 53.23 184.77 51.92 Z" />
</g>
<g id="#7aa55bff">
<path fill="#7aa55b" opacity="1.00" d=" M 42.21 51.48 C 43.87 51.50 45.53 51.53 47.19 51.62 C 47.93 53.11 48.74 54.57 49.59 56.00 L 22.88 56.00 C 22.58 55.13 21.97 53.40 21.67 52.53 C 28.48 52.08 36.06 55.50 42.21 51.48 Z" />
<path fill="#7aa55b" opacity="1.00" d=" M 98.29 51.36 C 99.92 51.44 101.55 51.50 103.18 51.62 C 103.92 53.11 104.72 54.57 105.59 56.00 L 78.87 56.00 C 78.58 55.13 78.00 53.38 77.71 52.51 C 84.52 52.06 92.23 55.60 98.29 51.36 Z" />
<path fill="#7aa55b" opacity="1.00" d=" M 154.90 51.70 C 156.33 51.56 157.76 51.56 159.20 51.57 C 159.95 53.07 160.75 54.55 161.59 56.00 L 134.87 56.00 C 134.58 55.13 134.00 53.38 133.71 52.51 C 140.78 52.48 148.16 54.80 154.90 51.70 Z" />
<path fill="#7aa55b" opacity="1.00" d=" M 210.33 51.27 C 211.93 51.42 213.54 51.59 215.15 51.75 C 215.92 53.19 216.70 54.62 217.59 56.00 L 190.87 56.00 C 190.58 55.13 190.00 53.38 189.71 52.51 C 196.52 52.03 204.33 55.68 210.33 51.27 Z" />
</g>
<g id="#446445fe">
<path fill="#446445" opacity="1.00" d=" M 47.19 51.62 C 48.13 51.63 49.05 51.74 49.97 51.92 C 50.11 53.28 50.10 54.64 49.93 56.00 L 49.59 56.00 C 48.74 54.57 47.93 53.11 47.19 51.62 Z" />
<path fill="#446445" opacity="1.00" d=" M 103.18 51.62 C 104.12 51.66 105.04 51.76 105.97 51.93 C 106.12 53.29 106.11 54.64 105.93 56.00 L 105.59 56.00 C 104.72 54.57 103.92 53.11 103.18 51.62 Z" />
<path fill="#446445" opacity="1.00" d=" M 159.20 51.57 C 160.13 51.55 161.05 51.66 161.96 51.88 C 162.09 53.25 162.08 54.62 161.91 56.00 L 161.59 56.00 C 160.75 54.55 159.95 53.07 159.20 51.57 Z" />
<path fill="#446445" opacity="1.00" d=" M 215.15 51.75 C 216.10 51.83 217.04 51.93 217.99 52.04 C 218.18 53.36 218.17 54.68 217.96 56.00 L 217.59 56.00 C 216.70 54.62 215.92 53.19 215.15 51.75 Z" />
</g>
<g id="#6e9c5bff">
<path fill="#6e9c5b" opacity="1.00" d=" M 50.97 52.13 C 52.70 52.54 54.33 53.24 55.94 53.98 C 56.80 53.66 57.65 53.32 58.52 53.03 C 60.24 52.81 61.98 52.79 63.72 52.78 C 63.16 53.82 62.70 54.92 62.23 56.00 L 49.93 56.00 C 50.10 54.64 50.11 53.28 49.97 51.92 L 50.97 52.13 Z" />
<path fill="#6e9c5b" opacity="1.00" d=" M 106.96 52.12 C 108.79 52.49 110.46 53.32 112.09 54.20 C 112.79 53.72 113.48 53.25 114.19 52.78 C 116.03 52.77 117.87 52.77 119.71 52.84 C 119.14 53.86 118.67 54.93 118.20 56.00 L 105.93 56.00 C 106.11 54.64 106.12 53.29 105.97 51.93 L 106.96 52.12 Z" />
<path fill="#6e9c5b" opacity="1.00" d=" M 162.96 52.11 C 164.69 52.55 166.32 53.26 167.95 53.97 C 168.80 53.65 169.65 53.32 170.52 53.03 C 172.24 52.81 173.98 52.79 175.72 52.78 C 175.16 53.82 174.70 54.92 174.23 56.00 L 161.91 56.00 C 162.08 54.62 162.09 53.25 161.96 51.88 L 162.96 52.11 Z" />
</g>
<g id="#6f9c5aff">
<path fill="#6f9c5a" opacity="1.00" d=" M 218.94 52.05 C 219.87 52.02 220.81 51.98 221.74 51.95 C 222.52 53.06 223.27 54.19 224.00 55.34 L 224.00 56.00 L 217.96 56.00 C 218.17 54.68 218.18 53.36 217.99 52.04 L 218.94 52.05 Z" />
</g>
<g id="#77a35dff">
<path fill="#77a35d" opacity="1.00" d=" M 0.00 52.02 C 3.52 52.34 7.01 52.87 10.52 53.17 C 9.38 54.13 8.23 55.07 7.06 56.00 L 0.00 56.00 L 0.00 52.02 Z" />
</g>
<g id="#6a9a60ff">
<path fill="#6a9a60" opacity="1.00" d=" M 10.52 53.17 C 12.59 52.99 14.64 52.69 16.70 52.45 C 17.99 53.00 19.77 53.22 20.67 51.87 C 20.92 52.03 21.42 52.36 21.67 52.53 C 21.97 53.40 22.58 55.13 22.88 56.00 L 21.72 56.00 C 20.42 55.71 17.82 55.12 16.52 54.82 C 15.84 55.12 14.50 55.71 13.82 56.00 L 7.06 56.00 C 8.23 55.07 9.38 54.13 10.52 53.17 Z" />
</g>
<g id="#8bb561fe">
<path fill="#8bb561" opacity="1.00" d=" M 63.72 52.78 C 64.75 52.64 65.59 53.34 66.37 53.89 C 65.40 54.61 64.42 55.31 63.42 56.00 L 62.23 56.00 C 62.70 54.92 63.16 53.82 63.72 52.78 Z" />
<path fill="#8bb561" opacity="1.00" d=" M 119.71 52.84 C 120.72 52.76 121.62 53.33 122.41 53.89 C 121.43 54.61 120.44 55.32 119.44 56.00 L 118.20 56.00 C 118.67 54.93 119.14 53.86 119.71 52.84 Z" />
<path fill="#8bb561" opacity="1.00" d=" M 175.72 52.78 C 176.75 52.64 177.59 53.34 178.37 53.89 C 177.40 54.61 176.41 55.31 175.42 56.00 L 174.23 56.00 C 174.70 54.92 175.16 53.82 175.72 52.78 Z" />
</g>
<g id="#699960ff">
<path fill="#699960" opacity="1.00" d=" M 66.37 53.89 C 68.49 53.19 70.65 52.61 72.77 51.92 C 73.64 53.23 75.71 53.37 76.60 52.00 C 76.88 52.12 77.43 52.38 77.71 52.51 C 78.00 53.38 78.58 55.13 78.87 56.00 L 77.72 56.00 C 76.41 55.71 73.81 55.12 72.50 54.83 C 71.83 55.12 70.49 55.71 69.83 56.00 L 63.42 56.00 C 64.42 55.31 65.40 54.61 66.37 53.89 Z" />
<path fill="#699960" opacity="1.00" d=" M 122.41 53.89 C 124.51 53.19 126.65 52.61 128.77 51.92 C 129.64 53.23 131.71 53.37 132.60 52.00 C 132.88 52.12 133.43 52.38 133.71 52.51 C 134.00 53.38 134.58 55.13 134.87 56.00 L 133.72 56.00 C 132.41 55.71 129.81 55.12 128.50 54.83 C 127.83 55.12 126.49 55.71 125.83 56.00 L 119.44 56.00 C 120.44 55.32 121.43 54.61 122.41 53.89 Z" />
<path fill="#699960" opacity="1.00" d=" M 178.37 53.89 C 180.49 53.19 182.64 52.61 184.77 51.92 C 185.64 53.23 187.71 53.37 188.60 52.00 C 188.88 52.12 189.43 52.38 189.71 52.51 C 190.00 53.38 190.58 55.13 190.87 56.00 L 189.72 56.00 C 188.41 55.71 185.81 55.12 184.50 54.83 C 183.83 55.12 182.49 55.71 181.83 56.00 L 175.42 56.00 C 176.41 55.31 177.40 54.61 178.37 53.89 Z" />
</g>
<g id="#83ae61ff">
<path fill="#83ae61" opacity="1.00" d=" M 13.82 56.00 C 14.50 55.71 15.84 55.12 16.52 54.82 C 17.82 55.12 20.42 55.71 21.72 56.00 L 13.82 56.00 Z" />
<path fill="#83ae61" opacity="1.00" d=" M 69.83 56.00 C 70.49 55.71 71.83 55.12 72.50 54.83 C 73.81 55.12 76.41 55.71 77.72 56.00 L 69.83 56.00 Z" />
<path fill="#83ae61" opacity="1.00" d=" M 125.83 56.00 C 126.49 55.71 127.83 55.12 128.50 54.83 C 129.81 55.12 132.41 55.71 133.72 56.00 L 125.83 56.00 Z" />
<path fill="#83ae61" opacity="1.00" d=" M 181.83 56.00 C 182.49 55.71 183.83 55.12 184.50 54.83 C 185.81 55.12 188.41 55.71 189.72 56.00 L 181.83 56.00 Z" />
</g>
</svg>
