<?xml version="1.0" encoding="UTF-8" ?>
<!DOCTYPE svg PUBLIC "-//W3C//DTD SVG 1.1//EN" "http://www.w3.org/Graphics/SVG/1.1/DTD/svg11.dtd">
<svg width="224pt" height="56pt" viewBox="0 0 224 56" version="1.1" xmlns="http://www.w3.org/2000/svg">
<g id="#739e5aff">
<path fill="#739e5a" opacity="1.00" d=" M 0.00 0.00 L 32.21 0.00 C 32.52 1.83 32.70 3.67 33.04 5.50 L 33.89 5.82 C 30.10 5.99 26.30 5.88 22.51 5.71 C 21.84 5.32 21.17 4.92 20.48 4.57 C 18.18 3.40 15.85 2.30 13.50 1.25 C 8.83 2.46 4.30 4.23 0.00 6.45 L 0.00 0.00 M 25.09 1.68 C 25.01 2.47 24.85 4.04 24.77 4.83 C 25.84 4.30 26.92 3.77 28.00 3.25 C 29.08 3.77 30.16 4.30 31.23 4.83 C 31.15 4.04 30.99 2.47 30.91 1.68 C 28.97 1.73 27.03 1.73 25.09 1.68 Z" />
</g>
<g id="#84ae5cff">
<path fill="#84ae5c" opacity="1.00" d=" M 32.21 0.00 L 50.10 0.00 C 49.66 0.57 48.79 1.72 48.35 2.30 C 46.97 2.13 45.59 1.94 44.22 1.74 C 45.88 2.47 47.49 3.31 49.06 4.21 C 49.88 2.80 50.68 1.38 51.55 0.00 L 52.61 0.00 C 51.78 3.40 50.52 6.68 49.35 9.97 L 49.20 9.43 C 47.78 3.69 41.33 2.76 36.51 1.78 C 35.94 2.40 34.80 3.64 34.23 4.26 C 33.93 4.57 33.34 5.19 33.04 5.50 C 32.70 3.67 32.52 1.83 32.21 0.00 Z" />
<path fill="#84ae5c" opacity="1.00" d=" M 88.19 0.00 L 106.10 0.00 C 105.66 0.57 104.79 1.72 104.35 2.30 C 102.97 2.13 101.59 1.94 100.22 1.74 C 101.88 2.47 103.49 3.31 105.06 4.21 C 105.87 2.80 106.68 1.38 107.55 0.00 L 108.61 0.00 C 107.78 3.40 106.52 6.68 105.35 9.97 L 105.20 9.42 C 103.79 3.69 97.33 2.76 92.51 1.78 C 91.94 2.40 90.80 3.64 90.23 4.26 C 89.94 4.57 89.34 5.19 89.04 5.49 C 88.71 3.67 88.50 1.83 88.19 0.00 Z" />
<path fill="#84ae5c" opacity="1.00" d=" M 144.19 0.00 L 162.10 0.00 C 161.66 0.57 160.79 1.72 160.35 2.30 C 158.97 2.13 157.59 1.94 156.22 1.74 C 157.88 2.47 159.49 3.31 161.06 4.21 C 161.87 2.80 162.68 1.38 163.55 0.00 L 164.60 0.00 C 163.75 3.39 162.55 6.68 161.45 10.00 L 161.22 9.42 C 159.78 3.71 153.34 2.75 148.51 1.78 C 147.94 2.40 146.80 3.64 146.23 4.26 C 145.94 4.57 145.34 5.19 145.04 5.49 C 144.71 3.67 144.50 1.83 144.19 0.00 Z" />
<path fill="#84ae5c" opacity="1.00" d=" M 200.19 0.00 L 218.10 0.00 C 217.66 0.57 216.79 1.72 216.35 2.30 C 214.97 2.13 213.59 1.94 212.22 1.74 C 213.88 2.47 215.49 3.31 217.07 4.21 C 217.87 2.80 218.67 1.38 219.54 0.00 L 220.60 0.00 C 219.78 3.41 218.52 6.68 217.35 9.97 L 217.20 9.43 C 215.79 3.69 209.33 2.76 204.51 1.78 C 203.94 2.40 202.80 3.64 202.23 4.26 C 201.94 4.57 201.34 5.19 201.04 5.49 C 200.71 3.67 200.50 1.83 200.19 0.00 Z" />
</g>
<g id="#6f9a52ff">
<path fill="#6f9a52" opacity="1.00" d=" M 50.10 0.00 L 51.55 0.00 C 50.68 1.38 49.88 2.80 49.06 4.21 C 47.49 3.31 45.88 2.47 44.22 1.74 C 45.59 1.94 46.97 2.13 48.35 2.30 C 48.79 1.72 49.66 0.57 50.10 0.00 Z" />
<path fill="#6f9a52" opacity="1.00" d=" M 106.10 0.00 L 107.55 0.00 C 106.68 1.38 105.87 2.80 105.06 4.21 C 103.49 3.31 101.88 2.47 100.22 1.74 C 101.59 1.94 102.97 2.13 104.35 2.30 C 104.79 1.72 105.66 0.57 106.10 0.00 Z" />
<path fill="#6f9a52" opacity="1.00" d=" M 162.10 0.00 L 163.55 0.00 C 162.68 1.38 161.87 2.80 161.06 4.21 C 159.49 3.31 157.88 2.47 156.22 1.74 C 157.59 1.94 158.97 2.13 160.35 2.30 C 160.79 1.72 161.66 0.57 162.10 0.00 Z" />
<path fill="#6f9a52" opacity="1.00" d=" M 218.10 0.00 L 219.54 0.00 C 218.67 1.38 217.87 2.80 217.07 4.21 C 215.49 3.31 213.88 2.47 212.22 1.74 C 213.59 1.94 214.97 2.13 216.35 2.30 C 216.79 1.72 217.66 0.57 218.10 0.00 Z" />
</g>
<g id="#6a975afe">
<path fill="#6a975a" opacity="1.00" d=" M 52.61 0.00 L 55.09 0.00 C 54.76 1.50 55.41 4.70 57.51 3.81 C 58.48 2.27 56.47 0.95 55.52 0.00 L 62.03 0.00 C 62.40 2.58 65.16 2.46 65.62 0.00 L 65.81 0.00 C 66.29 0.29 67.26 0.87 67.74 1.17 C 63.79 2.71 59.87 4.34 55.88 5.76 C 55.51 5.36 54.76 4.56 54.39 4.16 C 53.86 5.04 53.34 5.92 52.81 6.79 C 55.66 11.76 52.71 16.97 50.43 21.51 C 50.25 17.88 49.48 14.32 49.28 10.69 C 49.30 10.51 49.34 10.15 49.35 9.97 C 50.52 6.68 51.78 3.40 52.61 0.00 Z" />
<path fill="#6a975a" opacity="1.00" d=" M 108.61 0.00 L 111.09 0.00 C 110.76 1.50 111.41 4.70 113.51 3.81 C 114.48 2.27 112.47 0.95 111.52 0.00 L 118.03 0.00 C 118.40 2.58 121.15 2.46 121.62 0.00 L 121.81 0.00 C 122.29 0.29 123.26 0.87 123.74 1.16 C 119.79 2.70 115.89 4.35 111.89 5.77 C 111.52 5.37 110.77 4.58 110.39 4.18 C 109.86 5.05 109.33 5.92 108.81 6.80 C 111.68 11.79 108.67 17.02 106.43 21.59 C 106.26 17.93 105.48 14.34 105.28 10.69 C 105.30 10.51 105.33 10.15 105.35 9.97 C 106.52 6.68 107.78 3.40 108.61 0.00 Z" />
<path fill="#6a975a" opacity="1.00" d=" M 164.60 0.00 L 167.09 0.00 C 166.76 1.50 167.41 4.70 169.51 3.81 C 170.48 2.27 168.47 0.95 167.52 0.00 L 174.03 0.00 C 174.40 2.58 177.15 2.46 177.62 0.00 L 177.81 0.00 C 178.29 0.29 179.26 0.87 179.74 1.17 C 175.79 2.71 171.87 4.34 167.88 5.76 C 167.51 5.36 166.76 4.56 166.39 4.16 C 165.86 5.04 165.34 5.92 164.80 6.80 C 167.69 11.79 164.66 17.04 162.42 21.62 C 162.24 18.01 161.45 14.45 161.43 10.84 C 161.43 10.63 161.44 10.21 161.45 10.00 C 162.55 6.68 163.75 3.39 164.60 0.00 Z" />
</g>
<g id="#8bb561fe">
<path fill="#8bb561" opacity="1.00" d=" M 55.09 0.00 L 55.52 0.00 C 56.47 0.95 58.48 2.27 57.51 3.81 C 55.41 4.70 54.76 1.50 55.09 0.00 Z" />
<path fill="#8bb561" opacity="1.00" d=" M 111.09 0.00 L 111.52 0.00 C 112.47 0.95 114.48 2.27 113.51 3.81 C 111.41 4.70 110.76 1.50 111.09 0.00 Z" />
<path fill="#8bb561" opacity="1.00" d=" M 167.09 0.00 L 167.52 0.00 C 168.47 0.95 170.48 2.27 169.51 3.81 C 167.41 4.70 166.76 1.50 167.09 0.00 Z" />
</g>
<g id="#85b166ff">
<path fill="#85b166" opacity="1.00" d=" M 62.03 0.00 L 65.62 0.00 C 65.16 2.46 62.40 2.58 62.03 0.00 Z" />
<path fill="#85b166" opacity="1.00" d=" M 118.03 0.00 L 121.62 0.00 C 121.15 2.46 118.40 2.58 118.03 0.00 Z" />
<path fill="#85b166" opacity="1.00" d=" M 174.03 0.00 L 177.62 0.00 C 177.15 2.46 174.40 2.58 174.03 0.00 Z" />
</g>
<g id="#80aa5cff">
<path fill="#80aa5c" opacity="1.00" d=" M 65.81 0.00 L 79.80 0.00 C 79.52 1.70 79.34 3.41 79.05 5.10 C 78.69 4.99 77.95 4.76 77.58 4.65 C 74.76 3.67 71.88 2.86 69.09 1.80 C 68.75 1.64 68.07 1.32 67.74 1.17 C 67.26 0.87 66.29 0.29 65.81 0.00 Z" />
<path fill="#80aa5c" opacity="1.00" d=" M 121.81 0.00 L 135.80 0.00 C 135.51 1.70 135.34 3.41 135.05 5.10 C 134.69 4.99 133.95 4.76 133.58 4.65 C 130.76 3.67 127.88 2.86 125.09 1.80 C 124.75 1.64 124.08 1.32 123.74 1.16 C 123.26 0.87 122.29 0.29 121.81 0.00 Z" />
<path fill="#80aa5c" opacity="1.00" d=" M 177.81 0.00 L 191.80 0.00 C 191.51 1.70 191.34 3.41 191.05 5.10 C 190.69 4.99 189.95 4.76 189.58 4.65 C 186.76 3.67 183.88 2.86 181.09 1.80 C 180.75 1.64 180.07 1.32 179.74 1.17 C 179.26 0.87 178.29 0.29 177.81 0.00 Z" />
</g>
<g id="#6e9a57ff">
<path fill="#6e9a57" opacity="1.00" d=" M 79.80 0.00 L 88.19 0.00 C 88.50 1.83 88.71 3.67 89.04 5.49 L 89.89 5.79 C 86.02 5.99 82.13 5.89 78.26 5.88 L 79.05 5.10 C 79.34 3.41 79.52 1.70 79.80 0.00 M 81.09 1.68 C 81.01 2.47 80.85 4.04 80.77 4.83 C 81.84 4.30 82.92 3.77 84.00 3.25 C 85.08 3.77 86.15 4.30 87.23 4.83 C 87.15 4.04 86.99 2.47 86.91 1.68 C 84.97 1.73 83.03 1.73 81.09 1.68 Z" />
<path fill="#6e9a57" opacity="1.00" d=" M 135.80 0.00 L 144.19 0.00 C 144.50 1.83 144.71 3.67 145.04 5.49 L 145.89 5.79 C 142.02 5.99 138.13 5.89 134.26 5.88 L 135.05 5.10 C 135.34 3.41 135.51 1.70 135.80 0.00 M 137.09 1.68 C 137.01 2.47 136.85 4.04 136.77 4.83 C 137.84 4.30 138.92 3.77 140.00 3.25 C 141.08 3.77 142.15 4.30 143.23 4.83 C 143.15 4.04 142.99 2.47 142.91 1.68 C 140.97 1.73 139.03 1.73 137.09 1.68 Z" />
<path fill="#6e9a57" opacity="1.00" d=" M 191.80 0.00 L 200.19 0.00 C 200.50 1.83 200.71 3.67 201.04 5.49 L 201.89 5.79 C 198.02 5.99 194.13 5.89 190.26 5.88 L 191.05 5.10 C 191.34 3.41 191.51 1.70 191.80 0.00 M 193.09 1.68 C 193.01 2.47 192.85 4.04 192.77 4.83 C 193.84 4.30 194.92 3.77 196.00 3.25 C 197.08 3.77 198.15 4.30 199.23 4.83 C 199.15 4.04 198.99 2.47 198.91 1.68 C 196.97 1.73 195.03 1.73 193.09 1.68 Z" />
</g>
<g id="#699659ff">
<path fill="#699659" opacity="1.00" d=" M 220.60 0.00 L 223.19 0.00 C 222.27 1.21 222.54 2.12 224.00 2.73 L 224.00 6.43 C 223.73 5.74 223.19 4.35 222.92 3.66 C 222.12 4.75 221.35 5.86 220.54 6.94 C 221.25 8.55 221.97 10.15 222.73 11.73 C 221.20 14.98 219.75 18.26 218.37 21.57 C 218.24 17.92 217.51 14.33 217.28 10.69 C 217.29 10.51 217.33 10.15 217.35 9.97 C 218.52 6.68 219.78 3.41 220.60 0.00 Z" />
</g>
<g id="#91bc69ff">
<path fill="#91bc69" opacity="1.00" d=" M 223.19 0.00 L 224.00 0.00 L 224.00 2.73 C 222.54 2.12 222.27 1.21 223.19 0.00 Z" />
<path fill="#91bc69" opacity="1.00" d=" M 224.00 30.87 C 222.12 30.86 222.12 28.17 224.00 28.17 L 224.00 30.87 Z" />
</g>
<g id="#5e8e65fe">
<path fill="#5e8e65" opacity="1.00" d=" M 13.50 1.25 C 15.85 2.30 18.18 3.40 20.48 4.57 C 18.05 3.82 15.59 3.19 13.18 2.37 L 13.50 1.25 Z" />
</g>
<g id="#87b05cfe">
<path fill="#87b05c" opacity="1.00" d=" M 25.09 1.68 C 27.03 1.73 28.97 1.73 30.91 1.68 C 30.99 2.47 31.15 4.04 31.23 4.83 C 30.16 4.30 29.08 3.77 28.00 3.25 C 26.92 3.77 25.84 4.30 24.77 4.83 C 24.85 4.04 25.01 2.47 25.09 1.68 Z" />
<path fill="#87b05c" opacity="1.00" d=" M 81.09 1.68 C 83.03 1.73 84.97 1.73 86.91 1.68 C 86.99 2.47 87.15 4.04 87.23 4.83 C 86.15 4.30 85.08 3.77 84.00 3.25 C 82.92 3.77 81.84 4.30 80.77 4.83 C 80.85 4.04 81.01 2.47 81.09 1.68 Z" />
<path fill="#87b05c" opacity="1.00" d=" M 137.09 1.68 C 139.03 1.73 140.97 1.73 142.91 1.68 C 142.99 2.47 143.15 4.04 143.23 4.83 C 142.15 4.30 141.08 3.77 140.00 3.25 C 138.92 3.77 137.84 4.30 136.77 4.83 C 136.85 4.04 137.01 2.47 137.09 1.68 Z" />
<path fill="#87b05c" opacity="1.00" d=" M 193.09 1.68 C 195.03 1.73 196.97 1.73 198.91 1.68 C 198.99 2.47 199.15 4.04 199.23 4.83 C 198.15 4.30 197.08 3.77 196.00 3.25 C 194.92 3.77 193.84 4.30 192.77 4.83 C 192.85 4.04 193.01 2.47 193.09 1.68 Z" />
</g>
<g id="#619062ff">
<path fill="#619062" opacity="1.00" d=" M 69.09 1.80 C 71.88 2.86 74.76 3.67 77.58 4.65 C 74.91 4.13 72.29 3.38 69.86 2.14 L 69.09 1.80 Z" />
<path fill="#619062" opacity="1.00" d=" M 125.09 1.80 C 127.88 2.86 130.76 3.67 133.58 4.65 C 130.91 4.13 128.29 3.38 125.86 2.14 L 125.09 1.80 Z" />
<path fill="#619062" opacity="1.00" d=" M 181.09 1.80 C 183.88 2.86 186.76 3.67 189.58 4.65 C 186.91 4.13 184.29 3.38 181.86 2.14 L 181.09 1.80 Z" />
</g>
<g id="#342f2bff">
<path fill="#342f2b" opacity="1.00" d=" M 0.00 6.45 C 4.30 4.23 8.83 2.46 13.50 1.25 L 13.18 2.37 C 13.02 2.90 12.69 3.96 12.52 4.48 C 15.82 5.10 19.15 5.66 22.51 5.71 C 26.30 5.88 30.10 5.99 33.89 5.82 C 36.10 5.66 38.24 5.09 40.40 4.63 C 40.52 4.61 40.76 4.56 40.88 4.54 C 41.10 9.12 45.59 9.50 49.20 9.43 L 49.35 9.97 C 49.34 10.15 49.30 10.51 49.28 10.69 C 48.31 13.80 47.06 16.82 46.41 20.02 C 44.87 20.25 43.33 20.49 41.79 20.73 C 41.80 18.82 41.84 14.99 41.85 13.07 C 40.60 12.99 39.35 12.89 38.11 12.80 C 39.27 15.25 40.41 17.72 41.53 20.19 C 41.15 20.17 40.40 20.12 40.02 20.10 C 38.48 19.87 36.95 19.61 35.43 19.32 C 35.80 16.77 36.39 14.27 36.86 11.74 C 38.82 11.65 40.78 11.41 42.74 11.28 C 40.16 9.59 37.36 8.29 34.51 7.12 C 34.12 8.19 33.71 9.25 33.29 10.31 C 32.85 10.17 31.97 9.91 31.53 9.77 C 30.33 8.94 29.17 8.06 28.00 7.19 C 26.82 8.06 25.66 8.95 24.46 9.78 C 24.02 9.90 23.14 10.15 22.70 10.28 C 22.32 9.30 21.95 8.31 21.60 7.32 C 19.63 7.91 17.84 8.96 15.86 9.53 C 14.89 8.22 13.83 6.97 12.85 5.66 C 11.17 9.89 10.57 14.40 11.99 18.75 C 12.05 19.21 12.18 20.12 12.24 20.58 C 11.88 20.39 11.17 20.01 10.81 19.82 C 10.27 18.53 9.76 17.23 9.26 15.92 C 7.05 16.48 4.81 16.90 2.55 17.22 C 3.52 17.76 4.49 18.29 5.46 18.82 C 6.08 18.92 7.34 19.11 7.96 19.20 C 8.04 19.72 8.20 20.75 8.28 21.27 C 5.50 20.53 2.75 19.71 0.00 18.87 L 0.00 6.45 M 8.23 11.90 C 5.81 14.54 11.19 14.54 8.77 11.90 C 9.61 10.03 9.27 7.66 8.61 5.77 C 7.49 7.16 7.50 10.14 8.23 11.90 M 3.52 8.08 C 4.12 10.59 4.73 13.11 5.63 15.54 C 5.82 13.03 6.00 10.51 6.15 8.00 C 5.50 8.02 4.18 8.06 3.52 8.08 Z" />
</g>
<g id="#6b9a5fff">
<path fill="#6b9a5f" opacity="1.00" d=" M 34.23 4.26 C 34.80 3.64 35.94 2.40 36.51 1.78 C 41.33 2.76 47.78 3.69 49.20 9.43 C 45.59 9.50 41.10 9.12 40.88 4.54 C 40.76 4.56 40.52 4.61 40.40 4.63 C 38.34 4.61 36.29 4.38 34.23 4.26 Z" />
<path fill="#6b9a5f" opacity="1.00" d=" M 90.23 4.26 C 90.80 3.64 91.94 2.40 92.51 1.78 C 97.33 2.76 103.79 3.69 105.20 9.42 C 101.58 9.50 97.11 9.10 96.86 4.54 C 96.75 4.56 96.53 4.61 96.42 4.63 C 94.35 4.61 92.29 4.38 90.23 4.26 Z" />
<path fill="#6b9a5f" opacity="1.00" d=" M 146.23 4.26 C 146.80 3.64 147.94 2.40 148.51 1.78 C 153.34 2.75 159.78 3.71 161.22 9.42 C 157.60 9.49 153.11 9.12 152.86 4.54 C 152.75 4.56 152.53 4.61 152.41 4.63 C 150.35 4.61 148.29 4.38 146.23 4.26 Z" />
<path fill="#6b9a5f" opacity="1.00" d=" M 202.23 4.26 C 202.80 3.64 203.94 2.40 204.51 1.78 C 209.33 2.76 215.79 3.69 217.20 9.43 C 213.58 9.50 209.11 9.10 208.86 4.54 C 208.75 4.56 208.53 4.61 208.41 4.63 C 206.35 4.61 204.29 4.38 202.23 4.26 Z" />
</g>
<g id="#342f2bfe">
<path fill="#342f2b" opacity="1.00" d=" M 55.88 5.76 C 59.87 4.34 63.79 2.71 67.74 1.17 C 68.07 1.32 68.75 1.64 69.09 1.80 L 69.86 2.14 C 69.39 2.67 68.45 3.73 67.98 4.26 C 71.35 5.07 74.76 5.94 78.26 5.88 C 82.13 5.89 86.02 5.99 89.89 5.79 C 92.10 5.64 94.26 5.10 96.42 4.63 C 96.53 4.61 96.75 4.56 96.86 4.54 C 97.11 9.10 101.58 9.50 105.20 9.42 L 105.35 9.97 C 105.33 10.15 105.30 10.51 105.28 10.69 C 104.29 13.84 103.05 16.92 102.41 20.16 C 101.03 20.10 99.65 20.03 98.28 19.97 L 98.20 19.25 C 98.02 17.82 97.66 14.96 97.48 13.54 C 96.30 13.17 95.11 12.82 93.92 12.50 C 95.03 14.70 96.13 16.90 97.32 19.06 C 96.74 18.99 95.59 18.83 95.02 18.76 C 93.84 18.63 92.66 18.57 91.48 18.59 C 91.97 16.31 92.46 14.04 92.87 11.75 C 94.83 11.65 96.78 11.41 98.74 11.28 C 96.17 9.59 93.38 8.30 90.54 7.13 C 90.13 8.20 89.71 9.26 89.27 10.31 C 88.84 10.17 87.97 9.91 87.54 9.77 C 86.33 8.94 85.17 8.06 84.00 7.19 C 82.83 8.06 81.67 8.95 80.47 9.78 C 80.02 9.90 79.11 10.15 78.66 10.27 C 78.31 9.29 77.97 8.30 77.64 7.31 C 75.65 7.90 73.85 8.97 71.86 9.51 C 70.87 8.24 69.86 6.97 68.89 5.68 C 67.47 9.78 65.44 14.59 68.90 18.24 C 68.62 18.38 68.07 18.67 67.79 18.81 C 67.36 19.07 66.52 19.60 66.09 19.86 C 66.00 18.56 65.91 17.26 65.81 15.96 C 63.86 16.25 61.90 16.51 59.96 16.81 C 60.40 17.18 61.28 17.91 61.72 18.28 C 62.31 18.54 63.50 19.06 64.09 19.32 L 64.17 20.22 C 61.40 19.49 58.64 18.73 55.88 17.93 C 55.86 13.88 55.86 9.82 55.88 5.76 M 64.23 11.90 C 61.81 14.54 67.19 14.54 64.77 11.90 C 65.61 10.03 65.27 7.66 64.61 5.77 C 63.49 7.16 63.50 10.14 64.23 11.90 M 59.52 8.08 C 60.11 10.59 60.73 13.11 61.63 15.54 C 61.82 13.03 62.00 10.51 62.15 8.00 C 61.50 8.02 60.18 8.06 59.52 8.08 Z" />
<path fill="#342f2b" opacity="1.00" d=" M 167.88 5.76 C 171.87 4.34 175.79 2.71 179.74 1.17 C 180.07 1.32 180.75 1.64 181.09 1.80 L 181.86 2.14 C 181.39 2.67 180.45 3.73 179.98 4.26 C 183.35 5.07 186.76 5.94 190.26 5.88 C 194.13 5.89 198.02 5.99 201.89 5.79 C 204.10 5.64 206.26 5.10 208.41 4.63 C 208.53 4.61 208.75 4.56 208.86 4.54 C 209.11 9.10 213.58 9.50 217.20 9.43 L 217.35 9.97 C 217.33 10.15 217.29 10.51 217.28 10.69 C 216.28 13.84 215.05 16.92 214.41 20.16 C 213.03 20.10 211.65 20.03 210.28 19.97 L 210.20 19.25 C 210.02 17.82 209.66 14.96 209.48 13.54 C 208.30 13.17 207.11 12.82 205.92 12.50 C 207.02 14.70 208.13 16.90 209.32 19.06 C 208.74 18.99 207.59 18.83 207.02 18.76 C 205.84 18.63 204.66 18.57 203.48 18.59 C 203.97 16.31 204.46 14.04 204.87 11.75 C 206.83 11.65 208.78 11.41 210.74 11.28 C 208.17 9.59 205.38 8.30 202.54 7.13 C 202.13 8.20 201.71 9.26 201.27 10.31 C 200.84 10.17 199.97 9.91 199.54 9.77 C 198.33 8.94 197.17 8.06 196.00 7.19 C 194.83 8.06 193.67 8.95 192.47 9.78 C 192.02 9.90 191.11 10.15 190.66 10.27 C 190.30 9.29 189.96 8.30 189.64 7.31 C 187.65 7.90 185.85 8.97 183.86 9.51 C 182.86 8.24 181.86 6.97 180.89 5.68 C 179.47 9.78 177.44 14.59 180.90 18.24 C 180.62 18.38 180.07 18.67 179.79 18.81 C 179.36 19.07 178.52 19.60 178.09 19.86 C 178.00 18.56 177.91 17.26 177.81 15.96 C 175.86 16.25 173.90 16.51 171.96 16.81 C 172.40 17.18 173.28 17.91 173.72 18.28 C 174.31 18.54 175.50 19.06 176.09 19.32 L 176.17 20.22 C 173.40 19.49 170.63 18.73 167.88 17.93 C 167.86 13.88 167.86 9.82 167.88 5.76 M 176.23 11.90 C 173.81 14.54 179.19 14.54 176.77 11.90 C 177.61 10.03 177.27 7.66 176.61 5.77 C 175.48 7.16 175.50 10.14 176.23 11.90 M 171.52 8.08 C 172.11 10.59 172.73 13.11 173.63 15.54 C 173.82 13.03 174.00 10.51 174.15 8.00 C 173.50 8.02 172.18 8.06 171.52 8.08 Z" />
</g>
<g id="#34302bff">
<path fill="#34302b" opacity="1.00" d=" M 111.89 5.77 C 115.89 4.35 119.79 2.70 123.74 1.16 C 124.08 1.32 124.75 1.64 125.09 1.80 L 125.86 2.14 C 125.39 2.67 124.45 3.73 123.98 4.26 C 127.35 5.07 130.76 5.94 134.26 5.88 C 138.13 5.89 142.02 5.99 145.89 5.79 C 148.10 5.65 150.26 5.10 152.41 4.63 C 152.53 4.61 152.75 4.56 152.86 4.54 C 153.11 9.12 157.60 9.49 161.22 9.42 L 161.45 10.00 C 161.44 10.21 161.43 10.63 161.43 10.84 C 160.45 14.51 158.92 18.03 156.18 20.70 C 155.73 20.54 154.84 20.21 154.40 20.05 C 154.34 19.33 154.23 17.90 154.18 17.18 C 154.07 15.79 153.97 14.41 153.87 13.02 C 152.43 13.05 151.00 13.07 149.57 13.08 C 150.84 14.54 152.11 15.99 153.44 17.38 C 152.76 17.60 151.40 18.05 150.72 18.27 C 149.57 17.79 148.41 17.35 147.25 16.90 C 147.90 15.21 148.57 13.53 149.23 11.84 C 151.07 11.67 152.89 11.43 154.73 11.23 C 152.24 9.54 149.44 8.42 146.66 7.32 C 146.10 8.09 145.54 8.87 144.99 9.65 C 142.08 8.09 138.83 7.66 135.75 9.02 C 131.98 7.65 127.28 10.58 124.75 6.20 C 123.99 9.15 123.23 12.11 122.14 14.96 C 123.15 15.71 124.16 16.46 125.20 17.17 C 124.84 17.35 124.12 17.72 123.76 17.90 C 123.37 18.13 122.58 18.59 122.19 18.82 C 122.06 18.20 121.79 16.98 121.65 16.36 C 120.46 16.17 119.27 15.97 118.08 15.78 C 118.62 17.01 119.20 18.24 119.73 19.49 C 117.13 18.57 114.51 17.71 111.92 16.78 C 111.90 13.11 111.95 9.44 111.89 5.77 M 120.23 11.90 C 117.81 14.54 123.19 14.54 120.77 11.90 C 121.61 10.03 121.27 7.66 120.61 5.77 C 119.49 7.16 119.50 10.14 120.23 11.90 M 115.52 8.08 C 116.11 10.59 116.73 13.11 117.63 15.54 C 117.82 13.03 118.00 10.51 118.15 8.00 C 117.50 8.02 116.18 8.06 115.52 8.08 Z" />
</g>
<g id="#5a5347ff">
<path fill="#5a5347" opacity="1.00" d=" M 12.52 4.48 C 12.69 3.96 13.02 2.90 13.18 2.37 C 15.59 3.19 18.05 3.82 20.48 4.57 C 21.17 4.92 21.84 5.32 22.51 5.71 C 19.15 5.66 15.82 5.10 12.52 4.48 Z" />
<path fill="#5a5347" opacity="1.00" d=" M 67.98 4.26 C 68.45 3.73 69.39 2.67 69.86 2.14 C 72.29 3.38 74.91 4.13 77.58 4.65 C 77.95 4.76 78.69 4.99 79.05 5.10 L 78.26 5.88 C 74.76 5.94 71.35 5.07 67.98 4.26 Z" />
<path fill="#5a5347" opacity="1.00" d=" M 123.98 4.26 C 124.45 3.73 125.39 2.67 125.86 2.14 C 128.29 3.38 130.91 4.13 133.58 4.65 C 133.95 4.76 134.69 4.99 135.05 5.10 L 134.26 5.88 C 130.76 5.94 127.35 5.07 123.98 4.26 Z" />
<path fill="#5a5347" opacity="1.00" d=" M 179.98 4.26 C 180.45 3.73 181.39 2.67 181.86 2.14 C 184.29 3.38 186.91 4.13 189.58 4.65 C 189.95 4.76 190.69 4.99 191.05 5.10 L 190.26 5.88 C 186.76 5.94 183.35 5.07 179.98 4.26 Z" />
</g>
<g id="#5d5347ff">
<path fill="#5d5347" opacity="1.00" d=" M 33.04 5.50 C 33.34 5.19 33.93 4.57 34.23 4.26 C 36.29 4.38 38.34 4.61 40.40 4.63 C 38.24 5.09 36.10 5.66 33.89 5.82 L 33.04 5.50 Z" />
<path fill="#5d5347" opacity="1.00" d=" M 89.04 5.49 C 89.34 5.19 89.94 4.57 90.23 4.26 C 92.29 4.38 94.35 4.61 96.42 4.63 C 94.26 5.10 92.10 5.64 89.89 5.79 L 89.04 5.49 Z" />
<path fill="#5d5347" opacity="1.00" d=" M 145.04 5.49 C 145.34 5.19 145.94 4.57 146.23 4.26 C 148.29 4.38 150.35 4.61 152.41 4.63 C 150.26 5.10 148.10 5.65 145.89 5.79 L 145.04 5.49 Z" />
<path fill="#5d5347" opacity="1.00" d=" M 201.04 5.49 C 201.34 5.19 201.94 4.57 202.23 4.26 C 204.29 4.38 206.35 4.61 208.41 4.63 C 206.26 5.10 204.10 5.64 201.89 5.79 L 201.04 5.49 Z" />
</g>
<g id="#86b05fff">
<path fill="#86b05f" opacity="1.00" d=" M 52.81 6.79 C 53.34 5.92 53.86 5.04 54.39 4.16 C 54.76 4.56 55.51 5.36 55.88 5.76 C 55.86 9.82 55.86 13.88 55.88 17.93 C 55.89 18.36 55.92 19.22 55.93 19.65 L 55.98 21.18 C 55.09 20.36 52.85 19.58 52.50 21.29 C 53.07 22.66 54.93 22.15 56.00 21.81 C 55.96 22.25 55.88 23.15 55.84 23.60 C 55.41 24.52 54.97 25.43 54.53 26.34 C 54.07 25.25 53.62 24.15 53.18 23.05 C 51.99 23.27 50.79 23.46 49.60 23.69 C 49.81 23.15 50.22 22.05 50.43 21.51 C 52.71 16.97 55.66 11.76 52.81 6.79 Z" />
<path fill="#86b05f" opacity="1.00" d=" M 108.81 6.80 C 109.33 5.92 109.86 5.05 110.39 4.18 C 110.77 4.58 111.52 5.37 111.89 5.77 C 111.95 9.44 111.90 13.11 111.92 16.78 C 111.93 17.20 111.96 18.04 111.97 18.46 C 111.99 19.19 112.03 20.66 112.05 21.40 C 111.20 20.50 108.92 19.46 108.46 21.24 C 109.00 22.66 110.87 22.14 111.99 21.91 C 111.94 22.33 111.84 23.17 111.80 23.59 C 111.38 24.52 110.96 25.44 110.53 26.37 C 110.08 25.26 109.63 24.15 109.18 23.04 C 107.99 23.26 106.80 23.46 105.62 23.70 C 105.82 23.17 106.22 22.12 106.43 21.59 C 108.67 17.02 111.68 11.79 108.81 6.80 Z" />
<path fill="#86b05f" opacity="1.00" d=" M 164.80 6.80 C 165.34 5.92 165.86 5.04 166.39 4.16 C 166.76 4.56 167.51 5.36 167.88 5.76 C 167.86 9.82 167.86 13.88 167.88 17.93 C 167.89 18.36 167.91 19.22 167.92 19.64 L 167.95 21.18 C 167.08 20.34 164.84 19.57 164.50 21.29 C 165.05 22.66 166.90 22.16 167.97 21.81 C 167.92 22.25 167.82 23.14 167.77 23.58 C 167.37 24.51 166.97 25.43 166.55 26.35 C 166.08 25.25 165.63 24.16 165.17 23.06 C 163.99 23.26 162.80 23.46 161.62 23.69 C 161.82 23.17 162.22 22.14 162.42 21.62 C 164.66 17.04 167.69 11.79 164.80 6.80 Z" />
<path fill="#86b05f" opacity="1.00" d=" M 220.54 6.94 C 221.35 5.86 222.12 4.75 222.92 3.66 C 223.19 4.35 223.73 5.74 224.00 6.43 L 224.00 21.27 C 223.12 20.42 220.85 19.51 220.46 21.27 C 221.01 22.69 222.91 22.15 224.00 21.78 L 224.00 23.51 C 223.51 24.46 223.00 25.41 222.49 26.34 C 222.05 25.24 221.62 24.14 221.19 23.04 C 220.00 23.25 218.80 23.46 217.61 23.70 C 217.80 23.17 218.18 22.10 218.37 21.57 C 219.75 18.26 221.20 14.98 222.73 11.73 C 221.97 10.15 221.25 8.55 220.54 6.94 Z" />
<path fill="#86b05f" opacity="1.00" d=" M 222.47 39.98 C 221.18 37.21 220.87 34.12 222.25 31.30 C 222.69 32.09 223.56 33.67 224.00 34.46 L 224.00 49.25 C 223.12 48.41 220.84 47.52 220.46 49.27 C 221.01 50.69 222.91 50.14 224.00 49.77 L 224.00 51.45 C 223.51 52.42 223.00 53.39 222.48 54.35 C 222.04 53.24 221.62 52.14 221.20 51.03 C 219.93 51.25 218.66 51.46 217.40 51.71 C 217.67 51.17 218.20 50.10 218.46 49.56 C 219.90 46.41 221.17 43.19 222.47 39.98 Z" />
</g>
<g id="#77694cfe">
<path fill="#77694c" opacity="1.00" d=" M 8.23 11.90 C 7.50 10.14 7.49 7.16 8.61 5.77 C 9.27 7.66 9.61 10.03 8.77 11.90 L 8.23 11.90 Z" />
<path fill="#77694c" opacity="1.00" d=" M 64.23 11.90 C 63.50 10.14 63.49 7.16 64.61 5.77 C 65.27 7.66 65.61 10.03 64.77 11.90 L 64.23 11.90 Z" />
<path fill="#77694c" opacity="1.00" d=" M 120.23 11.90 C 119.50 10.14 119.49 7.16 120.61 5.77 C 121.27 7.66 121.61 10.03 120.77 11.90 L 120.23 11.90 Z" />
<path fill="#77694c" opacity="1.00" d=" M 176.23 11.90 C 175.50 10.14 175.48 7.16 176.61 5.77 C 177.27 7.66 177.61 10.03 176.77 11.90 L 176.23 11.90 Z" />
</g>
<g id="#5d5649ff">
<path fill="#5d5649" opacity="1.00" d=" M 12.85 5.66 C 13.83 6.97 14.89 8.22 15.86 9.53 C 17.84 8.96 19.63 7.91 21.60 7.32 C 21.95 8.31 22.32 9.30 22.70 10.28 L 23.07 11.13 L 23.48 12.09 C 23.96 14.72 23.79 17.41 23.57 20.06 C 22.50 19.86 21.44 19.66 20.37 19.46 C 20.26 17.43 20.09 15.41 19.90 13.39 C 17.55 15.01 15.52 17.02 13.84 19.32 C 13.38 19.18 12.45 18.89 11.99 18.75 C 10.57 14.40 11.17 9.89 12.85 5.66 M 18.22 11.42 C 17.08 11.11 15.53 11.31 14.82 12.35 C 14.95 14.38 20.09 13.02 18.22 11.42 Z" />
<path fill="#5d5649" opacity="1.00" d=" M 68.89 5.68 C 69.86 6.97 70.87 8.24 71.86 9.51 C 73.85 8.97 75.65 7.90 77.64 7.31 C 77.97 8.30 78.31 9.29 78.66 10.27 L 78.97 11.14 L 79.31 12.11 C 79.79 14.37 79.98 16.67 80.17 18.97 L 79.31 18.95 C 78.32 18.90 77.33 18.85 76.34 18.79 C 76.21 17.03 76.04 15.27 75.87 13.51 C 73.88 15.06 71.91 16.63 70.04 18.32 C 69.75 18.30 69.18 18.26 68.90 18.24 C 65.44 14.59 67.47 9.78 68.89 5.68 M 74.22 11.42 C 73.07 11.11 71.53 11.31 70.82 12.35 C 70.95 14.38 76.09 13.02 74.22 11.42 Z" />
<path fill="#5d5649" opacity="1.00" d=" M 180.89 5.68 C 181.86 6.97 182.86 8.24 183.86 9.51 C 185.85 8.97 187.65 7.90 189.64 7.31 C 189.96 8.30 190.30 9.29 190.66 10.27 L 190.97 11.14 L 191.31 12.11 C 191.79 14.37 191.98 16.67 192.17 18.97 L 191.31 18.95 C 190.32 18.90 189.33 18.85 188.34 18.79 C 188.21 17.03 188.04 15.27 187.87 13.51 C 185.88 15.06 183.91 16.63 182.04 18.32 C 181.75 18.30 181.18 18.26 180.90 18.24 C 177.44 14.59 179.47 9.78 180.89 5.68 M 186.22 11.42 C 185.07 11.11 183.53 11.31 182.82 12.35 C 182.95 14.38 188.09 13.02 186.22 11.42 Z" />
</g>
<g id="#5e574afe">
<path fill="#5e574a" opacity="1.00" d=" M 124.75 6.20 C 127.28 10.58 131.98 7.65 135.75 9.02 C 138.83 7.66 142.08 8.09 144.99 9.65 C 145.54 8.87 146.10 8.09 146.66 7.32 C 149.44 8.42 152.24 9.54 154.73 11.23 C 152.89 11.43 151.07 11.67 149.23 11.84 C 148.57 13.53 147.90 15.21 147.25 16.90 C 146.47 17.26 144.92 17.99 144.15 18.36 C 144.21 16.25 144.46 14.16 144.75 12.08 L 144.93 11.17 C 142.41 11.20 137.36 11.26 134.83 11.29 L 135.06 12.17 C 135.52 14.14 135.85 16.13 136.12 18.12 L 135.33 18.06 C 134.28 17.94 133.23 17.81 132.19 17.67 C 132.07 16.70 131.83 14.76 131.72 13.79 C 129.95 14.99 128.16 16.15 126.36 17.29 C 126.07 17.26 125.49 17.20 125.20 17.17 C 124.16 16.46 123.15 15.71 122.14 14.96 C 123.23 12.11 123.99 9.15 124.75 6.20 M 130.22 11.42 C 129.07 11.11 127.53 11.31 126.82 12.35 C 126.95 14.38 132.09 13.02 130.22 11.42 Z" />
</g>
<g id="#565248ff">
<path fill="#565248" opacity="1.00" d=" M 24.46 9.78 C 25.66 8.95 26.82 8.06 28.00 7.19 C 29.17 8.06 30.33 8.94 31.53 9.77 C 29.18 9.65 26.82 9.65 24.46 9.78 Z" />
<path fill="#565248" opacity="1.00" d=" M 80.47 9.78 C 81.67 8.95 82.83 8.06 84.00 7.19 C 85.17 8.06 86.33 8.94 87.54 9.77 C 85.18 9.65 82.82 9.65 80.47 9.78 Z" />
<path fill="#565248" opacity="1.00" d=" M 192.47 9.78 C 193.67 8.95 194.83 8.06 196.00 7.19 C 197.17 8.06 198.33 8.94 199.54 9.77 C 197.18 9.65 194.82 9.65 192.47 9.78 Z" />
</g>
<g id="#5b5549ff">
<path fill="#5b5549" opacity="1.00" d=" M 34.51 7.12 C 37.36 8.29 40.16 9.59 42.74 11.28 C 40.78 11.41 38.82 11.65 36.86 11.74 C 36.39 14.27 35.80 16.77 35.43 19.32 C 34.44 19.59 33.45 19.84 32.46 20.09 C 32.22 17.42 32.04 14.72 32.52 12.07 L 32.91 11.16 L 33.29 10.31 C 33.71 9.25 34.12 8.19 34.51 7.12 Z" />
</g>
<g id="#5c554aff">
<path fill="#5c554a" opacity="1.00" d=" M 90.54 7.13 C 93.38 8.30 96.17 9.59 98.74 11.28 C 96.78 11.41 94.83 11.65 92.87 11.75 C 92.46 14.04 91.97 16.31 91.48 18.59 C 90.42 18.71 89.36 18.84 88.30 18.98 C 88.19 16.67 88.23 14.36 88.48 12.06 L 88.89 11.16 L 89.27 10.31 C 89.71 9.26 90.13 8.20 90.54 7.13 Z" />
<path fill="#5c554a" opacity="1.00" d=" M 202.54 7.13 C 205.38 8.30 208.17 9.59 210.74 11.28 C 208.78 11.41 206.83 11.65 204.87 11.75 C 204.46 14.04 203.97 16.31 203.48 18.59 C 202.42 18.71 201.35 18.84 200.30 18.98 C 200.19 16.67 200.22 14.36 200.48 12.06 L 200.89 11.16 L 201.27 10.31 C 201.71 9.26 202.13 8.20 202.54 7.13 Z" />
</g>
<g id="#60574aff">
<path fill="#60574a" opacity="1.00" d=" M 3.52 8.08 C 4.18 8.06 5.50 8.02 6.15 8.00 C 6.00 10.51 5.82 13.03 5.63 15.54 C 4.73 13.11 4.12 10.59 3.52 8.08 Z" />
<path fill="#60574a" opacity="1.00" d=" M 59.52 8.08 C 60.18 8.06 61.50 8.02 62.15 8.00 C 62.00 10.51 61.82 13.03 61.63 15.54 C 60.73 13.11 60.11 10.59 59.52 8.08 Z" />
<path fill="#60574a" opacity="1.00" d=" M 115.52 8.08 C 116.18 8.06 117.50 8.02 118.15 8.00 C 118.00 10.51 117.82 13.03 117.63 15.54 C 116.73 13.11 116.11 10.59 115.52 8.08 Z" />
<path fill="#60574a" opacity="1.00" d=" M 171.52 8.08 C 172.18 8.06 173.50 8.02 174.15 8.00 C 174.00 10.51 173.82 13.03 173.63 15.54 C 172.73 13.11 172.11 10.59 171.52 8.08 Z" />
<path fill="#60574a" opacity="1.00" d=" M 8.23 11.90 L 8.77 11.90 C 11.19 14.54 5.81 14.54 8.23 11.90 Z" />
<path fill="#60574a" opacity="1.00" d=" M 64.23 11.90 L 64.77 11.90 C 67.19 14.54 61.81 14.54 64.23 11.90 Z" />
<path fill="#60574a" opacity="1.00" d=" M 120.23 11.90 L 120.77 11.90 C 123.19 14.54 117.81 14.54 120.23 11.90 Z" />
<path fill="#60574a" opacity="1.00" d=" M 176.23 11.90 L 176.77 11.90 C 179.19 14.54 173.81 14.54 176.23 11.90 Z" />
</g>
<g id="#75634eff">
<path fill="#75634e" opacity="1.00" d=" M 22.70 10.28 C 23.14 10.15 24.02 9.90 24.46 9.78 C 26.82 9.65 29.18 9.65 31.53 9.77 C 31.97 9.91 32.85 10.17 33.29 10.31 L 32.91 11.16 C 29.63 11.23 26.34 11.33 23.07 11.13 L 22.70 10.28 Z" />
<path fill="#75634e" opacity="1.00" d=" M 78.66 10.27 C 79.11 10.15 80.02 9.90 80.47 9.78 C 82.82 9.65 85.18 9.65 87.54 9.77 C 87.97 9.91 88.84 10.17 89.27 10.31 L 88.89 11.16 C 85.58 11.21 82.28 11.33 78.97 11.14 L 78.66 10.27 Z" />
<path fill="#75634e" opacity="1.00" d=" M 190.66 10.27 C 191.11 10.15 192.02 9.90 192.47 9.78 C 194.82 9.65 197.18 9.65 199.54 9.77 C 199.97 9.91 200.84 10.17 201.27 10.31 L 200.89 11.16 C 197.57 11.21 194.28 11.33 190.97 11.14 L 190.66 10.27 Z" />
</g>
<g id="#332e2aff">
<path fill="#332e2a" opacity="1.00" d=" M 18.22 11.42 C 20.09 13.02 14.95 14.38 14.82 12.35 C 15.53 11.31 17.08 11.11 18.22 11.42 Z" />
<path fill="#332e2a" opacity="1.00" d=" M 74.22 11.42 C 76.09 13.02 70.95 14.38 70.82 12.35 C 71.53 11.31 73.07 11.11 74.22 11.42 Z" />
<path fill="#332e2a" opacity="1.00" d=" M 130.22 11.42 C 132.09 13.02 126.95 14.38 126.82 12.35 C 127.53 11.31 129.07 11.11 130.22 11.42 Z" />
<path fill="#332e2a" opacity="1.00" d=" M 186.22 11.42 C 188.09 13.02 182.95 14.38 182.82 12.35 C 183.53 11.31 185.07 11.11 186.22 11.42 Z" />
<path fill="#332e2a" opacity="1.00" d=" M 70.04 18.32 C 71.91 16.63 73.88 15.06 75.87 13.51 C 76.04 15.27 76.21 17.03 76.34 18.79 C 75.19 18.73 74.03 18.66 72.88 18.57 C 72.17 18.51 70.75 18.39 70.04 18.32 Z" />
<path fill="#332e2a" opacity="1.00" d=" M 182.04 18.32 C 183.91 16.63 185.88 15.06 187.87 13.51 C 188.04 15.27 188.21 17.03 188.34 18.79 C 187.18 18.73 186.03 18.66 184.88 18.57 C 184.17 18.51 182.75 18.39 182.04 18.32 Z" />
<path fill="#332e2a" opacity="1.00" d=" M 27.04 15.63 C 27.52 15.63 28.48 15.63 28.96 15.62 C 28.58 17.02 28.42 18.50 28.74 19.93 C 28.37 19.94 27.64 19.95 27.27 19.96 C 27.58 18.52 27.41 17.04 27.04 15.63 Z" />
<path fill="#332e2a" opacity="1.00" d=" M 83.14 15.67 C 83.58 15.66 84.48 15.64 84.92 15.64 C 84.51 16.70 84.42 17.78 84.65 18.90 C 84.32 18.90 83.66 18.91 83.32 18.92 C 83.67 17.82 83.61 16.74 83.14 15.67 Z" />
<path fill="#332e2a" opacity="1.00" d=" M 139.18 18.25 C 137.05 14.63 142.96 14.65 140.84 18.26 C 140.42 18.26 139.60 18.25 139.18 18.25 Z" />
<path fill="#332e2a" opacity="1.00" d=" M 195.14 15.67 C 195.58 15.66 196.48 15.64 196.92 15.64 C 196.50 16.70 196.41 17.78 196.65 18.90 C 196.32 18.90 195.66 18.91 195.32 18.92 C 195.67 17.82 195.61 16.74 195.14 15.67 Z" />
<path fill="#332e2a" opacity="1.00" d=" M 46.24 23.32 C 47.67 22.79 49.05 22.14 50.43 21.51 C 50.22 22.05 49.81 23.15 49.60 23.69 C 49.52 23.97 49.35 24.52 49.27 24.80 C 47.97 32.55 47.17 40.39 46.53 48.22 C 45.63 48.12 43.82 47.91 42.92 47.81 C 43.60 45.90 44.24 43.99 44.75 42.03 C 44.83 40.72 44.85 39.40 44.81 38.09 C 44.27 36.18 43.45 34.36 42.46 32.64 C 42.81 32.62 43.50 32.58 43.85 32.56 C 44.97 32.49 46.09 32.44 47.22 32.39 C 46.99 31.12 46.74 29.86 46.48 28.60 C 45.39 28.45 44.29 28.29 43.20 28.14 C 43.65 26.64 44.10 25.15 44.51 23.64 L 44.68 22.94 C 45.07 23.03 45.85 23.22 46.24 23.32 Z" />
<path fill="#332e2a" opacity="1.00" d=" M 102.20 22.99 C 103.63 22.60 105.02 22.08 106.43 21.59 C 106.22 22.12 105.82 23.17 105.62 23.70 C 105.54 23.97 105.36 24.52 105.28 24.80 C 103.95 32.55 103.19 40.39 102.53 48.22 C 101.62 48.11 99.81 47.90 98.90 47.80 C 99.54 45.97 100.20 44.15 100.80 42.32 C 100.83 41.75 100.88 40.60 100.90 40.03 C 100.33 37.52 99.67 35.02 98.62 32.67 C 98.96 32.65 99.63 32.61 99.97 32.59 C 101.03 32.51 102.08 32.45 103.14 32.40 C 102.62 30.75 102.11 29.10 101.70 27.43 C 101.57 26.28 100.96 25.50 99.87 25.08 C 99.89 24.67 99.93 23.86 99.95 23.45 C 100.51 23.34 101.64 23.11 102.20 22.99 Z" />
<path fill="#332e2a" opacity="1.00" d=" M 214.20 23.00 C 215.61 22.60 216.98 22.07 218.37 21.57 C 218.18 22.10 217.80 23.17 217.61 23.70 C 217.53 23.98 217.38 24.53 217.30 24.81 C 215.94 32.55 215.19 40.39 214.53 48.22 C 213.62 48.11 211.81 47.90 210.90 47.80 C 211.54 45.97 212.19 44.15 212.80 42.32 C 212.83 41.75 212.88 40.60 212.90 40.03 C 212.33 37.52 211.67 35.02 210.62 32.67 C 210.96 32.65 211.63 32.61 211.97 32.59 C 213.03 32.51 214.08 32.45 215.14 32.40 C 214.62 30.75 214.11 29.10 213.70 27.43 C 213.57 26.28 212.96 25.50 211.87 25.08 C 211.89 24.67 211.93 23.86 211.95 23.45 C 212.51 23.34 213.64 23.11 214.20 23.00 Z" />
</g>
<g id="#9c894eff">
<path fill="#9c894e" opacity="1.00" d=" M 23.07 11.13 C 26.34 11.33 29.63 11.23 32.91 11.16 L 32.52 12.07 C 29.51 12.22 26.49 12.29 23.48 12.09 L 23.07 11.13 Z" />
<path fill="#9c894e" opacity="1.00" d=" M 78.97 11.14 C 82.28 11.33 85.58 11.21 88.89 11.16 L 88.48 12.06 C 85.43 12.21 82.36 12.29 79.31 12.11 L 78.97 11.14 Z" />
<path fill="#9c894e" opacity="1.00" d=" M 134.83 11.29 C 137.36 11.26 142.41 11.20 144.93 11.17 L 144.75 12.08 C 141.52 12.29 138.29 12.37 135.06 12.17 L 134.83 11.29 Z" />
<path fill="#9c894e" opacity="1.00" d=" M 190.97 11.14 C 194.28 11.33 197.57 11.21 200.89 11.16 L 200.48 12.06 C 197.42 12.21 194.36 12.29 191.31 12.11 L 190.97 11.14 Z" />
</g>
<g id="#4b5745ff">
<path fill="#4b5745" opacity="1.00" d=" M 49.28 10.69 C 49.48 14.32 50.25 17.88 50.43 21.51 C 49.05 22.14 47.67 22.79 46.24 23.32 C 46.27 22.22 46.33 21.12 46.41 20.02 C 47.06 16.82 48.31 13.80 49.28 10.69 Z" />
<path fill="#4b5745" opacity="1.00" d=" M 105.28 10.69 C 105.48 14.34 106.26 17.93 106.43 21.59 C 105.02 22.08 103.63 22.60 102.20 22.99 C 102.26 22.05 102.33 21.10 102.41 20.16 C 103.05 16.92 104.29 13.84 105.28 10.69 Z" />
<path fill="#4b5745" opacity="1.00" d=" M 217.28 10.69 C 217.51 14.33 218.24 17.92 218.37 21.57 C 216.98 22.07 215.61 22.60 214.20 23.00 C 214.26 22.06 214.33 21.11 214.41 20.16 C 215.05 16.92 216.28 13.84 217.28 10.69 Z" />
</g>
<g id="#515946ff">
<path fill="#515946" opacity="1.00" d=" M 161.43 10.84 C 161.45 14.45 162.24 18.01 162.42 21.62 C 160.30 22.35 158.16 22.99 156.00 23.55 L 156.05 22.36 C 156.09 21.95 156.15 21.12 156.18 20.70 C 158.92 18.03 160.45 14.51 161.43 10.84 Z" />
</g>
<g id="#76644eff">
<path fill="#76644e" opacity="1.00" d=" M 23.48 12.09 C 26.49 12.29 29.51 12.22 32.52 12.07 C 32.04 14.72 32.22 17.42 32.46 20.09 C 31.94 20.06 30.89 20.01 30.37 19.99 C 30.42 18.48 30.07 16.97 29.39 15.63 L 28.96 15.62 C 28.48 15.63 27.52 15.63 27.04 15.63 L 26.62 15.64 C 25.94 16.99 25.60 18.50 25.63 20.02 C 25.12 20.03 24.09 20.05 23.57 20.06 C 23.79 17.41 23.96 14.72 23.48 12.09 Z" />
</g>
<g id="#77644eff">
<path fill="#77644e" opacity="1.00" d=" M 79.31 12.11 C 82.36 12.29 85.43 12.21 88.48 12.06 C 88.23 14.36 88.19 16.67 88.30 18.98 C 87.85 18.96 86.95 18.91 86.50 18.89 C 86.46 17.70 86.12 16.61 85.48 15.63 L 84.92 15.64 C 84.48 15.64 83.58 15.66 83.14 15.67 L 82.59 15.68 C 82.07 16.73 81.66 17.83 81.34 18.96 C 81.05 18.96 80.46 18.97 80.17 18.97 C 79.98 16.67 79.79 14.37 79.31 12.11 Z" />
<path fill="#77644e" opacity="1.00" d=" M 191.31 12.11 C 194.36 12.29 197.42 12.21 200.48 12.06 C 200.22 14.36 200.19 16.67 200.30 18.98 C 199.85 18.96 198.95 18.91 198.50 18.89 C 198.46 17.70 198.12 16.61 197.48 15.63 L 196.92 15.64 C 196.48 15.64 195.58 15.66 195.14 15.67 L 194.59 15.68 C 194.07 16.73 193.66 17.83 193.34 18.96 C 193.05 18.96 192.46 18.97 192.17 18.97 C 191.98 16.67 191.79 14.37 191.31 12.11 Z" />
</g>
<g id="#70604dff">
<path fill="#70604d" opacity="1.00" d=" M 135.06 12.17 C 138.29 12.37 141.52 12.29 144.75 12.08 C 144.46 14.16 144.21 16.25 144.15 18.36 C 143.05 18.28 141.94 18.25 140.84 18.26 C 142.96 14.65 137.05 14.63 139.18 18.25 C 138.16 18.21 137.14 18.18 136.12 18.12 C 135.85 16.13 135.52 14.14 135.06 12.17 Z" />
</g>
<g id="#716955fe">
<path fill="#716955" opacity="1.00" d=" M 38.11 12.80 C 39.35 12.89 40.60 12.99 41.85 13.07 C 41.84 14.99 41.80 18.82 41.79 20.73 L 41.53 20.19 C 40.41 17.72 39.27 15.25 38.11 12.80 Z" />
</g>
<g id="#746b56ff">
<path fill="#746b56" opacity="1.00" d=" M 93.92 12.50 C 95.11 12.82 96.30 13.17 97.48 13.54 C 97.66 14.96 98.02 17.82 98.20 19.25 L 97.32 19.06 C 96.13 16.90 95.03 14.70 93.92 12.50 Z" />
<path fill="#746b56" opacity="1.00" d=" M 205.92 12.50 C 207.11 12.82 208.30 13.17 209.48 13.54 C 209.66 14.96 210.02 17.82 210.20 19.25 L 209.32 19.06 C 208.13 16.90 207.02 14.70 205.92 12.50 Z" />
</g>
<g id="#71654bff">
<path fill="#71654b" opacity="1.00" d=" M 149.57 13.08 C 151.00 13.07 152.43 13.05 153.87 13.02 C 153.97 14.41 154.07 15.79 154.18 17.18 L 153.44 17.38 C 152.11 15.99 150.84 14.54 149.57 13.08 Z" />
</g>
<g id="#322e2aff">
<path fill="#322e2a" opacity="1.00" d=" M 13.84 19.32 C 15.52 17.02 17.55 15.01 19.90 13.39 C 20.09 15.41 20.26 17.43 20.37 19.46 C 19.21 19.58 18.04 19.68 16.87 19.75 C 16.11 19.64 14.60 19.42 13.84 19.32 Z" />
</g>
<g id="#332e2afe">
<path fill="#332e2a" opacity="1.00" d=" M 126.36 17.29 C 128.16 16.15 129.95 14.99 131.72 13.79 C 131.83 14.76 132.07 16.70 132.19 17.67 C 131.08 17.63 129.97 17.57 128.87 17.51 C 128.24 17.46 126.99 17.35 126.36 17.29 Z" />
</g>
<g id="#565249ff">
<path fill="#565249" opacity="1.00" d=" M 26.62 15.64 L 27.04 15.63 C 27.41 17.04 27.58 18.52 27.27 19.96 C 26.86 19.97 26.04 20.00 25.63 20.02 C 25.60 18.50 25.94 16.99 26.62 15.64 Z" />
<path fill="#565249" opacity="1.00" d=" M 28.96 15.62 L 29.39 15.63 C 30.07 16.97 30.42 18.48 30.37 19.99 C 29.96 19.97 29.15 19.94 28.74 19.93 C 28.42 18.50 28.58 17.02 28.96 15.62 Z" />
<path fill="#565249" opacity="1.00" d=" M 82.59 15.68 L 83.14 15.67 C 83.61 16.74 83.67 17.82 83.32 18.92 C 82.83 18.93 81.84 18.95 81.34 18.96 C 81.66 17.83 82.07 16.73 82.59 15.68 Z" />
<path fill="#565249" opacity="1.00" d=" M 84.92 15.64 L 85.48 15.63 C 86.12 16.61 86.46 17.70 86.50 18.89 C 86.04 18.89 85.11 18.89 84.65 18.90 C 84.42 17.78 84.51 16.70 84.92 15.64 Z" />
<path fill="#565249" opacity="1.00" d=" M 194.59 15.68 L 195.14 15.67 C 195.61 16.74 195.67 17.82 195.32 18.92 C 194.83 18.93 193.84 18.95 193.34 18.96 C 193.66 17.83 194.07 16.73 194.59 15.68 Z" />
<path fill="#565249" opacity="1.00" d=" M 196.92 15.64 L 197.48 15.63 C 198.12 16.61 198.46 17.70 198.50 18.89 C 198.04 18.89 197.11 18.89 196.65 18.90 C 196.41 17.78 196.50 16.70 196.92 15.64 Z" />
<path fill="#565249" opacity="1.00" d=" M 43.20 28.14 C 44.29 28.29 45.39 28.45 46.48 28.60 C 46.74 29.86 46.99 31.12 47.22 32.39 C 46.09 32.44 44.97 32.49 43.85 32.56 C 43.71 31.33 43.40 30.14 42.94 28.99 L 43.20 28.14 Z" />
</g>
<g id="#5d564aff">
<path fill="#5d564a" opacity="1.00" d=" M 2.55 17.22 C 4.81 16.90 7.05 16.48 9.26 15.92 C 9.76 17.23 10.27 18.53 10.81 19.82 C 10.18 20.18 8.91 20.91 8.28 21.27 C 8.20 20.75 8.04 19.72 7.96 19.20 C 8.44 17.10 5.23 16.43 5.46 18.82 C 4.49 18.29 3.52 17.76 2.55 17.22 Z" />
</g>
<g id="#625f57ff">
<path fill="#625f57" opacity="1.00" d=" M 59.96 16.81 C 61.90 16.51 63.86 16.25 65.81 15.96 C 65.91 17.26 66.00 18.56 66.09 19.86 C 65.63 20.16 64.71 20.76 64.25 21.06 L 64.17 20.22 L 64.09 19.32 C 64.56 17.82 62.31 16.51 61.72 18.28 C 61.28 17.91 60.40 17.18 59.96 16.81 Z" />
<path fill="#625f57" opacity="1.00" d=" M 171.96 16.81 C 173.90 16.51 175.86 16.25 177.81 15.96 C 177.91 17.26 178.00 18.56 178.09 19.86 C 177.63 20.16 176.71 20.76 176.25 21.06 L 176.17 20.22 L 176.09 19.32 C 176.56 17.82 174.31 16.51 173.72 18.28 C 173.28 17.91 172.40 17.18 171.96 16.81 Z" />
</g>
<g id="#6b675bff">
<path fill="#6b675b" opacity="1.00" d=" M 118.08 15.78 C 119.27 15.97 120.46 16.17 121.65 16.36 C 121.79 16.98 122.06 18.20 122.19 18.82 C 121.63 19.17 120.50 19.87 119.94 20.22 L 119.73 19.49 C 119.20 18.24 118.62 17.01 118.08 15.78 Z" />
</g>
<g id="#8a7c4cff">
<path fill="#8a7c4c" opacity="1.00" d=" M 5.46 18.82 C 5.23 16.43 8.44 17.10 7.96 19.20 C 7.34 19.11 6.08 18.92 5.46 18.82 Z" />
</g>
<g id="#84774cff">
<path fill="#84774c" opacity="1.00" d=" M 61.72 18.28 C 62.31 16.51 64.56 17.82 64.09 19.32 C 63.50 19.06 62.31 18.54 61.72 18.28 Z" />
<path fill="#84774c" opacity="1.00" d=" M 173.72 18.28 C 174.31 16.51 176.56 17.82 176.09 19.32 C 175.50 19.06 174.31 18.54 173.72 18.28 Z" />
</g>
<g id="#4377caff">
<path fill="#4377ca" opacity="1.00" d=" M 111.92 16.78 C 114.51 17.71 117.13 18.57 119.73 19.49 L 119.94 20.22 C 120.16 21.02 120.36 21.83 120.55 22.65 C 120.27 25.12 123.74 24.72 122.96 22.39 C 133.05 22.04 143.16 22.89 153.23 21.90 C 153.52 22.37 154.09 23.29 154.37 23.75 C 153.52 23.81 151.84 23.92 150.99 23.98 C 144.45 24.63 137.75 24.70 131.39 26.53 C 130.72 28.01 130.33 29.65 130.44 31.28 C 135.05 33.58 139.90 35.35 144.61 37.43 C 146.52 40.02 148.72 42.37 151.00 44.62 C 148.73 44.59 146.47 44.62 144.20 44.72 C 144.80 43.28 145.39 41.83 145.95 40.38 C 143.60 39.68 141.27 38.94 138.95 38.19 C 139.47 42.69 145.00 46.70 142.11 51.39 C 141.61 50.50 140.63 48.72 140.13 47.84 C 139.49 50.09 138.81 52.33 138.20 54.60 C 136.13 52.24 133.81 50.12 131.27 48.28 C 131.34 47.64 131.47 46.37 131.54 45.73 C 133.93 46.57 136.17 47.78 138.52 48.71 C 138.92 48.04 139.32 47.37 139.71 46.70 C 138.70 46.08 137.69 45.47 136.67 44.86 C 137.14 41.79 137.68 38.73 138.13 35.66 C 132.06 35.02 126.31 36.95 120.64 38.76 C 118.28 39.73 116.10 38.06 114.05 37.14 C 118.88 36.18 124.04 36.57 128.71 34.86 C 129.70 31.91 128.81 28.74 128.73 25.73 C 122.98 26.18 117.25 26.85 111.52 27.45 C 111.62 26.16 111.72 24.88 111.80 23.59 C 111.84 23.17 111.94 22.33 111.99 21.91 L 112.05 21.40 C 114.50 22.51 117.23 22.57 119.87 22.57 C 117.31 21.05 114.63 19.77 111.97 18.46 C 111.96 18.04 111.93 17.20 111.92 16.78 Z" />
</g>
<g id="#437ec9ff">
<path fill="#437ec9" opacity="1.00" d=" M 123.76 17.90 C 124.12 17.72 124.84 17.35 125.20 17.17 C 125.49 17.20 126.07 17.26 126.36 17.29 C 126.99 17.35 128.24 17.46 128.87 17.51 C 131.02 17.70 133.17 17.88 135.33 18.06 L 136.12 18.12 C 137.14 18.18 138.16 18.21 139.18 18.25 C 139.60 18.25 140.42 18.26 140.84 18.26 C 141.94 18.25 143.05 18.28 144.15 18.36 C 145.95 18.52 149.56 18.83 151.37 18.99 C 142.38 19.67 133.31 19.56 124.43 21.34 C 124.22 20.19 123.99 19.04 123.76 17.90 Z" />
<path fill="#437ec9" opacity="1.00" d=" M 67.79 18.81 C 68.07 18.67 68.62 18.38 68.90 18.24 C 69.18 18.26 69.75 18.30 70.04 18.32 C 70.75 18.39 72.17 18.51 72.88 18.57 C 75.02 18.73 77.16 18.86 79.31 18.95 L 80.17 18.97 C 80.46 18.97 81.05 18.96 81.34 18.96 C 81.84 18.95 82.83 18.93 83.32 18.92 C 83.66 18.91 84.32 18.90 84.65 18.90 C 85.11 18.89 86.04 18.89 86.50 18.89 C 86.95 18.91 87.85 18.96 88.30 18.98 C 90.13 19.19 93.78 19.61 95.61 19.82 C 86.56 20.79 77.39 20.50 68.42 22.35 C 68.22 21.17 68.01 19.99 67.79 18.81 Z" />
<path fill="#437ec9" opacity="1.00" d=" M 179.79 18.81 C 180.07 18.67 180.62 18.38 180.90 18.24 C 181.18 18.26 181.75 18.30 182.04 18.32 C 182.75 18.39 184.17 18.51 184.88 18.57 C 187.01 18.73 189.16 18.86 191.31 18.95 L 192.17 18.97 C 192.46 18.97 193.05 18.96 193.34 18.96 C 193.84 18.95 194.83 18.93 195.32 18.92 C 195.66 18.91 196.32 18.90 196.65 18.90 C 197.11 18.89 198.04 18.89 198.50 18.89 C 198.95 18.91 199.85 18.96 200.30 18.98 C 202.13 19.19 205.78 19.61 207.61 19.82 C 198.56 20.79 189.39 20.50 180.42 22.35 C 180.22 21.17 180.01 19.99 179.79 18.81 Z" />
<path fill="#437ec9" opacity="1.00" d=" M 12.24 20.58 C 12.18 20.12 12.05 19.21 11.99 18.75 C 12.45 18.89 13.38 19.18 13.84 19.32 C 14.60 19.42 16.11 19.64 16.87 19.75 C 19.10 19.92 21.33 20.03 23.57 20.06 C 24.09 20.05 25.12 20.03 25.63 20.02 C 26.04 20.00 26.86 19.97 27.27 19.96 C 27.64 19.95 28.37 19.94 28.74 19.93 C 29.15 19.94 29.96 19.97 30.37 19.99 C 30.89 20.01 31.94 20.06 32.46 20.09 C 34.19 20.16 37.65 20.30 39.37 20.37 C 30.46 22.13 21.29 21.36 12.41 23.47 C 12.38 22.68 12.33 21.89 12.29 21.10 L 12.24 20.58 Z" />
</g>
<g id="#8fa8baff">
<path fill="#8fa8ba" opacity="1.00" d=" M 128.87 17.51 C 129.97 17.57 131.08 17.63 132.19 17.67 C 133.23 17.81 134.28 17.94 135.33 18.06 C 133.17 17.88 131.02 17.70 128.87 17.51 Z" />
<path fill="#8fa8ba" opacity="1.00" d=" M 147.25 16.90 C 148.41 17.35 149.57 17.79 150.72 18.27 L 151.37 18.99 C 149.56 18.83 145.95 18.52 144.15 18.36 C 144.92 17.99 146.47 17.26 147.25 16.90 Z" />
<path fill="#8fa8ba" opacity="1.00" d=" M 72.88 18.57 C 74.03 18.66 75.19 18.73 76.34 18.79 C 77.33 18.85 78.32 18.90 79.31 18.95 C 77.16 18.86 75.02 18.73 72.88 18.57 Z" />
<path fill="#8fa8ba" opacity="1.00" d=" M 88.30 18.98 C 89.36 18.84 90.42 18.71 91.48 18.59 C 92.66 18.57 93.84 18.63 95.02 18.76 L 95.61 19.82 C 93.78 19.61 90.13 19.19 88.30 18.98 Z" />
<path fill="#8fa8ba" opacity="1.00" d=" M 184.88 18.57 C 186.03 18.66 187.18 18.73 188.34 18.79 C 189.33 18.85 190.32 18.90 191.31 18.95 C 189.16 18.86 187.01 18.73 184.88 18.57 Z" />
<path fill="#8fa8ba" opacity="1.00" d=" M 200.30 18.98 C 201.35 18.84 202.42 18.71 203.48 18.59 C 204.66 18.57 205.84 18.63 207.02 18.76 L 207.61 19.82 C 205.78 19.61 202.13 19.19 200.30 18.98 Z" />
<path fill="#8fa8ba" opacity="1.00" d=" M 16.87 19.75 C 18.04 19.68 19.21 19.58 20.37 19.46 C 21.44 19.66 22.50 19.86 23.57 20.06 C 21.33 20.03 19.10 19.92 16.87 19.75 Z" />
<path fill="#8fa8ba" opacity="1.00" d=" M 32.46 20.09 C 33.45 19.84 34.44 19.59 35.43 19.32 C 36.95 19.61 38.48 19.87 40.02 20.10 L 39.37 20.37 C 37.65 20.30 34.19 20.16 32.46 20.09 Z" />
</g>
<g id="#268dd8ff">
<path fill="#268dd8" opacity="1.00" d=" M 153.44 17.38 L 154.18 17.18 C 154.23 17.90 154.34 19.33 154.40 20.05 C 154.25 21.40 154.80 22.17 156.05 22.36 L 156.00 23.55 C 156.35 24.96 156.84 26.32 157.32 27.69 C 156.48 28.46 155.65 29.24 154.81 30.01 C 154.57 30.23 154.07 30.68 153.82 30.91 C 153.14 28.50 152.02 26.25 150.99 23.98 C 151.84 23.92 153.52 23.81 154.37 23.75 C 154.09 23.29 153.52 22.37 153.23 21.90 C 152.63 20.92 152.02 19.94 151.37 18.99 L 150.72 18.27 C 151.40 18.05 152.76 17.60 153.44 17.38 Z" />
</g>
<g id="#4378caff">
<path fill="#4378ca" opacity="1.00" d=" M 55.88 17.93 C 58.64 18.73 61.40 19.49 64.17 20.22 L 64.25 21.06 C 64.34 21.93 64.42 22.80 64.49 23.67 C 64.06 26.13 67.65 25.69 66.92 23.41 C 77.03 23.02 87.15 23.90 97.24 22.91 C 97.47 23.36 97.94 24.27 98.18 24.72 C 97.45 24.76 95.99 24.85 95.26 24.89 C 88.97 25.38 82.58 25.71 76.53 27.66 C 76.44 28.85 76.25 31.24 76.16 32.43 C 81.85 34.79 88.17 36.24 92.71 40.70 C 89.80 39.94 86.89 39.17 83.97 38.46 C 83.85 40.22 83.62 43.74 83.50 45.50 C 82.93 42.45 82.22 39.43 81.41 36.44 C 79.09 36.20 76.76 35.93 74.44 35.64 C 74.13 32.80 73.84 29.98 73.52 27.14 C 67.55 26.45 61.45 26.18 55.59 27.75 C 55.68 26.37 55.76 24.98 55.84 23.60 C 55.88 23.15 55.96 22.25 56.00 21.81 C 58.17 23.82 61.17 23.63 63.90 23.51 C 61.34 22.04 58.64 20.84 55.93 19.65 C 55.92 19.22 55.89 18.36 55.88 17.93 Z" />
<path fill="#4378ca" opacity="1.00" d=" M 167.88 17.93 C 170.63 18.73 173.40 19.49 176.17 20.22 L 176.25 21.06 C 176.33 21.93 176.41 22.80 176.49 23.67 C 176.06 26.13 179.65 25.69 178.92 23.41 C 189.03 23.02 199.15 23.90 209.24 22.91 C 209.47 23.36 209.94 24.27 210.18 24.72 C 209.45 24.76 207.99 24.85 207.26 24.89 C 200.97 25.38 194.58 25.71 188.53 27.66 C 188.44 28.85 188.26 31.24 188.16 32.43 C 193.85 34.78 200.15 36.25 204.70 40.68 C 202.06 40.03 199.43 39.35 196.80 38.70 C 196.31 42.71 193.98 45.98 191.22 48.72 C 192.39 49.34 193.57 49.97 194.76 50.57 C 195.89 46.61 199.71 45.63 203.00 44.44 C 200.11 47.34 196.07 50.48 198.50 54.99 C 194.92 52.63 191.21 50.47 187.58 48.19 C 189.62 46.57 191.67 44.97 193.76 43.40 C 193.88 41.06 193.96 38.71 194.01 36.36 C 191.47 36.15 188.94 35.93 186.42 35.68 C 186.16 32.78 185.77 29.92 185.52 27.02 C 179.51 27.21 173.55 27.84 167.71 29.26 L 167.66 27.89 C 167.68 26.45 167.71 25.01 167.77 23.58 C 167.82 23.14 167.92 22.25 167.97 21.81 C 170.16 23.76 173.16 23.65 175.89 23.52 C 173.33 22.04 170.62 20.84 167.92 19.64 C 167.91 19.22 167.89 18.36 167.88 17.93 Z" />
</g>
<g id="#65579cfe">
<path fill="#65579c" opacity="1.00" d=" M 122.19 18.82 C 122.58 18.59 123.37 18.13 123.76 17.90 C 123.99 19.04 124.22 20.19 124.43 21.34 C 133.31 19.56 142.38 19.67 151.37 18.99 C 152.02 19.94 152.63 20.92 153.23 21.90 C 143.16 22.89 133.05 22.04 122.96 22.39 C 122.36 22.46 121.16 22.58 120.55 22.65 C 120.36 21.83 120.16 21.02 119.94 20.22 C 120.50 19.87 121.63 19.17 122.19 18.82 Z" />
<path fill="#65579c" opacity="1.00" d=" M 66.09 19.86 C 66.52 19.60 67.36 19.07 67.79 18.81 C 68.01 19.99 68.22 21.17 68.42 22.35 C 77.39 20.50 86.56 20.79 95.61 19.82 C 96.16 20.85 96.70 21.88 97.24 22.91 C 87.15 23.90 77.03 23.02 66.92 23.41 C 66.32 23.48 65.10 23.61 64.49 23.67 C 64.42 22.80 64.34 21.93 64.25 21.06 C 64.71 20.76 65.63 20.16 66.09 19.86 Z" />
<path fill="#65579c" opacity="1.00" d=" M 178.09 19.86 C 178.52 19.60 179.36 19.07 179.79 18.81 C 180.01 19.99 180.22 21.17 180.42 22.35 C 189.39 20.50 198.56 20.79 207.61 19.82 C 208.16 20.85 208.70 21.88 209.24 22.91 C 199.15 23.90 189.03 23.02 178.92 23.41 C 178.32 23.48 177.10 23.61 176.49 23.67 C 176.41 22.80 176.33 21.93 176.25 21.06 C 176.71 20.76 177.63 20.16 178.09 19.86 Z" />
</g>
<g id="#4278caff">
<path fill="#4278ca" opacity="1.00" d=" M 0.00 18.87 C 2.75 19.71 5.50 20.53 8.28 21.27 L 8.30 21.76 C 8.36 22.73 8.42 23.70 8.48 24.67 C 8.01 27.11 11.66 26.68 10.92 24.41 C 20.92 24.08 30.93 24.78 40.92 23.99 L 41.37 23.99 L 41.97 24.50 C 41.34 25.18 40.73 25.87 40.12 26.56 C 36.57 26.83 33.02 27.07 29.46 27.31 C 33.74 27.94 38.30 28.61 41.23 32.16 L 41.19 32.80 C 36.86 32.10 32.51 31.56 28.14 31.24 C 28.22 29.62 28.33 27.99 28.44 26.37 C 24.97 28.02 21.35 29.33 17.87 30.97 C 18.78 29.53 19.71 28.10 20.64 26.68 C 13.74 27.73 6.77 28.45 0.00 30.27 L 0.00 23.44 C 2.48 24.45 5.17 24.62 7.82 24.63 C 5.29 23.01 2.62 21.63 0.00 20.16 L 0.00 18.87 Z" />
</g>
<g id="#278bd7ff">
<path fill="#278bd7" opacity="1.00" d=" M 95.02 18.76 C 95.59 18.83 96.74 18.99 97.32 19.06 L 98.20 19.25 L 98.28 19.97 L 98.36 20.72 C 98.17 22.14 98.70 23.05 99.95 23.45 C 99.93 23.86 99.89 24.67 99.87 25.08 C 100.17 25.77 100.76 27.15 101.06 27.84 C 100.57 28.16 99.61 28.81 99.13 29.13 C 98.74 29.50 97.96 30.23 97.57 30.60 C 96.98 28.63 96.15 26.74 95.26 24.89 C 95.99 24.85 97.45 24.76 98.18 24.72 C 97.94 24.27 97.47 23.36 97.24 22.91 C 96.70 21.88 96.16 20.85 95.61 19.82 L 95.02 18.76 Z" />
<path fill="#278bd7" opacity="1.00" d=" M 207.02 18.76 C 207.59 18.83 208.74 18.99 209.32 19.06 L 210.20 19.25 L 210.28 19.97 L 210.36 20.72 C 210.17 22.14 210.70 23.05 211.95 23.45 C 211.93 23.86 211.89 24.67 211.87 25.08 C 212.17 25.77 212.76 27.15 213.06 27.84 C 212.57 28.16 211.61 28.81 211.13 29.13 C 210.74 29.50 209.96 30.23 209.57 30.60 C 208.98 28.63 208.15 26.74 207.26 24.89 C 207.99 24.85 209.45 24.76 210.18 24.72 C 209.94 24.27 209.47 23.36 209.24 22.91 C 208.70 21.88 208.16 20.85 207.61 19.82 L 207.02 18.76 Z" />
</g>
<g id="#65569cff">
<path fill="#65569c" opacity="1.00" d=" M 111.97 18.46 C 114.63 19.77 117.31 21.05 119.87 22.57 C 117.23 22.57 114.50 22.51 112.05 21.40 C 112.03 20.66 111.99 19.19 111.97 18.46 Z" />
<path fill="#65569c" opacity="1.00" d=" M 55.93 19.65 C 58.64 20.84 61.34 22.04 63.90 23.51 C 61.17 23.63 58.17 23.82 56.00 21.81 L 55.98 21.18 L 55.93 19.65 Z" />
<path fill="#65569c" opacity="1.00" d=" M 167.92 19.64 C 170.62 20.84 173.33 22.04 175.89 23.52 C 173.16 23.65 170.16 23.76 167.97 21.81 L 167.95 21.18 L 167.92 19.64 Z" />
<path fill="#65569c" opacity="1.00" d=" M 0.00 20.16 C 2.62 21.63 5.29 23.01 7.82 24.63 C 5.17 24.62 2.48 24.45 0.00 23.44 L 0.00 20.16 Z" />
</g>
<g id="#7f91acff">
<path fill="#7f91ac" opacity="1.00" d=" M 10.81 19.82 C 11.17 20.01 11.88 20.39 12.24 20.58 L 12.29 21.10 C 11.05 21.66 9.66 21.91 8.30 21.76 L 8.28 21.27 C 8.91 20.91 10.18 20.18 10.81 19.82 Z" />
</g>
<g id="#2a8ad7fe">
<path fill="#2a8ad7" opacity="1.00" d=" M 40.02 20.10 C 40.40 20.12 41.15 20.17 41.53 20.19 L 41.79 20.73 C 41.86 21.17 42.01 22.03 42.09 22.47 C 41.91 22.85 41.55 23.61 41.37 23.99 L 40.92 23.99 C 40.24 22.87 39.54 21.69 39.37 20.37 L 40.02 20.10 Z" />
</g>
<g id="#6c5e4cff">
<path fill="#6c5e4c" opacity="1.00" d=" M 41.79 20.73 C 43.33 20.49 44.87 20.25 46.41 20.02 C 46.33 21.12 46.27 22.22 46.24 23.32 C 45.85 23.22 45.07 23.03 44.68 22.94 C 44.03 22.82 42.73 22.58 42.09 22.47 C 42.01 22.03 41.86 21.17 41.79 20.73 Z" />
<path fill="#6c5e4c" opacity="1.00" d=" M 41.95 50.52 C 42.20 49.84 42.68 48.48 42.92 47.81 C 43.82 47.91 45.63 48.12 46.53 48.22 C 46.45 49.25 46.36 50.28 46.27 51.31 C 45.83 51.21 44.95 51.01 44.51 50.91 C 43.87 50.82 42.59 50.62 41.95 50.52 Z" />
<path fill="#6c5e4c" opacity="1.00" d=" M 97.92 50.53 C 98.16 49.85 98.66 48.48 98.90 47.80 C 99.81 47.90 101.62 48.11 102.53 48.22 C 102.45 49.24 102.36 50.26 102.27 51.28 C 101.74 51.31 100.69 51.36 100.17 51.39 C 99.61 51.18 98.48 50.74 97.92 50.53 Z" />
<path fill="#6c5e4c" opacity="1.00" d=" M 154.22 50.26 C 154.50 49.42 154.78 48.57 155.05 47.72 C 155.92 47.85 157.65 48.11 158.52 48.24 C 158.44 49.27 158.35 50.31 158.27 51.34 C 157.69 51.21 156.54 50.95 155.97 50.82 C 155.53 50.68 154.66 50.40 154.22 50.26 Z" />
<path fill="#6c5e4c" opacity="1.00" d=" M 209.92 50.53 C 210.16 49.85 210.66 48.48 210.90 47.80 C 211.81 47.90 213.62 48.11 214.53 48.22 C 214.44 49.24 214.36 50.26 214.27 51.28 C 213.75 51.31 212.69 51.36 212.17 51.39 C 211.61 51.18 210.48 50.74 209.92 50.53 Z" />
</g>
<g id="#65955fff">
<path fill="#65955f" opacity="1.00" d=" M 52.50 21.29 C 52.85 19.58 55.09 20.36 55.98 21.18 L 56.00 21.81 C 54.93 22.15 53.07 22.66 52.50 21.29 Z" />
<path fill="#65955f" opacity="1.00" d=" M 108.46 21.24 C 108.92 19.46 111.20 20.50 112.05 21.40 L 111.99 21.91 C 110.87 22.14 109.00 22.66 108.46 21.24 Z" />
<path fill="#65955f" opacity="1.00" d=" M 164.50 21.29 C 164.84 19.57 167.08 20.34 167.95 21.18 L 167.97 21.81 C 166.90 22.16 165.05 22.66 164.50 21.29 Z" />
<path fill="#65955f" opacity="1.00" d=" M 220.46 21.27 C 220.85 19.51 223.12 20.42 224.00 21.27 L 224.00 21.78 C 222.91 22.15 221.01 22.69 220.46 21.27 Z" />
<path fill="#65955f" opacity="1.00" d=" M 52.50 49.26 C 52.93 47.49 55.22 48.52 56.03 49.44 L 56.02 49.99 C 54.89 50.25 53.08 50.61 52.50 49.26 Z" />
<path fill="#65955f" opacity="1.00" d=" M 108.44 49.26 C 108.74 47.49 111.04 48.24 111.70 49.35 L 111.67 49.95 C 110.64 50.29 108.85 50.64 108.44 49.26 Z" />
<path fill="#65955f" opacity="1.00" d=" M 164.45 49.29 C 164.81 47.55 167.07 48.36 168.00 49.15 L 168.00 49.69 C 166.92 50.09 165.05 50.71 164.45 49.29 Z" />
<path fill="#65955f" opacity="1.00" d=" M 220.46 49.27 C 220.84 47.52 223.12 48.41 224.00 49.25 L 224.00 49.77 C 222.91 50.14 221.01 50.69 220.46 49.27 Z" />
</g>
<g id="#6e5f4cff">
<path fill="#6e5f4c" opacity="1.00" d=" M 98.28 19.97 C 99.65 20.03 101.03 20.10 102.41 20.16 C 102.33 21.10 102.26 22.05 102.20 22.99 C 101.64 23.11 100.51 23.34 99.95 23.45 C 100.32 22.11 99.79 21.20 98.36 20.72 L 98.28 19.97 Z" />
<path fill="#6e5f4c" opacity="1.00" d=" M 210.28 19.97 C 211.65 20.03 213.03 20.10 214.41 20.16 C 214.33 21.11 214.26 22.06 214.20 23.00 C 213.64 23.11 212.51 23.34 211.95 23.45 C 212.32 22.11 211.79 21.20 210.36 20.72 L 210.28 19.97 Z" />
</g>
<g id="#adc2d9ff">
<path fill="#adc2d9" opacity="1.00" d=" M 154.40 20.05 C 154.84 20.21 155.73 20.54 156.18 20.70 C 156.15 21.12 156.09 21.95 156.05 22.36 C 154.80 22.17 154.25 21.40 154.40 20.05 Z" />
<path fill="#adc2d9" opacity="1.00" d=" M 98.36 20.72 C 99.79 21.20 100.32 22.11 99.95 23.45 C 98.70 23.05 98.17 22.14 98.36 20.72 Z" />
<path fill="#adc2d9" opacity="1.00" d=" M 210.36 20.72 C 211.79 21.20 212.32 22.11 211.95 23.45 C 210.70 23.05 210.17 22.14 210.36 20.72 Z" />
</g>
<g id="#64569cff">
<path fill="#64569c" opacity="1.00" d=" M 8.30 21.76 C 9.66 21.91 11.05 21.66 12.29 21.10 C 12.33 21.89 12.38 22.68 12.41 23.47 C 21.29 21.36 30.46 22.13 39.37 20.37 C 39.54 21.69 40.24 22.87 40.92 23.99 C 30.93 24.78 20.92 24.08 10.92 24.41 C 10.31 24.48 9.09 24.61 8.48 24.67 C 8.42 23.70 8.36 22.73 8.30 21.76 Z" />
</g>
<g id="#35312dff">
<path fill="#35312d" opacity="1.00" d=" M 156.00 23.55 C 158.16 22.99 160.30 22.35 162.42 21.62 C 162.22 22.14 161.82 23.17 161.62 23.69 C 161.54 23.97 161.37 24.53 161.29 24.81 C 159.97 32.56 159.17 40.40 158.52 48.24 C 157.65 48.11 155.92 47.85 155.05 47.72 C 155.57 46.20 156.08 44.68 156.61 43.16 C 157.09 42.12 157.16 41.05 156.82 39.96 C 156.31 37.50 155.68 35.06 154.67 32.76 C 154.99 32.70 155.65 32.58 155.97 32.52 C 157.08 32.45 158.18 32.40 159.29 32.37 C 158.67 30.79 157.93 29.27 157.32 27.69 C 156.84 26.32 156.35 24.96 156.00 23.55 Z" />
</g>
<g id="#9db4c9ff">
<path fill="#9db4c9" opacity="1.00" d=" M 42.09 22.47 C 42.73 22.58 44.03 22.82 44.68 22.94 L 44.51 23.64 C 43.87 23.85 42.60 24.29 41.97 24.50 L 41.37 23.99 C 41.55 23.61 41.91 22.85 42.09 22.47 Z" />
<path fill="#9db4c9" opacity="1.00" d=" M 41.95 50.52 C 42.59 50.62 43.87 50.82 44.51 50.91 L 44.32 51.64 C 43.71 51.92 42.48 52.48 41.86 52.76 L 41.49 52.11 C 41.60 51.71 41.84 50.92 41.95 50.52 Z" />
<path fill="#9db4c9" opacity="1.00" d=" M 97.92 50.53 C 98.48 50.74 99.61 51.18 100.17 51.39 L 100.12 52.17 C 99.49 52.41 98.24 52.90 97.61 53.15 L 97.45 52.36 C 97.57 51.90 97.80 50.99 97.92 50.53 Z" />
<path fill="#9db4c9" opacity="1.00" d=" M 209.92 50.53 C 210.48 50.74 211.61 51.18 212.17 51.39 L 212.12 52.17 C 211.49 52.41 210.24 52.90 209.61 53.15 L 209.45 52.36 C 209.57 51.90 209.80 50.99 209.92 50.53 Z" />
</g>
<g id="#7498b7ff">
<path fill="#7498b7" opacity="1.00" d=" M 120.55 22.65 C 121.16 22.58 122.36 22.46 122.96 22.39 C 123.74 24.72 120.27 25.12 120.55 22.65 Z" />
<path fill="#7498b7" opacity="1.00" d=" M 64.49 23.67 C 65.10 23.61 66.32 23.48 66.92 23.41 C 67.65 25.69 64.06 26.13 64.49 23.67 Z" />
<path fill="#7498b7" opacity="1.00" d=" M 176.49 23.67 C 177.10 23.61 178.32 23.48 178.92 23.41 C 179.65 25.69 176.06 26.13 176.49 23.67 Z" />
<path fill="#7498b7" opacity="1.00" d=" M 8.48 24.67 C 9.09 24.61 10.31 24.48 10.92 24.41 C 11.66 26.68 8.01 27.11 8.48 24.67 Z" />
</g>
<g id="#6e9b59ff">
<path fill="#6e9b59" opacity="1.00" d=" M 49.60 23.69 C 50.79 23.46 51.99 23.27 53.18 23.05 C 53.62 24.15 54.07 25.25 54.53 26.34 C 54.97 25.43 55.41 24.52 55.84 23.60 C 55.76 24.98 55.68 26.37 55.59 27.75 C 54.05 31.67 52.18 35.94 54.45 39.99 C 53.16 43.20 51.90 46.41 50.46 49.56 C 49.46 42.18 48.54 34.56 50.60 27.26 C 50.15 26.44 49.69 25.63 49.27 24.80 C 49.35 24.52 49.52 23.97 49.60 23.69 Z" />
<path fill="#6e9b59" opacity="1.00" d=" M 105.62 23.70 C 106.80 23.46 107.99 23.26 109.18 23.04 C 109.63 24.15 110.08 25.26 110.53 26.37 C 110.96 25.44 111.38 24.52 111.80 23.59 C 111.72 24.88 111.62 26.16 111.52 27.45 C 110.12 31.49 108.19 35.86 110.45 40.00 C 109.15 43.20 107.90 46.42 106.46 49.56 C 105.46 42.18 104.54 34.56 106.60 27.25 C 106.15 26.44 105.69 25.63 105.28 24.80 C 105.36 24.52 105.54 23.97 105.62 23.70 Z" />
<path fill="#6e9b59" opacity="1.00" d=" M 161.62 23.69 C 162.80 23.46 163.99 23.26 165.17 23.06 C 165.63 24.16 166.08 25.25 166.55 26.35 C 166.97 25.43 167.37 24.51 167.77 23.58 C 167.71 25.01 167.68 26.45 167.66 27.89 C 166.55 31.06 164.78 34.29 165.69 37.74 C 166.62 41.99 164.18 45.85 162.51 49.58 C 161.42 42.20 160.55 34.56 162.60 27.26 C 162.16 26.45 161.71 25.64 161.29 24.81 C 161.37 24.53 161.54 23.97 161.62 23.69 Z" />
<path fill="#6e9b59" opacity="1.00" d=" M 217.61 23.70 C 218.80 23.46 220.00 23.25 221.19 23.04 C 221.62 24.14 222.05 25.24 222.49 26.34 C 223.00 25.41 223.51 24.46 224.00 23.51 L 224.00 28.17 C 222.12 28.17 222.12 30.86 224.00 30.87 L 224.00 34.46 C 223.56 33.67 222.69 32.09 222.25 31.30 C 220.87 34.12 221.18 37.21 222.47 39.98 C 221.17 43.19 219.90 46.41 218.46 49.56 C 217.45 42.18 216.55 34.56 218.60 27.25 C 218.15 26.44 217.71 25.63 217.30 24.81 C 217.38 24.53 217.53 23.98 217.61 23.70 Z" />
</g>
<g id="#268ed9fe">
<path fill="#268ed9" opacity="1.00" d=" M 41.97 24.50 C 42.60 24.29 43.87 23.85 44.51 23.64 C 44.10 25.15 43.65 26.64 43.20 28.14 L 42.94 28.99 C 42.51 29.43 41.66 30.32 41.23 30.76 C 40.91 29.35 40.53 27.95 40.12 26.56 C 40.73 25.87 41.34 25.18 41.97 24.50 Z" />
</g>
<g id="#3b6bbeff">
<path fill="#3b6bbe" opacity="1.00" d=" M 131.39 26.53 C 137.75 24.70 144.45 24.63 150.99 23.98 C 152.02 26.25 153.14 28.50 153.82 30.91 L 153.82 31.60 C 153.72 39.71 151.88 48.02 154.07 56.00 L 124.60 56.00 L 123.74 55.38 C 123.15 53.59 122.76 51.74 122.39 49.89 C 118.82 49.99 115.24 49.93 111.67 49.95 L 111.70 49.35 C 111.92 42.06 112.23 34.73 111.52 27.45 C 117.25 26.85 122.98 26.18 128.73 25.73 C 128.81 28.74 129.70 31.91 128.71 34.86 C 124.04 36.57 118.88 36.18 114.05 37.14 C 116.10 38.06 118.28 39.73 120.64 38.76 C 126.31 36.95 132.06 35.02 138.13 35.66 C 137.68 38.73 137.14 41.79 136.67 44.86 C 137.69 45.47 138.70 46.08 139.71 46.70 C 139.32 47.37 138.92 48.04 138.52 48.71 C 136.17 47.78 133.93 46.57 131.54 45.73 C 131.47 46.37 131.34 47.64 131.27 48.28 C 133.81 50.12 136.13 52.24 138.20 54.60 C 138.81 52.33 139.49 50.09 140.13 47.84 C 140.63 48.72 141.61 50.50 142.11 51.39 C 145.00 46.70 139.47 42.69 138.95 38.19 C 141.27 38.94 143.60 39.68 145.95 40.38 C 145.39 41.83 144.80 43.28 144.20 44.72 C 146.47 44.62 148.73 44.59 151.00 44.62 C 148.72 42.37 146.52 40.02 144.61 37.43 C 139.90 35.35 135.05 33.58 130.44 31.28 C 130.33 29.65 130.72 28.01 131.39 26.53 M 113.50 43.48 C 113.39 44.99 113.25 46.49 113.13 48.00 C 114.57 47.98 116.01 47.93 117.45 47.86 C 116.19 46.35 114.86 44.90 113.50 43.48 Z" />
</g>
<g id="#465943ff">
<path fill="#465943" opacity="1.00" d=" M 46.53 48.22 C 47.17 40.39 47.97 32.55 49.27 24.80 C 49.69 25.63 50.15 26.44 50.60 27.26 C 48.54 34.56 49.46 42.18 50.46 49.56 C 49.07 50.15 47.69 50.78 46.27 51.31 C 46.36 50.28 46.45 49.25 46.53 48.22 Z" />
<path fill="#465943" opacity="1.00" d=" M 102.53 48.22 C 103.19 40.39 103.95 32.55 105.28 24.80 C 105.69 25.63 106.15 26.44 106.60 27.25 C 104.54 34.56 105.46 42.18 106.46 49.56 C 105.06 50.13 103.70 50.79 102.27 51.28 C 102.36 50.26 102.45 49.24 102.53 48.22 Z" />
<path fill="#465943" opacity="1.00" d=" M 158.52 48.24 C 159.17 40.40 159.97 32.56 161.29 24.81 C 161.71 25.64 162.16 26.45 162.60 27.26 C 160.55 34.56 161.42 42.20 162.51 49.58 C 161.10 50.17 159.70 50.81 158.27 51.34 C 158.35 50.31 158.44 49.27 158.52 48.24 Z" />
<path fill="#465943" opacity="1.00" d=" M 214.53 48.22 C 215.19 40.39 215.94 32.55 217.30 24.81 C 217.71 25.63 218.15 26.44 218.60 27.25 C 216.55 34.56 217.45 42.18 218.46 49.56 C 217.06 50.13 215.70 50.78 214.27 51.28 C 214.36 50.26 214.44 49.24 214.53 48.22 Z" />
</g>
<g id="#3c6cbfff">
<path fill="#3c6cbf" opacity="1.00" d=" M 76.53 27.66 C 82.58 25.71 88.97 25.38 95.26 24.89 C 96.15 26.74 96.98 28.63 97.57 30.60 L 97.61 31.38 C 97.75 38.37 96.47 45.40 97.45 52.36 L 97.61 53.15 C 97.80 53.86 98.19 55.29 98.39 56.00 L 69.49 56.00 C 67.54 54.03 65.62 51.92 63.04 50.77 C 61.83 50.30 60.61 49.86 59.38 49.46 C 60.61 48.53 61.80 47.53 62.99 46.55 C 61.91 45.66 60.80 44.81 59.66 44.01 C 59.04 45.98 58.32 47.93 57.35 49.76 C 57.02 49.82 56.36 49.93 56.02 49.99 L 56.03 49.44 C 55.95 42.21 56.23 34.96 55.59 27.75 C 61.45 26.18 67.55 26.45 73.52 27.14 C 73.84 29.98 74.13 32.80 74.44 35.64 C 76.76 35.93 79.09 36.20 81.41 36.44 C 82.22 39.43 82.93 42.45 83.50 45.50 C 83.62 43.74 83.85 40.22 83.97 38.46 C 86.89 39.17 89.80 39.94 92.71 40.70 C 88.17 36.24 81.85 34.79 76.16 32.43 C 76.25 31.24 76.44 28.85 76.53 27.66 M 83.25 29.30 C 87.41 29.47 91.58 29.40 95.74 29.24 C 91.82 26.74 87.29 26.96 83.25 29.30 M 60.19 38.94 C 62.12 41.46 64.44 43.63 67.13 45.30 C 66.07 43.32 64.95 41.37 63.86 39.40 C 65.23 38.30 66.53 37.12 67.71 35.80 C 65.01 36.35 62.50 37.46 60.19 38.94 Z" />
</g>
<g id="#86a0b1ff">
<path fill="#86a0b1" opacity="1.00" d=" M 99.87 25.08 C 100.96 25.50 101.57 26.28 101.70 27.43 L 101.06 27.84 C 100.76 27.15 100.17 25.77 99.87 25.08 Z" />
<path fill="#86a0b1" opacity="1.00" d=" M 211.87 25.08 C 212.96 25.50 213.57 26.28 213.70 27.43 L 213.06 27.84 C 212.76 27.15 212.17 25.77 211.87 25.08 Z" />
<path fill="#86a0b1" opacity="1.00" d=" M 154.81 30.01 C 155.10 30.64 155.68 31.89 155.97 32.52 C 155.65 32.58 154.99 32.70 154.67 32.76 C 154.46 32.47 154.03 31.89 153.82 31.60 L 153.82 30.91 C 154.07 30.68 154.57 30.23 154.81 30.01 Z" />
<path fill="#86a0b1" opacity="1.00" d=" M 154.22 50.26 C 154.66 50.40 155.53 50.68 155.97 50.82 L 155.92 51.66 C 154.91 53.08 153.23 51.48 154.22 50.26 Z" />
</g>
<g id="#3c6bbfff">
<path fill="#3c6bbf" opacity="1.00" d=" M 188.53 27.66 C 194.58 25.71 200.97 25.38 207.26 24.89 C 208.15 26.74 208.98 28.63 209.57 30.60 L 209.61 31.38 C 209.75 38.37 208.47 45.40 209.45 52.36 L 209.61 53.15 C 209.80 53.86 210.19 55.29 210.39 56.00 L 181.42 56.00 C 179.44 53.85 177.59 51.52 175.10 49.92 C 173.32 49.86 169.77 49.74 168.00 49.69 L 168.00 49.15 C 167.98 42.52 168.02 35.89 167.71 29.26 C 173.55 27.84 179.51 27.21 185.52 27.02 C 185.77 29.92 186.16 32.78 186.42 35.68 C 188.94 35.93 191.47 36.15 194.01 36.36 C 193.96 38.71 193.88 41.06 193.76 43.40 C 191.67 44.97 189.62 46.57 187.58 48.19 C 191.21 50.47 194.92 52.63 198.50 54.99 C 196.07 50.48 200.11 47.34 203.00 44.44 C 199.71 45.63 195.89 46.61 194.76 50.57 C 193.57 49.97 192.39 49.34 191.22 48.72 C 193.98 45.98 196.31 42.71 196.80 38.70 C 199.43 39.35 202.06 40.03 204.70 40.68 C 200.15 36.25 193.85 34.78 188.16 32.43 C 188.26 31.24 188.44 28.85 188.53 27.66 M 195.25 29.30 C 199.42 29.47 203.57 29.40 207.74 29.24 C 203.82 26.74 199.29 26.96 195.25 29.30 M 171.59 40.70 C 174.56 42.04 177.12 45.21 180.68 44.40 C 179.34 43.73 177.95 43.16 176.53 42.68 C 177.57 40.23 178.61 37.73 180.21 35.58 C 176.45 35.55 172.79 37.03 171.59 40.70 Z" />
</g>
<g id="#3c6bbdff">
<path fill="#3c6bbd" opacity="1.00" d=" M 0.00 30.27 C 6.77 28.45 13.74 27.73 20.64 26.68 C 19.71 28.10 18.78 29.53 17.87 30.97 C 21.35 29.33 24.97 28.02 28.44 26.37 C 28.33 27.99 28.22 29.62 28.14 31.24 C 32.51 31.56 36.86 32.10 41.19 32.80 C 40.56 36.41 39.93 40.15 41.13 43.72 C 40.48 45.18 39.87 46.65 39.27 48.13 C 40.03 49.44 40.74 50.79 41.49 52.11 L 41.86 52.76 C 41.53 53.83 41.21 54.92 40.89 56.00 L 23.41 56.00 C 20.43 54.12 17.42 52.27 14.32 50.60 C 14.37 51.81 14.40 53.03 14.43 54.24 C 12.37 52.70 10.28 51.18 8.12 49.79 C 7.43 49.34 6.75 48.89 6.06 48.45 C 7.38 47.78 8.71 47.10 10.03 46.42 C 10.35 42.89 10.78 39.37 11.45 35.89 C 7.64 36.35 3.82 36.74 0.00 37.12 L 0.00 30.27 M 14.11 37.31 C 17.30 35.67 20.40 36.45 22.79 39.01 C 27.70 38.55 31.78 42.24 36.51 42.98 C 34.97 41.33 33.43 39.46 31.20 38.74 C 26.91 37.30 23.39 34.39 19.81 31.74 C 17.70 33.37 15.78 35.24 14.11 37.31 M 24.63 44.48 C 23.41 44.35 22.20 44.23 20.98 44.12 C 21.04 46.80 21.07 49.48 21.06 52.16 C 21.67 52.04 22.88 51.80 23.48 51.68 C 25.41 48.12 27.44 44.55 27.99 40.44 C 26.91 41.82 25.80 43.18 24.63 44.48 M 34.81 44.58 C 32.83 46.24 30.67 47.66 28.37 48.84 C 28.23 49.35 27.94 50.36 27.80 50.87 C 30.82 49.75 33.81 48.53 36.91 47.64 C 36.22 46.61 35.53 45.59 34.81 44.58 Z" />
</g>
<g id="#3c6bbeff">
<path fill="#3c6bbe" opacity="1.00" d=" M 29.46 27.31 C 33.02 27.07 36.57 26.83 40.12 26.56 C 40.53 27.95 40.91 29.35 41.23 30.76 L 41.25 31.49 L 41.23 32.16 C 38.30 28.61 33.74 27.94 29.46 27.31 Z" />
</g>
<g id="#4280caff">
<path fill="#4280ca" opacity="1.00" d=" M 83.25 29.30 C 87.29 26.96 91.82 26.74 95.74 29.24 C 91.58 29.40 87.41 29.47 83.25 29.30 Z" />
</g>
<g id="#3e7ecbff">
<path fill="#3e7ecb" opacity="1.00" d=" M 195.25 29.30 C 199.29 26.96 203.82 26.74 207.74 29.24 C 203.57 29.40 199.42 29.47 195.25 29.30 Z" />
</g>
<g id="#85b05fff">
<path fill="#85b05f" opacity="1.00" d=" M 54.45 39.99 C 52.18 35.94 54.05 31.67 55.59 27.75 C 56.23 34.96 55.95 42.21 56.03 49.44 C 55.22 48.52 52.93 47.49 52.50 49.26 C 53.08 50.61 54.89 50.25 56.02 49.99 C 55.91 50.34 55.68 51.05 55.57 51.41 C 55.21 52.38 54.84 53.36 54.48 54.34 C 54.05 53.23 53.62 52.13 53.19 51.03 C 51.93 51.25 50.66 51.46 49.41 51.72 C 49.67 51.18 50.20 50.10 50.46 49.56 C 51.90 46.41 53.16 43.20 54.45 39.99 Z" />
<path fill="#85b05f" opacity="1.00" d=" M 110.45 40.00 C 108.19 35.86 110.12 31.49 111.52 27.45 C 112.23 34.73 111.92 42.06 111.70 49.35 C 111.04 48.24 108.74 47.49 108.44 49.26 C 108.85 50.64 110.64 50.29 111.67 49.95 L 112.09 50.34 L 112.72 50.95 C 111.92 52.08 111.13 53.21 110.32 54.34 C 109.96 53.23 109.60 52.12 109.23 51.01 C 107.95 51.24 106.67 51.46 105.40 51.72 C 105.67 51.18 106.20 50.10 106.46 49.56 C 107.90 46.42 109.15 43.20 110.45 40.00 Z" />
<path fill="#85b05f" opacity="1.00" d=" M 165.69 37.74 C 164.78 34.29 166.55 31.06 167.66 27.89 L 167.71 29.26 C 168.02 35.89 167.98 42.52 168.00 49.15 C 167.07 48.36 164.81 47.55 164.45 49.29 C 165.05 50.71 166.92 50.09 168.00 49.69 C 167.87 50.10 167.61 50.93 167.49 51.35 C 167.14 52.32 166.79 53.30 166.43 54.27 C 166.02 53.19 165.60 52.10 165.20 51.02 C 163.93 51.24 162.67 51.48 161.42 51.73 C 161.69 51.19 162.24 50.11 162.51 49.58 C 164.18 45.85 166.62 41.99 165.69 37.74 Z" />
</g>
<g id="#565248fe">
<path fill="#565248" opacity="1.00" d=" M 101.06 27.84 L 101.70 27.43 C 102.11 29.10 102.62 30.75 103.14 32.40 C 102.08 32.45 101.03 32.51 99.97 32.59 C 100.09 31.34 99.81 30.19 99.13 29.13 C 99.61 28.81 100.57 28.16 101.06 27.84 Z" />
<path fill="#565248" opacity="1.00" d=" M 154.81 30.01 C 155.65 29.24 156.48 28.46 157.32 27.69 C 157.93 29.27 158.67 30.79 159.29 32.37 C 158.18 32.40 157.08 32.45 155.97 32.52 C 155.68 31.89 155.10 30.64 154.81 30.01 Z" />
<path fill="#565248" opacity="1.00" d=" M 213.06 27.84 L 213.70 27.43 C 214.11 29.10 214.62 30.75 215.14 32.40 C 214.08 32.45 213.03 32.51 211.97 32.59 C 212.09 31.34 211.81 30.19 211.13 29.13 C 211.61 28.81 212.57 28.16 213.06 27.84 Z" />
</g>
<g id="#a0b6cbff">
<path fill="#a0b6cb" opacity="1.00" d=" M 41.23 30.76 C 41.66 30.32 42.51 29.43 42.94 28.99 C 43.40 30.14 43.71 31.33 43.85 32.56 C 43.50 32.58 42.81 32.62 42.46 32.64 C 42.16 32.35 41.55 31.78 41.25 31.49 L 41.23 30.76 Z" />
<path fill="#a0b6cb" opacity="1.00" d=" M 97.57 30.60 C 97.96 30.23 98.74 29.50 99.13 29.13 C 99.81 30.19 100.09 31.34 99.97 32.59 C 99.63 32.61 98.96 32.65 98.62 32.67 C 98.37 32.35 97.86 31.70 97.61 31.38 L 97.57 30.60 Z" />
<path fill="#a0b6cb" opacity="1.00" d=" M 209.57 30.60 C 209.96 30.23 210.74 29.50 211.13 29.13 C 211.81 30.19 212.09 31.34 211.97 32.59 C 211.63 32.61 210.96 32.65 210.62 32.67 C 210.37 32.35 209.86 31.70 209.61 31.38 L 209.57 30.60 Z" />
</g>
<g id="#4475c9ff">
<path fill="#4475c9" opacity="1.00" d=" M 14.11 37.31 C 15.78 35.24 17.70 33.37 19.81 31.74 C 23.39 34.39 26.91 37.30 31.20 38.74 C 33.43 39.46 34.97 41.33 36.51 42.98 C 31.78 42.24 27.70 38.55 22.79 39.01 C 20.40 36.45 17.30 35.67 14.11 37.31 Z" />
</g>
<g id="#2f8bd3ff">
<path fill="#2f8bd3" opacity="1.00" d=" M 41.23 32.16 L 41.25 31.49 C 41.55 31.78 42.16 32.35 42.46 32.64 C 43.45 34.36 44.27 36.18 44.81 38.09 C 43.89 37.36 42.96 36.62 42.05 35.88 C 42.39 38.18 42.74 40.48 43.11 42.78 C 42.61 43.02 41.63 43.49 41.13 43.72 C 39.93 40.15 40.56 36.41 41.19 32.80 L 41.23 32.16 Z" />
</g>
<g id="#2c8ed7ff">
<path fill="#2c8ed7" opacity="1.00" d=" M 97.45 52.36 C 96.47 45.40 97.75 38.37 97.61 31.38 C 97.86 31.70 98.37 32.35 98.62 32.67 C 99.67 35.02 100.33 37.52 100.90 40.03 C 98.70 39.94 98.27 43.76 100.80 42.32 C 100.20 44.15 99.54 45.97 98.90 47.80 C 98.66 48.48 98.16 49.85 97.92 50.53 C 97.80 50.99 97.57 51.90 97.45 52.36 Z" />
<path fill="#2c8ed7" opacity="1.00" d=" M 209.45 52.36 C 208.47 45.40 209.75 38.37 209.61 31.38 C 209.86 31.70 210.37 32.35 210.62 32.67 C 211.67 35.02 212.33 37.52 212.90 40.03 C 210.70 39.94 210.27 43.76 212.80 42.32 C 212.19 44.15 211.54 45.97 210.90 47.80 C 210.66 48.48 210.16 49.85 209.92 50.53 C 209.80 50.99 209.57 51.90 209.45 52.36 Z" />
</g>
<g id="#288cd6ff">
<path fill="#288cd6" opacity="1.00" d=" M 154.07 56.00 C 151.88 48.02 153.72 39.71 153.82 31.60 C 154.03 31.89 154.46 32.47 154.67 32.76 C 155.68 35.06 156.31 37.50 156.82 39.96 C 155.12 40.26 154.54 42.99 156.61 43.16 C 156.08 44.68 155.57 46.20 155.05 47.72 C 154.78 48.57 154.50 49.42 154.22 50.26 C 153.23 51.48 154.91 53.08 155.92 51.66 C 155.76 53.11 155.57 54.55 155.38 56.00 L 154.07 56.00 Z" />
</g>
<g id="#4574caff">
<path fill="#4574ca" opacity="1.00" d=" M 0.00 37.12 C 3.82 36.74 7.64 36.35 11.45 35.89 C 10.78 39.37 10.35 42.89 10.03 46.42 C 8.71 47.10 7.38 47.78 6.06 48.45 C 6.75 48.89 7.43 49.34 8.12 49.79 C 6.00 49.73 3.88 49.60 1.76 49.47 C 4.13 47.69 6.56 45.99 9.05 44.39 C 8.62 42.98 8.24 41.56 7.92 40.12 C 5.28 40.05 2.64 39.97 -0.00 39.89 L 0.00 37.12 Z" />
</g>
<g id="#a5bbd1ff">
<path fill="#a5bbd1" opacity="1.00" d=" M 42.05 35.88 C 42.96 36.62 43.89 37.36 44.81 38.09 C 44.85 39.40 44.83 40.72 44.75 42.03 C 44.34 42.22 43.52 42.59 43.11 42.78 C 42.74 40.48 42.39 38.18 42.05 35.88 Z" />
</g>
<g id="#4878cbff">
<path fill="#4878cb" opacity="1.00" d=" M 60.19 38.94 C 62.50 37.46 65.01 36.35 67.71 35.80 C 66.53 37.12 65.23 38.30 63.86 39.40 C 64.95 41.37 66.07 43.32 67.13 45.30 C 64.44 43.63 62.12 41.46 60.19 38.94 Z" />
</g>
<g id="#4374c9ff">
<path fill="#4374c9" opacity="1.00" d=" M 171.59 40.70 C 172.79 37.03 176.45 35.55 180.21 35.58 C 178.61 37.73 177.57 40.23 176.53 42.68 C 177.95 43.16 179.34 43.73 180.68 44.40 C 177.12 45.21 174.56 42.04 171.59 40.70 Z" />
</g>
<g id="#3968bfff">
<path fill="#3968bf" opacity="1.00" d=" M -0.00 39.89 C 2.64 39.97 5.28 40.05 7.92 40.12 C 8.24 41.56 8.62 42.98 9.05 44.39 C 6.56 45.99 4.13 47.69 1.76 49.47 C 1.32 49.44 0.44 49.38 0.00 49.36 L 0.00 39.89 M 0.37 44.70 C 3.17 44.59 5.89 43.92 8.55 43.08 C 5.70 42.87 2.81 43.06 0.37 44.70 Z" />
</g>
<g id="#8bb5d9ff">
<path fill="#8bb5d9" opacity="1.00" d=" M 100.90 40.03 C 100.88 40.60 100.83 41.75 100.80 42.32 C 98.27 43.76 98.70 39.94 100.90 40.03 Z" />
<path fill="#8bb5d9" opacity="1.00" d=" M 212.90 40.03 C 212.88 40.60 212.83 41.75 212.80 42.32 C 210.27 43.76 210.70 39.94 212.90 40.03 Z" />
</g>
<g id="#6e9bbbff">
<path fill="#6e9bbb" opacity="1.00" d=" M 156.82 39.96 C 157.16 41.05 157.09 42.12 156.61 43.16 C 154.54 42.99 155.12 40.26 156.82 39.96 Z" />
</g>
<g id="#4179c0fe">
<path fill="#4179c0" opacity="1.00" d=" M 24.63 44.48 C 25.80 43.18 26.91 41.82 27.99 40.44 C 27.44 44.55 25.41 48.12 23.48 51.68 C 22.88 51.80 21.67 52.04 21.06 52.16 C 21.07 49.48 21.04 46.80 20.98 44.12 C 22.20 44.23 23.41 44.35 24.63 44.48 Z" />
</g>
<g id="#2a8ed7ff">
<path fill="#2a8ed7" opacity="1.00" d=" M 43.11 42.78 C 43.52 42.59 44.34 42.22 44.75 42.03 C 44.24 43.99 43.60 45.90 42.92 47.81 C 42.68 48.48 42.20 49.84 41.95 50.52 C 41.84 50.92 41.60 51.71 41.49 52.11 C 40.74 50.79 40.03 49.44 39.27 48.13 C 39.87 46.65 40.48 45.18 41.13 43.72 C 41.63 43.49 42.61 43.02 43.11 42.78 Z" />
</g>
<g id="#4072c6ff">
<path fill="#4072c6" opacity="1.00" d=" M 0.37 44.70 C 2.81 43.06 5.70 42.87 8.55 43.08 C 5.89 43.92 3.17 44.59 0.37 44.70 Z" />
</g>
<g id="#427ccbff">
<path fill="#427ccb" opacity="1.00" d=" M 34.81 44.58 C 35.53 45.59 36.22 46.61 36.91 47.64 C 33.81 48.53 30.82 49.75 27.80 50.87 C 27.94 50.36 28.23 49.35 28.37 48.84 C 30.67 47.66 32.83 46.24 34.81 44.58 Z" />
</g>
<g id="#4c77caff">
<path fill="#4c77ca" opacity="1.00" d=" M 59.66 44.01 C 60.80 44.81 61.91 45.66 62.99 46.55 C 61.80 47.53 60.61 48.53 59.38 49.46 C 58.87 49.54 57.86 49.69 57.35 49.76 C 58.32 47.93 59.04 45.98 59.66 44.01 Z" />
</g>
<g id="#4778d1ff">
<path fill="#4778d1" opacity="1.00" d=" M 113.50 43.48 C 114.86 44.90 116.19 46.35 117.45 47.86 C 116.01 47.93 114.57 47.98 113.13 48.00 C 113.25 46.49 113.39 44.99 113.50 43.48 Z" />
</g>
<g id="#546e9fff">
<path fill="#546e9f" opacity="1.00" d=" M 0.00 49.36 C 0.44 49.38 1.32 49.44 1.76 49.47 C 3.88 49.60 6.00 49.73 8.12 49.79 C 9.17 51.65 10.25 53.49 11.43 55.28 C 8.35 52.21 4.04 51.40 0.00 50.31 L 0.00 49.36 Z" />
</g>
<g id="#33302bff">
<path fill="#33302b" opacity="1.00" d=" M 46.27 51.31 C 47.69 50.78 49.07 50.15 50.46 49.56 C 50.20 50.10 49.67 51.18 49.41 51.72 C 49.24 51.98 48.92 52.52 48.75 52.79 C 47.93 53.76 48.25 55.26 49.24 56.00 L 42.93 56.00 C 43.45 54.57 43.90 53.11 44.32 51.64 L 44.51 50.91 C 44.95 51.01 45.83 51.21 46.27 51.31 Z" />
<path fill="#33302b" opacity="1.00" d=" M 102.27 51.28 C 103.70 50.79 105.06 50.13 106.46 49.56 C 106.20 50.10 105.67 51.18 105.40 51.72 C 105.24 51.98 104.92 52.52 104.75 52.79 C 103.93 53.76 104.24 55.26 105.23 56.00 L 98.98 56.00 C 99.82 54.91 100.11 53.52 100.12 52.17 L 100.17 51.39 C 100.69 51.36 101.74 51.31 102.27 51.28 Z" />
<path fill="#33302b" opacity="1.00" d=" M 158.27 51.34 C 159.70 50.81 161.10 50.17 162.51 49.58 C 162.24 50.11 161.69 51.19 161.42 51.73 C 161.26 51.99 160.95 52.52 160.80 52.78 C 160.01 53.75 160.31 55.17 161.16 56.00 L 155.38 56.00 C 155.57 54.55 155.76 53.11 155.92 51.66 L 155.97 50.82 C 156.54 50.95 157.69 51.21 158.27 51.34 Z" />
<path fill="#33302b" opacity="1.00" d=" M 214.27 51.28 C 215.70 50.78 217.06 50.13 218.46 49.56 C 218.20 50.10 217.67 51.17 217.40 51.71 C 217.24 51.98 216.91 52.52 216.75 52.79 C 215.93 53.76 216.25 55.26 217.24 56.00 L 210.98 56.00 C 211.82 54.91 212.11 53.52 212.12 52.17 L 212.17 51.39 C 212.69 51.36 213.75 51.31 214.27 51.28 Z" />
</g>
<g id="#42689dff">
<path fill="#42689d" opacity="1.00" d=" M 111.67 49.95 C 115.24 49.93 118.82 49.99 122.39 49.89 C 122.76 51.74 123.15 53.59 123.74 55.38 C 120.46 52.54 116.23 51.32 112.09 50.34 L 111.67 49.95 Z" />
</g>
<g id="#6894c6ff">
<path fill="#6894c6" opacity="1.00" d=" M 8.12 49.79 C 10.28 51.18 12.37 52.70 14.43 54.24 C 14.45 54.68 14.49 55.56 14.51 56.00 L 12.32 56.00 L 11.43 55.28 C 10.25 53.49 9.17 51.65 8.12 49.79 Z" />
</g>
<g id="#315a8cff">
<path fill="#315a8c" opacity="1.00" d=" M 56.02 49.99 C 56.36 49.93 57.02 49.82 57.35 49.76 C 57.86 49.69 58.87 49.54 59.38 49.46 C 60.61 49.86 61.83 50.30 63.04 50.77 C 61.48 50.92 58.35 51.23 56.79 51.38 L 55.57 51.41 C 55.68 51.05 55.91 50.34 56.02 49.99 Z" />
</g>
<g id="#2f5b84ff">
<path fill="#2f5b84" opacity="1.00" d=" M 168.00 49.69 C 169.77 49.74 173.32 49.86 175.10 49.92 L 174.60 51.00 C 173.15 51.09 170.25 51.27 168.80 51.36 L 167.49 51.35 C 167.61 50.93 167.87 50.10 168.00 49.69 Z" />
</g>
<g id="#607aafff">
<path fill="#607aaf" opacity="1.00" d=" M 175.10 49.92 C 177.59 51.52 179.44 53.85 181.42 56.00 L 179.86 56.00 C 177.96 54.49 176.17 52.84 174.60 51.00 L 175.10 49.92 Z" />
</g>
<g id="#24393dff">
<path fill="#24393d" opacity="1.00" d=" M 0.00 50.31 C 4.04 51.40 8.35 52.21 11.43 55.28 L 12.32 56.00 L 7.96 56.00 C 5.38 54.21 2.66 52.64 0.00 50.97 L 0.00 50.31 Z" />
</g>
<g id="#3d6bceff">
<path fill="#3d6bce" opacity="1.00" d=" M 14.32 50.60 C 17.42 52.27 20.43 54.12 23.41 56.00 L 14.51 56.00 C 14.49 55.56 14.45 54.68 14.43 54.24 C 14.40 53.03 14.37 51.81 14.32 50.60 Z" />
</g>
<g id="#719d5aff">
<path fill="#719d5a" opacity="1.00" d=" M 49.41 51.72 C 50.66 51.46 51.93 51.25 53.19 51.03 C 53.62 52.13 54.05 53.23 54.48 54.34 C 54.84 53.36 55.21 52.38 55.57 51.41 C 55.55 52.94 55.54 54.47 55.51 56.00 L 51.72 56.00 C 50.85 54.83 49.97 53.63 48.75 52.79 C 48.92 52.52 49.24 51.98 49.41 51.72 Z" />
<path fill="#719d5a" opacity="1.00" d=" M 105.40 51.72 C 106.67 51.46 107.95 51.24 109.23 51.01 C 109.60 52.12 109.96 53.23 110.32 54.34 C 111.13 53.21 111.92 52.08 112.72 50.95 C 112.27 52.63 111.82 54.31 111.39 56.00 L 107.71 56.00 C 106.84 54.83 105.96 53.63 104.75 52.79 C 104.92 52.52 105.24 51.98 105.40 51.72 Z" />
<path fill="#719d5a" opacity="1.00" d=" M 217.40 51.71 C 218.66 51.46 219.93 51.25 221.20 51.03 C 221.62 52.14 222.04 53.24 222.48 54.35 C 223.00 53.39 223.51 52.42 224.00 51.45 L 224.00 56.00 L 219.71 56.00 C 218.85 54.82 217.97 53.62 216.75 52.79 C 216.91 52.52 217.24 51.98 217.40 51.71 Z" />
</g>
<g id="#203b3cff">
<path fill="#203b3c" opacity="1.00" d=" M 56.79 51.38 C 58.35 51.23 61.48 50.92 63.04 50.77 C 64.56 52.59 66.15 54.36 67.87 56.00 L 64.36 56.00 C 63.70 55.29 62.38 53.88 61.72 53.17 C 60.16 52.38 58.47 51.86 56.79 51.38 Z" />
</g>
<g id="#6286a8ff">
<path fill="#6286a8" opacity="1.00" d=" M 63.04 50.77 C 65.62 51.92 67.54 54.03 69.49 56.00 L 67.87 56.00 C 66.15 54.36 64.56 52.59 63.04 50.77 Z" />
</g>
<g id="#244048ff">
<path fill="#244048" opacity="1.00" d=" M 112.09 50.34 C 116.23 51.32 120.46 52.54 123.74 55.38 L 124.60 56.00 L 119.17 56.00 C 118.45 55.07 117.73 54.14 117.02 53.21 C 115.57 52.49 114.11 51.77 112.72 50.95 L 112.09 50.34 Z" />
</g>
<g id="#719f64ff">
<path fill="#719f64" opacity="1.00" d=" M 161.42 51.73 C 162.67 51.48 163.93 51.24 165.20 51.02 C 165.60 52.10 166.02 53.19 166.43 54.27 C 166.79 53.30 167.14 52.32 167.49 51.35 L 168.80 51.36 C 171.86 51.91 174.16 54.00 176.37 56.00 L 173.88 56.00 C 173.02 55.17 172.17 54.33 171.33 53.49 C 170.20 54.32 169.09 55.17 167.97 56.00 L 163.44 56.00 C 162.98 54.64 162.01 53.52 160.80 52.78 C 160.95 52.52 161.26 51.99 161.42 51.73 Z" />
</g>
<g id="#203b43ff">
<path fill="#203b43" opacity="1.00" d=" M 168.80 51.36 C 170.25 51.27 173.15 51.09 174.60 51.00 C 176.17 52.84 177.96 54.49 179.86 56.00 L 176.37 56.00 C 174.16 54.00 171.86 51.91 168.80 51.36 Z" />
</g>
<g id="#7c9c74ff">
<path fill="#7c9c74" opacity="1.00" d=" M 0.00 50.97 C 2.66 52.64 5.38 54.21 7.96 56.00 L 6.56 56.00 C 4.39 54.86 2.22 53.71 0.00 52.67 L 0.00 50.97 Z" />
</g>
<g id="#268ed9ff">
<path fill="#268ed9" opacity="1.00" d=" M 41.86 52.76 C 42.48 52.48 43.71 51.92 44.32 51.64 C 43.90 53.11 43.45 54.57 42.93 56.00 L 40.89 56.00 C 41.21 54.92 41.53 53.83 41.86 52.76 Z" />
<path fill="#268ed9" opacity="1.00" d=" M 97.61 53.15 C 98.24 52.90 99.49 52.41 100.12 52.17 C 100.11 53.52 99.82 54.91 98.98 56.00 L 98.39 56.00 C 98.19 55.29 97.80 53.86 97.61 53.15 Z" />
<path fill="#268ed9" opacity="1.00" d=" M 209.61 53.15 C 210.24 52.90 211.49 52.41 212.12 52.17 C 212.11 53.52 211.82 54.91 210.98 56.00 L 210.39 56.00 C 210.19 55.29 209.80 53.86 209.61 53.15 Z" />
</g>
<g id="#709d86ff">
<path fill="#709d86" opacity="1.00" d=" M 55.57 51.41 L 56.79 51.38 C 58.47 51.86 60.16 52.38 61.72 53.17 C 59.41 53.43 57.28 54.37 55.60 56.00 L 55.51 56.00 C 55.54 54.47 55.55 52.94 55.57 51.41 Z" />
</g>
<g id="#6e9b86ff">
<path fill="#6e9b86" opacity="1.00" d=" M 112.72 50.95 C 114.11 51.77 115.57 52.49 117.02 53.21 C 116.05 53.34 115.09 53.47 114.13 53.60 C 113.44 54.40 112.74 55.20 112.05 56.00 L 111.39 56.00 C 111.82 54.31 112.27 52.63 112.72 50.95 Z" />
</g>
<g id="#759d51ff">
<path fill="#759d51" opacity="1.00" d=" M 0.00 52.67 C 2.22 53.71 4.39 54.86 6.56 56.00 L 0.00 56.00 L 0.00 52.67 Z" />
</g>
<g id="#416845ff">
<path fill="#416845" opacity="1.00" d=" M 49.24 56.00 C 48.25 55.26 47.93 53.76 48.75 52.79 C 49.97 53.63 50.85 54.83 51.72 56.00 L 49.24 56.00 Z" />
<path fill="#416845" opacity="1.00" d=" M 105.23 56.00 C 104.24 55.26 103.93 53.76 104.75 52.79 C 105.96 53.63 106.84 54.83 107.71 56.00 L 105.23 56.00 Z" />
<path fill="#416845" opacity="1.00" d=" M 161.16 56.00 C 160.31 55.17 160.01 53.75 160.80 52.78 C 162.01 53.52 162.98 54.64 163.44 56.00 L 161.16 56.00 Z" />
<path fill="#416845" opacity="1.00" d=" M 217.24 56.00 C 216.25 55.26 215.93 53.76 216.75 52.79 C 217.97 53.62 218.85 54.82 219.71 56.00 L 217.24 56.00 Z" />
</g>
<g id="#6e9b56fe">
<path fill="#6e9b56" opacity="1.00" d=" M 55.60 56.00 C 57.28 54.37 59.41 53.43 61.72 53.17 C 62.38 53.88 63.70 55.29 64.36 56.00 L 55.60 56.00 Z" />
</g>
<g id="#76a062ff">
<path fill="#76a062" opacity="1.00" d=" M 112.05 56.00 C 112.74 55.20 113.44 54.40 114.13 53.60 C 115.09 53.47 116.05 53.34 117.02 53.21 C 117.73 54.14 118.45 55.07 119.17 56.00 L 112.05 56.00 Z" />
</g>
<g id="#669946ff">
<path fill="#669946" opacity="1.00" d=" M 167.97 56.00 C 169.09 55.17 170.20 54.32 171.33 53.49 C 172.17 54.33 173.02 55.17 173.88 56.00 L 167.97 56.00 Z" />
</g>
</svg>
