<?xml version="1.0" encoding="UTF-8" ?>
<!DOCTYPE svg PUBLIC "-//W3C//DTD SVG 1.1//EN" "http://www.w3.org/Graphics/SVG/1.1/DTD/svg11.dtd">
<svg width="224pt" height="56pt" viewBox="0 0 224 56" version="1.1" xmlns="http://www.w3.org/2000/svg">
<g id="#81ab59fe">
<path fill="#81ab59" opacity="1.00" d=" M 0.00 0.00 L 10.25 0.00 C 10.11 0.55 9.83 1.65 9.69 2.20 C 7.73 2.72 5.79 3.31 3.86 3.92 C 3.30 5.30 2.75 6.68 2.22 8.07 C 1.84 8.06 1.07 8.03 0.69 8.02 C 2.09 6.93 1.35 4.99 0.00 4.28 L 0.00 0.00 Z" />
<path fill="#81ab59" opacity="1.00" d=" M 55.56 0.00 L 66.30 0.00 C 66.13 0.48 65.79 1.43 65.62 1.90 C 62.17 2.73 59.17 4.71 57.79 8.08 C 57.50 8.08 56.91 8.07 56.61 8.07 C 57.57 6.96 57.21 5.43 56.65 4.24 L 56.45 3.44 C 56.23 2.58 55.78 0.86 55.56 0.00 Z" />
<path fill="#81ab59" opacity="1.00" d=" M 111.53 0.00 L 122.30 0.00 C 122.13 0.47 121.79 1.42 121.62 1.90 C 118.17 2.73 115.17 4.72 113.78 8.10 C 113.46 8.09 112.83 8.08 112.51 8.08 C 113.53 7.02 113.19 5.48 112.64 4.29 L 112.44 3.51 C 112.21 2.63 111.76 0.88 111.53 0.00 Z" />
<path fill="#81ab59" opacity="1.00" d=" M 167.84 0.00 L 178.30 0.00 C 178.13 0.48 177.79 1.43 177.62 1.91 C 174.17 2.73 171.15 4.71 169.78 8.10 C 169.49 8.10 168.92 8.10 168.63 8.10 C 169.55 6.96 169.13 5.44 168.49 4.29 L 168.35 3.41 C 168.22 2.56 167.97 0.85 167.84 0.00 Z" />
</g>
<g id="#342f2aff">
<path fill="#342f2a" opacity="1.00" d=" M 10.25 0.00 L 13.05 0.00 C 13.04 0.56 13.01 1.69 12.99 2.25 C 12.00 5.72 10.88 9.24 11.74 12.85 C 12.53 10.56 13.20 8.20 13.34 5.77 C 14.46 10.15 13.17 14.42 12.03 18.59 L 11.92 19.01 C 11.58 19.25 10.90 19.73 10.57 19.97 C 10.34 16.27 9.68 12.62 9.01 8.98 C 8.32 9.10 6.95 9.33 6.26 9.45 C 6.87 13.59 7.48 17.73 8.10 21.87 C 7.63 22.26 6.68 23.03 6.20 23.42 C 5.75 22.87 4.86 21.76 4.41 21.20 C 5.03 20.01 4.94 18.50 4.17 17.40 C 3.76 17.77 2.95 18.50 2.54 18.86 C 2.17 19.20 1.44 19.88 1.07 20.22 C 0.80 20.47 0.27 20.98 0.00 21.23 L 0.00 7.97 L 0.69 8.02 C 1.07 8.03 1.84 8.06 2.22 8.07 C 4.47 8.20 6.72 8.13 8.97 7.94 C 9.33 6.05 9.49 4.12 9.69 2.20 C 9.83 1.65 10.11 0.55 10.25 0.00 M 3.84 11.52 C 4.51 14.31 5.91 16.82 7.10 19.41 C 7.37 16.24 5.62 13.79 3.84 11.52 Z" />
<path fill="#342f2a" opacity="1.00" d=" M 66.30 0.00 L 69.03 0.00 C 69.02 0.56 68.98 1.69 68.96 2.25 C 68.01 5.73 66.87 9.25 67.75 12.85 C 68.51 10.54 69.19 8.19 69.38 5.75 C 70.62 9.72 69.49 13.62 67.91 17.23 L 67.75 17.64 C 67.34 18.59 66.94 19.55 66.55 20.51 C 66.60 16.60 65.79 12.77 64.96 8.98 C 64.25 9.11 62.83 9.36 62.11 9.49 C 62.82 13.27 63.56 17.04 64.44 20.79 C 63.75 21.10 62.36 21.73 61.67 22.04 C 61.50 21.47 61.15 20.34 60.98 19.78 C 61.13 17.59 58.10 16.51 58.84 19.42 L 58.19 19.08 C 57.39 18.50 56.60 17.92 55.82 17.32 C 55.86 16.35 55.92 14.41 55.96 13.45 C 55.97 12.79 56.01 11.49 56.02 10.84 C 56.00 10.15 55.96 8.75 55.94 8.06 L 56.61 8.07 C 56.91 8.07 57.50 8.08 57.79 8.08 C 60.18 8.13 62.57 8.11 64.96 7.94 C 65.38 5.95 65.51 3.93 65.62 1.90 C 65.79 1.43 66.13 0.48 66.30 0.00 M 59.84 11.52 C 60.51 14.31 61.91 16.82 63.10 19.41 C 63.36 16.24 61.62 13.79 59.84 11.52 Z" />
<path fill="#342f2a" opacity="1.00" d=" M 178.30 0.00 L 181.04 0.00 C 181.02 0.56 180.98 1.69 180.96 2.25 C 180.00 5.73 178.87 9.25 179.75 12.85 C 180.51 10.54 181.19 8.19 181.38 5.75 C 182.62 9.72 181.48 13.61 179.93 17.22 L 179.77 17.63 C 179.38 18.54 179.00 19.46 178.64 20.39 C 178.54 16.53 177.77 12.74 176.97 8.98 C 176.25 9.10 174.82 9.36 174.11 9.49 C 174.79 13.25 175.60 16.98 176.48 20.70 C 175.81 21.03 174.48 21.67 173.81 22.00 C 173.60 21.42 173.19 20.27 172.98 19.69 C 173.19 17.52 170.00 16.53 170.78 19.36 L 170.02 19.22 C 169.55 19.19 168.62 19.13 168.16 19.11 C 168.14 17.19 168.12 13.36 168.11 11.44 C 168.09 10.83 168.05 9.61 168.03 9.00 L 167.96 8.10 L 168.63 8.10 C 168.92 8.10 169.49 8.10 169.78 8.10 C 172.17 8.13 174.57 8.07 176.96 7.96 C 177.38 5.97 177.50 3.94 177.62 1.91 C 177.79 1.43 178.13 0.48 178.30 0.00 M 171.84 11.52 C 172.51 14.31 173.91 16.82 175.10 19.41 C 175.35 16.24 173.62 13.79 171.84 11.52 Z" />
</g>
<g id="#268dd9ff">
<path fill="#268dd9" opacity="1.00" d=" M 13.05 0.00 L 16.13 0.00 L 15.38 0.77 C 13.52 1.79 13.90 4.47 16.16 4.51 C 16.64 8.20 17.13 11.88 17.64 15.56 C 16.87 15.05 16.10 14.56 15.32 14.07 C 15.27 14.10 15.15 14.17 15.10 14.20 C 13.24 14.89 12.45 16.80 12.03 18.59 C 13.17 14.42 14.46 10.15 13.34 5.77 C 13.25 4.60 13.13 3.42 12.99 2.25 C 13.01 1.69 13.04 0.56 13.05 0.00 Z" />
<path fill="#268dd9" opacity="1.00" d=" M 69.03 0.00 L 70.27 0.00 C 70.51 0.36 70.98 1.09 71.22 1.45 C 70.22 2.62 70.21 5.02 72.22 4.96 C 72.10 8.13 71.77 11.30 71.46 14.46 C 70.02 15.01 68.98 16.18 67.91 17.23 C 69.49 13.62 70.62 9.72 69.38 5.75 C 69.26 4.58 69.12 3.42 68.96 2.25 C 68.98 1.69 69.02 0.56 69.03 0.00 Z" />
<path fill="#268dd9" opacity="1.00" d=" M 181.04 0.00 L 182.29 0.00 C 182.52 0.37 182.98 1.10 183.21 1.46 C 182.25 2.63 182.26 5.05 184.25 4.94 C 183.98 8.11 183.62 11.27 183.48 14.44 C 182.10 15.08 180.98 16.15 179.93 17.22 C 181.48 13.61 182.62 9.72 181.38 5.75 C 181.26 4.58 181.12 3.42 180.96 2.25 C 180.98 1.69 181.02 0.56 181.04 0.00 Z" />
</g>
<g id="#3c6bbeff">
<path fill="#3c6bbe" opacity="1.00" d=" M 16.13 0.00 L 25.75 0.00 C 26.68 1.14 27.56 2.31 28.43 3.49 C 24.35 4.67 19.91 4.68 16.09 2.66 C 15.91 2.19 15.56 1.25 15.38 0.77 L 16.13 0.00 Z" />
<path fill="#3c6bbe" opacity="1.00" d=" M 30.51 0.00 L 55.56 0.00 C 55.78 0.86 56.23 2.58 56.45 3.44 C 47.64 5.57 38.73 3.30 30.51 0.00 Z" />
<path fill="#3c6bbe" opacity="1.00" d=" M 70.27 0.00 L 85.22 0.00 C 81.99 3.75 77.15 3.42 72.70 3.30 C 75.13 4.24 77.50 5.45 80.08 5.92 C 83.72 4.13 86.52 0.48 91.07 0.92 C 95.04 1.45 97.60 5.54 101.68 5.79 C 105.00 6.11 108.34 5.92 111.67 6.05 C 111.71 6.55 111.79 7.55 111.83 8.06 C 111.87 8.44 111.96 9.22 112.00 9.61 C 108.51 9.76 104.91 9.41 101.53 10.37 C 99.37 11.72 97.81 13.80 96.04 15.60 C 101.39 14.35 106.68 12.67 112.19 12.33 C 112.31 14.32 112.47 16.31 112.68 18.30 C 112.53 20.22 114.07 21.54 115.67 22.26 C 114.61 22.82 113.55 23.40 112.51 24.00 C 114.95 24.34 117.42 24.40 119.82 25.00 C 119.52 24.14 118.92 22.44 118.62 21.58 C 120.56 21.23 122.50 20.84 124.44 20.46 C 124.46 21.23 124.48 22.78 124.49 23.56 C 128.23 16.22 129.58 7.71 126.20 0.00 L 138.25 0.00 C 137.71 0.55 136.64 1.66 136.11 2.22 C 133.63 2.26 131.15 2.08 128.67 2.23 C 131.31 3.28 133.89 4.70 136.72 5.16 C 138.41 3.63 139.73 1.75 141.17 0.00 L 151.67 0.00 C 152.71 1.83 153.77 3.71 155.41 5.07 C 159.42 5.94 163.56 6.08 167.65 6.11 C 167.73 6.60 167.88 7.60 167.96 8.10 L 168.03 9.00 C 162.62 9.61 156.10 8.59 152.58 13.79 C 157.74 12.94 162.88 11.89 168.11 11.44 C 168.12 13.36 168.14 17.19 168.16 19.11 C 168.36 19.65 168.78 20.73 168.98 21.26 C 169.79 22.04 170.71 22.63 171.76 23.05 C 170.75 23.53 169.76 24.03 168.77 24.54 C 170.65 25.24 172.53 25.93 174.40 26.64 C 174.65 25.80 174.90 24.96 175.11 24.11 C 174.88 23.85 174.43 23.32 174.21 23.06 C 175.84 23.04 177.36 22.38 178.78 21.62 C 179.93 22.63 181.17 23.54 182.42 24.43 C 183.00 21.91 183.48 19.36 183.45 16.76 C 183.45 16.18 183.47 15.02 183.48 14.44 C 183.62 11.27 183.98 8.11 184.25 4.94 C 184.42 3.65 184.07 2.49 183.21 1.46 C 182.98 1.10 182.52 0.37 182.29 0.00 L 197.22 0.00 C 193.99 3.75 189.15 3.42 184.70 3.30 C 187.13 4.24 189.50 5.45 192.08 5.92 C 195.92 3.98 199.03 0.03 203.92 1.00 C 206.83 2.06 209.10 4.36 211.99 5.46 C 215.95 6.13 220.02 5.87 224.00 6.47 L 224.00 9.43 C 220.51 9.65 216.90 9.45 213.51 10.36 C 211.35 11.66 209.82 13.73 208.09 15.50 C 213.61 15.29 218.44 11.79 224.00 12.00 L 224.00 27.55 C 219.30 27.87 214.22 27.47 212.20 22.64 C 214.78 20.92 217.61 19.63 220.31 18.11 C 216.86 18.81 213.39 19.43 209.97 20.30 C 211.63 25.31 218.35 29.28 215.40 34.91 C 213.22 34.08 211.09 33.13 208.95 32.21 C 208.74 33.09 208.53 33.98 208.33 34.87 C 212.93 37.03 217.88 38.24 222.83 39.28 C 221.14 37.24 217.01 35.77 218.28 32.54 C 219.93 30.76 222.05 29.53 224.00 28.10 L 224.00 45.10 C 215.53 44.95 207.02 42.36 198.59 44.21 C 201.89 45.15 205.23 45.96 208.59 46.67 C 213.68 48.06 218.92 46.15 224.00 45.80 L 224.00 50.53 C 221.00 51.16 218.05 51.90 215.01 52.19 C 214.69 52.07 214.05 51.84 213.73 51.72 C 212.28 53.14 210.86 54.59 209.40 56.00 L 205.23 56.00 C 200.41 53.95 195.75 51.51 191.28 48.78 C 195.82 43.47 198.82 35.92 206.38 34.15 C 205.17 31.30 203.49 28.71 201.92 26.06 C 202.27 28.13 202.61 30.19 202.94 32.27 C 200.20 33.50 197.52 35.21 194.46 35.37 C 191.41 34.84 188.72 33.01 185.90 31.85 C 187.96 26.48 193.56 26.08 198.64 26.37 C 198.16 25.03 197.67 23.69 197.19 22.34 C 199.06 20.58 201.02 18.90 202.99 17.22 C 198.68 18.07 194.27 17.98 190.00 16.97 C 192.97 18.38 195.46 20.53 196.90 23.53 C 193.30 24.83 189.65 26.00 186.05 27.28 C 185.55 29.43 185.27 31.65 184.52 33.73 C 180.97 36.27 176.34 36.62 172.30 38.14 C 174.43 42.02 177.43 45.39 181.68 46.97 C 179.47 44.58 177.28 42.19 175.29 39.62 C 181.18 36.27 188.06 34.55 194.69 36.95 C 193.53 41.49 191.11 45.64 187.41 48.57 C 187.95 48.80 189.03 49.25 189.57 49.48 C 187.82 51.29 185.95 52.98 184.08 54.68 C 187.52 53.43 191.17 50.00 194.94 52.00 C 196.56 52.68 198.06 53.60 199.54 54.53 C 198.18 55.05 196.81 55.54 195.44 56.00 L 168.60 56.00 C 168.24 54.45 167.86 52.91 167.47 51.37 L 167.18 50.35 C 164.10 51.37 160.97 52.18 157.88 53.12 C 156.23 53.41 154.61 54.27 154.14 56.00 L 150.20 56.00 C 145.17 51.63 138.81 49.39 133.51 45.44 C 132.72 46.11 131.89 46.71 131.04 47.29 C 131.71 47.58 133.05 48.17 133.71 48.46 C 131.87 50.22 129.98 51.91 128.06 53.58 C 133.52 50.58 140.15 49.63 145.61 53.14 C 143.60 53.40 139.59 53.93 137.58 54.19 C 138.10 54.64 139.14 55.55 139.66 56.00 L 112.65 56.00 C 112.24 54.48 111.84 52.97 111.44 51.45 L 111.28 50.81 C 108.50 51.18 105.78 51.72 103.01 52.12 C 102.69 52.02 102.04 51.80 101.71 51.70 C 100.27 53.12 98.86 54.57 97.42 56.00 L 93.23 56.00 C 88.41 53.95 83.75 51.51 79.28 48.78 C 83.83 43.45 86.86 35.86 94.47 34.13 C 93.03 31.38 91.52 28.67 89.60 26.22 C 90.02 28.29 90.51 30.34 91.03 32.38 C 85.67 35.66 79.25 34.65 73.80 31.96 C 75.92 26.59 81.49 25.99 86.64 26.37 C 86.16 25.03 85.67 23.69 85.19 22.34 C 87.06 20.58 89.02 18.90 90.99 17.22 C 86.68 18.07 82.27 17.98 78.00 16.98 C 80.97 18.38 83.46 20.53 84.90 23.53 C 81.30 24.83 77.65 26.00 74.05 27.28 C 73.56 29.43 73.28 31.65 72.52 33.73 C 68.97 36.27 64.34 36.62 60.30 38.14 C 62.43 42.02 65.43 45.39 69.68 46.97 C 67.47 44.58 65.28 42.19 63.29 39.62 C 69.18 36.27 76.06 34.55 82.69 36.95 C 81.53 41.49 79.11 45.64 75.41 48.57 C 75.95 48.80 77.03 49.25 77.57 49.48 C 75.82 51.29 73.95 52.98 72.08 54.68 C 75.52 53.43 79.18 50.00 82.94 52.00 C 84.56 52.68 86.06 53.60 87.54 54.53 C 86.18 55.05 84.82 55.54 83.44 56.00 L 56.60 56.00 C 56.24 54.45 55.87 52.91 55.48 51.37 L 55.17 50.29 C 51.83 50.71 48.57 51.88 46.01 54.09 C 46.51 52.99 46.99 51.89 47.44 50.78 L 46.36 50.98 C 45.16 51.20 43.95 51.40 42.74 51.57 C 42.52 52.23 42.10 53.54 41.89 54.19 C 41.72 54.64 41.40 55.55 41.23 56.00 L 32.77 56.00 C 30.16 53.67 26.71 52.02 24.63 49.23 C 29.27 44.75 30.28 35.48 38.38 35.70 C 36.52 32.89 34.73 30.04 32.85 27.24 C 33.25 29.26 33.64 31.28 34.01 33.31 C 31.28 34.33 28.51 36.63 25.46 35.51 C 23.22 34.84 21.13 33.76 19.03 32.74 C 20.76 28.13 25.37 27.18 29.77 27.18 C 29.07 25.95 28.37 24.73 27.70 23.49 C 31.58 20.43 36.52 20.05 41.25 20.53 C 39.14 19.46 37.04 18.04 34.63 17.80 C 30.40 18.10 26.32 19.56 22.05 19.44 C 23.63 20.36 25.21 21.29 26.77 22.23 C 26.88 22.99 27.10 24.51 27.21 25.27 C 23.75 26.59 20.13 27.51 16.40 27.56 C 17.62 29.30 18.58 31.19 19.48 33.11 C 13.41 36.04 6.68 37.25 0.00 37.80 L 0.00 30.96 C 3.10 29.99 6.15 28.88 9.18 27.72 C 8.28 27.48 7.39 27.24 6.49 27.01 C 6.59 25.90 6.72 24.78 6.85 23.67 C 8.32 23.25 9.74 22.71 11.18 22.20 L 11.58 22.63 L 12.04 23.09 C 13.08 24.03 14.18 24.90 15.24 25.80 C 15.37 22.72 15.28 19.63 15.11 16.55 C 15.10 15.96 15.10 14.79 15.10 14.20 C 15.15 14.17 15.27 14.10 15.32 14.07 C 16.10 14.56 16.87 15.05 17.64 15.56 C 17.13 11.88 16.64 8.20 16.16 4.51 C 18.59 5.48 21.09 6.48 23.72 6.66 C 27.99 5.87 31.58 1.18 36.25 4.06 C 42.39 7.18 49.07 7.22 55.71 6.07 C 55.76 6.56 55.88 7.56 55.94 8.06 C 55.96 8.75 56.00 10.15 56.02 10.84 C 52.23 10.61 48.44 10.45 44.64 10.42 C 43.92 13.05 42.27 15.20 40.15 16.87 C 45.41 15.68 50.58 14.03 55.96 13.45 C 55.92 14.41 55.86 16.35 55.82 17.32 C 51.19 18.59 46.58 19.96 41.99 21.34 C 43.62 26.34 50.38 30.29 47.39 35.91 C 45.22 35.08 43.09 34.13 40.95 33.21 C 40.74 34.10 40.54 34.98 40.33 35.87 C 44.93 38.02 49.88 39.24 54.83 40.28 C 52.91 38.21 49.23 36.67 50.02 33.26 C 52.71 30.57 56.56 29.71 60.09 28.63 C 60.32 28.00 60.54 27.36 60.77 26.73 C 56.81 27.25 52.85 28.22 48.85 28.10 C 46.03 28.12 43.30 24.07 46.17 22.21 C 50.16 18.90 55.48 21.57 59.69 23.10 C 58.68 23.71 57.69 24.35 56.70 24.99 C 59.24 25.13 61.79 25.23 64.33 25.22 C 63.76 24.70 62.62 23.65 62.04 23.12 C 63.69 23.15 65.25 22.55 66.69 21.79 C 68.33 22.32 70.00 22.83 71.50 23.71 C 71.63 21.42 71.47 19.12 71.28 16.84 C 71.32 16.24 71.41 15.05 71.46 14.46 C 71.77 11.30 72.10 8.13 72.22 4.96 C 72.37 3.66 72.04 2.49 71.22 1.45 C 70.98 1.09 70.51 0.36 70.27 0.00 M 138.69 9.44 C 141.09 10.61 143.56 11.63 145.99 12.75 C 145.34 14.05 144.70 15.35 144.09 16.67 C 147.10 16.53 150.13 16.52 153.14 16.75 C 149.00 15.67 146.26 12.72 144.74 8.82 C 142.72 8.98 140.70 9.16 138.69 9.44 M 154.23 19.01 C 155.13 22.05 156.17 25.19 158.85 27.19 C 162.15 28.65 160.04 31.52 159.11 33.67 C 156.43 32.53 153.57 31.65 150.66 32.47 C 149.77 29.77 148.93 26.93 146.49 25.20 C 147.07 27.16 147.67 29.12 148.13 31.12 C 142.72 35.00 135.55 34.18 130.00 31.01 C 129.98 30.23 129.94 28.66 129.91 27.88 C 134.22 24.61 139.65 25.56 144.69 25.23 C 139.88 22.13 134.26 23.57 129.63 26.18 C 128.59 28.74 127.45 31.27 126.75 33.95 C 130.57 34.71 134.27 35.99 138.19 36.31 C 139.35 39.93 137.62 43.28 136.13 46.51 C 140.52 45.39 141.34 41.14 142.53 37.45 C 145.31 34.28 150.32 33.02 154.24 35.06 C 158.47 36.21 162.73 37.24 167.03 38.14 C 164.87 36.36 160.83 34.86 162.17 31.32 C 164.41 27.61 168.95 28.20 172.46 29.35 C 172.26 28.80 171.87 27.69 171.68 27.13 C 166.67 26.54 161.31 26.95 156.87 24.16 C 156.90 23.36 156.95 21.77 156.98 20.97 C 159.40 19.80 161.82 18.63 164.25 17.47 C 160.89 17.87 157.55 18.39 154.23 19.01 M 98.23 20.01 C 99.13 23.05 100.17 26.20 102.85 28.19 C 106.24 29.71 103.93 32.71 103.00 34.92 C 101.01 34.02 99.04 33.06 97.07 32.12 C 96.79 33.00 96.52 33.88 96.25 34.77 C 100.81 37.27 105.97 38.17 111.02 39.08 C 108.43 37.56 105.93 35.57 105.56 32.37 C 108.31 30.51 111.28 28.98 114.12 27.26 C 109.58 27.39 104.76 28.02 100.88 25.13 C 100.91 24.34 100.95 22.76 100.98 21.97 C 103.40 20.81 105.82 19.63 108.25 18.47 C 104.89 18.87 101.55 19.39 98.23 20.01 M 122.14 22.11 C 120.82 22.80 120.81 23.47 122.11 24.14 C 123.43 23.46 123.44 22.78 122.14 22.11 M 66.14 23.11 C 64.82 23.80 64.81 24.47 66.11 25.14 C 67.43 24.46 67.44 23.78 66.14 23.11 M 178.14 23.11 C 176.82 23.80 176.81 24.47 178.11 25.14 C 179.43 24.46 179.44 23.78 178.14 23.11 M 10.14 24.11 C 8.82 24.80 8.81 25.47 10.11 26.14 C 11.43 25.46 11.44 24.78 10.14 24.11 M 114.58 36.77 C 114.46 37.23 114.35 37.68 114.24 38.14 C 115.46 38.97 116.68 39.80 117.92 40.61 C 121.75 38.73 125.63 36.96 129.45 35.06 C 124.52 35.84 119.61 38.01 114.58 36.77 M 103.27 38.52 C 102.55 40.51 101.65 42.43 100.75 44.34 C 95.96 44.64 91.13 41.88 86.58 44.62 C 91.09 45.07 95.45 46.17 99.75 47.52 C 103.63 46.82 107.49 45.77 111.49 46.07 C 112.59 47.28 113.66 48.53 114.78 49.74 C 115.40 48.22 116.08 46.72 116.76 45.22 C 112.26 45.41 107.79 44.76 103.33 44.27 C 103.40 42.36 103.31 40.44 103.27 38.52 M 154.19 44.36 C 152.12 44.76 150.41 43.18 148.62 42.44 C 148.44 43.17 148.26 43.90 148.08 44.63 C 152.36 46.55 157.04 47.98 161.29 45.13 C 161.08 43.12 160.86 41.12 160.58 39.12 C 158.77 41.17 157.19 44.04 154.19 44.36 M 34.91 42.77 C 33.55 43.73 32.21 44.72 30.90 45.75 C 35.54 44.91 40.51 45.49 43.75 49.24 C 44.59 48.31 45.43 47.40 46.27 46.48 C 49.67 46.60 53.04 46.83 56.44 46.87 C 53.04 45.73 49.48 45.17 46.01 44.28 C 46.29 42.87 46.60 41.46 46.96 40.06 C 44.17 43.91 39.00 45.74 34.91 42.77 M 163.91 44.24 C 163.65 45.97 167.35 45.97 167.09 44.24 C 166.41 43.22 164.58 43.22 163.91 44.24 M 113.53 51.51 C 116.81 52.03 120.10 52.58 123.41 52.90 C 120.44 50.70 116.93 49.38 113.53 51.51 Z" />
<path fill="#3c6bbe" opacity="1.00" d=" M 154.73 0.00 L 167.84 0.00 C 167.97 0.85 168.22 2.56 168.35 3.41 C 165.08 3.61 161.79 3.88 158.51 3.97 C 157.31 2.59 156.06 1.25 154.73 0.00 Z" />
<path fill="#3c6bbe" opacity="1.00" d=" M 9.08 40.20 C 13.90 33.97 22.63 36.27 28.08 40.30 C 25.95 42.57 23.41 44.38 20.78 46.01 C 21.08 47.52 21.35 49.04 21.60 50.57 C 19.70 52.42 17.77 54.25 15.78 56.00 L 0.00 56.00 L 0.00 38.43 C 2.83 39.15 6.64 38.81 8.21 41.82 C 9.99 44.67 12.68 46.70 15.78 47.93 C 13.30 45.59 10.64 43.30 9.08 40.20 M 2.75 47.81 C 3.19 49.95 3.23 52.13 2.80 54.27 C 5.57 54.51 8.35 54.79 11.13 54.98 C 9.04 53.55 6.87 52.23 4.84 50.72 C 5.78 49.29 6.75 47.88 7.89 46.60 C 6.18 47.00 4.46 47.39 2.75 47.81 Z" />
<path fill="#3c6bbe" opacity="1.00" d=" M 16.76 56.00 C 19.76 54.37 22.63 51.88 26.36 52.53 C 28.25 53.42 29.84 54.81 31.53 56.00 L 16.76 56.00 Z" />
</g>
<g id="#407accff">
<path fill="#407acc" opacity="1.00" d=" M 25.75 0.00 L 30.51 0.00 C 38.73 3.30 47.64 5.57 56.45 3.44 L 56.65 4.24 C 56.41 4.69 55.94 5.61 55.71 6.07 C 49.07 7.22 42.39 7.18 36.25 4.06 C 31.58 1.18 27.99 5.87 23.72 6.66 C 21.09 6.48 18.59 5.48 16.16 4.51 C 16.14 4.05 16.11 3.12 16.09 2.66 C 19.91 4.68 24.35 4.67 28.43 3.49 C 27.56 2.31 26.68 1.14 25.75 0.00 Z" />
</g>
<g id="#4179cbff">
<path fill="#4179cb" opacity="1.00" d=" M 85.22 0.00 L 94.01 0.00 C 99.36 4.01 106.07 3.57 112.44 3.51 L 112.64 4.29 C 112.40 4.73 111.92 5.61 111.67 6.05 C 108.34 5.92 105.00 6.11 101.68 5.79 C 97.60 5.54 95.04 1.45 91.07 0.92 C 86.52 0.48 83.72 4.13 80.08 5.92 C 77.50 5.45 75.13 4.24 72.70 3.30 C 77.15 3.42 81.99 3.75 85.22 0.00 Z" />
<path fill="#4179cb" opacity="1.00" d=" M 197.22 0.00 L 206.02 0.00 C 211.24 3.92 217.77 3.57 224.00 3.58 L 224.00 6.47 C 220.02 5.87 215.95 6.13 211.99 5.46 C 209.10 4.36 206.83 2.06 203.92 1.00 C 199.03 0.03 195.92 3.98 192.08 5.92 C 189.50 5.45 187.13 4.24 184.70 3.30 C 189.15 3.42 193.99 3.75 197.22 0.00 Z" />
<path fill="#4179cb" opacity="1.00" d=" M 131.04 47.29 C 131.89 46.71 132.72 46.11 133.51 45.44 C 138.81 49.39 145.17 51.63 150.20 56.00 L 139.66 56.00 C 139.14 55.55 138.10 54.64 137.58 54.19 C 139.59 53.93 143.60 53.40 145.61 53.14 C 140.15 49.63 133.52 50.58 128.06 53.58 C 129.98 51.91 131.87 50.22 133.71 48.46 C 133.05 48.17 131.71 47.58 131.04 47.29 Z" />
</g>
<g id="#3c6abefe">
<path fill="#3c6abe" opacity="1.00" d=" M 94.01 0.00 L 111.53 0.00 C 111.76 0.88 112.21 2.63 112.44 3.51 C 106.07 3.57 99.36 4.01 94.01 0.00 Z" />
<path fill="#3c6abe" opacity="1.00" d=" M 206.02 0.00 L 224.00 0.00 L 224.00 3.58 C 217.77 3.57 211.24 3.92 206.02 0.00 Z" />
</g>
<g id="#332e2aff">
<path fill="#332e2a" opacity="1.00" d=" M 122.30 0.00 L 124.94 0.00 C 124.91 0.56 124.86 1.68 124.84 2.24 C 123.96 5.72 122.95 9.24 123.72 12.83 C 124.53 10.54 125.23 8.18 125.42 5.74 C 125.67 6.98 126.16 9.46 126.40 10.70 C 125.84 12.33 125.13 13.90 124.35 15.44 C 124.10 15.77 123.60 16.43 123.35 16.76 C 122.40 14.22 121.51 11.66 120.56 9.13 C 119.97 9.21 118.80 9.38 118.21 9.47 C 118.72 12.93 119.45 16.36 120.07 19.81 C 119.52 20.22 118.42 21.05 117.87 21.46 C 117.63 20.88 117.13 19.72 116.88 19.14 C 117.27 17.54 115.38 16.59 114.34 17.86 L 113.90 17.98 C 113.60 18.06 112.99 18.22 112.68 18.30 C 112.47 16.31 112.31 14.32 112.19 12.33 C 112.14 11.65 112.05 10.29 112.00 9.61 C 111.96 9.22 111.87 8.44 111.83 8.06 L 112.51 8.08 C 112.83 8.08 113.46 8.09 113.78 8.10 C 116.17 8.16 118.57 8.11 120.96 7.92 C 121.36 5.94 121.53 3.92 121.62 1.90 C 121.79 1.42 122.13 0.47 122.30 0.00 M 115.84 11.52 C 116.51 14.31 117.91 16.82 119.10 19.41 C 119.35 16.24 117.62 13.79 115.84 11.52 Z" />
<path fill="#332e2a" opacity="1.00" d=" M 46.01 54.09 C 48.57 51.88 51.83 50.71 55.17 50.29 L 55.48 51.37 C 52.81 52.92 50.22 54.62 47.45 56.00 L 44.07 56.00 C 44.55 55.52 45.53 54.57 46.01 54.09 Z" />
<path fill="#332e2a" opacity="1.00" d=" M 103.01 52.12 C 105.78 51.72 108.50 51.18 111.28 50.81 L 111.44 51.45 C 108.78 52.95 106.22 54.62 103.48 56.00 L 100.83 56.00 L 100.81 55.42 C 101.86 54.52 102.60 53.42 103.01 52.12 Z" />
<path fill="#332e2a" opacity="1.00" d=" M 157.88 53.12 C 160.97 52.18 164.10 51.37 167.18 50.35 L 167.47 51.37 C 164.81 52.92 162.24 54.62 159.49 56.00 L 156.64 56.00 C 156.95 55.28 157.57 53.84 157.88 53.12 Z" />
<path fill="#332e2a" opacity="1.00" d=" M 215.01 52.19 C 218.05 51.90 221.00 51.16 224.00 50.53 L 224.00 51.00 C 221.20 52.73 218.47 54.55 215.53 56.00 L 212.83 56.00 L 212.80 55.46 C 213.86 54.57 214.60 53.48 215.01 52.19 Z" />
</g>
<g id="#268dd8ff">
<path fill="#268dd8" opacity="1.00" d=" M 124.94 0.00 L 126.20 0.00 C 129.58 7.71 128.23 16.22 124.49 23.56 C 124.48 22.78 124.46 21.23 124.44 20.46 C 124.71 18.17 125.23 15.92 125.68 13.66 C 125.35 14.10 124.69 14.99 124.35 15.44 C 125.13 13.90 125.84 12.33 126.40 10.70 C 126.16 9.46 125.67 6.98 125.42 5.74 C 125.23 4.57 125.04 3.40 124.84 2.24 C 124.86 1.68 124.91 0.56 124.94 0.00 Z" />
</g>
<g id="#4476cbff">
<path fill="#4476cb" opacity="1.00" d=" M 138.25 0.00 L 141.17 0.00 C 139.73 1.75 138.41 3.63 136.72 5.16 C 133.89 4.70 131.31 3.28 128.67 2.23 C 131.15 2.08 133.63 2.26 136.11 2.22 C 136.64 1.66 137.71 0.55 138.25 0.00 Z" />
</g>
<g id="#4079ccff">
<path fill="#4079cc" opacity="1.00" d=" M 151.67 0.00 L 154.73 0.00 C 156.06 1.25 157.31 2.59 158.51 3.97 C 161.79 3.88 165.08 3.61 168.35 3.41 L 168.49 4.29 C 168.28 4.74 167.86 5.65 167.65 6.11 C 163.56 6.08 159.42 5.94 155.41 5.07 C 153.77 3.71 152.71 1.83 151.67 0.00 Z" />
</g>
<g id="#86a0b1ff">
<path fill="#86a0b1" opacity="1.00" d=" M 16.16 4.51 C 13.90 4.47 13.52 1.79 15.38 0.77 C 15.56 1.25 15.91 2.19 16.09 2.66 C 16.11 3.12 16.14 4.05 16.16 4.51 Z" />
</g>
<g id="#709e5cff">
<path fill="#709e5c" opacity="1.00" d=" M 3.86 3.92 C 5.79 3.31 7.73 2.72 9.69 2.20 C 9.49 4.12 9.33 6.05 8.97 7.94 C 6.72 8.13 4.47 8.20 2.22 8.07 C 2.75 6.68 3.30 5.30 3.86 3.92 Z" />
<path fill="#709e5c" opacity="1.00" d=" M 57.79 8.08 C 59.17 4.71 62.17 2.73 65.62 1.90 C 65.51 3.93 65.38 5.95 64.96 7.94 C 62.57 8.11 60.18 8.13 57.79 8.08 Z" />
<path fill="#709e5c" opacity="1.00" d=" M 113.78 8.10 C 115.17 4.72 118.17 2.73 121.62 1.90 C 121.53 3.92 121.36 5.94 120.96 7.92 C 118.57 8.11 116.17 8.16 113.78 8.10 Z" />
<path fill="#709e5c" opacity="1.00" d=" M 169.78 8.10 C 171.15 4.71 174.17 2.73 177.62 1.91 C 177.50 3.94 177.38 5.97 176.96 7.96 C 174.57 8.07 172.17 8.13 169.78 8.10 Z" />
</g>
<g id="#7392b4ff">
<path fill="#7392b4" opacity="1.00" d=" M 72.22 4.96 C 70.21 5.02 70.22 2.62 71.22 1.45 C 72.04 2.49 72.37 3.66 72.22 4.96 Z" />
<path fill="#7392b4" opacity="1.00" d=" M 184.25 4.94 C 182.26 5.05 182.25 2.63 183.21 1.46 C 184.07 2.49 184.42 3.65 184.25 4.94 Z" />
</g>
<g id="#645a4bff">
<path fill="#645a4b" opacity="1.00" d=" M 11.74 12.85 C 10.88 9.24 12.00 5.72 12.99 2.25 C 13.13 3.42 13.25 4.60 13.34 5.77 C 13.20 8.20 12.53 10.56 11.74 12.85 Z" />
<path fill="#645a4b" opacity="1.00" d=" M 67.75 12.85 C 66.87 9.25 68.01 5.73 68.96 2.25 C 69.12 3.42 69.26 4.58 69.38 5.75 C 69.19 8.19 68.51 10.54 67.75 12.85 Z" />
<path fill="#645a4b" opacity="1.00" d=" M 123.72 12.83 C 122.95 9.24 123.96 5.72 124.84 2.24 C 125.04 3.40 125.23 4.57 125.42 5.74 C 125.23 8.18 124.53 10.54 123.72 12.83 Z" />
<path fill="#645a4b" opacity="1.00" d=" M 179.75 12.85 C 178.87 9.25 180.00 5.73 180.96 2.25 C 181.12 3.42 181.26 4.58 181.38 5.75 C 181.19 8.19 180.51 10.54 179.75 12.85 Z" />
</g>
<g id="#5c8260ff">
<path fill="#5c8260" opacity="1.00" d=" M 0.00 4.28 C 1.35 4.99 2.09 6.93 0.69 8.02 L 0.00 7.97 L 0.00 4.28 Z" />
<path fill="#5c8260" opacity="1.00" d=" M 56.65 4.24 C 57.21 5.43 57.57 6.96 56.61 8.07 L 55.94 8.06 C 55.88 7.56 55.76 6.56 55.71 6.07 C 55.94 5.61 56.41 4.69 56.65 4.24 Z" />
<path fill="#5c8260" opacity="1.00" d=" M 112.64 4.29 C 113.19 5.48 113.53 7.02 112.51 8.08 L 111.83 8.06 C 111.79 7.55 111.71 6.55 111.67 6.05 C 111.92 5.61 112.40 4.73 112.64 4.29 Z" />
<path fill="#5c8260" opacity="1.00" d=" M 168.49 4.29 C 169.13 5.44 169.55 6.96 168.63 8.10 L 167.96 8.10 C 167.88 7.60 167.73 6.60 167.65 6.11 C 167.86 5.65 168.28 4.74 168.49 4.29 Z" />
</g>
<g id="#4377caff">
<path fill="#4377ca" opacity="1.00" d=" M 138.69 9.44 C 140.70 9.16 142.72 8.98 144.74 8.82 C 146.26 12.72 149.00 15.67 153.14 16.75 C 150.13 16.52 147.10 16.53 144.09 16.67 C 144.70 15.35 145.34 14.05 145.99 12.75 C 143.56 11.63 141.09 10.61 138.69 9.44 Z" />
</g>
<g id="#3f7bccff">
<path fill="#3f7bcc" opacity="1.00" d=" M 152.58 13.79 C 156.10 8.59 162.62 9.61 168.03 9.00 C 168.05 9.61 168.09 10.83 168.11 11.44 C 162.88 11.89 157.74 12.94 152.58 13.79 Z" />
</g>
<g id="#6c604cff">
<path fill="#6c604c" opacity="1.00" d=" M 6.26 9.45 C 6.95 9.33 8.32 9.10 9.01 8.98 C 9.68 12.62 10.34 16.27 10.57 19.97 L 9.76 20.57 C 9.35 20.89 8.52 21.55 8.10 21.87 C 7.48 17.73 6.87 13.59 6.26 9.45 Z" />
<path fill="#6c604c" opacity="1.00" d=" M 62.11 9.49 C 62.83 9.36 64.25 9.11 64.96 8.98 C 65.79 12.77 66.60 16.60 66.55 20.51 L 66.17 21.61 C 65.74 21.41 64.87 21.00 64.44 20.79 C 63.56 17.04 62.82 13.27 62.11 9.49 Z" />
<path fill="#6c604c" opacity="1.00" d=" M 174.11 9.49 C 174.82 9.36 176.25 9.10 176.97 8.98 C 177.77 12.74 178.54 16.53 178.64 20.39 L 178.37 21.27 C 177.90 21.13 176.95 20.84 176.48 20.70 C 175.60 16.98 174.79 13.25 174.11 9.49 Z" />
</g>
<g id="#427bcbff">
<path fill="#427bcb" opacity="1.00" d=" M 101.53 10.37 C 104.91 9.41 108.51 9.76 112.00 9.61 C 112.05 10.29 112.14 11.65 112.19 12.33 C 106.68 12.67 101.39 14.35 96.04 15.60 C 97.81 13.80 99.37 11.72 101.53 10.37 Z" />
<path fill="#427bcb" opacity="1.00" d=" M 213.51 10.36 C 216.90 9.45 220.51 9.65 224.00 9.43 L 224.00 12.00 C 218.44 11.79 213.61 15.29 208.09 15.50 C 209.82 13.73 211.35 11.66 213.51 10.36 Z" />
</g>
<g id="#6c5f4bff">
<path fill="#6c5f4b" opacity="1.00" d=" M 118.21 9.47 C 118.80 9.38 119.97 9.21 120.56 9.13 C 121.51 11.66 122.40 14.22 123.35 16.76 C 122.36 17.88 121.25 18.89 120.07 19.81 C 119.45 16.36 118.72 12.93 118.21 9.47 Z" />
</g>
<g id="#437cccff">
<path fill="#437ccc" opacity="1.00" d=" M 44.64 10.42 C 48.44 10.45 52.23 10.61 56.02 10.84 C 56.01 11.49 55.97 12.79 55.96 13.45 C 50.58 14.03 45.41 15.68 40.15 16.87 C 42.27 15.20 43.92 13.05 44.64 10.42 Z" />
</g>
<g id="#565249ff">
<path fill="#565249" opacity="1.00" d=" M 3.84 11.52 C 5.62 13.79 7.37 16.24 7.10 19.41 C 5.91 16.82 4.51 14.31 3.84 11.52 Z" />
<path fill="#565249" opacity="1.00" d=" M 59.84 11.52 C 61.62 13.79 63.36 16.24 63.10 19.41 C 61.91 16.82 60.51 14.31 59.84 11.52 Z" />
<path fill="#565249" opacity="1.00" d=" M 115.84 11.52 C 117.62 13.79 119.35 16.24 119.10 19.41 C 117.91 16.82 116.51 14.31 115.84 11.52 Z" />
<path fill="#565249" opacity="1.00" d=" M 171.84 11.52 C 173.62 13.79 175.35 16.24 175.10 19.41 C 173.91 16.82 172.51 14.31 171.84 11.52 Z" />
<path fill="#565249" opacity="1.00" d=" M 2.54 18.86 C 2.95 18.50 3.76 17.77 4.17 17.40 C 4.94 18.50 5.03 20.01 4.41 21.20 C 4.09 21.12 3.44 20.96 3.12 20.88 C 2.97 20.38 2.68 19.37 2.54 18.86 Z" />
<path fill="#565249" opacity="1.00" d=" M 58.84 19.42 C 58.10 16.51 61.13 17.59 60.98 19.78 C 60.61 19.83 59.87 19.94 59.50 20.00 L 58.84 19.42 Z" />
<path fill="#565249" opacity="1.00" d=" M 170.78 19.36 C 170.00 16.53 173.19 17.52 172.98 19.69 C 172.61 19.74 171.88 19.83 171.51 19.88 L 170.78 19.36 Z" />
</g>
<g id="#709fc2fe">
<path fill="#709fc2" opacity="1.00" d=" M 12.03 18.59 C 12.45 16.80 13.24 14.89 15.10 14.20 C 15.10 14.79 15.10 15.96 15.11 16.55 C 14.26 17.63 13.06 18.30 11.92 19.01 L 12.03 18.59 Z" />
</g>
<g id="#7ca2beff">
<path fill="#7ca2be" opacity="1.00" d=" M 67.91 17.23 C 68.98 16.18 70.02 15.01 71.46 14.46 C 71.41 15.05 71.32 16.24 71.28 16.84 C 70.19 17.46 69.01 17.73 67.75 17.64 L 67.91 17.23 Z" />
<path fill="#7ca2be" opacity="1.00" d=" M 179.93 17.22 C 180.98 16.15 182.10 15.08 183.48 14.44 C 183.47 15.02 183.45 16.18 183.45 16.76 C 182.30 17.37 181.07 17.66 179.77 17.63 L 179.93 17.22 Z" />
</g>
<g id="#7fa1b9ff">
<path fill="#7fa1b9" opacity="1.00" d=" M 124.35 15.44 C 124.69 14.99 125.35 14.10 125.68 13.66 C 125.23 15.92 124.71 18.17 124.44 20.46 C 122.50 20.84 120.56 21.23 118.62 21.58 L 117.43 21.81 L 117.87 21.46 C 118.42 21.05 119.52 20.22 120.07 19.81 C 121.25 18.89 122.36 17.88 123.35 16.76 C 123.60 16.43 124.10 15.77 124.35 15.44 Z" />
</g>
<g id="#4379caff">
<path fill="#4379ca" opacity="1.00" d=" M 34.63 17.80 C 37.04 18.04 39.14 19.46 41.25 20.53 C 36.52 20.05 31.58 20.43 27.70 23.49 C 28.37 24.73 29.07 25.95 29.77 27.18 C 25.37 27.18 20.76 28.13 19.03 32.74 C 21.13 33.76 23.22 34.84 25.46 35.51 C 28.51 36.63 31.28 34.33 34.01 33.31 C 33.64 31.28 33.25 29.26 32.85 27.24 C 34.73 30.04 36.52 32.89 38.38 35.70 C 30.28 35.48 29.27 44.75 24.63 49.23 C 26.71 52.02 30.16 53.67 32.77 56.00 L 31.53 56.00 C 29.84 54.81 28.25 53.42 26.36 52.53 C 22.63 51.88 19.76 54.37 16.76 56.00 L 15.78 56.00 C 17.77 54.25 19.70 52.42 21.60 50.57 C 21.35 49.04 21.08 47.52 20.78 46.01 C 23.41 44.38 25.95 42.57 28.08 40.30 C 22.63 36.27 13.90 33.97 9.08 40.20 C 10.64 43.30 13.30 45.59 15.78 47.93 C 12.68 46.70 9.99 44.67 8.21 41.82 C 6.64 38.81 2.83 39.15 0.00 38.43 L 0.00 37.80 C 6.68 37.25 13.41 36.04 19.48 33.11 C 18.58 31.19 17.62 29.30 16.40 27.56 C 20.13 27.51 23.75 26.59 27.21 25.27 C 27.10 24.51 26.88 22.99 26.77 22.23 C 25.21 21.29 23.63 20.36 22.05 19.44 C 26.32 19.56 30.40 18.10 34.63 17.80 Z" />
<path fill="#4379ca" opacity="1.00" d=" M 98.23 20.01 C 101.55 19.39 104.89 18.87 108.25 18.47 C 105.82 19.63 103.40 20.81 100.98 21.97 C 100.95 22.76 100.91 24.34 100.88 25.13 C 104.76 28.02 109.58 27.39 114.12 27.26 C 111.28 28.98 108.31 30.51 105.56 32.37 C 105.93 35.57 108.43 37.56 111.02 39.08 C 105.97 38.17 100.81 37.27 96.25 34.77 C 96.52 33.88 96.79 33.00 97.07 32.12 C 99.04 33.06 101.01 34.02 103.00 34.92 C 103.93 32.71 106.24 29.71 102.85 28.19 C 100.17 26.20 99.13 23.05 98.23 20.01 Z" />
<path fill="#4379ca" opacity="1.00" d=" M 209.97 20.30 C 213.39 19.43 216.86 18.81 220.31 18.11 C 217.61 19.63 214.78 20.92 212.20 22.64 C 214.22 27.47 219.30 27.87 224.00 27.55 L 224.00 28.10 C 222.05 29.53 219.93 30.76 218.28 32.54 C 217.01 35.77 221.14 37.24 222.83 39.28 C 217.88 38.24 212.93 37.03 208.33 34.87 C 208.53 33.98 208.74 33.09 208.95 32.21 C 211.09 33.13 213.22 34.08 215.40 34.91 C 218.35 29.28 211.63 25.31 209.97 20.30 Z" />
<path fill="#4379ca" opacity="1.00" d=" M 114.58 36.77 C 119.61 38.01 124.52 35.84 129.45 35.06 C 125.63 36.96 121.75 38.73 117.92 40.61 C 116.68 39.80 115.46 38.97 114.24 38.14 C 114.35 37.68 114.46 37.23 114.58 36.77 Z" />
</g>
<g id="#2a8ad7ff">
<path fill="#2a8ad7" opacity="1.00" d=" M 11.92 19.01 C 13.06 18.30 14.26 17.63 15.11 16.55 C 15.28 19.63 15.37 22.72 15.24 25.80 C 14.18 24.90 13.08 24.03 12.04 23.09 C 13.31 23.00 13.93 22.39 13.88 21.27 C 12.97 19.72 11.44 21.41 11.58 22.63 L 11.18 22.20 C 10.83 21.79 10.12 20.98 9.76 20.57 L 10.57 19.97 C 10.90 19.73 11.58 19.25 11.92 19.01 Z" />
</g>
<g id="#427acbff">
<path fill="#427acb" opacity="1.00" d=" M 41.99 21.34 C 46.58 19.96 51.19 18.59 55.82 17.32 C 56.60 17.92 57.39 18.50 58.19 19.08 C 56.39 20.46 57.66 22.92 59.69 23.10 C 55.48 21.57 50.16 18.90 46.17 22.21 C 43.30 24.07 46.03 28.12 48.85 28.10 C 52.85 28.22 56.81 27.25 60.77 26.73 C 60.54 27.36 60.32 28.00 60.09 28.63 C 56.56 29.71 52.71 30.57 50.02 33.26 C 49.23 36.67 52.91 38.21 54.83 40.28 C 49.88 39.24 44.93 38.02 40.33 35.87 C 40.54 34.98 40.74 34.10 40.95 33.21 C 43.09 34.13 45.22 35.08 47.39 35.91 C 50.38 30.29 43.62 26.34 41.99 21.34 Z" />
<path fill="#427acb" opacity="1.00" d=" M 2.75 47.81 C 4.46 47.39 6.18 47.00 7.89 46.60 C 6.75 47.88 5.78 49.29 4.84 50.72 C 6.87 52.23 9.04 53.55 11.13 54.98 C 8.35 54.79 5.57 54.51 2.80 54.27 C 3.23 52.13 3.19 49.95 2.75 47.81 Z" />
</g>
<g id="#3893d8ff">
<path fill="#3893d8" opacity="1.00" d=" M 67.75 17.64 C 69.01 17.73 70.19 17.46 71.28 16.84 C 71.47 19.12 71.63 21.42 71.50 23.71 C 70.00 22.83 68.33 22.32 66.69 21.79 L 66.17 21.61 L 66.55 20.51 C 66.94 19.55 67.34 18.59 67.75 17.64 Z" />
<path fill="#3893d8" opacity="1.00" d=" M 179.77 17.63 C 181.07 17.66 182.30 17.37 183.45 16.76 C 183.48 19.36 183.00 21.91 182.42 24.43 C 181.17 23.54 179.93 22.63 178.78 21.62 L 178.37 21.27 L 178.64 20.39 C 179.00 19.46 179.38 18.54 179.77 17.63 Z" />
</g>
<g id="#4279cafe">
<path fill="#4279ca" opacity="1.00" d=" M 78.00 16.98 C 82.27 17.98 86.68 18.07 90.99 17.22 C 89.02 18.90 87.06 20.58 85.19 22.34 C 85.67 23.69 86.16 25.03 86.64 26.37 C 81.49 25.99 75.92 26.59 73.80 31.96 C 79.25 34.65 85.67 35.66 91.03 32.38 C 90.51 30.34 90.02 28.29 89.60 26.22 C 91.52 28.67 93.03 31.38 94.47 34.13 C 86.86 35.86 83.83 43.45 79.28 48.78 C 83.75 51.51 88.41 53.95 93.23 56.00 L 83.44 56.00 C 84.82 55.54 86.18 55.05 87.54 54.53 C 86.06 53.60 84.56 52.68 82.94 52.00 C 79.18 50.00 75.52 53.43 72.08 54.68 C 73.95 52.98 75.82 51.29 77.57 49.48 C 77.03 49.25 75.95 48.80 75.41 48.57 C 79.11 45.64 81.53 41.49 82.69 36.95 C 76.06 34.55 69.18 36.27 63.29 39.62 C 65.28 42.19 67.47 44.58 69.68 46.97 C 65.43 45.39 62.43 42.02 60.30 38.14 C 64.34 36.62 68.97 36.27 72.52 33.73 C 73.28 31.65 73.56 29.43 74.05 27.28 C 77.65 26.00 81.30 24.83 84.90 23.53 C 83.46 20.53 80.97 18.38 78.00 16.98 Z" />
</g>
<g id="#4a463eff">
<path fill="#4a463e" opacity="1.00" d=" M 114.34 17.86 C 115.38 16.59 117.27 17.54 116.88 19.14 C 116.24 18.82 114.97 18.18 114.34 17.86 Z" />
</g>
<g id="#437acaff">
<path fill="#437aca" opacity="1.00" d=" M 154.23 19.01 C 157.55 18.39 160.89 17.87 164.25 17.47 C 161.82 18.63 159.40 19.80 156.98 20.97 C 156.95 21.77 156.90 23.36 156.87 24.16 C 161.31 26.95 166.67 26.54 171.68 27.13 C 171.87 27.69 172.26 28.80 172.46 29.35 C 168.95 28.20 164.41 27.61 162.17 31.32 C 160.83 34.86 164.87 36.36 167.03 38.14 C 162.73 37.24 158.47 36.21 154.24 35.06 C 150.32 33.02 145.31 34.28 142.53 37.45 C 141.34 41.14 140.52 45.39 136.13 46.51 C 137.62 43.28 139.35 39.93 138.19 36.31 C 134.27 35.99 130.57 34.71 126.75 33.95 C 127.45 31.27 128.59 28.74 129.63 26.18 C 134.26 23.57 139.88 22.13 144.69 25.23 C 139.65 25.56 134.22 24.61 129.91 27.88 C 129.94 28.66 129.98 30.23 130.00 31.01 C 135.55 34.18 142.72 35.00 148.13 31.12 C 147.67 29.12 147.07 27.16 146.49 25.20 C 148.93 26.93 149.77 29.77 150.66 32.47 C 153.57 31.65 156.43 32.53 159.11 33.67 C 160.04 31.52 162.15 28.65 158.85 27.19 C 156.17 25.19 155.13 22.05 154.23 19.01 Z" />
</g>
<g id="#4279cbfe">
<path fill="#4279cb" opacity="1.00" d=" M 190.00 16.97 C 194.27 17.98 198.68 18.07 202.99 17.22 C 201.02 18.90 199.06 20.58 197.19 22.34 C 197.67 23.69 198.16 25.03 198.64 26.37 C 193.56 26.08 187.96 26.48 185.90 31.85 C 188.72 33.01 191.41 34.84 194.46 35.37 C 197.52 35.21 200.20 33.50 202.94 32.27 C 202.61 30.19 202.27 28.13 201.92 26.06 C 203.49 28.71 205.17 31.30 206.38 34.15 C 198.82 35.92 195.82 43.47 191.28 48.78 C 195.75 51.51 200.41 53.95 205.23 56.00 L 195.44 56.00 C 196.81 55.54 198.18 55.05 199.54 54.53 C 198.06 53.60 196.56 52.68 194.94 52.00 C 191.17 50.00 187.52 53.43 184.08 54.68 C 185.95 52.98 187.82 51.29 189.57 49.48 C 189.03 49.25 187.95 48.80 187.41 48.57 C 191.11 45.64 193.53 41.49 194.69 36.95 C 188.06 34.55 181.18 36.27 175.29 39.62 C 177.28 42.19 179.47 44.58 181.68 46.97 C 177.43 45.39 174.43 42.02 172.30 38.14 C 176.34 36.62 180.97 36.27 184.52 33.73 C 185.27 31.65 185.55 29.43 186.05 27.28 C 189.65 26.00 193.30 24.83 196.90 23.53 C 195.46 20.53 192.97 18.38 190.00 16.97 Z" />
</g>
<g id="#9cb3c7fe">
<path fill="#9cb3c7" opacity="1.00" d=" M 112.68 18.30 C 112.99 18.22 113.60 18.06 113.90 17.98 C 114.77 19.27 115.54 20.63 116.12 22.08 L 115.67 22.26 C 114.07 21.54 112.53 20.22 112.68 18.30 Z" />
<path fill="#9cb3c7" opacity="1.00" d=" M 58.19 19.08 L 58.84 19.42 L 59.50 20.00 C 59.51 21.00 59.72 21.96 60.13 22.88 L 59.69 23.10 C 57.66 22.92 56.39 20.46 58.19 19.08 Z" />
<path fill="#9cb3c7" opacity="1.00" d=" M 170.02 19.22 L 170.78 19.36 L 171.51 19.88 C 171.66 20.89 171.91 21.88 172.27 22.84 L 171.76 23.05 C 170.71 22.63 169.79 22.04 168.98 21.26 C 169.24 20.75 169.76 19.73 170.02 19.22 Z" />
</g>
<g id="#5688bafe">
<path fill="#5688ba" opacity="1.00" d=" M 113.90 17.98 L 114.34 17.86 C 114.97 18.18 116.24 18.82 116.88 19.14 C 117.13 19.72 117.63 20.88 117.87 21.46 L 117.43 21.81 C 117.10 21.88 116.45 22.01 116.12 22.08 C 115.54 20.63 114.77 19.27 113.90 17.98 Z" />
</g>
<g id="#9eb5caff">
<path fill="#9eb5ca" opacity="1.00" d=" M 1.07 20.22 C 1.44 19.88 2.17 19.20 2.54 18.86 C 2.68 19.37 2.97 20.38 3.12 20.88 C 3.38 21.86 3.71 22.82 4.13 23.74 L 3.41 23.60 C 2.60 22.49 1.85 21.35 1.07 20.22 Z" />
</g>
<g id="#268ed9ff">
<path fill="#268ed9" opacity="1.00" d=" M 168.16 19.11 C 168.62 19.13 169.55 19.19 170.02 19.22 C 169.76 19.73 169.24 20.75 168.98 21.26 C 168.78 20.73 168.36 19.65 168.16 19.11 Z" />
</g>
<g id="#3c76c7ff">
<path fill="#3c76c7" opacity="1.00" d=" M 0.00 21.23 C 0.27 20.98 0.80 20.47 1.07 20.22 C 1.85 21.35 2.60 22.49 3.41 23.60 C 2.64 24.32 1.87 25.04 1.10 25.76 C 2.90 26.17 4.70 26.58 6.49 27.01 C 7.39 27.24 8.28 27.48 9.18 27.72 C 6.15 28.88 3.10 29.99 0.00 30.96 L 0.00 21.23 Z" />
</g>
<g id="#adc2d9ff">
<path fill="#adc2d9" opacity="1.00" d=" M 11.58 22.63 C 11.44 21.41 12.97 19.72 13.88 21.27 C 13.93 22.39 13.31 23.00 12.04 23.09 L 11.58 22.63 Z" />
</g>
<g id="#4f7baeff">
<path fill="#4f7bae" opacity="1.00" d=" M 59.50 20.00 C 59.87 19.94 60.61 19.83 60.98 19.78 C 61.15 20.34 61.50 21.47 61.67 22.04 L 61.46 22.67 C 61.13 22.72 60.46 22.83 60.13 22.88 C 59.72 21.96 59.51 21.00 59.50 20.00 Z" />
<path fill="#4f7bae" opacity="1.00" d=" M 171.51 19.88 C 171.88 19.83 172.61 19.74 172.98 19.69 C 173.19 20.27 173.60 21.42 173.81 22.00 L 173.63 22.62 C 173.29 22.67 172.61 22.79 172.27 22.84 C 171.91 21.88 171.66 20.89 171.51 19.88 Z" />
<path fill="#4f7bae" opacity="1.00" d=" M 3.12 20.88 C 3.44 20.96 4.09 21.12 4.41 21.20 C 4.86 21.76 5.75 22.87 6.20 23.42 L 5.76 23.80 C 5.35 23.79 4.54 23.76 4.13 23.74 C 3.71 22.82 3.38 21.86 3.12 20.88 Z" />
</g>
<g id="#8ea7b9ff">
<path fill="#8ea7b9" opacity="1.00" d=" M 8.10 21.87 C 8.52 21.55 9.35 20.89 9.76 20.57 C 10.12 20.98 10.83 21.79 11.18 22.20 C 9.74 22.71 8.32 23.25 6.85 23.67 L 5.76 23.80 L 6.20 23.42 C 6.68 23.03 7.63 22.26 8.10 21.87 Z" />
</g>
<g id="#8ba4b6fe">
<path fill="#8ba4b6" opacity="1.00" d=" M 61.67 22.04 C 62.36 21.73 63.75 21.10 64.44 20.79 C 64.87 21.00 65.74 21.41 66.17 21.61 L 66.69 21.79 C 65.25 22.55 63.69 23.15 62.04 23.12 L 61.46 22.67 L 61.67 22.04 Z" />
<path fill="#8ba4b6" opacity="1.00" d=" M 173.81 22.00 C 174.48 21.67 175.81 21.03 176.48 20.70 C 176.95 20.84 177.90 21.13 178.37 21.27 L 178.78 21.62 C 177.36 22.38 175.84 23.04 174.21 23.06 L 173.63 22.62 L 173.81 22.00 Z" />
</g>
<g id="#65569cff">
<path fill="#65569c" opacity="1.00" d=" M 115.67 22.26 L 116.12 22.08 C 116.45 22.01 117.10 21.88 117.43 21.81 L 118.62 21.58 C 118.92 22.44 119.52 24.14 119.82 25.00 C 117.42 24.40 114.95 24.34 112.51 24.00 C 113.55 23.40 114.61 22.82 115.67 22.26 Z" />
<path fill="#65569c" opacity="1.00" d=" M 122.14 22.11 C 123.44 22.78 123.43 23.46 122.11 24.14 C 120.81 23.47 120.82 22.80 122.14 22.11 Z" />
<path fill="#65569c" opacity="1.00" d=" M 59.69 23.10 L 60.13 22.88 C 60.46 22.83 61.13 22.72 61.46 22.67 L 62.04 23.12 C 62.62 23.65 63.76 24.70 64.33 25.22 C 61.79 25.23 59.24 25.13 56.70 24.99 C 57.69 24.35 58.68 23.71 59.69 23.10 Z" />
<path fill="#65569c" opacity="1.00" d=" M 66.14 23.11 C 67.44 23.78 67.43 24.46 66.11 25.14 C 64.81 24.47 64.82 23.80 66.14 23.11 Z" />
<path fill="#65569c" opacity="1.00" d=" M 171.76 23.05 L 172.27 22.84 C 172.61 22.79 173.29 22.67 173.63 22.62 L 174.21 23.06 C 174.43 23.32 174.88 23.85 175.11 24.11 C 174.90 24.96 174.65 25.80 174.40 26.64 C 172.53 25.93 170.65 25.24 168.77 24.54 C 169.76 24.03 170.75 23.53 171.76 23.05 Z" />
<path fill="#65569c" opacity="1.00" d=" M 178.14 23.11 C 179.44 23.78 179.43 24.46 178.11 25.14 C 176.81 24.47 176.82 23.80 178.14 23.11 Z" />
<path fill="#65569c" opacity="1.00" d=" M 3.41 23.60 L 4.13 23.74 C 4.54 23.76 5.35 23.79 5.76 23.80 L 6.85 23.67 C 6.72 24.78 6.59 25.90 6.49 27.01 C 4.70 26.58 2.90 26.17 1.10 25.76 C 1.87 25.04 2.64 24.32 3.41 23.60 Z" />
<path fill="#65569c" opacity="1.00" d=" M 10.14 24.11 C 11.44 24.78 11.43 25.46 10.11 26.14 C 8.81 25.47 8.82 24.80 10.14 24.11 Z" />
</g>
<g id="#4278cbff">
<path fill="#4278cb" opacity="1.00" d=" M 103.27 38.52 C 103.31 40.44 103.40 42.36 103.33 44.27 C 107.79 44.76 112.26 45.41 116.76 45.22 C 116.08 46.72 115.40 48.22 114.78 49.74 C 113.66 48.53 112.59 47.28 111.49 46.07 C 107.49 45.77 103.63 46.82 99.75 47.52 C 95.45 46.17 91.09 45.07 86.58 44.62 C 91.13 41.88 95.96 44.64 100.75 44.34 C 101.65 42.43 102.55 40.51 103.27 38.52 Z" />
</g>
<g id="#4279cbff">
<path fill="#4279cb" opacity="1.00" d=" M 154.19 44.36 C 157.19 44.04 158.77 41.17 160.58 39.12 C 160.86 41.12 161.08 43.12 161.29 45.13 C 157.04 47.98 152.36 46.55 148.08 44.63 C 148.26 43.90 148.44 43.17 148.62 42.44 C 150.41 43.18 152.12 44.76 154.19 44.36 Z" />
</g>
<g id="#4378cbff">
<path fill="#4378cb" opacity="1.00" d=" M 34.91 42.77 C 39.00 45.74 44.17 43.91 46.96 40.06 C 46.60 41.46 46.29 42.87 46.01 44.28 C 49.48 45.17 53.04 45.73 56.44 46.87 C 53.04 46.83 49.67 46.60 46.27 46.48 C 45.43 47.40 44.59 48.31 43.75 49.24 C 40.51 45.49 35.54 44.91 30.90 45.75 C 32.21 44.72 33.55 43.73 34.91 42.77 Z" />
</g>
<g id="#4379cbff">
<path fill="#4379cb" opacity="1.00" d=" M 198.59 44.21 C 207.02 42.36 215.53 44.95 224.00 45.10 L 224.00 45.80 C 218.92 46.15 213.68 48.06 208.59 46.67 C 205.23 45.96 201.89 45.15 198.59 44.21 Z" />
</g>
<g id="#4575cbff">
<path fill="#4575cb" opacity="1.00" d=" M 163.91 44.24 C 164.58 43.22 166.41 43.22 167.09 44.24 C 167.35 45.97 163.65 45.97 163.91 44.24 Z" />
</g>
<g id="#4279caff">
<path fill="#4279ca" opacity="1.00" d=" M 113.53 51.51 C 116.93 49.38 120.44 50.70 123.41 52.90 C 120.10 52.58 116.81 52.03 113.53 51.51 Z" />
</g>
<g id="#3686d0ff">
<path fill="#3686d0" opacity="1.00" d=" M 42.74 51.57 C 43.95 51.40 45.16 51.20 46.36 50.98 C 44.81 51.97 43.31 53.04 41.89 54.19 C 42.10 53.54 42.52 52.23 42.74 51.57 Z" />
</g>
<g id="#809db3ff">
<path fill="#809db3" opacity="1.00" d=" M 46.36 50.98 L 47.44 50.78 C 46.99 51.89 46.51 52.99 46.01 54.09 C 45.53 54.57 44.55 55.52 44.07 56.00 L 41.23 56.00 C 41.40 55.55 41.72 54.64 41.89 54.19 C 43.31 53.04 44.81 51.97 46.36 50.98 Z" />
</g>
<g id="#74a05cff">
<path fill="#74a05c" opacity="1.00" d=" M 47.45 56.00 C 50.22 54.62 52.81 52.92 55.48 51.37 C 55.87 52.91 56.24 54.45 56.60 56.00 L 47.45 56.00 Z" />
<path fill="#74a05c" opacity="1.00" d=" M 103.48 56.00 C 106.22 54.62 108.78 52.95 111.44 51.45 C 111.84 52.97 112.24 54.48 112.65 56.00 L 103.48 56.00 Z" />
<path fill="#74a05c" opacity="1.00" d=" M 159.49 56.00 C 162.24 54.62 164.81 52.92 167.47 51.37 C 167.86 52.91 168.24 54.45 168.60 56.00 L 159.49 56.00 Z" />
<path fill="#74a05c" opacity="1.00" d=" M 215.53 56.00 C 218.47 54.55 221.20 52.73 224.00 51.00 L 224.00 56.00 L 215.53 56.00 Z" />
</g>
<g id="#2e83d0ff">
<path fill="#2e83d0" opacity="1.00" d=" M 97.42 56.00 C 98.86 54.57 100.27 53.12 101.71 51.70 C 100.32 52.44 100.55 54.14 100.81 55.42 L 100.83 56.00 L 97.42 56.00 Z" />
<path fill="#2e83d0" opacity="1.00" d=" M 209.40 56.00 C 210.86 54.59 212.28 53.14 213.73 51.72 C 212.37 52.50 212.52 54.16 212.80 55.46 L 212.83 56.00 L 209.40 56.00 Z" />
</g>
<g id="#67839bff">
<path fill="#67839b" opacity="1.00" d=" M 101.71 51.70 C 102.04 51.80 102.69 52.02 103.01 52.12 C 102.60 53.42 101.86 54.52 100.81 55.42 C 100.55 54.14 100.32 52.44 101.71 51.70 Z" />
<path fill="#67839b" opacity="1.00" d=" M 213.73 51.72 C 214.05 51.84 214.69 52.07 215.01 52.19 C 214.60 53.48 213.86 54.57 212.80 55.46 C 212.52 54.16 212.37 52.50 213.73 51.72 Z" />
</g>
<g id="#2e86d2ff">
<path fill="#2e86d2" opacity="1.00" d=" M 154.14 56.00 C 154.61 54.27 156.23 53.41 157.88 53.12 C 157.57 53.84 156.95 55.28 156.64 56.00 L 154.14 56.00 Z" />
</g>
</svg>
