<?xml version="1.0" encoding="UTF-8" ?>
<!DOCTYPE svg PUBLIC "-//W3C//DTD SVG 1.1//EN" "http://www.w3.org/Graphics/SVG/1.1/DTD/svg11.dtd">
<svg width="224pt" height="56pt" viewBox="0 0 224 56" version="1.1" xmlns="http://www.w3.org/2000/svg">
<g id="#91bc69ff">
<path fill="#91bc69" opacity="1.00" d=" M 0.00 0.00 L 0.81 0.00 C 1.73 1.21 1.46 2.12 -0.00 2.72 L 0.00 0.00 Z" />
</g>
<g id="#6d9a59fe">
<path fill="#6d9a59" opacity="1.00" d=" M 0.81 0.00 L 6.73 0.00 C 6.19 3.53 6.28 7.12 6.90 10.64 C 5.97 9.67 5.05 8.69 4.13 7.71 C 2.93 6.40 1.73 5.09 0.52 3.79 C 0.39 4.46 0.13 5.81 0.00 6.48 L 0.00 2.72 C 1.46 2.12 1.73 1.21 0.81 0.00 M 3.40 3.15 C 2.97 4.55 3.45 5.03 4.85 4.60 C 5.29 3.20 4.80 2.71 3.40 3.15 Z" />
</g>
<g id="#545948ff">
<path fill="#545948" opacity="1.00" d=" M 6.73 0.00 L 7.27 0.00 C 7.26 3.74 8.16 7.37 10.53 10.28 L 10.87 10.82 C 10.93 11.54 11.06 12.98 11.13 13.70 C 10.14 14.99 9.15 16.27 8.19 17.58 C 8.28 17.07 8.47 16.04 8.56 15.52 C 8.79 14.13 9.01 12.73 9.21 11.34 C 8.77 11.52 7.90 11.89 7.46 12.07 C 5.42 12.86 3.38 13.64 1.45 14.67 C 1.30 13.68 1.13 12.70 0.94 11.73 C 1.62 11.11 2.31 10.49 3.00 9.89 C 3.29 9.34 3.85 8.25 4.13 7.71 C 5.05 8.69 5.97 9.67 6.90 10.64 C 6.28 7.12 6.19 3.53 6.73 0.00 Z" />
</g>
<g id="#322e2aff">
<path fill="#322e2a" opacity="1.00" d=" M 7.27 0.00 L 10.28 0.00 C 9.65 1.39 9.09 2.81 8.53 4.22 C 9.83 4.28 11.12 4.35 12.42 4.43 C 12.77 4.46 13.48 4.51 13.84 4.54 C 12.64 6.40 11.57 8.33 10.53 10.28 C 8.16 7.37 7.26 3.74 7.27 0.00 Z" />
<path fill="#322e2a" opacity="1.00" d=" M 63.26 0.00 L 66.08 0.00 C 65.52 1.65 65.07 3.33 64.61 5.02 C 65.98 4.52 67.34 4.03 68.71 3.52 L 68.99 4.14 L 69.33 4.99 C 68.52 6.57 67.66 8.14 66.82 9.71 L 66.43 10.45 C 64.10 7.47 63.39 3.73 63.26 0.00 Z" />
<path fill="#322e2a" opacity="1.00" d=" M 119.26 0.00 L 122.10 0.00 C 121.53 1.62 121.05 3.27 120.58 4.91 C 122.14 4.53 123.71 4.13 125.28 3.74 L 125.05 4.25 L 124.72 5.03 C 124.08 6.51 123.43 7.98 122.75 9.44 L 122.41 10.14 C 120.03 7.30 119.35 3.64 119.26 0.00 Z" />
<path fill="#322e2a" opacity="1.00" d=" M 175.26 0.00 L 178.08 0.00 C 177.52 1.65 177.06 3.33 176.61 5.02 C 177.98 4.52 179.34 4.03 180.71 3.52 L 180.99 4.14 L 181.33 4.99 C 180.52 6.57 179.66 8.14 178.82 9.71 L 178.43 10.45 C 176.10 7.47 175.39 3.73 175.26 0.00 Z" />
</g>
<g id="#565249ff">
<path fill="#565249" opacity="1.00" d=" M 10.28 0.00 L 13.35 0.00 L 12.99 0.82 C 12.41 1.97 12.21 3.17 12.42 4.43 C 11.12 4.35 9.83 4.28 8.53 4.22 C 9.09 2.81 9.65 1.39 10.28 0.00 Z" />
</g>
<g id="#268ed9ff">
<path fill="#268ed9" opacity="1.00" d=" M 13.35 0.00 L 15.99 0.00 C 15.63 0.93 15.22 1.84 14.78 2.74 C 14.34 2.26 13.44 1.30 12.99 0.82 L 13.35 0.00 Z" />
<path fill="#268ed9" opacity="1.00" d=" M 69.43 0.00 L 70.95 0.00 C 71.35 1.42 69.92 2.33 68.82 2.80 C 68.98 2.10 69.28 0.70 69.43 0.00 Z" />
<path fill="#268ed9" opacity="1.00" d=" M 125.37 0.00 L 126.89 0.00 C 127.37 1.30 126.19 2.32 125.22 2.95 C 125.26 2.21 125.33 0.74 125.37 0.00 Z" />
<path fill="#268ed9" opacity="1.00" d=" M 181.43 0.00 L 182.95 0.00 C 183.35 1.42 181.92 2.33 180.82 2.80 C 180.98 2.10 181.28 0.70 181.43 0.00 Z" />
<path fill="#268ed9" opacity="1.00" d=" M 66.82 9.71 C 67.66 8.14 68.52 6.57 69.33 4.99 C 69.76 6.07 70.20 7.15 70.66 8.23 C 70.10 8.86 69.54 9.49 68.98 10.13 C 68.44 10.02 67.36 9.81 66.82 9.71 Z" />
<path fill="#268ed9" opacity="1.00" d=" M 122.75 9.44 C 123.43 7.98 124.08 6.51 124.72 5.03 C 125.33 6.15 125.95 7.26 126.58 8.37 C 126.03 8.95 125.48 9.53 124.93 10.11 C 124.38 9.95 123.29 9.61 122.75 9.44 Z" />
<path fill="#268ed9" opacity="1.00" d=" M 178.82 9.71 C 179.66 8.14 180.52 6.57 181.33 4.99 C 181.76 6.07 182.20 7.15 182.66 8.23 C 182.10 8.86 181.54 9.49 180.98 10.13 C 180.44 10.02 179.36 9.81 178.82 9.71 Z" />
<path fill="#268ed9" opacity="1.00" d=" M 14.00 50.58 C 14.94 52.37 15.80 54.21 16.76 56.00 L 11.50 56.00 C 11.88 55.39 12.64 54.16 13.03 53.55 C 13.73 52.68 14.05 51.69 14.00 50.58 Z" />
<path fill="#268ed9" opacity="1.00" d=" M 68.86 50.90 C 69.62 52.61 70.40 54.30 71.17 56.00 L 67.84 56.00 L 68.02 55.33 L 68.31 54.15 C 68.57 53.08 68.75 52.00 68.86 50.90 Z" />
<path fill="#268ed9" opacity="1.00" d=" M 124.84 50.92 C 125.64 52.64 126.49 54.34 127.43 56.00 L 123.85 56.00 L 124.02 55.33 L 124.31 54.16 C 124.57 53.09 124.74 52.01 124.84 50.92 Z" />
<path fill="#268ed9" opacity="1.00" d=" M 180.86 50.90 C 181.62 52.61 182.40 54.30 183.17 56.00 L 179.84 56.00 L 180.02 55.33 L 180.31 54.15 C 180.57 53.08 180.75 52.00 180.86 50.90 Z" />
</g>
<g id="#3c6bbeff">
<path fill="#3c6bbe" opacity="1.00" d=" M 15.99 0.00 L 25.19 0.00 C 22.20 0.98 19.25 2.06 16.37 3.30 C 22.56 3.39 28.77 3.25 34.95 3.86 C 38.88 4.39 42.42 6.84 46.46 6.71 C 49.67 6.65 52.88 6.52 56.08 6.27 C 56.16 7.85 56.23 9.43 56.29 11.01 C 52.48 10.75 48.65 10.63 44.83 10.44 C 43.66 12.79 42.07 14.89 40.46 16.95 C 45.70 15.60 50.91 13.96 56.32 13.44 C 56.35 15.73 56.46 18.02 56.49 20.30 C 56.48 20.90 56.46 22.09 56.45 22.68 C 56.35 24.60 56.19 26.52 56.01 28.43 C 52.20 27.98 48.32 27.78 44.66 26.54 C 44.77 25.67 44.99 23.93 45.10 23.06 C 47.49 21.75 49.89 20.45 52.27 19.11 C 48.81 19.80 45.36 20.56 41.91 21.29 C 44.19 26.10 49.36 30.31 47.74 36.10 C 45.50 35.14 43.26 34.18 41.03 33.19 C 40.77 34.11 40.50 35.02 40.23 35.94 C 44.93 37.87 49.84 39.14 54.75 40.38 C 53.05 38.35 49.33 36.68 50.28 33.54 C 51.94 31.91 53.99 30.80 55.89 29.50 C 55.84 30.10 55.73 31.32 55.67 31.93 C 55.75 32.60 55.91 33.94 55.99 34.61 L 56.33 35.27 L 56.78 36.18 C 56.81 36.79 56.89 38.00 56.92 38.60 C 56.23 40.00 55.91 41.48 55.95 43.04 L 55.94 43.72 C 55.93 44.33 55.93 45.54 55.93 46.14 C 51.87 46.08 46.37 46.09 46.32 40.94 C 41.70 44.20 35.74 43.25 30.55 44.87 C 34.97 45.33 39.38 46.25 43.37 48.26 C 47.35 46.60 51.70 46.90 55.93 46.83 C 55.95 49.88 56.00 52.94 56.03 56.00 L 16.76 56.00 C 15.80 54.21 14.94 52.37 14.00 50.58 C 13.75 50.24 13.26 49.57 13.01 49.24 C 14.35 47.91 15.67 46.57 16.98 45.22 C 16.49 45.15 15.50 45.01 15.00 44.95 C 14.32 44.88 12.97 44.74 12.29 44.67 L 12.59 44.25 C 12.80 43.95 13.21 43.34 13.42 43.04 C 14.89 40.62 16.02 38.01 17.30 35.47 C 22.75 34.88 25.66 38.96 26.44 43.65 C 27.47 43.65 28.50 43.66 29.53 43.65 C 30.36 39.21 33.08 35.46 38.24 35.50 C 36.42 32.94 34.90 30.17 33.29 27.48 C 33.20 29.56 33.76 31.90 32.73 33.80 C 30.24 36.29 25.76 36.27 23.26 33.82 C 22.25 31.90 22.80 29.61 22.78 27.54 C 21.01 30.61 19.11 33.62 16.71 36.25 C 16.36 30.95 16.08 25.66 15.86 20.36 C 20.15 20.55 24.35 21.70 28.65 21.72 C 32.89 21.43 37.07 20.58 41.30 20.22 C 39.18 19.39 37.10 18.31 34.83 17.96 C 31.00 18.07 27.19 19.56 23.38 18.50 C 20.98 17.85 18.50 18.27 16.08 18.55 C 15.71 17.23 15.35 15.91 14.97 14.60 C 14.83 12.75 13.43 11.63 11.77 11.15 C 12.41 10.82 13.69 10.15 14.34 9.82 C 15.11 7.75 14.94 5.52 14.80 3.37 L 14.78 2.74 C 15.22 1.84 15.63 0.93 15.99 0.00 M 19.53 14.56 C 25.09 12.42 30.94 12.43 36.50 14.55 C 34.44 13.02 32.75 10.27 29.90 10.34 C 25.37 8.54 22.34 11.89 19.53 14.56 Z" />
<path fill="#3c6bbe" opacity="1.00" d=" M 30.52 0.00 L 55.75 0.00 C 55.79 0.83 55.89 2.50 55.93 3.33 C 47.32 5.65 38.59 3.08 30.52 0.00 Z" />
<path fill="#3c6bbe" opacity="1.00" d=" M 70.95 0.00 L 85.35 0.00 C 80.85 4.41 74.37 3.08 68.71 3.52 L 68.82 2.80 C 69.92 2.33 71.35 1.42 70.95 0.00 Z" />
<path fill="#3c6bbe" opacity="1.00" d=" M 126.89 0.00 L 138.33 0.00 C 137.75 0.50 136.58 1.49 136.00 1.99 C 132.35 1.96 128.67 2.30 125.28 3.74 L 125.22 2.95 C 126.19 2.32 127.37 1.30 126.89 0.00 Z" />
<path fill="#3c6bbe" opacity="1.00" d=" M 141.04 0.00 L 151.44 0.00 C 152.70 1.71 153.75 3.68 155.54 4.90 C 159.61 5.92 163.86 6.10 168.04 6.40 C 168.10 7.04 168.21 8.32 168.26 8.96 C 162.74 9.40 156.41 8.97 152.44 13.64 C 157.80 12.86 163.15 11.81 168.59 11.85 C 168.56 14.66 168.53 17.46 168.51 20.27 C 168.49 20.88 168.44 22.10 168.42 22.72 C 168.34 23.62 168.18 25.43 168.09 26.33 C 164.25 25.95 160.35 25.81 156.66 24.56 C 156.77 23.69 156.99 21.94 157.10 21.06 C 159.49 19.75 161.89 18.45 164.27 17.11 C 160.81 17.80 157.36 18.56 153.91 19.29 C 156.16 23.98 160.96 28.06 159.91 33.68 C 156.79 32.94 153.66 32.25 150.50 31.77 C 149.40 29.54 148.27 27.33 146.97 25.21 C 147.32 27.30 147.68 29.38 148.05 31.47 C 142.38 34.60 135.68 33.80 129.92 31.35 C 129.88 30.36 129.81 28.38 129.77 27.38 C 134.62 26.01 139.65 25.49 144.63 24.79 C 139.44 22.67 133.95 23.85 129.02 26.05 C 128.96 28.68 128.94 31.31 128.96 33.94 C 132.47 35.09 135.80 36.70 139.33 37.81 C 138.36 40.87 137.31 43.91 136.47 47.01 C 141.00 44.01 141.23 37.37 146.11 34.99 C 153.21 33.21 160.01 36.69 166.75 38.43 C 165.07 36.38 161.32 34.68 162.31 31.55 C 163.97 29.86 166.06 28.71 167.99 27.37 C 167.89 28.92 167.81 30.47 167.74 32.02 C 167.81 32.69 167.96 34.01 168.03 34.68 L 168.35 35.30 L 168.78 36.21 C 168.84 36.83 168.95 38.07 169.00 38.69 C 168.35 40.09 167.92 41.56 167.72 43.10 L 167.50 43.89 C 166.39 43.51 163.73 43.04 163.80 44.82 C 164.85 45.89 166.48 45.06 167.53 44.43 C 167.73 48.28 167.95 52.14 168.14 56.00 L 150.25 56.00 C 145.05 51.91 139.00 49.20 133.54 45.51 C 132.70 46.11 131.86 46.70 131.02 47.29 C 131.72 47.59 133.11 48.19 133.81 48.49 C 131.83 50.30 129.85 52.12 127.86 53.92 C 133.21 50.46 139.97 49.91 145.63 52.97 C 143.57 53.32 139.43 54.04 137.37 54.39 C 137.99 54.80 139.23 55.60 139.85 56.00 L 127.43 56.00 C 126.49 54.34 125.64 52.64 124.84 50.92 C 124.66 50.50 124.29 49.68 124.11 49.27 C 125.61 48.56 128.44 46.16 125.92 44.89 C 125.55 44.78 124.81 44.57 124.44 44.47 L 123.63 44.48 C 123.98 44.28 124.70 43.89 125.05 43.69 C 126.03 43.11 127.00 42.52 127.97 41.92 C 125.42 32.95 124.91 23.62 126.17 14.39 C 126.80 12.51 125.19 11.63 123.68 11.12 C 123.99 10.87 124.62 10.37 124.93 10.11 C 125.48 9.53 126.03 8.95 126.58 8.37 C 125.95 7.26 125.33 6.15 124.72 5.03 L 125.05 4.25 C 129.08 3.78 133.16 4.01 137.09 5.01 C 138.38 3.32 139.66 1.62 141.04 0.00 M 138.60 9.21 C 141.00 10.53 143.48 11.69 146.01 12.75 C 145.37 14.05 144.72 15.33 144.05 16.61 C 147.06 16.51 150.07 16.58 153.07 16.80 C 149.11 15.58 146.71 12.39 144.43 9.19 C 142.51 8.83 140.53 9.18 138.60 9.21 M 155.00 44.16 C 152.71 44.91 150.62 43.40 148.60 42.55 C 148.41 43.27 148.23 43.99 148.04 44.71 C 152.36 46.51 157.06 47.81 161.37 45.17 C 161.05 43.18 160.80 41.18 160.64 39.17 C 158.92 40.97 157.51 43.41 155.00 44.16 Z" />
<path fill="#3c6bbe" opacity="1.00" d=" M 154.78 0.00 L 167.66 0.00 C 167.70 0.82 167.80 2.47 167.85 3.29 C 164.76 3.57 161.65 3.80 158.56 4.01 C 157.30 2.67 156.06 1.32 154.78 0.00 Z" />
<path fill="#3c6bbe" opacity="1.00" d=" M 182.95 0.00 L 197.35 0.00 C 192.85 4.41 186.37 3.08 180.71 3.52 L 180.82 2.80 C 181.92 2.33 183.35 1.42 182.95 0.00 Z" />
<path fill="#3c6bbe" opacity="1.00" d=" M 192.60 5.87 C 194.95 4.08 197.18 1.88 200.09 1.06 C 204.59 0.73 208.12 3.82 212.09 5.30 C 216.00 6.10 220.05 5.97 224.00 6.55 L 224.00 9.32 C 220.50 9.62 216.88 9.55 213.50 10.54 C 211.31 11.74 209.80 13.81 208.00 15.49 C 213.47 14.82 218.58 12.57 224.00 11.66 L 224.00 27.69 C 219.33 27.96 214.46 27.01 211.96 22.71 C 214.70 21.13 217.51 19.66 220.27 18.11 C 216.81 18.83 213.36 19.55 209.91 20.28 C 212.18 25.10 217.35 29.30 215.74 35.10 C 213.49 34.14 211.26 33.18 209.03 32.19 C 208.77 33.11 208.50 34.02 208.23 34.94 C 212.93 36.87 217.84 38.14 222.76 39.38 C 221.16 37.46 217.90 36.03 218.14 33.22 C 219.49 30.91 222.03 29.64 224.00 27.92 L 224.00 45.12 C 215.54 44.77 207.02 42.57 198.57 44.18 C 201.89 45.17 205.27 45.95 208.66 46.67 C 213.73 47.95 218.94 46.18 224.00 45.89 L 224.00 56.00 L 205.29 56.00 C 200.41 53.98 195.83 51.33 191.19 48.83 C 195.60 43.29 199.11 36.32 206.32 33.88 C 204.84 31.32 203.61 28.61 201.93 26.16 C 202.26 28.23 202.65 30.30 203.05 32.36 C 200.11 33.58 197.16 35.28 193.89 35.21 C 190.99 34.46 188.35 32.91 185.58 31.81 C 188.08 27.39 192.89 25.79 197.85 26.30 C 197.33 22.41 199.81 19.39 202.73 17.18 C 198.58 18.08 194.31 17.84 190.18 16.94 C 192.80 18.75 195.25 20.82 197.17 23.39 C 193.40 24.78 189.60 26.06 185.79 27.30 C 185.28 29.68 184.83 32.06 184.31 34.43 C 183.38 27.86 183.12 21.23 182.23 14.65 C 182.20 13.60 182.17 12.55 182.15 11.50 C 181.35 11.41 180.55 11.32 179.75 11.24 C 180.06 10.96 180.67 10.40 180.98 10.13 C 181.54 9.49 182.10 8.86 182.66 8.23 C 182.20 7.15 181.76 6.07 181.33 4.99 L 180.99 4.14 C 184.86 4.70 188.77 5.02 192.60 5.87 Z" />
<path fill="#3c6bbe" opacity="1.00" d=" M 73.34 35.42 C 76.52 36.00 79.64 36.81 82.84 37.35 C 81.23 41.65 78.79 45.58 75.45 48.74 C 76.02 48.91 77.16 49.26 77.73 49.43 C 75.87 51.15 74.00 52.86 72.14 54.58 C 74.06 53.70 75.95 52.73 77.95 52.02 C 81.29 50.71 84.63 53.27 87.86 53.81 C 86.38 54.56 84.91 55.31 83.40 56.00 L 71.17 56.00 C 70.40 54.30 69.62 52.61 68.86 50.90 C 68.68 50.50 68.33 49.68 68.15 49.28 C 69.64 48.59 72.49 46.13 69.94 44.92 C 69.57 44.83 68.82 44.64 68.45 44.55 L 67.71 44.57 C 68.09 44.39 68.84 44.05 69.22 43.87 C 70.95 41.24 72.05 38.27 73.34 35.42 Z" />
<path fill="#3c6bbe" opacity="1.00" d=" M 185.34 35.42 C 188.52 36.00 191.63 36.81 194.84 37.35 C 193.23 41.65 190.79 45.58 187.45 48.74 C 188.02 48.91 189.16 49.26 189.73 49.43 C 187.87 51.15 186.00 52.86 184.14 54.58 C 186.06 53.70 187.95 52.73 189.95 52.02 C 193.29 50.71 196.62 53.27 199.86 53.81 C 198.38 54.56 196.91 55.31 195.40 56.00 L 183.17 56.00 C 182.40 54.30 181.62 52.61 180.86 50.90 C 180.68 50.50 180.33 49.68 180.15 49.28 C 181.64 48.59 184.48 46.13 181.94 44.92 C 181.57 44.83 180.82 44.64 180.45 44.55 L 179.71 44.57 C 180.09 44.39 180.84 44.05 181.22 43.87 C 182.95 41.24 184.04 38.27 185.34 35.42 Z" />
<path fill="#3c6bbe" opacity="1.00" d=" M 6.24 50.71 C 5.37 47.65 9.84 47.72 7.71 50.56 C 7.34 50.60 6.61 50.67 6.24 50.71 Z" />
<path fill="#3c6bbe" opacity="1.00" d=" M 62.24 50.73 C 61.44 47.74 65.86 47.71 63.78 50.54 C 63.39 50.59 62.63 50.68 62.24 50.73 Z" />
<path fill="#3c6bbe" opacity="1.00" d=" M 118.24 50.73 C 117.44 47.73 121.86 47.71 119.77 50.54 C 119.39 50.59 118.62 50.68 118.24 50.73 Z" />
<path fill="#3c6bbe" opacity="1.00" d=" M 174.24 50.73 C 173.44 47.74 177.86 47.71 175.78 50.54 C 175.39 50.59 174.63 50.68 174.24 50.73 Z" />
<path fill="#3c6bbe" opacity="1.00" d=" M 9.35 50.45 C 9.95 50.58 11.14 50.84 11.74 50.97 C 11.44 51.26 10.83 51.85 10.53 52.14 C 10.27 51.91 9.73 51.46 9.47 51.24 L 9.35 50.45 Z" />
<path fill="#3c6bbe" opacity="1.00" d=" M 65.60 50.26 C 66.02 50.04 66.86 49.61 67.29 49.39 C 67.17 49.98 66.94 51.17 66.83 51.76 C 66.56 51.59 66.01 51.26 65.74 51.09 L 65.60 50.26 Z" />
<path fill="#3c6bbe" opacity="1.00" d=" M 121.58 50.26 C 122.00 50.04 122.84 49.60 123.26 49.38 C 123.15 49.97 122.93 51.16 122.82 51.76 C 122.54 51.59 122.00 51.26 121.73 51.09 L 121.58 50.26 Z" />
<path fill="#3c6bbe" opacity="1.00" d=" M 177.60 50.26 C 178.02 50.04 178.86 49.61 179.29 49.39 C 179.17 49.98 178.94 51.17 178.83 51.76 C 178.56 51.59 178.01 51.26 177.74 51.09 L 177.60 50.26 Z" />
<path fill="#3c6bbe" opacity="1.00" d=" M 7.31 52.75 L 8.15 52.70 L 8.48 53.38 C 8.30 54.03 7.93 55.34 7.75 56.00 L 6.21 56.00 L 5.99 55.43 C 6.84 54.75 7.29 53.86 7.31 52.75 Z" />
<path fill="#3c6bbe" opacity="1.00" d=" M 63.25 52.67 L 64.12 52.60 L 64.45 53.27 C 64.32 53.95 64.06 55.32 63.93 56.00 L 62.31 56.00 L 62.01 55.40 C 62.79 54.66 63.20 53.75 63.25 52.67 Z" />
<path fill="#3c6bbe" opacity="1.00" d=" M 119.24 52.67 L 120.11 52.60 L 120.44 53.27 C 120.31 53.96 120.06 55.32 119.93 56.00 L 118.30 56.00 L 118.00 55.40 C 118.78 54.66 119.20 53.75 119.24 52.67 Z" />
<path fill="#3c6bbe" opacity="1.00" d=" M 175.25 52.67 L 176.12 52.60 L 176.44 53.27 C 176.32 53.95 176.06 55.32 175.93 56.00 L 174.31 56.00 L 174.01 55.40 C 174.78 54.66 175.20 53.75 175.25 52.67 Z" />
<path fill="#3c6bbe" opacity="1.00" d=" M 65.15 53.30 C 65.61 53.10 66.53 52.69 66.99 52.49 C 67.32 52.91 67.98 53.74 68.31 54.15 L 68.02 55.33 C 66.75 55.56 65.39 54.54 65.15 53.30 Z" />
<path fill="#3c6bbe" opacity="1.00" d=" M 121.14 53.30 C 121.60 53.10 122.52 52.69 122.98 52.49 C 123.32 52.91 123.98 53.74 124.31 54.16 L 124.02 55.33 C 122.75 55.56 121.39 54.55 121.14 53.30 Z" />
<path fill="#3c6bbe" opacity="1.00" d=" M 177.15 53.30 C 177.61 53.10 178.53 52.69 178.99 52.49 C 179.32 52.91 179.98 53.73 180.31 54.15 L 180.02 55.33 C 178.75 55.56 177.39 54.54 177.15 53.30 Z" />
</g>
<g id="#3e7ccdff">
<path fill="#3e7ccd" opacity="1.00" d=" M 25.19 0.00 L 30.52 0.00 C 38.59 3.08 47.32 5.65 55.93 3.33 C 55.97 4.07 56.05 5.53 56.08 6.27 C 52.88 6.52 49.67 6.65 46.46 6.71 C 42.42 6.84 38.88 4.39 34.95 3.86 C 28.77 3.25 22.56 3.39 16.37 3.30 C 19.25 2.06 22.20 0.98 25.19 0.00 Z" />
</g>
<g id="#85b060fe">
<path fill="#85b060" opacity="1.00" d=" M 55.75 0.00 L 56.22 0.00 C 57.93 1.51 59.61 3.05 61.31 4.58 C 60.04 4.55 58.78 4.52 57.51 4.49 C 58.37 5.58 59.25 6.67 60.15 7.74 C 58.72 6.91 57.40 9.14 58.92 9.90 C 58.28 10.42 57.65 10.95 57.02 11.49 L 56.32 12.11 L 56.29 11.01 C 56.23 9.43 56.16 7.85 56.08 6.27 C 56.05 5.53 55.97 4.07 55.93 3.33 C 55.89 2.50 55.79 0.83 55.75 0.00 Z" />
<path fill="#85b060" opacity="1.00" d=" M 111.67 0.00 L 112.20 0.00 C 113.92 1.50 115.61 3.05 117.31 4.58 C 116.04 4.55 114.78 4.52 113.51 4.49 C 114.38 5.59 115.25 6.68 116.15 7.74 C 114.74 6.91 113.39 9.12 114.91 9.90 C 114.28 10.39 113.66 10.89 113.04 11.40 L 112.44 11.92 C 112.41 11.36 112.35 10.25 112.33 9.69 C 112.25 8.55 112.17 7.40 112.09 6.26 C 112.05 5.55 111.95 4.14 111.90 3.43 C 111.84 2.57 111.73 0.86 111.67 0.00 Z" />
<path fill="#85b060" opacity="1.00" d=" M 167.66 0.00 L 168.21 0.00 C 169.93 1.50 171.61 3.05 173.31 4.58 C 172.04 4.55 170.78 4.52 169.51 4.49 C 170.38 5.59 171.25 6.68 172.15 7.74 C 170.74 6.90 169.39 9.12 170.90 9.90 C 170.31 10.37 169.73 10.85 169.16 11.34 L 168.59 11.85 C 168.51 11.13 168.35 9.69 168.26 8.96 C 168.21 8.32 168.10 7.04 168.04 6.40 C 167.99 5.62 167.89 4.07 167.85 3.29 C 167.80 2.47 167.70 0.82 167.66 0.00 Z" />
</g>
<g id="#6b9958ff">
<path fill="#6b9958" opacity="1.00" d=" M 56.22 0.00 L 62.71 0.00 C 62.19 3.57 62.31 7.19 62.86 10.75 C 61.95 9.75 61.04 8.76 60.15 7.74 C 59.25 6.67 58.37 5.58 57.51 4.49 C 58.78 4.52 60.04 4.55 61.31 4.58 C 59.61 3.05 57.93 1.51 56.22 0.00 Z" />
<path fill="#6b9958" opacity="1.00" d=" M 112.20 0.00 L 118.71 0.00 C 118.19 3.57 118.31 7.19 118.86 10.75 C 117.95 9.75 117.04 8.76 116.15 7.74 C 115.25 6.68 114.38 5.59 113.51 4.49 C 114.78 4.52 116.04 4.55 117.31 4.58 C 115.61 3.05 113.92 1.50 112.20 0.00 Z" />
<path fill="#6b9958" opacity="1.00" d=" M 168.21 0.00 L 174.71 0.00 C 174.19 3.57 174.31 7.19 174.86 10.75 C 173.95 9.75 173.04 8.76 172.15 7.74 C 171.25 6.68 170.38 5.59 169.51 4.49 C 170.78 4.52 172.04 4.55 173.31 4.58 C 171.61 3.05 169.93 1.50 168.21 0.00 Z" />
</g>
<g id="#4f5546ff">
<path fill="#4f5546" opacity="1.00" d=" M 62.71 0.00 L 63.26 0.00 C 63.39 3.73 64.10 7.47 66.43 10.45 L 66.87 11.14 C 66.78 11.93 66.68 12.73 66.59 13.52 L 65.88 13.35 C 64.92 13.09 63.95 12.83 62.99 12.56 C 60.93 12.94 58.93 13.58 56.96 14.27 C 56.99 13.34 57.02 12.42 57.02 11.49 C 57.65 10.95 58.28 10.42 58.92 9.90 C 59.23 9.36 59.84 8.28 60.15 7.74 C 61.04 8.76 61.95 9.75 62.86 10.75 C 62.31 7.19 62.19 3.57 62.71 0.00 Z" />
<path fill="#4f5546" opacity="1.00" d=" M 118.71 0.00 L 119.26 0.00 C 119.35 3.64 120.03 7.30 122.41 10.14 L 122.86 10.81 C 122.78 11.89 122.72 12.96 122.67 14.04 L 122.04 13.62 C 121.15 13.07 120.25 12.56 119.33 12.07 C 117.15 12.66 115.06 13.50 112.98 14.39 C 113.02 13.39 113.04 12.40 113.04 11.40 C 113.66 10.89 114.28 10.39 114.91 9.90 C 115.22 9.36 115.84 8.28 116.15 7.74 C 117.04 8.76 117.95 9.75 118.86 10.75 C 118.31 7.19 118.19 3.57 118.71 0.00 Z" />
<path fill="#4f5546" opacity="1.00" d=" M 174.71 0.00 L 175.26 0.00 C 175.39 3.73 176.10 7.47 178.43 10.45 L 178.87 11.14 C 178.77 11.93 178.68 12.73 178.58 13.53 L 177.88 13.35 C 176.91 13.09 175.95 12.82 174.98 12.56 C 172.94 12.93 170.97 13.57 169.02 14.26 C 169.08 13.29 169.12 12.32 169.16 11.34 C 169.73 10.85 170.31 10.37 170.90 9.90 C 171.21 9.36 171.84 8.28 172.15 7.74 C 173.04 8.76 173.95 9.75 174.86 10.75 C 174.31 7.19 174.19 3.57 174.71 0.00 Z" />
</g>
<g id="#605f59ff">
<path fill="#605f59" opacity="1.00" d=" M 66.08 0.00 L 69.43 0.00 C 69.28 0.70 68.98 2.10 68.82 2.80 L 68.71 3.52 C 67.34 4.03 65.98 4.52 64.61 5.02 C 65.07 3.33 65.52 1.65 66.08 0.00 Z" />
<path fill="#605f59" opacity="1.00" d=" M 122.10 0.00 L 125.37 0.00 C 125.33 0.74 125.26 2.21 125.22 2.95 L 125.28 3.74 C 123.71 4.13 122.14 4.53 120.58 4.91 C 121.05 3.27 121.53 1.62 122.10 0.00 Z" />
<path fill="#605f59" opacity="1.00" d=" M 178.08 0.00 L 181.43 0.00 C 181.28 0.70 180.98 2.10 180.82 2.80 L 180.71 3.52 C 179.34 4.03 177.98 4.52 176.61 5.02 C 177.06 3.33 177.52 1.65 178.08 0.00 Z" />
</g>
<g id="#4079cbff">
<path fill="#4079cb" opacity="1.00" d=" M 85.35 0.00 L 93.91 0.00 C 99.22 3.65 105.70 3.48 111.90 3.43 C 111.95 4.14 112.05 5.55 112.09 6.26 C 108.09 6.09 104.03 6.15 100.09 5.33 C 96.13 3.81 92.60 0.72 88.09 1.06 C 85.18 1.88 82.95 4.08 80.60 5.87 C 76.77 5.02 72.86 4.70 68.99 4.14 L 68.71 3.52 C 74.37 3.08 80.85 4.41 85.35 0.00 Z" />
<path fill="#4079cb" opacity="1.00" d=" M 197.35 0.00 L 205.90 0.00 C 211.26 3.60 217.77 3.49 224.00 3.66 L 224.00 6.55 C 220.05 5.97 216.00 6.10 212.09 5.30 C 208.12 3.82 204.59 0.73 200.09 1.06 C 197.18 1.88 194.95 4.08 192.60 5.87 C 188.77 5.02 184.86 4.70 180.99 4.14 L 180.71 3.52 C 186.37 3.08 192.85 4.41 197.35 0.00 Z" />
</g>
<g id="#3c6abefe">
<path fill="#3c6abe" opacity="1.00" d=" M 93.91 0.00 L 111.67 0.00 C 111.73 0.86 111.84 2.57 111.90 3.43 C 105.70 3.48 99.22 3.65 93.91 0.00 Z" />
<path fill="#3c6abe" opacity="1.00" d=" M 205.90 0.00 L 224.00 0.00 L 224.00 3.66 C 217.77 3.49 211.26 3.60 205.90 0.00 Z" />
</g>
<g id="#4276cbff">
<path fill="#4276cb" opacity="1.00" d=" M 138.33 0.00 L 141.04 0.00 C 139.66 1.62 138.38 3.32 137.09 5.01 C 133.16 4.01 129.08 3.78 125.05 4.25 L 125.28 3.74 C 128.67 2.30 132.35 1.96 136.00 1.99 C 136.58 1.49 137.75 0.50 138.33 0.00 Z" />
</g>
<g id="#4079ccff">
<path fill="#4079cc" opacity="1.00" d=" M 151.44 0.00 L 154.78 0.00 C 156.06 1.32 157.30 2.67 158.56 4.01 C 161.65 3.80 164.76 3.57 167.85 3.29 C 167.89 4.07 167.99 5.62 168.04 6.40 C 163.86 6.10 159.61 5.92 155.54 4.90 C 153.75 3.68 152.70 1.71 151.44 0.00 Z" />
</g>
<g id="#a0b6cbff">
<path fill="#a0b6cb" opacity="1.00" d=" M 12.99 0.82 C 13.44 1.30 14.34 2.26 14.78 2.74 L 14.80 3.37 C 14.56 3.66 14.08 4.25 13.84 4.54 C 13.48 4.51 12.77 4.46 12.42 4.43 C 12.21 3.17 12.41 1.97 12.99 0.82 Z" />
</g>
<g id="#3c6bbefe">
<path fill="#3c6bbe" opacity="1.00" d=" M 80.60 5.87 C 82.95 4.08 85.18 1.88 88.09 1.06 C 92.60 0.72 96.13 3.81 100.09 5.33 C 104.03 6.15 108.09 6.09 112.09 6.26 C 112.17 7.40 112.25 8.55 112.33 9.69 C 108.96 9.77 105.52 9.62 102.21 10.27 C 99.64 11.28 97.97 13.66 95.94 15.41 C 101.41 14.32 106.82 12.65 112.45 12.53 C 112.48 14.47 112.54 18.34 112.58 20.28 C 112.56 20.88 112.52 22.09 112.50 22.70 C 112.37 24.26 112.23 25.83 112.06 27.39 C 108.24 26.96 104.33 26.80 100.66 25.55 C 100.77 24.68 100.99 22.93 101.10 22.06 C 103.49 20.75 105.89 19.45 108.27 18.11 C 104.81 18.80 101.36 19.56 97.91 20.29 C 100.19 25.10 105.36 29.31 103.74 35.10 C 101.49 34.14 99.26 33.18 97.03 32.19 C 96.77 33.11 96.50 34.02 96.23 34.94 C 100.93 36.87 105.84 38.14 110.75 39.38 C 109.07 37.35 105.30 35.68 106.30 32.55 C 107.96 30.88 110.03 29.75 111.95 28.42 C 111.88 29.31 111.75 31.11 111.68 32.00 C 111.77 32.67 111.93 33.99 112.01 34.66 L 112.34 35.29 L 112.78 36.19 C 112.82 36.80 112.90 38.00 112.93 38.60 C 112.23 40.01 111.90 41.49 111.96 43.05 L 111.94 43.69 L 111.93 44.77 C 109.14 44.74 106.37 44.72 103.60 44.66 C 103.51 42.70 103.41 40.75 103.23 38.80 C 102.39 40.55 101.59 42.31 100.80 44.08 C 96.06 43.69 91.28 43.32 86.56 44.16 C 90.80 45.39 95.10 46.50 99.47 47.13 C 103.65 47.19 107.79 46.30 111.92 45.87 C 111.94 49.24 112.00 52.62 112.01 56.00 L 93.29 56.00 C 88.41 53.98 83.83 51.33 79.19 48.83 C 83.61 43.27 87.14 36.28 94.39 33.85 C 92.85 31.30 91.42 28.68 89.63 26.29 C 90.10 28.39 90.60 30.48 91.11 32.56 C 85.48 35.26 79.10 34.30 73.49 31.99 C 75.98 27.49 80.79 25.72 85.85 26.30 C 85.33 22.41 87.81 19.39 90.73 17.18 C 86.58 18.08 82.31 17.84 78.18 16.94 C 80.80 18.75 83.25 20.82 85.17 23.39 C 81.40 24.78 77.60 26.06 73.79 27.30 C 73.29 29.68 72.83 32.06 72.31 34.43 C 71.38 27.86 71.12 21.23 70.23 14.65 C 70.20 13.60 70.17 12.55 70.15 11.50 C 69.35 11.41 68.55 11.32 67.75 11.24 C 68.06 10.96 68.67 10.40 68.98 10.13 C 69.54 9.49 70.10 8.86 70.66 8.23 C 70.20 7.15 69.76 6.07 69.33 4.99 L 68.99 4.14 C 72.86 4.70 76.77 5.02 80.60 5.87 Z" />
</g>
<g id="#87b05cff">
<path fill="#87b05c" opacity="1.00" d=" M 3.40 3.15 C 4.80 2.71 5.29 3.20 4.85 4.60 C 3.45 5.03 2.97 4.55 3.40 3.15 Z" />
</g>
<g id="#87b262ff">
<path fill="#87b262" opacity="1.00" d=" M 0.52 3.79 C 1.73 5.09 2.93 6.40 4.13 7.71 C 2.68 6.87 1.46 9.19 3.00 9.89 C 2.31 10.49 1.62 11.11 0.94 11.73 L 0.00 12.62 L 0.00 6.48 C 0.13 5.81 0.39 4.46 0.52 3.79 Z" />
</g>
<g id="#278bd7ff">
<path fill="#278bd7" opacity="1.00" d=" M 14.80 3.37 C 14.94 5.52 15.11 7.75 14.34 9.82 C 13.21 8.61 11.44 9.06 10.53 10.28 C 11.57 8.33 12.64 6.40 13.84 4.54 C 14.08 4.25 14.56 3.66 14.80 3.37 Z" />
</g>
<g id="#6c9c64ff">
<path fill="#6c9c64" opacity="1.00" d=" M 3.00 9.89 C 1.46 9.19 2.68 6.87 4.13 7.71 C 3.85 8.25 3.29 9.34 3.00 9.89 Z" />
<path fill="#6c9c64" opacity="1.00" d=" M 58.92 9.90 C 57.40 9.14 58.72 6.91 60.15 7.74 C 59.84 8.28 59.23 9.36 58.92 9.90 Z" />
<path fill="#6c9c64" opacity="1.00" d=" M 114.91 9.90 C 113.39 9.12 114.74 6.91 116.15 7.74 C 115.84 8.28 115.22 9.36 114.91 9.90 Z" />
<path fill="#6c9c64" opacity="1.00" d=" M 170.90 9.90 C 169.39 9.12 170.74 6.90 172.15 7.74 C 171.84 8.28 171.21 9.36 170.90 9.90 Z" />
</g>
<g id="#84a9b8ff">
<path fill="#84a9b8" opacity="1.00" d=" M 10.53 10.28 C 11.44 9.06 13.21 8.61 14.34 9.82 C 13.69 10.15 12.41 10.82 11.77 11.15 L 10.87 10.82 L 10.53 10.28 Z" />
</g>
<g id="#4377caff">
<path fill="#4377ca" opacity="1.00" d=" M 138.60 9.21 C 140.53 9.18 142.51 8.83 144.43 9.19 C 146.71 12.39 149.11 15.58 153.07 16.80 C 150.07 16.58 147.06 16.51 144.05 16.61 C 144.72 15.33 145.37 14.05 146.01 12.75 C 143.48 11.69 141.00 10.53 138.60 9.21 Z" />
</g>
<g id="#3f7bccff">
<path fill="#3f7bcc" opacity="1.00" d=" M 152.44 13.64 C 156.41 8.97 162.74 9.40 168.26 8.96 C 168.35 9.69 168.51 11.13 168.59 11.85 C 163.15 11.81 157.80 12.86 152.44 13.64 Z" />
</g>
<g id="#6fafb9ff">
<path fill="#6fafb9" opacity="1.00" d=" M 66.82 9.71 C 67.36 9.81 68.44 10.02 68.98 10.13 C 68.67 10.40 68.06 10.96 67.75 11.24 L 66.87 11.14 L 66.43 10.45 L 66.82 9.71 Z" />
<path fill="#6fafb9" opacity="1.00" d=" M 122.75 9.44 C 123.29 9.61 124.38 9.95 124.93 10.11 C 124.62 10.37 123.99 10.87 123.68 11.12 L 122.86 10.81 L 122.41 10.14 L 122.75 9.44 Z" />
<path fill="#6fafb9" opacity="1.00" d=" M 178.82 9.71 C 179.36 9.81 180.44 10.02 180.98 10.13 C 180.67 10.40 180.06 10.96 179.75 11.24 L 178.87 11.14 L 178.43 10.45 L 178.82 9.71 Z" />
</g>
<g id="#427bcbff">
<path fill="#427bcb" opacity="1.00" d=" M 102.21 10.27 C 105.52 9.62 108.96 9.77 112.33 9.69 C 112.35 10.25 112.41 11.36 112.44 11.92 L 112.45 12.53 C 106.82 12.65 101.41 14.32 95.94 15.41 C 97.97 13.66 99.64 11.28 102.21 10.27 Z" />
<path fill="#427bcb" opacity="1.00" d=" M 213.50 10.54 C 216.88 9.55 220.50 9.62 224.00 9.32 L 224.00 11.66 C 218.58 12.57 213.47 14.82 208.00 15.49 C 209.80 13.81 211.31 11.74 213.50 10.54 Z" />
</g>
<g id="#4376caff">
<path fill="#4376ca" opacity="1.00" d=" M 19.53 14.56 C 22.34 11.89 25.37 8.54 29.90 10.34 C 32.75 10.27 34.44 13.02 36.50 14.55 C 30.94 12.43 25.09 12.42 19.53 14.56 Z" />
</g>
<g id="#437cccff">
<path fill="#437ccc" opacity="1.00" d=" M 44.83 10.44 C 48.65 10.63 52.48 10.75 56.29 11.01 L 56.32 12.11 C 56.32 12.45 56.32 13.11 56.32 13.44 C 50.91 13.96 45.70 15.60 40.46 16.95 C 42.07 14.89 43.66 12.79 44.83 10.44 Z" />
</g>
<g id="#1aa9c1ff">
<path fill="#1aa9c1" opacity="1.00" d=" M 10.87 10.82 L 11.77 11.15 C 13.43 11.63 14.83 12.75 14.97 14.60 C 12.37 23.93 12.99 33.51 13.42 43.04 C 13.21 43.34 12.80 43.95 12.59 44.25 L 11.47 44.54 C 11.31 44.01 10.98 42.95 10.82 42.41 C 10.61 39.73 10.44 37.05 10.31 34.37 C 10.69 27.80 11.24 21.23 11.12 14.65 L 11.13 13.70 C 11.06 12.98 10.93 11.54 10.87 10.82 Z" />
<path fill="#1aa9c1" opacity="1.00" d=" M 121.11 37.39 C 121.27 31.89 121.94 26.43 122.57 20.97 C 123.12 28.57 124.18 36.12 125.05 43.69 C 124.70 43.89 123.98 44.28 123.63 44.48 L 122.94 44.52 C 122.69 43.93 122.18 42.75 121.93 42.17 C 121.61 40.58 121.36 38.99 121.11 37.39 Z" />
</g>
<g id="#1ba8c2ff">
<path fill="#1ba8c2" opacity="1.00" d=" M 66.87 11.14 L 67.75 11.24 C 68.55 11.32 69.35 11.41 70.15 11.50 C 70.17 12.55 70.20 13.60 70.23 14.65 C 67.22 24.18 67.45 34.15 69.22 43.87 C 68.84 44.05 68.09 44.39 67.71 44.57 L 66.91 44.60 C 66.64 43.99 66.11 42.75 65.85 42.14 C 65.61 39.55 65.42 36.96 65.28 34.37 C 65.63 27.75 66.06 21.14 66.46 14.53 L 66.59 13.52 C 66.68 12.73 66.78 11.93 66.87 11.14 Z" />
<path fill="#1ba8c2" opacity="1.00" d=" M 178.87 11.14 L 179.75 11.24 C 180.55 11.32 181.35 11.41 182.15 11.50 C 182.17 12.55 182.20 13.60 182.23 14.65 C 179.22 24.18 179.45 34.15 181.22 43.87 C 180.84 44.05 180.09 44.39 179.71 44.57 L 178.91 44.60 C 178.64 43.99 178.11 42.75 177.85 42.14 C 177.61 39.55 177.42 36.96 177.28 34.37 C 177.63 27.75 178.06 21.14 178.46 14.53 L 178.58 13.53 C 178.68 12.73 178.77 11.93 178.87 11.14 Z" />
</g>
<g id="#1ca4c2ff">
<path fill="#1ca4c2" opacity="1.00" d=" M 122.86 10.81 L 123.68 11.12 C 125.19 11.63 126.80 12.51 126.17 14.39 C 125.04 16.36 123.78 18.26 122.63 20.22 C 122.67 18.41 122.62 16.60 122.64 14.78 L 122.67 14.04 C 122.72 12.96 122.78 11.89 122.86 10.81 Z" />
</g>
<g id="#6a9a61ff">
<path fill="#6a9a61" opacity="1.00" d=" M 0.00 12.62 L 0.94 11.73 C 1.13 12.70 1.30 13.68 1.45 14.67 C 1.18 15.85 0.90 17.02 0.60 18.20 C 0.45 18.78 0.15 19.94 0.00 20.52 L 0.00 12.62 Z" />
<path fill="#6a9a61" opacity="1.00" d=" M 56.32 12.11 L 57.02 11.49 C 57.02 12.42 56.99 13.34 56.96 14.27 C 56.88 15.57 56.77 16.87 56.65 18.17 C 56.61 18.70 56.53 19.77 56.49 20.30 C 56.46 18.02 56.35 15.73 56.32 13.44 C 56.32 13.11 56.32 12.45 56.32 12.11 Z" />
<path fill="#6a9a61" opacity="1.00" d=" M 112.44 11.92 L 113.04 11.40 C 113.04 12.40 113.02 13.39 112.98 14.39 C 112.91 15.66 112.83 16.93 112.73 18.20 C 112.69 18.72 112.62 19.76 112.58 20.28 C 112.54 18.34 112.48 14.47 112.45 12.53 L 112.44 11.92 Z" />
<path fill="#6a9a61" opacity="1.00" d=" M 168.59 11.85 L 169.16 11.34 C 169.12 12.32 169.08 13.29 169.02 14.26 C 168.92 15.56 168.81 16.87 168.69 18.17 C 168.64 18.69 168.55 19.74 168.51 20.27 C 168.53 17.46 168.56 14.66 168.59 11.85 Z" />
</g>
<g id="#a9a16aff">
<path fill="#a9a16a" opacity="1.00" d=" M 1.45 14.67 C 3.38 13.64 5.42 12.86 7.46 12.07 C 5.12 14.06 2.80 16.06 0.60 18.20 C 0.90 17.02 1.18 15.85 1.45 14.67 Z" />
<path fill="#a9a16a" opacity="1.00" d=" M 56.96 14.27 C 58.93 13.58 60.93 12.94 62.99 12.56 C 60.91 14.47 58.80 16.33 56.65 18.17 C 56.77 16.87 56.88 15.57 56.96 14.27 Z" />
<path fill="#a9a16a" opacity="1.00" d=" M 112.98 14.39 C 115.06 13.50 117.15 12.66 119.33 12.07 C 117.22 14.20 114.98 16.21 112.73 18.20 C 112.83 16.93 112.91 15.66 112.98 14.39 Z" />
<path fill="#a9a16a" opacity="1.00" d=" M 169.02 14.26 C 170.97 13.57 172.94 12.93 174.98 12.56 C 172.92 14.47 170.81 16.33 168.69 18.17 C 168.81 16.87 168.92 15.56 169.02 14.26 Z" />
</g>
<g id="#d8d38afe">
<path fill="#d8d38a" opacity="1.00" d=" M 7.46 12.07 C 7.90 11.89 8.77 11.52 9.21 11.34 C 9.01 12.73 8.79 14.13 8.56 15.52 C 5.46 19.37 4.53 24.53 5.31 29.34 C 5.36 29.82 5.48 30.78 5.53 31.25 C 5.60 32.70 6.29 34.01 7.07 35.19 C 8.47 37.52 9.75 39.92 10.82 42.41 C 10.98 42.95 11.31 44.01 11.47 44.54 L 10.42 44.62 C 8.78 43.20 7.24 41.68 5.79 40.06 C 3.78 34.21 1.95 28.29 0.00 22.41 L 0.00 20.52 C 0.15 19.94 0.45 18.78 0.60 18.20 C 2.80 16.06 5.12 14.06 7.46 12.07 Z" />
</g>
<g id="#d6d28afe">
<path fill="#d6d28a" opacity="1.00" d=" M 62.99 12.56 C 63.95 12.83 64.92 13.09 65.88 13.35 C 64.58 15.59 63.16 17.80 62.22 20.22 C 61.51 23.19 60.82 26.26 61.31 29.31 C 61.88 33.87 63.94 38.02 65.85 42.14 C 66.11 42.75 66.64 43.99 66.91 44.60 L 66.17 44.62 C 64.62 43.18 63.15 41.65 61.77 40.05 C 59.77 34.34 58.08 28.51 56.45 22.68 C 56.46 22.09 56.48 20.90 56.49 20.30 C 56.53 19.77 56.61 18.70 56.65 18.17 C 58.80 16.33 60.91 14.47 62.99 12.56 Z" />
<path fill="#d6d28a" opacity="1.00" d=" M 174.98 12.56 C 175.95 12.82 176.91 13.09 177.88 13.35 C 176.58 15.59 175.16 17.80 174.22 20.22 C 173.50 23.19 172.82 26.26 173.31 29.31 C 173.88 33.87 175.94 38.02 177.85 42.14 C 178.11 42.75 178.64 43.99 178.91 44.60 L 178.17 44.62 C 176.62 43.18 175.16 41.65 173.77 40.05 C 171.77 34.34 170.09 28.53 168.42 22.72 C 168.44 22.10 168.49 20.88 168.51 20.27 C 168.55 19.74 168.64 18.69 168.69 18.17 C 170.81 16.33 172.92 14.47 174.98 12.56 Z" />
</g>
<g id="#d6d28aff">
<path fill="#d6d28a" opacity="1.00" d=" M 119.33 12.07 C 120.25 12.56 121.15 13.07 122.04 13.62 C 120.68 15.83 119.31 18.03 117.80 20.13 C 116.84 21.13 116.34 22.53 116.71 23.90 C 116.66 30.41 118.72 36.59 121.93 42.17 C 122.18 42.75 122.69 43.93 122.94 44.52 L 122.20 44.54 C 120.63 43.14 119.16 41.63 117.77 40.06 C 115.77 34.35 114.09 28.53 112.50 22.70 C 112.52 22.09 112.56 20.88 112.58 20.28 C 112.62 19.76 112.69 18.72 112.73 18.20 C 114.98 16.21 117.22 14.20 119.33 12.07 Z" />
</g>
<g id="#a1e1a3ff">
<path fill="#a1e1a3" opacity="1.00" d=" M 8.19 17.58 C 9.15 16.27 10.14 14.99 11.13 13.70 L 11.12 14.65 C 10.06 21.16 9.91 27.78 10.31 34.37 C 10.44 37.05 10.61 39.73 10.82 42.41 C 9.75 39.92 8.47 37.52 7.07 35.19 C 8.59 33.75 7.56 31.35 5.53 31.25 C 5.48 30.78 5.36 29.82 5.31 29.34 C 5.83 25.33 6.56 21.31 8.19 17.58 Z" />
<path fill="#a1e1a3" opacity="1.00" d=" M 65.88 13.35 L 66.59 13.52 L 66.46 14.53 C 64.90 21.02 64.84 27.73 65.28 34.37 C 65.42 36.96 65.61 39.55 65.85 42.14 C 63.94 38.02 61.88 33.87 61.31 29.31 C 61.53 26.28 61.77 23.24 62.22 20.22 C 63.16 17.80 64.58 15.59 65.88 13.35 Z" />
<path fill="#a1e1a3" opacity="1.00" d=" M 177.88 13.35 L 178.58 13.53 L 178.46 14.53 C 176.90 21.02 176.84 27.73 177.28 34.37 C 177.42 36.96 177.61 39.55 177.85 42.14 C 175.94 38.02 173.88 33.87 173.31 29.31 C 173.52 26.28 173.77 23.24 174.22 20.22 C 175.16 17.80 176.58 15.59 177.88 13.35 Z" />
</g>
<g id="#a1e0a2fe">
<path fill="#a1e0a2" opacity="1.00" d=" M 122.04 13.62 L 122.67 14.04 L 122.64 14.78 C 121.58 18.86 120.22 22.86 119.49 27.02 C 119.48 30.53 120.58 33.94 121.11 37.39 C 121.36 38.99 121.61 40.58 121.93 42.17 C 118.72 36.59 116.66 30.41 116.71 23.90 C 118.30 23.46 118.74 21.36 117.80 20.13 C 119.31 18.03 120.68 15.83 122.04 13.62 Z" />
</g>
<g id="#3fcdbeff">
<path fill="#3fcdbe" opacity="1.00" d=" M 11.12 14.65 C 11.24 21.23 10.69 27.80 10.31 34.37 C 9.91 27.78 10.06 21.16 11.12 14.65 Z" />
<path fill="#3fcdbe" opacity="1.00" d=" M 66.46 14.53 C 66.06 21.14 65.63 27.75 65.28 34.37 C 64.84 27.73 64.90 21.02 66.46 14.53 Z" />
<path fill="#3fcdbe" opacity="1.00" d=" M 178.46 14.53 C 178.06 21.14 177.63 27.75 177.28 34.37 C 176.84 27.73 176.90 21.02 178.46 14.53 Z" />
</g>
<g id="#4379cbff">
<path fill="#4379cb" opacity="1.00" d=" M 13.42 43.04 C 12.99 33.51 12.37 23.93 14.97 14.60 C 15.35 15.91 15.71 17.23 16.08 18.55 C 18.50 18.27 20.98 17.85 23.38 18.50 C 27.19 19.56 31.00 18.07 34.83 17.96 C 37.10 18.31 39.18 19.39 41.30 20.22 C 37.07 20.58 32.89 21.43 28.65 21.72 C 24.35 21.70 20.15 20.55 15.86 20.36 C 16.08 25.66 16.36 30.95 16.71 36.25 C 19.11 33.62 21.01 30.61 22.78 27.54 C 22.80 29.61 22.25 31.90 23.26 33.82 C 25.76 36.27 30.24 36.29 32.73 33.80 C 33.76 31.90 33.20 29.56 33.29 27.48 C 34.90 30.17 36.42 32.94 38.24 35.50 C 33.08 35.46 30.36 39.21 29.53 43.65 C 28.50 43.66 27.47 43.65 26.44 43.65 C 25.66 38.96 22.75 34.88 17.30 35.47 C 16.02 38.01 14.89 40.62 13.42 43.04 Z" />
<path fill="#4379cb" opacity="1.00" d=" M 198.57 44.18 C 207.02 42.57 215.54 44.77 224.00 45.12 L 224.00 45.89 C 218.94 46.18 213.73 47.95 208.66 46.67 C 205.27 45.95 201.89 45.17 198.57 44.18 Z" />
</g>
<g id="#4378cbff">
<path fill="#4378cb" opacity="1.00" d=" M 69.22 43.87 C 67.45 34.15 67.22 24.18 70.23 14.65 C 71.12 21.23 71.38 27.86 72.31 34.43 C 72.83 32.06 73.29 29.68 73.79 27.30 C 77.60 26.06 81.40 24.78 85.17 23.39 C 83.25 20.82 80.80 18.75 78.18 16.94 C 82.31 17.84 86.58 18.08 90.73 17.18 C 87.81 19.39 85.33 22.41 85.85 26.30 C 80.79 25.72 75.98 27.49 73.49 31.99 C 79.10 34.30 85.48 35.26 91.11 32.56 C 90.60 30.48 90.10 28.39 89.63 26.29 C 91.42 28.68 92.85 31.30 94.39 33.85 C 87.14 36.28 83.61 43.27 79.19 48.83 C 83.83 51.33 88.41 53.98 93.29 56.00 L 83.40 56.00 C 84.91 55.31 86.38 54.56 87.86 53.81 C 84.63 53.27 81.29 50.71 77.95 52.02 C 75.95 52.73 74.06 53.70 72.14 54.58 C 74.00 52.86 75.87 51.15 77.73 49.43 C 77.16 49.26 76.02 48.91 75.45 48.74 C 78.79 45.58 81.23 41.65 82.84 37.35 C 79.64 36.81 76.52 36.00 73.34 35.42 C 72.05 38.27 70.95 41.24 69.22 43.87 Z" />
<path fill="#4378cb" opacity="1.00" d=" M 181.22 43.87 C 179.45 34.15 179.22 24.18 182.23 14.65 C 183.12 21.23 183.38 27.86 184.31 34.43 C 184.83 32.06 185.28 29.68 185.79 27.30 C 189.60 26.06 193.40 24.78 197.17 23.39 C 195.25 20.82 192.80 18.75 190.18 16.94 C 194.31 17.84 198.58 18.08 202.73 17.18 C 199.81 19.39 197.33 22.41 197.85 26.30 C 192.89 25.79 188.08 27.39 185.58 31.81 C 188.35 32.91 190.99 34.46 193.89 35.21 C 197.16 35.28 200.11 33.58 203.05 32.36 C 202.65 30.30 202.26 28.23 201.93 26.16 C 203.61 28.61 204.84 31.32 206.32 33.88 C 199.11 36.32 195.60 43.29 191.19 48.83 C 195.83 51.33 200.41 53.98 205.29 56.00 L 195.40 56.00 C 196.91 55.31 198.38 54.56 199.86 53.81 C 196.62 53.27 193.29 50.71 189.95 52.02 C 187.95 52.73 186.06 53.70 184.14 54.58 C 186.00 52.86 187.87 51.15 189.73 49.43 C 189.16 49.26 188.02 48.91 187.45 48.74 C 190.79 45.58 193.23 41.65 194.84 37.35 C 191.63 36.81 188.52 36.00 185.34 35.42 C 184.04 38.27 182.95 41.24 181.22 43.87 Z" />
<path fill="#4378cb" opacity="1.00" d=" M 103.23 38.80 C 103.41 40.75 103.51 42.70 103.60 44.66 C 106.37 44.72 109.14 44.74 111.93 44.77 L 111.92 45.87 C 107.79 46.30 103.65 47.19 99.47 47.13 C 95.10 46.50 90.80 45.39 86.56 44.16 C 91.28 43.32 96.06 43.69 100.80 44.08 C 101.59 42.31 102.39 40.55 103.23 38.80 Z" />
<path fill="#4378cb" opacity="1.00" d=" M 30.55 44.87 C 35.74 43.25 41.70 44.20 46.32 40.94 C 46.37 46.09 51.87 46.08 55.93 46.14 L 55.93 46.83 C 51.70 46.90 47.35 46.60 43.37 48.26 C 39.38 46.25 34.97 45.33 30.55 44.87 Z" />
</g>
<g id="#40cfbeff">
<path fill="#40cfbe" opacity="1.00" d=" M 122.64 14.78 C 122.62 16.60 122.67 18.41 122.63 20.22 L 122.57 20.97 C 121.94 26.43 121.27 31.89 121.11 37.39 C 120.58 33.94 119.48 30.53 119.49 27.02 C 120.22 22.86 121.58 18.86 122.64 14.78 Z" />
</g>
<g id="#4475caff">
<path fill="#4475ca" opacity="1.00" d=" M 122.63 20.22 C 123.78 18.26 125.04 16.36 126.17 14.39 C 124.91 23.62 125.42 32.95 127.97 41.92 C 127.00 42.52 126.03 43.11 125.05 43.69 C 124.18 36.12 123.12 28.57 122.57 20.97 L 122.63 20.22 Z" />
</g>
<g id="#ecefa8ff">
<path fill="#ecefa8" opacity="1.00" d=" M 5.31 29.34 C 4.53 24.53 5.46 19.37 8.56 15.52 C 8.47 16.04 8.28 17.07 8.19 17.58 C 6.56 21.31 5.83 25.33 5.31 29.34 Z" />
</g>
<g id="#437acaff">
<path fill="#437aca" opacity="1.00" d=" M 153.91 19.29 C 157.36 18.56 160.81 17.80 164.27 17.11 C 161.89 18.45 159.49 19.75 157.10 21.06 C 156.99 21.94 156.77 23.69 156.66 24.56 C 160.35 25.81 164.25 25.95 168.09 26.33 C 168.07 26.59 168.01 27.11 167.99 27.37 C 166.06 28.71 163.97 29.86 162.31 31.55 C 161.32 34.68 165.07 36.38 166.75 38.43 C 160.01 36.69 153.21 33.21 146.11 34.99 C 141.23 37.37 141.00 44.01 136.47 47.01 C 137.31 43.91 138.36 40.87 139.33 37.81 C 135.80 36.70 132.47 35.09 128.96 33.94 C 128.94 31.31 128.96 28.68 129.02 26.05 C 133.95 23.85 139.44 22.67 144.63 24.79 C 139.65 25.49 134.62 26.01 129.77 27.38 C 129.81 28.38 129.88 30.36 129.92 31.35 C 135.68 33.80 142.38 34.60 148.05 31.47 C 147.68 29.38 147.32 27.30 146.97 25.21 C 148.27 27.33 149.40 29.54 150.50 31.77 C 153.66 32.25 156.79 32.94 159.91 33.68 C 160.96 28.06 156.16 23.98 153.91 19.29 Z" />
</g>
<g id="#4379caff">
<path fill="#4379ca" opacity="1.00" d=" M 97.91 20.29 C 101.36 19.56 104.81 18.80 108.27 18.11 C 105.89 19.45 103.49 20.75 101.10 22.06 C 100.99 22.93 100.77 24.68 100.66 25.55 C 104.33 26.80 108.24 26.96 112.06 27.39 C 112.03 27.64 111.97 28.16 111.95 28.42 C 110.03 29.75 107.96 30.88 106.30 32.55 C 105.30 35.68 109.07 37.35 110.75 39.38 C 105.84 38.14 100.93 36.87 96.23 34.94 C 96.50 34.02 96.77 33.11 97.03 32.19 C 99.26 33.18 101.49 34.14 103.74 35.10 C 105.36 29.31 100.19 25.10 97.91 20.29 Z" />
<path fill="#4379ca" opacity="1.00" d=" M 209.91 20.28 C 213.36 19.55 216.81 18.83 220.27 18.11 C 217.51 19.66 214.70 21.13 211.96 22.71 C 214.46 27.01 219.33 27.96 224.00 27.69 L 224.00 27.92 C 222.03 29.64 219.49 30.91 218.14 33.22 C 217.90 36.03 221.16 37.46 222.76 39.38 C 217.84 38.14 212.93 36.87 208.23 34.94 C 208.50 34.02 208.77 33.11 209.03 32.19 C 211.26 33.18 213.49 34.14 215.74 35.10 C 217.35 29.30 212.18 25.10 209.91 20.28 Z" />
<path fill="#4379ca" opacity="1.00" d=" M 41.91 21.29 C 45.36 20.56 48.81 19.80 52.27 19.11 C 49.89 20.45 47.49 21.75 45.10 23.06 C 44.99 23.93 44.77 25.67 44.66 26.54 C 48.32 27.78 52.20 27.98 56.01 28.43 C 55.98 28.70 55.92 29.23 55.89 29.50 C 53.99 30.80 51.94 31.91 50.28 33.54 C 49.33 36.68 53.05 38.35 54.75 40.38 C 49.84 39.14 44.93 37.87 40.23 35.94 C 40.50 35.02 40.77 34.11 41.03 33.19 C 43.26 34.18 45.50 35.14 47.74 36.10 C 49.36 30.31 44.19 26.10 41.91 21.29 Z" />
</g>
<g id="#eef1adff">
<path fill="#eef1ad" opacity="1.00" d=" M 61.31 29.31 C 60.82 26.26 61.51 23.19 62.22 20.22 C 61.77 23.24 61.53 26.28 61.31 29.31 Z" />
<path fill="#eef1ad" opacity="1.00" d=" M 173.31 29.31 C 172.82 26.26 173.50 23.19 174.22 20.22 C 173.77 23.24 173.52 26.28 173.31 29.31 Z" />
</g>
<g id="#eef2adff">
<path fill="#eef2ad" opacity="1.00" d=" M 116.71 23.90 C 116.34 22.53 116.84 21.13 117.80 20.13 C 118.74 21.36 118.30 23.46 116.71 23.90 Z" />
<path fill="#eef2ad" opacity="1.00" d=" M 5.53 31.25 C 7.56 31.35 8.59 33.75 7.07 35.19 C 6.29 34.01 5.60 32.70 5.53 31.25 Z" />
</g>
<g id="#b1ad6eff">
<path fill="#b1ad6e" opacity="1.00" d=" M 0.00 22.41 C 1.95 28.29 3.78 34.21 5.79 40.06 C 3.96 38.26 1.95 36.66 0.00 34.99 L 0.00 34.51 C 2.06 35.04 1.76 32.00 0.00 31.98 L 0.00 22.41 Z" />
<path fill="#b1ad6e" opacity="1.00" d=" M 56.45 22.68 C 58.08 28.51 59.77 34.34 61.77 40.05 C 60.04 38.36 58.15 36.86 56.33 35.27 L 55.99 34.61 C 57.88 34.54 57.03 32.15 55.67 31.93 C 55.73 31.32 55.84 30.10 55.89 29.50 C 55.92 29.23 55.98 28.70 56.01 28.43 C 56.19 26.52 56.35 24.60 56.45 22.68 Z" />
<path fill="#b1ad6e" opacity="1.00" d=" M 112.50 22.70 C 114.09 28.53 115.77 34.35 117.77 40.06 C 116.04 38.37 114.15 36.88 112.34 35.29 L 112.01 34.66 C 113.92 34.60 113.06 32.20 111.68 32.00 C 111.75 31.11 111.88 29.31 111.95 28.42 C 111.97 28.16 112.03 27.64 112.06 27.39 C 112.23 25.83 112.37 24.26 112.50 22.70 Z" />
<path fill="#b1ad6e" opacity="1.00" d=" M 168.42 22.72 C 170.09 28.53 171.77 34.34 173.77 40.05 C 172.05 38.37 170.16 36.88 168.35 35.30 L 168.03 34.68 C 169.94 34.65 169.12 32.23 167.74 32.02 C 167.81 30.47 167.89 28.92 167.99 27.37 C 168.01 27.11 168.07 26.59 168.09 26.33 C 168.18 25.43 168.34 23.62 168.42 22.72 Z" />
</g>
<g id="#596753ff">
<path fill="#596753" opacity="1.00" d=" M 0.00 31.98 C 1.76 32.00 2.06 35.04 0.00 34.51 L 0.00 31.98 Z" />
<path fill="#596753" opacity="1.00" d=" M 55.67 31.93 C 57.03 32.15 57.88 34.54 55.99 34.61 C 55.91 33.94 55.75 32.60 55.67 31.93 Z" />
<path fill="#596753" opacity="1.00" d=" M 111.68 32.00 C 113.06 32.20 113.92 34.60 112.01 34.66 C 111.93 33.99 111.77 32.67 111.68 32.00 Z" />
<path fill="#596753" opacity="1.00" d=" M 167.74 32.02 C 169.12 32.23 169.94 34.65 168.03 34.68 C 167.96 34.01 167.81 32.69 167.74 32.02 Z" />
</g>
<g id="#998b50ff">
<path fill="#998b50" opacity="1.00" d=" M 0.00 34.99 C 1.95 36.66 3.96 38.26 5.79 40.06 C 7.24 41.68 8.78 43.20 10.42 44.62 C 9.82 44.67 8.62 44.75 8.02 44.79 C 7.53 44.81 6.55 44.86 6.07 44.88 C 6.47 43.56 5.43 42.45 4.54 41.64 C 2.95 39.94 1.42 38.18 0.00 36.34 L 0.00 34.99 Z" />
<path fill="#998b50" opacity="1.00" d=" M 56.33 35.27 C 58.15 36.86 60.04 38.36 61.77 40.05 C 63.15 41.65 64.62 43.18 66.17 44.62 C 65.62 44.65 64.53 44.71 63.98 44.73 C 63.55 44.76 62.70 44.80 62.28 44.82 C 62.69 43.30 61.15 42.35 60.02 41.75 C 58.92 39.91 57.78 38.09 56.78 36.18 L 56.33 35.27 Z" />
<path fill="#998b50" opacity="1.00" d=" M 112.34 35.29 C 114.15 36.88 116.04 38.37 117.77 40.06 C 119.16 41.63 120.63 43.14 122.20 44.54 C 121.64 44.58 120.53 44.65 119.98 44.69 C 119.55 44.72 118.71 44.78 118.28 44.81 C 118.67 43.30 117.15 42.35 116.02 41.77 C 114.93 39.92 113.78 38.10 112.78 36.19 L 112.34 35.29 Z" />
<path fill="#998b50" opacity="1.00" d=" M 168.35 35.30 C 170.16 36.88 172.05 38.37 173.77 40.05 C 175.16 41.65 176.62 43.18 178.17 44.62 C 177.62 44.65 176.53 44.71 175.98 44.73 C 175.55 44.76 174.70 44.80 174.28 44.82 C 174.69 43.30 173.15 42.35 172.03 41.75 C 170.93 39.92 169.77 38.11 168.78 36.21 L 168.35 35.30 Z" />
</g>
<g id="#5c5c49ff">
<path fill="#5c5c49" opacity="1.00" d=" M 0.00 36.34 C 1.42 38.18 2.95 39.94 4.54 41.64 C 3.81 42.82 4.30 45.26 6.07 44.88 C 6.55 44.86 7.53 44.81 8.02 44.79 C 8.48 46.67 8.96 48.55 9.35 50.45 L 9.47 51.24 C 9.03 51.07 8.15 50.73 7.71 50.56 C 9.84 47.72 5.37 47.65 6.24 50.71 L 6.20 51.20 C 5.92 49.51 5.86 47.80 5.77 46.10 C 5.02 45.75 4.27 45.40 3.52 45.06 C 2.89 43.19 2.26 41.31 1.41 39.52 C 1.06 39.38 0.35 39.11 0.00 38.97 L 0.00 36.34 Z" />
<path fill="#5c5c49" opacity="1.00" d=" M 56.78 36.18 C 57.78 38.09 58.92 39.91 60.02 41.75 C 60.09 43.03 60.51 45.23 62.28 44.82 C 62.70 44.80 63.55 44.76 63.98 44.73 C 64.54 46.57 65.11 48.40 65.60 50.26 L 65.74 51.09 C 65.25 50.96 64.27 50.68 63.78 50.54 C 65.86 47.71 61.44 47.74 62.24 50.73 L 62.18 51.22 C 61.92 49.58 61.84 47.92 61.75 46.27 C 61.07 45.83 60.39 45.38 59.71 44.94 C 58.95 43.15 58.28 41.33 57.47 39.57 C 57.34 39.33 57.06 38.84 56.92 38.60 C 56.89 38.00 56.81 36.79 56.78 36.18 Z" />
<path fill="#5c5c49" opacity="1.00" d=" M 112.78 36.19 C 113.78 38.10 114.93 39.92 116.02 41.77 C 116.09 43.03 116.51 45.26 118.28 44.81 C 118.71 44.78 119.55 44.72 119.98 44.69 C 120.53 46.54 121.10 48.38 121.58 50.26 L 121.73 51.09 C 121.24 50.95 120.26 50.68 119.77 50.54 C 121.86 47.71 117.44 47.73 118.24 50.73 L 118.18 51.22 C 117.92 49.58 117.84 47.92 117.75 46.26 C 117.07 45.82 116.39 45.38 115.71 44.94 C 114.95 43.16 114.28 41.34 113.47 39.58 C 113.34 39.33 113.07 38.85 112.93 38.60 C 112.90 38.00 112.82 36.80 112.78 36.19 Z" />
<path fill="#5c5c49" opacity="1.00" d=" M 168.78 36.21 C 169.77 38.11 170.93 39.92 172.03 41.75 C 172.09 43.03 172.51 45.23 174.28 44.82 C 174.70 44.80 175.55 44.76 175.98 44.73 C 176.54 46.57 177.11 48.40 177.60 50.26 L 177.74 51.09 C 177.25 50.96 176.27 50.68 175.78 50.54 C 177.86 47.71 173.44 47.74 174.24 50.73 L 174.18 51.22 C 173.92 49.58 173.85 47.93 173.75 46.28 C 173.07 45.81 172.39 45.33 171.72 44.86 C 170.94 43.12 170.27 41.34 169.47 39.61 C 169.35 39.38 169.12 38.92 169.00 38.69 C 168.95 38.07 168.84 36.83 168.78 36.21 Z" />
</g>
<g id="#77a460ff">
<path fill="#77a460" opacity="1.00" d=" M 0.00 38.97 C 0.35 39.11 1.06 39.38 1.41 39.52 C 2.52 40.89 1.16 42.22 0.00 42.88 L 0.00 38.97 Z" />
<path fill="#77a460" opacity="1.00" d=" M 56.92 38.60 C 57.06 38.84 57.34 39.33 57.47 39.57 C 58.41 41.06 57.44 42.55 55.95 43.04 C 55.91 41.48 56.23 40.00 56.92 38.60 Z" />
<path fill="#77a460" opacity="1.00" d=" M 112.93 38.60 C 113.07 38.85 113.34 39.33 113.47 39.58 C 114.41 41.06 113.44 42.54 111.96 43.05 C 111.90 41.49 112.23 40.01 112.93 38.60 Z" />
<path fill="#77a460" opacity="1.00" d=" M 169.00 38.69 C 169.12 38.92 169.35 39.38 169.47 39.61 C 170.45 41.18 169.37 42.77 167.72 43.10 C 167.92 41.56 168.35 40.09 169.00 38.69 Z" />
</g>
<g id="#4279cbff">
<path fill="#4279cb" opacity="1.00" d=" M 155.00 44.16 C 157.51 43.41 158.92 40.97 160.64 39.17 C 160.80 41.18 161.05 43.18 161.37 45.17 C 157.06 47.81 152.36 46.51 148.04 44.71 C 148.23 43.99 148.41 43.27 148.60 42.55 C 150.62 43.40 152.71 44.91 155.00 44.16 Z" />
</g>
<g id="#332e2aff">
<path fill="#332e2a" opacity="1.00" d=" M 1.41 39.52 C 2.26 41.31 2.89 43.19 3.52 45.06 C 2.34 44.52 1.17 43.97 0.00 43.41 L 0.00 42.88 C 1.16 42.22 2.52 40.89 1.41 39.52 Z" />
<path fill="#332e2a" opacity="1.00" d=" M 57.47 39.57 C 58.28 41.33 58.95 43.15 59.71 44.94 C 58.46 44.52 57.20 44.11 55.94 43.72 L 55.95 43.04 C 57.44 42.55 58.41 41.06 57.47 39.57 Z" />
<path fill="#332e2a" opacity="1.00" d=" M 113.47 39.58 C 114.28 41.34 114.95 43.16 115.71 44.94 C 114.46 44.51 113.20 44.09 111.94 43.69 L 111.96 43.05 C 113.44 42.54 114.41 41.06 113.47 39.58 Z" />
<path fill="#332e2a" opacity="1.00" d=" M 169.47 39.61 C 170.27 41.34 170.94 43.12 171.72 44.86 C 170.32 44.52 168.91 44.19 167.50 43.89 L 167.72 43.10 C 169.37 42.77 170.45 41.18 169.47 39.61 Z" />
<path fill="#332e2a" opacity="1.00" d=" M 4.54 41.64 C 5.43 42.45 6.47 43.56 6.07 44.88 C 4.30 45.26 3.81 42.82 4.54 41.64 Z" />
<path fill="#332e2a" opacity="1.00" d=" M 60.02 41.75 C 61.15 42.35 62.69 43.30 62.28 44.82 C 60.51 45.23 60.09 43.03 60.02 41.75 Z" />
<path fill="#332e2a" opacity="1.00" d=" M 116.02 41.77 C 117.15 42.35 118.67 43.30 118.28 44.81 C 116.51 45.26 116.09 43.03 116.02 41.77 Z" />
<path fill="#332e2a" opacity="1.00" d=" M 172.03 41.75 C 173.15 42.35 174.69 43.30 174.28 44.82 C 172.51 45.23 172.09 43.03 172.03 41.75 Z" />
<path fill="#332e2a" opacity="1.00" d=" M 6.20 51.20 L 6.24 50.71 C 6.61 50.67 7.34 50.60 7.71 50.56 C 8.15 50.73 9.03 51.07 9.47 51.24 C 9.73 51.46 10.27 51.91 10.53 52.14 C 9.94 52.28 8.74 52.56 8.15 52.70 L 7.31 52.75 L 6.48 52.55 C 6.41 52.21 6.27 51.54 6.20 51.20 Z" />
<path fill="#332e2a" opacity="1.00" d=" M 62.18 51.22 L 62.24 50.73 C 62.63 50.68 63.39 50.59 63.78 50.54 C 64.27 50.68 65.25 50.96 65.74 51.09 C 66.01 51.26 66.56 51.59 66.83 51.76 C 66.15 51.97 64.79 52.39 64.12 52.60 L 63.25 52.67 L 62.42 52.50 C 62.36 52.18 62.24 51.54 62.18 51.22 Z" />
<path fill="#332e2a" opacity="1.00" d=" M 118.18 51.22 L 118.24 50.73 C 118.62 50.68 119.39 50.59 119.77 50.54 C 120.26 50.68 121.24 50.95 121.73 51.09 C 122.00 51.26 122.54 51.59 122.82 51.76 C 122.14 51.97 120.79 52.39 120.11 52.60 L 119.24 52.67 L 118.41 52.50 C 118.36 52.18 118.24 51.54 118.18 51.22 Z" />
<path fill="#332e2a" opacity="1.00" d=" M 174.18 51.22 L 174.24 50.73 C 174.63 50.68 175.39 50.59 175.78 50.54 C 176.27 50.68 177.25 50.96 177.74 51.09 C 178.01 51.26 178.56 51.59 178.83 51.76 C 178.15 51.97 176.79 52.39 176.12 52.60 L 175.25 52.67 L 174.42 52.50 C 174.36 52.18 174.24 51.54 174.18 51.22 Z" />
<path fill="#332e2a" opacity="1.00" d=" M 8.48 53.38 L 9.09 53.88 C 9.90 55.83 12.96 56.10 13.03 53.55 C 12.64 54.16 11.88 55.39 11.50 56.00 L 7.75 56.00 C 7.93 55.34 8.30 54.03 8.48 53.38 Z" />
<path fill="#332e2a" opacity="1.00" d=" M 64.45 53.27 L 65.15 53.30 C 65.39 54.54 66.75 55.56 68.02 55.33 L 67.84 56.00 L 63.93 56.00 C 64.06 55.32 64.32 53.95 64.45 53.27 Z" />
<path fill="#332e2a" opacity="1.00" d=" M 120.44 53.27 L 121.14 53.30 C 121.39 54.55 122.75 55.56 124.02 55.33 L 123.85 56.00 L 119.93 56.00 C 120.06 55.32 120.31 53.96 120.44 53.27 Z" />
<path fill="#332e2a" opacity="1.00" d=" M 176.44 53.27 L 177.15 53.30 C 177.39 54.54 178.75 55.56 180.02 55.33 L 179.84 56.00 L 175.93 56.00 C 176.06 55.32 176.32 53.95 176.44 53.27 Z" />
</g>
<g id="#7aa55cff">
<path fill="#7aa55c" opacity="1.00" d=" M 0.00 43.41 C 1.17 43.97 2.34 44.52 3.52 45.06 C 4.27 45.40 5.02 45.75 5.77 46.10 C 5.86 47.80 5.92 49.51 6.20 51.20 C 6.27 51.54 6.41 52.21 6.48 52.55 C 6.36 53.27 6.11 54.71 5.99 55.43 L 6.21 56.00 L 0.00 56.00 L 0.00 43.41 Z" />
<path fill="#7aa55c" opacity="1.00" d=" M 55.94 43.72 C 57.20 44.11 58.46 44.52 59.71 44.94 C 60.39 45.38 61.07 45.83 61.75 46.27 C 61.84 47.92 61.92 49.58 62.18 51.22 C 62.24 51.54 62.36 52.18 62.42 52.50 C 62.32 53.22 62.11 54.67 62.01 55.40 L 62.31 56.00 L 56.03 56.00 C 56.00 52.94 55.95 49.88 55.93 46.83 L 55.93 46.14 C 55.93 45.54 55.93 44.33 55.94 43.72 Z" />
<path fill="#7aa55c" opacity="1.00" d=" M 111.94 43.69 C 113.20 44.09 114.46 44.51 115.71 44.94 C 116.39 45.38 117.07 45.82 117.75 46.26 C 117.84 47.92 117.92 49.58 118.18 51.22 C 118.24 51.54 118.36 52.18 118.41 52.50 C 118.31 53.22 118.11 54.67 118.00 55.40 L 118.30 56.00 L 112.01 56.00 C 112.00 52.62 111.94 49.24 111.92 45.87 L 111.93 44.77 L 111.94 43.69 Z" />
<path fill="#7aa55c" opacity="1.00" d=" M 167.50 43.89 C 168.91 44.19 170.32 44.52 171.72 44.86 C 172.39 45.33 173.07 45.81 173.75 46.28 C 173.85 47.93 173.92 49.58 174.18 51.22 C 174.24 51.54 174.36 52.18 174.42 52.50 C 174.31 53.22 174.11 54.67 174.01 55.40 L 174.31 56.00 L 168.14 56.00 C 167.95 52.14 167.73 48.28 167.53 44.43 L 167.50 43.89 Z" />
</g>
<g id="#363636ff">
<path fill="#363636" opacity="1.00" d=" M 10.42 44.62 L 11.47 44.54 L 12.59 44.25 L 12.29 44.67 C 11.51 45.54 11.38 46.51 11.90 47.58 C 12.06 48.11 12.38 49.15 12.54 49.68 C 12.49 50.12 12.38 51.00 12.32 51.44 L 11.74 50.97 C 11.14 50.84 9.95 50.58 9.35 50.45 C 8.96 48.55 8.48 46.67 8.02 44.79 C 8.62 44.75 9.82 44.67 10.42 44.62 Z" />
</g>
<g id="#37322dff">
<path fill="#37322d" opacity="1.00" d=" M 66.17 44.62 L 66.91 44.60 L 67.71 44.57 L 68.45 44.55 C 67.77 45.43 67.54 46.44 67.77 47.58 C 67.75 47.95 67.71 48.68 67.70 49.05 L 67.29 49.39 C 66.86 49.61 66.02 50.04 65.60 50.26 C 65.11 48.40 64.54 46.57 63.98 44.73 C 64.53 44.71 65.62 44.65 66.17 44.62 Z" />
<path fill="#37322d" opacity="1.00" d=" M 122.20 44.54 L 122.94 44.52 L 123.63 44.48 L 124.44 44.47 C 123.78 45.37 123.55 46.40 123.76 47.54 C 123.74 47.92 123.69 48.66 123.67 49.04 L 123.26 49.38 C 122.84 49.60 122.00 50.04 121.58 50.26 C 121.10 48.38 120.53 46.54 119.98 44.69 C 120.53 44.65 121.64 44.58 122.20 44.54 Z" />
<path fill="#37322d" opacity="1.00" d=" M 178.17 44.62 L 178.91 44.60 L 179.71 44.57 L 180.45 44.55 C 179.77 45.43 179.54 46.44 179.77 47.58 C 179.75 47.95 179.71 48.68 179.70 49.05 L 179.29 49.39 C 178.86 49.61 178.02 50.04 177.60 50.26 C 177.11 48.40 176.54 46.57 175.98 44.73 C 176.53 44.71 177.62 44.65 178.17 44.62 Z" />
</g>
<g id="#4575cbff">
<path fill="#4575cb" opacity="1.00" d=" M 163.80 44.82 C 163.73 43.04 166.39 43.51 167.50 43.89 L 167.53 44.43 C 166.48 45.06 164.85 45.89 163.80 44.82 Z" />
</g>
<g id="#86a0b1ff">
<path fill="#86a0b1" opacity="1.00" d=" M 11.90 47.58 C 11.38 46.51 11.51 45.54 12.29 44.67 C 12.97 44.74 14.32 44.88 15.00 44.95 C 14.19 46.04 13.27 47.19 11.90 47.58 Z" />
<path fill="#86a0b1" opacity="1.00" d=" M 67.77 47.58 C 67.54 46.44 67.77 45.43 68.45 44.55 C 68.82 44.64 69.57 44.83 69.94 44.92 C 69.55 46.06 68.82 46.94 67.77 47.58 Z" />
<path fill="#86a0b1" opacity="1.00" d=" M 123.76 47.54 C 123.55 46.40 123.78 45.37 124.44 44.47 C 124.81 44.57 125.55 44.78 125.92 44.89 C 125.53 46.02 124.81 46.90 123.76 47.54 Z" />
<path fill="#86a0b1" opacity="1.00" d=" M 179.77 47.58 C 179.54 46.44 179.77 45.43 180.45 44.55 C 180.82 44.64 181.57 44.83 181.94 44.92 C 181.55 46.06 180.82 46.94 179.77 47.58 Z" />
<path fill="#86a0b1" opacity="1.00" d=" M 12.54 49.68 L 13.01 49.24 C 13.26 49.57 13.75 50.24 14.00 50.58 C 14.05 51.69 13.73 52.68 13.03 53.55 L 12.52 53.06 C 12.47 52.65 12.37 51.84 12.32 51.44 C 12.38 51.00 12.49 50.12 12.54 49.68 Z" />
</g>
<g id="#288ad6ff">
<path fill="#288ad6" opacity="1.00" d=" M 15.00 44.95 C 15.50 45.01 16.49 45.15 16.98 45.22 C 15.67 46.57 14.35 47.91 13.01 49.24 L 12.54 49.68 C 12.38 49.15 12.06 48.11 11.90 47.58 C 13.27 47.19 14.19 46.04 15.00 44.95 Z" />
</g>
<g id="#2989d5fe">
<path fill="#2989d5" opacity="1.00" d=" M 69.94 44.92 C 72.49 46.13 69.64 48.59 68.15 49.28 L 67.70 49.05 C 67.71 48.68 67.75 47.95 67.77 47.58 C 68.82 46.94 69.55 46.06 69.94 44.92 Z" />
<path fill="#2989d5" opacity="1.00" d=" M 125.92 44.89 C 128.44 46.16 125.61 48.56 124.11 49.27 L 123.67 49.04 C 123.69 48.66 123.74 47.92 123.76 47.54 C 124.81 46.90 125.53 46.02 125.92 44.89 Z" />
<path fill="#2989d5" opacity="1.00" d=" M 181.94 44.92 C 184.48 46.13 181.64 48.59 180.15 49.28 L 179.70 49.05 C 179.71 48.68 179.75 47.95 179.77 47.58 C 180.82 46.94 181.55 46.06 181.94 44.92 Z" />
</g>
<g id="#417acbff">
<path fill="#417acb" opacity="1.00" d=" M 131.02 47.29 C 131.86 46.70 132.70 46.11 133.54 45.51 C 139.00 49.20 145.05 51.91 150.25 56.00 L 139.85 56.00 C 139.23 55.60 137.99 54.80 137.37 54.39 C 139.43 54.04 143.57 53.32 145.63 52.97 C 139.97 49.91 133.21 50.46 127.86 53.92 C 129.85 52.12 131.83 50.30 133.81 48.49 C 133.11 48.19 131.72 47.59 131.02 47.29 Z" />
</g>
<g id="#8ca5b7ff">
<path fill="#8ca5b7" opacity="1.00" d=" M 67.70 49.05 L 68.15 49.28 C 68.33 49.68 68.68 50.50 68.86 50.90 C 68.75 52.00 68.57 53.08 68.31 54.15 C 67.98 53.74 67.32 52.91 66.99 52.49 L 66.83 51.76 C 66.94 51.17 67.17 49.98 67.29 49.39 L 67.70 49.05 Z" />
<path fill="#8ca5b7" opacity="1.00" d=" M 123.67 49.04 L 124.11 49.27 C 124.29 49.68 124.66 50.50 124.84 50.92 C 124.74 52.01 124.57 53.09 124.31 54.16 C 123.98 53.74 123.32 52.91 122.98 52.49 L 122.82 51.76 C 122.93 51.16 123.15 49.97 123.26 49.38 L 123.67 49.04 Z" />
<path fill="#8ca5b7" opacity="1.00" d=" M 179.70 49.05 L 180.15 49.28 C 180.33 49.68 180.68 50.50 180.86 50.90 C 180.75 52.00 180.57 53.08 180.31 54.15 C 179.98 53.73 179.32 52.91 178.99 52.49 L 178.83 51.76 C 178.94 51.17 179.17 49.98 179.29 49.39 L 179.70 49.05 Z" />
</g>
<g id="#adc2d9ff">
<path fill="#adc2d9" opacity="1.00" d=" M 11.74 50.97 L 12.32 51.44 C 12.37 51.84 12.47 52.65 12.52 53.06 C 12.05 53.01 11.12 52.91 10.66 52.87 L 10.53 52.14 C 10.83 51.85 11.44 51.26 11.74 50.97 Z" />
</g>
<g id="#416845ff">
<path fill="#416845" opacity="1.00" d=" M 6.48 52.55 L 7.31 52.75 C 7.29 53.86 6.84 54.75 5.99 55.43 C 6.11 54.71 6.36 53.27 6.48 52.55 Z" />
<path fill="#416845" opacity="1.00" d=" M 62.42 52.50 L 63.25 52.67 C 63.20 53.75 62.79 54.66 62.01 55.40 C 62.11 54.67 62.32 53.22 62.42 52.50 Z" />
<path fill="#416845" opacity="1.00" d=" M 118.41 52.50 L 119.24 52.67 C 119.20 53.75 118.78 54.66 118.00 55.40 C 118.11 54.67 118.31 53.22 118.41 52.50 Z" />
<path fill="#416845" opacity="1.00" d=" M 174.42 52.50 L 175.25 52.67 C 175.20 53.75 174.78 54.66 174.01 55.40 C 174.11 54.67 174.31 53.22 174.42 52.50 Z" />
</g>
<g id="#75634eff">
<path fill="#75634e" opacity="1.00" d=" M 8.15 52.70 C 8.74 52.56 9.94 52.28 10.53 52.14 L 10.66 52.87 C 10.27 53.12 9.49 53.63 9.09 53.88 L 8.48 53.38 L 8.15 52.70 Z" />
<path fill="#75634e" opacity="1.00" d=" M 64.12 52.60 C 64.79 52.39 66.15 51.97 66.83 51.76 L 66.99 52.49 C 66.53 52.69 65.61 53.10 65.15 53.30 L 64.45 53.27 L 64.12 52.60 Z" />
<path fill="#75634e" opacity="1.00" d=" M 120.11 52.60 C 120.79 52.39 122.14 51.97 122.82 51.76 L 122.98 52.49 C 122.52 52.69 121.60 53.10 121.14 53.30 L 120.44 53.27 L 120.11 52.60 Z" />
<path fill="#75634e" opacity="1.00" d=" M 176.12 52.60 C 176.79 52.39 178.15 51.97 178.83 51.76 L 178.99 52.49 C 178.53 52.69 177.61 53.10 177.15 53.30 L 176.44 53.27 L 176.12 52.60 Z" />
</g>
<g id="#3b6bbefe">
<path fill="#3b6bbe" opacity="1.00" d=" M 9.09 53.88 C 9.49 53.63 10.27 53.12 10.66 52.87 C 11.12 52.91 12.05 53.01 12.52 53.06 L 13.03 53.55 C 12.96 56.10 9.90 55.83 9.09 53.88 Z" />
</g>
</svg>
