<?xml version="1.0" encoding="UTF-8" ?>
<!DOCTYPE svg PUBLIC "-//W3C//DTD SVG 1.1//EN" "http://www.w3.org/Graphics/SVG/1.1/DTD/svg11.dtd">
<svg width="224pt" height="56pt" viewBox="0 0 224 56" version="1.1" xmlns="http://www.w3.org/2000/svg">
<g id="#81ab59fe">
<path fill="#81ab59" opacity="1.00" d=" M 0.00 0.00 L 11.09 0.00 C 10.54 0.51 9.45 1.52 8.90 2.03 C 7.21 2.71 5.51 3.36 3.79 3.98 C 3.26 5.36 2.76 6.74 2.24 8.12 C 1.86 8.10 1.09 8.07 0.71 8.06 C 2.16 7.00 1.30 5.06 0.00 4.37 L 0.00 0.00 Z" />
</g>
<g id="#342f2aff">
<path fill="#342f2a" opacity="1.00" d=" M 11.09 0.00 L 13.08 0.00 C 13.06 0.56 13.03 1.68 13.02 2.25 C 12.47 5.75 11.66 9.23 11.59 12.79 C 12.26 10.48 12.93 8.17 13.32 5.80 C 14.10 10.15 13.15 14.44 12.08 18.62 L 11.98 19.02 C 11.62 19.29 10.90 19.82 10.54 20.08 C 10.25 16.36 9.68 12.66 9.05 8.98 C 8.35 9.10 6.94 9.35 6.24 9.47 C 6.88 13.61 7.52 17.75 8.09 21.89 C 7.58 22.28 6.58 23.05 6.07 23.43 C 5.66 22.84 4.83 21.65 4.41 21.06 C 6.15 19.41 3.91 16.31 2.44 18.93 C 2.08 19.29 1.36 20.02 1.01 20.39 C 0.76 20.65 0.25 21.18 0.00 21.44 L 0.00 8.01 L 0.71 8.06 C 1.09 8.07 1.86 8.10 2.24 8.12 C 4.89 8.12 7.51 7.75 10.12 7.36 C 9.73 5.58 9.32 3.80 8.90 2.03 C 9.45 1.52 10.54 0.51 11.09 0.00 M 3.96 11.50 C 4.75 14.22 5.86 16.83 7.09 19.37 C 6.62 16.53 5.47 13.91 3.96 11.50 Z" />
<path fill="#342f2a" opacity="1.00" d=" M 42.64 0.00 L 44.84 0.00 C 45.32 0.30 46.28 0.91 46.76 1.21 C 46.66 3.06 46.47 4.91 46.63 6.76 C 48.92 8.24 51.76 8.26 54.39 8.32 C 54.62 8.32 55.08 8.32 55.30 8.32 C 55.66 8.31 56.36 8.29 56.71 8.28 C 56.94 8.27 57.41 8.25 57.64 8.24 C 60.20 8.13 62.76 7.90 65.32 7.64 C 65.40 5.68 65.46 3.72 65.64 1.77 C 65.77 1.33 66.03 0.44 66.16 0.00 L 68.97 0.00 C 68.98 0.56 69.00 1.68 69.00 2.24 C 68.45 5.74 67.67 9.22 67.58 12.78 C 68.27 10.48 68.95 8.17 69.35 5.80 C 70.28 9.71 69.35 13.56 67.97 17.19 L 67.83 17.59 C 67.42 18.59 67.02 19.60 66.62 20.60 C 66.52 16.67 65.76 12.81 65.05 8.96 C 64.31 9.10 62.81 9.38 62.06 9.52 C 62.83 13.30 63.57 17.09 64.51 20.84 C 63.80 21.12 62.38 21.70 61.67 21.99 C 61.49 21.40 61.13 20.23 60.96 19.65 C 61.26 17.37 58.47 16.55 58.72 19.32 L 57.96 19.42 C 56.65 19.54 55.33 19.77 54.17 20.41 C 54.01 20.07 53.69 19.38 53.53 19.04 C 52.59 15.87 50.35 18.95 51.14 20.88 C 50.84 21.51 50.24 22.77 49.95 23.40 C 49.43 23.01 48.40 22.22 47.89 21.83 C 48.32 17.69 48.90 13.58 49.59 9.47 C 48.96 9.34 47.71 9.08 47.08 8.94 C 46.53 12.63 45.96 16.31 45.45 19.99 C 45.07 19.71 44.32 19.14 43.94 18.86 L 43.87 18.47 C 42.99 14.33 41.88 10.17 42.58 5.89 C 43.11 8.33 43.85 10.72 44.73 13.06 C 44.66 9.32 44.33 5.56 43.20 1.98 C 43.06 1.49 42.78 0.50 42.64 0.00 M 48.91 19.37 C 50.14 16.83 51.25 14.22 52.04 11.50 C 50.53 13.91 49.37 16.53 48.91 19.37 M 59.96 11.50 C 60.75 14.22 61.86 16.83 63.09 19.37 C 62.61 16.53 61.47 13.91 59.96 11.50 Z" />
<path fill="#342f2a" opacity="1.00" d=" M 98.99 0.00 L 100.88 0.00 C 101.49 0.35 102.70 1.04 103.31 1.38 C 102.82 3.34 102.33 5.31 101.86 7.28 C 104.68 7.75 107.52 8.13 110.38 8.22 C 110.61 8.23 111.06 8.24 111.29 8.25 C 111.65 8.25 112.35 8.25 112.71 8.25 C 112.94 8.25 113.41 8.24 113.64 8.23 C 116.21 8.16 118.76 7.93 121.32 7.63 C 121.40 5.67 121.46 3.72 121.64 1.77 C 121.77 1.33 122.03 0.44 122.16 0.00 L 124.93 0.00 C 124.90 0.56 124.84 1.68 124.81 2.24 C 124.34 5.74 123.73 9.23 123.58 12.76 C 124.27 10.45 124.99 8.14 125.43 5.77 C 125.66 7.04 126.11 9.56 126.34 10.83 C 125.77 12.40 125.06 13.91 124.31 15.40 C 124.06 15.74 123.57 16.42 123.32 16.76 C 122.39 14.22 121.46 11.67 120.59 9.11 C 119.99 9.20 118.79 9.40 118.19 9.50 C 118.79 12.94 119.42 16.37 120.03 19.81 C 119.48 20.22 118.36 21.06 117.81 21.47 C 117.60 20.89 117.20 19.72 116.99 19.14 C 117.31 17.52 115.36 16.67 114.41 18.03 L 114.01 18.17 C 113.49 18.32 112.45 18.63 111.94 18.79 C 111.48 18.92 110.57 19.19 110.11 19.33 L 109.30 19.50 C 110.17 16.74 107.01 17.47 107.08 19.67 C 106.85 20.23 106.39 21.36 106.16 21.92 C 105.45 21.60 104.02 20.95 103.31 20.63 C 104.17 16.93 105.02 13.23 105.83 9.52 C 105.11 9.37 103.67 9.07 102.95 8.92 C 102.39 12.74 101.71 16.55 101.33 20.39 C 101.01 19.48 100.68 18.58 100.35 17.68 L 100.20 17.24 C 98.80 13.62 97.50 9.84 98.55 5.88 C 99.10 8.32 99.86 10.70 100.73 13.04 C 100.48 9.33 100.10 5.61 99.25 1.98 C 99.19 1.48 99.06 0.49 98.99 0.00 M 104.91 19.37 C 106.14 16.83 107.25 14.22 108.04 11.50 C 106.54 13.91 105.36 16.53 104.91 19.37 M 115.96 11.50 C 116.75 14.22 117.86 16.83 119.09 19.37 C 118.61 16.53 117.47 13.91 115.96 11.50 Z" />
<path fill="#342f2a" opacity="1.00" d=" M 155.07 0.00 L 156.86 0.00 C 157.33 0.30 158.28 0.90 158.76 1.20 C 158.65 3.05 158.47 4.91 158.63 6.76 C 160.92 8.24 163.76 8.26 166.40 8.32 C 166.62 8.32 167.07 8.32 167.30 8.32 C 167.65 8.31 168.35 8.29 168.71 8.28 C 168.94 8.27 169.41 8.25 169.64 8.24 C 172.20 8.13 174.76 7.90 177.32 7.64 C 177.40 5.68 177.46 3.72 177.64 1.77 C 177.77 1.33 178.03 0.44 178.17 0.00 L 180.97 0.00 C 180.98 0.56 181.00 1.68 181.00 2.24 C 180.45 5.74 179.67 9.22 179.58 12.78 C 180.27 10.48 180.94 8.17 181.36 5.80 C 182.29 9.72 181.34 13.56 179.96 17.20 L 179.82 17.60 C 179.42 18.60 179.02 19.59 178.62 20.59 C 178.51 16.67 177.76 12.81 177.05 8.96 C 176.31 9.10 174.81 9.38 174.07 9.52 C 174.82 13.30 175.56 17.08 176.50 20.83 C 175.79 21.14 174.36 21.76 173.65 22.07 C 173.48 21.48 173.15 20.30 172.98 19.71 C 173.26 17.41 169.99 16.56 170.91 19.42 L 170.14 19.31 C 169.62 19.23 168.57 19.07 168.05 18.99 C 167.52 18.80 166.45 18.42 165.92 18.23 L 165.55 18.07 C 164.64 16.67 162.67 17.49 162.95 19.11 C 162.75 19.72 162.35 20.93 162.15 21.54 C 161.60 21.11 160.50 20.26 159.95 19.83 C 160.47 16.36 161.16 12.92 161.74 9.46 C 161.16 9.38 160.01 9.20 159.43 9.12 C 158.54 11.67 157.62 14.21 156.69 16.75 C 156.44 16.41 155.94 15.74 155.70 15.40 C 154.90 13.89 154.16 12.35 153.54 10.77 C 153.78 9.54 154.27 7.08 154.52 5.85 C 155.09 8.29 155.87 10.68 156.71 13.04 C 156.46 9.34 156.11 5.65 155.36 2.02 C 155.29 1.52 155.14 0.51 155.07 0.00 M 160.91 19.37 C 162.14 16.83 163.25 14.22 164.04 11.50 C 162.54 13.91 161.36 16.53 160.91 19.37 M 171.96 11.50 C 172.75 14.22 173.86 16.83 175.09 19.37 C 174.60 16.53 173.48 13.91 171.96 11.50 Z" />
<path fill="#342f2a" opacity="1.00" d=" M 210.99 0.00 L 212.87 0.00 C 213.45 0.34 214.62 1.02 215.20 1.36 C 214.84 3.48 214.50 5.60 214.20 7.73 C 216.91 7.92 219.64 8.08 222.36 7.98 C 222.59 7.96 223.06 7.94 223.29 7.93 L 224.00 7.86 L 224.00 19.31 C 223.53 19.32 222.59 19.33 222.12 19.34 L 221.32 19.46 C 222.06 16.66 218.91 17.51 219.12 19.74 C 218.92 20.34 218.51 21.55 218.31 22.16 C 217.58 21.79 216.11 21.05 215.38 20.69 C 216.20 16.97 217.02 13.24 217.81 9.52 C 217.09 9.37 215.66 9.07 214.95 8.92 C 214.39 12.74 213.72 16.55 213.34 20.39 C 213.02 19.49 212.69 18.58 212.35 17.68 L 212.20 17.24 C 210.79 13.63 209.50 9.84 210.55 5.88 C 211.10 8.32 211.86 10.70 212.73 13.04 C 212.47 9.33 212.10 5.61 211.25 1.98 C 211.19 1.48 211.06 0.49 210.99 0.00 M 216.91 19.37 C 218.14 16.83 219.25 14.22 220.04 11.50 C 218.54 13.91 217.35 16.53 216.91 19.37 Z" />
</g>
<g id="#268dd9ff">
<path fill="#268dd9" opacity="1.00" d=" M 13.08 0.00 L 16.10 0.00 L 15.30 0.83 C 13.44 1.86 13.93 4.61 16.20 4.50 C 16.68 8.11 17.16 11.73 17.63 15.35 C 16.86 14.93 16.07 14.53 15.29 14.14 C 15.25 14.16 15.17 14.20 15.14 14.22 C 13.32 14.97 12.36 16.76 12.08 18.62 C 13.15 14.44 14.10 10.15 13.32 5.80 C 13.23 4.62 13.13 3.43 13.02 2.25 C 13.03 1.68 13.06 0.56 13.08 0.00 Z" />
<path fill="#268dd9" opacity="1.00" d=" M 68.97 0.00 L 70.20 0.00 C 70.44 0.36 70.91 1.07 71.15 1.43 C 70.25 2.58 70.26 5.11 72.26 4.87 C 72.04 8.09 71.77 11.31 71.54 14.52 C 70.14 15.09 68.97 16.08 67.97 17.19 C 69.35 13.56 70.28 9.71 69.35 5.80 C 69.25 4.61 69.13 3.42 69.00 2.24 C 69.00 1.68 68.98 0.56 68.97 0.00 Z" />
<path fill="#268dd9" opacity="1.00" d=" M 180.97 0.00 L 182.21 0.00 C 182.44 0.36 182.92 1.07 183.16 1.43 C 182.26 2.59 182.28 5.11 184.28 4.87 C 184.04 8.08 183.72 11.29 183.50 14.50 C 182.10 15.08 180.94 16.07 179.96 17.20 C 181.34 13.56 182.29 9.72 181.36 5.80 C 181.25 4.61 181.13 3.42 181.00 2.24 C 181.00 1.68 180.98 0.56 180.97 0.00 Z" />
</g>
<g id="#3c6bbeff">
<path fill="#3c6bbe" opacity="1.00" d=" M 16.10 0.00 L 25.39 0.00 C 26.55 0.97 27.70 1.95 28.83 2.96 C 24.72 4.70 20.04 4.75 16.06 2.65 C 15.87 2.20 15.49 1.29 15.30 0.83 L 16.10 0.00 Z" />
<path fill="#3c6bbe" opacity="1.00" d=" M 8.33 39.90 C 13.91 35.71 22.74 34.51 27.31 40.82 C 24.43 43.80 20.20 46.11 20.34 50.86 C 19.84 50.83 18.85 50.77 18.35 50.74 C 13.94 50.50 9.54 50.27 5.13 50.02 C 5.98 48.69 6.83 47.35 7.66 46.01 C 5.52 47.22 3.43 48.52 1.53 50.08 C 1.00 50.51 0.50 50.95 0.00 51.41 L 0.00 38.23 C 2.81 39.10 6.34 39.14 8.18 41.81 C 10.24 44.40 12.80 46.51 15.70 48.11 C 13.24 45.37 10.72 42.69 8.33 39.90 Z" />
</g>
<g id="#407accff">
<path fill="#407acc" opacity="1.00" d=" M 25.39 0.00 L 30.48 0.00 C 32.24 0.26 35.76 0.79 37.52 1.06 C 33.65 2.67 29.82 4.39 25.94 5.98 C 22.72 7.45 19.26 5.48 16.20 4.50 C 16.16 4.04 16.09 3.11 16.06 2.65 C 20.04 4.75 24.72 4.70 28.83 2.96 C 27.70 1.95 26.55 0.97 25.39 0.00 Z" />
</g>
<g id="#3c6cbfff">
<path fill="#3c6cbf" opacity="1.00" d=" M 30.48 0.00 L 40.10 0.00 L 40.04 0.87 C 39.95 1.53 39.78 2.85 39.69 3.52 C 39.30 7.43 38.94 11.34 38.57 15.26 C 39.28 15.00 40.00 14.74 40.72 14.49 C 40.83 14.45 41.06 14.38 41.17 14.35 C 41.11 14.68 40.98 15.36 40.92 15.70 C 40.76 16.59 40.43 18.39 40.27 19.28 C 38.41 18.77 36.57 18.21 34.73 17.63 C 30.56 18.62 26.31 19.25 22.04 19.59 C 23.63 20.42 25.22 21.25 26.81 22.10 C 26.92 22.94 27.14 24.62 27.25 25.46 C 23.71 26.43 20.11 27.24 16.47 27.68 C 17.58 29.51 18.64 31.36 19.68 33.23 C 13.37 35.66 6.75 37.28 0.00 37.84 L 0.00 30.94 C 3.13 30.01 6.18 28.85 9.21 27.65 C 8.30 27.43 7.39 27.21 6.49 26.99 C 6.61 25.85 6.72 24.71 6.83 23.56 C 8.33 23.19 9.81 22.73 11.28 22.26 L 11.63 22.61 L 12.08 23.06 C 13.09 24.02 14.15 24.93 15.19 25.85 C 15.29 22.74 15.20 19.62 15.14 16.51 C 15.14 15.94 15.14 14.79 15.14 14.22 C 15.17 14.20 15.25 14.16 15.29 14.14 C 16.07 14.53 16.86 14.93 17.63 15.35 C 17.16 11.73 16.68 8.11 16.20 4.50 C 19.26 5.48 22.72 7.45 25.94 5.98 C 29.82 4.39 33.65 2.67 37.52 1.06 C 35.76 0.79 32.24 0.26 30.48 0.00 M 10.14 24.11 C 8.82 24.80 8.81 25.47 10.11 26.14 C 11.43 25.46 11.44 24.78 10.14 24.11 Z" />
<path fill="#3c6cbf" opacity="1.00" d=" M 70.20 0.00 L 85.58 0.00 C 81.93 3.10 77.23 3.48 72.67 3.49 C 75.59 4.13 78.89 6.79 81.81 4.84 C 86.13 2.27 91.04 0.94 95.95 0.00 L 97.84 0.00 C 97.60 0.35 97.13 1.05 96.89 1.40 C 95.98 2.39 95.59 3.53 95.71 4.83 C 95.91 8.03 96.08 11.23 96.40 14.41 C 96.45 14.76 96.55 15.46 96.60 15.81 C 97.22 18.71 97.76 21.65 98.66 24.49 C 100.39 26.22 102.43 27.60 104.42 29.01 C 104.19 30.19 103.96 31.37 103.73 32.56 C 101.18 32.76 98.63 32.97 96.09 33.19 C 96.10 34.10 96.12 35.90 96.13 36.81 C 103.60 36.71 108.78 31.86 113.58 26.95 C 110.33 26.58 107.08 26.24 103.84 25.81 C 106.37 25.45 108.88 25.03 111.40 24.58 C 110.34 24.06 109.27 23.57 108.20 23.08 C 109.21 22.63 110.16 22.07 111.05 21.40 C 111.45 21.04 112.24 20.31 112.63 19.95 C 113.60 20.79 114.63 21.54 115.73 22.20 C 114.70 22.55 113.69 22.92 112.68 23.30 C 114.39 24.00 116.10 24.70 117.81 25.40 C 118.38 24.89 118.95 24.38 119.52 23.87 C 119.28 23.30 118.79 22.16 118.54 21.59 C 120.56 21.21 122.58 20.83 124.60 20.44 C 124.56 21.23 124.48 22.81 124.44 23.61 C 128.07 16.23 129.67 7.72 126.19 0.00 L 138.34 0.00 C 137.75 0.55 136.57 1.66 135.98 2.21 C 133.54 2.18 131.09 2.16 128.65 2.27 C 131.25 3.27 133.80 4.62 136.60 4.98 C 138.45 3.60 139.81 1.68 141.37 0.00 L 153.83 0.00 C 150.41 7.69 151.49 16.42 155.58 23.64 C 155.54 22.84 155.45 21.22 155.41 20.41 C 157.43 20.83 159.46 21.26 161.48 21.68 C 161.43 23.06 161.41 24.45 161.33 25.83 C 160.61 28.18 159.69 30.47 158.41 32.58 C 155.84 33.14 153.17 33.06 150.56 33.34 C 150.45 31.74 148.81 30.02 147.18 31.03 C 141.49 33.59 134.04 35.52 129.50 29.91 C 131.91 23.92 139.46 25.90 144.65 24.87 C 141.28 24.00 137.65 22.74 134.22 24.05 C 129.83 25.30 128.85 30.28 126.59 33.69 C 130.36 34.82 134.54 35.24 137.94 37.23 C 139.61 40.15 137.16 43.72 136.73 46.80 C 139.59 43.27 141.51 38.92 145.05 35.99 C 149.41 33.81 154.49 34.69 159.01 35.82 C 158.96 38.34 158.93 40.85 158.90 43.37 C 156.08 44.12 153.31 44.90 150.53 45.76 C 156.50 46.50 162.50 45.72 168.39 44.70 C 165.90 44.63 163.42 44.54 160.94 44.43 C 161.46 39.59 160.63 34.02 162.91 29.53 C 166.21 28.11 170.68 29.80 173.39 26.73 C 174.32 25.98 175.21 25.18 176.12 24.40 C 175.60 24.07 174.56 23.41 174.04 23.08 C 175.66 23.17 177.24 22.63 178.67 21.90 C 180.13 22.42 181.61 23.01 183.18 23.01 C 183.41 20.93 183.32 18.84 183.39 16.76 C 183.42 16.19 183.47 15.06 183.50 14.50 C 183.72 11.29 184.04 8.08 184.28 4.87 C 184.42 3.58 184.05 2.43 183.16 1.43 C 182.92 1.07 182.44 0.36 182.21 0.00 L 197.58 0.00 C 193.93 3.10 189.23 3.48 184.67 3.49 C 187.59 4.13 190.89 6.79 193.81 4.84 C 198.13 2.27 203.04 0.94 207.95 0.00 L 209.84 0.00 C 209.60 0.35 209.13 1.05 208.89 1.40 C 207.98 2.39 207.58 3.53 207.71 4.83 C 207.91 8.03 208.08 11.23 208.40 14.41 C 208.45 14.76 208.55 15.46 208.60 15.81 C 209.21 18.71 209.76 21.65 210.66 24.49 C 212.39 26.22 214.43 27.60 216.42 29.01 C 216.19 30.19 215.96 31.37 215.73 32.55 C 213.15 32.77 210.57 33.01 208.00 33.25 C 208.08 33.83 208.24 34.99 208.32 35.56 C 210.51 36.56 212.78 37.58 214.97 38.63 C 217.39 35.39 219.85 32.20 222.25 28.96 C 219.45 27.86 216.64 26.78 213.94 25.45 L 214.61 25.10 L 215.31 24.75 C 218.01 24.80 220.72 24.87 223.43 24.86 C 222.41 24.24 221.38 23.64 220.35 23.05 C 221.39 22.56 222.38 21.99 223.34 21.34 L 224.00 20.93 L 224.00 49.79 C 214.71 49.50 205.46 50.41 196.19 50.61 C 194.50 50.33 192.83 49.98 191.16 49.64 C 194.70 45.97 197.56 41.73 199.08 36.83 C 201.46 36.41 203.84 36.00 206.22 35.59 C 205.54 33.70 204.85 31.81 204.15 29.93 C 201.76 31.83 199.60 34.12 196.78 35.39 C 192.72 36.13 189.21 32.91 185.57 31.76 C 188.15 27.41 192.89 25.77 197.87 26.31 C 197.32 22.41 199.80 19.39 202.73 17.19 C 198.58 18.09 194.31 17.82 190.18 16.94 C 192.80 18.76 195.21 20.87 197.22 23.36 C 193.55 24.72 189.83 25.97 186.13 27.25 C 185.25 29.79 185.77 33.49 182.92 34.69 C 179.39 36.17 175.68 37.17 172.06 38.42 C 174.68 41.90 177.64 45.19 181.64 47.10 C 179.47 44.58 177.25 42.11 175.22 39.48 C 181.34 36.42 188.19 34.64 194.97 36.84 C 193.47 41.20 191.07 45.21 187.78 48.46 C 188.25 49.16 188.71 49.86 189.17 50.56 C 188.45 50.58 187.03 50.61 186.31 50.62 C 181.46 50.44 176.62 50.16 171.78 49.90 C 172.89 48.26 174.02 46.63 175.13 44.99 C 173.21 45.69 171.28 46.38 169.36 47.08 C 169.78 48.41 170.19 49.73 170.60 51.06 C 168.65 50.98 166.70 51.00 164.75 51.03 C 164.49 50.70 163.96 50.02 163.70 49.69 C 164.63 49.63 166.86 49.45 166.38 48.02 C 164.96 46.84 163.19 48.21 162.06 49.13 L 161.52 49.55 C 158.99 49.20 156.43 48.90 153.88 49.20 C 149.07 49.92 144.28 50.99 139.39 50.89 C 136.94 49.59 135.33 47.26 133.62 45.16 C 132.97 45.77 132.31 46.38 131.64 46.97 C 132.22 48.23 132.81 49.48 133.40 50.73 C 132.63 50.71 131.09 50.66 130.32 50.64 C 124.87 50.10 119.40 49.66 114.02 48.61 C 114.16 49.16 114.42 50.27 114.55 50.82 C 113.74 50.71 112.93 50.61 112.12 50.52 C 107.99 50.00 103.86 49.46 99.69 49.46 C 99.29 49.49 98.48 49.56 98.08 49.60 C 93.87 50.08 89.66 50.54 85.43 50.65 C 83.33 50.24 81.24 49.76 79.16 49.28 C 83.31 43.75 86.47 36.58 93.95 34.88 C 93.34 33.16 92.69 31.46 92.04 29.75 C 89.64 31.82 87.29 33.95 84.94 36.08 C 81.17 34.59 77.43 33.05 73.69 31.47 C 76.37 27.34 81.02 25.82 85.87 26.31 C 85.31 22.41 87.80 19.39 90.73 17.19 C 86.58 18.09 82.31 17.82 78.18 16.94 C 80.80 18.76 83.21 20.87 85.22 23.36 C 81.55 24.72 77.83 25.97 74.13 27.25 C 73.58 29.39 73.26 31.61 72.42 33.67 C 68.84 36.31 64.15 36.80 60.06 38.42 C 62.68 41.90 65.64 45.19 69.64 47.10 C 67.47 44.58 65.25 42.11 63.22 39.48 C 69.36 36.41 76.25 34.62 83.05 36.88 C 81.51 40.78 79.17 44.25 76.78 47.66 C 75.93 48.53 76.90 49.60 77.12 50.51 C 76.43 50.50 75.04 50.48 74.35 50.46 C 69.49 50.31 64.63 50.11 59.77 49.92 C 60.88 48.27 62.02 46.64 63.13 45.00 C 61.19 45.69 59.25 46.38 57.32 47.08 C 57.75 48.33 58.19 49.58 58.62 50.83 C 57.81 50.70 57.00 50.58 56.20 50.47 C 53.00 50.02 49.81 49.58 46.59 49.38 C 46.07 49.33 45.55 49.29 45.03 49.25 C 45.09 48.04 45.13 46.83 45.18 45.63 C 47.56 46.32 49.95 46.98 52.38 47.46 C 50.20 46.18 48.07 44.66 45.60 43.97 C 42.87 43.80 40.16 44.69 37.46 45.11 C 39.19 45.20 40.91 45.26 42.64 45.33 C 42.17 46.34 41.71 47.34 41.25 48.34 C 42.35 48.65 43.46 48.93 44.58 49.21 C 44.14 49.43 43.26 49.87 42.82 50.09 C 37.92 50.75 32.98 51.01 28.06 51.33 C 26.64 50.84 25.23 50.30 23.82 49.78 C 27.53 43.70 31.29 37.63 36.29 32.50 C 32.53 33.80 28.79 35.67 24.69 35.31 C 22.42 34.57 20.84 32.62 19.12 31.06 C 23.39 28.44 27.18 25.16 30.97 21.92 C 33.50 19.76 36.96 20.66 39.92 21.05 C 40.83 22.49 41.73 23.94 42.82 25.25 C 44.73 27.55 47.02 29.53 48.71 32.00 C 47.47 34.54 45.50 36.60 43.77 38.81 C 46.06 38.72 48.35 38.62 50.64 38.53 C 51.23 35.33 52.24 32.24 53.48 29.25 C 50.69 28.78 47.98 27.87 45.53 26.43 C 45.97 25.93 46.86 24.93 47.30 24.43 C 47.81 24.32 48.82 24.09 49.32 23.98 C 49.02 24.56 48.41 25.71 48.10 26.29 C 50.40 26.28 52.70 26.22 55.01 26.17 C 54.16 25.17 53.31 24.17 52.46 23.17 C 53.35 22.86 54.23 22.53 55.12 22.21 C 55.61 21.99 56.61 21.57 57.10 21.35 C 57.84 22.14 58.73 22.72 59.75 23.10 C 58.69 23.68 57.64 24.28 56.59 24.90 C 59.21 25.04 61.83 25.16 64.45 25.16 C 63.84 24.64 62.63 23.59 62.02 23.07 C 63.65 23.21 65.22 22.62 66.66 21.91 C 68.12 22.42 69.60 23.01 71.16 23.00 C 71.42 20.94 71.35 18.85 71.42 16.78 C 71.45 16.22 71.51 15.09 71.54 14.52 C 71.77 11.31 72.04 8.09 72.26 4.87 C 72.40 3.58 72.03 2.43 71.15 1.43 C 70.91 1.07 70.44 0.36 70.20 0.00 M 138.71 9.44 C 141.11 10.62 143.56 11.71 146.04 12.73 C 145.38 14.05 144.70 15.37 144.03 16.69 C 146.38 16.57 148.73 16.49 151.08 16.51 C 148.25 14.57 146.23 11.79 144.58 8.83 C 142.62 9.03 140.66 9.24 138.71 9.44 M 122.14 22.11 C 120.82 22.80 120.81 23.47 122.11 24.14 C 123.43 23.46 123.44 22.78 122.14 22.11 M 157.15 22.40 C 156.30 26.38 161.14 21.58 157.15 22.40 M 66.14 23.11 C 64.82 23.80 64.81 24.47 66.11 25.14 C 67.43 24.46 67.44 23.78 66.14 23.11 M 178.14 23.11 C 176.82 23.80 176.81 24.47 178.11 25.14 C 179.43 24.46 179.44 23.78 178.14 23.11 M 29.19 27.21 C 27.40 27.63 28.28 30.46 29.98 29.96 C 31.78 29.58 30.88 26.69 29.19 27.21 M 114.60 36.92 C 114.41 37.48 114.21 38.04 114.02 38.59 C 115.19 38.85 116.36 39.10 117.52 39.35 C 117.50 39.75 117.45 40.56 117.42 40.97 C 121.31 38.82 125.39 37.06 129.39 35.14 C 124.48 35.92 119.62 37.65 114.60 36.92 M 212.87 43.08 C 213.67 44.55 214.46 46.01 215.29 47.46 C 215.46 45.58 215.63 43.70 215.79 41.82 C 214.82 42.24 213.84 42.66 212.87 43.08 M 96.67 45.60 C 98.41 46.16 100.16 46.71 101.91 47.24 C 101.94 46.42 101.99 44.76 102.02 43.93 C 100.23 44.48 98.45 45.03 96.67 45.60 M 209.53 45.12 C 209.68 45.44 209.96 46.09 210.10 46.41 C 212.70 47.02 210.95 42.94 209.53 45.12 Z" />
</g>
<g id="#268dd8ff">
<path fill="#268dd8" opacity="1.00" d=" M 40.10 0.00 L 42.64 0.00 C 42.78 0.50 43.06 1.49 43.20 1.98 C 42.96 3.28 42.76 4.58 42.58 5.89 C 41.88 10.17 42.99 14.33 43.87 18.47 C 43.58 16.98 43.36 13.85 41.17 14.35 C 41.06 14.38 40.83 14.45 40.72 14.49 C 40.00 14.74 39.28 15.00 38.57 15.26 C 38.94 11.34 39.30 7.43 39.69 3.52 C 42.15 6.21 42.42 1.59 40.04 0.87 L 40.10 0.00 Z" />
<path fill="#268dd8" opacity="1.00" d=" M 124.93 0.00 L 126.19 0.00 C 129.67 7.72 128.07 16.23 124.44 23.61 C 124.48 22.81 124.56 21.23 124.60 20.44 C 124.79 18.17 125.20 15.93 125.56 13.68 C 125.25 14.11 124.62 14.97 124.31 15.40 C 125.06 13.91 125.77 12.40 126.34 10.83 C 126.11 9.56 125.66 7.04 125.43 5.77 C 125.23 4.59 125.02 3.42 124.81 2.24 C 124.84 1.68 124.90 0.56 124.93 0.00 Z" />
<path fill="#268dd8" opacity="1.00" d=" M 153.83 0.00 L 155.07 0.00 C 155.14 0.51 155.29 1.52 155.36 2.02 C 155.06 3.30 154.78 4.57 154.52 5.85 C 154.27 7.08 153.78 9.54 153.54 10.77 C 154.16 12.35 154.90 13.89 155.70 15.40 C 155.38 14.97 154.75 14.10 154.44 13.67 C 154.79 15.91 155.21 18.15 155.41 20.41 C 155.45 21.22 155.54 22.84 155.58 23.64 C 151.49 16.42 150.41 7.69 153.83 0.00 Z" />
</g>
<g id="#82ac5aff">
<path fill="#82ac5a" opacity="1.00" d=" M 44.84 0.00 L 66.16 0.00 C 66.03 0.44 65.77 1.33 65.64 1.77 C 62.22 2.85 59.27 4.97 57.64 8.24 C 57.41 8.25 56.94 8.27 56.71 8.28 C 56.80 6.88 56.90 5.47 56.99 4.07 C 56.49 4.06 55.50 4.06 55.01 4.06 C 55.11 5.48 55.20 6.90 55.30 8.32 C 55.08 8.32 54.62 8.32 54.39 8.32 C 52.40 5.41 49.70 3.12 46.76 1.21 C 46.28 0.91 45.32 0.30 44.84 0.00 M 51.56 1.49 C 51.13 3.20 54.16 3.84 54.73 2.29 C 55.01 0.68 52.25 0.22 51.56 1.49 Z" />
<path fill="#82ac5a" opacity="1.00" d=" M 100.88 0.00 L 122.16 0.00 C 122.03 0.44 121.77 1.33 121.64 1.77 C 118.22 2.85 115.28 4.98 113.64 8.23 C 113.41 8.24 112.94 8.25 112.71 8.25 C 112.80 6.86 112.89 5.46 112.99 4.06 C 112.49 4.06 111.51 4.06 111.01 4.06 C 111.10 5.46 111.20 6.85 111.29 8.25 C 111.06 8.24 110.61 8.23 110.38 8.22 C 108.39 5.58 105.94 3.36 103.31 1.38 C 102.70 1.04 101.49 0.35 100.88 0.00 M 107.56 1.49 C 107.12 3.20 110.16 3.84 110.73 2.29 C 111.01 0.68 108.25 0.22 107.56 1.49 Z" />
<path fill="#82ac5a" opacity="1.00" d=" M 156.86 0.00 L 178.17 0.00 C 178.03 0.44 177.77 1.33 177.64 1.77 C 174.22 2.85 171.27 4.97 169.64 8.24 C 169.41 8.25 168.94 8.27 168.71 8.28 C 168.80 6.88 168.89 5.47 168.99 4.07 C 168.49 4.06 167.51 4.06 167.01 4.06 C 167.10 5.48 167.20 6.90 167.30 8.32 C 167.07 8.32 166.62 8.32 166.40 8.32 C 164.39 5.41 161.70 3.12 158.76 1.20 C 158.28 0.90 157.33 0.30 156.86 0.00 M 163.56 1.49 C 163.12 3.20 166.15 3.84 166.73 2.29 C 167.01 0.68 164.25 0.22 163.56 1.49 Z" />
</g>
<g id="#4179cbff">
<path fill="#4179cb" opacity="1.00" d=" M 85.58 0.00 L 95.95 0.00 C 91.04 0.94 86.13 2.27 81.81 4.84 C 78.89 6.79 75.59 4.13 72.67 3.49 C 77.23 3.48 81.93 3.10 85.58 0.00 Z" />
<path fill="#4179cb" opacity="1.00" d=" M 197.58 0.00 L 207.95 0.00 C 203.04 0.94 198.13 2.27 193.81 4.84 C 190.89 6.79 187.59 4.13 184.67 3.49 C 189.23 3.48 193.93 3.10 197.58 0.00 Z" />
</g>
<g id="#268ed9ff">
<path fill="#268ed9" opacity="1.00" d=" M 97.84 0.00 L 98.99 0.00 C 99.06 0.49 99.19 1.48 99.25 1.98 C 98.99 3.27 98.75 4.57 98.55 5.88 C 97.50 9.84 98.80 13.62 100.20 17.24 C 99.35 15.85 98.09 14.61 96.40 14.41 C 96.08 11.23 95.91 8.03 95.71 4.83 C 97.71 5.10 97.75 2.58 96.89 1.40 C 97.13 1.05 97.60 0.35 97.84 0.00 Z" />
<path fill="#268ed9" opacity="1.00" d=" M 209.84 0.00 L 210.99 0.00 C 211.06 0.49 211.19 1.48 211.25 1.98 C 210.99 3.27 210.75 4.57 210.55 5.88 C 209.50 9.84 210.79 13.63 212.20 17.24 C 211.35 15.85 210.09 14.61 208.40 14.41 C 208.08 11.23 207.91 8.03 207.71 4.83 C 209.70 5.10 209.75 2.58 208.89 1.40 C 209.13 1.05 209.60 0.35 209.84 0.00 Z" />
<path fill="#268ed9" opacity="1.00" d=" M 54.17 20.41 C 55.33 19.77 56.65 19.54 57.96 19.42 C 57.74 19.90 57.32 20.87 57.10 21.35 C 56.61 21.57 55.61 21.99 55.12 22.21 C 54.88 21.76 54.40 20.86 54.17 20.41 Z" />
<path fill="#268ed9" opacity="1.00" d=" M 110.11 19.33 C 110.57 19.19 111.48 18.92 111.94 18.79 C 112.11 19.08 112.46 19.66 112.63 19.95 C 112.24 20.31 111.45 21.04 111.05 21.40 C 110.82 20.88 110.35 19.85 110.11 19.33 Z" />
<path fill="#268ed9" opacity="1.00" d=" M 222.12 19.34 C 222.59 19.33 223.53 19.32 224.00 19.31 L 224.00 20.93 L 223.34 21.34 C 223.03 20.84 222.42 19.84 222.12 19.34 Z" />
</g>
<g id="#4476cbff">
<path fill="#4476cb" opacity="1.00" d=" M 138.34 0.00 L 141.37 0.00 C 139.81 1.68 138.45 3.60 136.60 4.98 C 133.80 4.62 131.25 3.27 128.65 2.27 C 131.09 2.16 133.54 2.18 135.98 2.21 C 136.57 1.66 137.75 0.55 138.34 0.00 Z" />
</g>
<g id="#84ad5aff">
<path fill="#84ad5a" opacity="1.00" d=" M 212.87 0.00 L 224.00 0.00 L 224.00 4.31 C 222.67 4.96 221.78 6.91 223.29 7.93 C 223.06 7.94 222.59 7.96 222.36 7.98 C 220.28 5.46 217.80 3.32 215.20 1.36 C 214.62 1.02 213.45 0.34 212.87 0.00 M 219.56 1.49 C 219.12 3.20 222.15 3.84 222.73 2.29 C 223.01 0.68 220.25 0.22 219.56 1.49 Z" />
</g>
<g id="#86a0b1ff">
<path fill="#86a0b1" opacity="1.00" d=" M 16.20 4.50 C 13.93 4.61 13.44 1.86 15.30 0.83 C 15.49 1.29 15.87 2.20 16.06 2.65 C 16.09 3.11 16.16 4.04 16.20 4.50 Z" />
<path fill="#86a0b1" opacity="1.00" d=" M 40.04 0.87 C 42.42 1.59 42.15 6.21 39.69 3.52 C 39.78 2.85 39.95 1.53 40.04 0.87 Z" />
</g>
<g id="#6f9a52ff">
<path fill="#6f9a52" opacity="1.00" d=" M 51.56 1.49 C 52.25 0.22 55.01 0.68 54.73 2.29 C 54.16 3.84 51.13 3.20 51.56 1.49 Z" />
<path fill="#6f9a52" opacity="1.00" d=" M 107.56 1.49 C 108.25 0.22 111.01 0.68 110.73 2.29 C 110.16 3.84 107.12 3.20 107.56 1.49 Z" />
<path fill="#6f9a52" opacity="1.00" d=" M 163.56 1.49 C 164.25 0.22 167.01 0.68 166.73 2.29 C 166.15 3.84 163.12 3.20 163.56 1.49 Z" />
<path fill="#6f9a52" opacity="1.00" d=" M 219.56 1.49 C 220.25 0.22 223.01 0.68 222.73 2.29 C 222.15 3.84 219.12 3.20 219.56 1.49 Z" />
</g>
<g id="#709e5cff">
<path fill="#709e5c" opacity="1.00" d=" M 3.79 3.98 C 5.51 3.36 7.21 2.71 8.90 2.03 C 9.32 3.80 9.73 5.58 10.12 7.36 C 7.51 7.75 4.89 8.12 2.24 8.12 C 2.76 6.74 3.26 5.36 3.79 3.98 Z" />
<path fill="#709e5c" opacity="1.00" d=" M 46.76 1.21 C 49.70 3.12 52.40 5.41 54.39 8.32 C 51.76 8.26 48.92 8.24 46.63 6.76 C 46.47 4.91 46.66 3.06 46.76 1.21 Z" />
<path fill="#709e5c" opacity="1.00" d=" M 57.64 8.24 C 59.27 4.97 62.22 2.85 65.64 1.77 C 65.46 3.72 65.40 5.68 65.32 7.64 C 62.76 7.90 60.20 8.13 57.64 8.24 Z" />
<path fill="#709e5c" opacity="1.00" d=" M 103.31 1.38 C 105.94 3.36 108.39 5.58 110.38 8.22 C 107.52 8.13 104.68 7.75 101.86 7.28 C 102.33 5.31 102.82 3.34 103.31 1.38 Z" />
<path fill="#709e5c" opacity="1.00" d=" M 113.64 8.23 C 115.28 4.98 118.22 2.85 121.64 1.77 C 121.46 3.72 121.40 5.67 121.32 7.63 C 118.76 7.93 116.21 8.16 113.64 8.23 Z" />
<path fill="#709e5c" opacity="1.00" d=" M 158.76 1.20 C 161.70 3.12 164.39 5.41 166.40 8.32 C 163.76 8.26 160.92 8.24 158.63 6.76 C 158.47 4.91 158.65 3.05 158.76 1.20 Z" />
<path fill="#709e5c" opacity="1.00" d=" M 169.64 8.24 C 171.27 4.97 174.22 2.85 177.64 1.77 C 177.46 3.72 177.40 5.68 177.32 7.64 C 174.76 7.90 172.20 8.13 169.64 8.24 Z" />
<path fill="#709e5c" opacity="1.00" d=" M 215.20 1.36 C 217.80 3.32 220.28 5.46 222.36 7.98 C 219.64 8.08 216.91 7.92 214.20 7.73 C 214.50 5.60 214.84 3.48 215.20 1.36 Z" />
</g>
<g id="#7392b4ff">
<path fill="#7392b4" opacity="1.00" d=" M 72.26 4.87 C 70.26 5.11 70.25 2.58 71.15 1.43 C 72.03 2.43 72.40 3.58 72.26 4.87 Z" />
<path fill="#7392b4" opacity="1.00" d=" M 95.71 4.83 C 95.59 3.53 95.98 2.39 96.89 1.40 C 97.75 2.58 97.71 5.10 95.71 4.83 Z" />
<path fill="#7392b4" opacity="1.00" d=" M 184.28 4.87 C 182.28 5.11 182.26 2.59 183.16 1.43 C 184.05 2.43 184.42 3.58 184.28 4.87 Z" />
<path fill="#7392b4" opacity="1.00" d=" M 207.71 4.83 C 207.58 3.53 207.98 2.39 208.89 1.40 C 209.75 2.58 209.70 5.10 207.71 4.83 Z" />
</g>
<g id="#645a4bff">
<path fill="#645a4b" opacity="1.00" d=" M 11.59 12.79 C 11.66 9.23 12.47 5.75 13.02 2.25 C 13.13 3.43 13.23 4.62 13.32 5.80 C 12.93 8.17 12.26 10.48 11.59 12.79 Z" />
<path fill="#645a4b" opacity="1.00" d=" M 43.20 1.98 C 44.33 5.56 44.66 9.32 44.73 13.06 C 43.85 10.72 43.11 8.33 42.58 5.89 C 42.76 4.58 42.96 3.28 43.20 1.98 Z" />
<path fill="#645a4b" opacity="1.00" d=" M 67.58 12.78 C 67.67 9.22 68.45 5.74 69.00 2.24 C 69.13 3.42 69.25 4.61 69.35 5.80 C 68.95 8.17 68.27 10.48 67.58 12.78 Z" />
<path fill="#645a4b" opacity="1.00" d=" M 99.25 1.98 C 100.10 5.61 100.48 9.33 100.73 13.04 C 99.86 10.70 99.10 8.32 98.55 5.88 C 98.75 4.57 98.99 3.27 99.25 1.98 Z" />
<path fill="#645a4b" opacity="1.00" d=" M 123.58 12.76 C 123.73 9.23 124.34 5.74 124.81 2.24 C 125.02 3.42 125.23 4.59 125.43 5.77 C 124.99 8.14 124.27 10.45 123.58 12.76 Z" />
<path fill="#645a4b" opacity="1.00" d=" M 155.36 2.02 C 156.11 5.65 156.46 9.34 156.71 13.04 C 155.87 10.68 155.09 8.29 154.52 5.85 C 154.78 4.57 155.06 3.30 155.36 2.02 Z" />
<path fill="#645a4b" opacity="1.00" d=" M 179.58 12.78 C 179.67 9.22 180.45 5.74 181.00 2.24 C 181.13 3.42 181.25 4.61 181.36 5.80 C 180.94 8.17 180.27 10.48 179.58 12.78 Z" />
<path fill="#645a4b" opacity="1.00" d=" M 211.25 1.98 C 212.10 5.61 212.47 9.33 212.73 13.04 C 211.86 10.70 211.10 8.32 210.55 5.88 C 210.75 4.57 210.99 3.27 211.25 1.98 Z" />
</g>
<g id="#5c8260ff">
<path fill="#5c8260" opacity="1.00" d=" M 0.00 4.37 C 1.30 5.06 2.16 7.00 0.71 8.06 L 0.00 8.01 L 0.00 4.37 Z" />
<path fill="#5c8260" opacity="1.00" d=" M 55.01 4.06 C 55.50 4.06 56.49 4.06 56.99 4.07 C 56.90 5.47 56.80 6.88 56.71 8.28 C 56.36 8.29 55.66 8.31 55.30 8.32 C 55.20 6.90 55.11 5.48 55.01 4.06 Z" />
<path fill="#5c8260" opacity="1.00" d=" M 111.01 4.06 C 111.51 4.06 112.49 4.06 112.99 4.06 C 112.89 5.46 112.80 6.86 112.71 8.25 C 112.35 8.25 111.65 8.25 111.29 8.25 C 111.20 6.85 111.10 5.46 111.01 4.06 Z" />
<path fill="#5c8260" opacity="1.00" d=" M 167.01 4.06 C 167.51 4.06 168.49 4.06 168.99 4.07 C 168.89 5.47 168.80 6.88 168.71 8.28 C 168.35 8.29 167.65 8.31 167.30 8.32 C 167.20 6.90 167.10 5.48 167.01 4.06 Z" />
<path fill="#5c8260" opacity="1.00" d=" M 223.29 7.93 C 221.78 6.91 222.67 4.96 224.00 4.31 L 224.00 7.86 L 223.29 7.93 Z" />
</g>
<g id="#4377cafe">
<path fill="#4377ca" opacity="1.00" d=" M 138.71 9.44 C 140.66 9.24 142.62 9.03 144.58 8.83 C 146.23 11.79 148.25 14.57 151.08 16.51 C 148.73 16.49 146.38 16.57 144.03 16.69 C 144.70 15.37 145.38 14.05 146.04 12.73 C 143.56 11.71 141.11 10.62 138.71 9.44 Z" />
</g>
<g id="#6c604cff">
<path fill="#6c604c" opacity="1.00" d=" M 6.24 9.47 C 6.94 9.35 8.35 9.10 9.05 8.98 C 9.68 12.66 10.25 16.36 10.54 20.08 L 9.76 20.66 C 9.34 20.97 8.50 21.58 8.09 21.89 C 7.52 17.75 6.88 13.61 6.24 9.47 Z" />
<path fill="#6c604c" opacity="1.00" d=" M 47.08 8.94 C 47.71 9.08 48.96 9.34 49.59 9.47 C 48.90 13.58 48.32 17.69 47.89 21.83 C 47.40 21.46 46.43 20.73 45.94 20.37 L 45.45 19.99 C 45.96 16.31 46.53 12.63 47.08 8.94 Z" />
<path fill="#6c604c" opacity="1.00" d=" M 62.06 9.52 C 62.81 9.38 64.31 9.10 65.05 8.96 C 65.76 12.81 66.52 16.67 66.62 20.60 L 66.20 21.74 C 65.78 21.51 64.93 21.06 64.51 20.84 C 63.57 17.09 62.83 13.30 62.06 9.52 Z" />
<path fill="#6c604c" opacity="1.00" d=" M 102.95 8.92 C 103.67 9.07 105.11 9.37 105.83 9.52 C 105.02 13.23 104.17 16.93 103.31 20.63 C 102.88 20.78 102.02 21.08 101.59 21.22 L 101.33 20.39 C 101.71 16.55 102.39 12.74 102.95 8.92 Z" />
<path fill="#6c604c" opacity="1.00" d=" M 174.07 9.52 C 174.81 9.38 176.31 9.10 177.05 8.96 C 177.76 12.81 178.51 16.67 178.62 20.59 L 178.21 21.72 C 177.78 21.50 176.93 21.05 176.50 20.83 C 175.56 17.08 174.82 13.30 174.07 9.52 Z" />
<path fill="#6c604c" opacity="1.00" d=" M 214.95 8.92 C 215.66 9.07 217.09 9.37 217.81 9.52 C 217.02 13.24 216.20 16.97 215.38 20.69 C 214.93 20.82 214.04 21.09 213.60 21.22 L 213.34 20.39 C 213.72 16.55 214.39 12.74 214.95 8.92 Z" />
</g>
<g id="#6c5f4bff">
<path fill="#6c5f4b" opacity="1.00" d=" M 118.19 9.50 C 118.79 9.40 119.99 9.20 120.59 9.11 C 121.46 11.67 122.39 14.22 123.32 16.76 C 122.31 17.87 121.20 18.88 120.03 19.81 C 119.42 16.37 118.79 12.94 118.19 9.50 Z" />
<path fill="#6c5f4b" opacity="1.00" d=" M 159.43 9.12 C 160.01 9.20 161.16 9.38 161.74 9.46 C 161.16 12.92 160.47 16.36 159.95 19.83 C 158.78 18.89 157.68 17.86 156.69 16.75 C 157.62 14.21 158.54 11.67 159.43 9.12 Z" />
</g>
<g id="#565249ff">
<path fill="#565249" opacity="1.00" d=" M 3.96 11.50 C 5.47 13.91 6.62 16.53 7.09 19.37 C 5.86 16.83 4.75 14.22 3.96 11.50 Z" />
<path fill="#565249" opacity="1.00" d=" M 48.91 19.37 C 49.37 16.53 50.53 13.91 52.04 11.50 C 51.25 14.22 50.14 16.83 48.91 19.37 Z" />
<path fill="#565249" opacity="1.00" d=" M 59.96 11.50 C 61.47 13.91 62.61 16.53 63.09 19.37 C 61.86 16.83 60.75 14.22 59.96 11.50 Z" />
<path fill="#565249" opacity="1.00" d=" M 104.91 19.37 C 105.36 16.53 106.54 13.91 108.04 11.50 C 107.25 14.22 106.14 16.83 104.91 19.37 Z" />
<path fill="#565249" opacity="1.00" d=" M 115.96 11.50 C 117.47 13.91 118.61 16.53 119.09 19.37 C 117.86 16.83 116.75 14.22 115.96 11.50 Z" />
<path fill="#565249" opacity="1.00" d=" M 160.91 19.37 C 161.36 16.53 162.54 13.91 164.04 11.50 C 163.25 14.22 162.14 16.83 160.91 19.37 Z" />
<path fill="#565249" opacity="1.00" d=" M 171.96 11.50 C 173.48 13.91 174.60 16.53 175.09 19.37 C 173.86 16.83 172.75 14.22 171.96 11.50 Z" />
<path fill="#565249" opacity="1.00" d=" M 216.91 19.37 C 217.35 16.53 218.54 13.91 220.04 11.50 C 219.25 14.22 218.14 16.83 216.91 19.37 Z" />
<path fill="#565249" opacity="1.00" d=" M 2.44 18.93 C 3.91 16.31 6.15 19.41 4.41 21.06 C 4.07 20.98 3.38 20.82 3.04 20.75 C 2.89 20.29 2.59 19.38 2.44 18.93 Z" />
<path fill="#565249" opacity="1.00" d=" M 51.14 20.88 C 50.35 18.95 52.59 15.87 53.53 19.04 C 53.33 19.47 52.92 20.32 52.72 20.75 C 52.32 20.78 51.53 20.85 51.14 20.88 Z" />
<path fill="#565249" opacity="1.00" d=" M 58.72 19.32 C 58.47 16.55 61.26 17.37 60.96 19.65 C 60.57 19.69 59.81 19.78 59.42 19.82 L 58.72 19.32 Z" />
<path fill="#565249" opacity="1.00" d=" M 107.08 19.67 C 107.01 17.47 110.17 16.74 109.30 19.50 L 108.54 19.98 C 108.18 19.90 107.45 19.75 107.08 19.67 Z" />
<path fill="#565249" opacity="1.00" d=" M 170.91 19.42 C 169.99 16.56 173.26 17.41 172.98 19.71 C 172.63 19.77 171.93 19.89 171.58 19.95 L 170.91 19.42 Z" />
<path fill="#565249" opacity="1.00" d=" M 219.12 19.74 C 218.91 17.51 222.06 16.66 221.32 19.46 L 220.60 19.95 C 220.23 19.90 219.49 19.79 219.12 19.74 Z" />
</g>
<g id="#709fc2fe">
<path fill="#709fc2" opacity="1.00" d=" M 12.08 18.62 C 12.36 16.76 13.32 14.97 15.14 14.22 C 15.14 14.79 15.14 15.94 15.14 16.51 C 14.32 17.61 13.10 18.28 11.98 19.02 L 12.08 18.62 Z" />
<path fill="#709fc2" opacity="1.00" d=" M 41.17 14.35 C 43.36 13.85 43.58 16.98 43.87 18.47 L 43.94 18.86 C 42.73 18.03 41.62 17.01 40.92 15.70 C 40.98 15.36 41.11 14.68 41.17 14.35 Z" />
</g>
<g id="#7ca2beff">
<path fill="#7ca2be" opacity="1.00" d=" M 67.97 17.19 C 68.97 16.08 70.14 15.09 71.54 14.52 C 71.51 15.09 71.45 16.22 71.42 16.78 C 70.32 17.45 69.12 17.72 67.83 17.59 L 67.97 17.19 Z" />
<path fill="#7ca2be" opacity="1.00" d=" M 96.40 14.41 C 98.09 14.61 99.35 15.85 100.20 17.24 L 100.35 17.68 C 98.91 17.60 97.49 16.98 96.60 15.81 C 96.55 15.46 96.45 14.76 96.40 14.41 Z" />
<path fill="#7ca2be" opacity="1.00" d=" M 179.96 17.20 C 180.94 16.07 182.10 15.08 183.50 14.50 C 183.47 15.06 183.42 16.19 183.39 16.76 C 182.30 17.44 181.11 17.72 179.82 17.60 L 179.96 17.20 Z" />
<path fill="#7ca2be" opacity="1.00" d=" M 208.40 14.41 C 210.09 14.61 211.35 15.85 212.20 17.24 L 212.35 17.68 C 210.91 17.60 209.49 16.98 208.60 15.81 C 208.55 15.46 208.45 14.76 208.40 14.41 Z" />
</g>
<g id="#7fa1b9ff">
<path fill="#7fa1b9" opacity="1.00" d=" M 124.31 15.40 C 124.62 14.97 125.25 14.11 125.56 13.68 C 125.20 15.93 124.79 18.17 124.60 20.44 C 122.58 20.83 120.56 21.21 118.54 21.59 L 117.36 21.82 L 117.81 21.47 C 118.36 21.06 119.48 20.22 120.03 19.81 C 121.20 18.88 122.31 17.87 123.32 16.76 C 123.57 16.42 124.06 15.74 124.31 15.40 Z" />
<path fill="#7fa1b9" opacity="1.00" d=" M 154.44 13.67 C 154.75 14.10 155.38 14.97 155.70 15.40 C 155.94 15.74 156.44 16.41 156.69 16.75 C 157.68 17.86 158.78 18.89 159.95 19.83 C 160.50 20.26 161.60 21.11 162.15 21.54 L 162.61 21.91 L 161.48 21.68 C 159.46 21.26 157.43 20.83 155.41 20.41 C 155.21 18.15 154.79 15.91 154.44 13.67 Z" />
</g>
<g id="#4379cbff">
<path fill="#4379cb" opacity="1.00" d=" M 34.73 17.63 C 36.57 18.21 38.41 18.77 40.27 19.28 C 40.18 19.73 40.01 20.61 39.92 21.05 C 36.96 20.66 33.50 19.76 30.97 21.92 C 27.18 25.16 23.39 28.44 19.12 31.06 C 20.84 32.62 22.42 34.57 24.69 35.31 C 28.79 35.67 32.53 33.80 36.29 32.50 C 31.29 37.63 27.53 43.70 23.82 49.78 C 25.23 50.30 26.64 50.84 28.06 51.33 C 26.29 51.31 24.51 51.26 22.74 51.16 C 22.14 51.08 20.94 50.93 20.34 50.86 C 20.20 46.11 24.43 43.80 27.31 40.82 C 22.74 34.51 13.91 35.71 8.33 39.90 C 10.72 42.69 13.24 45.37 15.70 48.11 C 12.80 46.51 10.24 44.40 8.18 41.81 C 6.34 39.14 2.81 39.10 0.00 38.23 L 0.00 37.84 C 6.75 37.28 13.37 35.66 19.68 33.23 C 18.64 31.36 17.58 29.51 16.47 27.68 C 20.11 27.24 23.71 26.43 27.25 25.46 C 27.14 24.62 26.92 22.94 26.81 22.10 C 25.22 21.25 23.63 20.42 22.04 19.59 C 26.31 19.25 30.56 18.62 34.73 17.63 Z" />
</g>
<g id="#298ad7ff">
<path fill="#298ad7" opacity="1.00" d=" M 40.92 15.70 C 41.62 17.01 42.73 18.03 43.94 18.86 C 44.32 19.14 45.07 19.71 45.45 19.99 L 45.94 20.37 C 45.68 20.76 45.17 21.54 44.91 21.93 L 44.51 22.54 C 44.57 21.42 42.81 19.75 42.15 21.35 C 42.22 22.52 42.88 23.10 44.15 23.11 C 43.82 23.65 43.15 24.71 42.82 25.25 C 41.73 23.94 40.83 22.49 39.92 21.05 C 40.01 20.61 40.18 19.73 40.27 19.28 C 40.43 18.39 40.76 16.59 40.92 15.70 Z" />
</g>
<g id="#3a94d8ff">
<path fill="#3a94d8" opacity="1.00" d=" M 96.60 15.81 C 97.49 16.98 98.91 17.60 100.35 17.68 C 100.68 18.58 101.01 19.48 101.33 20.39 L 101.59 21.22 L 101.27 21.57 C 100.40 22.54 99.53 23.51 98.66 24.49 C 97.76 21.65 97.22 18.71 96.60 15.81 Z" />
<path fill="#3a94d8" opacity="1.00" d=" M 208.60 15.81 C 209.49 16.98 210.91 17.60 212.35 17.68 C 212.69 18.58 213.02 19.49 213.34 20.39 L 213.60 21.22 L 213.28 21.57 C 212.40 22.54 211.53 23.51 210.66 24.49 C 209.76 21.65 209.21 18.71 208.60 15.81 Z" />
</g>
<g id="#2a8ad7ff">
<path fill="#2a8ad7" opacity="1.00" d=" M 11.98 19.02 C 13.10 18.28 14.32 17.61 15.14 16.51 C 15.20 19.62 15.29 22.74 15.19 25.85 C 14.15 24.93 13.09 24.02 12.08 23.06 C 13.35 22.97 13.95 22.35 13.89 21.22 C 13.05 19.68 11.43 21.43 11.63 22.61 L 11.28 22.26 C 10.90 21.86 10.14 21.06 9.76 20.66 L 10.54 20.08 C 10.90 19.82 11.62 19.29 11.98 19.02 Z" />
</g>
<g id="#3893d8ff">
<path fill="#3893d8" opacity="1.00" d=" M 67.83 17.59 C 69.12 17.72 70.32 17.45 71.42 16.78 C 71.35 18.85 71.42 20.94 71.16 23.00 C 69.60 23.01 68.12 22.42 66.66 21.91 L 66.20 21.74 L 66.62 20.60 C 67.02 19.60 67.42 18.59 67.83 17.59 Z" />
<path fill="#3893d8" opacity="1.00" d=" M 179.82 17.60 C 181.11 17.72 182.30 17.44 183.39 16.76 C 183.32 18.84 183.41 20.93 183.18 23.01 C 181.61 23.01 180.13 22.42 178.67 21.90 L 178.21 21.72 L 178.62 20.59 C 179.02 19.59 179.42 18.60 179.82 17.60 Z" />
</g>
<g id="#4379caff">
<path fill="#4379ca" opacity="1.00" d=" M 78.18 16.94 C 82.31 17.82 86.58 18.09 90.73 17.19 C 87.80 19.39 85.31 22.41 85.87 26.31 C 81.02 25.82 76.37 27.34 73.69 31.47 C 77.43 33.05 81.17 34.59 84.94 36.08 C 87.29 33.95 89.64 31.82 92.04 29.75 C 92.69 31.46 93.34 33.16 93.95 34.88 C 86.47 36.58 83.31 43.75 79.16 49.28 C 81.24 49.76 83.33 50.24 85.43 50.65 C 84.97 50.68 84.04 50.72 83.58 50.75 C 82.00 50.67 80.25 50.79 79.04 51.96 C 78.56 51.60 77.60 50.87 77.12 50.51 C 76.90 49.60 75.93 48.53 76.78 47.66 C 79.17 44.25 81.51 40.78 83.05 36.88 C 76.25 34.62 69.36 36.41 63.22 39.48 C 65.25 42.11 67.47 44.58 69.64 47.10 C 65.64 45.19 62.68 41.90 60.06 38.42 C 64.15 36.80 68.84 36.31 72.42 33.67 C 73.26 31.61 73.58 29.39 74.13 27.25 C 77.83 25.97 81.55 24.72 85.22 23.36 C 83.21 20.87 80.80 18.76 78.18 16.94 Z" />
<path fill="#4379ca" opacity="1.00" d=" M 114.60 36.92 C 119.62 37.65 124.48 35.92 129.39 35.14 C 125.39 37.06 121.31 38.82 117.42 40.97 C 117.45 40.56 117.50 39.75 117.52 39.35 C 116.36 39.10 115.19 38.85 114.02 38.59 C 114.21 38.04 114.41 37.48 114.60 36.92 Z" />
</g>
<g id="#4a463eff">
<path fill="#4a463e" opacity="1.00" d=" M 114.41 18.03 C 115.36 16.67 117.31 17.52 116.99 19.14 C 116.35 18.86 115.06 18.31 114.41 18.03 Z" />
<path fill="#4a463e" opacity="1.00" d=" M 162.95 19.11 C 162.67 17.49 164.64 16.67 165.55 18.07 C 164.90 18.33 163.60 18.85 162.95 19.11 Z" />
</g>
<g id="#4378cafe">
<path fill="#4378ca" opacity="1.00" d=" M 190.18 16.94 C 194.31 17.82 198.58 18.09 202.73 17.19 C 199.80 19.39 197.32 22.41 197.87 26.31 C 192.89 25.77 188.15 27.41 185.57 31.76 C 189.21 32.91 192.72 36.13 196.78 35.39 C 199.60 34.12 201.76 31.83 204.15 29.93 C 204.85 31.81 205.54 33.70 206.22 35.59 C 203.84 36.00 201.46 36.41 199.08 36.83 C 197.56 41.73 194.70 45.97 191.16 49.64 C 192.83 49.98 194.50 50.33 196.19 50.61 L 195.33 50.61 C 193.27 50.57 191.22 50.56 189.17 50.56 C 188.71 49.86 188.25 49.16 187.78 48.46 C 191.07 45.21 193.47 41.20 194.97 36.84 C 188.19 34.64 181.34 36.42 175.22 39.48 C 177.25 42.11 179.47 44.58 181.64 47.10 C 177.64 45.19 174.68 41.90 172.06 38.42 C 175.68 37.17 179.39 36.17 182.92 34.69 C 185.77 33.49 185.25 29.79 186.13 27.25 C 189.83 25.97 193.55 24.72 197.22 23.36 C 195.21 20.87 192.80 18.76 190.18 16.94 Z" />
</g>
<g id="#9cb3c7fe">
<path fill="#9cb3c7" opacity="1.00" d=" M 111.94 18.79 C 112.45 18.63 113.49 18.32 114.01 18.17 C 114.88 19.38 115.42 20.78 116.12 22.09 L 115.73 22.20 C 114.63 21.54 113.60 20.79 112.63 19.95 C 112.46 19.66 112.11 19.08 111.94 18.79 Z" />
<path fill="#9cb3c7" opacity="1.00" d=" M 165.92 18.23 C 166.45 18.42 167.52 18.80 168.05 18.99 C 166.92 20.21 165.73 21.40 164.30 22.28 L 163.86 22.18 C 164.42 20.81 164.95 19.37 165.92 18.23 Z" />
<path fill="#9cb3c7" opacity="1.00" d=" M 57.96 19.42 L 58.72 19.32 L 59.42 19.82 C 59.59 20.86 59.86 21.87 60.21 22.86 L 59.75 23.10 C 58.73 22.72 57.84 22.14 57.10 21.35 C 57.32 20.87 57.74 19.90 57.96 19.42 Z" />
<path fill="#9cb3c7" opacity="1.00" d=" M 109.30 19.50 L 110.11 19.33 C 110.35 19.85 110.82 20.88 111.05 21.40 C 110.16 22.07 109.21 22.63 108.20 23.08 L 107.71 22.88 C 108.06 21.94 108.34 20.97 108.54 19.98 L 109.30 19.50 Z" />
<path fill="#9cb3c7" opacity="1.00" d=" M 170.14 19.31 L 170.91 19.42 L 171.58 19.95 C 171.62 20.99 171.80 22.01 172.13 23.00 L 171.65 23.15 C 169.93 22.76 168.29 20.67 170.14 19.31 Z" />
<path fill="#9cb3c7" opacity="1.00" d=" M 221.32 19.46 L 222.12 19.34 C 222.42 19.84 223.03 20.84 223.34 21.34 C 222.38 21.99 221.39 22.56 220.35 23.05 L 219.87 22.84 C 220.21 21.90 220.45 20.94 220.60 19.95 L 221.32 19.46 Z" />
</g>
<g id="#5688bafe">
<path fill="#5688ba" opacity="1.00" d=" M 114.01 18.17 L 114.41 18.03 C 115.06 18.31 116.35 18.86 116.99 19.14 C 117.20 19.72 117.60 20.89 117.81 21.47 L 117.36 21.82 C 117.05 21.89 116.43 22.02 116.12 22.09 C 115.42 20.78 114.88 19.38 114.01 18.17 Z" />
<path fill="#5688ba" opacity="1.00" d=" M 165.55 18.07 L 165.92 18.23 C 164.95 19.37 164.42 20.81 163.86 22.18 C 163.55 22.11 162.93 21.98 162.61 21.91 L 162.15 21.54 C 162.35 20.93 162.75 19.72 162.95 19.11 C 163.60 18.85 164.90 18.33 165.55 18.07 Z" />
</g>
<g id="#9eb5caff">
<path fill="#9eb5ca" opacity="1.00" d=" M 1.01 20.39 C 1.36 20.02 2.08 19.29 2.44 18.93 C 2.59 19.38 2.89 20.29 3.04 20.75 C 3.35 21.74 3.72 22.70 4.17 23.64 L 3.55 23.36 C 2.65 22.41 1.83 21.40 1.01 20.39 Z" />
</g>
<g id="#9eb5c9ff">
<path fill="#9eb5c9" opacity="1.00" d=" M 53.53 19.04 C 53.69 19.38 54.01 20.07 54.17 20.41 C 54.40 20.86 54.88 21.76 55.12 22.21 C 54.23 22.53 53.35 22.86 52.46 23.17 L 51.81 23.40 C 52.17 22.53 52.47 21.65 52.72 20.75 C 52.92 20.32 53.33 19.47 53.53 19.04 Z" />
</g>
<g id="#4277c9ff">
<path fill="#4277c9" opacity="1.00" d=" M 164.30 22.28 C 165.73 21.40 166.92 20.21 168.05 18.99 C 168.57 19.07 169.62 19.23 170.14 19.31 C 168.29 20.67 169.93 22.76 171.65 23.15 C 170.72 23.46 169.79 23.78 168.87 24.10 C 170.38 24.97 171.89 25.84 173.39 26.73 C 170.68 29.80 166.21 28.11 162.91 29.53 C 160.63 34.02 161.46 39.59 160.94 44.43 C 163.42 44.54 165.90 44.63 168.39 44.70 C 162.50 45.72 156.50 46.50 150.53 45.76 C 153.31 44.90 156.08 44.12 158.90 43.37 C 158.93 40.85 158.96 38.34 159.01 35.82 C 154.49 34.69 149.41 33.81 145.05 35.99 C 141.51 38.92 139.59 43.27 136.73 46.80 C 137.16 43.72 139.61 40.15 137.94 37.23 C 134.54 35.24 130.36 34.82 126.59 33.69 C 128.85 30.28 129.83 25.30 134.22 24.05 C 137.65 22.74 141.28 24.00 144.65 24.87 C 139.46 25.90 131.91 23.92 129.50 29.91 C 134.04 35.52 141.49 33.59 147.18 31.03 C 147.20 32.77 148.98 33.81 150.56 33.34 C 153.17 33.06 155.84 33.14 158.41 32.58 C 159.69 30.47 160.61 28.18 161.33 25.83 C 163.22 24.81 165.18 23.93 167.12 23.02 C 166.18 22.77 165.24 22.52 164.30 22.28 Z" />
</g>
<g id="#3c76c7ff">
<path fill="#3c76c7" opacity="1.00" d=" M 0.00 21.44 C 0.25 21.18 0.76 20.65 1.01 20.39 C 1.83 21.40 2.65 22.41 3.55 23.36 C 2.72 24.16 1.89 24.96 1.06 25.76 C 2.87 26.16 4.68 26.57 6.49 26.99 C 7.39 27.21 8.30 27.43 9.21 27.65 C 6.18 28.85 3.13 30.01 0.00 30.94 L 0.00 21.44 Z" />
</g>
<g id="#adc2d9ff">
<path fill="#adc2d9" opacity="1.00" d=" M 11.63 22.61 C 11.43 21.43 13.05 19.68 13.89 21.22 C 13.95 22.35 13.35 22.97 12.08 23.06 L 11.63 22.61 Z" />
<path fill="#adc2d9" opacity="1.00" d=" M 42.15 21.35 C 42.81 19.75 44.57 21.42 44.51 22.54 L 44.15 23.11 C 42.88 23.10 42.22 22.52 42.15 21.35 Z" />
</g>
<g id="#4f7baeff">
<path fill="#4f7bae" opacity="1.00" d=" M 59.42 19.82 C 59.81 19.78 60.57 19.69 60.96 19.65 C 61.13 20.23 61.49 21.40 61.67 21.99 L 61.46 22.62 C 61.15 22.68 60.53 22.80 60.21 22.86 C 59.86 21.87 59.59 20.86 59.42 19.82 Z" />
<path fill="#4f7bae" opacity="1.00" d=" M 107.08 19.67 C 107.45 19.75 108.18 19.90 108.54 19.98 C 108.34 20.97 108.06 21.94 107.71 22.88 C 107.38 22.80 106.72 22.63 106.40 22.54 L 106.16 21.92 C 106.39 21.36 106.85 20.23 107.08 19.67 Z" />
<path fill="#4f7bae" opacity="1.00" d=" M 171.58 19.95 C 171.93 19.89 172.63 19.77 172.98 19.71 C 173.15 20.30 173.48 21.48 173.65 22.07 L 173.44 22.72 C 173.11 22.79 172.46 22.93 172.13 23.00 C 171.80 22.01 171.62 20.99 171.58 19.95 Z" />
<path fill="#4f7bae" opacity="1.00" d=" M 219.12 19.74 C 219.49 19.79 220.23 19.90 220.60 19.95 C 220.45 20.94 220.21 21.90 219.87 22.84 C 219.53 22.82 218.87 22.78 218.53 22.76 L 218.31 22.16 C 218.51 21.55 218.92 20.34 219.12 19.74 Z" />
<path fill="#4f7bae" opacity="1.00" d=" M 3.04 20.75 C 3.38 20.82 4.07 20.98 4.41 21.06 C 4.83 21.65 5.66 22.84 6.07 23.43 L 5.62 23.80 C 5.26 23.76 4.53 23.68 4.17 23.64 C 3.72 22.70 3.35 21.74 3.04 20.75 Z" />
<path fill="#4f7bae" opacity="1.00" d=" M 51.14 20.88 C 51.53 20.85 52.32 20.78 52.72 20.75 C 52.47 21.65 52.17 22.53 51.81 23.40 C 51.46 23.49 50.75 23.67 50.40 23.76 L 49.95 23.40 C 50.24 22.77 50.84 21.51 51.14 20.88 Z" />
</g>
<g id="#8ea7b9ff">
<path fill="#8ea7b9" opacity="1.00" d=" M 8.09 21.89 C 8.50 21.58 9.34 20.97 9.76 20.66 C 10.14 21.06 10.90 21.86 11.28 22.26 C 9.81 22.73 8.33 23.19 6.83 23.56 L 5.62 23.80 L 6.07 23.43 C 6.58 23.05 7.58 22.28 8.09 21.89 Z" />
<path fill="#8ea7b9" opacity="1.00" d=" M 44.91 21.93 C 45.17 21.54 45.68 20.76 45.94 20.37 C 46.43 20.73 47.40 21.46 47.89 21.83 C 48.40 22.22 49.43 23.01 49.95 23.40 L 50.40 23.76 L 49.32 23.98 C 48.82 24.09 47.81 24.32 47.30 24.43 C 46.50 23.60 45.71 22.76 44.91 21.93 Z" />
</g>
<g id="#8ba4b6fe">
<path fill="#8ba4b6" opacity="1.00" d=" M 61.67 21.99 C 62.38 21.70 63.80 21.12 64.51 20.84 C 64.93 21.06 65.78 21.51 66.20 21.74 L 66.66 21.91 C 65.22 22.62 63.65 23.21 62.02 23.07 L 61.46 22.62 L 61.67 21.99 Z" />
<path fill="#8ba4b6" opacity="1.00" d=" M 101.27 21.57 L 101.59 21.22 C 102.02 21.08 102.88 20.78 103.31 20.63 C 104.02 20.95 105.45 21.60 106.16 21.92 L 106.40 22.54 L 105.96 23.01 C 104.29 23.02 102.71 22.36 101.27 21.57 Z" />
<path fill="#8ba4b6" opacity="1.00" d=" M 173.65 22.07 C 174.36 21.76 175.79 21.14 176.50 20.83 C 176.93 21.05 177.78 21.50 178.21 21.72 L 178.67 21.90 C 177.24 22.63 175.66 23.17 174.04 23.08 L 173.44 22.72 L 173.65 22.07 Z" />
<path fill="#8ba4b6" opacity="1.00" d=" M 213.28 21.57 L 213.60 21.22 C 214.04 21.09 214.93 20.82 215.38 20.69 C 216.11 21.05 217.58 21.79 218.31 22.16 L 218.53 22.76 L 217.97 23.10 C 216.30 23.02 214.71 22.41 213.28 21.57 Z" />
</g>
<g id="#4475c8ff">
<path fill="#4475c8" opacity="1.00" d=" M 98.66 24.49 C 99.53 23.51 100.40 22.54 101.27 21.57 C 102.71 22.36 104.29 23.02 105.96 23.01 C 105.23 23.93 104.53 24.86 103.84 25.81 C 107.08 26.24 110.33 26.58 113.58 26.95 C 108.78 31.86 103.60 36.71 96.13 36.81 C 96.12 35.90 96.10 34.10 96.09 33.19 C 98.63 32.97 101.18 32.76 103.73 32.56 C 103.96 31.37 104.19 30.19 104.42 29.01 C 102.43 27.60 100.39 26.22 98.66 24.49 M 101.15 23.40 C 100.30 27.38 105.14 22.58 101.15 23.40 Z" />
</g>
<g id="#4475c9ff">
<path fill="#4475c9" opacity="1.00" d=" M 210.66 24.49 C 211.53 23.51 212.40 22.54 213.28 21.57 C 214.71 22.41 216.30 23.02 217.97 23.10 C 217.31 23.51 215.97 24.34 215.31 24.75 L 214.61 25.10 C 215.14 21.77 210.80 24.31 213.94 25.45 C 216.64 26.78 219.45 27.86 222.25 28.96 C 219.85 32.20 217.39 35.39 214.97 38.63 C 212.78 37.58 210.51 36.56 208.32 35.56 C 208.24 34.99 208.08 33.83 208.00 33.25 C 210.57 33.01 213.15 32.77 215.73 32.55 C 215.96 31.37 216.19 30.19 216.42 29.01 C 214.43 27.60 212.39 26.22 210.66 24.49 Z" />
</g>
<g id="#4577cafe">
<path fill="#4577ca" opacity="1.00" d=" M 44.51 22.54 L 44.91 21.93 C 45.71 22.76 46.50 23.60 47.30 24.43 C 45.99 22.97 43.37 25.69 45.53 26.43 C 47.98 27.87 50.69 28.78 53.48 29.25 C 52.24 32.24 51.23 35.33 50.64 38.53 C 48.35 38.62 46.06 38.72 43.77 38.81 C 45.50 36.60 47.47 34.54 48.71 32.00 C 47.02 29.53 44.73 27.55 42.82 25.25 C 43.15 24.71 43.82 23.65 44.15 23.11 L 44.51 22.54 Z" />
</g>
<g id="#65569cff">
<path fill="#65569c" opacity="1.00" d=" M 115.73 22.20 L 116.12 22.09 C 116.43 22.02 117.05 21.89 117.36 21.82 L 118.54 21.59 C 118.79 22.16 119.28 23.30 119.52 23.87 C 118.95 24.38 118.38 24.89 117.81 25.40 C 116.10 24.70 114.39 24.00 112.68 23.30 C 113.69 22.92 114.70 22.55 115.73 22.20 Z" />
<path fill="#65569c" opacity="1.00" d=" M 122.14 22.11 C 123.44 22.78 123.43 23.46 122.11 24.14 C 120.81 23.47 120.82 22.80 122.14 22.11 Z" />
<path fill="#65569c" opacity="1.00" d=" M 157.15 22.40 C 161.14 21.58 156.30 26.38 157.15 22.40 Z" />
<path fill="#65569c" opacity="1.00" d=" M 161.48 21.68 L 162.61 21.91 C 162.93 21.98 163.55 22.11 163.86 22.18 L 164.30 22.28 C 165.24 22.52 166.18 22.77 167.12 23.02 C 165.18 23.93 163.22 24.81 161.33 25.83 C 161.41 24.45 161.43 23.06 161.48 21.68 Z" />
<path fill="#65569c" opacity="1.00" d=" M 59.75 23.10 L 60.21 22.86 C 60.53 22.80 61.15 22.68 61.46 22.62 L 62.02 23.07 C 62.63 23.59 63.84 24.64 64.45 25.16 C 61.83 25.16 59.21 25.04 56.59 24.90 C 57.64 24.28 58.69 23.68 59.75 23.10 Z" />
<path fill="#65569c" opacity="1.00" d=" M 66.14 23.11 C 67.44 23.78 67.43 24.46 66.11 25.14 C 64.81 24.47 64.82 23.80 66.14 23.11 Z" />
<path fill="#65569c" opacity="1.00" d=" M 101.15 23.40 C 105.14 22.58 100.30 27.38 101.15 23.40 Z" />
<path fill="#65569c" opacity="1.00" d=" M 105.96 23.01 L 106.40 22.54 C 106.72 22.63 107.38 22.80 107.71 22.88 L 108.20 23.08 C 109.27 23.57 110.34 24.06 111.40 24.58 C 108.88 25.03 106.37 25.45 103.84 25.81 C 104.53 24.86 105.23 23.93 105.96 23.01 Z" />
<path fill="#65569c" opacity="1.00" d=" M 171.65 23.15 L 172.13 23.00 C 172.46 22.93 173.11 22.79 173.44 22.72 L 174.04 23.08 C 174.56 23.41 175.60 24.07 176.12 24.40 C 175.21 25.18 174.32 25.98 173.39 26.73 C 171.89 25.84 170.38 24.97 168.87 24.10 C 169.79 23.78 170.72 23.46 171.65 23.15 Z" />
<path fill="#65569c" opacity="1.00" d=" M 178.14 23.11 C 179.44 23.78 179.43 24.46 178.11 25.14 C 176.81 24.47 176.82 23.80 178.14 23.11 Z" />
<path fill="#65569c" opacity="1.00" d=" M 213.94 25.45 C 210.80 24.31 215.14 21.77 214.61 25.10 L 213.94 25.45 Z" />
<path fill="#65569c" opacity="1.00" d=" M 217.97 23.10 L 218.53 22.76 C 218.87 22.78 219.53 22.82 219.87 22.84 L 220.35 23.05 C 221.38 23.64 222.41 24.24 223.43 24.86 C 220.72 24.87 218.01 24.80 215.31 24.75 C 215.97 24.34 217.31 23.51 217.97 23.10 Z" />
<path fill="#65569c" opacity="1.00" d=" M 3.55 23.36 L 4.17 23.64 C 4.53 23.68 5.26 23.76 5.62 23.80 L 6.83 23.56 C 6.72 24.71 6.61 25.85 6.49 26.99 C 4.68 26.57 2.87 26.16 1.06 25.76 C 1.89 24.96 2.72 24.16 3.55 23.36 Z" />
<path fill="#65569c" opacity="1.00" d=" M 10.14 24.11 C 11.44 24.78 11.43 25.46 10.11 26.14 C 8.81 25.47 8.82 24.80 10.14 24.11 Z" />
<path fill="#65569c" opacity="1.00" d=" M 45.53 26.43 C 43.37 25.69 45.99 22.97 47.30 24.43 C 46.86 24.93 45.97 25.93 45.53 26.43 Z" />
<path fill="#65569c" opacity="1.00" d=" M 49.32 23.98 L 50.40 23.76 C 50.75 23.67 51.46 23.49 51.81 23.40 L 52.46 23.17 C 53.31 24.17 54.16 25.17 55.01 26.17 C 52.70 26.22 50.40 26.28 48.10 26.29 C 48.41 25.71 49.02 24.56 49.32 23.98 Z" />
</g>
<g id="#4474c8ff">
<path fill="#4474c8" opacity="1.00" d=" M 29.19 27.21 C 30.88 26.69 31.78 29.58 29.98 29.96 C 28.28 30.46 27.40 27.63 29.19 27.21 Z" />
</g>
<g id="#5a8adeff">
<path fill="#5a8ade" opacity="1.00" d=" M 147.18 31.03 C 148.81 30.02 150.45 31.74 150.56 33.34 C 148.98 33.81 147.20 32.77 147.18 31.03 Z" />
</g>
<g id="#4e82cdff">
<path fill="#4e82cd" opacity="1.00" d=" M 212.87 43.08 C 213.84 42.66 214.82 42.24 215.79 41.82 C 215.63 43.70 215.46 45.58 215.29 47.46 C 214.46 46.01 213.67 44.55 212.87 43.08 Z" />
</g>
<g id="#4779cfff">
<path fill="#4779cf" opacity="1.00" d=" M 37.46 45.11 C 40.16 44.69 42.87 43.80 45.60 43.97 C 48.07 44.66 50.20 46.18 52.38 47.46 C 49.95 46.98 47.56 46.32 45.18 45.63 C 45.13 46.83 45.09 48.04 45.03 49.25 L 44.58 49.21 C 43.46 48.93 42.35 48.65 41.25 48.34 C 41.71 47.34 42.17 46.34 42.64 45.33 C 40.91 45.26 39.19 45.20 37.46 45.11 Z" />
</g>
<g id="#5083d1ff">
<path fill="#5083d1" opacity="1.00" d=" M 96.67 45.60 C 98.45 45.03 100.23 44.48 102.02 43.93 C 101.99 44.76 101.94 46.42 101.91 47.24 C 100.16 46.71 98.41 46.16 96.67 45.60 Z" />
</g>
<g id="#417fcbff">
<path fill="#417fcb" opacity="1.00" d=" M 57.32 47.08 C 59.25 46.38 61.19 45.69 63.13 45.00 C 62.02 46.64 60.88 48.27 59.77 49.92 C 64.63 50.11 69.49 50.31 74.35 50.46 C 69.17 51.37 63.83 51.85 58.62 50.83 C 58.19 49.58 57.75 48.33 57.32 47.08 Z" />
<path fill="#417fcb" opacity="1.00" d=" M 169.36 47.08 C 171.28 46.38 173.21 45.69 175.13 44.99 C 174.02 46.63 172.89 48.26 171.78 49.90 C 176.62 50.16 181.46 50.44 186.31 50.62 C 181.11 51.35 175.84 51.56 170.60 51.06 C 170.19 49.73 169.78 48.41 169.36 47.08 Z" />
</g>
<g id="#4180cbff">
<path fill="#4180cb" opacity="1.00" d=" M 131.64 46.97 C 132.31 46.38 132.97 45.77 133.62 45.16 C 135.33 47.26 136.94 49.59 139.39 50.89 L 139.96 51.16 C 137.77 51.00 135.58 50.86 133.40 50.73 C 132.81 49.48 132.22 48.23 131.64 46.97 Z" />
</g>
<g id="#5790d3ff">
<path fill="#5790d3" opacity="1.00" d=" M 209.53 45.12 C 210.95 42.94 212.70 47.02 210.10 46.41 C 209.96 46.09 209.68 45.44 209.53 45.12 Z" />
</g>
<g id="#4080cbff">
<path fill="#4080cb" opacity="1.00" d=" M 1.53 50.08 C 3.43 48.52 5.52 47.22 7.66 46.01 C 6.83 47.35 5.98 48.69 5.13 50.02 C 9.54 50.27 13.94 50.50 18.35 50.74 C 12.78 51.46 6.92 52.14 1.53 50.08 Z" />
</g>
<g id="#5676acff">
<path fill="#5676ac" opacity="1.00" d=" M 46.59 49.38 C 49.81 49.58 53.00 50.02 56.20 50.47 C 52.99 50.10 49.80 49.73 46.59 49.38 Z" />
</g>
<g id="#417fcaff">
<path fill="#417fca" opacity="1.00" d=" M 114.02 48.61 C 119.40 49.66 124.87 50.10 130.32 50.64 C 125.10 51.37 119.77 51.78 114.55 50.82 C 114.42 50.27 114.16 49.16 114.02 48.61 Z" />
</g>
<g id="#3c6394ff">
<path fill="#3c6394" opacity="1.00" d=" M 153.88 49.20 C 156.43 48.90 158.99 49.20 161.52 49.55 C 159.82 49.99 156.41 50.88 154.71 51.32 L 154.04 51.39 C 154.00 50.85 153.92 49.75 153.88 49.20 Z" />
</g>
<g id="#2e5ea5ff">
<path fill="#2e5ea5" opacity="1.00" d=" M 162.06 49.13 C 163.19 48.21 164.96 46.84 166.38 48.02 C 166.86 49.45 164.63 49.63 163.70 49.69 C 163.29 49.55 162.47 49.27 162.06 49.13 Z" />
</g>
<g id="#527eaaff">
<path fill="#527eaa" opacity="1.00" d=" M 28.06 51.33 C 32.98 51.01 37.92 50.75 42.82 50.09 L 41.95 50.71 C 37.35 51.32 32.69 51.32 28.06 51.33 Z" />
</g>
<g id="#405e4fff">
<path fill="#405e4f" opacity="1.00" d=" M 44.58 49.21 L 45.03 49.25 C 45.55 49.29 46.07 49.33 46.59 49.38 C 49.80 49.73 52.99 50.10 56.20 50.47 C 57.00 50.58 57.81 50.70 58.62 50.83 C 63.83 51.85 69.17 51.37 74.35 50.46 C 75.04 50.48 76.43 50.50 77.12 50.51 C 77.60 50.87 78.56 51.60 79.04 51.96 L 79.42 52.27 C 77.21 52.13 75.00 52.20 72.80 52.40 C 70.73 52.55 68.66 52.80 66.59 53.02 C 60.99 52.91 55.39 52.75 49.79 52.77 C 49.30 52.70 48.32 52.54 47.83 52.46 C 47.26 52.39 46.13 52.24 45.57 52.17 C 44.10 51.97 42.63 51.76 41.16 51.53 L 41.95 50.71 L 42.82 50.09 C 43.26 49.87 44.14 49.43 44.58 49.21 Z" />
</g>
<g id="#5278a4ff">
<path fill="#5278a4" opacity="1.00" d=" M 85.43 50.65 C 89.66 50.54 93.87 50.08 98.08 49.60 C 97.97 50.04 97.76 50.93 97.66 51.38 C 95.22 51.76 92.79 52.16 90.35 52.51 L 89.48 52.62 C 88.07 52.21 86.62 51.95 85.15 51.94 C 84.76 51.64 83.97 51.05 83.58 50.75 C 84.04 50.72 84.97 50.68 85.43 50.65 Z" />
</g>
<g id="#305f7aff">
<path fill="#305f7a" opacity="1.00" d=" M 98.08 49.60 C 98.48 49.56 99.29 49.49 99.69 49.46 L 100.22 49.55 C 99.94 50.04 99.38 51.02 99.10 51.51 L 98.34 51.76 L 97.66 51.38 C 97.76 50.93 97.97 50.04 98.08 49.60 Z" />
</g>
<g id="#4971abff">
<path fill="#4971ab" opacity="1.00" d=" M 99.69 49.46 C 103.86 49.46 107.99 50.00 112.12 50.52 C 108.15 50.24 104.16 50.13 100.22 49.55 L 99.69 49.46 Z" />
</g>
<g id="#5a7bacff">
<path fill="#5a7bac" opacity="1.00" d=" M 139.39 50.89 C 144.28 50.99 149.07 49.92 153.88 49.20 C 153.92 49.75 154.00 50.85 154.04 51.39 C 149.35 51.39 144.64 51.42 139.96 51.16 L 139.39 50.89 Z" />
</g>
<g id="#486f99ff">
<path fill="#486f99" opacity="1.00" d=" M 196.19 50.61 C 205.46 50.41 214.71 49.50 224.00 49.79 L 224.00 50.60 C 219.55 50.78 215.09 50.97 210.67 51.51 C 210.26 51.58 209.46 51.73 209.05 51.80 C 208.73 51.85 208.09 51.94 207.77 51.98 C 207.32 52.09 206.41 52.30 205.96 52.41 C 205.32 52.34 204.05 52.21 203.42 52.14 L 202.43 52.00 C 200.66 51.65 197.11 50.96 195.33 50.61 L 196.19 50.61 Z" />
</g>
<g id="#4b6446ff">
<path fill="#4b6446" opacity="1.00" d=" M 0.00 51.41 C 0.50 50.95 1.00 50.51 1.53 50.08 C 6.92 52.14 12.78 51.46 18.35 50.74 C 18.85 50.77 19.84 50.83 20.34 50.86 C 20.94 50.93 22.14 51.08 22.74 51.16 L 23.38 51.27 C 23.23 51.78 22.92 52.80 22.76 53.31 C 22.23 52.95 21.17 52.22 20.64 51.86 C 19.47 50.69 17.81 51.56 16.72 52.35 C 14.69 52.69 12.66 53.03 10.63 53.38 C 7.08 53.02 3.54 52.47 0.00 52.01 L 0.00 51.41 Z" />
</g>
<g id="#385848ff">
<path fill="#385848" opacity="1.00" d=" M 99.10 51.51 C 99.38 51.02 99.94 50.04 100.22 49.55 C 104.16 50.13 108.15 50.24 112.12 50.52 C 112.93 50.61 113.74 50.71 114.55 50.82 C 119.77 51.78 125.10 51.37 130.32 50.64 C 131.09 50.66 132.63 50.71 133.40 50.73 C 135.58 50.86 137.77 51.00 139.96 51.16 C 144.64 51.42 149.35 51.39 154.04 51.39 C 153.21 52.08 152.37 52.77 151.54 53.45 C 145.67 53.10 139.82 52.54 133.95 52.53 C 133.63 52.34 132.98 51.97 132.66 51.78 C 131.42 50.71 129.81 51.58 128.72 52.40 C 126.69 52.68 124.67 52.96 122.65 53.25 C 119.09 53.02 115.55 52.52 111.98 52.47 C 110.44 52.49 107.37 52.52 105.83 52.54 C 104.46 52.35 103.09 52.16 101.73 51.94 C 101.08 51.83 99.76 51.62 99.10 51.51 Z" />
</g>
<g id="#3e5a47ff">
<path fill="#3e5a47" opacity="1.00" d=" M 154.71 51.32 C 156.41 50.88 159.82 49.99 161.52 49.55 C 161.63 51.19 163.52 51.31 164.75 51.03 C 166.70 51.00 168.65 50.98 170.60 51.06 C 175.84 51.56 181.11 51.35 186.31 50.62 C 187.03 50.61 188.45 50.58 189.17 50.56 C 191.22 50.56 193.27 50.57 195.33 50.61 C 197.11 50.96 200.66 51.65 202.43 52.00 C 202.00 52.23 201.13 52.70 200.69 52.93 C 197.07 52.72 193.45 52.65 189.85 52.20 C 189.55 52.11 188.93 51.95 188.63 51.87 C 187.29 51.17 185.80 51.55 184.64 52.40 C 182.58 52.75 180.52 53.10 178.47 53.46 C 177.46 53.27 176.46 53.02 175.44 52.97 C 168.52 52.43 161.60 52.06 154.71 51.32 Z" />
</g>
<g id="#648aadff">
<path fill="#648aad" opacity="1.00" d=" M 161.52 49.55 L 162.06 49.13 C 162.47 49.27 163.29 49.55 163.70 49.69 C 163.96 50.02 164.49 50.70 164.75 51.03 C 163.52 51.31 161.63 51.19 161.52 49.55 Z" />
</g>
<g id="#355753ff">
<path fill="#355753" opacity="1.00" d=" M 210.67 51.51 C 215.09 50.97 219.55 50.78 224.00 50.60 L 224.00 52.39 C 220.12 52.37 216.24 52.49 212.39 51.91 C 211.96 51.81 211.10 51.61 210.67 51.51 Z" />
</g>
<g id="#93bd6bff">
<path fill="#93bd6b" opacity="1.00" d=" M 16.72 52.35 C 17.81 51.56 19.47 50.69 20.64 51.86 C 19.84 53.33 17.95 52.94 16.72 52.35 Z" />
<path fill="#93bd6b" opacity="1.00" d=" M 128.72 52.40 C 129.81 51.58 131.42 50.71 132.66 51.78 C 131.89 53.28 129.98 52.97 128.72 52.40 Z" />
<path fill="#93bd6b" opacity="1.00" d=" M 184.64 52.40 C 185.80 51.55 187.29 51.17 188.63 51.87 C 187.88 53.47 185.87 53.18 184.64 52.40 Z" />
</g>
<g id="#204337ff">
<path fill="#204337" opacity="1.00" d=" M 22.74 51.16 C 24.51 51.26 26.29 51.31 28.06 51.33 C 32.69 51.32 37.35 51.32 41.95 50.71 L 41.16 51.53 C 40.52 52.19 39.88 52.86 39.24 53.52 C 33.94 52.84 28.62 52.35 23.38 51.27 L 22.74 51.16 Z" />
</g>
<g id="#79a658ff">
<path fill="#79a658" opacity="1.00" d=" M 72.80 52.40 C 75.00 52.20 77.21 52.13 79.42 52.27 C 80.64 52.48 81.83 52.38 82.99 51.95 C 83.31 52.20 83.96 52.68 84.29 52.92 C 85.89 53.66 87.63 54.00 89.37 54.20 C 89.98 54.09 91.21 53.88 91.82 53.77 C 92.58 56.54 96.43 54.53 93.73 52.79 C 95.27 52.48 96.80 52.12 98.34 51.76 C 97.54 54.63 101.44 54.33 101.73 51.94 C 103.09 52.16 104.46 52.35 105.83 52.54 C 108.25 53.15 110.63 53.91 113.00 54.71 C 112.66 53.96 112.32 53.22 111.98 52.47 C 115.55 52.52 119.09 53.02 122.65 53.25 C 121.30 54.16 119.96 55.08 118.63 56.00 L 66.01 56.00 C 69.48 55.10 72.89 54.03 76.32 53.02 C 75.15 52.80 73.98 52.58 72.80 52.40 Z" />
</g>
<g id="#332e2aff">
<path fill="#332e2a" opacity="1.00" d=" M 79.04 51.96 C 80.25 50.79 82.00 50.67 83.58 50.75 C 83.43 51.05 83.13 51.65 82.99 51.95 C 81.83 52.38 80.64 52.48 79.42 52.27 L 79.04 51.96 Z" />
</g>
<g id="#446460ff">
<path fill="#446460" opacity="1.00" d=" M 83.58 50.75 C 83.97 51.05 84.76 51.64 85.15 51.94 L 85.09 52.65 L 84.29 52.92 C 83.96 52.68 83.31 52.20 82.99 51.95 C 83.13 51.65 83.43 51.05 83.58 50.75 Z" />
</g>
<g id="#194338ff">
<path fill="#194338" opacity="1.00" d=" M 90.35 52.51 C 92.79 52.16 95.22 51.76 97.66 51.38 L 98.34 51.76 C 96.80 52.12 95.27 52.48 93.73 52.79 C 93.29 52.87 92.40 53.04 91.96 53.12 C 91.56 52.96 90.75 52.66 90.35 52.51 Z" />
</g>
<g id="#729b57ff">
<path fill="#729b57" opacity="1.00" d=" M 154.04 51.39 L 154.71 51.32 C 161.60 52.06 168.52 52.43 175.44 52.97 C 174.92 53.92 174.59 54.95 174.39 56.00 L 161.20 56.00 C 160.64 55.26 159.51 53.77 158.95 53.02 C 157.55 54.01 156.18 55.04 154.76 56.00 L 148.26 56.00 C 149.37 55.18 150.46 54.32 151.54 53.45 C 152.37 52.77 153.21 52.08 154.04 51.39 Z" />
</g>
<g id="#567b4eff">
<path fill="#567b4e" opacity="1.00" d=" M 209.05 51.80 C 209.46 51.73 210.26 51.58 210.67 51.51 C 211.10 51.61 211.96 51.81 212.39 51.91 C 212.16 54.07 209.61 53.35 209.05 51.80 Z" />
</g>
<g id="#77a35dff">
<path fill="#77a35d" opacity="1.00" d=" M 0.00 52.01 C 3.54 52.47 7.08 53.02 10.63 53.38 C 9.31 54.24 8.00 55.12 6.68 56.00 L 0.00 56.00 L 0.00 52.01 Z" />
</g>
<g id="#6a9a60ff">
<path fill="#6a9a60" opacity="1.00" d=" M 10.63 53.38 C 12.66 53.03 14.69 52.69 16.72 52.35 C 17.95 52.94 19.84 53.33 20.64 51.86 C 21.17 52.22 22.23 52.95 22.76 53.31 C 22.57 53.98 22.17 55.33 21.97 56.00 L 21.45 56.00 C 20.21 55.83 17.74 55.48 16.51 55.31 C 15.84 55.48 14.50 55.83 13.83 56.00 L 6.68 56.00 C 8.00 55.12 9.31 54.24 10.63 53.38 Z" />
<path fill="#6a9a60" opacity="1.00" d=" M 122.65 53.25 C 124.67 52.96 126.69 52.68 128.72 52.40 C 129.98 52.97 131.89 53.28 132.66 51.78 C 132.98 51.97 133.63 52.34 133.95 52.53 C 134.07 53.40 134.31 55.13 134.42 56.00 L 133.63 56.00 C 132.35 55.82 129.79 55.46 128.51 55.28 C 127.84 55.46 126.50 55.82 125.83 56.00 L 118.63 56.00 C 119.96 55.08 121.30 54.16 122.65 53.25 Z" />
</g>
<g id="#78a661ff">
<path fill="#78a661" opacity="1.00" d=" M 23.38 51.27 C 28.62 52.35 33.94 52.84 39.24 53.52 C 38.39 54.38 37.50 55.20 36.59 56.00 L 21.97 56.00 C 22.17 55.33 22.57 53.98 22.76 53.31 C 22.92 52.80 23.23 51.78 23.38 51.27 Z" />
</g>
<g id="#6b9f45ff">
<path fill="#6b9f45" opacity="1.00" d=" M 39.24 53.52 C 39.88 52.86 40.52 52.19 41.16 51.53 C 42.63 51.76 44.10 51.97 45.57 52.17 C 44.85 53.46 44.11 54.74 43.34 56.00 L 36.59 56.00 C 37.50 55.20 38.39 54.38 39.24 53.52 Z" />
</g>
<g id="#81ac5cff">
<path fill="#81ac5c" opacity="1.00" d=" M 45.57 52.17 C 46.13 52.24 47.26 52.39 47.83 52.46 C 47.94 53.67 48.19 54.87 48.64 56.00 L 43.34 56.00 C 44.11 54.74 44.85 53.46 45.57 52.17 Z" />
</g>
<g id="#669043ff">
<path fill="#669043" opacity="1.00" d=" M 47.83 52.46 C 48.32 52.54 49.30 52.70 49.79 52.77 C 49.79 53.58 49.78 55.19 49.78 56.00 L 48.64 56.00 C 48.19 54.87 47.94 53.67 47.83 52.46 Z" />
</g>
<g id="#77a15fff">
<path fill="#77a15f" opacity="1.00" d=" M 49.79 52.77 C 55.39 52.75 60.99 52.91 66.59 53.02 C 65.29 54.01 63.99 55.00 62.70 56.00 L 49.78 56.00 C 49.78 55.19 49.79 53.58 49.79 52.77 Z" />
</g>
<g id="#659766ff">
<path fill="#659766" opacity="1.00" d=" M 66.59 53.02 C 68.66 52.80 70.73 52.55 72.80 52.40 C 73.98 52.58 75.15 52.80 76.32 53.02 C 72.89 54.03 69.48 55.10 66.01 56.00 L 62.70 56.00 C 63.99 55.00 65.29 54.01 66.59 53.02 Z" />
</g>
<g id="#1c3d42ff">
<path fill="#1c3d42" opacity="1.00" d=" M 85.15 51.94 C 86.62 51.95 88.07 52.21 89.48 52.62 C 89.31 52.93 88.99 53.56 88.83 53.87 C 87.54 53.59 86.29 53.19 85.09 52.65 L 85.15 51.94 Z" />
</g>
<g id="#497060ff">
<path fill="#497060" opacity="1.00" d=" M 89.48 52.62 L 90.35 52.51 C 90.75 52.66 91.56 52.96 91.96 53.12 L 91.82 53.77 C 91.21 53.88 89.98 54.09 89.37 54.20 L 88.83 53.87 C 88.99 53.56 89.31 52.93 89.48 52.62 Z" />
</g>
<g id="#5c8d48ff">
<path fill="#5c8d48" opacity="1.00" d=" M 98.34 51.76 L 99.10 51.51 C 99.76 51.62 101.08 51.83 101.73 51.94 C 101.44 54.33 97.54 54.63 98.34 51.76 Z" />
</g>
<g id="#67976dff">
<path fill="#67976d" opacity="1.00" d=" M 105.83 52.54 C 107.37 52.52 110.44 52.49 111.98 52.47 C 112.32 53.22 112.66 53.96 113.00 54.71 C 110.63 53.91 108.25 53.15 105.83 52.54 Z" />
</g>
<g id="#7aa564ff">
<path fill="#7aa564" opacity="1.00" d=" M 133.95 52.53 C 139.82 52.54 145.67 53.10 151.54 53.45 C 150.46 54.32 149.37 55.18 148.26 56.00 L 134.42 56.00 C 134.31 55.13 134.07 53.40 133.95 52.53 Z" />
</g>
<g id="#8bb561fe">
<path fill="#8bb561" opacity="1.00" d=" M 175.44 52.97 C 176.46 53.02 177.46 53.27 178.47 53.46 C 177.58 54.34 176.65 55.19 175.69 56.00 L 174.39 56.00 C 174.59 54.95 174.92 53.92 175.44 52.97 Z" />
</g>
<g id="#699960ff">
<path fill="#699960" opacity="1.00" d=" M 178.47 53.46 C 180.52 53.10 182.58 52.75 184.64 52.40 C 185.87 53.18 187.88 53.47 188.63 51.87 C 188.93 51.95 189.55 52.11 189.85 52.20 C 190.11 53.15 190.62 55.05 190.88 56.00 L 189.76 56.00 C 188.45 55.82 185.81 55.47 184.49 55.29 C 183.83 55.47 182.52 55.82 181.86 56.00 L 175.69 56.00 C 176.65 55.19 177.58 54.34 178.47 53.46 Z" />
</g>
<g id="#7ba45efe">
<path fill="#7ba45e" opacity="1.00" d=" M 189.85 52.20 C 193.45 52.65 197.07 52.72 200.69 52.93 C 201.66 53.69 202.89 54.09 204.09 53.64 C 204.53 53.53 205.41 53.31 205.84 53.20 C 206.79 54.23 209.07 53.38 207.77 51.98 C 208.09 51.94 208.73 51.85 209.05 51.80 C 209.61 53.35 212.16 54.07 212.39 51.91 C 216.24 52.49 220.12 52.37 224.00 52.39 L 224.00 56.00 L 190.88 56.00 C 190.62 55.05 190.11 53.15 189.85 52.20 Z" />
</g>
<g id="#49744bff">
<path fill="#49744b" opacity="1.00" d=" M 202.43 52.00 L 203.42 52.14 C 203.59 52.52 203.92 53.27 204.09 53.64 C 202.89 54.09 201.66 53.69 200.69 52.93 C 201.13 52.70 202.00 52.23 202.43 52.00 Z" />
</g>
<g id="#073126ff">
<path fill="#073126" opacity="1.00" d=" M 203.42 52.14 C 204.05 52.21 205.32 52.34 205.96 52.41 L 205.84 53.20 C 205.41 53.31 204.53 53.53 204.09 53.64 C 203.92 53.27 203.59 52.52 203.42 52.14 Z" />
</g>
<g id="#355e47ff">
<path fill="#355e47" opacity="1.00" d=" M 205.96 52.41 C 206.41 52.30 207.32 52.09 207.77 51.98 C 209.07 53.38 206.79 54.23 205.84 53.20 L 205.96 52.41 Z" />
</g>
<g id="#8bb183ff">
<path fill="#8bb183" opacity="1.00" d=" M 84.29 52.92 L 85.09 52.65 C 86.29 53.19 87.54 53.59 88.83 53.87 L 89.37 54.20 C 87.63 54.00 85.89 53.66 84.29 52.92 Z" />
</g>
<g id="#88b379ff">
<path fill="#88b379" opacity="1.00" d=" M 91.96 53.12 C 92.40 53.04 93.29 52.87 93.73 52.79 C 96.43 54.53 92.58 56.54 91.82 53.77 L 91.96 53.12 Z" />
</g>
<g id="#89b252ff">
<path fill="#89b252" opacity="1.00" d=" M 154.76 56.00 C 156.18 55.04 157.55 54.01 158.95 53.02 C 159.51 53.77 160.64 55.26 161.20 56.00 L 154.76 56.00 Z" />
</g>
<g id="#83ae61ff">
<path fill="#83ae61" opacity="1.00" d=" M 13.83 56.00 C 14.50 55.83 15.84 55.48 16.51 55.31 C 17.74 55.48 20.21 55.83 21.45 56.00 L 13.83 56.00 Z" />
<path fill="#83ae61" opacity="1.00" d=" M 125.83 56.00 C 126.50 55.82 127.84 55.46 128.51 55.28 C 129.79 55.46 132.35 55.82 133.63 56.00 L 125.83 56.00 Z" />
<path fill="#83ae61" opacity="1.00" d=" M 181.86 56.00 C 182.52 55.82 183.83 55.47 184.49 55.29 C 185.81 55.47 188.45 55.82 189.76 56.00 L 181.86 56.00 Z" />
</g>
</svg>
