<?xml version="1.0" encoding="UTF-8" ?>
<!DOCTYPE svg PUBLIC "-//W3C//DTD SVG 1.1//EN" "http://www.w3.org/Graphics/SVG/1.1/DTD/svg11.dtd">
<svg width="224pt" height="56pt" viewBox="0 0 224 56" version="1.1" xmlns="http://www.w3.org/2000/svg">
<g id="#3c6cbeff">
<path fill="#3c6cbe" opacity="1.00" d=" M 0.00 0.00 L 25.54 0.00 C 26.56 1.10 27.53 2.24 28.50 3.38 C 21.92 4.08 14.85 5.99 8.48 3.27 C 9.44 5.24 10.79 7.21 10.73 9.49 C 8.69 11.40 6.32 12.92 4.11 14.61 C 8.11 14.24 12.13 14.10 16.15 14.09 C 14.53 12.26 12.93 10.43 11.36 8.57 C 14.03 6.90 17.01 5.23 20.29 5.94 C 26.25 7.05 31.99 4.49 37.62 2.96 C 35.11 1.94 32.58 0.95 30.05 0.00 L 85.53 0.00 C 79.68 5.21 71.57 2.96 64.65 2.19 C 65.47 4.22 66.81 6.23 66.65 8.50 C 64.65 10.42 62.30 11.92 60.12 13.61 C 64.12 13.24 68.13 13.10 72.15 13.09 C 70.54 11.27 68.93 9.43 67.36 7.57 C 70.91 4.61 75.44 4.65 79.78 5.09 C 84.85 4.18 89.83 2.61 94.98 2.02 C 94.70 1.34 94.42 0.67 94.15 0.00 L 138.86 0.00 C 133.38 3.60 126.66 2.03 120.65 1.20 C 121.49 3.23 122.78 5.23 122.66 7.50 C 120.65 9.41 118.30 10.92 116.12 12.61 C 120.12 12.24 124.13 12.10 128.15 12.09 C 126.54 10.27 124.94 8.44 123.37 6.59 C 126.61 3.99 130.66 3.19 134.64 4.34 C 137.86 5.45 139.47 1.69 141.49 0.00 L 197.57 0.00 C 192.36 4.28 185.41 2.94 179.27 4.36 C 178.47 8.45 175.38 11.21 172.24 13.66 C 176.19 13.25 180.17 13.10 184.15 13.08 C 182.53 11.26 180.93 9.43 179.36 7.57 C 182.90 4.61 187.44 4.65 191.78 5.09 C 196.85 4.18 201.82 2.61 206.98 2.02 C 206.70 1.34 206.43 0.67 206.16 0.00 L 224.00 0.00 L 224.00 0.94 C 220.69 0.93 217.42 0.84 214.12 0.95 C 213.36 1.01 211.85 1.13 211.09 1.19 C 210.32 1.64 209.58 2.11 208.85 2.61 C 207.81 3.32 207.41 4.32 207.65 5.62 C 207.86 8.88 208.07 12.15 208.40 15.41 C 208.45 15.76 208.56 16.45 208.61 16.80 C 209.22 19.71 209.75 22.65 210.65 25.49 C 212.50 27.32 214.69 28.74 216.84 30.18 C 216.24 31.74 215.62 33.30 214.97 34.84 C 212.98 33.96 211.01 33.07 209.03 32.17 C 208.77 33.09 208.50 34.01 208.24 34.94 C 212.94 36.87 217.86 38.14 222.78 39.37 C 221.15 37.87 219.44 36.43 218.07 34.68 C 218.73 32.72 219.87 30.97 220.97 29.23 C 218.59 28.39 216.23 27.52 213.94 26.47 L 214.61 26.11 L 215.30 25.75 C 218.00 25.80 220.71 25.89 223.41 25.87 C 222.40 25.24 221.38 24.64 220.35 24.05 C 221.39 23.56 222.38 22.99 223.34 22.34 L 224.00 21.92 L 224.00 45.14 C 215.54 44.77 207.01 42.56 198.56 44.16 C 201.87 45.21 205.26 45.98 208.66 46.69 C 213.74 47.92 218.93 46.18 224.00 45.90 L 224.00 56.00 L 205.35 56.00 C 200.47 53.90 195.90 51.19 191.28 48.59 C 196.02 43.47 198.93 36.28 206.14 33.97 C 205.18 32.01 204.22 30.05 203.31 28.06 C 202.30 30.26 202.02 33.67 199.20 34.26 C 195.09 35.08 190.95 33.56 186.87 33.01 C 186.89 25.54 193.98 25.99 198.88 27.26 C 198.24 25.97 197.61 24.67 196.98 23.37 C 198.95 21.70 200.93 20.04 202.94 18.43 C 198.58 19.08 194.25 18.23 190.14 16.75 C 192.78 18.65 195.22 20.84 197.18 23.46 C 193.26 24.84 189.29 26.10 185.32 27.30 C 185.61 30.06 185.89 32.82 186.18 35.59 C 189.10 35.88 192.03 36.17 194.96 36.46 C 195.00 41.73 191.60 45.49 187.81 48.51 C 191.66 50.66 195.62 52.59 199.45 54.77 C 198.10 55.20 196.74 55.61 195.39 56.00 L 181.32 56.00 C 179.47 54.09 178.04 51.00 175.11 50.67 C 173.46 50.49 170.15 50.14 168.49 49.96 C 168.40 50.32 168.23 51.03 168.14 51.38 C 167.81 52.92 167.51 54.46 167.21 56.00 L 150.17 56.00 C 144.11 51.76 138.08 46.76 130.40 46.09 C 132.69 48.86 135.36 51.26 137.90 53.78 C 138.09 52.47 138.28 51.15 138.47 49.83 C 140.87 51.03 143.26 52.25 145.61 53.53 C 144.00 54.15 140.76 55.38 139.14 56.00 L 124.65 56.00 L 124.17 55.04 C 123.32 53.40 122.75 51.55 121.50 50.15 C 118.67 49.54 115.72 49.90 112.86 49.93 L 112.64 50.57 L 112.33 51.63 C 112.08 52.48 111.59 54.18 111.35 55.03 L 111.02 56.00 L 69.61 56.00 C 67.51 54.18 65.47 52.26 63.06 50.86 C 61.83 50.33 60.59 49.85 59.33 49.41 C 60.59 48.49 61.81 47.52 63.04 46.56 C 61.93 45.73 60.83 44.92 59.73 44.10 C 58.93 45.95 58.08 47.77 57.30 49.62 C 57.02 50.29 56.76 50.95 56.50 51.63 C 55.99 53.08 55.48 54.54 54.99 56.00 L 15.59 56.00 C 13.01 53.83 10.48 51.61 7.79 49.59 C 7.77 48.94 7.76 48.30 7.74 47.65 C 9.12 47.53 11.89 47.28 13.27 47.16 C 11.19 43.78 10.40 39.86 11.13 35.95 C 7.42 36.35 3.71 36.75 0.00 37.14 L 0.00 30.84 C 3.85 29.54 7.74 28.34 11.58 27.02 C 11.93 24.94 11.20 21.95 13.51 20.84 C 15.58 19.62 17.81 18.73 20.00 17.76 C 13.35 19.34 6.41 20.62 0.00 17.42 L 0.00 0.00 M 39.64 2.02 L 40.26 2.35 C 40.10 2.92 39.80 4.08 39.64 4.65 L 39.09 4.36 C 39.03 8.63 38.99 12.91 38.97 17.19 C 39.46 16.31 39.95 15.42 40.44 14.54 C 40.64 14.67 41.04 14.92 41.24 15.04 C 41.12 15.35 40.87 15.97 40.75 16.28 C 40.68 17.34 40.54 19.46 40.47 20.52 C 38.46 19.82 36.48 19.04 34.54 18.17 C 31.18 22.07 26.21 20.24 22.11 18.81 C 24.18 20.53 26.15 22.38 27.81 24.51 C 24.54 26.12 21.20 27.57 17.90 29.11 C 18.23 29.60 18.89 30.60 19.22 31.10 C 21.47 29.66 23.69 28.18 25.98 26.79 C 27.36 27.47 28.74 28.15 30.12 28.82 C 29.37 27.20 28.61 25.59 27.87 23.97 C 31.66 21.72 36.08 20.68 40.39 22.02 C 39.19 25.29 42.47 25.76 44.85 26.36 C 44.48 25.88 43.74 24.93 43.37 24.46 L 43.96 24.02 L 44.80 23.01 L 44.18 23.79 C 46.00 24.31 47.81 24.90 49.68 25.26 C 49.03 25.49 47.72 25.95 47.06 26.18 C 49.70 27.13 52.48 27.31 55.26 27.30 C 54.34 26.32 53.42 25.34 52.51 24.36 C 53.49 23.98 54.47 23.59 55.45 23.19 C 55.53 22.72 55.69 21.80 55.77 21.34 C 55.79 20.67 55.83 19.34 55.85 18.67 C 59.76 19.03 63.56 20.23 66.69 22.64 C 63.13 24.61 59.36 26.17 55.68 27.91 C 60.03 27.14 64.29 25.95 68.55 24.81 C 68.11 23.63 67.66 22.46 67.23 21.28 C 68.13 19.91 69.03 18.55 69.94 17.19 C 65.35 19.69 60.42 18.24 55.91 16.27 C 55.94 14.38 56.00 10.61 56.02 8.72 C 56.92 7.36 56.68 6.27 55.30 5.43 C 55.70 3.97 56.09 2.50 56.45 1.03 C 53.02 1.02 49.59 1.03 46.17 1.04 C 45.36 0.99 43.75 0.88 42.95 0.83 C 42.12 1.13 40.47 1.72 39.64 2.02 M 96.41 1.41 C 96.61 1.70 97.01 2.28 97.20 2.58 C 95.77 3.44 95.54 4.58 96.52 6.00 C 94.96 8.22 95.36 11.27 94.66 13.72 C 95.26 14.06 96.46 14.74 97.06 15.08 C 96.97 15.42 96.77 16.09 96.67 16.42 C 97.25 19.68 97.81 22.95 98.57 26.17 C 98.91 25.75 99.59 24.91 99.93 24.49 C 99.42 25.48 98.94 26.49 98.49 27.51 C 100.75 28.14 103.00 28.80 105.26 29.43 C 104.48 31.26 103.70 33.09 102.91 34.92 C 100.97 34.00 99.04 33.06 97.11 32.10 C 96.81 33.01 96.50 33.92 96.20 34.83 C 100.85 37.10 105.92 38.17 110.97 39.16 C 108.84 37.37 105.01 35.80 106.15 32.34 C 111.39 28.08 117.41 24.76 123.86 22.73 C 123.79 20.93 123.72 19.10 124.18 17.34 C 126.59 15.94 129.34 15.32 131.97 14.49 C 131.69 14.17 131.14 13.53 130.86 13.21 C 127.21 14.57 123.75 16.59 119.92 17.43 C 117.15 17.24 114.54 16.09 111.89 15.32 C 111.93 13.12 111.98 10.92 112.01 8.73 C 112.91 7.37 112.67 6.28 111.29 5.44 C 111.70 3.97 112.09 2.50 112.45 1.03 C 109.02 1.01 105.58 1.03 102.16 1.03 C 101.36 1.00 99.77 0.94 98.98 0.92 C 98.34 1.04 97.05 1.28 96.41 1.41 M 154.24 0.29 C 150.55 8.09 151.10 17.30 155.87 24.57 C 155.78 23.80 155.61 22.26 155.52 21.49 C 157.58 22.04 159.64 22.63 161.77 22.95 C 161.24 22.92 160.19 22.87 159.67 22.84 C 160.41 24.21 161.18 25.57 161.93 26.93 C 161.65 26.98 161.08 27.09 160.79 27.15 C 160.36 29.30 159.83 31.43 159.26 33.55 C 156.56 32.73 153.80 32.03 150.96 32.15 C 149.64 30.07 148.24 28.06 146.62 26.21 C 147.06 27.91 147.54 29.61 148.03 31.30 C 142.05 35.15 134.80 33.88 128.67 31.16 C 129.53 32.67 130.40 34.19 131.27 35.70 C 132.98 35.85 136.39 36.16 138.09 36.31 C 137.63 39.60 137.06 42.88 136.63 46.17 C 141.51 45.82 140.84 40.08 142.96 36.96 C 144.60 35.44 146.79 34.33 149.04 34.14 C 155.11 35.04 160.99 36.87 166.97 38.20 C 164.28 36.70 159.23 32.40 163.75 30.02 C 170.00 30.29 174.87 26.46 180.42 24.41 C 180.01 23.37 179.61 22.33 179.22 21.28 C 180.12 19.92 181.02 18.55 181.94 17.19 C 177.26 19.74 172.24 18.13 167.61 16.28 C 167.73 14.38 167.96 10.60 168.07 8.71 C 168.94 7.35 168.69 6.26 167.31 5.43 C 167.70 3.98 168.08 2.51 168.44 1.04 C 165.02 1.00 161.58 0.98 158.16 0.96 C 157.28 1.06 155.51 1.28 154.62 1.39 C 154.53 1.12 154.34 0.57 154.24 0.29 M 138.53 9.50 C 140.88 11.14 143.34 12.61 145.90 13.92 C 145.30 15.19 144.68 16.44 144.06 17.70 C 146.39 17.58 148.73 17.50 151.06 17.51 C 148.30 15.57 146.29 12.85 144.61 9.97 C 142.58 9.85 140.55 9.66 138.53 9.50 M 77.78 16.88 C 79.80 18.05 81.85 19.17 83.90 20.30 C 83.97 21.53 84.02 22.76 84.06 24.00 C 80.54 25.10 77.00 26.15 73.47 27.23 C 73.75 30.09 73.95 32.93 74.19 35.79 C 76.68 35.96 79.17 36.12 81.66 36.28 C 82.15 39.33 82.64 42.37 83.16 45.41 C 85.01 40.01 88.47 34.93 94.75 34.26 C 93.74 33.08 92.75 31.90 91.76 30.72 C 87.64 36.00 80.98 34.64 75.36 32.92 C 74.43 25.35 82.60 25.54 87.15 27.56 C 86.33 26.37 85.52 25.16 84.71 23.95 C 86.74 21.96 88.84 20.01 91.01 18.16 C 86.53 19.60 82.08 18.17 77.78 16.88 M 157.15 23.40 C 156.30 27.38 161.14 22.58 157.15 23.40 M 45.15 25.40 C 44.30 29.38 49.14 24.58 45.15 25.40 M 34.10 29.02 C 33.49 30.94 33.63 33.54 31.67 34.68 C 27.60 36.80 23.25 33.77 19.10 33.35 C 17.40 33.98 15.95 35.10 14.45 36.06 C 18.98 37.20 23.52 38.30 27.99 39.68 C 27.00 41.44 26.01 43.21 25.02 44.97 C 25.62 45.32 26.81 46.04 27.40 46.40 C 30.76 42.21 30.74 34.26 38.37 35.80 C 36.66 33.87 35.47 31.58 34.79 29.10 C 34.62 29.08 34.28 29.04 34.10 29.02 M 49.00 29.07 C 48.45 31.40 47.80 33.70 47.09 35.99 C 45.09 35.04 43.09 34.08 41.11 33.10 C 40.81 34.01 40.50 34.92 40.20 35.83 C 44.85 38.10 49.92 39.17 54.97 40.16 C 53.32 38.75 51.13 37.74 50.08 35.77 C 49.47 32.19 53.83 30.87 56.01 28.92 C 53.67 28.97 51.34 29.02 49.00 29.07 M 61.17 38.31 C 60.75 41.74 64.86 43.37 67.02 45.36 C 66.03 43.35 64.98 41.36 64.00 39.34 C 65.23 38.19 66.42 36.99 67.56 35.75 C 65.36 36.42 63.10 37.02 61.17 38.31 M 171.40 40.80 C 174.28 42.32 177.09 44.14 180.35 44.71 C 179.14 43.95 177.93 43.18 176.72 42.43 C 177.80 40.02 178.91 37.63 180.04 35.24 C 176.27 35.52 173.04 37.48 171.40 40.80 M 13.20 38.31 C 11.73 38.29 11.73 40.70 13.20 40.69 C 14.67 40.75 14.67 38.25 13.20 38.31 M 103.26 38.71 C 102.44 40.61 101.62 42.51 100.79 44.40 C 96.06 43.91 91.22 42.67 86.57 44.42 C 90.92 45.24 95.23 46.23 99.50 47.36 C 103.81 47.15 108.01 45.81 112.30 45.32 C 109.33 44.90 106.35 44.55 103.39 44.11 C 103.37 42.31 103.34 40.51 103.26 38.71 M 152.96 45.10 C 151.57 44.12 150.17 43.14 148.79 42.16 C 148.53 43.01 148.27 43.85 148.02 44.70 C 152.34 46.51 157.04 47.81 161.36 45.17 C 161.06 43.20 160.82 41.21 160.66 39.22 C 158.61 41.79 155.97 43.78 152.96 45.10 M 34.88 42.85 C 33.56 43.79 32.23 44.73 30.90 45.66 C 35.53 44.95 40.45 45.65 43.81 49.19 C 44.62 48.27 45.43 47.36 46.24 46.44 C 49.63 46.68 53.02 46.73 56.43 46.79 C 52.94 45.92 49.43 45.17 45.96 44.23 C 46.30 42.86 46.66 41.50 47.02 40.14 C 44.11 43.75 38.98 45.56 34.88 42.85 M 113.53 43.53 C 113.40 45.02 113.26 46.51 113.12 48.00 C 114.56 47.94 116.00 47.88 117.45 47.82 C 116.15 46.38 114.85 44.95 113.53 43.53 M 163.98 44.22 C 163.65 46.01 167.35 46.01 167.02 44.22 C 166.42 43.17 164.57 43.17 163.98 44.22 Z" />
</g>
<g id="#4179cbfe">
<path fill="#4179cb" opacity="1.00" d=" M 25.54 0.00 L 30.05 0.00 C 32.58 0.95 35.11 1.94 37.62 2.96 C 31.99 4.49 26.25 7.05 20.29 5.94 C 17.01 5.23 14.03 6.90 11.36 8.57 C 12.93 10.43 14.53 12.26 16.15 14.09 C 12.13 14.10 8.11 14.24 4.11 14.61 C 6.32 12.92 8.69 11.40 10.73 9.49 C 10.79 7.21 9.44 5.24 8.48 3.27 C 14.85 5.99 21.92 4.08 28.50 3.38 C 27.53 2.24 26.56 1.10 25.54 0.00 Z" />
</g>
<g id="#417acbff">
<path fill="#417acb" opacity="1.00" d=" M 85.53 0.00 L 94.15 0.00 C 94.42 0.67 94.70 1.34 94.98 2.02 C 89.83 2.61 84.85 4.18 79.78 5.09 C 75.44 4.65 70.91 4.61 67.36 7.57 C 68.93 9.43 70.54 11.27 72.15 13.09 C 68.13 13.10 64.12 13.24 60.12 13.61 C 62.30 11.92 64.65 10.42 66.65 8.50 C 66.81 6.23 65.47 4.22 64.65 2.19 C 71.57 2.96 79.68 5.21 85.53 0.00 Z" />
<path fill="#417acb" opacity="1.00" d=" M 197.57 0.00 L 206.16 0.00 C 206.43 0.67 206.70 1.34 206.98 2.02 C 201.82 2.61 196.85 4.18 191.78 5.09 C 187.44 4.65 182.90 4.61 179.36 7.57 C 180.93 9.43 182.53 11.26 184.15 13.08 C 180.17 13.10 176.19 13.25 172.24 13.66 C 175.38 11.21 178.47 8.45 179.27 4.36 C 185.41 2.94 192.36 4.28 197.57 0.00 Z" />
</g>
<g id="#4278caff">
<path fill="#4278ca" opacity="1.00" d=" M 138.86 0.00 L 141.49 0.00 C 139.47 1.69 137.86 5.45 134.64 4.34 C 130.66 3.19 126.61 3.99 123.37 6.59 C 124.94 8.44 126.54 10.27 128.15 12.09 C 124.13 12.10 120.12 12.24 116.12 12.61 C 118.30 10.92 120.65 9.41 122.66 7.50 C 122.78 5.23 121.49 3.23 120.65 1.20 C 126.66 2.03 133.38 3.60 138.86 0.00 Z" />
<path fill="#4278ca" opacity="1.00" d=" M 119.92 17.43 C 123.75 16.59 127.21 14.57 130.86 13.21 C 131.14 13.53 131.69 14.17 131.97 14.49 C 129.34 15.32 126.59 15.94 124.18 17.34 C 123.72 19.10 123.79 20.93 123.86 22.73 C 117.41 24.76 111.39 28.08 106.15 32.34 C 105.01 35.80 108.84 37.37 110.97 39.16 C 105.92 38.17 100.85 37.10 96.20 34.83 C 96.50 33.92 96.81 33.01 97.11 32.10 C 99.04 33.06 100.97 34.00 102.91 34.92 C 103.70 33.09 104.48 31.26 105.26 29.43 C 103.00 28.80 100.75 28.14 98.49 27.51 C 98.94 26.49 99.42 25.48 99.93 24.49 C 100.31 23.82 100.68 23.14 101.05 22.46 C 102.57 23.27 104.23 23.91 105.98 23.97 C 105.27 25.05 104.58 26.14 103.92 27.25 C 110.55 26.68 116.81 24.28 122.59 21.11 C 119.15 19.53 115.54 18.37 111.85 17.51 C 111.86 16.96 111.88 15.87 111.89 15.32 C 114.54 16.09 117.15 17.24 119.92 17.43 M 101.15 24.40 C 100.30 28.38 105.14 23.58 101.15 24.40 Z" />
</g>
<g id="#268dd8ff">
<path fill="#268dd8" opacity="1.00" d=" M 39.64 2.02 C 40.47 1.72 42.12 1.13 42.95 0.83 C 43.02 1.37 43.17 2.45 43.24 3.00 C 42.97 4.29 42.75 5.58 42.58 6.89 C 41.89 11.18 42.99 15.37 43.89 19.52 C 43.66 17.74 43.03 15.80 41.24 15.04 C 41.04 14.92 40.64 14.67 40.44 14.54 C 39.95 15.42 39.46 16.31 38.97 17.19 C 38.99 12.91 39.03 8.63 39.09 4.36 L 39.64 4.65 C 41.98 6.54 42.85 2.67 40.26 2.35 L 39.64 2.02 Z" />
<path fill="#268dd8" opacity="1.00" d=" M 154.24 0.29 C 154.34 0.57 154.53 1.12 154.62 1.39 C 154.76 1.82 155.04 2.69 155.17 3.12 C 154.93 4.36 154.70 5.59 154.48 6.83 C 154.27 8.07 153.85 10.55 153.64 11.79 C 154.21 13.37 154.91 14.91 155.66 16.42 C 155.34 15.98 154.69 15.11 154.36 14.67 C 154.77 16.94 155.22 19.20 155.52 21.49 C 155.61 22.26 155.78 23.80 155.87 24.57 C 151.10 17.30 150.55 8.09 154.24 0.29 Z" />
</g>
<g id="#342f2aff">
<path fill="#342f2a" opacity="1.00" d=" M 42.95 0.83 C 43.75 0.88 45.36 0.99 46.17 1.04 C 46.21 1.47 46.29 2.32 46.33 2.75 C 46.52 4.86 46.70 6.96 46.90 9.06 C 49.39 9.05 51.88 9.01 54.37 8.85 C 54.62 8.83 55.12 8.79 55.38 8.78 L 56.02 8.72 C 56.00 10.61 55.94 14.38 55.91 16.27 C 55.90 16.87 55.87 18.07 55.85 18.67 C 55.83 19.34 55.79 20.67 55.77 21.34 C 55.34 21.30 54.48 21.23 54.05 21.20 C 53.91 20.91 53.62 20.34 53.48 20.05 C 52.46 16.87 50.33 20.07 51.13 21.98 C 50.89 22.64 50.42 23.96 50.18 24.61 C 49.61 24.17 48.48 23.28 47.91 22.84 C 48.33 18.70 48.89 14.57 49.58 10.47 C 48.96 10.34 47.71 10.07 47.09 9.94 C 46.54 13.63 46.01 17.32 45.50 21.02 C 45.12 20.74 44.35 20.18 43.96 19.90 L 43.89 19.52 C 42.99 15.37 41.89 11.18 42.58 6.89 C 43.10 9.36 43.81 11.80 44.83 14.12 C 44.55 10.38 44.08 6.65 43.24 3.00 C 43.17 2.45 43.02 1.37 42.95 0.83 M 48.91 20.38 C 50.14 17.83 51.25 15.21 52.06 12.48 C 50.54 14.90 49.34 17.52 48.91 20.38 Z" />
<path fill="#342f2a" opacity="1.00" d=" M 98.98 0.92 C 99.77 0.94 101.36 1.00 102.16 1.03 C 102.21 1.46 102.29 2.32 102.34 2.75 C 102.51 4.86 102.70 6.96 102.90 9.06 C 105.39 9.05 107.88 9.02 110.37 8.86 C 110.62 8.84 111.11 8.80 111.36 8.78 L 112.01 8.73 C 111.98 10.92 111.93 13.12 111.89 15.32 C 111.88 15.87 111.86 16.96 111.85 17.51 C 111.85 18.17 111.85 19.49 111.85 20.15 C 111.37 20.17 110.43 20.22 109.96 20.25 L 109.21 20.39 C 110.08 17.59 106.88 18.46 107.02 20.65 C 106.80 21.22 106.37 22.36 106.15 22.94 C 105.39 22.61 103.87 21.96 103.11 21.64 C 104.06 17.94 104.99 14.24 105.85 10.52 C 105.15 10.38 103.75 10.08 103.05 9.93 C 102.47 13.77 101.87 17.61 101.32 21.46 C 101.00 20.54 100.67 19.63 100.33 18.72 L 100.20 18.34 C 98.80 14.69 97.46 10.87 98.56 6.88 C 99.09 9.35 99.81 11.79 100.83 14.12 C 100.53 10.38 100.10 6.65 99.25 3.00 C 99.18 2.48 99.05 1.44 98.98 0.92 M 104.91 20.38 C 106.14 17.83 107.25 15.21 108.06 12.48 C 106.54 14.90 105.34 17.52 104.91 20.38 Z" />
<path fill="#342f2a" opacity="1.00" d=" M 211.09 1.19 C 211.85 1.13 213.36 1.01 214.12 0.95 C 214.17 1.40 214.26 2.30 214.31 2.75 C 214.52 4.84 214.69 6.93 214.91 9.02 C 217.40 9.05 219.89 9.08 222.37 8.95 C 222.60 8.94 223.05 8.91 223.28 8.89 L 224.00 8.82 L 224.00 20.31 C 223.53 20.32 222.59 20.33 222.11 20.34 L 221.32 20.46 C 222.07 17.67 218.91 18.51 219.12 20.73 C 218.92 21.34 218.52 22.55 218.31 23.15 C 217.58 22.79 216.11 22.05 215.38 21.69 C 216.20 17.97 217.00 14.24 217.80 10.51 C 217.09 10.36 215.68 10.07 214.97 9.92 C 214.41 13.74 213.72 17.56 213.34 21.41 C 213.01 20.50 212.69 19.59 212.36 18.69 L 212.20 18.24 C 210.81 14.62 209.52 10.83 210.53 6.86 C 211.08 9.35 211.81 11.79 212.85 14.12 C 212.55 10.37 212.07 6.64 211.24 2.97 C 211.20 2.53 211.13 1.64 211.09 1.19 M 216.91 20.38 C 218.14 17.83 219.25 15.21 220.06 12.48 C 218.55 14.90 217.32 17.52 216.91 20.38 Z" />
</g>
<g id="#84ad5aff">
<path fill="#84ad5a" opacity="1.00" d=" M 46.17 1.04 C 49.59 1.03 53.02 1.02 56.45 1.03 C 56.09 2.50 55.70 3.97 55.30 5.43 C 54.90 6.50 54.66 7.77 55.38 8.78 C 55.12 8.79 54.62 8.83 54.37 8.85 C 52.30 6.10 49.50 4.07 46.33 2.75 C 46.29 2.32 46.21 1.47 46.17 1.04 M 51.57 2.49 C 51.13 4.20 54.15 4.84 54.73 3.29 C 55.01 1.68 52.25 1.22 51.57 2.49 Z" />
<path fill="#84ad5a" opacity="1.00" d=" M 102.16 1.03 C 105.58 1.03 109.02 1.01 112.45 1.03 C 112.09 2.50 111.70 3.97 111.29 5.44 C 110.90 6.51 110.65 7.78 111.36 8.78 C 111.11 8.80 110.62 8.84 110.37 8.86 C 108.30 6.10 105.50 4.06 102.34 2.75 C 102.29 2.32 102.21 1.46 102.16 1.03 M 107.57 2.49 C 107.13 4.20 110.15 4.84 110.73 3.29 C 111.01 1.68 108.25 1.22 107.57 2.49 Z" />
<path fill="#84ad5a" opacity="1.00" d=" M 158.16 0.96 C 161.58 0.98 165.02 1.00 168.44 1.04 C 168.08 2.51 167.70 3.98 167.31 5.43 C 166.91 6.50 166.69 7.78 167.42 8.77 C 167.16 8.79 166.63 8.83 166.37 8.85 C 164.30 6.10 161.50 4.07 158.34 2.76 C 158.30 2.31 158.21 1.41 158.16 0.96 M 163.57 2.49 C 163.13 4.20 166.15 4.84 166.73 3.29 C 167.01 1.68 164.25 1.22 163.57 2.49 Z" />
<path fill="#84ad5a" opacity="1.00" d=" M 214.12 0.95 C 217.42 0.84 220.69 0.93 224.00 0.94 L 224.00 5.28 C 222.68 5.94 221.76 7.88 223.28 8.89 C 223.05 8.91 222.60 8.94 222.37 8.95 C 220.35 6.12 217.52 4.05 214.31 2.75 C 214.26 2.30 214.17 1.40 214.12 0.95 M 219.57 2.49 C 219.13 4.20 222.15 4.84 222.73 3.29 C 223.01 1.68 220.25 1.22 219.57 2.49 Z" />
</g>
<g id="#268ed9ff">
<path fill="#268ed9" opacity="1.00" d=" M 96.41 1.41 C 97.05 1.28 98.34 1.04 98.98 0.92 C 99.05 1.44 99.18 2.48 99.25 3.00 C 98.98 4.29 98.75 5.58 98.56 6.88 C 97.46 10.87 98.80 14.69 100.20 18.34 C 99.47 16.99 98.52 15.70 97.06 15.08 C 96.46 14.74 95.26 14.06 94.66 13.72 C 95.36 11.27 94.96 8.22 96.52 6.00 C 97.39 5.11 98.37 3.67 97.20 2.58 C 97.01 2.28 96.61 1.70 96.41 1.41 Z" />
<path fill="#268ed9" opacity="1.00" d=" M 208.85 2.61 C 209.58 2.11 210.32 1.64 211.09 1.19 C 211.13 1.64 211.20 2.53 211.24 2.97 C 210.96 4.26 210.72 5.56 210.53 6.86 C 209.52 10.83 210.81 14.62 212.20 18.24 C 211.35 16.84 210.09 15.62 208.40 15.41 C 208.07 12.15 207.86 8.88 207.65 5.62 C 209.30 5.80 210.26 3.59 208.85 2.61 Z" />
<path fill="#268ed9" opacity="1.00" d=" M 109.96 20.25 C 110.43 20.22 111.37 20.17 111.85 20.15 C 111.63 20.68 111.21 21.74 110.99 22.27 C 110.74 21.77 110.22 20.75 109.96 20.25 Z" />
<path fill="#268ed9" opacity="1.00" d=" M 222.11 20.34 C 222.59 20.33 223.53 20.32 224.00 20.31 L 224.00 21.92 L 223.34 22.34 C 223.03 21.84 222.42 20.84 222.11 20.34 Z" />
<path fill="#268ed9" opacity="1.00" d=" M 54.05 21.20 C 54.48 21.23 55.34 21.30 55.77 21.34 C 55.69 21.80 55.53 22.72 55.45 23.19 C 55.10 22.69 54.40 21.70 54.05 21.20 Z" />
</g>
<g id="#332e2aff">
<path fill="#332e2a" opacity="1.00" d=" M 154.62 1.39 C 155.51 1.28 157.28 1.06 158.16 0.96 C 158.21 1.41 158.30 2.31 158.34 2.76 C 158.52 4.86 158.70 6.96 158.90 9.07 C 161.39 9.05 163.88 9.02 166.37 8.85 C 166.63 8.83 167.16 8.79 167.42 8.77 L 168.07 8.71 C 167.96 10.60 167.73 14.38 167.61 16.28 C 167.55 16.98 167.42 18.40 167.35 19.10 C 167.04 19.04 166.40 18.92 166.08 18.85 L 165.70 18.76 C 164.57 17.60 162.74 18.59 163.19 20.18 C 162.98 20.81 162.57 22.08 162.36 22.71 C 161.76 22.24 160.56 21.31 159.97 20.85 C 160.51 17.38 161.13 13.93 161.73 10.47 C 161.16 10.38 160.01 10.21 159.44 10.13 C 158.53 12.68 157.61 15.22 156.67 17.76 C 156.42 17.42 155.92 16.75 155.66 16.42 C 154.91 14.91 154.21 13.37 153.64 11.79 C 153.85 10.55 154.27 8.07 154.48 6.83 C 155.07 9.32 155.80 11.78 156.85 14.12 C 156.78 10.40 156.39 6.65 155.17 3.12 C 155.04 2.69 154.76 1.82 154.62 1.39 M 160.91 20.38 C 162.14 17.83 163.25 15.21 164.06 12.48 C 162.54 14.90 161.33 17.52 160.91 20.38 Z" />
</g>
<g id="#86a0b1ff">
<path fill="#86a0b1" opacity="1.00" d=" M 40.26 2.35 C 42.85 2.67 41.98 6.54 39.64 4.65 C 39.80 4.08 40.10 2.92 40.26 2.35 Z" />
</g>
<g id="#6f9a52ff">
<path fill="#6f9a52" opacity="1.00" d=" M 51.57 2.49 C 52.25 1.22 55.01 1.68 54.73 3.29 C 54.15 4.84 51.13 4.20 51.57 2.49 Z" />
<path fill="#6f9a52" opacity="1.00" d=" M 107.57 2.49 C 108.25 1.22 111.01 1.68 110.73 3.29 C 110.15 4.84 107.13 4.20 107.57 2.49 Z" />
<path fill="#6f9a52" opacity="1.00" d=" M 163.57 2.49 C 164.25 1.22 167.01 1.68 166.73 3.29 C 166.15 4.84 163.13 4.20 163.57 2.49 Z" />
<path fill="#6f9a52" opacity="1.00" d=" M 219.57 2.49 C 220.25 1.22 223.01 1.68 222.73 3.29 C 222.15 4.84 219.13 4.20 219.57 2.49 Z" />
</g>
<g id="#709e5cff">
<path fill="#709e5c" opacity="1.00" d=" M 46.33 2.75 C 49.50 4.07 52.30 6.10 54.37 8.85 C 51.88 9.01 49.39 9.05 46.90 9.06 C 46.70 6.96 46.52 4.86 46.33 2.75 Z" />
<path fill="#709e5c" opacity="1.00" d=" M 102.34 2.75 C 105.50 4.06 108.30 6.10 110.37 8.86 C 107.88 9.02 105.39 9.05 102.90 9.06 C 102.70 6.96 102.51 4.86 102.34 2.75 Z" />
<path fill="#709e5c" opacity="1.00" d=" M 158.34 2.76 C 161.50 4.07 164.30 6.10 166.37 8.85 C 163.88 9.02 161.39 9.05 158.90 9.07 C 158.70 6.96 158.52 4.86 158.34 2.76 Z" />
<path fill="#709e5c" opacity="1.00" d=" M 214.31 2.75 C 217.52 4.05 220.35 6.12 222.37 8.95 C 219.89 9.08 217.40 9.05 214.91 9.02 C 214.69 6.93 214.52 4.84 214.31 2.75 Z" />
</g>
<g id="#7392b4ff">
<path fill="#7392b4" opacity="1.00" d=" M 96.52 6.00 C 95.54 4.58 95.77 3.44 97.20 2.58 C 98.37 3.67 97.39 5.11 96.52 6.00 Z" />
<path fill="#7392b4" opacity="1.00" d=" M 207.65 5.62 C 207.41 4.32 207.81 3.32 208.85 2.61 C 210.26 3.59 209.30 5.80 207.65 5.62 Z" />
</g>
<g id="#645a4bff">
<path fill="#645a4b" opacity="1.00" d=" M 43.24 3.00 C 44.08 6.65 44.55 10.38 44.83 14.12 C 43.81 11.80 43.10 9.36 42.58 6.89 C 42.75 5.58 42.97 4.29 43.24 3.00 Z" />
<path fill="#645a4b" opacity="1.00" d=" M 99.25 3.00 C 100.10 6.65 100.53 10.38 100.83 14.12 C 99.81 11.79 99.09 9.35 98.56 6.88 C 98.75 5.58 98.98 4.29 99.25 3.00 Z" />
<path fill="#645a4b" opacity="1.00" d=" M 155.17 3.12 C 156.39 6.65 156.78 10.40 156.85 14.12 C 155.80 11.78 155.07 9.32 154.48 6.83 C 154.70 5.59 154.93 4.36 155.17 3.12 Z" />
<path fill="#645a4b" opacity="1.00" d=" M 211.24 2.97 C 212.07 6.64 212.55 10.37 212.85 14.12 C 211.81 11.79 211.08 9.35 210.53 6.86 C 210.72 5.56 210.96 4.26 211.24 2.97 Z" />
</g>
<g id="#5c8260ff">
<path fill="#5c8260" opacity="1.00" d=" M 55.38 8.78 C 54.66 7.77 54.90 6.50 55.30 5.43 C 56.68 6.27 56.92 7.36 56.02 8.72 L 55.38 8.78 Z" />
<path fill="#5c8260" opacity="1.00" d=" M 111.36 8.78 C 110.65 7.78 110.90 6.51 111.29 5.44 C 112.67 6.28 112.91 7.37 112.01 8.73 L 111.36 8.78 Z" />
<path fill="#5c8260" opacity="1.00" d=" M 167.42 8.77 C 166.69 7.78 166.91 6.50 167.31 5.43 C 168.69 6.26 168.94 7.35 168.07 8.71 L 167.42 8.77 Z" />
<path fill="#5c8260" opacity="1.00" d=" M 223.28 8.89 C 221.76 7.88 222.68 5.94 224.00 5.28 L 224.00 8.82 L 223.28 8.89 Z" />
</g>
<g id="#4377caff">
<path fill="#4377ca" opacity="1.00" d=" M 138.53 9.50 C 140.55 9.66 142.58 9.85 144.61 9.97 C 146.29 12.85 148.30 15.57 151.06 17.51 C 148.73 17.50 146.39 17.58 144.06 17.70 C 144.68 16.44 145.30 15.19 145.90 13.92 C 143.34 12.61 140.88 11.14 138.53 9.50 Z" />
</g>
<g id="#6c604cff">
<path fill="#6c604c" opacity="1.00" d=" M 47.09 9.94 C 47.71 10.07 48.96 10.34 49.58 10.47 C 48.89 14.57 48.33 18.70 47.91 22.84 C 47.45 22.49 46.54 21.80 46.09 21.45 L 45.50 21.02 C 46.01 17.32 46.54 13.63 47.09 9.94 Z" />
<path fill="#6c604c" opacity="1.00" d=" M 103.05 9.93 C 103.75 10.08 105.15 10.38 105.85 10.52 C 104.99 14.24 104.06 17.94 103.11 21.64 C 102.64 21.75 101.70 21.97 101.23 22.09 L 101.32 21.46 C 101.87 17.61 102.47 13.77 103.05 9.93 Z" />
<path fill="#6c604c" opacity="1.00" d=" M 214.97 9.92 C 215.68 10.07 217.09 10.36 217.80 10.51 C 217.00 14.24 216.20 17.97 215.38 21.69 C 214.93 21.82 214.04 22.10 213.59 22.23 L 213.34 21.41 C 213.72 17.56 214.41 13.74 214.97 9.92 Z" />
</g>
<g id="#6c5f4bff">
<path fill="#6c5f4b" opacity="1.00" d=" M 159.44 10.13 C 160.01 10.21 161.16 10.38 161.73 10.47 C 161.13 13.93 160.51 17.38 159.97 20.85 C 158.79 19.90 157.68 18.87 156.67 17.76 C 157.61 15.22 158.53 12.68 159.44 10.13 Z" />
</g>
<g id="#565249ff">
<path fill="#565249" opacity="1.00" d=" M 48.91 20.38 C 49.34 17.52 50.54 14.90 52.06 12.48 C 51.25 15.21 50.14 17.83 48.91 20.38 Z" />
<path fill="#565249" opacity="1.00" d=" M 104.91 20.38 C 105.34 17.52 106.54 14.90 108.06 12.48 C 107.25 15.21 106.14 17.83 104.91 20.38 Z" />
<path fill="#565249" opacity="1.00" d=" M 160.91 20.38 C 161.33 17.52 162.54 14.90 164.06 12.48 C 163.25 15.21 162.14 17.83 160.91 20.38 Z" />
<path fill="#565249" opacity="1.00" d=" M 216.91 20.38 C 217.32 17.52 218.55 14.90 220.06 12.48 C 219.25 15.21 218.14 17.83 216.91 20.38 Z" />
<path fill="#565249" opacity="1.00" d=" M 51.13 21.98 C 50.33 20.07 52.46 16.87 53.48 20.05 C 53.28 20.49 52.88 21.36 52.69 21.80 C 52.30 21.84 51.52 21.94 51.13 21.98 Z" />
<path fill="#565249" opacity="1.00" d=" M 107.02 20.65 C 106.88 18.46 110.08 17.59 109.21 20.39 L 108.47 20.91 C 108.11 20.84 107.39 20.72 107.02 20.65 Z" />
<path fill="#565249" opacity="1.00" d=" M 219.12 20.73 C 218.91 18.51 222.07 17.67 221.32 20.46 L 220.59 20.95 C 220.22 20.90 219.49 20.79 219.12 20.73 Z" />
</g>
<g id="#709fc2fe">
<path fill="#709fc2" opacity="1.00" d=" M 41.24 15.04 C 43.03 15.80 43.66 17.74 43.89 19.52 L 43.96 19.90 C 42.58 19.02 41.33 17.86 40.75 16.28 C 40.87 15.97 41.12 15.35 41.24 15.04 Z" />
</g>
<g id="#7ca2beff">
<path fill="#7ca2be" opacity="1.00" d=" M 97.06 15.08 C 98.52 15.70 99.47 16.99 100.20 18.34 L 100.33 18.72 C 98.85 18.52 97.42 17.77 96.67 16.42 C 96.77 16.09 96.97 15.42 97.06 15.08 Z" />
<path fill="#7ca2be" opacity="1.00" d=" M 208.40 15.41 C 210.09 15.62 211.35 16.84 212.20 18.24 L 212.36 18.69 C 210.91 18.60 209.49 17.98 208.61 16.80 C 208.56 16.45 208.45 15.76 208.40 15.41 Z" />
</g>
<g id="#7fa1b9ff">
<path fill="#7fa1b9" opacity="1.00" d=" M 154.36 14.67 C 154.69 15.11 155.34 15.98 155.66 16.42 C 155.92 16.75 156.42 17.42 156.67 17.76 C 157.68 18.87 158.79 19.90 159.97 20.85 C 160.56 21.31 161.76 22.24 162.36 22.71 L 162.82 23.07 L 161.77 22.95 C 159.64 22.63 157.58 22.04 155.52 21.49 C 155.22 19.20 154.77 16.94 154.36 14.67 Z" />
</g>
<g id="#427acbff">
<path fill="#427acb" opacity="1.00" d=" M 55.91 16.27 C 60.42 18.24 65.35 19.69 69.94 17.19 C 69.03 18.55 68.13 19.91 67.23 21.28 C 67.66 22.46 68.11 23.63 68.55 24.81 C 64.29 25.95 60.03 27.14 55.68 27.91 C 59.36 26.17 63.13 24.61 66.69 22.64 C 63.56 20.23 59.76 19.03 55.85 18.67 C 55.87 18.07 55.90 16.87 55.91 16.27 Z" />
</g>
<g id="#4479cbff">
<path fill="#4479cb" opacity="1.00" d=" M 167.61 16.28 C 172.24 18.13 177.26 19.74 181.94 17.19 C 181.02 18.55 180.12 19.92 179.22 21.28 C 179.61 22.33 180.01 23.37 180.42 24.41 C 174.87 26.46 170.00 30.29 163.75 30.02 C 159.23 32.40 164.28 36.70 166.97 38.20 C 160.99 36.87 155.11 35.04 149.04 34.14 C 146.79 34.33 144.60 35.44 142.96 36.96 C 140.84 40.08 141.51 45.82 136.63 46.17 C 137.06 42.88 137.63 39.60 138.09 36.31 C 136.39 36.16 132.98 35.85 131.27 35.70 C 130.40 34.19 129.53 32.67 128.67 31.16 C 134.80 33.88 142.05 35.15 148.03 31.30 C 147.54 29.61 147.06 27.91 146.62 26.21 C 148.24 28.06 149.64 30.07 150.96 32.15 C 153.80 32.03 156.56 32.73 159.26 33.55 C 159.83 31.43 160.36 29.30 160.79 27.15 C 161.08 27.09 161.65 26.98 161.93 26.93 L 162.61 26.80 C 168.36 26.79 174.11 25.65 179.06 22.67 C 175.58 20.37 171.53 19.13 167.35 19.10 C 167.42 18.40 167.55 16.98 167.61 16.28 Z" />
</g>
<g id="#4378caff">
<path fill="#4378ca" opacity="1.00" d=" M 0.00 17.42 C 6.41 20.62 13.35 19.34 20.00 17.76 C 17.81 18.73 15.58 19.62 13.51 20.84 C 11.20 21.95 11.93 24.94 11.58 27.02 C 7.74 28.34 3.85 29.54 0.00 30.84 L 0.00 29.05 C 3.21 27.28 9.34 27.47 10.06 23.19 C 7.07 21.03 3.40 20.25 0.00 18.99 L 0.00 17.42 Z" />
<path fill="#4378ca" opacity="1.00" d=" M 190.14 16.75 C 194.25 18.23 198.58 19.08 202.94 18.43 C 200.93 20.04 198.95 21.70 196.98 23.37 C 197.61 24.67 198.24 25.97 198.88 27.26 C 193.98 25.99 186.89 25.54 186.87 33.01 C 190.95 33.56 195.09 35.08 199.20 34.26 C 202.02 33.67 202.30 30.26 203.31 28.06 C 204.22 30.05 205.18 32.01 206.14 33.97 C 198.93 36.28 196.02 43.47 191.28 48.59 C 195.90 51.19 200.47 53.90 205.35 56.00 L 195.39 56.00 C 196.74 55.61 198.10 55.20 199.45 54.77 C 195.62 52.59 191.66 50.66 187.81 48.51 C 191.60 45.49 195.00 41.73 194.96 36.46 C 192.03 36.17 189.10 35.88 186.18 35.59 C 185.89 32.82 185.61 30.06 185.32 27.30 C 189.29 26.10 193.26 24.84 197.18 23.46 C 195.22 20.84 192.78 18.65 190.14 16.75 Z" />
</g>
<g id="#4377c9ff">
<path fill="#4377c9" opacity="1.00" d=" M 22.11 18.81 C 26.21 20.24 31.18 22.07 34.54 18.17 C 36.48 19.04 38.46 19.82 40.47 20.52 C 40.45 20.90 40.41 21.65 40.39 22.02 C 36.08 20.68 31.66 21.72 27.87 23.97 C 28.61 25.59 29.37 27.20 30.12 28.82 C 28.74 28.15 27.36 27.47 25.98 26.79 C 23.69 28.18 21.47 29.66 19.22 31.10 C 18.89 30.60 18.23 29.60 17.90 29.11 C 21.20 27.57 24.54 26.12 27.81 24.51 C 26.15 22.38 24.18 20.53 22.11 18.81 Z" />
</g>
<g id="#298ad7ff">
<path fill="#298ad7" opacity="1.00" d=" M 40.75 16.28 C 41.33 17.86 42.58 19.02 43.96 19.90 C 44.35 20.18 45.12 20.74 45.50 21.02 L 46.09 21.45 C 45.77 21.84 45.12 22.62 44.80 23.01 L 43.96 24.02 C 44.59 23.02 43.53 20.38 42.31 21.87 C 42.16 22.89 42.51 23.75 43.37 24.46 C 43.74 24.93 44.48 25.88 44.85 26.36 C 42.47 25.76 39.19 25.29 40.39 22.02 C 40.41 21.65 40.45 20.90 40.47 20.52 C 40.54 19.46 40.68 17.34 40.75 16.28 Z" />
</g>
<g id="#4478caff">
<path fill="#4478ca" opacity="1.00" d=" M 77.78 16.88 C 82.08 18.17 86.53 19.60 91.01 18.16 C 88.84 20.01 86.74 21.96 84.71 23.95 C 85.52 25.16 86.33 26.37 87.15 27.56 C 82.60 25.54 74.43 25.35 75.36 32.92 C 80.98 34.64 87.64 36.00 91.76 30.72 C 92.75 31.90 93.74 33.08 94.75 34.26 C 88.47 34.93 85.01 40.01 83.16 45.41 C 82.64 42.37 82.15 39.33 81.66 36.28 C 79.17 36.12 76.68 35.96 74.19 35.79 C 73.95 32.93 73.75 30.09 73.47 27.23 C 77.00 26.15 80.54 25.10 84.06 24.00 C 84.02 22.76 83.97 21.53 83.90 20.30 C 81.85 19.17 79.80 18.05 77.78 16.88 Z" />
</g>
<g id="#3a94d8ff">
<path fill="#3a94d8" opacity="1.00" d=" M 96.67 16.42 C 97.42 17.77 98.85 18.52 100.33 18.72 C 100.67 19.63 101.00 20.54 101.32 21.46 L 101.23 22.09 L 101.05 22.46 C 100.68 23.14 100.31 23.82 99.93 24.49 C 99.59 24.91 98.91 25.75 98.57 26.17 C 97.81 22.95 97.25 19.68 96.67 16.42 Z" />
<path fill="#3a94d8" opacity="1.00" d=" M 208.61 16.80 C 209.49 17.98 210.91 18.60 212.36 18.69 C 212.69 19.59 213.01 20.50 213.34 21.41 L 213.59 22.23 L 213.27 22.58 C 212.39 23.55 211.52 24.52 210.65 25.49 C 209.75 22.65 209.22 19.71 208.61 16.80 Z" />
</g>
<g id="#3b6cbfff">
<path fill="#3b6cbf" opacity="1.00" d=" M 111.85 17.51 C 115.54 18.37 119.15 19.53 122.59 21.11 C 116.81 24.28 110.55 26.68 103.92 27.25 C 106.40 26.66 108.87 26.06 111.33 25.44 C 110.31 24.98 109.27 24.52 108.24 24.07 C 109.27 23.65 110.19 23.05 110.99 22.27 C 111.21 21.74 111.63 20.68 111.85 20.15 C 111.85 19.49 111.85 18.17 111.85 17.51 Z" />
<path fill="#3b6cbf" opacity="1.00" d=" M 167.35 19.10 C 171.53 19.13 175.58 20.37 179.06 22.67 C 174.11 25.65 168.36 26.79 162.61 26.80 C 164.18 25.97 165.71 25.08 167.26 24.22 C 166.31 23.92 165.37 23.63 164.42 23.35 C 166.01 22.49 167.37 21.01 167.35 19.10 Z" />
</g>
<g id="#4a463eff">
<path fill="#4a463e" opacity="1.00" d=" M 163.19 20.18 C 162.74 18.59 164.57 17.60 165.70 18.76 C 165.07 19.12 163.82 19.82 163.19 20.18 Z" />
</g>
<g id="#5688bafe">
<path fill="#5688ba" opacity="1.00" d=" M 165.70 18.76 L 166.08 18.85 C 165.16 20.19 164.57 21.73 164.01 23.25 C 163.71 23.20 163.12 23.12 162.82 23.07 L 162.36 22.71 C 162.57 22.08 162.98 20.81 163.19 20.18 C 163.82 19.82 165.07 19.12 165.70 18.76 Z" />
</g>
<g id="#9cb3c7fe">
<path fill="#9cb3c7" opacity="1.00" d=" M 166.08 18.85 C 166.40 18.92 167.04 19.04 167.35 19.10 C 167.37 21.01 166.01 22.49 164.42 23.35 L 164.01 23.25 C 164.57 21.73 165.16 20.19 166.08 18.85 Z" />
<path fill="#9cb3c7" opacity="1.00" d=" M 109.21 20.39 L 109.96 20.25 C 110.22 20.75 110.74 21.77 110.99 22.27 C 110.19 23.05 109.27 23.65 108.24 24.07 L 107.72 23.88 C 108.05 22.90 108.30 21.91 108.47 20.91 L 109.21 20.39 Z" />
<path fill="#9cb3c7" opacity="1.00" d=" M 221.32 20.46 L 222.11 20.34 C 222.42 20.84 223.03 21.84 223.34 22.34 C 222.38 22.99 221.39 23.56 220.35 24.05 L 219.87 23.84 C 220.21 22.90 220.45 21.94 220.59 20.95 L 221.32 20.46 Z" />
</g>
<g id="#3c6abeff">
<path fill="#3c6abe" opacity="1.00" d=" M 0.00 18.99 C 3.40 20.25 7.07 21.03 10.06 23.19 C 9.34 27.47 3.21 27.28 0.00 29.05 L 0.00 18.99 Z" />
</g>
<g id="#9eb5c9ff">
<path fill="#9eb5c9" opacity="1.00" d=" M 53.48 20.05 C 53.62 20.34 53.91 20.91 54.05 21.20 C 54.40 21.70 55.10 22.69 55.45 23.19 C 54.47 23.59 53.49 23.98 52.51 24.36 L 51.94 24.57 C 52.25 23.66 52.50 22.74 52.69 21.80 C 52.88 21.36 53.28 20.49 53.48 20.05 Z" />
</g>
<g id="#adc2d9ff">
<path fill="#adc2d9" opacity="1.00" d=" M 42.31 21.87 C 43.53 20.38 44.59 23.02 43.96 24.02 L 43.37 24.46 C 42.51 23.75 42.16 22.89 42.31 21.87 Z" />
</g>
<g id="#4f7baeff">
<path fill="#4f7bae" opacity="1.00" d=" M 107.02 20.65 C 107.39 20.72 108.11 20.84 108.47 20.91 C 108.30 21.91 108.05 22.90 107.72 23.88 C 107.39 23.79 106.73 23.62 106.40 23.54 L 106.15 22.94 C 106.37 22.36 106.80 21.22 107.02 20.65 Z" />
<path fill="#4f7bae" opacity="1.00" d=" M 219.12 20.73 C 219.49 20.79 220.22 20.90 220.59 20.95 C 220.45 21.94 220.21 22.90 219.87 23.84 C 219.54 23.82 218.87 23.78 218.54 23.76 L 218.31 23.15 C 218.52 22.55 218.92 21.34 219.12 20.73 Z" />
<path fill="#4f7bae" opacity="1.00" d=" M 51.13 21.98 C 51.52 21.94 52.30 21.84 52.69 21.80 C 52.50 22.74 52.25 23.66 51.94 24.57 C 51.61 24.68 50.97 24.89 50.64 24.99 L 50.18 24.61 C 50.42 23.96 50.89 22.64 51.13 21.98 Z" />
</g>
<g id="#8ea7b9ff">
<path fill="#8ea7b9" opacity="1.00" d=" M 44.80 23.01 C 45.12 22.62 45.77 21.84 46.09 21.45 C 46.54 21.80 47.45 22.49 47.91 22.84 C 48.48 23.28 49.61 24.17 50.18 24.61 L 50.64 24.99 L 49.68 25.26 C 47.81 24.90 46.00 24.31 44.18 23.79 L 44.80 23.01 Z" />
</g>
<g id="#8ba4b6fe">
<path fill="#8ba4b6" opacity="1.00" d=" M 101.05 22.46 L 101.23 22.09 C 101.70 21.97 102.64 21.75 103.11 21.64 C 103.87 21.96 105.39 22.61 106.15 22.94 L 106.40 23.54 L 105.98 23.97 C 104.23 23.91 102.57 23.27 101.05 22.46 Z" />
<path fill="#8ba4b6" opacity="1.00" d=" M 213.27 22.58 L 213.59 22.23 C 214.04 22.10 214.93 21.82 215.38 21.69 C 216.11 22.05 217.58 22.79 218.31 23.15 L 218.54 23.76 L 217.98 24.10 C 216.30 24.02 214.71 23.41 213.27 22.58 Z" />
</g>
<g id="#4278c9ff">
<path fill="#4278c9" opacity="1.00" d=" M 210.65 25.49 C 211.52 24.52 212.39 23.55 213.27 22.58 C 214.71 23.41 216.30 24.02 217.98 24.10 C 217.31 24.51 215.97 25.34 215.30 25.75 L 214.61 26.11 C 215.10 22.77 210.78 25.40 213.94 26.47 C 216.23 27.52 218.59 28.39 220.97 29.23 C 219.87 30.97 218.73 32.72 218.07 34.68 C 219.44 36.43 221.15 37.87 222.78 39.37 C 217.86 38.14 212.94 36.87 208.24 34.94 C 208.50 34.01 208.77 33.09 209.03 32.17 C 211.01 33.07 212.98 33.96 214.97 34.84 C 215.62 33.30 216.24 31.74 216.84 30.18 C 214.69 28.74 212.50 27.32 210.65 25.49 Z" />
</g>
<g id="#65569cff">
<path fill="#65569c" opacity="1.00" d=" M 157.15 23.40 C 161.14 22.58 156.30 27.38 157.15 23.40 Z" />
<path fill="#65569c" opacity="1.00" d=" M 161.77 22.95 L 162.82 23.07 C 163.12 23.12 163.71 23.20 164.01 23.25 L 164.42 23.35 C 165.37 23.63 166.31 23.92 167.26 24.22 C 165.71 25.08 164.18 25.97 162.61 26.80 L 161.93 26.93 C 161.18 25.57 160.41 24.21 159.67 22.84 C 160.19 22.87 161.24 22.92 161.77 22.95 Z" />
<path fill="#65569c" opacity="1.00" d=" M 101.15 24.40 C 105.14 23.58 100.30 28.38 101.15 24.40 Z" />
<path fill="#65569c" opacity="1.00" d=" M 105.98 23.97 L 106.40 23.54 C 106.73 23.62 107.39 23.79 107.72 23.88 L 108.24 24.07 C 109.27 24.52 110.31 24.98 111.33 25.44 C 108.87 26.06 106.40 26.66 103.92 27.25 C 104.58 26.14 105.27 25.05 105.98 23.97 Z" />
<path fill="#65569c" opacity="1.00" d=" M 213.94 26.47 C 210.78 25.40 215.10 22.77 214.61 26.11 L 213.94 26.47 Z" />
<path fill="#65569c" opacity="1.00" d=" M 217.98 24.10 L 218.54 23.76 C 218.87 23.78 219.54 23.82 219.87 23.84 L 220.35 24.05 C 221.38 24.64 222.40 25.24 223.41 25.87 C 220.71 25.89 218.00 25.80 215.30 25.75 C 215.97 25.34 217.31 24.51 217.98 24.10 Z" />
<path fill="#65569c" opacity="1.00" d=" M 45.15 25.40 C 49.14 24.58 44.30 29.38 45.15 25.40 Z" />
<path fill="#65569c" opacity="1.00" d=" M 49.68 25.26 L 50.64 24.99 C 50.97 24.89 51.61 24.68 51.94 24.57 L 52.51 24.36 C 53.42 25.34 54.34 26.32 55.26 27.30 C 52.48 27.31 49.70 27.13 47.06 26.18 C 47.72 25.95 49.03 25.49 49.68 25.26 Z" />
</g>
<g id="#4578c9ff">
<path fill="#4578c9" opacity="1.00" d=" M 34.10 29.02 C 34.28 29.04 34.62 29.08 34.79 29.10 C 35.47 31.58 36.66 33.87 38.37 35.80 C 30.74 34.26 30.76 42.21 27.40 46.40 C 26.81 46.04 25.62 45.32 25.02 44.97 C 26.01 43.21 27.00 41.44 27.99 39.68 C 23.52 38.30 18.98 37.20 14.45 36.06 C 15.95 35.10 17.40 33.98 19.10 33.35 C 23.25 33.77 27.60 36.80 31.67 34.68 C 33.63 33.54 33.49 30.94 34.10 29.02 Z" />
</g>
<g id="#4379caff">
<path fill="#4379ca" opacity="1.00" d=" M 49.00 29.07 C 51.34 29.02 53.67 28.97 56.01 28.92 C 53.83 30.87 49.47 32.19 50.08 35.77 C 51.13 37.74 53.32 38.75 54.97 40.16 C 49.92 39.17 44.85 38.10 40.20 35.83 C 40.50 34.92 40.81 34.01 41.11 33.10 C 43.09 34.08 45.09 35.04 47.09 35.99 C 47.80 33.70 48.45 31.40 49.00 29.07 Z" />
</g>
<g id="#406fc5ff">
<path fill="#406fc5" opacity="1.00" d=" M 0.00 37.14 C 3.71 36.75 7.42 36.35 11.13 35.95 C 10.40 39.86 11.19 43.78 13.27 47.16 C 11.89 47.28 9.12 47.53 7.74 47.65 C 7.76 48.30 7.77 48.94 7.79 49.59 C 5.19 49.41 2.60 49.24 0.00 49.04 L 0.00 37.14 Z" />
</g>
<g id="#4878cbff">
<path fill="#4878cb" opacity="1.00" d=" M 61.17 38.31 C 63.10 37.02 65.36 36.42 67.56 35.75 C 66.42 36.99 65.23 38.19 64.00 39.34 C 64.98 41.36 66.03 43.35 67.02 45.36 C 64.86 43.37 60.75 41.74 61.17 38.31 Z" />
</g>
<g id="#4374c9ff">
<path fill="#4374c9" opacity="1.00" d=" M 171.40 40.80 C 173.04 37.48 176.27 35.52 180.04 35.24 C 178.91 37.63 177.80 40.02 176.72 42.43 C 177.93 43.18 179.14 43.95 180.35 44.71 C 177.09 44.14 174.28 42.32 171.40 40.80 Z" />
</g>
<g id="#4070c4ff">
<path fill="#4070c4" opacity="1.00" d=" M 13.20 38.31 C 14.67 38.25 14.67 40.75 13.20 40.69 C 11.73 40.70 11.73 38.29 13.20 38.31 Z" />
</g>
<g id="#4378cbff">
<path fill="#4378cb" opacity="1.00" d=" M 103.26 38.71 C 103.34 40.51 103.37 42.31 103.39 44.11 C 106.35 44.55 109.33 44.90 112.30 45.32 C 108.01 45.81 103.81 47.15 99.50 47.36 C 95.23 46.23 90.92 45.24 86.57 44.42 C 91.22 42.67 96.06 43.91 100.79 44.40 C 101.62 42.51 102.44 40.61 103.26 38.71 Z" />
<path fill="#4378cb" opacity="1.00" d=" M 34.88 42.85 C 38.98 45.56 44.11 43.75 47.02 40.14 C 46.66 41.50 46.30 42.86 45.96 44.23 C 49.43 45.17 52.94 45.92 56.43 46.79 C 53.02 46.73 49.63 46.68 46.24 46.44 C 45.43 47.36 44.62 48.27 43.81 49.19 C 40.45 45.65 35.53 44.95 30.90 45.66 C 32.23 44.73 33.56 43.79 34.88 42.85 Z" />
</g>
<g id="#4279cbff">
<path fill="#4279cb" opacity="1.00" d=" M 152.96 45.10 C 155.97 43.78 158.61 41.79 160.66 39.22 C 160.82 41.21 161.06 43.20 161.36 45.17 C 157.04 47.81 152.34 46.51 148.02 44.70 C 148.27 43.85 148.53 43.01 148.79 42.16 C 150.17 43.14 151.57 44.12 152.96 45.10 Z" />
</g>
<g id="#4379cbff">
<path fill="#4379cb" opacity="1.00" d=" M 198.56 44.16 C 207.01 42.56 215.54 44.77 224.00 45.14 L 224.00 45.90 C 218.93 46.18 213.74 47.92 208.66 46.69 C 205.26 45.98 201.87 45.21 198.56 44.16 Z" />
</g>
<g id="#4c77caff">
<path fill="#4c77ca" opacity="1.00" d=" M 59.73 44.10 C 60.83 44.92 61.93 45.73 63.04 46.56 C 61.81 47.52 60.59 48.49 59.33 49.41 C 58.82 49.46 57.81 49.57 57.30 49.62 C 58.08 47.77 58.93 45.95 59.73 44.10 Z" />
</g>
<g id="#4778d1ff">
<path fill="#4778d1" opacity="1.00" d=" M 113.53 43.53 C 114.85 44.95 116.15 46.38 117.45 47.82 C 116.00 47.88 114.56 47.94 113.12 48.00 C 113.26 46.51 113.40 45.02 113.53 43.53 Z" />
</g>
<g id="#4575cbff">
<path fill="#4575cb" opacity="1.00" d=" M 163.98 44.22 C 164.57 43.17 166.42 43.17 167.02 44.22 C 167.35 46.01 163.65 46.01 163.98 44.22 Z" />
</g>
<g id="#4177ccff">
<path fill="#4177cc" opacity="1.00" d=" M 130.40 46.09 C 138.08 46.76 144.11 51.76 150.17 56.00 L 139.14 56.00 C 140.76 55.38 144.00 54.15 145.61 53.53 C 143.26 52.25 140.87 51.03 138.47 49.83 C 138.28 51.15 138.09 52.47 137.90 53.78 C 135.36 51.26 132.69 48.86 130.40 46.09 Z" />
</g>
<g id="#536ea1ff">
<path fill="#536ea1" opacity="1.00" d=" M 0.00 49.04 C 2.60 49.24 5.19 49.41 7.79 49.59 C 9.01 51.52 10.25 53.44 11.57 55.29 C 8.16 52.66 3.99 51.48 0.00 50.03 L 0.00 49.04 Z" />
</g>
<g id="#42689dff">
<path fill="#42689d" opacity="1.00" d=" M 112.86 49.93 C 115.72 49.90 118.67 49.54 121.50 50.15 C 122.75 51.55 123.32 53.40 124.17 55.04 C 120.61 52.91 116.64 51.61 112.64 50.57 L 112.86 49.93 Z" />
</g>
<g id="#6894c6ff">
<path fill="#6894c6" opacity="1.00" d=" M 7.79 49.59 C 10.48 51.61 13.01 53.83 15.59 56.00 L 12.57 56.00 L 11.57 55.29 C 10.25 53.44 9.01 51.52 7.79 49.59 Z" />
</g>
<g id="#315a8cff">
<path fill="#315a8c" opacity="1.00" d=" M 56.50 51.63 C 56.76 50.95 57.02 50.29 57.30 49.62 C 57.81 49.57 58.82 49.46 59.33 49.41 C 60.59 49.85 61.83 50.33 63.06 50.86 C 61.60 51.04 58.68 51.40 57.22 51.58 L 56.50 51.63 Z" />
</g>
<g id="#2f5b84ff">
<path fill="#2f5b84" opacity="1.00" d=" M 168.49 49.96 C 170.15 50.14 173.46 50.49 175.11 50.67 L 174.24 50.74 C 172.94 50.89 170.34 51.17 169.04 51.31 L 168.14 51.38 C 168.23 51.03 168.40 50.32 168.49 49.96 Z" />
</g>
<g id="#607aafff">
<path fill="#607aaf" opacity="1.00" d=" M 175.11 50.67 C 178.04 51.00 179.47 54.09 181.32 56.00 L 179.98 56.00 C 177.98 54.34 176.09 52.57 174.24 50.74 L 175.11 50.67 Z" />
</g>
<g id="#24393dff">
<path fill="#24393d" opacity="1.00" d=" M 0.00 50.03 C 3.99 51.48 8.16 52.66 11.57 55.29 L 12.57 56.00 L 7.70 56.00 C 5.14 54.31 2.55 52.66 0.00 50.96 L 0.00 50.03 Z" />
</g>
<g id="#203b3cff">
<path fill="#203b3c" opacity="1.00" d=" M 57.22 51.58 C 58.68 51.40 61.60 51.04 63.06 50.86 C 64.66 52.63 66.31 54.37 68.06 56.00 L 64.63 56.00 C 63.91 55.43 62.47 54.29 61.75 53.72 C 60.32 52.85 58.78 52.17 57.22 51.58 Z" />
</g>
<g id="#6286a8ff">
<path fill="#6286a8" opacity="1.00" d=" M 63.06 50.86 C 65.47 52.26 67.51 54.18 69.61 56.00 L 68.06 56.00 C 66.31 54.37 64.66 52.63 63.06 50.86 Z" />
</g>
<g id="#244048ff">
<path fill="#244048" opacity="1.00" d=" M 112.64 50.57 C 116.64 51.61 120.61 52.91 124.17 55.04 L 124.65 56.00 L 119.31 56.00 C 118.48 54.96 117.67 53.90 116.87 52.84 C 115.35 52.43 113.84 52.03 112.33 51.63 L 112.64 50.57 Z" />
</g>
<g id="#203b43ff">
<path fill="#203b43" opacity="1.00" d=" M 169.04 51.31 C 170.34 51.17 172.94 50.89 174.24 50.74 C 176.09 52.57 177.98 54.34 179.98 56.00 L 176.60 56.00 C 174.17 54.29 171.78 52.50 169.04 51.31 Z" />
</g>
<g id="#7c9c74ff">
<path fill="#7c9c74" opacity="1.00" d=" M 0.00 50.96 C 2.55 52.66 5.14 54.31 7.70 56.00 L 6.40 56.00 C 4.24 54.90 2.09 53.79 0.00 52.58 L 0.00 50.96 Z" />
</g>
<g id="#709d86ff">
<path fill="#709d86" opacity="1.00" d=" M 56.50 51.63 L 57.22 51.58 C 58.78 52.17 60.32 52.85 61.75 53.72 C 60.60 53.62 59.45 53.55 58.30 53.48 C 57.49 54.33 56.68 55.17 55.85 56.00 L 54.99 56.00 C 55.48 54.54 55.99 53.08 56.50 51.63 Z" />
</g>
<g id="#6e9a88ff">
<path fill="#6e9a88" opacity="1.00" d=" M 112.33 51.63 C 113.84 52.03 115.35 52.43 116.87 52.84 C 115.01 53.52 113.15 54.21 111.35 55.03 C 111.59 54.18 112.08 52.48 112.33 51.63 Z" />
</g>
<g id="#72a072ff">
<path fill="#72a072" opacity="1.00" d=" M 168.14 51.38 L 169.04 51.31 C 171.78 52.50 174.17 54.29 176.60 56.00 L 174.06 56.00 C 173.11 55.26 172.18 54.52 171.25 53.76 C 170.19 54.51 169.14 55.26 168.07 56.00 L 167.21 56.00 C 167.51 54.46 167.81 52.92 168.14 51.38 Z" />
</g>
<g id="#759d51ff">
<path fill="#759d51" opacity="1.00" d=" M 0.00 52.58 C 2.09 53.79 4.24 54.90 6.40 56.00 L 0.00 56.00 L 0.00 52.58 Z" />
</g>
<g id="#6e9b56fe">
<path fill="#6e9b56" opacity="1.00" d=" M 55.85 56.00 C 56.68 55.17 57.49 54.33 58.30 53.48 C 59.45 53.55 60.60 53.62 61.75 53.72 C 62.47 54.29 63.91 55.43 64.63 56.00 L 55.85 56.00 Z" />
</g>
<g id="#75a064ff">
<path fill="#75a064" opacity="1.00" d=" M 111.35 55.03 C 113.15 54.21 115.01 53.52 116.87 52.84 C 117.67 53.90 118.48 54.96 119.31 56.00 L 111.02 56.00 L 111.35 55.03 Z" />
</g>
<g id="#669946ff">
<path fill="#669946" opacity="1.00" d=" M 168.07 56.00 C 169.14 55.26 170.19 54.51 171.25 53.76 C 172.18 54.52 173.11 55.26 174.06 56.00 L 168.07 56.00 Z" />
</g>
</svg>
