<?xml version="1.0" encoding="UTF-8" ?>
<!DOCTYPE svg PUBLIC "-//W3C//DTD SVG 1.1//EN" "http://www.w3.org/Graphics/SVG/1.1/DTD/svg11.dtd">
<svg width="224pt" height="56pt" viewBox="0 0 224 56" version="1.1" xmlns="http://www.w3.org/2000/svg">
<g id="#739f5cff">
<path fill="#739f5c" opacity="1.00" d=" M 0.00 0.00 L 224.00 0.00 L 224.00 3.80 C 223.56 3.74 222.69 3.61 222.25 3.55 C 219.09 2.99 215.88 2.95 212.69 3.22 L 211.69 3.27 C 211.45 1.94 210.62 1.40 209.21 1.66 C 207.11 1.77 205.01 1.80 202.91 1.74 C 201.59 1.58 200.66 2.13 200.13 3.38 C 197.02 4.40 193.91 5.47 190.65 5.88 C 189.87 5.45 189.09 5.01 188.29 4.61 C 186.04 3.44 183.80 2.27 181.48 1.27 C 176.47 2.59 171.43 6.15 166.11 4.04 C 163.07 3.08 159.87 2.81 156.70 3.16 L 155.70 3.22 C 155.44 1.89 154.61 1.37 153.20 1.65 C 151.10 1.77 149.01 1.80 146.91 1.74 C 145.59 1.58 144.66 2.13 144.12 3.38 C 141.02 4.40 137.91 5.47 134.65 5.88 C 133.87 5.45 133.09 5.01 132.29 4.61 C 130.04 3.44 127.80 2.27 125.48 1.27 C 120.47 2.59 115.43 6.15 110.11 4.04 C 107.07 3.08 103.87 2.81 100.70 3.16 L 99.70 3.22 C 99.44 1.89 98.61 1.37 97.20 1.65 C 95.10 1.77 93.01 1.80 90.91 1.74 C 89.59 1.58 88.66 2.13 88.12 3.38 C 85.02 4.40 81.91 5.47 78.65 5.88 C 77.87 5.45 77.09 5.01 76.29 4.61 C 74.04 3.44 71.80 2.27 69.48 1.27 C 64.47 2.59 59.43 6.15 54.11 4.04 C 51.07 3.08 47.87 2.81 44.70 3.16 L 43.70 3.22 C 43.44 1.89 42.61 1.37 41.20 1.65 C 39.10 1.77 37.01 1.80 34.91 1.74 C 33.59 1.58 32.66 2.13 32.12 3.38 C 29.02 4.40 25.91 5.47 22.66 5.88 C 21.87 5.44 21.09 5.01 20.29 4.61 C 18.04 3.44 15.79 2.27 13.47 1.27 C 8.78 2.43 4.28 4.24 0.00 6.46 L 0.00 0.00 Z" />
</g>
<g id="#5e8e65fe">
<path fill="#5e8e65" opacity="1.00" d=" M 13.47 1.27 C 15.79 2.27 18.04 3.44 20.29 4.61 C 17.93 3.84 15.55 3.13 13.22 2.28 L 13.47 1.27 Z" />
<path fill="#5e8e65" opacity="1.00" d=" M 69.48 1.27 C 71.80 2.27 74.04 3.44 76.29 4.61 C 73.93 3.83 71.56 3.13 69.23 2.28 L 69.48 1.27 Z" />
<path fill="#5e8e65" opacity="1.00" d=" M 125.48 1.27 C 127.80 2.27 130.04 3.44 132.29 4.61 C 129.93 3.83 127.55 3.13 125.23 2.28 L 125.48 1.27 Z" />
<path fill="#5e8e65" opacity="1.00" d=" M 181.48 1.27 C 183.80 2.27 186.04 3.44 188.29 4.61 C 185.93 3.83 183.55 3.13 181.23 2.28 L 181.48 1.27 Z" />
</g>
<g id="#342f2bff">
<path fill="#342f2b" opacity="1.00" d=" M 0.00 6.46 C 4.28 4.24 8.78 2.43 13.47 1.27 L 13.22 2.28 C 13.07 2.84 12.77 3.94 12.62 4.50 C 15.94 5.15 19.27 5.79 22.66 5.88 C 25.91 5.47 29.02 4.40 32.12 3.38 C 33.65 3.67 34.58 3.12 34.91 1.74 C 37.01 1.80 39.10 1.77 41.20 1.65 C 41.44 2.98 42.27 3.50 43.70 3.22 L 44.70 3.16 C 47.84 3.38 50.99 3.60 54.11 4.04 C 59.43 6.15 64.47 2.59 69.48 1.27 L 69.23 2.28 C 69.08 2.83 68.77 3.94 68.62 4.50 C 71.93 5.15 75.27 5.79 78.65 5.88 C 81.91 5.47 85.02 4.40 88.12 3.38 C 89.65 3.67 90.58 3.12 90.91 1.74 C 93.01 1.80 95.10 1.77 97.20 1.65 C 97.44 2.98 98.27 3.50 99.70 3.22 L 100.70 3.16 C 103.84 3.38 106.99 3.60 110.11 4.04 C 115.43 6.15 120.47 2.59 125.48 1.27 L 125.23 2.28 C 125.08 2.83 124.77 3.94 124.62 4.50 C 127.93 5.15 131.26 5.79 134.65 5.88 C 137.91 5.47 141.02 4.40 144.12 3.38 C 145.65 3.67 146.58 3.12 146.91 1.74 C 149.01 1.80 151.10 1.77 153.20 1.65 C 153.44 2.98 154.27 3.50 155.70 3.22 L 156.70 3.16 C 159.83 3.38 162.99 3.60 166.11 4.04 C 171.43 6.15 176.47 2.59 181.48 1.27 L 181.23 2.28 C 181.08 2.83 180.77 3.94 180.62 4.50 C 183.93 5.15 187.26 5.79 190.65 5.88 C 193.91 5.47 197.02 4.40 200.13 3.38 C 201.65 3.67 202.58 3.12 202.91 1.74 C 205.01 1.80 207.11 1.77 209.21 1.66 C 209.44 3.00 210.27 3.54 211.69 3.27 L 212.69 3.22 C 215.86 3.28 219.07 3.33 222.25 3.55 C 222.69 3.61 223.56 3.74 224.00 3.80 L 224.00 16.93 C 222.72 16.32 221.86 16.66 221.41 17.95 L 220.45 17.75 C 219.55 17.54 218.66 17.32 217.76 17.10 C 217.45 16.72 216.81 15.98 216.49 15.61 C 217.89 15.24 219.15 14.52 220.35 13.73 C 220.88 13.41 221.93 12.77 222.45 12.45 C 222.18 11.82 221.89 11.19 221.62 10.56 C 220.09 10.45 218.56 10.34 217.03 10.23 C 215.46 8.55 213.83 6.92 212.15 5.35 C 212.82 7.47 213.54 9.58 214.30 11.68 C 213.23 12.23 212.17 12.79 211.12 13.35 C 212.46 13.93 213.80 14.50 215.12 15.13 L 215.59 15.55 C 215.57 15.94 215.52 16.73 215.50 17.12 C 214.96 16.98 213.88 16.71 213.34 16.57 C 212.98 16.54 212.27 16.49 211.92 16.46 C 210.51 16.50 209.92 17.21 210.14 18.57 L 210.01 17.82 C 209.72 16.01 209.53 14.19 209.38 12.37 C 209.34 12.04 209.26 11.37 209.22 11.04 C 208.90 9.31 208.67 6.65 206.40 6.51 C 204.55 5.85 203.10 7.49 201.75 8.45 C 201.71 6.84 201.66 5.24 201.60 3.63 C 201.03 5.84 200.51 8.06 199.96 10.27 C 199.86 10.63 199.65 11.36 199.55 11.72 C 199.11 13.26 198.68 14.80 198.18 16.32 C 197.65 17.06 197.10 17.78 196.54 18.50 L 195.84 18.89 L 194.87 19.04 C 195.22 17.08 195.58 15.12 196.00 13.17 C 196.32 11.70 196.67 10.23 197.06 8.77 C 197.17 8.46 197.39 7.82 197.50 7.51 C 194.63 8.43 191.62 9.06 188.60 8.59 C 185.79 9.23 182.95 8.77 180.86 6.63 C 180.00 9.21 179.20 11.81 178.22 14.35 C 179.21 15.62 180.20 16.87 181.23 18.10 C 180.88 18.28 180.17 18.66 179.81 18.84 C 179.38 19.10 178.51 19.61 178.08 19.87 C 177.99 18.56 177.91 17.25 177.83 15.95 C 175.87 16.23 173.92 16.52 171.97 16.82 C 172.41 17.18 173.28 17.91 173.72 18.28 C 174.31 18.53 175.49 19.04 176.08 19.30 L 176.17 20.13 C 173.67 19.57 171.17 18.98 168.66 18.46 L 168.04 17.21 C 167.82 15.54 165.63 15.43 165.11 16.96 L 164.29 16.84 C 162.39 16.48 160.51 16.02 158.68 15.42 C 160.83 16.10 162.89 14.99 164.38 13.50 C 165.13 13.16 166.62 12.49 167.37 12.15 C 165.26 11.26 163.10 10.49 160.93 9.76 C 159.36 8.28 157.74 6.83 156.10 5.42 C 156.79 7.47 157.50 9.52 158.25 11.54 C 157.09 12.34 155.93 13.14 154.79 13.95 C 155.74 14.33 156.70 14.71 157.66 15.07 C 157.29 15.15 156.56 15.30 156.20 15.38 C 154.80 15.52 154.17 16.25 154.30 17.57 L 154.05 16.80 C 153.60 15.36 153.18 13.92 152.84 12.45 C 152.87 12.14 152.94 11.50 152.98 11.18 C 153.12 9.95 153.28 8.73 153.46 7.50 C 150.84 6.66 147.85 6.02 145.79 8.43 C 145.71 6.82 145.64 5.21 145.56 3.60 C 144.83 5.75 144.11 7.90 143.52 10.10 C 143.75 12.44 144.30 14.72 145.06 16.94 C 144.30 16.34 143.53 15.75 142.77 15.17 C 142.00 15.90 141.22 16.62 140.43 17.32 L 139.78 17.74 L 138.90 17.99 C 139.25 16.37 139.60 14.76 139.98 13.15 C 140.32 11.69 140.68 10.23 141.09 8.78 C 141.21 8.46 141.43 7.82 141.54 7.50 C 138.66 8.42 135.64 9.06 132.61 8.59 C 129.69 9.28 126.80 8.68 124.63 6.51 C 123.55 10.06 121.59 14.37 124.69 17.48 C 124.45 17.59 123.97 17.82 123.73 17.93 C 123.34 18.14 122.57 18.57 122.18 18.79 C 122.05 18.18 121.81 16.96 121.68 16.35 C 120.51 16.15 119.35 15.96 118.18 15.77 C 118.67 16.99 119.16 18.21 119.61 19.45 C 116.92 18.55 114.22 17.66 111.54 16.75 C 110.73 15.74 108.40 15.99 109.10 17.64 L 108.27 17.58 C 107.42 17.49 106.57 17.38 105.72 17.26 C 105.42 16.86 104.82 16.06 104.52 15.65 C 105.91 15.27 107.15 14.53 108.35 13.74 C 108.87 13.41 109.92 12.77 110.44 12.44 C 110.17 11.81 109.90 11.19 109.63 10.56 C 108.09 10.45 106.56 10.34 105.03 10.23 C 103.46 8.55 101.83 6.92 100.15 5.35 C 100.82 7.47 101.54 9.58 102.30 11.68 C 101.23 12.23 100.18 12.79 99.12 13.35 C 100.47 13.93 101.82 14.51 103.15 15.14 L 103.61 15.58 C 103.58 15.97 103.52 16.75 103.48 17.14 C 102.95 17.00 101.88 16.71 101.34 16.57 C 100.99 16.54 100.28 16.48 99.92 16.46 C 98.52 16.50 97.92 17.20 98.14 18.57 L 98.01 17.81 C 97.72 16.01 97.53 14.19 97.38 12.37 C 97.34 12.04 97.26 11.37 97.22 11.04 C 96.90 9.31 96.67 6.65 94.40 6.51 C 92.55 5.85 91.10 7.49 89.75 8.45 C 89.71 6.84 89.66 5.24 89.60 3.63 C 89.03 5.84 88.51 8.06 87.96 10.27 C 87.86 10.63 87.65 11.36 87.55 11.72 C 87.11 13.26 86.68 14.80 86.18 16.32 C 85.65 17.06 85.10 17.78 84.54 18.50 L 83.84 18.89 L 82.87 19.04 C 83.23 17.08 83.58 15.12 84.00 13.17 C 84.32 11.70 84.67 10.23 85.06 8.77 C 85.17 8.46 85.39 7.82 85.50 7.51 C 82.63 8.43 79.62 9.06 76.60 8.59 C 73.79 9.23 70.95 8.77 68.86 6.63 C 68.01 9.22 67.20 11.81 66.22 14.35 C 67.21 15.61 68.19 16.87 69.23 18.09 C 68.87 18.28 68.17 18.66 67.81 18.85 C 67.38 19.10 66.52 19.62 66.08 19.88 C 66.00 18.57 65.91 17.26 65.83 15.95 C 63.87 16.23 61.92 16.52 59.98 16.82 C 60.41 17.18 61.28 17.92 61.71 18.28 C 62.30 18.54 63.48 19.07 64.07 19.33 L 64.16 20.22 C 61.19 19.40 58.25 18.49 55.29 17.64 C 54.02 16.99 52.13 17.13 51.64 18.69 C 51.16 18.51 50.21 18.15 49.74 17.97 C 49.42 17.44 48.79 16.39 48.48 15.86 C 49.83 15.46 51.02 14.67 52.17 13.88 C 52.73 13.50 53.86 12.76 54.42 12.39 C 54.16 11.78 53.89 11.17 53.63 10.55 C 52.10 10.45 50.57 10.35 49.04 10.23 C 47.46 8.55 45.83 6.93 44.15 5.35 C 44.82 7.46 45.52 9.55 46.27 11.63 C 45.25 12.22 44.23 12.81 43.21 13.40 C 44.90 14.76 46.56 16.16 48.30 17.45 C 47.56 17.44 46.08 17.42 45.34 17.41 C 44.98 17.42 44.28 17.46 43.93 17.48 C 42.55 17.49 41.90 18.16 41.99 19.47 L 41.63 18.69 C 41.45 16.59 41.43 14.48 41.42 12.38 C 41.39 12.03 41.33 11.34 41.30 11.00 C 40.93 9.28 40.64 6.65 38.39 6.51 C 36.55 5.87 35.10 7.48 33.75 8.43 C 33.71 6.83 33.65 5.23 33.59 3.63 C 33.00 5.85 32.43 8.07 31.87 10.30 C 31.76 10.74 31.53 11.63 31.41 12.08 C 30.98 13.79 30.58 15.52 30.14 17.23 C 29.60 17.96 29.05 18.68 28.48 19.39 L 27.79 19.79 L 26.84 19.97 C 27.66 18.52 27.30 16.83 27.10 15.29 C 27.26 14.76 27.58 13.69 27.74 13.16 C 28.17 11.69 28.59 10.22 29.04 8.76 C 29.18 8.31 29.47 7.40 29.62 6.95 C 27.48 7.89 25.37 8.87 23.25 9.83 C 22.58 9.20 21.91 8.57 21.24 7.94 C 18.20 9.27 14.90 9.14 12.59 6.47 C 11.33 10.50 10.81 14.71 11.87 18.82 C 11.93 19.28 12.04 20.19 12.09 20.65 C 11.79 20.42 11.20 19.96 10.90 19.73 C 10.30 18.49 9.71 17.24 9.14 15.99 C 6.96 16.44 4.78 16.88 2.60 17.32 C 3.53 17.78 4.47 18.23 5.41 18.68 C 6.04 18.87 7.29 19.25 7.92 19.45 C 8.05 19.89 8.30 20.77 8.43 21.21 C 5.60 20.51 2.80 19.71 0.00 18.90 L 0.00 6.46 M 8.22 11.83 C 5.80 14.46 11.20 14.46 8.78 11.83 C 9.64 10.04 9.29 7.70 8.62 5.87 C 7.46 7.17 7.47 10.15 8.22 11.83 M 49.13 6.18 C 49.08 6.89 48.98 8.30 48.94 9.01 C 49.74 8.99 51.35 8.96 52.16 8.94 C 52.23 7.60 52.32 6.26 52.38 4.92 C 51.29 5.34 50.21 5.76 49.13 6.18 M 64.22 11.83 C 61.80 14.46 67.20 14.46 64.78 11.83 C 65.64 10.04 65.29 7.70 64.62 5.87 C 63.46 7.17 63.47 10.15 64.22 11.83 M 105.13 6.18 C 105.08 6.89 104.98 8.30 104.94 9.01 C 105.74 8.99 107.35 8.96 108.16 8.94 C 108.23 7.60 108.32 6.26 108.38 4.92 C 107.29 5.34 106.21 5.76 105.13 6.18 M 120.22 11.83 C 117.80 14.46 123.20 14.46 120.78 11.83 C 121.64 10.04 121.29 7.70 120.62 5.87 C 119.46 7.17 119.47 10.15 120.22 11.83 M 161.06 5.84 C 161.04 6.65 161.01 8.26 160.99 9.06 C 161.70 9.02 163.11 8.92 163.82 8.87 C 164.24 7.79 164.66 6.71 165.08 5.62 C 163.73 5.68 162.39 5.76 161.06 5.84 M 176.22 11.83 C 173.80 14.46 179.20 14.46 176.78 11.83 C 177.64 10.04 177.29 7.70 176.62 5.87 C 175.46 7.17 175.47 10.15 176.22 11.83 M 217.06 5.84 C 217.04 6.65 217.01 8.26 216.99 9.06 C 217.70 9.02 219.11 8.92 219.82 8.87 C 220.24 7.79 220.66 6.71 221.08 5.62 C 219.73 5.68 218.39 5.76 217.06 5.84 M 3.50 8.08 C 4.12 10.57 4.80 13.05 5.58 15.50 C 5.79 13.00 6.02 10.50 6.17 8.00 C 5.50 8.02 4.16 8.06 3.50 8.08 M 59.50 8.08 C 60.12 10.57 60.80 13.05 61.58 15.50 C 61.79 13.00 62.01 10.50 62.17 8.00 C 61.50 8.02 60.16 8.06 59.50 8.08 M 115.50 8.08 C 116.12 10.57 116.80 13.05 117.58 15.50 C 117.79 13.00 118.01 10.50 118.17 8.00 C 117.50 8.02 116.16 8.06 115.50 8.08 M 171.50 8.08 C 172.12 10.57 172.80 13.05 173.58 15.50 C 173.79 13.00 174.01 10.50 174.17 8.00 C 173.50 8.02 172.16 8.06 171.50 8.08 Z" />
</g>
<g id="#565249ff">
<path fill="#565249" opacity="1.00" d=" M 32.12 3.38 C 32.66 2.13 33.59 1.58 34.91 1.74 C 34.58 3.12 33.65 3.67 32.12 3.38 Z" />
<path fill="#565249" opacity="1.00" d=" M 41.20 1.65 C 42.61 1.37 43.44 1.89 43.70 3.22 C 42.27 3.50 41.44 2.98 41.20 1.65 Z" />
<path fill="#565249" opacity="1.00" d=" M 44.70 3.16 C 47.87 2.81 51.07 3.08 54.11 4.04 C 50.99 3.60 47.84 3.38 44.70 3.16 Z" />
<path fill="#565249" opacity="1.00" d=" M 88.12 3.38 C 88.66 2.13 89.59 1.58 90.91 1.74 C 90.58 3.12 89.65 3.67 88.12 3.38 Z" />
<path fill="#565249" opacity="1.00" d=" M 97.20 1.65 C 98.61 1.37 99.44 1.89 99.70 3.22 C 98.27 3.50 97.44 2.98 97.20 1.65 Z" />
<path fill="#565249" opacity="1.00" d=" M 100.70 3.16 C 103.87 2.81 107.07 3.08 110.11 4.04 C 106.99 3.60 103.84 3.38 100.70 3.16 Z" />
<path fill="#565249" opacity="1.00" d=" M 144.12 3.38 C 144.66 2.13 145.59 1.58 146.91 1.74 C 146.58 3.12 145.65 3.67 144.12 3.38 Z" />
<path fill="#565249" opacity="1.00" d=" M 153.20 1.65 C 154.61 1.37 155.44 1.89 155.70 3.22 C 154.27 3.50 153.44 2.98 153.20 1.65 Z" />
<path fill="#565249" opacity="1.00" d=" M 156.70 3.16 C 159.87 2.81 163.07 3.08 166.11 4.04 C 162.99 3.60 159.83 3.38 156.70 3.16 Z" />
<path fill="#565249" opacity="1.00" d=" M 200.13 3.38 C 200.66 2.13 201.59 1.58 202.91 1.74 C 202.58 3.12 201.65 3.67 200.13 3.38 Z" />
<path fill="#565249" opacity="1.00" d=" M 209.21 1.66 C 210.62 1.40 211.45 1.94 211.69 3.27 C 210.27 3.54 209.44 3.00 209.21 1.66 Z" />
<path fill="#565249" opacity="1.00" d=" M 212.69 3.22 C 215.88 2.95 219.09 2.99 222.25 3.55 C 219.07 3.33 215.86 3.28 212.69 3.22 Z" />
<path fill="#565249" opacity="1.00" d=" M 31.87 10.30 C 32.43 8.07 33.00 5.85 33.59 3.63 C 33.65 5.23 33.71 6.83 33.75 8.43 C 33.28 8.90 32.34 9.83 31.87 10.30 Z" />
<path fill="#565249" opacity="1.00" d=" M 87.96 10.27 C 88.51 8.06 89.03 5.84 89.60 3.63 C 89.66 5.24 89.71 6.84 89.75 8.45 C 89.30 8.90 88.41 9.81 87.96 10.27 Z" />
<path fill="#565249" opacity="1.00" d=" M 143.52 10.10 C 144.11 7.90 144.83 5.75 145.56 3.60 C 145.64 5.21 145.71 6.82 145.79 8.43 C 145.22 8.85 144.09 9.68 143.52 10.10 Z" />
<path fill="#565249" opacity="1.00" d=" M 199.96 10.27 C 200.51 8.06 201.03 5.84 201.60 3.63 C 201.66 5.24 201.71 6.84 201.75 8.45 C 201.30 8.90 200.41 9.81 199.96 10.27 Z" />
<path fill="#565249" opacity="1.00" d=" M 49.13 6.18 C 50.21 5.76 51.29 5.34 52.38 4.92 C 52.32 6.26 52.23 7.60 52.16 8.94 C 51.35 8.96 49.74 8.99 48.94 9.01 C 48.98 8.30 49.08 6.89 49.13 6.18 Z" />
<path fill="#565249" opacity="1.00" d=" M 105.13 6.18 C 106.21 5.76 107.29 5.34 108.38 4.92 C 108.32 6.26 108.23 7.60 108.16 8.94 C 107.35 8.96 105.74 8.99 104.94 9.01 C 104.98 8.30 105.08 6.89 105.13 6.18 Z" />
<path fill="#565249" opacity="1.00" d=" M 161.06 5.84 C 162.39 5.76 163.73 5.68 165.08 5.62 C 164.66 6.71 164.24 7.79 163.82 8.87 C 163.11 8.92 161.70 9.02 160.99 9.06 C 161.01 8.26 161.04 6.65 161.06 5.84 Z" />
<path fill="#565249" opacity="1.00" d=" M 217.06 5.84 C 218.39 5.76 219.73 5.68 221.08 5.62 C 220.66 6.71 220.24 7.79 219.82 8.87 C 219.11 8.92 217.70 9.02 216.99 9.06 C 217.01 8.26 217.04 6.65 217.06 5.84 Z" />
<path fill="#565249" opacity="1.00" d=" M 26.21 20.05 C 25.13 18.45 26.21 16.66 27.10 15.29 C 27.30 16.83 27.66 18.52 26.84 19.97 L 26.21 20.05 Z" />
<path fill="#565249" opacity="1.00" d=" M 103.61 15.58 L 104.52 15.65 C 104.82 16.06 105.42 16.86 105.72 17.26 C 105.16 17.23 104.04 17.17 103.48 17.14 C 103.52 16.75 103.58 15.97 103.61 15.58 Z" />
<path fill="#565249" opacity="1.00" d=" M 215.59 15.55 L 216.49 15.61 C 216.81 15.98 217.45 16.72 217.76 17.10 C 217.20 17.10 216.07 17.11 215.50 17.12 C 215.52 16.73 215.57 15.94 215.59 15.55 Z" />
</g>
<g id="#5a5347ff">
<path fill="#5a5347" opacity="1.00" d=" M 12.62 4.50 C 12.77 3.94 13.07 2.84 13.22 2.28 C 15.55 3.13 17.93 3.84 20.29 4.61 C 21.09 5.01 21.87 5.44 22.66 5.88 C 19.27 5.79 15.94 5.15 12.62 4.50 Z" />
<path fill="#5a5347" opacity="1.00" d=" M 68.62 4.50 C 68.77 3.94 69.08 2.83 69.23 2.28 C 71.56 3.13 73.93 3.83 76.29 4.61 C 77.09 5.01 77.87 5.45 78.65 5.88 C 75.27 5.79 71.93 5.15 68.62 4.50 Z" />
<path fill="#5a5347" opacity="1.00" d=" M 124.62 4.50 C 124.77 3.94 125.08 2.83 125.23 2.28 C 127.55 3.13 129.93 3.83 132.29 4.61 C 133.09 5.01 133.87 5.45 134.65 5.88 C 131.26 5.79 127.93 5.15 124.62 4.50 Z" />
<path fill="#5a5347" opacity="1.00" d=" M 180.62 4.50 C 180.77 3.94 181.08 2.83 181.23 2.28 C 183.55 3.13 185.93 3.83 188.29 4.61 C 189.09 5.01 189.87 5.45 190.65 5.88 C 187.26 5.79 183.93 5.15 180.62 4.50 Z" />
</g>
<g id="#77694cfe">
<path fill="#77694c" opacity="1.00" d=" M 8.22 11.83 C 7.47 10.15 7.46 7.17 8.62 5.87 C 9.29 7.70 9.64 10.04 8.78 11.83 L 8.22 11.83 Z" />
<path fill="#77694c" opacity="1.00" d=" M 64.22 11.83 C 63.47 10.15 63.46 7.17 64.62 5.87 C 65.29 7.70 65.64 10.04 64.78 11.83 L 64.22 11.83 Z" />
<path fill="#77694c" opacity="1.00" d=" M 120.22 11.83 C 119.47 10.15 119.46 7.17 120.62 5.87 C 121.29 7.70 121.64 10.04 120.78 11.83 L 120.22 11.83 Z" />
<path fill="#77694c" opacity="1.00" d=" M 176.22 11.83 C 175.47 10.15 175.46 7.17 176.62 5.87 C 177.29 7.70 177.64 10.04 176.78 11.83 L 176.22 11.83 Z" />
</g>
<g id="#72624dff">
<path fill="#72624d" opacity="1.00" d=" M 33.75 8.43 C 35.10 7.48 36.55 5.87 38.39 6.51 C 40.64 6.65 40.93 9.28 41.30 11.00 C 39.32 10.55 37.70 11.96 36.23 13.05 C 35.78 13.33 34.88 13.91 34.43 14.20 C 33.42 13.50 32.41 12.79 31.41 12.08 C 31.53 11.63 31.76 10.74 31.87 10.30 C 32.34 9.83 33.28 8.90 33.75 8.43 Z" />
<path fill="#72624d" opacity="1.00" d=" M 89.75 8.45 C 91.10 7.49 92.55 5.85 94.40 6.51 C 96.67 6.65 96.90 9.31 97.22 11.04 C 95.25 10.54 93.62 11.94 92.19 13.08 C 91.66 13.45 90.60 14.19 90.06 14.56 C 89.25 13.60 88.39 12.66 87.55 11.72 C 87.65 11.36 87.86 10.63 87.96 10.27 C 88.41 9.81 89.30 8.90 89.75 8.45 Z" />
<path fill="#72624d" opacity="1.00" d=" M 201.75 8.45 C 203.10 7.49 204.55 5.85 206.40 6.51 C 208.67 6.65 208.90 9.31 209.22 11.04 C 207.25 10.54 205.61 11.94 204.19 13.08 C 203.66 13.45 202.60 14.19 202.06 14.56 C 201.25 13.60 200.39 12.66 199.55 11.72 C 199.65 11.36 199.86 10.63 199.96 10.27 C 200.41 9.81 201.30 8.90 201.75 8.45 Z" />
<path fill="#72624d" opacity="1.00" d=" M 135.10 12.08 C 136.73 12.44 138.35 12.80 139.98 13.15 C 139.60 14.76 139.25 16.37 138.90 17.99 C 138.21 18.03 136.83 18.10 136.14 18.14 C 135.82 16.12 135.46 14.10 135.10 12.08 Z" />
</g>
<g id="#6d614fff">
<path fill="#6d614f" opacity="1.00" d=" M 145.79 8.43 C 147.85 6.02 150.84 6.66 153.46 7.50 C 153.28 8.73 153.12 9.95 152.98 11.18 C 151.30 10.80 149.49 11.36 148.51 12.82 C 148.07 13.30 147.20 14.26 146.77 14.74 C 147.60 15.90 148.45 17.05 149.30 18.19 C 148.75 18.48 147.64 19.06 147.09 19.35 C 146.42 18.54 145.74 17.73 145.06 16.94 C 144.30 14.72 143.75 12.44 143.52 10.10 C 144.09 9.68 145.22 8.85 145.79 8.43 Z" />
</g>
<g id="#5d5649ff">
<path fill="#5d5649" opacity="1.00" d=" M 11.87 18.82 C 10.81 14.71 11.33 10.50 12.59 6.47 C 14.90 9.14 18.20 9.27 21.24 7.94 C 21.91 8.57 22.58 9.20 23.25 9.83 C 25.37 8.87 27.48 7.89 29.62 6.95 C 29.47 7.40 29.18 8.31 29.04 8.76 C 27.23 9.94 25.33 10.97 23.44 12.02 C 23.65 14.76 23.72 17.51 23.60 20.26 C 22.53 20.01 21.47 19.76 20.40 19.51 C 20.23 17.44 20.03 15.36 19.81 13.29 C 17.68 15.15 15.67 17.15 13.81 19.28 C 13.33 19.16 12.36 18.94 11.87 18.82 M 18.15 11.40 C 17.06 11.07 15.53 11.27 14.89 12.33 C 14.98 14.44 20.05 13.05 18.15 11.40 Z" />
<path fill="#5d5649" opacity="1.00" d=" M 66.22 14.35 C 67.20 11.81 68.01 9.22 68.86 6.63 C 70.95 8.77 73.79 9.23 76.60 8.59 C 79.62 9.06 82.63 8.43 85.50 7.51 C 85.39 7.82 85.17 8.46 85.06 8.77 C 83.17 9.96 81.18 11.00 79.21 12.06 C 79.58 14.42 79.92 16.79 80.18 19.17 L 79.30 19.11 C 78.29 19.02 77.29 18.93 76.28 18.82 C 76.18 17.08 76.05 15.35 75.92 13.62 C 73.98 15.10 72.08 16.64 70.15 18.13 C 69.92 18.12 69.46 18.10 69.23 18.09 C 68.19 16.87 67.21 15.61 66.22 14.35 M 74.15 11.40 C 73.05 11.07 71.53 11.27 70.89 12.33 C 70.98 14.44 76.05 13.05 74.15 11.40 Z" />
<path fill="#5d5649" opacity="1.00" d=" M 178.22 14.35 C 179.20 11.81 180.00 9.21 180.86 6.63 C 182.95 8.77 185.79 9.23 188.60 8.59 C 191.62 9.06 194.63 8.43 197.50 7.51 C 197.39 7.82 197.17 8.46 197.06 8.77 C 195.17 9.96 193.18 11.00 191.21 12.06 C 191.58 14.42 191.92 16.79 192.18 19.17 L 191.30 19.11 C 190.29 19.02 189.28 18.93 188.28 18.82 C 188.18 17.08 188.05 15.35 187.92 13.62 C 185.98 15.10 184.08 16.64 182.15 18.13 C 181.92 18.12 181.46 18.11 181.23 18.10 C 180.20 16.87 179.21 15.62 178.22 14.35 M 186.15 11.40 C 185.05 11.07 183.52 11.27 182.89 12.33 C 182.98 14.44 188.05 13.05 186.15 11.40 Z" />
</g>
<g id="#63594aff">
<path fill="#63594a" opacity="1.00" d=" M 44.15 5.35 C 45.83 6.93 47.46 8.55 49.04 10.23 C 50.57 10.35 52.10 10.45 53.63 10.55 C 53.89 11.17 54.16 11.78 54.42 12.39 C 53.86 12.76 52.73 13.50 52.17 13.88 C 50.52 12.39 46.30 13.26 48.48 15.86 C 48.79 16.39 49.42 17.44 49.74 17.97 C 49.38 17.84 48.66 17.58 48.30 17.45 C 46.56 16.16 44.90 14.76 43.21 13.40 C 44.23 12.81 45.25 12.22 46.27 11.63 C 45.52 9.55 44.82 7.46 44.15 5.35 Z" />
</g>
<g id="#665b4bff">
<path fill="#665b4b" opacity="1.00" d=" M 100.15 5.35 C 101.83 6.92 103.46 8.55 105.03 10.23 C 106.56 10.34 108.09 10.45 109.63 10.56 C 109.90 11.19 110.17 11.81 110.44 12.44 C 109.92 12.77 108.87 13.41 108.35 13.74 C 106.56 12.97 104.00 13.08 103.15 15.14 C 101.82 14.51 100.47 13.93 99.12 13.35 C 100.18 12.79 101.23 12.23 102.30 11.68 C 101.54 9.58 100.82 7.47 100.15 5.35 Z" />
<path fill="#665b4b" opacity="1.00" d=" M 156.10 5.42 C 157.74 6.83 159.36 8.28 160.93 9.76 C 163.10 10.49 165.26 11.26 167.37 12.15 C 166.62 12.49 165.13 13.16 164.38 13.50 C 162.32 13.26 159.84 13.38 158.68 15.42 L 157.66 15.07 C 156.70 14.71 155.74 14.33 154.79 13.95 C 155.93 13.14 157.09 12.34 158.25 11.54 C 157.50 9.52 156.79 7.47 156.10 5.42 Z" />
<path fill="#665b4b" opacity="1.00" d=" M 212.15 5.35 C 213.83 6.92 215.46 8.55 217.03 10.23 C 218.56 10.34 220.09 10.45 221.62 10.56 C 221.89 11.19 222.18 11.82 222.45 12.45 C 221.93 12.77 220.88 13.41 220.35 13.73 C 218.55 12.93 215.98 13.06 215.12 15.13 C 213.80 14.50 212.46 13.93 211.12 13.35 C 212.17 12.79 213.23 12.23 214.30 11.68 C 213.54 9.58 212.82 7.47 212.15 5.35 Z" />
</g>
<g id="#5e5749ff">
<path fill="#5e5749" opacity="1.00" d=" M 124.69 17.48 C 121.59 14.37 123.55 10.06 124.63 6.51 C 126.80 8.68 129.69 9.28 132.61 8.59 C 135.64 9.06 138.66 8.42 141.54 7.50 C 141.43 7.82 141.21 8.46 141.09 8.78 C 139.15 9.98 137.12 11.03 135.10 12.08 C 135.46 14.10 135.82 16.12 136.14 18.14 L 135.30 18.09 C 134.24 17.99 133.17 17.88 132.11 17.76 C 132.01 16.75 131.82 14.75 131.72 13.75 C 129.90 14.99 128.09 16.24 126.31 17.53 C 125.90 17.52 125.09 17.49 124.69 17.48 M 130.15 11.40 C 129.05 11.07 127.52 11.27 126.89 12.33 C 126.98 14.44 132.05 13.05 130.15 11.40 Z" />
</g>
<g id="#60574aff">
<path fill="#60574a" opacity="1.00" d=" M 3.50 8.08 C 4.16 8.06 5.50 8.02 6.17 8.00 C 6.02 10.50 5.79 13.00 5.58 15.50 C 4.80 13.05 4.12 10.57 3.50 8.08 Z" />
<path fill="#60574a" opacity="1.00" d=" M 59.50 8.08 C 60.16 8.06 61.50 8.02 62.17 8.00 C 62.01 10.50 61.79 13.00 61.58 15.50 C 60.80 13.05 60.12 10.57 59.50 8.08 Z" />
<path fill="#60574a" opacity="1.00" d=" M 115.50 8.08 C 116.16 8.06 117.50 8.02 118.17 8.00 C 118.01 10.50 117.79 13.00 117.58 15.50 C 116.80 13.05 116.12 10.57 115.50 8.08 Z" />
<path fill="#60574a" opacity="1.00" d=" M 171.50 8.08 C 172.16 8.06 173.50 8.02 174.17 8.00 C 174.01 10.50 173.79 13.00 173.58 15.50 C 172.80 13.05 172.12 10.57 171.50 8.08 Z" />
<path fill="#60574a" opacity="1.00" d=" M 8.22 11.83 L 8.78 11.83 C 11.20 14.46 5.80 14.46 8.22 11.83 Z" />
<path fill="#60574a" opacity="1.00" d=" M 64.22 11.83 L 64.78 11.83 C 67.20 14.46 61.80 14.46 64.22 11.83 Z" />
<path fill="#60574a" opacity="1.00" d=" M 120.22 11.83 L 120.78 11.83 C 123.20 14.46 117.80 14.46 120.22 11.83 Z" />
<path fill="#60574a" opacity="1.00" d=" M 176.22 11.83 L 176.78 11.83 C 179.20 14.46 173.80 14.46 176.22 11.83 Z" />
</g>
<g id="#92824dff">
<path fill="#92824d" opacity="1.00" d=" M 23.44 12.02 C 25.33 10.97 27.23 9.94 29.04 8.76 C 28.59 10.22 28.17 11.69 27.74 13.16 C 26.31 12.78 24.87 12.40 23.44 12.02 Z" />
<path fill="#92824d" opacity="1.00" d=" M 79.21 12.06 C 81.18 11.00 83.17 9.96 85.06 8.77 C 84.67 10.23 84.32 11.70 84.00 13.17 C 82.40 12.80 80.81 12.43 79.21 12.06 Z" />
<path fill="#92824d" opacity="1.00" d=" M 135.10 12.08 C 137.12 11.03 139.15 9.98 141.09 8.78 C 140.68 10.23 140.32 11.69 139.98 13.15 C 138.35 12.80 136.73 12.44 135.10 12.08 Z" />
<path fill="#92824d" opacity="1.00" d=" M 191.21 12.06 C 193.18 11.00 195.17 9.96 197.06 8.77 C 196.67 10.23 196.32 11.70 196.00 13.17 C 194.40 12.80 192.81 12.43 191.21 12.06 Z" />
</g>
<g id="#332e2aff">
<path fill="#332e2a" opacity="1.00" d=" M 18.15 11.40 C 20.05 13.05 14.98 14.44 14.89 12.33 C 15.53 11.27 17.06 11.07 18.15 11.40 Z" />
<path fill="#332e2a" opacity="1.00" d=" M 74.15 11.40 C 76.05 13.05 70.98 14.44 70.89 12.33 C 71.53 11.27 73.05 11.07 74.15 11.40 Z" />
<path fill="#332e2a" opacity="1.00" d=" M 130.15 11.40 C 132.05 13.05 126.98 14.44 126.89 12.33 C 127.52 11.27 129.05 11.07 130.15 11.40 Z" />
<path fill="#332e2a" opacity="1.00" d=" M 186.15 11.40 C 188.05 13.05 182.98 14.44 182.89 12.33 C 183.52 11.27 185.05 11.07 186.15 11.40 Z" />
<path fill="#332e2a" opacity="1.00" d=" M 34.43 14.20 C 34.88 13.91 35.78 13.33 36.23 13.05 L 36.85 13.04 C 36.87 14.90 36.90 16.75 36.93 18.60 C 37.05 18.99 37.27 19.78 37.38 20.18 C 36.37 18.20 35.39 16.20 34.43 14.20 Z" />
<path fill="#332e2a" opacity="1.00" d=" M 90.06 14.56 C 90.60 14.19 91.66 13.45 92.19 13.08 L 92.82 13.08 C 92.96 15.10 93.11 17.11 93.28 19.13 C 92.24 17.58 91.20 16.04 90.06 14.56 Z" />
<path fill="#332e2a" opacity="1.00" d=" M 146.77 14.74 C 147.20 14.26 148.07 13.30 148.51 12.82 L 148.60 13.28 C 148.85 14.92 149.06 16.56 149.30 18.19 C 148.45 17.05 147.60 15.90 146.77 14.74 Z" />
<path fill="#332e2a" opacity="1.00" d=" M 202.06 14.56 C 202.60 14.19 203.66 13.45 204.19 13.08 L 204.82 13.08 C 204.96 15.10 205.11 17.11 205.28 19.13 C 204.24 17.58 203.20 16.04 202.06 14.56 Z" />
<path fill="#332e2a" opacity="1.00" d=" M 70.15 18.13 C 72.08 16.64 73.98 15.10 75.92 13.62 C 76.05 15.35 76.18 17.08 76.28 18.82 C 75.15 18.70 74.01 18.57 72.88 18.44 C 72.20 18.36 70.83 18.20 70.15 18.13 Z" />
<path fill="#332e2a" opacity="1.00" d=" M 182.15 18.13 C 184.08 16.64 185.98 15.10 187.92 13.62 C 188.05 15.35 188.18 17.08 188.28 18.82 C 187.14 18.69 186.01 18.57 184.88 18.44 C 184.20 18.36 182.83 18.21 182.15 18.13 Z" />
<path fill="#332e2a" opacity="1.00" d=" M 30.62 16.58 C 32.06 14.03 34.31 16.89 32.86 18.72 C 32.05 18.07 31.30 17.36 30.62 16.58 Z" />
<path fill="#332e2a" opacity="1.00" d=" M 86.56 15.81 C 87.70 13.90 89.52 16.16 89.62 17.57 C 88.36 17.35 87.34 16.76 86.56 15.81 Z" />
<path fill="#332e2a" opacity="1.00" d=" M 198.56 15.81 C 199.70 13.90 201.52 16.16 201.62 17.57 C 200.36 17.35 199.34 16.76 198.56 15.81 Z" />
<path fill="#332e2a" opacity="1.00" d=" M 38.79 17.91 C 38.88 15.76 41.90 16.35 40.46 18.27 L 39.45 18.52 L 38.79 17.91 Z" />
</g>
<g id="#907e4efe">
<path fill="#907e4e" opacity="1.00" d=" M 36.23 13.05 C 37.70 11.96 39.32 10.55 41.30 11.00 C 41.33 11.34 41.39 12.03 41.42 12.38 C 39.98 13.03 38.45 13.25 36.85 13.04 L 36.23 13.05 Z" />
<path fill="#907e4e" opacity="1.00" d=" M 92.19 13.08 C 93.62 11.94 95.25 10.54 97.22 11.04 C 97.26 11.37 97.34 12.04 97.38 12.37 C 95.94 13.02 94.42 13.26 92.82 13.08 L 92.19 13.08 Z" />
<path fill="#907e4e" opacity="1.00" d=" M 148.51 12.82 C 149.49 11.36 151.30 10.80 152.98 11.18 C 152.94 11.50 152.87 12.14 152.84 12.45 C 151.51 13.17 150.10 13.44 148.60 13.28 L 148.51 12.82 Z" />
<path fill="#907e4e" opacity="1.00" d=" M 204.19 13.08 C 205.61 11.94 207.25 10.54 209.22 11.04 C 209.26 11.37 209.34 12.04 209.38 12.37 C 207.94 13.02 206.42 13.26 204.82 13.08 L 204.19 13.08 Z" />
<path fill="#907e4e" opacity="1.00" d=" M 48.48 15.86 C 46.30 13.26 50.52 12.39 52.17 13.88 C 51.02 14.67 49.83 15.46 48.48 15.86 Z" />
<path fill="#907e4e" opacity="1.00" d=" M 103.15 15.14 C 104.00 13.08 106.56 12.97 108.35 13.74 C 107.15 14.53 105.91 15.27 104.52 15.65 L 103.61 15.58 L 103.15 15.14 Z" />
<path fill="#907e4e" opacity="1.00" d=" M 158.68 15.42 C 159.84 13.38 162.32 13.26 164.38 13.50 C 162.89 14.99 160.83 16.10 158.68 15.42 Z" />
<path fill="#907e4e" opacity="1.00" d=" M 215.12 15.13 C 215.98 13.06 218.55 12.93 220.35 13.73 C 219.15 14.52 217.89 15.24 216.49 15.61 L 215.59 15.55 L 215.12 15.13 Z" />
</g>
<g id="#76644eff">
<path fill="#76644e" opacity="1.00" d=" M 23.44 12.02 C 24.87 12.40 26.31 12.78 27.74 13.16 C 27.58 13.69 27.26 14.76 27.10 15.29 C 26.21 16.66 25.13 18.45 26.21 20.05 C 25.56 20.10 24.25 20.21 23.60 20.26 C 23.72 17.51 23.65 14.76 23.44 12.02 Z" />
</g>
<g id="#5a5851ff">
<path fill="#5a5851" opacity="1.00" d=" M 30.14 17.23 C 30.58 15.52 30.98 13.79 31.41 12.08 C 32.41 12.79 33.42 13.50 34.43 14.20 C 35.39 16.20 36.37 18.20 37.38 20.18 C 36.88 20.40 35.86 20.85 35.35 21.07 C 34.54 20.27 33.71 19.48 32.86 18.72 C 34.31 16.89 32.06 14.03 30.62 16.58 L 30.14 17.23 Z" />
</g>
<g id="#71614dff">
<path fill="#71614d" opacity="1.00" d=" M 79.21 12.06 C 80.81 12.43 82.40 12.80 84.00 13.17 C 83.58 15.12 83.23 17.08 82.87 19.04 C 82.20 19.07 80.85 19.14 80.18 19.17 C 79.92 16.79 79.58 14.42 79.21 12.06 Z" />
<path fill="#71614d" opacity="1.00" d=" M 191.21 12.06 C 192.81 12.43 194.40 12.80 196.00 13.17 C 195.58 15.12 195.22 17.08 194.87 19.04 C 194.20 19.07 192.85 19.14 192.18 19.17 C 191.92 16.79 191.58 14.42 191.21 12.06 Z" />
</g>
<g id="#5b5a53ff">
<path fill="#5b5a53" opacity="1.00" d=" M 86.18 16.32 C 86.68 14.80 87.11 13.26 87.55 11.72 C 88.39 12.66 89.25 13.60 90.06 14.56 C 91.20 16.04 92.24 17.58 93.28 19.13 C 92.68 19.46 91.48 20.11 90.88 20.44 C 90.47 19.48 90.05 18.52 89.62 17.57 C 89.52 16.16 87.70 13.90 86.56 15.81 L 86.18 16.32 Z" />
<path fill="#5b5a53" opacity="1.00" d=" M 198.18 16.32 C 198.68 14.80 199.11 13.26 199.55 11.72 C 200.39 12.66 201.25 13.60 202.06 14.56 C 203.20 16.04 204.24 17.58 205.28 19.13 C 204.68 19.45 203.48 20.11 202.89 20.44 C 202.47 19.48 202.05 18.52 201.62 17.57 C 201.52 16.16 199.70 13.90 198.56 15.81 L 198.18 16.32 Z" />
</g>
<g id="#565148ff">
<path fill="#565148" opacity="1.00" d=" M 36.85 13.04 C 38.45 13.25 39.98 13.03 41.42 12.38 C 41.43 14.48 41.45 16.59 41.63 18.69 L 40.46 18.27 C 41.90 16.35 38.88 15.76 38.79 17.91 C 38.32 18.08 37.40 18.43 36.93 18.60 C 36.90 16.75 36.87 14.90 36.85 13.04 Z" />
</g>
<g id="#505251ff">
<path fill="#505251" opacity="1.00" d=" M 92.82 13.08 C 94.42 13.26 95.94 13.02 97.38 12.37 C 97.53 14.19 97.72 16.01 98.01 17.81 C 97.27 17.91 95.78 18.11 95.03 18.21 C 94.59 18.44 93.72 18.90 93.28 19.13 C 93.11 17.11 92.96 15.10 92.82 13.08 Z" />
<path fill="#505251" opacity="1.00" d=" M 204.82 13.08 C 206.42 13.26 207.94 13.02 209.38 12.37 C 209.53 14.19 209.72 16.01 210.01 17.82 C 209.26 17.92 207.78 18.11 207.03 18.21 C 206.59 18.44 205.72 18.90 205.28 19.13 C 205.11 17.11 204.96 15.10 204.82 13.08 Z" />
</g>
<g id="#515455ff">
<path fill="#515455" opacity="1.00" d=" M 148.60 13.28 C 150.10 13.44 151.51 13.17 152.84 12.45 C 153.18 13.92 153.60 15.36 154.05 16.80 C 153.32 16.92 151.84 17.17 151.10 17.30 C 150.65 17.52 149.75 17.97 149.30 18.19 C 149.06 16.56 148.85 14.92 148.60 13.28 Z" />
</g>
<g id="#322e2aff">
<path fill="#322e2a" opacity="1.00" d=" M 13.81 19.28 C 15.67 17.15 17.68 15.15 19.81 13.29 C 20.03 15.36 20.23 17.44 20.40 19.51 C 19.22 19.58 18.03 19.63 16.85 19.67 C 16.09 19.57 14.57 19.38 13.81 19.28 Z" />
</g>
<g id="#332e2afe">
<path fill="#332e2a" opacity="1.00" d=" M 126.31 17.53 C 128.09 16.24 129.90 14.99 131.72 13.75 C 131.82 14.75 132.01 16.75 132.11 17.76 C 131.02 17.72 129.93 17.68 128.83 17.64 C 128.20 17.61 126.94 17.55 126.31 17.53 Z" />
</g>
<g id="#4379cafe">
<path fill="#4379ca" opacity="1.00" d=" M 142.77 15.17 C 143.53 15.75 144.30 16.34 145.06 16.94 C 145.74 17.73 146.42 18.54 147.09 19.35 C 146.79 19.53 146.19 19.90 145.90 20.08 C 148.51 19.87 151.20 19.83 153.82 19.52 C 153.74 20.18 153.58 21.51 153.50 22.18 C 152.17 23.20 150.84 24.20 149.50 25.20 C 146.43 24.39 143.31 23.76 140.18 23.22 C 140.82 24.72 141.46 26.22 142.11 27.72 C 138.45 27.04 134.80 26.33 131.13 25.72 C 130.62 27.57 130.14 29.42 129.66 31.28 C 133.58 32.49 137.61 33.85 141.76 33.73 C 144.84 33.50 146.88 30.90 148.90 28.88 C 149.56 29.98 150.24 31.08 150.94 32.17 C 153.42 32.33 155.89 32.65 158.35 33.03 C 160.60 30.85 162.95 28.78 165.37 26.79 C 164.16 29.04 162.75 31.24 162.05 33.72 C 163.43 35.47 165.18 36.86 166.84 38.33 C 160.71 36.69 154.58 34.73 148.22 34.29 C 141.39 35.06 141.71 43.73 136.57 46.98 C 137.35 44.05 138.43 41.17 138.80 38.15 C 135.36 35.58 130.81 35.07 126.80 33.77 C 127.70 31.08 128.57 28.39 129.46 25.69 C 121.49 26.34 111.82 25.25 106.27 32.39 C 105.02 35.66 109.04 37.30 110.83 39.34 C 105.87 38.15 100.90 36.91 96.19 34.92 C 96.48 33.99 96.78 33.06 97.07 32.13 C 99.03 33.06 100.99 33.98 102.95 34.89 C 103.76 32.96 104.58 31.03 105.40 29.11 C 102.53 28.13 99.65 27.20 96.76 26.26 L 102.60 25.00 C 101.38 24.51 100.17 24.02 98.94 23.56 C 99.32 22.39 99.14 21.31 98.39 20.33 C 99.42 20.01 100.45 19.70 101.48 19.39 L 102.36 19.27 C 101.47 19.70 100.58 20.14 99.70 20.59 C 106.43 20.60 113.03 21.97 119.70 22.63 C 116.88 20.78 113.97 19.07 111.03 17.42 L 111.54 16.75 C 114.22 17.66 116.92 18.55 119.61 19.45 L 119.84 20.15 C 120.09 20.98 120.33 21.82 120.55 22.66 C 120.36 25.10 123.81 24.67 122.95 22.36 C 130.26 22.56 137.64 22.47 144.73 20.41 C 144.66 19.68 144.58 18.95 144.52 18.23 C 143.16 17.92 141.80 17.61 140.43 17.32 C 141.22 16.62 142.00 15.90 142.77 15.17 Z" />
<path fill="#4379ca" opacity="1.00" d=" M 86.18 16.32 L 86.56 15.81 C 87.34 16.76 88.36 17.35 89.62 17.57 C 90.05 18.52 90.47 19.48 90.88 20.44 C 90.63 20.60 90.12 20.92 89.86 21.07 C 92.49 20.86 95.17 20.82 97.80 20.48 C 97.78 21.16 97.73 22.53 97.70 23.21 C 91.68 25.52 85.53 27.79 78.97 27.65 C 76.28 27.55 75.09 30.38 73.50 32.03 C 78.82 34.20 84.56 34.48 90.18 33.67 C 90.39 31.76 90.60 29.85 90.80 27.94 C 91.09 28.01 91.69 28.15 91.98 28.22 C 92.63 30.20 93.34 32.15 94.09 34.09 C 86.95 36.42 83.26 43.09 79.12 48.75 C 83.76 51.33 88.39 53.97 93.31 56.00 L 83.41 56.00 C 84.91 55.32 86.38 54.58 87.85 53.84 C 84.63 53.30 81.31 50.69 77.97 52.00 C 75.90 52.72 73.95 53.72 71.94 54.60 C 73.92 52.89 75.89 51.17 77.86 49.43 C 77.22 49.25 75.95 48.89 75.31 48.71 C 78.96 45.60 81.48 41.45 82.90 36.89 C 76.14 34.56 69.29 36.43 63.21 39.53 C 65.24 42.13 67.50 44.55 69.68 47.03 C 65.71 45.32 62.25 42.43 60.68 38.30 C 65.00 36.24 70.31 36.16 73.87 32.72 C 73.80 31.45 73.65 28.92 73.58 27.65 C 69.61 26.36 65.40 26.25 61.29 25.75 C 60.74 27.12 60.18 28.49 59.61 29.86 C 59.25 29.00 58.89 28.15 58.53 27.29 C 55.76 29.31 52.81 31.11 50.33 33.48 C 49.01 36.69 53.10 38.32 54.83 40.34 C 49.87 39.15 44.90 37.91 40.19 35.92 C 40.48 35.00 40.77 34.08 41.06 33.16 C 43.26 34.18 45.47 35.17 47.70 36.14 C 48.06 33.37 48.00 30.55 47.27 27.83 C 47.87 27.59 48.46 27.35 49.05 27.10 C 44.01 27.40 38.97 27.67 33.93 27.95 C 35.22 30.47 36.46 33.02 37.96 35.43 C 29.95 35.99 29.21 45.41 24.11 49.81 C 27.26 51.45 30.19 53.48 32.71 56.00 L 31.60 56.00 C 29.87 54.85 28.25 53.50 26.34 52.65 C 22.64 52.02 19.74 54.42 16.72 56.00 L 15.64 56.00 C 17.77 54.27 19.76 52.38 21.83 50.57 C 21.42 49.05 21.01 47.53 20.60 46.00 C 23.05 44.65 25.68 43.38 27.35 41.04 C 23.55 35.09 12.90 34.30 9.11 40.69 C 10.94 43.46 13.45 45.66 15.72 48.04 C 12.76 46.58 10.12 44.54 8.21 41.82 C 6.52 38.95 2.83 39.16 0.00 38.42 L 0.00 37.94 C 6.56 37.04 13.20 36.10 19.28 33.33 C 18.71 31.65 18.13 29.96 17.54 28.28 C 18.80 27.87 20.06 27.45 21.32 27.03 C 14.09 27.38 6.73 28.01 0.00 30.88 L 0.00 23.49 C 2.51 24.29 5.15 24.51 7.77 24.73 C 5.24 23.10 2.60 21.65 0.00 20.14 L 0.00 18.90 C 2.80 19.71 5.60 20.51 8.43 21.21 L 8.44 21.74 C 8.46 22.72 8.47 23.69 8.49 24.67 C 7.96 27.14 11.64 26.63 10.90 24.38 C 18.22 24.51 25.62 24.51 32.72 22.40 C 32.65 21.67 32.59 20.94 32.53 20.21 C 31.18 19.93 29.83 19.65 28.48 19.39 C 29.05 18.68 29.60 17.96 30.14 17.23 L 30.62 16.58 C 31.30 17.36 32.05 18.07 32.86 18.72 C 33.71 19.48 34.54 20.27 35.35 21.07 C 34.95 21.28 34.14 21.69 33.74 21.90 C 36.41 21.75 39.11 21.78 41.77 21.47 C 41.19 22.62 41.35 23.55 42.25 24.26 C 43.96 24.30 43.25 21.97 42.37 21.33 C 43.40 20.99 44.44 20.66 45.47 20.32 L 46.32 20.19 C 45.44 20.65 44.57 21.12 43.70 21.60 C 50.47 21.57 57.09 23.06 63.81 23.55 C 60.79 21.58 57.60 19.85 54.17 18.72 C 54.45 18.45 55.01 17.91 55.29 17.64 C 58.25 18.49 61.19 19.40 64.16 20.22 L 64.24 21.02 C 64.33 21.90 64.41 22.79 64.49 23.68 C 64.08 26.15 67.68 25.64 66.90 23.38 C 74.23 23.52 81.62 23.50 88.72 21.40 C 88.65 20.66 88.59 19.92 88.53 19.18 C 87.20 18.95 85.87 18.72 84.54 18.50 C 85.10 17.78 85.65 17.06 86.18 16.32 M 19.85 29.73 C 19.88 30.58 19.94 32.26 19.98 33.11 C 22.26 34.15 24.48 35.51 27.01 35.91 C 29.62 35.71 31.91 34.24 34.23 33.15 C 33.62 31.02 32.98 28.91 32.41 26.77 C 28.09 27.18 23.71 27.60 19.85 29.73 Z" />
</g>
<g id="#3a7dcfff">
<path fill="#3a7dcf" opacity="1.00" d=" M 154.30 17.57 C 154.17 16.25 154.80 15.52 156.20 15.38 C 156.16 15.80 156.10 16.63 156.07 17.05 C 155.63 17.18 154.74 17.44 154.30 17.57 Z" />
<path fill="#3a7dcf" opacity="1.00" d=" M 98.14 18.57 C 97.92 17.20 98.52 16.50 99.92 16.46 C 99.90 16.87 99.86 17.69 99.84 18.11 C 99.41 18.22 98.57 18.45 98.14 18.57 Z" />
<path fill="#3a7dcf" opacity="1.00" d=" M 210.14 18.57 C 209.92 17.21 210.51 16.50 211.92 16.46 C 211.90 16.88 211.86 17.70 211.83 18.12 C 211.41 18.23 210.57 18.46 210.14 18.57 Z" />
<path fill="#3a7dcf" opacity="1.00" d=" M 41.99 19.47 C 41.90 18.16 42.55 17.49 43.93 17.48 C 43.90 17.89 43.84 18.70 43.81 19.11 C 43.35 19.20 42.44 19.38 41.99 19.47 Z" />
</g>
<g id="#8d9fbaff">
<path fill="#8d9fba" opacity="1.00" d=" M 156.20 15.38 C 156.56 15.30 157.29 15.15 157.66 15.07 C 158.22 15.89 158.61 16.78 158.83 17.76 L 158.30 18.08 L 157.56 18.25 C 157.19 17.95 156.44 17.35 156.07 17.05 C 156.10 16.63 156.16 15.80 156.20 15.38 Z" />
<path fill="#8d9fba" opacity="1.00" d=" M 99.92 16.46 C 100.28 16.48 100.99 16.54 101.34 16.57 C 102.06 17.26 102.59 18.07 102.94 19.01 L 102.36 19.27 L 101.48 19.39 C 101.07 19.07 100.25 18.43 99.84 18.11 C 99.86 17.69 99.90 16.87 99.92 16.46 Z" />
<path fill="#8d9fba" opacity="1.00" d=" M 211.92 16.46 C 212.27 16.49 212.98 16.54 213.34 16.57 C 214.05 17.25 214.58 18.05 214.93 18.97 L 214.36 19.27 L 213.49 19.40 C 213.08 19.08 212.25 18.44 211.83 18.12 C 211.86 17.70 211.90 16.88 211.92 16.46 Z" />
<path fill="#8d9fba" opacity="1.00" d=" M 43.93 17.48 C 44.28 17.46 44.98 17.42 45.34 17.41 C 46.03 18.12 46.55 18.96 46.88 19.90 L 46.32 20.19 L 45.47 20.32 C 45.05 20.02 44.22 19.41 43.81 19.11 C 43.84 18.70 43.90 17.89 43.93 17.48 Z" />
</g>
<g id="#3e84ceff">
<path fill="#3e84ce" opacity="1.00" d=" M 157.66 15.07 L 158.68 15.42 C 160.51 16.02 162.39 16.48 164.29 16.84 C 162.45 17.06 160.63 17.37 158.83 17.76 C 158.61 16.78 158.22 15.89 157.66 15.07 Z" />
<path fill="#3e84ce" opacity="1.00" d=" M 101.34 16.57 C 101.88 16.71 102.95 17.00 103.48 17.14 C 104.04 17.17 105.16 17.23 105.72 17.26 C 106.57 17.38 107.42 17.49 108.27 17.58 C 106.47 17.97 104.69 18.44 102.94 19.01 C 102.59 18.07 102.06 17.26 101.34 16.57 Z" />
<path fill="#3e84ce" opacity="1.00" d=" M 213.34 16.57 C 213.88 16.71 214.96 16.98 215.50 17.12 C 216.07 17.11 217.20 17.10 217.76 17.10 C 218.66 17.32 219.55 17.54 220.45 17.75 C 218.59 18.06 216.75 18.47 214.93 18.97 C 214.58 18.05 214.05 17.25 213.34 16.57 Z" />
<path fill="#3e84ce" opacity="1.00" d=" M 45.34 17.41 C 46.08 17.42 47.56 17.44 48.30 17.45 C 48.66 17.58 49.38 17.84 49.74 17.97 C 50.21 18.15 51.16 18.51 51.64 18.69 L 52.22 18.95 C 50.43 19.19 48.64 19.50 46.88 19.90 C 46.55 18.96 46.03 18.12 45.34 17.41 Z" />
</g>
<g id="#5d564aff">
<path fill="#5d564a" opacity="1.00" d=" M 2.60 17.32 C 4.78 16.88 6.96 16.44 9.14 15.99 C 9.71 17.24 10.30 18.49 10.90 19.73 C 10.28 20.10 9.05 20.84 8.43 21.21 C 8.30 20.77 8.05 19.89 7.92 19.45 C 8.36 17.43 5.23 15.97 5.41 18.68 C 4.47 18.23 3.53 17.78 2.60 17.32 Z" />
</g>
<g id="#625f57ff">
<path fill="#625f57" opacity="1.00" d=" M 59.98 16.82 C 61.92 16.52 63.87 16.23 65.83 15.95 C 65.91 17.26 66.00 18.57 66.08 19.88 C 65.62 20.16 64.70 20.73 64.24 21.02 L 64.16 20.22 L 64.07 19.33 C 64.53 17.82 62.32 16.49 61.71 18.28 C 61.28 17.92 60.41 17.18 59.98 16.82 Z" />
<path fill="#625f57" opacity="1.00" d=" M 171.97 16.82 C 173.92 16.52 175.87 16.23 177.83 15.95 C 177.91 17.25 177.99 18.56 178.08 19.87 C 177.62 20.14 176.71 20.70 176.25 20.98 L 176.17 20.13 L 176.08 19.30 C 176.54 17.78 174.31 16.50 173.72 18.28 C 173.28 17.91 172.41 17.18 171.97 16.82 Z" />
</g>
<g id="#73a5cbff">
<path fill="#73a5cb" opacity="1.00" d=" M 109.10 17.64 C 108.40 15.99 110.73 15.74 111.54 16.75 L 111.03 17.42 C 110.55 17.47 109.58 17.59 109.10 17.64 Z" />
</g>
<g id="#6b675bff">
<path fill="#6b675b" opacity="1.00" d=" M 118.18 15.77 C 119.35 15.96 120.51 16.15 121.68 16.35 C 121.81 16.96 122.05 18.18 122.18 18.79 C 121.59 19.13 120.43 19.81 119.84 20.15 L 119.61 19.45 C 119.16 18.21 118.67 16.99 118.18 15.77 Z" />
</g>
<g id="#508bc7ff">
<path fill="#508bc7" opacity="1.00" d=" M 165.11 16.96 C 165.63 15.43 167.82 15.54 168.04 17.21 C 167.31 17.14 165.84 17.02 165.11 16.96 Z" />
<path fill="#508bc7" opacity="1.00" d=" M 221.41 17.95 C 221.86 16.66 222.72 16.32 224.00 16.93 L 224.00 17.65 C 223.35 17.72 222.06 17.88 221.41 17.95 Z" />
</g>
<g id="#4378caff">
<path fill="#4378ca" opacity="1.00" d=" M 198.18 16.32 L 198.56 15.81 C 199.34 16.76 200.36 17.35 201.62 17.57 C 202.05 18.52 202.47 19.48 202.89 20.44 C 202.63 20.60 202.12 20.92 201.86 21.08 C 204.46 20.86 207.16 20.81 209.78 20.45 C 209.19 21.60 209.35 22.53 210.25 23.26 C 211.95 23.29 211.23 20.96 210.38 20.31 C 211.41 20.00 212.45 19.70 213.49 19.40 L 214.36 19.27 C 213.45 19.75 212.55 20.23 211.66 20.73 C 215.77 20.96 219.89 20.91 224.00 20.85 L 224.00 28.11 C 221.75 29.73 219.41 31.23 217.10 32.76 C 218.81 35.11 220.76 37.25 222.72 39.38 C 217.80 38.14 212.89 36.86 208.19 34.93 C 208.48 34.00 208.77 33.07 209.07 32.13 C 211.03 33.06 213.00 33.99 214.97 34.90 C 215.83 32.80 216.70 30.69 217.56 28.59 C 208.51 27.24 199.29 26.47 190.16 27.40 C 188.08 28.09 187.07 30.37 185.60 31.85 C 189.63 33.38 193.97 36.67 198.46 34.62 C 201.53 33.92 202.38 30.64 203.46 28.13 C 203.58 28.15 203.82 28.18 203.94 28.20 C 204.61 30.18 205.33 32.15 206.10 34.09 C 198.95 36.41 195.27 43.09 191.12 48.75 C 195.76 51.33 200.38 53.97 205.30 56.00 L 195.41 56.00 C 196.90 55.32 198.38 54.58 199.85 53.84 C 196.62 53.30 193.31 50.68 189.97 52.00 C 187.90 52.72 185.95 53.72 183.94 54.60 C 185.92 52.89 187.89 51.17 189.86 49.43 C 189.22 49.25 187.95 48.89 187.31 48.71 C 190.96 45.60 193.48 41.45 194.90 36.89 C 188.14 34.56 181.29 36.43 175.21 39.53 C 177.24 42.13 179.49 44.55 181.68 47.03 C 177.71 45.32 174.25 42.43 172.68 38.30 C 178.26 35.68 187.72 36.23 186.22 27.15 C 181.08 27.36 175.99 28.16 170.86 28.40 C 165.11 27.91 159.82 25.15 154.65 22.80 C 155.18 21.63 155.09 20.50 154.40 19.41 C 155.45 19.03 156.50 18.64 157.56 18.25 L 158.30 18.08 C 157.41 18.67 156.52 19.26 155.64 19.86 C 160.03 20.27 164.50 20.02 168.66 18.46 C 171.17 18.98 173.67 19.57 176.17 20.13 L 176.25 20.98 C 176.34 21.88 176.42 22.78 176.50 23.68 C 176.07 26.15 179.68 25.64 178.90 23.38 C 186.23 23.52 193.62 23.50 200.72 21.40 C 200.65 20.66 200.59 19.92 200.53 19.18 C 199.20 18.95 197.87 18.72 196.54 18.50 C 197.10 17.78 197.65 17.06 198.18 16.32 M 167.85 20.20 C 168.31 21.40 168.77 22.61 169.22 23.82 C 171.37 23.63 173.52 23.46 175.67 23.24 C 173.35 21.60 170.70 20.47 167.85 20.20 Z" />
</g>
<g id="#8a7c4cff">
<path fill="#8a7c4c" opacity="1.00" d=" M 5.41 18.68 C 5.23 15.97 8.36 17.43 7.92 19.45 C 7.29 19.25 6.04 18.87 5.41 18.68 Z" />
</g>
<g id="#8fa8bbff">
<path fill="#8fa8bb" opacity="1.00" d=" M 51.64 18.69 C 52.13 17.13 54.02 16.99 55.29 17.64 C 55.01 17.91 54.45 18.45 54.17 18.72 C 53.68 18.78 52.71 18.89 52.22 18.95 L 51.64 18.69 Z" />
</g>
<g id="#84774cff">
<path fill="#84774c" opacity="1.00" d=" M 61.71 18.28 C 62.32 16.49 64.53 17.82 64.07 19.33 C 63.48 19.07 62.30 18.54 61.71 18.28 Z" />
<path fill="#84774c" opacity="1.00" d=" M 173.72 18.28 C 174.31 16.50 176.54 17.78 176.08 19.30 C 175.49 19.04 174.31 18.53 173.72 18.28 Z" />
</g>
<g id="#437bc5ff">
<path fill="#437bc5" opacity="1.00" d=" M 123.73 17.93 C 123.97 17.82 124.45 17.59 124.69 17.48 C 125.09 17.49 125.90 17.52 126.31 17.53 C 126.94 17.55 128.20 17.61 128.83 17.64 C 130.99 17.79 133.14 17.94 135.30 18.09 L 136.14 18.14 C 136.83 18.10 138.21 18.03 138.90 17.99 L 139.78 17.74 C 135.34 20.84 129.60 20.36 124.50 21.52 C 124.24 20.32 123.98 19.13 123.73 17.93 Z" />
<path fill="#437bc5" opacity="1.00" d=" M 67.81 18.85 C 68.17 18.66 68.87 18.28 69.23 18.09 C 69.46 18.10 69.92 18.12 70.15 18.13 C 70.83 18.20 72.20 18.36 72.88 18.44 C 75.01 18.70 77.15 18.92 79.30 19.11 L 80.18 19.17 C 80.85 19.14 82.20 19.07 82.87 19.04 L 83.84 18.89 C 79.24 21.68 73.61 21.41 68.48 22.53 C 68.26 21.30 68.03 20.07 67.81 18.85 Z" />
<path fill="#437bc5" opacity="1.00" d=" M 179.81 18.84 C 180.17 18.66 180.88 18.28 181.23 18.10 C 181.46 18.11 181.92 18.12 182.15 18.13 C 182.83 18.21 184.20 18.36 184.88 18.44 C 187.01 18.70 189.15 18.92 191.30 19.11 L 192.18 19.17 C 192.85 19.14 194.20 19.07 194.87 19.04 L 195.84 18.89 C 191.24 21.68 185.61 21.41 180.48 22.53 C 180.26 21.30 180.03 20.07 179.81 18.84 Z" />
<path fill="#437bc5" opacity="1.00" d=" M 12.09 20.65 C 12.04 20.19 11.93 19.28 11.87 18.82 C 12.36 18.94 13.33 19.16 13.81 19.28 C 14.57 19.38 16.09 19.57 16.85 19.67 C 19.10 19.93 21.35 20.12 23.60 20.26 C 24.25 20.21 25.56 20.10 26.21 20.05 L 26.84 19.97 L 27.79 19.79 C 23.28 22.71 17.64 22.43 12.58 23.71 C 12.43 22.87 12.29 22.03 12.16 21.18 L 12.09 20.65 Z" />
</g>
<g id="#8fa8baff">
<path fill="#8fa8ba" opacity="1.00" d=" M 128.83 17.64 C 129.93 17.68 131.02 17.72 132.11 17.76 C 133.17 17.88 134.24 17.99 135.30 18.09 C 133.14 17.94 130.99 17.79 128.83 17.64 Z" />
<path fill="#8fa8ba" opacity="1.00" d=" M 72.88 18.44 C 74.01 18.57 75.15 18.70 76.28 18.82 C 77.29 18.93 78.29 19.02 79.30 19.11 C 77.15 18.92 75.01 18.70 72.88 18.44 Z" />
<path fill="#8fa8ba" opacity="1.00" d=" M 184.88 18.44 C 186.01 18.57 187.14 18.69 188.28 18.82 C 189.28 18.93 190.29 19.02 191.30 19.11 C 189.15 18.92 187.01 18.70 184.88 18.44 Z" />
<path fill="#8fa8ba" opacity="1.00" d=" M 16.85 19.67 C 18.03 19.63 19.22 19.58 20.40 19.51 C 21.47 19.76 22.53 20.01 23.60 20.26 C 21.35 20.12 19.10 19.93 16.85 19.67 Z" />
</g>
<g id="#665b9efe">
<path fill="#665b9e" opacity="1.00" d=" M 140.43 17.32 C 141.80 17.61 143.16 17.92 144.52 18.23 C 144.58 18.95 144.66 19.68 144.73 20.41 C 137.64 22.47 130.26 22.56 122.95 22.36 C 122.35 22.43 121.15 22.58 120.55 22.66 C 120.33 21.82 120.09 20.98 119.84 20.15 C 120.43 19.81 121.59 19.13 122.18 18.79 C 122.57 18.57 123.34 18.14 123.73 17.93 C 123.98 19.13 124.24 20.32 124.50 21.52 C 129.60 20.36 135.34 20.84 139.78 17.74 L 140.43 17.32 Z" />
<path fill="#665b9e" opacity="1.00" d=" M 84.54 18.50 C 85.87 18.72 87.20 18.95 88.53 19.18 C 88.59 19.92 88.65 20.66 88.72 21.40 C 81.62 23.50 74.23 23.52 66.90 23.38 C 66.30 23.46 65.10 23.60 64.49 23.68 C 64.41 22.79 64.33 21.90 64.24 21.02 C 64.70 20.73 65.62 20.16 66.08 19.88 C 66.52 19.62 67.38 19.10 67.81 18.85 C 68.03 20.07 68.26 21.30 68.48 22.53 C 73.61 21.41 79.24 21.68 83.84 18.89 L 84.54 18.50 Z" />
<path fill="#665b9e" opacity="1.00" d=" M 196.54 18.50 C 197.87 18.72 199.20 18.95 200.53 19.18 C 200.59 19.92 200.65 20.66 200.72 21.40 C 193.62 23.50 186.23 23.52 178.90 23.38 C 178.30 23.46 177.10 23.60 176.50 23.68 C 176.42 22.78 176.34 21.88 176.25 20.98 C 176.71 20.70 177.62 20.14 178.08 19.87 C 178.51 19.61 179.38 19.10 179.81 18.84 C 180.03 20.07 180.26 21.30 180.48 22.53 C 185.61 21.41 191.24 21.68 195.84 18.89 L 196.54 18.50 Z" />
</g>
<g id="#86a0b1ff">
<path fill="#86a0b1" opacity="1.00" d=" M 151.10 17.30 C 151.84 17.17 153.32 16.92 154.05 16.80 L 154.30 17.57 C 153.20 18.10 152.13 18.01 151.10 17.30 Z" />
<path fill="#86a0b1" opacity="1.00" d=" M 95.03 18.21 C 95.78 18.11 97.27 17.91 98.01 17.81 L 98.14 18.57 C 97.04 19.09 96.00 18.97 95.03 18.21 Z" />
<path fill="#86a0b1" opacity="1.00" d=" M 207.03 18.21 C 207.78 18.11 209.26 17.92 210.01 17.82 L 210.14 18.57 C 209.04 19.09 208.00 18.97 207.03 18.21 Z" />
<path fill="#86a0b1" opacity="1.00" d=" M 39.45 18.52 L 40.46 18.27 L 41.63 18.69 L 41.99 19.47 C 41.05 19.81 40.12 19.78 39.22 19.37 L 39.45 18.52 Z" />
<path fill="#86a0b1" opacity="1.00" d=" M 153.82 19.52 L 154.40 19.41 C 155.09 20.50 155.18 21.63 154.65 22.80 C 154.37 22.64 153.79 22.33 153.50 22.18 C 153.58 21.51 153.74 20.18 153.82 19.52 Z" />
<path fill="#86a0b1" opacity="1.00" d=" M 97.80 20.48 L 98.39 20.33 C 99.14 21.31 99.32 22.39 98.94 23.56 C 98.63 23.47 98.01 23.30 97.70 23.21 C 97.73 22.53 97.78 21.16 97.80 20.48 Z" />
<path fill="#86a0b1" opacity="1.00" d=" M 209.78 20.45 L 210.38 20.31 C 211.23 20.96 211.95 23.29 210.25 23.26 C 209.35 22.53 209.19 21.60 209.78 20.45 Z" />
<path fill="#86a0b1" opacity="1.00" d=" M 41.77 21.47 L 42.37 21.33 C 43.25 21.97 43.96 24.30 42.25 24.26 C 41.35 23.55 41.19 22.62 41.77 21.47 Z" />
</g>
<g id="#63579eff">
<path fill="#63579e" opacity="1.00" d=" M 154.30 17.57 C 154.74 17.44 155.63 17.18 156.07 17.05 C 156.44 17.35 157.19 17.95 157.56 18.25 C 156.50 18.64 155.45 19.03 154.40 19.41 L 153.82 19.52 C 151.20 19.83 148.51 19.87 145.90 20.08 C 146.19 19.90 146.79 19.53 147.09 19.35 C 147.64 19.06 148.75 18.48 149.30 18.19 C 149.75 17.97 150.65 17.52 151.10 17.30 C 152.13 18.01 153.20 18.10 154.30 17.57 Z" />
<path fill="#63579e" opacity="1.00" d=" M 98.14 18.57 C 98.57 18.45 99.41 18.22 99.84 18.11 C 100.25 18.43 101.07 19.07 101.48 19.39 C 100.45 19.70 99.42 20.01 98.39 20.33 L 97.80 20.48 C 95.17 20.82 92.49 20.86 89.86 21.07 C 90.12 20.92 90.63 20.60 90.88 20.44 C 91.48 20.11 92.68 19.46 93.28 19.13 C 93.72 18.90 94.59 18.44 95.03 18.21 C 96.00 18.97 97.04 19.09 98.14 18.57 Z" />
<path fill="#63579e" opacity="1.00" d=" M 210.14 18.57 C 210.57 18.46 211.41 18.23 211.83 18.12 C 212.25 18.44 213.08 19.08 213.49 19.40 C 212.45 19.70 211.41 20.00 210.38 20.31 L 209.78 20.45 C 207.16 20.81 204.46 20.86 201.86 21.08 C 202.12 20.92 202.63 20.60 202.89 20.44 C 203.48 20.11 204.68 19.45 205.28 19.13 C 205.72 18.90 206.59 18.44 207.03 18.21 C 208.00 18.97 209.04 19.09 210.14 18.57 Z" />
<path fill="#63579e" opacity="1.00" d=" M 41.99 19.47 C 42.44 19.38 43.35 19.20 43.81 19.11 C 44.22 19.41 45.05 20.02 45.47 20.32 C 44.44 20.66 43.40 20.99 42.37 21.33 L 41.77 21.47 C 39.11 21.78 36.41 21.75 33.74 21.90 C 34.14 21.69 34.95 21.28 35.35 21.07 C 35.86 20.85 36.88 20.40 37.38 20.18 C 37.84 19.98 38.76 19.58 39.22 19.37 C 40.12 19.78 41.05 19.81 41.99 19.47 Z" />
</g>
<g id="#65569cff">
<path fill="#65569c" opacity="1.00" d=" M 158.83 17.76 C 160.63 17.37 162.45 17.06 164.29 16.84 L 165.11 16.96 C 165.84 17.02 167.31 17.14 168.04 17.21 L 168.66 18.46 C 164.50 20.02 160.03 20.27 155.64 19.86 C 156.52 19.26 157.41 18.67 158.30 18.08 L 158.83 17.76 Z" />
<path fill="#65569c" opacity="1.00" d=" M 214.93 18.97 C 216.75 18.47 218.59 18.06 220.45 17.75 L 221.41 17.95 C 222.06 17.88 223.35 17.72 224.00 17.65 L 224.00 20.85 C 219.89 20.91 215.77 20.96 211.66 20.73 C 212.55 20.23 213.45 19.75 214.36 19.27 L 214.93 18.97 Z" />
<path fill="#65569c" opacity="1.00" d=" M 167.85 20.20 C 170.70 20.47 173.35 21.60 175.67 23.24 C 173.52 23.46 171.37 23.63 169.22 23.82 C 168.77 22.61 168.31 21.40 167.85 20.20 Z" />
<path fill="#65569c" opacity="1.00" d=" M 0.00 20.14 C 2.60 21.65 5.24 23.10 7.77 24.73 C 5.15 24.51 2.51 24.29 0.00 23.49 L 0.00 20.14 Z" />
</g>
<g id="#3d7bceff">
<path fill="#3d7bce" opacity="1.00" d=" M 36.93 18.60 C 37.40 18.43 38.32 18.08 38.79 17.91 L 39.45 18.52 L 39.22 19.37 C 38.76 19.58 37.84 19.98 37.38 20.18 C 37.27 19.78 37.05 18.99 36.93 18.60 Z" />
</g>
<g id="#64559cff">
<path fill="#64559c" opacity="1.00" d=" M 102.94 19.01 C 104.69 18.44 106.47 17.97 108.27 17.58 L 109.10 17.64 C 109.58 17.59 110.55 17.47 111.03 17.42 C 113.97 19.07 116.88 20.78 119.70 22.63 C 113.03 21.97 106.43 20.60 99.70 20.59 C 100.58 20.14 101.47 19.70 102.36 19.27 L 102.94 19.01 Z" />
<path fill="#64559c" opacity="1.00" d=" M 46.88 19.90 C 48.64 19.50 50.43 19.19 52.22 18.95 C 52.71 18.89 53.68 18.78 54.17 18.72 C 57.60 19.85 60.79 21.58 63.81 23.55 C 57.09 23.06 50.47 21.57 43.70 21.60 C 44.57 21.12 45.44 20.65 46.32 20.19 L 46.88 19.90 Z" />
</g>
<g id="#665a9dff">
<path fill="#665a9d" opacity="1.00" d=" M 28.48 19.39 C 29.83 19.65 31.18 19.93 32.53 20.21 C 32.59 20.94 32.65 21.67 32.72 22.40 C 25.62 24.51 18.22 24.51 10.90 24.38 C 10.29 24.46 9.09 24.60 8.49 24.67 C 8.47 23.69 8.46 22.72 8.44 21.74 C 9.71 21.96 11.01 21.76 12.16 21.18 C 12.29 22.03 12.43 22.87 12.58 23.71 C 17.64 22.43 23.28 22.71 27.79 19.79 L 28.48 19.39 Z" />
</g>
<g id="#7f91acff">
<path fill="#7f91ac" opacity="1.00" d=" M 10.90 19.73 C 11.20 19.96 11.79 20.42 12.09 20.65 L 12.16 21.18 C 11.01 21.76 9.71 21.96 8.44 21.74 L 8.43 21.21 C 9.05 20.84 10.28 20.10 10.90 19.73 Z" />
</g>
<g id="#7498b7ff">
<path fill="#7498b7" opacity="1.00" d=" M 120.55 22.66 C 121.15 22.58 122.35 22.43 122.95 22.36 C 123.81 24.67 120.36 25.10 120.55 22.66 Z" />
<path fill="#7498b7" opacity="1.00" d=" M 64.49 23.68 C 65.10 23.60 66.30 23.46 66.90 23.38 C 67.68 25.64 64.08 26.15 64.49 23.68 Z" />
<path fill="#7498b7" opacity="1.00" d=" M 176.50 23.68 C 177.10 23.60 178.30 23.46 178.90 23.38 C 179.68 25.64 176.07 26.15 176.50 23.68 Z" />
<path fill="#7498b7" opacity="1.00" d=" M 8.49 24.67 C 9.09 24.60 10.29 24.46 10.90 24.38 C 11.64 26.63 7.96 27.14 8.49 24.67 Z" />
</g>
<g id="#3c6bbeff">
<path fill="#3c6bbe" opacity="1.00" d=" M 153.50 22.18 C 153.79 22.33 154.37 22.64 154.65 22.80 C 159.82 25.15 165.11 27.91 170.86 28.40 C 175.99 28.16 181.08 27.36 186.22 27.15 C 187.72 36.23 178.26 35.68 172.68 38.30 C 174.25 42.43 177.71 45.32 181.68 47.03 C 179.49 44.55 177.24 42.13 175.21 39.53 C 181.29 36.43 188.14 34.56 194.90 36.89 C 193.48 41.45 190.96 45.60 187.31 48.71 C 187.95 48.89 189.22 49.25 189.86 49.43 C 187.89 51.17 185.92 52.89 183.94 54.60 C 185.95 53.72 187.90 52.72 189.97 52.00 C 193.31 50.68 196.62 53.30 199.85 53.84 C 198.38 54.58 196.90 55.32 195.41 56.00 L 150.07 56.00 C 145.17 51.49 138.74 49.38 133.47 45.44 C 132.62 46.12 131.77 46.79 130.93 47.46 C 131.68 47.70 133.20 48.19 133.96 48.43 C 131.96 50.13 129.94 51.80 127.92 53.47 C 133.51 50.81 140.07 49.75 145.64 53.05 C 143.57 53.39 139.43 54.05 137.37 54.38 C 137.99 54.79 139.25 55.60 139.87 56.00 L 93.31 56.00 C 88.39 53.97 83.76 51.33 79.12 48.75 C 83.26 43.09 86.95 36.42 94.09 34.09 C 93.34 32.15 92.63 30.20 91.98 28.22 C 91.69 28.15 91.09 28.01 90.80 27.94 C 90.60 29.85 90.39 31.76 90.18 33.67 C 84.56 34.48 78.82 34.20 73.50 32.03 C 75.09 30.38 76.28 27.55 78.97 27.65 C 85.53 27.79 91.68 25.52 97.70 23.21 C 98.01 23.30 98.63 23.47 98.94 23.56 C 100.17 24.02 101.38 24.51 102.60 25.00 L 96.76 26.26 C 99.65 27.20 102.53 28.13 105.40 29.11 C 104.58 31.03 103.76 32.96 102.95 34.89 C 100.99 33.98 99.03 33.06 97.07 32.13 C 96.78 33.06 96.48 33.99 96.19 34.92 C 100.90 36.91 105.87 38.15 110.83 39.34 C 109.04 37.30 105.02 35.66 106.27 32.39 C 111.82 25.25 121.49 26.34 129.46 25.69 C 128.57 28.39 127.70 31.08 126.80 33.77 C 130.81 35.07 135.36 35.58 138.80 38.15 C 138.43 41.17 137.35 44.05 136.57 46.98 C 141.71 43.73 141.39 35.06 148.22 34.29 C 154.58 34.73 160.71 36.69 166.84 38.33 C 165.18 36.86 163.43 35.47 162.05 33.72 C 162.75 31.24 164.16 29.04 165.37 26.79 C 162.95 28.78 160.60 30.85 158.35 33.03 C 155.89 32.65 153.42 32.33 150.94 32.17 C 150.24 31.08 149.56 29.98 148.90 28.88 C 146.88 30.90 144.84 33.50 141.76 33.73 C 137.61 33.85 133.58 32.49 129.66 31.28 C 130.14 29.42 130.62 27.57 131.13 25.72 C 134.80 26.33 138.45 27.04 142.11 27.72 C 141.46 26.22 140.82 24.72 140.18 23.22 C 143.31 23.76 146.43 24.39 149.50 25.20 C 150.84 24.20 152.17 23.20 153.50 22.18 M 114.59 36.84 C 114.38 37.45 114.18 38.06 113.98 38.68 C 115.20 38.86 116.42 39.05 117.64 39.24 C 117.56 39.69 117.40 40.58 117.32 41.03 C 121.25 38.84 125.38 37.06 129.43 35.11 C 124.51 35.87 119.61 37.87 114.59 36.84 M 103.41 38.71 C 101.88 41.32 101.17 46.07 96.60 44.07 C 93.23 43.31 89.81 43.05 86.55 44.56 C 90.96 45.32 95.57 45.57 99.57 47.80 C 103.44 46.47 107.52 45.98 111.59 45.90 C 112.61 47.20 113.64 48.51 114.67 49.81 C 115.35 48.28 116.06 46.76 116.78 45.24 C 112.26 45.32 107.75 44.83 103.27 44.28 C 103.32 42.42 103.43 40.57 103.41 38.71 M 154.18 44.35 C 152.13 44.70 150.40 43.23 148.62 42.48 C 148.42 43.21 148.21 43.94 148.02 44.67 C 152.35 46.51 157.06 47.87 161.38 45.16 C 161.04 43.17 160.78 41.16 160.60 39.15 C 158.75 41.15 157.17 44.03 154.18 44.35 M 163.95 44.23 C 163.65 45.99 167.35 45.99 167.05 44.23 C 166.42 43.19 164.58 43.19 163.95 44.23 M 113.52 51.43 C 116.81 51.96 120.12 52.52 123.45 52.87 C 120.48 50.76 116.93 49.53 113.52 51.43 Z" />
<path fill="#3c6bbe" opacity="1.00" d=" M 61.29 25.75 C 65.40 26.25 69.61 26.36 73.58 27.65 C 73.65 28.92 73.80 31.45 73.87 32.72 C 70.31 36.16 65.00 36.24 60.68 38.30 C 62.25 42.43 65.71 45.32 69.68 47.03 C 67.50 44.55 65.24 42.13 63.21 39.53 C 69.29 36.43 76.14 34.56 82.90 36.89 C 81.48 41.45 78.96 45.60 75.31 48.71 C 75.95 48.89 77.22 49.25 77.86 49.43 C 75.89 51.17 73.92 52.89 71.94 54.60 C 73.95 53.72 75.90 52.72 77.97 52.00 C 81.31 50.69 84.63 53.30 87.85 53.84 C 86.38 54.58 84.91 55.32 83.41 56.00 L 32.71 56.00 C 30.19 53.48 27.26 51.45 24.11 49.81 C 29.21 45.41 29.95 35.99 37.96 35.43 C 36.46 33.02 35.22 30.47 33.93 27.95 C 38.97 27.67 44.01 27.40 49.05 27.10 C 48.46 27.35 47.87 27.59 47.27 27.83 C 48.00 30.55 48.06 33.37 47.70 36.14 C 45.47 35.17 43.26 34.18 41.06 33.16 C 40.77 34.08 40.48 35.00 40.19 35.92 C 44.90 37.91 49.87 39.15 54.83 40.34 C 53.10 38.32 49.01 36.69 50.33 33.48 C 52.81 31.11 55.76 29.31 58.53 27.29 C 58.89 28.15 59.25 29.00 59.61 29.86 C 60.18 28.49 60.74 27.12 61.29 25.75 M 34.89 42.74 C 33.57 43.75 32.24 44.75 30.90 45.74 C 35.55 44.90 40.59 45.52 43.81 49.32 C 44.59 48.35 45.37 47.37 46.16 46.40 C 49.58 46.66 53.01 46.72 56.44 46.79 C 52.93 45.98 49.42 45.15 45.93 44.24 C 46.29 42.85 46.65 41.46 47.02 40.07 C 44.19 43.80 38.92 45.80 34.89 42.74 Z" />
<path fill="#3c6bbe" opacity="1.00" d=" M 0.00 30.88 C 6.73 28.01 14.09 27.38 21.32 27.03 C 20.06 27.45 18.80 27.87 17.54 28.28 C 18.13 29.96 18.71 31.65 19.28 33.33 C 13.20 36.10 6.56 37.04 0.00 37.94 L 0.00 30.88 Z" />
<path fill="#3c6bbe" opacity="1.00" d=" M 9.11 40.69 C 12.90 34.30 23.55 35.09 27.35 41.04 C 25.68 43.38 23.05 44.65 20.60 46.00 C 21.01 47.53 21.42 49.05 21.83 50.57 C 19.76 52.38 17.77 54.27 15.64 56.00 L 0.00 56.00 L 0.00 38.42 C 2.83 39.16 6.52 38.95 8.21 41.82 C 10.12 44.54 12.76 46.58 15.72 48.04 C 13.45 45.66 10.94 43.46 9.11 40.69 M 2.22 47.92 C 2.83 49.21 3.43 50.51 4.03 51.81 C 3.38 52.56 2.72 53.31 2.07 54.05 C 5.10 54.37 8.13 54.69 11.16 54.99 C 9.00 53.56 6.85 52.13 4.71 50.68 C 5.76 49.33 6.83 47.99 7.89 46.66 C 6.00 47.07 4.11 47.48 2.22 47.92 Z" />
<path fill="#3c6bbe" opacity="1.00" d=" M 16.72 56.00 C 19.74 54.42 22.64 52.02 26.34 52.65 C 28.25 53.50 29.87 54.85 31.60 56.00 L 16.72 56.00 Z" />
</g>
<g id="#3c6bbdff">
<path fill="#3c6bbd" opacity="1.00" d=" M 19.85 29.73 C 23.71 27.60 28.09 27.18 32.41 26.77 C 32.98 28.91 33.62 31.02 34.23 33.15 C 31.91 34.24 29.62 35.71 27.01 35.91 C 24.48 35.51 22.26 34.15 19.98 33.11 C 19.94 32.26 19.88 30.58 19.85 29.73 Z" />
</g>
<g id="#3c6bbefe">
<path fill="#3c6bbe" opacity="1.00" d=" M 185.60 31.85 C 187.07 30.37 188.08 28.09 190.16 27.40 C 199.29 26.47 208.51 27.24 217.56 28.59 C 216.70 30.69 215.83 32.80 214.97 34.90 C 213.00 33.99 211.03 33.06 209.07 32.13 C 208.77 33.07 208.48 34.00 208.19 34.93 C 212.89 36.86 217.80 38.14 222.72 39.38 C 220.76 37.25 218.81 35.11 217.10 32.76 C 219.41 31.23 221.75 29.73 224.00 28.11 L 224.00 45.17 C 215.54 44.84 207.00 42.45 198.56 44.21 C 201.88 45.17 205.24 45.95 208.62 46.67 C 213.70 48.01 218.93 46.14 224.00 45.80 L 224.00 56.00 L 205.30 56.00 C 200.38 53.97 195.76 51.33 191.12 48.75 C 195.27 43.09 198.95 36.41 206.10 34.09 C 205.33 32.15 204.61 30.18 203.94 28.20 C 203.82 28.18 203.58 28.15 203.46 28.13 C 202.38 30.64 201.53 33.92 198.46 34.62 C 193.97 36.67 189.63 33.38 185.60 31.85 Z" />
</g>
<g id="#4379caff">
<path fill="#4379ca" opacity="1.00" d=" M 114.59 36.84 C 119.61 37.87 124.51 35.87 129.43 35.11 C 125.38 37.06 121.25 38.84 117.32 41.03 C 117.40 40.58 117.56 39.69 117.64 39.24 C 116.42 39.05 115.20 38.86 113.98 38.68 C 114.18 38.06 114.38 37.45 114.59 36.84 Z" />
</g>
<g id="#4278cbff">
<path fill="#4278cb" opacity="1.00" d=" M 103.41 38.71 C 103.43 40.57 103.32 42.42 103.27 44.28 C 107.75 44.83 112.26 45.32 116.78 45.24 C 116.06 46.76 115.35 48.28 114.67 49.81 C 113.64 48.51 112.61 47.20 111.59 45.90 C 107.52 45.98 103.44 46.47 99.57 47.80 C 95.57 45.57 90.96 45.32 86.55 44.56 C 89.81 43.05 93.23 43.31 96.60 44.07 C 101.17 46.07 101.88 41.32 103.41 38.71 Z" />
</g>
<g id="#4279cbff">
<path fill="#4279cb" opacity="1.00" d=" M 154.18 44.35 C 157.17 44.03 158.75 41.15 160.60 39.15 C 160.78 41.16 161.04 43.17 161.38 45.16 C 157.06 47.87 152.35 46.51 148.02 44.67 C 148.21 43.94 148.42 43.21 148.62 42.48 C 150.40 43.23 152.13 44.70 154.18 44.35 Z" />
</g>
<g id="#4378cbff">
<path fill="#4378cb" opacity="1.00" d=" M 34.89 42.74 C 38.92 45.80 44.19 43.80 47.02 40.07 C 46.65 41.46 46.29 42.85 45.93 44.24 C 49.42 45.15 52.93 45.98 56.44 46.79 C 53.01 46.72 49.58 46.66 46.16 46.40 C 45.37 47.37 44.59 48.35 43.81 49.32 C 40.59 45.52 35.55 44.90 30.90 45.74 C 32.24 44.75 33.57 43.75 34.89 42.74 Z" />
</g>
<g id="#4379cbff">
<path fill="#4379cb" opacity="1.00" d=" M 198.56 44.21 C 207.00 42.45 215.54 44.84 224.00 45.17 L 224.00 45.80 C 218.93 46.14 213.70 48.01 208.62 46.67 C 205.24 45.95 201.88 45.17 198.56 44.21 Z" />
</g>
<g id="#4575cbff">
<path fill="#4575cb" opacity="1.00" d=" M 163.95 44.23 C 164.58 43.19 166.42 43.19 167.05 44.23 C 167.35 45.99 163.65 45.99 163.95 44.23 Z" />
</g>
<g id="#4179cbff">
<path fill="#4179cb" opacity="1.00" d=" M 130.93 47.46 C 131.77 46.79 132.62 46.12 133.47 45.44 C 138.74 49.38 145.17 51.49 150.07 56.00 L 139.87 56.00 C 139.25 55.60 137.99 54.79 137.37 54.38 C 139.43 54.05 143.57 53.39 145.64 53.05 C 140.07 49.75 133.51 50.81 127.92 53.47 C 129.94 51.80 131.96 50.13 133.96 48.43 C 133.20 48.19 131.68 47.70 130.93 47.46 Z" />
</g>
<g id="#427acbff">
<path fill="#427acb" opacity="1.00" d=" M 2.22 47.92 C 4.11 47.48 6.00 47.07 7.89 46.66 C 6.83 47.99 5.76 49.33 4.71 50.68 C 6.85 52.13 9.00 53.56 11.16 54.99 C 8.13 54.69 5.10 54.37 2.07 54.05 C 2.72 53.31 3.38 52.56 4.03 51.81 C 3.43 50.51 2.83 49.21 2.22 47.92 Z" />
</g>
<g id="#4279caff">
<path fill="#4279ca" opacity="1.00" d=" M 113.52 51.43 C 116.93 49.53 120.48 50.76 123.45 52.87 C 120.12 52.52 116.81 51.96 113.52 51.43 Z" />
</g>
</svg>
