<?xml version="1.0" encoding="UTF-8" ?>
<!DOCTYPE svg PUBLIC "-//W3C//DTD SVG 1.1//EN" "http://www.w3.org/Graphics/SVG/1.1/DTD/svg11.dtd">
<svg width="224pt" height="56pt" viewBox="0 0 224 56" version="1.1" xmlns="http://www.w3.org/2000/svg">
<g id="#91bc69ff">
<path fill="#91bc69" opacity="1.00" d=" M 0.00 0.00 L 0.81 0.00 C 1.73 1.21 1.46 2.12 0.00 2.72 L 0.00 0.00 Z" />
</g>
<g id="#6d9a59fe">
<path fill="#6d9a59" opacity="1.00" d=" M 0.81 0.00 L 6.85 0.00 C 6.19 3.51 6.28 7.11 6.85 10.62 C 5.93 9.65 5.02 8.68 4.11 7.70 C 2.88 6.37 1.65 5.04 0.41 3.72 C 0.31 4.41 0.10 5.81 0.00 6.51 L 0.00 2.72 C 1.46 2.12 1.73 1.21 0.81 0.00 M 3.40 3.15 C 2.97 4.55 3.45 5.03 4.85 4.60 C 5.29 3.20 4.80 2.71 3.40 3.15 Z" />
</g>
<g id="#545948ff">
<path fill="#545948" opacity="1.00" d=" M 6.85 0.00 L 7.94 0.00 C 7.81 2.23 7.69 4.46 7.56 6.68 C 8.60 7.94 9.64 9.20 10.63 10.51 L 11.01 11.07 C 11.05 11.72 11.11 13.03 11.14 13.68 C 10.13 14.98 9.11 16.27 8.13 17.60 C 8.23 17.08 8.43 16.04 8.53 15.52 C 8.77 14.10 9.01 12.68 9.23 11.26 C 8.79 11.46 7.89 11.85 7.45 12.04 C 5.61 12.81 3.75 13.56 2.02 14.56 C 1.57 13.70 1.12 12.83 0.68 11.97 C 1.44 11.26 2.21 10.56 2.99 9.87 C 3.27 9.33 3.83 8.24 4.11 7.70 C 5.02 8.68 5.93 9.65 6.85 10.62 C 6.28 7.11 6.19 3.51 6.85 0.00 Z" />
</g>
<g id="#322e2aff">
<path fill="#322e2a" opacity="1.00" d=" M 7.94 0.00 L 10.38 0.00 C 9.70 1.38 9.06 2.78 8.44 4.19 C 9.77 4.26 11.11 4.34 12.44 4.43 C 12.79 4.46 13.50 4.52 13.85 4.55 C 12.66 6.46 11.63 8.48 10.63 10.51 C 9.64 9.20 8.60 7.94 7.56 6.68 C 7.69 4.46 7.81 2.23 7.94 0.00 Z" />
<path fill="#322e2a" opacity="1.00" d=" M 63.18 0.00 L 66.18 0.00 C 65.56 1.65 65.04 3.33 64.51 5.02 C 65.96 4.53 67.40 4.03 68.85 3.53 L 69.03 4.19 L 69.26 5.01 C 68.48 6.60 67.66 8.16 66.85 9.73 L 66.47 10.47 C 64.17 7.46 63.44 3.72 63.18 0.00 Z" />
<path fill="#322e2a" opacity="1.00" d=" M 119.17 0.00 L 122.20 0.00 C 121.56 1.62 121.02 3.27 120.47 4.92 C 122.07 4.54 123.67 4.15 125.28 3.75 L 125.05 4.23 L 124.72 4.99 C 124.07 6.47 123.40 7.94 122.71 9.40 L 122.37 10.10 C 120.12 7.21 119.45 3.59 119.17 0.00 Z" />
<path fill="#322e2a" opacity="1.00" d=" M 175.18 0.00 L 178.18 0.00 C 177.56 1.65 177.03 3.33 176.51 5.02 C 177.96 4.52 179.41 4.03 180.85 3.53 L 181.04 4.20 L 181.28 5.03 C 180.51 6.51 179.71 7.97 178.92 9.44 L 178.55 10.12 C 176.10 7.32 175.35 3.65 175.18 0.00 Z" />
</g>
<g id="#565249ff">
<path fill="#565249" opacity="1.00" d=" M 10.38 0.00 L 13.37 0.00 L 13.02 0.81 C 12.42 1.96 12.22 3.16 12.44 4.43 C 11.11 4.34 9.77 4.26 8.44 4.19 C 9.06 2.78 9.70 1.38 10.38 0.00 Z" />
</g>
<g id="#268ed9ff">
<path fill="#268ed9" opacity="1.00" d=" M 13.37 0.00 L 16.01 0.00 C 15.65 0.93 15.23 1.84 14.80 2.74 C 14.35 2.26 13.46 1.30 13.02 0.81 L 13.37 0.00 Z" />
<path fill="#268ed9" opacity="1.00" d=" M 69.43 0.00 L 70.95 0.00 C 71.37 1.39 69.98 2.32 68.92 2.82 C 69.04 2.12 69.30 0.71 69.43 0.00 Z" />
<path fill="#268ed9" opacity="1.00" d=" M 125.39 0.00 L 126.90 0.00 C 127.40 1.31 126.18 2.31 125.22 2.95 C 125.26 2.21 125.35 0.74 125.39 0.00 Z" />
<path fill="#268ed9" opacity="1.00" d=" M 181.42 0.00 L 182.94 0.00 C 183.36 1.39 181.98 2.32 180.92 2.82 C 181.05 2.12 181.30 0.71 181.42 0.00 Z" />
<path fill="#268ed9" opacity="1.00" d=" M 66.85 9.73 C 67.66 8.16 68.48 6.60 69.26 5.01 C 69.65 6.15 70.05 7.28 70.47 8.41 C 69.98 8.98 69.49 9.55 69.00 10.13 C 68.46 10.03 67.39 9.83 66.85 9.73 Z" />
<path fill="#268ed9" opacity="1.00" d=" M 122.71 9.40 C 123.40 7.94 124.07 6.47 124.72 4.99 C 125.35 6.13 125.99 7.27 126.65 8.40 C 126.06 8.97 125.48 9.55 124.89 10.12 C 124.34 9.94 123.25 9.58 122.71 9.40 Z" />
<path fill="#268ed9" opacity="1.00" d=" M 178.92 9.44 C 179.71 7.97 180.51 6.51 181.28 5.03 C 181.67 6.17 182.07 7.30 182.49 8.43 C 182.01 8.98 181.53 9.54 181.05 10.09 C 180.52 9.93 179.45 9.60 178.92 9.44 Z" />
</g>
<g id="#3c6bbeff">
<path fill="#3c6bbe" opacity="1.00" d=" M 16.01 0.00 L 25.21 0.00 C 22.23 0.99 19.27 2.04 16.38 3.28 C 24.49 3.63 32.97 2.58 40.73 5.53 C 45.62 7.54 50.98 6.43 56.10 6.30 C 56.18 7.86 56.25 9.43 56.30 11.00 C 52.48 10.77 48.65 10.63 44.83 10.47 C 43.60 12.76 42.07 14.88 40.50 16.94 C 45.73 15.62 50.91 13.97 56.30 13.42 C 56.29 15.73 56.33 18.03 56.28 20.33 C 56.25 20.97 56.17 22.25 56.14 22.89 C 56.04 24.73 55.95 26.58 55.85 28.42 C 51.16 29.04 46.54 27.75 43.85 23.77 C 46.63 22.17 49.47 20.68 52.28 19.14 C 48.82 19.84 45.37 20.56 41.91 21.26 C 44.31 26.06 49.01 30.39 47.88 36.19 C 45.60 35.20 43.34 34.19 41.09 33.16 C 40.78 34.09 40.47 35.02 40.15 35.95 C 44.89 37.81 49.81 39.10 54.72 40.40 C 53.17 38.48 49.90 37.02 50.19 34.22 C 51.32 32.00 53.93 30.98 55.79 29.43 C 55.79 30.04 55.79 31.26 55.79 31.88 C 55.98 32.59 56.37 34.03 56.56 34.75 L 56.75 35.42 C 56.61 39.13 56.32 42.83 56.09 46.54 C 52.02 46.23 46.61 45.98 46.22 40.95 C 41.55 46.33 35.32 40.22 30.65 38.04 C 33.28 37.38 35.87 36.60 38.47 35.86 C 36.57 33.01 34.75 30.12 32.80 27.30 C 33.28 29.39 33.75 31.49 34.22 33.59 C 30.25 35.56 25.82 35.59 21.85 33.61 C 22.25 31.47 22.66 29.33 23.03 27.19 C 21.72 29.36 20.61 31.63 19.53 33.92 C 18.41 34.43 17.27 34.93 16.13 35.41 C 16.08 30.38 16.02 25.36 15.96 20.34 C 20.22 20.61 24.39 21.72 28.66 21.70 C 32.91 21.42 37.09 20.59 41.32 20.17 C 35.14 16.12 28.08 19.70 21.41 18.24 C 19.50 18.12 17.59 18.44 15.69 18.59 C 15.40 17.27 15.10 15.95 14.84 14.62 C 14.87 13.73 14.90 12.83 14.93 11.94 C 13.92 11.72 12.91 11.49 11.91 11.27 C 12.51 10.89 13.72 10.14 14.33 9.76 C 14.97 7.69 14.85 5.51 14.80 3.38 L 14.80 2.74 C 15.23 1.84 15.65 0.93 16.01 0.00 M 19.49 14.52 C 25.09 12.45 30.93 12.47 36.53 14.51 C 34.45 13.01 32.74 10.32 29.91 10.35 C 25.40 8.58 22.35 11.91 19.49 14.52 Z" />
<path fill="#3c6bbe" opacity="1.00" d=" M 30.50 0.00 L 55.74 0.00 C 55.79 0.84 55.90 2.52 55.95 3.36 C 47.32 5.56 38.59 3.07 30.50 0.00 Z" />
<path fill="#3c6bbe" opacity="1.00" d=" M 70.95 0.00 L 85.40 0.00 C 80.87 4.28 74.48 3.13 68.85 3.53 L 68.92 2.82 C 69.98 2.32 71.37 1.39 70.95 0.00 Z" />
<path fill="#3c6bbe" opacity="1.00" d=" M 126.90 0.00 L 138.32 0.00 C 137.74 0.50 136.57 1.49 135.98 1.98 C 132.34 1.97 128.66 2.32 125.28 3.75 L 125.22 2.95 C 126.18 2.31 127.40 1.31 126.90 0.00 Z" />
<path fill="#3c6bbe" opacity="1.00" d=" M 140.99 0.00 L 151.41 0.00 C 152.65 1.71 153.81 3.59 155.55 4.86 C 159.62 5.88 163.87 6.14 168.05 6.42 C 168.11 7.05 168.23 8.30 168.29 8.93 C 162.74 9.33 156.49 9.13 152.40 13.59 C 157.79 12.86 163.18 11.84 168.64 11.86 C 168.53 14.67 168.42 17.49 168.30 20.30 C 168.25 20.97 168.15 22.30 168.10 22.96 C 168.04 23.81 167.92 25.51 167.86 26.36 C 163.17 27.03 158.53 25.78 155.85 21.76 C 158.63 20.17 161.47 18.68 164.28 17.14 C 160.83 17.84 157.37 18.56 153.92 19.25 C 156.30 23.98 160.68 28.24 160.03 33.91 C 157.10 33.08 153.94 32.79 151.22 31.38 C 149.33 29.72 148.17 27.43 146.72 25.41 C 147.22 27.44 147.73 29.46 148.22 31.50 C 142.46 34.50 135.77 33.65 129.89 31.45 C 129.86 30.42 129.80 28.35 129.77 27.32 C 134.65 26.11 139.66 25.54 144.62 24.73 C 139.09 22.61 133.35 24.17 128.07 26.19 C 128.36 28.66 128.88 31.07 129.63 33.42 C 132.37 35.59 135.99 36.26 138.82 38.32 C 138.90 40.50 138.42 42.67 137.71 44.73 C 132.21 45.43 127.76 40.50 126.96 35.40 C 124.84 28.50 125.75 21.37 126.10 14.33 C 126.62 12.50 125.13 11.57 123.61 11.09 C 123.93 10.85 124.57 10.37 124.89 10.12 C 125.48 9.55 126.06 8.97 126.65 8.40 C 125.99 7.27 125.35 6.13 124.72 4.99 L 125.05 4.23 C 129.14 3.82 133.28 4.04 137.29 4.96 C 138.46 3.27 139.64 1.57 140.99 0.00 M 138.72 9.46 C 141.14 10.63 143.60 11.72 146.10 12.73 C 145.41 14.02 144.71 15.31 144.01 16.59 C 147.03 16.51 150.06 16.58 153.07 16.80 C 149.09 15.52 146.26 12.57 144.60 8.80 C 142.64 9.05 140.67 9.24 138.72 9.46 Z" />
<path fill="#3c6bbe" opacity="1.00" d=" M 154.09 0.00 L 167.63 0.00 C 167.69 0.90 167.80 2.70 167.85 3.60 C 163.01 3.59 157.80 3.60 154.09 0.00 Z" />
<path fill="#3c6bbe" opacity="1.00" d=" M 182.94 0.00 L 197.40 0.00 C 192.87 4.28 186.49 3.13 180.85 3.53 L 180.92 2.82 C 181.98 2.32 183.36 1.39 182.94 0.00 Z" />
<path fill="#3c6bbe" opacity="1.00" d=" M 80.58 5.88 C 82.94 4.09 85.17 1.89 88.09 1.07 C 92.54 0.91 96.15 3.79 100.12 5.29 C 104.05 6.12 108.10 6.12 112.10 6.29 C 112.18 7.41 112.25 8.52 112.33 9.64 C 108.10 10.01 103.14 8.83 99.72 11.86 C 98.41 12.96 97.17 14.16 95.91 15.32 C 101.41 14.31 106.84 12.71 112.46 12.53 C 112.50 14.46 112.59 18.32 112.63 20.25 C 112.62 20.85 112.61 22.04 112.60 22.63 C 112.45 24.22 112.28 25.80 112.08 27.38 C 107.33 28.02 102.57 26.88 99.85 22.76 C 102.63 21.17 105.47 19.68 108.28 18.14 C 104.82 18.84 101.37 19.56 97.91 20.26 C 100.31 25.06 105.01 29.39 103.88 35.19 C 101.60 34.20 99.34 33.19 97.09 32.16 C 96.78 33.09 96.47 34.02 96.15 34.95 C 100.89 36.81 105.81 38.10 110.72 39.40 C 109.12 37.38 105.18 35.65 106.42 32.59 C 108.01 30.87 110.08 29.73 111.96 28.37 C 111.91 29.28 111.81 31.10 111.75 32.01 C 111.87 32.73 112.09 34.17 112.21 34.89 L 112.46 35.67 C 112.44 38.76 112.38 41.85 112.22 44.94 C 109.19 44.93 106.19 44.95 103.17 44.95 C 103.32 43.03 103.48 41.12 103.62 39.21 C 102.57 40.64 101.59 42.14 100.31 43.37 C 94.80 44.43 89.70 40.83 84.67 39.32 C 87.87 37.48 91.14 35.76 94.50 34.23 C 93.04 31.66 91.67 29.04 90.18 26.48 C 90.03 29.03 91.22 33.01 87.95 34.02 C 83.13 35.69 78.04 32.95 73.36 32.01 C 76.12 27.13 81.49 25.92 86.77 26.20 C 86.16 24.93 85.54 23.65 84.94 22.36 C 86.96 20.70 88.95 19.00 91.00 17.38 C 86.74 18.00 82.44 17.76 78.22 16.95 C 80.78 18.87 83.24 20.95 85.29 23.42 C 81.17 24.89 77.00 26.20 72.80 27.40 C 73.22 29.65 73.26 32.02 74.13 34.17 C 75.95 36.61 79.70 36.69 81.98 38.37 C 81.51 40.24 81.02 42.11 80.53 43.97 C 77.61 41.14 73.09 39.00 72.60 34.54 C 71.39 27.96 71.11 21.27 70.20 14.65 C 70.20 13.59 70.19 12.54 70.19 11.48 C 69.38 11.41 68.58 11.34 67.78 11.26 C 68.08 10.98 68.69 10.41 69.00 10.13 C 69.49 9.55 69.98 8.98 70.47 8.41 C 70.05 7.28 69.65 6.15 69.26 5.01 L 69.03 4.19 C 72.91 4.52 76.78 5.00 80.58 5.88 Z" />
<path fill="#3c6bbe" opacity="1.00" d=" M 192.58 5.88 C 194.94 4.09 197.17 1.89 200.09 1.07 C 204.53 0.91 208.13 3.80 212.11 5.25 C 216.02 6.06 220.05 6.00 224.00 6.60 L 224.00 9.27 C 219.79 9.90 214.73 8.89 211.44 12.08 C 210.25 13.19 209.12 14.35 207.98 15.50 C 213.45 14.86 218.49 12.27 224.00 11.90 L 224.00 27.80 C 219.31 27.98 214.60 26.77 211.84 22.77 C 214.62 21.17 217.47 19.69 220.28 18.13 C 216.82 18.84 213.37 19.56 209.91 20.26 C 212.31 25.06 217.01 29.39 215.88 35.19 C 213.60 34.20 211.34 33.19 209.09 32.16 C 208.78 33.09 208.47 34.02 208.15 34.95 C 212.89 36.79 217.80 38.13 222.72 39.40 C 220.74 37.26 218.84 35.05 217.09 32.73 C 219.42 31.29 221.76 29.87 224.00 28.29 L 224.00 45.30 C 214.64 44.71 205.36 42.96 196.70 39.28 C 199.90 37.46 203.16 35.75 206.52 34.23 C 205.00 31.54 203.61 28.78 201.92 26.19 C 202.28 28.28 202.70 30.35 203.12 32.42 C 200.14 33.57 197.17 35.21 193.90 35.14 C 190.93 34.47 188.26 32.84 185.43 31.79 C 188.28 27.09 193.57 25.95 198.77 26.20 C 198.16 24.93 197.54 23.65 196.94 22.36 C 198.96 20.70 200.95 19.00 203.00 17.38 C 198.74 18.01 194.43 17.77 190.22 16.95 C 192.80 18.87 195.25 20.97 197.31 23.46 C 192.75 25.08 188.12 26.47 183.47 27.81 C 183.28 23.38 183.16 18.93 182.28 14.58 C 182.30 12.96 181.21 11.77 179.83 11.12 C 180.14 10.86 180.75 10.35 181.05 10.09 C 181.53 9.54 182.01 8.98 182.49 8.43 C 182.07 7.30 181.67 6.17 181.28 5.03 L 181.04 4.20 C 184.92 4.52 188.78 5.00 192.58 5.88 Z" />
<path fill="#3c6bbe" opacity="1.00" d=" M 162.20 32.22 C 163.42 30.01 165.91 28.89 167.79 27.30 C 167.79 28.89 167.80 30.48 167.84 32.07 C 167.89 32.80 167.99 34.26 168.04 34.98 L 168.04 35.88 C 168.01 38.58 168.00 41.29 168.01 44.00 C 165.41 43.52 162.79 43.14 160.17 42.76 C 160.47 41.61 160.78 40.45 161.09 39.30 C 159.18 40.81 157.53 43.04 155.06 43.58 C 149.86 43.56 145.38 40.26 140.55 38.80 C 143.20 37.07 145.73 34.63 149.02 34.34 C 155.07 34.91 160.91 36.67 166.72 38.36 C 165.17 36.45 161.85 35.01 162.20 32.22 Z" />
<path fill="#3c6bbe" opacity="1.00" d=" M 185.22 28.99 C 187.01 28.65 187.01 32.35 185.22 32.01 C 184.16 31.43 184.16 29.57 185.22 28.99 Z" />
<path fill="#3c6bbe" opacity="1.00" d=" M 185.97 35.31 C 188.74 36.05 191.48 36.68 194.29 37.29 C 193.80 38.96 193.44 40.67 193.07 42.37 C 190.41 40.60 187.75 38.84 185.05 37.15 C 185.34 36.53 185.65 35.91 185.97 35.31 Z" />
<path fill="#3c6bbe" opacity="1.00" d=" M 16.14 36.14 C 21.62 34.04 25.35 37.82 26.66 42.34 C 22.72 41.10 19.13 39.00 16.14 36.14 Z" />
</g>
<g id="#3e7ccdff">
<path fill="#3e7ccd" opacity="1.00" d=" M 25.21 0.00 L 30.50 0.00 C 38.59 3.07 47.32 5.56 55.95 3.36 C 55.99 4.10 56.06 5.56 56.10 6.30 C 50.98 6.43 45.62 7.54 40.73 5.53 C 32.97 2.58 24.49 3.63 16.38 3.28 C 19.27 2.04 22.23 0.99 25.21 0.00 Z" />
</g>
<g id="#85b060fe">
<path fill="#85b060" opacity="1.00" d=" M 55.74 0.00 L 56.16 0.00 C 57.92 1.49 59.63 3.04 61.33 4.59 C 60.05 4.55 58.76 4.51 57.48 4.47 C 58.36 5.57 59.24 6.66 60.15 7.73 C 58.71 6.88 57.42 9.13 58.94 9.88 C 58.30 10.40 57.67 10.92 57.05 11.45 L 56.32 12.09 L 56.30 11.00 C 56.25 9.43 56.18 7.86 56.10 6.30 C 56.06 5.56 55.99 4.10 55.95 3.36 C 55.90 2.52 55.79 0.84 55.74 0.00 Z" />
<path fill="#85b060" opacity="1.00" d=" M 111.66 0.00 L 112.15 0.00 C 113.91 1.49 115.62 3.04 117.33 4.59 C 116.05 4.55 114.76 4.51 113.48 4.47 C 114.36 5.57 115.24 6.67 116.15 7.74 C 114.73 6.88 113.41 9.12 114.93 9.88 C 114.31 10.37 113.69 10.86 113.08 11.37 L 112.45 11.91 C 112.42 11.34 112.36 10.21 112.33 9.64 C 112.25 8.52 112.18 7.41 112.10 6.29 C 112.05 5.58 111.96 4.16 111.91 3.45 C 111.85 2.59 111.73 0.86 111.66 0.00 Z" />
<path fill="#85b060" opacity="1.00" d=" M 167.63 0.00 L 168.14 0.00 C 169.91 1.49 171.62 3.04 173.33 4.59 C 172.05 4.55 170.76 4.51 169.48 4.47 C 170.36 5.57 171.23 6.66 172.15 7.73 C 170.71 6.87 169.40 9.12 170.92 9.88 C 170.36 10.34 169.80 10.82 169.25 11.30 L 168.64 11.86 C 168.55 11.13 168.38 9.66 168.29 8.93 C 168.23 8.30 168.11 7.05 168.05 6.42 C 168.00 5.71 167.90 4.31 167.85 3.60 C 167.80 2.70 167.69 0.90 167.63 0.00 Z" />
</g>
<g id="#6b9958ff">
<path fill="#6b9958" opacity="1.00" d=" M 56.16 0.00 L 62.72 0.00 C 62.19 3.57 62.34 7.18 62.81 10.74 C 61.91 9.74 61.02 8.74 60.15 7.73 C 59.24 6.66 58.36 5.57 57.48 4.47 C 58.76 4.51 60.05 4.55 61.33 4.59 C 59.63 3.04 57.92 1.49 56.16 0.00 Z" />
<path fill="#6b9958" opacity="1.00" d=" M 112.15 0.00 L 118.72 0.00 C 118.19 3.57 118.34 7.18 118.81 10.74 C 117.92 9.74 117.03 8.75 116.15 7.74 C 115.24 6.67 114.36 5.57 113.48 4.47 C 114.76 4.51 116.05 4.55 117.33 4.59 C 115.62 3.04 113.91 1.49 112.15 0.00 Z" />
<path fill="#6b9958" opacity="1.00" d=" M 168.14 0.00 L 174.72 0.00 C 174.19 3.57 174.34 7.18 174.81 10.74 C 173.91 9.74 173.02 8.74 172.15 7.73 C 171.23 6.66 170.36 5.57 169.48 4.47 C 170.76 4.51 172.05 4.55 173.33 4.59 C 171.62 3.04 169.91 1.49 168.14 0.00 Z" />
</g>
<g id="#4f5546ff">
<path fill="#4f5546" opacity="1.00" d=" M 62.72 0.00 L 63.18 0.00 C 63.44 3.72 64.17 7.46 66.47 10.47 L 66.90 11.17 C 66.80 12.00 66.69 12.83 66.59 13.66 L 66.11 13.50 C 65.05 13.14 64.00 12.78 62.94 12.41 C 60.97 12.83 59.09 13.57 57.32 14.51 C 57.25 13.49 57.16 12.47 57.05 11.45 C 57.67 10.92 58.30 10.40 58.94 9.88 C 59.24 9.35 59.85 8.27 60.15 7.73 C 61.02 8.74 61.91 9.74 62.81 10.74 C 62.34 7.18 62.19 3.57 62.72 0.00 Z" />
<path fill="#4f5546" opacity="1.00" d=" M 118.72 0.00 L 119.17 0.00 C 119.45 3.59 120.12 7.21 122.37 10.10 L 122.79 10.76 C 122.72 11.86 122.66 12.97 122.62 14.07 L 122.06 13.65 C 121.17 13.04 120.27 12.45 119.34 11.90 C 117.17 12.59 115.06 13.44 113.08 14.55 C 113.10 13.49 113.10 12.43 113.08 11.37 C 113.69 10.86 114.31 10.37 114.93 9.88 C 115.24 9.34 115.85 8.27 116.15 7.74 C 117.03 8.75 117.92 9.74 118.81 10.74 C 118.34 7.18 118.19 3.57 118.72 0.00 Z" />
<path fill="#4f5546" opacity="1.00" d=" M 174.72 0.00 L 175.18 0.00 C 175.35 3.65 176.10 7.32 178.55 10.12 L 179.01 10.79 C 178.88 11.76 178.74 12.72 178.61 13.68 L 178.11 13.52 C 177.06 13.15 176.00 12.78 174.94 12.41 C 172.97 12.83 171.09 13.57 169.31 14.50 C 169.31 13.43 169.29 12.36 169.25 11.30 C 169.80 10.82 170.36 10.34 170.92 9.88 C 171.23 9.34 171.84 8.27 172.15 7.73 C 173.02 8.74 173.91 9.74 174.81 10.74 C 174.34 7.18 174.19 3.57 174.72 0.00 Z" />
</g>
<g id="#605f59ff">
<path fill="#605f59" opacity="1.00" d=" M 66.18 0.00 L 69.43 0.00 C 69.30 0.71 69.04 2.12 68.92 2.82 L 68.85 3.53 C 67.40 4.03 65.96 4.53 64.51 5.02 C 65.04 3.33 65.56 1.65 66.18 0.00 Z" />
<path fill="#605f59" opacity="1.00" d=" M 122.20 0.00 L 125.39 0.00 C 125.35 0.74 125.26 2.21 125.22 2.95 L 125.28 3.75 C 123.67 4.15 122.07 4.54 120.47 4.92 C 121.02 3.27 121.56 1.62 122.20 0.00 Z" />
<path fill="#605f59" opacity="1.00" d=" M 178.18 0.00 L 181.42 0.00 C 181.30 0.71 181.05 2.12 180.92 2.82 L 180.85 3.53 C 179.41 4.03 177.96 4.52 176.51 5.02 C 177.03 3.33 177.56 1.65 178.18 0.00 Z" />
</g>
<g id="#4079cbff">
<path fill="#4079cb" opacity="1.00" d=" M 85.40 0.00 L 93.86 0.00 C 99.23 3.54 105.70 3.41 111.91 3.45 C 111.96 4.16 112.05 5.58 112.10 6.29 C 108.10 6.12 104.05 6.12 100.12 5.29 C 96.15 3.79 92.54 0.91 88.09 1.07 C 85.17 1.89 82.94 4.09 80.58 5.88 C 76.78 5.00 72.91 4.52 69.03 4.19 L 68.85 3.53 C 74.48 3.13 80.87 4.28 85.40 0.00 Z" />
<path fill="#4079cb" opacity="1.00" d=" M 197.40 0.00 L 205.85 0.00 C 211.27 3.49 217.77 3.44 224.00 3.68 L 224.00 6.60 C 220.05 6.00 216.02 6.06 212.11 5.25 C 208.13 3.80 204.53 0.91 200.09 1.07 C 197.17 1.89 194.94 4.09 192.58 5.88 C 188.78 5.00 184.92 4.52 181.04 4.20 L 180.85 3.53 C 186.49 3.13 192.87 4.28 197.40 0.00 Z" />
</g>
<g id="#3c6abefe">
<path fill="#3c6abe" opacity="1.00" d=" M 93.86 0.00 L 111.66 0.00 C 111.73 0.86 111.85 2.59 111.91 3.45 C 105.70 3.41 99.23 3.54 93.86 0.00 Z" />
<path fill="#3c6abe" opacity="1.00" d=" M 205.85 0.00 L 224.00 0.00 L 224.00 3.68 C 217.77 3.44 211.27 3.49 205.85 0.00 Z" />
</g>
<g id="#4276cbff">
<path fill="#4276cb" opacity="1.00" d=" M 138.32 0.00 L 140.99 0.00 C 139.64 1.57 138.46 3.27 137.29 4.96 C 133.28 4.04 129.14 3.82 125.05 4.23 L 125.28 3.75 C 128.66 2.32 132.34 1.97 135.98 1.98 C 136.57 1.49 137.74 0.50 138.32 0.00 Z" />
</g>
<g id="#4079ccff">
<path fill="#4079cc" opacity="1.00" d=" M 151.41 0.00 L 154.09 0.00 C 157.80 3.60 163.01 3.59 167.85 3.60 C 167.90 4.31 168.00 5.71 168.05 6.42 C 163.87 6.14 159.62 5.88 155.55 4.86 C 153.81 3.59 152.65 1.71 151.41 0.00 Z" />
</g>
<g id="#a0b6cbff">
<path fill="#a0b6cb" opacity="1.00" d=" M 13.02 0.81 C 13.46 1.30 14.35 2.26 14.80 2.74 L 14.80 3.38 C 14.56 3.67 14.09 4.25 13.85 4.55 C 13.50 4.52 12.79 4.46 12.44 4.43 C 12.22 3.16 12.42 1.96 13.02 0.81 Z" />
</g>
<g id="#87b05cff">
<path fill="#87b05c" opacity="1.00" d=" M 3.40 3.15 C 4.80 2.71 5.29 3.20 4.85 4.60 C 3.45 5.03 2.97 4.55 3.40 3.15 Z" />
<path fill="#87b05c" opacity="1.00" d=" M 42.81 49.21 C 44.25 49.44 44.95 50.22 44.89 51.57 C 43.54 51.48 42.85 50.70 42.81 49.21 Z" />
<path fill="#87b05c" opacity="1.00" d=" M 99.15 49.40 C 103.14 48.58 98.30 53.38 99.15 49.40 Z" />
<path fill="#87b05c" opacity="1.00" d=" M 211.15 49.40 C 215.14 48.58 210.30 53.38 211.15 49.40 Z" />
<path fill="#87b05c" opacity="1.00" d=" M 40.47 53.64 L 40.56 53.75 C 41.26 55.16 43.33 55.09 44.14 53.83 L 44.71 53.29 C 44.64 53.97 44.52 55.32 44.45 56.00 L 39.11 56.00 C 39.45 55.41 40.13 54.23 40.47 53.64 Z" />
<path fill="#87b05c" opacity="1.00" d=" M 96.39 53.70 L 96.49 53.85 C 97.24 55.54 99.44 54.85 100.25 53.60 L 100.61 53.24 C 100.57 53.93 100.49 55.31 100.45 56.00 L 95.08 56.00 C 95.40 55.43 96.06 54.28 96.39 53.70 Z" />
<path fill="#87b05c" opacity="1.00" d=" M 152.39 53.76 L 152.53 54.04 C 153.14 55.83 155.34 54.55 156.12 53.58 L 156.54 53.23 C 156.51 53.92 156.45 55.31 156.43 56.00 L 151.07 56.00 C 151.40 55.44 152.06 54.32 152.39 53.76 Z" />
<path fill="#87b05c" opacity="1.00" d=" M 208.16 53.47 L 208.40 53.79 C 209.19 55.43 211.37 54.87 212.23 53.61 L 212.62 53.26 C 212.58 53.94 212.49 55.31 212.44 56.00 L 207.18 56.00 C 207.43 55.37 207.91 54.10 208.16 53.47 Z" />
</g>
<g id="#87b262ff">
<path fill="#87b262" opacity="1.00" d=" M 0.41 3.72 C 1.65 5.04 2.88 6.37 4.11 7.70 C 2.65 6.86 1.43 9.18 2.99 9.87 C 2.21 10.56 1.44 11.26 0.68 11.97 L 0.00 12.65 L 0.00 6.51 C 0.10 5.81 0.31 4.41 0.41 3.72 Z" />
</g>
<g id="#278bd7ff">
<path fill="#278bd7" opacity="1.00" d=" M 14.80 3.38 C 14.85 5.51 14.97 7.69 14.33 9.76 C 13.15 8.62 11.35 9.13 10.63 10.51 C 11.63 8.48 12.66 6.46 13.85 4.55 C 14.09 4.25 14.56 3.67 14.80 3.38 Z" />
</g>
<g id="#6c9c64ff">
<path fill="#6c9c64" opacity="1.00" d=" M 2.99 9.87 C 1.43 9.18 2.65 6.86 4.11 7.70 C 3.83 8.24 3.27 9.33 2.99 9.87 Z" />
<path fill="#6c9c64" opacity="1.00" d=" M 58.94 9.88 C 57.42 9.13 58.71 6.88 60.15 7.73 C 59.85 8.27 59.24 9.35 58.94 9.88 Z" />
<path fill="#6c9c64" opacity="1.00" d=" M 114.93 9.88 C 113.41 9.12 114.73 6.88 116.15 7.74 C 115.85 8.27 115.24 9.34 114.93 9.88 Z" />
<path fill="#6c9c64" opacity="1.00" d=" M 170.92 9.88 C 169.40 9.12 170.71 6.87 172.15 7.73 C 171.84 8.27 171.23 9.34 170.92 9.88 Z" />
</g>
<g id="#84a9b8ff">
<path fill="#84a9b8" opacity="1.00" d=" M 10.63 10.51 C 11.35 9.13 13.15 8.62 14.33 9.76 C 13.72 10.14 12.51 10.89 11.91 11.27 L 11.01 11.07 L 10.63 10.51 Z" />
</g>
<g id="#4377caff">
<path fill="#4377ca" opacity="1.00" d=" M 138.72 9.46 C 140.67 9.24 142.64 9.05 144.60 8.80 C 146.26 12.57 149.09 15.52 153.07 16.80 C 150.06 16.58 147.03 16.51 144.01 16.59 C 144.71 15.31 145.41 14.02 146.10 12.73 C 143.60 11.72 141.14 10.63 138.72 9.46 Z" />
</g>
<g id="#3f7bccff">
<path fill="#3f7bcc" opacity="1.00" d=" M 152.40 13.59 C 156.49 9.13 162.74 9.33 168.29 8.93 C 168.38 9.66 168.55 11.13 168.64 11.86 C 163.18 11.84 157.79 12.86 152.40 13.59 Z" />
</g>
<g id="#6fafb9ff">
<path fill="#6fafb9" opacity="1.00" d=" M 66.85 9.73 C 67.39 9.83 68.46 10.03 69.00 10.13 C 68.69 10.41 68.08 10.98 67.78 11.26 L 66.90 11.17 L 66.47 10.47 L 66.85 9.73 Z" />
<path fill="#6fafb9" opacity="1.00" d=" M 122.71 9.40 C 123.25 9.58 124.34 9.94 124.89 10.12 C 124.57 10.37 123.93 10.85 123.61 11.09 L 122.79 10.76 L 122.37 10.10 L 122.71 9.40 Z" />
<path fill="#6fafb9" opacity="1.00" d=" M 178.92 9.44 C 179.45 9.60 180.52 9.93 181.05 10.09 C 180.75 10.35 180.14 10.86 179.83 11.12 L 179.01 10.79 L 178.55 10.12 L 178.92 9.44 Z" />
</g>
<g id="#427bcbff">
<path fill="#427bcb" opacity="1.00" d=" M 99.72 11.86 C 103.14 8.83 108.10 10.01 112.33 9.64 C 112.36 10.21 112.42 11.34 112.45 11.91 L 112.46 12.53 C 106.84 12.71 101.41 14.31 95.91 15.32 C 97.17 14.16 98.41 12.96 99.72 11.86 Z" />
<path fill="#427bcb" opacity="1.00" d=" M 211.44 12.08 C 214.73 8.89 219.79 9.90 224.00 9.27 L 224.00 11.90 C 218.49 12.27 213.45 14.86 207.98 15.50 C 209.12 14.35 210.25 13.19 211.44 12.08 Z" />
</g>
<g id="#4376caff">
<path fill="#4376ca" opacity="1.00" d=" M 19.49 14.52 C 22.35 11.91 25.40 8.58 29.91 10.35 C 32.74 10.32 34.45 13.01 36.53 14.51 C 30.93 12.47 25.09 12.45 19.49 14.52 Z" />
</g>
<g id="#437cccff">
<path fill="#437ccc" opacity="1.00" d=" M 44.83 10.47 C 48.65 10.63 52.48 10.77 56.30 11.00 L 56.32 12.09 C 56.32 12.42 56.31 13.09 56.30 13.42 C 50.91 13.97 45.73 15.62 40.50 16.94 C 42.07 14.88 43.60 12.76 44.83 10.47 Z" />
</g>
<g id="#1aa9c1ff">
<path fill="#1aa9c1" opacity="1.00" d=" M 11.01 11.07 L 11.91 11.27 C 12.91 11.49 13.92 11.72 14.93 11.94 C 14.90 12.83 14.87 13.73 14.84 14.62 C 13.15 23.34 9.96 34.38 17.64 41.35 C 20.78 45.02 25.95 42.69 30.11 42.78 C 36.52 41.67 42.35 44.99 48.25 46.84 C 46.67 46.98 45.09 47.13 43.51 47.27 L 42.89 46.78 C 41.98 45.75 40.56 45.36 39.27 45.89 L 38.44 45.98 C 36.94 45.20 35.47 44.35 34.00 43.52 C 29.65 45.23 24.75 46.45 20.15 44.89 C 16.01 43.25 13.31 39.47 10.75 36.02 C 10.65 35.60 10.46 34.77 10.36 34.36 C 10.66 27.78 11.19 21.21 11.13 14.62 L 11.14 13.68 C 11.11 13.03 11.05 11.72 11.01 11.07 Z" />
<path fill="#1aa9c1" opacity="1.00" d=" M 120.32 34.39 C 120.95 29.88 121.97 25.44 122.74 20.96 C 122.68 26.82 123.71 32.72 122.94 38.57 C 122.63 37.17 121.79 36.36 120.42 36.14 C 120.40 35.70 120.35 34.83 120.32 34.39 Z" />
</g>
<g id="#1ba8c2ff">
<path fill="#1ba8c2" opacity="1.00" d=" M 66.90 11.17 L 67.78 11.26 C 68.58 11.34 69.38 11.41 70.19 11.48 C 70.19 12.54 70.20 13.59 70.20 14.65 C 69.28 20.87 66.36 27.42 68.26 33.70 C 70.58 37.36 72.74 42.05 77.04 43.71 C 84.33 44.51 91.71 43.81 99.01 44.75 C 98.59 45.83 98.18 46.92 97.77 48.01 C 97.73 48.11 97.65 48.32 97.61 48.43 C 97.03 48.30 95.88 48.04 95.31 47.92 C 94.86 47.83 93.97 47.66 93.53 47.58 C 88.91 46.63 84.22 47.48 79.58 47.02 C 74.38 45.79 70.13 41.78 68.02 36.94 C 63.37 30.29 66.31 22.00 66.46 14.61 L 66.59 13.66 C 66.69 12.83 66.80 12.00 66.90 11.17 Z" />
</g>
<g id="#1ca4c2ff">
<path fill="#1ca4c2" opacity="1.00" d=" M 122.79 10.76 L 123.61 11.09 C 125.13 11.57 126.62 12.50 126.10 14.33 C 125.06 16.32 123.88 18.24 122.82 20.23 C 122.79 18.40 122.66 16.58 122.61 14.76 L 122.62 14.07 C 122.66 12.97 122.72 11.86 122.79 10.76 Z" />
</g>
<g id="#1ba7c2ff">
<path fill="#1ba7c2" opacity="1.00" d=" M 179.01 10.79 L 179.83 11.12 C 181.21 11.77 182.30 12.96 182.28 14.58 C 181.24 20.63 178.72 26.80 179.99 33.01 C 182.65 38.60 187.10 45.80 194.50 44.04 C 201.86 43.62 209.07 45.02 216.24 46.45 C 214.83 46.73 213.44 47.03 212.05 47.37 C 211.23 47.56 210.43 47.77 209.63 47.97 C 209.04 47.92 207.87 47.81 207.29 47.76 C 206.88 47.72 206.07 47.65 205.66 47.61 C 200.78 46.68 195.78 47.69 190.91 46.87 C 183.83 44.83 179.64 38.07 177.69 31.42 C 176.94 25.84 178.17 20.19 178.47 14.62 L 178.61 13.68 C 178.74 12.72 178.88 11.76 179.01 10.79 Z" />
</g>
<g id="#6a9a61ff">
<path fill="#6a9a61" opacity="1.00" d=" M 0.00 12.65 L 0.68 11.97 C 1.12 12.83 1.57 13.70 2.02 14.56 C 1.54 15.77 1.09 16.99 0.67 18.21 C 0.50 18.74 0.17 19.79 0.00 20.31 L 0.00 12.65 Z" />
<path fill="#6a9a61" opacity="1.00" d=" M 56.32 12.09 L 57.05 11.45 C 57.16 12.47 57.25 13.49 57.32 14.51 C 57.12 15.76 56.91 17.01 56.68 18.26 C 56.58 18.77 56.38 19.81 56.28 20.33 C 56.33 18.03 56.29 15.73 56.30 13.42 C 56.31 13.09 56.32 12.42 56.32 12.09 Z" />
<path fill="#6a9a61" opacity="1.00" d=" M 112.45 11.91 L 113.08 11.37 C 113.10 12.43 113.10 13.49 113.08 14.55 C 112.97 15.78 112.87 17.00 112.77 18.22 C 112.73 18.73 112.67 19.75 112.63 20.25 C 112.59 18.32 112.50 14.46 112.46 12.53 L 112.45 11.91 Z" />
<path fill="#6a9a61" opacity="1.00" d=" M 168.64 11.86 L 169.25 11.30 C 169.29 12.36 169.31 13.43 169.31 14.50 C 169.11 15.75 168.90 17.01 168.68 18.26 C 168.59 18.77 168.40 19.79 168.30 20.30 C 168.42 17.49 168.53 14.67 168.64 11.86 Z" />
</g>
<g id="#a9a16aff">
<path fill="#a9a16a" opacity="1.00" d=" M 2.02 14.56 C 3.75 13.56 5.61 12.81 7.45 12.04 C 5.13 14.03 2.82 16.04 0.67 18.21 C 1.09 16.99 1.54 15.77 2.02 14.56 Z" />
<path fill="#a9a16a" opacity="1.00" d=" M 57.32 14.51 C 59.09 13.57 60.97 12.83 62.94 12.41 C 60.88 14.39 58.72 16.26 56.68 18.26 C 56.91 17.01 57.12 15.76 57.32 14.51 Z" />
<path fill="#a9a16a" opacity="1.00" d=" M 113.08 14.55 C 115.06 13.44 117.17 12.59 119.34 11.90 C 117.26 14.12 115.03 16.19 112.77 18.22 C 112.87 17.00 112.97 15.78 113.08 14.55 Z" />
<path fill="#a9a16a" opacity="1.00" d=" M 169.31 14.50 C 171.09 13.57 172.97 12.83 174.94 12.41 C 172.88 14.39 170.72 16.26 168.68 18.26 C 168.90 17.01 169.11 15.75 169.31 14.50 Z" />
</g>
<g id="#d8d389ff">
<path fill="#d8d389" opacity="1.00" d=" M 7.45 12.04 C 7.89 11.85 8.79 11.46 9.23 11.26 C 9.01 12.68 8.77 14.10 8.53 15.52 C 5.54 19.42 4.59 24.54 5.32 29.34 C 5.37 29.82 5.47 30.79 5.52 31.27 C 5.58 32.70 6.22 34.02 6.97 35.21 C 8.44 37.80 9.77 40.47 11.28 43.05 C 10.11 42.29 8.90 41.58 7.70 40.88 C 9.95 43.83 12.26 46.75 14.57 49.66 C 9.79 46.25 5.93 41.85 3.01 36.80 C 2.95 38.42 2.87 40.05 2.87 41.68 C 2.42 40.07 1.94 38.47 1.48 36.86 C 1.54 31.93 1.08 27.03 0.00 22.22 L 0.00 20.31 C 0.17 19.79 0.50 18.74 0.67 18.21 C 2.82 16.04 5.13 14.03 7.45 12.04 Z" />
<path fill="#d8d389" opacity="1.00" d=" M 119.34 11.90 C 120.27 12.45 121.17 13.04 122.06 13.65 C 120.69 15.81 119.28 17.95 117.74 19.99 C 116.57 21.07 116.71 22.75 117.21 24.12 C 116.82 26.44 116.42 28.75 116.05 31.08 C 115.66 32.52 116.20 34.03 117.18 35.11 C 118.86 37.33 120.53 39.57 122.17 41.82 C 121.48 41.75 120.12 41.62 119.43 41.56 C 121.93 43.76 124.44 45.95 126.98 48.11 C 127.80 48.81 128.63 49.49 129.52 50.11 C 134.75 54.87 142.07 52.95 148.38 52.52 C 147.24 51.70 146.10 50.88 144.96 50.06 C 146.83 49.87 148.68 49.62 150.54 49.38 C 151.00 50.52 151.48 51.66 151.97 52.80 L 152.18 53.30 C 150.50 53.65 149.24 54.84 148.02 55.96 C 145.19 55.96 142.38 55.96 139.56 56.00 L 132.92 56.00 C 128.91 54.84 125.03 53.25 121.33 51.32 C 123.07 51.46 124.81 51.59 126.55 51.74 C 122.45 46.94 118.39 42.10 115.01 36.77 C 114.96 38.43 114.91 40.09 114.93 41.75 C 114.48 40.60 114.00 39.46 113.53 38.33 C 114.54 33.08 113.81 27.77 112.60 22.63 C 112.61 22.04 112.62 20.85 112.63 20.25 C 112.67 19.75 112.73 18.73 112.77 18.22 C 115.03 16.19 117.26 14.12 119.34 11.90 Z" />
</g>
<g id="#cbc686ff">
<path fill="#cbc686" opacity="1.00" d=" M 62.94 12.41 C 64.00 12.78 65.05 13.14 66.11 13.50 C 65.17 14.60 64.25 15.71 63.32 16.81 C 62.34 17.22 60.36 18.05 59.37 18.47 C 58.86 20.36 58.64 22.33 58.37 24.27 C 57.82 23.92 56.70 23.23 56.14 22.89 C 56.17 22.25 56.25 20.97 56.28 20.33 C 56.38 19.81 56.58 18.77 56.68 18.26 C 58.72 16.26 60.88 14.39 62.94 12.41 Z" />
<path fill="#cbc686" opacity="1.00" d=" M 174.94 12.41 C 176.00 12.78 177.06 13.15 178.11 13.52 C 177.17 14.61 176.25 15.71 175.32 16.80 C 174.33 17.22 172.36 18.05 171.38 18.47 C 170.85 20.36 170.58 22.31 170.32 24.26 C 169.76 23.94 168.65 23.29 168.10 22.96 C 168.15 22.30 168.25 20.97 168.30 20.30 C 168.40 19.79 168.59 18.77 168.68 18.26 C 170.72 16.26 172.88 14.39 174.94 12.41 Z" />
</g>
<g id="#a1e1a3ff">
<path fill="#a1e1a3" opacity="1.00" d=" M 8.13 17.60 C 9.11 16.27 10.13 14.98 11.14 13.68 L 11.13 14.62 C 10.16 21.14 9.45 27.79 10.36 34.36 C 10.46 34.77 10.65 35.60 10.75 36.02 C 12.57 39.95 14.16 45.07 18.77 46.37 C 25.16 48.29 31.99 46.46 38.44 45.98 L 39.27 45.89 L 38.98 46.59 C 38.73 46.92 38.24 47.57 37.99 47.90 L 37.16 48.06 C 35.69 48.35 34.21 48.64 32.73 48.89 C 27.22 49.65 21.63 49.37 16.11 48.84 C 15.73 48.56 14.96 48.00 14.58 47.72 C 13.50 46.15 12.40 44.59 11.28 43.05 C 9.77 40.47 8.44 37.80 6.97 35.21 C 8.54 33.83 7.56 31.37 5.52 31.27 C 5.47 30.79 5.37 29.82 5.32 29.34 C 5.88 25.34 6.62 21.35 8.13 17.60 Z" />
<path fill="#a1e1a3" opacity="1.00" d=" M 66.11 13.50 L 66.59 13.66 L 66.46 14.61 C 65.47 22.65 61.07 32.07 66.83 39.14 C 69.97 44.77 76.05 47.94 81.88 50.13 C 78.65 50.24 75.45 49.63 72.36 48.71 C 67.31 43.21 61.91 37.12 61.13 29.33 C 61.41 26.27 61.72 23.20 62.21 20.17 C 62.51 19.02 62.88 17.90 63.32 16.81 C 64.25 15.71 65.17 14.60 66.11 13.50 Z" />
<path fill="#a1e1a3" opacity="1.00" d=" M 178.11 13.52 L 178.61 13.68 L 178.47 14.62 C 177.44 22.65 173.07 32.07 178.83 39.14 C 181.97 44.77 188.05 47.94 193.88 50.13 C 190.65 50.22 187.45 49.63 184.36 48.71 C 179.31 43.21 173.91 37.12 173.13 29.33 C 173.40 26.27 173.72 23.20 174.21 20.17 C 174.51 19.02 174.88 17.90 175.32 16.80 C 176.25 15.71 177.17 14.61 178.11 13.52 Z" />
</g>
<g id="#a1e0a2fe">
<path fill="#a1e0a2" opacity="1.00" d=" M 122.06 13.65 L 122.62 14.07 L 122.61 14.76 C 120.99 21.18 119.51 27.73 120.32 34.39 C 120.35 34.83 120.40 35.70 120.42 36.14 C 120.26 37.66 121.59 38.67 122.80 39.25 L 123.23 39.79 C 124.66 41.71 126.05 43.67 127.72 45.39 C 129.52 47.40 132.09 48.48 134.63 49.21 C 136.32 49.69 138.02 50.14 139.75 50.47 C 136.33 50.64 132.91 50.58 129.52 50.11 C 128.63 49.49 127.80 48.81 126.98 48.11 C 125.32 46.06 123.74 43.93 122.17 41.82 C 120.53 39.57 118.86 37.33 117.18 35.11 C 118.55 33.78 117.85 31.55 116.05 31.08 C 116.42 28.75 116.82 26.44 117.21 24.12 C 118.16 23.02 118.97 21.21 117.74 19.99 C 119.28 17.95 120.69 15.81 122.06 13.65 Z" />
</g>
<g id="#3fcdbeff">
<path fill="#3fcdbe" opacity="1.00" d=" M 11.13 14.62 C 11.19 21.21 10.66 27.78 10.36 34.36 C 9.45 27.79 10.16 21.14 11.13 14.62 Z" />
<path fill="#3fcdbe" opacity="1.00" d=" M 134.63 49.21 C 140.95 48.45 147.29 47.99 153.66 48.13 L 153.31 48.95 C 152.62 49.06 151.23 49.27 150.54 49.38 C 147.59 49.30 144.68 49.89 141.80 50.33 C 141.28 50.36 140.26 50.43 139.75 50.47 C 138.02 50.14 136.32 49.69 134.63 49.21 Z" />
</g>
<g id="#4377c9ff">
<path fill="#4377c9" opacity="1.00" d=" M 17.64 41.35 C 9.96 34.38 13.15 23.34 14.84 14.62 C 15.10 15.95 15.40 17.27 15.69 18.59 C 17.59 18.44 19.50 18.12 21.41 18.24 C 28.08 19.70 35.14 16.12 41.32 20.17 C 37.09 20.59 32.91 21.42 28.66 21.70 C 24.39 21.72 20.22 20.61 15.96 20.34 C 16.02 25.36 16.08 30.38 16.13 35.41 C 17.27 34.93 18.41 34.43 19.53 33.92 C 20.61 31.63 21.72 29.36 23.03 27.19 C 22.66 29.33 22.25 31.47 21.85 33.61 C 25.82 35.59 30.25 35.56 34.22 33.59 C 33.75 31.49 33.28 29.39 32.80 27.30 C 34.75 30.12 36.57 33.01 38.47 35.86 C 35.87 36.60 33.28 37.38 30.65 38.04 C 35.32 40.22 41.55 46.33 46.22 40.95 C 46.61 45.98 52.02 46.23 56.09 46.54 C 56.03 47.37 55.89 49.04 55.83 49.87 C 55.78 50.24 55.68 50.97 55.63 51.33 C 51.40 50.79 46.89 50.13 43.51 47.27 C 45.09 47.13 46.67 46.98 48.25 46.84 C 42.35 44.99 36.52 41.67 30.11 42.78 C 25.95 42.69 20.78 45.02 17.64 41.35 M 16.14 36.14 C 19.13 39.00 22.72 41.10 26.66 42.34 C 25.35 37.82 21.62 34.04 16.14 36.14 Z" />
</g>
<g id="#40cebeff">
<path fill="#40cebe" opacity="1.00" d=" M 66.46 14.61 C 66.31 22.00 63.37 30.29 68.02 36.94 C 70.13 41.78 74.38 45.79 79.58 47.02 C 84.22 47.48 88.91 46.63 93.53 47.58 C 89.82 47.98 86.27 49.22 82.66 50.10 L 81.88 50.13 C 76.05 47.94 69.97 44.77 66.83 39.14 C 61.07 32.07 65.47 22.65 66.46 14.61 Z" />
<path fill="#40cebe" opacity="1.00" d=" M 178.47 14.62 C 178.17 20.19 176.94 25.84 177.69 31.42 C 179.64 38.07 183.83 44.83 190.91 46.87 C 195.78 47.69 200.78 46.68 205.66 47.61 C 201.91 48.04 198.31 49.23 194.66 50.10 L 193.88 50.13 C 188.05 47.94 181.97 44.77 178.83 39.14 C 173.07 32.07 177.44 22.65 178.47 14.62 Z" />
</g>
<g id="#4378cbff">
<path fill="#4378cb" opacity="1.00" d=" M 68.26 33.70 C 66.36 27.42 69.28 20.87 70.20 14.65 C 71.11 21.27 71.39 27.96 72.60 34.54 C 73.09 39.00 77.61 41.14 80.53 43.97 C 81.02 42.11 81.51 40.24 81.98 38.37 C 79.70 36.69 75.95 36.61 74.13 34.17 C 73.26 32.02 73.22 29.65 72.80 27.40 C 77.00 26.20 81.17 24.89 85.29 23.42 C 83.24 20.95 80.78 18.87 78.22 16.95 C 82.44 17.76 86.74 18.00 91.00 17.38 C 88.95 19.00 86.96 20.70 84.94 22.36 C 85.54 23.65 86.16 24.93 86.77 26.20 C 81.49 25.92 76.12 27.13 73.36 32.01 C 78.04 32.95 83.13 35.69 87.95 34.02 C 91.22 33.01 90.03 29.03 90.18 26.48 C 91.67 29.04 93.04 31.66 94.50 34.23 C 91.14 35.76 87.87 37.48 84.67 39.32 C 89.70 40.83 94.80 44.43 100.31 43.37 C 101.59 42.14 102.57 40.64 103.62 39.21 C 103.48 41.12 103.32 43.03 103.17 44.95 C 106.19 44.95 109.19 44.93 112.22 44.94 L 112.13 45.94 C 108.38 46.68 104.62 47.33 100.82 47.72 C 100.06 47.79 98.53 47.94 97.77 48.01 C 98.18 46.92 98.59 45.83 99.01 44.75 C 91.71 43.81 84.33 44.51 77.04 43.71 C 72.74 42.05 70.58 37.36 68.26 33.70 Z" />
</g>
<g id="#40cfbeff">
<path fill="#40cfbe" opacity="1.00" d=" M 122.61 14.76 C 122.66 16.58 122.79 18.40 122.82 20.23 L 122.74 20.96 C 121.97 25.44 120.95 29.88 120.32 34.39 C 119.51 27.73 120.99 21.18 122.61 14.76 Z" />
</g>
<g id="#4378caff">
<path fill="#4378ca" opacity="1.00" d=" M 122.82 20.23 C 123.88 18.24 125.06 16.32 126.10 14.33 C 125.75 21.37 124.84 28.50 126.96 35.40 C 127.76 40.50 132.21 45.43 137.71 44.73 C 138.42 42.67 138.90 40.50 138.82 38.32 C 135.99 36.26 132.37 35.59 129.63 33.42 C 128.88 31.07 128.36 28.66 128.07 26.19 C 133.35 24.17 139.09 22.61 144.62 24.73 C 139.66 25.54 134.65 26.11 129.77 27.32 C 129.80 28.35 129.86 30.42 129.89 31.45 C 135.77 33.65 142.46 34.50 148.22 31.50 C 147.73 29.46 147.22 27.44 146.72 25.41 C 148.17 27.43 149.33 29.72 151.22 31.38 C 153.94 32.79 157.10 33.08 160.03 33.91 C 160.68 28.24 156.30 23.98 153.92 19.25 C 157.37 18.56 160.83 17.84 164.28 17.14 C 161.47 18.68 158.63 20.17 155.85 21.76 C 158.53 25.78 163.17 27.03 167.86 26.36 C 167.84 26.59 167.81 27.07 167.79 27.30 C 165.91 28.89 163.42 30.01 162.20 32.22 C 161.85 35.01 165.17 36.45 166.72 38.36 C 160.91 36.67 155.07 34.91 149.02 34.34 C 145.73 34.63 143.20 37.07 140.55 38.80 C 145.38 40.26 149.86 43.56 155.06 43.58 C 157.53 43.04 159.18 40.81 161.09 39.30 C 160.78 40.45 160.47 41.61 160.17 42.76 C 162.79 43.14 165.41 43.52 168.01 44.00 L 168.02 44.63 C 164.55 44.99 161.24 46.06 158.01 47.35 C 154.03 46.07 149.88 44.83 145.65 45.25 C 141.81 45.35 137.97 46.87 134.11 46.29 C 129.93 44.70 126.75 41.30 122.80 39.25 L 122.94 38.57 C 123.71 32.72 122.68 26.82 122.74 20.96 L 122.82 20.23 Z" />
</g>
<g id="#4377cbff">
<path fill="#4377cb" opacity="1.00" d=" M 179.99 33.01 C 178.72 26.80 181.24 20.63 182.28 14.58 C 183.16 18.93 183.28 23.38 183.47 27.81 C 188.12 26.47 192.75 25.08 197.31 23.46 C 195.25 20.97 192.80 18.87 190.22 16.95 C 194.43 17.77 198.74 18.01 203.00 17.38 C 200.95 19.00 198.96 20.70 196.94 22.36 C 197.54 23.65 198.16 24.93 198.77 26.20 C 193.57 25.95 188.28 27.09 185.43 31.79 C 188.26 32.84 190.93 34.47 193.90 35.14 C 197.17 35.21 200.14 33.57 203.12 32.42 C 202.70 30.35 202.28 28.28 201.92 26.19 C 203.61 28.78 205.00 31.54 206.52 34.23 C 203.16 35.75 199.90 37.46 196.70 39.28 C 205.36 42.96 214.64 44.71 224.00 45.30 L 224.00 46.10 C 221.39 46.21 218.83 46.33 216.24 46.45 C 209.07 45.02 201.86 43.62 194.50 44.04 C 187.10 45.80 182.65 38.60 179.99 33.01 M 185.22 28.99 C 184.16 29.57 184.16 31.43 185.22 32.01 C 187.01 32.35 187.01 28.65 185.22 28.99 M 185.97 35.31 C 185.65 35.91 185.34 36.53 185.05 37.15 C 187.75 38.84 190.41 40.60 193.07 42.37 C 193.44 40.67 193.80 38.96 194.29 37.29 C 191.48 36.68 188.74 36.05 185.97 35.31 M 198.99 41.22 C 198.65 43.01 202.34 43.01 202.01 41.22 C 201.42 40.16 199.57 40.16 198.99 41.22 Z" />
</g>
<g id="#ecefa8ff">
<path fill="#ecefa8" opacity="1.00" d=" M 5.32 29.34 C 4.59 24.54 5.54 19.42 8.53 15.52 C 8.43 16.04 8.23 17.08 8.13 17.60 C 6.62 21.35 5.88 25.34 5.32 29.34 Z" />
</g>
<g id="#dcd78aff">
<path fill="#dcd78a" opacity="1.00" d=" M 59.37 18.47 C 60.36 18.05 62.34 17.22 63.32 16.81 C 62.88 17.90 62.51 19.02 62.21 20.17 C 61.55 23.17 60.83 26.23 61.13 29.33 C 61.91 37.12 67.31 43.21 72.36 48.71 C 77.16 55.10 85.39 52.28 92.07 52.54 C 92.03 51.81 91.94 50.33 91.90 49.60 C 91.10 49.64 89.49 49.72 88.68 49.77 C 90.33 49.34 91.96 48.84 93.59 48.38 C 94.35 49.91 95.14 51.42 95.94 52.93 L 96.13 53.30 C 94.49 53.69 93.23 54.86 92.02 55.96 C 89.19 55.96 86.37 55.96 83.55 56.00 L 76.67 56.00 C 75.95 55.58 75.22 55.16 74.50 54.75 C 72.90 53.00 71.39 51.17 69.74 49.48 C 65.58 45.77 61.94 41.54 58.98 36.83 C 58.93 38.45 58.86 40.08 58.85 41.71 C 58.33 40.04 57.68 38.41 57.17 36.74 C 57.57 32.58 57.95 28.42 58.37 24.27 C 58.64 22.33 58.86 20.36 59.37 18.47 M 64.27 41.54 C 63.13 42.41 64.59 44.38 65.73 43.46 C 66.87 42.58 65.41 40.62 64.27 41.54 Z" />
<path fill="#dcd78a" opacity="1.00" d=" M 171.38 18.47 C 172.36 18.05 174.33 17.22 175.32 16.80 C 174.88 17.90 174.51 19.02 174.21 20.17 C 173.55 23.17 172.83 26.23 173.13 29.33 C 173.91 37.12 179.31 43.21 184.36 48.71 C 189.16 55.10 197.39 52.28 204.07 52.54 C 204.03 51.81 203.94 50.35 203.89 49.62 C 203.09 49.66 201.49 49.74 200.69 49.78 C 202.29 49.34 203.87 48.81 205.46 48.31 C 206.29 49.75 207.13 51.19 207.99 52.61 L 207.84 53.01 C 206.50 53.89 205.26 54.90 204.06 55.96 C 201.20 55.95 198.39 55.96 195.55 56.00 L 188.67 56.00 C 187.94 55.58 187.22 55.16 186.50 54.75 C 184.90 53.00 183.40 51.17 181.74 49.48 C 177.57 45.77 173.95 41.54 170.99 36.83 C 170.92 38.44 170.84 40.05 170.82 41.67 C 170.39 39.82 170.02 37.94 169.89 36.04 C 169.89 32.11 169.97 28.18 170.32 24.26 C 170.58 22.31 170.85 20.36 171.38 18.47 M 176.27 41.54 C 175.13 42.41 176.59 44.38 177.73 43.46 C 178.87 42.58 177.41 40.62 176.27 41.54 Z" />
</g>
<g id="#4379caff">
<path fill="#4379ca" opacity="1.00" d=" M 97.91 20.26 C 101.37 19.56 104.82 18.84 108.28 18.14 C 105.47 19.68 102.63 21.17 99.85 22.76 C 102.57 26.88 107.33 28.02 112.08 27.38 C 112.05 27.63 111.99 28.12 111.96 28.37 C 110.08 29.73 108.01 30.87 106.42 32.59 C 105.18 35.65 109.12 37.38 110.72 39.40 C 105.81 38.10 100.89 36.81 96.15 34.95 C 96.47 34.02 96.78 33.09 97.09 32.16 C 99.34 33.19 101.60 34.20 103.88 35.19 C 105.01 29.39 100.31 25.06 97.91 20.26 Z" />
<path fill="#4379ca" opacity="1.00" d=" M 209.91 20.26 C 213.37 19.56 216.82 18.84 220.28 18.13 C 217.47 19.69 214.62 21.17 211.84 22.77 C 214.60 26.77 219.31 27.98 224.00 27.80 L 224.00 28.29 C 221.76 29.87 219.42 31.29 217.09 32.73 C 218.84 35.05 220.74 37.26 222.72 39.40 C 217.80 38.13 212.89 36.79 208.15 34.95 C 208.47 34.02 208.78 33.09 209.09 32.16 C 211.34 33.19 213.60 34.20 215.88 35.19 C 217.01 29.39 212.31 25.06 209.91 20.26 Z" />
<path fill="#4379ca" opacity="1.00" d=" M 41.91 21.26 C 45.37 20.56 48.82 19.84 52.28 19.14 C 49.47 20.68 46.63 22.17 43.85 23.77 C 46.54 27.75 51.16 29.04 55.85 28.42 C 55.83 28.67 55.80 29.18 55.79 29.43 C 53.93 30.98 51.32 32.00 50.19 34.22 C 49.90 37.02 53.17 38.48 54.72 40.40 C 49.81 39.10 44.89 37.81 40.15 35.95 C 40.47 35.02 40.78 34.09 41.09 33.16 C 43.34 34.19 45.60 35.20 47.88 36.19 C 49.01 30.39 44.31 26.06 41.91 21.26 Z" />
</g>
<g id="#eef1adff">
<path fill="#eef1ad" opacity="1.00" d=" M 61.13 29.33 C 60.83 26.23 61.55 23.17 62.21 20.17 C 61.72 23.20 61.41 26.27 61.13 29.33 Z" />
<path fill="#eef1ad" opacity="1.00" d=" M 173.13 29.33 C 172.83 26.23 173.55 23.17 174.21 20.17 C 173.72 23.20 173.40 26.27 173.13 29.33 Z" />
<path fill="#eef1ad" opacity="1.00" d=" M 7.70 40.88 C 8.90 41.58 10.11 42.29 11.28 43.05 C 12.40 44.59 13.50 46.15 14.58 47.72 L 14.89 48.47 L 14.57 49.66 C 12.26 46.75 9.95 43.83 7.70 40.88 Z" />
<path fill="#eef1ad" opacity="1.00" d=" M 119.43 41.56 C 120.12 41.62 121.48 41.75 122.17 41.82 C 123.74 43.93 125.32 46.06 126.98 48.11 C 124.44 45.95 121.93 43.76 119.43 41.56 Z" />
</g>
<g id="#eef2adff">
<path fill="#eef2ad" opacity="1.00" d=" M 117.21 24.12 C 116.71 22.75 116.57 21.07 117.74 19.99 C 118.97 21.21 118.16 23.02 117.21 24.12 Z" />
<path fill="#eef2ad" opacity="1.00" d=" M 5.52 31.27 C 7.56 31.37 8.54 33.83 6.97 35.21 C 6.22 34.02 5.58 32.70 5.52 31.27 Z" />
<path fill="#eef2ad" opacity="1.00" d=" M 116.05 31.08 C 117.85 31.55 118.55 33.78 117.18 35.11 C 116.20 34.03 115.66 32.52 116.05 31.08 Z" />
<path fill="#eef2ad" opacity="1.00" d=" M 64.27 41.54 C 65.41 40.62 66.87 42.58 65.73 43.46 C 64.59 44.38 63.13 42.41 64.27 41.54 Z" />
<path fill="#eef2ad" opacity="1.00" d=" M 176.27 41.54 C 177.41 40.62 178.87 42.58 177.73 43.46 C 176.59 44.38 175.13 42.41 176.27 41.54 Z" />
</g>
<g id="#b0ae6eff">
<path fill="#b0ae6e" opacity="1.00" d=" M 0.00 22.22 C 1.08 27.03 1.54 31.93 1.48 36.86 C 1.11 36.38 0.37 35.41 0.00 34.93 L 0.00 34.60 C 1.92 34.69 1.87 31.96 0.00 31.98 L 0.00 22.22 Z" />
<path fill="#b0ae6e" opacity="1.00" d=" M 56.14 22.89 C 56.70 23.23 57.82 23.92 58.37 24.27 C 57.95 28.42 57.57 32.58 57.17 36.74 C 57.07 36.41 56.85 35.75 56.75 35.42 L 56.56 34.75 C 57.82 33.88 57.42 31.89 55.79 31.88 C 55.79 31.26 55.79 30.04 55.79 29.43 C 55.80 29.18 55.83 28.67 55.85 28.42 C 55.95 26.58 56.04 24.73 56.14 22.89 Z" />
<path fill="#b0ae6e" opacity="1.00" d=" M 168.10 22.96 C 168.65 23.29 169.76 23.94 170.32 24.26 C 169.97 28.18 169.89 32.11 169.89 36.04 C 169.42 36.00 168.50 35.92 168.04 35.88 L 168.04 34.98 C 169.63 34.52 169.51 32.28 167.84 32.07 C 167.80 30.48 167.79 28.89 167.79 27.30 C 167.81 27.07 167.84 26.59 167.86 26.36 C 167.92 25.51 168.04 23.81 168.10 22.96 Z" />
</g>
<g id="#adaa6aff">
<path fill="#adaa6a" opacity="1.00" d=" M 112.60 22.63 C 113.81 27.77 114.54 33.08 113.53 38.33 C 113.27 37.66 112.73 36.33 112.46 35.67 L 112.21 34.89 C 113.70 34.27 113.39 32.13 111.75 32.01 C 111.81 31.10 111.91 29.28 111.96 28.37 C 111.99 28.12 112.05 27.63 112.08 27.38 C 112.28 25.80 112.45 24.22 112.60 22.63 Z" />
</g>
<g id="#596753ff">
<path fill="#596753" opacity="1.00" d=" M 0.00 31.98 C 1.87 31.96 1.92 34.69 0.00 34.60 L 0.00 31.98 Z" />
<path fill="#596753" opacity="1.00" d=" M 55.79 31.88 C 57.42 31.89 57.82 33.88 56.56 34.75 C 56.37 34.03 55.98 32.59 55.79 31.88 Z" />
<path fill="#596753" opacity="1.00" d=" M 111.75 32.01 C 113.39 32.13 113.70 34.27 112.21 34.89 C 112.09 34.17 111.87 32.73 111.75 32.01 Z" />
<path fill="#596753" opacity="1.00" d=" M 167.84 32.07 C 169.51 32.28 169.63 34.52 168.04 34.98 C 167.99 34.26 167.89 32.80 167.84 32.07 Z" />
</g>
<g id="#87ae5fff">
<path fill="#87ae5f" opacity="1.00" d=" M 0.00 34.93 C 0.37 35.41 1.11 36.38 1.48 36.86 C 1.94 38.47 2.42 40.07 2.87 41.68 C 3.07 42.52 3.28 43.37 3.49 44.22 C 3.73 45.78 4.58 46.38 6.05 46.02 C 6.96 47.88 8.01 49.68 9.23 51.35 C 11.92 53.00 14.89 54.13 17.88 55.10 C 18.90 55.42 19.92 55.72 20.95 56.00 L 6.68 56.00 C 5.19 55.29 3.71 54.53 2.23 53.79 C 3.42 52.23 4.61 50.66 5.76 49.07 C 3.87 49.50 1.95 49.87 0.00 49.98 L 0.00 34.93 M 7.27 52.54 C 6.13 53.41 7.59 55.38 8.73 54.46 C 9.87 53.58 8.41 51.62 7.27 52.54 Z" />
<path fill="#87ae5f" opacity="1.00" d=" M 56.75 35.42 C 56.85 35.75 57.07 36.41 57.17 36.74 C 57.68 38.41 58.33 40.04 58.85 41.71 C 59.07 42.54 59.29 43.37 59.52 44.20 C 59.76 45.76 60.62 46.36 62.08 46.02 C 62.95 47.92 63.99 49.73 65.19 51.44 C 68.10 53.04 71.35 53.81 74.50 54.75 C 75.22 55.16 75.95 55.58 76.67 56.00 L 62.92 56.00 C 61.35 55.29 59.80 54.54 58.24 53.81 C 59.43 52.22 60.61 50.61 61.77 49.00 C 59.81 49.44 57.83 49.74 55.83 49.87 C 55.89 49.04 56.03 47.37 56.09 46.54 C 56.32 42.83 56.61 39.13 56.75 35.42 M 63.27 52.54 C 62.13 53.41 63.59 55.38 64.73 54.46 C 65.87 53.58 64.41 51.62 63.27 52.54 Z" />
<path fill="#87ae5f" opacity="1.00" d=" M 168.04 35.88 C 168.50 35.92 169.42 36.00 169.89 36.04 C 170.02 37.94 170.39 39.82 170.82 41.67 C 171.00 42.54 171.20 43.40 171.42 44.26 C 171.68 45.81 172.54 46.39 174.02 46.00 C 174.94 47.89 175.98 49.72 177.20 51.44 C 180.10 53.03 183.35 53.82 186.50 54.75 C 187.22 55.16 187.94 55.58 188.67 56.00 L 174.92 56.00 C 173.35 55.29 171.80 54.54 170.24 53.81 C 171.43 52.22 172.61 50.61 173.78 48.99 C 171.85 49.44 169.90 49.73 167.92 49.82 C 168.00 48.09 168.03 46.36 168.02 44.63 L 168.01 44.00 C 168.00 41.29 168.01 38.58 168.04 35.88 M 175.27 52.54 C 174.13 53.41 175.59 55.38 176.73 54.46 C 177.87 53.58 176.41 51.62 175.27 52.54 Z" />
</g>
<g id="#40cdbdff">
<path fill="#40cdbd" opacity="1.00" d=" M 10.75 36.02 C 13.31 39.47 16.01 43.25 20.15 44.89 C 24.75 46.45 29.65 45.23 34.00 43.52 C 35.47 44.35 36.94 45.20 38.44 45.98 C 31.99 46.46 25.16 48.29 18.77 46.37 C 14.16 45.07 12.57 39.95 10.75 36.02 Z" />
</g>
<g id="#87af60ff">
<path fill="#87af60" opacity="1.00" d=" M 112.46 35.67 C 112.73 36.33 113.27 37.66 113.53 38.33 C 114.00 39.46 114.48 40.60 114.93 41.75 C 115.10 42.58 115.27 43.41 115.44 44.24 C 115.66 45.55 116.48 46.22 117.89 46.24 C 118.97 47.97 120.08 49.70 121.33 51.32 C 125.03 53.25 128.91 54.84 132.92 56.00 L 118.92 56.00 C 117.35 55.29 115.80 54.54 114.24 53.81 C 115.42 52.23 116.60 50.65 117.76 49.05 C 115.77 49.45 113.76 49.70 111.73 49.78 C 111.83 48.82 112.03 46.90 112.13 45.94 L 112.22 44.94 C 112.38 41.85 112.44 38.76 112.46 35.67 M 119.27 52.54 C 118.13 53.41 119.59 55.38 120.73 54.46 C 121.87 53.58 120.41 51.62 119.27 52.54 Z" />
</g>
<g id="#37c5bfff">
<path fill="#37c5bf" opacity="1.00" d=" M 120.42 36.14 C 121.79 36.36 122.63 37.17 122.94 38.57 L 122.80 39.25 C 121.59 38.67 120.26 37.66 120.42 36.14 Z" />
</g>
<g id="#a29d6aff">
<path fill="#a29d6a" opacity="1.00" d=" M 3.01 36.80 C 5.93 41.85 9.79 46.25 14.57 49.66 C 14.41 50.22 14.09 51.34 13.94 51.91 C 12.37 51.73 10.80 51.54 9.23 51.35 C 8.01 49.68 6.96 47.88 6.05 46.02 C 5.62 44.82 4.77 44.22 3.49 44.22 C 3.28 43.37 3.07 42.52 2.87 41.68 C 2.87 40.05 2.95 38.42 3.01 36.80 Z" />
<path fill="#a29d6a" opacity="1.00" d=" M 58.98 36.83 C 61.94 41.54 65.58 45.77 69.74 49.48 C 69.78 50.06 69.86 51.23 69.90 51.82 C 68.33 51.70 66.76 51.57 65.19 51.44 C 63.99 49.73 62.95 47.92 62.08 46.02 C 61.67 44.81 60.81 44.20 59.52 44.20 C 59.29 43.37 59.07 42.54 58.85 41.71 C 58.86 40.08 58.93 38.45 58.98 36.83 Z" />
<path fill="#a29d6a" opacity="1.00" d=" M 115.01 36.77 C 118.39 42.10 122.45 46.94 126.55 51.74 C 124.81 51.59 123.07 51.46 121.33 51.32 C 120.08 49.70 118.97 47.97 117.89 46.24 C 117.64 44.74 116.82 44.08 115.44 44.24 C 115.27 43.41 115.10 42.58 114.93 41.75 C 114.91 40.09 114.96 38.43 115.01 36.77 Z" />
<path fill="#a29d6a" opacity="1.00" d=" M 170.99 36.83 C 173.95 41.54 177.57 45.77 181.74 49.48 C 181.78 50.07 181.86 51.23 181.90 51.82 C 180.33 51.70 178.76 51.57 177.20 51.44 C 175.98 49.72 174.94 47.89 174.02 46.00 C 173.57 44.82 172.71 44.24 171.42 44.26 C 171.20 43.40 171.00 42.54 170.82 41.67 C 170.84 40.05 170.92 38.44 170.99 36.83 Z" />
</g>
<g id="#1caac1fe">
<path fill="#1caac1" opacity="1.00" d=" M 122.80 39.25 C 126.75 41.30 129.93 44.70 134.11 46.29 C 137.97 46.87 141.81 45.35 145.65 45.25 C 149.88 44.83 154.03 46.07 158.01 47.35 C 157.52 47.50 156.53 47.81 156.04 47.97 C 155.25 48.05 154.46 48.10 153.66 48.13 C 147.29 47.99 140.95 48.45 134.63 49.21 C 132.09 48.48 129.52 47.40 127.72 45.39 C 126.19 43.55 124.72 41.67 123.23 39.79 L 122.80 39.25 Z" />
</g>
<g id="#47ccbbff">
<path fill="#47ccbb" opacity="1.00" d=" M 123.23 39.79 C 124.72 41.67 126.19 43.55 127.72 45.39 C 126.05 43.67 124.66 41.71 123.23 39.79 Z" />
</g>
<g id="#1aa9c2ff">
<path fill="#1aa9c2" opacity="1.00" d=" M 198.99 41.22 C 199.57 40.16 201.42 40.16 202.01 41.22 C 202.34 43.01 198.65 43.01 198.99 41.22 Z" />
</g>
<g id="#60574aff">
<path fill="#60574a" opacity="1.00" d=" M 3.49 44.22 C 4.77 44.22 5.62 44.82 6.05 46.02 C 4.58 46.38 3.73 45.78 3.49 44.22 Z" />
<path fill="#60574a" opacity="1.00" d=" M 59.52 44.20 C 60.81 44.20 61.67 44.81 62.08 46.02 C 60.62 46.36 59.76 45.76 59.52 44.20 Z" />
<path fill="#60574a" opacity="1.00" d=" M 115.44 44.24 C 116.82 44.08 117.64 44.74 117.89 46.24 C 116.48 46.22 115.66 45.55 115.44 44.24 Z" />
<path fill="#60574a" opacity="1.00" d=" M 171.42 44.26 C 172.71 44.24 173.57 44.82 174.02 46.00 C 172.54 46.39 171.68 45.81 171.42 44.26 Z" />
</g>
<g id="#3c6dbfff">
<path fill="#3c6dbf" opacity="1.00" d=" M 158.01 47.35 C 161.24 46.06 164.55 44.99 168.02 44.63 C 168.03 46.36 168.00 48.09 167.92 49.82 C 167.86 50.05 167.74 50.51 167.68 50.74 C 164.70 50.62 161.75 50.36 158.78 50.50 C 157.86 49.65 156.95 48.81 156.04 47.97 C 156.53 47.81 157.52 47.50 158.01 47.35 Z" />
<path fill="#3c6dbf" opacity="1.00" d=" M 100.82 47.72 C 104.62 47.33 108.38 46.68 112.13 45.94 C 112.03 46.90 111.83 48.82 111.73 49.78 C 111.69 50.02 111.61 50.49 111.57 50.72 C 108.63 50.63 105.70 50.38 102.76 50.55 C 102.28 49.84 101.31 48.43 100.82 47.72 Z" />
<path fill="#3c6dbf" opacity="1.00" d=" M 216.24 46.45 C 218.83 46.33 221.39 46.21 224.00 46.10 L 224.00 50.81 C 220.90 50.68 217.84 50.38 214.75 50.48 C 213.84 49.44 212.95 48.41 212.05 47.37 C 213.44 47.03 214.83 46.73 216.24 46.45 Z" />
</g>
<g id="#41cfbeff">
<path fill="#41cfbe" opacity="1.00" d=" M 39.27 45.89 C 40.56 45.36 41.98 45.75 42.89 46.78 C 42.11 46.83 40.55 46.91 39.77 46.95 L 38.98 46.59 L 39.27 45.89 Z" />
</g>
<g id="#4575cbff">
<path fill="#4575cb" opacity="1.00" d=" M 37.99 47.90 C 38.24 47.57 38.73 46.92 38.98 46.59 L 39.77 46.95 C 40.13 47.22 40.85 47.75 41.20 48.02 L 41.06 48.61 C 39.95 48.77 38.93 48.54 37.99 47.90 Z" />
</g>
<g id="#353533ff">
<path fill="#353533" opacity="1.00" d=" M 39.77 46.95 C 40.55 46.91 42.11 46.83 42.89 46.78 L 43.51 47.27 C 46.89 50.13 51.40 50.79 55.63 51.33 L 55.24 51.49 C 54.28 51.83 53.31 52.15 52.33 52.45 L 51.29 52.76 C 50.63 52.50 49.32 51.96 48.66 51.69 C 47.91 51.66 47.16 51.65 46.41 51.63 C 46.03 51.62 45.27 51.58 44.89 51.57 C 44.95 50.22 44.25 49.44 42.81 49.21 C 42.41 48.91 41.60 48.32 41.20 48.02 C 40.85 47.75 40.13 47.22 39.77 46.95 Z" />
</g>
<g id="#a0e0a2ff">
<path fill="#a0e0a2" opacity="1.00" d=" M 82.66 50.10 C 86.27 49.22 89.82 47.98 93.53 47.58 C 93.97 47.66 94.86 47.83 95.31 47.92 C 94.88 48.03 94.02 48.26 93.59 48.38 C 91.96 48.84 90.33 49.34 88.68 49.77 C 86.68 49.92 84.67 50.02 82.66 50.10 Z" />
<path fill="#a0e0a2" opacity="1.00" d=" M 194.66 50.10 C 198.31 49.23 201.91 48.04 205.66 47.61 C 206.07 47.65 206.88 47.72 207.29 47.76 C 206.83 47.89 205.92 48.17 205.46 48.31 C 203.87 48.81 202.29 49.34 200.69 49.78 C 198.68 49.94 196.67 50.03 194.66 50.10 Z" />
<path fill="#a0e0a2" opacity="1.00" d=" M 141.80 50.33 C 144.68 49.89 147.59 49.30 150.54 49.38 C 148.68 49.62 146.83 49.87 144.96 50.06 C 143.91 50.16 142.85 50.25 141.80 50.33 Z" />
</g>
<g id="#475046ff">
<path fill="#475046" opacity="1.00" d=" M 209.63 47.97 C 210.43 47.77 211.23 47.56 212.05 47.37 C 212.95 48.41 213.84 49.44 214.75 50.48 C 214.53 50.79 214.09 51.39 213.87 51.70 C 213.68 51.97 213.30 52.53 213.11 52.80 L 212.62 53.26 L 212.23 53.61 C 210.98 53.09 209.58 53.10 208.40 53.79 L 208.16 53.47 L 207.84 53.01 L 207.99 52.61 C 208.57 51.08 209.11 49.53 209.63 47.97 M 211.15 49.40 C 210.30 53.38 215.14 48.58 211.15 49.40 Z" />
</g>
<g id="#67965dff">
<path fill="#67965d" opacity="1.00" d=" M 0.00 49.98 C 1.95 49.87 3.87 49.50 5.76 49.07 C 4.61 50.66 3.42 52.23 2.23 53.79 C 3.71 54.53 5.19 55.29 6.68 56.00 L 3.68 56.00 C 2.97 54.71 1.07 53.84 0.00 55.28 L 0.00 49.98 Z" />
</g>
<g id="#dbd689ff">
<path fill="#dbd689" opacity="1.00" d=" M 14.58 47.72 C 14.96 48.00 15.73 48.56 16.11 48.84 C 18.79 50.77 21.63 52.97 25.10 52.97 C 28.76 52.96 32.40 52.38 36.07 52.52 C 36.00 51.22 35.94 49.92 35.88 48.62 C 35.09 48.69 33.52 48.82 32.73 48.89 C 34.21 48.64 35.69 48.35 37.16 48.06 C 38.08 49.69 39.02 51.30 40.00 52.90 L 40.21 53.25 C 38.58 53.72 37.29 54.86 36.05 55.96 C 33.22 55.95 30.39 55.96 27.56 56.00 L 20.95 56.00 C 19.92 55.72 18.90 55.42 17.88 55.10 C 16.91 52.88 15.88 50.69 14.89 48.47 L 14.58 47.72 Z" />
</g>
<g id="#edf1abfe">
<path fill="#edf1ab" opacity="1.00" d=" M 16.11 48.84 C 21.63 49.37 27.22 49.65 32.73 48.89 C 33.52 48.82 35.09 48.69 35.88 48.62 C 35.94 49.92 36.00 51.22 36.07 52.52 C 32.40 52.38 28.76 52.96 25.10 52.97 C 21.63 52.97 18.79 50.77 16.11 48.84 Z" />
</g>
<g id="#b6ad6fff">
<path fill="#b6ad6f" opacity="1.00" d=" M 37.16 48.06 L 37.99 47.90 C 38.93 48.54 39.95 48.77 41.06 48.61 C 40.70 50.04 40.33 51.46 40.00 52.90 C 39.02 51.30 38.08 49.69 37.16 48.06 Z" />
<path fill="#b6ad6f" opacity="1.00" d=" M 93.59 48.38 C 94.02 48.26 94.88 48.03 95.31 47.92 C 95.88 48.04 97.03 48.30 97.61 48.43 C 97.06 49.93 96.48 51.42 95.94 52.93 C 95.14 51.42 94.35 49.91 93.59 48.38 Z" />
<path fill="#b6ad6f" opacity="1.00" d=" M 205.46 48.31 C 205.92 48.17 206.83 47.89 207.29 47.76 C 207.87 47.81 209.04 47.92 209.63 47.97 C 209.11 49.53 208.57 51.08 207.99 52.61 C 207.13 51.19 206.29 49.75 205.46 48.31 Z" />
<path fill="#b6ad6f" opacity="1.00" d=" M 150.54 49.38 C 151.23 49.27 152.62 49.06 153.31 48.95 C 152.83 50.22 152.38 51.50 151.97 52.80 C 151.48 51.66 151.00 50.52 150.54 49.38 Z" />
</g>
<g id="#4b5845ff">
<path fill="#4b5845" opacity="1.00" d=" M 41.20 48.02 C 41.60 48.32 42.41 48.91 42.81 49.21 C 42.85 50.70 43.54 51.48 44.89 51.57 C 45.27 51.58 46.03 51.62 46.41 51.63 C 46.11 51.93 45.51 52.51 45.21 52.80 L 44.71 53.29 L 44.14 53.83 C 43.22 52.69 41.65 53.18 40.56 53.75 L 40.47 53.64 L 40.21 53.25 L 40.00 52.90 C 40.33 51.46 40.70 50.04 41.06 48.61 L 41.20 48.02 Z" />
</g>
<g id="#69985cff">
<path fill="#69985c" opacity="1.00" d=" M 55.83 49.87 C 57.83 49.74 59.81 49.44 61.77 49.00 C 60.61 50.61 59.43 52.22 58.24 53.81 C 59.80 54.54 61.35 55.29 62.92 56.00 L 60.25 56.00 L 59.98 55.04 L 55.19 55.05 L 54.93 56.00 L 50.44 56.00 C 51.11 54.83 51.71 53.64 52.33 52.45 C 53.31 52.15 54.28 51.83 55.24 51.49 L 55.63 51.33 C 55.68 50.97 55.78 50.24 55.83 49.87 Z" />
<path fill="#69985c" opacity="1.00" d=" M 111.73 49.78 C 113.76 49.70 115.77 49.45 117.76 49.05 C 116.60 50.65 115.42 52.23 114.24 53.81 C 115.80 54.54 117.35 55.29 118.92 56.00 L 116.25 56.00 L 115.98 55.04 L 111.19 55.05 L 110.93 56.00 L 106.45 56.00 C 107.10 54.83 107.71 53.64 108.32 52.44 C 109.37 52.05 110.41 51.65 111.45 51.22 L 111.57 50.72 C 111.61 50.49 111.69 50.02 111.73 49.78 Z" />
<path fill="#69985c" opacity="1.00" d=" M 167.92 49.82 C 169.90 49.73 171.85 49.44 173.78 48.99 C 172.61 50.61 171.43 52.22 170.24 53.81 C 171.80 54.54 173.35 55.29 174.92 56.00 L 172.25 56.00 L 171.98 55.04 L 167.19 55.05 L 166.93 56.00 L 162.44 56.00 C 163.10 54.83 163.71 53.64 164.32 52.45 C 165.37 52.05 166.42 51.64 167.47 51.21 L 167.68 50.74 C 167.74 50.51 167.86 50.05 167.92 49.82 Z" />
</g>
<g id="#edf1acff">
<path fill="#edf1ac" opacity="1.00" d=" M 72.36 48.71 C 75.45 49.63 78.65 50.24 81.88 50.13 L 82.66 50.10 C 84.67 50.02 86.68 49.92 88.68 49.77 C 89.49 49.72 91.10 49.64 91.90 49.60 C 91.94 50.33 92.03 51.81 92.07 52.54 C 85.39 52.28 77.16 55.10 72.36 48.71 Z" />
<path fill="#edf1ac" opacity="1.00" d=" M 184.36 48.71 C 187.45 49.63 190.65 50.22 193.88 50.13 L 194.66 50.10 C 196.67 50.03 198.68 49.94 200.69 49.78 C 201.49 49.74 203.09 49.66 203.89 49.62 C 203.94 50.35 204.03 51.81 204.07 52.54 C 197.39 52.28 189.16 55.10 184.36 48.71 Z" />
</g>
<g id="#485247ff">
<path fill="#485247" opacity="1.00" d=" M 97.61 48.43 C 97.65 48.32 97.73 48.11 97.77 48.01 C 98.53 47.94 100.06 47.79 100.82 47.72 C 101.31 48.43 102.28 49.84 102.76 50.55 C 102.55 50.82 102.14 51.36 101.93 51.63 C 101.72 51.92 101.30 52.49 101.09 52.78 L 100.61 53.24 L 100.25 53.60 C 99.01 53.09 97.63 53.12 96.49 53.85 L 96.39 53.70 L 96.13 53.30 L 95.94 52.93 C 96.48 51.42 97.06 49.93 97.61 48.43 M 99.15 49.40 C 98.30 53.38 103.14 48.58 99.15 49.40 Z" />
</g>
<g id="#505e44ff">
<path fill="#505e44" opacity="1.00" d=" M 153.66 48.13 C 154.46 48.10 155.25 48.05 156.04 47.97 C 156.95 48.81 157.86 49.65 158.78 50.50 C 158.56 50.77 158.13 51.32 157.92 51.60 C 157.70 51.90 157.26 52.49 157.04 52.78 L 156.54 53.23 L 156.12 53.58 C 154.96 53.22 153.36 52.84 152.53 54.04 L 152.39 53.76 L 152.18 53.30 L 151.97 52.80 C 152.38 51.50 152.83 50.22 153.31 48.95 L 153.66 48.13 Z" />
</g>
<g id="#ccc887ff">
<path fill="#ccc887" opacity="1.00" d=" M 14.57 49.66 L 14.89 48.47 C 15.88 50.69 16.91 52.88 17.88 55.10 C 14.89 54.13 11.92 53.00 9.23 51.35 C 10.80 51.54 12.37 51.73 13.94 51.91 C 14.09 51.34 14.41 50.22 14.57 49.66 Z" />
<path fill="#ccc887" opacity="1.00" d=" M 69.74 49.48 C 71.39 51.17 72.90 53.00 74.50 54.75 C 71.35 53.81 68.10 53.04 65.19 51.44 C 66.76 51.57 68.33 51.70 69.90 51.82 C 69.86 51.23 69.78 50.06 69.74 49.48 Z" />
<path fill="#ccc887" opacity="1.00" d=" M 181.74 49.48 C 183.40 51.17 184.90 53.00 186.50 54.75 C 183.35 53.82 180.10 53.03 177.20 51.44 C 178.76 51.57 180.33 51.70 181.90 51.82 C 181.86 51.23 181.78 50.07 181.74 49.48 Z" />
</g>
<g id="#34322cff">
<path fill="#34322c" opacity="1.00" d=" M 102.76 50.55 C 105.70 50.38 108.63 50.63 111.57 50.72 L 111.45 51.22 C 110.41 51.65 109.37 52.05 108.32 52.44 L 107.31 52.81 C 106.65 52.54 105.32 52.02 104.66 51.75 C 103.75 51.71 102.84 51.67 101.93 51.63 C 102.14 51.36 102.55 50.82 102.76 50.55 Z" />
<path fill="#34322c" opacity="1.00" d=" M 158.78 50.50 C 161.75 50.36 164.70 50.62 167.68 50.74 L 167.47 51.21 C 166.42 51.64 165.37 52.05 164.32 52.45 L 163.31 52.82 C 162.65 52.55 161.33 52.01 160.67 51.75 C 159.75 51.70 158.83 51.65 157.92 51.60 C 158.13 51.32 158.56 50.77 158.78 50.50 Z" />
<path fill="#34322c" opacity="1.00" d=" M 214.75 50.48 C 217.84 50.38 220.90 50.68 224.00 50.81 L 224.00 51.96 C 222.77 52.07 221.54 52.17 220.32 52.28 L 219.24 52.37 C 218.56 52.18 217.22 51.81 216.55 51.63 C 215.65 51.65 214.76 51.67 213.87 51.70 C 214.09 51.39 214.53 50.79 214.75 50.48 Z" />
</g>
<g id="#eef2acff">
<path fill="#eef2ac" opacity="1.00" d=" M 148.38 52.52 C 142.07 52.95 134.75 54.87 129.52 50.11 C 132.91 50.58 136.33 50.64 139.75 50.47 C 140.26 50.43 141.28 50.36 141.80 50.33 C 142.85 50.25 143.91 50.16 144.96 50.06 C 146.10 50.88 147.24 51.70 148.38 52.52 Z" />
</g>
<g id="#85ae5cff">
<path fill="#85ae5c" opacity="1.00" d=" M 46.41 51.63 C 47.16 51.65 47.91 51.66 48.66 51.69 C 47.91 53.44 50.35 53.64 51.29 52.76 L 52.33 52.45 C 51.71 53.64 51.11 54.83 50.44 56.00 L 45.83 56.00 C 46.07 54.87 45.86 53.80 45.21 52.80 C 45.51 52.51 46.11 51.93 46.41 51.63 Z" />
<path fill="#85ae5c" opacity="1.00" d=" M 101.93 51.63 C 102.84 51.67 103.75 51.71 104.66 51.75 C 103.93 53.49 106.38 53.70 107.31 52.81 L 108.32 52.44 C 107.71 53.64 107.10 54.83 106.45 56.00 L 101.81 56.00 C 102.01 54.85 101.77 53.77 101.09 52.78 C 101.30 52.49 101.72 51.92 101.93 51.63 Z" />
<path fill="#85ae5c" opacity="1.00" d=" M 157.92 51.60 C 158.83 51.65 159.75 51.70 160.67 51.75 C 159.93 53.48 162.37 53.71 163.31 52.82 L 164.32 52.45 C 163.71 53.64 163.10 54.83 162.44 56.00 L 157.77 56.00 C 157.95 54.85 157.71 53.78 157.04 52.78 C 157.26 52.49 157.70 51.90 157.92 51.60 Z" />
<path fill="#85ae5c" opacity="1.00" d=" M 213.87 51.70 C 214.76 51.67 215.65 51.65 216.55 51.63 C 215.93 53.46 218.45 53.46 219.24 52.37 L 220.32 52.28 C 219.72 53.53 219.13 54.78 218.48 56.00 L 213.81 56.00 C 214.02 54.86 213.78 53.79 213.11 52.80 C 213.30 52.53 213.68 51.97 213.87 51.70 Z" />
</g>
<g id="#639462ff">
<path fill="#639462" opacity="1.00" d=" M 7.27 52.54 C 8.41 51.62 9.87 53.58 8.73 54.46 C 7.59 55.38 6.13 53.41 7.27 52.54 Z" />
<path fill="#639462" opacity="1.00" d=" M 63.27 52.54 C 64.41 51.62 65.87 53.58 64.73 54.46 C 63.59 55.38 62.13 53.41 63.27 52.54 Z" />
<path fill="#639462" opacity="1.00" d=" M 119.27 52.54 C 120.41 51.62 121.87 53.58 120.73 54.46 C 119.59 55.38 118.13 53.41 119.27 52.54 Z" />
<path fill="#639462" opacity="1.00" d=" M 175.27 52.54 C 176.41 51.62 177.87 53.58 176.73 54.46 C 175.59 55.38 174.13 53.41 175.27 52.54 Z" />
</g>
<g id="#4b7650ff">
<path fill="#4b7650" opacity="1.00" d=" M 48.66 51.69 C 49.32 51.96 50.63 52.50 51.29 52.76 C 50.35 53.64 47.91 53.44 48.66 51.69 Z" />
<path fill="#4b7650" opacity="1.00" d=" M 104.66 51.75 C 105.32 52.02 106.65 52.54 107.31 52.81 C 106.38 53.70 103.93 53.49 104.66 51.75 Z" />
<path fill="#4b7650" opacity="1.00" d=" M 160.67 51.75 C 161.33 52.01 162.65 52.55 163.31 52.82 C 162.37 53.71 159.93 53.48 160.67 51.75 Z" />
<path fill="#4b7650" opacity="1.00" d=" M 216.55 51.63 C 217.22 51.81 218.56 52.18 219.24 52.37 C 218.45 53.46 215.93 53.46 216.55 51.63 Z" />
</g>
<g id="#6f9c5cff">
<path fill="#6f9c5c" opacity="1.00" d=" M 220.32 52.28 C 221.54 52.17 222.77 52.07 224.00 51.96 L 224.00 56.00 L 218.48 56.00 C 219.13 54.78 219.72 53.53 220.32 52.28 Z" />
</g>
<g id="#5f9368ff">
<path fill="#5f9368" opacity="1.00" d=" M 36.05 55.96 C 37.29 54.86 38.58 53.72 40.21 53.25 L 40.47 53.64 C 40.13 54.23 39.45 55.41 39.11 56.00 L 36.49 56.00 L 36.05 55.96 Z" />
<path fill="#5f9368" opacity="1.00" d=" M 40.56 53.75 C 41.65 53.18 43.22 52.69 44.14 53.83 C 43.33 55.09 41.26 55.16 40.56 53.75 Z" />
<path fill="#5f9368" opacity="1.00" d=" M 45.21 52.80 C 45.86 53.80 46.07 54.87 45.83 56.00 L 44.45 56.00 C 44.52 55.32 44.64 53.97 44.71 53.29 L 45.21 52.80 Z" />
<path fill="#5f9368" opacity="1.00" d=" M 92.02 55.96 C 93.23 54.86 94.49 53.69 96.13 53.30 L 96.39 53.70 C 96.06 54.28 95.40 55.43 95.08 56.00 L 92.47 56.00 L 92.02 55.96 Z" />
<path fill="#5f9368" opacity="1.00" d=" M 96.49 53.85 C 97.63 53.12 99.01 53.09 100.25 53.60 C 99.44 54.85 97.24 55.54 96.49 53.85 Z" />
<path fill="#5f9368" opacity="1.00" d=" M 101.09 52.78 C 101.77 53.77 102.01 54.85 101.81 56.00 L 100.45 56.00 C 100.49 55.31 100.57 53.93 100.61 53.24 L 101.09 52.78 Z" />
<path fill="#5f9368" opacity="1.00" d=" M 148.02 55.96 C 149.24 54.84 150.50 53.65 152.18 53.30 L 152.39 53.76 C 152.06 54.32 151.40 55.44 151.07 56.00 L 148.46 56.00 L 148.02 55.96 Z" />
<path fill="#5f9368" opacity="1.00" d=" M 152.53 54.04 C 153.36 52.84 154.96 53.22 156.12 53.58 C 155.34 54.55 153.14 55.83 152.53 54.04 Z" />
<path fill="#5f9368" opacity="1.00" d=" M 157.04 52.78 C 157.71 53.78 157.95 54.85 157.77 56.00 L 156.43 56.00 C 156.45 55.31 156.51 53.92 156.54 53.23 L 157.04 52.78 Z" />
<path fill="#5f9368" opacity="1.00" d=" M 204.06 55.96 C 205.26 54.90 206.50 53.89 207.84 53.01 L 208.16 53.47 C 207.91 54.10 207.43 55.37 207.18 56.00 L 204.51 56.00 L 204.06 55.96 Z" />
<path fill="#5f9368" opacity="1.00" d=" M 208.40 53.79 C 209.58 53.10 210.98 53.09 212.23 53.61 C 211.37 54.87 209.19 55.43 208.40 53.79 Z" />
<path fill="#5f9368" opacity="1.00" d=" M 213.11 52.80 C 213.78 53.79 214.02 54.86 213.81 56.00 L 212.44 56.00 C 212.49 55.31 212.58 53.94 212.62 53.26 L 213.11 52.80 Z" />
</g>
<g id="#8fb966ff">
<path fill="#8fb966" opacity="1.00" d=" M 0.00 55.28 C 1.07 53.84 2.97 54.71 3.68 56.00 L 0.00 56.00 L 0.00 55.28 Z" />
</g>
<g id="#aaad6aff">
<path fill="#aaad6a" opacity="1.00" d=" M 27.56 56.00 C 30.39 55.96 33.22 55.95 36.05 55.96 L 36.49 56.00 L 27.56 56.00 Z" />
<path fill="#aaad6a" opacity="1.00" d=" M 83.55 56.00 C 86.37 55.96 89.19 55.96 92.02 55.96 L 92.47 56.00 L 83.55 56.00 Z" />
<path fill="#aaad6a" opacity="1.00" d=" M 139.56 56.00 C 142.38 55.96 145.19 55.96 148.02 55.96 L 148.46 56.00 L 139.56 56.00 Z" />
<path fill="#aaad6a" opacity="1.00" d=" M 195.55 56.00 C 198.39 55.96 201.20 55.95 204.06 55.96 L 204.51 56.00 L 195.55 56.00 Z" />
</g>
<g id="#8db764ff">
<path fill="#8db764" opacity="1.00" d=" M 55.19 55.05 L 59.98 55.04 L 60.25 56.00 L 54.93 56.00 L 55.19 55.05 Z" />
<path fill="#8db764" opacity="1.00" d=" M 111.19 55.05 L 115.98 55.04 L 116.25 56.00 L 110.93 56.00 L 111.19 55.05 Z" />
<path fill="#8db764" opacity="1.00" d=" M 167.19 55.05 L 171.98 55.04 L 172.25 56.00 L 166.93 56.00 L 167.19 55.05 Z" />
</g>
</svg>
