<?xml version="1.0" encoding="UTF-8" ?>
<!DOCTYPE svg PUBLIC "-//W3C//DTD SVG 1.1//EN" "http://www.w3.org/Graphics/SVG/1.1/DTD/svg11.dtd">
<svg width="224pt" height="56pt" viewBox="0 0 224 56" version="1.1" xmlns="http://www.w3.org/2000/svg">
<g id="#3c6bbeff">
<path fill="#3c6bbe" opacity="1.00" d=" M 0.00 0.00 L 31.80 0.00 C 32.68 1.31 33.48 2.68 34.28 4.04 C 29.87 6.55 26.80 10.73 27.44 16.01 C 27.97 15.85 29.05 15.53 29.58 15.37 C 30.50 10.67 33.65 7.01 39.14 7.53 L 39.66 7.98 C 40.44 8.68 41.23 9.38 42.03 10.07 C 41.87 11.63 41.57 14.74 41.42 16.30 L 41.35 16.94 C 41.43 18.38 41.66 19.80 41.87 21.23 C 41.81 21.58 41.68 22.29 41.62 22.65 C 41.13 25.92 41.41 29.23 41.72 32.50 C 41.77 32.95 41.87 33.85 41.93 34.30 C 40.87 34.54 39.86 34.92 38.91 35.43 C 36.69 32.88 34.83 30.04 32.69 27.42 C 33.20 29.45 33.73 31.48 34.26 33.50 C 29.67 36.03 24.41 35.90 19.84 33.41 C 19.85 32.47 19.88 30.60 19.89 29.66 C 23.58 27.86 27.51 26.09 31.71 26.48 C 28.99 23.23 26.06 20.09 22.34 17.96 C 24.22 20.33 26.12 22.68 27.90 25.12 C 24.18 26.31 20.37 27.23 16.49 27.74 C 17.59 29.56 18.66 31.39 19.70 33.25 C 13.36 35.70 6.66 36.88 0.00 38.10 L 0.00 31.11 C 3.82 29.60 7.69 28.23 11.56 26.85 C 11.70 25.21 11.69 23.53 12.20 21.96 C 14.32 19.88 17.34 19.08 19.95 17.77 C 13.32 19.33 6.41 20.57 0.00 17.44 L 0.00 0.00 M 8.28 3.04 C 9.35 5.07 11.41 7.12 10.76 9.60 C 8.69 11.56 6.24 13.05 3.95 14.72 C 7.92 13.49 12.08 13.82 16.14 14.32 C 14.70 12.25 10.98 10.07 13.26 7.33 C 16.36 3.83 21.22 5.86 24.81 7.32 C 25.93 6.31 27.05 5.30 28.17 4.29 C 23.71 4.21 19.23 3.91 14.82 4.75 C 12.44 5.41 10.32 4.03 8.28 3.04 Z" />
<path fill="#3c6bbe" opacity="1.00" d=" M 33.33 0.00 L 40.08 0.00 C 39.02 1.64 40.46 3.27 41.61 4.36 C 41.75 4.81 42.04 5.70 42.19 6.15 C 41.06 6.41 39.98 6.78 38.92 7.25 C 36.96 4.91 35.23 2.39 33.33 0.00 Z" />
<path fill="#3c6bbe" opacity="1.00" d=" M 55.92 0.00 L 90.47 0.00 C 90.58 1.20 90.69 2.39 90.80 3.59 C 86.46 6.02 81.82 9.27 83.01 15.21 C 85.91 11.52 89.28 8.16 93.42 5.88 C 93.00 3.91 92.59 1.94 92.07 0.00 L 97.44 0.00 C 95.70 10.81 96.66 21.86 98.48 32.60 L 98.21 32.93 C 97.39 33.90 95.49 35.37 96.85 36.65 C 97.77 37.72 98.72 38.75 99.72 39.75 C 99.50 40.48 99.07 41.95 98.86 42.68 C 94.74 42.79 90.66 43.40 86.64 44.27 C 91.16 45.31 96.56 45.47 99.48 49.67 L 99.08 50.66 L 97.77 50.73 C 91.53 50.89 85.27 50.78 79.10 49.76 C 83.24 43.69 86.84 36.42 94.32 33.84 C 92.90 30.95 91.93 27.60 88.89 25.90 C 84.57 21.79 78.78 25.84 74.13 27.11 C 73.26 29.69 73.75 33.40 70.93 34.68 C 67.38 36.18 63.64 37.19 60.00 38.45 C 62.72 41.85 65.70 45.08 69.61 47.13 C 67.43 44.61 65.27 42.07 63.21 39.45 C 69.38 36.45 76.26 34.70 83.07 36.80 C 81.44 41.13 79.05 45.15 75.81 48.47 C 76.27 49.24 76.71 50.02 77.16 50.80 C 76.45 50.78 75.03 50.73 74.32 50.71 C 69.46 50.45 64.61 50.16 59.75 49.83 C 60.88 48.23 62.03 46.64 63.16 45.03 C 61.20 45.70 59.25 46.39 57.30 47.09 C 57.72 48.31 58.14 49.54 58.56 50.77 C 57.85 50.63 56.42 50.36 55.71 50.22 C 55.64 47.25 55.64 44.28 55.68 41.31 L 55.86 40.54 C 55.91 40.13 56.00 39.30 56.05 38.89 C 56.05 38.35 56.05 37.28 56.04 36.74 C 56.05 34.33 56.07 31.91 56.10 29.50 C 60.12 28.29 63.81 26.24 67.66 24.61 C 68.06 22.23 68.62 19.89 69.35 17.58 C 64.78 19.06 60.15 17.76 55.76 16.29 C 55.75 15.56 55.73 14.09 55.71 13.36 L 55.90 12.51 C 55.94 12.10 56.02 11.28 56.06 10.87 C 56.05 10.35 56.03 9.31 56.02 8.79 C 55.98 5.86 55.95 2.93 55.92 0.00 M 64.35 2.27 C 65.37 4.25 67.52 6.20 66.75 8.60 C 64.70 10.57 62.24 12.05 59.95 13.72 C 63.92 12.49 68.07 12.82 72.14 13.32 C 70.70 11.25 66.98 9.07 69.26 6.33 C 72.42 2.77 77.34 4.88 80.95 6.44 C 82.28 4.94 83.53 3.35 84.67 1.69 C 78.27 4.64 71.04 2.74 64.35 2.27 Z" />
<path fill="#3c6bbe" opacity="1.00" d=" M 111.91 0.00 L 138.82 0.00 C 133.37 3.45 126.73 2.08 120.77 1.26 C 121.57 3.28 122.47 5.30 122.72 7.48 C 120.67 9.38 118.33 10.92 116.13 12.63 C 120.13 12.20 124.15 12.13 128.17 12.05 C 126.52 10.24 124.87 8.42 123.30 6.54 C 127.36 3.23 132.53 3.16 137.22 5.04 C 138.47 3.35 139.68 1.63 141.02 0.00 L 149.28 0.00 C 146.77 3.01 143.52 5.20 139.97 6.79 C 139.75 9.59 139.69 12.40 139.80 15.21 C 141.53 10.23 145.52 6.75 150.49 5.13 C 150.09 3.42 149.70 1.71 149.33 0.00 L 153.42 0.00 C 151.73 10.77 152.59 21.78 154.64 32.43 L 154.75 33.04 L 154.95 33.90 C 153.93 34.27 152.91 34.63 151.89 35.00 C 153.23 38.16 154.31 41.43 155.39 44.70 C 154.12 44.68 152.85 44.68 151.59 44.68 C 152.92 46.59 154.13 48.57 155.21 50.63 L 153.85 50.69 C 148.08 50.78 142.30 50.75 136.54 50.19 C 135.74 48.40 134.94 46.61 134.14 44.82 C 133.29 45.53 132.45 46.25 131.61 46.97 C 132.26 48.22 132.84 49.50 133.37 50.80 C 132.61 50.78 131.10 50.72 130.34 50.70 C 125.63 50.47 120.93 50.16 116.24 49.82 C 115.93 49.29 115.32 48.23 115.01 47.70 C 116.38 46.64 117.76 45.58 119.14 44.53 C 116.68 45.05 114.23 45.61 111.79 46.22 C 111.79 44.57 111.81 42.93 111.84 41.28 L 111.97 40.50 C 112.00 40.09 112.05 39.27 112.08 38.86 C 112.07 38.33 112.04 37.29 112.03 36.76 C 111.98 33.84 111.96 30.92 111.96 28.00 C 115.89 26.01 119.87 24.15 123.97 22.54 C 123.92 20.83 123.89 19.12 123.87 17.41 C 126.63 16.21 129.38 15.00 132.08 13.67 C 128.22 14.81 124.46 16.33 120.51 17.10 C 117.46 17.26 114.59 15.82 111.69 15.06 L 111.70 13.52 L 111.90 12.56 C 111.94 12.15 112.01 11.32 112.05 10.90 C 112.04 10.37 112.03 9.32 112.02 8.79 C 111.98 5.86 111.94 2.93 111.91 0.00 M 137.54 15.27 C 136.62 16.41 138.58 17.87 139.46 16.73 C 140.38 15.59 138.41 14.13 137.54 15.27 M 127.97 32.36 C 127.48 32.68 126.50 33.31 126.01 33.63 C 130.15 34.77 134.33 35.74 138.57 36.43 C 138.60 39.99 137.58 43.41 136.37 46.72 C 139.22 45.14 141.14 42.56 141.89 39.40 C 142.86 35.26 147.77 34.75 151.05 33.29 C 148.92 29.02 146.91 22.34 141.11 22.39 C 135.54 23.46 127.47 24.80 127.97 32.36 M 114.61 36.97 C 114.40 37.53 114.19 38.09 113.98 38.65 C 115.20 38.86 116.42 39.07 117.65 39.28 C 117.57 39.71 117.40 40.58 117.32 41.01 C 121.23 38.85 125.34 37.08 129.37 35.16 C 124.47 35.93 119.62 37.55 114.61 36.97 Z" />
<path fill="#3c6bbe" opacity="1.00" d=" M 167.92 0.00 L 202.47 0.00 C 202.57 1.20 202.69 2.39 202.80 3.59 C 198.46 6.02 193.82 9.27 195.01 15.21 C 197.91 11.52 201.28 8.16 205.42 5.88 C 205.00 3.91 204.59 1.94 204.07 0.00 L 209.44 0.00 C 207.60 10.79 208.83 21.78 210.51 32.49 L 210.48 33.34 L 210.41 34.72 C 208.94 33.22 206.43 35.33 208.57 36.60 C 209.61 37.65 210.67 38.70 211.78 39.69 C 211.55 40.43 211.10 41.91 210.87 42.64 C 206.75 42.78 202.67 43.39 198.64 44.27 C 203.16 45.31 208.56 45.47 211.48 49.67 L 211.07 50.68 L 209.76 50.74 C 203.52 50.89 197.26 50.78 191.08 49.75 C 195.03 43.86 198.69 37.27 205.29 33.94 C 204.92 31.61 204.60 29.28 204.33 26.94 C 201.66 26.06 199.13 24.44 196.27 24.18 C 192.74 24.48 189.44 25.94 186.13 27.10 C 185.25 29.68 185.75 33.39 182.93 34.68 C 179.37 36.18 175.64 37.19 172.00 38.45 C 174.72 41.85 177.70 45.08 181.61 47.13 C 179.43 44.61 177.27 42.07 175.21 39.45 C 181.38 36.45 188.26 34.70 195.07 36.80 C 193.43 41.13 191.05 45.15 187.81 48.47 C 188.27 49.24 188.71 50.02 189.16 50.80 C 188.45 50.78 187.03 50.73 186.32 50.71 C 181.45 50.45 176.61 50.16 171.75 49.83 C 172.88 48.23 174.03 46.64 175.16 45.03 C 173.20 45.70 171.25 46.39 169.30 47.09 C 169.72 48.31 170.14 49.54 170.56 50.77 C 169.85 50.63 168.42 50.36 167.71 50.22 C 167.64 47.25 167.63 44.28 167.68 41.31 L 167.86 40.54 C 167.91 40.13 168.00 39.30 168.05 38.89 C 168.05 38.35 168.05 37.28 168.04 36.74 C 168.05 34.33 168.07 31.91 168.10 29.50 C 172.12 28.29 175.81 26.24 179.66 24.61 C 180.06 22.23 180.62 19.89 181.35 17.58 C 176.78 19.06 172.15 17.76 167.76 16.29 C 167.75 15.56 167.73 14.09 167.71 13.36 L 167.90 12.51 C 167.94 12.10 168.02 11.28 168.06 10.87 C 168.05 10.35 168.03 9.31 168.02 8.79 C 167.98 5.86 167.94 2.93 167.92 0.00 M 178.78 4.40 C 179.47 9.08 175.45 11.54 171.98 13.75 C 175.93 12.47 180.08 12.82 184.14 13.32 C 182.70 11.25 178.98 9.07 181.26 6.33 C 184.42 2.77 189.34 4.88 192.95 6.44 C 194.28 4.94 195.52 3.36 196.67 1.71 C 191.00 4.17 184.63 2.55 178.78 4.40 Z" />
<path fill="#3c6bbe" opacity="1.00" d=" M 111.75 17.44 C 115.42 18.33 119.02 19.52 122.49 21.02 C 118.97 22.70 115.33 24.14 111.97 26.14 C 111.92 23.24 111.85 20.34 111.75 17.44 Z" />
<path fill="#3c6bbe" opacity="1.00" d=" M 48.26 22.48 C 46.13 19.67 50.60 19.54 49.73 22.60 C 49.36 22.57 48.63 22.51 48.26 22.48 Z" />
<path fill="#3c6bbe" opacity="1.00" d=" M 104.26 22.46 C 102.13 19.64 106.62 19.54 105.73 22.59 C 105.36 22.56 104.63 22.49 104.26 22.46 Z" />
<path fill="#3c6bbe" opacity="1.00" d=" M 160.32 22.49 C 158.14 19.71 162.62 19.57 161.82 22.61 C 161.45 22.58 160.70 22.52 160.32 22.49 Z" />
<path fill="#3c6bbe" opacity="1.00" d=" M 216.26 22.46 C 214.12 19.64 218.62 19.54 217.72 22.59 C 217.36 22.56 216.63 22.49 216.26 22.46 Z" />
<path fill="#3c6bbe" opacity="1.00" d=" M 44.24 22.88 C 44.84 22.76 46.05 22.53 46.65 22.41 L 46.52 23.19 C 46.26 23.41 45.72 23.86 45.45 24.09 C 45.15 23.79 44.54 23.18 44.24 22.88 Z" />
<path fill="#3c6bbe" opacity="1.00" d=" M 100.25 22.75 C 100.85 22.64 102.06 22.44 102.66 22.33 L 102.52 23.11 C 102.24 23.32 101.69 23.75 101.42 23.97 C 101.13 23.66 100.54 23.05 100.25 22.75 Z" />
<path fill="#3c6bbe" opacity="1.00" d=" M 156.22 22.77 C 156.83 22.66 158.05 22.46 158.66 22.35 L 158.52 23.12 C 158.24 23.34 157.68 23.76 157.40 23.98 C 157.11 23.67 156.52 23.07 156.22 22.77 Z" />
<path fill="#3c6bbe" opacity="1.00" d=" M 212.25 22.75 C 212.85 22.64 214.06 22.44 214.66 22.33 L 214.52 23.11 C 214.24 23.32 213.69 23.75 213.42 23.97 C 213.13 23.66 212.54 23.05 212.25 22.75 Z" />
<path fill="#3c6bbe" opacity="1.00" d=" M 47.77 24.70 L 48.60 24.70 C 48.84 25.85 49.50 26.62 50.57 27.03 L 50.55 27.56 C 49.05 28.24 47.40 27.00 47.48 25.40 L 47.77 24.70 Z" />
<path fill="#3c6bbe" opacity="1.00" d=" M 103.76 24.64 L 104.59 24.67 C 104.82 25.83 105.47 26.61 106.55 27.02 L 106.54 27.55 C 105.01 28.21 103.36 26.94 103.46 25.32 L 103.76 24.64 Z" />
<path fill="#3c6bbe" opacity="1.00" d=" M 159.68 24.67 L 160.46 24.69 C 160.79 25.79 161.50 26.52 162.58 26.86 L 162.56 27.41 C 161.08 28.20 159.38 26.96 159.41 25.35 L 159.68 24.67 Z" />
<path fill="#3c6bbe" opacity="1.00" d=" M 215.76 24.64 L 216.59 24.67 C 216.82 25.83 217.47 26.61 218.55 27.02 L 218.53 27.55 C 217.01 28.21 215.36 26.94 215.46 25.32 L 215.76 24.64 Z" />
<path fill="#3c6bbe" opacity="1.00" d=" M 8.33 39.87 C 11.36 38.30 14.46 36.40 17.97 36.26 C 21.68 36.63 24.98 38.57 28.22 40.25 C 25.92 42.42 23.36 44.29 20.75 46.09 C 20.89 47.66 21.01 49.23 21.10 50.81 C 20.41 50.79 19.02 50.76 18.33 50.74 C 13.86 50.52 9.39 50.24 4.92 49.97 C 5.92 48.87 6.92 47.77 7.91 46.66 C 6.29 47.02 4.67 47.38 3.06 47.75 C 2.56 48.59 2.06 49.43 1.57 50.27 C 1.04 50.78 0.52 51.30 -0.00 51.83 L 0.00 38.82 C 2.26 39.08 4.52 39.36 6.78 39.66 C 8.84 43.31 11.86 46.31 15.69 48.09 C 13.23 45.35 10.70 42.68 8.33 39.87 Z" />
<path fill="#3c6bbe" opacity="1.00" d=" M 111.75 48.18 C 113.28 47.54 114.84 49.15 114.61 50.67 C 114.00 50.46 112.78 50.03 112.16 49.82 C 112.06 49.41 111.85 48.59 111.75 48.18 Z" />
</g>
<g id="#4579caff">
<path fill="#4579ca" opacity="1.00" d=" M 31.80 0.00 L 33.33 0.00 C 35.23 2.39 36.96 4.91 38.92 7.25 L 39.14 7.53 C 33.65 7.01 30.50 10.67 29.58 15.37 C 29.05 15.53 27.97 15.85 27.44 16.01 C 26.80 10.73 29.87 6.55 34.28 4.04 C 33.48 2.68 32.68 1.31 31.80 0.00 Z" />
</g>
<g id="#268ed9fe">
<path fill="#268ed9" opacity="1.00" d=" M 40.08 0.00 L 41.63 0.00 C 42.11 1.43 42.10 2.88 41.61 4.36 C 40.46 3.27 39.02 1.64 40.08 0.00 Z" />
</g>
<g id="#8aa3b5ff">
<path fill="#8aa3b5" opacity="1.00" d=" M 41.63 0.00 L 42.93 0.00 C 43.22 0.57 43.81 1.70 44.11 2.26 C 43.76 3.14 43.45 4.03 43.16 4.93 C 43.03 5.57 42.78 6.85 42.65 7.49 C 42.53 7.15 42.30 6.49 42.19 6.15 C 42.04 5.70 41.75 4.81 41.61 4.36 C 42.10 2.88 42.11 1.43 41.63 0.00 Z" />
<path fill="#8aa3b5" opacity="1.00" d=" M 41.72 32.50 C 42.10 30.78 42.55 29.07 42.95 27.35 C 42.94 28.03 42.91 29.40 42.90 30.09 C 42.87 31.04 42.83 31.99 42.78 32.95 C 42.75 33.62 42.69 34.96 42.65 35.63 C 42.47 35.29 42.11 34.63 41.93 34.30 C 41.87 33.85 41.77 32.95 41.72 32.50 Z" />
</g>
<g id="#332e2aff">
<path fill="#332e2a" opacity="1.00" d=" M 42.93 0.00 L 44.46 0.00 C 44.37 0.57 44.19 1.70 44.11 2.26 C 43.81 1.70 43.22 0.57 42.93 0.00 Z" />
<path fill="#332e2a" opacity="1.00" d=" M 48.25 0.00 L 50.54 0.00 C 50.55 0.31 50.58 0.92 50.59 1.23 C 49.39 2.03 47.92 2.16 46.52 2.10 C 47.03 1.34 47.60 0.64 48.25 0.00 Z" />
<path fill="#332e2a" opacity="1.00" d=" M 104.21 0.00 L 106.52 0.00 C 106.53 0.31 106.57 0.92 106.58 1.23 C 105.38 2.02 103.91 2.16 102.52 2.11 C 103.01 1.35 103.57 0.64 104.21 0.00 Z" />
<path fill="#332e2a" opacity="1.00" d=" M 155.17 0.00 L 156.79 0.00 C 156.42 0.60 155.68 1.79 155.31 2.39 C 155.28 1.79 155.21 0.60 155.17 0.00 Z" />
<path fill="#332e2a" opacity="1.00" d=" M 160.23 0.00 L 162.53 0.00 C 162.55 0.31 162.58 0.92 162.59 1.23 C 161.39 2.03 159.92 2.16 158.52 2.10 C 159.02 1.34 159.59 0.64 160.23 0.00 Z" />
<path fill="#332e2a" opacity="1.00" d=" M 216.21 0.00 L 218.52 0.00 C 218.54 0.31 218.57 0.92 218.58 1.23 C 217.38 2.02 215.91 2.16 214.52 2.10 C 215.01 1.34 215.57 0.64 216.21 0.00 Z" />
<path fill="#332e2a" opacity="1.00" d=" M 45.45 24.09 C 45.72 23.86 46.26 23.41 46.52 23.19 C 46.96 23.01 47.83 22.66 48.26 22.48 C 48.63 22.51 49.36 22.57 49.73 22.60 L 49.76 23.05 C 49.67 23.39 49.49 24.06 49.40 24.39 L 48.60 24.70 L 47.77 24.70 C 47.19 24.54 46.03 24.24 45.45 24.09 Z" />
<path fill="#332e2a" opacity="1.00" d=" M 101.42 23.97 C 101.69 23.75 102.24 23.32 102.52 23.11 C 102.95 22.94 103.82 22.62 104.26 22.46 C 104.63 22.49 105.36 22.56 105.73 22.59 L 105.76 23.04 C 105.67 23.38 105.49 24.04 105.40 24.37 L 104.59 24.67 L 103.76 24.64 C 103.18 24.48 102.00 24.14 101.42 23.97 Z" />
<path fill="#332e2a" opacity="1.00" d=" M 157.40 23.98 C 157.68 23.76 158.24 23.34 158.52 23.12 C 158.97 22.97 159.87 22.65 160.32 22.49 C 160.70 22.52 161.45 22.58 161.82 22.61 L 161.87 23.07 C 161.71 23.39 161.39 24.05 161.24 24.38 L 160.46 24.69 L 159.68 24.67 C 159.11 24.49 157.97 24.15 157.40 23.98 Z" />
<path fill="#332e2a" opacity="1.00" d=" M 213.42 23.97 C 213.69 23.75 214.24 23.32 214.52 23.11 C 214.95 22.94 215.82 22.62 216.26 22.46 C 216.63 22.49 217.36 22.56 217.72 22.59 L 217.76 23.05 C 217.67 23.38 217.49 24.04 217.40 24.38 L 216.59 24.67 L 215.76 24.64 C 215.18 24.48 214.00 24.14 213.42 23.97 Z" />
<path fill="#332e2a" opacity="1.00" d=" M 42.78 32.95 C 45.28 32.83 47.77 32.79 50.27 32.81 L 50.15 33.87 C 49.55 39.00 48.59 44.08 47.47 49.12 C 48.52 49.99 49.57 50.85 50.59 51.75 L 50.92 52.10 L 49.90 52.04 C 49.00 51.92 48.09 51.84 47.19 51.78 C 45.51 51.68 43.83 51.59 42.15 51.51 L 42.46 50.89 C 43.00 49.75 43.51 48.60 43.98 47.43 C 44.49 46.34 44.34 45.10 44.33 43.93 C 44.37 42.70 44.47 41.47 44.56 40.25 L 44.62 39.34 C 47.09 39.84 46.60 36.78 44.38 37.55 C 43.95 37.40 43.08 37.11 42.65 36.96 C 42.65 36.62 42.65 35.96 42.65 35.63 C 42.69 34.96 42.75 33.62 42.78 32.95 M 43.74 35.16 C 45.49 36.15 47.25 37.13 49.01 38.11 C 49.00 37.33 48.98 35.77 48.97 34.99 C 47.23 35.04 45.48 35.09 43.74 35.16 Z" />
<path fill="#332e2a" opacity="1.00" d=" M 98.21 32.93 C 100.89 32.81 103.58 32.77 106.27 32.81 L 106.15 33.88 C 105.55 39.01 104.58 44.08 103.47 49.12 C 104.52 49.99 105.57 50.85 106.59 51.75 L 106.91 52.10 L 105.90 52.05 C 105.00 51.93 104.09 51.84 103.18 51.78 C 101.68 51.68 100.17 51.60 98.67 51.52 L 99.08 50.66 L 99.48 49.67 C 99.76 48.94 100.05 48.21 100.33 47.48 C 100.92 46.28 101.14 44.47 99.89 43.59 L 99.41 43.15 C 100.65 42.66 101.15 41.77 100.91 40.47 L 100.78 39.10 C 103.06 40.51 102.81 37.06 100.70 37.24 C 100.10 36.98 98.90 36.45 98.30 36.19 C 98.28 35.38 98.23 33.75 98.21 32.93 M 99.74 35.16 C 101.49 36.15 103.25 37.13 105.01 38.11 C 105.00 37.33 104.98 35.77 104.97 34.99 C 103.23 35.04 101.48 35.09 99.74 35.16 Z" />
<path fill="#332e2a" opacity="1.00" d=" M 154.75 33.04 C 157.26 32.88 159.77 32.80 162.28 32.79 L 162.16 33.86 C 161.54 38.99 160.59 44.07 159.47 49.12 C 160.52 49.99 161.57 50.85 162.59 51.75 L 162.93 52.11 L 161.90 52.06 C 161.00 51.94 160.09 51.84 159.18 51.77 C 157.76 51.67 156.34 51.57 154.92 51.48 L 155.21 50.63 C 156.21 47.06 156.50 43.36 157.35 39.76 C 159.35 38.80 157.49 36.05 156.37 38.34 C 155.84 36.88 155.35 35.40 154.95 33.90 L 154.75 33.04 M 155.74 35.16 C 157.49 36.15 159.25 37.13 161.01 38.11 C 161.00 37.33 160.98 35.77 160.97 34.99 C 159.23 35.04 157.48 35.09 155.74 35.16 Z" />
<path fill="#332e2a" opacity="1.00" d=" M 210.48 33.34 C 213.06 33.01 215.67 32.80 218.27 32.72 L 218.15 33.83 C 217.55 38.98 216.59 44.07 215.47 49.13 C 216.52 50.00 217.57 50.86 218.59 51.77 L 218.96 52.18 L 217.91 51.93 C 217.04 51.70 216.16 51.59 215.26 51.60 C 213.72 51.57 212.19 51.56 210.66 51.55 L 211.07 50.68 L 211.48 49.67 C 211.76 48.94 212.05 48.21 212.33 47.48 C 212.91 46.28 213.12 44.48 211.91 43.58 L 211.42 43.13 C 212.67 42.65 213.17 41.76 212.92 40.46 L 212.78 39.10 C 215.08 40.48 214.81 36.98 212.68 37.26 C 212.03 37.03 210.75 36.58 210.10 36.36 C 210.18 35.95 210.33 35.13 210.41 34.72 L 210.48 33.34 M 211.74 35.16 C 213.49 36.15 215.25 37.13 217.01 38.11 C 217.00 37.33 216.98 35.77 216.97 34.99 C 215.23 35.04 213.48 35.09 211.74 35.16 Z" />
</g>
<g id="#525548ff">
<path fill="#525548" opacity="1.00" d=" M 44.46 0.00 L 48.25 0.00 C 47.60 0.64 47.03 1.34 46.52 2.10 C 47.92 2.16 49.39 2.03 50.59 1.23 C 50.57 2.43 50.48 3.63 50.36 4.82 C 47.96 4.80 45.56 4.82 43.16 4.93 C 43.45 4.03 43.76 3.14 44.11 2.26 C 44.19 1.70 44.37 0.57 44.46 0.00 Z" />
<path fill="#525548" opacity="1.00" d=" M 101.20 0.00 L 104.21 0.00 C 103.57 0.64 103.01 1.35 102.52 2.11 C 103.91 2.16 105.38 2.02 106.58 1.23 C 106.56 2.46 106.48 3.69 106.35 4.91 C 103.89 4.76 101.42 4.66 98.95 4.62 L 98.95 3.86 C 100.01 2.79 100.90 1.52 101.20 0.00 Z" />
<path fill="#525548" opacity="1.00" d=" M 156.79 0.00 L 160.23 0.00 C 159.59 0.64 159.02 1.34 158.52 2.10 C 159.92 2.16 161.39 2.03 162.59 1.23 C 162.57 2.45 162.48 3.66 162.35 4.87 C 160.07 4.79 157.78 4.76 155.50 4.79 C 155.43 3.99 155.37 3.19 155.31 2.39 C 155.68 1.79 156.42 0.60 156.79 0.00 Z" />
<path fill="#525548" opacity="1.00" d=" M 213.20 0.00 L 216.21 0.00 C 215.57 0.64 215.01 1.34 214.52 2.10 C 215.91 2.16 217.38 2.02 218.58 1.23 C 218.56 2.46 218.48 3.69 218.35 4.91 C 215.89 4.76 213.42 4.66 210.95 4.62 L 210.95 3.86 C 212.01 2.79 212.90 1.52 213.20 0.00 Z" />
<path fill="#525548" opacity="1.00" d=" M 42.90 30.09 C 44.07 29.33 45.25 28.59 46.43 27.85 C 46.45 28.35 46.49 29.37 46.51 29.87 C 47.84 29.69 49.17 29.51 50.50 29.33 C 50.47 30.49 50.39 31.65 50.27 32.81 C 47.77 32.79 45.28 32.83 42.78 32.95 C 42.83 31.99 42.87 31.04 42.90 30.09 Z" />
<path fill="#525548" opacity="1.00" d=" M 98.48 32.60 C 99.72 30.98 100.93 29.34 102.18 27.73 C 102.26 28.26 102.43 29.33 102.51 29.86 C 103.84 29.69 105.16 29.51 106.49 29.33 C 106.47 30.49 106.39 31.65 106.27 32.81 C 103.58 32.77 100.89 32.81 98.21 32.93 L 98.48 32.60 Z" />
<path fill="#525548" opacity="1.00" d=" M 154.83 30.09 C 156.03 29.33 157.24 28.58 158.45 27.84 C 158.46 28.35 158.49 29.37 158.50 29.88 C 159.84 29.70 161.18 29.52 162.52 29.33 C 162.49 30.48 162.40 31.64 162.28 32.79 C 159.77 32.80 157.26 32.88 154.75 33.04 L 154.64 32.43 C 154.69 31.85 154.78 30.67 154.83 30.09 Z" />
<path fill="#525548" opacity="1.00" d=" M 210.51 32.49 C 211.59 30.80 212.76 29.17 213.94 27.55 C 214.09 28.13 214.41 29.29 214.56 29.88 C 215.87 29.69 217.18 29.51 218.49 29.33 C 218.46 30.46 218.38 31.59 218.27 32.72 C 215.67 32.80 213.06 33.01 210.48 33.34 L 210.51 32.49 Z" />
</g>
<g id="#7da960ff">
<path fill="#7da960" opacity="1.00" d=" M 50.54 0.00 L 55.92 0.00 C 55.95 2.93 55.98 5.86 56.02 8.79 C 54.53 9.51 53.06 10.25 51.58 10.99 C 51.91 8.63 52.32 6.28 52.75 3.94 C 51.91 4.59 51.07 5.24 50.23 5.89 L 50.36 4.82 C 50.48 3.63 50.57 2.43 50.59 1.23 C 50.58 0.92 50.55 0.31 50.54 0.00 Z" />
<path fill="#7da960" opacity="1.00" d=" M 106.52 0.00 L 111.91 0.00 C 111.94 2.93 111.98 5.86 112.02 8.79 C 110.53 9.51 109.05 10.25 107.58 10.99 C 107.91 8.63 108.32 6.27 108.75 3.93 C 107.91 4.60 107.07 5.27 106.23 5.94 L 106.35 4.91 C 106.48 3.69 106.56 2.46 106.58 1.23 C 106.57 0.92 106.53 0.31 106.52 0.00 Z" />
<path fill="#7da960" opacity="1.00" d=" M 162.53 0.00 L 167.92 0.00 C 167.94 2.93 167.98 5.86 168.02 8.79 C 166.53 9.51 165.05 10.25 163.57 10.99 C 163.90 8.63 164.32 6.28 164.76 3.93 C 163.92 4.59 163.07 5.26 162.23 5.92 L 162.35 4.87 C 162.48 3.66 162.57 2.45 162.59 1.23 C 162.58 0.92 162.55 0.31 162.53 0.00 Z" />
<path fill="#7da960" opacity="1.00" d=" M 218.52 0.00 L 224.00 0.00 L 224.00 8.13 C 222.55 9.22 221.07 10.25 219.59 11.27 C 219.92 8.82 220.32 6.37 220.75 3.93 C 219.91 4.60 219.07 5.27 218.23 5.94 L 218.35 4.91 C 218.48 3.69 218.56 2.46 218.58 1.23 C 218.57 0.92 218.54 0.31 218.52 0.00 Z" />
</g>
<g id="#437acaff">
<path fill="#437aca" opacity="1.00" d=" M 90.47 0.00 L 92.07 0.00 C 92.59 1.94 93.00 3.91 93.42 5.88 C 89.28 8.16 85.91 11.52 83.01 15.21 C 81.82 9.27 86.46 6.02 90.80 3.59 C 90.69 2.39 90.58 1.20 90.47 0.00 Z" />
<path fill="#437aca" opacity="1.00" d=" M 202.47 0.00 L 204.07 0.00 C 204.59 1.94 205.00 3.91 205.42 5.88 C 201.28 8.16 197.91 11.52 195.01 15.21 C 193.82 9.27 198.46 6.02 202.80 3.59 C 202.69 2.39 202.57 1.20 202.47 0.00 Z" />
</g>
<g id="#298ed7ff">
<path fill="#298ed7" opacity="1.00" d=" M 97.44 0.00 L 99.62 0.00 C 98.90 1.17 98.67 2.46 98.95 3.86 L 98.95 4.62 C 98.96 6.34 98.97 8.06 98.98 9.78 C 98.68 11.01 99.66 12.31 100.99 12.02 C 100.38 13.23 99.80 14.45 99.20 15.66 C 98.22 16.93 98.92 18.99 100.48 19.39 C 100.17 20.65 99.90 21.92 99.64 23.20 C 99.58 23.60 99.46 24.42 99.40 24.83 L 99.30 25.59 C 99.00 27.92 98.74 30.26 98.48 32.60 C 96.66 21.86 95.70 10.81 97.44 0.00 Z" />
<path fill="#298ed7" opacity="1.00" d=" M 209.44 0.00 L 211.62 0.00 C 210.90 1.17 210.67 2.46 210.95 3.86 L 210.95 4.62 C 210.96 6.34 210.97 8.06 210.98 9.78 C 210.68 11.00 211.65 12.31 212.99 12.02 C 212.38 13.23 211.79 14.45 211.20 15.67 C 210.22 16.94 210.92 18.99 212.48 19.39 C 212.17 20.65 211.90 21.92 211.64 23.20 C 211.58 23.60 211.46 24.42 211.40 24.83 L 211.29 25.59 C 211.00 27.89 210.75 30.19 210.51 32.49 C 208.83 21.78 207.60 10.79 209.44 0.00 Z" />
</g>
<g id="#5c6268ff">
<path fill="#5c6268" opacity="1.00" d=" M 99.62 0.00 L 101.20 0.00 C 100.90 1.52 100.01 2.79 98.95 3.86 C 98.67 2.46 98.90 1.17 99.62 0.00 Z" />
<path fill="#5c6268" opacity="1.00" d=" M 211.62 0.00 L 213.20 0.00 C 212.90 1.52 212.01 2.79 210.95 3.86 C 210.67 2.46 210.90 1.17 211.62 0.00 Z" />
</g>
<g id="#4278caff">
<path fill="#4278ca" opacity="1.00" d=" M 138.82 0.00 L 141.02 0.00 C 139.68 1.63 138.47 3.35 137.22 5.04 C 132.53 3.16 127.36 3.23 123.30 6.54 C 124.87 8.42 126.52 10.24 128.17 12.05 C 124.15 12.13 120.13 12.20 116.13 12.63 C 118.33 10.92 120.67 9.38 122.72 7.48 C 122.47 5.30 121.57 3.28 120.77 1.26 C 126.73 2.08 133.37 3.45 138.82 0.00 Z" />
<path fill="#4278ca" opacity="1.00" d=" M 64.35 2.27 C 71.04 2.74 78.27 4.64 84.67 1.69 C 83.53 3.35 82.28 4.94 80.95 6.44 C 77.34 4.88 72.42 2.77 69.26 6.33 C 66.98 9.07 70.70 11.25 72.14 13.32 C 68.07 12.82 63.92 12.49 59.95 13.72 C 62.24 12.05 64.70 10.57 66.75 8.60 C 67.52 6.20 65.37 4.25 64.35 2.27 Z" />
<path fill="#4278ca" opacity="1.00" d=" M 8.28 3.04 C 10.32 4.03 12.44 5.41 14.82 4.75 C 19.23 3.91 23.71 4.21 28.17 4.29 C 27.05 5.30 25.93 6.31 24.81 7.32 C 21.22 5.86 16.36 3.83 13.26 7.33 C 10.98 10.07 14.70 12.25 16.14 14.32 C 12.08 13.82 7.92 13.49 3.95 14.72 C 6.24 13.05 8.69 11.56 10.76 9.60 C 11.41 7.12 9.35 5.07 8.28 3.04 Z" />
</g>
<g id="#457bcbff">
<path fill="#457bcb" opacity="1.00" d=" M 149.28 0.00 L 149.33 0.00 C 149.70 1.71 150.09 3.42 150.49 5.13 C 145.52 6.75 141.53 10.23 139.80 15.21 C 139.69 12.40 139.75 9.59 139.97 6.79 C 143.52 5.20 146.77 3.01 149.28 0.00 Z" />
</g>
<g id="#288ed7ff">
<path fill="#288ed7" opacity="1.00" d=" M 153.42 0.00 L 155.17 0.00 C 155.21 0.60 155.28 1.79 155.31 2.39 C 155.37 3.19 155.43 3.99 155.50 4.79 C 155.68 6.63 155.94 8.46 156.31 10.27 C 156.52 10.64 156.93 11.39 157.13 11.77 C 156.30 15.54 156.07 19.40 155.59 23.22 C 155.55 23.63 155.47 24.45 155.43 24.86 L 155.32 25.63 C 155.13 27.11 154.98 28.60 154.83 30.09 C 154.78 30.67 154.69 31.85 154.64 32.43 C 152.59 21.78 151.73 10.77 153.42 0.00 Z" />
</g>
<g id="#4378caff">
<path fill="#4378ca" opacity="1.00" d=" M 178.78 4.40 C 184.63 2.55 191.00 4.17 196.67 1.71 C 195.52 3.36 194.28 4.94 192.95 6.44 C 189.34 4.88 184.42 2.77 181.26 6.33 C 178.98 9.07 182.70 11.25 184.14 13.32 C 180.08 12.82 175.93 12.47 171.98 13.75 C 175.45 11.54 179.47 9.08 178.78 4.40 Z" />
</g>
<g id="#322f2cff">
<path fill="#322f2c" opacity="1.00" d=" M 43.16 4.93 C 45.56 4.82 47.96 4.80 50.36 4.82 L 50.23 5.89 C 49.73 11.54 48.11 16.97 46.65 22.41 C 46.05 22.53 44.84 22.76 44.24 22.88 L 43.64 23.31 C 43.38 22.88 42.85 22.01 42.58 21.57 C 42.82 21.03 43.31 19.94 43.56 19.40 C 44.16 18.31 44.35 17.06 44.32 15.83 C 44.38 14.63 44.48 13.44 44.56 12.24 L 44.62 11.32 C 47.09 11.85 46.59 8.78 44.38 9.54 C 43.90 9.37 42.94 9.04 42.47 8.87 C 42.51 8.53 42.60 7.83 42.65 7.49 C 42.78 6.85 43.03 5.57 43.16 4.93 M 43.74 7.16 C 45.49 8.15 47.25 9.13 49.01 10.11 C 49.00 9.33 48.98 7.77 48.97 6.99 C 47.23 7.04 45.48 7.09 43.74 7.16 Z" />
<path fill="#322f2c" opacity="1.00" d=" M 98.95 4.62 C 101.42 4.66 103.89 4.76 106.35 4.91 L 106.23 5.94 C 105.73 11.55 104.12 16.93 102.66 22.33 C 102.06 22.44 100.85 22.64 100.25 22.75 L 99.64 23.20 C 99.90 21.92 100.17 20.65 100.48 19.39 C 101.07 18.06 100.77 16.14 99.20 15.66 C 99.80 14.45 100.38 13.23 100.99 12.02 L 101.31 11.39 C 103.80 11.14 102.35 8.42 100.50 9.73 C 100.12 9.74 99.36 9.76 98.98 9.78 C 98.97 8.06 98.96 6.34 98.95 4.62 M 99.74 7.16 C 101.49 8.15 103.25 9.13 105.01 10.11 C 105.00 9.33 104.98 7.77 104.97 6.99 C 103.23 7.04 101.48 7.09 99.74 7.16 Z" />
<path fill="#322f2c" opacity="1.00" d=" M 155.50 4.79 C 157.78 4.76 160.07 4.79 162.35 4.87 L 162.23 5.92 C 161.72 11.54 160.12 16.94 158.66 22.35 C 158.05 22.46 156.83 22.66 156.22 22.77 L 155.59 23.22 C 156.07 19.40 156.30 15.54 157.13 11.77 C 159.23 11.00 157.68 8.10 156.31 10.27 C 155.94 8.46 155.68 6.63 155.50 4.79 M 155.74 7.16 C 157.49 8.15 159.25 9.13 161.01 10.11 C 161.00 9.33 160.98 7.77 160.97 6.99 C 159.23 7.04 157.48 7.09 155.74 7.16 Z" />
<path fill="#322f2c" opacity="1.00" d=" M 210.95 4.62 C 213.42 4.66 215.89 4.76 218.35 4.91 L 218.23 5.94 C 217.72 11.55 216.12 16.93 214.66 22.33 C 214.06 22.44 212.85 22.64 212.25 22.75 L 211.64 23.20 C 211.90 21.92 212.17 20.65 212.48 19.39 C 213.07 18.06 212.77 16.13 211.20 15.67 C 211.79 14.45 212.38 13.23 212.99 12.02 L 213.31 11.39 C 215.79 11.14 214.35 8.42 212.50 9.73 C 212.12 9.74 211.36 9.76 210.98 9.78 C 210.97 8.06 210.96 6.34 210.95 4.62 M 211.74 7.16 C 213.49 8.15 215.25 9.13 217.01 10.11 C 217.00 9.33 216.98 7.77 216.97 6.99 C 215.23 7.04 213.48 7.09 211.74 7.16 Z" />
</g>
<g id="#4f6048ff">
<path fill="#4f6048" opacity="1.00" d=" M 50.23 5.89 C 51.07 5.24 51.91 4.59 52.75 3.94 C 52.32 6.28 51.91 8.63 51.58 10.99 C 51.30 12.97 51.00 14.95 50.73 16.94 C 50.43 18.98 50.21 21.04 49.76 23.05 L 49.73 22.60 C 50.60 19.54 46.13 19.67 48.26 22.48 C 47.83 22.66 46.96 23.01 46.52 23.19 L 46.65 22.41 C 48.11 16.97 49.73 11.54 50.23 5.89 Z" />
<path fill="#4f6048" opacity="1.00" d=" M 106.23 5.94 C 107.07 5.27 107.91 4.60 108.75 3.93 C 108.32 6.27 107.91 8.63 107.58 10.99 C 107.30 12.96 107.00 14.93 106.73 16.91 C 106.43 18.96 106.21 21.02 105.76 23.04 L 105.73 22.59 C 106.62 19.54 102.13 19.64 104.26 22.46 C 103.82 22.62 102.95 22.94 102.52 23.11 L 102.66 22.33 C 104.12 16.93 105.73 11.55 106.23 5.94 Z" />
<path fill="#4f6048" opacity="1.00" d=" M 162.23 5.92 C 163.07 5.26 163.92 4.59 164.76 3.93 C 164.32 6.28 163.90 8.63 163.57 10.99 C 163.29 12.97 162.98 14.95 162.74 16.94 C 162.46 18.98 162.30 21.05 161.87 23.07 L 161.82 22.61 C 162.62 19.57 158.14 19.71 160.32 22.49 C 159.87 22.65 158.97 22.97 158.52 23.12 L 158.66 22.35 C 160.12 16.94 161.72 11.54 162.23 5.92 Z" />
<path fill="#4f6048" opacity="1.00" d=" M 218.23 5.94 C 219.07 5.27 219.91 4.60 220.75 3.93 C 220.32 6.37 219.92 8.82 219.59 11.27 C 219.32 13.17 219.00 15.05 218.74 16.95 C 218.43 18.98 218.21 21.04 217.76 23.05 L 217.72 22.59 C 218.62 19.54 214.12 19.64 216.26 22.46 C 215.82 22.62 214.95 22.94 214.52 23.11 L 214.66 22.33 C 216.12 16.93 217.72 11.55 218.23 5.94 Z" />
</g>
<g id="#268ed9ff">
<path fill="#268ed9" opacity="1.00" d=" M 38.92 7.25 C 39.98 6.78 41.06 6.41 42.19 6.15 C 42.30 6.49 42.53 7.15 42.65 7.49 C 42.60 7.83 42.51 8.53 42.47 8.87 C 41.52 8.59 40.59 8.29 39.66 7.98 L 39.14 7.53 L 38.92 7.25 Z" />
<path fill="#268ed9" opacity="1.00" d=" M 41.72 32.50 C 41.41 29.23 41.13 25.92 41.62 22.65 C 41.95 23.64 42.41 24.58 42.99 25.46 C 42.98 25.93 42.96 26.88 42.95 27.35 C 42.55 29.07 42.10 30.78 41.72 32.50 Z" />
<path fill="#268ed9" opacity="1.00" d=" M 38.91 35.43 C 39.86 34.92 40.87 34.54 41.93 34.30 C 42.11 34.63 42.47 35.29 42.65 35.63 C 42.65 35.96 42.65 36.62 42.65 36.96 C 41.67 36.71 40.69 36.46 39.71 36.19 L 39.16 35.75 L 38.91 35.43 Z" />
<path fill="#268ed9" opacity="1.00" d=" M 208.57 36.60 C 206.43 35.33 208.94 33.22 210.41 34.72 C 210.33 35.13 210.18 35.95 210.10 36.36 C 209.72 36.42 208.95 36.54 208.57 36.60 Z" />
</g>
<g id="#565249ff">
<path fill="#565249" opacity="1.00" d=" M 43.74 7.16 C 45.48 7.09 47.23 7.04 48.97 6.99 C 48.98 7.77 49.00 9.33 49.01 10.11 C 47.25 9.13 45.49 8.15 43.74 7.16 Z" />
<path fill="#565249" opacity="1.00" d=" M 99.74 7.16 C 101.48 7.09 103.23 7.04 104.97 6.99 C 104.98 7.77 105.00 9.33 105.01 10.11 C 103.25 9.13 101.49 8.15 99.74 7.16 Z" />
<path fill="#565249" opacity="1.00" d=" M 155.74 7.16 C 157.48 7.09 159.23 7.04 160.97 6.99 C 160.98 7.77 161.00 9.33 161.01 10.11 C 159.25 9.13 157.49 8.15 155.74 7.16 Z" />
<path fill="#565249" opacity="1.00" d=" M 211.74 7.16 C 213.48 7.09 215.23 7.04 216.97 6.99 C 216.98 7.77 217.00 9.33 217.01 10.11 C 215.25 9.13 213.49 8.15 211.74 7.16 Z" />
<path fill="#565249" opacity="1.00" d=" M 44.38 9.54 C 46.59 8.78 47.09 11.85 44.62 11.32 C 44.56 10.88 44.44 9.99 44.38 9.54 Z" />
<path fill="#565249" opacity="1.00" d=" M 100.50 9.73 C 102.35 8.42 103.80 11.14 101.31 11.39 C 101.11 10.97 100.71 10.14 100.50 9.73 Z" />
<path fill="#565249" opacity="1.00" d=" M 156.31 10.27 C 157.68 8.10 159.23 11.00 157.13 11.77 C 156.93 11.39 156.52 10.64 156.31 10.27 Z" />
<path fill="#565249" opacity="1.00" d=" M 212.50 9.73 C 214.35 8.42 215.79 11.14 213.31 11.39 C 213.11 10.97 212.71 10.14 212.50 9.73 Z" />
<path fill="#565249" opacity="1.00" d=" M 43.74 35.16 C 45.48 35.09 47.23 35.04 48.97 34.99 C 48.98 35.77 49.00 37.33 49.01 38.11 C 47.25 37.13 45.49 36.15 43.74 35.16 Z" />
<path fill="#565249" opacity="1.00" d=" M 99.74 35.16 C 101.48 35.09 103.23 35.04 104.97 34.99 C 104.98 35.77 105.00 37.33 105.01 38.11 C 103.25 37.13 101.49 36.15 99.74 35.16 Z" />
<path fill="#565249" opacity="1.00" d=" M 155.74 35.16 C 157.48 35.09 159.23 35.04 160.97 34.99 C 160.98 35.77 161.00 37.33 161.01 38.11 C 159.25 37.13 157.49 36.15 155.74 35.16 Z" />
<path fill="#565249" opacity="1.00" d=" M 211.74 35.16 C 213.48 35.09 215.23 35.04 216.97 34.99 C 216.98 35.77 217.00 37.33 217.01 38.11 C 215.25 37.13 213.49 36.15 211.74 35.16 Z" />
<path fill="#565249" opacity="1.00" d=" M 44.38 37.55 C 46.60 36.78 47.09 39.84 44.62 39.34 C 44.56 38.89 44.44 38.00 44.38 37.55 Z" />
<path fill="#565249" opacity="1.00" d=" M 100.70 37.24 C 102.81 37.06 103.06 40.51 100.78 39.10 C 100.76 38.64 100.72 37.71 100.70 37.24 Z" />
<path fill="#565249" opacity="1.00" d=" M 156.37 38.34 C 157.49 36.05 159.35 38.80 157.35 39.76 C 157.11 39.41 156.62 38.69 156.37 38.34 Z" />
<path fill="#565249" opacity="1.00" d=" M 212.68 37.26 C 214.81 36.98 215.08 40.48 212.78 39.10 C 212.76 38.64 212.70 37.72 212.68 37.26 Z" />
</g>
<g id="#7b9eb5ff">
<path fill="#7b9eb5" opacity="1.00" d=" M 39.66 7.98 C 40.59 8.29 41.52 8.59 42.47 8.87 C 42.94 9.04 43.90 9.37 44.38 9.54 C 44.44 9.99 44.56 10.88 44.62 11.32 L 44.56 12.24 C 43.71 11.52 42.86 10.80 42.03 10.07 C 41.23 9.38 40.44 8.68 39.66 7.98 Z" />
<path fill="#7b9eb5" opacity="1.00" d=" M 39.71 36.19 C 40.69 36.46 41.67 36.71 42.65 36.96 C 43.08 37.11 43.95 37.40 44.38 37.55 C 44.44 38.00 44.56 38.89 44.62 39.34 L 44.56 40.25 C 43.70 39.52 42.85 38.79 41.99 38.07 C 41.23 37.44 40.47 36.81 39.71 36.19 Z" />
</g>
<g id="#6b995aff">
<path fill="#6b995a" opacity="1.00" d=" M 51.58 10.99 C 53.06 10.25 54.53 9.51 56.02 8.79 C 56.03 9.31 56.05 10.35 56.06 10.87 C 53.30 8.38 52.60 13.93 55.90 12.51 L 55.71 13.36 C 54.06 14.56 52.37 15.72 50.73 16.94 C 51.00 14.95 51.30 12.97 51.58 10.99 Z" />
<path fill="#6b995a" opacity="1.00" d=" M 107.58 10.99 C 109.05 10.25 110.53 9.51 112.02 8.79 C 112.03 9.32 112.04 10.37 112.05 10.90 C 109.32 8.38 108.61 13.92 111.90 12.56 L 111.70 13.52 C 110.05 14.65 108.37 15.75 106.73 16.91 C 107.00 14.93 107.30 12.96 107.58 10.99 Z" />
<path fill="#6b995a" opacity="1.00" d=" M 163.57 10.99 C 165.05 10.25 166.53 9.51 168.02 8.79 C 168.03 9.31 168.05 10.35 168.06 10.87 C 165.30 8.38 164.60 13.93 167.90 12.51 L 167.71 13.36 C 166.06 14.56 164.37 15.72 162.74 16.94 C 162.98 14.95 163.29 12.97 163.57 10.99 Z" />
<path fill="#6b995a" opacity="1.00" d=" M 219.59 11.27 C 221.07 10.25 222.55 9.22 224.00 8.13 L 224.00 10.77 C 221.01 8.45 220.81 14.19 224.00 12.38 L 224.00 12.94 C 222.26 14.29 220.48 15.60 218.74 16.95 C 219.00 15.05 219.32 13.17 219.59 11.27 Z" />
<path fill="#6b995a" opacity="1.00" d=" M 51.54 39.00 C 53.04 38.24 54.54 37.48 56.04 36.74 C 56.05 37.28 56.05 38.35 56.05 38.89 C 53.33 36.36 52.55 41.91 55.86 40.54 L 55.68 41.31 C 53.98 42.55 52.25 43.75 50.55 44.99 C 50.81 42.98 51.21 41.00 51.54 39.00 Z" />
<path fill="#6b995a" opacity="1.00" d=" M 107.54 38.99 C 109.03 38.24 110.53 37.50 112.03 36.76 C 112.04 37.29 112.07 38.33 112.08 38.86 C 109.26 36.40 108.69 41.98 111.97 40.50 L 111.84 41.28 C 110.09 42.52 108.30 43.72 106.55 44.96 C 106.81 42.96 107.22 40.98 107.54 38.99 Z" />
<path fill="#6b995a" opacity="1.00" d=" M 163.54 39.00 C 165.04 38.24 166.53 37.48 168.04 36.74 C 168.05 37.28 168.05 38.35 168.05 38.89 C 165.33 36.36 164.55 41.91 167.86 40.54 L 167.68 41.31 C 165.98 42.55 164.25 43.75 162.55 44.99 C 162.80 42.98 163.21 41.00 163.54 39.00 Z" />
<path fill="#6b995a" opacity="1.00" d=" M 219.55 39.27 C 221.04 38.24 222.54 37.21 224.00 36.11 L 224.00 38.78 C 221.01 36.45 220.81 42.19 224.00 40.39 L 224.00 40.96 C 222.20 42.33 220.37 43.63 218.56 44.98 C 218.81 43.06 219.23 41.18 219.55 39.27 Z" />
</g>
<g id="#86a0b1ff">
<path fill="#86a0b1" opacity="1.00" d=" M 98.98 9.78 C 99.36 9.76 100.12 9.74 100.50 9.73 C 100.71 10.14 101.11 10.97 101.31 11.39 L 100.99 12.02 C 99.66 12.31 98.68 11.01 98.98 9.78 Z" />
<path fill="#86a0b1" opacity="1.00" d=" M 210.98 9.78 C 211.36 9.76 212.12 9.74 212.50 9.73 C 212.71 10.14 213.11 10.97 213.31 11.39 L 212.99 12.02 C 211.65 12.31 210.68 11.00 210.98 9.78 Z" />
<path fill="#86a0b1" opacity="1.00" d=" M 100.48 19.39 C 98.92 18.99 98.22 16.93 99.20 15.66 C 100.77 16.14 101.07 18.06 100.48 19.39 Z" />
<path fill="#86a0b1" opacity="1.00" d=" M 212.48 19.39 C 210.92 18.99 210.22 16.94 211.20 15.67 C 212.77 16.13 213.07 18.06 212.48 19.39 Z" />
<path fill="#86a0b1" opacity="1.00" d=" M 41.87 21.23 L 42.58 21.57 C 42.85 22.01 43.38 22.88 43.64 23.31 C 43.61 23.73 43.55 24.55 43.51 24.97 L 42.99 25.46 C 42.41 24.58 41.95 23.64 41.62 22.65 C 41.68 22.29 41.81 21.58 41.87 21.23 Z" />
<path fill="#86a0b1" opacity="1.00" d=" M 155.59 23.22 L 156.22 22.77 C 156.52 23.07 157.11 23.67 157.40 23.98 L 157.23 24.71 C 156.78 24.75 155.88 24.82 155.43 24.86 C 155.47 24.45 155.55 23.63 155.59 23.22 Z" />
<path fill="#86a0b1" opacity="1.00" d=" M 100.33 47.48 C 98.37 47.03 97.87 44.36 99.89 43.59 C 101.14 44.47 100.92 46.28 100.33 47.48 Z" />
<path fill="#86a0b1" opacity="1.00" d=" M 212.33 47.48 C 210.36 47.03 209.88 44.35 211.91 43.58 C 213.12 44.48 212.91 46.28 212.33 47.48 Z" />
</g>
<g id="#3490d2ff">
<path fill="#3490d2" opacity="1.00" d=" M 42.03 10.07 C 42.86 10.80 43.71 11.52 44.56 12.24 C 44.48 13.44 44.38 14.63 44.32 15.83 C 43.60 15.95 42.14 16.18 41.42 16.30 C 41.57 14.74 41.87 11.63 42.03 10.07 Z" />
<path fill="#3490d2" opacity="1.00" d=" M 41.99 38.07 C 42.85 38.79 43.70 39.52 44.56 40.25 C 44.47 41.47 44.37 42.70 44.33 43.93 C 43.60 44.05 42.14 44.30 41.42 44.43 C 41.56 42.84 41.84 39.66 41.99 38.07 Z" />
</g>
<g id="#8db764ff">
<path fill="#8db764" opacity="1.00" d=" M 55.90 12.51 C 52.60 13.93 53.30 8.38 56.06 10.87 C 56.02 11.28 55.94 12.10 55.90 12.51 Z" />
<path fill="#8db764" opacity="1.00" d=" M 111.90 12.56 C 108.61 13.92 109.32 8.38 112.05 10.90 C 112.01 11.32 111.94 12.15 111.90 12.56 Z" />
<path fill="#8db764" opacity="1.00" d=" M 167.90 12.51 C 164.60 13.93 165.30 8.38 168.06 10.87 C 168.02 11.28 167.94 12.10 167.90 12.51 Z" />
<path fill="#8db764" opacity="1.00" d=" M 224.00 12.38 C 220.81 14.19 221.01 8.45 224.00 10.77 L 224.00 12.38 Z" />
<path fill="#8db764" opacity="1.00" d=" M 55.86 40.54 C 52.55 41.91 53.33 36.36 56.05 38.89 C 56.00 39.30 55.91 40.13 55.86 40.54 Z" />
<path fill="#8db764" opacity="1.00" d=" M 111.97 40.50 C 108.69 41.98 109.26 36.40 112.08 38.86 C 112.05 39.27 112.00 40.09 111.97 40.50 Z" />
<path fill="#8db764" opacity="1.00" d=" M 167.86 40.54 C 164.55 41.91 165.33 36.36 168.05 38.89 C 168.00 39.30 167.91 40.13 167.86 40.54 Z" />
<path fill="#8db764" opacity="1.00" d=" M 224.00 40.39 C 220.81 42.19 221.01 36.45 224.00 38.78 L 224.00 40.39 Z" />
</g>
<g id="#4279caff">
<path fill="#4279ca" opacity="1.00" d=" M 120.51 17.10 C 124.46 16.33 128.22 14.81 132.08 13.67 C 129.38 15.00 126.63 16.21 123.87 17.41 C 123.89 19.12 123.92 20.83 123.97 22.54 C 119.87 24.15 115.89 26.01 111.96 28.00 C 111.96 27.54 111.97 26.61 111.97 26.14 C 115.33 24.14 118.97 22.70 122.49 21.02 C 119.02 19.52 115.42 18.33 111.75 17.44 C 111.73 16.84 111.71 15.66 111.69 15.06 C 114.59 15.82 117.46 17.26 120.51 17.10 Z" />
</g>
<g id="#7ca85efe">
<path fill="#7ca85e" opacity="1.00" d=" M 50.73 16.94 C 52.37 15.72 54.06 14.56 55.71 13.36 C 55.73 14.09 55.75 15.56 55.76 16.29 C 55.78 16.81 55.81 17.84 55.83 18.36 C 55.97 21.42 56.06 24.49 56.12 27.56 C 56.12 28.04 56.10 29.01 56.10 29.50 C 56.07 31.91 56.05 34.33 56.04 36.74 C 54.54 37.48 53.04 38.24 51.54 39.00 C 51.91 36.64 52.35 34.29 52.80 31.95 C 51.92 32.59 51.03 33.23 50.15 33.87 L 50.27 32.81 C 50.39 31.65 50.47 30.49 50.50 29.33 C 50.51 28.89 50.54 28.00 50.55 27.56 L 50.57 27.03 C 50.28 26.37 49.69 25.05 49.40 24.39 C 49.49 24.06 49.67 23.39 49.76 23.05 C 50.21 21.04 50.43 18.98 50.73 16.94 Z" />
<path fill="#7ca85e" opacity="1.00" d=" M 106.73 16.91 C 108.37 15.75 110.05 14.65 111.70 13.52 L 111.69 15.06 C 111.71 15.66 111.73 16.84 111.75 17.44 C 111.85 20.34 111.92 23.24 111.97 26.14 C 111.97 26.61 111.96 27.54 111.96 28.00 C 111.96 30.92 111.98 33.84 112.03 36.76 C 110.53 37.50 109.03 38.24 107.54 38.99 C 107.91 36.64 108.35 34.29 108.80 31.95 C 107.92 32.59 107.03 33.24 106.15 33.88 L 106.27 32.81 C 106.39 31.65 106.47 30.49 106.49 29.33 C 106.50 28.88 106.52 27.99 106.54 27.55 L 106.55 27.02 C 106.26 26.36 105.69 25.04 105.40 24.37 C 105.49 24.04 105.67 23.38 105.76 23.04 C 106.21 21.02 106.43 18.96 106.73 16.91 Z" />
<path fill="#7ca85e" opacity="1.00" d=" M 162.74 16.94 C 164.37 15.72 166.06 14.56 167.71 13.36 C 167.73 14.09 167.75 15.56 167.76 16.29 C 167.78 16.81 167.81 17.84 167.83 18.36 C 167.96 21.42 168.06 24.49 168.12 27.56 C 168.12 28.04 168.10 29.01 168.10 29.50 C 168.07 31.91 168.05 34.33 168.04 36.74 C 166.53 37.48 165.04 38.24 163.54 39.00 C 163.91 36.64 164.35 34.29 164.80 31.95 C 163.92 32.59 163.04 33.22 162.16 33.86 L 162.28 32.79 C 162.40 31.64 162.49 30.48 162.52 29.33 C 162.53 28.85 162.55 27.89 162.56 27.41 L 162.58 26.86 C 162.25 26.24 161.57 25.00 161.24 24.38 C 161.39 24.05 161.71 23.39 161.87 23.07 C 162.30 21.05 162.46 18.98 162.74 16.94 Z" />
<path fill="#7ca85e" opacity="1.00" d=" M 218.74 16.95 C 220.48 15.60 222.26 14.29 224.00 12.94 L 224.00 36.11 C 222.54 37.21 221.04 38.24 219.55 39.27 C 219.92 36.83 220.35 34.39 220.79 31.95 C 219.91 32.58 219.03 33.21 218.15 33.83 L 218.27 32.72 C 218.38 31.59 218.46 30.46 218.49 29.33 C 218.50 28.88 218.52 27.99 218.53 27.55 L 218.55 27.02 C 218.27 26.36 217.69 25.04 217.40 24.38 C 217.49 24.04 217.67 23.38 217.76 23.05 C 218.21 21.04 218.43 18.98 218.74 16.95 Z" />
</g>
<g id="#4478cbff">
<path fill="#4478cb" opacity="1.00" d=" M 137.54 15.27 C 138.41 14.13 140.38 15.59 139.46 16.73 C 138.58 17.87 136.62 16.41 137.54 15.27 Z" />
</g>
<g id="#86a0b0fe">
<path fill="#86a0b0" opacity="1.00" d=" M 41.42 16.30 C 42.14 16.18 43.60 15.95 44.32 15.83 C 44.35 17.06 44.16 18.31 43.56 19.40 C 42.69 18.71 41.90 17.91 41.35 16.94 L 41.42 16.30 Z" />
<path fill="#86a0b0" opacity="1.00" d=" M 41.42 44.43 C 42.14 44.30 43.60 44.05 44.33 43.93 C 44.34 45.10 44.49 46.34 43.98 47.43 C 42.97 46.80 42.04 46.02 41.36 45.04 L 41.42 44.43 Z" />
</g>
<g id="#427acbff">
<path fill="#427acb" opacity="1.00" d=" M 55.76 16.29 C 60.15 17.76 64.78 19.06 69.35 17.58 C 68.62 19.89 68.06 22.23 67.66 24.61 C 63.81 26.24 60.12 28.29 56.10 29.50 C 56.10 29.01 56.12 28.04 56.12 27.56 C 59.68 25.79 63.38 24.34 66.90 22.49 C 63.43 20.56 59.63 19.40 55.83 18.36 C 55.81 17.84 55.78 16.81 55.76 16.29 Z" />
<path fill="#427acb" opacity="1.00" d=" M 167.76 16.29 C 172.15 17.76 176.78 19.06 181.35 17.58 C 180.62 19.89 180.06 22.23 179.66 24.61 C 175.81 26.24 172.12 28.29 168.10 29.50 C 168.10 29.01 168.12 28.04 168.12 27.56 C 171.67 25.79 175.38 24.34 178.90 22.49 C 175.43 20.56 171.63 19.40 167.83 18.36 C 167.81 17.84 167.78 16.81 167.76 16.29 Z" />
<path fill="#427acb" opacity="1.00" d=" M 0.00 17.44 C 6.41 20.57 13.32 19.33 19.95 17.77 C 17.34 19.08 14.32 19.88 12.20 21.96 C 11.69 23.53 11.70 25.21 11.56 26.85 C 7.69 28.23 3.82 29.60 0.00 31.11 L 0.00 29.21 C 3.82 27.56 7.76 26.13 11.35 23.99 C 7.76 21.87 3.83 20.45 0.00 18.85 L 0.00 17.44 Z" />
<path fill="#427acb" opacity="1.00" d=" M 22.34 17.96 C 26.06 20.09 28.99 23.23 31.71 26.48 C 27.51 26.09 23.58 27.86 19.89 29.66 C 19.88 30.60 19.85 32.47 19.84 33.41 C 24.41 35.90 29.67 36.03 34.26 33.50 C 33.73 31.48 33.20 29.45 32.69 27.42 C 34.83 30.04 36.69 32.88 38.91 35.43 L 39.16 35.75 C 36.85 36.16 34.54 36.58 32.24 36.99 C 30.28 41.86 27.12 46.05 23.81 50.08 C 29.70 50.47 35.58 50.87 41.48 50.89 C 34.69 51.15 27.89 51.32 21.10 50.81 C 21.01 49.23 20.89 47.66 20.75 46.09 C 23.36 44.29 25.92 42.42 28.22 40.25 C 24.98 38.57 21.68 36.63 17.97 36.26 C 14.46 36.40 11.36 38.30 8.33 39.87 C 10.70 42.68 13.23 45.35 15.69 48.09 C 11.86 46.31 8.84 43.31 6.78 39.66 C 4.52 39.36 2.26 39.08 0.00 38.82 L 0.00 38.10 C 6.66 36.88 13.36 35.70 19.70 33.25 C 18.66 31.39 17.59 29.56 16.49 27.74 C 20.37 27.23 24.18 26.31 27.90 25.12 C 26.12 22.68 24.22 20.33 22.34 17.96 Z" />
<path fill="#427acb" opacity="1.00" d=" M 74.13 27.11 C 78.78 25.84 84.57 21.79 88.89 25.90 C 91.93 27.60 92.90 30.95 94.32 33.84 C 86.84 36.42 83.24 43.69 79.10 49.76 C 85.27 50.78 91.53 50.89 97.77 50.73 C 90.91 51.20 84.02 51.38 77.16 50.80 C 76.71 50.02 76.27 49.24 75.81 48.47 C 79.05 45.15 81.44 41.13 83.07 36.80 C 76.26 34.70 69.38 36.45 63.21 39.45 C 65.27 42.07 67.43 44.61 69.61 47.13 C 65.70 45.08 62.72 41.85 60.00 38.45 C 63.64 37.19 67.38 36.18 70.93 34.68 C 73.75 33.40 73.26 29.69 74.13 27.11 M 73.89 31.98 C 79.31 34.76 85.78 35.55 91.14 32.34 C 91.13 31.45 91.11 29.67 91.10 28.79 C 88.70 28.47 86.30 28.18 83.90 27.89 C 85.03 27.09 86.16 26.30 87.29 25.49 C 82.03 26.06 75.91 26.19 73.89 31.98 Z" />
<path fill="#427acb" opacity="1.00" d=" M 196.27 24.18 C 199.13 24.44 201.66 26.06 204.33 26.94 C 204.60 29.28 204.92 31.61 205.29 33.94 C 198.69 37.27 195.03 43.86 191.08 49.75 C 197.26 50.78 203.52 50.89 209.76 50.74 C 202.90 51.19 196.02 51.37 189.16 50.80 C 188.71 50.02 188.27 49.24 187.81 48.47 C 191.05 45.15 193.43 41.13 195.07 36.80 C 188.26 34.70 181.38 36.45 175.21 39.45 C 177.27 42.07 179.43 44.61 181.61 47.13 C 177.70 45.08 174.72 41.85 172.00 38.45 C 175.64 37.19 179.37 36.18 182.93 34.68 C 185.75 33.39 185.25 29.68 186.13 27.10 C 189.44 25.94 192.74 24.48 196.27 24.18 M 185.96 31.82 C 188.59 32.95 191.07 34.55 193.85 35.33 C 197.16 35.28 200.15 33.61 203.10 32.26 C 203.10 31.39 203.10 29.66 203.11 28.79 C 200.70 28.48 198.30 28.18 195.90 27.89 C 197.03 27.09 198.16 26.30 199.29 25.49 C 194.10 26.10 188.02 26.14 185.96 31.82 Z" />
</g>
<g id="#2889d5ff">
<path fill="#2889d5" opacity="1.00" d=" M 41.87 21.23 C 41.66 19.80 41.43 18.38 41.35 16.94 C 41.90 17.91 42.69 18.71 43.56 19.40 C 43.31 19.94 42.82 21.03 42.58 21.57 L 41.87 21.23 Z" />
</g>
<g id="#3c6abefe">
<path fill="#3c6abe" opacity="1.00" d=" M 55.83 18.36 C 59.63 19.40 63.43 20.56 66.90 22.49 C 63.38 24.34 59.68 25.79 56.12 27.56 C 56.06 24.49 55.97 21.42 55.83 18.36 Z" />
<path fill="#3c6abe" opacity="1.00" d=" M 167.83 18.36 C 171.63 19.40 175.43 20.56 178.90 22.49 C 175.38 24.34 171.67 25.79 168.12 27.56 C 168.06 24.49 167.96 21.42 167.83 18.36 Z" />
</g>
<g id="#3c6abeff">
<path fill="#3c6abe" opacity="1.00" d=" M 0.00 18.85 C 3.83 20.45 7.76 21.87 11.35 23.99 C 7.76 26.13 3.82 27.56 0.00 29.21 L 0.00 18.85 Z" />
</g>
<g id="#437acbff">
<path fill="#437acb" opacity="1.00" d=" M 127.97 32.36 C 127.47 24.80 135.54 23.46 141.11 22.39 C 146.91 22.34 148.92 29.02 151.05 33.29 C 147.77 34.75 142.86 35.26 141.89 39.40 C 141.14 42.56 139.22 45.14 136.37 46.72 C 137.58 43.41 138.60 39.99 138.57 36.43 C 134.33 35.74 130.15 34.77 126.01 33.63 C 126.50 33.31 127.48 32.68 127.97 32.36 M 129.05 30.71 C 135.19 34.07 145.42 36.33 148.91 28.36 C 145.67 28.14 142.45 27.84 139.23 27.47 C 140.79 26.81 143.93 25.49 145.49 24.84 C 139.60 22.20 131.96 24.99 129.05 30.71 Z" />
</g>
<g id="#adc2d9ff">
<path fill="#adc2d9" opacity="1.00" d=" M 43.64 23.31 L 44.24 22.88 C 44.54 23.18 45.15 23.79 45.45 24.09 L 45.33 24.83 C 44.87 24.86 43.97 24.93 43.51 24.97 C 43.55 24.55 43.61 23.73 43.64 23.31 Z" />
<path fill="#adc2d9" opacity="1.00" d=" M 99.64 23.20 L 100.25 22.75 C 100.54 23.05 101.13 23.66 101.42 23.97 L 101.24 24.69 C 100.78 24.72 99.86 24.80 99.40 24.83 C 99.46 24.42 99.58 23.60 99.64 23.20 Z" />
<path fill="#adc2d9" opacity="1.00" d=" M 211.64 23.20 L 212.25 22.75 C 212.54 23.05 213.13 23.66 213.42 23.97 L 213.24 24.69 C 212.78 24.72 211.86 24.79 211.40 24.83 C 211.46 24.42 211.58 23.60 211.64 23.20 Z" />
</g>
<g id="#3c6bbdff">
<path fill="#3c6bbd" opacity="1.00" d=" M 129.05 30.71 C 131.96 24.99 139.60 22.20 145.49 24.84 C 143.93 25.49 140.79 26.81 139.23 27.47 C 142.45 27.84 145.67 28.14 148.91 28.36 C 145.42 36.33 135.19 34.07 129.05 30.71 Z" />
<path fill="#3c6bbd" opacity="1.00" d=" M 73.89 31.98 C 75.91 26.19 82.03 26.06 87.29 25.49 C 86.16 26.30 85.03 27.09 83.90 27.89 C 86.30 28.18 88.70 28.47 91.10 28.79 C 91.11 29.67 91.13 31.45 91.14 32.34 C 85.78 35.55 79.31 34.76 73.89 31.98 Z" />
<path fill="#3c6bbd" opacity="1.00" d=" M 185.96 31.82 C 188.02 26.14 194.10 26.10 199.29 25.49 C 198.16 26.30 197.03 27.09 195.90 27.89 C 198.30 28.18 200.70 28.48 203.11 28.79 C 203.10 29.66 203.10 31.39 203.10 32.26 C 200.15 33.61 197.16 35.28 193.85 35.33 C 191.07 34.55 188.59 32.95 185.96 31.82 Z" />
</g>
<g id="#75634eff">
<path fill="#75634e" opacity="1.00" d=" M 45.45 24.09 C 46.03 24.24 47.19 24.54 47.77 24.70 L 47.48 25.40 L 46.87 25.90 C 46.48 25.63 45.71 25.09 45.33 24.83 L 45.45 24.09 Z" />
<path fill="#75634e" opacity="1.00" d=" M 101.42 23.97 C 102.00 24.14 103.18 24.48 103.76 24.64 L 103.46 25.32 L 102.83 25.78 C 102.43 25.50 101.64 24.96 101.24 24.69 L 101.42 23.97 Z" />
<path fill="#75634e" opacity="1.00" d=" M 157.40 23.98 C 157.97 24.15 159.11 24.49 159.68 24.67 L 159.41 25.35 L 158.81 25.82 C 158.41 25.54 157.62 24.99 157.23 24.71 L 157.40 23.98 Z" />
<path fill="#75634e" opacity="1.00" d=" M 213.42 23.97 C 214.00 24.14 215.18 24.48 215.76 24.64 L 215.46 25.32 L 214.83 25.78 C 214.43 25.51 213.64 24.96 213.24 24.69 L 213.42 23.97 Z" />
</g>
<g id="#416845ff">
<path fill="#416845" opacity="1.00" d=" M 48.60 24.70 L 49.40 24.39 C 49.69 25.05 50.28 26.37 50.57 27.03 C 49.50 26.62 48.84 25.85 48.60 24.70 Z" />
<path fill="#416845" opacity="1.00" d=" M 104.59 24.67 L 105.40 24.37 C 105.69 25.04 106.26 26.36 106.55 27.02 C 105.47 26.61 104.82 25.83 104.59 24.67 Z" />
<path fill="#416845" opacity="1.00" d=" M 160.46 24.69 L 161.24 24.38 C 161.57 25.00 162.25 26.24 162.58 26.86 C 161.50 26.52 160.79 25.79 160.46 24.69 Z" />
<path fill="#416845" opacity="1.00" d=" M 216.59 24.67 L 217.40 24.38 C 217.69 25.04 218.27 26.36 218.55 27.02 C 217.47 26.61 216.82 25.83 216.59 24.67 Z" />
</g>
<g id="#3b6bbefe">
<path fill="#3b6bbe" opacity="1.00" d=" M 43.51 24.97 C 43.97 24.93 44.87 24.86 45.33 24.83 C 45.71 25.09 46.48 25.63 46.87 25.90 C 46.07 27.89 42.97 27.99 42.99 25.46 L 43.51 24.97 Z" />
<path fill="#3b6bbe" opacity="1.00" d=" M 99.40 24.83 C 99.86 24.80 100.78 24.72 101.24 24.69 C 101.64 24.96 102.43 25.50 102.83 25.78 C 102.32 27.96 99.42 28.07 99.30 25.59 L 99.40 24.83 Z" />
<path fill="#3b6bbe" opacity="1.00" d=" M 155.43 24.86 C 155.88 24.82 156.78 24.75 157.23 24.71 C 157.62 24.99 158.41 25.54 158.81 25.82 C 158.34 28.06 155.42 28.09 155.32 25.63 L 155.43 24.86 Z" />
<path fill="#3b6bbe" opacity="1.00" d=" M 211.40 24.83 C 211.86 24.79 212.78 24.72 213.24 24.69 C 213.64 24.96 214.43 25.51 214.83 25.78 C 214.31 27.96 211.42 28.07 211.29 25.59 L 211.40 24.83 Z" />
</g>
<g id="#34302bff">
<path fill="#34302b" opacity="1.00" d=" M 46.87 25.90 L 47.48 25.40 C 47.40 27.00 49.05 28.24 50.55 27.56 C 50.54 28.00 50.51 28.89 50.50 29.33 C 49.17 29.51 47.84 29.69 46.51 29.87 C 46.49 29.37 46.45 28.35 46.43 27.85 C 45.25 28.59 44.07 29.33 42.90 30.09 C 42.91 29.40 42.94 28.03 42.95 27.35 C 42.96 26.88 42.98 25.93 42.99 25.46 C 42.97 27.99 46.07 27.89 46.87 25.90 Z" />
<path fill="#34302b" opacity="1.00" d=" M 158.81 25.82 L 159.41 25.35 C 159.38 26.96 161.08 28.20 162.56 27.41 C 162.55 27.89 162.53 28.85 162.52 29.33 C 161.18 29.52 159.84 29.70 158.50 29.88 C 158.49 29.37 158.46 28.35 158.45 27.84 C 157.24 28.58 156.03 29.33 154.83 30.09 C 154.98 28.60 155.13 27.11 155.32 25.63 C 155.42 28.09 158.34 28.06 158.81 25.82 Z" />
</g>
<g id="#3f3c3bff">
<path fill="#3f3c3b" opacity="1.00" d=" M 102.83 25.78 L 103.46 25.32 C 103.36 26.94 105.01 28.21 106.54 27.55 C 106.52 27.99 106.50 28.88 106.49 29.33 C 105.16 29.51 103.84 29.69 102.51 29.86 C 102.43 29.33 102.26 28.26 102.18 27.73 C 100.93 29.34 99.72 30.98 98.48 32.60 C 98.74 30.26 99.00 27.92 99.30 25.59 C 99.42 28.07 102.32 27.96 102.83 25.78 Z" />
<path fill="#3f3c3b" opacity="1.00" d=" M 214.83 25.78 L 215.46 25.32 C 215.36 26.94 217.01 28.21 218.53 27.55 C 218.52 27.99 218.50 28.88 218.49 29.33 C 217.18 29.51 215.87 29.69 214.56 29.88 C 214.41 29.29 214.09 28.13 213.94 27.55 C 212.76 29.17 211.59 30.80 210.51 32.49 C 210.75 30.19 211.00 27.89 211.29 25.59 C 211.42 28.07 214.31 27.96 214.83 25.78 Z" />
</g>
<g id="#4e5e48ff">
<path fill="#4e5e48" opacity="1.00" d=" M 50.15 33.87 C 51.03 33.23 51.92 32.59 52.80 31.95 C 52.35 34.29 51.91 36.64 51.54 39.00 C 51.21 41.00 50.81 42.98 50.55 44.99 C 50.26 47.24 50.35 49.50 50.59 51.75 C 49.57 50.85 48.52 49.99 47.47 49.12 C 48.59 44.08 49.55 39.00 50.15 33.87 Z" />
<path fill="#4e5e48" opacity="1.00" d=" M 106.15 33.88 C 107.03 33.24 107.92 32.59 108.80 31.95 C 108.35 34.29 107.91 36.64 107.54 38.99 C 107.22 40.98 106.81 42.96 106.55 44.96 C 106.25 47.21 106.35 49.49 106.59 51.75 C 105.57 50.85 104.52 49.99 103.47 49.12 C 104.58 44.08 105.55 39.01 106.15 33.88 Z" />
<path fill="#4e5e48" opacity="1.00" d=" M 162.16 33.86 C 163.04 33.22 163.92 32.59 164.80 31.95 C 164.35 34.29 163.91 36.64 163.54 39.00 C 163.21 41.00 162.80 42.98 162.55 44.99 C 162.26 47.24 162.35 49.51 162.59 51.75 C 161.57 50.85 160.52 49.99 159.47 49.12 C 160.59 44.07 161.54 38.99 162.16 33.86 Z" />
<path fill="#4e5e48" opacity="1.00" d=" M 218.15 33.83 C 219.03 33.21 219.91 32.58 220.79 31.95 C 220.35 34.39 219.92 36.83 219.55 39.27 C 219.23 41.18 218.81 43.06 218.56 44.98 C 218.25 47.23 218.34 49.51 218.59 51.77 C 217.57 50.86 216.52 50.00 215.47 49.13 C 216.59 44.07 217.55 38.98 218.15 33.83 Z" />
</g>
<g id="#2c89d6ff">
<path fill="#2c89d6" opacity="1.00" d=" M 96.85 36.65 C 95.49 35.37 97.39 33.90 98.21 32.93 C 98.23 33.75 98.28 35.38 98.30 36.19 C 97.94 36.31 97.21 36.54 96.85 36.65 Z" />
</g>
<g id="#268dd9ff">
<path fill="#268dd9" opacity="1.00" d=" M 151.89 35.00 C 152.91 34.63 153.93 34.27 154.95 33.90 C 155.35 35.40 155.84 36.88 156.37 38.34 C 156.62 38.69 157.11 39.41 157.35 39.76 C 156.50 43.36 156.21 47.06 155.21 50.63 C 154.13 48.57 152.92 46.59 151.59 44.68 C 152.85 44.68 154.12 44.68 155.39 44.70 C 154.31 41.43 153.23 38.16 151.89 35.00 Z" />
</g>
<g id="#4379caff">
<path fill="#4379ca" opacity="1.00" d=" M 114.61 36.97 C 119.62 37.55 124.47 35.93 129.37 35.16 C 125.34 37.08 121.23 38.85 117.32 41.01 C 117.40 40.58 117.57 39.71 117.65 39.28 C 116.42 39.07 115.20 38.86 113.98 38.65 C 114.19 38.09 114.40 37.53 114.61 36.97 Z" />
</g>
<g id="#3c6cbfff">
<path fill="#3c6cbf" opacity="1.00" d=" M 32.24 36.99 C 34.54 36.58 36.85 36.16 39.16 35.75 L 39.71 36.19 C 40.47 36.81 41.23 37.44 41.99 38.07 C 41.84 39.66 41.56 42.84 41.42 44.43 L 41.36 45.04 C 41.52 47.02 42.03 48.95 42.46 50.89 L 41.48 50.89 C 35.58 50.87 29.70 50.47 23.81 50.08 C 27.12 46.05 30.28 41.86 32.24 36.99 Z" />
</g>
<g id="#7a9db6ff">
<path fill="#7a9db6" opacity="1.00" d=" M 96.85 36.65 C 97.21 36.54 97.94 36.31 98.30 36.19 C 98.90 36.45 100.10 36.98 100.70 37.24 C 100.72 37.71 100.76 38.64 100.78 39.10 L 100.91 40.47 C 100.61 40.29 100.01 39.93 99.72 39.75 C 98.72 38.75 97.77 37.72 96.85 36.65 Z" />
<path fill="#7a9db6" opacity="1.00" d=" M 208.57 36.60 C 208.95 36.54 209.72 36.42 210.10 36.36 C 210.75 36.58 212.03 37.03 212.68 37.26 C 212.70 37.72 212.76 38.64 212.78 39.10 L 212.92 40.46 C 212.64 40.27 212.06 39.89 211.78 39.69 C 210.67 38.70 209.61 37.65 208.57 36.60 Z" />
</g>
<g id="#4c95c9ff">
<path fill="#4c95c9" opacity="1.00" d=" M 99.72 39.75 C 100.01 39.93 100.61 40.29 100.91 40.47 C 101.15 41.77 100.65 42.66 99.41 43.15 L 98.86 42.68 C 99.07 41.95 99.50 40.48 99.72 39.75 Z" />
<path fill="#4c95c9" opacity="1.00" d=" M 211.78 39.69 C 212.06 39.89 212.64 40.27 212.92 40.46 C 213.17 41.76 212.67 42.65 211.42 43.13 L 210.87 42.64 C 211.10 41.91 211.55 40.43 211.78 39.69 Z" />
</g>
<g id="#81ab5dff">
<path fill="#81ab5d" opacity="1.00" d=" M 50.55 44.99 C 52.25 43.75 53.98 42.55 55.68 41.31 C 55.64 44.28 55.64 47.25 55.71 50.22 C 56.66 51.19 57.61 52.15 58.56 53.12 C 57.39 53.47 56.24 53.88 55.09 54.27 C 54.58 53.57 54.07 52.86 53.55 52.16 C 52.67 52.15 51.80 52.12 50.92 52.10 L 50.59 51.75 C 50.35 49.50 50.26 47.24 50.55 44.99 Z" />
<path fill="#81ab5d" opacity="1.00" d=" M 106.55 44.96 C 108.30 43.72 110.09 42.52 111.84 41.28 C 111.81 42.93 111.79 44.57 111.79 46.22 C 111.78 46.71 111.76 47.69 111.75 48.18 C 111.85 48.59 112.06 49.41 112.16 49.82 C 112.70 50.82 113.29 51.79 113.89 52.75 C 113.07 53.47 112.25 54.18 111.43 54.88 C 110.81 53.96 110.18 53.06 109.56 52.14 C 108.68 52.14 107.79 52.12 106.91 52.10 L 106.59 51.75 C 106.35 49.49 106.25 47.21 106.55 44.96 Z" />
<path fill="#81ab5d" opacity="1.00" d=" M 162.55 44.99 C 164.25 43.75 165.98 42.55 167.68 41.31 C 167.63 44.28 167.64 47.25 167.71 50.22 C 168.66 51.19 169.61 52.15 170.56 53.12 C 169.39 53.47 168.24 53.88 167.09 54.27 C 166.57 53.57 166.06 52.86 165.56 52.16 C 164.68 52.15 163.80 52.13 162.93 52.11 L 162.59 51.75 C 162.35 49.51 162.26 47.24 162.55 44.99 Z" />
</g>
<g id="#3c7acdff">
<path fill="#3c7acd" opacity="1.00" d=" M 86.64 44.27 C 90.66 43.40 94.74 42.79 98.86 42.68 L 99.41 43.15 L 99.89 43.59 C 97.87 44.36 98.37 47.03 100.33 47.48 C 100.05 48.21 99.76 48.94 99.48 49.67 C 96.56 45.47 91.16 45.31 86.64 44.27 Z" />
</g>
<g id="#3b7acdff">
<path fill="#3b7acd" opacity="1.00" d=" M 198.64 44.27 C 202.67 43.39 206.75 42.78 210.87 42.64 L 211.42 43.13 L 211.91 43.58 C 209.88 44.35 210.36 47.03 212.33 47.48 C 212.05 48.21 211.76 48.94 211.48 49.67 C 208.56 45.47 203.16 45.31 198.64 44.27 Z" />
</g>
<g id="#80ab5dff">
<path fill="#80ab5d" opacity="1.00" d=" M 218.56 44.98 C 220.37 43.63 222.20 42.33 224.00 40.96 L 224.00 54.69 C 222.52 53.49 220.85 52.51 218.96 52.18 L 218.59 51.77 C 218.34 49.51 218.25 47.23 218.56 44.98 Z" />
</g>
<g id="#318cd2ff">
<path fill="#318cd2" opacity="1.00" d=" M 42.46 50.89 C 42.03 48.95 41.52 47.02 41.36 45.04 C 42.04 46.02 42.97 46.80 43.98 47.43 C 43.51 48.60 43.00 49.75 42.46 50.89 Z" />
</g>
<g id="#417fcbff">
<path fill="#417fcb" opacity="1.00" d=" M 57.30 47.09 C 59.25 46.39 61.20 45.70 63.16 45.03 C 62.03 46.64 60.88 48.23 59.75 49.83 C 64.61 50.16 69.46 50.45 74.32 50.71 C 69.10 51.33 63.75 51.92 58.56 50.77 C 58.14 49.54 57.72 48.31 57.30 47.09 Z" />
<path fill="#417fcb" opacity="1.00" d=" M 169.30 47.09 C 171.25 46.39 173.20 45.70 175.16 45.03 C 174.03 46.64 172.88 48.23 171.75 49.83 C 176.61 50.16 181.45 50.45 186.32 50.71 C 181.10 51.33 175.75 51.92 170.56 50.77 C 170.14 49.54 169.72 48.31 169.30 47.09 Z" />
</g>
<g id="#407ecaff">
<path fill="#407eca" opacity="1.00" d=" M 111.79 46.22 C 114.23 45.61 116.68 45.05 119.14 44.53 C 117.76 45.58 116.38 46.64 115.01 47.70 C 115.32 48.23 115.93 49.29 116.24 49.82 C 120.93 50.16 125.63 50.47 130.34 50.70 C 125.13 51.36 119.80 51.78 114.61 50.67 C 114.84 49.15 113.28 47.54 111.75 48.18 C 111.76 47.69 111.78 46.71 111.79 46.22 Z" />
</g>
<g id="#4181caff">
<path fill="#4181ca" opacity="1.00" d=" M 131.61 46.97 C 132.45 46.25 133.29 45.53 134.14 44.82 C 134.94 46.61 135.74 48.40 136.54 50.19 C 142.30 50.75 148.08 50.78 153.85 50.69 C 147.03 51.15 140.19 51.42 133.37 50.80 C 132.84 49.50 132.26 48.22 131.61 46.97 Z" />
</g>
<g id="#4080cbff">
<path fill="#4080cb" opacity="1.00" d=" M 3.06 47.75 C 4.67 47.38 6.29 47.02 7.91 46.66 C 6.92 47.77 5.92 48.87 4.92 49.97 C 9.39 50.24 13.86 50.52 18.33 50.74 C 12.77 51.44 7.01 51.98 1.57 50.27 C 2.06 49.43 2.56 48.59 3.06 47.75 Z" />
</g>
<g id="#43583fff">
<path fill="#43583f" opacity="1.00" d=" M -0.00 51.83 C 0.52 51.30 1.04 50.78 1.57 50.27 C 7.01 51.98 12.77 51.44 18.33 50.74 C 19.02 50.76 20.41 50.79 21.10 50.81 C 27.89 51.32 34.69 51.15 41.48 50.89 L 42.46 50.89 L 42.15 51.51 C 35.85 55.21 28.35 52.33 21.51 52.51 C 21.29 52.35 20.86 52.03 20.64 51.87 C 19.47 50.62 17.78 51.69 16.77 52.57 C 14.69 52.73 12.62 52.94 10.54 53.04 C 7.02 52.89 3.51 52.48 0.00 52.17 L 0.00 51.83 Z" />
</g>
<g id="#425741ff">
<path fill="#425741" opacity="1.00" d=" M 55.71 50.22 C 56.42 50.36 57.85 50.63 58.56 50.77 C 63.75 51.92 69.10 51.33 74.32 50.71 C 75.03 50.73 76.45 50.78 77.16 50.80 C 84.02 51.38 90.91 51.20 97.77 50.73 L 99.08 50.66 L 98.67 51.52 C 92.08 55.07 84.47 52.33 77.40 52.60 C 77.20 52.45 76.79 52.15 76.58 52.01 C 75.56 50.97 74.00 51.21 72.83 51.81 C 70.68 52.60 68.50 53.30 66.37 54.14 C 65.66 53.49 64.84 52.66 63.78 52.83 C 62.04 52.86 60.29 52.92 58.56 53.12 C 57.61 52.15 56.66 51.19 55.71 50.22 Z" />
<path fill="#425741" opacity="1.00" d=" M 112.16 49.82 C 112.78 50.03 114.00 50.46 114.61 50.67 C 119.80 51.78 125.13 51.36 130.34 50.70 C 131.10 50.72 132.61 50.78 133.37 50.80 C 140.19 51.42 147.03 51.15 153.85 50.69 L 155.21 50.63 L 154.92 51.48 C 148.24 55.04 140.56 52.35 133.41 52.60 C 133.20 52.45 132.78 52.15 132.58 52.00 C 131.56 50.97 130.00 51.20 128.83 51.81 C 126.70 52.61 124.53 53.31 122.42 54.15 C 121.67 53.50 120.80 52.82 119.74 52.91 C 117.79 52.83 115.84 52.79 113.89 52.75 C 113.29 51.79 112.70 50.82 112.16 49.82 Z" />
<path fill="#425741" opacity="1.00" d=" M 167.71 50.22 C 168.42 50.36 169.85 50.63 170.56 50.77 C 175.75 51.92 181.10 51.33 186.32 50.71 C 187.03 50.73 188.45 50.78 189.16 50.80 C 196.02 51.37 202.90 51.19 209.76 50.74 L 211.07 50.68 L 210.66 51.55 C 204.06 55.04 196.47 52.34 189.41 52.60 C 189.20 52.45 188.79 52.15 188.58 52.01 C 187.56 50.97 186.00 51.21 184.83 51.81 C 182.68 52.60 180.50 53.30 178.37 54.14 C 177.66 53.49 176.83 52.66 175.78 52.83 C 174.03 52.87 172.29 52.91 170.56 53.12 C 169.61 52.15 168.66 51.19 167.71 50.22 Z" />
</g>
<g id="#93bd6bff">
<path fill="#93bd6b" opacity="1.00" d=" M 16.77 52.57 C 17.78 51.69 19.47 50.62 20.64 51.87 C 19.87 53.30 18.04 53.01 16.77 52.57 Z" />
<path fill="#93bd6b" opacity="1.00" d=" M 72.83 51.81 C 74.00 51.21 75.56 50.97 76.58 52.01 C 75.67 53.27 73.62 53.13 72.83 51.81 Z" />
<path fill="#93bd6b" opacity="1.00" d=" M 128.83 51.81 C 130.00 51.20 131.56 50.97 132.58 52.00 C 131.66 53.26 129.62 53.13 128.83 51.81 Z" />
<path fill="#93bd6b" opacity="1.00" d=" M 184.83 51.81 C 186.00 51.21 187.56 50.97 188.58 52.01 C 187.66 53.27 185.62 53.13 184.83 51.81 Z" />
</g>
<g id="#7aa55bff">
<path fill="#7aa55b" opacity="1.00" d=" M 42.15 51.51 C 43.83 51.59 45.51 51.68 47.19 51.78 C 47.86 53.25 48.66 54.67 49.58 56.00 L 23.00 56.00 C 22.63 55.13 21.88 53.38 21.51 52.51 C 28.35 52.33 35.85 55.21 42.15 51.51 Z" />
<path fill="#7aa55b" opacity="1.00" d=" M 98.67 51.52 C 100.17 51.60 101.68 51.68 103.18 51.78 C 103.86 53.25 104.65 54.67 105.58 56.00 L 79.03 56.00 C 78.62 55.15 77.81 53.45 77.40 52.60 C 84.47 52.33 92.08 55.07 98.67 51.52 Z" />
<path fill="#7aa55b" opacity="1.00" d=" M 154.92 51.48 C 156.34 51.57 157.76 51.67 159.18 51.77 C 159.85 53.25 160.65 54.67 161.58 56.00 L 135.03 56.00 C 134.62 55.15 133.81 53.45 133.41 52.60 C 140.56 52.35 148.24 55.04 154.92 51.48 Z" />
<path fill="#7aa55b" opacity="1.00" d=" M 210.66 51.55 C 212.19 51.56 213.72 51.57 215.26 51.60 C 215.92 53.12 216.69 54.59 217.57 56.00 L 191.03 56.00 C 190.62 55.15 189.81 53.45 189.41 52.60 C 196.47 52.34 204.06 55.04 210.66 51.55 Z" />
</g>
<g id="#446445fe">
<path fill="#446445" opacity="1.00" d=" M 47.19 51.78 C 48.09 51.84 49.00 51.92 49.90 52.04 C 50.16 53.35 50.18 54.67 49.96 56.00 L 49.58 56.00 C 48.66 54.67 47.86 53.25 47.19 51.78 Z" />
<path fill="#446445" opacity="1.00" d=" M 103.18 51.78 C 104.09 51.84 105.00 51.93 105.90 52.05 C 106.16 53.36 106.18 54.67 105.96 56.00 L 105.58 56.00 C 104.65 54.67 103.86 53.25 103.18 51.78 Z" />
<path fill="#446445" opacity="1.00" d=" M 159.18 51.77 C 160.09 51.84 161.00 51.94 161.90 52.06 C 162.15 53.36 162.17 54.68 161.96 56.00 L 161.58 56.00 C 160.65 54.67 159.85 53.25 159.18 51.77 Z" />
<path fill="#446445" opacity="1.00" d=" M 215.26 51.60 C 216.16 51.59 217.04 51.70 217.91 51.93 C 218.11 53.28 218.11 54.64 217.92 56.00 L 217.57 56.00 C 216.69 54.59 215.92 53.12 215.26 51.60 Z" />
</g>
<g id="#6e9c5bff">
<path fill="#6e9c5b" opacity="1.00" d=" M 50.92 52.10 C 51.80 52.12 52.67 52.15 53.55 52.16 C 54.07 52.86 54.58 53.57 55.09 54.27 C 56.24 53.88 57.39 53.47 58.56 53.12 C 60.29 52.92 62.04 52.86 63.78 52.83 C 63.20 53.86 62.71 54.93 62.21 56.00 L 49.96 56.00 C 50.18 54.67 50.16 53.35 49.90 52.04 L 50.92 52.10 Z" />
<path fill="#6e9c5b" opacity="1.00" d=" M 106.91 52.10 C 107.79 52.12 108.68 52.14 109.56 52.14 C 110.18 53.06 110.81 53.96 111.43 54.88 C 112.25 54.18 113.07 53.47 113.89 52.75 C 115.84 52.79 117.79 52.83 119.74 52.91 C 119.15 53.91 118.66 54.96 118.16 56.00 L 105.96 56.00 C 106.18 54.67 106.16 53.36 105.90 52.05 L 106.91 52.10 Z" />
<path fill="#6e9c5b" opacity="1.00" d=" M 162.93 52.11 C 163.80 52.13 164.68 52.15 165.56 52.16 C 166.06 52.86 166.57 53.57 167.09 54.27 C 168.24 53.88 169.39 53.47 170.56 53.12 C 172.29 52.91 174.03 52.87 175.78 52.83 C 175.19 53.86 174.71 54.93 174.21 56.00 L 161.96 56.00 C 162.17 54.68 162.15 53.36 161.90 52.06 L 162.93 52.11 Z" />
</g>
<g id="#6f9c5aff">
<path fill="#6f9c5a" opacity="1.00" d=" M 218.96 52.18 C 220.85 52.51 222.52 53.49 224.00 54.69 L 224.00 56.00 L 217.92 56.00 C 218.11 54.64 218.11 53.28 217.91 51.93 L 218.96 52.18 Z" />
</g>
<g id="#77a35dff">
<path fill="#77a35d" opacity="1.00" d=" M 0.00 52.17 C 3.51 52.48 7.02 52.89 10.54 53.04 C 9.36 54.04 8.16 55.03 6.95 56.00 L 0.00 56.00 L 0.00 52.17 Z" />
</g>
<g id="#6a9a60ff">
<path fill="#6a9a60" opacity="1.00" d=" M 10.54 53.04 C 12.62 52.94 14.69 52.73 16.77 52.57 C 18.04 53.01 19.87 53.30 20.64 51.87 C 20.86 52.03 21.29 52.35 21.51 52.51 C 21.88 53.38 22.63 55.13 23.00 56.00 L 21.83 56.00 C 20.50 55.82 17.84 55.47 16.51 55.30 C 15.85 55.47 14.51 55.82 13.84 56.00 L 6.95 56.00 C 8.16 55.03 9.36 54.04 10.54 53.04 Z" />
</g>
<g id="#8bb561fe">
<path fill="#8bb561" opacity="1.00" d=" M 63.78 52.83 C 64.84 52.66 65.66 53.49 66.37 54.14 C 65.39 54.77 64.41 55.40 63.41 56.00 L 62.21 56.00 C 62.71 54.93 63.20 53.86 63.78 52.83 Z" />
<path fill="#8bb561" opacity="1.00" d=" M 119.74 52.91 C 120.80 52.82 121.67 53.50 122.42 54.15 C 121.43 54.79 120.43 55.41 119.42 56.00 L 118.16 56.00 C 118.66 54.96 119.15 53.91 119.74 52.91 Z" />
<path fill="#8bb561" opacity="1.00" d=" M 175.78 52.83 C 176.83 52.66 177.66 53.49 178.37 54.14 C 177.39 54.77 176.40 55.39 175.41 56.00 L 174.21 56.00 C 174.71 54.93 175.19 53.86 175.78 52.83 Z" />
</g>
<g id="#699960ff">
<path fill="#699960" opacity="1.00" d=" M 66.37 54.14 C 68.50 53.30 70.68 52.60 72.83 51.81 C 73.62 53.13 75.67 53.27 76.58 52.01 C 76.79 52.15 77.20 52.45 77.40 52.60 C 77.81 53.45 78.62 55.15 79.03 56.00 L 77.84 56.00 C 76.51 55.83 73.84 55.49 72.50 55.31 C 71.84 55.49 70.52 55.83 69.85 56.00 L 63.41 56.00 C 64.41 55.40 65.39 54.77 66.37 54.14 Z" />
<path fill="#699960" opacity="1.00" d=" M 122.42 54.15 C 124.53 53.31 126.70 52.61 128.83 51.81 C 129.62 53.13 131.66 53.26 132.58 52.00 C 132.78 52.15 133.20 52.45 133.41 52.60 C 133.81 53.45 134.62 55.15 135.03 56.00 L 133.84 56.00 C 132.51 55.83 129.84 55.49 128.50 55.31 C 127.84 55.49 126.52 55.83 125.85 56.00 L 119.42 56.00 C 120.43 55.41 121.43 54.79 122.42 54.15 Z" />
<path fill="#699960" opacity="1.00" d=" M 178.37 54.14 C 180.50 53.30 182.68 52.60 184.83 51.81 C 185.62 53.13 187.66 53.27 188.58 52.01 C 188.79 52.15 189.20 52.45 189.41 52.60 C 189.81 53.45 190.62 55.15 191.03 56.00 L 189.84 56.00 C 188.51 55.83 185.84 55.49 184.50 55.31 C 183.84 55.49 182.52 55.83 181.85 56.00 L 175.41 56.00 C 176.40 55.39 177.39 54.77 178.37 54.14 Z" />
</g>
<g id="#83ae61ff">
<path fill="#83ae61" opacity="1.00" d=" M 13.84 56.00 C 14.51 55.82 15.85 55.47 16.51 55.30 C 17.84 55.47 20.50 55.82 21.83 56.00 L 13.84 56.00 Z" />
<path fill="#83ae61" opacity="1.00" d=" M 69.85 56.00 C 70.52 55.83 71.84 55.49 72.50 55.31 C 73.84 55.49 76.51 55.83 77.84 56.00 L 69.85 56.00 Z" />
<path fill="#83ae61" opacity="1.00" d=" M 125.85 56.00 C 126.52 55.83 127.84 55.49 128.50 55.31 C 129.84 55.49 132.51 55.83 133.84 56.00 L 125.85 56.00 Z" />
<path fill="#83ae61" opacity="1.00" d=" M 181.85 56.00 C 182.52 55.83 183.84 55.49 184.50 55.31 C 185.84 55.49 188.51 55.83 189.84 56.00 L 181.85 56.00 Z" />
</g>
</svg>
