<?xml version="1.0" encoding="UTF-8" ?>
<!DOCTYPE svg PUBLIC "-//W3C//DTD SVG 1.1//EN" "http://www.w3.org/Graphics/SVG/1.1/DTD/svg11.dtd">
<svg width="224pt" height="56pt" viewBox="0 0 224 56" version="1.1" xmlns="http://www.w3.org/2000/svg">
<g id="#3c6cbeff">
<path fill="#3c6cbe" opacity="1.00" d=" M 0.00 0.00 L 25.56 0.00 C 26.57 1.10 27.53 2.24 28.49 3.39 C 21.88 4.05 14.78 6.04 8.41 3.25 C 9.41 5.08 10.45 6.92 11.07 8.93 C 9.02 11.13 6.45 12.75 4.10 14.61 C 8.11 14.24 12.13 14.08 16.16 14.09 C 14.55 12.28 12.96 10.46 11.39 8.62 C 14.01 6.85 17.00 5.15 20.29 5.94 C 26.26 7.11 31.99 4.46 37.63 2.96 C 35.11 1.95 32.57 0.96 30.04 0.00 L 85.50 0.00 C 79.68 5.31 71.51 2.88 64.57 2.20 C 65.48 4.07 66.44 5.94 66.99 7.96 C 65.00 10.18 62.41 11.74 60.11 13.61 C 64.12 13.23 68.14 13.09 72.16 13.09 C 70.55 11.28 68.96 9.46 67.39 7.63 C 70.96 4.35 75.68 4.75 80.12 5.12 C 85.04 3.94 89.95 2.60 95.00 2.04 C 94.71 1.36 94.42 0.68 94.13 0.00 L 138.33 0.00 C 137.74 0.59 136.56 1.77 135.97 2.36 C 130.83 2.13 125.69 1.85 120.59 1.25 C 121.49 3.10 122.44 4.96 122.99 6.96 C 121.01 9.18 118.41 10.74 116.11 12.61 C 120.12 12.23 124.14 12.09 128.16 12.09 C 126.56 10.29 124.97 8.48 123.41 6.65 C 127.31 2.97 132.57 3.19 137.24 5.08 C 138.47 3.38 139.66 1.65 140.95 0.00 L 197.54 0.00 C 192.38 4.42 185.36 2.83 179.25 4.36 C 178.54 8.50 175.41 11.25 172.20 13.65 C 176.17 13.24 180.16 13.09 184.16 13.08 C 182.55 11.28 180.96 9.46 179.39 7.63 C 182.96 4.35 187.68 4.75 192.12 5.12 C 197.04 3.94 201.94 2.60 207.00 2.04 C 206.71 1.36 206.42 0.68 206.14 0.00 L 224.00 0.00 L 224.00 0.95 C 220.68 0.93 217.40 0.83 214.10 0.94 C 213.39 1.00 211.98 1.12 211.27 1.18 C 210.45 1.64 209.64 2.12 208.86 2.62 C 207.80 3.32 207.40 4.31 207.65 5.61 C 207.88 8.87 208.10 12.13 208.45 15.37 C 208.49 15.72 208.59 16.42 208.63 16.77 C 209.08 19.59 209.59 22.42 210.08 25.24 C 211.12 24.35 212.15 23.45 213.18 22.54 C 214.58 23.41 216.18 23.84 217.82 23.87 C 217.57 25.13 217.37 26.39 217.10 27.64 C 216.58 30.09 215.89 32.50 215.18 34.90 C 213.11 34.00 211.06 33.09 209.01 32.18 C 208.76 33.10 208.50 34.01 208.25 34.92 C 212.93 36.90 217.85 38.17 222.78 39.36 C 221.16 37.85 219.42 36.44 218.11 34.63 C 217.99 31.27 222.05 29.84 224.00 27.64 L 224.00 45.13 C 215.54 44.87 206.98 42.34 198.57 44.34 C 201.91 45.22 205.27 45.96 208.65 46.66 C 213.73 47.94 218.93 46.20 224.00 45.87 L 224.00 50.54 C 220.99 51.14 218.02 51.82 214.98 52.19 C 214.66 52.07 214.02 51.82 213.69 51.70 C 212.26 53.12 210.84 54.55 209.44 56.00 L 205.30 56.00 C 200.43 53.90 195.88 51.18 191.28 48.58 C 196.09 43.53 198.86 36.20 206.13 33.99 C 205.25 31.99 204.42 29.96 203.60 27.93 C 202.54 30.00 202.03 32.73 199.93 34.01 C 195.68 35.43 191.23 33.53 186.95 33.02 C 186.82 25.48 194.02 25.97 198.89 27.29 C 198.24 25.99 197.61 24.68 196.98 23.38 C 198.95 21.70 200.93 20.03 202.95 18.41 C 198.58 19.11 194.23 18.25 190.12 16.74 C 192.80 18.61 195.25 20.80 197.14 23.48 C 193.23 24.85 189.28 26.11 185.31 27.30 C 185.61 30.06 185.89 32.82 186.18 35.58 C 189.08 35.87 191.99 36.17 194.90 36.46 C 195.09 41.78 191.60 45.50 187.79 48.49 C 191.63 50.65 195.60 52.59 199.44 54.75 C 198.10 55.18 196.75 55.60 195.40 56.00 L 181.28 56.00 C 179.42 54.08 177.99 50.90 175.06 50.57 C 172.48 50.61 169.92 50.74 167.36 50.96 C 164.13 51.42 160.99 52.26 157.85 53.14 C 156.20 53.34 154.59 54.26 154.23 56.00 L 150.17 56.00 C 144.12 51.75 138.08 46.73 130.40 46.10 C 132.66 48.88 135.34 51.27 137.90 53.76 C 138.09 52.45 138.28 51.14 138.48 49.83 C 140.88 51.03 143.26 52.25 145.62 53.52 C 144.00 54.14 140.76 55.38 139.14 56.00 L 124.15 56.00 L 123.82 55.09 C 123.25 53.37 122.76 51.62 122.33 49.86 C 118.71 50.12 115.09 50.32 111.49 50.71 C 108.64 51.06 105.85 51.69 103.01 52.05 C 102.69 51.97 102.06 51.81 101.75 51.73 C 100.24 53.17 98.75 54.62 97.19 56.00 L 69.43 56.00 C 67.53 54.02 65.49 52.14 63.07 50.83 C 61.86 50.35 60.64 49.92 59.40 49.54 C 60.62 48.56 61.81 47.54 63.00 46.53 C 61.86 45.69 60.73 44.86 59.59 44.03 C 58.96 46.04 58.28 48.04 57.63 50.05 C 57.02 50.21 55.81 50.54 55.21 50.71 C 51.99 51.42 48.72 52.20 45.92 54.01 C 46.49 52.93 47.05 51.84 47.58 50.75 L 46.43 51.00 C 45.22 51.23 44.02 51.45 42.82 51.66 C 42.59 52.28 42.12 53.53 41.88 54.16 C 41.69 54.62 41.30 55.54 41.11 56.00 L 15.57 56.00 C 13.02 53.82 10.50 51.61 7.81 49.60 C 7.77 48.95 7.74 48.29 7.70 47.64 C 9.21 47.46 12.21 47.12 13.72 46.95 C 12.51 45.22 11.31 43.49 10.12 41.75 C 10.66 39.81 11.20 37.88 11.74 35.95 C 7.83 36.33 3.91 36.73 0.00 37.12 L 0.00 30.79 C 4.05 29.48 8.12 28.21 12.18 26.92 C 11.89 25.17 11.61 23.43 11.36 21.68 C 14.27 20.38 17.21 19.15 20.10 17.81 C 13.41 19.31 6.43 20.66 0.00 17.41 L 0.00 0.00 M 39.65 2.00 L 40.27 2.34 C 40.11 2.92 39.80 4.09 39.64 4.67 L 39.09 4.38 C 39.02 8.66 38.98 12.94 38.96 17.22 C 39.45 16.32 39.95 15.42 40.44 14.53 C 40.64 14.66 41.05 14.91 41.25 15.04 C 41.13 15.35 40.88 15.97 40.76 16.29 C 40.69 17.35 40.54 19.46 40.47 20.52 C 38.45 19.83 36.47 19.03 34.52 18.15 C 31.20 22.13 26.21 20.22 22.10 18.81 C 24.19 20.50 26.17 22.35 27.79 24.52 C 24.52 26.11 21.19 27.58 17.89 29.11 C 18.20 29.57 18.82 30.50 19.14 30.97 C 22.01 29.06 25.17 27.55 28.60 26.99 C 28.59 25.81 28.57 24.62 28.56 23.43 C 32.24 21.56 36.37 20.84 40.39 22.02 C 39.17 25.31 42.42 25.77 44.84 26.32 C 44.48 25.86 43.75 24.92 43.38 24.45 L 43.97 24.01 L 44.82 23.00 L 44.20 23.78 C 46.01 24.31 47.82 24.89 49.68 25.26 C 49.03 25.49 47.74 25.95 47.09 26.18 C 49.70 27.18 52.49 27.33 55.26 27.27 C 54.34 26.30 53.42 25.34 52.50 24.37 C 53.49 23.98 54.47 23.59 55.46 23.18 C 55.53 22.72 55.69 21.79 55.77 21.33 C 55.79 20.67 55.84 19.34 55.86 18.68 C 59.74 19.03 63.55 20.17 66.65 22.62 C 60.45 26.01 53.68 30.31 46.37 27.33 C 48.39 25.72 43.90 24.37 44.92 26.85 C 46.26 28.22 47.73 29.50 48.79 31.12 C 48.41 32.81 47.70 34.39 47.09 36.01 C 45.09 35.05 43.10 34.08 41.11 33.10 C 40.81 34.01 40.51 34.92 40.20 35.82 C 44.85 38.13 49.93 39.17 54.99 40.14 C 52.77 38.36 49.04 36.78 50.08 33.26 C 55.18 28.90 61.62 26.64 67.97 24.77 C 67.55 22.08 68.29 19.46 69.59 17.11 C 65.21 19.94 60.32 18.09 55.92 16.26 C 55.94 14.38 56.00 10.61 56.02 8.73 C 56.92 7.37 56.68 6.27 55.31 5.42 C 55.70 3.96 56.08 2.50 56.43 1.02 C 53.00 1.02 49.57 1.03 46.14 1.04 C 45.34 0.99 43.74 0.89 42.94 0.84 C 42.12 1.13 40.47 1.71 39.65 2.00 M 96.44 1.39 C 96.64 1.69 97.02 2.28 97.22 2.58 C 95.77 3.43 95.53 4.57 96.51 6.00 C 94.92 8.21 95.39 11.28 94.70 13.72 C 95.29 14.06 96.48 14.73 97.07 15.07 C 96.97 15.40 96.77 16.08 96.67 16.41 C 97.23 19.66 97.78 22.91 98.52 26.12 C 98.87 25.71 99.57 24.90 99.92 24.49 C 99.41 25.47 98.91 26.45 98.43 27.45 C 100.17 27.88 103.67 28.75 105.41 29.18 C 104.60 31.10 103.75 33.01 102.90 34.91 C 100.96 33.99 99.03 33.05 97.11 32.10 C 96.81 33.01 96.51 33.92 96.20 34.82 C 100.85 37.13 105.93 38.17 110.99 39.14 C 108.83 37.37 104.99 35.82 106.14 32.34 C 111.41 28.10 117.41 24.72 123.89 22.74 C 123.77 20.93 123.72 19.10 124.15 17.33 C 126.57 15.95 129.33 15.33 131.97 14.51 C 131.69 14.18 131.14 13.53 130.86 13.20 C 127.85 14.45 124.86 15.76 121.82 16.93 C 118.51 18.36 115.13 16.13 111.89 15.31 C 111.93 13.14 111.97 10.96 112.00 8.78 C 112.91 7.43 112.67 6.31 111.31 5.44 C 111.70 3.98 112.08 2.50 112.43 1.03 C 109.03 1.01 105.61 1.02 102.22 1.03 C 101.40 1.00 99.77 0.95 98.95 0.92 C 98.32 1.04 97.07 1.27 96.44 1.39 M 154.23 0.30 C 150.59 8.08 151.04 17.34 155.89 24.56 C 155.80 23.79 155.62 22.25 155.54 21.49 C 157.59 22.04 159.64 22.64 161.76 22.95 C 161.24 22.94 160.19 22.92 159.67 22.91 C 160.41 24.25 161.19 25.57 161.95 26.91 C 161.70 26.96 161.21 27.05 160.96 27.10 C 160.47 29.29 159.87 31.45 159.23 33.60 C 156.48 32.64 153.62 31.89 150.68 32.30 C 149.72 30.48 148.83 28.62 147.94 26.77 C 147.48 28.75 147.92 31.65 145.62 32.57 C 140.13 35.23 133.97 33.19 128.66 31.14 C 129.53 32.66 130.40 34.17 131.26 35.70 C 132.99 35.86 136.46 36.17 138.19 36.33 C 137.65 39.33 137.04 42.32 136.44 45.31 C 137.62 45.46 138.80 45.62 139.97 45.80 C 140.90 42.85 141.16 39.55 142.95 36.95 C 144.84 35.35 147.35 33.89 149.92 34.20 C 155.67 35.27 161.28 36.94 166.99 38.19 C 165.33 36.77 163.12 35.76 162.08 33.78 C 161.35 31.04 164.39 29.63 165.94 27.95 C 167.53 28.48 169.13 29.01 170.72 29.53 C 173.53 27.10 176.90 25.50 180.44 24.49 C 180.03 23.42 179.62 22.35 179.22 21.28 C 180.13 19.91 181.03 18.54 181.94 17.17 C 177.27 19.78 172.25 18.14 167.63 16.27 C 167.74 14.38 167.96 10.61 168.07 8.72 C 168.94 7.36 168.69 6.26 167.31 5.43 C 167.70 3.97 168.07 2.51 168.42 1.04 C 165.00 1.00 161.55 0.98 158.14 0.95 C 157.26 1.06 155.50 1.28 154.62 1.39 C 154.52 1.12 154.33 0.57 154.23 0.30 M 138.53 9.50 C 140.88 11.15 143.34 12.63 145.91 13.91 C 145.30 15.19 144.67 16.45 144.04 17.71 C 146.39 17.58 148.74 17.49 151.10 17.50 C 148.27 15.62 146.28 12.88 144.64 9.97 C 142.60 9.85 140.57 9.66 138.53 9.50 M 77.77 16.86 C 79.79 18.04 81.85 19.18 83.90 20.31 C 83.96 21.54 84.02 22.76 84.07 23.99 C 80.55 25.09 77.01 26.16 73.47 27.23 C 73.75 30.08 73.96 32.93 74.19 35.79 C 76.68 35.96 79.17 36.12 81.67 36.28 C 82.14 39.33 82.63 42.38 83.17 45.42 C 84.99 40.23 88.13 35.12 94.27 34.50 C 93.39 32.42 92.61 30.29 91.95 28.13 C 91.73 28.09 91.30 28.03 91.08 27.99 C 90.47 30.14 90.58 33.25 87.95 33.99 C 83.83 35.47 79.54 33.49 75.40 32.93 C 74.31 25.66 82.42 25.24 86.79 27.64 C 83.41 23.66 87.97 20.41 91.00 18.14 C 86.53 19.66 82.08 18.14 77.77 16.86 M 157.15 23.40 C 156.30 27.38 161.14 22.58 157.15 23.40 M 213.15 24.40 C 212.30 28.38 217.14 23.58 213.15 24.40 M 32.62 27.15 C 33.12 29.18 33.65 31.20 34.18 33.22 C 29.55 36.79 24.14 34.51 19.11 33.32 C 17.41 33.96 15.97 35.09 14.46 36.07 C 18.99 37.20 23.53 38.31 28.00 39.67 C 27.01 41.44 26.02 43.21 25.02 44.97 C 25.61 45.32 26.79 46.03 27.39 46.38 C 30.87 42.22 30.66 34.18 38.40 35.81 C 36.36 32.99 34.86 29.82 32.62 27.15 M 60.04 38.89 C 62.15 41.28 64.47 43.47 67.02 45.38 C 66.04 43.36 64.97 41.37 63.98 39.35 C 65.24 38.21 66.42 37.00 67.56 35.76 C 64.98 36.62 62.46 37.63 60.04 38.89 M 172.01 38.06 C 172.05 39.08 172.10 40.10 172.15 41.13 C 174.76 42.61 177.35 44.31 180.40 44.69 C 179.16 43.93 177.92 43.18 176.67 42.43 C 177.72 40.08 178.89 37.78 180.03 35.47 C 177.32 36.29 174.68 37.16 172.01 38.06 M 13.20 38.31 C 11.73 38.29 11.73 40.71 13.20 40.69 C 14.67 40.75 14.67 38.25 13.20 38.31 M 103.26 38.66 C 102.44 40.58 101.62 42.50 100.79 44.42 C 96.05 44.00 91.21 42.56 86.57 44.45 C 89.91 45.17 93.32 45.61 96.59 46.63 C 101.72 48.76 107.10 45.29 112.30 45.33 C 109.33 44.91 106.34 44.55 103.38 44.12 C 103.37 42.30 103.34 40.48 103.26 38.66 M 155.01 44.16 C 152.71 44.93 150.62 43.39 148.61 42.53 C 148.41 43.25 148.23 43.97 148.05 44.69 C 152.36 46.53 157.06 47.83 161.36 45.16 C 161.05 43.17 160.80 41.17 160.63 39.16 C 158.93 40.97 157.52 43.42 155.01 44.16 M 34.88 42.82 C 33.56 43.78 32.24 44.74 30.89 45.68 C 35.53 44.95 40.48 45.60 43.80 49.22 C 44.61 48.29 45.42 47.37 46.24 46.44 C 49.63 46.67 53.02 46.73 56.42 46.79 C 52.94 45.95 49.44 45.15 45.97 44.23 C 46.31 42.86 46.65 41.49 47.00 40.12 C 44.14 43.79 38.97 45.60 34.88 42.82 M 113.53 43.52 C 113.40 45.01 113.26 46.51 113.12 48.00 C 114.56 47.95 116.00 47.88 117.44 47.82 C 116.15 46.37 114.85 44.94 113.53 43.52 M 163.96 44.23 C 163.65 46.00 167.35 46.00 167.04 44.23 C 166.42 43.18 164.58 43.18 163.96 44.23 Z" />
</g>
<g id="#4179cbfe">
<path fill="#4179cb" opacity="1.00" d=" M 25.56 0.00 L 30.04 0.00 C 32.57 0.96 35.11 1.95 37.63 2.96 C 31.99 4.46 26.26 7.11 20.29 5.94 C 17.00 5.15 14.01 6.85 11.39 8.62 C 12.96 10.46 14.55 12.28 16.16 14.09 C 12.13 14.08 8.11 14.24 4.10 14.61 C 6.45 12.75 9.02 11.13 11.07 8.93 C 10.45 6.92 9.41 5.08 8.41 3.25 C 14.78 6.04 21.88 4.05 28.49 3.39 C 27.53 2.24 26.57 1.10 25.56 0.00 Z" />
</g>
<g id="#417acbff">
<path fill="#417acb" opacity="1.00" d=" M 85.50 0.00 L 94.13 0.00 C 94.42 0.68 94.71 1.36 95.00 2.04 C 89.95 2.60 85.04 3.94 80.12 5.12 C 75.68 4.75 70.96 4.35 67.39 7.63 C 68.96 9.46 70.55 11.28 72.16 13.09 C 68.14 13.09 64.12 13.23 60.11 13.61 C 62.41 11.74 65.00 10.18 66.99 7.96 C 66.44 5.94 65.48 4.07 64.57 2.20 C 71.51 2.88 79.68 5.31 85.50 0.00 Z" />
<path fill="#417acb" opacity="1.00" d=" M 197.54 0.00 L 206.14 0.00 C 206.42 0.68 206.71 1.36 207.00 2.04 C 201.94 2.60 197.04 3.94 192.12 5.12 C 187.68 4.75 182.96 4.35 179.39 7.63 C 180.96 9.46 182.55 11.28 184.16 13.08 C 180.16 13.09 176.17 13.24 172.20 13.65 C 175.41 11.25 178.54 8.50 179.25 4.36 C 185.36 2.83 192.38 4.42 197.54 0.00 Z" />
</g>
<g id="#4278caff">
<path fill="#4278ca" opacity="1.00" d=" M 138.33 0.00 L 140.95 0.00 C 139.66 1.65 138.47 3.38 137.24 5.08 C 132.57 3.19 127.31 2.97 123.41 6.65 C 124.97 8.48 126.56 10.29 128.16 12.09 C 124.14 12.09 120.12 12.23 116.11 12.61 C 118.41 10.74 121.01 9.18 122.99 6.96 C 122.44 4.96 121.49 3.10 120.59 1.25 C 125.69 1.85 130.83 2.13 135.97 2.36 C 136.56 1.77 137.74 0.59 138.33 0.00 Z" />
<path fill="#4278ca" opacity="1.00" d=" M 121.82 16.93 C 124.86 15.76 127.85 14.45 130.86 13.20 C 131.14 13.53 131.69 14.18 131.97 14.51 C 129.33 15.33 126.57 15.95 124.15 17.33 C 123.72 19.10 123.77 20.93 123.89 22.74 C 117.41 24.72 111.41 28.10 106.14 32.34 C 104.99 35.82 108.83 37.37 110.99 39.14 C 105.93 38.17 100.85 37.13 96.20 34.82 C 96.51 33.92 96.81 33.01 97.11 32.10 C 99.03 33.05 100.96 33.99 102.90 34.91 C 103.75 33.01 104.60 31.10 105.41 29.18 C 103.67 28.75 100.17 27.88 98.43 27.45 C 98.91 26.45 99.41 25.47 99.92 24.49 C 100.32 23.81 100.70 23.12 101.08 22.43 C 102.58 23.26 104.22 23.91 105.96 23.98 C 105.26 25.05 104.59 26.14 103.94 27.24 C 110.57 26.76 116.80 24.29 122.57 21.11 C 119.15 19.50 115.54 18.35 111.86 17.52 C 111.87 16.96 111.89 15.86 111.89 15.31 C 115.13 16.13 118.51 18.36 121.82 16.93 M 101.15 24.40 C 100.30 28.38 105.14 23.58 101.15 24.40 Z" />
</g>
<g id="#268dd8ff">
<path fill="#268dd8" opacity="1.00" d=" M 39.65 2.00 C 40.47 1.71 42.12 1.13 42.94 0.84 C 43.02 1.37 43.18 2.45 43.26 2.99 C 42.98 4.28 42.74 5.57 42.54 6.88 C 41.85 11.18 42.98 15.37 43.89 19.52 C 43.66 17.74 43.04 15.80 41.25 15.04 C 41.05 14.91 40.64 14.66 40.44 14.53 C 39.95 15.42 39.45 16.32 38.96 17.22 C 38.98 12.94 39.02 8.66 39.09 4.38 L 39.64 4.67 C 41.97 6.53 42.83 2.68 40.27 2.34 L 39.65 2.00 Z" />
<path fill="#268dd8" opacity="1.00" d=" M 154.23 0.30 C 154.33 0.57 154.52 1.12 154.62 1.39 C 154.76 1.82 155.05 2.68 155.19 3.12 C 154.93 4.35 154.69 5.59 154.47 6.83 C 154.26 8.06 153.82 10.53 153.61 11.77 C 154.19 13.36 154.90 14.91 155.67 16.42 C 155.33 15.98 154.67 15.10 154.34 14.66 C 154.76 16.93 155.22 19.20 155.54 21.49 C 155.62 22.25 155.80 23.79 155.89 24.56 C 151.04 17.34 150.59 8.08 154.23 0.30 Z" />
</g>
<g id="#342f2aff">
<path fill="#342f2a" opacity="1.00" d=" M 42.94 0.84 C 43.74 0.89 45.34 0.99 46.14 1.04 C 46.19 1.47 46.28 2.34 46.33 2.77 C 46.51 4.87 46.70 6.97 46.91 9.07 C 49.39 9.05 51.87 9.04 54.35 8.87 C 54.61 8.85 55.12 8.81 55.38 8.79 L 56.02 8.73 C 56.00 10.61 55.94 14.38 55.92 16.26 C 55.90 16.87 55.87 18.08 55.86 18.68 C 55.84 19.34 55.79 20.67 55.77 21.33 C 55.34 21.30 54.48 21.23 54.05 21.20 C 53.91 20.91 53.62 20.33 53.48 20.05 C 52.45 16.85 50.34 20.07 51.14 21.98 C 50.90 22.64 50.41 23.96 50.17 24.62 C 49.61 24.17 48.47 23.28 47.91 22.84 C 48.33 18.70 48.89 14.58 49.58 10.47 C 48.96 10.34 47.71 10.07 47.09 9.93 C 46.54 13.62 46.00 17.32 45.50 21.02 C 45.12 20.74 44.35 20.18 43.97 19.90 L 43.89 19.52 C 42.98 15.37 41.85 11.18 42.54 6.88 C 43.08 9.34 43.77 11.77 44.83 14.07 C 44.62 10.33 44.13 6.62 43.26 2.99 C 43.18 2.45 43.02 1.37 42.94 0.84 M 48.90 20.38 C 50.17 17.84 51.26 15.22 52.08 12.50 C 50.50 14.87 49.22 17.47 48.90 20.38 Z" />
<path fill="#342f2a" opacity="1.00" d=" M 98.95 0.92 C 99.77 0.95 101.40 1.00 102.22 1.03 C 102.25 1.46 102.30 2.33 102.33 2.77 C 102.44 4.77 102.53 6.78 102.63 8.78 C 105.20 8.92 107.78 9.02 110.35 8.89 C 110.60 8.88 111.11 8.85 111.36 8.83 L 112.00 8.78 C 111.97 10.96 111.93 13.14 111.89 15.31 C 111.89 15.86 111.87 16.96 111.86 17.52 C 111.86 18.17 111.86 19.48 111.85 20.14 C 111.38 20.16 110.44 20.22 109.97 20.24 L 109.21 20.39 C 110.06 17.58 106.87 18.48 107.02 20.66 C 106.80 21.23 106.37 22.38 106.15 22.95 C 105.40 22.61 103.89 21.95 103.13 21.62 C 104.08 17.93 104.99 14.23 105.84 10.52 C 105.17 10.38 103.81 10.08 103.14 9.94 C 102.55 13.76 102.09 17.60 101.41 21.40 C 101.01 20.53 100.62 19.65 100.25 18.76 L 100.12 18.39 C 98.69 14.73 97.48 10.86 98.53 6.87 C 99.08 9.33 99.77 11.76 100.83 14.06 C 100.60 10.33 100.14 6.63 99.27 2.99 C 99.19 2.48 99.03 1.44 98.95 0.92 M 104.90 20.38 C 106.16 17.84 107.26 15.22 108.08 12.50 C 106.50 14.87 105.21 17.47 104.90 20.38 Z" />
<path fill="#342f2a" opacity="1.00" d=" M 211.27 1.18 C 211.98 1.12 213.39 1.00 214.10 0.94 C 214.15 1.40 214.25 2.31 214.30 2.77 C 214.51 4.85 214.70 6.94 214.91 9.03 C 217.39 9.05 219.88 9.10 222.36 8.97 C 222.59 8.95 223.05 8.92 223.28 8.90 L 224.00 8.83 L 224.00 19.50 C 223.45 19.69 222.35 20.07 221.80 20.27 L 221.08 20.50 C 222.01 17.63 218.77 18.47 219.01 20.76 C 218.82 21.36 218.45 22.54 218.26 23.14 C 217.55 22.74 216.14 21.94 215.43 21.54 C 216.23 17.87 217.03 14.19 217.79 10.50 C 217.09 10.36 215.68 10.06 214.98 9.92 C 214.42 13.75 213.75 17.56 213.35 21.41 C 213.02 20.50 212.69 19.59 212.36 18.69 L 212.21 18.25 C 210.78 14.60 209.54 10.79 210.37 6.79 C 211.03 9.27 211.76 11.75 212.90 14.07 C 212.92 10.28 212.57 6.42 210.97 2.96 C 211.05 2.51 211.20 1.63 211.27 1.18 M 216.90 20.38 C 218.16 17.84 219.26 15.22 220.08 12.50 C 218.50 14.87 217.20 17.47 216.90 20.38 Z" />
</g>
<g id="#84ad5aff">
<path fill="#84ad5a" opacity="1.00" d=" M 46.14 1.04 C 49.57 1.03 53.00 1.02 56.43 1.02 C 56.08 2.50 55.70 3.96 55.31 5.42 C 54.92 6.50 54.67 7.78 55.38 8.79 C 55.12 8.81 54.61 8.85 54.35 8.87 C 52.34 6.06 49.53 4.03 46.33 2.77 C 46.28 2.34 46.19 1.47 46.14 1.04 M 51.56 2.49 C 51.13 4.20 54.16 4.84 54.74 3.29 C 55.01 1.68 52.25 1.23 51.56 2.49 Z" />
<path fill="#84ad5a" opacity="1.00" d=" M 102.22 1.03 C 105.61 1.02 109.03 1.01 112.43 1.03 C 112.08 2.50 111.70 3.98 111.31 5.44 C 110.92 6.53 110.67 7.80 111.36 8.83 C 111.11 8.85 110.60 8.88 110.35 8.89 C 108.35 6.07 105.53 4.03 102.33 2.77 C 102.30 2.33 102.25 1.46 102.22 1.03 M 107.56 2.49 C 107.13 4.20 110.16 4.84 110.74 3.29 C 111.01 1.68 108.25 1.23 107.56 2.49 Z" />
<path fill="#84ad5a" opacity="1.00" d=" M 158.14 0.95 C 161.55 0.98 165.00 1.00 168.42 1.04 C 168.07 2.51 167.70 3.97 167.31 5.43 C 166.93 6.51 166.69 7.79 167.42 8.79 C 167.15 8.81 166.62 8.85 166.35 8.87 C 164.34 6.06 161.53 4.03 158.34 2.77 C 158.29 2.32 158.19 1.41 158.14 0.95 M 163.56 2.49 C 163.13 4.20 166.15 4.84 166.74 3.29 C 167.01 1.68 164.25 1.23 163.56 2.49 Z" />
<path fill="#84ad5a" opacity="1.00" d=" M 214.10 0.94 C 217.40 0.83 220.68 0.93 224.00 0.95 L 224.00 5.28 C 222.69 5.95 221.76 7.88 223.28 8.90 C 223.05 8.92 222.59 8.95 222.36 8.97 C 220.39 6.07 217.55 4.01 214.30 2.77 C 214.25 2.31 214.15 1.40 214.10 0.94 M 219.56 2.49 C 219.13 4.20 222.15 4.84 222.74 3.29 C 223.01 1.68 220.25 1.23 219.56 2.49 Z" />
</g>
<g id="#268ed9ff">
<path fill="#268ed9" opacity="1.00" d=" M 96.44 1.39 C 97.07 1.27 98.32 1.04 98.95 0.92 C 99.03 1.44 99.19 2.48 99.27 2.99 C 98.98 4.28 98.73 5.57 98.53 6.87 C 97.48 10.86 98.69 14.73 100.12 18.39 C 99.44 17.02 98.54 15.68 97.07 15.07 C 96.48 14.73 95.29 14.06 94.70 13.72 C 95.39 11.28 94.92 8.21 96.51 6.00 C 97.39 5.12 98.36 3.68 97.22 2.58 C 97.02 2.28 96.64 1.69 96.44 1.39 Z" />
<path fill="#268ed9" opacity="1.00" d=" M 208.86 2.62 C 209.64 2.12 210.45 1.64 211.27 1.18 C 211.20 1.63 211.05 2.51 210.97 2.96 C 210.71 4.23 210.51 5.50 210.37 6.79 C 209.54 10.79 210.78 14.60 212.21 18.25 C 211.37 16.85 210.12 15.62 208.45 15.37 C 208.10 12.13 207.88 8.87 207.65 5.61 C 209.29 5.81 210.26 3.60 208.86 2.62 Z" />
<path fill="#268ed9" opacity="1.00" d=" M 109.97 20.24 C 110.44 20.22 111.38 20.16 111.85 20.14 C 111.64 20.67 111.22 21.73 111.00 22.26 C 110.74 21.76 110.23 20.75 109.97 20.24 Z" />
<path fill="#268ed9" opacity="1.00" d=" M 54.05 21.20 C 54.48 21.23 55.34 21.30 55.77 21.33 C 55.69 21.79 55.53 22.72 55.46 23.18 C 55.10 22.69 54.40 21.69 54.05 21.20 Z" />
</g>
<g id="#332e2aff">
<path fill="#332e2a" opacity="1.00" d=" M 154.62 1.39 C 155.50 1.28 157.26 1.06 158.14 0.95 C 158.19 1.41 158.29 2.32 158.34 2.77 C 158.52 4.87 158.69 6.97 158.91 9.07 C 161.39 9.05 163.87 9.04 166.35 8.87 C 166.62 8.85 167.15 8.81 167.42 8.79 L 168.07 8.72 C 167.96 10.61 167.74 14.38 167.63 16.27 C 167.56 16.98 167.44 18.39 167.37 19.10 C 167.05 19.04 166.41 18.92 166.09 18.86 L 165.70 18.77 C 164.58 17.60 162.75 18.59 163.18 20.17 C 162.98 20.81 162.56 22.07 162.35 22.71 C 161.75 22.24 160.55 21.32 159.95 20.86 C 160.50 17.39 161.12 13.93 161.73 10.47 C 161.16 10.38 160.01 10.21 159.44 10.12 C 158.54 12.67 157.62 15.21 156.67 17.75 C 156.42 17.42 155.92 16.75 155.67 16.42 C 154.90 14.91 154.19 13.36 153.61 11.77 C 153.82 10.53 154.26 8.06 154.47 6.83 C 155.07 9.30 155.75 11.76 156.84 14.06 C 156.80 10.36 156.46 6.61 155.19 3.12 C 155.05 2.68 154.76 1.82 154.62 1.39 M 160.90 20.38 C 162.16 17.84 163.26 15.22 164.08 12.50 C 162.50 14.87 161.20 17.47 160.90 20.38 Z" />
<path fill="#332e2a" opacity="1.00" d=" M 45.92 54.01 C 48.72 52.20 51.99 51.42 55.21 50.71 L 56.04 50.70 C 53.23 52.44 50.48 54.25 47.69 56.00 L 43.91 56.00 C 44.41 55.50 45.42 54.50 45.92 54.01 Z" />
<path fill="#332e2a" opacity="1.00" d=" M 103.01 52.05 C 105.85 51.69 108.64 51.06 111.49 50.71 L 112.20 50.96 C 109.32 52.59 106.49 54.30 103.65 56.00 L 100.88 56.00 L 100.86 55.52 C 101.92 54.56 102.64 53.40 103.01 52.05 Z" />
<path fill="#332e2a" opacity="1.00" d=" M 157.85 53.14 C 160.99 52.26 164.13 51.42 167.36 50.96 L 168.13 50.87 C 165.21 52.46 162.41 54.23 159.59 56.00 L 156.63 56.00 C 156.94 55.29 157.55 53.86 157.85 53.14 Z" />
<path fill="#332e2a" opacity="1.00" d=" M 214.98 52.19 C 218.02 51.82 220.99 51.14 224.00 50.54 L 224.00 51.09 C 221.24 52.73 218.51 54.39 215.74 56.00 L 212.86 56.00 L 212.85 55.52 C 213.89 54.60 214.60 53.49 214.98 52.19 Z" />
</g>
<g id="#86a0b1ff">
<path fill="#86a0b1" opacity="1.00" d=" M 40.27 2.34 C 42.83 2.68 41.97 6.53 39.64 4.67 C 39.80 4.09 40.11 2.92 40.27 2.34 Z" />
</g>
<g id="#6f9a52ff">
<path fill="#6f9a52" opacity="1.00" d=" M 51.56 2.49 C 52.25 1.23 55.01 1.68 54.74 3.29 C 54.16 4.84 51.13 4.20 51.56 2.49 Z" />
<path fill="#6f9a52" opacity="1.00" d=" M 107.56 2.49 C 108.25 1.23 111.01 1.68 110.74 3.29 C 110.16 4.84 107.13 4.20 107.56 2.49 Z" />
<path fill="#6f9a52" opacity="1.00" d=" M 163.56 2.49 C 164.25 1.23 167.01 1.68 166.74 3.29 C 166.15 4.84 163.13 4.20 163.56 2.49 Z" />
<path fill="#6f9a52" opacity="1.00" d=" M 219.56 2.49 C 220.25 1.23 223.01 1.68 222.74 3.29 C 222.15 4.84 219.13 4.20 219.56 2.49 Z" />
</g>
<g id="#709e5cff">
<path fill="#709e5c" opacity="1.00" d=" M 46.33 2.77 C 49.53 4.03 52.34 6.06 54.35 8.87 C 51.87 9.04 49.39 9.05 46.91 9.07 C 46.70 6.97 46.51 4.87 46.33 2.77 Z" />
<path fill="#709e5c" opacity="1.00" d=" M 102.33 2.77 C 105.53 4.03 108.35 6.07 110.35 8.89 C 107.78 9.02 105.20 8.92 102.63 8.78 C 102.53 6.78 102.44 4.77 102.33 2.77 Z" />
<path fill="#709e5c" opacity="1.00" d=" M 158.34 2.77 C 161.53 4.03 164.34 6.06 166.35 8.87 C 163.87 9.04 161.39 9.05 158.91 9.07 C 158.69 6.97 158.52 4.87 158.34 2.77 Z" />
<path fill="#709e5c" opacity="1.00" d=" M 214.30 2.77 C 217.55 4.01 220.39 6.07 222.36 8.97 C 219.88 9.10 217.39 9.05 214.91 9.03 C 214.70 6.94 214.51 4.85 214.30 2.77 Z" />
</g>
<g id="#7392b4ff">
<path fill="#7392b4" opacity="1.00" d=" M 96.51 6.00 C 95.53 4.57 95.77 3.43 97.22 2.58 C 98.36 3.68 97.39 5.12 96.51 6.00 Z" />
<path fill="#7392b4" opacity="1.00" d=" M 207.65 5.61 C 207.40 4.31 207.80 3.32 208.86 2.62 C 210.26 3.60 209.29 5.81 207.65 5.61 Z" />
</g>
<g id="#645a4bff">
<path fill="#645a4b" opacity="1.00" d=" M 43.26 2.99 C 44.13 6.62 44.62 10.33 44.83 14.07 C 43.77 11.77 43.08 9.34 42.54 6.88 C 42.74 5.57 42.98 4.28 43.26 2.99 Z" />
<path fill="#645a4b" opacity="1.00" d=" M 99.27 2.99 C 100.14 6.63 100.60 10.33 100.83 14.06 C 99.77 11.76 99.08 9.33 98.53 6.87 C 98.73 5.57 98.98 4.28 99.27 2.99 Z" />
<path fill="#645a4b" opacity="1.00" d=" M 155.19 3.12 C 156.46 6.61 156.80 10.36 156.84 14.06 C 155.75 11.76 155.07 9.30 154.47 6.83 C 154.69 5.59 154.93 4.35 155.19 3.12 Z" />
<path fill="#645a4b" opacity="1.00" d=" M 210.97 2.96 C 212.57 6.42 212.92 10.28 212.90 14.07 C 211.76 11.75 211.03 9.27 210.37 6.79 C 210.51 5.50 210.71 4.23 210.97 2.96 Z" />
</g>
<g id="#5c8260ff">
<path fill="#5c8260" opacity="1.00" d=" M 55.38 8.79 C 54.67 7.78 54.92 6.50 55.31 5.42 C 56.68 6.27 56.92 7.37 56.02 8.73 L 55.38 8.79 Z" />
<path fill="#5c8260" opacity="1.00" d=" M 111.36 8.83 C 110.67 7.80 110.92 6.53 111.31 5.44 C 112.67 6.31 112.91 7.43 112.00 8.78 L 111.36 8.83 Z" />
<path fill="#5c8260" opacity="1.00" d=" M 167.42 8.79 C 166.69 7.79 166.93 6.51 167.31 5.43 C 168.69 6.26 168.94 7.36 168.07 8.72 L 167.42 8.79 Z" />
<path fill="#5c8260" opacity="1.00" d=" M 223.28 8.90 C 221.76 7.88 222.69 5.95 224.00 5.28 L 224.00 8.83 L 223.28 8.90 Z" />
</g>
<g id="#4377caff">
<path fill="#4377ca" opacity="1.00" d=" M 138.53 9.50 C 140.57 9.66 142.60 9.85 144.64 9.97 C 146.28 12.88 148.27 15.62 151.10 17.50 C 148.74 17.49 146.39 17.58 144.04 17.71 C 144.67 16.45 145.30 15.19 145.91 13.91 C 143.34 12.63 140.88 11.15 138.53 9.50 Z" />
</g>
<g id="#6c604cff">
<path fill="#6c604c" opacity="1.00" d=" M 47.09 9.93 C 47.71 10.07 48.96 10.34 49.58 10.47 C 48.89 14.58 48.33 18.70 47.91 22.84 C 47.45 22.49 46.54 21.80 46.09 21.45 L 45.50 21.02 C 46.00 17.32 46.54 13.62 47.09 9.93 Z" />
<path fill="#6c604c" opacity="1.00" d=" M 103.14 9.94 C 103.81 10.08 105.17 10.38 105.84 10.52 C 104.99 14.23 104.08 17.93 103.13 21.62 C 102.67 21.72 101.73 21.94 101.27 22.05 L 101.41 21.40 C 102.09 17.60 102.55 13.76 103.14 9.94 Z" />
<path fill="#6c604c" opacity="1.00" d=" M 214.98 9.92 C 215.68 10.06 217.09 10.36 217.79 10.50 C 217.03 14.19 216.23 17.87 215.43 21.54 C 214.97 21.70 214.05 22.02 213.59 22.19 L 213.35 21.41 C 213.75 17.56 214.42 13.75 214.98 9.92 Z" />
</g>
<g id="#6c5f4bff">
<path fill="#6c5f4b" opacity="1.00" d=" M 159.44 10.12 C 160.01 10.21 161.16 10.38 161.73 10.47 C 161.12 13.93 160.50 17.39 159.95 20.86 C 158.78 19.90 157.68 18.86 156.67 17.75 C 157.62 15.21 158.54 12.67 159.44 10.12 Z" />
</g>
<g id="#565249ff">
<path fill="#565249" opacity="1.00" d=" M 48.90 20.38 C 49.22 17.47 50.50 14.87 52.08 12.50 C 51.26 15.22 50.17 17.84 48.90 20.38 Z" />
<path fill="#565249" opacity="1.00" d=" M 104.90 20.38 C 105.21 17.47 106.50 14.87 108.08 12.50 C 107.26 15.22 106.16 17.84 104.90 20.38 Z" />
<path fill="#565249" opacity="1.00" d=" M 160.90 20.38 C 161.20 17.47 162.50 14.87 164.08 12.50 C 163.26 15.22 162.16 17.84 160.90 20.38 Z" />
<path fill="#565249" opacity="1.00" d=" M 216.90 20.38 C 217.20 17.47 218.50 14.87 220.08 12.50 C 219.26 15.22 218.16 17.84 216.90 20.38 Z" />
<path fill="#565249" opacity="1.00" d=" M 51.14 21.98 C 50.34 20.07 52.45 16.85 53.48 20.05 C 53.28 20.49 52.89 21.36 52.69 21.80 C 52.30 21.85 51.53 21.94 51.14 21.98 Z" />
<path fill="#565249" opacity="1.00" d=" M 107.02 20.66 C 106.87 18.48 110.06 17.58 109.21 20.39 L 108.48 20.90 C 108.12 20.84 107.39 20.72 107.02 20.66 Z" />
<path fill="#565249" opacity="1.00" d=" M 219.01 20.76 C 218.77 18.47 222.01 17.63 221.08 20.50 L 220.41 21.02 C 220.06 20.96 219.36 20.83 219.01 20.76 Z" />
</g>
<g id="#709fc2fe">
<path fill="#709fc2" opacity="1.00" d=" M 41.25 15.04 C 43.04 15.80 43.66 17.74 43.89 19.52 L 43.97 19.90 C 42.59 19.02 41.34 17.86 40.76 16.29 C 40.88 15.97 41.13 15.35 41.25 15.04 Z" />
</g>
<g id="#7ca2beff">
<path fill="#7ca2be" opacity="1.00" d=" M 97.07 15.07 C 98.54 15.68 99.44 17.02 100.12 18.39 L 100.25 18.76 C 98.79 18.52 97.38 17.76 96.67 16.41 C 96.77 16.08 96.97 15.40 97.07 15.07 Z" />
<path fill="#7ca2be" opacity="1.00" d=" M 208.45 15.37 C 210.12 15.62 211.37 16.85 212.21 18.25 L 212.36 18.69 C 210.91 18.62 209.49 17.98 208.63 16.77 C 208.59 16.42 208.49 15.72 208.45 15.37 Z" />
</g>
<g id="#7fa1b9ff">
<path fill="#7fa1b9" opacity="1.00" d=" M 154.34 14.66 C 154.67 15.10 155.33 15.98 155.67 16.42 C 155.92 16.75 156.42 17.42 156.67 17.75 C 157.68 18.86 158.78 19.90 159.95 20.86 C 160.55 21.32 161.75 22.24 162.35 22.71 L 162.80 23.07 L 161.76 22.95 C 159.64 22.64 157.59 22.04 155.54 21.49 C 155.22 19.20 154.76 16.93 154.34 14.66 Z" />
</g>
<g id="#4279caff">
<path fill="#4279ca" opacity="1.00" d=" M 55.92 16.26 C 60.32 18.09 65.21 19.94 69.59 17.11 C 68.29 19.46 67.55 22.08 67.97 24.77 C 61.62 26.64 55.18 28.90 50.08 33.26 C 49.04 36.78 52.77 38.36 54.99 40.14 C 49.93 39.17 44.85 38.13 40.20 35.82 C 40.51 34.92 40.81 34.01 41.11 33.10 C 43.10 34.08 45.09 35.05 47.09 36.01 C 47.70 34.39 48.41 32.81 48.79 31.12 C 47.73 29.50 46.26 28.22 44.92 26.85 C 45.28 26.97 46.00 27.21 46.37 27.33 C 53.68 30.31 60.45 26.01 66.65 22.62 C 63.55 20.17 59.74 19.03 55.86 18.68 C 55.87 18.08 55.90 16.87 55.92 16.26 Z" />
</g>
<g id="#4479cbff">
<path fill="#4479cb" opacity="1.00" d=" M 167.63 16.27 C 172.25 18.14 177.27 19.78 181.94 17.17 C 181.03 18.54 180.13 19.91 179.22 21.28 C 179.62 22.35 180.03 23.42 180.44 24.49 C 176.90 25.50 173.53 27.10 170.72 29.53 C 169.13 29.01 167.53 28.48 165.94 27.95 C 164.39 29.63 161.35 31.04 162.08 33.78 C 163.12 35.76 165.33 36.77 166.99 38.19 C 161.28 36.94 155.67 35.27 149.92 34.20 C 147.35 33.89 144.84 35.35 142.95 36.95 C 141.16 39.55 140.90 42.85 139.97 45.80 C 138.80 45.62 137.62 45.46 136.44 45.31 C 137.04 42.32 137.65 39.33 138.19 36.33 C 136.46 36.17 132.99 35.86 131.26 35.70 C 130.40 34.17 129.53 32.66 128.66 31.14 C 133.97 33.19 140.13 35.23 145.62 32.57 C 147.92 31.65 147.48 28.75 147.94 26.77 C 148.83 28.62 149.72 30.48 150.68 32.30 C 153.62 31.89 156.48 32.64 159.23 33.60 C 159.87 31.45 160.47 29.29 160.96 27.10 C 161.21 27.05 161.70 26.96 161.95 26.91 L 162.61 26.78 C 168.35 26.82 174.09 25.68 179.02 22.68 C 175.58 20.34 171.54 19.09 167.37 19.10 C 167.44 18.39 167.56 16.98 167.63 16.27 Z" />
</g>
<g id="#4378caff">
<path fill="#4378ca" opacity="1.00" d=" M 0.00 17.41 C 6.43 20.66 13.41 19.31 20.10 17.81 C 17.21 19.15 14.27 20.38 11.36 21.68 C 11.61 23.43 11.89 25.17 12.18 26.92 C 8.12 28.21 4.05 29.48 0.00 30.79 L 0.00 29.10 C 3.89 27.63 7.81 26.17 11.38 24.00 C 7.82 21.82 3.90 20.38 0.00 18.93 L 0.00 17.41 Z" />
<path fill="#4378ca" opacity="1.00" d=" M 190.12 16.74 C 194.23 18.25 198.58 19.11 202.95 18.41 C 200.93 20.03 198.95 21.70 196.98 23.38 C 197.61 24.68 198.24 25.99 198.89 27.29 C 194.02 25.97 186.82 25.48 186.95 33.02 C 191.23 33.53 195.68 35.43 199.93 34.01 C 202.03 32.73 202.54 30.00 203.60 27.93 C 204.42 29.96 205.25 31.99 206.13 33.99 C 198.86 36.20 196.09 43.53 191.28 48.58 C 195.88 51.18 200.43 53.90 205.30 56.00 L 195.40 56.00 C 196.75 55.60 198.10 55.18 199.44 54.75 C 195.60 52.59 191.63 50.65 187.79 48.49 C 191.60 45.50 195.09 41.78 194.90 36.46 C 191.99 36.17 189.08 35.87 186.18 35.58 C 185.89 32.82 185.61 30.06 185.31 27.30 C 189.28 26.11 193.23 24.85 197.14 23.48 C 195.25 20.80 192.80 18.61 190.12 16.74 Z" />
</g>
<g id="#4378c9ff">
<path fill="#4378c9" opacity="1.00" d=" M 22.10 18.81 C 26.21 20.22 31.20 22.13 34.52 18.15 C 36.47 19.03 38.45 19.83 40.47 20.52 C 40.45 20.90 40.41 21.65 40.39 22.02 C 36.37 20.84 32.24 21.56 28.56 23.43 C 28.57 24.62 28.59 25.81 28.60 26.99 C 25.17 27.55 22.01 29.06 19.14 30.97 C 18.82 30.50 18.20 29.57 17.89 29.11 C 21.19 27.58 24.52 26.11 27.79 24.52 C 26.17 22.35 24.19 20.50 22.10 18.81 Z" />
</g>
<g id="#298ad7ff">
<path fill="#298ad7" opacity="1.00" d=" M 40.76 16.29 C 41.34 17.86 42.59 19.02 43.97 19.90 C 44.35 20.18 45.12 20.74 45.50 21.02 L 46.09 21.45 C 45.77 21.84 45.14 22.61 44.82 23.00 L 43.97 24.01 C 44.61 22.99 43.49 20.37 42.29 21.89 C 42.17 22.90 42.54 23.76 43.38 24.45 C 43.75 24.92 44.48 25.86 44.84 26.32 C 42.42 25.77 39.17 25.31 40.39 22.02 C 40.41 21.65 40.45 20.90 40.47 20.52 C 40.54 19.46 40.69 17.35 40.76 16.29 Z" />
</g>
<g id="#4478caff">
<path fill="#4478ca" opacity="1.00" d=" M 77.77 16.86 C 82.08 18.14 86.53 19.66 91.00 18.14 C 87.97 20.41 83.41 23.66 86.79 27.64 C 82.42 25.24 74.31 25.66 75.40 32.93 C 79.54 33.49 83.83 35.47 87.95 33.99 C 90.58 33.25 90.47 30.14 91.08 27.99 C 91.30 28.03 91.73 28.09 91.95 28.13 C 92.61 30.29 93.39 32.42 94.27 34.50 C 88.13 35.12 84.99 40.23 83.17 45.42 C 82.63 42.38 82.14 39.33 81.67 36.28 C 79.17 36.12 76.68 35.96 74.19 35.79 C 73.96 32.93 73.75 30.08 73.47 27.23 C 77.01 26.16 80.55 25.09 84.07 23.99 C 84.02 22.76 83.96 21.54 83.90 20.31 C 81.85 19.18 79.79 18.04 77.77 16.86 Z" />
</g>
<g id="#3a94d8ff">
<path fill="#3a94d8" opacity="1.00" d=" M 96.67 16.41 C 97.38 17.76 98.79 18.52 100.25 18.76 C 100.62 19.65 101.01 20.53 101.41 21.40 L 101.27 22.05 L 101.08 22.43 C 100.70 23.12 100.32 23.81 99.92 24.49 C 99.57 24.90 98.87 25.71 98.52 26.12 C 97.78 22.91 97.23 19.66 96.67 16.41 Z" />
<path fill="#3a94d8" opacity="1.00" d=" M 208.63 16.77 C 209.49 17.98 210.91 18.62 212.36 18.69 C 212.69 19.59 213.02 20.50 213.35 21.41 L 213.59 22.19 L 213.18 22.54 C 212.15 23.45 211.12 24.35 210.08 25.24 C 209.59 22.42 209.08 19.59 208.63 16.77 Z" />
</g>
<g id="#3b6cbfff">
<path fill="#3b6cbf" opacity="1.00" d=" M 111.86 17.52 C 115.54 18.35 119.15 19.50 122.57 21.11 C 116.80 24.29 110.57 26.76 103.94 27.24 C 106.40 26.66 108.86 26.07 111.32 25.47 C 110.29 24.99 109.27 24.52 108.24 24.07 C 109.27 23.64 110.20 23.04 111.00 22.26 C 111.22 21.73 111.64 20.67 111.85 20.14 C 111.86 19.48 111.86 18.17 111.86 17.52 Z" />
<path fill="#3b6cbf" opacity="1.00" d=" M 167.37 19.10 C 171.54 19.09 175.58 20.34 179.02 22.68 C 174.09 25.68 168.35 26.82 162.61 26.78 C 164.17 25.97 165.70 25.09 167.24 24.24 C 166.30 23.93 165.36 23.62 164.41 23.33 C 166.01 22.48 167.37 21.01 167.37 19.10 Z" />
</g>
<g id="#4a463eff">
<path fill="#4a463e" opacity="1.00" d=" M 163.18 20.17 C 162.75 18.59 164.58 17.60 165.70 18.77 C 165.07 19.12 163.81 19.82 163.18 20.17 Z" />
</g>
<g id="#5688bafe">
<path fill="#5688ba" opacity="1.00" d=" M 165.70 18.77 L 166.09 18.86 C 165.16 20.19 164.57 21.72 164.01 23.23 C 163.70 23.19 163.10 23.11 162.80 23.07 L 162.35 22.71 C 162.56 22.07 162.98 20.81 163.18 20.17 C 163.81 19.82 165.07 19.12 165.70 18.77 Z" />
</g>
<g id="#9cb3c7fe">
<path fill="#9cb3c7" opacity="1.00" d=" M 166.09 18.86 C 166.41 18.92 167.05 19.04 167.37 19.10 C 167.37 21.01 166.01 22.48 164.41 23.33 L 164.01 23.23 C 164.57 21.72 165.16 20.19 166.09 18.86 Z" />
<path fill="#9cb3c7" opacity="1.00" d=" M 109.21 20.39 L 109.97 20.24 C 110.23 20.75 110.74 21.76 111.00 22.26 C 110.20 23.04 109.27 23.64 108.24 24.07 L 107.72 23.86 C 108.06 22.90 108.31 21.91 108.48 20.90 L 109.21 20.39 Z" />
<path fill="#9cb3c7" opacity="1.00" d=" M 221.08 20.50 L 221.80 20.27 C 223.73 21.61 222.07 23.81 220.29 24.15 L 219.81 23.98 C 220.15 23.03 220.35 22.04 220.41 21.02 L 221.08 20.50 Z" />
</g>
<g id="#3c6abeff">
<path fill="#3c6abe" opacity="1.00" d=" M 0.00 18.93 C 3.90 20.38 7.82 21.82 11.38 24.00 C 7.81 26.17 3.89 27.63 0.00 29.10 L 0.00 18.93 Z" />
</g>
<g id="#9eb5c9ff">
<path fill="#9eb5c9" opacity="1.00" d=" M 53.48 20.05 C 53.62 20.33 53.91 20.91 54.05 21.20 C 54.40 21.69 55.10 22.69 55.46 23.18 C 54.47 23.59 53.49 23.98 52.50 24.37 L 51.93 24.58 C 52.24 23.67 52.49 22.74 52.69 21.80 C 52.89 21.36 53.28 20.49 53.48 20.05 Z" />
</g>
<g id="#4078c9ff">
<path fill="#4078c9" opacity="1.00" d=" M 221.80 20.27 C 222.35 20.07 223.45 19.69 224.00 19.50 L 224.00 27.64 C 222.05 29.84 217.99 31.27 218.11 34.63 C 219.42 36.44 221.16 37.85 222.78 39.36 C 217.85 38.17 212.93 36.90 208.25 34.92 C 208.50 34.01 208.76 33.10 209.01 32.18 C 211.06 33.09 213.11 34.00 215.18 34.90 C 215.89 32.50 216.58 30.09 217.10 27.64 C 219.14 26.87 221.18 26.09 223.22 25.31 C 222.25 24.92 221.27 24.53 220.29 24.15 C 222.07 23.81 223.73 21.61 221.80 20.27 Z" />
</g>
<g id="#adc2d9ff">
<path fill="#adc2d9" opacity="1.00" d=" M 42.29 21.89 C 43.49 20.37 44.61 22.99 43.97 24.01 L 43.38 24.45 C 42.54 23.76 42.17 22.90 42.29 21.89 Z" />
</g>
<g id="#4f7baeff">
<path fill="#4f7bae" opacity="1.00" d=" M 107.02 20.66 C 107.39 20.72 108.12 20.84 108.48 20.90 C 108.31 21.91 108.06 22.90 107.72 23.86 C 107.39 23.78 106.73 23.62 106.39 23.54 L 106.15 22.95 C 106.37 22.38 106.80 21.23 107.02 20.66 Z" />
<path fill="#4f7bae" opacity="1.00" d=" M 219.01 20.76 C 219.36 20.83 220.06 20.96 220.41 21.02 C 220.35 22.04 220.15 23.03 219.81 23.98 C 219.47 23.92 218.79 23.81 218.45 23.75 L 218.26 23.14 C 218.45 22.54 218.82 21.36 219.01 20.76 Z" />
<path fill="#4f7bae" opacity="1.00" d=" M 51.14 21.98 C 51.53 21.94 52.30 21.85 52.69 21.80 C 52.49 22.74 52.24 23.67 51.93 24.58 C 51.61 24.69 50.96 24.90 50.64 25.00 L 50.17 24.62 C 50.41 23.96 50.90 22.64 51.14 21.98 Z" />
</g>
<g id="#8ea7b9ff">
<path fill="#8ea7b9" opacity="1.00" d=" M 44.82 23.00 C 45.14 22.61 45.77 21.84 46.09 21.45 C 46.54 21.80 47.45 22.49 47.91 22.84 C 48.47 23.28 49.61 24.17 50.17 24.62 L 50.64 25.00 L 49.68 25.26 C 47.82 24.89 46.01 24.31 44.20 23.78 L 44.82 23.00 Z" />
</g>
<g id="#8ba4b6fe">
<path fill="#8ba4b6" opacity="1.00" d=" M 101.08 22.43 L 101.27 22.05 C 101.73 21.94 102.67 21.72 103.13 21.62 C 103.89 21.95 105.40 22.61 106.15 22.95 L 106.39 23.54 L 105.96 23.98 C 104.22 23.91 102.58 23.26 101.08 22.43 Z" />
<path fill="#8ba4b6" opacity="1.00" d=" M 213.18 22.54 L 213.59 22.19 C 214.05 22.02 214.97 21.70 215.43 21.54 C 216.14 21.94 217.55 22.74 218.26 23.14 L 218.45 23.75 L 217.82 23.87 C 216.18 23.84 214.58 23.41 213.18 22.54 Z" />
</g>
<g id="#65569cff">
<path fill="#65569c" opacity="1.00" d=" M 157.15 23.40 C 161.14 22.58 156.30 27.38 157.15 23.40 Z" />
<path fill="#65569c" opacity="1.00" d=" M 161.76 22.95 L 162.80 23.07 C 163.10 23.11 163.70 23.19 164.01 23.23 L 164.41 23.33 C 165.36 23.62 166.30 23.93 167.24 24.24 C 165.70 25.09 164.17 25.97 162.61 26.78 L 161.95 26.91 C 161.19 25.57 160.41 24.25 159.67 22.91 C 160.19 22.92 161.24 22.94 161.76 22.95 Z" />
<path fill="#65569c" opacity="1.00" d=" M 101.15 24.40 C 105.14 23.58 100.30 28.38 101.15 24.40 Z" />
<path fill="#65569c" opacity="1.00" d=" M 105.96 23.98 L 106.39 23.54 C 106.73 23.62 107.39 23.78 107.72 23.86 L 108.24 24.07 C 109.27 24.52 110.29 24.99 111.32 25.47 C 108.86 26.07 106.40 26.66 103.94 27.24 C 104.59 26.14 105.26 25.05 105.96 23.98 Z" />
<path fill="#65569c" opacity="1.00" d=" M 213.15 24.40 C 217.14 23.58 212.30 28.38 213.15 24.40 Z" />
<path fill="#65569c" opacity="1.00" d=" M 217.82 23.87 L 218.45 23.75 C 218.79 23.81 219.47 23.92 219.81 23.98 L 220.29 24.15 C 221.27 24.53 222.25 24.92 223.22 25.31 C 221.18 26.09 219.14 26.87 217.10 27.64 C 217.37 26.39 217.57 25.13 217.82 23.87 Z" />
<path fill="#65569c" opacity="1.00" d=" M 44.92 26.85 C 43.90 24.37 48.39 25.72 46.37 27.33 C 46.00 27.21 45.28 26.97 44.92 26.85 Z" />
<path fill="#65569c" opacity="1.00" d=" M 49.68 25.26 L 50.64 25.00 C 50.96 24.90 51.61 24.69 51.93 24.58 L 52.50 24.37 C 53.42 25.34 54.34 26.30 55.26 27.27 C 52.49 27.33 49.70 27.18 47.09 26.18 C 47.74 25.95 49.03 25.49 49.68 25.26 Z" />
</g>
<g id="#4578c9ff">
<path fill="#4578c9" opacity="1.00" d=" M 32.62 27.15 C 34.86 29.82 36.36 32.99 38.40 35.81 C 30.66 34.18 30.87 42.22 27.39 46.38 C 26.79 46.03 25.61 45.32 25.02 44.97 C 26.02 43.21 27.01 41.44 28.00 39.67 C 23.53 38.31 18.99 37.20 14.46 36.07 C 15.97 35.09 17.41 33.96 19.11 33.32 C 24.14 34.51 29.55 36.79 34.18 33.22 C 33.65 31.20 33.12 29.18 32.62 27.15 Z" />
</g>
<g id="#406fc5ff">
<path fill="#406fc5" opacity="1.00" d=" M 0.00 37.12 C 3.91 36.73 7.83 36.33 11.74 35.95 C 11.20 37.88 10.66 39.81 10.12 41.75 C 11.31 43.49 12.51 45.22 13.72 46.95 C 12.21 47.12 9.21 47.46 7.70 47.64 C 7.74 48.29 7.77 48.95 7.81 49.60 C 5.21 49.42 2.60 49.24 0.00 49.04 L 0.00 37.12 Z" />
</g>
<g id="#4878cbff">
<path fill="#4878cb" opacity="1.00" d=" M 60.04 38.89 C 62.46 37.63 64.98 36.62 67.56 35.76 C 66.42 37.00 65.24 38.21 63.98 39.35 C 64.97 41.37 66.04 43.36 67.02 45.38 C 64.47 43.47 62.15 41.28 60.04 38.89 Z" />
</g>
<g id="#4374c9ff">
<path fill="#4374c9" opacity="1.00" d=" M 172.01 38.06 C 174.68 37.16 177.32 36.29 180.03 35.47 C 178.89 37.78 177.72 40.08 176.67 42.43 C 177.92 43.18 179.16 43.93 180.40 44.69 C 177.35 44.31 174.76 42.61 172.15 41.13 C 172.10 40.10 172.05 39.08 172.01 38.06 Z" />
</g>
<g id="#4070c4ff">
<path fill="#4070c4" opacity="1.00" d=" M 13.20 38.31 C 14.67 38.25 14.67 40.75 13.20 40.69 C 11.73 40.71 11.73 38.29 13.20 38.31 Z" />
</g>
<g id="#4378cbff">
<path fill="#4378cb" opacity="1.00" d=" M 103.26 38.66 C 103.34 40.48 103.37 42.30 103.38 44.12 C 106.34 44.55 109.33 44.91 112.30 45.33 C 107.10 45.29 101.72 48.76 96.59 46.63 C 93.32 45.61 89.91 45.17 86.57 44.45 C 91.21 42.56 96.05 44.00 100.79 44.42 C 101.62 42.50 102.44 40.58 103.26 38.66 Z" />
<path fill="#4378cb" opacity="1.00" d=" M 34.88 42.82 C 38.97 45.60 44.14 43.79 47.00 40.12 C 46.65 41.49 46.31 42.86 45.97 44.23 C 49.44 45.15 52.94 45.95 56.42 46.79 C 53.02 46.73 49.63 46.67 46.24 46.44 C 45.42 47.37 44.61 48.29 43.80 49.22 C 40.48 45.60 35.53 44.95 30.89 45.68 C 32.24 44.74 33.56 43.78 34.88 42.82 Z" />
</g>
<g id="#4279cbff">
<path fill="#4279cb" opacity="1.00" d=" M 155.01 44.16 C 157.52 43.42 158.93 40.97 160.63 39.16 C 160.80 41.17 161.05 43.17 161.36 45.16 C 157.06 47.83 152.36 46.53 148.05 44.69 C 148.23 43.97 148.41 43.25 148.61 42.53 C 150.62 43.39 152.71 44.93 155.01 44.16 Z" />
</g>
<g id="#4379cbff">
<path fill="#4379cb" opacity="1.00" d=" M 198.57 44.34 C 206.98 42.34 215.54 44.87 224.00 45.13 L 224.00 45.87 C 218.93 46.20 213.73 47.94 208.65 46.66 C 205.27 45.96 201.91 45.22 198.57 44.34 Z" />
</g>
<g id="#4c77caff">
<path fill="#4c77ca" opacity="1.00" d=" M 59.59 44.03 C 60.73 44.86 61.86 45.69 63.00 46.53 C 61.81 47.54 60.62 48.56 59.40 49.54 C 58.96 49.66 58.07 49.92 57.63 50.05 C 58.28 48.04 58.96 46.04 59.59 44.03 Z" />
</g>
<g id="#4778d1ff">
<path fill="#4778d1" opacity="1.00" d=" M 113.53 43.52 C 114.85 44.94 116.15 46.37 117.44 47.82 C 116.00 47.88 114.56 47.95 113.12 48.00 C 113.26 46.51 113.40 45.01 113.53 43.52 Z" />
</g>
<g id="#4575cbff">
<path fill="#4575cb" opacity="1.00" d=" M 163.96 44.23 C 164.58 43.18 166.42 43.18 167.04 44.23 C 167.35 46.00 163.65 46.00 163.96 44.23 Z" />
</g>
<g id="#4177ccff">
<path fill="#4177cc" opacity="1.00" d=" M 130.40 46.10 C 138.08 46.73 144.12 51.75 150.17 56.00 L 139.14 56.00 C 140.76 55.38 144.00 54.14 145.62 53.52 C 143.26 52.25 140.88 51.03 138.48 49.83 C 138.28 51.14 138.09 52.45 137.90 53.76 C 135.34 51.27 132.66 48.88 130.40 46.10 Z" />
</g>
<g id="#536ea1ff">
<path fill="#536ea1" opacity="1.00" d=" M 0.00 49.04 C 2.60 49.24 5.21 49.42 7.81 49.60 C 9.02 51.52 10.23 53.44 11.54 55.28 C 8.19 52.58 4.00 51.46 0.00 50.07 L 0.00 49.04 Z" />
</g>
<g id="#42689dff">
<path fill="#42689d" opacity="1.00" d=" M 111.49 50.71 C 115.09 50.32 118.71 50.12 122.33 49.86 C 122.76 51.62 123.25 53.37 123.82 55.09 C 120.25 52.41 115.84 51.36 111.49 50.71 Z" />
</g>
<g id="#6894c6ff">
<path fill="#6894c6" opacity="1.00" d=" M 7.81 49.60 C 10.50 51.61 13.02 53.82 15.57 56.00 L 12.53 56.00 L 11.54 55.28 C 10.23 53.44 9.02 51.52 7.81 49.60 Z" />
</g>
<g id="#315a8cff">
<path fill="#315a8c" opacity="1.00" d=" M 55.21 50.71 C 55.81 50.54 57.02 50.21 57.63 50.05 C 58.07 49.92 58.96 49.66 59.40 49.54 C 60.64 49.92 61.86 50.35 63.07 50.83 C 61.55 50.80 58.53 50.76 57.01 50.73 L 56.04 50.70 L 55.21 50.71 Z" />
</g>
<g id="#2f5b84ff">
<path fill="#2f5b84" opacity="1.00" d=" M 167.36 50.96 C 169.92 50.74 172.48 50.61 175.06 50.57 L 174.21 50.56 C 172.92 50.62 170.34 50.73 169.05 50.79 L 168.13 50.87 L 167.36 50.96 Z" />
</g>
<g id="#607aafff">
<path fill="#607aaf" opacity="1.00" d=" M 175.06 50.57 C 177.99 50.90 179.42 54.08 181.28 56.00 L 179.94 56.00 C 177.92 54.31 176.04 52.45 174.21 50.56 L 175.06 50.57 Z" />
</g>
<g id="#24393dff">
<path fill="#24393d" opacity="1.00" d=" M 0.00 50.07 C 4.00 51.46 8.19 52.58 11.54 55.28 L 12.53 56.00 L 7.73 56.00 C 5.15 54.33 2.57 52.65 0.00 50.95 L 0.00 50.07 Z" />
</g>
<g id="#3686d0ff">
<path fill="#3686d0" opacity="1.00" d=" M 42.82 51.66 C 44.02 51.45 45.22 51.23 46.43 51.00 C 44.86 51.97 43.33 53.01 41.88 54.16 C 42.12 53.53 42.59 52.28 42.82 51.66 Z" />
</g>
<g id="#809db3ff">
<path fill="#809db3" opacity="1.00" d=" M 46.43 51.00 L 47.58 50.75 C 47.05 51.84 46.49 52.93 45.92 54.01 C 45.42 54.50 44.41 55.50 43.91 56.00 L 41.11 56.00 C 41.30 55.54 41.69 54.62 41.88 54.16 C 43.33 53.01 44.86 51.97 46.43 51.00 Z" />
</g>
<g id="#203b3cff">
<path fill="#203b3c" opacity="1.00" d=" M 57.01 50.73 C 58.53 50.76 61.55 50.80 63.07 50.83 C 64.63 52.62 66.25 54.37 67.99 56.00 L 64.52 56.00 C 63.85 55.46 62.51 54.37 61.84 53.83 C 60.32 52.67 58.67 51.68 57.01 50.73 Z" />
</g>
<g id="#6286a8ff">
<path fill="#6286a8" opacity="1.00" d=" M 63.07 50.83 C 65.49 52.14 67.53 54.02 69.43 56.00 L 67.99 56.00 C 66.25 54.37 64.63 52.62 63.07 50.83 Z" />
</g>
<g id="#244048ff">
<path fill="#244048" opacity="1.00" d=" M 111.49 50.71 C 115.84 51.36 120.25 52.41 123.82 55.09 L 124.15 56.00 L 119.74 56.00 C 118.75 55.10 117.76 54.22 116.76 53.34 C 115.29 52.46 113.75 51.69 112.20 50.96 L 111.49 50.71 Z" />
</g>
<g id="#203b43ff">
<path fill="#203b43" opacity="1.00" d=" M 169.05 50.79 C 170.34 50.73 172.92 50.62 174.21 50.56 C 176.04 52.45 177.92 54.31 179.94 56.00 L 176.42 56.00 C 174.04 54.16 171.68 52.27 169.05 50.79 Z" />
</g>
<g id="#7c9c74ff">
<path fill="#7c9c74" opacity="1.00" d=" M 0.00 50.95 C 2.57 52.65 5.15 54.33 7.73 56.00 L 6.40 56.00 C 4.25 54.91 2.09 53.80 0.00 52.58 L 0.00 50.95 Z" />
</g>
<g id="#74a05cff">
<path fill="#74a05c" opacity="1.00" d=" M 47.69 56.00 C 50.48 54.25 53.23 52.44 56.04 50.70 C 55.87 52.47 55.70 54.23 55.54 56.00 L 47.69 56.00 Z" />
<path fill="#74a05c" opacity="1.00" d=" M 215.74 56.00 C 218.51 54.39 221.24 52.73 224.00 51.09 L 224.00 56.00 L 215.74 56.00 Z" />
</g>
<g id="#709d86ff">
<path fill="#709d86" opacity="1.00" d=" M 56.04 50.70 L 57.01 50.73 C 58.67 51.68 60.32 52.67 61.84 53.83 C 60.65 53.67 59.46 53.52 58.27 53.38 C 57.55 54.26 56.82 55.13 56.08 56.00 L 55.54 56.00 C 55.70 54.23 55.87 52.47 56.04 50.70 Z" />
</g>
<g id="#2e83d0ff">
<path fill="#2e83d0" opacity="1.00" d=" M 97.19 56.00 C 98.75 54.62 100.24 53.17 101.75 51.73 C 100.36 52.52 100.59 54.21 100.86 55.52 L 100.88 56.00 L 97.19 56.00 Z" />
<path fill="#2e83d0" opacity="1.00" d=" M 209.44 56.00 C 210.84 54.55 212.26 53.12 213.69 51.70 C 212.36 52.54 212.62 54.21 212.85 55.52 L 212.86 56.00 L 209.44 56.00 Z" />
</g>
<g id="#67839bff">
<path fill="#67839b" opacity="1.00" d=" M 101.75 51.73 C 102.06 51.81 102.69 51.97 103.01 52.05 C 102.64 53.40 101.92 54.56 100.86 55.52 C 100.59 54.21 100.36 52.52 101.75 51.73 Z" />
<path fill="#67839b" opacity="1.00" d=" M 213.69 51.70 C 214.02 51.82 214.66 52.07 214.98 52.19 C 214.60 53.49 213.89 54.60 212.85 55.52 C 212.62 54.21 212.36 52.54 213.69 51.70 Z" />
</g>
<g id="#74a05eff">
<path fill="#74a05e" opacity="1.00" d=" M 103.65 56.00 C 106.49 54.30 109.32 52.59 112.20 50.96 C 112.10 51.84 111.90 53.61 111.80 54.49 C 113.45 54.10 115.10 53.71 116.76 53.34 C 117.76 54.22 118.75 55.10 119.74 56.00 L 103.65 56.00 Z" />
</g>
<g id="#6e9a88ff">
<path fill="#6e9a88" opacity="1.00" d=" M 112.20 50.96 C 113.75 51.69 115.29 52.46 116.76 53.34 C 115.10 53.71 113.45 54.10 111.80 54.49 C 111.90 53.61 112.10 51.84 112.20 50.96 Z" />
</g>
<g id="#73a065ff">
<path fill="#73a065" opacity="1.00" d=" M 159.59 56.00 C 162.41 54.23 165.21 52.46 168.13 50.87 L 169.05 50.79 C 171.68 52.27 174.04 54.16 176.42 56.00 L 174.02 56.00 C 173.09 55.25 172.18 54.49 171.28 53.71 C 170.15 54.48 169.04 55.25 167.90 56.00 L 159.59 56.00 Z" />
</g>
<g id="#759d51ff">
<path fill="#759d51" opacity="1.00" d=" M 0.00 52.58 C 2.09 53.80 4.25 54.91 6.40 56.00 L 0.00 56.00 L 0.00 52.58 Z" />
</g>
<g id="#6e9b56fe">
<path fill="#6e9b56" opacity="1.00" d=" M 56.08 56.00 C 56.82 55.13 57.55 54.26 58.27 53.38 C 59.46 53.52 60.65 53.67 61.84 53.83 C 62.51 54.37 63.85 55.46 64.52 56.00 L 56.08 56.00 Z" />
</g>
<g id="#2e86d2ff">
<path fill="#2e86d2" opacity="1.00" d=" M 154.23 56.00 C 154.59 54.26 156.20 53.34 157.85 53.14 C 157.55 53.86 156.94 55.29 156.63 56.00 L 154.23 56.00 Z" />
</g>
<g id="#669946ff">
<path fill="#669946" opacity="1.00" d=" M 167.90 56.00 C 169.04 55.25 170.15 54.48 171.28 53.71 C 172.18 54.49 173.09 55.25 174.02 56.00 L 167.90 56.00 Z" />
</g>
</svg>
