<?xml version="1.0" encoding="UTF-8" ?>
<!DOCTYPE svg PUBLIC "-//W3C//DTD SVG 1.1//EN" "http://www.w3.org/Graphics/SVG/1.1/DTD/svg11.dtd">
<svg width="224pt" height="56pt" viewBox="0 0 224 56" version="1.1" xmlns="http://www.w3.org/2000/svg">
<g id="#3c6cbeff">
<path fill="#3c6cbe" opacity="1.00" d=" M 0.00 0.00 L 25.34 0.00 L 26.31 0.10 L 25.29 0.36 C 21.54 1.27 17.76 2.11 14.09 3.29 C 14.28 3.58 14.67 4.17 14.86 4.47 L 15.28 5.04 C 13.00 4.65 10.78 4.01 8.58 3.31 C 9.48 5.13 10.43 6.96 10.91 8.94 C 8.95 11.15 6.45 12.79 4.17 14.64 C 8.15 14.24 12.15 14.08 16.16 14.05 C 14.60 12.30 13.04 10.56 11.49 8.80 C 13.31 7.59 15.13 6.37 17.07 5.35 C 20.87 5.84 24.70 6.22 28.38 7.28 C 28.71 8.46 29.04 9.63 29.37 10.81 C 29.19 10.84 28.84 10.89 28.66 10.91 C 28.77 13.79 28.14 16.60 27.31 19.34 C 25.84 19.85 24.35 20.31 22.88 20.82 C 20.22 21.85 16.93 22.55 15.49 25.30 C 13.76 28.04 13.21 31.50 10.97 33.92 C 7.74 36.31 3.61 36.84 0.00 38.44 L 0.00 31.08 C 4.12 29.56 8.20 27.92 12.42 26.68 C 11.89 25.13 11.36 23.58 10.84 22.03 C 13.92 20.66 16.98 19.24 20.06 17.85 C 13.41 19.32 6.40 20.55 0.00 17.43 L 0.00 0.00 Z" />
</g>
<g id="#417bcaff">
<path fill="#417bca" opacity="1.00" d=" M 25.34 0.00 L 37.13 0.00 C 40.04 1.68 42.72 3.71 45.47 5.64 C 50.09 4.37 54.59 2.74 59.01 0.90 C 57.52 2.78 56.09 4.70 54.71 6.66 C 51.74 6.48 48.77 6.30 45.81 6.12 C 46.17 7.44 46.54 8.76 46.92 10.07 C 50.62 10.41 54.33 10.76 58.03 11.14 C 57.89 11.69 57.59 12.79 57.45 13.34 C 54.63 13.51 51.82 13.72 49.01 13.98 C 49.36 15.46 49.70 16.94 50.05 18.42 C 56.39 16.79 62.88 18.38 69.30 17.70 C 68.62 19.95 68.06 22.24 67.67 24.56 C 61.68 27.28 55.52 29.79 49.98 33.35 C 49.83 36.49 52.75 38.34 54.67 40.35 C 50.76 39.16 46.84 37.73 42.72 37.55 C 39.04 38.08 35.49 39.30 31.93 40.38 C 37.40 37.49 44.75 35.27 46.76 28.67 C 49.98 22.57 48.23 15.69 45.43 9.85 L 44.90 9.32 C 42.94 7.38 41.00 5.42 39.00 3.52 C 35.06 1.56 30.64 0.72 26.31 0.10 L 25.34 0.00 M 55.60 19.45 C 49.55 18.29 47.96 25.35 49.46 29.61 C 55.47 27.96 61.33 25.71 66.75 22.62 C 63.50 20.37 59.78 18.27 55.60 19.45 Z" />
</g>
<g id="#3c6bbeff">
<path fill="#3c6bbe" opacity="1.00" d=" M 37.13 0.00 L 77.91 0.00 C 73.63 1.28 69.34 3.12 64.78 2.74 C 65.58 4.43 66.41 6.11 66.88 7.92 C 65.01 10.20 62.43 11.75 60.18 13.61 C 64.04 13.29 67.91 13.14 71.78 13.17 C 69.84 10.84 66.55 6.86 70.92 5.09 C 72.81 4.77 74.72 4.52 76.63 4.25 C 78.64 4.94 80.61 5.74 82.55 6.60 C 84.09 7.30 85.59 8.08 87.09 8.86 C 85.89 12.32 84.66 15.77 83.46 19.24 C 81.30 20.25 79.04 21.08 76.98 22.28 C 73.12 24.84 70.74 28.82 68.24 32.58 C 65.04 35.62 61.04 37.71 57.91 40.83 C 57.25 41.52 56.77 42.35 56.31 43.18 C 56.76 45.04 57.27 46.89 57.74 48.75 C 61.56 47.90 65.36 46.90 69.20 46.12 C 69.64 46.05 70.50 45.92 70.94 45.85 C 75.95 45.55 80.94 44.97 85.88 44.05 C 85.78 42.64 85.68 41.24 85.58 39.83 C 88.04 39.18 90.55 38.72 92.98 37.97 C 99.92 36.84 103.69 30.55 104.04 24.02 L 104.15 23.23 C 104.39 19.70 105.32 16.04 104.31 12.59 C 102.23 8.63 98.60 5.67 95.11 2.97 C 94.29 2.50 93.44 2.10 92.55 1.78 C 90.85 1.14 89.14 0.54 87.40 0.00 L 137.49 0.00 C 134.69 0.83 131.97 1.91 129.30 3.11 L 128.49 3.45 C 125.89 2.69 123.30 1.91 120.73 1.07 C 121.52 3.15 122.47 5.23 122.67 7.48 C 120.67 9.39 118.34 10.91 116.16 12.60 C 120.03 12.28 123.92 12.12 127.82 12.17 C 126.59 10.52 125.28 8.90 124.44 7.01 C 125.28 5.76 126.45 4.76 127.64 3.85 C 131.33 4.63 135.06 5.32 138.71 6.31 C 139.79 6.92 140.83 7.59 141.87 8.28 C 141.43 8.49 140.56 8.90 140.13 9.11 C 140.91 11.62 141.45 14.19 141.83 16.79 C 139.93 16.12 138.03 15.42 136.13 14.74 C 137.28 16.22 138.43 17.70 139.58 19.19 C 139.07 19.68 138.05 20.68 137.55 21.17 C 136.40 20.14 134.62 20.44 133.54 21.41 L 132.93 21.83 C 129.91 23.59 127.61 26.29 126.43 29.58 C 124.68 34.62 119.28 36.56 115.13 39.24 C 116.05 39.02 116.97 38.81 117.89 38.59 C 116.65 40.66 115.40 42.73 114.18 44.82 C 110.65 44.86 107.12 44.85 103.59 44.86 C 103.52 42.83 103.42 40.79 103.22 38.77 C 102.41 40.51 101.64 42.28 100.89 44.05 C 96.11 43.77 91.29 43.28 86.54 44.18 C 90.87 45.38 95.24 46.62 99.73 46.99 C 104.88 46.81 110.36 46.28 115.09 48.76 C 115.47 47.86 115.85 46.97 116.24 46.07 C 122.29 46.46 128.41 46.47 134.37 47.67 C 132.35 49.62 130.27 51.51 128.19 53.41 C 133.65 50.72 140.08 50.17 145.66 52.86 C 143.56 53.29 139.35 54.15 137.25 54.59 C 137.93 54.94 139.31 55.65 140.00 56.00 L 93.31 56.00 C 86.94 53.22 81.15 49.31 74.78 46.53 C 75.70 47.60 76.62 48.68 77.53 49.76 C 75.71 51.31 73.91 52.89 72.15 54.51 C 74.97 53.38 77.69 51.55 80.82 51.53 C 83.32 52.00 85.54 53.34 87.80 54.45 C 86.29 54.99 84.78 55.50 83.26 56.00 L 32.74 56.00 C 30.10 53.60 27.21 51.50 24.12 49.71 C 26.31 46.74 28.67 43.90 30.69 40.82 C 31.00 40.71 31.62 40.49 31.93 40.38 C 35.49 39.30 39.04 38.08 42.72 37.55 C 46.84 37.73 50.76 39.16 54.67 40.35 C 52.75 38.34 49.83 36.49 49.98 33.35 C 55.52 29.79 61.68 27.28 67.67 24.56 C 68.06 22.24 68.62 19.95 69.30 17.70 C 62.88 18.38 56.39 16.79 50.05 18.42 C 49.70 16.94 49.36 15.46 49.01 13.98 C 51.82 13.72 54.63 13.51 57.45 13.34 C 57.59 12.79 57.89 11.69 58.03 11.14 C 54.33 10.76 50.62 10.41 46.92 10.07 C 46.54 8.76 46.17 7.44 45.81 6.12 C 48.77 6.30 51.74 6.48 54.71 6.66 C 56.09 4.70 57.52 2.78 59.01 0.90 C 54.59 2.74 50.09 4.37 45.47 5.64 C 42.72 3.71 40.04 1.68 37.13 0.00 M 98.91 3.30 C 99.59 4.15 100.27 5.01 100.96 5.87 C 104.37 5.47 107.78 5.99 111.11 6.72 C 111.49 5.65 111.87 4.57 112.25 3.49 C 107.80 3.73 103.35 3.50 98.91 3.30 M 103.29 10.32 C 106.79 12.47 111.87 13.97 115.02 10.38 C 111.14 9.72 107.18 9.67 103.29 10.32 M 120.60 17.15 C 117.60 17.28 114.72 15.98 111.73 16.09 C 109.10 16.59 107.03 18.43 105.06 20.10 C 110.84 18.88 117.36 17.12 122.40 21.19 C 116.86 23.67 111.55 26.87 105.47 27.85 C 104.38 31.29 102.53 34.40 100.21 37.16 C 103.82 37.59 107.40 38.26 110.94 39.11 C 108.82 37.34 105.06 35.77 106.14 32.34 C 111.37 28.07 117.41 24.82 123.81 22.69 C 123.80 20.90 123.80 19.09 124.21 17.34 C 126.60 15.94 129.33 15.31 131.94 14.48 C 131.69 14.17 131.17 13.55 130.91 13.23 C 127.47 14.51 124.17 16.28 120.60 17.15 M 34.87 42.86 C 33.56 43.79 32.25 44.72 30.92 45.64 C 35.58 44.96 40.50 45.71 43.88 49.24 C 44.63 48.29 45.39 47.34 46.15 46.39 C 49.57 46.65 52.99 46.72 56.43 46.79 C 52.91 45.94 49.38 45.19 45.90 44.21 C 46.28 42.86 46.68 41.52 47.10 40.17 C 44.07 43.61 38.99 45.56 34.87 42.86 M 60.53 49.93 C 59.68 50.96 58.82 51.98 57.97 53.00 C 61.06 53.29 64.17 53.59 67.27 53.91 C 65.04 52.55 62.79 51.23 60.53 49.93 M 113.51 51.30 C 116.82 51.86 120.14 52.43 123.47 52.81 C 120.49 50.85 116.94 49.81 113.51 51.30 Z" />
<path fill="#3c6bbe" opacity="1.00" d=" M 154.16 0.00 L 189.36 0.00 C 186.04 1.39 182.57 2.72 179.75 5.01 C 177.35 7.94 175.02 10.94 172.37 13.65 C 176.16 13.32 179.97 13.15 183.78 13.15 C 181.83 10.83 178.56 6.86 182.92 5.09 C 184.81 4.77 186.72 4.52 188.63 4.25 C 190.64 4.94 192.61 5.74 194.55 6.60 C 196.09 7.30 197.59 8.08 199.09 8.86 C 197.88 12.32 196.66 15.77 195.46 19.24 C 193.29 20.25 191.04 21.08 188.98 22.28 C 185.12 24.84 182.74 28.82 180.24 32.58 C 177.04 35.62 173.04 37.71 169.91 40.83 C 169.24 41.52 168.77 42.35 168.31 43.18 C 168.76 45.04 169.26 46.89 169.74 48.75 C 173.56 47.90 177.36 46.90 181.20 46.12 C 181.64 46.05 182.50 45.92 182.94 45.85 C 187.95 45.55 192.94 44.97 197.88 44.05 C 197.78 42.64 197.68 41.24 197.58 39.83 C 200.04 39.18 202.55 38.72 204.98 37.97 C 211.92 36.84 215.69 30.55 216.04 24.02 L 216.15 23.23 C 216.39 19.70 217.32 16.04 216.31 12.59 C 214.22 8.63 210.60 5.67 207.11 2.97 C 206.29 2.50 205.43 2.10 204.55 1.78 C 202.84 1.14 201.12 0.54 199.38 0.00 L 224.00 0.00 L 224.00 3.22 C 219.42 3.52 214.84 3.72 210.27 4.08 C 214.65 5.82 219.42 5.90 224.00 6.79 L 224.00 9.80 C 221.19 10.07 218.39 10.36 215.59 10.64 C 218.36 11.50 221.19 12.17 224.00 12.88 L 224.00 26.99 C 221.86 27.20 219.72 27.42 217.60 27.63 C 216.22 30.97 214.44 34.11 212.56 37.19 C 215.96 37.73 219.33 38.43 222.69 39.18 C 220.68 37.16 218.85 34.99 217.07 32.78 C 219.43 31.32 221.80 29.85 224.00 28.15 L 224.00 45.16 C 215.54 44.67 207.00 42.66 198.54 44.18 C 201.89 45.14 205.28 45.98 208.70 46.67 C 213.75 47.91 218.94 46.17 224.00 45.92 L 224.00 56.00 L 205.30 56.00 C 198.93 53.22 193.14 49.31 186.78 46.53 C 187.70 47.60 188.62 48.68 189.53 49.76 C 187.71 51.31 185.91 52.89 184.15 54.51 C 186.97 53.38 189.69 51.55 192.82 51.53 C 195.32 52.00 197.54 53.34 199.80 54.45 C 198.29 54.99 196.78 55.50 195.26 56.00 L 150.04 56.00 C 145.54 51.94 140.07 49.26 134.44 47.14 C 137.70 45.54 140.63 43.28 142.28 39.97 C 146.35 38.11 150.52 36.48 154.67 34.79 C 158.61 36.21 162.67 37.24 166.69 38.43 C 164.88 36.35 161.44 34.53 162.16 31.30 C 163.79 29.27 166.59 29.06 168.96 28.57 C 172.77 28.06 176.15 26.09 179.67 24.69 C 180.05 22.33 180.61 20.01 181.30 17.73 C 174.43 19.02 167.74 15.08 160.88 17.05 C 160.70 15.32 160.55 13.59 160.44 11.86 C 163.89 11.98 167.33 12.30 170.78 12.58 C 166.23 8.13 159.02 10.07 154.22 5.91 C 158.65 5.87 163.09 6.07 167.50 6.43 C 167.71 5.56 167.92 4.68 168.14 3.81 C 163.27 3.53 157.79 3.86 154.16 0.00 M 155.80 43.88 C 153.33 45.08 150.83 43.58 148.60 42.59 C 148.40 43.32 148.20 44.04 147.99 44.76 C 152.34 46.48 157.05 47.67 161.41 45.22 C 161.06 43.24 160.79 41.24 160.62 39.23 C 159.11 40.87 157.76 42.76 155.80 43.88 M 163.99 44.22 C 163.65 46.02 167.34 46.02 167.01 44.22 C 166.42 43.16 164.57 43.16 163.99 44.22 M 172.53 49.93 C 171.68 50.96 170.82 51.98 169.97 53.00 C 173.06 53.29 176.17 53.59 179.27 53.91 C 177.04 52.55 174.79 51.23 172.53 49.93 Z" />
<path fill="#3c6bbe" opacity="1.00" d=" M 0.00 43.58 L 0.99 43.27 C 1.31 43.78 1.95 44.79 2.27 45.29 C 3.14 48.14 3.18 51.14 3.14 54.09 C 5.79 54.40 8.44 54.73 11.09 55.04 C 9.08 53.64 7.06 52.24 5.04 50.85 C 5.14 50.19 5.33 48.89 5.43 48.23 C 11.27 47.90 18.04 45.02 23.26 48.99 C 20.79 51.40 18.32 53.82 15.64 56.00 L 0.00 56.00 L 0.00 43.58 Z" />
<path fill="#3c6bbe" opacity="1.00" d=" M 16.67 56.00 C 19.70 54.51 22.64 52.30 26.27 52.84 C 28.22 53.64 29.92 54.92 31.72 56.00 L 16.67 56.00 Z" />
</g>
<g id="#417ccafe">
<path fill="#417cca" opacity="1.00" d=" M 77.91 0.00 L 87.40 0.00 C 89.14 0.54 90.85 1.14 92.55 1.78 C 89.78 1.84 87.02 2.00 84.27 2.30 C 79.71 2.66 75.20 3.46 70.92 5.09 C 66.55 6.86 69.84 10.84 71.78 13.17 C 67.91 13.14 64.04 13.29 60.18 13.61 C 62.43 11.75 65.01 10.20 66.88 7.92 C 66.41 6.11 65.58 4.43 64.78 2.74 C 69.34 3.12 73.63 1.28 77.91 0.00 Z" />
</g>
<g id="#417ac9ff">
<path fill="#417ac9" opacity="1.00" d=" M 137.49 0.00 L 154.16 0.00 C 157.79 3.86 163.27 3.53 168.14 3.81 C 167.92 4.68 167.71 5.56 167.50 6.43 C 163.09 6.07 158.65 5.87 154.22 5.91 C 159.02 10.07 166.23 8.13 170.78 12.58 C 167.33 12.30 163.89 11.98 160.44 11.86 C 160.55 13.59 160.70 15.32 160.88 17.05 C 167.74 15.08 174.43 19.02 181.30 17.73 C 180.61 20.01 180.05 22.33 179.67 24.69 C 176.15 26.09 172.77 28.06 168.96 28.57 C 166.59 29.06 163.79 29.27 162.16 31.30 C 161.44 34.53 164.88 36.35 166.69 38.43 C 162.67 37.24 158.61 36.21 154.67 34.79 C 155.45 33.20 156.23 31.60 156.98 29.99 C 157.79 28.30 158.49 26.55 159.12 24.77 C 162.15 25.56 165.21 26.53 168.36 26.63 C 172.34 26.46 175.77 24.16 179.06 22.16 C 174.15 19.81 168.81 18.17 163.32 18.13 C 161.36 19.39 160.44 21.63 159.50 23.66 C 159.44 23.22 159.30 22.35 159.24 21.91 C 158.46 14.90 156.04 6.40 149.40 2.81 C 142.86 1.34 135.90 2.17 129.30 3.11 C 131.97 1.91 134.69 0.83 137.49 0.00 Z" />
</g>
<g id="#417cc9ff">
<path fill="#417cc9" opacity="1.00" d=" M 189.36 0.00 L 199.38 0.00 C 201.12 0.54 202.84 1.14 204.55 1.78 C 201.78 1.84 199.01 2.00 196.27 2.30 C 191.71 2.66 187.20 3.46 182.92 5.09 C 178.56 6.86 181.83 10.83 183.78 13.15 C 179.97 13.15 176.16 13.32 172.37 13.65 C 175.02 10.94 177.35 7.94 179.75 5.01 C 182.57 2.72 186.04 1.39 189.36 0.00 Z" />
</g>
<g id="#4182cbff">
<path fill="#4182cb" opacity="1.00" d=" M 14.09 3.29 C 17.76 2.11 21.54 1.27 25.29 0.36 C 21.79 1.67 18.33 3.09 14.86 4.47 C 14.67 4.17 14.28 3.58 14.09 3.29 Z" />
</g>
<g id="#2491d5ff">
<path fill="#2491d5" opacity="1.00" d=" M 25.29 0.36 L 26.31 0.10 C 30.64 0.72 35.06 1.56 39.00 3.52 C 32.80 2.66 26.51 2.24 20.30 3.37 C 21.67 3.90 23.03 4.44 24.41 4.96 C 25.72 5.44 26.86 5.15 27.85 4.07 C 28.33 4.49 29.31 5.33 29.80 5.75 C 30.95 6.88 32.58 7.30 34.16 7.21 C 34.09 7.51 33.95 8.12 33.88 8.43 C 33.52 10.18 33.20 11.95 32.88 13.71 C 32.41 12.88 31.94 12.04 31.43 11.23 C 30.49 9.86 29.47 8.54 28.38 7.28 C 24.70 6.22 20.87 5.84 17.07 5.35 C 16.62 5.27 15.73 5.12 15.28 5.04 L 14.86 4.47 C 18.33 3.09 21.79 1.67 25.29 0.36 Z" />
</g>
<g id="#427acaff">
<path fill="#427aca" opacity="1.00" d=" M 120.73 1.07 C 123.30 1.91 125.89 2.69 128.49 3.45 L 127.64 3.85 C 126.45 4.76 125.28 5.76 124.44 7.01 C 125.28 8.90 126.59 10.52 127.82 12.17 C 123.92 12.12 120.03 12.28 116.16 12.60 C 118.34 10.91 120.67 9.39 122.67 7.48 C 122.47 5.23 121.52 3.15 120.73 1.07 Z" />
</g>
<g id="#1dacc1ff">
<path fill="#1dacc1" opacity="1.00" d=" M 20.30 3.37 C 26.51 2.24 32.80 2.66 39.00 3.52 C 40.03 4.91 41.05 6.31 42.16 7.63 L 41.22 7.26 C 40.21 6.89 39.19 6.55 38.15 6.25 C 34.64 5.15 31.03 4.39 27.44 3.63 C 26.26 3.12 24.74 3.66 24.41 4.96 C 23.03 4.44 21.67 3.90 20.30 3.37 Z" />
</g>
<g id="#268ed9ff">
<path fill="#268ed9" opacity="1.00" d=" M 70.92 5.09 C 75.20 3.46 79.71 2.66 84.27 2.30 C 81.71 2.93 79.20 3.70 76.63 4.25 C 74.72 4.52 72.81 4.77 70.92 5.09 Z" />
<path fill="#268ed9" opacity="1.00" d=" M 182.92 5.09 C 187.20 3.46 191.71 2.66 196.27 2.30 C 193.70 2.93 191.21 3.70 188.63 4.25 C 186.72 4.52 184.81 4.77 182.92 5.09 Z" />
<path fill="#268ed9" opacity="1.00" d=" M 39.00 3.52 C 41.00 5.42 42.94 7.38 44.90 9.32 C 44.51 9.08 43.73 8.59 43.34 8.34 C 43.04 8.17 42.46 7.81 42.16 7.63 C 41.05 6.31 40.03 4.91 39.00 3.52 Z" />
<path fill="#268ed9" opacity="1.00" d=" M 0.00 41.77 C 4.06 39.96 8.26 38.49 12.30 36.64 C 8.82 39.28 5.19 41.88 0.99 43.27 L 0.00 43.58 L 0.00 41.77 Z" />
<path fill="#268ed9" opacity="1.00" d=" M 61.75 45.03 C 65.10 45.31 68.45 45.54 71.81 45.66 L 70.94 45.85 C 70.50 45.92 69.64 46.05 69.20 46.12 C 66.71 45.81 64.23 45.45 61.75 45.03 Z" />
<path fill="#268ed9" opacity="1.00" d=" M 173.75 45.03 C 177.10 45.31 180.45 45.54 183.81 45.66 L 182.94 45.85 C 182.50 45.92 181.64 46.05 181.20 46.12 C 178.71 45.81 176.22 45.45 173.75 45.03 Z" />
</g>
<g id="#1ea3c7ff">
<path fill="#1ea3c7" opacity="1.00" d=" M 84.27 2.30 C 87.02 2.00 89.78 1.84 92.55 1.78 C 93.44 2.10 94.29 2.50 95.11 2.97 C 99.78 8.87 102.93 15.79 104.15 23.23 L 104.04 24.02 C 102.90 26.72 101.69 29.44 99.87 31.76 C 97.97 32.94 95.99 33.97 94.02 35.03 C 99.09 31.34 101.55 25.34 101.67 19.20 C 101.02 19.65 100.38 20.11 99.73 20.56 C 99.32 16.25 99.42 11.18 96.18 7.83 C 92.70 4.23 87.33 4.52 82.75 3.66 C 85.44 5.22 88.18 6.69 90.84 8.31 L 91.22 8.88 C 92.53 11.84 93.56 14.90 94.58 17.97 C 90.07 19.75 85.47 21.29 80.84 22.75 C 86.23 20.47 88.41 15.04 90.60 10.05 C 88.59 9.19 84.57 7.46 82.55 6.60 C 80.61 5.74 78.64 4.94 76.63 4.25 C 79.20 3.70 81.71 2.93 84.27 2.30 M 90.85 12.37 C 90.27 13.52 89.68 14.67 89.09 15.81 C 90.31 16.56 91.54 17.30 92.78 18.03 C 92.18 16.13 91.53 14.24 90.85 12.37 Z" />
<path fill="#1ea3c7" opacity="1.00" d=" M 196.27 2.30 C 199.01 2.00 201.78 1.84 204.55 1.78 C 205.43 2.10 206.29 2.50 207.11 2.97 C 211.77 8.87 214.93 15.79 216.15 23.23 L 216.04 24.02 C 214.90 26.72 213.69 29.44 211.87 31.76 C 209.97 32.94 207.99 33.97 206.02 35.03 C 211.09 31.34 213.55 25.34 213.67 19.20 C 213.02 19.65 212.38 20.11 211.73 20.56 C 211.32 16.25 211.42 11.18 208.18 7.83 C 204.70 4.23 199.32 4.52 194.75 3.66 C 197.44 5.22 200.18 6.69 202.84 8.31 L 203.22 8.88 C 204.53 11.84 205.56 14.90 206.58 17.97 C 202.07 19.75 197.47 21.29 192.84 22.75 C 198.23 20.47 200.40 15.04 202.60 10.05 C 200.59 9.19 196.57 7.46 194.55 6.60 C 192.61 5.74 190.64 4.94 188.63 4.25 C 191.21 3.70 193.70 2.93 196.27 2.30 M 202.85 12.37 C 202.27 13.52 201.68 14.67 201.09 15.81 C 202.31 16.56 203.54 17.30 204.78 18.03 C 204.18 16.13 203.53 14.24 202.85 12.37 Z" />
</g>
<g id="#209bcdff">
<path fill="#209bcd" opacity="1.00" d=" M 129.30 3.11 C 135.90 2.17 142.86 1.34 149.40 2.81 C 156.04 6.40 158.46 14.90 159.24 21.91 C 158.22 19.15 157.25 16.37 155.97 13.72 C 154.18 10.52 152.15 7.04 148.62 5.53 C 145.54 4.38 142.23 4.06 139.04 3.39 C 140.76 4.60 142.54 5.73 144.15 7.09 L 144.68 7.82 C 142.68 7.32 140.69 6.82 138.71 6.31 C 135.06 5.32 131.33 4.63 127.64 3.85 L 128.49 3.45 L 129.30 3.11 Z" />
</g>
<g id="#427acafe">
<path fill="#427aca" opacity="1.00" d=" M 8.58 3.31 C 10.78 4.01 13.00 4.65 15.28 5.04 C 15.73 5.12 16.62 5.27 17.07 5.35 C 15.13 6.37 13.31 7.59 11.49 8.80 C 13.04 10.56 14.60 12.30 16.16 14.05 C 12.15 14.08 8.15 14.24 4.17 14.64 C 6.45 12.79 8.95 11.15 10.91 8.94 C 10.43 6.96 9.48 5.13 8.58 3.31 Z" />
</g>
<g id="#47d0bcfe">
<path fill="#47d0bc" opacity="1.00" d=" M 27.44 3.63 C 31.03 4.39 34.64 5.15 38.15 6.25 C 36.98 5.95 35.80 5.70 34.62 5.44 C 33.03 4.96 31.33 5.11 29.80 5.75 C 29.31 5.33 28.33 4.49 27.85 4.07 L 27.44 3.63 Z" />
</g>
<g id="#4081caff">
<path fill="#4081ca" opacity="1.00" d=" M 95.11 2.97 C 98.60 5.67 102.23 8.63 104.31 12.59 C 105.32 16.04 104.39 19.70 104.15 23.23 C 102.93 15.79 99.78 8.87 95.11 2.97 Z" />
<path fill="#4081ca" opacity="1.00" d=" M 207.11 2.97 C 210.60 5.67 214.22 8.63 216.31 12.59 C 217.32 16.04 216.39 19.70 216.15 23.23 C 214.93 15.79 211.77 8.87 207.11 2.97 Z" />
</g>
<g id="#3e7cccff">
<path fill="#3e7ccc" opacity="1.00" d=" M 98.91 3.30 C 103.35 3.50 107.80 3.73 112.25 3.49 C 111.87 4.57 111.49 5.65 111.11 6.72 C 107.78 5.99 104.37 5.47 100.96 5.87 C 100.27 5.01 99.59 4.15 98.91 3.30 Z" />
<path fill="#3e7ccc" opacity="1.00" d=" M 210.27 4.08 C 214.84 3.72 219.42 3.52 224.00 3.22 L 224.00 6.79 C 219.42 5.90 214.65 5.82 210.27 4.08 Z" />
</g>
<g id="#a1e1a3ff">
<path fill="#a1e1a3" opacity="1.00" d=" M 24.41 4.96 C 24.74 3.66 26.26 3.12 27.44 3.63 L 27.85 4.07 C 26.86 5.15 25.72 5.44 24.41 4.96 Z" />
<path fill="#a1e1a3" opacity="1.00" d=" M 84.39 24.38 C 87.28 22.50 90.42 21.05 93.54 19.59 C 92.78 22.79 92.79 26.30 91.19 29.22 C 89.11 32.07 85.73 33.54 82.89 35.48 L 82.25 35.75 C 80.66 36.44 79.07 37.10 77.49 37.80 C 74.93 38.82 72.35 39.76 69.77 40.72 C 71.15 40.82 72.53 40.92 73.91 41.03 C 73.31 41.58 72.72 42.14 72.12 42.69 L 71.30 42.76 C 69.72 42.49 68.15 42.14 66.57 41.81 C 69.84 39.67 73.38 37.90 76.27 35.24 C 79.52 32.05 81.28 27.68 84.39 24.38 M 91.71 22.09 C 86.83 24.84 82.69 28.65 79.71 33.39 C 84.96 31.22 88.83 26.87 91.71 22.09 Z" />
<path fill="#a1e1a3" opacity="1.00" d=" M 196.39 24.38 C 199.28 22.50 202.42 21.05 205.54 19.59 C 204.78 22.79 204.78 26.30 203.19 29.22 C 201.11 32.07 197.73 33.54 194.89 35.48 L 194.25 35.75 C 192.66 36.44 191.07 37.10 189.49 37.80 C 186.93 38.82 184.34 39.76 181.77 40.72 C 183.15 40.82 184.53 40.92 185.91 41.03 C 185.31 41.58 184.72 42.14 184.12 42.69 L 183.30 42.76 C 181.72 42.49 180.14 42.14 178.57 41.81 C 181.83 39.67 185.38 37.90 188.27 35.24 C 191.52 32.05 193.28 27.68 196.39 24.38 M 203.71 22.09 C 198.82 24.84 194.69 28.65 191.71 33.39 C 196.96 31.22 200.83 26.87 203.71 22.09 Z" />
</g>
<g id="#41cebdff">
<path fill="#41cebd" opacity="1.00" d=" M 82.75 3.66 C 87.33 4.52 92.70 4.23 96.18 7.83 C 99.42 11.18 99.32 16.25 99.73 20.56 C 100.38 20.11 101.02 19.65 101.67 19.20 C 101.55 25.34 99.09 31.34 94.02 35.03 L 93.45 35.35 C 90.01 34.14 86.25 33.78 82.89 35.48 C 85.73 33.54 89.11 32.07 91.19 29.22 C 92.79 26.30 92.78 22.79 93.54 19.59 C 90.42 21.05 87.28 22.50 84.39 24.38 C 81.28 27.68 79.52 32.05 76.27 35.24 C 73.38 37.90 69.84 39.67 66.57 41.81 C 68.15 42.14 69.72 42.49 71.30 42.76 C 68.36 43.02 65.42 43.34 62.48 43.63 C 64.27 41.71 66.08 39.81 68.01 38.03 C 73.02 36.27 77.06 32.56 78.85 27.52 C 79.41 26.45 79.92 25.35 80.45 24.27 C 78.97 25.24 77.51 26.25 75.99 27.16 C 75.68 27.12 75.05 27.05 74.74 27.02 C 76.65 25.43 78.67 23.96 80.84 22.75 C 85.47 21.29 90.07 19.75 94.58 17.97 C 93.56 14.90 92.53 11.84 91.22 8.88 C 94.24 12.79 94.84 17.82 96.26 22.43 C 96.35 19.11 97.13 15.72 96.45 12.44 C 94.96 9.76 92.71 7.59 90.77 5.24 C 90.79 6.00 90.82 7.54 90.84 8.31 C 88.18 6.69 85.44 5.22 82.75 3.66 M 90.65 34.08 C 95.25 31.71 98.76 27.98 99.39 22.78 C 95.89 26.05 92.99 29.91 90.65 34.08 Z" />
<path fill="#41cebd" opacity="1.00" d=" M 194.75 3.66 C 199.32 4.52 204.70 4.23 208.18 7.83 C 211.42 11.18 211.32 16.25 211.73 20.56 C 212.38 20.11 213.02 19.65 213.67 19.20 C 213.55 25.34 211.09 31.34 206.02 35.03 L 205.45 35.35 C 202.01 34.14 198.25 33.78 194.89 35.48 C 197.73 33.54 201.11 32.07 203.19 29.22 C 204.78 26.30 204.78 22.79 205.54 19.59 C 202.42 21.05 199.28 22.50 196.39 24.38 C 193.28 27.68 191.52 32.05 188.27 35.24 C 185.38 37.90 181.83 39.67 178.57 41.81 C 180.14 42.14 181.72 42.49 183.30 42.76 C 180.35 43.02 177.43 43.34 174.48 43.63 C 176.27 41.71 178.08 39.81 180.01 38.03 C 185.02 36.27 189.06 32.56 190.85 27.52 C 191.40 26.45 191.92 25.35 192.45 24.27 C 190.97 25.24 189.51 26.25 187.99 27.16 C 187.68 27.12 187.05 27.05 186.74 27.02 C 188.65 25.43 190.67 23.96 192.84 22.75 C 197.47 21.29 202.07 19.75 206.58 17.97 C 205.56 14.90 204.53 11.84 203.22 8.88 C 206.24 12.79 206.84 17.82 208.26 22.43 C 208.35 19.11 209.13 15.72 208.45 12.44 C 206.96 9.76 204.71 7.59 202.77 5.24 C 202.79 6.00 202.82 7.54 202.84 8.31 C 200.18 6.69 197.44 5.22 194.75 3.66 M 202.65 34.08 C 207.24 31.71 210.76 27.98 211.39 22.78 C 207.89 26.05 204.99 29.91 202.65 34.08 Z" />
</g>
<g id="#40cebeff">
<path fill="#40cebe" opacity="1.00" d=" M 139.04 3.39 C 142.23 4.06 145.54 4.38 148.62 5.53 C 152.15 7.04 154.18 10.52 155.97 13.72 C 154.84 17.98 153.37 22.15 151.19 25.99 C 153.14 24.64 155.11 23.32 157.11 22.04 C 155.70 26.75 153.41 31.23 150.10 34.88 L 149.43 35.27 C 148.17 35.60 146.92 35.92 145.66 36.22 C 146.11 35.31 146.57 34.40 147.04 33.50 C 149.39 31.93 151.61 30.17 153.68 28.24 C 151.68 29.42 149.69 30.64 147.82 32.03 C 148.04 31.60 148.49 30.74 148.71 30.31 C 145.10 32.39 141.36 34.57 137.12 34.92 C 142.42 32.27 147.49 28.51 148.66 22.29 C 142.43 23.29 134.72 27.76 136.10 35.13 C 136.39 36.04 136.72 36.94 137.07 37.84 C 135.81 38.64 135.03 40.28 135.90 41.65 C 134.85 42.11 133.80 42.55 132.74 42.99 C 133.03 41.83 133.32 40.67 133.63 39.51 C 134.03 38.14 134.41 36.77 134.80 35.40 C 131.26 37.03 127.87 38.94 124.48 40.84 C 127.04 40.66 129.59 40.38 132.13 40.02 C 128.22 41.26 124.23 42.30 120.14 42.78 C 123.75 40.23 127.30 37.58 130.58 34.61 C 134.76 30.43 137.75 25.12 142.43 21.43 C 145.01 19.41 148.50 20.20 151.49 20.48 C 149.68 15.77 148.25 10.38 144.15 7.09 C 142.54 5.73 140.76 4.60 139.04 3.39 M 149.05 7.46 C 149.73 11.21 150.81 14.86 151.89 18.51 C 153.54 14.43 152.41 10.26 149.05 7.46 M 154.14 25.11 C 152.82 25.80 152.81 26.47 154.11 27.14 C 155.43 26.46 155.44 25.78 154.14 25.11 Z" />
</g>
<g id="#b7e8bcfe">
<path fill="#b7e8bc" opacity="1.00" d=" M 29.80 5.75 C 31.33 5.11 33.03 4.96 34.62 5.44 C 34.51 5.88 34.28 6.77 34.16 7.21 C 32.58 7.30 30.95 6.88 29.80 5.75 Z" />
</g>
<g id="#a0e0a4ff">
<path fill="#a0e0a4" opacity="1.00" d=" M 34.62 5.44 C 35.80 5.70 36.98 5.95 38.15 6.25 C 39.19 6.55 40.21 6.89 41.22 7.26 C 40.30 12.05 42.20 16.71 43.65 21.20 C 44.39 23.17 43.32 25.15 42.47 26.89 C 40.79 28.53 39.25 30.30 37.82 32.17 C 36.52 33.26 35.13 34.25 33.75 35.25 C 37.02 30.11 40.94 25.37 43.50 19.80 C 40.50 22.76 37.94 26.11 35.05 29.15 C 31.34 32.58 26.96 35.18 22.94 38.22 C 18.92 38.37 15.16 39.90 11.49 41.37 C 14.54 41.49 17.59 41.56 20.65 41.66 C 20.39 42.05 19.87 42.85 19.61 43.25 L 18.95 43.46 C 15.20 43.06 11.45 42.62 7.71 42.13 C 10.20 40.58 12.67 39.01 15.06 37.31 C 19.08 34.71 22.63 31.48 25.72 27.83 C 24.53 27.88 23.34 27.93 22.16 27.96 C 21.72 27.97 20.83 27.99 20.39 28.00 C 20.52 27.56 20.77 26.68 20.89 26.24 C 22.81 27.76 25.38 25.24 23.28 23.59 C 23.88 23.33 24.48 23.06 25.08 22.79 C 27.15 22.29 29.25 21.87 31.32 21.37 C 33.01 20.96 34.70 20.55 36.39 20.15 C 37.00 21.16 37.61 22.16 38.22 23.16 C 38.24 20.37 38.23 17.58 38.14 14.79 C 37.66 12.18 35.50 10.37 33.88 8.43 C 33.95 8.12 34.09 7.51 34.16 7.21 C 34.28 6.77 34.51 5.88 34.62 5.44 M 22.68 36.18 C 28.22 31.98 34.40 27.69 36.58 20.76 C 29.80 23.77 24.95 29.16 22.68 36.18 Z" />
</g>
<g id="#268ed8ff">
<path fill="#268ed8" opacity="1.00" d=" M 82.55 6.60 C 84.57 7.46 88.59 9.19 90.60 10.05 C 88.41 15.04 86.23 20.47 80.84 22.75 C 78.67 23.96 76.65 25.43 74.74 27.02 C 75.60 31.17 72.76 34.43 69.63 36.71 C 71.79 31.77 73.08 26.24 76.98 22.28 C 79.04 21.08 81.30 20.25 83.46 19.24 C 86.76 16.84 86.44 12.50 87.09 8.86 C 85.59 8.08 84.09 7.30 82.55 6.60 Z" />
<path fill="#268ed8" opacity="1.00" d=" M 194.55 6.60 C 196.57 7.46 200.59 9.19 202.60 10.05 C 200.40 15.04 198.23 20.47 192.84 22.75 C 190.67 23.96 188.65 25.43 186.74 27.02 C 187.59 31.17 184.76 34.43 181.63 36.71 C 183.79 31.77 185.08 26.24 188.98 22.28 C 191.04 21.08 193.29 20.25 195.46 19.24 C 198.76 16.84 198.44 12.50 199.09 8.86 C 197.59 8.08 196.09 7.30 194.55 6.60 Z" />
</g>
<g id="#a0e0a2ff">
<path fill="#a0e0a2" opacity="1.00" d=" M 90.77 5.24 C 92.71 7.59 94.96 9.76 96.45 12.44 C 97.13 15.72 96.35 19.11 96.26 22.43 C 94.84 17.82 94.24 12.79 91.22 8.88 L 90.84 8.31 C 90.82 7.54 90.79 6.00 90.77 5.24 Z" />
<path fill="#a0e0a2" opacity="1.00" d=" M 202.77 5.24 C 204.71 7.59 206.96 9.76 208.45 12.44 C 209.13 15.72 208.35 19.11 208.26 22.43 C 206.84 17.82 206.24 12.79 203.22 8.88 L 202.84 8.31 C 202.82 7.54 202.79 6.00 202.77 5.24 Z" />
</g>
<g id="#268ed7ff">
<path fill="#268ed7" opacity="1.00" d=" M 138.71 6.31 C 140.69 6.82 142.68 7.32 144.68 7.82 C 145.30 11.41 144.80 15.07 144.46 18.66 C 142.00 19.62 139.57 20.65 137.11 21.62 L 137.55 21.17 C 138.05 20.68 139.07 19.68 139.58 19.19 C 143.19 16.60 142.84 12.16 141.87 8.28 C 140.83 7.59 139.79 6.92 138.71 6.31 Z" />
<path fill="#268ed7" opacity="1.00" d=" M 57.91 40.83 C 61.43 39.44 65.11 38.54 68.74 37.46 L 68.01 38.03 C 65.44 39.52 62.87 40.99 60.28 42.45 C 60.48 43.26 60.67 44.08 60.87 44.89 C 59.33 44.40 57.82 43.79 56.31 43.18 C 56.77 42.35 57.25 41.52 57.91 40.83 Z" />
<path fill="#268ed7" opacity="1.00" d=" M 169.91 40.83 C 173.43 39.44 177.11 38.54 180.74 37.46 L 180.01 38.03 C 177.44 39.52 174.86 40.99 172.28 42.45 C 172.48 43.26 172.67 44.08 172.87 44.89 C 171.32 44.40 169.82 43.79 168.31 43.18 C 168.77 42.35 169.24 41.52 169.91 40.83 Z" />
</g>
<g id="#1aa9c2fe">
<path fill="#1aa9c2" opacity="1.00" d=" M 144.15 7.09 C 148.25 10.38 149.68 15.77 151.49 20.48 C 148.50 20.20 145.01 19.41 142.43 21.43 C 137.75 25.12 134.76 30.43 130.58 34.61 C 127.30 37.58 123.75 40.23 120.14 42.78 C 124.23 42.30 128.22 41.26 132.13 40.02 C 132.51 39.89 133.26 39.64 133.63 39.51 C 133.32 40.67 133.03 41.83 132.74 42.99 C 133.80 42.55 134.85 42.11 135.90 41.65 C 137.63 41.25 137.93 39.16 137.07 37.84 C 136.72 36.94 136.39 36.04 136.10 35.13 L 137.12 34.92 C 141.36 34.57 145.10 32.39 148.71 30.31 C 148.49 30.74 148.04 31.60 147.82 32.03 C 147.63 32.40 147.24 33.13 147.04 33.50 C 146.57 34.40 146.11 35.31 145.66 36.22 C 146.92 35.92 148.17 35.60 149.43 35.27 C 147.51 36.37 145.55 37.38 143.59 38.40 C 143.46 37.13 143.33 35.86 143.20 34.59 C 142.49 36.52 141.84 38.48 141.23 40.45 C 133.68 45.08 124.60 45.11 116.02 44.81 C 118.64 41.99 121.49 39.38 124.40 36.86 C 124.67 36.69 125.19 36.36 125.46 36.19 C 130.03 34.09 130.88 28.85 132.95 24.76 C 132.55 25.99 132.17 27.23 131.80 28.47 C 132.93 27.77 134.05 27.06 135.16 26.33 C 135.44 26.03 135.99 25.44 136.27 25.14 C 136.56 24.67 137.12 23.72 137.41 23.25 C 136.61 22.87 135.01 22.10 134.21 21.72 L 133.54 21.41 C 134.70 22.14 135.89 22.21 137.11 21.62 C 139.57 20.65 142.00 19.62 144.46 18.66 C 144.80 15.07 145.30 11.41 144.68 7.82 L 144.15 7.09 M 146.85 12.37 C 146.27 13.52 145.68 14.67 145.09 15.81 C 146.31 16.56 147.54 17.30 148.78 18.03 C 148.18 16.13 147.53 14.24 146.85 12.37 Z" />
</g>
<g id="#417dcaff">
<path fill="#417dca" opacity="1.00" d=" M 28.38 7.28 C 29.47 8.54 30.49 9.86 31.43 11.23 C 30.74 13.79 30.30 16.53 28.78 18.76 C 28.41 18.90 27.68 19.19 27.31 19.34 C 28.14 16.60 28.77 13.79 28.66 10.91 C 28.84 10.89 29.19 10.84 29.37 10.81 C 29.04 9.63 28.71 8.46 28.38 7.28 Z" />
</g>
<g id="#42cfbdff">
<path fill="#42cfbd" opacity="1.00" d=" M 41.22 7.26 L 42.16 7.63 C 42.46 7.81 43.04 8.17 43.34 8.34 C 43.71 12.76 44.65 17.08 45.68 21.37 C 46.93 28.97 39.49 33.44 34.05 37.09 C 33.37 36.02 32.68 34.94 32.00 33.87 C 30.33 35.50 28.69 37.16 26.93 38.69 C 26.90 38.33 26.84 37.62 26.80 37.26 C 25.38 38.79 23.97 40.33 22.51 41.82 C 21.58 42.37 20.62 42.85 19.61 43.25 C 19.87 42.85 20.39 42.05 20.65 41.66 C 21.39 40.49 22.15 39.35 22.94 38.22 C 26.96 35.18 31.34 32.58 35.05 29.15 C 37.94 26.11 40.50 22.76 43.50 19.80 C 40.94 25.37 37.02 30.11 33.75 35.25 C 35.13 34.25 36.52 33.26 37.82 32.17 C 39.65 30.68 41.19 28.86 42.47 26.89 C 43.32 25.15 44.39 23.17 43.65 21.20 C 42.20 16.71 40.30 12.05 41.22 7.26 Z" />
</g>
<g id="#a0e1a2ff">
<path fill="#a0e1a2" opacity="1.00" d=" M 149.05 7.46 C 152.41 10.26 153.54 14.43 151.89 18.51 C 150.81 14.86 149.73 11.21 149.05 7.46 Z" />
</g>
<g id="#1da9c3ff">
<path fill="#1da9c3" opacity="1.00" d=" M 33.88 8.43 C 35.50 10.37 37.66 12.18 38.14 14.79 C 37.63 16.60 37.01 18.38 36.39 20.15 C 34.70 20.55 33.01 20.96 31.32 21.37 C 33.81 18.94 36.15 16.37 38.09 13.47 C 37.01 13.35 34.85 13.09 33.77 12.97 C 32.91 15.75 31.99 18.52 31.32 21.37 C 29.25 21.87 27.15 22.29 25.08 22.79 C 26.39 21.52 27.64 20.19 28.78 18.76 C 30.30 16.53 30.74 13.79 31.43 11.23 C 31.94 12.04 32.41 12.88 32.88 13.71 C 33.20 11.95 33.52 10.18 33.88 8.43 Z" />
</g>
<g id="#1aa7c3ff">
<path fill="#1aa7c3" opacity="1.00" d=" M 43.34 8.34 C 43.73 8.59 44.51 9.08 44.90 9.32 L 45.43 9.85 C 45.44 13.69 45.58 17.53 45.68 21.37 C 44.65 17.08 43.71 12.76 43.34 8.34 Z" />
</g>
<g id="#4181cbfe">
<path fill="#4181cb" opacity="1.00" d=" M 87.09 8.86 C 86.44 12.50 86.76 16.84 83.46 19.24 C 84.66 15.77 85.89 12.32 87.09 8.86 Z" />
<path fill="#4181cb" opacity="1.00" d=" M 199.09 8.86 C 198.44 12.50 198.76 16.84 195.46 19.24 C 196.66 15.77 197.88 12.32 199.09 8.86 Z" />
</g>
<g id="#4477cbff">
<path fill="#4477cb" opacity="1.00" d=" M 103.29 10.32 C 107.18 9.67 111.14 9.72 115.02 10.38 C 111.87 13.97 106.79 12.47 103.29 10.32 Z" />
</g>
<g id="#427ccbff">
<path fill="#427ccb" opacity="1.00" d=" M 140.13 9.11 C 140.56 8.90 141.43 8.49 141.87 8.28 C 142.84 12.16 143.19 16.60 139.58 19.19 C 138.43 17.70 137.28 16.22 136.13 14.74 C 138.03 15.42 139.93 16.12 141.83 16.79 C 141.45 14.19 140.91 11.62 140.13 9.11 Z" />
<path fill="#427ccb" opacity="1.00" d=" M 26.77 42.17 C 28.07 41.71 29.38 41.25 30.69 40.82 C 28.67 43.90 26.31 46.74 24.12 49.71 C 27.21 51.50 30.10 53.60 32.74 56.00 L 31.72 56.00 C 29.92 54.92 28.22 53.64 26.27 52.84 C 22.64 52.30 19.70 54.51 16.67 56.00 L 15.64 56.00 C 18.32 53.82 20.79 51.40 23.26 48.99 C 18.04 45.02 11.27 47.90 5.43 48.23 C 5.33 48.89 5.14 50.19 5.04 50.85 C 7.06 52.24 9.08 53.64 11.09 55.04 C 8.44 54.73 5.79 54.40 3.14 54.09 C 3.18 51.14 3.14 48.14 2.27 45.29 C 10.52 45.65 19.12 45.68 26.77 42.17 Z" />
</g>
<g id="#2492d4fe">
<path fill="#2492d4" opacity="1.00" d=" M 45.43 9.85 C 48.23 15.69 49.98 22.57 46.76 28.67 C 44.75 35.27 37.40 37.49 31.93 40.38 C 31.62 40.49 31.00 40.71 30.69 40.82 C 29.38 41.25 28.07 41.71 26.77 42.17 C 29.18 40.44 31.56 38.69 34.05 37.09 C 39.49 33.44 46.93 28.97 45.68 21.37 C 45.58 17.53 45.44 13.69 45.43 9.85 Z" />
</g>
<g id="#4378cbff">
<path fill="#4378cb" opacity="1.00" d=" M 215.59 10.64 C 218.39 10.36 221.19 10.07 224.00 9.80 L 224.00 12.88 C 221.19 12.17 218.36 11.50 215.59 10.64 Z" />
<path fill="#4378cb" opacity="1.00" d=" M 34.87 42.86 C 38.99 45.56 44.07 43.61 47.10 40.17 C 46.68 41.52 46.28 42.86 45.90 44.21 C 49.38 45.19 52.91 45.94 56.43 46.79 C 52.99 46.72 49.57 46.65 46.15 46.39 C 45.39 47.34 44.63 48.29 43.88 49.24 C 40.50 45.71 35.58 44.96 30.92 45.64 C 32.25 44.72 33.56 43.79 34.87 42.86 Z" />
</g>
<g id="#3dcbbeff">
<path fill="#3dcbbe" opacity="1.00" d=" M 33.77 12.97 C 34.85 13.09 37.01 13.35 38.09 13.47 C 36.15 16.37 33.81 18.94 31.32 21.37 C 31.99 18.52 32.91 15.75 33.77 12.97 Z" />
<path fill="#3dcbbe" opacity="1.00" d=" M 90.85 12.37 C 91.53 14.24 92.18 16.13 92.78 18.03 C 91.54 17.30 90.31 16.56 89.09 15.81 C 89.68 14.67 90.27 13.52 90.85 12.37 Z" />
<path fill="#3dcbbe" opacity="1.00" d=" M 146.85 12.37 C 147.53 14.24 148.18 16.13 148.78 18.03 C 147.54 17.30 146.31 16.56 145.09 15.81 C 145.68 14.67 146.27 13.52 146.85 12.37 Z" />
<path fill="#3dcbbe" opacity="1.00" d=" M 202.85 12.37 C 203.53 14.24 204.18 16.13 204.78 18.03 C 203.54 17.30 202.31 16.56 201.09 15.81 C 201.68 14.67 202.27 13.52 202.85 12.37 Z" />
</g>
<g id="#4379caff">
<path fill="#4379ca" opacity="1.00" d=" M 120.60 17.15 C 124.17 16.28 127.47 14.51 130.91 13.23 C 131.17 13.55 131.69 14.17 131.94 14.48 C 129.33 15.31 126.60 15.94 124.21 17.34 C 123.80 19.09 123.80 20.90 123.81 22.69 C 117.41 24.82 111.37 28.07 106.14 32.34 C 105.06 35.77 108.82 37.34 110.94 39.11 C 107.40 38.26 103.82 37.59 100.21 37.16 C 102.53 34.40 104.38 31.29 105.47 27.85 C 111.55 26.87 116.86 23.67 122.40 21.19 C 117.36 17.12 110.84 18.88 105.06 20.10 C 107.03 18.43 109.10 16.59 111.73 16.09 C 114.72 15.98 117.60 17.28 120.60 17.15 Z" />
<path fill="#4379ca" opacity="1.00" d=" M 217.60 27.63 C 219.72 27.42 221.86 27.20 224.00 26.99 L 224.00 28.15 C 221.80 29.85 219.43 31.32 217.07 32.78 C 218.85 34.99 220.68 37.16 222.69 39.18 C 219.33 38.43 215.96 37.73 212.56 37.19 C 214.44 34.11 216.22 30.97 217.60 27.63 Z" />
</g>
<g id="#1ca8c3ff">
<path fill="#1ca8c3" opacity="1.00" d=" M 155.97 13.72 C 157.25 16.37 158.22 19.15 159.24 21.91 C 159.30 22.35 159.44 23.22 159.50 23.66 L 159.12 24.77 C 158.49 26.55 157.79 28.30 156.98 29.99 C 154.74 31.70 152.47 33.37 150.10 34.88 C 153.41 31.23 155.70 26.75 157.11 22.04 C 155.11 23.32 153.14 24.64 151.19 25.99 C 153.37 22.15 154.84 17.98 155.97 13.72 Z" />
</g>
<g id="#41cfbeff">
<path fill="#41cfbe" opacity="1.00" d=" M 38.14 14.79 C 38.23 17.58 38.24 20.37 38.22 23.16 C 37.61 22.16 37.00 21.16 36.39 20.15 C 37.01 18.38 37.63 16.60 38.14 14.79 Z" />
<path fill="#41cfbe" opacity="1.00" d=" M 18.91 27.60 C 19.29 27.12 20.06 26.15 20.44 25.67 L 20.89 26.24 C 20.77 26.68 20.52 27.56 20.39 28.00 C 20.02 27.90 19.28 27.70 18.91 27.60 Z" />
</g>
<g id="#427acbff">
<path fill="#427acb" opacity="1.00" d=" M 0.00 17.43 C 6.40 20.55 13.41 19.32 20.06 17.85 C 16.98 19.24 13.92 20.66 10.84 22.03 C 11.36 23.58 11.89 25.13 12.42 26.68 C 8.20 27.92 4.12 29.56 0.00 31.08 L 0.00 29.17 C 3.36 27.38 8.76 27.37 10.21 23.26 C 7.11 21.17 3.45 20.23 0.00 18.90 L 0.00 17.43 Z" />
</g>
<g id="#3c6bbdff">
<path fill="#3c6bbd" opacity="1.00" d=" M 163.32 18.13 C 168.81 18.17 174.15 19.81 179.06 22.16 C 175.77 24.16 172.34 26.46 168.36 26.63 C 165.21 26.53 162.15 25.56 159.12 24.77 L 159.50 23.66 C 160.44 21.63 161.36 19.39 163.32 18.13 Z" />
</g>
<g id="#2a90d5ff">
<path fill="#2a90d5" opacity="1.00" d=" M 27.31 19.34 C 27.68 19.19 28.41 18.90 28.78 18.76 C 27.64 20.19 26.39 21.52 25.08 22.79 C 24.48 23.06 23.88 23.33 23.28 23.59 C 22.19 24.08 21.24 24.77 20.44 25.67 C 20.06 26.15 19.29 27.12 18.91 27.60 C 17.44 30.68 15.25 33.34 13.07 35.93 C 15.61 30.46 18.56 25.11 22.88 20.82 C 24.35 20.31 25.84 19.85 27.31 19.34 Z" />
</g>
<g id="#3c6bbdfe">
<path fill="#3c6bbd" opacity="1.00" d=" M 55.60 19.45 C 59.78 18.27 63.50 20.37 66.75 22.62 C 61.33 25.71 55.47 27.96 49.46 29.61 C 47.96 25.35 49.55 18.29 55.60 19.45 Z" />
</g>
<g id="#3c6abeff">
<path fill="#3c6abe" opacity="1.00" d=" M 0.00 18.90 C 3.45 20.23 7.11 21.17 10.21 23.26 C 8.76 27.37 3.36 27.38 0.00 29.17 L 0.00 18.90 Z" />
</g>
<g id="#3484d2ff">
<path fill="#3484d2" opacity="1.00" d=" M 133.54 21.41 C 134.62 20.44 136.40 20.14 137.55 21.17 L 137.11 21.62 C 135.89 22.21 134.70 22.14 133.54 21.41 Z" />
</g>
<g id="#407fcaff">
<path fill="#407fca" opacity="1.00" d=" M 15.49 25.30 C 16.93 22.55 20.22 21.85 22.88 20.82 C 18.56 25.11 15.61 30.46 13.07 35.93 C 12.87 36.10 12.49 36.46 12.30 36.64 C 8.26 38.49 4.06 39.96 0.00 41.77 L 0.00 38.44 C 3.61 36.84 7.74 36.31 10.97 33.92 C 13.21 31.50 13.76 28.04 15.49 25.30 Z" />
</g>
<g id="#d4f2dfff">
<path fill="#d4f2df" opacity="1.00" d=" M 22.68 36.18 C 24.95 29.16 29.80 23.77 36.58 20.76 C 34.40 27.69 28.22 31.98 22.68 36.18 Z" />
<path fill="#d4f2df" opacity="1.00" d=" M 11.49 41.37 C 15.16 39.90 18.92 38.37 22.94 38.22 C 22.15 39.35 21.39 40.49 20.65 41.66 C 17.59 41.56 14.54 41.49 11.49 41.37 Z" />
</g>
<g id="#4080caff">
<path fill="#4080ca" opacity="1.00" d=" M 68.24 32.58 C 70.74 28.82 73.12 24.84 76.98 22.28 C 73.08 26.24 71.79 31.77 69.63 36.71 C 69.41 36.90 68.96 37.27 68.74 37.46 C 65.11 38.54 61.43 39.44 57.91 40.83 C 61.04 37.71 65.04 35.62 68.24 32.58 Z" />
<path fill="#4080ca" opacity="1.00" d=" M 180.24 32.58 C 182.74 28.82 185.12 24.84 188.98 22.28 C 185.08 26.24 183.79 31.77 181.63 36.71 C 181.41 36.90 180.96 37.27 180.74 37.46 C 177.11 38.54 173.43 39.44 169.91 40.83 C 173.04 37.71 177.04 35.62 180.24 32.58 Z" />
</g>
<g id="#d5f2dfff">
<path fill="#d5f2df" opacity="1.00" d=" M 91.71 22.09 C 88.83 26.87 84.96 31.22 79.71 33.39 C 82.69 28.65 86.83 24.84 91.71 22.09 Z" />
<path fill="#d5f2df" opacity="1.00" d=" M 203.71 22.09 C 200.83 26.87 196.96 31.22 191.71 33.39 C 194.69 28.65 198.82 24.84 203.71 22.09 Z" />
</g>
<g id="#417dc9ff">
<path fill="#417dc9" opacity="1.00" d=" M 126.43 29.58 C 127.61 26.29 129.91 23.59 132.93 21.83 C 129.51 26.09 127.75 31.31 125.46 36.19 C 125.19 36.36 124.67 36.69 124.40 36.86 C 122.25 37.50 120.07 38.05 117.89 38.59 C 116.97 38.81 116.05 39.02 115.13 39.24 C 119.28 36.56 124.68 34.62 126.43 29.58 Z" />
</g>
<g id="#258ed8ff">
<path fill="#258ed8" opacity="1.00" d=" M 132.93 21.83 L 133.54 21.41 L 134.21 21.72 C 133.90 22.48 133.26 24.00 132.95 24.76 C 130.88 28.85 130.03 34.09 125.46 36.19 C 127.75 31.31 129.51 26.09 132.93 21.83 Z" />
</g>
<g id="#a1e1a2ff">
<path fill="#a1e1a2" opacity="1.00" d=" M 90.65 34.08 C 92.99 29.91 95.89 26.05 99.39 22.78 C 98.76 27.98 95.25 31.71 90.65 34.08 Z" />
<path fill="#a1e1a2" opacity="1.00" d=" M 202.65 34.08 C 204.99 29.91 207.89 26.05 211.39 22.78 C 210.76 27.98 207.24 31.71 202.65 34.08 Z" />
</g>
<g id="#39c8beff">
<path fill="#39c8be" opacity="1.00" d=" M 134.21 21.72 C 135.01 22.10 136.61 22.87 137.41 23.25 C 137.12 23.72 136.56 24.67 136.27 25.14 C 135.42 22.82 132.81 25.58 135.16 26.33 C 134.05 27.06 132.93 27.77 131.80 28.47 C 132.17 27.23 132.55 25.99 132.95 24.76 C 133.26 24.00 133.90 22.48 134.21 21.72 Z" />
</g>
<g id="#a1e1a4ff">
<path fill="#a1e1a4" opacity="1.00" d=" M 136.10 35.13 C 134.72 27.76 142.43 23.29 148.66 22.29 C 147.49 28.51 142.42 32.27 137.12 34.92 L 136.10 35.13 M 146.69 24.46 C 143.85 26.44 141.00 28.39 138.30 30.55 C 141.12 28.57 143.98 26.61 146.69 24.46 Z" />
</g>
<g id="#d5f1dffe">
<path fill="#d5f1df" opacity="1.00" d=" M 20.44 25.67 C 21.24 24.77 22.19 24.08 23.28 23.59 C 25.38 25.24 22.81 27.76 20.89 26.24 L 20.44 25.67 Z" />
</g>
<g id="#94dea6ff">
<path fill="#94dea6" opacity="1.00" d=" M 75.99 27.16 C 77.51 26.25 78.97 25.24 80.45 24.27 C 79.92 25.35 79.41 26.45 78.85 27.52 C 78.14 27.43 76.70 27.25 75.99 27.16 Z" />
<path fill="#94dea6" opacity="1.00" d=" M 187.99 27.16 C 189.51 26.25 190.97 25.24 192.45 24.27 C 191.92 25.35 191.40 26.45 190.85 27.52 C 190.14 27.43 188.70 27.25 187.99 27.16 Z" />
</g>
<g id="#4081cbff">
<path fill="#4081cb" opacity="1.00" d=" M 99.87 31.76 C 101.69 29.44 102.90 26.72 104.04 24.02 C 103.69 30.55 99.92 36.84 92.98 37.97 C 95.65 36.36 97.96 34.22 99.87 31.76 Z" />
<path fill="#4081cb" opacity="1.00" d=" M 211.87 31.76 C 213.69 29.44 214.90 26.72 216.04 24.02 C 215.69 30.55 211.92 36.84 204.98 37.97 C 207.64 36.36 209.96 34.22 211.87 31.76 Z" />
</g>
<g id="#81dbacff">
<path fill="#81dbac" opacity="1.00" d=" M 135.16 26.33 C 132.81 25.58 135.42 22.82 136.27 25.14 C 135.99 25.44 135.44 26.03 135.16 26.33 Z" />
<path fill="#81dbac" opacity="1.00" d=" M 154.14 25.11 C 155.44 25.78 155.43 26.46 154.11 27.14 C 152.81 26.47 152.82 25.80 154.14 25.11 Z" />
</g>
<g id="#ceefd7ff">
<path fill="#ceefd7" opacity="1.00" d=" M 146.69 24.46 C 143.98 26.61 141.12 28.57 138.30 30.55 C 141.00 28.39 143.85 26.44 146.69 24.46 Z" />
</g>
<g id="#1ea7c3ff">
<path fill="#1ea7c3" opacity="1.00" d=" M 13.07 35.93 C 15.25 33.34 17.44 30.68 18.91 27.60 C 19.28 27.70 20.02 27.90 20.39 28.00 C 20.83 27.99 21.72 27.97 22.16 27.96 C 19.84 31.11 17.58 34.31 15.06 37.31 C 12.67 39.01 10.20 40.58 7.71 42.13 C 6.43 42.91 5.13 43.66 3.84 44.43 C 8.89 44.68 13.97 44.33 18.95 43.46 L 19.61 43.25 C 20.62 42.85 21.58 42.37 22.51 41.82 C 24.04 40.86 25.52 39.81 26.93 38.69 C 28.69 37.16 30.33 35.50 32.00 33.87 C 32.68 34.94 33.37 36.02 34.05 37.09 C 31.56 38.69 29.18 40.44 26.77 42.17 C 19.12 45.68 10.52 45.65 2.27 45.29 C 1.95 44.79 1.31 43.78 0.99 43.27 C 5.19 41.88 8.82 39.28 12.30 36.64 C 12.49 36.46 12.87 36.10 13.07 35.93 Z" />
</g>
<g id="#45cfbcff">
<path fill="#45cfbc" opacity="1.00" d=" M 22.16 27.96 C 23.34 27.93 24.53 27.88 25.72 27.83 C 22.63 31.48 19.08 34.71 15.06 37.31 C 17.58 34.31 19.84 31.11 22.16 27.96 Z" />
</g>
<g id="#ccefd5ff">
<path fill="#ccefd5" opacity="1.00" d=" M 37.82 32.17 C 39.25 30.30 40.79 28.53 42.47 26.89 C 41.19 28.86 39.65 30.68 37.82 32.17 Z" />
</g>
<g id="#1ba6c4ff">
<path fill="#1ba6c4" opacity="1.00" d=" M 69.63 36.71 C 72.76 34.43 75.60 31.17 74.74 27.02 C 75.05 27.05 75.68 27.12 75.99 27.16 C 76.70 27.25 78.14 27.43 78.85 27.52 C 77.06 32.56 73.02 36.27 68.01 38.03 L 68.74 37.46 C 68.96 37.27 69.41 36.90 69.63 36.71 Z" />
<path fill="#1ba6c4" opacity="1.00" d=" M 181.63 36.71 C 184.76 34.43 187.59 31.17 186.74 27.02 C 187.05 27.05 187.68 27.12 187.99 27.16 C 188.70 27.25 190.14 27.43 190.85 27.52 C 189.06 32.56 185.02 36.27 180.01 38.03 L 180.74 37.46 C 180.96 37.27 181.41 36.90 181.63 36.71 Z" />
</g>
<g id="#8ddda8ff">
<path fill="#8ddda8" opacity="1.00" d=" M 147.82 32.03 C 149.69 30.64 151.68 29.42 153.68 28.24 C 151.61 30.17 149.39 31.93 147.04 33.50 C 147.24 33.13 147.63 32.40 147.82 32.03 Z" />
</g>
<g id="#278dd8ff">
<path fill="#278dd8" opacity="1.00" d=" M 150.10 34.88 C 152.47 33.37 154.74 31.70 156.98 29.99 C 156.23 31.60 155.45 33.20 154.67 34.79 C 150.52 36.48 146.35 38.11 142.28 39.97 L 141.23 40.45 C 141.84 38.48 142.49 36.52 143.20 34.59 C 143.33 35.86 143.46 37.13 143.59 38.40 C 145.55 37.38 147.51 36.37 149.43 35.27 L 150.10 34.88 Z" />
</g>
<g id="#268dd8fe">
<path fill="#268dd8" opacity="1.00" d=" M 94.02 35.03 C 95.99 33.97 97.97 32.94 99.87 31.76 C 97.96 34.22 95.65 36.36 92.98 37.97 C 90.55 38.72 88.04 39.18 85.58 39.83 L 84.69 40.10 C 85.67 38.33 86.59 36.52 87.55 34.74 C 87.53 35.95 87.51 37.17 87.49 38.38 C 89.49 37.40 91.49 36.41 93.45 35.35 L 94.02 35.03 Z" />
<path fill="#268dd8" opacity="1.00" d=" M 206.02 35.03 C 207.99 33.97 209.97 32.94 211.87 31.76 C 209.96 34.22 207.64 36.36 204.98 37.97 C 202.55 38.72 200.04 39.18 197.58 39.83 L 196.69 40.10 C 197.67 38.33 198.59 36.52 199.55 34.74 C 199.53 35.95 199.51 37.17 199.49 38.38 C 201.49 37.40 203.49 36.41 205.45 35.35 L 206.02 35.03 Z" />
</g>
<g id="#1aa9c2ff">
<path fill="#1aa9c2" opacity="1.00" d=" M 82.89 35.48 C 86.25 33.78 90.01 34.14 93.45 35.35 C 91.49 36.41 89.49 37.40 87.49 38.38 C 87.51 37.17 87.53 35.95 87.55 34.74 C 86.59 36.52 85.67 38.33 84.69 40.10 C 80.79 42.75 76.51 44.87 71.81 45.66 C 68.45 45.54 65.10 45.31 61.75 45.03 L 60.87 44.89 C 60.67 44.08 60.48 43.26 60.28 42.45 C 62.87 40.99 65.44 39.52 68.01 38.03 C 66.08 39.81 64.27 41.71 62.48 43.63 C 65.42 43.34 68.36 43.02 71.30 42.76 L 72.12 42.69 C 74.72 42.46 77.31 42.13 79.84 41.49 C 81.30 41.29 82.08 39.66 82.08 38.32 C 82.14 37.46 82.20 36.61 82.25 35.75 L 82.89 35.48 Z" />
<path fill="#1aa9c2" opacity="1.00" d=" M 194.89 35.48 C 198.25 33.78 202.01 34.14 205.45 35.35 C 203.49 36.41 201.49 37.40 199.49 38.38 C 199.51 37.17 199.53 35.95 199.55 34.74 C 198.59 36.52 197.67 38.33 196.69 40.10 C 192.79 42.75 188.51 44.87 183.81 45.66 C 180.45 45.54 177.10 45.31 173.75 45.03 L 172.87 44.89 C 172.67 44.08 172.48 43.26 172.28 42.45 C 174.86 40.99 177.44 39.52 180.01 38.03 C 178.08 39.81 176.27 41.71 174.48 43.63 C 177.43 43.34 180.35 43.02 183.30 42.76 L 184.12 42.69 C 186.72 42.46 189.31 42.13 191.84 41.49 C 193.30 41.29 194.08 39.66 194.08 38.32 C 194.14 37.46 194.19 36.61 194.25 35.75 L 194.89 35.48 Z" />
</g>
<g id="#40cfbeff">
<path fill="#40cfbe" opacity="1.00" d=" M 77.49 37.80 C 79.07 37.10 80.66 36.44 82.25 35.75 C 82.20 36.61 82.14 37.46 82.08 38.32 C 80.37 38.21 78.88 39.87 79.84 41.49 C 77.31 42.13 74.72 42.46 72.12 42.69 C 72.72 42.14 73.31 41.58 73.91 41.03 C 75.09 39.94 76.27 38.85 77.49 37.80 Z" />
<path fill="#40cfbe" opacity="1.00" d=" M 189.49 37.80 C 191.07 37.10 192.66 36.44 194.25 35.75 C 194.19 36.61 194.14 37.46 194.08 38.32 C 192.37 38.21 190.88 39.87 191.84 41.49 C 189.31 42.13 186.72 42.46 184.12 42.69 C 184.72 42.14 185.31 41.58 185.91 41.03 C 187.09 39.94 188.27 38.85 189.49 37.80 Z" />
<path fill="#40cfbe" opacity="1.00" d=" M 3.84 44.43 C 5.13 43.66 6.43 42.91 7.71 42.13 C 11.45 42.62 15.20 43.06 18.95 43.46 C 13.97 44.33 8.89 44.68 3.84 44.43 Z" />
</g>
<g id="#2690d6ff">
<path fill="#2690d6" opacity="1.00" d=" M 117.89 38.59 C 120.07 38.05 122.25 37.50 124.40 36.86 C 121.49 39.38 118.64 41.99 116.02 44.81 C 115.40 44.81 114.79 44.81 114.18 44.82 C 115.40 42.73 116.65 40.66 117.89 38.59 Z" />
</g>
<g id="#a3e1a5ff">
<path fill="#a3e1a5" opacity="1.00" d=" M 124.48 40.84 C 127.87 38.94 131.26 37.03 134.80 35.40 C 134.41 36.77 134.03 38.14 133.63 39.51 C 133.26 39.64 132.51 39.89 132.13 40.02 C 129.59 40.38 127.04 40.66 124.48 40.84 Z" />
</g>
<g id="#8bdda9ff">
<path fill="#8bdda9" opacity="1.00" d=" M 22.51 41.82 C 23.97 40.33 25.38 38.79 26.80 37.26 C 26.84 37.62 26.90 38.33 26.93 38.69 C 25.52 39.81 24.04 40.86 22.51 41.82 Z" />
</g>
<g id="#cbeed4ff">
<path fill="#cbeed4" opacity="1.00" d=" M 69.77 40.72 C 72.35 39.76 74.93 38.82 77.49 37.80 C 76.27 38.85 75.09 39.94 73.91 41.03 C 72.53 40.92 71.15 40.82 69.77 40.72 Z" />
<path fill="#cbeed4" opacity="1.00" d=" M 181.77 40.72 C 184.34 39.76 186.93 38.82 189.49 37.80 C 188.27 38.85 187.09 39.94 185.91 41.03 C 184.53 40.92 183.15 40.82 181.77 40.72 Z" />
</g>
<g id="#7ad9adff">
<path fill="#7ad9ad" opacity="1.00" d=" M 79.84 41.49 C 78.88 39.87 80.37 38.21 82.08 38.32 C 82.08 39.66 81.30 41.29 79.84 41.49 Z" />
<path fill="#7ad9ad" opacity="1.00" d=" M 137.07 37.84 C 137.93 39.16 137.63 41.25 135.90 41.65 C 135.03 40.28 135.81 38.64 137.07 37.84 Z" />
<path fill="#7ad9ad" opacity="1.00" d=" M 191.84 41.49 C 190.88 39.87 192.37 38.21 194.08 38.32 C 194.08 39.66 193.30 41.29 191.84 41.49 Z" />
</g>
<g id="#3f7cccff">
<path fill="#3f7ccc" opacity="1.00" d=" M 103.22 38.77 C 103.42 40.79 103.52 42.83 103.59 44.86 C 107.12 44.85 110.65 44.86 114.18 44.82 C 114.79 44.81 115.40 44.81 116.02 44.81 C 124.60 45.11 133.68 45.08 141.23 40.45 L 142.28 39.97 C 140.63 43.28 137.70 45.54 134.44 47.14 C 140.07 49.26 145.54 51.94 150.04 56.00 L 140.00 56.00 C 139.31 55.65 137.93 54.94 137.25 54.59 C 139.35 54.15 143.56 53.29 145.66 52.86 C 140.08 50.17 133.65 50.72 128.19 53.41 C 130.27 51.51 132.35 49.62 134.37 47.67 C 128.41 46.47 122.29 46.46 116.24 46.07 C 115.85 46.97 115.47 47.86 115.09 48.76 C 110.36 46.28 104.88 46.81 99.73 46.99 C 95.24 46.62 90.87 45.38 86.54 44.18 C 91.29 43.28 96.11 43.77 100.89 44.05 C 101.64 42.28 102.41 40.51 103.22 38.77 Z" />
</g>
<g id="#4279cbff">
<path fill="#4279cb" opacity="1.00" d=" M 155.80 43.88 C 157.76 42.76 159.11 40.87 160.62 39.23 C 160.79 41.24 161.06 43.24 161.41 45.22 C 157.05 47.67 152.34 46.48 147.99 44.76 C 148.20 44.04 148.40 43.32 148.60 42.59 C 150.83 43.58 153.33 45.08 155.80 43.88 Z" />
</g>
<g id="#3f80ccff">
<path fill="#3f80cc" opacity="1.00" d=" M 71.81 45.66 C 76.51 44.87 80.79 42.75 84.69 40.10 L 85.58 39.83 C 85.68 41.24 85.78 42.64 85.88 44.05 C 80.94 44.97 75.95 45.55 70.94 45.85 L 71.81 45.66 Z" />
<path fill="#3f80cc" opacity="1.00" d=" M 183.81 45.66 C 188.51 44.87 192.79 42.75 196.69 40.10 L 197.58 39.83 C 197.68 41.24 197.78 42.64 197.88 44.05 C 192.94 44.97 187.95 45.55 182.94 45.85 L 183.81 45.66 Z" />
</g>
<g id="#4379cbff">
<path fill="#4379cb" opacity="1.00" d=" M 198.54 44.18 C 207.00 42.66 215.54 44.67 224.00 45.16 L 224.00 45.92 C 218.94 46.17 213.75 47.91 208.70 46.67 C 205.28 45.98 201.89 45.14 198.54 44.18 Z" />
</g>
<g id="#4080cbff">
<path fill="#4080cb" opacity="1.00" d=" M 56.31 43.18 C 57.82 43.79 59.33 44.40 60.87 44.89 L 61.75 45.03 C 64.23 45.45 66.71 45.81 69.20 46.12 C 65.36 46.90 61.56 47.90 57.74 48.75 C 57.27 46.89 56.76 45.04 56.31 43.18 Z" />
<path fill="#4080cb" opacity="1.00" d=" M 168.31 43.18 C 169.82 43.79 171.32 44.40 172.87 44.89 L 173.75 45.03 C 176.22 45.45 178.71 45.81 181.20 46.12 C 177.36 46.90 173.56 47.90 169.74 48.75 C 169.26 46.89 168.76 45.04 168.31 43.18 Z" />
</g>
<g id="#4575cbff">
<path fill="#4575cb" opacity="1.00" d=" M 163.99 44.22 C 164.57 43.16 166.42 43.16 167.01 44.22 C 167.34 46.02 163.65 46.02 163.99 44.22 Z" />
</g>
<g id="#4178cbff">
<path fill="#4178cb" opacity="1.00" d=" M 74.78 46.53 C 81.15 49.31 86.94 53.22 93.31 56.00 L 83.26 56.00 C 84.78 55.50 86.29 54.99 87.80 54.45 C 85.54 53.34 83.32 52.00 80.82 51.53 C 77.69 51.55 74.97 53.38 72.15 54.51 C 73.91 52.89 75.71 51.31 77.53 49.76 C 76.62 48.68 75.70 47.60 74.78 46.53 Z" />
<path fill="#4178cb" opacity="1.00" d=" M 186.78 46.53 C 193.14 49.31 198.93 53.22 205.30 56.00 L 195.26 56.00 C 196.78 55.50 198.29 54.99 199.80 54.45 C 197.54 53.34 195.32 52.00 192.82 51.53 C 189.69 51.55 186.97 53.38 184.15 54.51 C 185.91 52.89 187.71 51.31 189.53 49.76 C 188.62 48.68 187.70 47.60 186.78 46.53 Z" />
</g>
<g id="#4378caff">
<path fill="#4378ca" opacity="1.00" d=" M 60.53 49.93 C 62.79 51.23 65.04 52.55 67.27 53.91 C 64.17 53.59 61.06 53.29 57.97 53.00 C 58.82 51.98 59.68 50.96 60.53 49.93 Z" />
<path fill="#4378ca" opacity="1.00" d=" M 172.53 49.93 C 174.79 51.23 177.04 52.55 179.27 53.91 C 176.17 53.59 173.06 53.29 169.97 53.00 C 170.82 51.98 171.68 50.96 172.53 49.93 Z" />
</g>
<g id="#4279caff">
<path fill="#4279ca" opacity="1.00" d=" M 113.51 51.30 C 116.94 49.81 120.49 50.85 123.47 52.81 C 120.14 52.43 116.82 51.86 113.51 51.30 Z" />
</g>
</svg>
