<?xml version="1.0" encoding="UTF-8" ?>
<!DOCTYPE svg PUBLIC "-//W3C//DTD SVG 1.1//EN" "http://www.w3.org/Graphics/SVG/1.1/DTD/svg11.dtd">
<svg width="224pt" height="56pt" viewBox="0 0 224 56" version="1.1" xmlns="http://www.w3.org/2000/svg">
<g id="#3c6bbeff">
<path fill="#3c6bbe" opacity="1.00" d=" M 0.00 0.00 L 25.53 0.00 C 26.56 1.10 27.54 2.24 28.53 3.37 C 21.93 4.08 14.86 5.97 8.47 3.29 C 9.44 5.12 10.45 6.94 11.03 8.93 C 9.01 11.14 6.44 12.75 4.12 14.61 C 8.13 14.26 12.15 14.04 16.17 14.10 C 14.55 12.27 12.94 10.43 11.34 8.59 C 14.20 6.60 17.57 5.20 21.10 6.03 C 27.04 6.97 32.32 3.13 37.78 1.54 C 35.94 1.16 32.24 0.39 30.40 0.00 L 39.34 0.00 L 40.13 0.75 C 40.04 1.42 39.86 2.76 39.77 3.43 C 39.34 7.38 38.95 11.34 38.54 15.30 C 39.26 15.01 39.99 14.73 40.73 14.46 C 40.84 14.43 41.06 14.36 41.18 14.33 C 41.11 14.67 40.98 15.35 40.92 15.69 C 40.76 16.59 40.44 18.38 40.28 19.27 C 38.41 18.75 36.55 18.20 34.70 17.65 C 30.55 18.66 26.30 19.24 22.05 19.57 C 23.64 20.42 25.23 21.27 26.82 22.12 C 26.92 22.94 27.13 24.59 27.23 25.42 C 23.85 26.45 20.37 27.16 16.86 27.63 C 17.61 29.34 18.39 31.05 18.82 32.87 C 13.60 37.07 6.35 36.83 0.00 37.83 L 0.00 31.08 C 3.84 29.62 7.71 28.23 11.58 26.85 C 11.79 25.10 11.54 23.15 12.46 21.58 C 14.69 19.82 17.47 18.96 20.02 17.76 C 13.38 19.35 6.40 20.64 0.00 17.41 L 0.00 0.00 Z" />
<path fill="#3c6bbe" opacity="1.00" d=" M 56.08 0.00 L 85.55 0.00 C 79.71 5.23 71.58 2.94 64.65 2.20 C 65.53 4.22 66.67 6.24 66.71 8.49 C 64.68 10.41 62.32 11.93 60.10 13.60 C 64.11 13.26 68.14 13.04 72.17 13.10 C 70.56 11.28 68.96 9.45 67.37 7.62 C 71.10 4.36 75.99 4.04 80.48 5.77 C 84.88 2.18 90.51 0.99 95.97 0.00 L 97.84 0.00 C 97.60 0.35 97.12 1.05 96.89 1.39 C 95.98 2.39 95.59 3.53 95.71 4.83 C 95.91 8.03 96.08 11.22 96.40 14.41 C 96.45 14.76 96.56 15.45 96.61 15.80 C 97.22 18.70 97.72 21.65 98.67 24.47 C 100.38 26.23 102.43 27.60 104.42 29.01 C 104.19 30.18 103.96 31.36 103.73 32.53 C 101.18 32.76 98.64 32.98 96.09 33.20 C 96.09 34.10 96.11 35.88 96.11 36.78 C 100.49 35.65 105.51 35.27 108.54 31.50 C 112.19 27.40 117.33 25.38 122.14 23.06 C 124.38 22.15 123.86 19.23 124.56 17.35 C 127.08 16.11 129.62 14.88 132.12 13.59 C 125.57 16.25 118.67 18.65 111.82 15.47 C 111.91 13.59 112.10 9.83 112.19 7.95 C 112.36 6.62 112.19 5.33 111.69 4.08 C 111.82 2.72 111.95 1.36 112.08 0.00 L 138.34 0.00 C 137.74 0.60 136.55 1.79 135.96 2.38 C 130.86 2.10 125.74 1.87 120.67 1.25 C 121.53 3.25 122.67 5.25 122.71 7.49 C 120.68 9.41 118.32 10.93 116.10 12.60 C 120.11 12.26 124.14 12.04 128.17 12.10 C 126.56 10.28 124.96 8.45 123.37 6.62 C 127.31 3.05 132.56 3.17 137.25 5.08 C 138.45 3.37 139.65 1.64 140.96 0.00 L 153.82 0.00 C 150.42 7.69 151.48 16.41 155.58 23.64 C 155.54 22.83 155.45 21.22 155.41 20.42 C 157.46 20.83 159.50 21.24 161.55 21.65 C 161.42 23.02 161.26 24.38 161.09 25.74 C 160.72 28.27 159.80 30.68 158.57 32.92 C 155.88 32.96 153.22 32.52 150.55 32.23 L 150.14 31.68 C 147.20 30.15 144.16 32.37 141.20 32.75 C 136.84 34.94 132.70 32.24 128.80 30.65 C 131.81 24.53 138.94 25.55 144.66 24.88 C 141.06 23.91 137.09 22.60 133.49 24.33 C 129.60 25.88 128.77 30.50 126.59 33.70 C 130.45 35.25 136.10 34.59 138.61 38.24 C 138.50 41.19 137.46 43.98 136.71 46.80 C 138.94 43.92 140.79 40.77 143.04 37.92 C 145.46 34.48 150.17 34.46 154.01 34.45 C 158.31 35.03 158.70 40.13 160.34 43.36 C 161.37 38.80 160.90 33.55 163.16 29.32 C 165.99 28.60 168.99 28.95 171.80 28.17 C 174.52 27.23 177.03 25.80 179.62 24.57 C 180.08 22.18 180.66 19.82 181.38 17.50 C 176.75 19.12 171.98 17.82 167.43 16.55 C 167.67 13.68 167.93 10.82 168.22 7.95 C 168.43 6.62 168.26 5.33 167.71 4.09 C 167.83 2.72 167.96 1.36 168.08 -0.00 L 197.59 0.00 C 192.38 4.33 185.39 2.91 179.24 4.35 C 178.55 8.49 175.41 11.24 172.22 13.65 C 176.18 13.26 180.17 13.05 184.16 13.09 C 182.55 11.27 180.96 9.45 179.36 7.62 C 183.09 4.36 187.99 4.04 192.48 5.77 C 196.88 2.17 202.51 0.99 207.97 0.00 L 209.84 0.00 C 209.60 0.35 209.12 1.05 208.89 1.39 C 207.98 2.39 207.59 3.53 207.71 4.83 C 207.91 8.03 208.08 11.22 208.40 14.41 C 208.45 14.76 208.56 15.45 208.61 15.80 C 209.21 18.70 209.72 21.65 210.67 24.48 C 212.38 26.24 214.43 27.60 216.42 29.01 C 216.19 30.18 215.96 31.35 215.74 32.52 C 213.15 32.77 210.57 33.01 207.99 33.25 C 208.08 33.83 208.25 34.99 208.34 35.57 C 210.52 36.58 212.78 37.58 214.97 38.62 C 217.40 35.40 219.85 32.19 222.26 28.96 C 219.45 27.87 216.64 26.78 213.94 25.45 L 214.61 25.10 L 215.30 24.75 C 218.00 24.80 220.71 24.89 223.42 24.87 C 222.40 24.24 221.37 23.64 220.34 23.04 C 221.39 22.56 222.39 21.99 223.35 21.34 L 224.00 20.92 L 224.00 44.82 C 222.12 44.88 218.37 45.00 216.49 45.06 C 218.17 47.62 221.32 47.92 224.00 48.86 L 224.00 49.80 C 214.68 49.45 205.40 50.39 196.11 50.74 C 194.59 50.38 193.09 49.96 191.63 49.42 C 194.66 45.55 197.52 41.55 199.14 36.86 C 201.49 36.44 203.85 36.01 206.21 35.57 C 205.54 33.68 204.85 31.80 204.15 29.93 C 201.77 31.83 199.59 34.11 196.78 35.38 C 192.73 36.16 189.24 32.90 185.60 31.76 C 188.24 26.92 193.57 25.96 198.69 26.25 C 198.15 24.95 197.61 23.65 197.08 22.34 C 199.02 20.65 200.98 18.97 202.97 17.33 C 198.71 18.02 194.39 17.84 190.17 16.95 C 192.81 18.74 195.25 20.82 197.17 23.38 C 193.51 24.74 189.81 25.97 186.13 27.25 C 185.24 29.79 185.77 33.51 182.93 34.70 C 179.43 36.13 175.77 37.08 172.18 38.24 C 174.61 41.88 177.55 45.24 181.62 47.08 C 179.47 44.56 177.24 42.11 175.23 39.48 C 181.34 36.44 188.18 34.59 194.95 36.87 C 193.46 41.21 191.11 45.23 187.79 48.43 C 188.25 49.15 188.71 49.87 189.17 50.60 C 188.45 50.60 187.02 50.61 186.31 50.62 C 181.46 50.43 176.64 50.16 171.80 49.90 C 172.89 48.25 174.01 46.62 175.13 44.99 C 173.21 45.68 171.29 46.39 169.37 47.08 C 169.78 48.41 170.19 49.73 170.60 51.05 C 168.65 50.98 166.70 51.00 164.75 51.02 C 164.49 50.69 163.96 50.02 163.70 49.69 C 164.62 49.64 166.86 49.45 166.38 48.02 C 164.97 46.84 163.20 48.21 162.06 49.12 L 161.53 49.53 C 159.16 49.22 156.74 48.80 154.36 49.23 C 149.40 50.05 144.42 50.98 139.38 50.89 C 136.96 49.56 135.29 47.28 133.62 45.15 C 132.96 45.76 132.31 46.37 131.66 46.99 C 132.24 48.23 132.82 49.47 133.38 50.73 C 132.61 50.70 131.08 50.66 130.32 50.64 C 124.87 50.08 119.39 49.67 114.01 48.61 C 114.15 49.16 114.41 50.27 114.54 50.82 C 113.74 50.71 112.93 50.61 112.12 50.52 C 108.00 49.97 103.86 49.47 99.69 49.46 C 99.29 49.49 98.48 49.56 98.08 49.60 C 93.87 50.08 89.65 50.57 85.41 50.69 C 83.24 50.12 81.08 49.49 78.93 48.83 C 83.33 43.57 86.66 36.69 93.95 34.88 C 93.33 33.16 92.70 31.46 92.05 29.76 C 89.64 31.82 87.29 33.95 84.93 36.07 C 81.18 34.58 77.44 33.05 73.72 31.49 C 76.46 26.88 81.68 26.00 86.69 26.26 C 86.15 24.95 85.61 23.65 85.08 22.34 C 87.02 20.65 88.98 18.97 90.97 17.33 C 86.71 18.02 82.39 17.84 78.17 16.95 C 80.81 18.74 83.25 20.82 85.17 23.38 C 81.51 24.74 77.81 25.97 74.13 27.25 C 73.25 29.79 73.77 33.51 70.93 34.70 C 67.43 36.13 63.77 37.08 60.18 38.24 C 62.61 41.88 65.55 45.24 69.62 47.08 C 67.48 44.56 65.24 42.11 63.23 39.48 C 69.33 36.45 76.18 34.59 82.94 36.86 C 81.46 41.33 79.00 45.43 75.49 48.60 C 76.16 49.20 76.84 49.81 77.52 50.41 C 76.72 50.42 75.13 50.42 74.33 50.43 C 69.48 50.32 64.64 50.14 59.79 49.93 C 60.89 48.27 62.01 46.63 63.13 44.99 C 61.20 45.69 59.27 46.39 57.33 47.09 C 57.76 48.33 58.18 49.58 58.61 50.82 C 57.81 50.70 57.00 50.58 56.20 50.47 C 53.01 50.02 49.82 49.57 46.60 49.37 C 46.08 49.33 45.55 49.28 45.02 49.24 C 45.09 48.04 45.14 46.85 45.20 45.65 C 47.58 46.33 49.96 46.97 52.39 47.46 C 50.20 46.18 48.08 44.66 45.61 43.97 C 42.87 43.84 40.17 44.65 37.48 45.10 C 39.18 45.20 40.88 45.28 42.59 45.34 C 42.16 46.33 41.73 47.33 41.31 48.32 C 42.40 48.62 43.48 48.92 44.58 49.20 C 44.13 49.43 43.24 49.88 42.80 50.11 C 37.91 50.76 32.97 51.03 28.05 51.35 C 26.66 50.85 25.28 50.30 23.90 49.76 C 27.46 43.58 31.43 37.65 36.30 32.43 C 31.15 35.00 25.04 36.02 19.70 33.38 C 19.84 32.62 20.12 31.10 20.26 30.34 C 26.76 26.94 31.43 17.80 39.92 21.09 C 40.83 22.51 41.76 23.92 42.82 25.23 C 44.71 27.56 47.06 29.50 48.71 32.02 C 47.46 34.55 45.49 36.62 43.76 38.83 C 46.06 38.71 48.35 38.60 50.65 38.52 C 51.22 35.33 52.23 32.23 53.49 29.24 C 50.69 28.80 47.99 27.88 45.55 26.43 C 45.99 25.92 46.86 24.91 47.29 24.41 C 47.81 24.30 48.84 24.10 49.36 24.00 C 49.04 24.57 48.41 25.72 48.10 26.30 C 50.40 26.27 52.70 26.21 55.01 26.17 C 54.17 25.19 53.33 24.21 52.49 23.23 C 53.33 22.91 54.17 22.56 55.01 22.20 C 55.24 21.72 55.72 20.76 55.96 20.28 L 55.90 18.85 C 59.21 19.41 62.48 20.17 65.71 21.08 C 65.65 21.65 65.54 22.81 65.48 23.38 C 61.95 25.01 58.44 26.73 55.21 28.90 C 59.51 28.86 63.79 27.23 67.00 24.37 C 68.32 22.29 68.73 19.76 69.66 17.49 C 65.05 19.12 60.33 17.94 55.87 16.40 C 55.93 13.58 56.04 10.76 56.19 7.95 C 56.35 6.62 56.19 5.33 55.69 4.08 C 55.82 2.72 55.95 1.36 56.08 0.00 M 138.70 9.43 C 141.11 10.60 143.55 11.71 146.03 12.72 C 145.38 14.05 144.70 15.38 144.04 16.70 C 146.39 16.58 148.74 16.49 151.10 16.51 C 148.24 14.59 146.23 11.79 144.59 8.82 C 142.63 9.06 140.66 9.22 138.70 9.43 M 157.15 22.40 C 156.30 26.38 161.14 21.58 157.15 22.40 M 29.19 27.21 C 27.40 27.63 28.28 30.46 29.98 29.96 C 31.79 29.58 30.88 26.69 29.19 27.21 M 114.60 36.91 C 114.42 37.47 114.23 38.02 114.03 38.58 C 115.18 38.85 116.33 39.11 117.49 39.38 C 117.48 39.77 117.47 40.55 117.46 40.95 C 121.34 38.82 125.40 37.05 129.39 35.14 C 124.48 35.92 119.61 37.68 114.60 36.91 M 212.65 42.27 C 213.55 44.07 214.45 45.86 215.44 47.61 C 215.40 45.33 215.42 43.06 215.34 40.78 C 214.67 41.16 213.32 41.90 212.65 42.27 M 96.65 45.61 C 98.40 46.16 100.15 46.70 101.91 47.24 C 101.94 46.41 102.00 44.76 102.03 43.93 C 100.23 44.47 98.44 45.02 96.65 45.61 M 151.47 44.98 C 153.25 45.88 155.06 46.72 156.89 47.54 C 156.29 46.72 155.69 45.89 155.09 45.08 C 159.52 45.82 164.04 45.68 168.41 44.64 C 162.77 43.97 157.08 44.19 151.47 44.98 M 209.53 45.12 C 209.68 45.44 209.96 46.09 210.10 46.41 C 212.70 47.02 210.95 42.94 209.53 45.12 Z" />
<path fill="#3c6bbe" opacity="1.00" d=" M 8.35 39.92 C 11.61 38.24 14.97 35.95 18.81 36.25 C 22.22 36.80 25.14 38.83 28.00 40.64 C 24.60 43.37 20.09 45.86 20.34 50.91 C 19.84 50.87 18.85 50.80 18.35 50.77 C 13.94 50.49 9.54 50.25 5.14 50.02 C 5.98 48.68 6.83 47.35 7.67 46.01 C 5.54 47.24 3.41 48.50 1.51 50.08 C 1.00 50.52 0.49 50.96 0.00 51.42 L 0.00 38.25 C 2.81 39.10 6.37 39.11 8.18 41.82 C 10.22 44.42 12.79 46.51 15.68 48.10 C 13.24 45.37 10.75 42.68 8.35 39.92 Z" />
</g>
<g id="#4179cbff">
<path fill="#4179cb" opacity="1.00" d=" M 25.53 0.00 L 30.40 0.00 C 32.24 0.39 35.94 1.16 37.78 1.54 C 32.32 3.13 27.04 6.97 21.10 6.03 C 17.57 5.20 14.20 6.60 11.34 8.59 C 12.94 10.43 14.55 12.27 16.17 14.10 C 12.15 14.04 8.13 14.26 4.12 14.61 C 6.44 12.75 9.01 11.14 11.03 8.93 C 10.45 6.94 9.44 5.12 8.47 3.29 C 14.86 5.97 21.93 4.08 28.53 3.37 C 27.54 2.24 26.56 1.10 25.53 0.00 Z" />
</g>
<g id="#268dd8ff">
<path fill="#268dd8" opacity="1.00" d=" M 39.34 0.00 L 42.60 0.00 C 42.75 0.50 43.05 1.51 43.20 2.02 C 42.94 3.30 42.74 4.59 42.59 5.89 C 41.88 10.17 42.98 14.34 43.87 18.48 C 43.58 16.98 43.37 13.87 41.18 14.33 C 41.06 14.36 40.84 14.43 40.73 14.46 C 39.99 14.73 39.26 15.01 38.54 15.30 C 38.95 11.34 39.34 7.38 39.77 3.43 C 42.14 6.12 42.52 1.41 40.13 0.75 L 39.34 0.00 Z" />
<path fill="#268dd8" opacity="1.00" d=" M 153.82 0.00 L 155.05 0.00 C 155.13 0.51 155.28 1.52 155.36 2.02 C 155.06 3.29 154.77 4.57 154.51 5.85 C 154.27 7.07 153.79 9.53 153.55 10.76 C 154.18 12.35 154.91 13.89 155.69 15.42 C 155.37 14.98 154.74 14.11 154.43 13.67 C 154.80 15.91 155.23 18.15 155.41 20.42 C 155.45 21.22 155.54 22.83 155.58 23.64 C 151.48 16.41 150.42 7.69 153.82 0.00 Z" />
</g>
<g id="#342f2aff">
<path fill="#342f2a" opacity="1.00" d=" M 42.60 0.00 L 44.86 0.00 C 45.44 0.35 46.59 1.04 47.17 1.39 C 46.83 3.49 46.51 5.60 46.22 7.70 C 48.93 7.91 51.65 8.08 54.38 8.03 C 54.66 8.02 55.23 8.00 55.51 7.99 L 56.19 7.95 C 56.04 10.76 55.93 13.58 55.87 16.40 C 55.88 17.01 55.90 18.24 55.90 18.85 L 55.96 20.28 C 55.51 20.20 54.63 20.03 54.19 19.95 C 54.04 19.69 53.75 19.18 53.60 18.92 C 52.42 15.91 50.44 19.06 51.16 20.92 C 50.88 21.55 50.31 22.82 50.03 23.45 C 49.49 23.04 48.43 22.23 47.90 21.83 C 48.33 17.70 48.89 13.59 49.58 9.50 C 48.96 9.36 47.72 9.06 47.09 8.92 C 46.53 12.61 45.97 16.30 45.45 19.99 C 45.07 19.71 44.32 19.15 43.94 18.87 L 43.87 18.48 C 42.98 14.34 41.88 10.17 42.59 5.89 C 43.07 8.36 43.82 10.77 44.80 13.09 C 44.70 9.35 44.37 5.58 43.20 2.02 C 43.05 1.51 42.75 0.50 42.60 0.00 M 48.91 19.37 C 50.15 16.83 51.25 14.21 52.05 11.50 C 50.53 13.90 49.30 16.50 48.91 19.37 Z" />
<path fill="#342f2a" opacity="1.00" d=" M 98.97 0.00 L 100.87 0.00 C 101.45 0.35 102.60 1.04 103.17 1.39 C 102.83 3.49 102.51 5.59 102.23 7.71 C 104.94 7.91 107.65 8.08 110.38 8.03 C 110.66 8.02 111.23 8.00 111.51 7.99 L 112.19 7.95 C 112.10 9.83 111.91 13.59 111.82 15.47 C 111.81 16.01 111.80 17.10 111.79 17.64 L 111.80 19.04 C 111.34 19.08 110.40 19.17 109.93 19.21 L 109.19 19.38 C 110.06 16.57 106.86 17.46 107.02 19.65 C 106.81 20.22 106.39 21.36 106.18 21.92 C 105.46 21.60 104.03 20.95 103.32 20.63 C 104.17 16.94 105.01 13.24 105.81 9.54 C 105.10 9.38 103.68 9.06 102.97 8.90 C 102.41 12.73 101.72 16.54 101.33 20.39 C 101.01 19.49 100.68 18.58 100.35 17.68 L 100.20 17.24 C 98.80 13.62 97.47 9.84 98.55 5.87 C 99.06 8.34 99.84 10.74 100.78 13.08 C 100.58 9.34 100.10 5.63 99.27 1.98 C 99.19 1.49 99.04 0.50 98.97 0.00 M 104.91 19.37 C 106.15 16.83 107.25 14.21 108.05 11.50 C 106.54 13.90 105.29 16.50 104.91 19.37 Z" />
<path fill="#342f2a" opacity="1.00" d=" M 210.97 0.00 L 212.89 0.00 C 213.49 0.35 214.69 1.06 215.28 1.41 C 214.80 3.40 214.32 5.39 213.86 7.39 C 216.68 7.77 219.51 8.10 222.35 8.02 C 222.58 8.01 223.05 7.99 223.28 7.98 L 224.00 7.92 L 224.00 19.31 C 223.53 19.32 222.58 19.33 222.11 19.34 L 221.32 19.46 C 222.08 16.67 218.90 17.51 219.12 19.73 C 218.92 20.34 218.52 21.55 218.31 22.16 C 217.58 21.79 216.12 21.06 215.38 20.69 C 216.20 16.98 217.01 13.26 217.80 9.54 C 217.09 9.38 215.67 9.06 214.96 8.90 C 214.41 12.73 213.73 16.55 213.34 20.40 C 213.01 19.49 212.68 18.59 212.35 17.68 L 212.20 17.24 C 210.79 13.62 209.47 9.84 210.55 5.87 C 211.06 8.34 211.84 10.74 212.78 13.08 C 212.57 9.34 212.11 5.63 211.27 1.98 C 211.19 1.49 211.04 0.50 210.97 0.00 M 216.91 19.37 C 218.15 16.83 219.25 14.21 220.05 11.50 C 218.54 13.90 217.28 16.50 216.91 19.37 Z" />
</g>
<g id="#84ad5aff">
<path fill="#84ad5a" opacity="1.00" d=" M 44.86 0.00 L 56.08 0.00 C 55.95 1.36 55.82 2.72 55.69 4.08 C 54.90 5.19 54.22 6.93 55.51 7.99 C 55.23 8.00 54.66 8.02 54.38 8.03 C 52.33 5.46 49.84 3.30 47.17 1.39 C 46.59 1.04 45.44 0.35 44.86 0.00 M 51.56 1.49 C 51.13 3.20 54.15 3.84 54.73 2.29 C 55.01 0.68 52.25 0.22 51.56 1.49 Z" />
<path fill="#84ad5a" opacity="1.00" d=" M 100.87 0.00 L 112.08 0.00 C 111.95 1.36 111.82 2.72 111.69 4.08 C 110.90 5.19 110.23 6.93 111.51 7.99 C 111.23 8.00 110.66 8.02 110.38 8.03 C 108.32 5.46 105.83 3.30 103.17 1.39 C 102.60 1.04 101.45 0.35 100.87 0.00 M 107.56 1.49 C 107.12 3.20 110.15 3.84 110.73 2.29 C 111.01 0.68 108.25 0.22 107.56 1.49 Z" />
<path fill="#84ad5a" opacity="1.00" d=" M 156.88 0.00 L 168.08 0.00 C 167.96 1.36 167.83 2.72 167.71 4.09 C 166.95 5.21 166.30 6.92 167.55 7.99 C 167.25 8.00 166.67 8.02 166.38 8.03 C 164.32 5.46 161.83 3.30 159.17 1.38 C 158.60 1.04 157.45 0.35 156.88 0.00 M 163.56 1.49 C 163.12 3.20 166.15 3.84 166.73 2.29 C 167.01 0.68 164.25 0.22 163.56 1.49 Z" />
<path fill="#84ad5a" opacity="1.00" d=" M 212.89 0.00 L 224.00 0.00 L 224.00 4.32 C 222.70 5.01 221.80 6.93 223.28 7.98 C 223.05 7.99 222.58 8.01 222.35 8.02 C 220.32 5.48 217.88 3.34 215.28 1.41 C 214.69 1.06 213.49 0.35 212.89 0.00 M 219.56 1.49 C 219.12 3.20 222.15 3.84 222.73 2.29 C 223.01 0.68 220.25 0.22 219.56 1.49 Z" />
</g>
<g id="#4279caff">
<path fill="#4279ca" opacity="1.00" d=" M 85.55 0.00 L 95.97 0.00 C 90.51 0.99 84.88 2.18 80.48 5.77 C 75.99 4.04 71.10 4.36 67.37 7.62 C 68.96 9.45 70.56 11.28 72.17 13.10 C 68.14 13.04 64.11 13.26 60.10 13.60 C 62.32 11.93 64.68 10.41 66.71 8.49 C 66.67 6.24 65.53 4.22 64.65 2.20 C 71.58 2.94 79.71 5.23 85.55 0.00 Z" />
<path fill="#4279ca" opacity="1.00" d=" M 197.59 0.00 L 207.97 0.00 C 202.51 0.99 196.88 2.17 192.48 5.77 C 187.99 4.04 183.09 4.36 179.36 7.62 C 180.96 9.45 182.55 11.27 184.16 13.09 C 180.17 13.05 176.18 13.26 172.22 13.65 C 175.41 11.24 178.55 8.49 179.24 4.35 C 185.39 2.91 192.38 4.33 197.59 0.00 Z" />
</g>
<g id="#268ed9ff">
<path fill="#268ed9" opacity="1.00" d=" M 97.84 0.00 L 98.97 0.00 C 99.04 0.50 99.19 1.49 99.27 1.98 C 98.97 3.27 98.74 4.57 98.55 5.87 C 97.47 9.84 98.80 13.62 100.20 17.24 C 99.35 15.84 98.09 14.61 96.40 14.41 C 96.08 11.22 95.91 8.03 95.71 4.83 C 97.72 5.09 97.74 2.58 96.89 1.39 C 97.12 1.05 97.60 0.35 97.84 0.00 Z" />
<path fill="#268ed9" opacity="1.00" d=" M 209.84 0.00 L 210.97 0.00 C 211.04 0.50 211.19 1.49 211.27 1.98 C 210.97 3.27 210.73 4.57 210.55 5.87 C 209.47 9.84 210.79 13.62 212.20 17.24 C 211.35 15.85 210.09 14.61 208.40 14.41 C 208.08 11.22 207.91 8.03 207.71 4.83 C 209.72 5.09 209.74 2.58 208.89 1.39 C 209.12 1.05 209.60 0.35 209.84 0.00 Z" />
<path fill="#268ed9" opacity="1.00" d=" M 109.93 19.21 C 110.40 19.17 111.34 19.08 111.80 19.04 C 111.60 19.58 111.20 20.67 111.00 21.21 C 110.73 20.71 110.20 19.71 109.93 19.21 Z" />
<path fill="#268ed9" opacity="1.00" d=" M 222.11 19.34 C 222.58 19.33 223.53 19.32 224.00 19.31 L 224.00 20.92 L 223.35 21.34 C 223.04 20.84 222.42 19.84 222.11 19.34 Z" />
<path fill="#268ed9" opacity="1.00" d=" M 54.19 19.95 C 54.63 20.03 55.51 20.20 55.96 20.28 C 55.72 20.76 55.24 21.72 55.01 22.20 C 54.80 21.64 54.39 20.51 54.19 19.95 Z" />
</g>
<g id="#4278caff">
<path fill="#4278ca" opacity="1.00" d=" M 138.34 0.00 L 140.96 0.00 C 139.65 1.64 138.45 3.37 137.25 5.08 C 132.56 3.17 127.31 3.05 123.37 6.62 C 124.96 8.45 126.56 10.28 128.17 12.10 C 124.14 12.04 120.11 12.26 116.10 12.60 C 118.32 10.93 120.68 9.41 122.71 7.49 C 122.67 5.25 121.53 3.25 120.67 1.25 C 125.74 1.87 130.86 2.10 135.96 2.38 C 136.55 1.79 137.74 0.60 138.34 0.00 Z" />
</g>
<g id="#332e2aff">
<path fill="#332e2a" opacity="1.00" d=" M 155.05 0.00 L 156.88 0.00 C 157.45 0.35 158.60 1.04 159.17 1.38 C 158.82 3.48 158.50 5.59 158.23 7.71 C 160.94 7.91 163.66 8.08 166.38 8.03 C 166.67 8.02 167.25 8.00 167.55 7.99 L 168.22 7.95 C 167.93 10.82 167.67 13.68 167.43 16.55 C 167.38 17.02 167.29 17.94 167.25 18.41 C 166.95 18.30 166.34 18.08 166.04 17.97 L 165.68 17.83 C 164.61 16.60 162.73 17.52 163.11 19.12 C 162.89 19.73 162.46 20.94 162.24 21.54 C 161.67 21.11 160.52 20.25 159.95 19.82 C 160.53 16.36 161.11 12.91 161.74 9.47 C 161.17 9.38 160.01 9.21 159.43 9.13 C 158.54 11.68 157.61 14.23 156.66 16.76 C 156.42 16.43 155.93 15.75 155.69 15.42 C 154.91 13.89 154.18 12.35 153.55 10.76 C 153.79 9.53 154.27 7.07 154.51 5.85 C 155.05 8.32 155.82 10.73 156.78 13.07 C 156.55 9.36 156.13 5.66 155.36 2.02 C 155.28 1.52 155.13 0.51 155.05 0.00 M 160.91 19.37 C 162.15 16.83 163.25 14.21 164.05 11.50 C 162.54 13.90 161.28 16.50 160.91 19.37 Z" />
<path fill="#332e2a" opacity="1.00" d=" M 79.12 51.85 C 80.30 50.67 82.06 50.66 83.60 50.76 C 83.45 51.06 83.14 51.66 82.98 51.96 C 81.85 52.34 80.68 52.42 79.49 52.21 L 79.12 51.85 Z" />
</g>
<g id="#86a0b1ff">
<path fill="#86a0b1" opacity="1.00" d=" M 40.13 0.75 C 42.52 1.41 42.14 6.12 39.77 3.43 C 39.86 2.76 40.04 1.42 40.13 0.75 Z" />
</g>
<g id="#6f9a52ff">
<path fill="#6f9a52" opacity="1.00" d=" M 51.56 1.49 C 52.25 0.22 55.01 0.68 54.73 2.29 C 54.15 3.84 51.13 3.20 51.56 1.49 Z" />
<path fill="#6f9a52" opacity="1.00" d=" M 107.56 1.49 C 108.25 0.22 111.01 0.68 110.73 2.29 C 110.15 3.84 107.12 3.20 107.56 1.49 Z" />
<path fill="#6f9a52" opacity="1.00" d=" M 163.56 1.49 C 164.25 0.22 167.01 0.68 166.73 2.29 C 166.15 3.84 163.12 3.20 163.56 1.49 Z" />
<path fill="#6f9a52" opacity="1.00" d=" M 219.56 1.49 C 220.25 0.22 223.01 0.68 222.73 2.29 C 222.15 3.84 219.12 3.20 219.56 1.49 Z" />
</g>
<g id="#709e5cff">
<path fill="#709e5c" opacity="1.00" d=" M 47.17 1.39 C 49.84 3.30 52.33 5.46 54.38 8.03 C 51.65 8.08 48.93 7.91 46.22 7.70 C 46.51 5.60 46.83 3.49 47.17 1.39 Z" />
<path fill="#709e5c" opacity="1.00" d=" M 103.17 1.39 C 105.83 3.30 108.32 5.46 110.38 8.03 C 107.65 8.08 104.94 7.91 102.23 7.71 C 102.51 5.59 102.83 3.49 103.17 1.39 Z" />
<path fill="#709e5c" opacity="1.00" d=" M 159.17 1.38 C 161.83 3.30 164.32 5.46 166.38 8.03 C 163.66 8.08 160.94 7.91 158.23 7.71 C 158.50 5.59 158.82 3.48 159.17 1.38 Z" />
<path fill="#709e5c" opacity="1.00" d=" M 215.28 1.41 C 217.88 3.34 220.32 5.48 222.35 8.02 C 219.51 8.10 216.68 7.77 213.86 7.39 C 214.32 5.39 214.80 3.40 215.28 1.41 Z" />
</g>
<g id="#7392b4ff">
<path fill="#7392b4" opacity="1.00" d=" M 95.71 4.83 C 95.59 3.53 95.98 2.39 96.89 1.39 C 97.74 2.58 97.72 5.09 95.71 4.83 Z" />
<path fill="#7392b4" opacity="1.00" d=" M 207.71 4.83 C 207.59 3.53 207.98 2.39 208.89 1.39 C 209.74 2.58 209.72 5.09 207.71 4.83 Z" />
</g>
<g id="#645a4bff">
<path fill="#645a4b" opacity="1.00" d=" M 43.20 2.02 C 44.37 5.58 44.70 9.35 44.80 13.09 C 43.82 10.77 43.07 8.36 42.59 5.89 C 42.74 4.59 42.94 3.30 43.20 2.02 Z" />
<path fill="#645a4b" opacity="1.00" d=" M 99.27 1.98 C 100.10 5.63 100.58 9.34 100.78 13.08 C 99.84 10.74 99.06 8.34 98.55 5.87 C 98.74 4.57 98.97 3.27 99.27 1.98 Z" />
<path fill="#645a4b" opacity="1.00" d=" M 155.36 2.02 C 156.13 5.66 156.55 9.36 156.78 13.07 C 155.82 10.73 155.05 8.32 154.51 5.85 C 154.77 4.57 155.06 3.29 155.36 2.02 Z" />
<path fill="#645a4b" opacity="1.00" d=" M 211.27 1.98 C 212.11 5.63 212.57 9.34 212.78 13.08 C 211.84 10.74 211.06 8.34 210.55 5.87 C 210.73 4.57 210.97 3.27 211.27 1.98 Z" />
</g>
<g id="#5c8260ff">
<path fill="#5c8260" opacity="1.00" d=" M 55.51 7.99 C 54.22 6.93 54.90 5.19 55.69 4.08 C 56.19 5.33 56.35 6.62 56.19 7.95 L 55.51 7.99 Z" />
<path fill="#5c8260" opacity="1.00" d=" M 111.51 7.99 C 110.23 6.93 110.90 5.19 111.69 4.08 C 112.19 5.33 112.36 6.62 112.19 7.95 L 111.51 7.99 Z" />
<path fill="#5c8260" opacity="1.00" d=" M 167.55 7.99 C 166.30 6.92 166.95 5.21 167.71 4.09 C 168.26 5.33 168.43 6.62 168.22 7.95 L 167.55 7.99 Z" />
<path fill="#5c8260" opacity="1.00" d=" M 223.28 7.98 C 221.80 6.93 222.70 5.01 224.00 4.32 L 224.00 7.92 L 223.28 7.98 Z" />
</g>
<g id="#4377cafe">
<path fill="#4377ca" opacity="1.00" d=" M 138.70 9.43 C 140.66 9.22 142.63 9.06 144.59 8.82 C 146.23 11.79 148.24 14.59 151.10 16.51 C 148.74 16.49 146.39 16.58 144.04 16.70 C 144.70 15.38 145.38 14.05 146.03 12.72 C 143.55 11.71 141.11 10.60 138.70 9.43 Z" />
</g>
<g id="#6c604cff">
<path fill="#6c604c" opacity="1.00" d=" M 47.09 8.92 C 47.72 9.06 48.96 9.36 49.58 9.50 C 48.89 13.59 48.33 17.70 47.90 21.83 C 47.41 21.46 46.43 20.73 45.94 20.37 L 45.45 19.99 C 45.97 16.30 46.53 12.61 47.09 8.92 Z" />
<path fill="#6c604c" opacity="1.00" d=" M 102.97 8.90 C 103.68 9.06 105.10 9.38 105.81 9.54 C 105.01 13.24 104.17 16.94 103.32 20.63 C 102.88 20.78 102.02 21.07 101.58 21.22 L 101.33 20.39 C 101.72 16.54 102.41 12.73 102.97 8.90 Z" />
<path fill="#6c604c" opacity="1.00" d=" M 214.96 8.90 C 215.67 9.06 217.09 9.38 217.80 9.54 C 217.01 13.26 216.20 16.98 215.38 20.69 C 214.94 20.82 214.04 21.09 213.59 21.23 L 213.34 20.40 C 213.73 16.55 214.41 12.73 214.96 8.90 Z" />
</g>
<g id="#6c5f4bff">
<path fill="#6c5f4b" opacity="1.00" d=" M 159.43 9.13 C 160.01 9.21 161.17 9.38 161.74 9.47 C 161.11 12.91 160.53 16.36 159.95 19.82 C 158.77 18.89 157.67 17.87 156.66 16.76 C 157.61 14.23 158.54 11.68 159.43 9.13 Z" />
</g>
<g id="#565249ff">
<path fill="#565249" opacity="1.00" d=" M 48.91 19.37 C 49.30 16.50 50.53 13.90 52.05 11.50 C 51.25 14.21 50.15 16.83 48.91 19.37 Z" />
<path fill="#565249" opacity="1.00" d=" M 104.91 19.37 C 105.29 16.50 106.54 13.90 108.05 11.50 C 107.25 14.21 106.15 16.83 104.91 19.37 Z" />
<path fill="#565249" opacity="1.00" d=" M 160.91 19.37 C 161.28 16.50 162.54 13.90 164.05 11.50 C 163.25 14.21 162.15 16.83 160.91 19.37 Z" />
<path fill="#565249" opacity="1.00" d=" M 216.91 19.37 C 217.28 16.50 218.54 13.90 220.05 11.50 C 219.25 14.21 218.15 16.83 216.91 19.37 Z" />
<path fill="#565249" opacity="1.00" d=" M 51.16 20.92 C 50.44 19.06 52.42 15.91 53.60 18.92 C 53.39 19.37 52.96 20.26 52.75 20.71 C 52.36 20.76 51.56 20.87 51.16 20.92 Z" />
<path fill="#565249" opacity="1.00" d=" M 107.02 19.65 C 106.86 17.46 110.06 16.57 109.19 19.38 L 108.47 19.91 C 108.11 19.84 107.38 19.71 107.02 19.65 Z" />
<path fill="#565249" opacity="1.00" d=" M 219.12 19.73 C 218.90 17.51 222.08 16.67 221.32 19.46 L 220.59 19.95 C 220.22 19.90 219.49 19.78 219.12 19.73 Z" />
</g>
<g id="#4377c9ff">
<path fill="#4377c9" opacity="1.00" d=" M 111.82 15.47 C 118.67 18.65 125.57 16.25 132.12 13.59 C 129.62 14.88 127.08 16.11 124.56 17.35 C 123.86 19.23 124.38 22.15 122.14 23.06 C 117.33 25.38 112.19 27.40 108.54 31.50 C 105.51 35.27 100.49 35.65 96.11 36.78 C 96.11 35.88 96.09 34.10 96.09 33.20 C 98.64 32.98 101.18 32.76 103.73 32.53 C 103.96 31.36 104.19 30.18 104.42 29.01 C 102.43 27.60 100.38 26.23 98.67 24.47 C 99.53 23.50 100.40 22.53 101.27 21.57 C 102.72 22.37 104.30 23.01 105.98 23.00 C 105.25 24.04 104.54 25.09 103.86 26.16 C 110.62 27.04 116.80 24.14 122.58 21.11 C 119.16 19.46 115.51 18.36 111.79 17.64 C 111.80 17.10 111.81 16.01 111.82 15.47 M 101.15 23.40 C 100.30 27.38 105.14 22.58 101.15 23.40 Z" />
<path fill="#4377c9" opacity="1.00" d=" M 167.43 16.55 C 171.98 17.82 176.75 19.12 181.38 17.50 C 180.66 19.82 180.08 22.18 179.62 24.57 C 177.03 25.80 174.52 27.23 171.80 28.17 C 168.99 28.95 165.99 28.60 163.16 29.32 C 160.90 33.55 161.37 38.80 160.34 43.36 C 158.70 40.13 158.31 35.03 154.01 34.45 C 150.17 34.46 145.46 34.48 143.04 37.92 C 140.79 40.77 138.94 43.92 136.71 46.80 C 137.46 43.98 138.50 41.19 138.61 38.24 C 136.10 34.59 130.45 35.25 126.59 33.70 C 128.77 30.50 129.60 25.88 133.49 24.33 C 137.09 22.60 141.06 23.91 144.66 24.88 C 138.94 25.55 131.81 24.53 128.80 30.65 C 132.70 32.24 136.84 34.94 141.20 32.75 C 144.16 32.37 147.20 30.15 150.14 31.68 C 149.23 31.18 146.94 31.54 147.82 33.00 C 148.89 33.59 149.80 33.33 150.55 32.23 C 153.22 32.52 155.88 32.96 158.57 32.92 C 159.80 30.68 160.72 28.27 161.09 25.74 L 162.16 25.76 C 168.00 26.90 173.99 26.01 178.99 22.71 C 176.75 21.39 174.56 19.71 171.92 19.32 C 169.17 19.59 166.80 21.18 164.34 22.28 C 165.96 21.64 167.40 20.28 167.25 18.41 C 167.29 17.94 167.38 17.02 167.43 16.55 Z" />
</g>
<g id="#709fc2fe">
<path fill="#709fc2" opacity="1.00" d=" M 41.18 14.33 C 43.37 13.87 43.58 16.98 43.87 18.48 L 43.94 18.87 C 42.75 18.01 41.61 17.01 40.92 15.69 C 40.98 15.35 41.11 14.67 41.18 14.33 Z" />
</g>
<g id="#7ca2beff">
<path fill="#7ca2be" opacity="1.00" d=" M 96.40 14.41 C 98.09 14.61 99.35 15.84 100.20 17.24 L 100.35 17.68 C 98.90 17.61 97.50 16.97 96.61 15.80 C 96.56 15.45 96.45 14.76 96.40 14.41 Z" />
<path fill="#7ca2be" opacity="1.00" d=" M 208.40 14.41 C 210.09 14.61 211.35 15.85 212.20 17.24 L 212.35 17.68 C 210.90 17.61 209.49 16.97 208.61 15.80 C 208.56 15.45 208.45 14.76 208.40 14.41 Z" />
</g>
<g id="#7fa1b9ff">
<path fill="#7fa1b9" opacity="1.00" d=" M 154.43 13.67 C 154.74 14.11 155.37 14.98 155.69 15.42 C 155.93 15.75 156.42 16.43 156.66 16.76 C 157.67 17.87 158.77 18.89 159.95 19.82 C 160.52 20.25 161.67 21.11 162.24 21.54 L 162.69 21.89 L 161.55 21.65 C 159.50 21.24 157.46 20.83 155.41 20.42 C 155.23 18.15 154.80 15.91 154.43 13.67 Z" />
</g>
<g id="#4379cbff">
<path fill="#4379cb" opacity="1.00" d=" M 34.70 17.65 C 36.55 18.20 38.41 18.75 40.28 19.27 C 40.19 19.73 40.01 20.64 39.92 21.09 C 31.43 17.80 26.76 26.94 20.26 30.34 C 20.12 31.10 19.84 32.62 19.70 33.38 C 25.04 36.02 31.15 35.00 36.30 32.43 C 31.43 37.65 27.46 43.58 23.90 49.76 C 25.28 50.30 26.66 50.85 28.05 51.35 C 26.31 51.33 24.57 51.30 22.82 51.22 C 22.20 51.14 20.96 50.99 20.34 50.91 C 20.09 45.86 24.60 43.37 28.00 40.64 C 25.14 38.83 22.22 36.80 18.81 36.25 C 14.97 35.95 11.61 38.24 8.35 39.92 C 10.75 42.68 13.24 45.37 15.68 48.10 C 12.79 46.51 10.22 44.42 8.18 41.82 C 6.37 39.11 2.81 39.10 0.00 38.25 L 0.00 37.83 C 6.35 36.83 13.60 37.07 18.82 32.87 C 18.39 31.05 17.61 29.34 16.86 27.63 C 20.37 27.16 23.85 26.45 27.23 25.42 C 27.13 24.59 26.92 22.94 26.82 22.12 C 25.23 21.27 23.64 20.42 22.05 19.57 C 26.30 19.24 30.55 18.66 34.70 17.65 Z" />
</g>
<g id="#298ad7ff">
<path fill="#298ad7" opacity="1.00" d=" M 40.92 15.69 C 41.61 17.01 42.75 18.01 43.94 18.87 C 44.32 19.15 45.07 19.71 45.45 19.99 L 45.94 20.37 C 45.68 20.76 45.16 21.55 44.90 21.94 L 44.51 22.55 C 44.54 21.44 42.83 19.75 42.15 21.34 C 42.20 22.51 42.86 23.11 44.13 23.13 C 43.80 23.66 43.15 24.71 42.82 25.23 C 41.76 23.92 40.83 22.51 39.92 21.09 C 40.01 20.64 40.19 19.73 40.28 19.27 C 40.44 18.38 40.76 16.59 40.92 15.69 Z" />
</g>
<g id="#427acbff">
<path fill="#427acb" opacity="1.00" d=" M 55.87 16.40 C 60.33 17.94 65.05 19.12 69.66 17.49 C 68.73 19.76 68.32 22.29 67.00 24.37 C 63.79 27.23 59.51 28.86 55.21 28.90 C 58.44 26.73 61.95 25.01 65.48 23.38 C 65.54 22.81 65.65 21.65 65.71 21.08 C 62.48 20.17 59.21 19.41 55.90 18.85 C 55.90 18.24 55.88 17.01 55.87 16.40 Z" />
<path fill="#427acb" opacity="1.00" d=" M 0.00 17.41 C 6.40 20.64 13.38 19.35 20.02 17.76 C 17.47 18.96 14.69 19.82 12.46 21.58 C 11.54 23.15 11.79 25.10 11.58 26.85 C 7.71 28.23 3.84 29.62 0.00 31.08 L 0.00 29.15 C 3.87 27.62 7.80 26.17 11.38 23.99 C 7.81 21.83 3.88 20.39 0.00 18.91 L 0.00 17.41 Z" />
</g>
<g id="#3a94d8ff">
<path fill="#3a94d8" opacity="1.00" d=" M 96.61 15.80 C 97.50 16.97 98.90 17.61 100.35 17.68 C 100.68 18.58 101.01 19.49 101.33 20.39 L 101.58 21.22 L 101.27 21.57 C 100.40 22.53 99.53 23.50 98.67 24.47 C 97.72 21.65 97.22 18.70 96.61 15.80 Z" />
<path fill="#3a94d8" opacity="1.00" d=" M 208.61 15.80 C 209.49 16.97 210.90 17.61 212.35 17.68 C 212.68 18.59 213.01 19.49 213.34 20.40 L 213.59 21.23 L 213.28 21.57 C 212.41 22.54 211.54 23.50 210.67 24.48 C 209.72 21.65 209.21 18.70 208.61 15.80 Z" />
</g>
<g id="#4379caff">
<path fill="#4379ca" opacity="1.00" d=" M 78.17 16.95 C 82.39 17.84 86.71 18.02 90.97 17.33 C 88.98 18.97 87.02 20.65 85.08 22.34 C 85.61 23.65 86.15 24.95 86.69 26.26 C 81.68 26.00 76.46 26.88 73.72 31.49 C 77.44 33.05 81.18 34.58 84.93 36.07 C 87.29 33.95 89.64 31.82 92.05 29.76 C 92.70 31.46 93.33 33.16 93.95 34.88 C 86.66 36.69 83.33 43.57 78.93 48.83 C 81.08 49.49 83.24 50.12 85.41 50.69 C 84.96 50.70 84.06 50.74 83.60 50.76 C 82.06 50.66 80.30 50.67 79.12 51.85 C 78.72 51.49 77.92 50.77 77.52 50.41 C 76.84 49.81 76.16 49.20 75.49 48.60 C 79.00 45.43 81.46 41.33 82.94 36.86 C 76.18 34.59 69.33 36.45 63.23 39.48 C 65.24 42.11 67.48 44.56 69.62 47.08 C 65.55 45.24 62.61 41.88 60.18 38.24 C 63.77 37.08 67.43 36.13 70.93 34.70 C 73.77 33.51 73.25 29.79 74.13 27.25 C 77.81 25.97 81.51 24.74 85.17 23.38 C 83.25 20.82 80.81 18.74 78.17 16.95 Z" />
<path fill="#4379ca" opacity="1.00" d=" M 114.60 36.91 C 119.61 37.68 124.48 35.92 129.39 35.14 C 125.40 37.05 121.34 38.82 117.46 40.95 C 117.47 40.55 117.48 39.77 117.49 39.38 C 116.33 39.11 115.18 38.85 114.03 38.58 C 114.23 38.02 114.42 37.47 114.60 36.91 Z" />
</g>
<g id="#4a463eff">
<path fill="#4a463e" opacity="1.00" d=" M 163.11 19.12 C 162.73 17.52 164.61 16.60 165.68 17.83 C 165.03 18.15 163.75 18.80 163.11 19.12 Z" />
</g>
<g id="#4378cafe">
<path fill="#4378ca" opacity="1.00" d=" M 190.17 16.95 C 194.39 17.84 198.71 18.02 202.97 17.33 C 200.98 18.97 199.02 20.65 197.08 22.34 C 197.61 23.65 198.15 24.95 198.69 26.25 C 193.57 25.96 188.24 26.92 185.60 31.76 C 189.24 32.90 192.73 36.16 196.78 35.38 C 199.59 34.11 201.77 31.83 204.15 29.93 C 204.85 31.80 205.54 33.68 206.21 35.57 C 203.85 36.01 201.49 36.44 199.14 36.86 C 197.52 41.55 194.66 45.55 191.63 49.42 C 193.09 49.96 194.59 50.38 196.11 50.74 L 195.28 50.73 C 193.24 50.67 191.20 50.62 189.17 50.60 C 188.71 49.87 188.25 49.15 187.79 48.43 C 191.11 45.23 193.46 41.21 194.95 36.87 C 188.18 34.59 181.34 36.44 175.23 39.48 C 177.24 42.11 179.47 44.56 181.62 47.08 C 177.55 45.24 174.61 41.88 172.18 38.24 C 175.77 37.08 179.43 36.13 182.93 34.70 C 185.77 33.51 185.24 29.79 186.13 27.25 C 189.81 25.97 193.51 24.74 197.17 23.38 C 195.25 20.82 192.81 18.74 190.17 16.95 Z" />
</g>
<g id="#3b6cbfff">
<path fill="#3b6cbf" opacity="1.00" d=" M 111.79 17.64 C 115.51 18.36 119.16 19.46 122.58 21.11 C 116.80 24.14 110.62 27.04 103.86 26.16 C 106.36 25.61 108.85 25.05 111.35 24.47 C 110.32 24.00 109.29 23.54 108.25 23.08 C 109.30 22.64 110.21 22.02 111.00 21.21 C 111.20 20.67 111.60 19.58 111.80 19.04 L 111.79 17.64 Z" />
</g>
<g id="#5688bafe">
<path fill="#5688ba" opacity="1.00" d=" M 165.68 17.83 L 166.04 17.97 C 165.13 19.25 164.51 20.71 163.92 22.16 C 163.61 22.09 162.99 21.95 162.69 21.89 L 162.24 21.54 C 162.46 20.94 162.89 19.73 163.11 19.12 C 163.75 18.80 165.03 18.15 165.68 17.83 Z" />
</g>
<g id="#9cb3c7fe">
<path fill="#9cb3c7" opacity="1.00" d=" M 166.04 17.97 C 166.34 18.08 166.95 18.30 167.25 18.41 C 167.40 20.28 165.96 21.64 164.34 22.28 L 163.92 22.16 C 164.51 20.71 165.13 19.25 166.04 17.97 Z" />
<path fill="#9cb3c7" opacity="1.00" d=" M 109.19 19.38 L 109.93 19.21 C 110.20 19.71 110.73 20.71 111.00 21.21 C 110.21 22.02 109.30 22.64 108.25 23.08 L 107.73 22.88 C 108.07 21.91 108.32 20.92 108.47 19.91 L 109.19 19.38 Z" />
<path fill="#9cb3c7" opacity="1.00" d=" M 221.32 19.46 L 222.11 19.34 C 222.42 19.84 223.04 20.84 223.35 21.34 C 222.39 21.99 221.39 22.56 220.34 23.04 L 219.87 22.84 C 220.22 21.90 220.46 20.94 220.59 19.95 L 221.32 19.46 Z" />
</g>
<g id="#9eb5c9ff">
<path fill="#9eb5c9" opacity="1.00" d=" M 53.60 18.92 C 53.75 19.18 54.04 19.69 54.19 19.95 C 54.39 20.51 54.80 21.64 55.01 22.20 C 54.17 22.56 53.33 22.91 52.49 23.23 L 51.87 23.45 C 52.23 22.56 52.52 21.65 52.75 20.71 C 52.96 20.26 53.39 19.37 53.60 18.92 Z" />
</g>
<g id="#3c6abeff">
<path fill="#3c6abe" opacity="1.00" d=" M 164.34 22.28 C 166.80 21.18 169.17 19.59 171.92 19.32 C 174.56 19.71 176.75 21.39 178.99 22.71 C 173.99 26.01 168.00 26.90 162.16 25.76 C 163.90 24.97 165.60 24.12 167.31 23.27 C 166.32 22.93 165.34 22.60 164.34 22.28 Z" />
<path fill="#3c6abe" opacity="1.00" d=" M 0.00 18.91 C 3.88 20.39 7.81 21.83 11.38 23.99 C 7.80 26.17 3.87 27.62 0.00 29.15 L 0.00 18.91 Z" />
</g>
<g id="#adc2d9ff">
<path fill="#adc2d9" opacity="1.00" d=" M 42.15 21.34 C 42.83 19.75 44.54 21.44 44.51 22.55 L 44.13 23.13 C 42.86 23.11 42.20 22.51 42.15 21.34 Z" />
</g>
<g id="#4f7baeff">
<path fill="#4f7bae" opacity="1.00" d=" M 107.02 19.65 C 107.38 19.71 108.11 19.84 108.47 19.91 C 108.32 20.92 108.07 21.91 107.73 22.88 C 107.40 22.80 106.75 22.63 106.42 22.54 L 106.18 21.92 C 106.39 21.36 106.81 20.22 107.02 19.65 Z" />
<path fill="#4f7bae" opacity="1.00" d=" M 219.12 19.73 C 219.49 19.78 220.22 19.90 220.59 19.95 C 220.46 20.94 220.22 21.90 219.87 22.84 C 219.53 22.82 218.87 22.78 218.54 22.76 L 218.31 22.16 C 218.52 21.55 218.92 20.34 219.12 19.73 Z" />
<path fill="#4f7bae" opacity="1.00" d=" M 51.16 20.92 C 51.56 20.87 52.36 20.76 52.75 20.71 C 52.52 21.65 52.23 22.56 51.87 23.45 C 51.52 23.54 50.82 23.71 50.47 23.80 L 50.03 23.45 C 50.31 22.82 50.88 21.55 51.16 20.92 Z" />
</g>
<g id="#8ea7b9ff">
<path fill="#8ea7b9" opacity="1.00" d=" M 44.90 21.94 C 45.16 21.55 45.68 20.76 45.94 20.37 C 46.43 20.73 47.41 21.46 47.90 21.83 C 48.43 22.23 49.49 23.04 50.03 23.45 L 50.47 23.80 L 49.36 24.00 C 48.84 24.10 47.81 24.30 47.29 24.41 C 46.50 23.58 45.70 22.76 44.90 21.94 Z" />
</g>
<g id="#8ba4b6fe">
<path fill="#8ba4b6" opacity="1.00" d=" M 101.27 21.57 L 101.58 21.22 C 102.02 21.07 102.88 20.78 103.32 20.63 C 104.03 20.95 105.46 21.60 106.18 21.92 L 106.42 22.54 L 105.98 23.00 C 104.30 23.01 102.72 22.37 101.27 21.57 Z" />
<path fill="#8ba4b6" opacity="1.00" d=" M 213.28 21.57 L 213.59 21.23 C 214.04 21.09 214.94 20.82 215.38 20.69 C 216.12 21.06 217.58 21.79 218.31 22.16 L 218.54 22.76 L 217.98 23.10 C 216.30 23.03 214.72 22.41 213.28 21.57 Z" />
</g>
<g id="#4475c9ff">
<path fill="#4475c9" opacity="1.00" d=" M 210.67 24.48 C 211.54 23.50 212.41 22.54 213.28 21.57 C 214.72 22.41 216.30 23.03 217.98 23.10 C 217.31 23.51 215.97 24.34 215.30 24.75 L 214.61 25.10 C 215.15 21.77 210.80 24.31 213.94 25.45 C 216.64 26.78 219.45 27.87 222.26 28.96 C 219.85 32.19 217.40 35.40 214.97 38.62 C 212.78 37.58 210.52 36.58 208.34 35.57 C 208.25 34.99 208.08 33.83 207.99 33.25 C 210.57 33.01 213.15 32.77 215.74 32.52 C 215.96 31.35 216.19 30.18 216.42 29.01 C 214.43 27.60 212.38 26.24 210.67 24.48 Z" />
</g>
<g id="#4577cafe">
<path fill="#4577ca" opacity="1.00" d=" M 44.51 22.55 L 44.90 21.94 C 45.70 22.76 46.50 23.58 47.29 24.41 C 45.95 22.94 43.38 25.70 45.55 26.43 C 47.99 27.88 50.69 28.80 53.49 29.24 C 52.23 32.23 51.22 35.33 50.65 38.52 C 48.35 38.60 46.06 38.71 43.76 38.83 C 45.49 36.62 47.46 34.55 48.71 32.02 C 47.06 29.50 44.71 27.56 42.82 25.23 C 43.15 24.71 43.80 23.66 44.13 23.13 L 44.51 22.55 Z" />
</g>
<g id="#65569cff">
<path fill="#65569c" opacity="1.00" d=" M 157.15 22.40 C 161.14 21.58 156.30 26.38 157.15 22.40 Z" />
<path fill="#65569c" opacity="1.00" d=" M 161.55 21.65 L 162.69 21.89 C 162.99 21.95 163.61 22.09 163.92 22.16 L 164.34 22.28 C 165.34 22.60 166.32 22.93 167.31 23.27 C 165.60 24.12 163.90 24.97 162.16 25.76 L 161.09 25.74 C 161.26 24.38 161.42 23.02 161.55 21.65 Z" />
<path fill="#65569c" opacity="1.00" d=" M 101.15 23.40 C 105.14 22.58 100.30 27.38 101.15 23.40 Z" />
<path fill="#65569c" opacity="1.00" d=" M 105.98 23.00 L 106.42 22.54 C 106.75 22.63 107.40 22.80 107.73 22.88 L 108.25 23.08 C 109.29 23.54 110.32 24.00 111.35 24.47 C 108.85 25.05 106.36 25.61 103.86 26.16 C 104.54 25.09 105.25 24.04 105.98 23.00 Z" />
<path fill="#65569c" opacity="1.00" d=" M 213.94 25.45 C 210.80 24.31 215.15 21.77 214.61 25.10 L 213.94 25.45 Z" />
<path fill="#65569c" opacity="1.00" d=" M 217.98 23.10 L 218.54 22.76 C 218.87 22.78 219.53 22.82 219.87 22.84 L 220.34 23.04 C 221.37 23.64 222.40 24.24 223.42 24.87 C 220.71 24.89 218.00 24.80 215.30 24.75 C 215.97 24.34 217.31 23.51 217.98 23.10 Z" />
<path fill="#65569c" opacity="1.00" d=" M 45.55 26.43 C 43.38 25.70 45.95 22.94 47.29 24.41 C 46.86 24.91 45.99 25.92 45.55 26.43 Z" />
<path fill="#65569c" opacity="1.00" d=" M 49.36 24.00 L 50.47 23.80 C 50.82 23.71 51.52 23.54 51.87 23.45 L 52.49 23.23 C 53.33 24.21 54.17 25.19 55.01 26.17 C 52.70 26.21 50.40 26.27 48.10 26.30 C 48.41 25.72 49.04 24.57 49.36 24.00 Z" />
</g>
<g id="#4474c8ff">
<path fill="#4474c8" opacity="1.00" d=" M 29.19 27.21 C 30.88 26.69 31.79 29.58 29.98 29.96 C 28.28 30.46 27.40 27.63 29.19 27.21 Z" />
</g>
<g id="#608fe4ff">
<path fill="#608fe4" opacity="1.00" d=" M 147.82 33.00 C 146.94 31.54 149.23 31.18 150.14 31.68 L 150.55 32.23 C 149.80 33.33 148.89 33.59 147.82 33.00 Z" />
</g>
<g id="#4c80ccff">
<path fill="#4c80cc" opacity="1.00" d=" M 212.65 42.27 C 213.32 41.90 214.67 41.16 215.34 40.78 C 215.42 43.06 215.40 45.33 215.44 47.61 C 214.45 45.86 213.55 44.07 212.65 42.27 Z" />
</g>
<g id="#4779cfff">
<path fill="#4779cf" opacity="1.00" d=" M 37.48 45.10 C 40.17 44.65 42.87 43.84 45.61 43.97 C 48.08 44.66 50.20 46.18 52.39 47.46 C 49.96 46.97 47.58 46.33 45.20 45.65 C 45.14 46.85 45.09 48.04 45.02 49.24 L 44.58 49.20 C 43.48 48.92 42.40 48.62 41.31 48.32 C 41.73 47.33 42.16 46.33 42.59 45.34 C 40.88 45.28 39.18 45.20 37.48 45.10 Z" />
</g>
<g id="#5083d1ff">
<path fill="#5083d1" opacity="1.00" d=" M 96.65 45.61 C 98.44 45.02 100.23 44.47 102.03 43.93 C 102.00 44.76 101.94 46.41 101.91 47.24 C 100.15 46.70 98.40 46.16 96.65 45.61 Z" />
</g>
<g id="#477ed0ff">
<path fill="#477ed0" opacity="1.00" d=" M 151.47 44.98 C 157.08 44.19 162.77 43.97 168.41 44.64 C 164.04 45.68 159.52 45.82 155.09 45.08 C 155.69 45.89 156.29 46.72 156.89 47.54 C 155.06 46.72 153.25 45.88 151.47 44.98 Z" />
</g>
<g id="#417fcbff">
<path fill="#417fcb" opacity="1.00" d=" M 57.33 47.09 C 59.27 46.39 61.20 45.69 63.13 44.99 C 62.01 46.63 60.89 48.27 59.79 49.93 C 64.64 50.14 69.48 50.32 74.33 50.43 C 69.15 51.37 63.82 51.87 58.61 50.82 C 58.18 49.58 57.76 48.33 57.33 47.09 Z" />
<path fill="#417fcb" opacity="1.00" d=" M 169.37 47.08 C 171.29 46.39 173.21 45.68 175.13 44.99 C 174.01 46.62 172.89 48.25 171.80 49.90 C 176.64 50.16 181.46 50.43 186.31 50.62 C 181.10 51.38 175.83 51.55 170.60 51.05 C 170.19 49.73 169.78 48.41 169.37 47.08 Z" />
</g>
<g id="#4180cbff">
<path fill="#4180cb" opacity="1.00" d=" M 131.66 46.99 C 132.31 46.37 132.96 45.76 133.62 45.15 C 135.29 47.28 136.96 49.56 139.38 50.89 L 139.96 51.16 C 137.76 51.00 135.57 50.85 133.38 50.73 C 132.82 49.47 132.24 48.23 131.66 46.99 Z" />
</g>
<g id="#5790d3ff">
<path fill="#5790d3" opacity="1.00" d=" M 209.53 45.12 C 210.95 42.94 212.70 47.02 210.10 46.41 C 209.96 46.09 209.68 45.44 209.53 45.12 Z" />
</g>
<g id="#4271cdff">
<path fill="#4271cd" opacity="1.00" d=" M 216.49 45.06 C 218.37 45.00 222.12 44.88 224.00 44.82 L 224.00 48.86 C 221.32 47.92 218.17 47.62 216.49 45.06 Z" />
</g>
<g id="#4080cbff">
<path fill="#4080cb" opacity="1.00" d=" M 1.51 50.08 C 3.41 48.50 5.54 47.24 7.67 46.01 C 6.83 47.35 5.98 48.68 5.14 50.02 C 9.54 50.25 13.94 50.49 18.35 50.77 C 12.76 51.45 6.92 52.15 1.51 50.08 Z" />
</g>
<g id="#5676acff">
<path fill="#5676ac" opacity="1.00" d=" M 46.60 49.37 C 49.82 49.57 53.01 50.02 56.20 50.47 C 53.00 50.09 49.81 49.71 46.60 49.37 Z" />
</g>
<g id="#417fcaff">
<path fill="#417fca" opacity="1.00" d=" M 114.01 48.61 C 119.39 49.67 124.87 50.08 130.32 50.64 C 125.10 51.38 119.77 51.78 114.54 50.82 C 114.41 50.27 114.15 49.16 114.01 48.61 Z" />
</g>
<g id="#3c6394ff">
<path fill="#3c6394" opacity="1.00" d=" M 154.36 49.23 C 156.74 48.80 159.16 49.22 161.53 49.53 C 159.79 49.98 156.30 50.88 154.56 51.33 L 153.63 51.42 C 153.81 50.87 154.18 49.78 154.36 49.23 Z" />
</g>
<g id="#2e5ea5ff">
<path fill="#2e5ea5" opacity="1.00" d=" M 162.06 49.12 C 163.20 48.21 164.97 46.84 166.38 48.02 C 166.86 49.45 164.62 49.64 163.70 49.69 C 163.29 49.54 162.47 49.26 162.06 49.12 Z" />
</g>
<g id="#527eaaff">
<path fill="#527eaa" opacity="1.00" d=" M 28.05 51.35 C 32.97 51.03 37.91 50.76 42.80 50.11 L 41.94 50.71 C 37.34 51.29 32.68 51.33 28.05 51.35 Z" />
</g>
<g id="#405e4fff">
<path fill="#405e4f" opacity="1.00" d=" M 44.58 49.20 L 45.02 49.24 C 45.55 49.28 46.08 49.33 46.60 49.37 C 49.81 49.71 53.00 50.09 56.20 50.47 C 57.00 50.58 57.81 50.70 58.61 50.82 C 63.82 51.87 69.15 51.37 74.33 50.43 C 75.13 50.42 76.72 50.42 77.52 50.41 C 77.92 50.77 78.72 51.49 79.12 51.85 L 79.49 52.21 C 77.26 52.08 75.02 52.19 72.80 52.39 C 70.73 52.54 68.67 52.80 66.61 53.02 C 61.00 52.91 55.40 52.72 49.79 52.77 C 49.30 52.69 48.32 52.54 47.83 52.47 C 47.26 52.39 46.13 52.25 45.57 52.17 C 44.09 51.97 42.63 51.75 41.16 51.52 L 41.94 50.71 L 42.80 50.11 C 43.24 49.88 44.13 49.43 44.58 49.20 Z" />
</g>
<g id="#5278a4ff">
<path fill="#5278a4" opacity="1.00" d=" M 85.41 50.69 C 89.65 50.57 93.87 50.08 98.08 49.60 C 97.97 50.04 97.76 50.93 97.65 51.37 C 95.22 51.75 92.79 52.16 90.35 52.51 L 89.48 52.61 C 88.07 52.21 86.61 51.97 85.15 51.96 C 84.76 51.66 83.99 51.06 83.60 50.76 C 84.06 50.74 84.96 50.70 85.41 50.69 Z" />
</g>
<g id="#305f7aff">
<path fill="#305f7a" opacity="1.00" d=" M 98.08 49.60 C 98.48 49.56 99.29 49.49 99.69 49.46 L 100.21 49.54 C 99.93 50.04 99.38 51.02 99.11 51.52 L 98.34 51.75 L 97.65 51.37 C 97.76 50.93 97.97 50.04 98.08 49.60 Z" />
</g>
<g id="#4971abff">
<path fill="#4971ab" opacity="1.00" d=" M 99.69 49.46 C 103.86 49.47 108.00 49.97 112.12 50.52 C 108.14 50.28 104.16 50.12 100.21 49.54 L 99.69 49.46 Z" />
</g>
<g id="#5a7bacff">
<path fill="#5a7bac" opacity="1.00" d=" M 139.38 50.89 C 144.42 50.98 149.40 50.05 154.36 49.23 C 154.18 49.78 153.81 50.87 153.63 51.42 C 149.07 51.41 144.51 51.42 139.96 51.16 L 139.38 50.89 Z" />
</g>
<g id="#486f99ff">
<path fill="#486f99" opacity="1.00" d=" M 196.11 50.74 C 205.40 50.39 214.68 49.45 224.00 49.80 L 224.00 50.60 C 219.55 50.79 215.09 50.97 210.67 51.51 C 210.27 51.58 209.46 51.73 209.05 51.80 C 208.73 51.84 208.09 51.93 207.77 51.98 C 207.32 52.08 206.41 52.30 205.95 52.40 C 205.32 52.34 204.05 52.20 203.42 52.14 L 202.43 52.00 C 200.64 51.68 197.07 51.05 195.28 50.73 L 196.11 50.74 Z" />
</g>
<g id="#4b6446ff">
<path fill="#4b6446" opacity="1.00" d=" M 0.00 51.42 C 0.49 50.96 1.00 50.52 1.51 50.08 C 6.92 52.15 12.76 51.45 18.35 50.77 C 18.85 50.80 19.84 50.87 20.34 50.91 C 20.96 50.99 22.20 51.14 22.82 51.22 L 23.65 51.35 C 23.41 51.81 22.93 52.74 22.69 53.20 C 22.18 52.87 21.16 52.19 20.65 51.85 C 19.47 50.70 17.82 51.57 16.72 52.35 C 14.70 52.69 12.68 53.03 10.65 53.37 C 7.09 53.04 3.55 52.46 0.00 52.00 L 0.00 51.42 Z" />
</g>
<g id="#385848ff">
<path fill="#385848" opacity="1.00" d=" M 99.11 51.52 C 99.38 51.02 99.93 50.04 100.21 49.54 C 104.16 50.12 108.14 50.28 112.12 50.52 C 112.93 50.61 113.74 50.71 114.54 50.82 C 119.77 51.78 125.10 51.38 130.32 50.64 C 131.08 50.66 132.61 50.70 133.38 50.73 C 135.57 50.85 137.76 51.00 139.96 51.16 C 144.51 51.42 149.07 51.41 153.63 51.42 C 152.93 52.09 152.21 52.75 151.49 53.40 C 145.64 53.04 139.80 52.57 133.94 52.53 C 133.62 52.35 132.99 51.97 132.67 51.79 C 131.43 50.71 129.81 51.58 128.72 52.40 C 126.70 52.68 124.68 52.96 122.66 53.25 C 119.10 53.03 115.56 52.50 111.99 52.46 C 110.45 52.48 107.37 52.52 105.83 52.55 C 104.46 52.36 103.09 52.16 101.73 51.94 C 101.08 51.83 99.77 51.62 99.11 51.52 Z" />
</g>
<g id="#3e5a47ff">
<path fill="#3e5a47" opacity="1.00" d=" M 154.56 51.33 C 156.30 50.88 159.79 49.98 161.53 49.53 C 161.60 51.20 163.52 51.30 164.75 51.02 C 166.70 51.00 168.65 50.98 170.60 51.05 C 175.83 51.55 181.10 51.38 186.31 50.62 C 187.02 50.61 188.45 50.60 189.17 50.60 C 191.20 50.62 193.24 50.67 195.28 50.73 C 197.07 51.05 200.64 51.68 202.43 52.00 C 202.00 52.23 201.13 52.71 200.69 52.94 C 197.07 52.74 193.46 52.66 189.86 52.20 C 189.55 52.12 188.94 51.95 188.63 51.87 C 187.30 51.17 185.80 51.55 184.64 52.39 C 182.58 52.75 180.52 53.10 178.47 53.46 C 177.46 53.27 176.46 53.02 175.43 52.97 C 168.47 52.43 161.50 52.05 154.56 51.33 Z" />
</g>
<g id="#648aadff">
<path fill="#648aad" opacity="1.00" d=" M 161.53 49.53 L 162.06 49.12 C 162.47 49.26 163.29 49.54 163.70 49.69 C 163.96 50.02 164.49 50.69 164.75 51.02 C 163.52 51.30 161.60 51.20 161.53 49.53 Z" />
</g>
<g id="#355753ff">
<path fill="#355753" opacity="1.00" d=" M 210.67 51.51 C 215.09 50.97 219.55 50.79 224.00 50.60 L 224.00 52.37 C 220.12 52.37 216.23 52.49 212.39 51.91 C 211.96 51.81 211.10 51.61 210.67 51.51 Z" />
</g>
<g id="#93bd6bff">
<path fill="#93bd6b" opacity="1.00" d=" M 16.72 52.35 C 17.82 51.57 19.47 50.70 20.65 51.85 C 19.86 53.34 17.96 52.94 16.72 52.35 Z" />
<path fill="#93bd6b" opacity="1.00" d=" M 128.72 52.40 C 129.81 51.58 131.43 50.71 132.67 51.79 C 131.90 53.29 129.98 52.96 128.72 52.40 Z" />
<path fill="#93bd6b" opacity="1.00" d=" M 184.64 52.39 C 185.80 51.55 187.30 51.17 188.63 51.87 C 187.89 53.49 185.87 53.15 184.64 52.39 Z" />
</g>
<g id="#204337ff">
<path fill="#204337" opacity="1.00" d=" M 22.82 51.22 C 24.57 51.30 26.31 51.33 28.05 51.35 C 32.68 51.33 37.34 51.29 41.94 50.71 L 41.16 51.52 C 40.53 52.19 39.89 52.86 39.25 53.52 C 34.04 52.84 28.82 52.24 23.65 51.35 L 22.82 51.22 Z" />
</g>
<g id="#79a658ff">
<path fill="#79a658" opacity="1.00" d=" M 72.80 52.39 C 75.02 52.19 77.26 52.08 79.49 52.21 C 80.68 52.42 81.85 52.34 82.98 51.96 C 83.31 52.21 83.96 52.69 84.28 52.94 C 85.88 53.69 87.63 54.02 89.37 54.20 C 89.98 54.09 91.21 53.87 91.83 53.76 C 92.57 56.54 96.43 54.54 93.73 52.79 C 95.27 52.48 96.81 52.12 98.34 51.75 C 97.54 54.63 101.44 54.34 101.73 51.94 C 103.09 52.16 104.46 52.36 105.83 52.55 C 108.25 53.14 110.63 53.92 112.99 54.72 C 112.66 53.96 112.32 53.21 111.99 52.46 C 115.56 52.50 119.10 53.03 122.66 53.25 C 121.32 54.16 119.98 55.08 118.65 56.00 L 66.02 56.00 C 69.48 55.12 72.88 54.03 76.31 53.04 C 75.15 52.81 73.98 52.58 72.80 52.39 Z" />
</g>
<g id="#446460ff">
<path fill="#446460" opacity="1.00" d=" M 83.60 50.76 C 83.99 51.06 84.76 51.66 85.15 51.96 L 85.09 52.67 L 84.28 52.94 C 83.96 52.69 83.31 52.21 82.98 51.96 C 83.14 51.66 83.45 51.06 83.60 50.76 Z" />
</g>
<g id="#194338ff">
<path fill="#194338" opacity="1.00" d=" M 90.35 52.51 C 92.79 52.16 95.22 51.75 97.65 51.37 L 98.34 51.75 C 96.81 52.12 95.27 52.48 93.73 52.79 C 93.29 52.87 92.41 53.03 91.97 53.11 C 91.56 52.96 90.75 52.66 90.35 52.51 Z" />
</g>
<g id="#729b57ff">
<path fill="#729b57" opacity="1.00" d=" M 153.63 51.42 L 154.56 51.33 C 161.50 52.05 168.47 52.43 175.43 52.97 C 174.93 53.91 174.59 54.94 174.39 56.00 L 161.19 56.00 C 160.63 55.26 159.51 53.77 158.95 53.03 C 157.55 54.02 156.18 55.04 154.76 56.00 L 148.36 56.00 C 149.43 55.17 150.47 54.29 151.49 53.40 C 152.21 52.75 152.93 52.09 153.63 51.42 Z" />
</g>
<g id="#567b4eff">
<path fill="#567b4e" opacity="1.00" d=" M 209.05 51.80 C 209.46 51.73 210.27 51.58 210.67 51.51 C 211.10 51.61 211.96 51.81 212.39 51.91 C 212.17 54.08 209.62 53.35 209.05 51.80 Z" />
</g>
<g id="#77a35dff">
<path fill="#77a35d" opacity="1.00" d=" M 0.00 52.00 C 3.55 52.46 7.09 53.04 10.65 53.37 C 9.33 54.24 8.01 55.12 6.70 56.00 L 0.00 56.00 L 0.00 52.00 Z" />
</g>
<g id="#6a9a60ff">
<path fill="#6a9a60" opacity="1.00" d=" M 10.65 53.37 C 12.68 53.03 14.70 52.69 16.72 52.35 C 17.96 52.94 19.86 53.34 20.65 51.85 C 21.16 52.19 22.18 52.87 22.69 53.20 C 22.45 53.90 21.96 55.30 21.72 56.00 L 21.38 56.00 C 20.16 55.83 17.72 55.48 16.50 55.31 C 15.84 55.48 14.50 55.83 13.84 56.00 L 6.70 56.00 C 8.01 55.12 9.33 54.24 10.65 53.37 Z" />
<path fill="#6a9a60" opacity="1.00" d=" M 122.66 53.25 C 124.68 52.96 126.70 52.68 128.72 52.40 C 129.98 52.96 131.90 53.29 132.67 51.79 C 132.99 51.97 133.62 52.35 133.94 52.53 C 134.07 53.40 134.32 55.13 134.44 56.00 L 133.63 56.00 C 132.35 55.82 129.79 55.46 128.50 55.28 C 127.84 55.46 126.50 55.82 125.83 56.00 L 118.65 56.00 C 119.98 55.08 121.32 54.16 122.66 53.25 Z" />
</g>
<g id="#78a661ff">
<path fill="#78a661" opacity="1.00" d=" M 23.65 51.35 C 28.82 52.24 34.04 52.84 39.25 53.52 C 38.39 54.38 37.50 55.20 36.59 56.00 L 21.72 56.00 C 21.96 55.30 22.45 53.90 22.69 53.20 C 22.93 52.74 23.41 51.81 23.65 51.35 Z" />
</g>
<g id="#6b9f45ff">
<path fill="#6b9f45" opacity="1.00" d=" M 39.25 53.52 C 39.89 52.86 40.53 52.19 41.16 51.52 C 42.63 51.75 44.09 51.97 45.57 52.17 C 44.84 53.46 44.12 54.74 43.35 56.00 L 36.59 56.00 C 37.50 55.20 38.39 54.38 39.25 53.52 Z" />
</g>
<g id="#81ac5cff">
<path fill="#81ac5c" opacity="1.00" d=" M 45.57 52.17 C 46.13 52.25 47.26 52.39 47.83 52.47 C 47.93 53.67 48.18 54.87 48.64 56.00 L 43.35 56.00 C 44.12 54.74 44.84 53.46 45.57 52.17 Z" />
</g>
<g id="#669043ff">
<path fill="#669043" opacity="1.00" d=" M 47.83 52.47 C 48.32 52.54 49.30 52.69 49.79 52.77 C 49.79 53.58 49.78 55.19 49.78 56.00 L 48.64 56.00 C 48.18 54.87 47.93 53.67 47.83 52.47 Z" />
</g>
<g id="#77a15fff">
<path fill="#77a15f" opacity="1.00" d=" M 49.79 52.77 C 55.40 52.72 61.00 52.91 66.61 53.02 C 65.31 54.01 64.01 55.00 62.71 56.00 L 49.78 56.00 C 49.78 55.19 49.79 53.58 49.79 52.77 Z" />
</g>
<g id="#659766ff">
<path fill="#659766" opacity="1.00" d=" M 66.61 53.02 C 68.67 52.80 70.73 52.54 72.80 52.39 C 73.98 52.58 75.15 52.81 76.31 53.04 C 72.88 54.03 69.48 55.12 66.02 56.00 L 62.71 56.00 C 64.01 55.00 65.31 54.01 66.61 53.02 Z" />
</g>
<g id="#1c3d42ff">
<path fill="#1c3d42" opacity="1.00" d=" M 85.15 51.96 C 86.61 51.97 88.07 52.21 89.48 52.61 C 89.31 52.93 88.99 53.55 88.83 53.86 C 87.54 53.60 86.29 53.21 85.09 52.67 L 85.15 51.96 Z" />
</g>
<g id="#497060ff">
<path fill="#497060" opacity="1.00" d=" M 89.48 52.61 L 90.35 52.51 C 90.75 52.66 91.56 52.96 91.97 53.11 L 91.83 53.76 C 91.21 53.87 89.98 54.09 89.37 54.20 L 88.83 53.86 C 88.99 53.55 89.31 52.93 89.48 52.61 Z" />
</g>
<g id="#5c8d48ff">
<path fill="#5c8d48" opacity="1.00" d=" M 98.34 51.75 L 99.11 51.52 C 99.77 51.62 101.08 51.83 101.73 51.94 C 101.44 54.34 97.54 54.63 98.34 51.75 Z" />
</g>
<g id="#67976dff">
<path fill="#67976d" opacity="1.00" d=" M 105.83 52.55 C 107.37 52.52 110.45 52.48 111.99 52.46 C 112.32 53.21 112.66 53.96 112.99 54.72 C 110.63 53.92 108.25 53.14 105.83 52.55 Z" />
</g>
<g id="#7aa564ff">
<path fill="#7aa564" opacity="1.00" d=" M 133.94 52.53 C 139.80 52.57 145.64 53.04 151.49 53.40 C 150.47 54.29 149.43 55.17 148.36 56.00 L 134.44 56.00 C 134.32 55.13 134.07 53.40 133.94 52.53 Z" />
</g>
<g id="#8bb561fe">
<path fill="#8bb561" opacity="1.00" d=" M 175.43 52.97 C 176.46 53.02 177.46 53.27 178.47 53.46 C 177.58 54.35 176.65 55.19 175.69 56.00 L 174.39 56.00 C 174.59 54.94 174.93 53.91 175.43 52.97 Z" />
</g>
<g id="#699960ff">
<path fill="#699960" opacity="1.00" d=" M 178.47 53.46 C 180.52 53.10 182.58 52.75 184.64 52.39 C 185.87 53.15 187.89 53.49 188.63 51.87 C 188.94 51.95 189.55 52.12 189.86 52.20 C 190.12 53.15 190.63 55.05 190.88 56.00 L 189.76 56.00 C 188.44 55.82 185.80 55.47 184.48 55.29 C 183.83 55.47 182.52 55.82 181.86 56.00 L 175.69 56.00 C 176.65 55.19 177.58 54.35 178.47 53.46 Z" />
</g>
<g id="#7ba45efe">
<path fill="#7ba45e" opacity="1.00" d=" M 189.86 52.20 C 193.46 52.66 197.07 52.74 200.69 52.94 C 201.66 53.69 202.89 54.08 204.09 53.64 C 204.53 53.53 205.41 53.31 205.85 53.19 C 206.80 54.23 209.07 53.38 207.77 51.98 C 208.09 51.93 208.73 51.84 209.05 51.80 C 209.62 53.35 212.17 54.08 212.39 51.91 C 216.23 52.49 220.12 52.37 224.00 52.37 L 224.00 56.00 L 190.88 56.00 C 190.63 55.05 190.12 53.15 189.86 52.20 Z" />
</g>
<g id="#49744bff">
<path fill="#49744b" opacity="1.00" d=" M 202.43 52.00 L 203.42 52.14 C 203.58 52.51 203.92 53.26 204.09 53.64 C 202.89 54.08 201.66 53.69 200.69 52.94 C 201.13 52.71 202.00 52.23 202.43 52.00 Z" />
</g>
<g id="#073126ff">
<path fill="#073126" opacity="1.00" d=" M 203.42 52.14 C 204.05 52.20 205.32 52.34 205.95 52.40 L 205.85 53.19 C 205.41 53.31 204.53 53.53 204.09 53.64 C 203.92 53.26 203.58 52.51 203.42 52.14 Z" />
</g>
<g id="#355e47ff">
<path fill="#355e47" opacity="1.00" d=" M 205.95 52.40 C 206.41 52.30 207.32 52.08 207.77 51.98 C 209.07 53.38 206.80 54.23 205.85 53.19 L 205.95 52.40 Z" />
</g>
<g id="#8bb183ff">
<path fill="#8bb183" opacity="1.00" d=" M 84.28 52.94 L 85.09 52.67 C 86.29 53.21 87.54 53.60 88.83 53.86 L 89.37 54.20 C 87.63 54.02 85.88 53.69 84.28 52.94 Z" />
</g>
<g id="#88b379ff">
<path fill="#88b379" opacity="1.00" d=" M 91.97 53.11 C 92.41 53.03 93.29 52.87 93.73 52.79 C 96.43 54.54 92.57 56.54 91.83 53.76 L 91.97 53.11 Z" />
</g>
<g id="#89b252ff">
<path fill="#89b252" opacity="1.00" d=" M 154.76 56.00 C 156.18 55.04 157.55 54.02 158.95 53.03 C 159.51 53.77 160.63 55.26 161.19 56.00 L 154.76 56.00 Z" />
</g>
<g id="#83ae61ff">
<path fill="#83ae61" opacity="1.00" d=" M 13.84 56.00 C 14.50 55.83 15.84 55.48 16.50 55.31 C 17.72 55.48 20.16 55.83 21.38 56.00 L 13.84 56.00 Z" />
<path fill="#83ae61" opacity="1.00" d=" M 125.83 56.00 C 126.50 55.82 127.84 55.46 128.50 55.28 C 129.79 55.46 132.35 55.82 133.63 56.00 L 125.83 56.00 Z" />
<path fill="#83ae61" opacity="1.00" d=" M 181.86 56.00 C 182.52 55.82 183.83 55.47 184.48 55.29 C 185.80 55.47 188.44 55.82 189.76 56.00 L 181.86 56.00 Z" />
</g>
</svg>
