<?xml version="1.0" encoding="UTF-8" ?>
<!DOCTYPE svg PUBLIC "-//W3C//DTD SVG 1.1//EN" "http://www.w3.org/Graphics/SVG/1.1/DTD/svg11.dtd">
<svg width="224pt" height="56pt" viewBox="0 0 224 56" version="1.1" xmlns="http://www.w3.org/2000/svg">
<g id="#81ab59fe">
<path fill="#81ab59" opacity="1.00" d=" M 0.00 0.00 L 10.32 0.00 C 10.22 0.45 10.02 1.36 9.92 1.81 C 6.38 2.73 3.30 4.76 1.67 8.11 C 1.43 8.08 0.95 8.03 0.71 8.00 C 2.20 6.95 1.28 5.02 0.00 4.31 L 0.00 0.00 Z" />
</g>
<g id="#342f2aff">
<path fill="#342f2a" opacity="1.00" d=" M 10.32 0.00 L 13.04 0.00 C 13.03 0.56 13.01 1.69 13.00 2.25 C 12.39 5.75 11.34 9.23 11.66 12.82 C 12.34 10.51 12.99 8.18 13.35 5.79 C 14.18 10.15 13.18 14.43 12.07 18.60 L 11.96 19.00 C 11.61 19.26 10.92 19.78 10.57 20.04 C 10.25 16.33 9.71 12.64 9.03 8.97 C 8.33 9.10 6.94 9.34 6.25 9.47 C 6.88 13.61 7.52 17.74 8.08 21.89 C 7.58 22.28 6.58 23.05 6.08 23.43 C 5.66 22.84 4.83 21.66 4.42 21.07 C 6.11 19.41 3.95 16.30 2.45 18.91 C 2.09 19.26 1.38 19.97 1.03 20.32 C 0.77 20.58 0.26 21.11 0.00 21.38 L 0.00 7.89 L 0.71 8.00 C 0.95 8.03 1.43 8.08 1.67 8.11 C 4.05 8.20 6.74 8.51 8.83 7.10 C 9.44 5.40 9.58 3.58 9.92 1.81 C 10.02 1.36 10.22 0.45 10.32 0.00 M 3.90 11.51 C 4.75 14.21 5.79 16.86 7.11 19.37 C 6.86 16.43 5.53 13.85 3.90 11.51 Z" />
<path fill="#342f2a" opacity="1.00" d=" M 67.09 0.00 L 69.04 0.00 C 69.02 0.56 68.99 1.68 68.97 2.24 C 68.38 5.74 67.36 9.23 67.65 12.82 C 68.34 10.50 69.00 8.17 69.38 5.79 C 70.41 9.73 69.38 13.57 67.96 17.20 L 67.82 17.58 C 67.43 18.58 67.02 19.58 66.62 20.57 C 66.52 16.65 65.78 12.79 65.02 8.96 C 64.29 9.10 62.82 9.38 62.08 9.53 C 62.84 13.30 63.55 17.08 64.50 20.81 C 63.80 21.10 62.40 21.68 61.70 21.97 C 61.51 21.38 61.14 20.21 60.95 19.62 C 61.16 17.32 57.88 16.66 58.81 19.45 L 58.08 19.54 C 56.61 19.63 55.31 20.44 54.22 21.37 C 54.03 21.07 53.64 20.45 53.45 20.14 C 52.39 17.06 49.76 20.25 51.50 22.03 C 51.08 22.62 50.26 23.80 49.84 24.39 C 49.35 24.01 48.36 23.27 47.87 22.90 C 48.31 18.73 48.89 14.58 49.59 10.45 C 48.95 10.33 47.69 10.07 47.05 9.95 C 46.57 13.67 46.07 17.40 45.56 21.13 C 45.17 20.81 44.40 20.17 44.01 19.85 L 43.92 19.48 C 42.98 15.36 42.07 11.17 42.35 6.91 C 42.98 9.34 43.78 11.72 44.87 13.98 C 44.67 10.26 44.19 6.56 43.31 2.94 C 43.23 2.52 43.08 1.67 43.00 1.25 C 43.74 1.15 45.20 0.96 45.93 0.87 C 45.99 1.34 46.10 2.30 46.16 2.78 C 46.40 4.57 46.48 6.40 47.08 8.12 C 49.21 9.52 51.89 9.17 54.29 9.00 C 54.43 8.99 54.71 8.96 54.85 8.94 C 55.37 8.88 56.42 8.74 56.95 8.68 C 57.13 8.65 57.49 8.61 57.67 8.59 C 60.27 8.24 63.05 8.16 65.34 6.72 C 65.54 4.95 65.40 3.17 65.34 1.40 C 65.78 1.05 66.65 0.35 67.09 0.00 M 59.90 11.51 C 60.75 14.21 61.79 16.86 63.11 19.37 C 62.85 16.43 61.53 13.85 59.90 11.51 M 48.89 20.37 C 50.20 17.86 51.25 15.21 52.10 12.51 C 50.47 14.85 49.14 17.43 48.89 20.37 Z" />
<path fill="#342f2a" opacity="1.00" d=" M 123.09 0.00 L 124.98 0.00 C 124.93 0.56 124.85 1.68 124.81 2.24 C 124.31 5.75 123.40 9.23 123.64 12.80 C 124.35 10.48 125.03 8.15 125.46 5.77 C 125.68 7.02 126.13 9.54 126.35 10.79 C 125.77 12.37 125.07 13.91 124.33 15.42 C 124.08 15.75 123.59 16.42 123.34 16.75 C 122.39 14.22 121.47 11.67 120.58 9.12 C 119.98 9.21 118.79 9.40 118.19 9.49 C 118.78 12.94 119.45 16.37 120.03 19.82 C 119.49 20.22 118.41 21.03 117.87 21.43 C 117.65 20.86 117.21 19.71 116.99 19.13 C 117.29 17.50 115.30 16.69 114.40 18.10 L 114.05 18.28 C 113.61 18.51 112.73 18.95 112.29 19.17 C 111.72 19.45 110.59 20.01 110.03 20.29 L 109.24 20.53 C 110.09 17.75 106.96 18.49 107.04 20.70 C 106.81 21.26 106.36 22.39 106.14 22.95 C 105.39 22.62 103.91 21.96 103.17 21.62 C 104.10 17.93 105.00 14.22 105.84 10.51 C 105.14 10.36 103.74 10.08 103.04 9.94 C 102.48 13.77 101.90 17.60 101.37 21.44 C 101.05 20.51 100.72 19.58 100.38 18.66 L 100.23 18.23 C 98.81 14.63 97.86 10.81 98.32 6.90 C 98.97 9.32 99.80 11.70 100.86 13.98 C 100.65 10.25 100.16 6.55 99.32 2.92 C 99.26 2.53 99.15 1.74 99.09 1.35 C 99.80 1.24 101.23 1.02 101.94 0.92 C 101.99 1.38 102.10 2.31 102.16 2.77 C 102.40 4.56 102.49 6.40 103.07 8.13 C 105.22 9.51 107.89 9.17 110.30 9.00 C 110.43 8.99 110.70 8.96 110.84 8.94 C 111.36 8.88 112.42 8.74 112.95 8.68 C 113.13 8.66 113.49 8.61 113.67 8.59 C 116.27 8.23 119.06 8.17 121.34 6.72 C 121.54 4.95 121.40 3.17 121.35 1.39 C 121.78 1.05 122.65 0.35 123.09 0.00 M 115.90 11.51 C 116.75 14.21 117.79 16.86 119.11 19.37 C 118.84 16.43 117.54 13.85 115.90 11.51 M 104.89 20.37 C 106.20 17.86 107.25 15.21 108.10 12.51 C 106.48 14.85 105.13 17.43 104.89 20.37 Z" />
<path fill="#342f2a" opacity="1.00" d=" M 179.09 0.00 L 181.04 0.00 C 181.02 0.56 180.99 1.68 180.97 2.24 C 180.37 5.75 179.36 9.23 179.65 12.82 C 180.34 10.50 181.00 8.17 181.38 5.79 C 182.41 9.73 181.38 13.58 179.95 17.21 L 179.81 17.59 C 179.42 18.58 179.02 19.57 178.62 20.56 C 178.52 16.64 177.77 12.79 177.02 8.96 C 176.29 9.10 174.81 9.38 174.08 9.53 C 174.84 13.28 175.55 17.06 176.51 20.77 C 175.84 21.05 174.49 21.60 173.81 21.88 C 173.57 21.32 173.07 20.19 172.83 19.63 C 172.83 17.45 169.71 16.86 170.54 19.54 L 169.64 19.48 C 169.16 19.43 168.19 19.33 167.71 19.28 C 167.35 19.24 166.63 19.15 166.27 19.11 L 165.80 19.02 C 164.83 17.70 162.90 18.49 163.11 20.11 C 162.88 20.68 162.43 21.84 162.21 22.41 C 161.64 22.01 160.52 21.22 159.95 20.82 C 160.51 17.35 161.12 13.90 161.74 10.44 C 161.17 10.37 160.02 10.22 159.45 10.15 C 158.53 12.72 157.57 15.28 156.57 17.82 C 156.31 17.47 155.79 16.77 155.53 16.41 C 154.24 13.43 153.99 10.12 154.31 6.90 C 154.98 9.32 155.77 11.71 156.88 13.97 C 156.64 10.25 156.16 6.55 155.34 2.92 C 155.28 2.50 155.16 1.66 155.10 1.25 C 155.81 1.16 157.23 0.99 157.94 0.90 C 157.99 1.37 158.10 2.31 158.16 2.77 C 158.39 4.57 158.51 6.40 159.07 8.13 C 161.22 9.50 163.89 9.17 166.30 9.00 C 166.43 8.99 166.70 8.96 166.83 8.94 C 167.36 8.88 168.41 8.74 168.94 8.68 C 169.12 8.66 169.49 8.61 169.68 8.59 C 172.27 8.24 175.06 8.16 177.34 6.72 C 177.54 4.96 177.39 3.17 177.34 1.40 C 177.78 1.05 178.65 0.35 179.09 0.00 M 171.90 11.51 C 172.75 14.21 173.79 16.86 175.11 19.37 C 174.83 16.43 173.54 13.85 171.90 11.51 M 160.89 20.37 C 162.20 17.86 163.25 15.21 164.10 12.51 C 162.48 14.85 161.12 17.43 160.89 20.37 Z" />
<path fill="#342f2a" opacity="1.00" d=" M 211.06 1.17 C 211.85 1.12 213.43 1.00 214.22 0.94 C 214.24 1.39 214.28 2.31 214.30 2.76 C 214.35 4.65 214.36 6.54 214.35 8.43 C 217.00 8.80 219.66 9.10 222.35 9.03 C 222.58 9.02 223.05 9.00 223.28 8.99 L 224.00 8.93 L 224.00 20.30 C 223.53 20.31 222.58 20.32 222.10 20.33 L 221.31 20.45 C 222.05 17.64 218.89 18.52 219.11 20.74 C 218.91 21.35 218.50 22.58 218.29 23.19 C 217.53 22.81 216.00 22.06 215.24 21.69 C 216.13 17.97 217.00 14.24 217.82 10.50 C 217.12 10.36 215.73 10.08 215.03 9.94 C 214.48 13.77 213.92 17.60 213.41 21.44 C 213.07 20.51 212.73 19.58 212.38 18.66 L 212.22 18.24 C 210.78 14.62 209.37 10.83 210.49 6.85 C 211.03 9.32 211.73 11.76 212.87 14.04 C 212.66 10.30 212.19 6.58 211.25 2.96 C 211.20 2.52 211.11 1.62 211.06 1.17 M 216.89 20.37 C 218.20 17.86 219.25 15.21 220.10 12.51 C 218.48 14.85 217.12 17.43 216.89 20.37 Z" />
</g>
<g id="#268dd9ff">
<path fill="#268dd9" opacity="1.00" d=" M 13.04 0.00 L 16.13 0.00 L 15.32 0.83 C 13.46 1.85 13.91 4.56 16.16 4.53 C 16.66 8.15 17.15 11.76 17.65 15.37 C 16.86 14.95 16.07 14.54 15.28 14.13 C 15.24 14.16 15.15 14.21 15.11 14.23 C 13.31 14.98 12.34 16.75 12.07 18.60 C 13.18 14.43 14.18 10.15 13.35 5.79 C 13.25 4.61 13.13 3.43 13.00 2.25 C 13.01 1.69 13.03 0.56 13.04 0.00 Z" />
<path fill="#268dd9" opacity="1.00" d=" M 69.04 0.00 L 70.23 0.00 C 70.47 0.36 70.93 1.08 71.16 1.43 C 70.27 2.60 70.23 5.11 72.25 4.89 C 72.01 8.10 71.73 11.32 71.53 14.54 C 70.13 15.11 68.93 16.06 67.96 17.20 C 69.38 13.57 70.41 9.73 69.38 5.79 C 69.26 4.60 69.13 3.42 68.97 2.24 C 68.99 1.68 69.02 0.56 69.04 0.00 Z" />
<path fill="#268dd9" opacity="1.00" d=" M 181.04 0.00 L 182.24 0.00 C 182.47 0.36 182.94 1.08 183.17 1.44 C 182.28 2.59 182.25 5.11 184.26 4.89 C 184.02 8.09 183.70 11.29 183.48 14.50 C 182.09 15.09 180.91 16.05 179.95 17.21 C 181.38 13.58 182.41 9.73 181.38 5.79 C 181.26 4.60 181.13 3.42 180.97 2.24 C 180.99 1.68 181.02 0.56 181.04 0.00 Z" />
</g>
<g id="#3c6bbeff">
<path fill="#3c6bbe" opacity="1.00" d=" M 16.13 0.00 L 25.60 0.00 C 26.63 1.15 27.60 2.34 28.57 3.54 C 24.43 4.56 19.95 4.62 16.06 2.67 C 15.87 2.21 15.51 1.29 15.32 0.83 L 16.13 0.00 Z" />
<path fill="#3c6bbe" opacity="1.00" d=" M 70.23 0.00 L 85.49 0.00 C 81.92 3.22 77.20 3.51 72.66 3.45 C 75.61 4.27 78.84 6.51 81.92 4.93 C 86.06 3.16 90.57 2.60 95.01 2.07 C 94.72 1.38 94.43 0.69 94.14 0.00 L 112.54 0.00 C 109.00 0.23 105.46 0.50 101.94 0.92 C 101.23 1.02 99.80 1.24 99.09 1.35 C 98.33 1.75 97.60 2.17 96.88 2.62 C 95.82 3.30 95.41 4.30 95.65 5.60 C 95.85 8.88 96.06 12.15 96.40 15.42 C 96.45 15.76 96.56 16.44 96.61 16.78 C 97.25 19.77 97.79 22.81 98.82 25.70 C 100.62 27.45 102.78 28.77 104.86 30.15 C 104.23 31.72 103.60 33.28 103.00 34.86 C 101.02 33.94 99.02 33.08 97.03 32.19 C 96.76 33.10 96.49 34.01 96.23 34.92 C 100.89 36.87 105.78 38.15 110.67 39.38 C 108.73 37.20 106.73 35.05 105.11 32.62 C 108.08 30.83 111.06 29.07 114.04 27.30 C 110.65 27.21 107.26 27.13 103.87 26.99 C 106.37 26.54 108.87 26.06 111.36 25.56 C 110.32 25.03 109.27 24.51 108.22 24.00 C 109.29 23.46 110.31 22.85 111.28 22.14 C 111.72 21.82 112.61 21.18 113.05 20.86 C 113.69 21.19 114.98 21.85 115.63 22.18 C 114.65 22.56 113.67 22.95 112.70 23.35 C 114.61 24.11 116.52 24.90 118.41 25.74 C 118.58 24.33 118.72 22.93 118.84 21.52 C 120.75 21.18 122.65 20.83 124.56 20.48 C 124.54 21.26 124.48 22.81 124.45 23.59 C 128.12 16.23 129.63 7.72 126.20 0.00 L 138.31 0.00 C 137.74 0.55 136.59 1.65 136.02 2.21 C 133.56 2.18 131.11 2.15 128.66 2.26 C 131.27 3.29 133.83 4.64 136.64 5.04 C 138.45 3.62 139.76 1.69 141.30 0.00 L 168.55 0.00 C 165.00 0.25 161.47 0.55 157.94 0.90 C 157.23 0.99 155.81 1.16 155.10 1.25 C 154.78 1.30 154.13 1.42 153.80 1.47 C 150.20 8.95 151.57 17.59 155.60 24.62 C 155.56 23.83 155.49 22.27 155.45 21.48 C 157.49 21.85 159.53 22.20 161.57 22.54 C 161.41 23.87 161.27 25.21 161.06 26.54 C 160.62 28.96 159.92 31.32 159.22 33.68 C 156.67 33.02 154.03 32.66 151.60 31.63 C 149.53 30.39 148.23 28.26 146.64 26.52 C 147.11 28.17 147.57 29.81 148.03 31.47 C 142.73 33.97 135.64 35.25 130.83 31.10 C 128.44 29.96 130.79 27.12 132.36 26.35 C 136.36 25.30 140.59 26.20 144.69 26.15 C 141.50 24.54 137.84 22.33 134.21 24.03 C 129.76 25.28 128.89 30.31 126.57 33.72 C 130.46 35.26 136.15 34.55 138.66 38.25 C 138.43 41.24 137.38 44.09 136.63 46.97 C 140.55 44.08 141.31 38.83 144.72 35.66 C 152.00 32.32 159.63 36.81 166.78 38.41 C 164.84 36.33 161.41 34.57 162.01 31.24 C 164.82 28.57 169.16 29.22 172.74 28.50 C 169.24 27.70 165.74 26.90 162.20 26.30 C 163.93 25.73 165.63 25.08 167.34 24.43 C 166.31 23.96 165.27 23.52 164.23 23.08 C 165.31 22.54 166.37 21.95 167.41 21.34 C 167.76 21.40 168.47 21.52 168.82 21.58 C 169.80 22.10 170.81 22.57 171.84 22.99 C 170.79 23.46 169.75 23.94 168.72 24.43 C 170.67 25.19 172.62 25.95 174.57 26.72 C 174.70 25.83 174.84 24.94 174.95 24.04 C 174.74 23.78 174.32 23.26 174.12 23.00 C 175.72 23.21 177.27 22.62 178.66 21.86 C 180.08 22.49 181.59 23.11 183.18 22.98 C 183.46 20.91 183.34 18.82 183.38 16.75 C 183.40 16.19 183.46 15.06 183.48 14.50 C 183.70 11.29 184.02 8.09 184.26 4.89 C 184.41 3.59 184.05 2.44 183.17 1.44 C 182.94 1.08 182.47 0.36 182.24 0.00 L 197.49 0.00 C 193.92 3.22 189.20 3.51 184.66 3.45 C 187.61 4.27 190.84 6.51 193.92 4.93 C 198.06 3.16 202.57 2.60 207.01 2.07 C 206.72 1.38 206.42 0.69 206.14 0.00 L 224.00 0.00 L 224.00 0.96 C 220.72 0.93 217.48 0.83 214.22 0.94 C 213.43 1.00 211.85 1.12 211.06 1.17 C 210.31 1.63 209.57 2.11 208.84 2.61 C 207.82 3.33 207.42 4.34 207.66 5.63 C 207.85 8.90 208.06 12.16 208.40 15.42 C 208.45 15.76 208.55 16.44 208.61 16.79 C 209.24 19.77 209.79 22.81 210.82 25.70 C 212.62 27.45 214.78 28.77 216.86 30.15 C 216.23 31.72 215.60 33.28 215.00 34.86 C 213.02 33.94 211.02 33.08 209.03 32.19 C 208.76 33.09 208.49 34.00 208.23 34.91 C 212.92 36.92 217.86 38.18 222.81 39.33 C 221.15 37.85 219.41 36.43 218.00 34.68 C 218.69 32.71 219.88 30.98 221.01 29.24 C 218.62 28.40 216.24 27.52 213.93 26.47 L 214.61 26.12 L 215.28 25.77 C 217.98 25.83 220.68 25.92 223.38 25.90 C 222.37 25.26 221.35 24.64 220.33 24.03 C 221.38 23.54 222.38 22.97 223.35 22.32 L 224.00 21.92 L 224.00 45.12 C 215.54 44.92 206.97 42.30 198.56 44.35 C 201.90 45.21 205.27 45.96 208.65 46.66 C 213.72 47.96 218.93 46.18 224.00 45.86 L 224.00 50.54 C 220.99 51.14 218.03 51.82 214.99 52.19 C 214.67 52.07 214.03 51.83 213.70 51.71 C 212.26 53.12 210.84 54.55 209.44 56.00 L 205.24 56.00 C 200.37 53.98 195.82 51.34 191.21 48.83 C 195.66 43.42 198.92 36.25 206.21 34.04 C 205.18 32.05 204.20 30.04 203.26 28.01 C 202.40 30.63 201.67 34.01 198.46 34.61 C 194.00 36.67 189.70 33.43 185.71 31.86 C 187.05 30.15 188.27 28.25 190.11 27.02 C 192.96 25.82 196.09 26.87 199.00 27.31 C 198.27 26.17 197.54 25.03 196.82 23.89 C 198.81 22.01 200.80 20.14 202.88 18.35 C 198.53 19.14 194.19 18.27 190.10 16.73 C 192.78 18.57 195.23 20.74 197.09 23.42 C 193.44 24.72 189.78 26.02 186.11 27.26 C 185.24 29.80 185.80 33.55 182.93 34.72 C 179.43 36.14 175.76 37.06 172.17 38.20 C 174.57 41.88 177.52 45.27 181.63 47.07 C 179.51 44.54 177.21 42.16 175.25 39.50 C 181.32 36.44 188.14 34.54 194.88 36.90 C 193.45 41.40 190.98 45.50 187.46 48.67 C 188.02 48.87 189.12 49.27 189.67 49.47 C 187.83 51.19 185.97 52.89 184.14 54.62 C 186.75 53.45 189.26 51.93 192.10 51.40 C 194.90 51.43 197.23 53.31 199.66 54.49 C 198.24 55.02 196.82 55.52 195.39 56.00 L 168.65 56.00 C 168.27 54.48 167.87 52.97 167.46 51.46 L 167.18 50.51 C 164.01 51.20 160.95 52.21 157.86 53.16 C 156.23 53.39 154.55 54.23 154.22 56.00 L 150.23 56.00 C 145.09 51.82 138.93 49.27 133.54 45.49 C 132.69 46.10 131.84 46.72 131.00 47.35 C 131.71 47.62 133.12 48.18 133.83 48.45 C 131.93 50.14 130.02 51.81 128.11 53.49 C 133.57 50.65 140.11 49.86 145.63 53.02 C 143.58 53.35 139.48 54.01 137.43 54.34 C 138.03 54.75 139.22 55.58 139.81 56.00 L 112.72 56.00 C 112.27 54.53 111.84 53.06 111.43 51.57 L 111.22 50.81 C 108.46 51.21 105.75 51.81 102.97 52.06 C 102.65 51.96 102.00 51.77 101.68 51.67 C 100.25 53.10 98.85 54.54 97.45 56.00 L 93.24 56.00 C 88.38 53.98 83.82 51.34 79.21 48.83 C 83.73 43.33 87.05 36.00 94.57 33.92 C 93.72 32.92 92.88 31.92 92.05 30.92 C 86.90 35.74 79.62 34.79 73.61 32.01 C 74.98 30.24 76.23 28.29 78.12 27.02 C 80.97 25.81 84.09 26.87 87.00 27.31 C 86.27 26.17 85.54 25.03 84.82 23.89 C 86.81 22.01 88.80 20.14 90.88 18.35 C 86.53 19.14 82.19 18.27 78.10 16.73 C 80.78 18.57 83.23 20.74 85.09 23.42 C 81.44 24.72 77.78 26.02 74.11 27.26 C 73.25 29.80 73.80 33.55 70.93 34.72 C 67.43 36.14 63.76 37.06 60.17 38.20 C 62.57 41.88 65.52 45.27 69.63 47.07 C 67.51 44.54 65.21 42.16 63.25 39.50 C 69.32 36.44 76.14 34.54 82.88 36.90 C 81.45 41.40 78.98 45.50 75.46 48.67 C 76.02 48.87 77.12 49.27 77.67 49.47 C 75.83 51.19 73.97 52.89 72.14 54.62 C 74.75 53.45 77.26 51.93 80.10 51.40 C 82.90 51.43 85.24 53.31 87.66 54.49 C 86.24 55.02 84.82 55.52 83.38 56.00 L 56.64 56.00 C 56.26 54.46 55.87 52.93 55.46 51.40 L 55.12 50.19 C 51.82 50.83 48.61 52.02 45.95 54.08 C 46.50 52.97 47.04 51.85 47.55 50.72 L 46.40 51.00 C 45.21 51.22 44.01 51.44 42.81 51.64 C 42.58 52.27 42.11 53.53 41.88 54.16 C 41.70 54.62 41.35 55.54 41.17 56.00 L 32.82 56.00 C 30.02 53.81 27.31 51.47 24.14 49.82 C 29.06 45.25 30.07 36.01 38.20 35.60 C 36.86 33.47 35.61 31.29 34.45 29.05 C 33.39 31.29 32.88 34.44 30.22 35.33 C 26.26 36.87 22.42 34.15 18.87 32.75 C 20.19 31.12 21.24 29.11 23.11 28.04 C 25.38 27.42 27.75 27.85 30.05 28.04 C 29.26 26.80 28.47 25.55 27.68 24.30 C 31.54 21.84 36.09 20.91 40.59 21.81 C 40.56 23.38 40.55 24.94 40.56 26.51 C 41.68 25.71 42.82 24.94 43.89 24.07 L 44.39 23.63 L 44.73 23.32 C 46.26 23.75 47.79 24.19 49.34 24.56 C 49.05 25.26 48.46 26.67 48.17 27.37 C 50.45 27.27 52.73 27.20 55.01 27.16 C 54.14 26.20 53.28 25.24 52.41 24.29 C 53.40 23.86 54.39 23.44 55.38 23.02 C 55.85 22.79 56.78 22.32 57.24 22.09 C 57.84 22.34 59.04 22.83 59.64 23.08 C 58.62 23.67 57.61 24.28 56.61 24.91 C 59.20 25.07 61.80 25.19 64.40 25.19 C 63.80 24.65 62.61 23.58 62.01 23.04 C 63.64 23.19 65.21 22.62 66.64 21.88 C 68.08 22.48 69.59 23.09 71.18 22.98 C 71.45 20.92 71.35 18.84 71.42 16.76 C 71.44 16.21 71.50 15.09 71.53 14.54 C 71.73 11.32 72.01 8.10 72.25 4.89 C 72.40 3.60 72.03 2.45 71.16 1.43 C 70.93 1.08 70.47 0.36 70.23 0.00 M 138.53 9.50 C 140.88 11.15 143.33 12.65 145.91 13.90 C 145.30 15.18 144.67 16.44 144.05 17.71 C 146.40 17.58 148.76 17.49 151.12 17.49 C 148.26 15.65 146.28 12.90 144.66 9.97 C 142.62 9.85 140.57 9.66 138.53 9.50 M 122.14 22.11 C 120.82 22.80 120.81 23.47 122.11 24.14 C 123.43 23.46 123.44 22.78 122.14 22.11 M 66.14 23.11 C 64.82 23.80 64.81 24.47 66.11 25.14 C 67.43 24.46 67.44 23.78 66.14 23.11 M 157.15 23.40 C 156.30 27.38 161.14 22.58 157.15 23.40 M 178.14 23.11 C 176.82 23.80 176.81 24.47 178.11 25.14 C 179.43 24.46 179.44 23.78 178.14 23.11 M 45.15 25.40 C 44.30 29.38 49.14 24.58 45.15 25.40 M 49.03 29.47 C 48.45 31.66 47.74 33.81 47.04 35.97 C 45.05 35.02 43.07 34.07 41.10 33.10 C 40.80 34.01 40.50 34.92 40.21 35.82 C 44.85 38.14 49.94 39.17 54.99 40.13 C 52.90 38.38 48.87 36.82 50.22 33.38 C 52.73 30.68 56.17 29.12 59.15 27.02 C 55.78 27.85 52.44 28.81 49.03 29.47 M 114.60 36.88 C 114.47 37.32 114.34 37.76 114.22 38.21 C 115.48 38.98 116.74 39.76 117.96 40.60 C 121.72 38.66 125.61 36.99 129.41 35.12 C 124.49 35.89 119.62 37.76 114.60 36.88 M 103.28 38.64 C 102.44 40.56 101.63 42.50 100.79 44.42 C 96.04 44.05 91.20 42.49 86.56 44.46 C 90.92 45.22 95.25 46.17 99.50 47.38 C 103.51 47.03 107.45 45.90 111.52 45.95 C 112.58 47.22 113.66 48.49 114.72 49.77 C 115.38 48.25 116.06 46.75 116.76 45.25 C 112.27 45.33 107.79 44.79 103.33 44.26 C 103.37 42.39 103.33 40.51 103.28 38.64 M 154.18 44.32 C 152.14 44.64 150.39 43.24 148.61 42.50 C 148.42 43.23 148.24 43.97 148.05 44.70 C 152.36 46.52 157.07 47.87 161.36 45.15 C 161.04 43.16 160.79 41.16 160.63 39.15 C 158.77 41.15 157.16 44.01 154.18 44.32 M 34.88 42.80 C 33.57 43.80 32.23 44.75 30.88 45.69 C 35.51 44.94 40.50 45.57 43.79 49.23 C 44.60 48.30 45.42 47.37 46.24 46.44 C 49.64 46.69 53.04 46.72 56.45 46.77 C 52.92 46.07 49.46 45.09 45.97 44.25 C 46.30 42.86 46.65 41.48 46.99 40.11 C 44.16 43.82 38.94 45.64 34.88 42.80 M 163.95 44.23 C 163.65 45.99 167.35 45.99 167.05 44.23 C 166.42 43.19 164.58 43.19 163.95 44.23 M 113.52 51.43 C 116.81 51.96 120.11 52.50 123.43 52.86 C 120.47 50.77 116.92 49.54 113.52 51.43 Z" />
<path fill="#3c6bbe" opacity="1.00" d=" M 8.36 39.97 C 13.66 35.83 22.25 34.47 26.87 40.28 C 26.95 43.25 23.21 44.26 21.25 45.87 C 21.92 50.17 19.22 53.62 15.92 56.00 L 0.00 56.00 L 0.00 38.28 C 2.81 39.12 6.43 39.03 8.18 41.81 C 10.16 44.47 12.75 46.56 15.70 48.06 C 13.23 45.38 10.77 42.70 8.36 39.97 M 2.86 47.80 C 3.02 49.94 3.08 52.09 2.91 54.24 C 5.64 54.48 8.38 54.75 11.12 54.98 C 9.00 53.56 6.87 52.13 4.75 50.69 C 5.79 49.34 6.84 47.99 7.83 46.60 C 6.18 47.01 4.52 47.43 2.86 47.80 Z" />
<path fill="#3c6bbe" opacity="1.00" d=" M 16.75 56.00 C 19.74 54.42 22.64 52.06 26.32 52.66 C 28.24 53.51 29.88 54.86 31.64 56.00 L 16.75 56.00 Z" />
</g>
<g id="#407accff">
<path fill="#407acc" opacity="1.00" d=" M 25.60 0.00 L 30.24 0.00 C 32.70 0.93 35.12 1.94 37.56 2.94 C 30.61 4.67 23.14 8.64 16.16 4.53 C 16.14 4.07 16.08 3.13 16.06 2.67 C 19.95 4.62 24.43 4.56 28.57 3.54 C 27.60 2.34 26.63 1.15 25.60 0.00 Z" />
</g>
<g id="#3c6cbfff">
<path fill="#3c6cbf" opacity="1.00" d=" M 30.24 0.00 L 56.56 0.00 C 53.01 0.24 49.47 0.52 45.93 0.87 C 45.20 0.96 43.74 1.15 43.00 1.25 C 42.08 1.55 41.17 1.89 40.27 2.26 C 40.04 2.79 39.58 3.85 39.35 4.38 C 39.13 8.36 38.88 12.35 38.56 16.32 C 39.27 16.02 39.99 15.72 40.71 15.43 C 40.79 15.40 40.95 15.35 41.04 15.32 C 41.00 15.66 40.93 16.36 40.89 16.70 C 40.83 17.55 40.72 19.23 40.66 20.08 C 34.54 17.45 28.29 21.96 22.23 18.93 C 24.31 20.80 26.27 22.80 28.10 24.92 C 24.47 26.33 20.68 27.30 16.79 27.58 C 17.59 29.30 18.42 31.02 18.88 32.86 C 13.62 37.04 6.37 36.84 0.00 37.82 L 0.00 30.94 C 3.12 30.00 6.17 28.87 9.20 27.67 C 8.30 27.44 7.39 27.22 6.48 27.01 C 6.61 25.86 6.73 24.71 6.84 23.57 C 8.33 23.19 9.80 22.72 11.27 22.25 L 11.61 22.60 L 12.09 23.06 C 13.10 24.02 14.17 24.91 15.22 25.84 C 15.29 22.73 15.22 19.62 15.15 16.51 C 15.14 15.94 15.12 14.80 15.11 14.23 C 15.15 14.21 15.24 14.16 15.28 14.13 C 16.07 14.54 16.86 14.95 17.65 15.37 C 17.15 11.76 16.66 8.15 16.16 4.53 C 23.14 8.64 30.61 4.67 37.56 2.94 C 35.12 1.94 32.70 0.93 30.24 0.00 M 10.14 24.11 C 8.82 24.80 8.81 25.47 10.11 26.14 C 11.43 25.46 11.44 24.78 10.14 24.11 Z" />
</g>
<g id="#82ac5aff">
<path fill="#82ac5a" opacity="1.00" d=" M 56.56 0.00 L 67.09 0.00 C 66.65 0.35 65.78 1.05 65.34 1.40 C 62.07 2.94 59.11 5.14 57.67 8.59 C 57.49 8.61 57.13 8.65 56.95 8.68 C 56.81 6.96 56.66 5.24 56.51 3.53 C 55.93 5.32 55.38 7.13 54.85 8.94 C 54.71 8.96 54.43 8.99 54.29 9.00 C 52.41 5.99 49.50 3.92 46.16 2.78 C 46.10 2.30 45.99 1.34 45.93 0.87 C 49.47 0.52 53.01 0.24 56.56 0.00 M 51.55 2.49 C 51.13 4.20 54.16 4.83 54.74 3.29 C 55.01 1.68 52.25 1.24 51.55 2.49 Z" />
<path fill="#82ac5a" opacity="1.00" d=" M 112.54 0.00 L 123.09 0.00 C 122.65 0.35 121.78 1.05 121.35 1.39 C 118.07 2.94 115.11 5.14 113.67 8.59 C 113.49 8.61 113.13 8.66 112.95 8.68 C 112.81 6.96 112.66 5.24 112.52 3.53 C 111.93 5.32 111.37 7.13 110.84 8.94 C 110.70 8.96 110.43 8.99 110.30 9.00 C 108.40 5.99 105.49 3.92 102.16 2.77 C 102.10 2.31 101.99 1.38 101.94 0.92 C 105.46 0.50 109.00 0.23 112.54 0.00 M 107.55 2.49 C 107.13 4.20 110.15 4.83 110.74 3.29 C 111.01 1.68 108.25 1.24 107.55 2.49 Z" />
<path fill="#82ac5a" opacity="1.00" d=" M 168.55 0.00 L 179.09 0.00 C 178.65 0.35 177.78 1.05 177.34 1.40 C 174.07 2.94 171.11 5.14 169.68 8.59 C 169.49 8.61 169.12 8.66 168.94 8.68 C 168.80 6.96 168.66 5.24 168.52 3.53 C 167.93 5.32 167.37 7.13 166.83 8.94 C 166.70 8.96 166.43 8.99 166.30 9.00 C 164.40 5.99 161.49 3.92 158.16 2.77 C 158.10 2.31 157.99 1.37 157.94 0.90 C 161.47 0.55 165.00 0.25 168.55 0.00 M 163.55 2.49 C 163.13 4.20 166.15 4.83 166.74 3.29 C 167.01 1.68 164.25 1.24 163.55 2.49 Z" />
</g>
<g id="#407bcbff">
<path fill="#407bcb" opacity="1.00" d=" M 85.49 0.00 L 94.14 0.00 C 94.43 0.69 94.72 1.38 95.01 2.07 C 90.57 2.60 86.06 3.16 81.92 4.93 C 78.84 6.51 75.61 4.27 72.66 3.45 C 77.20 3.51 81.92 3.22 85.49 0.00 Z" />
<path fill="#407bcb" opacity="1.00" d=" M 197.49 0.00 L 206.14 0.00 C 206.42 0.69 206.72 1.38 207.01 2.07 C 202.57 2.60 198.06 3.16 193.92 4.93 C 190.84 6.51 187.61 4.27 184.66 3.45 C 189.20 3.51 193.92 3.22 197.49 0.00 Z" />
</g>
<g id="#268dd8ff">
<path fill="#268dd8" opacity="1.00" d=" M 124.98 0.00 L 126.20 0.00 C 129.63 7.72 128.12 16.23 124.45 23.59 C 124.48 22.81 124.54 21.26 124.56 20.48 C 124.74 18.19 125.20 15.94 125.61 13.69 C 125.29 14.12 124.65 14.99 124.33 15.42 C 125.07 13.91 125.77 12.37 126.35 10.79 C 126.13 9.54 125.68 7.02 125.46 5.77 C 125.24 4.59 125.02 3.41 124.81 2.24 C 124.85 1.68 124.93 0.56 124.98 0.00 Z" />
<path fill="#268dd8" opacity="1.00" d=" M 40.27 2.26 C 41.17 1.89 42.08 1.55 43.00 1.25 C 43.08 1.67 43.23 2.52 43.31 2.94 C 42.93 4.25 42.61 5.58 42.35 6.91 C 42.07 11.17 42.98 15.36 43.92 19.48 C 43.66 17.92 43.28 14.76 41.04 15.32 C 40.95 15.35 40.79 15.40 40.71 15.43 C 39.99 15.72 39.27 16.02 38.56 16.32 C 38.88 12.35 39.13 8.36 39.35 4.38 C 41.42 6.66 42.98 2.82 40.27 2.26 Z" />
<path fill="#268dd8" opacity="1.00" d=" M 153.80 1.47 C 154.13 1.42 154.78 1.30 155.10 1.25 C 155.16 1.66 155.28 2.50 155.34 2.92 C 154.94 4.23 154.60 5.56 154.31 6.90 C 153.99 10.12 154.24 13.43 155.53 16.41 C 155.24 16.00 154.65 15.17 154.35 14.75 C 154.78 16.98 155.25 19.21 155.45 21.48 C 155.49 22.27 155.56 23.83 155.60 24.62 C 151.57 17.59 150.20 8.95 153.80 1.47 Z" />
</g>
<g id="#4476cbff">
<path fill="#4476cb" opacity="1.00" d=" M 138.31 0.00 L 141.30 0.00 C 139.76 1.69 138.45 3.62 136.64 5.04 C 133.83 4.64 131.27 3.29 128.66 2.26 C 131.11 2.15 133.56 2.18 136.02 2.21 C 136.59 1.65 137.74 0.55 138.31 0.00 Z" />
</g>
<g id="#86a0b1ff">
<path fill="#86a0b1" opacity="1.00" d=" M 16.16 4.53 C 13.91 4.56 13.46 1.85 15.32 0.83 C 15.51 1.29 15.87 2.21 16.06 2.67 C 16.08 3.13 16.14 4.07 16.16 4.53 Z" />
<path fill="#86a0b1" opacity="1.00" d=" M 40.27 2.26 C 42.98 2.82 41.42 6.66 39.35 4.38 C 39.58 3.85 40.04 2.79 40.27 2.26 Z" />
</g>
<g id="#268ed9ff">
<path fill="#268ed9" opacity="1.00" d=" M 96.88 2.62 C 97.60 2.17 98.33 1.75 99.09 1.35 C 99.15 1.74 99.26 2.53 99.32 2.92 C 98.93 4.23 98.60 5.56 98.32 6.90 C 97.86 10.81 98.81 14.63 100.23 18.23 C 99.35 16.86 98.11 15.59 96.40 15.42 C 96.06 12.15 95.85 8.88 95.65 5.60 C 97.29 5.81 98.27 3.60 96.88 2.62 Z" />
<path fill="#268ed9" opacity="1.00" d=" M 208.84 2.61 C 209.57 2.11 210.31 1.63 211.06 1.17 C 211.11 1.62 211.20 2.52 211.25 2.96 C 210.95 4.25 210.70 5.55 210.49 6.85 C 209.37 10.83 210.78 14.62 212.22 18.24 C 211.34 16.86 210.11 15.58 208.40 15.42 C 208.06 12.16 207.85 8.90 207.66 5.63 C 209.31 5.82 210.27 3.57 208.84 2.61 Z" />
<path fill="#268ed9" opacity="1.00" d=" M 167.71 19.28 C 168.19 19.33 169.16 19.43 169.64 19.48 C 169.43 20.01 169.02 21.06 168.82 21.58 C 168.47 21.52 167.76 21.40 167.41 21.34 C 167.49 20.82 167.63 19.80 167.71 19.28 Z" />
<path fill="#268ed9" opacity="1.00" d=" M 222.10 20.33 C 222.58 20.32 223.53 20.31 224.00 20.30 L 224.00 21.92 L 223.35 22.32 C 223.04 21.82 222.42 20.83 222.10 20.33 Z" />
</g>
<g id="#84ad5aff">
<path fill="#84ad5a" opacity="1.00" d=" M 214.22 0.94 C 217.48 0.83 220.72 0.93 224.00 0.96 L 224.00 5.32 C 222.70 6.02 221.81 7.94 223.28 8.99 C 223.05 9.00 222.58 9.02 222.35 9.03 C 220.43 6.07 217.58 3.99 214.30 2.76 C 214.28 2.31 214.24 1.39 214.22 0.94 M 219.55 2.49 C 219.12 4.20 222.15 4.83 222.74 3.29 C 223.01 1.68 220.25 1.24 219.55 2.49 Z" />
</g>
<g id="#709e5cff">
<path fill="#709e5c" opacity="1.00" d=" M 1.67 8.11 C 3.30 4.76 6.38 2.73 9.92 1.81 C 9.58 3.58 9.44 5.40 8.83 7.10 C 6.74 8.51 4.05 8.20 1.67 8.11 Z" />
<path fill="#709e5c" opacity="1.00" d=" M 57.67 8.59 C 59.11 5.14 62.07 2.94 65.34 1.40 C 65.40 3.17 65.54 4.95 65.34 6.72 C 63.05 8.16 60.27 8.24 57.67 8.59 Z" />
<path fill="#709e5c" opacity="1.00" d=" M 113.67 8.59 C 115.11 5.14 118.07 2.94 121.35 1.39 C 121.40 3.17 121.54 4.95 121.34 6.72 C 119.06 8.17 116.27 8.23 113.67 8.59 Z" />
<path fill="#709e5c" opacity="1.00" d=" M 169.68 8.59 C 171.11 5.14 174.07 2.94 177.34 1.40 C 177.39 3.17 177.54 4.96 177.34 6.72 C 175.06 8.16 172.27 8.24 169.68 8.59 Z" />
<path fill="#709e5c" opacity="1.00" d=" M 46.16 2.78 C 49.50 3.92 52.41 5.99 54.29 9.00 C 51.89 9.17 49.21 9.52 47.08 8.12 C 46.48 6.40 46.40 4.57 46.16 2.78 Z" />
<path fill="#709e5c" opacity="1.00" d=" M 102.16 2.77 C 105.49 3.92 108.40 5.99 110.30 9.00 C 107.89 9.17 105.22 9.51 103.07 8.13 C 102.49 6.40 102.40 4.56 102.16 2.77 Z" />
<path fill="#709e5c" opacity="1.00" d=" M 158.16 2.77 C 161.49 3.92 164.40 5.99 166.30 9.00 C 163.89 9.17 161.22 9.50 159.07 8.13 C 158.51 6.40 158.39 4.57 158.16 2.77 Z" />
<path fill="#709e5c" opacity="1.00" d=" M 214.30 2.76 C 217.58 3.99 220.43 6.07 222.35 9.03 C 219.66 9.10 217.00 8.80 214.35 8.43 C 214.36 6.54 214.35 4.65 214.30 2.76 Z" />
</g>
<g id="#6f9a52ff">
<path fill="#6f9a52" opacity="1.00" d=" M 51.55 2.49 C 52.25 1.24 55.01 1.68 54.74 3.29 C 54.16 4.83 51.13 4.20 51.55 2.49 Z" />
<path fill="#6f9a52" opacity="1.00" d=" M 107.55 2.49 C 108.25 1.24 111.01 1.68 110.74 3.29 C 110.15 4.83 107.13 4.20 107.55 2.49 Z" />
<path fill="#6f9a52" opacity="1.00" d=" M 163.55 2.49 C 164.25 1.24 167.01 1.68 166.74 3.29 C 166.15 4.83 163.13 4.20 163.55 2.49 Z" />
<path fill="#6f9a52" opacity="1.00" d=" M 219.55 2.49 C 220.25 1.24 223.01 1.68 222.74 3.29 C 222.15 4.83 219.12 4.20 219.55 2.49 Z" />
</g>
<g id="#7392b4ff">
<path fill="#7392b4" opacity="1.00" d=" M 72.25 4.89 C 70.23 5.11 70.27 2.60 71.16 1.43 C 72.03 2.45 72.40 3.60 72.25 4.89 Z" />
<path fill="#7392b4" opacity="1.00" d=" M 184.26 4.89 C 182.25 5.11 182.28 2.59 183.17 1.44 C 184.05 2.44 184.41 3.59 184.26 4.89 Z" />
<path fill="#7392b4" opacity="1.00" d=" M 95.65 5.60 C 95.41 4.30 95.82 3.30 96.88 2.62 C 98.27 3.60 97.29 5.81 95.65 5.60 Z" />
<path fill="#7392b4" opacity="1.00" d=" M 207.66 5.63 C 207.42 4.34 207.82 3.33 208.84 2.61 C 210.27 3.57 209.31 5.82 207.66 5.63 Z" />
</g>
<g id="#645a4bff">
<path fill="#645a4b" opacity="1.00" d=" M 11.66 12.82 C 11.34 9.23 12.39 5.75 13.00 2.25 C 13.13 3.43 13.25 4.61 13.35 5.79 C 12.99 8.18 12.34 10.51 11.66 12.82 Z" />
<path fill="#645a4b" opacity="1.00" d=" M 67.65 12.82 C 67.36 9.23 68.38 5.74 68.97 2.24 C 69.13 3.42 69.26 4.60 69.38 5.79 C 69.00 8.17 68.34 10.50 67.65 12.82 Z" />
<path fill="#645a4b" opacity="1.00" d=" M 123.64 12.80 C 123.40 9.23 124.31 5.75 124.81 2.24 C 125.02 3.41 125.24 4.59 125.46 5.77 C 125.03 8.15 124.35 10.48 123.64 12.80 Z" />
<path fill="#645a4b" opacity="1.00" d=" M 179.65 12.82 C 179.36 9.23 180.37 5.75 180.97 2.24 C 181.13 3.42 181.26 4.60 181.38 5.79 C 181.00 8.17 180.34 10.50 179.65 12.82 Z" />
<path fill="#645a4b" opacity="1.00" d=" M 43.31 2.94 C 44.19 6.56 44.67 10.26 44.87 13.98 C 43.78 11.72 42.98 9.34 42.35 6.91 C 42.61 5.58 42.93 4.25 43.31 2.94 Z" />
<path fill="#645a4b" opacity="1.00" d=" M 99.32 2.92 C 100.16 6.55 100.65 10.25 100.86 13.98 C 99.80 11.70 98.97 9.32 98.32 6.90 C 98.60 5.56 98.93 4.23 99.32 2.92 Z" />
<path fill="#645a4b" opacity="1.00" d=" M 155.34 2.92 C 156.16 6.55 156.64 10.25 156.88 13.97 C 155.77 11.71 154.98 9.32 154.31 6.90 C 154.60 5.56 154.94 4.23 155.34 2.92 Z" />
<path fill="#645a4b" opacity="1.00" d=" M 211.25 2.96 C 212.19 6.58 212.66 10.30 212.87 14.04 C 211.73 11.76 211.03 9.32 210.49 6.85 C 210.70 5.55 210.95 4.25 211.25 2.96 Z" />
</g>
<g id="#5c8260ff">
<path fill="#5c8260" opacity="1.00" d=" M 0.00 4.31 C 1.28 5.02 2.20 6.95 0.71 8.00 L 0.00 7.89 L 0.00 4.31 Z" />
<path fill="#5c8260" opacity="1.00" d=" M 54.85 8.94 C 55.38 7.13 55.93 5.32 56.51 3.53 C 56.66 5.24 56.81 6.96 56.95 8.68 C 56.42 8.74 55.37 8.88 54.85 8.94 Z" />
<path fill="#5c8260" opacity="1.00" d=" M 110.84 8.94 C 111.37 7.13 111.93 5.32 112.52 3.53 C 112.66 5.24 112.81 6.96 112.95 8.68 C 112.42 8.74 111.36 8.88 110.84 8.94 Z" />
<path fill="#5c8260" opacity="1.00" d=" M 166.83 8.94 C 167.37 7.13 167.93 5.32 168.52 3.53 C 168.66 5.24 168.80 6.96 168.94 8.68 C 168.41 8.74 167.36 8.88 166.83 8.94 Z" />
<path fill="#5c8260" opacity="1.00" d=" M 223.28 8.99 C 221.81 7.94 222.70 6.02 224.00 5.32 L 224.00 8.93 L 223.28 8.99 Z" />
</g>
<g id="#6c604cff">
<path fill="#6c604c" opacity="1.00" d=" M 6.25 9.47 C 6.94 9.34 8.33 9.10 9.03 8.97 C 9.71 12.64 10.25 16.33 10.57 20.04 L 9.76 20.65 C 9.34 20.96 8.50 21.58 8.08 21.89 C 7.52 17.74 6.88 13.61 6.25 9.47 Z" />
<path fill="#6c604c" opacity="1.00" d=" M 62.08 9.53 C 62.82 9.38 64.29 9.10 65.02 8.96 C 65.78 12.79 66.52 16.65 66.62 20.57 L 66.20 21.68 C 65.77 21.46 64.92 21.03 64.50 20.81 C 63.55 17.08 62.84 13.30 62.08 9.53 Z" />
<path fill="#6c604c" opacity="1.00" d=" M 174.08 9.53 C 174.81 9.38 176.29 9.10 177.02 8.96 C 177.77 12.79 178.52 16.64 178.62 20.56 L 178.21 21.66 C 177.79 21.44 176.94 20.99 176.51 20.77 C 175.55 17.06 174.84 13.28 174.08 9.53 Z" />
<path fill="#6c604c" opacity="1.00" d=" M 47.05 9.95 C 47.69 10.07 48.95 10.33 49.59 10.45 C 48.89 14.58 48.31 18.73 47.87 22.90 C 47.49 22.61 46.72 22.03 46.34 21.74 L 45.56 21.13 C 46.07 17.40 46.57 13.67 47.05 9.95 Z" />
<path fill="#6c604c" opacity="1.00" d=" M 103.04 9.94 C 103.74 10.08 105.14 10.36 105.84 10.51 C 105.00 14.22 104.10 17.93 103.17 21.62 C 102.70 21.74 101.76 21.96 101.29 22.07 L 101.37 21.44 C 101.90 17.60 102.48 13.77 103.04 9.94 Z" />
<path fill="#6c604c" opacity="1.00" d=" M 215.03 9.94 C 215.73 10.08 217.12 10.36 217.82 10.50 C 217.00 14.24 216.13 17.97 215.24 21.69 C 214.76 21.78 213.80 21.98 213.32 22.07 L 213.41 21.44 C 213.92 17.60 214.48 13.77 215.03 9.94 Z" />
</g>
<g id="#6c5f4bff">
<path fill="#6c5f4b" opacity="1.00" d=" M 118.19 9.49 C 118.79 9.40 119.98 9.21 120.58 9.12 C 121.47 11.67 122.39 14.22 123.34 16.75 C 122.32 17.86 121.21 18.88 120.03 19.82 C 119.45 16.37 118.78 12.94 118.19 9.49 Z" />
<path fill="#6c5f4b" opacity="1.00" d=" M 159.45 10.15 C 160.02 10.22 161.17 10.37 161.74 10.44 C 161.12 13.90 160.51 17.35 159.95 20.82 C 158.75 19.90 157.62 18.91 156.57 17.82 C 157.57 15.28 158.53 12.72 159.45 10.15 Z" />
</g>
<g id="#4377caff">
<path fill="#4377ca" opacity="1.00" d=" M 138.53 9.50 C 140.57 9.66 142.62 9.85 144.66 9.97 C 146.28 12.90 148.26 15.65 151.12 17.49 C 148.76 17.49 146.40 17.58 144.05 17.71 C 144.67 16.44 145.30 15.18 145.91 13.90 C 143.33 12.65 140.88 11.15 138.53 9.50 Z" />
</g>
<g id="#565249ff">
<path fill="#565249" opacity="1.00" d=" M 3.90 11.51 C 5.53 13.85 6.86 16.43 7.11 19.37 C 5.79 16.86 4.75 14.21 3.90 11.51 Z" />
<path fill="#565249" opacity="1.00" d=" M 59.90 11.51 C 61.53 13.85 62.85 16.43 63.11 19.37 C 61.79 16.86 60.75 14.21 59.90 11.51 Z" />
<path fill="#565249" opacity="1.00" d=" M 115.90 11.51 C 117.54 13.85 118.84 16.43 119.11 19.37 C 117.79 16.86 116.75 14.21 115.90 11.51 Z" />
<path fill="#565249" opacity="1.00" d=" M 171.90 11.51 C 173.54 13.85 174.83 16.43 175.11 19.37 C 173.79 16.86 172.75 14.21 171.90 11.51 Z" />
<path fill="#565249" opacity="1.00" d=" M 48.89 20.37 C 49.14 17.43 50.47 14.85 52.10 12.51 C 51.25 15.21 50.20 17.86 48.89 20.37 Z" />
<path fill="#565249" opacity="1.00" d=" M 104.89 20.37 C 105.13 17.43 106.48 14.85 108.10 12.51 C 107.25 15.21 106.20 17.86 104.89 20.37 Z" />
<path fill="#565249" opacity="1.00" d=" M 160.89 20.37 C 161.12 17.43 162.48 14.85 164.10 12.51 C 163.25 15.21 162.20 17.86 160.89 20.37 Z" />
<path fill="#565249" opacity="1.00" d=" M 216.89 20.37 C 217.12 17.43 218.48 14.85 220.10 12.51 C 219.25 15.21 218.20 17.86 216.89 20.37 Z" />
<path fill="#565249" opacity="1.00" d=" M 2.45 18.91 C 3.95 16.30 6.11 19.41 4.42 21.07 C 4.08 20.99 3.39 20.83 3.04 20.75 C 2.89 20.29 2.59 19.37 2.45 18.91 Z" />
<path fill="#565249" opacity="1.00" d=" M 58.81 19.45 C 57.88 16.66 61.16 17.32 60.95 19.62 C 60.59 19.69 59.87 19.82 59.51 19.88 L 58.81 19.45 Z" />
<path fill="#565249" opacity="1.00" d=" M 170.54 19.54 C 169.71 16.86 172.83 17.45 172.83 19.63 C 172.46 19.72 171.71 19.89 171.34 19.97 L 170.54 19.54 Z" />
<path fill="#565249" opacity="1.00" d=" M 51.50 22.03 C 49.76 20.25 52.39 17.06 53.45 20.14 C 53.31 20.57 53.02 21.41 52.88 21.84 C 52.53 21.88 51.84 21.98 51.50 22.03 Z" />
<path fill="#565249" opacity="1.00" d=" M 107.04 20.70 C 106.96 18.49 110.09 17.75 109.24 20.53 L 108.50 21.02 C 108.14 20.94 107.40 20.78 107.04 20.70 Z" />
<path fill="#565249" opacity="1.00" d=" M 219.11 20.74 C 218.89 18.52 222.05 17.64 221.31 20.45 L 220.58 20.94 C 220.21 20.89 219.48 20.79 219.11 20.74 Z" />
</g>
<g id="#709fc2fe">
<path fill="#709fc2" opacity="1.00" d=" M 12.07 18.60 C 12.34 16.75 13.31 14.98 15.11 14.23 C 15.12 14.80 15.14 15.94 15.15 16.51 C 14.33 17.61 13.09 18.26 11.96 19.00 L 12.07 18.60 Z" />
<path fill="#709fc2" opacity="1.00" d=" M 41.04 15.32 C 43.28 14.76 43.66 17.92 43.92 19.48 L 44.01 19.85 C 42.86 18.92 41.70 17.96 40.89 16.70 C 40.93 16.36 41.00 15.66 41.04 15.32 Z" />
</g>
<g id="#7ca2beff">
<path fill="#7ca2be" opacity="1.00" d=" M 67.96 17.20 C 68.93 16.06 70.13 15.11 71.53 14.54 C 71.50 15.09 71.44 16.21 71.42 16.76 C 70.32 17.45 69.13 17.72 67.82 17.58 L 67.96 17.20 Z" />
<path fill="#7ca2be" opacity="1.00" d=" M 179.95 17.21 C 180.91 16.05 182.09 15.09 183.48 14.50 C 183.46 15.06 183.40 16.19 183.38 16.75 C 182.30 17.45 181.11 17.73 179.81 17.59 L 179.95 17.21 Z" />
<path fill="#7ca2be" opacity="1.00" d=" M 96.40 15.42 C 98.11 15.59 99.35 16.86 100.23 18.23 L 100.38 18.66 C 98.92 18.62 97.50 17.96 96.61 16.78 C 96.56 16.44 96.45 15.76 96.40 15.42 Z" />
<path fill="#7ca2be" opacity="1.00" d=" M 208.40 15.42 C 210.11 15.58 211.34 16.86 212.22 18.24 L 212.38 18.66 C 210.91 18.61 209.49 17.97 208.61 16.79 C 208.55 16.44 208.45 15.76 208.40 15.42 Z" />
</g>
<g id="#7fa1b9ff">
<path fill="#7fa1b9" opacity="1.00" d=" M 124.33 15.42 C 124.65 14.99 125.29 14.12 125.61 13.69 C 125.20 15.94 124.74 18.19 124.56 20.48 C 122.65 20.83 120.75 21.18 118.84 21.52 L 117.43 21.77 L 117.87 21.43 C 118.41 21.03 119.49 20.22 120.03 19.82 C 121.21 18.88 122.32 17.86 123.34 16.75 C 123.59 16.42 124.08 15.75 124.33 15.42 Z" />
<path fill="#7fa1b9" opacity="1.00" d=" M 154.35 14.75 C 154.65 15.17 155.24 16.00 155.53 16.41 C 155.79 16.77 156.31 17.47 156.57 17.82 C 157.62 18.91 158.75 19.90 159.95 20.82 C 160.52 21.22 161.64 22.01 162.21 22.41 L 162.63 22.72 L 161.57 22.54 C 159.53 22.20 157.49 21.85 155.45 21.48 C 155.25 19.21 154.78 16.98 154.35 14.75 Z" />
</g>
<g id="#2a8ad7ff">
<path fill="#2a8ad7" opacity="1.00" d=" M 11.96 19.00 C 13.09 18.26 14.33 17.61 15.15 16.51 C 15.22 19.62 15.29 22.73 15.22 25.84 C 14.17 24.91 13.10 24.02 12.09 23.06 C 13.34 22.98 13.94 22.37 13.88 21.22 C 13.07 19.71 11.40 21.43 11.61 22.60 L 11.27 22.25 C 10.89 21.85 10.13 21.05 9.76 20.65 L 10.57 20.04 C 10.92 19.78 11.61 19.26 11.96 19.00 Z" />
</g>
<g id="#4379caff">
<path fill="#4379ca" opacity="1.00" d=" M 22.23 18.93 C 28.29 21.96 34.54 17.45 40.66 20.08 C 40.64 20.51 40.61 21.38 40.59 21.81 C 36.09 20.91 31.54 21.84 27.68 24.30 C 28.47 25.55 29.26 26.80 30.05 28.04 C 27.75 27.85 25.38 27.42 23.11 28.04 C 21.24 29.11 20.19 31.12 18.87 32.75 C 22.42 34.15 26.26 36.87 30.22 35.33 C 32.88 34.44 33.39 31.29 34.45 29.05 C 35.61 31.29 36.86 33.47 38.20 35.60 C 30.07 36.01 29.06 45.25 24.14 49.82 C 27.31 51.47 30.02 53.81 32.82 56.00 L 31.64 56.00 C 29.88 54.86 28.24 53.51 26.32 52.66 C 22.64 52.06 19.74 54.42 16.75 56.00 L 15.92 56.00 C 19.22 53.62 21.92 50.17 21.25 45.87 C 23.21 44.26 26.95 43.25 26.87 40.28 C 22.25 34.47 13.66 35.83 8.36 39.97 C 10.77 42.70 13.23 45.38 15.70 48.06 C 12.75 46.56 10.16 44.47 8.18 41.81 C 6.43 39.03 2.81 39.12 0.00 38.28 L 0.00 37.82 C 6.37 36.84 13.62 37.04 18.88 32.86 C 18.42 31.02 17.59 29.30 16.79 27.58 C 20.68 27.30 24.47 26.33 28.10 24.92 C 26.27 22.80 24.31 20.80 22.23 18.93 Z" />
<path fill="#4379ca" opacity="1.00" d=" M 49.03 29.47 C 52.44 28.81 55.78 27.85 59.15 27.02 C 56.17 29.12 52.73 30.68 50.22 33.38 C 48.87 36.82 52.90 38.38 54.99 40.13 C 49.94 39.17 44.85 38.14 40.21 35.82 C 40.50 34.92 40.80 34.01 41.10 33.10 C 43.07 34.07 45.05 35.02 47.04 35.97 C 47.74 33.81 48.45 31.66 49.03 29.47 Z" />
<path fill="#4379ca" opacity="1.00" d=" M 114.60 36.88 C 119.62 37.76 124.49 35.89 129.41 35.12 C 125.61 36.99 121.72 38.66 117.96 40.60 C 116.74 39.76 115.48 38.98 114.22 38.21 C 114.34 37.76 114.47 37.32 114.60 36.88 Z" />
</g>
<g id="#298ad7ff">
<path fill="#298ad7" opacity="1.00" d=" M 40.89 16.70 C 41.70 17.96 42.86 18.92 44.01 19.85 C 44.40 20.17 45.17 20.81 45.56 21.13 L 46.34 21.74 C 45.94 22.13 45.13 22.92 44.73 23.32 L 44.39 23.63 C 44.61 22.46 42.97 20.72 42.13 22.23 C 42.05 23.37 42.64 23.98 43.89 24.07 C 42.82 24.94 41.68 25.71 40.56 26.51 C 40.55 24.94 40.56 23.38 40.59 21.81 C 40.61 21.38 40.64 20.51 40.66 20.08 C 40.72 19.23 40.83 17.55 40.89 16.70 Z" />
</g>
<g id="#3893d8ff">
<path fill="#3893d8" opacity="1.00" d=" M 67.82 17.58 C 69.13 17.72 70.32 17.45 71.42 16.76 C 71.35 18.84 71.45 20.92 71.18 22.98 C 69.59 23.09 68.08 22.48 66.64 21.88 L 66.20 21.68 L 66.62 20.57 C 67.02 19.58 67.43 18.58 67.82 17.58 Z" />
<path fill="#3893d8" opacity="1.00" d=" M 179.81 17.59 C 181.11 17.73 182.30 17.45 183.38 16.75 C 183.34 18.82 183.46 20.91 183.18 22.98 C 181.59 23.11 180.08 22.49 178.66 21.86 L 178.21 21.66 L 178.62 20.56 C 179.02 19.57 179.42 18.58 179.81 17.59 Z" />
</g>
<g id="#4279cbff">
<path fill="#4279cb" opacity="1.00" d=" M 78.10 16.73 C 82.19 18.27 86.53 19.14 90.88 18.35 C 88.80 20.14 86.81 22.01 84.82 23.89 C 85.54 25.03 86.27 26.17 87.00 27.31 C 84.09 26.87 80.97 25.81 78.12 27.02 C 76.23 28.29 74.98 30.24 73.61 32.01 C 79.62 34.79 86.90 35.74 92.05 30.92 C 92.88 31.92 93.72 32.92 94.57 33.92 C 87.05 36.00 83.73 43.33 79.21 48.83 C 83.82 51.34 88.38 53.98 93.24 56.00 L 83.38 56.00 C 84.82 55.52 86.24 55.02 87.66 54.49 C 85.24 53.31 82.90 51.43 80.10 51.40 C 77.26 51.93 74.75 53.45 72.14 54.62 C 73.97 52.89 75.83 51.19 77.67 49.47 C 77.12 49.27 76.02 48.87 75.46 48.67 C 78.98 45.50 81.45 41.40 82.88 36.90 C 76.14 34.54 69.32 36.44 63.25 39.50 C 65.21 42.16 67.51 44.54 69.63 47.07 C 65.52 45.27 62.57 41.88 60.17 38.20 C 63.76 37.06 67.43 36.14 70.93 34.72 C 73.80 33.55 73.25 29.80 74.11 27.26 C 77.78 26.02 81.44 24.72 85.09 23.42 C 83.23 20.74 80.78 18.57 78.10 16.73 Z" />
<path fill="#4279cb" opacity="1.00" d=" M 190.10 16.73 C 194.19 18.27 198.53 19.14 202.88 18.35 C 200.80 20.14 198.81 22.01 196.82 23.89 C 197.54 25.03 198.27 26.17 199.00 27.31 C 196.09 26.87 192.96 25.82 190.11 27.02 C 188.27 28.25 187.05 30.15 185.71 31.86 C 189.70 33.43 194.00 36.67 198.46 34.61 C 201.67 34.01 202.40 30.63 203.26 28.01 C 204.20 30.04 205.18 32.05 206.21 34.04 C 198.92 36.25 195.66 43.42 191.21 48.83 C 195.82 51.34 200.37 53.98 205.24 56.00 L 195.39 56.00 C 196.82 55.52 198.24 55.02 199.66 54.49 C 197.23 53.31 194.90 51.43 192.10 51.40 C 189.26 51.93 186.75 53.45 184.14 54.62 C 185.97 52.89 187.83 51.19 189.67 49.47 C 189.12 49.27 188.02 48.87 187.46 48.67 C 190.98 45.50 193.45 41.40 194.88 36.90 C 188.14 34.54 181.32 36.44 175.25 39.50 C 177.21 42.16 179.51 44.54 181.63 47.07 C 177.52 45.27 174.57 41.88 172.17 38.20 C 175.76 37.06 179.43 36.14 182.93 34.72 C 185.80 33.55 185.24 29.80 186.11 27.26 C 189.78 26.02 193.44 24.72 197.09 23.42 C 195.23 20.74 192.78 18.57 190.10 16.73 Z" />
<path fill="#4279cb" opacity="1.00" d=" M 154.18 44.32 C 157.16 44.01 158.77 41.15 160.63 39.15 C 160.79 41.16 161.04 43.16 161.36 45.15 C 157.07 47.87 152.36 46.52 148.05 44.70 C 148.24 43.97 148.42 43.23 148.61 42.50 C 150.39 43.24 152.14 44.64 154.18 44.32 Z" />
</g>
<g id="#3a94d8ff">
<path fill="#3a94d8" opacity="1.00" d=" M 96.61 16.78 C 97.50 17.96 98.92 18.62 100.38 18.66 C 100.72 19.58 101.05 20.51 101.37 21.44 L 101.29 22.07 L 101.06 22.43 C 100.33 23.53 99.58 24.62 98.82 25.70 C 97.79 22.81 97.25 19.77 96.61 16.78 Z" />
<path fill="#3a94d8" opacity="1.00" d=" M 208.61 16.79 C 209.49 17.97 210.91 18.61 212.38 18.66 C 212.73 19.58 213.07 20.51 213.41 21.44 L 213.32 22.07 L 213.10 22.43 C 212.35 23.53 211.59 24.62 210.82 25.70 C 209.79 22.81 209.24 19.77 208.61 16.79 Z" />
</g>
<g id="#4a463eff">
<path fill="#4a463e" opacity="1.00" d=" M 114.40 18.10 C 115.30 16.69 117.29 17.50 116.99 19.13 C 116.34 18.87 115.04 18.36 114.40 18.10 Z" />
<path fill="#4a463e" opacity="1.00" d=" M 163.11 20.11 C 162.90 18.49 164.83 17.70 165.80 19.02 C 165.13 19.29 163.78 19.84 163.11 20.11 Z" />
</g>
<g id="#9cb3c7fe">
<path fill="#9cb3c7" opacity="1.00" d=" M 112.29 19.17 C 112.73 18.95 113.61 18.51 114.05 18.28 C 114.88 19.45 115.41 20.78 116.09 22.03 L 115.63 22.18 C 114.98 21.85 113.69 21.19 113.05 20.86 C 112.86 20.44 112.48 19.59 112.29 19.17 Z" />
<path fill="#9cb3c7" opacity="1.00" d=" M 58.08 19.54 L 58.81 19.45 L 59.51 19.88 C 59.59 20.89 59.81 21.87 60.15 22.82 L 59.64 23.08 C 59.04 22.83 57.84 22.34 57.24 22.09 C 57.29 21.16 57.57 20.31 58.08 19.54 Z" />
<path fill="#9cb3c7" opacity="1.00" d=" M 166.27 19.11 C 166.63 19.15 167.35 19.24 167.71 19.28 C 167.63 19.80 167.49 20.82 167.41 21.34 C 166.37 21.95 165.31 22.54 164.23 23.08 L 163.87 22.96 C 164.69 21.69 165.31 20.28 166.27 19.11 Z" />
<path fill="#9cb3c7" opacity="1.00" d=" M 169.64 19.48 L 170.54 19.54 L 171.34 19.97 C 171.57 20.95 171.89 21.89 172.32 22.79 L 171.84 22.99 C 170.81 22.57 169.80 22.10 168.82 21.58 C 169.02 21.06 169.43 20.01 169.64 19.48 Z" />
<path fill="#9cb3c7" opacity="1.00" d=" M 109.24 20.53 L 110.03 20.29 C 110.34 20.76 110.97 21.68 111.28 22.14 C 110.31 22.85 109.29 23.46 108.22 24.00 L 107.75 23.81 C 108.13 22.92 108.38 21.98 108.50 21.02 L 109.24 20.53 Z" />
<path fill="#9cb3c7" opacity="1.00" d=" M 221.31 20.45 L 222.10 20.33 C 222.42 20.83 223.04 21.82 223.35 22.32 C 222.38 22.97 221.38 23.54 220.33 24.03 L 219.86 23.81 C 220.21 22.88 220.45 21.92 220.58 20.94 L 221.31 20.45 Z" />
</g>
<g id="#5688bafe">
<path fill="#5688ba" opacity="1.00" d=" M 114.05 18.28 L 114.40 18.10 C 115.04 18.36 116.34 18.87 116.99 19.13 C 117.21 19.71 117.65 20.86 117.87 21.43 L 117.43 21.77 C 117.10 21.83 116.43 21.97 116.09 22.03 C 115.41 20.78 114.88 19.45 114.05 18.28 Z" />
<path fill="#5688ba" opacity="1.00" d=" M 165.80 19.02 L 166.27 19.11 C 165.31 20.28 164.69 21.69 163.87 22.96 C 163.56 22.90 162.94 22.78 162.63 22.72 L 162.21 22.41 C 162.43 21.84 162.88 20.68 163.11 20.11 C 163.78 19.84 165.13 19.29 165.80 19.02 Z" />
</g>
<g id="#9eb5caff">
<path fill="#9eb5ca" opacity="1.00" d=" M 1.03 20.32 C 1.38 19.97 2.09 19.26 2.45 18.91 C 2.59 19.37 2.89 20.29 3.04 20.75 C 3.36 21.75 3.75 22.73 4.21 23.68 L 3.50 23.41 C 2.62 22.42 1.82 21.37 1.03 20.32 Z" />
</g>
<g id="#2a8ad7fe">
<path fill="#2a8ad7" opacity="1.00" d=" M 54.22 21.37 C 55.31 20.44 56.61 19.63 58.08 19.54 C 57.57 20.31 57.29 21.16 57.24 22.09 C 56.78 22.32 55.85 22.79 55.38 23.02 C 55.09 22.61 54.51 21.79 54.22 21.37 Z" />
</g>
<g id="#2c89d6ff">
<path fill="#2c89d6" opacity="1.00" d=" M 112.29 19.17 C 112.48 19.59 112.86 20.44 113.05 20.86 C 112.61 21.18 111.72 21.82 111.28 22.14 C 110.97 21.68 110.34 20.76 110.03 20.29 C 110.59 20.01 111.72 19.45 112.29 19.17 Z" />
</g>
<g id="#3c76c7ff">
<path fill="#3c76c7" opacity="1.00" d=" M 0.00 21.38 C 0.26 21.11 0.77 20.58 1.03 20.32 C 1.82 21.37 2.62 22.42 3.50 23.41 C 2.70 24.19 1.89 24.98 1.09 25.77 C 2.89 26.17 4.69 26.58 6.48 27.01 C 7.39 27.22 8.30 27.44 9.20 27.67 C 6.17 28.87 3.12 30.00 0.00 30.94 L 0.00 21.38 Z" />
</g>
<g id="#adc2d9ff">
<path fill="#adc2d9" opacity="1.00" d=" M 11.61 22.60 C 11.40 21.43 13.07 19.71 13.88 21.22 C 13.94 22.37 13.34 22.98 12.09 23.06 L 11.61 22.60 Z" />
<path fill="#adc2d9" opacity="1.00" d=" M 42.13 22.23 C 42.97 20.72 44.61 22.46 44.39 23.63 L 43.89 24.07 C 42.64 23.98 42.05 23.37 42.13 22.23 Z" />
</g>
<g id="#9eb5c9ff">
<path fill="#9eb5c9" opacity="1.00" d=" M 53.45 20.14 C 53.64 20.45 54.03 21.07 54.22 21.37 C 54.51 21.79 55.09 22.61 55.38 23.02 C 54.39 23.44 53.40 23.86 52.41 24.29 L 51.73 24.57 C 52.18 23.69 52.56 22.78 52.88 21.84 C 53.02 21.41 53.31 20.57 53.45 20.14 Z" />
</g>
<g id="#4f7baeff">
<path fill="#4f7bae" opacity="1.00" d=" M 59.51 19.88 C 59.87 19.82 60.59 19.69 60.95 19.62 C 61.14 20.21 61.51 21.38 61.70 21.97 L 61.47 22.60 C 61.14 22.65 60.48 22.76 60.15 22.82 C 59.81 21.87 59.59 20.89 59.51 19.88 Z" />
<path fill="#4f7bae" opacity="1.00" d=" M 171.34 19.97 C 171.71 19.89 172.46 19.72 172.83 19.63 C 173.07 20.19 173.57 21.32 173.81 21.88 L 173.62 22.50 C 173.29 22.57 172.64 22.72 172.32 22.79 C 171.89 21.89 171.57 20.95 171.34 19.97 Z" />
<path fill="#4f7bae" opacity="1.00" d=" M 3.04 20.75 C 3.39 20.83 4.08 20.99 4.42 21.07 C 4.83 21.66 5.66 22.84 6.08 23.43 L 5.63 23.80 C 5.28 23.77 4.56 23.71 4.21 23.68 C 3.75 22.73 3.36 21.75 3.04 20.75 Z" />
<path fill="#4f7bae" opacity="1.00" d=" M 107.04 20.70 C 107.40 20.78 108.14 20.94 108.50 21.02 C 108.38 21.98 108.13 22.92 107.75 23.81 C 107.41 23.75 106.73 23.61 106.38 23.54 L 106.14 22.95 C 106.36 22.39 106.81 21.26 107.04 20.70 Z" />
<path fill="#4f7bae" opacity="1.00" d=" M 219.11 20.74 C 219.48 20.79 220.21 20.89 220.58 20.94 C 220.45 21.92 220.21 22.88 219.86 23.81 C 219.53 23.80 218.86 23.78 218.53 23.77 L 218.29 23.19 C 218.50 22.58 218.91 21.35 219.11 20.74 Z" />
<path fill="#4f7bae" opacity="1.00" d=" M 51.50 22.03 C 51.84 21.98 52.53 21.88 52.88 21.84 C 52.56 22.78 52.18 23.69 51.73 24.57 C 51.38 24.62 50.67 24.71 50.31 24.76 L 49.84 24.39 C 50.26 23.80 51.08 22.62 51.50 22.03 Z" />
</g>
<g id="#8ea7b9ff">
<path fill="#8ea7b9" opacity="1.00" d=" M 8.08 21.89 C 8.50 21.58 9.34 20.96 9.76 20.65 C 10.13 21.05 10.89 21.85 11.27 22.25 C 9.80 22.72 8.33 23.19 6.84 23.57 L 5.63 23.80 L 6.08 23.43 C 6.58 23.05 7.58 22.28 8.08 21.89 Z" />
<path fill="#8ea7b9" opacity="1.00" d=" M 44.73 23.32 C 45.13 22.92 45.94 22.13 46.34 21.74 C 46.72 22.03 47.49 22.61 47.87 22.90 C 48.36 23.27 49.35 24.01 49.84 24.39 L 50.31 24.76 L 49.34 24.56 C 47.79 24.19 46.26 23.75 44.73 23.32 Z" />
</g>
<g id="#8ba4b6fe">
<path fill="#8ba4b6" opacity="1.00" d=" M 61.70 21.97 C 62.40 21.68 63.80 21.10 64.50 20.81 C 64.92 21.03 65.77 21.46 66.20 21.68 L 66.64 21.88 C 65.21 22.62 63.64 23.19 62.01 23.04 L 61.47 22.60 L 61.70 21.97 Z" />
<path fill="#8ba4b6" opacity="1.00" d=" M 173.81 21.88 C 174.49 21.60 175.84 21.05 176.51 20.77 C 176.94 20.99 177.79 21.44 178.21 21.66 L 178.66 21.86 C 177.27 22.62 175.72 23.21 174.12 23.00 L 173.62 22.50 L 173.81 21.88 Z" />
<path fill="#8ba4b6" opacity="1.00" d=" M 101.06 22.43 L 101.29 22.07 C 101.76 21.96 102.70 21.74 103.17 21.62 C 103.91 21.96 105.39 22.62 106.14 22.95 L 106.38 23.54 L 105.95 23.97 C 104.21 23.92 102.56 23.28 101.06 22.43 Z" />
<path fill="#8ba4b6" opacity="1.00" d=" M 213.10 22.43 L 213.32 22.07 C 213.80 21.98 214.76 21.78 215.24 21.69 C 216.00 22.06 217.53 22.81 218.29 23.19 L 218.53 23.77 L 217.99 24.10 C 216.24 23.96 214.59 23.32 213.10 22.43 Z" />
</g>
<g id="#4278c9ff">
<path fill="#4278c9" opacity="1.00" d=" M 98.82 25.70 C 99.58 24.62 100.33 23.53 101.06 22.43 C 102.56 23.28 104.21 23.92 105.95 23.97 C 105.24 24.96 104.55 25.97 103.87 26.99 C 107.26 27.13 110.65 27.21 114.04 27.30 C 111.06 29.07 108.08 30.83 105.11 32.62 C 106.73 35.05 108.73 37.20 110.67 39.38 C 105.78 38.15 100.89 36.87 96.23 34.92 C 96.49 34.01 96.76 33.10 97.03 32.19 C 99.02 33.08 101.02 33.94 103.00 34.86 C 103.60 33.28 104.23 31.72 104.86 30.15 C 102.78 28.77 100.62 27.45 98.82 25.70 M 101.15 24.40 C 100.30 28.38 105.14 23.58 101.15 24.40 Z" />
<path fill="#4278c9" opacity="1.00" d=" M 210.82 25.70 C 211.59 24.62 212.35 23.53 213.10 22.43 C 214.59 23.32 216.24 23.96 217.99 24.10 C 217.31 24.51 215.96 25.35 215.28 25.77 L 214.61 26.12 C 215.13 22.78 210.77 25.38 213.93 26.47 C 216.24 27.52 218.62 28.40 221.01 29.24 C 219.88 30.98 218.69 32.71 218.00 34.68 C 219.41 36.43 221.15 37.85 222.81 39.33 C 217.86 38.18 212.92 36.92 208.23 34.91 C 208.49 34.00 208.76 33.09 209.03 32.19 C 211.02 33.08 213.02 33.94 215.00 34.86 C 215.60 33.28 216.23 31.72 216.86 30.15 C 214.78 28.77 212.62 27.45 210.82 25.70 Z" />
</g>
<g id="#65569cff">
<path fill="#65569c" opacity="1.00" d=" M 115.63 22.18 L 116.09 22.03 C 116.43 21.97 117.10 21.83 117.43 21.77 L 118.84 21.52 C 118.72 22.93 118.58 24.33 118.41 25.74 C 116.52 24.90 114.61 24.11 112.70 23.35 C 113.67 22.95 114.65 22.56 115.63 22.18 Z" />
<path fill="#65569c" opacity="1.00" d=" M 122.14 22.11 C 123.44 22.78 123.43 23.46 122.11 24.14 C 120.81 23.47 120.82 22.80 122.14 22.11 Z" />
<path fill="#65569c" opacity="1.00" d=" M 59.64 23.08 L 60.15 22.82 C 60.48 22.76 61.14 22.65 61.47 22.60 L 62.01 23.04 C 62.61 23.58 63.80 24.65 64.40 25.19 C 61.80 25.19 59.20 25.07 56.61 24.91 C 57.61 24.28 58.62 23.67 59.64 23.08 Z" />
<path fill="#65569c" opacity="1.00" d=" M 66.14 23.11 C 67.44 23.78 67.43 24.46 66.11 25.14 C 64.81 24.47 64.82 23.80 66.14 23.11 Z" />
<path fill="#65569c" opacity="1.00" d=" M 157.15 23.40 C 161.14 22.58 156.30 27.38 157.15 23.40 Z" />
<path fill="#65569c" opacity="1.00" d=" M 161.57 22.54 L 162.63 22.72 C 162.94 22.78 163.56 22.90 163.87 22.96 L 164.23 23.08 C 165.27 23.52 166.31 23.96 167.34 24.43 C 165.63 25.08 163.93 25.73 162.20 26.30 L 161.06 26.54 C 161.27 25.21 161.41 23.87 161.57 22.54 Z" />
<path fill="#65569c" opacity="1.00" d=" M 171.84 22.99 L 172.32 22.79 C 172.64 22.72 173.29 22.57 173.62 22.50 L 174.12 23.00 C 174.32 23.26 174.74 23.78 174.95 24.04 C 174.84 24.94 174.70 25.83 174.57 26.72 C 172.62 25.95 170.67 25.19 168.72 24.43 C 169.75 23.94 170.79 23.46 171.84 22.99 Z" />
<path fill="#65569c" opacity="1.00" d=" M 178.14 23.11 C 179.44 23.78 179.43 24.46 178.11 25.14 C 176.81 24.47 176.82 23.80 178.14 23.11 Z" />
<path fill="#65569c" opacity="1.00" d=" M 3.50 23.41 L 4.21 23.68 C 4.56 23.71 5.28 23.77 5.63 23.80 L 6.84 23.57 C 6.73 24.71 6.61 25.86 6.48 27.01 C 4.69 26.58 2.89 26.17 1.09 25.77 C 1.89 24.98 2.70 24.19 3.50 23.41 Z" />
<path fill="#65569c" opacity="1.00" d=" M 10.14 24.11 C 11.44 24.78 11.43 25.46 10.11 26.14 C 8.81 25.47 8.82 24.80 10.14 24.11 Z" />
<path fill="#65569c" opacity="1.00" d=" M 101.15 24.40 C 105.14 23.58 100.30 28.38 101.15 24.40 Z" />
<path fill="#65569c" opacity="1.00" d=" M 105.95 23.97 L 106.38 23.54 C 106.73 23.61 107.41 23.75 107.75 23.81 L 108.22 24.00 C 109.27 24.51 110.32 25.03 111.36 25.56 C 108.87 26.06 106.37 26.54 103.87 26.99 C 104.55 25.97 105.24 24.96 105.95 23.97 Z" />
<path fill="#65569c" opacity="1.00" d=" M 213.93 26.47 C 210.77 25.38 215.13 22.78 214.61 26.12 L 213.93 26.47 Z" />
<path fill="#65569c" opacity="1.00" d=" M 217.99 24.10 L 218.53 23.77 C 218.86 23.78 219.53 23.80 219.86 23.81 L 220.33 24.03 C 221.35 24.64 222.37 25.26 223.38 25.90 C 220.68 25.92 217.98 25.83 215.28 25.77 C 215.96 25.35 217.31 24.51 217.99 24.10 Z" />
<path fill="#65569c" opacity="1.00" d=" M 45.15 25.40 C 49.14 24.58 44.30 29.38 45.15 25.40 Z" />
<path fill="#65569c" opacity="1.00" d=" M 49.34 24.56 L 50.31 24.76 C 50.67 24.71 51.38 24.62 51.73 24.57 L 52.41 24.29 C 53.28 25.24 54.14 26.20 55.01 27.16 C 52.73 27.20 50.45 27.27 48.17 27.37 C 48.46 26.67 49.05 25.26 49.34 24.56 Z" />
</g>
<g id="#437acafe">
<path fill="#437aca" opacity="1.00" d=" M 134.21 24.03 C 137.84 22.33 141.50 24.54 144.69 26.15 C 140.59 26.20 136.36 25.30 132.36 26.35 C 130.79 27.12 128.44 29.96 130.83 31.10 C 135.64 35.25 142.73 33.97 148.03 31.47 C 147.57 29.81 147.11 28.17 146.64 26.52 C 148.23 28.26 149.53 30.39 151.60 31.63 C 154.03 32.66 156.67 33.02 159.22 33.68 C 159.92 31.32 160.62 28.96 161.06 26.54 L 162.20 26.30 C 165.74 26.90 169.24 27.70 172.74 28.50 C 169.16 29.22 164.82 28.57 162.01 31.24 C 161.41 34.57 164.84 36.33 166.78 38.41 C 159.63 36.81 152.00 32.32 144.72 35.66 C 141.31 38.83 140.55 44.08 136.63 46.97 C 137.38 44.09 138.43 41.24 138.66 38.25 C 136.15 34.55 130.46 35.26 126.57 33.72 C 128.89 30.31 129.76 25.28 134.21 24.03 Z" />
</g>
<g id="#4278cbff">
<path fill="#4278cb" opacity="1.00" d=" M 103.28 38.64 C 103.33 40.51 103.37 42.39 103.33 44.26 C 107.79 44.79 112.27 45.33 116.76 45.25 C 116.06 46.75 115.38 48.25 114.72 49.77 C 113.66 48.49 112.58 47.22 111.52 45.95 C 107.45 45.90 103.51 47.03 99.50 47.38 C 95.25 46.17 90.92 45.22 86.56 44.46 C 91.20 42.49 96.04 44.05 100.79 44.42 C 101.63 42.50 102.44 40.56 103.28 38.64 Z" />
</g>
<g id="#4378cbff">
<path fill="#4378cb" opacity="1.00" d=" M 34.88 42.80 C 38.94 45.64 44.16 43.82 46.99 40.11 C 46.65 41.48 46.30 42.86 45.97 44.25 C 49.46 45.09 52.92 46.07 56.45 46.77 C 53.04 46.72 49.64 46.69 46.24 46.44 C 45.42 47.37 44.60 48.30 43.79 49.23 C 40.50 45.57 35.51 44.94 30.88 45.69 C 32.23 44.75 33.57 43.80 34.88 42.80 Z" />
</g>
<g id="#4379cbff">
<path fill="#4379cb" opacity="1.00" d=" M 198.56 44.35 C 206.97 42.30 215.54 44.92 224.00 45.12 L 224.00 45.86 C 218.93 46.18 213.72 47.96 208.65 46.66 C 205.27 45.96 201.90 45.21 198.56 44.35 Z" />
</g>
<g id="#4575cbff">
<path fill="#4575cb" opacity="1.00" d=" M 163.95 44.23 C 164.58 43.19 166.42 43.19 167.05 44.23 C 167.35 45.99 163.65 45.99 163.95 44.23 Z" />
</g>
<g id="#4179cbff">
<path fill="#4179cb" opacity="1.00" d=" M 131.00 47.35 C 131.84 46.72 132.69 46.10 133.54 45.49 C 138.93 49.27 145.09 51.82 150.23 56.00 L 139.81 56.00 C 139.22 55.58 138.03 54.75 137.43 54.34 C 139.48 54.01 143.58 53.35 145.63 53.02 C 140.11 49.86 133.57 50.65 128.11 53.49 C 130.02 51.81 131.93 50.14 133.83 48.45 C 133.12 48.18 131.71 47.62 131.00 47.35 Z" />
</g>
<g id="#427acbff">
<path fill="#427acb" opacity="1.00" d=" M 2.86 47.80 C 4.52 47.43 6.18 47.01 7.83 46.60 C 6.84 47.99 5.79 49.34 4.75 50.69 C 6.87 52.13 9.00 53.56 11.12 54.98 C 8.38 54.75 5.64 54.48 2.91 54.24 C 3.08 52.09 3.02 49.94 2.86 47.80 Z" />
</g>
<g id="#4279caff">
<path fill="#4279ca" opacity="1.00" d=" M 113.52 51.43 C 116.92 49.54 120.47 50.77 123.43 52.86 C 120.11 52.50 116.81 51.96 113.52 51.43 Z" />
</g>
<g id="#3686d0ff">
<path fill="#3686d0" opacity="1.00" d=" M 42.81 51.64 C 44.01 51.44 45.21 51.22 46.40 51.00 C 44.85 51.98 43.34 53.03 41.88 54.16 C 42.11 53.53 42.58 52.27 42.81 51.64 Z" />
</g>
<g id="#809db3ff">
<path fill="#809db3" opacity="1.00" d=" M 46.40 51.00 L 47.55 50.72 C 47.04 51.85 46.50 52.97 45.95 54.08 C 45.45 54.56 44.45 55.52 43.95 56.00 L 41.17 56.00 C 41.35 55.54 41.70 54.62 41.88 54.16 C 43.34 53.03 44.85 51.98 46.40 51.00 Z" />
</g>
<g id="#332e2aff">
<path fill="#332e2a" opacity="1.00" d=" M 45.95 54.08 C 48.61 52.02 51.82 50.83 55.12 50.19 L 55.46 51.40 C 52.83 52.90 50.24 54.47 47.63 56.00 L 43.95 56.00 C 44.45 55.52 45.45 54.56 45.95 54.08 Z" />
<path fill="#332e2a" opacity="1.00" d=" M 102.97 52.06 C 105.75 51.81 108.46 51.21 111.22 50.81 L 111.43 51.57 C 108.80 52.99 106.23 54.50 103.64 56.00 L 100.86 56.00 L 100.85 55.49 C 101.90 54.54 102.61 53.40 102.97 52.06 Z" />
<path fill="#332e2a" opacity="1.00" d=" M 157.86 53.16 C 160.95 52.21 164.01 51.20 167.18 50.51 L 167.46 51.46 C 164.83 52.92 162.25 54.47 159.66 56.00 L 156.63 56.00 C 156.93 55.29 157.55 53.87 157.86 53.16 Z" />
<path fill="#332e2a" opacity="1.00" d=" M 214.99 52.19 C 218.03 51.82 220.99 51.14 224.00 50.54 L 224.00 51.09 C 221.23 52.73 218.49 54.38 215.71 56.00 L 212.85 56.00 L 212.83 55.51 C 213.88 54.60 214.60 53.49 214.99 52.19 Z" />
</g>
<g id="#74a05cff">
<path fill="#74a05c" opacity="1.00" d=" M 47.63 56.00 C 50.24 54.47 52.83 52.90 55.46 51.40 C 55.87 52.93 56.26 54.46 56.64 56.00 L 47.63 56.00 Z" />
<path fill="#74a05c" opacity="1.00" d=" M 103.64 56.00 C 106.23 54.50 108.80 52.99 111.43 51.57 C 111.84 53.06 112.27 54.53 112.72 56.00 L 103.64 56.00 Z" />
<path fill="#74a05c" opacity="1.00" d=" M 159.66 56.00 C 162.25 54.47 164.83 52.92 167.46 51.46 C 167.87 52.97 168.27 54.48 168.65 56.00 L 159.66 56.00 Z" />
<path fill="#74a05c" opacity="1.00" d=" M 215.71 56.00 C 218.49 54.38 221.23 52.73 224.00 51.09 L 224.00 56.00 L 215.71 56.00 Z" />
</g>
<g id="#2e83d0ff">
<path fill="#2e83d0" opacity="1.00" d=" M 97.45 56.00 C 98.85 54.54 100.25 53.10 101.68 51.67 C 100.35 52.52 100.62 54.18 100.85 55.49 L 100.86 56.00 L 97.45 56.00 Z" />
<path fill="#2e83d0" opacity="1.00" d=" M 209.44 56.00 C 210.84 54.55 212.26 53.12 213.70 51.71 C 212.35 52.53 212.61 54.20 212.83 55.51 L 212.85 56.00 L 209.44 56.00 Z" />
</g>
<g id="#67839bff">
<path fill="#67839b" opacity="1.00" d=" M 101.68 51.67 C 102.00 51.77 102.65 51.96 102.97 52.06 C 102.61 53.40 101.90 54.54 100.85 55.49 C 100.62 54.18 100.35 52.52 101.68 51.67 Z" />
<path fill="#67839b" opacity="1.00" d=" M 213.70 51.71 C 214.03 51.83 214.67 52.07 214.99 52.19 C 214.60 53.49 213.88 54.60 212.83 55.51 C 212.61 54.20 212.35 52.53 213.70 51.71 Z" />
</g>
<g id="#2e86d2ff">
<path fill="#2e86d2" opacity="1.00" d=" M 154.22 56.00 C 154.55 54.23 156.23 53.39 157.86 53.16 C 157.55 53.87 156.93 55.29 156.63 56.00 L 154.22 56.00 Z" />
</g>
</svg>
