<?xml version="1.0" encoding="UTF-8" ?>
<!DOCTYPE svg PUBLIC "-//W3C//DTD SVG 1.1//EN" "http://www.w3.org/Graphics/SVG/1.1/DTD/svg11.dtd">
<svg width="224pt" height="56pt" viewBox="0 0 224 56" version="1.1" xmlns="http://www.w3.org/2000/svg">
<g id="#81ab59fe">
<path fill="#81ab59" opacity="1.00" d=" M 0.00 0.00 L 10.34 0.00 C 10.24 0.55 10.02 1.66 9.91 2.21 C 7.87 2.75 5.82 3.31 3.77 3.83 C 3.25 5.29 2.74 6.76 2.24 8.23 C 1.86 8.18 1.09 8.09 0.70 8.04 C 2.16 6.97 1.29 5.03 0.00 4.29 L 0.00 0.00 Z" />
</g>
<g id="#342f2aff">
<path fill="#342f2a" opacity="1.00" d=" M 10.34 0.00 L 13.39 0.00 C 13.26 0.55 13.02 1.64 12.89 2.19 C 12.13 5.70 11.01 9.26 11.74 12.86 C 12.40 10.55 13.05 8.22 13.35 5.83 C 14.29 10.20 13.06 14.45 12.11 18.66 L 12.02 19.10 C 11.66 19.33 10.95 19.80 10.59 20.03 C 10.26 16.31 9.68 12.61 9.04 8.94 C 8.34 9.08 6.95 9.36 6.25 9.50 C 6.86 13.61 7.53 17.71 8.06 21.83 C 7.57 22.22 6.60 23.01 6.11 23.40 C 5.68 22.84 4.83 21.72 4.41 21.16 C 5.07 19.94 4.71 18.51 4.14 17.34 C 3.73 17.72 2.90 18.49 2.49 18.88 C 2.19 19.20 1.58 19.84 1.27 20.17 C 0.95 20.51 0.32 21.18 0.00 21.52 L 0.00 7.94 L 0.70 8.04 C 1.09 8.09 1.86 8.18 2.24 8.23 C 4.37 8.34 6.60 8.34 8.57 7.41 C 9.52 5.84 9.57 3.96 9.91 2.21 C 10.02 1.66 10.24 0.55 10.34 0.00 M 3.83 11.50 C 4.66 14.24 5.81 16.87 7.12 19.41 C 7.22 16.29 5.58 13.80 3.83 11.50 Z" />
</g>
<g id="#268dd9ff">
<path fill="#268dd9" opacity="1.00" d=" M 13.39 0.00 L 16.11 0.00 L 15.33 0.82 C 13.47 1.85 13.92 4.56 16.20 4.46 C 16.59 8.31 16.96 12.17 17.28 16.03 C 16.65 15.18 16.02 14.33 15.39 13.48 C 15.29 13.62 15.08 13.89 14.98 14.03 C 13.60 15.28 12.44 16.79 12.11 18.66 C 13.06 14.45 14.29 10.20 13.35 5.83 C 13.22 4.61 13.07 3.40 12.89 2.19 C 13.02 1.64 13.26 0.55 13.39 0.00 Z" />
<path fill="#268dd9" opacity="1.00" d=" M 69.01 0.00 L 70.24 0.00 C 70.47 0.36 70.93 1.08 71.16 1.44 C 70.30 2.59 70.25 5.10 72.25 4.89 C 71.97 8.10 71.77 11.31 71.44 14.51 C 70.07 15.12 68.87 16.06 67.92 17.22 C 69.42 13.61 70.57 9.75 69.40 5.79 C 69.27 4.60 69.12 3.41 68.95 2.22 C 68.97 1.66 68.99 0.55 69.01 0.00 Z" />
<path fill="#268dd9" opacity="1.00" d=" M 181.01 0.00 L 182.24 0.00 C 182.47 0.36 182.93 1.08 183.16 1.44 C 182.30 2.59 182.25 5.10 184.25 4.89 C 183.97 8.10 183.77 11.31 183.44 14.51 C 182.07 15.12 180.87 16.06 179.92 17.22 C 181.42 13.61 182.57 9.75 181.40 5.79 C 181.27 4.60 181.12 3.41 180.95 2.22 C 180.97 1.66 180.99 0.55 181.01 0.00 Z" />
</g>
<g id="#3c6bbeff">
<path fill="#3c6bbe" opacity="1.00" d=" M 16.11 0.00 L 25.75 0.00 C 26.71 1.15 27.61 2.33 28.52 3.52 C 24.41 4.57 19.91 4.73 16.09 2.63 C 15.90 2.18 15.52 1.28 15.33 0.82 L 16.11 0.00 Z" />
<path fill="#3c6bbe" opacity="1.00" d=" M 30.09 0.00 L 31.94 0.00 C 32.78 1.20 33.56 2.44 34.33 3.68 C 32.16 5.91 29.35 7.79 28.18 10.79 C 28.07 12.68 28.85 14.51 29.21 16.35 C 30.12 13.94 30.70 11.34 32.20 9.20 C 34.42 8.48 36.70 8.02 39.05 7.82 L 39.66 8.17 C 40.46 8.78 41.26 9.41 42.04 10.06 C 41.84 11.64 41.43 14.80 41.23 16.39 L 41.14 17.04 C 41.38 18.50 41.85 19.92 42.39 21.30 C 42.18 21.63 41.77 22.30 41.57 22.63 C 40.59 25.37 40.77 28.29 41.33 31.09 L 41.43 31.87 L 40.84 31.51 C 36.98 28.97 32.44 27.49 28.99 24.33 C 29.13 26.62 29.18 28.91 29.22 31.20 C 33.09 31.52 36.98 31.80 40.81 32.44 C 40.55 36.18 40.25 39.97 41.07 43.65 C 40.49 45.16 39.90 46.65 39.31 48.15 C 40.07 49.51 40.82 50.87 41.60 52.22 L 41.99 52.88 C 41.49 53.93 40.98 54.97 40.45 56.00 L 16.67 56.00 C 20.41 53.52 24.78 52.72 29.17 52.26 C 27.36 51.61 25.55 50.96 23.74 50.32 C 25.57 47.39 27.44 44.50 29.28 41.58 C 31.71 41.88 34.15 42.15 36.59 42.44 C 31.27 38.08 25.01 35.15 18.88 32.17 C 22.75 28.55 28.49 26.33 29.52 20.52 C 27.08 19.90 24.64 19.24 22.20 18.60 C 24.14 20.71 26.23 22.70 28.09 24.89 C 24.38 26.44 20.47 27.45 16.44 27.58 C 17.50 29.43 18.62 31.26 19.63 33.14 C 13.44 35.97 6.68 37.01 0.00 37.95 L 0.00 31.04 C 3.11 30.01 6.16 28.78 9.19 27.53 C 8.53 27.39 7.22 27.10 6.56 26.96 C 6.67 25.82 6.77 24.69 6.85 23.56 C 8.34 23.19 9.81 22.72 11.26 22.24 L 11.60 22.59 L 12.07 23.06 C 13.08 24.04 14.16 24.95 15.23 25.85 C 15.41 22.75 15.21 19.65 15.14 16.55 C 15.10 15.92 15.02 14.66 14.98 14.03 C 15.08 13.89 15.29 13.62 15.39 13.48 C 16.02 14.33 16.65 15.18 17.28 16.03 C 16.96 12.17 16.59 8.31 16.20 4.46 C 18.96 5.51 21.76 6.81 24.74 6.92 C 27.72 5.93 28.60 2.41 30.09 0.00 M 10.14 24.11 C 8.82 24.80 8.81 25.47 10.11 26.14 C 11.43 25.46 11.44 24.78 10.14 24.11 M 34.57 44.34 C 32.52 46.43 30.37 48.41 28.30 50.48 C 31.16 49.50 34.04 48.54 36.93 47.64 C 36.16 46.53 35.37 45.43 34.57 44.34 Z" />
<path fill="#3c6bbe" opacity="1.00" d=" M 33.44 0.00 L 40.15 0.00 C 39.10 1.61 40.48 3.25 41.60 4.34 C 41.76 4.78 42.06 5.67 42.22 6.11 C 41.05 6.48 39.92 6.95 38.83 7.52 C 36.88 5.13 35.25 2.50 33.44 0.00 Z" />
<path fill="#3c6bbe" opacity="1.00" d=" M 48.43 22.55 C 46.18 19.64 50.57 19.89 50.03 22.85 C 49.63 22.78 48.83 22.63 48.43 22.55 Z" />
<path fill="#3c6bbe" opacity="1.00" d=" M 104.42 22.52 C 102.17 19.61 106.59 19.90 106.04 22.84 C 105.63 22.76 104.82 22.60 104.42 22.52 Z" />
<path fill="#3c6bbe" opacity="1.00" d=" M 160.43 22.51 C 158.16 19.61 162.59 19.89 162.04 22.84 C 161.64 22.76 160.83 22.60 160.43 22.51 Z" />
<path fill="#3c6bbe" opacity="1.00" d=" M 216.42 22.52 C 214.17 19.62 218.59 19.89 218.04 22.84 C 217.63 22.76 216.82 22.60 216.42 22.52 Z" />
<path fill="#3c6bbe" opacity="1.00" d=" M 44.17 22.92 C 44.78 22.78 46.01 22.51 46.62 22.37 L 46.50 23.15 C 46.22 23.37 45.66 23.81 45.38 24.04 C 45.08 23.76 44.47 23.20 44.17 22.92 Z" />
<path fill="#3c6bbe" opacity="1.00" d=" M 100.20 22.71 C 100.81 22.60 102.02 22.37 102.62 22.26 L 102.49 23.04 C 102.22 23.25 101.66 23.66 101.38 23.87 C 101.09 23.58 100.50 23.00 100.20 22.71 Z" />
<path fill="#3c6bbe" opacity="1.00" d=" M 156.21 22.72 C 156.82 22.60 158.04 22.37 158.65 22.25 L 158.52 23.03 C 158.24 23.24 157.69 23.66 157.42 23.87 C 157.11 23.58 156.51 23.01 156.21 22.72 Z" />
<path fill="#3c6bbe" opacity="1.00" d=" M 212.20 22.71 C 212.81 22.60 214.02 22.37 214.62 22.26 L 214.49 23.04 C 214.22 23.25 213.66 23.66 213.38 23.87 C 213.09 23.58 212.50 23.00 212.20 22.71 Z" />
<path fill="#3c6bbe" opacity="1.00" d=" M 47.73 24.47 L 48.52 24.49 C 48.64 25.54 49.11 26.38 49.95 27.02 C 49.69 27.32 49.17 27.93 48.91 28.23 L 48.23 27.86 C 48.05 27.18 47.68 25.83 47.49 25.15 L 47.73 24.47 Z" />
<path fill="#3c6bbe" opacity="1.00" d=" M 103.74 24.40 L 104.53 24.46 C 104.63 25.51 105.10 26.36 105.93 27.02 C 105.67 27.31 105.15 27.91 104.89 28.21 L 104.22 27.83 C 104.04 27.14 103.68 25.75 103.50 25.06 L 103.74 24.40 Z" />
<path fill="#3c6bbe" opacity="1.00" d=" M 159.76 24.40 L 160.55 24.46 C 160.64 25.51 161.11 26.37 161.94 27.02 C 161.68 27.32 161.15 27.92 160.89 28.22 L 160.22 27.84 C 160.04 27.15 159.69 25.77 159.52 25.07 L 159.76 24.40 Z" />
<path fill="#3c6bbe" opacity="1.00" d=" M 215.74 24.40 L 216.53 24.46 C 216.63 25.52 217.10 26.37 217.93 27.02 C 217.67 27.32 217.15 27.91 216.89 28.21 L 216.22 27.83 C 216.04 27.14 215.68 25.76 215.50 25.06 L 215.74 24.40 Z" />
<path fill="#3c6bbe" opacity="1.00" d=" M 8.41 40.52 C 11.03 38.62 13.75 36.36 17.14 36.21 C 21.38 35.95 24.96 38.65 28.23 40.97 C 25.81 42.79 23.19 44.29 20.67 45.96 C 21.02 47.50 21.38 49.04 21.72 50.58 C 19.71 52.39 17.77 54.28 15.69 56.00 L 0.00 56.00 L 0.00 38.46 C 2.84 39.15 6.60 38.86 8.22 41.83 C 10.05 44.64 12.73 46.67 15.80 47.97 C 13.42 45.41 10.86 43.01 8.41 40.52 M 2.30 47.93 C 2.82 49.21 3.38 50.49 3.91 51.77 C 3.31 52.54 2.72 53.32 2.15 54.11 C 5.15 54.41 8.15 54.72 11.15 54.99 C 8.99 53.59 6.88 52.13 4.74 50.70 C 5.77 49.32 6.83 47.97 7.88 46.61 C 6.02 47.05 4.15 47.45 2.30 47.93 Z" />
</g>
<g id="#4278cbff">
<path fill="#4278cb" opacity="1.00" d=" M 25.75 0.00 L 30.09 0.00 C 28.60 2.41 27.72 5.93 24.74 6.92 C 21.76 6.81 18.96 5.51 16.20 4.46 C 16.17 4.00 16.12 3.09 16.09 2.63 C 19.91 4.73 24.41 4.57 28.52 3.52 C 27.61 2.33 26.71 1.15 25.75 0.00 Z" />
<path fill="#4278cb" opacity="1.00" d=" M 185.69 26.93 C 189.58 26.18 193.44 25.32 197.33 24.53 C 193.20 26.22 187.75 26.91 186.18 31.82 C 191.77 36.12 200.03 34.95 204.54 40.77 C 201.87 40.09 199.21 39.37 196.56 38.61 C 195.27 42.30 193.34 45.71 191.28 49.01 C 194.81 49.73 197.79 51.71 199.49 54.94 C 197.02 53.59 194.74 51.76 191.99 51.01 C 189.36 51.64 187.28 53.49 185.06 54.92 C 184.86 54.59 184.47 53.93 184.28 53.59 C 186.15 52.38 187.99 51.13 189.81 49.85 C 189.19 49.47 187.93 48.72 187.31 48.34 C 191.25 45.79 193.69 41.69 194.50 37.10 C 187.93 34.15 181.36 36.60 175.40 39.48 C 176.88 42.45 179.33 44.70 182.01 46.58 C 177.06 46.12 174.61 41.86 172.34 38.04 C 176.51 36.73 181.16 36.40 184.83 33.86 C 185.50 31.62 185.41 29.24 185.69 26.93 Z" />
</g>
<g id="#4579caff">
<path fill="#4579ca" opacity="1.00" d=" M 31.94 0.00 L 33.44 0.00 C 35.25 2.50 36.88 5.13 38.83 7.52 L 39.05 7.82 C 36.70 8.02 34.42 8.48 32.20 9.20 C 30.70 11.34 30.12 13.94 29.21 16.35 C 28.85 14.51 28.07 12.68 28.18 10.79 C 29.35 7.79 32.16 5.91 34.33 3.68 C 33.56 2.44 32.78 1.20 31.94 0.00 Z" />
</g>
<g id="#268ed9fe">
<path fill="#268ed9" opacity="1.00" d=" M 40.15 0.00 L 41.72 0.00 C 42.18 1.43 42.15 2.88 41.60 4.34 C 40.48 3.25 39.10 1.61 40.15 0.00 Z" />
<path fill="#268ed9" opacity="1.00" d=" M 41.33 31.09 C 40.77 28.29 40.59 25.37 41.57 22.63 C 41.90 23.62 42.33 24.56 42.87 25.46 C 42.95 26.01 43.10 27.10 43.18 27.65 L 43.32 28.96 C 42.82 29.50 41.83 30.56 41.33 31.09 Z" />
</g>
<g id="#8aa3b5ff">
<path fill="#8aa3b5" opacity="1.00" d=" M 41.72 0.00 L 42.94 0.00 C 43.23 0.56 43.80 1.69 44.09 2.26 C 43.72 3.13 43.39 4.02 43.08 4.92 C 42.98 5.52 42.78 6.71 42.68 7.31 C 42.56 7.01 42.33 6.41 42.22 6.11 C 42.06 5.67 41.76 4.78 41.60 4.34 C 42.15 2.88 42.18 1.43 41.72 0.00 Z" />
</g>
<g id="#332e2aff">
<path fill="#332e2a" opacity="1.00" d=" M 42.94 0.00 L 44.48 0.00 C 44.38 0.56 44.19 1.69 44.09 2.26 C 43.80 1.69 43.23 0.56 42.94 0.00 Z" />
<path fill="#332e2a" opacity="1.00" d=" M 48.02 0.00 L 50.32 0.00 C 50.35 0.28 50.40 0.83 50.43 1.11 C 48.97 2.97 44.85 1.97 48.02 0.00 Z" />
<path fill="#332e2a" opacity="1.00" d=" M 103.98 0.00 L 106.30 0.00 C 106.33 0.28 106.39 0.83 106.42 1.11 C 104.98 2.95 100.86 1.99 103.98 0.00 Z" />
<path fill="#332e2a" opacity="1.00" d=" M 155.25 0.00 L 156.86 0.00 C 156.48 0.60 155.71 1.79 155.33 2.39 C 155.31 1.79 155.27 0.60 155.25 0.00 Z" />
<path fill="#332e2a" opacity="1.00" d=" M 160.01 0.00 L 162.32 0.00 C 162.35 0.28 162.40 0.83 162.43 1.11 C 160.97 2.97 156.86 1.97 160.01 0.00 Z" />
<path fill="#332e2a" opacity="1.00" d=" M 216.17 0.00 L 218.48 0.00 C 218.51 0.31 218.56 0.92 218.58 1.23 C 217.37 2.03 215.89 2.10 214.49 2.06 C 214.97 1.31 215.53 0.62 216.17 0.00 Z" />
<path fill="#332e2a" opacity="1.00" d=" M 45.38 24.04 C 45.66 23.81 46.22 23.37 46.50 23.15 C 46.98 23.00 47.95 22.70 48.43 22.55 C 48.83 22.63 49.63 22.78 50.03 22.85 L 50.18 23.49 L 50.11 24.15 L 49.41 24.37 L 48.52 24.49 L 47.73 24.47 C 47.14 24.36 45.97 24.14 45.38 24.04 Z" />
<path fill="#332e2a" opacity="1.00" d=" M 101.38 23.87 C 101.66 23.66 102.22 23.25 102.49 23.04 C 102.98 22.91 103.94 22.65 104.42 22.52 C 104.82 22.60 105.63 22.76 106.04 22.84 L 106.19 23.48 L 106.12 24.14 L 105.42 24.36 L 104.53 24.46 L 103.74 24.40 C 103.15 24.27 101.97 24.00 101.38 23.87 Z" />
<path fill="#332e2a" opacity="1.00" d=" M 157.42 23.87 C 157.69 23.66 158.24 23.24 158.52 23.03 C 159.00 22.90 159.95 22.64 160.43 22.51 C 160.83 22.60 161.64 22.76 162.04 22.84 L 162.19 23.48 L 162.13 24.15 L 161.43 24.36 L 160.55 24.46 L 159.76 24.40 C 159.17 24.27 158.00 24.00 157.42 23.87 Z" />
<path fill="#332e2a" opacity="1.00" d=" M 213.38 23.87 C 213.66 23.66 214.22 23.25 214.49 23.04 C 214.97 22.91 215.94 22.65 216.42 22.52 C 216.82 22.60 217.63 22.76 218.04 22.84 L 218.19 23.47 L 218.12 24.14 L 217.42 24.36 L 216.53 24.46 L 215.74 24.40 C 215.15 24.27 213.97 24.00 213.38 23.87 Z" />
</g>
<g id="#525548ff">
<path fill="#525548" opacity="1.00" d=" M 44.48 0.00 L 48.02 0.00 C 44.85 1.97 48.97 2.97 50.43 1.11 C 50.51 2.35 50.50 3.59 50.43 4.83 C 47.98 4.81 45.53 4.83 43.08 4.92 C 43.39 4.02 43.72 3.13 44.09 2.26 C 44.19 1.69 44.38 0.56 44.48 0.00 Z" />
<path fill="#525548" opacity="1.00" d=" M 101.15 0.00 L 103.98 0.00 C 100.86 1.99 104.98 2.95 106.42 1.11 C 106.51 2.38 106.49 3.66 106.42 4.93 C 103.93 4.79 101.45 4.69 98.96 4.62 L 98.96 3.88 C 100.00 2.79 100.89 1.52 101.15 0.00 Z" />
<path fill="#525548" opacity="1.00" d=" M 156.86 0.00 L 160.01 0.00 C 156.86 1.97 160.97 2.97 162.43 1.11 C 162.51 2.37 162.50 3.63 162.42 4.88 C 160.10 4.82 157.79 4.78 155.48 4.81 C 155.42 4.00 155.37 3.19 155.33 2.39 C 155.71 1.79 156.48 0.60 156.86 0.00 Z" />
<path fill="#525548" opacity="1.00" d=" M 213.15 0.00 L 216.17 0.00 C 215.53 0.62 214.97 1.31 214.49 2.06 C 215.89 2.10 217.37 2.03 218.58 1.23 C 218.58 2.47 218.51 3.70 218.40 4.93 C 215.92 4.79 213.44 4.69 210.96 4.62 L 210.96 3.88 C 212.00 2.79 212.89 1.52 213.15 0.00 Z" />
</g>
<g id="#80aa5dff">
<path fill="#80aa5d" opacity="1.00" d=" M 50.32 0.00 L 66.31 0.00 C 66.21 0.56 66.00 1.67 65.90 2.22 C 63.86 2.76 61.82 3.30 59.78 3.82 C 59.29 5.21 58.81 6.60 58.32 7.99 C 57.58 7.84 56.84 7.68 56.10 7.50 C 57.02 6.16 57.11 2.46 54.76 2.97 C 54.01 4.42 55.25 5.99 55.62 7.40 C 55.68 7.75 55.82 8.46 55.88 8.81 C 54.44 9.54 53.00 10.28 51.56 11.02 C 51.93 8.63 52.34 6.25 52.78 3.88 C 51.96 4.56 51.15 5.24 50.33 5.91 L 50.43 4.83 C 50.50 3.59 50.51 2.35 50.43 1.11 C 50.40 0.83 50.35 0.28 50.32 0.00 Z" />
<path fill="#80aa5d" opacity="1.00" d=" M 106.30 0.00 L 122.32 0.00 C 122.21 0.56 122.01 1.67 121.90 2.22 C 119.86 2.76 117.82 3.30 115.78 3.82 C 115.29 5.21 114.80 6.60 114.32 7.99 C 113.58 7.84 112.84 7.68 112.10 7.50 C 113.02 6.16 113.11 2.46 110.76 2.97 C 110.01 4.42 111.24 5.99 111.61 7.40 C 111.68 7.75 111.81 8.46 111.88 8.82 C 110.44 9.54 109.00 10.28 107.57 11.02 C 107.93 8.63 108.34 6.25 108.77 3.88 C 107.96 4.57 107.14 5.27 106.33 5.96 L 106.42 4.93 C 106.49 3.66 106.51 2.38 106.42 1.11 C 106.39 0.83 106.33 0.28 106.30 0.00 Z" />
<path fill="#80aa5d" opacity="1.00" d=" M 162.32 0.00 L 178.31 0.00 C 178.21 0.56 178.00 1.67 177.90 2.22 C 175.86 2.76 173.82 3.30 171.78 3.82 C 171.28 5.21 170.80 6.60 170.32 7.99 C 169.58 7.84 168.84 7.68 168.10 7.50 C 169.02 6.16 169.11 2.46 166.76 2.97 C 166.01 4.42 167.25 5.99 167.62 7.40 C 167.68 7.75 167.82 8.46 167.88 8.81 C 166.44 9.54 165.00 10.28 163.57 11.01 C 163.93 8.63 164.33 6.25 164.78 3.88 C 163.96 4.57 163.14 5.25 162.33 5.93 L 162.42 4.88 C 162.50 3.63 162.51 2.37 162.43 1.11 C 162.40 0.83 162.35 0.28 162.32 0.00 Z" />
</g>
<g id="#342f2bff">
<path fill="#342f2b" opacity="1.00" d=" M 66.31 0.00 L 69.01 0.00 C 68.99 0.55 68.97 1.66 68.95 2.22 C 68.25 5.73 67.07 9.25 67.71 12.87 C 68.40 10.54 69.06 8.20 69.40 5.79 C 70.57 9.75 69.42 13.61 67.92 17.22 L 67.77 17.62 C 67.38 18.58 66.99 19.55 66.60 20.52 C 66.53 16.61 65.77 12.76 65.01 8.94 C 64.28 9.09 62.81 9.37 62.08 9.51 C 62.84 13.29 63.58 17.07 64.48 20.82 C 63.79 21.12 62.42 21.70 61.73 21.99 C 61.54 21.41 61.15 20.25 60.96 19.67 C 61.17 17.47 57.93 16.65 58.77 19.42 L 58.00 19.29 C 57.54 19.27 56.63 19.23 56.18 19.21 C 56.09 17.23 55.94 15.24 55.88 13.26 L 56.06 12.46 C 56.08 12.06 56.12 11.25 56.14 10.84 C 56.08 10.33 55.95 9.32 55.88 8.81 C 55.82 8.46 55.68 7.75 55.62 7.40 L 56.10 7.50 C 56.84 7.68 57.58 7.84 58.32 7.99 C 60.39 8.32 62.65 8.48 64.54 7.42 C 65.59 5.91 65.54 3.97 65.90 2.22 C 66.00 1.67 66.21 0.56 66.31 0.00 M 59.83 11.50 C 60.66 14.24 61.81 16.87 63.12 19.41 C 63.22 16.29 61.58 13.80 59.83 11.50 Z" />
<path fill="#342f2b" opacity="1.00" d=" M 122.32 0.00 L 124.98 0.00 C 124.93 0.56 124.84 1.67 124.79 2.23 C 124.21 5.75 123.12 9.27 123.70 12.85 C 124.40 10.52 125.08 8.17 125.48 5.77 C 125.71 7.01 126.18 9.51 126.41 10.76 C 125.81 12.36 125.10 13.91 124.33 15.44 C 124.08 15.78 123.60 16.45 123.35 16.78 C 122.40 14.22 121.48 11.65 120.57 9.08 C 119.98 9.19 118.78 9.40 118.18 9.51 C 118.78 12.96 119.47 16.40 120.08 19.86 C 119.59 20.26 118.61 21.06 118.12 21.46 C 117.34 19.69 115.63 18.32 113.65 18.27 C 113.28 18.26 112.55 18.23 112.18 18.22 C 112.09 16.57 112.01 14.91 111.94 13.25 L 112.09 12.46 C 112.10 12.05 112.13 11.25 112.15 10.84 C 112.08 10.34 111.95 9.32 111.88 8.82 C 111.81 8.46 111.68 7.75 111.61 7.40 L 112.10 7.50 C 112.84 7.68 113.58 7.84 114.32 7.99 C 116.38 8.31 118.65 8.49 120.54 7.42 C 121.61 5.91 121.53 3.96 121.90 2.22 C 122.01 1.67 122.21 0.56 122.32 0.00 M 115.83 11.50 C 116.66 14.24 117.80 16.87 119.12 19.41 C 119.21 16.29 117.59 13.80 115.83 11.50 Z" />
<path fill="#342f2b" opacity="1.00" d=" M 178.31 0.00 L 181.01 0.00 C 180.99 0.55 180.97 1.66 180.95 2.22 C 180.24 5.73 179.07 9.25 179.71 12.87 C 180.40 10.54 181.06 8.20 181.40 5.79 C 182.57 9.75 181.42 13.61 179.92 17.22 L 179.77 17.61 C 179.38 18.58 178.99 19.55 178.60 20.51 C 178.53 16.61 177.77 12.76 177.01 8.94 C 176.28 9.09 174.81 9.37 174.08 9.52 C 174.84 13.29 175.59 17.07 176.49 20.81 C 175.81 21.09 174.45 21.65 173.77 21.93 C 173.57 21.36 173.17 20.23 172.97 19.66 C 173.15 17.47 169.92 16.65 170.77 19.42 L 170.00 19.29 C 169.54 19.27 168.63 19.24 168.17 19.22 C 168.09 17.23 167.94 15.25 167.88 13.26 L 168.06 12.46 C 168.08 12.06 168.12 11.25 168.14 10.84 C 168.08 10.33 167.95 9.32 167.88 8.81 C 167.82 8.46 167.68 7.75 167.62 7.40 L 168.10 7.50 C 168.84 7.68 169.58 7.84 170.32 7.99 C 172.39 8.32 174.65 8.48 176.54 7.42 C 177.59 5.91 177.53 3.97 177.90 2.22 C 178.00 1.67 178.21 0.56 178.31 0.00 M 171.83 11.50 C 172.66 14.24 173.80 16.87 175.12 19.41 C 175.20 16.29 173.59 13.80 171.83 11.50 Z" />
</g>
<g id="#3c6cbffe">
<path fill="#3c6cbf" opacity="1.00" d=" M 70.24 0.00 L 90.57 0.00 C 90.63 1.23 90.69 2.47 90.77 3.70 C 86.33 6.07 81.42 9.18 83.32 15.36 C 85.79 11.42 89.05 7.98 93.38 6.10 C 93.00 4.06 92.66 2.02 92.23 0.00 L 97.39 0.00 C 95.72 10.20 97.05 20.55 97.50 30.78 L 97.51 31.58 C 97.61 38.49 96.59 45.44 97.46 52.32 L 97.59 53.11 C 97.77 53.83 98.14 55.28 98.33 56.00 L 55.64 56.00 C 55.67 54.51 55.70 53.03 55.75 51.55 C 55.78 51.11 55.83 50.24 55.86 49.81 L 55.88 49.25 C 55.99 42.07 55.87 34.90 55.74 27.73 L 55.79 26.97 C 55.94 24.94 56.07 22.91 56.13 20.88 L 56.77 21.31 C 57.69 21.98 58.67 22.56 59.71 23.04 C 58.67 23.66 57.64 24.28 56.63 24.93 C 59.21 25.10 61.80 25.21 64.40 25.20 C 63.81 24.67 62.62 23.60 62.03 23.07 C 63.71 23.23 65.30 22.56 66.70 21.70 C 68.31 22.42 69.96 23.05 71.64 23.59 C 71.48 21.33 71.35 19.07 71.32 16.80 C 71.35 16.23 71.41 15.08 71.44 14.51 C 71.77 11.31 71.97 8.10 72.25 4.89 C 72.42 3.59 72.06 2.44 71.16 1.44 C 70.93 1.08 70.47 0.36 70.24 0.00 M 66.14 23.11 C 64.82 23.80 64.81 24.47 66.11 25.14 C 67.43 24.46 67.44 23.78 66.14 23.11 M 73.69 26.93 C 73.42 29.24 73.50 31.62 72.83 33.86 C 69.16 36.40 64.52 36.73 60.34 38.04 C 62.61 41.86 65.06 46.12 70.01 46.58 C 67.33 44.70 64.88 42.45 63.40 39.48 C 69.36 36.60 75.93 34.15 82.50 37.10 C 81.69 41.69 79.25 45.79 75.31 48.34 C 75.93 48.72 77.19 49.47 77.81 49.85 C 75.99 51.13 74.15 52.38 72.28 53.59 C 72.47 53.93 72.86 54.59 73.06 54.92 C 75.28 53.49 77.36 51.64 79.99 51.01 C 82.74 51.76 85.02 53.59 87.49 54.94 C 85.79 51.71 82.81 49.73 79.28 49.01 C 81.34 45.71 83.27 42.30 84.56 38.61 C 87.21 39.38 89.88 40.08 92.55 40.76 C 87.91 35.23 80.00 35.39 74.15 31.77 C 75.83 26.95 81.18 26.19 85.33 24.54 C 81.44 25.32 77.58 26.18 73.69 26.93 M 86.17 27.17 C 85.65 28.80 86.20 29.35 87.83 28.83 C 88.35 27.20 87.80 26.65 86.17 27.17 Z" />
<path fill="#3c6cbf" opacity="1.00" d=" M 182.24 0.00 L 202.57 0.00 C 202.63 1.23 202.69 2.47 202.77 3.70 C 198.33 6.07 193.42 9.18 195.32 15.36 C 197.79 11.42 201.05 7.98 205.38 6.10 C 205.00 4.06 204.66 2.02 204.23 0.00 L 209.39 0.00 C 207.72 10.20 209.05 20.55 209.50 30.78 L 209.51 31.58 C 209.61 38.49 208.59 45.44 209.46 52.32 L 209.59 53.11 C 209.77 53.83 210.14 55.28 210.33 56.00 L 167.64 56.00 C 167.66 54.51 167.70 53.03 167.75 51.55 C 167.78 51.11 167.83 50.24 167.86 49.81 L 167.88 49.25 C 167.99 42.07 167.87 34.90 167.74 27.73 L 167.79 26.97 C 167.94 24.94 168.07 22.91 168.12 20.88 L 168.76 21.31 C 169.69 21.98 170.68 22.55 171.73 23.02 C 170.63 23.68 169.54 24.35 168.46 25.03 C 171.11 25.27 173.75 25.63 176.42 25.73 C 175.81 25.06 174.61 23.72 174.00 23.05 C 175.69 23.23 177.30 22.55 178.71 21.70 C 180.32 22.42 181.96 23.05 183.64 23.59 C 183.48 21.33 183.35 19.07 183.32 16.80 C 183.35 16.23 183.41 15.08 183.44 14.51 C 183.77 11.31 183.97 8.10 184.25 4.89 C 184.42 3.59 184.06 2.44 183.16 1.44 C 182.93 1.08 182.47 0.36 182.24 0.00 M 178.14 23.11 C 176.82 23.80 176.81 24.47 178.11 25.14 C 179.43 24.46 179.44 23.78 178.14 23.11 M 185.69 26.93 C 185.41 29.24 185.50 31.62 184.83 33.86 C 181.16 36.40 176.51 36.73 172.34 38.04 C 174.61 41.86 177.06 46.12 182.01 46.58 C 179.33 44.70 176.88 42.45 175.40 39.48 C 181.36 36.60 187.93 34.15 194.50 37.10 C 193.69 41.69 191.25 45.79 187.31 48.34 C 187.93 48.72 189.19 49.47 189.81 49.85 C 187.99 51.13 186.15 52.38 184.28 53.59 C 184.47 53.93 184.86 54.59 185.06 54.92 C 187.28 53.49 189.36 51.64 191.99 51.01 C 194.74 51.76 197.02 53.59 199.49 54.94 C 197.79 51.71 194.81 49.73 191.28 49.01 C 193.34 45.71 195.27 42.30 196.56 38.61 C 199.21 39.37 201.87 40.09 204.54 40.77 C 200.03 34.95 191.77 36.12 186.18 31.82 C 187.75 26.91 193.20 26.22 197.33 24.53 C 193.44 25.32 189.58 26.18 185.69 26.93 M 198.17 27.17 C 197.65 28.80 198.20 29.35 199.83 28.83 C 200.35 27.20 199.79 26.65 198.17 27.17 Z" />
</g>
<g id="#437acaff">
<path fill="#437aca" opacity="1.00" d=" M 90.57 0.00 L 92.23 0.00 C 92.66 2.02 93.00 4.06 93.38 6.10 C 89.05 7.98 85.79 11.42 83.32 15.36 C 81.42 9.18 86.33 6.07 90.77 3.70 C 90.69 2.47 90.63 1.23 90.57 0.00 Z" />
<path fill="#437aca" opacity="1.00" d=" M 202.57 0.00 L 204.23 0.00 C 204.66 2.02 205.00 4.06 205.38 6.10 C 201.05 7.98 197.79 11.42 195.32 15.36 C 193.42 9.18 198.33 6.07 202.77 3.70 C 202.69 2.47 202.63 1.23 202.57 0.00 Z" />
<path fill="#437aca" opacity="1.00" d=" M 129.29 26.14 C 132.88 24.62 136.62 23.31 140.57 23.24 C 136.56 25.09 131.01 25.68 129.38 30.52 C 134.57 32.67 139.16 36.56 144.87 37.22 C 146.38 40.11 148.25 42.85 151.19 44.45 C 148.80 44.47 146.41 44.58 144.03 44.74 C 144.74 43.32 145.43 41.90 146.12 40.47 C 143.83 39.74 141.56 38.98 139.28 38.24 C 139.48 42.04 141.91 44.81 143.69 47.88 C 143.05 49.07 142.24 50.16 141.49 51.28 C 140.87 49.27 140.27 47.27 139.69 45.25 C 138.50 45.46 137.30 45.67 136.11 45.88 C 137.84 42.99 139.24 39.77 138.25 36.35 C 134.09 35.77 130.02 34.77 125.99 33.60 C 126.59 33.28 127.81 32.64 128.41 32.31 C 128.63 30.77 129.07 27.69 129.29 26.14 Z" />
</g>
<g id="#298ed7ff">
<path fill="#298ed7" opacity="1.00" d=" M 97.39 0.00 L 99.58 0.00 C 98.87 1.19 98.67 2.48 98.96 3.88 L 98.96 4.62 C 98.97 6.30 98.98 7.98 98.98 9.66 C 98.72 10.89 99.61 12.26 100.97 12.04 C 100.41 13.21 99.86 14.39 99.30 15.56 C 98.37 16.83 98.81 18.94 100.36 19.49 C 100.06 20.71 99.81 21.95 99.60 23.19 C 99.58 23.61 99.53 24.45 99.50 24.87 L 99.53 25.60 C 99.57 26.08 99.64 27.04 99.68 27.52 C 99.53 27.90 99.23 28.67 99.08 29.05 C 98.69 29.48 97.90 30.35 97.50 30.78 C 97.05 20.55 95.72 10.20 97.39 0.00 Z" />
<path fill="#298ed7" opacity="1.00" d=" M 209.39 0.00 L 211.59 0.00 C 210.87 1.19 210.67 2.48 210.96 3.88 L 210.96 4.62 C 210.97 6.30 210.97 7.98 210.98 9.66 C 210.72 10.89 211.61 12.26 212.97 12.04 C 212.41 13.21 211.86 14.39 211.30 15.56 C 210.36 16.83 210.80 18.94 212.36 19.49 C 212.06 20.71 211.81 21.95 211.60 23.19 C 211.58 23.61 211.53 24.45 211.50 24.87 L 211.53 25.60 C 211.57 26.08 211.64 27.04 211.68 27.52 C 211.53 27.90 211.23 28.67 211.08 29.05 C 210.69 29.48 209.90 30.35 209.50 30.78 C 209.05 20.55 207.72 10.20 209.39 0.00 Z" />
</g>
<g id="#5c6268ff">
<path fill="#5c6268" opacity="1.00" d=" M 99.58 0.00 L 101.15 0.00 C 100.89 1.52 100.00 2.79 98.96 3.88 C 98.67 2.48 98.87 1.19 99.58 0.00 Z" />
<path fill="#5c6268" opacity="1.00" d=" M 211.59 0.00 L 213.15 0.00 C 212.89 1.52 212.00 2.79 210.96 3.88 C 210.67 2.48 210.87 1.19 211.59 0.00 Z" />
</g>
<g id="#268dd8ff">
<path fill="#268dd8" opacity="1.00" d=" M 124.98 0.00 L 126.16 0.00 C 129.49 7.67 128.75 16.49 124.37 23.62 C 124.41 22.82 124.49 21.23 124.53 20.44 C 124.73 18.14 125.20 15.88 125.63 13.62 C 125.31 14.08 124.65 14.99 124.33 15.44 C 125.10 13.91 125.81 12.36 126.41 10.76 C 126.18 9.51 125.71 7.01 125.48 5.77 C 125.25 4.59 125.02 3.41 124.79 2.23 C 124.84 1.67 124.93 0.56 124.98 0.00 Z" />
</g>
<g id="#3c6cbfff">
<path fill="#3c6cbf" opacity="1.00" d=" M 126.16 0.00 L 138.24 0.00 C 137.70 0.57 136.62 1.71 136.08 2.28 C 133.61 2.21 131.13 2.13 128.65 2.20 C 131.28 3.28 133.87 4.65 136.69 5.14 C 138.40 3.61 139.75 1.73 141.24 0.00 L 149.28 0.00 C 147.08 2.59 144.36 4.60 141.42 6.28 C 138.10 7.96 140.64 13.03 139.66 15.50 C 140.95 13.24 141.79 10.63 143.64 8.74 C 145.71 7.19 148.17 6.31 150.52 5.27 C 150.09 3.52 149.67 1.76 149.28 0.00 L 153.40 0.00 C 151.71 10.28 152.98 20.69 153.66 31.00 L 153.67 31.69 C 153.80 39.78 151.90 48.04 154.06 56.00 L 111.64 56.00 C 111.66 54.51 111.70 53.03 111.75 51.55 C 111.78 51.11 111.83 50.24 111.86 49.81 L 111.88 49.25 C 111.99 42.08 111.87 34.91 111.70 27.75 L 111.75 26.98 C 111.90 24.23 112.04 21.48 112.17 18.73 C 112.93 20.32 114.22 21.59 115.84 22.28 C 114.80 22.65 113.75 23.03 112.72 23.43 C 114.43 24.08 116.15 24.73 117.87 25.39 C 118.39 24.90 118.92 24.41 119.45 23.93 C 119.27 23.35 118.91 22.19 118.74 21.61 C 120.67 21.22 122.60 20.83 124.53 20.44 C 124.49 21.23 124.41 22.82 124.37 23.62 C 128.75 16.49 129.49 7.67 126.16 0.00 M 137.54 15.27 C 136.62 16.41 138.58 17.87 139.46 16.73 C 140.38 15.59 138.41 14.13 137.54 15.27 M 122.14 22.11 C 120.82 22.80 120.81 23.47 122.11 24.14 C 123.43 23.46 123.44 22.78 122.14 22.11 M 129.29 26.14 C 129.07 27.69 128.63 30.77 128.41 32.31 C 127.81 32.64 126.59 33.28 125.99 33.60 C 130.02 34.77 134.09 35.77 138.25 36.35 C 139.24 39.77 137.84 42.99 136.11 45.88 C 137.30 45.67 138.50 45.46 139.69 45.25 C 140.27 47.27 140.87 49.27 141.49 51.28 C 142.24 50.16 143.05 49.07 143.69 47.88 C 141.91 44.81 139.48 42.04 139.28 38.24 C 141.56 38.98 143.83 39.74 146.12 40.47 C 145.43 41.90 144.74 43.32 144.03 44.74 C 146.41 44.58 148.80 44.47 151.19 44.45 C 148.25 42.85 146.38 40.11 144.87 37.22 C 139.16 36.56 134.57 32.67 129.38 30.52 C 131.01 25.68 136.56 25.09 140.57 23.24 C 136.62 23.31 132.88 24.62 129.29 26.14 M 142.17 26.17 C 141.65 27.80 142.20 28.35 143.83 27.83 C 144.35 26.20 143.80 25.65 142.17 26.17 M 114.58 36.80 C 114.39 37.40 114.21 37.99 114.03 38.59 C 115.18 38.84 116.33 39.09 117.48 39.35 C 117.47 39.75 117.46 40.55 117.46 40.95 C 121.38 38.84 125.44 37.01 129.45 35.08 C 124.53 35.88 119.61 37.94 114.58 36.80 M 130.87 47.52 C 131.69 47.76 133.33 48.25 134.15 48.49 C 132.23 49.91 130.29 51.30 128.30 52.63 C 128.48 52.93 128.82 53.53 129.00 53.83 C 132.25 51.39 136.07 50.17 140.19 50.37 C 137.76 48.98 135.48 47.32 133.71 45.13 C 132.76 45.93 131.82 46.73 130.87 47.52 Z" />
</g>
<g id="#4476cbff">
<path fill="#4476cb" opacity="1.00" d=" M 138.24 0.00 L 141.24 0.00 C 139.75 1.73 138.40 3.61 136.69 5.14 C 133.87 4.65 131.28 3.28 128.65 2.20 C 131.13 2.13 133.61 2.21 136.08 2.28 C 136.62 1.71 137.70 0.57 138.24 0.00 Z" />
</g>
<g id="#457bcbff">
<path fill="#457bcb" opacity="1.00" d=" M 149.28 0.00 L 149.28 0.00 C 149.67 1.76 150.09 3.52 150.52 5.27 C 148.17 6.31 145.71 7.19 143.64 8.74 C 141.79 10.63 140.95 13.24 139.66 15.50 C 140.64 13.03 138.10 7.96 141.42 6.28 C 144.36 4.60 147.08 2.59 149.28 0.00 Z" />
</g>
<g id="#278ed8ff">
<path fill="#278ed8" opacity="1.00" d=" M 153.40 0.00 L 155.25 0.00 C 155.27 0.60 155.31 1.79 155.33 2.39 C 155.37 3.19 155.42 4.00 155.48 4.81 C 155.64 6.65 155.90 8.48 156.29 10.28 C 156.49 10.66 156.91 11.41 157.12 11.79 C 156.28 15.54 155.98 19.39 155.60 23.20 C 155.58 23.62 155.56 24.45 155.55 24.87 L 155.57 25.59 C 155.64 26.23 155.77 27.50 155.84 28.14 C 155.53 28.61 154.91 29.56 154.60 30.03 C 154.36 30.27 153.89 30.75 153.66 31.00 C 152.98 20.69 151.71 10.28 153.40 0.00 Z" />
</g>
<g id="#7da960ff">
<path fill="#7da960" opacity="1.00" d=" M 218.48 0.00 L 224.00 0.00 L 224.00 8.31 C 222.54 9.31 221.05 10.25 219.57 11.21 C 219.94 8.76 220.32 6.32 220.77 3.88 C 219.94 4.58 219.12 5.27 218.29 5.96 L 218.40 4.93 C 218.51 3.70 218.58 2.47 218.58 1.23 C 218.56 0.92 218.51 0.31 218.48 0.00 Z" />
</g>
<g id="#86a0b1ff">
<path fill="#86a0b1" opacity="1.00" d=" M 16.20 4.46 C 13.92 4.56 13.47 1.85 15.33 0.82 C 15.52 1.28 15.90 2.18 16.09 2.63 C 16.12 3.09 16.17 4.00 16.20 4.46 Z" />
<path fill="#86a0b1" opacity="1.00" d=" M 98.98 9.66 C 99.36 9.68 100.13 9.70 100.51 9.71 C 100.70 10.14 101.09 10.99 101.28 11.42 L 100.97 12.04 C 99.61 12.26 98.72 10.89 98.98 9.66 Z" />
<path fill="#86a0b1" opacity="1.00" d=" M 210.98 9.66 C 211.36 9.68 212.13 9.70 212.51 9.71 C 212.70 10.14 213.09 10.99 213.28 11.42 L 212.97 12.04 C 211.61 12.26 210.72 10.89 210.98 9.66 Z" />
<path fill="#86a0b1" opacity="1.00" d=" M 100.36 19.49 C 98.81 18.94 98.37 16.83 99.30 15.56 C 100.86 16.18 100.96 18.15 100.36 19.49 Z" />
<path fill="#86a0b1" opacity="1.00" d=" M 212.36 19.49 C 210.80 18.94 210.36 16.83 211.30 15.56 C 212.86 16.18 212.95 18.15 212.36 19.49 Z" />
<path fill="#86a0b1" opacity="1.00" d=" M 42.39 21.30 L 42.98 21.70 C 43.13 22.12 43.42 22.97 43.56 23.39 C 43.52 23.79 43.42 24.58 43.38 24.98 L 42.87 25.46 C 42.33 24.56 41.90 23.62 41.57 22.63 C 41.77 22.30 42.18 21.63 42.39 21.30 Z" />
<path fill="#86a0b1" opacity="1.00" d=" M 155.60 23.20 L 156.21 22.72 C 156.51 23.01 157.11 23.58 157.42 23.87 L 157.29 24.61 C 156.85 24.67 155.98 24.80 155.55 24.87 C 155.56 24.45 155.58 23.62 155.60 23.20 Z" />
<path fill="#86a0b1" opacity="1.00" d=" M 154.60 30.03 C 154.93 30.66 155.58 31.92 155.91 32.55 C 155.59 32.62 154.95 32.75 154.63 32.82 C 154.39 32.53 153.91 31.97 153.67 31.69 L 153.66 31.00 C 153.89 30.75 154.36 30.27 154.60 30.03 Z" />
<path fill="#86a0b1" opacity="1.00" d=" M 154.20 50.32 C 154.64 50.44 155.53 50.69 155.97 50.82 L 155.91 51.65 C 154.94 53.07 153.17 51.56 154.20 50.32 Z" />
</g>
<g id="#709e5cff">
<path fill="#709e5c" opacity="1.00" d=" M 3.77 3.83 C 5.82 3.31 7.87 2.75 9.91 2.21 C 9.57 3.96 9.52 5.84 8.57 7.41 C 6.60 8.34 4.37 8.34 2.24 8.23 C 2.74 6.76 3.25 5.29 3.77 3.83 Z" />
<path fill="#709e5c" opacity="1.00" d=" M 59.78 3.82 C 61.82 3.30 63.86 2.76 65.90 2.22 C 65.54 3.97 65.59 5.91 64.54 7.42 C 62.65 8.48 60.39 8.32 58.32 7.99 C 58.81 6.60 59.29 5.21 59.78 3.82 Z" />
<path fill="#709e5c" opacity="1.00" d=" M 115.78 3.82 C 117.82 3.30 119.86 2.76 121.90 2.22 C 121.53 3.96 121.61 5.91 120.54 7.42 C 118.65 8.49 116.38 8.31 114.32 7.99 C 114.80 6.60 115.29 5.21 115.78 3.82 Z" />
<path fill="#709e5c" opacity="1.00" d=" M 171.78 3.82 C 173.82 3.30 175.86 2.76 177.90 2.22 C 177.53 3.97 177.59 5.91 176.54 7.42 C 174.65 8.48 172.39 8.32 170.32 7.99 C 170.80 6.60 171.28 5.21 171.78 3.82 Z" />
</g>
<g id="#7392b4ff">
<path fill="#7392b4" opacity="1.00" d=" M 72.25 4.89 C 70.25 5.10 70.30 2.59 71.16 1.44 C 72.06 2.44 72.42 3.59 72.25 4.89 Z" />
<path fill="#7392b4" opacity="1.00" d=" M 184.25 4.89 C 182.25 5.10 182.30 2.59 183.16 1.44 C 184.06 2.44 184.42 3.59 184.25 4.89 Z" />
</g>
<g id="#645a4bff">
<path fill="#645a4b" opacity="1.00" d=" M 11.74 12.86 C 11.01 9.26 12.13 5.70 12.89 2.19 C 13.07 3.40 13.22 4.61 13.35 5.83 C 13.05 8.22 12.40 10.55 11.74 12.86 Z" />
<path fill="#645a4b" opacity="1.00" d=" M 67.71 12.87 C 67.07 9.25 68.25 5.73 68.95 2.22 C 69.12 3.41 69.27 4.60 69.40 5.79 C 69.06 8.20 68.40 10.54 67.71 12.87 Z" />
<path fill="#645a4b" opacity="1.00" d=" M 123.70 12.85 C 123.12 9.27 124.21 5.75 124.79 2.23 C 125.02 3.41 125.25 4.59 125.48 5.77 C 125.08 8.17 124.40 10.52 123.70 12.85 Z" />
<path fill="#645a4b" opacity="1.00" d=" M 179.71 12.87 C 179.07 9.25 180.24 5.73 180.95 2.22 C 181.12 3.41 181.27 4.60 181.40 5.79 C 181.06 8.20 180.40 10.54 179.71 12.87 Z" />
</g>
<g id="#699960fe">
<path fill="#699960" opacity="1.00" d=" M 54.76 2.97 C 57.11 2.46 57.02 6.16 56.10 7.50 L 55.62 7.40 C 55.25 5.99 54.01 4.42 54.76 2.97 Z" />
<path fill="#699960" opacity="1.00" d=" M 110.76 2.97 C 113.11 2.46 113.02 6.16 112.10 7.50 L 111.61 7.40 C 111.24 5.99 110.01 4.42 110.76 2.97 Z" />
<path fill="#699960" opacity="1.00" d=" M 166.76 2.97 C 169.11 2.46 169.02 6.16 168.10 7.50 L 167.62 7.40 C 167.25 5.99 166.01 4.42 166.76 2.97 Z" />
</g>
<g id="#5c8260ff">
<path fill="#5c8260" opacity="1.00" d=" M 0.00 4.29 C 1.29 5.03 2.16 6.97 0.70 8.04 L 0.00 7.94 L 0.00 4.29 Z" />
</g>
<g id="#322f2cff">
<path fill="#322f2c" opacity="1.00" d=" M 43.08 4.92 C 45.53 4.83 47.98 4.81 50.43 4.83 L 50.33 5.91 C 49.81 11.55 48.11 16.94 46.62 22.37 C 46.01 22.51 44.78 22.78 44.17 22.92 L 43.56 23.39 C 43.42 22.97 43.13 22.12 42.98 21.70 C 43.15 21.11 43.49 19.93 43.66 19.34 C 44.04 18.23 44.24 17.06 44.28 15.88 C 44.39 14.67 44.54 13.45 44.68 12.24 L 44.77 11.44 C 47.27 11.59 46.39 8.62 44.30 9.71 C 43.87 9.45 43.01 8.94 42.59 8.69 C 42.61 8.34 42.66 7.65 42.68 7.31 C 42.78 6.71 42.98 5.52 43.08 4.92 M 43.71 7.12 C 45.48 8.14 47.27 9.13 49.06 10.12 C 49.03 9.34 48.97 7.79 48.94 7.01 C 47.20 7.05 45.45 7.09 43.71 7.12 Z" />
<path fill="#322f2c" opacity="1.00" d=" M 98.96 4.62 C 101.45 4.69 103.93 4.79 106.42 4.93 L 106.33 5.96 C 105.82 11.55 104.12 16.89 102.62 22.26 C 102.02 22.37 100.81 22.60 100.20 22.71 L 99.60 23.19 C 99.81 21.95 100.06 20.71 100.36 19.49 C 100.96 18.15 100.86 16.18 99.30 15.56 C 99.86 14.39 100.41 13.21 100.97 12.04 L 101.28 11.42 C 103.77 11.25 102.39 8.53 100.51 9.71 C 100.13 9.70 99.36 9.68 98.98 9.66 C 98.98 7.98 98.97 6.30 98.96 4.62 M 99.71 7.12 C 101.48 8.14 103.27 9.13 105.06 10.12 C 105.03 9.34 104.97 7.79 104.94 7.01 C 103.20 7.05 101.45 7.09 99.71 7.12 Z" />
<path fill="#322f2c" opacity="1.00" d=" M 155.48 4.81 C 157.79 4.78 160.10 4.82 162.42 4.88 L 162.33 5.93 C 161.82 11.53 160.12 16.87 158.65 22.25 C 158.04 22.37 156.82 22.60 156.21 22.72 L 155.60 23.20 C 155.98 19.39 156.28 15.54 157.12 11.79 C 159.19 11.00 157.65 8.11 156.29 10.28 C 155.90 8.48 155.64 6.65 155.48 4.81 M 155.71 7.12 C 157.48 8.14 159.27 9.13 161.06 10.12 C 161.03 9.34 160.97 7.79 160.94 7.01 C 159.20 7.05 157.45 7.09 155.71 7.12 Z" />
<path fill="#322f2c" opacity="1.00" d=" M 210.96 4.62 C 213.44 4.69 215.92 4.79 218.40 4.93 L 218.29 5.96 C 217.80 11.55 216.14 16.89 214.62 22.26 C 214.02 22.37 212.81 22.60 212.20 22.71 L 211.60 23.19 C 211.81 21.95 212.06 20.71 212.36 19.49 C 212.95 18.15 212.86 16.18 211.30 15.56 C 211.86 14.39 212.41 13.21 212.97 12.04 L 213.28 11.42 C 215.77 11.25 214.39 8.53 212.51 9.71 C 212.13 9.70 211.36 9.68 210.98 9.66 C 210.97 7.98 210.97 6.30 210.96 4.62 M 211.71 7.12 C 213.48 8.14 215.27 9.13 217.06 10.12 C 217.03 9.34 216.97 7.79 216.94 7.01 C 215.20 7.05 213.45 7.09 211.71 7.12 Z" />
</g>
<g id="#4f6048ff">
<path fill="#4f6048" opacity="1.00" d=" M 50.33 5.91 C 51.15 5.24 51.96 4.56 52.78 3.88 C 52.34 6.25 51.93 8.63 51.56 11.02 C 51.27 12.97 50.88 14.90 50.66 16.86 C 50.40 19.06 50.36 21.28 50.18 23.49 L 50.03 22.85 C 50.57 19.89 46.18 19.64 48.43 22.55 C 47.95 22.70 46.98 23.00 46.50 23.15 L 46.62 22.37 C 48.11 16.94 49.81 11.55 50.33 5.91 Z" />
<path fill="#4f6048" opacity="1.00" d=" M 106.33 5.96 C 107.14 5.27 107.96 4.57 108.77 3.88 C 108.34 6.25 107.93 8.63 107.57 11.02 C 107.27 12.97 106.87 14.90 106.66 16.87 C 106.40 19.06 106.36 21.28 106.19 23.48 L 106.04 22.84 C 106.59 19.90 102.17 19.61 104.42 22.52 C 103.94 22.65 102.98 22.91 102.49 23.04 L 102.62 22.26 C 104.12 16.89 105.82 11.55 106.33 5.96 Z" />
<path fill="#4f6048" opacity="1.00" d=" M 162.33 5.93 C 163.14 5.25 163.96 4.57 164.78 3.88 C 164.33 6.25 163.93 8.63 163.57 11.01 C 163.27 12.97 162.88 14.90 162.66 16.86 C 162.40 19.06 162.36 21.28 162.19 23.48 L 162.04 22.84 C 162.59 19.89 158.16 19.61 160.43 22.51 C 159.95 22.64 159.00 22.90 158.52 23.03 L 158.65 22.25 C 160.12 16.87 161.82 11.53 162.33 5.93 Z" />
<path fill="#4f6048" opacity="1.00" d=" M 218.29 5.96 C 219.12 5.27 219.94 4.58 220.77 3.88 C 220.32 6.32 219.94 8.76 219.57 11.21 C 219.28 13.10 218.87 14.98 218.66 16.89 C 218.40 19.08 218.35 21.28 218.19 23.47 L 218.04 22.84 C 218.59 19.89 214.17 19.62 216.42 22.52 C 215.94 22.65 214.97 22.91 214.49 23.04 L 214.62 22.26 C 216.14 16.89 217.80 11.55 218.29 5.96 Z" />
</g>
<g id="#268ed9ff">
<path fill="#268ed9" opacity="1.00" d=" M 38.83 7.52 C 39.92 6.95 41.05 6.48 42.22 6.11 C 42.33 6.41 42.56 7.01 42.68 7.31 C 42.66 7.65 42.61 8.34 42.59 8.69 C 41.61 8.52 40.63 8.35 39.66 8.17 L 39.05 7.82 L 38.83 7.52 Z" />
<path fill="#268ed9" opacity="1.00" d=" M 56.18 19.21 C 56.63 19.23 57.54 19.27 58.00 19.29 C 57.69 19.80 57.07 20.80 56.77 21.31 L 56.13 20.88 C 56.14 20.46 56.16 19.63 56.18 19.21 Z" />
<path fill="#268ed9" opacity="1.00" d=" M 168.17 19.22 C 168.63 19.24 169.54 19.27 170.00 19.29 C 169.69 19.79 169.07 20.80 168.76 21.31 L 168.12 20.88 C 168.14 20.46 168.16 19.63 168.17 19.22 Z" />
<path fill="#268ed9" opacity="1.00" d=" M 142.17 26.17 C 143.80 25.65 144.35 26.20 143.83 27.83 C 142.20 28.35 141.65 27.80 142.17 26.17 Z" />
<path fill="#268ed9" opacity="1.00" d=" M 86.17 27.17 C 87.80 26.65 88.35 27.20 87.83 28.83 C 86.20 29.35 85.65 28.80 86.17 27.17 Z" />
<path fill="#268ed9" opacity="1.00" d=" M 198.17 27.17 C 199.79 26.65 200.35 27.20 199.83 28.83 C 198.20 29.35 197.65 28.80 198.17 27.17 Z" />
<path fill="#268ed9" opacity="1.00" d=" M 41.99 52.88 C 42.58 52.57 43.76 51.95 44.36 51.64 C 43.93 53.11 43.45 54.57 42.90 56.00 L 40.45 56.00 C 40.98 54.97 41.49 53.93 41.99 52.88 Z" />
<path fill="#268ed9" opacity="1.00" d=" M 97.59 53.11 C 98.21 52.93 99.46 52.58 100.08 52.41 C 100.08 53.68 99.81 55.01 98.95 56.00 L 98.33 56.00 C 98.14 55.28 97.77 53.83 97.59 53.11 Z" />
<path fill="#268ed9" opacity="1.00" d=" M 209.59 53.11 C 210.21 52.93 211.46 52.58 212.08 52.41 C 212.07 53.68 211.81 55.01 210.95 56.00 L 210.33 56.00 C 210.14 55.28 209.77 53.83 209.59 53.11 Z" />
</g>
<g id="#565249ff">
<path fill="#565249" opacity="1.00" d=" M 43.71 7.12 C 45.45 7.09 47.20 7.05 48.94 7.01 C 48.97 7.79 49.03 9.34 49.06 10.12 C 47.27 9.13 45.48 8.14 43.71 7.12 Z" />
<path fill="#565249" opacity="1.00" d=" M 99.71 7.12 C 101.45 7.09 103.20 7.05 104.94 7.01 C 104.97 7.79 105.03 9.34 105.06 10.12 C 103.27 9.13 101.48 8.14 99.71 7.12 Z" />
<path fill="#565249" opacity="1.00" d=" M 155.71 7.12 C 157.45 7.09 159.20 7.05 160.94 7.01 C 160.97 7.79 161.03 9.34 161.06 10.12 C 159.27 9.13 157.48 8.14 155.71 7.12 Z" />
<path fill="#565249" opacity="1.00" d=" M 211.71 7.12 C 213.45 7.09 215.20 7.05 216.94 7.01 C 216.97 7.79 217.03 9.34 217.06 10.12 C 215.27 9.13 213.48 8.14 211.71 7.12 Z" />
<path fill="#565249" opacity="1.00" d=" M 44.30 9.71 C 46.39 8.62 47.27 11.59 44.77 11.44 C 44.65 11.01 44.41 10.14 44.30 9.71 Z" />
<path fill="#565249" opacity="1.00" d=" M 100.51 9.71 C 102.39 8.53 103.77 11.25 101.28 11.42 C 101.09 10.99 100.70 10.14 100.51 9.71 Z" />
<path fill="#565249" opacity="1.00" d=" M 156.29 10.28 C 157.65 8.11 159.19 11.00 157.12 11.79 C 156.91 11.41 156.49 10.66 156.29 10.28 Z" />
<path fill="#565249" opacity="1.00" d=" M 212.51 9.71 C 214.39 8.53 215.77 11.25 213.28 11.42 C 213.09 10.99 212.70 10.14 212.51 9.71 Z" />
<path fill="#565249" opacity="1.00" d=" M 3.83 11.50 C 5.58 13.80 7.22 16.29 7.12 19.41 C 5.81 16.87 4.66 14.24 3.83 11.50 Z" />
<path fill="#565249" opacity="1.00" d=" M 59.83 11.50 C 61.58 13.80 63.22 16.29 63.12 19.41 C 61.81 16.87 60.66 14.24 59.83 11.50 Z" />
<path fill="#565249" opacity="1.00" d=" M 115.83 11.50 C 117.59 13.80 119.21 16.29 119.12 19.41 C 117.80 16.87 116.66 14.24 115.83 11.50 Z" />
<path fill="#565249" opacity="1.00" d=" M 171.83 11.50 C 173.59 13.80 175.20 16.29 175.12 19.41 C 173.80 16.87 172.66 14.24 171.83 11.50 Z" />
<path fill="#565249" opacity="1.00" d=" M 2.49 18.88 C 2.90 18.49 3.73 17.72 4.14 17.34 C 4.71 18.51 5.07 19.94 4.41 21.16 C 4.07 21.09 3.38 20.94 3.03 20.86 C 2.90 20.36 2.63 19.37 2.49 18.88 Z" />
<path fill="#565249" opacity="1.00" d=" M 58.77 19.42 C 57.93 16.65 61.17 17.47 60.96 19.67 C 60.59 19.73 59.86 19.86 59.49 19.92 L 58.77 19.42 Z" />
<path fill="#565249" opacity="1.00" d=" M 170.77 19.42 C 169.92 16.65 173.15 17.47 172.97 19.66 C 172.60 19.72 171.86 19.85 171.50 19.92 L 170.77 19.42 Z" />
<path fill="#565249" opacity="1.00" d=" M 43.18 27.65 C 44.24 28.14 45.30 28.61 46.37 29.08 C 46.67 30.15 46.98 31.22 47.29 32.29 C 46.18 32.34 45.07 32.40 43.96 32.48 C 43.85 31.29 43.64 30.12 43.32 28.96 L 43.18 27.65 Z" />
</g>
<g id="#7b9eb5ff">
<path fill="#7b9eb5" opacity="1.00" d=" M 39.66 8.17 C 40.63 8.35 41.61 8.52 42.59 8.69 C 43.01 8.94 43.87 9.45 44.30 9.71 C 44.41 10.14 44.65 11.01 44.77 11.44 L 44.68 12.24 C 43.80 11.51 42.92 10.78 42.04 10.06 C 41.26 9.41 40.46 8.78 39.66 8.17 Z" />
</g>
<g id="#6c604cff">
<path fill="#6c604c" opacity="1.00" d=" M 6.25 9.50 C 6.95 9.36 8.34 9.08 9.04 8.94 C 9.68 12.61 10.26 16.31 10.59 20.03 L 9.75 20.61 C 9.33 20.91 8.48 21.52 8.06 21.83 C 7.53 17.71 6.86 13.61 6.25 9.50 Z" />
<path fill="#6c604c" opacity="1.00" d=" M 62.08 9.51 C 62.81 9.37 64.28 9.09 65.01 8.94 C 65.77 12.76 66.53 16.61 66.60 20.52 L 66.25 21.49 C 65.81 21.33 64.92 20.99 64.48 20.82 C 63.58 17.07 62.84 13.29 62.08 9.51 Z" />
<path fill="#6c604c" opacity="1.00" d=" M 174.08 9.52 C 174.81 9.37 176.28 9.09 177.01 8.94 C 177.77 12.76 178.53 16.61 178.60 20.51 L 178.26 21.49 C 177.81 21.32 176.93 20.98 176.49 20.81 C 175.59 17.07 174.84 13.29 174.08 9.52 Z" />
</g>
<g id="#6b995aff">
<path fill="#6b995a" opacity="1.00" d=" M 51.56 11.02 C 53.00 10.28 54.44 9.54 55.88 8.81 C 55.95 9.32 56.08 10.33 56.14 10.84 C 53.27 8.45 52.77 13.94 56.06 12.46 L 55.88 13.26 C 54.14 14.46 52.39 15.65 50.66 16.86 C 50.88 14.90 51.27 12.97 51.56 11.02 Z" />
<path fill="#6b995a" opacity="1.00" d=" M 107.57 11.02 C 109.00 10.28 110.44 9.54 111.88 8.82 C 111.95 9.32 112.08 10.34 112.15 10.84 C 109.24 8.46 108.81 13.96 112.09 12.46 L 111.94 13.25 C 110.18 14.45 108.40 15.64 106.66 16.87 C 106.87 14.90 107.27 12.97 107.57 11.02 Z" />
<path fill="#6b995a" opacity="1.00" d=" M 163.57 11.01 C 165.00 10.28 166.44 9.54 167.88 8.81 C 167.95 9.32 168.08 10.33 168.14 10.84 C 165.27 8.45 164.77 13.94 168.06 12.46 L 167.88 13.26 C 166.14 14.46 164.39 15.65 162.66 16.86 C 162.88 14.90 163.27 12.97 163.57 11.01 Z" />
<path fill="#6b995a" opacity="1.00" d=" M 219.57 11.21 C 221.05 10.25 222.54 9.31 224.00 8.31 L 224.00 10.79 C 221.04 8.41 220.80 14.18 224.00 12.40 L 224.00 13.00 C 222.23 14.30 220.43 15.58 218.66 16.89 C 218.87 14.98 219.28 13.10 219.57 11.21 Z" />
</g>
<g id="#6c5f4bff">
<path fill="#6c5f4b" opacity="1.00" d=" M 118.18 9.51 C 118.78 9.40 119.98 9.19 120.57 9.08 C 121.48 11.65 122.40 14.22 123.35 16.78 C 122.32 17.87 121.22 18.89 120.08 19.86 C 119.47 16.40 118.78 12.96 118.18 9.51 Z" />
</g>
<g id="#3490d2ff">
<path fill="#3490d2" opacity="1.00" d=" M 42.04 10.06 C 42.92 10.78 43.80 11.51 44.68 12.24 C 44.54 13.45 44.39 14.67 44.28 15.88 C 43.52 16.01 41.99 16.26 41.23 16.39 C 41.43 14.80 41.84 11.64 42.04 10.06 Z" />
</g>
<g id="#8db764ff">
<path fill="#8db764" opacity="1.00" d=" M 56.06 12.46 C 52.77 13.94 53.27 8.45 56.14 10.84 C 56.12 11.25 56.08 12.06 56.06 12.46 Z" />
<path fill="#8db764" opacity="1.00" d=" M 112.09 12.46 C 108.81 13.96 109.24 8.46 112.15 10.84 C 112.13 11.25 112.10 12.05 112.09 12.46 Z" />
<path fill="#8db764" opacity="1.00" d=" M 168.06 12.46 C 164.77 13.94 165.27 8.45 168.14 10.84 C 168.12 11.25 168.08 12.06 168.06 12.46 Z" />
<path fill="#8db764" opacity="1.00" d=" M 224.00 12.40 C 220.80 14.18 221.04 8.41 224.00 10.79 L 224.00 12.40 Z" />
</g>
<g id="#709fc2fe">
<path fill="#709fc2" opacity="1.00" d=" M 12.11 18.66 C 12.44 16.79 13.60 15.28 14.98 14.03 C 15.02 14.66 15.10 15.92 15.14 16.55 C 14.52 17.83 13.17 18.41 12.02 19.10 L 12.11 18.66 Z" />
</g>
<g id="#81ac5dff">
<path fill="#81ac5d" opacity="1.00" d=" M 50.66 16.86 C 52.39 15.65 54.14 14.46 55.88 13.26 C 55.94 15.24 56.09 17.23 56.18 19.21 C 56.16 19.63 56.14 20.46 56.13 20.88 C 56.07 22.91 55.94 24.94 55.79 26.97 C 55.00 25.77 54.22 24.57 53.44 23.36 C 52.33 23.61 51.22 23.88 50.11 24.15 L 50.18 23.49 C 50.36 21.28 50.40 19.06 50.66 16.86 Z" />
<path fill="#81ac5d" opacity="1.00" d=" M 106.66 16.87 C 108.40 15.64 110.18 14.45 111.94 13.25 C 112.01 14.91 112.09 16.57 112.18 18.22 L 112.17 18.73 C 112.04 21.48 111.90 24.23 111.75 26.98 C 110.98 25.78 110.21 24.57 109.46 23.36 C 108.34 23.61 107.23 23.87 106.12 24.14 L 106.19 23.48 C 106.36 21.28 106.40 19.06 106.66 16.87 Z" />
<path fill="#81ac5d" opacity="1.00" d=" M 162.66 16.86 C 164.39 15.65 166.14 14.46 167.88 13.26 C 167.94 15.25 168.09 17.23 168.17 19.22 C 168.16 19.63 168.14 20.46 168.12 20.88 C 168.07 22.91 167.94 24.94 167.79 26.97 C 167.00 25.78 166.22 24.57 165.44 23.36 C 164.33 23.62 163.23 23.88 162.13 24.15 L 162.19 23.48 C 162.36 21.28 162.40 19.06 162.66 16.86 Z" />
<path fill="#81ac5d" opacity="1.00" d=" M 218.66 16.89 C 220.43 15.58 222.23 14.30 224.00 13.00 L 224.00 27.64 C 223.23 26.17 222.43 24.71 221.67 23.23 C 220.48 23.52 219.30 23.82 218.12 24.14 L 218.19 23.47 C 218.35 21.28 218.40 19.08 218.66 16.89 Z" />
</g>
<g id="#7ca2beff">
<path fill="#7ca2be" opacity="1.00" d=" M 67.92 17.22 C 68.87 16.06 70.07 15.12 71.44 14.51 C 71.41 15.08 71.35 16.23 71.32 16.80 C 70.24 17.49 69.06 17.76 67.77 17.62 L 67.92 17.22 Z" />
<path fill="#7ca2be" opacity="1.00" d=" M 179.92 17.22 C 180.87 16.06 182.07 15.12 183.44 14.51 C 183.41 15.08 183.35 16.23 183.32 16.80 C 182.24 17.49 181.06 17.76 179.77 17.61 L 179.92 17.22 Z" />
</g>
<g id="#7fa1b9ff">
<path fill="#7fa1b9" opacity="1.00" d=" M 124.33 15.44 C 124.65 14.99 125.31 14.08 125.63 13.62 C 125.20 15.88 124.73 18.14 124.53 20.44 C 122.60 20.83 120.67 21.22 118.74 21.61 L 117.68 21.83 L 118.12 21.46 C 118.61 21.06 119.59 20.26 120.08 19.86 C 121.22 18.89 122.32 17.87 123.35 16.78 C 123.60 16.45 124.08 15.78 124.33 15.44 Z" />
</g>
<g id="#4478cbff">
<path fill="#4478cb" opacity="1.00" d=" M 137.54 15.27 C 138.41 14.13 140.38 15.59 139.46 16.73 C 138.58 17.87 136.62 16.41 137.54 15.27 Z" />
</g>
<g id="#86a0b0fe">
<path fill="#86a0b0" opacity="1.00" d=" M 41.23 16.39 C 41.99 16.26 43.52 16.01 44.28 15.88 C 44.24 17.06 44.04 18.23 43.66 19.34 C 42.71 18.71 41.80 17.98 41.14 17.04 L 41.23 16.39 Z" />
</g>
<g id="#2a8ad7ff">
<path fill="#2a8ad7" opacity="1.00" d=" M 12.02 19.10 C 13.17 18.41 14.52 17.83 15.14 16.55 C 15.21 19.65 15.41 22.75 15.23 25.85 C 14.16 24.95 13.08 24.04 12.07 23.06 C 13.33 23.00 13.93 22.40 13.87 21.25 C 13.08 19.71 11.40 21.41 11.60 22.59 L 11.26 22.24 C 10.88 21.83 10.13 21.02 9.75 20.61 L 10.59 20.03 C 10.95 19.80 11.66 19.33 12.02 19.10 Z" />
</g>
<g id="#2889d5ff">
<path fill="#2889d5" opacity="1.00" d=" M 42.39 21.30 C 41.85 19.92 41.38 18.50 41.14 17.04 C 41.80 17.98 42.71 18.71 43.66 19.34 C 43.49 19.93 43.15 21.11 42.98 21.70 L 42.39 21.30 Z" />
</g>
<g id="#3893d8ff">
<path fill="#3893d8" opacity="1.00" d=" M 67.77 17.62 C 69.06 17.76 70.24 17.49 71.32 16.80 C 71.35 19.07 71.48 21.33 71.64 23.59 C 69.96 23.05 68.31 22.42 66.70 21.70 L 66.25 21.49 L 66.60 20.52 C 66.99 19.55 67.38 18.58 67.77 17.62 Z" />
<path fill="#3893d8" opacity="1.00" d=" M 179.77 17.61 C 181.06 17.76 182.24 17.49 183.32 16.80 C 183.35 19.07 183.48 21.33 183.64 23.59 C 181.96 23.05 180.32 22.42 178.71 21.70 L 178.26 21.49 L 178.60 20.51 C 178.99 19.55 179.38 18.58 179.77 17.61 Z" />
</g>
<g id="#9cb3c7fe">
<path fill="#9cb3c7" opacity="1.00" d=" M 112.18 18.22 C 112.55 18.23 113.28 18.26 113.65 18.27 C 114.79 19.35 115.51 20.79 116.28 22.15 L 115.84 22.28 C 114.22 21.59 112.93 20.32 112.17 18.73 L 112.18 18.22 Z" />
<path fill="#9cb3c7" opacity="1.00" d=" M 58.00 19.29 L 58.77 19.42 L 59.49 19.92 C 59.61 20.92 59.84 21.89 60.18 22.84 L 59.71 23.04 C 58.67 22.56 57.69 21.98 56.77 21.31 C 57.07 20.80 57.69 19.80 58.00 19.29 Z" />
<path fill="#9cb3c7" opacity="1.00" d=" M 170.00 19.29 L 170.77 19.42 L 171.50 19.92 C 171.61 20.91 171.85 21.87 172.20 22.81 L 171.73 23.02 C 170.68 22.55 169.69 21.98 168.76 21.31 C 169.07 20.80 169.69 19.79 170.00 19.29 Z" />
</g>
<g id="#5688bafe">
<path fill="#5688ba" opacity="1.00" d=" M 113.65 18.27 C 115.63 18.32 117.34 19.69 118.12 21.46 L 117.68 21.83 C 117.33 21.91 116.63 22.07 116.28 22.15 C 115.51 20.79 114.79 19.35 113.65 18.27 Z" />
</g>
<g id="#9eb5caff">
<path fill="#9eb5ca" opacity="1.00" d=" M 1.27 20.17 C 1.58 19.84 2.19 19.20 2.49 18.88 C 2.63 19.37 2.90 20.36 3.03 20.86 C 3.32 21.87 3.70 22.84 4.18 23.78 L 3.25 23.58 C 2.49 22.50 1.84 21.36 1.27 20.17 Z" />
</g>
<g id="#4279cbff">
<path fill="#4279cb" opacity="1.00" d=" M 22.20 18.60 C 24.64 19.24 27.08 19.90 29.52 20.52 C 28.49 26.33 22.75 28.55 18.88 32.17 C 25.01 35.15 31.27 38.08 36.59 42.44 C 34.15 42.15 31.71 41.88 29.28 41.58 C 27.44 44.50 25.57 47.39 23.74 50.32 C 25.55 50.96 27.36 51.61 29.17 52.26 C 24.78 52.72 20.41 53.52 16.67 56.00 L 15.69 56.00 C 17.77 54.28 19.71 52.39 21.72 50.58 C 21.38 49.04 21.02 47.50 20.67 45.96 C 23.19 44.29 25.81 42.79 28.23 40.97 C 24.96 38.65 21.38 35.95 17.14 36.21 C 13.75 36.36 11.03 38.62 8.41 40.52 C 10.86 43.01 13.42 45.41 15.80 47.97 C 12.73 46.67 10.05 44.64 8.22 41.83 C 6.60 38.86 2.84 39.15 0.00 38.46 L 0.00 37.95 C 6.68 37.01 13.44 35.97 19.63 33.14 C 18.62 31.26 17.50 29.43 16.44 27.58 C 20.47 27.45 24.38 26.44 28.09 24.89 C 26.23 22.70 24.14 20.71 22.20 18.60 Z" />
</g>
<g id="#3c76c7ff">
<path fill="#3c76c7" opacity="1.00" d=" M 0.00 21.52 C 0.32 21.18 0.95 20.51 1.27 20.17 C 1.84 21.36 2.49 22.50 3.25 23.58 C 2.52 24.32 1.80 25.07 1.07 25.81 C 2.91 26.18 4.74 26.56 6.56 26.96 C 7.22 27.10 8.53 27.39 9.19 27.53 C 6.16 28.78 3.11 30.01 0.00 31.04 L 0.00 21.52 Z" />
</g>
<g id="#adc2d9ff">
<path fill="#adc2d9" opacity="1.00" d=" M 11.60 22.59 C 11.40 21.41 13.08 19.71 13.87 21.25 C 13.93 22.40 13.33 23.00 12.07 23.06 L 11.60 22.59 Z" />
<path fill="#adc2d9" opacity="1.00" d=" M 43.56 23.39 L 44.17 22.92 C 44.47 23.20 45.08 23.76 45.38 24.04 L 45.27 24.77 C 44.80 24.82 43.85 24.93 43.38 24.98 C 43.42 24.58 43.52 23.79 43.56 23.39 Z" />
<path fill="#adc2d9" opacity="1.00" d=" M 99.60 23.19 L 100.20 22.71 C 100.50 23.00 101.09 23.58 101.38 23.87 L 101.25 24.61 C 100.82 24.67 99.94 24.80 99.50 24.87 C 99.53 24.45 99.58 23.61 99.60 23.19 Z" />
<path fill="#adc2d9" opacity="1.00" d=" M 211.60 23.19 L 212.20 22.71 C 212.50 23.00 213.09 23.58 213.38 23.87 L 213.25 24.61 C 212.82 24.67 211.94 24.80 211.50 24.87 C 211.53 24.45 211.58 23.61 211.60 23.19 Z" />
</g>
<g id="#4f7baeff">
<path fill="#4f7bae" opacity="1.00" d=" M 59.49 19.92 C 59.86 19.86 60.59 19.73 60.96 19.67 C 61.15 20.25 61.54 21.41 61.73 21.99 L 61.50 22.62 C 61.17 22.68 60.51 22.78 60.18 22.84 C 59.84 21.89 59.61 20.92 59.49 19.92 Z" />
<path fill="#4f7bae" opacity="1.00" d=" M 171.50 19.92 C 171.86 19.85 172.60 19.72 172.97 19.66 C 173.17 20.23 173.57 21.36 173.77 21.93 L 173.52 22.56 C 173.19 22.62 172.53 22.75 172.20 22.81 C 171.85 21.87 171.61 20.91 171.50 19.92 Z" />
<path fill="#4f7bae" opacity="1.00" d=" M 3.03 20.86 C 3.38 20.94 4.07 21.09 4.41 21.16 C 4.83 21.72 5.68 22.84 6.11 23.40 L 5.68 23.79 C 5.30 23.79 4.55 23.78 4.18 23.78 C 3.70 22.84 3.32 21.87 3.03 20.86 Z" />
</g>
<g id="#8ea7b9ff">
<path fill="#8ea7b9" opacity="1.00" d=" M 8.06 21.83 C 8.48 21.52 9.33 20.91 9.75 20.61 C 10.13 21.02 10.88 21.83 11.26 22.24 C 9.81 22.72 8.34 23.19 6.85 23.56 L 5.68 23.79 L 6.11 23.40 C 6.60 23.01 7.57 22.22 8.06 21.83 Z" />
</g>
<g id="#8ba4b6fe">
<path fill="#8ba4b6" opacity="1.00" d=" M 61.73 21.99 C 62.42 21.70 63.79 21.12 64.48 20.82 C 64.92 20.99 65.81 21.33 66.25 21.49 L 66.70 21.70 C 65.30 22.56 63.71 23.23 62.03 23.07 L 61.50 22.62 L 61.73 21.99 Z" />
<path fill="#8ba4b6" opacity="1.00" d=" M 173.77 21.93 C 174.45 21.65 175.81 21.09 176.49 20.81 C 176.93 20.98 177.81 21.32 178.26 21.49 L 178.71 21.70 C 177.30 22.55 175.69 23.23 174.00 23.05 L 173.52 22.56 L 173.77 21.93 Z" />
</g>
<g id="#65569cff">
<path fill="#65569c" opacity="1.00" d=" M 115.84 22.28 L 116.28 22.15 C 116.63 22.07 117.33 21.91 117.68 21.83 L 118.74 21.61 C 118.91 22.19 119.27 23.35 119.45 23.93 C 118.92 24.41 118.39 24.90 117.87 25.39 C 116.15 24.73 114.43 24.08 112.72 23.43 C 113.75 23.03 114.80 22.65 115.84 22.28 Z" />
<path fill="#65569c" opacity="1.00" d=" M 122.14 22.11 C 123.44 22.78 123.43 23.46 122.11 24.14 C 120.81 23.47 120.82 22.80 122.14 22.11 Z" />
<path fill="#65569c" opacity="1.00" d=" M 59.71 23.04 L 60.18 22.84 C 60.51 22.78 61.17 22.68 61.50 22.62 L 62.03 23.07 C 62.62 23.60 63.81 24.67 64.40 25.20 C 61.80 25.21 59.21 25.10 56.63 24.93 C 57.64 24.28 58.67 23.66 59.71 23.04 Z" />
<path fill="#65569c" opacity="1.00" d=" M 66.14 23.11 C 67.44 23.78 67.43 24.46 66.11 25.14 C 64.81 24.47 64.82 23.80 66.14 23.11 Z" />
<path fill="#65569c" opacity="1.00" d=" M 171.73 23.02 L 172.20 22.81 C 172.53 22.75 173.19 22.62 173.52 22.56 L 174.00 23.05 C 174.61 23.72 175.81 25.06 176.42 25.73 C 173.75 25.63 171.11 25.27 168.46 25.03 C 169.54 24.35 170.63 23.68 171.73 23.02 Z" />
<path fill="#65569c" opacity="1.00" d=" M 178.14 23.11 C 179.44 23.78 179.43 24.46 178.11 25.14 C 176.81 24.47 176.82 23.80 178.14 23.11 Z" />
<path fill="#65569c" opacity="1.00" d=" M 3.25 23.58 L 4.18 23.78 C 4.55 23.78 5.30 23.79 5.68 23.79 L 6.85 23.56 C 6.77 24.69 6.67 25.82 6.56 26.96 C 4.74 26.56 2.91 26.18 1.07 25.81 C 1.80 25.07 2.52 24.32 3.25 23.58 Z" />
<path fill="#65569c" opacity="1.00" d=" M 10.14 24.11 C 11.44 24.78 11.43 25.46 10.11 26.14 C 8.81 25.47 8.82 24.80 10.14 24.11 Z" />
</g>
<g id="#6d9a59ff">
<path fill="#6d9a59" opacity="1.00" d=" M 50.11 24.15 C 51.22 23.88 52.33 23.61 53.44 23.36 C 54.22 24.57 55.00 25.77 55.79 26.97 L 55.74 27.73 C 54.57 30.94 53.01 34.25 53.67 37.75 C 54.41 41.98 52.26 45.86 50.51 49.55 C 48.73 42.53 50.34 35.26 48.91 28.23 C 49.17 27.93 49.69 27.32 49.95 27.02 C 49.81 26.36 49.54 25.04 49.41 24.37 L 50.11 24.15 Z" />
<path fill="#6d9a59" opacity="1.00" d=" M 106.12 24.14 C 107.23 23.87 108.34 23.61 109.46 23.36 C 110.21 24.57 110.98 25.78 111.75 26.98 L 111.70 27.75 C 107.61 34.66 111.98 43.03 106.51 49.56 C 104.72 42.52 106.36 35.25 104.89 28.21 C 105.15 27.91 105.67 27.31 105.93 27.02 C 105.80 26.35 105.55 25.03 105.42 24.36 L 106.12 24.14 Z" />
<path fill="#6d9a59" opacity="1.00" d=" M 162.13 24.15 C 163.23 23.88 164.33 23.62 165.44 23.36 C 166.22 24.57 167.00 25.78 167.79 26.97 L 167.74 27.73 C 166.57 30.94 165.01 34.25 165.67 37.75 C 166.42 41.98 164.26 45.86 162.51 49.55 C 160.73 42.52 162.35 35.25 160.89 28.22 C 161.15 27.92 161.68 27.32 161.94 27.02 C 161.81 26.36 161.56 25.03 161.43 24.36 L 162.13 24.15 Z" />
</g>
<g id="#6d9b59ff">
<path fill="#6d9b59" opacity="1.00" d=" M 218.12 24.14 C 219.30 23.82 220.48 23.52 221.67 23.23 C 222.43 24.71 223.23 26.17 224.00 27.64 L 224.00 28.44 C 221.96 27.93 222.22 30.99 224.00 30.98 L 224.00 34.52 C 223.50 33.69 222.51 32.05 222.02 31.22 C 221.57 33.74 221.50 36.29 221.76 38.83 C 222.19 42.71 220.05 46.15 218.51 49.55 C 216.72 42.52 218.36 35.25 216.89 28.21 C 217.15 27.91 217.67 27.32 217.93 27.02 C 217.80 26.35 217.55 25.03 217.42 24.36 L 218.12 24.14 Z" />
</g>
<g id="#3e7acbff">
<path fill="#3e7acb" opacity="1.00" d=" M 28.99 24.33 C 32.44 27.49 36.98 28.97 40.84 31.51 L 40.81 32.44 C 36.98 31.80 33.09 31.52 29.22 31.20 C 29.18 28.91 29.13 26.62 28.99 24.33 Z" />
</g>
<g id="#75634eff">
<path fill="#75634e" opacity="1.00" d=" M 45.38 24.04 C 45.97 24.14 47.14 24.36 47.73 24.47 L 47.49 25.15 L 46.92 25.71 C 46.50 25.47 45.68 25.00 45.27 24.77 L 45.38 24.04 Z" />
<path fill="#75634e" opacity="1.00" d=" M 101.38 23.87 C 101.97 24.00 103.15 24.27 103.74 24.40 L 103.50 25.06 L 102.91 25.58 C 102.50 25.34 101.67 24.85 101.25 24.61 L 101.38 23.87 Z" />
<path fill="#75634e" opacity="1.00" d=" M 157.42 23.87 C 158.00 24.00 159.17 24.27 159.76 24.40 L 159.52 25.07 L 158.94 25.59 C 158.53 25.35 157.70 24.85 157.29 24.61 L 157.42 23.87 Z" />
<path fill="#75634e" opacity="1.00" d=" M 213.38 23.87 C 213.97 24.00 215.15 24.27 215.74 24.40 L 215.50 25.06 L 214.91 25.58 C 214.50 25.34 213.67 24.85 213.25 24.61 L 213.38 23.87 Z" />
</g>
<g id="#416845ff">
<path fill="#416845" opacity="1.00" d=" M 48.52 24.49 L 49.41 24.37 C 49.54 25.04 49.81 26.36 49.95 27.02 C 49.11 26.38 48.64 25.54 48.52 24.49 Z" />
<path fill="#416845" opacity="1.00" d=" M 104.53 24.46 L 105.42 24.36 C 105.55 25.03 105.80 26.35 105.93 27.02 C 105.10 26.36 104.63 25.51 104.53 24.46 Z" />
<path fill="#416845" opacity="1.00" d=" M 160.55 24.46 L 161.43 24.36 C 161.56 25.03 161.81 26.36 161.94 27.02 C 161.11 26.37 160.64 25.51 160.55 24.46 Z" />
<path fill="#416845" opacity="1.00" d=" M 216.53 24.46 L 217.42 24.36 C 217.55 25.03 217.80 26.35 217.93 27.02 C 217.10 26.37 216.63 25.52 216.53 24.46 Z" />
<path fill="#416845" opacity="1.00" d=" M 49.16 56.00 C 48.06 55.16 48.23 53.63 48.95 52.62 C 49.93 53.69 50.83 54.82 51.67 56.00 L 49.16 56.00 Z" />
<path fill="#416845" opacity="1.00" d=" M 105.15 56.00 C 104.05 55.16 104.24 53.63 104.96 52.62 C 105.93 53.69 106.83 54.82 107.67 56.00 L 105.15 56.00 Z" />
<path fill="#416845" opacity="1.00" d=" M 161.16 56.00 C 160.06 55.16 160.23 53.63 160.95 52.62 C 161.93 53.69 162.83 54.82 163.67 56.00 L 161.16 56.00 Z" />
<path fill="#416845" opacity="1.00" d=" M 217.16 56.00 C 216.05 55.16 216.24 53.63 216.96 52.62 C 217.93 53.69 218.83 54.82 219.67 56.00 L 217.16 56.00 Z" />
</g>
<g id="#4379caff">
<path fill="#4379ca" opacity="1.00" d=" M 73.69 26.93 C 77.58 26.18 81.44 25.32 85.33 24.54 C 81.18 26.19 75.83 26.95 74.15 31.77 C 80.00 35.39 87.91 35.23 92.55 40.76 C 89.88 40.08 87.21 39.38 84.56 38.61 C 83.27 42.30 81.34 45.71 79.28 49.01 C 82.81 49.73 85.79 51.71 87.49 54.94 C 85.02 53.59 82.74 51.76 79.99 51.01 C 77.36 51.64 75.28 53.49 73.06 54.92 C 72.86 54.59 72.47 53.93 72.28 53.59 C 74.15 52.38 75.99 51.13 77.81 49.85 C 77.19 49.47 75.93 48.72 75.31 48.34 C 79.25 45.79 81.69 41.69 82.50 37.10 C 75.93 34.15 69.36 36.60 63.40 39.48 C 64.88 42.45 67.33 44.70 70.01 46.58 C 65.06 46.12 62.61 41.86 60.34 38.04 C 64.52 36.73 69.16 36.40 72.83 33.86 C 73.50 31.62 73.42 29.24 73.69 26.93 Z" />
<path fill="#4379ca" opacity="1.00" d=" M 114.58 36.80 C 119.61 37.94 124.53 35.88 129.45 35.08 C 125.44 37.01 121.38 38.84 117.46 40.95 C 117.46 40.55 117.47 39.75 117.48 39.35 C 116.33 39.09 115.18 38.84 114.03 38.59 C 114.21 37.99 114.39 37.40 114.58 36.80 Z" />
</g>
<g id="#3b6bbefe">
<path fill="#3b6bbe" opacity="1.00" d=" M 43.38 24.98 C 43.85 24.93 44.80 24.82 45.27 24.77 C 45.68 25.00 46.50 25.47 46.92 25.71 C 46.16 27.73 43.11 27.93 42.87 25.46 L 43.38 24.98 Z" />
<path fill="#3b6bbe" opacity="1.00" d=" M 99.50 24.87 C 99.94 24.80 100.82 24.67 101.25 24.61 C 101.67 24.85 102.50 25.34 102.91 25.58 C 102.75 28.05 99.74 28.10 99.53 25.60 L 99.50 24.87 Z" />
<path fill="#3b6bbe" opacity="1.00" d=" M 155.55 24.87 C 155.98 24.80 156.85 24.67 157.29 24.61 C 157.70 24.85 158.53 25.35 158.94 25.59 C 158.75 28.03 155.71 28.14 155.57 25.59 L 155.55 24.87 Z" />
<path fill="#3b6bbe" opacity="1.00" d=" M 211.50 24.87 C 211.94 24.80 212.82 24.67 213.25 24.61 C 213.67 24.85 214.50 25.34 214.91 25.58 C 214.75 28.05 211.74 28.10 211.53 25.60 L 211.50 24.87 Z" />
</g>
<g id="#322e2aff">
<path fill="#322e2a" opacity="1.00" d=" M 46.92 25.71 L 47.49 25.15 C 47.68 25.83 48.05 27.18 48.23 27.86 C 48.29 34.69 47.13 41.42 46.51 48.20 C 45.62 48.10 43.83 47.90 42.94 47.80 C 43.57 45.88 44.24 43.97 44.76 42.02 C 44.80 40.72 44.77 39.43 44.69 38.13 C 44.17 36.26 43.47 34.43 42.78 32.61 C 43.07 32.58 43.66 32.51 43.96 32.48 C 45.07 32.40 46.18 32.34 47.29 32.29 C 46.98 31.22 46.67 30.15 46.37 29.08 C 45.30 28.61 44.24 28.14 43.18 27.65 C 43.10 27.10 42.95 26.01 42.87 25.46 C 43.11 27.93 46.16 27.73 46.92 25.71 Z" />
<path fill="#322e2a" opacity="1.00" d=" M 102.91 25.58 L 103.50 25.06 C 103.68 25.75 104.04 27.14 104.22 27.83 C 104.28 34.67 103.17 41.42 102.50 48.21 C 101.60 48.11 99.82 47.91 98.92 47.81 C 99.56 45.99 100.22 44.19 100.82 42.36 C 100.84 41.78 100.88 40.62 100.90 40.04 C 100.31 37.59 99.66 35.14 98.55 32.87 C 98.89 32.82 99.56 32.71 99.90 32.65 C 101.19 32.45 102.49 32.25 103.79 32.06 C 102.52 30.46 101.13 28.96 99.68 27.52 C 99.64 27.04 99.57 26.08 99.53 25.60 C 99.74 28.10 102.75 28.05 102.91 25.58 Z" />
<path fill="#322e2a" opacity="1.00" d=" M 158.94 25.59 L 159.52 25.07 C 159.69 25.77 160.04 27.15 160.22 27.84 C 160.33 34.68 159.09 41.42 158.49 48.20 C 157.64 48.08 155.92 47.83 155.06 47.71 C 155.56 46.19 156.09 44.67 156.64 43.17 C 157.11 42.12 157.17 41.04 156.82 39.94 C 156.26 37.52 155.63 35.10 154.63 32.82 C 154.95 32.75 155.59 32.62 155.91 32.55 C 156.98 32.44 158.06 32.34 159.15 32.26 C 159.02 31.29 158.90 30.31 158.79 29.34 C 157.81 28.93 156.82 28.53 155.84 28.14 C 155.77 27.50 155.64 26.23 155.57 25.59 C 155.71 28.14 158.75 28.03 158.94 25.59 Z" />
<path fill="#322e2a" opacity="1.00" d=" M 214.91 25.58 L 215.50 25.06 C 215.68 25.76 216.04 27.14 216.22 27.83 C 216.28 34.67 215.17 41.42 214.50 48.21 C 213.60 48.11 211.82 47.91 210.92 47.81 C 211.56 45.99 212.22 44.19 212.82 42.36 C 212.84 41.78 212.88 40.62 212.90 40.04 C 212.31 37.59 211.66 35.14 210.55 32.87 C 210.89 32.82 211.56 32.71 211.90 32.65 C 213.19 32.45 214.49 32.25 215.79 32.06 C 214.52 30.46 213.13 28.96 211.68 27.52 C 211.64 27.04 211.57 26.08 211.53 25.60 C 211.74 28.10 214.75 28.05 214.91 25.58 Z" />
</g>
<g id="#475943ff">
<path fill="#475943" opacity="1.00" d=" M 48.23 27.86 L 48.91 28.23 C 50.34 35.26 48.73 42.53 50.51 49.55 C 49.11 50.13 47.72 50.73 46.27 51.19 C 46.34 50.20 46.42 49.20 46.51 48.20 C 47.13 41.42 48.29 34.69 48.23 27.86 Z" />
<path fill="#475943" opacity="1.00" d=" M 104.22 27.83 L 104.89 28.21 C 106.36 35.25 104.72 42.52 106.51 49.56 C 105.09 50.04 103.68 50.53 102.26 50.98 C 102.33 50.05 102.41 49.13 102.50 48.21 C 103.17 41.42 104.28 34.67 104.22 27.83 Z" />
<path fill="#475943" opacity="1.00" d=" M 160.22 27.84 L 160.89 28.22 C 162.35 35.25 160.73 42.52 162.51 49.55 C 161.10 50.14 159.71 50.75 158.27 51.24 C 158.33 50.23 158.41 49.22 158.49 48.20 C 159.09 41.42 160.33 34.68 160.22 27.84 Z" />
<path fill="#475943" opacity="1.00" d=" M 216.22 27.83 L 216.89 28.21 C 218.36 35.25 216.72 42.52 218.51 49.55 C 217.09 50.03 215.68 50.52 214.26 50.98 C 214.33 50.05 214.41 49.13 214.50 48.21 C 215.17 41.42 216.28 34.67 216.22 27.83 Z" />
</g>
<g id="#85b05fff">
<path fill="#85b05f" opacity="1.00" d=" M 53.67 37.75 C 53.01 34.25 54.57 30.94 55.74 27.73 C 55.87 34.90 55.99 42.07 55.88 49.25 C 55.06 48.34 52.79 47.53 52.47 49.28 C 52.95 50.69 54.82 50.21 55.86 49.81 C 55.83 50.24 55.78 51.11 55.75 51.55 C 55.41 52.49 55.06 53.42 54.69 54.36 C 54.16 53.27 53.64 52.18 53.12 51.09 C 51.88 51.29 50.65 51.49 49.42 51.72 C 49.69 51.18 50.24 50.09 50.51 49.55 C 52.26 45.86 54.41 41.98 53.67 37.75 Z" />
<path fill="#85b05f" opacity="1.00" d=" M 106.51 49.56 C 111.98 43.03 107.61 34.66 111.70 27.75 C 111.87 34.91 111.99 42.08 111.88 49.25 C 111.06 48.34 108.78 47.52 108.47 49.28 C 108.95 50.69 110.82 50.21 111.86 49.81 C 111.83 50.24 111.78 51.11 111.75 51.55 C 111.41 52.49 111.05 53.43 110.69 54.36 C 110.16 53.27 109.64 52.18 109.12 51.08 C 107.89 51.29 106.65 51.49 105.43 51.72 C 105.70 51.18 106.24 50.10 106.51 49.56 Z" />
<path fill="#85b05f" opacity="1.00" d=" M 165.67 37.75 C 165.01 34.25 166.57 30.94 167.74 27.73 C 167.87 34.90 167.99 42.07 167.88 49.25 C 167.06 48.34 164.78 47.53 164.47 49.28 C 164.95 50.69 166.82 50.21 167.86 49.81 C 167.83 50.24 167.78 51.11 167.75 51.55 C 167.41 52.49 167.05 53.43 166.69 54.36 C 166.16 53.27 165.64 52.18 165.12 51.09 C 163.88 51.29 162.65 51.49 161.42 51.72 C 161.69 51.18 162.23 50.09 162.51 49.55 C 164.26 45.86 166.42 41.98 165.67 37.75 Z" />
</g>
<g id="#565248fe">
<path fill="#565248" opacity="1.00" d=" M 99.68 27.52 C 101.13 28.96 102.52 30.46 103.79 32.06 C 102.49 32.25 101.19 32.45 99.90 32.65 C 99.86 31.41 99.58 30.21 99.08 29.05 C 99.23 28.67 99.53 27.90 99.68 27.52 Z" />
<path fill="#565248" opacity="1.00" d=" M 155.84 28.14 C 156.82 28.53 157.81 28.93 158.79 29.34 C 158.90 30.31 159.02 31.29 159.15 32.26 C 158.06 32.34 156.98 32.44 155.91 32.55 C 155.58 31.92 154.93 30.66 154.60 30.03 C 154.91 29.56 155.53 28.61 155.84 28.14 Z" />
<path fill="#565248" opacity="1.00" d=" M 211.68 27.52 C 213.13 28.96 214.52 30.46 215.79 32.06 C 214.49 32.25 213.19 32.45 211.90 32.65 C 211.86 31.41 211.58 30.21 211.08 29.05 C 211.23 28.67 211.53 27.90 211.68 27.52 Z" />
</g>
<g id="#91bc69ff">
<path fill="#91bc69" opacity="1.00" d=" M 224.00 30.98 C 222.22 30.99 221.96 27.93 224.00 28.44 L 224.00 30.98 Z" />
</g>
<g id="#a0b6cbff">
<path fill="#a0b6cb" opacity="1.00" d=" M 41.33 31.09 C 41.83 30.56 42.82 29.50 43.32 28.96 C 43.64 30.12 43.85 31.29 43.96 32.48 C 43.66 32.51 43.07 32.58 42.78 32.61 C 42.44 32.43 41.77 32.05 41.43 31.87 L 41.33 31.09 Z" />
<path fill="#a0b6cb" opacity="1.00" d=" M 97.50 30.78 C 97.90 30.35 98.69 29.48 99.08 29.05 C 99.58 30.21 99.86 31.41 99.90 32.65 C 99.56 32.71 98.89 32.82 98.55 32.87 C 98.29 32.55 97.77 31.91 97.51 31.58 L 97.50 30.78 Z" />
<path fill="#a0b6cb" opacity="1.00" d=" M 209.50 30.78 C 209.90 30.35 210.69 29.48 211.08 29.05 C 211.58 30.21 211.86 31.41 211.90 32.65 C 211.56 32.71 210.89 32.82 210.55 32.87 C 210.29 32.55 209.77 31.91 209.51 31.58 L 209.50 30.78 Z" />
</g>
<g id="#2f8bd3ff">
<path fill="#2f8bd3" opacity="1.00" d=" M 40.84 31.51 L 41.43 31.87 C 41.77 32.05 42.44 32.43 42.78 32.61 C 43.47 34.43 44.17 36.26 44.69 38.13 C 43.82 37.38 42.96 36.62 42.09 35.87 C 42.41 38.17 42.73 40.48 43.05 42.78 C 42.56 43.00 41.56 43.44 41.07 43.65 C 40.25 39.97 40.55 36.18 40.81 32.44 L 40.84 31.51 Z" />
</g>
<g id="#2c8ed7ff">
<path fill="#2c8ed7" opacity="1.00" d=" M 97.46 52.32 C 96.59 45.44 97.61 38.49 97.51 31.58 C 97.77 31.91 98.29 32.55 98.55 32.87 C 99.66 35.14 100.31 37.59 100.90 40.04 C 98.70 39.92 98.28 43.61 100.82 42.36 C 100.22 44.19 99.56 45.99 98.92 47.81 C 98.69 48.48 98.23 49.81 98.00 50.48 C 97.86 50.94 97.60 51.86 97.46 52.32 Z" />
<path fill="#2c8ed7" opacity="1.00" d=" M 209.46 52.32 C 208.59 45.44 209.61 38.49 209.51 31.58 C 209.77 31.91 210.29 32.55 210.55 32.87 C 211.66 35.14 212.31 37.59 212.90 40.04 C 210.70 39.92 210.28 43.61 212.82 42.36 C 212.22 44.19 211.56 45.99 210.92 47.81 C 210.69 48.48 210.23 49.81 210.00 50.48 C 209.86 50.94 209.60 51.86 209.46 52.32 Z" />
</g>
<g id="#288cd6ff">
<path fill="#288cd6" opacity="1.00" d=" M 154.06 56.00 C 151.90 48.04 153.80 39.78 153.67 31.69 C 153.91 31.97 154.39 32.53 154.63 32.82 C 155.63 35.10 156.26 37.52 156.82 39.94 C 155.12 40.27 154.61 42.95 156.64 43.17 C 156.09 44.67 155.56 46.19 155.06 47.71 C 154.77 48.58 154.49 49.45 154.20 50.32 C 153.17 51.56 154.94 53.07 155.91 51.65 C 155.75 53.10 155.57 54.55 155.38 56.00 L 154.06 56.00 Z" />
</g>
<g id="#86b05fff">
<path fill="#86b05f" opacity="1.00" d=" M 221.76 38.83 C 221.50 36.29 221.57 33.74 222.02 31.22 C 222.51 32.05 223.50 33.69 224.00 34.52 L 224.00 49.25 C 223.12 48.41 220.82 47.51 220.46 49.28 C 221.03 50.68 222.91 50.13 224.00 49.77 L 224.00 51.40 C 223.55 52.39 223.10 53.37 222.63 54.35 C 222.12 53.26 221.62 52.17 221.13 51.08 C 219.89 51.29 218.65 51.49 217.42 51.72 C 217.69 51.18 218.23 50.10 218.51 49.55 C 220.05 46.15 222.19 42.71 221.76 38.83 Z" />
</g>
<g id="#a5bbd1ff">
<path fill="#a5bbd1" opacity="1.00" d=" M 42.09 35.87 C 42.96 36.62 43.82 37.38 44.69 38.13 C 44.77 39.43 44.80 40.72 44.76 42.02 C 44.33 42.21 43.48 42.59 43.05 42.78 C 42.73 40.48 42.41 38.17 42.09 35.87 Z" />
</g>
<g id="#8bb5d9ff">
<path fill="#8bb5d9" opacity="1.00" d=" M 100.90 40.04 C 100.88 40.62 100.84 41.78 100.82 42.36 C 98.28 43.61 98.70 39.92 100.90 40.04 Z" />
<path fill="#8bb5d9" opacity="1.00" d=" M 212.90 40.04 C 212.88 40.62 212.84 41.78 212.82 42.36 C 210.28 43.61 210.70 39.92 212.90 40.04 Z" />
</g>
<g id="#6e9bbbff">
<path fill="#6e9bbb" opacity="1.00" d=" M 156.82 39.94 C 157.17 41.04 157.11 42.12 156.64 43.17 C 154.61 42.95 155.12 40.27 156.82 39.94 Z" />
</g>
<g id="#2a8ed7ff">
<path fill="#2a8ed7" opacity="1.00" d=" M 43.05 42.78 C 43.48 42.59 44.33 42.21 44.76 42.02 C 44.24 43.97 43.57 45.88 42.94 47.80 C 42.71 48.48 42.25 49.84 42.02 50.52 C 41.91 50.95 41.70 51.79 41.60 52.22 C 40.82 50.87 40.07 49.51 39.31 48.15 C 39.90 46.65 40.49 45.16 41.07 43.65 C 41.56 43.44 42.56 43.00 43.05 42.78 Z" />
</g>
<g id="#427bcbff">
<path fill="#427bcb" opacity="1.00" d=" M 34.57 44.34 C 35.37 45.43 36.16 46.53 36.93 47.64 C 34.04 48.54 31.16 49.50 28.30 50.48 C 30.37 48.41 32.52 46.43 34.57 44.34 Z" />
</g>
<g id="#427acafe">
<path fill="#427aca" opacity="1.00" d=" M 130.87 47.52 C 131.82 46.73 132.76 45.93 133.71 45.13 C 135.48 47.32 137.76 48.98 140.19 50.37 C 136.07 50.17 132.25 51.39 129.00 53.83 C 128.82 53.53 128.48 52.93 128.30 52.63 C 130.29 51.30 132.23 49.91 134.15 48.49 C 133.33 48.25 131.69 47.76 130.87 47.52 Z" />
</g>
<g id="#427acbff">
<path fill="#427acb" opacity="1.00" d=" M 2.30 47.93 C 4.15 47.45 6.02 47.05 7.88 46.61 C 6.83 47.97 5.77 49.32 4.74 50.70 C 6.88 52.13 8.99 53.59 11.15 54.99 C 8.15 54.72 5.15 54.41 2.15 54.11 C 2.72 53.32 3.31 52.54 3.91 51.77 C 3.38 50.49 2.82 49.21 2.30 47.93 Z" />
</g>
<g id="#6c5e4cff">
<path fill="#6c5e4c" opacity="1.00" d=" M 42.02 50.52 C 42.25 49.84 42.71 48.48 42.94 47.80 C 43.83 47.90 45.62 48.10 46.51 48.20 C 46.42 49.20 46.34 50.20 46.27 51.19 C 45.84 51.12 44.98 50.98 44.54 50.91 C 43.91 50.81 42.65 50.62 42.02 50.52 Z" />
<path fill="#6c5e4c" opacity="1.00" d=" M 98.00 50.48 C 98.23 49.81 98.69 48.48 98.92 47.81 C 99.82 47.91 101.60 48.11 102.50 48.21 C 102.41 49.13 102.33 50.05 102.26 50.98 C 101.73 51.14 100.67 51.48 100.14 51.65 C 99.60 51.35 98.53 50.77 98.00 50.48 Z" />
<path fill="#6c5e4c" opacity="1.00" d=" M 154.20 50.32 C 154.49 49.45 154.77 48.58 155.06 47.71 C 155.92 47.83 157.64 48.08 158.49 48.20 C 158.41 49.22 158.33 50.23 158.27 51.24 C 157.69 51.13 156.54 50.92 155.97 50.82 C 155.53 50.69 154.64 50.44 154.20 50.32 Z" />
<path fill="#6c5e4c" opacity="1.00" d=" M 210.00 50.48 C 210.23 49.81 210.69 48.48 210.92 47.81 C 211.82 47.91 213.60 48.11 214.50 48.21 C 214.41 49.13 214.33 50.05 214.26 50.98 C 213.73 51.14 212.67 51.48 212.14 51.65 C 211.60 51.35 210.53 50.77 210.00 50.48 Z" />
</g>
<g id="#65955fff">
<path fill="#65955f" opacity="1.00" d=" M 52.47 49.28 C 52.79 47.53 55.06 48.34 55.88 49.25 L 55.86 49.81 C 54.82 50.21 52.95 50.69 52.47 49.28 Z" />
<path fill="#65955f" opacity="1.00" d=" M 108.47 49.28 C 108.78 47.52 111.06 48.34 111.88 49.25 L 111.86 49.81 C 110.82 50.21 108.95 50.69 108.47 49.28 Z" />
<path fill="#65955f" opacity="1.00" d=" M 164.47 49.28 C 164.78 47.53 167.06 48.34 167.88 49.25 L 167.86 49.81 C 166.82 50.21 164.95 50.69 164.47 49.28 Z" />
<path fill="#65955f" opacity="1.00" d=" M 220.46 49.28 C 220.82 47.51 223.12 48.41 224.00 49.25 L 224.00 49.77 C 222.91 50.13 221.03 50.68 220.46 49.28 Z" />
</g>
<g id="#33302bff">
<path fill="#33302b" opacity="1.00" d=" M 46.27 51.19 C 47.72 50.73 49.11 50.13 50.51 49.55 C 50.24 50.09 49.69 51.18 49.42 51.72 C 49.30 51.94 49.07 52.39 48.95 52.62 C 48.23 53.63 48.06 55.16 49.16 56.00 L 42.90 56.00 C 43.45 54.57 43.93 53.11 44.36 51.64 L 44.54 50.91 C 44.98 50.98 45.84 51.12 46.27 51.19 Z" />
<path fill="#33302b" opacity="1.00" d=" M 102.26 50.98 C 103.68 50.53 105.09 50.04 106.51 49.56 C 106.24 50.10 105.70 51.18 105.43 51.72 C 105.31 51.95 105.08 52.39 104.96 52.62 C 104.24 53.63 104.05 55.16 105.15 56.00 L 98.95 56.00 C 99.81 55.01 100.08 53.68 100.08 52.41 L 100.14 51.65 C 100.67 51.48 101.73 51.14 102.26 50.98 Z" />
<path fill="#33302b" opacity="1.00" d=" M 158.27 51.24 C 159.71 50.75 161.10 50.14 162.51 49.55 C 162.23 50.09 161.69 51.18 161.42 51.72 C 161.30 51.94 161.07 52.39 160.95 52.62 C 160.23 53.63 160.06 55.16 161.16 56.00 L 155.38 56.00 C 155.57 54.55 155.75 53.10 155.91 51.65 L 155.97 50.82 C 156.54 50.92 157.69 51.13 158.27 51.24 Z" />
<path fill="#33302b" opacity="1.00" d=" M 214.26 50.98 C 215.68 50.52 217.09 50.03 218.51 49.55 C 218.23 50.10 217.69 51.18 217.42 51.72 C 217.31 51.94 217.07 52.39 216.96 52.62 C 216.24 53.63 216.05 55.16 217.16 56.00 L 210.95 56.00 C 211.81 55.01 212.07 53.68 212.08 52.41 L 212.14 51.65 C 212.67 51.48 213.73 51.14 214.26 50.98 Z" />
</g>
<g id="#9db4c9ff">
<path fill="#9db4c9" opacity="1.00" d=" M 42.02 50.52 C 42.65 50.62 43.91 50.81 44.54 50.91 L 44.36 51.64 C 43.76 51.95 42.58 52.57 41.99 52.88 L 41.60 52.22 C 41.70 51.79 41.91 50.95 42.02 50.52 Z" />
<path fill="#9db4c9" opacity="1.00" d=" M 98.00 50.48 C 98.53 50.77 99.60 51.35 100.14 51.65 L 100.08 52.41 C 99.46 52.58 98.21 52.93 97.59 53.11 L 97.46 52.32 C 97.60 51.86 97.86 50.94 98.00 50.48 Z" />
<path fill="#9db4c9" opacity="1.00" d=" M 210.00 50.48 C 210.53 50.77 211.60 51.35 212.14 51.65 L 212.08 52.41 C 211.46 52.58 210.21 52.93 209.59 53.11 L 209.46 52.32 C 209.60 51.86 209.86 50.94 210.00 50.48 Z" />
</g>
<g id="#719d5aff">
<path fill="#719d5a" opacity="1.00" d=" M 49.42 51.72 C 50.65 51.49 51.88 51.29 53.12 51.09 C 53.64 52.18 54.16 53.27 54.69 54.36 C 55.06 53.42 55.41 52.49 55.75 51.55 C 55.70 53.03 55.67 54.51 55.64 56.00 L 51.67 56.00 C 50.83 54.82 49.93 53.69 48.95 52.62 C 49.07 52.39 49.30 51.94 49.42 51.72 Z" />
<path fill="#719d5a" opacity="1.00" d=" M 105.43 51.72 C 106.65 51.49 107.89 51.29 109.12 51.08 C 109.64 52.18 110.16 53.27 110.69 54.36 C 111.05 53.43 111.41 52.49 111.75 51.55 C 111.70 53.03 111.66 54.51 111.64 56.00 L 107.67 56.00 C 106.83 54.82 105.93 53.69 104.96 52.62 C 105.08 52.39 105.31 51.95 105.43 51.72 Z" />
<path fill="#719d5a" opacity="1.00" d=" M 161.42 51.72 C 162.65 51.49 163.88 51.29 165.12 51.09 C 165.64 52.18 166.16 53.27 166.69 54.36 C 167.05 53.43 167.41 52.49 167.75 51.55 C 167.70 53.03 167.66 54.51 167.64 56.00 L 163.67 56.00 C 162.83 54.82 161.93 53.69 160.95 52.62 C 161.07 52.39 161.30 51.94 161.42 51.72 Z" />
<path fill="#719d5a" opacity="1.00" d=" M 217.42 51.72 C 218.65 51.49 219.89 51.29 221.13 51.08 C 221.62 52.17 222.12 53.26 222.63 54.35 C 223.10 53.37 223.55 52.39 224.00 51.40 L 224.00 56.00 L 219.67 56.00 C 218.83 54.82 217.93 53.69 216.96 52.62 C 217.07 52.39 217.31 51.94 217.42 51.72 Z" />
</g>
</svg>
