<?xml version="1.0" encoding="UTF-8" ?>
<!DOCTYPE svg PUBLIC "-//W3C//DTD SVG 1.1//EN" "http://www.w3.org/Graphics/SVG/1.1/DTD/svg11.dtd">
<svg width="224pt" height="56pt" viewBox="0 0 224 56" version="1.1" xmlns="http://www.w3.org/2000/svg">
<g id="#87b15fff">
<path fill="#87b15f" opacity="1.00" d=" M 0.00 0.00 L 6.68 0.00 C 4.84 1.58 2.96 3.13 1.23 4.83 C 0.92 5.18 0.31 5.88 0.00 6.22 L 0.00 0.00 Z" />
</g>
<g id="#689860ff">
<path fill="#689860" opacity="1.00" d=" M 6.68 0.00 L 7.22 0.00 C 7.24 0.68 7.29 2.04 7.31 2.72 C 8.11 2.78 9.70 2.92 10.50 2.99 C 9.81 1.98 9.12 0.99 8.41 0.00 L 10.38 0.00 C 11.19 1.94 11.92 3.92 12.64 5.89 L 12.15 5.77 C 9.52 5.00 6.78 4.80 4.05 4.93 C 6.25 6.02 8.56 7.14 11.09 6.86 C 10.28 7.70 9.47 8.56 8.67 9.41 L 8.28 9.17 C 7.69 8.80 6.51 8.05 5.93 7.68 C 4.38 6.70 2.81 5.76 1.23 4.83 C 2.96 3.13 4.84 1.58 6.68 0.00 Z" />
<path fill="#689860" opacity="1.00" d=" M 62.84 0.00 L 63.24 0.00 C 63.26 0.68 63.29 2.04 63.30 2.71 C 64.10 2.78 65.70 2.92 66.50 2.98 C 65.81 1.98 65.11 0.98 64.39 0.00 L 66.35 0.00 C 67.20 1.96 67.95 3.97 68.71 5.96 L 67.99 5.79 C 65.57 5.19 63.12 4.75 60.65 4.42 C 61.96 5.61 63.26 6.80 64.58 7.97 C 65.23 7.55 66.54 6.72 67.19 6.30 C 66.87 6.92 66.22 8.16 65.89 8.78 L 64.98 9.05 L 64.53 8.95 C 63.89 8.62 62.62 7.95 61.98 7.62 C 60.33 6.69 58.69 5.72 57.05 4.78 C 59.15 3.40 60.96 1.65 62.84 0.00 Z" />
<path fill="#689860" opacity="1.00" d=" M 118.84 0.00 L 119.24 0.00 C 119.26 0.68 119.29 2.04 119.30 2.71 C 120.10 2.78 121.70 2.92 122.50 2.98 C 121.81 1.98 121.11 0.98 120.39 -0.00 L 122.35 0.00 C 123.20 1.96 123.95 3.97 124.71 5.96 L 123.99 5.79 C 121.57 5.19 119.12 4.75 116.65 4.42 C 117.96 5.61 119.26 6.80 120.58 7.97 C 121.23 7.55 122.54 6.72 123.19 6.30 C 122.87 6.92 122.22 8.16 121.90 8.78 L 120.99 9.06 L 120.53 8.95 C 119.87 8.61 118.55 7.91 117.89 7.57 C 116.27 6.65 114.66 5.70 113.05 4.78 C 115.15 3.41 116.96 1.65 118.84 0.00 Z" />
<path fill="#689860" opacity="1.00" d=" M 174.84 0.00 L 175.24 0.00 C 175.26 0.68 175.29 2.04 175.30 2.71 C 176.10 2.78 177.70 2.92 178.50 2.98 C 177.81 1.98 177.11 0.98 176.39 0.00 L 178.35 0.00 C 179.20 1.96 179.95 3.97 180.71 5.96 L 179.99 5.79 C 177.57 5.19 175.12 4.75 172.65 4.42 C 173.96 5.61 175.26 6.80 176.58 7.97 C 177.23 7.55 178.54 6.72 179.19 6.30 C 178.87 6.92 178.22 8.16 177.89 8.78 L 176.98 9.05 L 176.53 8.95 C 175.89 8.62 174.62 7.95 173.98 7.62 C 172.33 6.69 170.69 5.72 169.05 4.78 C 171.15 3.40 172.96 1.65 174.84 0.00 Z" />
</g>
<g id="#87b05cff">
<path fill="#87b05c" opacity="1.00" d=" M 7.22 0.00 L 8.41 0.00 C 9.12 0.99 9.81 1.98 10.50 2.99 C 9.70 2.92 8.11 2.78 7.31 2.72 C 7.29 2.04 7.24 0.68 7.22 0.00 Z" />
<path fill="#87b05c" opacity="1.00" d=" M 63.24 0.00 L 64.39 0.00 C 65.11 0.98 65.81 1.98 66.50 2.98 C 65.70 2.92 64.10 2.78 63.30 2.71 C 63.29 2.04 63.26 0.68 63.24 0.00 Z" />
<path fill="#87b05c" opacity="1.00" d=" M 119.24 0.00 L 120.39 0.00 C 121.11 0.98 121.81 1.98 122.50 2.98 C 121.70 2.92 120.10 2.78 119.30 2.71 C 119.29 2.04 119.26 0.68 119.24 0.00 Z" />
<path fill="#87b05c" opacity="1.00" d=" M 175.24 0.00 L 176.39 0.00 C 177.11 0.98 177.81 1.98 178.50 2.98 C 177.70 2.92 176.10 2.78 175.30 2.71 C 175.29 2.04 175.26 0.68 175.24 0.00 Z" />
</g>
<g id="#80aa5cff">
<path fill="#80aa5c" opacity="1.00" d=" M 10.38 0.00 L 32.65 0.00 C 33.19 0.48 34.26 1.43 34.80 1.90 C 37.42 1.97 40.04 2.06 42.66 2.19 C 42.54 1.46 42.42 0.73 42.30 -0.00 L 49.67 0.00 C 50.72 2.04 51.73 4.10 52.81 6.12 C 49.42 6.23 46.02 6.44 42.62 6.36 C 41.62 6.20 40.61 6.04 39.60 5.88 L 38.90 5.76 C 36.17 5.41 33.43 5.17 30.68 5.00 C 31.25 3.90 32.28 2.00 30.79 1.17 C 28.70 1.08 29.49 3.91 30.18 5.00 C 28.65 5.10 27.12 5.23 25.60 5.39 C 23.61 5.62 21.64 5.92 19.67 6.22 C 19.38 5.36 18.81 3.63 18.52 2.76 C 17.40 4.01 16.27 5.26 15.23 6.58 C 14.37 6.35 13.51 6.12 12.64 5.89 C 11.92 3.92 11.19 1.94 10.38 0.00 Z" />
<path fill="#80aa5c" opacity="1.00" d=" M 66.35 0.00 L 88.65 0.00 C 89.19 0.48 90.26 1.43 90.80 1.90 C 93.42 1.97 96.04 2.06 98.66 2.19 C 98.54 1.46 98.42 0.73 98.30 0.00 L 105.67 0.00 C 106.72 2.04 107.73 4.10 108.82 6.12 C 105.42 6.22 102.02 6.44 98.62 6.35 C 97.66 6.19 96.69 6.03 95.73 5.87 C 95.03 5.74 94.34 5.64 93.64 5.55 C 91.32 5.30 89.00 5.10 86.68 4.96 C 87.26 3.87 88.29 1.97 86.79 1.15 C 84.70 1.06 85.47 3.87 86.18 4.96 C 84.65 5.06 83.12 5.21 81.60 5.40 C 79.63 5.65 77.67 6.00 75.72 6.34 C 75.48 5.51 75.00 3.85 74.76 3.02 C 73.51 4.01 72.24 4.98 71.00 5.99 C 70.54 6.31 69.64 6.97 69.19 7.30 C 69.07 6.96 68.83 6.30 68.71 5.96 C 67.95 3.97 67.20 1.96 66.35 0.00 Z" />
<path fill="#80aa5c" opacity="1.00" d=" M 122.35 0.00 L 144.65 0.00 C 145.19 0.48 146.26 1.43 146.80 1.90 C 149.42 1.97 152.04 2.06 154.66 2.19 C 154.54 1.46 154.42 0.73 154.30 0.00 L 161.67 0.00 C 162.72 2.04 163.73 4.10 164.81 6.12 C 161.41 6.23 158.02 6.43 154.62 6.35 C 153.65 6.20 152.69 6.04 151.73 5.88 C 151.02 5.75 150.32 5.64 149.62 5.55 C 147.30 5.31 144.99 5.11 142.68 4.95 C 143.26 3.87 144.29 1.97 142.79 1.15 C 140.70 1.06 141.47 3.87 142.18 4.95 C 140.65 5.06 139.12 5.21 137.60 5.40 C 135.65 5.66 133.71 6.00 131.78 6.36 C 131.53 5.52 131.01 3.85 130.76 3.02 C 129.50 4.01 128.24 4.98 126.99 5.98 C 126.54 6.31 125.64 6.97 125.18 7.30 C 125.07 6.96 124.83 6.30 124.71 5.96 C 123.95 3.97 123.20 1.96 122.35 0.00 Z" />
<path fill="#80aa5c" opacity="1.00" d=" M 178.35 0.00 L 200.66 0.00 C 201.20 0.48 202.26 1.45 202.80 1.93 C 205.64 1.97 208.48 2.03 211.33 2.04 C 210.66 1.34 209.97 0.67 209.28 0.00 L 217.66 0.00 C 218.69 1.98 219.68 3.98 220.75 5.94 C 217.36 6.04 214.00 6.33 210.62 6.35 C 209.65 6.19 208.69 6.04 207.72 5.87 C 207.04 5.75 206.35 5.64 205.66 5.56 C 203.33 5.30 201.00 5.10 198.68 4.95 C 199.26 3.87 200.29 1.97 198.79 1.15 C 196.70 1.05 197.46 3.87 198.18 4.95 C 196.65 5.06 195.12 5.21 193.60 5.40 C 191.68 5.66 189.78 6.02 187.88 6.39 C 187.60 5.55 187.02 3.87 186.74 3.03 C 185.49 4.01 184.23 4.98 182.99 5.98 C 182.54 6.31 181.64 6.97 181.19 7.29 C 181.07 6.96 180.83 6.30 180.71 5.96 C 179.95 3.97 179.20 1.96 178.35 0.00 Z" />
</g>
<g id="#709c57ff">
<path fill="#709c57" opacity="1.00" d=" M 32.65 0.00 L 42.30 0.00 C 42.42 0.73 42.54 1.46 42.66 2.19 C 40.04 2.06 37.42 1.97 34.80 1.90 C 34.26 1.43 33.19 0.48 32.65 0.00 Z" />
<path fill="#709c57" opacity="1.00" d=" M 88.65 0.00 L 98.30 0.00 C 98.42 0.73 98.54 1.46 98.66 2.19 C 96.04 2.06 93.42 1.97 90.80 1.90 C 90.26 1.43 89.19 0.48 88.65 0.00 Z" />
<path fill="#709c57" opacity="1.00" d=" M 144.65 0.00 L 154.30 0.00 C 154.42 0.73 154.54 1.46 154.66 2.19 C 152.04 2.06 149.42 1.97 146.80 1.90 C 146.26 1.43 145.19 0.48 144.65 0.00 Z" />
<path fill="#709c57" opacity="1.00" d=" M 200.66 0.00 L 209.28 0.00 C 209.97 0.67 210.66 1.34 211.33 2.04 C 208.48 2.03 205.64 1.97 202.80 1.93 C 202.26 1.45 201.20 0.48 200.66 0.00 Z" />
</g>
<g id="#659764ff">
<path fill="#659764" opacity="1.00" d=" M 49.67 0.00 L 51.41 0.00 C 53.49 1.30 54.56 3.51 55.45 5.69 C 54.58 5.88 53.70 6.02 52.81 6.12 C 51.73 4.10 50.72 2.04 49.67 0.00 Z" />
<path fill="#659764" opacity="1.00" d=" M 105.67 0.00 L 107.41 0.00 C 109.51 1.29 110.52 3.53 111.46 5.69 C 110.59 5.88 109.70 6.02 108.82 6.12 C 107.73 4.10 106.72 2.04 105.67 0.00 Z" />
<path fill="#659764" opacity="1.00" d=" M 161.67 0.00 L 163.41 0.00 C 165.50 1.30 166.54 3.52 167.45 5.69 C 166.58 5.88 165.70 6.02 164.81 6.12 C 163.73 4.10 162.72 2.04 161.67 0.00 Z" />
<path fill="#659764" opacity="1.00" d=" M 217.66 0.00 L 219.42 0.00 C 221.45 1.46 222.55 3.73 223.71 5.86 C 222.72 5.86 221.73 5.90 220.75 5.94 C 219.68 3.98 218.69 1.98 217.66 0.00 Z" />
</g>
<g id="#88b25fff">
<path fill="#88b25f" opacity="1.00" d=" M 51.41 0.00 L 62.84 0.00 C 60.96 1.65 59.15 3.40 57.05 4.78 C 56.52 5.10 55.99 5.41 55.45 5.69 C 54.56 3.51 53.49 1.30 51.41 0.00 Z" />
<path fill="#88b25f" opacity="1.00" d=" M 107.41 0.00 L 118.84 0.00 C 116.96 1.65 115.15 3.41 113.05 4.78 C 112.53 5.10 112.00 5.41 111.46 5.69 C 110.52 3.53 109.51 1.29 107.41 0.00 Z" />
<path fill="#88b25f" opacity="1.00" d=" M 163.41 0.00 L 174.84 0.00 C 172.96 1.65 171.15 3.40 169.05 4.78 C 168.52 5.10 167.99 5.41 167.45 5.69 C 166.54 3.52 165.50 1.30 163.41 0.00 Z" />
</g>
<g id="#8ab460ff">
<path fill="#8ab460" opacity="1.00" d=" M 219.42 0.00 L 224.00 0.00 L 224.00 5.87 L 223.71 5.86 C 222.55 3.73 221.45 1.46 219.42 0.00 Z" />
</g>
<g id="#649560ff">
<path fill="#649560" opacity="1.00" d=" M 30.18 5.00 C 29.49 3.91 28.70 1.08 30.79 1.17 C 32.28 2.00 31.25 3.90 30.68 5.00 L 30.18 5.00 Z" />
<path fill="#649560" opacity="1.00" d=" M 86.18 4.96 C 85.47 3.87 84.70 1.06 86.79 1.15 C 88.29 1.97 87.26 3.87 86.68 4.96 L 86.18 4.96 Z" />
<path fill="#649560" opacity="1.00" d=" M 142.18 4.95 C 141.47 3.87 140.70 1.06 142.79 1.15 C 144.29 1.97 143.26 3.87 142.68 4.95 L 142.18 4.95 Z" />
<path fill="#649560" opacity="1.00" d=" M 198.18 4.95 C 197.46 3.87 196.70 1.05 198.79 1.15 C 200.29 1.97 199.26 3.87 198.68 4.95 L 198.18 4.95 Z" />
</g>
<g id="#5f8d63ff">
<path fill="#5f8d63" opacity="1.00" d=" M 15.23 6.58 C 16.27 5.26 17.40 4.01 18.52 2.76 C 18.81 3.63 19.38 5.36 19.67 6.22 C 18.02 6.57 16.38 6.92 14.73 7.24 L 15.23 6.58 Z" />
<path fill="#5f8d63" opacity="1.00" d=" M 71.00 5.99 C 72.24 4.98 73.51 4.01 74.76 3.02 C 75.00 3.85 75.48 5.51 75.72 6.34 C 73.97 6.54 72.22 6.73 70.46 6.88 L 71.00 5.99 Z" />
<path fill="#5f8d63" opacity="1.00" d=" M 126.99 5.98 C 128.24 4.98 129.50 4.01 130.76 3.02 C 131.01 3.85 131.53 5.52 131.78 6.36 C 130.01 6.55 128.23 6.73 126.46 6.88 L 126.99 5.98 Z" />
<path fill="#5f8d63" opacity="1.00" d=" M 182.99 5.98 C 184.23 4.98 185.49 4.01 186.74 3.03 C 187.02 3.87 187.60 5.55 187.88 6.39 C 186.08 6.57 184.27 6.73 182.46 6.87 L 182.99 5.98 Z" />
</g>
<g id="#8fb263fe">
<path fill="#8fb263" opacity="1.00" d=" M 4.05 4.93 C 6.78 4.80 9.52 5.00 12.15 5.77 L 11.09 6.86 C 8.56 7.14 6.25 6.02 4.05 4.93 Z" />
<path fill="#8fb263" opacity="1.00" d=" M 60.65 4.42 C 63.12 4.75 65.57 5.19 67.99 5.79 L 67.19 6.30 C 66.54 6.72 65.23 7.55 64.58 7.97 C 63.26 6.80 61.96 5.61 60.65 4.42 Z" />
<path fill="#8fb263" opacity="1.00" d=" M 116.65 4.42 C 119.12 4.75 121.57 5.19 123.99 5.79 L 123.19 6.30 C 122.54 6.72 121.23 7.55 120.58 7.97 C 119.26 6.80 117.96 5.61 116.65 4.42 Z" />
<path fill="#8fb263" opacity="1.00" d=" M 172.65 4.42 C 175.12 4.75 177.57 5.19 179.99 5.79 L 179.19 6.30 C 178.54 6.72 177.23 7.55 176.58 7.97 C 175.26 6.80 173.96 5.61 172.65 4.42 Z" />
</g>
<g id="#363933ff">
<path fill="#363933" opacity="1.00" d=" M 1.23 4.83 C 2.81 5.76 4.38 6.70 5.93 7.68 C 2.57 11.41 0.02 16.32 2.74 21.20 C 2.25 21.34 1.26 21.61 0.76 21.74 L 0.00 21.73 L 0.00 6.22 C 0.31 5.88 0.92 5.18 1.23 4.83 Z" />
</g>
<g id="#cfcb89ff">
<path fill="#cfcb89" opacity="1.00" d=" M 19.67 6.22 C 21.64 5.92 23.61 5.62 25.60 5.39 C 31.15 7.31 37.04 8.44 42.11 11.54 C 43.19 12.64 44.28 13.74 45.38 14.83 C 44.51 15.55 43.65 16.28 42.79 17.00 C 41.52 16.63 40.25 16.29 38.97 15.99 C 40.14 16.02 41.31 16.05 42.49 16.05 C 37.72 10.65 30.52 9.60 23.70 8.88 C 23.51 10.39 23.31 11.91 23.10 13.42 C 22.80 12.63 22.20 11.06 21.90 10.28 C 19.94 11.31 17.93 12.26 16.07 13.49 C 15.72 13.76 15.01 14.30 14.65 14.57 C 14.86 14.23 15.28 13.54 15.49 13.19 C 16.89 10.88 18.31 8.57 19.67 6.22 Z" />
<path fill="#cfcb89" opacity="1.00" d=" M 75.72 6.34 C 77.67 6.00 79.63 5.65 81.60 5.40 C 86.94 7.26 92.75 8.14 97.48 11.43 C 98.64 13.03 99.79 14.65 101.02 16.20 C 99.45 16.12 97.88 16.04 96.32 15.92 C 93.59 9.28 85.67 9.89 79.69 8.91 C 79.50 10.41 79.31 11.92 79.10 13.42 C 78.80 12.65 78.21 11.10 77.91 10.33 C 75.89 11.45 73.88 12.57 71.96 13.85 C 71.66 14.10 71.07 14.60 70.78 14.85 C 70.88 14.32 71.08 13.27 71.19 12.74 C 72.66 10.58 74.25 8.51 75.72 6.34 Z" />
<path fill="#cfcb89" opacity="1.00" d=" M 187.88 6.39 C 189.78 6.02 191.68 5.66 193.60 5.40 C 198.95 7.26 204.74 8.18 209.52 11.40 C 210.80 13.28 211.88 15.27 212.99 17.25 C 211.77 16.99 210.54 16.77 209.31 16.59 C 207.55 14.48 205.97 11.86 203.25 10.92 C 199.43 10.03 195.55 9.54 191.70 8.90 C 191.50 10.40 191.31 11.91 191.10 13.41 C 190.81 12.65 190.22 11.13 189.93 10.37 C 187.90 11.46 185.91 12.52 183.97 13.74 C 183.66 14.01 183.04 14.54 182.72 14.81 C 182.76 14.22 182.83 13.05 182.86 12.47 C 184.61 10.51 186.30 8.49 187.88 6.39 Z" />
</g>
<g id="#b5ac6fff">
<path fill="#b5ac6f" opacity="1.00" d=" M 25.60 5.39 C 27.12 5.23 28.65 5.10 30.18 5.00 L 30.68 5.00 C 33.43 5.17 36.17 5.41 38.90 5.76 C 39.92 7.71 40.92 9.68 42.11 11.54 C 37.04 8.44 31.15 7.31 25.60 5.39 Z" />
</g>
<g id="#63594aff">
<path fill="#63594a" opacity="1.00" d=" M 39.60 5.88 C 40.61 6.04 41.62 6.20 42.62 6.36 C 46.11 7.08 49.59 7.79 53.12 8.26 C 52.25 10.26 51.27 12.21 50.15 14.08 L 50.01 14.32 C 48.68 12.31 47.27 10.32 45.35 8.82 C 43.47 7.77 41.57 6.77 39.60 5.88 Z" />
<path fill="#63594a" opacity="1.00" d=" M 95.73 5.87 C 96.69 6.03 97.66 6.19 98.62 6.35 C 102.11 7.09 105.60 7.79 109.14 8.27 C 108.25 10.25 107.31 12.21 106.18 14.06 L 106.02 14.28 C 104.66 12.26 103.20 10.26 101.21 8.82 C 99.41 7.77 97.60 6.76 95.73 5.87 Z" />
<path fill="#63594a" opacity="1.00" d=" M 151.73 5.88 C 152.69 6.04 153.65 6.20 154.62 6.35 C 158.10 7.09 161.60 7.79 165.13 8.26 C 164.23 10.26 163.17 12.18 162.06 14.07 L 161.87 14.39 C 160.81 12.19 159.35 10.16 157.30 8.78 C 155.47 7.75 153.62 6.77 151.73 5.88 Z" />
<path fill="#63594a" opacity="1.00" d=" M 207.72 5.87 C 208.69 6.04 209.65 6.19 210.62 6.35 C 214.12 7.10 217.64 7.80 221.19 8.29 C 220.23 10.26 219.17 12.19 217.96 14.01 L 217.74 14.33 C 216.74 12.14 215.33 10.12 213.29 8.78 C 211.46 7.76 209.61 6.77 207.72 5.87 Z" />
</g>
<g id="#34322eff">
<path fill="#34322e" opacity="1.00" d=" M 42.62 6.36 C 46.02 6.44 49.42 6.23 52.81 6.12 C 53.70 6.02 54.58 5.88 55.45 5.69 C 55.99 5.41 56.52 5.10 57.05 4.78 C 58.69 5.72 60.33 6.69 61.98 7.62 C 58.99 11.18 55.89 15.71 58.77 20.33 C 58.31 20.49 57.37 20.82 56.91 20.98 C 56.11 21.22 55.32 21.43 54.51 21.62 C 53.33 21.52 52.13 21.39 50.95 21.62 L 51.13 21.27 C 52.40 18.64 53.68 16.02 54.93 13.39 C 53.50 13.59 52.08 13.81 50.65 14.01 L 50.15 14.08 C 51.27 12.21 52.25 10.26 53.12 8.26 C 49.59 7.79 46.11 7.08 42.62 6.36 Z" />
</g>
<g id="#b7ae70ff">
<path fill="#b7ae70" opacity="1.00" d=" M 81.60 5.40 C 83.12 5.21 84.65 5.06 86.18 4.96 L 86.68 4.96 C 89.00 5.10 91.32 5.30 93.64 5.55 C 94.91 7.51 96.16 9.50 97.48 11.43 C 92.75 8.14 86.94 7.26 81.60 5.40 Z" />
<path fill="#b7ae70" opacity="1.00" d=" M 137.60 5.40 C 139.12 5.21 140.65 5.06 142.18 4.95 L 142.68 4.95 C 144.99 5.11 147.30 5.31 149.62 5.55 C 150.92 7.51 152.21 9.47 153.54 11.40 C 148.75 8.19 142.96 7.26 137.60 5.40 Z" />
<path fill="#b7ae70" opacity="1.00" d=" M 193.60 5.40 C 195.12 5.21 196.65 5.06 198.18 4.95 L 198.68 4.95 C 201.00 5.10 203.33 5.30 205.66 5.56 C 206.95 7.50 208.24 9.45 209.52 11.40 C 204.74 8.18 198.95 7.26 193.60 5.40 Z" />
</g>
<g id="#9b8e58ff">
<path fill="#9b8e58" opacity="1.00" d=" M 93.64 5.55 C 94.34 5.64 95.03 5.74 95.73 5.87 C 97.60 6.76 99.41 7.77 101.21 8.82 C 102.23 11.51 103.25 14.20 104.23 16.91 C 103.95 17.33 103.37 18.17 103.09 18.59 C 102.37 17.82 101.68 17.02 101.02 16.20 C 99.79 14.65 98.64 13.03 97.48 11.43 C 96.16 9.50 94.91 7.51 93.64 5.55 Z" />
</g>
<g id="#34302bff">
<path fill="#34302b" opacity="1.00" d=" M 98.62 6.35 C 102.02 6.44 105.42 6.22 108.82 6.12 C 109.70 6.02 110.59 5.88 111.46 5.69 C 112.00 5.41 112.53 5.10 113.05 4.78 C 114.66 5.70 116.27 6.65 117.89 7.57 C 115.30 11.12 113.53 15.17 112.50 19.45 L 112.20 20.33 C 111.82 20.57 111.08 21.07 110.71 21.32 C 109.26 20.61 107.61 20.29 106.04 20.75 C 107.83 18.39 109.59 16.00 111.25 13.53 C 109.71 13.68 108.18 13.85 106.65 14.01 L 106.18 14.06 C 107.31 12.21 108.25 10.25 109.14 8.27 C 105.60 7.79 102.11 7.09 98.62 6.35 Z" />
</g>
<g id="#d0cb89ff">
<path fill="#d0cb89" opacity="1.00" d=" M 131.78 6.36 C 133.71 6.00 135.65 5.66 137.60 5.40 C 142.96 7.26 148.75 8.19 153.54 11.40 C 154.70 13.02 155.78 14.68 156.88 16.34 C 155.39 15.85 153.92 15.33 152.46 14.77 C 148.09 10.16 141.64 9.78 135.70 8.87 C 135.50 10.39 135.31 11.90 135.10 13.41 C 134.81 12.66 134.25 11.16 133.96 10.41 C 131.89 11.48 129.83 12.53 127.82 13.71 C 127.54 13.90 126.97 14.29 126.69 14.49 C 126.80 14.06 127.02 13.21 127.13 12.78 C 128.75 10.69 130.31 8.55 131.78 6.36 Z" />
</g>
<g id="#9d8f55ff">
<path fill="#9d8f55" opacity="1.00" d=" M 149.62 5.55 C 150.32 5.64 151.02 5.75 151.73 5.88 C 153.62 6.77 155.47 7.75 157.30 8.78 C 158.23 11.38 159.18 13.98 159.87 16.66 L 159.84 17.28 C 159.10 17.04 157.62 16.57 156.88 16.34 C 155.78 14.68 154.70 13.02 153.54 11.40 C 152.21 9.47 150.92 7.51 149.62 5.55 Z" />
</g>
<g id="#34332eff">
<path fill="#34332e" opacity="1.00" d=" M 154.62 6.35 C 158.02 6.43 161.41 6.23 164.81 6.12 C 165.70 6.02 166.58 5.88 167.45 5.69 C 167.99 5.41 168.52 5.10 169.05 4.78 C 170.69 5.72 172.33 6.69 173.98 7.62 C 171.03 11.15 167.94 15.62 170.68 20.23 C 170.13 20.33 169.04 20.52 168.49 20.61 C 168.09 20.52 167.29 20.35 166.89 20.26 C 165.46 19.72 164.00 19.23 162.47 19.09 L 162.44 18.72 C 164.08 17.02 165.73 15.32 167.31 13.57 C 165.73 13.71 164.15 13.87 162.57 14.02 L 162.06 14.07 C 163.17 12.18 164.23 10.26 165.13 8.26 C 161.60 7.79 158.10 7.09 154.62 6.35 Z" />
</g>
<g id="#9d8f56ff">
<path fill="#9d8f56" opacity="1.00" d=" M 205.66 5.56 C 206.35 5.64 207.04 5.75 207.72 5.87 C 209.61 6.77 211.46 7.76 213.29 8.78 C 214.27 11.49 215.29 14.19 216.03 16.97 C 215.79 17.35 215.32 18.11 215.08 18.49 C 214.56 18.18 213.51 17.56 212.99 17.25 C 211.88 15.27 210.80 13.28 209.52 11.40 C 208.24 9.45 206.95 7.50 205.66 5.56 Z" />
</g>
<g id="#332f2aff">
<path fill="#332f2a" opacity="1.00" d=" M 210.62 6.35 C 214.00 6.33 217.36 6.04 220.75 5.94 C 221.73 5.90 222.72 5.86 223.71 5.86 L 224.00 5.87 L 224.00 21.10 L 223.00 20.99 C 221.42 20.65 219.79 20.30 218.18 20.62 C 219.89 18.28 221.60 15.95 223.23 13.55 C 221.68 13.68 220.13 13.84 218.58 13.97 L 217.96 14.01 C 219.17 12.19 220.23 10.26 221.19 8.29 C 217.64 7.80 214.12 7.10 210.62 6.35 Z" />
</g>
<g id="#675a4aff">
<path fill="#675a4a" opacity="1.00" d=" M 12.15 5.77 L 12.64 5.89 C 13.51 6.12 14.37 6.35 15.23 6.58 L 14.73 7.24 C 13.18 9.40 11.71 11.64 10.22 13.85 C 11.66 13.72 13.10 13.59 14.54 13.43 C 13.66 13.79 12.78 14.18 11.91 14.58 C 12.13 15.80 12.35 17.03 12.51 18.27 C 12.51 19.05 12.51 19.84 12.51 20.62 L 12.51 21.36 C 11.40 21.06 10.42 21.33 9.58 22.17 L 8.88 22.70 C 10.23 19.68 6.73 18.72 4.78 20.46 L 4.24 20.68 L 2.74 21.20 C 0.02 16.32 2.57 11.41 5.93 7.68 C 6.51 8.05 7.69 8.80 8.28 9.17 C 7.27 10.69 7.04 12.96 8.73 14.11 C 7.36 14.68 6.00 15.26 4.64 15.85 C 6.18 16.57 7.76 17.21 9.41 17.59 C 9.35 16.36 9.29 15.13 9.23 13.90 C 9.24 12.39 9.12 10.86 8.67 9.41 C 9.47 8.56 10.28 7.70 11.09 6.86 L 12.15 5.77 Z" />
</g>
<g id="#b0a66afe">
<path fill="#b0a66a" opacity="1.00" d=" M 14.73 7.24 C 16.38 6.92 18.02 6.57 19.67 6.22 C 18.31 8.57 16.89 10.88 15.49 13.19 L 14.54 13.43 C 13.10 13.59 11.66 13.72 10.22 13.85 C 11.71 11.64 13.18 9.40 14.73 7.24 Z" />
<path fill="#b0a66a" opacity="1.00" d=" M 70.46 6.88 C 72.22 6.73 73.97 6.54 75.72 6.34 C 74.25 8.51 72.66 10.58 71.19 12.74 L 69.94 13.06 C 68.76 13.34 67.59 13.62 66.41 13.88 C 67.79 11.57 69.11 9.21 70.46 6.88 Z" />
<path fill="#b0a66a" opacity="1.00" d=" M 126.46 6.88 C 128.23 6.73 130.01 6.55 131.78 6.36 C 130.31 8.55 128.75 10.69 127.13 12.78 L 126.43 13.25 C 125.08 13.52 123.72 13.75 122.36 13.99 C 123.74 11.63 125.09 9.25 126.46 6.88 Z" />
<path fill="#b0a66a" opacity="1.00" d=" M 182.46 6.87 C 184.27 6.73 186.08 6.57 187.88 6.39 C 186.30 8.49 184.61 10.51 182.86 12.47 L 182.29 13.08 C 180.99 13.43 179.68 13.73 178.37 14.03 C 179.75 11.65 181.09 9.25 182.46 6.87 Z" />
</g>
<g id="#9b894fff">
<path fill="#9b894f" opacity="1.00" d=" M 38.90 5.76 L 39.60 5.88 C 41.57 6.77 43.47 7.77 45.35 8.82 C 46.23 11.63 47.08 14.45 47.80 17.31 C 47.02 16.46 46.20 15.64 45.38 14.83 C 44.28 13.74 43.19 12.64 42.11 11.54 C 40.92 9.68 39.92 7.71 38.90 5.76 Z" />
</g>
<g id="#4f4a42ff">
<path fill="#4f4a42" opacity="1.00" d=" M 67.99 5.79 L 68.71 5.96 C 68.83 6.30 69.07 6.96 69.19 7.30 C 68.24 8.09 67.06 8.47 65.89 8.78 C 66.22 8.16 66.87 6.92 67.19 6.30 L 67.99 5.79 Z" />
<path fill="#4f4a42" opacity="1.00" d=" M 123.99 5.79 L 124.71 5.96 C 124.83 6.30 125.07 6.96 125.18 7.30 C 124.24 8.09 123.06 8.47 121.90 8.78 C 122.22 8.16 122.87 6.92 123.19 6.30 L 123.99 5.79 Z" />
<path fill="#4f4a42" opacity="1.00" d=" M 179.99 5.79 L 180.71 5.96 C 180.83 6.30 181.07 6.96 181.19 7.29 C 180.24 8.09 179.06 8.47 177.89 8.78 C 178.22 8.16 178.87 6.92 179.19 6.30 L 179.99 5.79 Z" />
</g>
<g id="#6b5f4dff">
<path fill="#6b5f4d" opacity="1.00" d=" M 69.19 7.30 C 69.64 6.97 70.54 6.31 71.00 5.99 L 70.46 6.88 C 69.11 9.21 67.79 11.57 66.41 13.88 C 67.59 13.62 68.76 13.34 69.94 13.06 C 69.14 14.38 68.45 15.78 68.14 17.30 C 68.27 18.50 68.43 19.69 68.60 20.89 C 67.54 19.93 66.14 20.60 65.30 21.45 L 64.53 22.00 L 64.55 21.45 C 64.55 20.87 64.55 19.71 64.55 19.13 C 64.61 17.38 64.78 15.64 64.98 13.91 C 65.24 12.30 65.34 10.65 64.98 9.05 L 65.89 8.78 C 67.06 8.47 68.24 8.09 69.19 7.30 Z" />
<path fill="#6b5f4d" opacity="1.00" d=" M 181.19 7.29 C 181.64 6.97 182.54 6.31 182.99 5.98 L 182.46 6.87 C 181.09 9.25 179.75 11.65 178.37 14.03 C 179.68 13.73 180.99 13.43 182.29 13.08 C 181.29 14.33 180.43 15.72 180.09 17.31 C 180.24 18.49 180.40 19.68 180.59 20.86 C 179.52 19.92 178.13 20.60 177.30 21.47 L 176.54 22.03 L 176.56 21.48 C 176.56 20.90 176.56 19.74 176.56 19.16 C 176.61 17.41 176.77 15.66 176.98 13.91 C 177.24 12.30 177.33 10.65 176.98 9.05 L 177.89 8.78 C 179.06 8.47 180.24 8.09 181.19 7.29 Z" />
</g>
<g id="#6f624eff">
<path fill="#6f624e" opacity="1.00" d=" M 125.18 7.30 C 125.64 6.97 126.54 6.31 126.99 5.98 L 126.46 6.88 C 125.09 9.25 123.74 11.63 122.36 13.99 C 123.72 13.75 125.08 13.52 126.43 13.25 C 125.52 13.85 124.62 14.46 123.72 15.07 C 124.19 16.89 124.62 18.72 125.05 20.55 C 124.45 18.88 122.45 19.41 121.52 20.44 L 120.62 21.02 L 120.65 20.48 C 120.66 19.89 120.67 18.71 120.68 18.12 C 120.73 16.72 120.84 15.32 120.98 13.92 C 121.20 12.31 121.32 10.66 120.99 9.06 L 121.90 8.78 C 123.06 8.47 124.24 8.09 125.18 7.30 Z" />
</g>
<g id="#665a4bff">
<path fill="#665a4b" opacity="1.00" d=" M 61.98 7.62 C 62.62 7.95 63.89 8.62 64.53 8.95 C 63.51 10.50 63.20 12.64 64.53 14.11 C 63.34 14.62 62.16 15.13 60.97 15.63 C 61.93 16.60 62.88 17.57 63.87 18.52 C 63.16 18.75 61.73 19.20 61.02 19.42 L 60.47 19.66 L 58.77 20.33 C 55.89 15.71 58.99 11.18 61.98 7.62 Z" />
<path fill="#665a4b" opacity="1.00" d=" M 173.98 7.62 C 174.62 7.95 175.89 8.62 176.53 8.95 C 175.51 10.50 175.20 12.64 176.53 14.11 C 175.34 14.62 174.16 15.13 172.97 15.63 C 173.93 16.61 174.89 17.60 175.88 18.56 C 175.17 18.78 173.73 19.23 173.02 19.46 L 172.46 19.68 L 170.68 20.23 C 167.94 15.62 171.03 11.15 173.98 7.62 Z" />
</g>
<g id="#655f50ff">
<path fill="#655f50" opacity="1.00" d=" M 117.89 7.57 C 118.55 7.91 119.87 8.61 120.53 8.95 C 119.50 10.50 119.19 12.65 120.53 14.11 C 119.31 14.62 118.10 15.13 116.89 15.63 C 117.89 16.29 118.88 16.95 119.88 17.60 C 119.18 17.76 117.79 18.07 117.09 18.22 L 116.60 18.37 C 115.57 18.64 113.53 19.18 112.50 19.45 C 113.53 15.17 115.30 11.12 117.89 7.57 Z" />
</g>
<g id="#332e2aff">
<path fill="#332e2a" opacity="1.00" d=" M 8.28 9.17 L 8.67 9.41 C 9.12 10.86 9.24 12.39 9.23 13.90 L 8.73 14.11 C 7.04 12.96 7.27 10.69 8.28 9.17 Z" />
<path fill="#332e2a" opacity="1.00" d=" M 64.53 8.95 L 64.98 9.05 C 65.34 10.65 65.24 12.30 64.98 13.91 L 64.53 14.11 C 63.20 12.64 63.51 10.50 64.53 8.95 Z" />
<path fill="#332e2a" opacity="1.00" d=" M 120.53 8.95 L 120.99 9.06 C 121.32 10.66 121.20 12.31 120.98 13.92 L 120.53 14.11 C 119.19 12.65 119.50 10.50 120.53 8.95 Z" />
<path fill="#332e2a" opacity="1.00" d=" M 176.53 8.95 L 176.98 9.05 C 177.33 10.65 177.24 12.30 176.98 13.91 L 176.53 14.11 C 175.20 12.64 175.51 10.50 176.53 8.95 Z" />
<path fill="#332e2a" opacity="1.00" d=" M 14.54 13.43 L 15.49 13.19 C 15.28 13.54 14.86 14.23 14.65 14.57 C 13.89 15.78 13.18 17.01 12.51 18.27 C 12.35 17.03 12.13 15.80 11.91 14.58 C 12.78 14.18 13.66 13.79 14.54 13.43 Z" />
<path fill="#332e2a" opacity="1.00" d=" M 69.94 13.06 L 71.19 12.74 C 71.08 13.27 70.88 14.32 70.78 14.85 C 70.80 15.28 70.85 16.14 70.88 16.58 C 70.19 16.76 68.82 17.12 68.14 17.30 C 68.45 15.78 69.14 14.38 69.94 13.06 Z" />
<path fill="#332e2a" opacity="1.00" d=" M 182.29 13.08 L 182.86 12.47 C 182.83 13.05 182.76 14.22 182.72 14.81 C 182.77 15.25 182.86 16.13 182.91 16.57 C 182.20 16.76 180.80 17.12 180.09 17.31 C 180.43 15.72 181.29 14.33 182.29 13.08 Z" />
<path fill="#332e2a" opacity="1.00" d=" M 117.09 18.22 C 117.79 18.07 119.18 17.76 119.88 17.60 L 120.68 18.12 C 120.67 18.71 120.66 19.89 120.65 20.48 C 119.34 19.95 118.12 19.18 117.09 18.22 Z" />
<path fill="#332e2a" opacity="1.00" d=" M 61.02 19.42 C 61.73 19.20 63.16 18.75 63.87 18.52 L 64.55 19.13 C 64.55 19.71 64.55 20.87 64.55 21.45 C 63.30 20.92 62.08 20.27 61.02 19.42 Z" />
<path fill="#332e2a" opacity="1.00" d=" M 173.02 19.46 C 173.73 19.23 175.17 18.78 175.88 18.56 L 176.56 19.16 C 176.56 19.74 176.56 20.90 176.56 21.48 C 175.30 20.96 174.07 20.32 173.02 19.46 Z" />
</g>
<g id="#dbd68aff">
<path fill="#dbd68a" opacity="1.00" d=" M 23.70 8.88 C 30.52 9.60 37.72 10.65 42.49 16.05 C 41.31 16.05 40.14 16.02 38.97 15.99 C 38.68 15.97 38.09 15.94 37.80 15.93 C 35.39 12.51 31.21 11.47 27.25 11.19 C 24.94 13.24 22.48 15.16 19.74 16.61 C 18.48 17.24 17.22 17.88 15.99 18.56 C 16.02 16.87 16.06 15.18 16.07 13.49 C 17.93 12.26 19.94 11.31 21.90 10.28 C 22.20 11.06 22.80 12.63 23.10 13.42 C 23.31 11.91 23.51 10.39 23.70 8.88 Z" />
</g>
<g id="#37312cfe">
<path fill="#37312c" opacity="1.00" d=" M 45.35 8.82 C 47.27 10.32 48.68 12.31 50.01 14.32 C 49.78 14.71 49.33 15.50 49.11 15.90 C 48.83 16.43 48.26 17.48 47.98 18.00 L 47.80 17.31 C 47.08 14.45 46.23 11.63 45.35 8.82 Z" />
</g>
<g id="#ddd88aff">
<path fill="#ddd88a" opacity="1.00" d=" M 79.69 8.91 C 85.67 9.89 93.59 9.28 96.32 15.92 C 94.78 15.81 93.25 15.66 91.73 15.47 C 92.03 14.78 92.63 13.40 92.93 12.71 C 87.70 11.84 82.01 11.50 77.36 14.52 C 78.12 14.64 79.65 14.87 80.41 14.98 C 77.88 15.17 75.35 15.37 72.83 15.59 C 72.61 15.16 72.18 14.28 71.96 13.85 C 73.88 12.57 75.89 11.45 77.91 10.33 C 78.21 11.10 78.80 12.65 79.10 13.42 C 79.31 11.92 79.50 10.41 79.69 8.91 Z" />
</g>
<g id="#38322cff">
<path fill="#38322c" opacity="1.00" d=" M 101.21 8.82 C 103.20 10.26 104.66 12.26 106.02 14.28 C 105.78 14.64 105.29 15.35 105.05 15.71 C 104.84 16.01 104.44 16.61 104.23 16.91 C 103.25 14.20 102.23 11.51 101.21 8.82 Z" />
<path fill="#38322c" opacity="1.00" d=" M 157.30 8.78 C 159.35 10.16 160.81 12.19 161.87 14.39 C 161.70 14.76 161.37 15.49 161.20 15.86 C 160.86 16.06 160.20 16.46 159.87 16.66 C 159.18 13.98 158.23 11.38 157.30 8.78 Z" />
<path fill="#38322c" opacity="1.00" d=" M 213.29 8.78 C 215.33 10.12 216.74 12.14 217.74 14.33 C 217.52 14.67 217.09 15.34 216.88 15.67 C 216.66 15.99 216.24 16.65 216.03 16.97 C 215.29 14.19 214.27 11.49 213.29 8.78 Z" />
</g>
<g id="#ded88bff">
<path fill="#ded88b" opacity="1.00" d=" M 135.70 8.87 C 141.64 9.78 148.09 10.16 152.46 14.77 C 151.79 14.55 150.45 14.11 149.78 13.90 C 144.72 11.86 138.18 10.34 133.99 14.87 C 133.08 15.72 132.22 16.62 131.34 17.50 L 130.67 18.17 C 130.04 17.28 129.41 16.39 128.81 15.49 C 128.57 15.04 128.07 14.15 127.82 13.71 C 129.83 12.53 131.89 11.48 133.96 10.41 C 134.25 11.16 134.81 12.66 135.10 13.41 C 135.31 11.90 135.50 10.39 135.70 8.87 Z" />
</g>
<g id="#ded88aff">
<path fill="#ded88a" opacity="1.00" d=" M 191.70 8.90 C 195.55 9.54 199.43 10.03 203.25 10.92 C 205.97 11.86 207.55 14.48 209.31 16.59 C 200.72 15.15 191.99 15.40 183.56 17.71 C 183.74 17.35 184.10 16.62 184.28 16.26 C 184.80 15.36 184.69 14.52 183.97 13.74 C 185.91 12.52 187.90 11.46 189.93 10.37 C 190.22 11.13 190.81 12.65 191.10 13.41 C 191.31 11.91 191.50 10.40 191.70 8.90 M 194.16 10.64 C 193.71 11.73 193.25 12.81 192.79 13.90 C 197.13 14.18 201.46 14.55 205.80 14.58 C 202.41 12.13 198.19 11.34 194.16 10.64 Z" />
</g>
<g id="#eef2acff">
<path fill="#eef2ac" opacity="1.00" d=" M 27.25 11.19 C 31.21 11.47 35.39 12.51 37.80 15.93 C 31.77 15.79 25.74 16.09 19.74 16.61 C 22.48 15.16 24.94 13.24 27.25 11.19 Z" />
<path fill="#eef2ac" opacity="1.00" d=" M 77.36 14.52 C 82.01 11.50 87.70 11.84 92.93 12.71 C 92.63 13.40 92.03 14.78 91.73 15.47 C 91.24 15.41 90.27 15.28 89.79 15.21 C 88.55 14.73 86.08 13.77 84.84 13.28 C 84.47 13.79 83.72 14.79 83.35 15.30 C 82.62 15.22 81.14 15.06 80.41 14.98 C 79.65 14.87 78.12 14.64 77.36 14.52 Z" />
<path fill="#eef2ac" opacity="1.00" d=" M 133.99 14.87 C 138.18 10.34 144.72 11.86 149.78 13.90 C 144.51 14.09 139.25 14.51 133.99 14.87 Z" />
<path fill="#eef2ac" opacity="1.00" d=" M 194.16 10.64 C 198.19 11.34 202.41 12.13 205.80 14.58 C 201.46 14.55 197.13 14.18 192.79 13.90 C 193.25 12.81 193.71 11.73 194.16 10.64 Z" />
</g>
<g id="#675b4bff">
<path fill="#675b4b" opacity="1.00" d=" M 50.65 14.01 C 52.08 13.81 53.50 13.59 54.93 13.39 C 53.68 16.02 52.40 18.64 51.13 21.27 C 50.06 20.96 48.98 20.67 47.92 20.33 C 47.72 20.19 47.31 19.91 47.10 19.76 C 47.32 19.32 47.76 18.44 47.98 18.00 C 48.26 17.48 48.83 16.43 49.11 15.90 C 49.44 16.38 50.10 17.35 50.43 17.83 C 51.36 16.76 52.28 15.69 53.20 14.62 C 52.57 14.47 51.29 14.16 50.65 14.01 Z" />
</g>
<g id="#635d55ff">
<path fill="#635d55" opacity="1.00" d=" M 106.65 14.01 C 108.18 13.85 109.71 13.68 111.25 13.53 C 109.59 16.00 107.83 18.39 106.04 20.75 L 105.66 21.26 L 104.96 20.56 C 104.49 20.06 103.56 19.08 103.09 18.59 C 103.37 18.17 103.95 17.33 104.23 16.91 C 104.44 16.61 104.84 16.01 105.05 15.71 C 105.38 16.24 106.06 17.29 106.39 17.82 C 107.33 16.76 108.27 15.70 109.22 14.64 C 108.57 14.49 107.29 14.17 106.65 14.01 Z" />
</g>
<g id="#495142ff">
<path fill="#495142" opacity="1.00" d=" M 126.43 13.25 L 127.13 12.78 C 127.02 13.21 126.80 14.06 126.69 14.49 C 126.63 14.87 126.52 15.65 126.46 16.04 C 126.32 16.54 126.05 17.55 125.91 18.05 C 125.82 18.56 125.65 19.59 125.56 20.11 L 125.05 20.55 C 124.62 18.72 124.19 16.89 123.72 15.07 C 124.62 14.46 125.52 13.85 126.43 13.25 Z" />
</g>
<g id="#655a4bff">
<path fill="#655a4b" opacity="1.00" d=" M 162.57 14.02 C 164.15 13.87 165.73 13.71 167.31 13.57 C 165.73 15.32 164.08 17.02 162.44 18.72 C 163.26 17.49 164.08 16.26 164.92 15.04 C 164.14 14.70 163.35 14.36 162.57 14.02 Z" />
</g>
<g id="#645d56ff">
<path fill="#645d56" opacity="1.00" d=" M 218.58 13.97 C 220.13 13.84 221.68 13.68 223.23 13.55 C 221.60 15.95 219.89 18.28 218.18 20.62 L 217.86 21.08 L 217.08 20.33 C 216.43 19.70 215.76 19.08 215.08 18.49 C 215.32 18.11 215.79 17.35 216.03 16.97 C 216.24 16.65 216.66 15.99 216.88 15.67 C 217.27 16.20 218.06 17.27 218.46 17.80 C 219.37 16.75 220.29 15.70 221.21 14.64 C 220.55 14.47 219.23 14.14 218.58 13.97 Z" />
</g>
<g id="#9c8a4eff">
<path fill="#9c8a4e" opacity="1.00" d=" M 8.73 14.11 L 9.23 13.90 C 9.29 15.13 9.35 16.36 9.41 17.59 C 7.76 17.21 6.18 16.57 4.64 15.85 C 6.00 15.26 7.36 14.68 8.73 14.11 Z" />
<path fill="#9c8a4e" opacity="1.00" d=" M 50.01 14.32 L 50.15 14.08 L 50.65 14.01 C 51.29 14.16 52.57 14.47 53.20 14.62 C 52.28 15.69 51.36 16.76 50.43 17.83 C 50.10 17.35 49.44 16.38 49.11 15.90 C 49.33 15.50 49.78 14.71 50.01 14.32 Z" />
<path fill="#9c8a4e" opacity="1.00" d=" M 106.02 14.28 L 106.18 14.06 L 106.65 14.01 C 107.29 14.17 108.57 14.49 109.22 14.64 C 108.27 15.70 107.33 16.76 106.39 17.82 C 106.06 17.29 105.38 16.24 105.05 15.71 C 105.29 15.35 105.78 14.64 106.02 14.28 Z" />
<path fill="#9c8a4e" opacity="1.00" d=" M 120.53 14.11 L 120.98 13.92 C 120.84 15.32 120.73 16.72 120.68 18.12 L 119.88 17.60 C 118.88 16.95 117.89 16.29 116.89 15.63 C 118.10 15.13 119.31 14.62 120.53 14.11 Z" />
<path fill="#9c8a4e" opacity="1.00" d=" M 161.87 14.39 L 162.06 14.07 L 162.57 14.02 C 163.35 14.36 164.14 14.70 164.92 15.04 C 164.08 16.26 163.26 17.49 162.44 18.72 L 162.29 18.08 C 162.02 17.53 161.47 16.42 161.20 15.86 C 161.37 15.49 161.70 14.76 161.87 14.39 Z" />
<path fill="#9c8a4e" opacity="1.00" d=" M 217.74 14.33 L 217.96 14.01 L 218.58 13.97 C 219.23 14.14 220.55 14.47 221.21 14.64 C 220.29 15.70 219.37 16.75 218.46 17.80 C 218.06 17.27 217.27 16.20 216.88 15.67 C 217.09 15.34 217.52 14.67 217.74 14.33 Z" />
</g>
<g id="#a49a62ff">
<path fill="#a49a62" opacity="1.00" d=" M 16.07 13.49 C 16.06 15.18 16.02 16.87 15.99 18.56 C 14.81 19.23 13.66 19.92 12.51 20.62 C 12.51 19.84 12.51 19.05 12.51 18.27 C 13.18 17.01 13.89 15.78 14.65 14.57 C 15.01 14.30 15.72 13.76 16.07 13.49 Z" />
</g>
<g id="#9c894eff">
<path fill="#9c894e" opacity="1.00" d=" M 64.53 14.11 L 64.98 13.91 C 64.78 15.64 64.61 17.38 64.55 19.13 L 63.87 18.52 C 62.88 17.57 61.93 16.60 60.97 15.63 C 62.16 15.13 63.34 14.62 64.53 14.11 Z" />
<path fill="#9c894e" opacity="1.00" d=" M 176.53 14.11 L 176.98 13.91 C 176.77 15.66 176.61 17.41 176.56 19.16 L 175.88 18.56 C 174.89 17.60 173.93 16.61 172.97 15.63 C 174.16 15.13 175.34 14.62 176.53 14.11 Z" />
</g>
<g id="#b6ad6fff">
<path fill="#b6ad6f" opacity="1.00" d=" M 71.96 13.85 C 72.18 14.28 72.61 15.16 72.83 15.59 L 72.44 16.23 C 72.05 16.32 71.27 16.49 70.88 16.58 C 70.85 16.14 70.80 15.28 70.78 14.85 C 71.07 14.60 71.66 14.10 71.96 13.85 Z" />
<path fill="#b6ad6f" opacity="1.00" d=" M 127.82 13.71 C 128.07 14.15 128.57 15.04 128.81 15.49 L 128.37 16.18 C 127.89 16.14 126.94 16.07 126.46 16.04 C 126.52 15.65 126.63 14.87 126.69 14.49 C 126.97 14.29 127.54 13.90 127.82 13.71 Z" />
<path fill="#b6ad6f" opacity="1.00" d=" M 183.97 13.74 C 184.69 14.52 184.80 15.36 184.28 16.26 C 183.94 16.34 183.25 16.49 182.91 16.57 C 182.86 16.13 182.77 15.25 182.72 14.81 C 183.04 14.54 183.66 14.01 183.97 13.74 Z" />
</g>
<g id="#dfd98afe">
<path fill="#dfd98a" opacity="1.00" d=" M 83.35 15.30 C 83.72 14.79 84.47 13.79 84.84 13.28 C 86.08 13.77 88.55 14.73 89.79 15.21 C 88.18 15.23 84.96 15.28 83.35 15.30 Z" />
</g>
<g id="#a7e1a2ff">
<path fill="#a7e1a2" opacity="1.00" d=" M 133.99 14.87 C 139.25 14.51 144.51 14.09 149.78 13.90 C 150.45 14.11 151.79 14.55 152.46 14.77 C 153.92 15.33 155.39 15.85 156.88 16.34 C 157.62 16.57 159.10 17.04 159.84 17.28 C 160.03 17.68 160.43 18.48 160.62 18.89 C 151.03 16.77 141.09 16.22 131.34 17.50 C 132.22 16.62 133.08 15.72 133.99 14.87 Z" />
</g>
<g id="#9edea2ff">
<path fill="#9edea2" opacity="1.00" d=" M 19.74 16.61 C 25.74 16.09 31.77 15.79 37.80 15.93 C 38.09 15.94 38.68 15.97 38.97 15.99 C 40.25 16.29 41.52 16.63 42.79 17.00 C 44.27 17.84 45.70 18.79 47.10 19.76 C 47.31 19.91 47.72 20.19 47.92 20.33 C 48.39 20.72 49.32 21.48 49.79 21.87 L 48.56 21.83 C 44.86 20.93 41.19 19.93 37.42 19.39 C 34.58 18.86 31.73 18.36 28.87 17.95 C 23.40 18.17 17.99 19.78 13.23 22.48 L 12.44 22.93 C 12.46 22.54 12.50 21.75 12.51 21.36 L 12.51 20.62 C 13.66 19.92 14.81 19.23 15.99 18.56 C 17.22 17.88 18.48 17.24 19.74 16.61 Z" />
</g>
<g id="#969770ff">
<path fill="#969770" opacity="1.00" d=" M 45.38 14.83 C 46.20 15.64 47.02 16.46 47.80 17.31 L 47.98 18.00 C 47.76 18.44 47.32 19.32 47.10 19.76 C 45.70 18.79 44.27 17.84 42.79 17.00 C 43.65 16.28 44.51 15.55 45.38 14.83 Z" />
</g>
<g id="#a1e1a3ff">
<path fill="#a1e1a3" opacity="1.00" d=" M 80.41 14.98 C 81.14 15.06 82.62 15.22 83.35 15.30 C 84.96 15.28 88.18 15.23 89.79 15.21 C 90.27 15.28 91.24 15.41 91.73 15.47 C 93.25 15.66 94.78 15.81 96.32 15.92 C 97.88 16.04 99.45 16.12 101.02 16.20 C 101.68 17.02 102.37 17.82 103.09 18.59 C 103.56 19.08 104.49 20.06 104.96 20.56 L 104.00 20.21 C 103.24 20.22 101.73 20.23 100.97 20.24 L 100.16 19.94 C 99.21 19.57 98.25 19.25 97.26 19.01 C 89.55 16.79 81.26 16.88 73.56 19.12 C 72.85 19.12 71.43 19.11 70.72 19.10 C 71.30 18.15 71.87 17.19 72.44 16.23 L 72.83 15.59 C 75.35 15.37 77.88 15.17 80.41 14.98 Z" />
<path fill="#a1e1a3" opacity="1.00" d=" M 8.88 22.70 L 9.58 22.17 C 10.15 22.46 11.28 23.04 11.85 23.33 C 11.43 23.61 10.59 24.17 10.16 24.44 C 9.81 24.19 9.11 23.67 8.76 23.41 L 8.88 22.70 Z" />
</g>
<g id="#a0dfa2fe">
<path fill="#a0dfa2" opacity="1.00" d=" M 183.56 17.71 C 191.99 15.40 200.72 15.15 209.31 16.59 C 210.54 16.77 211.77 16.99 212.99 17.25 C 213.51 17.56 214.56 18.18 215.08 18.49 C 215.76 19.08 216.43 19.70 217.08 20.33 L 215.93 20.11 C 215.16 20.23 213.63 20.48 212.87 20.60 L 211.94 20.30 C 210.99 19.97 210.05 19.65 209.11 19.35 C 201.62 15.78 193.43 18.25 185.62 19.10 C 184.89 19.10 183.43 19.10 182.70 19.10 C 182.91 18.75 183.34 18.06 183.56 17.71 Z" />
</g>
<g id="#979f6cff">
<path fill="#979f6c" opacity="1.00" d=" M 70.88 16.58 C 71.27 16.49 72.05 16.32 72.44 16.23 C 71.87 17.19 71.30 18.15 70.72 19.10 C 70.37 19.63 69.69 20.69 69.34 21.21 L 68.69 21.59 L 68.60 20.89 C 68.43 19.69 68.27 18.50 68.14 17.30 C 68.82 17.12 70.19 16.76 70.88 16.58 Z" />
<path fill="#979f6c" opacity="1.00" d=" M 182.91 16.57 C 183.25 16.49 183.94 16.34 184.28 16.26 C 184.10 16.62 183.74 17.35 183.56 17.71 C 183.34 18.06 182.91 18.75 182.70 19.10 C 182.35 19.62 181.66 20.66 181.32 21.18 L 180.69 21.56 L 180.59 20.86 C 180.40 19.68 180.24 18.49 180.09 17.31 C 180.80 17.12 182.20 16.76 182.91 16.57 Z" />
</g>
<g id="#938454ff">
<path fill="#938454" opacity="1.00" d=" M 126.46 16.04 C 126.94 16.07 127.89 16.14 128.37 16.18 C 127.95 16.72 127.11 17.81 126.69 18.36 L 125.91 18.05 C 126.05 17.55 126.32 16.54 126.46 16.04 Z" />
</g>
<g id="#a0e1a3ff">
<path fill="#a0e1a3" opacity="1.00" d=" M 128.37 16.18 L 128.81 15.49 C 129.41 16.39 130.04 17.28 130.67 18.17 C 130.43 18.40 129.94 18.86 129.69 19.09 C 128.67 18.92 127.67 18.67 126.69 18.36 C 127.11 17.81 127.95 16.72 128.37 16.18 Z" />
</g>
<g id="#40cebeff">
<path fill="#40cebe" opacity="1.00" d=" M 131.34 17.50 C 141.09 16.22 151.03 16.77 160.62 18.89 L 161.20 19.00 C 160.27 19.56 159.32 20.09 158.35 20.56 C 148.91 18.51 139.25 18.91 129.69 19.09 C 129.94 18.86 130.43 18.40 130.67 18.17 L 131.34 17.50 Z" />
</g>
<g id="#6e5f4dff">
<path fill="#6e5f4d" opacity="1.00" d=" M 161.20 15.86 C 161.47 16.42 162.02 17.53 162.29 18.08 C 162.02 18.31 161.47 18.77 161.20 19.00 L 160.62 18.89 C 160.43 18.48 160.03 17.68 159.84 17.28 L 159.87 16.66 C 160.20 16.46 160.86 16.06 161.20 15.86 Z" />
</g>
<g id="#40cebefe">
<path fill="#40cebe" opacity="1.00" d=" M 73.56 19.12 C 81.26 16.88 89.55 16.79 97.26 19.01 C 89.36 19.11 81.46 19.46 73.56 19.12 Z" />
</g>
<g id="#3fcdbeff">
<path fill="#3fcdbe" opacity="1.00" d=" M 185.62 19.10 C 193.43 18.25 201.62 15.78 209.11 19.35 C 201.27 19.20 193.44 19.37 185.62 19.10 Z" />
</g>
<g id="#1eabc1ff">
<path fill="#1eabc1" opacity="1.00" d=" M 13.23 22.48 C 17.99 19.78 23.40 18.17 28.87 17.95 C 28.70 18.47 28.35 19.53 28.17 20.06 C 31.25 19.83 34.33 19.52 37.42 19.39 C 41.19 19.93 44.86 20.93 48.56 21.83 C 36.79 22.18 24.94 20.90 13.23 22.48 Z" />
</g>
<g id="#40cfbeff">
<path fill="#40cfbe" opacity="1.00" d=" M 28.87 17.95 C 31.73 18.36 34.58 18.86 37.42 19.39 C 34.33 19.52 31.25 19.83 28.17 20.06 C 28.35 19.53 28.70 18.47 28.87 17.95 Z" />
</g>
<g id="#1da9c1ff">
<path fill="#1da9c1" opacity="1.00" d=" M 97.26 19.01 C 98.25 19.25 99.21 19.57 100.16 19.94 C 101.96 20.72 103.77 21.50 105.63 22.17 C 103.93 22.34 102.24 22.57 100.55 22.74 C 90.10 23.50 79.74 21.76 69.34 21.21 C 69.69 20.69 70.37 19.63 70.72 19.10 C 71.43 19.11 72.85 19.12 73.56 19.12 C 81.46 19.46 89.36 19.11 97.26 19.01 Z" />
</g>
<g id="#19a9c1ff">
<path fill="#19a9c1" opacity="1.00" d=" M 125.91 18.05 L 126.69 18.36 C 127.67 18.67 128.67 18.92 129.69 19.09 C 139.25 18.91 148.91 18.51 158.35 20.56 C 147.58 22.01 136.14 23.03 125.56 20.11 C 125.65 19.59 125.82 18.56 125.91 18.05 Z" />
</g>
<g id="#4378caff">
<path fill="#4378ca" opacity="1.00" d=" M 161.20 19.00 C 161.47 18.77 162.02 18.31 162.29 18.08 L 162.44 18.72 L 162.47 19.09 C 162.52 19.57 162.61 20.52 162.66 21.00 C 160.81 21.88 158.95 22.74 157.08 23.59 C 159.67 25.16 162.25 26.77 164.90 28.26 C 163.84 30.00 162.68 31.73 162.07 33.69 C 163.43 35.45 165.16 36.87 166.80 38.35 C 160.69 36.65 154.56 34.71 148.21 34.31 C 141.59 35.21 141.46 43.52 136.68 47.00 C 137.40 44.08 138.41 41.20 138.72 38.18 C 135.13 35.47 130.35 34.92 126.15 33.54 C 128.19 30.96 130.17 28.33 132.34 25.86 C 131.41 27.50 130.44 29.12 129.49 30.75 C 135.24 33.83 142.27 34.76 148.13 31.45 C 147.64 29.79 147.16 28.13 146.67 26.47 C 147.48 26.02 148.28 25.57 149.09 25.12 C 149.30 27.35 149.52 29.58 149.74 31.81 C 153.11 32.19 156.45 32.81 159.75 33.59 C 160.00 31.88 160.31 30.17 160.33 28.43 C 158.55 26.70 156.11 26.08 153.76 25.60 C 143.97 23.11 133.84 25.53 123.91 25.36 C 125.45 26.09 126.98 26.83 128.51 27.59 C 125.72 27.22 122.94 26.80 120.15 26.44 C 120.61 24.44 121.07 22.44 121.52 20.44 C 122.75 21.35 123.92 21.38 125.05 20.55 L 125.56 20.11 C 136.14 23.03 147.58 22.01 158.35 20.56 C 159.32 20.09 160.27 19.56 161.20 19.00 M 127.53 23.12 C 127.68 23.44 127.96 24.09 128.10 24.41 C 130.70 25.02 128.95 20.94 127.53 23.12 Z" />
</g>
<g id="#332e2afe">
<path fill="#332e2a" opacity="1.00" d=" M 4.78 20.46 C 6.73 18.72 10.23 19.68 8.88 22.70 C 7.59 21.84 6.23 21.03 4.78 20.46 Z" />
</g>
<g id="#65569cff">
<path fill="#65569c" opacity="1.00" d=" M 112.50 19.45 C 113.53 19.18 115.57 18.64 116.60 18.37 C 116.58 20.20 118.27 21.54 120.04 21.37 C 117.41 21.08 114.81 20.70 112.20 20.33 L 112.50 19.45 Z" />
<path fill="#65569c" opacity="1.00" d=" M 56.91 20.98 C 57.37 20.82 58.31 20.49 58.77 20.33 L 60.47 19.66 C 60.55 21.45 62.31 22.54 63.99 22.38 C 61.61 21.97 59.26 21.50 56.91 20.98 Z" />
<path fill="#65569c" opacity="1.00" d=" M 168.49 20.61 C 169.04 20.52 170.13 20.33 170.68 20.23 L 172.46 19.68 C 172.53 21.49 174.32 22.59 176.00 22.40 C 173.47 21.87 170.99 21.23 168.49 20.61 Z" />
<path fill="#65569c" opacity="1.00" d=" M 0.76 21.74 C 1.26 21.61 2.25 21.34 2.74 21.20 L 4.24 20.68 C 4.75 22.44 6.57 23.12 8.22 23.31 C 5.72 22.85 3.26 22.24 0.76 21.74 Z" />
<path fill="#65569c" opacity="1.00" d=" M 162.98 21.56 C 163.69 21.47 165.12 21.28 165.84 21.19 C 167.31 24.47 163.38 24.51 162.98 21.56 Z" />
<path fill="#65569c" opacity="1.00" d=" M 107.01 22.73 C 107.67 22.56 108.98 22.21 109.64 22.03 C 112.14 24.78 107.80 25.57 107.01 22.73 Z" />
<path fill="#65569c" opacity="1.00" d=" M 219.68 22.40 C 220.34 22.31 221.66 22.12 222.32 22.02 C 222.83 25.07 218.28 25.78 219.68 22.40 Z" />
<path fill="#65569c" opacity="1.00" d=" M 50.73 23.40 C 51.52 23.31 53.10 23.15 53.89 23.06 C 54.38 25.75 51.05 25.90 50.73 23.40 Z" />
</g>
<g id="#61d5b5ff">
<path fill="#61d5b5" opacity="1.00" d=" M 116.60 18.37 L 117.09 18.22 C 118.12 19.18 119.34 19.95 120.65 20.48 L 120.62 21.02 L 120.04 21.37 C 118.27 21.54 116.58 20.20 116.60 18.37 Z" />
<path fill="#61d5b5" opacity="1.00" d=" M 60.47 19.66 L 61.02 19.42 C 62.08 20.27 63.30 20.92 64.55 21.45 L 64.53 22.00 L 63.99 22.38 C 62.31 22.54 60.55 21.45 60.47 19.66 Z" />
<path fill="#61d5b5" opacity="1.00" d=" M 172.46 19.68 L 173.02 19.46 C 174.07 20.32 175.30 20.96 176.56 21.48 L 176.54 22.03 L 176.00 22.40 C 174.32 22.59 172.53 21.49 172.46 19.68 Z" />
<path fill="#61d5b5" opacity="1.00" d=" M 4.24 20.68 L 4.78 20.46 C 6.23 21.03 7.59 21.84 8.88 22.70 L 8.76 23.41 L 8.22 23.31 C 6.57 23.12 4.75 22.44 4.24 20.68 Z" />
</g>
<g id="#5abdbaff">
<path fill="#5abdba" opacity="1.00" d=" M 121.52 20.44 C 122.45 19.41 124.45 18.88 125.05 20.55 C 123.92 21.38 122.75 21.35 121.52 20.44 Z" />
<path fill="#5abdba" opacity="1.00" d=" M 65.30 21.45 C 66.14 20.60 67.54 19.93 68.60 20.89 L 68.69 21.59 C 67.56 22.31 66.43 22.27 65.30 21.45 Z" />
<path fill="#5abdba" opacity="1.00" d=" M 177.30 21.47 C 178.13 20.60 179.52 19.92 180.59 20.86 L 180.69 21.56 C 179.56 22.30 178.43 22.27 177.30 21.47 Z" />
<path fill="#5abdba" opacity="1.00" d=" M 9.58 22.17 C 10.42 21.33 11.40 21.06 12.51 21.36 C 12.50 21.75 12.46 22.54 12.44 22.93 L 11.85 23.33 C 11.28 23.04 10.15 22.46 9.58 22.17 Z" />
</g>
<g id="#6797b6fe">
<path fill="#6797b6" opacity="1.00" d=" M 162.66 21.00 C 162.61 20.52 162.52 19.57 162.47 19.09 C 164.00 19.23 165.46 19.72 166.89 20.26 C 166.63 20.49 166.10 20.96 165.84 21.19 C 165.12 21.28 163.69 21.47 162.98 21.56 L 162.66 21.00 Z" />
<path fill="#6797b6" opacity="1.00" d=" M 105.66 21.26 L 106.04 20.75 C 107.61 20.29 109.26 20.61 110.71 21.32 C 110.44 21.49 109.91 21.85 109.64 22.03 C 108.98 22.21 107.67 22.56 107.01 22.73 L 106.41 22.45 C 106.22 22.16 105.85 21.56 105.66 21.26 Z" />
<path fill="#6797b6" opacity="1.00" d=" M 217.86 21.08 L 218.18 20.62 C 219.79 20.30 221.42 20.65 223.00 20.99 C 222.83 21.25 222.49 21.76 222.32 22.02 C 221.66 22.12 220.34 22.31 219.68 22.40 L 218.83 22.28 C 218.59 21.98 218.10 21.38 217.86 21.08 Z" />
</g>
<g id="#1aa8c2fe">
<path fill="#1aa8c2" opacity="1.00" d=" M 181.32 21.18 C 181.66 20.66 182.35 19.62 182.70 19.10 C 183.43 19.10 184.89 19.10 185.62 19.10 C 193.44 19.37 201.27 19.20 209.11 19.35 C 210.05 19.65 210.99 19.97 211.94 20.30 C 213.84 20.99 215.76 21.63 217.72 22.15 C 215.98 22.34 214.24 22.59 212.51 22.77 C 202.06 23.48 191.71 21.78 181.32 21.18 Z" />
</g>
<g id="#4379cafe">
<path fill="#4379ca" opacity="1.00" d=" M 47.92 20.33 C 48.98 20.67 50.06 20.96 51.13 21.27 L 50.95 21.62 C 50.81 21.91 50.53 22.49 50.39 22.79 C 49.99 23.06 49.18 23.62 48.78 23.90 C 47.47 23.46 43.16 23.85 44.95 25.80 C 49.58 29.60 55.97 27.83 61.39 27.79 C 57.43 29.23 53.44 30.78 50.00 33.26 C 49.51 36.55 52.83 38.32 54.76 40.38 C 49.84 39.12 44.90 37.86 40.19 35.94 C 40.48 35.00 40.78 34.07 41.08 33.14 C 43.04 34.07 45.01 34.98 46.98 35.90 C 47.82 33.75 48.73 31.62 49.66 29.50 C 41.68 28.10 33.47 26.39 25.35 27.52 C 22.21 27.89 20.38 30.75 18.50 32.94 C 23.53 35.52 29.17 36.52 34.15 33.46 C 33.71 31.40 33.26 29.34 32.80 27.28 C 34.59 29.89 36.32 32.55 38.05 35.19 C 30.23 36.21 29.01 45.10 24.17 49.77 C 27.28 51.48 30.13 53.59 32.73 56.00 L 31.65 56.00 C 29.89 54.87 28.24 53.54 26.31 52.71 C 22.63 52.13 19.72 54.45 16.70 56.00 L 15.63 56.00 C 17.75 54.27 19.76 52.40 21.81 50.60 C 21.42 49.04 20.99 47.49 20.60 45.93 C 23.25 44.39 25.81 42.71 28.27 40.89 C 25.35 38.95 22.34 36.83 18.80 36.25 C 14.97 35.96 11.60 38.24 8.33 39.91 C 10.73 42.69 13.25 45.37 15.70 48.10 C 12.80 46.52 10.21 44.43 8.19 41.81 C 6.39 39.10 2.82 39.11 0.00 38.33 L 0.00 37.98 C 6.58 37.03 13.22 36.00 19.37 33.34 C 18.63 31.42 17.86 29.51 17.14 27.59 C 16.93 26.35 16.25 25.61 15.09 25.39 C 13.17 25.96 15.38 27.76 16.48 27.64 C 10.77 27.28 5.16 28.59 0.00 30.99 L 0.00 29.18 C 3.43 27.70 6.92 26.33 10.16 24.44 C 10.59 24.17 11.43 23.61 11.85 23.33 L 12.44 22.93 L 13.23 22.48 C 24.94 20.90 36.79 22.18 48.56 21.83 L 49.79 21.87 C 49.32 21.48 48.39 20.72 47.92 20.33 Z" />
</g>
<g id="#3c6bbeff">
<path fill="#3c6bbe" opacity="1.00" d=" M 54.51 21.62 C 55.32 21.43 56.11 21.22 56.91 20.98 C 59.26 21.50 61.61 21.97 63.99 22.38 L 64.53 22.00 L 65.30 21.45 C 64.92 23.18 64.53 24.91 64.13 26.63 C 66.90 26.84 69.68 27.13 72.47 27.15 L 73.13 27.13 C 73.02 29.34 73.40 31.63 72.70 33.75 C 68.92 36.15 64.31 36.76 60.13 38.21 C 62.60 41.90 65.57 45.35 69.86 46.93 C 68.02 45.15 66.13 43.42 64.22 41.71 C 64.16 41.05 64.06 39.74 64.01 39.09 C 69.93 36.29 76.49 34.72 82.97 36.86 C 81.43 41.39 78.91 45.53 75.37 48.76 C 75.97 48.92 77.19 49.24 77.80 49.40 C 75.91 51.13 74.02 52.85 72.13 54.58 C 74.74 53.44 77.25 51.93 80.09 51.43 C 82.89 51.50 85.27 53.30 87.71 54.48 C 86.26 55.01 84.79 55.51 83.33 56.00 L 32.73 56.00 C 30.13 53.59 27.28 51.48 24.17 49.77 C 29.01 45.10 30.23 36.21 38.05 35.19 C 36.32 32.55 34.59 29.89 32.80 27.28 C 33.26 29.34 33.71 31.40 34.15 33.46 C 29.17 36.52 23.53 35.52 18.50 32.94 C 20.38 30.75 22.21 27.89 25.35 27.52 C 33.47 26.39 41.68 28.10 49.66 29.50 C 48.73 31.62 47.82 33.75 46.98 35.90 C 45.01 34.98 43.04 34.07 41.08 33.14 C 40.78 34.07 40.48 35.00 40.19 35.94 C 44.90 37.86 49.84 39.12 54.76 40.38 C 52.83 38.32 49.51 36.55 50.00 33.26 C 53.44 30.78 57.43 29.23 61.39 27.79 C 55.97 27.83 49.58 29.60 44.95 25.80 C 46.41 25.61 47.62 24.74 48.78 23.90 C 49.18 23.62 49.99 23.06 50.39 22.79 L 50.73 23.40 C 51.05 25.90 54.38 25.75 53.89 23.06 C 54.05 22.70 54.36 21.98 54.51 21.62 M 34.88 42.80 C 33.57 43.78 32.24 44.75 30.90 45.69 C 35.55 44.93 40.54 45.59 43.83 49.27 C 44.61 48.31 45.39 47.36 46.18 46.41 C 49.59 46.66 53.01 46.72 56.43 46.78 C 52.91 46.01 49.42 45.12 45.93 44.24 C 46.29 42.86 46.66 41.49 47.04 40.11 C 44.15 43.75 38.95 45.66 34.88 42.80 Z" />
<path fill="#3c6bbe" opacity="1.00" d=" M 110.71 21.32 C 111.08 21.07 111.82 20.57 112.20 20.33 C 114.81 20.70 117.41 21.08 120.04 21.37 L 120.62 21.02 L 121.52 20.44 C 121.07 22.44 120.61 24.44 120.15 26.44 C 122.94 26.80 125.72 27.22 128.51 27.59 C 126.98 26.83 125.45 26.09 123.91 25.36 C 133.84 25.53 143.97 23.11 153.76 25.60 C 156.11 26.08 158.55 26.70 160.33 28.43 C 160.31 30.17 160.00 31.88 159.75 33.59 C 156.45 32.81 153.11 32.19 149.74 31.81 C 149.52 29.58 149.30 27.35 149.09 25.12 C 148.28 25.57 147.48 26.02 146.67 26.47 C 147.16 28.13 147.64 29.79 148.13 31.45 C 142.27 34.76 135.24 33.83 129.49 30.75 C 130.44 29.12 131.41 27.50 132.34 25.86 C 130.17 28.33 128.19 30.96 126.15 33.54 C 130.35 34.92 135.13 35.47 138.72 38.18 C 138.41 41.20 137.40 44.08 136.68 47.00 C 141.46 43.52 141.59 35.21 148.21 34.31 C 154.56 34.71 160.69 36.65 166.80 38.35 C 165.16 36.87 163.43 35.45 162.07 33.69 C 162.68 31.73 163.84 30.00 164.90 28.26 C 162.25 26.77 159.67 25.16 157.08 23.59 C 158.95 22.74 160.81 21.88 162.66 21.00 L 162.98 21.56 C 163.38 24.51 167.31 24.47 165.84 21.19 C 166.10 20.96 166.63 20.49 166.89 20.26 C 167.29 20.35 168.09 20.52 168.49 20.61 C 170.99 21.23 173.47 21.87 176.00 22.40 L 176.54 22.03 L 177.30 21.47 C 176.92 23.19 176.52 24.91 176.12 26.63 C 178.90 26.84 181.68 27.13 184.47 27.15 L 185.13 27.13 C 185.02 29.34 185.40 31.63 184.70 33.75 C 180.91 36.15 176.31 36.76 172.13 38.21 C 174.60 41.90 177.57 45.35 181.86 46.93 C 180.02 45.15 178.13 43.42 176.22 41.71 C 176.16 41.05 176.06 39.74 176.01 39.09 C 181.93 36.29 188.49 34.72 194.97 36.86 C 193.43 41.39 190.91 45.53 187.37 48.76 C 187.97 48.92 189.19 49.24 189.80 49.40 C 187.91 51.13 186.01 52.85 184.13 54.58 C 186.74 53.44 189.25 51.93 192.09 51.43 C 194.89 51.50 197.27 53.30 199.71 54.48 C 198.25 55.01 196.79 55.51 195.32 56.00 L 150.07 56.00 C 145.13 51.61 138.84 49.29 133.50 45.47 C 132.64 46.14 131.78 46.79 130.92 47.45 C 131.67 47.69 133.17 48.16 133.92 48.39 C 131.99 50.09 130.05 51.77 128.11 53.45 C 133.60 50.69 140.10 49.93 145.65 52.98 C 143.57 53.35 139.41 54.07 137.33 54.44 C 137.98 54.83 139.26 55.61 139.90 56.00 L 93.31 56.00 C 88.44 53.95 83.83 51.36 79.20 48.85 C 83.50 43.51 86.80 36.71 93.69 34.16 C 93.06 31.76 91.22 27.95 94.35 26.56 C 97.32 25.74 101.58 24.46 103.42 27.71 C 105.21 29.83 103.82 32.70 103.59 35.10 C 101.40 34.14 99.24 33.15 97.07 32.16 C 96.77 33.09 96.48 34.01 96.19 34.94 C 100.90 36.86 105.84 38.12 110.76 39.38 C 108.79 37.32 105.54 35.52 105.95 32.22 C 109.35 29.97 113.23 28.58 117.05 27.21 C 111.16 27.60 104.81 27.38 100.55 22.74 C 102.24 22.57 103.93 22.34 105.63 22.17 L 106.41 22.45 L 107.01 22.73 C 107.80 25.57 112.14 24.78 109.64 22.03 C 109.91 21.85 110.44 21.49 110.71 21.32 M 114.59 36.90 C 114.40 37.48 114.20 38.06 114.00 38.64 C 115.20 38.86 116.40 39.07 117.60 39.29 C 117.54 39.72 117.42 40.57 117.36 41.00 C 121.28 38.84 125.37 37.06 129.40 35.13 C 124.49 35.91 119.61 37.72 114.59 36.90 M 103.41 38.80 C 101.87 41.35 101.09 46.02 96.60 43.97 C 93.23 43.40 89.83 43.19 86.55 44.48 C 90.95 45.31 95.51 45.70 99.58 47.74 C 103.46 46.52 107.52 46.02 111.58 45.89 C 112.60 47.19 113.64 48.50 114.67 49.80 C 115.36 48.28 116.05 46.77 116.76 45.26 C 112.23 45.31 107.71 44.77 103.21 44.29 C 103.35 42.46 103.44 40.63 103.41 38.80 M 155.01 44.17 C 152.71 44.95 150.62 43.39 148.61 42.52 C 148.41 43.25 148.21 43.98 148.02 44.71 C 152.35 46.50 157.06 47.81 161.38 45.18 C 161.05 43.19 160.79 41.19 160.61 39.18 C 158.91 40.98 157.50 43.41 155.01 44.17 M 163.97 44.23 C 163.65 46.00 167.35 46.00 167.03 44.23 C 166.42 43.18 164.57 43.18 163.97 44.23 M 113.51 51.39 C 116.81 51.92 120.12 52.49 123.45 52.85 C 120.48 50.79 116.93 49.62 113.51 51.39 Z" />
<path fill="#3c6bbe" opacity="1.00" d=" M 0.00 21.73 L 0.76 21.74 C 3.26 22.24 5.72 22.85 8.22 23.31 L 8.76 23.41 C 9.11 23.67 9.81 24.19 10.16 24.44 C 6.92 26.33 3.43 27.70 0.00 29.18 L 0.00 21.73 Z" />
<path fill="#3c6bbe" opacity="1.00" d=" M 206.35 26.56 C 209.32 25.74 213.58 24.46 215.42 27.71 C 217.21 29.83 215.81 32.70 215.59 35.10 C 213.40 34.14 211.23 33.15 209.07 32.16 C 208.77 33.09 208.48 34.01 208.19 34.94 C 212.91 36.86 217.84 38.13 222.77 39.37 C 221.19 37.45 217.82 36.05 218.14 33.22 C 219.50 30.91 222.03 29.64 224.00 27.92 L 224.00 45.15 C 215.54 44.88 206.97 42.33 198.56 44.35 C 201.90 45.21 205.27 45.96 208.65 46.66 C 213.72 47.94 218.93 46.19 224.00 45.86 L 224.00 56.00 L 205.34 56.00 C 200.45 53.94 195.79 51.41 191.09 48.98 C 195.11 43.30 198.77 36.75 205.69 34.19 C 205.07 31.78 203.22 27.96 206.35 26.56 Z" />
<path fill="#3c6bbe" opacity="1.00" d=" M 8.33 39.91 C 11.60 38.24 14.97 35.96 18.80 36.25 C 22.34 36.83 25.35 38.95 28.27 40.89 C 25.81 42.71 23.25 44.39 20.60 45.93 C 20.99 47.49 21.42 49.04 21.81 50.60 C 19.76 52.40 17.75 54.27 15.63 56.00 L 0.00 56.00 L 0.00 38.33 C 2.82 39.11 6.39 39.10 8.19 41.81 C 10.21 44.43 12.80 46.52 15.70 48.10 C 13.25 45.37 10.73 42.69 8.33 39.91 M 2.24 47.93 C 2.82 49.22 3.42 50.51 4.00 51.81 C 3.36 52.55 2.73 53.30 2.10 54.05 C 5.11 54.36 8.13 54.69 11.14 54.99 C 9.00 53.55 6.85 52.13 4.72 50.68 C 5.76 49.33 6.82 47.99 7.88 46.66 C 6.00 47.07 4.12 47.49 2.24 47.93 Z" />
<path fill="#3c6bbe" opacity="1.00" d=" M 16.70 56.00 C 19.72 54.45 22.63 52.13 26.31 52.71 C 28.24 53.54 29.89 54.87 31.65 56.00 L 16.70 56.00 Z" />
</g>
<g id="#4476cbff">
<path fill="#4476cb" opacity="1.00" d=" M 100.16 19.94 L 100.97 20.24 C 101.59 21.53 103.52 21.76 104.00 20.21 L 104.96 20.56 L 105.66 21.26 C 105.85 21.56 106.22 22.16 106.41 22.45 L 105.63 22.17 C 103.77 21.50 101.96 20.72 100.16 19.94 Z" />
<path fill="#4476cb" opacity="1.00" d=" M 211.94 20.30 L 212.87 20.60 C 213.72 21.73 215.64 21.71 215.93 20.11 L 217.08 20.33 L 217.86 21.08 C 218.10 21.38 218.59 21.98 218.83 22.28 L 217.72 22.15 C 215.76 21.63 213.84 20.99 211.94 20.30 Z" />
</g>
<g id="#1aa9c2ff">
<path fill="#1aa9c2" opacity="1.00" d=" M 100.97 20.24 C 101.73 20.23 103.24 20.22 104.00 20.21 C 103.52 21.76 101.59 21.53 100.97 20.24 Z" />
<path fill="#1aa9c2" opacity="1.00" d=" M 212.87 20.60 C 213.63 20.48 215.16 20.23 215.93 20.11 C 215.64 21.71 213.72 21.73 212.87 20.60 Z" />
<path fill="#1aa9c2" opacity="1.00" d=" M 127.53 23.12 C 128.95 20.94 130.70 25.02 128.10 24.41 C 127.96 24.09 127.68 23.44 127.53 23.12 Z" />
<path fill="#1aa9c2" opacity="1.00" d=" M 44.95 25.80 C 43.16 23.85 47.47 23.46 48.78 23.90 C 47.62 24.74 46.41 25.61 44.95 25.80 Z" />
<path fill="#1aa9c2" opacity="1.00" d=" M 72.47 27.15 C 71.52 26.95 69.64 25.05 71.46 24.68 C 72.70 25.00 73.26 25.82 73.13 27.13 L 72.47 27.15 Z" />
<path fill="#1aa9c2" opacity="1.00" d=" M 184.47 27.15 C 183.52 26.95 181.63 25.05 183.46 24.68 C 184.70 25.00 185.25 25.82 185.13 27.13 L 184.47 27.15 Z" />
<path fill="#1aa9c2" opacity="1.00" d=" M 16.48 27.64 C 15.38 27.76 13.17 25.96 15.09 25.39 C 16.25 25.61 16.93 26.35 17.14 27.59 L 16.48 27.64 Z" />
</g>
<g id="#6e9fb5ff">
<path fill="#6e9fb5" opacity="1.00" d=" M 50.95 21.62 C 52.13 21.39 53.33 21.52 54.51 21.62 C 54.36 21.98 54.05 22.70 53.89 23.06 C 53.10 23.15 51.52 23.31 50.73 23.40 L 50.39 22.79 C 50.53 22.49 50.81 21.91 50.95 21.62 Z" />
</g>
<g id="#4379caff">
<path fill="#4379ca" opacity="1.00" d=" M 68.69 21.59 L 69.34 21.21 C 79.74 21.76 90.10 23.50 100.55 22.74 C 104.81 27.38 111.16 27.60 117.05 27.21 C 113.23 28.58 109.35 29.97 105.95 32.22 C 105.54 35.52 108.79 37.32 110.76 39.38 C 105.84 38.12 100.90 36.86 96.19 34.94 C 96.48 34.01 96.77 33.09 97.07 32.16 C 99.24 33.15 101.40 34.14 103.59 35.10 C 103.82 32.70 105.21 29.83 103.42 27.71 C 101.58 24.46 97.32 25.74 94.35 26.56 C 91.22 27.95 93.06 31.76 93.69 34.16 C 86.80 36.71 83.50 43.51 79.20 48.85 C 83.83 51.36 88.44 53.95 93.31 56.00 L 83.33 56.00 C 84.79 55.51 86.26 55.01 87.71 54.48 C 85.27 53.30 82.89 51.50 80.09 51.43 C 77.25 51.93 74.74 53.44 72.13 54.58 C 74.02 52.85 75.91 51.13 77.80 49.40 C 77.19 49.24 75.97 48.92 75.37 48.76 C 78.91 45.53 81.43 41.39 82.97 36.86 C 76.49 34.72 69.93 36.29 64.01 39.09 C 64.06 39.74 64.16 41.05 64.22 41.71 C 66.13 43.42 68.02 45.15 69.86 46.93 C 65.57 45.35 62.60 41.90 60.13 38.21 C 64.31 36.76 68.92 36.15 72.70 33.75 C 73.40 31.63 73.02 29.34 73.13 27.13 C 73.26 25.82 72.70 25.00 71.46 24.68 C 69.64 25.05 71.52 26.95 72.47 27.15 C 69.68 27.13 66.90 26.84 64.13 26.63 C 64.53 24.91 64.92 23.18 65.30 21.45 C 66.43 22.27 67.56 22.31 68.69 21.59 M 74.91 28.70 C 74.89 29.62 74.85 31.45 74.83 32.37 C 79.14 34.06 84.23 35.91 88.67 33.66 C 91.32 32.29 90.47 28.85 90.84 26.41 C 85.49 26.86 79.94 26.47 74.91 28.70 Z" />
<path fill="#4379ca" opacity="1.00" d=" M 114.59 36.90 C 119.61 37.72 124.49 35.91 129.40 35.13 C 125.37 37.06 121.28 38.84 117.36 41.00 C 117.42 40.57 117.54 39.72 117.60 39.29 C 116.40 39.07 115.20 38.86 114.00 38.64 C 114.20 38.06 114.40 37.48 114.59 36.90 Z" />
</g>
<g id="#4279caff">
<path fill="#4279ca" opacity="1.00" d=" M 180.69 21.56 L 181.32 21.18 C 191.71 21.78 202.06 23.48 212.51 22.77 C 215.80 25.53 219.75 27.22 224.00 27.91 L 224.00 27.92 C 222.03 29.64 219.50 30.91 218.14 33.22 C 217.82 36.05 221.19 37.45 222.77 39.37 C 217.84 38.13 212.91 36.86 208.19 34.94 C 208.48 34.01 208.77 33.09 209.07 32.16 C 211.23 33.15 213.40 34.14 215.59 35.10 C 215.81 32.70 217.21 29.83 215.42 27.71 C 213.58 24.46 209.32 25.74 206.35 26.56 C 203.22 27.96 205.07 31.78 205.69 34.19 C 198.77 36.75 195.11 43.30 191.09 48.98 C 195.79 51.41 200.45 53.94 205.34 56.00 L 195.32 56.00 C 196.79 55.51 198.25 55.01 199.71 54.48 C 197.27 53.30 194.89 51.50 192.09 51.43 C 189.25 51.93 186.74 53.44 184.13 54.58 C 186.01 52.85 187.91 51.13 189.80 49.40 C 189.19 49.24 187.97 48.92 187.37 48.76 C 190.91 45.53 193.43 41.39 194.97 36.86 C 188.49 34.72 181.93 36.29 176.01 39.09 C 176.06 39.74 176.16 41.05 176.22 41.71 C 178.13 43.42 180.02 45.15 181.86 46.93 C 177.57 45.35 174.60 41.90 172.13 38.21 C 176.31 36.76 180.91 36.15 184.70 33.75 C 185.40 31.63 185.02 29.34 185.13 27.13 C 185.25 25.82 184.70 25.00 183.46 24.68 C 181.63 25.05 183.52 26.95 184.47 27.15 C 181.68 27.13 178.90 26.84 176.12 26.63 C 176.52 24.91 176.92 23.19 177.30 21.47 C 178.43 22.27 179.56 22.30 180.69 21.56 M 186.89 28.70 C 186.90 29.58 186.91 31.35 186.92 32.23 C 190.63 34.45 194.98 36.63 199.18 34.26 C 202.99 33.51 202.75 29.41 202.83 26.41 C 197.48 26.86 191.93 26.48 186.89 28.70 Z" />
<path fill="#4279ca" opacity="1.00" d=" M 113.51 51.39 C 116.93 49.62 120.48 50.79 123.45 52.85 C 120.12 52.49 116.81 51.92 113.51 51.39 Z" />
</g>
<g id="#3c6bbefe">
<path fill="#3c6bbe" opacity="1.00" d=" M 223.00 20.99 L 224.00 21.10 L 224.00 27.91 C 219.75 27.22 215.80 25.53 212.51 22.77 C 214.24 22.59 215.98 22.34 217.72 22.15 L 218.83 22.28 L 219.68 22.40 C 218.28 25.78 222.83 25.07 222.32 22.02 C 222.49 21.76 222.83 21.25 223.00 20.99 Z" />
</g>
<g id="#3c6bbdff">
<path fill="#3c6bbd" opacity="1.00" d=" M 74.91 28.70 C 79.94 26.47 85.49 26.86 90.84 26.41 C 90.47 28.85 91.32 32.29 88.67 33.66 C 84.23 35.91 79.14 34.06 74.83 32.37 C 74.85 31.45 74.89 29.62 74.91 28.70 Z" />
<path fill="#3c6bbd" opacity="1.00" d=" M 186.89 28.70 C 191.93 26.48 197.48 26.86 202.83 26.41 C 202.75 29.41 202.99 33.51 199.18 34.26 C 194.98 36.63 190.63 34.45 186.92 32.23 C 186.91 31.35 186.90 29.58 186.89 28.70 Z" />
<path fill="#3c6bbd" opacity="1.00" d=" M 0.00 30.99 C 5.16 28.59 10.77 27.28 16.48 27.64 L 17.14 27.59 C 17.86 29.51 18.63 31.42 19.37 33.34 C 13.22 36.00 6.58 37.03 0.00 37.98 L 0.00 30.99 Z" />
</g>
<g id="#4278cbff">
<path fill="#4278cb" opacity="1.00" d=" M 103.41 38.80 C 103.44 40.63 103.35 42.46 103.21 44.29 C 107.71 44.77 112.23 45.31 116.76 45.26 C 116.05 46.77 115.36 48.28 114.67 49.80 C 113.64 48.50 112.60 47.19 111.58 45.89 C 107.52 46.02 103.46 46.52 99.58 47.74 C 95.51 45.70 90.95 45.31 86.55 44.48 C 89.83 43.19 93.23 43.40 96.60 43.97 C 101.09 46.02 101.87 41.35 103.41 38.80 Z" />
</g>
<g id="#4279cbff">
<path fill="#4279cb" opacity="1.00" d=" M 155.01 44.17 C 157.50 43.41 158.91 40.98 160.61 39.18 C 160.79 41.19 161.05 43.19 161.38 45.18 C 157.06 47.81 152.35 46.50 148.02 44.71 C 148.21 43.98 148.41 43.25 148.61 42.52 C 150.62 43.39 152.71 44.95 155.01 44.17 Z" />
</g>
<g id="#4378cbff">
<path fill="#4378cb" opacity="1.00" d=" M 34.88 42.80 C 38.95 45.66 44.15 43.75 47.04 40.11 C 46.66 41.49 46.29 42.86 45.93 44.24 C 49.42 45.12 52.91 46.01 56.43 46.78 C 53.01 46.72 49.59 46.66 46.18 46.41 C 45.39 47.36 44.61 48.31 43.83 49.27 C 40.54 45.59 35.55 44.93 30.90 45.69 C 32.24 44.75 33.57 43.78 34.88 42.80 Z" />
</g>
<g id="#4379cbff">
<path fill="#4379cb" opacity="1.00" d=" M 198.56 44.35 C 206.97 42.33 215.54 44.88 224.00 45.15 L 224.00 45.86 C 218.93 46.19 213.72 47.94 208.65 46.66 C 205.27 45.96 201.90 45.21 198.56 44.35 Z" />
</g>
<g id="#4575cbff">
<path fill="#4575cb" opacity="1.00" d=" M 163.97 44.23 C 164.57 43.18 166.42 43.18 167.03 44.23 C 167.35 46.00 163.65 46.00 163.97 44.23 Z" />
</g>
<g id="#4179cbff">
<path fill="#4179cb" opacity="1.00" d=" M 130.92 47.45 C 131.78 46.79 132.64 46.14 133.50 45.47 C 138.84 49.29 145.13 51.61 150.07 56.00 L 139.90 56.00 C 139.26 55.61 137.98 54.83 137.33 54.44 C 139.41 54.07 143.57 53.35 145.65 52.98 C 140.10 49.93 133.60 50.69 128.11 53.45 C 130.05 51.77 131.99 50.09 133.92 48.39 C 133.17 48.16 131.67 47.69 130.92 47.45 Z" />
</g>
<g id="#427acbff">
<path fill="#427acb" opacity="1.00" d=" M 2.24 47.93 C 4.12 47.49 6.00 47.07 7.88 46.66 C 6.82 47.99 5.76 49.33 4.72 50.68 C 6.85 52.13 9.00 53.55 11.14 54.99 C 8.13 54.69 5.11 54.36 2.10 54.05 C 2.73 53.30 3.36 52.55 4.00 51.81 C 3.42 50.51 2.82 49.22 2.24 47.93 Z" />
</g>
</svg>
