<?xml version="1.0" encoding="UTF-8" ?>
<!DOCTYPE svg PUBLIC "-//W3C//DTD SVG 1.1//EN" "http://www.w3.org/Graphics/SVG/1.1/DTD/svg11.dtd">
<svg width="224pt" height="56pt" viewBox="0 0 224 56" version="1.1" xmlns="http://www.w3.org/2000/svg">
<g id="#91bc69ff">
<path fill="#91bc69" opacity="1.00" d=" M 0.00 0.00 L 0.81 0.00 C 1.73 1.21 1.46 2.11 -0.00 2.72 L 0.00 0.00 Z" />
</g>
<g id="#6c9959ff">
<path fill="#6c9959" opacity="1.00" d=" M 0.81 0.00 L 6.86 0.00 C 5.98 7.19 7.07 14.48 5.52 21.62 C 1.73 16.24 2.20 9.91 2.33 3.78 C 1.75 4.34 0.58 5.45 0.00 6.01 L 0.00 2.72 C 1.46 2.11 1.73 1.21 0.81 0.00 M 3.40 3.15 C 2.97 4.55 3.45 5.03 4.85 4.60 C 5.29 3.20 4.80 2.71 3.40 3.15 Z" />
</g>
<g id="#475943ff">
<path fill="#475943" opacity="1.00" d=" M 6.86 0.00 L 7.75 0.00 C 7.96 6.76 8.80 13.48 9.47 20.21 C 9.55 21.18 9.64 22.16 9.72 23.14 C 8.30 22.70 6.91 22.15 5.52 21.62 C 7.07 14.48 5.98 7.19 6.86 0.00 Z" />
<path fill="#475943" opacity="1.00" d=" M 62.86 0.00 L 63.73 0.00 C 63.95 6.76 64.81 13.47 65.47 20.20 C 65.56 21.18 65.65 22.16 65.73 23.14 C 64.30 22.70 62.91 22.15 61.52 21.62 C 63.06 14.48 61.98 7.19 62.86 0.00 Z" />
<path fill="#475943" opacity="1.00" d=" M 118.87 0.00 L 119.75 0.00 C 119.95 6.77 120.81 13.48 121.48 20.21 C 121.57 21.20 121.66 22.19 121.74 23.19 C 120.28 22.73 118.87 22.17 117.45 21.62 C 119.11 14.49 117.96 7.18 118.87 0.00 Z" />
<path fill="#475943" opacity="1.00" d=" M 174.86 0.00 L 175.73 0.00 C 175.95 6.76 176.81 13.47 177.47 20.20 C 177.56 21.18 177.64 22.16 177.73 23.14 C 176.28 22.70 174.87 22.15 173.45 21.64 C 175.11 14.50 173.97 7.19 174.86 0.00 Z" />
</g>
<g id="#322e2aff">
<path fill="#322e2a" opacity="1.00" d=" M 7.75 0.00 L 10.21 0.00 C 9.62 1.40 9.10 2.83 8.57 4.26 C 9.80 4.31 11.02 4.36 12.24 4.42 C 12.58 4.44 13.25 4.48 13.59 4.50 C 12.63 6.29 11.80 8.15 11.19 10.08 C 11.15 11.40 11.16 12.72 11.23 14.03 C 11.73 15.99 12.42 17.89 13.12 19.78 C 12.21 19.89 10.38 20.10 9.47 20.21 C 8.80 13.48 7.96 6.76 7.75 0.00 Z" />
<path fill="#322e2a" opacity="1.00" d=" M 63.73 0.00 L 65.65 0.00 C 65.42 1.43 65.18 2.87 64.96 4.30 C 66.02 4.38 67.08 4.47 68.13 4.57 C 68.47 4.61 69.14 4.67 69.47 4.71 C 68.39 7.05 67.69 9.54 67.10 12.05 C 67.11 12.63 67.14 13.78 67.16 14.36 C 67.77 16.19 68.43 18.00 69.10 19.80 C 68.19 19.90 66.38 20.10 65.47 20.20 C 64.81 13.47 63.95 6.76 63.73 0.00 Z" />
<path fill="#322e2a" opacity="1.00" d=" M 119.75 0.00 L 121.87 0.00 C 121.55 1.43 121.24 2.86 120.93 4.29 C 121.93 4.45 122.92 4.61 123.92 4.77 C 124.27 4.83 124.98 4.93 125.34 4.99 C 124.35 7.22 123.73 9.58 123.17 11.95 C 122.81 13.04 122.87 14.12 123.36 15.17 C 123.91 16.68 124.44 18.19 124.95 19.72 C 124.08 19.84 122.35 20.09 121.48 20.21 C 120.81 13.48 119.95 6.77 119.75 0.00 Z" />
<path fill="#322e2a" opacity="1.00" d=" M 175.73 0.00 L 177.65 0.00 C 177.41 1.43 177.18 2.87 176.96 4.30 C 178.02 4.38 179.07 4.47 180.13 4.57 C 180.47 4.61 181.14 4.67 181.47 4.71 C 180.39 7.05 179.69 9.54 179.10 12.05 C 179.11 12.63 179.14 13.78 179.16 14.36 C 179.77 16.19 180.43 18.00 181.10 19.80 C 180.19 19.90 178.38 20.10 177.47 20.20 C 176.81 13.47 175.95 6.76 175.73 0.00 Z" />
</g>
<g id="#565249ff">
<path fill="#565249" opacity="1.00" d=" M 10.21 0.00 L 13.26 0.00 L 12.92 0.80 C 12.32 1.94 12.09 3.15 12.24 4.42 C 11.02 4.36 9.80 4.31 8.57 4.26 C 9.10 2.83 9.62 1.40 10.21 0.00 Z" />
<path fill="#565249" opacity="1.00" d=" M 48.89 19.36 C 49.10 16.41 50.46 13.85 52.11 11.52 C 51.22 14.21 50.24 16.87 48.89 19.36 Z" />
<path fill="#565249" opacity="1.00" d=" M 104.89 19.36 C 105.09 16.41 106.47 13.85 108.11 11.52 C 107.22 14.21 106.24 16.87 104.89 19.36 Z" />
<path fill="#565249" opacity="1.00" d=" M 160.89 19.36 C 161.08 16.41 162.47 13.85 164.11 11.52 C 163.22 14.21 162.23 16.87 160.89 19.36 Z" />
<path fill="#565249" opacity="1.00" d=" M 216.89 19.36 C 217.07 16.41 218.47 13.85 220.11 11.52 C 219.22 14.21 218.23 16.87 216.89 19.36 Z" />
<path fill="#565249" opacity="1.00" d=" M 51.15 20.89 C 50.42 19.00 52.52 15.86 53.56 18.98 C 53.35 19.42 52.94 20.30 52.74 20.74 C 52.34 20.78 51.55 20.85 51.15 20.89 Z" />
<path fill="#565249" opacity="1.00" d=" M 106.97 19.70 C 106.73 17.42 110.01 16.55 109.06 19.42 L 108.39 19.93 C 108.04 19.88 107.33 19.76 106.97 19.70 Z" />
<path fill="#565249" opacity="1.00" d=" M 219.11 19.73 C 218.90 17.52 222.06 16.65 221.31 19.45 L 220.58 19.95 C 220.21 19.89 219.48 19.78 219.11 19.73 Z" />
<path fill="#565249" opacity="1.00" d=" M 7.05 35.00 C 8.79 35.04 10.54 35.10 12.29 35.14 C 10.51 36.13 8.73 37.12 6.95 38.12 C 6.98 37.34 7.02 35.78 7.05 35.00 Z" />
<path fill="#565249" opacity="1.00" d=" M 63.05 35.00 C 64.79 35.04 66.54 35.10 68.29 35.14 C 66.51 36.13 64.73 37.12 62.95 38.12 C 62.98 37.34 63.02 35.78 63.05 35.00 Z" />
<path fill="#565249" opacity="1.00" d=" M 119.05 35.00 C 120.79 35.04 122.54 35.10 124.29 35.14 C 122.51 36.13 120.73 37.12 118.95 38.12 C 118.98 37.34 119.02 35.78 119.05 35.00 Z" />
<path fill="#565249" opacity="1.00" d=" M 175.05 35.00 C 176.79 35.04 178.54 35.10 180.29 35.14 C 178.51 36.13 176.73 37.12 174.95 38.12 C 174.98 37.34 175.02 35.78 175.05 35.00 Z" />
<path fill="#565249" opacity="1.00" d=" M 11.06 39.76 C 8.72 39.17 10.27 36.04 11.77 38.25 C 11.59 38.63 11.24 39.39 11.06 39.76 Z" />
<path fill="#565249" opacity="1.00" d=" M 67.35 39.52 C 64.76 39.92 65.97 36.28 67.86 38.03 C 67.73 38.40 67.48 39.15 67.35 39.52 Z" />
<path fill="#565249" opacity="1.00" d=" M 122.68 39.76 C 120.68 38.80 122.43 36.10 123.65 38.31 C 123.41 38.67 122.92 39.39 122.68 39.76 Z" />
<path fill="#565249" opacity="1.00" d=" M 179.35 39.52 C 176.76 39.92 177.97 36.28 179.86 38.03 C 179.73 38.40 179.48 39.15 179.35 39.52 Z" />
</g>
<g id="#268ed9ff">
<path fill="#268ed9" opacity="1.00" d=" M 13.26 0.00 L 15.69 0.00 C 15.72 1.02 15.15 1.91 14.70 2.78 C 14.25 2.29 13.37 1.30 12.92 0.80 L 13.26 0.00 Z" />
<path fill="#268ed9" opacity="1.00" d=" M 97.82 0.00 L 98.88 0.00 C 98.99 0.48 99.20 1.45 99.30 1.94 C 99.03 3.22 98.81 4.51 98.65 5.81 C 97.35 9.80 98.76 13.61 100.19 17.25 C 99.35 15.86 98.11 14.58 96.40 14.42 C 96.10 11.23 95.91 8.03 95.72 4.84 C 97.74 5.10 97.74 2.59 96.88 1.40 C 97.12 1.05 97.59 0.35 97.82 0.00 Z" />
<path fill="#268ed9" opacity="1.00" d=" M 123.95 0.00 L 125.55 0.00 C 126.75 0.63 126.66 2.08 126.47 3.21 C 126.09 3.09 125.32 2.85 124.94 2.73 C 124.69 2.05 124.20 0.68 123.95 0.00 Z" />
<path fill="#268ed9" opacity="1.00" d=" M 209.82 0.00 L 210.88 0.00 C 210.99 0.48 211.20 1.45 211.30 1.94 C 211.03 3.22 210.81 4.51 210.65 5.81 C 209.35 9.80 210.76 13.61 212.19 17.25 C 211.34 15.86 210.11 14.58 208.40 14.42 C 208.10 11.23 207.91 8.03 207.72 4.84 C 209.74 5.10 209.74 2.59 208.88 1.40 C 209.12 1.05 209.59 0.35 209.82 0.00 Z" />
<path fill="#268ed9" opacity="1.00" d=" M 222.10 19.33 C 222.58 19.32 223.53 19.30 224.00 19.29 L 224.00 20.91 L 223.35 21.32 C 223.04 20.82 222.42 19.82 222.10 19.33 Z" />
<path fill="#268ed9" opacity="1.00" d=" M 54.13 20.15 C 54.58 20.21 55.48 20.32 55.93 20.37 C 55.99 20.79 56.11 21.63 56.17 22.05 L 55.48 22.28 C 55.14 21.75 54.46 20.68 54.13 20.15 Z" />
<path fill="#268ed9" opacity="1.00" d=" M 11.85 23.64 C 12.51 23.90 13.83 24.41 14.49 24.67 C 14.98 27.20 15.38 29.87 14.38 32.34 C 13.84 30.83 13.29 29.32 12.79 27.79 C 12.46 26.41 12.14 25.03 11.85 23.64 Z" />
<path fill="#268ed9" opacity="1.00" d=" M 67.89 23.75 C 68.57 24.01 69.94 24.53 70.63 24.79 C 70.31 27.30 70.05 29.82 69.59 32.31 C 69.01 29.46 68.42 26.61 67.89 23.75 Z" />
<path fill="#268ed9" opacity="1.00" d=" M 179.89 23.75 C 180.57 24.01 181.94 24.53 182.63 24.79 C 182.31 27.30 182.04 29.82 181.59 32.31 C 181.01 29.46 180.42 26.61 179.89 23.75 Z" />
</g>
<g id="#3c6cbfff">
<path fill="#3c6cbf" opacity="1.00" d=" M 15.69 0.00 L 25.54 0.00 C 26.58 1.13 27.57 2.31 28.56 3.49 C 24.61 4.12 20.60 4.15 16.62 4.44 C 19.16 5.18 21.66 6.66 24.37 6.51 C 28.93 5.17 33.26 3.14 37.73 1.51 C 35.90 1.14 32.23 0.38 30.39 0.00 L 39.33 0.00 L 40.14 0.76 C 40.05 1.44 39.86 2.79 39.77 3.46 C 39.36 7.42 38.94 11.39 38.53 15.35 C 39.27 15.04 40.02 14.74 40.77 14.45 C 40.87 14.41 41.09 14.33 41.19 14.29 C 41.13 14.63 41.01 15.32 40.94 15.66 C 40.79 16.51 40.49 18.21 40.34 19.06 C 34.44 16.94 28.38 19.00 22.37 19.33 C 24.34 21.00 26.23 22.75 28.03 24.60 C 24.84 25.91 21.63 27.16 18.37 28.30 C 18.09 30.75 17.67 33.18 17.11 35.58 C 16.10 34.75 15.09 33.91 14.08 33.07 L 14.38 32.34 C 15.38 29.87 14.98 27.20 14.49 24.67 L 14.79 24.04 C 15.40 22.71 16.02 21.39 16.63 20.06 C 16.05 18.59 15.47 17.12 14.92 15.64 C 15.97 11.61 15.44 7.42 14.72 3.38 L 14.70 2.78 C 15.15 1.91 15.72 1.02 15.69 0.00 Z" />
<path fill="#3c6cbf" opacity="1.00" d=" M 67.29 0.00 L 85.52 0.00 C 81.95 3.26 77.22 3.52 72.66 3.39 C 75.57 4.08 78.91 6.95 81.83 4.87 C 86.06 2.08 91.08 0.94 96.00 0.00 L 97.82 0.00 C 97.59 0.35 97.12 1.05 96.88 1.40 C 95.99 2.40 95.60 3.54 95.72 4.84 C 95.91 8.03 96.10 11.23 96.40 14.42 C 96.45 14.76 96.55 15.44 96.60 15.78 C 97.21 18.70 97.73 21.66 98.64 24.50 C 100.37 26.24 102.43 27.60 104.45 28.99 C 104.21 30.18 103.96 31.36 103.73 32.55 C 101.18 32.76 98.63 32.98 96.08 33.20 C 96.09 34.08 96.09 35.83 96.10 36.70 C 103.06 36.97 108.22 32.97 111.96 27.70 C 111.92 35.15 111.89 42.61 111.99 50.07 C 107.91 49.57 103.80 49.34 99.69 49.41 C 99.29 49.45 98.50 49.53 98.10 49.56 C 93.57 50.07 89.02 50.41 84.48 50.81 C 79.77 50.86 75.04 51.00 70.34 50.53 L 69.35 50.38 L 68.83 49.90 C 69.95 48.70 71.20 46.78 69.90 45.25 C 69.43 44.85 68.49 44.06 68.02 43.67 L 68.39 43.08 C 69.16 41.94 69.13 40.79 68.32 39.63 C 69.40 38.46 70.43 37.24 71.45 36.02 C 75.28 35.95 79.07 36.46 82.86 36.91 C 81.42 41.59 78.80 45.81 75.10 49.02 C 76.48 49.25 77.87 49.49 79.25 49.71 C 83.30 44.00 86.24 36.45 94.00 34.94 C 93.35 33.25 92.74 31.55 92.13 29.85 C 89.79 31.82 87.62 34.12 84.83 35.45 C 80.87 35.24 77.36 32.99 73.67 31.77 C 76.19 26.80 81.60 25.94 86.74 26.31 C 86.17 24.99 85.60 23.68 85.05 22.35 C 87.02 20.65 88.99 18.95 90.99 17.28 C 86.72 18.07 82.34 17.89 78.11 16.94 C 80.85 18.64 83.33 20.76 85.13 23.47 C 81.32 24.78 77.52 26.11 73.66 27.27 C 73.44 29.48 73.22 31.69 73.00 33.91 C 71.70 34.10 70.39 34.28 69.09 34.50 L 69.44 33.19 L 69.59 32.31 C 70.05 29.82 70.31 27.30 70.63 24.79 L 70.72 24.08 C 71.32 17.21 70.66 10.29 70.31 3.42 C 70.36 2.30 69.91 1.48 68.96 0.95 C 68.54 0.72 67.70 0.24 67.29 0.00 M 96.65 45.62 C 98.40 46.14 100.15 46.69 101.90 47.25 C 101.94 46.42 102.01 44.76 102.04 43.93 C 100.23 44.47 98.43 45.02 96.65 45.62 Z" />
<path fill="#3c6cbf" opacity="1.00" d=" M 125.55 0.00 L 138.28 0.00 C 137.72 0.57 136.61 1.70 136.05 2.27 C 133.58 2.21 131.11 2.14 128.64 2.21 C 131.26 3.27 133.82 4.64 136.65 5.06 C 138.45 3.63 139.75 1.70 141.28 0.00 L 153.83 0.00 C 150.47 7.68 151.34 16.46 155.62 23.63 C 155.57 22.82 155.48 21.21 155.43 20.41 C 157.33 20.82 159.22 21.23 161.13 21.61 C 161.21 22.97 161.33 24.33 161.49 25.69 C 160.72 28.11 159.65 30.42 158.42 32.64 C 155.84 33.19 153.16 33.04 150.55 33.32 C 150.45 31.71 148.80 29.97 147.18 31.03 C 141.59 33.90 135.04 33.80 129.30 31.43 C 129.23 32.04 129.09 33.26 129.02 33.87 C 132.28 35.19 136.17 35.67 138.74 38.19 C 138.44 41.15 137.46 43.98 136.66 46.83 C 139.63 43.35 141.51 38.94 145.01 35.95 C 149.04 34.07 153.71 34.60 157.92 35.45 C 158.60 38.17 159.36 40.87 160.06 43.59 C 160.94 38.75 161.84 33.92 162.75 29.08 C 164.57 28.81 166.39 28.53 168.21 28.26 C 168.12 33.51 167.99 38.76 167.92 44.01 C 162.08 44.23 156.20 44.23 150.41 45.13 C 147.53 45.48 144.76 46.35 142.04 47.33 C 144.31 47.06 146.85 46.97 149.20 46.67 C 150.18 46.81 151.16 46.95 152.14 47.09 C 150.73 48.30 149.31 49.50 147.89 50.70 C 145.01 50.81 142.16 50.85 139.30 50.84 C 137.46 48.93 135.72 46.95 133.86 45.07 C 132.84 45.92 131.84 46.78 130.84 47.65 C 133.67 48.81 136.52 49.91 139.36 51.04 C 134.94 50.96 130.52 50.86 126.11 50.57 L 124.72 50.46 C 125.84 48.49 127.08 46.59 128.39 44.74 C 127.00 44.64 125.61 44.53 124.23 44.42 C 125.32 41.19 126.42 37.93 128.13 34.96 C 127.08 34.61 126.04 34.25 125.00 33.89 L 125.23 33.01 L 125.34 32.48 C 128.21 23.12 126.41 13.34 126.44 3.77 L 126.47 3.21 C 126.66 2.08 126.75 0.63 125.55 0.00 M 138.70 9.44 C 141.12 10.61 143.57 11.71 146.06 12.72 C 145.37 14.05 144.68 15.38 144.02 16.72 C 146.39 16.57 148.77 16.48 151.15 16.48 C 148.17 14.68 146.22 11.84 144.65 8.80 C 142.67 9.03 140.68 9.24 138.70 9.44 M 157.15 22.40 C 156.30 26.38 161.14 21.58 157.15 22.40 Z" />
</g>
<g id="#417accff">
<path fill="#417acc" opacity="1.00" d=" M 25.54 0.00 L 30.39 0.00 C 32.23 0.38 35.90 1.14 37.73 1.51 C 33.26 3.14 28.93 5.17 24.37 6.51 C 21.66 6.66 19.16 5.18 16.62 4.44 C 20.60 4.15 24.61 4.12 28.56 3.49 C 27.57 2.31 26.58 1.13 25.54 0.00 Z" />
</g>
<g id="#268dd8ff">
<path fill="#268dd8" opacity="1.00" d=" M 39.33 0.00 L 42.55 0.00 C 42.73 0.49 43.08 1.47 43.26 1.96 C 43.01 3.24 42.82 4.53 42.69 5.83 C 41.77 10.13 42.94 14.33 43.87 18.48 C 43.58 17.00 43.34 13.79 41.19 14.29 C 41.09 14.33 40.87 14.41 40.77 14.45 C 40.02 14.74 39.27 15.04 38.53 15.35 C 38.94 11.39 39.36 7.42 39.77 3.46 C 42.13 6.12 42.51 1.44 40.14 0.76 L 39.33 0.00 Z" />
<path fill="#268dd8" opacity="1.00" d=" M 153.83 0.00 L 154.97 0.00 C 155.08 0.50 155.31 1.49 155.42 1.99 C 155.12 3.24 154.84 4.51 154.58 5.77 C 154.32 7.02 153.81 9.52 153.55 10.77 C 154.17 12.36 154.92 13.89 155.70 15.41 C 155.37 14.98 154.71 14.11 154.39 13.67 C 154.80 15.91 155.24 18.14 155.43 20.41 C 155.48 21.21 155.57 22.82 155.62 23.63 C 151.34 16.46 150.47 7.68 153.83 0.00 Z" />
</g>
<g id="#342f2bff">
<path fill="#342f2b" opacity="1.00" d=" M 42.55 0.00 L 45.77 0.00 C 45.94 0.44 46.28 1.33 46.45 1.77 C 46.57 3.75 46.58 5.73 46.62 7.72 C 49.15 7.99 51.70 8.22 54.25 8.07 C 54.53 7.85 54.80 7.61 55.06 7.37 L 55.60 6.86 C 55.70 11.36 55.68 15.87 55.93 20.37 C 55.48 20.32 54.58 20.21 54.13 20.15 C 53.98 19.86 53.70 19.28 53.56 18.98 C 52.52 15.86 50.42 19.00 51.15 20.89 C 50.86 21.52 50.27 22.79 49.98 23.42 C 49.44 23.02 48.38 22.21 47.84 21.81 C 48.32 17.83 48.89 13.87 49.69 9.95 C 48.83 9.58 47.97 9.21 47.11 8.83 C 46.55 12.56 46.00 16.28 45.44 20.00 C 45.07 19.72 44.32 19.16 43.95 18.88 L 43.87 18.48 C 42.94 14.33 41.77 10.13 42.69 5.83 C 43.00 8.17 43.50 10.48 44.10 12.76 C 44.48 9.12 44.85 5.39 43.26 1.96 C 43.08 1.47 42.73 0.49 42.55 0.00 M 48.89 19.36 C 50.24 16.87 51.22 14.21 52.11 11.52 C 50.46 13.85 49.10 16.41 48.89 19.36 Z" />
<path fill="#342f2b" opacity="1.00" d=" M 98.88 0.00 L 100.92 0.00 C 101.47 0.37 102.58 1.10 103.13 1.46 C 102.81 3.52 102.49 5.58 102.23 7.65 C 104.91 7.96 107.61 8.26 110.32 8.15 C 110.58 7.88 110.82 7.60 111.07 7.31 L 111.58 6.72 C 111.72 10.81 111.83 14.90 111.92 19.00 C 111.40 19.07 110.34 19.23 109.82 19.31 L 109.06 19.42 C 110.01 16.55 106.73 17.42 106.97 19.70 C 106.79 20.28 106.42 21.45 106.24 22.03 C 105.51 21.68 104.05 20.99 103.32 20.64 C 104.18 17.10 105.03 13.56 105.93 10.04 C 104.96 9.62 103.99 9.21 103.02 8.81 C 102.47 12.67 101.76 16.50 101.32 20.38 C 100.99 19.48 100.67 18.58 100.34 17.68 L 100.19 17.25 C 98.76 13.61 97.35 9.80 98.65 5.81 C 98.98 8.15 99.53 10.46 100.13 12.76 C 100.42 9.11 100.58 5.43 99.30 1.94 C 99.20 1.45 98.99 0.48 98.88 0.00 M 104.89 19.36 C 106.24 16.87 107.22 14.21 108.11 11.52 C 106.47 13.85 105.09 16.41 104.89 19.36 Z" />
<path fill="#342f2b" opacity="1.00" d=" M 154.97 0.00 L 156.92 0.00 C 157.47 0.36 158.58 1.09 159.13 1.46 C 158.81 3.53 158.49 5.60 158.23 7.67 C 160.90 7.97 163.59 8.23 166.28 8.06 C 166.55 7.84 166.82 7.61 167.08 7.36 L 167.64 6.84 C 167.68 10.63 167.61 14.42 167.73 18.21 C 167.37 18.22 166.66 18.26 166.31 18.28 C 164.33 18.36 162.65 19.74 161.85 21.49 C 161.36 21.09 160.38 20.29 159.89 19.89 C 160.47 16.41 161.12 12.94 161.76 9.48 C 161.18 9.39 160.01 9.20 159.43 9.11 C 158.54 11.66 157.63 14.20 156.69 16.72 C 156.44 16.40 155.94 15.74 155.70 15.41 C 154.92 13.89 154.17 12.36 153.55 10.77 C 153.81 9.52 154.32 7.02 154.58 5.77 C 154.96 8.13 155.52 10.45 156.14 12.75 C 156.41 9.13 156.55 5.48 155.42 1.99 C 155.31 1.49 155.08 0.50 154.97 0.00 M 160.89 19.36 C 162.23 16.87 163.22 14.21 164.11 11.52 C 162.47 13.85 161.08 16.41 160.89 19.36 Z" />
</g>
<g id="#85ae5cff">
<path fill="#85ae5c" opacity="1.00" d=" M 45.77 0.00 L 57.37 0.00 C 56.46 2.41 55.73 4.88 55.06 7.37 C 54.80 7.61 54.53 7.85 54.25 8.07 C 52.47 5.08 49.68 2.97 46.45 1.77 C 46.28 1.33 45.94 0.44 45.77 0.00 M 51.55 1.49 C 51.13 3.20 54.16 3.83 54.75 2.29 C 55.01 0.68 52.25 0.24 51.55 1.49 Z" />
<path fill="#85ae5c" opacity="1.00" d=" M 100.92 0.00 L 113.45 0.00 C 112.58 2.41 111.87 4.87 111.07 7.31 C 110.82 7.60 110.58 7.88 110.32 8.15 C 108.44 5.41 105.92 3.23 103.13 1.46 C 102.58 1.10 101.47 0.37 100.92 0.00 M 107.55 1.49 C 107.12 3.20 110.15 3.83 110.75 2.29 C 111.01 0.68 108.25 0.24 107.55 1.49 Z" />
<path fill="#85ae5c" opacity="1.00" d=" M 156.92 0.00 L 169.36 0.00 C 168.46 2.41 167.74 4.88 167.08 7.36 C 166.82 7.61 166.55 7.84 166.28 8.06 C 164.39 5.37 161.88 3.22 159.13 1.46 C 158.58 1.09 157.47 0.36 156.92 0.00 M 163.55 1.49 C 163.12 3.20 166.15 3.83 166.75 2.29 C 167.01 0.68 164.25 0.24 163.55 1.49 Z" />
</g>
<g id="#6c995aff">
<path fill="#6c995a" opacity="1.00" d=" M 57.37 0.00 L 62.86 0.00 C 61.98 7.19 63.06 14.48 61.52 21.62 C 57.82 16.29 58.08 10.03 58.41 3.94 C 57.48 4.92 56.54 5.89 55.60 6.86 L 55.06 7.37 C 55.73 4.88 56.46 2.41 57.37 0.00 M 59.40 3.15 C 58.97 4.55 59.45 5.03 60.85 4.60 C 61.29 3.20 60.80 2.71 59.40 3.15 Z" />
<path fill="#6c995a" opacity="1.00" d=" M 113.45 0.00 L 118.87 0.00 C 117.96 7.18 119.11 14.49 117.45 21.62 C 113.75 16.21 114.20 9.90 114.32 3.77 C 113.40 4.75 112.49 5.73 111.58 6.72 L 111.07 7.31 C 111.87 4.87 112.58 2.41 113.45 0.00 M 115.40 3.15 C 114.97 4.55 115.45 5.03 116.85 4.60 C 117.29 3.20 116.80 2.71 115.40 3.15 Z" />
<path fill="#6c995a" opacity="1.00" d=" M 169.36 0.00 L 174.86 0.00 C 173.97 7.19 175.11 14.50 173.45 21.64 C 169.85 16.27 170.07 10.03 170.41 3.96 C 169.49 4.92 168.57 5.88 167.64 6.84 L 167.08 7.36 C 167.74 4.88 168.46 2.41 169.36 0.00 M 171.40 3.15 C 170.97 4.55 171.45 5.03 172.85 4.60 C 173.29 3.20 172.80 2.71 171.40 3.15 Z" />
</g>
<g id="#565248fe">
<path fill="#565248" opacity="1.00" d=" M 65.65 0.00 L 67.29 0.00 C 67.70 0.24 68.54 0.72 68.96 0.95 C 68.24 2.06 67.96 3.27 68.13 4.57 C 67.08 4.47 66.02 4.38 64.96 4.30 C 65.18 2.87 65.42 1.43 65.65 0.00 Z" />
<path fill="#565248" opacity="1.00" d=" M 121.87 0.00 L 123.95 0.00 C 124.20 0.68 124.69 2.05 124.94 2.73 C 124.69 3.24 124.17 4.26 123.92 4.77 C 122.92 4.61 121.93 4.45 120.93 4.29 C 121.24 2.86 121.55 1.43 121.87 0.00 Z" />
<path fill="#565248" opacity="1.00" d=" M 177.65 0.00 L 179.29 0.00 C 179.70 0.24 180.54 0.72 180.96 0.95 C 180.24 2.06 179.96 3.27 180.13 4.57 C 179.07 4.47 178.02 4.38 176.96 4.30 C 177.18 2.87 177.41 1.43 177.65 0.00 Z" />
</g>
<g id="#4179cbff">
<path fill="#4179cb" opacity="1.00" d=" M 85.52 0.00 L 96.00 0.00 C 91.08 0.94 86.06 2.08 81.83 4.87 C 78.91 6.95 75.57 4.08 72.66 3.39 C 77.22 3.52 81.95 3.26 85.52 0.00 Z" />
<path fill="#4179cb" opacity="1.00" d=" M 197.52 0.00 L 208.00 0.00 C 203.08 0.94 198.06 2.08 193.83 4.87 C 190.91 6.95 187.57 4.08 184.66 3.39 C 189.22 3.52 193.95 3.26 197.52 0.00 Z" />
</g>
<g id="#4476cbff">
<path fill="#4476cb" opacity="1.00" d=" M 138.28 0.00 L 141.28 0.00 C 139.75 1.70 138.45 3.63 136.65 5.06 C 133.82 4.64 131.26 3.27 128.64 2.21 C 131.11 2.14 133.58 2.21 136.05 2.27 C 136.61 1.70 137.72 0.57 138.28 0.00 Z" />
</g>
<g id="#3c6cbefe">
<path fill="#3c6cbe" opacity="1.00" d=" M 179.29 0.00 L 197.52 0.00 C 193.95 3.26 189.22 3.52 184.66 3.39 C 187.57 4.08 190.91 6.95 193.83 4.87 C 198.06 2.08 203.08 0.94 208.00 0.00 L 209.82 0.00 C 209.59 0.35 209.12 1.05 208.88 1.40 C 207.99 2.40 207.60 3.54 207.72 4.84 C 207.91 8.03 208.10 11.23 208.40 14.42 C 208.45 14.76 208.55 15.44 208.60 15.78 C 209.21 18.70 209.73 21.66 210.65 24.50 C 212.37 26.25 214.43 27.61 216.45 28.99 C 216.21 30.17 215.96 31.36 215.73 32.54 C 213.15 32.77 210.57 33.01 208.00 33.25 C 208.08 33.83 208.23 34.98 208.31 35.56 C 210.52 36.55 212.78 37.57 214.96 38.64 C 217.40 35.41 219.86 32.21 222.25 28.95 C 219.45 27.86 216.64 26.78 213.93 25.45 L 214.61 25.11 L 215.29 24.78 C 217.99 24.84 220.69 24.92 223.40 24.90 C 222.38 24.26 221.36 23.64 220.33 23.03 C 221.38 22.54 222.38 21.97 223.35 21.32 L 224.00 20.91 L 224.00 44.21 C 221.63 44.72 219.27 45.12 216.96 45.81 C 218.23 48.40 221.60 47.90 224.00 48.78 L 224.00 49.82 C 214.95 49.74 205.84 49.61 196.87 50.94 C 192.04 50.86 187.20 50.93 182.38 50.62 L 181.40 50.51 L 180.81 49.97 C 181.89 48.73 183.16 46.82 181.90 45.26 C 181.43 44.87 180.49 44.07 180.02 43.67 L 180.39 43.08 C 181.16 41.94 181.13 40.79 180.32 39.63 C 181.40 38.46 182.42 37.24 183.45 36.02 C 187.28 35.95 191.08 36.47 194.88 36.92 C 193.34 41.85 190.32 46.06 186.88 49.84 C 191.52 48.94 195.39 46.12 199.62 44.19 C 198.68 43.79 197.74 43.39 196.81 42.97 C 197.55 40.91 198.09 38.79 198.50 36.65 C 201.09 36.30 203.69 35.95 206.30 35.63 C 205.51 33.73 204.80 31.81 204.16 29.86 C 201.79 31.80 199.60 34.09 196.80 35.42 C 192.77 36.17 189.30 32.93 185.69 31.77 C 188.19 26.77 193.61 25.96 198.74 26.31 C 198.17 24.99 197.60 23.68 197.05 22.35 C 199.02 20.65 200.99 18.95 202.99 17.28 C 198.72 18.07 194.34 17.89 190.11 16.94 C 192.85 18.64 195.33 20.76 197.13 23.47 C 193.32 24.78 189.52 26.11 185.66 27.27 C 185.43 29.48 185.22 31.69 185.00 33.91 C 183.70 34.10 182.39 34.28 181.09 34.50 L 181.44 33.19 L 181.59 32.31 C 182.04 29.82 182.31 27.30 182.63 24.79 L 182.72 24.08 C 183.32 17.21 182.66 10.29 182.31 3.42 C 182.36 2.30 181.91 1.48 180.96 0.95 C 180.54 0.72 179.70 0.24 179.29 0.00 M 212.65 42.26 C 213.54 44.07 214.46 45.86 215.44 47.62 C 215.42 45.34 215.40 43.07 215.35 40.79 C 214.67 41.16 213.33 41.89 212.65 42.26 M 209.53 45.12 C 209.68 45.44 209.96 46.09 210.10 46.41 C 212.70 47.02 210.95 42.94 209.53 45.12 Z" />
</g>
<g id="#342f2aff">
<path fill="#342f2a" opacity="1.00" d=" M 210.88 0.00 L 212.93 0.00 C 213.51 0.37 214.67 1.11 215.25 1.48 C 214.76 3.43 214.30 5.39 213.86 7.35 C 216.67 7.80 219.50 8.14 222.35 8.03 C 222.58 8.02 223.05 8.00 223.28 7.99 L 224.00 7.93 L 224.00 19.29 C 223.53 19.30 222.58 19.32 222.10 19.33 L 221.31 19.45 C 222.06 16.65 218.90 17.52 219.11 19.73 C 218.91 20.34 218.50 21.56 218.30 22.17 C 217.57 21.80 216.09 21.05 215.36 20.67 C 216.20 17.12 217.03 13.57 217.92 10.04 C 216.95 9.62 215.99 9.21 215.02 8.81 C 214.46 12.67 213.76 16.51 213.32 20.38 C 212.99 19.48 212.67 18.58 212.34 17.68 L 212.19 17.25 C 210.76 13.61 209.35 9.80 210.65 5.81 C 210.98 8.15 211.53 10.46 212.13 12.76 C 212.41 9.11 212.58 5.43 211.30 1.94 C 211.20 1.45 210.99 0.48 210.88 0.00 M 216.89 19.36 C 218.23 16.87 219.22 14.21 220.11 11.52 C 218.47 13.85 217.07 16.41 216.89 19.36 Z" />
</g>
<g id="#84ad5aff">
<path fill="#84ad5a" opacity="1.00" d=" M 212.93 0.00 L 224.00 0.00 L 224.00 4.31 C 222.71 5.02 221.80 6.94 223.28 7.99 C 223.05 8.00 222.58 8.02 222.35 8.03 C 220.39 5.44 217.93 3.30 215.25 1.48 C 214.67 1.11 213.51 0.37 212.93 0.00 M 219.55 1.49 C 219.12 3.20 222.15 3.83 222.75 2.29 C 223.01 0.68 220.25 0.24 219.55 1.49 Z" />
</g>
<g id="#a0b6cbff">
<path fill="#a0b6cb" opacity="1.00" d=" M 12.92 0.80 C 13.37 1.30 14.25 2.29 14.70 2.78 L 14.72 3.38 C 14.44 3.66 13.87 4.22 13.59 4.50 C 13.25 4.48 12.58 4.44 12.24 4.42 C 12.09 3.15 12.32 1.94 12.92 0.80 Z" />
<path fill="#a0b6cb" opacity="1.00" d=" M 68.96 0.95 C 69.91 1.48 70.36 2.30 70.31 3.42 C 70.10 3.74 69.68 4.39 69.47 4.71 C 69.14 4.67 68.47 4.61 68.13 4.57 C 67.96 3.27 68.24 2.06 68.96 0.95 Z" />
<path fill="#a0b6cb" opacity="1.00" d=" M 180.96 0.95 C 181.91 1.48 182.36 2.30 182.31 3.42 C 182.10 3.74 181.68 4.39 181.47 4.71 C 181.14 4.67 180.47 4.61 180.13 4.57 C 179.96 3.27 180.24 2.06 180.96 0.95 Z" />
</g>
<g id="#86a0b1ff">
<path fill="#86a0b1" opacity="1.00" d=" M 40.14 0.76 C 42.51 1.44 42.13 6.12 39.77 3.46 C 39.86 2.79 40.05 1.44 40.14 0.76 Z" />
<path fill="#86a0b1" opacity="1.00" d=" M 123.92 4.77 C 124.17 4.26 124.69 3.24 124.94 2.73 C 125.32 2.85 126.09 3.09 126.47 3.21 L 126.44 3.77 C 126.17 4.08 125.61 4.68 125.34 4.99 C 124.98 4.93 124.27 4.83 123.92 4.77 Z" />
<path fill="#86a0b1" opacity="1.00" d=" M 124.03 22.77 C 124.48 22.66 125.36 22.45 125.81 22.34 C 126.81 23.61 124.97 25.10 124.07 23.61 L 124.03 22.77 Z" />
<path fill="#86a0b1" opacity="1.00" d=" M 68.02 43.67 C 68.49 44.06 69.43 44.85 69.90 45.25 C 69.33 46.16 68.57 46.89 67.63 47.44 C 67.12 46.22 67.10 44.72 68.02 43.67 Z" />
<path fill="#86a0b1" opacity="1.00" d=" M 180.02 43.67 C 180.49 44.07 181.43 44.87 181.90 45.26 C 181.33 46.17 180.57 46.90 179.63 47.46 C 179.13 46.22 179.11 44.72 180.02 43.67 Z" />
</g>
<g id="#6f9a52ff">
<path fill="#6f9a52" opacity="1.00" d=" M 51.55 1.49 C 52.25 0.24 55.01 0.68 54.75 2.29 C 54.16 3.83 51.13 3.20 51.55 1.49 Z" />
<path fill="#6f9a52" opacity="1.00" d=" M 107.55 1.49 C 108.25 0.24 111.01 0.68 110.75 2.29 C 110.15 3.83 107.12 3.20 107.55 1.49 Z" />
<path fill="#6f9a52" opacity="1.00" d=" M 163.55 1.49 C 164.25 0.24 167.01 0.68 166.75 2.29 C 166.15 3.83 163.12 3.20 163.55 1.49 Z" />
<path fill="#6f9a52" opacity="1.00" d=" M 219.55 1.49 C 220.25 0.24 223.01 0.68 222.75 2.29 C 222.15 3.83 219.12 3.20 219.55 1.49 Z" />
</g>
<g id="#709e5cff">
<path fill="#709e5c" opacity="1.00" d=" M 46.45 1.77 C 49.68 2.97 52.47 5.08 54.25 8.07 C 51.70 8.22 49.15 7.99 46.62 7.72 C 46.58 5.73 46.57 3.75 46.45 1.77 Z" />
<path fill="#709e5c" opacity="1.00" d=" M 103.13 1.46 C 105.92 3.23 108.44 5.41 110.32 8.15 C 107.61 8.26 104.91 7.96 102.23 7.65 C 102.49 5.58 102.81 3.52 103.13 1.46 Z" />
<path fill="#709e5c" opacity="1.00" d=" M 159.13 1.46 C 161.88 3.22 164.39 5.37 166.28 8.06 C 163.59 8.23 160.90 7.97 158.23 7.67 C 158.49 5.60 158.81 3.53 159.13 1.46 Z" />
<path fill="#709e5c" opacity="1.00" d=" M 215.25 1.48 C 217.93 3.30 220.39 5.44 222.35 8.03 C 219.50 8.14 216.67 7.80 213.86 7.35 C 214.30 5.39 214.76 3.43 215.25 1.48 Z" />
</g>
<g id="#7392b4ff">
<path fill="#7392b4" opacity="1.00" d=" M 95.72 4.84 C 95.60 3.54 95.99 2.40 96.88 1.40 C 97.74 2.59 97.74 5.10 95.72 4.84 Z" />
<path fill="#7392b4" opacity="1.00" d=" M 207.72 4.84 C 207.60 3.54 207.99 2.40 208.88 1.40 C 209.74 2.59 209.74 5.10 207.72 4.84 Z" />
</g>
<g id="#87b05cff">
<path fill="#87b05c" opacity="1.00" d=" M 3.40 3.15 C 4.80 2.71 5.29 3.20 4.85 4.60 C 3.45 5.03 2.97 4.55 3.40 3.15 Z" />
<path fill="#87b05c" opacity="1.00" d=" M 59.40 3.15 C 60.80 2.71 61.29 3.20 60.85 4.60 C 59.45 5.03 58.97 4.55 59.40 3.15 Z" />
<path fill="#87b05c" opacity="1.00" d=" M 115.40 3.15 C 116.80 2.71 117.29 3.20 116.85 4.60 C 115.45 5.03 114.97 4.55 115.40 3.15 Z" />
<path fill="#87b05c" opacity="1.00" d=" M 171.40 3.15 C 172.80 2.71 173.29 3.20 172.85 4.60 C 171.45 5.03 170.97 4.55 171.40 3.15 Z" />
</g>
<g id="#645a4bff">
<path fill="#645a4b" opacity="1.00" d=" M 43.26 1.96 C 44.85 5.39 44.48 9.12 44.10 12.76 C 43.50 10.48 43.00 8.17 42.69 5.83 C 42.82 4.53 43.01 3.24 43.26 1.96 Z" />
<path fill="#645a4b" opacity="1.00" d=" M 99.30 1.94 C 100.58 5.43 100.42 9.11 100.13 12.76 C 99.53 10.46 98.98 8.15 98.65 5.81 C 98.81 4.51 99.03 3.22 99.30 1.94 Z" />
<path fill="#645a4b" opacity="1.00" d=" M 155.42 1.99 C 156.55 5.48 156.41 9.13 156.14 12.75 C 155.52 10.45 154.96 8.13 154.58 5.77 C 154.84 4.51 155.12 3.24 155.42 1.99 Z" />
<path fill="#645a4b" opacity="1.00" d=" M 211.30 1.94 C 212.58 5.43 212.41 9.11 212.13 12.76 C 211.53 10.46 210.98 8.15 210.65 5.81 C 210.81 4.51 211.03 3.22 211.30 1.94 Z" />
</g>
<g id="#86b05fff">
<path fill="#86b05f" opacity="1.00" d=" M 2.33 3.78 C 2.20 9.91 1.73 16.24 5.52 21.62 C 5.71 22.00 6.10 22.75 6.29 23.12 C 4.30 23.72 2.37 24.50 0.52 25.44 C 0.34 24.76 0.17 24.08 0.00 23.39 L 0.00 6.01 C 0.58 5.45 1.75 4.34 2.33 3.78 M 1.29 20.54 C 0.43 21.76 2.53 23.04 3.33 21.85 C 4.15 20.65 2.07 19.38 1.29 20.54 Z" />
<path fill="#86b05f" opacity="1.00" d=" M 58.41 3.94 C 58.08 10.03 57.82 16.29 61.52 21.62 C 61.71 22.00 62.10 22.76 62.30 23.14 C 60.30 23.73 58.35 24.49 56.49 25.42 C 56.42 24.86 56.36 24.29 56.30 23.72 C 56.27 23.31 56.20 22.47 56.17 22.05 C 56.11 21.63 55.99 20.79 55.93 20.37 C 55.68 15.87 55.70 11.36 55.60 6.86 C 56.54 5.89 57.48 4.92 58.41 3.94 M 57.29 20.54 C 56.43 21.76 58.53 23.04 59.33 21.85 C 60.15 20.65 58.07 19.38 57.29 20.54 Z" />
<path fill="#86b05f" opacity="1.00" d=" M 114.32 3.77 C 114.20 9.90 113.75 16.21 117.45 21.62 C 117.73 22.17 118.28 23.25 118.56 23.79 C 117.30 23.50 116.04 23.24 114.78 22.97 C 114.45 24.00 114.12 25.02 113.79 26.05 C 113.17 25.35 112.56 24.65 111.95 23.94 C 111.94 22.29 111.94 20.65 111.92 19.00 C 111.83 14.90 111.72 10.81 111.58 6.72 C 112.49 5.73 113.40 4.75 114.32 3.77 M 113.29 20.54 C 112.42 21.76 114.53 23.04 115.33 21.85 C 116.15 20.65 114.07 19.38 113.29 20.54 Z" />
<path fill="#86b05f" opacity="1.00" d=" M 170.41 3.96 C 170.07 10.03 169.85 16.27 173.45 21.64 C 173.72 22.18 174.27 23.25 174.55 23.79 C 173.33 23.51 172.11 23.26 170.88 23.01 C 170.35 24.14 169.81 25.27 169.28 26.41 C 168.91 25.49 168.56 24.56 168.23 23.64 C 168.06 22.00 167.90 20.36 167.77 18.72 L 167.73 18.21 C 167.61 14.42 167.68 10.63 167.64 6.84 C 168.57 5.88 169.49 4.92 170.41 3.96 M 169.29 20.54 C 168.42 21.76 170.53 23.04 171.33 21.85 C 172.15 20.65 170.07 19.38 169.29 20.54 Z" />
</g>
<g id="#2f8bd3fe">
<path fill="#2f8bd3" opacity="1.00" d=" M 14.72 3.38 C 15.44 7.42 15.97 11.61 14.92 15.64 C 14.43 15.43 13.43 15.00 12.94 14.79 C 13.29 12.49 13.60 10.19 13.91 7.89 C 13.00 8.62 12.10 9.35 11.19 10.08 C 11.80 8.15 12.63 6.29 13.59 4.50 C 13.87 4.22 14.44 3.66 14.72 3.38 Z" />
</g>
<g id="#2c8ed7ff">
<path fill="#2c8ed7" opacity="1.00" d=" M 70.31 3.42 C 70.66 10.29 71.32 17.21 70.72 24.08 C 70.58 23.68 70.28 22.89 70.13 22.50 C 69.87 21.82 69.36 20.48 69.10 19.80 C 68.43 18.00 67.77 16.19 67.16 14.36 C 69.68 15.58 69.31 11.89 67.10 12.05 C 67.69 9.54 68.39 7.05 69.47 4.71 C 69.68 4.39 70.10 3.74 70.31 3.42 Z" />
<path fill="#2c8ed7" opacity="1.00" d=" M 182.31 3.42 C 182.66 10.29 183.32 17.21 182.72 24.08 C 182.58 23.68 182.28 22.89 182.13 22.50 C 181.87 21.82 181.36 20.48 181.10 19.80 C 180.43 18.00 179.77 16.19 179.16 14.36 C 181.67 15.58 181.31 11.89 179.10 12.05 C 179.69 9.54 180.39 7.05 181.47 4.71 C 181.68 4.39 182.10 3.74 182.31 3.42 Z" />
</g>
<g id="#2a8dd6fe">
<path fill="#2a8dd6" opacity="1.00" d=" M 126.44 3.77 C 126.41 13.34 128.21 23.12 125.34 32.48 C 125.26 31.87 125.09 30.65 125.00 30.04 C 124.65 27.90 124.26 25.76 124.07 23.61 C 124.97 25.10 126.81 23.61 125.81 22.34 C 125.52 21.47 125.23 20.59 124.95 19.72 C 124.44 18.19 123.91 16.68 123.36 15.17 C 125.37 14.96 124.87 12.24 123.17 11.95 C 123.73 9.58 124.35 7.22 125.34 4.99 C 125.61 4.68 126.17 4.08 126.44 3.77 Z" />
</g>
<g id="#5c8260ff">
<path fill="#5c8260" opacity="1.00" d=" M 223.28 7.99 C 221.80 6.94 222.71 5.02 224.00 4.31 L 224.00 7.93 L 223.28 7.99 Z" />
</g>
<g id="#a5bbd1ff">
<path fill="#a5bbd1" opacity="1.00" d=" M 11.19 10.08 C 12.10 9.35 13.00 8.62 13.91 7.89 C 13.60 10.19 13.29 12.49 12.94 14.79 C 12.51 14.60 11.65 14.22 11.23 14.03 C 11.16 12.72 11.15 11.40 11.19 10.08 Z" />
</g>
<g id="#4377cafe">
<path fill="#4377ca" opacity="1.00" d=" M 138.70 9.44 C 140.68 9.24 142.67 9.03 144.65 8.80 C 146.22 11.84 148.17 14.68 151.15 16.48 C 148.77 16.48 146.39 16.57 144.02 16.72 C 144.68 15.38 145.37 14.05 146.06 12.72 C 143.57 11.71 141.12 10.61 138.70 9.44 Z" />
</g>
<g id="#6c604cff">
<path fill="#6c604c" opacity="1.00" d=" M 47.11 8.83 C 47.97 9.21 48.83 9.58 49.69 9.95 C 48.89 13.87 48.32 17.83 47.84 21.81 C 47.37 21.45 46.41 20.73 45.94 20.38 L 45.44 20.00 C 46.00 16.28 46.55 12.56 47.11 8.83 Z" />
<path fill="#6c604c" opacity="1.00" d=" M 103.02 8.81 C 103.99 9.21 104.96 9.62 105.93 10.04 C 105.03 13.56 104.18 17.10 103.32 20.64 C 102.89 20.78 102.01 21.06 101.58 21.21 L 101.32 20.38 C 101.76 16.50 102.47 12.67 103.02 8.81 Z" />
<path fill="#6c604c" opacity="1.00" d=" M 215.02 8.81 C 215.99 9.21 216.95 9.62 217.92 10.04 C 217.03 13.57 216.20 17.12 215.36 20.67 C 214.91 20.80 214.03 21.07 213.58 21.20 L 213.32 20.38 C 213.76 16.51 214.46 12.67 215.02 8.81 Z" />
</g>
<g id="#6c5f4bff">
<path fill="#6c5f4b" opacity="1.00" d=" M 159.43 9.11 C 160.01 9.20 161.18 9.39 161.76 9.48 C 161.12 12.94 160.47 16.41 159.89 19.89 C 158.74 18.92 157.66 17.87 156.69 16.72 C 157.63 14.20 158.54 11.66 159.43 9.11 Z" />
</g>
<g id="#8bb5d9ff">
<path fill="#8bb5d9" opacity="1.00" d=" M 67.16 14.36 C 67.14 13.78 67.11 12.63 67.10 12.05 C 69.31 11.89 69.68 15.58 67.16 14.36 Z" />
<path fill="#8bb5d9" opacity="1.00" d=" M 179.16 14.36 C 179.14 13.78 179.11 12.63 179.10 12.05 C 181.31 11.89 181.67 15.58 179.16 14.36 Z" />
</g>
<g id="#6e9bbbff">
<path fill="#6e9bbb" opacity="1.00" d=" M 123.36 15.17 C 122.87 14.12 122.81 13.04 123.17 11.95 C 124.87 12.24 125.37 14.96 123.36 15.17 Z" />
</g>
<g id="#2a8ed7ff">
<path fill="#2a8ed7" opacity="1.00" d=" M 11.23 14.03 C 11.65 14.22 12.51 14.60 12.94 14.79 C 13.43 15.00 14.43 15.43 14.92 15.64 C 15.47 17.12 16.05 18.59 16.63 20.06 C 16.02 21.39 15.40 22.71 14.79 24.04 C 14.64 23.65 14.35 22.87 14.20 22.47 C 13.93 21.80 13.39 20.45 13.12 19.78 C 12.42 17.89 11.73 15.99 11.23 14.03 Z" />
</g>
<g id="#709fc2fe">
<path fill="#709fc2" opacity="1.00" d=" M 41.19 14.29 C 43.34 13.79 43.58 17.00 43.87 18.48 L 43.95 18.88 C 42.74 18.03 41.64 16.98 40.94 15.66 C 41.01 15.32 41.13 14.63 41.19 14.29 Z" />
</g>
<g id="#7ca2beff">
<path fill="#7ca2be" opacity="1.00" d=" M 96.40 14.42 C 98.11 14.58 99.35 15.86 100.19 17.25 L 100.34 17.68 C 98.89 17.61 97.48 16.97 96.60 15.78 C 96.55 15.44 96.45 14.76 96.40 14.42 Z" />
<path fill="#7ca2be" opacity="1.00" d=" M 208.40 14.42 C 210.11 14.58 211.34 15.86 212.19 17.25 L 212.34 17.68 C 210.89 17.61 209.48 16.97 208.60 15.78 C 208.55 15.44 208.45 14.76 208.40 14.42 Z" />
</g>
<g id="#7fa1b9ff">
<path fill="#7fa1b9" opacity="1.00" d=" M 154.39 13.67 C 154.71 14.11 155.37 14.98 155.70 15.41 C 155.94 15.74 156.44 16.40 156.69 16.72 C 157.66 17.87 158.74 18.92 159.89 19.89 C 160.38 20.29 161.36 21.09 161.85 21.49 L 162.29 21.86 L 161.13 21.61 C 159.22 21.23 157.33 20.82 155.43 20.41 C 155.24 18.14 154.80 15.91 154.39 13.67 Z" />
</g>
<g id="#427acbff">
<path fill="#427acb" opacity="1.00" d=" M 22.37 19.33 C 28.38 19.00 34.44 16.94 40.34 19.06 C 40.24 19.57 40.04 20.58 39.95 21.09 C 36.97 20.61 33.49 19.72 30.93 21.88 C 26.72 25.39 22.50 28.94 18.64 32.85 C 22.16 33.53 25.64 36.55 29.36 35.33 C 31.77 34.64 33.98 33.42 36.28 32.45 C 31.27 38.01 26.98 44.11 23.03 50.46 C 22.08 49.01 21.11 47.55 20.15 46.10 C 22.96 44.54 25.69 42.84 28.29 40.94 C 24.84 38.36 20.84 36.15 16.40 36.25 C 15.13 36.28 13.86 36.33 12.60 36.40 C 12.74 36.09 13.01 35.45 13.15 35.14 C 13.38 34.62 13.85 33.59 14.08 33.07 C 15.09 33.91 16.10 34.75 17.11 35.58 C 17.67 33.18 18.09 30.75 18.37 28.30 C 21.63 27.16 24.84 25.91 28.03 24.60 C 26.23 22.75 24.34 21.00 22.37 19.33 Z" />
</g>
<g id="#298ad7ff">
<path fill="#298ad7" opacity="1.00" d=" M 40.94 15.66 C 41.64 16.98 42.74 18.03 43.95 18.88 C 44.32 19.16 45.07 19.72 45.44 20.00 L 45.94 20.38 C 45.68 20.77 45.16 21.55 44.91 21.93 L 44.51 22.54 C 44.54 21.44 42.84 19.74 42.15 21.33 C 42.20 22.50 42.86 23.09 44.13 23.12 C 43.78 23.68 43.07 24.80 42.71 25.35 C 41.71 23.99 40.82 22.54 39.95 21.09 C 40.04 20.58 40.24 19.57 40.34 19.06 C 40.49 18.21 40.79 16.51 40.94 15.66 Z" />
</g>
<g id="#3a94d8ff">
<path fill="#3a94d8" opacity="1.00" d=" M 96.60 15.78 C 97.48 16.97 98.89 17.61 100.34 17.68 C 100.67 18.58 100.99 19.48 101.32 20.38 L 101.58 21.21 L 101.28 21.53 C 100.40 22.52 99.52 23.51 98.64 24.50 C 97.73 21.66 97.21 18.70 96.60 15.78 Z" />
<path fill="#3a94d8" opacity="1.00" d=" M 208.60 15.78 C 209.48 16.97 210.89 17.61 212.34 17.68 C 212.67 18.58 212.99 19.48 213.32 20.38 L 213.58 21.20 L 213.29 21.53 C 212.40 22.52 211.52 23.51 210.65 24.50 C 209.73 21.66 209.21 18.70 208.60 15.78 Z" />
</g>
<g id="#4279cbff">
<path fill="#4279cb" opacity="1.00" d=" M 78.11 16.94 C 82.34 17.89 86.72 18.07 90.99 17.28 C 88.99 18.95 87.02 20.65 85.05 22.35 C 85.60 23.68 86.17 24.99 86.74 26.31 C 81.60 25.94 76.19 26.80 73.67 31.77 C 77.36 32.99 80.87 35.24 84.83 35.45 C 87.62 34.12 89.79 31.82 92.13 29.85 C 92.74 31.55 93.35 33.25 94.00 34.94 C 86.24 36.45 83.30 44.00 79.25 49.71 C 77.87 49.49 76.48 49.25 75.10 49.02 C 78.80 45.81 81.42 41.59 82.86 36.91 C 79.07 36.46 75.28 35.95 71.45 36.02 C 70.73 36.02 69.28 36.02 68.55 36.02 C 68.68 35.64 68.95 34.88 69.09 34.50 C 70.39 34.28 71.70 34.10 73.00 33.91 C 73.22 31.69 73.44 29.48 73.66 27.27 C 77.52 26.11 81.32 24.78 85.13 23.47 C 83.33 20.76 80.85 18.64 78.11 16.94 Z" />
</g>
<g id="#4278caff">
<path fill="#4278ca" opacity="1.00" d=" M 190.11 16.94 C 194.34 17.89 198.72 18.07 202.99 17.28 C 200.99 18.95 199.02 20.65 197.05 22.35 C 197.60 23.68 198.17 24.99 198.74 26.31 C 193.61 25.96 188.19 26.77 185.69 31.77 C 189.30 32.93 192.77 36.17 196.80 35.42 C 199.60 34.09 201.79 31.80 204.16 29.86 C 204.80 31.81 205.51 33.73 206.30 35.63 C 203.69 35.95 201.09 36.30 198.50 36.65 C 198.09 38.79 197.55 40.91 196.81 42.97 C 197.74 43.39 198.68 43.79 199.62 44.19 C 195.39 46.12 191.52 48.94 186.88 49.84 C 190.32 46.06 193.34 41.85 194.88 36.92 C 191.08 36.47 187.28 35.95 183.45 36.02 C 182.73 36.02 181.28 36.02 180.55 36.02 C 180.68 35.64 180.95 34.88 181.09 34.50 C 182.39 34.28 183.70 34.10 185.00 33.91 C 185.22 31.69 185.43 29.48 185.66 27.27 C 189.52 26.11 193.32 24.78 197.13 23.47 C 195.33 20.76 192.85 18.64 190.11 16.94 Z" />
</g>
<g id="#5688bafe">
<path fill="#5688ba" opacity="1.00" d=" M 161.85 21.49 C 162.65 19.74 164.33 18.36 166.31 18.28 C 165.14 19.35 164.53 20.85 163.71 22.18 C 163.36 22.10 162.65 21.94 162.29 21.86 L 161.85 21.49 Z" />
</g>
<g id="#9cb3c7fe">
<path fill="#9cb3c7" opacity="1.00" d=" M 166.31 18.28 C 166.66 18.26 167.37 18.22 167.73 18.21 L 167.77 18.72 C 167.06 20.33 165.80 21.64 164.16 22.30 L 163.71 22.18 C 164.53 20.85 165.14 19.35 166.31 18.28 Z" />
<path fill="#9cb3c7" opacity="1.00" d=" M 109.06 19.42 L 109.82 19.31 C 111.70 20.64 110.05 22.81 108.29 23.12 L 107.83 22.88 C 108.17 21.93 108.36 20.95 108.39 19.93 L 109.06 19.42 Z" />
<path fill="#9cb3c7" opacity="1.00" d=" M 221.31 19.45 L 222.10 19.33 C 222.42 19.82 223.04 20.82 223.35 21.32 C 222.38 21.97 221.38 22.54 220.33 23.03 L 219.86 22.81 C 220.21 21.89 220.45 20.93 220.58 19.95 L 221.31 19.45 Z" />
</g>
<g id="#9eb5c9ff">
<path fill="#9eb5c9" opacity="1.00" d=" M 53.56 18.98 C 53.70 19.28 53.98 19.86 54.13 20.15 C 54.46 20.68 55.14 21.75 55.48 22.28 C 54.48 22.61 53.47 22.93 52.46 23.25 L 51.81 23.45 C 52.18 22.57 52.49 21.66 52.74 20.74 C 52.94 20.30 53.35 19.42 53.56 18.98 Z" />
</g>
<g id="#4175c7ff">
<path fill="#4175c7" opacity="1.00" d=" M 109.82 19.31 C 110.34 19.23 111.40 19.07 111.92 19.00 C 111.94 20.65 111.94 22.29 111.95 23.94 C 111.96 25.19 111.96 26.45 111.96 27.70 C 108.22 32.97 103.06 36.97 96.10 36.70 C 96.09 35.83 96.09 34.08 96.08 33.20 C 98.63 32.98 101.18 32.76 103.73 32.55 C 103.96 31.36 104.21 30.18 104.45 28.99 C 102.43 27.60 100.37 26.24 98.64 24.50 C 99.52 23.51 100.40 22.52 101.28 21.53 C 102.71 22.38 104.30 23.02 105.99 23.03 C 105.38 23.57 104.16 24.64 103.56 25.17 C 106.17 25.17 108.78 25.06 111.40 24.90 C 110.37 24.29 109.33 23.70 108.29 23.12 C 110.05 22.81 111.70 20.64 109.82 19.31 M 101.15 23.40 C 100.30 27.38 105.14 22.58 101.15 23.40 Z" />
</g>
<g id="#4276c8ff">
<path fill="#4276c8" opacity="1.00" d=" M 164.16 22.30 C 165.80 21.64 167.06 20.33 167.77 18.72 C 167.90 20.36 168.06 22.00 168.23 23.64 C 168.24 25.18 168.23 26.72 168.21 28.26 C 166.39 28.53 164.57 28.81 162.75 29.08 C 161.84 33.92 160.94 38.75 160.06 43.59 C 159.36 40.87 158.60 38.17 157.92 35.45 C 153.71 34.60 149.04 34.07 145.01 35.95 C 141.51 38.94 139.63 43.35 136.66 46.83 C 137.46 43.98 138.44 41.15 138.74 38.19 C 136.17 35.67 132.28 35.19 129.02 33.87 C 129.09 33.26 129.23 32.04 129.30 31.43 C 135.04 33.80 141.59 33.90 147.18 31.03 C 147.20 32.76 148.97 33.78 150.55 33.32 C 153.16 33.04 155.84 33.19 158.42 32.64 C 159.65 30.42 160.72 28.11 161.49 25.69 C 163.37 24.82 165.29 24.02 167.22 23.23 C 166.20 22.91 165.18 22.60 164.16 22.30 Z" />
</g>
<g id="#67965dff">
<path fill="#67965d" opacity="1.00" d=" M 1.29 20.54 C 2.07 19.38 4.15 20.65 3.33 21.85 C 2.53 23.04 0.43 21.76 1.29 20.54 Z" />
<path fill="#67965d" opacity="1.00" d=" M 57.29 20.54 C 58.07 19.38 60.15 20.65 59.33 21.85 C 58.53 23.04 56.43 21.76 57.29 20.54 Z" />
<path fill="#67965d" opacity="1.00" d=" M 113.29 20.54 C 114.07 19.38 116.15 20.65 115.33 21.85 C 114.53 23.04 112.42 21.76 113.29 20.54 Z" />
<path fill="#67965d" opacity="1.00" d=" M 169.29 20.54 C 170.07 19.38 172.15 20.65 171.33 21.85 C 170.53 23.04 168.42 21.76 169.29 20.54 Z" />
</g>
<g id="#6c5e4cff">
<path fill="#6c5e4c" opacity="1.00" d=" M 9.47 20.21 C 10.38 20.10 12.21 19.89 13.12 19.78 C 13.39 20.45 13.93 21.80 14.20 22.47 C 13.57 22.58 12.32 22.78 11.70 22.88 C 11.20 22.95 10.21 23.07 9.72 23.14 C 9.64 22.16 9.55 21.18 9.47 20.21 Z" />
<path fill="#6c5e4c" opacity="1.00" d=" M 65.47 20.20 C 66.38 20.10 68.19 19.90 69.10 19.80 C 69.36 20.48 69.87 21.82 70.13 22.50 C 69.54 22.61 68.34 22.85 67.75 22.97 C 67.24 23.01 66.23 23.10 65.73 23.14 C 65.65 22.16 65.56 21.18 65.47 20.20 Z" />
<path fill="#6c5e4c" opacity="1.00" d=" M 121.48 20.21 C 122.35 20.09 124.08 19.84 124.95 19.72 C 125.23 20.59 125.52 21.47 125.81 22.34 C 125.36 22.45 124.48 22.66 124.03 22.77 C 123.46 22.88 122.31 23.08 121.74 23.19 C 121.66 22.19 121.57 21.20 121.48 20.21 Z" />
<path fill="#6c5e4c" opacity="1.00" d=" M 177.47 20.20 C 178.38 20.10 180.19 19.90 181.10 19.80 C 181.36 20.48 181.87 21.82 182.13 22.50 C 181.54 22.61 180.34 22.85 179.75 22.97 C 179.24 23.01 178.23 23.09 177.73 23.14 C 177.64 22.16 177.56 21.18 177.47 20.20 Z" />
</g>
<g id="#3b6bbfff">
<path fill="#3b6bbf" opacity="1.00" d=" M 30.93 21.88 C 33.49 19.72 36.97 20.61 39.95 21.09 C 40.82 22.54 41.71 23.99 42.71 25.35 C 44.64 27.71 47.03 29.62 49.29 31.64 C 47.46 34.06 45.52 36.39 43.65 38.78 C 46.00 38.70 48.35 38.61 50.71 38.58 C 51.13 35.30 52.17 32.15 53.57 29.16 C 50.71 28.90 47.94 28.01 45.55 26.42 C 45.99 25.91 46.86 24.89 47.30 24.38 C 47.80 24.27 48.81 24.07 49.32 23.97 C 49.01 24.56 48.40 25.73 48.09 26.32 C 50.40 26.26 52.71 26.21 55.02 26.17 C 54.17 25.20 53.31 24.22 52.46 23.25 C 53.47 22.93 54.48 22.61 55.48 22.28 L 56.17 22.05 C 56.20 22.47 56.27 23.31 56.30 23.72 C 56.29 32.16 56.29 40.60 55.96 49.02 C 52.84 49.16 49.72 49.36 46.59 49.42 C 46.06 49.41 45.52 49.40 44.99 49.40 C 45.06 48.14 45.13 46.88 45.19 45.62 C 47.58 46.34 49.97 47.01 52.41 47.51 C 50.21 46.20 48.09 44.62 45.60 43.91 C 42.84 43.79 40.13 44.64 37.44 45.18 C 39.17 45.24 40.91 45.29 42.64 45.30 C 42.19 46.28 41.74 47.26 41.30 48.24 C 42.36 48.64 43.44 49.02 44.52 49.40 C 44.10 49.53 43.26 49.80 42.85 49.93 C 38.25 50.64 33.64 51.24 29.02 51.78 C 24.16 51.31 19.30 50.69 14.41 50.75 L 13.34 50.72 C 13.85 48.85 14.46 46.99 14.75 45.06 L 14.69 44.45 C 14.53 42.87 14.22 39.72 14.06 38.14 C 14.84 37.51 15.62 36.88 16.40 36.25 C 20.84 36.15 24.84 38.36 28.29 40.94 C 25.69 42.84 22.96 44.54 20.15 46.10 C 21.11 47.55 22.08 49.01 23.03 50.46 C 26.98 44.11 31.27 38.01 36.28 32.45 C 33.98 33.42 31.77 34.64 29.36 35.33 C 25.64 36.55 22.16 33.53 18.64 32.85 C 22.50 28.94 26.72 25.39 30.93 21.88 M 29.17 27.25 C 27.54 27.61 28.25 30.24 29.83 29.75 C 31.46 29.39 30.75 26.75 29.17 27.25 Z" />
</g>
<g id="#adc2d9ff">
<path fill="#adc2d9" opacity="1.00" d=" M 42.15 21.33 C 42.84 19.74 44.54 21.44 44.51 22.54 L 44.13 23.12 C 42.86 23.09 42.20 22.50 42.15 21.33 Z" />
</g>
<g id="#4f7baeff">
<path fill="#4f7bae" opacity="1.00" d=" M 106.97 19.70 C 107.33 19.76 108.04 19.88 108.39 19.93 C 108.36 20.95 108.17 21.93 107.83 22.88 C 107.49 22.82 106.82 22.70 106.48 22.64 L 106.24 22.03 C 106.42 21.45 106.79 20.28 106.97 19.70 Z" />
<path fill="#4f7bae" opacity="1.00" d=" M 219.11 19.73 C 219.48 19.78 220.21 19.89 220.58 19.95 C 220.45 20.93 220.21 21.89 219.86 22.81 C 219.53 22.80 218.86 22.78 218.53 22.77 L 218.30 22.17 C 218.50 21.56 218.91 20.34 219.11 19.73 Z" />
<path fill="#4f7bae" opacity="1.00" d=" M 51.15 20.89 C 51.55 20.85 52.34 20.78 52.74 20.74 C 52.49 21.66 52.18 22.57 51.81 23.45 C 51.46 23.53 50.77 23.69 50.42 23.77 L 49.98 23.42 C 50.27 22.79 50.86 21.52 51.15 20.89 Z" />
</g>
<g id="#332f2aff">
<path fill="#332f2a" opacity="1.00" d=" M 5.52 21.62 C 6.91 22.15 8.30 22.70 9.72 23.14 C 10.21 23.07 11.20 22.95 11.70 22.88 L 11.85 23.64 C 12.14 25.03 12.46 26.41 12.79 27.79 C 12.84 28.36 12.94 29.48 12.99 30.05 C 11.42 29.16 9.85 28.29 8.26 27.43 C 8.80 28.46 9.34 29.49 9.87 30.53 C 8.30 30.08 6.72 29.64 5.17 29.13 C 5.14 29.00 5.10 28.73 5.07 28.59 C 6.73 28.22 8.50 26.38 7.21 24.72 C 6.98 24.32 6.52 23.52 6.29 23.12 C 6.10 22.75 5.71 22.00 5.52 21.62 Z" />
<path fill="#332f2a" opacity="1.00" d=" M 117.45 21.62 C 118.87 22.17 120.28 22.73 121.74 23.19 C 122.31 23.08 123.46 22.88 124.03 22.77 L 124.07 23.61 C 124.26 25.76 124.65 27.90 125.00 30.04 C 123.43 29.15 121.85 28.29 120.27 27.44 C 120.80 28.46 121.32 29.49 121.85 30.52 C 120.28 30.07 118.72 29.62 117.16 29.12 C 117.14 28.99 117.10 28.74 117.07 28.61 C 118.73 28.27 120.48 26.41 119.15 24.78 C 119.00 24.53 118.71 24.04 118.56 23.79 C 118.28 23.25 117.73 22.17 117.45 21.62 Z" />
</g>
<g id="#8ea7b9ff">
<path fill="#8ea7b9" opacity="1.00" d=" M 44.91 21.93 C 45.16 21.55 45.68 20.77 45.94 20.38 C 46.41 20.73 47.37 21.45 47.84 21.81 C 48.38 22.21 49.44 23.02 49.98 23.42 L 50.42 23.77 L 49.32 23.97 C 48.81 24.07 47.80 24.27 47.30 24.38 C 46.50 23.56 45.70 22.75 44.91 21.93 Z" />
</g>
<g id="#383632ff">
<path fill="#383632" opacity="1.00" d=" M 61.52 21.62 C 62.91 22.15 64.30 22.70 65.73 23.14 C 66.23 23.10 67.24 23.01 67.75 22.97 L 67.89 23.75 C 68.42 26.61 69.01 29.46 69.59 32.31 C 68.06 30.45 66.40 28.71 64.68 27.03 C 65.02 28.21 65.37 29.40 65.72 30.58 C 64.20 30.11 62.67 29.63 61.17 29.11 C 61.15 28.98 61.10 28.72 61.08 28.59 C 62.73 28.22 64.50 26.38 63.20 24.72 C 62.98 24.32 62.53 23.53 62.30 23.14 C 62.10 22.76 61.71 22.00 61.52 21.62 Z" />
<path fill="#383632" opacity="1.00" d=" M 173.45 21.64 C 174.87 22.15 176.28 22.70 177.73 23.14 C 178.23 23.09 179.24 23.01 179.75 22.97 L 179.89 23.75 C 180.42 26.61 181.01 29.46 181.59 32.31 C 180.06 30.45 178.40 28.71 176.68 27.03 C 177.02 28.21 177.37 29.39 177.72 30.58 C 176.19 30.11 174.67 29.64 173.17 29.12 C 173.14 28.99 173.10 28.74 173.07 28.61 C 174.73 28.27 176.48 26.40 175.15 24.78 C 175.00 24.53 174.70 24.04 174.55 23.79 C 174.27 23.25 173.72 22.18 173.45 21.64 Z" />
</g>
<g id="#8ba4b6fe">
<path fill="#8ba4b6" opacity="1.00" d=" M 101.28 21.53 L 101.58 21.21 C 102.01 21.06 102.89 20.78 103.32 20.64 C 104.05 20.99 105.51 21.68 106.24 22.03 L 106.48 22.64 L 105.99 23.03 C 104.30 23.02 102.71 22.38 101.28 21.53 Z" />
<path fill="#8ba4b6" opacity="1.00" d=" M 213.29 21.53 L 213.58 21.20 C 214.03 21.07 214.91 20.80 215.36 20.67 C 216.09 21.05 217.57 21.80 218.30 22.17 L 218.53 22.77 L 217.97 23.10 C 216.29 23.06 214.71 22.39 213.29 21.53 Z" />
</g>
<g id="#4475c9ff">
<path fill="#4475c9" opacity="1.00" d=" M 210.65 24.50 C 211.52 23.51 212.40 22.52 213.29 21.53 C 214.71 22.39 216.29 23.06 217.97 23.10 C 217.30 23.52 215.96 24.36 215.29 24.78 L 214.61 25.11 C 215.18 21.78 210.79 24.29 213.93 25.45 C 216.64 26.78 219.45 27.86 222.25 28.95 C 219.86 32.21 217.40 35.41 214.96 38.64 C 212.78 37.57 210.52 36.55 208.31 35.56 C 208.23 34.98 208.08 33.83 208.00 33.25 C 210.57 33.01 213.15 32.77 215.73 32.54 C 215.96 31.36 216.21 30.17 216.45 28.99 C 214.43 27.61 212.37 26.25 210.65 24.50 Z" />
</g>
<g id="#9db4c9ff">
<path fill="#9db4c9" opacity="1.00" d=" M 11.70 22.88 C 12.32 22.78 13.57 22.58 14.20 22.47 C 14.35 22.87 14.64 23.65 14.79 24.04 L 14.49 24.67 C 13.83 24.41 12.51 23.90 11.85 23.64 L 11.70 22.88 Z" />
<path fill="#9db4c9" opacity="1.00" d=" M 67.75 22.97 C 68.34 22.85 69.54 22.61 70.13 22.50 C 70.28 22.89 70.58 23.68 70.72 24.08 L 70.63 24.79 C 69.94 24.53 68.57 24.01 67.89 23.75 L 67.75 22.97 Z" />
<path fill="#9db4c9" opacity="1.00" d=" M 179.75 22.97 C 180.34 22.85 181.54 22.61 182.13 22.50 C 182.28 22.89 182.58 23.68 182.72 24.08 L 182.63 24.79 C 181.94 24.53 180.57 24.01 179.89 23.75 L 179.75 22.97 Z" />
</g>
<g id="#4577cafe">
<path fill="#4577ca" opacity="1.00" d=" M 44.51 22.54 L 44.91 21.93 C 45.70 22.75 46.50 23.56 47.30 24.38 C 45.96 22.93 43.42 25.67 45.55 26.42 C 47.94 28.01 50.71 28.90 53.57 29.16 C 52.17 32.15 51.13 35.30 50.71 38.58 C 48.35 38.61 46.00 38.70 43.65 38.78 C 45.52 36.39 47.46 34.06 49.29 31.64 C 47.03 29.62 44.64 27.71 42.71 25.35 C 43.07 24.80 43.78 23.68 44.13 23.12 L 44.51 22.54 Z" />
</g>
<g id="#65569cff">
<path fill="#65569c" opacity="1.00" d=" M 157.15 22.40 C 161.14 21.58 156.30 26.38 157.15 22.40 Z" />
<path fill="#65569c" opacity="1.00" d=" M 161.13 21.61 L 162.29 21.86 C 162.65 21.94 163.36 22.10 163.71 22.18 L 164.16 22.30 C 165.18 22.60 166.20 22.91 167.22 23.23 C 165.29 24.02 163.37 24.82 161.49 25.69 C 161.33 24.33 161.21 22.97 161.13 21.61 Z" />
<path fill="#65569c" opacity="1.00" d=" M 101.15 23.40 C 105.14 22.58 100.30 27.38 101.15 23.40 Z" />
<path fill="#65569c" opacity="1.00" d=" M 105.99 23.03 L 106.48 22.64 C 106.82 22.70 107.49 22.82 107.83 22.88 L 108.29 23.12 C 109.33 23.70 110.37 24.29 111.40 24.90 C 108.78 25.06 106.17 25.17 103.56 25.17 C 104.16 24.64 105.38 23.57 105.99 23.03 Z" />
<path fill="#65569c" opacity="1.00" d=" M 213.93 25.45 C 210.79 24.29 215.18 21.78 214.61 25.11 L 213.93 25.45 Z" />
<path fill="#65569c" opacity="1.00" d=" M 217.97 23.10 L 218.53 22.77 C 218.86 22.78 219.53 22.80 219.86 22.81 L 220.33 23.03 C 221.36 23.64 222.38 24.26 223.40 24.90 C 220.69 24.92 217.99 24.84 215.29 24.78 C 215.96 24.36 217.30 23.52 217.97 23.10 Z" />
<path fill="#65569c" opacity="1.00" d=" M 45.55 26.42 C 43.42 25.67 45.96 22.93 47.30 24.38 C 46.86 24.89 45.99 25.91 45.55 26.42 Z" />
<path fill="#65569c" opacity="1.00" d=" M 49.32 23.97 L 50.42 23.77 C 50.77 23.69 51.46 23.53 51.81 23.45 L 52.46 23.25 C 53.31 24.22 54.17 25.20 55.02 26.17 C 52.71 26.21 50.40 26.26 48.09 26.32 C 48.40 25.73 49.01 24.56 49.32 23.97 Z" />
</g>
<g id="#79a55dff">
<path fill="#79a55d" opacity="1.00" d=" M 0.52 25.44 C 2.37 24.50 4.30 23.72 6.29 23.12 C 6.52 23.52 6.98 24.32 7.21 24.72 C 5.86 25.50 4.51 26.90 5.07 28.59 C 5.10 28.73 5.14 29.00 5.17 29.13 C 5.36 30.36 5.52 31.58 5.71 32.81 L 5.88 33.91 C 4.98 33.24 4.09 32.57 3.19 31.91 C 4.22 38.44 5.85 44.95 5.79 51.61 C 5.77 51.86 5.75 52.38 5.74 52.63 C 5.67 53.77 5.79 54.89 6.10 56.00 L 0.00 56.00 L 0.00 23.39 C 0.17 24.08 0.34 24.76 0.52 25.44 Z" />
<path fill="#79a55d" opacity="1.00" d=" M 170.88 23.01 C 172.11 23.26 173.33 23.51 174.55 23.79 C 174.70 24.04 175.00 24.53 175.15 24.78 C 173.79 25.53 172.48 26.94 173.07 28.61 C 173.10 28.74 173.14 28.99 173.17 29.12 C 173.36 30.33 173.52 31.54 173.71 32.74 L 173.88 33.87 C 172.98 33.22 172.09 32.56 171.19 31.92 C 172.21 38.45 173.88 44.95 173.77 51.61 C 173.75 51.88 173.72 52.40 173.71 52.67 C 173.63 53.79 173.75 54.91 174.08 56.00 L 166.53 56.00 C 166.79 54.72 167.06 53.45 167.35 52.18 C 167.45 51.77 167.66 50.94 167.77 50.53 C 167.82 50.15 167.92 49.39 167.97 49.00 L 167.96 48.03 C 167.95 47.59 167.93 46.71 167.92 46.26 C 167.92 45.70 167.92 44.58 167.92 44.01 C 167.99 38.76 168.12 33.51 168.21 28.26 C 168.23 26.72 168.24 25.18 168.23 23.64 C 168.56 24.56 168.91 25.49 169.28 26.41 C 169.81 25.27 170.35 24.14 170.88 23.01 Z" />
</g>
<g id="#79a45eff">
<path fill="#79a45e" opacity="1.00" d=" M 56.49 25.42 C 58.35 24.49 60.30 23.73 62.30 23.14 C 62.53 23.53 62.98 24.32 63.20 24.72 C 61.86 25.49 60.51 26.91 61.08 28.59 C 61.10 28.72 61.15 28.98 61.17 29.11 C 61.36 30.32 61.52 31.53 61.71 32.74 L 61.88 33.87 C 60.98 33.22 60.09 32.56 59.19 31.91 C 60.21 38.45 61.88 44.95 61.77 51.61 C 61.75 51.88 61.72 52.40 61.71 52.67 C 61.63 53.80 61.75 54.91 62.08 56.00 L 49.84 56.00 C 49.86 55.27 49.91 53.81 49.93 53.08 C 51.37 52.78 54.25 52.19 55.70 51.89 L 55.81 50.99 C 55.85 50.50 55.92 49.52 55.96 49.02 C 56.29 40.60 56.29 32.16 56.30 23.72 C 56.36 24.29 56.42 24.86 56.49 25.42 Z" />
</g>
<g id="#79a55bff">
<path fill="#79a55b" opacity="1.00" d=" M 114.78 22.97 C 116.04 23.24 117.30 23.50 118.56 23.79 C 118.71 24.04 119.00 24.53 119.15 24.78 C 117.80 25.53 116.48 26.94 117.07 28.61 C 117.10 28.74 117.14 28.99 117.16 29.12 C 117.35 30.34 117.52 31.57 117.71 32.79 L 117.88 33.89 C 116.98 33.23 116.09 32.57 115.19 31.91 C 116.23 38.44 117.85 44.95 117.79 51.61 C 117.77 51.86 117.75 52.37 117.74 52.63 C 117.67 53.77 117.79 54.89 118.10 56.00 L 62.47 56.00 C 63.37 54.68 64.13 53.27 64.74 51.80 C 66.48 51.49 68.23 51.22 69.97 50.95 C 73.40 54.64 78.90 52.91 83.30 53.29 C 85.29 53.62 87.28 53.99 89.30 54.13 C 90.35 54.24 91.32 53.97 92.20 53.32 C 94.24 52.76 96.28 52.23 98.34 51.71 C 97.53 54.55 101.41 54.40 101.73 51.97 C 103.24 52.27 104.76 52.55 106.27 52.83 C 108.06 53.70 112.11 55.12 112.01 51.80 L 112.01 51.09 L 111.99 50.07 C 111.89 42.61 111.92 35.15 111.96 27.70 C 111.96 26.45 111.96 25.19 111.95 23.94 C 112.56 24.65 113.17 25.35 113.79 26.05 C 114.12 25.02 114.45 24.00 114.78 22.97 Z" />
</g>
<g id="#416845ff">
<path fill="#416845" opacity="1.00" d=" M 7.21 24.72 C 8.50 26.38 6.73 28.22 5.07 28.59 C 4.51 26.90 5.86 25.50 7.21 24.72 Z" />
<path fill="#416845" opacity="1.00" d=" M 63.20 24.72 C 64.50 26.38 62.73 28.22 61.08 28.59 C 60.51 26.91 61.86 25.49 63.20 24.72 Z" />
<path fill="#416845" opacity="1.00" d=" M 119.15 24.78 C 120.48 26.41 118.73 28.27 117.07 28.61 C 116.48 26.94 117.80 25.53 119.15 24.78 Z" />
<path fill="#416845" opacity="1.00" d=" M 175.15 24.78 C 176.48 26.40 174.73 28.27 173.07 28.61 C 172.48 26.94 173.79 25.53 175.15 24.78 Z" />
</g>
<g id="#4474c8ff">
<path fill="#4474c8" opacity="1.00" d=" M 29.17 27.25 C 30.75 26.75 31.46 29.39 29.83 29.75 C 28.25 30.24 27.54 27.61 29.17 27.25 Z" />
</g>
<g id="#525548ff">
<path fill="#525548" opacity="1.00" d=" M 8.26 27.43 C 9.85 28.29 11.42 29.16 12.99 30.05 C 13.05 30.99 13.10 31.93 13.13 32.87 C 10.66 32.84 8.18 32.82 5.71 32.81 C 5.52 31.58 5.36 30.36 5.17 29.13 C 6.72 29.64 8.30 30.08 9.87 30.53 C 9.34 29.49 8.80 28.46 8.26 27.43 Z" />
<path fill="#525548" opacity="1.00" d=" M 64.68 27.03 C 66.40 28.71 68.06 30.45 69.59 32.31 L 69.44 33.19 C 66.86 32.98 64.29 32.83 61.71 32.74 C 61.52 31.53 61.36 30.32 61.17 29.11 C 62.67 29.63 64.20 30.11 65.72 30.58 C 65.37 29.40 65.02 28.21 64.68 27.03 Z" />
<path fill="#525548" opacity="1.00" d=" M 120.27 27.44 C 121.85 28.29 123.43 29.15 125.00 30.04 C 125.09 30.65 125.26 31.87 125.34 32.48 L 125.23 33.01 C 122.72 32.89 120.22 32.83 117.71 32.79 C 117.52 31.57 117.35 30.34 117.16 29.12 C 118.72 29.62 120.28 30.07 121.85 30.52 C 121.32 29.49 120.80 28.46 120.27 27.44 Z" />
<path fill="#525548" opacity="1.00" d=" M 176.68 27.03 C 178.40 28.71 180.06 30.45 181.59 32.31 L 181.44 33.19 C 178.86 32.98 176.29 32.83 173.71 32.74 C 173.52 31.54 173.36 30.33 173.17 29.12 C 174.67 29.64 176.19 30.11 177.72 30.58 C 177.37 29.39 177.02 28.21 176.68 27.03 Z" />
</g>
<g id="#8aa3b5ff">
<path fill="#8aa3b5" opacity="1.00" d=" M 12.79 27.79 C 13.29 29.32 13.84 30.83 14.38 32.34 L 14.08 33.07 C 13.85 33.59 13.38 34.62 13.15 35.14 C 13.14 34.57 13.13 33.44 13.13 32.87 C 13.10 31.93 13.05 30.99 12.99 30.05 C 12.94 29.48 12.84 28.36 12.79 27.79 Z" />
</g>
<g id="#5a8adeff">
<path fill="#5a8ade" opacity="1.00" d=" M 147.18 31.03 C 148.80 29.97 150.45 31.71 150.55 33.32 C 148.97 33.78 147.20 32.76 147.18 31.03 Z" />
</g>
<g id="#4e5e48ff">
<path fill="#4e5e48" opacity="1.00" d=" M 3.19 31.91 C 4.09 32.57 4.98 33.24 5.88 33.91 C 6.53 39.04 7.48 44.13 8.53 49.20 C 7.59 49.98 6.66 50.76 5.79 51.61 C 5.85 44.95 4.22 38.44 3.19 31.91 Z" />
<path fill="#4e5e48" opacity="1.00" d=" M 59.19 31.91 C 60.09 32.56 60.98 33.22 61.88 33.87 C 62.53 39.02 63.47 44.12 64.53 49.20 C 63.58 49.98 62.65 50.77 61.77 51.61 C 61.88 44.95 60.21 38.45 59.19 31.91 Z" />
<path fill="#4e5e48" opacity="1.00" d=" M 115.19 31.91 C 116.09 32.57 116.98 33.23 117.88 33.89 C 118.52 39.03 119.48 44.13 120.53 49.20 C 119.59 49.97 118.66 50.76 117.79 51.61 C 117.85 44.95 116.23 38.44 115.19 31.91 Z" />
<path fill="#4e5e48" opacity="1.00" d=" M 171.19 31.92 C 172.09 32.56 172.98 33.22 173.88 33.87 C 174.52 39.02 175.48 44.12 176.53 49.20 C 175.58 49.98 174.65 50.77 173.77 51.61 C 173.88 44.95 172.21 38.45 171.19 31.92 Z" />
</g>
<g id="#332e2aff">
<path fill="#332e2a" opacity="1.00" d=" M 5.71 32.81 C 8.18 32.82 10.66 32.84 13.13 32.87 C 13.13 33.44 13.14 34.57 13.15 35.14 C 13.01 35.45 12.74 36.09 12.60 36.40 C 12.39 36.87 11.98 37.79 11.77 38.25 C 10.27 36.04 8.72 39.17 11.06 39.76 L 11.18 40.43 C 11.39 41.59 11.61 42.75 11.76 43.92 C 11.74 45.08 11.58 46.29 12.04 47.39 C 12.44 48.51 12.88 49.62 13.34 50.72 L 13.76 51.69 C 12.08 51.58 10.39 51.60 8.71 51.70 C 7.64 51.76 6.65 52.07 5.74 52.63 C 5.75 52.38 5.77 51.86 5.79 51.61 C 6.66 50.76 7.59 49.98 8.53 49.20 C 7.48 44.13 6.53 39.04 5.88 33.91 L 5.71 32.81 M 7.05 35.00 C 7.02 35.78 6.98 37.34 6.95 38.12 C 8.73 37.12 10.51 36.13 12.29 35.14 C 10.54 35.10 8.79 35.04 7.05 35.00 Z" />
<path fill="#332e2a" opacity="1.00" d=" M 61.71 32.74 C 64.29 32.83 66.86 32.98 69.44 33.19 L 69.09 34.50 C 68.95 34.88 68.68 35.64 68.55 36.02 C 68.38 36.52 68.03 37.53 67.86 38.03 C 65.97 36.28 64.76 39.92 67.35 39.52 L 67.07 40.42 C 66.61 41.72 67.05 42.60 68.39 43.08 L 68.02 43.67 C 67.10 44.72 67.12 46.22 67.63 47.44 C 67.80 48.39 68.20 49.21 68.83 49.90 L 69.35 50.38 L 69.97 50.95 C 68.23 51.22 66.48 51.49 64.74 51.80 C 63.69 51.94 62.67 52.23 61.71 52.67 C 61.72 52.40 61.75 51.88 61.77 51.61 C 62.65 50.77 63.58 49.98 64.53 49.20 C 63.47 44.12 62.53 39.02 61.88 33.87 L 61.71 32.74 M 63.05 35.00 C 63.02 35.78 62.98 37.34 62.95 38.12 C 64.73 37.12 66.51 36.13 68.29 35.14 C 66.54 35.10 64.79 35.04 63.05 35.00 Z" />
<path fill="#332e2a" opacity="1.00" d=" M 117.71 32.79 C 120.22 32.83 122.72 32.89 125.23 33.01 L 125.00 33.89 C 124.59 35.37 124.14 36.85 123.65 38.31 C 122.43 36.10 120.68 38.80 122.68 39.76 C 123.52 43.29 123.80 46.94 124.72 50.46 L 125.09 51.67 C 123.63 51.56 122.17 51.61 120.71 51.70 C 119.65 51.77 118.65 52.08 117.74 52.63 C 117.75 52.37 117.77 51.86 117.79 51.61 C 118.66 50.76 119.59 49.97 120.53 49.20 C 119.48 44.13 118.52 39.03 117.88 33.89 L 117.71 32.79 M 119.05 35.00 C 119.02 35.78 118.98 37.34 118.95 38.12 C 120.73 37.12 122.51 36.13 124.29 35.14 C 122.54 35.10 120.79 35.04 119.05 35.00 Z" />
<path fill="#332e2a" opacity="1.00" d=" M 173.71 32.74 C 176.29 32.83 178.86 32.98 181.44 33.19 L 181.09 34.50 C 180.95 34.88 180.68 35.64 180.55 36.02 C 180.38 36.52 180.03 37.53 179.86 38.03 C 177.97 36.28 176.76 39.92 179.35 39.52 L 179.07 40.42 C 178.61 41.72 179.05 42.61 180.39 43.08 L 180.02 43.67 C 179.11 44.72 179.13 46.22 179.63 47.46 C 179.79 48.42 180.18 49.26 180.81 49.97 L 181.40 50.51 L 181.97 51.01 C 180.22 51.26 178.48 51.51 176.74 51.80 C 175.68 51.93 174.67 52.22 173.71 52.67 C 173.72 52.40 173.75 51.88 173.77 51.61 C 174.65 50.77 175.58 49.98 176.53 49.20 C 175.48 44.12 174.52 39.02 173.88 33.87 L 173.71 32.74 M 175.05 35.00 C 175.02 35.78 174.98 37.34 174.95 38.12 C 176.73 37.12 178.51 36.13 180.29 35.14 C 178.54 35.10 176.79 35.04 175.05 35.00 Z" />
</g>
<g id="#268dd9ff">
<path fill="#268dd9" opacity="1.00" d=" M 125.00 33.89 C 126.04 34.25 127.08 34.61 128.13 34.96 C 126.42 37.93 125.32 41.19 124.23 44.42 C 125.61 44.53 127.00 44.64 128.39 44.74 C 127.08 46.59 125.84 48.49 124.72 50.46 C 123.80 46.94 123.52 43.29 122.68 39.76 C 122.92 39.39 123.41 38.67 123.65 38.31 C 124.14 36.85 124.59 35.37 125.00 33.89 Z" />
</g>
<g id="#7b9eb5ff">
<path fill="#7b9eb5" opacity="1.00" d=" M 12.60 36.40 C 13.86 36.33 15.13 36.28 16.40 36.25 C 15.62 36.88 14.84 37.51 14.06 38.14 C 13.10 38.90 12.14 39.67 11.18 40.43 L 11.06 39.76 C 11.24 39.39 11.59 38.63 11.77 38.25 C 11.98 37.79 12.39 36.87 12.60 36.40 Z" />
</g>
<g id="#7a9db6ff">
<path fill="#7a9db6" opacity="1.00" d=" M 68.55 36.02 C 69.28 36.02 70.73 36.02 71.45 36.02 C 70.43 37.24 69.40 38.46 68.32 39.63 C 68.01 39.83 67.38 40.22 67.07 40.42 L 67.35 39.52 C 67.48 39.15 67.73 38.40 67.86 38.03 C 68.03 37.53 68.38 36.52 68.55 36.02 Z" />
<path fill="#7a9db6" opacity="1.00" d=" M 180.55 36.02 C 181.28 36.02 182.73 36.02 183.45 36.02 C 182.42 37.24 181.40 38.46 180.32 39.63 C 180.00 39.83 179.38 40.22 179.07 40.42 L 179.35 39.52 C 179.48 39.15 179.73 38.40 179.86 38.03 C 180.03 37.53 180.38 36.52 180.55 36.02 Z" />
</g>
<g id="#3490d2ff">
<path fill="#3490d2" opacity="1.00" d=" M 11.18 40.43 C 12.14 39.67 13.10 38.90 14.06 38.14 C 14.22 39.72 14.53 42.87 14.69 44.45 C 13.96 44.32 12.50 44.06 11.76 43.92 C 11.61 42.75 11.39 41.59 11.18 40.43 Z" />
</g>
<g id="#4c95c9ff">
<path fill="#4c95c9" opacity="1.00" d=" M 67.07 40.42 C 67.38 40.22 68.01 39.83 68.32 39.63 C 69.13 40.79 69.16 41.94 68.39 43.08 C 67.05 42.60 66.61 41.72 67.07 40.42 Z" />
<path fill="#4c95c9" opacity="1.00" d=" M 179.07 40.42 C 179.38 40.22 180.00 39.83 180.32 39.63 C 181.13 40.79 181.16 41.94 180.39 43.08 C 179.05 42.61 178.61 41.72 179.07 40.42 Z" />
</g>
<g id="#4c80ccff">
<path fill="#4c80cc" opacity="1.00" d=" M 212.65 42.26 C 213.33 41.89 214.67 41.16 215.35 40.79 C 215.40 43.07 215.42 45.34 215.44 47.62 C 214.46 45.86 213.54 44.07 212.65 42.26 Z" />
</g>
<g id="#4779cfff">
<path fill="#4779cf" opacity="1.00" d=" M 37.44 45.18 C 40.13 44.64 42.84 43.79 45.60 43.91 C 48.09 44.62 50.21 46.20 52.41 47.51 C 49.97 47.01 47.58 46.34 45.19 45.62 C 45.13 46.88 45.06 48.14 44.99 49.40 L 44.52 49.40 C 43.44 49.02 42.36 48.64 41.30 48.24 C 41.74 47.26 42.19 46.28 42.64 45.30 C 40.91 45.29 39.17 45.24 37.44 45.18 Z" />
</g>
<g id="#86a0b0fe">
<path fill="#86a0b0" opacity="1.00" d=" M 11.76 43.92 C 12.50 44.06 13.96 44.32 14.69 44.45 L 14.75 45.06 C 14.03 46.03 13.07 46.78 12.04 47.39 C 11.58 46.29 11.74 45.08 11.76 43.92 Z" />
</g>
<g id="#5083d1ff">
<path fill="#5083d1" opacity="1.00" d=" M 96.65 45.62 C 98.43 45.02 100.23 44.47 102.04 43.93 C 102.01 44.76 101.94 46.42 101.90 47.25 C 100.15 46.69 98.40 46.14 96.65 45.62 Z" />
</g>
<g id="#447ccdff">
<path fill="#447ccd" opacity="1.00" d=" M 150.41 45.13 C 156.20 44.23 162.08 44.23 167.92 44.01 C 167.92 44.58 167.92 45.70 167.92 46.26 C 167.45 46.00 166.50 45.48 166.02 45.23 C 165.45 45.29 164.29 45.42 163.71 45.49 L 163.14 45.92 C 158.89 46.65 154.57 46.20 150.41 45.13 Z" />
</g>
<g id="#318cd2ff">
<path fill="#318cd2" opacity="1.00" d=" M 14.75 45.06 C 14.46 46.99 13.85 48.85 13.34 50.72 C 12.88 49.62 12.44 48.51 12.04 47.39 C 13.07 46.78 14.03 46.03 14.75 45.06 Z" />
</g>
<g id="#2c84d1fe">
<path fill="#2c84d1" opacity="1.00" d=" M 69.90 45.25 C 71.20 46.78 69.95 48.70 68.83 49.90 C 68.20 49.21 67.80 48.39 67.63 47.44 C 68.57 46.89 69.33 46.16 69.90 45.25 Z" />
<path fill="#2c84d1" opacity="1.00" d=" M 181.90 45.26 C 183.16 46.82 181.89 48.73 180.81 49.97 C 180.18 49.26 179.79 48.42 179.63 47.46 C 180.57 46.90 181.33 46.17 181.90 45.26 Z" />
</g>
<g id="#417fcaff">
<path fill="#417fca" opacity="1.00" d=" M 130.84 47.65 C 131.84 46.78 132.84 45.92 133.86 45.07 C 135.72 46.95 137.46 48.93 139.30 50.84 C 139.67 51.21 140.41 51.96 140.78 52.33 C 135.89 51.74 131.01 51.08 126.11 50.57 C 130.52 50.86 134.94 50.96 139.36 51.04 C 136.52 49.91 133.67 48.81 130.84 47.65 Z" />
</g>
<g id="#3766b2fe">
<path fill="#3766b2" opacity="1.00" d=" M 142.04 47.33 C 144.76 46.35 147.53 45.48 150.41 45.13 C 154.57 46.20 158.89 46.65 163.14 45.92 C 162.55 46.77 161.97 47.63 161.41 48.50 C 163.59 48.34 165.77 48.18 167.96 48.03 L 167.97 49.00 C 166.63 48.40 165.19 49.02 163.94 49.53 C 163.30 49.66 162.00 49.92 161.35 50.05 L 160.83 49.25 C 160.23 47.85 159.29 47.44 158.02 48.01 C 156.91 48.54 155.80 49.08 154.70 49.62 C 152.45 50.11 150.18 50.47 147.89 50.70 C 149.31 49.50 150.73 48.30 152.14 47.09 C 151.16 46.95 150.18 46.81 149.20 46.67 C 146.85 46.97 144.31 47.06 142.04 47.33 Z" />
</g>
<g id="#2f5ab5ff">
<path fill="#2f5ab5" opacity="1.00" d=" M 163.71 45.49 C 164.29 45.42 165.45 45.29 166.02 45.23 C 166.26 46.81 163.73 47.19 163.71 45.49 Z" />
</g>
<g id="#3f6fbeff">
<path fill="#3f6fbe" opacity="1.00" d=" M 166.02 45.23 C 166.50 45.48 167.45 46.00 167.92 46.26 C 167.93 46.71 167.95 47.59 167.96 48.03 C 165.77 48.18 163.59 48.34 161.41 48.50 C 161.97 47.63 162.55 46.77 163.14 45.92 L 163.71 45.49 C 163.73 47.19 166.26 46.81 166.02 45.23 Z" />
</g>
<g id="#5790d3ff">
<path fill="#5790d3" opacity="1.00" d=" M 209.53 45.12 C 210.95 42.94 212.70 47.02 210.10 46.41 C 209.96 46.09 209.68 45.44 209.53 45.12 Z" />
</g>
<g id="#4271cdff">
<path fill="#4271cd" opacity="1.00" d=" M 216.96 45.81 C 219.27 45.12 221.63 44.72 224.00 44.21 L 224.00 48.78 C 221.60 47.90 218.23 48.40 216.96 45.81 Z" />
</g>
<g id="#5676acff">
<path fill="#5676ac" opacity="1.00" d=" M 46.59 49.42 C 49.72 49.36 52.84 49.16 55.96 49.02 C 55.92 49.52 55.85 50.50 55.81 50.99 C 52.73 50.47 49.68 49.85 46.59 49.42 Z" />
</g>
<g id="#3f658eff">
<path fill="#3f658e" opacity="1.00" d=" M 154.70 49.62 C 155.80 49.08 156.91 48.54 158.02 48.01 C 158.53 49.20 159.46 49.61 160.83 49.25 L 161.35 50.05 C 159.29 50.72 157.23 51.36 155.16 51.97 C 154.59 51.76 153.44 51.34 152.86 51.13 C 153.32 50.75 154.24 50.00 154.70 49.62 Z" />
</g>
<g id="#4e79bdff">
<path fill="#4e79bd" opacity="1.00" d=" M 158.02 48.01 C 159.29 47.44 160.23 47.85 160.83 49.25 C 159.46 49.61 158.53 49.20 158.02 48.01 Z" />
</g>
<g id="#527eaaff">
<path fill="#527eaa" opacity="1.00" d=" M 29.02 51.78 C 33.64 51.24 38.25 50.64 42.85 49.93 L 41.95 50.51 C 37.87 51.59 33.65 51.96 29.50 52.62 L 27.58 51.93 L 29.02 51.78 Z" />
</g>
<g id="#31565cff">
<path fill="#31565c" opacity="1.00" d=" M 44.52 49.40 L 44.99 49.40 C 45.52 49.40 46.06 49.41 46.59 49.42 C 49.68 49.85 52.73 50.47 55.81 50.99 L 55.70 51.89 C 54.25 52.19 51.37 52.78 49.93 53.08 C 49.41 52.97 48.36 52.74 47.84 52.63 C 47.26 52.52 46.11 52.32 45.54 52.22 C 44.07 51.95 42.61 51.68 41.15 51.38 L 41.95 50.51 L 42.85 49.93 C 43.26 49.80 44.10 49.53 44.52 49.40 Z" />
</g>
<g id="#5278a4ff">
<path fill="#5278a4" opacity="1.00" d=" M 84.48 50.81 C 89.02 50.41 93.57 50.07 98.10 49.56 C 97.99 50.01 97.76 50.90 97.65 51.34 C 95.28 51.71 92.90 52.12 90.51 52.40 L 89.52 52.47 C 88.11 52.08 86.64 51.91 85.18 52.01 C 84.77 51.91 83.95 51.71 83.54 51.61 L 84.48 50.81 Z" />
</g>
<g id="#305f7aff">
<path fill="#305f7a" opacity="1.00" d=" M 98.10 49.56 C 98.50 49.53 99.29 49.45 99.69 49.41 L 100.20 49.52 C 99.93 50.01 99.38 50.99 99.11 51.49 L 98.34 51.71 L 97.65 51.34 C 97.76 50.90 97.99 50.01 98.10 49.56 Z" />
</g>
<g id="#4971abff">
<path fill="#4971ab" opacity="1.00" d=" M 99.69 49.41 C 103.80 49.34 107.91 49.57 111.99 50.07 L 112.01 51.09 C 108.05 50.71 104.10 50.30 100.20 49.52 L 99.69 49.41 Z" />
</g>
<g id="#5a7bacff">
<path fill="#5a7bac" opacity="1.00" d=" M 147.89 50.70 C 150.18 50.47 152.45 50.11 154.70 49.62 C 154.24 50.00 153.32 50.75 152.86 51.13 C 149.13 51.58 145.41 52.07 141.68 52.45 L 140.78 52.33 C 140.41 51.96 139.67 51.21 139.30 50.84 C 142.16 50.85 145.01 50.81 147.89 50.70 Z" />
</g>
<g id="#4177b3fe">
<path fill="#4177b3" opacity="1.00" d=" M 163.94 49.53 C 165.19 49.02 166.63 48.40 167.97 49.00 C 167.92 49.39 167.82 50.15 167.77 50.53 C 167.00 50.65 165.48 50.89 164.71 51.02 C 164.52 50.65 164.14 49.90 163.94 49.53 Z" />
</g>
<g id="#486f99ff">
<path fill="#486f99" opacity="1.00" d=" M 196.87 50.94 C 205.84 49.61 214.95 49.74 224.00 49.82 L 224.00 50.61 C 219.55 50.77 215.09 50.97 210.67 51.51 C 210.27 51.58 209.46 51.72 209.06 51.79 C 208.73 51.83 208.08 51.91 207.76 51.95 C 207.30 52.05 206.39 52.25 205.94 52.35 C 205.30 52.31 204.02 52.23 203.38 52.19 L 202.37 52.13 C 199.93 51.95 197.51 51.64 195.08 51.39 C 195.53 51.28 196.42 51.05 196.87 50.94 Z" />
</g>
<g id="#3a4d39ff">
<path fill="#3a4d39" opacity="1.00" d=" M 13.34 50.72 L 14.41 50.75 C 18.81 51.07 23.19 51.53 27.58 51.93 L 29.50 52.62 L 28.44 52.79 C 28.12 52.83 27.50 52.91 27.19 52.95 C 22.69 53.67 17.97 53.62 13.76 51.69 L 13.34 50.72 Z" />
</g>
<g id="#4081cbff">
<path fill="#4081cb" opacity="1.00" d=" M 14.41 50.75 C 19.30 50.69 24.16 51.31 29.02 51.78 L 27.58 51.93 C 23.19 51.53 18.81 51.07 14.41 50.75 Z" />
<path fill="#4081cb" opacity="1.00" d=" M 70.34 50.53 C 75.04 51.00 79.77 50.86 84.48 50.81 L 83.54 51.61 C 83.31 51.95 82.84 52.63 82.61 52.97 C 78.61 51.73 74.45 51.22 70.34 50.53 Z" />
<path fill="#4081cb" opacity="1.00" d=" M 182.38 50.62 C 187.20 50.93 192.04 50.86 196.87 50.94 C 196.42 51.05 195.53 51.28 195.08 51.39 C 190.83 51.22 186.60 51.09 182.38 50.62 Z" />
</g>
<g id="#3a4a37ff">
<path fill="#3a4a37" opacity="1.00" d=" M 69.35 50.38 L 70.34 50.53 C 74.45 51.22 78.61 51.73 82.61 52.97 L 83.30 53.29 C 78.90 52.91 73.40 54.64 69.97 50.95 L 69.35 50.38 Z" />
</g>
<g id="#2b5a55ff">
<path fill="#2b5a55" opacity="1.00" d=" M 99.11 51.49 C 99.38 50.99 99.93 50.01 100.20 49.52 C 104.10 50.30 108.05 50.71 112.01 51.09 L 112.01 51.80 C 110.58 52.06 107.71 52.58 106.27 52.83 C 104.76 52.55 103.24 52.27 101.73 51.97 C 101.07 51.85 99.76 51.61 99.11 51.49 Z" />
</g>
<g id="#3b4c39ff">
<path fill="#3b4c39" opacity="1.00" d=" M 124.72 50.46 L 126.11 50.57 C 131.01 51.08 135.89 51.74 140.78 52.33 L 141.68 52.45 L 140.61 52.57 C 135.46 53.52 129.99 53.82 125.09 51.67 L 124.72 50.46 Z" />
</g>
<g id="#335858ff">
<path fill="#335858" opacity="1.00" d=" M 155.16 51.97 C 157.23 51.36 159.29 50.72 161.35 50.05 C 161.86 51.43 163.55 51.30 164.71 51.02 C 165.48 50.89 167.00 50.65 167.77 50.53 C 167.66 50.94 167.45 51.77 167.35 52.18 C 163.29 52.33 159.22 52.09 155.16 51.97 Z" />
</g>
<g id="#648aadff">
<path fill="#648aad" opacity="1.00" d=" M 161.35 50.05 C 162.00 49.92 163.30 49.66 163.94 49.53 C 164.14 49.90 164.52 50.65 164.71 51.02 C 163.55 51.30 161.86 51.43 161.35 50.05 Z" />
</g>
<g id="#344b37ff">
<path fill="#344b37" opacity="1.00" d=" M 181.40 50.51 L 182.38 50.62 C 186.60 51.09 190.83 51.22 195.08 51.39 C 197.51 51.64 199.93 51.95 202.37 52.13 C 201.95 52.39 201.10 52.89 200.67 53.14 C 194.76 52.52 186.98 55.67 181.97 51.01 L 181.40 50.51 Z" />
</g>
<g id="#355753ff">
<path fill="#355753" opacity="1.00" d=" M 210.67 51.51 C 215.09 50.97 219.55 50.77 224.00 50.61 L 224.00 52.37 C 220.12 52.37 216.23 52.50 212.38 51.92 C 211.95 51.82 211.10 51.61 210.67 51.51 Z" />
</g>
<g id="#446445fe">
<path fill="#446445" opacity="1.00" d=" M 5.74 52.63 C 6.65 52.07 7.64 51.76 8.71 51.70 C 8.09 53.20 7.33 54.63 6.47 56.00 L 6.10 56.00 C 5.79 54.89 5.67 53.77 5.74 52.63 Z" />
<path fill="#446445" opacity="1.00" d=" M 61.71 52.67 C 62.67 52.23 63.69 51.94 64.74 51.80 C 64.13 53.27 63.37 54.68 62.47 56.00 L 62.08 56.00 C 61.75 54.91 61.63 53.80 61.71 52.67 Z" />
<path fill="#446445" opacity="1.00" d=" M 117.74 52.63 C 118.65 52.08 119.65 51.77 120.71 51.70 C 120.10 53.20 119.34 54.63 118.47 56.00 L 118.10 56.00 C 117.79 54.89 117.67 53.77 117.74 52.63 Z" />
<path fill="#446445" opacity="1.00" d=" M 173.71 52.67 C 174.67 52.22 175.68 51.93 176.74 51.80 C 176.12 53.27 175.37 54.68 174.47 56.00 L 174.08 56.00 C 173.75 54.91 173.63 53.79 173.71 52.67 Z" />
</g>
<g id="#79a55cff">
<path fill="#79a55c" opacity="1.00" d=" M 8.71 51.70 C 10.39 51.60 12.08 51.58 13.76 51.69 C 17.97 53.62 22.69 53.67 27.19 52.95 C 27.19 54.08 27.52 55.09 28.20 56.00 L 6.47 56.00 C 7.33 54.63 8.09 53.20 8.71 51.70 Z" />
</g>
<g id="#154539fe">
<path fill="#154539" opacity="1.00" d=" M 29.50 52.62 C 33.65 51.96 37.87 51.59 41.95 50.51 L 41.15 51.38 C 40.56 52.04 39.96 52.70 39.35 53.36 C 35.71 53.17 32.07 52.98 28.44 52.79 L 29.50 52.62 Z" />
</g>
<g id="#446460ff">
<path fill="#446460" opacity="1.00" d=" M 83.54 51.61 C 83.95 51.71 84.77 51.91 85.18 52.01 L 85.14 52.65 C 84.68 52.81 83.76 53.13 83.30 53.29 L 82.61 52.97 C 82.84 52.63 83.31 51.95 83.54 51.61 Z" />
</g>
<g id="#194338ff">
<path fill="#194338" opacity="1.00" d=" M 90.51 52.40 C 92.90 52.12 95.28 51.71 97.65 51.34 L 98.34 51.71 C 96.28 52.23 94.24 52.76 92.20 53.32 C 91.78 53.09 90.94 52.63 90.51 52.40 Z" />
</g>
<g id="#7aa561ff">
<path fill="#7aa561" opacity="1.00" d=" M 120.71 51.70 C 122.17 51.61 123.63 51.56 125.09 51.67 C 129.99 53.82 135.46 53.52 140.61 52.57 C 144.17 52.59 147.75 52.83 151.32 52.66 C 150.68 53.79 150.02 54.90 149.34 56.00 L 118.47 56.00 C 119.34 54.63 120.10 53.20 120.71 51.70 Z" />
</g>
<g id="#234643ff">
<path fill="#234643" opacity="1.00" d=" M 141.68 52.45 C 145.41 52.07 149.13 51.58 152.86 51.13 C 153.44 51.34 154.59 51.76 155.16 51.97 C 153.88 52.19 152.61 52.48 151.32 52.66 C 147.75 52.83 144.17 52.59 140.61 52.57 L 141.68 52.45 Z" />
</g>
<g id="#7ba45eff">
<path fill="#7ba45e" opacity="1.00" d=" M 176.74 51.80 C 178.48 51.51 180.22 51.26 181.97 51.01 C 186.98 55.67 194.76 52.52 200.67 53.14 C 201.68 53.84 202.94 54.16 204.11 53.66 C 204.55 53.53 205.41 53.27 205.85 53.14 C 206.78 54.20 209.08 53.36 207.76 51.95 C 208.08 51.91 208.73 51.83 209.06 51.79 C 209.61 53.34 212.17 54.09 212.38 51.92 C 216.23 52.50 220.12 52.37 224.00 52.37 L 224.00 56.00 L 174.47 56.00 C 175.37 54.68 176.12 53.27 176.74 51.80 Z" />
</g>
<g id="#567b4eff">
<path fill="#567b4e" opacity="1.00" d=" M 209.06 51.79 C 209.46 51.72 210.27 51.58 210.67 51.51 C 211.10 51.61 211.95 51.82 212.38 51.92 C 212.17 54.09 209.61 53.34 209.06 51.79 Z" />
</g>
<g id="#6b9f45ff">
<path fill="#6b9f45" opacity="1.00" d=" M 39.35 53.36 C 39.96 52.70 40.56 52.04 41.15 51.38 C 42.61 51.68 44.07 51.95 45.54 52.22 C 44.84 53.49 44.13 54.76 43.39 56.00 L 36.58 56.00 C 37.54 55.16 38.46 54.28 39.35 53.36 Z" />
</g>
<g id="#81ac5cff">
<path fill="#81ac5c" opacity="1.00" d=" M 45.54 52.22 C 46.11 52.32 47.26 52.52 47.84 52.63 C 47.91 53.79 48.12 54.95 48.64 56.00 L 43.39 56.00 C 44.13 54.76 44.84 53.49 45.54 52.22 Z" />
</g>
<g id="#669043ff">
<path fill="#669043" opacity="1.00" d=" M 47.84 52.63 C 48.36 52.74 49.41 52.97 49.93 53.08 C 49.91 53.81 49.86 55.27 49.84 56.00 L 48.64 56.00 C 48.12 54.95 47.91 53.79 47.84 52.63 Z" />
</g>
<g id="#1c3d42ff">
<path fill="#1c3d42" opacity="1.00" d=" M 85.18 52.01 C 86.64 51.91 88.11 52.08 89.52 52.47 C 89.33 52.79 88.95 53.45 88.76 53.78 C 87.50 53.54 86.30 53.16 85.14 52.65 L 85.18 52.01 Z" />
</g>
<g id="#497060ff">
<path fill="#497060" opacity="1.00" d=" M 89.52 52.47 L 90.51 52.40 C 90.94 52.63 91.78 53.09 92.20 53.32 C 91.32 53.97 90.35 54.24 89.30 54.13 L 88.76 53.78 C 88.95 53.45 89.33 52.79 89.52 52.47 Z" />
</g>
<g id="#5c8d48ff">
<path fill="#5c8d48" opacity="1.00" d=" M 98.34 51.71 L 99.11 51.49 C 99.76 51.61 101.07 51.85 101.73 51.97 C 101.41 54.40 97.53 54.55 98.34 51.71 Z" />
</g>
<g id="#679671fe">
<path fill="#679671" opacity="1.00" d=" M 106.27 52.83 C 107.71 52.58 110.58 52.06 112.01 51.80 C 112.11 55.12 108.06 53.70 106.27 52.83 Z" />
</g>
<g id="#729a53ff">
<path fill="#729a53" opacity="1.00" d=" M 151.32 52.66 C 152.61 52.48 153.88 52.19 155.16 51.97 C 159.22 52.09 163.29 52.33 167.35 52.18 C 167.06 53.45 166.79 54.72 166.53 56.00 L 161.04 56.00 C 160.52 55.23 159.49 53.69 158.98 52.92 C 157.61 54.01 156.22 55.06 154.75 56.00 L 149.34 56.00 C 150.02 54.90 150.68 53.79 151.32 52.66 Z" />
</g>
<g id="#49744bff">
<path fill="#49744b" opacity="1.00" d=" M 202.37 52.13 L 203.38 52.19 C 203.56 52.56 203.93 53.29 204.11 53.66 C 202.94 54.16 201.68 53.84 200.67 53.14 C 201.10 52.89 201.95 52.39 202.37 52.13 Z" />
</g>
<g id="#073126ff">
<path fill="#073126" opacity="1.00" d=" M 203.38 52.19 C 204.02 52.23 205.30 52.31 205.94 52.35 L 205.85 53.14 C 205.41 53.27 204.55 53.53 204.11 53.66 C 203.93 53.29 203.56 52.56 203.38 52.19 Z" />
</g>
<g id="#355e47ff">
<path fill="#355e47" opacity="1.00" d=" M 205.94 52.35 C 206.39 52.25 207.30 52.05 207.76 51.95 C 209.08 53.36 206.78 54.20 205.85 53.14 L 205.94 52.35 Z" />
</g>
<g id="#90c175ff">
<path fill="#90c175" opacity="1.00" d=" M 27.19 52.95 C 27.50 52.91 28.12 52.83 28.44 52.79 C 28.51 53.59 28.67 55.20 28.75 56.00 L 28.20 56.00 C 27.52 55.09 27.19 54.08 27.19 52.95 Z" />
</g>
<g id="#73a466fe">
<path fill="#73a466" opacity="1.00" d=" M 28.44 52.79 C 32.07 52.98 35.71 53.17 39.35 53.36 C 38.46 54.28 37.54 55.16 36.58 56.00 L 28.75 56.00 C 28.67 55.20 28.51 53.59 28.44 52.79 Z" />
</g>
<g id="#8cb281ff">
<path fill="#8cb281" opacity="1.00" d=" M 83.30 53.29 C 83.76 53.13 84.68 52.81 85.14 52.65 C 86.30 53.16 87.50 53.54 88.76 53.78 L 89.30 54.13 C 87.28 53.99 85.29 53.62 83.30 53.29 Z" />
</g>
<g id="#89b252ff">
<path fill="#89b252" opacity="1.00" d=" M 154.75 56.00 C 156.22 55.06 157.61 54.01 158.98 52.92 C 159.49 53.69 160.52 55.23 161.04 56.00 L 154.75 56.00 Z" />
</g>
</svg>
