<?xml version="1.0" encoding="UTF-8" ?>
<!DOCTYPE svg PUBLIC "-//W3C//DTD SVG 1.1//EN" "http://www.w3.org/Graphics/SVG/1.1/DTD/svg11.dtd">
<svg width="224pt" height="56pt" viewBox="0 0 224 56" version="1.1" xmlns="http://www.w3.org/2000/svg">
<g id="#81ab59fe">
<path fill="#81ab59" opacity="1.00" d=" M 0.00 0.00 L 10.12 0.00 C 10.03 0.57 9.85 1.72 9.75 2.29 C 7.76 2.81 5.75 3.31 3.75 3.79 C 3.25 5.22 2.76 6.65 2.26 8.09 C 1.88 8.07 1.11 8.03 0.72 8.01 C 2.20 6.97 1.28 5.05 0.00 4.35 L 0.00 0.00 Z" />
</g>
<g id="#342f2aff">
<path fill="#342f2a" opacity="1.00" d=" M 10.12 0.00 L 13.35 0.00 C 13.27 0.56 13.09 1.68 13.00 2.25 C 12.42 5.72 11.70 9.19 11.59 12.73 C 12.23 10.45 12.88 8.18 13.26 5.84 C 13.95 10.21 12.97 14.47 12.18 18.72 L 12.11 19.17 C 11.72 19.41 10.93 19.90 10.54 20.14 C 10.25 16.38 9.67 12.66 9.06 8.94 C 8.35 9.08 6.94 9.36 6.24 9.50 C 6.88 13.61 7.50 17.72 8.07 21.84 C 7.55 22.22 6.51 22.98 5.98 23.37 C 5.69 22.76 5.11 21.56 4.81 20.95 C 5.55 19.08 3.55 15.89 2.42 18.99 C 2.26 19.28 1.95 19.87 1.79 20.17 C 1.34 20.27 0.45 20.46 0.00 20.55 L 0.00 7.96 L 0.72 8.01 C 1.11 8.03 1.88 8.07 2.26 8.09 C 4.61 8.13 6.94 7.94 9.28 7.75 C 9.41 5.93 9.52 4.11 9.75 2.29 C 9.85 1.72 10.03 0.57 10.12 0.00 M 3.99 11.49 C 4.77 14.21 5.88 16.82 7.09 19.37 C 6.47 16.59 5.43 13.94 3.99 11.49 Z" />
</g>
<g id="#268dd9ff">
<path fill="#268dd9" opacity="1.00" d=" M 13.35 0.00 L 16.05 0.00 L 15.26 0.86 C 13.39 1.92 13.99 4.66 16.27 4.45 C 16.57 8.34 16.86 12.23 17.15 16.12 C 16.58 15.20 16.02 14.27 15.45 13.34 C 15.34 13.50 15.12 13.82 15.01 13.98 C 13.70 15.31 12.49 16.81 12.18 18.72 C 12.97 14.47 13.95 10.21 13.26 5.84 C 13.19 4.64 13.11 3.44 13.00 2.25 C 13.09 1.68 13.27 0.56 13.35 0.00 Z" />
<path fill="#268dd9" opacity="1.00" d=" M 68.94 0.00 L 70.17 0.00 C 70.41 0.35 70.89 1.06 71.13 1.41 C 70.25 2.58 70.27 5.10 72.28 4.85 C 72.05 8.08 71.85 11.32 71.55 14.55 C 70.14 15.09 68.94 16.04 67.95 17.17 C 69.34 13.56 70.19 9.71 69.34 5.82 C 69.25 4.63 69.15 3.44 69.03 2.26 C 69.01 1.69 68.96 0.56 68.94 0.00 Z" />
<path fill="#268dd9" opacity="1.00" d=" M 180.94 0.00 L 182.17 0.00 C 182.41 0.35 182.89 1.06 183.13 1.41 C 182.26 2.58 182.27 5.10 184.27 4.85 C 184.04 8.08 183.72 11.31 183.57 14.55 C 182.15 15.09 180.97 16.06 179.97 17.17 C 181.34 13.55 182.18 9.71 181.34 5.82 C 181.25 4.63 181.14 3.44 181.03 2.26 C 181.00 1.69 180.96 0.56 180.94 0.00 Z" />
</g>
<g id="#3c6bbeff">
<path fill="#3c6bbe" opacity="1.00" d=" M 16.05 0.00 L 25.54 0.00 C 26.63 1.16 27.66 2.37 28.70 3.58 C 24.50 4.48 19.99 4.58 16.06 2.63 C 15.86 2.19 15.46 1.30 15.26 0.86 L 16.05 0.00 Z" />
<path fill="#3c6bbe" opacity="1.00" d=" M 33.32 0.00 L 40.10 0.00 C 39.01 1.62 40.48 3.27 41.61 4.36 C 41.75 4.81 42.05 5.70 42.19 6.15 C 41.06 6.41 39.97 6.78 38.92 7.28 C 36.94 4.94 35.23 2.39 33.32 0.00 Z" />
<path fill="#3c6bbe" opacity="1.00" d=" M 48.43 22.58 C 46.17 19.68 50.57 19.89 50.03 22.86 C 49.63 22.79 48.83 22.65 48.43 22.58 Z" />
<path fill="#3c6bbe" opacity="1.00" d=" M 104.44 22.52 C 102.15 19.63 106.59 19.88 106.04 22.83 C 105.64 22.75 104.84 22.60 104.44 22.52 Z" />
<path fill="#3c6bbe" opacity="1.00" d=" M 160.45 22.51 C 158.15 19.62 162.60 19.88 162.05 22.83 C 161.65 22.75 160.85 22.59 160.45 22.51 Z" />
<path fill="#3c6bbe" opacity="1.00" d=" M 216.44 22.52 C 214.15 19.63 218.59 19.87 218.04 22.83 C 217.64 22.75 216.84 22.60 216.44 22.52 Z" />
<path fill="#3c6bbe" opacity="1.00" d=" M 44.19 22.91 C 44.80 22.79 46.02 22.55 46.63 22.43 L 46.50 23.20 C 46.22 23.42 45.66 23.84 45.38 24.05 C 45.08 23.77 44.49 23.20 44.19 22.91 Z" />
<path fill="#3c6bbe" opacity="1.00" d=" M 100.27 22.71 C 100.87 22.60 102.08 22.39 102.69 22.28 L 102.55 23.07 C 102.27 23.27 101.71 23.68 101.43 23.88 C 101.14 23.59 100.56 23.00 100.27 22.71 Z" />
<path fill="#3c6bbe" opacity="1.00" d=" M 156.24 22.70 C 156.85 22.59 158.07 22.37 158.68 22.26 L 158.55 23.04 C 158.27 23.24 157.73 23.65 157.45 23.86 C 157.15 23.57 156.55 22.99 156.24 22.70 Z" />
<path fill="#3c6bbe" opacity="1.00" d=" M 212.27 22.71 C 212.87 22.60 214.08 22.39 214.69 22.28 L 214.55 23.07 C 214.27 23.27 213.71 23.68 213.43 23.88 C 213.14 23.59 212.56 23.00 212.27 22.71 Z" />
<path fill="#3c6bbe" opacity="1.00" d=" M 47.70 24.51 L 48.48 24.54 C 48.61 25.57 49.08 26.42 49.90 27.07 C 49.63 27.37 49.08 27.98 48.81 28.28 L 48.15 27.90 C 47.98 27.22 47.64 25.87 47.47 25.20 L 47.70 24.51 Z" />
<path fill="#3c6bbe" opacity="1.00" d=" M 103.75 24.44 L 104.52 24.50 C 104.62 25.54 105.08 26.40 105.89 27.06 C 105.61 27.36 105.06 27.96 104.78 28.26 L 104.12 27.86 C 103.97 27.17 103.66 25.80 103.51 25.11 L 103.75 24.44 Z" />
<path fill="#3c6bbe" opacity="1.00" d=" M 159.78 24.42 L 160.54 24.49 C 160.64 25.53 161.09 26.39 161.90 27.07 C 161.62 27.37 161.06 27.97 160.78 28.27 L 160.12 27.87 C 159.98 27.17 159.69 25.78 159.54 25.09 L 159.78 24.42 Z" />
<path fill="#3c6bbe" opacity="1.00" d=" M 215.75 24.44 L 216.51 24.50 C 216.62 25.54 217.08 26.40 217.89 27.06 C 217.61 27.36 217.06 27.96 216.78 28.27 L 216.12 27.87 C 215.97 27.18 215.66 25.80 215.51 25.11 L 215.75 24.44 Z" />
</g>
<g id="#4278cbff">
<path fill="#4278cb" opacity="1.00" d=" M 25.54 0.00 L 30.28 0.00 C 28.71 2.45 27.56 5.63 24.75 6.93 C 21.78 6.79 19.00 5.52 16.27 4.45 C 16.22 3.99 16.11 3.09 16.06 2.63 C 19.99 4.58 24.50 4.48 28.70 3.58 C 27.66 2.37 26.63 1.16 25.54 0.00 Z" />
</g>
<g id="#3c6cbfff">
<path fill="#3c6cbf" opacity="1.00" d=" M 30.28 0.00 L 31.71 0.00 C 32.68 1.16 33.59 2.36 34.50 3.56 C 32.08 5.98 29.69 8.43 27.42 10.99 C 28.12 12.65 28.80 14.32 29.45 15.99 C 30.33 11.13 33.19 6.83 39.13 7.55 L 39.65 8.00 C 40.45 8.69 41.24 9.38 42.04 10.08 C 41.84 11.65 41.43 14.81 41.23 16.39 L 41.14 17.05 C 41.46 18.48 41.98 19.85 42.54 21.21 C 42.32 21.54 41.89 22.21 41.67 22.55 C 40.85 25.33 40.90 28.25 41.29 31.09 L 41.36 31.84 L 40.76 31.48 C 36.91 29.03 32.74 27.12 28.99 24.52 C 29.11 26.76 29.18 29.00 29.23 31.24 C 33.08 31.51 36.94 31.81 40.76 32.43 C 40.64 36.18 40.39 39.95 41.06 43.67 C 40.45 45.18 39.83 46.67 39.21 48.17 C 40.02 49.53 40.83 50.88 41.65 52.23 L 42.06 52.89 C 41.48 53.94 40.89 54.97 40.28 56.00 L 28.17 56.00 C 27.95 54.21 27.73 52.42 27.52 50.64 C 26.72 52.43 25.92 54.21 25.13 56.00 L 15.13 56.00 C 14.07 54.94 13.04 53.86 12.00 52.78 C 11.64 50.89 10.10 49.37 8.07 49.78 C 7.65 49.55 7.22 49.31 6.80 49.08 C 11.12 45.95 11.25 40.53 11.91 35.72 C 7.93 36.42 3.93 37.08 0.00 38.05 L 0.00 22.19 L 0.68 22.43 C 1.62 22.76 2.56 23.08 3.51 23.39 C 2.66 24.30 1.81 25.21 0.95 26.12 C 3.27 26.19 5.59 26.28 7.90 26.36 C 7.57 25.65 6.91 24.24 6.57 23.53 C 8.15 23.19 9.71 22.78 11.26 22.35 L 11.59 22.69 L 12.06 23.15 C 13.02 23.98 14.05 24.72 15.10 25.43 C 15.46 22.47 15.34 19.50 15.18 16.54 C 15.13 15.90 15.05 14.62 15.01 13.98 C 15.12 13.82 15.34 13.50 15.45 13.34 C 16.02 14.27 16.58 15.20 17.15 16.12 C 16.86 12.23 16.57 8.34 16.27 4.45 C 19.00 5.52 21.78 6.79 24.75 6.93 C 27.56 5.63 28.71 2.45 30.28 0.00 M 21.85 18.96 C 23.51 20.09 25.20 21.19 26.90 22.26 C 26.91 22.87 26.92 24.11 26.93 24.73 C 24.77 26.01 22.62 27.28 20.51 28.64 C 22.94 28.05 25.35 27.41 27.77 26.80 C 28.17 24.60 28.62 22.40 29.08 20.20 C 26.66 19.81 24.26 19.38 21.85 18.96 M 10.14 24.11 C 8.82 24.80 8.81 25.47 10.11 26.14 C 11.43 25.46 11.44 24.78 10.14 24.11 M 14.39 36.18 C 15.82 36.45 18.69 37.00 20.13 37.28 C 22.71 38.23 25.39 38.88 27.99 39.74 C 26.99 41.51 25.98 43.27 24.96 45.03 C 25.88 45.37 26.80 45.72 27.72 46.06 C 28.23 44.49 28.76 42.92 29.27 41.35 C 31.69 41.76 34.12 42.17 36.55 42.54 C 32.07 38.74 26.85 35.89 21.44 33.65 C 18.74 32.25 16.53 34.92 14.39 36.18 M 34.58 44.33 C 32.55 46.41 30.41 48.38 28.36 50.45 C 31.20 49.46 34.06 48.53 36.94 47.64 C 36.14 46.55 35.35 45.44 34.58 44.33 Z" />
<path fill="#3c6cbf" opacity="1.00" d=" M 70.17 0.00 L 90.46 0.00 C 90.58 1.20 90.69 2.41 90.80 3.61 C 86.42 6.01 81.78 9.26 83.05 15.24 C 85.90 11.50 89.25 8.14 93.42 5.91 C 92.99 3.94 92.58 1.96 92.10 0.00 L 97.39 0.00 C 95.75 10.20 97.04 20.54 97.53 30.77 L 97.53 31.58 C 97.58 38.50 96.65 45.45 97.46 52.34 L 97.58 53.12 C 97.77 53.84 98.14 55.28 98.32 56.00 L 69.63 56.00 C 67.54 54.20 65.48 52.31 63.08 50.92 C 61.84 50.25 60.58 49.62 59.30 49.04 C 60.62 48.31 61.89 47.51 63.17 46.72 C 62.06 45.85 60.95 44.99 59.83 44.13 C 59.08 46.00 58.30 47.87 57.33 49.64 C 56.99 49.75 56.31 49.97 55.97 50.08 L 55.96 49.51 C 55.92 42.24 55.76 34.98 55.63 27.72 L 55.71 26.97 C 55.89 24.96 56.06 22.94 56.14 20.93 L 56.77 21.35 C 57.69 22.03 58.67 22.61 59.71 23.08 C 58.63 23.64 57.57 24.22 56.51 24.82 C 59.17 25.01 61.83 25.14 64.50 25.16 C 63.88 24.63 62.65 23.56 62.04 23.03 C 63.71 23.07 65.31 22.47 66.75 21.66 C 67.98 22.62 69.23 23.54 70.49 24.46 C 70.93 21.93 71.13 19.36 71.34 16.81 C 71.40 16.24 71.50 15.12 71.55 14.55 C 71.85 11.32 72.05 8.08 72.28 4.85 C 72.40 3.55 72.02 2.41 71.13 1.41 C 70.89 1.06 70.41 0.35 70.17 0.00 M 66.14 23.11 C 64.82 23.80 64.81 24.47 66.11 25.14 C 67.43 24.46 67.44 23.78 66.14 23.11 M 73.41 27.00 C 73.76 29.95 73.95 32.90 74.20 35.85 C 76.68 35.97 79.15 36.09 81.63 36.20 C 82.11 39.31 82.70 42.40 83.48 45.45 C 83.61 43.68 83.85 40.15 83.98 38.39 C 86.83 39.23 89.72 39.96 92.61 40.70 C 87.97 36.00 81.40 34.38 75.31 32.48 C 75.18 26.56 81.41 26.37 85.29 24.53 C 81.32 25.32 77.37 26.14 73.41 27.00 M 86.17 27.17 C 85.65 28.80 86.20 29.35 87.83 28.83 C 88.35 27.20 87.80 26.65 86.17 27.17 M 60.00 38.87 C 62.14 41.25 64.52 43.40 67.02 45.39 C 66.02 43.36 64.97 41.35 63.96 39.31 C 65.24 38.22 66.45 37.05 67.53 35.76 C 64.96 36.64 62.47 37.73 60.00 38.87 Z" />
<path fill="#3c6cbf" opacity="1.00" d=" M 182.17 0.00 L 202.46 0.00 C 202.57 1.20 202.69 2.41 202.80 3.61 C 198.42 6.01 193.78 9.26 195.05 15.24 C 197.90 11.50 201.25 8.14 205.42 5.91 C 204.99 3.94 204.58 1.96 204.10 0.00 L 209.39 0.00 C 207.75 10.20 209.04 20.54 209.53 30.77 L 209.53 31.58 C 209.58 38.50 208.65 45.45 209.46 52.34 L 209.58 53.12 C 209.77 53.84 210.14 55.28 210.32 56.00 L 181.51 56.00 C 179.50 53.98 177.58 51.85 175.27 50.15 C 173.45 50.03 169.81 49.77 167.99 49.64 L 167.99 49.10 C 167.92 41.97 167.76 34.85 167.63 27.72 L 167.70 26.96 C 167.89 24.95 168.06 22.94 168.14 20.92 L 168.76 21.35 C 169.68 22.03 170.67 22.60 171.72 23.07 C 170.61 23.65 169.51 24.25 168.42 24.87 C 171.09 25.27 173.78 25.59 176.48 25.62 C 175.86 24.97 174.62 23.68 174.00 23.04 C 175.64 23.22 177.21 22.61 178.65 21.91 C 180.03 22.41 181.90 23.91 183.12 22.36 C 183.45 20.52 183.33 18.63 183.44 16.77 C 183.47 16.22 183.53 15.11 183.57 14.55 C 183.72 11.31 184.04 8.08 184.27 4.85 C 184.41 3.55 184.03 2.41 183.13 1.41 C 182.89 1.06 182.41 0.35 182.17 0.00 M 178.14 23.11 C 176.82 23.80 176.81 24.47 178.11 25.14 C 179.43 24.46 179.44 23.78 178.14 23.11 M 185.42 27.00 C 185.76 29.95 185.93 32.90 186.19 35.86 C 188.81 35.96 191.43 36.07 194.05 36.17 C 193.95 38.60 193.85 41.02 193.75 43.45 C 191.71 44.94 189.27 46.19 188.09 48.53 C 191.56 51.25 195.64 53.03 199.63 54.83 C 197.38 51.69 194.06 49.76 190.67 48.07 C 192.34 46.88 194.01 45.70 195.69 44.53 C 195.76 43.00 195.91 39.94 195.98 38.41 C 198.83 39.26 201.72 39.97 204.61 40.69 C 199.96 36.01 193.40 34.38 187.31 32.48 C 187.18 26.56 193.41 26.37 197.29 24.53 C 193.32 25.32 189.37 26.14 185.42 27.00 M 198.17 27.17 C 197.65 28.80 198.20 29.35 199.83 28.83 C 200.35 27.20 199.79 26.65 198.17 27.17 Z" />
</g>
<g id="#4579caff">
<path fill="#4579ca" opacity="1.00" d=" M 31.71 0.00 L 33.32 0.00 C 35.23 2.39 36.94 4.94 38.92 7.28 L 39.13 7.55 C 33.19 6.83 30.33 11.13 29.45 15.99 C 28.80 14.32 28.12 12.65 27.42 10.99 C 29.69 8.43 32.08 5.98 34.50 3.56 C 33.59 2.36 32.68 1.16 31.71 0.00 Z" />
</g>
<g id="#268ed9fe">
<path fill="#268ed9" opacity="1.00" d=" M 40.10 0.00 L 41.65 0.00 C 42.12 1.43 42.10 2.88 41.61 4.36 C 40.48 3.27 39.01 1.62 40.10 0.00 Z" />
<path fill="#268ed9" opacity="1.00" d=" M 41.29 31.09 C 40.90 28.25 40.85 25.33 41.67 22.55 C 41.94 23.56 42.33 24.53 42.83 25.45 C 42.94 26.00 43.14 27.11 43.25 27.67 L 43.44 29.04 C 42.90 29.55 41.82 30.58 41.29 31.09 Z" />
</g>
<g id="#8aa3b5ff">
<path fill="#8aa3b5" opacity="1.00" d=" M 41.65 0.00 L 42.94 0.00 C 43.23 0.57 43.81 1.70 44.11 2.26 C 43.76 3.14 43.44 4.02 43.15 4.92 C 43.02 5.56 42.77 6.83 42.65 7.47 C 42.54 7.14 42.31 6.48 42.19 6.15 C 42.05 5.70 41.75 4.81 41.61 4.36 C 42.10 2.88 42.12 1.43 41.65 0.00 Z" />
</g>
<g id="#332e2aff">
<path fill="#332e2a" opacity="1.00" d=" M 42.94 0.00 L 44.46 0.00 C 44.37 0.57 44.19 1.70 44.11 2.26 C 43.81 1.70 43.23 0.57 42.94 0.00 Z" />
<path fill="#332e2a" opacity="1.00" d=" M 48.04 0.00 L 50.32 0.00 C 50.34 0.28 50.40 0.85 50.43 1.13 C 48.97 3.04 45.00 2.02 48.04 0.00 Z" />
<path fill="#332e2a" opacity="1.00" d=" M 104.00 0.00 L 106.29 0.00 C 106.32 0.28 106.38 0.85 106.41 1.13 C 104.98 3.02 101.01 2.04 104.00 0.00 Z" />
<path fill="#332e2a" opacity="1.00" d=" M 155.18 0.00 L 156.80 0.00 C 156.43 0.60 155.68 1.79 155.31 2.39 C 155.28 1.79 155.22 0.60 155.18 0.00 Z" />
<path fill="#332e2a" opacity="1.00" d=" M 160.03 0.00 L 162.31 0.00 C 162.34 0.28 162.40 0.85 162.42 1.13 C 160.97 3.04 157.00 2.03 160.03 0.00 Z" />
<path fill="#332e2a" opacity="1.00" d=" M 216.21 0.00 L 218.51 0.00 C 218.53 0.31 218.57 0.92 218.58 1.23 C 217.38 2.03 215.91 2.16 214.52 2.10 C 215.01 1.34 215.57 0.64 216.21 0.00 Z" />
<path fill="#332e2a" opacity="1.00" d=" M 45.38 24.05 C 45.66 23.84 46.22 23.42 46.50 23.20 C 46.98 23.05 47.95 22.73 48.43 22.58 C 48.83 22.65 49.63 22.79 50.03 22.86 L 50.17 23.49 L 50.08 24.16 L 49.36 24.42 L 48.48 24.54 L 47.70 24.51 C 47.12 24.40 45.96 24.17 45.38 24.05 Z" />
<path fill="#332e2a" opacity="1.00" d=" M 101.43 23.88 C 101.71 23.68 102.27 23.27 102.55 23.07 C 103.02 22.93 103.97 22.66 104.44 22.52 C 104.84 22.60 105.64 22.75 106.04 22.83 L 106.19 23.47 L 106.11 24.15 L 105.40 24.40 L 104.52 24.50 L 103.75 24.44 C 103.17 24.30 102.01 24.02 101.43 23.88 Z" />
<path fill="#332e2a" opacity="1.00" d=" M 157.45 23.86 C 157.73 23.65 158.27 23.24 158.55 23.04 C 159.02 22.91 159.97 22.64 160.45 22.51 C 160.85 22.59 161.65 22.75 162.05 22.83 L 162.20 23.47 L 162.13 24.15 L 161.42 24.40 L 160.54 24.49 L 159.78 24.42 C 159.20 24.28 158.03 24.00 157.45 23.86 Z" />
<path fill="#332e2a" opacity="1.00" d=" M 213.43 23.88 C 213.71 23.68 214.27 23.27 214.55 23.07 C 215.02 22.93 215.97 22.66 216.44 22.52 C 216.84 22.60 217.64 22.75 218.04 22.83 L 218.19 23.46 L 218.11 24.14 L 217.39 24.40 L 216.51 24.50 L 215.75 24.44 C 215.17 24.30 214.01 24.02 213.43 23.88 Z" />
</g>
<g id="#525548ff">
<path fill="#525548" opacity="1.00" d=" M 44.46 0.00 L 48.04 0.00 C 45.00 2.02 48.97 3.04 50.43 1.13 C 50.49 2.35 50.46 3.58 50.38 4.80 C 47.97 4.81 45.56 4.83 43.15 4.92 C 43.44 4.02 43.76 3.14 44.11 2.26 C 44.19 1.70 44.37 0.57 44.46 0.00 Z" />
<path fill="#525548" opacity="1.00" d=" M 101.19 0.00 L 104.00 0.00 C 101.01 2.04 104.98 3.02 106.41 1.13 C 106.49 2.39 106.45 3.65 106.37 4.90 C 103.90 4.77 101.43 4.67 98.95 4.61 L 98.95 3.87 C 100.01 2.79 100.90 1.52 101.19 0.00 Z" />
<path fill="#525548" opacity="1.00" d=" M 156.80 0.00 L 160.03 0.00 C 157.00 2.03 160.97 3.04 162.42 1.13 C 162.49 2.37 162.46 3.62 162.38 4.86 C 160.08 4.81 157.79 4.77 155.50 4.79 C 155.43 3.99 155.37 3.19 155.31 2.39 C 155.68 1.79 156.43 0.60 156.80 0.00 Z" />
<path fill="#525548" opacity="1.00" d=" M 213.19 0.00 L 216.21 0.00 C 215.57 0.64 215.01 1.34 214.52 2.10 C 215.91 2.16 217.38 2.03 218.58 1.23 C 218.57 2.46 218.48 3.68 218.36 4.90 C 215.89 4.77 213.42 4.67 210.95 4.61 L 210.95 3.87 C 212.01 2.79 212.90 1.52 213.19 0.00 Z" />
</g>
<g id="#80aa5dff">
<path fill="#80aa5d" opacity="1.00" d=" M 50.32 0.00 L 66.04 0.00 C 65.94 0.44 65.76 1.31 65.66 1.74 C 62.47 2.90 59.65 4.84 57.71 7.65 C 57.16 7.60 56.61 7.55 56.06 7.50 C 56.98 6.18 57.19 2.60 54.86 2.97 C 53.98 4.39 55.23 6.03 55.56 7.45 C 55.63 7.79 55.77 8.47 55.84 8.81 C 54.41 9.54 52.98 10.27 51.55 11.01 C 51.90 8.64 52.32 6.28 52.78 3.92 C 51.95 4.58 51.11 5.23 50.27 5.89 L 50.38 4.80 C 50.46 3.58 50.49 2.35 50.43 1.13 C 50.40 0.85 50.34 0.28 50.32 0.00 Z" />
<path fill="#80aa5d" opacity="1.00" d=" M 106.29 0.00 L 122.05 0.00 C 121.95 0.43 121.76 1.30 121.66 1.74 C 118.47 2.90 115.65 4.84 113.71 7.65 C 113.15 7.60 112.60 7.55 112.05 7.50 C 112.98 6.18 113.19 2.60 110.86 2.97 C 109.98 4.39 111.23 6.03 111.55 7.45 C 111.62 7.79 111.77 8.47 111.84 8.81 C 110.41 9.54 108.98 10.28 107.56 11.01 C 107.90 8.63 108.32 6.27 108.78 3.91 C 107.94 4.59 107.11 5.26 106.27 5.94 L 106.37 4.90 C 106.45 3.65 106.49 2.39 106.41 1.13 C 106.38 0.85 106.32 0.28 106.29 0.00 Z" />
<path fill="#80aa5d" opacity="1.00" d=" M 162.31 0.00 L 178.04 0.00 C 177.94 0.44 177.76 1.31 177.66 1.74 C 174.47 2.90 171.65 4.84 169.71 7.65 C 169.15 7.60 168.61 7.55 168.06 7.50 C 168.98 6.18 169.19 2.60 166.86 2.97 C 165.98 4.39 167.23 6.03 167.56 7.45 C 167.63 7.79 167.77 8.47 167.84 8.81 C 166.41 9.54 164.98 10.27 163.55 11.01 C 163.89 8.64 164.32 6.27 164.78 3.92 C 163.94 4.58 163.11 5.25 162.27 5.91 L 162.38 4.86 C 162.46 3.62 162.49 2.37 162.42 1.13 C 162.40 0.85 162.34 0.28 162.31 0.00 Z" />
</g>
<g id="#342f2bff">
<path fill="#342f2b" opacity="1.00" d=" M 66.04 0.00 L 68.94 0.00 C 68.96 0.56 69.01 1.69 69.03 2.26 C 68.50 5.73 67.80 9.19 67.59 12.70 C 68.22 10.42 68.91 8.15 69.34 5.82 C 70.19 9.71 69.34 13.56 67.95 17.17 L 67.82 17.57 C 67.44 18.54 67.07 19.51 66.69 20.48 C 66.51 16.59 65.74 12.76 65.05 8.94 C 64.30 9.09 62.79 9.39 62.03 9.54 C 62.82 13.28 63.60 17.03 64.59 20.73 C 63.88 21.05 62.46 21.68 61.75 22.00 C 61.55 21.42 61.14 20.25 60.94 19.67 C 61.10 17.43 57.89 16.68 58.78 19.46 L 58.02 19.33 C 57.57 19.31 56.66 19.27 56.21 19.24 C 56.14 17.23 56.00 15.22 55.96 13.21 L 56.11 12.42 C 56.12 12.01 56.14 11.19 56.14 10.78 C 56.07 10.29 55.92 9.31 55.84 8.81 C 55.77 8.47 55.63 7.79 55.56 7.45 L 56.06 7.50 C 56.61 7.55 57.16 7.60 57.71 7.65 C 60.24 7.91 62.78 7.94 65.32 7.92 C 65.41 5.86 65.47 3.80 65.66 1.74 C 65.76 1.31 65.94 0.44 66.04 0.00 M 59.99 11.49 C 60.77 14.21 61.88 16.82 63.09 19.37 C 62.46 16.59 61.43 13.94 59.99 11.49 Z" />
<path fill="#342f2b" opacity="1.00" d=" M 122.05 0.00 L 124.91 0.00 C 124.89 0.57 124.86 1.70 124.84 2.27 C 124.39 5.73 123.78 9.19 123.60 12.68 C 124.25 10.39 124.95 8.12 125.43 5.78 C 125.66 7.05 126.11 9.60 126.34 10.87 C 125.75 12.42 125.04 13.92 124.28 15.39 C 124.04 15.73 123.54 16.40 123.29 16.74 C 122.36 14.20 121.47 11.64 120.59 9.08 C 119.99 9.19 118.78 9.40 118.18 9.51 C 118.79 12.97 119.45 16.42 120.06 19.87 C 119.57 20.27 118.59 21.06 118.10 21.46 C 117.33 19.69 115.61 18.32 113.63 18.30 C 113.27 18.29 112.53 18.27 112.16 18.26 C 112.11 16.58 112.07 14.90 112.03 13.22 L 112.16 12.40 C 112.16 12.00 112.16 11.18 112.16 10.78 C 112.08 10.29 111.92 9.31 111.84 8.81 C 111.77 8.47 111.62 7.79 111.55 7.45 L 112.05 7.50 C 112.60 7.55 113.15 7.60 113.71 7.65 C 116.23 7.91 118.78 7.94 121.32 7.92 C 121.41 5.86 121.47 3.80 121.66 1.74 C 121.76 1.30 121.95 0.43 122.05 0.00 M 115.99 11.49 C 116.77 14.21 117.88 16.82 119.09 19.37 C 118.45 16.59 117.43 13.94 115.99 11.49 Z" />
<path fill="#342f2b" opacity="1.00" d=" M 178.04 0.00 L 180.94 0.00 C 180.96 0.56 181.00 1.69 181.03 2.26 C 180.49 5.73 179.80 9.19 179.59 12.70 C 180.22 10.42 180.91 8.15 181.34 5.82 C 182.18 9.71 181.34 13.55 179.97 17.17 L 179.83 17.57 C 179.44 18.58 179.04 19.59 178.63 20.60 C 178.52 16.67 177.75 12.80 177.07 8.94 C 176.31 9.09 174.80 9.39 174.04 9.54 C 174.83 13.31 175.57 17.10 176.55 20.83 C 175.85 21.10 174.44 21.64 173.74 21.92 C 173.54 21.35 173.14 20.21 172.94 19.64 C 173.08 17.40 169.88 16.69 170.77 19.46 L 170.02 19.33 C 169.56 19.31 168.66 19.27 168.20 19.25 C 168.13 17.23 168.00 15.23 167.96 13.21 L 168.11 12.42 C 168.12 12.01 168.14 11.19 168.15 10.78 C 168.07 10.29 167.92 9.31 167.84 8.81 C 167.77 8.47 167.63 7.79 167.56 7.45 L 168.06 7.50 C 168.61 7.55 169.15 7.60 169.71 7.65 C 172.23 7.91 174.78 7.94 177.32 7.92 C 177.41 5.86 177.47 3.80 177.66 1.74 C 177.76 1.31 177.94 0.44 178.04 0.00 M 171.99 11.49 C 172.77 14.21 173.88 16.82 175.09 19.37 C 174.44 16.59 173.43 13.94 171.99 11.49 Z" />
</g>
<g id="#437acaff">
<path fill="#437aca" opacity="1.00" d=" M 90.46 0.00 L 92.10 0.00 C 92.58 1.96 92.99 3.94 93.42 5.91 C 89.25 8.14 85.90 11.50 83.05 15.24 C 81.78 9.26 86.42 6.01 90.80 3.61 C 90.69 2.41 90.58 1.20 90.46 0.00 Z" />
<path fill="#437aca" opacity="1.00" d=" M 202.46 0.00 L 204.10 0.00 C 204.58 1.96 204.99 3.94 205.42 5.91 C 201.25 8.14 197.90 11.50 195.05 15.24 C 193.78 9.26 198.42 6.01 202.80 3.61 C 202.69 2.41 202.57 1.20 202.46 0.00 Z" />
</g>
<g id="#298ed7ff">
<path fill="#298ed7" opacity="1.00" d=" M 97.39 0.00 L 99.62 0.00 C 98.89 1.18 98.67 2.47 98.95 3.87 L 98.95 4.61 C 98.96 6.33 98.97 8.05 98.98 9.77 C 98.70 10.99 99.66 12.31 100.99 12.03 C 100.38 13.23 99.80 14.44 99.21 15.64 C 98.22 16.91 98.90 18.98 100.45 19.40 C 100.16 20.66 99.90 21.92 99.66 23.18 C 99.62 23.60 99.53 24.43 99.48 24.84 L 99.44 25.58 C 99.42 26.18 99.38 27.36 99.35 27.95 C 99.31 28.23 99.23 28.79 99.19 29.07 C 98.78 29.49 97.94 30.34 97.53 30.77 C 97.04 20.54 95.75 10.20 97.39 0.00 Z" />
<path fill="#298ed7" opacity="1.00" d=" M 209.39 0.00 L 211.62 0.00 C 210.89 1.18 210.67 2.47 210.95 3.87 L 210.95 4.61 C 210.96 6.33 210.97 8.05 210.98 9.77 C 210.69 10.99 211.66 12.31 212.99 12.03 C 212.38 13.23 211.80 14.44 211.21 15.64 C 210.22 16.91 210.90 18.98 212.45 19.40 C 212.16 20.66 211.90 21.92 211.67 23.18 C 211.62 23.60 211.53 24.43 211.48 24.84 L 211.44 25.58 C 211.42 26.18 211.38 27.36 211.35 27.95 C 211.31 28.23 211.23 28.79 211.19 29.07 C 210.78 29.49 209.94 30.34 209.53 30.77 C 209.04 20.54 207.75 10.20 209.39 0.00 Z" />
</g>
<g id="#5c6268ff">
<path fill="#5c6268" opacity="1.00" d=" M 99.62 0.00 L 101.19 0.00 C 100.90 1.52 100.01 2.79 98.95 3.87 C 98.67 2.47 98.89 1.18 99.62 0.00 Z" />
<path fill="#5c6268" opacity="1.00" d=" M 211.62 0.00 L 213.19 0.00 C 212.90 1.52 212.01 2.79 210.95 3.87 C 210.67 2.47 210.89 1.18 211.62 0.00 Z" />
</g>
<g id="#268dd8ff">
<path fill="#268dd8" opacity="1.00" d=" M 124.91 0.00 L 126.17 0.00 C 129.63 7.70 128.44 16.40 124.43 23.66 C 124.47 22.84 124.57 21.21 124.61 20.39 C 124.80 18.14 125.20 15.91 125.56 13.68 C 125.24 14.11 124.60 14.97 124.28 15.39 C 125.04 13.92 125.75 12.42 126.34 10.87 C 126.11 9.60 125.66 7.05 125.43 5.78 C 125.23 4.61 125.03 3.44 124.84 2.27 C 124.86 1.70 124.89 0.57 124.91 0.00 Z" />
</g>
<g id="#3c6cbffe">
<path fill="#3c6cbf" opacity="1.00" d=" M 126.17 0.00 L 138.33 0.00 C 137.74 0.56 136.56 1.68 135.97 2.24 C 133.53 2.20 131.08 2.16 128.63 2.26 C 131.23 3.25 133.78 4.60 136.58 4.95 C 138.45 3.58 139.83 1.67 141.42 0.00 L 149.28 0.00 C 146.77 3.02 143.54 5.27 139.93 6.78 C 139.77 9.60 139.78 12.43 139.81 15.26 C 141.49 10.23 145.49 6.74 150.49 5.15 C 150.09 3.44 149.69 1.72 149.32 0.00 L 153.38 0.00 C 151.72 10.29 153.02 20.70 153.65 31.02 L 153.65 31.70 C 153.59 39.80 152.39 47.96 153.83 56.00 L 124.80 56.00 L 123.93 55.43 C 123.23 53.62 122.69 51.75 122.18 49.88 C 118.68 50.02 115.17 49.96 111.67 49.98 L 111.68 49.39 C 111.83 42.17 111.72 34.95 111.61 27.72 L 111.66 26.96 C 111.84 24.24 112.00 21.51 112.14 18.78 C 112.92 20.36 114.24 21.63 115.87 22.31 C 114.74 22.76 113.60 23.22 112.48 23.70 C 114.91 24.19 117.37 24.65 119.85 24.84 C 119.56 24.03 118.98 22.41 118.69 21.60 C 120.66 21.18 122.64 20.79 124.61 20.39 C 124.57 21.21 124.47 22.84 124.43 23.66 C 128.44 16.40 129.63 7.70 126.17 0.00 M 137.54 15.27 C 136.62 16.41 138.58 17.87 139.46 16.73 C 140.38 15.59 138.41 14.13 137.54 15.27 M 122.14 22.11 C 120.82 22.80 120.81 23.47 122.11 24.14 C 123.43 23.46 123.44 22.78 122.14 22.11 M 142.17 26.17 C 141.65 27.80 142.20 28.35 143.83 27.83 C 144.35 26.20 143.80 25.65 142.17 26.17 M 128.69 31.05 C 129.55 32.62 130.40 34.19 131.23 35.77 C 132.93 35.87 136.32 36.09 138.02 36.19 C 137.56 39.99 134.99 45.01 139.73 46.78 C 139.20 47.62 138.66 48.46 138.11 49.29 C 136.86 48.08 135.63 46.83 134.48 45.52 C 133.14 46.33 131.84 47.19 130.57 48.10 C 133.15 49.61 135.71 51.20 137.85 53.31 C 138.61 51.40 139.46 49.53 140.38 47.70 C 140.72 48.63 141.38 50.49 141.71 51.43 C 142.30 50.25 142.97 49.10 143.43 47.86 C 141.77 44.76 139.40 41.98 139.16 38.23 C 141.49 39.00 143.82 39.77 146.17 40.48 C 145.46 41.89 144.73 43.29 144.01 44.69 C 146.36 44.54 148.71 44.51 151.06 44.51 C 148.47 42.58 146.45 40.07 144.70 37.38 C 139.28 35.49 134.34 32.37 128.69 31.05 M 113.53 43.58 C 113.39 45.05 113.25 46.53 113.11 48.00 C 114.55 47.95 115.98 47.89 117.41 47.82 C 116.19 46.34 114.90 44.92 113.53 43.58 Z" />
</g>
<g id="#4476cbff">
<path fill="#4476cb" opacity="1.00" d=" M 138.33 0.00 L 141.42 0.00 C 139.83 1.67 138.45 3.58 136.58 4.95 C 133.78 4.60 131.23 3.25 128.63 2.26 C 131.08 2.16 133.53 2.20 135.97 2.24 C 136.56 1.68 137.74 0.56 138.33 0.00 Z" />
</g>
<g id="#457bcbff">
<path fill="#457bcb" opacity="1.00" d=" M 149.28 0.00 L 149.32 0.00 C 149.69 1.72 150.09 3.44 150.49 5.15 C 145.49 6.74 141.49 10.23 139.81 15.26 C 139.78 12.43 139.77 9.60 139.93 6.78 C 143.54 5.27 146.77 3.02 149.28 0.00 Z" />
</g>
<g id="#278ed8ff">
<path fill="#278ed8" opacity="1.00" d=" M 153.38 0.00 L 155.18 0.00 C 155.22 0.60 155.28 1.79 155.31 2.39 C 155.37 3.19 155.43 3.99 155.50 4.79 C 155.67 6.63 155.93 8.46 156.31 10.27 C 156.51 10.65 156.92 11.40 157.13 11.77 C 156.32 15.53 155.98 19.36 155.63 23.18 C 155.62 23.60 155.60 24.43 155.59 24.85 L 155.61 25.56 C 155.74 26.16 155.99 27.38 156.12 27.98 C 155.73 28.49 154.97 29.51 154.58 30.02 C 154.35 30.27 153.88 30.77 153.65 31.02 C 153.02 20.70 151.72 10.29 153.38 0.00 Z" />
</g>
<g id="#7da960ff">
<path fill="#7da960" opacity="1.00" d=" M 218.51 0.00 L 224.00 0.00 L 224.00 8.16 C 222.54 9.23 221.05 10.25 219.56 11.27 C 219.90 8.81 220.32 6.36 220.77 3.92 C 219.92 4.59 219.08 5.27 218.24 5.94 L 218.36 4.90 C 218.48 3.68 218.57 2.46 218.58 1.23 C 218.57 0.92 218.53 0.31 218.51 0.00 Z" />
</g>
<g id="#86a0b1ff">
<path fill="#86a0b1" opacity="1.00" d=" M 16.27 4.45 C 13.99 4.66 13.39 1.92 15.26 0.86 C 15.46 1.30 15.86 2.19 16.06 2.63 C 16.11 3.09 16.22 3.99 16.27 4.45 Z" />
<path fill="#86a0b1" opacity="1.00" d=" M 98.98 9.77 C 99.36 9.76 100.12 9.74 100.50 9.73 C 100.70 10.14 101.11 10.98 101.31 11.39 L 100.99 12.03 C 99.66 12.31 98.70 10.99 98.98 9.77 Z" />
<path fill="#86a0b1" opacity="1.00" d=" M 210.98 9.77 C 211.36 9.76 212.12 9.74 212.50 9.73 C 212.70 10.14 213.11 10.98 213.31 11.39 L 212.99 12.03 C 211.66 12.31 210.69 10.99 210.98 9.77 Z" />
<path fill="#86a0b1" opacity="1.00" d=" M 100.45 19.40 C 98.90 18.98 98.22 16.91 99.21 15.64 C 100.78 16.14 101.03 18.07 100.45 19.40 Z" />
<path fill="#86a0b1" opacity="1.00" d=" M 212.45 19.40 C 210.90 18.98 210.22 16.91 211.21 15.64 C 212.78 16.14 213.03 18.07 212.45 19.40 Z" />
<path fill="#86a0b1" opacity="1.00" d=" M 42.54 21.21 L 43.11 21.65 C 43.23 22.08 43.46 22.94 43.58 23.37 C 43.52 23.77 43.41 24.57 43.35 24.96 L 42.83 25.45 C 42.33 24.53 41.94 23.56 41.67 22.55 C 41.89 22.21 42.32 21.54 42.54 21.21 Z" />
<path fill="#86a0b1" opacity="1.00" d=" M 155.63 23.18 L 156.24 22.70 C 156.55 22.99 157.15 23.57 157.45 23.86 L 157.33 24.59 C 156.89 24.66 156.02 24.79 155.59 24.85 C 155.60 24.43 155.62 23.60 155.63 23.18 Z" />
<path fill="#86a0b1" opacity="1.00" d=" M 154.58 30.02 C 154.89 30.66 155.50 31.92 155.80 32.56 C 155.48 32.63 154.82 32.77 154.49 32.84 C 154.28 32.55 153.86 31.99 153.65 31.70 L 153.65 31.02 C 153.88 30.77 154.35 30.27 154.58 30.02 Z" />
<path fill="#86a0b1" opacity="1.00" d=" M 154.21 50.33 C 154.66 50.44 155.55 50.64 156.00 50.74 L 155.96 51.56 C 155.07 53.03 153.18 51.62 154.21 50.33 Z" />
</g>
<g id="#709e5cff">
<path fill="#709e5c" opacity="1.00" d=" M 3.75 3.79 C 5.75 3.31 7.76 2.81 9.75 2.29 C 9.52 4.11 9.41 5.93 9.28 7.75 C 6.94 7.94 4.61 8.13 2.26 8.09 C 2.76 6.65 3.25 5.22 3.75 3.79 Z" />
<path fill="#709e5c" opacity="1.00" d=" M 57.71 7.65 C 59.65 4.84 62.47 2.90 65.66 1.74 C 65.47 3.80 65.41 5.86 65.32 7.92 C 62.78 7.94 60.24 7.91 57.71 7.65 Z" />
<path fill="#709e5c" opacity="1.00" d=" M 113.71 7.65 C 115.65 4.84 118.47 2.90 121.66 1.74 C 121.47 3.80 121.41 5.86 121.32 7.92 C 118.78 7.94 116.23 7.91 113.71 7.65 Z" />
<path fill="#709e5c" opacity="1.00" d=" M 169.71 7.65 C 171.65 4.84 174.47 2.90 177.66 1.74 C 177.47 3.80 177.41 5.86 177.32 7.92 C 174.78 7.94 172.23 7.91 169.71 7.65 Z" />
</g>
<g id="#7392b4ff">
<path fill="#7392b4" opacity="1.00" d=" M 72.28 4.85 C 70.27 5.10 70.25 2.58 71.13 1.41 C 72.02 2.41 72.40 3.55 72.28 4.85 Z" />
<path fill="#7392b4" opacity="1.00" d=" M 184.27 4.85 C 182.27 5.10 182.26 2.58 183.13 1.41 C 184.03 2.41 184.41 3.55 184.27 4.85 Z" />
</g>
<g id="#645a4bff">
<path fill="#645a4b" opacity="1.00" d=" M 11.59 12.73 C 11.70 9.19 12.42 5.72 13.00 2.25 C 13.11 3.44 13.19 4.64 13.26 5.84 C 12.88 8.18 12.23 10.45 11.59 12.73 Z" />
<path fill="#645a4b" opacity="1.00" d=" M 67.59 12.70 C 67.80 9.19 68.50 5.73 69.03 2.26 C 69.15 3.44 69.25 4.63 69.34 5.82 C 68.91 8.15 68.22 10.42 67.59 12.70 Z" />
<path fill="#645a4b" opacity="1.00" d=" M 123.60 12.68 C 123.78 9.19 124.39 5.73 124.84 2.27 C 125.03 3.44 125.23 4.61 125.43 5.78 C 124.95 8.12 124.25 10.39 123.60 12.68 Z" />
<path fill="#645a4b" opacity="1.00" d=" M 179.59 12.70 C 179.80 9.19 180.49 5.73 181.03 2.26 C 181.14 3.44 181.25 4.63 181.34 5.82 C 180.91 8.15 180.22 10.42 179.59 12.70 Z" />
</g>
<g id="#699960fe">
<path fill="#699960" opacity="1.00" d=" M 54.86 2.97 C 57.19 2.60 56.98 6.18 56.06 7.50 L 55.56 7.45 C 55.23 6.03 53.98 4.39 54.86 2.97 Z" />
<path fill="#699960" opacity="1.00" d=" M 110.86 2.97 C 113.19 2.60 112.98 6.18 112.05 7.50 L 111.55 7.45 C 111.23 6.03 109.98 4.39 110.86 2.97 Z" />
<path fill="#699960" opacity="1.00" d=" M 166.86 2.97 C 169.19 2.60 168.98 6.18 168.06 7.50 L 167.56 7.45 C 167.23 6.03 165.98 4.39 166.86 2.97 Z" />
</g>
<g id="#5c8260ff">
<path fill="#5c8260" opacity="1.00" d=" M 0.00 4.35 C 1.28 5.05 2.20 6.97 0.72 8.01 L 0.00 7.96 L 0.00 4.35 Z" />
</g>
<g id="#322f2cff">
<path fill="#322f2c" opacity="1.00" d=" M 43.15 4.92 C 45.56 4.83 47.97 4.81 50.38 4.80 L 50.27 5.89 C 49.76 11.55 48.10 16.97 46.63 22.43 C 46.02 22.55 44.80 22.79 44.19 22.91 L 43.58 23.37 C 43.46 22.94 43.23 22.08 43.11 21.65 C 43.25 21.09 43.52 19.96 43.66 19.39 C 44.00 18.24 44.17 17.05 44.21 15.86 C 44.32 14.66 44.45 13.46 44.58 12.26 L 44.67 11.35 C 47.14 11.79 46.57 8.76 44.38 9.56 C 43.90 9.39 42.95 9.04 42.47 8.86 C 42.51 8.51 42.60 7.82 42.65 7.47 C 42.77 6.83 43.02 5.56 43.15 4.92 M 43.72 7.16 C 45.50 8.13 47.26 9.11 49.02 10.12 C 49.01 9.34 48.98 7.77 48.97 6.98 C 47.22 7.04 45.47 7.10 43.72 7.16 Z" />
<path fill="#322f2c" opacity="1.00" d=" M 98.95 4.61 C 101.43 4.67 103.90 4.77 106.37 4.90 L 106.27 5.94 C 105.76 11.53 104.10 16.89 102.69 22.28 C 102.08 22.39 100.87 22.60 100.27 22.71 L 99.66 23.18 C 99.90 21.92 100.16 20.66 100.45 19.40 C 101.03 18.07 100.78 16.14 99.21 15.64 C 99.80 14.44 100.38 13.23 100.99 12.03 L 101.31 11.39 C 103.79 11.15 102.35 8.43 100.50 9.73 C 100.12 9.74 99.36 9.76 98.98 9.77 C 98.97 8.05 98.96 6.33 98.95 4.61 M 99.72 7.16 C 101.50 8.13 103.26 9.11 105.02 10.12 C 105.01 9.34 104.98 7.77 104.97 6.98 C 103.22 7.04 101.47 7.10 99.72 7.16 Z" />
<path fill="#322f2c" opacity="1.00" d=" M 155.50 4.79 C 157.79 4.77 160.08 4.81 162.38 4.86 L 162.27 5.91 C 161.76 11.51 160.13 16.87 158.68 22.26 C 158.07 22.37 156.85 22.59 156.24 22.70 L 155.63 23.18 C 155.98 19.36 156.32 15.53 157.13 11.77 C 159.22 11.00 157.68 8.10 156.31 10.27 C 155.93 8.46 155.67 6.63 155.50 4.79 M 155.72 7.16 C 157.50 8.13 159.26 9.11 161.02 10.12 C 161.01 9.34 160.98 7.77 160.97 6.98 C 159.22 7.04 157.47 7.10 155.72 7.16 Z" />
<path fill="#322f2c" opacity="1.00" d=" M 210.95 4.61 C 213.42 4.67 215.89 4.77 218.36 4.90 L 218.24 5.94 C 217.74 11.53 216.11 16.89 214.69 22.28 C 214.08 22.39 212.87 22.60 212.27 22.71 L 211.67 23.18 C 211.90 21.92 212.16 20.66 212.45 19.40 C 213.03 18.07 212.78 16.14 211.21 15.64 C 211.80 14.44 212.38 13.23 212.99 12.03 L 213.31 11.39 C 215.79 11.15 214.35 8.43 212.50 9.73 C 212.12 9.74 211.36 9.76 210.98 9.77 C 210.97 8.05 210.96 6.33 210.95 4.61 M 211.72 7.16 C 213.49 8.13 215.26 9.11 217.02 10.12 C 217.01 9.34 216.98 7.77 216.97 6.98 C 215.22 7.04 213.47 7.10 211.72 7.16 Z" />
</g>
<g id="#4f6048ff">
<path fill="#4f6048" opacity="1.00" d=" M 50.27 5.89 C 51.11 5.23 51.95 4.58 52.78 3.92 C 52.32 6.28 51.90 8.64 51.55 11.01 C 51.28 12.98 50.90 14.94 50.68 16.92 C 50.43 19.10 50.42 21.30 50.17 23.49 L 50.03 22.86 C 50.57 19.89 46.17 19.68 48.43 22.58 C 47.95 22.73 46.98 23.05 46.50 23.20 L 46.63 22.43 C 48.10 16.97 49.76 11.55 50.27 5.89 Z" />
<path fill="#4f6048" opacity="1.00" d=" M 106.27 5.94 C 107.11 5.26 107.94 4.59 108.78 3.91 C 108.32 6.27 107.90 8.63 107.56 11.01 C 107.27 12.97 106.91 14.92 106.68 16.89 C 106.42 19.08 106.42 21.28 106.19 23.47 L 106.04 22.83 C 106.59 19.88 102.15 19.63 104.44 22.52 C 103.97 22.66 103.02 22.93 102.55 23.07 L 102.69 22.28 C 104.10 16.89 105.76 11.53 106.27 5.94 Z" />
<path fill="#4f6048" opacity="1.00" d=" M 162.27 5.91 C 163.11 5.25 163.94 4.58 164.78 3.92 C 164.32 6.27 163.89 8.64 163.55 11.01 C 163.28 12.98 162.90 14.94 162.68 16.92 C 162.43 19.09 162.42 21.29 162.20 23.47 L 162.05 22.83 C 162.60 19.88 158.15 19.62 160.45 22.51 C 159.97 22.64 159.02 22.91 158.55 23.04 L 158.68 22.26 C 160.13 16.87 161.76 11.51 162.27 5.91 Z" />
<path fill="#4f6048" opacity="1.00" d=" M 218.24 5.94 C 219.08 5.27 219.92 4.59 220.77 3.92 C 220.32 6.36 219.90 8.81 219.56 11.27 C 219.29 13.16 218.91 15.04 218.69 16.95 C 218.43 19.11 218.42 21.30 218.19 23.46 L 218.04 22.83 C 218.59 19.87 214.15 19.63 216.44 22.52 C 215.97 22.66 215.02 22.93 214.55 23.07 L 214.69 22.28 C 216.11 16.89 217.74 11.53 218.24 5.94 Z" />
</g>
<g id="#268ed9ff">
<path fill="#268ed9" opacity="1.00" d=" M 38.92 7.28 C 39.97 6.78 41.06 6.41 42.19 6.15 C 42.31 6.48 42.54 7.14 42.65 7.47 C 42.60 7.82 42.51 8.51 42.47 8.86 C 41.53 8.58 40.59 8.29 39.65 8.00 L 39.13 7.55 L 38.92 7.28 Z" />
<path fill="#268ed9" opacity="1.00" d=" M 56.21 19.24 C 56.66 19.27 57.57 19.31 58.02 19.33 C 57.71 19.84 57.08 20.85 56.77 21.35 L 56.14 20.93 C 56.16 20.51 56.19 19.67 56.21 19.24 Z" />
<path fill="#268ed9" opacity="1.00" d=" M 168.20 19.25 C 168.66 19.27 169.56 19.31 170.02 19.33 C 169.70 19.84 169.08 20.85 168.76 21.35 L 168.14 20.92 C 168.15 20.51 168.19 19.67 168.20 19.25 Z" />
<path fill="#268ed9" opacity="1.00" d=" M 0.00 20.55 C 0.45 20.46 1.34 20.27 1.79 20.17 C 1.51 20.73 0.95 21.86 0.68 22.43 L 0.00 22.19 L 0.00 20.55 Z" />
<path fill="#268ed9" opacity="1.00" d=" M 142.17 26.17 C 143.80 25.65 144.35 26.20 143.83 27.83 C 142.20 28.35 141.65 27.80 142.17 26.17 Z" />
<path fill="#268ed9" opacity="1.00" d=" M 86.17 27.17 C 87.80 26.65 88.35 27.20 87.83 28.83 C 86.20 29.35 85.65 28.80 86.17 27.17 Z" />
<path fill="#268ed9" opacity="1.00" d=" M 198.17 27.17 C 199.79 26.65 200.35 27.20 199.83 28.83 C 198.20 29.35 197.65 28.80 198.17 27.17 Z" />
<path fill="#268ed9" opacity="1.00" d=" M 42.06 52.89 C 42.65 52.57 43.81 51.92 44.40 51.59 C 43.95 53.08 43.46 54.55 42.89 56.00 L 40.28 56.00 C 40.89 54.97 41.48 53.94 42.06 52.89 Z" />
<path fill="#268ed9" opacity="1.00" d=" M 97.58 53.12 C 98.21 52.93 99.45 52.57 100.07 52.39 C 100.06 53.67 99.82 55.01 98.94 56.00 L 98.32 56.00 C 98.14 55.28 97.77 53.84 97.58 53.12 Z" />
<path fill="#268ed9" opacity="1.00" d=" M 209.58 53.12 C 210.21 52.93 211.45 52.57 212.07 52.39 C 212.05 53.67 211.82 55.01 210.94 56.00 L 210.32 56.00 C 210.14 55.28 209.77 53.84 209.58 53.12 Z" />
</g>
<g id="#565249ff">
<path fill="#565249" opacity="1.00" d=" M 43.72 7.16 C 45.47 7.10 47.22 7.04 48.97 6.98 C 48.98 7.77 49.01 9.34 49.02 10.12 C 47.26 9.11 45.50 8.13 43.72 7.16 Z" />
<path fill="#565249" opacity="1.00" d=" M 99.72 7.16 C 101.47 7.10 103.22 7.04 104.97 6.98 C 104.98 7.77 105.01 9.34 105.02 10.12 C 103.26 9.11 101.50 8.13 99.72 7.16 Z" />
<path fill="#565249" opacity="1.00" d=" M 155.72 7.16 C 157.47 7.10 159.22 7.04 160.97 6.98 C 160.98 7.77 161.01 9.34 161.02 10.12 C 159.26 9.11 157.50 8.13 155.72 7.16 Z" />
<path fill="#565249" opacity="1.00" d=" M 211.72 7.16 C 213.47 7.10 215.22 7.04 216.97 6.98 C 216.98 7.77 217.01 9.34 217.02 10.12 C 215.26 9.11 213.49 8.13 211.72 7.16 Z" />
<path fill="#565249" opacity="1.00" d=" M 44.38 9.56 C 46.57 8.76 47.14 11.79 44.67 11.35 C 44.60 10.90 44.45 10.01 44.38 9.56 Z" />
<path fill="#565249" opacity="1.00" d=" M 100.50 9.73 C 102.35 8.43 103.79 11.15 101.31 11.39 C 101.11 10.98 100.70 10.14 100.50 9.73 Z" />
<path fill="#565249" opacity="1.00" d=" M 156.31 10.27 C 157.68 8.10 159.22 11.00 157.13 11.77 C 156.92 11.40 156.51 10.65 156.31 10.27 Z" />
<path fill="#565249" opacity="1.00" d=" M 212.50 9.73 C 214.35 8.43 215.79 11.15 213.31 11.39 C 213.11 10.98 212.70 10.14 212.50 9.73 Z" />
<path fill="#565249" opacity="1.00" d=" M 3.99 11.49 C 5.43 13.94 6.47 16.59 7.09 19.37 C 5.88 16.82 4.77 14.21 3.99 11.49 Z" />
<path fill="#565249" opacity="1.00" d=" M 59.99 11.49 C 61.43 13.94 62.46 16.59 63.09 19.37 C 61.88 16.82 60.77 14.21 59.99 11.49 Z" />
<path fill="#565249" opacity="1.00" d=" M 115.99 11.49 C 117.43 13.94 118.45 16.59 119.09 19.37 C 117.88 16.82 116.77 14.21 115.99 11.49 Z" />
<path fill="#565249" opacity="1.00" d=" M 171.99 11.49 C 173.43 13.94 174.44 16.59 175.09 19.37 C 173.88 16.82 172.77 14.21 171.99 11.49 Z" />
<path fill="#565249" opacity="1.00" d=" M 2.42 18.99 C 3.55 15.89 5.55 19.08 4.81 20.95 C 4.42 20.91 3.65 20.83 3.26 20.79 C 3.05 20.34 2.63 19.44 2.42 18.99 Z" />
<path fill="#565249" opacity="1.00" d=" M 58.78 19.46 C 57.89 16.68 61.10 17.43 60.94 19.67 C 60.58 19.74 59.85 19.88 59.49 19.95 L 58.78 19.46 Z" />
<path fill="#565249" opacity="1.00" d=" M 170.77 19.46 C 169.88 16.69 173.08 17.40 172.94 19.64 C 172.58 19.71 171.85 19.87 171.48 19.94 L 170.77 19.46 Z" />
<path fill="#565249" opacity="1.00" d=" M 43.25 27.67 C 44.28 28.18 45.31 28.68 46.36 29.17 C 46.65 30.19 46.94 31.20 47.24 32.21 C 46.14 32.29 45.05 32.38 43.96 32.48 C 43.85 31.32 43.68 30.17 43.44 29.04 L 43.25 27.67 Z" />
</g>
<g id="#7b9eb5ff">
<path fill="#7b9eb5" opacity="1.00" d=" M 39.65 8.00 C 40.59 8.29 41.53 8.58 42.47 8.86 C 42.95 9.04 43.90 9.39 44.38 9.56 C 44.45 10.01 44.60 10.90 44.67 11.35 L 44.58 12.26 C 43.73 11.54 42.88 10.80 42.04 10.08 C 41.24 9.38 40.45 8.69 39.65 8.00 Z" />
</g>
<g id="#6c604cff">
<path fill="#6c604c" opacity="1.00" d=" M 6.24 9.50 C 6.94 9.36 8.35 9.08 9.06 8.94 C 9.67 12.66 10.25 16.38 10.54 20.14 L 9.70 20.70 C 9.29 20.98 8.48 21.55 8.07 21.84 C 7.50 17.72 6.88 13.61 6.24 9.50 Z" />
<path fill="#6c604c" opacity="1.00" d=" M 62.03 9.54 C 62.79 9.39 64.30 9.09 65.05 8.94 C 65.74 12.76 66.51 16.59 66.69 20.48 L 66.38 21.37 C 65.93 21.21 65.03 20.89 64.59 20.73 C 63.60 17.03 62.82 13.28 62.03 9.54 Z" />
<path fill="#6c604c" opacity="1.00" d=" M 174.04 9.54 C 174.80 9.39 176.31 9.09 177.07 8.94 C 177.75 12.80 178.52 16.67 178.63 20.60 L 178.22 21.70 C 177.80 21.48 176.97 21.04 176.55 20.83 C 175.57 17.10 174.83 13.31 174.04 9.54 Z" />
</g>
<g id="#6b995aff">
<path fill="#6b995a" opacity="1.00" d=" M 51.55 11.01 C 52.98 10.27 54.41 9.54 55.84 8.81 C 55.92 9.31 56.07 10.29 56.14 10.78 C 53.19 8.50 52.89 14.00 56.11 12.42 L 55.96 13.21 C 54.22 14.47 52.43 15.67 50.68 16.92 C 50.90 14.94 51.28 12.98 51.55 11.01 Z" />
<path fill="#6b995a" opacity="1.00" d=" M 107.56 11.01 C 108.98 10.28 110.41 9.54 111.84 8.81 C 111.92 9.31 112.08 10.29 112.16 10.78 C 109.16 8.52 108.95 14.02 112.16 12.40 L 112.03 13.22 C 110.26 14.47 108.46 15.66 106.68 16.89 C 106.91 14.92 107.27 12.97 107.56 11.01 Z" />
<path fill="#6b995a" opacity="1.00" d=" M 163.55 11.01 C 164.98 10.27 166.41 9.54 167.84 8.81 C 167.92 9.31 168.07 10.29 168.15 10.78 C 165.19 8.51 164.89 14.00 168.11 12.42 L 167.96 13.21 C 166.21 14.47 164.43 15.67 162.68 16.92 C 162.90 14.94 163.28 12.98 163.55 11.01 Z" />
<path fill="#6b995a" opacity="1.00" d=" M 219.56 11.27 C 221.05 10.25 222.54 9.23 224.00 8.16 L 224.00 10.78 C 221.01 8.45 220.81 14.19 224.00 12.39 L 224.00 12.95 C 222.25 14.31 220.46 15.61 218.69 16.95 C 218.91 15.04 219.29 13.16 219.56 11.27 Z" />
</g>
<g id="#6c5f4bff">
<path fill="#6c5f4b" opacity="1.00" d=" M 118.18 9.51 C 118.78 9.40 119.99 9.19 120.59 9.08 C 121.47 11.64 122.36 14.20 123.29 16.74 C 122.30 17.87 121.21 18.91 120.06 19.87 C 119.45 16.42 118.79 12.97 118.18 9.51 Z" />
</g>
<g id="#3490d2ff">
<path fill="#3490d2" opacity="1.00" d=" M 42.04 10.08 C 42.88 10.80 43.73 11.54 44.58 12.26 C 44.45 13.46 44.32 14.66 44.21 15.86 C 43.47 15.99 41.98 16.26 41.23 16.39 C 41.43 14.81 41.84 11.65 42.04 10.08 Z" />
</g>
<g id="#8db764ff">
<path fill="#8db764" opacity="1.00" d=" M 56.11 12.42 C 52.89 14.00 53.19 8.50 56.14 10.78 C 56.14 11.19 56.12 12.01 56.11 12.42 Z" />
<path fill="#8db764" opacity="1.00" d=" M 112.16 12.40 C 108.95 14.02 109.16 8.52 112.16 10.78 C 112.16 11.18 112.16 12.00 112.16 12.40 Z" />
<path fill="#8db764" opacity="1.00" d=" M 168.11 12.42 C 164.89 14.00 165.19 8.51 168.15 10.78 C 168.14 11.19 168.12 12.01 168.11 12.42 Z" />
<path fill="#8db764" opacity="1.00" d=" M 224.00 12.39 C 220.81 14.19 221.01 8.45 224.00 10.78 L 224.00 12.39 Z" />
</g>
<g id="#709fc2fe">
<path fill="#709fc2" opacity="1.00" d=" M 12.18 18.72 C 12.49 16.81 13.70 15.31 15.01 13.98 C 15.05 14.62 15.13 15.90 15.18 16.54 C 14.56 17.81 13.28 18.50 12.11 19.17 L 12.18 18.72 Z" />
</g>
<g id="#81ac5dff">
<path fill="#81ac5d" opacity="1.00" d=" M 50.68 16.92 C 52.43 15.67 54.22 14.47 55.96 13.21 C 56.00 15.22 56.14 17.23 56.21 19.24 C 56.19 19.67 56.16 20.51 56.14 20.93 C 56.06 22.94 55.89 24.96 55.71 26.97 C 54.94 25.69 54.20 24.40 53.45 23.12 C 52.32 23.46 51.20 23.81 50.08 24.16 L 50.17 23.49 C 50.42 21.30 50.43 19.10 50.68 16.92 Z" />
<path fill="#81ac5d" opacity="1.00" d=" M 106.68 16.89 C 108.46 15.66 110.26 14.47 112.03 13.22 C 112.07 14.90 112.11 16.58 112.16 18.26 L 112.14 18.78 C 112.00 21.51 111.84 24.24 111.66 26.96 C 110.92 25.69 110.19 24.41 109.46 23.12 C 108.34 23.46 107.22 23.80 106.11 24.15 L 106.19 23.47 C 106.42 21.28 106.42 19.08 106.68 16.89 Z" />
<path fill="#81ac5d" opacity="1.00" d=" M 162.68 16.92 C 164.43 15.67 166.21 14.47 167.96 13.21 C 168.00 15.23 168.13 17.23 168.20 19.25 C 168.19 19.67 168.15 20.51 168.14 20.92 C 168.06 22.94 167.89 24.95 167.70 26.96 C 166.94 25.69 166.20 24.41 165.45 23.13 C 164.34 23.46 163.23 23.80 162.13 24.15 L 162.20 23.47 C 162.42 21.29 162.43 19.09 162.68 16.92 Z" />
<path fill="#81ac5d" opacity="1.00" d=" M 218.69 16.95 C 220.46 15.61 222.25 14.31 224.00 12.95 L 224.00 27.70 C 223.28 26.11 222.50 24.55 221.73 22.99 C 220.52 23.36 219.31 23.74 218.11 24.14 L 218.19 23.46 C 218.42 21.30 218.43 19.11 218.69 16.95 Z" />
</g>
<g id="#7ca2beff">
<path fill="#7ca2be" opacity="1.00" d=" M 67.95 17.17 C 68.94 16.04 70.14 15.09 71.55 14.55 C 71.50 15.12 71.40 16.24 71.34 16.81 C 70.27 17.48 69.09 17.74 67.82 17.57 L 67.95 17.17 Z" />
<path fill="#7ca2be" opacity="1.00" d=" M 179.97 17.17 C 180.97 16.06 182.15 15.09 183.57 14.55 C 183.53 15.11 183.47 16.22 183.44 16.77 C 182.33 17.44 181.13 17.71 179.83 17.57 L 179.97 17.17 Z" />
</g>
<g id="#7fa1b9ff">
<path fill="#7fa1b9" opacity="1.00" d=" M 124.28 15.39 C 124.60 14.97 125.24 14.11 125.56 13.68 C 125.20 15.91 124.80 18.14 124.61 20.39 C 122.64 20.79 120.66 21.18 118.69 21.60 L 117.65 21.83 L 118.10 21.46 C 118.59 21.06 119.57 20.27 120.06 19.87 C 121.21 18.91 122.30 17.87 123.29 16.74 C 123.54 16.40 124.04 15.73 124.28 15.39 Z" />
</g>
<g id="#4478cbff">
<path fill="#4478cb" opacity="1.00" d=" M 137.54 15.27 C 138.41 14.13 140.38 15.59 139.46 16.73 C 138.58 17.87 136.62 16.41 137.54 15.27 Z" />
</g>
<g id="#86a0b0fe">
<path fill="#86a0b0" opacity="1.00" d=" M 41.23 16.39 C 41.98 16.26 43.47 15.99 44.21 15.86 C 44.17 17.05 44.00 18.24 43.66 19.39 C 42.70 18.75 41.78 18.02 41.14 17.05 L 41.23 16.39 Z" />
</g>
<g id="#2a8ad7ff">
<path fill="#2a8ad7" opacity="1.00" d=" M 12.11 19.17 C 13.28 18.50 14.56 17.81 15.18 16.54 C 15.34 19.50 15.46 22.47 15.10 25.43 C 14.05 24.72 13.02 23.98 12.06 23.15 C 13.32 23.02 13.91 22.39 13.85 21.24 C 12.99 19.73 11.41 21.55 11.59 22.69 L 11.26 22.35 C 10.87 21.94 10.09 21.11 9.70 20.70 L 10.54 20.14 C 10.93 19.90 11.72 19.41 12.11 19.17 Z" />
</g>
<g id="#2889d5ff">
<path fill="#2889d5" opacity="1.00" d=" M 42.54 21.21 C 41.98 19.85 41.46 18.48 41.14 17.05 C 41.78 18.02 42.70 18.75 43.66 19.39 C 43.52 19.96 43.25 21.09 43.11 21.65 L 42.54 21.21 Z" />
</g>
<g id="#3893d8ff">
<path fill="#3893d8" opacity="1.00" d=" M 67.82 17.57 C 69.09 17.74 70.27 17.48 71.34 16.81 C 71.13 19.36 70.93 21.93 70.49 24.46 C 69.23 23.54 67.98 22.62 66.75 21.66 L 66.38 21.37 L 66.69 20.48 C 67.07 19.51 67.44 18.54 67.82 17.57 Z" />
<path fill="#3893d8" opacity="1.00" d=" M 179.83 17.57 C 181.13 17.71 182.33 17.44 183.44 16.77 C 183.33 18.63 183.45 20.52 183.12 22.36 C 181.90 23.91 180.03 22.41 178.65 21.91 L 178.22 21.70 L 178.63 20.60 C 179.04 19.59 179.44 18.58 179.83 17.57 Z" />
</g>
<g id="#9cb3c7fe">
<path fill="#9cb3c7" opacity="1.00" d=" M 112.16 18.26 C 112.53 18.27 113.27 18.29 113.63 18.30 C 114.80 19.37 115.48 20.83 116.29 22.16 L 115.87 22.31 C 114.24 21.63 112.92 20.36 112.14 18.78 L 112.16 18.26 Z" />
<path fill="#9cb3c7" opacity="1.00" d=" M 58.02 19.33 L 58.78 19.46 L 59.49 19.95 C 59.61 20.95 59.85 21.92 60.20 22.86 L 59.71 23.08 C 58.67 22.61 57.69 22.03 56.77 21.35 C 57.08 20.85 57.71 19.84 58.02 19.33 Z" />
<path fill="#9cb3c7" opacity="1.00" d=" M 170.02 19.33 L 170.77 19.46 L 171.48 19.94 C 171.60 20.94 171.84 21.91 172.21 22.86 L 171.72 23.07 C 170.67 22.60 169.68 22.03 168.76 21.35 C 169.08 20.85 169.70 19.84 170.02 19.33 Z" />
</g>
<g id="#5688bafe">
<path fill="#5688ba" opacity="1.00" d=" M 113.63 18.30 C 115.61 18.32 117.33 19.69 118.10 21.46 L 117.65 21.83 C 117.31 21.91 116.63 22.08 116.29 22.16 C 115.48 20.83 114.80 19.37 113.63 18.30 Z" />
</g>
<g id="#9eb5caff">
<path fill="#9eb5ca" opacity="1.00" d=" M 1.79 20.17 C 1.95 19.87 2.26 19.28 2.42 18.99 C 2.63 19.44 3.05 20.34 3.26 20.79 C 3.50 21.75 3.80 22.69 4.18 23.60 L 3.51 23.39 C 2.56 23.08 1.62 22.76 0.68 22.43 C 0.95 21.86 1.51 20.73 1.79 20.17 Z" />
</g>
<g id="#4378caff">
<path fill="#4378ca" opacity="1.00" d=" M 21.85 18.96 C 24.26 19.38 26.66 19.81 29.08 20.20 C 28.62 22.40 28.17 24.60 27.77 26.80 C 25.35 27.41 22.94 28.05 20.51 28.64 C 22.62 27.28 24.77 26.01 26.93 24.73 C 26.92 24.11 26.91 22.87 26.90 22.26 C 25.20 21.19 23.51 20.09 21.85 18.96 Z" />
</g>
<g id="#adc2d9ff">
<path fill="#adc2d9" opacity="1.00" d=" M 11.59 22.69 C 11.41 21.55 12.99 19.73 13.85 21.24 C 13.91 22.39 13.32 23.02 12.06 23.15 L 11.59 22.69 Z" />
<path fill="#adc2d9" opacity="1.00" d=" M 43.58 23.37 L 44.19 22.91 C 44.49 23.20 45.08 23.77 45.38 24.05 L 45.26 24.78 C 44.78 24.83 43.83 24.92 43.35 24.96 C 43.41 24.57 43.52 23.77 43.58 23.37 Z" />
<path fill="#adc2d9" opacity="1.00" d=" M 99.66 23.18 L 100.27 22.71 C 100.56 23.00 101.14 23.59 101.43 23.88 L 101.28 24.62 C 100.83 24.67 99.93 24.78 99.48 24.84 C 99.53 24.43 99.62 23.60 99.66 23.18 Z" />
<path fill="#adc2d9" opacity="1.00" d=" M 211.67 23.18 L 212.27 22.71 C 212.56 23.00 213.14 23.59 213.43 23.88 L 213.28 24.62 C 212.83 24.67 211.93 24.78 211.48 24.84 C 211.53 24.43 211.62 23.60 211.67 23.18 Z" />
</g>
<g id="#4f7baeff">
<path fill="#4f7bae" opacity="1.00" d=" M 59.49 19.95 C 59.85 19.88 60.58 19.74 60.94 19.67 C 61.14 20.25 61.55 21.42 61.75 22.00 L 61.52 22.62 C 61.19 22.68 60.53 22.80 60.20 22.86 C 59.85 21.92 59.61 20.95 59.49 19.95 Z" />
<path fill="#4f7bae" opacity="1.00" d=" M 171.48 19.94 C 171.85 19.87 172.58 19.71 172.94 19.64 C 173.14 20.21 173.54 21.35 173.74 21.92 L 173.50 22.56 C 173.18 22.63 172.53 22.78 172.21 22.86 C 171.84 21.91 171.60 20.94 171.48 19.94 Z" />
<path fill="#4f7bae" opacity="1.00" d=" M 3.26 20.79 C 3.65 20.83 4.42 20.91 4.81 20.95 C 5.11 21.56 5.69 22.76 5.98 23.37 L 5.55 23.71 C 5.20 23.68 4.52 23.63 4.18 23.60 C 3.80 22.69 3.50 21.75 3.26 20.79 Z" />
</g>
<g id="#8ea7b9ff">
<path fill="#8ea7b9" opacity="1.00" d=" M 8.07 21.84 C 8.48 21.55 9.29 20.98 9.70 20.70 C 10.09 21.11 10.87 21.94 11.26 22.35 C 9.71 22.78 8.15 23.19 6.57 23.53 L 5.55 23.71 L 5.98 23.37 C 6.51 22.98 7.55 22.22 8.07 21.84 Z" />
</g>
<g id="#8ba4b6fe">
<path fill="#8ba4b6" opacity="1.00" d=" M 61.75 22.00 C 62.46 21.68 63.88 21.05 64.59 20.73 C 65.03 20.89 65.93 21.21 66.38 21.37 L 66.75 21.66 C 65.31 22.47 63.71 23.07 62.04 23.03 L 61.52 22.62 L 61.75 22.00 Z" />
<path fill="#8ba4b6" opacity="1.00" d=" M 173.74 21.92 C 174.44 21.64 175.85 21.10 176.55 20.83 C 176.97 21.04 177.80 21.48 178.22 21.70 L 178.65 21.91 C 177.21 22.61 175.64 23.22 174.00 23.04 L 173.50 22.56 L 173.74 21.92 Z" />
</g>
<g id="#65569cff">
<path fill="#65569c" opacity="1.00" d=" M 115.87 22.31 L 116.29 22.16 C 116.63 22.08 117.31 21.91 117.65 21.83 L 118.69 21.60 C 118.98 22.41 119.56 24.03 119.85 24.84 C 117.37 24.65 114.91 24.19 112.48 23.70 C 113.60 23.22 114.74 22.76 115.87 22.31 Z" />
<path fill="#65569c" opacity="1.00" d=" M 122.14 22.11 C 123.44 22.78 123.43 23.46 122.11 24.14 C 120.81 23.47 120.82 22.80 122.14 22.11 Z" />
<path fill="#65569c" opacity="1.00" d=" M 59.71 23.08 L 60.20 22.86 C 60.53 22.80 61.19 22.68 61.52 22.62 L 62.04 23.03 C 62.65 23.56 63.88 24.63 64.50 25.16 C 61.83 25.14 59.17 25.01 56.51 24.82 C 57.57 24.22 58.63 23.64 59.71 23.08 Z" />
<path fill="#65569c" opacity="1.00" d=" M 66.14 23.11 C 67.44 23.78 67.43 24.46 66.11 25.14 C 64.81 24.47 64.82 23.80 66.14 23.11 Z" />
<path fill="#65569c" opacity="1.00" d=" M 171.72 23.07 L 172.21 22.86 C 172.53 22.78 173.18 22.63 173.50 22.56 L 174.00 23.04 C 174.62 23.68 175.86 24.97 176.48 25.62 C 173.78 25.59 171.09 25.27 168.42 24.87 C 169.51 24.25 170.61 23.65 171.72 23.07 Z" />
<path fill="#65569c" opacity="1.00" d=" M 178.14 23.11 C 179.44 23.78 179.43 24.46 178.11 25.14 C 176.81 24.47 176.82 23.80 178.14 23.11 Z" />
<path fill="#65569c" opacity="1.00" d=" M 3.51 23.39 L 4.18 23.60 C 4.52 23.63 5.20 23.68 5.55 23.71 L 6.57 23.53 C 6.91 24.24 7.57 25.65 7.90 26.36 C 5.59 26.28 3.27 26.19 0.95 26.12 C 1.81 25.21 2.66 24.30 3.51 23.39 Z" />
<path fill="#65569c" opacity="1.00" d=" M 10.14 24.11 C 11.44 24.78 11.43 25.46 10.11 26.14 C 8.81 25.47 8.82 24.80 10.14 24.11 Z" />
</g>
<g id="#6d9a59ff">
<path fill="#6d9a59" opacity="1.00" d=" M 50.08 24.16 C 51.20 23.81 52.32 23.46 53.45 23.12 C 54.20 24.40 54.94 25.69 55.71 26.97 L 55.63 27.72 C 52.31 34.78 55.25 43.00 50.43 49.63 C 48.89 42.58 50.33 35.30 48.81 28.28 C 49.08 27.98 49.63 27.37 49.90 27.07 C 49.76 26.41 49.50 25.08 49.36 24.42 L 50.08 24.16 Z" />
<path fill="#6d9a59" opacity="1.00" d=" M 106.11 24.15 C 107.22 23.80 108.34 23.46 109.46 23.12 C 110.19 24.41 110.92 25.69 111.66 26.96 L 111.61 27.72 C 108.33 34.77 111.21 42.94 106.55 49.60 C 104.80 42.57 106.37 35.27 104.78 28.26 C 105.06 27.96 105.61 27.36 105.89 27.06 C 105.77 26.40 105.52 25.07 105.40 24.40 L 106.11 24.15 Z" />
<path fill="#6d9a59" opacity="1.00" d=" M 162.13 24.15 C 163.23 23.80 164.34 23.46 165.45 23.13 C 166.20 24.41 166.94 25.69 167.70 26.96 L 167.63 27.72 C 164.35 34.79 167.17 42.97 162.51 49.66 C 160.83 42.61 162.36 35.29 160.78 28.27 C 161.06 27.97 161.62 27.37 161.90 27.07 C 161.78 26.40 161.54 25.06 161.42 24.40 L 162.13 24.15 Z" />
</g>
<g id="#6d9b59ff">
<path fill="#6d9b59" opacity="1.00" d=" M 218.11 24.14 C 219.31 23.74 220.52 23.36 221.73 22.99 C 222.50 24.55 223.28 26.11 224.00 27.70 L 224.00 28.45 C 221.93 27.93 222.25 30.96 224.00 31.00 L 224.00 34.68 C 223.51 33.82 222.52 32.09 222.03 31.23 C 221.53 37.49 222.30 44.01 218.55 49.60 C 216.80 42.57 218.37 35.27 216.78 28.27 C 217.06 27.96 217.61 27.36 217.89 27.06 C 217.77 26.40 217.52 25.07 217.39 24.40 L 218.11 24.14 Z" />
</g>
<g id="#3e7acbff">
<path fill="#3e7acb" opacity="1.00" d=" M 28.99 24.52 C 32.74 27.12 36.91 29.03 40.76 31.48 L 40.76 32.43 C 36.94 31.81 33.08 31.51 29.23 31.24 C 29.18 29.00 29.11 26.76 28.99 24.52 Z" />
</g>
<g id="#75634eff">
<path fill="#75634e" opacity="1.00" d=" M 45.38 24.05 C 45.96 24.17 47.12 24.40 47.70 24.51 L 47.47 25.20 L 46.87 25.75 C 46.47 25.51 45.66 25.02 45.26 24.78 L 45.38 24.05 Z" />
<path fill="#75634e" opacity="1.00" d=" M 101.43 23.88 C 102.01 24.02 103.17 24.30 103.75 24.44 L 103.51 25.11 L 102.92 25.63 C 102.51 25.37 101.69 24.87 101.28 24.62 L 101.43 23.88 Z" />
<path fill="#75634e" opacity="1.00" d=" M 157.45 23.86 C 158.03 24.00 159.20 24.28 159.78 24.42 L 159.54 25.09 L 158.96 25.61 C 158.55 25.36 157.74 24.85 157.33 24.59 L 157.45 23.86 Z" />
<path fill="#75634e" opacity="1.00" d=" M 213.43 23.88 C 214.01 24.02 215.17 24.30 215.75 24.44 L 215.51 25.11 L 214.92 25.63 C 214.51 25.37 213.69 24.87 213.28 24.62 L 213.43 23.88 Z" />
</g>
<g id="#416845ff">
<path fill="#416845" opacity="1.00" d=" M 48.48 24.54 L 49.36 24.42 C 49.50 25.08 49.76 26.41 49.90 27.07 C 49.08 26.42 48.61 25.57 48.48 24.54 Z" />
<path fill="#416845" opacity="1.00" d=" M 104.52 24.50 L 105.40 24.40 C 105.52 25.07 105.77 26.40 105.89 27.06 C 105.08 26.40 104.62 25.54 104.52 24.50 Z" />
<path fill="#416845" opacity="1.00" d=" M 160.54 24.49 L 161.42 24.40 C 161.54 25.06 161.78 26.40 161.90 27.07 C 161.09 26.39 160.64 25.53 160.54 24.49 Z" />
<path fill="#416845" opacity="1.00" d=" M 216.51 24.50 L 217.39 24.40 C 217.52 25.07 217.77 26.40 217.89 27.06 C 217.08 26.40 216.62 25.54 216.51 24.50 Z" />
<path fill="#416845" opacity="1.00" d=" M 49.15 56.00 C 48.07 55.10 48.29 53.56 49.00 52.52 C 49.93 53.64 50.79 54.80 51.61 56.00 L 49.15 56.00 Z" />
<path fill="#416845" opacity="1.00" d=" M 105.24 56.00 C 104.25 55.25 103.96 53.73 104.82 52.77 C 106.00 53.64 106.87 54.83 107.72 56.00 L 105.24 56.00 Z" />
<path fill="#416845" opacity="1.00" d=" M 160.98 56.00 C 160.08 54.97 160.48 53.54 161.14 52.51 C 162.00 53.57 162.92 54.65 163.32 56.00 L 160.98 56.00 Z" />
<path fill="#416845" opacity="1.00" d=" M 217.26 56.00 C 216.26 55.25 215.96 53.74 216.83 52.77 C 218.00 53.64 218.87 54.83 219.73 56.00 L 217.26 56.00 Z" />
</g>
<g id="#4576c9ff">
<path fill="#4576c9" opacity="1.00" d=" M 73.41 27.00 C 77.37 26.14 81.32 25.32 85.29 24.53 C 81.41 26.37 75.18 26.56 75.31 32.48 C 81.40 34.38 87.97 36.00 92.61 40.70 C 89.72 39.96 86.83 39.23 83.98 38.39 C 83.85 40.15 83.61 43.68 83.48 45.45 C 82.70 42.40 82.11 39.31 81.63 36.20 C 79.15 36.09 76.68 35.97 74.20 35.85 C 73.95 32.90 73.76 29.95 73.41 27.00 Z" />
</g>
<g id="#4476caff">
<path fill="#4476ca" opacity="1.00" d=" M 185.42 27.00 C 189.37 26.14 193.32 25.32 197.29 24.53 C 193.41 26.37 187.18 26.56 187.31 32.48 C 193.40 34.38 199.96 36.01 204.61 40.69 C 201.72 39.97 198.83 39.26 195.98 38.41 C 195.91 39.94 195.76 43.00 195.69 44.53 C 194.01 45.70 192.34 46.88 190.67 48.07 C 194.06 49.76 197.38 51.69 199.63 54.83 C 195.64 53.03 191.56 51.25 188.09 48.53 C 189.27 46.19 191.71 44.94 193.75 43.45 C 193.85 41.02 193.95 38.60 194.05 36.17 C 191.43 36.07 188.81 35.96 186.19 35.86 C 185.93 32.90 185.76 29.95 185.42 27.00 Z" />
</g>
<g id="#3b6bbefe">
<path fill="#3b6bbe" opacity="1.00" d=" M 43.35 24.96 C 43.83 24.92 44.78 24.83 45.26 24.78 C 45.66 25.02 46.47 25.51 46.87 25.75 C 46.06 27.72 43.03 27.94 42.83 25.45 L 43.35 24.96 Z" />
<path fill="#3b6bbe" opacity="1.00" d=" M 99.48 24.84 C 99.93 24.78 100.83 24.67 101.28 24.62 C 101.69 24.87 102.51 25.37 102.92 25.63 C 102.57 27.96 99.67 28.08 99.44 25.58 L 99.48 24.84 Z" />
<path fill="#3b6bbe" opacity="1.00" d=" M 155.59 24.85 C 156.02 24.79 156.89 24.66 157.33 24.59 C 157.74 24.85 158.55 25.36 158.96 25.61 C 158.75 28.12 155.77 28.10 155.61 25.56 L 155.59 24.85 Z" />
<path fill="#3b6bbe" opacity="1.00" d=" M 211.48 24.84 C 211.93 24.78 212.83 24.67 213.28 24.62 C 213.69 24.87 214.51 25.37 214.92 25.63 C 214.57 27.96 211.67 28.08 211.44 25.58 L 211.48 24.84 Z" />
</g>
<g id="#322e2aff">
<path fill="#322e2a" opacity="1.00" d=" M 46.87 25.75 L 47.47 25.20 C 47.64 25.87 47.98 27.22 48.15 27.90 C 48.25 34.70 47.22 41.44 46.54 48.19 C 45.65 48.09 43.86 47.91 42.96 47.81 C 43.58 45.90 44.22 43.99 44.72 42.04 C 44.75 40.74 44.73 39.44 44.64 38.14 C 44.14 36.26 43.44 34.43 42.76 32.61 C 43.06 32.58 43.66 32.51 43.96 32.48 C 45.05 32.38 46.14 32.29 47.24 32.21 C 46.94 31.20 46.65 30.19 46.36 29.17 C 45.31 28.68 44.28 28.18 43.25 27.67 C 43.14 27.11 42.94 26.00 42.83 25.45 C 43.03 27.94 46.06 27.72 46.87 25.75 Z" />
<path fill="#322e2a" opacity="1.00" d=" M 102.92 25.63 L 103.51 25.11 C 103.66 25.80 103.97 27.17 104.12 27.86 C 104.27 34.69 103.22 41.44 102.54 48.21 C 101.63 48.10 99.83 47.90 98.93 47.80 C 99.56 45.99 100.22 44.19 100.84 42.37 C 100.86 41.79 100.90 40.63 100.92 40.05 C 100.31 37.59 99.56 35.16 98.43 32.89 C 98.78 32.84 99.46 32.74 99.80 32.69 C 100.89 32.54 101.98 32.39 103.07 32.26 C 103.01 31.26 102.95 30.26 102.90 29.27 C 101.72 28.83 100.54 28.39 99.35 27.95 C 99.38 27.36 99.42 26.18 99.44 25.58 C 99.67 28.08 102.57 27.96 102.92 25.63 Z" />
<path fill="#322e2a" opacity="1.00" d=" M 158.96 25.61 L 159.54 25.09 C 159.69 25.78 159.98 27.17 160.12 27.87 C 160.27 34.69 159.20 41.43 158.53 48.19 C 157.66 48.08 155.93 47.85 155.06 47.73 C 155.56 46.20 156.10 44.68 156.66 43.16 C 157.16 42.11 157.22 41.03 156.85 39.93 C 156.24 37.51 155.55 35.10 154.49 32.84 C 154.82 32.77 155.48 32.63 155.80 32.56 C 157.11 32.33 158.42 32.12 159.73 31.92 C 158.55 30.58 157.38 29.24 156.12 27.98 C 155.99 27.38 155.74 26.16 155.61 25.56 C 155.77 28.10 158.75 28.12 158.96 25.61 Z" />
<path fill="#322e2a" opacity="1.00" d=" M 214.92 25.63 L 215.51 25.11 C 215.66 25.80 215.97 27.18 216.12 27.87 C 216.27 34.69 215.22 41.44 214.54 48.21 C 213.63 48.10 211.83 47.90 210.93 47.80 C 211.56 45.99 212.22 44.19 212.84 42.37 C 212.86 41.79 212.90 40.63 212.92 40.05 C 212.31 37.59 211.56 35.16 210.43 32.89 C 210.78 32.84 211.46 32.74 211.80 32.69 C 212.89 32.54 213.97 32.39 215.07 32.26 C 215.01 31.26 214.95 30.26 214.90 29.27 C 213.72 28.83 212.53 28.39 211.35 27.95 C 211.38 27.36 211.42 26.18 211.44 25.58 C 211.67 28.08 214.57 27.96 214.92 25.63 Z" />
</g>
<g id="#475943ff">
<path fill="#475943" opacity="1.00" d=" M 48.15 27.90 L 48.81 28.28 C 50.33 35.30 48.89 42.58 50.43 49.63 C 49.05 50.14 47.68 50.69 46.27 51.13 C 46.36 50.15 46.44 49.17 46.54 48.19 C 47.22 41.44 48.25 34.70 48.15 27.90 Z" />
<path fill="#475943" opacity="1.00" d=" M 104.12 27.86 L 104.78 28.26 C 106.37 35.27 104.80 42.57 106.55 49.60 C 105.13 50.07 103.71 50.57 102.27 51.00 C 102.36 50.07 102.44 49.14 102.54 48.21 C 103.22 41.44 104.27 34.69 104.12 27.86 Z" />
<path fill="#475943" opacity="1.00" d=" M 160.12 27.87 L 160.78 28.27 C 162.36 35.29 160.83 42.61 162.51 49.66 C 161.10 50.18 159.70 50.73 158.26 51.17 C 158.34 50.18 158.43 49.18 158.53 48.19 C 159.20 41.43 160.27 34.69 160.12 27.87 Z" />
<path fill="#475943" opacity="1.00" d=" M 216.12 27.87 L 216.78 28.27 C 218.37 35.27 216.80 42.57 218.55 49.60 C 217.12 50.07 215.71 50.56 214.27 51.00 C 214.35 50.07 214.44 49.14 214.54 48.21 C 215.22 41.44 216.27 34.69 216.12 27.87 Z" />
</g>
<g id="#85b05fff">
<path fill="#85b05f" opacity="1.00" d=" M 50.43 49.63 C 55.25 43.00 52.31 34.78 55.63 27.72 C 55.76 34.98 55.92 42.24 55.96 49.51 C 55.22 48.54 52.92 47.46 52.54 49.27 C 53.02 50.66 54.86 50.30 55.97 50.08 C 55.89 50.40 55.73 51.03 55.65 51.35 C 55.49 51.98 55.32 52.60 55.15 53.22 C 53.37 52.44 51.55 51.71 49.67 51.18 C 49.86 50.80 50.24 50.02 50.43 49.63 Z" />
<path fill="#85b05f" opacity="1.00" d=" M 106.55 49.60 C 111.21 42.94 108.33 34.77 111.61 27.72 C 111.72 34.95 111.83 42.17 111.68 49.39 C 111.00 48.37 108.71 47.44 108.42 49.24 C 108.79 50.67 110.63 50.33 111.67 49.98 L 112.14 50.25 L 112.79 50.66 C 111.99 51.94 111.19 53.21 110.38 54.47 C 110.00 53.26 109.61 52.06 109.24 50.85 C 107.96 51.17 106.69 51.48 105.42 51.83 C 105.70 51.27 106.27 50.16 106.55 49.60 Z" />
<path fill="#85b05f" opacity="1.00" d=" M 162.51 49.66 C 167.17 42.97 164.35 34.79 167.63 27.72 C 167.76 34.85 167.92 41.97 167.99 49.10 C 167.07 48.30 164.78 47.57 164.50 49.33 C 165.08 50.73 166.96 50.08 167.99 49.64 C 167.86 50.04 167.60 50.85 167.47 51.25 C 167.14 52.26 166.80 53.26 166.45 54.26 C 166.02 53.13 165.61 52.01 165.20 50.88 C 163.96 51.18 162.72 51.48 161.49 51.81 C 161.74 51.27 162.25 50.20 162.51 49.66 Z" />
</g>
<g id="#565248fe">
<path fill="#565248" opacity="1.00" d=" M 99.35 27.95 C 100.54 28.39 101.72 28.83 102.90 29.27 C 102.95 30.26 103.01 31.26 103.07 32.26 C 101.98 32.39 100.89 32.54 99.80 32.69 C 99.85 31.45 99.65 30.24 99.19 29.07 C 99.23 28.79 99.31 28.23 99.35 27.95 Z" />
<path fill="#565248" opacity="1.00" d=" M 156.12 27.98 C 157.38 29.24 158.55 30.58 159.73 31.92 C 158.42 32.12 157.11 32.33 155.80 32.56 C 155.50 31.92 154.89 30.66 154.58 30.02 C 154.97 29.51 155.73 28.49 156.12 27.98 Z" />
<path fill="#565248" opacity="1.00" d=" M 211.35 27.95 C 212.53 28.39 213.72 28.83 214.90 29.27 C 214.95 30.26 215.01 31.26 215.07 32.26 C 213.97 32.39 212.89 32.54 211.80 32.69 C 211.85 31.45 211.65 30.24 211.19 29.07 C 211.23 28.79 211.31 28.23 211.35 27.95 Z" />
</g>
<g id="#91bc69ff">
<path fill="#91bc69" opacity="1.00" d=" M 224.00 31.00 C 222.25 30.96 221.93 27.93 224.00 28.45 L 224.00 31.00 Z" />
</g>
<g id="#a0b6cbff">
<path fill="#a0b6cb" opacity="1.00" d=" M 41.29 31.09 C 41.82 30.58 42.90 29.55 43.44 29.04 C 43.68 30.17 43.85 31.32 43.96 32.48 C 43.66 32.51 43.06 32.58 42.76 32.61 C 42.41 32.42 41.71 32.03 41.36 31.84 L 41.29 31.09 Z" />
<path fill="#a0b6cb" opacity="1.00" d=" M 97.53 30.77 C 97.94 30.34 98.78 29.49 99.19 29.07 C 99.65 30.24 99.85 31.45 99.80 32.69 C 99.46 32.74 98.78 32.84 98.43 32.89 C 98.21 32.56 97.76 31.91 97.53 31.58 L 97.53 30.77 Z" />
<path fill="#a0b6cb" opacity="1.00" d=" M 209.53 30.77 C 209.94 30.34 210.78 29.49 211.19 29.07 C 211.65 30.24 211.85 31.45 211.80 32.69 C 211.46 32.74 210.78 32.84 210.43 32.89 C 210.21 32.56 209.76 31.91 209.53 31.58 L 209.53 30.77 Z" />
</g>
<g id="#4477cbfe">
<path fill="#4477cb" opacity="1.00" d=" M 128.69 31.05 C 134.34 32.37 139.28 35.49 144.70 37.38 C 146.45 40.07 148.47 42.58 151.06 44.51 C 148.71 44.51 146.36 44.54 144.01 44.69 C 144.73 43.29 145.46 41.89 146.17 40.48 C 143.82 39.77 141.49 39.00 139.16 38.23 C 139.40 41.98 141.77 44.76 143.43 47.86 C 142.97 49.10 142.30 50.25 141.71 51.43 C 141.38 50.49 140.72 48.63 140.38 47.70 C 139.46 49.53 138.61 51.40 137.85 53.31 C 135.71 51.20 133.15 49.61 130.57 48.10 C 131.84 47.19 133.14 46.33 134.48 45.52 C 135.63 46.83 136.86 48.08 138.11 49.29 C 138.66 48.46 139.20 47.62 139.73 46.78 C 134.99 45.01 137.56 39.99 138.02 36.19 C 136.32 36.09 132.93 35.87 131.23 35.77 C 130.40 34.19 129.55 32.62 128.69 31.05 Z" />
</g>
<g id="#2f8bd3ff">
<path fill="#2f8bd3" opacity="1.00" d=" M 40.76 31.48 L 41.36 31.84 C 41.71 32.03 42.41 32.42 42.76 32.61 C 43.44 34.43 44.14 36.26 44.64 38.14 C 43.79 37.38 42.94 36.62 42.09 35.86 C 42.41 38.17 42.72 40.48 43.05 42.79 C 42.55 43.01 41.56 43.45 41.06 43.67 C 40.39 39.95 40.64 36.18 40.76 32.43 L 40.76 31.48 Z" />
</g>
<g id="#2c8ed7ff">
<path fill="#2c8ed7" opacity="1.00" d=" M 97.46 52.34 C 96.65 45.45 97.58 38.50 97.53 31.58 C 97.76 31.91 98.21 32.56 98.43 32.89 C 99.56 35.16 100.31 37.59 100.92 40.05 C 98.69 39.84 98.33 43.49 100.84 42.37 C 100.22 44.19 99.56 45.99 98.93 47.80 C 98.69 48.47 98.22 49.82 97.98 50.49 C 97.85 50.95 97.59 51.88 97.46 52.34 Z" />
<path fill="#2c8ed7" opacity="1.00" d=" M 209.46 52.34 C 208.65 45.45 209.58 38.50 209.53 31.58 C 209.76 31.91 210.21 32.56 210.43 32.89 C 211.56 35.16 212.31 37.59 212.92 40.05 C 210.69 39.84 210.33 43.49 212.84 42.37 C 212.22 44.19 211.56 45.99 210.93 47.80 C 210.69 48.47 210.22 49.82 209.98 50.49 C 209.85 50.95 209.59 51.88 209.46 52.34 Z" />
</g>
<g id="#288cd6ff">
<path fill="#288cd6" opacity="1.00" d=" M 153.83 56.00 C 152.39 47.96 153.59 39.80 153.65 31.70 C 153.86 31.99 154.28 32.55 154.49 32.84 C 155.55 35.10 156.24 37.51 156.85 39.93 C 155.15 40.26 154.66 42.94 156.66 43.16 C 156.10 44.68 155.56 46.20 155.06 47.73 C 154.77 48.60 154.49 49.47 154.21 50.33 C 153.18 51.62 155.07 53.03 155.96 51.56 C 155.73 53.05 155.44 54.53 155.09 56.00 L 153.83 56.00 Z" />
</g>
<g id="#86b05fff">
<path fill="#86b05f" opacity="1.00" d=" M 218.55 49.60 C 222.30 44.01 221.53 37.49 222.03 31.23 C 222.52 32.09 223.51 33.82 224.00 34.68 L 224.00 49.22 C 223.12 48.37 220.81 47.53 220.49 49.30 C 221.06 50.70 222.93 50.14 224.00 49.74 L 224.00 51.32 C 223.57 52.39 223.13 53.44 222.68 54.50 C 222.17 53.29 221.66 52.09 221.16 50.88 C 219.91 51.19 218.66 51.49 217.42 51.83 C 217.70 51.27 218.27 50.16 218.55 49.60 Z" />
</g>
<g id="#4577c9ff">
<path fill="#4577c9" opacity="1.00" d=" M 14.39 36.18 C 16.53 34.92 18.74 32.25 21.44 33.65 C 26.85 35.89 32.07 38.74 36.55 42.54 C 34.12 42.17 31.69 41.76 29.27 41.35 C 28.76 42.92 28.23 44.49 27.72 46.06 C 26.80 45.72 25.88 45.37 24.96 45.03 C 25.98 43.27 26.99 41.51 27.99 39.74 C 25.39 38.88 22.71 38.23 20.13 37.28 C 18.69 37.00 15.82 36.45 14.39 36.18 Z" />
</g>
<g id="#4474caff">
<path fill="#4474ca" opacity="1.00" d=" M 0.00 38.05 C 3.93 37.08 7.93 36.42 11.91 35.72 C 11.25 40.53 11.12 45.95 6.80 49.08 C 7.22 49.31 7.65 49.55 8.07 49.78 C 7.33 49.83 5.84 49.94 5.10 50.00 C 4.47 49.67 3.21 49.02 2.58 48.70 C 5.85 46.79 8.79 44.18 9.23 40.19 C 6.15 40.07 3.08 39.96 0.00 39.87 L 0.00 38.05 Z" />
</g>
<g id="#a5bbd1ff">
<path fill="#a5bbd1" opacity="1.00" d=" M 42.09 35.86 C 42.94 36.62 43.79 37.38 44.64 38.14 C 44.73 39.44 44.75 40.74 44.72 42.04 C 44.30 42.23 43.47 42.60 43.05 42.79 C 42.72 40.48 42.41 38.17 42.09 35.86 Z" />
</g>
<g id="#4878cbff">
<path fill="#4878cb" opacity="1.00" d=" M 60.00 38.87 C 62.47 37.73 64.96 36.64 67.53 35.76 C 66.45 37.05 65.24 38.22 63.96 39.31 C 64.97 41.35 66.02 43.36 67.02 45.39 C 64.52 43.40 62.14 41.25 60.00 38.87 Z" />
</g>
<g id="#3968bfff">
<path fill="#3968bf" opacity="1.00" d=" M 0.00 39.87 C 3.08 39.96 6.15 40.07 9.23 40.19 C 8.79 44.18 5.85 46.79 2.58 48.70 L 1.90 49.17 C 1.43 49.09 0.48 48.91 0.00 48.83 L 0.00 39.87 M 0.37 44.59 C 3.11 44.29 5.83 43.78 8.49 43.06 C 5.72 43.14 2.94 43.51 0.37 44.59 Z" />
</g>
<g id="#8bb5d9ff">
<path fill="#8bb5d9" opacity="1.00" d=" M 100.92 40.05 C 100.90 40.63 100.86 41.79 100.84 42.37 C 98.33 43.49 98.69 39.84 100.92 40.05 Z" />
<path fill="#8bb5d9" opacity="1.00" d=" M 212.92 40.05 C 212.90 40.63 212.86 41.79 212.84 42.37 C 210.33 43.49 210.69 39.84 212.92 40.05 Z" />
</g>
<g id="#6e9bbbff">
<path fill="#6e9bbb" opacity="1.00" d=" M 156.85 39.93 C 157.22 41.03 157.16 42.11 156.66 43.16 C 154.66 42.94 155.15 40.26 156.85 39.93 Z" />
</g>
<g id="#2a8ed7ff">
<path fill="#2a8ed7" opacity="1.00" d=" M 43.05 42.79 C 43.47 42.60 44.30 42.23 44.72 42.04 C 44.22 43.99 43.58 45.90 42.96 47.81 C 42.73 48.50 42.28 49.87 42.05 50.55 C 41.95 50.97 41.75 51.81 41.65 52.23 C 40.83 50.88 40.02 49.53 39.21 48.17 C 39.83 46.67 40.45 45.18 41.06 43.67 C 41.56 43.45 42.55 43.01 43.05 42.79 Z" />
</g>
<g id="#4072c6ff">
<path fill="#4072c6" opacity="1.00" d=" M 0.37 44.59 C 2.94 43.51 5.72 43.14 8.49 43.06 C 5.83 43.78 3.11 44.29 0.37 44.59 Z" />
</g>
<g id="#427bcbff">
<path fill="#427bcb" opacity="1.00" d=" M 34.58 44.33 C 35.35 45.44 36.14 46.55 36.94 47.64 C 34.06 48.53 31.20 49.46 28.36 50.45 C 30.41 48.38 32.55 46.41 34.58 44.33 Z" />
</g>
<g id="#4c77caff">
<path fill="#4c77ca" opacity="1.00" d=" M 59.83 44.13 C 60.95 44.99 62.06 45.85 63.17 46.72 C 61.89 47.51 60.62 48.31 59.30 49.04 C 58.81 49.19 57.82 49.49 57.33 49.64 C 58.30 47.87 59.08 46.00 59.83 44.13 Z" />
</g>
<g id="#4778d1ff">
<path fill="#4778d1" opacity="1.00" d=" M 113.53 43.58 C 114.90 44.92 116.19 46.34 117.41 47.82 C 115.98 47.89 114.55 47.95 113.11 48.00 C 113.25 46.53 113.39 45.05 113.53 43.58 Z" />
</g>
<g id="#6c5e4cff">
<path fill="#6c5e4c" opacity="1.00" d=" M 42.05 50.55 C 42.28 49.87 42.73 48.50 42.96 47.81 C 43.86 47.91 45.65 48.09 46.54 48.19 C 46.44 49.17 46.36 50.15 46.27 51.13 C 45.85 51.06 45.00 50.92 44.58 50.85 C 43.95 50.77 42.69 50.63 42.05 50.55 Z" />
<path fill="#6c5e4c" opacity="1.00" d=" M 97.98 50.49 C 98.22 49.82 98.69 48.47 98.93 47.80 C 99.83 47.90 101.63 48.10 102.54 48.21 C 102.44 49.14 102.36 50.07 102.27 51.00 C 101.74 51.16 100.66 51.48 100.12 51.64 C 99.59 51.35 98.52 50.78 97.98 50.49 Z" />
<path fill="#6c5e4c" opacity="1.00" d=" M 154.21 50.33 C 154.49 49.47 154.77 48.60 155.06 47.73 C 155.93 47.85 157.66 48.08 158.53 48.19 C 158.43 49.18 158.34 50.18 158.26 51.17 C 157.70 51.06 156.57 50.85 156.00 50.74 C 155.55 50.64 154.66 50.44 154.21 50.33 Z" />
<path fill="#6c5e4c" opacity="1.00" d=" M 209.98 50.49 C 210.22 49.82 210.69 48.47 210.93 47.80 C 211.83 47.90 213.63 48.10 214.54 48.21 C 214.44 49.14 214.35 50.07 214.27 51.00 C 213.74 51.16 212.66 51.48 212.12 51.64 C 211.59 51.35 210.52 50.78 209.98 50.49 Z" />
</g>
<g id="#65955fff">
<path fill="#65955f" opacity="1.00" d=" M 52.54 49.27 C 52.92 47.46 55.22 48.54 55.96 49.51 L 55.97 50.08 C 54.86 50.30 53.02 50.66 52.54 49.27 Z" />
<path fill="#65955f" opacity="1.00" d=" M 108.42 49.24 C 108.71 47.44 111.00 48.37 111.68 49.39 L 111.67 49.98 C 110.63 50.33 108.79 50.67 108.42 49.24 Z" />
<path fill="#65955f" opacity="1.00" d=" M 164.50 49.33 C 164.78 47.57 167.07 48.30 167.99 49.10 L 167.99 49.64 C 166.96 50.08 165.08 50.73 164.50 49.33 Z" />
<path fill="#65955f" opacity="1.00" d=" M 220.49 49.30 C 220.81 47.53 223.12 48.37 224.00 49.22 L 224.00 49.74 C 222.93 50.14 221.06 50.70 220.49 49.30 Z" />
</g>
<g id="#5672a2ff">
<path fill="#5672a2" opacity="1.00" d=" M 0.00 48.83 C 0.48 48.91 1.43 49.09 1.90 49.17 C 2.76 50.17 3.83 50.45 5.10 50.00 C 5.84 49.94 7.33 49.83 8.07 49.78 C 8.63 50.80 9.34 51.70 10.18 52.50 C 11.23 53.65 12.23 54.84 13.28 56.00 L 12.12 56.00 C 8.07 54.03 4.04 52.02 0.00 50.05 L 0.00 48.83 Z" />
</g>
<g id="#5e80ccff">
<path fill="#5e80cc" opacity="1.00" d=" M 1.90 49.17 L 2.58 48.70 C 3.21 49.02 4.47 49.67 5.10 50.00 C 3.83 50.45 2.76 50.17 1.90 49.17 Z" />
</g>
<g id="#33302bff">
<path fill="#33302b" opacity="1.00" d=" M 46.27 51.13 C 47.68 50.69 49.05 50.14 50.43 49.63 C 50.24 50.02 49.86 50.80 49.67 51.18 C 49.51 51.52 49.17 52.19 49.00 52.52 C 48.29 53.56 48.07 55.10 49.15 56.00 L 42.89 56.00 C 43.46 54.55 43.95 53.08 44.40 51.59 L 44.58 50.85 C 45.00 50.92 45.85 51.06 46.27 51.13 Z" />
<path fill="#33302b" opacity="1.00" d=" M 102.27 51.00 C 103.71 50.57 105.13 50.07 106.55 49.60 C 106.27 50.16 105.70 51.27 105.42 51.83 C 105.27 52.07 104.97 52.54 104.82 52.77 C 103.96 53.73 104.25 55.25 105.24 56.00 L 98.94 56.00 C 99.82 55.01 100.06 53.67 100.07 52.39 L 100.12 51.64 C 100.66 51.48 101.74 51.16 102.27 51.00 Z" />
<path fill="#33302b" opacity="1.00" d=" M 158.26 51.17 C 159.70 50.73 161.10 50.18 162.51 49.66 C 162.25 50.20 161.74 51.27 161.49 51.81 C 161.40 51.98 161.23 52.33 161.14 52.51 C 160.48 53.54 160.08 54.97 160.98 56.00 L 155.09 56.00 C 155.44 54.53 155.73 53.05 155.96 51.56 L 156.00 50.74 C 156.57 50.85 157.70 51.06 158.26 51.17 Z" />
<path fill="#33302b" opacity="1.00" d=" M 214.27 51.00 C 215.71 50.56 217.12 50.07 218.55 49.60 C 218.27 50.16 217.70 51.27 217.42 51.83 C 217.27 52.07 216.97 52.54 216.83 52.77 C 215.96 53.74 216.26 55.25 217.26 56.00 L 210.94 56.00 C 211.82 55.01 212.05 53.67 212.07 52.39 L 212.12 51.64 C 212.66 51.48 213.74 51.16 214.27 51.00 Z" />
</g>
<g id="#42689dff">
<path fill="#42689d" opacity="1.00" d=" M 111.67 49.98 C 115.17 49.96 118.68 50.02 122.18 49.88 C 122.69 51.75 123.23 53.62 123.93 55.43 C 120.38 52.94 116.25 51.51 112.14 50.25 L 111.67 49.98 Z" />
</g>
<g id="#517ebdff">
<path fill="#517ebd" opacity="1.00" d=" M 8.07 49.78 C 10.10 49.37 11.64 50.89 12.00 52.78 C 11.55 52.71 10.64 52.57 10.18 52.50 C 9.34 51.70 8.63 50.80 8.07 49.78 Z" />
</g>
<g id="#9db4c9ff">
<path fill="#9db4c9" opacity="1.00" d=" M 42.05 50.55 C 42.69 50.63 43.95 50.77 44.58 50.85 L 44.40 51.59 C 43.81 51.92 42.65 52.57 42.06 52.89 L 41.65 52.23 C 41.75 51.81 41.95 50.97 42.05 50.55 Z" />
<path fill="#9db4c9" opacity="1.00" d=" M 97.98 50.49 C 98.52 50.78 99.59 51.35 100.12 51.64 L 100.07 52.39 C 99.45 52.57 98.21 52.93 97.58 53.12 L 97.46 52.34 C 97.59 51.88 97.85 50.95 97.98 50.49 Z" />
<path fill="#9db4c9" opacity="1.00" d=" M 209.98 50.49 C 210.52 50.78 211.59 51.35 212.12 51.64 L 212.07 52.39 C 211.45 52.57 210.21 52.93 209.58 53.12 L 209.46 52.34 C 209.59 51.88 209.85 50.95 209.98 50.49 Z" />
</g>
<g id="#315a8cff">
<path fill="#315a8c" opacity="1.00" d=" M 55.97 50.08 C 56.31 49.97 56.99 49.75 57.33 49.64 C 57.82 49.49 58.81 49.19 59.30 49.04 C 60.58 49.62 61.84 50.25 63.08 50.92 C 61.51 51.02 58.38 51.22 56.82 51.32 L 55.65 51.35 C 55.73 51.03 55.89 50.40 55.97 50.08 Z" />
</g>
<g id="#2f5b84ff">
<path fill="#2f5b84" opacity="1.00" d=" M 167.99 49.64 C 169.81 49.77 173.45 50.03 175.27 50.15 L 174.44 50.89 C 173.02 50.99 170.19 51.18 168.77 51.27 L 167.47 51.25 C 167.60 50.85 167.86 50.04 167.99 49.64 Z" />
</g>
<g id="#607aafff">
<path fill="#607aaf" opacity="1.00" d=" M 175.27 50.15 C 177.58 51.85 179.50 53.98 181.51 56.00 L 180.00 56.00 C 178.01 54.45 176.14 52.75 174.44 50.89 L 175.27 50.15 Z" />
</g>
<g id="#24393dff">
<path fill="#24393d" opacity="1.00" d=" M 0.00 50.05 C 4.04 52.02 8.07 54.03 12.12 56.00 L 7.65 56.00 C 5.14 54.26 2.54 52.65 0.00 50.96 L 0.00 50.05 Z" />
</g>
<g id="#436ca4ff">
<path fill="#436ca4" opacity="1.00" d=" M 25.13 56.00 C 25.92 54.21 26.72 52.43 27.52 50.64 C 27.73 52.42 27.95 54.21 28.17 56.00 L 25.13 56.00 Z" />
</g>
<g id="#719d5aff">
<path fill="#719d5a" opacity="1.00" d=" M 49.67 51.18 C 51.55 51.71 53.37 52.44 55.15 53.22 C 55.32 52.60 55.49 51.98 55.65 51.35 C 55.62 52.90 55.58 54.45 55.52 56.00 L 51.61 56.00 C 50.79 54.80 49.93 53.64 49.00 52.52 C 49.17 52.19 49.51 51.52 49.67 51.18 Z" />
<path fill="#719d5a" opacity="1.00" d=" M 105.42 51.83 C 106.69 51.48 107.96 51.17 109.24 50.85 C 109.61 52.06 110.00 53.26 110.38 54.47 C 111.19 53.21 111.99 51.94 112.79 50.66 C 112.26 52.44 111.73 54.22 111.20 56.00 L 107.72 56.00 C 106.87 54.83 106.00 53.64 104.82 52.77 C 104.97 52.54 105.27 52.07 105.42 51.83 Z" />
<path fill="#719d5a" opacity="1.00" d=" M 217.42 51.83 C 218.66 51.49 219.91 51.19 221.16 50.88 C 221.66 52.09 222.17 53.29 222.68 54.50 C 223.13 53.44 223.57 52.39 224.00 51.32 L 224.00 56.00 L 219.73 56.00 C 218.87 54.83 218.00 53.64 216.83 52.77 C 216.97 52.54 217.27 52.07 217.42 51.83 Z" />
</g>
<g id="#203b3cff">
<path fill="#203b3c" opacity="1.00" d=" M 56.82 51.32 C 58.38 51.22 61.51 51.02 63.08 50.92 C 64.68 52.68 66.33 54.40 68.09 56.00 L 64.64 56.00 C 63.92 55.45 62.49 54.35 61.77 53.80 C 60.25 52.74 58.53 52.01 56.82 51.32 Z" />
</g>
<g id="#6286a8ff">
<path fill="#6286a8" opacity="1.00" d=" M 63.08 50.92 C 65.48 52.31 67.54 54.20 69.63 56.00 L 68.09 56.00 C 66.33 54.40 64.68 52.68 63.08 50.92 Z" />
</g>
<g id="#244048ff">
<path fill="#244048" opacity="1.00" d=" M 112.14 50.25 C 116.25 51.51 120.38 52.94 123.93 55.43 L 124.80 56.00 L 119.32 56.00 C 118.44 55.02 117.58 54.03 116.72 53.04 C 115.40 52.26 114.09 51.46 112.79 50.66 L 112.14 50.25 Z" />
</g>
<g id="#719f64ff">
<path fill="#719f64" opacity="1.00" d=" M 161.49 51.81 C 162.72 51.48 163.96 51.18 165.20 50.88 C 165.61 52.01 166.02 53.13 166.45 54.26 C 166.80 53.26 167.14 52.26 167.47 51.25 L 168.77 51.27 C 171.62 52.42 174.12 54.22 176.59 56.00 L 174.08 56.00 C 173.11 55.26 172.16 54.51 171.23 53.75 C 170.12 54.51 169.01 55.27 167.88 56.00 L 163.32 56.00 C 162.92 54.65 162.00 53.57 161.14 52.51 C 161.23 52.33 161.40 51.98 161.49 51.81 Z" />
</g>
<g id="#203b43ff">
<path fill="#203b43" opacity="1.00" d=" M 168.77 51.27 C 170.19 51.18 173.02 50.99 174.44 50.89 C 176.14 52.75 178.01 54.45 180.00 56.00 L 176.59 56.00 C 174.12 54.22 171.62 52.42 168.77 51.27 Z" />
</g>
<g id="#7c9c74ff">
<path fill="#7c9c74" opacity="1.00" d=" M 0.00 50.96 C 2.54 52.65 5.14 54.26 7.65 56.00 L 6.50 56.00 C 4.35 54.88 2.21 53.74 0.00 52.75 L 0.00 50.96 Z" />
</g>
<g id="#70a0cfff">
<path fill="#70a0cf" opacity="1.00" d=" M 10.18 52.50 C 10.64 52.57 11.55 52.71 12.00 52.78 C 13.04 53.86 14.07 54.94 15.13 56.00 L 13.28 56.00 C 12.23 54.84 11.23 53.65 10.18 52.50 Z" />
</g>
<g id="#709d86ff">
<path fill="#709d86" opacity="1.00" d=" M 55.65 51.35 L 56.82 51.32 C 58.53 52.01 60.25 52.74 61.77 53.80 C 60.61 53.65 59.44 53.50 58.27 53.36 C 57.54 54.25 56.80 55.13 56.04 56.00 L 55.52 56.00 C 55.58 54.45 55.62 52.90 55.65 51.35 Z" />
</g>
<g id="#6e9b86ff">
<path fill="#6e9b86" opacity="1.00" d=" M 112.79 50.66 C 114.09 51.46 115.40 52.26 116.72 53.04 C 115.04 53.92 113.44 54.95 111.86 56.00 L 111.20 56.00 C 111.73 54.22 112.26 52.44 112.79 50.66 Z" />
</g>
<g id="#759d51ff">
<path fill="#759d51" opacity="1.00" d=" M 0.00 52.75 C 2.21 53.74 4.35 54.88 6.50 56.00 L 0.00 56.00 L 0.00 52.75 Z" />
</g>
<g id="#6e9b56fe">
<path fill="#6e9b56" opacity="1.00" d=" M 56.04 56.00 C 56.80 55.13 57.54 54.25 58.27 53.36 C 59.44 53.50 60.61 53.65 61.77 53.80 C 62.49 54.35 63.92 55.45 64.64 56.00 L 56.04 56.00 Z" />
</g>
<g id="#76a062ff">
<path fill="#76a062" opacity="1.00" d=" M 111.86 56.00 C 113.44 54.95 115.04 53.92 116.72 53.04 C 117.58 54.03 118.44 55.02 119.32 56.00 L 111.86 56.00 Z" />
</g>
<g id="#669946ff">
<path fill="#669946" opacity="1.00" d=" M 167.88 56.00 C 169.01 55.27 170.12 54.51 171.23 53.75 C 172.16 54.51 173.11 55.26 174.08 56.00 L 167.88 56.00 Z" />
</g>
</svg>
