<?xml version="1.0" encoding="UTF-8" ?>
<!DOCTYPE svg PUBLIC "-//W3C//DTD SVG 1.1//EN" "http://www.w3.org/Graphics/SVG/1.1/DTD/svg11.dtd">
<svg width="224pt" height="56pt" viewBox="0 0 224 56" version="1.1" xmlns="http://www.w3.org/2000/svg">
<g id="#87b15fff">
<path fill="#87b15f" opacity="1.00" d=" M 0.00 0.00 L 6.70 0.00 C 4.82 1.54 2.96 3.11 1.24 4.84 C 0.93 5.18 0.31 5.87 0.00 6.21 L 0.00 0.00 Z" />
</g>
<g id="#689860ff">
<path fill="#689860" opacity="1.00" d=" M 6.70 0.00 L 7.24 0.00 C 7.24 0.69 7.24 2.08 7.24 2.77 C 8.08 2.80 9.76 2.87 10.60 2.90 C 9.86 1.92 9.10 0.95 8.33 -0.00 L 10.39 0.00 C 11.16 1.90 11.83 3.84 12.49 5.78 L 11.78 5.60 C 9.47 5.06 7.12 4.69 4.77 4.35 C 5.97 5.67 7.18 6.98 8.39 8.30 C 9.29 7.65 10.18 6.99 11.07 6.32 C 10.23 7.33 9.40 8.35 8.58 9.38 L 8.20 9.15 C 7.62 8.78 6.47 8.04 5.89 7.68 C 4.36 6.70 2.81 5.76 1.24 4.84 C 2.96 3.11 4.82 1.54 6.70 0.00 Z" />
<path fill="#689860" opacity="1.00" d=" M 62.82 0.00 L 63.27 0.00 C 63.26 0.69 63.24 2.07 63.23 2.76 C 64.07 2.80 65.76 2.87 66.60 2.90 C 65.85 1.92 65.09 0.96 64.31 -0.00 L 66.32 0.00 C 67.19 1.98 67.96 4.01 68.72 6.03 L 68.01 5.85 C 65.63 5.22 63.21 4.75 60.78 4.34 C 61.90 5.56 63.01 6.79 64.13 8.01 C 65.15 7.44 66.17 6.88 67.20 6.31 C 66.87 6.92 66.21 8.15 65.88 8.76 L 64.98 9.02 L 64.53 8.91 C 63.89 8.59 62.60 7.93 61.96 7.60 C 60.19 6.65 58.43 5.67 56.66 4.73 C 58.81 3.29 60.82 1.64 62.82 0.00 Z" />
<path fill="#689860" opacity="1.00" d=" M 118.82 0.00 L 119.27 0.00 C 119.26 0.69 119.24 2.07 119.23 2.76 C 120.07 2.80 121.76 2.87 122.60 2.90 C 121.85 1.92 121.09 0.96 120.31 -0.00 L 122.32 0.00 C 123.19 1.98 123.96 4.01 124.72 6.03 L 124.00 5.85 C 121.63 5.22 119.21 4.75 116.78 4.34 C 117.90 5.56 119.01 6.79 120.13 8.01 C 121.15 7.44 122.17 6.88 123.20 6.31 C 122.87 6.92 122.21 8.15 121.88 8.76 L 120.98 9.02 L 120.53 8.91 C 119.87 8.58 118.56 7.91 117.90 7.57 C 116.15 6.63 114.41 5.66 112.66 4.73 C 114.81 3.29 116.82 1.64 118.82 0.00 Z" />
<path fill="#689860" opacity="1.00" d=" M 174.82 0.00 L 175.27 0.00 C 175.26 0.69 175.24 2.07 175.23 2.76 C 176.07 2.80 177.76 2.87 178.60 2.90 C 177.85 1.92 177.09 0.96 176.31 -0.00 L 178.32 0.00 C 179.19 1.98 179.96 4.01 180.72 6.03 L 180.01 5.85 C 177.63 5.22 175.21 4.75 172.78 4.34 C 173.89 5.56 175.01 6.79 176.13 8.01 C 177.15 7.44 178.17 6.88 179.20 6.31 C 178.87 6.92 178.21 8.15 177.88 8.76 L 176.98 9.02 L 176.53 8.91 C 175.89 8.59 174.60 7.93 173.96 7.60 C 172.19 6.65 170.43 5.67 168.66 4.73 C 170.81 3.29 172.82 1.64 174.82 0.00 Z" />
</g>
<g id="#87b05cff">
<path fill="#87b05c" opacity="1.00" d=" M 7.24 0.00 L 8.33 0.00 C 9.10 0.95 9.86 1.92 10.60 2.90 C 9.76 2.87 8.08 2.80 7.24 2.77 C 7.24 2.08 7.24 0.69 7.24 0.00 Z" />
<path fill="#87b05c" opacity="1.00" d=" M 47.71 0.00 L 50.11 0.00 C 48.62 1.12 47.17 2.28 45.66 3.38 C 46.33 2.24 47.01 1.12 47.71 0.00 Z" />
<path fill="#87b05c" opacity="1.00" d=" M 63.27 0.00 L 64.31 0.00 C 65.09 0.96 65.85 1.92 66.60 2.90 C 65.76 2.87 64.07 2.80 63.23 2.76 C 63.24 2.07 63.26 0.69 63.27 0.00 Z" />
<path fill="#87b05c" opacity="1.00" d=" M 103.71 0.00 L 106.11 0.00 C 104.62 1.12 103.17 2.28 101.66 3.38 C 102.32 2.24 103.01 1.12 103.71 0.00 Z" />
<path fill="#87b05c" opacity="1.00" d=" M 119.27 0.00 L 120.31 0.00 C 121.09 0.96 121.85 1.92 122.60 2.90 C 121.76 2.87 120.07 2.80 119.23 2.76 C 119.24 2.07 119.26 0.69 119.27 0.00 Z" />
<path fill="#87b05c" opacity="1.00" d=" M 159.71 0.00 L 162.11 0.00 C 160.62 1.12 159.17 2.28 157.66 3.38 C 158.32 2.24 159.01 1.12 159.71 0.00 Z" />
<path fill="#87b05c" opacity="1.00" d=" M 175.27 0.00 L 176.31 0.00 C 177.09 0.96 177.85 1.92 178.60 2.90 C 177.76 2.87 176.07 2.80 175.23 2.76 C 175.24 2.07 175.26 0.69 175.27 0.00 Z" />
<path fill="#87b05c" opacity="1.00" d=" M 215.69 0.00 L 218.08 0.00 C 216.60 1.12 215.16 2.28 213.67 3.39 C 214.32 2.25 215.00 1.12 215.69 0.00 Z" />
<path fill="#87b05c" opacity="1.00" d=" M 55.65 52.19 C 56.68 51.71 57.74 51.69 58.83 52.12 C 58.84 54.22 55.16 54.60 55.65 52.19 Z" />
<path fill="#87b05c" opacity="1.00" d=" M 111.64 52.20 C 112.67 51.71 113.73 51.69 114.82 52.12 C 114.83 54.21 111.16 54.61 111.64 52.20 Z" />
<path fill="#87b05c" opacity="1.00" d=" M 167.65 52.19 C 168.68 51.71 169.74 51.69 170.83 52.12 C 170.85 54.22 167.19 54.60 167.65 52.19 Z" />
</g>
<g id="#80a95bff">
<path fill="#80a95b" opacity="1.00" d=" M 10.39 0.00 L 26.45 0.00 C 26.67 1.59 26.90 3.17 27.15 4.76 L 26.32 4.96 C 24.09 5.48 21.85 5.95 19.61 6.44 C 19.34 5.50 18.79 3.62 18.52 2.67 C 17.43 3.96 16.32 5.22 15.27 6.53 C 14.34 6.28 13.42 6.02 12.49 5.78 C 11.83 3.84 11.16 1.90 10.39 0.00 Z" />
</g>
<g id="#6a9758fe">
<path fill="#6a9758" opacity="1.00" d=" M 26.45 0.00 L 27.83 0.00 C 28.68 1.23 29.50 2.48 30.35 3.71 C 29.79 4.00 28.66 4.58 28.10 4.87 L 27.15 4.76 C 26.90 3.17 26.67 1.59 26.45 0.00 Z" />
<path fill="#6a9758" opacity="1.00" d=" M 82.45 0.00 L 83.82 0.00 C 84.68 1.23 85.49 2.48 86.35 3.71 C 85.79 4.01 84.67 4.62 84.12 4.93 L 83.16 4.85 C 82.91 3.24 82.67 1.62 82.45 0.00 Z" />
<path fill="#6a9758" opacity="1.00" d=" M 138.45 0.00 L 139.82 0.00 C 140.68 1.23 141.49 2.48 142.35 3.71 C 141.79 4.01 140.67 4.62 140.12 4.93 L 139.16 4.85 C 138.91 3.24 138.67 1.62 138.45 0.00 Z" />
<path fill="#6a9758" opacity="1.00" d=" M 194.45 0.00 L 195.82 0.00 C 196.68 1.23 197.49 2.48 198.35 3.71 C 197.79 4.01 196.67 4.62 196.11 4.92 L 195.16 4.85 C 194.91 3.23 194.67 1.62 194.45 0.00 Z" />
</g>
<g id="#84ab5bff">
<path fill="#84ab5b" opacity="1.00" d=" M 27.83 0.00 L 31.09 0.00 C 32.52 0.35 35.39 1.06 36.82 1.42 C 37.93 0.93 39.05 0.46 40.17 0.00 L 45.62 0.00 C 44.79 2.01 44.06 4.05 43.32 6.09 C 45.80 5.33 48.31 4.68 50.84 4.10 C 49.37 5.82 47.84 7.48 46.24 9.08 C 45.07 8.66 43.90 8.27 42.71 7.92 C 41.09 6.06 39.29 4.37 37.49 2.70 C 37.08 3.69 36.28 5.66 35.88 6.65 C 34.26 6.03 32.65 5.40 31.07 4.70 C 30.89 4.45 30.53 3.96 30.35 3.71 C 29.50 2.48 28.68 1.23 27.83 0.00 Z" />
<path fill="#84ab5b" opacity="1.00" d=" M 83.82 0.00 L 87.09 0.00 C 88.52 0.35 91.39 1.06 92.82 1.42 C 93.93 0.93 95.05 0.46 96.17 -0.00 L 101.62 0.00 C 100.79 2.01 100.06 4.05 99.32 6.09 C 101.80 5.33 104.31 4.68 106.84 4.10 C 105.37 5.82 103.84 7.48 102.24 9.08 C 101.07 8.66 99.90 8.27 98.71 7.92 C 97.09 6.06 95.29 4.37 93.49 2.70 C 93.08 3.69 92.28 5.66 91.88 6.65 C 90.26 6.03 88.65 5.40 87.07 4.70 C 86.89 4.45 86.53 3.96 86.35 3.71 C 85.49 2.48 84.68 1.23 83.82 0.00 Z" />
<path fill="#84ab5b" opacity="1.00" d=" M 139.82 0.00 L 143.09 0.00 C 144.52 0.35 147.39 1.06 148.82 1.42 C 149.93 0.93 151.05 0.46 152.17 0.00 L 157.62 0.00 C 156.79 2.01 156.06 4.05 155.32 6.09 C 157.80 5.33 160.31 4.68 162.84 4.10 C 161.37 5.82 159.84 7.48 158.24 9.08 C 157.07 8.66 155.90 8.27 154.71 7.92 C 153.09 6.06 151.29 4.37 149.49 2.70 C 149.08 3.69 148.28 5.66 147.88 6.65 C 146.26 6.03 144.65 5.40 143.07 4.70 C 142.89 4.45 142.53 3.96 142.35 3.71 C 141.49 2.48 140.68 1.23 139.82 0.00 Z" />
<path fill="#84ab5b" opacity="1.00" d=" M 195.82 0.00 L 199.09 0.00 C 200.52 0.35 203.39 1.06 204.82 1.42 C 205.93 0.93 207.05 0.46 208.17 0.00 L 213.62 0.00 C 212.79 2.01 212.06 4.05 211.32 6.09 C 213.80 5.33 216.31 4.68 218.84 4.10 C 217.37 5.82 215.84 7.48 214.24 9.08 C 213.07 8.66 211.89 8.27 210.71 7.92 C 209.09 6.06 207.29 4.37 205.49 2.70 C 205.08 3.69 204.28 5.66 203.88 6.65 C 202.26 6.03 200.65 5.40 199.07 4.70 C 198.89 4.45 198.53 3.96 198.35 3.71 C 197.49 2.48 196.68 1.23 195.82 0.00 Z" />
</g>
<g id="#729e59fe">
<path fill="#729e59" opacity="1.00" d=" M 31.09 0.00 L 40.17 0.00 C 39.05 0.46 37.93 0.93 36.82 1.42 C 35.39 1.06 32.52 0.35 31.09 0.00 Z" />
<path fill="#729e59" opacity="1.00" d=" M 87.09 0.00 L 96.17 0.00 C 95.05 0.46 93.93 0.93 92.82 1.42 C 91.39 1.06 88.52 0.35 87.09 0.00 Z" />
<path fill="#729e59" opacity="1.00" d=" M 143.09 0.00 L 152.17 0.00 C 151.05 0.46 149.93 0.93 148.82 1.42 C 147.39 1.06 144.52 0.35 143.09 0.00 Z" />
<path fill="#729e59" opacity="1.00" d=" M 199.09 0.00 L 208.17 0.00 C 207.05 0.46 205.93 0.93 204.82 1.42 C 203.39 1.06 200.52 0.35 199.09 0.00 Z" />
</g>
<g id="#65925eff">
<path fill="#65925e" opacity="1.00" d=" M 45.62 0.00 L 47.71 0.00 C 47.01 1.12 46.33 2.24 45.66 3.38 C 47.17 2.28 48.62 1.12 50.11 0.00 L 50.96 0.00 C 51.63 4.15 51.92 8.34 52.53 12.49 C 51.13 11.68 49.73 10.87 48.31 10.09 C 47.63 9.73 46.94 9.39 46.24 9.08 C 47.84 7.48 49.37 5.82 50.84 4.10 C 48.31 4.68 45.80 5.33 43.32 6.09 C 44.06 4.05 44.79 2.01 45.62 0.00 Z" />
<path fill="#65925e" opacity="1.00" d=" M 101.62 0.00 L 103.71 0.00 C 103.01 1.12 102.32 2.24 101.66 3.38 C 103.17 2.28 104.62 1.12 106.11 0.00 L 106.96 0.00 C 107.63 4.15 107.92 8.34 108.53 12.49 C 107.13 11.68 105.73 10.87 104.32 10.09 C 103.64 9.73 102.95 9.39 102.24 9.08 C 103.84 7.48 105.37 5.82 106.84 4.10 C 104.31 4.68 101.80 5.33 99.32 6.09 C 100.06 4.05 100.79 2.01 101.62 0.00 Z" />
<path fill="#65925e" opacity="1.00" d=" M 157.62 0.00 L 159.71 0.00 C 159.01 1.12 158.32 2.24 157.66 3.38 C 159.17 2.28 160.62 1.12 162.11 0.00 L 162.96 0.00 C 163.63 4.15 163.92 8.34 164.53 12.49 C 163.13 11.68 161.73 10.87 160.31 10.09 C 159.63 9.73 158.94 9.39 158.24 9.08 C 159.84 7.48 161.37 5.82 162.84 4.10 C 160.31 4.68 157.80 5.33 155.32 6.09 C 156.06 4.05 156.79 2.01 157.62 0.00 Z" />
<path fill="#65925e" opacity="1.00" d=" M 213.62 0.00 L 215.69 0.00 C 215.00 1.12 214.32 2.25 213.67 3.39 C 215.16 2.28 216.60 1.12 218.08 0.00 L 218.90 0.00 C 219.63 4.14 219.92 8.34 220.54 12.50 C 219.13 11.68 217.73 10.87 216.30 10.09 C 215.62 9.73 214.94 9.39 214.24 9.08 C 215.84 7.48 217.37 5.82 218.84 4.10 C 216.31 4.68 213.80 5.33 211.32 6.09 C 212.06 4.05 212.79 2.01 213.62 0.00 Z" />
</g>
<g id="#8ab363ff">
<path fill="#8ab363" opacity="1.00" d=" M 50.96 0.00 L 53.02 0.00 C 56.28 2.94 58.25 2.94 58.94 0.00 L 62.82 0.00 C 60.82 1.64 58.81 3.29 56.66 4.73 C 56.50 5.42 56.18 6.81 56.02 7.50 C 55.68 5.90 55.28 4.32 54.89 2.73 C 53.87 4.77 52.83 6.80 51.81 8.83 C 53.17 8.64 54.54 8.45 55.91 8.26 C 55.74 9.36 55.58 10.45 55.41 11.54 C 55.01 12.64 54.56 13.73 54.13 14.82 C 53.08 14.44 51.99 14.27 50.87 14.32 L 50.62 13.89 C 49.87 12.62 49.12 11.34 48.31 10.09 C 49.73 10.87 51.13 11.68 52.53 12.49 C 51.92 8.34 51.63 4.15 50.96 0.00 Z" />
<path fill="#8ab363" opacity="1.00" d=" M 106.96 0.00 L 109.02 0.00 C 112.28 2.94 114.25 2.94 114.94 0.00 L 118.82 0.00 C 116.82 1.64 114.81 3.29 112.66 4.73 C 112.48 5.42 112.14 6.81 111.97 7.50 C 111.64 5.90 111.27 4.32 110.91 2.73 C 109.87 4.76 108.83 6.79 107.80 8.83 C 109.17 8.64 110.53 8.45 111.90 8.27 C 111.80 9.35 111.70 10.43 111.60 11.50 C 111.12 12.62 110.61 13.72 110.10 14.81 C 109.06 14.43 107.98 14.27 106.86 14.32 L 106.62 13.89 C 105.87 12.62 105.12 11.34 104.32 10.09 C 105.73 10.87 107.13 11.68 108.53 12.49 C 107.92 8.34 107.63 4.15 106.96 0.00 Z" />
<path fill="#8ab363" opacity="1.00" d=" M 162.96 0.00 L 165.02 0.00 C 168.27 2.94 170.25 2.94 170.94 0.00 L 174.82 0.00 C 172.82 1.64 170.81 3.29 168.66 4.73 C 168.50 5.42 168.18 6.81 168.02 7.50 C 167.68 5.90 167.27 4.32 166.89 2.73 C 165.87 4.77 164.83 6.80 163.81 8.83 C 165.17 8.64 166.54 8.45 167.91 8.26 C 167.74 9.36 167.58 10.45 167.41 11.54 C 167.01 12.64 166.56 13.73 166.13 14.82 C 165.08 14.44 163.99 14.27 162.87 14.32 L 162.63 13.89 C 161.87 12.62 161.11 11.34 160.31 10.09 C 161.73 10.87 163.13 11.68 164.53 12.49 C 163.92 8.34 163.63 4.15 162.96 0.00 Z" />
</g>
<g id="#6f9a52ff">
<path fill="#6f9a52" opacity="1.00" d=" M 53.02 0.00 L 58.94 0.00 C 58.25 2.94 56.28 2.94 53.02 0.00 Z" />
<path fill="#6f9a52" opacity="1.00" d=" M 109.02 0.00 L 114.94 0.00 C 114.25 2.94 112.28 2.94 109.02 0.00 Z" />
<path fill="#6f9a52" opacity="1.00" d=" M 165.02 0.00 L 170.94 0.00 C 170.25 2.94 168.27 2.94 165.02 0.00 Z" />
</g>
<g id="#7fa75aff">
<path fill="#7fa75a" opacity="1.00" d=" M 66.32 0.00 L 82.45 0.00 C 82.67 1.62 82.91 3.24 83.16 4.85 L 82.33 5.05 C 80.18 5.47 78.02 5.83 75.84 6.01 C 74.44 5.64 73.05 5.22 71.67 4.80 C 71.48 5.10 71.11 5.68 70.92 5.97 C 70.49 6.32 69.62 7.01 69.19 7.35 C 69.07 7.02 68.84 6.36 68.72 6.03 C 67.96 4.01 67.19 1.98 66.32 0.00 Z" />
<path fill="#7fa75a" opacity="1.00" d=" M 122.32 0.00 L 138.45 0.00 C 138.67 1.62 138.91 3.24 139.16 4.85 L 138.32 5.04 C 136.20 5.47 134.06 5.84 131.89 6.03 C 130.47 5.65 129.07 5.23 127.66 4.80 C 127.48 5.09 127.10 5.68 126.92 5.97 C 126.49 6.32 125.62 7.01 125.19 7.35 C 125.07 7.02 124.84 6.36 124.72 6.03 C 123.96 4.01 123.19 1.98 122.32 0.00 Z" />
<path fill="#7fa75a" opacity="1.00" d=" M 178.32 0.00 L 194.45 0.00 C 194.67 1.62 194.91 3.23 195.16 4.85 L 194.32 5.04 C 192.22 5.47 190.11 5.86 187.98 6.07 C 186.53 5.68 185.09 5.23 183.66 4.79 C 183.47 5.08 183.10 5.67 182.91 5.96 C 182.48 6.31 181.62 7.00 181.18 7.35 C 181.07 7.02 180.84 6.36 180.72 6.03 C 179.96 4.01 179.19 1.98 178.32 0.00 Z" />
</g>
<g id="#8ab362ff">
<path fill="#8ab362" opacity="1.00" d=" M 218.90 0.00 L 224.00 0.00 L 224.00 5.65 C 223.79 4.86 223.36 3.28 223.15 2.49 C 221.99 4.63 220.85 6.77 219.73 8.93 C 221.15 8.60 222.58 8.26 224.00 7.92 L 224.00 9.08 C 223.40 10.98 222.70 12.85 222.01 14.71 C 221.00 14.49 219.98 14.39 218.94 14.40 L 218.66 13.92 C 217.89 12.63 217.12 11.34 216.30 10.09 C 217.73 10.87 219.13 11.68 220.54 12.50 C 219.92 8.34 219.63 4.14 218.90 0.00 Z" />
</g>
<g id="#5f8d63ff">
<path fill="#5f8d63" opacity="1.00" d=" M 15.27 6.53 C 16.32 5.22 17.43 3.96 18.52 2.67 C 18.79 3.62 19.34 5.50 19.61 6.44 C 17.99 6.69 16.38 6.94 14.76 7.19 L 15.27 6.53 Z" />
</g>
<g id="#608660fe">
<path fill="#608660" opacity="1.00" d=" M 37.49 2.70 C 39.29 4.37 41.09 6.06 42.71 7.92 C 40.45 7.38 38.16 7.02 35.88 6.65 C 36.28 5.66 37.08 3.69 37.49 2.70 Z" />
<path fill="#608660" opacity="1.00" d=" M 93.49 2.70 C 95.29 4.37 97.09 6.06 98.71 7.92 C 96.45 7.38 94.16 7.02 91.88 6.65 C 92.28 5.66 93.08 3.69 93.49 2.70 Z" />
<path fill="#608660" opacity="1.00" d=" M 149.49 2.70 C 151.29 4.37 153.09 6.06 154.71 7.92 C 152.45 7.38 150.16 7.02 147.88 6.65 C 148.28 5.66 149.08 3.69 149.49 2.70 Z" />
<path fill="#608660" opacity="1.00" d=" M 205.49 2.70 C 207.29 4.37 209.09 6.06 210.71 7.92 C 208.45 7.38 206.16 7.02 203.88 6.65 C 204.28 5.66 205.08 3.69 205.49 2.70 Z" />
</g>
<g id="#6b995aff">
<path fill="#6b995a" opacity="1.00" d=" M 51.81 8.83 C 52.83 6.80 53.87 4.77 54.89 2.73 C 55.28 4.32 55.68 5.90 56.02 7.50 L 55.91 8.26 C 54.54 8.45 53.17 8.64 51.81 8.83 Z" />
<path fill="#6b995a" opacity="1.00" d=" M 107.80 8.83 C 108.83 6.79 109.87 4.76 110.91 2.73 C 111.27 4.32 111.64 5.90 111.97 7.50 L 111.90 8.27 C 110.53 8.45 109.17 8.64 107.80 8.83 Z" />
<path fill="#6b995a" opacity="1.00" d=" M 163.81 8.83 C 164.83 6.80 165.87 4.77 166.89 2.73 C 167.27 4.32 167.68 5.90 168.02 7.50 L 167.91 8.26 C 166.54 8.45 165.17 8.64 163.81 8.83 Z" />
</g>
<g id="#6c9a5cff">
<path fill="#6c9a5c" opacity="1.00" d=" M 219.73 8.93 C 220.85 6.77 221.99 4.63 223.15 2.49 C 223.36 3.28 223.79 4.86 224.00 5.65 L 224.00 7.92 C 222.58 8.26 221.15 8.60 219.73 8.93 Z" />
</g>
<g id="#8fb263fe">
<path fill="#8fb263" opacity="1.00" d=" M 4.77 4.35 C 7.12 4.69 9.47 5.06 11.78 5.60 L 11.07 6.32 C 10.18 6.99 9.29 7.65 8.39 8.30 C 7.18 6.98 5.97 5.67 4.77 4.35 Z" />
<path fill="#8fb263" opacity="1.00" d=" M 60.78 4.34 C 63.21 4.75 65.63 5.22 68.01 5.85 L 67.20 6.31 C 66.17 6.88 65.15 7.44 64.13 8.01 C 63.01 6.79 61.90 5.56 60.78 4.34 Z" />
<path fill="#8fb263" opacity="1.00" d=" M 116.78 4.34 C 119.21 4.75 121.63 5.22 124.00 5.85 L 123.20 6.31 C 122.17 6.88 121.15 7.44 120.13 8.01 C 119.01 6.79 117.90 5.56 116.78 4.34 Z" />
<path fill="#8fb263" opacity="1.00" d=" M 172.78 4.34 C 175.21 4.75 177.63 5.22 180.01 5.85 L 179.20 6.31 C 178.17 6.88 177.15 7.44 176.13 8.01 C 175.01 6.79 173.89 5.56 172.78 4.34 Z" />
</g>
<g id="#565249ff">
<path fill="#565249" opacity="1.00" d=" M 28.10 4.87 C 28.66 4.58 29.79 4.00 30.35 3.71 C 30.53 3.96 30.89 4.45 31.07 4.70 C 30.56 5.06 29.52 5.79 29.00 6.15 C 28.77 5.83 28.33 5.19 28.10 4.87 Z" />
<path fill="#565249" opacity="1.00" d=" M 84.12 4.93 C 84.67 4.62 85.79 4.01 86.35 3.71 C 86.53 3.96 86.89 4.45 87.07 4.70 C 86.56 5.07 85.54 5.81 85.02 6.19 C 84.80 5.87 84.34 5.24 84.12 4.93 Z" />
<path fill="#565249" opacity="1.00" d=" M 140.12 4.93 C 140.67 4.62 141.79 4.01 142.35 3.71 C 142.53 3.96 142.89 4.45 143.07 4.70 C 142.56 5.07 141.54 5.81 141.02 6.18 C 140.80 5.87 140.34 5.24 140.12 4.93 Z" />
<path fill="#565249" opacity="1.00" d=" M 196.11 4.92 C 196.67 4.62 197.79 4.01 198.35 3.71 C 198.53 3.96 198.89 4.45 199.07 4.70 C 198.56 5.07 197.53 5.81 197.02 6.18 C 196.79 5.87 196.34 5.24 196.11 4.92 Z" />
</g>
<g id="#5f9368ff">
<path fill="#5f9368" opacity="1.00" d=" M 71.67 4.80 C 73.05 5.22 74.44 5.64 75.84 6.01 C 74.02 6.34 72.21 6.65 70.38 6.91 L 70.92 5.97 C 71.11 5.68 71.48 5.10 71.67 4.80 Z" />
<path fill="#5f9368" opacity="1.00" d=" M 127.66 4.80 C 129.07 5.23 130.47 5.65 131.89 6.03 C 130.06 6.35 128.23 6.65 126.38 6.91 L 126.92 5.97 C 127.10 5.68 127.48 5.09 127.66 4.80 Z" />
<path fill="#5f9368" opacity="1.00" d=" M 183.66 4.79 C 185.09 5.23 186.53 5.68 187.98 6.07 C 186.12 6.37 184.25 6.66 182.38 6.90 L 182.91 5.96 C 183.10 5.67 183.47 5.08 183.66 4.79 Z" />
</g>
<g id="#363933ff">
<path fill="#363933" opacity="1.00" d=" M 1.24 4.84 C 2.81 5.76 4.36 6.70 5.89 7.68 C 2.57 11.43 0.12 16.32 2.72 21.20 C 2.23 21.35 1.23 21.65 0.74 21.79 L 0.00 21.70 L 0.00 6.21 C 0.31 5.87 0.93 5.18 1.24 4.84 Z" />
</g>
<g id="#cfcc89ff">
<path fill="#cfcc89" opacity="1.00" d=" M 19.61 6.44 C 21.85 5.95 24.09 5.48 26.32 4.96 C 25.63 6.77 27.97 7.20 29.00 6.15 C 29.52 5.79 30.56 5.06 31.07 4.70 C 32.65 5.40 34.26 6.03 35.88 6.65 C 38.93 11.88 45.05 13.20 50.62 13.89 L 50.87 14.32 C 51.65 16.20 53.60 16.98 55.30 17.81 C 55.40 18.08 55.60 18.63 55.70 18.90 C 55.85 19.33 56.17 20.20 56.33 20.63 C 56.29 21.37 56.25 22.11 56.21 22.84 C 55.55 23.20 54.23 23.92 53.57 24.28 C 53.35 22.08 53.09 19.88 52.91 17.67 C 51.73 17.59 50.56 17.52 49.39 17.42 C 48.94 17.36 48.02 17.26 47.56 17.20 C 43.12 14.67 38.67 12.12 33.87 10.30 C 33.85 10.90 33.80 12.09 33.77 12.69 C 30.42 11.41 27.04 10.17 23.72 8.81 C 23.52 10.36 23.32 11.90 23.09 13.44 C 22.80 12.63 22.21 10.99 21.92 10.17 C 19.96 11.26 17.98 12.30 16.08 13.50 C 15.72 13.77 15.01 14.30 14.65 14.57 C 14.86 14.23 15.28 13.54 15.49 13.19 C 16.85 10.93 18.28 8.72 19.61 6.44 Z" />
<path fill="#cfcc89" opacity="1.00" d=" M 75.84 6.01 C 78.02 5.83 80.18 5.47 82.33 5.05 C 81.63 6.86 84.02 7.27 85.02 6.19 C 85.54 5.81 86.56 5.07 87.07 4.70 C 88.65 5.40 90.26 6.03 91.88 6.65 C 94.94 11.88 101.04 13.20 106.62 13.89 L 106.86 14.32 C 107.65 16.17 109.54 17.00 111.20 17.89 C 111.41 18.08 111.82 18.46 112.02 18.66 L 112.07 19.40 L 112.12 20.11 C 112.15 21.03 112.17 21.96 112.17 22.88 C 111.52 23.23 110.22 23.93 109.57 24.28 C 109.34 22.00 109.07 19.73 108.88 17.44 C 107.76 17.45 106.64 17.48 105.52 17.48 C 105.01 17.47 104.00 17.45 103.50 17.44 C 99.31 14.43 94.68 12.12 89.87 10.31 C 89.84 10.91 89.80 12.10 89.77 12.69 C 86.42 11.41 83.04 10.17 79.72 8.81 C 79.52 10.36 79.32 11.90 79.09 13.44 C 78.80 12.64 78.22 11.04 77.93 10.24 C 75.92 11.43 73.91 12.59 71.96 13.87 C 71.67 14.12 71.09 14.60 70.80 14.85 C 70.91 14.32 71.11 13.27 71.22 12.74 C 72.70 10.46 74.33 8.28 75.84 6.01 Z" />
<path fill="#cfcc89" opacity="1.00" d=" M 131.89 6.03 C 134.06 5.84 136.20 5.47 138.32 5.04 C 137.63 6.86 140.02 7.26 141.02 6.18 C 141.54 5.81 142.56 5.07 143.07 4.70 C 144.65 5.40 146.26 6.03 147.88 6.65 C 150.94 11.88 157.05 13.20 162.63 13.89 L 162.87 14.32 C 163.65 16.20 165.60 16.98 167.30 17.81 C 167.40 18.08 167.59 18.63 167.69 18.90 C 167.85 19.33 168.16 20.20 168.32 20.63 C 168.28 21.37 168.25 22.11 168.22 22.84 C 167.54 23.21 166.19 23.93 165.51 24.30 C 165.31 22.09 165.10 19.89 164.93 17.68 C 163.61 17.59 162.29 17.51 160.97 17.38 C 160.00 17.11 159.05 16.80 158.11 16.45 C 154.13 14.22 150.14 11.98 145.90 10.27 C 145.86 10.88 145.80 12.09 145.77 12.69 C 142.41 11.41 139.04 10.17 135.72 8.81 C 135.52 10.35 135.32 11.89 135.08 13.43 C 134.81 12.66 134.27 11.12 134.00 10.35 C 131.91 11.44 129.86 12.53 127.83 13.71 C 127.55 13.91 126.98 14.30 126.70 14.49 C 126.81 14.06 127.04 13.21 127.16 12.78 C 128.83 10.60 130.38 8.32 131.89 6.03 Z" />
</g>
<g id="#b6ad6fff">
<path fill="#b6ad6f" opacity="1.00" d=" M 26.32 4.96 L 27.15 4.76 L 28.10 4.87 C 28.33 5.19 28.77 5.83 29.00 6.15 C 27.97 7.20 25.63 6.77 26.32 4.96 Z" />
<path fill="#b6ad6f" opacity="1.00" d=" M 82.33 5.05 L 83.16 4.85 L 84.12 4.93 C 84.34 5.24 84.80 5.87 85.02 6.19 C 84.02 7.27 81.63 6.86 82.33 5.05 Z" />
<path fill="#b6ad6f" opacity="1.00" d=" M 138.32 5.04 L 139.16 4.85 L 140.12 4.93 C 140.34 5.24 140.80 5.87 141.02 6.18 C 140.02 7.26 137.63 6.86 138.32 5.04 Z" />
<path fill="#b6ad6f" opacity="1.00" d=" M 194.32 5.04 L 195.16 4.85 L 196.11 4.92 C 196.34 5.24 196.79 5.87 197.02 6.18 C 196.02 7.26 193.63 6.86 194.32 5.04 Z" />
<path fill="#b6ad6f" opacity="1.00" d=" M 71.96 13.87 C 72.18 14.31 72.62 15.19 72.84 15.63 L 72.46 16.27 C 72.07 16.35 71.28 16.51 70.89 16.60 C 70.87 16.16 70.82 15.29 70.80 14.85 C 71.09 14.60 71.67 14.12 71.96 13.87 Z" />
<path fill="#b6ad6f" opacity="1.00" d=" M 127.83 13.71 C 128.08 14.16 128.58 15.05 128.83 15.49 L 128.36 16.19 C 127.89 16.15 126.94 16.08 126.46 16.04 C 126.52 15.65 126.64 14.88 126.70 14.49 C 126.98 14.30 127.55 13.91 127.83 13.71 Z" />
<path fill="#b6ad6f" opacity="1.00" d=" M 183.95 13.78 C 184.68 14.55 184.80 15.39 184.31 16.31 C 183.97 16.38 183.29 16.52 182.95 16.59 C 182.90 16.14 182.79 15.26 182.74 14.82 C 183.04 14.56 183.65 14.04 183.95 13.78 Z" />
</g>
<g id="#333531ff">
<path fill="#333531" opacity="1.00" d=" M 56.66 4.73 C 58.43 5.67 60.19 6.65 61.96 7.60 C 59.06 11.11 56.10 15.51 58.63 20.09 C 58.06 20.23 56.90 20.50 56.33 20.63 C 56.17 20.20 55.85 19.33 55.70 18.90 C 55.62 17.06 55.48 13.38 55.41 11.54 C 55.58 10.45 55.74 9.36 55.91 8.26 L 56.02 7.50 C 56.18 6.81 56.50 5.42 56.66 4.73 Z" />
<path fill="#333531" opacity="1.00" d=" M 168.66 4.73 C 170.43 5.67 172.19 6.65 173.96 7.60 C 171.06 11.11 168.10 15.50 170.63 20.09 C 170.05 20.23 168.90 20.50 168.32 20.63 C 168.16 20.20 167.85 19.33 167.69 18.90 C 167.62 17.06 167.48 13.38 167.41 11.54 C 167.58 10.45 167.74 9.36 167.91 8.26 L 168.02 7.50 C 168.18 6.81 168.50 5.42 168.66 4.73 Z" />
</g>
<g id="#322e29ff">
<path fill="#322e29" opacity="1.00" d=" M 112.66 4.73 C 114.41 5.66 116.15 6.63 117.90 7.57 C 115.36 11.19 113.41 15.19 112.07 19.40 L 112.02 18.66 C 111.92 16.87 111.70 13.29 111.60 11.50 C 111.70 10.43 111.80 9.35 111.90 8.27 L 111.97 7.50 C 112.14 6.81 112.48 5.42 112.66 4.73 Z" />
</g>
<g id="#d0cc89ff">
<path fill="#d0cc89" opacity="1.00" d=" M 187.98 6.07 C 190.11 5.86 192.22 5.47 194.32 5.04 C 193.63 6.86 196.02 7.26 197.02 6.18 C 197.53 5.81 198.56 5.07 199.07 4.70 C 200.65 5.40 202.26 6.03 203.88 6.65 C 206.94 11.90 213.08 13.19 218.66 13.92 L 218.94 14.40 C 219.71 16.20 221.46 17.16 223.27 17.64 C 223.45 18.34 223.82 19.76 224.00 20.46 L 224.00 22.83 C 223.38 23.19 222.14 23.91 221.52 24.28 C 221.28 22.00 221.07 19.72 220.88 17.44 C 219.76 17.45 218.64 17.48 217.52 17.48 C 217.01 17.47 216.00 17.45 215.50 17.44 C 211.31 14.43 206.68 12.12 201.87 10.31 C 201.84 10.91 201.80 12.10 201.77 12.69 C 198.42 11.41 195.04 10.17 191.72 8.81 C 191.52 10.35 191.32 11.89 191.09 13.43 C 190.81 12.64 190.24 11.06 189.96 10.28 C 187.92 11.41 185.93 12.56 183.95 13.78 C 183.65 14.04 183.04 14.56 182.74 14.82 C 182.77 14.23 182.82 13.06 182.85 12.47 C 184.62 10.39 186.38 8.29 187.98 6.07 Z" />
</g>
<g id="#675a4aff">
<path fill="#675a4a" opacity="1.00" d=" M 11.78 5.60 L 12.49 5.78 C 13.42 6.02 14.34 6.28 15.27 6.53 L 14.76 7.19 C 13.20 9.39 11.75 11.66 10.18 13.85 C 11.64 13.73 13.10 13.60 14.56 13.44 C 13.68 13.79 12.81 14.17 11.94 14.55 C 12.13 15.78 12.32 17.01 12.46 18.25 C 12.46 19.04 12.47 19.83 12.49 20.62 L 12.51 21.35 C 11.39 21.04 10.41 21.32 9.57 22.17 L 8.87 22.71 C 10.23 19.68 6.76 18.72 4.78 20.44 L 4.24 20.66 L 2.72 21.20 C 0.12 16.32 2.57 11.43 5.89 7.68 C 6.47 8.04 7.62 8.78 8.20 9.15 C 7.28 10.72 7.05 12.97 8.74 14.12 C 7.49 14.59 6.25 15.04 5.00 15.50 C 5.74 16.28 6.47 17.05 7.21 17.83 C 7.92 17.54 8.62 17.24 9.32 16.93 C 9.29 15.94 9.26 14.94 9.23 13.94 C 9.27 12.40 9.09 10.85 8.58 9.38 C 9.40 8.35 10.23 7.33 11.07 6.32 L 11.78 5.60 Z" />
</g>
<g id="#b0a66afe">
<path fill="#b0a66a" opacity="1.00" d=" M 14.76 7.19 C 16.38 6.94 17.99 6.69 19.61 6.44 C 18.28 8.72 16.85 10.93 15.49 13.19 L 14.56 13.44 C 13.10 13.60 11.64 13.73 10.18 13.85 C 11.75 11.66 13.20 9.39 14.76 7.19 Z" />
<path fill="#b0a66a" opacity="1.00" d=" M 70.38 6.91 C 72.21 6.65 74.02 6.34 75.84 6.01 C 74.33 8.28 72.70 10.46 71.22 12.74 L 69.97 13.06 C 68.79 13.35 67.61 13.62 66.43 13.89 C 67.81 11.60 69.11 9.26 70.38 6.91 Z" />
<path fill="#b0a66a" opacity="1.00" d=" M 126.38 6.91 C 128.23 6.65 130.06 6.35 131.89 6.03 C 130.38 8.32 128.83 10.60 127.16 12.78 L 126.46 13.25 C 125.10 13.54 123.74 13.79 122.37 14.02 C 123.76 11.68 125.09 9.30 126.38 6.91 Z" />
<path fill="#b0a66a" opacity="1.00" d=" M 182.38 6.90 C 184.25 6.66 186.12 6.37 187.98 6.07 C 186.38 8.29 184.62 10.39 182.85 12.47 L 182.32 13.09 C 181.01 13.43 179.70 13.75 178.38 14.06 C 179.76 11.70 181.09 9.31 182.38 6.90 Z" />
</g>
<g id="#b5ac6eff">
<path fill="#b5ac6e" opacity="1.00" d=" M 35.88 6.65 C 38.16 7.02 40.45 7.38 42.71 7.92 C 43.90 8.27 45.07 8.66 46.24 9.08 C 46.94 9.39 47.63 9.73 48.31 10.09 C 49.12 11.34 49.87 12.62 50.62 13.89 C 45.05 13.20 38.93 11.88 35.88 6.65 Z" />
<path fill="#b5ac6e" opacity="1.00" d=" M 91.88 6.65 C 94.16 7.02 96.45 7.38 98.71 7.92 C 99.90 8.27 101.07 8.66 102.24 9.08 C 102.95 9.39 103.64 9.73 104.32 10.09 C 105.12 11.34 105.87 12.62 106.62 13.89 C 101.04 13.20 94.94 11.88 91.88 6.65 Z" />
<path fill="#b5ac6e" opacity="1.00" d=" M 147.88 6.65 C 150.16 7.02 152.45 7.38 154.71 7.92 C 155.90 8.27 157.07 8.66 158.24 9.08 C 158.94 9.39 159.63 9.73 160.31 10.09 C 161.11 11.34 161.87 12.62 162.63 13.89 C 157.05 13.20 150.94 11.88 147.88 6.65 Z" />
<path fill="#b5ac6e" opacity="1.00" d=" M 203.88 6.65 C 206.16 7.02 208.45 7.38 210.71 7.92 C 211.89 8.27 213.07 8.66 214.24 9.08 C 214.94 9.39 215.62 9.73 216.30 10.09 C 217.12 11.34 217.89 12.63 218.66 13.92 C 213.08 13.19 206.94 11.90 203.88 6.65 Z" />
</g>
<g id="#4f4a42ff">
<path fill="#4f4a42" opacity="1.00" d=" M 68.01 5.85 L 68.72 6.03 C 68.84 6.36 69.07 7.02 69.19 7.35 C 68.27 8.18 67.03 8.44 65.88 8.76 C 66.21 8.15 66.87 6.92 67.20 6.31 L 68.01 5.85 Z" />
<path fill="#4f4a42" opacity="1.00" d=" M 124.00 5.85 L 124.72 6.03 C 124.84 6.36 125.07 7.02 125.19 7.35 C 124.27 8.18 123.03 8.44 121.88 8.76 C 122.21 8.15 122.87 6.92 123.20 6.31 L 124.00 5.85 Z" />
<path fill="#4f4a42" opacity="1.00" d=" M 180.01 5.85 L 180.72 6.03 C 180.84 6.36 181.07 7.02 181.18 7.35 C 180.27 8.18 179.03 8.44 177.88 8.76 C 178.21 8.15 178.87 6.92 179.20 6.31 L 180.01 5.85 Z" />
</g>
<g id="#6b5f4dff">
<path fill="#6b5f4d" opacity="1.00" d=" M 69.19 7.35 C 69.62 7.01 70.49 6.32 70.92 5.97 L 70.38 6.91 C 69.11 9.26 67.81 11.60 66.43 13.89 C 67.61 13.62 68.79 13.35 69.97 13.06 C 69.21 14.37 68.53 15.72 68.16 17.19 C 68.29 18.45 68.43 19.70 68.59 20.95 C 67.56 19.96 66.12 20.58 65.29 21.48 L 64.50 22.07 L 64.53 21.51 C 64.54 20.92 64.57 19.75 64.58 19.17 C 64.64 17.41 64.79 15.65 64.98 13.91 C 65.24 12.29 65.32 10.63 64.98 9.02 L 65.88 8.76 C 67.03 8.44 68.27 8.18 69.19 7.35 Z" />
<path fill="#6b5f4d" opacity="1.00" d=" M 181.18 7.35 C 181.62 7.00 182.48 6.31 182.91 5.96 L 182.38 6.90 C 181.09 9.31 179.76 11.70 178.38 14.06 C 179.70 13.75 181.01 13.43 182.32 13.09 C 181.42 14.36 180.55 15.68 180.09 17.18 C 180.24 18.43 180.40 19.68 180.57 20.92 C 179.53 19.93 178.10 20.58 177.28 21.48 L 176.50 22.07 L 176.53 21.51 C 176.54 20.93 176.57 19.75 176.58 19.17 C 176.64 17.41 176.79 15.65 176.98 13.91 C 177.23 12.29 177.32 10.63 176.98 9.02 L 177.88 8.76 C 179.03 8.44 180.27 8.18 181.18 7.35 Z" />
</g>
<g id="#6f624eff">
<path fill="#6f624e" opacity="1.00" d=" M 125.19 7.35 C 125.62 7.01 126.49 6.32 126.92 5.97 L 126.38 6.91 C 125.09 9.30 123.76 11.68 122.37 14.02 C 123.74 13.79 125.10 13.54 126.46 13.25 C 125.54 13.86 124.63 14.46 123.71 15.06 C 124.19 16.89 124.63 18.73 125.06 20.57 C 124.47 18.90 122.45 19.43 121.53 20.46 L 120.60 21.08 L 120.64 20.53 C 120.66 19.93 120.69 18.73 120.71 18.14 C 120.74 16.72 120.85 15.31 120.99 13.91 C 121.21 12.29 121.30 10.63 120.98 9.02 L 121.88 8.76 C 123.03 8.44 124.27 8.18 125.19 7.35 Z" />
</g>
<g id="#665a4bff">
<path fill="#665a4b" opacity="1.00" d=" M 61.96 7.60 C 62.60 7.93 63.89 8.59 64.53 8.91 C 63.50 10.47 63.21 12.62 64.54 14.10 C 63.33 14.62 62.13 15.14 60.92 15.65 C 61.91 16.63 62.90 17.61 63.91 18.56 C 63.19 18.78 61.76 19.20 61.04 19.41 L 60.48 19.62 L 58.63 20.09 C 56.10 15.51 59.06 11.11 61.96 7.60 Z" />
<path fill="#665a4b" opacity="1.00" d=" M 173.96 7.60 C 174.60 7.93 175.89 8.59 176.53 8.91 C 175.50 10.47 175.20 12.62 176.54 14.10 C 175.33 14.62 174.13 15.14 172.92 15.65 C 173.91 16.63 174.90 17.61 175.91 18.57 C 175.19 18.78 173.76 19.20 173.04 19.41 L 172.48 19.62 L 170.63 20.09 C 168.10 15.50 171.06 11.11 173.96 7.60 Z" />
</g>
<g id="#655f50ff">
<path fill="#655f50" opacity="1.00" d=" M 117.90 7.57 C 118.56 7.91 119.87 8.58 120.53 8.91 C 119.49 10.47 119.20 12.62 120.53 14.11 C 119.31 14.63 118.09 15.14 116.87 15.66 C 117.88 16.31 118.89 16.97 119.91 17.62 C 119.22 17.79 117.84 18.11 117.15 18.28 L 116.65 18.42 C 115.50 18.67 113.21 19.16 112.07 19.40 C 113.41 15.19 115.36 11.19 117.90 7.57 Z" />
</g>
<g id="#332e2aff">
<path fill="#332e2a" opacity="1.00" d=" M 8.20 9.15 L 8.58 9.38 C 9.09 10.85 9.27 12.40 9.23 13.94 L 8.74 14.12 C 7.05 12.97 7.28 10.72 8.20 9.15 Z" />
<path fill="#332e2a" opacity="1.00" d=" M 64.53 8.91 L 64.98 9.02 C 65.32 10.63 65.24 12.29 64.98 13.91 L 64.54 14.10 C 63.21 12.62 63.50 10.47 64.53 8.91 Z" />
<path fill="#332e2a" opacity="1.00" d=" M 120.53 8.91 L 120.98 9.02 C 121.30 10.63 121.21 12.29 120.99 13.91 L 120.53 14.11 C 119.20 12.62 119.49 10.47 120.53 8.91 Z" />
<path fill="#332e2a" opacity="1.00" d=" M 176.53 8.91 L 176.98 9.02 C 177.32 10.63 177.23 12.29 176.98 13.91 L 176.54 14.10 C 175.20 12.62 175.50 10.47 176.53 8.91 Z" />
<path fill="#332e2a" opacity="1.00" d=" M 14.56 13.44 L 15.49 13.19 C 15.28 13.54 14.86 14.23 14.65 14.57 C 13.88 15.78 13.15 17.00 12.46 18.25 C 12.32 17.01 12.13 15.78 11.94 14.55 C 12.81 14.17 13.68 13.79 14.56 13.44 Z" />
<path fill="#332e2a" opacity="1.00" d=" M 69.97 13.06 L 71.22 12.74 C 71.11 13.27 70.91 14.32 70.80 14.85 C 70.82 15.29 70.87 16.16 70.89 16.60 C 70.21 16.74 68.85 17.04 68.16 17.19 C 68.53 15.72 69.21 14.37 69.97 13.06 Z" />
<path fill="#332e2a" opacity="1.00" d=" M 182.32 13.09 L 182.85 12.47 C 182.82 13.06 182.77 14.23 182.74 14.82 C 182.79 15.26 182.90 16.14 182.95 16.59 C 182.23 16.74 180.81 17.03 180.09 17.18 C 180.55 15.68 181.42 14.36 182.32 13.09 Z" />
<path fill="#332e2a" opacity="1.00" d=" M 117.15 18.28 C 117.84 18.11 119.22 17.79 119.91 17.62 L 120.71 18.14 C 120.69 18.73 120.66 19.93 120.64 20.53 C 119.36 19.99 118.15 19.24 117.15 18.28 Z" />
<path fill="#332e2a" opacity="1.00" d=" M 61.04 19.41 C 61.76 19.20 63.19 18.78 63.91 18.56 L 64.58 19.17 C 64.57 19.75 64.54 20.92 64.53 21.51 C 63.30 20.95 62.07 20.31 61.04 19.41 Z" />
<path fill="#332e2a" opacity="1.00" d=" M 173.04 19.41 C 173.76 19.20 175.19 18.78 175.91 18.57 L 176.58 19.17 C 176.57 19.75 176.54 20.93 176.53 21.51 C 175.29 20.95 174.07 20.31 173.04 19.41 Z" />
<path fill="#332e2a" opacity="1.00" d=" M 65.08 49.74 C 65.69 49.48 66.91 48.95 67.52 48.69 L 67.96 49.33 C 67.06 50.31 66.10 50.44 65.08 49.74 Z" />
<path fill="#332e2a" opacity="1.00" d=" M 177.08 49.74 C 177.69 49.47 178.91 48.95 179.52 48.69 L 179.96 49.33 C 179.06 50.31 178.10 50.44 177.08 49.74 Z" />
<path fill="#332e2a" opacity="1.00" d=" M 64.04 52.07 C 65.19 51.40 66.14 51.55 66.88 52.52 L 66.38 53.16 L 65.38 53.15 C 65.04 52.88 64.37 52.34 64.04 52.07 Z" />
<path fill="#332e2a" opacity="1.00" d=" M 119.88 52.13 C 120.90 51.41 121.80 51.47 122.58 52.29 L 122.35 53.07 L 121.38 53.21 C 121.00 52.94 120.26 52.40 119.88 52.13 Z" />
<path fill="#332e2a" opacity="1.00" d=" M 176.04 52.07 C 177.19 51.40 178.13 51.55 178.88 52.52 L 178.38 53.16 L 177.38 53.15 C 177.04 52.88 176.37 52.34 176.04 52.07 Z" />
</g>
<g id="#dcd78afe">
<path fill="#dcd78a" opacity="1.00" d=" M 23.72 8.81 C 27.04 10.17 30.42 11.41 33.77 12.69 C 33.80 12.09 33.85 10.90 33.87 10.30 C 38.67 12.12 43.12 14.67 47.56 17.20 C 44.26 16.83 40.99 16.18 37.70 15.72 C 36.23 15.53 33.30 15.17 31.83 14.98 C 32.48 14.91 33.76 14.77 34.41 14.70 C 32.36 13.53 30.41 12.11 28.13 11.42 C 25.04 12.68 22.58 15.06 19.65 16.60 C 18.43 17.25 17.21 17.91 16.01 18.58 C 16.02 16.89 16.06 15.19 16.08 13.50 C 17.98 12.30 19.96 11.26 21.92 10.17 C 22.21 10.99 22.80 12.63 23.09 13.44 C 23.32 11.90 23.52 10.36 23.72 8.81 Z" />
</g>
<g id="#ded98cff">
<path fill="#ded98c" opacity="1.00" d=" M 79.72 8.81 C 83.04 10.17 86.42 11.41 89.77 12.69 C 89.80 12.10 89.84 10.91 89.87 10.31 C 94.68 12.12 99.31 14.43 103.50 17.44 L 102.45 17.38 C 98.40 16.78 94.39 15.93 90.47 14.78 C 88.30 13.68 86.28 12.20 83.93 11.50 C 81.52 12.05 79.51 13.59 77.38 14.77 C 78.12 14.82 79.60 14.91 80.34 14.96 C 77.83 15.16 75.33 15.38 72.84 15.63 C 72.62 15.19 72.18 14.31 71.96 13.87 C 73.91 12.59 75.92 11.43 77.93 10.24 C 78.22 11.04 78.80 12.64 79.09 13.44 C 79.32 11.90 79.52 10.36 79.72 8.81 Z" />
</g>
<g id="#ded98bff">
<path fill="#ded98b" opacity="1.00" d=" M 135.72 8.81 C 139.04 10.17 142.41 11.41 145.77 12.69 C 145.80 12.09 145.86 10.88 145.90 10.27 C 150.14 11.98 154.13 14.22 158.11 16.45 C 153.26 15.52 148.41 14.51 143.49 14.02 C 142.57 12.74 141.63 11.46 140.70 10.18 C 138.46 11.74 136.23 13.32 134.13 15.06 C 133.18 15.88 132.27 16.74 131.36 17.59 L 130.67 18.21 C 130.04 17.31 129.42 16.41 128.83 15.49 C 128.58 15.05 128.08 14.16 127.83 13.71 C 129.86 12.53 131.91 11.44 134.00 10.35 C 134.27 11.12 134.81 12.66 135.08 13.43 C 135.32 11.89 135.52 10.35 135.72 8.81 Z" />
<path fill="#ded98b" opacity="1.00" d=" M 105.52 17.48 C 106.64 17.48 107.76 17.45 108.88 17.44 C 109.07 19.73 109.34 22.00 109.57 24.28 C 109.91 28.19 110.11 32.12 110.20 36.04 C 110.09 37.91 109.78 39.76 109.30 41.57 C 108.90 39.93 108.52 38.28 108.16 36.63 C 107.99 36.60 107.66 36.54 107.49 36.51 C 105.81 41.68 102.35 46.00 98.29 49.55 C 96.57 51.16 94.95 52.88 93.35 54.62 C 92.84 54.66 91.81 54.75 91.30 54.80 C 84.23 54.94 76.44 55.78 70.64 50.95 C 70.35 50.57 69.77 49.82 69.48 49.45 L 69.98 49.04 C 71.71 49.29 73.43 49.65 75.16 49.92 C 80.35 56.10 90.68 54.38 95.63 48.68 C 100.77 43.19 106.20 36.97 106.74 29.07 C 107.10 25.17 106.12 21.31 105.52 17.48 M 103.08 41.31 C 101.66 41.24 101.40 43.68 102.92 43.69 C 104.33 43.76 104.60 41.32 103.08 41.31 Z" />
<path fill="#ded98b" opacity="1.00" d=" M 217.52 17.48 C 218.64 17.48 219.76 17.45 220.88 17.44 C 221.07 19.72 221.28 22.00 221.52 24.28 C 221.94 28.47 222.44 32.66 223.00 36.85 C 222.41 38.43 221.82 40.01 221.25 41.60 C 220.87 39.94 220.51 38.28 220.18 36.62 C 220.01 36.59 219.66 36.54 219.49 36.51 C 217.81 41.69 214.35 46.01 210.29 49.55 C 208.56 51.16 206.94 52.88 205.35 54.62 C 204.84 54.66 203.81 54.75 203.30 54.80 C 196.23 54.94 188.44 55.78 182.64 50.95 C 182.35 50.57 181.77 49.82 181.48 49.45 L 181.98 49.04 C 183.71 49.29 185.43 49.65 187.16 49.92 C 192.35 56.10 202.68 54.38 207.63 48.68 C 212.77 43.19 218.20 36.97 218.74 29.07 C 219.10 25.17 218.12 21.31 217.52 17.48 M 215.08 41.31 C 213.66 41.24 213.39 43.68 214.92 43.69 C 216.33 43.76 216.60 41.32 215.08 41.31 Z" />
</g>
<g id="#dfd98bfe">
<path fill="#dfd98b" opacity="1.00" d=" M 191.72 8.81 C 195.04 10.17 198.42 11.41 201.77 12.69 C 201.80 12.10 201.84 10.91 201.87 10.31 C 206.68 12.12 211.31 14.43 215.50 17.44 L 214.45 17.37 C 210.39 16.75 206.37 15.91 202.40 14.90 C 199.53 13.43 196.72 11.86 193.81 10.48 C 193.56 11.42 193.07 13.30 192.82 14.23 C 194.34 14.35 195.87 14.48 197.40 14.57 C 192.76 15.58 188.13 16.62 183.57 17.93 C 183.76 17.52 184.13 16.71 184.31 16.31 C 184.80 15.39 184.68 14.55 183.95 13.78 C 185.93 12.56 187.92 11.41 189.96 10.28 C 190.24 11.06 190.81 12.64 191.09 13.43 C 191.32 11.89 191.52 10.35 191.72 8.81 Z" />
</g>
<g id="#6a9a61ff">
<path fill="#6a9a61" opacity="1.00" d=" M 222.01 14.71 C 222.70 12.85 223.40 10.98 224.00 9.08 L 224.00 20.46 C 223.82 19.76 223.45 18.34 223.27 17.64 C 223.03 16.58 222.61 15.60 222.01 14.71 Z" />
</g>
<g id="#edf1abff">
<path fill="#edf1ab" opacity="1.00" d=" M 19.65 16.60 C 22.58 15.06 25.04 12.68 28.13 11.42 C 30.41 12.11 32.36 13.53 34.41 14.70 C 33.76 14.77 32.48 14.91 31.83 14.98 C 27.75 15.37 23.70 16.00 19.65 16.60 Z" />
<path fill="#edf1ab" opacity="1.00" d=" M 86.03 50.35 C 89.29 50.29 92.52 49.64 95.63 48.68 C 90.68 54.38 80.35 56.10 75.16 49.92 C 78.52 50.19 81.88 50.26 85.26 50.35 L 86.03 50.35 Z" />
<path fill="#edf1ab" opacity="1.00" d=" M 198.03 50.35 C 201.29 50.29 204.52 49.64 207.63 48.68 C 202.68 54.38 192.35 56.10 187.16 49.92 C 190.52 50.19 193.87 50.26 197.26 50.35 L 198.03 50.35 Z" />
</g>
<g id="#eaefaafe">
<path fill="#eaefaa" opacity="1.00" d=" M 77.38 14.77 C 79.51 13.59 81.52 12.05 83.93 11.50 C 86.28 12.20 88.30 13.68 90.47 14.78 C 87.08 14.79 83.72 14.90 80.34 14.96 C 79.60 14.91 78.12 14.82 77.38 14.77 Z" />
</g>
<g id="#edf0abff">
<path fill="#edf0ab" opacity="1.00" d=" M 134.13 15.06 C 136.23 13.32 138.46 11.74 140.70 10.18 C 141.63 11.46 142.57 12.74 143.49 14.02 C 140.35 14.17 137.23 14.62 134.13 15.06 Z" />
<path fill="#edf0ab" opacity="1.00" d=" M 16.45 48.98 C 24.25 49.57 32.10 49.50 39.90 48.85 C 35.55 52.04 30.27 55.19 24.63 53.18 C 21.52 52.67 18.92 50.81 16.45 48.98 Z" />
</g>
<g id="#eaf1acff">
<path fill="#eaf1ac" opacity="1.00" d=" M 193.81 10.48 C 196.72 11.86 199.53 13.43 202.40 14.90 C 200.73 14.75 199.07 14.64 197.40 14.57 C 195.87 14.48 194.34 14.35 192.82 14.23 C 193.07 13.30 193.56 11.42 193.81 10.48 Z" />
</g>
<g id="#679761ff">
<path fill="#679761" opacity="1.00" d=" M 54.13 14.82 C 54.56 13.73 55.01 12.64 55.41 11.54 C 55.48 13.38 55.62 17.06 55.70 18.90 C 55.60 18.63 55.40 18.08 55.30 17.81 C 55.00 16.78 54.61 15.78 54.13 14.82 Z" />
<path fill="#679761" opacity="1.00" d=" M 110.10 14.81 C 110.61 13.72 111.12 12.62 111.60 11.50 C 111.70 13.29 111.92 16.87 112.02 18.66 C 111.82 18.46 111.41 18.08 111.20 17.89 C 110.92 16.83 110.55 15.81 110.10 14.81 Z" />
<path fill="#679761" opacity="1.00" d=" M 166.13 14.82 C 166.56 13.73 167.01 12.64 167.41 11.54 C 167.48 13.38 167.62 17.06 167.69 18.90 C 167.59 18.63 167.40 18.08 167.30 17.81 C 167.00 16.78 166.61 15.78 166.13 14.82 Z" />
</g>
<g id="#495142ff">
<path fill="#495142" opacity="1.00" d=" M 126.46 13.25 L 127.16 12.78 C 127.04 13.21 126.81 14.06 126.70 14.49 C 126.64 14.88 126.52 15.65 126.46 16.04 C 126.32 16.54 126.04 17.54 125.91 18.04 C 125.82 18.57 125.63 19.61 125.54 20.13 L 125.06 20.57 C 124.63 18.73 124.19 16.89 123.71 15.06 C 124.63 14.46 125.54 13.86 126.46 13.25 Z" />
</g>
<g id="#9c8a4eff">
<path fill="#9c8a4e" opacity="1.00" d=" M 8.74 14.12 L 9.23 13.94 C 9.26 14.94 9.29 15.94 9.32 16.93 C 8.62 17.24 7.92 17.54 7.21 17.83 C 6.47 17.05 5.74 16.28 5.00 15.50 C 6.25 15.04 7.49 14.59 8.74 14.12 Z" />
<path fill="#9c8a4e" opacity="1.00" d=" M 120.53 14.11 L 120.99 13.91 C 120.85 15.31 120.74 16.72 120.71 18.14 L 119.91 17.62 C 118.89 16.97 117.88 16.31 116.87 15.66 C 118.09 15.14 119.31 14.63 120.53 14.11 Z" />
</g>
<g id="#a49a62ff">
<path fill="#a49a62" opacity="1.00" d=" M 16.08 13.50 C 16.06 15.19 16.02 16.89 16.01 18.58 C 14.83 19.25 13.66 19.94 12.49 20.62 C 12.47 19.83 12.46 19.04 12.46 18.25 C 13.15 17.00 13.88 15.78 14.65 14.57 C 15.01 14.30 15.72 13.77 16.08 13.50 Z" />
</g>
<g id="#9a9364fe">
<path fill="#9a9364" opacity="1.00" d=" M 50.87 14.32 C 51.99 14.27 53.08 14.44 54.13 14.82 C 54.61 15.78 55.00 16.78 55.30 17.81 C 53.60 16.98 51.65 16.20 50.87 14.32 Z" />
<path fill="#9a9364" opacity="1.00" d=" M 106.86 14.32 C 107.98 14.27 109.06 14.43 110.10 14.81 C 110.55 15.81 110.92 16.83 111.20 17.89 C 109.54 17.00 107.65 16.17 106.86 14.32 Z" />
<path fill="#9a9364" opacity="1.00" d=" M 162.87 14.32 C 163.99 14.27 165.08 14.44 166.13 14.82 C 166.61 15.78 167.00 16.78 167.30 17.81 C 165.60 16.98 163.65 16.20 162.87 14.32 Z" />
<path fill="#9a9364" opacity="1.00" d=" M 218.94 14.40 C 219.98 14.39 221.00 14.49 222.01 14.71 C 222.61 15.60 223.03 16.58 223.27 17.64 C 221.46 17.16 219.71 16.20 218.94 14.40 Z" />
</g>
<g id="#9c894eff">
<path fill="#9c894e" opacity="1.00" d=" M 64.54 14.10 L 64.98 13.91 C 64.79 15.65 64.64 17.41 64.58 19.17 L 63.91 18.56 C 62.90 17.61 61.91 16.63 60.92 15.65 C 62.13 15.14 63.33 14.62 64.54 14.10 Z" />
<path fill="#9c894e" opacity="1.00" d=" M 176.54 14.10 L 176.98 13.91 C 176.79 15.65 176.64 17.41 176.58 19.17 L 175.91 18.57 C 174.90 17.61 173.91 16.63 172.92 15.65 C 174.13 15.14 175.33 14.62 176.54 14.10 Z" />
</g>
<g id="#a2e1a3ff">
<path fill="#a2e1a3" opacity="1.00" d=" M 134.13 15.06 C 137.23 14.62 140.35 14.17 143.49 14.02 C 148.41 14.51 153.26 15.52 158.11 16.45 C 159.71 19.02 161.51 21.46 163.08 24.05 L 163.30 24.66 C 163.03 24.92 162.51 25.43 162.25 25.68 C 158.59 21.77 154.72 16.99 148.98 16.63 L 148.34 16.60 C 142.65 16.25 136.99 16.91 131.36 17.59 C 132.27 16.74 133.18 15.88 134.13 15.06 Z" />
</g>
<g id="#a0dfa2ff">
<path fill="#a0dfa2" opacity="1.00" d=" M 19.65 16.60 C 23.70 16.00 27.75 15.37 31.83 14.98 C 33.30 15.17 36.23 15.53 37.70 15.72 C 43.39 18.50 50.15 22.23 50.77 29.26 C 50.70 29.76 50.57 30.78 50.50 31.28 C 48.44 31.36 47.42 33.80 49.02 35.20 C 47.54 37.79 46.21 40.46 44.71 43.04 C 43.62 44.60 42.54 46.16 41.49 47.75 C 41.09 48.03 40.29 48.58 39.90 48.85 C 32.10 49.50 24.25 49.57 16.45 48.98 C 15.50 48.88 14.55 48.75 13.61 48.60 L 13.10 47.71 C 14.84 46.85 16.57 45.95 18.39 45.24 C 25.15 47.88 33.57 49.06 39.99 44.92 C 42.48 42.48 43.79 39.12 45.15 35.97 C 45.29 35.56 45.56 34.73 45.69 34.32 C 46.68 30.80 47.49 27.22 48.43 23.68 C 42.35 19.36 34.99 16.75 27.49 17.83 C 22.50 18.36 17.67 20.12 13.25 22.48 L 12.46 22.91 C 12.47 22.52 12.49 21.74 12.51 21.35 L 12.49 20.62 C 13.66 19.94 14.83 19.25 16.01 18.58 C 17.21 17.91 18.43 17.25 19.65 16.60 Z" />
</g>
<g id="#eef2acff">
<path fill="#eef2ac" opacity="1.00" d=" M 37.70 15.72 C 40.99 16.18 44.26 16.83 47.56 17.20 C 48.02 17.26 48.94 17.36 49.39 17.42 C 50.68 21.22 51.67 25.25 50.77 29.26 C 50.15 22.23 43.39 18.50 37.70 15.72 Z" />
</g>
<g id="#a1e1a3ff">
<path fill="#a1e1a3" opacity="1.00" d=" M 80.34 14.96 C 83.72 14.90 87.08 14.79 90.47 14.78 C 94.39 15.93 98.40 16.78 102.45 17.38 C 103.85 20.13 105.29 22.87 106.27 25.81 C 102.57 21.96 98.47 17.84 93.00 16.89 C 86.43 15.60 79.98 17.77 73.61 19.11 C 72.88 19.14 71.42 19.19 70.68 19.22 C 71.28 18.24 71.87 17.25 72.46 16.27 L 72.84 15.63 C 75.33 15.38 77.83 15.16 80.34 14.96 Z" />
<path fill="#a1e1a3" opacity="1.00" d=" M 183.57 17.93 C 188.13 16.62 192.76 15.58 197.40 14.57 C 199.07 14.64 200.73 14.75 202.40 14.90 C 206.37 15.91 210.39 16.75 214.45 17.37 C 215.84 20.13 217.29 22.87 218.27 25.81 C 214.58 21.97 210.49 17.79 204.99 16.94 C 198.40 15.83 192.05 18.05 185.64 19.14 C 184.90 19.17 183.42 19.23 182.68 19.26 C 182.91 18.93 183.35 18.26 183.57 17.93 Z" />
<path fill="#a1e1a3" opacity="1.00" d=" M 8.87 22.71 L 9.57 22.17 C 10.14 22.45 11.28 23.02 11.86 23.31 C 11.43 23.59 10.58 24.14 10.16 24.41 C 9.81 24.16 9.10 23.66 8.75 23.41 L 8.87 22.71 Z" />
<path fill="#a1e1a3" opacity="1.00" d=" M 98.10 43.10 C 101.79 38.53 104.40 33.18 106.60 27.78 L 106.74 29.07 C 106.20 36.97 100.77 43.19 95.63 48.68 C 92.52 49.64 89.29 50.29 86.03 50.35 C 90.46 48.70 94.53 46.17 98.10 43.10 Z" />
<path fill="#a1e1a3" opacity="1.00" d=" M 210.10 43.10 C 213.78 38.53 216.40 33.18 218.60 27.78 L 218.74 29.07 C 218.20 36.97 212.77 43.19 207.63 48.68 C 204.52 49.64 201.29 50.29 198.03 50.35 C 202.46 48.70 206.53 46.17 210.10 43.10 Z" />
</g>
<g id="#979f6cff">
<path fill="#979f6c" opacity="1.00" d=" M 70.89 16.60 C 71.28 16.51 72.07 16.35 72.46 16.27 C 71.87 17.25 71.28 18.24 70.68 19.22 C 70.34 19.74 69.64 20.78 69.30 21.30 L 68.67 21.64 L 68.59 20.95 C 68.43 19.70 68.29 18.45 68.16 17.19 C 68.85 17.04 70.21 16.74 70.89 16.60 Z" />
<path fill="#979f6c" opacity="1.00" d=" M 182.95 16.59 C 183.29 16.52 183.97 16.38 184.31 16.31 C 184.13 16.71 183.76 17.52 183.57 17.93 C 183.35 18.26 182.91 18.93 182.68 19.26 C 182.33 19.76 181.63 20.76 181.28 21.27 L 180.66 21.61 L 180.57 20.92 C 180.40 19.68 180.24 18.43 180.09 17.18 C 180.81 17.03 182.23 16.74 182.95 16.59 Z" />
</g>
<g id="#40cebeff">
<path fill="#40cebe" opacity="1.00" d=" M 73.61 19.11 C 79.98 17.77 86.43 15.60 93.00 16.89 C 98.47 17.84 102.57 21.96 106.27 25.81 C 106.36 26.30 106.52 27.28 106.60 27.78 C 104.40 33.18 101.79 38.53 98.10 43.10 C 94.53 46.17 90.46 48.70 86.03 50.35 L 85.26 50.35 C 81.56 48.99 77.96 47.37 74.37 45.75 C 79.09 45.80 83.71 47.29 88.43 47.08 C 95.94 45.38 100.15 38.15 102.41 31.41 C 103.66 27.21 102.53 21.65 97.79 20.19 C 89.90 17.90 81.68 19.12 73.61 19.11 Z" />
<path fill="#40cebe" opacity="1.00" d=" M 148.98 16.63 C 154.72 16.99 158.59 21.77 162.25 25.68 C 162.18 26.14 162.03 27.04 161.95 27.49 C 161.21 29.80 160.32 32.05 159.52 34.33 C 160.64 26.50 155.90 19.66 148.98 16.63 Z" />
<path fill="#40cebe" opacity="1.00" d=" M 185.64 19.14 C 192.05 18.05 198.40 15.83 204.99 16.94 C 210.49 17.79 214.58 21.97 218.27 25.81 C 218.35 26.30 218.52 27.28 218.60 27.78 C 216.40 33.18 213.78 38.53 210.10 43.10 C 206.53 46.17 202.46 48.70 198.03 50.35 L 197.26 50.35 C 193.56 49.00 189.96 47.37 186.37 45.75 C 191.09 45.80 195.71 47.29 200.43 47.08 C 207.94 45.38 212.15 38.15 214.41 31.41 C 215.66 27.21 214.53 21.65 209.79 20.19 C 201.91 17.91 193.70 19.09 185.64 19.14 Z" />
<path fill="#40cebe" opacity="1.00" d=" M 27.49 17.83 C 34.99 16.75 42.35 19.36 48.43 23.68 C 47.49 27.22 46.68 30.80 45.69 34.32 C 45.30 30.53 47.54 24.35 43.21 21.89 C 38.33 19.48 32.72 19.08 27.49 17.83 Z" />
</g>
<g id="#938454ff">
<path fill="#938454" opacity="1.00" d=" M 126.46 16.04 C 126.94 16.08 127.89 16.15 128.36 16.19 C 127.95 16.73 127.11 17.81 126.69 18.36 L 125.91 18.04 C 126.04 17.54 126.32 16.54 126.46 16.04 Z" />
</g>
<g id="#a0e1a3ff">
<path fill="#a0e1a3" opacity="1.00" d=" M 128.36 16.19 L 128.83 15.49 C 129.42 16.41 130.04 17.31 130.67 18.21 C 130.41 18.43 129.88 18.87 129.62 19.09 C 128.63 18.91 127.65 18.67 126.69 18.36 C 127.11 17.81 127.95 16.73 128.36 16.19 Z" />
</g>
<g id="#40cfbeff">
<path fill="#40cfbe" opacity="1.00" d=" M 131.36 17.59 C 136.99 16.91 142.65 16.25 148.34 16.60 C 142.25 18.10 135.96 19.99 129.62 19.09 C 129.88 18.87 130.41 18.43 130.67 18.21 L 131.36 17.59 Z" />
<path fill="#40cfbe" opacity="1.00" d=" M 124.02 50.09 C 127.16 48.43 130.48 45.98 134.24 46.74 C 138.00 47.40 141.65 48.57 145.34 49.55 C 143.67 49.96 141.97 50.27 140.26 50.42 C 139.26 50.37 138.26 50.30 137.26 50.20 C 133.95 49.52 130.56 48.74 127.17 49.34 L 126.03 49.47 C 125.53 49.63 124.52 49.94 124.02 50.09 Z" />
</g>
<g id="#dbd689ff">
<path fill="#dbd689" opacity="1.00" d=" M 49.39 17.42 C 50.56 17.52 51.73 17.59 52.91 17.67 C 53.09 19.88 53.35 22.08 53.57 24.28 C 53.91 28.20 54.11 32.12 54.20 36.05 C 54.07 37.93 53.74 39.79 53.26 41.61 C 52.95 40.05 52.67 38.49 52.41 36.92 C 49.49 41.76 46.17 46.53 41.50 49.85 C 43.82 46.88 46.18 43.94 48.41 40.89 C 47.17 41.59 45.92 42.29 44.71 43.04 C 46.21 40.46 47.54 37.79 49.02 35.20 C 49.76 34.01 50.40 32.71 50.50 31.28 C 50.57 30.78 50.70 29.76 50.77 29.26 C 51.67 25.25 50.68 21.22 49.39 17.42 Z" />
</g>
<g id="#1ba9c1ff">
<path fill="#1ba9c1" opacity="1.00" d=" M 148.34 16.60 L 148.98 16.63 C 155.90 19.66 160.64 26.50 159.52 34.33 C 159.39 34.73 159.14 35.52 159.01 35.92 C 157.86 36.81 157.60 37.91 158.23 39.22 L 158.52 40.06 L 157.80 40.62 C 155.84 42.10 153.96 43.68 152.08 45.26 C 150.04 46.99 147.75 48.40 145.34 49.55 C 141.65 48.57 138.00 47.40 134.24 46.74 C 130.48 45.98 127.16 48.43 124.02 50.09 C 124.01 49.72 123.99 48.97 123.97 48.59 C 126.52 43.04 133.14 43.69 138.08 45.18 C 141.61 46.09 145.80 47.75 148.98 45.04 C 152.39 42.36 156.99 39.34 156.86 34.46 C 157.92 28.93 155.01 24.05 152.17 19.65 C 143.41 19.93 134.12 23.39 125.54 20.13 C 125.63 19.61 125.82 18.57 125.91 18.04 L 126.69 18.36 C 127.65 18.67 128.63 18.91 129.62 19.09 C 135.96 19.99 142.25 18.10 148.34 16.60 Z" />
</g>
<g id="#eef1adff">
<path fill="#eef1ad" opacity="1.00" d=" M 158.11 16.45 C 159.05 16.80 160.00 17.11 160.97 17.38 C 161.69 19.60 162.37 21.83 163.08 24.05 C 161.51 21.46 159.71 19.02 158.11 16.45 Z" />
<path fill="#eef1ad" opacity="1.00" d=" M 44.71 43.04 C 45.92 42.29 47.17 41.59 48.41 40.89 C 46.18 43.94 43.82 46.88 41.50 49.85 L 41.10 48.52 L 41.49 47.75 C 42.54 46.16 43.62 44.60 44.71 43.04 Z" />
</g>
<g id="#dcd689ff">
<path fill="#dcd689" opacity="1.00" d=" M 160.97 17.38 C 162.29 17.51 163.61 17.59 164.93 17.68 C 165.10 19.89 165.31 22.09 165.51 24.30 C 165.88 28.99 165.99 33.70 166.66 38.37 C 166.23 39.49 165.77 40.61 165.34 41.73 C 165.00 40.14 164.68 38.53 164.39 36.93 C 161.50 41.77 158.18 46.54 153.49 49.80 C 155.80 46.99 158.14 44.21 160.47 41.40 C 159.73 41.43 158.26 41.47 157.52 41.50 C 157.77 41.14 158.27 40.42 158.52 40.06 C 159.90 38.32 161.39 36.68 162.87 35.01 C 163.84 34.04 164.78 32.39 163.92 31.06 C 163.41 30.06 162.88 29.07 162.32 28.09 C 163.93 27.76 164.00 25.83 163.30 24.66 L 163.08 24.05 C 162.37 21.83 161.69 19.60 160.97 17.38 Z" />
</g>
<g id="#1baac1ff">
<path fill="#1baac1" opacity="1.00" d=" M 13.25 22.48 C 17.67 20.12 22.50 18.36 27.49 17.83 C 32.72 19.08 38.33 19.48 43.21 21.89 C 47.54 24.35 45.30 30.53 45.69 34.32 C 45.56 34.73 45.29 35.56 45.15 35.97 C 42.54 39.58 39.76 43.93 35.10 44.95 C 29.55 45.56 23.93 44.49 18.39 45.24 C 16.57 45.95 14.84 46.85 13.10 47.71 C 12.80 47.86 12.21 48.14 11.92 48.28 C 11.50 47.49 11.10 46.70 10.68 45.92 C 11.25 45.78 12.39 45.50 12.96 45.36 C 13.19 45.30 13.66 45.19 13.89 45.13 C 13.98 43.92 14.03 42.70 14.09 41.48 C 20.98 42.17 27.86 43.65 34.82 43.55 C 41.68 41.04 43.75 32.61 43.55 25.99 C 43.25 22.83 40.04 21.29 37.16 21.52 C 29.20 21.99 21.19 21.64 13.25 22.48 Z" />
</g>
<g id="#1aa8c1fe">
<path fill="#1aa8c1" opacity="1.00" d=" M 73.61 19.11 C 81.68 19.12 89.90 17.90 97.79 20.19 C 102.53 21.65 103.66 27.21 102.41 31.41 C 100.15 38.15 95.94 45.38 88.43 47.08 C 83.71 47.29 79.09 45.80 74.37 45.75 C 72.84 46.75 71.40 47.88 69.98 49.04 L 69.48 49.45 L 69.05 49.89 C 68.78 49.75 68.23 49.47 67.96 49.33 L 67.52 48.69 L 66.98 47.85 C 72.68 40.27 83.15 45.10 90.98 43.83 C 95.92 40.85 99.56 35.72 100.61 30.06 C 100.47 26.57 98.75 21.64 94.57 21.72 C 86.14 21.88 77.72 21.77 69.30 21.30 C 69.64 20.78 70.34 19.74 70.68 19.22 C 71.42 19.19 72.88 19.14 73.61 19.11 Z" />
<path fill="#1aa8c1" opacity="1.00" d=" M 185.64 19.14 C 193.70 19.09 201.91 17.91 209.79 20.19 C 214.53 21.65 215.66 27.21 214.41 31.41 C 212.15 38.15 207.94 45.38 200.43 47.08 C 195.71 47.29 191.09 45.80 186.37 45.75 C 184.84 46.76 183.40 47.88 181.98 49.04 L 181.48 49.45 L 181.05 49.89 C 180.78 49.75 180.23 49.47 179.96 49.33 L 179.52 48.69 L 178.98 47.85 C 184.68 40.27 195.15 45.10 202.98 43.83 C 207.92 40.85 211.56 35.72 212.61 30.06 C 212.47 26.57 210.75 21.64 206.57 21.72 C 198.13 21.87 189.71 21.80 181.28 21.27 C 181.63 20.76 182.33 19.76 182.68 19.26 C 183.42 19.23 184.90 19.17 185.64 19.14 Z" />
</g>
<g id="#eef2adff">
<path fill="#eef2ad" opacity="1.00" d=" M 102.45 17.38 L 103.50 17.44 C 104.00 17.45 105.01 17.47 105.52 17.48 C 106.12 21.31 107.10 25.17 106.74 29.07 L 106.60 27.78 C 106.52 27.28 106.36 26.30 106.27 25.81 C 105.29 22.87 103.85 20.13 102.45 17.38 Z" />
<path fill="#eef2ad" opacity="1.00" d=" M 214.45 17.37 L 215.50 17.44 C 216.00 17.45 217.01 17.47 217.52 17.48 C 218.12 21.31 219.10 25.17 218.74 29.07 L 218.60 27.78 C 218.52 27.28 218.35 26.30 218.27 25.81 C 217.29 22.87 215.84 20.13 214.45 17.37 Z" />
<path fill="#eef2ad" opacity="1.00" d=" M 162.25 25.68 C 162.51 25.43 163.03 24.92 163.30 24.66 C 164.00 25.83 163.93 27.76 162.32 28.09 L 161.95 27.49 C 162.03 27.04 162.18 26.14 162.25 25.68 Z" />
<path fill="#eef2ad" opacity="1.00" d=" M 49.02 35.20 C 47.42 33.80 48.44 31.36 50.50 31.28 C 50.40 32.71 49.76 34.01 49.02 35.20 Z" />
<path fill="#eef2ad" opacity="1.00" d=" M 162.87 35.01 C 161.70 33.69 162.23 31.61 163.92 31.06 C 164.78 32.39 163.84 34.04 162.87 35.01 Z" />
<path fill="#eef2ad" opacity="1.00" d=" M 103.08 41.31 C 104.60 41.32 104.33 43.76 102.92 43.69 C 101.40 43.68 101.66 41.24 103.08 41.31 Z" />
<path fill="#eef2ad" opacity="1.00" d=" M 215.08 41.31 C 216.60 41.32 216.33 43.76 214.92 43.69 C 213.39 43.68 213.66 41.24 215.08 41.31 Z" />
</g>
<g id="#332e2afe">
<path fill="#332e2a" opacity="1.00" d=" M 4.78 20.44 C 6.76 18.72 10.23 19.68 8.87 22.71 C 7.58 21.83 6.22 21.04 4.78 20.44 Z" />
</g>
<g id="#65569cff">
<path fill="#65569c" opacity="1.00" d=" M 112.07 19.40 C 113.21 19.16 115.50 18.67 116.65 18.42 C 116.63 20.22 118.23 21.60 120.00 21.45 C 117.35 21.12 114.72 20.73 112.12 20.11 L 112.07 19.40 Z" />
<path fill="#65569c" opacity="1.00" d=" M 56.33 20.63 C 56.90 20.50 58.06 20.23 58.63 20.09 L 60.48 19.62 C 60.55 21.39 62.27 22.58 63.95 22.45 C 61.41 21.83 58.88 21.18 56.33 20.63 Z" />
<path fill="#65569c" opacity="1.00" d=" M 168.32 20.63 C 168.90 20.50 170.05 20.23 170.63 20.09 L 172.48 19.62 C 172.55 21.39 174.27 22.58 175.95 22.46 C 173.40 21.83 170.88 21.18 168.32 20.63 Z" />
<path fill="#65569c" opacity="1.00" d=" M 0.74 21.79 C 1.23 21.65 2.23 21.35 2.72 21.20 L 4.24 20.66 C 4.74 22.42 6.56 23.11 8.21 23.31 C 5.71 22.84 3.24 22.24 0.74 21.79 Z" />
</g>
<g id="#61d5b5ff">
<path fill="#61d5b5" opacity="1.00" d=" M 116.65 18.42 L 117.15 18.28 C 118.15 19.24 119.36 19.99 120.64 20.53 L 120.60 21.08 L 120.00 21.45 C 118.23 21.60 116.63 20.22 116.65 18.42 Z" />
<path fill="#61d5b5" opacity="1.00" d=" M 60.48 19.62 L 61.04 19.41 C 62.07 20.31 63.30 20.95 64.53 21.51 L 64.50 22.07 L 63.95 22.45 C 62.27 22.58 60.55 21.39 60.48 19.62 Z" />
<path fill="#61d5b5" opacity="1.00" d=" M 172.48 19.62 L 173.04 19.41 C 174.07 20.31 175.29 20.95 176.53 21.51 L 176.50 22.07 L 175.95 22.46 C 174.27 22.58 172.55 21.39 172.48 19.62 Z" />
<path fill="#61d5b5" opacity="1.00" d=" M 4.24 20.66 L 4.78 20.44 C 6.22 21.04 7.58 21.83 8.87 22.71 L 8.75 23.41 L 8.21 23.31 C 6.56 23.11 4.74 22.42 4.24 20.66 Z" />
</g>
<g id="#5abdbaff">
<path fill="#5abdba" opacity="1.00" d=" M 121.53 20.46 C 122.45 19.43 124.47 18.90 125.06 20.57 C 123.94 21.42 122.77 21.38 121.53 20.46 Z" />
<path fill="#5abdba" opacity="1.00" d=" M 65.29 21.48 C 66.12 20.58 67.56 19.96 68.59 20.95 L 68.67 21.64 C 67.53 22.33 66.41 22.27 65.29 21.48 Z" />
<path fill="#5abdba" opacity="1.00" d=" M 177.28 21.48 C 178.10 20.58 179.53 19.93 180.57 20.92 L 180.66 21.61 C 179.53 22.32 178.41 22.27 177.28 21.48 Z" />
<path fill="#5abdba" opacity="1.00" d=" M 9.57 22.17 C 10.41 21.32 11.39 21.04 12.51 21.35 C 12.49 21.74 12.47 22.52 12.46 22.91 L 11.86 23.31 C 11.28 23.02 10.14 22.45 9.57 22.17 Z" />
</g>
<g id="#3c6bbeff">
<path fill="#3c6bbe" opacity="1.00" d=" M 56.21 22.84 C 56.25 22.11 56.29 21.37 56.33 20.63 C 58.88 21.18 61.41 21.83 63.95 22.45 L 64.50 22.07 L 65.29 21.48 C 64.92 23.20 64.52 24.93 64.11 26.64 C 66.89 26.84 69.67 27.13 72.46 27.15 L 73.12 27.14 C 72.87 29.61 74.24 33.05 71.59 34.38 C 68.06 36.12 64.16 36.97 60.45 38.23 C 62.74 41.36 64.93 44.56 66.98 47.85 L 67.52 48.69 C 66.91 48.95 65.69 49.48 65.08 49.74 L 64.28 50.65 C 63.55 50.68 62.09 50.72 61.36 50.74 C 61.53 48.78 61.89 46.84 62.27 44.90 C 60.62 45.70 58.97 46.47 57.32 47.24 C 57.76 48.36 58.21 49.47 58.66 50.59 C 57.91 50.52 56.42 50.39 55.67 50.33 L 55.69 49.21 C 55.80 44.76 55.88 40.32 56.00 35.87 L 56.02 34.97 C 55.97 34.23 55.87 32.77 55.82 32.03 C 55.93 28.96 56.06 25.90 56.21 22.84 Z" />
<path fill="#3c6bbe" opacity="1.00" d=" M 112.17 22.88 C 112.17 21.96 112.15 21.03 112.12 20.11 C 114.72 20.73 117.35 21.12 120.00 21.45 L 120.60 21.08 L 121.53 20.46 C 121.06 22.45 120.59 24.44 120.14 26.44 C 122.93 26.79 125.71 27.20 128.50 27.57 C 126.98 26.84 125.46 26.13 123.93 25.42 C 128.79 25.49 133.65 25.21 138.47 24.55 C 138.38 25.27 138.29 25.98 138.20 26.69 C 140.75 26.08 143.29 25.50 145.85 24.90 C 147.57 26.91 149.27 28.94 150.89 31.03 C 143.99 33.98 136.10 34.41 129.38 30.78 C 130.37 29.22 131.37 27.67 132.36 26.12 C 130.31 28.54 128.43 31.09 126.45 33.56 C 131.07 34.82 135.48 36.74 139.97 38.41 C 132.80 40.97 125.40 43.15 117.71 42.88 C 119.60 44.68 121.48 46.50 123.48 48.18 C 123.01 48.53 122.08 49.22 121.62 49.57 L 120.83 50.36 C 117.79 50.80 114.72 50.67 111.67 50.46 L 111.69 49.31 C 111.79 44.83 111.87 40.35 111.99 35.88 L 112.01 34.98 C 111.99 34.24 111.94 32.78 111.92 32.05 C 111.99 28.99 112.13 25.94 112.17 22.88 M 114.61 36.96 C 114.40 37.53 114.18 38.09 113.98 38.66 C 115.20 38.86 116.43 39.07 117.65 39.27 C 117.57 39.71 117.40 40.58 117.32 41.02 C 121.23 38.85 125.33 37.06 129.38 35.17 C 124.47 35.92 119.62 37.58 114.61 36.96 Z" />
<path fill="#3c6bbe" opacity="1.00" d=" M 168.22 22.84 C 168.25 22.11 168.28 21.37 168.32 20.63 C 170.88 21.18 173.40 21.83 175.95 22.46 L 176.50 22.07 L 177.28 21.48 C 176.91 23.21 176.52 24.93 176.11 26.64 C 178.89 26.84 181.67 27.13 184.46 27.15 L 185.12 27.14 C 184.87 29.61 186.24 33.05 183.59 34.38 C 180.06 36.12 176.16 36.97 172.45 38.23 C 174.74 41.36 176.93 44.56 178.98 47.85 L 179.52 48.69 C 178.91 48.95 177.69 49.47 177.08 49.74 L 176.28 50.65 C 175.55 50.68 174.09 50.72 173.36 50.74 C 173.53 48.78 173.89 46.84 174.27 44.90 C 172.62 45.70 170.97 46.47 169.31 47.24 C 169.76 48.36 170.21 49.48 170.66 50.60 C 169.91 50.53 168.39 50.40 167.63 50.33 L 167.63 49.22 C 167.63 44.71 167.53 40.21 167.64 35.70 L 167.82 34.91 C 167.84 34.18 167.88 32.72 167.90 32.00 C 167.97 28.94 168.09 25.89 168.22 22.84 Z" />
<path fill="#3c6bbe" opacity="1.00" d=" M 0.00 21.70 L 0.74 21.79 C 3.24 22.24 5.71 22.84 8.21 23.31 L 8.75 23.41 C 9.10 23.66 9.81 24.16 10.16 24.41 C 6.90 26.28 3.42 27.69 0.00 29.23 L 0.00 21.70 Z" />
<path fill="#3c6bbe" opacity="1.00" d=" M 19.85 29.68 C 25.89 26.34 32.92 26.77 39.56 27.19 L 40.23 27.22 C 40.05 30.11 39.88 33.00 39.72 35.89 C 36.86 34.67 35.21 32.20 34.89 29.14 C 34.04 28.65 33.18 28.15 32.32 27.67 C 32.99 29.50 33.69 31.33 34.40 33.15 C 32.01 34.21 29.66 35.62 27.01 35.85 C 24.50 35.46 22.26 34.18 19.96 33.17 C 19.93 32.30 19.88 30.55 19.85 29.68 Z" />
<path fill="#3c6bbe" opacity="1.00" d=" M 85.78 37.59 C 89.35 36.55 92.86 35.33 96.37 34.12 C 93.98 37.90 91.26 41.64 87.30 43.90 C 86.85 41.78 86.35 39.67 85.78 37.59 Z" />
<path fill="#3c6bbe" opacity="1.00" d=" M 197.71 37.32 C 200.46 36.69 203.29 36.04 206.04 35.32 C 206.34 35.92 206.64 36.53 206.94 37.13 C 204.25 38.84 201.60 40.60 198.95 42.34 C 198.54 40.67 198.21 38.97 197.71 37.32 Z" />
<path fill="#3c6bbe" opacity="1.00" d=" M 29.40 42.28 C 30.56 37.45 34.50 34.80 39.79 36.19 C 36.73 38.84 33.04 40.59 29.40 42.28 Z" />
<path fill="#3c6bbe" opacity="1.00" d=" M 0.00 38.27 C 2.34 38.92 4.91 39.08 7.05 40.30 C 8.60 41.91 9.59 43.97 10.68 45.92 C 11.10 46.70 11.50 47.49 11.92 48.28 C 9.92 49.20 7.88 50.04 5.79 50.75 C 6.33 49.19 6.87 47.63 7.42 46.08 C 5.34 47.33 3.27 48.60 1.23 49.93 C 0.82 50.55 0.40 51.18 -0.00 51.81 L 0.00 38.27 Z" />
</g>
<g id="#4378caff">
<path fill="#4378ca" opacity="1.00" d=" M 125.06 20.57 L 125.54 20.13 C 134.12 23.39 143.41 19.93 152.17 19.65 C 155.01 24.05 157.92 28.93 156.86 34.46 C 156.99 39.34 152.39 42.36 148.98 45.04 C 145.80 47.75 141.61 46.09 138.08 45.18 C 133.14 43.69 126.52 43.04 123.97 48.59 L 123.48 48.18 C 121.48 46.50 119.60 44.68 117.71 42.88 C 125.40 43.15 132.80 40.97 139.97 38.41 C 135.48 36.74 131.07 34.82 126.45 33.56 C 128.43 31.09 130.31 28.54 132.36 26.12 C 131.37 27.67 130.37 29.22 129.38 30.78 C 136.10 34.41 143.99 33.98 150.89 31.03 C 149.27 28.94 147.57 26.91 145.85 24.90 C 143.29 25.50 140.75 26.08 138.20 26.69 C 138.29 25.98 138.38 25.27 138.47 24.55 C 133.65 25.21 128.79 25.49 123.93 25.42 C 125.46 26.13 126.98 26.84 128.50 27.57 C 125.71 27.20 122.93 26.79 120.14 26.44 C 120.59 24.44 121.06 22.45 121.53 20.46 C 122.77 21.38 123.94 21.42 125.06 20.57 M 146.53 21.12 C 146.68 21.44 146.96 22.09 147.10 22.41 C 149.70 23.02 147.95 18.94 146.53 21.12 M 127.53 23.12 C 127.68 23.44 127.96 24.09 128.10 24.41 C 130.70 25.02 128.95 20.94 127.53 23.12 M 149.54 24.82 C 150.33 27.83 150.93 30.88 151.50 33.94 C 148.34 35.06 145.10 36.02 141.99 37.26 C 140.59 39.73 141.94 42.74 141.99 45.39 C 145.59 44.43 149.75 43.27 151.61 39.70 C 153.54 35.57 153.52 30.85 154.21 26.45 C 152.65 25.91 151.09 25.37 149.54 24.82 Z" />
</g>
<g id="#4379caff">
<path fill="#4379ca" opacity="1.00" d=" M 13.25 22.48 C 21.19 21.64 29.20 21.99 37.16 21.52 C 40.04 21.29 43.25 22.83 43.55 25.99 C 43.75 32.61 41.68 41.04 34.82 43.55 C 27.86 43.65 20.98 42.17 14.09 41.48 C 18.11 40.35 22.17 39.34 26.23 38.33 C 23.23 37.57 20.25 36.43 17.12 36.45 C 13.92 36.67 11.12 38.44 8.31 39.83 C 9.82 41.71 11.31 43.60 12.96 45.36 C 12.39 45.50 11.25 45.78 10.68 45.92 C 9.59 43.97 8.60 41.91 7.05 40.30 C 4.91 39.08 2.34 38.92 0.00 38.27 L 0.00 37.83 C 6.64 37.31 13.19 35.82 19.39 33.37 C 18.64 31.44 17.85 29.52 17.14 27.58 C 16.94 26.33 16.26 25.59 15.10 25.37 C 13.17 25.94 15.39 27.73 16.48 27.63 C 10.78 27.34 5.16 28.60 0.00 30.98 L 0.00 29.23 C 3.42 27.69 6.90 26.28 10.16 24.41 C 10.58 24.14 11.43 23.59 11.86 23.31 L 12.46 22.91 L 13.25 22.48 M 39.56 27.19 C 32.92 26.77 25.89 26.34 19.85 29.68 C 19.88 30.55 19.93 32.30 19.96 33.17 C 22.26 34.18 24.50 35.46 27.01 35.85 C 29.66 35.62 32.01 34.21 34.40 33.15 C 33.69 31.33 32.99 29.50 32.32 27.67 C 33.18 28.15 34.04 28.65 34.89 29.14 C 35.21 32.20 36.86 34.67 39.72 35.89 C 39.88 33.00 40.05 30.11 40.23 27.22 C 44.10 25.43 37.60 23.78 39.56 27.19 M 29.40 42.28 C 33.04 40.59 36.73 38.84 39.79 36.19 C 34.50 34.80 30.56 37.45 29.40 42.28 Z" />
<path fill="#4379ca" opacity="1.00" d=" M 114.61 36.96 C 119.62 37.58 124.47 35.92 129.38 35.17 C 125.33 37.06 121.23 38.85 117.32 41.02 C 117.40 40.58 117.57 39.71 117.65 39.27 C 116.43 39.07 115.20 38.86 113.98 38.66 C 114.18 38.09 114.40 37.53 114.61 36.96 Z" />
</g>
<g id="#4278caff">
<path fill="#4278ca" opacity="1.00" d=" M 68.67 21.64 L 69.30 21.30 C 77.72 21.77 86.14 21.88 94.57 21.72 C 98.75 21.64 100.47 26.57 100.61 30.06 C 99.56 35.72 95.92 40.85 90.98 43.83 C 83.15 45.10 72.68 40.27 66.98 47.85 C 64.93 44.56 62.74 41.36 60.45 38.23 C 64.16 36.97 68.06 36.12 71.59 34.38 C 74.24 33.05 72.87 29.61 73.12 27.14 C 73.27 25.82 72.72 25.00 71.48 24.67 C 69.67 25.02 71.52 26.93 72.46 27.15 C 69.67 27.13 66.89 26.84 64.11 26.64 C 64.52 24.93 64.92 23.20 65.29 21.48 C 66.41 22.27 67.53 22.33 68.67 21.64 M 88.53 23.12 C 88.68 23.44 88.96 24.09 89.10 24.41 C 91.70 25.02 89.95 20.94 88.53 23.12 M 94.74 23.29 C 93.71 24.71 96.09 26.72 97.38 25.59 C 98.45 24.14 96.06 22.07 94.74 23.29 M 73.81 31.86 C 79.86 35.57 86.92 35.35 93.22 32.43 C 93.17 31.54 93.07 29.76 93.02 28.87 C 87.13 24.93 77.52 25.01 73.81 31.86 M 85.78 37.59 C 86.35 39.67 86.85 41.78 87.30 43.90 C 91.26 41.64 93.98 37.90 96.37 34.12 C 92.86 35.33 89.35 36.55 85.78 37.59 M 63.73 39.48 C 64.46 41.15 65.21 42.82 66.07 44.44 C 71.37 42.92 76.51 40.89 81.85 39.48 C 81.89 38.83 81.98 37.54 82.03 36.89 C 75.69 34.32 69.43 36.71 63.73 39.48 Z" />
<path fill="#4278ca" opacity="1.00" d=" M 180.66 21.61 L 181.28 21.27 C 189.71 21.80 198.13 21.87 206.57 21.72 C 210.75 21.64 212.47 26.57 212.61 30.06 C 211.56 35.72 207.92 40.85 202.98 43.83 C 195.15 45.10 184.68 40.27 178.98 47.85 C 176.93 44.56 174.74 41.36 172.45 38.23 C 176.16 36.97 180.06 36.12 183.59 34.38 C 186.24 33.05 184.87 29.61 185.12 27.14 C 185.27 25.82 184.72 25.00 183.48 24.67 C 181.67 25.02 183.52 26.93 184.46 27.15 C 181.67 27.13 178.89 26.84 176.11 26.64 C 176.52 24.93 176.91 23.21 177.28 21.48 C 178.41 22.27 179.53 22.32 180.66 21.61 M 200.53 23.12 C 200.68 23.44 200.96 24.09 201.10 24.41 C 203.70 25.02 201.95 20.94 200.53 23.12 M 206.74 23.29 C 205.71 24.71 208.09 26.72 209.38 25.59 C 210.45 24.14 208.06 22.07 206.74 23.29 M 186.92 28.75 C 186.91 29.64 186.90 31.42 186.89 32.31 C 192.46 36.33 199.56 36.33 205.13 32.28 C 205.10 31.43 205.05 29.73 205.03 28.88 C 199.52 24.89 192.71 26.21 186.92 28.75 M 175.26 39.50 C 176.22 41.01 177.18 42.52 178.34 43.90 C 183.73 43.20 188.35 39.72 193.87 39.29 C 193.91 38.69 193.98 37.49 194.02 36.89 C 187.55 34.34 181.12 36.75 175.26 39.50 M 197.71 37.32 C 198.21 38.97 198.54 40.67 198.95 42.34 C 201.60 40.60 204.25 38.84 206.94 37.13 C 206.64 36.53 206.34 35.92 206.04 35.32 C 203.29 36.04 200.46 36.69 197.71 37.32 Z" />
</g>
<g id="#1aa9c2ff">
<path fill="#1aa9c2" opacity="1.00" d=" M 146.53 21.12 C 147.95 18.94 149.70 23.02 147.10 22.41 C 146.96 22.09 146.68 21.44 146.53 21.12 Z" />
<path fill="#1aa9c2" opacity="1.00" d=" M 88.53 23.12 C 89.95 20.94 91.70 25.02 89.10 24.41 C 88.96 24.09 88.68 23.44 88.53 23.12 Z" />
<path fill="#1aa9c2" opacity="1.00" d=" M 127.53 23.12 C 128.95 20.94 130.70 25.02 128.10 24.41 C 127.96 24.09 127.68 23.44 127.53 23.12 Z" />
<path fill="#1aa9c2" opacity="1.00" d=" M 200.53 23.12 C 201.95 20.94 203.70 25.02 201.10 24.41 C 200.96 24.09 200.68 23.44 200.53 23.12 Z" />
<path fill="#1aa9c2" opacity="1.00" d=" M 39.56 27.19 C 37.60 23.78 44.10 25.43 40.23 27.22 L 39.56 27.19 Z" />
<path fill="#1aa9c2" opacity="1.00" d=" M 72.46 27.15 C 71.52 26.93 69.67 25.02 71.48 24.67 C 72.72 25.00 73.27 25.82 73.12 27.14 L 72.46 27.15 Z" />
<path fill="#1aa9c2" opacity="1.00" d=" M 184.46 27.15 C 183.52 26.93 181.67 25.02 183.48 24.67 C 184.72 25.00 185.27 25.82 185.12 27.14 L 184.46 27.15 Z" />
<path fill="#1aa9c2" opacity="1.00" d=" M 16.48 27.63 C 15.39 27.73 13.17 25.94 15.10 25.37 C 16.26 25.59 16.94 26.33 17.14 27.58 L 16.48 27.63 Z" />
</g>
<g id="#b0ae6eff">
<path fill="#b0ae6e" opacity="1.00" d=" M 53.57 24.28 C 54.23 23.92 55.55 23.20 56.21 22.84 C 56.06 25.90 55.93 28.96 55.82 32.03 C 54.27 32.53 54.37 34.72 56.02 34.97 L 56.00 35.87 C 55.55 35.92 54.65 36.00 54.20 36.05 C 54.11 32.12 53.91 28.20 53.57 24.28 Z" />
<path fill="#b0ae6e" opacity="1.00" d=" M 109.57 24.28 C 110.22 23.93 111.52 23.23 112.17 22.88 C 112.13 25.94 111.99 28.99 111.92 32.05 C 110.32 32.47 110.36 34.68 112.01 34.98 L 111.99 35.88 C 111.54 35.92 110.65 36.00 110.20 36.04 C 110.11 32.12 109.91 28.19 109.57 24.28 Z" />
<path fill="#b0ae6e" opacity="1.00" d=" M 221.52 24.28 C 222.14 23.91 223.38 23.19 224.00 22.83 L 224.00 31.98 C 222.12 31.97 222.08 34.69 224.00 34.62 L 224.00 34.93 C 223.75 35.41 223.25 36.37 223.00 36.85 C 222.44 32.66 221.94 28.47 221.52 24.28 Z" />
</g>
<g id="#25a7c2fe">
<path fill="#25a7c2" opacity="1.00" d=" M 94.74 23.29 C 96.06 22.07 98.45 24.14 97.38 25.59 C 96.09 26.72 93.71 24.71 94.74 23.29 Z" />
<path fill="#25a7c2" opacity="1.00" d=" M 206.74 23.29 C 208.06 22.07 210.45 24.14 209.38 25.59 C 208.09 26.72 205.71 24.71 206.74 23.29 Z" />
</g>
<g id="#adaa6aff">
<path fill="#adaa6a" opacity="1.00" d=" M 165.51 24.30 C 166.19 23.93 167.54 23.21 168.22 22.84 C 168.09 25.89 167.97 28.94 167.90 32.00 C 166.33 32.34 166.20 34.51 167.82 34.91 L 167.64 35.70 C 167.40 36.37 166.91 37.70 166.66 38.37 C 165.99 33.70 165.88 28.99 165.51 24.30 Z" />
</g>
<g id="#3c6bbdff">
<path fill="#3c6bbd" opacity="1.00" d=" M 73.81 31.86 C 77.52 25.01 87.13 24.93 93.02 28.87 C 93.07 29.76 93.17 31.54 93.22 32.43 C 86.92 35.35 79.86 35.57 73.81 31.86 Z" />
<path fill="#3c6bbd" opacity="1.00" d=" M 0.00 30.98 C 5.16 28.60 10.78 27.34 16.48 27.63 L 17.14 27.58 C 17.85 29.52 18.64 31.44 19.39 33.37 C 13.19 35.82 6.64 37.31 0.00 37.83 L 0.00 30.98 Z" />
<path fill="#3c6bbd" opacity="1.00" d=" M 63.73 39.48 C 69.43 36.71 75.69 34.32 82.03 36.89 C 81.98 37.54 81.89 38.83 81.85 39.48 C 76.51 40.89 71.37 42.92 66.07 44.44 C 65.21 42.82 64.46 41.15 63.73 39.48 Z" />
</g>
<g id="#3c6bbefe">
<path fill="#3c6bbe" opacity="1.00" d=" M 149.54 24.82 C 151.09 25.37 152.65 25.91 154.21 26.45 C 153.52 30.85 153.54 35.57 151.61 39.70 C 149.75 43.27 145.59 44.43 141.99 45.39 C 141.94 42.74 140.59 39.73 141.99 37.26 C 145.10 36.02 148.34 35.06 151.50 33.94 C 150.93 30.88 150.33 27.83 149.54 24.82 Z" />
</g>
<g id="#3d6bbdfe">
<path fill="#3d6bbd" opacity="1.00" d=" M 186.92 28.75 C 192.71 26.21 199.52 24.89 205.03 28.88 C 205.05 29.73 205.10 31.43 205.13 32.28 C 199.56 36.33 192.46 36.33 186.89 32.31 C 186.90 31.42 186.91 29.64 186.92 28.75 Z" />
</g>
<g id="#a3e0a2ff">
<path fill="#a3e0a2" opacity="1.00" d=" M 159.52 34.33 C 160.32 32.05 161.21 29.80 161.95 27.49 L 162.32 28.09 C 162.88 29.07 163.41 30.06 163.92 31.06 C 162.23 31.61 161.70 33.69 162.87 35.01 C 161.39 36.68 159.90 38.32 158.52 40.06 L 158.23 39.22 C 159.31 38.33 159.57 37.23 159.01 35.92 C 159.14 35.52 159.39 34.73 159.52 34.33 Z" />
</g>
<g id="#596753ff">
<path fill="#596753" opacity="1.00" d=" M 56.02 34.97 C 54.37 34.72 54.27 32.53 55.82 32.03 C 55.87 32.77 55.97 34.23 56.02 34.97 Z" />
<path fill="#596753" opacity="1.00" d=" M 112.01 34.98 C 110.36 34.68 110.32 32.47 111.92 32.05 C 111.94 32.78 111.99 34.24 112.01 34.98 Z" />
<path fill="#596753" opacity="1.00" d=" M 167.82 34.91 C 166.20 34.51 166.33 32.34 167.90 32.00 C 167.88 32.72 167.84 34.18 167.82 34.91 Z" />
<path fill="#596753" opacity="1.00" d=" M 224.00 34.62 C 222.08 34.69 222.12 31.97 224.00 31.98 L 224.00 34.62 Z" />
</g>
<g id="#3c6abeff">
<path fill="#3c6abe" opacity="1.00" d=" M 175.26 39.50 C 181.12 36.75 187.55 34.34 194.02 36.89 C 193.98 37.49 193.91 38.69 193.87 39.29 C 188.35 39.72 183.73 43.20 178.34 43.90 C 177.18 42.52 176.22 41.01 175.26 39.50 Z" />
</g>
<g id="#3b6cbeff">
<path fill="#3b6cbe" opacity="1.00" d=" M 8.31 39.83 C 11.12 38.44 13.92 36.67 17.12 36.45 C 20.25 36.43 23.23 37.57 26.23 38.33 C 22.17 39.34 18.11 40.35 14.09 41.48 C 14.03 42.70 13.98 43.92 13.89 45.13 C 13.66 45.19 13.19 45.30 12.96 45.36 C 11.31 43.60 9.82 41.71 8.31 39.83 Z" />
</g>
<g id="#40cebefe">
<path fill="#40cebe" opacity="1.00" d=" M 35.10 44.95 C 39.76 43.93 42.54 39.58 45.15 35.97 C 43.79 39.12 42.48 42.48 39.99 44.92 C 33.57 49.06 25.15 47.88 18.39 45.24 C 23.93 44.49 29.55 45.56 35.10 44.95 Z" />
</g>
<g id="#85ae5fff">
<path fill="#85ae5f" opacity="1.00" d=" M 54.20 36.05 C 54.65 36.00 55.55 35.92 56.00 35.87 C 55.88 40.32 55.80 44.76 55.69 49.21 C 54.69 49.73 53.70 50.25 52.71 50.78 C 51.94 49.91 51.16 49.04 50.39 48.18 C 51.41 50.16 52.53 52.09 53.71 53.98 C 51.40 53.92 49.08 53.88 46.77 53.87 C 48.04 54.60 49.32 55.32 50.62 56.00 L 36.05 56.00 C 36.06 55.68 36.07 55.04 36.08 54.72 C 36.56 54.69 37.50 54.64 37.98 54.61 C 41.07 54.18 43.96 52.86 46.71 51.44 C 47.96 49.82 49.03 48.08 50.10 46.34 C 51.53 46.24 52.35 45.48 52.57 44.08 C 52.81 43.26 53.03 42.44 53.26 41.61 C 53.74 39.79 54.07 37.93 54.20 36.05 Z" />
<path fill="#85ae5f" opacity="1.00" d=" M 110.20 36.04 C 110.65 36.00 111.54 35.92 111.99 35.88 C 111.87 40.35 111.79 44.83 111.69 49.31 C 110.69 49.78 109.70 50.27 108.70 50.75 C 107.93 49.89 107.16 49.04 106.39 48.19 C 107.41 50.16 108.53 52.09 109.72 53.98 C 107.40 53.92 105.08 53.88 102.77 53.87 C 104.04 54.60 105.32 55.32 106.62 56.00 L 93.34 56.00 C 92.83 55.70 91.81 55.10 91.30 54.80 C 91.81 54.75 92.84 54.66 93.35 54.62 C 96.67 54.27 99.79 52.99 102.72 51.44 C 103.95 49.81 105.03 48.08 106.10 46.34 C 107.53 46.24 108.36 45.50 108.59 44.10 C 108.83 43.26 109.07 42.41 109.30 41.57 C 109.78 39.76 110.09 37.91 110.20 36.04 Z" />
<path fill="#85ae5f" opacity="1.00" d=" M 223.00 36.85 C 223.25 36.37 223.75 35.41 224.00 34.93 L 224.00 50.08 C 222.08 49.75 220.15 49.43 218.22 49.20 C 219.44 50.76 220.70 52.30 221.92 53.86 C 219.53 53.86 217.14 53.87 214.76 53.89 C 216.05 54.61 217.35 55.32 218.67 56.00 L 205.34 56.00 C 204.83 55.70 203.81 55.10 203.30 54.80 C 203.81 54.75 204.84 54.66 205.35 54.62 C 208.67 54.27 211.78 52.99 214.71 51.44 C 215.94 49.83 217.02 48.11 218.09 46.40 C 219.49 46.20 220.27 45.40 220.43 43.99 C 220.70 43.19 220.97 42.39 221.25 41.60 C 221.82 40.01 222.41 38.43 223.00 36.85 Z" />
</g>
<g id="#a39e6aff">
<path fill="#a39e6a" opacity="1.00" d=" M 107.49 36.51 C 107.66 36.54 107.99 36.60 108.16 36.63 C 108.52 38.28 108.90 39.93 109.30 41.57 C 109.07 42.41 108.83 43.26 108.59 44.10 C 107.17 44.18 106.34 44.92 106.10 46.34 C 105.03 48.08 103.95 49.81 102.72 51.44 C 101.18 51.57 99.64 51.70 98.11 51.82 C 98.16 51.25 98.25 50.12 98.29 49.55 C 102.35 46.00 105.81 41.68 107.49 36.51 Z" />
<path fill="#a39e6a" opacity="1.00" d=" M 219.49 36.51 C 219.66 36.54 220.01 36.59 220.18 36.62 C 220.51 38.28 220.87 39.94 221.25 41.60 C 220.97 42.39 220.70 43.19 220.43 43.99 C 219.00 44.16 218.22 44.96 218.09 46.40 C 217.02 48.11 215.94 49.83 214.71 51.44 C 213.18 51.57 211.64 51.70 210.11 51.82 C 210.16 51.25 210.25 50.12 210.29 49.55 C 214.35 46.01 217.81 41.69 219.49 36.51 Z" />
</g>
<g id="#41cfbeff">
<path fill="#41cfbe" opacity="1.00" d=" M 158.23 39.22 C 157.60 37.91 157.86 36.81 159.01 35.92 C 159.57 37.23 159.31 38.33 158.23 39.22 Z" />
</g>
<g id="#85ae60ff">
<path fill="#85ae60" opacity="1.00" d=" M 166.66 38.37 C 166.91 37.70 167.40 36.37 167.64 35.70 C 167.53 40.21 167.63 44.71 167.63 49.22 C 166.65 49.73 165.68 50.26 164.71 50.79 C 163.94 49.92 163.16 49.05 162.39 48.18 C 163.41 50.16 164.53 52.09 165.71 53.98 C 163.40 53.92 161.08 53.88 158.77 53.87 C 160.04 54.60 161.31 55.32 162.62 56.00 L 148.05 56.00 C 148.06 55.68 148.07 55.04 148.08 54.72 C 148.55 54.69 149.50 54.64 149.98 54.61 C 153.08 54.16 155.98 52.87 158.74 51.45 C 159.96 49.78 160.99 47.99 161.99 46.19 C 163.36 46.17 164.19 45.52 164.50 44.24 C 164.76 43.40 165.04 42.56 165.34 41.73 C 165.77 40.61 166.23 39.49 166.66 38.37 Z" />
</g>
<g id="#a29d6aff">
<path fill="#a29d6a" opacity="1.00" d=" M 41.50 49.85 C 46.17 46.53 49.49 41.76 52.41 36.92 C 52.67 38.49 52.95 40.05 53.26 41.61 C 53.03 42.44 52.81 43.26 52.57 44.08 C 51.15 44.17 50.33 44.93 50.10 46.34 C 49.03 48.08 47.96 49.82 46.71 51.44 C 45.18 51.57 43.65 51.72 42.12 51.86 C 41.96 51.36 41.65 50.35 41.50 49.85 Z" />
<path fill="#a29d6a" opacity="1.00" d=" M 153.49 49.80 C 158.18 46.54 161.50 41.77 164.39 36.93 C 164.68 38.53 165.00 40.14 165.34 41.73 C 165.04 42.56 164.76 43.40 164.50 44.24 C 163.09 44.02 162.26 44.67 161.99 46.19 C 160.99 47.99 159.96 49.78 158.74 51.45 C 157.18 51.59 155.62 51.74 154.06 51.87 C 153.92 51.35 153.63 50.32 153.49 49.80 Z" />
</g>
<g id="#47ccbbff">
<path fill="#47ccbb" opacity="1.00" d=" M 152.08 45.26 C 153.96 43.68 155.84 42.10 157.80 40.62 C 155.89 42.16 154.00 43.73 152.08 45.26 Z" />
</g>
<g id="#a3e1a3ff">
<path fill="#a3e1a3" opacity="1.00" d=" M 157.80 40.62 L 158.52 40.06 C 158.27 40.42 157.77 41.14 157.52 41.50 C 156.17 43.57 154.86 45.67 153.54 47.77 C 152.54 48.59 151.52 49.39 150.46 50.13 C 147.08 50.58 143.66 50.62 140.26 50.42 C 141.97 50.27 143.67 49.96 145.34 49.55 C 147.75 48.40 150.04 46.99 152.08 45.26 C 154.00 43.73 155.89 42.16 157.80 40.62 Z" />
</g>
<g id="#eef1adfe">
<path fill="#eef1ad" opacity="1.00" d=" M 157.52 41.50 C 158.26 41.47 159.73 41.43 160.47 41.40 C 158.14 44.21 155.80 46.99 153.49 49.80 L 153.16 48.53 L 153.54 47.77 C 154.86 45.67 156.17 43.57 157.52 41.50 Z" />
</g>
<g id="#60574aff">
<path fill="#60574a" opacity="1.00" d=" M 50.10 46.34 C 50.33 44.93 51.15 44.17 52.57 44.08 C 52.35 45.48 51.53 46.24 50.10 46.34 Z" />
<path fill="#60574a" opacity="1.00" d=" M 106.10 46.34 C 106.34 44.92 107.17 44.18 108.59 44.10 C 108.36 45.50 107.53 46.24 106.10 46.34 Z" />
<path fill="#60574a" opacity="1.00" d=" M 161.99 46.19 C 162.26 44.67 163.09 44.02 164.50 44.24 C 164.19 45.52 163.36 46.17 161.99 46.19 Z" />
<path fill="#60574a" opacity="1.00" d=" M 218.09 46.40 C 218.22 44.96 219.00 44.16 220.43 43.99 C 220.27 45.40 219.49 46.20 218.09 46.40 Z" />
</g>
<g id="#417bcbff">
<path fill="#417bcb" opacity="1.00" d=" M 57.32 47.24 C 58.97 46.47 60.62 45.70 62.27 44.90 C 61.89 46.84 61.53 48.78 61.36 50.74 C 60.46 50.74 59.56 50.66 58.66 50.59 C 58.21 49.47 57.76 48.36 57.32 47.24 Z" />
<path fill="#417bcb" opacity="1.00" d=" M 169.31 47.24 C 170.97 46.47 172.62 45.70 174.27 44.90 C 173.89 46.84 173.53 48.78 173.36 50.74 C 172.46 50.74 171.56 50.67 170.66 50.60 C 170.21 49.48 169.76 48.36 169.31 47.24 Z" />
</g>
<g id="#a0e0a2ff">
<path fill="#a0e0a2" opacity="1.00" d=" M 69.98 49.04 C 71.40 47.88 72.84 46.75 74.37 45.75 C 77.96 47.37 81.56 48.99 85.26 50.35 C 81.88 50.26 78.52 50.19 75.16 49.92 C 73.43 49.65 71.71 49.29 69.98 49.04 Z" />
<path fill="#a0e0a2" opacity="1.00" d=" M 181.98 49.04 C 183.40 47.88 184.84 46.76 186.37 45.75 C 189.96 47.37 193.56 49.00 197.26 50.35 C 193.87 50.26 190.52 50.19 187.16 49.92 C 185.43 49.65 183.71 49.29 181.98 49.04 Z" />
<path fill="#a0e0a2" opacity="1.00" d=" M 127.17 49.34 C 130.56 48.74 133.95 49.52 137.26 50.20 C 135.31 50.52 133.39 50.95 131.47 51.39 C 130.04 50.69 128.62 49.99 127.17 49.34 Z" />
</g>
<g id="#407eccfe">
<path fill="#407ecc" opacity="1.00" d=" M 1.23 49.93 C 3.27 48.60 5.34 47.33 7.42 46.08 C 6.87 47.63 6.33 49.19 5.79 50.75 C 4.25 50.61 2.75 50.24 1.23 49.93 Z" />
</g>
<g id="#454a3aff">
<path fill="#454a3a" opacity="1.00" d=" M 11.92 48.28 C 12.21 48.14 12.80 47.86 13.10 47.71 L 13.61 48.60 L 14.06 49.46 C 12.88 50.63 11.67 51.78 10.41 52.87 L 9.48 52.79 C 6.32 52.50 3.16 52.30 0.00 52.13 L 0.00 51.81 C 0.40 51.18 0.82 50.55 1.23 49.93 C 2.75 50.24 4.25 50.61 5.79 50.75 C 7.88 50.04 9.92 49.20 11.92 48.28 Z" />
</g>
<g id="#dfd889ff">
<path fill="#dfd889" opacity="1.00" d=" M 13.61 48.60 C 14.55 48.75 15.50 48.88 16.45 48.98 C 18.92 50.81 21.52 52.67 24.63 53.18 C 30.27 55.19 35.55 52.04 39.90 48.85 C 40.29 48.58 41.09 48.03 41.49 47.75 L 41.10 48.52 C 40.08 50.56 39.04 52.60 37.98 54.61 C 37.50 54.64 36.56 54.69 36.08 54.72 C 28.91 54.70 20.76 56.21 14.93 51.04 C 14.71 50.65 14.27 49.85 14.06 49.46 L 13.61 48.60 Z" />
</g>
<g id="#6a995cff">
<path fill="#6a995c" opacity="1.00" d=" M 50.39 48.18 C 51.16 49.04 51.94 49.91 52.71 50.78 C 53.70 50.25 54.69 49.73 55.69 49.21 L 55.67 50.33 C 55.67 50.79 55.65 51.72 55.65 52.19 C 55.16 54.60 58.84 54.22 58.83 52.12 C 60.15 52.32 61.49 52.39 62.82 52.41 L 64.04 52.07 C 63.19 53.39 62.33 54.72 61.42 56.00 L 55.53 56.00 C 55.71 53.84 52.27 53.84 52.46 56.00 L 50.62 56.00 C 49.32 55.32 48.04 54.60 46.77 53.87 C 49.08 53.88 51.40 53.92 53.71 53.98 C 52.53 52.09 51.41 50.16 50.39 48.18 Z" />
<path fill="#6a995c" opacity="1.00" d=" M 106.39 48.19 C 107.16 49.04 107.93 49.89 108.70 50.75 C 109.70 50.27 110.69 49.78 111.69 49.31 L 111.67 50.46 C 111.66 50.90 111.65 51.77 111.64 52.20 C 111.16 54.61 114.83 54.21 114.82 52.12 C 116.13 52.32 117.44 52.43 118.77 52.49 L 119.88 52.13 C 119.09 53.43 118.30 54.74 117.44 56.00 L 111.53 56.00 C 111.71 53.84 108.27 53.84 108.46 56.00 L 106.62 56.00 C 105.32 55.32 104.04 54.60 102.77 53.87 C 105.08 53.88 107.40 53.92 109.72 53.98 C 108.53 52.09 107.41 50.16 106.39 48.19 Z" />
<path fill="#6a995c" opacity="1.00" d=" M 162.39 48.18 C 163.16 49.05 163.94 49.92 164.71 50.79 C 165.68 50.26 166.65 49.73 167.63 49.22 L 167.63 50.33 C 167.64 50.80 167.64 51.73 167.65 52.19 C 167.19 54.60 170.85 54.22 170.83 52.12 C 172.15 52.32 173.49 52.39 174.82 52.41 L 176.04 52.07 C 175.18 53.39 174.33 54.72 173.42 56.00 L 167.53 56.00 C 167.71 53.84 164.27 53.84 164.46 56.00 L 162.62 56.00 C 161.31 55.32 160.04 54.60 158.77 53.87 C 161.08 53.88 163.40 53.92 165.71 53.98 C 164.53 52.09 163.41 50.16 162.39 48.18 Z" />
</g>
<g id="#dfd98aff">
<path fill="#dfd98a" opacity="1.00" d=" M 150.46 50.13 C 151.52 49.39 152.54 48.59 153.54 47.77 L 153.16 48.53 C 152.09 50.56 151.03 52.58 149.98 54.61 C 149.50 54.64 148.55 54.69 148.08 54.72 C 140.76 54.80 132.36 56.28 126.70 50.53 L 126.03 49.47 L 127.17 49.34 C 128.62 49.99 130.04 50.69 131.47 51.39 C 137.44 54.65 145.18 54.75 150.46 50.13 Z" />
</g>
<g id="#68975cfe">
<path fill="#68975c" opacity="1.00" d=" M 218.22 49.20 C 220.15 49.43 222.08 49.75 224.00 50.08 L 224.00 55.31 C 223.18 54.00 220.70 54.25 220.73 56.00 L 218.67 56.00 C 217.35 55.32 216.05 54.61 214.76 53.89 C 217.14 53.87 219.53 53.86 221.92 53.86 C 220.70 52.30 219.44 50.76 218.22 49.20 Z" />
</g>
<g id="#ccc887ff">
<path fill="#ccc887" opacity="1.00" d=" M 41.10 48.52 L 41.50 49.85 C 41.65 50.35 41.96 51.36 42.12 51.86 C 43.65 51.72 45.18 51.57 46.71 51.44 C 43.96 52.86 41.07 54.18 37.98 54.61 C 39.04 52.60 40.08 50.56 41.10 48.52 Z" />
<path fill="#ccc887" opacity="1.00" d=" M 93.35 54.62 C 94.95 52.88 96.57 51.16 98.29 49.55 C 98.25 50.12 98.16 51.25 98.11 51.82 C 99.64 51.70 101.18 51.57 102.72 51.44 C 99.79 52.99 96.67 54.27 93.35 54.62 Z" />
<path fill="#ccc887" opacity="1.00" d=" M 153.16 48.53 L 153.49 49.80 C 153.63 50.32 153.92 51.35 154.06 51.87 C 155.62 51.74 157.18 51.59 158.74 51.45 C 155.98 52.87 153.08 54.16 149.98 54.61 C 151.03 52.58 152.09 50.56 153.16 48.53 Z" />
<path fill="#ccc887" opacity="1.00" d=" M 205.35 54.62 C 206.94 52.88 208.56 51.16 210.29 49.55 C 210.25 50.12 210.16 51.25 210.11 51.82 C 211.64 51.70 213.18 51.57 214.71 51.44 C 211.78 52.99 208.67 54.27 205.35 54.62 Z" />
</g>
<g id="#4d4d42ff">
<path fill="#4d4d42" opacity="1.00" d=" M 67.96 49.33 C 68.23 49.47 68.78 49.75 69.05 49.89 C 68.31 50.75 67.59 51.63 66.88 52.52 C 66.14 51.55 65.19 51.40 64.04 52.07 L 62.82 52.41 C 63.30 51.82 63.79 51.23 64.28 50.65 L 65.08 49.74 C 66.10 50.44 67.06 50.31 67.96 49.33 Z" />
<path fill="#4d4d42" opacity="1.00" d=" M 179.96 49.33 C 180.23 49.47 180.78 49.75 181.05 49.89 C 180.31 50.75 179.59 51.63 178.88 52.52 C 178.13 51.55 177.19 51.40 176.04 52.07 L 174.82 52.41 C 175.30 51.82 175.79 51.23 176.28 50.65 L 177.08 49.74 C 178.10 50.44 179.06 50.31 179.96 49.33 Z" />
</g>
<g id="#3a3530ff">
<path fill="#3a3530" opacity="1.00" d=" M 121.62 49.57 C 122.08 49.22 123.01 48.53 123.48 48.18 L 123.97 48.59 C 123.99 48.97 124.01 49.72 124.02 50.09 C 123.71 50.47 123.09 51.23 122.78 51.61 C 122.49 51.10 121.91 50.08 121.62 49.57 Z" />
</g>
<g id="#afa66cfe">
<path fill="#afa66c" opacity="1.00" d=" M 10.41 52.87 C 11.67 51.78 12.88 50.63 14.06 49.46 C 14.27 49.85 14.71 50.65 14.93 51.04 C 15.69 52.42 16.46 53.80 17.27 55.14 C 15.08 54.14 12.82 53.20 10.41 52.87 Z" />
</g>
<g id="#415141fe">
<path fill="#415141" opacity="1.00" d=" M 55.67 50.33 C 56.42 50.39 57.91 50.52 58.66 50.59 C 59.56 50.66 60.46 50.74 61.36 50.74 C 62.09 50.72 63.55 50.68 64.28 50.65 C 63.79 51.23 63.30 51.82 62.82 52.41 C 61.49 52.39 60.15 52.32 58.83 52.12 C 57.74 51.69 56.68 51.71 55.65 52.19 C 55.65 51.72 55.67 50.79 55.67 50.33 Z" />
<path fill="#415141" opacity="1.00" d=" M 111.67 50.46 C 114.72 50.67 117.79 50.80 120.83 50.36 C 120.13 51.06 119.45 51.77 118.77 52.49 C 117.44 52.43 116.13 52.32 114.82 52.12 C 113.73 51.69 112.67 51.71 111.64 52.20 C 111.65 51.77 111.66 50.90 111.67 50.46 Z" />
<path fill="#415141" opacity="1.00" d=" M 167.63 50.33 C 168.39 50.40 169.91 50.53 170.66 50.60 C 171.56 50.67 172.46 50.74 173.36 50.74 C 174.09 50.72 175.55 50.68 176.28 50.65 C 175.79 51.23 175.30 51.82 174.82 52.41 C 173.49 52.39 172.15 52.32 170.83 52.12 C 169.74 51.69 168.68 51.71 167.65 52.19 C 167.64 51.73 167.64 50.80 167.63 50.33 Z" />
</g>
<g id="#afa66cff">
<path fill="#afa66c" opacity="1.00" d=" M 69.05 49.89 L 69.48 49.45 C 69.77 49.82 70.35 50.57 70.64 50.95 C 71.62 52.30 72.53 53.69 73.51 55.05 C 71.24 54.08 68.86 53.29 66.38 53.16 L 66.88 52.52 C 67.59 51.63 68.31 50.75 69.05 49.89 Z" />
<path fill="#afa66c" opacity="1.00" d=" M 124.02 50.09 C 124.52 49.94 125.53 49.63 126.03 49.47 L 126.70 50.53 C 127.62 52.06 128.50 53.61 129.44 55.13 C 127.18 54.12 124.83 53.26 122.35 53.07 L 122.58 52.29 L 122.78 51.61 C 123.09 51.23 123.71 50.47 124.02 50.09 Z" />
<path fill="#afa66c" opacity="1.00" d=" M 181.05 49.89 L 181.48 49.45 C 181.77 49.82 182.35 50.57 182.64 50.95 C 183.61 52.30 184.53 53.69 185.51 55.05 C 183.24 54.08 180.86 53.29 178.38 53.16 L 178.88 52.52 C 179.59 51.63 180.31 50.75 181.05 49.89 Z" />
</g>
<g id="#4f5044ff">
<path fill="#4f5044" opacity="1.00" d=" M 120.83 50.36 L 121.62 49.57 C 121.91 50.08 122.49 51.10 122.78 51.61 L 122.58 52.29 C 121.80 51.47 120.90 51.41 119.88 52.13 L 118.77 52.49 C 119.45 51.77 120.13 51.06 120.83 50.36 Z" />
</g>
<g id="#edf1acff">
<path fill="#edf1ac" opacity="1.00" d=" M 131.47 51.39 C 133.39 50.95 135.31 50.52 137.26 50.20 C 138.26 50.30 139.26 50.37 140.26 50.42 C 143.66 50.62 147.08 50.58 150.46 50.13 C 145.18 54.75 137.44 54.65 131.47 51.39 Z" />
</g>
<g id="#ccc787ff">
<path fill="#ccc787" opacity="1.00" d=" M 14.93 51.04 C 20.76 56.21 28.91 54.70 36.08 54.72 C 36.07 55.04 36.06 55.68 36.05 56.00 L 19.09 56.00 C 18.63 55.79 17.73 55.36 17.27 55.14 C 16.46 53.80 15.69 52.42 14.93 51.04 Z" />
</g>
<g id="#cdc988ff">
<path fill="#cdc988" opacity="1.00" d=" M 70.64 50.95 C 76.44 55.78 84.23 54.94 91.30 54.80 C 91.81 55.10 92.83 55.70 93.34 56.00 L 75.33 56.00 C 74.88 55.76 73.96 55.29 73.51 55.05 C 72.53 53.69 71.62 52.30 70.64 50.95 Z" />
<path fill="#cdc988" opacity="1.00" d=" M 126.70 50.53 C 132.36 56.28 140.76 54.80 148.08 54.72 C 148.07 55.04 148.06 55.68 148.05 56.00 L 131.25 56.00 C 130.80 55.78 129.89 55.34 129.44 55.13 C 128.50 53.61 127.62 52.06 126.70 50.53 Z" />
<path fill="#cdc988" opacity="1.00" d=" M 182.64 50.95 C 188.44 55.78 196.23 54.94 203.30 54.80 C 203.81 55.10 204.83 55.70 205.34 56.00 L 187.33 56.00 C 186.88 55.76 185.96 55.29 185.51 55.05 C 184.53 53.69 183.61 52.30 182.64 50.95 Z" />
</g>
<g id="#77a35eff">
<path fill="#77a35e" opacity="1.00" d=" M 0.00 52.13 C 3.16 52.30 6.32 52.50 9.48 52.79 C 11.36 53.81 13.16 54.95 15.03 56.00 L 0.00 56.00 L 0.00 52.13 Z" />
</g>
<g id="#476e47ff">
<path fill="#476e47" opacity="1.00" d=" M 10.41 52.87 C 12.82 53.20 15.08 54.14 17.27 55.14 C 17.73 55.36 18.63 55.79 19.09 56.00 L 15.03 56.00 C 13.16 54.95 11.36 53.81 9.48 52.79 L 10.41 52.87 Z" />
<path fill="#476e47" opacity="1.00" d=" M 66.38 53.16 C 68.86 53.29 71.24 54.08 73.51 55.05 C 73.96 55.29 74.88 55.76 75.33 56.00 L 70.87 56.00 C 69.00 55.13 67.17 54.16 65.38 53.15 L 66.38 53.16 Z" />
<path fill="#476e47" opacity="1.00" d=" M 122.35 53.07 C 124.83 53.26 127.18 54.12 129.44 55.13 C 129.89 55.34 130.80 55.78 131.25 56.00 L 126.94 56.00 C 125.06 55.13 123.21 54.18 121.38 53.21 L 122.35 53.07 Z" />
<path fill="#476e47" opacity="1.00" d=" M 178.38 53.16 C 180.86 53.29 183.24 54.08 185.51 55.05 C 185.96 55.29 186.88 55.76 187.33 56.00 L 182.87 56.00 C 181.00 55.13 179.17 54.16 177.38 53.15 L 178.38 53.16 Z" />
</g>
<g id="#7faa61ff">
<path fill="#7faa61" opacity="1.00" d=" M 64.04 52.07 C 64.37 52.34 65.04 52.88 65.38 53.15 C 67.17 54.16 69.00 55.13 70.87 56.00 L 61.42 56.00 C 62.33 54.72 63.19 53.39 64.04 52.07 Z" />
<path fill="#7faa61" opacity="1.00" d=" M 119.88 52.13 C 120.26 52.40 121.00 52.94 121.38 53.21 C 123.21 54.18 125.06 55.13 126.94 56.00 L 117.44 56.00 C 118.30 54.74 119.09 53.43 119.88 52.13 Z" />
<path fill="#7faa61" opacity="1.00" d=" M 176.04 52.07 C 176.37 52.34 177.04 52.88 177.38 53.15 C 179.17 54.16 181.00 55.13 182.87 56.00 L 173.42 56.00 C 174.33 54.72 175.18 53.39 176.04 52.07 Z" />
</g>
<g id="#8fb966ff">
<path fill="#8fb966" opacity="1.00" d=" M 52.46 56.00 C 52.27 53.84 55.71 53.84 55.53 56.00 L 52.46 56.00 Z" />
<path fill="#8fb966" opacity="1.00" d=" M 108.46 56.00 C 108.27 53.84 111.71 53.84 111.53 56.00 L 108.46 56.00 Z" />
<path fill="#8fb966" opacity="1.00" d=" M 164.46 56.00 C 164.27 53.84 167.71 53.84 167.53 56.00 L 164.46 56.00 Z" />
<path fill="#8fb966" opacity="1.00" d=" M 220.73 56.00 C 220.70 54.25 223.18 54.00 224.00 55.31 L 224.00 56.00 L 220.73 56.00 Z" />
</g>
</svg>
