<?xml version="1.0" encoding="UTF-8" ?>
<!DOCTYPE svg PUBLIC "-//W3C//DTD SVG 1.1//EN" "http://www.w3.org/Graphics/SVG/1.1/DTD/svg11.dtd">
<svg width="224pt" height="56pt" viewBox="0 0 224 56" version="1.1" xmlns="http://www.w3.org/2000/svg">
<g id="#739e5aff">
<path fill="#739e5a" opacity="1.00" d=" M 0.00 0.00 L 32.20 0.00 C 32.46 1.80 32.69 3.61 33.10 5.38 L 33.85 5.80 C 30.08 6.04 26.30 5.86 22.53 5.71 C 21.83 5.32 21.13 4.91 20.41 4.55 C 18.14 3.39 15.87 2.21 13.50 1.27 C 8.81 2.44 4.30 4.25 0.00 6.44 L 0.00 0.00 M 25.10 1.72 C 25.01 2.49 24.84 4.04 24.75 4.81 C 25.83 4.29 26.92 3.79 28.00 3.28 C 29.08 3.79 30.17 4.29 31.25 4.81 C 31.16 4.04 30.99 2.49 30.90 1.72 C 28.97 1.69 27.03 1.69 25.10 1.72 Z" />
</g>
<g id="#84ae5cff">
<path fill="#84ae5c" opacity="1.00" d=" M 32.20 0.00 L 50.13 0.00 C 49.68 0.57 48.76 1.70 48.31 2.27 C 46.97 2.10 45.64 1.92 44.31 1.76 C 45.86 2.59 47.45 3.36 49.05 4.10 C 49.88 2.72 50.69 1.34 51.57 0.00 L 52.63 0.00 C 51.78 3.39 50.49 6.64 49.40 9.95 L 49.21 9.42 C 47.75 3.73 41.37 2.72 36.51 1.81 C 35.94 2.43 34.79 3.67 34.22 4.29 C 33.94 4.57 33.38 5.11 33.10 5.38 C 32.69 3.61 32.46 1.80 32.20 0.00 Z" />
<path fill="#84ae5c" opacity="1.00" d=" M 88.18 0.00 L 106.13 0.00 C 105.68 0.57 104.76 1.71 104.31 2.27 C 102.97 2.10 101.64 1.92 100.31 1.76 C 101.86 2.59 103.44 3.36 105.05 4.10 C 105.88 2.72 106.69 1.34 107.57 0.00 L 108.63 0.00 C 107.79 3.39 106.48 6.64 105.39 9.95 L 105.21 9.42 C 103.75 3.73 97.37 2.72 92.51 1.81 C 91.94 2.43 90.79 3.67 90.22 4.29 C 89.94 4.56 89.38 5.11 89.10 5.38 C 88.69 3.61 88.45 1.80 88.18 0.00 Z" />
<path fill="#84ae5c" opacity="1.00" d=" M 144.18 0.00 L 162.13 0.00 C 161.68 0.57 160.76 1.71 160.31 2.27 C 158.97 2.10 157.64 1.92 156.31 1.76 C 157.86 2.59 159.44 3.36 161.05 4.10 C 161.87 2.72 162.69 1.34 163.58 0.00 L 164.63 0.00 C 163.75 3.39 162.53 6.67 161.46 9.99 L 161.27 9.42 C 159.71 3.77 153.40 2.70 148.51 1.81 C 147.94 2.43 146.79 3.67 146.22 4.29 C 145.94 4.56 145.38 5.11 145.10 5.38 C 144.69 3.61 144.45 1.80 144.18 0.00 Z" />
<path fill="#84ae5c" opacity="1.00" d=" M 200.18 0.00 L 218.13 0.00 C 217.68 0.57 216.76 1.71 216.31 2.27 C 214.97 2.10 213.64 1.92 212.31 1.76 C 213.86 2.59 215.44 3.36 217.05 4.10 C 217.87 2.72 218.69 1.34 219.57 0.00 L 220.62 0.00 C 219.81 3.40 218.46 6.63 217.39 9.95 L 217.21 9.42 C 215.75 3.73 209.36 2.72 204.51 1.81 C 203.94 2.43 202.79 3.67 202.22 4.29 C 201.94 4.56 201.38 5.11 201.10 5.38 C 200.69 3.60 200.45 1.80 200.18 0.00 Z" />
</g>
<g id="#6f9a52ff">
<path fill="#6f9a52" opacity="1.00" d=" M 50.13 0.00 L 51.57 0.00 C 50.69 1.34 49.88 2.72 49.05 4.10 C 47.45 3.36 45.86 2.59 44.31 1.76 C 45.64 1.92 46.97 2.10 48.31 2.27 C 48.76 1.70 49.68 0.57 50.13 0.00 Z" />
<path fill="#6f9a52" opacity="1.00" d=" M 106.13 0.00 L 107.57 0.00 C 106.69 1.34 105.88 2.72 105.05 4.10 C 103.44 3.36 101.86 2.59 100.31 1.76 C 101.64 1.92 102.97 2.10 104.31 2.27 C 104.76 1.71 105.68 0.57 106.13 0.00 Z" />
<path fill="#6f9a52" opacity="1.00" d=" M 162.13 0.00 L 163.58 0.00 C 162.69 1.34 161.87 2.72 161.05 4.10 C 159.44 3.36 157.86 2.59 156.31 1.76 C 157.64 1.92 158.97 2.10 160.31 2.27 C 160.76 1.71 161.68 0.57 162.13 0.00 Z" />
<path fill="#6f9a52" opacity="1.00" d=" M 218.13 0.00 L 219.57 0.00 C 218.69 1.34 217.87 2.72 217.05 4.10 C 215.44 3.36 213.86 2.59 212.31 1.76 C 213.64 1.92 214.97 2.10 216.31 2.27 C 216.76 1.71 217.68 0.57 218.13 0.00 Z" />
</g>
<g id="#6a975afe">
<path fill="#6a975a" opacity="1.00" d=" M 52.63 0.00 L 55.07 0.00 C 54.80 1.50 55.41 4.71 57.53 3.83 C 58.45 2.27 56.48 0.96 55.52 0.00 L 62.02 0.00 C 62.37 2.56 65.19 2.43 65.63 0.00 L 65.81 0.00 C 66.28 0.29 67.22 0.87 67.69 1.16 C 63.79 2.77 59.86 4.28 55.93 5.78 C 55.35 5.30 54.21 4.35 53.64 3.87 C 53.04 7.84 54.76 11.97 53.07 15.78 C 52.29 17.74 51.43 19.66 50.50 21.56 C 50.05 17.95 49.65 14.34 49.23 10.73 C 49.27 10.53 49.35 10.15 49.40 9.95 C 50.49 6.64 51.78 3.39 52.63 0.00 Z" />
<path fill="#6a975a" opacity="1.00" d=" M 108.63 0.00 L 111.07 0.00 C 110.80 1.50 111.41 4.71 113.53 3.83 C 114.45 2.27 112.48 0.96 111.52 0.00 L 118.02 0.00 C 118.37 2.56 121.19 2.43 121.63 0.00 L 121.81 0.00 C 122.28 0.29 123.22 0.87 123.69 1.16 C 119.79 2.76 115.87 4.28 111.94 5.79 C 111.37 5.31 110.22 4.36 109.65 3.88 C 109.06 7.84 110.73 11.97 109.08 15.78 C 108.32 17.76 107.48 19.71 106.56 21.62 C 106.06 18.00 105.65 14.36 105.22 10.72 C 105.27 10.53 105.35 10.14 105.39 9.95 C 106.48 6.64 107.79 3.39 108.63 0.00 Z" />
<path fill="#6a975a" opacity="1.00" d=" M 164.63 0.00 L 167.07 0.00 C 166.80 1.50 167.41 4.71 169.53 3.83 C 170.45 2.27 168.48 0.96 167.52 0.00 L 174.02 0.00 C 174.37 2.56 177.19 2.43 177.63 0.00 L 177.81 0.00 C 178.28 0.29 179.22 0.87 179.69 1.16 C 175.79 2.77 171.86 4.28 167.93 5.78 C 167.36 5.30 166.21 4.35 165.64 3.87 C 165.46 6.19 165.57 8.51 165.81 10.82 C 166.25 14.73 164.03 18.22 162.48 21.65 C 162.06 18.06 161.59 14.47 161.39 10.87 C 161.41 10.65 161.44 10.21 161.46 9.99 C 162.53 6.67 163.75 3.39 164.63 0.00 Z" />
</g>
<g id="#8bb561fe">
<path fill="#8bb561" opacity="1.00" d=" M 55.07 0.00 L 55.52 0.00 C 56.48 0.96 58.45 2.27 57.53 3.83 C 55.41 4.71 54.80 1.50 55.07 0.00 Z" />
<path fill="#8bb561" opacity="1.00" d=" M 111.07 0.00 L 111.52 0.00 C 112.48 0.96 114.45 2.27 113.53 3.83 C 111.41 4.71 110.80 1.50 111.07 0.00 Z" />
<path fill="#8bb561" opacity="1.00" d=" M 167.07 0.00 L 167.52 0.00 C 168.48 0.96 170.45 2.27 169.53 3.83 C 167.41 4.71 166.80 1.50 167.07 0.00 Z" />
<path fill="#8bb561" opacity="1.00" d=" M 63.72 52.83 C 64.74 52.73 65.62 53.34 66.39 53.93 C 65.41 54.64 64.42 55.33 63.42 56.00 L 62.19 56.00 C 62.68 54.94 63.15 53.86 63.72 52.83 Z" />
<path fill="#8bb561" opacity="1.00" d=" M 119.72 52.83 C 120.74 52.72 121.61 53.36 122.39 53.93 C 121.41 54.64 120.42 55.33 119.42 56.00 L 118.19 56.00 C 118.68 54.93 119.15 53.86 119.72 52.83 Z" />
<path fill="#8bb561" opacity="1.00" d=" M 175.72 52.83 C 176.73 52.73 177.62 53.34 178.39 53.93 C 177.41 54.64 176.42 55.33 175.42 56.00 L 174.19 56.00 C 174.68 54.94 175.15 53.86 175.72 52.83 Z" />
</g>
<g id="#85b166ff">
<path fill="#85b166" opacity="1.00" d=" M 62.02 0.00 L 65.63 0.00 C 65.19 2.43 62.37 2.56 62.02 0.00 Z" />
<path fill="#85b166" opacity="1.00" d=" M 118.02 0.00 L 121.63 0.00 C 121.19 2.43 118.37 2.56 118.02 0.00 Z" />
<path fill="#85b166" opacity="1.00" d=" M 174.02 0.00 L 177.63 0.00 C 177.19 2.43 174.37 2.56 174.02 0.00 Z" />
</g>
<g id="#80aa5cff">
<path fill="#80aa5c" opacity="1.00" d=" M 65.81 0.00 L 79.77 0.00 C 79.58 1.69 79.43 3.40 78.96 5.05 C 78.60 4.95 77.89 4.76 77.53 4.67 C 74.71 3.74 71.91 2.74 69.09 1.80 C 68.74 1.64 68.04 1.32 67.69 1.16 C 67.22 0.87 66.28 0.29 65.81 0.00 Z" />
<path fill="#80aa5c" opacity="1.00" d=" M 121.81 0.00 L 135.77 0.00 C 135.58 1.69 135.43 3.40 134.96 5.05 C 134.60 4.95 133.89 4.76 133.53 4.67 C 130.70 3.74 127.91 2.74 125.09 1.80 C 124.74 1.64 124.04 1.32 123.69 1.16 C 123.22 0.87 122.28 0.29 121.81 0.00 Z" />
<path fill="#80aa5c" opacity="1.00" d=" M 177.81 0.00 L 191.77 0.00 C 191.58 1.69 191.43 3.40 190.96 5.05 C 190.60 4.95 189.89 4.76 189.53 4.67 C 186.70 3.74 183.91 2.74 181.09 1.80 C 180.74 1.64 180.04 1.32 179.69 1.16 C 179.22 0.87 178.28 0.29 177.81 0.00 Z" />
</g>
<g id="#6e9a57ff">
<path fill="#6e9a57" opacity="1.00" d=" M 79.77 0.00 L 88.18 0.00 C 88.45 1.80 88.69 3.61 89.10 5.38 L 89.86 5.78 C 86.00 6.01 82.14 5.89 78.28 5.89 L 78.96 5.05 C 79.43 3.40 79.58 1.69 79.77 0.00 M 81.10 1.72 C 81.01 2.49 80.84 4.04 80.75 4.81 C 81.83 4.29 82.92 3.79 84.00 3.28 C 85.08 3.79 86.17 4.29 87.25 4.81 C 87.16 4.04 86.99 2.49 86.90 1.72 C 84.97 1.69 83.03 1.69 81.10 1.72 Z" />
<path fill="#6e9a57" opacity="1.00" d=" M 135.77 0.00 L 144.18 0.00 C 144.45 1.80 144.69 3.61 145.10 5.38 L 145.86 5.78 C 142.00 6.01 138.14 5.89 134.28 5.89 L 134.96 5.05 C 135.43 3.40 135.58 1.69 135.77 0.00 M 137.10 1.72 C 137.01 2.49 136.84 4.04 136.75 4.81 C 137.83 4.29 138.92 3.79 140.00 3.28 C 141.08 3.79 142.16 4.29 143.25 4.81 C 143.16 4.04 142.99 2.49 142.90 1.72 C 140.97 1.69 139.03 1.69 137.10 1.72 Z" />
<path fill="#6e9a57" opacity="1.00" d=" M 191.77 0.00 L 200.18 0.00 C 200.45 1.80 200.69 3.60 201.10 5.38 L 201.86 5.78 C 198.00 6.01 194.14 5.89 190.28 5.89 L 190.96 5.05 C 191.43 3.40 191.58 1.69 191.77 0.00 M 193.10 1.72 C 193.01 2.49 192.84 4.04 192.75 4.81 C 193.83 4.29 194.92 3.79 196.00 3.28 C 197.08 3.79 198.16 4.29 199.25 4.81 C 199.16 4.04 198.99 2.49 198.90 1.72 C 196.97 1.69 195.03 1.69 193.10 1.72 Z" />
</g>
<g id="#699659ff">
<path fill="#699659" opacity="1.00" d=" M 220.62 0.00 L 223.20 0.00 C 222.27 1.21 222.54 2.12 224.00 2.72 L 224.00 6.44 C 223.54 5.65 222.63 4.09 222.18 3.31 C 220.96 6.15 221.27 9.21 222.40 12.01 C 221.17 15.23 219.90 18.44 218.51 21.60 C 218.05 17.98 217.66 14.35 217.22 10.72 C 217.27 10.53 217.35 10.15 217.39 9.95 C 218.46 6.63 219.81 3.40 220.62 0.00 Z" />
</g>
<g id="#91bc69ff">
<path fill="#91bc69" opacity="1.00" d=" M 223.20 0.00 L 224.00 0.00 L 224.00 2.72 C 222.54 2.12 222.27 1.21 223.20 0.00 Z" />
</g>
<g id="#5e8e65fe">
<path fill="#5e8e65" opacity="1.00" d=" M 13.50 1.27 C 15.87 2.21 18.14 3.39 20.41 4.55 C 18.00 3.82 15.57 3.18 13.19 2.35 L 13.50 1.27 Z" />
</g>
<g id="#87b05cfe">
<path fill="#87b05c" opacity="1.00" d=" M 25.10 1.72 C 27.03 1.69 28.97 1.69 30.90 1.72 C 30.99 2.49 31.16 4.04 31.25 4.81 C 30.17 4.29 29.08 3.79 28.00 3.28 C 26.92 3.79 25.83 4.29 24.75 4.81 C 24.84 4.04 25.01 2.49 25.10 1.72 Z" />
<path fill="#87b05c" opacity="1.00" d=" M 81.10 1.72 C 83.03 1.69 84.97 1.69 86.90 1.72 C 86.99 2.49 87.16 4.04 87.25 4.81 C 86.17 4.29 85.08 3.79 84.00 3.28 C 82.92 3.79 81.83 4.29 80.75 4.81 C 80.84 4.04 81.01 2.49 81.10 1.72 Z" />
<path fill="#87b05c" opacity="1.00" d=" M 137.10 1.72 C 139.03 1.69 140.97 1.69 142.90 1.72 C 142.99 2.49 143.16 4.04 143.25 4.81 C 142.16 4.29 141.08 3.79 140.00 3.28 C 138.92 3.79 137.83 4.29 136.75 4.81 C 136.84 4.04 137.01 2.49 137.10 1.72 Z" />
<path fill="#87b05c" opacity="1.00" d=" M 193.10 1.72 C 195.03 1.69 196.97 1.69 198.90 1.72 C 198.99 2.49 199.16 4.04 199.25 4.81 C 198.16 4.29 197.08 3.79 196.00 3.28 C 194.92 3.79 193.83 4.29 192.75 4.81 C 192.84 4.04 193.01 2.49 193.10 1.72 Z" />
</g>
<g id="#619062ff">
<path fill="#619062" opacity="1.00" d=" M 69.09 1.80 C 71.91 2.74 74.71 3.74 77.53 4.67 C 74.91 4.04 72.28 3.39 69.87 2.15 L 69.09 1.80 Z" />
<path fill="#619062" opacity="1.00" d=" M 125.09 1.80 C 127.91 2.74 130.70 3.74 133.53 4.67 C 130.91 4.04 128.28 3.39 125.87 2.15 L 125.09 1.80 Z" />
<path fill="#619062" opacity="1.00" d=" M 181.09 1.80 C 183.91 2.74 186.70 3.74 189.53 4.67 C 186.91 4.04 184.27 3.39 181.87 2.15 L 181.09 1.80 Z" />
</g>
<g id="#342f2bff">
<path fill="#342f2b" opacity="1.00" d=" M 0.00 6.44 C 4.30 4.25 8.81 2.44 13.50 1.27 L 13.19 2.35 C 13.03 2.89 12.71 3.96 12.55 4.49 C 15.84 5.17 19.18 5.56 22.53 5.71 C 26.30 5.86 30.08 6.04 33.85 5.80 C 36.06 5.65 38.21 5.12 40.36 4.65 C 40.49 4.63 40.74 4.60 40.86 4.58 C 41.20 9.10 45.58 9.51 49.21 9.42 L 49.40 9.95 C 49.35 10.15 49.27 10.53 49.23 10.73 C 48.31 13.82 47.15 16.86 46.39 20.00 C 44.89 20.26 43.40 20.52 41.90 20.79 C 41.88 18.86 41.84 15.01 41.82 13.08 C 40.57 12.99 39.32 12.89 38.07 12.80 C 39.29 15.26 40.46 17.73 41.61 20.22 C 41.22 20.19 40.43 20.12 40.04 20.08 C 38.49 19.86 36.95 19.61 35.42 19.34 C 35.84 16.80 36.36 14.28 36.87 11.77 C 38.82 11.63 40.76 11.46 42.70 11.23 C 40.13 9.60 37.39 8.28 34.58 7.14 C 34.13 8.19 33.69 9.24 33.24 10.29 C 32.82 10.15 31.96 9.87 31.53 9.73 C 30.33 8.94 29.17 8.09 28.00 7.26 C 26.83 8.10 25.67 8.94 24.47 9.73 C 24.04 9.87 23.17 10.13 22.74 10.26 C 22.36 9.36 21.98 8.46 21.58 7.56 C 19.78 8.11 17.98 9.16 16.04 8.89 C 14.69 8.12 13.52 7.08 12.20 6.25 C 10.79 10.41 10.88 14.69 12.12 18.81 C 12.08 19.28 12.02 20.21 11.99 20.68 C 11.71 20.44 11.14 19.96 10.86 19.73 C 10.29 18.49 9.75 17.25 9.23 16.00 C 7.01 16.39 4.79 16.83 2.59 17.30 C 3.53 17.77 4.46 18.23 5.40 18.69 C 6.03 18.88 7.27 19.27 7.90 19.47 C 8.01 19.91 8.22 20.79 8.33 21.23 C 5.54 20.50 2.76 19.72 0.00 18.88 L 0.00 6.44 M 8.23 11.90 C 5.81 14.53 11.19 14.53 8.77 11.90 C 9.62 10.03 9.26 7.66 8.61 5.78 C 7.49 7.15 7.50 10.14 8.23 11.90 M 3.53 8.07 C 4.05 10.61 4.79 13.09 5.61 15.54 C 5.84 13.03 6.01 10.52 6.15 8.00 C 5.49 8.02 4.19 8.05 3.53 8.07 Z" />
</g>
<g id="#6b9a5fff">
<path fill="#6b9a5f" opacity="1.00" d=" M 34.22 4.29 C 34.79 3.67 35.94 2.43 36.51 1.81 C 41.37 2.72 47.75 3.73 49.21 9.42 C 45.58 9.51 41.20 9.10 40.86 4.58 C 40.74 4.60 40.49 4.63 40.36 4.65 C 38.31 4.55 36.27 4.36 34.22 4.29 Z" />
<path fill="#6b9a5f" opacity="1.00" d=" M 90.22 4.29 C 90.79 3.67 91.94 2.43 92.51 1.81 C 97.37 2.72 103.75 3.73 105.21 9.42 C 101.58 9.50 97.20 9.11 96.86 4.58 C 96.74 4.60 96.49 4.64 96.36 4.65 C 94.31 4.55 92.27 4.36 90.22 4.29 Z" />
<path fill="#6b9a5f" opacity="1.00" d=" M 146.22 4.29 C 146.79 3.67 147.94 2.43 148.51 1.81 C 153.40 2.70 159.71 3.77 161.27 9.42 C 157.63 9.50 153.20 9.14 152.86 4.58 C 152.74 4.60 152.49 4.64 152.36 4.65 C 150.31 4.55 148.27 4.36 146.22 4.29 Z" />
<path fill="#6b9a5f" opacity="1.00" d=" M 202.22 4.29 C 202.79 3.67 203.94 2.43 204.51 1.81 C 209.36 2.72 215.75 3.73 217.21 9.42 C 213.58 9.50 209.20 9.11 208.86 4.58 C 208.74 4.60 208.49 4.64 208.36 4.65 C 206.31 4.55 204.27 4.36 202.22 4.29 Z" />
</g>
<g id="#342f2bfe">
<path fill="#342f2b" opacity="1.00" d=" M 55.93 5.78 C 59.86 4.28 63.79 2.77 67.69 1.16 C 68.04 1.32 68.74 1.64 69.09 1.80 L 69.87 2.15 C 69.40 2.68 68.48 3.74 68.02 4.27 C 71.37 5.13 74.80 5.87 78.28 5.89 C 82.14 5.89 86.00 6.01 89.86 5.78 C 92.06 5.64 94.21 5.11 96.36 4.65 C 96.49 4.64 96.74 4.60 96.86 4.58 C 97.20 9.11 101.58 9.50 105.21 9.42 L 105.39 9.95 C 105.35 10.14 105.27 10.53 105.22 10.72 C 104.29 13.87 103.13 16.95 102.40 20.15 C 101.03 20.10 99.66 20.05 98.29 20.00 L 98.19 19.19 C 98.00 17.78 97.62 14.97 97.43 13.56 C 96.27 13.18 95.10 12.82 93.93 12.48 C 95.01 14.69 96.12 16.89 97.31 19.05 C 96.74 18.98 95.58 18.86 95.00 18.80 C 93.85 18.68 92.70 18.60 91.55 18.55 C 91.94 16.28 92.41 14.03 92.91 11.78 C 94.84 11.63 96.77 11.45 98.70 11.23 C 96.14 9.60 93.39 8.29 90.59 7.14 C 90.13 8.19 89.68 9.24 89.24 10.30 C 88.81 10.15 87.96 9.87 87.54 9.73 C 86.33 8.94 85.17 8.10 84.00 7.26 C 82.83 8.10 81.67 8.94 80.47 9.73 C 80.02 9.87 79.11 10.14 78.66 10.27 C 78.32 9.36 77.98 8.45 77.63 7.54 C 75.83 8.13 73.99 9.11 72.04 8.90 C 70.83 8.14 69.72 7.22 68.55 6.41 C 67.82 9.04 67.12 11.68 66.35 14.30 C 67.28 15.56 68.20 16.85 69.17 18.08 C 68.82 18.27 68.13 18.66 67.78 18.85 C 67.36 19.11 66.53 19.62 66.11 19.88 C 66.01 18.58 65.90 17.28 65.80 15.98 C 63.85 16.24 61.90 16.51 59.95 16.80 C 60.39 17.17 61.28 17.91 61.72 18.28 C 62.31 18.55 63.49 19.07 64.08 19.34 L 64.18 20.22 C 61.40 19.50 58.63 18.73 55.87 17.93 C 55.87 13.88 55.88 9.83 55.93 5.78 M 64.23 11.90 C 61.81 14.53 67.19 14.53 64.77 11.90 C 65.62 10.03 65.26 7.66 64.61 5.78 C 63.49 7.15 63.50 10.14 64.23 11.90 M 59.53 8.07 C 60.05 10.61 60.79 13.09 61.61 15.54 C 61.83 13.03 62.01 10.52 62.15 8.00 C 61.49 8.02 60.19 8.05 59.53 8.07 Z" />
<path fill="#342f2b" opacity="1.00" d=" M 167.93 5.78 C 171.86 4.28 175.79 2.77 179.69 1.16 C 180.04 1.32 180.74 1.64 181.09 1.80 L 181.87 2.15 C 181.40 2.68 180.48 3.74 180.02 4.27 C 183.37 5.13 186.79 5.87 190.28 5.89 C 194.14 5.89 198.00 6.01 201.86 5.78 C 204.06 5.64 206.21 5.11 208.36 4.65 C 208.49 4.64 208.74 4.60 208.86 4.58 C 209.20 9.11 213.58 9.50 217.21 9.42 L 217.39 9.95 C 217.35 10.15 217.27 10.53 217.22 10.72 C 216.28 13.87 215.13 16.95 214.40 20.15 C 213.03 20.10 211.66 20.05 210.29 20.00 L 210.19 19.19 C 210.00 17.78 209.62 14.97 209.43 13.56 C 208.27 13.18 207.10 12.82 205.93 12.48 C 207.01 14.69 208.12 16.89 209.31 19.05 C 208.74 18.98 207.58 18.86 207.00 18.80 C 205.85 18.68 204.70 18.60 203.55 18.55 C 203.94 16.28 204.41 14.03 204.91 11.78 C 206.84 11.63 208.77 11.45 210.70 11.23 C 208.14 9.60 205.39 8.29 202.59 7.14 C 202.13 8.19 201.68 9.24 201.24 10.30 C 200.81 10.15 199.96 9.87 199.54 9.73 C 198.33 8.94 197.17 8.10 196.00 7.26 C 194.83 8.10 193.66 8.94 192.47 9.73 C 192.02 9.87 191.11 10.14 190.66 10.27 C 190.32 9.36 189.98 8.45 189.63 7.54 C 187.83 8.13 185.99 9.11 184.04 8.90 C 182.83 8.14 181.72 7.22 180.55 6.41 C 179.81 9.04 179.13 11.68 178.35 14.30 C 179.28 15.56 180.20 16.85 181.17 18.08 C 180.82 18.27 180.13 18.66 179.78 18.85 C 179.36 19.11 178.53 19.62 178.11 19.88 C 178.00 18.58 177.90 17.28 177.80 15.98 C 175.85 16.24 173.90 16.51 171.95 16.80 C 172.39 17.17 173.28 17.91 173.72 18.28 C 174.31 18.55 175.49 19.07 176.08 19.34 L 176.18 20.22 C 173.40 19.50 170.63 18.73 167.87 17.93 C 167.86 13.88 167.88 9.83 167.93 5.78 M 176.23 11.90 C 173.81 14.53 179.19 14.53 176.77 11.90 C 177.62 10.03 177.26 7.66 176.61 5.78 C 175.49 7.15 175.50 10.14 176.23 11.90 M 171.53 8.07 C 172.05 10.61 172.79 13.09 173.61 15.54 C 173.83 13.03 174.01 10.52 174.15 8.00 C 173.49 8.02 172.19 8.05 171.53 8.07 Z" />
</g>
<g id="#34302bff">
<path fill="#34302b" opacity="1.00" d=" M 111.94 5.79 C 115.87 4.28 119.79 2.76 123.69 1.16 C 124.04 1.32 124.74 1.64 125.09 1.80 L 125.87 2.15 C 125.40 2.68 124.48 3.74 124.02 4.27 C 127.37 5.13 130.79 5.87 134.28 5.89 C 138.14 5.89 142.00 6.01 145.86 5.78 C 148.06 5.64 150.21 5.11 152.36 4.65 C 152.49 4.64 152.74 4.60 152.86 4.58 C 153.20 9.14 157.63 9.50 161.27 9.42 L 161.46 9.99 C 161.44 10.21 161.41 10.65 161.39 10.87 C 160.41 14.44 159.25 18.22 156.15 20.52 C 155.71 20.43 154.85 20.24 154.41 20.15 C 154.35 19.41 154.22 17.93 154.15 17.19 C 154.04 15.80 153.93 14.42 153.82 13.04 C 152.41 13.05 150.99 13.07 149.58 13.08 C 150.85 14.53 152.11 15.98 153.44 17.38 C 152.76 17.61 151.40 18.05 150.71 18.28 C 149.57 17.78 148.40 17.34 147.24 16.90 C 147.90 15.22 148.57 13.53 149.24 11.85 C 151.05 11.66 152.85 11.46 154.65 11.25 C 151.84 8.84 148.02 7.24 144.41 8.94 C 139.40 7.86 134.29 8.82 129.23 8.80 C 127.24 8.96 125.93 7.05 124.22 6.34 C 123.37 9.99 121.62 14.42 124.64 17.59 C 124.42 17.68 123.97 17.88 123.75 17.98 C 123.37 18.19 122.62 18.62 122.24 18.83 C 122.08 18.22 121.77 17.00 121.62 16.39 C 120.44 16.18 119.26 15.96 118.09 15.75 C 118.62 16.99 119.16 18.23 119.69 19.48 C 117.10 18.57 114.51 17.68 111.92 16.79 C 111.89 13.12 111.93 9.46 111.94 5.79 M 120.23 11.90 C 117.81 14.53 123.19 14.53 120.77 11.90 C 121.62 10.03 121.26 7.66 120.61 5.78 C 119.49 7.15 119.50 10.14 120.23 11.90 M 115.53 8.07 C 116.05 10.61 116.79 13.09 117.61 15.54 C 117.83 13.03 118.01 10.52 118.15 8.00 C 117.49 8.02 116.19 8.05 115.53 8.07 Z" />
</g>
<g id="#5a5347ff">
<path fill="#5a5347" opacity="1.00" d=" M 12.55 4.49 C 12.71 3.96 13.03 2.89 13.19 2.35 C 15.57 3.18 18.00 3.82 20.41 4.55 C 21.13 4.91 21.83 5.32 22.53 5.71 C 19.18 5.56 15.84 5.17 12.55 4.49 Z" />
<path fill="#5a5347" opacity="1.00" d=" M 68.02 4.27 C 68.48 3.74 69.40 2.68 69.87 2.15 C 72.28 3.39 74.91 4.04 77.53 4.67 C 77.89 4.76 78.60 4.95 78.96 5.05 L 78.28 5.89 C 74.80 5.87 71.37 5.13 68.02 4.27 Z" />
<path fill="#5a5347" opacity="1.00" d=" M 124.02 4.27 C 124.48 3.74 125.40 2.68 125.87 2.15 C 128.28 3.39 130.91 4.04 133.53 4.67 C 133.89 4.76 134.60 4.95 134.96 5.05 L 134.28 5.89 C 130.79 5.87 127.37 5.13 124.02 4.27 Z" />
<path fill="#5a5347" opacity="1.00" d=" M 180.02 4.27 C 180.48 3.74 181.40 2.68 181.87 2.15 C 184.27 3.39 186.91 4.04 189.53 4.67 C 189.89 4.76 190.60 4.95 190.96 5.05 L 190.28 5.89 C 186.79 5.87 183.37 5.13 180.02 4.27 Z" />
</g>
<g id="#5d5347ff">
<path fill="#5d5347" opacity="1.00" d=" M 33.10 5.38 C 33.38 5.11 33.94 4.57 34.22 4.29 C 36.27 4.36 38.31 4.55 40.36 4.65 C 38.21 5.12 36.06 5.65 33.85 5.80 L 33.10 5.38 Z" />
<path fill="#5d5347" opacity="1.00" d=" M 89.10 5.38 C 89.38 5.11 89.94 4.56 90.22 4.29 C 92.27 4.36 94.31 4.55 96.36 4.65 C 94.21 5.11 92.06 5.64 89.86 5.78 L 89.10 5.38 Z" />
<path fill="#5d5347" opacity="1.00" d=" M 145.10 5.38 C 145.38 5.11 145.94 4.56 146.22 4.29 C 148.27 4.36 150.31 4.55 152.36 4.65 C 150.21 5.11 148.06 5.64 145.86 5.78 L 145.10 5.38 Z" />
<path fill="#5d5347" opacity="1.00" d=" M 201.10 5.38 C 201.38 5.11 201.94 4.56 202.22 4.29 C 204.27 4.36 206.31 4.55 208.36 4.65 C 206.21 5.11 204.06 5.64 201.86 5.78 L 201.10 5.38 Z" />
</g>
<g id="#86b05fff">
<path fill="#86b05f" opacity="1.00" d=" M 53.07 15.78 C 54.76 11.97 53.04 7.84 53.64 3.87 C 54.21 4.35 55.35 5.30 55.93 5.78 C 55.88 9.83 55.87 13.88 55.87 17.93 C 55.89 18.36 55.91 19.22 55.92 19.65 L 55.94 21.18 C 55.07 20.35 52.83 19.58 52.48 21.29 C 53.05 22.64 54.89 22.18 55.96 21.81 C 55.89 22.26 55.75 23.16 55.68 23.61 C 55.55 24.23 55.42 24.85 55.28 25.47 C 53.54 24.38 51.69 23.43 49.63 23.13 C 49.85 22.73 50.28 21.95 50.50 21.56 C 51.43 19.66 52.29 17.74 53.07 15.78 Z" />
<path fill="#86b05f" opacity="1.00" d=" M 109.08 15.78 C 110.73 11.97 109.06 7.84 109.65 3.88 C 110.22 4.36 111.37 5.31 111.94 5.79 C 111.93 9.46 111.89 13.12 111.92 16.79 C 111.93 17.21 111.95 18.04 111.96 18.46 C 111.98 19.20 112.01 20.68 112.03 21.41 C 111.20 20.50 108.89 19.46 108.46 21.24 C 108.99 22.64 110.83 22.15 111.95 21.94 C 111.89 22.35 111.77 23.18 111.71 23.59 C 111.24 24.41 110.76 25.22 110.26 26.03 C 109.90 25.02 109.53 24.02 109.17 23.01 C 107.92 23.24 106.66 23.46 105.41 23.72 C 105.70 23.20 106.27 22.15 106.56 21.62 C 107.48 19.71 108.32 17.76 109.08 15.78 Z" />
<path fill="#86b05f" opacity="1.00" d=" M 165.81 10.82 C 165.57 8.51 165.46 6.19 165.64 3.87 C 166.21 4.35 167.36 5.30 167.93 5.78 C 167.88 9.83 167.86 13.88 167.87 17.93 C 167.88 18.36 167.90 19.22 167.91 19.66 L 167.94 21.18 C 167.07 20.35 164.83 19.58 164.48 21.29 C 165.04 22.64 166.89 22.18 167.96 21.82 C 167.89 22.26 167.76 23.16 167.69 23.61 C 167.56 24.22 167.42 24.84 167.28 25.46 C 165.53 24.41 163.70 23.42 161.64 23.13 C 161.85 22.76 162.27 22.02 162.48 21.65 C 164.03 18.22 166.25 14.73 165.81 10.82 Z" />
<path fill="#86b05f" opacity="1.00" d=" M 222.40 12.01 C 221.27 9.21 220.96 6.15 222.18 3.31 C 222.63 4.09 223.54 5.65 224.00 6.44 L 224.00 21.27 C 223.11 20.43 220.84 19.51 220.45 21.27 C 221.02 22.68 222.90 22.14 224.00 21.79 L 224.00 23.45 C 223.41 24.32 222.80 25.18 222.18 26.03 C 221.85 25.02 221.53 24.00 221.22 22.99 C 219.95 23.22 218.67 23.46 217.41 23.72 C 217.69 23.19 218.23 22.13 218.51 21.60 C 219.90 18.44 221.17 15.23 222.40 12.01 Z" />
</g>
<g id="#77694cfe">
<path fill="#77694c" opacity="1.00" d=" M 8.23 11.90 C 7.50 10.14 7.49 7.15 8.61 5.78 C 9.26 7.66 9.62 10.03 8.77 11.90 L 8.23 11.90 Z" />
<path fill="#77694c" opacity="1.00" d=" M 64.23 11.90 C 63.50 10.14 63.49 7.15 64.61 5.78 C 65.26 7.66 65.62 10.03 64.77 11.90 L 64.23 11.90 Z" />
<path fill="#77694c" opacity="1.00" d=" M 120.23 11.90 C 119.50 10.14 119.49 7.15 120.61 5.78 C 121.26 7.66 121.62 10.03 120.77 11.90 L 120.23 11.90 Z" />
<path fill="#77694c" opacity="1.00" d=" M 176.23 11.90 C 175.50 10.14 175.49 7.15 176.61 5.78 C 177.26 7.66 177.62 10.03 176.77 11.90 L 176.23 11.90 Z" />
</g>
<g id="#5d5649ff">
<path fill="#5d5649" opacity="1.00" d=" M 12.20 6.25 C 13.52 7.08 14.69 8.12 16.04 8.89 C 17.98 9.16 19.78 8.11 21.58 7.56 C 21.98 8.46 22.36 9.36 22.74 10.26 L 23.11 11.14 L 23.46 12.08 C 23.93 14.71 23.81 17.39 23.56 20.03 C 22.48 19.85 21.40 19.66 20.32 19.47 C 20.26 17.67 20.19 15.88 20.11 14.08 C 18.82 14.46 17.53 14.83 16.24 15.19 C 15.61 16.64 14.98 18.09 14.37 19.54 C 13.80 19.36 12.68 19.00 12.12 18.81 C 10.88 14.69 10.79 10.41 12.20 6.25 M 18.21 11.41 C 17.07 11.12 15.53 11.30 14.82 12.35 C 14.95 14.39 20.10 13.02 18.21 11.41 Z" />
<path fill="#5d5649" opacity="1.00" d=" M 68.55 6.41 C 69.72 7.22 70.83 8.14 72.04 8.90 C 73.99 9.11 75.83 8.13 77.63 7.54 C 77.98 8.45 78.32 9.36 78.66 10.27 L 78.99 11.15 L 79.31 12.09 C 79.76 14.36 80.01 16.66 80.15 18.97 L 79.30 18.95 C 78.31 18.92 77.32 18.87 76.33 18.81 C 76.22 17.05 76.05 15.28 75.86 13.53 C 73.90 15.03 71.98 16.59 70.12 18.21 C 69.88 18.18 69.41 18.11 69.17 18.08 C 68.20 16.85 67.28 15.56 66.35 14.30 C 67.12 11.68 67.82 9.04 68.55 6.41 M 74.21 11.41 C 73.07 11.12 71.53 11.30 70.82 12.35 C 70.95 14.39 76.10 13.02 74.21 11.41 Z" />
<path fill="#5d5649" opacity="1.00" d=" M 180.55 6.41 C 181.72 7.22 182.83 8.14 184.04 8.90 C 185.99 9.11 187.83 8.13 189.63 7.54 C 189.98 8.45 190.32 9.36 190.66 10.27 L 190.99 11.15 L 191.31 12.09 C 191.76 14.36 192.01 16.66 192.15 18.97 L 191.30 18.95 C 190.31 18.92 189.32 18.87 188.33 18.81 C 188.22 17.05 188.05 15.28 187.86 13.53 C 185.90 15.03 183.98 16.59 182.12 18.21 C 181.88 18.18 181.41 18.11 181.17 18.08 C 180.20 16.85 179.28 15.56 178.35 14.30 C 179.13 11.68 179.81 9.04 180.55 6.41 M 186.21 11.41 C 185.07 11.12 183.52 11.30 182.82 12.35 C 182.95 14.39 188.10 13.02 186.21 11.41 Z" />
</g>
<g id="#5e574afe">
<path fill="#5e574a" opacity="1.00" d=" M 124.22 6.34 C 125.93 7.05 127.24 8.96 129.23 8.80 C 134.29 8.82 139.40 7.86 144.41 8.94 C 148.02 7.24 151.84 8.84 154.65 11.25 C 152.85 11.46 151.05 11.66 149.24 11.85 C 148.57 13.53 147.90 15.22 147.24 16.90 C 146.47 17.26 144.94 17.98 144.17 18.35 C 144.25 16.25 144.42 14.16 144.75 12.08 L 144.93 11.16 C 142.41 11.19 137.36 11.25 134.84 11.28 L 135.06 12.18 C 135.51 14.13 135.84 16.10 136.12 18.08 L 135.32 18.01 C 134.26 17.90 133.21 17.78 132.17 17.64 C 132.06 16.71 131.86 14.85 131.76 13.92 C 129.92 15.05 128.11 16.24 126.26 17.35 C 125.86 17.41 125.04 17.53 124.64 17.59 C 121.62 14.42 123.37 9.99 124.22 6.34 M 130.21 11.41 C 129.07 11.12 127.53 11.30 126.82 12.35 C 126.95 14.39 132.10 13.02 130.21 11.41 Z" />
</g>
<g id="#565248ff">
<path fill="#565248" opacity="1.00" d=" M 24.47 9.73 C 25.67 8.94 26.83 8.10 28.00 7.26 C 29.17 8.09 30.33 8.94 31.53 9.73 C 29.18 9.66 26.82 9.66 24.47 9.73 Z" />
<path fill="#565248" opacity="1.00" d=" M 80.47 9.73 C 81.67 8.94 82.83 8.10 84.00 7.26 C 85.17 8.10 86.33 8.94 87.54 9.73 C 85.18 9.66 82.82 9.66 80.47 9.73 Z" />
<path fill="#565248" opacity="1.00" d=" M 192.47 9.73 C 193.66 8.94 194.83 8.10 196.00 7.26 C 197.17 8.10 198.33 8.94 199.54 9.73 C 197.18 9.66 194.82 9.66 192.47 9.73 Z" />
</g>
<g id="#5b5549ff">
<path fill="#5b5549" opacity="1.00" d=" M 34.58 7.14 C 37.39 8.28 40.13 9.60 42.70 11.23 C 40.76 11.46 38.82 11.63 36.87 11.77 C 36.36 14.28 35.84 16.80 35.42 19.34 C 34.44 19.58 33.46 19.83 32.47 20.08 C 32.19 17.41 32.08 14.71 32.53 12.05 L 32.88 11.15 L 33.24 10.29 C 33.69 9.24 34.13 8.19 34.58 7.14 Z" />
</g>
<g id="#5c554aff">
<path fill="#5c554a" opacity="1.00" d=" M 90.59 7.14 C 93.39 8.29 96.14 9.60 98.70 11.23 C 96.77 11.45 94.84 11.63 92.91 11.78 C 92.41 14.03 91.94 16.28 91.55 18.55 C 90.47 18.68 89.40 18.82 88.32 18.98 C 88.16 16.67 88.23 14.34 88.52 12.04 L 88.87 11.15 L 89.24 10.30 C 89.68 9.24 90.13 8.19 90.59 7.14 Z" />
<path fill="#5c554a" opacity="1.00" d=" M 202.59 7.14 C 205.39 8.29 208.14 9.60 210.70 11.23 C 208.77 11.45 206.84 11.63 204.91 11.78 C 204.41 14.03 203.94 16.28 203.55 18.55 C 202.47 18.68 201.39 18.82 200.32 18.98 C 200.16 16.67 200.23 14.34 200.52 12.04 L 200.87 11.15 L 201.24 10.30 C 201.68 9.24 202.13 8.19 202.59 7.14 Z" />
</g>
<g id="#60574aff">
<path fill="#60574a" opacity="1.00" d=" M 3.53 8.07 C 4.19 8.05 5.49 8.02 6.15 8.00 C 6.01 10.52 5.84 13.03 5.61 15.54 C 4.79 13.09 4.05 10.61 3.53 8.07 Z" />
<path fill="#60574a" opacity="1.00" d=" M 59.53 8.07 C 60.19 8.05 61.49 8.02 62.15 8.00 C 62.01 10.52 61.83 13.03 61.61 15.54 C 60.79 13.09 60.05 10.61 59.53 8.07 Z" />
<path fill="#60574a" opacity="1.00" d=" M 115.53 8.07 C 116.19 8.05 117.49 8.02 118.15 8.00 C 118.01 10.52 117.83 13.03 117.61 15.54 C 116.79 13.09 116.05 10.61 115.53 8.07 Z" />
<path fill="#60574a" opacity="1.00" d=" M 171.53 8.07 C 172.19 8.05 173.49 8.02 174.15 8.00 C 174.01 10.52 173.83 13.03 173.61 15.54 C 172.79 13.09 172.05 10.61 171.53 8.07 Z" />
<path fill="#60574a" opacity="1.00" d=" M 8.23 11.90 L 8.77 11.90 C 11.19 14.53 5.81 14.53 8.23 11.90 Z" />
<path fill="#60574a" opacity="1.00" d=" M 64.23 11.90 L 64.77 11.90 C 67.19 14.53 61.81 14.53 64.23 11.90 Z" />
<path fill="#60574a" opacity="1.00" d=" M 120.23 11.90 L 120.77 11.90 C 123.19 14.53 117.81 14.53 120.23 11.90 Z" />
<path fill="#60574a" opacity="1.00" d=" M 176.23 11.90 L 176.77 11.90 C 179.19 14.53 173.81 14.53 176.23 11.90 Z" />
</g>
<g id="#75634eff">
<path fill="#75634e" opacity="1.00" d=" M 22.74 10.26 C 23.17 10.13 24.04 9.87 24.47 9.73 C 26.82 9.66 29.18 9.66 31.53 9.73 C 31.96 9.87 32.82 10.15 33.24 10.29 L 32.88 11.15 C 29.62 11.21 26.36 11.28 23.11 11.14 L 22.74 10.26 Z" />
<path fill="#75634e" opacity="1.00" d=" M 78.66 10.27 C 79.11 10.14 80.02 9.87 80.47 9.73 C 82.82 9.66 85.18 9.66 87.54 9.73 C 87.96 9.87 88.81 10.15 89.24 10.30 L 88.87 11.15 C 85.57 11.22 82.28 11.28 78.99 11.15 L 78.66 10.27 Z" />
<path fill="#75634e" opacity="1.00" d=" M 190.66 10.27 C 191.11 10.14 192.02 9.87 192.47 9.73 C 194.82 9.66 197.18 9.66 199.54 9.73 C 199.96 9.87 200.81 10.15 201.24 10.30 L 200.87 11.15 C 197.56 11.22 194.29 11.28 190.99 11.15 L 190.66 10.27 Z" />
</g>
<g id="#332e2aff">
<path fill="#332e2a" opacity="1.00" d=" M 18.21 11.41 C 20.10 13.02 14.95 14.39 14.82 12.35 C 15.53 11.30 17.07 11.12 18.21 11.41 Z" />
<path fill="#332e2a" opacity="1.00" d=" M 74.21 11.41 C 76.10 13.02 70.95 14.39 70.82 12.35 C 71.53 11.30 73.07 11.12 74.21 11.41 Z" />
<path fill="#332e2a" opacity="1.00" d=" M 130.21 11.41 C 132.10 13.02 126.95 14.39 126.82 12.35 C 127.53 11.30 129.07 11.12 130.21 11.41 Z" />
<path fill="#332e2a" opacity="1.00" d=" M 186.21 11.41 C 188.10 13.02 182.95 14.39 182.82 12.35 C 183.52 11.30 185.07 11.12 186.21 11.41 Z" />
<path fill="#332e2a" opacity="1.00" d=" M 70.12 18.21 C 71.98 16.59 73.90 15.03 75.86 13.53 C 76.05 15.28 76.22 17.05 76.33 18.81 C 75.18 18.74 74.03 18.65 72.89 18.54 C 72.19 18.45 70.81 18.29 70.12 18.21 Z" />
<path fill="#332e2a" opacity="1.00" d=" M 182.12 18.21 C 183.98 16.59 185.90 15.03 187.86 13.53 C 188.05 15.28 188.22 17.05 188.33 18.81 C 187.18 18.74 186.03 18.65 184.89 18.54 C 184.19 18.45 182.81 18.29 182.12 18.21 Z" />
<path fill="#332e2a" opacity="1.00" d=" M 27.07 15.64 C 27.54 15.64 28.46 15.64 28.93 15.63 C 28.58 17.04 28.47 18.51 28.72 19.94 C 28.36 19.94 27.64 19.95 27.28 19.96 C 27.53 18.52 27.43 17.05 27.07 15.64 Z" />
<path fill="#332e2a" opacity="1.00" d=" M 83.16 15.69 C 83.60 15.68 84.48 15.65 84.91 15.64 C 84.50 16.70 84.42 17.78 84.65 18.89 C 84.32 18.90 83.65 18.91 83.32 18.92 C 83.65 17.83 83.60 16.75 83.16 15.69 Z" />
<path fill="#332e2a" opacity="1.00" d=" M 139.20 18.25 C 137.01 14.65 143.00 14.66 140.82 18.27 C 140.42 18.26 139.60 18.26 139.20 18.25 Z" />
<path fill="#332e2a" opacity="1.00" d=" M 195.16 15.69 C 195.60 15.68 196.48 15.65 196.91 15.64 C 196.50 16.70 196.42 17.78 196.65 18.89 C 196.32 18.90 195.65 18.91 195.32 18.92 C 195.65 17.83 195.59 16.75 195.16 15.69 Z" />
<path fill="#332e2a" opacity="1.00" d=" M 42.85 32.91 C 45.35 32.81 47.86 32.79 50.36 32.83 L 50.21 33.92 C 49.51 39.10 48.50 44.23 47.37 49.33 C 48.50 50.08 49.65 50.82 50.75 51.61 L 50.93 52.15 L 49.91 51.93 C 49.03 51.73 48.13 51.63 47.22 51.62 C 45.55 51.55 43.88 51.49 42.21 51.46 L 42.53 50.84 C 43.06 49.69 43.56 48.52 44.03 47.34 C 44.53 46.28 44.28 45.07 44.23 43.95 C 44.35 42.74 44.52 41.53 44.69 40.32 L 44.81 39.47 C 47.32 39.56 46.38 36.59 44.30 37.76 C 43.92 37.50 43.15 36.98 42.77 36.72 C 42.76 36.40 42.75 35.76 42.75 35.44 C 42.77 34.81 42.82 33.54 42.85 32.91 M 43.70 35.13 C 45.48 36.13 47.27 37.13 49.06 38.13 C 49.03 37.35 48.98 35.79 48.95 35.01 C 47.20 35.05 45.45 35.08 43.70 35.13 Z" />
<path fill="#332e2a" opacity="1.00" d=" M 98.84 33.11 C 101.34 32.89 103.85 32.80 106.36 32.78 L 106.21 33.91 C 105.51 39.09 104.50 44.23 103.37 49.33 C 104.50 50.08 105.65 50.82 106.75 51.61 L 106.94 52.15 L 105.91 51.93 C 105.02 51.74 104.12 51.64 103.21 51.62 C 101.69 51.54 100.17 51.49 98.64 51.47 L 99.02 50.66 L 99.40 49.68 C 99.68 48.96 99.95 48.24 100.23 47.53 C 100.75 46.34 101.26 44.52 99.97 43.63 L 99.51 43.21 C 100.73 42.63 101.21 41.70 100.95 40.42 L 100.75 39.21 C 103.17 40.35 102.67 36.97 100.53 37.41 C 99.98 37.06 98.86 36.37 98.30 36.02 C 98.43 35.29 98.70 33.83 98.84 33.11 M 99.70 35.13 C 101.48 36.13 103.27 37.13 105.06 38.13 C 105.03 37.35 104.98 35.79 104.95 35.01 C 103.20 35.05 101.45 35.08 99.70 35.13 Z" />
<path fill="#332e2a" opacity="1.00" d=" M 154.98 32.94 C 157.46 32.82 159.94 32.79 162.43 32.83 L 162.27 33.92 C 161.50 39.10 160.49 44.23 159.37 49.33 C 160.50 50.08 161.64 50.82 162.75 51.61 L 162.94 52.15 L 161.91 51.94 C 161.02 51.75 160.12 51.64 159.21 51.63 C 157.75 51.55 156.29 51.49 154.82 51.44 L 155.39 50.58 C 156.21 47.01 156.40 43.33 157.25 39.76 C 159.31 38.92 157.65 36.10 156.36 38.28 C 155.93 36.82 155.54 35.34 155.19 33.86 L 154.98 32.94 M 155.70 35.13 C 157.48 36.13 159.27 37.13 161.06 38.13 C 161.03 37.35 160.98 35.79 160.95 35.01 C 159.20 35.05 157.45 35.08 155.70 35.13 Z" />
<path fill="#332e2a" opacity="1.00" d=" M 210.89 33.19 C 213.37 32.92 215.87 32.81 218.37 32.76 L 218.21 33.90 C 217.51 39.21 216.47 44.46 215.25 49.67 C 216.32 50.18 217.41 50.70 218.49 51.21 C 218.47 51.59 218.42 52.37 218.40 52.75 C 217.41 52.24 216.36 51.92 215.26 51.79 C 213.61 51.56 211.95 51.37 210.31 51.16 L 210.88 50.51 L 211.63 49.62 C 211.89 48.94 212.13 48.25 212.37 47.55 C 212.86 46.33 213.18 44.55 211.96 43.63 L 211.50 43.19 C 212.74 42.64 213.23 41.72 212.97 40.43 L 212.77 39.20 C 215.19 40.35 214.68 36.96 212.55 37.39 C 211.95 37.07 210.75 36.42 210.15 36.10 C 210.33 35.37 210.70 33.92 210.89 33.19 M 211.70 35.13 C 213.48 36.13 215.27 37.13 217.06 38.13 C 217.03 37.35 216.98 35.79 216.95 35.01 C 215.19 35.05 213.44 35.08 211.70 35.13 Z" />
</g>
<g id="#9c894eff">
<path fill="#9c894e" opacity="1.00" d=" M 23.11 11.14 C 26.36 11.28 29.62 11.21 32.88 11.15 L 32.53 12.05 C 29.51 12.22 26.48 12.26 23.46 12.08 L 23.11 11.14 Z" />
<path fill="#9c894e" opacity="1.00" d=" M 78.99 11.15 C 82.28 11.28 85.57 11.22 88.87 11.15 L 88.52 12.04 C 85.45 12.22 82.37 12.29 79.31 12.09 L 78.99 11.15 Z" />
<path fill="#9c894e" opacity="1.00" d=" M 134.84 11.28 C 137.36 11.25 142.41 11.19 144.93 11.16 L 144.75 12.08 C 141.52 12.28 138.29 12.34 135.06 12.18 L 134.84 11.28 Z" />
<path fill="#9c894e" opacity="1.00" d=" M 190.99 11.15 C 194.29 11.28 197.56 11.22 200.87 11.15 L 200.52 12.04 C 197.45 12.22 194.37 12.29 191.31 12.09 L 190.99 11.15 Z" />
</g>
<g id="#4b5745ff">
<path fill="#4b5745" opacity="1.00" d=" M 49.23 10.73 C 49.65 14.34 50.05 17.95 50.50 21.56 C 49.10 22.16 47.71 22.78 46.26 23.23 C 46.28 22.15 46.32 21.07 46.39 20.00 C 47.15 16.86 48.31 13.82 49.23 10.73 Z" />
<path fill="#4b5745" opacity="1.00" d=" M 105.22 10.72 C 105.65 14.36 106.06 18.00 106.56 21.62 C 105.13 22.13 103.67 22.59 102.19 22.91 C 102.24 21.99 102.31 21.07 102.40 20.15 C 103.13 16.95 104.29 13.87 105.22 10.72 Z" />
<path fill="#4b5745" opacity="1.00" d=" M 217.22 10.72 C 217.66 14.35 218.05 17.98 218.51 21.60 C 217.09 22.12 215.66 22.59 214.19 22.91 C 214.24 21.99 214.31 21.07 214.40 20.15 C 215.13 16.95 216.28 13.87 217.22 10.72 Z" />
</g>
<g id="#515946ff">
<path fill="#515946" opacity="1.00" d=" M 161.39 10.87 C 161.59 14.47 162.06 18.06 162.48 21.65 C 160.38 22.33 158.26 22.95 156.11 23.47 L 156.28 22.22 C 156.25 21.80 156.18 20.95 156.15 20.52 C 159.25 18.22 160.41 14.44 161.39 10.87 Z" />
</g>
<g id="#76644eff">
<path fill="#76644e" opacity="1.00" d=" M 23.46 12.08 C 26.48 12.26 29.51 12.22 32.53 12.05 C 32.08 14.71 32.19 17.41 32.47 20.08 C 31.95 20.06 30.91 20.01 30.39 19.99 C 30.35 18.49 30.09 16.97 29.40 15.63 L 28.93 15.63 C 28.46 15.64 27.54 15.64 27.07 15.64 L 26.60 15.64 C 25.92 16.99 25.66 18.51 25.61 20.01 C 25.10 20.02 24.07 20.03 23.56 20.03 C 23.81 17.39 23.93 14.71 23.46 12.08 Z" />
</g>
<g id="#77644eff">
<path fill="#77644e" opacity="1.00" d=" M 79.31 12.09 C 82.37 12.29 85.45 12.22 88.52 12.04 C 88.23 14.34 88.16 16.67 88.32 18.98 C 87.87 18.96 86.96 18.91 86.50 18.89 C 86.47 17.70 86.13 16.62 85.48 15.63 L 84.91 15.64 C 84.48 15.65 83.60 15.68 83.16 15.69 L 82.61 15.71 C 82.04 16.74 81.62 17.82 81.34 18.96 C 81.04 18.96 80.45 18.97 80.15 18.97 C 80.01 16.66 79.76 14.36 79.31 12.09 Z" />
<path fill="#77644e" opacity="1.00" d=" M 191.31 12.09 C 194.37 12.29 197.45 12.22 200.52 12.04 C 200.23 14.34 200.16 16.67 200.32 18.98 C 199.87 18.96 198.96 18.91 198.50 18.89 C 198.46 17.70 198.12 16.62 197.48 15.63 L 196.91 15.64 C 196.48 15.65 195.60 15.68 195.16 15.69 L 194.61 15.71 C 194.04 16.74 193.62 17.82 193.34 18.96 C 193.04 18.96 192.45 18.97 192.15 18.97 C 192.01 16.66 191.76 14.36 191.31 12.09 Z" />
</g>
<g id="#70604dff">
<path fill="#70604d" opacity="1.00" d=" M 135.06 12.18 C 138.29 12.34 141.52 12.28 144.75 12.08 C 144.42 14.16 144.25 16.25 144.17 18.35 C 143.05 18.28 141.94 18.26 140.82 18.27 C 143.00 14.66 137.01 14.65 139.20 18.25 C 138.17 18.20 137.15 18.15 136.12 18.08 C 135.84 16.10 135.51 14.13 135.06 12.18 Z" />
</g>
<g id="#716955fe">
<path fill="#716955" opacity="1.00" d=" M 38.07 12.80 C 39.32 12.89 40.57 12.99 41.82 13.08 C 41.84 15.01 41.88 18.86 41.90 20.79 L 41.61 20.22 C 40.46 17.73 39.29 15.26 38.07 12.80 Z" />
</g>
<g id="#746b56ff">
<path fill="#746b56" opacity="1.00" d=" M 93.93 12.48 C 95.10 12.82 96.27 13.18 97.43 13.56 C 97.62 14.97 98.00 17.78 98.19 19.19 L 97.31 19.05 C 96.12 16.89 95.01 14.69 93.93 12.48 Z" />
<path fill="#746b56" opacity="1.00" d=" M 205.93 12.48 C 207.10 12.82 208.27 13.18 209.43 13.56 C 209.62 14.97 210.00 17.78 210.19 19.19 L 209.31 19.05 C 208.12 16.89 207.01 14.69 205.93 12.48 Z" />
</g>
<g id="#71654bff">
<path fill="#71654b" opacity="1.00" d=" M 149.58 13.08 C 150.99 13.07 152.41 13.05 153.82 13.04 C 153.93 14.42 154.04 15.80 154.15 17.19 L 153.44 17.38 C 152.11 15.98 150.85 14.53 149.58 13.08 Z" />
</g>
<g id="#322e2aff">
<path fill="#322e2a" opacity="1.00" d=" M 16.24 15.19 C 17.53 14.83 18.82 14.46 20.11 14.08 C 20.19 15.88 20.26 17.67 20.32 19.47 C 19.16 19.59 18.01 19.69 16.85 19.77 C 16.23 19.71 14.99 19.60 14.37 19.54 C 14.98 18.09 15.61 16.64 16.24 15.19 Z" />
</g>
<g id="#332e2afe">
<path fill="#332e2a" opacity="1.00" d=" M 126.26 17.35 C 128.11 16.24 129.92 15.05 131.76 13.92 C 131.86 14.85 132.06 16.71 132.17 17.64 C 131.06 17.59 129.96 17.53 128.87 17.48 C 128.21 17.45 126.91 17.38 126.26 17.35 Z" />
</g>
<g id="#565249ff">
<path fill="#565249" opacity="1.00" d=" M 26.60 15.64 L 27.07 15.64 C 27.43 17.05 27.53 18.52 27.28 19.96 C 26.87 19.97 26.03 20.00 25.61 20.01 C 25.66 18.51 25.92 16.99 26.60 15.64 Z" />
<path fill="#565249" opacity="1.00" d=" M 28.93 15.63 L 29.40 15.63 C 30.09 16.97 30.35 18.49 30.39 19.99 C 29.97 19.98 29.14 19.95 28.72 19.94 C 28.47 18.51 28.58 17.04 28.93 15.63 Z" />
<path fill="#565249" opacity="1.00" d=" M 82.61 15.71 L 83.16 15.69 C 83.60 16.75 83.65 17.83 83.32 18.92 C 82.82 18.93 81.83 18.95 81.34 18.96 C 81.62 17.82 82.04 16.74 82.61 15.71 Z" />
<path fill="#565249" opacity="1.00" d=" M 84.91 15.64 L 85.48 15.63 C 86.13 16.62 86.47 17.70 86.50 18.89 C 86.04 18.89 85.11 18.89 84.65 18.89 C 84.42 17.78 84.50 16.70 84.91 15.64 Z" />
<path fill="#565249" opacity="1.00" d=" M 194.61 15.71 L 195.16 15.69 C 195.59 16.75 195.65 17.83 195.32 18.92 C 194.82 18.93 193.83 18.95 193.34 18.96 C 193.62 17.82 194.04 16.74 194.61 15.71 Z" />
<path fill="#565249" opacity="1.00" d=" M 196.91 15.64 L 197.48 15.63 C 198.12 16.62 198.46 17.70 198.50 18.89 C 198.04 18.89 197.11 18.89 196.65 18.89 C 196.42 17.78 196.50 16.70 196.91 15.64 Z" />
<path fill="#565249" opacity="1.00" d=" M 43.70 35.13 C 45.45 35.08 47.20 35.05 48.95 35.01 C 48.98 35.79 49.03 37.35 49.06 38.13 C 47.27 37.13 45.48 36.13 43.70 35.13 Z" />
<path fill="#565249" opacity="1.00" d=" M 99.70 35.13 C 101.45 35.08 103.20 35.05 104.95 35.01 C 104.98 35.79 105.03 37.35 105.06 38.13 C 103.27 37.13 101.48 36.13 99.70 35.13 Z" />
<path fill="#565249" opacity="1.00" d=" M 155.70 35.13 C 157.45 35.08 159.20 35.05 160.95 35.01 C 160.98 35.79 161.03 37.35 161.06 38.13 C 159.27 37.13 157.48 36.13 155.70 35.13 Z" />
<path fill="#565249" opacity="1.00" d=" M 211.70 35.13 C 213.44 35.08 215.19 35.05 216.95 35.01 C 216.98 35.79 217.03 37.35 217.06 38.13 C 215.27 37.13 213.48 36.13 211.70 35.13 Z" />
<path fill="#565249" opacity="1.00" d=" M 44.30 37.76 C 46.38 36.59 47.32 39.56 44.81 39.47 C 44.68 39.04 44.43 38.19 44.30 37.76 Z" />
<path fill="#565249" opacity="1.00" d=" M 100.53 37.41 C 102.67 36.97 103.17 40.35 100.75 39.21 C 100.70 38.76 100.59 37.86 100.53 37.41 Z" />
<path fill="#565249" opacity="1.00" d=" M 156.36 38.28 C 157.65 36.10 159.31 38.92 157.25 39.76 C 157.03 39.39 156.58 38.65 156.36 38.28 Z" />
<path fill="#565249" opacity="1.00" d=" M 212.55 37.39 C 214.68 36.96 215.19 40.35 212.77 39.20 C 212.71 38.75 212.60 37.84 212.55 37.39 Z" />
</g>
<g id="#5d564aff">
<path fill="#5d564a" opacity="1.00" d=" M 2.59 17.30 C 4.79 16.83 7.01 16.39 9.23 16.00 C 9.75 17.25 10.29 18.49 10.86 19.73 C 10.22 20.10 8.96 20.86 8.33 21.23 C 8.22 20.79 8.01 19.91 7.90 19.47 C 8.41 17.43 5.28 16.02 5.40 18.69 C 4.46 18.23 3.53 17.77 2.59 17.30 Z" />
</g>
<g id="#625f57ff">
<path fill="#625f57" opacity="1.00" d=" M 59.95 16.80 C 61.90 16.51 63.85 16.24 65.80 15.98 C 65.90 17.28 66.01 18.58 66.11 19.88 C 65.65 20.17 64.72 20.74 64.25 21.03 L 64.18 20.22 L 64.08 19.34 C 64.54 17.82 62.35 16.51 61.72 18.28 C 61.28 17.91 60.39 17.17 59.95 16.80 Z" />
<path fill="#625f57" opacity="1.00" d=" M 171.95 16.80 C 173.90 16.51 175.85 16.24 177.80 15.98 C 177.90 17.28 178.00 18.58 178.11 19.88 C 177.65 20.17 176.72 20.74 176.25 21.03 L 176.18 20.22 L 176.08 19.34 C 176.54 17.82 174.35 16.51 173.72 18.28 C 173.28 17.91 172.39 17.17 171.95 16.80 Z" />
</g>
<g id="#6b675bff">
<path fill="#6b675b" opacity="1.00" d=" M 118.09 15.75 C 119.26 15.96 120.44 16.18 121.62 16.39 C 121.77 17.00 122.08 18.22 122.24 18.83 C 121.67 19.16 120.53 19.81 119.96 20.14 L 119.69 19.48 C 119.16 18.23 118.62 16.99 118.09 15.75 Z" />
</g>
<g id="#8a7c4cff">
<path fill="#8a7c4c" opacity="1.00" d=" M 5.40 18.69 C 5.28 16.02 8.41 17.43 7.90 19.47 C 7.27 19.27 6.03 18.88 5.40 18.69 Z" />
</g>
<g id="#84774cff">
<path fill="#84774c" opacity="1.00" d=" M 61.72 18.28 C 62.35 16.51 64.54 17.82 64.08 19.34 C 63.49 19.07 62.31 18.55 61.72 18.28 Z" />
<path fill="#84774c" opacity="1.00" d=" M 173.72 18.28 C 174.35 16.51 176.54 17.82 176.08 19.34 C 175.49 19.07 174.31 18.55 173.72 18.28 Z" />
</g>
<g id="#437acaff">
<path fill="#437aca" opacity="1.00" d=" M 111.92 16.79 C 114.51 17.68 117.10 18.57 119.69 19.48 L 119.96 20.14 C 120.19 20.96 120.38 21.80 120.54 22.64 C 120.23 25.09 123.73 24.74 122.95 22.40 C 133.05 22.04 143.17 22.90 153.25 21.90 C 153.53 22.36 154.08 23.30 154.35 23.77 C 153.48 23.84 151.73 23.97 150.85 24.04 C 144.62 24.57 138.28 24.72 132.19 26.28 C 130.17 26.87 128.85 30.80 131.33 31.61 C 136.41 34.82 142.97 34.23 148.04 31.34 C 147.63 29.23 147.21 27.11 146.89 24.98 C 148.73 27.46 149.88 30.34 150.89 33.23 C 147.66 34.73 143.09 35.42 141.97 39.38 C 140.99 42.44 139.11 45.05 136.42 46.84 C 137.28 43.97 138.44 41.17 138.88 38.20 C 135.35 35.35 130.39 35.00 126.15 33.63 C 126.71 33.25 127.83 32.50 128.39 32.12 C 128.57 30.50 128.93 27.26 129.11 25.65 C 123.33 26.26 117.52 26.68 111.78 27.66 C 111.74 26.30 111.72 24.95 111.71 23.59 C 111.77 23.18 111.89 22.35 111.95 21.94 L 112.03 21.41 C 114.51 22.44 117.21 22.55 119.86 22.59 C 117.30 21.07 114.62 19.79 111.96 18.46 C 111.95 18.04 111.93 17.21 111.92 16.79 Z" />
<path fill="#437aca" opacity="1.00" d=" M 0.00 18.88 C 2.76 19.72 5.54 20.50 8.33 21.23 L 8.35 21.78 C 8.39 22.74 8.44 23.70 8.48 24.66 C 7.97 27.11 11.65 26.69 10.91 24.42 C 20.95 24.26 30.99 24.38 41.01 24.26 L 41.43 24.31 L 42.13 24.69 C 41.22 25.36 40.33 26.07 39.44 26.77 C 34.51 27.05 29.51 26.83 24.62 27.68 C 21.69 27.97 20.43 30.90 18.80 32.92 C 21.79 33.84 24.66 35.50 27.83 35.80 C 30.05 35.36 32.04 34.19 34.10 33.28 C 33.63 31.27 33.18 29.25 32.75 27.23 C 34.65 30.06 36.53 32.92 38.88 35.41 L 39.10 35.68 C 36.47 36.53 32.54 35.90 31.35 38.95 C 29.50 43.10 26.56 46.56 23.70 50.04 C 29.64 50.43 35.59 50.91 41.55 50.87 C 34.75 51.32 27.92 51.73 21.14 50.74 C 20.97 49.10 20.78 47.46 20.70 45.82 C 23.11 44.56 25.88 43.52 27.30 41.04 C 23.58 35.11 13.41 34.49 9.16 40.20 C 10.39 43.48 13.44 45.51 15.85 47.88 C 12.69 46.74 9.89 44.81 8.24 41.83 C 6.77 38.67 2.83 39.24 0.00 38.58 L 0.00 37.91 C 5.73 36.77 12.07 37.21 17.22 34.13 C 19.36 32.82 18.05 30.13 18.02 28.13 C 19.13 27.77 20.23 27.41 21.34 27.04 C 14.09 27.31 6.72 27.99 0.00 30.90 L 0.00 23.45 C 2.49 24.43 5.18 24.59 7.82 24.64 C 5.28 23.04 2.62 21.64 0.00 20.18 L 0.00 18.88 Z" />
</g>
<g id="#437ec9ff">
<path fill="#437ec9" opacity="1.00" d=" M 123.75 17.98 C 123.97 17.88 124.42 17.68 124.64 17.59 C 125.04 17.53 125.86 17.41 126.26 17.35 C 126.91 17.38 128.21 17.45 128.87 17.48 C 131.01 17.66 133.16 17.83 135.32 18.01 L 136.12 18.08 C 137.15 18.15 138.17 18.20 139.20 18.25 C 139.60 18.26 140.42 18.26 140.82 18.27 C 141.94 18.26 143.05 18.28 144.17 18.35 C 145.96 18.50 149.54 18.82 151.33 18.98 C 142.36 19.59 133.34 19.70 124.46 21.29 C 124.22 20.19 123.99 19.08 123.75 17.98 Z" />
<path fill="#437ec9" opacity="1.00" d=" M 67.78 18.85 C 68.13 18.66 68.82 18.27 69.17 18.08 C 69.41 18.11 69.88 18.18 70.12 18.21 C 70.81 18.29 72.19 18.45 72.89 18.54 C 75.02 18.71 77.16 18.85 79.30 18.95 L 80.15 18.97 C 80.45 18.97 81.04 18.96 81.34 18.96 C 81.83 18.95 82.82 18.93 83.32 18.92 C 83.65 18.91 84.32 18.90 84.65 18.89 C 85.11 18.89 86.04 18.89 86.50 18.89 C 86.96 18.91 87.87 18.96 88.32 18.98 C 90.14 19.19 93.78 19.61 95.60 19.81 C 86.55 20.71 77.42 20.64 68.44 22.30 C 68.22 21.15 68.00 20.00 67.78 18.85 Z" />
<path fill="#437ec9" opacity="1.00" d=" M 179.78 18.85 C 180.13 18.66 180.82 18.27 181.17 18.08 C 181.41 18.11 181.88 18.18 182.12 18.21 C 182.81 18.29 184.19 18.45 184.89 18.54 C 187.02 18.71 189.16 18.85 191.30 18.95 L 192.15 18.97 C 192.45 18.97 193.04 18.96 193.34 18.96 C 193.83 18.95 194.82 18.93 195.32 18.92 C 195.65 18.91 196.32 18.90 196.65 18.89 C 197.11 18.89 198.04 18.89 198.50 18.89 C 198.96 18.91 199.87 18.96 200.32 18.98 C 202.14 19.19 205.78 19.61 207.60 19.81 C 198.55 20.71 189.42 20.64 180.44 22.30 C 180.22 21.15 180.00 20.00 179.78 18.85 Z" />
<path fill="#437ec9" opacity="1.00" d=" M 11.99 20.68 C 12.02 20.21 12.08 19.28 12.12 18.81 C 12.68 19.00 13.80 19.36 14.37 19.54 C 14.99 19.60 16.23 19.71 16.85 19.77 C 19.08 19.90 21.32 19.99 23.56 20.03 C 24.07 20.03 25.10 20.02 25.61 20.01 C 26.03 20.00 26.87 19.97 27.28 19.96 C 27.64 19.95 28.36 19.94 28.72 19.94 C 29.14 19.95 29.97 19.98 30.39 19.99 C 30.91 20.01 31.95 20.06 32.47 20.08 C 34.22 20.15 37.70 20.28 39.44 20.35 C 30.67 22.06 21.68 21.46 12.92 23.32 C 12.60 22.63 12.27 21.94 11.95 21.25 L 11.99 20.68 Z" />
</g>
<g id="#8fa8baff">
<path fill="#8fa8ba" opacity="1.00" d=" M 128.87 17.48 C 129.96 17.53 131.06 17.59 132.17 17.64 C 133.21 17.78 134.26 17.90 135.32 18.01 C 133.16 17.83 131.01 17.66 128.87 17.48 Z" />
<path fill="#8fa8ba" opacity="1.00" d=" M 147.24 16.90 C 148.40 17.34 149.57 17.78 150.71 18.28 L 151.33 18.98 C 149.54 18.82 145.96 18.50 144.17 18.35 C 144.94 17.98 146.47 17.26 147.24 16.90 Z" />
<path fill="#8fa8ba" opacity="1.00" d=" M 72.89 18.54 C 74.03 18.65 75.18 18.74 76.33 18.81 C 77.32 18.87 78.31 18.92 79.30 18.95 C 77.16 18.85 75.02 18.71 72.89 18.54 Z" />
<path fill="#8fa8ba" opacity="1.00" d=" M 88.32 18.98 C 89.40 18.82 90.47 18.68 91.55 18.55 C 92.70 18.60 93.85 18.68 95.00 18.80 L 95.60 19.81 C 93.78 19.61 90.14 19.19 88.32 18.98 Z" />
<path fill="#8fa8ba" opacity="1.00" d=" M 184.89 18.54 C 186.03 18.65 187.18 18.74 188.33 18.81 C 189.32 18.87 190.31 18.92 191.30 18.95 C 189.16 18.85 187.02 18.71 184.89 18.54 Z" />
<path fill="#8fa8ba" opacity="1.00" d=" M 200.32 18.98 C 201.39 18.82 202.47 18.68 203.55 18.55 C 204.70 18.60 205.85 18.68 207.00 18.80 L 207.60 19.81 C 205.78 19.61 202.14 19.19 200.32 18.98 Z" />
<path fill="#8fa8ba" opacity="1.00" d=" M 16.85 19.77 C 18.01 19.69 19.16 19.59 20.32 19.47 C 21.40 19.66 22.48 19.85 23.56 20.03 C 21.32 19.99 19.08 19.90 16.85 19.77 Z" />
<path fill="#8fa8ba" opacity="1.00" d=" M 32.47 20.08 C 33.46 19.83 34.44 19.58 35.42 19.34 C 36.95 19.61 38.49 19.86 40.04 20.08 L 39.44 20.35 C 37.70 20.28 34.22 20.15 32.47 20.08 Z" />
</g>
<g id="#298dd7ff">
<path fill="#298dd7" opacity="1.00" d=" M 153.44 17.38 L 154.15 17.19 C 154.22 17.93 154.35 19.41 154.41 20.15 C 154.38 21.48 155.01 22.17 156.28 22.22 L 156.11 23.47 C 155.80 25.67 155.44 27.87 155.13 30.08 C 155.06 30.65 154.92 31.80 154.85 32.37 C 153.71 29.50 152.27 26.77 150.85 24.04 C 151.73 23.97 153.48 23.84 154.35 23.77 C 154.08 23.30 153.53 22.36 153.25 21.90 C 152.65 20.90 152.01 19.92 151.33 18.98 L 150.71 18.28 C 151.40 18.05 152.76 17.61 153.44 17.38 Z" />
</g>
<g id="#437acbff">
<path fill="#437acb" opacity="1.00" d=" M 55.87 17.93 C 58.63 18.73 61.40 19.50 64.18 20.22 L 64.25 21.03 C 64.34 21.91 64.42 22.79 64.49 23.67 C 64.05 26.13 67.65 25.71 66.91 23.42 C 77.03 23.02 87.16 23.90 97.25 22.90 C 97.48 23.36 97.94 24.28 98.17 24.74 C 97.41 24.80 95.88 24.90 95.12 24.95 C 88.05 26.31 77.51 23.92 73.77 31.95 C 79.22 34.59 85.73 35.69 91.08 32.34 C 90.64 30.26 90.21 28.17 89.87 26.07 C 91.61 28.67 93.07 31.44 94.47 34.23 C 86.55 35.98 83.07 43.57 79.00 49.66 C 85.23 50.34 91.50 51.12 97.78 50.75 C 90.96 51.39 84.08 51.77 77.27 50.77 C 76.71 49.94 76.16 49.09 75.63 48.24 C 79.30 45.45 81.61 41.40 82.69 36.97 C 76.01 34.42 69.22 36.43 63.22 39.57 C 65.29 42.13 67.38 44.67 69.78 46.93 C 65.40 45.50 62.49 41.97 60.26 38.14 C 64.88 36.59 70.34 36.36 73.90 32.70 C 73.82 31.43 73.65 28.88 73.57 27.61 C 69.64 26.32 65.46 26.27 61.38 25.82 C 60.79 27.13 60.21 28.45 59.63 29.76 C 59.30 29.00 58.97 28.23 58.64 27.47 C 57.72 28.03 56.81 28.59 55.89 29.14 C 55.84 27.30 55.73 25.45 55.68 23.61 C 55.75 23.16 55.89 22.26 55.96 21.81 C 58.17 23.73 61.17 23.64 63.90 23.53 C 61.33 22.06 58.62 20.85 55.92 19.65 C 55.91 19.22 55.89 18.36 55.87 17.93 Z" />
</g>
<g id="#65579cfe">
<path fill="#65579c" opacity="1.00" d=" M 122.24 18.83 C 122.62 18.62 123.37 18.19 123.75 17.98 C 123.99 19.08 124.22 20.19 124.46 21.29 C 133.34 19.70 142.36 19.59 151.33 18.98 C 152.01 19.92 152.65 20.90 153.25 21.90 C 143.17 22.90 133.05 22.04 122.95 22.40 C 122.35 22.46 121.14 22.58 120.54 22.64 C 120.38 21.80 120.19 20.96 119.96 20.14 C 120.53 19.81 121.67 19.16 122.24 18.83 Z" />
<path fill="#65579c" opacity="1.00" d=" M 66.11 19.88 C 66.53 19.62 67.36 19.11 67.78 18.85 C 68.00 20.00 68.22 21.15 68.44 22.30 C 77.42 20.64 86.55 20.71 95.60 19.81 C 96.17 20.83 96.72 21.86 97.25 22.90 C 87.16 23.90 77.03 23.02 66.91 23.42 C 66.31 23.48 65.10 23.61 64.49 23.67 C 64.42 22.79 64.34 21.91 64.25 21.03 C 64.72 20.74 65.65 20.17 66.11 19.88 Z" />
<path fill="#65579c" opacity="1.00" d=" M 178.11 19.88 C 178.53 19.62 179.36 19.11 179.78 18.85 C 180.00 20.00 180.22 21.15 180.44 22.30 C 189.42 20.64 198.55 20.71 207.60 19.81 C 208.17 20.83 208.71 21.86 209.25 22.91 C 199.15 23.90 189.03 23.02 178.91 23.42 C 178.31 23.48 177.10 23.61 176.49 23.67 C 176.42 22.79 176.34 21.91 176.25 21.03 C 176.72 20.74 177.65 20.17 178.11 19.88 Z" />
</g>
<g id="#427acbff">
<path fill="#427acb" opacity="1.00" d=" M 167.87 17.93 C 170.63 18.73 173.40 19.50 176.18 20.22 L 176.25 21.03 C 176.34 21.91 176.42 22.79 176.49 23.67 C 176.05 26.13 179.65 25.71 178.91 23.42 C 189.03 23.02 199.15 23.90 209.25 22.91 C 209.48 23.37 209.94 24.29 210.17 24.75 C 209.41 24.80 207.88 24.89 207.12 24.94 C 200.19 25.03 193.29 26.20 186.81 28.67 C 186.83 29.57 186.87 31.38 186.89 32.29 C 189.40 33.29 191.75 34.94 194.46 35.37 C 197.54 35.15 200.26 33.51 203.01 32.25 C 202.61 30.17 202.21 28.08 201.89 25.98 C 203.69 28.39 204.82 31.19 205.79 34.01 C 198.60 36.67 194.89 43.59 190.99 49.66 C 197.21 50.31 203.46 51.21 209.73 50.68 C 202.95 51.69 196.06 51.67 189.27 50.77 C 188.71 49.94 188.16 49.09 187.63 48.24 C 191.29 45.45 193.61 41.40 194.69 36.97 C 188.01 34.42 181.22 36.43 175.22 39.57 C 177.29 42.13 179.38 44.67 181.78 46.93 C 177.40 45.50 174.49 41.97 172.26 38.14 C 178.11 36.16 187.95 36.28 186.09 27.12 C 179.98 27.35 173.82 27.58 167.89 29.19 C 167.85 27.33 167.74 25.47 167.69 23.61 C 167.76 23.16 167.89 22.26 167.96 21.82 C 170.17 23.72 173.16 23.64 175.90 23.53 C 173.33 22.06 170.62 20.85 167.91 19.66 C 167.90 19.22 167.88 18.36 167.87 17.93 Z" />
</g>
<g id="#278dd8ff">
<path fill="#278dd8" opacity="1.00" d=" M 95.00 18.80 C 95.58 18.86 96.74 18.98 97.31 19.05 L 98.19 19.19 L 98.29 20.00 L 98.38 20.74 C 98.26 22.21 98.86 23.08 100.19 23.38 C 99.71 26.34 99.19 29.29 98.68 32.25 C 97.73 29.70 96.49 27.29 95.12 24.95 C 95.88 24.90 97.41 24.80 98.17 24.74 C 97.94 24.28 97.48 23.36 97.25 22.90 C 96.72 21.86 96.17 20.83 95.60 19.81 L 95.00 18.80 Z" />
<path fill="#278dd8" opacity="1.00" d=" M 207.00 18.80 C 207.58 18.86 208.74 18.98 209.31 19.05 L 210.19 19.19 L 210.29 20.00 L 210.38 20.74 C 210.26 22.21 210.86 23.08 212.19 23.38 C 211.70 26.36 211.18 29.33 210.67 32.30 C 209.71 29.74 208.50 27.29 207.12 24.94 C 207.88 24.89 209.41 24.80 210.17 24.75 C 209.94 24.29 209.48 23.37 209.25 22.91 C 208.71 21.86 208.17 20.83 207.60 19.81 L 207.00 18.80 Z" />
</g>
<g id="#65569cff">
<path fill="#65569c" opacity="1.00" d=" M 111.96 18.46 C 114.62 19.79 117.30 21.07 119.86 22.59 C 117.21 22.55 114.51 22.44 112.03 21.41 C 112.01 20.68 111.98 19.20 111.96 18.46 Z" />
<path fill="#65569c" opacity="1.00" d=" M 55.92 19.65 C 58.62 20.85 61.33 22.06 63.90 23.53 C 61.17 23.64 58.17 23.73 55.96 21.81 L 55.94 21.18 L 55.92 19.65 Z" />
<path fill="#65569c" opacity="1.00" d=" M 167.91 19.66 C 170.62 20.85 173.33 22.06 175.90 23.53 C 173.16 23.64 170.17 23.72 167.96 21.82 L 167.94 21.18 L 167.91 19.66 Z" />
<path fill="#65569c" opacity="1.00" d=" M 0.00 20.18 C 2.62 21.64 5.28 23.04 7.82 24.64 C 5.18 24.59 2.49 24.43 0.00 23.45 L 0.00 20.18 Z" />
</g>
<g id="#7f91acff">
<path fill="#7f91ac" opacity="1.00" d=" M 10.86 19.73 C 11.14 19.96 11.71 20.44 11.99 20.68 L 11.95 21.25 C 10.83 21.78 9.58 21.93 8.35 21.78 L 8.33 21.23 C 8.96 20.86 10.22 20.10 10.86 19.73 Z" />
</g>
<g id="#2a8ad7fe">
<path fill="#2a8ad7" opacity="1.00" d=" M 40.04 20.08 C 40.43 20.12 41.22 20.19 41.61 20.22 L 41.90 20.79 C 41.89 21.25 41.88 22.17 41.87 22.63 C 41.76 23.05 41.54 23.89 41.43 24.31 L 41.01 24.26 C 40.30 23.05 39.64 21.76 39.44 20.35 L 40.04 20.08 Z" />
</g>
<g id="#6c5e4cff">
<path fill="#6c5e4c" opacity="1.00" d=" M 41.90 20.79 C 43.40 20.52 44.89 20.26 46.39 20.00 C 46.32 21.07 46.28 22.15 46.26 23.23 C 45.85 23.10 45.03 22.84 44.62 22.72 C 43.93 22.70 42.56 22.65 41.87 22.63 C 41.88 22.17 41.89 21.25 41.90 20.79 Z" />
</g>
<g id="#65955fff">
<path fill="#65955f" opacity="1.00" d=" M 52.48 21.29 C 52.83 19.58 55.07 20.35 55.94 21.18 L 55.96 21.81 C 54.89 22.18 53.05 22.64 52.48 21.29 Z" />
<path fill="#65955f" opacity="1.00" d=" M 108.46 21.24 C 108.89 19.46 111.20 20.50 112.03 21.41 L 111.95 21.94 C 110.83 22.15 108.99 22.64 108.46 21.24 Z" />
<path fill="#65955f" opacity="1.00" d=" M 164.48 21.29 C 164.83 19.58 167.07 20.35 167.94 21.18 L 167.96 21.82 C 166.89 22.18 165.04 22.64 164.48 21.29 Z" />
<path fill="#65955f" opacity="1.00" d=" M 220.45 21.27 C 220.84 19.51 223.11 20.43 224.00 21.27 L 224.00 21.79 C 222.90 22.14 221.02 22.68 220.45 21.27 Z" />
</g>
<g id="#6e5f4cff">
<path fill="#6e5f4c" opacity="1.00" d=" M 98.29 20.00 C 99.66 20.05 101.03 20.10 102.40 20.15 C 102.31 21.07 102.24 21.99 102.19 22.91 C 101.69 23.03 100.69 23.26 100.19 23.38 C 100.39 22.03 99.78 21.15 98.38 20.74 L 98.29 20.00 Z" />
<path fill="#6e5f4c" opacity="1.00" d=" M 210.29 20.00 C 211.66 20.05 213.03 20.10 214.40 20.15 C 214.31 21.07 214.24 21.99 214.19 22.91 C 213.69 23.03 212.69 23.27 212.19 23.38 C 212.39 22.03 211.78 21.15 210.38 20.74 L 210.29 20.00 Z" />
</g>
<g id="#adc2d9ff">
<path fill="#adc2d9" opacity="1.00" d=" M 154.41 20.15 C 154.85 20.24 155.71 20.43 156.15 20.52 C 156.18 20.95 156.25 21.80 156.28 22.22 C 155.01 22.17 154.38 21.48 154.41 20.15 Z" />
<path fill="#adc2d9" opacity="1.00" d=" M 98.38 20.74 C 99.78 21.15 100.39 22.03 100.19 23.38 C 98.86 23.08 98.26 22.21 98.38 20.74 Z" />
<path fill="#adc2d9" opacity="1.00" d=" M 210.38 20.74 C 211.78 21.15 212.39 22.03 212.19 23.38 C 210.86 23.08 210.26 22.21 210.38 20.74 Z" />
</g>
<g id="#64569cff">
<path fill="#64569c" opacity="1.00" d=" M 8.35 21.78 C 9.58 21.93 10.83 21.78 11.95 21.25 C 12.27 21.94 12.60 22.63 12.92 23.32 C 21.68 21.46 30.67 22.06 39.44 20.35 C 39.64 21.76 40.30 23.05 41.01 24.26 C 30.99 24.38 20.95 24.26 10.91 24.42 C 10.30 24.48 9.09 24.60 8.48 24.66 C 8.44 23.70 8.39 22.74 8.35 21.78 Z" />
</g>
<g id="#332f2aff">
<path fill="#332f2a" opacity="1.00" d=" M 46.26 23.23 C 47.71 22.78 49.10 22.16 50.50 21.56 C 50.28 21.95 49.85 22.73 49.63 23.13 C 49.40 23.51 48.93 24.29 48.69 24.68 C 47.35 26.43 49.53 27.91 50.86 28.72 C 50.84 28.83 50.82 29.06 50.81 29.17 C 49.26 29.65 47.68 30.06 46.12 30.48 C 46.66 29.46 47.20 28.43 47.75 27.41 C 46.16 28.28 44.58 29.17 43.01 30.08 C 43.05 29.50 43.15 28.34 43.19 27.77 C 43.62 26.31 44.05 24.86 44.46 23.39 L 44.62 22.72 C 45.03 22.84 45.85 23.10 46.26 23.23 Z" />
</g>
<g id="#3f3f3eff">
<path fill="#3f3f3e" opacity="1.00" d=" M 102.19 22.91 C 103.67 22.59 105.13 22.13 106.56 21.62 C 106.27 22.15 105.70 23.20 105.41 23.72 C 105.25 23.97 104.93 24.47 104.77 24.72 C 103.35 26.43 105.52 27.94 106.85 28.73 C 106.84 28.84 106.82 29.04 106.81 29.15 C 105.30 29.65 103.77 30.08 102.25 30.53 C 102.63 29.33 103.00 28.13 103.37 26.94 C 101.72 28.63 100.13 30.38 98.68 32.25 C 99.19 29.29 99.71 26.34 100.19 23.38 C 100.69 23.26 101.69 23.03 102.19 22.91 Z" />
<path fill="#3f3f3e" opacity="1.00" d=" M 214.19 22.91 C 215.66 22.59 217.09 22.12 218.51 21.60 C 218.23 22.13 217.69 23.19 217.41 23.72 C 217.25 23.97 216.94 24.47 216.78 24.72 C 215.36 26.43 217.51 27.95 218.86 28.73 C 218.84 28.84 218.82 29.04 218.81 29.15 C 217.30 29.65 215.77 30.08 214.26 30.53 C 214.63 29.33 215.00 28.13 215.37 26.93 C 213.71 28.64 212.11 30.41 210.67 32.30 C 211.18 29.33 211.70 26.36 212.19 23.38 C 212.69 23.27 213.69 23.03 214.19 22.91 Z" />
</g>
<g id="#373837ff">
<path fill="#373837" opacity="1.00" d=" M 156.11 23.47 C 158.26 22.95 160.38 22.33 162.48 21.65 C 162.27 22.02 161.85 22.76 161.64 23.13 C 161.41 23.51 160.94 24.28 160.71 24.66 C 159.31 26.42 161.50 27.93 162.85 28.75 C 162.84 28.88 162.83 29.13 162.83 29.26 C 161.25 29.62 159.67 29.96 158.10 30.31 C 158.65 29.33 159.21 28.36 159.77 27.39 C 158.22 28.27 156.67 29.17 155.13 30.08 C 155.44 27.87 155.80 25.67 156.11 23.47 Z" />
</g>
<g id="#9db4c9ff">
<path fill="#9db4c9" opacity="1.00" d=" M 41.87 22.63 C 42.56 22.65 43.93 22.70 44.62 22.72 L 44.46 23.39 C 43.87 23.72 42.71 24.36 42.13 24.69 L 41.43 24.31 C 41.54 23.89 41.76 23.05 41.87 22.63 Z" />
</g>
<g id="#7498b7ff">
<path fill="#7498b7" opacity="1.00" d=" M 120.54 22.64 C 121.14 22.58 122.35 22.46 122.95 22.40 C 123.73 24.74 120.23 25.09 120.54 22.64 Z" />
<path fill="#7498b7" opacity="1.00" d=" M 64.49 23.67 C 65.10 23.61 66.31 23.48 66.91 23.42 C 67.65 25.71 64.05 26.13 64.49 23.67 Z" />
<path fill="#7498b7" opacity="1.00" d=" M 176.49 23.67 C 177.10 23.61 178.31 23.48 178.91 23.42 C 179.65 25.71 176.05 26.13 176.49 23.67 Z" />
<path fill="#7498b7" opacity="1.00" d=" M 8.48 24.66 C 9.09 24.60 10.30 24.48 10.91 24.42 C 11.65 26.69 7.97 27.11 8.48 24.66 Z" />
</g>
<g id="#7ba75dff">
<path fill="#7ba75d" opacity="1.00" d=" M 49.63 23.13 C 51.69 23.43 53.54 24.38 55.28 25.47 C 55.42 24.85 55.55 24.23 55.68 23.61 C 55.73 25.45 55.84 27.30 55.89 29.14 C 56.06 36.08 55.59 43.04 56.09 49.97 C 56.73 50.94 57.42 51.88 58.10 52.82 C 57.43 53.29 56.74 53.74 56.06 54.19 C 54.43 53.33 52.77 52.46 50.93 52.15 L 50.75 51.61 C 49.32 44.97 52.26 38.47 52.75 31.89 C 51.90 32.56 51.06 33.25 50.21 33.92 L 50.36 32.83 C 50.53 31.61 50.68 30.39 50.81 29.17 C 50.82 29.06 50.84 28.83 50.86 28.72 C 51.34 26.99 50.33 25.31 48.69 24.68 C 48.93 24.29 49.40 23.51 49.63 23.13 Z" />
<path fill="#7ba75d" opacity="1.00" d=" M 105.41 23.72 C 106.66 23.46 107.92 23.24 109.17 23.01 C 109.53 24.02 109.90 25.02 110.26 26.03 C 110.76 25.22 111.24 24.41 111.71 23.59 C 111.72 24.95 111.74 26.30 111.78 27.66 C 111.91 33.83 112.06 40.00 111.92 46.17 C 111.89 46.64 111.84 47.59 111.81 48.06 C 111.89 48.48 112.06 49.31 112.15 49.73 C 112.75 50.78 113.42 51.79 114.08 52.81 C 113.41 53.27 112.75 53.73 112.08 54.19 C 110.45 53.33 108.78 52.47 106.94 52.15 L 106.75 51.61 C 105.32 44.97 108.26 38.48 108.75 31.89 C 107.90 32.56 107.06 33.24 106.21 33.91 L 106.36 32.78 C 106.53 31.57 106.67 30.36 106.81 29.15 C 106.82 29.04 106.84 28.84 106.85 28.73 C 107.34 27.03 106.40 25.34 104.77 24.72 C 104.93 24.47 105.25 23.97 105.41 23.72 Z" />
<path fill="#7ba75d" opacity="1.00" d=" M 161.64 23.13 C 163.70 23.42 165.53 24.41 167.28 25.46 C 167.42 24.84 167.56 24.22 167.69 23.61 C 167.74 25.47 167.85 27.33 167.89 29.19 C 168.06 36.11 167.60 43.05 168.09 49.97 C 168.72 50.94 169.42 51.88 170.10 52.82 C 169.42 53.28 168.74 53.74 168.06 54.19 C 166.44 53.32 164.77 52.47 162.94 52.15 L 162.75 51.61 C 161.32 44.97 164.26 38.47 164.75 31.88 C 163.92 32.56 163.09 33.24 162.27 33.92 L 162.43 32.83 C 162.58 31.64 162.75 30.46 162.83 29.26 C 162.83 29.13 162.84 28.88 162.85 28.75 C 163.20 27.04 162.38 25.30 160.71 24.66 C 160.94 24.28 161.41 23.51 161.64 23.13 Z" />
</g>
<g id="#79a55dff">
<path fill="#79a55d" opacity="1.00" d=" M 217.41 23.72 C 218.67 23.46 219.95 23.22 221.22 22.99 C 221.53 24.00 221.85 25.02 222.18 26.03 C 222.80 25.18 223.41 24.32 224.00 23.45 L 224.00 56.00 L 217.82 56.00 C 218.14 54.94 218.33 53.86 218.40 52.75 C 218.42 52.37 218.47 51.59 218.49 51.21 L 218.49 50.69 C 218.41 49.39 218.25 48.10 218.11 46.80 C 219.35 41.90 219.94 36.88 220.74 31.90 C 219.89 32.56 219.05 33.23 218.21 33.90 L 218.37 32.76 C 218.53 31.56 218.67 30.35 218.81 29.15 C 218.82 29.04 218.84 28.84 218.86 28.73 C 219.34 27.03 218.41 25.34 216.78 24.72 C 216.94 24.47 217.25 23.97 217.41 23.72 Z" />
</g>
<g id="#268ed9ff">
<path fill="#268ed9" opacity="1.00" d=" M 42.13 24.69 C 42.71 24.36 43.87 23.72 44.46 23.39 C 44.05 24.86 43.62 26.31 43.19 27.77 C 42.65 29.35 42.09 30.92 41.58 32.52 C 40.87 30.60 40.16 28.69 39.44 26.77 C 40.33 26.07 41.22 25.36 42.13 24.69 Z" />
<path fill="#268ed9" opacity="1.00" d=" M 38.88 35.41 C 39.93 34.89 41.03 34.50 42.18 34.23 C 42.32 34.53 42.61 35.14 42.75 35.44 C 42.75 35.76 42.76 36.40 42.77 36.72 C 41.72 36.54 40.68 36.34 39.65 36.12 L 39.10 35.68 L 38.88 35.41 Z" />
</g>
<g id="#3c6bbeff">
<path fill="#3c6bbe" opacity="1.00" d=" M 132.19 26.28 C 138.28 24.72 144.62 24.57 150.85 24.04 C 152.27 26.77 153.71 29.50 154.85 32.37 L 154.98 32.94 L 155.19 33.86 C 154.08 34.22 152.97 34.57 151.87 34.92 C 153.30 38.07 154.34 41.38 155.41 44.66 C 154.12 44.69 152.84 44.70 151.55 44.71 C 152.98 46.56 154.28 48.51 155.39 50.58 L 153.91 50.70 C 148.14 50.95 142.33 50.89 136.61 49.99 C 135.76 48.26 134.89 46.54 134.05 44.80 C 133.06 45.64 132.07 46.49 131.08 47.34 C 131.69 47.63 132.90 48.19 133.51 48.48 C 133.37 49.05 133.11 50.20 132.98 50.77 C 132.30 50.73 130.96 50.65 130.29 50.61 C 125.61 50.36 120.93 50.13 116.26 49.80 C 115.94 49.29 115.29 48.26 114.97 47.75 C 116.37 46.68 117.77 45.61 119.17 44.54 C 116.74 45.04 114.33 45.59 111.92 46.17 C 112.06 40.00 111.91 33.83 111.78 27.66 C 117.52 26.68 123.33 26.26 129.11 25.65 C 128.93 27.26 128.57 30.50 128.39 32.12 C 127.83 32.50 126.71 33.25 126.15 33.63 C 130.39 35.00 135.35 35.35 138.88 38.20 C 138.44 41.17 137.28 43.97 136.42 46.84 C 139.11 45.05 140.99 42.44 141.97 39.38 C 143.09 35.42 147.66 34.73 150.89 33.23 C 149.88 30.34 148.73 27.46 146.89 24.98 C 147.21 27.11 147.63 29.23 148.04 31.34 C 142.97 34.23 136.41 34.82 131.33 31.61 C 128.85 30.80 130.17 26.87 132.19 26.28 M 114.58 36.69 C 114.39 37.34 114.19 38.00 114.01 38.66 C 115.19 38.86 116.37 39.06 117.55 39.26 C 117.52 39.70 117.44 40.57 117.40 41.01 C 121.30 38.78 125.46 37.07 129.48 35.07 C 124.51 35.65 119.59 38.27 114.58 36.69 Z" />
<path fill="#3c6bbe" opacity="1.00" d=" M 73.77 31.95 C 77.51 23.92 88.05 26.31 95.12 24.95 C 96.49 27.29 97.73 29.70 98.68 32.25 L 98.84 33.11 C 97.51 33.46 95.61 34.99 96.88 36.41 C 97.74 37.62 98.64 38.80 99.59 39.93 C 99.43 40.64 99.10 42.07 98.94 42.79 C 94.74 42.55 90.59 43.21 86.60 44.48 C 91.09 45.48 96.85 45.01 99.40 49.68 L 99.02 50.66 L 97.78 50.75 C 91.50 51.12 85.23 50.34 79.00 49.66 C 83.07 43.57 86.55 35.98 94.47 34.23 C 93.07 31.44 91.61 28.67 89.87 26.07 C 90.21 28.17 90.64 30.26 91.08 32.34 C 85.73 35.69 79.22 34.59 73.77 31.95 Z" />
<path fill="#3c6bbe" opacity="1.00" d=" M 61.38 25.82 C 65.46 26.27 69.64 26.32 73.57 27.61 C 73.65 28.88 73.82 31.43 73.90 32.70 C 70.34 36.36 64.88 36.59 60.26 38.14 C 62.49 41.97 65.40 45.50 69.78 46.93 C 67.38 44.67 65.29 42.13 63.22 39.57 C 69.22 36.43 76.01 34.42 82.69 36.97 C 81.61 41.40 79.30 45.45 75.63 48.24 C 76.16 49.09 76.71 49.94 77.27 50.77 C 76.52 50.73 75.02 50.65 74.27 50.61 C 69.44 50.37 64.61 50.16 59.78 49.86 C 60.92 48.23 62.06 46.61 63.17 44.97 C 61.22 45.65 59.28 46.36 57.34 47.08 C 57.72 48.27 58.11 49.46 58.49 50.65 C 57.89 50.48 56.69 50.14 56.09 49.97 C 55.59 43.04 56.06 36.08 55.89 29.14 C 56.81 28.59 57.72 28.03 58.64 27.47 C 58.97 28.23 59.30 29.00 59.63 29.76 C 60.21 28.45 60.79 27.13 61.38 25.82 Z" />
<path fill="#3c6bbe" opacity="1.00" d=" M 0.00 30.90 C 6.72 27.99 14.09 27.31 21.34 27.04 C 20.23 27.41 19.13 27.77 18.02 28.13 C 18.05 30.13 19.36 32.82 17.22 34.13 C 12.07 37.21 5.73 36.77 0.00 37.91 L 0.00 30.90 Z" />
<path fill="#3c6bbe" opacity="1.00" d=" M 24.62 27.68 C 29.51 26.83 34.51 27.05 39.44 26.77 C 40.16 28.69 40.87 30.60 41.58 32.52 C 41.73 32.95 42.03 33.80 42.18 34.23 C 41.03 34.50 39.93 34.89 38.88 35.41 C 36.53 32.92 34.65 30.06 32.75 27.23 C 33.18 29.25 33.63 31.27 34.10 33.28 C 32.04 34.19 30.05 35.36 27.83 35.80 C 24.66 35.50 21.79 33.84 18.80 32.92 C 20.43 30.90 21.69 27.97 24.62 27.68 Z" />
<path fill="#3c6bbe" opacity="1.00" d=" M 167.89 29.19 C 173.82 27.58 179.98 27.35 186.09 27.12 C 187.95 36.28 178.11 36.16 172.26 38.14 C 174.49 41.97 177.40 45.50 181.78 46.93 C 179.38 44.67 177.29 42.13 175.22 39.57 C 181.22 36.43 188.01 34.42 194.69 36.97 C 193.61 41.40 191.29 45.45 187.63 48.24 C 188.16 49.09 188.71 49.94 189.27 50.77 C 188.52 50.73 187.02 50.65 186.27 50.61 C 181.43 50.37 176.61 50.17 171.78 49.86 C 172.91 48.23 174.06 46.61 175.17 44.97 C 173.21 45.65 171.28 46.36 169.34 47.08 C 169.72 48.27 170.10 49.46 170.49 50.65 C 169.89 50.48 168.69 50.14 168.09 49.97 C 167.60 43.05 168.06 36.11 167.89 29.19 Z" />
<path fill="#3c6bbe" opacity="1.00" d=" M 9.16 40.20 C 13.41 34.49 23.58 35.11 27.30 41.04 C 25.88 43.52 23.11 44.56 20.70 45.82 C 20.78 47.46 20.97 49.10 21.14 50.74 C 20.44 50.71 19.02 50.64 18.31 50.60 C 13.90 50.44 9.49 50.27 5.09 50.06 C 6.00 48.72 6.93 47.40 7.84 46.06 C 5.51 47.16 3.33 48.53 1.21 49.99 C 0.80 50.55 0.40 51.13 -0.00 51.70 L 0.00 38.58 C 2.83 39.24 6.77 38.67 8.24 41.83 C 9.89 44.81 12.69 46.74 15.85 47.88 C 13.44 45.51 10.39 43.48 9.16 40.20 Z" />
<path fill="#3c6bbe" opacity="1.00" d=" M 111.81 48.06 C 113.38 47.49 114.83 49.17 114.53 50.68 C 113.94 50.44 112.74 49.97 112.15 49.73 C 112.06 49.31 111.89 48.48 111.81 48.06 Z" />
</g>
<g id="#416845ff">
<path fill="#416845" opacity="1.00" d=" M 50.86 28.72 C 49.53 27.91 47.35 26.43 48.69 24.68 C 50.33 25.31 51.34 26.99 50.86 28.72 Z" />
<path fill="#416845" opacity="1.00" d=" M 106.85 28.73 C 105.52 27.94 103.35 26.43 104.77 24.72 C 106.40 25.34 107.34 27.03 106.85 28.73 Z" />
<path fill="#416845" opacity="1.00" d=" M 162.85 28.75 C 161.50 27.93 159.31 26.42 160.71 24.66 C 162.38 25.30 163.20 27.04 162.85 28.75 Z" />
<path fill="#416845" opacity="1.00" d=" M 218.86 28.73 C 217.51 27.95 215.36 26.43 216.78 24.72 C 218.41 25.34 219.34 27.03 218.86 28.73 Z" />
</g>
<g id="#3c6bbefe">
<path fill="#3c6bbe" opacity="1.00" d=" M 186.81 28.67 C 193.29 26.20 200.19 25.03 207.12 24.94 C 208.50 27.29 209.71 29.74 210.67 32.30 L 210.89 33.19 C 209.68 33.73 208.53 34.39 207.49 35.20 C 207.77 35.53 208.34 36.20 208.63 36.53 C 209.63 37.65 210.64 38.76 211.69 39.84 C 211.51 40.56 211.13 42.01 210.95 42.74 C 206.74 42.55 202.60 43.22 198.61 44.48 C 203.23 45.31 208.62 45.38 211.63 49.62 L 210.88 50.51 L 209.73 50.68 C 203.46 51.21 197.21 50.31 190.99 49.66 C 194.89 43.59 198.60 36.67 205.79 34.01 C 204.82 31.19 203.69 28.39 201.89 25.98 C 202.21 28.08 202.61 30.17 203.01 32.25 C 200.26 33.51 197.54 35.15 194.46 35.37 C 191.75 34.94 189.40 33.29 186.89 32.29 C 186.87 31.38 186.83 29.57 186.81 28.67 Z" />
</g>
<g id="#8aa3b5ff">
<path fill="#8aa3b5" opacity="1.00" d=" M 41.58 32.52 C 42.09 30.92 42.65 29.35 43.19 27.77 C 43.15 28.34 43.05 29.50 43.01 30.08 C 42.95 31.02 42.90 31.96 42.85 32.91 C 42.82 33.54 42.77 34.81 42.75 35.44 C 42.61 35.14 42.32 34.53 42.18 34.23 C 42.03 33.80 41.73 32.95 41.58 32.52 Z" />
</g>
<g id="#525548ff">
<path fill="#525548" opacity="1.00" d=" M 43.01 30.08 C 44.58 29.17 46.16 28.28 47.75 27.41 C 47.20 28.43 46.66 29.46 46.12 30.48 C 47.68 30.06 49.26 29.65 50.81 29.17 C 50.68 30.39 50.53 31.61 50.36 32.83 C 47.86 32.79 45.35 32.81 42.85 32.91 C 42.90 31.96 42.95 31.02 43.01 30.08 Z" />
<path fill="#525548" opacity="1.00" d=" M 98.68 32.25 C 100.13 30.38 101.72 28.63 103.37 26.94 C 103.00 28.13 102.63 29.33 102.25 30.53 C 103.77 30.08 105.30 29.65 106.81 29.15 C 106.67 30.36 106.53 31.57 106.36 32.78 C 103.85 32.80 101.34 32.89 98.84 33.11 L 98.68 32.25 Z" />
<path fill="#525548" opacity="1.00" d=" M 155.13 30.08 C 156.67 29.17 158.22 28.27 159.77 27.39 C 159.21 28.36 158.65 29.33 158.10 30.31 C 159.67 29.96 161.25 29.62 162.83 29.26 C 162.75 30.46 162.58 31.64 162.43 32.83 C 159.94 32.79 157.46 32.82 154.98 32.94 L 154.85 32.37 C 154.92 31.80 155.06 30.65 155.13 30.08 Z" />
<path fill="#525548" opacity="1.00" d=" M 210.67 32.30 C 212.11 30.41 213.71 28.64 215.37 26.93 C 215.00 28.13 214.63 29.33 214.26 30.53 C 215.77 30.08 217.30 29.65 218.81 29.15 C 218.67 30.35 218.53 31.56 218.37 32.76 C 215.87 32.81 213.37 32.92 210.89 33.19 L 210.67 32.30 Z" />
</g>
<g id="#4e5e48ff">
<path fill="#4e5e48" opacity="1.00" d=" M 50.21 33.92 C 51.06 33.25 51.90 32.56 52.75 31.89 C 52.26 38.47 49.32 44.97 50.75 51.61 C 49.65 50.82 48.50 50.08 47.37 49.33 C 48.50 44.23 49.51 39.10 50.21 33.92 Z" />
<path fill="#4e5e48" opacity="1.00" d=" M 106.21 33.91 C 107.06 33.24 107.90 32.56 108.75 31.89 C 108.26 38.48 105.32 44.97 106.75 51.61 C 105.65 50.82 104.50 50.08 103.37 49.33 C 104.50 44.23 105.51 39.09 106.21 33.91 Z" />
<path fill="#4e5e48" opacity="1.00" d=" M 162.27 33.92 C 163.09 33.24 163.92 32.56 164.75 31.88 C 164.26 38.47 161.32 44.97 162.75 51.61 C 161.64 50.82 160.50 50.08 159.37 49.33 C 160.49 44.23 161.50 39.10 162.27 33.92 Z" />
<path fill="#4e5e48" opacity="1.00" d=" M 218.21 33.90 C 219.05 33.23 219.89 32.56 220.74 31.90 C 219.94 36.88 219.35 41.90 218.11 46.80 C 218.25 48.10 218.41 49.39 218.49 50.69 L 218.49 51.21 C 217.41 50.70 216.32 50.18 215.25 49.67 C 216.47 44.46 217.51 39.21 218.21 33.90 Z" />
</g>
<g id="#2c89d6ff">
<path fill="#2c89d6" opacity="1.00" d=" M 96.88 36.41 C 95.61 34.99 97.51 33.46 98.84 33.11 C 98.70 33.83 98.43 35.29 98.30 36.02 C 97.94 36.12 97.23 36.31 96.88 36.41 Z" />
</g>
<g id="#2b89d6ff">
<path fill="#2b89d6" opacity="1.00" d=" M 207.49 35.20 C 208.53 34.39 209.68 33.73 210.89 33.19 C 210.70 33.92 210.33 35.37 210.15 36.10 C 209.77 36.20 209.01 36.42 208.63 36.53 C 208.34 36.20 207.77 35.53 207.49 35.20 Z" />
</g>
<g id="#268dd9ff">
<path fill="#268dd9" opacity="1.00" d=" M 151.87 34.92 C 152.97 34.57 154.08 34.22 155.19 33.86 C 155.54 35.34 155.93 36.82 156.36 38.28 C 156.58 38.65 157.03 39.39 157.25 39.76 C 156.40 43.33 156.21 47.01 155.39 50.58 C 154.28 48.51 152.98 46.56 151.55 44.71 C 152.84 44.70 154.12 44.69 155.41 44.66 C 154.34 41.38 153.30 38.07 151.87 34.92 Z" />
</g>
<g id="#4379caff">
<path fill="#4379ca" opacity="1.00" d=" M 114.58 36.69 C 119.59 38.27 124.51 35.65 129.48 35.07 C 125.46 37.07 121.30 38.78 117.40 41.01 C 117.44 40.57 117.52 39.70 117.55 39.26 C 116.37 39.06 115.19 38.86 114.01 38.66 C 114.19 38.00 114.39 37.34 114.58 36.69 Z" />
</g>
<g id="#3c6cbfff">
<path fill="#3c6cbf" opacity="1.00" d=" M 31.35 38.95 C 32.54 35.90 36.47 36.53 39.10 35.68 L 39.65 36.12 C 40.43 36.78 41.21 37.43 42.00 38.08 C 41.82 39.67 41.45 42.86 41.27 44.45 L 41.20 45.05 C 41.44 47.02 42.05 48.92 42.53 50.84 L 41.55 50.87 C 35.59 50.91 29.64 50.43 23.70 50.04 C 26.56 46.56 29.50 43.10 31.35 38.95 Z" />
</g>
<g id="#7b9eb5ff">
<path fill="#7b9eb5" opacity="1.00" d=" M 39.65 36.12 C 40.68 36.34 41.72 36.54 42.77 36.72 C 43.15 36.98 43.92 37.50 44.30 37.76 C 44.43 38.19 44.68 39.04 44.81 39.47 L 44.69 40.32 C 43.79 39.57 42.90 38.83 42.00 38.08 C 41.21 37.43 40.43 36.78 39.65 36.12 Z" />
</g>
<g id="#7a9db6ff">
<path fill="#7a9db6" opacity="1.00" d=" M 96.88 36.41 C 97.23 36.31 97.94 36.12 98.30 36.02 C 98.86 36.37 99.98 37.06 100.53 37.41 C 100.59 37.86 100.70 38.76 100.75 39.21 L 100.95 40.42 C 100.61 40.30 99.93 40.05 99.59 39.93 C 98.64 38.80 97.74 37.62 96.88 36.41 Z" />
<path fill="#7a9db6" opacity="1.00" d=" M 208.63 36.53 C 209.01 36.42 209.77 36.20 210.15 36.10 C 210.75 36.42 211.95 37.07 212.55 37.39 C 212.60 37.84 212.71 38.75 212.77 39.20 L 212.97 40.43 C 212.65 40.28 212.01 39.98 211.69 39.84 C 210.64 38.76 209.63 37.65 208.63 36.53 Z" />
</g>
<g id="#3490d2ff">
<path fill="#3490d2" opacity="1.00" d=" M 42.00 38.08 C 42.90 38.83 43.79 39.57 44.69 40.32 C 44.52 41.53 44.35 42.74 44.23 43.95 C 43.49 44.07 42.01 44.32 41.27 44.45 C 41.45 42.86 41.82 39.67 42.00 38.08 Z" />
</g>
<g id="#4c95c9ff">
<path fill="#4c95c9" opacity="1.00" d=" M 99.59 39.93 C 99.93 40.05 100.61 40.30 100.95 40.42 C 101.21 41.70 100.73 42.63 99.51 43.21 L 98.94 42.79 C 99.10 42.07 99.43 40.64 99.59 39.93 Z" />
<path fill="#4c95c9" opacity="1.00" d=" M 211.69 39.84 C 212.01 39.98 212.65 40.28 212.97 40.43 C 213.23 41.72 212.74 42.64 211.50 43.19 L 210.95 42.74 C 211.13 42.01 211.51 40.56 211.69 39.84 Z" />
</g>
<g id="#3c7acdff">
<path fill="#3c7acd" opacity="1.00" d=" M 86.60 44.48 C 90.59 43.21 94.74 42.55 98.94 42.79 L 99.51 43.21 L 99.97 43.63 C 97.90 44.31 98.27 46.99 100.23 47.53 C 99.95 48.24 99.68 48.96 99.40 49.68 C 96.85 45.01 91.09 45.48 86.60 44.48 Z" />
</g>
<g id="#3b7acdff">
<path fill="#3b7acd" opacity="1.00" d=" M 198.61 44.48 C 202.60 43.22 206.74 42.55 210.95 42.74 L 211.50 43.19 L 211.96 43.63 C 209.87 44.38 210.38 47.07 212.37 47.55 C 212.13 48.25 211.89 48.94 211.63 49.62 C 208.62 45.38 203.23 45.31 198.61 44.48 Z" />
</g>
<g id="#86a0b0fe">
<path fill="#86a0b0" opacity="1.00" d=" M 41.27 44.45 C 42.01 44.32 43.49 44.07 44.23 43.95 C 44.28 45.07 44.53 46.28 44.03 47.34 C 42.97 46.73 41.98 46.00 41.20 45.05 L 41.27 44.45 Z" />
</g>
<g id="#86a0b1ff">
<path fill="#86a0b1" opacity="1.00" d=" M 100.23 47.53 C 98.27 46.99 97.90 44.31 99.97 43.63 C 101.26 44.52 100.75 46.34 100.23 47.53 Z" />
<path fill="#86a0b1" opacity="1.00" d=" M 212.37 47.55 C 210.38 47.07 209.87 44.38 211.96 43.63 C 213.18 44.55 212.86 46.33 212.37 47.55 Z" />
</g>
<g id="#318cd2ff">
<path fill="#318cd2" opacity="1.00" d=" M 42.53 50.84 C 42.05 48.92 41.44 47.02 41.20 45.05 C 41.98 46.00 42.97 46.73 44.03 47.34 C 43.56 48.52 43.06 49.69 42.53 50.84 Z" />
</g>
<g id="#417fcbff">
<path fill="#417fcb" opacity="1.00" d=" M 57.34 47.08 C 59.28 46.36 61.22 45.65 63.17 44.97 C 62.06 46.61 60.92 48.23 59.78 49.86 C 64.61 50.16 69.44 50.37 74.27 50.61 C 69.08 51.27 63.61 52.35 58.49 50.65 C 58.11 49.46 57.72 48.27 57.34 47.08 Z" />
<path fill="#417fcb" opacity="1.00" d=" M 169.34 47.08 C 171.28 46.36 173.21 45.65 175.17 44.97 C 174.06 46.61 172.91 48.23 171.78 49.86 C 176.61 50.17 181.43 50.37 186.27 50.61 C 181.08 51.28 175.61 52.35 170.49 50.65 C 170.10 49.46 169.72 48.27 169.34 47.08 Z" />
</g>
<g id="#407ecaff">
<path fill="#407eca" opacity="1.00" d=" M 111.92 46.17 C 114.33 45.59 116.74 45.04 119.17 44.54 C 117.77 45.61 116.37 46.68 114.97 47.75 C 115.29 48.26 115.94 49.29 116.26 49.80 C 120.93 50.13 125.61 50.36 130.29 50.61 C 125.09 51.45 119.70 52.04 114.53 50.68 C 114.83 49.17 113.38 47.49 111.81 48.06 C 111.84 47.59 111.89 46.64 111.92 46.17 Z" />
</g>
<g id="#4181caff">
<path fill="#4181ca" opacity="1.00" d=" M 131.08 47.34 C 132.07 46.49 133.06 45.64 134.05 44.80 C 134.89 46.54 135.76 48.26 136.61 49.99 C 142.33 50.89 148.14 50.95 153.91 50.70 C 146.95 51.45 139.93 51.73 132.98 50.77 C 133.11 50.20 133.37 49.05 133.51 48.48 C 132.90 48.19 131.69 47.63 131.08 47.34 Z" />
</g>
<g id="#4080cbff">
<path fill="#4080cb" opacity="1.00" d=" M 1.21 49.99 C 3.33 48.53 5.51 47.16 7.84 46.06 C 6.93 47.40 6.00 48.72 5.09 50.06 C 9.49 50.27 13.90 50.44 18.31 50.60 C 12.67 51.46 6.63 52.44 1.21 49.99 Z" />
</g>
<g id="#43583fff">
<path fill="#43583f" opacity="1.00" d=" M -0.00 51.70 C 0.40 51.13 0.80 50.55 1.21 49.99 C 6.63 52.44 12.67 51.46 18.31 50.60 C 19.02 50.64 20.44 50.71 21.14 50.74 C 27.92 51.73 34.75 51.32 41.55 50.87 L 42.53 50.84 L 42.21 51.46 C 36.05 55.51 28.44 52.05 21.61 52.53 C 21.38 52.36 20.91 52.04 20.68 51.87 C 19.51 50.69 17.83 51.59 16.72 52.35 C 14.68 52.67 12.64 52.99 10.60 53.32 C 7.06 52.93 3.53 52.42 0.00 51.97 L 0.00 51.70 Z" />
</g>
<g id="#425741ff">
<path fill="#425741" opacity="1.00" d=" M 56.09 49.97 C 56.69 50.14 57.89 50.48 58.49 50.65 C 63.61 52.35 69.08 51.27 74.27 50.61 C 75.02 50.65 76.52 50.73 77.27 50.77 C 84.08 51.77 90.96 51.39 97.78 50.75 L 99.02 50.66 L 98.64 51.47 C 92.23 55.36 84.61 52.14 77.62 52.53 C 77.37 52.40 76.86 52.12 76.60 51.98 C 75.47 51.10 73.99 51.35 72.79 51.90 C 70.66 52.60 68.50 53.19 66.39 53.93 C 65.62 53.34 64.74 52.73 63.72 52.83 C 61.84 52.80 59.97 52.80 58.10 52.82 C 57.42 51.88 56.73 50.94 56.09 49.97 Z" />
<path fill="#425741" opacity="1.00" d=" M 112.15 49.73 C 112.74 49.97 113.94 50.44 114.53 50.68 C 119.70 52.04 125.09 51.45 130.29 50.61 C 130.96 50.65 132.30 50.73 132.98 50.77 C 139.93 51.73 146.95 51.45 153.91 50.70 L 155.39 50.58 L 154.82 51.44 C 148.34 55.31 140.67 52.18 133.62 52.54 C 133.37 52.40 132.86 52.12 132.60 51.98 C 131.47 51.10 129.99 51.35 128.79 51.90 C 126.66 52.60 124.50 53.19 122.39 53.93 C 121.61 53.36 120.74 52.72 119.72 52.83 C 117.84 52.80 115.96 52.79 114.08 52.81 C 113.42 51.79 112.75 50.78 112.15 49.73 Z" />
<path fill="#425741" opacity="1.00" d=" M 168.09 49.97 C 168.69 50.14 169.89 50.48 170.49 50.65 C 175.61 52.35 181.08 51.28 186.27 50.61 C 187.02 50.65 188.52 50.73 189.27 50.77 C 196.06 51.67 202.95 51.69 209.73 50.68 L 210.88 50.51 L 210.31 51.16 C 204.42 55.87 196.45 51.90 189.62 52.54 C 189.37 52.40 188.86 52.12 188.60 51.98 C 187.47 51.10 185.99 51.35 184.79 51.90 C 182.66 52.60 180.50 53.19 178.39 53.93 C 177.62 53.34 176.73 52.73 175.72 52.83 C 173.84 52.80 171.97 52.80 170.10 52.82 C 169.42 51.88 168.72 50.94 168.09 49.97 Z" />
</g>
<g id="#93bd6bff">
<path fill="#93bd6b" opacity="1.00" d=" M 16.72 52.35 C 17.83 51.59 19.51 50.69 20.68 51.87 C 19.83 53.31 17.96 52.95 16.72 52.35 Z" />
<path fill="#93bd6b" opacity="1.00" d=" M 72.79 51.90 C 73.99 51.35 75.47 51.10 76.60 51.98 C 75.73 53.34 73.62 53.26 72.79 51.90 Z" />
<path fill="#93bd6b" opacity="1.00" d=" M 128.79 51.90 C 129.99 51.35 131.47 51.10 132.60 51.98 C 131.73 53.34 129.62 53.26 128.79 51.90 Z" />
<path fill="#93bd6b" opacity="1.00" d=" M 184.79 51.90 C 185.99 51.35 187.47 51.10 188.60 51.98 C 187.72 53.34 185.62 53.26 184.79 51.90 Z" />
</g>
<g id="#7aa55bff">
<path fill="#7aa55b" opacity="1.00" d=" M 42.21 51.46 C 43.88 51.49 45.55 51.55 47.22 51.62 C 47.90 53.14 48.70 54.59 49.58 56.00 L 22.93 56.00 C 22.60 55.13 21.94 53.40 21.61 52.53 C 28.44 52.05 36.05 55.51 42.21 51.46 Z" />
<path fill="#7aa55b" opacity="1.00" d=" M 98.64 51.47 C 100.17 51.49 101.69 51.54 103.21 51.62 C 103.89 53.14 104.70 54.59 105.58 56.00 L 78.93 56.00 C 78.61 55.13 77.95 53.40 77.62 52.53 C 84.61 52.14 92.23 55.36 98.64 51.47 Z" />
<path fill="#7aa55b" opacity="1.00" d=" M 154.82 51.44 C 156.29 51.49 157.75 51.55 159.21 51.63 C 159.89 53.14 160.70 54.59 161.58 56.00 L 134.93 56.00 C 134.61 55.13 133.95 53.40 133.62 52.54 C 140.67 52.18 148.34 55.31 154.82 51.44 Z" />
<path fill="#7aa55b" opacity="1.00" d=" M 210.31 51.16 C 211.95 51.37 213.61 51.56 215.26 51.79 C 215.88 53.24 216.60 54.65 217.43 56.00 L 190.93 56.00 C 190.61 55.13 189.95 53.40 189.62 52.54 C 196.45 51.90 204.42 55.87 210.31 51.16 Z" />
</g>
<g id="#446445fe">
<path fill="#446445" opacity="1.00" d=" M 47.22 51.62 C 48.13 51.63 49.03 51.73 49.91 51.93 C 50.09 53.28 50.10 54.64 49.94 56.00 L 49.58 56.00 C 48.70 54.59 47.90 53.14 47.22 51.62 Z" />
<path fill="#446445" opacity="1.00" d=" M 103.21 51.62 C 104.12 51.64 105.02 51.74 105.91 51.93 C 106.10 53.28 106.10 54.64 105.94 56.00 L 105.58 56.00 C 104.70 54.59 103.89 53.14 103.21 51.62 Z" />
<path fill="#446445" opacity="1.00" d=" M 159.21 51.63 C 160.12 51.64 161.02 51.75 161.91 51.94 C 162.10 53.29 162.10 54.64 161.94 56.00 L 161.58 56.00 C 160.70 54.59 159.89 53.14 159.21 51.63 Z" />
<path fill="#446445" opacity="1.00" d=" M 215.26 51.79 C 216.36 51.92 217.41 52.24 218.40 52.75 C 218.33 53.86 218.14 54.94 217.82 56.00 L 217.43 56.00 C 216.60 54.65 215.88 53.24 215.26 51.79 Z" />
</g>
<g id="#6e9c5bff">
<path fill="#6e9c5b" opacity="1.00" d=" M 50.93 52.15 C 52.77 52.46 54.43 53.33 56.06 54.19 C 56.74 53.74 57.43 53.29 58.10 52.82 C 59.97 52.80 61.84 52.80 63.72 52.83 C 63.15 53.86 62.68 54.94 62.19 56.00 L 49.94 56.00 C 50.10 54.64 50.09 53.28 49.91 51.93 L 50.93 52.15 Z" />
<path fill="#6e9c5b" opacity="1.00" d=" M 106.94 52.15 C 108.78 52.47 110.45 53.33 112.08 54.19 C 112.75 53.73 113.41 53.27 114.08 52.81 C 115.96 52.79 117.84 52.80 119.72 52.83 C 119.15 53.86 118.68 54.93 118.19 56.00 L 105.94 56.00 C 106.10 54.64 106.10 53.28 105.91 51.93 L 106.94 52.15 Z" />
<path fill="#6e9c5b" opacity="1.00" d=" M 162.94 52.15 C 164.77 52.47 166.44 53.32 168.06 54.19 C 168.74 53.74 169.42 53.28 170.10 52.82 C 171.97 52.80 173.84 52.80 175.72 52.83 C 175.15 53.86 174.68 54.94 174.19 56.00 L 161.94 56.00 C 162.10 54.64 162.10 53.29 161.91 51.94 L 162.94 52.15 Z" />
</g>
<g id="#77a35dff">
<path fill="#77a35d" opacity="1.00" d=" M 0.00 51.97 C 3.53 52.42 7.06 52.93 10.60 53.32 C 9.33 54.21 8.07 55.10 6.81 56.00 L 0.00 56.00 L 0.00 51.97 Z" />
</g>
<g id="#6a9a60ff">
<path fill="#6a9a60" opacity="1.00" d=" M 10.60 53.32 C 12.64 52.99 14.68 52.67 16.72 52.35 C 17.96 52.95 19.83 53.31 20.68 51.87 C 20.91 52.04 21.38 52.36 21.61 52.53 C 21.94 53.40 22.60 55.13 22.93 56.00 L 21.78 56.00 C 19.04 55.98 16.31 55.83 13.57 56.00 L 6.81 56.00 C 8.07 55.10 9.33 54.21 10.60 53.32 Z" />
</g>
<g id="#699960ff">
<path fill="#699960" opacity="1.00" d=" M 66.39 53.93 C 68.50 53.19 70.66 52.60 72.79 51.90 C 73.62 53.26 75.73 53.34 76.60 51.98 C 76.86 52.12 77.37 52.40 77.62 52.53 C 77.95 53.40 78.61 55.13 78.93 56.00 L 77.78 56.00 C 75.04 55.99 72.31 55.82 69.58 56.00 L 63.42 56.00 C 64.42 55.33 65.41 54.64 66.39 53.93 Z" />
<path fill="#699960" opacity="1.00" d=" M 122.39 53.93 C 124.50 53.19 126.66 52.60 128.79 51.90 C 129.62 53.26 131.73 53.34 132.60 51.98 C 132.86 52.12 133.37 52.40 133.62 52.54 C 133.95 53.40 134.61 55.13 134.93 56.00 L 133.78 56.00 C 131.04 55.99 128.31 55.82 125.58 56.00 L 119.42 56.00 C 120.42 55.33 121.41 54.64 122.39 53.93 Z" />
<path fill="#699960" opacity="1.00" d=" M 178.39 53.93 C 180.50 53.19 182.66 52.60 184.79 51.90 C 185.62 53.26 187.72 53.34 188.60 51.98 C 188.86 52.12 189.37 52.40 189.62 52.54 C 189.95 53.40 190.61 55.13 190.93 56.00 L 189.78 56.00 C 187.04 55.99 184.31 55.82 181.58 56.00 L 175.42 56.00 C 176.42 55.33 177.41 54.64 178.39 53.93 Z" />
</g>
<g id="#83ae61ff">
<path fill="#83ae61" opacity="1.00" d=" M 13.57 56.00 C 16.31 55.83 19.04 55.98 21.78 56.00 L 13.57 56.00 Z" />
<path fill="#83ae61" opacity="1.00" d=" M 69.58 56.00 C 72.31 55.82 75.04 55.99 77.78 56.00 L 69.58 56.00 Z" />
<path fill="#83ae61" opacity="1.00" d=" M 125.58 56.00 C 128.31 55.82 131.04 55.99 133.78 56.00 L 125.58 56.00 Z" />
<path fill="#83ae61" opacity="1.00" d=" M 181.58 56.00 C 184.31 55.82 187.04 55.99 189.78 56.00 L 181.58 56.00 Z" />
</g>
</svg>
