<?xml version="1.0" encoding="UTF-8" ?>
<!DOCTYPE svg PUBLIC "-//W3C//DTD SVG 1.1//EN" "http://www.w3.org/Graphics/SVG/1.1/DTD/svg11.dtd">
<svg width="224pt" height="56pt" viewBox="0 0 224 56" version="1.1" xmlns="http://www.w3.org/2000/svg">
<g id="#91bc69ff">
<path fill="#91bc69" opacity="1.00" d=" M 0.00 0.00 L 0.80 0.00 C 1.73 1.21 1.46 2.12 0.00 2.72 L 0.00 0.00 Z" />
</g>
<g id="#699659ff">
<path fill="#699659" opacity="1.00" d=" M 0.80 0.00 L 3.40 0.00 C 4.34 3.33 5.48 6.60 6.54 9.90 C 6.59 10.13 6.70 10.61 6.75 10.84 C 6.51 14.45 5.94 18.03 5.41 21.60 C 2.11 16.15 1.99 9.92 2.32 3.82 C 1.74 4.39 0.58 5.52 0.00 6.09 L 0.00 2.72 C 1.46 2.12 1.73 1.21 0.80 0.00 Z" />
</g>
<g id="#84ae5cff">
<path fill="#84ae5c" opacity="1.00" d=" M 3.40 0.00 L 4.21 0.00 C 5.22 1.32 6.18 2.67 7.14 4.03 C 8.63 3.29 10.11 2.53 11.58 1.76 C 10.37 1.90 9.16 2.03 7.95 2.18 C 7.38 1.63 6.25 0.54 5.69 0.00 L 23.47 0.00 C 23.33 1.68 23.16 3.36 23.02 5.04 C 22.63 4.89 21.86 4.61 21.47 4.47 C 16.00 0.32 9.12 3.66 6.65 9.21 L 6.54 9.90 C 5.48 6.60 4.34 3.33 3.40 0.00 Z" />
<path fill="#84ae5c" opacity="1.00" d=" M 59.39 0.00 L 60.21 0.00 C 61.22 1.31 62.18 2.67 63.14 4.03 C 64.63 3.29 66.11 2.53 67.58 1.76 C 66.37 1.90 65.16 2.03 63.95 2.18 C 63.38 1.63 62.25 0.54 61.69 0.00 L 79.47 0.00 C 79.33 1.68 79.16 3.36 79.02 5.04 C 78.63 4.89 77.86 4.61 77.47 4.47 C 72.00 0.32 65.13 3.66 62.64 9.21 L 62.56 9.90 C 61.49 6.60 60.34 3.33 59.39 0.00 Z" />
<path fill="#84ae5c" opacity="1.00" d=" M 115.33 0.00 L 116.19 0.00 C 117.21 1.31 118.17 2.67 119.14 4.03 C 120.63 3.29 122.11 2.53 123.58 1.76 C 122.37 1.90 121.16 2.03 119.95 2.18 C 119.38 1.63 118.25 0.54 117.69 0.00 L 135.47 0.00 C 135.33 1.68 135.16 3.36 135.02 5.04 C 134.63 4.89 133.86 4.61 133.47 4.47 C 128.09 0.39 121.03 3.54 118.79 9.24 L 118.68 9.95 C 117.46 6.67 116.28 3.37 115.33 0.00 Z" />
<path fill="#84ae5c" opacity="1.00" d=" M 171.39 0.00 L 172.21 0.00 C 173.22 1.31 174.18 2.67 175.14 4.03 C 176.63 3.29 178.11 2.53 179.58 1.76 C 178.37 1.90 177.16 2.03 175.95 2.18 C 175.38 1.63 174.25 0.54 173.69 0.00 L 191.46 0.00 C 191.32 1.68 191.16 3.36 191.02 5.04 C 190.63 4.89 189.86 4.61 189.47 4.47 C 184.00 0.32 177.13 3.66 174.64 9.21 L 174.56 9.90 C 173.49 6.60 172.34 3.33 171.39 0.00 Z" />
</g>
<g id="#6f9a52ff">
<path fill="#6f9a52" opacity="1.00" d=" M 4.21 0.00 L 5.69 0.00 C 6.25 0.54 7.38 1.63 7.95 2.18 C 9.16 2.03 10.37 1.90 11.58 1.76 C 10.11 2.53 8.63 3.29 7.14 4.03 C 6.18 2.67 5.22 1.32 4.21 0.00 Z" />
<path fill="#6f9a52" opacity="1.00" d=" M 60.21 0.00 L 61.69 0.00 C 62.25 0.54 63.38 1.63 63.95 2.18 C 65.16 2.03 66.37 1.90 67.58 1.76 C 66.11 2.53 64.63 3.29 63.14 4.03 C 62.18 2.67 61.22 1.31 60.21 0.00 Z" />
<path fill="#6f9a52" opacity="1.00" d=" M 116.19 0.00 L 117.69 0.00 C 118.25 0.54 119.38 1.63 119.95 2.18 C 121.16 2.03 122.37 1.90 123.58 1.76 C 122.11 2.53 120.63 3.29 119.14 4.03 C 118.17 2.67 117.21 1.31 116.19 0.00 Z" />
<path fill="#6f9a52" opacity="1.00" d=" M 172.21 0.00 L 173.69 0.00 C 174.25 0.54 175.38 1.63 175.95 2.18 C 177.16 2.03 178.37 1.90 179.58 1.76 C 178.11 2.53 176.63 3.29 175.14 4.03 C 174.18 2.67 173.22 1.31 172.21 0.00 Z" />
</g>
<g id="#6e9a5bff">
<path fill="#6e9a5b" opacity="1.00" d=" M 23.47 0.00 L 56.12 0.00 C 55.24 0.62 54.66 2.84 56.31 2.78 C 57.27 2.07 57.42 1.14 56.77 0.00 L 59.39 0.00 C 60.34 3.33 61.49 6.60 62.56 9.90 C 62.60 10.13 62.69 10.60 62.74 10.84 C 62.52 14.44 61.98 18.01 61.51 21.59 C 60.17 18.47 58.97 15.29 57.73 12.13 C 58.22 9.45 58.53 6.73 58.50 4.01 C 58.05 4.24 57.14 4.69 56.69 4.92 C 55.80 4.60 54.90 4.30 54.00 4.02 C 51.01 2.90 47.80 2.88 44.66 3.16 L 43.67 3.21 C 43.45 1.88 42.64 1.34 41.23 1.58 C 39.11 1.70 36.99 1.74 34.87 1.69 C 33.53 1.55 32.63 2.13 32.15 3.42 C 29.12 4.39 26.10 5.47 22.96 6.03 L 23.02 5.04 C 23.16 3.36 23.33 1.68 23.47 0.00 Z" />
<path fill="#6e9a5b" opacity="1.00" d=" M 79.47 0.00 L 112.12 0.00 C 111.24 0.62 110.66 2.84 112.31 2.78 C 113.27 2.07 113.42 1.14 112.77 0.00 L 115.33 0.00 C 116.28 3.37 117.46 6.67 118.68 9.95 C 118.65 10.21 118.60 10.74 118.58 11.00 C 118.27 14.54 117.94 18.07 117.53 21.59 C 116.19 18.47 114.97 15.29 113.73 12.13 C 114.22 9.45 114.53 6.74 114.51 4.01 C 114.04 4.24 113.10 4.68 112.63 4.91 C 111.76 4.59 110.89 4.30 110.01 4.03 C 107.02 2.90 103.80 2.88 100.66 3.16 L 99.67 3.21 C 99.45 1.88 98.64 1.34 97.23 1.58 C 95.11 1.70 92.99 1.74 90.87 1.69 C 89.53 1.55 88.63 2.13 88.15 3.42 C 85.12 4.39 82.10 5.47 78.96 6.03 L 79.02 5.04 C 79.16 3.36 79.33 1.68 79.47 0.00 Z" />
<path fill="#6e9a5b" opacity="1.00" d=" M 135.47 0.00 L 168.12 0.00 C 167.24 0.62 166.66 2.84 168.31 2.78 C 169.27 2.07 169.42 1.14 168.77 0.00 L 171.39 0.00 C 172.34 3.33 173.49 6.60 174.56 9.90 C 174.61 10.13 174.70 10.61 174.75 10.84 C 174.52 14.46 173.93 18.05 173.41 21.63 C 170.16 16.24 169.99 10.09 170.29 4.05 C 169.88 4.26 169.05 4.69 168.64 4.91 C 167.77 4.59 166.89 4.30 166.00 4.03 C 163.01 2.90 159.80 2.88 156.66 3.16 L 155.67 3.21 C 155.45 1.88 154.64 1.34 153.23 1.58 C 151.11 1.70 148.99 1.74 146.87 1.69 C 145.53 1.55 144.63 2.13 144.15 3.42 C 141.12 4.39 138.10 5.47 134.96 6.03 L 135.02 5.04 C 135.16 3.36 135.33 1.68 135.47 0.00 Z" />
</g>
<g id="#8fb966ff">
<path fill="#8fb966" opacity="1.00" d=" M 56.12 0.00 L 56.77 0.00 C 57.42 1.14 57.27 2.07 56.31 2.78 C 54.66 2.84 55.24 0.62 56.12 0.00 Z" />
<path fill="#8fb966" opacity="1.00" d=" M 112.12 0.00 L 112.77 0.00 C 113.42 1.14 113.27 2.07 112.31 2.78 C 110.66 2.84 111.24 0.62 112.12 0.00 Z" />
<path fill="#8fb966" opacity="1.00" d=" M 168.12 0.00 L 168.77 0.00 C 169.42 1.14 169.27 2.07 168.31 2.78 C 166.66 2.84 167.24 0.62 168.12 0.00 Z" />
</g>
<g id="#729e5cff">
<path fill="#729e5c" opacity="1.00" d=" M 191.46 0.00 L 224.00 0.00 L 224.00 3.69 C 223.56 3.64 222.67 3.55 222.23 3.50 C 219.05 3.10 215.85 3.09 212.65 3.26 L 211.65 3.29 C 211.48 1.94 210.68 1.37 209.26 1.60 C 207.13 1.70 205.00 1.73 202.87 1.69 C 201.53 1.55 200.62 2.12 200.15 3.42 C 197.12 4.39 194.10 5.47 190.96 6.03 L 191.02 5.04 C 191.16 3.36 191.32 1.68 191.46 0.00 Z" />
</g>
<g id="#6b9a5fff">
<path fill="#6b9a5f" opacity="1.00" d=" M 6.65 9.21 C 9.12 3.66 16.00 0.32 21.47 4.47 C 19.53 4.48 17.59 4.57 15.64 4.57 C 15.35 4.52 14.76 4.42 14.46 4.38 C 14.50 5.79 14.53 7.20 14.55 8.62 C 11.92 8.87 9.29 9.09 6.65 9.21 Z" />
<path fill="#6b9a5f" opacity="1.00" d=" M 62.64 9.21 C 65.13 3.66 72.00 0.32 77.47 4.47 C 75.53 4.48 73.59 4.57 71.64 4.57 C 71.35 4.52 70.76 4.42 70.46 4.38 C 70.50 5.79 70.52 7.20 70.55 8.62 C 67.92 8.87 65.28 9.09 62.64 9.21 Z" />
<path fill="#6b9a5f" opacity="1.00" d=" M 118.79 9.24 C 121.03 3.54 128.09 0.39 133.47 4.47 C 131.53 4.48 129.59 4.57 127.64 4.57 C 127.35 4.52 126.76 4.42 126.46 4.38 C 126.50 5.79 126.52 7.20 126.55 8.61 C 123.97 8.86 121.38 9.10 118.79 9.24 Z" />
<path fill="#6b9a5f" opacity="1.00" d=" M 174.64 9.21 C 177.13 3.66 184.00 0.32 189.47 4.47 C 187.53 4.48 185.59 4.57 183.64 4.57 C 183.35 4.52 182.76 4.42 182.46 4.38 C 182.50 5.79 182.52 7.20 182.55 8.62 C 179.92 8.87 177.28 9.09 174.64 9.21 Z" />
</g>
<g id="#565249ff">
<path fill="#565249" opacity="1.00" d=" M 32.15 3.42 C 32.63 2.13 33.53 1.55 34.87 1.69 C 34.58 3.06 33.67 3.64 32.15 3.42 Z" />
<path fill="#565249" opacity="1.00" d=" M 41.23 1.58 C 42.64 1.34 43.45 1.88 43.67 3.21 C 42.24 3.47 41.43 2.93 41.23 1.58 Z" />
<path fill="#565249" opacity="1.00" d=" M 44.66 3.16 C 47.80 2.88 51.01 2.90 54.00 4.02 C 50.90 3.58 47.77 3.38 44.66 3.16 Z" />
<path fill="#565249" opacity="1.00" d=" M 88.15 3.42 C 88.63 2.13 89.53 1.55 90.87 1.69 C 90.58 3.06 89.67 3.64 88.15 3.42 Z" />
<path fill="#565249" opacity="1.00" d=" M 97.23 1.58 C 98.64 1.34 99.45 1.88 99.67 3.21 C 98.24 3.47 97.43 2.93 97.23 1.58 Z" />
<path fill="#565249" opacity="1.00" d=" M 100.66 3.16 C 103.80 2.88 107.02 2.90 110.01 4.03 C 106.91 3.59 103.77 3.38 100.66 3.16 Z" />
<path fill="#565249" opacity="1.00" d=" M 144.15 3.42 C 144.63 2.13 145.53 1.55 146.87 1.69 C 146.58 3.06 145.67 3.64 144.15 3.42 Z" />
<path fill="#565249" opacity="1.00" d=" M 153.23 1.58 C 154.64 1.34 155.45 1.88 155.67 3.21 C 154.24 3.47 153.43 2.93 153.23 1.58 Z" />
<path fill="#565249" opacity="1.00" d=" M 156.66 3.16 C 159.80 2.88 163.01 2.90 166.00 4.03 C 162.91 3.59 159.77 3.38 156.66 3.16 Z" />
<path fill="#565249" opacity="1.00" d=" M 200.15 3.42 C 200.62 2.12 201.53 1.55 202.87 1.69 C 202.58 3.06 201.67 3.64 200.15 3.42 Z" />
<path fill="#565249" opacity="1.00" d=" M 209.26 1.60 C 210.68 1.37 211.48 1.94 211.65 3.29 C 210.23 3.51 209.44 2.94 209.26 1.60 Z" />
<path fill="#565249" opacity="1.00" d=" M 212.65 3.26 C 215.85 3.09 219.05 3.10 222.23 3.50 C 219.04 3.33 215.83 3.29 212.65 3.26 Z" />
<path fill="#565249" opacity="1.00" d=" M 31.91 10.26 C 32.45 8.07 33.00 5.87 33.59 3.68 C 33.64 5.26 33.69 6.84 33.74 8.42 C 33.28 8.88 32.37 9.80 31.91 10.26 Z" />
<path fill="#565249" opacity="1.00" d=" M 88.01 10.19 C 88.55 8.02 89.06 5.85 89.61 3.69 C 89.65 5.28 89.69 6.86 89.73 8.44 C 89.30 8.88 88.44 9.75 88.01 10.19 Z" />
<path fill="#565249" opacity="1.00" d=" M 143.56 9.97 C 144.10 7.83 144.80 5.72 145.49 3.62 C 145.60 5.23 145.70 6.84 145.80 8.45 C 145.24 8.83 144.12 9.59 143.56 9.97 Z" />
<path fill="#565249" opacity="1.00" d=" M 200.01 10.19 C 200.55 8.02 201.06 5.85 201.61 3.69 C 201.65 5.28 201.69 6.86 201.73 8.44 C 201.30 8.88 200.44 9.75 200.01 10.19 Z" />
<path fill="#565249" opacity="1.00" d=" M 49.11 6.19 C 50.19 5.77 51.28 5.35 52.36 4.92 C 52.31 6.27 52.23 7.63 52.15 8.98 C 51.35 8.98 49.74 8.99 48.93 9.00 C 48.98 8.30 49.07 6.89 49.11 6.19 Z" />
<path fill="#565249" opacity="1.00" d=" M 105.11 6.19 C 106.19 5.77 107.28 5.35 108.36 4.92 C 108.31 6.27 108.23 7.63 108.15 8.98 C 107.35 8.98 105.74 8.99 104.93 9.00 C 104.98 8.30 105.07 6.89 105.11 6.19 Z" />
<path fill="#565249" opacity="1.00" d=" M 161.02 5.85 C 162.37 5.77 163.72 5.69 165.08 5.64 C 164.65 6.72 164.23 7.81 163.81 8.89 C 163.11 8.93 161.70 9.02 161.00 9.07 C 161.01 8.26 161.02 6.65 161.02 5.85 Z" />
<path fill="#565249" opacity="1.00" d=" M 217.02 5.85 C 218.37 5.77 219.72 5.69 221.08 5.64 C 220.65 6.72 220.23 7.81 219.81 8.89 C 219.11 8.93 217.70 9.02 217.00 9.07 C 217.01 8.26 217.02 6.65 217.02 5.85 Z" />
<path fill="#565249" opacity="1.00" d=" M 26.21 19.99 C 25.15 18.42 26.17 16.64 27.02 15.27 C 27.25 16.80 27.71 18.50 26.85 19.94 L 26.21 19.99 Z" />
<path fill="#565249" opacity="1.00" d=" M 103.56 15.59 L 104.46 15.62 C 104.80 15.98 105.46 16.71 105.79 17.07 C 105.22 17.09 104.09 17.13 103.52 17.15 C 103.53 16.76 103.55 15.98 103.56 15.59 Z" />
<path fill="#565249" opacity="1.00" d=" M 215.56 15.59 L 216.46 15.62 C 216.79 15.99 217.46 16.71 217.79 17.07 C 217.22 17.09 216.09 17.14 215.52 17.16 C 215.53 16.77 215.55 15.98 215.56 15.59 Z" />
<path fill="#565249" opacity="1.00" d=" M 7.02 34.98 C 8.77 35.04 10.51 35.10 12.26 35.16 C 10.50 36.15 8.75 37.13 6.99 38.11 C 7.00 37.32 7.01 35.76 7.02 34.98 Z" />
<path fill="#565249" opacity="1.00" d=" M 63.02 34.98 C 64.77 35.04 66.51 35.10 68.26 35.16 C 66.50 36.15 64.75 37.13 62.99 38.11 C 63.00 37.32 63.01 35.76 63.02 34.98 Z" />
<path fill="#565249" opacity="1.00" d=" M 119.02 34.98 C 120.77 35.04 122.51 35.10 124.26 35.16 C 122.50 36.15 120.75 37.13 118.99 38.11 C 119.00 37.32 119.01 35.76 119.02 34.98 Z" />
<path fill="#565249" opacity="1.00" d=" M 175.02 34.98 C 176.77 35.04 178.51 35.10 180.26 35.16 C 178.50 36.15 176.75 37.13 174.99 38.11 C 175.00 37.32 175.01 35.76 175.02 34.98 Z" />
<path fill="#565249" opacity="1.00" d=" M 11.46 39.43 C 8.99 39.97 9.35 36.86 11.64 37.69 C 11.59 38.13 11.50 38.99 11.46 39.43 Z" />
<path fill="#565249" opacity="1.00" d=" M 67.39 39.55 C 64.83 40.00 65.98 36.34 67.88 38.03 C 67.76 38.41 67.52 39.17 67.39 39.55 Z" />
<path fill="#565249" opacity="1.00" d=" M 122.62 39.76 C 120.66 38.79 122.40 36.04 123.59 38.31 C 123.35 38.67 122.86 39.40 122.62 39.76 Z" />
<path fill="#565249" opacity="1.00" d=" M 179.39 39.54 C 176.83 40.01 177.95 36.34 179.86 38.01 C 179.74 38.39 179.50 39.16 179.39 39.54 Z" />
</g>
<g id="#332f2bff">
<path fill="#332f2b" opacity="1.00" d=" M 34.87 1.69 C 36.99 1.74 39.11 1.70 41.23 1.58 C 41.43 2.93 42.24 3.47 43.67 3.21 L 44.66 3.16 C 47.77 3.38 50.90 3.58 54.00 4.02 C 54.90 4.30 55.80 4.60 56.69 4.92 C 56.45 9.22 56.23 13.51 56.01 17.81 C 54.63 16.53 52.35 17.19 51.76 18.95 C 51.25 18.71 50.21 18.24 49.70 18.01 C 49.39 17.47 48.77 16.39 48.46 15.85 C 49.81 15.46 50.99 14.68 52.15 13.90 C 52.83 13.46 54.18 12.58 54.86 12.14 C 51.01 10.40 47.33 8.32 43.92 5.80 C 44.71 7.75 45.53 9.69 46.41 11.60 C 45.32 12.20 44.23 12.81 43.14 13.42 C 44.89 14.75 46.60 16.14 48.38 17.43 C 47.61 17.43 46.07 17.44 45.30 17.44 C 44.95 17.46 44.25 17.50 43.90 17.52 C 42.52 17.53 41.88 18.19 41.97 19.50 L 41.64 18.70 C 41.47 16.58 41.47 14.46 41.45 12.33 C 41.42 11.99 41.34 11.29 41.30 10.95 C 40.80 9.33 40.55 6.74 38.40 6.57 C 36.57 5.93 35.12 7.52 33.74 8.42 C 33.69 6.84 33.64 5.26 33.59 3.68 C 33.00 5.87 32.45 8.07 31.91 10.26 C 31.79 10.71 31.56 11.62 31.44 12.07 C 31.01 13.79 30.62 15.51 30.15 17.22 C 29.60 17.99 29.04 18.75 28.45 19.50 L 27.78 19.84 L 26.85 19.94 C 27.71 18.50 27.25 16.80 27.02 15.27 C 27.19 14.74 27.54 13.69 27.71 13.17 C 28.19 11.72 28.66 10.26 29.17 8.82 C 29.28 8.55 29.50 7.99 29.61 7.72 C 24.07 8.76 17.96 7.71 13.05 11.09 C 15.17 11.34 17.30 11.57 19.43 11.78 C 18.25 12.24 15.90 13.16 14.73 13.62 C 14.32 15.46 13.50 19.12 13.10 20.96 C 11.87 20.50 10.63 20.08 9.38 19.68 C 8.63 16.70 7.59 13.80 6.75 10.84 C 6.70 10.61 6.59 10.13 6.54 9.90 L 6.65 9.21 C 9.29 9.09 11.92 8.87 14.55 8.62 C 14.53 7.20 14.50 5.79 14.46 4.38 C 14.76 4.42 15.35 4.52 15.64 4.57 C 18.08 5.08 20.50 5.65 22.96 6.03 C 26.10 5.47 29.12 4.39 32.15 3.42 C 33.67 3.64 34.58 3.06 34.87 1.69 M 49.11 6.19 C 49.07 6.89 48.98 8.30 48.93 9.00 C 49.74 8.99 51.35 8.98 52.15 8.98 C 52.23 7.63 52.31 6.27 52.36 4.92 C 51.28 5.35 50.19 5.77 49.11 6.19 Z" />
</g>
<g id="#342f2bfe">
<path fill="#342f2b" opacity="1.00" d=" M 90.87 1.69 C 92.99 1.74 95.11 1.70 97.23 1.58 C 97.43 2.93 98.24 3.47 99.67 3.21 L 100.66 3.16 C 103.77 3.38 106.91 3.59 110.01 4.03 C 110.89 4.30 111.76 4.59 112.63 4.91 C 112.34 8.91 112.01 12.92 111.87 16.93 C 110.61 16.31 109.75 16.64 109.30 17.94 L 108.40 17.73 C 107.53 17.51 106.66 17.29 105.79 17.07 C 105.46 16.71 104.80 15.98 104.46 15.62 C 105.87 15.24 107.14 14.52 108.34 13.70 C 108.86 13.38 109.88 12.73 110.40 12.40 C 110.14 11.79 109.89 11.18 109.64 10.57 C 108.09 10.45 106.54 10.35 104.99 10.23 C 103.45 8.56 101.84 6.94 100.17 5.39 C 100.85 7.51 101.57 9.62 102.33 11.71 C 101.28 12.20 100.23 12.70 99.18 13.20 C 100.49 13.84 101.81 14.48 103.10 15.17 L 103.56 15.59 C 103.55 15.98 103.53 16.76 103.52 17.15 C 102.97 17.03 101.87 16.78 101.32 16.65 C 100.96 16.63 100.24 16.58 99.88 16.55 C 98.47 16.57 97.89 17.26 98.14 18.62 L 98.01 17.85 C 97.75 16.01 97.57 14.17 97.44 12.33 C 97.39 11.99 97.29 11.32 97.25 10.98 C 96.76 9.36 96.57 6.73 94.40 6.56 C 92.56 5.91 91.11 7.54 89.73 8.44 C 89.69 6.86 89.65 5.28 89.61 3.69 C 89.06 5.85 88.55 8.02 88.01 10.19 C 87.90 10.56 87.69 11.30 87.59 11.68 C 87.15 13.24 86.71 14.81 86.20 16.35 C 85.64 17.10 85.07 17.83 84.48 18.55 L 83.81 18.85 L 82.85 18.93 C 83.20 17.01 83.56 15.09 83.98 13.19 C 84.32 11.72 84.68 10.26 85.08 8.81 C 85.17 8.53 85.35 7.99 85.44 7.71 C 79.95 8.78 73.85 7.68 69.03 11.16 C 71.07 11.30 73.11 11.42 75.15 11.51 C 74.24 12.29 72.43 13.84 71.52 14.61 C 71.13 15.72 70.35 17.93 69.95 19.04 L 69.68 19.88 C 68.25 20.00 66.81 20.12 65.38 20.24 C 64.59 17.08 63.58 13.98 62.74 10.84 C 62.69 10.60 62.60 10.13 62.56 9.90 L 62.64 9.21 C 65.28 9.09 67.92 8.87 70.55 8.62 C 70.52 7.20 70.50 5.79 70.46 4.38 C 70.76 4.42 71.35 4.52 71.64 4.57 C 74.08 5.08 76.50 5.65 78.96 6.03 C 82.10 5.47 85.12 4.39 88.15 3.42 C 89.67 3.64 90.58 3.06 90.87 1.69 M 105.11 6.19 C 105.07 6.89 104.98 8.30 104.93 9.00 C 105.74 8.99 107.35 8.98 108.15 8.98 C 108.23 7.63 108.31 6.27 108.36 4.92 C 107.28 5.35 106.19 5.77 105.11 6.19 Z" />
<path fill="#342f2b" opacity="1.00" d=" M 202.87 1.69 C 205.00 1.73 207.13 1.70 209.26 1.60 C 209.44 2.94 210.23 3.51 211.65 3.29 L 212.65 3.26 C 215.83 3.29 219.04 3.33 222.23 3.50 C 222.67 3.55 223.56 3.64 224.00 3.69 L 224.00 16.89 C 222.72 16.28 221.86 16.62 221.42 17.92 L 220.46 17.71 C 219.57 17.51 218.68 17.29 217.79 17.07 C 217.46 16.71 216.79 15.99 216.46 15.62 C 217.87 15.24 219.14 14.52 220.34 13.70 C 220.85 13.38 221.88 12.73 222.40 12.40 C 222.14 11.79 221.88 11.18 221.64 10.57 C 220.09 10.45 218.54 10.35 216.99 10.23 C 215.45 8.56 213.84 6.94 212.17 5.39 C 212.85 7.51 213.57 9.62 214.33 11.71 C 213.28 12.20 212.23 12.70 211.18 13.20 C 212.49 13.84 213.81 14.48 215.10 15.17 L 215.56 15.59 C 215.55 15.98 215.53 16.77 215.52 17.16 C 214.97 17.04 213.87 16.79 213.33 16.67 C 212.97 16.65 212.25 16.60 211.90 16.57 C 210.48 16.57 209.90 17.26 210.14 18.62 L 210.02 17.85 C 209.75 16.01 209.57 14.17 209.44 12.33 C 209.39 11.99 209.29 11.32 209.25 10.98 C 208.76 9.36 208.57 6.73 206.40 6.56 C 204.56 5.91 203.11 7.54 201.73 8.44 C 201.69 6.86 201.65 5.28 201.61 3.69 C 201.06 5.85 200.55 8.02 200.01 10.19 C 199.90 10.56 199.69 11.30 199.59 11.67 C 199.15 13.24 198.71 14.81 198.19 16.35 C 197.63 17.09 197.06 17.82 196.47 18.53 L 195.81 18.85 L 194.85 18.92 C 195.20 17.00 195.56 15.09 195.98 13.18 C 196.32 11.72 196.68 10.26 197.08 8.81 C 197.17 8.53 197.35 7.99 197.44 7.71 C 191.95 8.78 185.85 7.68 181.03 11.16 C 183.06 11.30 185.11 11.42 187.15 11.51 C 186.24 12.29 184.43 13.84 183.52 14.61 C 183.13 15.72 182.35 17.93 181.95 19.04 L 181.68 19.88 C 180.25 20.00 178.81 20.12 177.38 20.24 C 176.59 17.08 175.58 13.98 174.75 10.84 C 174.70 10.61 174.61 10.13 174.56 9.90 L 174.64 9.21 C 177.28 9.09 179.92 8.87 182.55 8.62 C 182.52 7.20 182.50 5.79 182.46 4.38 C 182.76 4.42 183.35 4.52 183.64 4.57 C 186.08 5.08 188.49 5.65 190.96 6.03 C 194.10 5.47 197.12 4.39 200.15 3.42 C 201.67 3.64 202.58 3.06 202.87 1.69 M 217.02 5.85 C 217.02 6.65 217.01 8.26 217.00 9.07 C 217.70 9.02 219.11 8.93 219.81 8.89 C 220.23 7.81 220.65 6.72 221.08 5.64 C 219.72 5.69 218.37 5.77 217.02 5.85 Z" />
</g>
<g id="#342f2bff">
<path fill="#342f2b" opacity="1.00" d=" M 146.87 1.69 C 148.99 1.74 151.11 1.70 153.23 1.58 C 153.43 2.93 154.24 3.47 155.67 3.21 L 156.66 3.16 C 159.77 3.38 162.91 3.59 166.00 4.03 C 166.89 4.30 167.77 4.59 168.64 4.91 C 168.35 8.60 168.02 12.28 167.88 15.98 C 166.59 15.40 165.73 15.77 165.31 17.08 L 164.39 16.90 C 162.48 16.48 160.59 16.00 158.73 15.41 C 160.76 15.89 162.84 15.19 164.35 13.80 C 165.02 13.32 166.34 12.37 167.01 11.89 C 165.02 11.09 162.98 10.47 160.93 9.86 C 159.39 8.33 157.79 6.86 156.13 5.45 C 156.79 7.49 157.50 9.52 158.26 11.53 C 157.09 12.35 155.92 13.18 154.75 14.01 C 155.72 14.37 156.69 14.72 157.67 15.07 C 157.30 15.15 156.57 15.33 156.20 15.41 C 154.81 15.57 154.18 16.30 154.32 17.60 L 154.07 16.84 C 153.61 15.40 153.18 13.94 152.82 12.47 C 152.85 12.15 152.93 11.51 152.97 11.19 C 153.13 9.89 153.31 8.60 153.50 7.30 C 150.86 6.72 147.93 6.36 145.80 8.45 C 145.70 6.84 145.60 5.23 145.49 3.62 C 144.80 5.72 144.10 7.83 143.56 9.97 C 143.73 12.34 144.25 14.67 145.01 16.92 C 144.33 16.11 143.63 15.30 142.93 14.50 C 141.62 15.74 140.31 16.99 139.02 18.25 C 139.43 16.59 139.78 14.91 140.12 13.23 C 140.42 11.75 140.71 10.26 141.04 8.79 C 141.15 8.36 141.35 7.51 141.46 7.08 C 139.62 7.73 137.78 8.41 135.94 9.05 C 132.18 7.59 128.25 8.95 125.11 11.15 C 127.22 11.39 129.33 11.59 131.44 11.79 C 130.14 12.18 127.54 12.95 126.24 13.33 C 126.07 14.65 125.89 15.96 125.71 17.27 C 125.62 17.93 125.45 19.25 125.36 19.91 C 124.93 20.14 124.08 20.61 123.66 20.85 C 121.50 17.83 119.97 14.43 118.58 11.00 C 118.60 10.74 118.65 10.21 118.68 9.95 L 118.79 9.24 C 121.38 9.10 123.97 8.86 126.55 8.61 C 126.52 7.20 126.50 5.79 126.46 4.38 C 126.76 4.42 127.35 4.52 127.64 4.57 C 130.08 5.08 132.50 5.65 134.96 6.03 C 138.10 5.47 141.12 4.39 144.15 3.42 C 145.67 3.64 146.58 3.06 146.87 1.69 M 161.02 5.85 C 161.02 6.65 161.01 8.26 161.00 9.07 C 161.70 9.02 163.11 8.93 163.81 8.89 C 164.23 7.81 164.65 6.72 165.08 5.64 C 163.72 5.69 162.37 5.77 161.02 5.85 Z" />
</g>
<g id="#86b05fff">
<path fill="#86b05f" opacity="1.00" d=" M 2.32 3.82 C 1.99 9.92 2.11 16.15 5.41 21.60 C 5.69 22.18 6.27 23.32 6.55 23.89 C 5.30 23.50 4.05 23.14 2.79 22.77 C 2.31 24.04 1.83 25.30 1.34 26.56 C 0.88 25.45 0.43 24.34 0.00 23.22 L 0.00 6.09 C 0.58 5.52 1.74 4.39 2.32 3.82 M 1.29 20.54 C 0.43 21.76 2.53 23.04 3.32 21.85 C 4.15 20.65 2.07 19.37 1.29 20.54 Z" />
<path fill="#86b05f" opacity="1.00" d=" M 58.50 4.01 C 58.53 6.73 58.22 9.45 57.73 12.13 C 58.97 15.29 60.17 18.47 61.51 21.59 C 61.78 22.16 62.32 23.30 62.59 23.88 C 61.28 23.48 59.95 23.11 58.63 22.74 C 58.41 23.86 58.19 24.98 57.97 26.10 C 57.22 25.35 56.46 24.60 55.70 23.86 C 55.72 23.37 55.77 22.40 55.79 21.91 C 55.84 21.04 55.93 19.30 55.97 18.43 L 56.01 17.81 C 56.23 13.51 56.45 9.22 56.69 4.92 C 57.14 4.69 58.05 4.24 58.50 4.01 M 57.29 20.54 C 56.43 21.76 58.53 23.04 59.32 21.85 C 60.15 20.65 58.07 19.37 57.29 20.54 Z" />
<path fill="#86b05f" opacity="1.00" d=" M 114.51 4.01 C 114.53 6.74 114.22 9.45 113.73 12.13 C 114.97 15.29 116.19 18.47 117.53 21.59 C 117.80 22.16 118.34 23.30 118.61 23.87 C 117.29 23.48 115.96 23.11 114.64 22.74 C 114.41 23.87 114.18 24.99 113.94 26.12 C 113.27 25.38 112.60 24.65 111.93 23.91 C 111.91 23.16 111.89 21.66 111.88 20.90 C 111.87 20.10 111.87 18.49 111.86 17.68 L 111.87 16.93 C 112.01 12.92 112.34 8.91 112.63 4.91 C 113.10 4.68 114.04 4.24 114.51 4.01 M 113.29 20.54 C 112.43 21.76 114.53 23.04 115.32 21.85 C 116.15 20.65 114.07 19.37 113.29 20.54 Z" />
<path fill="#86b05f" opacity="1.00" d=" M 170.29 4.05 C 169.99 10.09 170.16 16.24 173.41 21.63 C 173.69 22.20 174.26 23.33 174.54 23.89 C 173.25 23.49 171.94 23.11 170.64 22.73 C 170.41 23.85 170.18 24.97 169.94 26.10 C 169.27 25.40 168.60 24.70 167.94 24.00 C 167.92 22.63 167.89 21.26 167.87 19.90 C 167.87 19.11 167.86 17.52 167.86 16.73 L 167.88 15.98 C 168.02 12.28 168.35 8.60 168.64 4.91 C 169.05 4.69 169.88 4.26 170.29 4.05 M 169.29 20.54 C 168.43 21.76 170.53 23.04 171.32 21.85 C 172.15 20.65 170.07 19.37 169.29 20.54 Z" />
</g>
<g id="#5d5347ff">
<path fill="#5d5347" opacity="1.00" d=" M 15.64 4.57 C 17.59 4.57 19.53 4.48 21.47 4.47 C 21.86 4.61 22.63 4.89 23.02 5.04 L 22.96 6.03 C 20.50 5.65 18.08 5.08 15.64 4.57 Z" />
<path fill="#5d5347" opacity="1.00" d=" M 71.64 4.57 C 73.59 4.57 75.53 4.48 77.47 4.47 C 77.86 4.61 78.63 4.89 79.02 5.04 L 78.96 6.03 C 76.50 5.65 74.08 5.08 71.64 4.57 Z" />
<path fill="#5d5347" opacity="1.00" d=" M 127.64 4.57 C 129.59 4.57 131.53 4.48 133.47 4.47 C 133.86 4.61 134.63 4.89 135.02 5.04 L 134.96 6.03 C 132.50 5.65 130.08 5.08 127.64 4.57 Z" />
<path fill="#5d5347" opacity="1.00" d=" M 183.64 4.57 C 185.59 4.57 187.53 4.48 189.47 4.47 C 189.86 4.61 190.63 4.89 191.02 5.04 L 190.96 6.03 C 188.49 5.65 186.08 5.08 183.64 4.57 Z" />
</g>
<g id="#72624dff">
<path fill="#72624d" opacity="1.00" d=" M 33.74 8.42 C 35.12 7.52 36.57 5.93 38.40 6.57 C 40.55 6.74 40.80 9.33 41.30 10.95 C 39.33 10.56 37.72 11.98 36.24 13.05 C 35.79 13.34 34.87 13.92 34.41 14.21 C 33.42 13.50 32.42 12.79 31.44 12.07 C 31.56 11.62 31.79 10.71 31.91 10.26 C 32.37 9.80 33.28 8.88 33.74 8.42 Z" />
<path fill="#72624d" opacity="1.00" d=" M 89.73 8.44 C 91.11 7.54 92.56 5.91 94.40 6.56 C 96.57 6.73 96.76 9.36 97.25 10.98 C 95.27 10.56 93.65 11.97 92.21 13.09 C 91.65 13.48 90.54 14.24 89.98 14.63 C 89.19 13.64 88.39 12.66 87.59 11.68 C 87.69 11.30 87.90 10.56 88.01 10.19 C 88.44 9.75 89.30 8.88 89.73 8.44 Z" />
<path fill="#72624d" opacity="1.00" d=" M 201.73 8.44 C 203.11 7.54 204.56 5.91 206.40 6.56 C 208.57 6.73 208.76 9.36 209.25 10.98 C 207.27 10.56 205.65 11.97 204.21 13.09 C 203.65 13.48 202.54 14.24 201.98 14.63 C 201.19 13.64 200.38 12.66 199.59 11.67 C 199.69 11.30 199.90 10.56 200.01 10.19 C 200.44 9.75 201.30 8.88 201.73 8.44 Z" />
</g>
<g id="#6d614fff">
<path fill="#6d614f" opacity="1.00" d=" M 145.80 8.45 C 147.93 6.36 150.86 6.72 153.50 7.30 C 153.31 8.60 153.13 9.89 152.97 11.19 C 151.29 10.81 149.51 11.40 148.51 12.82 C 148.06 13.31 147.14 14.28 146.69 14.77 C 147.57 15.90 148.47 17.03 149.36 18.16 C 148.77 18.49 147.59 19.15 146.99 19.49 C 146.34 18.62 145.68 17.77 145.01 16.92 C 144.25 14.67 143.73 12.34 143.56 9.97 C 144.12 9.59 145.24 8.83 145.80 8.45 Z" />
</g>
<g id="#63594aff">
<path fill="#63594a" opacity="1.00" d=" M 43.92 5.80 C 47.33 8.32 51.01 10.40 54.86 12.14 C 54.18 12.58 52.83 13.46 52.15 13.90 C 50.52 12.34 46.33 13.26 48.46 15.85 C 48.77 16.39 49.39 17.47 49.70 18.01 C 49.37 17.86 48.71 17.57 48.38 17.43 C 46.60 16.14 44.89 14.75 43.14 13.42 C 44.23 12.81 45.32 12.20 46.41 11.60 C 45.53 9.69 44.71 7.75 43.92 5.80 Z" />
<path fill="#63594a" opacity="1.00" d=" M 125.11 11.15 C 128.25 8.95 132.18 7.59 135.94 9.05 C 137.78 8.41 139.62 7.73 141.46 7.08 C 141.35 7.51 141.15 8.36 141.04 8.79 C 139.10 9.98 137.06 11.02 135.04 12.07 C 136.73 12.46 138.42 12.84 140.12 13.23 C 139.78 14.91 139.43 16.59 139.02 18.25 L 138.55 18.72 C 137.45 18.55 136.36 18.38 135.27 18.20 C 134.81 17.96 133.89 17.47 133.44 17.23 C 132.63 16.33 131.85 15.42 131.07 14.50 C 129.51 15.42 127.96 16.36 126.37 17.24 L 125.71 17.27 C 125.89 15.96 126.07 14.65 126.24 13.33 C 127.54 12.95 130.14 12.18 131.44 11.79 C 129.33 11.59 127.22 11.39 125.11 11.15 Z" />
</g>
<g id="#665b4bff">
<path fill="#665b4b" opacity="1.00" d=" M 100.17 5.39 C 101.84 6.94 103.45 8.56 104.99 10.23 C 106.54 10.35 108.09 10.45 109.64 10.57 C 109.89 11.18 110.14 11.79 110.40 12.40 C 109.88 12.73 108.86 13.38 108.34 13.70 C 106.52 12.93 103.96 13.09 103.10 15.17 C 101.81 14.48 100.49 13.84 99.18 13.20 C 100.23 12.70 101.28 12.20 102.33 11.71 C 101.57 9.62 100.85 7.51 100.17 5.39 Z" />
<path fill="#665b4b" opacity="1.00" d=" M 156.13 5.45 C 157.79 6.86 159.39 8.33 160.93 9.86 C 162.98 10.47 165.02 11.09 167.01 11.89 C 166.34 12.37 165.02 13.32 164.35 13.80 C 162.35 12.90 159.92 13.53 158.73 15.41 L 157.67 15.07 C 156.69 14.72 155.72 14.37 154.75 14.01 C 155.92 13.18 157.09 12.35 158.26 11.53 C 157.50 9.52 156.79 7.49 156.13 5.45 Z" />
<path fill="#665b4b" opacity="1.00" d=" M 212.17 5.39 C 213.84 6.94 215.45 8.56 216.99 10.23 C 218.54 10.35 220.09 10.45 221.64 10.57 C 221.88 11.18 222.14 11.79 222.40 12.40 C 221.88 12.73 220.85 13.38 220.34 13.70 C 218.52 12.93 215.96 13.09 215.10 15.17 C 213.81 14.48 212.49 13.84 211.18 13.20 C 212.23 12.70 213.28 12.20 214.33 11.71 C 213.57 9.62 212.85 7.51 212.17 5.39 Z" />
</g>
<g id="#5f584bff">
<path fill="#5f584b" opacity="1.00" d=" M 13.05 11.09 C 17.96 7.71 24.07 8.76 29.61 7.72 C 29.50 7.99 29.28 8.55 29.17 8.82 C 27.31 9.98 25.37 11.00 23.44 12.03 C 23.64 14.71 23.69 17.39 23.61 20.07 C 22.50 19.83 21.40 19.59 20.29 19.35 C 20.24 17.57 20.19 15.79 20.13 14.01 C 18.74 14.54 17.36 15.07 15.97 15.60 C 15.43 17.25 14.89 18.89 14.30 20.52 L 13.10 20.96 C 13.50 19.12 14.32 15.46 14.73 13.62 C 15.90 13.16 18.25 12.24 19.43 11.78 C 17.30 11.57 15.17 11.34 13.05 11.09 Z" />
</g>
<g id="#60584bff">
<path fill="#60584b" opacity="1.00" d=" M 69.03 11.16 C 73.85 7.68 79.95 8.78 85.44 7.71 C 85.35 7.99 85.17 8.53 85.08 8.81 C 83.24 9.97 81.32 11.00 79.41 12.04 C 79.58 14.35 79.68 16.67 79.63 18.99 C 78.50 18.94 77.37 18.91 76.24 18.88 C 76.21 17.27 76.16 15.66 76.11 14.05 C 74.93 14.47 73.74 14.89 72.56 15.31 C 71.90 16.53 71.24 17.75 70.55 18.96 L 69.95 19.04 C 70.35 17.93 71.13 15.72 71.52 14.61 C 72.43 13.84 74.24 12.29 75.15 11.51 C 73.11 11.42 71.07 11.30 69.03 11.16 Z" />
<path fill="#60584b" opacity="1.00" d=" M 181.03 11.16 C 185.85 7.68 191.95 8.78 197.44 7.71 C 197.35 7.99 197.17 8.53 197.08 8.81 C 195.24 9.97 193.32 11.00 191.41 12.04 C 191.58 14.35 191.68 16.67 191.63 18.98 C 190.49 18.94 189.36 18.91 188.24 18.88 C 188.20 17.27 188.16 15.66 188.11 14.05 C 186.93 14.47 185.74 14.89 184.56 15.31 C 183.90 16.53 183.24 17.75 182.55 18.96 L 181.95 19.04 C 182.35 17.93 183.13 15.72 183.52 14.61 C 184.43 13.84 186.24 12.29 187.15 11.51 C 185.11 11.42 183.06 11.30 181.03 11.16 Z" />
</g>
<g id="#92824dff">
<path fill="#92824d" opacity="1.00" d=" M 23.44 12.03 C 25.37 11.00 27.31 9.98 29.17 8.82 C 28.66 10.26 28.19 11.72 27.71 13.17 C 26.29 12.79 24.86 12.41 23.44 12.03 Z" />
<path fill="#92824d" opacity="1.00" d=" M 79.41 12.04 C 81.32 11.00 83.24 9.97 85.08 8.81 C 84.68 10.26 84.32 11.72 83.98 13.19 C 82.46 12.80 80.93 12.42 79.41 12.04 Z" />
<path fill="#92824d" opacity="1.00" d=" M 135.04 12.07 C 137.06 11.02 139.10 9.98 141.04 8.79 C 140.71 10.26 140.42 11.75 140.12 13.23 C 138.42 12.84 136.73 12.46 135.04 12.07 Z" />
<path fill="#92824d" opacity="1.00" d=" M 191.41 12.04 C 193.32 11.00 195.24 9.97 197.08 8.81 C 196.68 10.26 196.32 11.72 195.98 13.18 C 194.45 12.80 192.93 12.42 191.41 12.04 Z" />
</g>
<g id="#4b5745ff">
<path fill="#4b5745" opacity="1.00" d=" M 5.41 21.60 C 5.94 18.03 6.51 14.45 6.75 10.84 C 7.59 13.80 8.63 16.70 9.38 19.68 C 9.58 20.78 9.77 21.89 9.95 23.00 C 8.43 22.56 6.92 22.08 5.41 21.60 Z" />
<path fill="#4b5745" opacity="1.00" d=" M 61.51 21.59 C 61.98 18.01 62.52 14.44 62.74 10.84 C 63.58 13.98 64.59 17.08 65.38 20.24 C 65.59 21.12 65.80 22.00 65.99 22.89 C 64.49 22.49 63.00 22.04 61.51 21.59 Z" />
<path fill="#4b5745" opacity="1.00" d=" M 173.41 21.63 C 173.93 18.05 174.52 14.46 174.75 10.84 C 175.58 13.98 176.59 17.08 177.38 20.24 C 177.59 21.12 177.79 22.01 177.99 22.90 C 176.45 22.51 174.93 22.07 173.41 21.63 Z" />
</g>
<g id="#907e4efe">
<path fill="#907e4e" opacity="1.00" d=" M 36.24 13.05 C 37.72 11.98 39.33 10.56 41.30 10.95 C 41.34 11.29 41.42 11.99 41.45 12.33 C 40.01 13.00 38.49 13.24 36.88 13.05 L 36.24 13.05 Z" />
<path fill="#907e4e" opacity="1.00" d=" M 92.21 13.09 C 93.65 11.97 95.27 10.56 97.25 10.98 C 97.29 11.32 97.39 11.99 97.44 12.33 C 95.99 12.99 94.47 13.25 92.86 13.09 L 92.21 13.09 Z" />
<path fill="#907e4e" opacity="1.00" d=" M 148.51 12.82 C 149.51 11.40 151.29 10.81 152.97 11.19 C 152.93 11.51 152.85 12.15 152.82 12.47 C 151.50 13.21 150.10 13.48 148.61 13.30 L 148.51 12.82 Z" />
<path fill="#907e4e" opacity="1.00" d=" M 204.21 13.09 C 205.65 11.97 207.27 10.56 209.25 10.98 C 209.29 11.32 209.39 11.99 209.44 12.33 C 207.99 12.99 206.47 13.25 204.86 13.09 L 204.21 13.09 Z" />
<path fill="#907e4e" opacity="1.00" d=" M 48.46 15.85 C 46.33 13.26 50.52 12.34 52.15 13.90 C 50.99 14.68 49.81 15.46 48.46 15.85 Z" />
<path fill="#907e4e" opacity="1.00" d=" M 103.10 15.17 C 103.96 13.09 106.52 12.93 108.34 13.70 C 107.14 14.52 105.87 15.24 104.46 15.62 L 103.56 15.59 L 103.10 15.17 Z" />
<path fill="#907e4e" opacity="1.00" d=" M 158.73 15.41 C 159.92 13.53 162.35 12.90 164.35 13.80 C 162.84 15.19 160.76 15.89 158.73 15.41 Z" />
<path fill="#907e4e" opacity="1.00" d=" M 215.10 15.17 C 215.96 13.09 218.52 12.93 220.34 13.70 C 219.14 14.52 217.87 15.24 216.46 15.62 L 215.56 15.59 L 215.10 15.17 Z" />
</g>
<g id="#515946ff">
<path fill="#515946" opacity="1.00" d=" M 117.53 21.59 C 117.94 18.07 118.27 14.54 118.58 11.00 C 119.97 14.43 121.50 17.83 123.66 20.85 C 123.68 21.30 123.72 22.20 123.75 22.65 L 123.88 23.47 C 121.73 22.94 119.62 22.30 117.53 21.59 Z" />
</g>
<g id="#76644eff">
<path fill="#76644e" opacity="1.00" d=" M 23.44 12.03 C 24.86 12.41 26.29 12.79 27.71 13.17 C 27.54 13.69 27.19 14.74 27.02 15.27 C 26.17 16.64 25.15 18.42 26.21 19.99 C 25.56 20.01 24.26 20.05 23.61 20.07 C 23.69 17.39 23.64 14.71 23.44 12.03 Z" />
</g>
<g id="#5a5851ff">
<path fill="#5a5851" opacity="1.00" d=" M 30.15 17.22 C 30.62 15.51 31.01 13.79 31.44 12.07 C 32.42 12.79 33.42 13.50 34.41 14.21 C 35.40 16.21 36.40 18.20 37.42 20.18 C 36.90 20.41 35.86 20.87 35.34 21.10 C 34.51 20.29 33.67 19.50 32.81 18.72 C 34.29 16.91 32.06 13.99 30.62 16.58 L 30.15 17.22 Z" />
</g>
<g id="#71614dff">
<path fill="#71614d" opacity="1.00" d=" M 79.41 12.04 C 80.93 12.42 82.46 12.80 83.98 13.19 C 83.56 15.09 83.20 17.01 82.85 18.93 C 81.77 18.97 80.70 18.99 79.63 18.99 C 79.68 16.67 79.58 14.35 79.41 12.04 Z" />
<path fill="#71614d" opacity="1.00" d=" M 191.41 12.04 C 192.93 12.42 194.45 12.80 195.98 13.18 C 195.56 15.09 195.20 17.00 194.85 18.92 C 193.77 18.96 192.70 18.98 191.63 18.98 C 191.68 16.67 191.58 14.35 191.41 12.04 Z" />
</g>
<g id="#5b5a53ff">
<path fill="#5b5a53" opacity="1.00" d=" M 86.20 16.35 C 86.71 14.81 87.15 13.24 87.59 11.68 C 88.39 12.66 89.19 13.64 89.98 14.63 C 91.11 16.08 92.20 17.57 93.29 19.06 C 92.68 19.41 91.44 20.12 90.83 20.47 C 90.45 19.48 90.06 18.49 89.66 17.51 C 89.60 16.04 87.66 13.97 86.57 15.87 L 86.20 16.35 Z" />
<path fill="#5b5a53" opacity="1.00" d=" M 198.19 16.35 C 198.71 14.81 199.15 13.24 199.59 11.67 C 200.38 12.66 201.19 13.64 201.98 14.63 C 203.11 16.08 204.20 17.57 205.30 19.06 C 204.68 19.42 203.45 20.13 202.84 20.48 C 202.46 19.49 202.07 18.49 201.66 17.51 C 201.59 16.04 199.67 13.98 198.57 15.87 L 198.19 16.35 Z" />
</g>
<g id="#332e2aff">
<path fill="#332e2a" opacity="1.00" d=" M 34.41 14.21 C 34.87 13.92 35.79 13.34 36.24 13.05 L 36.88 13.05 C 36.91 14.90 36.95 16.75 36.98 18.61 C 37.09 19.00 37.31 19.79 37.42 20.18 C 36.40 18.20 35.40 16.21 34.41 14.21 Z" />
<path fill="#332e2a" opacity="1.00" d=" M 89.98 14.63 C 90.54 14.24 91.65 13.48 92.21 13.09 L 92.86 13.09 C 93.00 15.08 93.14 17.07 93.29 19.06 C 92.20 17.57 91.11 16.08 89.98 14.63 Z" />
<path fill="#332e2a" opacity="1.00" d=" M 146.69 14.77 C 147.14 14.28 148.06 13.31 148.51 12.82 L 148.61 13.30 C 148.89 14.91 149.11 16.54 149.36 18.16 C 148.47 17.03 147.57 15.90 146.69 14.77 Z" />
<path fill="#332e2a" opacity="1.00" d=" M 201.98 14.63 C 202.54 14.24 203.65 13.48 204.21 13.09 L 204.86 13.09 C 205.00 15.08 205.14 17.07 205.30 19.06 C 204.20 17.57 203.11 16.08 201.98 14.63 Z" />
<path fill="#332e2a" opacity="1.00" d=" M 72.56 15.31 C 73.74 14.89 74.93 14.47 76.11 14.05 C 76.16 15.66 76.21 17.27 76.24 18.88 C 75.02 18.88 73.80 18.88 72.59 18.90 C 72.08 18.92 71.06 18.94 70.55 18.96 C 71.24 17.75 71.90 16.53 72.56 15.31 Z" />
<path fill="#332e2a" opacity="1.00" d=" M 126.37 17.24 C 127.96 16.36 129.51 15.42 131.07 14.50 C 131.85 15.42 132.63 16.33 133.44 17.23 C 131.90 17.28 130.37 17.33 128.84 17.32 C 128.22 17.30 126.99 17.26 126.37 17.24 Z" />
<path fill="#332e2a" opacity="1.00" d=" M 184.56 15.31 C 185.74 14.89 186.93 14.47 188.11 14.05 C 188.16 15.66 188.20 17.27 188.24 18.88 C 187.02 18.88 185.80 18.89 184.59 18.91 C 184.08 18.92 183.06 18.95 182.55 18.96 C 183.24 17.75 183.90 16.53 184.56 15.31 Z" />
<path fill="#332e2a" opacity="1.00" d=" M 30.62 16.58 C 32.06 13.99 34.29 16.91 32.81 18.72 C 32.01 18.07 31.28 17.36 30.62 16.58 Z" />
<path fill="#332e2a" opacity="1.00" d=" M 86.57 15.87 C 87.66 13.97 89.60 16.04 89.66 17.51 C 88.42 17.32 87.39 16.77 86.57 15.87 Z" />
<path fill="#332e2a" opacity="1.00" d=" M 198.57 15.87 C 199.67 13.98 201.59 16.04 201.66 17.51 C 200.42 17.32 199.38 16.77 198.57 15.87 Z" />
<path fill="#332e2a" opacity="1.00" d=" M 38.83 17.88 C 38.98 15.74 42.00 16.37 40.49 18.27 L 39.49 18.50 L 38.83 17.88 Z" />
<path fill="#332e2a" opacity="1.00" d=" M 5.74 32.81 C 8.18 32.79 10.63 32.81 13.08 32.90 C 13.11 33.55 13.19 34.86 13.23 35.52 C 13.25 35.88 13.30 36.61 13.32 36.97 C 12.90 37.15 12.06 37.51 11.64 37.69 C 9.35 36.86 8.99 39.97 11.46 39.43 L 11.51 40.35 C 11.57 41.54 11.64 42.73 11.67 43.93 C 11.66 45.10 11.52 46.35 12.05 47.44 C 12.50 48.50 12.98 49.55 13.48 50.59 L 13.86 51.32 C 12.15 51.47 10.44 51.61 8.73 51.80 C 7.67 51.87 6.67 52.15 5.73 52.63 C 5.74 52.39 5.76 51.92 5.76 51.68 C 6.64 50.80 7.56 49.96 8.48 49.12 C 7.45 44.07 6.56 38.99 5.89 33.88 L 5.74 32.81 M 7.02 34.98 C 7.01 35.76 7.00 37.32 6.99 38.11 C 8.75 37.13 10.50 36.15 12.26 35.16 C 10.51 35.10 8.77 35.04 7.02 34.98 Z" />
<path fill="#332e2a" opacity="1.00" d=" M 61.73 32.70 C 64.23 32.83 66.72 33.04 69.21 33.35 L 68.82 34.82 C 68.73 35.12 68.56 35.73 68.47 36.03 C 68.32 36.53 68.03 37.53 67.88 38.03 C 65.98 36.34 64.83 40.00 67.39 39.55 L 67.12 40.43 C 66.64 41.74 67.07 42.61 68.41 43.06 L 68.03 43.66 C 67.12 44.71 67.05 46.22 67.59 47.46 C 67.76 48.42 68.18 49.24 68.84 49.92 L 69.40 50.39 L 69.99 50.90 C 68.24 51.19 66.49 51.47 64.74 51.77 C 63.68 51.91 62.68 52.21 61.73 52.67 C 61.73 52.42 61.75 51.93 61.76 51.69 C 62.64 50.80 63.56 49.96 64.48 49.12 C 63.44 44.06 62.56 38.95 61.90 33.82 L 61.73 32.70 M 63.02 34.98 C 63.01 35.76 63.00 37.32 62.99 38.11 C 64.75 37.13 66.50 36.15 68.26 35.16 C 66.51 35.10 64.77 35.04 63.02 34.98 Z" />
<path fill="#332e2a" opacity="1.00" d=" M 117.74 32.79 C 120.18 32.81 122.63 32.87 125.07 33.00 L 124.86 33.86 C 124.48 35.36 124.07 36.84 123.59 38.31 C 122.40 36.04 120.66 38.79 122.62 39.76 C 123.52 43.26 123.78 46.90 124.77 50.39 L 125.10 51.32 C 123.64 51.47 122.19 51.62 120.73 51.80 C 119.68 51.88 118.67 52.17 117.73 52.64 C 117.74 52.40 117.75 51.92 117.76 51.68 C 118.64 50.80 119.56 49.96 120.48 49.12 C 119.44 44.07 118.56 38.98 117.89 33.86 L 117.74 32.79 M 119.02 34.98 C 119.01 35.76 119.00 37.32 118.99 38.11 C 120.75 37.13 122.50 36.15 124.26 35.16 C 122.51 35.10 120.77 35.04 119.02 34.98 Z" />
<path fill="#332e2a" opacity="1.00" d=" M 173.73 32.71 C 176.23 32.83 178.73 33.02 181.22 33.31 L 180.84 34.65 C 180.75 34.98 180.55 35.65 180.45 35.99 C 180.30 36.49 180.01 37.50 179.86 38.01 C 177.95 36.34 176.83 40.01 179.39 39.54 L 179.11 40.43 C 178.64 41.73 179.08 42.61 180.41 43.06 L 180.04 43.66 C 179.12 44.71 179.06 46.22 179.59 47.47 C 179.75 48.45 180.17 49.28 180.84 49.96 L 181.41 50.45 L 181.99 50.93 C 180.24 51.21 178.48 51.48 176.74 51.77 C 175.68 51.91 174.68 52.20 173.73 52.67 C 173.73 52.42 173.75 51.93 173.76 51.69 C 174.64 50.80 175.56 49.97 176.48 49.12 C 175.44 44.06 174.56 38.96 173.89 33.82 L 173.73 32.71 M 175.02 34.98 C 175.01 35.76 175.00 37.32 174.99 38.11 C 176.75 37.13 178.50 36.15 180.26 35.16 C 178.51 35.10 176.77 35.04 175.02 34.98 Z" />
</g>
<g id="#565148ff">
<path fill="#565148" opacity="1.00" d=" M 36.88 13.05 C 38.49 13.24 40.01 13.00 41.45 12.33 C 41.47 14.46 41.47 16.58 41.64 18.70 L 40.49 18.27 C 42.00 16.37 38.98 15.74 38.83 17.88 C 38.37 18.06 37.44 18.43 36.98 18.61 C 36.95 16.75 36.91 14.90 36.88 13.05 Z" />
</g>
<g id="#505251ff">
<path fill="#505251" opacity="1.00" d=" M 92.86 13.09 C 94.47 13.25 95.99 12.99 97.44 12.33 C 97.57 14.17 97.75 16.01 98.01 17.85 C 97.28 17.91 95.82 18.04 95.09 18.11 C 94.64 18.34 93.74 18.82 93.29 19.06 C 93.14 17.07 93.00 15.08 92.86 13.09 Z" />
<path fill="#505251" opacity="1.00" d=" M 204.86 13.09 C 206.47 13.25 207.99 12.99 209.44 12.33 C 209.57 14.17 209.75 16.01 210.02 17.85 C 209.29 17.91 207.83 18.04 207.10 18.10 C 206.65 18.34 205.75 18.82 205.30 19.06 C 205.14 17.07 205.00 15.08 204.86 13.09 Z" />
</g>
<g id="#515455ff">
<path fill="#515455" opacity="1.00" d=" M 148.61 13.30 C 150.10 13.48 151.50 13.21 152.82 12.47 C 153.18 13.94 153.61 15.40 154.07 16.84 C 153.34 16.93 151.88 17.11 151.15 17.20 C 150.70 17.44 149.81 17.92 149.36 18.16 C 149.11 16.54 148.89 14.91 148.61 13.30 Z" />
</g>
<g id="#322e2aff">
<path fill="#322e2a" opacity="1.00" d=" M 15.97 15.60 C 17.36 15.07 18.74 14.54 20.13 14.01 C 20.19 15.79 20.24 17.57 20.29 19.35 C 19.05 19.60 17.82 19.85 16.58 20.09 C 16.01 20.20 14.87 20.42 14.30 20.52 C 14.89 18.89 15.43 17.25 15.97 15.60 Z" />
</g>
<g id="#4679c9ff">
<path fill="#4679c9" opacity="1.00" d=" M 139.02 18.25 C 140.31 16.99 141.62 15.74 142.93 14.50 C 143.63 15.30 144.33 16.11 145.01 16.92 C 145.68 17.77 146.34 18.62 146.99 19.49 C 146.72 19.66 146.16 20.00 145.89 20.17 C 148.52 19.92 151.23 19.81 153.86 19.45 C 153.83 20.15 153.76 21.56 153.72 22.26 C 149.52 24.78 144.55 24.98 139.85 25.69 C 136.18 25.85 131.73 27.76 128.50 25.04 C 127.62 24.47 125.87 23.34 124.99 22.77 C 125.47 22.54 126.42 22.07 126.90 21.84 C 133.03 22.87 139.21 22.04 145.14 20.37 C 144.21 19.48 143.28 18.59 142.35 17.70 C 141.00 18.12 139.64 18.53 138.28 18.91 L 138.55 18.72 L 139.02 18.25 Z" />
</g>
<g id="#3a7dcfff">
<path fill="#3a7dcf" opacity="1.00" d=" M 154.32 17.60 C 154.18 16.30 154.81 15.57 156.20 15.41 C 156.17 15.83 156.12 16.68 156.09 17.10 C 155.65 17.22 154.76 17.48 154.32 17.60 Z" />
<path fill="#3a7dcf" opacity="1.00" d=" M 98.14 18.62 C 97.89 17.26 98.47 16.57 99.88 16.55 C 99.87 16.96 99.83 17.79 99.82 18.20 C 99.40 18.30 98.56 18.51 98.14 18.62 Z" />
<path fill="#3a7dcf" opacity="1.00" d=" M 210.14 18.62 C 209.90 17.26 210.48 16.57 211.90 16.57 C 211.88 16.98 211.84 17.80 211.82 18.21 C 211.40 18.32 210.56 18.52 210.14 18.62 Z" />
<path fill="#3a7dcf" opacity="1.00" d=" M 41.97 19.50 C 41.88 18.19 42.52 17.53 43.90 17.52 C 43.87 17.93 43.81 18.74 43.78 19.14 C 43.33 19.23 42.42 19.41 41.97 19.50 Z" />
</g>
<g id="#8d9fbaff">
<path fill="#8d9fba" opacity="1.00" d=" M 156.20 15.41 C 156.57 15.33 157.30 15.15 157.67 15.07 C 158.23 15.89 158.62 16.79 158.84 17.77 L 158.31 18.08 L 157.56 18.26 C 157.19 17.97 156.46 17.39 156.09 17.10 C 156.12 16.68 156.17 15.83 156.20 15.41 Z" />
<path fill="#8d9fba" opacity="1.00" d=" M 99.88 16.55 C 100.24 16.58 100.96 16.63 101.32 16.65 C 102.06 17.31 102.61 18.10 102.96 19.02 L 102.37 19.30 L 101.48 19.43 C 101.06 19.12 100.23 18.51 99.82 18.20 C 99.83 17.79 99.87 16.96 99.88 16.55 Z" />
<path fill="#8d9fba" opacity="1.00" d=" M 211.90 16.57 C 212.25 16.60 212.97 16.65 213.33 16.67 C 214.06 17.34 214.60 18.13 214.95 19.06 L 214.36 19.34 L 213.47 19.47 C 213.06 19.16 212.24 18.53 211.82 18.21 C 211.84 17.80 211.88 16.98 211.90 16.57 Z" />
<path fill="#8d9fba" opacity="1.00" d=" M 43.90 17.52 C 44.25 17.50 44.95 17.46 45.30 17.44 C 46.00 18.15 46.53 18.98 46.86 19.92 L 46.30 20.21 L 45.45 20.35 C 45.03 20.05 44.20 19.45 43.78 19.14 C 43.81 18.74 43.87 17.93 43.90 17.52 Z" />
</g>
<g id="#3e84ceff">
<path fill="#3e84ce" opacity="1.00" d=" M 157.67 15.07 L 158.73 15.41 C 160.59 16.00 162.48 16.48 164.39 16.90 C 162.53 17.10 160.67 17.39 158.84 17.77 C 158.62 16.79 158.23 15.89 157.67 15.07 Z" />
<path fill="#3e84ce" opacity="1.00" d=" M 101.32 16.65 C 101.87 16.78 102.97 17.03 103.52 17.15 C 104.09 17.13 105.22 17.09 105.79 17.07 C 106.66 17.29 107.53 17.51 108.40 17.73 C 106.56 18.07 104.75 18.50 102.96 19.02 C 102.61 18.10 102.06 17.31 101.32 16.65 Z" />
<path fill="#3e84ce" opacity="1.00" d=" M 213.33 16.67 C 213.87 16.79 214.97 17.04 215.52 17.16 C 216.09 17.14 217.22 17.09 217.79 17.07 C 218.68 17.29 219.57 17.51 220.46 17.71 C 218.60 18.07 216.76 18.52 214.95 19.06 C 214.60 18.13 214.06 17.34 213.33 16.67 Z" />
<path fill="#3e84ce" opacity="1.00" d=" M 45.30 17.44 C 46.07 17.44 47.61 17.43 48.38 17.43 C 48.71 17.57 49.37 17.86 49.70 18.01 C 50.21 18.24 51.25 18.71 51.76 18.95 L 52.29 19.20 C 50.47 19.37 48.66 19.60 46.86 19.92 C 46.53 18.98 46.00 18.15 45.30 17.44 Z" />
</g>
<g id="#4379caff">
<path fill="#4379ca" opacity="1.00" d=" M 86.20 16.35 L 86.57 15.87 C 87.39 16.77 88.42 17.32 89.66 17.51 C 90.06 18.49 90.45 19.48 90.83 20.47 C 90.57 20.65 90.06 21.00 89.80 21.17 C 92.41 20.95 95.09 20.91 97.70 20.55 C 97.73 21.26 97.79 22.69 97.82 23.40 C 89.63 25.80 78.95 23.68 73.42 31.68 C 77.18 32.87 80.78 35.24 84.82 35.35 C 87.62 34.12 89.77 31.84 92.12 29.96 C 92.68 31.43 93.26 32.90 93.84 34.37 C 86.44 36.62 83.29 43.91 79.22 49.70 C 77.88 49.48 76.54 49.26 75.20 49.05 C 78.69 45.66 81.30 41.49 83.06 36.95 C 79.23 36.50 75.40 36.02 71.54 36.07 C 70.77 36.06 69.24 36.04 68.47 36.03 C 68.56 35.73 68.73 35.12 68.82 34.82 C 73.31 34.24 74.26 29.63 75.97 26.14 C 74.86 25.80 73.76 25.45 72.66 25.10 C 71.81 24.82 70.11 24.26 69.26 23.98 C 69.70 23.77 70.59 23.34 71.03 23.12 C 76.98 23.64 82.92 23.01 88.69 21.44 C 88.65 20.68 88.61 19.92 88.57 19.16 C 87.21 18.95 85.84 18.75 84.48 18.55 C 85.07 17.83 85.64 17.10 86.20 16.35 Z" />
</g>
<g id="#508bc7ff">
<path fill="#508bc7" opacity="1.00" d=" M 165.31 17.08 C 165.73 15.77 166.59 15.40 167.88 15.98 L 167.86 16.73 C 167.22 16.82 165.95 16.99 165.31 17.08 Z" />
<path fill="#508bc7" opacity="1.00" d=" M 109.30 17.94 C 109.75 16.64 110.61 16.31 111.87 16.93 L 111.86 17.68 C 111.22 17.74 109.94 17.87 109.30 17.94 Z" />
<path fill="#508bc7" opacity="1.00" d=" M 221.42 17.92 C 221.86 16.62 222.72 16.28 224.00 16.89 L 224.00 17.61 C 223.35 17.69 222.06 17.84 221.42 17.92 Z" />
</g>
<g id="#4377c9ff">
<path fill="#4377c9" opacity="1.00" d=" M 198.19 16.35 L 198.57 15.87 C 199.38 16.77 200.42 17.32 201.66 17.51 C 202.07 18.49 202.46 19.49 202.84 20.48 C 202.57 20.67 202.05 21.04 201.79 21.23 C 204.40 20.93 207.12 20.79 209.75 20.36 C 209.17 21.51 209.34 22.45 210.26 23.17 C 211.94 23.19 211.21 20.87 210.36 20.24 C 211.39 19.98 212.43 19.72 213.47 19.47 L 214.36 19.34 C 213.44 19.78 212.52 20.23 211.61 20.68 C 215.74 20.89 219.87 20.94 224.00 20.88 L 224.00 26.60 C 222.23 26.69 218.70 26.86 216.93 26.95 C 218.08 27.72 219.23 28.50 220.39 29.28 C 218.30 31.91 216.35 34.68 213.90 36.99 C 211.83 39.27 208.26 35.90 206.02 36.59 C 206.01 35.72 205.99 33.98 205.98 33.10 C 208.57 33.00 211.16 32.91 213.75 32.81 C 214.12 31.10 214.50 29.39 214.88 27.69 C 208.45 27.48 202.02 27.31 195.58 27.36 C 197.81 26.24 200.06 25.15 202.29 24.01 C 196.28 24.83 190.01 26.32 185.78 30.98 C 188.62 32.78 191.48 34.56 194.32 36.36 C 196.89 33.87 199.42 31.32 201.96 28.80 C 202.98 31.15 204.00 33.50 205.05 35.85 C 202.23 35.94 199.41 36.03 196.59 36.12 C 196.37 38.94 196.18 41.76 196.23 44.59 C 194.33 46.12 192.52 47.74 190.79 49.46 C 189.59 49.33 188.39 49.20 187.19 49.08 C 190.70 45.64 193.34 41.44 195.07 36.86 C 191.27 36.52 187.48 36.08 183.66 36.10 C 182.86 36.07 181.26 36.01 180.45 35.99 C 180.55 35.65 180.75 34.98 180.84 34.65 C 182.52 34.17 184.22 33.70 185.79 32.93 C 185.27 30.80 184.67 28.69 184.00 26.61 C 183.56 25.33 183.07 24.07 182.66 22.79 C 188.71 23.87 194.81 23.04 200.69 21.43 C 200.64 20.67 200.60 19.92 200.57 19.16 C 199.20 18.95 197.84 18.74 196.47 18.53 C 197.06 17.82 197.63 17.09 198.19 16.35 Z" />
</g>
<g id="#4376c9ff">
<path fill="#4376c9" opacity="1.00" d=" M 30.15 17.22 L 30.62 16.58 C 31.28 17.36 32.01 18.07 32.81 18.72 C 33.67 19.50 34.51 20.29 35.34 21.10 C 34.93 21.31 34.12 21.73 33.71 21.94 C 36.37 21.75 39.08 21.75 41.73 21.39 C 41.16 22.55 41.34 23.48 42.26 24.18 C 43.95 24.19 43.21 21.88 42.34 21.25 C 43.38 20.95 44.41 20.65 45.45 20.35 L 46.30 20.21 C 45.40 20.70 44.51 21.19 43.62 21.68 C 47.67 21.90 51.73 21.93 55.79 21.91 C 55.77 22.40 55.72 23.37 55.70 23.86 C 55.68 24.41 55.65 25.50 55.64 26.05 C 53.00 29.53 52.22 33.92 50.40 37.79 C 48.46 39.24 45.77 39.19 43.49 39.79 C 45.14 37.25 46.98 34.84 48.88 32.48 C 47.98 31.15 47.09 29.81 46.21 28.47 C 47.17 27.96 48.14 27.46 49.11 26.95 C 41.74 27.81 34.28 29.18 26.90 27.62 C 23.01 26.86 20.55 30.47 18.37 33.01 C 21.46 33.65 24.47 35.27 27.68 35.24 C 30.78 34.73 33.56 33.15 36.45 32.02 C 31.36 37.83 28.40 45.19 22.58 50.40 C 21.80 48.96 21.01 47.52 20.23 46.08 C 23.04 44.49 25.76 42.74 28.35 40.82 C 24.56 38.56 20.44 36.96 16.40 35.21 C 15.57 34.76 14.72 34.40 13.83 34.12 C 13.99 33.72 14.33 32.90 14.49 32.50 C 15.56 29.77 16.05 26.79 15.44 23.90 C 21.23 25.09 27.06 23.79 32.69 22.43 C 32.65 21.67 32.61 20.92 32.57 20.17 C 31.20 19.94 29.82 19.72 28.45 19.50 C 29.04 18.75 29.60 17.99 30.15 17.22 Z" />
</g>
<g id="#719bc2ff">
<path fill="#719bc2" opacity="1.00" d=" M 51.76 18.95 C 52.35 17.19 54.63 16.53 56.01 17.81 L 55.97 18.43 C 54.80 18.95 53.58 19.21 52.29 19.20 L 51.76 18.95 Z" />
</g>
<g id="#2e88d3ff">
<path fill="#2e88d3" opacity="1.00" d=" M 125.71 17.27 L 126.37 17.24 C 126.99 17.26 128.22 17.30 128.84 17.32 C 130.98 17.59 133.12 17.88 135.27 18.20 C 136.36 18.38 137.45 18.55 138.55 18.72 L 138.28 18.91 C 134.51 19.99 130.51 20.25 126.90 21.84 C 126.42 22.07 125.47 22.54 124.99 22.77 C 125.87 23.34 127.62 24.47 128.50 25.04 C 127.29 27.45 126.16 29.90 125.21 32.42 C 125.14 31.82 124.99 30.64 124.91 30.05 C 124.59 27.85 124.22 25.66 123.88 23.47 L 123.75 22.65 C 124.89 22.09 125.43 21.18 125.36 19.91 C 125.45 19.25 125.62 17.93 125.71 17.27 Z" />
</g>
<g id="#8fa8baff">
<path fill="#8fa8ba" opacity="1.00" d=" M 128.84 17.32 C 130.37 17.33 131.90 17.28 133.44 17.23 C 133.89 17.47 134.81 17.96 135.27 18.20 C 133.12 17.88 130.98 17.59 128.84 17.32 Z" />
<path fill="#8fa8ba" opacity="1.00" d=" M 72.59 18.90 C 73.80 18.88 75.02 18.88 76.24 18.88 C 77.37 18.91 78.50 18.94 79.63 18.99 C 77.28 18.97 74.93 18.94 72.59 18.90 Z" />
<path fill="#8fa8ba" opacity="1.00" d=" M 184.59 18.91 C 185.80 18.89 187.02 18.88 188.24 18.88 C 189.36 18.91 190.49 18.94 191.63 18.98 C 189.27 18.97 186.93 18.94 184.59 18.91 Z" />
<path fill="#8fa8ba" opacity="1.00" d=" M 16.58 20.09 C 17.82 19.85 19.05 19.60 20.29 19.35 C 21.40 19.59 22.50 19.83 23.61 20.07 C 21.26 20.08 18.92 20.09 16.58 20.09 Z" />
</g>
<g id="#64569dff">
<path fill="#64569d" opacity="1.00" d=" M 138.28 18.91 C 139.64 18.53 141.00 18.12 142.35 17.70 C 143.28 18.59 144.21 19.48 145.14 20.37 C 139.21 22.04 133.03 22.87 126.90 21.84 C 130.51 20.25 134.51 19.99 138.28 18.91 Z" />
</g>
<g id="#86a0b1ff">
<path fill="#86a0b1" opacity="1.00" d=" M 151.15 17.20 C 151.88 17.11 153.34 16.93 154.07 16.84 L 154.32 17.60 C 153.20 18.10 152.14 17.97 151.15 17.20 Z" />
<path fill="#86a0b1" opacity="1.00" d=" M 95.09 18.11 C 95.82 18.04 97.28 17.91 98.01 17.85 L 98.14 18.62 C 97.03 19.07 96.01 18.90 95.09 18.11 Z" />
<path fill="#86a0b1" opacity="1.00" d=" M 207.10 18.10 C 207.83 18.04 209.29 17.91 210.02 17.85 L 210.14 18.62 C 209.03 19.07 208.01 18.90 207.10 18.10 Z" />
<path fill="#86a0b1" opacity="1.00" d=" M 39.49 18.50 L 40.49 18.27 L 41.64 18.70 L 41.97 19.50 C 41.04 19.83 40.13 19.78 39.24 19.36 L 39.49 18.50 Z" />
<path fill="#86a0b1" opacity="1.00" d=" M 153.86 19.45 L 154.44 19.34 C 155.15 20.53 155.22 21.77 154.64 23.04 C 154.41 22.84 153.95 22.46 153.72 22.26 C 153.76 21.56 153.83 20.15 153.86 19.45 Z" />
<path fill="#86a0b1" opacity="1.00" d=" M 97.70 20.55 L 98.30 20.38 C 99.10 21.17 99.37 22.10 99.11 23.18 C 98.79 23.23 98.15 23.34 97.82 23.40 C 97.79 22.69 97.73 21.26 97.70 20.55 Z" />
<path fill="#86a0b1" opacity="1.00" d=" M 209.75 20.36 L 210.36 20.24 C 211.21 20.87 211.94 23.19 210.26 23.17 C 209.34 22.45 209.17 21.51 209.75 20.36 Z" />
<path fill="#86a0b1" opacity="1.00" d=" M 41.73 21.39 L 42.34 21.25 C 43.21 21.88 43.95 24.19 42.26 24.18 C 41.34 23.48 41.16 22.55 41.73 21.39 Z" />
<path fill="#86a0b1" opacity="1.00" d=" M 68.03 43.66 C 68.49 44.06 69.41 44.87 69.87 45.27 C 69.29 46.17 68.53 46.90 67.59 47.46 C 67.05 46.22 67.12 44.71 68.03 43.66 Z" />
<path fill="#86a0b1" opacity="1.00" d=" M 180.04 43.66 C 180.49 44.06 181.41 44.88 181.87 45.28 C 181.29 46.19 180.53 46.91 179.59 47.47 C 179.06 46.22 179.12 44.71 180.04 43.66 Z" />
</g>
<g id="#63579eff">
<path fill="#63579e" opacity="1.00" d=" M 154.32 17.60 C 154.76 17.48 155.65 17.22 156.09 17.10 C 156.46 17.39 157.19 17.97 157.56 18.26 C 156.52 18.62 155.48 18.98 154.44 19.34 L 153.86 19.45 C 151.23 19.81 148.52 19.92 145.89 20.17 C 146.16 20.00 146.72 19.66 146.99 19.49 C 147.59 19.15 148.77 18.49 149.36 18.16 C 149.81 17.92 150.70 17.44 151.15 17.20 C 152.14 17.97 153.20 18.10 154.32 17.60 Z" />
<path fill="#63579e" opacity="1.00" d=" M 98.14 18.62 C 98.56 18.51 99.40 18.30 99.82 18.20 C 100.23 18.51 101.06 19.12 101.48 19.43 C 100.42 19.74 99.36 20.05 98.30 20.38 L 97.70 20.55 C 95.09 20.91 92.41 20.95 89.80 21.17 C 90.06 21.00 90.57 20.65 90.83 20.47 C 91.44 20.12 92.68 19.41 93.29 19.06 C 93.74 18.82 94.64 18.34 95.09 18.11 C 96.01 18.90 97.03 19.07 98.14 18.62 Z" />
<path fill="#63579e" opacity="1.00" d=" M 210.14 18.62 C 210.56 18.52 211.40 18.32 211.82 18.21 C 212.24 18.53 213.06 19.16 213.47 19.47 C 212.43 19.72 211.39 19.98 210.36 20.24 L 209.75 20.36 C 207.12 20.79 204.40 20.93 201.79 21.23 C 202.05 21.04 202.57 20.67 202.84 20.48 C 203.45 20.13 204.68 19.42 205.30 19.06 C 205.75 18.82 206.65 18.34 207.10 18.10 C 208.01 18.90 209.03 19.07 210.14 18.62 Z" />
<path fill="#63579e" opacity="1.00" d=" M 41.97 19.50 C 42.42 19.41 43.33 19.23 43.78 19.14 C 44.20 19.45 45.03 20.05 45.45 20.35 C 44.41 20.65 43.38 20.95 42.34 21.25 L 41.73 21.39 C 39.08 21.75 36.37 21.75 33.71 21.94 C 34.12 21.73 34.93 21.31 35.34 21.10 C 35.86 20.87 36.90 20.41 37.42 20.18 C 37.88 19.97 38.79 19.57 39.24 19.36 C 40.13 19.78 41.04 19.83 41.97 19.50 Z" />
</g>
<g id="#65569cff">
<path fill="#65569c" opacity="1.00" d=" M 158.84 17.77 C 160.67 17.39 162.53 17.10 164.39 16.90 L 165.31 17.08 C 165.95 16.99 167.22 16.82 167.86 16.73 C 167.86 17.52 167.87 19.11 167.87 19.90 C 163.79 19.93 159.71 19.90 155.64 19.72 C 156.52 19.17 157.41 18.62 158.31 18.08 L 158.84 17.77 Z" />
<path fill="#65569c" opacity="1.00" d=" M 102.96 19.02 C 104.75 18.50 106.56 18.07 108.40 17.73 L 109.30 17.94 C 109.94 17.87 111.22 17.74 111.86 17.68 C 111.87 18.49 111.87 20.10 111.88 20.90 C 107.78 20.94 103.69 20.90 99.61 20.66 C 100.52 20.20 101.44 19.74 102.37 19.30 L 102.96 19.02 Z" />
<path fill="#65569c" opacity="1.00" d=" M 214.95 19.06 C 216.76 18.52 218.60 18.07 220.46 17.71 L 221.42 17.92 C 222.06 17.84 223.35 17.69 224.00 17.61 L 224.00 20.88 C 219.87 20.94 215.74 20.89 211.61 20.68 C 212.52 20.23 213.44 19.78 214.36 19.34 L 214.95 19.06 Z" />
<path fill="#65569c" opacity="1.00" d=" M 46.86 19.92 C 48.66 19.60 50.47 19.37 52.29 19.20 C 53.58 19.21 54.80 18.95 55.97 18.43 C 55.93 19.30 55.84 21.04 55.79 21.91 C 51.73 21.93 47.67 21.90 43.62 21.68 C 44.51 21.19 45.40 20.70 46.30 20.21 L 46.86 19.92 Z" />
</g>
<g id="#3d7bceff">
<path fill="#3d7bce" opacity="1.00" d=" M 36.98 18.61 C 37.44 18.43 38.37 18.06 38.83 17.88 L 39.49 18.50 L 39.24 19.36 C 38.79 19.57 37.88 19.97 37.42 20.18 C 37.31 19.79 37.09 19.00 36.98 18.61 Z" />
</g>
<g id="#675a9dff">
<path fill="#675a9d" opacity="1.00" d=" M 84.48 18.55 C 85.84 18.75 87.21 18.95 88.57 19.16 C 88.61 19.92 88.65 20.68 88.69 21.44 C 82.92 23.01 76.98 23.64 71.03 23.12 C 71.28 23.02 71.78 22.80 72.04 22.70 C 75.94 21.38 80.07 20.64 83.81 18.85 L 84.48 18.55 Z" />
<path fill="#675a9d" opacity="1.00" d=" M 196.47 18.53 C 197.84 18.74 199.20 18.95 200.57 19.16 C 200.60 19.92 200.64 20.67 200.69 21.43 C 194.81 23.04 188.71 23.87 182.66 22.79 C 187.04 21.51 191.70 20.94 195.81 18.85 L 196.47 18.53 Z" />
<path fill="#675a9d" opacity="1.00" d=" M 28.45 19.50 C 29.82 19.72 31.20 19.94 32.57 20.17 C 32.61 20.92 32.65 21.67 32.69 22.43 C 27.06 23.79 21.23 25.09 15.44 23.90 C 15.39 23.66 15.30 23.18 15.25 22.94 C 19.47 22.26 23.99 22.04 27.78 19.84 L 28.45 19.50 Z" />
</g>
<g id="#4476caff">
<path fill="#4476ca" opacity="1.00" d=" M 154.44 19.34 C 155.48 18.98 156.52 18.62 157.56 18.26 L 158.31 18.08 C 157.41 18.62 156.52 19.17 155.64 19.72 C 159.71 19.90 163.79 19.93 167.87 19.90 C 167.89 21.26 167.92 22.63 167.94 24.00 C 167.94 24.56 167.95 25.69 167.96 26.25 C 164.02 25.73 160.11 25.21 156.22 24.45 C 155.82 24.09 155.03 23.39 154.64 23.04 C 155.22 21.77 155.15 20.53 154.44 19.34 Z" />
</g>
<g id="#2f85d0ff">
<path fill="#2f85d0" opacity="1.00" d=" M 69.95 19.04 L 70.55 18.96 C 71.06 18.94 72.08 18.92 72.59 18.90 C 74.93 18.94 77.28 18.97 79.63 18.99 C 80.70 18.99 81.77 18.97 82.85 18.93 L 83.81 18.85 C 80.07 20.64 75.94 21.38 72.04 22.70 C 71.78 22.80 71.28 23.02 71.03 23.12 C 70.59 23.34 69.70 23.77 69.26 23.98 C 70.11 24.26 71.81 24.82 72.66 25.10 C 71.44 27.45 70.35 29.86 69.47 32.36 C 68.87 29.36 68.31 26.36 67.75 23.35 C 69.07 23.03 69.62 22.14 69.42 20.68 L 69.68 19.88 L 69.95 19.04 Z" />
<path fill="#2f85d0" opacity="1.00" d=" M 181.95 19.04 L 182.55 18.96 C 183.06 18.95 184.08 18.92 184.59 18.91 C 186.93 18.94 189.27 18.97 191.63 18.98 C 192.70 18.98 193.77 18.96 194.85 18.92 L 195.81 18.85 C 191.70 20.94 187.04 21.51 182.66 22.79 C 183.07 24.07 183.56 25.33 184.00 26.61 C 183.08 28.50 182.20 30.41 181.48 32.38 C 180.87 29.37 180.30 26.35 179.75 23.33 C 181.06 23.02 181.62 22.14 181.43 20.68 L 181.68 19.88 L 181.95 19.04 Z" />
</g>
<g id="#4376cafe">
<path fill="#4376ca" opacity="1.00" d=" M 98.30 20.38 C 99.36 20.05 100.42 19.74 101.48 19.43 L 102.37 19.30 C 101.44 19.74 100.52 20.20 99.61 20.66 C 103.69 20.90 107.78 20.94 111.88 20.90 C 111.89 21.66 111.91 23.16 111.93 23.91 C 111.94 24.73 111.97 26.36 111.98 27.18 C 106.86 27.46 101.74 27.51 96.63 27.03 L 102.39 25.46 C 101.30 24.69 100.20 23.94 99.11 23.18 C 99.37 22.10 99.10 21.17 98.30 20.38 Z" />
</g>
<g id="#67965dff">
<path fill="#67965d" opacity="1.00" d=" M 1.29 20.54 C 2.07 19.37 4.15 20.65 3.32 21.85 C 2.53 23.04 0.43 21.76 1.29 20.54 Z" />
<path fill="#67965d" opacity="1.00" d=" M 57.29 20.54 C 58.07 19.37 60.15 20.65 59.32 21.85 C 58.53 23.04 56.43 21.76 57.29 20.54 Z" />
<path fill="#67965d" opacity="1.00" d=" M 113.29 20.54 C 114.07 19.37 116.15 20.65 115.32 21.85 C 114.53 23.04 112.43 21.76 113.29 20.54 Z" />
<path fill="#67965d" opacity="1.00" d=" M 169.29 20.54 C 170.07 19.37 172.15 20.65 171.32 21.85 C 170.53 23.04 168.43 21.76 169.29 20.54 Z" />
</g>
<g id="#6c5e4cff">
<path fill="#6c5e4c" opacity="1.00" d=" M 9.38 19.68 C 10.63 20.08 11.87 20.50 13.10 20.96 C 13.33 21.21 13.79 21.71 14.02 21.96 C 13.46 22.35 12.34 23.13 11.78 23.52 C 11.33 23.39 10.41 23.13 9.95 23.00 C 9.77 21.89 9.58 20.78 9.38 19.68 Z" />
</g>
<g id="#3183cefe">
<path fill="#3183ce" opacity="1.00" d=" M 13.10 20.96 L 14.30 20.52 C 14.87 20.42 16.01 20.20 16.58 20.09 C 18.92 20.09 21.26 20.08 23.61 20.07 C 24.26 20.05 25.56 20.01 26.21 19.99 L 26.85 19.94 L 27.78 19.84 C 23.99 22.04 19.47 22.26 15.25 22.94 C 15.30 23.18 15.39 23.66 15.44 23.90 C 16.05 26.79 15.56 29.77 14.49 32.50 C 13.90 30.93 13.29 29.37 12.75 27.79 C 12.47 26.60 12.20 25.42 11.94 24.23 C 13.42 25.46 15.72 23.22 14.02 21.96 C 13.79 21.71 13.33 21.21 13.10 20.96 Z" />
</g>
<g id="#6e5f4cff">
<path fill="#6e5f4c" opacity="1.00" d=" M 65.38 20.24 C 66.81 20.12 68.25 20.00 69.68 19.88 L 69.42 20.68 C 68.03 21.13 67.48 22.02 67.75 23.35 C 67.31 23.23 66.43 23.00 65.99 22.89 C 65.80 22.00 65.59 21.12 65.38 20.24 Z" />
<path fill="#6e5f4c" opacity="1.00" d=" M 177.38 20.24 C 178.81 20.12 180.25 20.00 181.68 19.88 L 181.43 20.68 C 180.03 21.12 179.48 22.01 179.75 23.33 C 179.31 23.22 178.43 23.01 177.99 22.90 C 177.79 22.01 177.59 21.12 177.38 20.24 Z" />
</g>
<g id="#adc2d9ff">
<path fill="#adc2d9" opacity="1.00" d=" M 123.66 20.85 C 124.08 20.61 124.93 20.14 125.36 19.91 C 125.43 21.18 124.89 22.09 123.75 22.65 C 123.72 22.20 123.68 21.30 123.66 20.85 Z" />
<path fill="#adc2d9" opacity="1.00" d=" M 67.75 23.35 C 67.48 22.02 68.03 21.13 69.42 20.68 C 69.62 22.14 69.07 23.03 67.75 23.35 Z" />
<path fill="#adc2d9" opacity="1.00" d=" M 179.75 23.33 C 179.48 22.01 180.03 21.12 181.43 20.68 C 181.62 22.14 181.06 23.02 179.75 23.33 Z" />
</g>
<g id="#332f2aff">
<path fill="#332f2a" opacity="1.00" d=" M 5.41 21.60 C 6.92 22.08 8.43 22.56 9.95 23.00 C 10.41 23.13 11.33 23.39 11.78 23.52 L 11.94 24.23 C 12.20 25.42 12.47 26.60 12.75 27.79 C 12.79 28.34 12.88 29.46 12.92 30.01 C 11.36 29.15 9.80 28.30 8.23 27.46 C 8.78 28.50 9.33 29.54 9.88 30.58 C 8.30 30.11 6.73 29.64 5.17 29.13 C 5.14 29.01 5.10 28.77 5.07 28.66 C 6.73 28.28 8.43 26.43 7.09 24.80 C 6.95 24.57 6.69 24.12 6.55 23.89 C 6.27 23.32 5.69 22.18 5.41 21.60 Z" />
</g>
<g id="#3f3f3eff">
<path fill="#3f3f3e" opacity="1.00" d=" M 61.51 21.59 C 63.00 22.04 64.49 22.49 65.99 22.89 C 66.43 23.00 67.31 23.23 67.75 23.35 C 68.31 26.36 68.87 29.36 69.47 32.36 C 68.01 30.48 66.40 28.72 64.73 27.02 C 65.06 28.23 65.39 29.44 65.72 30.65 C 64.20 30.15 62.67 29.66 61.17 29.12 C 61.15 29.00 61.10 28.77 61.08 28.66 C 62.75 28.29 64.38 26.43 63.10 24.79 C 62.97 24.56 62.72 24.10 62.59 23.88 C 62.32 23.30 61.78 22.16 61.51 21.59 Z" />
<path fill="#3f3f3e" opacity="1.00" d=" M 173.41 21.63 C 174.93 22.07 176.45 22.51 177.99 22.90 C 178.43 23.01 179.31 23.22 179.75 23.33 C 180.30 26.35 180.87 29.37 181.48 32.38 C 180.02 30.49 178.40 28.73 176.73 27.02 C 177.06 28.23 177.39 29.44 177.72 30.65 C 176.20 30.15 174.67 29.66 173.17 29.11 C 173.15 29.00 173.10 28.77 173.08 28.65 C 174.74 28.28 176.44 26.42 175.08 24.80 C 174.95 24.57 174.68 24.12 174.54 23.89 C 174.26 23.33 173.69 22.20 173.41 21.63 Z" />
</g>
<g id="#373837ff">
<path fill="#373837" opacity="1.00" d=" M 117.53 21.59 C 119.62 22.30 121.73 22.94 123.88 23.47 C 124.22 25.66 124.59 27.85 124.91 30.05 C 123.36 29.17 121.80 28.30 120.23 27.45 C 120.78 28.49 121.33 29.54 121.89 30.58 C 120.31 30.11 118.72 29.64 117.16 29.12 C 117.14 29.01 117.09 28.78 117.07 28.67 C 118.75 28.29 120.37 26.44 119.10 24.79 C 118.98 24.56 118.73 24.10 118.61 23.87 C 118.34 23.30 117.80 22.16 117.53 21.59 Z" />
</g>
<g id="#9db4c9ff">
<path fill="#9db4c9" opacity="1.00" d=" M 11.78 23.52 C 12.34 23.13 13.46 22.35 14.02 21.96 C 15.72 23.22 13.42 25.46 11.94 24.23 L 11.78 23.52 Z" />
</g>
<g id="#3c6bbfff">
<path fill="#3c6bbf" opacity="1.00" d=" M 153.72 22.26 C 153.95 22.46 154.41 22.84 154.64 23.04 C 155.03 23.39 155.82 24.09 156.22 24.45 C 160.11 25.21 164.02 25.73 167.96 26.25 C 167.97 32.17 167.88 38.09 167.88 44.01 C 162.05 44.20 156.19 44.25 150.43 45.25 C 147.66 45.63 144.95 46.36 142.29 47.20 C 145.59 47.33 148.89 46.95 152.19 46.89 C 150.78 48.16 149.35 49.42 147.91 50.67 C 145.04 50.79 142.19 50.85 139.33 50.93 C 137.48 49.00 135.63 47.07 133.86 45.07 C 132.87 45.92 131.88 46.78 130.89 47.64 C 133.68 48.81 136.49 49.90 139.29 51.02 C 134.90 50.92 130.52 50.85 126.14 50.51 L 124.77 50.39 C 125.88 48.42 127.12 46.53 128.47 44.73 C 127.03 44.65 125.59 44.57 124.15 44.49 C 125.29 41.24 126.58 38.03 128.10 34.94 C 127.02 34.58 125.94 34.22 124.86 33.86 L 125.07 33.00 L 125.21 32.42 C 126.16 29.90 127.29 27.45 128.50 25.04 C 131.73 27.76 136.18 25.85 139.85 25.69 C 139.51 27.38 140.12 28.03 141.68 27.64 C 142.16 26.12 141.55 25.47 139.85 25.69 C 144.55 24.98 149.52 24.78 153.72 22.26 M 158.28 32.81 C 155.64 32.86 152.99 32.63 150.37 32.96 L 150.49 32.29 C 149.12 28.80 145.78 31.72 143.54 32.46 C 139.23 35.13 134.21 32.57 129.85 31.26 C 129.50 32.17 129.16 33.08 128.81 33.98 C 132.11 35.48 136.12 35.74 138.90 38.20 C 138.54 41.18 137.26 43.95 136.44 46.82 C 139.80 43.83 141.26 39.43 144.12 36.08 C 149.69 33.16 156.13 35.11 161.93 36.02 C 162.18 33.08 162.47 30.15 162.69 27.21 C 161.05 28.93 159.57 30.81 158.28 32.81 Z" />
<path fill="#3c6bbf" opacity="1.00" d=" M 97.82 23.40 C 98.15 23.34 98.79 23.23 99.11 23.18 C 100.20 23.94 101.30 24.69 102.39 25.46 L 96.63 27.03 C 101.74 27.51 106.86 27.46 111.98 27.18 C 112.04 34.77 112.07 42.37 112.01 49.97 C 107.91 49.70 103.81 49.38 99.70 49.43 C 99.29 49.46 98.48 49.54 98.07 49.58 C 93.54 50.13 88.99 50.44 84.45 50.82 C 79.76 50.96 75.06 50.98 70.38 50.54 L 69.40 50.39 L 68.84 49.92 C 69.94 48.70 71.10 46.81 69.87 45.27 C 69.41 44.87 68.49 44.06 68.03 43.66 L 68.41 43.06 C 69.20 41.90 69.16 40.74 68.29 39.58 C 69.41 38.44 70.47 37.25 71.54 36.07 C 75.40 36.02 79.23 36.50 83.06 36.95 C 81.30 41.49 78.69 45.66 75.20 49.05 C 76.54 49.26 77.88 49.48 79.22 49.70 C 83.29 43.91 86.44 36.62 93.84 34.37 C 93.26 32.90 92.68 31.43 92.12 29.96 C 89.77 31.84 87.62 34.12 84.82 35.35 C 80.78 35.24 77.18 32.87 73.42 31.68 C 78.95 23.68 89.63 25.80 97.82 23.40 M 84.60 26.24 C 83.29 28.21 87.21 29.12 87.77 27.25 C 88.01 25.61 85.50 25.14 84.60 26.24 M 102.97 32.69 C 100.65 32.83 98.34 32.98 96.02 33.14 C 96.03 33.98 96.06 35.65 96.07 36.49 C 98.34 36.14 102.89 35.43 105.17 35.08 C 107.65 33.12 109.31 30.35 110.75 27.58 C 107.33 27.82 104.18 29.27 102.97 32.69 M 96.70 45.61 C 98.43 46.17 100.16 46.72 101.90 47.25 C 101.93 46.43 102.00 44.77 102.03 43.94 C 100.24 44.44 98.46 44.99 96.70 45.61 Z" />
<path fill="#3c6bbf" opacity="1.00" d=" M 72.66 25.10 C 73.76 25.45 74.86 25.80 75.97 26.14 C 74.26 29.63 73.31 34.24 68.82 34.82 L 69.21 33.35 L 69.47 32.36 C 70.35 29.86 71.44 27.45 72.66 25.10 Z" />
<path fill="#3c6bbf" opacity="1.00" d=" M 181.48 32.38 C 182.20 30.41 183.08 28.50 184.00 26.61 C 184.67 28.69 185.27 30.80 185.79 32.93 C 184.22 33.70 182.52 34.17 180.84 34.65 L 181.22 33.31 L 181.48 32.38 Z" />
</g>
<g id="#79a55dff">
<path fill="#79a55d" opacity="1.00" d=" M 2.79 22.77 C 4.05 23.14 5.30 23.50 6.55 23.89 C 6.69 24.12 6.95 24.57 7.09 24.80 C 5.75 25.56 4.46 27.01 5.07 28.66 C 5.10 28.77 5.14 29.01 5.17 29.13 C 5.38 30.35 5.55 31.58 5.74 32.81 L 5.89 33.88 C 5.00 33.23 4.10 32.59 3.21 31.94 C 4.25 38.49 5.88 45.01 5.76 51.68 C 5.76 51.92 5.74 52.39 5.73 52.63 C 5.69 53.77 5.79 54.89 6.06 56.00 L 0.00 56.00 L 0.00 23.22 C 0.43 24.34 0.88 25.45 1.34 26.56 C 1.83 25.30 2.31 24.04 2.79 22.77 Z" />
<path fill="#79a55d" opacity="1.00" d=" M 170.64 22.73 C 171.94 23.11 173.25 23.49 174.54 23.89 C 174.68 24.12 174.95 24.57 175.08 24.80 C 173.74 25.56 172.46 27.01 173.08 28.65 C 173.10 28.77 173.15 29.00 173.17 29.11 C 173.38 30.31 173.55 31.51 173.73 32.71 L 173.89 33.82 C 173.00 33.20 172.10 32.58 171.21 31.95 C 172.26 38.50 173.88 45.02 173.76 51.69 C 173.75 51.93 173.73 52.42 173.73 52.67 C 173.67 53.79 173.79 54.90 174.06 56.00 L 166.39 56.00 C 166.69 54.68 167.01 53.35 167.35 52.04 C 167.45 51.66 167.67 50.92 167.78 50.54 C 167.83 50.17 167.94 49.41 167.99 49.03 L 167.97 48.09 C 167.96 47.64 167.93 46.73 167.91 46.28 C 167.91 45.71 167.89 44.58 167.88 44.01 C 167.88 38.09 167.97 32.17 167.96 26.25 C 167.95 25.69 167.94 24.56 167.94 24.00 C 168.60 24.70 169.27 25.40 169.94 26.10 C 170.18 24.97 170.41 23.85 170.64 22.73 Z" />
</g>
<g id="#79a45eff">
<path fill="#79a45e" opacity="1.00" d=" M 58.63 22.74 C 59.95 23.11 61.28 23.48 62.59 23.88 C 62.72 24.10 62.97 24.56 63.10 24.79 C 61.74 25.55 60.44 27.00 61.08 28.66 C 61.10 28.77 61.15 29.00 61.17 29.12 C 61.38 30.31 61.55 31.50 61.73 32.70 L 61.90 33.82 C 61.00 33.20 60.10 32.58 59.21 31.95 C 60.26 38.50 61.88 45.02 61.76 51.69 C 61.75 51.93 61.73 52.42 61.73 52.67 C 61.68 53.79 61.79 54.90 62.06 56.00 L 49.90 56.00 C 49.91 55.27 49.92 53.80 49.93 53.07 C 51.40 52.79 54.34 52.23 55.81 51.95 L 55.89 51.02 C 55.92 50.53 55.96 49.55 55.98 49.06 C 56.02 41.39 55.75 33.72 55.64 26.05 C 55.65 25.50 55.68 24.41 55.70 23.86 C 56.46 24.60 57.22 25.35 57.97 26.10 C 58.19 24.98 58.41 23.86 58.63 22.74 Z" />
</g>
<g id="#79a55bff">
<path fill="#79a55b" opacity="1.00" d=" M 114.64 22.74 C 115.96 23.11 117.29 23.48 118.61 23.87 C 118.73 24.10 118.98 24.56 119.10 24.79 C 117.74 25.55 116.44 27.01 117.07 28.67 C 117.09 28.78 117.14 29.01 117.16 29.12 C 117.38 30.34 117.55 31.56 117.74 32.79 L 117.89 33.86 C 117.00 33.22 116.10 32.58 115.21 31.94 C 116.25 38.49 117.88 45.01 117.76 51.68 C 117.75 51.92 117.74 52.40 117.73 52.64 C 117.68 53.77 117.79 54.89 118.06 56.00 L 62.47 56.00 C 63.40 54.69 64.15 53.26 64.74 51.77 C 66.49 51.47 68.24 51.19 69.99 50.90 C 73.52 54.43 78.92 53.24 83.38 53.22 C 85.32 53.67 87.30 54.01 89.29 54.15 C 90.35 54.25 91.31 53.97 92.18 53.31 C 94.23 52.77 96.28 52.25 98.33 51.70 C 97.52 54.54 101.37 54.34 101.74 51.96 C 103.24 52.28 104.75 52.57 106.26 52.86 C 108.05 53.76 112.05 55.11 111.96 51.79 L 111.98 51.05 L 112.01 49.97 C 112.07 42.37 112.04 34.77 111.98 27.18 C 111.97 26.36 111.94 24.73 111.93 23.91 C 112.60 24.65 113.27 25.38 113.94 26.12 C 114.18 24.99 114.41 23.87 114.64 22.74 Z" />
</g>
<g id="#3c6cbeff">
<path fill="#3c6cbe" opacity="1.00" d=" M 185.78 30.98 C 190.01 26.32 196.28 24.83 202.29 24.01 C 200.06 25.15 197.81 26.24 195.58 27.36 C 202.02 27.31 208.45 27.48 214.88 27.69 C 214.50 29.39 214.12 31.10 213.75 32.81 C 211.16 32.91 208.57 33.00 205.98 33.10 C 205.99 33.98 206.01 35.72 206.02 36.59 C 208.26 35.90 211.83 39.27 213.90 36.99 C 216.35 34.68 218.30 31.91 220.39 29.28 C 219.23 28.50 218.08 27.72 216.93 26.95 C 218.70 26.86 222.23 26.69 224.00 26.60 L 224.00 27.32 C 223.77 32.79 223.77 38.26 224.00 43.72 L 224.00 44.51 C 223.45 44.47 222.36 44.39 221.81 44.36 C 220.28 44.58 217.21 45.02 215.68 45.24 C 215.72 46.24 215.73 47.24 215.73 48.24 C 217.27 48.19 220.36 48.07 221.90 48.01 C 221.90 48.45 221.90 49.35 221.90 49.80 C 212.30 49.47 202.68 49.94 193.18 51.39 C 189.58 51.13 186.00 50.92 182.42 50.57 L 181.41 50.45 L 180.84 49.96 C 181.91 48.72 183.07 46.83 181.87 45.28 C 181.41 44.88 180.49 44.06 180.04 43.66 L 180.41 43.06 C 181.19 41.89 181.15 40.72 180.29 39.56 C 181.45 38.44 182.55 37.27 183.66 36.10 C 187.48 36.08 191.27 36.52 195.07 36.86 C 193.34 41.44 190.70 45.64 187.19 49.08 C 188.39 49.20 189.59 49.33 190.79 49.46 C 192.52 47.74 194.33 46.12 196.23 44.59 C 196.18 41.76 196.37 38.94 196.59 36.12 C 199.41 36.03 202.23 35.94 205.05 35.85 C 204.00 33.50 202.98 31.15 201.96 28.80 C 199.42 31.32 196.89 33.87 194.32 36.36 C 191.48 34.56 188.62 32.78 185.78 30.98 M 210.65 42.24 C 211.52 44.04 212.43 45.82 213.43 47.55 C 213.40 45.31 213.40 43.08 213.36 40.84 C 212.68 41.19 211.33 41.89 210.65 42.24 M 207.53 45.12 C 207.68 45.44 207.96 46.09 208.10 46.41 C 210.70 47.02 208.95 42.94 207.53 45.12 Z" />
</g>
<g id="#416845ff">
<path fill="#416845" opacity="1.00" d=" M 7.09 24.80 C 8.43 26.43 6.73 28.28 5.07 28.66 C 4.46 27.01 5.75 25.56 7.09 24.80 Z" />
<path fill="#416845" opacity="1.00" d=" M 63.10 24.79 C 64.38 26.43 62.75 28.29 61.08 28.66 C 60.44 27.00 61.74 25.55 63.10 24.79 Z" />
<path fill="#416845" opacity="1.00" d=" M 119.10 24.79 C 120.37 26.44 118.75 28.29 117.07 28.67 C 116.44 27.01 117.74 25.55 119.10 24.79 Z" />
<path fill="#416845" opacity="1.00" d=" M 175.08 24.80 C 176.44 26.42 174.74 28.28 173.08 28.65 C 172.46 27.01 173.74 25.56 175.08 24.80 Z" />
</g>
<g id="#437acbfe">
<path fill="#437acb" opacity="1.00" d=" M 84.60 26.24 C 85.50 25.14 88.01 25.61 87.77 27.25 C 87.21 29.12 83.29 28.21 84.60 26.24 Z" />
</g>
<g id="#4575cbff">
<path fill="#4575cb" opacity="1.00" d=" M 139.85 25.69 C 141.55 25.47 142.16 26.12 141.68 27.64 C 140.12 28.03 139.51 27.38 139.85 25.69 Z" />
</g>
<g id="#3b6bbfff">
<path fill="#3b6bbf" opacity="1.00" d=" M 18.37 33.01 C 20.55 30.47 23.01 26.86 26.90 27.62 C 34.28 29.18 41.74 27.81 49.11 26.95 C 48.14 27.46 47.17 27.96 46.21 28.47 C 47.09 29.81 47.98 31.15 48.88 32.48 C 46.98 34.84 45.14 37.25 43.49 39.79 C 45.77 39.19 48.46 39.24 50.40 37.79 C 52.22 33.92 53.00 29.53 55.64 26.05 C 55.75 33.72 56.02 41.39 55.98 49.06 C 52.85 49.17 49.72 49.27 46.59 49.27 C 45.89 49.26 45.20 49.27 44.51 49.30 C 44.92 48.13 45.29 46.95 45.65 45.76 C 47.87 46.40 50.10 47.00 52.38 47.42 C 48.06 43.93 42.73 43.22 37.46 45.03 C 38.91 45.18 40.35 45.32 41.79 45.46 C 42.21 46.83 42.66 48.19 43.18 49.53 C 38.40 50.27 33.64 51.16 28.87 51.93 C 24.08 51.45 19.31 50.89 14.50 50.66 L 13.48 50.59 C 13.92 48.76 14.44 46.93 14.64 45.06 L 14.57 44.45 C 14.39 42.83 14.03 39.59 13.85 37.97 C 14.71 37.06 15.56 36.14 16.40 35.21 C 20.44 36.96 24.56 38.56 28.35 40.82 C 25.76 42.74 23.04 44.49 20.23 46.08 C 21.01 47.52 21.80 48.96 22.58 50.40 C 28.40 45.19 31.36 37.83 36.45 32.02 C 33.56 33.15 30.78 34.73 27.68 35.24 C 24.47 35.27 21.46 33.65 18.37 33.01 Z" />
</g>
<g id="#525548ff">
<path fill="#525548" opacity="1.00" d=" M 8.23 27.46 C 9.80 28.30 11.36 29.15 12.92 30.01 C 12.97 30.97 13.02 31.94 13.08 32.90 C 10.63 32.81 8.18 32.79 5.74 32.81 C 5.55 31.58 5.38 30.35 5.17 29.13 C 6.73 29.64 8.30 30.11 9.88 30.58 C 9.33 29.54 8.78 28.50 8.23 27.46 Z" />
<path fill="#525548" opacity="1.00" d=" M 64.73 27.02 C 66.40 28.72 68.01 30.48 69.47 32.36 L 69.21 33.35 C 66.72 33.04 64.23 32.83 61.73 32.70 C 61.55 31.50 61.38 30.31 61.17 29.12 C 62.67 29.66 64.20 30.15 65.72 30.65 C 65.39 29.44 65.06 28.23 64.73 27.02 Z" />
<path fill="#525548" opacity="1.00" d=" M 120.23 27.45 C 121.80 28.30 123.36 29.17 124.91 30.05 C 124.99 30.64 125.14 31.82 125.21 32.42 L 125.07 33.00 C 122.63 32.87 120.18 32.81 117.74 32.79 C 117.55 31.56 117.38 30.34 117.16 29.12 C 118.72 29.64 120.31 30.11 121.89 30.58 C 121.33 29.54 120.78 28.49 120.23 27.45 Z" />
<path fill="#525548" opacity="1.00" d=" M 176.73 27.02 C 178.40 28.73 180.02 30.49 181.48 32.38 L 181.22 33.31 C 178.73 33.02 176.23 32.83 173.73 32.71 C 173.55 31.51 173.38 30.31 173.17 29.11 C 174.67 29.66 176.20 30.15 177.72 30.65 C 177.39 29.44 177.06 28.23 176.73 27.02 Z" />
</g>
<g id="#8aa3b5ff">
<path fill="#8aa3b5" opacity="1.00" d=" M 12.75 27.79 C 13.29 29.37 13.90 30.93 14.49 32.50 C 14.33 32.90 13.99 33.72 13.83 34.12 C 13.68 34.47 13.38 35.17 13.23 35.52 C 13.19 34.86 13.11 33.55 13.08 32.90 C 13.02 31.94 12.97 30.97 12.92 30.01 C 12.88 29.46 12.79 28.34 12.75 27.79 Z" />
</g>
<g id="#4575c9ff">
<path fill="#4575c9" opacity="1.00" d=" M 102.97 32.69 C 104.18 29.27 107.33 27.82 110.75 27.58 C 109.31 30.35 107.65 33.12 105.17 35.08 C 102.89 35.43 98.34 36.14 96.07 36.49 C 96.06 35.65 96.03 33.98 96.02 33.14 C 98.34 32.98 100.65 32.83 102.97 32.69 Z" />
</g>
<g id="#4477c9ff">
<path fill="#4477c9" opacity="1.00" d=" M 158.28 32.81 C 159.57 30.81 161.05 28.93 162.69 27.21 C 162.47 30.15 162.18 33.08 161.93 36.02 C 156.13 35.11 149.69 33.16 144.12 36.08 C 141.26 39.43 139.80 43.83 136.44 46.82 C 137.26 43.95 138.54 41.18 138.90 38.20 C 136.12 35.74 132.11 35.48 128.81 33.98 C 129.16 33.08 129.50 32.17 129.85 31.26 C 134.21 32.57 139.23 35.13 143.54 32.46 C 145.78 31.72 149.12 28.80 150.49 32.29 C 149.91 31.27 147.47 30.75 147.60 32.47 C 148.33 33.22 149.26 33.39 150.37 32.96 C 152.99 32.63 155.64 32.86 158.28 32.81 Z" />
</g>
<g id="#6192e0ff">
<path fill="#6192e0" opacity="1.00" d=" M 224.00 43.72 C 223.77 38.26 223.77 32.79 224.00 27.32 L 224.00 43.72 Z" />
</g>
<g id="#608fe4ff">
<path fill="#608fe4" opacity="1.00" d=" M 147.60 32.47 C 147.47 30.75 149.91 31.27 150.49 32.29 L 150.37 32.96 C 149.26 33.39 148.33 33.22 147.60 32.47 Z" />
</g>
<g id="#4e5e48ff">
<path fill="#4e5e48" opacity="1.00" d=" M 3.21 31.94 C 4.10 32.59 5.00 33.23 5.89 33.88 C 6.56 38.99 7.45 44.07 8.48 49.12 C 7.56 49.96 6.64 50.80 5.76 51.68 C 5.88 45.01 4.25 38.49 3.21 31.94 Z" />
<path fill="#4e5e48" opacity="1.00" d=" M 59.21 31.95 C 60.10 32.58 61.00 33.20 61.90 33.82 C 62.56 38.95 63.44 44.06 64.48 49.12 C 63.56 49.96 62.64 50.80 61.76 51.69 C 61.88 45.02 60.26 38.50 59.21 31.95 Z" />
<path fill="#4e5e48" opacity="1.00" d=" M 115.21 31.94 C 116.10 32.58 117.00 33.22 117.89 33.86 C 118.56 38.98 119.44 44.07 120.48 49.12 C 119.56 49.96 118.64 50.80 117.76 51.68 C 117.88 45.01 116.25 38.49 115.21 31.94 Z" />
<path fill="#4e5e48" opacity="1.00" d=" M 171.21 31.95 C 172.10 32.58 173.00 33.20 173.89 33.82 C 174.56 38.96 175.44 44.06 176.48 49.12 C 175.56 49.97 174.64 50.80 173.76 51.69 C 173.88 45.02 172.26 38.50 171.21 31.95 Z" />
</g>
<g id="#268ed9ff">
<path fill="#268ed9" opacity="1.00" d=" M 13.83 34.12 C 14.72 34.40 15.57 34.76 16.40 35.21 C 15.48 35.99 14.46 36.57 13.32 36.97 C 13.30 36.61 13.25 35.88 13.23 35.52 C 13.38 35.17 13.68 34.47 13.83 34.12 Z" />
</g>
<g id="#268dd9ff">
<path fill="#268dd9" opacity="1.00" d=" M 124.86 33.86 C 125.94 34.22 127.02 34.58 128.10 34.94 C 126.58 38.03 125.29 41.24 124.15 44.49 C 125.59 44.57 127.03 44.65 128.47 44.73 C 127.12 46.53 125.88 48.42 124.77 50.39 C 123.78 46.90 123.52 43.26 122.62 39.76 C 122.86 39.40 123.35 38.67 123.59 38.31 C 124.07 36.84 124.48 35.36 124.86 33.86 Z" />
</g>
<g id="#7b9eb5ff">
<path fill="#7b9eb5" opacity="1.00" d=" M 13.32 36.97 C 14.46 36.57 15.48 35.99 16.40 35.21 C 15.56 36.14 14.71 37.06 13.85 37.97 C 13.08 38.77 12.29 39.56 11.51 40.35 L 11.46 39.43 C 11.50 38.99 11.59 38.13 11.64 37.69 C 12.06 37.51 12.90 37.15 13.32 36.97 Z" />
</g>
<g id="#7a9db6ff">
<path fill="#7a9db6" opacity="1.00" d=" M 68.47 36.03 C 69.24 36.04 70.77 36.06 71.54 36.07 C 70.47 37.25 69.41 38.44 68.29 39.58 C 68.00 39.79 67.41 40.22 67.12 40.43 L 67.39 39.55 C 67.52 39.17 67.76 38.41 67.88 38.03 C 68.03 37.53 68.32 36.53 68.47 36.03 Z" />
<path fill="#7a9db6" opacity="1.00" d=" M 180.45 35.99 C 181.26 36.01 182.86 36.07 183.66 36.10 C 182.55 37.27 181.45 38.44 180.29 39.56 C 179.99 39.78 179.41 40.21 179.11 40.43 L 179.39 39.54 C 179.50 39.16 179.74 38.39 179.86 38.01 C 180.01 37.50 180.30 36.49 180.45 35.99 Z" />
</g>
<g id="#3490d2ff">
<path fill="#3490d2" opacity="1.00" d=" M 11.51 40.35 C 12.29 39.56 13.08 38.77 13.85 37.97 C 14.03 39.59 14.39 42.83 14.57 44.45 C 13.85 44.32 12.39 44.06 11.67 43.93 C 11.64 42.73 11.57 41.54 11.51 40.35 Z" />
</g>
<g id="#4c95c9ff">
<path fill="#4c95c9" opacity="1.00" d=" M 67.12 40.43 C 67.41 40.22 68.00 39.79 68.29 39.58 C 69.16 40.74 69.20 41.90 68.41 43.06 C 67.07 42.61 66.64 41.74 67.12 40.43 Z" />
<path fill="#4c95c9" opacity="1.00" d=" M 179.11 40.43 C 179.41 40.21 179.99 39.78 180.29 39.56 C 181.15 40.72 181.19 41.89 180.41 43.06 C 179.08 42.61 178.64 41.73 179.11 40.43 Z" />
</g>
<g id="#4c80ccff">
<path fill="#4c80cc" opacity="1.00" d=" M 210.65 42.24 C 211.33 41.89 212.68 41.19 213.36 40.84 C 213.40 43.08 213.40 45.31 213.43 47.55 C 212.43 45.82 211.52 44.04 210.65 42.24 Z" />
</g>
<g id="#4779cfff">
<path fill="#4779cf" opacity="1.00" d=" M 37.46 45.03 C 42.73 43.22 48.06 43.93 52.38 47.42 C 50.10 47.00 47.87 46.40 45.65 45.76 C 45.29 46.95 44.92 48.13 44.51 49.30 L 43.99 49.40 L 43.18 49.53 C 42.66 48.19 42.21 46.83 41.79 45.46 C 40.35 45.32 38.91 45.18 37.46 45.03 Z" />
</g>
<g id="#86a0b0fe">
<path fill="#86a0b0" opacity="1.00" d=" M 11.67 43.93 C 12.39 44.06 13.85 44.32 14.57 44.45 L 14.64 45.06 C 13.96 46.03 13.04 46.80 12.05 47.44 C 11.52 46.35 11.66 45.10 11.67 43.93 Z" />
</g>
<g id="#5083d1ff">
<path fill="#5083d1" opacity="1.00" d=" M 96.70 45.61 C 98.46 44.99 100.24 44.44 102.03 43.94 C 102.00 44.77 101.93 46.43 101.90 47.25 C 100.16 46.72 98.43 46.17 96.70 45.61 Z" />
</g>
<g id="#447ccdff">
<path fill="#447ccd" opacity="1.00" d=" M 150.43 45.25 C 156.19 44.25 162.05 44.20 167.88 44.01 C 167.89 44.58 167.91 45.71 167.91 46.28 C 167.45 46.02 166.53 45.49 166.07 45.23 C 165.50 45.30 164.36 45.46 163.79 45.54 L 163.22 46.00 C 158.94 46.50 154.64 46.05 150.43 45.25 Z" />
</g>
<g id="#415f5fff">
<path fill="#415f5f" opacity="1.00" d=" M 221.81 44.36 C 222.36 44.39 223.45 44.47 224.00 44.51 L 224.00 46.11 C 223.45 45.67 222.36 44.80 221.81 44.36 Z" />
</g>
<g id="#318cd2ff">
<path fill="#318cd2" opacity="1.00" d=" M 14.64 45.06 C 14.44 46.93 13.92 48.76 13.48 50.59 C 12.98 49.55 12.50 48.50 12.05 47.44 C 13.04 46.80 13.96 46.03 14.64 45.06 Z" />
</g>
<g id="#2c84d1fe">
<path fill="#2c84d1" opacity="1.00" d=" M 69.87 45.27 C 71.10 46.81 69.94 48.70 68.84 49.92 C 68.18 49.24 67.76 48.42 67.59 47.46 C 68.53 46.90 69.29 46.17 69.87 45.27 Z" />
<path fill="#2c84d1" opacity="1.00" d=" M 181.87 45.28 C 183.07 46.83 181.91 48.72 180.84 49.96 C 180.17 49.28 179.75 48.45 179.59 47.47 C 180.53 46.91 181.29 46.19 181.87 45.28 Z" />
</g>
<g id="#417fcaff">
<path fill="#417fca" opacity="1.00" d=" M 130.89 47.64 C 131.88 46.78 132.87 45.92 133.86 45.07 C 135.63 47.07 137.48 49.00 139.33 50.93 C 139.68 51.29 140.40 52.02 140.75 52.38 C 135.88 51.73 131.02 51.08 126.14 50.51 C 130.52 50.85 134.90 50.92 139.29 51.02 C 136.49 49.90 133.68 48.81 130.89 47.64 Z" />
</g>
<g id="#3766b2ff">
<path fill="#3766b2" opacity="1.00" d=" M 142.29 47.20 C 144.95 46.36 147.66 45.63 150.43 45.25 C 154.64 46.05 158.94 46.50 163.22 46.00 C 162.53 46.79 161.85 47.58 161.19 48.39 C 163.45 48.30 165.71 48.19 167.97 48.09 L 167.99 49.03 C 166.66 48.42 165.21 49.00 163.96 49.51 C 163.30 49.62 162.00 49.83 161.34 49.93 L 160.86 49.18 C 160.23 47.84 159.28 47.47 158.03 48.08 C 156.92 48.63 155.81 49.19 154.70 49.74 C 152.46 50.18 150.19 50.49 147.91 50.67 C 149.35 49.42 150.78 48.16 152.19 46.89 C 148.89 46.95 145.59 47.33 142.29 47.20 Z" />
</g>
<g id="#2f5ab5ff">
<path fill="#2f5ab5" opacity="1.00" d=" M 163.79 45.54 C 164.36 45.46 165.50 45.30 166.07 45.23 C 166.34 46.80 163.85 47.23 163.79 45.54 Z" />
</g>
<g id="#3f6fbeff">
<path fill="#3f6fbe" opacity="1.00" d=" M 166.07 45.23 C 166.53 45.49 167.45 46.02 167.91 46.28 C 167.93 46.73 167.96 47.64 167.97 48.09 C 165.71 48.19 163.45 48.30 161.19 48.39 C 161.85 47.58 162.53 46.79 163.22 46.00 L 163.79 45.54 C 163.85 47.23 166.34 46.80 166.07 45.23 Z" />
</g>
<g id="#5790d3ff">
<path fill="#5790d3" opacity="1.00" d=" M 207.53 45.12 C 208.95 42.94 210.70 47.02 208.10 46.41 C 207.96 46.09 207.68 45.44 207.53 45.12 Z" />
</g>
<g id="#4271cdff">
<path fill="#4271cd" opacity="1.00" d=" M 215.68 45.24 C 217.21 45.02 220.28 44.58 221.81 44.36 C 221.83 45.27 221.88 47.09 221.90 48.01 C 220.36 48.07 217.27 48.19 215.73 48.24 C 215.73 47.24 215.72 46.24 215.68 45.24 Z" />
</g>
<g id="#7ba45eff">
<path fill="#7ba45e" opacity="1.00" d=" M 221.81 44.36 C 222.36 44.80 223.45 45.67 224.00 46.11 L 224.00 56.00 L 174.47 56.00 C 175.39 54.69 176.14 53.26 176.74 51.77 C 178.48 51.48 180.24 51.21 181.99 50.93 C 186.49 55.14 193.19 53.03 198.66 53.06 C 199.66 53.78 200.92 54.12 202.10 53.64 C 202.54 53.53 203.41 53.29 203.84 53.18 C 204.78 54.21 207.08 53.38 205.76 51.97 C 206.09 51.93 206.73 51.84 207.05 51.80 C 207.60 53.34 210.15 54.11 210.39 51.95 C 214.17 52.57 218.00 52.30 221.80 51.97 L 221.87 50.80 L 221.90 49.80 C 221.90 49.35 221.90 48.45 221.90 48.01 C 221.88 47.09 221.83 45.27 221.81 44.36 Z" />
</g>
<g id="#5676acff">
<path fill="#5676ac" opacity="1.00" d=" M 46.59 49.27 C 49.72 49.27 52.85 49.17 55.98 49.06 C 55.96 49.55 55.92 50.53 55.89 51.02 C 52.79 50.45 49.70 49.81 46.59 49.27 Z" />
</g>
<g id="#3f658eff">
<path fill="#3f658e" opacity="1.00" d=" M 154.70 49.74 C 155.81 49.19 156.92 48.63 158.03 48.08 C 158.57 49.27 159.51 49.64 160.86 49.18 L 161.34 49.93 C 159.20 50.75 157.08 51.59 154.96 52.45 C 154.49 51.98 153.55 51.06 153.08 50.59 C 153.48 50.38 154.30 49.95 154.70 49.74 Z" />
</g>
<g id="#4e79bdff">
<path fill="#4e79bd" opacity="1.00" d=" M 158.03 48.08 C 159.28 47.47 160.23 47.84 160.86 49.18 C 159.51 49.64 158.57 49.27 158.03 48.08 Z" />
</g>
<g id="#4f7ca9ff">
<path fill="#4f7ca9" opacity="1.00" d=" M 28.87 51.93 C 33.64 51.16 38.40 50.27 43.18 49.53 L 43.99 49.40 C 43.29 49.99 42.61 50.58 41.93 51.20 C 37.78 51.65 33.64 52.15 29.49 52.60 L 27.67 52.13 L 28.87 51.93 Z" />
</g>
<g id="#31565cff">
<path fill="#31565c" opacity="1.00" d=" M 43.99 49.40 L 44.51 49.30 C 45.20 49.27 45.89 49.26 46.59 49.27 C 49.70 49.81 52.79 50.45 55.89 51.02 L 55.81 51.95 C 54.34 52.23 51.40 52.79 49.93 53.07 C 49.40 52.96 48.34 52.75 47.81 52.65 C 47.25 52.56 46.12 52.40 45.56 52.31 C 44.16 52.11 42.76 51.92 41.37 51.72 L 41.93 51.20 C 42.61 50.58 43.29 49.99 43.99 49.40 Z" />
</g>
<g id="#5278a4ff">
<path fill="#5278a4" opacity="1.00" d=" M 84.45 50.82 C 88.99 50.44 93.54 50.13 98.07 49.58 C 97.96 50.02 97.75 50.91 97.64 51.35 C 95.26 51.74 92.89 52.13 90.50 52.41 L 89.51 52.49 C 88.12 52.06 86.68 51.87 85.24 51.93 C 84.82 51.84 83.99 51.66 83.57 51.57 L 84.45 50.82 Z" />
</g>
<g id="#305f7aff">
<path fill="#305f7a" opacity="1.00" d=" M 98.07 49.58 C 98.48 49.54 99.29 49.46 99.70 49.43 L 100.22 49.54 C 99.94 50.02 99.38 50.99 99.10 51.47 L 98.33 51.70 L 97.64 51.35 C 97.75 50.91 97.96 50.02 98.07 49.58 Z" />
</g>
<g id="#4971abff">
<path fill="#4971ab" opacity="1.00" d=" M 99.70 49.43 C 103.81 49.38 107.91 49.70 112.01 49.97 L 111.98 51.05 C 108.05 50.65 104.11 50.31 100.22 49.54 L 99.70 49.43 Z" />
</g>
<g id="#5a7bacff">
<path fill="#5a7bac" opacity="1.00" d=" M 147.91 50.67 C 150.19 50.49 152.46 50.18 154.70 49.74 C 154.30 49.95 153.48 50.38 153.08 50.59 C 149.30 51.38 145.49 52.05 141.66 52.52 L 140.75 52.38 C 140.40 52.02 139.68 51.29 139.33 50.93 C 142.19 50.85 145.04 50.79 147.91 50.67 Z" />
</g>
<g id="#4177b3fe">
<path fill="#4177b3" opacity="1.00" d=" M 163.96 49.51 C 165.21 49.00 166.66 48.42 167.99 49.03 C 167.94 49.41 167.83 50.17 167.78 50.54 C 167.01 50.66 165.47 50.88 164.71 50.99 C 164.52 50.62 164.14 49.88 163.96 49.51 Z" />
</g>
<g id="#486f99ff">
<path fill="#486f99" opacity="1.00" d=" M 193.18 51.39 C 202.68 49.94 212.30 49.47 221.90 49.80 L 221.87 50.80 C 217.46 50.88 213.05 51.01 208.66 51.52 C 208.26 51.59 207.45 51.73 207.05 51.80 C 206.73 51.84 206.09 51.93 205.76 51.97 C 205.31 52.08 204.40 52.28 203.94 52.39 C 203.31 52.33 202.03 52.21 201.39 52.16 L 200.38 52.09 C 198.29 51.91 196.21 51.68 194.13 51.48 L 193.18 51.39 Z" />
</g>
<g id="#3a4d39ff">
<path fill="#3a4d39" opacity="1.00" d=" M 13.48 50.59 L 14.50 50.66 C 18.90 51.07 23.28 51.65 27.67 52.13 L 29.49 52.60 L 28.49 52.74 C 28.17 52.78 27.55 52.86 27.24 52.90 C 22.80 53.42 17.70 54.21 13.86 51.32 L 13.48 50.59 Z" />
</g>
<g id="#4081cbff">
<path fill="#4081cb" opacity="1.00" d=" M 14.50 50.66 C 19.31 50.89 24.08 51.45 28.87 51.93 L 27.67 52.13 C 23.28 51.65 18.90 51.07 14.50 50.66 Z" />
<path fill="#4081cb" opacity="1.00" d=" M 70.38 50.54 C 75.06 50.98 79.76 50.96 84.45 50.82 L 83.57 51.57 C 83.34 51.90 82.89 52.58 82.67 52.91 C 78.64 51.82 74.49 51.24 70.38 50.54 Z" />
<path fill="#4081cb" opacity="1.00" d=" M 182.42 50.57 C 186.00 50.92 189.58 51.13 193.18 51.39 L 194.13 51.48 C 190.22 51.20 186.31 51.01 182.42 50.57 Z" />
</g>
<g id="#3a4a37ff">
<path fill="#3a4a37" opacity="1.00" d=" M 69.40 50.39 L 70.38 50.54 C 74.49 51.24 78.64 51.82 82.67 52.91 L 83.38 53.22 C 78.92 53.24 73.52 54.43 69.99 50.90 L 69.40 50.39 Z" />
</g>
<g id="#2b5a55ff">
<path fill="#2b5a55" opacity="1.00" d=" M 99.10 51.47 C 99.38 50.99 99.94 50.02 100.22 49.54 C 104.11 50.31 108.05 50.65 111.98 51.05 L 111.96 51.79 C 110.54 52.06 107.68 52.59 106.26 52.86 C 104.75 52.57 103.24 52.28 101.74 51.96 C 101.08 51.84 99.76 51.59 99.10 51.47 Z" />
</g>
<g id="#3b4c39ff">
<path fill="#3b4c39" opacity="1.00" d=" M 124.77 50.39 L 126.14 50.51 C 131.02 51.08 135.88 51.73 140.75 52.38 L 141.66 52.52 L 140.69 52.63 C 135.58 53.08 129.73 54.37 125.10 51.32 L 124.77 50.39 Z" />
</g>
<g id="#335858ff">
<path fill="#335858" opacity="1.00" d=" M 154.96 52.45 C 157.08 51.59 159.20 50.75 161.34 49.93 C 161.83 51.34 163.52 51.30 164.71 50.99 C 165.47 50.88 167.01 50.66 167.78 50.54 C 167.67 50.92 167.45 51.66 167.35 52.04 C 163.23 52.36 159.09 52.35 154.96 52.45 Z" />
</g>
<g id="#648aadff">
<path fill="#648aad" opacity="1.00" d=" M 161.34 49.93 C 162.00 49.83 163.30 49.62 163.96 49.51 C 164.14 49.88 164.52 50.62 164.71 50.99 C 163.52 51.30 161.83 51.34 161.34 49.93 Z" />
</g>
<g id="#334b37ff">
<path fill="#334b37" opacity="1.00" d=" M 181.41 50.45 L 182.42 50.57 C 186.31 51.01 190.22 51.20 194.13 51.48 C 196.21 51.68 198.29 51.91 200.38 52.09 C 199.95 52.33 199.09 52.82 198.66 53.06 C 193.19 53.03 186.49 55.14 181.99 50.93 L 181.41 50.45 Z" />
</g>
<g id="#355753ff">
<path fill="#355753" opacity="1.00" d=" M 208.66 51.52 C 213.05 51.01 217.46 50.88 221.87 50.80 L 221.80 51.97 C 218.00 52.30 214.17 52.57 210.39 51.95 C 209.96 51.85 209.09 51.63 208.66 51.52 Z" />
</g>
<g id="#446445fe">
<path fill="#446445" opacity="1.00" d=" M 5.73 52.63 C 6.67 52.15 7.67 51.87 8.73 51.80 C 8.12 53.27 7.37 54.69 6.46 56.00 L 6.06 56.00 C 5.79 54.89 5.69 53.77 5.73 52.63 Z" />
<path fill="#446445" opacity="1.00" d=" M 61.73 52.67 C 62.68 52.21 63.68 51.91 64.74 51.77 C 64.15 53.26 63.40 54.69 62.47 56.00 L 62.06 56.00 C 61.79 54.90 61.68 53.79 61.73 52.67 Z" />
<path fill="#446445" opacity="1.00" d=" M 117.73 52.64 C 118.67 52.17 119.68 51.88 120.73 51.80 C 120.13 53.27 119.38 54.69 118.47 56.00 L 118.06 56.00 C 117.79 54.89 117.68 53.77 117.73 52.64 Z" />
<path fill="#446445" opacity="1.00" d=" M 173.73 52.67 C 174.68 52.20 175.68 51.91 176.74 51.77 C 176.14 53.26 175.39 54.69 174.47 56.00 L 174.06 56.00 C 173.79 54.90 173.67 53.79 173.73 52.67 Z" />
</g>
<g id="#79a55cff">
<path fill="#79a55c" opacity="1.00" d=" M 8.73 51.80 C 10.44 51.61 12.15 51.47 13.86 51.32 C 17.70 54.21 22.80 53.42 27.24 52.90 C 27.19 54.03 27.49 55.06 28.14 56.00 L 6.46 56.00 C 7.37 54.69 8.12 53.27 8.73 51.80 Z" />
</g>
<g id="#154539fe">
<path fill="#154539" opacity="1.00" d=" M 29.49 52.60 C 33.64 52.15 37.78 51.65 41.93 51.20 L 41.37 51.72 C 40.73 52.29 40.10 52.87 39.46 53.44 C 35.80 53.21 32.15 52.99 28.49 52.74 L 29.49 52.60 Z" />
</g>
<g id="#446460ff">
<path fill="#446460" opacity="1.00" d=" M 83.57 51.57 C 83.99 51.66 84.82 51.84 85.24 51.93 L 85.21 52.58 C 84.75 52.74 83.84 53.06 83.38 53.22 L 82.67 52.91 C 82.89 52.58 83.34 51.90 83.57 51.57 Z" />
</g>
<g id="#194338ff">
<path fill="#194338" opacity="1.00" d=" M 90.50 52.41 C 92.89 52.13 95.26 51.74 97.64 51.35 L 98.33 51.70 C 96.28 52.25 94.23 52.77 92.18 53.31 C 91.76 53.08 90.92 52.64 90.50 52.41 Z" />
</g>
<g id="#7aa561ff">
<path fill="#7aa561" opacity="1.00" d=" M 120.73 51.80 C 122.19 51.62 123.64 51.47 125.10 51.32 C 129.73 54.37 135.58 53.08 140.69 52.63 C 144.26 52.58 147.85 52.64 151.43 52.57 C 150.71 53.72 149.97 54.87 149.22 56.00 L 118.47 56.00 C 119.38 54.69 120.13 53.27 120.73 51.80 Z" />
</g>
<g id="#234643ff">
<path fill="#234643" opacity="1.00" d=" M 141.66 52.52 C 145.49 52.05 149.30 51.38 153.08 50.59 C 153.55 51.06 154.49 51.98 154.96 52.45 C 153.78 52.48 152.61 52.54 151.43 52.57 C 147.85 52.64 144.26 52.58 140.69 52.63 L 141.66 52.52 Z" />
</g>
<g id="#567b4eff">
<path fill="#567b4e" opacity="1.00" d=" M 207.05 51.80 C 207.45 51.73 208.26 51.59 208.66 51.52 C 209.09 51.63 209.96 51.85 210.39 51.95 C 210.15 54.11 207.60 53.34 207.05 51.80 Z" />
</g>
<g id="#6b9f45ff">
<path fill="#6b9f45" opacity="1.00" d=" M 39.46 53.44 C 40.10 52.87 40.73 52.29 41.37 51.72 C 42.76 51.92 44.16 52.11 45.56 52.31 C 44.79 53.55 44.02 54.79 43.21 56.00 L 36.42 56.00 C 37.46 55.18 38.47 54.32 39.46 53.44 Z" />
</g>
<g id="#81ac5cff">
<path fill="#81ac5c" opacity="1.00" d=" M 45.56 52.31 C 46.12 52.40 47.25 52.56 47.81 52.65 C 47.92 53.80 48.16 54.95 48.68 56.00 L 43.21 56.00 C 44.02 54.79 44.79 53.55 45.56 52.31 Z" />
</g>
<g id="#669043ff">
<path fill="#669043" opacity="1.00" d=" M 47.81 52.65 C 48.34 52.75 49.40 52.96 49.93 53.07 C 49.92 53.80 49.91 55.27 49.90 56.00 L 48.68 56.00 C 48.16 54.95 47.92 53.80 47.81 52.65 Z" />
</g>
<g id="#1c3d42ff">
<path fill="#1c3d42" opacity="1.00" d=" M 85.24 51.93 C 86.68 51.87 88.12 52.06 89.51 52.49 C 89.31 52.82 88.93 53.48 88.74 53.81 C 87.51 53.55 86.33 53.14 85.21 52.58 L 85.24 51.93 Z" />
</g>
<g id="#497060ff">
<path fill="#497060" opacity="1.00" d=" M 89.51 52.49 L 90.50 52.41 C 90.92 52.64 91.76 53.08 92.18 53.31 C 91.31 53.97 90.35 54.25 89.29 54.15 L 88.74 53.81 C 88.93 53.48 89.31 52.82 89.51 52.49 Z" />
</g>
<g id="#5c8d48ff">
<path fill="#5c8d48" opacity="1.00" d=" M 98.33 51.70 L 99.10 51.47 C 99.76 51.59 101.08 51.84 101.74 51.96 C 101.37 54.34 97.52 54.54 98.33 51.70 Z" />
</g>
<g id="#679671fe">
<path fill="#679671" opacity="1.00" d=" M 106.26 52.86 C 107.68 52.59 110.54 52.06 111.96 51.79 C 112.05 55.11 108.05 53.76 106.26 52.86 Z" />
</g>
<g id="#729a53ff">
<path fill="#729a53" opacity="1.00" d=" M 151.43 52.57 C 152.61 52.54 153.78 52.48 154.96 52.45 C 159.09 52.35 163.23 52.36 167.35 52.04 C 167.01 53.35 166.69 54.68 166.39 56.00 L 161.15 56.00 C 160.58 55.27 159.44 53.81 158.86 53.08 C 157.50 54.05 156.16 55.05 154.78 56.00 L 149.22 56.00 C 149.97 54.87 150.71 53.72 151.43 52.57 Z" />
</g>
<g id="#49744bff">
<path fill="#49744b" opacity="1.00" d=" M 200.38 52.09 L 201.39 52.16 C 201.57 52.53 201.92 53.27 202.10 53.64 C 200.92 54.12 199.66 53.78 198.66 53.06 C 199.09 52.82 199.95 52.33 200.38 52.09 Z" />
</g>
<g id="#073126ff">
<path fill="#073126" opacity="1.00" d=" M 201.39 52.16 C 202.03 52.21 203.31 52.33 203.94 52.39 L 203.84 53.18 C 203.41 53.29 202.54 53.53 202.10 53.64 C 201.92 53.27 201.57 52.53 201.39 52.16 Z" />
</g>
<g id="#355e47ff">
<path fill="#355e47" opacity="1.00" d=" M 203.94 52.39 C 204.40 52.28 205.31 52.08 205.76 51.97 C 207.08 53.38 204.78 54.21 203.84 53.18 L 203.94 52.39 Z" />
</g>
<g id="#90c175ff">
<path fill="#90c175" opacity="1.00" d=" M 27.24 52.90 C 27.55 52.86 28.17 52.78 28.49 52.74 C 28.53 53.56 28.63 55.19 28.67 56.00 L 28.14 56.00 C 27.49 55.06 27.19 54.03 27.24 52.90 Z" />
</g>
<g id="#73a466fe">
<path fill="#73a466" opacity="1.00" d=" M 28.49 52.74 C 32.15 52.99 35.80 53.21 39.46 53.44 C 38.47 54.32 37.46 55.18 36.42 56.00 L 28.67 56.00 C 28.63 55.19 28.53 53.56 28.49 52.74 Z" />
</g>
<g id="#8cb281ff">
<path fill="#8cb281" opacity="1.00" d=" M 83.38 53.22 C 83.84 53.06 84.75 52.74 85.21 52.58 C 86.33 53.14 87.51 53.55 88.74 53.81 L 89.29 54.15 C 87.30 54.01 85.32 53.67 83.38 53.22 Z" />
</g>
<g id="#89b252ff">
<path fill="#89b252" opacity="1.00" d=" M 154.78 56.00 C 156.16 55.05 157.50 54.05 158.86 53.08 C 159.44 53.81 160.58 55.27 161.15 56.00 L 154.78 56.00 Z" />
</g>
</svg>
